<?xml version="1.0" encoding="UTF-8"?>
<svg xmlns="http://www.w3.org/2000/svg" xmlns:xlink="http://www.w3.org/1999/xlink" width="48pt" height="48pt" viewBox="0 0 48 48" version="1.1">
<g id="surface1">
<path style=" stroke:none;fill-rule:evenodd;fill:rgb(12.54902%,66.666667%,95.294118%);fill-opacity:1;" d="M 31.78125 3 L 11.300781 3 C 6.703125 3 3 6.703125 3 11.300781 L 3 36.699219 C 3 41.296875 6.703125 45 11.300781 45 L 36.699219 45 C 41.296875 45 45 41.296875 45 36.699219 L 45 16.21875 Z M 31.78125 3 "/>
<path style=" stroke:none;fill-rule:evenodd;fill:rgb(85.098039%,92.54902%,99.607843%);fill-opacity:1;" d="M 45 16.21875 L 31.78125 3 L 31.78125 7.917969 C 31.78125 12.515625 35.484375 16.21875 40.082031 16.21875 Z M 45 16.21875 "/>
<path style=" stroke:none;fill-rule:nonzero;fill:rgb(85.098039%,92.54902%,99.607843%);fill-opacity:1;" d="M 15 16.96875 L 15 18.46875 L 33 18.46875 L 33 16.96875 Z M 21.402344 19.96875 L 21.425781 20.699219 L 26.574219 27.46875 L 21 34.136719 L 21 34.96875 L 33 34.96875 L 33 30.800781 L 32.140625 30.800781 C 32.140625 31.636719 32.371094 32.15625 31.636719 32.652344 C 30.832031 33.199219 29.78125 33.300781 28.847656 33.300781 L 24.433594 33.300781 L 28.714844 27.46875 L 24.433594 20.800781 L 26.949219 20.800781 C 28.734375 20.800781 31.28125 20.640625 31.984375 22.730469 C 32.105469 23.089844 32.113281 23.761719 32.140625 24.136719 L 33 24.136719 L 33 19.972656 Z M 15 21.46875 L 15 22.96875 L 21 22.96875 L 21 21.46875 Z M 15 24.46875 L 15 25.96875 L 22.5 25.96875 L 22.5 24.46875 Z M 15 28.96875 L 15 30.46875 L 22.5 30.46875 L 22.5 28.96875 Z M 15 31.96875 L 15 33.46875 L 21 33.46875 L 21 31.96875 Z M 15 31.96875 "/>
</g>
</svg>
