<?xml version="1.0" encoding="UTF-8"?>
<svg xmlns="http://www.w3.org/2000/svg" xmlns:xlink="http://www.w3.org/1999/xlink" width="48pt" height="48pt" viewBox="0 0 48 48" version="1.1">
<g id="surface1">
<path style=" stroke:none;fill-rule:evenodd;fill:rgb(97.647059%,82.352941%,29.803922%);fill-opacity:1;" d="M 31.78125 3 L 11.300781 3 C 6.703125 3 3 6.703125 3 11.300781 L 3 36.699219 C 3 41.296875 6.703125 45 11.300781 45 L 36.699219 45 C 41.296875 45 45 41.296875 45 36.699219 L 45 16.21875 Z M 31.78125 3 "/>
<path style=" stroke:none;fill-rule:evenodd;fill:rgb(98.431373%,91.764706%,67.058824%);fill-opacity:1;" d="M 45 16.21875 L 31.78125 3 L 31.78125 7.917969 C 31.78125 12.515625 35.484375 16.21875 40.082031 16.21875 Z M 45 16.21875 "/>
<path style=" stroke:none;fill-rule:nonzero;fill:rgb(98.431373%,91.764706%,67.058824%);fill-opacity:1;" d="M 19.5 16.792969 L 19.5 29.214844 C 19.058594 28.957031 18.546875 28.792969 18 28.792969 C 16.34375 28.792969 15 30.136719 15 31.792969 C 15 33.449219 16.34375 34.792969 18 34.792969 C 19.65625 34.792969 21 33.449219 21 31.792969 L 21 21.292969 L 31.5 21.292969 L 31.5 27.714844 C 31.058594 27.457031 30.546875 27.292969 30 27.292969 C 28.34375 27.292969 27 28.636719 27 30.292969 C 27 31.949219 28.34375 33.292969 30 33.292969 C 31.65625 33.292969 33 31.949219 33 30.292969 L 33 16.792969 Z M 21 18.292969 L 31.5 18.292969 L 31.5 19.792969 L 21 19.792969 Z M 21 18.292969 "/>
</g>
</svg>
