<?xml version="1.0" encoding="UTF-8"?>
<svg xmlns="http://www.w3.org/2000/svg" xmlns:xlink="http://www.w3.org/1999/xlink" width="48pt" height="48pt" viewBox="0 0 48 48" version="1.1">
<g id="surface1">
<path style=" stroke:none;fill-rule:evenodd;fill:rgb(38.039216%,41.960784%,86.666667%);fill-opacity:1;" d="M 31.78125 3 L 11.300781 3 C 6.703125 3 3 6.703125 3 11.300781 L 3 36.699219 C 3 41.296875 6.703125 45 11.300781 45 L 36.699219 45 C 41.296875 45 45 41.296875 45 36.699219 L 45 16.21875 Z M 31.78125 3 "/>
<path style=" stroke:none;fill-rule:evenodd;fill:rgb(31.372549%,34.509804%,71.372549%);fill-opacity:1;" d="M 45 16.21875 L 31.78125 3 L 31.78125 7.917969 C 31.78125 12.515625 35.484375 16.21875 40.082031 16.21875 Z M 45 16.21875 "/>
<path style=" stroke:none;fill-rule:nonzero;fill:rgb(68.235294%,76.078431%,94.117647%);fill-opacity:1;" d="M 22.875 15.425781 L 18.371094 30.050781 L 15.484375 21.425781 L 3 21.425781 L 3 24.425781 L 13.738281 24.425781 L 18.371094 37.175781 L 22.875 22.925781 L 25.878906 31.925781 L 29.628906 22.925781 L 32.449219 31.925781 L 45 31.925781 L 45 28.925781 L 34.136719 28.925781 L 29.628906 16.925781 L 25.878906 25.175781 Z M 22.875 15.425781 "/>
</g>
</svg>
