<?xml version="1.0" encoding="UTF-8"?>
<svg xmlns="http://www.w3.org/2000/svg" xmlns:xlink="http://www.w3.org/1999/xlink" width="48pt" height="48pt" viewBox="0 0 48 48" version="1.1">
<defs>
<linearGradient id="linear0" gradientUnits="userSpaceOnUse" x1="2" y1="27" x2="30" y2="5" gradientTransform="matrix(1.360696,0,0,1.360696,2.654231,3.381221)">
<stop offset="0" style="stop-color:rgb(87.058824%,87.058824%,87.058824%);stop-opacity:1;"/>
<stop offset="1" style="stop-color:rgb(98.431373%,98.431373%,98.431373%);stop-opacity:1;"/>
</linearGradient>
</defs>
<g id="surface1">
<path style=" stroke:none;fill-rule:evenodd;fill:rgb(44.313725%,49.803922%,55.294118%);fill-opacity:1;" d="M 31.78125 3 L 11.300781 3 C 6.703125 3 3 6.703125 3 11.300781 L 3 36.699219 C 3 41.296875 6.703125 45 11.300781 45 L 36.699219 45 C 41.296875 45 45 41.296875 45 36.699219 L 45 16.21875 Z M 31.78125 3 "/>
<path style=" stroke:none;fill-rule:evenodd;fill:rgb(96.862745%,96.862745%,96.862745%);fill-opacity:1;" d="M 45 16.21875 L 31.78125 3 L 31.78125 7.917969 C 31.78125 12.515625 35.484375 16.21875 40.082031 16.21875 Z M 45 16.21875 "/>
<path style=" stroke:none;fill-rule:nonzero;fill:rgb(90.588235%,90.588235%,90.588235%);fill-opacity:1;" d="M 24.425781 14.636719 C 18.621094 14.636719 13.910156 19.34375 13.910156 25.152344 C 13.910156 30.957031 18.621094 35.667969 24.425781 35.667969 C 30.234375 35.667969 34.941406 30.957031 34.941406 25.152344 C 34.941406 19.34375 30.234375 14.636719 24.425781 14.636719 M 24.425781 16.386719 C 29.265625 16.386719 33.191406 20.3125 33.191406 25.152344 C 33.191406 29.988281 29.265625 33.910156 24.425781 33.910156 C 19.589844 33.910156 15.660156 29.988281 15.660156 25.152344 C 15.660156 20.3125 19.589844 16.386719 24.425781 16.386719 M 20.921875 19.890625 L 20.921875 30.40625 L 29.6875 25.152344 Z M 20.921875 19.890625 "/>
<path style=" stroke:none;fill-rule:nonzero;fill:url(#linear0);" d="M 6.734375 12.90625 L 6.734375 15.625 L 9.457031 15.625 L 9.457031 12.90625 Z M 39.390625 12.90625 L 39.390625 15.625 L 42.113281 15.625 L 42.113281 12.90625 Z M 6.734375 18.347656 L 6.734375 21.066406 L 9.457031 21.066406 L 9.457031 18.347656 Z M 39.390625 18.347656 L 39.390625 21.066406 L 42.113281 21.066406 L 42.113281 18.347656 Z M 6.734375 23.792969 L 6.734375 26.515625 L 9.457031 26.515625 L 9.457031 23.792969 Z M 39.390625 23.792969 L 39.390625 26.515625 L 42.113281 26.515625 L 42.113281 23.792969 Z M 6.734375 29.234375 L 6.734375 31.957031 L 9.457031 31.957031 L 9.457031 29.234375 Z M 39.390625 29.234375 L 39.390625 31.957031 L 42.113281 31.957031 L 42.113281 29.234375 Z M 6.734375 34.675781 L 6.734375 37.402344 L 9.457031 37.402344 L 9.457031 34.675781 Z M 39.390625 34.675781 L 39.390625 37.402344 L 42.113281 37.402344 L 42.113281 34.675781 Z M 39.390625 34.675781 "/>
</g>
</svg>
