<?xml version="1.0" encoding="UTF-8"?>
<svg xmlns="http://www.w3.org/2000/svg" xmlns:xlink="http://www.w3.org/1999/xlink" width="48pt" height="48pt" viewBox="0 0 48 48" version="1.1">
<g id="surface1">
<path style=" stroke:none;fill-rule:evenodd;fill:rgb(3.921569%,60%,83.921569%);fill-opacity:1;" d="M 31.78125 3 L 11.300781 3 C 6.703125 3 3 6.703125 3 11.300781 L 3 36.699219 C 3 41.296875 6.703125 45 11.300781 45 L 36.699219 45 C 41.296875 45 45 41.296875 45 36.699219 L 45 16.21875 Z M 31.78125 3 "/>
<path style=" stroke:none;fill-rule:evenodd;fill:rgb(3.137255%,49.411765%,69.019608%);fill-opacity:1;" d="M 45 16.21875 L 31.78125 3 L 31.78125 7.917969 C 31.78125 12.515625 35.484375 16.21875 40.082031 16.21875 Z M 45 16.21875 "/>
<path style=" stroke:none;fill-rule:nonzero;fill:rgb(100%,100%,100%);fill-opacity:1;" d="M 24 14.59375 C 18.019531 14.59375 13.171875 19.441406 13.171875 25.421875 L 20.390625 25.421875 L 20.390625 20.910156 L 27.609375 28.128906 L 20.390625 35.355469 L 20.390625 30.839844 L 14.636719 30.839844 C 16.566406 34.1875 20.136719 36.25 24 36.253906 C 29.980469 36.253906 34.828125 31.40625 34.828125 25.421875 C 34.828125 19.441406 29.980469 14.59375 24 14.59375 Z M 24 14.59375 "/>
</g>
</svg>
