<?xml version="1.0" encoding="UTF-8"?>
<svg xmlns="http://www.w3.org/2000/svg" xmlns:xlink="http://www.w3.org/1999/xlink" width="48pt" height="48pt" viewBox="0 0 48 48" version="1.1">
<g id="surface1">
<path style=" stroke:none;fill-rule:evenodd;fill:rgb(37.647059%,49.019608%,54.509804%);fill-opacity:1;" d="M 31.78125 3 L 11.300781 3 C 6.703125 3 3 6.703125 3 11.300781 L 3 36.699219 C 3 41.296875 6.703125 45 11.300781 45 L 36.699219 45 C 41.296875 45 45 41.296875 45 36.699219 L 45 16.21875 Z M 31.78125 3 "/>
<path style=" stroke:none;fill-rule:evenodd;fill:rgb(30.980392%,40.392157%,44.705882%);fill-opacity:1;" d="M 45 16.21875 L 31.78125 3 L 31.78125 7.917969 C 31.78125 12.515625 35.484375 16.21875 40.082031 16.21875 Z M 45 16.21875 "/>
<path style=" stroke:none;fill-rule:nonzero;fill:rgb(72.156863%,87.058824%,92.54902%);fill-opacity:1;" d="M 24.953125 30.378906 L 24.953125 32.285156 L 34.488281 32.285156 L 34.488281 30.378906 Z M 24.953125 36.105469 L 24.953125 38.011719 L 34.488281 38.011719 L 34.488281 36.105469 Z M 19.234375 24.660156 L 19.234375 26.566406 L 34.488281 26.566406 L 34.488281 24.660156 Z M 13.511719 18.941406 L 13.511719 20.847656 L 28.765625 20.847656 L 28.765625 18.941406 Z M 13.511719 18.941406 "/>
</g>
</svg>
