<?xml version="1.0" encoding="UTF-8"?>
<svg xmlns="http://www.w3.org/2000/svg" xmlns:xlink="http://www.w3.org/1999/xlink" width="48pt" height="48pt" viewBox="0 0 48 48" version="1.1">
<g id="surface1">
<path style=" stroke:none;fill-rule:evenodd;fill:rgb(56.862745%,28.235294%,68.627451%);fill-opacity:1;" d="M 31.78125 3 L 11.300781 3 C 6.703125 3 3 6.703125 3 11.300781 L 3 36.699219 C 3 41.296875 6.703125 45 11.300781 45 L 36.699219 45 C 41.296875 45 45 41.296875 45 36.699219 L 45 16.21875 Z M 31.78125 3 "/>
<path style=" stroke:none;fill-rule:evenodd;fill:rgb(88.627451%,81.960784%,89.803922%);fill-opacity:1;" d="M 45 16.21875 L 31.78125 3 L 31.78125 7.917969 C 31.78125 12.515625 35.484375 16.21875 40.082031 16.21875 Z M 45 16.21875 "/>
<path style=" stroke:none;fill-rule:nonzero;fill:rgb(90.980392%,85.098039%,92.156863%);fill-opacity:1;" d="M 24 16.433594 C 19.03125 16.433594 15 17.777344 15 19.433594 L 15 25.433594 C 15.003906 26.894531 18.171875 28.144531 22.5 28.390625 L 22.5 31.433594 L 19.5 31.433594 L 19.5 29.933594 L 15 29.933594 L 15 34.433594 L 19.5 34.433594 L 19.5 32.933594 L 28.5 32.933594 L 28.5 34.433594 L 33 34.433594 L 33 29.933594 L 28.5 29.933594 L 28.5 31.433594 L 25.5 31.433594 L 25.5 28.390625 C 29.828125 28.144531 32.996094 26.894531 33 25.433594 L 33 19.433594 C 33 17.777344 28.96875 16.433594 24 16.433594 M 24 17.933594 C 28.140625 17.933594 31.5 18.605469 31.5 19.433594 C 31.5 20.261719 28.140625 20.933594 24 20.933594 C 19.859375 20.933594 16.5 20.261719 16.5 19.433594 C 16.5 18.605469 19.859375 17.933594 24 17.933594 M 16.5 21.082031 C 18.160156 21.925781 20.980469 22.433594 24 22.433594 C 27.019531 22.433594 29.832031 21.925781 31.5 21.089844 L 31.5 25.433594 C 31.5 26.261719 28.140625 26.933594 24 26.933594 C 19.859375 26.933594 16.5 26.261719 16.5 25.433594 Z M 16.5 31.433594 L 18 31.433594 L 18 32.933594 L 16.5 32.933594 Z M 30 31.433594 L 31.5 31.433594 L 31.5 32.933594 L 30 32.933594 Z M 30 31.433594 "/>
</g>
</svg>
