<?xml version="1.0" encoding="UTF-8"?>
<svg xmlns="http://www.w3.org/2000/svg" xmlns:xlink="http://www.w3.org/1999/xlink" width="48pt" height="48pt" viewBox="0 0 48 48" version="1.1">
<g id="surface1">
<path style=" stroke:none;fill-rule:evenodd;fill:rgb(92.54902%,13.72549%,6.27451%);fill-opacity:1;" d="M 31.78125 3 L 11.300781 3 C 6.703125 3 3 6.703125 3 11.300781 L 3 36.699219 C 3 41.296875 6.703125 45 11.300781 45 L 36.699219 45 C 41.296875 45 45 41.296875 45 36.699219 L 45 16.21875 Z M 31.78125 3 "/>
<path style=" stroke:none;fill-rule:evenodd;fill:rgb(98.039216%,62.745098%,59.215686%);fill-opacity:1;" d="M 45 16.21875 L 31.78125 3 L 31.78125 7.917969 C 31.78125 12.515625 35.484375 16.21875 40.082031 16.21875 Z M 45 16.21875 "/>
<path style=" stroke:none;fill-rule:nonzero;fill:rgb(98.039216%,63.921569%,60.784314%);fill-opacity:1;" d="M 24 16.253906 C 19.03125 16.253906 15 17.597656 15 19.253906 L 15 31.253906 C 15 32.910156 19.03125 34.253906 24 34.253906 C 28.96875 34.253906 33 32.910156 33 31.253906 L 33 19.253906 C 33 17.597656 28.96875 16.253906 24 16.253906 M 24 17.753906 C 28.140625 17.753906 31.5 18.425781 31.5 19.253906 C 31.5 20.082031 28.140625 20.753906 24 20.753906 C 19.859375 20.753906 16.5 20.082031 16.5 19.253906 C 16.5 18.425781 19.859375 17.753906 24 17.753906 M 16.5 20.90625 C 18.160156 21.746094 20.980469 22.25 24 22.253906 C 27.019531 22.253906 29.832031 21.75 31.5 20.910156 L 31.5 25.253906 C 31.5 26.082031 28.140625 26.753906 24 26.753906 C 19.859375 26.753906 16.5 26.082031 16.5 25.253906 Z M 16.5 26.90625 C 18.160156 27.746094 20.980469 28.25 24 28.253906 C 27.019531 28.253906 29.832031 27.75 31.5 26.910156 L 31.5 31.253906 C 31.5 32.082031 28.140625 32.753906 24 32.753906 C 19.859375 32.753906 16.5 32.082031 16.5 31.253906 Z M 16.5 26.90625 "/>
</g>
</svg>
