<?xml version="1.0" encoding="UTF-8"?>
<svg xmlns="http://www.w3.org/2000/svg" xmlns:xlink="http://www.w3.org/1999/xlink" width="48pt" height="48pt" viewBox="0 0 48 48" version="1.1">
<g id="surface1">
<path style=" stroke:none;fill-rule:evenodd;fill:rgb(80%,80%,80%);fill-opacity:1;" d="M 31.78125 3 L 11.300781 3 C 6.703125 3 3 6.703125 3 11.300781 L 3 36.699219 C 3 41.296875 6.703125 45 11.300781 45 L 36.699219 45 C 41.296875 45 45 41.296875 45 36.699219 L 45 16.21875 Z M 31.78125 3 "/>
<path style=" stroke:none;fill-rule:evenodd;fill:rgb(60%,60%,60%);fill-opacity:1;" d="M 45 16.21875 L 31.78125 3 L 31.78125 7.917969 C 31.78125 12.515625 35.484375 16.21875 40.082031 16.21875 Z M 45 16.21875 "/>
<path style=" stroke:none;fill-rule:nonzero;fill:rgb(60%,60%,60%);fill-opacity:1;" d="M 15.609375 15.667969 C 14.628906 16.269531 12.652344 17.113281 11.019531 17.589844 L 11.074219 17.730469 C 11.847656 17.652344 12.675781 17.542969 13.453125 17.410156 L 13.453125 19.390625 L 11.035156 19.390625 L 11.097656 19.609375 L 13.078125 19.609375 C 12.691406 21.203125 11.980469 22.894531 10.957031 24.125 L 11.113281 24.269531 C 12.074219 23.578125 12.84375 22.777344 13.453125 21.863281 L 13.453125 25.972656 L 13.699219 25.972656 C 14.359375 25.972656 14.785156 25.722656 14.796875 25.644531 L 14.796875 21.003906 C 15.285156 21.449219 15.75 22.152344 15.84375 22.699219 C 16.011719 22.839844 16.191406 22.910156 16.359375 22.910156 C 16.707031 22.910156 17.003906 22.65625 17.003906 22.300781 C 17.003906 21.828125 16.464844 21.203125 14.796875 20.828125 L 14.796875 19.609375 L 16.605469 19.609375 C 16.957031 19.609375 17.125 19.550781 17.214844 19.410156 L 15.957031 18.566406 L 15.285156 19.386719 L 14.796875 19.386719 L 14.796875 17.144531 C 15.378906 17.015625 15.921875 16.886719 16.359375 16.75 C 16.527344 16.796875 16.671875 16.816406 16.800781 16.816406 C 16.957031 16.816406 17.082031 16.78125 17.160156 16.71875 L 15.613281 15.660156 Z M 21.566406 17.191406 L 21 17.84375 L 18.75 17.84375 L 17.3125 17.3125 L 17.3125 25.753906 C 18.53125 25.753906 18.6875 25.316406 18.6875 25.292969 L 18.6875 24.488281 L 21.125 24.488281 L 21.125 25.546875 C 22.152344 25.546875 22.511719 25.25 22.511719 25.230469 L 22.511719 18.371094 C 22.78125 18.3125 22.988281 18.222656 23.066406 18.125 Z M 18.683594 18.0625 L 21.125 18.0625 L 21.125 24.277344 L 18.683594 24.277344 Z M 33.191406 27.984375 C 31.761719 27.984375 30.722656 28.316406 30.078125 28.984375 C 29.542969 29.535156 29.246094 30.375 29.152344 31.480469 L 26.699219 31.480469 L 26.699219 29.386719 C 26.699219 29.113281 26.738281 28.917969 26.824219 28.796875 C 26.90625 28.683594 27.042969 28.613281 27.230469 28.605469 L 27.609375 28.582031 C 27.75 28.566406 27.824219 28.5 27.824219 28.371094 C 27.824219 28.277344 27.8125 28.21875 27.785156 28.199219 C 27.765625 28.171875 27.707031 28.160156 27.609375 28.160156 C 27.589844 28.160156 27.519531 28.167969 27.410156 28.171875 C 26.988281 28.191406 26.578125 28.199219 26.1875 28.199219 C 25.777344 28.199219 25.34375 28.191406 24.910156 28.171875 C 24.808594 28.167969 24.746094 28.160156 24.722656 28.160156 C 24.636719 28.160156 24.574219 28.175781 24.550781 28.199219 C 24.527344 28.21875 24.515625 28.277344 24.515625 28.371094 C 24.515625 28.5 24.589844 28.566406 24.738281 28.582031 L 25.09375 28.605469 C 25.292969 28.613281 25.425781 28.675781 25.511719 28.796875 C 25.59375 28.910156 25.636719 29.109375 25.636719 29.386719 L 25.636719 35 C 25.636719 35.277344 25.59375 35.472656 25.515625 35.589844 C 25.433594 35.707031 25.296875 35.769531 25.109375 35.785156 L 24.738281 35.808594 C 24.730469 35.8125 24.71875 35.8125 24.703125 35.8125 C 24.578125 35.824219 24.515625 35.886719 24.515625 36.003906 C 24.515625 36.105469 24.527344 36.167969 24.550781 36.1875 C 24.582031 36.214844 24.640625 36.222656 24.722656 36.222656 C 24.75 36.222656 24.808594 36.222656 24.902344 36.21875 C 25.34375 36.199219 25.769531 36.1875 26.183594 36.1875 C 26.578125 36.1875 26.988281 36.191406 27.410156 36.214844 C 27.515625 36.21875 27.582031 36.222656 27.609375 36.222656 C 27.703125 36.222656 27.761719 36.214844 27.785156 36.1875 C 27.808594 36.167969 27.824219 36.105469 27.824219 36.003906 C 27.824219 35.886719 27.761719 35.824219 27.644531 35.8125 C 27.628906 35.8125 27.621094 35.808594 27.609375 35.808594 L 27.246094 35.785156 C 27.046875 35.769531 26.90625 35.707031 26.824219 35.59375 C 26.738281 35.480469 26.699219 35.28125 26.699219 35 L 26.699219 32.683594 L 29.136719 32.683594 C 29.199219 33.902344 29.480469 34.824219 30.003906 35.410156 C 30.605469 36.074219 31.5625 36.40625 32.890625 36.40625 C 34.332031 36.40625 35.386719 36.066406 36.046875 35.402344 C 36.707031 34.730469 37.042969 33.660156 37.042969 32.191406 C 37.042969 30.707031 36.738281 29.636719 36.128906 28.972656 C 35.527344 28.3125 34.546875 27.984375 33.191406 27.984375 Z M 33.066406 28.386719 C 34.050781 28.386719 34.765625 28.683594 35.207031 29.277344 C 35.640625 29.863281 35.859375 30.84375 35.859375 32.191406 C 35.859375 33.535156 35.640625 34.503906 35.203125 35.097656 C 34.761719 35.691406 34.050781 35.988281 33.066406 35.988281 C 32.078125 35.988281 31.363281 35.691406 30.925781 35.097656 C 30.488281 34.503906 30.269531 33.53125 30.269531 32.175781 C 30.269531 30.847656 30.488281 29.886719 30.9375 29.28125 C 31.378906 28.683594 32.089844 28.386719 33.066406 28.386719 Z M 33.066406 28.386719 "/>
</g>
</svg>
