<?xml version="1.0" encoding="UTF-8"?>
<svg xmlns="http://www.w3.org/2000/svg" xmlns:xlink="http://www.w3.org/1999/xlink" width="48pt" height="48pt" viewBox="0 0 48 48" version="1.1">
<g id="surface1">
<path style=" stroke:none;fill-rule:evenodd;fill:rgb(32.54902%,59.607843%,25.098039%);fill-opacity:1;" d="M 31.78125 3 L 11.300781 3 C 6.703125 3 3 6.703125 3 11.300781 L 3 36.699219 C 3 41.296875 6.703125 45 11.300781 45 L 36.699219 45 C 41.296875 45 45 41.296875 45 36.699219 L 45 16.21875 Z M 31.78125 3 "/>
<path style=" stroke:none;fill-rule:evenodd;fill:rgb(16.470588%,45.098039%,16.862745%);fill-opacity:1;" d="M 45 16.21875 L 31.78125 3 L 31.78125 7.917969 C 31.78125 12.515625 35.484375 16.21875 40.082031 16.21875 Z M 45 16.21875 "/>
<path style=" stroke:none;fill-rule:nonzero;fill:rgb(78.823529%,91.372549%,61.568627%);fill-opacity:1;" d="M 17.328125 3 L 17.328125 24.839844 L 10.609375 24.839844 L 10.609375 31.5625 L 2.980469 31.5625 L 2.980469 34.921875 L 10.609375 34.921875 L 10.609375 41.640625 L 17.328125 41.640625 L 17.328125 45 L 20.6875 45 L 20.6875 41.640625 L 27.40625 41.640625 L 27.40625 34.921875 L 45.019531 34.921875 L 45.019531 31.5625 L 27.40625 31.5625 L 27.40625 24.839844 L 20.6875 24.839844 L 20.6875 3 Z M 13.96875 28.199219 L 24.046875 28.199219 L 24.046875 38.28125 L 13.96875 38.28125 Z M 17.328125 31.5625 L 17.328125 34.921875 L 20.6875 34.921875 L 20.6875 31.5625 Z M 17.328125 31.5625 "/>
</g>
</svg>
