<?xml version="1.0" encoding="UTF-8"?>
<svg xmlns="http://www.w3.org/2000/svg" xmlns:xlink="http://www.w3.org/1999/xlink" width="48pt" height="48pt" viewBox="0 0 48 48" version="1.1">
<g id="surface1">
<path style=" stroke:none;fill-rule:evenodd;fill:rgb(60%,74.117647%,100%);fill-opacity:1;" d="M 31.78125 3 L 11.300781 3 C 6.703125 3 3 6.703125 3 11.300781 L 3 36.699219 C 3 41.296875 6.703125 45 11.300781 45 L 36.699219 45 C 41.296875 45 45 41.296875 45 36.699219 L 45 16.21875 Z M 31.78125 3 "/>
<path style=" stroke:none;fill-rule:evenodd;fill:rgb(40.784314%,47.45098%,66.27451%);fill-opacity:0.478431;" d="M 45 16.21875 L 31.78125 3 L 31.78125 7.917969 C 31.78125 12.515625 35.484375 16.21875 40.082031 16.21875 Z M 45 16.21875 "/>
<path style=" stroke:none;fill-rule:nonzero;fill:rgb(50.196078%,56.862745%,78.039216%);fill-opacity:1;" d="M 24 17.328125 C 19.457031 17.328125 15.800781 20.984375 15.800781 25.527344 C 15.800781 30.066406 19.457031 33.722656 24 33.722656 C 28.542969 33.722656 32.199219 30.066406 32.199219 25.527344 C 32.199219 20.984375 28.542969 17.328125 24 17.328125 Z M 24 22.011719 C 25.941406 22.011719 27.515625 23.582031 27.515625 25.527344 C 27.515625 27.464844 25.941406 29.035156 24 29.035156 C 22.058594 29.035156 20.484375 27.464844 20.484375 25.527344 C 20.484375 23.582031 22.058594 22.011719 24 22.011719 Z M 24 22.011719 "/>
<path style=" stroke:none;fill-rule:nonzero;fill:rgb(40.784314%,47.45098%,66.27451%);fill-opacity:1;" d="M 24 11.433594 C 16.191406 11.433594 9.90625 17.71875 9.90625 25.527344 C 9.90625 33.332031 16.191406 39.621094 24 39.621094 C 31.808594 39.621094 38.09375 33.332031 38.09375 25.527344 C 38.09375 17.71875 31.808594 11.433594 24 11.433594 Z M 24 19.484375 C 27.339844 19.484375 30.042969 22.1875 30.042969 25.527344 C 30.042969 28.859375 27.339844 31.566406 24 31.566406 C 20.660156 31.566406 17.957031 28.859375 17.957031 25.527344 C 17.957031 22.1875 20.660156 19.484375 24 19.484375 Z M 24 19.484375 "/>
<path style=" stroke:none;fill-rule:nonzero;fill:rgb(60%,74.117647%,100%);fill-opacity:1;" d="M 18.285156 32.710938 L 19.683594 32.710938 L 19.683594 37.085938 L 18.285156 37.085938 Z M 18.285156 31.003906 L 19.683594 31.003906 L 19.683594 32.148438 L 18.285156 32.148438 Z M 18.285156 31.003906 "/>
<path style=" stroke:none;fill-rule:nonzero;fill:rgb(60%,74.117647%,100%);fill-opacity:1;" d="M 24.363281 32.855469 L 24.363281 33.917969 C 24.074219 33.792969 23.785156 33.707031 23.511719 33.648438 C 23.230469 33.582031 22.96875 33.542969 22.71875 33.542969 C 22.453125 33.542969 22.25 33.582031 22.113281 33.648438 C 21.988281 33.707031 21.925781 33.804688 21.925781 33.941406 C 21.925781 34.054688 21.972656 34.144531 22.074219 34.210938 C 22.167969 34.269531 22.34375 34.308594 22.59375 34.335938 L 22.84375 34.355469 C 23.5625 34.457031 24.042969 34.605469 24.28125 34.816406 C 24.53125 35.023438 24.65625 35.351562 24.65625 35.792969 C 24.65625 36.269531 24.480469 36.621094 24.136719 36.855469 C 23.800781 37.082031 23.292969 37.191406 22.613281 37.191406 C 22.324219 37.191406 22.019531 37.167969 21.71875 37.128906 C 21.410156 37.085938 21.09375 37.019531 20.761719 36.917969 L 20.761719 35.855469 C 21.035156 35.996094 21.324219 36.101562 21.613281 36.167969 C 21.90625 36.242188 22.203125 36.273438 22.511719 36.273438 C 22.785156 36.273438 22.996094 36.242188 23.136719 36.167969 C 23.269531 36.085938 23.34375 35.972656 23.34375 35.816406 C 23.34375 35.691406 23.292969 35.601562 23.199219 35.542969 C 23.097656 35.476562 22.910156 35.429688 22.636719 35.398438 L 22.386719 35.355469 C 21.761719 35.289062 21.324219 35.148438 21.074219 34.941406 C 20.824219 34.722656 20.699219 34.398438 20.699219 33.980469 C 20.699219 33.511719 20.855469 33.164062 21.175781 32.941406 C 21.496094 32.722656 21.980469 32.605469 22.636719 32.605469 C 22.886719 32.605469 23.144531 32.628906 23.425781 32.667969 C 23.71875 32.710938 24.03125 32.773438 24.363281 32.855469 Z M 24.363281 32.855469 "/>
<path style=" stroke:none;fill-rule:nonzero;fill:rgb(60%,74.117647%,100%);fill-opacity:1;" d="M 27.652344 33.605469 C 27.34375 33.605469 27.109375 33.722656 26.941406 33.941406 C 26.777344 34.164062 26.691406 34.480469 26.691406 34.898438 C 26.691406 35.316406 26.777344 35.636719 26.941406 35.855469 C 27.109375 36.082031 27.34375 36.191406 27.652344 36.191406 C 27.953125 36.191406 28.183594 36.082031 28.339844 35.855469 C 28.503906 35.636719 28.589844 35.316406 28.589844 34.898438 C 28.589844 34.480469 28.503906 34.164062 28.339844 33.941406 C 28.183594 33.722656 27.953125 33.605469 27.652344 33.605469 Z M 27.652344 32.605469 C 28.402344 32.605469 28.984375 32.808594 29.402344 33.210938 C 29.828125 33.617188 30.046875 34.179688 30.046875 34.898438 C 30.046875 35.621094 29.828125 36.183594 29.402344 36.585938 C 28.984375 36.992188 28.402344 37.191406 27.652344 37.191406 C 26.902344 37.191406 26.308594 36.992188 25.878906 36.585938 C 25.464844 36.183594 25.253906 35.621094 25.253906 34.898438 C 25.253906 34.179688 25.464844 33.617188 25.878906 33.210938 C 26.308594 32.808594 26.902344 32.605469 27.652344 32.605469 Z M 27.652344 32.605469 "/>
</g>
</svg>
