<?xml version="1.0" encoding="UTF-8"?>
<svg xmlns="http://www.w3.org/2000/svg" xmlns:xlink="http://www.w3.org/1999/xlink" width="48pt" height="48pt" viewBox="0 0 48 48" version="1.1">
<g id="surface1">
<path style=" stroke:none;fill-rule:evenodd;fill:rgb(95.686275%,61.568627%,7.843137%);fill-opacity:1;" d="M 31.78125 3 L 11.300781 3 C 6.703125 3 3 6.703125 3 11.300781 L 3 36.699219 C 3 41.296875 6.703125 45 11.300781 45 L 36.699219 45 C 41.296875 45 45 41.296875 45 36.699219 L 45 16.21875 Z M 31.78125 3 "/>
<path style=" stroke:none;fill-rule:evenodd;fill:rgb(99.215686%,87.843137%,64.705882%);fill-opacity:1;" d="M 45 16.21875 L 31.78125 3 L 31.78125 7.917969 C 31.78125 12.515625 35.484375 16.21875 40.082031 16.21875 Z M 45 16.21875 "/>
<path style=" stroke:none;fill-rule:nonzero;fill:rgb(99.215686%,86.666667%,63.921569%);fill-opacity:1;" d="M 24 15.535156 C 21.160156 15.535156 18.875 17.824219 18.875 20.667969 L 18.875 22.375 L 20.582031 22.375 L 20.582031 20.667969 C 20.582031 18.175781 21.871094 17.246094 24 17.246094 C 26.128906 17.246094 27.417969 18.175781 27.417969 20.667969 L 27.417969 25.792969 L 15.453125 25.792969 L 15.453125 36.046875 L 32.546875 36.046875 L 32.546875 25.792969 L 29.125 25.792969 L 29.125 20.667969 C 29.125 17.824219 26.839844 15.535156 24 15.535156 M 17.167969 27.5 L 30.832031 27.5 L 30.832031 34.332031 L 17.167969 34.332031 Z M 17.167969 27.5 "/>
</g>
</svg>
