<?xml version="1.0" encoding="UTF-8"?>
<svg xmlns="http://www.w3.org/2000/svg" xmlns:xlink="http://www.w3.org/1999/xlink" width="48pt" height="48pt" viewBox="0 0 48 48" version="1.1">
<g id="surface1">
<path style=" stroke:none;fill-rule:evenodd;fill:rgb(87.058824%,33.72549%,29.803922%);fill-opacity:1;" d="M 31.78125 3 L 11.300781 3 C 6.703125 3 3 6.703125 3 11.300781 L 3 36.699219 C 3 41.296875 6.703125 45 11.300781 45 L 36.699219 45 C 41.296875 45 45 41.296875 45 36.699219 L 45 16.21875 Z M 31.78125 3 "/>
<path style=" stroke:none;fill-rule:evenodd;fill:rgb(69.803922%,24.313725%,19.215686%);fill-opacity:1;" d="M 45 16.21875 L 31.78125 3 L 31.78125 7.917969 C 31.78125 12.515625 35.484375 16.21875 40.082031 16.21875 Z M 45 16.21875 "/>
<path style=" stroke:none;fill-rule:nonzero;fill:rgb(99.607843%,78.823529%,67.058824%);fill-opacity:1;" d="M 18.140625 16.644531 C 17.707031 16.644531 17.296875 16.8125 16.988281 17.121094 C 16.683594 17.421875 16.511719 17.839844 16.511719 18.269531 L 16.511719 26.109375 C 16.484375 26.285156 16.484375 26.464844 16.511719 26.636719 L 16.511719 32.84375 C 16.5 33.433594 16.800781 33.980469 17.3125 34.277344 C 17.816406 34.578125 18.449219 34.578125 18.953125 34.277344 C 19.464844 33.980469 19.769531 33.433594 19.753906 32.84375 L 19.753906 27.863281 C 20.828125 27.84375 22.296875 27.859375 24.886719 27.453125 C 26.59375 27.183594 28.316406 26.796875 29.78125 26.113281 C 30.511719 25.769531 31.191406 25.355469 31.753906 24.738281 C 32.316406 24.128906 32.738281 23.25 32.730469 22.308594 C 32.722656 21.371094 32.296875 20.503906 31.730469 19.894531 C 31.167969 19.285156 30.484375 18.875 29.753906 18.53125 C 28.292969 17.847656 26.5625 17.464844 24.863281 17.191406 C 21.464844 16.65625 18.140625 16.644531 18.140625 16.644531 Z M 19.753906 20.019531 C 20.808594 20.050781 22.082031 20.035156 24.359375 20.394531 C 25.894531 20.640625 27.410156 21.019531 28.386719 21.472656 C 28.871094 21.699219 29.203125 21.941406 29.355469 22.105469 C 29.503906 22.265625 29.484375 22.269531 29.488281 22.332031 C 29.488281 22.394531 29.511719 22.394531 29.363281 22.550781 C 29.21875 22.707031 28.890625 22.949219 28.410156 23.171875 C 27.441406 23.625 25.921875 24.003906 24.378906 24.25 C 22.097656 24.609375 20.8125 24.59375 19.753906 24.625 Z M 19.753906 20.019531 "/>
</g>
</svg>
