<?xml version="1.0" encoding="UTF-8"?>
<svg xmlns="http://www.w3.org/2000/svg" xmlns:xlink="http://www.w3.org/1999/xlink" width="48pt" height="48pt" viewBox="0 0 48 48" version="1.1">
<g id="surface1">
<path style=" stroke:none;fill-rule:evenodd;fill:rgb(37.647059%,37.647059%,79.215686%);fill-opacity:1;" d="M 31.78125 3 L 11.300781 3 C 6.703125 3 3 6.703125 3 11.300781 L 3 36.699219 C 3 41.296875 6.703125 45 11.300781 45 L 36.699219 45 C 41.296875 45 45 41.296875 45 36.699219 L 45 16.21875 Z M 31.78125 3 "/>
<path style=" stroke:none;fill-rule:evenodd;fill:rgb(21.568627%,21.568627%,34.117647%);fill-opacity:1;" d="M 45 16.21875 L 31.78125 3 L 31.78125 7.917969 C 31.78125 12.515625 35.484375 16.21875 40.082031 16.21875 Z M 45 16.21875 "/>
<path style=" stroke:none;fill-rule:nonzero;fill:rgb(21.568627%,21.568627%,34.117647%);fill-opacity:1;" d="M 12.699219 15.863281 L 12.699219 30.933594 L 18.347656 30.933594 L 18.347656 17.746094 L 24 17.746094 L 24 21.515625 L 29.652344 21.515625 L 29.652344 15.863281 Z M 14.582031 17.746094 L 16.464844 17.746094 L 16.464844 19.628906 L 14.582031 19.628906 Z M 25.886719 17.746094 L 27.765625 17.746094 L 27.765625 19.628906 L 25.886719 19.628906 Z M 14.582031 21.515625 L 16.464844 21.515625 L 16.464844 25.28125 L 14.582031 25.28125 Z M 20.234375 23.394531 L 20.234375 34.699219 L 24 38.464844 L 24 34.699219 L 35.300781 34.699219 L 35.300781 23.394531 Z M 22.113281 25.28125 L 33.417969 25.28125 L 33.417969 32.8125 L 22.113281 32.8125 Z M 14.582031 27.160156 L 16.464844 27.160156 L 16.464844 29.046875 L 14.582031 29.046875 Z M 14.582031 27.160156 "/>
</g>
</svg>
