<?xml version="1.0" encoding="UTF-8"?>
<svg xmlns="http://www.w3.org/2000/svg" xmlns:xlink="http://www.w3.org/1999/xlink" width="48pt" height="48pt" viewBox="0 0 48 48" version="1.1">
<g id="surface1">
<path style=" stroke:none;fill-rule:evenodd;fill:rgb(34.117647%,42.352941%,67.45098%);fill-opacity:1;" d="M 31.78125 3 L 11.300781 3 C 6.703125 3 3 6.703125 3 11.300781 L 3 36.699219 C 3 41.296875 6.703125 45 11.300781 45 L 36.699219 45 C 41.296875 45 45 41.296875 45 36.699219 L 45 16.21875 Z M 31.78125 3 "/>
<path style=" stroke:none;fill-rule:evenodd;fill:rgb(68.627451%,72.54902%,84.313725%);fill-opacity:1;" d="M 45 16.21875 L 31.78125 3 L 31.78125 7.917969 C 31.78125 12.515625 35.484375 16.21875 40.082031 16.21875 Z M 45 16.21875 "/>
<path style=" stroke:none;fill-rule:nonzero;fill:rgb(61.960784%,66.666667%,81.176471%);fill-opacity:1;" d="M 31.011719 14.746094 L 27.933594 17.828125 L 18.488281 17.828125 C 18.089844 16.691406 17.015625 15.925781 15.808594 15.925781 C 14.234375 15.925781 12.957031 17.203125 12.957031 18.777344 C 12.957031 19.984375 13.71875 21.0625 14.855469 21.464844 L 14.855469 34.933594 L 20.558594 34.933594 L 20.558594 36.832031 L 26.261719 36.832031 L 26.261719 34.933594 L 31.964844 34.933594 L 31.964844 21.859375 L 35.042969 18.777344 Z M 31.011719 17.433594 L 32.355469 18.777344 L 31.011719 20.121094 L 29.667969 18.777344 Z M 15.808594 17.828125 C 16.332031 17.828125 16.753906 18.253906 16.753906 18.777344 C 16.753906 19.300781 16.332031 19.730469 15.808594 19.730469 C 15.28125 19.730469 14.859375 19.300781 14.859375 18.777344 C 14.859375 18.253906 15.28125 17.828125 15.808594 17.828125 M 18.488281 19.730469 L 27.933594 19.730469 L 30.0625 21.859375 L 30.0625 33.03125 L 26.261719 33.03125 L 26.261719 31.136719 L 20.558594 31.136719 L 20.558594 33.03125 L 16.753906 33.03125 L 16.753906 21.464844 C 17.566406 21.175781 18.203125 20.535156 18.488281 19.730469 M 22.457031 33.03125 L 24.359375 33.03125 L 24.359375 34.933594 L 22.457031 34.933594 Z M 22.457031 33.03125 "/>
</g>
</svg>
