<?xml version="1.0" encoding="UTF-8"?>
<svg xmlns="http://www.w3.org/2000/svg" xmlns:xlink="http://www.w3.org/1999/xlink" width="48pt" height="48pt" viewBox="0 0 48 48" version="1.1">
<g id="surface1">
<path style=" stroke:none;fill-rule:evenodd;fill:rgb(24.313725%,63.921569%,75.294118%);fill-opacity:1;" d="M 11.207031 2.847656 L 36.792969 2.847656 C 41.40625 2.847656 45.152344 6.59375 45.152344 11.207031 L 45.152344 36.792969 C 45.152344 41.40625 41.40625 45.152344 36.792969 45.152344 L 11.207031 45.152344 C 6.59375 45.152344 2.847656 41.40625 2.847656 36.792969 L 2.847656 11.207031 C 2.847656 6.59375 6.59375 2.847656 11.207031 2.847656 Z M 11.207031 2.847656 "/>
<path style=" stroke:none;fill-rule:nonzero;fill:rgb(100%,100%,100%);fill-opacity:1;" d="M 21.15625 10.121094 C 20.863281 10.152344 20.605469 10.390625 20.550781 10.683594 L 19.964844 13.65625 C 18.917969 14.066406 17.925781 14.628906 17.058594 15.324219 L 14.175781 14.347656 C 13.875 14.246094 13.511719 14.378906 13.347656 14.652344 L 10.574219 19.46875 C 10.417969 19.746094 10.484375 20.125 10.722656 20.332031 L 13.027344 22.355469 C 12.941406 22.890625 12.894531 23.4375 12.894531 24 C 12.894531 24.5625 12.941406 25.109375 13.027344 25.652344 L 10.722656 27.667969 C 10.484375 27.875 10.417969 28.253906 10.574219 28.53125 L 13.347656 33.347656 C 13.511719 33.621094 13.875 33.753906 14.175781 33.652344 L 17.058594 32.675781 C 17.925781 33.371094 18.917969 33.9375 19.964844 34.347656 L 20.550781 37.316406 C 20.609375 37.628906 20.90625 37.875 21.222656 37.878906 L 26.777344 37.878906 C 27.09375 37.878906 27.390625 37.628906 27.449219 37.316406 L 28.035156 34.347656 C 29.082031 33.9375 30.074219 33.371094 30.941406 32.675781 L 33.824219 33.652344 C 34.125 33.753906 34.488281 33.621094 34.652344 33.347656 L 37.425781 28.53125 C 37.582031 28.253906 37.515625 27.875 37.277344 27.667969 L 34.972656 25.652344 C 35.058594 25.109375 35.105469 24.5625 35.105469 24 C 35.105469 23.4375 35.058594 22.890625 34.972656 22.355469 L 37.277344 20.332031 C 37.515625 20.125 37.582031 19.746094 37.425781 19.46875 L 34.652344 14.652344 C 34.488281 14.378906 34.125 14.246094 33.824219 14.347656 L 30.941406 15.324219 C 30.074219 14.628906 29.082031 14.066406 28.035156 13.65625 L 27.449219 10.683594 C 27.390625 10.371094 27.09375 10.125 26.777344 10.121094 L 21.222656 10.121094 C 21.203125 10.121094 21.183594 10.121094 21.160156 10.121094 Z M 21.15625 10.121094 "/>
<path style=" stroke:none;fill-rule:nonzero;fill:rgb(24.313725%,63.921569%,75.294118%);fill-opacity:1;" d="M 22.683594 17.058594 C 22.292969 17.058594 22.015625 17.375 22.015625 17.765625 L 22.015625 25.984375 L 19.042969 25.984375 L 24 31.933594 L 28.957031 25.984375 L 25.984375 25.984375 L 25.984375 17.765625 C 25.984375 17.375 25.707031 17.058594 25.316406 17.058594 Z M 22.683594 17.058594 "/>
</g>
</svg>
