<?xml version="1.0" encoding="UTF-8"?>
<svg xmlns="http://www.w3.org/2000/svg" xmlns:xlink="http://www.w3.org/1999/xlink" width="48pt" height="48pt" viewBox="0 0 48 48" version="1.1">
<g id="surface1">
<path style=" stroke:none;fill-rule:evenodd;fill:rgb(98.431373%,39.607843%,29.411765%);fill-opacity:1;" d="M 31.78125 3 L 11.300781 3 C 6.703125 3 3 6.703125 3 11.300781 L 3 36.699219 C 3 41.296875 6.703125 45 11.300781 45 L 36.699219 45 C 41.296875 45 45 41.296875 45 36.699219 L 45 16.21875 Z M 31.78125 3 "/>
<path style=" stroke:none;fill-rule:evenodd;fill:rgb(99.607843%,84.705882%,82.352941%);fill-opacity:1;" d="M 45 16.21875 L 31.78125 3 L 31.78125 7.917969 C 31.78125 12.515625 35.484375 16.21875 40.082031 16.21875 Z M 45 16.21875 "/>
<path style=" stroke:none;fill-rule:nonzero;fill:rgb(99.607843%,84.705882%,82.352941%);fill-opacity:1;" d="M 31.46875 19.078125 L 26.253906 20.027344 C 26.332031 23.589844 22.875 26.066406 19.628906 19.347656 L 13.5 20.292969 C 14.453125 23.921875 17.878906 24.371094 20.167969 26.28125 C 19.027344 28.074219 13.832031 26.996094 13.972656 32.578125 L 19.183594 31.636719 C 19.109375 28.074219 25.125 25.074219 28.371094 31.785156 L 34.5 30.84375 C 33.542969 27.203125 29.902344 26.859375 27.621094 24.9375 C 28.75 22.339844 32.5 24.675781 31.46875 19.082031 "/>
</g>
</svg>
