<?xml version="1.0" encoding="UTF-8"?>
<svg xmlns="http://www.w3.org/2000/svg" xmlns:xlink="http://www.w3.org/1999/xlink" width="48pt" height="48pt" viewBox="0 0 48 48" version="1.1">
<g id="surface1">
<path style=" stroke:none;fill-rule:evenodd;fill:rgb(90.588235%,29.803922%,23.529412%);fill-opacity:1;" d="M 31.78125 3 L 11.300781 3 C 6.703125 3 3 6.703125 3 11.300781 L 3 36.699219 C 3 41.296875 6.703125 45 11.300781 45 L 36.699219 45 C 41.296875 45 45 41.296875 45 36.699219 L 45 16.21875 Z M 31.78125 3 "/>
<path style=" stroke:none;fill-rule:evenodd;fill:rgb(74.509804%,24.705882%,19.215686%);fill-opacity:1;" d="M 45 16.21875 L 31.78125 3 L 31.78125 7.917969 C 31.78125 12.515625 35.484375 16.21875 40.082031 16.21875 Z M 45 16.21875 "/>
<path style=" stroke:none;fill-rule:nonzero;fill:rgb(98.431373%,70.196078%,53.333333%);fill-opacity:1;" d="M 32.375 19.734375 C 28.285156 19.808594 27.722656 23.441406 27.722656 23.441406 L 30.515625 23.441406 L 30.515625 27.183594 L 25.859375 27.183594 C 22.984375 36.3125 15.625 36.472656 15.625 36.472656 L 15.625 32.765625 C 15.625 32.765625 19.996094 33.363281 22.140625 25.324219 C 24.816406 15.253906 32.375 16.011719 32.375 16.011719 Z M 32.375 19.734375 "/>
</g>
</svg>
