<?xml version="1.0" encoding="UTF-8"?>
<svg xmlns="http://www.w3.org/2000/svg" xmlns:xlink="http://www.w3.org/1999/xlink" width="48pt" height="48pt" viewBox="0 0 48 48" version="1.1">
<g id="surface1">
<path style=" stroke:none;fill-rule:evenodd;fill:rgb(100%,54.509804%,13.72549%);fill-opacity:1;" d="M 31.78125 3 L 11.300781 3 C 6.703125 3 3 6.703125 3 11.300781 L 3 36.699219 C 3 41.296875 6.703125 45 11.300781 45 L 36.699219 45 C 41.296875 45 45 41.296875 45 36.699219 L 45 16.21875 Z M 31.78125 3 "/>
<path style=" stroke:none;fill-rule:evenodd;fill:rgb(40%,21.960784%,5.490196%);fill-opacity:1;" d="M 45 16.21875 L 31.78125 3 L 31.78125 7.917969 C 31.78125 12.515625 35.484375 16.21875 40.082031 16.21875 Z M 45 16.21875 "/>
<path style=" stroke:none;fill-rule:nonzero;fill:rgb(40%,21.960784%,5.490196%);fill-opacity:1;" d="M 23.097656 14.28125 L 23.097656 19.675781 L 24.894531 19.675781 L 24.894531 14.28125 Z M 19.5 16.082031 L 19.5 19.675781 L 21.296875 19.675781 L 21.296875 16.082031 Z M 26.691406 16.082031 L 26.691406 19.675781 L 28.496094 19.675781 L 28.496094 16.082031 Z M 15.902344 17.878906 L 15.902344 19.675781 L 17.703125 19.675781 L 17.703125 17.878906 Z M 14.105469 21.480469 L 14.105469 28.671875 C 14.105469 31.933594 15.921875 34.066406 19.5 34.066406 L 15.902344 34.066406 L 15.902344 35.863281 L 30.292969 35.863281 L 30.292969 34.066406 L 26.691406 34.066406 C 29.519531 34.066406 31.203125 32.761719 32.089844 30.46875 L 33.890625 30.46875 C 35.6875 30.46875 35.6875 30.464844 35.6875 28.5 L 35.6875 26.535156 C 35.6875 23.265625 35.6875 23.277344 33.890625 23.277344 L 32.089844 23.277344 L 32.089844 21.472656 Z M 15.902344 23.277344 L 30.292969 23.277344 L 30.292969 28.671875 C 30.292969 31.390625 27.886719 32.269531 24.894531 32.269531 L 21.296875 32.269531 C 18.308594 32.269531 15.902344 31.390625 15.902344 28.671875 Z M 32.089844 25.074219 L 33.890625 25.074219 L 33.890625 28.671875 L 32.089844 28.671875 Z M 32.089844 25.074219 "/>
</g>
</svg>
