<?xml version="1.0" encoding="UTF-8"?>
<svg xmlns="http://www.w3.org/2000/svg" xmlns:xlink="http://www.w3.org/1999/xlink" width="48pt" height="48pt" viewBox="0 0 48 48" version="1.1">
<g id="surface1">
<path style=" stroke:none;fill-rule:evenodd;fill:rgb(87.45098%,26.666667%,25.098039%);fill-opacity:1;" d="M 31.78125 3 L 11.300781 3 C 6.703125 3 3 6.703125 3 11.300781 L 3 36.699219 C 3 41.296875 6.703125 45 11.300781 45 L 36.699219 45 C 41.296875 45 45 41.296875 45 36.699219 L 45 16.21875 Z M 31.78125 3 "/>
<path style=" stroke:none;fill-rule:evenodd;fill:rgb(96.862745%,81.568627%,81.176471%);fill-opacity:1;" d="M 45 16.21875 L 31.78125 3 L 31.78125 7.917969 C 31.78125 12.515625 35.484375 16.21875 40.082031 16.21875 Z M 45 16.21875 "/>
<path style=" stroke:none;fill-rule:nonzero;fill:rgb(96.862745%,81.568627%,81.176471%);fill-opacity:1;" d="M 24 18.019531 C 22.34375 18.019531 21 19.371094 21 21.019531 L 21 27.019531 C 21 28.671875 22.34375 30.019531 24 30.019531 C 25.65625 30.019531 27 28.671875 27 27.019531 L 27 21.019531 C 27 19.371094 25.65625 18.019531 24 18.019531 Z M 24 19.519531 C 24.828125 19.519531 25.5 20.121094 25.5 21.019531 C 25.5 21.769531 24.828125 22.519531 24 22.519531 C 23.171875 22.519531 22.5 21.769531 22.5 21.019531 C 22.5 20.121094 23.171875 19.519531 24 19.519531 Z M 24 24.019531 C 24.828125 24.019531 25.5 24.691406 25.5 25.519531 L 25.5 27.019531 C 25.5 27.847656 24.828125 28.519531 24 28.519531 C 23.171875 28.519531 22.5 27.847656 22.5 27.019531 L 22.5 25.519531 C 22.5 24.691406 23.171875 24.019531 24 24.019531 Z M 24 24.019531 "/>
<path style=" stroke:none;fill-rule:nonzero;fill:rgb(96.862745%,81.568627%,81.176471%);fill-opacity:1;" d="M 22.5 3.019531 L 22.5 4.519531 L 24 4.519531 L 24 3.019531 Z M 22.5 6.019531 L 22.5 7.519531 L 24 7.519531 L 24 6.019531 Z M 22.5 9.019531 L 22.5 10.519531 L 24 10.519531 L 24 9.019531 Z M 22.5 12.019531 L 22.5 13.519531 L 24 13.519531 L 24 12.019531 Z M 22.5 15.019531 L 22.5 16.519531 L 24 16.519531 L 24 15.019531 Z M 22.5 15.019531 "/>
<path style=" stroke:none;fill-rule:nonzero;fill:rgb(96.862745%,81.568627%,81.176471%);fill-opacity:1;" d="M 24 4.519531 L 24 6.019531 L 25.5 6.019531 L 25.5 4.519531 Z M 24 7.519531 L 24 9.019531 L 25.5 9.019531 L 25.5 7.519531 Z M 24 10.519531 L 24 12.019531 L 25.5 12.019531 L 25.5 10.519531 Z M 24 13.519531 L 24 15.019531 L 25.5 15.019531 L 25.5 13.519531 Z M 24 16.519531 L 24 18.019531 L 25.5 18.019531 L 25.5 16.519531 Z M 24 16.519531 "/>
<path style=" stroke:none;fill-rule:nonzero;fill:rgb(98.823529%,73.72549%,74.509804%);fill-opacity:1;" d="M 34.957031 28.90625 C 31.578125 28.90625 28.832031 31.652344 28.832031 35.03125 C 28.832031 38.410156 31.578125 41.15625 34.957031 41.15625 C 38.339844 41.15625 41.082031 38.410156 41.082031 35.03125 C 41.082031 31.652344 38.339844 28.90625 34.957031 28.90625 Z M 34.957031 29.925781 C 37.777344 29.925781 40.0625 32.214844 40.0625 35.03125 C 40.0625 37.847656 37.777344 40.136719 34.957031 40.136719 C 32.140625 40.136719 29.855469 37.847656 29.855469 35.03125 C 29.855469 32.214844 32.140625 29.925781 34.957031 29.925781 Z M 34.957031 30.949219 C 34.003906 30.949219 33.082031 31.285156 32.347656 31.894531 L 33 32.683594 C 33.550781 32.222656 34.246094 31.96875 34.957031 31.96875 C 36.652344 31.96875 38.019531 33.339844 38.019531 35.03125 L 39.042969 35.03125 C 39.042969 32.777344 37.214844 30.949219 34.957031 30.949219 Z M 35.980469 32.988281 L 34.34375 36.261719 C 34.089844 36.453125 33.9375 36.75 33.9375 37.074219 C 33.9375 37.636719 34.394531 38.09375 34.957031 38.09375 C 35.519531 38.09375 35.980469 37.636719 35.980469 37.074219 C 35.980469 36.824219 35.886719 36.582031 35.722656 36.402344 Z M 31.417969 33.011719 C 31.066406 33.625 30.878906 34.324219 30.875 35.03125 L 31.894531 35.03125 C 31.902344 34.5 32.035156 33.972656 32.300781 33.515625 Z M 31.417969 33.011719 "/>
</g>
</svg>
