<?xml version="1.0" encoding="UTF-8"?>
<svg xmlns="http://www.w3.org/2000/svg" xmlns:xlink="http://www.w3.org/1999/xlink" width="48pt" height="48pt" viewBox="0 0 48 48" version="1.1">
<g id="surface1">
<path style=" stroke:none;fill-rule:evenodd;fill:rgb(7.45098%,64.705882%,32.54902%);fill-opacity:1;" d="M 24.921875 45 L 16.5 36.578125 L 8.613281 44.464844 C 9.46875 44.753906 10.347656 45 11.300781 45 Z M 24.921875 45 "/>
<path style=" stroke:none;fill-rule:evenodd;fill:rgb(7.45098%,64.705882%,32.54902%);fill-opacity:1;" d="M 45 27.074219 L 27.074219 45 L 36.699219 45 C 41.296875 45 45 41.292969 45 36.691406 Z M 45 27.074219 "/>
<path style=" stroke:none;fill-rule:evenodd;fill:rgb(47.843137%,85.490196%,50.588235%);fill-opacity:1;" d="M 45 22.847656 L 25.996094 41.855469 L 16.5 32.359375 L 5.949219 42.90625 L 5.949219 42.921875 C 6.730469 43.59375 7.621094 44.113281 8.613281 44.464844 L 16.5 36.578125 L 24.921875 45 L 27.074219 45 L 45 27.074219 Z M 45 22.847656 "/>
<path style=" stroke:none;fill-rule:evenodd;fill:rgb(7.45098%,64.705882%,32.54902%);fill-opacity:1;" d="M 11.300781 3 C 6.703125 3 3 6.699219 3 11.300781 L 3 36.691406 C 3 39.222656 4.175781 41.402344 5.949219 42.921875 L 5.949219 42.90625 L 16.5 32.359375 L 25.996094 41.855469 L 45 22.847656 L 45 16.21875 L 31.78125 3 Z M 11.300781 3 "/>
<path style=" stroke:none;fill-rule:evenodd;fill:rgb(6.27451%,53.333333%,26.666667%);fill-opacity:1;" d="M 45 16.21875 L 31.78125 3 L 31.78125 7.917969 C 31.78125 12.515625 35.480469 16.21875 40.082031 16.21875 Z M 45 16.21875 "/>
</g>
</svg>
