<?xml version="1.0" encoding="UTF-8"?>
<svg xmlns="http://www.w3.org/2000/svg" xmlns:xlink="http://www.w3.org/1999/xlink" width="48pt" height="48pt" viewBox="0 0 48 48" version="1.1">
<g id="surface1">
<path style=" stroke:none;fill-rule:evenodd;fill:rgb(87.843137%,31.372549%,31.372549%);fill-opacity:1;" d="M 31.78125 3 L 11.300781 3 C 6.703125 3 3 6.703125 3 11.300781 L 3 36.699219 C 3 41.296875 6.703125 45 11.300781 45 L 36.699219 45 C 41.296875 45 45 41.296875 45 36.699219 L 45 16.21875 Z M 31.78125 3 "/>
<path style=" stroke:none;fill-rule:evenodd;fill:rgb(44.705882%,21.960784%,21.960784%);fill-opacity:1;" d="M 45 16.21875 L 31.78125 3 L 31.78125 7.917969 C 31.78125 12.515625 35.484375 16.21875 40.082031 16.21875 Z M 45 16.21875 "/>
<path style=" stroke:none;fill-rule:nonzero;fill:rgb(44.705882%,21.960784%,21.960784%);fill-opacity:1;" d="M 15.769531 17.425781 L 11.65625 21.542969 L 24 35.941406 L 36.34375 21.542969 L 32.230469 17.425781 Z M 16.671875 19.484375 L 22.972656 19.484375 L 22.972656 21.542969 L 14.613281 21.542969 Z M 25.03125 19.484375 L 31.332031 19.484375 L 33.390625 21.542969 L 25.03125 21.542969 Z M 16.09375 23.597656 L 22.972656 23.597656 L 22.972656 31.597656 Z M 25.03125 23.597656 L 31.910156 23.597656 L 25.03125 31.597656 Z M 25.03125 23.597656 "/>
</g>
</svg>
