<?xml version="1.0" encoding="UTF-8"?>
<svg xmlns="http://www.w3.org/2000/svg" xmlns:xlink="http://www.w3.org/1999/xlink" width="48pt" height="48pt" viewBox="0 0 48 48" version="1.1">
<g id="surface1">
<path style=" stroke:none;fill-rule:evenodd;fill:rgb(90.588235%,18.431373%,11.372549%);fill-opacity:1;" d="M 31.78125 3 L 11.300781 3 C 6.703125 3 3 6.703125 3 11.300781 L 3 36.699219 C 3 41.296875 6.703125 45 11.300781 45 L 36.699219 45 C 41.296875 45 45 41.296875 45 36.699219 L 45 16.21875 Z M 31.78125 3 "/>
<path style=" stroke:none;fill-rule:evenodd;fill:rgb(98.431373%,85.098039%,83.529412%);fill-opacity:1;" d="M 45 16.21875 L 31.78125 3 L 31.78125 7.917969 C 31.78125 12.515625 35.484375 16.21875 40.082031 16.21875 Z M 45 16.21875 "/>
<path style=" stroke:none;fill-rule:nonzero;fill:rgb(98.431373%,85.098039%,83.529412%);fill-opacity:1;" d="M 24 18.019531 C 22.34375 18.019531 21 19.371094 21 21.019531 L 21 27.019531 C 21 28.671875 22.34375 30.019531 24 30.019531 C 25.65625 30.019531 27 28.671875 27 27.019531 L 27 21.019531 C 27 19.371094 25.65625 18.019531 24 18.019531 Z M 24 19.519531 C 24.828125 19.519531 25.5 20.121094 25.5 21.019531 C 25.5 21.769531 24.828125 22.519531 24 22.519531 C 23.171875 22.519531 22.5 21.769531 22.5 21.019531 C 22.5 20.121094 23.171875 19.519531 24 19.519531 Z M 24 24.019531 C 24.828125 24.019531 25.5 24.691406 25.5 25.519531 L 25.5 27.019531 C 25.5 27.847656 24.828125 28.519531 24 28.519531 C 23.171875 28.519531 22.5 27.847656 22.5 27.019531 L 22.5 25.519531 C 22.5 24.691406 23.171875 24.019531 24 24.019531 Z M 24 24.019531 "/>
<path style=" stroke:none;fill-rule:nonzero;fill:rgb(98.431373%,85.098039%,83.529412%);fill-opacity:1;" d="M 22.5 3.019531 L 22.5 4.519531 L 24 4.519531 L 24 3.019531 Z M 22.5 6.019531 L 22.5 7.519531 L 24 7.519531 L 24 6.019531 Z M 22.5 9.019531 L 22.5 10.519531 L 24 10.519531 L 24 9.019531 Z M 22.5 12.019531 L 22.5 13.519531 L 24 13.519531 L 24 12.019531 Z M 22.5 15.019531 L 22.5 16.519531 L 24 16.519531 L 24 15.019531 Z M 22.5 15.019531 "/>
<path style=" stroke:none;fill-rule:nonzero;fill:rgb(98.431373%,85.098039%,83.529412%);fill-opacity:1;" d="M 24 4.519531 L 24 6.019531 L 25.5 6.019531 L 25.5 4.519531 Z M 24 7.519531 L 24 9.019531 L 25.5 9.019531 L 25.5 7.519531 Z M 24 10.519531 L 24 12.019531 L 25.5 12.019531 L 25.5 10.519531 Z M 24 13.519531 L 24 15.019531 L 25.5 15.019531 L 25.5 13.519531 Z M 24 16.519531 L 24 18.019531 L 25.5 18.019531 L 25.5 16.519531 Z M 24 16.519531 "/>
</g>
</svg>
