<?xml version="1.0" encoding="UTF-8"?>
<svg xmlns="http://www.w3.org/2000/svg" xmlns:xlink="http://www.w3.org/1999/xlink" width="48pt" height="48pt" viewBox="0 0 48 48" version="1.1">
<g id="surface1">
<path style=" stroke:none;fill-rule:evenodd;fill:rgb(100%,54.509804%,13.72549%);fill-opacity:1;" d="M 31.78125 3 L 11.300781 3 C 6.703125 3 3 6.703125 3 11.300781 L 3 36.699219 C 3 41.296875 6.703125 45 11.300781 45 L 36.699219 45 C 41.296875 45 45 41.296875 45 36.699219 L 45 16.21875 Z M 31.78125 3 "/>
<path style=" stroke:none;fill-rule:evenodd;fill:rgb(40%,21.960784%,5.490196%);fill-opacity:1;" d="M 45 16.21875 L 31.78125 3 L 31.78125 7.917969 C 31.78125 12.515625 35.484375 16.21875 40.082031 16.21875 Z M 45 16.21875 "/>
<path style=" stroke:none;fill-rule:nonzero;fill:rgb(40%,21.960784%,5.490196%);fill-opacity:1;" d="M 22.5 3 L 22.5 4.5 L 24 4.5 L 24 3 Z M 24 4.5 L 24 6 L 25.5 6 L 25.5 4.5 Z M 24 6 L 22.5 6 L 22.5 7.5 L 24 7.5 Z M 24 7.5 L 24 9 L 25.5 9 L 25.5 7.5 Z M 24 9 L 22.5 9 L 22.5 10.5 L 24 10.5 Z M 24 10.5 L 24 12 L 25.5 12 L 25.5 10.5 Z M 24 12 L 22.5 12 L 22.5 15 L 25.5 15 L 25.5 13.5 L 24 13.5 Z M 24 12 "/>
<path style=" stroke:none;fill-rule:nonzero;fill:rgb(40%,21.960784%,5.490196%);fill-opacity:1;" d="M 23.453125 16.792969 L 23.453125 22.1875 L 25.253906 22.1875 L 25.253906 16.792969 Z M 19.859375 18.589844 L 19.859375 22.1875 L 21.65625 22.1875 L 21.65625 18.589844 Z M 27.050781 18.589844 L 27.050781 22.1875 L 28.847656 22.1875 L 28.847656 18.589844 Z M 16.261719 20.390625 L 16.261719 22.1875 L 18.058594 22.1875 L 18.058594 20.390625 Z M 14.464844 23.984375 L 14.464844 31.175781 C 14.464844 34.4375 16.269531 36.574219 19.859375 36.574219 L 16.261719 36.574219 L 16.261719 38.375 L 30.652344 38.375 L 30.652344 36.574219 L 27.050781 36.574219 C 29.878906 36.574219 31.5625 35.265625 32.449219 32.980469 L 34.246094 32.980469 C 36.046875 32.980469 36.046875 32.972656 36.046875 31.011719 L 36.046875 29.042969 C 36.046875 25.769531 36.046875 25.78125 34.246094 25.78125 L 32.449219 25.78125 L 32.449219 23.984375 Z M 16.261719 25.78125 L 30.652344 25.78125 L 30.652344 31.175781 C 30.652344 33.894531 28.246094 34.777344 25.253906 34.777344 L 21.65625 34.777344 C 18.667969 34.777344 16.261719 33.894531 16.261719 31.175781 Z M 32.449219 27.582031 L 34.246094 27.582031 L 34.246094 31.175781 L 32.449219 31.175781 Z M 32.449219 27.582031 "/>
</g>
</svg>
