<?xml version="1.0" encoding="UTF-8"?>
<svg xmlns="http://www.w3.org/2000/svg" xmlns:xlink="http://www.w3.org/1999/xlink" width="48pt" height="48pt" viewBox="0 0 48 48" version="1.1">
<g id="surface1">
<path style=" stroke:none;fill-rule:evenodd;fill:rgb(27.45098%,77.254902%,27.45098%);fill-opacity:1;" d="M 31.78125 3 L 11.300781 3 C 6.703125 3 3 6.703125 3 11.300781 L 3 36.699219 C 3 41.296875 6.703125 45 11.300781 45 L 36.699219 45 C 41.296875 45 45 41.296875 45 36.699219 L 45 16.21875 Z M 31.78125 3 "/>
<path style=" stroke:none;fill-rule:evenodd;fill:rgb(24.705882%,53.333333%,24.705882%);fill-opacity:1;" d="M 45 16.21875 L 31.78125 3 L 31.78125 7.917969 C 31.78125 12.515625 35.484375 16.21875 40.082031 16.21875 Z M 45 16.21875 "/>
<path style=" stroke:none;fill-rule:nonzero;fill:rgb(24.705882%,53.333333%,24.705882%);fill-opacity:1;" d="M 31.339844 14.441406 C 31.238281 14.441406 31.128906 14.46875 31.03125 14.53125 C 30.980469 14.566406 30.746094 14.84375 30.519531 15.144531 L 30.105469 15.691406 L 29.957031 15.59375 C 29.75 15.453125 29.546875 15.421875 29.359375 15.503906 C 29.230469 15.5625 28.921875 15.957031 26.910156 18.605469 C 25.644531 20.269531 24.609375 21.652344 24.613281 21.671875 C 24.613281 21.6875 25.125 22.089844 25.738281 22.558594 L 26.871094 23.417969 L 28.371094 21.4375 C 29.191406 20.355469 29.878906 19.46875 29.902344 19.484375 C 29.953125 19.519531 30.042969 20.378906 30.019531 20.65625 C 30.015625 20.808594 29.957031 21.078125 29.902344 21.253906 C 29.792969 21.574219 29.78125 21.59375 27.921875 24.050781 C 26.890625 25.410156 26.035156 26.5625 26.019531 26.609375 C 25.980469 26.734375 26.027344 26.972656 26.121094 27.109375 C 26.277344 27.339844 26.671875 27.410156 26.902344 27.25 C 27.050781 27.136719 30.734375 22.234375 30.855469 21.980469 C 31.199219 21.25 31.269531 20.308594 31.0625 19.386719 C 30.980469 19.019531 30.871094 18.667969 30.761719 18.417969 C 30.730469 18.347656 30.785156 18.261719 31.128906 17.800781 C 31.453125 17.363281 31.53125 17.238281 31.535156 17.125 C 31.550781 16.886719 31.480469 16.75 31.238281 16.5625 L 31.019531 16.390625 L 31.464844 15.800781 C 31.824219 15.316406 31.902344 15.1875 31.90625 15.078125 C 31.925781 14.714844 31.644531 14.449219 31.339844 14.441406 Z M 23.902344 22.582031 C 23.890625 22.589844 22.542969 24.363281 20.894531 26.53125 C 18.25 30.019531 17.875 30.535156 17.628906 30.980469 C 17.140625 31.863281 16.613281 33.21875 16.261719 34.449219 C 16.027344 35.238281 16.019531 35.167969 16.332031 35 C 17.308594 34.484375 18.578125 33.640625 19.316406 33.019531 C 20.042969 32.410156 20.160156 32.253906 23.234375 28.207031 L 26.191406 24.308594 L 25.058594 23.441406 C 24.433594 22.96875 23.910156 22.582031 23.902344 22.582031 Z M 24.230469 31.625 C 24.082031 31.613281 23.933594 31.621094 23.839844 31.640625 C 23.378906 31.738281 22.875 32.136719 22.625 32.589844 C 22.5625 32.707031 22.453125 32.972656 22.390625 33.175781 C 22.328125 33.386719 22.269531 33.558594 22.265625 33.5625 C 22.234375 33.605469 21.355469 33.816406 20.84375 33.90625 C 19.636719 34.113281 19.300781 34.199219 19.183594 34.308594 C 18.953125 34.519531 19.136719 34.734375 19.464844 34.640625 C 19.550781 34.613281 19.921875 34.542969 20.28125 34.480469 C 20.644531 34.417969 21.199219 34.300781 21.511719 34.234375 C 21.816406 34.15625 22.082031 34.109375 22.097656 34.121094 C 22.109375 34.136719 22.058594 34.386719 21.972656 34.683594 L 21.824219 35.207031 L 21.496094 35.355469 C 21.3125 35.4375 21.058594 35.574219 20.917969 35.660156 C 20.503906 35.9375 20.421875 36.277344 20.714844 36.5 C 20.875 36.613281 21.3125 36.609375 21.582031 36.496094 C 21.828125 36.386719 21.964844 36.230469 22.152344 35.828125 C 22.253906 35.621094 22.332031 35.511719 22.390625 35.5 C 22.441406 35.484375 22.878906 35.402344 23.363281 35.296875 C 23.84375 35.203125 24.285156 35.109375 24.339844 35.09375 C 24.433594 35.074219 24.441406 35.082031 24.417969 35.167969 C 24.402344 35.21875 24.316406 35.371094 24.234375 35.511719 C 24.152344 35.644531 24.089844 35.808594 24.089844 35.871094 C 24.089844 36.003906 24.203125 36.144531 24.292969 36.109375 C 24.328125 36.09375 24.375 36.082031 24.394531 36.082031 C 24.417969 36.082031 24.515625 36.011719 24.613281 35.921875 C 24.792969 35.761719 25.230469 34.964844 25.230469 34.796875 C 25.230469 34.714844 25.296875 34.691406 25.332031 34.761719 C 25.347656 34.78125 25.449219 34.824219 25.558594 34.847656 C 25.714844 34.886719 25.753906 34.917969 25.753906 34.988281 C 25.753906 35.125 25.980469 35.324219 26.175781 35.359375 C 26.332031 35.390625 26.53125 35.355469 26.738281 35.265625 C 26.816406 35.238281 26.816406 35.246094 26.792969 35.359375 C 26.777344 35.433594 26.644531 35.65625 26.511719 35.863281 C 26.21875 36.292969 25.871094 36.980469 25.777344 37.28125 C 25.703125 37.542969 25.734375 37.734375 25.871094 37.828125 C 25.996094 37.90625 26.199219 37.871094 26.300781 37.761719 C 26.394531 37.65625 26.890625 36.597656 27.078125 36.113281 C 27.207031 35.777344 27.269531 35.683594 27.566406 35.371094 C 27.816406 35.109375 27.894531 35.042969 27.84375 35.144531 C 27.753906 35.332031 27.761719 35.480469 27.855469 35.566406 C 28.0625 35.753906 28.359375 35.574219 28.621094 35.097656 C 28.777344 34.816406 28.890625 34.730469 29.464844 34.464844 L 29.761719 34.328125 L 29.730469 34.488281 C 29.707031 34.578125 29.609375 34.828125 29.503906 35.042969 C 29.296875 35.480469 29.261719 35.753906 29.386719 35.988281 C 29.46875 36.152344 29.550781 36.15625 29.957031 36.015625 C 30.519531 35.828125 31.253906 35.394531 31.449219 35.144531 C 31.703125 34.792969 31.78125 34.453125 31.625 34.339844 C 31.464844 34.21875 31.371094 34.269531 31.167969 34.574219 C 30.886719 34.984375 30.542969 35.308594 30.214844 35.46875 C 30.058594 35.546875 29.921875 35.597656 29.910156 35.589844 C 29.890625 35.566406 30.246094 34.625 30.433594 34.183594 C 30.472656 34.089844 30.503906 33.972656 30.503906 33.925781 C 30.503906 33.800781 30.347656 33.660156 30.21875 33.660156 C 30.15625 33.660156 29.871094 33.78125 29.578125 33.933594 C 28.972656 34.230469 29.015625 34.253906 29.167969 33.691406 C 29.261719 33.347656 29.230469 33.253906 29.015625 33.230469 C 28.8125 33.207031 28.734375 33.277344 28.550781 33.605469 C 28.433594 33.828125 28.277344 34.015625 27.96875 34.296875 C 27.574219 34.667969 27.550781 34.675781 27.464844 34.609375 C 27.316406 34.511719 27.238281 34.527344 26.902344 34.699219 C 26.5625 34.863281 26.453125 34.886719 26.371094 34.785156 C 26.300781 34.699219 26.410156 34.65625 27.019531 34.535156 C 27.613281 34.421875 27.6875 34.390625 27.6875 34.269531 C 27.6875 34.074219 27.527344 33.886719 27.234375 33.753906 C 26.734375 33.53125 26.675781 33.515625 26.457031 33.574219 C 26.21875 33.636719 25.871094 33.980469 25.824219 34.1875 C 25.769531 34.40625 25.621094 34.34375 25.621094 34.097656 C 25.621094 34 25.5 33.746094 25.425781 33.699219 C 25.277344 33.597656 25.035156 33.816406 24.855469 34.222656 L 24.707031 34.53125 L 24.378906 34.605469 C 23.957031 34.699219 22.734375 34.941406 22.574219 34.972656 C 22.46875 34.988281 22.449219 34.980469 22.46875 34.917969 C 22.484375 34.875 22.542969 34.683594 22.59375 34.484375 C 22.730469 33.941406 22.769531 33.871094 22.96875 33.800781 C 23.203125 33.714844 24.003906 33.375 24.207031 33.265625 C 24.308594 33.21875 24.503906 33.066406 24.652344 32.9375 C 25.09375 32.519531 25.167969 32.140625 24.847656 31.859375 C 24.761719 31.785156 24.644531 31.707031 24.59375 31.683594 C 24.511719 31.65625 24.371094 31.628906 24.230469 31.625 Z M 24.011719 32.140625 C 24.246094 32.15625 24.332031 32.175781 24.402344 32.246094 C 24.488281 32.332031 24.488281 32.34375 24.40625 32.511719 C 24.355469 32.613281 24.234375 32.734375 24.078125 32.84375 C 23.808594 33.027344 22.96875 33.363281 22.941406 33.308594 C 22.90625 33.203125 23.175781 32.605469 23.347656 32.40625 C 23.578125 32.152344 23.644531 32.121094 24.011719 32.140625 Z M 21.527344 35.824219 C 21.5625 35.824219 21.558594 35.855469 21.535156 35.902344 C 21.480469 36.011719 21.328125 36.09375 21.246094 36.0625 C 21.144531 36.027344 21.175781 35.96875 21.328125 35.890625 C 21.433594 35.84375 21.496094 35.816406 21.527344 35.824219 Z M 21.527344 35.824219 "/>
</g>
</svg>
