<?xml version="1.0" encoding="UTF-8"?>
<svg xmlns="http://www.w3.org/2000/svg" xmlns:xlink="http://www.w3.org/1999/xlink" width="48pt" height="48pt" viewBox="0 0 48 48" version="1.1">
<g id="surface1">
<path style=" stroke:none;fill-rule:evenodd;fill:rgb(70.196078%,55.294118%,19.607843%);fill-opacity:1;" d="M 31.78125 3 L 11.300781 3 C 6.703125 3 3 6.703125 3 11.300781 L 3 36.699219 C 3 41.296875 6.703125 45 11.300781 45 L 36.699219 45 C 41.296875 45 45 41.296875 45 36.699219 L 45 16.21875 Z M 31.78125 3 "/>
<path style=" stroke:none;fill-rule:evenodd;fill:rgb(57.647059%,45.490196%,16.078431%);fill-opacity:1;" d="M 45 16.21875 L 31.78125 3 L 31.78125 7.917969 C 31.78125 12.515625 35.484375 16.21875 40.082031 16.21875 Z M 45 16.21875 "/>
<path style=" stroke:none;fill-rule:nonzero;fill:rgb(100%,78.823529%,27.843137%);fill-opacity:1;" d="M 20.40625 15 C 19.40625 15 18.597656 15.808594 18.597656 16.808594 L 18.597656 34.855469 C 18.597656 35.855469 19.40625 36.660156 20.40625 36.660156 C 21.40625 36.660156 22.207031 35.855469 22.207031 34.855469 L 22.207031 29.769531 L 22.390625 29.453125 L 26.03125 35.753906 C 26.53125 36.625 27.628906 36.917969 28.496094 36.417969 C 29.363281 35.917969 29.65625 34.816406 29.15625 33.953125 L 24.472656 25.84375 L 29.15625 17.734375 C 29.65625 16.871094 29.363281 15.769531 28.496094 15.269531 C 27.628906 14.769531 26.53125 15.0625 26.03125 15.933594 L 22.390625 22.234375 L 22.207031 21.917969 L 22.207031 16.808594 C 22.207031 15.808594 21.40625 15 20.40625 15 Z M 20.40625 15 "/>
</g>
</svg>
