<?xml version="1.0" encoding="UTF-8"?>
<svg xmlns="http://www.w3.org/2000/svg" xmlns:xlink="http://www.w3.org/1999/xlink" width="48pt" height="48pt" viewBox="0 0 48 48" version="1.1">
<g id="surface1">
<path style=" stroke:none;fill-rule:evenodd;fill:rgb(43.921569%,43.921569%,43.921569%);fill-opacity:1;" d="M 31.78125 3 L 11.300781 3 C 6.703125 3 3 6.703125 3 11.300781 L 3 36.699219 C 3 41.296875 6.703125 45 11.300781 45 L 36.699219 45 C 41.296875 45 45 41.296875 45 36.699219 L 45 16.21875 Z M 31.78125 3 "/>
<path style=" stroke:none;fill-rule:evenodd;fill:rgb(71.764706%,71.764706%,71.764706%);fill-opacity:1;" d="M 45 16.21875 L 31.78125 3 L 31.78125 7.917969 C 31.78125 12.515625 35.484375 16.21875 40.082031 16.21875 Z M 45 16.21875 "/>
<path style=" stroke:none;fill-rule:nonzero;fill:rgb(71.764706%,71.764706%,71.764706%);fill-opacity:1;" d="M 27.566406 20.980469 C 27.597656 20.707031 27.625 20.4375 27.625 20.160156 C 27.625 19.886719 27.597656 19.613281 27.566406 19.34375 L 29.328125 17.964844 C 29.488281 17.839844 29.535156 17.609375 29.433594 17.425781 L 27.753906 14.527344 C 27.652344 14.347656 27.433594 14.269531 27.25 14.347656 L 25.160156 15.1875 C 24.734375 14.859375 24.261719 14.578125 23.75 14.363281 L 23.4375 12.144531 C 23.394531 11.949219 23.222656 11.796875 23.015625 11.796875 L 19.671875 11.796875 C 19.457031 11.796875 19.292969 11.949219 19.253906 12.144531 L 18.941406 14.363281 C 18.433594 14.578125 17.957031 14.855469 17.527344 15.1875 L 15.441406 14.347656 C 15.253906 14.277344 15.035156 14.347656 14.933594 14.527344 L 13.261719 17.425781 C 13.15625 17.605469 13.203125 17.832031 13.359375 17.964844 L 15.125 19.34375 C 15.09375 19.613281 15.066406 19.886719 15.066406 20.160156 C 15.066406 20.4375 15.09375 20.707031 15.125 20.980469 L 13.359375 22.363281 C 13.203125 22.488281 13.15625 22.714844 13.261719 22.902344 L 14.933594 25.796875 C 15.035156 25.980469 15.253906 26.050781 15.441406 25.980469 L 17.527344 25.136719 C 17.957031 25.46875 18.433594 25.746094 18.941406 25.957031 L 19.253906 28.175781 C 19.292969 28.375 19.457031 28.53125 19.671875 28.53125 L 23.015625 28.53125 C 23.230469 28.53125 23.394531 28.375 23.433594 28.175781 L 23.746094 25.957031 C 24.253906 25.746094 24.730469 25.46875 25.160156 25.136719 L 27.246094 25.980469 C 27.433594 26.046875 27.652344 25.980469 27.753906 25.796875 L 29.425781 22.902344 C 29.53125 22.71875 29.484375 22.496094 29.328125 22.363281 Z M 21.347656 23.089844 C 19.730469 23.089844 18.421875 21.78125 18.421875 20.160156 C 18.421875 18.542969 19.730469 17.234375 21.347656 17.234375 C 22.96875 17.234375 24.277344 18.542969 24.277344 20.160156 C 24.277344 21.78125 22.96875 23.089844 21.347656 23.089844 "/>
<path style=" stroke:none;fill-rule:nonzero;fill:rgb(71.764706%,71.764706%,71.764706%);fill-opacity:1;" d="M 32.34375 35.769531 C 32.457031 35.613281 32.574219 35.449219 32.671875 35.269531 C 32.765625 35.089844 32.84375 34.90625 32.917969 34.722656 L 34.542969 34.453125 C 34.6875 34.425781 34.796875 34.300781 34.796875 34.144531 L 34.734375 31.691406 C 34.730469 31.542969 34.621094 31.417969 34.472656 31.402344 L 32.839844 31.207031 C 32.675781 30.84375 32.46875 30.5 32.21875 30.183594 L 32.796875 28.644531 C 32.839844 28.511719 32.785156 28.347656 32.652344 28.277344 L 30.5 27.097656 C 30.363281 27.027344 30.199219 27.066406 30.109375 27.183594 L 29.128906 28.496094 C 28.730469 28.453125 28.324219 28.46875 27.933594 28.53125 L 26.886719 27.261719 C 26.792969 27.144531 26.625 27.113281 26.496094 27.199219 L 24.402344 28.472656 C 24.269531 28.550781 24.222656 28.714844 24.28125 28.855469 L 24.925781 30.359375 C 24.8125 30.519531 24.703125 30.6875 24.605469 30.863281 C 24.503906 31.042969 24.425781 31.230469 24.355469 31.410156 L 22.734375 31.683594 C 22.589844 31.707031 22.480469 31.832031 22.484375 31.988281 L 22.542969 34.441406 C 22.546875 34.59375 22.660156 34.71875 22.808594 34.734375 L 24.441406 34.925781 C 24.597656 35.292969 24.808594 35.636719 25.058594 35.953125 L 24.484375 37.488281 C 24.4375 37.625 24.488281 37.785156 24.625 37.859375 L 26.777344 39.03125 C 26.910156 39.109375 27.078125 39.066406 27.167969 38.953125 L 28.144531 37.636719 C 28.546875 37.675781 28.949219 37.667969 29.34375 37.605469 L 30.386719 38.875 C 30.484375 38.984375 30.644531 39.015625 30.777344 38.9375 L 32.871094 37.660156 C 33 37.582031 33.050781 37.421875 32.996094 37.28125 Z M 27.609375 34.949219 C 26.566406 34.378906 26.1875 33.078125 26.753906 32.042969 C 27.324219 31 28.625 30.613281 29.660156 31.183594 C 30.703125 31.75 31.089844 33.050781 30.519531 34.09375 C 29.953125 35.136719 28.652344 35.515625 27.609375 34.949219 "/>
</g>
</svg>
