<?xml version="1.0" encoding="UTF-8"?>
<svg xmlns="http://www.w3.org/2000/svg" xmlns:xlink="http://www.w3.org/1999/xlink" width="48pt" height="48pt" viewBox="0 0 48 48" version="1.1">
<g id="surface1">
<path style=" stroke:none;fill-rule:evenodd;fill:rgb(23.137255%,41.960784%,23.137255%);fill-opacity:1;" d="M 31.78125 3 L 11.300781 3 C 6.703125 3 3 6.703125 3 11.300781 L 3 36.699219 C 3 41.296875 6.703125 45 11.300781 45 L 36.699219 45 C 41.296875 45 45 41.296875 45 36.699219 L 45 16.21875 Z M 31.78125 3 "/>
<path style=" stroke:none;fill-rule:evenodd;fill:rgb(41.960784%,68.627451%,41.960784%);fill-opacity:1;" d="M 45 16.21875 L 31.78125 3 L 31.78125 7.917969 C 31.78125 12.515625 35.484375 16.21875 40.082031 16.21875 Z M 45 16.21875 "/>
<path style=" stroke:none;fill-rule:nonzero;fill:rgb(41.960784%,68.627451%,41.960784%);fill-opacity:1;" d="M 15 16.96875 L 15 34.96875 L 33 34.96875 L 33 16.96875 Z M 16.5 18.46875 L 31.5 18.46875 L 31.5 21.46875 L 16.5 21.46875 Z M 16.5 22.96875 L 19.5 22.96875 L 19.5 27.46875 L 16.5 27.46875 Z M 21 22.96875 L 27 22.96875 L 27 27.46875 L 21 27.46875 Z M 28.5 22.96875 L 31.5 22.96875 L 31.5 27.46875 L 28.5 27.46875 Z M 16.5 28.96875 L 19.5 28.96875 L 19.5 33.46875 L 16.5 33.46875 Z M 21 28.96875 L 27 28.96875 L 27 33.46875 L 21 33.46875 Z M 28.5 28.96875 L 31.5 28.96875 L 31.5 33.46875 L 28.5 33.46875 Z M 28.5 28.96875 "/>
</g>
</svg>
