<?xml version="1.0" encoding="UTF-8"?>
<svg xmlns="http://www.w3.org/2000/svg" xmlns:xlink="http://www.w3.org/1999/xlink" width="48pt" height="48pt" viewBox="0 0 48 48" version="1.1">
<g id="surface1">
<path style=" stroke:none;fill-rule:evenodd;fill:rgb(67.45098%,55.686275%,36.078431%);fill-opacity:1;" d="M 11.207031 2.847656 L 36.792969 2.847656 C 41.40625 2.847656 45.152344 6.59375 45.152344 11.207031 L 45.152344 36.792969 C 45.152344 41.40625 41.40625 45.152344 36.792969 45.152344 L 11.207031 45.152344 C 6.59375 45.152344 2.847656 41.40625 2.847656 36.792969 L 2.847656 11.207031 C 2.847656 6.59375 6.59375 2.847656 11.207031 2.847656 Z M 11.207031 2.847656 "/>
<path style=" stroke:none;fill-rule:evenodd;fill:rgb(87.058824%,33.72549%,29.803922%);fill-opacity:1;" d="M 28.667969 11.402344 L 16.378906 11.402344 C 13.625 11.402344 11.402344 13.621094 11.402344 16.378906 L 11.402344 31.621094 C 11.402344 34.375 13.625 36.597656 16.378906 36.597656 L 31.621094 36.597656 C 34.378906 36.597656 36.597656 34.375 36.597656 31.621094 L 36.597656 19.332031 Z M 28.667969 11.402344 "/>
<path style=" stroke:none;fill-rule:nonzero;fill:rgb(89.411765%,72.941176%,45.882353%);fill-opacity:1;" d="M 7.9375 16.75 C 7.933594 16.816406 7.933594 16.890625 7.933594 16.957031 L 7.933594 30.953125 C 7.933594 32.417969 8.707031 33.765625 9.96875 34.496094 L 21.964844 41.449219 C 23.222656 42.183594 24.777344 42.183594 26.035156 41.449219 L 38.03125 34.496094 C 39.292969 33.765625 40.066406 32.410156 40.066406 30.953125 L 40.066406 16.957031 C 40.066406 16.90625 40.0625 16.855469 40.0625 16.800781 C 40.066406 16.800781 7.9375 16.75 7.9375 16.75 Z M 7.9375 16.75 "/>
<path style=" stroke:none;fill-rule:nonzero;fill:rgb(72.156863%,59.607843%,38.823529%);fill-opacity:1;" d="M 24.09375 6 L 24.09375 6.003906 C 23.347656 5.984375 22.609375 6.175781 21.957031 6.558594 L 9.957031 13.589844 C 8.777344 14.285156 8.015625 15.53125 7.933594 16.910156 C 8.003906 18.308594 8.769531 19.566406 9.957031 20.265625 L 21.957031 27.300781 C 23.222656 28.042969 24.777344 28.042969 26.042969 27.300781 L 38.042969 20.265625 C 39.222656 19.574219 39.984375 18.328125 40.066406 16.949219 C 39.996094 15.550781 39.230469 14.292969 38.042969 13.589844 L 26.042969 6.558594 C 25.449219 6.207031 24.78125 6.015625 24.09375 6 Z M 24.09375 6 "/>
<path style=" stroke:none;fill-rule:nonzero;fill:rgb(67.45098%,55.686275%,36.078431%);fill-opacity:1;" d="M 24.09375 6 L 24.09375 6.003906 C 23.847656 6 23.597656 6.015625 23.359375 6.058594 L 23.359375 27.796875 C 24.28125 27.949219 25.230469 27.777344 26.035156 27.300781 L 38.042969 20.265625 C 39.21875 19.574219 39.984375 18.328125 40.066406 16.941406 C 39.996094 15.550781 39.230469 14.292969 38.042969 13.59375 L 26.035156 6.558594 C 25.449219 6.207031 24.78125 6.019531 24.09375 6 Z M 24.09375 6 "/>
<path style=" stroke:none;fill-rule:nonzero;fill:rgb(80.784314%,65.882353%,41.568627%);fill-opacity:1;" d="M 7.9375 16.828125 C 7.933594 16.847656 7.933594 16.863281 7.933594 16.886719 C 7.933594 16.871094 7.9375 16.859375 7.9375 16.847656 C 7.9375 16.839844 7.9375 16.832031 7.9375 16.828125 Z M 7.933594 16.921875 C 7.933594 16.9375 7.933594 16.949219 7.933594 16.957031 L 7.933594 30.953125 C 7.933594 32.417969 8.707031 33.765625 9.96875 34.496094 L 21.964844 41.453125 C 22.402344 41.703125 22.875 41.863281 23.359375 41.941406 L 23.359375 27.796875 C 22.863281 27.71875 22.390625 27.550781 21.964844 27.300781 L 9.957031 20.265625 C 8.777344 19.566406 8.011719 18.3125 7.933594 16.921875 Z M 7.933594 16.921875 "/>
<path style=" stroke:none;fill-rule:nonzero;fill:rgb(60.784314%,50.196078%,32.54902%);fill-opacity:1;" d="M 8.019531 16.28125 C 7.972656 16.488281 7.949219 16.699219 7.933594 16.910156 C 8.003906 18.308594 8.769531 19.566406 9.957031 20.265625 L 21.964844 27.300781 C 23.222656 28.042969 24.777344 28.042969 26.035156 27.300781 L 38.042969 20.265625 C 39.222656 19.574219 39.984375 18.328125 40.066406 16.941406 C 40.058594 16.722656 40.027344 16.503906 39.980469 16.292969 C 39.730469 17.421875 39.03125 18.394531 38.042969 18.980469 L 26.035156 26.015625 C 24.777344 26.753906 23.222656 26.753906 21.964844 26.015625 L 9.957031 18.980469 C 8.96875 18.394531 8.265625 17.417969 8.019531 16.28125 Z M 8.019531 16.28125 "/>
</g>
</svg>
