<?xml version="1.0" encoding="UTF-8"?>
<svg xmlns="http://www.w3.org/2000/svg" xmlns:xlink="http://www.w3.org/1999/xlink" width="48pt" height="48pt" viewBox="0 0 48 48" version="1.1">
<g id="surface1">
<path style=" stroke:none;fill-rule:evenodd;fill:rgb(7.058824%,45.098039%,69.803922%);fill-opacity:1;" d="M 31.78125 3 L 11.300781 3 C 6.703125 3 3 6.703125 3 11.300781 L 3 36.699219 C 3 41.296875 6.703125 45 11.300781 45 L 36.699219 45 C 41.296875 45 45 41.296875 45 36.699219 L 45 16.21875 Z M 31.78125 3 "/>
<path style=" stroke:none;fill-rule:evenodd;fill:rgb(0%,27.45098%,47.843137%);fill-opacity:1;" d="M 45 16.21875 L 31.78125 3 L 31.78125 7.917969 C 31.78125 12.515625 35.484375 16.21875 40.082031 16.21875 Z M 45 16.21875 "/>
<path style=" stroke:none;fill-rule:nonzero;fill:rgb(56.470588%,74.117647%,78.823529%);fill-opacity:1;" d="M 17.28125 3 L 17.28125 24.839844 L 10.5625 24.839844 L 10.5625 31.5625 L 2.933594 31.5625 L 2.933594 34.921875 L 10.5625 34.921875 L 10.5625 41.640625 L 17.28125 41.640625 L 17.28125 45 L 20.640625 45 L 20.640625 41.640625 L 27.359375 41.640625 L 27.359375 34.921875 L 44.972656 34.921875 L 44.972656 31.5625 L 27.359375 31.5625 L 27.359375 24.839844 L 20.640625 24.839844 L 20.640625 3 Z M 13.921875 28.199219 L 24 28.199219 L 24 38.28125 L 13.921875 38.28125 Z M 17.28125 31.5625 L 17.28125 34.921875 L 20.640625 34.921875 L 20.640625 31.5625 Z M 17.28125 31.5625 "/>
</g>
</svg>
