<?xml version="1.0" encoding="UTF-8"?>
<svg xmlns="http://www.w3.org/2000/svg" xmlns:xlink="http://www.w3.org/1999/xlink" width="48pt" height="48pt" viewBox="0 0 48 48" version="1.1">
<g id="surface1">
<path style=" stroke:none;fill-rule:evenodd;fill:rgb(38.039216%,71.764706%,93.333333%);fill-opacity:1;" d="M 31.78125 3 L 11.300781 3 C 6.703125 3 3 6.703125 3 11.300781 L 3 36.699219 C 3 41.296875 6.703125 45 11.300781 45 L 36.699219 45 C 41.296875 45 45 41.296875 45 36.699219 L 45 16.21875 Z M 31.78125 3 "/>
<path style=" stroke:none;fill-rule:evenodd;fill:rgb(82.745098%,92.156863%,98.039216%);fill-opacity:1;" d="M 45 16.21875 L 31.78125 3 L 31.78125 7.917969 C 31.78125 12.515625 35.484375 16.21875 40.082031 16.21875 Z M 45 16.21875 "/>
<path style=" stroke:none;fill-rule:nonzero;fill:rgb(82.745098%,92.156863%,98.039216%);fill-opacity:1;" d="M 18.484375 16.21875 L 18.484375 26.71875 C 18.484375 26.71875 18.25 26.71875 17.734375 26.71875 C 15.660156 26.71875 13.984375 28.402344 13.984375 30.46875 C 13.984375 32.542969 15.660156 34.21875 17.734375 34.21875 C 19.777344 34.21875 21.441406 32.582031 21.480469 30.542969 L 21.484375 30.53125 L 21.484375 20.71875 L 28.984375 20.71875 L 28.984375 26.71875 C 28.984375 26.71875 28.75 26.71875 28.234375 26.71875 C 26.160156 26.71875 24.484375 28.402344 24.484375 30.46875 C 24.484375 32.542969 26.160156 34.21875 28.234375 34.21875 C 30.230469 34.21875 31.875 32.652344 31.972656 30.65625 L 31.984375 30.640625 L 31.984375 16.21875 Z M 18.484375 16.21875 "/>
</g>
</svg>
