<?xml version="1.0" encoding="UTF-8"?>
<svg xmlns="http://www.w3.org/2000/svg" xmlns:xlink="http://www.w3.org/1999/xlink" width="48pt" height="48pt" viewBox="0 0 48 48" version="1.1">
<g id="surface1">
<path style=" stroke:none;fill-rule:evenodd;fill:rgb(69.411765%,70.980392%,15.294118%);fill-opacity:1;" d="M 31.78125 3 L 11.300781 3 C 6.703125 3 3 6.703125 3 11.300781 L 3 36.699219 C 3 41.296875 6.703125 45 11.300781 45 L 36.699219 45 C 41.296875 45 45 41.296875 45 36.699219 L 45 16.21875 Z M 31.78125 3 "/>
<path style=" stroke:none;fill-rule:evenodd;fill:rgb(60.784314%,62.352941%,6.27451%);fill-opacity:1;" d="M 45 16.21875 L 31.78125 3 L 31.78125 7.917969 C 31.78125 12.515625 35.484375 16.21875 40.082031 16.21875 Z M 45 16.21875 "/>
<path style=" stroke:none;fill-rule:nonzero;fill:rgb(89.411765%,94.117647%,47.843137%);fill-opacity:1;" d="M 18.28125 16.015625 L 18.28125 26.515625 C 18.28125 26.515625 18.046875 26.515625 17.53125 26.515625 C 15.457031 26.515625 13.78125 28.199219 13.78125 30.265625 C 13.78125 32.339844 15.457031 34.015625 17.53125 34.015625 C 19.574219 34.015625 21.238281 32.378906 21.277344 30.332031 L 21.28125 30.328125 L 21.28125 20.515625 L 28.78125 20.515625 L 28.78125 26.515625 C 28.78125 26.515625 28.546875 26.515625 28.03125 26.515625 C 25.957031 26.515625 24.28125 28.199219 24.28125 30.265625 C 24.28125 32.339844 25.957031 34.015625 28.03125 34.015625 C 30.027344 34.015625 31.671875 32.449219 31.769531 30.453125 L 31.78125 30.4375 L 31.78125 16.015625 Z M 18.28125 16.015625 "/>
</g>
</svg>
