<?xml version="1.0" encoding="UTF-8"?>
<svg xmlns="http://www.w3.org/2000/svg" xmlns:xlink="http://www.w3.org/1999/xlink" width="48pt" height="48pt" viewBox="0 0 48 48" version="1.1">
<g id="surface1">
<path style=" stroke:none;fill-rule:evenodd;fill:rgb(17.254902%,78.039216%,72.941176%);fill-opacity:1;" d="M 31.78125 3 L 11.300781 3 C 6.703125 3 3 6.703125 3 11.300781 L 3 36.699219 C 3 41.296875 6.703125 45 11.300781 45 L 36.699219 45 C 41.296875 45 45 41.296875 45 36.699219 L 45 16.21875 Z M 31.78125 3 "/>
<path style=" stroke:none;fill-rule:evenodd;fill:rgb(22.352941%,67.843137%,65.882353%);fill-opacity:1;" d="M 45 16.21875 L 31.78125 3 L 31.78125 7.917969 C 31.78125 12.515625 35.484375 16.21875 40.082031 16.21875 Z M 45 16.21875 "/>
<path style=" stroke:none;fill-rule:nonzero;fill:rgb(72.54902%,92.941176%,86.27451%);fill-opacity:1;" d="M 16.90625 21.644531 L 25.90625 33.644531 L 33.40625 27.644531 L 39.40625 33.644531 L 39.40625 38.144531 L 9.40625 38.144531 L 9.40625 30.644531 Z M 16.90625 21.644531 "/>
</g>
</svg>
