<?xml version="1.0" encoding="UTF-8"?>
<svg xmlns="http://www.w3.org/2000/svg" xmlns:xlink="http://www.w3.org/1999/xlink" width="48pt" height="48pt" viewBox="0 0 48 48" version="1.1">
<g id="surface1">
<path style=" stroke:none;fill-rule:evenodd;fill:rgb(74.901961%,60.392157%,40%);fill-opacity:1;" d="M 31.78125 3 L 11.300781 3 C 6.703125 3 3 6.703125 3 11.300781 L 3 36.699219 C 3 41.296875 6.703125 45 11.300781 45 L 36.699219 45 C 41.296875 45 45 41.296875 45 36.699219 L 45 16.21875 Z M 31.78125 3 "/>
<path style=" stroke:none;fill-rule:evenodd;fill:rgb(98.039216%,92.941176%,65.490196%);fill-opacity:1;" d="M 45 16.21875 L 31.78125 3 L 31.78125 7.917969 C 31.78125 12.515625 35.484375 16.21875 40.082031 16.21875 Z M 45 16.21875 "/>
<path style=" stroke:none;fill-rule:nonzero;fill:rgb(98.039216%,92.941176%,65.490196%);fill-opacity:1;" d="M 24 18.019531 C 22.34375 18.019531 21 19.371094 21 21.019531 L 21 27.019531 C 21 28.671875 22.34375 30.019531 24 30.019531 C 25.65625 30.019531 27 28.671875 27 27.019531 L 27 21.019531 C 27 19.371094 25.65625 18.019531 24 18.019531 Z M 24 19.519531 C 24.828125 19.519531 25.5 20.121094 25.5 21.019531 C 25.5 21.769531 24.828125 22.519531 24 22.519531 C 23.171875 22.519531 22.5 21.769531 22.5 21.019531 C 22.5 20.121094 23.171875 19.519531 24 19.519531 Z M 24 24.019531 C 24.828125 24.019531 25.5 24.691406 25.5 25.519531 L 25.5 27.019531 C 25.5 27.847656 24.828125 28.519531 24 28.519531 C 23.171875 28.519531 22.5 27.847656 22.5 27.019531 L 22.5 25.519531 C 22.5 24.691406 23.171875 24.019531 24 24.019531 Z M 24 24.019531 "/>
<path style=" stroke:none;fill-rule:nonzero;fill:rgb(98.039216%,92.941176%,65.490196%);fill-opacity:1;" d="M 22.5 3.019531 L 22.5 4.519531 L 24 4.519531 L 24 3.019531 Z M 22.5 6.019531 L 22.5 7.519531 L 24 7.519531 L 24 6.019531 Z M 22.5 9.019531 L 22.5 10.519531 L 24 10.519531 L 24 9.019531 Z M 22.5 12.019531 L 22.5 13.519531 L 24 13.519531 L 24 12.019531 Z M 22.5 15.019531 L 22.5 16.519531 L 24 16.519531 L 24 15.019531 Z M 22.5 15.019531 "/>
<path style=" stroke:none;fill-rule:nonzero;fill:rgb(98.039216%,92.941176%,65.490196%);fill-opacity:1;" d="M 24 4.519531 L 24 6.019531 L 25.5 6.019531 L 25.5 4.519531 Z M 24 7.519531 L 24 9.019531 L 25.5 9.019531 L 25.5 7.519531 Z M 24 10.519531 L 24 12.019531 L 25.5 12.019531 L 25.5 10.519531 Z M 24 13.519531 L 24 15.019531 L 25.5 15.019531 L 25.5 13.519531 Z M 24 16.519531 L 24 18.019531 L 25.5 18.019531 L 25.5 16.519531 Z M 24 16.519531 "/>
<path style=" stroke:none;fill-rule:nonzero;fill:rgb(98.039216%,92.941176%,65.490196%);fill-opacity:1;" d="M 9.324219 29.074219 C 7.832031 29.074219 6.621094 30.285156 6.621094 31.78125 C 6.621094 33.269531 7.832031 34.484375 9.324219 34.484375 C 9.765625 34.484375 10.199219 34.375 10.582031 34.171875 L 13.285156 37.316406 C 13.171875 37.625 13.109375 37.941406 13.109375 38.269531 C 13.109375 39.761719 14.324219 40.972656 15.8125 40.972656 C 17.128906 40.96875 18.253906 40.015625 18.472656 38.71875 L 22.925781 37.828125 C 23.222656 39.035156 24.300781 39.890625 25.546875 39.890625 C 27.042969 39.890625 28.253906 38.683594 28.253906 37.1875 C 28.253906 35.691406 27.042969 34.484375 25.546875 34.484375 C 24.230469 34.484375 23.109375 35.4375 22.886719 36.734375 L 18.4375 37.625 C 18.140625 36.417969 17.058594 35.566406 15.8125 35.5625 C 15.09375 35.566406 14.402344 35.855469 13.894531 36.371094 L 11.421875 33.484375 C 11.8125 33 12.027344 32.402344 12.027344 31.78125 C 12.027344 30.285156 10.816406 29.074219 9.324219 29.074219 Z M 9.324219 29.074219 "/>
</g>
</svg>
