<?xml version="1.0" encoding="UTF-8"?>
<svg xmlns="http://www.w3.org/2000/svg" xmlns:xlink="http://www.w3.org/1999/xlink" width="48pt" height="48pt" viewBox="0 0 48 48" version="1.1">
<g id="surface1">
<path style=" stroke:none;fill-rule:evenodd;fill:rgb(12.941176%,66.27451%,94.901961%);fill-opacity:1;" d="M 31.78125 3 L 11.300781 3 C 6.703125 3 3 6.703125 3 11.300781 L 3 36.699219 C 3 41.296875 6.703125 45 11.300781 45 L 36.699219 45 C 41.296875 45 45 41.296875 45 36.699219 L 45 16.21875 Z M 31.78125 3 "/>
<path style=" stroke:none;fill-rule:evenodd;fill:rgb(47.058824%,82.745098%,99.607843%);fill-opacity:1;" d="M 45 16.21875 L 31.78125 3 L 31.78125 7.917969 C 31.78125 12.515625 35.484375 16.21875 40.082031 16.21875 Z M 45 16.21875 "/>
<path style=" stroke:none;fill-rule:evenodd;fill:rgb(47.058824%,82.745098%,99.607843%);fill-opacity:1;" d="M 22.140625 12.847656 L 22.140625 16.566406 L 25.859375 16.566406 L 25.859375 12.847656 Z M 21.894531 17.230469 L 18.21875 18.21875 L 19.738281 19.738281 L 22.140625 19.089844 L 22.140625 17.234375 Z M 25.859375 17.230469 L 25.859375 19.089844 L 31.535156 20.613281 L 25.859375 22.128906 L 25.859375 35.140625 L 26.105469 35.140625 L 35.136719 32.71875 L 35.152344 32.722656 L 35.152344 19.640625 L 35.136719 19.644531 L 26.105469 17.222656 Z M 15.285156 19 L 12.847656 19.65625 L 12.847656 33.292969 L 24 35.152344 L 24 22.140625 L 15.839844 20.78125 L 16.808594 20.519531 Z M 33.292969 22.074219 L 33.292969 30.308594 L 27.71875 28.8125 L 27.71875 23.566406 Z M 27.71875 30.738281 L 31.535156 31.761719 L 27.71875 32.792969 Z M 27.71875 30.738281 "/>
</g>
</svg>
