<?xml version="1.0" encoding="UTF-8"?>
<svg xmlns="http://www.w3.org/2000/svg" xmlns:xlink="http://www.w3.org/1999/xlink" width="48pt" height="48pt" viewBox="0 0 48 48" version="1.1">
<g id="surface1">
<path style=" stroke:none;fill-rule:evenodd;fill:rgb(74.901961%,60.392157%,40%);fill-opacity:1;" d="M 31.78125 3 L 11.300781 3 C 6.703125 3 3 6.703125 3 11.300781 L 3 36.699219 C 3 41.296875 6.703125 45 11.300781 45 L 36.699219 45 C 41.296875 45 45 41.296875 45 36.699219 L 45 16.21875 Z M 31.78125 3 "/>
<path style=" stroke:none;fill-rule:evenodd;fill:rgb(64.705882%,50.196078%,28.235294%);fill-opacity:1;" d="M 45 16.21875 L 31.78125 3 L 31.78125 7.917969 C 31.78125 12.515625 35.484375 16.21875 40.082031 16.21875 Z M 45 16.21875 "/>
<path style=" stroke:none;fill-rule:nonzero;fill:rgb(98.039216%,92.941176%,65.490196%);fill-opacity:1;" d="M 13.96875 16.96875 C 11.902344 16.96875 10.21875 18.652344 10.21875 20.71875 C 10.21875 22.792969 11.902344 24.46875 13.96875 24.46875 C 14.578125 24.46875 15.183594 24.324219 15.71875 24.035156 L 19.464844 28.40625 C 19.300781 28.824219 19.222656 29.269531 19.21875 29.71875 C 19.21875 31.792969 20.902344 33.46875 22.96875 33.46875 C 24.796875 33.46875 26.359375 32.144531 26.660156 30.34375 L 32.832031 29.109375 C 33.246094 30.785156 34.746094 31.96875 36.46875 31.96875 C 38.542969 31.96875 40.21875 30.292969 40.21875 28.21875 C 40.21875 26.152344 38.542969 24.46875 36.46875 24.46875 C 34.644531 24.472656 33.082031 25.792969 32.78125 27.59375 L 26.609375 28.828125 C 26.199219 27.152344 24.699219 25.972656 22.96875 25.96875 C 21.96875 25.972656 21.011719 26.375 20.308594 27.089844 L 16.875 23.082031 C 17.421875 22.417969 17.71875 21.582031 17.71875 20.71875 C 17.71875 18.652344 16.042969 16.96875 13.96875 16.96875 Z M 13.96875 16.96875 "/>
</g>
</svg>
