<?xml version="1.0" encoding="UTF-8"?>
<svg xmlns="http://www.w3.org/2000/svg" xmlns:xlink="http://www.w3.org/1999/xlink" width="48pt" height="48pt" viewBox="0 0 48 48" version="1.1">
<g id="surface1">
<path style=" stroke:none;fill-rule:evenodd;fill:rgb(12.156863%,67.058824%,95.686275%);fill-opacity:1;" d="M 31.78125 3 L 11.300781 3 C 6.703125 3 3 6.703125 3 11.300781 L 3 36.699219 C 3 41.296875 6.703125 45 11.300781 45 L 36.699219 45 C 41.296875 45 45 41.296875 45 36.699219 L 45 16.21875 Z M 31.78125 3 "/>
<path style=" stroke:none;fill-rule:evenodd;fill:rgb(87.45098%,93.72549%,99.607843%);fill-opacity:1;" d="M 45 16.21875 L 31.78125 3 L 31.78125 7.917969 C 31.78125 12.515625 35.484375 16.21875 40.082031 16.21875 Z M 45 16.21875 "/>
<path style=" stroke:none;fill-rule:nonzero;fill:rgb(87.45098%,93.72549%,99.607843%);fill-opacity:1;" d="M 12.964844 17.042969 L 12.964844 35.433594 L 35.035156 35.433594 L 35.035156 17.042969 Z M 16.066406 18.878906 L 31.933594 18.878906 L 24 26.8125 Z M 14.808594 20.144531 L 20.722656 26.0625 L 14.808594 31.121094 Z M 33.191406 20.144531 L 33.191406 31.121094 L 27.277344 26.0625 Z M 21.988281 27.328125 L 23.371094 28.707031 L 24 29.394531 L 24.628906 28.707031 L 26.011719 27.328125 L 33.191406 33.480469 L 33.191406 33.59375 L 14.808594 33.59375 L 14.808594 33.480469 Z M 21.988281 27.328125 "/>
</g>
</svg>
