<?xml version="1.0" encoding="UTF-8"?>
<svg xmlns="http://www.w3.org/2000/svg" xmlns:xlink="http://www.w3.org/1999/xlink" width="48pt" height="48pt" viewBox="0 0 48 48" version="1.1">
<g id="surface1">
<path style=" stroke:none;fill-rule:evenodd;fill:rgb(11.764706%,59.607843%,81.960784%);fill-opacity:1;" d="M 31.78125 3 L 11.300781 3 C 6.703125 3 3 6.703125 3 11.300781 L 3 36.699219 C 3 41.296875 6.703125 45 11.300781 45 L 36.699219 45 C 41.296875 45 45 41.296875 45 36.699219 L 45 16.21875 Z M 31.78125 3 "/>
<path style=" stroke:none;fill-rule:evenodd;fill:rgb(9.803922%,49.019608%,67.45098%);fill-opacity:1;" d="M 45 16.21875 L 31.78125 3 L 31.78125 7.917969 C 31.78125 12.515625 35.484375 16.21875 40.082031 16.21875 Z M 45 16.21875 "/>
<path style=" stroke:none;fill-rule:nonzero;fill:rgb(54.509804%,79.607843%,98.431373%);fill-opacity:1;" d="M 18.824219 16.832031 C 18.390625 16.824219 17.96875 16.980469 17.660156 17.277344 C 17.347656 17.566406 17.171875 17.972656 17.171875 18.394531 L 17.171875 33.265625 C 17.171875 33.828125 17.480469 34.34375 17.980469 34.621094 C 18.480469 34.902344 19.09375 34.902344 19.589844 34.621094 L 32.871094 27.183594 C 33.363281 26.90625 33.671875 26.390625 33.671875 25.832031 C 33.671875 25.269531 33.363281 24.753906 32.871094 24.480469 L 19.589844 17.042969 C 19.359375 16.910156 19.09375 16.839844 18.824219 16.832031 Z M 18.824219 16.832031 "/>
</g>
</svg>
