<?xml version="1.0" encoding="UTF-8"?>
<svg xmlns="http://www.w3.org/2000/svg" xmlns:xlink="http://www.w3.org/1999/xlink" width="48pt" height="48pt" viewBox="0 0 48 48" version="1.1">
<g id="surface1">
<path style=" stroke:none;fill-rule:evenodd;fill:rgb(60%,60%,100%);fill-opacity:1;" d="M 31.78125 3 L 11.300781 3 C 6.703125 3 3 6.703125 3 11.300781 L 3 36.699219 C 3 41.296875 6.703125 45 11.300781 45 L 36.699219 45 C 41.296875 45 45 41.296875 45 36.699219 L 45 16.21875 Z M 31.78125 3 "/>
<path style=" stroke:none;fill-rule:evenodd;fill:rgb(35.686275%,34.509804%,58.431373%);fill-opacity:1;" d="M 45 16.21875 L 31.78125 3 L 31.78125 7.917969 C 31.78125 12.515625 35.484375 16.21875 40.082031 16.21875 Z M 45 16.21875 "/>
<path style=" stroke:none;fill-rule:nonzero;fill:rgb(14.901961%,12.54902%,21.960784%);fill-opacity:0.533333;" d="M 24 11.59375 C 18.386719 11.59375 13.832031 16.144531 13.832031 21.761719 C 13.832031 27.375 18.386719 31.925781 24 31.933594 C 29.613281 31.925781 34.167969 27.375 34.167969 21.761719 C 34.167969 16.144531 29.613281 11.59375 24 11.59375 Z M 25.488281 14.097656 C 26.449219 14.027344 27.027344 14.1875 27.457031 14.609375 C 27.730469 14.875 27.863281 15.128906 28.347656 16.265625 C 29.265625 18.410156 29.28125 18.503906 29.019531 20.046875 C 28.988281 20.21875 29 20.308594 29.050781 20.308594 C 29.171875 20.308594 29.472656 19.949219 29.566406 19.699219 C 29.671875 19.417969 29.777344 19.410156 30.332031 19.683594 C 31.972656 20.46875 32.28125 20.9375 31.925781 22.105469 C 31.761719 22.640625 31.488281 23.0625 31.074219 23.425781 C 30.703125 23.746094 29.675781 24.292969 29.046875 24.503906 C 28.683594 24.625 28.421875 24.65625 27.496094 24.667969 C 26.230469 24.6875 26.136719 24.675781 24.988281 24.484375 C 24.175781 24.347656 23.238281 24.089844 22.441406 23.777344 C 21.964844 23.589844 21.046875 23.1875 20.910156 23.097656 C 20.855469 23.0625 20.566406 22.902344 20.28125 22.738281 C 18.722656 21.871094 16.902344 20.300781 16.457031 19.464844 C 16.308594 19.175781 16.296875 19.121094 16.375 18.925781 C 16.5 18.625 16.910156 18.21875 17.246094 18.074219 C 17.535156 17.941406 19.328125 17.761719 19.53125 17.832031 C 19.605469 17.863281 19.621094 17.972656 19.597656 18.28125 C 19.558594 18.902344 19.667969 19.160156 20.121094 19.449219 C 20.988281 20.003906 22.527344 20.699219 23.714844 21.066406 C 24.152344 21.203125 25.019531 21.269531 25.019531 21.167969 C 25.019531 21.140625 24.933594 20.980469 24.816406 20.800781 C 24.707031 20.625 24.59375 20.339844 24.566406 20.167969 C 24.484375 19.636719 24.363281 19.535156 23.441406 19.234375 C 21.515625 18.609375 20.582031 18.214844 20.265625 17.890625 C 20.074219 17.6875 20.046875 17.609375 20.046875 17.292969 C 20.050781 16.90625 20.496094 15.207031 20.703125 14.800781 C 20.933594 14.347656 21.347656 14.105469 21.902344 14.105469 C 22.105469 14.105469 22.660156 14.15625 23.140625 14.214844 C 23.777344 14.285156 24.113281 14.292969 24.394531 14.246094 C 24.808594 14.171875 25.171875 14.121094 25.488281 14.097656 Z M 26.230469 14.546875 C 25.855469 14.503906 25.371094 14.5625 25.371094 14.652344 C 25.371094 14.675781 25.511719 14.746094 25.683594 14.796875 C 26.121094 14.925781 26.203125 15.042969 25.972656 15.222656 C 25.871094 15.300781 25.785156 15.402344 25.785156 15.4375 C 25.785156 15.535156 26.464844 15.511719 26.734375 15.394531 C 26.953125 15.308594 26.980469 15.269531 26.957031 15.074219 C 26.933594 14.78125 26.683594 14.605469 26.230469 14.546875 Z M 21.199219 15.738281 C 21.066406 15.816406 20.964844 16.203125 21.011719 16.4375 C 21.042969 16.621094 21.128906 16.734375 21.347656 16.890625 C 21.671875 17.121094 21.921875 17.15625 22.136719 17.003906 C 22.214844 16.949219 22.542969 16.871094 22.859375 16.824219 C 23.59375 16.722656 23.933594 16.609375 23.964844 16.464844 C 23.996094 16.285156 23.515625 16.175781 22.6875 16.167969 C 22.027344 16.160156 21.972656 16.144531 21.625 15.925781 C 21.425781 15.800781 21.234375 15.71875 21.199219 15.738281 Z M 19.238281 22.746094 C 19.441406 22.746094 19.546875 22.828125 20.035156 23.347656 L 20.605469 23.949219 L 20.894531 23.902344 C 21.183594 23.847656 21.1875 23.855469 21.730469 24.363281 C 22.027344 24.644531 22.339844 24.941406 22.425781 25.019531 C 22.71875 25.285156 23.082031 25.324219 25.707031 25.355469 C 27.105469 25.375 28.277344 25.417969 28.3125 25.453125 C 28.347656 25.488281 28.332031 25.675781 28.269531 25.921875 C 28.207031 26.152344 28.113281 26.5625 28.050781 26.84375 C 27.957031 27.292969 27.886719 27.433594 27.441406 28.027344 C 26.675781 29.046875 26.640625 29.109375 26.519531 29.316406 C 26.394531 29.535156 26.433594 29.644531 26.628906 29.644531 C 26.84375 29.644531 27.175781 29.449219 27.589844 29.082031 C 27.792969 28.902344 28.222656 28.605469 28.546875 28.421875 C 29.175781 28.074219 29.199219 28.058594 29.238281 27.824219 C 29.28125 27.609375 29.40625 27.542969 29.6875 27.582031 C 29.824219 27.605469 30.316406 27.625 30.785156 27.625 C 31.339844 27.625 31.640625 27.652344 31.640625 27.699219 C 31.640625 27.824219 30.03125 29.378906 29.59375 29.683594 C 28.175781 30.65625 26.875 31.171875 25.449219 31.324219 C 25.078125 31.359375 24.699219 31.402344 24.605469 31.410156 C 24.503906 31.421875 24.207031 31.421875 23.941406 31.410156 C 20.878906 31.28125 18.515625 30.160156 16.769531 28.019531 C 16.003906 27.0625 13.589844 24.140625 16.277344 24.574219 C 16.96875 24.5625 17.597656 24.574219 17.675781 24.59375 C 17.761719 24.609375 18.050781 24.828125 18.324219 25.074219 C 18.964844 25.652344 19.394531 25.753906 19.59375 25.378906 C 19.660156 25.261719 19.625 25.191406 19.359375 24.917969 C 18.671875 24.199219 18.402344 23.644531 18.511719 23.199219 C 18.566406 22.980469 18.941406 22.746094 19.238281 22.746094 Z M 24.761719 26.515625 C 24.652344 26.519531 24.578125 26.566406 24.53125 26.65625 C 24.410156 26.875 24.46875 26.933594 24.988281 27.109375 C 25.550781 27.296875 25.90625 27.28125 26.082031 27.0625 C 26.234375 26.875 26.234375 26.761719 26.09375 26.621094 C 25.996094 26.519531 25.96875 26.519531 25.785156 26.625 C 25.59375 26.738281 25.5625 26.738281 25.25 26.625 C 25.03125 26.546875 24.875 26.511719 24.761719 26.515625 Z M 24.761719 26.515625 "/>
<path style=" stroke:none;fill-rule:nonzero;fill:rgb(14.901961%,12.54902%,21.960784%);fill-opacity:0.533333;" d="M 13.734375 32.871094 L 15.515625 32.871094 C 16.703125 32.871094 17.511719 32.902344 17.925781 32.964844 C 18.347656 33.027344 18.691406 33.1875 18.957031 33.449219 C 19.222656 33.707031 19.359375 34.121094 19.359375 34.6875 C 19.359375 35.207031 19.265625 35.558594 19.078125 35.734375 C 18.890625 35.917969 18.519531 36.019531 17.96875 36.058594 C 18.46875 36.140625 18.800781 36.253906 18.972656 36.402344 C 19.144531 36.542969 19.25 36.671875 19.292969 36.796875 C 19.339844 36.910156 19.359375 37.238281 19.359375 37.78125 L 19.359375 39.535156 L 17.015625 39.535156 L 17.015625 37.324219 C 17.015625 36.964844 16.972656 36.746094 16.890625 36.65625 C 16.8125 36.574219 16.597656 36.53125 16.25 36.53125 L 16.25 39.535156 L 13.734375 39.535156 Z M 16.25 34.011719 L 16.25 35.496094 C 16.535156 35.496094 16.734375 35.46875 16.84375 35.417969 C 16.957031 35.359375 17.015625 35.1875 17.015625 34.890625 L 17.015625 34.527344 C 17.015625 34.3125 16.964844 34.171875 16.847656 34.109375 C 16.746094 34.042969 16.542969 34.011719 16.25 34.011719 Z M 16.25 34.011719 "/>
<path style=" stroke:none;fill-rule:nonzero;fill:rgb(14.901961%,12.54902%,21.960784%);fill-opacity:0.533333;" d="M 20.339844 32.871094 L 22.878906 32.871094 C 23.5625 32.871094 24.089844 32.90625 24.457031 32.980469 C 24.828125 33.050781 25.105469 33.160156 25.292969 33.300781 C 25.480469 33.441406 25.605469 33.609375 25.667969 33.8125 C 25.734375 34.011719 25.769531 34.316406 25.769531 34.734375 L 25.769531 35.316406 C 25.769531 35.738281 25.703125 36.050781 25.578125 36.246094 C 25.449219 36.441406 25.214844 36.59375 24.871094 36.699219 C 24.53125 36.800781 24.089844 36.855469 23.535156 36.855469 L 22.859375 36.855469 L 22.859375 39.535156 L 20.339844 39.535156 Z M 22.859375 34.011719 L 22.859375 35.707031 C 22.933594 35.707031 22.996094 35.714844 23.046875 35.714844 C 23.277344 35.714844 23.4375 35.671875 23.527344 35.59375 C 23.613281 35.515625 23.660156 35.355469 23.660156 35.105469 L 23.660156 34.558594 C 23.660156 34.328125 23.609375 34.183594 23.503906 34.113281 C 23.402344 34.042969 23.1875 34.011719 22.859375 34.011719 Z M 22.859375 34.011719 "/>
<path style=" stroke:none;fill-rule:nonzero;fill:rgb(14.901961%,12.54902%,21.960784%);fill-opacity:0.533333;" d="M 34.265625 32.871094 L 34.265625 39.535156 L 32.066406 39.535156 L 32.066406 35.035156 L 31.1875 39.535156 L 29.625 39.535156 L 28.699219 35.140625 L 28.699219 39.535156 L 26.496094 39.535156 L 26.496094 32.871094 L 29.753906 32.871094 C 29.847656 33.269531 29.953125 33.738281 30.0625 34.285156 L 30.40625 35.984375 L 30.984375 32.871094 Z M 34.265625 32.871094 "/>
</g>
</svg>
