<?xml version="1.0" encoding="UTF-8"?>
<svg xmlns="http://www.w3.org/2000/svg" xmlns:xlink="http://www.w3.org/1999/xlink" width="48pt" height="48pt" viewBox="0 0 48 48" version="1.1">
<g id="surface1">
<path style=" stroke:none;fill-rule:evenodd;fill:rgb(12.941176%,66.27451%,94.901961%);fill-opacity:1;" d="M 31.78125 3 L 11.300781 3 C 6.703125 3 3 6.703125 3 11.300781 L 3 36.699219 C 3 41.296875 6.703125 45 11.300781 45 L 36.699219 45 C 41.296875 45 45 41.296875 45 36.699219 L 45 16.21875 Z M 31.78125 3 "/>
<path style=" stroke:none;fill-rule:evenodd;fill:rgb(89.803922%,94.901961%,100%);fill-opacity:1;" d="M 45 16.21875 L 31.78125 3 L 31.78125 7.917969 C 31.78125 12.515625 35.484375 16.21875 40.082031 16.21875 Z M 45 16.21875 "/>
<path style=" stroke:none;fill-rule:nonzero;fill:rgb(85.098039%,92.54902%,99.607843%);fill-opacity:1;" d="M 24 16.96875 C 19.03125 16.96875 15 21 15 25.96875 C 15 30.941406 19.03125 34.96875 24 34.96875 C 28.96875 34.96875 33 30.941406 33 25.96875 C 33 21 28.96875 16.96875 24 16.96875 M 24 18.46875 C 28.140625 18.46875 31.5 21.828125 31.5 25.96875 C 31.5 30.109375 28.140625 33.46875 24 33.46875 C 19.859375 33.46875 16.5 30.109375 16.5 25.96875 C 16.5 21.828125 19.859375 18.46875 24 18.46875 M 23.25 19.96875 L 23.25 21.46875 L 24.75 21.46875 L 24.75 19.96875 Z M 23.25 22.96875 L 23.25 31.96875 L 24.75 31.96875 L 24.75 22.96875 Z M 23.25 22.96875 "/>
</g>
</svg>
