<?xml version="1.0" encoding="UTF-8"?>
<svg xmlns="http://www.w3.org/2000/svg" xmlns:xlink="http://www.w3.org/1999/xlink" width="48pt" height="48pt" viewBox="0 0 48 48" version="1.1">
<g id="surface1">
<path style=" stroke:none;fill-rule:evenodd;fill:rgb(12.54902%,24.313725%,43.921569%);fill-opacity:1;" d="M 31.78125 3 L 11.300781 3 C 6.703125 3 3 6.703125 3 11.300781 L 3 36.699219 C 3 41.296875 6.703125 45 11.300781 45 L 36.699219 45 C 41.296875 45 45 41.296875 45 36.699219 L 45 16.21875 Z M 31.78125 3 "/>
<path style=" stroke:none;fill-rule:evenodd;fill:rgb(18.823529%,48.627451%,97.254902%);fill-opacity:1;" d="M 45 16.21875 L 31.78125 3 L 31.78125 7.917969 C 31.78125 12.515625 35.484375 16.21875 40.082031 16.21875 Z M 45 16.21875 "/>
<path style=" stroke:none;fill-rule:nonzero;fill:rgb(11.372549%,43.921569%,96.862745%);fill-opacity:1;" d="M 15 16.074219 L 15 17.574219 L 24 17.574219 L 24 16.074219 Z M 15 20.574219 L 15 22.074219 L 33 22.074219 L 33 20.574219 Z M 15 25.074219 L 15 26.574219 L 24 26.574219 L 24 25.074219 Z M 15 28.074219 L 15 29.574219 L 33 29.574219 L 33 28.074219 Z M 15 32.574219 L 15 34.074219 L 28.5 34.074219 L 28.5 32.574219 Z M 15 32.574219 "/>
</g>
</svg>
