<?xml version="1.0" encoding="UTF-8"?>
<svg xmlns="http://www.w3.org/2000/svg" xmlns:xlink="http://www.w3.org/1999/xlink" width="48pt" height="48pt" viewBox="0 0 48 48" version="1.1">
<g id="surface1">
<path style=" stroke:none;fill-rule:evenodd;fill:rgb(80%,80%,80%);fill-opacity:1;" d="M 31.78125 3 L 11.300781 3 C 6.703125 3 3 6.703125 3 11.300781 L 3 36.699219 C 3 41.296875 6.703125 45 11.300781 45 L 36.699219 45 C 41.296875 45 45 41.296875 45 36.699219 L 45 16.21875 Z M 31.78125 3 "/>
<path style=" stroke:none;fill-rule:evenodd;fill:rgb(60%,60%,60%);fill-opacity:1;" d="M 45 16.21875 L 31.78125 3 L 31.78125 7.917969 C 31.78125 12.515625 35.484375 16.21875 40.082031 16.21875 Z M 45 16.21875 "/>
<path style=" stroke:none;fill-rule:nonzero;fill:rgb(50.196078%,50.196078%,50.196078%);fill-opacity:1;" d="M 13.113281 10.285156 C 12.722656 10.285156 12.40625 10.597656 12.40625 10.988281 L 12.40625 15.230469 C 12.40625 15.621094 12.722656 15.9375 13.113281 15.9375 L 15.9375 15.9375 C 16.328125 15.9375 16.644531 15.621094 16.644531 15.230469 L 16.644531 10.988281 C 16.644531 10.597656 16.328125 10.285156 15.9375 10.285156 Z M 19.824219 10.285156 C 19.628906 10.285156 19.46875 10.441406 19.46875 10.636719 L 19.46875 15.582031 C 19.46875 15.777344 19.628906 15.9375 19.824219 15.9375 L 20.53125 15.9375 C 20.730469 15.9375 20.886719 15.777344 20.886719 15.582031 L 20.886719 10.636719 C 20.886719 10.441406 20.730469 10.285156 20.53125 10.285156 Z M 22.652344 10.285156 C 22.453125 10.285156 22.296875 10.441406 22.296875 10.636719 L 22.296875 15.582031 C 22.296875 15.777344 22.453125 15.9375 22.652344 15.9375 L 23.355469 15.9375 C 23.550781 15.9375 23.707031 15.777344 23.707031 15.582031 L 23.707031 10.636719 C 23.707031 10.441406 23.550781 10.285156 23.355469 10.285156 Z M 25.828125 10.285156 C 25.4375 10.285156 25.121094 10.597656 25.121094 10.988281 L 25.121094 15.230469 C 25.121094 15.621094 25.4375 15.9375 25.828125 15.9375 L 28.65625 15.9375 C 29.046875 15.9375 29.359375 15.621094 29.359375 15.230469 L 29.359375 10.988281 C 29.359375 10.597656 29.046875 10.285156 28.65625 10.285156 Z M 13.816406 11.699219 L 15.234375 11.699219 L 15.234375 14.519531 L 13.816406 14.519531 Z M 26.535156 11.699219 L 27.949219 11.699219 L 27.949219 14.519531 L 26.535156 14.519531 Z M 14.171875 18.761719 C 13.980469 18.761719 13.816406 18.917969 13.816406 19.113281 L 13.816406 24.058594 C 13.816406 24.253906 13.980469 24.410156 14.171875 24.410156 L 14.878906 24.410156 C 15.074219 24.410156 15.234375 24.253906 15.234375 24.058594 L 15.234375 19.113281 C 15.234375 18.917969 15.074219 18.761719 14.878906 18.761719 Z M 18.765625 18.761719 C 18.375 18.761719 18.058594 19.078125 18.058594 19.46875 L 18.058594 23.707031 C 18.058594 24.097656 18.375 24.410156 18.765625 24.410156 L 21.589844 24.410156 C 21.980469 24.410156 22.296875 24.097656 22.296875 23.707031 L 22.296875 19.46875 C 22.296875 19.078125 21.980469 18.761719 21.589844 18.761719 Z M 25.472656 18.761719 C 25.28125 18.761719 25.121094 18.917969 25.121094 19.113281 L 25.121094 24.058594 C 25.121094 24.253906 25.28125 24.410156 25.472656 24.410156 L 26.183594 24.410156 C 26.378906 24.410156 26.535156 24.253906 26.535156 24.058594 L 26.535156 19.113281 C 26.535156 18.917969 26.378906 18.761719 26.183594 18.761719 Z M 28.300781 18.761719 C 28.105469 18.761719 27.949219 18.917969 27.949219 19.113281 L 27.949219 24.058594 C 27.949219 24.253906 28.105469 24.410156 28.300781 24.410156 L 29.003906 24.410156 C 29.203125 24.410156 29.359375 24.253906 29.359375 24.058594 L 29.359375 19.113281 C 29.359375 18.917969 29.203125 18.761719 29.003906 18.761719 Z M 31.480469 18.761719 C 31.089844 18.761719 30.777344 19.078125 30.777344 19.46875 L 30.777344 23.707031 C 30.777344 24.097656 31.089844 24.410156 31.480469 24.410156 L 34.308594 24.410156 C 34.699219 24.410156 35.011719 24.097656 35.011719 23.707031 L 35.011719 19.46875 C 35.011719 19.078125 34.699219 18.761719 34.308594 18.761719 Z M 19.46875 20.171875 L 20.886719 20.171875 L 20.886719 23 L 19.46875 23 Z M 32.1875 20.171875 L 33.597656 20.171875 L 33.597656 23 L 32.1875 23 Z M 13.113281 25.824219 C 12.722656 25.824219 12.40625 26.140625 12.40625 26.53125 L 12.40625 30.769531 C 12.40625 31.160156 12.722656 31.472656 13.113281 31.472656 L 15.9375 31.472656 C 16.328125 31.472656 16.644531 31.160156 16.644531 30.769531 L 16.644531 26.53125 C 16.644531 26.140625 16.328125 25.824219 15.9375 25.824219 Z M 18.765625 25.824219 C 18.375 25.824219 18.058594 26.140625 18.058594 26.53125 L 18.058594 30.769531 C 18.058594 31.160156 18.375 31.472656 18.765625 31.472656 L 21.589844 31.472656 C 21.980469 31.472656 22.296875 31.160156 22.296875 30.769531 L 22.296875 26.53125 C 22.296875 26.140625 21.980469 25.824219 21.589844 25.824219 Z M 25.472656 25.824219 C 25.28125 25.824219 25.121094 25.984375 25.121094 26.175781 L 25.121094 31.125 C 25.121094 31.316406 25.28125 31.472656 25.472656 31.472656 L 26.183594 31.472656 C 26.378906 31.472656 26.535156 31.316406 26.535156 31.125 L 26.535156 26.175781 C 26.535156 25.984375 26.378906 25.824219 26.183594 25.824219 Z M 28.300781 25.824219 C 28.105469 25.824219 27.949219 25.984375 27.949219 26.175781 L 27.949219 31.125 C 27.949219 31.316406 28.105469 31.472656 28.300781 31.472656 L 29.003906 31.472656 C 29.203125 31.472656 29.359375 31.316406 29.359375 31.125 L 29.359375 26.175781 C 29.359375 25.984375 29.203125 25.824219 29.003906 25.824219 Z M 31.480469 25.824219 C 31.089844 25.824219 30.777344 26.140625 30.777344 26.53125 L 30.777344 30.769531 C 30.777344 31.160156 31.089844 31.472656 31.480469 31.472656 L 34.308594 31.472656 C 34.699219 31.472656 35.011719 31.160156 35.011719 30.769531 L 35.011719 26.53125 C 35.011719 26.140625 34.699219 25.824219 34.308594 25.824219 Z M 13.816406 27.238281 L 15.234375 27.238281 L 15.234375 30.0625 L 13.816406 30.0625 Z M 19.46875 27.238281 L 20.886719 27.238281 L 20.886719 30.0625 L 19.46875 30.0625 Z M 32.1875 27.238281 L 33.597656 27.238281 L 33.597656 30.0625 L 32.1875 30.0625 Z M 13.113281 34.300781 C 12.722656 34.300781 12.40625 34.613281 12.40625 35.011719 L 12.40625 39.246094 C 12.40625 39.640625 12.722656 39.953125 13.113281 39.953125 L 15.9375 39.953125 C 16.328125 39.953125 16.644531 39.640625 16.644531 39.246094 L 16.644531 35.011719 C 16.644531 34.613281 16.328125 34.300781 15.9375 34.300781 Z M 19.824219 34.300781 C 19.628906 34.300781 19.46875 34.457031 19.46875 34.65625 L 19.46875 39.597656 C 19.46875 39.796875 19.628906 39.953125 19.824219 39.953125 L 20.53125 39.953125 C 20.730469 39.953125 20.886719 39.796875 20.886719 39.597656 L 20.886719 34.65625 C 20.886719 34.457031 20.730469 34.300781 20.53125 34.300781 Z M 22.652344 34.300781 C 22.453125 34.300781 22.296875 34.457031 22.296875 34.65625 L 22.296875 39.597656 C 22.296875 39.796875 22.453125 39.953125 22.652344 39.953125 L 23.355469 39.953125 C 23.550781 39.953125 23.707031 39.796875 23.707031 39.597656 L 23.707031 34.65625 C 23.707031 34.457031 23.550781 34.300781 23.355469 34.300781 Z M 25.828125 34.300781 C 25.4375 34.300781 25.121094 34.613281 25.121094 35.011719 L 25.121094 39.246094 C 25.121094 39.640625 25.4375 39.953125 25.828125 39.953125 L 28.65625 39.953125 C 29.046875 39.953125 29.359375 39.640625 29.359375 39.246094 L 29.359375 35.011719 C 29.359375 34.613281 29.046875 34.300781 28.65625 34.300781 Z M 32.542969 34.300781 C 32.34375 34.300781 32.1875 34.457031 32.1875 34.65625 L 32.1875 39.597656 C 32.1875 39.796875 32.34375 39.953125 32.542969 39.953125 L 33.246094 39.953125 C 33.441406 39.953125 33.597656 39.796875 33.597656 39.597656 L 33.597656 34.65625 C 33.597656 34.457031 33.441406 34.300781 33.246094 34.300781 Z M 13.816406 35.714844 L 15.234375 35.714844 L 15.234375 38.542969 L 13.816406 38.542969 Z M 26.535156 35.714844 L 27.949219 35.714844 L 27.949219 38.542969 L 26.535156 38.542969 Z M 26.535156 35.714844 "/>
</g>
</svg>
