<?xml version="1.0" encoding="UTF-8"?>
<svg xmlns="http://www.w3.org/2000/svg" xmlns:xlink="http://www.w3.org/1999/xlink" width="48pt" height="48pt" viewBox="0 0 48 48" version="1.1">
<g id="surface1">
<path style=" stroke:none;fill-rule:evenodd;fill:rgb(11.764706%,53.333333%,89.803922%);fill-opacity:1;" d="M 31.78125 3 L 11.300781 3 C 6.703125 3 3 6.703125 3 11.300781 L 3 36.699219 C 3 41.296875 6.703125 45 11.300781 45 L 36.699219 45 C 41.296875 45 45 41.296875 45 36.699219 L 45 16.21875 Z M 31.78125 3 "/>
<path style=" stroke:none;fill-rule:evenodd;fill:rgb(21.960784%,43.529412%,66.27451%);fill-opacity:1;" d="M 45 16.21875 L 31.78125 3 L 31.78125 7.917969 C 31.78125 12.515625 35.484375 16.21875 40.082031 16.21875 Z M 45 16.21875 "/>
<path style=" stroke:none;fill-rule:nonzero;fill:rgb(65.882353%,81.568627%,99.607843%);fill-opacity:1;" d="M 18.75 18.425781 C 16.675781 18.425781 15 20.105469 15 22.175781 C 15 24.246094 16.675781 25.925781 18.75 25.925781 C 20.824219 25.925781 22.5 24.246094 22.5 22.175781 C 22.5 20.105469 20.824219 18.425781 18.75 18.425781 Z M 29.25 18.425781 C 27.175781 18.425781 25.5 20.105469 25.5 22.175781 C 25.5 24.246094 27.175781 25.925781 29.25 25.925781 C 31.324219 25.925781 33 24.246094 33 22.175781 C 33 20.105469 31.324219 18.425781 29.25 18.425781 Z M 18 20.675781 C 18.828125 20.675781 19.5 21.347656 19.5 22.175781 C 19.5 23.003906 18.828125 23.675781 18 23.675781 C 17.171875 23.675781 16.5 23.003906 16.5 22.175781 C 16.5 21.347656 17.171875 20.675781 18 20.675781 Z M 28.5 20.675781 C 29.328125 20.675781 30 21.347656 30 22.175781 C 30 23.003906 29.328125 23.675781 28.5 23.675781 C 27.671875 23.675781 27 23.003906 27 22.175781 C 27 21.347656 27.671875 20.675781 28.5 20.675781 Z M 23.949219 25.925781 C 23.566406 25.9375 23.203125 26.035156 22.875 26.230469 C 22.175781 26.628906 21.75 27.371094 21.75 28.175781 L 26.25 28.175781 C 26.25 27.371094 25.824219 26.628906 25.125 26.230469 C 24.765625 26.019531 24.359375 25.917969 23.949219 25.925781 Z M 26.25 28.175781 C 26.25 28.980469 25.824219 29.722656 25.125 30.125 C 24.425781 30.527344 23.574219 30.527344 22.875 30.125 C 22.175781 29.722656 21.75 28.980469 21.75 28.175781 L 20.25 28.175781 C 19.003906 28.175781 18 29.175781 18 30.425781 C 18 31.671875 19.003906 32.675781 20.25 32.675781 L 21 32.675781 L 21 34.175781 C 21 35.003906 21.667969 35.675781 22.5 35.675781 C 23.332031 35.675781 24 35.003906 24 34.175781 C 24 35.003906 24.667969 35.675781 25.5 35.675781 C 26.332031 35.675781 27 35.003906 27 34.175781 L 27 32.675781 L 27.75 32.675781 C 28.996094 32.675781 30 31.671875 30 30.425781 C 30 29.175781 28.996094 28.175781 27.75 28.175781 Z M 26.25 28.175781 "/>
</g>
</svg>
