<?xml version="1.0" encoding="UTF-8"?>
<svg xmlns="http://www.w3.org/2000/svg" xmlns:xlink="http://www.w3.org/1999/xlink" width="48pt" height="48pt" viewBox="0 0 48 48" version="1.1">
<g id="surface1">
<path style=" stroke:none;fill-rule:evenodd;fill:rgb(56.078431%,27.45098%,68.235294%);fill-opacity:1;" d="M 31.78125 3 L 11.300781 3 C 6.703125 3 3 6.703125 3 11.300781 L 3 36.699219 C 3 41.296875 6.703125 45 11.300781 45 L 36.699219 45 C 41.296875 45 45 41.296875 45 36.699219 L 45 16.21875 Z M 31.78125 3 "/>
<path style=" stroke:none;fill-rule:evenodd;fill:rgb(89.411765%,82.745098%,90.588235%);fill-opacity:1;" d="M 45 16.21875 L 31.78125 3 L 31.78125 7.917969 C 31.78125 12.515625 35.484375 16.21875 40.082031 16.21875 Z M 45 16.21875 "/>
<path style=" stroke:none;fill-rule:nonzero;fill:rgb(89.411765%,82.745098%,90.588235%);fill-opacity:1;" d="M 15 16.433594 L 15 17.933594 L 33 17.933594 L 33 16.433594 Z M 21.402344 19.433594 L 21.425781 20.160156 L 26.574219 26.933594 L 21 33.597656 L 21 34.433594 L 33 34.433594 L 33 30.265625 L 32.140625 30.265625 C 32.140625 31.097656 32.371094 31.621094 31.636719 32.113281 C 30.832031 32.660156 29.78125 32.765625 28.847656 32.765625 L 24.433594 32.765625 L 28.714844 26.933594 L 24.433594 20.265625 L 26.949219 20.265625 C 28.734375 20.265625 31.28125 20.105469 31.984375 22.191406 C 32.105469 22.550781 32.113281 23.222656 32.140625 23.597656 L 33 23.597656 L 33 19.433594 Z M 15 20.933594 L 15 22.433594 L 21 22.433594 L 21 20.933594 Z M 15 23.933594 L 15 25.433594 L 22.5 25.433594 L 22.5 23.933594 Z M 15 28.433594 L 15 29.933594 L 22.5 29.933594 L 22.5 28.433594 Z M 15 31.433594 L 15 32.933594 L 21 32.933594 L 21 31.433594 Z M 15 31.433594 "/>
</g>
</svg>
