<?xml version="1.0" encoding="UTF-8"?>
<svg xmlns="http://www.w3.org/2000/svg" xmlns:xlink="http://www.w3.org/1999/xlink" width="48pt" height="48pt" viewBox="0 0 48 48" version="1.1">
<g id="surface1">
<path style=" stroke:none;fill-rule:evenodd;fill:rgb(80%,80%,80%);fill-opacity:1;" d="M 31.78125 3 L 11.300781 3 C 6.703125 3 3 6.703125 3 11.300781 L 3 36.699219 C 3 41.296875 6.703125 45 11.300781 45 L 36.699219 45 C 41.296875 45 45 41.296875 45 36.699219 L 45 16.21875 Z M 31.78125 3 "/>
<path style=" stroke:none;fill-rule:evenodd;fill:rgb(60%,60%,60%);fill-opacity:1;" d="M 45 16.21875 L 31.78125 3 L 31.78125 7.917969 C 31.78125 12.515625 35.484375 16.21875 40.082031 16.21875 Z M 45 16.21875 "/>
<path style=" stroke:none;fill-rule:nonzero;fill:rgb(60%,60%,60%);fill-opacity:1;" d="M 14.839844 15.453125 L 14.839844 37.65625 L 24.933594 37.65625 L 24.933594 15.453125 Z M 16.855469 17.46875 L 18.875 17.46875 L 18.875 35.640625 L 16.855469 35.640625 Z M 20.890625 17.46875 L 22.910156 17.46875 L 22.910156 35.640625 L 20.890625 35.640625 Z M 26.949219 17.46875 L 26.949219 35.640625 L 28.96875 35.640625 L 28.96875 17.46875 Z M 30.984375 17.46875 L 30.984375 35.640625 L 33.003906 35.640625 L 33.003906 17.46875 Z M 30.984375 17.46875 "/>
</g>
</svg>
