<?xml version="1.0" encoding="UTF-8"?>
<svg xmlns="http://www.w3.org/2000/svg" xmlns:xlink="http://www.w3.org/1999/xlink" width="48pt" height="48pt" viewBox="0 0 48 48" version="1.1">
<g id="surface1">
<path style=" stroke:none;fill-rule:evenodd;fill:rgb(95.686275%,61.568627%,7.843137%);fill-opacity:1;" d="M 31.78125 3 L 11.300781 3 C 6.703125 3 3 6.703125 3 11.300781 L 3 36.699219 C 3 41.296875 6.703125 45 11.300781 45 L 36.699219 45 C 41.296875 45 45 41.296875 45 36.699219 L 45 16.21875 Z M 31.78125 3 "/>
<path style=" stroke:none;fill-rule:evenodd;fill:rgb(99.215686%,88.627451%,65.098039%);fill-opacity:1;" d="M 45 16.21875 L 31.78125 3 L 31.78125 7.917969 C 31.78125 12.515625 35.484375 16.21875 40.082031 16.21875 Z M 45 16.21875 "/>
<path style=" stroke:none;fill-rule:nonzero;fill:rgb(99.215686%,90.980392%,72.54902%);fill-opacity:1;" d="M 21 16.609375 C 18.921875 16.609375 17.25 18.285156 17.25 20.359375 C 17.25 22.4375 18.921875 24.109375 21 24.109375 C 23.078125 24.109375 24.75 22.4375 24.75 20.359375 C 24.75 18.285156 23.078125 16.609375 21 16.609375 M 21 18.109375 C 22.246094 18.109375 23.25 19.113281 23.25 20.359375 C 23.25 21.609375 22.246094 22.609375 21 22.609375 C 19.753906 22.609375 18.75 21.609375 18.75 20.359375 C 18.75 19.113281 19.753906 18.109375 21 18.109375 M 29.25 19.609375 C 27.589844 19.609375 26.25 20.949219 26.25 22.609375 C 26.25 24.277344 27.589844 25.609375 29.25 25.609375 C 30.910156 25.609375 32.25 24.277344 32.25 22.609375 C 32.25 20.949219 30.910156 19.609375 29.25 19.609375 M 29.25 21.109375 C 30.082031 21.109375 30.75 21.78125 30.75 22.609375 C 30.75 23.441406 30.082031 24.109375 29.25 24.109375 C 28.421875 24.109375 27.75 23.441406 27.75 22.609375 C 27.75 21.78125 28.421875 21.109375 29.25 21.109375 M 21 25.609375 C 17.261719 25.609375 14.25 28.625 14.25 32.359375 L 14.25 34.609375 L 27.75 34.609375 L 27.75 32.359375 C 27.75 28.625 24.734375 25.609375 21 25.609375 M 21 27.109375 C 23.910156 27.109375 26.25 29.453125 26.25 32.359375 L 26.25 33.109375 L 15.75 33.109375 L 15.75 32.359375 C 15.75 29.453125 18.09375 27.109375 21 27.109375 M 29.25 27.109375 C 28.417969 27.109375 27.652344 27.355469 26.984375 27.738281 C 27.347656 28.097656 27.683594 28.484375 27.96875 28.90625 C 28.355469 28.722656 28.785156 28.609375 29.25 28.609375 C 30.910156 28.609375 32.25 29.949219 32.25 31.609375 L 29.097656 31.609375 C 29.199219 32.097656 29.25 32.597656 29.25 33.109375 L 33.75 33.109375 L 33.75 31.609375 C 33.75 29.121094 31.746094 27.109375 29.25 27.109375 "/>
</g>
</svg>
