<?xml version="1.0" encoding="UTF-8"?>
<svg xmlns="http://www.w3.org/2000/svg" xmlns:xlink="http://www.w3.org/1999/xlink" width="48pt" height="48pt" viewBox="0 0 48 48" version="1.1">
<g id="surface1">
<path style=" stroke:none;fill-rule:evenodd;fill:rgb(16.470588%,76.078431%,50.588235%);fill-opacity:1;" d="M 31.78125 3 L 11.300781 3 C 6.703125 3 3 6.703125 3 11.300781 L 3 36.699219 C 3 41.296875 6.703125 45 11.300781 45 L 36.699219 45 C 41.296875 45 45 41.296875 45 36.699219 L 45 16.21875 Z M 31.78125 3 "/>
<path style=" stroke:none;fill-rule:evenodd;fill:rgb(1.176471%,41.960784%,32.54902%);fill-opacity:1;" d="M 45 16.21875 L 31.78125 3 L 31.78125 7.917969 C 31.78125 12.515625 35.484375 16.21875 40.082031 16.21875 Z M 45 16.21875 "/>
<path style=" stroke:none;fill-rule:nonzero;fill:rgb(1.176471%,41.960784%,32.54902%);fill-opacity:1;" d="M 15 16.792969 L 15 34.792969 L 25.5 34.792969 L 25.5 33.292969 L 21 33.292969 L 21 28.792969 L 25.5 28.792969 L 25.5 27.292969 L 21 27.292969 L 21 22.792969 L 27 22.792969 L 27 25.792969 L 28.5 25.792969 L 28.5 22.792969 L 31.5 22.792969 L 31.5 25.792969 L 33 25.792969 L 33 16.792969 Z M 16.5 18.292969 L 31.5 18.292969 L 31.5 21.292969 L 16.5 21.292969 Z M 16.5 22.792969 L 19.5 22.792969 L 19.5 27.292969 L 16.5 27.292969 Z M 29.25 27.292969 C 28.003906 27.292969 27 28.25 27 29.4375 C 27 30.578125 27.933594 31.5 29.121094 31.566406 C 29.203125 31.957031 29.25 32.359375 29.25 32.761719 C 29.246094 33.453125 29.113281 34.140625 28.863281 34.792969 C 30.511719 33.6875 31.496094 31.890625 31.5 29.972656 L 31.5 29.4375 C 31.5 28.25 30.496094 27.292969 29.25 27.292969 M 16.5 28.792969 L 19.5 28.792969 L 19.5 33.292969 L 16.5 33.292969 Z M 16.5 28.792969 "/>
</g>
</svg>
