<?xml version="1.0" encoding="UTF-8"?>
<svg xmlns="http://www.w3.org/2000/svg" xmlns:xlink="http://www.w3.org/1999/xlink" width="48pt" height="48pt" viewBox="0 0 48 48" version="1.1">
<g id="surface1">
<path style=" stroke:none;fill-rule:evenodd;fill:rgb(37.647059%,49.019608%,54.509804%);fill-opacity:1;" d="M 31.78125 3 L 11.300781 3 C 6.703125 3 3 6.703125 3 11.300781 L 3 36.699219 C 3 41.296875 6.703125 45 11.300781 45 L 36.699219 45 C 41.296875 45 45 41.296875 45 36.699219 L 45 16.21875 Z M 31.78125 3 "/>
<path style=" stroke:none;fill-rule:evenodd;fill:rgb(21.960784%,31.372549%,40.392157%);fill-opacity:1;" d="M 45 16.21875 L 31.78125 3 L 31.78125 7.917969 C 31.78125 12.515625 35.484375 16.21875 40.082031 16.21875 Z M 45 16.21875 "/>
<path style=" stroke:none;fill-rule:evenodd;fill:rgb(61.176471%,74.509804%,79.215686%);fill-opacity:1;" d="M 19.84375 17.300781 C 19.8125 17.296875 19.785156 17.300781 19.761719 17.300781 C 19.675781 17.308594 19.597656 17.324219 19.519531 17.347656 C 19.519531 17.347656 18.957031 17.535156 18.308594 17.878906 C 17.65625 18.222656 16.863281 18.703125 16.355469 19.53125 C 15.785156 20.449219 16.003906 21.433594 16.183594 22.019531 C 16.355469 22.605469 16.453125 22.863281 16.292969 23.253906 C 16.214844 23.449219 15.722656 23.871094 15.191406 24.128906 C 14.65625 24.390625 14.171875 24.53125 14.171875 24.53125 C 13.941406 24.589844 13.746094 24.738281 13.621094 24.949219 C 13.5 25.15625 13.46875 25.40625 13.53125 25.636719 C 13.417969 26.109375 13.703125 26.589844 14.171875 26.714844 C 14.171875 26.714844 14.65625 26.855469 15.191406 27.113281 C 15.722656 27.375 16.214844 27.796875 16.292969 27.988281 C 16.453125 28.386719 16.355469 28.640625 16.183594 29.230469 C 16.003906 29.816406 15.785156 30.796875 16.355469 31.71875 C 16.863281 32.542969 17.65625 33.027344 18.308594 33.363281 C 18.957031 33.707031 19.519531 33.894531 19.519531 33.894531 C 19.828125 34.015625 20.175781 33.953125 20.425781 33.734375 C 20.675781 33.519531 20.785156 33.183594 20.71875 32.859375 C 20.644531 32.535156 20.40625 32.28125 20.089844 32.1875 C 20.089844 32.1875 19.660156 32.046875 19.144531 31.777344 C 18.628906 31.503906 18.078125 31.082031 17.886719 30.769531 C 17.667969 30.410156 17.734375 30.292969 17.902344 29.746094 C 18.0625 29.199219 18.359375 28.292969 17.949219 27.300781 C 17.589844 26.421875 16.859375 25.957031 16.214844 25.625 C 16.859375 25.285156 17.589844 24.824219 17.949219 23.949219 C 18.359375 22.953125 18.0625 22.046875 17.902344 21.5 C 17.734375 20.957031 17.667969 20.832031 17.886719 20.472656 C 18.078125 20.160156 18.628906 19.738281 19.144531 19.46875 C 19.660156 19.199219 20.089844 19.058594 20.089844 19.058594 C 20.503906 18.921875 20.765625 18.511719 20.703125 18.078125 C 20.644531 17.640625 20.28125 17.3125 19.84375 17.300781 Z M 28.152344 17.300781 C 27.714844 17.316406 27.355469 17.644531 27.292969 18.078125 C 27.234375 18.511719 27.496094 18.925781 27.910156 19.058594 C 27.910156 19.058594 28.339844 19.199219 28.855469 19.46875 C 29.371094 19.738281 29.921875 20.160156 30.113281 20.480469 C 30.332031 20.832031 30.265625 20.957031 30.097656 21.5 C 29.9375 22.046875 29.640625 22.953125 30.050781 23.949219 C 30.410156 24.824219 31.140625 25.285156 31.785156 25.625 C 31.140625 25.957031 30.410156 26.421875 30.050781 27.300781 C 29.640625 28.292969 29.9375 29.199219 30.097656 29.746094 C 30.265625 30.292969 30.332031 30.410156 30.113281 30.769531 C 29.921875 31.082031 29.371094 31.503906 28.855469 31.777344 C 28.339844 32.046875 27.910156 32.191406 27.910156 32.191406 C 27.59375 32.28125 27.355469 32.535156 27.28125 32.859375 C 27.214844 33.183594 27.324219 33.519531 27.574219 33.734375 C 27.824219 33.953125 28.171875 34.015625 28.480469 33.894531 C 28.480469 33.894531 29.042969 33.707031 29.691406 33.363281 C 30.34375 33.027344 31.136719 32.542969 31.644531 31.71875 C 32.214844 30.796875 31.996094 29.816406 31.816406 29.230469 C 31.644531 28.640625 31.546875 28.386719 31.707031 27.988281 C 31.785156 27.796875 32.277344 27.375 32.808594 27.113281 C 33.34375 26.855469 33.828125 26.714844 33.828125 26.714844 C 34.296875 26.589844 34.582031 26.109375 34.46875 25.636719 C 34.53125 25.40625 34.5 25.15625 34.378906 24.949219 C 34.253906 24.738281 34.058594 24.589844 33.828125 24.53125 C 33.828125 24.53125 33.34375 24.390625 32.808594 24.128906 C 32.277344 23.871094 31.785156 23.449219 31.707031 23.253906 C 31.546875 22.863281 31.644531 22.605469 31.816406 22.019531 C 31.996094 21.433594 32.214844 20.449219 31.644531 19.53125 C 31.136719 18.703125 30.34375 18.222656 29.691406 17.878906 C 29.042969 17.535156 28.480469 17.347656 28.480469 17.347656 C 28.402344 17.324219 28.324219 17.308594 28.238281 17.300781 C 28.214844 17.300781 28.183594 17.296875 28.15625 17.300781 C 28.15625 17.300781 28.152344 17.300781 28.152344 17.300781 Z M 24 20.921875 C 23 20.921875 22.1875 21.730469 22.1875 22.730469 C 22.1875 23.730469 23 24.542969 24 24.542969 C 25 24.542969 25.8125 23.730469 25.8125 22.730469 C 25.8125 21.730469 25 20.921875 24 20.921875 Z M 24 26.355469 C 23 26.355469 22.1875 27.160156 22.1875 28.160156 C 22.1875 29.160156 23 29.972656 24 29.972656 C 24.640625 29.972656 24.90625 31.78125 24.90625 31.78125 C 24.90625 31.78125 25.8125 28.519531 25.8125 28.160156 C 25.8125 27.160156 25 26.355469 24 26.355469 Z M 24 26.355469 "/>
</g>
</svg>
