<?xml version="1.0" encoding="UTF-8"?>
<svg xmlns="http://www.w3.org/2000/svg" xmlns:xlink="http://www.w3.org/1999/xlink" width="48pt" height="48pt" viewBox="0 0 48 48" version="1.1">
<g id="surface1">
<path style=" stroke:none;fill-rule:evenodd;fill:rgb(80%,80%,80%);fill-opacity:1;" d="M 31.78125 3 L 11.300781 3 C 6.703125 3 3 6.703125 3 11.300781 L 3 36.699219 C 3 41.296875 6.703125 45 11.300781 45 L 36.699219 45 C 41.296875 45 45 41.296875 45 36.699219 L 45 16.21875 Z M 31.78125 3 "/>
<path style=" stroke:none;fill-rule:evenodd;fill:rgb(60%,60%,60%);fill-opacity:1;" d="M 45 16.21875 L 31.78125 3 L 31.78125 7.917969 C 31.78125 12.515625 35.484375 16.21875 40.082031 16.21875 Z M 45 16.21875 "/>
<path style=" stroke:none;fill-rule:nonzero;fill:rgb(60%,60%,60%);fill-opacity:1;" d="M 24.265625 15.785156 C 19.84375 15.785156 17.628906 19.167969 17.628906 22.050781 L 21.613281 22.050781 C 21.675781 21.683594 21.613281 21.34375 21.613281 21.003906 C 21.613281 19.855469 22.800781 18.921875 24.265625 18.921875 C 25.730469 18.921875 26.921875 19.855469 26.921875 21.003906 C 26.917969 21.121094 26.90625 21.234375 26.878906 21.347656 C 26.875 21.375 26.875 21.394531 26.871094 21.421875 C 26.417969 23.394531 22.980469 25.59375 22.941406 28.707031 L 22.941406 29.359375 L 26.921875 29.359375 C 26.921875 27.402344 26.671875 26.621094 27.863281 25.667969 L 29.359375 24.464844 C 30.308594 23.722656 30.90625 22.675781 30.90625 21.53125 C 30.90625 18.644531 28.691406 15.792969 24.269531 15.792969 Z M 22.9375 31.441406 L 22.9375 34.578125 L 26.921875 34.578125 L 26.921875 31.441406 Z M 22.9375 31.441406 "/>
</g>
</svg>
