<?xml version="1.0" encoding="UTF-8"?>
<svg xmlns="http://www.w3.org/2000/svg" xmlns:xlink="http://www.w3.org/1999/xlink" width="48pt" height="48pt" viewBox="0 0 48 48" version="1.1">
<g id="surface1">
<path style=" stroke:none;fill-rule:evenodd;fill:rgb(56.470588%,27.843137%,68.235294%);fill-opacity:1;" d="M 31.78125 3 L 11.300781 3 C 6.703125 3 3 6.703125 3 11.300781 L 3 36.699219 C 3 41.296875 6.703125 45 11.300781 45 L 36.699219 45 C 41.296875 45 45 41.296875 45 36.699219 L 45 16.21875 Z M 31.78125 3 "/>
<path style=" stroke:none;fill-rule:evenodd;fill:rgb(87.45098%,80.392157%,88.627451%);fill-opacity:1;" d="M 45 16.21875 L 31.78125 3 L 31.78125 7.917969 C 31.78125 12.515625 35.484375 16.21875 40.082031 16.21875 Z M 45 16.21875 "/>
<path style=" stroke:none;fill-rule:nonzero;fill:rgb(87.45098%,80.392157%,88.627451%);fill-opacity:1;" d="M 24 16.609375 C 21.503906 16.609375 19.5 18.621094 19.5 21.109375 L 22.5 21.109375 L 22.5 22.609375 L 19.5 22.609375 L 19.5 25.609375 L 22.5 25.609375 L 22.5 27.109375 L 19.769531 27.109375 C 20.390625 28.859375 22.035156 30.109375 24 30.109375 C 25.964844 30.109375 27.609375 28.859375 28.230469 27.109375 L 25.5 27.109375 L 25.5 25.609375 L 28.5 25.609375 L 28.5 22.609375 L 25.5 22.609375 L 25.5 21.109375 L 28.5 21.109375 C 28.5 18.621094 26.496094 16.609375 24 16.609375 M 16.652344 27.109375 C 17.246094 30.058594 19.558594 32.355469 22.5 32.953125 L 22.5 33.109375 L 21 34.609375 L 27 34.609375 L 25.5 33.109375 L 25.5 32.953125 C 28.441406 32.355469 30.753906 30.058594 31.347656 27.109375 L 29.792969 27.109375 C 29.125 29.703125 26.800781 31.609375 24 31.609375 C 21.199219 31.609375 18.875 29.703125 18.207031 27.109375 Z M 16.652344 27.109375 "/>
</g>
</svg>
