<?xml version="1.0" encoding="UTF-8"?>
<svg xmlns="http://www.w3.org/2000/svg" xmlns:xlink="http://www.w3.org/1999/xlink" width="48pt" height="48pt" viewBox="0 0 48 48" version="1.1">
<g id="surface1">
<path style=" stroke:none;fill-rule:evenodd;fill:rgb(100%,34.117647%,13.333333%);fill-opacity:1;" d="M 31.78125 3 L 11.300781 3 C 6.703125 3 3 6.703125 3 11.300781 L 3 36.699219 C 3 41.296875 6.703125 45 11.300781 45 L 36.699219 45 C 41.296875 45 45 41.296875 45 36.699219 L 45 16.21875 Z M 31.78125 3 "/>
<path style=" stroke:none;fill-rule:evenodd;fill:rgb(82.352941%,28.235294%,10.980392%);fill-opacity:1;" d="M 45 16.21875 L 31.78125 3 L 31.78125 7.917969 C 31.78125 12.515625 35.484375 16.21875 40.082031 16.21875 Z M 45 16.21875 "/>
<path style=" stroke:none;fill-rule:nonzero;fill:rgb(100%,72.156863%,48.627451%);fill-opacity:1;" d="M 16.238281 21.277344 C 14.09375 21.277344 12.355469 23.015625 12.355469 25.15625 C 12.355469 27.300781 14.09375 29.035156 16.238281 29.035156 C 18.378906 29.035156 20.121094 27.300781 20.121094 25.15625 L 16.238281 25.15625 Z M 24 21.277344 L 24 23.214844 L 35.644531 23.214844 L 35.644531 21.277344 Z M 24 27.097656 L 24 29.035156 L 35.644531 29.035156 L 35.644531 27.097656 Z M 12.355469 32.921875 L 12.355469 34.859375 L 29.824219 34.859375 L 29.824219 32.921875 Z M 12.355469 32.921875 "/>
</g>
</svg>
