<?xml version="1.0" encoding="UTF-8"?>
<svg xmlns="http://www.w3.org/2000/svg" xmlns:xlink="http://www.w3.org/1999/xlink" width="48pt" height="48pt" viewBox="0 0 48 48" version="1.1">
<g id="surface1">
<path style=" stroke:none;fill-rule:evenodd;fill:rgb(29.411765%,68.235294%,30.980392%);fill-opacity:1;" d="M 31.78125 3 L 11.300781 3 C 6.703125 3 3 6.703125 3 11.300781 L 3 36.699219 C 3 41.296875 6.703125 45 11.300781 45 L 36.699219 45 C 41.296875 45 45 41.296875 45 36.699219 L 45 16.21875 Z M 31.78125 3 "/>
<path style=" stroke:none;fill-rule:evenodd;fill:rgb(24.313725%,56.078431%,25.490196%);fill-opacity:1;" d="M 45 16.21875 L 31.78125 3 L 31.78125 7.917969 C 31.78125 12.515625 35.484375 16.21875 40.082031 16.21875 Z M 45 16.21875 "/>
<path style=" stroke:none;fill-rule:nonzero;fill:rgb(60.784314%,90.980392%,59.215686%);fill-opacity:1;" d="M 12.761719 19.519531 L 12.761719 40.066406 L 35.363281 40.066406 L 35.363281 19.519531 Z M 14.816406 21.578125 L 23.035156 21.578125 L 23.035156 25.6875 L 14.816406 25.6875 Z M 25.089844 21.578125 L 33.308594 21.578125 L 33.308594 25.6875 L 25.089844 25.6875 Z M 14.816406 27.738281 L 23.035156 27.738281 L 23.035156 31.847656 L 14.816406 31.847656 Z M 25.089844 27.738281 L 33.308594 27.738281 L 33.308594 31.847656 L 25.089844 31.847656 Z M 14.816406 33.90625 L 23.035156 33.90625 L 23.035156 38.015625 L 14.816406 38.015625 Z M 25.089844 33.90625 L 33.308594 33.90625 L 33.308594 38.015625 L 25.089844 38.015625 Z M 25.089844 33.90625 "/>
</g>
</svg>
