<?xml version="1.0" encoding="UTF-8"?>
<svg xmlns="http://www.w3.org/2000/svg" xmlns:xlink="http://www.w3.org/1999/xlink" width="48pt" height="48pt" viewBox="0 0 48 48" version="1.1">
<g id="surface1">
<path style=" stroke:none;fill-rule:evenodd;fill:rgb(34.901961%,80%,58.039216%);fill-opacity:1;" d="M 31.78125 3 L 11.300781 3 C 6.703125 3 3 6.703125 3 11.300781 L 3 36.699219 C 3 41.296875 6.703125 45 11.300781 45 L 36.699219 45 C 41.296875 45 45 41.296875 45 36.699219 L 45 16.21875 Z M 31.78125 3 "/>
<path style=" stroke:none;fill-rule:evenodd;fill:rgb(21.960784%,58.823529%,47.45098%);fill-opacity:1;" d="M 45 16.21875 L 31.78125 3 L 31.78125 7.917969 C 31.78125 12.515625 35.484375 16.21875 40.082031 16.21875 Z M 45 16.21875 "/>
<path style=" stroke:none;fill-rule:nonzero;fill:rgb(21.960784%,58.823529%,47.45098%);fill-opacity:1;" d="M 15 16.792969 L 15 34.792969 L 33 34.792969 L 33 16.792969 L 30 16.792969 L 30 18.292969 L 27 18.292969 L 27 16.792969 L 21 16.792969 L 21 18.292969 L 18 18.292969 L 18 16.792969 Z M 16.5 21.292969 L 31.5 21.292969 L 31.5 33.292969 L 16.5 33.292969 Z M 18 22.792969 L 18 25.792969 L 21 25.792969 L 21 22.792969 Z M 22.5 22.792969 L 22.5 25.792969 L 25.5 25.792969 L 25.5 22.792969 Z M 27 22.792969 L 27 25.792969 L 30 25.792969 L 30 22.792969 Z M 22.5 27.292969 L 22.5 30.292969 L 25.5 30.292969 L 25.5 27.292969 Z M 27 27.292969 L 27 30.292969 L 30 30.292969 L 30 27.292969 Z M 27 27.292969 "/>
</g>
</svg>
