<?xml version="1.0" encoding="UTF-8" standalone="no"?>
<svg
   xmlns:dc="http://purl.org/dc/elements/1.1/"
   xmlns:cc="http://creativecommons.org/ns#"
   xmlns:rdf="http://www.w3.org/1999/02/22-rdf-syntax-ns#"
   xmlns:svg="http://www.w3.org/2000/svg"
   xmlns="http://www.w3.org/2000/svg"
   xmlns:sodipodi="http://sodipodi.sourceforge.net/DTD/sodipodi-0.dtd"
   xmlns:inkscape="http://www.inkscape.org/namespaces/inkscape"
   width="22"
   height="22"
   viewBox="0 0 22 22"
   version="1.1"
   id="svg7"
   sodipodi:docname="ksnapshot.svg"
   inkscape:version="0.92.1 r">
  <metadata
     id="metadata11">
    <rdf:RDF>
      <cc:Work
         rdf:about="">
        <dc:format>image/svg+xml</dc:format>
        <dc:type
           rdf:resource="http://purl.org/dc/dcmitype/StillImage" />
        <dc:title></dc:title>
      </cc:Work>
    </rdf:RDF>
  </metadata>
  <sodipodi:namedview
     pagecolor="#ffffff"
     bordercolor="#666666"
     borderopacity="1"
     objecttolerance="10"
     gridtolerance="10"
     guidetolerance="10"
     inkscape:pageopacity="0"
     inkscape:pageshadow="2"
     inkscape:window-width="1680"
     inkscape:window-height="964"
     id="namedview9"
     showgrid="false"
     inkscape:zoom="13"
     inkscape:cx="-18.230769"
     inkscape:cy="11"
     inkscape:current-layer="svg7"
     inkscape:window-x="0"
     inkscape:window-y="0"
     inkscape:window-maximized="1" />
  <defs
     id="defs3">
    <style
       type="text/css"
       id="current-color-scheme">
   .ColorScheme-Text { color:#5c616c; } .ColorScheme-Highlight { color:#5294e2; }
  </style>
  </defs>
  <path
     inkscape:connector-curvature="0"
     style="color:#5c616c;opacity:1;fill:#d3dae3;fill-opacity:1;stroke-width:0.69999999"
     class="ColorScheme-Text"
     d="m 8.0000002,5.0000003 -1,0.9999999 H 6.0000003 c -2.0000001,0 -2.0000001,1.9999996 -2.0000001,1.9999996 V 15 c 0,2 2.0000001,2 2.0000001,2 H 16 c 2,0 2,-2 2,-2 V 7.9999998 C 18,6.0000001 16,6.0000001 16,6.0000001 h -0.999999 l -1,-0.9999998 z M 11,7.9999998 c 1.656801,0 3.000001,1.3432 3.000001,3.0000002 0,1.6568 -1.3432,3 -3.000001,3 -1.6567998,0 -2.9999998,-1.3432 -2.9999998,-3 0,-1.6568002 1.3432,-3.0000002 2.9999998,-3.0000002 z"
     id="path5-3" />
</svg>
