<?xml version="1.0" encoding="UTF-8" standalone="no"?>
<svg
   xmlns:dc="http://purl.org/dc/elements/1.1/"
   xmlns:cc="http://creativecommons.org/ns#"
   xmlns:rdf="http://www.w3.org/1999/02/22-rdf-syntax-ns#"
   xmlns:svg="http://www.w3.org/2000/svg"
   xmlns="http://www.w3.org/2000/svg"
   xmlns:sodipodi="http://sodipodi.sourceforge.net/DTD/sodipodi-0.dtd"
   xmlns:inkscape="http://www.inkscape.org/namespaces/inkscape"
   width="22"
   height="22"
   version="1.1"
   viewBox="0 0 16 16"
   id="svg7"
   sodipodi:docname="input-tablet.svg"
   inkscape:version="0.92.1 r">
  <metadata
     id="metadata11">
    <rdf:RDF>
      <cc:Work
         rdf:about="">
        <dc:format>image/svg+xml</dc:format>
        <dc:type
           rdf:resource="http://purl.org/dc/dcmitype/StillImage" />
      </cc:Work>
    </rdf:RDF>
  </metadata>
  <sodipodi:namedview
     pagecolor="#ffffff"
     bordercolor="#666666"
     borderopacity="1"
     objecttolerance="10"
     gridtolerance="10"
     guidetolerance="10"
     inkscape:pageopacity="0"
     inkscape:pageshadow="2"
     inkscape:window-width="749"
     inkscape:window-height="480"
     id="namedview9"
     showgrid="false"
     inkscape:zoom="10.727273"
     inkscape:cx="11"
     inkscape:cy="11"
     inkscape:window-x="0"
     inkscape:window-y="0"
     inkscape:window-maximized="0"
     inkscape:current-layer="svg7" />
  <defs
     id="defs3">
    <style
       id="current-color-scheme"
       type="text/css">
   .ColorScheme-Text { color:#d3dae3; } .ColorScheme-Highlight { color:#5294e2; }
  </style>
  </defs>
  <path
     style="color:#d3dae3;fill:currentColor;stroke-width:0.7824356"
     class="ColorScheme-Text"
     d="m 2.4789805,2.9094636 c -0.4769727,-0.01557 -0.8053844,0.4596183 -0.7335334,0.9046911 0.00235,2.8666798 -0.00861,5.7402768 0,8.6067913 0.032315,0.463914 0.5276355,0.724958 0.9535935,0.66018 3.1175208,-0.0023 6.2229605,0.0089 9.3403244,0 0.463914,-0.03231 0.724958,-0.527635 0.66018,-0.953593 6.2e-5,-1.540428 -2.35e-4,-3.0808245 0,-4.6212603 l -1.564871,1.5648708 c -0.0023,0.812019 0,1.6259255 0,2.4451115 H 3.3103184 V 4.4743348 h 7.8243556 c 3.13e-4,0.032941 -2.97e-4,0.064864 0,0.097804 l 1.222555,-1.2225552 c 0.05493,-0.054927 0.109925,-0.1026243 0.171158,-0.1467066 -0.111294,-0.1569096 -0.287772,-0.2934134 -0.611278,-0.2934134 -1.35215,7.9e-6 -4.3940791,6.26e-5 -9.4381285,0 z M 13.48198,3.6918992 c -0.216734,0 -0.42095,0.078635 -0.562375,0.22006 L 8.224992,8.6065725 c -0.1414252,0.141426 -0.22006,0.345641 -0.22006,0.562376 v 0.782435 h 0.7824354 c 0.2167347,0 0.4209503,-0.07864 0.5623756,-0.22006 l 4.694613,-4.6946131 c 0.141425,-0.1414253 0.22006,-0.345641 0.22006,-0.5623756 0,-0.4334694 -0.348966,-0.7824356 -0.782436,-0.7824356 z"
     id="path5"
     inkscape:connector-curvature="0" />
</svg>
