<?xml version="1.0" encoding="UTF-8" standalone="no"?>
<svg
   xmlns:dc="http://purl.org/dc/elements/1.1/"
   xmlns:cc="http://creativecommons.org/ns#"
   xmlns:rdf="http://www.w3.org/1999/02/22-rdf-syntax-ns#"
   xmlns:svg="http://www.w3.org/2000/svg"
   xmlns="http://www.w3.org/2000/svg"
   xmlns:sodipodi="http://sodipodi.sourceforge.net/DTD/sodipodi-0.dtd"
   xmlns:inkscape="http://www.inkscape.org/namespaces/inkscape"
   height="32"
   width="32"
   viewBox="0 0 32 32"
   version="1.1"
   id="svg8"
   sodipodi:docname="emblem-shared.svg"
   inkscape:version="0.92.1 r">
  <metadata
     id="metadata14">
    <rdf:RDF>
      <cc:Work
         rdf:about="">
        <dc:format>image/svg+xml</dc:format>
        <dc:type
           rdf:resource="http://purl.org/dc/dcmitype/StillImage" />
      </cc:Work>
    </rdf:RDF>
  </metadata>
  <defs
     id="defs12" />
  <sodipodi:namedview
     pagecolor="#ffffff"
     bordercolor="#666666"
     borderopacity="1"
     objecttolerance="10"
     gridtolerance="10"
     guidetolerance="10"
     inkscape:pageopacity="0"
     inkscape:pageshadow="2"
     inkscape:window-width="640"
     inkscape:window-height="480"
     id="namedview10"
     showgrid="false"
     inkscape:zoom="8.8125"
     inkscape:cx="-5.6737589"
     inkscape:cy="16"
     inkscape:current-layer="svg8" />
  <rect
     style="opacity:1;fill:#252a35;fill-opacity:1;fill-rule:evenodd;stroke:none;stroke-width:1.03534329;stroke-linecap:round;stroke-linejoin:bevel;stroke-miterlimit:4;stroke-dasharray:none;stroke-dashoffset:0;stroke-opacity:1"
     id="rect4497-3"
     width="28.203388"
     height="28.203388"
     x="1.8983059"
     y="1.8983059"
     ry="5.575182" />
  <g
     style="fill:#ffffff;enable-background:new"
     transform="translate(-615.99995,-520)"
     id="g6">
    <path
       style="fill:#ffffff"
       d="m 636,528 c -1.6568,0 -3,1.3432 -3,3 0,0.23127 0.0442,0.44001 0.0937,0.65625 l -3.2188,2 C 629.36149,533.24498 628.709,533 627.9999,533 c -1.6568,0 -3,1.3432 -3,3 0,1.6568 1.3432,3 3,3 0.70904,0 1.3615,-0.24498 1.875,-0.65625 l 3.2188,2 C 633.0442,540.55999 633,540.76873 633,541 c 0,1.6568 1.3432,3 3,3 1.6568,0 3,-1.3432 3,-3 0,-1.6568 -1.3432,-3 -3,-3 -0.70904,0 -1.3615,0.24498 -1.875,0.65625 l -3.2188,-2 c 0.0495,-0.21624 0.0937,-0.42498 0.0937,-0.65625 0,-0.23127 -0.0442,-0.44001 -0.0937,-0.65625 l 3.2188,-2 C 634.63841,533.75502 635.2909,534 636,534 c 1.6568,0 3,-1.3432 3,-3 0,-1.6568 -1.3432,-3 -3,-3 z"
       id="path4"
       inkscape:connector-curvature="0" />
  </g>
</svg>
