<?xml version="1.0" encoding="UTF-8"?>
<svg xmlns="http://www.w3.org/2000/svg" xmlns:xlink="http://www.w3.org/1999/xlink" width="16pt" height="16pt" viewBox="0 0 16 16" version="1.1">
<g id="surface1">
<path style=" stroke:none;fill-rule:evenodd;fill:rgb(75.294118%,21.176471%,18.823529%);fill-opacity:1;" d="M 10.59375 1 L 3.769531 1 C 2.234375 1 1 2.234375 1 3.765625 L 1 12.230469 C 1 13.765625 2.234375 15 3.769531 15 L 12.234375 15 C 13.765625 15 15 13.765625 15 12.230469 L 15 5.40625 Z M 10.59375 1 "/>
<path style=" stroke:none;fill-rule:evenodd;fill:rgb(59.215686%,12.156863%,12.156863%);fill-opacity:1;" d="M 15 5.40625 L 10.59375 1 L 10.59375 2.640625 C 10.59375 4.171875 11.828125 5.40625 13.359375 5.40625 Z M 15 5.40625 "/>
<path style=" stroke:none;fill-rule:nonzero;fill:rgb(100%,100%,100%);fill-opacity:1;" d="M 7.886719 4.492188 C 7.695312 4.492188 7.515625 4.585938 7.472656 4.742188 C 7.3125 5.335938 7.492188 6.257812 7.792969 7.402344 L 7.703125 7.625 C 7.472656 8.1875 7.183594 8.746094 6.929688 9.246094 C 5.882812 11.292969 5.070312 12.398438 4.527344 12.476562 L 4.523438 12.453125 C 4.511719 12.199219 4.984375 11.539062 5.621094 11.015625 C 5.6875 10.960938 5.972656 10.6875 5.972656 10.6875 C 5.972656 10.6875 5.589844 10.890625 5.503906 10.941406 C 4.703125 11.417969 4.304688 11.898438 4.238281 12.214844 C 4.21875 12.3125 4.230469 12.425781 4.316406 12.472656 L 4.519531 12.578125 C 5.078125 12.855469 5.761719 12.121094 6.675781 10.527344 C 7.601562 10.222656 8.757812 9.933594 9.8125 9.78125 C 10.753906 10.320312 11.835938 10.574219 12.253906 10.464844 C 12.332031 10.441406 12.414062 10.382812 12.457031 10.324219 C 12.492188 10.269531 12.539062 10.0625 12.539062 10.0625 C 12.539062 10.0625 12.460938 10.167969 12.394531 10.199219 C 12.132812 10.324219 11.300781 10.117188 10.449219 9.699219 C 11.1875 9.621094 11.800781 9.617188 12.128906 9.722656 C 12.542969 9.855469 12.546875 9.992188 12.539062 10.019531 C 12.546875 9.996094 12.5625 9.90625 12.5625 9.867188 C 12.550781 9.765625 12.519531 9.675781 12.445312 9.601562 C 12.292969 9.449219 11.910156 9.375 11.390625 9.367188 C 11 9.363281 10.53125 9.398438 10.023438 9.46875 C 9.789062 9.335938 9.542969 9.1875 9.347656 9.007812 C 8.851562 8.542969 8.4375 7.902344 8.179688 7.183594 C 8.199219 7.117188 8.214844 7.046875 8.230469 6.980469 C 8.300781 6.65625 8.355469 5.59375 8.355469 5.59375 C 8.355469 5.59375 8.148438 6.394531 8.117188 6.515625 C 8.097656 6.589844 8.070312 6.671875 8.042969 6.757812 C 7.886719 6.207031 7.808594 5.675781 7.808594 5.273438 C 7.808594 5.160156 7.816406 4.9375 7.847656 4.761719 C 7.863281 4.636719 7.910156 4.570312 7.957031 4.539062 C 8.050781 4.5625 8.15625 4.703125 8.261719 4.945312 C 8.355469 5.148438 8.351562 5.390625 8.351562 5.539062 C 8.351562 5.539062 8.449219 5.171875 8.429688 4.953125 C 8.414062 4.824219 8.289062 4.488281 8.027344 4.492188 Z M 7.976562 7.816406 C 8.25 8.363281 8.625 8.882812 9.117188 9.300781 C 9.226562 9.394531 9.34375 9.480469 9.464844 9.5625 C 8.570312 9.730469 7.632812 9.964844 6.757812 10.328125 C 6.917969 10.050781 7.085938 9.742188 7.261719 9.414062 C 7.601562 8.773438 7.804688 8.28125 7.976562 7.816406 Z M 7.976562 7.816406 "/>
</g>
</svg>
