<?xml version="1.0" encoding="UTF-8"?>
<svg xmlns="http://www.w3.org/2000/svg" xmlns:xlink="http://www.w3.org/1999/xlink" width="16pt" height="16pt" viewBox="0 0 16 16" version="1.1">
<g id="surface1">
<path style=" stroke:none;fill-rule:evenodd;fill:rgb(80%,80%,80%);fill-opacity:1;" d="M 10.59375 1 L 3.769531 1 C 2.234375 1 1 2.234375 1 3.765625 L 1 12.230469 C 1 13.765625 2.234375 15 3.769531 15 L 12.234375 15 C 13.765625 15 15 13.765625 15 12.230469 L 15 5.40625 Z M 10.59375 1 "/>
<path style=" stroke:none;fill-rule:evenodd;fill:rgb(60%,60%,60%);fill-opacity:1;" d="M 15 5.40625 L 10.59375 1 L 10.59375 2.640625 C 10.59375 4.171875 11.828125 5.40625 13.359375 5.40625 Z M 15 5.40625 "/>
<path style=" stroke:none;fill-rule:nonzero;fill:rgb(60%,60%,60%);fill-opacity:1;" d="M 7.421875 6.0625 C 7.039062 6.0625 7 6.5625 7 6.5625 L 5.886719 6.5625 C 5.886719 6.5625 5.5 6.480469 5.5 6.898438 L 5.5 7.0625 L 10.5 7.0625 L 10.5 6.898438 C 10.5 6.480469 10.113281 6.5625 10.113281 6.5625 L 9 6.5625 C 9 6.5625 8.960938 6.0625 8.578125 6.0625 Z M 6 7.5625 L 6 11.15625 C 6 11.371094 6.042969 11.5625 6.25 11.5625 L 9.75 11.5625 C 9.957031 11.5625 10 11.371094 10 11.15625 L 10 7.5625 Z M 6 7.5625 "/>
</g>
</svg>
