<?xml version="1.0" encoding="UTF-8"?>
<svg xmlns="http://www.w3.org/2000/svg" xmlns:xlink="http://www.w3.org/1999/xlink" width="16pt" height="16pt" viewBox="0 0 16 16" version="1.1">
<g id="surface1">
<path style=" stroke:none;fill-rule:evenodd;fill:rgb(7.45098%,64.705882%,32.54902%);fill-opacity:1;" d="M 10.59375 1 L 3.769531 1 C 2.234375 1 1 2.234375 1 3.765625 L 1 12.230469 C 1 13.765625 2.234375 15 3.769531 15 L 12.234375 15 C 13.765625 15 15 13.765625 15 12.230469 L 15 5.40625 Z M 10.59375 1 "/>
<path style=" stroke:none;fill-rule:evenodd;fill:rgb(0%,50.196078%,26.27451%);fill-opacity:1;" d="M 15 5.40625 L 10.59375 1 L 10.59375 2.640625 C 10.59375 4.171875 11.828125 5.40625 13.359375 5.40625 Z M 15 5.40625 "/>
<path style=" stroke:none;fill-rule:nonzero;fill:rgb(100%,100%,100%);fill-opacity:1;" d="M 8 4.933594 C 7.558594 4.933594 7.148438 5.171875 6.933594 5.554688 C 6.878906 5.546875 6.828125 5.546875 6.773438 5.546875 C 6.097656 5.546875 5.546875 6.09375 5.546875 6.769531 C 5.546875 6.824219 5.550781 6.878906 5.558594 6.929688 C 5.175781 7.148438 4.9375 7.554688 4.933594 7.996094 C 4.933594 8.4375 5.171875 8.847656 5.558594 9.066406 C 5.550781 9.117188 5.546875 9.171875 5.546875 9.222656 C 5.546875 9.898438 6.097656 10.449219 6.773438 10.449219 L 6.773438 11.980469 C 6.773438 12.253906 7.105469 12.390625 7.296875 12.199219 L 8 11.496094 L 8.703125 12.199219 C 8.894531 12.390625 9.226562 12.253906 9.226562 11.980469 L 9.226562 10.449219 C 9.902344 10.449219 10.453125 9.898438 10.453125 9.222656 C 10.453125 9.167969 10.449219 9.117188 10.441406 9.0625 C 10.824219 8.847656 11.0625 8.4375 11.066406 7.996094 C 11.066406 7.554688 10.828125 7.144531 10.441406 6.929688 C 10.449219 6.875 10.453125 6.824219 10.453125 6.769531 C 10.453125 6.09375 9.902344 5.546875 9.226562 5.546875 C 9.171875 5.546875 9.121094 5.550781 9.066406 5.558594 C 8.851562 5.171875 8.441406 4.933594 8 4.933594 Z M 8 6.15625 C 9.015625 6.15625 9.839844 6.980469 9.839844 7.996094 C 9.839844 9.011719 9.015625 9.835938 8 9.835938 C 6.984375 9.835938 6.160156 9.011719 6.160156 7.996094 C 6.160156 6.980469 6.984375 6.15625 8 6.15625 Z M 8 6.464844 C 7.152344 6.464844 6.46875 7.152344 6.46875 7.996094 C 6.46875 8.84375 7.152344 9.53125 8 9.53125 C 8.847656 9.53125 9.53125 8.84375 9.53125 7.996094 C 9.53125 7.152344 8.847656 6.464844 8 6.464844 Z M 8 6.464844 "/>
</g>
</svg>
