<?xml version="1.0" encoding="UTF-8"?>
<svg xmlns="http://www.w3.org/2000/svg" xmlns:xlink="http://www.w3.org/1999/xlink" width="16pt" height="16pt" viewBox="0 0 16 16" version="1.1">
<g id="surface1">
<path style=" stroke:none;fill-rule:evenodd;fill:rgb(100%,72.941176%,22.745098%);fill-opacity:1;" d="M 10.59375 1 L 3.769531 1 C 2.234375 1 1 2.234375 1 3.765625 L 1 12.230469 C 1 13.765625 2.234375 15 3.769531 15 L 12.234375 15 C 13.765625 15 15 13.765625 15 12.230469 L 15 5.40625 Z M 10.59375 1 "/>
<path style=" stroke:none;fill-rule:evenodd;fill:rgb(90.980392%,62.352941%,9.019608%);fill-opacity:1;" d="M 15 5.40625 L 10.59375 1 L 10.59375 2.640625 C 10.59375 4.171875 11.828125 5.40625 13.359375 5.40625 Z M 15 5.40625 "/>
<path style=" stroke:none;fill-rule:nonzero;fill:rgb(90.980392%,62.352941%,9.019608%);fill-opacity:1;" d="M 7 6.109375 L 7 7.535156 C 7 7.535156 7 8.109375 6.46875 8.109375 C 6.210938 8.109375 5.753906 7.925781 5.574219 7.617188 C 5.324219 7.195312 5.75 6.609375 5.75 6.609375 C 4.5 6.609375 3.5 7.609375 3.5 8.847656 C 3.5 10.609375 4.5 11.109375 5.25 11.109375 C 5.25 11.109375 4.796875 9.828125 5.417969 9.648438 C 5.757812 9.59375 6.308594 9.789062 6.5 10.109375 C 6.5 10.109375 6.324219 9.65625 6.816406 9.648438 C 7.304688 9.636719 7.917969 10.386719 8 11.109375 C 8.082031 10.386719 8.695312 9.636719 9.183594 9.648438 C 9.675781 9.65625 9.5 10.109375 9.5 10.109375 C 9.691406 9.789062 10.242188 9.59375 10.582031 9.648438 C 11.203125 9.828125 10.75 11.109375 10.75 11.109375 C 11.5 11.109375 12.5 10.109375 12.5 8.847656 C 12.5 7.609375 11.5 6.609375 10.25 6.609375 C 10.25 6.609375 10.675781 7.195312 10.425781 7.617188 C 10.246094 7.925781 9.789062 8.109375 9.53125 8.109375 C 9 8.109375 9 7.535156 9 7.535156 L 9 6.109375 L 8.5 6.609375 L 7.5 6.609375 Z M 7 6.109375 "/>
</g>
</svg>
