<?xml version="1.0" encoding="UTF-8"?>
<svg xmlns="http://www.w3.org/2000/svg" xmlns:xlink="http://www.w3.org/1999/xlink" width="16pt" height="16pt" viewBox="0 0 16 16" version="1.1">
<g id="surface1">
<path style=" stroke:none;fill-rule:evenodd;fill:rgb(7.45098%,64.705882%,32.54902%);fill-opacity:1;" d="M 10.59375 1 L 3.769531 1 C 2.234375 1 1 2.234375 1 3.765625 L 1 12.230469 C 1 13.765625 2.234375 15 3.769531 15 L 12.234375 15 C 13.765625 15 15 13.765625 15 12.230469 L 15 5.40625 Z M 10.59375 1 "/>
<path style=" stroke:none;fill-rule:evenodd;fill:rgb(6.27451%,53.333333%,26.666667%);fill-opacity:1;" d="M 15 5.40625 L 10.59375 1 L 10.59375 2.640625 C 10.59375 4.171875 11.828125 5.40625 13.359375 5.40625 Z M 15 5.40625 "/>
<path style=" stroke:none;fill-rule:nonzero;fill:rgb(54.117647%,77.254902%,52.156863%);fill-opacity:1;" d="M 4.503906 5.839844 L 4.503906 6.472656 L 11.496094 6.472656 L 11.496094 5.839844 Z M 4.503906 7.746094 L 4.503906 8.382812 L 11.496094 8.382812 L 11.496094 7.746094 Z M 4.503906 9.652344 L 4.503906 10.289062 L 11.496094 10.289062 L 11.496094 9.652344 Z M 4.503906 11.558594 L 4.503906 12.195312 L 9.589844 12.195312 L 9.589844 11.558594 Z M 4.503906 11.558594 "/>
</g>
</svg>
