<?xml version="1.0" encoding="UTF-8"?>
<svg xmlns="http://www.w3.org/2000/svg" xmlns:xlink="http://www.w3.org/1999/xlink" width="16pt" height="16pt" viewBox="0 0 16 16" version="1.1">
<g id="surface1">
<path style=" stroke:none;fill-rule:evenodd;fill:rgb(24.313725%,63.921569%,75.294118%);fill-opacity:1;" d="M 3.738281 0.949219 L 12.261719 0.949219 C 13.804688 0.949219 15.050781 2.195312 15.050781 3.738281 L 15.050781 12.261719 C 15.050781 13.804688 13.804688 15.050781 12.261719 15.050781 L 3.738281 15.050781 C 2.195312 15.050781 0.949219 13.804688 0.949219 12.261719 L 0.949219 3.738281 C 0.949219 2.195312 2.195312 0.949219 3.738281 0.949219 Z M 3.738281 0.949219 "/>
<path style=" stroke:none;fill-rule:nonzero;fill:rgb(100%,100%,100%);fill-opacity:1;" d="M 7.054688 3.371094 C 6.953125 3.382812 6.867188 3.464844 6.851562 3.5625 L 6.65625 4.550781 C 6.304688 4.6875 5.976562 4.875 5.6875 5.109375 L 4.726562 4.78125 C 4.625 4.75 4.503906 4.792969 4.449219 4.882812 L 3.523438 6.488281 C 3.472656 6.582031 3.496094 6.710938 3.574219 6.777344 L 4.339844 7.449219 C 4.316406 7.632812 4.296875 7.8125 4.296875 8 C 4.296875 8.1875 4.316406 8.371094 4.339844 8.550781 L 3.574219 9.222656 C 3.496094 9.292969 3.472656 9.417969 3.523438 9.511719 L 4.449219 11.117188 C 4.503906 11.207031 4.625 11.25 4.726562 11.21875 L 5.6875 10.890625 C 5.976562 11.125 6.304688 11.3125 6.65625 11.449219 L 6.851562 12.4375 C 6.871094 12.542969 6.96875 12.625 7.074219 12.628906 L 8.925781 12.628906 C 9.03125 12.625 9.128906 12.542969 9.148438 12.4375 L 9.34375 11.449219 C 9.695312 11.3125 10.023438 11.125 10.3125 10.890625 L 11.273438 11.21875 C 11.375 11.25 11.496094 11.207031 11.550781 11.117188 L 12.476562 9.511719 C 12.527344 9.417969 12.503906 9.292969 12.425781 9.222656 L 11.660156 8.550781 C 11.683594 8.371094 11.703125 8.1875 11.703125 8 C 11.703125 7.8125 11.683594 7.632812 11.660156 7.449219 L 12.425781 6.777344 C 12.503906 6.710938 12.527344 6.582031 12.476562 6.488281 L 11.550781 4.882812 C 11.496094 4.792969 11.375 4.75 11.273438 4.78125 L 10.3125 5.109375 C 10.023438 4.875 9.695312 4.6875 9.34375 4.550781 L 9.148438 3.5625 C 9.128906 3.457031 9.03125 3.375 8.925781 3.371094 L 7.074219 3.371094 C 7.066406 3.371094 7.058594 3.371094 7.054688 3.371094 Z M 7.054688 3.371094 "/>
<path style=" stroke:none;fill-rule:nonzero;fill:rgb(24.313725%,63.921569%,75.294118%);fill-opacity:1;" d="M 7.5625 5.6875 C 7.429688 5.6875 7.339844 5.792969 7.339844 5.921875 L 7.339844 8.660156 L 6.347656 8.660156 L 8 10.644531 L 9.652344 8.660156 L 8.660156 8.660156 L 8.660156 5.921875 C 8.660156 5.792969 8.570312 5.6875 8.4375 5.6875 Z M 7.5625 5.6875 "/>
</g>
</svg>
