<?xml version="1.0" encoding="UTF-8"?>
<svg xmlns="http://www.w3.org/2000/svg" xmlns:xlink="http://www.w3.org/1999/xlink" width="16pt" height="16pt" viewBox="0 0 16 16" version="1.1">
<g id="surface1">
<path style=" stroke:none;fill-rule:evenodd;fill:rgb(80%,80%,80%);fill-opacity:1;" d="M 10.59375 1 L 3.769531 1 C 2.234375 1 1 2.234375 1 3.765625 L 1 12.230469 C 1 13.765625 2.234375 15 3.769531 15 L 12.234375 15 C 13.765625 15 15 13.765625 15 12.230469 L 15 5.40625 Z M 10.59375 1 "/>
<path style=" stroke:none;fill-rule:evenodd;fill:rgb(60%,60%,60%);fill-opacity:1;" d="M 15 5.40625 L 10.59375 1 L 10.59375 2.640625 C 10.59375 4.171875 11.828125 5.40625 13.359375 5.40625 Z M 15 5.40625 "/>
<path style=" stroke:none;fill-rule:nonzero;fill:rgb(60%,60%,60%);fill-opacity:1;" d="M 8.292969 5.960938 L 7 10.792969 L 7.722656 10.988281 L 9.019531 6.15625 Z M 9.25 5.988281 L 9.25 6.988281 L 10.5 8.238281 L 9.25 9.488281 L 9.25 10.488281 L 11.75 8.238281 Z M 6.75 6.488281 L 4.25 8.738281 L 6.75 10.988281 L 6.75 9.988281 L 5.5 8.738281 L 6.75 7.488281 Z M 6.75 6.488281 "/>
</g>
</svg>
