<?xml version="1.0" encoding="UTF-8"?>
<svg xmlns="http://www.w3.org/2000/svg" xmlns:xlink="http://www.w3.org/1999/xlink" width="16pt" height="16pt" viewBox="0 0 16 16" version="1.1">
<g id="surface1">
<path style=" stroke:none;fill-rule:evenodd;fill:rgb(38.823529%,43.137255%,45.098039%);fill-opacity:1;" d="M 10.59375 1 L 3.769531 1 C 2.234375 1 1 2.234375 1 3.765625 L 1 12.230469 C 1 13.765625 2.234375 15 3.769531 15 L 12.234375 15 C 13.765625 15 15 13.765625 15 12.230469 L 15 5.40625 Z M 10.59375 1 "/>
<path style=" stroke:none;fill-rule:evenodd;fill:rgb(27.843137%,32.156863%,35.294118%);fill-opacity:1;" d="M 15 5.40625 L 10.59375 1 L 10.59375 2.640625 C 10.59375 4.171875 11.828125 5.40625 13.359375 5.40625 Z M 15 5.40625 "/>
<path style=" stroke:none;fill-rule:nonzero;fill:rgb(80%,80%,80%);fill-opacity:1;" d="M 7.78125 6.429688 L 6.734375 9.679688 L 6.03125 7.929688 L 4.65625 7.929688 L 4.65625 8.429688 L 5.65625 8.429688 L 6.628906 10.929688 L 6.90625 10.929688 L 8.15625 6.929688 L 10.15625 6.929688 L 10.15625 6.429688 Z M 8.253906 8.117188 L 9.269531 9.457031 L 8.15625 10.929688 L 8.710938 10.929688 L 9.546875 9.824219 L 10.378906 10.929688 L 10.9375 10.929688 L 9.84375 9.484375 L 10.882812 8.117188 L 10.328125 8.117188 L 9.566406 9.117188 L 8.808594 8.117188 Z M 8.253906 8.117188 "/>
</g>
</svg>
