<?xml version="1.0" encoding="UTF-8"?>
<svg xmlns="http://www.w3.org/2000/svg" xmlns:xlink="http://www.w3.org/1999/xlink" width="16pt" height="16pt" viewBox="0 0 16 16" version="1.1">
<g id="surface1">
<path style=" stroke:none;fill-rule:evenodd;fill:rgb(80%,80%,80%);fill-opacity:1;" d="M 10.59375 1 L 3.769531 1 C 2.234375 1 1 2.234375 1 3.765625 L 1 12.230469 C 1 13.765625 2.234375 15 3.769531 15 L 12.234375 15 C 13.765625 15 15 13.765625 15 12.230469 L 15 5.40625 Z M 10.59375 1 "/>
<path style=" stroke:none;fill-rule:evenodd;fill:rgb(60%,60%,60%);fill-opacity:1;" d="M 15 5.40625 L 10.59375 1 L 10.59375 2.640625 C 10.59375 4.171875 11.828125 5.40625 13.359375 5.40625 Z M 15 5.40625 "/>
<path style=" stroke:none;fill-rule:nonzero;fill:rgb(60%,60%,60%);fill-opacity:1;" d="M 5.203125 5.222656 C 4.875 5.421875 4.21875 5.707031 3.675781 5.863281 L 3.691406 5.910156 C 3.949219 5.882812 4.226562 5.847656 4.484375 5.804688 L 4.484375 6.464844 L 3.679688 6.464844 L 3.699219 6.535156 L 4.359375 6.535156 C 4.230469 7.066406 3.992188 7.632812 3.652344 8.042969 L 3.703125 8.089844 C 4.023438 7.859375 4.28125 7.59375 4.484375 7.289062 L 4.484375 8.660156 L 4.566406 8.660156 C 4.785156 8.660156 4.929688 8.574219 4.933594 8.546875 L 4.933594 7 C 5.097656 7.148438 5.25 7.382812 5.28125 7.566406 C 5.335938 7.613281 5.398438 7.636719 5.453125 7.636719 C 5.570312 7.636719 5.667969 7.550781 5.667969 7.433594 C 5.667969 7.277344 5.488281 7.066406 4.933594 6.941406 L 4.933594 6.535156 L 5.535156 6.535156 C 5.652344 6.535156 5.707031 6.519531 5.738281 6.472656 L 5.320312 6.1875 L 5.09375 6.460938 L 4.933594 6.460938 L 4.933594 5.714844 C 5.125 5.671875 5.308594 5.628906 5.453125 5.582031 C 5.507812 5.597656 5.558594 5.605469 5.601562 5.605469 C 5.652344 5.605469 5.695312 5.59375 5.722656 5.574219 Z M 7.1875 5.730469 L 7 5.949219 L 6.25 5.949219 L 5.769531 5.769531 L 5.769531 8.585938 C 6.175781 8.585938 6.226562 8.4375 6.226562 8.429688 L 6.226562 8.164062 L 7.042969 8.164062 L 7.042969 8.515625 C 7.382812 8.515625 7.503906 8.417969 7.503906 8.410156 L 7.503906 6.121094 C 7.59375 6.105469 7.664062 6.074219 7.6875 6.042969 Z M 6.226562 6.019531 L 7.042969 6.019531 L 7.042969 8.089844 L 6.226562 8.089844 Z M 11.0625 9.328125 C 10.585938 9.328125 10.242188 9.4375 10.027344 9.660156 C 9.847656 9.84375 9.746094 10.125 9.71875 10.492188 L 8.898438 10.492188 L 8.898438 9.796875 C 8.898438 9.703125 8.914062 9.640625 8.941406 9.601562 C 8.96875 9.558594 9.011719 9.539062 9.074219 9.535156 L 9.203125 9.527344 C 9.25 9.523438 9.273438 9.5 9.273438 9.457031 C 9.273438 9.425781 9.269531 9.40625 9.261719 9.398438 C 9.253906 9.390625 9.234375 9.386719 9.203125 9.386719 C 9.195312 9.386719 9.175781 9.386719 9.136719 9.390625 C 8.996094 9.398438 8.859375 9.398438 8.730469 9.398438 C 8.589844 9.398438 8.449219 9.398438 8.304688 9.390625 C 8.269531 9.386719 8.25 9.386719 8.242188 9.386719 C 8.210938 9.386719 8.191406 9.390625 8.183594 9.398438 C 8.175781 9.40625 8.171875 9.425781 8.171875 9.457031 C 8.171875 9.5 8.195312 9.523438 8.246094 9.527344 L 8.363281 9.535156 C 8.429688 9.539062 8.476562 9.558594 8.503906 9.597656 C 8.53125 9.636719 8.546875 9.703125 8.546875 9.796875 L 8.546875 11.667969 C 8.546875 11.757812 8.53125 11.824219 8.503906 11.863281 C 8.476562 11.902344 8.433594 11.921875 8.371094 11.929688 L 8.246094 11.9375 C 8.242188 11.9375 8.238281 11.9375 8.234375 11.9375 C 8.191406 11.941406 8.171875 11.960938 8.171875 12 C 8.171875 12.035156 8.175781 12.054688 8.183594 12.0625 C 8.195312 12.070312 8.210938 12.074219 8.242188 12.074219 C 8.25 12.074219 8.269531 12.074219 8.300781 12.074219 C 8.449219 12.066406 8.589844 12.0625 8.726562 12.0625 C 8.859375 12.0625 8.996094 12.066406 9.136719 12.070312 C 9.171875 12.074219 9.195312 12.074219 9.203125 12.074219 C 9.234375 12.074219 9.253906 12.070312 9.261719 12.0625 C 9.269531 12.054688 9.273438 12.035156 9.273438 12 C 9.273438 11.960938 9.253906 11.941406 9.214844 11.9375 C 9.210938 11.9375 9.207031 11.9375 9.203125 11.9375 L 9.082031 11.929688 C 9.015625 11.925781 8.96875 11.902344 8.941406 11.863281 C 8.914062 11.824219 8.898438 11.757812 8.898438 11.667969 L 8.898438 10.894531 L 9.710938 10.894531 C 9.734375 11.300781 9.824219 11.609375 10 11.804688 C 10.199219 12.023438 10.519531 12.136719 10.964844 12.136719 C 11.445312 12.136719 11.796875 12.023438 12.015625 11.800781 C 12.238281 11.578125 12.347656 11.21875 12.347656 10.730469 C 12.347656 10.238281 12.246094 9.878906 12.042969 9.660156 C 11.84375 9.4375 11.515625 9.328125 11.066406 9.328125 Z M 11.023438 9.460938 C 11.351562 9.460938 11.589844 9.558594 11.734375 9.757812 C 11.878906 9.957031 11.953125 10.28125 11.953125 10.730469 C 11.953125 11.179688 11.878906 11.5 11.734375 11.699219 C 11.585938 11.898438 11.351562 11.996094 11.023438 11.996094 C 10.691406 11.996094 10.453125 11.898438 10.308594 11.699219 C 10.164062 11.5 10.089844 11.175781 10.089844 10.726562 C 10.089844 10.28125 10.164062 9.960938 10.3125 9.761719 C 10.460938 9.5625 10.695312 9.460938 11.023438 9.460938 Z M 11.023438 9.460938 "/>
</g>
</svg>
