<?xml version="1.0" encoding="UTF-8"?>
<svg xmlns="http://www.w3.org/2000/svg" xmlns:xlink="http://www.w3.org/1999/xlink" width="16pt" height="16pt" viewBox="0 0 16 16" version="1.1">
<g id="surface1">
<path style=" stroke:none;fill-rule:evenodd;fill:rgb(99.607843%,75.294118%,2.352941%);fill-opacity:1;" d="M 10.59375 1 L 3.769531 1 C 2.234375 1 1 2.234375 1 3.765625 L 1 12.230469 C 1 13.765625 2.234375 15 3.769531 15 L 12.234375 15 C 13.765625 15 15 13.765625 15 12.230469 L 15 5.40625 Z M 10.59375 1 "/>
<path style=" stroke:none;fill-rule:evenodd;fill:rgb(81.960784%,61.960784%,1.960784%);fill-opacity:1;" d="M 15 5.40625 L 10.59375 1 L 10.59375 2.640625 C 10.59375 4.171875 11.828125 5.40625 13.359375 5.40625 Z M 15 5.40625 "/>
<path style=" stroke:none;fill-rule:nonzero;fill:rgb(100%,91.372549%,44.313725%);fill-opacity:1;" d="M 10.746094 5.960938 C 10.574219 5.902344 10.355469 5.867188 10.148438 5.984375 C 9.808594 6.171875 9.6875 6.550781 9.6875 6.878906 C 9.6875 7.207031 9.769531 7.542969 9.84375 7.859375 C 9.914062 8.179688 9.980469 8.484375 9.976562 8.691406 C 9.976562 8.902344 9.953125 8.957031 9.84375 9.011719 C 9.746094 9.0625 9.695312 9.0625 9.640625 9.050781 C 9.589844 9.039062 9.519531 9.003906 9.429688 8.929688 C 9.257812 8.78125 9.046875 8.484375 8.8125 8.164062 C 8.574219 7.839844 8.300781 7.488281 7.929688 7.238281 C 7.554688 6.988281 7.0625 6.851562 6.507812 6.980469 L 6.5 6.980469 L 6.496094 6.984375 C 6.125 7.082031 5.851562 7.363281 5.660156 7.703125 C 5.472656 8.042969 5.359375 8.449219 5.304688 8.878906 C 5.296875 8.929688 5.308594 8.980469 5.304688 9.03125 C 5.203125 9.023438 5.113281 8.988281 5.011719 8.984375 L 4.402344 8.972656 L 4.089844 8.964844 L 4.074219 9.597656 L 4.390625 9.601562 L 4.996094 9.617188 C 5.109375 9.617188 5.199219 9.65625 5.3125 9.664062 C 5.332031 10.289062 5.429688 10.90625 5.730469 11.394531 L 5.738281 11.402344 L 5.746094 11.414062 C 6.222656 12.074219 7.039062 12.269531 7.65625 12.027344 C 7.960938 11.910156 8.230469 11.652344 8.3125 11.300781 C 8.394531 10.945312 8.296875 10.539062 8.019531 10.109375 C 7.75 9.691406 7.292969 9.429688 6.765625 9.253906 C 6.515625 9.171875 6.210938 9.171875 5.933594 9.128906 C 5.9375 9.070312 5.921875 9.015625 5.929688 8.960938 C 5.976562 8.589844 6.078125 8.25 6.214844 8.007812 C 6.347656 7.769531 6.5 7.640625 6.65625 7.59375 C 7.050781 7.507812 7.316406 7.585938 7.574219 7.761719 C 7.835938 7.9375 8.074219 8.230469 8.304688 8.539062 C 8.53125 8.847656 8.742188 9.167969 9.019531 9.410156 C 9.15625 9.527344 9.320312 9.628906 9.515625 9.671875 C 9.710938 9.710938 9.929688 9.675781 10.128906 9.578125 C 10.472656 9.402344 10.605469 9.027344 10.609375 8.699219 C 10.613281 8.375 10.53125 8.039062 10.457031 7.722656 C 10.386719 7.402344 10.320312 7.09375 10.320312 6.878906 C 10.320312 6.664062 10.347656 6.59375 10.453125 6.535156 C 10.4375 6.542969 10.460938 6.53125 10.546875 6.558594 C 10.628906 6.585938 10.746094 6.652344 10.855469 6.726562 C 11.074219 6.875 11.261719 7.054688 11.261719 7.054688 L 11.484375 7.277344 L 11.925781 6.824219 L 11.699219 6.605469 C 11.699219 6.605469 11.488281 6.394531 11.210938 6.207031 C 11.074219 6.109375 10.921875 6.019531 10.746094 5.960938 Z M 5.941406 9.757812 C 6.148438 9.796875 6.390625 9.796875 6.570312 9.851562 C 7.011719 10 7.335938 10.214844 7.488281 10.453125 C 7.707031 10.789062 7.730469 11.019531 7.699219 11.15625 C 7.667969 11.292969 7.582031 11.378906 7.425781 11.441406 C 7.117188 11.5625 6.574219 11.460938 6.265625 11.046875 C 6.070312 10.726562 5.976562 10.253906 5.941406 9.757812 Z M 5.941406 9.757812 "/>
</g>
</svg>
