<?xml version="1.0" encoding="UTF-8"?>
<svg xmlns="http://www.w3.org/2000/svg" xmlns:xlink="http://www.w3.org/1999/xlink" width="16pt" height="16pt" viewBox="0 0 16 16" version="1.1">
<g id="surface1">
<path style=" stroke:none;fill-rule:evenodd;fill:rgb(56.470588%,32.156863%,100%);fill-opacity:1;" d="M 10.59375 1 L 3.769531 1 C 2.234375 1 1 2.234375 1 3.765625 L 1 12.230469 C 1 13.765625 2.234375 15 3.769531 15 L 12.234375 15 C 13.765625 15 15 13.765625 15 12.230469 L 15 5.40625 Z M 10.59375 1 "/>
<path style=" stroke:none;fill-rule:evenodd;fill:rgb(46.666667%,26.666667%,82.352941%);fill-opacity:1;" d="M 15 5.40625 L 10.59375 1 L 10.59375 2.640625 C 10.59375 4.171875 11.828125 5.40625 13.359375 5.40625 Z M 15 5.40625 "/>
<path style=" stroke:none;fill-rule:nonzero;fill:rgb(83.529412%,78.431373%,97.254902%);fill-opacity:1;" d="M 7.625 5.140625 L 6.125 10.015625 L 5.160156 7.140625 L 1 7.140625 L 1 8.140625 L 4.578125 8.140625 L 6.125 12.390625 L 7.625 7.640625 L 8.625 10.640625 L 9.878906 7.640625 L 10.816406 10.640625 L 15 10.640625 L 15 9.640625 L 11.378906 9.640625 L 9.878906 5.640625 L 8.625 8.390625 Z M 7.625 5.140625 "/>
</g>
</svg>
