<?xml version="1.0" encoding="UTF-8"?>
<svg xmlns="http://www.w3.org/2000/svg" xmlns:xlink="http://www.w3.org/1999/xlink" width="16pt" height="16pt" viewBox="0 0 16 16" version="1.1">
<g id="surface1">
<path style=" stroke:none;fill-rule:evenodd;fill:rgb(32.54902%,59.607843%,25.098039%);fill-opacity:1;" d="M 10.59375 1 L 3.769531 1 C 2.234375 1 1 2.234375 1 3.765625 L 1 12.230469 C 1 13.765625 2.234375 15 3.769531 15 L 12.234375 15 C 13.765625 15 15 13.765625 15 12.230469 L 15 5.40625 Z M 10.59375 1 "/>
<path style=" stroke:none;fill-rule:evenodd;fill:rgb(16.470588%,45.098039%,16.862745%);fill-opacity:1;" d="M 15 5.40625 L 10.59375 1 L 10.59375 2.640625 C 10.59375 4.171875 11.828125 5.40625 13.359375 5.40625 Z M 15 5.40625 "/>
<path style=" stroke:none;fill-rule:nonzero;fill:rgb(78.823529%,91.372549%,61.568627%);fill-opacity:1;" d="M 5.777344 1 L 5.777344 8.28125 L 3.535156 8.28125 L 3.535156 10.519531 L 0.992188 10.519531 L 0.992188 11.640625 L 3.535156 11.640625 L 3.535156 13.878906 L 5.777344 13.878906 L 5.777344 15 L 6.894531 15 L 6.894531 13.878906 L 9.136719 13.878906 L 9.136719 11.640625 L 15.007812 11.640625 L 15.007812 10.519531 L 9.136719 10.519531 L 9.136719 8.28125 L 6.894531 8.28125 L 6.894531 1 Z M 4.65625 9.398438 L 8.015625 9.398438 L 8.015625 12.761719 L 4.65625 12.761719 Z M 5.777344 10.519531 L 5.777344 11.640625 L 6.894531 11.640625 L 6.894531 10.519531 Z M 5.777344 10.519531 "/>
</g>
</svg>
