<?xml version="1.0" encoding="UTF-8"?>
<svg xmlns="http://www.w3.org/2000/svg" xmlns:xlink="http://www.w3.org/1999/xlink" width="16pt" height="16pt" viewBox="0 0 16 16" version="1.1">
<g id="surface1">
<path style=" stroke:none;fill-rule:evenodd;fill:rgb(90.588235%,29.803922%,23.529412%);fill-opacity:1;" d="M 10.59375 1 L 3.769531 1 C 2.234375 1 1 2.234375 1 3.765625 L 1 12.230469 C 1 13.765625 2.234375 15 3.769531 15 L 12.234375 15 C 13.765625 15 15 13.765625 15 12.230469 L 15 5.40625 Z M 10.59375 1 "/>
<path style=" stroke:none;fill-rule:evenodd;fill:rgb(74.509804%,24.705882%,19.215686%);fill-opacity:1;" d="M 15 5.40625 L 10.59375 1 L 10.59375 2.640625 C 10.59375 4.171875 11.828125 5.40625 13.359375 5.40625 Z M 15 5.40625 "/>
<path style=" stroke:none;fill-rule:nonzero;fill:rgb(98.431373%,70.196078%,53.333333%);fill-opacity:1;" d="M 10.792969 6.578125 C 9.429688 6.601562 9.242188 7.816406 9.242188 7.816406 L 10.171875 7.816406 L 10.171875 9.0625 L 8.621094 9.0625 C 7.660156 12.105469 5.207031 12.160156 5.207031 12.160156 L 5.207031 10.921875 C 5.207031 10.921875 6.664062 11.121094 7.378906 8.441406 C 8.273438 5.085938 10.792969 5.335938 10.792969 5.335938 Z M 10.792969 6.578125 "/>
</g>
</svg>
