<?xml version="1.0" encoding="UTF-8"?>
<svg xmlns="http://www.w3.org/2000/svg" xmlns:xlink="http://www.w3.org/1999/xlink" width="16pt" height="16pt" viewBox="0 0 16 16" version="1.1">
<g id="surface1">
<path style=" stroke:none;fill-rule:evenodd;fill:rgb(67.45098%,55.686275%,36.078431%);fill-opacity:1;" d="M 3.738281 0.949219 L 12.261719 0.949219 C 13.804688 0.949219 15.050781 2.195312 15.050781 3.738281 L 15.050781 12.261719 C 15.050781 13.804688 13.804688 15.050781 12.261719 15.050781 L 3.738281 15.050781 C 2.195312 15.050781 0.949219 13.804688 0.949219 12.261719 L 0.949219 3.738281 C 0.949219 2.195312 2.195312 0.949219 3.738281 0.949219 Z M 3.738281 0.949219 "/>
<path style=" stroke:none;fill-rule:evenodd;fill:rgb(87.058824%,33.72549%,29.803922%);fill-opacity:1;" d="M 9.554688 3.800781 L 5.460938 3.800781 C 4.542969 3.800781 3.800781 4.539062 3.800781 5.460938 L 3.800781 10.539062 C 3.800781 11.457031 4.542969 12.199219 5.460938 12.199219 L 10.539062 12.199219 C 11.460938 12.199219 12.199219 11.457031 12.199219 10.539062 L 12.199219 6.445312 Z M 9.554688 3.800781 "/>
<path style=" stroke:none;fill-rule:nonzero;fill:rgb(89.411765%,72.941176%,45.882353%);fill-opacity:1;" d="M 2.644531 5.582031 C 2.644531 5.605469 2.644531 5.628906 2.644531 5.652344 L 2.644531 10.316406 C 2.644531 10.804688 2.902344 11.253906 3.324219 11.5 L 7.320312 13.816406 C 7.742188 14.058594 8.257812 14.058594 8.679688 13.816406 L 12.675781 11.5 C 13.097656 11.253906 13.355469 10.804688 13.355469 10.316406 L 13.355469 5.652344 C 13.355469 5.636719 13.355469 5.617188 13.355469 5.601562 C 13.355469 5.601562 2.644531 5.582031 2.644531 5.582031 Z M 2.644531 5.582031 "/>
<path style=" stroke:none;fill-rule:nonzero;fill:rgb(72.156863%,59.607843%,38.823529%);fill-opacity:1;" d="M 8.03125 2 C 7.78125 1.996094 7.535156 2.058594 7.320312 2.183594 L 3.320312 4.53125 C 2.925781 4.761719 2.671875 5.175781 2.644531 5.636719 C 2.667969 6.101562 2.921875 6.523438 3.320312 6.753906 L 7.320312 9.101562 C 7.742188 9.347656 8.257812 9.347656 8.679688 9.101562 L 12.679688 6.753906 C 13.074219 6.523438 13.328125 6.109375 13.355469 5.648438 C 13.332031 5.183594 13.078125 4.761719 12.679688 4.53125 L 8.679688 2.183594 C 8.484375 2.070312 8.261719 2.007812 8.03125 2 Z M 8.03125 2 "/>
<path style=" stroke:none;fill-rule:nonzero;fill:rgb(67.45098%,55.686275%,36.078431%);fill-opacity:1;" d="M 8.03125 2 C 7.949219 2 7.867188 2.003906 7.785156 2.019531 L 7.785156 9.265625 C 8.09375 9.316406 8.410156 9.257812 8.679688 9.101562 L 12.679688 6.753906 C 13.074219 6.523438 13.328125 6.109375 13.355469 5.648438 C 13.332031 5.183594 13.078125 4.761719 12.679688 4.53125 L 8.679688 2.183594 C 8.480469 2.070312 8.257812 2.007812 8.03125 2 Z M 8.03125 2 "/>
<path style=" stroke:none;fill-rule:nonzero;fill:rgb(80.784314%,65.882353%,41.568627%);fill-opacity:1;" d="M 2.644531 5.609375 C 2.644531 5.617188 2.644531 5.621094 2.644531 5.628906 C 2.644531 5.625 2.644531 5.621094 2.644531 5.617188 C 2.644531 5.613281 2.644531 5.613281 2.644531 5.609375 Z M 2.644531 5.640625 C 2.644531 5.644531 2.644531 5.648438 2.644531 5.652344 L 2.644531 10.316406 C 2.644531 10.804688 2.902344 11.253906 3.324219 11.5 L 7.320312 13.816406 C 7.464844 13.902344 7.625 13.953125 7.785156 13.980469 L 7.785156 9.265625 C 7.621094 9.242188 7.464844 9.183594 7.320312 9.101562 L 3.320312 6.753906 C 2.925781 6.523438 2.671875 6.105469 2.644531 5.640625 Z M 2.644531 5.640625 "/>
<path style=" stroke:none;fill-rule:nonzero;fill:rgb(60.784314%,50.196078%,32.54902%);fill-opacity:1;" d="M 2.675781 5.425781 C 2.660156 5.496094 2.648438 5.566406 2.644531 5.636719 C 2.667969 6.101562 2.921875 6.523438 3.320312 6.753906 L 7.320312 9.101562 C 7.742188 9.347656 8.257812 9.347656 8.679688 9.101562 L 12.679688 6.753906 C 13.074219 6.523438 13.328125 6.109375 13.355469 5.648438 C 13.351562 5.574219 13.339844 5.5 13.324219 5.429688 C 13.242188 5.808594 13.007812 6.132812 12.679688 6.328125 L 8.679688 8.671875 C 8.257812 8.917969 7.742188 8.917969 7.320312 8.671875 L 3.320312 6.328125 C 2.988281 6.132812 2.753906 5.804688 2.675781 5.425781 Z M 2.675781 5.425781 "/>
</g>
</svg>
