<?xml version="1.0" encoding="UTF-8"?>
<svg xmlns="http://www.w3.org/2000/svg" xmlns:xlink="http://www.w3.org/1999/xlink" width="16pt" height="16pt" viewBox="0 0 16 16" version="1.1">
<g id="surface1">
<path style=" stroke:none;fill-rule:evenodd;fill:rgb(3.921569%,60%,83.921569%);fill-opacity:1;" d="M 10.59375 1 L 3.769531 1 C 2.234375 1 1 2.234375 1 3.765625 L 1 12.230469 C 1 13.765625 2.234375 15 3.769531 15 L 12.234375 15 C 13.765625 15 15 13.765625 15 12.230469 L 15 5.40625 Z M 10.59375 1 "/>
<path style=" stroke:none;fill-rule:evenodd;fill:rgb(3.137255%,49.411765%,69.019608%);fill-opacity:1;" d="M 15 5.40625 L 10.59375 1 L 10.59375 2.640625 C 10.59375 4.171875 11.828125 5.40625 13.359375 5.40625 Z M 15 5.40625 "/>
<path style=" stroke:none;fill-rule:nonzero;fill:rgb(100%,100%,100%);fill-opacity:1;" d="M 8 4.863281 C 6.007812 4.863281 4.390625 6.480469 4.390625 8.472656 L 6.796875 8.472656 L 6.796875 6.96875 L 9.203125 9.378906 L 6.796875 11.785156 L 6.796875 10.28125 L 4.878906 10.28125 C 5.523438 11.394531 6.710938 12.082031 8 12.085938 C 9.992188 12.085938 11.609375 10.46875 11.609375 8.472656 C 11.609375 6.480469 9.992188 4.863281 8 4.863281 Z M 8 4.863281 "/>
</g>
</svg>
