<?xml version="1.0" encoding="UTF-8"?>
<svg xmlns="http://www.w3.org/2000/svg" xmlns:xlink="http://www.w3.org/1999/xlink" width="16pt" height="16pt" viewBox="0 0 16 16" version="1.1">
<g id="surface1">
<path style=" stroke:none;fill-rule:evenodd;fill:rgb(69.411765%,70.980392%,15.294118%);fill-opacity:1;" d="M 10.59375 1 L 3.769531 1 C 2.234375 1 1 2.234375 1 3.765625 L 1 12.230469 C 1 13.765625 2.234375 15 3.769531 15 L 12.234375 15 C 13.765625 15 15 13.765625 15 12.230469 L 15 5.40625 Z M 10.59375 1 "/>
<path style=" stroke:none;fill-rule:evenodd;fill:rgb(60.784314%,62.352941%,6.27451%);fill-opacity:1;" d="M 15 5.40625 L 10.59375 1 L 10.59375 2.640625 C 10.59375 4.171875 11.828125 5.40625 13.359375 5.40625 Z M 15 5.40625 "/>
<path style=" stroke:none;fill-rule:nonzero;fill:rgb(89.411765%,94.117647%,47.843137%);fill-opacity:1;" d="M 6.09375 5.339844 L 6.09375 8.839844 C 6.09375 8.839844 6.015625 8.839844 5.84375 8.839844 C 5.152344 8.839844 4.59375 9.398438 4.59375 10.089844 C 4.59375 10.78125 5.152344 11.339844 5.84375 11.339844 C 6.523438 11.339844 7.078125 10.792969 7.09375 10.113281 L 7.09375 6.839844 L 9.59375 6.839844 L 9.59375 8.839844 C 9.59375 8.839844 9.515625 8.839844 9.34375 8.839844 C 8.652344 8.839844 8.09375 9.398438 8.09375 10.089844 C 8.09375 10.78125 8.652344 11.339844 9.34375 11.339844 C 10.007812 11.339844 10.558594 10.816406 10.589844 10.152344 L 10.59375 10.144531 L 10.59375 5.339844 Z M 6.09375 5.339844 "/>
</g>
</svg>
