<?xml version="1.0" encoding="UTF-8"?>
<svg xmlns="http://www.w3.org/2000/svg" xmlns:xlink="http://www.w3.org/1999/xlink" width="16pt" height="16pt" viewBox="0 0 16 16" version="1.1">
<g id="surface1">
<path style=" stroke:none;fill-rule:evenodd;fill:rgb(99.607843%,59.215686%,0%);fill-opacity:1;" d="M 10.59375 1 L 3.769531 1 C 2.234375 1 1 2.234375 1 3.765625 L 1 12.230469 C 1 13.765625 2.234375 15 3.769531 15 L 12.234375 15 C 13.765625 15 15 13.765625 15 12.230469 L 15 5.40625 Z M 10.59375 1 "/>
<path style=" stroke:none;fill-rule:evenodd;fill:rgb(84.705882%,43.529412%,0%);fill-opacity:1;" d="M 15 5.40625 L 10.59375 1 L 10.59375 2.640625 C 10.59375 4.171875 11.828125 5.40625 13.359375 5.40625 Z M 15 5.40625 "/>
<path style=" stroke:none;fill-rule:nonzero;fill:rgb(100%,83.921569%,50.588235%);fill-opacity:1;" d="M 6.160156 5.40625 L 6.160156 8.90625 C 6.160156 8.90625 6.082031 8.90625 5.910156 8.90625 C 5.21875 8.90625 4.660156 9.464844 4.660156 10.15625 C 4.660156 10.847656 5.21875 11.40625 5.910156 11.40625 C 6.59375 11.40625 7.148438 10.859375 7.160156 10.179688 L 7.160156 6.90625 L 9.660156 6.90625 L 9.660156 8.90625 C 9.660156 8.90625 9.582031 8.90625 9.410156 8.90625 C 8.71875 8.90625 8.160156 9.464844 8.160156 10.15625 C 8.160156 10.847656 8.71875 11.40625 9.410156 11.40625 C 10.078125 11.40625 10.625 10.882812 10.65625 10.21875 L 10.660156 10.214844 L 10.660156 5.40625 Z M 6.160156 5.40625 "/>
</g>
</svg>
