<?xml version="1.0" encoding="UTF-8"?>
<svg xmlns="http://www.w3.org/2000/svg" xmlns:xlink="http://www.w3.org/1999/xlink" width="16pt" height="16pt" viewBox="0 0 16 16" version="1.1">
<g id="surface1">
<path style=" stroke:none;fill-rule:evenodd;fill:rgb(74.901961%,60.392157%,40%);fill-opacity:1;" d="M 10.59375 1 L 3.769531 1 C 2.234375 1 1 2.234375 1 3.765625 L 1 12.230469 C 1 13.765625 2.234375 15 3.769531 15 L 12.234375 15 C 13.765625 15 15 13.765625 15 12.230469 L 15 5.40625 Z M 10.59375 1 "/>
<path style=" stroke:none;fill-rule:evenodd;fill:rgb(64.705882%,50.196078%,28.235294%);fill-opacity:1;" d="M 15 5.40625 L 10.59375 1 L 10.59375 2.640625 C 10.59375 4.171875 11.828125 5.40625 13.359375 5.40625 Z M 15 5.40625 "/>
<path style=" stroke:none;fill-rule:nonzero;fill:rgb(98.039216%,92.941176%,65.490196%);fill-opacity:1;" d="M 4.65625 5.65625 C 3.964844 5.65625 3.40625 6.214844 3.40625 6.90625 C 3.40625 7.597656 3.964844 8.15625 4.65625 8.15625 C 4.859375 8.15625 5.058594 8.105469 5.238281 8.011719 L 6.488281 9.46875 C 6.433594 9.609375 6.40625 9.757812 6.40625 9.90625 C 6.40625 10.597656 6.964844 11.15625 7.65625 11.15625 C 8.265625 11.15625 8.785156 10.714844 8.886719 10.113281 L 10.945312 9.703125 C 11.082031 10.261719 11.582031 10.65625 12.15625 10.65625 C 12.847656 10.65625 13.40625 10.097656 13.40625 9.40625 C 13.40625 8.714844 12.847656 8.15625 12.15625 8.15625 C 11.546875 8.15625 11.027344 8.597656 10.925781 9.199219 L 8.871094 9.609375 C 8.734375 9.050781 8.230469 8.65625 7.65625 8.65625 C 7.324219 8.65625 7.003906 8.792969 6.769531 9.027344 L 5.625 7.695312 C 5.808594 7.472656 5.90625 7.195312 5.90625 6.90625 C 5.90625 6.214844 5.347656 5.65625 4.65625 5.65625 Z M 4.65625 5.65625 "/>
</g>
</svg>
