<?xml version="1.0" encoding="UTF-8"?>
<svg xmlns="http://www.w3.org/2000/svg" xmlns:xlink="http://www.w3.org/1999/xlink" width="16pt" height="16pt" viewBox="0 0 16 16" version="1.1">
<g id="surface1">
<path style=" stroke:none;fill-rule:evenodd;fill:rgb(74.901961%,60.392157%,40%);fill-opacity:1;" d="M 10.59375 1.003906 L 3.769531 1.003906 C 2.234375 1.003906 1 2.234375 1 3.769531 L 1 12.234375 C 1 13.765625 2.234375 15.003906 3.769531 15.003906 L 12.234375 15.003906 C 13.765625 15.003906 15 13.765625 15 12.234375 L 15 5.410156 Z M 10.59375 1.003906 "/>
<path style=" stroke:none;fill-rule:evenodd;fill:rgb(64.705882%,50.196078%,28.235294%);fill-opacity:1;" d="M 15 5.410156 L 10.59375 1.003906 L 10.59375 2.640625 C 10.59375 4.175781 11.828125 5.410156 13.359375 5.410156 Z M 15 5.410156 "/>
<path style=" stroke:none;fill-rule:nonzero;fill:rgb(98.039216%,92.941176%,65.490196%);fill-opacity:1;" d="M 4.65625 7.335938 C 3.964844 7.335938 3.40625 7.894531 3.40625 8.585938 C 3.40625 9.277344 3.964844 9.835938 4.65625 9.835938 C 4.859375 9.835938 5.058594 9.785156 5.238281 9.691406 L 6.488281 11.148438 C 6.433594 11.289062 6.40625 11.4375 6.40625 11.585938 C 6.40625 12.277344 6.964844 12.835938 7.65625 12.835938 C 8.265625 12.835938 8.785156 12.394531 8.886719 11.792969 L 10.945312 11.382812 C 11.082031 11.941406 11.582031 12.335938 12.15625 12.335938 C 12.847656 12.335938 13.40625 11.777344 13.40625 11.085938 C 13.40625 10.394531 12.847656 9.835938 12.15625 9.835938 C 11.546875 9.835938 11.027344 10.277344 10.925781 10.878906 L 8.871094 11.289062 C 8.734375 10.730469 8.230469 10.335938 7.65625 10.335938 C 7.324219 10.335938 7.003906 10.472656 6.769531 10.707031 L 5.625 9.375 C 5.808594 9.152344 5.90625 8.875 5.90625 8.585938 C 5.90625 7.894531 5.347656 7.335938 4.65625 7.335938 Z M 4.65625 7.335938 "/>
<path style=" stroke:none;fill-rule:nonzero;fill:rgb(98.039216%,92.941176%,65.490196%);fill-opacity:1;" d="M 8.328125 4.496094 C 7.777344 4.496094 7.328125 4.949219 7.328125 5.496094 L 7.328125 7.496094 C 7.328125 8.046875 7.777344 8.496094 8.328125 8.496094 C 8.882812 8.496094 9.328125 8.046875 9.328125 7.496094 L 9.328125 5.496094 C 9.328125 4.949219 8.882812 4.496094 8.328125 4.496094 Z M 8.328125 4.996094 C 8.605469 4.996094 8.828125 5.199219 8.828125 5.496094 C 8.828125 5.746094 8.605469 5.996094 8.328125 5.996094 C 8.054688 5.996094 7.828125 5.746094 7.828125 5.496094 C 7.828125 5.199219 8.054688 4.996094 8.328125 4.996094 Z M 8.328125 6.496094 C 8.605469 6.496094 8.828125 6.722656 8.828125 6.996094 L 8.828125 7.496094 C 8.828125 7.773438 8.605469 7.996094 8.328125 7.996094 C 8.054688 7.996094 7.828125 7.773438 7.828125 7.496094 L 7.828125 6.996094 C 7.828125 6.722656 8.054688 6.496094 8.328125 6.496094 Z M 8.328125 6.496094 "/>
<path style=" stroke:none;fill-rule:nonzero;fill:rgb(98.039216%,92.941176%,65.490196%);fill-opacity:1;" d="M 7.828125 1.496094 L 7.828125 1.996094 L 8.328125 1.996094 L 8.328125 1.496094 Z M 7.828125 2.496094 L 7.828125 2.996094 L 8.328125 2.996094 L 8.328125 2.496094 Z M 7.828125 3.496094 L 7.828125 3.996094 L 8.328125 3.996094 L 8.328125 3.496094 Z M 7.828125 3.496094 "/>
<path style=" stroke:none;fill-rule:nonzero;fill:rgb(98.039216%,92.941176%,65.490196%);fill-opacity:1;" d="M 8.328125 0.996094 L 8.328125 1.496094 L 8.828125 1.496094 L 8.828125 0.996094 Z M 8.328125 1.996094 L 8.328125 2.496094 L 8.828125 2.496094 L 8.828125 1.996094 Z M 8.328125 2.996094 L 8.328125 3.496094 L 8.828125 3.496094 L 8.828125 2.996094 Z M 8.328125 3.996094 L 8.328125 4.496094 L 8.828125 4.496094 L 8.828125 3.996094 Z M 8.328125 3.996094 "/>
</g>
</svg>
