<?xml version="1.0" encoding="UTF-8"?>
<svg xmlns="http://www.w3.org/2000/svg" xmlns:xlink="http://www.w3.org/1999/xlink" width="16pt" height="16pt" viewBox="0 0 16 16" version="1.1">
<g id="surface1">
<path style=" stroke:none;fill-rule:evenodd;fill:rgb(67.45098%,57.647059%,100%);fill-opacity:1;" d="M 10.59375 1 L 3.769531 1 C 2.234375 1 1 2.234375 1 3.765625 L 1 12.230469 C 1 13.765625 2.234375 15 3.769531 15 L 12.234375 15 C 13.765625 15 15 13.765625 15 12.230469 L 15 5.40625 Z M 10.59375 1 "/>
<path style=" stroke:none;fill-rule:evenodd;fill:rgb(50.588235%,48.235294%,72.54902%);fill-opacity:1;" d="M 15 5.40625 L 10.59375 1 L 10.59375 2.640625 C 10.59375 4.171875 11.828125 5.40625 13.359375 5.40625 Z M 15 5.40625 "/>
<path style=" stroke:none;fill-rule:nonzero;fill:rgb(100%,100%,100%);fill-opacity:1;" d="M 6.273438 6.390625 L 6.273438 10.828125 L 7.328125 10.828125 L 7.328125 9.136719 L 9.019531 9.136719 L 9.019531 6.390625 Z M 7.414062 7.53125 L 7.960938 7.53125 L 7.960938 8.082031 L 7.414062 8.082031 Z M 7.414062 7.53125 "/>
<path style=" stroke:none;fill-rule:nonzero;fill:rgb(100%,100%,100%);fill-opacity:1;" d="M 3.3125 6.390625 L 3.3125 10.828125 L 4.371094 10.828125 L 4.371094 9.773438 L 5.003906 10.828125 L 6.0625 10.828125 L 5.53125 9.136719 L 6.0625 9.136719 L 6.0625 6.390625 Z M 4.414062 7.53125 L 4.960938 7.53125 L 4.960938 8.082031 L 4.414062 8.082031 Z M 4.414062 7.53125 "/>
<path style=" stroke:none;fill-rule:nonzero;fill:rgb(100%,100%,100%);fill-opacity:1;" d="M 9.230469 6.390625 L 9.230469 10.828125 L 10.285156 10.828125 L 10.285156 8.925781 L 11.027344 9.773438 L 11.765625 8.925781 L 11.765625 10.828125 L 12.820312 10.828125 L 12.820312 6.390625 L 11.765625 6.390625 L 11.027344 8.082031 L 10.285156 6.390625 Z M 9.230469 6.390625 "/>
</g>
</svg>
