<?xml version="1.0" encoding="UTF-8"?>
<svg xmlns="http://www.w3.org/2000/svg" xmlns:xlink="http://www.w3.org/1999/xlink" width="16pt" height="16pt" viewBox="0 0 16 16" version="1.1">
<defs>
<filter id="alpha" filterUnits="objectBoundingBox" x="0%" y="0%" width="100%" height="100%">
  <feColorMatrix type="matrix" in="SourceGraphic" values="0 0 0 0 1 0 0 0 0 1 0 0 0 0 1 0 0 0 1 0"/>
</filter>
<mask id="mask0">
  <g filter="url(#alpha)">
<rect x="0" y="0" width="16" height="16" style="fill:rgb(0%,0%,0%);fill-opacity:0.501961;stroke:none;"/>
  </g>
</mask>
<clipPath id="clip1">
  <rect width="16" height="16"/>
</clipPath>
<g id="surface6" clip-path="url(#clip1)">
<path style=" stroke:none;fill-rule:nonzero;fill:rgb(60%,60%,60%);fill-opacity:1;" d="M 6.417969 5.367188 C 6.007812 5.34375 5.601562 5.480469 5.304688 5.78125 C 4.707031 6.375 4.761719 7.390625 5.425781 8.054688 L 5.84375 8.476562 L 5.425781 8.894531 C 4.761719 9.558594 4.707031 10.574219 5.304688 11.171875 C 5.902344 11.765625 6.917969 11.714844 7.582031 11.050781 L 8 10.628906 L 8.417969 11.050781 C 9.082031 11.714844 10.097656 11.765625 10.695312 11.167969 C 11.292969 10.574219 11.238281 9.558594 10.574219 8.894531 L 10.15625 8.476562 L 10.574219 8.054688 C 11.238281 7.390625 11.292969 6.375 10.695312 5.78125 C 10.097656 5.183594 9.082031 5.234375 8.417969 5.898438 L 8 6.320312 L 7.582031 5.898438 C 7.25 5.566406 6.828125 5.386719 6.417969 5.367188 Z M 8 6.917969 C 8.011719 6.929688 8.023438 6.9375 8.03125 6.949219 C 8.035156 6.953125 8.039062 6.957031 8.042969 6.960938 C 8.050781 6.96875 8.058594 6.976562 8.066406 6.984375 C 8.066406 6.988281 8.070312 6.992188 8.070312 6.996094 C 8.078125 7.003906 8.085938 7.011719 8.089844 7.019531 C 8.09375 7.027344 8.097656 7.03125 8.101562 7.039062 C 8.105469 7.046875 8.109375 7.054688 8.113281 7.0625 C 8.117188 7.066406 8.121094 7.074219 8.125 7.082031 C 8.125 7.089844 8.128906 7.09375 8.128906 7.097656 C 8.132812 7.105469 8.136719 7.117188 8.140625 7.125 C 8.140625 7.132812 8.144531 7.136719 8.144531 7.144531 C 8.144531 7.152344 8.148438 7.160156 8.148438 7.167969 C 8.152344 7.171875 8.152344 7.179688 8.152344 7.183594 C 8.152344 7.191406 8.152344 7.203125 8.152344 7.210938 C 8.15625 7.21875 8.15625 7.222656 8.15625 7.230469 C 8.15625 7.238281 8.15625 7.242188 8.152344 7.25 C 8.152344 7.257812 8.152344 7.269531 8.152344 7.277344 C 8.152344 7.28125 8.152344 7.289062 8.148438 7.292969 C 8.148438 7.300781 8.144531 7.308594 8.144531 7.316406 C 8.144531 7.324219 8.140625 7.332031 8.140625 7.335938 C 8.136719 7.34375 8.132812 7.355469 8.128906 7.363281 C 8.128906 7.367188 8.125 7.371094 8.125 7.378906 C 8.121094 7.386719 8.117188 7.394531 8.113281 7.402344 C 8.109375 7.410156 8.105469 7.414062 8.101562 7.421875 C 8.097656 7.429688 8.09375 7.433594 8.089844 7.441406 C 8.085938 7.449219 8.078125 7.457031 8.070312 7.46875 C 8.070312 7.46875 8.066406 7.472656 8.066406 7.476562 C 8.058594 7.484375 8.050781 7.492188 8.042969 7.5 C 8.039062 7.503906 8.035156 7.507812 8.03125 7.511719 C 8.019531 7.523438 8.011719 7.53125 8 7.542969 C 7.988281 7.53125 7.976562 7.523438 7.96875 7.511719 C 7.964844 7.507812 7.960938 7.503906 7.957031 7.5 C 7.949219 7.492188 7.941406 7.484375 7.933594 7.476562 C 7.933594 7.472656 7.929688 7.46875 7.929688 7.46875 C 7.921875 7.457031 7.914062 7.449219 7.910156 7.441406 C 7.90625 7.433594 7.902344 7.429688 7.898438 7.421875 C 7.894531 7.414062 7.890625 7.410156 7.886719 7.402344 C 7.882812 7.394531 7.878906 7.386719 7.875 7.378906 C 7.875 7.371094 7.871094 7.367188 7.871094 7.363281 C 7.867188 7.355469 7.863281 7.34375 7.859375 7.335938 C 7.859375 7.332031 7.855469 7.324219 7.855469 7.316406 C 7.851562 7.308594 7.851562 7.300781 7.851562 7.292969 C 7.847656 7.289062 7.847656 7.28125 7.847656 7.277344 C 7.847656 7.269531 7.847656 7.257812 7.84375 7.25 C 7.84375 7.242188 7.84375 7.238281 7.84375 7.230469 C 7.84375 7.222656 7.84375 7.21875 7.84375 7.210938 C 7.847656 7.203125 7.847656 7.191406 7.847656 7.183594 C 7.847656 7.179688 7.847656 7.171875 7.851562 7.167969 C 7.851562 7.160156 7.851562 7.152344 7.855469 7.144531 C 7.855469 7.136719 7.859375 7.132812 7.859375 7.125 C 7.863281 7.117188 7.867188 7.105469 7.871094 7.097656 C 7.871094 7.09375 7.875 7.089844 7.875 7.082031 C 7.878906 7.074219 7.882812 7.066406 7.886719 7.0625 C 7.890625 7.054688 7.894531 7.046875 7.898438 7.039062 C 7.902344 7.03125 7.90625 7.027344 7.910156 7.019531 C 7.914062 7.011719 7.921875 7.003906 7.929688 6.996094 C 7.929688 6.992188 7.933594 6.988281 7.933594 6.984375 C 7.941406 6.976562 7.949219 6.96875 7.957031 6.960938 C 7.960938 6.957031 7.964844 6.953125 7.96875 6.949219 C 7.976562 6.9375 7.988281 6.929688 8 6.917969 Z M 7.441406 7.671875 C 7.476562 7.671875 7.511719 7.675781 7.546875 7.683594 C 7.582031 7.816406 7.542969 7.957031 7.449219 8.050781 C 7.351562 8.148438 7.210938 8.1875 7.078125 8.152344 C 7.042969 8.019531 7.082031 7.878906 7.179688 7.78125 C 7.25 7.710938 7.34375 7.671875 7.441406 7.671875 Z M 8.558594 7.671875 C 8.65625 7.671875 8.75 7.710938 8.820312 7.78125 C 8.917969 7.878906 8.957031 8.019531 8.921875 8.152344 C 8.789062 8.1875 8.648438 8.148438 8.550781 8.050781 C 8.457031 7.957031 8.417969 7.816406 8.453125 7.683594 C 8.488281 7.675781 8.523438 7.671875 8.558594 7.671875 Z M 8 8.164062 C 8.007812 8.164062 8.015625 8.164062 8.023438 8.164062 C 8.023438 8.164062 8.023438 8.164062 8.027344 8.164062 C 8.035156 8.164062 8.042969 8.167969 8.050781 8.167969 C 8.054688 8.167969 8.058594 8.167969 8.058594 8.167969 C 8.066406 8.171875 8.074219 8.171875 8.082031 8.175781 C 8.082031 8.175781 8.085938 8.175781 8.089844 8.175781 C 8.097656 8.179688 8.105469 8.183594 8.117188 8.1875 C 8.125 8.191406 8.132812 8.195312 8.140625 8.195312 C 8.140625 8.199219 8.144531 8.199219 8.148438 8.203125 C 8.152344 8.203125 8.15625 8.207031 8.160156 8.207031 C 8.164062 8.210938 8.171875 8.214844 8.179688 8.222656 C 8.183594 8.226562 8.191406 8.230469 8.195312 8.234375 C 8.203125 8.242188 8.210938 8.246094 8.21875 8.253906 C 8.226562 8.261719 8.234375 8.269531 8.238281 8.277344 C 8.246094 8.285156 8.25 8.289062 8.253906 8.296875 C 8.257812 8.300781 8.261719 8.308594 8.265625 8.316406 C 8.269531 8.320312 8.269531 8.324219 8.273438 8.328125 C 8.273438 8.328125 8.277344 8.332031 8.277344 8.335938 C 8.28125 8.34375 8.285156 8.351562 8.289062 8.359375 C 8.292969 8.367188 8.292969 8.375 8.296875 8.386719 C 8.296875 8.386719 8.300781 8.390625 8.300781 8.394531 C 8.300781 8.402344 8.304688 8.40625 8.304688 8.414062 C 8.304688 8.417969 8.304688 8.417969 8.304688 8.421875 C 8.308594 8.429688 8.308594 8.4375 8.308594 8.445312 C 8.308594 8.449219 8.308594 8.449219 8.308594 8.453125 C 8.308594 8.460938 8.308594 8.46875 8.3125 8.476562 C 8.308594 8.480469 8.308594 8.488281 8.308594 8.496094 C 8.308594 8.5 8.308594 8.5 8.308594 8.503906 C 8.308594 8.511719 8.308594 8.519531 8.304688 8.527344 C 8.304688 8.53125 8.304688 8.53125 8.304688 8.535156 C 8.304688 8.542969 8.300781 8.546875 8.300781 8.554688 C 8.300781 8.558594 8.296875 8.5625 8.296875 8.5625 C 8.292969 8.574219 8.292969 8.582031 8.289062 8.589844 C 8.285156 8.597656 8.28125 8.605469 8.277344 8.613281 C 8.277344 8.617188 8.273438 8.621094 8.273438 8.621094 C 8.269531 8.625 8.269531 8.628906 8.265625 8.632812 C 8.261719 8.640625 8.257812 8.648438 8.253906 8.652344 C 8.25 8.660156 8.246094 8.664062 8.238281 8.671875 C 8.234375 8.679688 8.226562 8.6875 8.21875 8.695312 C 8.210938 8.703125 8.203125 8.707031 8.195312 8.714844 C 8.191406 8.71875 8.183594 8.722656 8.179688 8.730469 C 8.171875 8.734375 8.164062 8.738281 8.160156 8.742188 C 8.15625 8.742188 8.152344 8.746094 8.148438 8.75 C 8.144531 8.75 8.140625 8.75 8.140625 8.753906 C 8.132812 8.757812 8.125 8.757812 8.117188 8.761719 C 8.105469 8.765625 8.097656 8.769531 8.089844 8.773438 C 8.085938 8.773438 8.082031 8.773438 8.082031 8.773438 C 8.074219 8.777344 8.066406 8.777344 8.058594 8.78125 C 8.058594 8.78125 8.054688 8.78125 8.050781 8.78125 C 8.042969 8.78125 8.035156 8.785156 8.027344 8.785156 C 8.023438 8.785156 8.023438 8.785156 8.023438 8.785156 C 8.015625 8.785156 8.007812 8.785156 8 8.785156 C 7.992188 8.785156 7.984375 8.785156 7.976562 8.785156 C 7.976562 8.785156 7.972656 8.785156 7.972656 8.785156 C 7.964844 8.785156 7.957031 8.78125 7.949219 8.78125 C 7.945312 8.78125 7.941406 8.78125 7.941406 8.78125 C 7.933594 8.777344 7.925781 8.777344 7.917969 8.773438 C 7.914062 8.773438 7.914062 8.773438 7.910156 8.773438 C 7.902344 8.769531 7.890625 8.765625 7.882812 8.761719 C 7.875 8.757812 7.867188 8.757812 7.859375 8.753906 C 7.855469 8.75 7.855469 8.75 7.851562 8.75 C 7.847656 8.746094 7.84375 8.742188 7.839844 8.742188 C 7.832031 8.738281 7.828125 8.734375 7.820312 8.730469 C 7.8125 8.722656 7.808594 8.71875 7.804688 8.714844 C 7.792969 8.707031 7.785156 8.703125 7.78125 8.695312 C 7.773438 8.6875 7.765625 8.679688 7.757812 8.671875 C 7.753906 8.664062 7.75 8.660156 7.746094 8.652344 C 7.742188 8.648438 7.738281 8.640625 7.734375 8.632812 C 7.730469 8.628906 7.726562 8.625 7.726562 8.621094 C 7.726562 8.621094 7.722656 8.617188 7.722656 8.613281 C 7.71875 8.605469 7.714844 8.597656 7.710938 8.589844 C 7.707031 8.582031 7.703125 8.574219 7.703125 8.5625 C 7.699219 8.5625 7.699219 8.558594 7.699219 8.554688 C 7.699219 8.546875 7.695312 8.542969 7.695312 8.535156 C 7.695312 8.53125 7.695312 8.53125 7.695312 8.527344 C 7.691406 8.519531 7.691406 8.511719 7.691406 8.503906 C 7.691406 8.5 7.691406 8.5 7.691406 8.496094 C 7.6875 8.488281 7.6875 8.480469 7.6875 8.476562 C 7.6875 8.46875 7.6875 8.460938 7.691406 8.453125 C 7.691406 8.449219 7.691406 8.449219 7.691406 8.445312 C 7.691406 8.4375 7.691406 8.429688 7.695312 8.421875 C 7.695312 8.417969 7.695312 8.417969 7.695312 8.414062 C 7.695312 8.40625 7.699219 8.402344 7.699219 8.394531 C 7.699219 8.390625 7.699219 8.386719 7.703125 8.386719 C 7.703125 8.375 7.707031 8.367188 7.710938 8.359375 C 7.714844 8.351562 7.71875 8.34375 7.722656 8.335938 C 7.722656 8.332031 7.726562 8.328125 7.726562 8.328125 C 7.726562 8.324219 7.730469 8.320312 7.734375 8.316406 C 7.738281 8.308594 7.742188 8.300781 7.746094 8.296875 C 7.75 8.289062 7.753906 8.285156 7.757812 8.277344 C 7.765625 8.269531 7.773438 8.261719 7.78125 8.253906 C 7.789062 8.246094 7.792969 8.242188 7.804688 8.234375 C 7.808594 8.230469 7.816406 8.226562 7.820312 8.222656 C 7.828125 8.214844 7.832031 8.210938 7.839844 8.207031 C 7.84375 8.207031 7.847656 8.203125 7.851562 8.203125 C 7.855469 8.199219 7.855469 8.199219 7.859375 8.195312 C 7.867188 8.195312 7.875 8.191406 7.882812 8.1875 C 7.890625 8.183594 7.902344 8.179688 7.910156 8.175781 C 7.914062 8.175781 7.917969 8.175781 7.917969 8.175781 C 7.925781 8.171875 7.933594 8.171875 7.941406 8.167969 C 7.941406 8.167969 7.945312 8.167969 7.949219 8.167969 C 7.957031 8.167969 7.964844 8.164062 7.972656 8.164062 C 7.972656 8.164062 7.976562 8.164062 7.976562 8.164062 C 7.984375 8.164062 7.992188 8.164062 8 8.164062 Z M 6.75 8.320312 C 6.867188 8.316406 6.984375 8.375 7.066406 8.476562 C 6.894531 8.683594 6.617188 8.683594 6.445312 8.476562 C 6.523438 8.378906 6.632812 8.320312 6.75 8.320312 Z M 9.25 8.320312 C 9.363281 8.320312 9.472656 8.378906 9.554688 8.476562 C 9.382812 8.683594 9.105469 8.683594 8.933594 8.476562 C 9.015625 8.375 9.132812 8.316406 9.25 8.320312 Z M 7.171875 8.914062 C 7.273438 8.914062 7.375 8.953125 7.449219 9.027344 C 7.542969 9.125 7.582031 9.261719 7.546875 9.394531 C 7.414062 9.429688 7.273438 9.394531 7.175781 9.296875 C 7.082031 9.199219 7.042969 9.058594 7.078125 8.929688 C 7.109375 8.921875 7.140625 8.914062 7.171875 8.914062 Z M 8.828125 8.914062 C 8.859375 8.914062 8.890625 8.921875 8.917969 8.929688 C 8.957031 9.058594 8.917969 9.199219 8.820312 9.296875 C 8.726562 9.394531 8.585938 9.429688 8.453125 9.394531 C 8.417969 9.261719 8.457031 9.125 8.550781 9.027344 C 8.625 8.953125 8.722656 8.914062 8.828125 8.914062 Z M 8 9.40625 C 8.011719 9.417969 8.023438 9.425781 8.03125 9.4375 C 8.035156 9.441406 8.039062 9.445312 8.042969 9.449219 C 8.050781 9.457031 8.058594 9.464844 8.066406 9.472656 C 8.066406 9.476562 8.070312 9.480469 8.070312 9.484375 C 8.078125 9.492188 8.085938 9.5 8.089844 9.507812 C 8.09375 9.515625 8.097656 9.519531 8.101562 9.527344 C 8.105469 9.535156 8.109375 9.542969 8.113281 9.546875 C 8.117188 9.554688 8.121094 9.5625 8.125 9.570312 C 8.125 9.578125 8.128906 9.582031 8.132812 9.585938 C 8.132812 9.59375 8.136719 9.605469 8.140625 9.613281 C 8.140625 9.621094 8.144531 9.625 8.144531 9.632812 C 8.148438 9.640625 8.148438 9.648438 8.148438 9.65625 C 8.152344 9.660156 8.152344 9.667969 8.152344 9.671875 C 8.152344 9.679688 8.152344 9.691406 8.15625 9.699219 C 8.15625 9.707031 8.15625 9.710938 8.15625 9.71875 C 8.15625 9.726562 8.15625 9.730469 8.15625 9.738281 C 8.152344 9.746094 8.152344 9.757812 8.152344 9.765625 C 8.152344 9.769531 8.152344 9.777344 8.148438 9.78125 C 8.148438 9.789062 8.148438 9.796875 8.144531 9.804688 C 8.144531 9.8125 8.140625 9.816406 8.140625 9.824219 C 8.136719 9.832031 8.132812 9.84375 8.128906 9.851562 C 8.128906 9.855469 8.125 9.859375 8.125 9.867188 C 8.121094 9.875 8.117188 9.882812 8.113281 9.890625 C 8.109375 9.894531 8.105469 9.902344 8.101562 9.910156 C 8.097656 9.917969 8.09375 9.921875 8.089844 9.929688 C 8.085938 9.9375 8.078125 9.945312 8.070312 9.953125 C 8.070312 9.957031 8.066406 9.960938 8.066406 9.964844 C 8.058594 9.972656 8.050781 9.980469 8.042969 9.988281 C 8.039062 9.992188 8.035156 9.996094 8.03125 10 C 8.023438 10.011719 8.011719 10.019531 8 10.03125 C 7.988281 10.019531 7.980469 10.011719 7.96875 10 C 7.964844 9.996094 7.960938 9.992188 7.957031 9.988281 C 7.949219 9.980469 7.941406 9.972656 7.933594 9.964844 C 7.933594 9.960938 7.929688 9.957031 7.929688 9.953125 C 7.921875 9.945312 7.914062 9.9375 7.910156 9.929688 C 7.90625 9.921875 7.902344 9.917969 7.898438 9.910156 C 7.894531 9.902344 7.890625 9.894531 7.886719 9.890625 C 7.882812 9.882812 7.878906 9.875 7.875 9.867188 C 7.875 9.859375 7.871094 9.855469 7.871094 9.851562 C 7.867188 9.84375 7.863281 9.832031 7.859375 9.824219 C 7.859375 9.816406 7.855469 9.8125 7.855469 9.804688 C 7.855469 9.796875 7.851562 9.789062 7.851562 9.78125 C 7.851562 9.777344 7.847656 9.769531 7.847656 9.765625 C 7.847656 9.757812 7.847656 9.746094 7.847656 9.738281 C 7.84375 9.730469 7.84375 9.726562 7.84375 9.71875 C 7.84375 9.710938 7.84375 9.707031 7.847656 9.699219 C 7.847656 9.691406 7.847656 9.679688 7.847656 9.671875 C 7.847656 9.667969 7.851562 9.660156 7.851562 9.65625 C 7.851562 9.648438 7.855469 9.640625 7.855469 9.632812 C 7.855469 9.625 7.859375 9.621094 7.859375 9.613281 C 7.863281 9.605469 7.867188 9.59375 7.871094 9.585938 C 7.871094 9.582031 7.875 9.578125 7.875 9.570312 C 7.878906 9.5625 7.882812 9.554688 7.886719 9.546875 C 7.890625 9.542969 7.894531 9.535156 7.898438 9.527344 C 7.902344 9.519531 7.90625 9.515625 7.910156 9.507812 C 7.914062 9.5 7.921875 9.492188 7.929688 9.484375 C 7.929688 9.480469 7.933594 9.476562 7.933594 9.472656 C 7.941406 9.464844 7.949219 9.457031 7.957031 9.449219 C 7.960938 9.445312 7.964844 9.441406 7.96875 9.4375 C 7.980469 9.425781 7.988281 9.417969 8 9.40625 Z M 8 9.40625 "/>
</g>
</defs>
<g id="surface1">
<path style=" stroke:none;fill-rule:evenodd;fill:rgb(80%,80%,80%);fill-opacity:1;" d="M 10.59375 1 L 3.769531 1 C 2.234375 1 1 2.234375 1 3.765625 L 1 12.230469 C 1 13.765625 2.234375 15 3.769531 15 L 12.234375 15 C 13.765625 15 15 13.765625 15 12.230469 L 15 5.40625 Z M 10.59375 1 "/>
<path style=" stroke:none;fill-rule:evenodd;fill:rgb(60%,60%,60%);fill-opacity:1;" d="M 15 5.40625 L 10.59375 1 L 10.59375 2.640625 C 10.59375 4.171875 11.828125 5.40625 13.359375 5.40625 Z M 15 5.40625 "/>
<use xlink:href="#surface6" mask="url(#mask0)"/>
</g>
</svg>
