<?xml version="1.0" encoding="UTF-8"?>
<svg xmlns="http://www.w3.org/2000/svg" xmlns:xlink="http://www.w3.org/1999/xlink" width="16pt" height="16pt" viewBox="0 0 16 16" version="1.1">
<g id="surface1">
<path style=" stroke:none;fill-rule:evenodd;fill:rgb(80%,80%,80%);fill-opacity:1;" d="M 10.59375 1 L 3.769531 1 C 2.234375 1 1 2.234375 1 3.765625 L 1 12.230469 C 1 13.765625 2.234375 15 3.769531 15 L 12.234375 15 C 13.765625 15 15 13.765625 15 12.230469 L 15 5.40625 Z M 10.59375 1 "/>
<path style=" stroke:none;fill-rule:evenodd;fill:rgb(60%,60%,60%);fill-opacity:1;" d="M 15 5.40625 L 10.59375 1 L 10.59375 2.640625 C 10.59375 4.171875 11.828125 5.40625 13.359375 5.40625 Z M 15 5.40625 "/>
<path style=" stroke:none;fill-rule:nonzero;fill:rgb(60%,60%,60%);fill-opacity:1;" d="M 7.128906 5.058594 L 7.0625 5.847656 C 6.730469 5.96875 6.421875 6.144531 6.152344 6.378906 L 5.421875 6.035156 L 4.550781 7.53125 L 5.226562 7.996094 C 5.195312 8.164062 5.179688 8.335938 5.179688 8.507812 C 5.179688 8.679688 5.195312 8.851562 5.226562 9.023438 L 4.550781 9.484375 L 5.421875 10.980469 L 6.152344 10.640625 C 6.421875 10.871094 6.730469 11.050781 7.0625 11.167969 L 7.128906 11.957031 L 8.871094 11.957031 L 8.9375 11.167969 C 9.269531 11.050781 9.578125 10.871094 9.847656 10.636719 L 10.578125 10.980469 L 11.449219 9.484375 L 10.773438 9.019531 C 10.804688 8.851562 10.820312 8.679688 10.820312 8.507812 C 10.820312 8.335938 10.804688 8.164062 10.773438 7.996094 L 11.449219 7.53125 L 10.578125 6.039062 L 9.847656 6.378906 C 9.582031 6.144531 9.269531 5.96875 8.9375 5.851562 L 8.871094 5.058594 Z M 8 7.253906 C 8.691406 7.253906 9.253906 7.816406 9.253906 8.507812 C 9.253906 9.199219 8.691406 9.761719 8 9.761719 C 7.308594 9.761719 6.746094 9.199219 6.746094 8.507812 C 6.746094 7.816406 7.308594 7.253906 8 7.253906 Z M 8 7.253906 "/>
</g>
</svg>
