<?xml version="1.0" encoding="UTF-8"?>
<svg xmlns="http://www.w3.org/2000/svg" xmlns:xlink="http://www.w3.org/1999/xlink" width="16pt" height="16pt" viewBox="0 0 16 16" version="1.1">
<defs>
<filter id="alpha" filterUnits="objectBoundingBox" x="0%" y="0%" width="100%" height="100%">
  <feColorMatrix type="matrix" in="SourceGraphic" values="0 0 0 0 1 0 0 0 0 1 0 0 0 0 1 0 0 0 1 0"/>
</filter>
<mask id="mask0">
  <g filter="url(#alpha)">
<rect x="0" y="0" width="16" height="16" style="fill:rgb(0%,0%,0%);fill-opacity:0.501961;stroke:none;"/>
  </g>
</mask>
<clipPath id="clip1">
  <rect width="16" height="16"/>
</clipPath>
<g id="surface6" clip-path="url(#clip1)">
<path style=" stroke:none;fill-rule:nonzero;fill:rgb(60%,60%,60%);fill-opacity:1;" d="M 8 4.851562 C 6.039062 4.851562 4.449219 6.441406 4.449219 8.40625 C 4.449219 10.367188 6.039062 11.957031 8 11.957031 C 9.960938 11.957031 11.550781 10.367188 11.550781 8.40625 C 11.550781 6.441406 9.960938 4.851562 8 4.851562 Z M 8 5.613281 C 9.542969 5.613281 10.792969 6.863281 10.792969 8.40625 C 10.792969 9.945312 9.542969 11.195312 8 11.195312 C 6.457031 11.195312 5.207031 9.945312 5.207031 8.40625 C 5.207031 6.863281 6.457031 5.613281 8 5.613281 Z M 8 5.613281 "/>
</g>
<mask id="mask1">
  <g filter="url(#alpha)">
<rect x="0" y="0" width="16" height="16" style="fill:rgb(0%,0%,0%);fill-opacity:0.501961;stroke:none;"/>
  </g>
</mask>
<clipPath id="clip2">
  <rect width="16" height="16"/>
</clipPath>
<g id="surface9" clip-path="url(#clip2)">
<path style=" stroke:none;fill-rule:nonzero;fill:rgb(60%,60%,60%);fill-opacity:1;" d="M 8 6.375 C 6.878906 6.375 5.96875 7.285156 5.96875 8.40625 C 5.96875 9.527344 6.878906 10.433594 8 10.433594 C 8.542969 10.433594 9.066406 10.214844 9.449219 9.828125 L 8.796875 9.394531 C 8.570312 9.574219 8.289062 9.675781 8 9.675781 C 7.300781 9.675781 6.730469 9.105469 6.730469 8.40625 C 6.730469 7.703125 7.300781 7.136719 8 7.136719 C 8.289062 7.136719 8.570312 7.238281 8.792969 7.417969 L 9.445312 6.984375 C 9.066406 6.59375 8.542969 6.375 8 6.375 Z M 8 6.375 "/>
</g>
</defs>
<g id="surface1">
<path style=" stroke:none;fill-rule:evenodd;fill:rgb(80%,80%,80%);fill-opacity:1;" d="M 10.59375 1 L 3.769531 1 C 2.234375 1 1 2.234375 1 3.765625 L 1 12.230469 C 1 13.765625 2.234375 15 3.769531 15 L 12.234375 15 C 13.765625 15 15 13.765625 15 12.230469 L 15 5.40625 Z M 10.59375 1 "/>
<path style=" stroke:none;fill-rule:evenodd;fill:rgb(60%,60%,60%);fill-opacity:1;" d="M 15 5.40625 L 10.59375 1 L 10.59375 2.640625 C 10.59375 4.171875 11.828125 5.40625 13.359375 5.40625 Z M 15 5.40625 "/>
<use xlink:href="#surface6" mask="url(#mask0)"/>
<use xlink:href="#surface9" mask="url(#mask1)"/>
</g>
</svg>
