<?xml version="1.0" encoding="UTF-8"?>
<svg xmlns="http://www.w3.org/2000/svg" xmlns:xlink="http://www.w3.org/1999/xlink" width="16pt" height="16pt" viewBox="0 0 16 16" version="1.1">
<g id="surface1">
<path style=" stroke:none;fill-rule:evenodd;fill:rgb(80%,80%,80%);fill-opacity:1;" d="M 10.59375 1 L 3.769531 1 C 2.234375 1 1 2.234375 1 3.765625 L 1 12.230469 C 1 13.765625 2.234375 15 3.769531 15 L 12.234375 15 C 13.765625 15 15 13.765625 15 12.230469 L 15 5.40625 Z M 10.59375 1 "/>
<path style=" stroke:none;fill-rule:evenodd;fill:rgb(50.196078%,50.196078%,50.196078%);fill-opacity:1;" d="M 15 5.40625 L 10.59375 1 L 10.59375 2.640625 C 10.59375 4.171875 11.828125 5.40625 13.359375 5.40625 Z M 15 5.40625 "/>
<path style=" stroke:none;fill-rule:nonzero;fill:rgb(40%,40%,40%);fill-opacity:1;" d="M 7.949219 4.738281 C 7.050781 4.738281 6.199219 5.332031 6.253906 5.96875 L 6.253906 6.8125 L 5.636719 6.8125 C 4.996094 6.8125 4.480469 7.386719 4.480469 8.28125 L 4.480469 8.746094 C 4.480469 9.644531 4.996094 10.367188 5.636719 10.367188 L 6.167969 10.367188 L 6.167969 9.441406 C 6.167969 8.925781 6.742188 8.589844 7.253906 8.589844 L 9.105469 8.589844 C 9.105469 8.589844 10.105469 8.515625 10.105469 7.589844 L 10.105469 5.96875 C 10.105469 5.328125 9.308594 4.738281 8.410156 4.738281 Z M 7.292969 5.628906 C 7.535156 5.628906 7.734375 5.828125 7.734375 6.074219 C 7.734375 6.316406 7.535156 6.515625 7.292969 6.515625 C 7.046875 6.515625 6.847656 6.316406 6.847656 6.074219 C 6.847656 5.828125 7.046875 5.628906 7.292969 5.628906 Z M 7.292969 5.628906 "/>
<path style=" stroke:none;fill-rule:nonzero;fill:rgb(60%,60%,60%);fill-opacity:1;" d="M 8.324219 12.617188 C 9.21875 12.617188 10.070312 12.023438 10.015625 11.386719 L 10.015625 10.542969 L 10.636719 10.542969 C 11.277344 10.542969 11.792969 9.96875 11.792969 9.074219 L 11.792969 8.609375 C 11.792969 7.710938 11.277344 6.992188 10.636719 6.992188 L 10.105469 6.992188 L 10.105469 7.914062 C 10.105469 8.429688 9.527344 8.765625 9.015625 8.765625 L 7.164062 8.765625 C 7.164062 8.765625 6.167969 8.878906 6.167969 9.804688 L 6.167969 11.386719 C 6.167969 12.027344 6.960938 12.617188 7.859375 12.617188 Z M 8.980469 11.726562 C 8.734375 11.726562 8.535156 11.527344 8.535156 11.285156 C 8.535156 11.039062 8.734375 10.839844 8.980469 10.839844 C 9.226562 10.839844 9.421875 11.039062 9.421875 11.285156 C 9.421875 11.527344 9.226562 11.726562 8.980469 11.726562 Z M 8.980469 11.726562 "/>
</g>
</svg>
