<?xml version="1.0" encoding="UTF-8"?>
<svg xmlns="http://www.w3.org/2000/svg" xmlns:xlink="http://www.w3.org/1999/xlink" width="16pt" height="16pt" viewBox="0 0 16 16" version="1.1">
<g id="surface1">
<path style=" stroke:none;fill-rule:evenodd;fill:rgb(80%,80%,80%);fill-opacity:1;" d="M 10.59375 1 L 3.769531 1 C 2.234375 1 1 2.234375 1 3.765625 L 1 12.230469 C 1 13.765625 2.234375 15 3.769531 15 L 12.234375 15 C 13.765625 15 15 13.765625 15 12.230469 L 15 5.40625 Z M 10.59375 1 "/>
<path style=" stroke:none;fill-rule:evenodd;fill:rgb(60%,60%,60%);fill-opacity:1;" d="M 15 5.40625 L 10.59375 1 L 10.59375 2.640625 C 10.59375 4.171875 11.828125 5.40625 13.359375 5.40625 Z M 15 5.40625 "/>
<path style=" stroke:none;fill-rule:evenodd;fill:rgb(60%,60%,60%);fill-opacity:1;" d="M 5.191406 5.539062 L 5.191406 11.546875 L 7.265625 11.546875 L 7.265625 9.578125 L 7.488281 9.578125 C 7.5 9.585938 7.523438 9.609375 7.546875 9.628906 C 7.722656 9.867188 7.933594 10.304688 8.085938 10.679688 C 8.246094 11.0625 8.351562 11.378906 8.351562 11.378906 L 8.410156 11.546875 L 10.960938 11.546875 L 9.859375 9.355469 C 9.859375 9.355469 9.8125 9.25 9.71875 9.148438 C 9.667969 9.09375 9.628906 9.078125 9.578125 9.046875 C 9.953125 8.769531 10.382812 8.316406 10.414062 7.371094 L 10.414062 7.355469 C 10.386719 6.582031 9.964844 6.09375 9.523438 5.84375 C 9.078125 5.589844 8.636719 5.539062 8.425781 5.539062 Z M 8.226562 7.21875 C 8.226562 7.21875 8.226562 7.214844 8.25 7.230469 C 8.273438 7.246094 8.339844 7.292969 8.339844 7.558594 C 8.339844 7.804688 8.277344 7.855469 8.246094 7.878906 C 8.214844 7.902344 8.207031 7.898438 8.207031 7.898438 L 7.265625 7.898438 L 7.265625 7.21875 Z M 8.226562 7.21875 "/>
</g>
</svg>
