<?xml version="1.0" encoding="UTF-8"?>
<svg xmlns="http://www.w3.org/2000/svg" xmlns:xlink="http://www.w3.org/1999/xlink" width="16pt" height="16pt" viewBox="0 0 16 16" version="1.1">
<g id="surface1">
<path style=" stroke:none;fill-rule:evenodd;fill:rgb(80%,80%,80%);fill-opacity:1;" d="M 10.59375 1 L 3.769531 1 C 2.234375 1 1 2.234375 1 3.765625 L 1 12.230469 C 1 13.765625 2.234375 15 3.769531 15 L 12.234375 15 C 13.765625 15 15 13.765625 15 12.230469 L 15 5.40625 Z M 10.59375 1 "/>
<path style=" stroke:none;fill-rule:evenodd;fill:rgb(60%,60%,60%);fill-opacity:1;" d="M 15 5.40625 L 10.59375 1 L 10.59375 2.640625 C 10.59375 4.171875 11.828125 5.40625 13.359375 5.40625 Z M 15 5.40625 "/>
<path style=" stroke:none;fill-rule:nonzero;fill:rgb(60%,60%,60%);fill-opacity:1;" d="M 4.1875 4.1875 L 6.253906 8 L 4.1875 11.8125 L 5.457031 11.8125 L 7.523438 8 L 5.457031 4.1875 Z M 6.09375 4.1875 L 8.160156 8 L 6.09375 11.8125 L 7.363281 11.8125 L 8.792969 9.175781 L 10.222656 11.8125 L 11.496094 11.8125 L 7.363281 4.1875 Z M 9.375 6.730469 L 9.894531 7.683594 L 11.8125 7.683594 L 11.8125 6.730469 Z M 10.238281 8.316406 L 10.753906 9.269531 L 11.8125 9.269531 L 11.8125 8.316406 Z M 10.238281 8.316406 "/>
</g>
</svg>
