<?xml version="1.0" encoding="UTF-8"?>
<svg xmlns="http://www.w3.org/2000/svg" xmlns:xlink="http://www.w3.org/1999/xlink" width="16pt" height="16pt" viewBox="0 0 16 16" version="1.1">
<g id="surface1">
<path style=" stroke:none;fill-rule:evenodd;fill:rgb(80%,80%,80%);fill-opacity:1;" d="M 10.59375 1 L 3.769531 1 C 2.234375 1 1 2.234375 1 3.765625 L 1 12.230469 C 1 13.765625 2.234375 15 3.769531 15 L 12.234375 15 C 13.765625 15 15 13.765625 15 12.230469 L 15 5.40625 Z M 10.59375 1 "/>
<path style=" stroke:none;fill-rule:evenodd;fill:rgb(60%,60%,60%);fill-opacity:1;" d="M 15 5.40625 L 10.59375 1 L 10.59375 2.640625 C 10.59375 4.171875 11.828125 5.40625 13.359375 5.40625 Z M 15 5.40625 "/>
<path style=" stroke:none;fill-rule:nonzero;fill:rgb(60%,60%,60%);fill-opacity:1;" d="M 8 5.453125 C 7.542969 5.453125 7.132812 5.578125 6.820312 5.816406 C 6.511719 6.054688 6.320312 6.378906 6.203125 6.703125 C 5.972656 7.355469 5.992188 8.046875 5.992188 8.609375 C 5.992188 9.171875 5.972656 9.863281 6.203125 10.515625 C 6.320312 10.839844 6.511719 11.164062 6.820312 11.402344 C 7.132812 11.640625 7.542969 11.765625 8 11.765625 C 8.792969 11.765625 9.289062 11.613281 9.613281 11.355469 C 9.777344 11.222656 9.886719 11.066406 9.941406 10.929688 C 10 10.792969 10.007812 10.617188 10.007812 10.617188 L 10.007812 10.046875 L 8.859375 10.046875 L 8.859375 10.464844 C 8.8125 10.5 8.613281 10.617188 8 10.617188 C 7.738281 10.617188 7.613281 10.5625 7.519531 10.492188 C 7.425781 10.421875 7.347656 10.3125 7.285156 10.132812 C 7.15625 9.773438 7.140625 9.171875 7.140625 8.609375 C 7.140625 8.046875 7.15625 7.449219 7.285156 7.089844 C 7.347656 6.910156 7.425781 6.800781 7.519531 6.726562 C 7.613281 6.65625 7.738281 6.601562 8 6.601562 C 8.613281 6.601562 8.8125 6.722656 8.859375 6.757812 L 8.859375 7.175781 L 10.007812 7.175781 L 10.007812 6.601562 C 10.007812 6.601562 10 6.429688 9.941406 6.289062 C 9.886719 6.152344 9.777344 5.996094 9.613281 5.867188 C 9.289062 5.605469 8.792969 5.453125 8 5.453125 Z M 8 5.453125 "/>
</g>
</svg>
