<?xml version="1.0" encoding="UTF-8"?>
<svg xmlns="http://www.w3.org/2000/svg" xmlns:xlink="http://www.w3.org/1999/xlink" width="16pt" height="16pt" viewBox="0 0 16 16" version="1.1">
<g id="surface1">
<path style=" stroke:none;fill-rule:evenodd;fill:rgb(80%,80%,80%);fill-opacity:1;" d="M 10.59375 1 L 3.769531 1 C 2.234375 1 1 2.234375 1 3.765625 L 1 12.230469 C 1 13.765625 2.234375 15 3.769531 15 L 12.234375 15 C 13.765625 15 15 13.765625 15 12.230469 L 15 5.40625 Z M 10.59375 1 "/>
<path style=" stroke:none;fill-rule:evenodd;fill:rgb(60%,60%,60%);fill-opacity:1;" d="M 15 5.40625 L 10.59375 1 L 10.59375 2.640625 C 10.59375 4.171875 11.828125 5.40625 13.359375 5.40625 Z M 15 5.40625 "/>
<path style=" stroke:none;fill-rule:nonzero;fill:rgb(60%,60%,60%);fill-opacity:1;" d="M 8.136719 5.78125 C 7.308594 5.78125 6.636719 6.449219 6.636719 7.28125 C 6.636719 8.109375 7.308594 8.78125 8.136719 8.78125 C 8.964844 8.78125 9.636719 8.109375 9.636719 7.28125 C 9.636719 6.449219 8.964844 5.78125 8.136719 5.78125 Z M 6.707031 9.28125 C 5.636719 9.28125 5.636719 11.28125 5.636719 11.28125 L 10.636719 11.28125 C 10.636719 11.28125 10.636719 9.28125 9.5625 9.28125 Z M 6.707031 9.28125 "/>
</g>
</svg>
