<?xml version="1.0" encoding="UTF-8"?>
<svg xmlns="http://www.w3.org/2000/svg" xmlns:xlink="http://www.w3.org/1999/xlink" width="16pt" height="16pt" viewBox="0 0 16 16" version="1.1">
<g id="surface1">
<path style=" stroke:none;fill-rule:evenodd;fill:rgb(86.27451%,40.784314%,16.470588%);fill-opacity:1;" d="M 10.59375 1 L 3.769531 1 C 2.234375 1 1 2.234375 1 3.765625 L 1 12.230469 C 1 13.765625 2.234375 15 3.769531 15 L 12.234375 15 C 13.765625 15 15 13.765625 15 12.230469 L 15 5.40625 Z M 10.59375 1 "/>
<path style=" stroke:none;fill-rule:evenodd;fill:rgb(70.980392%,33.72549%,13.72549%);fill-opacity:1;" d="M 15 5.40625 L 10.59375 1 L 10.59375 2.640625 C 10.59375 4.171875 11.828125 5.40625 13.359375 5.40625 Z M 15 5.40625 "/>
<path style=" stroke:none;fill-rule:nonzero;fill:rgb(100%,76.470588%,56.470588%);fill-opacity:1;" d="M 5 10.246094 L 4 10.246094 L 4 11.246094 L 7.5 11.246094 L 7.5 10.246094 L 6.5 10.246094 L 6.5 9.246094 L 7 9.246094 C 8 9.246094 8 11.246094 9 11.246094 L 11 11.246094 C 12 11.246094 12 9.246094 12 9.246094 L 10.75 9.246094 C 10.75 9.246094 11 10.246094 10 10.246094 C 9.5 10.246094 9 9.246094 9 9.246094 L 9.25 9.246094 C 10.078125 9.246094 10.75 8.597656 10.75 7.746094 C 10.75 6.894531 10.078125 6.246094 9.25 6.246094 L 4 6.246094 L 4 7.246094 L 5 7.246094 M 8.75 7.246094 C 9.023438 7.246094 9.25 7.445312 9.25 7.746094 C 9.25 8.046875 9.023438 8.246094 8.75 8.246094 L 6.5 8.246094 L 6.5 7.246094 "/>
</g>
</svg>
