<?xml version="1.0" encoding="UTF-8"?>
<svg xmlns="http://www.w3.org/2000/svg" xmlns:xlink="http://www.w3.org/1999/xlink" width="16pt" height="16pt" viewBox="0 0 16 16" version="1.1">
<g id="surface1">
<path style=" stroke:none;fill-rule:evenodd;fill:rgb(95.686275%,26.27451%,21.176471%);fill-opacity:1;" d="M 10.59375 1 L 3.769531 1 C 2.234375 1 1 2.234375 1 3.765625 L 1 12.230469 C 1 13.765625 2.234375 15 3.769531 15 L 12.234375 15 C 13.765625 15 15 13.765625 15 12.230469 L 15 5.40625 Z M 10.59375 1 "/>
<path style=" stroke:none;fill-rule:evenodd;fill:rgb(78.823529%,21.568627%,17.254902%);fill-opacity:1;" d="M 15 5.40625 L 10.59375 1 L 10.59375 2.640625 C 10.59375 4.171875 11.828125 5.40625 13.359375 5.40625 Z M 15 5.40625 "/>
<path style=" stroke:none;fill-rule:nonzero;fill:rgb(95.294118%,69.019608%,55.686275%);fill-opacity:1;" d="M 5.269531 5.546875 L 3.753906 7.363281 L 5.878906 7.363281 Z M 5.980469 5.546875 L 6.179688 6.757812 L 7.191406 5.546875 Z M 8 5.546875 L 6.484375 7.363281 L 9.515625 7.363281 Z M 8.808594 5.546875 L 9.820312 6.757812 L 10.019531 5.546875 Z M 10.730469 5.546875 L 10.121094 7.363281 L 12.246094 7.363281 Z M 3.753906 7.972656 L 7.695312 12.21875 L 5.878906 7.972656 Z M 6.484375 7.972656 L 8 11.609375 L 9.515625 7.972656 Z M 10.121094 7.972656 L 8.304688 12.21875 L 12.246094 7.972656 Z M 10.121094 7.972656 "/>
</g>
</svg>
