<?xml version="1.0" encoding="UTF-8"?>
<svg xmlns="http://www.w3.org/2000/svg" xmlns:xlink="http://www.w3.org/1999/xlink" width="16pt" height="16pt" viewBox="0 0 16 16" version="1.1">
<g id="surface1">
<path style=" stroke:none;fill-rule:evenodd;fill:rgb(80%,80%,80%);fill-opacity:1;" d="M 10.59375 1 L 3.769531 1 C 2.234375 1 1 2.234375 1 3.765625 L 1 12.230469 C 1 13.765625 2.234375 15 3.769531 15 L 12.234375 15 C 13.765625 15 15 13.765625 15 12.230469 L 15 5.40625 Z M 10.59375 1 "/>
<path style=" stroke:none;fill-rule:evenodd;fill:rgb(60%,60%,60%);fill-opacity:1;" d="M 15 5.40625 L 10.59375 1 L 10.59375 2.640625 C 10.59375 4.171875 11.828125 5.40625 13.359375 5.40625 Z M 15 5.40625 "/>
<path style=" stroke:none;fill-rule:nonzero;fill:rgb(50.196078%,50.196078%,50.196078%);fill-opacity:1;" d="M 4.371094 3.429688 C 4.242188 3.429688 4.136719 3.53125 4.136719 3.664062 L 4.136719 5.078125 C 4.136719 5.207031 4.242188 5.3125 4.371094 5.3125 L 5.3125 5.3125 C 5.445312 5.3125 5.546875 5.207031 5.546875 5.078125 L 5.546875 3.664062 C 5.546875 3.53125 5.445312 3.429688 5.3125 3.429688 Z M 6.609375 3.429688 C 6.542969 3.429688 6.492188 3.480469 6.492188 3.546875 L 6.492188 5.195312 C 6.492188 5.257812 6.542969 5.3125 6.609375 5.3125 L 6.84375 5.3125 C 6.910156 5.3125 6.960938 5.257812 6.960938 5.195312 L 6.960938 3.546875 C 6.960938 3.480469 6.910156 3.429688 6.84375 3.429688 Z M 7.550781 3.429688 C 7.484375 3.429688 7.433594 3.480469 7.433594 3.546875 L 7.433594 5.195312 C 7.433594 5.257812 7.484375 5.3125 7.550781 5.3125 L 7.785156 5.3125 C 7.851562 5.3125 7.902344 5.257812 7.902344 5.195312 L 7.902344 3.546875 C 7.902344 3.480469 7.851562 3.429688 7.785156 3.429688 Z M 8.609375 3.429688 C 8.480469 3.429688 8.375 3.53125 8.375 3.664062 L 8.375 5.078125 C 8.375 5.207031 8.480469 5.3125 8.609375 5.3125 L 9.550781 5.3125 C 9.683594 5.3125 9.785156 5.207031 9.785156 5.078125 L 9.785156 3.664062 C 9.785156 3.53125 9.683594 3.429688 9.550781 3.429688 Z M 4.605469 3.898438 L 5.078125 3.898438 L 5.078125 4.839844 L 4.605469 4.839844 Z M 8.84375 3.898438 L 9.316406 3.898438 L 9.316406 4.839844 L 8.84375 4.839844 Z M 4.722656 6.253906 C 4.660156 6.253906 4.605469 6.304688 4.605469 6.371094 L 4.605469 8.019531 C 4.605469 8.085938 4.660156 8.136719 4.722656 8.136719 L 4.960938 8.136719 C 5.023438 8.136719 5.078125 8.085938 5.078125 8.019531 L 5.078125 6.371094 C 5.078125 6.304688 5.023438 6.253906 4.960938 6.253906 Z M 6.253906 6.253906 C 6.125 6.253906 6.019531 6.359375 6.019531 6.488281 L 6.019531 7.902344 C 6.019531 8.03125 6.125 8.136719 6.253906 8.136719 L 7.195312 8.136719 C 7.328125 8.136719 7.433594 8.03125 7.433594 7.902344 L 7.433594 6.488281 C 7.433594 6.359375 7.328125 6.253906 7.195312 6.253906 Z M 8.492188 6.253906 C 8.425781 6.253906 8.375 6.304688 8.375 6.371094 L 8.375 8.019531 C 8.375 8.085938 8.425781 8.136719 8.492188 8.136719 L 8.726562 8.136719 C 8.792969 8.136719 8.84375 8.085938 8.84375 8.019531 L 8.84375 6.371094 C 8.84375 6.304688 8.792969 6.253906 8.726562 6.253906 Z M 9.433594 6.253906 C 9.367188 6.253906 9.316406 6.304688 9.316406 6.371094 L 9.316406 8.019531 C 9.316406 8.085938 9.367188 8.136719 9.433594 8.136719 L 9.667969 8.136719 C 9.734375 8.136719 9.785156 8.085938 9.785156 8.019531 L 9.785156 6.371094 C 9.785156 6.304688 9.734375 6.253906 9.667969 6.253906 Z M 10.492188 6.253906 C 10.363281 6.253906 10.257812 6.359375 10.257812 6.488281 L 10.257812 7.902344 C 10.257812 8.03125 10.363281 8.136719 10.492188 8.136719 L 11.433594 8.136719 C 11.566406 8.136719 11.671875 8.03125 11.671875 7.902344 L 11.671875 6.488281 C 11.671875 6.359375 11.566406 6.253906 11.433594 6.253906 Z M 6.492188 6.722656 L 6.960938 6.722656 L 6.960938 7.667969 L 6.492188 7.667969 Z M 10.730469 6.722656 L 11.199219 6.722656 L 11.199219 7.667969 L 10.730469 7.667969 Z M 4.371094 8.609375 C 4.242188 8.609375 4.136719 8.714844 4.136719 8.84375 L 4.136719 10.257812 C 4.136719 10.386719 4.242188 10.492188 4.371094 10.492188 L 5.3125 10.492188 C 5.445312 10.492188 5.546875 10.386719 5.546875 10.257812 L 5.546875 8.84375 C 5.546875 8.714844 5.445312 8.609375 5.3125 8.609375 Z M 6.253906 8.609375 C 6.125 8.609375 6.019531 8.714844 6.019531 8.84375 L 6.019531 10.257812 C 6.019531 10.386719 6.125 10.492188 6.253906 10.492188 L 7.195312 10.492188 C 7.328125 10.492188 7.433594 10.386719 7.433594 10.257812 L 7.433594 8.84375 C 7.433594 8.714844 7.328125 8.609375 7.195312 8.609375 Z M 8.492188 8.609375 C 8.425781 8.609375 8.375 8.660156 8.375 8.726562 L 8.375 10.375 C 8.375 10.441406 8.425781 10.492188 8.492188 10.492188 L 8.726562 10.492188 C 8.792969 10.492188 8.84375 10.441406 8.84375 10.375 L 8.84375 8.726562 C 8.84375 8.660156 8.792969 8.609375 8.726562 8.609375 Z M 9.433594 8.609375 C 9.367188 8.609375 9.316406 8.660156 9.316406 8.726562 L 9.316406 10.375 C 9.316406 10.441406 9.367188 10.492188 9.433594 10.492188 L 9.667969 10.492188 C 9.734375 10.492188 9.785156 10.441406 9.785156 10.375 L 9.785156 8.726562 C 9.785156 8.660156 9.734375 8.609375 9.667969 8.609375 Z M 10.492188 8.609375 C 10.363281 8.609375 10.257812 8.714844 10.257812 8.84375 L 10.257812 10.257812 C 10.257812 10.386719 10.363281 10.492188 10.492188 10.492188 L 11.433594 10.492188 C 11.566406 10.492188 11.671875 10.386719 11.671875 10.257812 L 11.671875 8.84375 C 11.671875 8.714844 11.566406 8.609375 11.433594 8.609375 Z M 4.605469 9.078125 L 5.078125 9.078125 L 5.078125 10.019531 L 4.605469 10.019531 Z M 6.492188 9.078125 L 6.960938 9.078125 L 6.960938 10.019531 L 6.492188 10.019531 Z M 10.730469 9.078125 L 11.199219 9.078125 L 11.199219 10.019531 L 10.730469 10.019531 Z M 4.371094 11.433594 C 4.242188 11.433594 4.136719 11.539062 4.136719 11.667969 L 4.136719 13.082031 C 4.136719 13.210938 4.242188 13.316406 4.371094 13.316406 L 5.3125 13.316406 C 5.445312 13.316406 5.546875 13.210938 5.546875 13.082031 L 5.546875 11.667969 C 5.546875 11.539062 5.445312 11.433594 5.3125 11.433594 Z M 6.609375 11.433594 C 6.542969 11.433594 6.492188 11.484375 6.492188 11.550781 L 6.492188 13.199219 C 6.492188 13.265625 6.542969 13.316406 6.609375 13.316406 L 6.84375 13.316406 C 6.910156 13.316406 6.960938 13.265625 6.960938 13.199219 L 6.960938 11.550781 C 6.960938 11.488281 6.910156 11.433594 6.84375 11.433594 Z M 7.550781 11.433594 C 7.484375 11.433594 7.433594 11.484375 7.433594 11.550781 L 7.433594 13.199219 C 7.433594 13.265625 7.484375 13.316406 7.550781 13.316406 L 7.785156 13.316406 C 7.851562 13.316406 7.902344 13.265625 7.902344 13.199219 L 7.902344 11.550781 C 7.902344 11.488281 7.851562 11.433594 7.785156 11.433594 Z M 8.609375 11.433594 C 8.480469 11.433594 8.375 11.539062 8.375 11.667969 L 8.375 13.082031 C 8.375 13.210938 8.480469 13.316406 8.609375 13.316406 L 9.550781 13.316406 C 9.683594 13.316406 9.785156 13.210938 9.785156 13.082031 L 9.785156 11.667969 C 9.785156 11.539062 9.683594 11.433594 9.550781 11.433594 Z M 10.847656 11.433594 C 10.78125 11.433594 10.730469 11.484375 10.730469 11.550781 L 10.730469 13.199219 C 10.730469 13.265625 10.78125 13.316406 10.847656 13.316406 L 11.082031 13.316406 C 11.148438 13.316406 11.199219 13.265625 11.199219 13.199219 L 11.199219 11.550781 C 11.199219 11.488281 11.148438 11.433594 11.082031 11.433594 Z M 4.605469 11.90625 L 5.078125 11.90625 L 5.078125 12.847656 L 4.605469 12.847656 Z M 8.84375 11.90625 L 9.316406 11.90625 L 9.316406 12.847656 L 8.84375 12.847656 Z M 8.84375 11.90625 "/>
</g>
</svg>
