<?xml version="1.0" encoding="UTF-8"?>
<svg xmlns="http://www.w3.org/2000/svg" xmlns:xlink="http://www.w3.org/1999/xlink" width="16pt" height="16pt" viewBox="0 0 16 16" version="1.1">
<g id="surface1">
<path style=" stroke:none;fill-rule:evenodd;fill:rgb(85.098039%,16.862745%,10.196078%);fill-opacity:1;" d="M 10.59375 1 L 3.769531 1 C 2.234375 1 1 2.234375 1 3.765625 L 1 12.230469 C 1 13.765625 2.234375 15 3.769531 15 L 12.234375 15 C 13.765625 15 15 13.765625 15 12.230469 L 15 5.40625 Z M 10.59375 1 "/>
<path style=" stroke:none;fill-rule:evenodd;fill:rgb(70.196078%,13.72549%,8.235294%);fill-opacity:1;" d="M 15 5.40625 L 10.59375 1 L 10.59375 2.640625 C 10.59375 4.171875 11.828125 5.40625 13.359375 5.40625 Z M 15 5.40625 "/>
<path style=" stroke:none;fill-rule:nonzero;fill:rgb(100%,61.568627%,42.745098%);fill-opacity:1;" d="M 10.652344 5.230469 L 5.347656 6.558594 L 5.347656 7.882812 L 10.652344 6.558594 Z M 10.652344 7.351562 L 5.347656 8.679688 L 5.347656 10.003906 L 10.652344 8.679688 Z M 10.652344 9.472656 L 5.347656 10.800781 L 5.347656 12.125 L 10.652344 10.800781 Z M 10.652344 9.472656 "/>
</g>
</svg>
