<?xml version="1.0" encoding="UTF-8"?>
<svg xmlns="http://www.w3.org/2000/svg" xmlns:xlink="http://www.w3.org/1999/xlink" width="16pt" height="16pt" viewBox="0 0 16 16" version="1.1">
<g id="surface1">
<path style=" stroke:none;fill-rule:evenodd;fill:rgb(80%,80%,80%);fill-opacity:1;" d="M 10.59375 1 L 3.769531 1 C 2.234375 1 1 2.234375 1 3.765625 L 1 12.230469 C 1 13.765625 2.234375 15 3.769531 15 L 12.234375 15 C 13.765625 15 15 13.765625 15 12.230469 L 15 5.40625 Z M 10.59375 1 "/>
<path style=" stroke:none;fill-rule:evenodd;fill:rgb(60%,60%,60%);fill-opacity:1;" d="M 15 5.40625 L 10.59375 1 L 10.59375 2.640625 C 10.59375 4.171875 11.828125 5.40625 13.359375 5.40625 Z M 15 5.40625 "/>
<path style=" stroke:none;fill-rule:nonzero;fill:rgb(60%,60%,60%);fill-opacity:1;" d="M 8.089844 5.261719 C 6.613281 5.261719 5.878906 6.390625 5.878906 7.351562 L 7.203125 7.351562 C 7.226562 7.226562 7.207031 7.113281 7.203125 7.003906 C 7.203125 6.617188 7.601562 6.304688 8.089844 6.304688 C 8.578125 6.304688 8.972656 6.617188 8.972656 7.003906 C 8.972656 7.039062 8.96875 7.078125 8.960938 7.117188 C 8.957031 7.125 8.957031 7.132812 8.957031 7.140625 C 8.804688 7.800781 7.660156 8.53125 7.648438 9.570312 L 7.648438 9.785156 L 8.972656 9.785156 C 8.972656 9.132812 8.890625 8.875 9.289062 8.554688 L 9.785156 8.15625 C 10.101562 7.90625 10.300781 7.558594 10.300781 7.175781 C 10.300781 6.214844 9.5625 5.261719 8.089844 5.261719 Z M 7.644531 10.480469 L 7.644531 11.527344 L 8.972656 11.527344 L 8.972656 10.480469 Z M 7.644531 10.480469 "/>
</g>
</svg>
