<?xml version="1.0" encoding="UTF-8"?>
<svg xmlns="http://www.w3.org/2000/svg" xmlns:xlink="http://www.w3.org/1999/xlink" width="16pt" height="16pt" viewBox="0 0 16 16" version="1.1">
<g id="surface1">
<path style=" stroke:none;fill-rule:evenodd;fill:rgb(100%,34.117647%,13.333333%);fill-opacity:1;" d="M 10.59375 1 L 3.769531 1 C 2.234375 1 1 2.234375 1 3.765625 L 1 12.230469 C 1 13.765625 2.234375 15 3.769531 15 L 12.234375 15 C 13.765625 15 15 13.765625 15 12.230469 L 15 5.40625 Z M 10.59375 1 "/>
<path style=" stroke:none;fill-rule:evenodd;fill:rgb(82.352941%,28.235294%,10.980392%);fill-opacity:1;" d="M 15 5.40625 L 10.59375 1 L 10.59375 2.640625 C 10.59375 4.171875 11.828125 5.40625 13.359375 5.40625 Z M 15 5.40625 "/>
<path style=" stroke:none;fill-rule:nonzero;fill:rgb(100%,72.156863%,48.627451%);fill-opacity:1;" d="M 5.414062 7.09375 C 4.699219 7.09375 4.117188 7.671875 4.117188 8.386719 C 4.117188 9.101562 4.699219 9.679688 5.414062 9.679688 C 6.128906 9.679688 6.707031 9.101562 6.707031 8.386719 L 5.414062 8.386719 Z M 8 7.09375 L 8 7.738281 L 11.882812 7.738281 L 11.882812 7.09375 Z M 8 9.03125 L 8 9.679688 L 11.882812 9.679688 L 11.882812 9.03125 Z M 4.117188 10.972656 L 4.117188 11.621094 L 9.941406 11.621094 L 9.941406 10.972656 Z M 4.117188 10.972656 "/>
</g>
</svg>
