<?xml version="1.0" encoding="UTF-8"?>
<svg xmlns="http://www.w3.org/2000/svg" xmlns:xlink="http://www.w3.org/1999/xlink" width="16pt" height="16pt" viewBox="0 0 16 16" version="1.1">
<defs>
<filter id="alpha" filterUnits="objectBoundingBox" x="0%" y="0%" width="100%" height="100%">
  <feColorMatrix type="matrix" in="SourceGraphic" values="0 0 0 0 1 0 0 0 0 1 0 0 0 0 1 0 0 0 1 0"/>
</filter>
<mask id="mask0">
  <g filter="url(#alpha)">
<rect x="0" y="0" width="16" height="16" style="fill:rgb(0%,0%,0%);fill-opacity:0.501961;stroke:none;"/>
  </g>
</mask>
<clipPath id="clip1">
  <rect width="16" height="16"/>
</clipPath>
<g id="surface6" clip-path="url(#clip1)">
<path style=" stroke:none;fill-rule:nonzero;fill:rgb(60%,60%,60%);fill-opacity:1;" d="M 5.746094 5.785156 C 5.542969 5.785156 5.359375 5.90625 5.28125 6.097656 C 5.207031 6.285156 5.25 6.5 5.398438 6.644531 L 7.292969 8.539062 L 5.398438 10.4375 C 5.265625 10.5625 5.210938 10.75 5.253906 10.925781 C 5.300781 11.101562 5.4375 11.238281 5.617188 11.285156 C 5.792969 11.328125 5.980469 11.277344 6.105469 11.144531 L 8 9.246094 L 9.894531 11.144531 C 10.019531 11.277344 10.207031 11.328125 10.382812 11.285156 C 10.5625 11.238281 10.699219 11.101562 10.746094 10.925781 C 10.789062 10.75 10.734375 10.5625 10.601562 10.4375 L 8.707031 8.539062 L 10.601562 6.644531 C 10.796875 6.449219 10.796875 6.132812 10.601562 5.9375 C 10.410156 5.742188 10.089844 5.742188 9.894531 5.9375 L 8 7.832031 L 6.105469 5.9375 C 6.007812 5.839844 5.878906 5.785156 5.746094 5.785156 Z M 5.746094 5.785156 "/>
</g>
</defs>
<g id="surface1">
<path style=" stroke:none;fill-rule:evenodd;fill:rgb(80%,80%,80%);fill-opacity:1;" d="M 10.59375 1 L 3.769531 1 C 2.234375 1 1 2.234375 1 3.765625 L 1 12.230469 C 1 13.765625 2.234375 15 3.769531 15 L 12.234375 15 C 13.765625 15 15 13.765625 15 12.230469 L 15 5.40625 Z M 10.59375 1 "/>
<path style=" stroke:none;fill-rule:evenodd;fill:rgb(60%,60%,60%);fill-opacity:1;" d="M 15 5.40625 L 10.59375 1 L 10.59375 2.640625 C 10.59375 4.171875 11.828125 5.40625 13.359375 5.40625 Z M 15 5.40625 "/>
<use xlink:href="#surface6" mask="url(#mask0)"/>
</g>
</svg>
