<?xml version="1.0" encoding="UTF-8" standalone="no"?>
<svg
   xmlns:dc="http://purl.org/dc/elements/1.1/"
   xmlns:cc="http://creativecommons.org/ns#"
   xmlns:rdf="http://www.w3.org/1999/02/22-rdf-syntax-ns#"
   xmlns:svg="http://www.w3.org/2000/svg"
   xmlns="http://www.w3.org/2000/svg"
   xmlns:sodipodi="http://sodipodi.sourceforge.net/DTD/sodipodi-0.dtd"
   xmlns:inkscape="http://www.inkscape.org/namespaces/inkscape"
   width="22"
   height="22"
   viewBox="0 0 16 16"
   version="1.1"
   id="svg7"
   sodipodi:docname="drive-removable-media-usb.svg"
   inkscape:version="0.92.1 r">
  <metadata
     id="metadata11">
    <rdf:RDF>
      <cc:Work
         rdf:about="">
        <dc:format>image/svg+xml</dc:format>
        <dc:type
           rdf:resource="http://purl.org/dc/dcmitype/StillImage" />
      </cc:Work>
    </rdf:RDF>
  </metadata>
  <sodipodi:namedview
     pagecolor="#ffffff"
     bordercolor="#666666"
     borderopacity="1"
     objecttolerance="10"
     gridtolerance="10"
     guidetolerance="10"
     inkscape:pageopacity="0"
     inkscape:pageshadow="2"
     inkscape:window-width="769"
     inkscape:window-height="480"
     id="namedview9"
     showgrid="false"
     inkscape:zoom="10.727273"
     inkscape:cx="11"
     inkscape:cy="11"
     inkscape:window-x="0"
     inkscape:window-y="0"
     inkscape:window-maximized="0"
     inkscape:current-layer="svg7" />
  <defs
     id="defs3">
    <style
       id="current-color-scheme"
       type="text/css">
   .ColorScheme-Text { color:#d3dae3; } .ColorScheme-Highlight { color:#5294e2; }
  </style>
  </defs>
  <path
     style="color:#d3dae3;fill:currentColor;stroke-width:0.63636363"
     class="ColorScheme-Text"
     d="M 7.9969152,2.9090909 6.4060061,5.4545455 H 7.3605515 V 8.6363641 H 5.4514606 v -0.809127 c 0.3930882,-0.226946 0.6355618,-0.646046 0.6363636,-1.0999644 0,-0.7029272 -0.569819,-1.2727272 -1.2727272,-1.2727272 -0.7029082,0 -1.2727273,0.5698191 -1.2727273,1.2727272 3.564e-4,0.4543444 0.2428936,0.8740254 0.6363636,1.1012074 v 0.807884 c 0,1.272727 1.2727273,1.272727 1.2727273,1.272727 h 1.9090909 v 0.8091259 c -0.3930882,0.226946 -0.6355618,0.646047 -0.6363636,1.099965 0,0.702927 0.5698191,1.272727 1.2727273,1.272727 0.7029081,0 1.2727272,-0.569819 1.2727272,-1.272727 C 9.2692861,11.363837 9.0267488,10.944156 8.6332788,10.716974 V 9.9090911 H 10.54237 c 0,0 1.272727,0 1.272727,-1.272727 v -0.636364 c 0,0 0.715909,-0.119318 0.636364,-0.636364 V 6.0909091 C 12.531006,5.375 11.815097,5.4545455 11.815097,5.4545455 H 10.54237 c -0.6761367,0 -0.6363639,0.6363636 -0.6363639,0.6363636 v 1.272727 c 0,0.636364 0.6363639,0.636364 0.6363639,0.636364 v 0.636364 H 8.6332788 V 5.4545455 h 0.9545454 z"
     id="path5"
     inkscape:connector-curvature="0" />
</svg>
