<?xml version="1.0" encoding="UTF-8" standalone="no"?>
<svg
   xmlns:dc="http://purl.org/dc/elements/1.1/"
   xmlns:cc="http://creativecommons.org/ns#"
   xmlns:rdf="http://www.w3.org/1999/02/22-rdf-syntax-ns#"
   xmlns:svg="http://www.w3.org/2000/svg"
   xmlns="http://www.w3.org/2000/svg"
   xmlns:sodipodi="http://sodipodi.sourceforge.net/DTD/sodipodi-0.dtd"
   xmlns:inkscape="http://www.inkscape.org/namespaces/inkscape"
   width="22"
   height="22"
   viewBox="0 0 16 16"
   version="1.1"
   id="svg7"
   sodipodi:docname="stock_cell-phone.svg"
   inkscape:version="0.92.1 r">
  <metadata
     id="metadata11">
    <rdf:RDF>
      <cc:Work
         rdf:about="">
        <dc:format>image/svg+xml</dc:format>
        <dc:type
           rdf:resource="http://purl.org/dc/dcmitype/StillImage" />
      </cc:Work>
    </rdf:RDF>
  </metadata>
  <sodipodi:namedview
     pagecolor="#ffffff"
     bordercolor="#666666"
     borderopacity="1"
     objecttolerance="10"
     gridtolerance="10"
     guidetolerance="10"
     inkscape:pageopacity="0"
     inkscape:pageshadow="2"
     inkscape:window-width="769"
     inkscape:window-height="480"
     id="namedview9"
     showgrid="false"
     inkscape:zoom="10.727273"
     inkscape:cx="11"
     inkscape:cy="11"
     inkscape:window-x="0"
     inkscape:window-y="0"
     inkscape:window-maximized="0"
     inkscape:current-layer="svg7" />
  <defs
     id="defs3">
    <style
       id="current-color-scheme"
       type="text/css">
   .ColorScheme-Text { color:#d3dae3; } .ColorScheme-Highlight { color:#5294e2; }
  </style>
  </defs>
  <path
     style="color:#d3dae3;fill:currentColor;stroke-width:0.63636363"
     class="ColorScheme-Text"
     d="m 5.4545455,2.9090912 c -0.6363636,0 -0.6363636,0.6363637 -0.6363636,0.6363637 v 8.9090901 c 0,0 0,0.636364 0.6363636,0.636364 h 5.0909095 c 0.636363,0 0.636363,-0.636364 0.636363,-0.636364 V 3.5454549 c 0,0 0,-0.6363637 -0.636363,-0.6363637 z m 0.6363636,1.9115767 h 3.818182 v 5.7247861 h -3.818182 z m 1.909091,6.3611511 a 0.63636364,0.63636364 0 0 1 0.636364,0.636363 0.63636364,0.63636364 0 0 1 -0.636364,0.636363 0.63636364,0.63636364 0 0 1 -0.636364,-0.636363 0.63636364,0.63636364 0 0 1 0.636364,-0.636363 z"
     id="path5"
     inkscape:connector-curvature="0" />
</svg>
