<?xml version="1.0" encoding="UTF-8" standalone="no"?>
<svg
   xmlns:dc="http://purl.org/dc/elements/1.1/"
   xmlns:cc="http://creativecommons.org/ns#"
   xmlns:rdf="http://www.w3.org/1999/02/22-rdf-syntax-ns#"
   xmlns:svg="http://www.w3.org/2000/svg"
   xmlns="http://www.w3.org/2000/svg"
   xmlns:sodipodi="http://sodipodi.sourceforge.net/DTD/sodipodi-0.dtd"
   xmlns:inkscape="http://www.inkscape.org/namespaces/inkscape"
   width="32"
   height="32"
   version="1"
   id="svg12"
   sodipodi:docname="audio-input-microphone.svg"
   inkscape:version="0.92.1 r">
  <metadata
     id="metadata18">
    <rdf:RDF>
      <cc:Work
         rdf:about="">
        <dc:format>image/svg+xml</dc:format>
        <dc:type
           rdf:resource="http://purl.org/dc/dcmitype/StillImage" />
      </cc:Work>
    </rdf:RDF>
  </metadata>
  <defs
     id="defs16" />
  <sodipodi:namedview
     pagecolor="#ffffff"
     bordercolor="#666666"
     borderopacity="1"
     objecttolerance="10"
     gridtolerance="10"
     guidetolerance="10"
     inkscape:pageopacity="0"
     inkscape:pageshadow="2"
     inkscape:window-width="1680"
     inkscape:window-height="970"
     id="namedview14"
     showgrid="false"
     inkscape:zoom="6.0000001"
     inkscape:cx="-39.371308"
     inkscape:cy="3.1820201"
     inkscape:window-x="0"
     inkscape:window-y="0"
     inkscape:window-maximized="1"
     inkscape:current-layer="svg12" />
  <rect
     style="opacity:1;fill:#8e8e8e;fill-opacity:1;fill-rule:evenodd;stroke:none;stroke-width:1.03534329;stroke-linecap:round;stroke-linejoin:bevel;stroke-miterlimit:4;stroke-dasharray:none;stroke-dashoffset:0;stroke-opacity:1"
     id="rect4497-3"
     width="28.203388"
     height="28.203388"
     x="1.8983059"
     y="1.8983059"
     ry="5.575182" />
  <path
     style="fill:#4d4d4d;fill-opacity:1;stroke-width:0.06037757"
     d="m 19.526825,27.287666 c 0,-0.306214 -0.20473,-0.734445 -0.485223,-1.014938 -0.330871,-0.330871 -0.569307,-0.413876 -1.190254,-0.414353 l -0.437737,-3.37e-4 v -1.678492 -1.678492 l 0.377359,-0.07701 c 2.394724,-0.488755 4.385227,-2.25411 5.172975,-4.587852 0.233691,-0.692321 0.31761,-1.230139 0.350406,-2.245703 0.02969,-0.919394 0.02228,-1.022215 -0.09237,-1.281413 -0.30974,-0.700217 -1.271109,-0.716713 -1.58412,-0.02719 -0.09712,0.213964 -0.116133,0.398465 -0.117244,1.138184 -0.002,1.277521 -0.244471,2.176051 -0.822481,3.046858 -1.35756,2.045251 -3.880172,2.841416 -6.185745,1.952293 -0.841227,-0.324411 -1.707227,-1.005315 -2.259173,-1.776304 -0.673454,-0.940716 -0.92435,-1.786963 -0.979924,-3.305164 -0.04108,-1.122147 -0.09027,-1.283383 -0.448038,-1.46839 -0.27918,-0.144369 -0.787963,-0.09371 -0.9972691,0.0993 -0.2762967,0.254782 -0.3238305,0.460876 -0.3238305,1.404018 0,1.676957 0.3646537,2.926346 1.2273256,4.205091 0.369596,0.547856 1.134177,1.325446 1.681191,1.709796 0.774847,0.544434 1.947592,1.04432 2.721691,1.16013 l 0.286793,0.0429 v 1.683716 1.683716 l -0.498115,0.0013 c -0.550308,0.0015 -0.852599,0.104624 -1.154027,0.393803 -0.218553,0.209672 -0.459713,0.722104 -0.460482,0.978462 l -5.91e-4,0.196224 h 3.109445 3.109445 z"
     id="path871"
     inkscape:connector-curvature="0" />
  <path
     style="fill:#ececec;fill-opacity:1;stroke-width:0.06037757"
     d="m 17.323369,19.123318 c 0.652027,-0.169832 1.109855,-0.438565 1.63692,-0.960831 0.845955,-0.83825 1.068581,-1.438802 1.075303,-2.900712 l 0.0044,-0.966041 -3.637748,-0.01557 -3.637748,-0.01557 0.0011,0.830663 c 6.27e-4,0.49501 0.03678,0.999307 0.08946,1.248019 0.289747,1.367708 1.287522,2.414525 2.652298,2.782663 0.420407,0.113397 1.375855,0.112022 1.816019,-0.0027 z"
     id="path869"
     inkscape:connector-curvature="0" />
  <path
     style="fill:#ececec;fill-opacity:1;stroke-width:0.06037757"
     d="m 20.0586,13.525921 -0.01856,-0.256605 -3.637748,-0.01557 -3.637749,-0.01557 v 0.27217 0.272169 h 3.656315 3.656314 z"
     id="path867"
     inkscape:connector-curvature="0" />
  <path
     style="fill:#ececec;fill-opacity:1;stroke-width:0.06037757"
     d="m 20.0586,12.469314 0.01856,-0.256604 h -3.656314 -3.656315 v 0.27217 0.272171 l 3.637749,-0.01557 3.637747,-0.01557 z"
     id="path865"
     inkscape:connector-curvature="0" />
  <path
     style="fill:#ececec;fill-opacity:1;stroke-width:0.06037757"
     d="m 20.0586,11.442896 0.01856,-0.256605 h -3.656314 -3.656315 v 0.231447 c 0,0.127297 0.01832,0.249773 0.04072,0.27217 0.0224,0.0224 1.659384,0.03371 3.637748,0.02516 l 3.597026,-0.01557 z"
     id="path863"
     inkscape:connector-curvature="0" />
  <path
     style="fill:#ececec;fill-opacity:1;stroke-width:0.06037757"
     d="m 20.070227,10.39782 v -0.237947 l -3.426426,-0.0051 c -1.884534,-0.0028 -3.494352,-0.01259 -3.577371,-0.02181 -0.244696,-0.02721 -0.301888,0.02477 -0.301888,0.27434 v 0.234575 l 3.607559,0.01557 c 1.984158,0.0086 3.627937,0.0072 3.652844,-0.0031 0.02491,-0.01029 0.04528,-0.125734 0.04528,-0.256604 z"
     id="path861"
     inkscape:connector-curvature="0" />
  <path
     style="fill:#ffffff;fill-opacity:1;stroke-width:0.06037757"
     d="M 20.048047,9.0962816 C 19.995747,8.4158789 19.919051,8.1109861 19.664216,7.5704548 19.399894,7.0097959 18.710987,6.2941448 18.157092,6.0048187 15.765651,4.7556564 12.932385,6.3486158 12.780375,9.0277928 l -0.0334,0.5886812 h 3.670528 3.67053 z"
     id="path22-3-6"
     inkscape:connector-curvature="0" />


   xmlns:dc="http://purl.org/dc/elements/1.1/"
   xmlns:cc="http://creativecommons.org/ns#"
   xmlns:rdf="http://www.w3.org/1999/02/22-rdf-syntax-ns#"
   xmlns:svg="http://www.w3.org/2000/svg"
   xmlns="http://www.w3.org/2000/svg"
   xmlns:xlink="http://www.w3.org/1999/xlink"
   xmlns:sodipodi="http://sodipodi.sourceforge.net/DTD/sodipodi-0.dtd"
   xmlns:inkscape="http://www.inkscape.org/namespaces/inkscape"
   version="1"
   width="32"
   height="32"
   id="svg12"
   sodipodi:docname="snow-top-3.svg"
   inkscape:version="0.92.1 r">
  <metadata
     id="metadata18">
    <rdf:RDF>
      <cc:Work
         rdf:about="">
        <dc:format>image/svg+xml</dc:format>
        <dc:type
           rdf:resource="http://purl.org/dc/dcmitype/StillImage" />
        <dc:title></dc:title>
      </cc:Work>
    </rdf:RDF>
  </metadata>
  <defs
     id="defs16">
    <linearGradient
       inkscape:collect="always"
       id="linearGradient6405">
      <stop
         style="stop-color:#f9f9f9;stop-opacity:1;"
         offset="0"
         id="stop6401" />
      <stop
         style="stop-color:#999999;stop-opacity:1"
         offset="1"
         id="stop6403" />
    </linearGradient>
    <linearGradient
       gradientTransform="matrix(-2.6555241,0,0,2.5853088,193.76717,-277.73118)"
       inkscape:collect="always"
       xlink:href="#linearGradient6405"
       id="linearGradient6407-3-3-9"
       x1="67.894455"
       y1="108.691"
       x2="67.854446"
       y2="113.1134"
       gradientUnits="userSpaceOnUse" />
  </defs>
  <sodipodi:namedview
     pagecolor="#ffffff"
     bordercolor="#666666"
     borderopacity="1"
     objecttolerance="10"
     gridtolerance="10"
     guidetolerance="10"
     inkscape:pageopacity="0"
     inkscape:pageshadow="2"
     inkscape:window-width="1680"
     inkscape:window-height="966"
     id="namedview14"
     showgrid="false"
     inkscape:zoom="11.313708"
     inkscape:cx="2.2350766"
     inkscape:cy="34.32406"
     inkscape:window-x="0"
     inkscape:window-y="0"
     inkscape:window-maximized="1"
     inkscape:current-layer="svg12"
     showguides="true"
     inkscape:guide-bbox="true" />
  <path
     style="fill:#ffffff;stroke:#000000;stroke-width:1px;stroke-linecap:butt;stroke-linejoin:miter;stroke-opacity:1;fill-opacity:1"
     d="M -818.07227 -684.31641 C -819.10962 -684.23413 -820.14812 -683.97317 -821.18555 -683.51172 C -822.22298 -683.05027 -823.25838 -682.38824 -824.28711 -681.50586 C -825.29056 -680.50511 -826.04104 -679.4644 -826.56641 -678.39258 C -827.09177 -677.32075 -827.39157 -676.21858 -827.49219 -675.09375 C -827.5928 -673.96892 -827.49541 -672.82188 -827.22461 -671.66211 C -826.9538 -670.50234 -826.51077 -669.32898 -825.92188 -668.15234 C -825.33298 -666.97571 -824.59779 -665.79457 -823.74414 -664.61914 C -822.89049 -663.44371 -821.9186 -662.27334 -820.85352 -661.11719 C -818.72336 -658.80488 -816.22229 -656.55061 -813.56641 -654.42383 C -810.91052 -652.29705 -808.09871 -650.29863 -805.34375 -648.50195 C -802.58879 -646.70527 -799.89223 -645.10912 -797.46484 -643.78711 C -795.03745 -642.4651 -792.8802 -641.41762 -791.20703 -640.71484 C -789.53386 -640.01207 -788.34387 -639.65382 -787.85156 -639.71484 C -788.08169 -641.39924 -788.56726 -643.53666 -789.27148 -645.95898 C -789.97571 -648.38131 -790.89774 -651.08978 -792.00586 -653.91602 C -793.11398 -656.74225 -794.40778 -659.68591 -795.84961 -662.58203 C -797.29144 -665.47816 -798.88255 -668.327 -800.58789 -670.95898 C -802.29323 -673.59097 -804.11306 -676.00718 -806.01172 -678.04102 C -806.96105 -679.05793 -807.92956 -679.97846 -808.91406 -680.7832 C -809.89856 -681.58795 -810.89926 -682.2773 -811.91016 -682.82812 C -812.92105 -683.37895 -813.94219 -683.79172 -814.9707 -684.04688 C -815.99921 -684.30203 -817.03491 -684.39868 -818.07227 -684.31641 z "
     id="path4964" />
  <path
     style="fill:#ffffff;stroke:#000000;stroke-width:1px;stroke-linecap:butt;stroke-linejoin:miter;stroke-opacity:1;fill-opacity:1"
     d="M -735.93945 -684.43359 C -737.06247 -684.31442 -738.16856 -683.99619 -739.25391 -683.50586 C -740.33926 -683.01553 -741.40308 -682.35449 -742.44336 -681.54883 C -743.48364 -680.74317 -744.50047 -679.79368 -745.48828 -678.72852 C -746.4761 -677.66335 -747.43533 -676.48175 -748.36328 -675.21289 C -750.21918 -672.67517 -751.94749 -669.78512 -753.51953 -666.76758 C -755.09158 -663.75003 -756.50732 -660.60549 -757.73633 -657.55469 C -758.96533 -654.50388 -760.00916 -651.54765 -760.83594 -648.91016 C -761.66272 -646.27266 -762.2733 -643.95339 -762.63867 -642.17578 C -763.00404 -640.39817 -763.12398 -639.16257 -762.96875 -638.69141 C -761.36083 -639.24345 -759.35723 -640.13287 -757.11719 -641.29297 C -754.87715 -642.45307 -752.39986 -643.88299 -749.8418 -645.51758 C -747.28373 -647.15216 -744.64597 -648.99129 -742.08398 -650.9668 C -739.522 -652.94231 -737.03697 -655.05346 -734.78516 -657.23633 C -732.53335 -659.4192 -730.51425 -661.67303 -728.88672 -663.92969 C -728.07295 -665.05802 -727.35662 -666.18686 -726.75781 -667.30859 C -726.15901 -668.43033 -725.67857 -669.54609 -725.33398 -670.64453 C -724.9894 -671.74297 -724.78156 -672.82436 -724.73047 -673.88281 C -724.67937 -674.94127 -724.78475 -675.97674 -725.06641 -676.97852 C -725.34806 -677.98029 -725.80532 -678.94856 -726.45898 -679.87695 C -727.11265 -680.80535 -727.9624 -681.69293 -729.02734 -682.53125 C -730.20351 -683.32185 -731.37015 -683.85626 -732.52344 -684.16406 C -733.67673 -684.47186 -734.81643 -684.55277 -735.93945 -684.43359 z "
     id="path4967" />
  <path
     style="fill:url(#linearGradient6407-3-3-9);fill-opacity:1;stroke:none;stroke-width:0.06535231;stroke-miterlimit:4;stroke-dasharray:none"
     d="m 24.626957,0.0085499 c 8.359576,-0.33912 9.455134,9.5226299 4.064225,9.5050299 -0.685511,0.003 -1.619866,-0.19703 -3.00003,-1.47101 C 11.026487,-2.1730901 11.141992,11.00918 7.9834349,8.9180298 6.2565251,7.0959898 6.2400288,13.57082 3.844867,14.04499 1.7232577,14.65789 0.14552517,12.66016 0.02116034,9.5418498 -0.34442255,0.9144599 4.106729,0.1151999 7.2078785,0.0181099 c 5.9742755,0.13346 11.5624715,-0.0447 17.4190785,-0.01 z"
     id="path6262-5-2-7"
     inkscape:connector-curvature="0"
     sodipodi:nodetypes="ccccccccc" />
</svg>
