<?xml version="1.0" encoding="UTF-8" standalone="no"?>
<svg
   xmlns:dc="http://purl.org/dc/elements/1.1/"
   xmlns:cc="http://creativecommons.org/ns#"
   xmlns:rdf="http://www.w3.org/1999/02/22-rdf-syntax-ns#"
   xmlns:svg="http://www.w3.org/2000/svg"
   xmlns="http://www.w3.org/2000/svg"
   xmlns:sodipodi="http://sodipodi.sourceforge.net/DTD/sodipodi-0.dtd"
   xmlns:inkscape="http://www.inkscape.org/namespaces/inkscape"
   width="32"
   height="32"
   version="1"
   id="svg22"
   sodipodi:docname="camera-photo.svg"
   inkscape:version="0.92.1 r">
  <metadata
     id="metadata28">
    <rdf:RDF>
      <cc:Work
         rdf:about="">
        <dc:format>image/svg+xml</dc:format>
        <dc:type
           rdf:resource="http://purl.org/dc/dcmitype/StillImage" />
      </cc:Work>
    </rdf:RDF>
  </metadata>
  <defs
     id="defs26" />
  <sodipodi:namedview
     pagecolor="#ffffff"
     bordercolor="#666666"
     borderopacity="1"
     objecttolerance="10"
     gridtolerance="10"
     guidetolerance="10"
     inkscape:pageopacity="0"
     inkscape:pageshadow="2"
     inkscape:window-width="1680"
     inkscape:window-height="965"
     id="namedview24"
     showgrid="false"
     inkscape:zoom="14.75"
     inkscape:cx="15.336955"
     inkscape:cy="20.493714"
     inkscape:window-x="0"
     inkscape:window-y="0"
     inkscape:window-maximized="1"
     inkscape:current-layer="svg22" />
  <g
     id="g4513"
     transform="translate(9.9661016,-0.06779659)">
    <rect
       ry="5.575182"
       y="1.9661025"
       x="-8.0677958"
       height="28.203388"
       width="28.203388"
       id="rect4497-3-3-3"
       style="opacity:1;fill:#5b5b5b;fill-opacity:1;fill-rule:evenodd;stroke:none;stroke-width:1.03534329;stroke-linecap:round;stroke-linejoin:bevel;stroke-miterlimit:4;stroke-dasharray:none;stroke-dashoffset:0;stroke-opacity:1" />
    <path
       id="path4525"
       d="m -2.6965685,2.0072499 c -2.988008,0.112468 -5.371094,2.5167133 -5.371094,5.5332031 V 24.59514 c 0,3.088651 2.485568,5.574219 5.574219,5.574219 H 14.55929 c 3.088651,0 5.576172,-2.485568 5.576172,-5.574219 V 7.540453 c 0,-3.0886508 -2.487521,-5.5742188 -5.576172,-5.5742188 H 1.3034315 v 1.5625 c 0,0.277 -0.112219,0.5262813 -0.292969,0.7070313 -0.18075,0.18075 -0.430031,0.2929687 -0.707031,0.2929687 h -2 c -0.277,0 -0.528234,-0.1122187 -0.708984,-0.2929687 -0.18075,-0.18075 -0.291016,-0.4300313 -0.291016,-0.7070313 z"
       style="opacity:1;fill:#5b5b5b;fill-opacity:1;fill-rule:evenodd;stroke:none;stroke-width:1.03534329;stroke-linecap:round;stroke-linejoin:bevel;stroke-miterlimit:4;stroke-dasharray:none;stroke-dashoffset:0;stroke-opacity:1"
       inkscape:connector-curvature="0" />
    <path
       id="rect4497-3"
       d="m -2.6965685,2.0072499 v 1.5214843 c 0,0.277 0.110266,0.5262813 0.291016,0.7070313 0.18075,0.18075 0.431984,0.2929687 0.708984,0.2929687 h 2 c 0.277,0 0.526281,-0.1122187 0.707031,-0.2929687 0.18075,-0.18075 0.292969,-0.4300313 0.292969,-0.7070313 v -1.5625 h -3.796875 c -0.07216,0 -0.131645,0.038325 -0.203125,0.041016 z"
       style="opacity:1;fill:#373737;fill-opacity:1;fill-rule:evenodd;stroke:none;stroke-width:1.03534329;stroke-linecap:round;stroke-linejoin:bevel;stroke-miterlimit:4;stroke-dasharray:none;stroke-dashoffset:0;stroke-opacity:1"
       inkscape:connector-curvature="0" />
    <circle
       id="circle8-6"
       r="1"
       cy="7.3656702"
       cx="15.895606"
       style="opacity:0.4" />
    <circle
       id="circle10"
       r="8"
       cy="16.067797"
       cx="6.0339031"
       style="opacity:0.4" />
    <circle
       id="circle14-7"
       transform="scale(1,-1)"
       r="6"
       cy="-16.067797"
       cx="6.0339031"
       style="fill:#009587" />
    <circle
       id="circle18-5"
       r="4"
       cy="16.067797"
       cx="6.0339031"
       style="fill:#66bfb7" />
  </g>
</svg>
