<?xml version="1.0" encoding="UTF-8" standalone="no"?>
<svg
   xmlns:dc="http://purl.org/dc/elements/1.1/"
   xmlns:cc="http://creativecommons.org/ns#"
   xmlns:rdf="http://www.w3.org/1999/02/22-rdf-syntax-ns#"
   xmlns:svg="http://www.w3.org/2000/svg"
   xmlns="http://www.w3.org/2000/svg"
   xmlns:sodipodi="http://sodipodi.sourceforge.net/DTD/sodipodi-0.dtd"
   xmlns:inkscape="http://www.inkscape.org/namespaces/inkscape"
   width="32"
   height="32"
   version="1"
   id="svg18"
   sodipodi:docname="media-floppy.svg"
   inkscape:version="0.92.1 r">
  <metadata
     id="metadata24">
    <rdf:RDF>
      <cc:Work
         rdf:about="">
        <dc:format>image/svg+xml</dc:format>
        <dc:type
           rdf:resource="http://purl.org/dc/dcmitype/StillImage" />
      </cc:Work>
    </rdf:RDF>
  </metadata>
  <defs
     id="defs22" />
  <sodipodi:namedview
     pagecolor="#ffffff"
     bordercolor="#666666"
     borderopacity="1"
     objecttolerance="10"
     gridtolerance="10"
     guidetolerance="10"
     inkscape:pageopacity="0"
     inkscape:pageshadow="2"
     inkscape:window-width="1680"
     inkscape:window-height="965"
     id="namedview20"
     showgrid="false"
     inkscape:zoom="5.2149125"
     inkscape:cx="-45.522009"
     inkscape:cy="32.177798"
     inkscape:window-x="0"
     inkscape:window-y="0"
     inkscape:window-maximized="1"
     inkscape:current-layer="svg18" />
  <rect
     style="opacity:1;fill:#8e8e8e;fill-opacity:1;fill-rule:evenodd;stroke:none;stroke-width:1.03534329;stroke-linecap:round;stroke-linejoin:bevel;stroke-miterlimit:4;stroke-dasharray:none;stroke-dashoffset:0;stroke-opacity:1"
     id="rect4497-3"
     width="28.203388"
     height="28.203388"
     x="1.8983059"
     y="1.8983059"
     ry="5.575182" />
  <g
     id="g4519"
     transform="matrix(0.69023745,0,0,0.69023745,4.9562008,4.9562008)">
    <rect
       id="rect4"
       transform="matrix(0,-1,-1,0,0,0)"
       ry="1.25"
       rx="1.25"
       y="-29"
       x="-29"
       height="26"
       width="26"
       style="fill:#4d4d4d;fill-opacity:1" />
    <rect
       id="rect8"
       ry="1.25"
       rx="1.25"
       y="15"
       x="6"
       height="12"
       width="20"
       style="fill:#ffffff" />
    <path
       id="path10"
       d="m 6,24 v 1.75 C 6,26.442 6.5575,27 7.25,27 h 17.5 C 25.442,27 26,26.442 26,25.75 V 24 Z"
       style="fill:#ffae3f"
       inkscape:connector-curvature="0" />
    <path
       id="path14"
       d="m 10,3 v 8.75 c 0,0.693 0.557,1.25 1.25,1.25 h 13.5 C 25.442,13 26,12.443 26,11.75 V 3 Z m 10,2 h 3 c 0.554,0 1,0.446 1,1 v 4 c 0,0.554 -0.446,1 -1,1 h -3 c -0.554,0 -1,-0.446 -1,-1 V 6 c 0,-0.554 0.446,-1 1,-1 z"
       style="fill:#e6e6e6;fill-opacity:1"
       inkscape:connector-curvature="0" />
  </g>
</svg>
