<?xml version="1.0" encoding="UTF-8"?>
<svg xmlns="http://www.w3.org/2000/svg" xmlns:xlink="http://www.w3.org/1999/xlink" width="36pt" height="36pt" viewBox="0 0 36 36" version="1.1">
<g id="surface1">
<path style=" stroke:none;fill-rule:evenodd;fill:rgb(55.686275%,55.686275%,55.686275%);fill-opacity:1;" d="M 8.40625 2.136719 L 27.59375 2.136719 C 31.054688 2.136719 33.863281 4.945312 33.863281 8.40625 L 33.863281 27.59375 C 33.863281 31.054688 31.054688 33.863281 27.59375 33.863281 L 8.40625 33.863281 C 4.945312 33.863281 2.136719 31.054688 2.136719 27.59375 L 2.136719 8.40625 C 2.136719 4.945312 4.945312 2.136719 8.40625 2.136719 Z M 8.40625 2.136719 "/>
<path style=" stroke:none;fill-rule:nonzero;fill:rgb(90.196078%,90.196078%,90.196078%);fill-opacity:1;" d="M 24.132812 13.292969 C 23.226562 16.679688 19.742188 18.691406 16.355469 17.785156 C 12.96875 16.875 10.960938 13.394531 11.867188 10.007812 C 12.773438 6.621094 16.257812 4.609375 19.644531 5.515625 C 23.03125 6.425781 25.039062 9.90625 24.132812 13.292969 Z M 24.132812 13.292969 "/>
<path style=" stroke:none;fill-rule:nonzero;fill:rgb(30.196078%,30.196078%,30.196078%);fill-opacity:1;" d="M 14.765625 16.1875 L 21.234375 16.1875 C 21.953125 16.1875 22.601562 16.730469 22.53125 17.394531 L 21.234375 29.492188 C 21.164062 30.15625 20.660156 30.699219 19.941406 30.699219 L 16.058594 30.699219 C 15.339844 30.699219 14.835938 30.15625 14.765625 29.488281 L 13.472656 17.394531 C 13.398438 16.726562 14.046875 16.1875 14.765625 16.1875 Z M 14.765625 16.1875 "/>
<path style=" stroke:none;fill-rule:nonzero;fill:rgb(24.705882%,24.705882%,24.705882%);fill-opacity:1;" d="M 13.238281 15.277344 L 22.761719 15.277344 C 23.136719 15.277344 23.441406 15.550781 23.441406 15.882812 L 23.441406 16.488281 C 23.441406 16.820312 23.136719 17.09375 22.761719 17.09375 L 13.238281 17.09375 C 12.863281 17.09375 12.558594 16.820312 12.558594 16.488281 L 12.558594 15.882812 C 12.558594 15.550781 12.863281 15.277344 13.238281 15.277344 Z M 13.238281 15.277344 "/>
</g>
</svg>
