<?xml version="1.0" encoding="UTF-8"?>
<svg xmlns="http://www.w3.org/2000/svg" xmlns:xlink="http://www.w3.org/1999/xlink" width="36pt" height="36pt" viewBox="0 0 36 36" version="1.1">
<g id="surface1">
<path style=" stroke:none;fill-rule:evenodd;fill:rgb(55.686275%,55.686275%,55.686275%);fill-opacity:1;" d="M 8.410156 2.136719 L 27.589844 2.136719 C 31.0625 2.136719 33.863281 4.9375 33.863281 8.410156 L 33.863281 27.589844 C 33.863281 31.0625 31.0625 33.863281 27.589844 33.863281 L 8.410156 33.863281 C 4.9375 33.863281 2.136719 31.0625 2.136719 27.589844 L 2.136719 8.410156 C 2.136719 4.9375 4.9375 2.136719 8.410156 2.136719 Z M 8.410156 2.136719 "/>
<path style=" stroke:none;fill-rule:nonzero;fill:rgb(90.196078%,90.196078%,90.196078%);fill-opacity:1;" d="M 18 8.3125 C 13.007812 8.3125 8.964844 12.367188 8.964844 17.359375 L 8.964844 23.167969 C 8.964844 25.46875 10.601562 26.09375 11.539062 26.269531 L 11.539062 17.359375 C 11.539062 13.78125 14.421875 10.898438 18 10.898438 C 21.578125 10.898438 24.460938 13.78125 24.460938 17.359375 L 24.460938 26.269531 C 25.398438 26.09375 27.035156 25.46875 27.035156 23.167969 L 27.035156 17.359375 C 27.035156 12.367188 22.992188 8.3125 18 8.3125 Z M 18 8.3125 "/>
<path style=" stroke:none;fill-rule:nonzero;fill:rgb(30.196078%,30.196078%,30.196078%);fill-opacity:1;" d="M 11.539062 18.640625 L 11.539062 27.6875 L 14.773438 27.6875 L 14.773438 18.640625 Z M 21.226562 18.640625 L 21.226562 27.6875 L 24.460938 27.6875 L 24.460938 18.640625 Z M 21.226562 18.640625 "/>
</g>
</svg>
