<?xml version="1.0" encoding="UTF-8"?>
<svg xmlns="http://www.w3.org/2000/svg" xmlns:xlink="http://www.w3.org/1999/xlink" width="36pt" height="36pt" viewBox="0 0 36 36" version="1.1">
<g id="surface1">
<path style=" stroke:none;fill-rule:evenodd;fill:rgb(35.686275%,35.686275%,35.686275%);fill-opacity:1;" d="M 8.40625 2.136719 L 27.59375 2.136719 C 31.054688 2.136719 33.863281 4.945312 33.863281 8.40625 L 33.863281 27.59375 C 33.863281 31.054688 31.054688 33.863281 27.59375 33.863281 L 8.40625 33.863281 C 4.945312 33.863281 2.136719 31.054688 2.136719 27.59375 L 2.136719 8.40625 C 2.136719 4.945312 4.945312 2.136719 8.40625 2.136719 Z M 8.40625 2.136719 "/>
<path style=" stroke:none;fill-rule:nonzero;fill:rgb(35.686275%,35.686275%,35.686275%);fill-opacity:1;" d="M 27.484375 3.910156 L 8.515625 3.910156 C 7.765625 3.910156 7.160156 4.539062 7.160156 5.316406 L 7.160156 30.683594 C 7.160156 31.460938 7.765625 32.089844 8.515625 32.089844 L 27.484375 32.089844 C 28.234375 32.089844 28.839844 31.460938 28.839844 30.683594 L 28.839844 5.316406 C 28.839844 4.539062 28.234375 3.910156 27.484375 3.910156 Z M 27.484375 3.910156 "/>
<path style=" stroke:none;fill-rule:nonzero;fill:rgb(24.313725%,24.313725%,24.313725%);fill-opacity:1;" d="M 18 10.414062 C 23.386719 10.414062 27.753906 14.78125 27.753906 20.167969 C 27.753906 25.554688 23.386719 29.921875 18 29.921875 C 12.613281 29.921875 8.246094 25.554688 8.246094 20.167969 C 8.246094 14.78125 12.613281 10.414062 18 10.414062 Z M 18 10.414062 "/>
<path style=" stroke:none;fill-rule:nonzero;fill:rgb(99.607843%,75.294118%,2.352941%);fill-opacity:1;" d="M 18 12.582031 C 13.808594 12.582031 10.414062 15.976562 10.414062 20.167969 C 10.414062 24.359375 13.808594 27.753906 18 27.753906 C 22.191406 27.753906 25.585938 24.359375 25.585938 20.167969 C 25.585938 15.976562 22.191406 12.582031 18 12.582031 Z M 18 12.582031 "/>
<path style=" stroke:none;fill-rule:nonzero;fill:rgb(24.705882%,24.705882%,24.705882%);fill-opacity:1;" d="M 18 16.917969 C 16.203125 16.917969 14.75 18.371094 14.75 20.167969 C 14.75 21.964844 16.203125 23.417969 18 23.417969 C 19.796875 23.417969 21.25 21.964844 21.25 20.167969 C 21.25 18.371094 19.796875 16.917969 18 16.917969 Z M 18 16.917969 "/>
<path style=" stroke:none;fill-rule:nonzero;fill:rgb(24.313725%,24.313725%,24.313725%);fill-opacity:1;" d="M 11.496094 9.328125 C 10.898438 9.328125 10.414062 8.84375 10.414062 8.246094 C 10.414062 7.644531 10.898438 7.160156 11.496094 7.160156 C 12.09375 7.160156 12.582031 7.644531 12.582031 8.246094 C 12.582031 8.84375 12.09375 9.328125 11.496094 9.328125 Z M 11.496094 9.328125 "/>
<path style=" stroke:none;fill-rule:nonzero;fill:rgb(24.313725%,24.313725%,24.313725%);fill-opacity:1;" d="M 24.503906 9.328125 C 23.90625 9.328125 23.417969 8.84375 23.417969 8.246094 C 23.417969 7.644531 23.90625 7.160156 24.503906 7.160156 C 25.101562 7.160156 25.585938 7.644531 25.585938 8.246094 C 25.585938 8.84375 25.101562 9.328125 24.503906 9.328125 Z M 24.503906 9.328125 "/>
</g>
</svg>
