<?xml version="1.0" encoding="UTF-8"?>
<svg xmlns="http://www.w3.org/2000/svg" xmlns:xlink="http://www.w3.org/1999/xlink" width="36pt" height="36pt" viewBox="0 0 36 36" version="1.1">
<g id="surface1">
<path style=" stroke:none;fill-rule:evenodd;fill:rgb(55.686275%,55.686275%,55.686275%);fill-opacity:1;" d="M 8.40625 2.136719 L 27.59375 2.136719 C 31.054688 2.136719 33.863281 4.945312 33.863281 8.40625 L 33.863281 27.59375 C 33.863281 31.054688 31.054688 33.863281 27.59375 33.863281 L 8.40625 33.863281 C 4.945312 33.863281 2.136719 31.054688 2.136719 27.59375 L 2.136719 8.40625 C 2.136719 4.945312 4.945312 2.136719 8.40625 2.136719 Z M 8.40625 2.136719 "/>
<path style=" stroke:none;fill-rule:nonzero;fill:rgb(90.196078%,90.196078%,90.196078%);fill-opacity:1;" d="M 18 8.316406 C 13.007812 8.316406 8.960938 12.363281 8.960938 17.355469 L 8.960938 23.164062 C 8.960938 25.46875 10.601562 26.097656 11.542969 26.269531 L 11.542969 17.355469 C 11.542969 13.777344 14.421875 10.898438 18 10.898438 C 21.578125 10.898438 24.457031 13.777344 24.457031 17.355469 L 24.457031 26.269531 C 25.398438 26.097656 27.039062 25.46875 27.039062 23.164062 L 27.039062 17.355469 C 27.039062 12.363281 22.992188 8.316406 18 8.316406 Z M 18 8.316406 "/>
<path style=" stroke:none;fill-rule:nonzero;fill:rgb(30.196078%,30.196078%,30.196078%);fill-opacity:1;" d="M 11.542969 18.644531 L 11.542969 27.683594 L 14.773438 27.683594 L 14.773438 18.644531 Z M 21.226562 18.644531 L 21.226562 27.683594 L 24.457031 27.683594 L 24.457031 18.644531 Z M 21.226562 18.644531 "/>
</g>
</svg>
