<?xml version="1.0" encoding="UTF-8"?>
<svg xmlns="http://www.w3.org/2000/svg" xmlns:xlink="http://www.w3.org/1999/xlink" width="36pt" height="36pt" viewBox="0 0 36 36" version="1.1">
<defs>
<filter id="alpha" filterUnits="objectBoundingBox" x="0%" y="0%" width="100%" height="100%">
  <feColorMatrix type="matrix" in="SourceGraphic" values="0 0 0 0 1 0 0 0 0 1 0 0 0 0 1 0 0 0 1 0"/>
</filter>
<mask id="mask0">
  <g filter="url(#alpha)">
<rect x="0" y="0" width="36" height="36" style="fill:rgb(0%,0%,0%);fill-opacity:0.2;stroke:none;"/>
  </g>
</mask>
<clipPath id="clip1">
  <rect width="36" height="36"/>
</clipPath>
<g id="surface6" clip-path="url(#clip1)">
<path style=" stroke:none;fill-rule:nonzero;fill:rgb(0%,0%,0%);fill-opacity:1;" d="M 11.019531 27.183594 L 11.019531 27.972656 C 11.019531 28.554688 11.410156 29.019531 11.894531 29.019531 L 24.105469 29.019531 C 24.589844 29.019531 24.980469 28.554688 24.980469 27.972656 L 24.980469 27.183594 C 24.980469 27.765625 24.589844 28.234375 24.105469 28.234375 L 11.894531 28.234375 C 11.410156 28.234375 11.019531 27.765625 11.019531 27.183594 Z M 11.019531 27.183594 "/>
</g>
</defs>
<g id="surface1">
<path style=" stroke:none;fill-rule:evenodd;fill:rgb(55.686275%,55.686275%,55.686275%);fill-opacity:1;" d="M 8.40625 2.136719 L 27.59375 2.136719 C 31.054688 2.136719 33.863281 4.945312 33.863281 8.40625 L 33.863281 27.59375 C 33.863281 31.054688 31.054688 33.863281 27.59375 33.863281 L 8.40625 33.863281 C 4.945312 33.863281 2.136719 31.054688 2.136719 27.59375 L 2.136719 8.40625 C 2.136719 4.945312 4.945312 2.136719 8.40625 2.136719 Z M 8.40625 2.136719 "/>
<use xlink:href="#surface6" mask="url(#mask0)"/>
<path style=" stroke:none;fill-rule:nonzero;fill:rgb(35.686275%,35.686275%,35.686275%);fill-opacity:1;" d="M 24.980469 27.183594 L 24.980469 10.390625 C 24.980469 9.808594 24.589844 9.339844 24.105469 9.339844 L 11.894531 9.339844 C 11.410156 9.339844 11.019531 9.808594 11.019531 10.390625 L 11.019531 27.183594 C 11.019531 27.765625 11.410156 28.234375 11.894531 28.234375 L 24.105469 28.234375 C 24.589844 28.234375 24.980469 27.765625 24.980469 27.183594 Z M 24.980469 27.183594 "/>
<path style=" stroke:none;fill-rule:nonzero;fill:rgb(35.686275%,35.686275%,35.686275%);fill-opacity:1;" d="M 13.113281 6.980469 L 22.886719 6.980469 L 22.886719 9.339844 L 13.113281 9.339844 Z M 13.113281 6.980469 "/>
<path style=" stroke:none;fill-rule:nonzero;fill:rgb(75.294118%,97.647059%,34.117647%);fill-opacity:1;" d="M 12.417969 22.722656 L 23.582031 22.722656 L 23.582031 26.660156 L 12.417969 26.660156 Z M 12.417969 22.722656 "/>
<path style=" stroke:none;fill-rule:nonzero;fill:rgb(25.098039%,25.098039%,25.098039%);fill-opacity:1;" d="M 12.417969 11.703125 L 23.582031 11.703125 L 23.582031 15.636719 L 12.417969 15.636719 Z M 12.417969 11.703125 "/>
<path style=" stroke:none;fill-rule:nonzero;fill:rgb(25.098039%,25.098039%,25.098039%);fill-opacity:1;" d="M 12.417969 17.210938 L 23.582031 17.210938 L 23.582031 21.148438 L 12.417969 21.148438 Z M 12.417969 17.210938 "/>
</g>
</svg>
