<?xml version="1.0" encoding="UTF-8"?>
<svg xmlns="http://www.w3.org/2000/svg" xmlns:xlink="http://www.w3.org/1999/xlink" width="36pt" height="36pt" viewBox="0 0 36 36" version="1.1">
<g id="surface1">
<path style=" stroke:none;fill-rule:evenodd;fill:rgb(55.686275%,55.686275%,55.686275%);fill-opacity:1;" d="M 8.410156 2.136719 L 27.589844 2.136719 C 31.0625 2.136719 33.863281 4.9375 33.863281 8.410156 L 33.863281 27.589844 C 33.863281 31.0625 31.0625 33.863281 27.589844 33.863281 L 8.410156 33.863281 C 4.9375 33.863281 2.136719 31.0625 2.136719 27.589844 L 2.136719 8.410156 C 2.136719 4.9375 4.9375 2.136719 8.410156 2.136719 Z M 8.410156 2.136719 "/>
<path style=" stroke:none;fill-rule:nonzero;fill:rgb(46.27451%,100%,1.176471%);fill-opacity:1;" d="M 27.085938 11.828125 C 27.085938 12.664062 26.410156 13.34375 25.578125 13.34375 C 24.75 13.34375 24.074219 12.664062 24.074219 11.828125 C 24.074219 10.996094 24.75 10.328125 25.578125 10.328125 C 26.410156 10.328125 27.085938 10.996094 27.085938 11.828125 Z M 27.085938 11.828125 "/>
<path style=" stroke:none;fill-rule:nonzero;fill:rgb(46.27451%,100%,1.176471%);fill-opacity:1;" d="M 27.085938 23.878906 C 27.085938 24.714844 26.410156 25.390625 25.578125 25.390625 C 24.75 25.390625 24.074219 24.714844 24.074219 23.878906 C 24.074219 23.054688 24.75 22.375 25.578125 22.375 C 26.410156 22.375 27.085938 23.054688 27.085938 23.878906 Z M 27.085938 23.878906 "/>
</g>
</svg>
