<?xml version="1.0" encoding="UTF-8"?>
<svg xmlns="http://www.w3.org/2000/svg" xmlns:xlink="http://www.w3.org/1999/xlink" width="36pt" height="36pt" viewBox="0 0 36 36" version="1.1">
<g id="surface1">
<path style=" stroke:none;fill-rule:evenodd;fill:rgb(55.686275%,55.686275%,55.686275%);fill-opacity:1;" d="M 8.410156 2.136719 L 27.589844 2.136719 C 31.0625 2.136719 33.863281 4.9375 33.863281 8.410156 L 33.863281 27.589844 C 33.863281 31.0625 31.0625 33.863281 27.589844 33.863281 L 8.410156 33.863281 C 4.9375 33.863281 2.136719 31.0625 2.136719 27.589844 L 2.136719 8.410156 C 2.136719 4.9375 4.9375 2.136719 8.410156 2.136719 Z M 8.410156 2.136719 "/>
<path style=" stroke:none;fill-rule:nonzero;fill:rgb(30.196078%,30.196078%,30.196078%);fill-opacity:1;" d="M 15.765625 22.464844 L 20.265625 22.464844 L 20.265625 24.152344 L 15.765625 24.152344 Z M 15.765625 22.464844 "/>
<path style=" stroke:none;fill-rule:nonzero;fill:rgb(30.196078%,30.196078%,30.196078%);fill-opacity:1;" d="M 15.765625 25.277344 L 20.265625 25.277344 L 20.265625 26.964844 L 15.765625 26.964844 Z M 15.765625 25.277344 "/>
<path style=" stroke:none;fill-rule:nonzero;fill:rgb(30.196078%,30.196078%,30.196078%);fill-opacity:1;" d="M 18.015625 13.464844 C 15.847656 13.464844 14.078125 15.230469 14.078125 17.402344 C 14.078125 19.582031 15.847656 21.339844 18.015625 21.339844 C 20.195312 21.339844 21.953125 19.582031 21.953125 17.402344 C 21.953125 15.230469 20.195312 13.464844 18.015625 13.464844 Z M 18.015625 15.714844 C 18.957031 15.714844 19.703125 16.46875 19.703125 17.402344 C 19.703125 18.335938 18.957031 19.089844 18.015625 19.089844 C 17.085938 19.089844 16.328125 18.335938 16.328125 17.402344 C 16.328125 16.46875 17.085938 15.714844 18.015625 15.714844 Z M 18.015625 15.714844 "/>
<path style=" stroke:none;fill-rule:nonzero;fill:rgb(30.196078%,30.196078%,30.196078%);fill-opacity:1;" d="M 23.167969 15.398438 L 19.984375 12.21875 L 23.167969 9.035156 L 26.351562 12.21875 Z M 23.167969 15.398438 "/>
<path style=" stroke:none;fill-rule:nonzero;fill:rgb(30.196078%,30.196078%,30.196078%);fill-opacity:1;" d="M 16.015625 12.21875 L 12.832031 15.398438 L 11.636719 14.203125 L 14.820312 11.023438 Z M 16.015625 12.21875 "/>
<path style=" stroke:none;fill-rule:nonzero;fill:rgb(30.196078%,30.196078%,30.196078%);fill-opacity:1;" d="M 14.019531 10.230469 L 10.835938 13.414062 L 9.648438 12.21875 L 12.832031 9.035156 Z M 14.019531 10.230469 "/>
</g>
</svg>
