<?xml version="1.0" encoding="UTF-8"?>
<svg xmlns="http://www.w3.org/2000/svg" xmlns:xlink="http://www.w3.org/1999/xlink" width="36pt" height="36pt" viewBox="0 0 36 36" version="1.1">
<g id="surface1">
<path style=" stroke:none;fill-rule:evenodd;fill:rgb(55.686275%,55.686275%,55.686275%);fill-opacity:1;" d="M 8.410156 2.136719 L 27.589844 2.136719 C 31.0625 2.136719 33.863281 4.9375 33.863281 8.410156 L 33.863281 27.589844 C 33.863281 31.0625 31.0625 33.863281 27.589844 33.863281 L 8.410156 33.863281 C 4.9375 33.863281 2.136719 31.0625 2.136719 27.589844 L 2.136719 8.410156 C 2.136719 4.9375 4.9375 2.136719 8.410156 2.136719 Z M 8.410156 2.136719 "/>
<path style=" stroke:none;fill-rule:nonzero;fill:rgb(30.196078%,30.196078%,30.196078%);fill-opacity:1;" d="M 18 8.59375 C 12.804688 8.59375 8.59375 12.804688 8.59375 18 L 8.59375 27.40625 L 18 27.40625 C 23.195312 27.40625 27.40625 23.195312 27.40625 18 C 27.40625 12.804688 23.195312 8.59375 18 8.59375 Z M 18 13.976562 C 20.222656 13.976562 22.023438 15.777344 22.023438 18 C 22.023438 20.222656 20.222656 22.023438 18 22.023438 C 15.777344 22.023438 13.976562 20.222656 13.976562 18 C 13.976562 15.777344 15.777344 13.976562 18 13.976562 Z M 18 13.976562 "/>
</g>
</svg>
