<?xml version="1.0" encoding="UTF-8"?>
<svg xmlns="http://www.w3.org/2000/svg" xmlns:xlink="http://www.w3.org/1999/xlink" width="36pt" height="36pt" viewBox="0 0 36 36" version="1.1">
<g id="surface1">
<path style=" stroke:none;fill-rule:evenodd;fill:rgb(55.686275%,55.686275%,55.686275%);fill-opacity:1;" d="M 8.40625 2.136719 L 27.59375 2.136719 C 31.054688 2.136719 33.863281 4.945312 33.863281 8.40625 L 33.863281 27.59375 C 33.863281 31.054688 31.054688 33.863281 27.59375 33.863281 L 8.40625 33.863281 C 4.945312 33.863281 2.136719 31.054688 2.136719 27.59375 L 2.136719 8.40625 C 2.136719 4.945312 4.945312 2.136719 8.40625 2.136719 Z M 8.40625 2.136719 "/>
<path style=" stroke:none;fill-rule:nonzero;fill:rgb(30.196078%,30.196078%,30.196078%);fill-opacity:1;" d="M 15.773438 22.464844 L 20.273438 22.464844 L 20.273438 24.152344 L 15.773438 24.152344 Z M 15.773438 22.464844 "/>
<path style=" stroke:none;fill-rule:nonzero;fill:rgb(30.196078%,30.196078%,30.196078%);fill-opacity:1;" d="M 15.773438 25.277344 L 20.273438 25.277344 L 20.273438 26.964844 L 15.773438 26.964844 Z M 15.773438 25.277344 "/>
<path style=" stroke:none;fill-rule:nonzero;fill:rgb(30.196078%,30.196078%,30.196078%);fill-opacity:1;" d="M 18.023438 13.464844 C 15.847656 13.464844 14.085938 15.230469 14.085938 17.402344 C 14.085938 19.578125 15.847656 21.339844 18.023438 21.339844 C 20.195312 21.339844 21.960938 19.578125 21.960938 17.402344 C 21.960938 15.230469 20.195312 13.464844 18.023438 13.464844 Z M 18.023438 15.714844 C 18.953125 15.714844 19.710938 16.472656 19.710938 17.402344 C 19.710938 18.335938 18.953125 19.089844 18.023438 19.089844 C 17.089844 19.089844 16.335938 18.335938 16.335938 17.402344 C 16.335938 16.472656 17.089844 15.714844 18.023438 15.714844 Z M 18.023438 15.714844 "/>
<path style=" stroke:none;fill-rule:nonzero;fill:rgb(30.196078%,30.196078%,30.196078%);fill-opacity:1;" d="M 23.171875 15.398438 L 19.988281 12.214844 L 23.171875 9.035156 L 26.351562 12.214844 Z M 23.171875 15.398438 "/>
<path style=" stroke:none;fill-rule:nonzero;fill:rgb(30.196078%,30.196078%,30.196078%);fill-opacity:1;" d="M 16.011719 12.214844 L 12.828125 15.398438 L 11.636719 14.203125 L 14.816406 11.023438 Z M 16.011719 12.214844 "/>
<path style=" stroke:none;fill-rule:nonzero;fill:rgb(30.196078%,30.196078%,30.196078%);fill-opacity:1;" d="M 14.023438 10.226562 L 10.839844 13.410156 L 9.648438 12.214844 L 12.828125 9.035156 Z M 14.023438 10.226562 "/>
</g>
</svg>
