<?xml version="1.0" encoding="UTF-8"?>
<svg xmlns="http://www.w3.org/2000/svg" xmlns:xlink="http://www.w3.org/1999/xlink" width="36pt" height="36pt" viewBox="0 0 36 36" version="1.1">
<g id="surface1">
<path style=" stroke:none;fill-rule:evenodd;fill:rgb(55.686275%,55.686275%,55.686275%);fill-opacity:1;" d="M 8.410156 2.136719 L 27.589844 2.136719 C 31.0625 2.136719 33.863281 4.9375 33.863281 8.410156 L 33.863281 27.589844 C 33.863281 31.0625 31.0625 33.863281 27.589844 33.863281 L 8.410156 33.863281 C 4.9375 33.863281 2.136719 31.0625 2.136719 27.589844 L 2.136719 8.410156 C 2.136719 4.9375 4.9375 2.136719 8.410156 2.136719 Z M 8.410156 2.136719 "/>
<path style=" stroke:none;fill-rule:nonzero;fill:rgb(40%,40%,40%);fill-opacity:1;" d="M 5.90625 23.0625 L 15.46875 23.0625 C 16.242188 23.0625 16.875 23.695312 16.875 24.46875 L 16.875 28.40625 C 16.875 29.179688 16.242188 29.8125 15.46875 29.8125 L 5.90625 29.8125 C 5.132812 29.8125 4.5 29.179688 4.5 28.40625 L 4.5 24.46875 C 4.5 23.695312 5.132812 23.0625 5.90625 23.0625 Z M 5.90625 23.0625 "/>
<path style=" stroke:none;fill-rule:nonzero;fill:rgb(40%,40%,40%);fill-opacity:1;" d="M 20.53125 23.0625 L 30.09375 23.0625 C 30.867188 23.0625 31.5 23.695312 31.5 24.46875 L 31.5 28.40625 C 31.5 29.179688 30.867188 29.8125 30.09375 29.8125 L 20.53125 29.8125 C 19.757812 29.8125 19.125 29.179688 19.125 28.40625 L 19.125 24.46875 C 19.125 23.695312 19.757812 23.0625 20.53125 23.0625 Z M 20.53125 23.0625 "/>
<path style=" stroke:none;fill-rule:nonzero;fill:rgb(40%,40%,40%);fill-opacity:1;" d="M 27 6.1875 L 31.5 6.1875 L 31.5 7.3125 L 27 7.3125 Z M 27 6.1875 "/>
<path style=" stroke:none;fill-rule:nonzero;fill:rgb(40%,40%,40%);fill-opacity:1;" d="M 27 8.4375 L 31.5 8.4375 L 31.5 9.5625 L 27 9.5625 Z M 27 8.4375 "/>
<path style=" stroke:none;fill-rule:nonzero;fill:rgb(40%,40%,40%);fill-opacity:1;" d="M 27 10.6875 L 31.5 10.6875 L 31.5 11.8125 L 27 11.8125 Z M 27 10.6875 "/>
<path style=" stroke:none;fill-rule:nonzero;fill:rgb(40%,40%,40%);fill-opacity:1;" d="M 27 12.9375 L 31.5 12.9375 L 31.5 14.0625 L 27 14.0625 Z M 27 12.9375 "/>
<path style=" stroke:none;fill-rule:nonzero;fill:rgb(40%,40%,40%);fill-opacity:1;" d="M 27 15.1875 L 31.5 15.1875 L 31.5 16.3125 L 27 16.3125 Z M 27 15.1875 "/>
<path style=" stroke:none;fill-rule:nonzero;fill:rgb(40%,40%,40%);fill-opacity:1;" d="M 27 17.4375 L 31.5 17.4375 L 31.5 18.5625 L 27 18.5625 Z M 27 17.4375 "/>
</g>
</svg>
