<?xml version="1.0" encoding="UTF-8"?>
<svg xmlns="http://www.w3.org/2000/svg" xmlns:xlink="http://www.w3.org/1999/xlink" width="36pt" height="36pt" viewBox="0 0 36 36" version="1.1">
<g id="surface1">
<path style=" stroke:none;fill-rule:evenodd;fill:rgb(55.686275%,55.686275%,55.686275%);fill-opacity:1;" d="M 8.410156 2.136719 L 27.589844 2.136719 C 31.0625 2.136719 33.863281 4.9375 33.863281 8.410156 L 33.863281 27.589844 C 33.863281 31.0625 31.0625 33.863281 27.589844 33.863281 L 8.410156 33.863281 C 4.9375 33.863281 2.136719 31.0625 2.136719 27.589844 L 2.136719 8.410156 C 2.136719 4.9375 4.9375 2.136719 8.410156 2.136719 Z M 8.410156 2.136719 "/>
<path style=" stroke:none;fill-rule:nonzero;fill:rgb(24.705882%,24.705882%,24.705882%);fill-opacity:1;" d="M 12.859375 10.8125 C 10.292969 10.8125 8.367188 12.839844 8.226562 15.355469 L 7.71875 24.933594 C 7.390625 26.804688 9.246094 27.992188 10.800781 25.945312 L 13.5 21.972656 C 13.613281 21.980469 13.738281 22 13.859375 22 L 22.085938 22 L 25.179688 26.070312 C 26.71875 28.109375 28.460938 26.429688 28.265625 25.046875 L 27.757812 15.503906 C 27.765625 15.453125 27.765625 15.40625 27.765625 15.355469 C 27.765625 12.832031 25.699219 10.8125 23.140625 10.8125 Z M 12.859375 10.8125 "/>
<path style=" stroke:none;fill-rule:nonzero;fill:rgb(90.196078%,90.196078%,90.196078%);fill-opacity:1;" d="M 12.101562 13.023438 L 12.101562 14.492188 L 10.625 14.492188 L 10.625 15.96875 L 12.101562 15.96875 L 12.101562 17.445312 L 13.570312 17.445312 L 13.570312 15.96875 L 15.046875 15.96875 L 15.046875 14.492188 L 13.570312 14.492188 L 13.570312 13.023438 Z M 12.101562 13.023438 "/>
<path style=" stroke:none;fill-rule:nonzero;fill:rgb(93.333333%,32.54902%,32.54902%);fill-opacity:1;" d="M 23.148438 13.023438 C 22.746094 13.023438 22.414062 13.351562 22.414062 13.753906 C 22.414062 14.167969 22.746094 14.492188 23.148438 14.492188 C 23.554688 14.492188 23.890625 14.167969 23.890625 13.753906 C 23.890625 13.351562 23.554688 13.023438 23.148438 13.023438 Z M 23.148438 13.023438 "/>
<path style=" stroke:none;fill-rule:nonzero;fill:rgb(93.333333%,32.54902%,32.54902%);fill-opacity:1;" d="M 21.671875 14.492188 C 21.269531 14.492188 20.9375 14.828125 20.9375 15.230469 C 20.9375 15.636719 21.269531 15.96875 21.671875 15.96875 C 22.085938 15.96875 22.414062 15.636719 22.414062 15.230469 C 22.414062 14.828125 22.085938 14.492188 21.671875 14.492188 Z M 21.671875 14.492188 "/>
<path style=" stroke:none;fill-rule:nonzero;fill:rgb(100%,79.215686%,34.509804%);fill-opacity:1;" d="M 24.625 14.492188 C 24.214844 14.492188 23.890625 14.828125 23.890625 15.230469 C 23.890625 15.636719 24.214844 15.96875 24.625 15.96875 C 25.03125 15.96875 25.355469 15.636719 25.355469 15.230469 C 25.355469 14.828125 25.03125 14.492188 24.625 14.492188 Z M 24.625 14.492188 "/>
<path style=" stroke:none;fill-rule:nonzero;fill:rgb(100%,79.215686%,34.509804%);fill-opacity:1;" d="M 23.148438 15.96875 C 22.746094 15.96875 22.414062 16.296875 22.414062 16.707031 C 22.414062 17.113281 22.746094 17.445312 23.148438 17.445312 C 23.554688 17.445312 23.890625 17.113281 23.890625 16.707031 C 23.890625 16.296875 23.554688 15.96875 23.148438 15.96875 Z M 23.148438 15.96875 "/>
</g>
</svg>
