<?xml version="1.0" encoding="UTF-8"?>
<svg xmlns="http://www.w3.org/2000/svg" xmlns:xlink="http://www.w3.org/1999/xlink" width="36pt" height="36pt" viewBox="0 0 36 36" version="1.1">
<g id="surface1">
<path style=" stroke:none;fill-rule:evenodd;fill:rgb(55.686275%,55.686275%,55.686275%);fill-opacity:1;" d="M 8.40625 2.136719 L 27.59375 2.136719 C 31.054688 2.136719 33.863281 4.945312 33.863281 8.40625 L 33.863281 27.59375 C 33.863281 31.054688 31.054688 33.863281 27.59375 33.863281 L 8.40625 33.863281 C 4.945312 33.863281 2.136719 31.054688 2.136719 27.59375 L 2.136719 8.40625 C 2.136719 4.945312 4.945312 2.136719 8.40625 2.136719 Z M 8.40625 2.136719 "/>
<path style=" stroke:none;fill-rule:nonzero;fill:rgb(24.705882%,24.705882%,24.705882%);fill-opacity:1;" d="M 12.859375 10.8125 C 10.292969 10.8125 8.363281 12.839844 8.230469 15.351562 L 7.714844 24.9375 C 7.390625 26.808594 9.246094 27.992188 10.800781 25.945312 L 13.496094 21.976562 C 13.617188 21.984375 13.734375 21.996094 13.855469 21.996094 L 22.089844 21.996094 L 25.175781 26.070312 C 26.722656 28.109375 28.460938 26.433594 28.265625 25.050781 L 27.757812 15.503906 C 27.761719 15.453125 27.765625 15.402344 27.765625 15.351562 C 27.765625 12.835938 25.703125 10.8125 23.136719 10.8125 L 12.855469 10.8125 Z M 12.859375 10.8125 "/>
<path style=" stroke:none;fill-rule:nonzero;fill:rgb(90.196078%,90.196078%,90.196078%);fill-opacity:1;" d="M 12.097656 13.023438 L 12.097656 14.496094 L 10.625 14.496094 L 10.625 15.96875 L 12.097656 15.96875 L 12.097656 17.441406 L 13.574219 17.441406 L 13.574219 15.96875 L 15.046875 15.96875 L 15.046875 14.496094 L 13.574219 14.496094 L 13.574219 13.023438 Z M 12.097656 13.023438 "/>
<path style=" stroke:none;fill-rule:nonzero;fill:rgb(93.333333%,32.54902%,32.54902%);fill-opacity:1;" d="M 23.148438 13.023438 C 22.742188 13.023438 22.414062 13.351562 22.414062 13.757812 C 22.414062 14.164062 22.742188 14.496094 23.148438 14.496094 C 23.558594 14.496094 23.886719 14.164062 23.886719 13.757812 C 23.886719 13.351562 23.558594 13.023438 23.148438 13.023438 Z M 23.148438 13.023438 "/>
<path style=" stroke:none;fill-rule:nonzero;fill:rgb(93.333333%,32.54902%,32.54902%);fill-opacity:1;" d="M 21.675781 14.496094 C 21.269531 14.496094 20.941406 14.824219 20.941406 15.230469 C 20.941406 15.640625 21.269531 15.96875 21.675781 15.96875 C 22.082031 15.96875 22.414062 15.640625 22.414062 15.230469 C 22.414062 14.824219 22.082031 14.496094 21.675781 14.496094 Z M 21.675781 14.496094 "/>
<path style=" stroke:none;fill-rule:nonzero;fill:rgb(100%,79.215686%,34.509804%);fill-opacity:1;" d="M 24.625 14.496094 C 24.214844 14.496094 23.886719 14.824219 23.886719 15.230469 C 23.886719 15.640625 24.214844 15.96875 24.625 15.96875 C 25.03125 15.96875 25.359375 15.640625 25.359375 15.230469 C 25.359375 14.824219 25.03125 14.496094 24.625 14.496094 Z M 24.625 14.496094 "/>
<path style=" stroke:none;fill-rule:nonzero;fill:rgb(100%,79.215686%,34.509804%);fill-opacity:1;" d="M 23.148438 15.96875 C 22.742188 15.96875 22.414062 16.296875 22.414062 16.707031 C 22.414062 17.113281 22.742188 17.441406 23.148438 17.441406 C 23.558594 17.441406 23.886719 17.113281 23.886719 16.707031 C 23.886719 16.296875 23.558594 15.96875 23.148438 15.96875 Z M 23.148438 15.96875 "/>
</g>
</svg>
