<?xml version="1.0" encoding="UTF-8"?>
<svg xmlns="http://www.w3.org/2000/svg" xmlns:xlink="http://www.w3.org/1999/xlink" width="36pt" height="36pt" viewBox="0 0 36 36" version="1.1">
<g id="surface1">
<path style=" stroke:none;fill-rule:evenodd;fill:rgb(55.686275%,55.686275%,55.686275%);fill-opacity:1;" d="M 8.410156 2.136719 L 27.589844 2.136719 C 31.0625 2.136719 33.863281 4.9375 33.863281 8.410156 L 33.863281 27.589844 C 33.863281 31.0625 31.0625 33.863281 27.589844 33.863281 L 8.410156 33.863281 C 4.9375 33.863281 2.136719 31.0625 2.136719 27.589844 L 2.136719 8.410156 C 2.136719 4.9375 4.9375 2.136719 8.410156 2.136719 Z M 8.410156 2.136719 "/>
<path style=" stroke:none;fill-rule:nonzero;fill:rgb(51.764706%,51.764706%,51.764706%);fill-opacity:1;" d="M 18 11.242188 C 14.265625 11.242188 11.242188 14.265625 11.242188 18 C 11.242188 21.734375 14.265625 24.757812 18 24.757812 C 21.734375 24.757812 24.757812 21.734375 24.757812 18 C 24.757812 14.265625 21.734375 11.242188 18 11.242188 Z M 18 15.292969 C 19.492188 15.292969 20.707031 16.507812 20.707031 18 C 20.707031 19.492188 19.492188 20.707031 18 20.707031 C 16.507812 20.707031 15.292969 19.492188 15.292969 18 C 15.292969 16.507812 16.507812 15.292969 18 15.292969 Z M 18 15.292969 "/>
<path style=" stroke:none;fill-rule:nonzero;fill:rgb(90.196078%,90.196078%,90.196078%);fill-opacity:1;" d="M 18 5.378906 C 11.003906 5.378906 5.378906 11.003906 5.378906 18 C 5.378906 24.996094 11.003906 30.621094 18 30.621094 C 24.996094 30.621094 30.621094 24.996094 30.621094 18 C 30.621094 11.003906 24.996094 5.378906 18 5.378906 Z M 18 12.585938 C 20.988281 12.585938 23.414062 15.011719 23.414062 18 C 23.414062 20.988281 20.988281 23.414062 18 23.414062 C 15.011719 23.414062 12.585938 20.988281 12.585938 18 C 12.585938 15.011719 15.011719 12.585938 18 12.585938 Z M 18 12.585938 "/>
</g>
</svg>
