<?xml version="1.0" encoding="UTF-8"?>
<svg xmlns="http://www.w3.org/2000/svg" xmlns:xlink="http://www.w3.org/1999/xlink" width="36pt" height="36pt" viewBox="0 0 36 36" version="1.1">
<g id="surface1">
<path style=" stroke:none;fill-rule:evenodd;fill:rgb(55.686275%,55.686275%,55.686275%);fill-opacity:1;" d="M 8.410156 2.136719 L 27.589844 2.136719 C 31.0625 2.136719 33.863281 4.9375 33.863281 8.410156 L 33.863281 27.589844 C 33.863281 31.0625 31.0625 33.863281 27.589844 33.863281 L 8.410156 33.863281 C 4.9375 33.863281 2.136719 31.0625 2.136719 27.589844 L 2.136719 8.410156 C 2.136719 4.9375 4.9375 2.136719 8.410156 2.136719 Z M 8.410156 2.136719 "/>
<path style=" stroke:none;fill-rule:nonzero;fill:rgb(30.196078%,30.196078%,30.196078%);fill-opacity:1;" d="M 9.324219 29.925781 L 26.675781 29.925781 C 27.5625 29.925781 28.28125 29.207031 28.28125 28.320312 L 28.28125 18.675781 C 28.28125 17.789062 27.5625 17.070312 26.675781 17.070312 L 9.324219 17.070312 C 8.4375 17.070312 7.71875 17.789062 7.71875 18.675781 L 7.71875 28.320312 C 7.71875 29.207031 8.4375 29.925781 9.324219 29.925781 Z M 9.324219 29.925781 "/>
<path style=" stroke:none;fill-rule:nonzero;fill:rgb(97.254902%,76.862745%,30.588235%);fill-opacity:1;" d="M 26.929688 6.734375 L 28.117188 6.734375 L 28.117188 11.496094 L 26.929688 11.496094 Z M 26.929688 6.734375 "/>
<path style=" stroke:none;fill-rule:nonzero;fill:rgb(97.254902%,76.862745%,30.588235%);fill-opacity:1;" d="M 24.546875 6.734375 L 25.734375 6.734375 L 25.734375 11.496094 L 24.546875 11.496094 Z M 24.546875 6.734375 "/>
<path style=" stroke:none;fill-rule:nonzero;fill:rgb(97.254902%,76.862745%,30.588235%);fill-opacity:1;" d="M 22.164062 6.734375 L 23.351562 6.734375 L 23.351562 11.496094 L 22.164062 11.496094 Z M 22.164062 6.734375 "/>
<path style=" stroke:none;fill-rule:nonzero;fill:rgb(97.254902%,76.862745%,30.588235%);fill-opacity:1;" d="M 19.785156 6.734375 L 20.980469 6.734375 L 20.980469 11.496094 L 19.785156 11.496094 Z M 19.785156 6.734375 "/>
<path style=" stroke:none;fill-rule:nonzero;fill:rgb(97.254902%,76.862745%,30.588235%);fill-opacity:1;" d="M 17.402344 6.734375 L 18.597656 6.734375 L 18.597656 11.496094 L 17.402344 11.496094 Z M 17.402344 6.734375 "/>
<path style=" stroke:none;fill-rule:nonzero;fill:rgb(97.254902%,76.862745%,30.588235%);fill-opacity:1;" d="M 15.019531 6.734375 L 16.214844 6.734375 L 16.214844 11.496094 L 15.019531 11.496094 Z M 15.019531 6.734375 "/>
<path style=" stroke:none;fill-rule:nonzero;fill:rgb(97.254902%,76.862745%,30.588235%);fill-opacity:1;" d="M 12.648438 6.734375 L 13.835938 6.734375 L 13.835938 11.496094 L 12.648438 11.496094 Z M 12.648438 6.734375 "/>
<path style=" stroke:none;fill-rule:nonzero;fill:rgb(97.254902%,76.862745%,30.588235%);fill-opacity:1;" d="M 10.265625 6.734375 L 11.453125 6.734375 L 11.453125 11.496094 L 10.265625 11.496094 Z M 10.265625 6.734375 "/>
<path style=" stroke:none;fill-rule:nonzero;fill:rgb(97.254902%,76.862745%,30.588235%);fill-opacity:1;" d="M 7.882812 9.113281 L 9.070312 9.113281 L 9.070312 11.496094 L 7.882812 11.496094 Z M 7.882812 9.113281 "/>
</g>
</svg>
