<?xml version="1.0" encoding="UTF-8"?>
<svg xmlns="http://www.w3.org/2000/svg" xmlns:xlink="http://www.w3.org/1999/xlink" width="36pt" height="36pt" viewBox="0 0 36 36" version="1.1">
<g id="surface1">
<path style=" stroke:none;fill-rule:evenodd;fill:rgb(55.686275%,55.686275%,55.686275%);fill-opacity:1;" d="M 8.40625 2.136719 L 27.59375 2.136719 C 31.054688 2.136719 33.863281 4.945312 33.863281 8.40625 L 33.863281 27.59375 C 33.863281 31.054688 31.054688 33.863281 27.59375 33.863281 L 8.40625 33.863281 C 4.945312 33.863281 2.136719 31.054688 2.136719 27.59375 L 2.136719 8.40625 C 2.136719 4.945312 4.945312 2.136719 8.40625 2.136719 Z M 8.40625 2.136719 "/>
<path style=" stroke:none;fill-rule:nonzero;fill:rgb(90.196078%,90.196078%,90.196078%);fill-opacity:1;" d="M 8.710938 2.136719 L 8.710938 12.785156 C 8.710938 13.628906 9.390625 14.304688 10.234375 14.304688 L 26.664062 14.304688 C 27.503906 14.304688 28.183594 13.628906 28.183594 12.785156 L 28.183594 2.136719 Z M 20.882812 4.570312 L 24.53125 4.570312 C 25.207031 4.570312 25.75 5.113281 25.75 5.785156 L 25.75 10.65625 C 25.75 11.328125 25.207031 11.871094 24.53125 11.871094 L 20.882812 11.871094 C 20.207031 11.871094 19.664062 11.328125 19.664062 10.65625 L 19.664062 5.785156 C 19.664062 5.113281 20.207031 4.570312 20.882812 4.570312 Z M 20.882812 4.570312 "/>
<path style=" stroke:none;fill-rule:nonzero;fill:rgb(100%,100%,100%);fill-opacity:1;" d="M 7.351562 16.722656 L 28.648438 16.722656 C 29.488281 16.722656 30.167969 17.40625 30.167969 18.246094 L 30.167969 29.804688 C 30.167969 30.644531 29.488281 31.328125 28.648438 31.328125 L 7.351562 31.328125 C 6.511719 31.328125 5.832031 30.644531 5.832031 29.804688 L 5.832031 18.246094 C 5.832031 17.40625 6.511719 16.722656 7.351562 16.722656 Z M 7.351562 16.722656 "/>
<path style=" stroke:none;fill-rule:nonzero;fill:rgb(100%,68.235294%,24.705882%);fill-opacity:1;" d="M 5.832031 27.675781 L 5.832031 29.804688 C 5.832031 30.648438 6.507812 31.328125 7.351562 31.328125 L 28.648438 31.328125 C 29.492188 31.328125 30.167969 30.648438 30.167969 29.804688 L 30.167969 27.675781 Z M 5.832031 27.675781 "/>
</g>
</svg>
