<?xml version="1.0" encoding="UTF-8"?>
<svg xmlns="http://www.w3.org/2000/svg" xmlns:xlink="http://www.w3.org/1999/xlink" width="36pt" height="36pt" viewBox="0 0 36 36" version="1.1">
<g id="surface1">
<path style=" stroke:none;fill-rule:evenodd;fill:rgb(55.686275%,55.686275%,55.686275%);fill-opacity:1;" d="M 8.40625 2.136719 L 27.59375 2.136719 C 31.054688 2.136719 33.863281 4.945312 33.863281 8.40625 L 33.863281 27.59375 C 33.863281 31.054688 31.054688 33.863281 27.59375 33.863281 L 8.40625 33.863281 C 4.945312 33.863281 2.136719 31.054688 2.136719 27.59375 L 2.136719 8.40625 C 2.136719 4.945312 4.945312 2.136719 8.40625 2.136719 Z M 8.40625 2.136719 "/>
<path style=" stroke:none;fill-rule:nonzero;fill:rgb(30.196078%,30.196078%,30.196078%);fill-opacity:1;" d="M 14.761719 28.527344 L 13.953125 28.527344 L 13.953125 7.472656 L 14.761719 7.472656 Z M 14.761719 28.527344 "/>
<path style=" stroke:none;fill-rule:nonzero;fill:rgb(30.196078%,30.196078%,30.196078%);fill-opacity:1;" d="M 12.332031 28.527344 L 11.523438 28.527344 L 11.523438 7.472656 L 12.332031 7.472656 Z M 12.332031 28.527344 "/>
<path style=" stroke:none;fill-rule:nonzero;fill:rgb(30.196078%,30.196078%,30.196078%);fill-opacity:1;" d="M 22.046875 28.527344 L 21.238281 28.527344 L 21.238281 7.472656 L 22.046875 7.472656 Z M 22.046875 28.527344 "/>
<path style=" stroke:none;fill-rule:nonzero;fill:rgb(30.196078%,30.196078%,30.196078%);fill-opacity:1;" d="M 19.621094 28.527344 L 18.808594 28.527344 L 18.808594 7.472656 L 19.621094 7.472656 Z M 19.621094 28.527344 "/>
<path style=" stroke:none;fill-rule:nonzero;fill:rgb(30.196078%,30.196078%,30.196078%);fill-opacity:1;" d="M 17.191406 28.527344 L 16.378906 28.527344 L 16.378906 7.472656 L 17.191406 7.472656 Z M 17.191406 28.527344 "/>
<path style=" stroke:none;fill-rule:nonzero;fill:rgb(30.196078%,30.196078%,30.196078%);fill-opacity:1;" d="M 24.476562 28.527344 L 23.667969 28.527344 L 23.667969 7.472656 L 24.476562 7.472656 Z M 24.476562 28.527344 "/>
<path style=" stroke:none;fill-rule:nonzero;fill:rgb(30.196078%,30.196078%,30.196078%);fill-opacity:1;" d="M 9.902344 14.761719 L 9.902344 13.953125 L 26.097656 13.953125 L 26.097656 14.761719 Z M 9.902344 14.761719 "/>
<path style=" stroke:none;fill-rule:nonzero;fill:rgb(30.196078%,30.196078%,30.196078%);fill-opacity:1;" d="M 9.902344 12.332031 L 9.902344 11.523438 L 26.097656 11.523438 L 26.097656 12.332031 Z M 9.902344 12.332031 "/>
<path style=" stroke:none;fill-rule:nonzero;fill:rgb(30.196078%,30.196078%,30.196078%);fill-opacity:1;" d="M 9.902344 9.902344 L 9.902344 9.09375 L 26.097656 9.09375 L 26.097656 9.902344 Z M 9.902344 9.902344 "/>
<path style=" stroke:none;fill-rule:nonzero;fill:rgb(30.196078%,30.196078%,30.196078%);fill-opacity:1;" d="M 9.902344 22.046875 L 9.902344 21.238281 L 26.097656 21.238281 L 26.097656 22.046875 Z M 9.902344 22.046875 "/>
<path style=" stroke:none;fill-rule:nonzero;fill:rgb(30.196078%,30.196078%,30.196078%);fill-opacity:1;" d="M 9.902344 19.621094 L 9.902344 18.808594 L 26.097656 18.808594 L 26.097656 19.621094 Z M 9.902344 19.621094 "/>
<path style=" stroke:none;fill-rule:nonzero;fill:rgb(30.196078%,30.196078%,30.196078%);fill-opacity:1;" d="M 9.902344 17.191406 L 9.902344 16.378906 L 26.097656 16.378906 L 26.097656 17.191406 Z M 9.902344 17.191406 "/>
<path style=" stroke:none;fill-rule:nonzero;fill:rgb(30.196078%,30.196078%,30.196078%);fill-opacity:1;" d="M 9.902344 24.476562 L 9.902344 23.667969 L 26.097656 23.667969 L 26.097656 24.476562 Z M 9.902344 24.476562 "/>
<path style=" stroke:none;fill-rule:nonzero;fill:rgb(30.196078%,30.196078%,30.196078%);fill-opacity:1;" d="M 9.902344 26.90625 L 9.902344 26.097656 L 26.097656 26.097656 L 26.097656 26.90625 Z M 9.902344 26.90625 "/>
<path style=" stroke:none;fill-rule:nonzero;fill:rgb(30.196078%,30.196078%,30.196078%);fill-opacity:1;" d="M 25.289062 26.703125 L 25.289062 9.296875 C 25.289062 8.738281 24.835938 8.285156 24.273438 8.285156 L 11.726562 8.285156 C 11.164062 8.285156 10.710938 8.738281 10.710938 9.296875 L 10.710938 26.703125 C 10.710938 27.261719 11.164062 27.714844 11.726562 27.714844 L 24.273438 27.714844 C 24.835938 27.714844 25.289062 27.261719 25.289062 26.703125 Z M 25.289062 26.703125 "/>
<path style=" stroke:none;fill-rule:nonzero;fill:rgb(90.196078%,90.196078%,90.196078%);fill-opacity:1;" d="M 18.808594 10.710938 L 18.808594 17.191406 L 18 17.191406 L 18 10.710938 Z M 18.808594 10.710938 "/>
<path style=" stroke:none;fill-rule:nonzero;fill:rgb(90.196078%,90.196078%,90.196078%);fill-opacity:1;" d="M 18.808594 18 L 18.808594 24.476562 L 18 24.476562 L 18 18 Z M 18.808594 18 "/>
<path style=" stroke:none;fill-rule:nonzero;fill:rgb(90.196078%,90.196078%,90.196078%);fill-opacity:1;" d="M 15.570312 10.710938 L 15.570312 13.140625 L 14.761719 13.140625 L 14.761719 10.710938 Z M 15.570312 10.710938 "/>
<path style=" stroke:none;fill-rule:nonzero;fill:rgb(90.196078%,90.196078%,90.196078%);fill-opacity:1;" d="M 15.570312 13.953125 L 15.570312 16.378906 L 14.761719 16.378906 L 14.761719 13.953125 Z M 15.570312 13.953125 "/>
<path style=" stroke:none;fill-rule:nonzero;fill:rgb(90.196078%,90.196078%,90.196078%);fill-opacity:1;" d="M 15.570312 17.191406 L 15.570312 22.046875 L 14.761719 22.046875 L 14.761719 17.191406 Z M 15.570312 17.191406 "/>
<path style=" stroke:none;fill-rule:nonzero;fill:rgb(90.196078%,90.196078%,90.196078%);fill-opacity:1;" d="M 22.046875 10.710938 L 22.046875 15.570312 L 21.238281 15.570312 L 21.238281 10.710938 Z M 22.046875 10.710938 "/>
<path style=" stroke:none;fill-rule:nonzero;fill:rgb(90.196078%,90.196078%,90.196078%);fill-opacity:1;" d="M 22.046875 16.378906 L 22.046875 18.808594 L 21.238281 18.808594 L 21.238281 16.378906 Z M 22.046875 16.378906 "/>
<path style=" stroke:none;fill-rule:nonzero;fill:rgb(90.196078%,90.196078%,90.196078%);fill-opacity:1;" d="M 22.046875 19.621094 L 22.046875 25.289062 L 21.238281 25.289062 L 21.238281 19.621094 Z M 22.046875 19.621094 "/>
</g>
</svg>
