<?xml version="1.0" encoding="UTF-8"?>
<svg xmlns="http://www.w3.org/2000/svg" xmlns:xlink="http://www.w3.org/1999/xlink" width="36pt" height="36pt" viewBox="0 0 36 36" version="1.1">
<g id="surface1">
<path style=" stroke:none;fill-rule:evenodd;fill:rgb(55.686275%,55.686275%,55.686275%);fill-opacity:1;" d="M 8.40625 2.136719 L 27.59375 2.136719 C 31.054688 2.136719 33.863281 4.945312 33.863281 8.40625 L 33.863281 27.59375 C 33.863281 31.054688 31.054688 33.863281 27.59375 33.863281 L 8.40625 33.863281 C 4.945312 33.863281 2.136719 31.054688 2.136719 27.59375 L 2.136719 8.40625 C 2.136719 4.945312 4.945312 2.136719 8.40625 2.136719 Z M 8.40625 2.136719 "/>
<path style=" stroke:none;fill-rule:nonzero;fill:rgb(51.764706%,51.764706%,51.764706%);fill-opacity:1;" d="M 18 11.238281 C 14.265625 11.238281 11.238281 14.265625 11.238281 18 C 11.238281 21.734375 14.265625 24.761719 18 24.761719 C 21.734375 24.761719 24.761719 21.734375 24.761719 18 C 24.761719 14.265625 21.734375 11.238281 18 11.238281 Z M 18 15.296875 C 19.492188 15.296875 20.703125 16.507812 20.703125 18 C 20.703125 19.492188 19.492188 20.703125 18 20.703125 C 16.507812 20.703125 15.296875 19.492188 15.296875 18 C 15.296875 16.507812 16.507812 15.296875 18 15.296875 Z M 18 15.296875 "/>
<path style=" stroke:none;fill-rule:nonzero;fill:rgb(90.196078%,90.196078%,90.196078%);fill-opacity:1;" d="M 18 5.378906 C 11.007812 5.378906 5.378906 11.007812 5.378906 18 C 5.378906 24.992188 11.007812 30.621094 18 30.621094 C 24.992188 30.621094 30.621094 24.992188 30.621094 18 C 30.621094 11.007812 24.992188 5.378906 18 5.378906 Z M 18 12.589844 C 20.988281 12.589844 23.410156 15.011719 23.410156 18 C 23.410156 20.988281 20.988281 23.410156 18 23.410156 C 15.011719 23.410156 12.589844 20.988281 12.589844 18 C 12.589844 15.011719 15.011719 12.589844 18 12.589844 Z M 18 12.589844 "/>
</g>
</svg>
