<?xml version="1.0" encoding="UTF-8"?>
<svg xmlns="http://www.w3.org/2000/svg" xmlns:xlink="http://www.w3.org/1999/xlink" width="36pt" height="36pt" viewBox="0 0 36 36" version="1.1">
<g id="surface1">
<path style=" stroke:none;fill-rule:evenodd;fill:rgb(55.686275%,55.686275%,55.686275%);fill-opacity:1;" d="M 8.402344 2.136719 C 4.929688 2.136719 2.136719 4.929688 2.136719 8.402344 L 2.136719 18.203125 L 33.863281 18.203125 L 33.863281 8.402344 C 33.863281 4.929688 31.070312 2.136719 27.597656 2.136719 Z M 8.402344 2.136719 "/>
<path style=" stroke:none;fill-rule:nonzero;fill:rgb(90.196078%,90.196078%,90.196078%);fill-opacity:1;" d="M 12.066406 7.398438 L 12.066406 19.273438 C 12.066406 19.976562 11.496094 20.539062 10.792969 20.539062 C 10.089844 20.539062 9.527344 19.976562 9.527344 19.273438 L 9.527344 7.398438 C 9.527344 6.707031 10.089844 6.132812 10.792969 6.132812 C 11.496094 6.132812 12.066406 6.707031 12.066406 7.398438 Z M 12.066406 7.398438 "/>
<path style=" stroke:none;fill-rule:evenodd;fill:rgb(30.196078%,30.196078%,30.196078%);fill-opacity:1;" d="M 33.863281 18.203125 L 2.136719 18.203125 L 2.136719 27.597656 C 2.136719 31.070312 4.929688 33.863281 8.402344 33.863281 L 27.597656 33.863281 C 31.070312 33.863281 33.863281 31.070312 33.863281 27.597656 Z M 33.863281 18.203125 "/>
<path style=" stroke:none;fill-rule:nonzero;fill:rgb(75.294118%,97.647059%,34.117647%);fill-opacity:1;" d="M 27.324219 23.933594 C 27.324219 25.339844 26.183594 26.472656 24.785156 26.472656 C 23.378906 26.472656 22.234375 25.339844 22.234375 23.933594 C 22.234375 22.527344 23.378906 21.390625 24.785156 21.390625 C 26.183594 21.390625 27.324219 22.527344 27.324219 23.933594 Z M 27.324219 23.933594 "/>
<path style=" stroke:none;fill-rule:nonzero;fill:rgb(56.862745%,68.627451%,35.686275%);fill-opacity:1;" d="M 20.539062 23.933594 C 20.539062 25.339844 19.40625 26.472656 18 26.472656 C 16.59375 26.472656 15.460938 25.339844 15.460938 23.933594 C 15.460938 22.527344 16.59375 21.390625 18 21.390625 C 19.40625 21.390625 20.539062 22.527344 20.539062 23.933594 Z M 20.539062 23.933594 "/>
</g>
</svg>
