<?xml version="1.0" encoding="UTF-8"?>
<svg xmlns="http://www.w3.org/2000/svg" xmlns:xlink="http://www.w3.org/1999/xlink" width="36pt" height="36pt" viewBox="0 0 36 36" version="1.1">
<g id="surface1">
<path style=" stroke:none;fill-rule:evenodd;fill:rgb(55.686275%,55.686275%,55.686275%);fill-opacity:1;" d="M 8.410156 2.136719 L 27.589844 2.136719 C 31.0625 2.136719 33.863281 4.9375 33.863281 8.410156 L 33.863281 27.589844 C 33.863281 31.0625 31.0625 33.863281 27.589844 33.863281 L 8.410156 33.863281 C 4.9375 33.863281 2.136719 31.0625 2.136719 27.589844 L 2.136719 8.410156 C 2.136719 4.9375 4.9375 2.136719 8.410156 2.136719 Z M 8.410156 2.136719 "/>
<path style=" stroke:none;fill-rule:nonzero;fill:rgb(30.980392%,60.392157%,23.529412%);fill-opacity:1;" d="M 18.042969 10.257812 C 13.957031 10.257812 10.273438 11.707031 7.226562 13.957031 L 18.042969 25.742188 L 28.773438 13.921875 C 25.734375 11.6875 22.09375 10.257812 18.042969 10.257812 Z M 18.042969 10.257812 "/>
<path style=" stroke:none;fill-rule:nonzero;fill:rgb(61.176471%,85.490196%,44.705882%);fill-opacity:1;" d="M 18 13.351562 C 14.75 13.351562 11.726562 14.414062 9.296875 16.226562 L 18.042969 25.742188 L 26.703125 16.226562 C 24.273438 14.421875 21.25 13.351562 18 13.351562 Z M 18 13.351562 "/>
<path style=" stroke:none;fill-rule:nonzero;fill:rgb(90.196078%,90.196078%,90.196078%);fill-opacity:1;" d="M 18 16.445312 C 15.554688 16.445312 13.289062 17.253906 11.46875 18.597656 L 18.035156 25.742188 L 24.53125 18.597656 C 22.703125 17.253906 20.445312 16.453125 18 16.453125 Z M 18 16.445312 "/>
</g>
</svg>
