<?xml version="1.0" encoding="UTF-8"?>
<svg xmlns="http://www.w3.org/2000/svg" xmlns:xlink="http://www.w3.org/1999/xlink" width="36pt" height="36pt" viewBox="0 0 36 36" version="1.1">
<g id="surface1">
<path style=" stroke:none;fill-rule:evenodd;fill:rgb(55.686275%,55.686275%,55.686275%);fill-opacity:1;" d="M 8.40625 2.136719 C 4.933594 2.136719 2.136719 4.933594 2.136719 8.40625 L 2.136719 18.203125 L 33.863281 18.203125 L 33.863281 8.40625 C 33.863281 4.933594 31.066406 2.136719 27.59375 2.136719 Z M 8.40625 2.136719 "/>
<path style=" stroke:none;fill-rule:nonzero;fill:rgb(90.196078%,90.196078%,90.196078%);fill-opacity:1;" d="M 12.066406 7.40625 L 12.066406 19.269531 C 12.066406 19.972656 11.496094 20.542969 10.796875 20.542969 C 10.09375 20.542969 9.523438 19.972656 9.523438 19.269531 L 9.523438 7.40625 C 9.523438 6.703125 10.09375 6.132812 10.796875 6.132812 C 11.496094 6.132812 12.066406 6.703125 12.066406 7.40625 Z M 12.066406 7.40625 "/>
<path style=" stroke:none;fill-rule:evenodd;fill:rgb(30.196078%,30.196078%,30.196078%);fill-opacity:1;" d="M 33.863281 18.203125 L 2.136719 18.203125 L 2.136719 27.59375 C 2.136719 31.066406 4.933594 33.863281 8.40625 33.863281 L 27.59375 33.863281 C 31.066406 33.863281 33.863281 31.066406 33.863281 27.59375 Z M 33.863281 18.203125 "/>
<path style=" stroke:none;fill-rule:nonzero;fill:rgb(75.294118%,97.647059%,34.117647%);fill-opacity:1;" d="M 27.324219 23.933594 C 27.324219 25.335938 26.183594 26.476562 24.78125 26.476562 C 23.375 26.476562 22.238281 25.335938 22.238281 23.933594 C 22.238281 22.527344 23.375 21.390625 24.78125 21.390625 C 26.183594 21.390625 27.324219 22.527344 27.324219 23.933594 Z M 27.324219 23.933594 "/>
<path style=" stroke:none;fill-rule:nonzero;fill:rgb(56.862745%,68.627451%,35.686275%);fill-opacity:1;" d="M 20.542969 23.933594 C 20.542969 25.335938 19.40625 26.476562 18 26.476562 C 16.59375 26.476562 15.457031 25.335938 15.457031 23.933594 C 15.457031 22.527344 16.59375 21.390625 18 21.390625 C 19.40625 21.390625 20.542969 22.527344 20.542969 23.933594 Z M 20.542969 23.933594 "/>
</g>
</svg>
