<?xml version="1.0" encoding="UTF-8"?>
<svg xmlns="http://www.w3.org/2000/svg" xmlns:xlink="http://www.w3.org/1999/xlink" width="36pt" height="36pt" viewBox="0 0 36 36" version="1.1">
<g id="surface1">
<path style=" stroke:none;fill-rule:evenodd;fill:rgb(55.686275%,55.686275%,55.686275%);fill-opacity:1;" d="M 8.40625 2.136719 L 27.59375 2.136719 C 31.054688 2.136719 33.863281 4.945312 33.863281 8.40625 L 33.863281 27.59375 C 33.863281 31.054688 31.054688 33.863281 27.59375 33.863281 L 8.40625 33.863281 C 4.945312 33.863281 2.136719 31.054688 2.136719 27.59375 L 2.136719 8.40625 C 2.136719 4.945312 4.945312 2.136719 8.40625 2.136719 Z M 8.40625 2.136719 "/>
<path style=" stroke:none;fill-rule:nonzero;fill:rgb(30.196078%,30.196078%,30.196078%);fill-opacity:1;" d="M 8.804688 5.757812 L 27.195312 5.757812 C 28.121094 5.757812 28.867188 6.589844 28.867188 7.621094 L 28.867188 28.121094 C 28.867188 29.152344 28.121094 29.984375 27.195312 29.984375 L 8.804688 29.984375 C 7.878906 29.984375 7.132812 29.152344 7.132812 28.121094 L 7.132812 7.621094 C 7.132812 6.589844 7.878906 5.757812 8.804688 5.757812 Z M 8.804688 5.757812 "/>
<path style=" stroke:none;fill-rule:nonzero;fill:rgb(30.196078%,30.196078%,30.196078%);fill-opacity:1;" d="M 19.085938 31.710938 C 19.085938 32.3125 18.601562 32.796875 18 32.796875 C 17.398438 32.796875 16.914062 32.3125 16.914062 31.710938 C 16.914062 31.109375 17.398438 30.625 18 30.625 C 18.601562 30.625 19.085938 31.109375 19.085938 31.710938 Z M 19.085938 31.710938 "/>
<path style=" stroke:none;fill-rule:nonzero;fill:rgb(30.196078%,30.196078%,30.196078%);fill-opacity:1;" d="M 15.160156 31.582031 C 15.160156 32.050781 14.78125 32.433594 14.308594 32.433594 C 13.839844 32.433594 13.457031 32.050781 13.457031 31.582031 C 13.457031 31.109375 13.839844 30.730469 14.308594 30.730469 C 14.78125 30.730469 15.160156 31.109375 15.160156 31.582031 Z M 15.160156 31.582031 "/>
<path style=" stroke:none;fill-rule:nonzero;fill:rgb(30.196078%,30.196078%,30.196078%);fill-opacity:1;" d="M 22.550781 31.582031 C 22.550781 32.050781 22.167969 32.433594 21.695312 32.433594 C 21.226562 32.433594 20.84375 32.050781 20.84375 31.582031 C 20.84375 31.109375 21.226562 30.730469 21.695312 30.730469 C 22.167969 30.730469 22.550781 31.109375 22.550781 31.582031 Z M 22.550781 31.582031 "/>
<path style=" stroke:none;fill-rule:nonzero;fill:rgb(30.196078%,30.196078%,30.196078%);fill-opacity:1;" d="M 22.835938 2.246094 L 25.050781 2.246094 L 25.050781 5.289062 L 22.835938 5.289062 Z M 22.835938 2.246094 "/>
</g>
</svg>
