<?xml version="1.0" encoding="UTF-8"?>
<svg xmlns="http://www.w3.org/2000/svg" xmlns:xlink="http://www.w3.org/1999/xlink" width="36pt" height="36pt" viewBox="0 0 36 36" version="1.1">
<g id="surface1">
<path style=" stroke:none;fill-rule:evenodd;fill:rgb(55.686275%,55.686275%,55.686275%);fill-opacity:1;" d="M 8.410156 2.136719 L 27.589844 2.136719 C 31.0625 2.136719 33.863281 4.9375 33.863281 8.410156 L 33.863281 27.589844 C 33.863281 31.0625 31.0625 33.863281 27.589844 33.863281 L 8.410156 33.863281 C 4.9375 33.863281 2.136719 31.0625 2.136719 27.589844 L 2.136719 8.410156 C 2.136719 4.9375 4.9375 2.136719 8.410156 2.136719 Z M 8.410156 2.136719 "/>
<path style=" stroke:none;fill-rule:nonzero;fill:rgb(30.196078%,30.196078%,30.196078%);fill-opacity:1;" d="M 8.804688 5.757812 L 27.195312 5.757812 C 28.125 5.757812 28.863281 6.59375 28.863281 7.621094 L 28.863281 28.125 C 28.863281 29.152344 28.125 29.988281 27.195312 29.988281 L 8.804688 29.988281 C 7.875 29.988281 7.136719 29.152344 7.136719 28.125 L 7.136719 7.621094 C 7.136719 6.59375 7.882812 5.757812 8.804688 5.757812 Z M 8.804688 5.757812 "/>
<path style=" stroke:none;fill-rule:nonzero;fill:rgb(30.196078%,30.196078%,30.196078%);fill-opacity:1;" d="M 14.257812 3.648438 L 21.867188 3.648438 C 22.164062 3.648438 22.414062 3.894531 22.414062 4.191406 C 22.414062 4.492188 22.164062 4.738281 21.867188 4.738281 L 14.257812 4.738281 C 13.957031 4.738281 13.71875 4.492188 13.71875 4.191406 C 13.71875 3.894531 13.957031 3.648438 14.257812 3.648438 Z M 14.257812 3.648438 "/>
<path style=" stroke:none;fill-rule:nonzero;fill:rgb(30.196078%,30.196078%,30.196078%);fill-opacity:1;" d="M 19.089844 31.710938 C 19.089844 32.308594 18.597656 32.800781 18 32.800781 C 17.402344 32.800781 16.910156 32.308594 16.910156 31.710938 C 16.910156 31.113281 17.402344 30.621094 18 30.621094 C 18.597656 30.621094 19.089844 31.113281 19.089844 31.710938 Z M 19.089844 31.710938 "/>
</g>
</svg>
