<?xml version="1.0" encoding="UTF-8"?>
<svg xmlns="http://www.w3.org/2000/svg" xmlns:xlink="http://www.w3.org/1999/xlink" width="36pt" height="36pt" viewBox="0 0 36 36" version="1.1">
<g id="surface1">
<path style=" stroke:none;fill-rule:evenodd;fill:rgb(55.686275%,55.686275%,55.686275%);fill-opacity:1;" d="M 24.941406 33.863281 L 27.59375 33.863281 C 31.066406 33.863281 33.863281 31.066406 33.863281 27.59375 L 33.863281 8.40625 C 33.863281 4.933594 31.066406 2.136719 27.59375 2.136719 L 24.941406 2.136719 Z M 24.941406 33.863281 "/>
<path style=" stroke:none;fill-rule:evenodd;fill:rgb(55.686275%,55.686275%,55.686275%);fill-opacity:1;" d="M 11.058594 2.136719 L 8.40625 2.136719 C 4.933594 2.136719 2.136719 4.933594 2.136719 8.40625 L 2.136719 27.59375 C 2.136719 31.066406 4.933594 33.863281 8.40625 33.863281 L 11.058594 33.863281 Z M 11.058594 2.136719 "/>
<path style=" stroke:none;fill-rule:evenodd;fill:rgb(90.196078%,90.196078%,90.196078%);fill-opacity:1;" d="M 11.058594 2.136719 L 11.058594 33.863281 L 24.941406 33.863281 L 24.941406 2.136719 Z M 11.058594 2.136719 "/>
<path style=" stroke:none;fill-rule:nonzero;fill:rgb(90.196078%,90.196078%,90.196078%);fill-opacity:1;" d="M 24.09375 6.191406 L 24.09375 29.808594 C 24.09375 30.535156 23.546875 31.121094 22.875 31.121094 L 13.125 31.121094 C 12.453125 31.121094 11.90625 30.535156 11.90625 29.808594 L 11.90625 6.191406 C 11.90625 5.464844 12.453125 4.878906 13.125 4.878906 L 22.875 4.878906 C 23.546875 4.878906 24.09375 5.464844 24.09375 6.191406 Z M 24.09375 6.191406 "/>
<path style=" stroke:none;fill-rule:nonzero;fill:rgb(35.686275%,35.686275%,35.686275%);fill-opacity:1;" d="M 21.28125 10.316406 C 21.28125 9.949219 20.988281 9.660156 20.625 9.660156 L 19.3125 9.660156 L 19.3125 8.347656 C 19.3125 7.984375 19.019531 7.691406 18.65625 7.691406 L 17.34375 7.691406 C 16.980469 7.691406 16.6875 7.984375 16.6875 8.347656 L 16.6875 9.660156 L 15.375 9.660156 C 15.011719 9.660156 14.71875 9.949219 14.71875 10.316406 L 14.71875 11.625 C 14.71875 11.988281 15.011719 12.28125 15.375 12.28125 L 16.6875 12.28125 L 16.6875 13.59375 C 16.6875 13.957031 16.980469 14.25 17.34375 14.25 L 18.65625 14.25 C 19.019531 14.25 19.3125 13.957031 19.3125 13.59375 L 19.3125 12.28125 L 20.621094 12.28125 C 20.988281 12.28125 21.28125 11.992188 21.28125 11.625 Z M 21.28125 10.316406 "/>
<path style=" stroke:none;fill-rule:nonzero;fill:rgb(35.686275%,35.686275%,35.686275%);fill-opacity:1;" d="M 19.875 28.308594 C 19.097656 28.308594 18.46875 27.679688 18.46875 26.902344 C 18.46875 26.128906 19.097656 25.496094 19.875 25.496094 C 20.652344 25.496094 21.28125 26.128906 21.28125 26.902344 C 21.28125 27.679688 20.652344 28.308594 19.875 28.308594 Z M 19.875 28.308594 "/>
<path style=" stroke:none;fill-rule:nonzero;fill:rgb(35.686275%,35.686275%,35.686275%);fill-opacity:1;" d="M 19.875 24.5625 C 19.097656 24.5625 18.46875 23.929688 18.46875 23.15625 C 18.46875 22.378906 19.097656 21.75 19.875 21.75 C 20.652344 21.75 21.28125 22.378906 21.28125 23.15625 C 21.28125 23.929688 20.652344 24.5625 19.875 24.5625 Z M 19.875 24.5625 "/>
<path style=" stroke:none;fill-rule:nonzero;fill:rgb(35.686275%,35.686275%,35.686275%);fill-opacity:1;" d="M 16.125 28.308594 C 15.347656 28.308594 14.71875 27.679688 14.71875 26.902344 C 14.71875 26.128906 15.347656 25.496094 16.125 25.496094 C 16.902344 25.496094 17.53125 26.128906 17.53125 26.902344 C 17.53125 27.679688 16.902344 28.308594 16.125 28.308594 Z M 16.125 28.308594 "/>
<path style=" stroke:none;fill-rule:nonzero;fill:rgb(35.686275%,35.686275%,35.686275%);fill-opacity:1;" d="M 16.125 24.5625 C 15.347656 24.5625 14.71875 23.929688 14.71875 23.15625 C 14.71875 22.378906 15.347656 21.75 16.125 21.75 C 16.902344 21.75 17.53125 22.378906 17.53125 23.15625 C 17.53125 23.929688 16.902344 24.5625 16.125 24.5625 Z M 16.125 24.5625 "/>
</g>
</svg>
