<?xml version="1.0" encoding="UTF-8"?>
<svg xmlns="http://www.w3.org/2000/svg" xmlns:xlink="http://www.w3.org/1999/xlink" width="36pt" height="36pt" viewBox="0 0 36 36" version="1.1">
<g id="surface1">
<path style=" stroke:none;fill-rule:evenodd;fill:rgb(55.686275%,55.686275%,55.686275%);fill-opacity:1;" d="M 24.945312 33.863281 L 27.597656 33.863281 C 31.070312 33.863281 33.863281 31.070312 33.863281 27.597656 L 33.863281 8.402344 C 33.863281 4.929688 31.070312 2.136719 27.597656 2.136719 L 24.945312 2.136719 Z M 24.945312 33.863281 "/>
<path style=" stroke:none;fill-rule:evenodd;fill:rgb(55.686275%,55.686275%,55.686275%);fill-opacity:1;" d="M 11.054688 2.136719 L 8.402344 2.136719 C 4.929688 2.136719 2.136719 4.929688 2.136719 8.402344 L 2.136719 27.597656 C 2.136719 31.070312 4.929688 33.863281 8.402344 33.863281 L 11.054688 33.863281 Z M 11.054688 2.136719 "/>
<path style=" stroke:none;fill-rule:evenodd;fill:rgb(90.196078%,90.196078%,90.196078%);fill-opacity:1;" d="M 11.054688 2.136719 L 11.054688 33.863281 L 24.945312 33.863281 L 24.945312 2.136719 Z M 11.054688 2.136719 "/>
<path style=" stroke:none;fill-rule:nonzero;fill:rgb(90.196078%,90.196078%,90.196078%);fill-opacity:1;" d="M 24.089844 6.1875 L 24.089844 29.8125 C 24.089844 30.53125 23.546875 31.121094 22.878906 31.121094 L 13.121094 31.121094 C 12.453125 31.121094 11.910156 30.53125 11.910156 29.8125 L 11.910156 6.1875 C 11.910156 5.46875 12.453125 4.878906 13.121094 4.878906 L 22.878906 4.878906 C 23.546875 4.878906 24.089844 5.46875 24.089844 6.1875 Z M 24.089844 6.1875 "/>
<path style=" stroke:none;fill-rule:nonzero;fill:rgb(35.686275%,35.686275%,35.686275%);fill-opacity:1;" d="M 21.277344 10.320312 C 21.277344 9.949219 20.988281 9.660156 20.628906 9.660156 L 19.308594 9.660156 L 19.308594 8.351562 C 19.308594 7.980469 19.019531 7.691406 18.660156 7.691406 L 17.339844 7.691406 C 16.980469 7.691406 16.691406 7.980469 16.691406 8.351562 L 16.691406 9.660156 L 15.371094 9.660156 C 15.011719 9.660156 14.722656 9.949219 14.722656 10.320312 L 14.722656 11.628906 C 14.722656 11.988281 15.011719 12.289062 15.371094 12.289062 L 16.691406 12.289062 L 16.691406 13.597656 C 16.691406 13.957031 16.980469 14.246094 17.339844 14.246094 L 18.660156 14.246094 C 19.019531 14.246094 19.308594 13.957031 19.308594 13.597656 L 19.308594 12.277344 L 20.617188 12.277344 C 20.988281 12.277344 21.277344 11.988281 21.277344 11.628906 Z M 21.277344 10.320312 "/>
<path style=" stroke:none;fill-rule:nonzero;fill:rgb(35.686275%,35.686275%,35.686275%);fill-opacity:1;" d="M 19.871094 28.308594 C 19.097656 28.308594 18.464844 27.675781 18.464844 26.902344 C 18.464844 26.128906 19.097656 25.496094 19.871094 25.496094 C 20.65625 25.496094 21.277344 26.128906 21.277344 26.902344 C 21.277344 27.675781 20.65625 28.308594 19.871094 28.308594 Z M 19.871094 28.308594 "/>
<path style=" stroke:none;fill-rule:nonzero;fill:rgb(35.686275%,35.686275%,35.686275%);fill-opacity:1;" d="M 19.871094 24.554688 C 19.097656 24.554688 18.464844 23.933594 18.464844 23.160156 C 18.464844 22.375 19.097656 21.753906 19.871094 21.753906 C 20.65625 21.753906 21.277344 22.375 21.277344 23.160156 C 21.277344 23.933594 20.65625 24.554688 19.871094 24.554688 Z M 19.871094 24.554688 "/>
<path style=" stroke:none;fill-rule:nonzero;fill:rgb(35.686275%,35.686275%,35.686275%);fill-opacity:1;" d="M 16.128906 28.308594 C 15.34375 28.308594 14.722656 27.675781 14.722656 26.902344 C 14.722656 26.128906 15.34375 25.496094 16.128906 25.496094 C 16.902344 25.496094 17.535156 26.128906 17.535156 26.902344 C 17.535156 27.675781 16.902344 28.308594 16.128906 28.308594 Z M 16.128906 28.308594 "/>
<path style=" stroke:none;fill-rule:nonzero;fill:rgb(35.686275%,35.686275%,35.686275%);fill-opacity:1;" d="M 16.128906 24.554688 C 15.34375 24.554688 14.722656 23.933594 14.722656 23.160156 C 14.722656 22.375 15.34375 21.753906 16.128906 21.753906 C 16.902344 21.753906 17.535156 22.375 17.535156 23.160156 C 17.535156 23.933594 16.902344 24.554688 16.128906 24.554688 Z M 16.128906 24.554688 "/>
</g>
</svg>
