<?xml version="1.0" encoding="UTF-8"?>
<svg xmlns="http://www.w3.org/2000/svg" xmlns:xlink="http://www.w3.org/1999/xlink" width="48pt" height="48pt" viewBox="0 0 48 48" version="1.1">
<g id="surface1">
<path style=" stroke:none;fill-rule:evenodd;fill:rgb(99.607843%,80.392157%,21.960784%);fill-opacity:1;" d="M 11.207031 2.847656 L 36.792969 2.847656 C 41.40625 2.847656 45.152344 6.59375 45.152344 11.207031 L 45.152344 36.792969 C 45.152344 41.40625 41.40625 45.152344 36.792969 45.152344 L 11.207031 45.152344 C 6.59375 45.152344 2.847656 41.40625 2.847656 36.792969 L 2.847656 11.207031 C 2.847656 6.59375 6.59375 2.847656 11.207031 2.847656 Z M 11.207031 2.847656 "/>
<path style=" stroke:none;fill-rule:nonzero;fill:rgb(99.607843%,21.960784%,21.960784%);fill-opacity:1;" d="M 6.996094 15 L 6.996094 19.5 L 9.996094 19.5 L 9.996094 33 L 14.496094 33 L 14.496094 15 Z M 26.496094 15 C 21.527344 15 17.496094 19.03125 17.496094 24 C 17.496094 28.96875 21.527344 33 26.496094 33 L 39.457031 33 C 40.136719 31.578125 40.660156 30.078125 41.003906 28.5 L 26.496094 28.5 C 24.011719 28.5 21.996094 26.484375 21.996094 24 C 21.996094 21.515625 24.011719 19.5 26.496094 19.5 C 27.777344 19.5 28.988281 20.046875 29.84375 21 L 34.96875 21 C 33.699219 17.410156 30.308594 15.003906 26.496094 15 Z M 26.496094 15 "/>
</g>
</svg>
