<?xml version="1.0" encoding="UTF-8"?>
<svg xmlns="http://www.w3.org/2000/svg" xmlns:xlink="http://www.w3.org/1999/xlink" width="48pt" height="48pt" viewBox="0 0 48 48" version="1.1">
<g id="surface1">
<path style=" stroke:none;fill-rule:evenodd;fill:rgb(63.137255%,14.509804%,16.862745%);fill-opacity:1;" d="M 11.207031 2.847656 L 36.792969 2.847656 C 41.40625 2.847656 45.152344 6.59375 45.152344 11.207031 L 45.152344 36.792969 C 45.152344 41.40625 41.40625 45.152344 36.792969 45.152344 L 11.207031 45.152344 C 6.59375 45.152344 2.847656 41.40625 2.847656 36.792969 L 2.847656 11.207031 C 2.847656 6.59375 6.59375 2.847656 11.207031 2.847656 Z M 11.207031 2.847656 "/>
<path style=" stroke:none;fill-rule:nonzero;fill:rgb(100%,100%,100%);fill-opacity:1;" d="M 18.714844 11.832031 C 14.6875 11.832031 11.3125 15.214844 11.3125 19.238281 C 11.3125 20.824219 11.847656 22.296875 12.730469 23.515625 L 9.953125 28.140625 C 7.839844 31.667969 10.375 36.152344 14.480469 36.152344 L 33.515625 36.167969 C 37.441406 36.167969 40 32.03125 38.246094 28.515625 L 34.015625 20.046875 C 32.515625 17.050781 28.644531 16.1875 26.015625 18.265625 C 25.519531 14.6875 22.40625 11.832031 18.714844 11.832031 Z M 18.714844 11.832031 "/>
<path style=" stroke:none;fill-rule:nonzero;fill:rgb(63.137255%,14.509804%,16.862745%);fill-opacity:1;" d="M 18.707031 17.125 C 17.542969 17.125 16.59375 18.074219 16.59375 19.238281 C 16.59375 20.40625 17.542969 21.355469 18.707031 21.355469 C 19.878906 21.355469 20.828125 20.40625 20.828125 19.238281 C 20.828125 18.074219 19.878906 17.125 18.707031 17.125 Z M 29.292969 22.410156 L 26.113281 27.171875 L 22.941406 24.53125 L 19.769531 28.761719 L 17.652344 25.589844 L 14.480469 30.871094 L 33.519531 30.878906 Z M 29.292969 22.410156 "/>
</g>
</svg>
