<?xml version="1.0" encoding="UTF-8"?>
<svg xmlns="http://www.w3.org/2000/svg" xmlns:xlink="http://www.w3.org/1999/xlink" width="48pt" height="48pt" viewBox="0 0 48 48" version="1.1">
<g id="surface1">
<path style=" stroke:none;fill-rule:evenodd;fill:rgb(100%,71.764706%,23.529412%);fill-opacity:1;" d="M 11.207031 2.847656 L 36.792969 2.847656 C 41.40625 2.847656 45.152344 6.59375 45.152344 11.207031 L 45.152344 36.792969 C 45.152344 41.40625 41.40625 45.152344 36.792969 45.152344 L 11.207031 45.152344 C 6.59375 45.152344 2.847656 41.40625 2.847656 36.792969 L 2.847656 11.207031 C 2.847656 6.59375 6.59375 2.847656 11.207031 2.847656 Z M 11.207031 2.847656 "/>
<path style=" stroke:none;fill-rule:nonzero;fill:rgb(30.980392%,30.980392%,30.980392%);fill-opacity:1;" d="M 12.53125 27.582031 L 35.46875 27.582031 C 37.050781 27.582031 38.332031 28.84375 38.332031 30.402344 L 38.332031 36.03125 C 38.332031 37.589844 37.050781 38.847656 35.46875 38.847656 L 12.53125 38.847656 C 10.949219 38.847656 9.667969 37.589844 9.667969 36.03125 L 9.667969 30.402344 C 9.667969 28.84375 10.949219 27.582031 12.53125 27.582031 Z M 12.53125 27.582031 "/>
<path style=" stroke:none;fill-rule:nonzero;fill:rgb(30.980392%,30.980392%,30.980392%);fill-opacity:1;" d="M 20.25 10.175781 L 19.402344 12.644531 L 17.421875 10.925781 L 16.722656 12.953125 L 15.222656 11.644531 L 14.488281 13.808594 L 13.03125 13.09375 L 12.871094 15.53125 L 10.839844 14.542969 L 10.667969 17.121094 L 8.640625 16.71875 L 9.15625 19.277344 L 12.734375 27.582031 L 35.265625 27.582031 L 38.84375 19.277344 L 39.359375 16.71875 L 37.332031 17.121094 L 37.160156 14.542969 L 35.128906 15.53125 L 34.96875 13.09375 L 33.511719 13.808594 L 32.777344 11.644531 L 31.277344 12.953125 L 30.578125 10.925781 L 28.597656 12.644531 L 27.75 10.175781 L 25.769531 11.894531 L 25.46875 13.011719 L 25.46875 12.371094 L 24.003906 10.203125 L 24 10.214844 L 23.996094 10.203125 L 22.53125 12.371094 L 22.53125 13.011719 L 22.230469 11.894531 Z M 20.25 10.175781 "/>
<path style="fill:none;stroke-width:3;stroke-linecap:round;stroke-linejoin:round;stroke:rgb(100%,71.764706%,23.529412%);stroke-opacity:1;stroke-miterlimit:4;" d="M 7.50012 13.500923 L 13.501155 13.500923 C 10.235493 16.91537 9.499193 19.07086 9.499193 23.500104 " transform="matrix(1.023912,0,0,1.023912,7.617412,8.129368)"/>
<path style="fill:none;stroke-width:3;stroke-linecap:round;stroke-linejoin:round;stroke:rgb(100%,71.764706%,23.529412%);stroke-opacity:1;stroke-miterlimit:4;" d="M 19.498374 13.500923 L 19.498374 23.500104 " transform="matrix(1.023912,0,0,1.023912,7.617412,8.129368)"/>
<path style="fill:none;stroke-width:3;stroke-linecap:round;stroke-linejoin:round;stroke:rgb(100%,71.764706%,23.529412%);stroke-opacity:1;stroke-miterlimit:4;" d="M 24.499872 13.500923 L 19.498374 19.284501 " transform="matrix(1.023912,0,0,1.023912,7.617412,8.129368)"/>
<path style="fill:none;stroke-width:3;stroke-linecap:round;stroke-linejoin:round;stroke:rgb(100%,71.764706%,23.529412%);stroke-opacity:1;stroke-miterlimit:4;" d="M 24.499872 23.500104 L 19.498374 17.853867 " transform="matrix(1.023912,0,0,1.023912,7.617412,8.129368)"/>
<path style=" stroke:none;fill-rule:nonzero;fill:rgb(95.686275%,31.764706%,31.764706%);fill-opacity:1;" d="M 24 19.390625 L 17.855469 9.152344 L 30.144531 9.152344 Z M 24 19.390625 "/>
</g>
</svg>
