<?xml version="1.0" encoding="UTF-8"?>
<svg xmlns="http://www.w3.org/2000/svg" xmlns:xlink="http://www.w3.org/1999/xlink" width="48pt" height="48pt" viewBox="0 0 48 48" version="1.1">
<g id="surface1">
<path style=" stroke:none;fill-rule:evenodd;fill:rgb(99.607843%,80.392157%,21.960784%);fill-opacity:1;" d="M 11.207031 2.847656 L 36.792969 2.847656 C 41.40625 2.847656 45.152344 6.59375 45.152344 11.207031 L 45.152344 36.792969 C 45.152344 41.40625 41.40625 45.152344 36.792969 45.152344 L 11.207031 45.152344 C 6.59375 45.152344 2.847656 41.40625 2.847656 36.792969 L 2.847656 11.207031 C 2.847656 6.59375 6.59375 2.847656 11.207031 2.847656 Z M 11.207031 2.847656 "/>
<path style=" stroke:none;fill-rule:nonzero;fill:rgb(0%,0%,0%);fill-opacity:0.521569;" d="M 12.316406 16.207031 L 12.316406 14.261719 L 35.683594 14.261719 L 35.683594 16.207031 Z M 12.316406 16.207031 "/>
<path style=" stroke:none;fill-rule:nonzero;fill:rgb(0%,0%,0%);fill-opacity:0.521569;" d="M 12.316406 22.050781 L 12.316406 20.105469 L 35.683594 20.105469 L 35.683594 22.050781 Z M 12.316406 22.050781 "/>
<path style=" stroke:none;fill-rule:nonzero;fill:rgb(0%,0%,0%);fill-opacity:0.521569;" d="M 12.316406 27.894531 L 12.316406 25.949219 L 35.683594 25.949219 L 35.683594 27.894531 Z M 12.316406 27.894531 "/>
<path style=" stroke:none;fill-rule:nonzero;fill:rgb(0%,0%,0%);fill-opacity:0.521569;" d="M 12.316406 33.738281 L 12.316406 31.792969 L 27.894531 31.792969 L 27.894531 33.738281 Z M 12.316406 33.738281 "/>
</g>
</svg>
