<?xml version="1.0" encoding="UTF-8"?>
<svg xmlns="http://www.w3.org/2000/svg" xmlns:xlink="http://www.w3.org/1999/xlink" width="48pt" height="48pt" viewBox="0 0 48 48" version="1.1">
<g id="surface1">
<path style=" stroke:none;fill-rule:evenodd;fill:rgb(80%,80%,80%);fill-opacity:1;" d="M 11.109375 2.847656 L 36.6875 2.847656 C 41.308594 2.847656 45.050781 6.59375 45.050781 11.207031 L 45.050781 36.792969 C 45.050781 41.40625 41.308594 45.152344 36.6875 45.152344 L 11.109375 45.152344 C 6.488281 45.152344 2.746094 41.40625 2.746094 36.792969 L 2.746094 11.207031 C 2.746094 6.59375 6.488281 2.847656 11.109375 2.847656 Z M 11.109375 2.847656 "/>
<path style=" stroke:none;fill-rule:nonzero;fill:rgb(70.196078%,70.196078%,70.196078%);fill-opacity:1;" d="M 24.714844 45.152344 L 36.890625 45.152344 C 38.046875 45.152344 39.152344 44.917969 40.152344 44.496094 C 41.152344 44.074219 42.058594 43.464844 42.8125 42.707031 C 43.566406 41.953125 44.175781 41.050781 44.597656 40.046875 C 45.019531 39.046875 45.253906 37.949219 45.253906 36.785156 L 45.253906 11.207031 C 45.253906 10.050781 45.019531 8.949219 44.597656 7.949219 C 44.175781 6.949219 43.566406 6.046875 42.8125 5.292969 C 42.058594 4.535156 41.152344 3.921875 40.152344 3.5 C 39.152344 3.078125 38.046875 2.847656 36.890625 2.847656 L 24.714844 2.847656 Z M 24.714844 45.152344 "/>
<path style=" stroke:none;fill-rule:nonzero;fill:rgb(76.078431%,20.784314%,16.470588%);fill-opacity:1;" d="M 15.4375 2.847656 C 14.238281 2.847656 14.238281 3.875 14.238281 3.875 L 14.238281 20.847656 L 17.238281 19.347656 L 20.238281 20.847656 L 20.238281 3.875 C 20.238281 2.847656 19.035156 2.847656 19.035156 2.847656 Z M 15.4375 2.847656 "/>
</g>
</svg>
