<?xml version="1.0" encoding="UTF-8"?>
<svg xmlns="http://www.w3.org/2000/svg" xmlns:xlink="http://www.w3.org/1999/xlink" width="48pt" height="48pt" viewBox="0 0 48 48" version="1.1">
<g id="surface1">
<path style=" stroke:none;fill-rule:evenodd;fill:rgb(76.078431%,20.784314%,16.470588%);fill-opacity:1;" d="M 11.207031 2.847656 L 36.792969 2.847656 C 41.40625 2.847656 45.152344 6.59375 45.152344 11.207031 L 45.152344 36.792969 C 45.152344 41.40625 41.40625 45.152344 36.792969 45.152344 L 11.207031 45.152344 C 6.59375 45.152344 2.847656 41.40625 2.847656 36.792969 L 2.847656 11.207031 C 2.847656 6.59375 6.59375 2.847656 11.207031 2.847656 Z M 11.207031 2.847656 "/>
<path style=" stroke:none;fill-rule:nonzero;fill:rgb(40.392157%,54.509804%,100%);fill-opacity:1;" d="M 11.769531 21.175781 L 36.230469 21.175781 C 37.265625 21.175781 38.109375 22.019531 38.109375 23.058594 L 38.109375 24.941406 C 38.109375 25.980469 37.265625 26.824219 36.230469 26.824219 L 11.769531 26.824219 C 10.734375 26.824219 9.890625 25.980469 9.890625 24.941406 L 9.890625 23.058594 C 9.890625 22.019531 10.734375 21.175781 11.769531 21.175781 Z M 11.769531 21.175781 "/>
<path style=" stroke:none;fill-rule:nonzero;fill:rgb(100%,100%,100%);fill-opacity:1;" d="M 20.238281 34.347656 L 20.238281 13.652344 C 20.238281 12.09375 18.972656 10.828125 17.417969 10.828125 L 16.472656 10.828125 C 14.917969 10.828125 13.652344 12.09375 13.652344 13.652344 L 13.652344 34.347656 C 13.652344 35.90625 14.917969 37.171875 16.472656 37.171875 L 17.417969 37.171875 C 18.972656 37.171875 20.238281 35.90625 20.238281 34.347656 Z M 20.238281 34.347656 "/>
<path style=" stroke:none;fill-rule:nonzero;fill:rgb(100%,100%,100%);fill-opacity:1;" d="M 34.347656 34.347656 L 34.347656 13.652344 C 34.347656 12.09375 33.082031 10.828125 31.527344 10.828125 L 30.582031 10.828125 C 29.027344 10.828125 27.761719 12.09375 27.761719 13.652344 L 27.761719 34.347656 C 27.761719 35.90625 29.027344 37.171875 30.582031 37.171875 L 31.527344 37.171875 C 33.082031 37.171875 34.347656 35.90625 34.347656 34.347656 Z M 34.347656 34.347656 "/>
<path style=" stroke:none;fill-rule:nonzero;fill:rgb(100%,100%,100%);fill-opacity:1;" d="M 13.652344 31.996094 L 13.652344 16.003906 C 13.652344 15.222656 13.019531 14.59375 12.238281 14.59375 C 11.464844 14.59375 10.828125 15.222656 10.828125 16.003906 L 10.828125 31.996094 C 10.828125 32.777344 11.464844 33.40625 12.238281 33.40625 C 13.019531 33.40625 13.652344 32.777344 13.652344 31.996094 Z M 13.652344 31.996094 "/>
<path style=" stroke:none;fill-rule:nonzero;fill:rgb(100%,100%,100%);fill-opacity:1;" d="M 37.171875 31.996094 L 37.171875 16.003906 C 37.171875 15.222656 36.535156 14.59375 35.761719 14.59375 C 34.980469 14.59375 34.347656 15.222656 34.347656 16.003906 L 34.347656 31.996094 C 34.347656 32.777344 34.980469 33.40625 35.761719 33.40625 C 36.535156 33.40625 37.171875 32.777344 37.171875 31.996094 Z M 37.171875 31.996094 "/>
</g>
</svg>
