<?xml version="1.0" encoding="UTF-8"?>
<svg xmlns="http://www.w3.org/2000/svg" xmlns:xlink="http://www.w3.org/1999/xlink" width="48pt" height="48pt" viewBox="0 0 48 48" version="1.1">
<g id="surface1">
<path style=" stroke:none;fill-rule:evenodd;fill:rgb(51.764706%,51.764706%,51.764706%);fill-opacity:1;" d="M 11.207031 2.847656 L 36.792969 2.847656 C 41.40625 2.847656 45.152344 6.59375 45.152344 11.207031 L 45.152344 36.792969 C 45.152344 41.40625 41.40625 45.152344 36.792969 45.152344 L 11.207031 45.152344 C 6.59375 45.152344 2.847656 41.40625 2.847656 36.792969 L 2.847656 11.207031 C 2.847656 6.59375 6.59375 2.847656 11.207031 2.847656 Z M 11.207031 2.847656 "/>
<path style=" stroke:none;fill-rule:nonzero;fill:rgb(51.764706%,51.764706%,51.764706%);fill-opacity:1;" d="M 23.792969 14.511719 C 18.59375 14.511719 14.378906 18.722656 14.378906 23.921875 C 14.378906 29.113281 18.59375 33.328125 23.792969 33.328125 C 28.988281 33.328125 33.199219 29.113281 33.199219 23.921875 C 33.199219 18.722656 28.988281 14.511719 23.792969 14.511719 Z M 23.792969 20.15625 C 25.871094 20.15625 27.558594 21.839844 27.558594 23.921875 C 27.558594 26 25.871094 27.683594 23.792969 27.683594 C 21.714844 27.683594 20.027344 26 20.027344 23.921875 C 20.027344 21.839844 21.714844 20.15625 23.792969 20.15625 Z M 23.792969 20.15625 "/>
<path style=" stroke:none;fill-rule:nonzero;fill:rgb(100%,100%,100%);fill-opacity:1;" d="M 23.792969 6.355469 C 14.0625 6.355469 6.230469 14.1875 6.230469 23.921875 C 6.230469 33.652344 14.0625 41.484375 23.792969 41.484375 C 33.519531 41.484375 41.355469 33.652344 41.355469 23.921875 C 41.355469 14.1875 33.519531 6.355469 23.792969 6.355469 Z M 23.792969 16.390625 C 27.949219 16.390625 31.316406 19.761719 31.316406 23.921875 C 31.316406 28.078125 27.949219 31.449219 23.792969 31.449219 C 19.636719 31.449219 16.265625 28.078125 16.265625 23.921875 C 16.265625 19.761719 19.636719 16.390625 23.792969 16.390625 Z M 23.792969 16.390625 "/>
<path style=" stroke:none;fill-rule:nonzero;fill:rgb(72.941176%,13.333333%,100%);fill-opacity:1;" d="M 43.863281 32.703125 C 43.863281 38.246094 39.371094 42.738281 33.828125 42.738281 C 28.285156 42.738281 23.792969 38.246094 23.792969 32.703125 C 23.792969 27.15625 28.285156 22.667969 33.828125 22.667969 C 39.371094 22.667969 43.863281 27.15625 43.863281 32.703125 Z M 43.863281 32.703125 "/>
<path style=" stroke:none;fill-rule:nonzero;fill:rgb(100%,100%,100%);fill-opacity:1;" d="M 28.808594 33.121094 C 28.808594 35.890625 31.058594 38.140625 33.828125 38.140625 C 36.574219 38.140625 38.796875 35.9375 38.839844 33.203125 C 38.84375 33.175781 38.84375 33.144531 38.84375 33.121094 C 38.84375 32.65625 38.472656 32.28125 38.011719 32.28125 C 37.546875 32.28125 37.171875 32.65625 37.171875 33.121094 C 37.171875 34.96875 35.675781 36.464844 33.828125 36.464844 C 31.980469 36.464844 30.484375 34.96875 30.484375 33.121094 C 30.484375 31.269531 31.980469 29.777344 33.828125 29.777344 L 33.828125 31.449219 L 37.171875 28.9375 L 33.828125 26.425781 L 33.828125 28.097656 C 31.058594 28.097656 28.8125 30.347656 28.8125 33.121094 Z M 28.808594 33.121094 "/>
</g>
</svg>
