<?xml version="1.0" encoding="UTF-8"?>
<svg xmlns="http://www.w3.org/2000/svg" xmlns:xlink="http://www.w3.org/1999/xlink" width="48pt" height="48pt" viewBox="0 0 48 48" version="1.1">
<g id="surface1">
<path style=" stroke:none;fill-rule:evenodd;fill:rgb(99.607843%,80.392157%,21.960784%);fill-opacity:1;" d="M 11.207031 2.847656 L 36.792969 2.847656 C 41.40625 2.847656 45.152344 6.59375 45.152344 11.207031 L 45.152344 36.792969 C 45.152344 41.40625 41.40625 45.152344 36.792969 45.152344 L 11.207031 45.152344 C 6.59375 45.152344 2.847656 41.40625 2.847656 36.792969 L 2.847656 11.207031 C 2.847656 6.59375 6.59375 2.847656 11.207031 2.847656 Z M 11.207031 2.847656 "/>
<path style="fill:none;stroke-width:4;stroke-linecap:round;stroke-linejoin:round;stroke:rgb(100%,100%,100%);stroke-opacity:1;stroke-miterlimit:4;" d="M 8.001811 25.991487 L 19.970359 25.991487 C 19.970359 25.991487 26.000398 26.350287 26.000398 21.004897 C 26.000398 15.659507 19.970359 16.014646 19.970359 16.014646 L 11.414074 16.014646 C 11.414074 16.014646 4.999605 16.369785 4.999605 11.020734 C 4.999605 5.675344 11.414074 6.030483 11.414074 6.030483 L 22.998193 6.030483 " transform="matrix(1.066924,0,0,1.066924,7.462676,6.929215)"/>
<path style="fill:none;stroke-width:4;stroke-linecap:round;stroke-linejoin:round;stroke:rgb(100%,100%,100%);stroke-opacity:1;stroke-miterlimit:4;" d="M 15.997929 2.998987 L 15.997929 29.001015 " transform="matrix(1.066924,0,0,1.066924,7.462676,6.929215)"/>
</g>
</svg>
