<?xml version="1.0" encoding="UTF-8"?>
<svg xmlns="http://www.w3.org/2000/svg" xmlns:xlink="http://www.w3.org/1999/xlink" width="48pt" height="48pt" viewBox="0 0 48 48" version="1.1">
<g id="surface1">
<path style=" stroke:none;fill-rule:evenodd;fill:rgb(0%,50.196078%,20%);fill-opacity:1;" d="M 11.207031 2.847656 L 36.792969 2.847656 C 41.40625 2.847656 45.152344 6.59375 45.152344 11.207031 L 45.152344 36.792969 C 45.152344 41.40625 41.40625 45.152344 36.792969 45.152344 L 11.207031 45.152344 C 6.59375 45.152344 2.847656 41.40625 2.847656 36.792969 L 2.847656 11.207031 C 2.847656 6.59375 6.59375 2.847656 11.207031 2.847656 Z M 11.207031 2.847656 "/>
<path style=" stroke:none;fill-rule:nonzero;fill:rgb(50.196078%,100%,70.196078%);fill-opacity:1;" d="M 20.121094 27.121094 C 24.453125 29.683594 24.890625 31.652344 24 33.230469 C 23.109375 34.808594 21.234375 35.40625 16.90625 32.839844 C 12.578125 30.269531 7.683594 25.082031 7.28125 23.316406 C 8.96875 22.796875 15.796875 24.550781 20.121094 27.121094 Z M 20.121094 27.121094 "/>
<path style=" stroke:none;fill-rule:nonzero;fill:rgb(16.470588%,100%,50.196078%);fill-opacity:1;" d="M 23.621094 25.949219 C 26.121094 30.390625 25.542969 32.316406 24 33.230469 C 22.457031 34.140625 20.546875 33.691406 18.046875 29.25 C 15.546875 24.808594 13.832031 17.796875 14.347656 16.066406 C 16.0625 16.480469 21.121094 21.503906 23.621094 25.949219 Z M 23.621094 25.949219 "/>
<path style=" stroke:none;fill-rule:nonzero;fill:rgb(0%,83.137255%,33.333333%);fill-opacity:1;" d="M 27.21875 26.722656 C 27.21875 31.859375 25.777344 33.230469 24 33.230469 C 22.222656 33.230469 20.78125 31.859375 20.78125 26.722656 C 20.78125 21.59375 22.714844 14.652344 24 13.410156 C 25.285156 14.652344 27.21875 21.59375 27.21875 26.722656 Z M 27.21875 26.722656 "/>
<path style=" stroke:none;fill-rule:nonzero;fill:rgb(0%,66.666667%,26.666667%);fill-opacity:1;" d="M 29.953125 29.25 C 27.453125 33.691406 25.542969 34.140625 24 33.230469 C 22.457031 32.316406 21.878906 30.390625 24.378906 25.949219 C 26.878906 21.503906 31.9375 16.480469 33.652344 16.066406 C 34.167969 17.796875 32.453125 24.808594 29.953125 29.25 Z M 29.953125 29.25 "/>
<path style=" stroke:none;fill-rule:nonzero;fill:rgb(100%,100%,100%);fill-opacity:1;" d="M 31.09375 32.839844 C 26.765625 35.40625 24.890625 34.808594 24 33.230469 C 23.109375 31.652344 23.546875 29.683594 27.878906 27.121094 C 32.207031 24.550781 39.03125 22.796875 40.71875 23.316406 C 40.316406 25.082031 35.421875 30.269531 31.09375 32.839844 Z M 31.09375 32.839844 "/>
</g>
</svg>
