<?xml version="1.0" encoding="UTF-8"?>
<svg xmlns="http://www.w3.org/2000/svg" xmlns:xlink="http://www.w3.org/1999/xlink" width="48pt" height="48pt" viewBox="0 0 48 48" version="1.1">
<g id="surface1">
<path style=" stroke:none;fill-rule:evenodd;fill:rgb(37.647059%,54.117647%,70.980392%);fill-opacity:1;" d="M 11.207031 2.847656 L 36.792969 2.847656 C 41.40625 2.847656 45.152344 6.59375 45.152344 11.207031 L 45.152344 36.792969 C 45.152344 41.40625 41.40625 45.152344 36.792969 45.152344 L 11.207031 45.152344 C 6.59375 45.152344 2.847656 41.40625 2.847656 36.792969 L 2.847656 11.207031 C 2.847656 6.59375 6.59375 2.847656 11.207031 2.847656 Z M 11.207031 2.847656 "/>
<path style=" stroke:none;fill-rule:nonzero;fill:rgb(80.392157%,87.45098%,94.117647%);fill-opacity:1;" d="M 39.703125 26.171875 C 39.703125 34.621094 32.855469 41.46875 24.40625 41.46875 C 15.957031 41.46875 9.109375 34.621094 9.109375 26.171875 C 9.109375 17.722656 15.957031 10.875 24.40625 10.875 C 32.855469 10.875 39.703125 17.722656 39.703125 26.171875 Z M 39.703125 26.171875 "/>
<path style=" stroke:none;fill-rule:nonzero;fill:rgb(52.156863%,70.588235%,87.45098%);fill-opacity:1;" d="M 33.859375 40.074219 C 25.683594 44.796875 15.222656 41.988281 10.503906 33.816406 C 5.78125 25.640625 8.582031 15.183594 16.761719 10.464844 C 26.394531 10.417969 32.515625 31.234375 33.859375 40.074219 Z M 33.859375 40.074219 "/>
<path style=" stroke:none;fill-rule:nonzero;fill:rgb(37.647059%,54.117647%,70.980392%);fill-opacity:1;" d="M 41.503906 25.871094 C 41.503906 35.3125 33.847656 42.964844 24.40625 42.964844 C 14.964844 42.964844 7.3125 35.3125 7.3125 25.871094 C 12.089844 17.503906 33.175781 22.613281 41.503906 25.871094 Z M 41.503906 25.871094 "/>
</g>
</svg>
