<?xml version="1.0" encoding="UTF-8"?>
<svg xmlns="http://www.w3.org/2000/svg" xmlns:xlink="http://www.w3.org/1999/xlink" width="48pt" height="48pt" viewBox="0 0 48 48" version="1.1">
<g id="surface1">
<path style=" stroke:none;fill-rule:evenodd;fill:rgb(81.960784%,100%,25.882353%);fill-opacity:1;" d="M 11.207031 2.847656 L 36.792969 2.847656 C 41.40625 2.847656 45.152344 6.59375 45.152344 11.207031 L 45.152344 36.792969 C 45.152344 41.40625 41.40625 45.152344 36.792969 45.152344 L 11.207031 45.152344 C 6.59375 45.152344 2.847656 41.40625 2.847656 36.792969 L 2.847656 11.207031 C 2.847656 6.59375 6.59375 2.847656 11.207031 2.847656 Z M 11.207031 2.847656 "/>
<path style=" stroke:none;fill-rule:nonzero;fill:rgb(30.980392%,30.980392%,30.980392%);fill-opacity:1;" d="M 40.5 27 C 37.765625 30 34.722656 33.207031 30.464844 32.917969 C 28.703125 32.652344 26.777344 30.683594 25.363281 28.730469 C 23.574219 26.253906 22.066406 23.363281 20.453125 20.6875 C 19.09375 18.652344 17.394531 16.660156 14.105469 19.105469 C 12.984375 19.894531 11.886719 21.316406 11.035156 22.839844 C 9.675781 25.265625 12.042969 28.519531 14.25 28.5 C 23.355469 28.410156 33.46875 19.207031 39 15 C 33.996094 20.375 31.308594 23.457031 21.0625 29.441406 C 18.542969 30.890625 16.324219 31.8125 13.082031 32.605469 C 11.140625 33.078125 8.28125 33.515625 7.65625 31.457031 C 7.003906 29.308594 8.5625 26 8.886719 25.28125 C 11.332031 19.871094 14.984375 14.25 21.371094 15.082031 C 27.464844 15.878906 27.75 25.386719 32.296875 27.886719 C 34.535156 29.113281 36.203125 29.25 40.5 27 Z M 40.5 27 "/>
</g>
</svg>
