<?xml version="1.0" encoding="UTF-8"?>
<svg xmlns="http://www.w3.org/2000/svg" xmlns:xlink="http://www.w3.org/1999/xlink" width="48pt" height="48pt" viewBox="0 0 48 48" version="1.1">
<g id="surface1">
<path style=" stroke:none;fill-rule:evenodd;fill:rgb(92.54902%,54.117647%,16.862745%);fill-opacity:1;" d="M 11.207031 2.847656 L 36.792969 2.847656 C 41.40625 2.847656 45.152344 6.59375 45.152344 11.207031 L 45.152344 36.792969 C 45.152344 41.40625 41.40625 45.152344 36.792969 45.152344 L 11.207031 45.152344 C 6.59375 45.152344 2.847656 41.40625 2.847656 36.792969 L 2.847656 11.207031 C 2.847656 6.59375 6.59375 2.847656 11.207031 2.847656 Z M 11.207031 2.847656 "/>
<path style=" stroke:none;fill-rule:nonzero;fill:rgb(68.627451%,68.627451%,69.411765%);fill-opacity:1;" d="M 19.941406 22.890625 L 28.050781 22.890625 L 28.050781 34.964844 L 24 39.109375 L 19.941406 34.964844 Z M 19.941406 22.890625 "/>
<path style=" stroke:none;fill-rule:nonzero;fill:rgb(80%,80%,80%);fill-opacity:1;" d="M 19.941406 22.890625 L 24 22.890625 L 24 39.109375 L 19.941406 34.964844 Z M 19.941406 22.890625 "/>
<path style=" stroke:none;fill-rule:nonzero;fill:rgb(90.196078%,90.196078%,90.196078%);fill-opacity:1;" d="M 34.136719 21.375 L 34.136719 21.378906 C 34.136719 22.777344 32.839844 23.910156 31.238281 23.910156 L 16.761719 23.910156 C 15.160156 23.910156 13.863281 22.777344 13.863281 21.378906 L 13.863281 21.375 C 13.863281 19.972656 15.160156 18.84375 16.761719 18.84375 L 31.238281 18.84375 C 32.839844 18.84375 34.136719 19.972656 34.136719 21.375 Z M 34.136719 21.375 "/>
<path style=" stroke:none;fill-rule:nonzero;fill:rgb(81.960784%,21.960784%,3.137255%);fill-opacity:1;" d="M 20.957031 11.753906 L 27.035156 11.753906 L 27.035156 18.847656 L 20.957031 18.847656 Z M 20.957031 11.753906 "/>
<path style=" stroke:none;fill-rule:nonzero;fill:rgb(90.196078%,90.196078%,90.196078%);fill-opacity:1;" d="M 20.621094 10.722656 L 27.375 10.722656 C 28.308594 10.722656 29.0625 11.402344 29.0625 12.246094 C 29.0625 13.082031 28.308594 13.765625 27.375 13.765625 L 20.621094 13.765625 C 19.683594 13.765625 18.925781 13.082031 18.925781 12.246094 C 18.925781 11.402344 19.683594 10.722656 20.621094 10.722656 Z M 20.621094 10.722656 "/>
</g>
</svg>
