<?xml version="1.0" encoding="UTF-8"?>
<svg xmlns="http://www.w3.org/2000/svg" xmlns:xlink="http://www.w3.org/1999/xlink" width="48pt" height="48pt" viewBox="0 0 48 48" version="1.1">
<g id="surface1">
<path style=" stroke:none;fill-rule:evenodd;fill:rgb(6.666667%,67.058824%,40%);fill-opacity:1;" d="M 11.207031 2.847656 L 36.792969 2.847656 C 41.40625 2.847656 45.152344 6.59375 45.152344 11.207031 L 45.152344 36.792969 C 45.152344 41.40625 41.40625 45.152344 36.792969 45.152344 L 11.207031 45.152344 C 6.59375 45.152344 2.847656 41.40625 2.847656 36.792969 L 2.847656 11.207031 C 2.847656 6.59375 6.59375 2.847656 11.207031 2.847656 Z M 11.207031 2.847656 "/>
<path style=" stroke:none;fill-rule:nonzero;fill:rgb(100%,100%,100%);fill-opacity:1;" d="M 17.386719 10.765625 C 13.730469 10.765625 10.765625 13.730469 10.765625 17.386719 C 10.769531 19.175781 11.5 20.894531 12.792969 22.140625 C 12.707031 22.332031 12.65625 22.550781 12.65625 22.792969 L 12.65625 26.832031 C 12.136719 26.832031 11.714844 27.261719 11.714844 27.78125 C 11.714844 28.300781 12.136719 28.722656 12.65625 28.722656 L 12.65625 33.152344 C 12.65625 33.941406 13.199219 34.589844 13.875 34.589844 L 18.15625 34.589844 L 16.582031 36.230469 C 16.390625 36.4375 16.390625 36.691406 16.582031 36.902344 C 16.78125 37.105469 17.152344 37.234375 17.542969 37.234375 L 27.621094 37.234375 C 27.921875 37.234375 28.207031 37.160156 28.417969 37.03125 C 28.625 36.902344 28.734375 36.722656 28.722656 36.546875 C 28.71875 36.433594 28.671875 36.328125 28.578125 36.230469 L 27.011719 34.589844 L 31.285156 34.589844 C 31.964844 34.589844 32.503906 33.941406 32.503906 33.152344 L 32.503906 29.941406 L 33.589844 30.660156 L 36.230469 32.40625 C 36.4375 32.542969 36.691406 32.542969 36.902344 32.40625 C 37.109375 32.265625 37.234375 32.015625 37.234375 31.738281 L 37.234375 24.765625 C 37.234375 24.558594 37.160156 24.359375 37.03125 24.214844 C 36.902344 24.074219 36.722656 23.996094 36.546875 24 C 36.433594 24.003906 36.328125 24.042969 36.230469 24.105469 L 33.589844 25.84375 L 32.503906 26.5625 L 32.503906 22.792969 C 32.503906 22.558594 32.457031 22.339844 32.371094 22.144531 C 33.667969 20.894531 34.394531 19.175781 34.394531 17.386719 C 34.394531 13.730469 31.4375 10.765625 27.78125 10.765625 C 25.753906 10.769531 23.839844 11.703125 22.582031 13.296875 C 21.332031 11.699219 19.410156 10.765625 17.386719 10.765625 Z M 17.386719 10.765625 "/>
<path style=" stroke:none;fill-rule:nonzero;fill:rgb(6.666667%,67.058824%,40%);fill-opacity:1;" d="M 16.910156 13.605469 C 15.089844 13.605469 13.605469 15.089844 13.605469 16.910156 C 13.605469 18.734375 15.089844 20.21875 16.910156 20.21875 C 18.734375 20.21875 20.21875 18.734375 20.21875 16.910156 C 20.21875 15.089844 18.734375 13.605469 16.910156 13.605469 Z M 28.253906 13.605469 C 26.433594 13.605469 24.949219 15.089844 24.949219 16.910156 C 24.949219 18.734375 26.433594 20.21875 28.253906 20.21875 C 30.074219 20.21875 31.5625 18.734375 31.5625 16.910156 C 31.5625 15.089844 30.074219 13.605469 28.253906 13.605469 Z M 16.910156 14.546875 C 18.222656 14.546875 19.277344 15.597656 19.277344 16.910156 C 19.277344 18.222656 18.222656 19.277344 16.910156 19.277344 C 15.597656 19.277344 14.546875 18.222656 14.546875 16.910156 C 14.546875 15.597656 15.597656 14.546875 16.910156 14.546875 Z M 28.253906 14.546875 C 29.5625 14.546875 30.613281 15.597656 30.613281 16.910156 C 30.613281 18.222656 29.5625 19.277344 28.253906 19.277344 C 26.941406 19.277344 25.890625 18.222656 25.890625 16.910156 C 25.890625 15.597656 26.941406 14.546875 28.253906 14.546875 Z M 28.253906 14.546875 "/>
</g>
</svg>
