<?xml version="1.0" encoding="UTF-8"?>
<svg xmlns="http://www.w3.org/2000/svg" xmlns:xlink="http://www.w3.org/1999/xlink" width="48pt" height="48pt" viewBox="0 0 48 48" version="1.1">
<g id="surface1">
<path style=" stroke:none;fill-rule:evenodd;fill:rgb(27.058824%,70.588235%,28.627451%);fill-opacity:1;" d="M 11.207031 2.847656 L 36.792969 2.847656 C 41.40625 2.847656 45.152344 6.59375 45.152344 11.207031 L 45.152344 36.792969 C 45.152344 41.40625 41.40625 45.152344 36.792969 45.152344 L 11.207031 45.152344 C 6.59375 45.152344 2.847656 41.40625 2.847656 36.792969 L 2.847656 11.207031 C 2.847656 6.59375 6.59375 2.847656 11.207031 2.847656 Z M 11.207031 2.847656 "/>
<path style=" stroke:none;fill-rule:nonzero;fill:rgb(22.352941%,22.352941%,22.352941%);fill-opacity:1;" d="M 31.5 31.5 C 31.5 35.640625 28.140625 39 24 39 C 19.859375 39 16.5 35.640625 16.5 31.5 C 16.5 27.359375 19.859375 24 24 24 C 28.140625 24 31.5 27.359375 31.5 31.5 Z M 31.5 31.5 "/>
<path style=" stroke:none;fill-rule:nonzero;fill:rgb(22.352941%,22.352941%,22.352941%);fill-opacity:1;" d="M 37.5 22.5 C 37.5 29.957031 31.457031 36 24 36 C 16.542969 36 10.5 29.957031 10.5 22.5 C 10.5 15.042969 16.542969 9 24 9 C 31.457031 9 37.5 15.042969 37.5 22.5 Z M 37.5 22.5 "/>
<path style=" stroke:none;fill-rule:nonzero;fill:rgb(87.45098%,34.117647%,30.196078%);fill-opacity:1;" d="M 13.65625 22.660156 C 16 22.167969 18.535156 22.824219 20.355469 24.644531 C 22.175781 26.464844 22.839844 29 22.34375 31.34375 C 20 31.839844 17.464844 31.175781 15.644531 29.355469 C 13.828125 27.535156 13.167969 25 13.660156 22.65625 Z M 13.65625 22.660156 "/>
<path style=" stroke:none;fill-rule:nonzero;fill:rgb(87.45098%,34.117647%,30.196078%);fill-opacity:1;" d="M 34.339844 22.660156 C 32 22.167969 29.464844 22.824219 27.644531 24.644531 C 25.824219 26.464844 25.160156 29 25.65625 31.34375 C 28 31.839844 30.535156 31.175781 32.355469 29.355469 C 34.175781 27.535156 34.832031 25 34.339844 22.660156 Z M 34.339844 22.660156 "/>
</g>
</svg>
