<?xml version="1.0" encoding="UTF-8"?>
<svg xmlns="http://www.w3.org/2000/svg" xmlns:xlink="http://www.w3.org/1999/xlink" width="48pt" height="48pt" viewBox="0 0 48 48" version="1.1">
<g id="surface1">
<path style=" stroke:none;fill-rule:evenodd;fill:rgb(19.607843%,52.54902%,49.019608%);fill-opacity:1;" d="M 11.207031 2.847656 L 36.792969 2.847656 C 41.40625 2.847656 45.152344 6.59375 45.152344 11.207031 L 45.152344 36.792969 C 45.152344 41.40625 41.40625 45.152344 36.792969 45.152344 L 11.207031 45.152344 C 6.59375 45.152344 2.847656 41.40625 2.847656 36.792969 L 2.847656 11.207031 C 2.847656 6.59375 6.59375 2.847656 11.207031 2.847656 Z M 11.207031 2.847656 "/>
<path style=" stroke:none;fill-rule:nonzero;fill:rgb(49.019608%,100%,48.627451%);fill-opacity:1;" d="M 14.316406 20.324219 C 13.453125 20.324219 12.75 21.121094 12.75 22.097656 L 12.75 29.042969 C 12.75 30.019531 13.453125 30.824219 14.316406 30.824219 C 15.175781 30.824219 15.75 30.019531 15.75 29.042969 L 15.75 22.097656 C 15.75 21.113281 15.183594 20.324219 14.316406 20.324219 "/>
<path style=" stroke:none;fill-rule:nonzero;fill:rgb(49.019608%,100%,48.627451%);fill-opacity:1;" d="M 17.25 20.324219 L 17.25 33.074219 C 17.25 33.425781 17.644531 33.824219 18 33.824219 L 20.25 33.824219 L 20.25 36.636719 C 20.25 37.566406 20.84375 38.324219 21.75 38.324219 C 22.652344 38.324219 23.28125 37.566406 23.25 36.636719 L 23.25 33.824219 L 24.75 33.824219 L 24.75 36.636719 C 24.75 37.566406 25.34375 38.324219 26.25 38.324219 C 27.152344 38.324219 27.75 37.558594 27.75 36.636719 L 27.75 33.824219 L 30 33.824219 C 30.355469 33.824219 30.75 33.425781 30.75 33.074219 L 30.75 20.324219 Z M 17.25 20.324219 "/>
<path style=" stroke:none;fill-rule:nonzero;fill:rgb(49.019608%,100%,48.627451%);fill-opacity:1;" d="M 33.816406 20.324219 C 32.953125 20.324219 32.25 21.121094 32.25 22.097656 L 32.25 29.042969 C 32.25 30.019531 32.953125 30.824219 33.816406 30.824219 C 34.675781 30.824219 35.25 30.019531 35.25 29.042969 L 35.25 22.097656 C 35.25 21.113281 34.683594 20.324219 33.816406 20.324219 "/>
<path style=" stroke:none;fill-rule:nonzero;fill:rgb(49.019608%,100%,48.627451%);fill-opacity:1;" d="M 20.046875 9.675781 L 18.75 10.425781 L 20.546875 13.535156 C 17.265625 15.125 17.25 18.824219 17.25 18.824219 L 30.75 18.824219 C 30.75 18.824219 30.734375 15.125 27.453125 13.535156 L 29.25 10.425781 L 27.953125 9.675781 L 26.011719 13.042969 C 25.417969 12.90625 24.753906 12.824219 24.003906 12.824219 C 23.246094 12.824219 22.589844 12.90625 21.988281 13.042969 Z M 21.003906 15.824219 C 21.417969 15.824219 21.75 16.15625 21.75 16.566406 C 21.75 16.984375 21.410156 17.324219 21.003906 17.324219 C 20.589844 17.324219 20.25 16.988281 20.25 16.566406 C 20.25 16.15625 20.589844 15.824219 21.003906 15.824219 Z M 27.003906 15.824219 C 27.417969 15.824219 27.75 16.15625 27.75 16.566406 C 27.75 16.984375 27.410156 17.324219 27.003906 17.324219 C 26.589844 17.324219 26.25 16.988281 26.25 16.566406 C 26.25 16.15625 26.589844 15.824219 27.003906 15.824219 Z M 27.003906 15.824219 "/>
</g>
</svg>
