<?xml version="1.0" encoding="UTF-8"?>
<svg xmlns="http://www.w3.org/2000/svg" xmlns:xlink="http://www.w3.org/1999/xlink" width="48pt" height="48pt" viewBox="0 0 48 48" version="1.1">
<g id="surface1">
<path style=" stroke:none;fill-rule:evenodd;fill:rgb(52.54902%,36.862745%,56.470588%);fill-opacity:1;" d="M 11.207031 2.847656 L 36.792969 2.847656 C 41.40625 2.847656 45.152344 6.59375 45.152344 11.207031 L 45.152344 36.792969 C 45.152344 41.40625 41.40625 45.152344 36.792969 45.152344 L 11.207031 45.152344 C 6.59375 45.152344 2.847656 41.40625 2.847656 36.792969 L 2.847656 11.207031 C 2.847656 6.59375 6.59375 2.847656 11.207031 2.847656 Z M 11.207031 2.847656 "/>
<path style=" stroke:none;fill-rule:nonzero;fill:rgb(63.137255%,63.137255%,84.313725%);fill-opacity:1;" d="M 13.5 21.746094 C 12.816406 21.542969 10.5 23.246094 10.5 23.246094 C 11.730469 18.691406 19.503906 14.25 19.503906 14.25 C 18.753906 13.96875 15 14.25 15 14.25 C 20.535156 8.871094 28.511719 11.25 28.511719 11.25 C 28.714844 10.074219 31.511719 8.25 31.511719 8.25 C 31.167969 8.59375 31.511719 10.5 31.511719 10.5 C 31.855469 9.875 33.011719 9.75 33.011719 9.75 C 32.394531 11.199219 32.4375 14.113281 32.4375 14.113281 C 34.214844 15.90625 36.191406 22.121094 36.191406 22.121094 L 36.949219 23.222656 C 37.90625 24.609375 37.515625 26.777344 36.566406 27.285156 C 33.910156 28.875 32.707031 25.714844 32.707031 25.714844 C 29.769531 25.363281 27.011719 21.746094 27.011719 21.746094 C 23.277344 23.855469 27.5 30.542969 29.207031 32.78125 C 31.40625 35.65625 28.511719 39.738281 28.511719 39.738281 C 28.511719 39.738281 21.003906 40.265625 15.386719 34.488281 C 12.613281 31.527344 10.5 28.214844 13.5 21.746094 Z M 13.5 21.746094 "/>
</g>
</svg>
