<?xml version="1.0" encoding="UTF-8"?>
<svg xmlns="http://www.w3.org/2000/svg" xmlns:xlink="http://www.w3.org/1999/xlink" width="48pt" height="48pt" viewBox="0 0 48 48" version="1.1">
<g id="surface1">
<path style=" stroke:none;fill-rule:evenodd;fill:rgb(78.039216%,78.039216%,78.039216%);fill-opacity:1;" d="M 2.9375 10.78125 C 2.925781 10.933594 2.847656 11.058594 2.847656 11.214844 L 2.847656 36.792969 C 2.847656 41.421875 6.578125 45.152344 11.214844 45.152344 L 36.792969 45.152344 C 41.421875 45.152344 45.152344 41.421875 45.152344 36.792969 L 45.152344 11.214844 C 45.152344 11.058594 45.074219 10.933594 45.066406 10.78125 Z M 2.9375 10.78125 "/>
<path style=" stroke:none;fill-rule:evenodd;fill:rgb(32.156863%,58.039216%,88.627451%);fill-opacity:1;" d="M 2.9375 10.78125 L 45.066406 10.78125 C 44.832031 6.359375 41.269531 2.847656 36.792969 2.847656 L 11.214844 2.847656 C 6.734375 2.847656 3.171875 6.359375 2.9375 10.78125 Z M 2.9375 10.78125 "/>
<path style=" stroke:none;fill-rule:nonzero;fill:rgb(100%,100%,100%);fill-opacity:1;" d="M 9.074219 32.238281 L 38.925781 32.238281 C 39.796875 32.238281 40.5 33.074219 40.5 34.105469 L 40.5 34.875 C 40.5 35.90625 39.796875 36.738281 38.925781 36.738281 L 9.074219 36.738281 C 8.203125 36.738281 7.5 35.90625 7.5 34.875 L 7.5 34.105469 C 7.5 33.074219 8.203125 32.238281 9.074219 32.238281 Z M 9.074219 32.238281 "/>
<path style=" stroke:none;fill-rule:evenodd;fill:rgb(32.156863%,58.039216%,88.627451%);fill-opacity:1;" d="M 36 34.488281 C 36 37.386719 33.644531 39.738281 30.75 39.738281 C 27.855469 39.738281 25.5 37.386719 25.5 34.488281 C 25.5 31.59375 27.855469 29.238281 30.75 29.238281 C 33.644531 29.238281 36 31.59375 36 34.488281 Z M 36 34.488281 "/>
<path style=" stroke:none;fill-rule:nonzero;fill:rgb(100%,100%,96.862745%);fill-opacity:1;" d="M 12 17.988281 C 12 19.234375 10.996094 20.238281 9.75 20.238281 C 8.503906 20.238281 7.5 19.234375 7.5 17.988281 C 7.5 16.746094 8.503906 15.738281 9.75 15.738281 C 10.996094 15.738281 12 16.746094 12 17.988281 Z M 12 17.988281 "/>
<path style=" stroke:none;fill-rule:nonzero;fill:rgb(32.156863%,58.039216%,88.627451%);fill-opacity:1;" d="M 17.207031 23.238281 L 20.292969 23.238281 C 20.683594 23.238281 21 23.582031 21 24.015625 L 21 26.964844 C 21 27.390625 20.683594 27.738281 20.292969 27.738281 L 17.207031 27.738281 C 16.816406 27.738281 16.5 27.390625 16.5 26.964844 L 16.5 24.015625 C 16.5 23.582031 16.816406 23.238281 17.207031 23.238281 Z M 17.207031 23.238281 "/>
<path style=" stroke:none;fill-rule:nonzero;fill:rgb(32.156863%,58.039216%,88.627451%);fill-opacity:1;" d="M 12 25.488281 C 12 26.734375 10.996094 27.738281 9.75 27.738281 C 8.503906 27.738281 7.5 26.734375 7.5 25.488281 C 7.5 24.246094 8.503906 23.238281 9.75 23.238281 C 10.996094 23.238281 12 24.246094 12 25.488281 Z M 12 25.488281 "/>
<path style=" stroke:none;fill-rule:nonzero;fill:rgb(100%,100%,100%);fill-opacity:1;" d="M 17.207031 15.738281 L 20.292969 15.738281 C 20.683594 15.738281 21 16.082031 21 16.515625 L 21 19.464844 C 21 19.890625 20.683594 20.238281 20.292969 20.238281 L 17.207031 20.238281 C 16.816406 20.238281 16.5 19.890625 16.5 19.464844 L 16.5 16.515625 C 16.5 16.082031 16.816406 15.738281 17.207031 15.738281 Z M 17.207031 15.738281 "/>
</g>
</svg>
