<?xml version="1.0" encoding="UTF-8"?>
<svg xmlns="http://www.w3.org/2000/svg" xmlns:xlink="http://www.w3.org/1999/xlink" width="48pt" height="48pt" viewBox="0 0 48 48" version="1.1">
<g id="surface1">
<path style=" stroke:none;fill-rule:evenodd;fill:rgb(38.823529%,43.137255%,45.098039%);fill-opacity:1;" d="M 11.207031 2.847656 L 36.792969 2.847656 C 41.40625 2.847656 45.152344 6.59375 45.152344 11.207031 L 45.152344 36.792969 C 45.152344 41.40625 41.40625 45.152344 36.792969 45.152344 L 11.207031 45.152344 C 6.59375 45.152344 2.847656 41.40625 2.847656 36.792969 L 2.847656 11.207031 C 2.847656 6.59375 6.59375 2.847656 11.207031 2.847656 Z M 11.207031 2.847656 "/>
<path style=" stroke:none;fill-rule:nonzero;fill:rgb(80.784314%,50.196078%,50.588235%);fill-opacity:1;" d="M 19.21875 15.375 L 34.828125 15.375 L 34.828125 16.875 L 20.4375 16.875 L 17.578125 30.515625 L 17.109375 32.625 L 16.171875 30.703125 L 13.171875 24.703125 L 14.484375 24.046875 L 16.5 28.125 L 19.078125 15.984375 Z M 22.828125 18.375 L 24.328125 18.375 L 27.328125 23.15625 L 30.328125 18.375 L 31.828125 18.375 L 28.078125 24.375 L 31.828125 30.375 L 30.328125 30.375 L 27.328125 25.59375 L 24.328125 30.375 L 22.828125 30.375 L 26.578125 24.375 Z M 22.828125 18.375 "/>
</g>
</svg>
