<?xml version="1.0" encoding="UTF-8"?>
<svg xmlns="http://www.w3.org/2000/svg" xmlns:xlink="http://www.w3.org/1999/xlink" width="48pt" height="48pt" viewBox="0 0 48 48" version="1.1">
<g id="surface1">
<path style=" stroke:none;fill-rule:evenodd;fill:rgb(30.980392%,30.980392%,30.980392%);fill-opacity:1;" d="M 11.214844 2.847656 C 6.578125 2.847656 2.847656 6.578125 2.847656 11.207031 L 2.847656 19.28125 C 3.019531 18.886719 2.925781 18.871094 3.152344 18.457031 C 3.734375 17.390625 4.511719 16.328125 5.515625 15.527344 C 6.019531 15.128906 6.582031 14.796875 7.207031 14.5625 C 7.832031 14.328125 8.527344 14.199219 9.285156 14.199219 C 10.25 14.199219 11.046875 14.488281 11.730469 15.003906 C 12.410156 15.515625 12.980469 16.25 13.464844 17.136719 C 14.433594 18.894531 15.082031 21.25 15.75 23.605469 C 16.417969 25.953125 17.089844 28.3125 18.105469 30.082031 C 18.613281 30.972656 19.207031 31.714844 19.925781 32.234375 C 20.640625 32.753906 21.484375 33.058594 22.496094 33.066406 C 23.75 33.078125 24.949219 32.691406 26.121094 32.105469 C 27.292969 31.519531 28.4375 30.730469 29.589844 29.941406 C 30.738281 29.152344 31.894531 28.359375 33.089844 27.765625 C 34.28125 27.171875 35.503906 26.777344 36.800781 26.777344 C 39.390625 26.777344 41.597656 27.402344 43.152344 28.019531 C 44.417969 28.53125 44.886719 28.863281 45.152344 29.035156 L 45.152344 11.207031 C 45.152344 6.578125 41.421875 2.847656 36.792969 2.847656 Z M 11.214844 2.847656 "/>
<path style=" stroke:none;fill-rule:nonzero;fill:rgb(0%,0%,0%);fill-opacity:0.254902;" d="M 2.847656 28.140625 L 45.152344 28.140625 L 45.152344 31.140625 L 2.847656 31.140625 Z M 2.847656 28.140625 "/>
<path style=" stroke:none;fill-rule:nonzero;fill:rgb(0%,0%,0%);fill-opacity:0.254902;" d="M 2.847656 9.265625 L 45.152344 9.265625 L 45.152344 12.265625 L 2.847656 12.265625 Z M 2.847656 9.265625 "/>
<path style=" stroke:none;fill-rule:nonzero;fill:rgb(0%,0%,0%);fill-opacity:0.254902;" d="M 2.847656 21.265625 L 45.152344 21.265625 L 45.152344 24.265625 L 2.847656 24.265625 Z M 2.847656 21.265625 "/>
<path style=" stroke:none;fill-rule:nonzero;fill:rgb(0%,0%,0%);fill-opacity:0.254902;" d="M 2.847656 15.265625 L 45.152344 15.265625 L 45.152344 18.265625 L 2.847656 18.265625 Z M 2.847656 15.265625 "/>
<path style=" stroke:none;fill-rule:evenodd;fill:rgb(27.843137%,85.490196%,44.705882%);fill-opacity:1;" d="M 45.152344 29.035156 C 44.886719 28.863281 44.417969 28.53125 43.152344 28.019531 C 41.597656 27.402344 39.390625 26.777344 36.800781 26.777344 C 35.503906 26.777344 34.28125 27.171875 33.089844 27.765625 C 31.894531 28.359375 30.738281 29.152344 29.589844 29.941406 C 28.4375 30.730469 27.292969 31.519531 26.121094 32.105469 C 24.949219 32.691406 23.75 33.078125 22.496094 33.066406 C 21.484375 33.058594 20.640625 32.753906 19.925781 32.234375 C 19.207031 31.714844 18.613281 30.972656 18.105469 30.082031 C 17.089844 28.3125 16.417969 25.953125 15.75 23.597656 C 15.082031 21.25 14.433594 18.894531 13.464844 17.128906 C 12.980469 16.25 12.410156 15.515625 11.730469 15.003906 C 11.046875 14.488281 10.25 14.199219 9.285156 14.199219 C 8.527344 14.199219 7.832031 14.328125 7.207031 14.5625 C 6.582031 14.796875 6.019531 15.128906 5.515625 15.527344 C 4.511719 16.328125 3.734375 17.390625 3.152344 18.457031 C 2.925781 18.871094 3.019531 18.886719 2.847656 19.28125 L 2.847656 36.785156 C 2.847656 41.421875 6.578125 45.152344 11.214844 45.152344 L 36.792969 45.152344 C 41.421875 45.152344 45.152344 41.421875 45.152344 36.785156 Z M 45.152344 29.035156 "/>
<path style=" stroke:none;fill-rule:nonzero;fill:rgb(50.196078%,50.196078%,50.196078%);fill-opacity:1;" d="M 10.25 8.207031 C 17.65625 8.207031 15.1875 26.136719 22.941406 26.207031 C 27.765625 26.253906 31.714844 20.207031 36.691406 20.207031 C 41.667969 20.207031 45.152344 22.582031 45.152344 22.582031 L 45.152344 24.082031 C 45.152344 24.082031 41.667969 21.707031 36.691406 21.707031 C 31.714844 21.707031 27.765625 27.753906 22.941406 27.707031 C 15.1875 27.636719 17.65625 9.707031 10.25 9.707031 C 4.410156 9.707031 2.847656 17.832031 2.847656 17.832031 L 2.847656 16.332031 C 2.847656 16.332031 4.410156 8.207031 10.25 8.207031 Z M 10.25 8.207031 "/>
</g>
</svg>
