<?xml version="1.0" encoding="UTF-8"?>
<svg xmlns="http://www.w3.org/2000/svg" xmlns:xlink="http://www.w3.org/1999/xlink" width="48pt" height="48pt" viewBox="0 0 48 48" version="1.1">
<g id="surface1">
<path style=" stroke:none;fill-rule:evenodd;fill:rgb(76.078431%,20.784314%,16.470588%);fill-opacity:1;" d="M 11.207031 2.847656 L 36.792969 2.847656 C 41.40625 2.847656 45.152344 6.59375 45.152344 11.207031 L 45.152344 36.792969 C 45.152344 41.40625 41.40625 45.152344 36.792969 45.152344 L 11.207031 45.152344 C 6.59375 45.152344 2.847656 41.40625 2.847656 36.792969 L 2.847656 11.207031 C 2.847656 6.59375 6.59375 2.847656 11.207031 2.847656 Z M 11.207031 2.847656 "/>
<path style=" stroke:none;fill-rule:nonzero;fill:rgb(100%,100%,100%);fill-opacity:1;" d="M 29.246094 11.136719 C 27.09375 11.136719 25.160156 12.230469 23.800781 13.890625 C 22.449219 12.230469 20.511719 11.136719 18.359375 11.136719 C 14.261719 11.136719 10.9375 14.917969 10.9375 19.582031 C 10.9375 20.839844 11.136719 22.042969 11.472656 23.191406 C 11.472656 23.191406 11.78125 24.234375 12.058594 24.808594 C 15.1875 32.121094 23.800781 36.863281 23.800781 36.863281 C 23.800781 36.863281 32.421875 32.121094 35.546875 24.808594 C 38.675781 17.488281 35.953125 23.832031 36.128906 23.191406 C 36.457031 22.035156 36.667969 20.839844 36.667969 19.582031 C 36.667969 14.917969 33.34375 11.136719 29.246094 11.136719 Z M 29.246094 11.136719 "/>
</g>
</svg>
