<?xml version="1.0" encoding="UTF-8"?>
<svg xmlns="http://www.w3.org/2000/svg" xmlns:xlink="http://www.w3.org/1999/xlink" width="48pt" height="48pt" viewBox="0 0 48 48" version="1.1">
<g id="surface1">
<path style=" stroke:none;fill-rule:evenodd;fill:rgb(0.784314%,52.54902%,76.078431%);fill-opacity:1;" d="M 11.207031 2.847656 L 36.792969 2.847656 C 41.40625 2.847656 45.152344 6.59375 45.152344 11.207031 L 45.152344 36.792969 C 45.152344 41.40625 41.40625 45.152344 36.792969 45.152344 L 11.207031 45.152344 C 6.59375 45.152344 2.847656 41.40625 2.847656 36.792969 L 2.847656 11.207031 C 2.847656 6.59375 6.59375 2.847656 11.207031 2.847656 Z M 11.207031 2.847656 "/>
<path style=" stroke:none;fill-rule:nonzero;fill:rgb(100%,100%,100%);fill-opacity:1;" d="M 21.066406 9.6875 L 21.066406 9.691406 C 20.765625 9.722656 20.5 9.96875 20.449219 10.269531 L 19.839844 13.332031 C 18.753906 13.761719 17.738281 14.34375 16.84375 15.058594 L 13.871094 14.050781 C 13.558594 13.941406 13.1875 14.082031 13.019531 14.363281 L 10.15625 19.328125 C 9.996094 19.613281 10.066406 20.011719 10.3125 20.222656 L 12.6875 22.300781 C 12.605469 22.859375 12.550781 23.421875 12.550781 24 C 12.550781 24.582031 12.605469 25.140625 12.6875 25.703125 L 10.3125 27.78125 C 10.066406 27.996094 9.996094 28.390625 10.15625 28.675781 L 13.019531 33.640625 C 13.1875 33.921875 13.558594 34.0625 13.871094 33.953125 L 16.84375 32.949219 C 17.738281 33.660156 18.761719 34.246094 19.84375 34.667969 L 20.449219 37.734375 C 20.503906 38.050781 20.8125 38.308594 21.136719 38.3125 L 26.859375 38.3125 C 27.1875 38.308594 27.496094 38.050781 27.558594 37.734375 L 28.160156 34.667969 C 29.246094 34.246094 30.261719 33.660156 31.15625 32.949219 L 34.128906 33.953125 C 34.4375 34.0625 34.8125 33.921875 34.980469 33.640625 L 37.84375 28.675781 C 38.003906 28.390625 37.9375 27.996094 37.6875 27.78125 L 35.316406 25.703125 C 35.402344 25.144531 35.453125 24.582031 35.453125 24 C 35.453125 23.421875 35.402344 22.859375 35.316406 22.300781 L 37.6875 20.222656 C 37.9375 20.011719 38.003906 19.613281 37.84375 19.328125 L 34.980469 14.363281 C 34.8125 14.082031 34.4375 13.941406 34.128906 14.050781 L 31.15625 15.058594 C 30.261719 14.34375 29.246094 13.761719 28.160156 13.332031 L 27.558594 10.269531 C 27.496094 9.949219 27.1875 9.691406 26.859375 9.6875 L 21.136719 9.6875 C 21.113281 9.6875 21.09375 9.6875 21.066406 9.6875 Z M 24 17.863281 C 27.386719 17.863281 30.136719 20.613281 30.136719 24 C 30.136719 27.390625 27.386719 30.136719 24 30.136719 C 20.609375 30.136719 17.871094 27.390625 17.871094 24 C 17.871094 20.613281 20.609375 17.863281 24 17.863281 Z M 24 17.863281 "/>
</g>
</svg>
