<?xml version="1.0" encoding="UTF-8"?>
<svg xmlns="http://www.w3.org/2000/svg" xmlns:xlink="http://www.w3.org/1999/xlink" width="48pt" height="48pt" viewBox="0 0 48 48" version="1.1">
<g id="surface1">
<path style=" stroke:none;fill-rule:evenodd;fill:rgb(54.509804%,76.470588%,29.019608%);fill-opacity:1;" d="M 11.207031 2.847656 L 36.792969 2.847656 C 41.40625 2.847656 45.152344 6.59375 45.152344 11.207031 L 45.152344 36.792969 C 45.152344 41.40625 41.40625 45.152344 36.792969 45.152344 L 11.207031 45.152344 C 6.59375 45.152344 2.847656 41.40625 2.847656 36.792969 L 2.847656 11.207031 C 2.847656 6.59375 6.59375 2.847656 11.207031 2.847656 Z M 11.207031 2.847656 "/>
<path style=" stroke:none;fill-rule:nonzero;fill:rgb(100%,100%,100%);fill-opacity:1;" d="M 24 17.808594 C 22.34375 17.808594 21 19.15625 21 20.808594 L 21 26.808594 C 21 28.453125 22.34375 29.808594 24 29.808594 C 25.65625 29.808594 27 28.453125 27 26.808594 L 27 20.808594 C 27 19.15625 25.65625 17.808594 24 17.808594 Z M 24 19.308594 C 24.828125 19.308594 25.5 19.90625 25.5 20.808594 C 25.5 21.558594 24.828125 22.308594 24 22.308594 C 23.171875 22.308594 22.5 21.558594 22.5 20.808594 C 22.5 19.90625 23.171875 19.308594 24 19.308594 Z M 24 23.808594 C 24.828125 23.808594 25.5 24.480469 25.5 25.308594 L 25.5 26.808594 C 25.5 27.636719 24.828125 28.308594 24 28.308594 C 23.171875 28.308594 22.5 27.636719 22.5 26.808594 L 22.5 25.308594 C 22.5 24.480469 23.171875 23.808594 24 23.808594 Z M 24 23.808594 "/>
<path style=" stroke:none;fill-rule:nonzero;fill:rgb(100%,100%,100%);fill-opacity:1;" d="M 22.5 2.808594 L 22.5 4.308594 L 24 4.308594 L 24 2.808594 Z M 22.5 5.808594 L 22.5 7.308594 L 24 7.308594 L 24 5.808594 Z M 22.5 8.808594 L 22.5 10.308594 L 24 10.308594 L 24 8.808594 Z M 22.5 11.808594 L 22.5 13.308594 L 24 13.308594 L 24 11.808594 Z M 22.5 14.808594 L 22.5 16.308594 L 24 16.308594 L 24 14.808594 Z M 22.5 14.808594 "/>
<path style=" stroke:none;fill-rule:nonzero;fill:rgb(100%,100%,100%);fill-opacity:1;" d="M 24 4.308594 L 24 5.808594 L 25.5 5.808594 L 25.5 4.308594 Z M 24 7.308594 L 24 8.808594 L 25.5 8.808594 L 25.5 7.308594 Z M 24 10.308594 L 24 11.808594 L 25.5 11.808594 L 25.5 10.308594 Z M 24 13.308594 L 24 14.808594 L 25.5 14.808594 L 25.5 13.308594 Z M 24 16.308594 L 24 17.808594 L 25.5 17.808594 L 25.5 16.308594 Z M 24 16.308594 "/>
</g>
</svg>
