<?xml version="1.0" encoding="UTF-8"?>
<svg xmlns="http://www.w3.org/2000/svg" xmlns:xlink="http://www.w3.org/1999/xlink" width="48pt" height="48pt" viewBox="0 0 48 48" version="1.1">
<g id="surface1">
<path style=" stroke:none;fill-rule:evenodd;fill:rgb(89.019608%,67.45098%,20%);fill-opacity:1;" d="M 11.207031 2.847656 L 36.792969 2.847656 C 41.40625 2.847656 45.152344 6.59375 45.152344 11.207031 L 45.152344 36.792969 C 45.152344 41.40625 41.40625 45.152344 36.792969 45.152344 L 11.207031 45.152344 C 6.59375 45.152344 2.847656 41.40625 2.847656 36.792969 L 2.847656 11.207031 C 2.847656 6.59375 6.59375 2.847656 11.207031 2.847656 Z M 11.207031 2.847656 "/>
<path style=" stroke:none;fill-rule:nonzero;fill:rgb(21.960784%,21.960784%,21.960784%);fill-opacity:1;" d="M 24.386719 9.019531 C 24.238281 9.449219 24.105469 9.828125 23.949219 10.347656 C 23.421875 12.082031 22.921875 14.21875 22.925781 15.421875 C 22.933594 16.578125 23.433594 18.625 23.957031 20.292969 C 24.089844 20.71875 24.160156 20.878906 24.269531 21.214844 C 24.425781 20.902344 24.496094 20.734375 24.691406 20.355469 C 25.542969 18.734375 26.597656 16.863281 27.785156 15.667969 C 29.011719 14.433594 30.933594 13.316406 32.605469 12.421875 C 32.816406 12.308594 32.953125 12.25 33.15625 12.140625 C 30.640625 10.199219 27.566406 9.105469 24.386719 9.019531 Z M 22.089844 9.140625 C 18.933594 9.542969 15.988281 10.9375 13.675781 13.125 C 13.875 13.527344 14.046875 13.886719 14.308594 14.359375 C 15.15625 15.953125 16.308594 17.8125 17.183594 18.699219 C 18.058594 19.578125 19.984375 20.796875 21.636719 21.707031 C 21.890625 21.84375 22.0625 21.925781 22.296875 22.050781 C 22.160156 21.667969 22.066406 21.4375 21.910156 20.933594 C 21.363281 19.1875 20.792969 17.113281 20.785156 15.433594 C 20.777344 13.699219 21.347656 11.542969 21.894531 9.730469 C 21.96875 9.496094 22.019531 9.359375 22.089844 9.140625 Z M 34.871094 13.675781 C 34.464844 13.878906 34.097656 14.050781 33.613281 14.3125 C 32.015625 15.167969 30.15625 16.316406 29.308594 17.175781 C 28.496094 18 27.402344 19.796875 26.59375 21.34375 C 26.386719 21.738281 26.316406 21.90625 26.160156 22.21875 C 26.484375 22.109375 26.699219 22.027344 27.066406 21.910156 C 28.8125 21.363281 30.886719 20.792969 32.566406 20.785156 C 34.300781 20.777344 36.457031 21.347656 38.269531 21.894531 C 38.503906 21.96875 38.640625 22.019531 38.859375 22.089844 C 38.457031 18.933594 37.058594 15.984375 34.871094 13.675781 Z M 12.140625 14.84375 C 10.199219 17.359375 9.105469 20.433594 9.019531 23.613281 C 9.441406 23.753906 9.8125 23.886719 10.328125 24.042969 C 12.058594 24.5625 14.183594 25.066406 15.433594 25.074219 C 16.671875 25.078125 18.894531 24.574219 20.707031 24.046875 C 20.902344 23.988281 21.019531 23.949219 21.203125 23.894531 C 20.988281 23.78125 20.839844 23.707031 20.609375 23.582031 C 18.886719 22.636719 16.902344 21.457031 15.660156 20.207031 C 14.433594 18.964844 13.308594 17.035156 12.410156 15.375 C 12.300781 15.167969 12.246094 15.035156 12.140625 14.84375 Z M 32.578125 22.925781 C 31.421875 22.933594 29.375 23.433594 27.707031 23.957031 C 27.324219 24.078125 27.109375 24.160156 26.785156 24.269531 C 27.089844 24.421875 27.300781 24.515625 27.644531 24.691406 C 29.265625 25.542969 31.136719 26.597656 32.332031 27.785156 C 33.566406 29.011719 34.683594 30.933594 35.578125 32.605469 C 35.691406 32.816406 35.75 32.953125 35.859375 33.15625 C 37.800781 30.640625 38.894531 27.566406 38.980469 24.386719 C 38.550781 24.238281 38.171875 24.105469 37.652344 23.949219 C 35.917969 23.421875 33.78125 22.921875 32.578125 22.925781 Z M 21.949219 25.90625 C 21.71875 25.972656 21.558594 26.03125 21.308594 26.105469 C 19.417969 26.652344 17.183594 27.222656 15.421875 27.214844 C 13.671875 27.207031 11.515625 26.640625 9.707031 26.09375 C 9.484375 26.027344 9.347656 25.972656 9.140625 25.90625 C 9.542969 29.0625 10.9375 32.011719 13.125 34.324219 C 13.527344 34.125 13.886719 33.953125 14.359375 33.691406 C 15.953125 32.84375 17.8125 31.691406 18.699219 30.816406 C 19.578125 29.941406 20.796875 28.015625 21.707031 26.363281 C 21.800781 26.1875 21.859375 26.066406 21.949219 25.90625 Z M 25.96875 26.253906 C 26.015625 26.410156 26.058594 26.519531 26.105469 26.691406 C 26.652344 28.582031 27.222656 30.816406 27.214844 32.578125 C 27.207031 34.328125 26.640625 36.484375 26.09375 38.292969 C 26.027344 38.515625 25.972656 38.652344 25.90625 38.859375 C 29.0625 38.457031 32.015625 37.0625 34.324219 34.871094 C 34.121094 34.464844 33.949219 34.097656 33.6875 33.613281 C 32.832031 32.015625 31.683594 30.15625 30.824219 29.308594 C 30 28.496094 28.203125 27.402344 26.65625 26.59375 C 26.371094 26.441406 26.21875 26.378906 25.96875 26.253906 Z M 23.894531 26.796875 C 23.785156 27.003906 23.707031 27.160156 23.582031 27.390625 C 22.636719 29.113281 21.457031 31.097656 20.207031 32.339844 C 18.964844 33.566406 17.035156 34.691406 15.375 35.589844 C 15.167969 35.699219 15.035156 35.753906 14.84375 35.859375 C 17.359375 37.800781 20.433594 38.894531 23.613281 38.980469 C 23.753906 38.558594 23.886719 38.1875 24.042969 37.671875 C 24.5625 35.941406 25.066406 33.816406 25.074219 32.566406 C 25.078125 31.328125 24.574219 29.105469 24.046875 27.292969 C 23.988281 27.097656 23.949219 26.972656 23.894531 26.796875 Z M 23.894531 26.796875 "/>
<path style=" stroke:none;fill-rule:nonzero;fill:rgb(80%,80%,80%);fill-opacity:1;" d="M 30 24 C 30 27.3125 27.3125 30 24 30 C 20.6875 30 18 27.3125 18 24 C 18 20.6875 20.6875 18 24 18 C 27.3125 18 30 20.6875 30 24 Z M 30 24 "/>
</g>
</svg>
