<?xml version="1.0" encoding="UTF-8"?>
<svg xmlns="http://www.w3.org/2000/svg" xmlns:xlink="http://www.w3.org/1999/xlink" width="48pt" height="48pt" viewBox="0 0 48 48" version="1.1">
<g id="surface1">
<path style=" stroke:none;fill-rule:evenodd;fill:rgb(45.882353%,40.392157%,41.568627%);fill-opacity:1;" d="M 11.207031 2.847656 L 36.792969 2.847656 C 41.40625 2.847656 45.152344 6.59375 45.152344 11.207031 L 45.152344 36.792969 C 45.152344 41.40625 41.40625 45.152344 36.792969 45.152344 L 11.207031 45.152344 C 6.59375 45.152344 2.847656 41.40625 2.847656 36.792969 L 2.847656 11.207031 C 2.847656 6.59375 6.59375 2.847656 11.207031 2.847656 Z M 11.207031 2.847656 "/>
<path style=" stroke:none;fill-rule:nonzero;fill:rgb(100%,100%,100%);fill-opacity:1;" d="M 26.292969 24.402344 C 26.292969 25.34375 25.53125 26.109375 24.582031 26.109375 C 23.640625 26.109375 22.878906 25.34375 22.878906 24.402344 C 22.878906 23.457031 23.640625 22.6875 24.582031 22.6875 C 25.53125 22.6875 26.292969 23.457031 26.292969 24.402344 "/>
<path style=" stroke:none;fill-rule:nonzero;fill:rgb(100%,100%,100%);fill-opacity:1;" d="M 29.046875 37.449219 C 26.800781 37.078125 23.878906 34.503906 21.21875 30.546875 C 20.097656 28.890625 18.957031 26.839844 18.207031 25.15625 C 18.0625 24.816406 18.003906 24.738281 17.957031 24.785156 C 17.871094 24.878906 17.21875 26.296875 16.875 27.140625 C 16.296875 28.5625 15.890625 29.917969 15.660156 31.21875 C 15.511719 32.035156 15.5 33.621094 15.640625 34.113281 C 15.957031 35.253906 16.65625 35.734375 17.75 35.546875 C 18.535156 35.417969 19.484375 34.988281 20.488281 34.300781 C 20.9375 34 21.058594 33.949219 21.230469 33.949219 C 21.496094 33.949219 21.691406 34.089844 21.785156 34.347656 C 21.847656 34.519531 21.847656 34.574219 21.785156 34.738281 C 21.722656 34.90625 21.621094 35 21.152344 35.3125 C 20.496094 35.761719 19.375 36.328125 18.808594 36.511719 C 17.3125 36.988281 16.144531 36.8125 15.316406 35.984375 C 14.5625 35.222656 14.25 33.996094 14.347656 32.28125 C 14.46875 30.050781 15.457031 27.003906 17.003906 24.015625 L 17.394531 23.265625 L 17.097656 22.46875 C 16.816406 21.707031 16.265625 19.949219 16.265625 19.816406 C 16.265625 19.71875 16.09375 19.738281 15.347656 19.921875 C 13.640625 20.339844 12.375 20.878906 11.464844 21.558594 C 9.675781 22.902344 10.144531 24.417969 12.828125 25.921875 C 13.253906 26.167969 13.347656 26.296875 13.347656 26.613281 C 13.347656 26.78125 13.316406 26.847656 13.183594 26.984375 C 12.890625 27.28125 12.621094 27.21875 11.707031 26.65625 C 10.402344 25.84375 9.574219 24.921875 9.28125 23.941406 C 9.171875 23.589844 9.171875 22.871094 9.28125 22.511719 C 9.433594 21.988281 9.691406 21.578125 10.167969 21.105469 C 11.214844 20.046875 12.964844 19.234375 15.359375 18.6875 C 15.847656 18.574219 15.957031 18.535156 15.941406 18.46875 C 15.925781 18.425781 15.871094 18.152344 15.8125 17.847656 C 15.488281 16.105469 15.480469 14.105469 15.785156 12.988281 C 16.152344 11.714844 16.796875 10.949219 17.832031 10.59375 C 18.253906 10.453125 19.109375 10.472656 19.6875 10.644531 C 20.269531 10.816406 20.996094 11.175781 21.636719 11.609375 C 22.402344 12.121094 22.625 12.332031 22.65625 12.582031 C 22.730469 13.152344 22.144531 13.457031 21.667969 13.097656 C 20.160156 11.980469 19.089844 11.550781 18.222656 11.734375 C 17.597656 11.863281 17.121094 12.503906 16.878906 13.535156 C 16.785156 13.949219 16.769531 14.140625 16.769531 15.160156 C 16.769531 16.324219 16.785156 16.503906 16.996094 17.71875 L 17.105469 18.328125 L 17.355469 18.296875 C 18.503906 18.160156 19.5 18.0625 20.109375 18.027344 L 20.832031 17.988281 L 20.953125 17.84375 C 22.175781 16.269531 23.957031 14.425781 25.3125 13.34375 C 27.894531 11.269531 30.109375 10.550781 31.636719 11.285156 C 32.5 11.703125 33.042969 12.558594 33.253906 13.816406 C 33.394531 14.640625 33.28125 16.59375 33.066406 17.144531 C 33 17.332031 32.761719 17.472656 32.5 17.472656 C 32.339844 17.472656 32.253906 17.441406 32.128906 17.324219 C 31.980469 17.199219 31.96875 17.15625 31.96875 16.890625 C 31.96875 16.738281 32.011719 16.285156 32.058594 15.890625 C 32.207031 14.753906 32.105469 13.6875 31.796875 13.078125 C 31.640625 12.777344 31.332031 12.464844 31.0625 12.332031 C 30.863281 12.230469 30.75 12.21875 30.285156 12.21875 C 29.792969 12.21875 29.691406 12.234375 29.214844 12.40625 C 27.703125 12.921875 25.980469 14.15625 24.121094 16.046875 C 23.761719 16.410156 23.234375 16.980469 22.941406 17.324219 L 22.394531 17.9375 L 22.859375 17.953125 C 29.402344 18.109375 34.910156 19.609375 37.511719 21.941406 C 38.09375 22.46875 38.597656 23.25 38.738281 23.859375 C 38.816406 24.171875 38.824219 24.769531 38.746094 25.09375 C 38.480469 26.277344 37.175781 27.441406 35.269531 28.199219 C 34.96875 28.316406 34.910156 28.324219 34.738281 28.277344 C 34.480469 28.199219 34.308594 27.972656 34.308594 27.707031 C 34.308594 27.390625 34.453125 27.238281 35 27.011719 C 36.175781 26.515625 37.09375 25.824219 37.441406 25.15625 C 37.566406 24.925781 37.578125 24.839844 37.578125 24.46875 C 37.578125 24.089844 37.566406 24.015625 37.417969 23.730469 C 37.203125 23.324219 36.503906 22.625 35.925781 22.238281 C 33.089844 20.363281 27.738281 19.144531 22.332031 19.144531 L 21.441406 19.144531 L 21.105469 19.597656 C 20.605469 20.277344 19.515625 21.9375 19.082031 22.675781 L 18.699219 23.332031 L 18.964844 23.9375 C 21.597656 29.988281 25.691406 35.105469 28.714844 36.125 C 29.371094 36.339844 29.871094 36.34375 30.265625 36.152344 C 31.015625 35.78125 31.417969 34.824219 31.472656 33.230469 C 31.574219 30.558594 30.613281 26.859375 28.816406 23.042969 C 28.636719 22.640625 28.519531 22.339844 28.519531 22.230469 C 28.519531 21.910156 28.785156 21.65625 29.113281 21.660156 C 29.410156 21.660156 29.542969 21.777344 29.765625 22.25 C 31.21875 25.296875 32.191406 28.347656 32.558594 31.015625 C 32.675781 31.910156 32.675781 33.738281 32.558594 34.390625 C 32.359375 35.4375 32.011719 36.1875 31.488281 36.722656 C 30.84375 37.371094 30.011719 37.613281 29.019531 37.453125 M 18.589844 21.1875 C 18.777344 20.878906 19.136719 20.339844 19.386719 19.972656 C 19.640625 19.597656 19.84375 19.28125 19.84375 19.261719 C 19.84375 19.191406 17.515625 19.433594 17.449219 19.5 C 17.40625 19.546875 17.542969 20.0625 17.855469 21.015625 C 18.066406 21.707031 18.140625 21.855469 18.191406 21.800781 C 18.222656 21.761719 18.40625 21.488281 18.589844 21.191406 "/>
</g>
</svg>
