<?xml version="1.0" encoding="UTF-8"?>
<svg xmlns="http://www.w3.org/2000/svg" xmlns:xlink="http://www.w3.org/1999/xlink" width="48pt" height="48pt" viewBox="0 0 48 48" version="1.1">
<g id="surface1">
<path style=" stroke:none;fill-rule:evenodd;fill:rgb(0%,58.431373%,52.941176%);fill-opacity:1;" d="M 13.832031 45.152344 L 36.792969 45.152344 C 41.421875 45.152344 45.152344 41.421875 45.152344 36.785156 L 45.152344 11.207031 C 45.152344 6.578125 41.421875 2.847656 36.792969 2.847656 L 13.832031 2.847656 Z M 13.832031 45.152344 "/>
<path style=" stroke:none;fill-rule:evenodd;fill:rgb(0%,46.666667%,42.352941%);fill-opacity:1;" d="M 13.832031 45.152344 L 13.832031 2.847656 L 11.207031 2.847656 C 6.578125 2.847656 2.847656 6.578125 2.847656 11.207031 L 2.847656 36.785156 C 2.847656 41.421875 6.578125 45.152344 11.207031 45.152344 Z M 13.832031 45.152344 "/>
<path style=" stroke:none;fill-rule:nonzero;fill:rgb(84.705882%,84.705882%,84.705882%);fill-opacity:1;" d="M 29.515625 2.847656 L 29.515625 23.847656 L 32.515625 20.847656 L 35.515625 23.847656 L 35.515625 2.847656 Z M 29.515625 2.847656 "/>
<path style=" stroke:none;fill-rule:evenodd;fill:rgb(95.294118%,25.882353%,20.784314%);fill-opacity:1;" d="M 41.441406 33.917969 C 41.441406 38.058594 38.082031 41.417969 33.941406 41.417969 C 29.796875 41.417969 26.441406 38.058594 26.441406 33.917969 C 26.441406 29.769531 29.796875 26.417969 33.941406 26.417969 C 38.082031 26.417969 41.441406 29.769531 41.441406 33.917969 Z M 41.441406 33.917969 "/>
<path style=" stroke:none;fill-rule:nonzero;fill:rgb(100%,100%,100%);fill-opacity:1;" d="M 36.214844 33.878906 C 36.214844 33.035156 35.746094 32.308594 35.050781 31.933594 L 35.050781 35.832031 C 35.738281 35.457031 36.214844 34.730469 36.214844 33.878906 Z M 29.253906 31.988281 L 29.253906 35.777344 L 31.089844 35.777344 L 33.75 38.4375 L 33.75 29.328125 L 31.089844 31.988281 Z M 35.050781 29.328125 L 35.050781 30.300781 C 36.558594 30.785156 37.652344 32.207031 37.652344 33.878906 C 37.652344 35.550781 36.5625 36.980469 35.050781 37.457031 L 35.050781 38.4375 C 37.097656 37.925781 38.628906 36.09375 38.628906 33.878906 C 38.628906 31.671875 37.097656 29.832031 35.050781 29.328125 Z M 35.050781 29.328125 "/>
</g>
</svg>
