<?xml version="1.0" encoding="UTF-8"?>
<svg xmlns="http://www.w3.org/2000/svg" xmlns:xlink="http://www.w3.org/1999/xlink" width="48pt" height="48pt" viewBox="0 0 48 48" version="1.1">
<g id="surface1">
<path style=" stroke:none;fill-rule:evenodd;fill:rgb(0%,58.431373%,52.941176%);fill-opacity:1;" d="M 11.207031 2.847656 L 36.792969 2.847656 C 41.40625 2.847656 45.152344 6.59375 45.152344 11.207031 L 45.152344 36.792969 C 45.152344 41.40625 41.40625 45.152344 36.792969 45.152344 L 11.207031 45.152344 C 6.59375 45.152344 2.847656 41.40625 2.847656 36.792969 L 2.847656 11.207031 C 2.847656 6.59375 6.59375 2.847656 11.207031 2.847656 Z M 11.207031 2.847656 "/>
<path style=" stroke:none;fill-rule:evenodd;fill:rgb(0%,58.431373%,52.941176%);fill-opacity:1;" d="M 13.832031 45.152344 L 36.792969 45.152344 C 41.421875 45.152344 45.152344 41.421875 45.152344 36.785156 L 45.152344 11.207031 C 45.152344 6.578125 41.421875 2.847656 36.792969 2.847656 L 13.832031 2.847656 Z M 13.832031 45.152344 "/>
<path style=" stroke:none;fill-rule:evenodd;fill:rgb(0%,46.666667%,42.352941%);fill-opacity:1;" d="M 13.832031 45.152344 L 13.832031 2.847656 L 11.207031 2.847656 C 6.578125 2.847656 2.847656 6.578125 2.847656 11.207031 L 2.847656 36.785156 C 2.847656 41.421875 6.578125 45.152344 11.207031 45.152344 Z M 13.832031 45.152344 "/>
<path style=" stroke:none;fill-rule:nonzero;fill:rgb(84.705882%,96.078431%,80.392157%);fill-opacity:1;" d="M 34.707031 24.550781 C 34.707031 22.847656 33.765625 21.378906 32.359375 20.621094 L 32.359375 28.484375 C 33.75 27.722656 34.707031 26.253906 34.707031 24.550781 Z M 20.6875 20.738281 L 20.6875 28.363281 L 24.378906 28.363281 L 29.738281 33.722656 L 29.738281 15.375 L 24.378906 20.738281 Z M 32.359375 15.375 L 32.359375 17.34375 C 35.402344 18.3125 37.605469 21.183594 37.605469 24.550781 C 37.605469 27.917969 35.402344 30.792969 32.359375 31.761719 L 32.359375 33.722656 C 36.488281 32.703125 39.566406 29.003906 39.566406 24.550781 C 39.566406 20.09375 36.488281 16.402344 32.359375 15.375 Z M 32.359375 15.375 "/>
</g>
</svg>
