<?xml version="1.0" encoding="UTF-8"?>
<svg xmlns="http://www.w3.org/2000/svg" xmlns:xlink="http://www.w3.org/1999/xlink" width="48pt" height="48pt" viewBox="0 0 48 48" version="1.1">
<g id="surface1">
<path style=" stroke:none;fill-rule:evenodd;fill:rgb(91.372549%,11.764706%,38.823529%);fill-opacity:1;" d="M 11.207031 2.847656 L 36.792969 2.847656 C 41.40625 2.847656 45.152344 6.59375 45.152344 11.207031 L 45.152344 36.792969 C 45.152344 41.40625 41.40625 45.152344 36.792969 45.152344 L 11.207031 45.152344 C 6.59375 45.152344 2.847656 41.40625 2.847656 36.792969 L 2.847656 11.207031 C 2.847656 6.59375 6.59375 2.847656 11.207031 2.847656 Z M 11.207031 2.847656 "/>
<path style=" stroke:none;fill-rule:nonzero;fill:rgb(100%,54.509804%,100%);fill-opacity:1;" d="M 22.214844 19.582031 L 27.207031 24.582031 C 27.933594 25.300781 29.097656 25.300781 29.824219 24.582031 C 30.546875 23.859375 30.546875 22.6875 29.824219 21.964844 L 24.828125 16.96875 C 21.253906 13.394531 15.472656 13.332031 11.824219 16.785156 C 11.792969 16.816406 11.753906 16.84375 11.722656 16.875 C 11.707031 16.890625 11.699219 16.90625 11.683594 16.925781 C 11.667969 16.9375 11.644531 16.953125 11.636719 16.96875 C 11.597656 17 11.574219 17.03125 11.546875 17.066406 C 8.09375 20.71875 8.152344 26.496094 11.722656 30.074219 L 16.722656 35.066406 C 17.441406 35.792969 18.613281 35.792969 19.339844 35.066406 C 20.058594 34.34375 20.058594 33.171875 19.339844 32.453125 L 14.339844 27.457031 C 12.160156 25.277344 12.144531 21.738281 14.296875 19.542969 C 16.496094 17.390625 20.03125 17.40625 22.214844 19.582031 Z M 22.214844 19.582031 "/>
<path style=" stroke:none;fill-rule:nonzero;fill:rgb(100%,54.509804%,100%);fill-opacity:1;" d="M 28.660156 12.933594 C 27.941406 13.65625 27.941406 14.828125 28.660156 15.546875 L 33.660156 20.542969 C 35.839844 22.722656 35.855469 26.261719 33.703125 28.457031 C 31.503906 30.609375 27.96875 30.59375 25.785156 28.417969 L 20.792969 23.417969 C 20.066406 22.699219 18.894531 22.699219 18.175781 23.417969 C 17.453125 24.140625 17.453125 25.3125 18.175781 26.035156 L 23.171875 31.03125 C 26.746094 34.609375 32.527344 34.667969 36.175781 31.214844 C 36.207031 31.183594 36.246094 31.15625 36.277344 31.125 C 36.292969 31.109375 36.300781 31.09375 36.316406 31.078125 C 36.332031 31.0625 36.347656 31.046875 36.363281 31.03125 C 36.402344 31 36.425781 30.96875 36.453125 30.933594 C 39.90625 27.28125 39.847656 21.503906 36.277344 17.925781 L 31.28125 12.933594 C 30.558594 12.207031 29.386719 12.207031 28.660156 12.933594 Z M 28.660156 12.933594 "/>
</g>
</svg>
