<?xml version="1.0" encoding="UTF-8"?>
<svg xmlns="http://www.w3.org/2000/svg" xmlns:xlink="http://www.w3.org/1999/xlink" width="48pt" height="48pt" viewBox="0 0 48 48" version="1.1">
<g id="surface1">
<path style=" stroke:none;fill-rule:evenodd;fill:rgb(30.980392%,30.980392%,30.980392%);fill-opacity:1;" d="M 11.207031 2.847656 L 36.792969 2.847656 C 41.40625 2.847656 45.152344 6.59375 45.152344 11.207031 L 45.152344 36.792969 C 45.152344 41.40625 41.40625 45.152344 36.792969 45.152344 L 11.207031 45.152344 C 6.59375 45.152344 2.847656 41.40625 2.847656 36.792969 L 2.847656 11.207031 C 2.847656 6.59375 6.59375 2.847656 11.207031 2.847656 Z M 11.207031 2.847656 "/>
<path style=" stroke:none;fill-rule:evenodd;fill:rgb(30.980392%,30.980392%,30.980392%);fill-opacity:1;" d="M 2.847656 12.035156 L 2.847656 36.792969 C 2.847656 41.421875 6.578125 45.152344 11.207031 45.152344 L 36.785156 45.152344 C 41.421875 45.152344 45.152344 41.421875 45.152344 36.792969 L 45.152344 12.035156 Z M 2.847656 12.035156 "/>
<path style=" stroke:none;fill-rule:evenodd;fill:rgb(24.705882%,24.705882%,24.705882%);fill-opacity:1;" d="M 44.546875 8.21875 L 40.730469 12.035156 L 45.152344 12.035156 L 45.152344 11.214844 C 45.152344 10.144531 44.90625 9.152344 44.546875 8.21875 Z M 44.546875 8.21875 "/>
<path style=" stroke:none;fill-rule:evenodd;fill:rgb(39.607843%,39.607843%,39.607843%);fill-opacity:1;" d="M 44.09375 7.355469 L 39.167969 7.355469 L 34.484375 12.035156 L 40.730469 12.035156 L 44.546875 8.21875 C 44.425781 7.90625 44.25 7.644531 44.09375 7.355469 Z M 44.09375 7.355469 "/>
<path style=" stroke:none;fill-rule:evenodd;fill:rgb(39.607843%,39.607843%,39.607843%);fill-opacity:1;" d="M 29.796875 12.035156 L 34.484375 7.355469 L 28.234375 7.355469 L 23.550781 12.035156 Z M 29.796875 12.035156 "/>
<path style=" stroke:none;fill-rule:evenodd;fill:rgb(24.705882%,24.705882%,24.705882%);fill-opacity:1;" d="M 29.980469 2.847656 L 34.484375 7.355469 L 29.796875 12.035156 L 34.484375 12.035156 L 39.167969 7.355469 L 34.660156 2.847656 Z M 29.980469 2.847656 "/>
<path style=" stroke:none;fill-rule:evenodd;fill:rgb(24.705882%,24.705882%,24.705882%);fill-opacity:1;" d="M 23.550781 7.355469 L 18.863281 12.035156 L 23.550781 12.035156 L 28.234375 7.355469 L 23.730469 2.847656 L 19.046875 2.847656 Z M 23.550781 7.355469 "/>
<path style=" stroke:none;fill-rule:evenodd;fill:rgb(39.607843%,39.607843%,39.607843%);fill-opacity:1;" d="M 17.300781 7.355469 L 12.621094 12.035156 L 18.871094 12.035156 L 23.550781 7.355469 Z M 17.300781 7.355469 "/>
<path style=" stroke:none;fill-rule:evenodd;fill:rgb(24.705882%,24.705882%,24.705882%);fill-opacity:1;" d="M 7.503906 3.800781 L 11.058594 7.355469 L 11.058594 12.035156 L 12.621094 12.035156 L 17.300781 7.355469 L 12.796875 2.847656 L 11.207031 2.847656 C 9.859375 2.847656 8.636719 3.238281 7.503906 3.800781 Z M 7.503906 3.800781 "/>
<path style=" stroke:none;fill-rule:evenodd;fill:rgb(39.607843%,39.607843%,39.607843%);fill-opacity:1;" d="M 2.847656 12.035156 L 11.058594 12.035156 L 11.058594 7.355469 L 7.503906 3.800781 C 4.765625 5.171875 2.847656 7.933594 2.847656 11.214844 Z M 2.847656 12.035156 "/>
<path style=" stroke:none;fill-rule:evenodd;fill:rgb(39.607843%,39.607843%,39.607843%);fill-opacity:1;" d="M 12.796875 2.847656 L 17.300781 7.355469 L 23.550781 7.355469 L 19.046875 2.847656 Z M 12.796875 2.847656 "/>
<path style=" stroke:none;fill-rule:evenodd;fill:rgb(39.607843%,39.607843%,39.607843%);fill-opacity:1;" d="M 23.730469 2.847656 L 28.234375 7.355469 L 34.484375 7.355469 L 29.972656 2.847656 Z M 23.730469 2.847656 "/>
<path style=" stroke:none;fill-rule:evenodd;fill:rgb(39.607843%,39.607843%,39.607843%);fill-opacity:1;" d="M 34.660156 2.847656 L 39.167969 7.355469 L 44.09375 7.355469 C 42.691406 4.707031 40.003906 2.847656 36.785156 2.847656 Z M 34.660156 2.847656 "/>
<path style=" stroke:none;fill-rule:nonzero;fill:rgb(72.941176%,72.941176%,72.941176%);fill-opacity:1;" d="M 15.253906 20.238281 C 14.425781 20.238281 13.753906 20.90625 13.753906 21.738281 L 13.753906 33.738281 C 13.753906 34.566406 14.425781 35.238281 15.253906 35.238281 L 28.753906 35.238281 C 29.589844 35.238281 30.253906 34.566406 30.253906 33.738281 L 30.253906 21.738281 C 30.253906 20.90625 29.589844 20.238281 28.753906 20.238281 Z M 30.253906 27.738281 L 36.253906 32.238281 L 36.253906 23.238281 Z M 30.253906 27.738281 "/>
</g>
</svg>
