<?xml version="1.0" encoding="UTF-8"?>
<svg xmlns="http://www.w3.org/2000/svg" xmlns:xlink="http://www.w3.org/1999/xlink" width="48pt" height="48pt" viewBox="0 0 48 48" version="1.1">
<g id="surface1">
<path style=" stroke:none;fill-rule:evenodd;fill:rgb(30.980392%,30.980392%,30.980392%);fill-opacity:1;" d="M 11.207031 2.847656 L 36.792969 2.847656 C 41.40625 2.847656 45.152344 6.59375 45.152344 11.207031 L 45.152344 36.792969 C 45.152344 41.40625 41.40625 45.152344 36.792969 45.152344 L 11.207031 45.152344 C 6.59375 45.152344 2.847656 41.40625 2.847656 36.792969 L 2.847656 11.207031 C 2.847656 6.59375 6.59375 2.847656 11.207031 2.847656 Z M 11.207031 2.847656 "/>
<path style=" stroke:none;fill-rule:nonzero;fill:rgb(45.490196%,74.509804%,82.352941%);fill-opacity:1;" d="M 8.109375 15 L 8.109375 33 L 12.609375 33 L 12.609375 32.605469 C 13.328125 32.863281 14.089844 32.996094 14.859375 33 C 18.582031 33 21.609375 29.980469 21.609375 26.25 C 21.609375 22.519531 18.582031 19.5 14.859375 19.5 C 14.089844 19.503906 13.328125 19.636719 12.609375 19.894531 L 12.609375 15 Z M 32.109375 15 C 27.136719 15 23.109375 19.03125 23.109375 24 C 23.109375 28.96875 27.136719 33 32.109375 33 C 35.316406 32.996094 38.28125 31.28125 39.890625 28.5 L 32.109375 28.5 C 29.625 28.5 27.609375 26.484375 27.609375 24 C 27.609375 21.515625 29.625 19.5 32.109375 19.5 L 39.890625 19.5 C 38.285156 16.71875 35.316406 15.003906 32.109375 15 Z M 14.859375 24 C 16.097656 24 17.109375 25.003906 17.109375 26.25 C 17.109375 27.496094 16.097656 28.5 14.859375 28.5 C 13.613281 28.5 12.609375 27.496094 12.609375 26.25 C 12.609375 25.003906 13.613281 24 14.859375 24 Z M 14.859375 24 "/>
</g>
</svg>
