<?xml version="1.0" encoding="UTF-8"?>
<svg xmlns="http://www.w3.org/2000/svg" xmlns:xlink="http://www.w3.org/1999/xlink" width="48pt" height="48pt" viewBox="0 0 48 48" version="1.1">
<g id="surface1">
<path style=" stroke:none;fill-rule:evenodd;fill:rgb(23.921569%,39.607843%,76.078431%);fill-opacity:1;" d="M 12.8125 45.152344 L 36.792969 45.152344 C 41.421875 45.152344 45.152344 41.421875 45.152344 36.785156 L 45.152344 11.207031 C 45.152344 6.578125 41.421875 2.847656 36.792969 2.847656 L 12.8125 2.847656 Z M 12.8125 45.152344 "/>
<path style=" stroke:none;fill-rule:evenodd;fill:rgb(19.215686%,31.764706%,60.784314%);fill-opacity:1;" d="M 12.8125 45.152344 L 12.8125 2.847656 L 11.214844 2.847656 C 6.578125 2.847656 2.847656 6.578125 2.847656 11.207031 L 2.847656 36.785156 C 2.847656 41.421875 6.578125 45.152344 11.214844 45.152344 Z M 12.8125 45.152344 "/>
<path style=" stroke:none;fill-rule:nonzero;fill:rgb(100%,85.098039%,44.705882%);fill-opacity:1;" d="M 25.675781 9 L 31.675781 9 L 31.675781 39 L 25.675781 39 Z M 25.675781 9 "/>
<path style=" stroke:none;fill-rule:nonzero;fill:rgb(100%,85.098039%,44.705882%);fill-opacity:1;" d="M 39.175781 16.5 L 39.175781 22.5 L 18.175781 22.5 L 18.175781 16.5 Z M 39.175781 16.5 "/>
<path style=" stroke:none;fill-rule:evenodd;fill:rgb(100%,59.607843%,17.647059%);fill-opacity:1;" d="M 41.847656 34.527344 C 41.847656 38.667969 38.488281 42.027344 34.347656 42.027344 C 30.203125 42.027344 26.847656 38.667969 26.847656 34.527344 C 26.847656 30.386719 30.203125 27.027344 34.347656 27.027344 C 38.488281 27.027344 41.847656 30.386719 41.847656 34.527344 Z M 41.847656 34.527344 "/>
<path style=" stroke:none;fill-rule:nonzero;fill:rgb(100%,100%,100%);fill-opacity:1;" d="M 34.347656 29.839844 C 31.761719 29.839844 29.660156 31.9375 29.660156 34.527344 C 29.660156 37.113281 31.761719 39.214844 34.347656 39.214844 C 36.9375 39.214844 39.035156 37.113281 39.035156 34.527344 C 39.035156 31.9375 36.9375 29.839844 34.347656 29.839844 Z M 34.347656 30.777344 C 36.417969 30.777344 38.097656 32.453125 38.097656 34.527344 C 38.097656 36.597656 36.417969 38.277344 34.347656 38.277344 C 32.277344 38.277344 30.597656 36.597656 30.597656 34.527344 C 30.597656 32.453125 32.277344 30.777344 34.347656 30.777344 Z M 34.347656 30.777344 "/>
<path style=" stroke:none;fill-rule:nonzero;fill:rgb(100%,100%,100%);fill-opacity:1;" d="M 33.410156 31.714844 L 33.410156 35.464844 L 37.160156 35.464844 L 37.160156 34.527344 L 34.347656 34.527344 L 34.347656 31.714844 Z M 33.410156 31.714844 "/>
</g>
</svg>
