<?xml version="1.0" encoding="UTF-8"?>
<svg xmlns="http://www.w3.org/2000/svg" xmlns:xlink="http://www.w3.org/1999/xlink" width="48pt" height="48pt" viewBox="0 0 48 48" version="1.1">
<g id="surface1">
<path style=" stroke:none;fill-rule:evenodd;fill:rgb(96.862745%,57.647059%,10.196078%);fill-opacity:1;" d="M 11.207031 2.847656 L 36.792969 2.847656 C 41.40625 2.847656 45.152344 6.59375 45.152344 11.207031 L 45.152344 36.792969 C 45.152344 41.40625 41.40625 45.152344 36.792969 45.152344 L 11.207031 45.152344 C 6.59375 45.152344 2.847656 41.40625 2.847656 36.792969 L 2.847656 11.207031 C 2.847656 6.59375 6.59375 2.847656 11.207031 2.847656 Z M 11.207031 2.847656 "/>
<path style=" stroke:none;fill-rule:nonzero;fill:rgb(100%,100%,100%);fill-opacity:1;" d="M 19.511719 10.5 L 19.511719 15 L 15.011719 15 L 15.011719 18 C 15.011719 18 16.730469 17.96875 16.703125 18 C 17.625 17.984375 17.917969 18.65625 18.011719 19.097656 L 18.011719 29 C 17.980469 29.28125 18.003906 29.980469 17.363281 30 C 17.394531 30.027344 15.011719 30 15.011719 30 L 15.011719 33 L 18.265625 33 C 18.816406 32.980469 18.980469 33 19.511719 33 L 19.511719 37.5 L 22.511719 37.5 L 22.511719 33 L 23.980469 33 L 24.042969 37.5 L 27.011719 37.5 L 26.980469 33 C 30.796875 32.722656 33.011719 30.894531 32.988281 27.75 C 33.011719 24.855469 30.699219 23.261719 29.261719 23.25 C 30.699219 23.253906 31.511719 21.691406 31.511719 19.5 C 31.511719 16.5 29.441406 15 27.011719 15 L 27.011719 10.5 L 24.011719 10.5 L 24.011719 15 C 23.417969 15 23.121094 14.980469 22.511719 15 L 22.511719 10.5 Z M 22.511719 18 C 25.511719 18 27.011719 18 27.011719 20.25 C 27.011719 22.5 25.511719 22.5 22.511719 22.5 Z M 22.511719 25.5 C 26.511719 25.5 28.511719 25.25 28.511719 27.75 C 28.511719 30.25 26.511719 30 22.511719 30 Z M 22.511719 25.5 "/>
</g>
</svg>
