<?xml version="1.0" encoding="UTF-8"?>
<svg xmlns="http://www.w3.org/2000/svg" xmlns:xlink="http://www.w3.org/1999/xlink" width="48pt" height="48pt" viewBox="0 0 48 48" version="1.1">
<g id="surface1">
<path style=" stroke:none;fill-rule:evenodd;fill:rgb(89.019608%,12.54902%,21.568627%);fill-opacity:1;" d="M 11.207031 2.847656 L 36.792969 2.847656 C 41.40625 2.847656 45.152344 6.59375 45.152344 11.207031 L 45.152344 36.792969 C 45.152344 41.40625 41.40625 45.152344 36.792969 45.152344 L 11.207031 45.152344 C 6.59375 45.152344 2.847656 41.40625 2.847656 36.792969 L 2.847656 11.207031 C 2.847656 6.59375 6.59375 2.847656 11.207031 2.847656 Z M 11.207031 2.847656 "/>
<path style=" stroke:none;fill-rule:nonzero;fill:rgb(100%,100%,100%);fill-opacity:1;" d="M 17.25 18 C 17.25 19.246094 16.246094 20.25 15 20.25 C 13.753906 20.25 12.75 19.246094 12.75 18 C 12.75 16.753906 13.753906 15.75 15 15.75 C 16.246094 15.75 17.25 16.753906 17.25 18 Z M 17.25 18 "/>
<path style=" stroke:none;fill-rule:nonzero;fill:rgb(100%,100%,100%);fill-opacity:1;" d="M 23.25 18 C 23.25 19.246094 22.246094 20.25 21 20.25 C 19.753906 20.25 18.75 19.246094 18.75 18 C 18.75 16.753906 19.753906 15.75 21 15.75 C 22.246094 15.75 23.25 16.753906 23.25 18 Z M 23.25 18 "/>
<path style=" stroke:none;fill-rule:nonzero;fill:rgb(100%,100%,100%);fill-opacity:1;" d="M 29.25 18 C 29.25 19.246094 28.246094 20.25 27 20.25 C 25.753906 20.25 24.75 19.246094 24.75 18 C 24.75 16.753906 25.753906 15.75 27 15.75 C 28.246094 15.75 29.25 16.753906 29.25 18 Z M 29.25 18 "/>
<path style=" stroke:none;fill-rule:nonzero;fill:rgb(100%,100%,100%);fill-opacity:1;" d="M 35.25 18 C 35.25 19.246094 34.246094 20.25 33 20.25 C 31.753906 20.25 30.75 19.246094 30.75 18 C 30.75 16.753906 31.753906 15.75 33 15.75 C 34.246094 15.75 35.25 16.753906 35.25 18 Z M 35.25 18 "/>
<path style=" stroke:none;fill-rule:nonzero;fill:rgb(100%,100%,100%);fill-opacity:1;" d="M 11.25 24 C 11.25 25.246094 10.246094 26.25 9 26.25 C 7.753906 26.25 6.75 25.246094 6.75 24 C 6.75 22.753906 7.753906 21.75 9 21.75 C 10.246094 21.75 11.25 22.753906 11.25 24 Z M 11.25 24 "/>
<path style=" stroke:none;fill-rule:nonzero;fill:rgb(100%,100%,100%);fill-opacity:1;" d="M 17.25 24 C 17.25 25.246094 16.246094 26.25 15 26.25 C 13.753906 26.25 12.75 25.246094 12.75 24 C 12.75 22.753906 13.753906 21.75 15 21.75 C 16.246094 21.75 17.25 22.753906 17.25 24 Z M 17.25 24 "/>
<path style=" stroke:none;fill-rule:nonzero;fill:rgb(100%,100%,100%);fill-opacity:1;" d="M 23.25 24 C 23.25 25.246094 22.246094 26.25 21 26.25 C 19.753906 26.25 18.75 25.246094 18.75 24 C 18.75 22.753906 19.753906 21.75 21 21.75 C 22.246094 21.75 23.25 22.753906 23.25 24 Z M 23.25 24 "/>
<path style=" stroke:none;fill-rule:nonzero;fill:rgb(100%,100%,100%);fill-opacity:1;" d="M 29.25 24 C 29.25 25.246094 28.246094 26.25 27 26.25 C 25.753906 26.25 24.75 25.246094 24.75 24 C 24.75 22.753906 25.753906 21.75 27 21.75 C 28.246094 21.75 29.25 22.753906 29.25 24 Z M 29.25 24 "/>
<path style=" stroke:none;fill-rule:nonzero;fill:rgb(100%,100%,100%);fill-opacity:1;" d="M 35.25 24 C 35.25 25.246094 34.246094 26.25 33 26.25 C 31.753906 26.25 30.75 25.246094 30.75 24 C 30.75 22.753906 31.753906 21.75 33 21.75 C 34.246094 21.75 35.25 22.753906 35.25 24 Z M 35.25 24 "/>
<path style=" stroke:none;fill-rule:nonzero;fill:rgb(100%,100%,100%);fill-opacity:1;" d="M 41.25 24 C 41.25 25.246094 40.246094 26.25 39 26.25 C 37.753906 26.25 36.75 25.246094 36.75 24 C 36.75 22.753906 37.753906 21.75 39 21.75 C 40.246094 21.75 41.25 22.753906 41.25 24 Z M 41.25 24 "/>
<path style=" stroke:none;fill-rule:nonzero;fill:rgb(100%,100%,100%);fill-opacity:1;" d="M 11.25 30 C 11.25 31.246094 10.246094 32.25 9 32.25 C 7.753906 32.25 6.75 31.246094 6.75 30 C 6.75 28.753906 7.753906 27.75 9 27.75 C 10.246094 27.75 11.25 28.753906 11.25 30 Z M 11.25 30 "/>
<path style=" stroke:none;fill-rule:nonzero;fill:rgb(100%,100%,100%);fill-opacity:1;" d="M 17.25 30 C 17.25 31.246094 16.246094 32.25 15 32.25 C 13.753906 32.25 12.75 31.246094 12.75 30 C 12.75 28.753906 13.753906 27.75 15 27.75 C 16.246094 27.75 17.25 28.753906 17.25 30 Z M 17.25 30 "/>
<path style=" stroke:none;fill-rule:nonzero;fill:rgb(100%,100%,100%);fill-opacity:1;" d="M 35.25 30 C 35.25 31.246094 34.246094 32.25 33 32.25 C 31.753906 32.25 30.75 31.246094 30.75 30 C 30.75 28.753906 31.753906 27.75 33 27.75 C 34.246094 27.75 35.25 28.753906 35.25 30 Z M 35.25 30 "/>
<path style=" stroke:none;fill-rule:nonzero;fill:rgb(100%,100%,100%);fill-opacity:1;" d="M 41.25 30 C 41.25 31.246094 40.246094 32.25 39 32.25 C 37.753906 32.25 36.75 31.246094 36.75 30 C 36.75 28.753906 37.753906 27.75 39 27.75 C 40.246094 27.75 41.25 28.753906 41.25 30 Z M 41.25 30 "/>
</g>
</svg>
