<?xml version="1.0" encoding="UTF-8"?>
<svg xmlns="http://www.w3.org/2000/svg" xmlns:xlink="http://www.w3.org/1999/xlink" width="48pt" height="48pt" viewBox="0 0 48 48" version="1.1">
<g id="surface1">
<path style=" stroke:none;fill-rule:evenodd;fill:rgb(91.372549%,65.882353%,29.019608%);fill-opacity:1;" d="M 11.207031 2.847656 L 36.792969 2.847656 C 41.40625 2.847656 45.152344 6.59375 45.152344 11.207031 L 45.152344 36.792969 C 45.152344 41.40625 41.40625 45.152344 36.792969 45.152344 L 11.207031 45.152344 C 6.59375 45.152344 2.847656 41.40625 2.847656 36.792969 L 2.847656 11.207031 C 2.847656 6.59375 6.59375 2.847656 11.207031 2.847656 Z M 11.207031 2.847656 "/>
<path style=" stroke:none;fill-rule:nonzero;fill:rgb(100%,100%,100%);fill-opacity:1;" d="M 23.589844 10.167969 C 22.707031 10.191406 21.9375 10.777344 21.671875 11.621094 C 21.40625 12.457031 21.703125 13.375 22.410156 13.902344 L 24.769531 15.714844 L 13.300781 15.714844 C 12.15625 15.714844 11.230469 16.644531 11.230469 17.785156 C 11.230469 18.933594 12.15625 19.863281 13.300781 19.863281 L 18.503906 19.863281 L 10.003906 26.03125 C 9.386719 26.457031 9.046875 27.1875 9.121094 27.9375 C 9.1875 28.6875 9.660156 29.339844 10.355469 29.640625 C 11.046875 29.941406 11.84375 29.84375 12.441406 29.386719 L 16.785156 26.234375 C 16.777344 26.410156 16.765625 26.59375 16.761719 26.769531 C 16.761719 32.878906 21.714844 37.832031 27.828125 37.832031 C 33.9375 37.832031 38.890625 32.878906 38.890625 26.769531 C 38.890625 23.125 37.089844 19.714844 34.082031 17.652344 C 34.035156 17.609375 33.984375 17.566406 33.933594 17.527344 L 24.941406 10.613281 C 24.558594 10.3125 24.078125 10.152344 23.589844 10.167969 Z M 23.589844 10.167969 "/>
<path style=" stroke:none;fill-rule:nonzero;fill:rgb(95.686275%,70.588235%,24.705882%);fill-opacity:1;" d="M 28.25 20.808594 C 31.777344 20.808594 34.636719 23.667969 34.636719 27.191406 C 34.636719 30.71875 31.777344 33.578125 28.25 33.578125 C 24.722656 33.578125 21.863281 30.71875 21.863281 27.191406 C 21.863281 23.667969 24.722656 20.808594 28.25 20.808594 Z M 28.25 20.808594 "/>
<path style=" stroke:none;fill-rule:nonzero;fill:rgb(13.72549%,59.215686%,100%);fill-opacity:1;" d="M 31.441406 27.191406 C 31.441406 28.953125 30.015625 30.386719 28.25 30.386719 C 26.488281 30.386719 25.058594 28.953125 25.058594 27.191406 C 25.058594 25.425781 26.488281 24 28.25 24 C 30.015625 24 31.441406 25.425781 31.441406 27.191406 Z M 31.441406 27.191406 "/>
</g>
</svg>
