<?xml version="1.0" encoding="UTF-8"?>
<svg xmlns="http://www.w3.org/2000/svg" xmlns:xlink="http://www.w3.org/1999/xlink" width="48pt" height="48pt" viewBox="0 0 48 48" version="1.1">
<g id="surface1">
<path style=" stroke:none;fill-rule:evenodd;fill:rgb(12.54902%,78.823529%,19.215686%);fill-opacity:1;" d="M 2.847656 31.183594 L 16.816406 31.183594 L 16.816406 16.816406 L 2.847656 16.816406 Z M 2.847656 31.183594 "/>
<path style=" stroke:none;fill-rule:evenodd;fill:rgb(19.215686%,50.980392%,77.647059%);fill-opacity:1;" d="M 16.816406 31.183594 L 31.183594 31.183594 L 31.183594 16.816406 L 16.816406 16.816406 Z M 16.816406 31.183594 "/>
<path style=" stroke:none;fill-rule:evenodd;fill:rgb(15.294118%,55.686275%,20%);fill-opacity:1;" d="M 31.183594 31.183594 L 31.183594 45.152344 L 36.792969 45.152344 C 41.421875 45.152344 45.152344 41.421875 45.152344 36.792969 L 45.152344 31.183594 Z M 31.183594 31.183594 "/>
<path style=" stroke:none;fill-rule:evenodd;fill:rgb(11.764706%,30.980392%,46.666667%);fill-opacity:1;" d="M 16.816406 31.183594 L 16.816406 45.152344 L 31.183594 45.152344 L 31.183594 31.183594 Z M 16.816406 31.183594 "/>
<path style=" stroke:none;fill-rule:evenodd;fill:rgb(15.294118%,55.686275%,20%);fill-opacity:1;" d="M 16.816406 45.152344 L 16.816406 31.183594 L 2.847656 31.183594 L 2.847656 36.792969 C 2.847656 41.421875 6.578125 45.152344 11.207031 45.152344 Z M 16.816406 45.152344 "/>
<path style=" stroke:none;fill-rule:evenodd;fill:rgb(12.54902%,78.823529%,19.215686%);fill-opacity:1;" d="M 45.152344 16.816406 L 31.183594 16.816406 L 31.183594 31.183594 L 45.152344 31.183594 Z M 45.152344 16.816406 "/>
<path style=" stroke:none;fill-rule:evenodd;fill:rgb(40%,99.607843%,46.27451%);fill-opacity:1;" d="M 31.183594 2.847656 L 31.183594 16.816406 L 45.152344 16.816406 L 45.152344 11.207031 C 45.152344 6.578125 41.421875 2.847656 36.792969 2.847656 Z M 31.183594 2.847656 "/>
<path style=" stroke:none;fill-rule:evenodd;fill:rgb(40%,71.764706%,99.607843%);fill-opacity:1;" d="M 2.847656 16.816406 L 16.816406 16.816406 L 16.816406 2.847656 L 11.207031 2.847656 C 6.578125 2.847656 2.847656 6.578125 2.847656 11.207031 Z M 2.847656 16.816406 "/>
<path style=" stroke:none;fill-rule:evenodd;fill:rgb(27.843137%,60%,88.627451%);fill-opacity:1;" d="M 16.816406 2.847656 L 16.816406 16.816406 L 31.183594 16.816406 L 31.183594 2.847656 Z M 16.816406 2.847656 "/>
</g>
</svg>
