<?xml version="1.0" encoding="UTF-8"?>
<svg xmlns="http://www.w3.org/2000/svg" xmlns:xlink="http://www.w3.org/1999/xlink" width="48pt" height="48pt" viewBox="0 0 48 48" version="1.1">
<g id="surface1">
<path style=" stroke:none;fill-rule:evenodd;fill:rgb(90.196078%,90.196078%,90.196078%);fill-opacity:1;" d="M 11.207031 2.847656 L 36.792969 2.847656 C 41.40625 2.847656 45.152344 6.59375 45.152344 11.207031 L 45.152344 36.792969 C 45.152344 41.40625 41.40625 45.152344 36.792969 45.152344 L 11.207031 45.152344 C 6.59375 45.152344 2.847656 41.40625 2.847656 36.792969 L 2.847656 11.207031 C 2.847656 6.59375 6.59375 2.847656 11.207031 2.847656 Z M 11.207031 2.847656 "/>
<path style=" stroke:none;fill-rule:nonzero;fill:rgb(30.980392%,30.980392%,30.980392%);fill-opacity:1;" d="M 24.910156 17.457031 C 24.746094 17.457031 24.566406 17.472656 24.464844 17.488281 C 23.816406 17.597656 23.300781 17.839844 23.035156 18.160156 C 22.828125 18.417969 22.765625 18.730469 22.875 19.035156 C 22.886719 19.078125 22.894531 19.113281 22.890625 19.125 C 22.886719 19.128906 22.25 19.199219 21.488281 19.277344 C 20.871094 19.34375 20.527344 19.390625 20.347656 19.417969 C 20.324219 19.417969 20.203125 19.433594 20.191406 19.433594 C 20.1875 19.433594 20.089844 19.441406 20.089844 19.441406 C 20.089844 19.441406 20.097656 19.46875 20.097656 19.472656 C 20.097656 19.484375 20.097656 19.488281 20.097656 19.496094 C 20.105469 19.550781 20.128906 19.671875 20.203125 19.910156 C 20.324219 20.34375 20.347656 20.425781 20.332031 20.425781 C 20.328125 20.425781 20.261719 20.386719 20.191406 20.332031 C 19.90625 20.128906 19.644531 20.03125 19.371094 20.015625 C 19.0625 20 18.863281 20.089844 18.644531 20.300781 C 18.640625 20.308594 18.636719 20.300781 18.628906 20.308594 C 18.519531 20.417969 18.480469 20.46875 18.40625 20.621094 C 18.300781 20.832031 18.25 21.027344 18.234375 21.28125 C 18.21875 21.578125 18.28125 21.953125 18.390625 22.199219 L 18.421875 22.285156 L 18.566406 22.285156 C 18.949219 22.285156 19.25 21.796875 19.566406 21.652344 C 19.785156 21.59375 20.191406 21.59375 20.46875 21.652344 C 21.457031 21.84375 22.199219 22.515625 22.160156 23.1875 C 22.152344 23.363281 22.089844 23.484375 21.925781 23.640625 C 21.796875 23.777344 21.625 23.890625 21.328125 24.050781 C 21.222656 24.109375 21.050781 24.207031 20.941406 24.269531 C 20.832031 24.328125 20.675781 24.421875 20.597656 24.472656 C 20.441406 24.578125 20.246094 24.75 20.246094 24.792969 C 20.246094 24.828125 20.34375 24.828125 20.761719 24.785156 C 20.9375 24.765625 21.089844 24.738281 21.238281 24.714844 C 21.988281 24.609375 22.488281 24.464844 22.878906 24.207031 C 23.253906 23.96875 23.53125 23.582031 23.640625 23.175781 C 23.65625 23.113281 23.671875 23.066406 23.683594 23.066406 C 23.691406 23.066406 23.761719 23.097656 23.828125 23.144531 C 24.269531 23.417969 24.628906 23.515625 24.9375 23.453125 C 25.207031 23.394531 25.46875 23.234375 25.949219 22.816406 C 26.078125 22.707031 26.1875 22.609375 26.199219 22.609375 C 26.207031 22.609375 26.308594 22.828125 26.421875 23.09375 C 26.53125 23.355469 26.640625 23.582031 26.652344 23.597656 C 26.675781 23.628906 26.699219 23.636719 27.109375 23.5625 C 27.339844 23.527344 27.535156 23.480469 27.546875 23.46875 C 27.574219 23.449219 27.480469 23.144531 27.402344 22.953125 C 27.269531 22.644531 27.046875 22.363281 26.777344 22.191406 C 26.609375 22.082031 26.363281 21.96875 25.972656 21.824219 C 25.546875 21.65625 25.328125 21.550781 25.125 21.417969 C 24.921875 21.28125 24.730469 21.105469 24.753906 21.082031 C 24.765625 21.074219 24.832031 21.046875 24.910156 21.019531 C 25.515625 20.8125 25.925781 20.417969 26.199219 19.777344 C 26.308594 19.515625 26.402344 19.175781 26.550781 18.515625 C 26.621094 18.214844 26.707031 17.871094 26.738281 17.753906 C 26.769531 17.640625 26.796875 17.535156 26.792969 17.527344 C 26.792969 17.527344 26.769531 17.53125 26.765625 17.535156 C 26.703125 17.546875 26.359375 17.707031 25.519531 18.125 C 24.828125 18.472656 24.25 18.753906 24.238281 18.753906 C 24.230469 18.75 24.453125 18.550781 24.730469 18.308594 C 25.003906 18.0625 25.253906 17.847656 25.28125 17.828125 C 25.292969 17.8125 25.292969 17.800781 25.296875 17.78125 C 25.308594 17.761719 25.3125 17.722656 25.3125 17.644531 C 25.3125 17.503906 25.308594 17.496094 25.261719 17.472656 C 25.222656 17.457031 25.078125 17.453125 24.910156 17.457031 Z M 24.910156 17.457031 "/>
<path style=" stroke:none;fill-rule:nonzero;fill:rgb(46.666667%,40.392157%,75.294118%);fill-opacity:1;" d="M 31.292969 11.972656 C 31.097656 11.988281 30.925781 12.082031 30.777344 12.265625 C 30.605469 12.472656 30.515625 12.75 30.542969 13 C 30.578125 13.363281 30.6875 13.660156 31.125 14.535156 C 31.371094 15.015625 31.449219 15.207031 31.53125 15.59375 C 31.644531 16.136719 31.691406 16.613281 31.691406 17.246094 C 31.691406 17.824219 31.65625 18.246094 31.5625 18.796875 C 31.484375 19.28125 31.34375 19.863281 31.316406 19.855469 C 31.269531 19.839844 31.21875 19.386719 31.175781 18.730469 C 31.128906 17.953125 31.089844 17.640625 31.019531 17.339844 C 30.84375 16.519531 30.441406 16.175781 29.777344 16.28125 C 29.589844 16.308594 29.292969 16.402344 29.261719 16.433594 C 29.25 16.449219 29.316406 16.6875 29.5 17.21875 C 29.644531 17.636719 29.769531 17.980469 29.769531 17.988281 C 29.769531 18.015625 29.660156 18.050781 29.640625 18.03125 C 29.628906 18.019531 29.519531 17.875 29.40625 17.707031 C 29.167969 17.355469 29.042969 17.183594 28.875 16.984375 C 28.425781 16.453125 27.941406 16.199219 27.441406 16.230469 C 27.253906 16.238281 26.980469 16.300781 26.933594 16.339844 C 26.902344 16.371094 26.90625 16.417969 27.535156 18.691406 L 28.175781 21.019531 L 28.03125 22.449219 C 27.953125 23.234375 27.878906 23.894531 27.871094 23.917969 C 27.859375 23.953125 27.855469 23.957031 27.59375 23.957031 C 27.449219 23.957031 27.15625 23.949219 26.941406 23.933594 C 26.472656 23.902344 25.886719 23.894531 25.6875 23.925781 C 25.484375 23.953125 25.191406 24.027344 24.917969 24.125 C 24.058594 24.417969 23.300781 24.9375 22.671875 25.6875 C 22.09375 26.375 21.605469 27.25 21.121094 28.464844 C 20.972656 28.824219 20.660156 29.691406 20.589844 29.933594 C 20.402344 30.515625 20.300781 31.128906 20.285156 31.800781 C 20.269531 32.402344 20.316406 32.890625 20.4375 33.390625 C 20.582031 33.980469 20.800781 34.433594 21.097656 34.816406 C 21.171875 34.910156 21.25 34.988281 21.332031 35.078125 C 21.339844 35.078125 21.339844 35.082031 21.34375 35.082031 C 21.34375 35.089844 21.347656 35.089844 21.347656 35.09375 C 21.355469 35.09375 21.347656 35.097656 21.347656 35.097656 C 21.734375 35.488281 22.15625 35.714844 22.6875 35.824219 C 23.074219 35.902344 23.738281 35.910156 23.738281 35.839844 C 23.738281 35.828125 23.621094 35.484375 23.480469 35.078125 C 23.339844 34.667969 23.222656 34.328125 23.222656 34.316406 C 23.222656 34.300781 23.292969 34.261719 23.328125 34.261719 C 23.332031 34.261719 23.421875 34.386719 23.519531 34.535156 C 23.921875 35.140625 24.230469 35.488281 24.578125 35.730469 C 24.785156 35.871094 25.0625 35.980469 25.277344 36.011719 C 25.410156 36.03125 25.730469 36.03125 25.859375 36.003906 C 26.019531 35.96875 26.183594 35.917969 26.203125 35.890625 L 25.171875 34.199219 C 25.847656 34.722656 26.734375 35.234375 27.363281 35.410156 C 28.152344 35.628906 28.890625 35.527344 29.453125 35.097656 C 29.628906 34.96875 29.8125 34.785156 29.800781 34.761719 C 29.796875 34.746094 29.144531 34.46875 28.347656 34.140625 C 27.558594 33.8125 26.902344 33.53125 26.902344 33.519531 C 26.890625 33.488281 27.515625 33.527344 28.199219 33.597656 C 28.417969 33.621094 28.769531 33.660156 28.984375 33.683594 C 29.6875 33.761719 29.84375 33.769531 30.328125 33.769531 C 30.839844 33.769531 31.0625 33.75 31.453125 33.667969 C 32.058594 33.542969 32.707031 33.234375 33.238281 32.832031 C 33.453125 32.671875 33.5625 32.574219 33.546875 32.550781 C 33.542969 32.542969 32.6875 32.542969 31.042969 32.550781 C 29.34375 32.558594 28.566406 32.550781 28.542969 32.542969 C 28.535156 32.542969 28.527344 32.542969 28.527344 32.542969 C 28.511719 32.527344 28.691406 32.027344 28.71875 32 C 28.730469 31.996094 28.792969 32.011719 28.859375 32.050781 C 30 32.730469 32.464844 32.558594 34.25 31.667969 C 34.765625 31.410156 35.105469 31.167969 35.4375 30.832031 C 35.839844 30.433594 36.074219 29.988281 36.109375 29.566406 C 36.121094 29.441406 36.113281 29.441406 36.082031 29.441406 C 36.042969 29.441406 35.421875 29.609375 35.089844 29.714844 C 34.964844 29.753906 34.644531 29.855469 34.378906 29.9375 C 32.652344 30.484375 31.925781 30.636719 30.988281 30.652344 C 30.449219 30.660156 29.96875 30.628906 29.984375 30.582031 C 30 30.53125 30.734375 30.28125 31.230469 30.152344 C 31.652344 30.046875 31.875 30 32.859375 29.800781 C 34.316406 29.503906 34.84375 29.371094 35.488281 29.113281 C 36.847656 28.574219 37.621094 27.691406 37.859375 26.40625 C 37.921875 26.074219 37.964844 25.488281 37.921875 25.488281 C 37.910156 25.488281 37.214844 25.878906 36.363281 26.355469 C 35.515625 26.828125 34.8125 27.214844 34.800781 27.207031 C 34.78125 27.191406 34.675781 26.96875 34.691406 26.957031 C 34.699219 26.953125 34.800781 26.894531 34.9375 26.824219 C 35.59375 26.46875 36.089844 26.097656 36.625 25.566406 C 37.628906 24.566406 38.214844 23.410156 38.359375 22.171875 C 38.394531 21.839844 38.386719 21.234375 38.332031 20.925781 C 38.269531 20.566406 38.128906 20.03125 38.082031 20.015625 C 38.074219 20.015625 37.46875 20.890625 36.746094 21.957031 C 35.222656 24.207031 35.140625 24.324219 35.128906 24.3125 C 35.105469 24.285156 35.464844 23.640625 36.074219 22.628906 C 36.339844 22.1875 36.621094 21.714844 36.703125 21.574219 C 36.894531 21.222656 37.171875 20.640625 37.277344 20.371094 C 37.644531 19.410156 37.699219 18.59375 37.4375 17.816406 C 37.363281 17.59375 37.1875 17.222656 37.046875 17.011719 C 36.90625 16.796875 36.699219 16.53125 36.675781 16.535156 C 36.667969 16.542969 36.25 17.527344 35.746094 18.730469 L 34.839844 20.910156 L 33.574219 23.066406 C 32.3125 25.222656 32.253906 25.328125 32.246094 25.316406 C 32.234375 25.308594 32.347656 24.984375 32.46875 24.6875 C 32.761719 23.957031 33.066406 23.375 33.902344 21.941406 C 34.433594 21.027344 34.671875 20.597656 34.890625 20.171875 C 35.558594 18.84375 35.886719 17.769531 35.964844 16.597656 C 35.980469 16.359375 35.980469 16.246094 35.964844 16.09375 C 35.878906 15.28125 35.59375 14.277344 35.292969 13.714844 C 35.113281 13.386719 34.890625 13.125 34.691406 13.027344 C 34.597656 12.980469 34.574219 12.972656 34.425781 12.972656 C 34.277344 12.972656 34.25 12.980469 34.128906 13.03125 C 33.855469 13.160156 33.769531 13.371094 33.769531 13.902344 C 33.769531 14.1875 33.792969 14.40625 33.886719 15.042969 L 33.941406 15.488281 L 33.9375 15.996094 C 33.925781 16.5 33.917969 16.660156 33.863281 17.128906 C 33.75 18.160156 33.472656 19.347656 33.058594 20.609375 C 32.902344 21.082031 32.671875 21.746094 32.644531 21.785156 C 32.589844 21.878906 32.734375 21.199219 33.03125 19.972656 C 33.519531 17.964844 33.640625 17.25 33.660156 16.234375 C 33.671875 15.535156 33.625 15.050781 33.496094 14.484375 C 33.417969 14.144531 33.390625 14.058594 33.277344 13.824219 C 32.953125 13.171875 32.390625 12.480469 31.933594 12.183594 C 31.699219 12.027344 31.484375 11.964844 31.292969 11.972656 Z M 31.292969 11.972656 "/>
<path style=" stroke:none;fill-rule:nonzero;fill:rgb(83.529412%,29.803922%,25.490196%);fill-opacity:1;" d="M 21.921875 22.753906 C 21.207031 22.84375 20.503906 23.015625 19.828125 23.25 C 19.128906 23.511719 18.425781 23.84375 17.910156 24.394531 C 17.875 24.464844 17.675781 24.609375 17.753906 24.644531 C 18.515625 24.4375 19.582031 24.140625 20.308594 23.9375 C 20.503906 23.878906 20.652344 23.839844 20.824219 23.785156 C 21.136719 23.703125 21.449219 23.613281 21.761719 23.519531 L 21.980469 23.453125 C 22.050781 23.371094 22.011719 23.125 22.019531 22.984375 C 22 22.90625 22.0625 22.707031 21.921875 22.753906 Z M 21.921875 22.753906 "/>
<path style=" stroke:none;fill-rule:nonzero;fill:rgb(56.862745%,50.980392%,84.313725%);fill-opacity:1;" d="M 13.097656 22.910156 C 13.082031 22.894531 12.75 22.9375 12.613281 22.972656 C 12.234375 23.066406 12.003906 23.296875 11.871094 23.707031 C 11.84375 23.785156 11.828125 23.855469 11.828125 23.875 C 11.828125 23.917969 11.839844 23.917969 11.988281 23.875 C 12.300781 23.785156 12.546875 23.640625 12.746094 23.4375 C 12.90625 23.265625 13.128906 22.941406 13.097656 22.910156 Z M 13.097656 22.910156 "/>
<path style=" stroke:none;fill-rule:nonzero;fill:rgb(30.980392%,30.980392%,30.980392%);fill-opacity:1;" d="M 14.308594 23.046875 C 14.105469 23.0625 13.839844 23.125 13.671875 23.203125 C 13.199219 23.425781 12.921875 23.839844 12.785156 24.484375 C 12.714844 24.859375 12.699219 25.066406 12.691406 26.074219 C 12.691406 26.597656 12.683594 27.027344 12.675781 27.035156 C 12.671875 27.042969 12.644531 27.027344 12.613281 26.996094 C 12.511719 26.871094 12.371094 26.644531 12.175781 26.261719 C 12.109375 26.121094 12.050781 26.027344 11.988281 25.917969 C 11.957031 25.859375 11.910156 25.753906 11.894531 25.730469 C 11.792969 25.574219 11.597656 25.371094 11.464844 25.28125 C 11.355469 25.207031 11.183594 25.144531 11.074219 25.144531 C 10.746094 25.144531 10.453125 25.449219 10.363281 25.875 C 10.28125 26.285156 10.441406 26.628906 10.785156 26.761719 C 10.84375 26.78125 10.933594 26.792969 11.09375 26.796875 C 11.222656 26.796875 11.339844 26.800781 11.34375 26.8125 C 11.355469 26.816406 11.378906 26.890625 11.40625 26.96875 C 11.480469 27.1875 11.667969 27.550781 11.949219 28.019531 C 12.246094 28.519531 12.433594 28.886719 12.515625 29.105469 C 12.597656 29.34375 13.011719 30.917969 13.0625 31.230469 C 13.109375 31.496094 13.125 31.746094 13.097656 31.871094 C 13.089844 31.925781 13.03125 32.089844 12.980469 32.222656 C 12.824219 32.59375 12.8125 32.730469 12.917969 33.019531 C 13.125 33.605469 13.496094 33.996094 14.027344 34.21875 C 14.160156 34.269531 14.183594 34.277344 14.214844 34.199219 C 14.285156 34.03125 14.378906 33.65625 14.410156 33.402344 C 14.464844 32.980469 14.425781 32.683594 14.207031 31.707031 C 14.105469 31.261719 14.027344 30.714844 14.0625 30.714844 C 14.066406 30.714844 14.136719 30.753906 14.207031 30.8125 C 14.277344 30.875 14.511719 31.0625 14.730469 31.230469 C 15.296875 31.660156 15.371094 31.71875 16.019531 32.359375 C 16.265625 32.605469 16.441406 32.765625 16.59375 32.902344 C 16.894531 33.171875 17.078125 33.285156 17.332031 33.375 C 17.46875 33.421875 17.527344 33.433594 17.640625 33.4375 C 17.925781 33.4375 18.058594 33.316406 18.074219 33.042969 C 18.082031 32.84375 18.019531 32.621094 17.863281 32.300781 C 17.714844 31.988281 17.589844 31.828125 17.347656 31.597656 C 17.074219 31.328125 16.8125 31.140625 15.984375 30.609375 C 15.277344 30.15625 14.964844 29.921875 14.6875 29.644531 C 14.324219 29.28125 14.171875 28.984375 14.15625 28.589844 C 14.140625 28.265625 14.21875 28.0625 14.425781 27.847656 C 14.644531 27.636719 14.878906 27.515625 15.574219 27.277344 C 16.300781 27.019531 16.578125 26.859375 16.699219 26.613281 C 16.738281 26.527344 16.738281 26.5 16.738281 26.355469 C 16.738281 26.21875 16.738281 26.183594 16.707031 26.113281 C 16.546875 25.8125 16.066406 25.628906 15.285156 25.582031 L 15.089844 25.574219 L 14.425781 26.234375 C 14.066406 26.597656 13.765625 26.886719 13.761719 26.878906 C 13.753906 26.875 13.910156 26.027344 14.109375 24.988281 C 14.3125 23.953125 14.480469 23.09375 14.480469 23.074219 C 14.480469 23.046875 14.464844 23.042969 14.308594 23.046875 Z M 14.308594 23.046875 "/>
<path style=" stroke:none;fill-rule:nonzero;fill:rgb(56.862745%,50.980392%,84.313725%);fill-opacity:1;" d="M 15.707031 24.261719 L 15.71875 24.324219 C 15.730469 24.4375 15.792969 24.707031 15.839844 24.84375 C 15.988281 25.265625 16.261719 25.527344 16.699219 25.671875 C 16.800781 25.703125 16.847656 25.707031 16.859375 25.6875 C 16.875 25.65625 16.832031 25.253906 16.800781 25.109375 C 16.699219 24.683594 16.441406 24.421875 16 24.3125 C 15.917969 24.292969 15.816406 24.269531 15.777344 24.269531 Z M 15.707031 24.261719 "/>
<path style=" stroke:none;fill-rule:nonzero;fill:rgb(56.862745%,50.980392%,84.313725%);fill-opacity:1;" d="M 9.730469 26.046875 C 9.714844 26.050781 9.707031 26.074219 9.699219 26.097656 C 9.667969 26.171875 9.621094 26.457031 9.621094 26.574219 C 9.621094 26.863281 9.75 27.105469 10.003906 27.277344 C 10.105469 27.34375 10.121094 27.34375 10.113281 27.300781 C 10.113281 27.230469 9.980469 26.078125 9.96875 26.0625 C 9.964844 26.058594 9.90625 26.046875 9.84375 26.046875 C 9.78125 26.046875 9.75 26.042969 9.730469 26.046875 Z M 9.730469 26.046875 "/>
<path style=" stroke:none;fill-rule:nonzero;fill:rgb(56.862745%,50.980392%,84.313725%);fill-opacity:1;" d="M 18.921875 29.832031 C 18.890625 29.832031 18.738281 29.996094 18.667969 30.105469 C 18.464844 30.402344 18.300781 30.84375 18.207031 31.390625 C 18.175781 31.582031 18.175781 31.675781 18.175781 32.09375 C 18.171875 32.625 18.1875 32.746094 18.285156 33.046875 C 18.394531 33.378906 18.582031 33.605469 18.800781 33.683594 C 18.839844 33.699219 18.902344 33.707031 18.949219 33.707031 C 19.222656 33.714844 19.484375 33.40625 19.597656 32.9375 C 19.703125 32.535156 19.625 32.203125 19.253906 31.425781 C 19.019531 30.925781 18.957031 30.730469 18.921875 30.425781 C 18.90625 30.28125 18.902344 30.140625 18.933594 29.921875 C 18.9375 29.859375 18.933594 29.832031 18.921875 29.832031 Z M 18.921875 29.832031 "/>
<path style=" stroke:none;fill-rule:nonzero;fill:rgb(56.862745%,50.980392%,84.313725%);fill-opacity:1;" d="M 11.980469 33.109375 C 11.957031 33.109375 11.957031 33.15625 12 33.347656 C 12.0625 33.660156 12.175781 33.847656 12.386719 33.957031 C 12.515625 34.027344 12.59375 34.046875 12.785156 34.078125 C 12.859375 34.09375 12.925781 34.105469 12.933594 34.105469 C 12.984375 34.109375 12.941406 33.910156 12.859375 33.730469 C 12.777344 33.558594 12.582031 33.375 12.386719 33.269531 C 12.238281 33.199219 12.015625 33.109375 11.980469 33.109375 Z M 11.980469 33.109375 "/>
<path style=" stroke:none;fill-rule:nonzero;fill:rgb(83.529412%,29.803922%,25.490196%);fill-opacity:1;" d="M 21.199219 20.363281 C 21.199219 20.363281 21.578125 20.097656 21.925781 20.109375 C 22.328125 20.125 22.59375 20.484375 22.59375 20.484375 C 21.703125 21.03125 21.199219 20.363281 21.199219 20.363281 Z M 21.199219 20.363281 "/>
<path style=" stroke:none;fill-rule:nonzero;fill:rgb(0%,0%,0%);fill-opacity:1;" d="M 31.097656 11.980469 C 31.003906 11.984375 30.910156 12.011719 30.828125 12.0625 C 30.910156 12.011719 31.003906 11.984375 31.097656 11.980469 Z M 31.097656 11.980469 "/>
<path style=" stroke:none;fill-rule:nonzero;fill:rgb(0%,0%,0%);fill-opacity:1;" d="M 30.027344 16.285156 C 30.066406 16.296875 30.105469 16.324219 30.144531 16.34375 C 30.105469 16.328125 30.066406 16.296875 30.027344 16.285156 Z M 30.027344 16.285156 "/>
<path style=" stroke:none;fill-rule:nonzero;fill:rgb(0%,0%,0%);fill-opacity:1;" d="M 26.75 16.339844 C 26.730469 16.355469 26.746094 16.453125 26.84375 16.824219 C 26.75 16.457031 26.730469 16.355469 26.75 16.339844 Z M 26.75 16.339844 "/>
<path style=" stroke:none;fill-rule:nonzero;fill:rgb(0%,0%,0%);fill-opacity:1;" d="M 30.324219 16.425781 C 30.378906 16.472656 30.4375 16.527344 30.484375 16.582031 C 30.4375 16.527344 30.386719 16.46875 30.324219 16.425781 Z M 30.324219 16.425781 "/>
<path style=" stroke:none;fill-rule:nonzero;fill:rgb(0%,0%,0%);fill-opacity:1;" d="M 30.550781 16.667969 C 30.667969 16.839844 30.761719 17.058594 30.824219 17.339844 C 30.890625 17.640625 30.925781 17.953125 30.972656 18.730469 C 31.015625 19.386719 31.066406 19.839844 31.113281 19.855469 C 31.113281 19.855469 31.121094 19.816406 31.121094 19.816406 C 31.078125 19.761719 31.03125 19.347656 30.988281 18.730469 C 30.941406 17.953125 30.90625 17.640625 30.839844 17.339844 C 30.777344 17.046875 30.671875 16.839844 30.550781 16.667969 Z M 30.550781 16.667969 "/>
<path style=" stroke:none;fill-rule:nonzero;fill:rgb(0%,0%,0%);fill-opacity:1;" d="M 19.359375 20.019531 C 19.058594 20.003906 18.863281 20.089844 18.644531 20.300781 C 18.863281 20.089844 19.058594 20.003906 19.359375 20.019531 Z M 19.359375 20.019531 "/>
<path style=" stroke:none;fill-rule:nonzero;fill:rgb(0%,0%,0%);fill-opacity:1;" d="M 22.84375 18.5625 C 22.828125 18.621094 22.828125 18.675781 22.828125 18.734375 C 22.828125 18.675781 22.832031 18.621094 22.84375 18.5625 Z M 22.84375 18.5625 "/>
<path style=" stroke:none;fill-rule:nonzero;fill:rgb(0%,0%,0%);fill-opacity:1;" d="M 22.828125 18.78125 C 22.828125 18.855469 22.84375 18.921875 22.863281 18.996094 C 22.84375 18.921875 22.832031 18.855469 22.828125 18.78125 Z M 22.828125 18.78125 "/>
<path style=" stroke:none;fill-rule:nonzero;fill:rgb(0%,0%,0%);fill-opacity:1;" d="M 21.734375 22.792969 C 21.410156 22.839844 21.09375 22.894531 20.777344 22.972656 C 21.09375 22.894531 21.410156 22.839844 21.734375 22.792969 Z M 21.734375 22.792969 "/>
<path style=" stroke:none;fill-rule:nonzero;fill:rgb(0%,0%,0%);fill-opacity:1;" d="M 15.332031 25.589844 C 15.316406 25.589844 15.300781 25.582031 15.285156 25.582031 L 15.269531 25.582031 C 15.292969 25.582031 15.3125 25.589844 15.332031 25.589844 Z M 15.332031 25.589844 "/>
<path style=" stroke:none;fill-rule:nonzero;fill:rgb(0%,0%,0%);fill-opacity:1;" d="M 12.90625 32.964844 C 12.828125 32.71875 12.832031 32.566406 12.980469 32.222656 C 12.832031 32.566406 12.828125 32.71875 12.90625 32.964844 Z M 12.90625 32.964844 "/>
<path style=" stroke:none;fill-rule:nonzero;fill:rgb(0%,0%,0%);fill-opacity:1;" d="M 14.300781 23.050781 C 14.199219 23.058594 14.082031 23.078125 13.972656 23.105469 C 14.082031 23.078125 14.199219 23.058594 14.300781 23.050781 Z M 14.300781 23.050781 "/>
<path style=" stroke:none;fill-rule:nonzero;fill:rgb(0%,0%,0%);fill-opacity:1;" d="M 12.359375 23.066406 C 12.28125 23.109375 12.214844 23.160156 12.152344 23.222656 C 12.214844 23.160156 12.28125 23.109375 12.359375 23.066406 Z M 12.359375 23.066406 "/>
<path style=" stroke:none;fill-rule:nonzero;fill:rgb(0%,0%,0%);fill-opacity:1;" d="M 11.066406 25.144531 C 11.066406 25.144531 11.0625 25.144531 11.0625 25.144531 C 11.175781 25.152344 11.339844 25.207031 11.453125 25.28125 C 11.582031 25.371094 11.777344 25.574219 11.878906 25.730469 C 11.894531 25.753906 11.941406 25.859375 11.972656 25.917969 C 12.03125 26.027344 12.089844 26.121094 12.160156 26.261719 C 12.355469 26.644531 12.496094 26.871094 12.597656 26.988281 C 12.628906 27.027344 12.65625 27.042969 12.660156 27.035156 C 12.660156 27.035156 12.660156 27.027344 12.660156 27.027344 C 12.652344 27.019531 12.636719 27.015625 12.613281 26.988281 C 12.511719 26.871094 12.371094 26.644531 12.175781 26.261719 C 12.109375 26.121094 12.046875 26.027344 11.988281 25.917969 C 11.957031 25.859375 11.910156 25.753906 11.894531 25.730469 C 11.792969 25.574219 11.597656 25.371094 11.46875 25.28125 C 11.355469 25.207031 11.183594 25.144531 11.066406 25.144531 Z M 11.066406 25.144531 "/>
<path style=" stroke:none;fill-rule:nonzero;fill:rgb(0%,0%,0%);fill-opacity:1;" d="M 11.0625 25.144531 C 10.980469 25.152344 10.902344 25.167969 10.828125 25.203125 C 10.902344 25.167969 10.980469 25.152344 11.0625 25.144531 Z M 11.0625 25.144531 "/>
<path style=" stroke:none;fill-rule:nonzero;fill:rgb(0%,0%,0%);fill-opacity:1;" d="M 10.808594 25.222656 C 10.738281 25.253906 10.675781 25.296875 10.625 25.355469 C 10.675781 25.296875 10.738281 25.253906 10.808594 25.222656 Z M 10.808594 25.222656 "/>
<path style=" stroke:none;fill-rule:nonzero;fill:rgb(0%,0%,0%);fill-opacity:1;" d="M 10.355469 26.113281 C 10.355469 26.1875 10.371094 26.25 10.390625 26.316406 C 10.371094 26.253906 10.359375 26.1875 10.355469 26.113281 Z M 10.355469 26.113281 "/>
<path style=" stroke:none;fill-rule:nonzero;fill:rgb(0%,0%,0%);fill-opacity:1;" d="M 14.296875 29.140625 C 14.339844 29.222656 14.394531 29.300781 14.453125 29.378906 C 14.390625 29.300781 14.339844 29.222656 14.296875 29.140625 Z M 14.296875 29.140625 "/>
</g>
</svg>
