<?xml version="1.0" encoding="UTF-8"?>
<svg xmlns="http://www.w3.org/2000/svg" xmlns:xlink="http://www.w3.org/1999/xlink" width="48pt" height="48pt" viewBox="0 0 48 48" version="1.1">
<g id="surface1">
<path style=" stroke:none;fill-rule:evenodd;fill:rgb(8.235294%,25.882353%,46.666667%);fill-opacity:1;" d="M 11.207031 2.847656 L 36.792969 2.847656 C 41.40625 2.847656 45.152344 6.59375 45.152344 11.207031 L 45.152344 36.792969 C 45.152344 41.40625 41.40625 45.152344 36.792969 45.152344 L 11.207031 45.152344 C 6.59375 45.152344 2.847656 41.40625 2.847656 36.792969 L 2.847656 11.207031 C 2.847656 6.59375 6.59375 2.847656 11.207031 2.847656 Z M 11.207031 2.847656 "/>
<path style=" stroke:none;fill-rule:nonzero;fill:rgb(96.078431%,79.215686%,29.019608%);fill-opacity:1;" d="M 30 24 C 30 27.3125 27.3125 30 24 30 C 20.6875 30 18 27.3125 18 24 C 18 20.6875 20.6875 18 24 18 C 27.3125 18 30 20.6875 30 24 Z M 30 24 "/>
<path style=" stroke:none;fill-rule:nonzero;fill:rgb(32.156863%,52.54902%,99.607843%);fill-opacity:1;" d="M 36.386719 7.046875 L 33.363281 12.28125 L 31.066406 16.253906 C 33.25 18.238281 34.496094 21.050781 34.5 24 C 34.5 25.078125 34.332031 26.152344 34.003906 27.175781 L 37.964844 29.46875 C 38.652344 27.722656 39 25.871094 39 24 C 38.996094 21.078125 38.140625 18.222656 36.535156 15.785156 L 39.785156 10.15625 C 38.769531 8.996094 37.636719 7.957031 36.386719 7.046875 Z M 10.15625 8.214844 C 8.996094 9.230469 7.957031 10.363281 7.046875 11.613281 L 12.28125 14.636719 L 16.253906 16.933594 C 18.238281 14.75 21.050781 13.503906 24 13.5 C 25.078125 13.5 26.152344 13.667969 27.175781 13.996094 L 29.46875 10.035156 C 27.722656 9.347656 25.871094 9 24 9 C 21.078125 9.003906 18.222656 9.859375 15.785156 11.464844 Z M 10.035156 18.53125 C 9.347656 20.277344 9 22.128906 9 24 C 9.003906 26.921875 9.859375 29.777344 11.464844 32.214844 L 8.214844 37.84375 C 9.230469 39.003906 10.363281 40.042969 11.613281 40.953125 L 14.636719 35.71875 L 16.933594 31.746094 C 14.75 29.761719 13.503906 26.949219 13.5 24 C 13.5 22.921875 13.667969 21.847656 13.996094 20.824219 Z M 31.746094 31.066406 C 29.761719 33.25 26.949219 34.496094 24 34.5 C 22.921875 34.5 21.847656 34.332031 20.824219 34.003906 L 18.53125 37.964844 C 20.277344 38.652344 22.128906 39 24 39 C 26.921875 38.996094 29.777344 38.140625 32.214844 36.535156 L 37.84375 39.785156 C 39.003906 38.769531 40.042969 37.636719 40.953125 36.386719 L 35.71875 33.363281 Z M 31.746094 31.066406 "/>
</g>
</svg>
