<?xml version="1.0" encoding="UTF-8"?>
<svg xmlns="http://www.w3.org/2000/svg" xmlns:xlink="http://www.w3.org/1999/xlink" width="48pt" height="48pt" viewBox="0 0 48 48" version="1.1">
<g id="surface1">
<path style=" stroke:none;fill-rule:evenodd;fill:rgb(86.27451%,86.27451%,74.509804%);fill-opacity:1;" d="M 11.207031 2.847656 L 36.792969 2.847656 C 41.40625 2.847656 45.152344 6.59375 45.152344 11.207031 L 45.152344 36.792969 C 45.152344 41.40625 41.40625 45.152344 36.792969 45.152344 L 11.207031 45.152344 C 6.59375 45.152344 2.847656 41.40625 2.847656 36.792969 L 2.847656 11.207031 C 2.847656 6.59375 6.59375 2.847656 11.207031 2.847656 Z M 11.207031 2.847656 "/>
<path style=" stroke:none;fill-rule:nonzero;fill:rgb(23.529412%,47.45098%,90.588235%);fill-opacity:1;" d="M 12.015625 8.019531 C 9.8125 8.019531 8.019531 9.8125 8.019531 12.015625 C 8.019531 14.222656 9.8125 16.011719 12.015625 16.011719 C 14.222656 16.011719 16.011719 14.222656 16.011719 12.015625 C 16.011719 9.8125 14.222656 8.019531 12.015625 8.019531 Z M 12.015625 10.019531 C 13.121094 10.019531 14.015625 10.910156 14.015625 12.015625 C 14.015625 13.121094 13.121094 14.015625 12.015625 14.015625 C 10.910156 14.015625 10.019531 13.121094 10.019531 12.015625 C 10.019531 10.910156 10.910156 10.019531 12.015625 10.019531 Z M 12.015625 10.019531 "/>
<path style=" stroke:none;fill-rule:nonzero;fill:rgb(50.196078%,50.196078%,50.196078%);fill-opacity:1;" d="M 18.011719 6.027344 L 18.011719 18.011719 L 6.027344 18.011719 L 6.027344 20.003906 L 18.011719 20.003906 L 18.011719 27.996094 L 6.027344 27.996094 L 6.027344 29.988281 L 18.011719 29.988281 L 18.011719 41.972656 L 20.003906 41.972656 L 20.003906 29.988281 L 27.996094 29.988281 L 27.996094 41.972656 L 29.988281 41.972656 L 29.988281 29.988281 L 41.972656 29.988281 L 41.972656 27.996094 L 29.988281 27.996094 L 29.988281 20.003906 L 41.972656 20.003906 L 41.972656 18.011719 L 29.988281 18.011719 L 29.988281 6.027344 L 27.996094 6.027344 L 27.996094 18.011719 L 20.003906 18.011719 L 20.003906 6.027344 Z M 20.003906 20.003906 L 27.996094 20.003906 L 27.996094 27.996094 L 20.003906 27.996094 Z M 20.003906 20.003906 "/>
<path style=" stroke:none;fill-rule:nonzero;fill:rgb(23.529412%,47.45098%,90.588235%);fill-opacity:1;" d="M 35.984375 31.988281 C 33.777344 31.988281 31.988281 33.777344 31.988281 35.984375 C 31.988281 38.1875 33.777344 39.980469 35.984375 39.980469 C 38.1875 39.980469 39.980469 38.1875 39.980469 35.984375 C 39.980469 33.777344 38.1875 31.988281 35.984375 31.988281 Z M 35.984375 33.984375 C 37.089844 33.984375 37.980469 34.878906 37.980469 35.984375 C 37.980469 37.089844 37.089844 37.980469 35.984375 37.980469 C 34.878906 37.980469 33.984375 37.089844 33.984375 35.984375 C 33.984375 34.878906 34.878906 33.984375 35.984375 33.984375 Z M 35.984375 33.984375 "/>
<path style=" stroke:none;fill-rule:nonzero;fill:rgb(90.588235%,29.803922%,23.529412%);fill-opacity:1;" d="M 26.121094 20.46875 L 24 22.589844 L 21.878906 20.46875 L 20.46875 21.878906 L 22.589844 24 L 20.46875 26.121094 L 21.878906 27.53125 L 24 25.410156 L 26.121094 27.53125 L 27.53125 26.121094 L 25.410156 24 L 27.53125 21.878906 Z M 26.121094 20.46875 "/>
</g>
</svg>
