<?xml version="1.0" encoding="UTF-8"?>
<svg xmlns="http://www.w3.org/2000/svg" xmlns:xlink="http://www.w3.org/1999/xlink" width="48pt" height="48pt" viewBox="0 0 48 48" version="1.1">
<g id="surface1">
<path style=" stroke:none;fill-rule:evenodd;fill:rgb(25.490196%,64.705882%,78.039216%);fill-opacity:1;" d="M 11.207031 2.847656 L 36.792969 2.847656 C 41.40625 2.847656 45.152344 6.59375 45.152344 11.207031 L 45.152344 36.792969 C 45.152344 41.40625 41.40625 45.152344 36.792969 45.152344 L 11.207031 45.152344 C 6.59375 45.152344 2.847656 41.40625 2.847656 36.792969 L 2.847656 11.207031 C 2.847656 6.59375 6.59375 2.847656 11.207031 2.847656 Z M 11.207031 2.847656 "/>
<path style=" stroke:none;fill-rule:nonzero;fill:rgb(100%,100%,100%);fill-opacity:1;" d="M 24.417969 17.21875 C 20.894531 17.21875 18.035156 20.074219 18.035156 23.59375 C 18.035156 27.121094 20.894531 29.972656 24.417969 29.972656 C 27.9375 29.972656 30.792969 27.121094 30.792969 23.59375 C 30.792969 20.074219 27.9375 17.21875 24.417969 17.21875 Z M 24.417969 19.769531 C 26.53125 19.769531 28.246094 21.484375 28.246094 23.59375 C 28.246094 25.707031 26.53125 27.421875 24.417969 27.421875 C 22.300781 27.421875 20.589844 25.707031 20.589844 23.59375 C 20.589844 21.484375 22.300781 19.769531 24.417969 19.769531 Z M 24.417969 19.769531 "/>
<path style=" stroke:none;fill-rule:nonzero;fill:rgb(100%,100%,100%);fill-opacity:1;" d="M 9.109375 22.316406 C 8.402344 22.316406 7.832031 22.890625 7.832031 23.59375 C 7.746094 26.957031 7.953125 30.511719 7.832031 33.800781 C 7.832031 37.324219 10.6875 40.175781 14.214844 40.175781 C 17.734375 40.175781 20.589844 37.324219 20.589844 33.800781 C 20.589844 30.277344 17.734375 27.421875 14.214844 27.421875 C 12.832031 27.425781 11.488281 27.875 10.386719 28.707031 L 10.386719 23.59375 C 10.386719 22.890625 9.816406 22.316406 9.109375 22.316406 Z M 14.214844 29.972656 C 16.324219 29.972656 18.035156 31.6875 18.035156 33.800781 C 18.035156 35.910156 16.324219 37.625 14.214844 37.625 C 12.097656 37.625 10.386719 35.910156 10.386719 33.800781 C 10.386719 31.6875 12.097656 29.972656 14.214844 29.972656 Z M 14.214844 29.972656 "/>
<path style=" stroke:none;fill-rule:nonzero;fill:rgb(100%,100%,100%);fill-opacity:1;" d="M 30.792969 7.824219 C 30.46875 7.824219 30.140625 7.949219 29.890625 8.199219 C 29.390625 8.699219 29.390625 9.5 29.890625 10 L 33.046875 13.15625 L 29.890625 16.3125 C 29.390625 16.8125 29.390625 17.621094 29.890625 18.121094 C 30.390625 18.621094 31.199219 18.621094 31.699219 18.121094 L 34.855469 14.964844 L 38.011719 18.121094 C 38.511719 18.621094 39.3125 18.621094 39.8125 18.121094 C 40.3125 17.621094 40.3125 16.8125 39.8125 16.3125 L 36.65625 13.15625 L 39.8125 10 C 40.3125 9.5 40.3125 8.699219 39.8125 8.199219 C 39.3125 7.699219 38.511719 7.699219 38.011719 8.199219 L 34.855469 11.355469 L 31.699219 8.199219 C 31.449219 7.949219 31.121094 7.824219 30.792969 7.824219 Z M 30.792969 7.824219 "/>
</g>
</svg>
