<?xml version="1.0" encoding="UTF-8"?>
<svg xmlns="http://www.w3.org/2000/svg" xmlns:xlink="http://www.w3.org/1999/xlink" width="48pt" height="48pt" viewBox="0 0 48 48" version="1.1">
<g id="surface1">
<path style=" stroke:none;fill-rule:evenodd;fill:rgb(16.078431%,66.666667%,88.627451%);fill-opacity:1;" d="M 11.207031 2.847656 L 36.792969 2.847656 C 41.40625 2.847656 45.152344 6.59375 45.152344 11.207031 L 45.152344 36.792969 C 45.152344 41.40625 41.40625 45.152344 36.792969 45.152344 L 11.207031 45.152344 C 6.59375 45.152344 2.847656 41.40625 2.847656 36.792969 L 2.847656 11.207031 C 2.847656 6.59375 6.59375 2.847656 11.207031 2.847656 Z M 11.207031 2.847656 "/>
<path style=" stroke:none;fill-rule:nonzero;fill:rgb(100%,100%,100%);fill-opacity:1;" d="M 9.75 7.5 L 38.25 7.5 C 39.496094 7.5 40.5 8.503906 40.5 9.75 L 40.5 38.25 C 40.5 39.496094 39.496094 40.5 38.25 40.5 L 9.75 40.5 C 8.503906 40.5 7.5 39.496094 7.5 38.25 L 7.5 9.75 C 7.5 8.503906 8.503906 7.5 9.75 7.5 Z M 9.75 7.5 "/>
<path style=" stroke:none;fill-rule:nonzero;fill:rgb(25.882353%,25.882353%,25.882353%);fill-opacity:1;" d="M 12.738281 12.738281 L 12.738281 35.261719 L 22.75 35.261719 L 22.75 30.253906 L 17.746094 30.253906 L 17.746094 17.746094 L 22.75 17.746094 L 22.75 12.738281 Z M 25.25 12.738281 L 25.25 17.746094 L 30.253906 17.746094 L 30.253906 30.253906 L 25.25 30.253906 L 25.25 35.261719 L 35.261719 35.261719 L 35.261719 12.738281 Z M 25.25 12.738281 "/>
</g>
</svg>
