<?xml version="1.0" encoding="UTF-8"?>
<svg xmlns="http://www.w3.org/2000/svg" xmlns:xlink="http://www.w3.org/1999/xlink" width="48pt" height="48pt" viewBox="0 0 48 48" version="1.1">
<g id="surface1">
<path style=" stroke:none;fill-rule:evenodd;fill:rgb(32.941176%,61.960784%,98.823529%);fill-opacity:1;" d="M 11.207031 2.847656 L 36.792969 2.847656 C 41.40625 2.847656 45.152344 6.59375 45.152344 11.207031 L 45.152344 36.792969 C 45.152344 41.40625 41.40625 45.152344 36.792969 45.152344 L 11.207031 45.152344 C 6.59375 45.152344 2.847656 41.40625 2.847656 36.792969 L 2.847656 11.207031 C 2.847656 6.59375 6.59375 2.847656 11.207031 2.847656 Z M 11.207031 2.847656 "/>
<path style=" stroke:none;fill-rule:nonzero;fill:rgb(100%,100%,100%);fill-opacity:1;" d="M 22.394531 17.746094 L 9.953125 36.265625 L 17.589844 36.265625 L 30.003906 17.433594 L 25.324219 11.53125 L 17.386719 11.53125 Z M 22.394531 17.746094 "/>
<path style=" stroke:none;fill-rule:nonzero;fill:rgb(98.823529%,100%,100%);fill-opacity:1;" d="M 26.441406 25.027344 L 33.566406 24.96875 L 38.046875 30.667969 L 33.671875 36.46875 L 26.238281 36.46875 L 30.824219 30.363281 Z M 26.441406 25.027344 "/>
</g>
</svg>
