<?xml version="1.0" encoding="UTF-8"?>
<svg xmlns="http://www.w3.org/2000/svg" xmlns:xlink="http://www.w3.org/1999/xlink" width="48pt" height="48pt" viewBox="0 0 48 48" version="1.1">
<g id="surface1">
<path style=" stroke:none;fill-rule:evenodd;fill:rgb(93.333333%,46.666667%,21.568627%);fill-opacity:1;" d="M 11.207031 2.847656 L 36.792969 2.847656 C 41.40625 2.847656 45.152344 6.59375 45.152344 11.207031 L 45.152344 36.792969 C 45.152344 41.40625 41.40625 45.152344 36.792969 45.152344 L 11.207031 45.152344 C 6.59375 45.152344 2.847656 41.40625 2.847656 36.792969 L 2.847656 11.207031 C 2.847656 6.59375 6.59375 2.847656 11.207031 2.847656 Z M 11.207031 2.847656 "/>
<path style=" stroke:none;fill-rule:nonzero;fill:rgb(100%,100%,100%);fill-opacity:1;" d="M 20.878906 8.75 C 20.550781 8.78125 20.269531 9.046875 20.207031 9.371094 L 19.566406 12.628906 C 18.410156 13.082031 17.328125 13.703125 16.375 14.46875 L 13.203125 13.394531 C 12.875 13.28125 12.472656 13.425781 12.296875 13.730469 L 9.25 19.019531 C 9.078125 19.324219 9.152344 19.746094 9.417969 19.972656 L 11.941406 22.1875 C 11.855469 22.78125 11.796875 23.378906 11.796875 24 C 11.796875 24.621094 11.855469 25.21875 11.941406 25.8125 L 9.417969 28.027344 C 9.152344 28.253906 9.078125 28.675781 9.25 28.980469 L 12.296875 34.269531 C 12.472656 34.574219 12.875 34.71875 13.203125 34.605469 L 16.375 33.53125 C 17.328125 34.296875 18.410156 34.917969 19.566406 35.371094 L 20.207031 38.636719 C 20.277344 38.972656 20.597656 39.25 20.949219 39.253906 L 27.050781 39.253906 C 27.402344 39.25 27.722656 38.972656 27.792969 38.636719 L 28.433594 35.371094 C 29.589844 34.917969 30.671875 34.296875 31.625 33.53125 L 34.796875 34.605469 C 35.125 34.71875 35.527344 34.574219 35.703125 34.269531 L 38.75 28.980469 C 38.921875 28.675781 38.847656 28.253906 38.582031 28.027344 L 36.058594 25.8125 C 36.144531 25.21875 36.203125 24.621094 36.203125 24 C 36.203125 23.378906 36.144531 22.78125 36.058594 22.1875 L 38.582031 19.972656 C 38.847656 19.746094 38.921875 19.324219 38.75 19.019531 L 35.703125 13.730469 C 35.527344 13.425781 35.125 13.28125 34.796875 13.394531 L 31.625 14.46875 C 30.671875 13.703125 29.589844 13.082031 28.433594 12.628906 L 27.792969 9.363281 C 27.722656 9.027344 27.394531 8.75 27.050781 8.746094 L 20.949219 8.746094 C 20.925781 8.746094 20.902344 8.746094 20.878906 8.746094 Z M 20.878906 8.75 "/>
<path style=" stroke:none;fill-rule:nonzero;fill:rgb(93.333333%,46.666667%,21.568627%);fill-opacity:1;" d="M 24 17.464844 C 27.609375 17.464844 30.535156 20.390625 30.535156 24 C 30.535156 27.609375 27.609375 30.535156 24 30.535156 C 20.390625 30.535156 17.464844 27.609375 17.464844 24 C 17.464844 20.390625 20.390625 17.464844 24 17.464844 Z M 24 17.464844 "/>
<path style=" stroke:none;fill-rule:nonzero;fill:rgb(60%,60%,60%);fill-opacity:1;" d="M 24 14.191406 C 18.59375 14.191406 14.191406 18.59375 14.191406 24 C 14.191406 29.40625 18.59375 33.808594 24 33.808594 C 29.410156 33.808594 33.808594 29.40625 33.808594 24 C 33.808594 18.59375 29.410156 14.191406 24 14.191406 Z M 24 15.347656 C 28.785156 15.347656 32.652344 19.214844 32.652344 24 C 32.652344 28.785156 28.785156 32.652344 24 32.652344 C 19.214844 32.652344 15.347656 28.785156 15.347656 24 C 15.347656 19.214844 19.214844 15.347656 24 15.347656 Z M 24 15.347656 "/>
<path style=" stroke:none;fill-rule:nonzero;fill:rgb(100%,93.333333%,34.117647%);fill-opacity:1;" d="M 22.996094 14.246094 C 18.058594 14.75 14.191406 18.933594 14.191406 24 C 14.191406 29.40625 18.59375 33.808594 24 33.808594 C 24.8125 33.808594 25.59375 33.699219 26.347656 33.511719 C 26.421875 33.347656 26.542969 33.074219 26.488281 32.859375 C 26.441406 32.660156 26.277344 32.488281 26.09375 32.386719 C 25.425781 32.550781 24.722656 32.652344 24 32.652344 C 19.214844 32.652344 15.347656 28.785156 15.347656 24 C 15.347656 19.4375 18.863281 15.71875 23.339844 15.378906 C 23.515625 15.191406 23.578125 14.996094 23.546875 14.730469 C 23.515625 14.457031 23.308594 14.3125 22.996094 14.246094 Z M 22.996094 14.246094 "/>
</g>
</svg>
