<?xml version="1.0" encoding="UTF-8"?>
<svg xmlns="http://www.w3.org/2000/svg" xmlns:xlink="http://www.w3.org/1999/xlink" width="48pt" height="48pt" viewBox="0 0 48 48" version="1.1">
<g id="surface1">
<path style=" stroke:none;fill-rule:evenodd;fill:rgb(65.490196%,82.352941%,52.156863%);fill-opacity:1;" d="M 11.207031 2.847656 L 36.792969 2.847656 C 41.40625 2.847656 45.152344 6.59375 45.152344 11.207031 L 45.152344 36.792969 C 45.152344 41.40625 41.40625 45.152344 36.792969 45.152344 L 11.207031 45.152344 C 6.59375 45.152344 2.847656 41.40625 2.847656 36.792969 L 2.847656 11.207031 C 2.847656 6.59375 6.59375 2.847656 11.207031 2.847656 Z M 11.207031 2.847656 "/>
<path style=" stroke:none;fill-rule:nonzero;fill:rgb(100%,100%,100%);fill-opacity:1;" d="M 13.753906 16.949219 C 13.753906 17.984375 13.78125 19.160156 13.832031 20.082031 L 11.558594 20.082031 C 10.34375 20.082031 9.363281 21.058594 9.363281 22.277344 L 9.363281 31.527344 C 9.363281 32.746094 10.34375 33.671875 11.558594 33.671875 L 16.160156 33.671875 C 17.1875 33.671875 17.730469 32.625 17.730469 32.625 C 20.222656 34.714844 23.859375 34.714844 26.5625 34.714844 C 32.046875 34.714844 38.636719 34.503906 38.636719 16.941406 Z M 12.808594 22.171875 L 13.902344 22.171875 C 14.332031 26.503906 15.296875 29.4375 16.566406 31.410156 C 16.386719 31.515625 16.175781 31.578125 15.957031 31.578125 L 12.808594 31.578125 C 12.058594 31.578125 11.453125 30.878906 11.453125 30.011719 L 11.453125 23.738281 C 11.453125 22.871094 12.058594 22.171875 12.808594 22.171875 Z M 12.808594 22.171875 "/>
</g>
</svg>
