<?xml version="1.0" encoding="UTF-8"?>
<svg xmlns="http://www.w3.org/2000/svg" xmlns:xlink="http://www.w3.org/1999/xlink" width="48pt" height="48pt" viewBox="0 0 48 48" version="1.1">
<g id="surface1">
<path style=" stroke:none;fill-rule:evenodd;fill:rgb(55.686275%,55.686275%,55.686275%);fill-opacity:1;" d="M 45.15625 18.714844 L 2.84375 18.714844 L 2.84375 36.785156 C 2.84375 41.421875 6.578125 45.152344 11.207031 45.152344 L 36.792969 45.152344 C 41.421875 45.152344 45.15625 41.421875 45.15625 36.785156 Z M 45.15625 18.714844 "/>
<path style=" stroke:none;fill-rule:evenodd;fill:rgb(100%,80.392157%,32.941176%);fill-opacity:1;" d="M 45.15625 13.503906 L 2.84375 13.503906 L 2.84375 18.714844 L 45.15625 18.714844 Z M 45.15625 13.503906 "/>
<path style=" stroke:none;fill-rule:evenodd;fill:rgb(53.72549%,87.843137%,34.509804%);fill-opacity:1;" d="M 44.582031 8.371094 L 3.417969 8.371094 C 3.09375 9.261719 2.84375 10.199219 2.84375 11.207031 L 2.84375 13.503906 L 45.15625 13.503906 L 45.15625 11.207031 C 45.15625 10.199219 44.90625 9.261719 44.582031 8.371094 Z M 44.582031 8.371094 "/>
<path style=" stroke:none;fill-rule:evenodd;fill:rgb(34.509804%,58.431373%,86.27451%);fill-opacity:1;" d="M 11.207031 2.847656 C 7.589844 2.847656 4.582031 5.15625 3.417969 8.371094 L 44.582031 8.371094 C 43.417969 5.15625 40.410156 2.847656 36.792969 2.847656 Z M 11.207031 2.847656 "/>
<path style=" stroke:none;fill-rule:nonzero;fill:rgb(92.54902%,92.54902%,92.54902%);fill-opacity:1;" d="M 18 28.652344 L 30 28.652344 C 30.828125 28.652344 31.5 29.324219 31.5 30.152344 L 31.5 31.652344 C 31.5 32.480469 30.828125 33.152344 30 33.152344 L 18 33.152344 C 17.171875 33.152344 16.5 32.480469 16.5 31.652344 L 16.5 30.152344 C 16.5 29.324219 17.171875 28.652344 18 28.652344 Z M 18 28.652344 "/>
<path style=" stroke:none;fill-rule:nonzero;fill:rgb(43.137255%,75.686275%,28.627451%);fill-opacity:1;" d="M 42.515625 35.082031 C 42.515625 39.222656 39.15625 42.582031 35.015625 42.582031 C 30.871094 42.582031 27.515625 39.222656 27.515625 35.082031 C 27.515625 30.9375 30.871094 27.582031 35.015625 27.582031 C 39.15625 27.582031 42.515625 30.9375 42.515625 35.082031 Z M 42.515625 35.082031 "/>
<path style=" stroke:none;fill-rule:nonzero;fill:rgb(100%,100%,100%);fill-opacity:1;" d="M 34.078125 31.332031 L 33.996094 32.316406 C 33.683594 32.433594 33.390625 32.605469 33.128906 32.816406 L 32.234375 32.394531 L 31.296875 34.015625 L 32.109375 34.582031 C 32.082031 34.75 32.066406 34.917969 32.066406 35.082031 C 32.066406 35.25 32.082031 35.417969 32.109375 35.578125 L 31.296875 36.144531 L 32.234375 37.765625 L 33.128906 37.34375 C 33.386719 37.558594 33.675781 37.722656 33.996094 37.839844 L 34.078125 38.828125 L 35.953125 38.828125 L 36.03125 37.84375 C 36.347656 37.730469 36.636719 37.558594 36.894531 37.34375 L 37.792969 37.765625 L 38.730469 36.144531 L 37.917969 35.578125 C 37.941406 35.410156 37.957031 35.246094 37.957031 35.078125 C 37.957031 34.910156 37.941406 34.746094 37.917969 34.582031 L 38.730469 34.015625 L 37.792969 32.394531 L 36.894531 32.816406 C 36.640625 32.605469 36.347656 32.4375 36.03125 32.324219 L 35.953125 31.328125 L 34.078125 31.328125 Z M 35.015625 34.011719 C 35.605469 34.011719 36.082031 34.488281 36.082031 35.082031 C 36.082031 35.671875 35.605469 36.152344 35.015625 36.152344 C 34.421875 36.152344 33.941406 35.671875 33.941406 35.082031 C 33.941406 34.488281 34.421875 34.011719 35.015625 34.011719 Z M 35.015625 34.011719 "/>
</g>
</svg>
