<?xml version="1.0" encoding="UTF-8"?>
<svg xmlns="http://www.w3.org/2000/svg" xmlns:xlink="http://www.w3.org/1999/xlink" width="48pt" height="48pt" viewBox="0 0 48 48" version="1.1">
<g id="surface1">
<path style=" stroke:none;fill-rule:evenodd;fill:rgb(0%,58.431373%,52.941176%);fill-opacity:1;" d="M 13.625 45.15625 L 36.785156 45.15625 C 41.421875 45.15625 45.152344 41.425781 45.152344 36.792969 L 45.152344 11.214844 C 45.152344 6.578125 41.421875 2.847656 36.785156 2.847656 L 13.625 2.847656 Z M 13.625 45.15625 "/>
<path style=" stroke:none;fill-rule:evenodd;fill:rgb(0%,46.666667%,42.352941%);fill-opacity:1;" d="M 13.625 45.15625 L 13.625 2.847656 L 11.207031 2.847656 C 6.578125 2.847656 2.847656 6.578125 2.847656 11.214844 L 2.847656 36.792969 C 2.847656 41.425781 6.578125 45.15625 11.207031 45.15625 Z M 13.625 45.15625 "/>
<path style=" stroke:none;fill-rule:nonzero;fill:rgb(84.705882%,84.705882%,84.705882%);fill-opacity:1;" d="M 29.800781 2.84375 L 29.800781 23.84375 L 32.800781 20.84375 L 35.800781 23.84375 L 35.800781 2.84375 Z M 29.800781 2.84375 "/>
<path style=" stroke:none;fill-rule:evenodd;fill:rgb(75.294118%,21.176471%,18.823529%);fill-opacity:1;" d="M 41.644531 34.121094 C 41.644531 38.261719 38.285156 41.621094 34.144531 41.621094 C 30 41.621094 26.644531 38.261719 26.644531 34.121094 C 26.644531 29.972656 30 26.621094 34.144531 26.621094 C 38.285156 26.621094 41.644531 29.972656 41.644531 34.121094 Z M 41.644531 34.121094 "/>
<path style=" stroke:none;fill-rule:evenodd;fill:rgb(100%,100%,100%);fill-opacity:1;" d="M 34.144531 31.074219 C 33.234375 31.078125 32.324219 31.285156 31.53125 31.734375 C 31.214844 31.941406 30.832031 32.207031 30.550781 32.472656 C 30.097656 32.917969 29.714844 33.425781 29.457031 34 C 30.167969 35.574219 31.734375 36.722656 33.453125 36.894531 C 34.582031 37.019531 35.765625 36.828125 36.761719 36.265625 C 37.074219 36.0625 37.453125 35.796875 37.738281 35.53125 C 38.1875 35.089844 38.574219 34.578125 38.832031 34 C 38.121094 32.433594 36.550781 31.28125 34.832031 31.109375 C 34.605469 31.082031 34.375 31.074219 34.144531 31.074219 Z M 34.144531 32.246094 C 35.082031 32.222656 35.921875 33.066406 35.902344 34 C 35.933594 35.035156 34.902344 35.933594 33.878906 35.738281 C 32.847656 35.613281 32.125 34.464844 32.46875 33.484375 C 32.683594 32.761719 33.390625 32.234375 34.144531 32.246094 Z M 34.144531 33.417969 C 33.988281 33.417969 33.839844 33.480469 33.730469 33.589844 C 33.621094 33.699219 33.558594 33.847656 33.558594 34.003906 C 33.558594 34.328125 33.824219 34.589844 34.144531 34.589844 C 34.46875 34.589844 34.730469 34.328125 34.730469 34.003906 C 34.730469 33.675781 34.46875 33.417969 34.144531 33.417969 Z M 34.144531 33.417969 "/>
</g>
</svg>
