<?xml version="1.0" encoding="UTF-8"?>
<svg xmlns="http://www.w3.org/2000/svg" xmlns:xlink="http://www.w3.org/1999/xlink" width="48pt" height="48pt" viewBox="0 0 48 48" version="1.1">
<g id="surface1">
<path style=" stroke:none;fill-rule:evenodd;fill:rgb(0%,58.431373%,52.941176%);fill-opacity:1;" d="M 13.625 45.15625 L 36.785156 45.15625 C 41.421875 45.15625 45.152344 41.425781 45.152344 36.792969 L 45.152344 11.214844 C 45.152344 6.578125 41.421875 2.847656 36.785156 2.847656 L 13.625 2.847656 Z M 13.625 45.15625 "/>
<path style=" stroke:none;fill-rule:evenodd;fill:rgb(0%,46.666667%,42.352941%);fill-opacity:1;" d="M 13.625 45.15625 L 13.625 2.847656 L 11.207031 2.847656 C 6.578125 2.847656 2.847656 6.578125 2.847656 11.214844 L 2.847656 36.792969 C 2.847656 41.425781 6.578125 45.15625 11.207031 45.15625 Z M 13.625 45.15625 "/>
<path style=" stroke:none;fill-rule:evenodd;fill:rgb(100%,100%,100%);fill-opacity:1;" d="M 30.078125 19.046875 C 28.339844 19.0625 26.59375 19.457031 25.078125 20.316406 C 24.472656 20.707031 23.75 21.21875 23.207031 21.730469 C 22.347656 22.566406 21.613281 23.546875 21.121094 24.644531 C 22.480469 27.652344 25.46875 29.847656 28.761719 30.171875 C 30.917969 30.417969 33.175781 30.046875 35.074219 28.972656 C 35.675781 28.582031 36.402344 28.078125 36.949219 27.566406 C 37.800781 26.722656 38.535156 25.746094 39.035156 24.644531 C 37.675781 21.644531 34.683594 19.449219 31.394531 19.121094 C 30.957031 19.066406 30.515625 19.046875 30.078125 19.046875 Z M 30.078125 21.285156 C 31.875 21.246094 33.46875 22.855469 33.4375 24.644531 C 33.496094 26.625 31.519531 28.332031 29.574219 27.964844 C 27.605469 27.734375 26.222656 25.527344 26.871094 23.652344 C 27.28125 22.277344 28.636719 21.269531 30.078125 21.285156 Z M 30.078125 23.527344 C 29.78125 23.527344 29.496094 23.644531 29.285156 23.855469 C 29.074219 24.066406 28.957031 24.347656 28.957031 24.644531 C 28.957031 25.265625 29.457031 25.765625 30.078125 25.765625 C 30.691406 25.765625 31.199219 25.265625 31.199219 24.644531 C 31.199219 24.03125 30.691406 23.527344 30.078125 23.527344 Z M 30.078125 23.527344 "/>
</g>
</svg>
