<?xml version="1.0" encoding="UTF-8"?>
<svg xmlns="http://www.w3.org/2000/svg" xmlns:xlink="http://www.w3.org/1999/xlink" width="48pt" height="48pt" viewBox="0 0 48 48" version="1.1">
<g id="surface1">
<path style=" stroke:none;fill-rule:evenodd;fill:rgb(23.529412%,54.901961%,97.254902%);fill-opacity:1;" d="M 11.207031 2.847656 L 36.792969 2.847656 C 41.40625 2.847656 45.152344 6.59375 45.152344 11.207031 L 45.152344 36.792969 C 45.152344 41.40625 41.40625 45.152344 36.792969 45.152344 L 11.207031 45.152344 C 6.59375 45.152344 2.847656 41.40625 2.847656 36.792969 L 2.847656 11.207031 C 2.847656 6.59375 6.59375 2.847656 11.207031 2.847656 Z M 11.207031 2.847656 "/>
<path style=" stroke:none;fill-rule:nonzero;fill:rgb(100%,100%,100%);fill-opacity:1;" d="M 26.324219 9.488281 C 24 9.488281 21.675781 9.488281 21.675781 11.808594 L 21.675781 25.988281 C 21.109375 25.828125 20.527344 25.746094 19.9375 25.738281 C 16.410156 25.738281 13.550781 28.597656 13.550781 32.125 C 13.550781 35.65625 16.410156 38.511719 19.9375 38.511719 C 23.371094 38.511719 26.199219 35.785156 26.324219 32.355469 C 26.347656 27.984375 26.324219 23.550781 26.324219 19.160156 C 26.324219 12.96875 33.285156 21.097656 34.449219 22.261719 C 34.449219 19.160156 34.449219 9.488281 26.324219 9.488281 Z M 26.324219 9.488281 "/>
</g>
</svg>
