<?xml version="1.0" encoding="UTF-8"?>
<svg xmlns="http://www.w3.org/2000/svg" xmlns:xlink="http://www.w3.org/1999/xlink" width="48pt" height="48pt" viewBox="0 0 48 48" version="1.1">
<g id="surface1">
<path style=" stroke:none;fill-rule:evenodd;fill:rgb(30.980392%,30.980392%,30.980392%);fill-opacity:1;" d="M 11.207031 2.847656 L 36.792969 2.847656 C 41.40625 2.847656 45.152344 6.59375 45.152344 11.207031 L 45.152344 36.792969 C 45.152344 41.40625 41.40625 45.152344 36.792969 45.152344 L 11.207031 45.152344 C 6.59375 45.152344 2.847656 41.40625 2.847656 36.792969 L 2.847656 11.207031 C 2.847656 6.59375 6.59375 2.847656 11.207031 2.847656 Z M 11.207031 2.847656 "/>
<path style=" stroke:none;fill-rule:nonzero;fill:rgb(69.019608%,69.019608%,69.019608%);fill-opacity:1;" d="M 10.140625 6.671875 L 10.140625 24.691406 L 17.761719 20.1875 L 25.386719 15.683594 L 17.761719 11.175781 Z M 26.769531 16.375 L 26.769531 30.238281 L 32.316406 26.769531 L 37.859375 23.308594 L 32.316406 19.84375 Z M 14.296875 24.691406 L 14.296875 41.328125 L 21.230469 37.167969 L 28.15625 33.011719 L 21.230469 28.847656 Z M 14.296875 24.691406 "/>
</g>
</svg>
