<?xml version="1.0" encoding="UTF-8"?>
<svg xmlns="http://www.w3.org/2000/svg" xmlns:xlink="http://www.w3.org/1999/xlink" width="48pt" height="48pt" viewBox="0 0 48 48" version="1.1">
<g id="surface1">
<path style=" stroke:none;fill-rule:evenodd;fill:rgb(100%,92.54902%,67.45098%);fill-opacity:1;" d="M 11.207031 2.847656 L 36.792969 2.847656 C 41.40625 2.847656 45.152344 6.59375 45.152344 11.207031 L 45.152344 36.792969 C 45.152344 41.40625 41.40625 45.152344 36.792969 45.152344 L 11.207031 45.152344 C 6.59375 45.152344 2.847656 41.40625 2.847656 36.792969 L 2.847656 11.207031 C 2.847656 6.59375 6.59375 2.847656 11.207031 2.847656 Z M 11.207031 2.847656 "/>
<path style=" stroke:none;fill-rule:nonzero;fill:rgb(59.215686%,35.294118%,20.392157%);fill-opacity:1;" d="M 22.6875 8.542969 C 22.769531 8.484375 23.90625 9.214844 25.074219 10.066406 C 26.777344 11.324219 27.859375 12.433594 28.8125 13.902344 C 29.046875 14.261719 29.238281 14.640625 29.417969 15.019531 C 29.515625 15.183594 29.613281 15.34375 29.703125 15.511719 C 31.546875 18.984375 30.546875 23.363281 27.464844 25.296875 C 24.386719 27.234375 20.394531 25.984375 18.550781 22.511719 C 18.464844 22.347656 18.386719 22.1875 18.3125 22.019531 C 18.222656 21.863281 18.125 21.714844 18.046875 21.550781 C 17.003906 19.339844 17.21875 16.964844 18.371094 14.949219 C 18.980469 13.878906 20.199219 12.792969 21.078125 12.234375 C 22.175781 11.542969 22.546875 10.140625 22.621094 8.921875 C 22.628906 8.730469 22.660156 8.558594 22.6875 8.542969 Z M 22.6875 8.542969 "/>
<path style=" stroke:none;fill-rule:nonzero;fill:rgb(94.509804%,71.372549%,36.078431%);fill-opacity:1;" d="M 18.578125 19.582031 C 18.203125 19.582031 17.847656 19.777344 17.621094 20.097656 C 17.394531 20.425781 17.316406 20.855469 17.417969 21.25 L 21.628906 38.484375 C 21.769531 39.0625 22.25 39.464844 22.796875 39.464844 L 25.203125 39.464844 C 25.75 39.464844 26.230469 39.0625 26.371094 38.484375 L 30.582031 21.25 C 30.683594 20.855469 30.605469 20.425781 30.378906 20.097656 C 30.152344 19.777344 29.796875 19.582031 29.421875 19.582031 Z M 18.578125 19.582031 "/>
<path style=" stroke:none;fill-rule:nonzero;fill:rgb(100%,81.176471%,53.333333%);fill-opacity:1;" d="M 15.96875 18.480469 L 32.03125 18.480469 C 32.472656 18.480469 32.839844 18.972656 32.839844 19.582031 C 32.839844 20.191406 32.472656 20.6875 32.03125 20.6875 L 15.96875 20.6875 C 15.527344 20.6875 15.160156 20.191406 15.160156 19.582031 C 15.160156 18.972656 15.527344 18.480469 15.96875 18.480469 Z M 15.96875 18.480469 "/>
</g>
</svg>
