<?xml version="1.0" encoding="UTF-8"?>
<svg xmlns="http://www.w3.org/2000/svg" xmlns:xlink="http://www.w3.org/1999/xlink" width="48pt" height="48pt" viewBox="0 0 48 48" version="1.1">
<g id="surface1">
<path style=" stroke:none;fill-rule:evenodd;fill:rgb(20.784314%,72.54902%,96.078431%);fill-opacity:1;" d="M 11.207031 2.847656 L 36.792969 2.847656 C 41.40625 2.847656 45.152344 6.59375 45.152344 11.207031 L 45.152344 36.792969 C 45.152344 41.40625 41.40625 45.152344 36.792969 45.152344 L 11.207031 45.152344 C 6.59375 45.152344 2.847656 41.40625 2.847656 36.792969 L 2.847656 11.207031 C 2.847656 6.59375 6.59375 2.847656 11.207031 2.847656 Z M 11.207031 2.847656 "/>
<path style=" stroke:none;fill-rule:nonzero;fill:rgb(100%,100%,100%);fill-opacity:1;" d="M 38.363281 15.230469 C 37.308594 15.691406 36.171875 16 34.980469 16.140625 C 36.199219 15.425781 37.128906 14.285156 37.574219 12.933594 C 36.433594 13.597656 35.171875 14.078125 33.828125 14.339844 C 32.753906 13.214844 31.21875 12.511719 29.527344 12.511719 C 26.269531 12.511719 23.628906 15.105469 23.628906 18.3125 C 23.628906 18.765625 23.683594 19.207031 23.785156 19.628906 C 18.886719 19.390625 14.542969 17.078125 11.636719 13.574219 C 11.128906 14.425781 10.839844 15.421875 10.839844 16.488281 C 10.839844 18.5 11.878906 20.277344 13.457031 21.316406 C 12.496094 21.285156 11.582031 21.027344 10.792969 20.589844 C 10.792969 20.613281 10.792969 20.640625 10.792969 20.660156 C 10.792969 23.472656 12.824219 25.816406 15.515625 26.355469 C 15.019531 26.484375 14.5 26.558594 13.964844 26.558594 C 13.582031 26.558594 13.214844 26.519531 12.855469 26.453125 C 13.605469 28.753906 15.78125 30.4375 18.359375 30.484375 C 16.34375 32.035156 13.800781 32.964844 11.042969 32.964844 C 10.566406 32.964844 10.097656 32.9375 9.636719 32.886719 C 12.246094 34.53125 15.34375 35.488281 18.671875 35.488281 C 29.511719 35.488281 35.441406 26.652344 35.441406 18.984375 C 35.441406 18.730469 35.433594 18.480469 35.421875 18.234375 C 36.574219 17.417969 37.574219 16.390625 38.363281 15.230469 Z M 38.363281 15.230469 "/>
</g>
</svg>
