<?xml version="1.0" encoding="UTF-8"?>
<svg xmlns="http://www.w3.org/2000/svg" xmlns:xlink="http://www.w3.org/1999/xlink" width="48pt" height="48pt" viewBox="0 0 48 48" version="1.1">
<g id="surface1">
<path style=" stroke:none;fill-rule:evenodd;fill:rgb(99.607843%,71.372549%,14.509804%);fill-opacity:1;" d="M 11.207031 2.847656 L 36.792969 2.847656 C 41.40625 2.847656 45.152344 6.59375 45.152344 11.207031 L 45.152344 36.792969 C 45.152344 41.40625 41.40625 45.152344 36.792969 45.152344 L 11.207031 45.152344 C 6.59375 45.152344 2.847656 41.40625 2.847656 36.792969 L 2.847656 11.207031 C 2.847656 6.59375 6.59375 2.847656 11.207031 2.847656 Z M 11.207031 2.847656 "/>
<path style=" stroke:none;fill-rule:nonzero;fill:rgb(25.882353%,25.882353%,25.882353%);fill-opacity:1;" d="M 34.5 35.421875 C 32.078125 36.714844 29.40625 37.488281 26.875 37.5 C 22.765625 37.5 19.511719 36.292969 17.105469 33.875 C 14.703125 31.449219 13.5 28.15625 13.5 24.011719 C 13.5 19.847656 14.703125 16.5625 17.105469 14.140625 C 19.511719 11.714844 22.765625 10.5 26.875 10.5 C 29.628906 10.53125 32.269531 11.371094 34.5 12.578125 L 34.5 18.121094 C 32.316406 16.800781 29.746094 15.988281 27.390625 15.972656 C 25.121094 15.972656 22.824219 16.738281 21.519531 18.277344 C 20.222656 19.808594 19.574219 21.3125 19.574219 24.011719 C 19.574219 26.691406 20.222656 28.1875 21.519531 29.722656 C 22.824219 31.261719 25.121094 32.027344 27.390625 32.027344 C 29.921875 31.878906 32.667969 31.167969 34.5 29.878906 Z M 34.5 35.421875 "/>
</g>
</svg>
