<?xml version="1.0" encoding="UTF-8"?>
<svg xmlns="http://www.w3.org/2000/svg" xmlns:xlink="http://www.w3.org/1999/xlink" width="48pt" height="48pt" viewBox="0 0 48 48" version="1.1">
<g id="surface1">
<path style=" stroke:none;fill-rule:evenodd;fill:rgb(30.196078%,30.196078%,30.196078%);fill-opacity:1;" d="M 17.542969 12.34375 L 17.542969 17.183594 L 30.457031 17.183594 L 30.457031 12.34375 Z M 17.542969 12.34375 "/>
<path style=" stroke:none;fill-rule:evenodd;fill:rgb(27.058824%,52.941176%,95.294118%);fill-opacity:1;" d="M 27.417969 45.152344 C 27.972656 44.847656 28.535156 44.546875 28.980469 44.097656 C 29.582031 43.496094 30.074219 42.777344 30.410156 41.980469 C 30.75 41.175781 30.933594 40.296875 30.933594 39.371094 C 30.933594 38.441406 30.75 37.5625 30.410156 36.761719 C 30.074219 35.964844 29.582031 35.238281 28.980469 34.636719 C 28.375 34.03125 27.65625 33.546875 26.855469 33.207031 C 26.058594 32.871094 25.175781 32.683594 24.25 32.683594 C 23.324219 32.683594 22.441406 32.871094 21.640625 33.207031 C 20.84375 33.546875 20.121094 34.03125 19.515625 34.636719 C 18.910156 35.238281 18.425781 35.964844 18.089844 36.761719 C 17.75 37.5625 17.5625 38.441406 17.5625 39.371094 C 17.5625 40.296875 17.75 41.175781 18.089844 41.980469 C 18.425781 42.777344 18.910156 43.496094 19.515625 44.097656 C 19.964844 44.546875 20.527344 44.847656 21.078125 45.152344 Z M 27.417969 45.152344 "/>
<path style=" stroke:none;fill-rule:evenodd;fill:rgb(86.666667%,30.196078%,24.313725%);fill-opacity:1;" d="M 24.25 30.011719 L 38.644531 30.011719 C 38.582031 29.472656 38.535156 28.933594 38.328125 28.449219 C 38.035156 27.769531 37.613281 27.15625 37.09375 26.640625 C 36.574219 26.128906 35.953125 25.714844 35.261719 25.421875 C 34.574219 25.136719 33.8125 24.980469 33.011719 24.980469 L 15.363281 24.980469 C 14.5625 24.980469 13.800781 25.136719 13.113281 25.421875 C 12.421875 25.714844 11.800781 26.128906 11.28125 26.640625 C 10.761719 27.15625 10.339844 27.769531 10.046875 28.449219 C 9.753906 29.128906 9.59375 29.878906 9.59375 30.667969 L 9.59375 33.394531 L 15.332031 43.203125 L 15.496094 43.519531 L 15.535156 43.542969 L 15.894531 44.167969 L 16.964844 45.011719 C 16.464844 44.386719 15.941406 43.769531 15.625 43.019531 C 15.152344 41.902344 14.890625 40.667969 14.890625 39.371094 C 14.890625 38.074219 15.152344 36.839844 15.625 35.71875 C 16.097656 34.597656 16.78125 33.589844 17.625 32.746094 C 18.46875 31.902344 19.480469 31.21875 20.597656 30.746094 C 21.582031 30.328125 22.6875 30.152344 23.816406 30.097656 C 23.90625 30.082031 23.949219 30.019531 24.046875 30.011719 Z M 24.25 30.011719 "/>
<path style=" stroke:none;fill-rule:evenodd;fill:rgb(70.196078%,70.196078%,70.196078%);fill-opacity:1;" d="M 24.25 30.011719 L 24.046875 30.011719 C 23.949219 30.019531 23.90625 30.082031 23.816406 30.097656 C 23.96875 30.09375 24.09375 30.011719 24.25 30.011719 Z M 24.25 30.011719 "/>
<path style=" stroke:none;fill-rule:evenodd;fill:rgb(6.27451%,62.352941%,35.686275%);fill-opacity:1;" d="M 9.605469 33.410156 L 9.605469 44.828125 C 10.140625 44.9375 10.640625 45.152344 11.207031 45.152344 L 17.058594 45.152344 C 17.027344 45.109375 17 45.058594 16.964844 45.011719 L 15.894531 44.167969 L 15.535156 43.542969 L 15.496094 43.519531 L 15.332031 43.203125 Z M 9.605469 33.410156 "/>
<path style=" stroke:none;fill-rule:evenodd;fill:rgb(70.196078%,70.196078%,70.196078%);fill-opacity:1;" d="M 31.917969 45.152344 L 33.011719 43.339844 C 32.886719 43.535156 32.46875 43.761719 32.234375 43.972656 C 31.964844 44.363281 31.734375 44.78125 31.4375 45.152344 Z M 31.917969 45.152344 "/>
<path style=" stroke:none;fill-rule:evenodd;fill:rgb(70.196078%,70.196078%,70.196078%);fill-opacity:1;" d="M 32.542969 43.722656 L 32.613281 43.59375 L 32.519531 43.542969 C 32.417969 43.675781 32.332031 43.828125 32.234375 43.972656 C 32.324219 43.886719 32.421875 43.808594 32.542969 43.722656 Z M 32.542969 43.722656 "/>
<path style=" stroke:none;fill-rule:evenodd;fill:rgb(100%,80.784314%,25.490196%);fill-opacity:1;" d="M 38.78125 44.75 L 38.78125 30.667969 C 38.78125 30.4375 38.675781 30.238281 38.644531 30.011719 L 24.269531 30.011719 C 24.269531 30.011719 24.285156 30.015625 24.285156 30.015625 C 25.566406 30.019531 26.792969 30.277344 27.902344 30.746094 C 29.019531 31.21875 30.027344 31.902344 30.875 32.746094 C 31.71875 33.589844 32.402344 34.597656 32.875 35.71875 C 33.347656 36.839844 33.609375 38.074219 33.609375 39.371094 C 33.609375 40.667969 33.347656 41.902344 32.875 43.019531 C 32.792969 43.214844 32.652344 43.375 32.519531 43.542969 L 32.613281 43.59375 L 32.542969 43.722656 C 32.722656 43.59375 32.9375 43.457031 33.011719 43.339844 L 31.917969 45.152344 L 36.792969 45.152344 C 37.5 45.152344 38.125 44.917969 38.78125 44.75 Z M 38.78125 44.75 "/>
<path style=" stroke:none;fill-rule:evenodd;fill:rgb(70.196078%,70.196078%,70.196078%);fill-opacity:1;" d="M 17.542969 9.113281 L 14.316406 12.34375 L 14.316406 17.183594 L 2.847656 17.183594 L 2.847656 36.792969 C 2.847656 40.855469 5.777344 44.0625 9.605469 44.828125 L 9.605469 33.410156 L 9.59375 33.394531 L 9.59375 30.667969 C 9.59375 29.878906 9.753906 29.128906 10.046875 28.449219 C 10.339844 27.769531 10.761719 27.15625 11.28125 26.640625 C 11.800781 26.128906 12.421875 25.714844 13.113281 25.421875 C 13.800781 25.136719 14.5625 24.980469 15.363281 24.980469 L 33.011719 24.980469 C 33.8125 24.980469 34.574219 25.136719 35.261719 25.421875 C 35.953125 25.714844 36.574219 26.128906 37.09375 26.640625 C 37.613281 27.15625 38.035156 27.769531 38.328125 28.449219 C 38.535156 28.933594 38.582031 29.472656 38.644531 30.011719 C 38.675781 30.238281 38.78125 30.4375 38.78125 30.667969 L 38.78125 44.75 C 42.417969 43.84375 45.152344 40.71875 45.152344 36.792969 L 45.152344 17.183594 L 33.683594 17.183594 L 33.683594 12.34375 L 30.457031 9.113281 Z M 17.542969 12.34375 L 30.457031 12.34375 L 30.457031 17.183594 L 17.542969 17.183594 Z M 17.542969 12.34375 "/>
<path style=" stroke:none;fill-rule:evenodd;fill:rgb(30.196078%,30.196078%,30.196078%);fill-opacity:1;" d="M 11.207031 2.847656 C 6.578125 2.847656 2.847656 6.578125 2.847656 11.207031 L 2.847656 17.183594 L 14.316406 17.183594 L 14.316406 12.34375 L 17.542969 9.113281 L 30.457031 9.113281 L 33.683594 12.34375 L 33.683594 17.183594 L 45.152344 17.183594 L 45.152344 11.207031 C 45.152344 6.578125 41.421875 2.847656 36.792969 2.847656 Z M 11.207031 2.847656 "/>
<path style=" stroke:none;fill-rule:evenodd;fill:rgb(100%,80.784314%,25.490196%);fill-opacity:1;" d="M 31.511719 42.035156 L 33.402344 42.035156 C 34.253906 42.035156 34.953125 42.734375 34.953125 43.59375 C 34.953125 44.449219 34.253906 45.144531 33.402344 45.144531 L 31.511719 45.144531 C 30.652344 45.144531 29.957031 44.449219 29.957031 43.59375 C 29.957031 42.734375 30.652344 42.035156 31.511719 42.035156 Z M 31.511719 42.035156 "/>
<path style=" stroke:none;fill-rule:evenodd;fill:rgb(100%,100%,100%);fill-opacity:1;" d="M 31.4375 45.152344 C 31.980469 44.484375 32.535156 43.824219 32.875 43.019531 C 33.347656 41.902344 33.609375 40.667969 33.609375 39.371094 C 33.609375 38.074219 33.347656 36.839844 32.875 35.71875 C 32.402344 34.597656 31.71875 33.589844 30.875 32.746094 C 30.027344 31.902344 29.019531 31.21875 27.902344 30.746094 C 26.78125 30.269531 25.546875 30.011719 24.25 30.011719 C 22.953125 30.011719 21.71875 30.269531 20.597656 30.746094 C 19.480469 31.21875 18.46875 31.902344 17.625 32.746094 C 16.78125 33.589844 16.097656 34.597656 15.625 35.71875 C 15.152344 36.839844 14.890625 38.074219 14.890625 39.371094 C 14.890625 40.667969 15.152344 41.902344 15.625 43.019531 C 15.964844 43.824219 16.519531 44.484375 17.058594 45.152344 L 21.078125 45.152344 C 20.527344 44.847656 19.964844 44.546875 19.515625 44.097656 C 18.910156 43.496094 18.425781 42.777344 18.089844 41.980469 C 17.75 41.175781 17.5625 40.296875 17.5625 39.371094 C 17.5625 38.441406 17.75 37.5625 18.089844 36.761719 C 18.425781 35.964844 18.910156 35.238281 19.515625 34.636719 C 20.121094 34.03125 20.84375 33.546875 21.640625 33.207031 C 22.441406 32.871094 23.324219 32.683594 24.25 32.683594 C 25.175781 32.683594 26.058594 32.871094 26.855469 33.207031 C 27.65625 33.546875 28.375 34.03125 28.980469 34.636719 C 29.582031 35.238281 30.074219 35.964844 30.410156 36.761719 C 30.75 37.5625 30.933594 38.441406 30.933594 39.371094 C 30.933594 40.296875 30.75 41.175781 30.410156 41.980469 C 30.074219 42.777344 29.582031 43.496094 28.980469 44.097656 C 28.535156 44.546875 27.972656 44.847656 27.417969 45.152344 Z M 31.4375 45.152344 "/>
</g>
</svg>
