<?xml version="1.0" encoding="UTF-8"?>
<svg xmlns="http://www.w3.org/2000/svg" xmlns:xlink="http://www.w3.org/1999/xlink" width="48pt" height="48pt" viewBox="0 0 48 48" version="1.1">
<g id="surface1">
<path style=" stroke:none;fill-rule:evenodd;fill:rgb(54.901961%,54.901961%,54.901961%);fill-opacity:1;" d="M 11.207031 2.847656 L 36.792969 2.847656 C 41.40625 2.847656 45.152344 6.59375 45.152344 11.207031 L 45.152344 36.792969 C 45.152344 41.40625 41.40625 45.152344 36.792969 45.152344 L 11.207031 45.152344 C 6.59375 45.152344 2.847656 41.40625 2.847656 36.792969 L 2.847656 11.207031 C 2.847656 6.59375 6.59375 2.847656 11.207031 2.847656 Z M 11.207031 2.847656 "/>
<path style=" stroke:none;fill-rule:nonzero;fill:rgb(27.058824%,27.058824%,27.058824%);fill-opacity:1;" d="M 13.371094 12.269531 L 34.628906 12.269531 C 37.410156 12.269531 39.671875 14.527344 39.671875 17.3125 L 39.671875 30.6875 C 39.671875 33.472656 37.410156 35.730469 34.628906 35.730469 L 13.371094 35.730469 C 10.589844 35.730469 8.328125 33.472656 8.328125 30.6875 L 8.328125 17.3125 C 8.328125 14.527344 10.589844 12.269531 13.371094 12.269531 Z M 13.371094 12.269531 "/>
<path style=" stroke:none;fill-rule:nonzero;fill:rgb(12.941176%,12.941176%,12.941176%);fill-opacity:1;" d="M 13.558594 13.753906 L 34.441406 13.753906 C 36.550781 13.753906 38.265625 15.394531 38.265625 17.421875 L 38.265625 30.578125 C 38.265625 32.605469 36.550781 34.246094 34.441406 34.246094 L 13.558594 34.246094 C 11.449219 34.246094 9.734375 32.605469 9.734375 30.578125 L 9.734375 17.421875 C 9.734375 15.394531 11.449219 13.753906 13.558594 13.753906 Z M 13.558594 13.753906 "/>
<path style=" stroke:none;fill-rule:nonzero;fill:rgb(86.666667%,30.196078%,24.313725%);fill-opacity:1;" d="M 30.15625 19.453125 C 30.125 19.214844 30.105469 18.96875 30.011719 18.753906 C 29.878906 18.449219 29.691406 18.175781 29.464844 17.949219 C 29.230469 17.71875 28.953125 17.53125 28.640625 17.40625 C 28.332031 17.277344 27.996094 17.203125 27.640625 17.203125 L 19.761719 17.203125 C 19.40625 17.203125 19.066406 17.277344 18.761719 17.40625 C 18.449219 17.53125 18.171875 17.71875 17.941406 17.949219 C 17.707031 18.175781 17.519531 18.449219 17.390625 18.753906 C 17.261719 19.058594 17.1875 19.390625 17.1875 19.746094 L 17.1875 20.964844 L 19.75 25.339844 L 19.824219 25.480469 L 19.839844 25.488281 L 20 25.769531 L 21.484375 26.949219 L 21.902344 26.769531 L 22.371094 27.066406 C 22.316406 26.964844 22.261719 26.8125 22.203125 26.640625 L 24.984375 25.472656 L 22.109375 20.558594 C 22.371094 19.957031 22.828125 19.542969 23.636719 19.453125 Z M 30.15625 19.453125 "/>
<path style=" stroke:none;fill-rule:nonzero;fill:rgb(100%,80.784314%,25.490196%);fill-opacity:1;" d="M 24.839844 30.050781 L 27.671875 30.050781 C 28.027344 30.050781 28.359375 29.984375 28.667969 29.855469 C 28.96875 29.722656 29.238281 29.542969 29.46875 29.3125 C 29.703125 29.078125 29.886719 28.808594 30.015625 28.503906 C 30.140625 28.199219 30.214844 27.863281 30.214844 27.511719 L 30.214844 19.746094 C 30.214844 19.640625 30.167969 19.550781 30.15625 19.453125 L 23.734375 19.453125 C 23.730469 19.453125 25.0625 20.046875 25.625 20.371094 C 27.066406 21.203125 27.214844 24.171875 27.21875 25.375 L 27.464844 25.511719 L 27.214844 25.9375 C 27.214844 25.9375 27.214844 25.957031 27.214844 25.957031 L 27.121094 26.097656 Z M 24.839844 30.050781 "/>
<path style=" stroke:none;fill-rule:nonzero;fill:rgb(6.27451%,62.352941%,35.686275%);fill-opacity:1;" d="M 17.191406 20.035156 L 17.191406 27.511719 C 17.191406 27.863281 17.261719 28.199219 17.390625 28.503906 C 17.519531 28.808594 17.703125 29.078125 17.933594 29.3125 C 18.160156 29.542969 18.4375 29.722656 18.738281 29.855469 C 19.042969 29.984375 19.378906 30.050781 19.730469 30.050781 L 24.839844 30.050781 L 27.636719 25.402344 C 27.324219 25.917969 26 26.578125 25.4375 26.902344 C 23.636719 27.941406 21.34375 27.269531 20.300781 25.46875 Z M 17.191406 20.035156 "/>
<path style=" stroke:none;fill-rule:nonzero;fill:rgb(100%,100%,100%);fill-opacity:1;" d="M 27.90625 23.628906 C 27.90625 21.324219 26.035156 19.453125 23.730469 19.453125 C 21.421875 19.453125 19.550781 21.324219 19.550781 23.628906 C 19.550781 25.9375 21.421875 27.808594 23.730469 27.808594 C 26.035156 27.808594 27.90625 25.9375 27.90625 23.628906 Z M 27.90625 23.628906 "/>
<path style=" stroke:none;fill-rule:nonzero;fill:rgb(27.058824%,52.941176%,95.294118%);fill-opacity:1;" d="M 26.714844 23.628906 C 26.714844 21.980469 25.375 20.644531 23.730469 20.644531 C 22.078125 20.644531 20.746094 21.980469 20.746094 23.628906 C 20.746094 25.277344 22.078125 26.609375 23.730469 26.609375 C 25.375 26.609375 26.714844 25.277344 26.714844 23.628906 Z M 26.714844 23.628906 "/>
</g>
</svg>
