<?xml version="1.0" encoding="UTF-8"?>
<svg xmlns="http://www.w3.org/2000/svg" xmlns:xlink="http://www.w3.org/1999/xlink" width="48pt" height="48pt" viewBox="0 0 48 48" version="1.1">
<g id="surface1">
<path style=" stroke:none;fill-rule:evenodd;fill:rgb(83.137255%,29.019608%,29.019608%);fill-opacity:1;" d="M 11.207031 2.847656 L 36.792969 2.847656 C 41.40625 2.847656 45.152344 6.59375 45.152344 11.207031 L 45.152344 36.792969 C 45.152344 41.40625 41.40625 45.152344 36.792969 45.152344 L 11.207031 45.152344 C 6.59375 45.152344 2.847656 41.40625 2.847656 36.792969 L 2.847656 11.207031 C 2.847656 6.59375 6.59375 2.847656 11.207031 2.847656 Z M 11.207031 2.847656 "/>
<path style=" stroke:none;fill-rule:nonzero;fill:rgb(100%,100%,100%);fill-opacity:1;" d="M 24 9 C 19.238281 9.003906 14.761719 11.277344 11.9375 15.109375 L 16.5625 23.113281 C 16.566406 23.046875 16.578125 22.972656 16.589844 22.90625 C 16.625 22.65625 16.671875 22.410156 16.734375 22.167969 C 16.796875 21.925781 16.871094 21.6875 16.953125 21.453125 C 17.027344 21.25 17.109375 21.050781 17.199219 20.855469 C 17.21875 20.8125 17.238281 20.765625 17.261719 20.722656 C 17.34375 20.550781 17.4375 20.386719 17.53125 20.222656 C 17.5625 20.171875 17.59375 20.121094 17.621094 20.066406 C 17.730469 19.894531 17.84375 19.722656 17.96875 19.5625 C 17.988281 19.527344 18.015625 19.496094 18.035156 19.457031 C 18.15625 19.308594 18.28125 19.15625 18.410156 19.015625 C 18.453125 18.96875 18.488281 18.921875 18.53125 18.875 C 18.644531 18.753906 18.761719 18.640625 18.878906 18.53125 C 18.949219 18.464844 19.019531 18.394531 19.09375 18.332031 C 19.199219 18.25 19.296875 18.167969 19.402344 18.089844 C 19.5 18.011719 19.597656 17.9375 19.699219 17.863281 C 19.800781 17.792969 19.90625 17.722656 20.011719 17.65625 C 20.089844 17.605469 20.171875 17.550781 20.25 17.503906 C 20.28125 17.488281 20.3125 17.472656 20.339844 17.457031 C 20.402344 17.425781 20.457031 17.394531 20.515625 17.363281 C 20.640625 17.300781 20.765625 17.238281 20.890625 17.183594 C 21.015625 17.125 21.136719 17.074219 21.261719 17.027344 C 21.363281 16.984375 21.46875 16.949219 21.574219 16.910156 C 21.703125 16.863281 21.832031 16.824219 21.96875 16.785156 C 22.082031 16.753906 22.203125 16.722656 22.316406 16.699219 C 22.441406 16.671875 22.5625 16.644531 22.6875 16.625 C 22.808594 16.605469 22.925781 16.582031 23.046875 16.566406 C 23.175781 16.550781 23.308594 16.535156 23.441406 16.53125 C 23.550781 16.519531 23.667969 16.515625 23.78125 16.511719 C 23.855469 16.503906 23.925781 16.503906 24 16.5 L 36.96875 16.5 C 34.292969 11.863281 29.355469 9.011719 24 9 Z M 11.019531 16.511719 C 9.703125 18.785156 9.003906 21.371094 9 24 C 9 32.285156 15.714844 39 24 39 C 26.066406 38.996094 28.109375 38.5625 30 37.730469 L 30 28.496094 C 29.972656 28.53125 29.941406 28.566406 29.917969 28.605469 C 29.855469 28.683594 29.785156 28.761719 29.722656 28.839844 C 29.628906 28.949219 29.53125 29.0625 29.433594 29.167969 C 29.355469 29.246094 29.28125 29.316406 29.199219 29.390625 C 29.097656 29.496094 28.988281 29.59375 28.886719 29.6875 C 28.800781 29.753906 28.714844 29.824219 28.628906 29.890625 C 28.519531 29.972656 28.417969 30.058594 28.300781 30.136719 C 28.199219 30.207031 28.09375 30.277344 27.988281 30.34375 C 27.910156 30.394531 27.828125 30.449219 27.75 30.496094 C 27.71875 30.511719 27.6875 30.527344 27.660156 30.542969 C 27.597656 30.574219 27.542969 30.605469 27.484375 30.636719 C 27.359375 30.699219 27.234375 30.761719 27.109375 30.816406 C 26.984375 30.875 26.863281 30.925781 26.738281 30.972656 C 26.636719 31.015625 26.53125 31.050781 26.425781 31.089844 C 26.296875 31.136719 26.167969 31.175781 26.03125 31.214844 C 25.917969 31.246094 25.800781 31.277344 25.683594 31.300781 C 25.558594 31.328125 25.4375 31.355469 25.3125 31.375 C 25.191406 31.394531 25.074219 31.417969 24.953125 31.433594 C 24.824219 31.449219 24.691406 31.464844 24.558594 31.46875 C 24.449219 31.480469 24.332031 31.484375 24.21875 31.488281 C 24.144531 31.496094 24.074219 31.496094 24 31.5 C 23.90625 31.5 23.816406 31.496094 23.722656 31.488281 C 23.683594 31.488281 23.640625 31.488281 23.605469 31.484375 C 23.4375 31.472656 23.269531 31.457031 23.109375 31.4375 C 23.019531 31.425781 22.925781 31.417969 22.839844 31.40625 C 22.683594 31.378906 22.53125 31.347656 22.378906 31.3125 C 22.285156 31.292969 22.191406 31.269531 22.105469 31.25 C 21.953125 31.214844 21.808594 31.167969 21.660156 31.121094 C 21.566406 31.089844 21.472656 31.058594 21.378906 31.019531 C 21.253906 30.972656 21.128906 30.921875 21.011719 30.863281 C 20.894531 30.816406 20.78125 30.769531 20.671875 30.714844 C 20.574219 30.660156 20.472656 30.609375 20.375 30.550781 C 20.253906 30.488281 20.140625 30.421875 20.019531 30.347656 C 19.925781 30.292969 19.832031 30.222656 19.738281 30.160156 C 19.625 30.082031 19.511719 30 19.394531 29.917969 C 19.316406 29.847656 19.238281 29.785156 19.160156 29.71875 C 19.050781 29.628906 18.941406 29.53125 18.832031 29.433594 C 18.753906 29.355469 18.683594 29.28125 18.609375 29.199219 C 18.503906 29.097656 18.40625 28.996094 18.3125 28.886719 C 18.246094 28.800781 18.175781 28.714844 18.109375 28.628906 C 18.027344 28.519531 17.941406 28.417969 17.863281 28.300781 C 17.792969 28.199219 17.722656 28.09375 17.65625 27.984375 C 17.605469 27.910156 17.558594 27.828125 17.503906 27.75 L 17.417969 27.59375 Z M 28.496094 18 C 28.53125 18.027344 28.566406 18.058594 28.605469 18.082031 C 28.683594 18.144531 28.761719 18.214844 28.839844 18.277344 C 28.949219 18.371094 29.0625 18.46875 29.167969 18.566406 C 29.246094 18.644531 29.316406 18.71875 29.390625 18.800781 C 29.496094 18.902344 29.59375 19.011719 29.6875 19.113281 C 29.753906 19.199219 29.824219 19.285156 29.890625 19.371094 C 29.972656 19.480469 30.058594 19.582031 30.136719 19.699219 C 30.207031 19.800781 30.277344 19.90625 30.34375 20.011719 C 30.394531 20.089844 30.449219 20.171875 30.496094 20.25 C 30.511719 20.28125 30.527344 20.3125 30.542969 20.339844 C 30.574219 20.402344 30.605469 20.457031 30.636719 20.515625 C 30.699219 20.640625 30.761719 20.765625 30.816406 20.890625 C 30.875 21.015625 30.925781 21.136719 30.972656 21.261719 C 31.015625 21.363281 31.050781 21.46875 31.089844 21.574219 C 31.136719 21.703125 31.175781 21.832031 31.214844 21.96875 C 31.246094 22.082031 31.277344 22.203125 31.300781 22.316406 C 31.328125 22.441406 31.355469 22.5625 31.375 22.6875 C 31.394531 22.808594 31.417969 22.925781 31.433594 23.046875 C 31.441406 23.113281 31.453125 23.183594 31.464844 23.25 C 31.464844 23.3125 31.46875 23.375 31.46875 23.441406 C 31.480469 23.558594 31.484375 23.667969 31.488281 23.78125 C 31.496094 23.855469 31.496094 23.925781 31.5 24 L 31.5 36.964844 C 36.136719 34.292969 38.988281 29.347656 39 24 C 38.996094 21.933594 38.5625 19.890625 37.730469 18 Z M 28.496094 18 "/>
</g>
</svg>
