<?xml version="1.0" encoding="UTF-8"?>
<svg xmlns="http://www.w3.org/2000/svg" xmlns:xlink="http://www.w3.org/1999/xlink" width="48pt" height="48pt" viewBox="0 0 48 48" version="1.1">
<g id="surface1">
<path style=" stroke:none;fill-rule:evenodd;fill:rgb(100%,58.039216%,14.901961%);fill-opacity:1;" d="M 11.207031 2.847656 L 36.792969 2.847656 C 41.40625 2.847656 45.152344 6.59375 45.152344 11.207031 L 45.152344 36.792969 C 45.152344 41.40625 41.40625 45.152344 36.792969 45.152344 L 11.207031 45.152344 C 6.59375 45.152344 2.847656 41.40625 2.847656 36.792969 L 2.847656 11.207031 C 2.847656 6.59375 6.59375 2.847656 11.207031 2.847656 Z M 11.207031 2.847656 "/>
<path style=" stroke:none;fill-rule:nonzero;fill:rgb(100%,58.039216%,14.901961%);fill-opacity:1;" d="M 24 3 C 12.402344 3 3 12.402344 3 24 C 3 35.597656 12.402344 45 24 45 C 35.597656 45 45 35.597656 45 24 C 45 12.402344 35.597656 3 24 3 Z M 24 3 "/>
<path style=" stroke:none;fill-rule:nonzero;fill:rgb(100%,100%,100%);fill-opacity:1;" d="M 42 24 C 42 33.941406 33.941406 42 24 42 C 14.058594 42 6 33.941406 6 24 C 6 14.058594 14.058594 6 24 6 C 33.941406 6 42 14.058594 42 24 Z M 42 24 "/>
<path style=" stroke:none;fill-rule:nonzero;fill:rgb(82.352941%,87.843137%,8.235294%);fill-opacity:1;" d="M 23.957031 9 C 22.089844 8.988281 20.34375 9.371094 19.5 9.78125 C 19.5 9.785156 19.5 9.746094 19.5 9.75 C 19.640625 10.046875 24 21 24 21 L 28.5 9.75 C 27.609375 9.339844 25.828125 9.011719 23.957031 9 Z M 23.957031 9 "/>
<path style=" stroke:none;fill-rule:nonzero;fill:rgb(78.039216%,29.019608%,18.823529%);fill-opacity:1;" d="M 23.957031 39 C 22.089844 39.011719 20.34375 38.628906 19.5 38.21875 C 19.5 38.214844 19.5 38.253906 19.5 38.25 C 19.640625 37.953125 24 27 24 27 L 28.5 38.25 C 27.609375 38.660156 25.828125 38.988281 23.957031 39 Z M 23.957031 39 "/>
<path style=" stroke:none;fill-rule:nonzero;fill:rgb(100%,46.27451%,61.568627%);fill-opacity:1;" d="M 39 23.957031 C 39.011719 22.089844 38.628906 20.34375 38.21875 19.5 C 38.214844 19.5 38.253906 19.5 38.25 19.5 C 37.953125 19.640625 27 24 27 24 L 38.25 28.5 C 38.660156 27.609375 38.988281 25.828125 39 23.957031 Z M 39 23.957031 "/>
<path style=" stroke:none;fill-rule:nonzero;fill:rgb(97.647059%,65.490196%,14.901961%);fill-opacity:1;" d="M 9 23.957031 C 8.988281 22.089844 9.371094 20.34375 9.78125 19.5 C 9.785156 19.5 9.746094 19.5 9.75 19.5 C 10.046875 19.640625 21 24 21 24 L 9.75 28.5 C 9.339844 27.609375 9.011719 25.828125 9 23.957031 Z M 9 23.957031 "/>
<path style=" stroke:none;fill-rule:nonzero;fill:rgb(53.72549%,86.27451%,23.529412%);fill-opacity:1;" d="M 34.578125 13.363281 C 33.261719 12.035156 31.761719 11.066406 30.875 10.761719 C 30.871094 10.765625 30.894531 10.734375 30.894531 10.738281 C 30.785156 11.050781 26.121094 21.878906 26.121094 21.878906 L 37.261719 17.105469 C 36.917969 16.183594 35.890625 14.691406 34.578125 13.363281 Z M 34.578125 13.363281 "/>
<path style=" stroke:none;fill-rule:nonzero;fill:rgb(86.27451%,43.137255%,20%);fill-opacity:1;" d="M 13.363281 34.578125 C 12.035156 33.261719 11.066406 31.761719 10.761719 30.875 C 10.765625 30.871094 10.734375 30.894531 10.738281 30.894531 C 11.050781 30.785156 21.878906 26.121094 21.878906 26.121094 L 17.105469 37.261719 C 16.183594 36.917969 14.691406 35.890625 13.363281 34.578125 Z M 13.363281 34.578125 "/>
<path style=" stroke:none;fill-rule:nonzero;fill:rgb(86.666667%,30.980392%,23.529412%);fill-opacity:1;" d="M 34.636719 34.578125 C 35.964844 33.261719 36.933594 31.761719 37.238281 30.875 C 37.234375 30.871094 37.265625 30.894531 37.261719 30.894531 C 36.949219 30.785156 26.121094 26.121094 26.121094 26.121094 L 30.894531 37.261719 C 31.816406 36.917969 33.308594 35.890625 34.636719 34.578125 Z M 34.636719 34.578125 "/>
<path style=" stroke:none;fill-rule:nonzero;fill:rgb(97.254902%,88.235294%,18.039216%);fill-opacity:1;" d="M 13.421875 13.363281 C 14.738281 12.035156 16.238281 11.066406 17.125 10.761719 C 17.128906 10.765625 17.105469 10.734375 17.105469 10.738281 C 17.214844 11.050781 21.878906 21.878906 21.878906 21.878906 L 10.738281 17.105469 C 11.082031 16.183594 12.109375 14.691406 13.421875 13.363281 Z M 13.421875 13.363281 "/>
</g>
</svg>
