<?xml version="1.0" encoding="UTF-8"?>
<svg xmlns="http://www.w3.org/2000/svg" xmlns:xlink="http://www.w3.org/1999/xlink" width="48pt" height="48pt" viewBox="0 0 48 48" version="1.1">
<g id="surface1">
<path style=" stroke:none;fill-rule:evenodd;fill:rgb(76.078431%,20.784314%,16.470588%);fill-opacity:1;" d="M 33.339844 2.847656 L 14.964844 2.847656 L 24.191406 36.402344 Z M 33.339844 2.847656 "/>
<path style=" stroke:none;fill-rule:evenodd;fill:rgb(76.078431%,20.784314%,16.470588%);fill-opacity:1;" d="M 33.933594 45.152344 L 36.785156 45.152344 C 41.421875 45.152344 45.152344 41.421875 45.152344 36.785156 L 45.152344 11.207031 C 45.152344 10.097656 44.910156 9.058594 44.527344 8.089844 Z M 33.933594 45.152344 "/>
<path style=" stroke:none;fill-rule:evenodd;fill:rgb(99.607843%,80.392157%,21.960784%);fill-opacity:1;" d="M 33.933594 45.152344 L 44.527344 8.089844 C 43.292969 5.015625 40.3125 2.847656 36.785156 2.847656 L 33.339844 2.847656 L 24.191406 36.402344 L 26.597656 45.152344 Z M 33.933594 45.152344 "/>
<path style=" stroke:none;fill-rule:evenodd;fill:rgb(76.078431%,20.784314%,16.470588%);fill-opacity:1;" d="M 3.667969 7.703125 C 3.167969 8.777344 2.847656 9.941406 2.847656 11.207031 L 2.847656 36.785156 C 2.847656 41.421875 6.578125 45.152344 11.207031 45.152344 L 14.363281 45.152344 Z M 3.667969 7.703125 "/>
<path style=" stroke:none;fill-rule:evenodd;fill:rgb(99.607843%,84.313725%,37.647059%);fill-opacity:1;" d="M 3.667969 7.703125 L 14.363281 45.152344 L 26.597656 45.152344 L 14.964844 2.847656 L 11.207031 2.847656 C 7.84375 2.847656 4.996094 4.847656 3.667969 7.703125 Z M 3.667969 7.703125 "/>
</g>
</svg>
