<?xml version="1.0" encoding="UTF-8"?>
<svg xmlns="http://www.w3.org/2000/svg" xmlns:xlink="http://www.w3.org/1999/xlink" width="48pt" height="48pt" viewBox="0 0 48 48" version="1.1">
<g id="surface1">
<path style=" stroke:none;fill-rule:evenodd;fill:rgb(90.196078%,90.196078%,90.196078%);fill-opacity:1;" d="M 11.207031 2.847656 L 36.792969 2.847656 C 41.40625 2.847656 45.152344 6.59375 45.152344 11.207031 L 45.152344 36.792969 C 45.152344 41.40625 41.40625 45.152344 36.792969 45.152344 L 11.207031 45.152344 C 6.59375 45.152344 2.847656 41.40625 2.847656 36.792969 L 2.847656 11.207031 C 2.847656 6.59375 6.59375 2.847656 11.207031 2.847656 Z M 11.207031 2.847656 "/>
<path style=" stroke:none;fill-rule:nonzero;fill:rgb(87.843137%,23.529412%,23.137255%);fill-opacity:1;" d="M 35.128906 8.1875 C 34.707031 10.800781 33.417969 13.1875 31.484375 14.949219 C 29.339844 13.53125 26.769531 12.703125 24 12.703125 C 21.230469 12.703125 18.65625 13.53125 16.511719 14.953125 C 14.59375 13.207031 13.308594 10.847656 12.871094 8.261719 C 12.765625 8.886719 12.707031 9.519531 12.703125 10.152344 C 12.707031 12.417969 13.355469 14.628906 14.566406 16.519531 C 12.027344 18.980469 10.441406 22.421875 10.441406 26.261719 C 10.441406 33.769531 16.488281 39.8125 24 39.8125 C 31.511719 39.8125 37.558594 33.769531 37.558594 26.261719 C 37.558594 22.425781 35.972656 18.984375 33.433594 16.519531 C 34.644531 14.628906 35.296875 12.417969 35.296875 10.152344 C 35.296875 9.496094 35.238281 8.832031 35.128906 8.1875 Z M 35.128906 8.1875 "/>
<path style=" stroke:none;fill-rule:nonzero;fill:rgb(100%,100%,100%);fill-opacity:1;" d="M 22.871094 29.644531 C 21.53125 31.808594 18.574219 32.546875 16.253906 31.300781 C 13.9375 30.050781 13.144531 27.292969 14.484375 25.128906 Z M 22.871094 29.644531 "/>
<path style=" stroke:none;fill-rule:nonzero;fill:rgb(17.254902%,17.254902%,17.254902%);fill-opacity:1;" d="M 18.234375 27.152344 C 18.042969 28.480469 18.433594 30.074219 19.441406 31.828125 C 19.441406 31.828125 19.449219 31.828125 19.453125 31.828125 C 18.90625 30.574219 18.988281 29.144531 19.480469 27.824219 Z M 18.234375 27.152344 "/>
<path style=" stroke:none;fill-rule:nonzero;fill:rgb(100%,100%,100%);fill-opacity:1;" d="M 25.128906 29.644531 C 26.46875 31.808594 29.425781 32.550781 31.746094 31.300781 C 34.0625 30.050781 34.855469 27.292969 33.515625 25.128906 Z M 25.128906 29.644531 "/>
<path style=" stroke:none;fill-rule:nonzero;fill:rgb(17.254902%,17.254902%,17.254902%);fill-opacity:1;" d="M 29.765625 27.152344 L 28.519531 27.824219 C 29.011719 29.144531 29.09375 30.574219 28.546875 31.828125 C 28.550781 31.828125 28.558594 31.828125 28.558594 31.828125 C 29.566406 30.074219 29.957031 28.480469 29.765625 27.152344 Z M 29.765625 27.152344 "/>
</g>
</svg>
