<?xml version="1.0" encoding="UTF-8"?>
<svg xmlns="http://www.w3.org/2000/svg" xmlns:xlink="http://www.w3.org/1999/xlink" width="48pt" height="48pt" viewBox="0 0 48 48" version="1.1">
<g id="surface1">
<path style=" stroke:none;fill-rule:evenodd;fill:rgb(96.078431%,43.137255%,17.254902%);fill-opacity:1;" d="M 11.207031 2.847656 L 36.792969 2.847656 C 41.40625 2.847656 45.152344 6.59375 45.152344 11.207031 L 45.152344 36.792969 C 45.152344 41.40625 41.40625 45.152344 36.792969 45.152344 L 11.207031 45.152344 C 6.59375 45.152344 2.847656 41.40625 2.847656 36.792969 L 2.847656 11.207031 C 2.847656 6.59375 6.59375 2.847656 11.207031 2.847656 Z M 11.207031 2.847656 "/>
<path style=" stroke:none;fill-rule:nonzero;fill:rgb(100%,100%,100%);fill-opacity:1;" d="M 36.433594 22.5 C 36.042969 19.4375 34.484375 16.644531 32.089844 14.703125 C 31.597656 14.886719 31.082031 15 30.535156 15 C 28.644531 15 27.027344 13.808594 26.359375 12.144531 C 25.753906 12.050781 25.144531 12 24.535156 12 C 22.9375 12 21.355469 12.316406 19.878906 12.941406 L 22.160156 16.894531 C 22.925781 16.636719 23.730469 16.503906 24.535156 16.5 C 28.09375 16.503906 31.160156 19.011719 31.875 22.5 Z M 36.425781 25.5 L 31.886719 25.5 C 31.171875 28.988281 28.097656 31.5 24.535156 31.5 C 23.730469 31.5 22.925781 31.363281 22.160156 31.109375 L 19.886719 35.050781 C 21.359375 35.671875 22.9375 35.996094 24.535156 36 C 25.144531 35.996094 25.761719 35.941406 26.363281 35.84375 C 27.03125 34.1875 28.652344 33 30.535156 33 C 31.082031 33 31.605469 33.113281 32.09375 33.296875 C 34.484375 31.355469 36.035156 28.5625 36.425781 25.5 Z M 33.535156 10.5 C 33.535156 8.84375 32.191406 7.5 30.535156 7.5 C 28.878906 7.5 27.535156 8.84375 27.535156 10.5 C 27.535156 12.15625 28.878906 13.5 30.535156 13.5 C 32.191406 13.5 33.535156 12.15625 33.535156 10.5 Z M 33.535156 37.5 C 33.535156 35.84375 32.191406 34.5 30.535156 34.5 C 28.878906 34.5 27.535156 35.84375 27.535156 37.5 C 27.535156 39.15625 28.878906 40.5 30.535156 40.5 C 32.191406 40.5 33.535156 39.15625 33.535156 37.5 Z M 19.566406 18.394531 L 17.292969 14.453125 C 15.125 16.097656 13.578125 18.433594 12.910156 21.074219 C 13.597656 21.859375 14.035156 22.878906 14.035156 24 C 14.035156 25.121094 13.605469 26.136719 12.917969 26.925781 C 13.578125 29.566406 15.121094 31.90625 17.285156 33.550781 L 19.566406 29.609375 C 17.957031 28.1875 17.035156 26.144531 17.035156 24 C 17.042969 21.855469 17.957031 19.816406 19.566406 18.394531 Z M 12.535156 24 C 12.535156 22.34375 11.191406 21 9.535156 21 C 7.878906 21 6.535156 22.34375 6.535156 24 C 6.535156 25.65625 7.878906 27 9.535156 27 C 11.191406 27 12.535156 25.65625 12.535156 24 Z M 12.535156 24 "/>
</g>
</svg>
