<?xml version="1.0" encoding="UTF-8"?>
<svg xmlns="http://www.w3.org/2000/svg" xmlns:xlink="http://www.w3.org/1999/xlink" width="48pt" height="48pt" viewBox="0 0 48 48" version="1.1">
<g id="surface1">
<path style=" stroke:none;fill-rule:evenodd;fill:rgb(100%,54.117647%,10.196078%);fill-opacity:1;" d="M 11.207031 2.847656 L 36.792969 2.847656 C 41.40625 2.847656 45.152344 6.59375 45.152344 11.207031 L 45.152344 36.792969 C 45.152344 41.40625 41.40625 45.152344 36.792969 45.152344 L 11.207031 45.152344 C 6.59375 45.152344 2.847656 41.40625 2.847656 36.792969 L 2.847656 11.207031 C 2.847656 6.59375 6.59375 2.847656 11.207031 2.847656 Z M 11.207031 2.847656 "/>
<path style=" stroke:none;fill-rule:nonzero;fill:rgb(96.862745%,74.117647%,36.470588%);fill-opacity:1;" d="M 26.40625 21.730469 C 22.46875 17.828125 21.347656 14.128906 19.703125 12.21875 C 15.347656 7.1875 4.9375 20.675781 16.203125 31.847656 C 27.46875 43.015625 41.058594 32.691406 35.636719 28.1875 C 33.703125 26.578125 30.136719 25.425781 26.40625 21.730469 Z M 26.40625 21.730469 "/>
<path style=" stroke:none;fill-rule:nonzero;fill:rgb(100%,100%,100%);fill-opacity:1;" d="M 17.417969 11.140625 C 15.152344 13.667969 13.894531 16.933594 13.890625 20.324219 C 13.890625 27.9375 20.0625 34.109375 27.675781 34.109375 C 31.066406 34.105469 34.339844 32.84375 36.859375 30.578125 C 36.847656 29.714844 36.46875 28.878906 35.636719 28.1875 C 33.703125 26.582031 30.136719 25.425781 26.40625 21.730469 C 22.46875 17.828125 21.347656 14.128906 19.703125 12.222656 C 19.046875 11.464844 18.25 11.128906 17.417969 11.140625 Z M 17.417969 11.140625 "/>
</g>
</svg>
