<?xml version="1.0" encoding="UTF-8"?>
<svg xmlns="http://www.w3.org/2000/svg" xmlns:xlink="http://www.w3.org/1999/xlink" width="48pt" height="48pt" viewBox="0 0 48 48" version="1.1">
<g id="surface1">
<path style=" stroke:none;fill-rule:evenodd;fill:rgb(20%,61.176471%,20%);fill-opacity:1;" d="M 42.191406 43.050781 L 17.089844 33.359375 L 5.597656 42.917969 C 7.089844 44.277344 9.027344 45.152344 11.207031 45.152344 L 36.792969 45.152344 C 38.878906 45.152344 40.730469 44.3125 42.191406 43.050781 Z M 42.191406 43.050781 "/>
<path style=" stroke:none;fill-rule:evenodd;fill:rgb(80%,80%,80%);fill-opacity:1;" d="M 44.890625 37.917969 C 44.949219 37.53125 45.152344 37.199219 45.152344 36.785156 L 45.152344 11.207031 C 45.152344 6.578125 41.421875 2.847656 36.792969 2.847656 L 25.183594 2.847656 Z M 44.890625 37.917969 "/>
<path style=" stroke:none;fill-rule:evenodd;fill:rgb(100%,100%,100%);fill-opacity:1;" d="M 17.109375 33.363281 L 29.515625 38.15625 L 27.824219 24.464844 Z M 17.109375 33.363281 "/>
<path style=" stroke:none;fill-rule:evenodd;fill:rgb(80%,80%,80%);fill-opacity:1;" d="M 25.113281 2.847656 L 11.207031 2.847656 C 6.578125 2.847656 2.847656 6.578125 2.847656 11.207031 L 2.847656 36.785156 C 2.847656 38.558594 3.542969 40.066406 4.484375 41.402344 Z M 25.113281 2.847656 "/>
<path style=" stroke:none;fill-rule:evenodd;fill:rgb(29.019608%,52.54902%,84.705882%);fill-opacity:1;" d="M 25.113281 2.847656 L 4.484375 41.402344 C 4.847656 41.917969 5.136719 42.488281 5.597656 42.917969 L 17.089844 33.359375 L 17.109375 33.363281 L 27.824219 24.464844 L 25.15625 2.847656 Z M 25.113281 2.847656 "/>
<path style=" stroke:none;fill-rule:evenodd;fill:rgb(86.666667%,23.529412%,23.921569%);fill-opacity:1;" d="M 25.15625 2.847656 L 29.515625 38.15625 L 42.191406 43.050781 C 43.683594 41.769531 44.582031 39.953125 44.890625 37.917969 L 25.183594 2.847656 Z M 25.15625 2.847656 "/>
</g>
</svg>
