<?xml version="1.0" encoding="UTF-8"?>
<svg xmlns="http://www.w3.org/2000/svg" xmlns:xlink="http://www.w3.org/1999/xlink" width="48pt" height="48pt" viewBox="0 0 48 48" version="1.1">
<g id="surface1">
<path style=" stroke:none;fill-rule:evenodd;fill:rgb(30.980392%,30.980392%,30.980392%);fill-opacity:1;" d="M 11.207031 2.847656 L 36.792969 2.847656 C 41.40625 2.847656 45.152344 6.59375 45.152344 11.207031 L 45.152344 36.792969 C 45.152344 41.40625 41.40625 45.152344 36.792969 45.152344 L 11.207031 45.152344 C 6.59375 45.152344 2.847656 41.40625 2.847656 36.792969 L 2.847656 11.207031 C 2.847656 6.59375 6.59375 2.847656 11.207031 2.847656 Z M 11.207031 2.847656 "/>
<path style=" stroke:none;fill-rule:nonzero;fill:rgb(60%,60%,60%);fill-opacity:1;" d="M 32.925781 21.121094 L 32.847656 21.25 C 33.046875 22.105469 33.144531 22.972656 33.152344 23.847656 C 33.144531 24.488281 33.089844 25.125 32.984375 25.761719 C 34.785156 26.390625 36 28.089844 36 30 C 36 32.484375 33.984375 34.5 31.5 34.5 C 30.386719 34.5 29.3125 34.082031 28.488281 33.332031 C 27.253906 34.292969 25.855469 35 24.347656 35.417969 L 24.339844 35.433594 C 26.035156 37.675781 28.6875 38.996094 31.5 39 C 36.46875 39 40.5 34.96875 40.5 30 C 40.496094 25.582031 37.292969 21.824219 32.925781 21.121094 Z M 32.925781 21.121094 "/>
<path style=" stroke:none;fill-rule:nonzero;fill:rgb(60%,60%,60%);fill-opacity:1;" d="M 15.027344 21.136719 C 10.6875 21.855469 7.503906 25.605469 7.5 30 C 7.5 34.96875 11.53125 39 16.5 39 C 19.3125 39 21.957031 37.683594 23.660156 35.441406 C 22.136719 35.042969 20.703125 34.34375 19.449219 33.390625 C 18.628906 34.105469 17.582031 34.496094 16.5 34.5 C 14.015625 34.5 12 32.484375 12 30 C 12 28.144531 13.136719 26.480469 14.863281 25.808594 C 14.753906 25.160156 14.703125 24.503906 14.703125 23.847656 C 14.703125 22.9375 14.8125 22.027344 15.027344 21.136719 Z M 15.027344 21.136719 "/>
<path style=" stroke:none;fill-rule:nonzero;fill:rgb(60%,60%,60%);fill-opacity:1;" d="M 24 9 C 19.03125 9 15 13.03125 15 18 C 15.003906 19 15.175781 19.988281 15.503906 20.9375 C 16.652344 19.785156 18.015625 18.886719 19.515625 18.28125 C 19.503906 18.1875 19.5 18.09375 19.5 18 C 19.5 15.515625 21.515625 13.5 24 13.5 C 26.484375 13.5 28.5 15.515625 28.5 18 C 28.5 18.09375 28.496094 18.1875 28.484375 18.28125 C 29.988281 18.886719 31.347656 19.785156 32.496094 20.933594 C 32.828125 19.988281 32.996094 19 33 18 C 33 13.03125 28.96875 9 24 9 Z M 24 9 "/>
<path style=" stroke:none;fill-rule:nonzero;fill:rgb(64.705882%,91.372549%,54.901961%);fill-opacity:1;" d="M 27 18 C 27 19.65625 25.65625 21 24 21 C 22.34375 21 21 19.65625 21 18 C 21 16.34375 22.34375 15 24 15 C 25.65625 15 27 16.34375 27 18 Z M 27 18 "/>
<path style=" stroke:none;fill-rule:nonzero;fill:rgb(92.156863%,58.431373%,58.431373%);fill-opacity:1;" d="M 19.5 30 C 19.5 31.65625 18.15625 33 16.5 33 C 14.84375 33 13.5 31.65625 13.5 30 C 13.5 28.34375 14.84375 27 16.5 27 C 18.15625 27 19.5 28.34375 19.5 30 Z M 19.5 30 "/>
<path style=" stroke:none;fill-rule:nonzero;fill:rgb(54.901961%,80.392157%,89.411765%);fill-opacity:1;" d="M 34.5 30 C 34.5 31.65625 33.15625 33 31.5 33 C 29.84375 33 28.5 31.65625 28.5 30 C 28.5 28.34375 29.84375 27 31.5 27 C 33.15625 27 34.5 28.34375 34.5 30 Z M 34.5 30 "/>
</g>
</svg>
