<?xml version="1.0" encoding="UTF-8"?>
<svg xmlns="http://www.w3.org/2000/svg" xmlns:xlink="http://www.w3.org/1999/xlink" width="48pt" height="48pt" viewBox="0 0 48 48" version="1.1">
<g id="surface1">
<path style=" stroke:none;fill-rule:evenodd;fill:rgb(85.490196%,24.313725%,27.058824%);fill-opacity:1;" d="M 11.207031 2.847656 L 36.792969 2.847656 C 41.40625 2.847656 45.152344 6.59375 45.152344 11.207031 L 45.152344 36.792969 C 45.152344 41.40625 41.40625 45.152344 36.792969 45.152344 L 11.207031 45.152344 C 6.59375 45.152344 2.847656 41.40625 2.847656 36.792969 L 2.847656 11.207031 C 2.847656 6.59375 6.59375 2.847656 11.207031 2.847656 Z M 11.207031 2.847656 "/>
<path style=" stroke:none;fill-rule:nonzero;fill:rgb(100%,100%,100%);fill-opacity:1;" d="M 12.296875 9.175781 C 11.613281 9.167969 10.957031 9.402344 10.46875 9.839844 C 9.984375 10.277344 9.707031 10.878906 9.707031 11.503906 L 9.707031 36.5 C 9.707031 37.328125 10.191406 38.09375 10.972656 38.511719 C 11.753906 38.925781 12.71875 38.925781 13.5 38.511719 L 25.265625 32.261719 L 37.027344 26.015625 C 37.8125 25.597656 38.292969 24.832031 38.292969 24 C 38.292969 23.171875 37.8125 22.402344 37.027344 21.984375 L 25.265625 15.738281 L 13.5 9.488281 C 13.136719 9.296875 12.71875 9.1875 12.296875 9.175781 Z M 12.296875 9.175781 "/>
<path style=" stroke:none;fill-rule:nonzero;fill:rgb(85.490196%,24.313725%,27.058824%);fill-opacity:1;" d="M 18.96875 17.644531 L 20.558594 17.644531 C 21 17.644531 21.355469 17.980469 21.355469 18.390625 L 21.355469 24.316406 C 21.355469 24.730469 21 25.058594 20.558594 25.058594 L 18.96875 25.058594 C 18.53125 25.058594 18.175781 24.730469 18.175781 24.316406 L 18.175781 18.390625 C 18.175781 17.980469 18.53125 17.644531 18.96875 17.644531 Z M 18.96875 17.644531 "/>
<path style=" stroke:none;fill-rule:nonzero;fill:rgb(85.490196%,24.313725%,27.058824%);fill-opacity:1;" d="M 14.871094 24 C 14.777344 24 14.6875 24.011719 14.59375 24.027344 C 14.328125 24.078125 14.109375 24.203125 14.003906 24.363281 C 13.902344 24.527344 13.925781 24.707031 14.066406 24.859375 L 18.957031 30.066406 C 19.125 30.246094 19.433594 30.355469 19.765625 30.355469 C 20.097656 30.355469 20.40625 30.246094 20.574219 30.066406 L 25.464844 24.859375 C 25.628906 24.683594 25.628906 24.464844 25.464844 24.285156 C 25.296875 24.109375 24.988281 24 24.660156 24 Z M 14.871094 24 "/>
</g>
</svg>
