<?xml version="1.0" encoding="UTF-8"?>
<svg xmlns="http://www.w3.org/2000/svg" xmlns:xlink="http://www.w3.org/1999/xlink" width="48pt" height="48pt" viewBox="0 0 48 48" version="1.1">
<g id="surface1">
<path style=" stroke:none;fill-rule:evenodd;fill:rgb(76.078431%,20.784314%,16.470588%);fill-opacity:1;" d="M 11.207031 2.847656 L 36.792969 2.847656 C 41.40625 2.847656 45.152344 6.59375 45.152344 11.207031 L 45.152344 36.792969 C 45.152344 41.40625 41.40625 45.152344 36.792969 45.152344 L 11.207031 45.152344 C 6.59375 45.152344 2.847656 41.40625 2.847656 36.792969 L 2.847656 11.207031 C 2.847656 6.59375 6.59375 2.847656 11.207031 2.847656 Z M 11.207031 2.847656 "/>
<path style=" stroke:none;fill-rule:nonzero;fill:rgb(100%,100%,100%);fill-opacity:1;" d="M 36.125 12 L 39.324219 12 C 39.761719 12 40.121094 12.378906 40.121094 12.855469 L 40.121094 35.097656 C 40.121094 35.574219 39.761719 35.957031 39.324219 35.957031 L 36.125 35.957031 C 35.6875 35.957031 35.328125 35.574219 35.328125 35.097656 L 35.328125 12.855469 C 35.328125 12.378906 35.6875 12 36.125 12 Z M 36.125 12 "/>
<path style=" stroke:none;fill-rule:nonzero;fill:rgb(100%,100%,100%);fill-opacity:1;" d="M 22.949219 12 L 26.144531 12 C 26.582031 12 26.941406 12.378906 26.941406 12.855469 L 26.941406 35.097656 C 26.941406 35.574219 26.582031 35.957031 26.144531 35.957031 L 22.949219 35.957031 C 22.511719 35.957031 22.152344 35.574219 22.152344 35.097656 L 22.152344 12.855469 C 22.152344 12.378906 22.511719 12 22.949219 12 Z M 22.949219 12 "/>
<path style=" stroke:none;fill-rule:nonzero;fill:rgb(100%,100%,100%);fill-opacity:1;" d="M 8.574219 12 L 11.769531 12 C 12.207031 12 12.566406 12.378906 12.566406 12.855469 L 12.566406 35.097656 C 12.566406 35.574219 12.207031 35.957031 11.769531 35.957031 L 8.574219 35.957031 C 8.136719 35.957031 7.777344 35.574219 7.777344 35.097656 L 7.777344 12.855469 C 7.777344 12.378906 8.136719 12 8.574219 12 Z M 8.574219 12 "/>
<path style=" stroke:none;fill-rule:nonzero;fill:rgb(84.705882%,33.72549%,30.196078%);fill-opacity:1;" d="M 19.738281 12.675781 L 19.738281 15.875 C 19.738281 16.3125 19.359375 16.671875 18.886719 16.671875 L 8.613281 16.671875 C 8.144531 16.671875 7.761719 16.3125 7.761719 15.875 L 7.761719 12.675781 C 7.761719 12.238281 8.144531 11.878906 8.613281 11.878906 L 18.886719 11.878906 C 19.359375 11.878906 19.738281 12.238281 19.738281 12.675781 Z M 19.738281 12.675781 "/>
<path style=" stroke:none;fill-rule:nonzero;fill:rgb(84.705882%,33.72549%,30.196078%);fill-opacity:1;" d="M 19.738281 32.125 L 19.738281 35.324219 C 19.738281 35.761719 19.359375 36.121094 18.886719 36.121094 L 8.613281 36.121094 C 8.144531 36.121094 7.761719 35.761719 7.761719 35.324219 L 7.761719 32.125 C 7.761719 31.6875 8.144531 31.328125 8.613281 31.328125 L 18.886719 31.328125 C 19.359375 31.328125 19.738281 31.6875 19.738281 32.125 Z M 19.738281 32.125 "/>
<path style=" stroke:none;fill-rule:nonzero;fill:rgb(84.705882%,33.72549%,30.196078%);fill-opacity:1;" d="M 23.21875 11.910156 C 22.792969 11.910156 22.402344 12.097656 22.191406 12.40625 C 21.980469 12.707031 21.980469 13.082031 22.191406 13.386719 L 30.109375 24.769531 C 30.3125 25.0625 30.675781 25.246094 31.078125 25.261719 C 31.527344 25.277344 31.941406 25.089844 32.160156 24.769531 L 40.078125 13.386719 C 40.292969 13.082031 40.292969 12.707031 40.078125 12.40625 C 39.871094 12.097656 39.480469 11.910156 39.050781 11.910156 Z M 23.21875 11.910156 "/>
</g>
</svg>
