<?xml version="1.0" encoding="UTF-8"?>
<svg xmlns="http://www.w3.org/2000/svg" xmlns:xlink="http://www.w3.org/1999/xlink" width="48pt" height="48pt" viewBox="0 0 48 48" version="1.1">
<g id="surface1">
<path style=" stroke:none;fill-rule:evenodd;fill:rgb(98.431373%,40%,31.764706%);fill-opacity:1;" d="M 11.207031 2.847656 L 36.792969 2.847656 C 41.40625 2.847656 45.152344 6.59375 45.152344 11.207031 L 45.152344 36.792969 C 45.152344 41.40625 41.40625 45.152344 36.792969 45.152344 L 11.207031 45.152344 C 6.59375 45.152344 2.847656 41.40625 2.847656 36.792969 L 2.847656 11.207031 C 2.847656 6.59375 6.59375 2.847656 11.207031 2.847656 Z M 11.207031 2.847656 "/>
<path style=" stroke:none;fill-rule:evenodd;fill:rgb(100%,100%,100%);fill-opacity:1;" d="M 21.59375 15.027344 C 21.59375 15.027344 21.207031 15.019531 21.042969 15.042969 C 17.269531 15.019531 15.160156 19.144531 13.300781 21.453125 C 12.480469 22.472656 11.824219 23.285156 11.824219 23.285156 C 10.402344 24.753906 8.453125 26.28125 6.847656 27.203125 C 6.921875 27.738281 7.011719 28.269531 7.128906 28.800781 C 7.730469 28.535156 8.4375 28.269531 8.730469 28.042969 C 10.3125 26.769531 13.082031 24.703125 13.363281 24.703125 C 13.644531 24.703125 14.128906 24.589844 14.332031 25.285156 C 14.535156 25.988281 14.066406 26.824219 14.066406 26.824219 C 14.066406 26.824219 13.453125 27.871094 13.472656 28.449219 C 13.765625 30.519531 15.4375 32.597656 17.136719 32.886719 C 18.359375 33.050781 20.167969 32.941406 20.167969 32.941406 L 20.203125 32.636719 C 20.160156 32.167969 19.207031 31.96875 19.207031 31.96875 C 19.199219 31.972656 17.988281 32.203125 17.464844 31.957031 C 16.574219 31.550781 15.527344 29.941406 15.527344 29.738281 C 15.527344 29.535156 15.828125 28.621094 15.828125 28.621094 C 15.828125 28.621094 16.8125 28.753906 17.136719 28.753906 C 17.464844 28.753906 18.308594 28.796875 18.308594 28.796875 L 18.9375 29.769531 C 19.136719 30.15625 19.386719 29.964844 19.714844 30.050781 L 21.121094 30.066406 L 22.09375 30.046875 L 22.09375 29.550781 C 22.09375 30.046875 22.09375 29.082031 21.464844 29.066406 C 20.917969 29.042969 20.203125 28.96875 20.144531 28.777344 C 20.042969 28.449219 20.183594 27.609375 20.183594 27.609375 C 20.183594 27.609375 20.886719 27.269531 22.371094 27.5625 C 23.855469 27.855469 25.542969 29.082031 25.542969 29.082031 C 25.113281 29.863281 24.730469 30.03125 24.652344 30.832031 C 24.574219 31.5625 24.578125 31.5625 25.050781 31.5625 L 27.328125 31.5625 C 27.328125 31.5625 27.328125 30.597656 26.675781 30.644531 C 26.21875 30.628906 25.964844 30.605469 25.964844 30.566406 C 25.964844 30.386719 26.839844 29.613281 26.839844 29.613281 L 27.457031 29.167969 C 27.457031 29.167969 28.324219 29.75 29.4375 30.03125 C 30.546875 30.316406 31.9375 30.175781 31.9375 30.175781 C 32.371094 30.4375 32.453125 30.65625 32.671875 31.03125 C 32.84375 31.703125 32.84375 31.5625 33.21875 31.578125 C 34.035156 31.597656 34.734375 31.5625 35.535156 31.503906 C 35.535156 31.503906 35.597656 30.597656 34.265625 30.597656 C 34.265625 30.597656 33.777344 30.292969 33.6875 29.832031 C 33.597656 29.375 33.652344 28.171875 33.652344 28.171875 L 34.3125 28.113281 L 35.183594 28.859375 L 35.722656 28.90625 L 36.472656 30.113281 C 36.472656 30.113281 37.96875 30.230469 38.472656 30.035156 C 38.972656 29.84375 39.878906 29.339844 40.40625 28.769531 C 40.933594 28.203125 41.28125 26.859375 41.105469 26.097656 C 40.925781 25.34375 39.949219 24.4375 39.949219 24.4375 C 37.871094 22.46875 34.636719 19.175781 32.628906 19.15625 C 32.308594 19.15625 31.511719 19.910156 31.050781 19.578125 C 28.175781 17.597656 25.035156 15.167969 21.59375 15.027344 Z M 35.597656 23.292969 C 36.359375 23.292969 36.980469 23.90625 36.980469 24.667969 C 36.980469 25.425781 36.359375 26.046875 35.597656 26.046875 C 34.839844 26.046875 34.222656 25.433594 34.222656 24.667969 C 34.222656 23.90625 34.839844 23.292969 35.597656 23.292969 Z M 35.597656 23.292969 "/>
</g>
</svg>
