<?xml version="1.0" encoding="UTF-8"?>
<svg xmlns="http://www.w3.org/2000/svg" xmlns:xlink="http://www.w3.org/1999/xlink" width="48pt" height="48pt" viewBox="0 0 48 48" version="1.1">
<g id="surface1">
<path style=" stroke:none;fill-rule:evenodd;fill:rgb(90.196078%,90.196078%,90.196078%);fill-opacity:1;" d="M 11.207031 2.847656 L 36.792969 2.847656 C 41.40625 2.847656 45.152344 6.59375 45.152344 11.207031 L 45.152344 36.792969 C 45.152344 41.40625 41.40625 45.152344 36.792969 45.152344 L 11.207031 45.152344 C 6.59375 45.152344 2.847656 41.40625 2.847656 36.792969 L 2.847656 11.207031 C 2.847656 6.59375 6.59375 2.847656 11.207031 2.847656 Z M 11.207031 2.847656 "/>
<path style=" stroke:none;fill-rule:nonzero;fill:rgb(94.901961%,45.490196%,13.72549%);fill-opacity:1;" d="M 24.636719 8.582031 C 27.96875 15.964844 42.707031 34.152344 6.890625 31.375 C 32.5 42.59375 52.53125 32.988281 24.636719 8.582031 Z M 24.636719 8.582031 "/>
<path style=" stroke:none;fill-rule:nonzero;fill:rgb(11.372549%,29.019608%,42.352941%);fill-opacity:1;" d="M 32.34375 16.371094 C 34.855469 16.285156 37.761719 16.363281 41.109375 16.625 C 36.878906 14.769531 32.832031 13.535156 29.097656 12.796875 C 29.144531 12.839844 29.199219 12.890625 29.238281 12.933594 C 29.933594 13.640625 30.578125 14.328125 31.183594 15.003906 C 31.59375 15.46875 31.964844 15.917969 32.34375 16.371094 Z M 32.34375 16.371094 "/>
<path style=" stroke:none;fill-rule:nonzero;fill:rgb(11.372549%,29.019608%,42.352941%);fill-opacity:1;" d="M 21.972656 12.011719 C 10.3125 11.941406 5.03125 18.894531 15.582031 31.578125 C 16.542969 32.730469 17.605469 33.917969 18.828125 35.15625 C 20.171875 36.519531 21.675781 37.941406 23.363281 39.417969 C 22.878906 38.347656 22.15625 37.019531 21.386719 35.597656 C 20.652344 34.25 19.894531 32.8125 19.234375 31.3125 C 16.449219 25.011719 15.675781 18.121094 28.691406 16.640625 C 28.535156 16.292969 28.394531 15.941406 28.234375 15.597656 C 27.6875 14.464844 27.105469 13.390625 26.542969 12.355469 C 24.9375 12.128906 23.40625 12.015625 21.972656 12.011719 Z M 21.972656 12.011719 "/>
<path style=" stroke:none;fill-rule:nonzero;fill:rgb(94.901961%,45.490196%,13.72549%);fill-opacity:1;" d="M 26.542969 12.355469 C 27.105469 13.390625 27.6875 14.464844 28.234375 15.597656 C 28.394531 15.941406 28.535156 16.292969 28.691406 16.640625 C 29.8125 16.511719 31.011719 16.410156 32.34375 16.371094 C 31.964844 15.917969 31.59375 15.46875 31.183594 15.003906 C 30.578125 14.328125 29.933594 13.640625 29.238281 12.933594 C 29.199219 12.890625 29.144531 12.839844 29.097656 12.796875 C 28.230469 12.621094 27.375 12.46875 26.542969 12.355469 Z M 26.542969 12.355469 "/>
</g>
</svg>
