<?xml version="1.0" encoding="UTF-8"?>
<svg xmlns="http://www.w3.org/2000/svg" xmlns:xlink="http://www.w3.org/1999/xlink" width="48pt" height="48pt" viewBox="0 0 48 48" version="1.1">
<g id="surface1">
<path style=" stroke:none;fill-rule:evenodd;fill:rgb(30.980392%,30.980392%,30.980392%);fill-opacity:1;" d="M 11.207031 2.847656 L 36.792969 2.847656 C 41.40625 2.847656 45.152344 6.59375 45.152344 11.207031 L 45.152344 36.792969 C 45.152344 41.40625 41.40625 45.152344 36.792969 45.152344 L 11.207031 45.152344 C 6.59375 45.152344 2.847656 41.40625 2.847656 36.792969 L 2.847656 11.207031 C 2.847656 6.59375 6.59375 2.847656 11.207031 2.847656 Z M 11.207031 2.847656 "/>
<path style=" stroke:none;fill-rule:nonzero;fill:rgb(100%,100%,100%);fill-opacity:1;" d="M 11 14.25 L 37 14.25 C 38.105469 14.25 39 15.089844 39 16.125 L 39 19.875 C 39 20.910156 38.105469 21.75 37 21.75 L 11 21.75 C 9.894531 21.75 9 20.910156 9 19.875 L 9 16.125 C 9 15.089844 9.894531 14.25 11 14.25 Z M 11 14.25 "/>
<path style=" stroke:none;fill-rule:nonzero;fill:rgb(100%,100%,100%);fill-opacity:1;" d="M 11 26.25 L 37 26.25 C 38.105469 26.25 39 27.089844 39 28.125 L 39 31.875 C 39 32.910156 38.105469 33.75 37 33.75 L 11 33.75 C 9.894531 33.75 9 32.910156 9 31.875 L 9 28.125 C 9 27.089844 9.894531 26.25 11 26.25 Z M 11 26.25 "/>
<path style=" stroke:none;fill-rule:nonzero;fill:rgb(30.980392%,62.745098%,100%);fill-opacity:1;" d="M 15 18 C 15 19.246094 13.996094 20.25 12.75 20.25 C 11.503906 20.25 10.5 19.246094 10.5 18 C 10.5 16.753906 11.503906 15.75 12.75 15.75 C 13.996094 15.75 15 16.753906 15 18 Z M 15 18 "/>
<path style=" stroke:none;fill-rule:nonzero;fill:rgb(100%,30.980392%,30.980392%);fill-opacity:1;" d="M 15 30 C 15 31.246094 13.996094 32.25 12.75 32.25 C 11.503906 32.25 10.5 31.246094 10.5 30 C 10.5 28.753906 11.503906 27.75 12.75 27.75 C 13.996094 27.75 15 28.753906 15 30 Z M 15 30 "/>
<path style=" stroke:none;fill-rule:nonzero;fill:rgb(30.980392%,62.745098%,100%);fill-opacity:1;" d="M 22.5 18 C 22.5 19.246094 21.496094 20.25 20.25 20.25 C 19.003906 20.25 18 19.246094 18 18 C 18 16.753906 19.003906 15.75 20.25 15.75 C 21.496094 15.75 22.5 16.753906 22.5 18 Z M 22.5 18 "/>
<path style=" stroke:none;fill-rule:nonzero;fill:rgb(100%,30.980392%,30.980392%);fill-opacity:1;" d="M 22.5 30 C 22.5 31.246094 21.496094 32.25 20.25 32.25 C 19.003906 32.25 18 31.246094 18 30 C 18 28.753906 19.003906 27.75 20.25 27.75 C 21.496094 27.75 22.5 28.753906 22.5 30 Z M 22.5 30 "/>
<path style=" stroke:none;fill-rule:nonzero;fill:rgb(30.980392%,62.745098%,100%);fill-opacity:1;" d="M 30 18 C 30 19.246094 28.996094 20.25 27.75 20.25 C 26.503906 20.25 25.5 19.246094 25.5 18 C 25.5 16.753906 26.503906 15.75 27.75 15.75 C 28.996094 15.75 30 16.753906 30 18 Z M 30 18 "/>
<path style=" stroke:none;fill-rule:nonzero;fill:rgb(100%,30.980392%,30.980392%);fill-opacity:1;" d="M 30 30 C 30 31.246094 28.996094 32.25 27.75 32.25 C 26.503906 32.25 25.5 31.246094 25.5 30 C 25.5 28.753906 26.503906 27.75 27.75 27.75 C 28.996094 27.75 30 28.753906 30 30 Z M 30 30 "/>
<path style=" stroke:none;fill-rule:evenodd;fill:rgb(30.980392%,30.980392%,30.980392%);fill-opacity:1;" d="M 11.207031 2.847656 L 36.792969 2.847656 C 41.40625 2.847656 45.152344 6.59375 45.152344 11.207031 L 45.152344 36.792969 C 45.152344 41.40625 41.40625 45.152344 36.792969 45.152344 L 11.207031 45.152344 C 6.59375 45.152344 2.847656 41.40625 2.847656 36.792969 L 2.847656 11.207031 C 2.847656 6.59375 6.59375 2.847656 11.207031 2.847656 Z M 11.207031 2.847656 "/>
<path style=" stroke:none;fill-rule:nonzero;fill:rgb(100%,100%,100%);fill-opacity:1;" d="M 11 14.25 L 37 14.25 C 38.105469 14.25 39 15.089844 39 16.125 L 39 19.875 C 39 20.910156 38.105469 21.75 37 21.75 L 11 21.75 C 9.894531 21.75 9 20.910156 9 19.875 L 9 16.125 C 9 15.089844 9.894531 14.25 11 14.25 Z M 11 14.25 "/>
<path style=" stroke:none;fill-rule:nonzero;fill:rgb(100%,100%,100%);fill-opacity:1;" d="M 11 26.25 L 37 26.25 C 38.105469 26.25 39 27.089844 39 28.125 L 39 31.875 C 39 32.910156 38.105469 33.75 37 33.75 L 11 33.75 C 9.894531 33.75 9 32.910156 9 31.875 L 9 28.125 C 9 27.089844 9.894531 26.25 11 26.25 Z M 11 26.25 "/>
<path style=" stroke:none;fill-rule:nonzero;fill:rgb(30.980392%,62.745098%,100%);fill-opacity:1;" d="M 15 18 C 15 19.246094 13.996094 20.25 12.75 20.25 C 11.503906 20.25 10.5 19.246094 10.5 18 C 10.5 16.753906 11.503906 15.75 12.75 15.75 C 13.996094 15.75 15 16.753906 15 18 Z M 15 18 "/>
<path style=" stroke:none;fill-rule:nonzero;fill:rgb(100%,30.980392%,30.980392%);fill-opacity:1;" d="M 15 30 C 15 31.246094 13.996094 32.25 12.75 32.25 C 11.503906 32.25 10.5 31.246094 10.5 30 C 10.5 28.753906 11.503906 27.75 12.75 27.75 C 13.996094 27.75 15 28.753906 15 30 Z M 15 30 "/>
<path style=" stroke:none;fill-rule:nonzero;fill:rgb(30.980392%,62.745098%,100%);fill-opacity:1;" d="M 22.5 18 C 22.5 19.246094 21.496094 20.25 20.25 20.25 C 19.003906 20.25 18 19.246094 18 18 C 18 16.753906 19.003906 15.75 20.25 15.75 C 21.496094 15.75 22.5 16.753906 22.5 18 Z M 22.5 18 "/>
<path style=" stroke:none;fill-rule:nonzero;fill:rgb(100%,30.980392%,30.980392%);fill-opacity:1;" d="M 22.5 30 C 22.5 31.246094 21.496094 32.25 20.25 32.25 C 19.003906 32.25 18 31.246094 18 30 C 18 28.753906 19.003906 27.75 20.25 27.75 C 21.496094 27.75 22.5 28.753906 22.5 30 Z M 22.5 30 "/>
<path style=" stroke:none;fill-rule:nonzero;fill:rgb(30.980392%,62.745098%,100%);fill-opacity:1;" d="M 30 18 C 30 19.246094 28.996094 20.25 27.75 20.25 C 26.503906 20.25 25.5 19.246094 25.5 18 C 25.5 16.753906 26.503906 15.75 27.75 15.75 C 28.996094 15.75 30 16.753906 30 18 Z M 30 18 "/>
<path style=" stroke:none;fill-rule:nonzero;fill:rgb(100%,30.980392%,30.980392%);fill-opacity:1;" d="M 30 30 C 30 31.246094 28.996094 32.25 27.75 32.25 C 26.503906 32.25 25.5 31.246094 25.5 30 C 25.5 28.753906 26.503906 27.75 27.75 27.75 C 28.996094 27.75 30 28.753906 30 30 Z M 30 30 "/>
</g>
</svg>
