<?xml version="1.0" encoding="UTF-8"?>
<svg xmlns="http://www.w3.org/2000/svg" xmlns:xlink="http://www.w3.org/1999/xlink" width="48pt" height="48pt" viewBox="0 0 48 48" version="1.1">
<defs>
<radialGradient id="radial0" gradientUnits="userSpaceOnUse" cx="24.391607" cy="16.559441" fx="24.391607" fy="16.559441" r="14.101694" gradientTransform="matrix(2.333109,0,0,2.333109,-33.076115,-14.802816)">
<stop offset="0" style="stop-color:rgb(33.72549%,34.117647%,16.862745%);stop-opacity:1;"/>
<stop offset="1" style="stop-color:rgb(10.196078%,10.980392%,5.490196%);stop-opacity:1;"/>
</radialGradient>
</defs>
<g id="surface1">
<path style=" stroke:none;fill-rule:evenodd;fill:rgb(33.72549%,34.117647%,16.862745%);fill-opacity:1;" d="M 11.042969 2.675781 L 36.621094 2.675781 C 41.238281 2.675781 44.984375 6.421875 44.984375 11.042969 L 44.984375 36.621094 C 44.984375 41.238281 41.238281 44.984375 36.621094 44.984375 L 11.042969 44.984375 C 6.421875 44.984375 2.675781 41.238281 2.675781 36.621094 L 2.675781 11.042969 C 2.675781 6.421875 6.421875 2.675781 11.042969 2.675781 Z M 11.042969 2.675781 "/>
<path style=" stroke:none;fill-rule:evenodd;fill:rgb(13.333333%,14.509804%,7.843137%);fill-opacity:1;" d="M 26.730469 44.984375 C 25.542969 44.472656 24.03125 44.027344 23.050781 43.46875 C 20.824219 42.199219 19.105469 40.816406 17.753906 39.378906 C 16.402344 37.9375 15.421875 36.4375 14.644531 34.925781 C 13.875 33.410156 13.324219 31.878906 12.828125 30.378906 C 12.339844 28.875 11.90625 27.40625 11.394531 26.011719 C 10.878906 24.613281 10.277344 23.292969 9.4375 22.089844 C 8.597656 20.886719 7.527344 19.800781 6.0625 18.886719 C 5.191406 18.339844 3.855469 17.988281 2.683594 17.574219 L 2.683594 36.621094 C 2.683594 41.253906 6.410156 44.984375 11.042969 44.984375 Z M 26.730469 44.984375 "/>
<path style=" stroke:none;fill-rule:evenodd;fill:url(#radial0);" d="M 19.144531 2.683594 L 11.042969 2.683594 C 6.410156 2.683594 2.683594 6.410156 2.683594 11.042969 L 2.683594 17.574219 C 3.855469 17.988281 5.191406 18.339844 6.0625 18.886719 C 7.527344 19.800781 8.597656 20.886719 9.4375 22.089844 C 10.277344 23.292969 10.878906 24.613281 11.394531 26.011719 C 11.90625 27.40625 12.339844 28.875 12.828125 30.378906 C 13.324219 31.878906 13.875 33.410156 14.644531 34.925781 C 15.421875 36.4375 16.402344 37.9375 17.753906 39.378906 C 19.105469 40.816406 20.824219 42.199219 23.050781 43.46875 C 24.03125 44.027344 25.542969 44.472656 26.730469 44.984375 L 36.621094 44.984375 C 41.253906 44.984375 44.984375 41.253906 44.984375 36.621094 L 44.984375 30.84375 C 44 30.464844 42.792969 30.171875 42.035156 29.699219 C 40.574219 28.777344 39.496094 27.699219 38.65625 26.496094 C 37.816406 25.292969 37.21875 23.96875 36.703125 22.574219 C 36.1875 21.175781 35.761719 19.707031 35.265625 18.203125 C 34.777344 16.703125 34.21875 15.171875 33.449219 13.65625 C 32.675781 12.140625 31.691406 10.644531 30.339844 9.203125 C 28.988281 7.765625 27.269531 6.386719 25.042969 5.113281 C 23.472656 4.21875 21.277344 3.457031 19.144531 2.683594 Z M 19.144531 2.683594 "/>
<path style=" stroke:none;fill-rule:evenodd;fill:rgb(33.72549%,34.117647%,16.862745%);fill-opacity:1;" d="M 19.144531 2.683594 C 21.277344 3.457031 23.472656 4.21875 25.042969 5.113281 C 27.269531 6.386719 28.988281 7.765625 30.339844 9.203125 C 31.691406 10.644531 32.675781 12.140625 33.449219 13.65625 C 34.21875 15.171875 34.777344 16.703125 35.265625 18.203125 C 35.761719 19.707031 36.1875 21.175781 36.703125 22.574219 C 37.21875 23.96875 37.816406 25.292969 38.65625 26.496094 C 39.496094 27.699219 40.574219 28.777344 42.035156 29.699219 C 42.792969 30.171875 44 30.464844 44.984375 30.84375 L 44.984375 11.042969 C 44.984375 6.410156 41.253906 2.683594 36.621094 2.683594 Z M 19.144531 2.683594 "/>
<path style=" stroke:none;fill-rule:nonzero;fill:rgb(100%,100%,100%);fill-opacity:1;" d="M 27.703125 29.511719 C 27.878906 29.347656 27.839844 29.035156 27.589844 28.6875 C 27.375 28.378906 27.375 28.375 27.21875 27.1875 C 27.066406 26.046875 27.050781 25.980469 26.839844 25.566406 C 26.691406 25.285156 26.535156 25.082031 26.390625 24.980469 C 26.125 24.78125 25.996094 24.433594 26.105469 24.222656 C 26.167969 24.109375 26.144531 24.058594 25.871094 23.707031 C 25.703125 23.496094 25.53125 23.285156 25.496094 23.246094 C 25.453125 23.207031 25.34375 23.058594 25.238281 22.921875 C 25.113281 22.738281 25.03125 22.671875 24.964844 22.699219 C 24.886719 22.71875 24.859375 22.683594 24.839844 22.511719 C 24.824219 22.394531 24.792969 22.25 24.769531 22.199219 C 24.734375 22.113281 24.753906 22.097656 24.871094 22.097656 C 25.066406 22.097656 25.136719 21.953125 25.136719 21.503906 L 25.136719 21.128906 L 25.578125 21.128906 C 25.816406 21.128906 26.105469 21.105469 26.214844 21.074219 C 26.46875 21 26.714844 20.761719 26.84375 20.464844 C 26.957031 20.207031 27.0625 20.160156 27.183594 20.308594 C 27.230469 20.363281 27.328125 20.390625 27.433594 20.378906 C 27.59375 20.363281 27.609375 20.34375 27.625 20.152344 C 27.636719 20.03125 27.660156 19.9375 27.683594 19.9375 C 27.707031 19.9375 27.839844 20.214844 27.980469 20.546875 C 28.222656 21.128906 28.246094 21.160156 28.402344 21.144531 C 28.488281 21.140625 28.574219 21.121094 28.59375 21.105469 C 28.609375 21.089844 28.527344 20.8125 28.40625 20.488281 C 28.285156 20.171875 28.175781 19.878906 28.167969 19.847656 C 28.152344 19.8125 28.253906 19.738281 28.390625 19.683594 C 28.582031 19.605469 28.652344 19.535156 28.691406 19.402344 L 28.746094 19.222656 L 29.402344 19.191406 C 29.761719 19.171875 30.058594 19.152344 30.066406 19.152344 C 30.074219 19.144531 30.082031 19.105469 30.082031 19.058594 C 30.082031 19.011719 30.011719 18.96875 29.894531 18.957031 C 29.714844 18.941406 29.714844 18.9375 29.699219 18.621094 C 29.691406 18.511719 29.5 18.515625 29.402344 18.464844 C 29.402344 18.621094 29.386719 18.628906 29.171875 18.628906 C 29.011719 18.628906 28.941406 18.605469 28.941406 18.542969 C 28.941406 18.449219 28.847656 18.425781 28.824219 18.515625 C 28.8125 18.546875 28.683594 18.589844 28.53125 18.609375 L 28.261719 18.644531 L 28.261719 18.472656 C 28.261719 18.378906 28.230469 18.285156 28.183594 18.269531 C 28.09375 18.234375 27.980469 18.332031 27.980469 18.441406 C 27.980469 18.5 27.839844 18.515625 27.410156 18.515625 L 26.839844 18.515625 L 26.839844 18.34375 C 26.839844 18.1875 26.824219 18.175781 26.640625 18.175781 C 26.511719 18.175781 26.441406 18.203125 26.441406 18.253906 C 26.441406 18.347656 26.324219 18.402344 26.097656 18.402344 C 25.996094 18.402344 25.910156 18.441406 25.875 18.515625 C 25.796875 18.667969 25.441406 18.683594 25.5 18.535156 C 25.847656 17.636719 25.355469 16.78125 24.496094 16.800781 C 23.941406 16.8125 23.605469 17.285156 23.597656 18.042969 C 23.597656 18.441406 23.597656 18.449219 23.417969 18.519531 C 22.816406 18.769531 22.386719 19.722656 22.410156 20.753906 C 22.417969 21.082031 22.386719 21.425781 22.316406 21.699219 C 22.253906 21.984375 22.21875 22.40625 22.207031 22.980469 C 22.199219 23.761719 22.175781 23.890625 21.996094 24.542969 C 21.828125 25.136719 21.71875 25.652344 21.578125 26.453125 C 21.566406 26.515625 21.417969 26.667969 21.238281 26.785156 C 20.902344 27.019531 20.667969 27.28125 20.484375 27.640625 L 20.371094 27.871094 L 20.578125 28.410156 C 20.839844 29.082031 20.832031 29.074219 21.078125 29.140625 C 21.234375 29.1875 21.332031 29.175781 21.472656 29.121094 L 21.667969 29.042969 L 21.667969 28.183594 L 21.894531 28.183594 C 22.390625 28.183594 22.769531 27.613281 23.261719 26.125 C 23.703125 24.785156 23.832031 24.425781 23.890625 24.425781 C 23.917969 24.425781 23.941406 24.453125 23.941406 24.484375 C 23.941406 24.519531 24.042969 24.707031 24.167969 24.90625 C 24.433594 25.324219 24.871094 25.753906 25.316406 26.042969 C 25.597656 26.21875 25.636719 26.265625 25.671875 26.484375 C 25.691406 26.621094 25.8125 27.035156 25.9375 27.410156 C 26.0625 27.785156 26.203125 28.296875 26.246094 28.535156 C 26.347656 29.109375 26.464844 29.269531 26.910156 29.453125 C 27.328125 29.621094 27.558594 29.640625 27.703125 29.511719 Z M 25.441406 19.808594 C 25.464844 19.675781 25.519531 19.535156 25.574219 19.496094 C 25.769531 19.347656 26.558594 19.453125 26.558594 19.625 C 26.558594 19.703125 26.386719 19.765625 26.152344 19.765625 C 26.058594 19.765625 25.953125 19.824219 25.886719 19.90625 C 25.808594 20.011719 25.71875 20.050781 25.589844 20.050781 L 25.40625 20.050781 Z M 10.652344 26.96875 C 11.160156 26.71875 11.230469 26.582031 11.253906 25.75 L 11.269531 25.050781 L 9.546875 25.050781 L 9.566406 25.566406 L 9.582031 26.078125 L 6.089844 26.078125 L 6.089844 23.121094 L 9.582031 23.121094 L 9.566406 23.613281 L 9.546875 24.105469 L 9.9375 24.066406 C 10.433594 24.027344 11 23.75 11.191406 23.464844 C 11.308594 23.300781 11.324219 23.21875 11.296875 23.015625 C 11.246094 22.636719 11.078125 22.410156 10.703125 22.230469 L 10.378906 22.066406 L 5.4375 22.066406 L 5.136719 22.203125 C 4.738281 22.386719 4.457031 22.699219 4.410156 23.015625 C 4.390625 23.152344 4.386719 23.953125 4.394531 24.796875 C 4.417969 26.519531 4.421875 26.558594 4.855469 26.855469 C 5.265625 27.140625 5.417969 27.15625 7.964844 27.140625 L 10.324219 27.128906 Z M 17.933594 27.097656 C 18.261719 27.015625 18.605469 26.765625 18.722656 26.53125 C 18.800781 26.375 18.824219 26.1875 18.824219 25.636719 C 18.824219 24.808594 18.765625 24.613281 18.433594 24.394531 C 18.015625 24.121094 17.71875 24.089844 15.597656 24.089844 L 13.652344 24.089844 L 13.652344 23.121094 L 16.238281 23.121094 C 18.800781 23.121094 18.824219 23.121094 18.824219 23.003906 C 18.824219 22.828125 18.683594 22.535156 18.53125 22.402344 C 18.457031 22.339844 18.269531 22.234375 18.113281 22.175781 C 17.847656 22.078125 17.640625 22.066406 15.355469 22.066406 L 12.886719 22.066406 L 12.574219 22.222656 C 12.203125 22.402344 11.96875 22.71875 11.910156 23.105469 C 11.847656 23.515625 11.910156 24.324219 12.019531 24.53125 C 12.144531 24.765625 12.550781 25.03125 12.921875 25.109375 C 13.089844 25.144531 13.996094 25.167969 15.160156 25.167969 L 17.121094 25.167969 L 17.121094 26.078125 L 14.5 26.078125 C 12.128906 26.078125 11.878906 26.089844 11.910156 26.167969 C 11.925781 26.21875 11.941406 26.292969 11.941406 26.332031 C 11.941406 26.566406 12.503906 26.988281 12.953125 27.09375 C 13.269531 27.171875 17.640625 27.171875 17.933594 27.097656 Z M 35.058594 26.957031 C 35.636719 26.671875 35.652344 26.613281 35.652344 25.246094 L 35.652344 24.089844 L 31.21875 24.089844 L 31.21875 24.265625 C 31.21875 24.527344 31.449219 24.792969 31.828125 24.980469 C 32.140625 25.128906 32.203125 25.140625 33.050781 25.160156 L 33.949219 25.175781 L 33.949219 26.078125 L 30.480469 26.078125 L 30.480469 23.121094 L 35.667969 23.121094 L 35.636719 22.886719 C 35.597656 22.59375 35.332031 22.308594 34.972656 22.171875 C 34.738281 22.078125 34.46875 22.066406 32.269531 22.066406 L 29.824219 22.066406 L 29.453125 22.25 C 29.207031 22.375 29.042969 22.503906 28.941406 22.644531 C 28.800781 22.855469 28.800781 22.859375 28.785156 24.464844 C 28.777344 25.457031 28.792969 26.15625 28.828125 26.292969 C 28.933594 26.683594 29.277344 26.964844 29.828125 27.105469 C 29.921875 27.128906 31.058594 27.144531 32.355469 27.140625 L 34.714844 27.128906 Z M 42.472656 27.011719 C 42.613281 26.949219 42.816406 26.796875 42.917969 26.683594 L 43.097656 26.472656 L 43.097656 24.652344 C 43.097656 23.417969 43.082031 22.792969 43.035156 22.703125 C 42.902344 22.4375 42.671875 22.265625 42.316406 22.152344 C 41.980469 22.046875 41.78125 22.042969 39.691406 22.042969 C 37.277344 22.042969 37.089844 22.058594 36.675781 22.339844 C 36.566406 22.410156 36.433594 22.558594 36.371094 22.667969 C 36.253906 22.855469 36.25 22.953125 36.25 24.625 C 36.25 26.371094 36.25 26.390625 36.378906 26.574219 C 36.449219 26.671875 36.597656 26.808594 36.707031 26.875 C 37.144531 27.144531 37.238281 27.152344 39.800781 27.140625 C 42.121094 27.128906 42.230469 27.125 42.472656 27.011719 Z M 37.925781 24.597656 L 37.925781 23.121094 L 41.421875 23.121094 L 41.390625 26.078125 L 37.925781 26.078125 Z M 37.925781 24.597656 "/>
<path style=" stroke:none;fill-rule:nonzero;fill:rgb(100%,100%,100%);fill-opacity:1;" d="M 24.328125 14.839844 C 20.277344 14.839844 16.878906 17.683594 16.011719 21.472656 L 17.234375 21.472656 C 18.078125 18.328125 20.910156 16.003906 24.328125 16.003906 C 27.746094 16.003906 30.582031 18.328125 31.421875 21.472656 L 32.644531 21.472656 C 31.777344 17.683594 28.378906 14.839844 24.328125 14.839844 Z M 16.949219 27.644531 C 18.425781 30.191406 21.183594 31.90625 24.328125 31.90625 C 27.480469 31.90625 30.230469 30.191406 31.707031 27.644531 L 30.3125 27.644531 C 28.980469 29.515625 26.808594 30.746094 24.328125 30.746094 C 21.855469 30.746094 19.675781 29.515625 18.34375 27.644531 Z M 16.949219 27.644531 "/>
</g>
</svg>
