<?xml version="1.0" encoding="UTF-8"?>
<svg xmlns="http://www.w3.org/2000/svg" xmlns:xlink="http://www.w3.org/1999/xlink" width="48pt" height="48pt" viewBox="0 0 48 48" version="1.1">
<defs>
<radialGradient id="radial0" gradientUnits="userSpaceOnUse" cx="24.391607" cy="16.559441" fx="24.391607" fy="16.559441" r="14.101694" gradientTransform="matrix(2.333109,0,0,2.333109,-32.908604,-14.635304)">
<stop offset="0" style="stop-color:rgb(33.72549%,34.117647%,16.862745%);stop-opacity:1;"/>
<stop offset="1" style="stop-color:rgb(10.196078%,10.980392%,5.490196%);stop-opacity:1;"/>
</radialGradient>
</defs>
<g id="surface1">
<path style=" stroke:none;fill-rule:evenodd;fill:rgb(33.72549%,34.117647%,16.862745%);fill-opacity:1;" d="M 11.207031 2.847656 L 36.792969 2.847656 C 41.40625 2.847656 45.152344 6.59375 45.152344 11.207031 L 45.152344 36.792969 C 45.152344 41.40625 41.40625 45.152344 36.792969 45.152344 L 11.207031 45.152344 C 6.59375 45.152344 2.847656 41.40625 2.847656 36.792969 L 2.847656 11.207031 C 2.847656 6.59375 6.59375 2.847656 11.207031 2.847656 Z M 11.207031 2.847656 "/>
<path style=" stroke:none;fill-rule:evenodd;fill:rgb(13.333333%,14.509804%,7.843137%);fill-opacity:1;" d="M 26.894531 45.152344 C 25.707031 44.640625 24.199219 44.199219 23.21875 43.640625 C 20.988281 42.363281 19.269531 40.984375 17.921875 39.546875 C 16.574219 38.105469 15.589844 36.609375 14.816406 35.09375 C 14.046875 33.578125 13.488281 32.046875 12.996094 30.546875 C 12.503906 29.046875 12.078125 27.574219 11.5625 26.175781 C 11.046875 24.78125 10.449219 23.457031 9.609375 22.253906 C 8.769531 21.058594 7.691406 19.96875 6.230469 19.050781 C 5.359375 18.511719 4.019531 18.160156 2.847656 17.738281 L 2.847656 36.785156 C 2.847656 41.421875 6.578125 45.152344 11.207031 45.152344 Z M 26.894531 45.152344 "/>
<path style=" stroke:none;fill-rule:evenodd;fill:url(#radial0);" d="M 19.3125 2.847656 L 11.207031 2.847656 C 6.578125 2.847656 2.847656 6.578125 2.847656 11.207031 L 2.847656 17.738281 C 4.019531 18.160156 5.359375 18.511719 6.230469 19.050781 C 7.691406 19.96875 8.769531 21.058594 9.609375 22.253906 C 10.449219 23.457031 11.046875 24.78125 11.5625 26.175781 C 12.078125 27.574219 12.503906 29.046875 12.996094 30.546875 C 13.488281 32.046875 14.046875 33.578125 14.816406 35.09375 C 15.589844 36.609375 16.574219 38.105469 17.921875 39.546875 C 19.269531 40.984375 20.988281 42.363281 23.21875 43.640625 C 24.199219 44.199219 25.707031 44.640625 26.894531 45.152344 L 36.785156 45.152344 C 41.421875 45.152344 45.152344 41.421875 45.152344 36.785156 L 45.152344 31.011719 C 44.167969 30.628906 42.957031 30.339844 42.203125 29.863281 C 40.738281 28.941406 39.660156 27.863281 38.824219 26.660156 C 37.984375 25.457031 37.386719 24.136719 36.871094 22.738281 C 36.355469 21.34375 35.925781 19.875 35.4375 18.375 C 34.941406 16.871094 34.386719 15.339844 33.613281 13.828125 C 32.84375 12.3125 31.859375 10.8125 30.503906 9.375 C 29.15625 7.933594 27.4375 6.550781 25.207031 5.28125 C 23.640625 4.386719 21.441406 3.625 19.3125 2.847656 Z M 19.3125 2.847656 "/>
<path style=" stroke:none;fill-rule:evenodd;fill:rgb(33.72549%,34.117647%,16.862745%);fill-opacity:1;" d="M 19.3125 2.847656 C 21.441406 3.625 23.640625 4.386719 25.207031 5.28125 C 27.4375 6.550781 29.15625 7.933594 30.503906 9.375 C 31.859375 10.8125 32.84375 12.3125 33.613281 13.828125 C 34.386719 15.339844 34.941406 16.871094 35.4375 18.375 C 35.925781 19.875 36.355469 21.34375 36.871094 22.738281 C 37.386719 24.136719 37.984375 25.457031 38.824219 26.660156 C 39.660156 27.863281 40.738281 28.941406 42.203125 29.863281 C 42.957031 30.339844 44.167969 30.628906 45.152344 31.011719 L 45.152344 11.207031 C 45.152344 6.578125 41.421875 2.847656 36.785156 2.847656 Z M 19.3125 2.847656 "/>
<path style=" stroke:none;fill-rule:nonzero;fill:rgb(100%,100%,100%);fill-opacity:1;" d="M 18.457031 36.6875 C 18.972656 36.4375 19.042969 36.300781 19.0625 35.46875 L 19.078125 34.769531 L 17.359375 34.769531 L 17.375 35.285156 L 17.394531 35.796875 L 13.894531 35.796875 L 13.894531 32.839844 L 17.394531 32.839844 L 17.355469 33.824219 L 17.746094 33.785156 C 18.238281 33.746094 18.808594 33.46875 19.003906 33.183594 C 19.113281 33.019531 19.128906 32.9375 19.105469 32.734375 C 19.050781 32.355469 18.886719 32.128906 18.515625 31.949219 L 18.1875 31.785156 L 13.246094 31.785156 L 12.949219 31.921875 C 12.546875 32.105469 12.265625 32.417969 12.21875 32.734375 C 12.199219 32.871094 12.191406 33.671875 12.203125 34.515625 C 12.222656 36.246094 12.230469 36.277344 12.660156 36.574219 C 13.074219 36.859375 13.222656 36.875 15.777344 36.859375 L 18.136719 36.847656 Z M 25.738281 36.816406 C 26.066406 36.734375 26.417969 36.484375 26.53125 36.25 C 26.609375 36.09375 26.628906 35.90625 26.628906 35.355469 C 26.636719 34.527344 26.574219 34.332031 26.238281 34.113281 C 25.824219 33.839844 25.53125 33.808594 23.40625 33.808594 L 21.457031 33.808594 L 21.457031 32.839844 L 24.046875 32.839844 C 26.609375 32.839844 26.636719 32.839844 26.636719 32.722656 C 26.636719 32.546875 26.488281 32.253906 26.34375 32.125 C 26.265625 32.058594 26.078125 31.953125 25.921875 31.894531 C 25.660156 31.796875 25.449219 31.785156 23.167969 31.785156 L 20.691406 31.785156 L 20.378906 31.941406 C 20.015625 32.121094 19.777344 32.4375 19.71875 32.824219 C 19.65625 33.234375 19.71875 34.042969 19.832031 34.25 C 19.957031 34.488281 20.359375 34.75 20.730469 34.828125 C 20.894531 34.863281 21.800781 34.886719 22.96875 34.886719 L 24.925781 34.886719 L 24.925781 35.796875 L 22.308594 35.796875 C 19.9375 35.796875 19.6875 35.808594 19.71875 35.886719 C 19.738281 35.9375 19.753906 36.011719 19.753906 36.058594 C 19.753906 36.285156 20.3125 36.707031 20.761719 36.8125 C 21.078125 36.890625 25.449219 36.890625 25.738281 36.816406 Z M 25.738281 36.816406 "/>
<path style=" stroke:none;fill-rule:nonzero;fill:rgb(100%,100%,100%);fill-opacity:1;" d="M 34.949219 36.816406 C 35.277344 36.734375 35.621094 36.484375 35.738281 36.25 C 35.816406 36.09375 35.839844 35.90625 35.839844 35.355469 C 35.839844 34.527344 35.777344 34.332031 35.441406 34.113281 C 35.03125 33.839844 34.734375 33.808594 32.609375 33.808594 L 30.667969 33.808594 L 30.667969 32.839844 L 33.25 32.839844 C 35.8125 32.839844 35.839844 32.839844 35.839844 32.722656 C 35.839844 32.546875 35.699219 32.253906 35.546875 32.125 C 35.472656 32.058594 35.285156 31.953125 35.128906 31.894531 C 34.863281 31.796875 34.65625 31.785156 32.371094 31.785156 L 29.894531 31.785156 L 29.582031 31.941406 C 29.21875 32.121094 28.984375 32.4375 28.925781 32.824219 C 28.863281 33.234375 28.925781 34.042969 29.035156 34.25 C 29.160156 34.488281 29.566406 34.75 29.933594 34.828125 C 30.105469 34.863281 31.003906 34.886719 32.171875 34.886719 L 34.128906 34.886719 L 34.128906 35.796875 L 31.511719 35.796875 C 29.144531 35.796875 28.894531 35.808594 28.925781 35.886719 C 28.941406 35.9375 28.957031 36.011719 28.957031 36.058594 C 28.957031 36.285156 29.515625 36.707031 29.96875 36.8125 C 30.28125 36.890625 34.65625 36.890625 34.949219 36.816406 Z M 34.949219 36.816406 "/>
<path style=" stroke:none;fill-rule:nonzero;fill:rgb(100%,100%,100%);fill-opacity:1;" d="M 24.339844 12.191406 C 18.199219 12.191406 13.207031 17.183594 13.207031 23.324219 C 13.207031 26.394531 14.457031 29.183594 16.472656 31.199219 L 18.296875 31.199219 C 15.9375 29.378906 14.410156 26.535156 14.410156 23.324219 C 14.410156 17.832031 18.847656 13.390625 24.339844 13.390625 C 29.832031 13.390625 34.269531 17.832031 34.269531 23.324219 C 34.269531 26.535156 32.746094 29.378906 30.386719 31.199219 L 32.207031 31.199219 C 34.222656 29.183594 35.472656 26.394531 35.472656 23.324219 C 35.472656 17.183594 30.480469 12.191406 24.339844 12.191406 Z M 24.339844 12.191406 "/>
<path style=" stroke:none;fill-rule:nonzero;fill:rgb(100%,100%,100%);fill-opacity:1;" d="M 27.457031 30.53125 C 27.660156 30.34375 27.613281 29.984375 27.328125 29.578125 C 27.074219 29.222656 27.074219 29.21875 26.894531 27.839844 C 26.71875 26.515625 26.703125 26.433594 26.453125 25.957031 C 26.28125 25.628906 26.105469 25.394531 25.9375 25.269531 C 25.625 25.042969 25.472656 24.640625 25.605469 24.394531 C 25.675781 24.261719 25.644531 24.203125 25.328125 23.796875 C 25.128906 23.546875 24.9375 23.308594 24.890625 23.261719 C 24.847656 23.214844 24.714844 23.042969 24.597656 22.878906 C 24.449219 22.671875 24.355469 22.59375 24.277344 22.621094 C 24.183594 22.652344 24.15625 22.609375 24.128906 22.40625 C 24.113281 22.269531 24.078125 22.105469 24.050781 22.042969 C 24.011719 21.949219 24.03125 21.925781 24.171875 21.925781 C 24.402344 21.925781 24.472656 21.753906 24.472656 21.238281 L 24.472656 20.800781 L 24.988281 20.800781 C 25.269531 20.800781 25.605469 20.777344 25.722656 20.738281 C 26.019531 20.65625 26.3125 20.375 26.464844 20.03125 C 26.589844 19.734375 26.714844 19.675781 26.855469 19.847656 C 26.90625 19.910156 27.019531 19.941406 27.144531 19.933594 C 27.328125 19.917969 27.347656 19.890625 27.371094 19.667969 C 27.378906 19.53125 27.410156 19.417969 27.4375 19.417969 C 27.464844 19.417969 27.613281 19.738281 27.78125 20.128906 C 28.0625 20.800781 28.089844 20.839844 28.265625 20.824219 C 28.371094 20.816406 28.46875 20.792969 28.488281 20.777344 C 28.511719 20.753906 28.410156 20.433594 28.269531 20.0625 C 28.128906 19.6875 28.003906 19.355469 27.996094 19.3125 C 27.980469 19.277344 28.097656 19.1875 28.261719 19.125 C 28.480469 19.03125 28.5625 18.953125 28.609375 18.796875 L 28.667969 18.59375 L 29.425781 18.550781 C 29.84375 18.53125 30.191406 18.503906 30.203125 18.5 C 30.214844 18.5 30.21875 18.453125 30.21875 18.402344 C 30.21875 18.339844 30.136719 18.296875 30.003906 18.28125 C 29.792969 18.265625 29.792969 18.253906 29.769531 17.890625 C 29.769531 17.761719 29.542969 17.765625 29.425781 17.703125 C 29.425781 17.886719 29.410156 17.902344 29.160156 17.902344 C 28.972656 17.902344 28.902344 17.871094 28.902344 17.800781 C 28.902344 17.691406 28.792969 17.667969 28.753906 17.765625 C 28.746094 17.800781 28.59375 17.847656 28.421875 17.875 L 28.109375 17.917969 L 28.109375 17.71875 C 28.109375 17.609375 28.066406 17.5 28.015625 17.484375 C 27.910156 17.441406 27.777344 17.558594 27.777344 17.683594 C 27.777344 17.746094 27.613281 17.765625 27.113281 17.765625 L 26.457031 17.765625 L 26.457031 17.566406 C 26.457031 17.386719 26.4375 17.371094 26.222656 17.371094 C 26.074219 17.371094 25.996094 17.402344 25.996094 17.464844 C 25.996094 17.574219 25.855469 17.636719 25.59375 17.636719 C 25.472656 17.636719 25.378906 17.683594 25.332031 17.765625 C 25.238281 17.941406 24.832031 17.964844 24.902344 17.792969 C 25.300781 16.746094 24.730469 15.753906 23.730469 15.777344 C 23.09375 15.792969 22.699219 16.34375 22.691406 17.214844 C 22.691406 17.683594 22.691406 17.6875 22.484375 17.769531 C 21.785156 18.0625 21.285156 19.171875 21.3125 20.371094 C 21.316406 20.75 21.28125 21.152344 21.207031 21.464844 C 21.128906 21.796875 21.089844 22.285156 21.078125 22.949219 C 21.0625 23.855469 21.042969 24.011719 20.832031 24.765625 C 20.640625 25.453125 20.503906 26.050781 20.34375 26.980469 C 20.332031 27.058594 20.15625 27.230469 19.953125 27.371094 C 19.558594 27.644531 19.292969 27.949219 19.078125 28.363281 L 18.941406 28.628906 L 19.1875 29.253906 C 19.484375 30.035156 19.480469 30.027344 19.765625 30.109375 C 19.941406 30.15625 20.0625 30.152344 20.230469 30.078125 L 20.449219 29.988281 L 20.449219 28.988281 L 20.714844 28.988281 C 21.292969 28.988281 21.730469 28.328125 22.296875 26.597656 C 22.8125 25.050781 22.964844 24.636719 23.03125 24.636719 C 23.0625 24.636719 23.089844 24.660156 23.089844 24.703125 C 23.089844 24.738281 23.207031 24.957031 23.355469 25.1875 C 23.65625 25.667969 24.167969 26.171875 24.6875 26.503906 C 25.015625 26.714844 25.058594 26.765625 25.097656 27.019531 C 25.121094 27.175781 25.261719 27.660156 25.40625 28.097656 C 25.550781 28.535156 25.714844 29.125 25.765625 29.40625 C 25.886719 30.066406 26.019531 30.253906 26.535156 30.464844 C 27.019531 30.660156 27.292969 30.683594 27.457031 30.53125 Z M 24.832031 19.269531 C 24.859375 19.113281 24.925781 18.953125 24.984375 18.90625 C 25.214844 18.734375 26.125 18.855469 26.125 19.050781 C 26.125 19.144531 25.925781 19.21875 25.652344 19.21875 C 25.542969 19.21875 25.425781 19.28125 25.34375 19.386719 C 25.253906 19.5 25.152344 19.550781 25.003906 19.550781 L 24.792969 19.550781 Z M 24.832031 19.269531 "/>
</g>
</svg>
