<?xml version="1.0" encoding="UTF-8"?>
<svg xmlns="http://www.w3.org/2000/svg" xmlns:xlink="http://www.w3.org/1999/xlink" width="48pt" height="48pt" viewBox="0 0 48 48" version="1.1">
<g id="surface1">
<path style=" stroke:none;fill-rule:evenodd;fill:rgb(10.980392%,45.882353%,73.72549%);fill-opacity:1;" d="M 11.207031 2.847656 L 36.792969 2.847656 C 41.40625 2.847656 45.152344 6.59375 45.152344 11.207031 L 45.152344 36.792969 C 45.152344 41.40625 41.40625 45.152344 36.792969 45.152344 L 11.207031 45.152344 C 6.59375 45.152344 2.847656 41.40625 2.847656 36.792969 L 2.847656 11.207031 C 2.847656 6.59375 6.59375 2.847656 11.207031 2.847656 Z M 11.207031 2.847656 "/>
<path style=" stroke:none;fill-rule:nonzero;fill:rgb(100%,100%,100%);fill-opacity:1;" d="M 24 6.746094 C 14.46875 6.746094 6.746094 14.46875 6.746094 24 C 6.746094 33.53125 14.46875 41.253906 24 41.253906 C 33.53125 41.253906 41.253906 33.53125 41.253906 24 C 41.253906 14.46875 33.53125 6.746094 24 6.746094 Z M 24 6.746094 "/>
<path style=" stroke:none;fill-rule:nonzero;fill:rgb(10.980392%,45.882353%,73.72549%);fill-opacity:1;" d="M 17.152344 17.21875 L 16.09375 20.917969 L 30.828125 20.917969 L 28.265625 27.082031 L 13.96875 27.082031 L 12.90625 30.78125 L 28.191406 30.78125 C 29.894531 30.75 31.644531 29.722656 32.3125 28.097656 L 34.988281 20.121094 C 35.621094 17.535156 33.285156 17.21875 31.484375 17.21875 Z M 14.1875 22.152344 L 12.90625 25.847656 L 21.4375 25.847656 L 22.71875 22.152344 Z M 14.1875 22.152344 "/>
</g>
</svg>
