<?xml version="1.0" encoding="UTF-8"?>
<svg xmlns="http://www.w3.org/2000/svg" xmlns:xlink="http://www.w3.org/1999/xlink" width="48pt" height="48pt" viewBox="0 0 48 48" version="1.1">
<g id="surface1">
<path style=" stroke:none;fill-rule:evenodd;fill:rgb(51.372549%,72.156863%,75.294118%);fill-opacity:1;" d="M 11.207031 2.847656 L 36.792969 2.847656 C 41.40625 2.847656 45.152344 6.59375 45.152344 11.207031 L 45.152344 36.792969 C 45.152344 41.40625 41.40625 45.152344 36.792969 45.152344 L 11.207031 45.152344 C 6.59375 45.152344 2.847656 41.40625 2.847656 36.792969 L 2.847656 11.207031 C 2.847656 6.59375 6.59375 2.847656 11.207031 2.847656 Z M 11.207031 2.847656 "/>
<path style=" stroke:none;fill-rule:nonzero;fill:rgb(62.352941%,85.882353%,37.254902%);fill-opacity:1;" d="M 10.871094 17.972656 C 10.089844 18.183594 9.65625 19.082031 9.894531 19.984375 L 14.5625 37.394531 C 14.800781 38.296875 15.628906 38.859375 16.40625 38.652344 C 21.324219 37.332031 24.09375 31.609375 22.566406 25.921875 C 21.042969 20.230469 15.78125 16.65625 10.871094 17.972656 Z M 10.871094 17.972656 "/>
<path style=" stroke:none;fill-rule:nonzero;fill:rgb(100%,100%,100%);fill-opacity:1;" d="M 23.113281 9.308594 C 22.144531 9.339844 21.375 10.1875 21.375 11.222656 L 21.375 36.777344 C 21.375 37.839844 22.183594 38.691406 23.175781 38.691406 L 36.371094 38.691406 C 37.003906 38.691406 37.59375 38.339844 37.921875 37.753906 C 38.246094 37.171875 38.253906 36.449219 37.949219 35.855469 L 24.75 10.296875 C 24.425781 9.667969 23.792969 9.28125 23.113281 9.308594 Z M 23.113281 9.308594 "/>
<path style="fill:none;stroke-width:2.099274;stroke-linecap:butt;stroke-linejoin:round;stroke:rgb(51.372549%,72.156863%,75.294118%);stroke-opacity:1;stroke-miterlimit:4;" d="M -30.823137 -5.594589 C -30.823137 -5.594589 -33.968971 -5.526881 -33.968971 -4.542506 C -33.968971 -3.563339 -31.169492 -1.256048 -31.169492 -0.276881 C -31.169492 0.702286 -34.317929 0.702286 -34.317929 0.702286 " transform="matrix(1.5,0,0,1.5,76.004237,33.966103)"/>
<path style=" stroke:none;fill-rule:nonzero;fill:rgb(51.372549%,72.156863%,75.294118%);fill-opacity:1;" d="M 13.71875 20.96875 C 13.621094 20.980469 13.519531 20.996094 13.421875 20.984375 L 17.121094 34.769531 C 19.207031 33.277344 20.453125 30.203125 19.527344 26.734375 C 18.667969 23.542969 16.371094 21.46875 14.011719 20.972656 C 13.910156 20.953125 13.816406 20.957031 13.71875 20.96875 Z M 13.71875 20.96875 "/>
</g>
</svg>
