<?xml version="1.0" encoding="UTF-8"?>
<svg xmlns="http://www.w3.org/2000/svg" xmlns:xlink="http://www.w3.org/1999/xlink" width="48pt" height="48pt" viewBox="0 0 48 48" version="1.1">
<g id="surface1">
<path style=" stroke:none;fill-rule:evenodd;fill:rgb(80%,80%,80%);fill-opacity:1;" d="M 11.214844 2.847656 C 6.578125 2.847656 2.847656 6.578125 2.847656 11.214844 L 2.847656 36.792969 C 2.847656 40.746094 5.621094 43.886719 9.296875 44.769531 L 9.296875 27.796875 C 9.296875 25.566406 9.660156 23.449219 10.355469 21.515625 C 11.042969 19.582031 12.058594 17.84375 13.347656 16.386719 C 14.640625 14.925781 16.207031 13.746094 18.015625 12.925781 C 19.816406 12.113281 21.859375 11.660156 24.082031 11.660156 C 26.3125 11.660156 28.347656 12.113281 30.15625 12.925781 C 31.957031 13.746094 33.53125 14.925781 34.824219 16.386719 C 36.113281 17.84375 37.128906 19.582031 37.816406 21.515625 C 38.511719 23.449219 38.875 25.566406 38.875 27.796875 L 38.875 44.734375 C 42.464844 43.792969 45.152344 40.683594 45.152344 36.792969 L 45.152344 11.214844 C 45.152344 6.578125 41.421875 2.847656 36.792969 2.847656 Z M 11.214844 2.847656 "/>
<path style=" stroke:none;fill-rule:nonzero;fill:rgb(42.745098%,29.803922%,25.490196%);fill-opacity:1;" d="M 21.394531 19.058594 C 21.394531 22.394531 18.6875 25.105469 15.34375 25.105469 C 12.003906 25.105469 9.296875 22.394531 9.296875 19.058594 C 9.296875 15.714844 12.003906 13.003906 15.34375 13.003906 C 18.6875 13.003906 21.394531 15.714844 21.394531 19.058594 Z M 21.394531 19.058594 "/>
<path style=" stroke:none;fill-rule:nonzero;fill:rgb(42.745098%,29.803922%,25.490196%);fill-opacity:1;" d="M 38.875 19.058594 C 38.875 22.394531 36.167969 25.105469 32.828125 25.105469 C 29.484375 25.105469 26.777344 22.394531 26.777344 19.058594 C 26.777344 15.714844 29.484375 13.003906 32.828125 13.003906 C 36.167969 13.003906 38.875 15.714844 38.875 19.058594 Z M 38.875 19.058594 "/>
<path style=" stroke:none;fill-rule:evenodd;fill:rgb(63.137255%,53.333333%,49.803922%);fill-opacity:1;" d="M 38.875 44.734375 L 38.875 27.796875 C 38.875 25.566406 38.511719 23.449219 37.816406 21.515625 C 37.128906 19.582031 36.113281 17.84375 34.824219 16.386719 C 33.53125 14.925781 31.957031 13.746094 30.15625 12.925781 C 28.347656 12.113281 26.3125 11.660156 24.082031 11.660156 C 21.859375 11.660156 19.816406 12.113281 18.015625 12.925781 C 16.207031 13.746094 14.640625 14.925781 13.347656 16.386719 C 12.058594 17.84375 11.042969 19.582031 10.355469 21.515625 C 9.660156 23.449219 9.296875 25.566406 9.296875 27.796875 L 9.296875 44.769531 C 9.925781 44.921875 10.53125 45.152344 11.214844 45.152344 L 36.792969 45.152344 C 37.53125 45.152344 38.191406 44.910156 38.875 44.734375 Z M 38.875 44.734375 "/>
<path style=" stroke:none;fill-rule:nonzero;fill:rgb(100%,100%,100%);fill-opacity:1;" d="M 20.050781 31.828125 L 24.089844 31.828125 L 24.089844 37.207031 L 20.050781 37.207031 Z M 20.050781 31.828125 "/>
<path style=" stroke:none;fill-rule:nonzero;fill:rgb(94.901961%,94.901961%,94.901961%);fill-opacity:1;" d="M 24.089844 31.15625 L 28.121094 31.15625 L 28.121094 37.207031 L 24.089844 37.207031 Z M 24.089844 31.15625 "/>
<path style=" stroke:none;fill-rule:nonzero;fill:rgb(42.745098%,29.803922%,25.490196%);fill-opacity:1;" d="M 20.1875 27.59375 C 18.332031 27.535156 17.363281 30.644531 17.363281 32.5 C 17.363281 34.359375 18.871094 35.863281 20.722656 35.863281 C 22.4375 35.863281 24.0625 34.371094 24.0625 34.371094 L 24.109375 34.371094 C 24.109375 34.371094 25.738281 35.859375 27.449219 35.863281 C 29.300781 35.863281 30.808594 34.359375 30.808594 32.5 C 30.808594 30.644531 29.894531 27.890625 28.042969 27.832031 Z M 20.1875 27.59375 "/>
<path style=" stroke:none;fill-rule:nonzero;fill:rgb(24.313725%,15.294118%,13.72549%);fill-opacity:1;" d="M 27.953125 27.457031 C 28.347656 29.199219 25.753906 31.15625 24.089844 31.15625 C 22.417969 31.15625 19.738281 29.21875 20.136719 27.457031 C 20.441406 26.109375 22.417969 26.199219 24.089844 26.199219 C 25.753906 26.199219 27.652344 26.140625 27.953125 27.457031 Z M 27.953125 27.457031 "/>
<path style=" stroke:none;fill-rule:nonzero;fill:rgb(99.607843%,99.607843%,99.607843%);fill-opacity:1;" d="M 20.058594 23.046875 C 20.058594 24.902344 18.550781 26.40625 16.691406 26.40625 C 14.839844 26.40625 13.332031 24.902344 13.332031 23.046875 C 13.332031 21.1875 14.839844 19.6875 16.691406 19.6875 C 18.550781 19.6875 20.058594 21.1875 20.058594 23.046875 Z M 20.058594 23.046875 "/>
<path style=" stroke:none;fill-rule:nonzero;fill:rgb(20%,20%,20%);fill-opacity:1;" d="M 14.675781 22.371094 C 14.675781 23.113281 15.28125 23.714844 16.019531 23.714844 C 16.765625 23.714844 17.363281 23.113281 17.363281 22.371094 C 17.363281 21.625 16.765625 21.027344 16.019531 21.027344 C 15.28125 21.027344 14.675781 21.625 14.675781 22.371094 Z M 14.675781 22.371094 "/>
<path style=" stroke:none;fill-rule:nonzero;fill:rgb(99.607843%,99.607843%,99.607843%);fill-opacity:1;" d="M 34.847656 23.046875 C 34.847656 24.902344 33.34375 26.40625 31.484375 26.40625 C 29.628906 26.40625 28.125 24.902344 28.125 23.046875 C 28.125 21.1875 29.628906 19.6875 31.484375 19.6875 C 33.34375 19.6875 34.847656 21.1875 34.847656 23.046875 Z M 34.847656 23.046875 "/>
<path style=" stroke:none;fill-rule:nonzero;fill:rgb(20%,20%,20%);fill-opacity:1;" d="M 29.46875 22.371094 C 29.46875 23.113281 30.066406 23.714844 30.8125 23.714844 C 31.558594 23.714844 32.15625 23.113281 32.15625 22.371094 C 32.15625 21.625 31.558594 21.027344 30.8125 21.027344 C 30.066406 21.027344 29.46875 21.625 29.46875 22.371094 Z M 29.46875 22.371094 "/>
</g>
</svg>
