<?xml version="1.0" encoding="UTF-8"?>
<svg xmlns="http://www.w3.org/2000/svg" xmlns:xlink="http://www.w3.org/1999/xlink" width="48pt" height="48pt" viewBox="0 0 48 48" version="1.1">
<g id="surface1">
<path style=" stroke:none;fill-rule:evenodd;fill:rgb(100%,100%,100%);fill-opacity:1;" d="M 11.207031 2.847656 L 36.792969 2.847656 C 41.40625 2.847656 45.152344 6.59375 45.152344 11.207031 L 45.152344 36.792969 C 45.152344 41.40625 41.40625 45.152344 36.792969 45.152344 L 11.207031 45.152344 C 6.59375 45.152344 2.847656 41.40625 2.847656 36.792969 L 2.847656 11.207031 C 2.847656 6.59375 6.59375 2.847656 11.207031 2.847656 Z M 11.207031 2.847656 "/>
<path style=" stroke:none;fill-rule:evenodd;fill:rgb(24.313725%,31.372549%,70.588235%);fill-opacity:1;" d="M 4.222656 6.878906 L 43.921875 40.90625 C 44.636719 39.675781 45.152344 38.324219 45.152344 36.792969 L 45.152344 11.214844 C 45.152344 6.578125 41.421875 2.847656 36.785156 2.847656 L 11.207031 2.847656 C 8.203125 2.847656 5.691406 4.511719 4.222656 6.878906 Z M 23.128906 11.203125 L 40.234375 11.203125 L 40.234375 25.863281 Z M 23.128906 11.203125 "/>
<path style=" stroke:none;fill-rule:evenodd;fill:rgb(0.784314%,65.882353%,95.294118%);fill-opacity:1;" d="M 43.921875 40.90625 L 4.222656 6.878906 C 3.425781 8.160156 2.847656 9.589844 2.847656 11.214844 L 2.847656 36.792969 C 2.847656 41.421875 6.578125 45.152344 11.207031 45.152344 L 36.785156 45.152344 C 39.890625 45.152344 42.480469 43.402344 43.921875 40.90625 Z M 7.765625 21.792969 L 24.871094 36.457031 L 7.765625 36.457031 Z M 7.765625 21.792969 "/>
</g>
</svg>
