<?xml version="1.0" encoding="UTF-8"?>
<svg xmlns="http://www.w3.org/2000/svg" xmlns:xlink="http://www.w3.org/1999/xlink" width="48pt" height="48pt" viewBox="0 0 48 48" version="1.1">
<g id="surface1">
<path style=" stroke:none;fill-rule:evenodd;fill:rgb(29.411765%,29.411765%,29.411765%);fill-opacity:1;" d="M 45.152344 29.878906 L 29.878906 45.152344 L 36.792969 45.152344 C 41.421875 45.152344 45.152344 41.421875 45.152344 36.792969 Z M 45.152344 29.878906 "/>
<path style=" stroke:none;fill-rule:evenodd;fill:rgb(100%,63.529412%,20.392157%);fill-opacity:1;" d="M 11.214844 2.847656 C 6.578125 2.847656 2.847656 6.578125 2.847656 11.214844 L 2.847656 36.792969 C 2.847656 41.421875 6.578125 45.152344 11.214844 45.152344 L 29.878906 45.152344 L 45.152344 29.878906 L 45.152344 11.214844 C 45.152344 6.578125 41.421875 2.847656 36.792969 2.847656 Z M 11.214844 2.847656 "/>
<path style=" stroke:none;fill-rule:nonzero;fill:rgb(29.411765%,29.411765%,29.411765%);fill-opacity:1;" d="M 17.175781 16.453125 C 14.199219 16.453125 11.5 18.21875 10.308594 20.953125 L 17.175781 20.953125 L 17.175781 26.949219 L 10.3125 26.949219 C 11.503906 29.675781 14.199219 31.441406 17.175781 31.449219 C 20.152344 31.441406 22.84375 29.675781 24.035156 26.949219 L 38.167969 26.949219 L 38.167969 20.953125 L 24.042969 20.953125 C 22.847656 18.21875 20.15625 16.453125 17.175781 16.453125 Z M 17.175781 16.453125 "/>
</g>
</svg>
