<?xml version="1.0" encoding="UTF-8"?>
<svg xmlns="http://www.w3.org/2000/svg" xmlns:xlink="http://www.w3.org/1999/xlink" width="48pt" height="48pt" viewBox="0 0 48 48" version="1.1">
<g id="surface1">
<path style=" stroke:none;fill-rule:evenodd;fill:rgb(99.607843%,75.294118%,2.352941%);fill-opacity:1;" d="M 45.152344 28.839844 L 38.46875 28.839844 L 38.46875 32.339844 C 38.46875 33.421875 38.683594 34.457031 39.078125 35.394531 C 39.472656 36.332031 40.046875 37.171875 40.753906 37.878906 C 41.464844 38.589844 42.308594 39.160156 43.238281 39.558594 C 43.640625 39.722656 44.113281 39.71875 44.542969 39.816406 C 44.910156 38.875 45.152344 37.863281 45.152344 36.785156 Z M 45.152344 28.839844 "/>
<path style=" stroke:none;fill-rule:evenodd;fill:rgb(12.54902%,58.431373%,94.901961%);fill-opacity:1;" d="M 45.152344 18.339844 L 38.46875 18.339844 L 38.46875 28.839844 L 45.152344 28.839844 Z M 45.152344 18.339844 "/>
<path style=" stroke:none;fill-rule:evenodd;fill:rgb(29.411765%,68.235294%,30.980392%);fill-opacity:1;" d="M 44.90625 9.980469 C 44.347656 10.082031 43.75 10.097656 43.246094 10.316406 C 42.308594 10.707031 41.464844 11.28125 40.753906 11.988281 C 40.046875 12.699219 39.472656 13.542969 39.078125 14.480469 C 38.683594 15.417969 38.46875 16.449219 38.46875 17.53125 L 38.46875 18.339844 L 45.152344 18.339844 L 45.152344 11.207031 C 45.152344 10.769531 44.96875 10.402344 44.90625 9.980469 Z M 44.90625 9.980469 "/>
<path style=" stroke:none;fill-rule:evenodd;fill:rgb(95.294118%,25.882353%,20.784314%);fill-opacity:1;" d="M 12.425781 2.847656 L 12.425781 45.152344 L 36.785156 45.152344 C 40.34375 45.152344 43.328125 42.9375 44.542969 39.816406 C 44.113281 39.71875 43.640625 39.722656 43.238281 39.558594 C 42.308594 39.160156 41.464844 38.589844 40.753906 37.878906 C 40.046875 37.171875 39.472656 36.332031 39.078125 35.394531 C 38.683594 34.457031 38.46875 33.421875 38.46875 32.339844 L 38.46875 17.53125 C 38.46875 16.449219 38.683594 15.417969 39.078125 14.480469 C 39.472656 13.542969 40.046875 12.699219 40.753906 11.988281 C 41.464844 11.28125 42.308594 10.707031 43.238281 10.316406 C 43.75 10.097656 44.347656 10.082031 44.90625 9.980469 C 44.292969 5.964844 40.984375 2.847656 36.785156 2.847656 Z M 12.425781 2.847656 "/>
<path style=" stroke:none;fill-rule:evenodd;fill:rgb(30.980392%,30.980392%,30.980392%);fill-opacity:1;" d="M 12.425781 45.152344 L 12.425781 2.847656 L 11.207031 2.847656 C 6.578125 2.847656 2.847656 6.578125 2.847656 11.207031 L 2.847656 36.785156 C 2.847656 41.421875 6.578125 45.152344 11.207031 45.152344 Z M 12.425781 45.152344 "/>
<path style=" stroke:none;fill-rule:nonzero;fill:rgb(97.647059%,97.647059%,97.647059%);fill-opacity:1;" d="M 17.828125 15.34375 L 17.828125 33.339844 L 23.160156 33.339844 C 32.496094 33.339844 32.828125 27.671875 32.828125 24.339844 C 32.828125 21.003906 32.496094 15.175781 23.160156 15.34375 Z M 23.160156 19.34375 C 27.160156 19.34375 28.328125 20.34375 28.328125 24.339844 C 28.328125 28.339844 27.160156 29.339844 23.160156 29.339844 L 22.328125 29.339844 L 22.328125 19.34375 Z M 23.160156 19.34375 "/>
</g>
</svg>
