<?xml version="1.0" encoding="UTF-8"?>
<svg xmlns="http://www.w3.org/2000/svg" xmlns:xlink="http://www.w3.org/1999/xlink" width="48pt" height="48pt" viewBox="0 0 48 48" version="1.1">
<g id="surface1">
<path style=" stroke:none;fill-rule:evenodd;fill:rgb(0%,32.941176%,100%);fill-opacity:1;" d="M 11.207031 2.847656 L 36.792969 2.847656 C 41.40625 2.847656 45.152344 6.59375 45.152344 11.207031 L 45.152344 36.792969 C 45.152344 41.40625 41.40625 45.152344 36.792969 45.152344 L 11.207031 45.152344 C 6.59375 45.152344 2.847656 41.40625 2.847656 36.792969 L 2.847656 11.207031 C 2.847656 6.59375 6.59375 2.847656 11.207031 2.847656 Z M 11.207031 2.847656 "/>
<path style=" stroke:none;fill-rule:nonzero;fill:rgb(71.764706%,71.764706%,71.764706%);fill-opacity:1;" d="M 14.824219 12.066406 L 33.175781 12.066406 L 33.175781 21.246094 L 14.824219 21.246094 Z M 14.824219 12.066406 "/>
<path style=" stroke:none;fill-rule:nonzero;fill:rgb(60%,60%,60%);fill-opacity:1;" d="M 12.4375 20.328125 L 35.5625 20.328125 C 36.277344 20.328125 36.847656 20.910156 36.847656 21.628906 L 36.847656 34.628906 C 36.847656 35.347656 36.277344 35.933594 35.5625 35.933594 L 12.4375 35.933594 C 11.722656 35.933594 11.152344 35.347656 11.152344 34.628906 L 11.152344 21.628906 C 11.152344 20.910156 11.722656 20.328125 12.4375 20.328125 Z M 12.4375 20.328125 "/>
<path style=" stroke:none;fill-rule:nonzero;fill:rgb(40%,40%,40%);fill-opacity:1;" d="M 16.65625 24 L 31.34375 24 L 31.34375 25.832031 L 16.65625 25.832031 Z M 16.65625 24 "/>
<path style=" stroke:none;fill-rule:nonzero;fill:rgb(40%,40%,40%);fill-opacity:1;" d="M 18.496094 27.671875 L 29.503906 27.671875 L 29.503906 29.503906 L 18.496094 29.503906 Z M 18.496094 27.671875 "/>
<path style=" stroke:none;fill-rule:nonzero;fill:rgb(40%,40%,40%);fill-opacity:1;" d="M 20.328125 31.34375 L 27.671875 31.34375 L 27.671875 33.175781 L 20.328125 33.175781 Z M 20.328125 31.34375 "/>
<path style=" stroke:none;fill-rule:nonzero;fill:rgb(40%,40%,40%);fill-opacity:1;" d="M 16.65625 13.90625 L 21.246094 13.90625 L 21.246094 16.65625 L 16.65625 16.65625 Z M 16.65625 13.90625 "/>
<path style=" stroke:none;fill-rule:nonzero;fill:rgb(40%,40%,40%);fill-opacity:1;" d="M 26.753906 13.90625 L 31.34375 13.90625 L 31.34375 16.65625 L 26.753906 16.65625 Z M 26.753906 13.90625 "/>
</g>
</svg>
