<?xml version="1.0" encoding="UTF-8"?>
<svg xmlns="http://www.w3.org/2000/svg" xmlns:xlink="http://www.w3.org/1999/xlink" width="48pt" height="48pt" viewBox="0 0 48 48" version="1.1">
<g id="surface1">
<path style=" stroke:none;fill-rule:evenodd;fill:rgb(9.019608%,53.72549%,72.941176%);fill-opacity:1;" d="M 9.488281 0 L 38.511719 0 C 43.75 0 48 4.25 48 9.488281 L 48 38.511719 C 48 43.75 43.75 48 38.511719 48 L 9.488281 48 C 4.25 48 0 43.75 0 38.511719 L 0 9.488281 C 0 4.25 4.25 0 9.488281 0 Z M 9.488281 0 "/>
<path style=" stroke:none;fill-rule:nonzero;fill:rgb(35.686275%,35.686275%,35.686275%);fill-opacity:1;" d="M 24 7.578125 C 14.902344 7.578125 7.578125 14.902344 7.578125 24 C 7.578125 33.097656 14.902344 40.421875 24 40.421875 C 33.097656 40.421875 40.421875 33.097656 40.421875 24 C 40.421875 14.902344 33.097656 7.578125 24 7.578125 Z M 24 7.578125 "/>
<path style=" stroke:none;fill-rule:nonzero;fill:rgb(100%,100%,100%);fill-opacity:1;" d="M 35.972656 24 C 35.972656 17.386719 30.613281 12.027344 24 12.027344 C 17.386719 12.027344 12.027344 17.386719 12.027344 24 C 12.027344 30.613281 17.386719 35.972656 24 35.972656 C 30.613281 35.972656 35.972656 30.613281 35.972656 24 Z M 35.972656 24 "/>
<path style=" stroke:none;fill-rule:nonzero;fill:rgb(9.019608%,53.72549%,72.941176%);fill-opacity:1;" d="M 33.167969 24 C 33.167969 29.0625 29.0625 33.167969 24 33.167969 C 18.9375 33.167969 14.832031 29.0625 14.832031 24 C 14.832031 18.9375 18.9375 14.832031 24 14.832031 C 29.0625 14.832031 33.167969 18.9375 33.167969 24 Z M 33.167969 24 "/>
</g>
</svg>
