<?xml version="1.0" encoding="UTF-8"?>
<svg xmlns="http://www.w3.org/2000/svg" xmlns:xlink="http://www.w3.org/1999/xlink" width="48pt" height="48pt" viewBox="0 0 48 48" version="1.1">
<g id="surface1">
<path style=" stroke:none;fill-rule:evenodd;fill:rgb(100%,100%,100%);fill-opacity:1;" d="M 22.34375 22.613281 C 22.292969 22.613281 22.246094 22.621094 22.191406 22.621094 C 22.121094 22.625 22.046875 22.636719 21.972656 22.644531 C 21.90625 22.660156 21.832031 22.675781 21.765625 22.699219 C 21.691406 22.714844 21.625 22.738281 21.558594 22.765625 C 21.488281 22.792969 21.421875 22.816406 21.359375 22.855469 C 21.296875 22.886719 21.230469 22.921875 21.171875 22.957031 C 21.109375 23 21.050781 23.042969 20.996094 23.089844 C 20.9375 23.128906 20.878906 23.175781 20.828125 23.230469 C 20.78125 23.28125 20.730469 23.332031 20.683594 23.386719 C 20.636719 23.441406 20.59375 23.5 20.550781 23.5625 C 20.511719 23.621094 20.472656 23.683594 20.4375 23.75 C 20.402344 23.8125 20.371094 23.875 20.34375 23.941406 C 20.316406 24.011719 20.292969 24.078125 20.269531 24.144531 C 20.25 24.214844 20.230469 24.285156 20.214844 24.359375 C 20.203125 24.425781 20.1875 24.5 20.183594 24.574219 C 20.175781 24.644531 20.171875 24.714844 20.171875 24.785156 C 20.171875 24.839844 20.171875 24.890625 20.175781 24.941406 C 20.183594 25.015625 20.191406 25.089844 20.203125 25.15625 C 20.214844 25.230469 20.234375 25.300781 20.253906 25.371094 C 20.269531 25.441406 20.296875 25.511719 20.324219 25.578125 C 20.34375 25.644531 20.375 25.707031 20.40625 25.777344 C 20.441406 25.839844 20.480469 25.902344 20.515625 25.964844 C 20.558594 26.027344 20.597656 26.082031 20.640625 26.140625 C 20.6875 26.199219 20.734375 26.25 20.785156 26.300781 C 20.839844 26.355469 20.890625 26.402344 20.941406 26.449219 C 21 26.496094 21.058594 26.542969 21.113281 26.582031 C 21.175781 26.621094 21.238281 26.660156 21.300781 26.699219 C 21.371094 26.730469 21.433594 26.761719 21.5 26.792969 C 21.5625 26.816406 21.636719 26.84375 21.703125 26.863281 C 21.769531 26.886719 21.84375 26.90625 21.910156 26.917969 C 21.984375 26.933594 22.058594 26.941406 22.128906 26.949219 C 22.199219 26.957031 22.269531 26.964844 22.34375 26.964844 C 22.394531 26.964844 22.449219 26.957031 22.5 26.957031 C 22.574219 26.953125 22.640625 26.941406 22.714844 26.933594 C 22.785156 26.917969 22.859375 26.902344 22.925781 26.886719 C 22.996094 26.863281 23.066406 26.839844 23.128906 26.8125 C 23.203125 26.785156 23.265625 26.753906 23.332031 26.722656 C 23.394531 26.691406 23.457031 26.65625 23.519531 26.613281 C 23.578125 26.578125 23.640625 26.535156 23.691406 26.488281 C 23.75 26.441406 23.808594 26.394531 23.859375 26.347656 C 23.910156 26.296875 23.957031 26.246094 24.003906 26.1875 C 24.050781 26.136719 24.097656 26.074219 24.136719 26.015625 C 24.175781 25.957031 24.21875 25.894531 24.25 25.832031 C 24.285156 25.765625 24.316406 25.703125 24.34375 25.636719 C 24.375 25.566406 24.402344 25.5 24.421875 25.433594 C 24.441406 25.359375 24.457031 25.292969 24.472656 25.222656 C 24.488281 25.152344 24.5 25.078125 24.503906 25.003906 C 24.515625 24.933594 24.519531 24.859375 24.519531 24.785156 C 24.519531 24.738281 24.515625 24.6875 24.511719 24.636719 C 24.503906 24.5625 24.5 24.488281 24.484375 24.417969 C 24.472656 24.347656 24.457031 24.277344 24.4375 24.207031 C 24.421875 24.136719 24.394531 24.066406 24.371094 24 C 24.34375 23.933594 24.3125 23.871094 24.28125 23.800781 C 24.25 23.738281 24.214844 23.675781 24.171875 23.613281 C 24.136719 23.550781 24.09375 23.496094 24.046875 23.4375 C 24 23.378906 23.953125 23.328125 23.902344 23.277344 C 23.855469 23.222656 23.800781 23.171875 23.746094 23.125 C 23.6875 23.078125 23.628906 23.035156 23.574219 22.996094 C 23.511719 22.953125 23.453125 22.917969 23.386719 22.878906 C 23.324219 22.847656 23.261719 22.816406 23.191406 22.785156 C 23.125 22.761719 23.058594 22.734375 22.984375 22.714844 C 22.917969 22.691406 22.847656 22.671875 22.777344 22.65625 C 22.703125 22.644531 22.636719 22.636719 22.5625 22.625 C 22.488281 22.621094 22.417969 22.613281 22.34375 22.621094 Z M 22.34375 22.613281 "/>
<path style=" stroke:none;fill-rule:evenodd;fill:rgb(50.196078%,79.607843%,76.862745%);fill-opacity:1;" d="M 33.144531 45.152344 C 33.125 45.128906 33.097656 45.109375 33.078125 45.089844 C 32.582031 44.550781 32.082031 44.015625 31.53125 43.605469 C 30.980469 43.199219 30.378906 42.917969 29.667969 42.894531 C 28.957031 42.871094 28.316406 43.125 27.71875 43.527344 C 27.121094 43.925781 26.5625 44.46875 26.027344 45.011719 C 25.980469 45.0625 25.933594 45.105469 25.878906 45.152344 Z M 33.144531 45.152344 "/>
<path style=" stroke:none;fill-rule:evenodd;fill:rgb(50.196078%,79.607843%,76.862745%);fill-opacity:1;" d="M 41.878906 43.265625 C 41.71875 43.128906 41.410156 43.027344 41.265625 42.894531 L 40.449219 42.894531 C 40.199219 43.535156 39.816406 44.042969 39.484375 44.609375 C 40.375 44.300781 41.15625 43.839844 41.878906 43.265625 Z M 41.878906 43.265625 "/>
<path style=" stroke:none;fill-rule:evenodd;fill:rgb(0%,58.823529%,53.333333%);fill-opacity:1;" d="M 45.152344 21.425781 C 44.378906 20.078125 43.660156 18.683594 42.566406 17.59375 C 41 16.019531 39.128906 14.75 37.050781 13.871094 C 34.972656 12.996094 32.691406 12.503906 30.292969 12.503906 C 27.894531 12.503906 25.609375 12.996094 23.535156 13.871094 C 21.457031 14.75 19.582031 16.019531 18.015625 17.59375 C 16.441406 19.160156 15.171875 21.035156 14.292969 23.113281 C 13.417969 25.1875 12.933594 27.472656 12.933594 29.871094 C 12.933594 29.9375 12.9375 30 12.941406 30.0625 C 12.9375 30.136719 12.933594 30.199219 12.933594 30.265625 C 12.933594 31.183594 13.003906 32.082031 13.140625 32.957031 C 13.1875 33.171875 13.261719 33.355469 13.324219 33.546875 C 13.746094 34.925781 14.503906 35.894531 15.167969 36.519531 C 15.824219 37.144531 16.375 37.421875 16.375 37.421875 C 16.910156 37.855469 17.574219 38.296875 18.34375 38.730469 L 18.277344 38.730469 C 18.277344 38.730469 18.683594 40.875 19.453125 43.011719 C 19.734375 43.792969 20.121094 44.480469 20.5 45.152344 L 25.878906 45.152344 C 25.933594 45.105469 25.980469 45.0625 26.027344 45.011719 C 26.5625 44.46875 27.121094 43.925781 27.71875 43.527344 C 28.316406 43.125 28.957031 42.871094 29.667969 42.894531 C 30.378906 42.917969 30.980469 43.199219 31.53125 43.605469 C 32.082031 44.015625 32.582031 44.550781 33.078125 45.089844 C 33.097656 45.109375 33.125 45.128906 33.144531 45.152344 L 36.792969 45.152344 C 37.746094 45.152344 38.628906 44.902344 39.484375 44.609375 C 39.816406 44.042969 40.199219 43.535156 40.449219 42.894531 L 41.265625 42.894531 C 41.410156 43.027344 41.71875 43.128906 41.878906 43.265625 C 43.828125 41.734375 45.152344 39.464844 45.152344 36.785156 Z M 22.34375 22.621094 C 22.417969 22.613281 22.488281 22.621094 22.5625 22.625 C 22.636719 22.636719 22.703125 22.644531 22.777344 22.65625 C 22.847656 22.671875 22.917969 22.691406 22.984375 22.714844 C 23.058594 22.734375 23.125 22.761719 23.191406 22.785156 C 23.261719 22.816406 23.324219 22.847656 23.386719 22.878906 C 23.453125 22.917969 23.511719 22.953125 23.574219 22.996094 C 23.628906 23.035156 23.6875 23.078125 23.746094 23.125 C 23.800781 23.171875 23.855469 23.222656 23.902344 23.277344 C 23.953125 23.328125 24 23.378906 24.046875 23.4375 C 24.09375 23.496094 24.136719 23.550781 24.171875 23.613281 C 24.214844 23.675781 24.25 23.738281 24.28125 23.800781 C 24.3125 23.871094 24.34375 23.933594 24.371094 24 C 24.394531 24.066406 24.421875 24.136719 24.4375 24.207031 C 24.457031 24.277344 24.472656 24.347656 24.484375 24.417969 C 24.5 24.488281 24.503906 24.5625 24.511719 24.636719 C 24.515625 24.6875 24.519531 24.738281 24.519531 24.785156 C 24.519531 24.859375 24.515625 24.933594 24.503906 25.003906 C 24.5 25.078125 24.488281 25.152344 24.472656 25.222656 C 24.457031 25.292969 24.441406 25.359375 24.421875 25.433594 C 24.402344 25.5 24.375 25.566406 24.34375 25.636719 C 24.316406 25.703125 24.285156 25.765625 24.25 25.832031 C 24.21875 25.894531 24.175781 25.957031 24.136719 26.015625 C 24.097656 26.074219 24.050781 26.136719 24.003906 26.1875 C 23.957031 26.246094 23.910156 26.296875 23.859375 26.347656 C 23.808594 26.394531 23.75 26.441406 23.691406 26.488281 C 23.640625 26.535156 23.578125 26.578125 23.519531 26.613281 C 23.457031 26.65625 23.394531 26.691406 23.332031 26.722656 C 23.265625 26.753906 23.203125 26.785156 23.128906 26.8125 C 23.066406 26.839844 22.996094 26.863281 22.925781 26.886719 C 22.859375 26.902344 22.785156 26.917969 22.714844 26.933594 C 22.640625 26.941406 22.574219 26.953125 22.5 26.957031 C 22.449219 26.957031 22.394531 26.964844 22.34375 26.964844 C 22.269531 26.964844 22.199219 26.957031 22.128906 26.949219 C 22.058594 26.941406 21.984375 26.933594 21.910156 26.917969 C 21.84375 26.90625 21.769531 26.886719 21.703125 26.863281 C 21.636719 26.84375 21.5625 26.816406 21.5 26.792969 C 21.433594 26.761719 21.371094 26.730469 21.300781 26.699219 C 21.238281 26.660156 21.175781 26.621094 21.113281 26.582031 C 21.058594 26.542969 21 26.496094 20.941406 26.449219 C 20.890625 26.402344 20.839844 26.355469 20.785156 26.300781 C 20.734375 26.25 20.6875 26.199219 20.640625 26.140625 C 20.597656 26.082031 20.558594 26.027344 20.515625 25.964844 C 20.480469 25.902344 20.441406 25.839844 20.40625 25.777344 C 20.375 25.707031 20.34375 25.644531 20.324219 25.578125 C 20.296875 25.511719 20.269531 25.441406 20.253906 25.371094 C 20.234375 25.300781 20.214844 25.230469 20.203125 25.15625 C 20.191406 25.089844 20.183594 25.015625 20.175781 24.941406 C 20.171875 24.890625 20.171875 24.839844 20.171875 24.785156 C 20.171875 24.714844 20.175781 24.644531 20.183594 24.574219 C 20.1875 24.5 20.203125 24.425781 20.214844 24.359375 C 20.230469 24.285156 20.25 24.214844 20.269531 24.144531 C 20.292969 24.078125 20.316406 24.011719 20.34375 23.941406 C 20.371094 23.875 20.402344 23.8125 20.4375 23.75 C 20.472656 23.683594 20.511719 23.621094 20.550781 23.5625 C 20.59375 23.5 20.636719 23.441406 20.683594 23.386719 C 20.730469 23.332031 20.78125 23.28125 20.828125 23.230469 C 20.878906 23.175781 20.9375 23.128906 20.996094 23.089844 C 21.050781 23.042969 21.109375 23 21.171875 22.957031 C 21.230469 22.921875 21.296875 22.886719 21.359375 22.855469 C 21.421875 22.816406 21.488281 22.792969 21.558594 22.765625 C 21.625 22.738281 21.691406 22.714844 21.765625 22.699219 C 21.832031 22.675781 21.90625 22.660156 21.972656 22.644531 C 22.046875 22.636719 22.121094 22.625 22.191406 22.621094 C 22.246094 22.621094 22.292969 22.613281 22.34375 22.613281 Z M 22.34375 22.621094 "/>
<path style=" stroke:none;fill-rule:evenodd;fill:rgb(50.196078%,79.607843%,76.862745%);fill-opacity:1;" d="M 13.25 33.3125 C 13.308594 33.636719 13.292969 33.980469 13.375 34.296875 C 13.671875 35.40625 14.105469 36.464844 14.667969 37.425781 C 15.371094 38.878906 16.265625 40.21875 17.328125 41.40625 C 18 42.167969 18.839844 42.75 19.628906 43.375 C 19.578125 43.25 19.5 43.144531 19.453125 43.011719 C 18.683594 40.875 18.277344 38.730469 18.277344 38.730469 L 18.34375 38.730469 C 17.574219 38.296875 16.910156 37.855469 16.375 37.421875 C 16.375 37.421875 15.824219 37.144531 15.167969 36.519531 C 14.503906 35.894531 13.746094 34.925781 13.324219 33.546875 C 13.296875 33.46875 13.277344 33.386719 13.25 33.3125 Z M 13.25 33.3125 "/>
<path style=" stroke:none;fill-rule:evenodd;fill:rgb(55.686275%,55.686275%,55.686275%);fill-opacity:1;" d="M 12.96875 30.765625 C 12.96875 30.777344 12.933594 30.847656 12.933594 30.855469 C 12.933594 31.167969 13.027344 31.453125 13.046875 31.761719 C 13.019531 31.433594 12.980469 31.105469 12.96875 30.765625 Z M 12.96875 30.765625 "/>
<path style=" stroke:none;fill-rule:evenodd;fill:rgb(27.058824%,35.294118%,39.215686%);fill-opacity:1;" d="M 27.21875 13.128906 C 28.253906 12.9375 29.203125 12.503906 30.292969 12.503906 C 31.910156 12.503906 33.375 13.015625 34.863281 13.425781 C 34.566406 12.769531 34.472656 12.488281 33.972656 11.550781 C 33.519531 10.699219 33.015625 9.84375 32.527344 9.203125 C 32.035156 8.5625 31.558594 8.136719 31.160156 8.136719 C 30.765625 8.136719 30.253906 8.558594 29.714844 9.203125 C 29.175781 9.84375 28.605469 10.703125 28.082031 11.5625 C 27.605469 12.34375 27.550781 12.511719 27.21875 13.128906 Z M 27.21875 13.128906 "/>
<path style=" stroke:none;fill-rule:evenodd;fill:rgb(27.058824%,35.294118%,39.215686%);fill-opacity:1;" d="M 18.863281 17.019531 C 20.269531 15.769531 21.777344 14.613281 23.535156 13.871094 C 23.808594 13.753906 24.144531 13.796875 24.425781 13.691406 C 23.917969 13.316406 23.839844 13.230469 23.191406 12.792969 C 21.628906 11.730469 19.933594 10.738281 19.417969 11.035156 C 18.957031 11.296875 18.832031 13.285156 18.816406 15.207031 C 18.8125 16.128906 18.839844 16.324219 18.863281 17.019531 Z M 18.863281 17.019531 "/>
<path style=" stroke:none;fill-rule:evenodd;fill:rgb(55.686275%,55.686275%,55.686275%);fill-opacity:1;" d="M 45.152344 21.199219 C 45.121094 21.199219 45.019531 21.191406 44.996094 21.191406 C 45.042969 21.269531 45.105469 21.34375 45.152344 21.425781 Z M 45.152344 21.199219 "/>
<path style=" stroke:none;fill-rule:evenodd;fill:rgb(55.686275%,55.686275%,55.686275%);fill-opacity:1;" d="M 45.152344 18.8125 C 44.9375 19.578125 44.707031 20.464844 44.640625 20.671875 C 44.746094 20.855469 44.890625 21.003906 44.996094 21.191406 C 45.019531 21.191406 45.121094 21.199219 45.152344 21.199219 Z M 45.152344 18.8125 "/>
<path style=" stroke:none;fill-rule:evenodd;fill:rgb(27.058824%,35.294118%,39.215686%);fill-opacity:1;" d="M 45.152344 12.71875 C 44.285156 12.691406 42.578125 13.003906 40.464844 13.574219 C 39.082031 13.941406 38.6875 14.078125 37.765625 14.355469 C 39.527344 15.203125 41.199219 16.222656 42.566406 17.59375 C 43.441406 18.46875 44.027344 19.582031 44.640625 20.671875 C 44.707031 20.464844 44.9375 19.578125 45.152344 18.8125 Z M 45.152344 12.71875 "/>
<path style=" stroke:none;fill-rule:evenodd;fill:rgb(55.686275%,55.686275%,55.686275%);fill-opacity:1;" d="M 11.214844 2.847656 C 6.578125 2.847656 2.847656 6.578125 2.847656 11.207031 L 2.847656 36.785156 C 2.847656 41.421875 6.578125 45.152344 11.214844 45.152344 L 20.5 45.152344 C 20.183594 44.59375 19.890625 44 19.628906 43.375 C 18.839844 42.75 18 42.167969 17.328125 41.40625 C 16.265625 40.21875 15.371094 38.878906 14.667969 37.425781 C 14.105469 36.464844 13.671875 35.40625 13.375 34.296875 C 13.292969 33.980469 13.308594 33.636719 13.25 33.3125 C 13.207031 33.199219 13.171875 33.089844 13.140625 32.957031 C 13.078125 32.566406 13.082031 32.160156 13.046875 31.761719 C 13.027344 31.453125 12.933594 31.167969 12.933594 30.855469 C 12.933594 30.847656 12.96875 30.777344 12.96875 30.765625 C 12.964844 30.597656 12.933594 30.4375 12.933594 30.265625 C 12.933594 30.199219 12.9375 30.136719 12.941406 30.0625 C 12.9375 30 12.933594 29.9375 12.933594 29.871094 C 12.933594 27.472656 13.417969 25.1875 14.292969 23.113281 C 15.171875 21.035156 16.441406 19.160156 18.015625 17.59375 C 18.253906 17.347656 18.609375 17.246094 18.863281 17.019531 C 18.839844 16.324219 18.8125 16.128906 18.816406 15.214844 C 18.832031 13.285156 18.957031 11.296875 19.417969 11.035156 C 19.933594 10.738281 21.628906 11.730469 23.191406 12.792969 C 23.839844 13.230469 23.917969 13.316406 24.425781 13.691406 C 25.308594 13.375 26.28125 13.300781 27.21875 13.128906 C 27.550781 12.511719 27.605469 12.34375 28.082031 11.5625 C 28.605469 10.703125 29.175781 9.84375 29.714844 9.203125 C 30.253906 8.558594 30.765625 8.136719 31.160156 8.136719 C 31.558594 8.136719 32.035156 8.5625 32.527344 9.203125 C 33.015625 9.84375 33.519531 10.699219 33.972656 11.558594 C 34.472656 12.488281 34.566406 12.769531 34.863281 13.433594 C 35.578125 13.628906 36.378906 13.589844 37.050781 13.871094 C 37.316406 13.984375 37.503906 14.222656 37.765625 14.355469 C 38.6875 14.078125 39.082031 13.941406 40.464844 13.574219 C 42.578125 13.003906 44.285156 12.691406 45.152344 12.71875 L 45.152344 11.207031 C 45.152344 6.578125 41.421875 2.847656 36.792969 2.847656 Z M 11.214844 2.847656 "/>
</g>
</svg>
