<?xml version="1.0" encoding="UTF-8"?>
<svg xmlns="http://www.w3.org/2000/svg" xmlns:xlink="http://www.w3.org/1999/xlink" width="48pt" height="48pt" viewBox="0 0 48 48" version="1.1">
<g id="surface1">
<path style=" stroke:none;fill-rule:evenodd;fill:rgb(55.686275%,55.686275%,55.686275%);fill-opacity:1;" d="M 11.207031 2.847656 L 36.792969 2.847656 C 41.40625 2.847656 45.152344 6.59375 45.152344 11.207031 L 45.152344 36.792969 C 45.152344 41.40625 41.40625 45.152344 36.792969 45.152344 L 11.207031 45.152344 C 6.59375 45.152344 2.847656 41.40625 2.847656 36.792969 L 2.847656 11.207031 C 2.847656 6.59375 6.59375 2.847656 11.207031 2.847656 Z M 11.207031 2.847656 "/>
<path style=" stroke:none;fill-rule:nonzero;fill:rgb(30.196078%,30.196078%,30.196078%);fill-opacity:1;" d="M 24 13.5 C 18.203125 13.5 13.5 18.203125 13.5 24 L 13.5 34.5 L 24 34.5 C 29.796875 34.5 34.5 29.796875 34.5 24 C 34.5 18.203125 29.796875 13.5 24 13.5 Z M 24 18 C 27.3125 18 30 20.6875 30 24 C 30 27.3125 27.3125 30 24 30 C 20.6875 30 18 27.3125 18 24 C 18 20.6875 20.6875 18 24 18 Z M 24 18 "/>
<path style=" stroke:none;fill-rule:evenodd;fill:rgb(52.156863%,38.039216%,77.254902%);fill-opacity:1;" d="M 41.464844 33.964844 C 41.464844 38.109375 38.109375 41.464844 33.964844 41.464844 C 29.824219 41.464844 26.464844 38.109375 26.464844 33.964844 C 26.464844 29.824219 29.824219 26.464844 33.964844 26.464844 C 38.109375 26.464844 41.464844 29.824219 41.464844 33.964844 Z M 41.464844 33.964844 "/>
<path style=" stroke:none;fill-rule:nonzero;fill:rgb(100%,100%,100%);fill-opacity:1;" d="M 33.027344 30.214844 L 32.949219 31.203125 C 32.628906 31.316406 32.34375 31.488281 32.082031 31.703125 L 31.1875 31.28125 L 30.25 32.902344 L 31.0625 33.46875 C 31.035156 33.636719 31.019531 33.796875 31.019531 33.964844 C 31.019531 34.136719 31.035156 34.300781 31.0625 34.464844 L 30.25 35.03125 L 31.1875 36.652344 L 32.082031 36.230469 C 32.339844 36.441406 32.628906 36.609375 32.949219 36.722656 L 33.027344 37.714844 L 34.902344 37.714844 L 34.984375 36.730469 C 35.296875 36.613281 35.589844 36.441406 35.847656 36.230469 L 36.746094 36.652344 L 37.683594 35.03125 L 36.871094 34.464844 C 36.894531 34.296875 36.910156 34.128906 36.910156 33.964844 C 36.910156 33.796875 36.894531 33.628906 36.871094 33.46875 L 37.683594 32.902344 L 36.746094 31.28125 L 35.847656 31.703125 C 35.59375 31.488281 35.300781 31.324219 34.984375 31.207031 L 34.902344 30.214844 Z M 33.964844 32.894531 C 34.558594 32.894531 35.035156 33.375 35.035156 33.96875 C 35.035156 34.558594 34.558594 35.035156 33.964844 35.035156 C 33.375 35.035156 32.894531 34.558594 32.894531 33.96875 C 32.894531 33.375 33.375 32.894531 33.964844 32.894531 Z M 33.964844 32.894531 "/>
</g>
</svg>
