<?xml version="1.0" encoding="UTF-8"?>
<svg xmlns="http://www.w3.org/2000/svg" xmlns:xlink="http://www.w3.org/1999/xlink" width="48pt" height="48pt" viewBox="0 0 48 48" version="1.1">
<g id="surface1">
<path style=" stroke:none;fill-rule:evenodd;fill:rgb(55.686275%,55.686275%,55.686275%);fill-opacity:1;" d="M 11.207031 2.847656 L 36.792969 2.847656 C 41.40625 2.847656 45.152344 6.59375 45.152344 11.207031 L 45.152344 36.792969 C 45.152344 41.40625 41.40625 45.152344 36.792969 45.152344 L 11.207031 45.152344 C 6.59375 45.152344 2.847656 41.40625 2.847656 36.792969 L 2.847656 11.207031 C 2.847656 6.59375 6.59375 2.847656 11.207031 2.847656 Z M 11.207031 2.847656 "/>
<path style=" stroke:none;fill-rule:nonzero;fill:rgb(30.196078%,30.196078%,30.196078%);fill-opacity:1;" d="M 24 13.5 C 18.203125 13.5 13.5 18.203125 13.5 24 L 13.5 34.5 L 24 34.5 C 29.796875 34.5 34.5 29.796875 34.5 24 C 34.5 18.203125 29.796875 13.5 24 13.5 Z M 24 18 C 27.3125 18 30 20.6875 30 24 C 30 27.3125 27.3125 30 24 30 C 20.6875 30 18 27.3125 18 24 C 18 20.6875 20.6875 18 24 18 Z M 24 18 "/>
<path style=" stroke:none;fill-rule:evenodd;fill:rgb(80%,36.862745%,33.333333%);fill-opacity:1;" d="M 41.875 34.578125 C 41.875 38.71875 38.515625 42.078125 34.375 42.078125 C 30.230469 42.078125 26.875 38.71875 26.875 34.578125 C 26.875 30.433594 30.230469 27.078125 34.375 27.078125 C 38.515625 27.078125 41.875 30.433594 41.875 34.578125 Z M 41.875 34.578125 "/>
<path style=" stroke:none;fill-rule:nonzero;fill:rgb(100%,100%,100%);fill-opacity:1;" d="M 33.4375 30.828125 L 33.355469 31.8125 C 33.042969 31.933594 32.75 32.097656 32.488281 32.3125 L 31.59375 31.890625 L 30.65625 33.515625 L 31.472656 34.078125 C 31.441406 34.246094 31.425781 34.410156 31.425781 34.578125 C 31.425781 34.746094 31.441406 34.910156 31.46875 35.074219 L 30.65625 35.640625 L 31.59375 37.265625 L 32.488281 36.84375 C 32.746094 37.050781 33.035156 37.222656 33.355469 37.339844 L 33.4375 38.328125 L 35.3125 38.328125 L 35.390625 37.339844 C 35.707031 37.222656 35.996094 37.050781 36.253906 36.839844 L 37.152344 37.265625 L 38.089844 35.640625 L 37.277344 35.074219 C 37.300781 34.910156 37.316406 34.746094 37.316406 34.578125 C 37.316406 34.410156 37.308594 34.238281 37.277344 34.078125 L 38.089844 33.515625 L 37.152344 31.890625 L 36.253906 32.3125 C 36 32.097656 35.707031 31.933594 35.390625 31.816406 L 35.3125 30.828125 Z M 34.375 33.503906 C 34.964844 33.503906 35.441406 33.984375 35.441406 34.578125 C 35.441406 35.167969 34.964844 35.644531 34.375 35.644531 C 33.78125 35.644531 33.300781 35.167969 33.300781 34.578125 C 33.300781 33.984375 33.78125 33.503906 34.375 33.503906 Z M 34.375 33.503906 "/>
</g>
</svg>
