<?xml version="1.0" encoding="UTF-8"?>
<svg xmlns="http://www.w3.org/2000/svg" xmlns:xlink="http://www.w3.org/1999/xlink" width="48pt" height="48pt" viewBox="0 0 48 48" version="1.1">
<g id="surface1">
<path style=" stroke:none;fill-rule:evenodd;fill:rgb(55.686275%,55.686275%,55.686275%);fill-opacity:1;" d="M 11.207031 2.847656 L 36.792969 2.847656 C 41.40625 2.847656 45.152344 6.59375 45.152344 11.207031 L 45.152344 36.792969 C 45.152344 41.40625 41.40625 45.152344 36.792969 45.152344 L 11.207031 45.152344 C 6.59375 45.152344 2.847656 41.40625 2.847656 36.792969 L 2.847656 11.207031 C 2.847656 6.59375 6.59375 2.847656 11.207031 2.847656 Z M 11.207031 2.847656 "/>
<path style=" stroke:none;fill-rule:nonzero;fill:rgb(90.196078%,90.196078%,90.196078%);fill-opacity:1;" d="M 38.628906 24 C 38.628906 32.078125 32.078125 38.628906 24 38.628906 C 15.921875 38.628906 9.371094 32.078125 9.371094 24 C 9.371094 15.921875 15.921875 9.371094 24 9.371094 C 32.078125 9.371094 38.628906 15.921875 38.628906 24 Z M 38.628906 24 "/>
<path style=" stroke:none;fill-rule:nonzero;fill:rgb(94.901961%,42.352941%,34.117647%);fill-opacity:1;" d="M 33.644531 33.644531 C 31.089844 36.203125 27.621094 37.640625 24 37.640625 L 24 24 Z M 33.644531 33.644531 "/>
<path style=" stroke:none;fill-rule:nonzero;fill:rgb(85.098039%,83.921569%,82.745098%);fill-opacity:1;" d="M 24 37.640625 C 20.378906 37.640625 16.910156 36.203125 14.355469 33.644531 C 11.796875 31.089844 10.359375 27.621094 10.359375 24 L 24 24 Z M 24 37.640625 "/>
<path style=" stroke:none;fill-rule:nonzero;fill:rgb(98.039216%,67.058824%,32.941176%);fill-opacity:1;" d="M 10.359375 24 C 10.359375 20.378906 11.796875 16.910156 14.355469 14.355469 L 24 24 Z M 10.359375 24 "/>
<path style=" stroke:none;fill-rule:nonzero;fill:rgb(59.215686%,80.392157%,47.058824%);fill-opacity:1;" d="M 14.355469 14.355469 C 19.683594 9.03125 28.316406 9.03125 33.644531 14.355469 C 38.96875 19.683594 38.96875 28.316406 33.644531 33.644531 Z M 14.355469 14.355469 "/>
<path style=" stroke:none;fill-rule:nonzero;fill:rgb(90.196078%,90.196078%,90.196078%);fill-opacity:1;" d="M 29.480469 24 C 29.480469 27.027344 27.027344 29.480469 24 29.480469 C 20.972656 29.480469 18.519531 27.027344 18.519531 24 C 18.519531 20.972656 20.972656 18.519531 24 18.519531 C 27.027344 18.519531 29.480469 20.972656 29.480469 24 Z M 29.480469 24 "/>
<path style=" stroke:none;fill-rule:nonzero;fill:rgb(55.686275%,55.686275%,55.686275%);fill-opacity:1;" d="M 28.503906 24 C 28.503906 26.488281 26.488281 28.503906 24 28.503906 C 21.511719 28.503906 19.496094 26.488281 19.496094 24 C 19.496094 21.511719 21.511719 19.496094 24 19.496094 C 26.488281 19.496094 28.503906 21.511719 28.503906 24 Z M 28.503906 24 "/>
</g>
</svg>
