<?xml version="1.0" encoding="UTF-8"?>
<svg xmlns="http://www.w3.org/2000/svg" xmlns:xlink="http://www.w3.org/1999/xlink" width="48pt" height="48pt" viewBox="0 0 48 48" version="1.1">
<g id="surface1">
<path style=" stroke:none;fill-rule:evenodd;fill:rgb(71.764706%,71.764706%,71.764706%);fill-opacity:1;" d="M 10.375 44.984375 L 10.375 11.449219 L 2.847656 11.449219 L 2.847656 36.792969 C 2.847656 41.128906 6.15625 44.550781 10.375 44.984375 Z M 10.375 44.984375 "/>
<path style=" stroke:none;fill-rule:evenodd;fill:rgb(57.254902%,0%,0%);fill-opacity:1;" d="M 11.207031 2.847656 C 6.578125 2.847656 2.847656 6.578125 2.847656 11.214844 L 2.847656 11.449219 L 10.375 11.449219 L 10.375 44.984375 C 10.667969 45.015625 10.910156 45.152344 11.207031 45.152344 L 36.785156 45.152344 C 41.421875 45.152344 45.152344 41.421875 45.152344 36.792969 L 45.152344 11.214844 C 45.152344 6.578125 41.421875 2.847656 36.785156 2.847656 Z M 11.207031 2.847656 "/>
<path style=" stroke:none;fill-rule:nonzero;fill:rgb(97.254902%,76.862745%,30.588235%);fill-opacity:1;" d="M 17.421875 38 L 21 38 L 21 45.152344 L 17.421875 45.152344 Z M 17.421875 38 "/>
<path style=" stroke:none;fill-rule:nonzero;fill:rgb(97.254902%,76.862745%,30.588235%);fill-opacity:1;" d="M 22.785156 38 L 26.359375 38 L 26.359375 45.152344 L 22.785156 45.152344 Z M 22.785156 38 "/>
<path style=" stroke:none;fill-rule:nonzero;fill:rgb(97.254902%,76.862745%,30.588235%);fill-opacity:1;" d="M 28.144531 38 L 31.722656 38 L 31.722656 45.152344 L 28.144531 45.152344 Z M 28.144531 38 "/>
<path style=" stroke:none;fill-rule:nonzero;fill:rgb(97.254902%,76.862745%,30.588235%);fill-opacity:1;" d="M 33.511719 38 L 37.089844 38 L 37.089844 45.152344 L 33.511719 45.152344 Z M 33.511719 38 "/>
<path style=" stroke:none;fill-rule:nonzero;fill:rgb(71.764706%,71.764706%,71.764706%);fill-opacity:1;" d="M 27.933594 8.5625 C 26.207031 8.578125 24.5 8.652344 24.5 8.761719 C 24.5 8.863281 24.730469 9.4375 25.011719 10.03125 C 26.097656 12.339844 26.859375 15.261719 26.859375 17.136719 C 26.859375 17.957031 26.828125 18.019531 26.496094 17.972656 C 26.203125 17.933594 26.035156 17.652344 25.675781 16.574219 C 24.96875 14.472656 23.75 12.203125 22.371094 10.421875 C 20.984375 8.640625 21.421875 8.527344 18.589844 11.359375 C 16.890625 13.050781 16.144531 13.902344 16.285156 13.988281 C 16.402344 14.0625 17.019531 14.328125 17.671875 14.578125 C 18.324219 14.828125 19.21875 15.246094 19.660156 15.503906 C 20.105469 15.769531 20.511719 15.980469 20.5625 15.980469 C 20.777344 15.980469 23.277344 17.855469 23.816406 18.410156 C 24.269531 18.886719 24.355469 19.0625 24.191406 19.222656 C 23.964844 19.449219 24.019531 19.46875 21.503906 18.359375 C 20.644531 17.980469 19.246094 17.519531 18.386719 17.332031 C 16.6875 16.96875 14.046875 16.640625 13.84375 16.765625 C 13.6875 16.859375 13.660156 23.628906 13.816406 23.78125 C 13.875 23.839844 14.285156 23.703125 14.734375 23.480469 C 17.058594 22.300781 20.347656 21.375 22.222656 21.375 C 22.9375 21.375 23.152344 21.4375 23.152344 21.628906 C 23.152344 22.074219 23.089844 22.113281 21.886719 22.519531 C 20.425781 23.011719 18.980469 23.691406 17.472656 24.605469 C 16.03125 25.472656 14.21875 26.902344 14.21875 27.160156 C 14.21875 27.269531 15.308594 28.453125 16.644531 29.785156 L 19.066406 32.207031 L 19.410156 31.441406 C 19.59375 31.019531 19.800781 30.5 19.871094 30.28125 C 20.253906 29.0625 22.296875 25.847656 23.5625 24.472656 C 24.113281 23.863281 24.171875 23.84375 24.433594 24.105469 C 24.699219 24.371094 24.691406 24.425781 24.332031 25.027344 C 23.230469 26.890625 22.238281 30.3125 22.035156 32.988281 L 21.921875 34.519531 L 25.484375 34.519531 C 27.449219 34.519531 29.050781 34.472656 29.050781 34.410156 C 29.050781 34.355469 28.792969 33.765625 28.472656 33.109375 C 27.457031 30.980469 26.828125 28.71875 26.59375 26.308594 C 26.488281 25.238281 26.515625 25.082031 26.753906 25.082031 C 26.90625 25.082031 27.078125 25.078125 27.140625 25.074219 C 27.203125 25.066406 27.496094 25.734375 27.785156 26.546875 C 28.457031 28.40625 29.191406 29.863281 30.277344 31.488281 C 31.375 33.125 32.113281 34.011719 32.386719 34.015625 C 32.671875 34.015625 37.34375 29.324219 37.234375 29.144531 C 37.1875 29.066406 36.785156 28.875 36.34375 28.707031 C 34.140625 27.878906 31.644531 26.417969 29.9375 24.941406 C 29.105469 24.222656 29.074219 24.160156 29.328125 23.875 C 29.59375 23.582031 29.640625 23.59375 30.546875 24.0625 C 32.863281 25.269531 35.371094 25.964844 38.261719 26.199219 L 39.667969 26.308594 L 39.667969 22.746094 C 39.667969 20.785156 39.628906 19.183594 39.578125 19.183594 C 39.53125 19.183594 39.058594 19.402344 38.527344 19.671875 C 36.375 20.75 32.824219 21.714844 30.980469 21.714844 C 30.3125 21.714844 30.230469 21.671875 30.234375 21.332031 C 30.238281 21.015625 30.425781 20.890625 31.457031 20.550781 C 33.730469 19.800781 36.253906 18.457031 37.8125 17.171875 C 38.230469 16.828125 38.746094 16.453125 38.953125 16.34375 C 39.160156 16.230469 39.332031 16.050781 39.332031 15.949219 C 39.332031 15.738281 34.625 10.925781 34.421875 10.925781 C 34.355469 10.925781 34.140625 11.359375 33.941406 11.894531 C 33.125 14.082031 30.910156 17.6875 29.6875 18.8125 C 29.3125 19.160156 29.246094 19.171875 29.046875 18.925781 C 28.855469 18.703125 28.917969 18.464844 29.421875 17.363281 C 30.441406 15.167969 30.558594 14.839844 30.90625 13.234375 C 31.25 11.628906 31.582031 8.917969 31.457031 8.691406 C 31.394531 8.582031 29.660156 8.542969 27.933594 8.5625 Z M 26.691406 19 C 28.09375 19 29.230469 20.136719 29.234375 21.542969 C 29.234375 22.941406 28.09375 24.082031 26.691406 24.082031 C 26.015625 24.082031 25.371094 23.8125 24.894531 23.339844 C 24.417969 22.859375 24.152344 22.214844 24.152344 21.535156 C 24.152344 20.136719 25.285156 19 26.691406 19 Z M 26.691406 19 "/>
</g>
</svg>
