<?xml version="1.0" encoding="UTF-8"?>
<svg xmlns="http://www.w3.org/2000/svg" xmlns:xlink="http://www.w3.org/1999/xlink" width="48pt" height="48pt" viewBox="0 0 48 48" version="1.1">
<g id="surface1">
<path style=" stroke:none;fill-rule:evenodd;fill:rgb(24.313725%,31.372549%,70.588235%);fill-opacity:1;" d="M 11.207031 2.847656 L 36.792969 2.847656 C 41.40625 2.847656 45.152344 6.59375 45.152344 11.207031 L 45.152344 36.792969 C 45.152344 41.40625 41.40625 45.152344 36.792969 45.152344 L 11.207031 45.152344 C 6.59375 45.152344 2.847656 41.40625 2.847656 36.792969 L 2.847656 11.207031 C 2.847656 6.59375 6.59375 2.847656 11.207031 2.847656 Z M 11.207031 2.847656 "/>
<path style=" stroke:none;fill-rule:nonzero;fill:rgb(100%,100%,100%);fill-opacity:1;" d="M 26.386719 11.019531 C 23.878906 11.375 21.183594 12.691406 18.988281 16.59375 C 13.980469 25.503906 14.332031 28.605469 13.535156 29.609375 C 12.734375 30.609375 10.574219 31.152344 10.886719 32.285156 C 11.417969 33.347656 11.597656 33.46875 11.597656 33.46875 C 11.597656 33.46875 14.671875 38.207031 23.824219 36.925781 C 32.972656 35.644531 34.238281 33.558594 34.15625 32.527344 C 34.074219 31.488281 32.144531 30.734375 32.144531 30.734375 C 32.144531 30.734375 30.714844 25.285156 31.082031 23.050781 C 31.449219 20.816406 32.84375 17.558594 34.21875 16.859375 C 35.59375 16.152344 36.28125 19.222656 36.996094 18.46875 C 37.703125 17.707031 35.816406 13.230469 33.515625 11.894531 C 31.671875 10.640625 29.640625 10.761719 26.386719 11.027344 "/>
<path style=" stroke:none;fill-rule:nonzero;fill:rgb(100%,74.509804%,29.411765%);fill-opacity:1;" d="M 22.769531 20.078125 L 25.347656 19.941406 L 26.714844 17.863281 L 27.652344 20.234375 L 30.136719 21.128906 L 28.21875 22.675781 L 28.175781 25.183594 L 26.144531 23.871094 L 23.425781 24.753906 L 24.1875 22.324219 M 22.769531 20.078125 "/>
<path style=" stroke:none;fill-rule:nonzero;fill:rgb(100%,74.509804%,29.411765%);fill-opacity:1;" d="M 22.386719 27.621094 L 24.808594 26.71875 L 25.5 24.328125 L 27.082031 26.300781 L 29.71875 26.417969 L 28.347656 28.464844 L 29.042969 30.871094 L 26.71875 30.230469 L 24.378906 31.886719 L 24.394531 29.339844 M 22.386719 27.625 "/>
<path style=" stroke:none;fill-rule:nonzero;fill:rgb(100%,74.509804%,29.411765%);fill-opacity:1;" d="M 16.113281 24.453125 L 18.6875 24.644531 L 20.296875 22.761719 L 20.933594 25.222656 L 23.28125 26.4375 L 21.1875 27.722656 L 20.832031 30.203125 L 18.984375 28.640625 L 16.175781 29.171875 L 17.234375 26.859375 M 16.113281 24.453125 "/>
</g>
</svg>
