<?xml version="1.0" encoding="UTF-8"?>
<svg xmlns="http://www.w3.org/2000/svg" xmlns:xlink="http://www.w3.org/1999/xlink" width="48pt" height="48pt" viewBox="0 0 48 48" version="1.1">
<g id="surface1">
<path style=" stroke:none;fill-rule:evenodd;fill:rgb(38.039216%,69.019608%,86.666667%);fill-opacity:1;" d="M 11.207031 2.847656 L 36.792969 2.847656 C 41.40625 2.847656 45.152344 6.59375 45.152344 11.207031 L 45.152344 36.792969 C 45.152344 41.40625 41.40625 45.152344 36.792969 45.152344 L 11.207031 45.152344 C 6.59375 45.152344 2.847656 41.40625 2.847656 36.792969 L 2.847656 11.207031 C 2.847656 6.59375 6.59375 2.847656 11.207031 2.847656 Z M 11.207031 2.847656 "/>
<path style=" stroke:none;fill-rule:evenodd;fill:rgb(90.980392%,59.607843%,0%);fill-opacity:1;" d="M 31.042969 45.152344 L 36.792969 45.152344 C 41.421875 45.152344 45.152344 41.421875 45.152344 36.792969 L 45.152344 11.207031 C 45.152344 6.578125 41.421875 2.847656 36.792969 2.847656 L 31.042969 2.847656 Z M 31.042969 45.152344 "/>
<path style=" stroke:none;fill-rule:evenodd;fill:rgb(74.117647%,10.980392%,10.980392%);fill-opacity:1;" d="M 16.957031 2.847656 L 11.207031 2.847656 C 6.578125 2.847656 2.847656 6.578125 2.847656 11.207031 L 2.847656 36.792969 C 2.847656 41.421875 6.578125 45.152344 11.207031 45.152344 L 16.957031 45.152344 Z M 16.957031 2.847656 "/>
<path style=" stroke:none;fill-rule:evenodd;fill:rgb(89.803922%,89.803922%,89.803922%);fill-opacity:1;" d="M 6.953125 7.332031 L 12.75 7.332031 C 13.480469 7.332031 14.066406 7.921875 14.066406 8.652344 L 14.066406 27.097656 C 14.066406 27.824219 13.480469 28.410156 12.75 28.410156 L 6.953125 28.410156 C 6.222656 28.410156 5.636719 27.824219 5.636719 27.097656 L 5.636719 8.652344 C 5.636719 7.921875 6.222656 7.332031 6.953125 7.332031 Z M 6.953125 7.332031 "/>
<path style=" stroke:none;fill-rule:evenodd;fill:rgb(89.803922%,89.803922%,89.803922%);fill-opacity:1;" d="M 13.472656 37.046875 C 13.472656 39.046875 11.855469 40.667969 9.847656 40.667969 C 7.847656 40.667969 6.230469 39.046875 6.230469 37.046875 C 6.230469 35.042969 7.847656 33.421875 9.847656 33.421875 C 11.855469 33.421875 13.472656 35.042969 13.472656 37.046875 Z M 13.472656 37.046875 "/>
<path style=" stroke:none;fill-rule:evenodd;fill:rgb(34.509804%,34.509804%,34.509804%);fill-opacity:1;" d="M 12.300781 37.046875 C 12.300781 38.402344 11.203125 39.5 9.847656 39.5 C 8.496094 39.5 7.394531 38.402344 7.394531 37.046875 C 7.394531 35.6875 8.496094 34.589844 9.847656 34.589844 C 11.203125 34.589844 12.300781 35.6875 12.300781 37.046875 Z M 12.300781 37.046875 "/>
<path style=" stroke:none;fill-rule:evenodd;fill:rgb(34.509804%,34.509804%,34.509804%);fill-opacity:1;" d="M 8.167969 8.96875 L 11.535156 8.96875 C 12.046875 8.96875 12.457031 9.378906 12.457031 9.890625 L 12.457031 11.496094 C 12.457031 12.003906 12.046875 12.417969 11.535156 12.417969 L 8.167969 12.417969 C 7.65625 12.417969 7.238281 12.003906 7.238281 11.496094 L 7.238281 9.890625 C 7.238281 9.378906 7.65625 8.96875 8.167969 8.96875 Z M 8.167969 8.96875 "/>
<path style=" stroke:none;fill-rule:evenodd;fill:rgb(34.509804%,34.509804%,34.509804%);fill-opacity:1;" d="M 7.605469 21.167969 L 12.097656 21.167969 C 12.296875 21.167969 12.457031 21.328125 12.457031 21.527344 L 12.457031 22.15625 C 12.457031 22.355469 12.296875 22.515625 12.097656 22.515625 L 7.605469 22.515625 C 7.40625 22.515625 7.238281 22.355469 7.238281 22.15625 L 7.238281 21.527344 C 7.238281 21.328125 7.40625 21.167969 7.605469 21.167969 Z M 7.605469 21.167969 "/>
<path style=" stroke:none;fill-rule:evenodd;fill:rgb(34.509804%,34.509804%,34.509804%);fill-opacity:1;" d="M 7.605469 23.332031 L 12.097656 23.332031 C 12.296875 23.332031 12.457031 23.496094 12.457031 23.691406 L 12.457031 24.324219 C 12.457031 24.519531 12.296875 24.683594 12.097656 24.683594 L 7.605469 24.683594 C 7.40625 24.683594 7.238281 24.519531 7.238281 24.324219 L 7.238281 23.691406 C 7.238281 23.496094 7.40625 23.332031 7.605469 23.332031 Z M 7.605469 23.332031 "/>
<path style=" stroke:none;fill-rule:evenodd;fill:rgb(34.509804%,34.509804%,34.509804%);fill-opacity:1;" d="M 7.605469 25.425781 L 12.097656 25.425781 C 12.296875 25.425781 12.457031 25.589844 12.457031 25.792969 L 12.457031 26.417969 C 12.457031 26.621094 12.296875 26.78125 12.097656 26.78125 L 7.605469 26.78125 C 7.40625 26.78125 7.238281 26.621094 7.238281 26.417969 L 7.238281 25.792969 C 7.238281 25.589844 7.40625 25.425781 7.605469 25.425781 Z M 7.605469 25.425781 "/>
<path style=" stroke:none;fill-rule:evenodd;fill:rgb(89.803922%,89.803922%,89.803922%);fill-opacity:1;" d="M 21.097656 7.332031 L 26.902344 7.332031 C 27.625 7.332031 28.21875 7.921875 28.21875 8.652344 L 28.21875 27.097656 C 28.21875 27.824219 27.625 28.410156 26.902344 28.410156 L 21.097656 28.410156 C 20.375 28.410156 19.78125 27.824219 19.78125 27.097656 L 19.78125 8.652344 C 19.78125 7.921875 20.375 7.332031 21.097656 7.332031 Z M 21.097656 7.332031 "/>
<path style=" stroke:none;fill-rule:evenodd;fill:rgb(89.803922%,89.803922%,89.803922%);fill-opacity:1;" d="M 27.625 37.046875 C 27.625 39.046875 26 40.667969 24 40.667969 C 22 40.667969 20.375 39.046875 20.375 37.046875 C 20.375 35.042969 22 33.421875 24 33.421875 C 26 33.421875 27.625 35.042969 27.625 37.046875 Z M 27.625 37.046875 "/>
<path style=" stroke:none;fill-rule:evenodd;fill:rgb(34.509804%,34.509804%,34.509804%);fill-opacity:1;" d="M 26.453125 37.046875 C 26.453125 38.402344 25.355469 39.5 24 39.5 C 22.644531 39.5 21.546875 38.402344 21.546875 37.046875 C 21.546875 35.6875 22.644531 34.589844 24 34.589844 C 25.355469 34.589844 26.453125 35.6875 26.453125 37.046875 Z M 26.453125 37.046875 "/>
<path style=" stroke:none;fill-rule:evenodd;fill:rgb(34.509804%,34.509804%,34.509804%);fill-opacity:1;" d="M 22.3125 8.96875 L 25.6875 8.96875 C 26.199219 8.96875 26.609375 9.378906 26.609375 9.890625 L 26.609375 11.496094 C 26.609375 12.003906 26.199219 12.417969 25.6875 12.417969 L 22.3125 12.417969 C 21.800781 12.417969 21.390625 12.003906 21.390625 11.496094 L 21.390625 9.890625 C 21.390625 9.378906 21.800781 8.96875 22.3125 8.96875 Z M 22.3125 8.96875 "/>
<path style=" stroke:none;fill-rule:evenodd;fill:rgb(34.509804%,34.509804%,34.509804%);fill-opacity:1;" d="M 21.753906 21.167969 L 26.246094 21.167969 C 26.449219 21.167969 26.609375 21.328125 26.609375 21.527344 L 26.609375 22.15625 C 26.609375 22.355469 26.449219 22.515625 26.246094 22.515625 L 21.753906 22.515625 C 21.550781 22.515625 21.390625 22.355469 21.390625 22.15625 L 21.390625 21.527344 C 21.390625 21.328125 21.550781 21.167969 21.753906 21.167969 Z M 21.753906 21.167969 "/>
<path style=" stroke:none;fill-rule:evenodd;fill:rgb(34.509804%,34.509804%,34.509804%);fill-opacity:1;" d="M 21.753906 23.332031 L 26.246094 23.332031 C 26.449219 23.332031 26.609375 23.496094 26.609375 23.691406 L 26.609375 24.324219 C 26.609375 24.519531 26.449219 24.683594 26.246094 24.683594 L 21.753906 24.683594 C 21.550781 24.683594 21.390625 24.519531 21.390625 24.324219 L 21.390625 23.691406 C 21.390625 23.496094 21.550781 23.332031 21.753906 23.332031 Z M 21.753906 23.332031 "/>
<path style=" stroke:none;fill-rule:evenodd;fill:rgb(34.509804%,34.509804%,34.509804%);fill-opacity:1;" d="M 21.753906 25.425781 L 26.246094 25.425781 C 26.449219 25.425781 26.609375 25.589844 26.609375 25.792969 L 26.609375 26.417969 C 26.609375 26.621094 26.449219 26.78125 26.246094 26.78125 L 21.753906 26.78125 C 21.550781 26.78125 21.390625 26.621094 21.390625 26.417969 L 21.390625 25.792969 C 21.390625 25.589844 21.550781 25.425781 21.753906 25.425781 Z M 21.753906 25.425781 "/>
<path style=" stroke:none;fill-rule:evenodd;fill:rgb(89.803922%,89.803922%,89.803922%);fill-opacity:1;" d="M 35.25 7.332031 L 41.046875 7.332031 C 41.777344 7.332031 42.363281 7.921875 42.363281 8.652344 L 42.363281 27.097656 C 42.363281 27.824219 41.777344 28.410156 41.046875 28.410156 L 35.25 28.410156 C 34.519531 28.410156 33.933594 27.824219 33.933594 27.097656 L 33.933594 8.652344 C 33.933594 7.921875 34.519531 7.332031 35.25 7.332031 Z M 35.25 7.332031 "/>
<path style=" stroke:none;fill-rule:evenodd;fill:rgb(89.803922%,89.803922%,89.803922%);fill-opacity:1;" d="M 41.769531 37.046875 C 41.769531 39.046875 40.152344 40.667969 38.152344 40.667969 C 36.144531 40.667969 34.527344 39.046875 34.527344 37.046875 C 34.527344 35.042969 36.144531 33.421875 38.152344 33.421875 C 40.152344 33.421875 41.769531 35.042969 41.769531 37.046875 Z M 41.769531 37.046875 "/>
<path style=" stroke:none;fill-rule:evenodd;fill:rgb(34.509804%,34.509804%,34.509804%);fill-opacity:1;" d="M 40.605469 37.046875 C 40.605469 38.402344 39.503906 39.5 38.152344 39.5 C 36.796875 39.5 35.699219 38.402344 35.699219 37.046875 C 35.699219 35.6875 36.796875 34.589844 38.152344 34.589844 C 39.503906 34.589844 40.605469 35.6875 40.605469 37.046875 Z M 40.605469 37.046875 "/>
<path style=" stroke:none;fill-rule:evenodd;fill:rgb(34.509804%,34.509804%,34.509804%);fill-opacity:1;" d="M 36.464844 8.96875 L 39.832031 8.96875 C 40.34375 8.96875 40.761719 9.378906 40.761719 9.890625 L 40.761719 11.496094 C 40.761719 12.003906 40.34375 12.417969 39.832031 12.417969 L 36.464844 12.417969 C 35.953125 12.417969 35.542969 12.003906 35.542969 11.496094 L 35.542969 9.890625 C 35.542969 9.378906 35.953125 8.96875 36.464844 8.96875 Z M 36.464844 8.96875 "/>
<path style=" stroke:none;fill-rule:evenodd;fill:rgb(34.509804%,34.509804%,34.509804%);fill-opacity:1;" d="M 35.902344 21.167969 L 40.394531 21.167969 C 40.59375 21.167969 40.761719 21.328125 40.761719 21.527344 L 40.761719 22.15625 C 40.761719 22.355469 40.59375 22.515625 40.394531 22.515625 L 35.902344 22.515625 C 35.703125 22.515625 35.542969 22.355469 35.542969 22.15625 L 35.542969 21.527344 C 35.542969 21.328125 35.703125 21.167969 35.902344 21.167969 Z M 35.902344 21.167969 "/>
<path style=" stroke:none;fill-rule:evenodd;fill:rgb(34.509804%,34.509804%,34.509804%);fill-opacity:1;" d="M 35.902344 23.332031 L 40.394531 23.332031 C 40.59375 23.332031 40.761719 23.496094 40.761719 23.691406 L 40.761719 24.324219 C 40.761719 24.519531 40.59375 24.683594 40.394531 24.683594 L 35.902344 24.683594 C 35.703125 24.683594 35.542969 24.519531 35.542969 24.324219 L 35.542969 23.691406 C 35.542969 23.496094 35.703125 23.332031 35.902344 23.332031 Z M 35.902344 23.332031 "/>
<path style=" stroke:none;fill-rule:evenodd;fill:rgb(34.509804%,34.509804%,34.509804%);fill-opacity:1;" d="M 35.902344 25.425781 L 40.394531 25.425781 C 40.59375 25.425781 40.761719 25.589844 40.761719 25.792969 L 40.761719 26.417969 C 40.761719 26.621094 40.59375 26.78125 40.394531 26.78125 L 35.902344 26.78125 C 35.703125 26.78125 35.542969 26.621094 35.542969 26.417969 L 35.542969 25.792969 C 35.542969 25.589844 35.703125 25.425781 35.902344 25.425781 Z M 35.902344 25.425781 "/>
</g>
</svg>
