<?xml version="1.0" encoding="UTF-8"?>
<svg xmlns="http://www.w3.org/2000/svg" xmlns:xlink="http://www.w3.org/1999/xlink" width="48pt" height="48pt" viewBox="0 0 48 48" version="1.1">
<g id="surface1">
<path style=" stroke:none;fill-rule:evenodd;fill:rgb(92.54902%,92.54902%,92.54902%);fill-opacity:1;" d="M 11.207031 2.847656 L 36.792969 2.847656 C 41.40625 2.847656 45.152344 6.59375 45.152344 11.207031 L 45.152344 36.792969 C 45.152344 41.40625 41.40625 45.152344 36.792969 45.152344 L 11.207031 45.152344 C 6.59375 45.152344 2.847656 41.40625 2.847656 36.792969 L 2.847656 11.207031 C 2.847656 6.59375 6.59375 2.847656 11.207031 2.847656 Z M 11.207031 2.847656 "/>
<path style=" stroke:none;fill-rule:evenodd;fill:rgb(92.54902%,92.54902%,92.54902%);fill-opacity:1;" d="M 22.050781 2.847656 C 21.996094 2.964844 21.941406 3.078125 21.886719 3.191406 C 21.578125 3.890625 21.292969 4.597656 21.03125 5.308594 C 20.769531 6.015625 20.535156 6.722656 20.328125 7.4375 C 20.121094 8.144531 19.9375 8.855469 19.785156 9.558594 C 19.628906 10.265625 19.5 10.964844 19.402344 11.65625 C 19.308594 12.347656 19.234375 13.035156 19.191406 13.707031 C 19.152344 14.378906 19.136719 15.042969 19.144531 15.691406 C 19.160156 16.339844 19.207031 16.972656 19.277344 17.589844 C 19.347656 18.203125 19.449219 18.800781 19.574219 19.375 C 19.699219 19.953125 19.855469 20.511719 20.035156 21.042969 C 20.21875 21.574219 20.425781 22.082031 20.660156 22.5625 C 20.894531 23.046875 21.15625 23.5 21.4375 23.925781 C 21.722656 24.359375 22.035156 24.761719 22.371094 25.128906 C 22.703125 25.496094 23.058594 25.832031 23.433594 26.140625 C 23.8125 26.449219 24.207031 26.722656 24.625 26.964844 C 24.921875 27.136719 25.230469 27.292969 25.542969 27.425781 C 25.984375 27.621094 26.449219 27.78125 26.921875 27.902344 C 27.402344 28.027344 27.894531 28.113281 28.402344 28.167969 C 28.90625 28.222656 29.421875 28.238281 29.953125 28.222656 C 30.484375 28.207031 31.019531 28.15625 31.566406 28.066406 C 32.121094 27.980469 32.671875 27.855469 33.230469 27.699219 C 33.792969 27.542969 34.359375 27.347656 34.925781 27.121094 C 35.488281 26.894531 36.0625 26.636719 36.628906 26.339844 C 37.199219 26.046875 37.765625 25.722656 38.328125 25.363281 C 38.894531 25.011719 39.453125 24.625 40.003906 24.207031 C 40.5625 23.792969 41.109375 23.347656 41.652344 22.878906 C 42.1875 22.40625 42.71875 21.90625 43.234375 21.386719 C 43.753906 20.863281 44.261719 20.316406 44.753906 19.75 C 44.886719 19.589844 45.019531 19.425781 45.152344 19.261719 L 45.152344 11.207031 C 45.152344 6.578125 41.421875 2.847656 36.792969 2.847656 Z M 22.050781 2.847656 "/>
<path style=" stroke:none;fill-rule:evenodd;fill:rgb(92.54902%,92.54902%,92.54902%);fill-opacity:1;" d="M 17.25 45.152344 C 17.4375 44.894531 17.707031 44.644531 17.859375 44.386719 C 18.328125 43.597656 18.628906 42.808594 18.746094 42.035156 C 18.863281 41.238281 18.847656 40.996094 18.59375 40.136719 C 18.292969 39.113281 17.746094 38.25 16.972656 37.5625 C 16.203125 36.878906 15.214844 36.375 14.027344 36.078125 C 12.796875 35.769531 11.519531 35.628906 10.027344 35.65625 C 8.53125 35.683594 6.824219 35.878906 4.738281 36.246094 C 4.324219 36.316406 3.484375 36.671875 2.855469 36.832031 C 2.878906 41.449219 6.59375 45.152344 11.207031 45.152344 Z M 17.25 45.152344 "/>
<path style=" stroke:none;fill-rule:evenodd;fill:rgb(92.54902%,92.54902%,92.54902%);fill-opacity:1;" d="M 42.816406 42.542969 C 42.234375 42.605469 41.5625 42.828125 41.027344 42.832031 C 38.503906 42.878906 36.246094 42.53125 34.386719 41.84375 C 33.457031 41.5 32.625 41.074219 31.917969 40.5625 C 31.203125 40.058594 30.609375 39.472656 30.152344 38.816406 C 29.84375 38.375 29.535156 37.824219 29.472656 37.597656 C 29.378906 37.265625 29.25 37.140625 28.8125 36.957031 C 27.5625 36.441406 26.390625 36.394531 24.691406 36.785156 C 23.128906 37.144531 22.074219 37.625 21.191406 38.375 C 20.261719 39.160156 19.863281 39.792969 20 40.265625 C 20.167969 40.871094 20.082031 42.292969 19.824219 43.160156 C 19.625 43.828125 19.246094 44.488281 18.855469 45.152344 L 36.792969 45.152344 C 39.183594 45.152344 41.300781 44.136719 42.816406 42.542969 Z M 42.816406 42.542969 "/>
<path style=" stroke:none;fill-rule:evenodd;fill:rgb(92.54902%,92.54902%,92.54902%);fill-opacity:1;" d="M 42.832031 25.578125 C 43.589844 25.347656 44.046875 25.066406 45.042969 24.8125 C 45.089844 24.800781 45.109375 24.800781 45.152344 24.792969 L 45.152344 23.546875 C 44.988281 23.707031 44.828125 23.863281 44.667969 24.027344 C 44.0625 24.566406 43.453125 25.082031 42.832031 25.578125 Z M 42.832031 25.578125 "/>
<path style=" stroke:none;fill-rule:evenodd;fill:rgb(92.54902%,92.54902%,92.54902%);fill-opacity:1;" d="M 32.421875 31.015625 C 32.203125 31.246094 31.878906 31.464844 31.699219 31.703125 C 31.105469 32.496094 30.714844 33.316406 30.527344 34.160156 C 30.34375 35.003906 30.363281 35.871094 30.605469 36.75 C 30.792969 37.441406 31.050781 37.996094 31.464844 38.480469 C 31.875 38.96875 32.433594 39.390625 33.207031 39.832031 C 34.234375 40.417969 35.433594 40.847656 36.753906 41.125 C 38.074219 41.394531 39.503906 41.515625 40.988281 41.480469 C 41.894531 41.457031 42.839844 41.269531 43.765625 41.136719 C 44.566406 39.855469 45.152344 38.421875 45.152344 36.792969 L 45.152344 24.792969 C 45.109375 24.800781 45.089844 24.800781 45.042969 24.8125 C 44.046875 25.066406 43.589844 25.347656 42.832031 25.578125 C 42.734375 25.660156 42.636719 25.746094 42.53125 25.832031 C 41.8125 26.394531 41.082031 26.921875 40.347656 27.410156 C 39.609375 27.902344 38.871094 28.355469 38.125 28.761719 C 37.378906 29.167969 36.636719 29.535156 35.890625 29.855469 C 35.144531 30.175781 34.40625 30.457031 33.667969 30.691406 C 33.25 30.8125 32.832031 30.921875 32.421875 31.015625 Z M 32.421875 31.015625 "/>
<path style=" stroke:none;fill-rule:evenodd;fill:rgb(92.54902%,92.54902%,92.54902%);fill-opacity:1;" d="M 30.015625 31.453125 C 29.355469 32.1875 28.910156 32.6875 27.792969 33.292969 C 26.558594 33.957031 25.105469 34.53125 23.609375 34.953125 C 22.113281 35.371094 20.582031 35.640625 19.1875 35.714844 C 17.5625 35.800781 17.128906 35.738281 15.59375 35.207031 C 13.941406 34.636719 12.359375 34.339844 10.5 34.316406 C 8.640625 34.296875 6.511719 34.546875 3.765625 35.066406 C 3.53125 35.109375 3.113281 35.285156 2.847656 35.347656 L 2.847656 36.792969 C 2.847656 36.808594 2.855469 36.816406 2.855469 36.832031 C 3.484375 36.671875 4.324219 36.316406 4.738281 36.246094 C 6.824219 35.878906 8.53125 35.683594 10.027344 35.65625 C 11.519531 35.628906 12.796875 35.769531 14.027344 36.078125 C 15.214844 36.375 16.203125 36.878906 16.972656 37.5625 C 17.746094 38.25 18.292969 39.113281 18.59375 40.136719 C 18.847656 40.996094 18.863281 41.238281 18.746094 42.035156 C 18.628906 42.808594 18.328125 43.597656 17.859375 44.386719 C 17.707031 44.644531 17.4375 44.894531 17.25 45.152344 L 18.855469 45.152344 C 19.246094 44.488281 19.625 43.828125 19.824219 43.160156 C 20.082031 42.292969 20.167969 40.871094 20 40.265625 C 19.863281 39.792969 20.261719 39.160156 21.191406 38.375 C 22.074219 37.625 23.128906 37.144531 24.691406 36.785156 C 26.390625 36.394531 27.5625 36.441406 28.8125 36.964844 C 29.25 37.140625 29.378906 37.265625 29.472656 37.597656 C 29.535156 37.824219 29.84375 38.375 30.152344 38.816406 C 30.609375 39.472656 31.203125 40.058594 31.917969 40.5625 C 32.625 41.074219 33.457031 41.5 34.386719 41.84375 C 36.246094 42.53125 38.503906 42.878906 41.027344 42.832031 C 41.5625 42.828125 42.234375 42.605469 42.824219 42.542969 C 43.207031 42.128906 43.464844 41.621094 43.765625 41.136719 C 42.839844 41.269531 41.894531 41.457031 40.996094 41.480469 C 39.503906 41.515625 38.074219 41.394531 36.753906 41.125 C 35.433594 40.847656 34.234375 40.417969 33.207031 39.832031 C 32.433594 39.390625 31.875 38.96875 31.464844 38.480469 C 31.050781 37.996094 30.792969 37.441406 30.605469 36.75 C 30.363281 35.871094 30.34375 35.003906 30.527344 34.160156 C 30.714844 33.316406 31.105469 32.496094 31.699219 31.703125 C 31.878906 31.464844 32.203125 31.246094 32.421875 31.015625 C 32.105469 31.105469 31.792969 31.183594 31.480469 31.253906 C 30.984375 31.34375 30.496094 31.410156 30.015625 31.453125 Z M 30.015625 31.453125 "/>
<path style=" stroke:none;fill-rule:evenodd;fill:rgb(92.54902%,92.54902%,92.54902%);fill-opacity:1;" d="M 11.207031 2.847656 C 6.578125 2.847656 2.847656 6.578125 2.847656 11.207031 L 2.847656 35.347656 C 3.113281 35.285156 3.53125 35.109375 3.765625 35.066406 C 6.511719 34.546875 8.640625 34.296875 10.5 34.316406 C 12.359375 34.339844 13.941406 34.636719 15.59375 35.207031 C 17.128906 35.738281 17.5625 35.800781 19.1875 35.714844 C 20.582031 35.640625 22.113281 35.371094 23.609375 34.953125 C 25.105469 34.53125 26.558594 33.957031 27.792969 33.292969 C 28.910156 32.6875 29.355469 32.1875 30.015625 31.453125 C 29.785156 31.488281 29.5625 31.519531 29.339844 31.542969 C 28.636719 31.59375 27.949219 31.597656 27.277344 31.558594 C 26.605469 31.511719 25.949219 31.421875 25.3125 31.285156 C 24.675781 31.152344 24.058594 30.96875 23.464844 30.738281 C 22.871094 30.515625 22.296875 30.246094 21.75 29.925781 C 21.359375 29.703125 20.984375 29.457031 20.625 29.191406 C 20.113281 28.8125 19.636719 28.394531 19.183594 27.933594 C 18.722656 27.472656 18.300781 26.972656 17.910156 26.433594 C 17.515625 25.894531 17.15625 25.316406 16.832031 24.707031 C 16.503906 24.09375 16.207031 23.449219 15.953125 22.769531 C 15.691406 22.089844 15.46875 21.378906 15.285156 20.640625 C 15.09375 19.902344 14.941406 19.136719 14.828125 18.34375 C 14.714844 17.550781 14.640625 16.734375 14.597656 15.902344 C 14.558594 15.0625 14.558594 14.207031 14.589844 13.332031 C 14.625 12.457031 14.699219 11.574219 14.800781 10.671875 C 14.910156 9.765625 15.058594 8.855469 15.238281 7.933594 C 15.417969 7.015625 15.636719 6.089844 15.886719 5.160156 C 16.097656 4.390625 16.339844 3.621094 16.597656 2.847656 Z M 11.207031 2.847656 "/>
<path style=" stroke:none;fill-rule:evenodd;fill:rgb(19.215686%,56.862745%,80.392157%);fill-opacity:1;" d="M 16.597656 2.847656 C 16.339844 3.621094 16.097656 4.390625 15.886719 5.160156 C 15.636719 6.089844 15.417969 7.015625 15.238281 7.933594 C 15.058594 8.855469 14.910156 9.765625 14.800781 10.671875 C 14.699219 11.574219 14.625 12.457031 14.589844 13.332031 C 14.558594 14.207031 14.558594 15.0625 14.597656 15.902344 C 14.640625 16.734375 14.714844 17.550781 14.828125 18.34375 C 14.941406 19.136719 15.097656 19.902344 15.285156 20.640625 C 15.46875 21.378906 15.691406 22.089844 15.953125 22.769531 C 16.207031 23.449219 16.503906 24.09375 16.832031 24.707031 C 17.15625 25.316406 17.515625 25.894531 17.910156 26.433594 C 18.300781 26.972656 18.722656 27.472656 19.183594 27.933594 C 19.636719 28.394531 20.113281 28.8125 20.625 29.191406 C 20.984375 29.457031 21.363281 29.703125 21.75 29.925781 C 22.296875 30.246094 22.871094 30.515625 23.464844 30.738281 C 24.058594 30.96875 24.675781 31.152344 25.3125 31.285156 C 25.949219 31.421875 26.605469 31.511719 27.277344 31.558594 C 27.949219 31.597656 28.636719 31.59375 29.339844 31.542969 C 30.042969 31.496094 30.753906 31.402344 31.480469 31.253906 C 32.199219 31.113281 32.933594 30.925781 33.667969 30.691406 C 34.40625 30.457031 35.144531 30.175781 35.890625 29.855469 C 36.636719 29.535156 37.378906 29.167969 38.125 28.761719 C 38.871094 28.355469 39.609375 27.902344 40.347656 27.410156 C 41.082031 26.921875 41.8125 26.394531 42.53125 25.832031 C 43.253906 25.265625 43.96875 24.660156 44.667969 24.027344 C 44.828125 23.863281 44.988281 23.707031 45.152344 23.546875 L 45.152344 19.261719 C 45.019531 19.425781 44.886719 19.589844 44.753906 19.75 C 44.261719 20.316406 43.753906 20.863281 43.234375 21.386719 C 42.71875 21.90625 42.1875 22.40625 41.652344 22.878906 C 41.109375 23.347656 40.5625 23.792969 40.011719 24.207031 C 39.453125 24.625 38.894531 25.011719 38.328125 25.363281 C 37.765625 25.722656 37.199219 26.046875 36.628906 26.339844 C 36.0625 26.636719 35.488281 26.894531 34.925781 27.121094 C 34.359375 27.347656 33.792969 27.542969 33.230469 27.699219 C 32.671875 27.855469 32.121094 27.980469 31.574219 28.066406 C 31.019531 28.15625 30.484375 28.207031 29.953125 28.222656 C 29.421875 28.238281 28.90625 28.222656 28.402344 28.167969 C 27.894531 28.113281 27.402344 28.027344 26.921875 27.902344 C 26.449219 27.78125 25.984375 27.621094 25.542969 27.425781 C 25.230469 27.292969 24.921875 27.136719 24.625 26.964844 C 24.207031 26.722656 23.8125 26.449219 23.433594 26.140625 C 23.058594 25.832031 22.703125 25.496094 22.371094 25.128906 C 22.035156 24.761719 21.722656 24.359375 21.4375 23.933594 C 21.15625 23.5 20.894531 23.046875 20.660156 22.5625 C 20.425781 22.082031 20.21875 21.574219 20.035156 21.042969 C 19.855469 20.511719 19.699219 19.953125 19.574219 19.375 C 19.449219 18.800781 19.347656 18.203125 19.277344 17.589844 C 19.207031 16.972656 19.160156 16.339844 19.152344 15.691406 C 19.136719 15.042969 19.152344 14.378906 19.191406 13.707031 C 19.234375 13.035156 19.308594 12.347656 19.402344 11.65625 C 19.5 10.964844 19.628906 10.265625 19.785156 9.558594 C 19.9375 8.855469 20.121094 8.144531 20.328125 7.4375 C 20.535156 6.722656 20.769531 6.015625 21.03125 5.308594 C 21.292969 4.597656 21.578125 3.890625 21.886719 3.191406 C 21.941406 3.078125 21.996094 2.964844 22.050781 2.847656 Z M 16.597656 2.847656 "/>
<path style="fill-rule:nonzero;fill:rgb(40%,40%,40%);fill-opacity:1;stroke-width:0.3;stroke-linecap:butt;stroke-linejoin:miter;stroke:rgb(40%,40%,40%);stroke-opacity:1;stroke-miterlimit:4;" d="M -4.232486 23.606512 C -4.750715 23.590887 -5.29759 23.632554 -5.979881 23.765367 C -6.167381 23.799221 -6.630923 23.919012 -6.870506 23.991929 C -7.698631 24.252346 -8.802798 24.788804 -9.32884 25.189846 L -9.440819 25.273179 C -9.690819 25.4737 -9.92259 25.69245 -10.063215 26.002346 L -10.11009 26.101304 C -10.156965 26.195054 -10.162173 26.202867 -10.219465 26.19245 C -10.250715 26.184637 -10.474673 26.179429 -10.719465 26.179429 C -11.125715 26.179429 -11.180402 26.184637 -11.399152 26.231512 C -11.961652 26.351304 -12.490298 26.585679 -12.964256 26.921617 L -13.104881 27.023179 L -13.198631 26.950262 C -13.326236 26.851304 -13.683006 26.679429 -13.849673 26.62995 C -14.229881 26.523179 -14.636131 26.484117 -15.219465 26.502346 C -16.732486 26.544012 -17.982486 26.8487 -19.159569 27.455471 C -19.808006 27.794012 -20.474673 28.247137 -20.826236 28.596096 C -21.052798 28.81745 -21.14134 28.984117 -21.177798 29.2237 C -21.193423 29.372137 -21.198631 29.372137 -21.263736 29.398179 C -21.388736 29.44245 -21.875715 29.689846 -21.964256 29.75495 C -22.044986 29.809637 -22.055402 29.825262 -22.055402 29.892971 C -22.055402 29.981512 -22.013736 30.090887 -21.974673 30.116929 C -21.959048 30.127346 -21.95384 30.119533 -21.964256 30.096096 C -22.003319 30.00495 -22.01634 29.898179 -21.995506 29.859117 C -21.964256 29.799221 -21.64134 29.616929 -21.386131 29.512762 L -21.159569 29.419012 L -21.146548 29.523179 C -21.138736 29.580471 -21.115298 29.669012 -21.094465 29.713283 C -21.065819 29.775783 -21.063215 29.804429 -21.07884 29.807033 C -21.094465 29.809637 -21.219465 29.856512 -21.36009 29.900783 C -21.503319 29.950262 -21.669986 30.002346 -21.729881 30.017971 C -21.847069 30.049221 -21.886131 30.080471 -21.89134 30.148179 C -21.896548 30.171617 -21.899152 30.202867 -21.901756 30.215887 C -21.906965 30.231512 -21.875715 30.257554 -21.834048 30.283596 C -21.70384 30.351304 -21.552798 30.338283 -21.276756 30.231512 C -21.149152 30.182033 -21.042381 30.150783 -21.034569 30.158596 C -21.026756 30.163804 -21.000715 30.2237 -20.974673 30.2862 C -20.857486 30.590887 -20.628319 30.984117 -20.440819 31.202867 C -20.250715 31.429429 -19.95384 31.627346 -19.680402 31.715887 L -19.584048 31.747137 L -19.974673 32.132554 C -20.42259 32.580471 -21.11009 33.304429 -21.11009 33.335679 C -21.11009 33.361721 -21.021548 33.538804 -20.959048 33.632554 C -20.888736 33.734117 -20.763736 33.859117 -20.636131 33.960679 C -20.57884 34.00495 -20.526756 34.038804 -20.521548 34.038804 C -20.513736 34.038804 -20.20384 33.741929 -19.836652 33.377346 C -19.464256 33.012762 -18.969465 32.533596 -18.73509 32.31745 L -18.315819 31.921617 L -18.084048 31.921617 C -17.878319 31.919012 -17.464256 31.887762 -17.193423 31.851304 C -16.933006 32.221096 -16.646548 32.773179 -16.896548 31.809637 C -16.89134 31.807033 -16.802798 31.788804 -16.698631 31.765367 C -15.099673 31.44245 -13.742902 30.715887 -12.995506 29.796617 C -12.719465 29.452867 -12.630923 29.215887 -12.625715 28.794012 L -12.620506 28.538804 L -12.544986 28.512762 C -12.503319 28.497137 -12.313215 28.429429 -12.120506 28.356512 C -11.39134 28.088283 -11.263736 28.046617 -10.930402 27.986721 C -10.495506 27.908596 -9.818423 27.794012 -9.813215 27.796617 C -9.813215 27.799221 -9.784569 27.8487 -9.755923 27.908596 C -9.615298 28.19245 -9.388736 28.439846 -9.162173 28.56745 C -8.901756 28.713283 -8.45384 28.8487 -8.024152 28.921617 C -6.714256 29.137762 -5.031965 28.830471 -3.61009 28.127346 C -3.500715 28.070054 -3.36009 27.997137 -3.305402 27.963283 C -3.222069 27.913804 -3.190819 27.908596 -3.130923 27.919012 C -2.974673 27.945054 -2.138736 28.142971 -2.125715 28.153387 C -1.979881 28.189846 -1.761131 28.257554 -1.761131 28.257554 C -1.745506 28.244533 -1.701236 28.25495 -0.906965 28.463283 C -0.544986 28.559637 -0.23509 28.632554 -0.222069 28.627346 C -0.193423 28.616929 -0.115298 28.429429 -0.0762356 28.278387 C -0.0449856 28.169012 -0.0267564 27.908596 -0.0449856 27.807033 L -0.0554022 27.715887 L -0.339256 27.62995 C -0.649152 27.533596 -1.479881 27.296617 -1.815819 27.210679 L -2.026756 27.153387 L -2.04759 27.080471 C -2.068423 27.007554 -2.065819 26.997137 -1.974673 26.869533 C -1.865298 26.702867 -1.776756 26.512762 -1.722069 26.288804 C -1.688215 26.142971 -1.680402 26.070054 -1.680402 25.710679 C -1.680402 25.445054 -1.688215 25.252346 -1.70384 25.1612 C -1.719465 25.085679 -1.724673 25.015367 -1.722069 25.007554 C -1.714256 25.002346 -1.607486 24.981512 -1.48509 24.960679 C -1.169986 24.9112 -1.024152 24.838283 -0.948631 24.695054 C -0.912173 24.62995 -0.912173 24.622137 -0.948631 24.622137 C -0.964256 24.622137 -0.979881 24.609117 -0.979881 24.596096 C -0.979881 24.580471 -1.003319 24.557033 -1.034569 24.546617 C -1.084048 24.525783 -1.117902 24.528387 -1.281965 24.570054 C -1.448631 24.611721 -1.818423 24.689846 -1.870506 24.689846 C -1.880923 24.689846 -1.899152 24.640367 -1.906965 24.577867 C -1.912173 24.517971 -1.933006 24.434637 -1.959048 24.392971 L -1.995506 24.320054 L -1.933006 24.309637 C -1.729881 24.273179 -1.513736 24.257554 -1.287173 24.262762 L -1.026756 24.267971 L -0.992902 24.356512 C -0.974673 24.400783 -0.95384 24.455471 -0.951236 24.476304 C -0.930402 24.538804 -0.917381 24.491929 -0.930402 24.403387 C -0.938215 24.351304 -0.961652 24.294012 -0.990298 24.257554 L -1.037173 24.200262 L -1.253319 24.200262 C -1.459048 24.200262 -1.834048 24.226304 -1.940819 24.252346 C -1.98509 24.257554 -2.000715 24.247137 -2.055402 24.163804 C -2.159569 24.002346 -2.349673 23.869533 -2.607486 23.778387 C -2.615298 23.775783 -2.649152 23.773179 -2.659569 23.767971 C -2.662173 23.767971 -2.669986 23.767971 -2.67259 23.767971 C -3.232486 23.689846 -3.714256 23.619533 -4.232486 23.606512 Z M -4.380923 23.653387 C -4.024152 23.653387 -3.662173 23.669012 -3.469465 23.69245 C -2.886131 23.767971 -2.656965 23.820054 -2.459048 23.924221 C -2.388736 23.963283 -2.347069 23.986721 -2.367902 23.984117 C -2.698631 23.887762 -3.052798 23.807033 -3.440819 23.747137 C -3.826236 23.689846 -4.625715 23.669012 -5.01634 23.702867 C -6.005923 23.794012 -6.930402 24.054429 -7.974673 24.546617 C -8.542381 24.838283 -9.136131 25.127346 -9.646548 25.601304 C -9.815819 25.778387 -9.899152 25.903387 -9.959048 26.085679 C -9.982486 26.150783 -10.005923 26.257554 -10.013736 26.325262 L -10.031965 26.445054 L -10.031965 26.335679 C -10.034569 26.241929 -10.042381 26.221096 -10.073631 26.213283 C -10.125715 26.200262 -10.125715 26.189846 -10.04759 26.038804 C -9.847069 25.642971 -9.461652 25.265367 -8.948631 24.960679 C -8.781965 24.859117 -8.438215 24.679429 -8.380923 24.658596 C -8.336652 24.640367 -8.336652 24.640367 -8.370506 24.669012 C -8.45384 24.734117 -8.344465 24.689846 -8.013736 24.517971 C -7.17259 24.096096 -6.261131 23.81745 -5.294986 23.69245 C -5.104881 23.669012 -4.742902 23.653387 -4.380923 23.653387 Z M -4.594465 23.710679 C -4.339256 23.705471 -4.086652 23.710679 -3.930402 23.7237 C -3.651756 23.744533 -3.222069 23.804429 -3.23509 23.814846 C -3.240298 23.81745 -3.334048 23.809637 -3.440819 23.799221 C -4.482486 23.700262 -5.479881 23.765367 -6.386131 24.002346 C -6.724673 24.088283 -6.763736 24.096096 -6.594465 24.038804 C -6.250715 23.924221 -5.714256 23.807033 -5.26634 23.752346 C -5.104881 23.731512 -4.847069 23.715887 -4.594465 23.710679 Z M -4.063215 23.809637 C -3.906965 23.81745 -3.750715 23.830471 -3.594465 23.846096 C -3.584048 23.838283 -3.573631 23.835679 -3.563215 23.827867 C -3.255923 23.861721 -3.052798 23.898179 -2.888736 23.934637 C -2.867902 23.939846 -2.847069 23.939846 -2.826236 23.945054 L -2.844465 23.950262 C -2.740298 23.976304 -2.64134 24.00495 -2.565819 24.044012 C -2.367902 24.142971 -2.287173 24.234117 -2.167381 24.50495 C -2.094465 24.669012 -2.097069 24.669012 -2.136131 24.684637 C -2.255923 24.726304 -2.857486 24.866929 -3.495506 24.994533 C -4.305402 25.158596 -4.586652 25.2237 -4.836652 25.309637 C -4.979881 25.361721 -5.167381 25.445054 -5.073631 25.419012 C -4.617902 25.283596 -3.305402 24.984117 -2.620506 24.859117 C -2.526756 24.840887 -2.365298 24.807033 -2.261131 24.783596 L -2.073631 24.741929 L -2.04759 24.827867 L -2.024152 24.919012 L -2.294986 24.994533 C -3.896548 25.460679 -4.565819 25.642971 -5.011131 25.736721 C -5.375715 25.814846 -5.380923 25.809637 -5.380923 25.632554 C -5.380923 25.559637 -5.375715 25.5362 -5.344465 25.517971 C -5.287173 25.491929 -5.294986 25.450262 -5.367902 25.403387 C -5.412173 25.377346 -5.451236 25.369533 -5.495506 25.377346 C -5.67259 25.400783 -7.938215 26.137762 -9.419986 26.642971 C -9.667381 26.731512 -9.875715 26.799221 -9.886131 26.799221 C -9.899152 26.799221 -9.909569 26.744533 -9.927798 26.596096 L -9.823631 26.267971 L -9.901756 26.294012 C -9.615298 25.179429 -6.933006 23.734117 -4.063215 23.809637 Z M -3.17259 23.825262 C -3.159569 23.820054 -3.14134 23.820054 -3.136131 23.827867 C -3.130923 23.835679 -3.14134 23.838283 -3.162173 23.838283 C -3.183006 23.835679 -3.190819 23.830471 -3.17259 23.825262 Z M -2.472069 23.991929 C -2.433006 23.991929 -2.190819 24.077867 -2.167381 24.0987 C -2.149152 24.116929 -2.130923 24.158596 -2.120506 24.200262 C -2.115298 24.236721 -2.037173 24.491929 -1.948631 24.762762 C -1.808006 25.189846 -1.714256 25.549221 -1.740298 25.575262 C -1.742902 25.577867 -1.763736 25.585679 -1.787173 25.588283 C -1.813215 25.588283 -1.847069 25.5987 -1.865298 25.606512 C -1.888736 25.616929 -1.896548 25.590887 -1.906965 25.429429 C -1.940819 24.9112 -2.146548 24.320054 -2.375715 24.096096 C -2.430402 24.038804 -2.474673 23.991929 -2.472069 23.991929 Z M -2.094465 24.205471 C -2.089256 24.200262 -2.084048 24.205471 -2.073631 24.226304 C -2.058006 24.247137 -2.055402 24.265367 -2.063215 24.273179 C -2.065819 24.275783 -2.076236 24.265367 -2.07884 24.247137 C -2.089256 24.2237 -2.094465 24.210679 -2.094465 24.205471 Z M -2.026756 24.4112 C -2.031965 24.392971 -2.024152 24.403387 -2.011131 24.432033 C -1.992902 24.455471 -1.974673 24.512762 -1.969465 24.549221 C -1.951236 24.648179 -1.964256 24.640367 -1.995506 24.538804 C -2.01634 24.465887 -2.026756 24.424221 -2.026756 24.4112 Z M -1.32884 24.627346 C -1.29759 24.622137 -1.287173 24.62995 -1.274152 24.642971 C -1.245506 24.671617 -1.250715 24.679429 -1.294986 24.7237 C -1.326236 24.747137 -1.417381 24.794012 -1.495506 24.81745 C -1.576236 24.846096 -1.667381 24.872137 -1.701236 24.87995 C -1.755923 24.890367 -1.761131 24.887762 -1.781965 24.814846 C -1.802798 24.7237 -1.82884 24.741929 -1.492902 24.658596 C -1.406965 24.640367 -1.357486 24.627346 -1.32884 24.627346 Z M -1.878319 24.75495 C -1.834048 24.75495 -1.826236 24.767971 -1.79759 24.890367 C -1.781965 24.963283 -1.753319 25.109117 -1.73509 25.215887 C -1.701236 25.434637 -1.709048 25.50495 -1.742902 25.330471 C -1.763736 25.236721 -1.865298 24.913804 -1.912173 24.7862 C -1.919986 24.762762 -1.912173 24.75495 -1.878319 24.75495 Z M -2.021548 25.059637 C -1.974673 25.059637 -1.964256 25.116929 -1.940819 25.460679 C -1.919986 25.731512 -1.940819 26.090887 -1.990298 26.283596 C -2.055402 26.523179 -2.284569 26.892971 -2.284569 26.892971 C -2.294986 26.9112 -2.336652 26.952867 -2.375715 26.991929 L -2.448631 27.059637 L -2.784569 26.986721 C -3.719465 26.7862 -4.867902 26.62995 -5.719465 26.588283 C -6.104881 26.570054 -6.281965 26.575262 -6.76634 26.5987 L -6.930402 26.609117 L -6.48509 26.455471 C -5.472069 26.106512 -5.287173 26.033596 -5.23509 25.9737 C -5.211652 25.94245 -5.188215 25.898179 -5.188215 25.872137 C -5.188215 25.846096 -5.183006 25.825262 -5.17259 25.825262 C -5.058006 25.825262 -4.492902 25.695054 -4.005923 25.557033 C -3.136131 25.309637 -2.138736 25.059637 -2.021548 25.059637 Z M -9.26634 25.327867 C -9.281965 25.340887 -9.326236 25.387762 -9.409569 25.4737 C -9.615298 25.674221 -9.755923 25.866929 -9.875715 26.101304 C -9.940819 26.236721 -9.948631 26.262762 -9.95384 26.455471 C -9.961652 26.577867 -9.95384 26.713283 -9.940819 26.778387 C -9.917381 26.908596 -9.740298 27.44245 -9.67259 27.590887 C -9.649152 27.640367 -9.636131 27.689846 -9.638736 27.69245 C -9.651756 27.705471 -9.774152 27.4112 -9.854881 27.1612 C -9.992902 26.744533 -10.024152 26.484117 -9.969465 26.221096 C -9.899152 25.900783 -9.680402 25.606512 -9.323631 25.356512 C -9.276756 25.325262 -9.255923 25.309637 -9.26634 25.327867 Z M -7.399152 25.463283 L -7.544986 25.512762 C -7.495506 25.494533 -7.448631 25.481512 -7.399152 25.463283 Z M -10.753319 26.189846 L -10.597069 26.189846 L -10.576236 26.247137 C -10.563215 26.283596 -10.555402 26.309637 -10.558006 26.309637 C -10.563215 26.314846 -10.683006 26.325262 -10.82884 26.338283 C -11.313215 26.37995 -11.89134 26.533596 -12.305402 26.726304 C -12.406965 26.775783 -12.531965 26.840887 -12.586652 26.872137 C -12.690819 26.934637 -12.709048 26.932033 -12.709048 26.827867 C -12.709048 26.778387 -12.599673 26.705471 -12.313215 26.56745 C -11.847069 26.335679 -11.242902 26.189846 -10.753319 26.189846 Z M -10.01634 26.450262 L -10.01634 26.56745 C -10.01634 26.721096 -9.979881 26.892971 -9.875715 27.205471 C -9.729881 27.648179 -9.555402 27.950262 -9.313215 28.189846 C -9.156965 28.340887 -8.89134 28.525783 -8.847069 28.512762 C -8.834048 28.50495 -8.826236 28.507554 -8.834048 28.515367 C -8.847069 28.538804 -8.625715 28.637762 -8.430402 28.695054 C -7.92259 28.851304 -6.896548 28.908596 -6.190819 28.81745 C -5.378319 28.713283 -4.482486 28.439846 -3.729881 28.059637 C -3.459048 27.924221 -3.305402 27.838283 -2.933006 27.596096 C -2.774152 27.491929 -2.64134 27.4112 -2.638736 27.413804 C -2.636131 27.421617 -2.659569 27.445054 -2.693423 27.4737 C -3.711652 28.241929 -5.188215 28.778387 -6.620506 28.900783 C -6.89134 28.921617 -7.430402 28.921617 -7.690819 28.898179 C -8.11009 28.859117 -8.576236 28.752346 -8.917381 28.611721 C -9.336652 28.44245 -9.558006 28.2237 -9.774152 27.767971 C -9.964256 27.366929 -10.211652 26.554429 -10.136131 26.575262 C -10.125715 26.577867 -10.094465 26.549221 -10.065819 26.515367 Z M -11.448631 26.465887 C -11.427798 26.465887 -11.417381 26.4737 -11.406965 26.486721 C -11.39134 26.50495 -11.380923 26.525783 -11.380923 26.5362 C -11.380923 26.544012 -11.443423 26.56745 -11.521548 26.588283 C -11.597069 26.611721 -11.698631 26.640367 -11.745506 26.658596 C -11.86009 26.695054 -11.880923 26.69245 -11.880923 26.637762 C -11.880923 26.588283 -11.82884 26.564846 -11.573631 26.494533 C -11.505923 26.476304 -11.469465 26.465887 -11.448631 26.465887 Z M -10.555402 26.481512 C -10.427798 26.481512 -10.318423 26.494533 -10.26634 26.515367 C -10.198631 26.546617 -10.198631 26.546617 -10.17259 26.713283 C -10.162173 26.807033 -10.159569 26.890367 -10.167381 26.898179 C -10.17259 26.903387 -10.461652 27.007554 -10.808006 27.12995 L -11.438215 27.351304 L -12.065819 27.465887 C -12.412173 27.528387 -12.722069 27.588283 -12.750715 27.590887 C -12.794986 27.601304 -12.802798 27.596096 -12.839256 27.491929 C -12.86009 27.429429 -12.880923 27.361721 -12.880923 27.346096 C -12.880923 27.294012 -12.711652 27.12995 -12.563215 27.0362 C -12.188215 26.804429 -11.526756 26.585679 -10.959048 26.502346 C -10.82884 26.484117 -10.683006 26.476304 -10.555402 26.481512 Z M -14.834048 26.517971 C -14.440819 26.528387 -14.044986 26.588283 -13.781965 26.684637 C -13.57884 26.757554 -13.323631 26.892971 -13.294986 26.94245 C -13.284569 26.963283 -13.255923 26.994533 -13.232486 27.015367 C -13.211652 27.033596 -13.162173 27.109117 -13.130923 27.182033 C -13.097069 27.25495 -13.055402 27.325262 -13.037173 27.338283 C -12.992902 27.377346 -12.906965 27.590887 -12.844465 27.807033 C -12.646548 28.525783 -12.638736 29.077867 -12.834048 29.455471 C -12.992902 29.767971 -13.534569 30.304429 -14.003319 30.616929 C -14.979881 31.267971 -16.222069 31.684637 -17.565819 31.814846 C -18.068423 31.861721 -18.781965 31.840887 -19.065819 31.767971 C -19.138736 31.747137 -19.136131 31.747137 -19.034569 31.757554 C -18.974673 31.762762 -18.857486 31.775783 -18.76634 31.7862 C -18.521548 31.81745 -17.802798 31.814846 -17.469465 31.778387 C -16.628319 31.689846 -15.836652 31.481512 -15.104881 31.158596 C -14.784569 31.017971 -14.401756 30.809637 -14.326236 30.734117 C -14.29759 30.710679 -14.188215 30.627346 -14.084048 30.549221 C -13.490298 30.12995 -13.031965 29.616929 -12.919986 29.252346 C -12.906965 29.205471 -12.888736 29.174221 -12.880923 29.179429 C -12.847069 29.200262 -12.815819 28.9737 -12.815819 28.721096 C -12.818423 28.491929 -12.82884 28.398179 -12.888736 28.088283 C -12.990298 27.577867 -13.011131 27.515367 -13.104881 27.361721 C -13.20384 27.200262 -13.308006 27.101304 -13.490298 26.994533 C -13.933006 26.731512 -14.490298 26.616929 -15.370506 26.606512 L -15.604881 26.601304 L -15.419986 26.580471 L -15.23509 26.557033 L -15.36009 26.549221 C -15.459048 26.546617 -15.42259 26.544012 -15.219465 26.528387 C -15.094465 26.517971 -14.961652 26.515367 -14.834048 26.517971 Z M -15.630923 26.609117 C -15.630923 26.616929 -15.761131 26.637762 -15.917381 26.653387 C -17.505923 26.846096 -18.711652 27.273179 -19.899152 28.075262 C -20.302798 28.346096 -20.576236 28.557033 -20.732486 28.715887 C -20.896548 28.87995 -20.927798 28.934637 -20.969465 29.122137 C -21.024152 29.400783 -20.909569 29.934637 -20.67259 30.491929 C -20.628319 30.590887 -20.594465 30.682033 -20.594465 30.69245 C -20.594465 30.702867 -20.61009 30.715887 -20.630923 30.721096 C -20.680402 30.734117 -20.755923 30.62995 -20.870506 30.382554 C -20.959048 30.200262 -21.065819 29.869533 -21.042381 29.861721 C -20.979881 29.838283 -20.979881 29.825262 -21.026756 29.715887 C -21.063215 29.637762 -21.084048 29.549221 -21.097069 29.408596 C -21.120506 29.1612 -21.097069 29.070054 -20.95384 28.851304 C -20.834048 28.669012 -20.67259 28.507554 -20.370506 28.275783 C -19.318423 27.463283 -18.138736 26.939846 -16.844465 26.713283 C -16.419986 26.640367 -15.630923 26.570054 -15.630923 26.609117 Z M -14.82884 26.679429 C -14.245506 26.702867 -13.839256 26.827867 -13.45384 27.080471 C -13.305402 27.179429 -13.23509 27.257554 -13.14134 27.44245 C -13.037173 27.648179 -13.037173 27.653387 -13.136131 27.669012 C -13.67259 27.747137 -16.177798 28.262762 -17.370506 28.5362 C -17.714256 28.616929 -17.742902 28.650783 -17.680402 28.9112 C -17.667381 28.9737 -17.651756 29.038804 -17.651756 29.057033 C -17.651756 29.090887 -17.917381 29.184637 -18.365298 29.309637 C -18.919986 29.463283 -20.625715 29.890367 -20.680402 29.890367 C -20.711652 29.887762 -20.755923 29.892971 -20.781965 29.900783 C -20.82884 29.919012 -20.844465 29.892971 -20.849673 29.796617 C -20.854881 29.7237 -20.880923 29.734117 -19.930402 29.429429 C -19.01634 29.132554 -18.719465 29.038804 -18.344465 28.939846 C -17.990298 28.846096 -17.974673 28.840887 -18.099673 28.856512 C -18.305402 28.877346 -18.625715 28.965887 -19.323631 29.200262 C -20.461652 29.577867 -20.847069 29.689846 -20.880923 29.650783 C -20.912173 29.619533 -20.927798 29.2237 -20.901756 29.111721 C -20.849673 28.903387 -20.667381 28.69245 -20.274152 28.390367 C -19.349673 27.674221 -18.42259 27.221096 -17.32884 26.94245 C -16.755923 26.796617 -16.211652 26.721096 -15.474673 26.682033 C -15.240298 26.671617 -15.024152 26.669012 -14.82884 26.679429 Z M -6.524152 27.4737 C -5.722069 27.481512 -4.95384 27.570054 -3.98509 27.747137 C -3.732486 27.794012 -3.521548 27.830471 -3.511131 27.830471 C -3.461652 27.830471 -3.552798 27.887762 -3.802798 28.012762 C -4.586652 28.400783 -5.448631 28.653387 -6.323631 28.757554 C -6.625715 28.794012 -7.232486 28.807033 -7.48509 28.7862 C -8.229881 28.721096 -8.886131 28.507554 -9.188215 28.236721 C -9.344465 28.0987 -9.563215 27.794012 -9.526756 27.757554 C -9.521548 27.75495 -9.409569 27.734117 -9.281965 27.713283 C -8.167381 27.549221 -7.326236 27.471096 -6.524152 27.4737 Z M -8.701236 28.564846 C -8.698631 28.557033 -8.67259 28.564846 -8.651756 28.575262 C -8.630923 28.588283 -8.511131 28.627346 -8.388736 28.6612 C -8.263736 28.695054 -8.177798 28.726304 -8.198631 28.726304 C -8.276756 28.726304 -8.722069 28.580471 -8.701236 28.564846 Z M -12.896548 28.650783 C -12.880923 28.650783 -12.878319 28.7237 -12.886131 28.866929 C -12.906965 29.234117 -12.995506 29.445054 -13.274152 29.778387 C -13.974673 30.611721 -15.188215 31.262762 -16.604881 31.56745 C -16.776756 31.601304 -16.919986 31.632554 -16.927798 31.632554 C -16.959048 31.491929 -17.003319 31.335679 -17.024152 31.189846 L -17.073631 31.064846 L -17.097069 30.908596 L -16.930402 30.765367 C -16.073631 30.101304 -15.076236 29.538804 -13.930402 29.064846 C -13.443423 28.861721 -12.919986 28.650783 -12.896548 28.650783 Z M -8.136131 28.734117 C -8.125715 28.731512 -8.099673 28.731512 -8.089256 28.734117 C -8.076236 28.741929 -8.086652 28.744533 -8.115298 28.744533 C -8.138736 28.744533 -8.149152 28.741929 -8.136131 28.734117 Z M -8.021548 28.75495 C -8.005923 28.747137 -7.98509 28.747137 -7.972069 28.75495 C -7.959048 28.757554 -7.972069 28.765367 -7.995506 28.765367 C -8.024152 28.765367 -8.034569 28.757554 -8.021548 28.75495 Z M -7.886131 28.773179 C -7.870506 28.767971 -7.854881 28.767971 -7.847069 28.775783 C -7.839256 28.783596 -7.854881 28.7862 -7.875715 28.7862 C -7.896548 28.783596 -7.899152 28.778387 -7.886131 28.773179 Z M -15.771548 28.960679 C -15.763736 28.960679 -15.880923 29.025783 -16.034569 29.106512 C -16.857486 29.533596 -17.604881 30.057033 -18.669986 30.950262 C -18.854881 31.101304 -19.089256 31.307033 -19.198631 31.403387 C -19.302798 31.497137 -19.39134 31.575262 -19.399152 31.575262 C -19.438215 31.570054 -19.724673 31.452867 -19.802798 31.4112 C -20.11009 31.234117 -20.388736 30.9112 -20.607486 30.476304 C -20.688215 30.320054 -20.784569 30.090887 -20.784569 30.064846 C -20.784569 30.023179 -19.813215 29.744533 -18.805402 29.494533 C -18.232486 29.351304 -18.094465 29.309637 -17.753319 29.184637 L -17.638736 29.142971 L -17.586652 29.19245 C -17.563215 29.221096 -17.51634 29.247137 -17.492902 29.25495 C -17.440819 29.267971 -17.149152 29.221096 -16.32884 29.059637 C -16.031965 29.00495 -15.781965 28.960679 -15.771548 28.960679 Z M -21.107486 29.890367 C -21.099673 29.898179 -21.089256 29.934637 -21.086652 29.971096 L -21.084048 30.0362 L -21.245506 30.080471 C -21.401756 30.119533 -21.534569 30.132554 -21.586652 30.111721 C -21.617902 30.0987 -21.617902 30.0362 -21.589256 30.017971 C -21.544986 29.991929 -21.120506 29.87995 -21.107486 29.890367 Z M -17.287173 31.189846 C -17.284569 31.210679 -17.276756 31.273179 -17.263736 31.327867 C -17.245506 31.4112 -17.23509 31.421617 -17.198631 31.421617 C -17.151756 31.421617 -17.146548 31.439846 -17.125715 31.632554 C -17.120506 31.653387 -17.162173 31.663804 -17.294986 31.682033 C -17.388736 31.695054 -17.607486 31.713283 -17.774152 31.721096 L -18.084048 31.731512 L -17.992902 31.642971 C -17.940819 31.5987 -17.76634 31.450262 -17.607486 31.31745 Z M -17.287173 31.189846 " transform="matrix(1.5,0,0,1.5,41.114353,-6.7418)"/>
</g>
</svg>
