<?xml version="1.0" encoding="UTF-8"?>
<svg xmlns="http://www.w3.org/2000/svg" xmlns:xlink="http://www.w3.org/1999/xlink" width="48pt" height="48pt" viewBox="0 0 48 48" version="1.1">
<g id="surface1">
<path style=" stroke:none;fill-rule:evenodd;fill:rgb(8.627451%,21.960784%,42.745098%);fill-opacity:1;" d="M 11.207031 2.847656 L 36.792969 2.847656 C 41.40625 2.847656 45.152344 6.59375 45.152344 11.207031 L 45.152344 36.792969 C 45.152344 41.40625 41.40625 45.152344 36.792969 45.152344 L 11.207031 45.152344 C 6.59375 45.152344 2.847656 41.40625 2.847656 36.792969 L 2.847656 11.207031 C 2.847656 6.59375 6.59375 2.847656 11.207031 2.847656 Z M 11.207031 2.847656 "/>
<path style=" stroke:none;fill-rule:evenodd;fill:rgb(38.039216%,69.019608%,86.666667%);fill-opacity:1;" d="M 19.964844 10.375 L 24.394531 10.375 C 25.328125 10.375 26.089844 11.136719 26.089844 12.066406 L 26.089844 35.933594 C 26.089844 36.863281 25.328125 37.625 24.394531 37.625 L 19.964844 37.625 C 19.027344 37.625 18.269531 36.863281 18.269531 35.933594 L 18.269531 12.066406 C 18.269531 11.136719 19.027344 10.375 19.964844 10.375 Z M 19.964844 10.375 "/>
<path style=" stroke:none;fill-rule:evenodd;fill:rgb(89.803922%,89.803922%,89.803922%);fill-opacity:1;" d="M 20.40625 14.003906 L 23.953125 14.003906 C 24.394531 14.003906 24.761719 14.363281 24.761719 14.8125 L 24.761719 26.09375 C 24.761719 26.542969 24.394531 26.902344 23.953125 26.902344 L 20.40625 26.902344 C 19.957031 26.902344 19.597656 26.542969 19.597656 26.09375 L 19.597656 14.8125 C 19.597656 14.363281 19.957031 14.003906 20.40625 14.003906 Z M 20.40625 14.003906 "/>
<path style=" stroke:none;fill-rule:evenodd;fill:rgb(89.803922%,89.803922%,89.803922%);fill-opacity:1;" d="M 24.394531 32.183594 C 24.394531 33.40625 23.402344 34.394531 22.175781 34.394531 C 20.953125 34.394531 19.964844 33.40625 19.964844 32.183594 C 19.964844 30.957031 20.953125 29.964844 22.175781 29.964844 C 23.402344 29.964844 24.394531 30.957031 24.394531 32.183594 Z M 24.394531 32.183594 "/>
<path style=" stroke:none;fill-rule:evenodd;fill:rgb(34.509804%,34.509804%,34.509804%);fill-opacity:1;" d="M 23.683594 32.183594 C 23.683594 33.011719 23.011719 33.683594 22.175781 33.683594 C 21.347656 33.683594 20.675781 33.011719 20.675781 32.183594 C 20.675781 31.355469 21.347656 30.683594 22.175781 30.683594 C 23.011719 30.683594 23.683594 31.355469 23.683594 32.183594 Z M 23.683594 32.183594 "/>
<path style=" stroke:none;fill-rule:evenodd;fill:rgb(34.509804%,34.509804%,34.509804%);fill-opacity:1;" d="M 21.144531 15.003906 L 23.207031 15.003906 C 23.519531 15.003906 23.777344 15.261719 23.777344 15.566406 L 23.777344 16.550781 C 23.777344 16.863281 23.519531 17.113281 23.207031 17.113281 L 21.144531 17.113281 C 20.832031 17.113281 20.582031 16.863281 20.582031 16.550781 L 20.582031 15.566406 C 20.582031 15.261719 20.832031 15.003906 21.144531 15.003906 Z M 21.144531 15.003906 "/>
<path style=" stroke:none;fill-rule:evenodd;fill:rgb(34.509804%,34.509804%,34.509804%);fill-opacity:1;" d="M 20.800781 22.46875 L 23.550781 22.46875 C 23.675781 22.46875 23.777344 22.566406 23.777344 22.6875 L 23.777344 23.074219 C 23.777344 23.191406 23.675781 23.292969 23.550781 23.292969 L 20.800781 23.292969 C 20.683594 23.292969 20.582031 23.191406 20.582031 23.074219 L 20.582031 22.6875 C 20.582031 22.566406 20.683594 22.46875 20.800781 22.46875 Z M 20.800781 22.46875 "/>
<path style=" stroke:none;fill-rule:evenodd;fill:rgb(34.509804%,34.509804%,34.509804%);fill-opacity:1;" d="M 20.800781 23.792969 L 23.550781 23.792969 C 23.675781 23.792969 23.777344 23.890625 23.777344 24.015625 L 23.777344 24.394531 C 23.777344 24.519531 23.675781 24.621094 23.550781 24.621094 L 20.800781 24.621094 C 20.683594 24.621094 20.582031 24.519531 20.582031 24.394531 L 20.582031 24.015625 C 20.582031 23.890625 20.683594 23.792969 20.800781 23.792969 Z M 20.800781 23.792969 "/>
<path style=" stroke:none;fill-rule:evenodd;fill:rgb(34.509804%,34.509804%,34.509804%);fill-opacity:1;" d="M 20.800781 25.074219 L 23.550781 25.074219 C 23.675781 25.074219 23.777344 25.171875 23.777344 25.296875 L 23.777344 25.683594 C 23.777344 25.800781 23.675781 25.902344 23.550781 25.902344 L 20.800781 25.902344 C 20.683594 25.902344 20.582031 25.800781 20.582031 25.683594 L 20.582031 25.296875 C 20.582031 25.171875 20.683594 25.074219 20.800781 25.074219 Z M 20.800781 25.074219 "/>
<path style=" stroke:none;fill-rule:evenodd;fill:rgb(74.117647%,10.980392%,10.980392%);fill-opacity:1;" d="M 10.371094 10.375 L 14.800781 10.375 C 15.738281 10.375 16.496094 11.136719 16.496094 12.066406 L 16.496094 35.933594 C 16.496094 36.863281 15.738281 37.625 14.800781 37.625 L 10.371094 37.625 C 9.4375 37.625 8.675781 36.863281 8.675781 35.933594 L 8.675781 12.066406 C 8.675781 11.136719 9.4375 10.375 10.371094 10.375 Z M 10.371094 10.375 "/>
<path style=" stroke:none;fill-rule:evenodd;fill:rgb(89.803922%,89.803922%,89.803922%);fill-opacity:1;" d="M 10.8125 14.003906 L 14.359375 14.003906 C 14.808594 14.003906 15.167969 14.363281 15.167969 14.8125 L 15.167969 26.09375 C 15.167969 26.542969 14.808594 26.902344 14.359375 26.902344 L 10.8125 26.902344 C 10.371094 26.902344 10.003906 26.542969 10.003906 26.09375 L 10.003906 14.8125 C 10.003906 14.363281 10.371094 14.003906 10.8125 14.003906 Z M 10.8125 14.003906 "/>
<path style=" stroke:none;fill-rule:evenodd;fill:rgb(89.803922%,89.803922%,89.803922%);fill-opacity:1;" d="M 14.800781 32.183594 C 14.800781 33.40625 13.8125 34.394531 12.589844 34.394531 C 11.363281 34.394531 10.371094 33.40625 10.371094 32.183594 C 10.371094 30.957031 11.363281 29.964844 12.589844 29.964844 C 13.8125 29.964844 14.800781 30.957031 14.800781 32.183594 Z M 14.800781 32.183594 "/>
<path style=" stroke:none;fill-rule:evenodd;fill:rgb(34.509804%,34.509804%,34.509804%);fill-opacity:1;" d="M 14.089844 32.183594 C 14.089844 33.011719 13.417969 33.683594 12.589844 33.683594 C 11.753906 33.683594 11.082031 33.011719 11.082031 32.183594 C 11.082031 31.355469 11.753906 30.683594 12.589844 30.683594 C 13.417969 30.683594 14.089844 31.355469 14.089844 32.183594 Z M 14.089844 32.183594 "/>
<path style=" stroke:none;fill-rule:evenodd;fill:rgb(34.509804%,34.509804%,34.509804%);fill-opacity:1;" d="M 11.558594 15.003906 L 13.621094 15.003906 C 13.933594 15.003906 14.183594 15.261719 14.183594 15.566406 L 14.183594 16.550781 C 14.183594 16.863281 13.933594 17.113281 13.621094 17.113281 L 11.558594 17.113281 C 11.246094 17.113281 10.988281 16.863281 10.988281 16.550781 L 10.988281 15.566406 C 10.988281 15.261719 11.246094 15.003906 11.558594 15.003906 Z M 11.558594 15.003906 "/>
<path style=" stroke:none;fill-rule:evenodd;fill:rgb(34.509804%,34.509804%,34.509804%);fill-opacity:1;" d="M 11.214844 22.46875 L 13.964844 22.46875 C 14.082031 22.46875 14.183594 22.566406 14.183594 22.6875 L 14.183594 23.074219 C 14.183594 23.191406 14.082031 23.292969 13.964844 23.292969 L 11.214844 23.292969 C 11.089844 23.292969 10.988281 23.191406 10.988281 23.074219 L 10.988281 22.6875 C 10.988281 22.566406 11.089844 22.46875 11.214844 22.46875 Z M 11.214844 22.46875 "/>
<path style=" stroke:none;fill-rule:evenodd;fill:rgb(34.509804%,34.509804%,34.509804%);fill-opacity:1;" d="M 11.214844 23.792969 L 13.964844 23.792969 C 14.082031 23.792969 14.183594 23.890625 14.183594 24.015625 L 14.183594 24.394531 C 14.183594 24.519531 14.082031 24.621094 13.964844 24.621094 L 11.214844 24.621094 C 11.089844 24.621094 10.988281 24.519531 10.988281 24.394531 L 10.988281 24.015625 C 10.988281 23.890625 11.089844 23.792969 11.214844 23.792969 Z M 11.214844 23.792969 "/>
<path style=" stroke:none;fill-rule:evenodd;fill:rgb(34.509804%,34.509804%,34.509804%);fill-opacity:1;" d="M 11.214844 25.074219 L 13.964844 25.074219 C 14.082031 25.074219 14.183594 25.171875 14.183594 25.296875 L 14.183594 25.683594 C 14.183594 25.800781 14.082031 25.902344 13.964844 25.902344 L 11.214844 25.902344 C 11.089844 25.902344 10.988281 25.800781 10.988281 25.683594 L 10.988281 25.296875 C 10.988281 25.171875 11.089844 25.074219 11.214844 25.074219 Z M 11.214844 25.074219 "/>
<path style=" stroke:none;fill-rule:evenodd;fill:rgb(90.980392%,59.607843%,0%);fill-opacity:1;" d="M 28.359375 11.417969 L 32.640625 10.265625 C 33.546875 10.027344 34.472656 10.5625 34.714844 11.464844 L 40.890625 34.511719 C 41.136719 35.417969 40.597656 36.34375 39.691406 36.582031 L 35.410156 37.734375 C 34.511719 37.972656 33.582031 37.4375 33.339844 36.535156 L 27.160156 13.488281 C 26.921875 12.582031 27.457031 11.65625 28.359375 11.417969 Z M 28.359375 11.417969 "/>
<path style=" stroke:none;fill-rule:evenodd;fill:rgb(89.803922%,89.803922%,89.803922%);fill-opacity:1;" d="M 29.730469 14.800781 L 33.152344 13.886719 C 33.582031 13.769531 34.027344 14.027344 34.140625 14.457031 L 37.0625 25.355469 C 37.175781 25.785156 36.921875 26.230469 36.488281 26.34375 L 33.066406 27.261719 C 32.636719 27.375 32.191406 27.121094 32.078125 26.691406 L 29.15625 15.792969 C 29.042969 15.359375 29.296875 14.921875 29.730469 14.800781 Z M 29.730469 14.800781 "/>
<path style=" stroke:none;fill-rule:evenodd;fill:rgb(89.803922%,89.803922%,89.803922%);fill-opacity:1;" d="M 38.285156 31.328125 C 38.605469 32.511719 37.902344 33.730469 36.71875 34.042969 C 35.535156 34.359375 34.324219 33.660156 34.003906 32.480469 C 33.6875 31.292969 34.390625 30.078125 35.574219 29.761719 C 36.753906 29.441406 37.96875 30.144531 38.285156 31.328125 Z M 38.285156 31.328125 "/>
<path style=" stroke:none;fill-rule:evenodd;fill:rgb(34.509804%,34.509804%,34.509804%);fill-opacity:1;" d="M 37.59375 31.515625 C 37.808594 32.316406 37.332031 33.140625 36.53125 33.355469 C 35.734375 33.566406 34.910156 33.09375 34.691406 32.292969 C 34.480469 31.488281 34.957031 30.667969 35.753906 30.453125 C 36.558594 30.238281 37.378906 30.714844 37.59375 31.515625 Z M 37.59375 31.515625 "/>
<path style=" stroke:none;fill-rule:evenodd;fill:rgb(34.509804%,34.509804%,34.509804%);fill-opacity:1;" d="M 30.703125 15.578125 L 32.699219 15.046875 C 32.996094 14.964844 33.308594 15.140625 33.386719 15.441406 L 33.640625 16.390625 C 33.722656 16.691406 33.542969 17 33.238281 17.082031 L 31.25 17.613281 C 30.949219 17.699219 30.640625 17.519531 30.558594 17.21875 L 30.300781 16.269531 C 30.222656 15.96875 30.402344 15.660156 30.703125 15.578125 Z M 30.703125 15.578125 "/>
<path style=" stroke:none;fill-rule:evenodd;fill:rgb(34.509804%,34.509804%,34.509804%);fill-opacity:1;" d="M 32.300781 22.875 L 34.957031 22.160156 C 35.078125 22.128906 35.199219 22.203125 35.230469 22.324219 L 35.328125 22.691406 C 35.359375 22.808594 35.292969 22.933594 35.171875 22.964844 L 32.515625 23.671875 C 32.402344 23.703125 32.277344 23.636719 32.246094 23.515625 L 32.144531 23.144531 C 32.113281 23.027344 32.183594 22.90625 32.300781 22.875 Z M 32.300781 22.875 "/>
<path style=" stroke:none;fill-rule:evenodd;fill:rgb(34.509804%,34.509804%,34.509804%);fill-opacity:1;" d="M 32.644531 24.15625 L 35.300781 23.441406 C 35.421875 23.410156 35.542969 23.484375 35.574219 23.597656 L 35.671875 23.972656 C 35.703125 24.089844 35.636719 24.207031 35.515625 24.246094 L 32.859375 24.953125 C 32.738281 24.984375 32.621094 24.917969 32.589844 24.796875 L 32.488281 24.425781 C 32.457031 24.308594 32.527344 24.1875 32.644531 24.15625 Z M 32.644531 24.15625 "/>
<path style=" stroke:none;fill-rule:evenodd;fill:rgb(34.509804%,34.509804%,34.509804%);fill-opacity:1;" d="M 32.980469 25.394531 L 35.636719 24.683594 C 35.75 24.652344 35.875 24.71875 35.90625 24.839844 L 36.003906 25.207031 C 36.035156 25.328125 35.964844 25.449219 35.847656 25.480469 L 33.191406 26.191406 C 33.074219 26.222656 32.953125 26.15625 32.921875 26.035156 L 32.824219 25.667969 C 32.792969 25.546875 32.859375 25.425781 32.980469 25.394531 Z M 32.980469 25.394531 "/>
</g>
</svg>
