<?xml version="1.0" encoding="UTF-8"?>
<svg xmlns="http://www.w3.org/2000/svg" xmlns:xlink="http://www.w3.org/1999/xlink" width="48pt" height="48pt" viewBox="0 0 48 48" version="1.1">
<g id="surface1">
<path style=" stroke:none;fill-rule:evenodd;fill:rgb(54.509804%,75.686275%,83.921569%);fill-opacity:1;" d="M 11.207031 2.847656 L 36.792969 2.847656 C 41.40625 2.847656 45.152344 6.59375 45.152344 11.207031 L 45.152344 36.792969 C 45.152344 41.40625 41.40625 45.152344 36.792969 45.152344 L 11.207031 45.152344 C 6.59375 45.152344 2.847656 41.40625 2.847656 36.792969 L 2.847656 11.207031 C 2.847656 6.59375 6.59375 2.847656 11.207031 2.847656 Z M 11.207031 2.847656 "/>
<path style=" stroke:none;fill-rule:nonzero;fill:rgb(100%,100%,100%);fill-opacity:1;" d="M 33.003906 26.875 C 33.828125 32.644531 29.703125 40.625 28.339844 40.222656 C 27.875 40.769531 19.324219 35.527344 18.328125 29.855469 C 18.234375 29.324219 15.859375 25.621094 16.949219 26.777344 C 18.496094 28.421875 15.347656 23.527344 16.046875 22.019531 C 17.082031 19.796875 22.816406 19.46875 25.503906 19.46875 C 27.957031 19.46875 30.832031 18.359375 32.0625 19.761719 C 33.097656 20.933594 32.644531 24.378906 33.003906 26.875 Z M 33.003906 26.875 "/>
<path style=" stroke:none;fill-rule:nonzero;fill:rgb(30.980392%,30.980392%,30.980392%);fill-opacity:1;" d="M 25.746094 35.457031 C 25.746094 35.300781 26.09375 35.097656 27.175781 34.636719 C 27.675781 34.421875 27.847656 34.40625 27.96875 34.542969 C 28.046875 34.640625 28.089844 34.753906 28.050781 34.796875 C 28 34.863281 25.933594 35.613281 25.800781 35.613281 C 25.769531 35.613281 25.746094 35.546875 25.746094 35.457031 Z M 25.746094 35.457031 "/>
<path style=" stroke:none;fill-rule:nonzero;fill:rgb(30.980392%,30.980392%,30.980392%);fill-opacity:1;" d="M 26.28125 33.511719 C 25.691406 33.261719 25.527344 32.878906 26.089844 33.0625 C 26.984375 33.355469 27.015625 33.300781 26.949219 31.671875 C 26.90625 30.65625 26.949219 30.183594 27.078125 30.285156 C 27.183594 30.375 27.300781 31.1875 27.34375 32.097656 C 27.421875 33.917969 27.375 33.980469 26.28125 33.511719 Z M 26.28125 33.511719 "/>
<path style=" stroke:none;fill-rule:nonzero;fill:rgb(30.980392%,30.980392%,30.980392%);fill-opacity:1;" d="M 13.90625 27.878906 C 13.347656 27.5 12.894531 27.160156 12.894531 27.125 C 12.902344 27.089844 13.1875 26.824219 13.535156 26.535156 C 14.144531 26.042969 14.222656 25.605469 14.222656 25.261719 C 14.222656 25.078125 11.972656 21.96875 10.574219 20.21875 C 10.027344 19.535156 9.546875 18.875 9.496094 18.746094 C 9.441406 18.59375 9.511719 18.375 9.675781 18.15625 C 10.230469 17.433594 11.171875 16.28125 11.6875 15.285156 C 12.203125 14.300781 12.816406 13.496094 12.925781 13.667969 C 13.078125 13.917969 13.234375 13.761719 14.453125 12.125 C 15.683594 10.484375 16.6875 8.953125 16.933594 8.953125 C 17.207031 8.953125 17.09375 9.230469 16.566406 9.828125 C 15.625 10.832031 15.332031 12.222656 15.328125 13.128906 C 15.246094 14.84375 16.640625 16.078125 18.15625 16.777344 C 20.097656 17.234375 21.90625 17.027344 22.25 15.40625 C 22.53125 14.058594 21.578125 13.230469 20.472656 12.894531 C 20.203125 13.019531 19.421875 13.84375 19.171875 14.636719 C 19.089844 14.90625 18.839844 14.808594 18.839844 14.496094 C 18.839844 13.847656 19.566406 12.203125 19.953125 11.503906 C 20.496094 10.515625 21.082031 10.46875 21.574219 10.566406 C 21.84375 10.621094 22.046875 10.453125 22.296875 10.253906 L 22.640625 9.984375 C 23.839844 10.871094 25.183594 11.515625 26.464844 12.261719 C 27.902344 13.28125 29.285156 13.859375 29.300781 14.003906 C 29.308594 14.09375 29.300781 14.09375 29.285156 14.722656 C 29.261719 15.808594 29.269531 15.863281 29.535156 15.863281 C 30.074219 15.863281 30.613281 15.5625 31.332031 14.691406 C 32.59375 13.171875 32.753906 13.160156 32.753906 11.886719 C 32.847656 10.90625 31.5625 8.816406 30.753906 9.597656 C 30.417969 9.9375 30.027344 11.128906 30.144531 11.449219 C 30.230469 11.660156 30.746094 11.8125 31.03125 11.703125 C 31.328125 11.589844 31.28125 11.824219 30.941406 12.128906 C 30.5 12.535156 30.015625 12.605469 29.660156 12.316406 C 29.21875 11.957031 29.105469 10.542969 29.4375 9.628906 C 29.753906 8.769531 30.886719 7.847656 31.125 7.761719 C 31.390625 7.65625 31.691406 7.871094 32.761719 9.277344 C 34.488281 11.875 36.371094 14.199219 38.050781 16.671875 C 38.261719 16.980469 38.464844 17.425781 38.503906 17.671875 C 38.566406 18.074219 38.488281 18.207031 37.566406 19.265625 C 36.050781 21 35.03125 22.410156 35.03125 22.765625 C 35.03125 23.152344 35.816406 23.457031 36.503906 23.566406 C 37.003906 23.640625 37.332031 23.8125 37.332031 23.996094 C 36.515625 25.109375 33.285156 29.667969 32.894531 29.359375 C 32.859375 29.296875 32.796875 28.5625 32.753906 27.730469 C 32.457031 25.46875 32.355469 24.25 32.089844 22.046875 C 32.011719 21.613281 31.996094 21.609375 31.472656 21.683594 C 30.183594 21.859375 28.597656 21.964844 27.332031 22.171875 C 26.308594 22.34375 25.417969 23.058594 25 22.832031 C 24.574219 22.605469 22.324219 22.199219 20.984375 22.03125 C 17.046875 21.535156 17.691406 21.621094 17.691406 22.105469 L 18.558594 29.09375 C 18.558594 29.09375 18.96875 30.96875 18.625 30.96875 C 16.746094 30.253906 15.363281 28.886719 13.90625 27.878906 Z M 13.90625 27.878906 "/>
<path style=" stroke:none;fill-rule:nonzero;fill:rgb(30.980392%,30.980392%,30.980392%);fill-opacity:1;" d="M 24.582031 29.808594 C 24.582031 30.449219 24.0625 30.96875 23.417969 30.96875 C 22.777344 30.96875 22.253906 30.449219 22.253906 29.808594 C 22.253906 29.167969 22.777344 28.644531 23.417969 28.644531 C 24.0625 28.644531 24.582031 29.167969 24.582031 29.808594 Z M 24.582031 29.808594 "/>
<path style=" stroke:none;fill-rule:nonzero;fill:rgb(30.980392%,30.980392%,30.980392%);fill-opacity:1;" d="M 20.253906 27.484375 C 20.171875 27.484375 20.121094 27.496094 20.097656 27.503906 C 20.035156 27.546875 19.972656 27.785156 19.957031 28.035156 L 19.933594 28.496094 L 21.535156 28.574219 C 22.4375 28.652344 23.441406 28.671875 24.285156 28.613281 C 24.589844 28.613281 24.621094 28.589844 24.546875 28.4375 C 24.359375 28.03125 24.058594 27.796875 23.699219 27.777344 C 23.5 27.765625 22.636719 27.683594 21.777344 27.59375 C 21.042969 27.515625 20.503906 27.480469 20.253906 27.484375 Z M 20.253906 27.484375 "/>
<path style=" stroke:none;fill-rule:nonzero;fill:rgb(30.980392%,30.980392%,30.980392%);fill-opacity:1;" d="M 27.183594 26.324219 C 27.066406 26.324219 27 26.332031 26.984375 26.347656 C 26.921875 26.40625 26.890625 26.683594 26.910156 26.964844 C 26.949219 27.425781 26.980469 27.46875 27.265625 27.453125 C 28.0625 27.488281 28.871094 27.484375 29.683594 27.484375 C 30.316406 27.457031 31.105469 27.050781 31.550781 26.832031 C 31.550781 26.769531 31.488281 26.71875 31.417969 26.71875 C 31.34375 26.71875 30.339844 26.609375 29.1875 26.480469 C 28.265625 26.375 27.527344 26.316406 27.183594 26.324219 Z M 27.183594 26.324219 "/>
<path style=" stroke:none;fill-rule:nonzero;fill:rgb(30.980392%,30.980392%,30.980392%);fill-opacity:1;" d="M 29.230469 28.644531 C 29.230469 29.285156 28.707031 29.808594 28.066406 29.808594 C 27.421875 29.808594 26.90625 29.285156 26.90625 28.644531 C 26.90625 28.003906 27.421875 27.484375 28.066406 27.484375 C 28.707031 27.484375 29.230469 28.003906 29.230469 28.644531 Z M 29.230469 28.644531 "/>
</g>
</svg>
