<?xml version="1.0" encoding="UTF-8"?>
<svg xmlns="http://www.w3.org/2000/svg" xmlns:xlink="http://www.w3.org/1999/xlink" width="48pt" height="48pt" viewBox="0 0 48 48" version="1.1">
<g id="surface1">
<path style=" stroke:none;fill-rule:evenodd;fill:rgb(71.764706%,40.392157%,15.686275%);fill-opacity:1;" d="M 11.207031 2.847656 L 36.792969 2.847656 C 41.40625 2.847656 45.152344 6.59375 45.152344 11.207031 L 45.152344 36.792969 C 45.152344 41.40625 41.40625 45.152344 36.792969 45.152344 L 11.207031 45.152344 C 6.59375 45.152344 2.847656 41.40625 2.847656 36.792969 L 2.847656 11.207031 C 2.847656 6.59375 6.59375 2.847656 11.207031 2.847656 Z M 11.207031 2.847656 "/>
<path style=" stroke:none;fill-rule:nonzero;fill:rgb(30.196078%,30.196078%,30.196078%);fill-opacity:1;" d="M 11.394531 7.578125 L 36.605469 7.578125 C 38.714844 7.578125 40.421875 9.285156 40.421875 11.394531 L 40.421875 36.605469 C 40.421875 38.714844 38.714844 40.421875 36.605469 40.421875 L 11.394531 40.421875 C 9.285156 40.421875 7.578125 38.714844 7.578125 36.605469 L 7.578125 11.394531 C 7.578125 9.285156 9.285156 7.578125 11.394531 7.578125 Z M 11.394531 7.578125 "/>
<path style=" stroke:none;fill-rule:nonzero;fill:rgb(80%,80%,80%);fill-opacity:1;" d="M 10.316406 11.683594 L 10.316406 13.050781 L 11.683594 13.050781 L 11.683594 21.265625 L 10.316406 21.265625 L 10.316406 22.628906 L 17.15625 22.628906 L 17.15625 21.265625 L 18.527344 21.265625 L 18.527344 13.050781 L 17.15625 13.050781 L 17.15625 11.683594 Z M 21.265625 11.683594 L 21.265625 13.050781 L 19.894531 13.050781 L 19.894531 21.265625 L 21.265625 21.265625 L 21.265625 22.628906 L 26.734375 22.628906 L 26.734375 21.265625 L 28.105469 21.265625 L 28.105469 13.050781 L 26.734375 13.050781 L 26.734375 11.683594 Z M 30.84375 11.683594 L 30.84375 13.050781 L 29.472656 13.050781 L 29.472656 15.792969 L 30.84375 15.792969 L 30.84375 17.15625 L 33.578125 17.15625 L 33.578125 18.527344 L 34.949219 18.527344 L 34.949219 21.265625 L 32.207031 21.265625 L 32.207031 18.527344 L 29.472656 18.527344 L 29.472656 21.265625 L 30.84375 21.265625 L 30.84375 22.628906 L 36.316406 22.628906 L 36.316406 21.265625 L 37.683594 21.265625 L 37.683594 18.527344 L 36.316406 18.527344 L 36.316406 17.15625 L 34.949219 17.15625 L 34.949219 15.792969 L 32.207031 15.792969 L 32.207031 13.050781 L 34.949219 13.050781 L 34.949219 15.792969 L 37.683594 15.792969 L 37.683594 13.050781 L 36.316406 13.050781 L 36.316406 11.683594 Z M 14.421875 13.050781 L 15.792969 13.050781 L 15.792969 21.265625 L 14.421875 21.265625 Z M 22.628906 13.050781 L 25.371094 13.050781 L 25.371094 21.265625 L 22.628906 21.265625 Z M 10.316406 25.371094 L 10.316406 26.734375 L 11.683594 26.734375 L 11.683594 34.949219 L 10.316406 34.949219 L 10.316406 36.316406 L 17.15625 36.316406 L 17.15625 34.949219 L 18.527344 34.949219 L 18.527344 30.84375 L 17.15625 30.84375 L 17.15625 29.472656 L 18.527344 29.472656 L 18.527344 26.734375 L 17.15625 26.734375 L 17.15625 25.371094 Z M 21.265625 25.371094 L 21.265625 26.734375 L 19.894531 26.734375 L 19.894531 34.949219 L 21.265625 34.949219 L 21.265625 36.316406 L 26.734375 36.316406 L 26.734375 34.949219 L 28.105469 34.949219 L 28.105469 26.734375 L 26.734375 26.734375 L 26.734375 25.371094 Z M 28.105469 25.371094 L 28.105469 26.734375 L 29.472656 26.734375 L 29.472656 29.472656 L 30.84375 29.472656 L 30.84375 32.207031 L 29.472656 32.207031 L 29.472656 34.949219 L 28.105469 34.949219 L 28.105469 36.316406 L 30.84375 36.316406 L 30.84375 34.949219 L 32.207031 34.949219 L 32.207031 33.578125 L 33.578125 33.578125 L 33.578125 34.949219 L 34.949219 34.949219 L 34.949219 36.316406 L 37.683594 36.316406 L 37.683594 34.949219 L 36.316406 34.949219 L 36.316406 32.207031 L 34.949219 32.207031 L 34.949219 29.472656 L 36.316406 29.472656 L 36.316406 26.734375 L 37.683594 26.734375 L 37.683594 25.371094 L 34.949219 25.371094 L 34.949219 26.734375 L 33.578125 26.734375 L 33.578125 28.105469 L 32.207031 28.105469 L 32.207031 26.734375 L 30.84375 26.734375 L 30.84375 25.371094 Z M 14.421875 26.734375 L 15.792969 26.734375 L 15.792969 29.472656 L 14.421875 29.472656 Z M 22.628906 26.734375 L 25.371094 26.734375 L 25.371094 34.949219 L 22.628906 34.949219 Z M 14.421875 30.84375 L 15.792969 30.84375 L 15.792969 34.949219 L 14.421875 34.949219 Z M 14.421875 30.84375 "/>
</g>
</svg>
