<?xml version="1.0" encoding="UTF-8"?>
<svg xmlns="http://www.w3.org/2000/svg" xmlns:xlink="http://www.w3.org/1999/xlink" width="48pt" height="48pt" viewBox="0 0 48 48" version="1.1">
<g id="surface1">
<path style=" stroke:none;fill-rule:evenodd;fill:rgb(41.176471%,61.568627%,22.352941%);fill-opacity:1;" d="M 11.207031 2.847656 L 36.792969 2.847656 C 41.40625 2.847656 45.152344 6.59375 45.152344 11.207031 L 45.152344 36.792969 C 45.152344 41.40625 41.40625 45.152344 36.792969 45.152344 L 11.207031 45.152344 C 6.59375 45.152344 2.847656 41.40625 2.847656 36.792969 L 2.847656 11.207031 C 2.847656 6.59375 6.59375 2.847656 11.207031 2.847656 Z M 11.207031 2.847656 "/>
<path style=" stroke:none;fill-rule:evenodd;fill:rgb(41.176471%,61.568627%,22.352941%);fill-opacity:1;" d="M 45.152344 22.546875 C 42.082031 21.953125 39.015625 21.378906 35.941406 21.097656 C 31.96875 20.738281 27.996094 20.621094 24.015625 20.691406 C 20.042969 20.765625 16.066406 21.027344 12.089844 21.425781 C 9.011719 21.734375 5.925781 22.175781 2.847656 22.625 L 2.847656 36.792969 C 2.847656 41.421875 6.578125 45.152344 11.207031 45.152344 L 36.792969 45.152344 C 41.421875 45.152344 45.152344 41.421875 45.152344 36.792969 Z M 45.152344 22.546875 "/>
<path style=" stroke:none;fill-rule:evenodd;fill:rgb(56.470588%,74.509804%,40.392157%);fill-opacity:1;" d="M 11.207031 2.847656 C 6.578125 2.847656 2.847656 6.578125 2.847656 11.207031 L 2.847656 22.625 C 5.925781 22.175781 9.011719 21.734375 12.089844 21.425781 C 16.066406 21.027344 20.042969 20.765625 24.015625 20.691406 C 27.996094 20.621094 31.96875 20.738281 35.941406 21.097656 C 39.015625 21.378906 42.082031 21.953125 45.152344 22.546875 L 45.152344 11.207031 C 45.152344 6.578125 41.421875 2.847656 36.792969 2.847656 Z M 11.207031 2.847656 "/>
<path style=" stroke:none;fill-rule:nonzero;fill:rgb(100%,100%,100%);fill-opacity:1;" d="M 23.933594 10.480469 C 39.859375 22.167969 31.894531 16.324219 23.933594 10.480469 Z M 17.046875 28.15625 C 17.503906 27.964844 18.324219 27.410156 18.859375 26.921875 C 19.746094 26.121094 19.863281 26.074219 20.074219 26.449219 C 20.582031 27.359375 21.738281 28.464844 22.1875 28.464844 C 22.75 28.464844 25.628906 26.003906 25.628906 25.519531 C 25.628906 25.339844 25.34375 24.75 24.988281 24.21875 L 24.347656 23.25 C 24.074219 19.9375 24.59375 12.972656 23.28125 10.839844 C 21.613281 8.558594 18.8125 8.285156 17.113281 8.296875 C 12.644531 8.324219 10.222656 9.824219 9.339844 13.109375 C 9.046875 14.203125 9.222656 14.355469 11.035156 14.558594 C 11.800781 14.640625 12.667969 14.769531 12.957031 14.84375 C 13.417969 14.957031 13.558594 14.828125 13.949219 13.917969 C 14.238281 13.238281 14.65625 12.722656 15.105469 12.496094 C 15.921875 12.074219 17.285156 12.019531 17.964844 12.378906 C 18.558594 12.699219 19.097656 13.964844 19.097656 15.019531 L 19.097656 15.828125 L 17.753906 15.984375 C 15.480469 16.25 12.980469 16.8125 12.109375 17.261719 C 11.03125 17.8125 9.671875 19.1875 9.140625 20.261719 C 8.832031 20.878906 8.71875 21.652344 8.714844 23.097656 C 8.714844 24.78125 8.800781 25.234375 9.296875 26.109375 C 10.363281 27.996094 11.988281 28.765625 14.5625 28.605469 C 15.46875 28.550781 16.589844 28.347656 17.046875 28.15625 Z M 14.722656 24.605469 C 14 24.097656 13.644531 22.640625 13.964844 21.46875 C 14.363281 19.972656 16.21875 18.921875 18.480469 18.902344 L 19.144531 18.894531 L 19.058594 20.589844 C 19 21.59375 18.78125 22.644531 18.519531 23.183594 C 17.765625 24.738281 15.910156 25.4375 14.722656 24.605469 Z M 14.722656 24.605469 "/>
<path style=" stroke:none;fill-rule:evenodd;fill:rgb(100%,100%,100%);fill-opacity:1;" d="M 7.160156 31.636719 L 17.332031 31.636719 C 17.441406 31.636719 17.527344 31.691406 17.527344 31.769531 L 17.527344 33.574219 C 17.527344 33.644531 17.441406 33.703125 17.332031 33.703125 L 7.160156 33.703125 C 7.058594 33.703125 6.96875 33.644531 6.96875 33.574219 L 6.96875 31.769531 C 6.96875 31.691406 7.058594 31.636719 7.160156 31.636719 Z M 7.160156 31.636719 "/>
<path style=" stroke:none;fill-rule:evenodd;fill:rgb(100%,100%,100%);fill-opacity:1;" d="M 7.160156 34.761719 L 17.332031 34.761719 C 17.441406 34.761719 17.527344 34.816406 17.527344 34.890625 L 17.527344 36.691406 C 17.527344 36.769531 17.441406 36.828125 17.332031 36.828125 L 7.160156 36.828125 C 7.058594 36.828125 6.96875 36.769531 6.96875 36.691406 L 6.96875 34.890625 C 6.96875 34.816406 7.058594 34.761719 7.160156 34.761719 Z M 7.160156 34.761719 "/>
<path style=" stroke:none;fill-rule:evenodd;fill:rgb(100%,100%,100%);fill-opacity:1;" d="M 7.160156 38.015625 L 17.332031 38.015625 C 17.441406 38.015625 17.527344 38.074219 17.527344 38.152344 L 17.527344 39.953125 C 17.527344 40.027344 17.441406 40.089844 17.332031 40.089844 L 7.160156 40.089844 C 7.058594 40.089844 6.96875 40.027344 6.96875 39.953125 L 6.96875 38.152344 C 6.96875 38.074219 7.058594 38.015625 7.160156 38.015625 Z M 7.160156 38.015625 "/>
<path style=" stroke:none;fill-rule:evenodd;fill:rgb(100%,100%,100%);fill-opacity:1;" d="M 18.699219 34.761719 L 28.871094 34.761719 C 28.980469 34.761719 29.0625 34.816406 29.0625 34.890625 L 29.0625 36.691406 C 29.0625 36.769531 28.980469 36.828125 28.871094 36.828125 L 18.699219 36.828125 C 18.589844 36.828125 18.503906 36.769531 18.503906 36.691406 L 18.503906 34.890625 C 18.503906 34.816406 18.589844 34.761719 18.699219 34.761719 Z M 18.699219 34.761719 "/>
<path style=" stroke:none;fill-rule:evenodd;fill:rgb(100%,100%,100%);fill-opacity:1;" d="M 18.699219 38.015625 L 28.871094 38.015625 C 28.980469 38.015625 29.0625 38.074219 29.0625 38.152344 L 29.0625 39.953125 C 29.0625 40.027344 28.980469 40.089844 28.871094 40.089844 L 18.699219 40.089844 C 18.589844 40.089844 18.503906 40.027344 18.503906 39.953125 L 18.503906 38.152344 C 18.503906 38.074219 18.589844 38.015625 18.699219 38.015625 Z M 18.699219 38.015625 "/>
<path style=" stroke:none;fill-rule:evenodd;fill:rgb(100%,100%,100%);fill-opacity:1;" d="M 30.328125 31.636719 L 40.5 31.636719 C 40.605469 31.636719 40.691406 31.691406 40.691406 31.769531 L 40.691406 33.574219 C 40.691406 33.644531 40.605469 33.703125 40.5 33.703125 L 30.328125 33.703125 C 30.21875 33.703125 30.136719 33.644531 30.136719 33.574219 L 30.136719 31.769531 C 30.136719 31.691406 30.21875 31.636719 30.328125 31.636719 Z M 30.328125 31.636719 "/>
<path style=" stroke:none;fill-rule:evenodd;fill:rgb(100%,100%,100%);fill-opacity:1;" d="M 30.328125 34.761719 L 40.5 34.761719 C 40.605469 34.761719 40.691406 34.816406 40.691406 34.890625 L 40.691406 36.691406 C 40.691406 36.769531 40.605469 36.828125 40.5 36.828125 L 30.328125 36.828125 C 30.21875 36.828125 30.136719 36.769531 30.136719 36.691406 L 30.136719 34.890625 C 30.136719 34.816406 30.21875 34.761719 30.328125 34.761719 Z M 30.328125 34.761719 "/>
<path style=" stroke:none;fill-rule:evenodd;fill:rgb(100%,100%,100%);fill-opacity:1;" d="M 30.328125 38.015625 L 40.5 38.015625 C 40.605469 38.015625 40.691406 38.074219 40.691406 38.152344 L 40.691406 39.953125 C 40.691406 40.027344 40.605469 40.089844 40.5 40.089844 L 30.328125 40.089844 C 30.21875 40.089844 30.136719 40.027344 30.136719 39.953125 L 30.136719 38.152344 C 30.136719 38.074219 30.21875 38.015625 30.328125 38.015625 Z M 30.328125 38.015625 "/>
<path style=" stroke:none;fill-rule:evenodd;fill:rgb(100%,100%,100%);fill-opacity:1;" d="M 30.328125 28.488281 L 40.5 28.488281 C 40.605469 28.488281 40.691406 28.550781 40.691406 28.625 L 40.691406 30.425781 C 40.691406 30.503906 40.605469 30.5625 40.5 30.5625 L 30.328125 30.5625 C 30.21875 30.5625 30.136719 30.503906 30.136719 30.425781 L 30.136719 28.625 C 30.136719 28.550781 30.21875 28.488281 30.328125 28.488281 Z M 30.328125 28.488281 "/>
</g>
</svg>
