<?xml version="1.0" encoding="UTF-8"?>
<svg xmlns="http://www.w3.org/2000/svg" xmlns:xlink="http://www.w3.org/1999/xlink" width="48pt" height="48pt" viewBox="0 0 48 48" version="1.1">
<g id="surface1">
<path style=" stroke:none;fill-rule:evenodd;fill:rgb(37.254902%,48.627451%,54.117647%);fill-opacity:1;" d="M 11.207031 2.847656 L 36.792969 2.847656 C 41.40625 2.847656 45.152344 6.59375 45.152344 11.207031 L 45.152344 36.792969 C 45.152344 41.40625 41.40625 45.152344 36.792969 45.152344 L 11.207031 45.152344 C 6.59375 45.152344 2.847656 41.40625 2.847656 36.792969 L 2.847656 11.207031 C 2.847656 6.59375 6.59375 2.847656 11.207031 2.847656 Z M 11.207031 2.847656 "/>
<path style=" stroke:none;fill-rule:nonzero;fill:rgb(100%,100%,100%);fill-opacity:1;" d="M 17.894531 9.285156 C 17.683594 9.308594 17.496094 9.484375 17.453125 9.699219 L 17.027344 11.863281 C 16.261719 12.167969 15.535156 12.578125 14.90625 13.089844 L 12.796875 12.375 C 12.578125 12.296875 12.3125 12.394531 12.199219 12.59375 L 10.171875 16.109375 C 10.058594 16.3125 10.105469 16.59375 10.28125 16.746094 L 11.957031 18.214844 C 11.902344 18.609375 11.863281 19.011719 11.863281 19.417969 C 11.863281 19.828125 11.902344 20.230469 11.957031 20.625 L 10.28125 22.09375 C 10.105469 22.246094 10.058594 22.527344 10.171875 22.730469 L 12.199219 26.246094 C 12.3125 26.441406 12.578125 26.542969 12.796875 26.464844 L 14.90625 25.75 C 15.535156 26.261719 16.261719 26.671875 17.027344 26.972656 L 17.453125 29.140625 C 17.496094 29.371094 17.714844 29.546875 17.941406 29.550781 L 22 29.550781 C 22.230469 29.546875 22.441406 29.371094 22.488281 29.140625 L 22.917969 26.972656 C 23.683594 26.671875 24.40625 26.261719 25.035156 25.75 L 27.144531 26.464844 C 27.363281 26.542969 27.625 26.441406 27.746094 26.246094 L 29.769531 22.730469 C 29.886719 22.527344 29.839844 22.246094 29.660156 22.09375 L 27.984375 20.625 C 28.042969 20.230469 28.078125 19.828125 28.078125 19.417969 C 28.078125 19.011719 28.042969 18.609375 27.984375 18.214844 L 29.660156 16.746094 C 29.839844 16.59375 29.886719 16.3125 29.769531 16.109375 L 27.746094 12.59375 C 27.625 12.394531 27.363281 12.296875 27.144531 12.375 L 25.035156 13.089844 C 24.40625 12.578125 23.683594 12.167969 22.917969 11.863281 L 22.488281 9.699219 C 22.441406 9.46875 22.230469 9.285156 22 9.285156 L 17.941406 9.285156 C 17.925781 9.285156 17.910156 9.285156 17.894531 9.285156 Z M 17.894531 9.285156 "/>
<path style=" stroke:none;fill-rule:nonzero;fill:rgb(37.254902%,48.627451%,54.117647%);fill-opacity:1;" d="M 19.96875 15.078125 C 22.371094 15.078125 24.3125 17.019531 24.3125 19.417969 C 24.3125 21.816406 22.371094 23.761719 19.96875 23.761719 C 17.574219 23.761719 15.628906 21.816406 15.628906 19.417969 C 15.628906 17.019531 17.574219 15.078125 19.96875 15.078125 Z M 19.96875 15.078125 "/>
<path style=" stroke:none;fill-rule:nonzero;fill:rgb(100%,100%,100%);fill-opacity:1;" d="M 29.308594 24.144531 C 29.15625 24.160156 29.015625 24.285156 28.988281 24.4375 L 28.683594 26 C 28.128906 26.214844 27.613281 26.511719 27.15625 26.875 L 25.644531 26.363281 C 25.484375 26.308594 25.296875 26.378906 25.207031 26.519531 L 23.753906 29.050781 C 23.671875 29.191406 23.707031 29.394531 23.832031 29.503906 L 25.042969 30.5625 C 25 30.847656 24.972656 31.136719 24.972656 31.425781 C 24.972656 31.722656 25 32.011719 25.042969 32.292969 L 23.832031 33.355469 C 23.707031 33.464844 23.671875 33.660156 23.753906 33.808594 L 25.207031 36.332031 C 25.296875 36.480469 25.484375 36.546875 25.644531 36.496094 L 27.15625 35.984375 C 27.613281 36.347656 28.128906 36.640625 28.683594 36.859375 L 28.988281 38.417969 C 29.019531 38.582031 29.175781 38.714844 29.34375 38.714844 L 32.253906 38.714844 C 32.421875 38.714844 32.578125 38.582031 32.609375 38.417969 L 32.917969 36.859375 C 33.46875 36.640625 33.988281 36.347656 34.441406 35.984375 L 35.957031 36.496094 C 36.113281 36.546875 36.308594 36.480469 36.390625 36.332031 L 37.847656 33.808594 C 37.925781 33.660156 37.894531 33.464844 37.765625 33.355469 L 36.5625 32.292969 C 36.605469 32.011719 36.628906 31.722656 36.628906 31.425781 C 36.628906 31.136719 36.605469 30.847656 36.5625 30.5625 L 37.765625 29.503906 C 37.894531 29.394531 37.925781 29.191406 37.847656 29.050781 L 36.390625 26.519531 C 36.308594 26.378906 36.113281 26.308594 35.957031 26.363281 L 34.441406 26.875 C 33.988281 26.511719 33.46875 26.214844 32.917969 26 L 32.609375 24.4375 C 32.578125 24.277344 32.421875 24.144531 32.253906 24.140625 L 29.34375 24.140625 C 29.332031 24.140625 29.324219 24.140625 29.308594 24.140625 Z M 29.308594 24.144531 "/>
<path style=" stroke:none;fill-rule:nonzero;fill:rgb(37.254902%,48.627451%,54.117647%);fill-opacity:1;" d="M 30.800781 28.308594 C 32.527344 28.308594 33.921875 29.703125 33.921875 31.425781 C 33.921875 33.152344 32.527344 34.550781 30.800781 34.550781 C 29.078125 34.550781 27.675781 33.152344 27.675781 31.425781 C 27.675781 29.703125 29.078125 28.308594 30.800781 28.308594 Z M 30.800781 28.308594 "/>
</g>
</svg>
