<?xml version="1.0" encoding="UTF-8"?>
<svg xmlns="http://www.w3.org/2000/svg" xmlns:xlink="http://www.w3.org/1999/xlink" width="48pt" height="48pt" viewBox="0 0 48 48" version="1.1">
<g id="surface1">
<path style=" stroke:none;fill-rule:evenodd;fill:rgb(23.137255%,50.196078%,68.235294%);fill-opacity:1;" d="M 11.207031 2.847656 L 36.792969 2.847656 C 41.40625 2.847656 45.152344 6.59375 45.152344 11.207031 L 45.152344 36.792969 C 45.152344 41.40625 41.40625 45.152344 36.792969 45.152344 L 11.207031 45.152344 C 6.59375 45.152344 2.847656 41.40625 2.847656 36.792969 L 2.847656 11.207031 C 2.847656 6.59375 6.59375 2.847656 11.207031 2.847656 Z M 11.207031 2.847656 "/>
<path style=" stroke:none;fill-rule:nonzero;fill:rgb(78.823529%,63.137255%,100%);fill-opacity:1;" d="M 11.449219 11.25 L 20.050781 11.25 C 20.988281 11.25 21.75 12.074219 21.75 13.089844 L 21.75 19.910156 C 21.75 20.925781 20.988281 21.75 20.050781 21.75 L 11.449219 21.75 C 10.511719 21.75 9.75 20.925781 9.75 19.910156 L 9.75 13.089844 C 9.75 12.074219 10.511719 11.25 11.449219 11.25 Z M 11.449219 11.25 "/>
<path style=" stroke:none;fill-rule:nonzero;fill:rgb(78.823529%,63.137255%,100%);fill-opacity:1;" d="M 29.234375 17.25 L 36.765625 17.25 C 37.582031 17.25 38.25 17.957031 38.25 18.828125 L 38.25 24.671875 C 38.25 25.542969 37.582031 26.25 36.765625 26.25 L 29.234375 26.25 C 28.417969 26.25 27.75 25.542969 27.75 24.671875 L 27.75 18.828125 C 27.75 17.957031 28.417969 17.25 29.234375 17.25 Z M 29.234375 17.25 "/>
<path style=" stroke:none;fill-rule:nonzero;fill:rgb(78.823529%,63.137255%,100%);fill-opacity:1;" d="M 21.527344 29.25 L 27.972656 29.25 C 28.683594 29.25 29.25 29.839844 29.25 30.5625 L 29.25 35.4375 C 29.25 36.160156 28.683594 36.75 27.972656 36.75 L 21.527344 36.75 C 20.816406 36.75 20.25 36.160156 20.25 35.4375 L 20.25 30.5625 C 20.25 29.839844 20.816406 29.25 21.527344 29.25 Z M 21.527344 29.25 "/>
<path style="fill:none;stroke-width:1;stroke-linecap:butt;stroke-linejoin:miter;stroke:rgb(78.823529%,63.137255%,100%);stroke-opacity:1;stroke-miterlimit:4;" d="M 10.5 11.5 L 22.5 14.5 L 16.5 22.5 Z M 10.5 11.5 " transform="matrix(1.5,0,0,1.5,0.75,-0.75)"/>
</g>
</svg>
