<?xml version="1.0" encoding="UTF-8"?>
<svg xmlns="http://www.w3.org/2000/svg" xmlns:xlink="http://www.w3.org/1999/xlink" width="48pt" height="48pt" viewBox="0 0 48 48" version="1.1">
<g id="surface1">
<path style=" stroke:none;fill-rule:evenodd;fill:rgb(26.27451%,27.843137%,86.27451%);fill-opacity:1;" d="M 11.207031 2.847656 L 36.792969 2.847656 C 41.40625 2.847656 45.152344 6.59375 45.152344 11.207031 L 45.152344 36.792969 C 45.152344 41.40625 41.40625 45.152344 36.792969 45.152344 L 11.207031 45.152344 C 6.59375 45.152344 2.847656 41.40625 2.847656 36.792969 L 2.847656 11.207031 C 2.847656 6.59375 6.59375 2.847656 11.207031 2.847656 Z M 11.207031 2.847656 "/>
<path style="fill:none;stroke-width:2;stroke-linecap:butt;stroke-linejoin:miter;stroke:rgb(50.588235%,100%,52.54902%);stroke-opacity:1;stroke-miterlimit:4;" d="M 10.976562 15.101562 C 18.231771 12.273438 25.507812 15.419271 24.989583 21.018229 C 24.804688 23.020833 21.877604 24.242188 19.794271 23.989583 C 16.25 23.554688 13.0625 19.617188 11.729167 17.132812 C 10.158854 14.210938 10.846354 7.210938 15.273438 7 C 18.388021 7.216146 19.393229 10.351562 19.789062 12.229167 C 21.356771 19.6875 13.018229 27.84375 8.335938 24.044271 C 5.273438 21.5625 7.867188 16.382812 10.976562 15.101562 Z M 10.976562 15.101562 " transform="matrix(1.5,0,0,1.5,0,0)"/>
</g>
</svg>
