<?xml version="1.0" encoding="UTF-8"?>
<svg xmlns="http://www.w3.org/2000/svg" xmlns:xlink="http://www.w3.org/1999/xlink" width="48pt" height="48pt" viewBox="0 0 48 48" version="1.1">
<g id="surface1">
<path style=" stroke:none;fill-rule:evenodd;fill:rgb(43.921569%,58.823529%,25.882353%);fill-opacity:1;" d="M 11.207031 2.847656 L 36.792969 2.847656 C 41.40625 2.847656 45.152344 6.59375 45.152344 11.207031 L 45.152344 36.792969 C 45.152344 41.40625 41.40625 45.152344 36.792969 45.152344 L 11.207031 45.152344 C 6.59375 45.152344 2.847656 41.40625 2.847656 36.792969 L 2.847656 11.207031 C 2.847656 6.59375 6.59375 2.847656 11.207031 2.847656 Z M 11.207031 2.847656 "/>
<path style=" stroke:none;fill-rule:nonzero;fill:rgb(32.156863%,32.156863%,32.156863%);fill-opacity:1;" d="M 22.5 15 L 22.5 33 L 9 33 L 9 34.5 L 24 34.5 L 24 25.5 L 39 25.5 L 39 24 L 24 24 L 24 15 Z M 22.5 15 "/>
<path style=" stroke:none;fill-rule:nonzero;fill:rgb(97.647059%,89.411765%,43.921569%);fill-opacity:1;" d="M 23.25 12 C 22.003906 12 21 13.003906 21 14.25 C 21 15.496094 22.003906 16.5 23.25 16.5 C 24.496094 16.5 25.5 15.496094 25.5 14.25 C 25.5 13.003906 24.496094 12 23.25 12 Z M 23.25 22.5 C 22.003906 22.5 21 23.503906 21 24.75 C 21 25.996094 22.003906 27 23.25 27 C 24.496094 27 25.5 25.996094 25.5 24.75 C 25.5 23.503906 24.496094 22.5 23.25 22.5 Z M 38.25 22.5 C 37.003906 22.5 36 23.503906 36 24.75 C 36 25.996094 37.003906 27 38.25 27 C 39.496094 27 40.5 25.996094 40.5 24.75 C 40.5 23.503906 39.496094 22.5 38.25 22.5 Z M 9.75 31.5 C 8.503906 31.5 7.5 32.503906 7.5 33.75 C 7.5 34.996094 8.503906 36 9.75 36 C 10.996094 36 12 34.996094 12 33.75 C 12 32.503906 10.996094 31.5 9.75 31.5 Z M 23.25 31.5 C 22.003906 31.5 21 32.503906 21 33.75 C 21 34.996094 22.003906 36 23.25 36 C 24.496094 36 25.5 34.996094 25.5 33.75 C 25.5 32.503906 24.496094 31.5 23.25 31.5 Z M 23.25 31.5 "/>
<path style=" stroke:none;fill-rule:nonzero;fill:rgb(32.156863%,32.156863%,32.156863%);fill-opacity:1;" d="M 22.5 15 L 22.5 33 L 9 33 L 9 34.5 L 24 34.5 L 24 25.5 L 39 25.5 L 39 24 L 24 24 L 24 15 Z M 22.5 15 "/>
<path style=" stroke:none;fill-rule:nonzero;fill:rgb(97.647059%,89.411765%,43.921569%);fill-opacity:1;" d="M 23.25 12 C 22.003906 12 21 13.003906 21 14.25 C 21 15.496094 22.003906 16.5 23.25 16.5 C 24.496094 16.5 25.5 15.496094 25.5 14.25 C 25.5 13.003906 24.496094 12 23.25 12 Z M 23.25 22.5 C 22.003906 22.5 21 23.503906 21 24.75 C 21 25.996094 22.003906 27 23.25 27 C 24.496094 27 25.5 25.996094 25.5 24.75 C 25.5 23.503906 24.496094 22.5 23.25 22.5 Z M 38.25 22.5 C 37.003906 22.5 36 23.503906 36 24.75 C 36 25.996094 37.003906 27 38.25 27 C 39.496094 27 40.5 25.996094 40.5 24.75 C 40.5 23.503906 39.496094 22.5 38.25 22.5 Z M 9.75 31.5 C 8.503906 31.5 7.5 32.503906 7.5 33.75 C 7.5 34.996094 8.503906 36 9.75 36 C 10.996094 36 12 34.996094 12 33.75 C 12 32.503906 10.996094 31.5 9.75 31.5 Z M 23.25 31.5 C 22.003906 31.5 21 32.503906 21 33.75 C 21 34.996094 22.003906 36 23.25 36 C 24.496094 36 25.5 34.996094 25.5 33.75 C 25.5 32.503906 24.496094 31.5 23.25 31.5 Z M 23.25 31.5 "/>
</g>
</svg>
