<?xml version="1.0" encoding="UTF-8"?>
<svg xmlns="http://www.w3.org/2000/svg" xmlns:xlink="http://www.w3.org/1999/xlink" width="48pt" height="48pt" viewBox="0 0 48 48" version="1.1">
<g id="surface1">
<path style=" stroke:none;fill-rule:evenodd;fill:rgb(80%,80%,80%);fill-opacity:1;" d="M 11.207031 2.847656 L 36.792969 2.847656 C 41.40625 2.847656 45.152344 6.59375 45.152344 11.207031 L 45.152344 36.792969 C 45.152344 41.40625 41.40625 45.152344 36.792969 45.152344 L 11.207031 45.152344 C 6.59375 45.152344 2.847656 41.40625 2.847656 36.792969 L 2.847656 11.207031 C 2.847656 6.59375 6.59375 2.847656 11.207031 2.847656 Z M 11.207031 2.847656 "/>
<path style=" stroke:none;fill-rule:nonzero;fill:rgb(50.196078%,50.196078%,50.196078%);fill-opacity:1;" d="M 37.015625 16.113281 C 40.175781 16.113281 39.902344 19.5 39.902344 19.5 L 39.902344 22.457031 C 39.902344 23.546875 38.527344 25.796875 38.527344 25.796875 L 38.527344 27.875 L 41.292969 29.15625 L 41.292969 31.332031 L 30.222656 31.332031 L 30.222656 29.15625 L 32.988281 27.875 L 32.988281 25.796875 C 32.988281 25.796875 31.609375 23.546875 31.621094 22.457031 L 31.621094 19.5 C 31.621094 19.5 31.34375 16.113281 34.503906 16.113281 "/>
<path style=" stroke:none;fill-rule:nonzero;fill:rgb(15.686275%,60.784314%,21.176471%);fill-opacity:1;" d="M 9.472656 27.183594 L 6.707031 24.417969 L 9.472656 21.652344 Z M 9.472656 27.183594 "/>
<path style=" stroke:none;fill-rule:nonzero;fill:rgb(92.54902%,71.372549%,30.588235%);fill-opacity:1;" d="M 12.066406 20.265625 L 19.332031 20.265625 C 19.949219 20.265625 20.542969 20.949219 20.542969 21.652344 L 20.542969 27.183594 C 20.542969 27.886719 19.949219 28.566406 19.332031 28.566406 L 12.066406 28.566406 C 11.453125 28.566406 10.859375 27.886719 10.859375 27.183594 L 10.859375 21.652344 C 10.859375 20.949219 11.453125 20.265625 12.066406 20.265625 Z M 12.066406 20.265625 "/>
<path style=" stroke:none;fill-rule:nonzero;fill:rgb(28.235294%,28.235294%,28.235294%);fill-opacity:1;" d="M 21.925781 16.140625 C 26.511719 16.140625 30.222656 19.859375 30.222656 24.441406 C 30.222656 29.027344 26.511719 32.738281 21.925781 32.738281 C 17.339844 32.738281 13.625 29.027344 13.625 24.441406 C 13.625 19.859375 17.339844 16.140625 21.925781 16.140625 Z M 21.925781 16.140625 "/>
<path style=" stroke:none;fill-rule:nonzero;fill:rgb(28.235294%,28.235294%,28.235294%);fill-opacity:1;" d="M 25.347656 27.859375 C 26.160156 27.050781 27.453125 27.03125 28.238281 27.816406 L 33.21875 32.796875 C 34.003906 33.582031 33.984375 34.875 33.175781 35.6875 C 32.363281 36.5 31.074219 36.515625 30.285156 35.734375 L 25.308594 30.75 C 24.519531 29.964844 24.542969 28.671875 25.347656 27.859375 Z M 25.347656 27.859375 "/>
<path style=" stroke:none;fill-rule:nonzero;fill:rgb(36.470588%,60%,100%);fill-opacity:1;" d="M 18.988281 21.503906 C 17.359375 23.140625 17.359375 25.746094 18.988281 27.375 C 20.621094 29.003906 23.230469 29.011719 24.859375 27.375 C 26.496094 25.746094 26.488281 23.136719 24.859375 21.503906 C 23.230469 19.875 20.625 19.875 18.988281 21.503906 Z M 18.988281 21.503906 "/>
</g>
</svg>
