<?xml version="1.0" encoding="UTF-8"?>
<svg xmlns="http://www.w3.org/2000/svg" xmlns:xlink="http://www.w3.org/1999/xlink" width="48pt" height="48pt" viewBox="0 0 48 48" version="1.1">
<g id="surface1">
<path style=" stroke:none;fill-rule:evenodd;fill:rgb(27.843137%,67.843137%,36.470588%);fill-opacity:1;" d="M 45.152344 31.703125 C 44.558594 30.222656 43.941406 28.765625 43.191406 27.488281 C 42.265625 25.910156 41.222656 24.484375 40.097656 23.21875 C 38.972656 21.953125 37.761719 20.847656 36.480469 19.894531 C 35.203125 18.949219 33.855469 18.15625 32.46875 17.527344 C 31.078125 16.890625 29.644531 16.417969 28.199219 16.09375 C 26.746094 15.777344 25.269531 15.613281 23.796875 15.613281 C 22.324219 15.609375 20.847656 15.761719 19.394531 16.074219 C 17.949219 16.378906 16.519531 16.847656 15.140625 17.46875 C 13.761719 18.09375 12.421875 18.871094 11.152344 19.800781 C 9.886719 20.738281 8.683594 21.828125 7.566406 23.074219 C 6.453125 24.316406 5.433594 25.722656 4.519531 27.28125 C 3.878906 28.375 3.371094 29.640625 2.847656 30.890625 L 2.847656 36.792969 C 2.847656 41.421875 6.578125 45.152344 11.207031 45.152344 L 36.792969 45.152344 C 41.421875 45.152344 45.152344 41.421875 45.152344 36.792969 Z M 45.152344 31.703125 "/>
<path style=" stroke:none;fill-rule:evenodd;fill:rgb(0%,31.764706%,17.647059%);fill-opacity:1;" d="M 11.207031 2.847656 C 6.578125 2.847656 2.847656 6.578125 2.847656 11.207031 L 2.847656 30.890625 C 3.371094 29.640625 3.878906 28.375 4.519531 27.28125 C 5.433594 25.722656 6.453125 24.316406 7.566406 23.074219 C 8.683594 21.828125 9.886719 20.738281 11.152344 19.800781 C 12.421875 18.871094 13.761719 18.09375 15.140625 17.46875 C 16.519531 16.847656 17.949219 16.378906 19.394531 16.074219 C 20.847656 15.761719 22.324219 15.609375 23.796875 15.613281 C 25.269531 15.613281 26.746094 15.777344 28.199219 16.09375 C 29.644531 16.417969 31.078125 16.890625 32.46875 17.527344 C 33.855469 18.15625 35.203125 18.949219 36.480469 19.894531 C 37.761719 20.847656 38.972656 21.953125 40.097656 23.21875 C 41.222656 24.484375 42.265625 25.910156 43.191406 27.488281 C 43.941406 28.765625 44.558594 30.222656 45.152344 31.703125 L 45.152344 11.207031 C 45.152344 6.578125 41.421875 2.847656 36.792969 2.847656 Z M 11.207031 2.847656 "/>
<path style=" stroke:none;fill-rule:nonzero;fill:rgb(100%,90.588235%,0%);fill-opacity:1;" d="M 12.421875 33.207031 C 21.496094 35.003906 24.984375 35.566406 35 33.3125 C 20.625 42.988281 28.582031 40.957031 12.421875 33.207031 Z M 12.421875 33.207031 "/>
<path style=" stroke:none;fill-rule:evenodd;fill:rgb(81.568627%,4.313725%,35.294118%);fill-opacity:1;" d="M 37.707031 24 C 37.707031 20.582031 36.277344 17.816406 34.5 17.816406 C 32.730469 17.816406 31.292969 20.582031 31.292969 24 C 31.292969 27.417969 32.730469 30.183594 34.5 30.183594 C 36.277344 30.183594 37.707031 27.417969 37.707031 24 Z M 37.707031 24 "/>
<path style=" stroke:none;fill-rule:evenodd;fill:rgb(20%,20%,20%);fill-opacity:1;" d="M 36.683594 24 C 36.683594 22.707031 35.777344 21.660156 34.652344 21.660156 C 33.527344 21.660156 32.613281 22.707031 32.613281 24 C 32.613281 25.292969 33.527344 26.339844 34.652344 26.339844 C 35.777344 26.339844 36.683594 25.292969 36.683594 24 Z M 36.683594 24 "/>
<path style=" stroke:none;fill-rule:evenodd;fill:rgb(81.568627%,4.313725%,35.294118%);fill-opacity:1;" d="M 16.707031 24 C 16.707031 20.582031 15.269531 17.816406 13.5 17.816406 C 11.722656 17.816406 10.292969 20.582031 10.292969 24 C 10.292969 27.417969 11.722656 30.183594 13.5 30.183594 C 15.269531 30.183594 16.707031 27.417969 16.707031 24 Z M 16.707031 24 "/>
<path style=" stroke:none;fill-rule:evenodd;fill:rgb(20%,20%,20%);fill-opacity:1;" d="M 15.683594 24 C 15.683594 22.707031 14.769531 21.660156 13.644531 21.660156 C 12.519531 21.660156 11.613281 22.707031 11.613281 24 C 11.613281 25.292969 12.519531 26.339844 13.644531 26.339844 C 14.769531 26.339844 15.683594 25.292969 15.683594 24 Z M 15.683594 24 "/>
</g>
</svg>
