<?xml version="1.0" encoding="UTF-8"?>
<svg xmlns="http://www.w3.org/2000/svg" xmlns:xlink="http://www.w3.org/1999/xlink" width="48pt" height="48pt" viewBox="0 0 48 48" version="1.1">
<g id="surface1">
<path style=" stroke:none;fill-rule:evenodd;fill:rgb(45.490196%,74.901961%,80%);fill-opacity:1;" d="M 11.207031 2.847656 L 36.792969 2.847656 C 41.40625 2.847656 45.152344 6.59375 45.152344 11.207031 L 45.152344 36.792969 C 45.152344 41.40625 41.40625 45.152344 36.792969 45.152344 L 11.207031 45.152344 C 6.59375 45.152344 2.847656 41.40625 2.847656 36.792969 L 2.847656 11.207031 C 2.847656 6.59375 6.59375 2.847656 11.207031 2.847656 Z M 11.207031 2.847656 "/>
<path style="fill:none;stroke-width:1;stroke-linecap:round;stroke-linejoin:miter;stroke:rgb(24.705882%,24.705882%,24.705882%);stroke-opacity:1;stroke-miterlimit:4;" d="M 23.510292 15.581174 C 23.510292 15.581174 25.395709 13.057736 24.231646 10.630653 C 23.070188 8.198361 17.419146 9.93534 13.075396 12.969195 C 9.950396 15.15409 8.445188 19.000445 8.499876 21.500445 " transform="matrix(1.5,0,0,1.5,-0.749813,0.721989)"/>
<path style="fill:none;stroke-width:1;stroke-linecap:round;stroke-linejoin:miter;stroke:rgb(24.705882%,24.705882%,24.705882%);stroke-opacity:1;stroke-miterlimit:4;" d="M 12.499876 22.500445 C 12.499876 22.500445 13.216021 25.406695 16.385292 25.536903 C 19.554563 25.661903 20.898313 20.292111 20.445188 15.01607 C 20.117063 11.21659 18.68998 7.70357 16.499876 6.500445 " transform="matrix(1.5,0,0,1.5,-0.749813,0.721989)"/>
<path style="fill:none;stroke-width:1;stroke-linecap:round;stroke-linejoin:miter;stroke:rgb(24.705882%,24.705882%,24.705882%);stroke-opacity:1;stroke-miterlimit:4;" d="M 13.499876 9.599403 C 13.499876 9.599403 9.091021 6.937945 7.801959 10.01607 C 6.512896 13.09159 10.78373 18.719195 15.898313 20.10982 C 19.466021 21.073361 23.468626 19.92232 24.499876 19.500445 " transform="matrix(1.5,0,0,1.5,-0.749813,0.721989)"/>
<path style="fill-rule:nonzero;fill:rgb(24.705882%,24.705882%,24.705882%);fill-opacity:1;stroke-width:0.874498;stroke-linecap:butt;stroke-linejoin:miter;stroke:rgb(24.705882%,24.705882%,24.705882%);stroke-opacity:1;stroke-miterlimit:4;" d="M 17.562376 15.500445 C 17.562376 16.088986 17.085813 16.562945 16.499876 16.562945 C 15.913938 16.562945 15.437376 16.088986 15.437376 15.500445 C 15.437376 14.914507 15.913938 14.43534 16.499876 14.43534 C 17.085813 14.43534 17.562376 14.914507 17.562376 15.500445 Z M 17.562376 15.500445 " transform="matrix(1.5,0,0,1.5,-0.749813,0.721989)"/>
<path style=" stroke:none;fill-rule:nonzero;fill:rgb(24.705882%,24.705882%,24.705882%);fill-opacity:1;" d="M 23.894531 8.222656 C 23.128906 8.261719 22.4375 8.683594 22.050781 9.347656 C 21.433594 10.421875 21.796875 11.796875 22.875 12.421875 C 23.953125 13.042969 25.328125 12.671875 25.949219 11.597656 C 26.566406 10.519531 26.203125 9.144531 25.125 8.527344 C 24.75 8.308594 24.324219 8.203125 23.894531 8.222656 Z M 35.949219 27.722656 C 35.574219 27.730469 35.203125 27.832031 34.875 28.027344 C 33.796875 28.644531 33.433594 30.019531 34.050781 31.097656 C 34.671875 32.171875 36.046875 32.542969 37.125 31.921875 C 38.203125 31.296875 38.566406 29.921875 37.949219 28.847656 C 37.535156 28.136719 36.769531 27.703125 35.949219 27.722656 Z M 12 30.722656 C 10.753906 30.722656 9.75 31.730469 9.75 32.972656 C 9.75 34.214844 10.753906 35.222656 12 35.222656 C 13.246094 35.222656 14.25 34.214844 14.25 32.972656 C 14.25 31.730469 13.246094 30.722656 12 30.722656 Z M 12 30.722656 "/>
<path style=" stroke:none;fill-rule:nonzero;fill:rgb(45.490196%,74.901961%,80%);fill-opacity:1;" d="M 24 9.722656 C 23.589844 9.722656 23.25 10.058594 23.25 10.472656 C 23.25 10.886719 23.589844 11.222656 24 11.222656 C 24.417969 11.222656 24.75 10.886719 24.75 10.472656 C 24.75 10.058594 24.417969 9.722656 24 9.722656 Z M 36 29.222656 C 35.589844 29.222656 35.25 29.558594 35.25 29.972656 C 35.25 30.386719 35.589844 30.722656 36 30.722656 C 36.417969 30.722656 36.75 30.386719 36.75 29.972656 C 36.75 29.558594 36.417969 29.222656 36 29.222656 Z M 12 32.222656 C 11.589844 32.222656 11.25 32.558594 11.25 32.972656 C 11.25 33.386719 11.589844 33.722656 12 33.722656 C 12.417969 33.722656 12.75 33.386719 12.75 32.972656 C 12.75 32.558594 12.417969 32.222656 12 32.222656 Z M 12 32.222656 "/>
</g>
</svg>
