<?xml version="1.0" encoding="UTF-8"?>
<svg xmlns="http://www.w3.org/2000/svg" xmlns:xlink="http://www.w3.org/1999/xlink" width="48pt" height="48pt" viewBox="0 0 48 48" version="1.1">
<g id="surface1">
<path style=" stroke:none;fill-rule:evenodd;fill:rgb(45.882353%,44.705882%,72.156863%);fill-opacity:0.992157;" d="M 11.207031 2.847656 L 36.792969 2.847656 C 41.40625 2.847656 45.152344 6.59375 45.152344 11.207031 L 45.152344 36.792969 C 45.152344 41.40625 41.40625 45.152344 36.792969 45.152344 L 11.207031 45.152344 C 6.59375 45.152344 2.847656 41.40625 2.847656 36.792969 L 2.847656 11.207031 C 2.847656 6.59375 6.59375 2.847656 11.207031 2.847656 Z M 11.207031 2.847656 "/>
<path style=" stroke:none;fill-rule:nonzero;fill:rgb(100%,100%,100%);fill-opacity:1;" d="M 15.808594 36.285156 C 15.808594 36.285156 17.417969 36.753906 19.558594 37.019531 C 20.425781 37.128906 23.722656 37.511719 26.253906 37.5 C 26.253906 37.5 29.339844 37.503906 31.042969 37.261719 C 32.824219 37.011719 33.832031 36.6875 34.390625 36.042969 C 34.40625 35.890625 34.660156 35.386719 33.96875 34.90625 C 32.203125 33.671875 29.917969 33.332031 25.472656 32.277344 C 20.558594 31.042969 19.089844 29.859375 18.355469 29.003906 C 17.660156 28.144531 18.488281 26.363281 22.449219 25.488281 C 24.449219 25 31.917969 24.910156 31.917969 24.910156 C 29.777344 23.214844 25.753906 20.167969 24.933594 19.519531 C 24.207031 18.953125 23.046875 18.078125 22.921875 17.300781 C 22.753906 16.542969 23.949219 16.175781 24.578125 16.136719 C 26.613281 15.996094 29.394531 16.234375 31.863281 16.722656 C 33.109375 16.972656 33.328125 16.9375 33.328125 16.9375 C 35.09375 17.019531 36.46875 16.09375 36.402344 14.144531 C 36.386719 12.167969 34.40625 10.578125 32.21875 10.511719 C 30.15625 10.441406 25.074219 10.800781 25.074219 10.800781 C 30.996094 12.027344 31.964844 12.332031 32.269531 13.046875 C 32.457031 13.46875 31.96875 13.890625 30.339844 13.808594 C 28.558594 13.71875 24.917969 13.285156 24.917969 13.285156 C 21.449219 12.753906 19.035156 12.25 17.984375 13.625 C 17.296875 14.519531 18.078125 15.621094 18.390625 16.265625 C 19.765625 18.660156 22.144531 20.3125 23.652344 21.46875 C 24.222656 21.90625 25.953125 22.875 25.953125 22.875 C 20.566406 21.402344 16.269531 22.230469 13.546875 23.660156 C 10.417969 25.515625 10.953125 28.640625 15.917969 31.5625 C 18.855469 33.292969 20.3125 34.121094 25.113281 34.707031 C 27.925781 35.15625 28.34375 35.339844 28.324219 35.574219 C 28.292969 35.902344 25 36.027344 24.09375 36.089844 C 21.792969 36.25 15.832031 36.285156 15.808594 36.285156 Z M 15.808594 36.285156 "/>
</g>
</svg>
