<?xml version="1.0" encoding="UTF-8"?>
<svg xmlns="http://www.w3.org/2000/svg" xmlns:xlink="http://www.w3.org/1999/xlink" width="48pt" height="48pt" viewBox="0 0 48 48" version="1.1">
<g id="surface1">
<path style=" stroke:none;fill-rule:evenodd;fill:rgb(37.254902%,72.54902%,63.137255%);fill-opacity:1;" d="M 11.207031 2.847656 L 36.792969 2.847656 C 41.40625 2.847656 45.152344 6.59375 45.152344 11.207031 L 45.152344 36.792969 C 45.152344 41.40625 41.40625 45.152344 36.792969 45.152344 L 11.207031 45.152344 C 6.59375 45.152344 2.847656 41.40625 2.847656 36.792969 L 2.847656 11.207031 C 2.847656 6.59375 6.59375 2.847656 11.207031 2.847656 Z M 11.207031 2.847656 "/>
<path style=" stroke:none;fill-rule:nonzero;fill:rgb(100%,100%,100%);fill-opacity:1;" d="M 16.683594 14.25 C 16.238281 14.238281 15.8125 14.402344 15.496094 14.699219 C 15.175781 15 15 15.40625 15 15.832031 L 15 32.171875 C 15 32.734375 15.3125 33.253906 15.824219 33.535156 C 16.328125 33.816406 16.957031 33.816406 17.464844 33.535156 L 24.824219 29.453125 L 32.175781 25.371094 C 32.6875 25.089844 33 24.5625 33 24 C 33 23.4375 32.6875 22.910156 32.175781 22.628906 L 24.824219 18.546875 L 17.464844 14.464844 C 17.230469 14.328125 16.957031 14.253906 16.683594 14.25 Z M 16.683594 14.25 "/>
</g>
</svg>
