<?xml version="1.0" encoding="UTF-8"?>
<svg xmlns="http://www.w3.org/2000/svg" xmlns:xlink="http://www.w3.org/1999/xlink" width="48pt" height="48pt" viewBox="0 0 48 48" version="1.1">
<g id="surface1">
<path style=" stroke:none;fill-rule:evenodd;fill:rgb(14.117647%,58.823529%,94.901961%);fill-opacity:1;" d="M 11.207031 2.847656 L 36.792969 2.847656 C 41.40625 2.847656 45.152344 6.59375 45.152344 11.207031 L 45.152344 36.792969 C 45.152344 41.40625 41.40625 45.152344 36.792969 45.152344 L 11.207031 45.152344 C 6.59375 45.152344 2.847656 41.40625 2.847656 36.792969 L 2.847656 11.207031 C 2.847656 6.59375 6.59375 2.847656 11.207031 2.847656 Z M 11.207031 2.847656 "/>
<path style=" stroke:none;fill-rule:nonzero;fill:rgb(100%,100%,100%);fill-opacity:1;" d="M 24 7.5 C 14.886719 7.5 7.5 14.886719 7.5 24 C 7.5 33.113281 14.886719 40.5 24 40.5 C 33.113281 40.5 40.5 33.113281 40.5 24 C 40.5 14.886719 33.113281 7.5 24 7.5 Z M 19.5 12 L 28.5 12 C 30.996094 12 33 14.035156 33 16.574219 L 33 18.859375 C 33 21.390625 30.996094 24 28.5 24 L 27 24 L 27 33.714844 C 27 34.980469 26.371094 36 25.125 36 L 22.875 36 C 21.628906 36 21.046875 34.980469 21 33.714844 L 21 24 L 19.5 24 C 17.003906 24 15 21.390625 15 18.859375 L 15 16.566406 C 15 14.035156 17.003906 12 19.5 12 Z M 19.5 12 "/>
</g>
</svg>
