<?xml version="1.0" encoding="UTF-8"?>
<svg xmlns="http://www.w3.org/2000/svg" xmlns:xlink="http://www.w3.org/1999/xlink" width="48pt" height="48pt" viewBox="0 0 48 48" version="1.1">
<g id="surface1">
<path style=" stroke:none;fill-rule:evenodd;fill:rgb(90.196078%,90.196078%,90.196078%);fill-opacity:1;" d="M 11.207031 2.847656 L 36.792969 2.847656 C 41.40625 2.847656 45.152344 6.59375 45.152344 11.207031 L 45.152344 36.792969 C 45.152344 41.40625 41.40625 45.152344 36.792969 45.152344 L 11.207031 45.152344 C 6.59375 45.152344 2.847656 41.40625 2.847656 36.792969 L 2.847656 11.207031 C 2.847656 6.59375 6.59375 2.847656 11.207031 2.847656 Z M 11.207031 2.847656 "/>
<path style=" stroke:none;fill-rule:nonzero;fill:rgb(17.254902%,50.196078%,63.529412%);fill-opacity:1;" d="M 40.917969 28.832031 C 40.917969 35.503906 35.503906 40.917969 28.832031 40.917969 C 22.160156 40.917969 16.75 35.503906 16.75 28.832031 C 16.75 22.160156 22.160156 16.75 28.832031 16.75 C 35.503906 16.75 40.917969 22.160156 40.917969 28.832031 Z M 40.917969 28.832031 "/>
<path style=" stroke:none;fill-rule:nonzero;fill:rgb(100%,100%,100%);fill-opacity:1;" d="M 36.082031 28.832031 C 36.082031 32.839844 32.839844 36.082031 28.832031 36.082031 C 24.828125 36.082031 21.582031 32.839844 21.582031 28.832031 C 21.582031 24.828125 24.828125 21.582031 28.832031 21.582031 C 32.839844 21.582031 36.082031 24.828125 36.082031 28.832031 Z M 36.082031 28.832031 "/>
<path style=" stroke:none;fill-rule:nonzero;fill:rgb(21.568627%,67.058824%,78.431373%);fill-opacity:1;" d="M 31.25 19.167969 C 31.25 25.839844 25.839844 31.25 19.167969 31.25 C 12.496094 31.25 7.082031 25.839844 7.082031 19.167969 C 7.082031 12.496094 12.496094 7.082031 19.167969 7.082031 C 25.839844 7.082031 31.25 12.496094 31.25 19.167969 Z M 31.25 19.167969 "/>
<path style=" stroke:none;fill-rule:nonzero;fill:rgb(100%,100%,100%);fill-opacity:1;" d="M 26.417969 19.167969 C 26.417969 23.171875 23.171875 26.417969 19.167969 26.417969 C 15.160156 26.417969 11.917969 23.171875 11.917969 19.167969 C 11.917969 15.160156 15.160156 11.917969 19.167969 11.917969 C 23.171875 11.917969 26.417969 15.160156 26.417969 19.167969 Z M 26.417969 19.167969 "/>
<path style="fill:none;stroke-width:1.241509;stroke-linecap:round;stroke-linejoin:miter;stroke:rgb(100%,43.137255%,29.803922%);stroke-opacity:1;stroke-miterlimit:4;" d="M 19.507911 22.49206 C 19.507911 22.49206 18.854825 17.794369 16.507596 15.492404 C 14.160368 13.193671 10.506967 12.492089 10.506967 12.492089 " transform="matrix(1.208207,0,0,1.208207,4.668693,4.668693)"/>
<path style="fill:none;stroke-width:1.241509;stroke-linecap:round;stroke-linejoin:miter;stroke:rgb(100%,43.137255%,29.803922%);stroke-opacity:1;stroke-miterlimit:4;" d="M 12.498555 10.500501 C 12.498555 10.500501 13.154874 15.198192 15.49887 17.500157 C 17.849332 19.79889 21.499499 20.500472 21.499499 20.500472 " transform="matrix(1.208207,0,0,1.208207,4.668693,4.668693)"/>
</g>
</svg>
