<?xml version="1.0" encoding="UTF-8"?>
<svg xmlns="http://www.w3.org/2000/svg" xmlns:xlink="http://www.w3.org/1999/xlink" width="48pt" height="48pt" viewBox="0 0 48 48" version="1.1">
<g id="surface1">
<path style=" stroke:none;fill-rule:evenodd;fill:rgb(100%,35.294118%,28.235294%);fill-opacity:1;" d="M 11.207031 2.847656 L 36.792969 2.847656 C 41.40625 2.847656 45.152344 6.59375 45.152344 11.207031 L 45.152344 36.792969 C 45.152344 41.40625 41.40625 45.152344 36.792969 45.152344 L 11.207031 45.152344 C 6.59375 45.152344 2.847656 41.40625 2.847656 36.792969 L 2.847656 11.207031 C 2.847656 6.59375 6.59375 2.847656 11.207031 2.847656 Z M 11.207031 2.847656 "/>
<path style="fill:none;stroke-width:3;stroke-linecap:butt;stroke-linejoin:miter;stroke:rgb(100%,100%,100%);stroke-opacity:1;stroke-miterlimit:4;" d="M 7.5 19.999915 L 7.5 10.749915 C 7.5 7.950435 10.398438 7.499915 10.398438 7.499915 L 22.299479 7.499915 " transform="matrix(1.5,0,0,1.5,0,0.750128)"/>
<path style=" stroke:none;fill-rule:nonzero;fill:rgb(100%,100%,100%);fill-opacity:1;" d="M 32.152344 6.75 C 31.792969 6.753906 31.5 7.050781 31.5 7.410156 L 31.5 13.589844 C 31.5 13.953125 31.796875 14.25 32.160156 14.25 L 38.339844 14.25 C 38.605469 14.25 38.847656 14.089844 38.949219 13.84375 C 39.050781 13.59375 38.996094 13.308594 38.808594 13.121094 L 32.628906 6.941406 C 32.503906 6.816406 32.332031 6.75 32.152344 6.75 Z M 32.152344 6.75 "/>
<path style=" stroke:none;fill-rule:nonzero;fill:rgb(100%,100%,100%);fill-opacity:1;" d="M 20 20.25 L 20.5 20.25 C 21.605469 20.25 22.5 21.144531 22.5 22.25 L 22.5 24.25 C 22.5 25.355469 21.605469 26.25 20.5 26.25 L 20 26.25 C 18.894531 26.25 18 25.355469 18 24.25 L 18 22.25 C 18 21.144531 18.894531 20.25 20 20.25 Z M 20 20.25 "/>
<path style="fill:none;stroke-width:3;stroke-linecap:butt;stroke-linejoin:miter;stroke:rgb(100%,100%,100%);stroke-opacity:1;stroke-miterlimit:4;" d="M 24.5 10.999915 L 24.5 20.249915 C 24.5 23.049394 21.601562 23.499915 21.601562 23.499915 L 9.700521 23.499915 " transform="matrix(1.5,0,0,1.5,0,0.750128)"/>
<path style=" stroke:none;fill-rule:nonzero;fill:rgb(100%,100%,100%);fill-opacity:1;" d="M 15.847656 41.25 C 16.207031 41.246094 16.5 40.949219 16.5 40.589844 L 16.5 34.410156 C 16.5 34.046875 16.203125 33.75 15.839844 33.75 L 9.660156 33.75 C 9.394531 33.75 9.152344 33.910156 9.050781 34.15625 C 8.949219 34.40625 9.003906 34.691406 9.191406 34.878906 L 15.371094 41.058594 C 15.496094 41.183594 15.667969 41.25 15.847656 41.25 Z M 15.847656 41.25 "/>
<path style=" stroke:none;fill-rule:nonzero;fill:rgb(100%,100%,100%);fill-opacity:1;" d="M 27.5 20.25 L 28 20.25 C 29.105469 20.25 30 21.144531 30 22.25 L 30 24.25 C 30 25.355469 29.105469 26.25 28 26.25 L 27.5 26.25 C 26.394531 26.25 25.5 25.355469 25.5 24.25 L 25.5 22.25 C 25.5 21.144531 26.394531 20.25 27.5 20.25 Z M 27.5 20.25 "/>
</g>
</svg>
