<?xml version="1.0" encoding="UTF-8"?>
<svg xmlns="http://www.w3.org/2000/svg" xmlns:xlink="http://www.w3.org/1999/xlink" width="48pt" height="48pt" viewBox="0 0 48 48" version="1.1">
<g id="surface1">
<path style=" stroke:none;fill-rule:evenodd;fill:rgb(21.568627%,62.745098%,94.901961%);fill-opacity:1;" d="M 11.207031 2.847656 L 36.792969 2.847656 C 41.40625 2.847656 45.152344 6.59375 45.152344 11.207031 L 45.152344 36.792969 C 45.152344 41.40625 41.40625 45.152344 36.792969 45.152344 L 11.207031 45.152344 C 6.59375 45.152344 2.847656 41.40625 2.847656 36.792969 L 2.847656 11.207031 C 2.847656 6.59375 6.59375 2.847656 11.207031 2.847656 Z M 11.207031 2.847656 "/>
<path style=" stroke:none;fill-rule:nonzero;fill:rgb(100%,100%,100%);fill-opacity:1;" d="M 7.5 10.5 L 7.5 37.5 L 9 37.5 L 9 10.5 Z M 39 10.5 L 39 37.5 L 40.5 37.5 L 40.5 10.5 Z M 10.5 13.5 L 10.5 34.5 L 12 34.5 L 12 13.5 Z M 13.5 13.5 L 13.5 34.5 L 34.5 34.5 L 34.5 13.5 Z M 36 13.5 L 36 34.5 L 37.5 34.5 L 37.5 13.5 Z M 15 15 L 33 15 L 33 33 L 15 33 Z M 15 15 "/>
</g>
</svg>
