<?xml version="1.0" encoding="UTF-8"?>
<svg xmlns="http://www.w3.org/2000/svg" xmlns:xlink="http://www.w3.org/1999/xlink" width="48pt" height="48pt" viewBox="0 0 48 48" version="1.1">
<g id="surface1">
<path style=" stroke:none;fill-rule:evenodd;fill:rgb(0%,61.960784%,100%);fill-opacity:1;" d="M 11.207031 2.847656 L 36.792969 2.847656 C 41.40625 2.847656 45.152344 6.59375 45.152344 11.207031 L 45.152344 36.792969 C 45.152344 41.40625 41.40625 45.152344 36.792969 45.152344 L 11.207031 45.152344 C 6.59375 45.152344 2.847656 41.40625 2.847656 36.792969 L 2.847656 11.207031 C 2.847656 6.59375 6.59375 2.847656 11.207031 2.847656 Z M 11.207031 2.847656 "/>
<path style=" stroke:none;fill-rule:nonzero;fill:rgb(100%,100%,100%);fill-opacity:1;" d="M 24 10.933594 C 15.996094 10.933594 9.511719 16.957031 9.511719 24.390625 C 9.511719 28.363281 11.402344 32.140625 14.683594 34.691406 L 14.683594 39.917969 L 18.535156 36.84375 C 20.269531 37.503906 22.125 37.84375 24 37.84375 C 32.003906 37.84375 38.488281 31.824219 38.488281 24.390625 C 38.488281 16.957031 32.003906 10.933594 24 10.933594 Z M 24 10.933594 "/>
<path style=" stroke:none;fill-rule:nonzero;fill:rgb(0%,61.960784%,100%);fill-opacity:1;" d="M 25.035156 28.53125 L 20.894531 23.871094 L 13.652344 28.53125 L 21.933594 19.214844 L 26.066406 24.390625 L 34.347656 19.214844 Z M 25.035156 28.53125 "/>
</g>
</svg>
