<?xml version="1.0" encoding="UTF-8"?>
<svg xmlns="http://www.w3.org/2000/svg" xmlns:xlink="http://www.w3.org/1999/xlink" width="48pt" height="48pt" viewBox="0 0 48 48" version="1.1">
<g id="surface1">
<path style=" stroke:none;fill-rule:evenodd;fill:rgb(30.980392%,30.980392%,30.980392%);fill-opacity:1;" d="M 11.207031 2.847656 L 36.792969 2.847656 C 41.40625 2.847656 45.152344 6.59375 45.152344 11.207031 L 45.152344 36.792969 C 45.152344 41.40625 41.40625 45.152344 36.792969 45.152344 L 11.207031 45.152344 C 6.59375 45.152344 2.847656 41.40625 2.847656 36.792969 L 2.847656 11.207031 C 2.847656 6.59375 6.59375 2.847656 11.207031 2.847656 Z M 11.207031 2.847656 "/>
<path style=" stroke:none;fill-rule:nonzero;fill:rgb(87.45098%,34.117647%,30.196078%);fill-opacity:1;" d="M 22.464844 37.496094 C 31.65625 35.128906 45.484375 25.921875 31.511719 13.496094 C 37.722656 21.375 39.050781 23.996094 25.480469 23.996094 C 38.675781 26.644531 27.011719 31.933594 20.957031 32.996094 Z M 22.464844 37.496094 "/>
<path style=" stroke:none;fill-rule:nonzero;fill:rgb(47.45098%,87.058824%,49.019608%);fill-opacity:1;" d="M 25.535156 10.503906 C 16.34375 12.871094 2.515625 22.078125 16.488281 34.503906 C 10.28125 26.625 8.949219 24.003906 22.519531 24.003906 C 9.324219 21.355469 20.988281 16.066406 27.042969 15.003906 Z M 25.535156 10.503906 "/>
</g>
</svg>
