<?xml version="1.0" encoding="UTF-8"?>
<svg xmlns="http://www.w3.org/2000/svg" xmlns:xlink="http://www.w3.org/1999/xlink" width="48pt" height="48pt" viewBox="0 0 48 48" version="1.1">
<g id="surface1">
<path style=" stroke:none;fill-rule:evenodd;fill:rgb(55.686275%,55.686275%,55.686275%);fill-opacity:1;" d="M 11.207031 2.847656 L 36.792969 2.847656 C 41.40625 2.847656 45.152344 6.59375 45.152344 11.207031 L 45.152344 36.792969 C 45.152344 41.40625 41.40625 45.152344 36.792969 45.152344 L 11.207031 45.152344 C 6.59375 45.152344 2.847656 41.40625 2.847656 36.792969 L 2.847656 11.207031 C 2.847656 6.59375 6.59375 2.847656 11.207031 2.847656 Z M 11.207031 2.847656 "/>
<path style=" stroke:none;fill-rule:nonzero;fill:rgb(30.196078%,30.196078%,30.196078%);fill-opacity:1;" d="M 24 13.5 C 18.203125 13.5 13.5 18.203125 13.5 24 L 13.5 34.5 L 24 34.5 C 29.796875 34.5 34.5 29.796875 34.5 24 C 34.5 18.203125 29.796875 13.5 24 13.5 Z M 24 18 C 27.3125 18 30 20.6875 30 24 C 30 27.3125 27.3125 30 24 30 C 20.6875 30 18 27.3125 18 24 C 18 20.6875 20.6875 18 24 18 Z M 24 18 "/>
<path style=" stroke:none;fill-rule:evenodd;fill:rgb(30.196078%,66.666667%,96.078431%);fill-opacity:1;" d="M 42.078125 34.578125 C 42.078125 38.71875 38.71875 42.078125 34.578125 42.078125 C 30.433594 42.078125 27.078125 38.71875 27.078125 34.578125 C 27.078125 30.433594 30.433594 27.078125 34.578125 27.078125 C 38.71875 27.078125 42.078125 30.433594 42.078125 34.578125 Z M 42.078125 34.578125 "/>
<path style=" stroke:none;fill-rule:nonzero;fill:rgb(100%,100%,100%);fill-opacity:1;" d="M 33.253906 34.019531 L 36.066406 34.019531 L 36.066406 39.644531 L 33.253906 39.644531 Z M 33.253906 34.019531 "/>
<path style=" stroke:none;fill-rule:nonzero;fill:rgb(100%,100%,100%);fill-opacity:1;" d="M 33.253906 30.269531 L 36.066406 30.269531 L 36.066406 33.082031 L 33.253906 33.082031 Z M 33.253906 30.269531 "/>
</g>
</svg>
