<?xml version="1.0" encoding="UTF-8"?>
<svg xmlns="http://www.w3.org/2000/svg" xmlns:xlink="http://www.w3.org/1999/xlink" width="48pt" height="48pt" viewBox="0 0 48 48" version="1.1">
<g id="surface1">
<path style=" stroke:none;fill-rule:evenodd;fill:rgb(85.098039%,34.901961%,31.764706%);fill-opacity:1;" d="M 11.207031 2.847656 L 36.792969 2.847656 C 41.40625 2.847656 45.152344 6.59375 45.152344 11.207031 L 45.152344 36.792969 C 45.152344 41.40625 41.40625 45.152344 36.792969 45.152344 L 11.207031 45.152344 C 6.59375 45.152344 2.847656 41.40625 2.847656 36.792969 L 2.847656 11.207031 C 2.847656 6.59375 6.59375 2.847656 11.207031 2.847656 Z M 11.207031 2.847656 "/>
<path style=" stroke:none;fill-rule:nonzero;fill:rgb(100%,100%,100%);fill-opacity:1;" d="M 15.972656 10.5 L 10.5 34.777344 L 14.949219 34.777344 L 17.53125 23.910156 L 29.667969 23.910156 L 18.300781 34.089844 L 21.265625 37.5 L 22.78125 36.71875 C 25.652344 35.246094 26.855469 36.105469 29.03125 36.707031 C 31.152344 37.296875 33.144531 37.925781 37.277344 35.546875 L 36.453125 31.34375 C 31.949219 34.546875 30.519531 31.6875 27.308594 31.574219 L 36.503906 23.792969 L 37.5 19.640625 L 18.238281 19.640625 L 19.480469 14.65625 L 32.105469 14.65625 L 32.96875 10.5 Z M 15.972656 10.5 "/>
</g>
</svg>
