<?xml version="1.0" encoding="UTF-8"?>
<svg xmlns="http://www.w3.org/2000/svg" xmlns:xlink="http://www.w3.org/1999/xlink" width="48pt" height="48pt" viewBox="0 0 48 48" version="1.1">
<g id="surface1">
<path style=" stroke:none;fill-rule:evenodd;fill:rgb(88.627451%,70.196078%,13.333333%);fill-opacity:1;" d="M 2.847656 18.296875 C 2.855469 18.316406 2.859375 18.34375 2.871094 18.363281 C 3.449219 19.738281 4.15625 21.042969 4.980469 22.261719 C 5.800781 23.484375 6.746094 24.621094 7.78125 25.65625 C 8.816406 26.691406 9.953125 27.628906 11.171875 28.457031 C 12.394531 29.28125 13.699219 29.988281 15.066406 30.566406 C 16.441406 31.144531 17.886719 31.597656 19.375 31.90625 C 20.871094 32.207031 22.417969 32.371094 24 32.371094 C 25.582031 32.371094 27.128906 32.207031 28.625 31.90625 C 30.113281 31.597656 31.558594 31.144531 32.925781 30.566406 C 34.300781 29.988281 35.605469 29.28125 36.828125 28.457031 C 38.046875 27.628906 39.183594 26.691406 40.21875 25.65625 C 41.253906 24.621094 42.199219 23.484375 43.019531 22.261719 C 43.84375 21.042969 44.550781 19.738281 45.128906 18.363281 C 45.140625 18.34375 45.144531 18.316406 45.152344 18.296875 L 45.152344 11.207031 C 45.152344 6.578125 41.421875 2.847656 36.792969 2.847656 L 11.207031 2.847656 C 6.578125 2.847656 2.847656 6.578125 2.847656 11.207031 Z M 2.847656 18.296875 "/>
<path style=" stroke:none;fill-rule:evenodd;fill:rgb(88.627451%,70.196078%,13.333333%);fill-opacity:1;" d="M 2.847656 21.449219 L 2.847656 36.792969 C 2.847656 41.421875 6.578125 45.152344 11.207031 45.152344 L 36.792969 45.152344 C 41.421875 45.152344 45.152344 41.421875 45.152344 36.792969 L 45.152344 21.449219 C 44.84375 21.988281 44.609375 22.578125 44.261719 23.09375 C 43.378906 24.394531 42.378906 25.605469 41.269531 26.707031 C 40.167969 27.816406 38.957031 28.816406 37.65625 29.699219 C 36.359375 30.574219 34.96875 31.328125 33.503906 31.949219 C 32.046875 32.566406 30.511719 33.046875 28.921875 33.371094 C 27.332031 33.699219 25.6875 33.871094 24 33.871094 C 22.3125 33.871094 20.667969 33.699219 19.078125 33.371094 C 17.488281 33.046875 15.953125 32.566406 14.496094 31.949219 C 13.03125 31.328125 11.640625 30.574219 10.34375 29.699219 C 9.042969 28.816406 7.832031 27.816406 6.730469 26.707031 C 5.621094 25.605469 4.621094 24.394531 3.738281 23.09375 C 3.390625 22.578125 3.15625 21.988281 2.847656 21.449219 Z M 2.847656 21.449219 "/>
<path style=" stroke:none;fill-rule:evenodd;fill:rgb(88.627451%,70.196078%,13.333333%);fill-opacity:1;" d="M 24 2.847656 L 11.207031 2.847656 C 6.578125 2.847656 2.847656 6.578125 2.847656 11.207031 L 2.847656 36.785156 C 2.847656 41.421875 6.578125 45.152344 11.207031 45.152344 L 24 45.152344 Z M 24 2.847656 "/>
<path style=" stroke:none;fill-rule:evenodd;fill:rgb(94.901961%,80.392157%,13.333333%);fill-opacity:1;" d="M 24 2.847656 L 24 45.152344 L 36.785156 45.152344 C 41.421875 45.152344 45.152344 41.421875 45.152344 36.785156 L 45.152344 11.207031 C 45.152344 6.578125 41.421875 2.847656 36.785156 2.847656 Z M 24 2.847656 "/>
<path style=" stroke:none;fill-rule:nonzero;fill:rgb(100%,100%,100%);fill-opacity:1;" d="M 20.222656 41.609375 C 20.222656 42.410156 20.875 43.0625 21.675781 43.0625 C 22.480469 43.0625 23.128906 42.410156 23.128906 41.609375 C 23.128906 41.347656 23.046875 41.113281 22.925781 40.902344 L 24 39.753906 L 25.074219 40.902344 C 24.953125 41.113281 24.871094 41.347656 24.871094 41.609375 C 24.871094 42.410156 25.519531 43.0625 26.328125 43.0625 C 27.125 43.0625 27.777344 42.410156 27.777344 41.609375 C 27.777344 40.808594 27.125 40.15625 26.324219 40.15625 C 26.191406 40.15625 26.066406 40.175781 25.941406 40.214844 L 24.746094 38.972656 L 27.199219 36.378906 L 27.199219 35.503906 L 26.613281 35.503906 L 22.058594 40.214844 C 21.933594 40.175781 21.808594 40.15625 21.675781 40.15625 C 20.875 40.15625 20.222656 40.808594 20.222656 41.609375 Z M 21.09375 41.609375 C 21.09375 41.292969 21.355469 41.03125 21.675781 41.03125 C 21.996094 41.03125 22.253906 41.292969 22.253906 41.609375 C 22.253906 41.933594 21.996094 42.191406 21.675781 42.191406 C 21.355469 42.191406 21.09375 41.933594 21.09375 41.609375 Z M 20.800781 36.378906 L 22.964844 38.667969 L 23.707031 37.90625 L 21.386719 35.511719 L 20.800781 35.511719 Z M 25.746094 41.609375 C 25.746094 41.292969 26.003906 41.03125 26.324219 41.03125 C 26.644531 41.03125 26.90625 41.292969 26.90625 41.609375 C 26.90625 41.933594 26.644531 42.191406 26.324219 42.191406 C 26.003906 42.191406 25.746094 41.933594 25.746094 41.609375 Z M 25.746094 41.609375 "/>
<path style=" stroke:none;fill-rule:nonzero;fill:rgb(100%,100%,100%);fill-opacity:1;" d="M 29.917969 12.402344 L 21.214844 14.410156 C 19.984375 14.5625 20.03125 15.816406 20.03125 15.816406 L 20.03125 21.175781 C 19.75 21.09375 19.453125 21.050781 19.160156 21.050781 C 17.394531 21.050781 15.964844 22.480469 15.964844 24.246094 C 15.964844 26.011719 17.394531 27.441406 19.160156 27.441406 C 20.8125 27.441406 22.191406 26.183594 22.34375 24.535156 L 22.355469 24.535156 L 22.355469 16.496094 L 28.75 14.972656 L 28.75 19.433594 C 28.464844 19.347656 28.171875 19.308594 27.875 19.308594 C 26.113281 19.308594 24.683594 20.738281 24.683594 22.503906 C 24.683594 24.269531 26.113281 25.699219 27.875 25.699219 C 29.53125 25.699219 30.910156 24.4375 31.058594 22.792969 L 31.074219 22.792969 L 31.074219 13.496094 C 31.074219 13.496094 31.089844 12.15625 29.917969 12.402344 Z M 29.917969 12.402344 "/>
<path style=" stroke:none;fill-rule:evenodd;fill:rgb(100%,100%,100%);fill-opacity:1;" d="M 2.847656 21.449219 C 3.15625 21.988281 3.390625 22.578125 3.738281 23.09375 C 4.621094 24.394531 5.621094 25.605469 6.730469 26.707031 C 7.832031 27.816406 9.042969 28.816406 10.34375 29.699219 C 11.640625 30.574219 13.03125 31.328125 14.496094 31.949219 C 15.953125 32.566406 17.488281 33.046875 19.078125 33.371094 C 20.667969 33.699219 22.3125 33.871094 24 33.871094 C 25.6875 33.871094 27.332031 33.699219 28.921875 33.371094 C 30.511719 33.046875 32.046875 32.566406 33.503906 31.949219 C 34.96875 31.328125 36.359375 30.574219 37.65625 29.699219 C 38.957031 28.816406 40.167969 27.816406 41.269531 26.707031 C 42.378906 25.605469 43.378906 24.394531 44.261719 23.09375 C 44.609375 22.578125 44.84375 21.988281 45.152344 21.449219 L 45.152344 18.296875 C 45.144531 18.316406 45.140625 18.34375 45.128906 18.363281 C 44.550781 19.738281 43.84375 21.042969 43.019531 22.261719 C 42.199219 23.484375 41.253906 24.621094 40.21875 25.65625 C 39.183594 26.691406 38.046875 27.628906 36.828125 28.457031 C 35.605469 29.28125 34.300781 29.988281 32.925781 30.566406 C 31.558594 31.144531 30.113281 31.597656 28.625 31.90625 C 27.128906 32.207031 25.582031 32.371094 24 32.371094 C 22.417969 32.371094 20.871094 32.207031 19.375 31.90625 C 17.886719 31.597656 16.441406 31.144531 15.066406 30.566406 C 13.699219 29.988281 12.394531 29.28125 11.171875 28.457031 C 9.953125 27.628906 8.816406 26.691406 7.78125 25.65625 C 6.746094 24.621094 5.800781 23.484375 4.980469 22.261719 C 4.15625 21.042969 3.449219 19.738281 2.871094 18.363281 C 2.859375 18.34375 2.855469 18.316406 2.847656 18.296875 Z M 2.847656 21.449219 "/>
</g>
</svg>
