<?xml version="1.0" encoding="UTF-8"?>
<svg xmlns="http://www.w3.org/2000/svg" xmlns:xlink="http://www.w3.org/1999/xlink" width="48pt" height="48pt" viewBox="0 0 48 48" version="1.1">
<g id="surface1">
<path style=" stroke:none;fill-rule:evenodd;fill:rgb(83.529412%,27.843137%,27.843137%);fill-opacity:1;" d="M 11.207031 2.847656 L 36.792969 2.847656 C 41.40625 2.847656 45.152344 6.59375 45.152344 11.207031 L 45.152344 36.792969 C 45.152344 41.40625 41.40625 45.152344 36.792969 45.152344 L 11.207031 45.152344 C 6.59375 45.152344 2.847656 41.40625 2.847656 36.792969 L 2.847656 11.207031 C 2.847656 6.59375 6.59375 2.847656 11.207031 2.847656 Z M 11.207031 2.847656 "/>
<path style=" stroke:none;fill-rule:nonzero;fill:rgb(100%,100%,100%);fill-opacity:1;" d="M 38.214844 26.1875 L 33.839844 26.1875 L 33.839844 11.425781 C 33.839844 10.640625 32.792969 9.785156 32.199219 9.785156 L 15.800781 9.785156 C 15.207031 9.785156 14.160156 10.640625 14.160156 11.425781 L 14.160156 26.1875 L 9.785156 26.1875 L 24 38.214844 Z M 38.214844 26.1875 "/>
</g>
</svg>
