<?xml version="1.0" encoding="UTF-8"?>
<svg xmlns="http://www.w3.org/2000/svg" xmlns:xlink="http://www.w3.org/1999/xlink" width="48pt" height="48pt" viewBox="0 0 48 48" version="1.1">
<g id="surface1">
<path style=" stroke:none;fill-rule:evenodd;fill:rgb(52.54902%,62.352941%,79.607843%);fill-opacity:1;" d="M 45.152344 28.765625 L 2.847656 28.765625 L 2.847656 36.785156 C 2.847656 41.421875 6.578125 45.152344 11.207031 45.152344 L 36.785156 45.152344 C 41.421875 45.152344 45.152344 41.421875 45.152344 36.785156 Z M 45.152344 28.765625 "/>
<path style=" stroke:none;fill-rule:evenodd;fill:rgb(100%,80.784314%,48.235294%);fill-opacity:1;" d="M 11.207031 2.847656 C 6.578125 2.847656 2.847656 6.578125 2.847656 11.207031 L 2.847656 28.765625 L 45.152344 28.765625 L 45.152344 11.207031 C 45.152344 6.578125 41.421875 2.847656 36.785156 2.847656 Z M 11.207031 2.847656 "/>
<path style=" stroke:none;fill-rule:nonzero;fill:rgb(100%,62.352941%,18.823529%);fill-opacity:1;" d="M 39.371094 13.949219 C 39.371094 17.261719 36.6875 19.949219 33.371094 19.949219 C 30.058594 19.949219 27.371094 17.261719 27.371094 13.949219 C 27.371094 10.628906 30.058594 7.949219 33.371094 7.949219 C 36.6875 7.949219 39.371094 10.628906 39.371094 13.949219 Z M 39.371094 13.949219 "/>
</g>
</svg>
