<?xml version="1.0" encoding="UTF-8"?>
<svg xmlns="http://www.w3.org/2000/svg" xmlns:xlink="http://www.w3.org/1999/xlink" width="48pt" height="48pt" viewBox="0 0 48 48" version="1.1">
<g id="surface1">
<path style=" stroke:none;fill-rule:evenodd;fill:rgb(83.921569%,83.921569%,83.921569%);fill-opacity:1;" d="M 11.207031 2.847656 L 36.792969 2.847656 C 41.40625 2.847656 45.152344 6.59375 45.152344 11.207031 L 45.152344 36.792969 C 45.152344 41.40625 41.40625 45.152344 36.792969 45.152344 L 11.207031 45.152344 C 6.59375 45.152344 2.847656 41.40625 2.847656 36.792969 L 2.847656 11.207031 C 2.847656 6.59375 6.59375 2.847656 11.207031 2.847656 Z M 11.207031 2.847656 "/>
<path style=" stroke:none;fill-rule:nonzero;fill:rgb(30.980392%,30.980392%,30.980392%);fill-opacity:1;" d="M 17.109375 7.027344 C 14.839844 7.949219 12.796875 9.300781 11.050781 11.046875 C 9.300781 12.796875 7.949219 14.839844 7.027344 17.109375 C 6.136719 19.300781 5.6875 21.621094 5.6875 24 C 5.6875 26.378906 6.136719 28.699219 7.027344 30.890625 C 7.949219 33.160156 9.300781 35.203125 11.050781 36.953125 C 12.796875 38.699219 14.839844 40.050781 17.109375 40.972656 C 19.300781 41.863281 21.621094 42.3125 24 42.3125 C 26.378906 42.3125 28.699219 41.863281 30.890625 40.972656 C 33.160156 40.050781 35.203125 38.699219 36.953125 36.953125 C 38.699219 35.203125 40.050781 33.167969 40.972656 30.890625 C 41.863281 28.699219 42.3125 26.378906 42.3125 24 C 42.3125 21.621094 41.863281 19.300781 40.972656 17.109375 C 40.050781 14.839844 38.699219 12.796875 36.953125 11.046875 C 35.203125 9.300781 33.167969 7.949219 30.890625 7.027344 C 28.699219 6.136719 26.378906 5.6875 24 5.6875 C 21.621094 5.6875 19.300781 6.136719 17.109375 7.027344 Z M 10.261719 31.707031 C 9.378906 31.15625 8.566406 30.519531 7.847656 29.765625 C 6.75 26.671875 6.5625 23.324219 7.292969 20.144531 C 7.636719 19.46875 8.019531 18.824219 8.464844 18.199219 C 8.597656 18.011719 8.722656 17.808594 8.871094 17.621094 L 13.003906 20.066406 L 13.003906 20.171875 C 12.996094 22.394531 13.21875 24.597656 13.671875 26.777344 C 13.671875 26.785156 13.671875 26.792969 13.675781 26.800781 L 10.46875 31.828125 C 10.402344 31.792969 10.328125 31.753906 10.261719 31.707031 Z M 22.550781 40.207031 C 23.265625 40.574219 24 40.878906 24.75 41.128906 C 21.550781 41.265625 18.316406 40.515625 15.457031 38.875 L 22.386719 40.109375 C 22.441406 40.144531 22.496094 40.175781 22.550781 40.207031 Z M 22.527344 38.957031 L 14.347656 37.5 C 13.394531 36.339844 12.53125 35.109375 11.792969 33.796875 C 11.605469 33.464844 11.394531 33.136719 11.234375 32.785156 L 14.4375 27.765625 C 14.511719 27.785156 14.589844 27.800781 14.675781 27.828125 C 16.683594 28.363281 18.71875 28.746094 20.769531 29.042969 C 20.890625 29.058594 20.996094 29.074219 21.078125 29.082031 L 24.917969 35.71875 C 24.25 36.65625 23.578125 37.589844 22.890625 38.511719 C 22.777344 38.660156 22.652344 38.8125 22.527344 38.957031 Z M 36.128906 36.128906 C 35.480469 36.78125 34.785156 37.371094 34.0625 37.890625 C 33.941406 36.933594 33.738281 35.996094 33.449219 35.074219 L 37.542969 27.433594 C 38.667969 26.921875 39.753906 26.339844 40.765625 25.613281 C 40.902344 25.519531 41.011719 25.417969 41.09375 25.300781 C 40.796875 29.25 39.140625 33.113281 36.128906 36.128906 Z M 35.949219 26.21875 C 36.097656 26.511719 36.25 26.800781 36.402344 27.105469 L 32.441406 34.480469 C 32.421875 34.484375 32.402344 34.488281 32.378906 34.496094 C 30.238281 34.894531 28.082031 35.105469 25.910156 35.113281 L 21.964844 28.292969 C 22.578125 27.152344 23.1875 26.003906 23.792969 24.859375 C 24.199219 24.078125 24.605469 23.296875 25.003906 22.515625 L 33.175781 21.675781 C 34.175781 23.144531 35.125 24.644531 35.949219 26.21875 Z M 34.292969 17.46875 C 33.902344 18.488281 33.488281 19.503906 33.074219 20.519531 L 25.113281 21.339844 C 25.019531 21.214844 24.921875 21.089844 24.816406 20.96875 C 23.878906 19.90625 22.933594 18.847656 21.988281 17.785156 C 21.996094 17.777344 22.003906 17.765625 22.015625 17.761719 C 21.628906 17.378906 21.25 16.996094 20.871094 16.613281 L 23.082031 9.941406 C 23.238281 9.902344 23.390625 9.871094 23.546875 9.855469 C 24.75 9.730469 25.957031 9.59375 27.167969 9.519531 C 27.90625 9.480469 28.644531 9.457031 29.402344 9.511719 L 34.878906 15.6875 C 34.691406 16.285156 34.511719 16.886719 34.292969 17.46875 Z M 36.128906 11.871094 C 37.640625 13.386719 38.8125 15.109375 39.640625 16.957031 C 38.613281 16.25 37.519531 15.671875 36.371094 15.199219 C 36.191406 15.125 36.003906 15.058594 35.816406 14.996094 L 30.421875 8.910156 C 30.464844 8.652344 30.480469 8.386719 30.488281 8.121094 C 32.542969 8.957031 34.46875 10.207031 36.128906 11.871094 Z M 18.503906 7.800781 C 18.53125 7.816406 18.535156 7.832031 18.550781 7.832031 C 19.785156 8.261719 20.90625 8.890625 21.964844 9.628906 L 19.894531 15.863281 C 19.886719 15.871094 19.875 15.875 19.863281 15.875 C 19.4375 16.050781 19.011719 16.207031 18.589844 16.402344 C 16.875 17.183594 15.199219 18.046875 13.621094 19.082031 L 9.535156 16.667969 C 9.542969 16.535156 9.5625 16.40625 9.605469 16.292969 C 9.878906 15.5625 10.152344 14.828125 10.457031 14.109375 C 10.699219 13.558594 10.96875 13.027344 11.269531 12.503906 C 11.464844 12.292969 11.667969 12.078125 11.871094 11.871094 C 13.8125 9.933594 16.105469 8.550781 18.546875 7.738281 C 18.53125 7.761719 18.519531 7.78125 18.503906 7.800781 Z M 18.503906 7.800781 "/>
</g>
</svg>
