<?xml version="1.0" encoding="UTF-8"?>
<svg xmlns="http://www.w3.org/2000/svg" xmlns:xlink="http://www.w3.org/1999/xlink" width="48pt" height="48pt" viewBox="0 0 48 48" version="1.1">
<g id="surface1">
<path style=" stroke:none;fill-rule:evenodd;fill:rgb(0.784314%,52.54902%,76.078431%);fill-opacity:1;" d="M 11.207031 2.847656 L 36.792969 2.847656 C 41.40625 2.847656 45.152344 6.59375 45.152344 11.207031 L 45.152344 36.792969 C 45.152344 41.40625 41.40625 45.152344 36.792969 45.152344 L 11.207031 45.152344 C 6.59375 45.152344 2.847656 41.40625 2.847656 36.792969 L 2.847656 11.207031 C 2.847656 6.59375 6.59375 2.847656 11.207031 2.847656 Z M 11.207031 2.847656 "/>
<path style=" stroke:none;fill-rule:nonzero;fill:rgb(100%,100%,100%);fill-opacity:1;" d="M 37.378906 12.957031 C 37.269531 12.9375 37.136719 13.046875 36.957031 13.234375 C 36.703125 13.511719 36.464844 14.316406 36.152344 16 C 35.625 18.816406 35.277344 19.996094 34.78125 20.667969 C 34.578125 20.9375 34.457031 21.28125 34.511719 21.433594 C 34.652344 21.816406 35.425781 22.316406 36.496094 22.714844 C 37.59375 23.113281 37.980469 23.144531 38.074219 22.824219 C 38.113281 22.691406 38.0625 20.503906 37.957031 17.957031 C 37.8125 14.230469 37.714844 13.015625 37.378906 12.957031 Z M 11.355469 13.152344 C 11.230469 13.136719 11.097656 13.222656 10.941406 13.386719 C 10.691406 13.65625 10.636719 14.363281 10.550781 18.238281 C 10.5 20.734375 10.484375 22.839844 10.515625 22.917969 C 10.703125 23.359375 12.84375 22.542969 13.605469 21.734375 L 13.980469 21.328125 L 13.515625 20.484375 C 13.214844 19.9375 12.863281 18.707031 12.53125 16.984375 C 11.984375 14.199219 11.714844 13.199219 11.355469 13.152344 Z M 28.5 18.546875 C 27.941406 18.527344 27.300781 18.753906 26.316406 19.128906 C 25.269531 19.53125 24.199219 19.859375 23.925781 19.859375 C 23.65625 19.859375 22.828125 19.59375 22.082031 19.269531 C 20.230469 18.46875 19.496094 18.363281 18.734375 18.785156 C 18.402344 18.980469 17.152344 20.167969 15.964844 21.425781 C 14.152344 23.339844 13.625 23.785156 12.730469 24.152344 C 11.324219 24.722656 10.136719 24.863281 9.167969 24.566406 C 7.84375 24.160156 7.128906 24.917969 7.699219 26.113281 C 8.238281 27.253906 10.40625 28.292969 13.277344 28.777344 C 17.261719 29.457031 19.894531 28.828125 22.699219 26.535156 C 23.234375 26.09375 23.828125 25.730469 24.015625 25.730469 C 24.207031 25.730469 24.859375 26.140625 25.464844 26.636719 C 26.902344 27.808594 27.597656 28.183594 29.300781 28.691406 C 30.511719 29.058594 30.980469 29.097656 32.683594 28.988281 C 36.261719 28.761719 38.65625 27.988281 39.917969 26.660156 C 40.34375 26.21875 40.5 25.875 40.5 25.40625 C 40.5 24.472656 40.003906 24.238281 38.746094 24.566406 C 37.980469 24.769531 37.550781 24.777344 36.78125 24.605469 C 34.894531 24.171875 34.042969 23.578125 31.84375 21.171875 C 30.136719 19.308594 29.433594 18.582031 28.5 18.546875 Z M 37.261719 30.546875 C 37.199219 30.550781 37.109375 30.574219 37 30.597656 C 35.667969 30.964844 34.28125 31.15625 32.269531 31.269531 L 30.074219 31.394531 L 30.015625 32.730469 C 29.96875 33.933594 30.011719 34.109375 30.421875 34.558594 C 30.847656 35.015625 31.003906 35.050781 32.582031 35.042969 C 34.359375 35.03125 35.417969 34.753906 36.074219 34.128906 C 36.550781 33.671875 37.5 31.546875 37.5 30.933594 C 37.5 30.625 37.464844 30.527344 37.261719 30.546875 Z M 10.515625 30.558594 C 10.457031 30.621094 10.5625 31.199219 10.738281 31.839844 C 11.128906 33.25 11.964844 34.339844 12.957031 34.738281 C 13.949219 35.136719 16.578125 35.140625 17.25 34.746094 C 17.785156 34.433594 18 33.769531 18 32.433594 C 18 31.109375 17.957031 31.082031 15.917969 31.082031 C 14.894531 31.078125 13.28125 30.9375 12.332031 30.765625 C 11.386719 30.589844 10.566406 30.496094 10.515625 30.558594 Z M 10.515625 30.558594 "/>
</g>
</svg>
