<?xml version="1.0" encoding="UTF-8"?>
<svg xmlns="http://www.w3.org/2000/svg" xmlns:xlink="http://www.w3.org/1999/xlink" width="48pt" height="48pt" viewBox="0 0 48 48" version="1.1">
<g id="surface1">
<path style=" stroke:none;fill-rule:evenodd;fill:rgb(30.980392%,30.980392%,30.980392%);fill-opacity:1;" d="M 11.207031 2.847656 L 36.792969 2.847656 C 41.40625 2.847656 45.152344 6.59375 45.152344 11.207031 L 45.152344 36.792969 C 45.152344 41.40625 41.40625 45.152344 36.792969 45.152344 L 11.207031 45.152344 C 6.59375 45.152344 2.847656 41.40625 2.847656 36.792969 L 2.847656 11.207031 C 2.847656 6.59375 6.59375 2.847656 11.207031 2.847656 Z M 11.207031 2.847656 "/>
<path style=" stroke:none;fill-rule:nonzero;fill:rgb(100%,12.941176%,2.352941%);fill-opacity:1;" d="M 11.253906 11.578125 L 26.722656 11.578125 L 26.722656 17.5625 L 15.125 17.5625 L 15.125 22.71875 L 21.566406 22.71875 L 21.566406 26.582031 L 15.125 26.582031 L 15.125 35.605469 L 11.253906 35.605469 Z M 11.253906 11.578125 "/>
<path style=" stroke:none;fill-rule:nonzero;fill:rgb(100%,100%,100%);fill-opacity:1;" d="M 31.234375 17.859375 L 31.234375 17.863281 L 30.089844 20.28125 C 29.1875 20.277344 28.292969 20.425781 27.441406 20.722656 L 25.574219 18.800781 L 21.667969 22.019531 L 23.1875 24.222656 C 22.957031 24.609375 22.765625 25.015625 22.605469 25.4375 C 22.449219 25.859375 22.324219 26.296875 22.238281 26.738281 L 19.652344 27.394531 L 20.484375 32.386719 L 23.144531 32.171875 C 23.597656 32.953125 24.175781 33.652344 24.859375 34.238281 L 24.128906 36.824219 L 28.871094 38.59375 L 30.015625 36.175781 C 30.917969 36.175781 31.8125 36.03125 32.660156 35.734375 L 34.53125 37.652344 L 38.441406 34.4375 L 36.917969 32.234375 C 37.144531 31.84375 37.339844 31.4375 37.5 31.019531 C 37.660156 30.59375 37.78125 30.160156 37.863281 29.714844 L 40.453125 29.058594 L 39.621094 24.066406 L 36.957031 24.285156 C 36.511719 23.503906 35.925781 22.800781 35.246094 22.214844 L 35.972656 19.636719 Z M 30.019531 24.046875 C 32.347656 24.046875 34.238281 25.933594 34.234375 28.261719 C 34.234375 30.582031 32.347656 32.46875 30.019531 32.46875 C 27.699219 32.46875 25.8125 30.582031 25.8125 28.261719 C 25.8125 25.933594 27.699219 24.046875 30.027344 24.046875 Z M 30.019531 24.046875 "/>
</g>
</svg>
