<?xml version="1.0" encoding="UTF-8"?>
<svg xmlns="http://www.w3.org/2000/svg" xmlns:xlink="http://www.w3.org/1999/xlink" width="48pt" height="48pt" viewBox="0 0 48 48" version="1.1">
<g id="surface1">
<path style=" stroke:none;fill-rule:evenodd;fill:rgb(80%,80%,80%);fill-opacity:1;" d="M 11.207031 2.847656 L 36.792969 2.847656 C 41.40625 2.847656 45.152344 6.59375 45.152344 11.207031 L 45.152344 36.792969 C 45.152344 41.40625 41.40625 45.152344 36.792969 45.152344 L 11.207031 45.152344 C 6.59375 45.152344 2.847656 41.40625 2.847656 36.792969 L 2.847656 11.207031 C 2.847656 6.59375 6.59375 2.847656 11.207031 2.847656 Z M 11.207031 2.847656 "/>
<path style=" stroke:none;fill-rule:nonzero;fill:rgb(28.235294%,28.235294%,28.235294%);fill-opacity:1;" d="M 28.28125 15.550781 C 31.796875 19.066406 31.796875 24.765625 28.28125 28.28125 C 24.765625 31.796875 19.066406 31.796875 15.550781 28.28125 C 12.035156 24.765625 12.035156 19.066406 15.550781 15.550781 C 19.066406 12.035156 24.765625 12.035156 28.28125 15.550781 Z M 28.28125 15.550781 "/>
<path style=" stroke:none;fill-rule:nonzero;fill:rgb(28.235294%,28.235294%,28.235294%);fill-opacity:1;" d="M 26.15625 26.15625 C 26.746094 25.574219 27.691406 25.574219 28.28125 26.15625 L 34.644531 32.519531 C 35.230469 33.109375 35.230469 34.058594 34.644531 34.644531 C 34.058594 35.230469 33.109375 35.230469 32.519531 34.644531 L 26.15625 28.28125 C 25.574219 27.691406 25.574219 26.746094 26.15625 26.15625 Z M 26.15625 26.15625 "/>
<path style=" stroke:none;fill-rule:nonzero;fill:rgb(36.470588%,60%,100%);fill-opacity:1;" d="M 26.152344 17.652344 C 23.792969 15.292969 20.035156 15.296875 17.683594 17.652344 C 15.328125 20.003906 15.328125 23.761719 17.683594 26.121094 C 20.035156 28.472656 23.796875 28.46875 26.152344 26.121094 C 28.503906 23.765625 28.503906 20.003906 26.152344 17.652344 Z M 26.152344 17.652344 "/>
</g>
</svg>
