<?xml version="1.0" encoding="UTF-8"?>
<svg xmlns="http://www.w3.org/2000/svg" xmlns:xlink="http://www.w3.org/1999/xlink" width="48pt" height="48pt" viewBox="0 0 48 48" version="1.1">
<g id="surface1">
<path style=" stroke:none;fill-rule:evenodd;fill:rgb(54.117647%,29.411765%,17.254902%);fill-opacity:1;" d="M 11.207031 2.847656 L 36.792969 2.847656 C 41.40625 2.847656 45.152344 6.59375 45.152344 11.207031 L 45.152344 36.792969 C 45.152344 41.40625 41.40625 45.152344 36.792969 45.152344 L 11.207031 45.152344 C 6.59375 45.152344 2.847656 41.40625 2.847656 36.792969 L 2.847656 11.207031 C 2.847656 6.59375 6.59375 2.847656 11.207031 2.847656 Z M 11.207031 2.847656 "/>
<path style=" stroke:none;fill-rule:nonzero;fill:rgb(98.431373%,71.372549%,29.019608%);fill-opacity:1;" d="M 14.578125 41.832031 C 14.605469 41.777344 14.671875 41.359375 14.730469 40.917969 C 15.082031 38.246094 15.058594 36.535156 15.75 35.394531 C 15.878906 35.183594 16.246094 34.71875 16.558594 34.359375 C 16.875 34.003906 17.136719 33.78125 17.136719 33.734375 C 17.136719 33.683594 17.042969 33.671875 16.839844 33.703125 C 15.859375 33.859375 15.269531 33.683594 15 33.222656 C 14.859375 32.984375 15.019531 33.292969 15 27.417969 C 14.980469 20.671875 15.050781 21.316406 15.667969 21.003906 C 16.113281 20.78125 16.671875 20.433594 17.167969 20.355469 C 18.003906 20.21875 18.578125 20.84375 18.996094 21.65625 C 19.109375 21.875 19.238281 22.046875 19.285156 22.03125 C 19.417969 21.984375 19.441406 15.90625 19.308594 15.90625 C 19.253906 15.90625 19.15625 16.058594 19.089844 16.234375 C 18.910156 16.6875 18.5 17.734375 18.011719 17.953125 C 17.5 18.175781 15.871094 18.753906 15.53125 18.753906 C 15.390625 18.753906 15.046875 18.71875 15 18.671875 C 14.9375 18.609375 15 17.542969 15 14.292969 C 15 11.925781 14.96875 9.503906 15 9.464844 C 15.261719 9.050781 19.375 8.878906 20.796875 9.199219 C 21.089844 9.265625 21.574219 9.4375 21.878906 9.582031 C 22.675781 9.964844 23.175781 10.667969 23.722656 11.699219 C 23.753906 11.753906 23.824219 11.800781 23.878906 11.800781 C 23.957031 11.800781 23.980469 11.625 23.996094 9.371094 C 24.003906 7.886719 23.996094 6.144531 23.972656 6.058594 C 23.972656 6.058594 23.203125 7.078125 23.097656 7.28125 L 22.878906 7.464844 L 21.542969 7.441406 C 20.808594 7.425781 17.582031 7.441406 14.933594 7.4375 C 12.28125 7.4375 9.15625 7.480469 9.089844 7.503906 C 8.855469 7.59375 9.089844 7.746094 9.6875 8.066406 C 10.71875 8.628906 11.6875 9.078125 11.9375 10.015625 C 12.082031 10.5625 12.078125 18.324219 11.933594 18.949219 C 11.785156 19.546875 11.308594 19.988281 10.855469 20.472656 C 10.644531 20.699219 10.46875 20.910156 10.46875 20.949219 C 10.46875 20.984375 10.644531 21.183594 10.859375 21.390625 C 11.285156 21.808594 11.847656 22.3125 11.953125 22.734375 C 12.058594 23.140625 12.136719 34.917969 12.042969 35.566406 C 11.949219 36.214844 11.53125 36.488281 10.996094 37.0625 C 10.488281 37.59375 10.488281 37.59375 11.261719 37.878906 C 11.886719 38.121094 13.0625 38.65625 13.300781 39.011719 C 13.550781 39.386719 13.875 40.078125 14.140625 41.042969 C 14.261719 41.480469 14.375 41.859375 14.390625 41.890625 C 14.441406 41.972656 14.535156 41.949219 14.578125 41.832031 Z M 14.578125 41.832031 "/>
<path style=" stroke:none;fill-rule:nonzero;fill:rgb(98.431373%,71.372549%,29.019608%);fill-opacity:1;" d="M 27.078125 8.9375 C 27.003906 8.984375 26.988281 9.589844 27.003906 11.53125 C 27.027344 14.355469 26.933594 13.441406 27.511719 12.703125 C 28.316406 11.671875 29.394531 11.941406 29.847656 11.890625 C 31.003906 11.863281 31.285156 11.878906 31.394531 11.984375 C 31.511719 12.097656 31.613281 13.394531 31.519531 15.984375 L 31.519531 19.46875 C 31.519531 19.46875 30.71875 20.097656 30.285156 20.53125 C 30.136719 20.691406 30.015625 20.871094 30.015625 20.921875 C 30.015625 20.96875 30.121094 21.136719 30.25 21.28125 C 30.582031 21.871094 31.484375 22.375 31.484375 22.375 L 31.503906 28.378906 C 31.527344 34.941406 31.519531 34.542969 31.371094 34.671875 C 31.371094 34.671875 30.292969 35.796875 30 35.9375 C 31.542969 36.449219 32.15625 36.855469 32.808594 38.265625 C 32.910156 38.609375 32.9375 38.9375 33 38.9375 C 33.058594 38.9375 33.089844 38.609375 33.191406 38.265625 C 33.84375 36.855469 34.457031 36.449219 36 35.9375 C 35.707031 35.796875 34.628906 34.671875 34.628906 34.671875 C 34.480469 34.542969 34.472656 34.941406 34.496094 28.378906 L 34.515625 22.375 C 34.515625 22.375 35.417969 21.871094 35.75 21.28125 C 35.878906 21.136719 35.984375 20.96875 35.984375 20.921875 C 35.984375 20.871094 35.863281 20.691406 35.714844 20.53125 C 35.28125 20.097656 34.480469 19.46875 34.480469 19.46875 L 34.480469 15.984375 C 34.386719 13.394531 34.488281 12.097656 34.605469 11.984375 C 34.714844 11.878906 34.996094 11.863281 36.152344 11.890625 C 36.605469 11.941406 37.683594 11.671875 38.488281 12.703125 C 39.066406 13.441406 38.972656 14.355469 38.996094 11.53125 C 39.011719 9.589844 38.996094 8.984375 38.921875 8.9375 C 38.652344 9.355469 38.0625 10.417969 38.0625 10.417969 C 37.949219 10.472656 35.871094 10.4375 33 10.4375 C 30.128906 10.4375 28.050781 10.472656 27.9375 10.417969 C 27.9375 10.417969 27.347656 9.355469 27.078125 8.9375 Z M 27.078125 8.9375 "/>
</g>
</svg>
