<?xml version="1.0" encoding="UTF-8"?>
<svg xmlns="http://www.w3.org/2000/svg" xmlns:xlink="http://www.w3.org/1999/xlink" width="48pt" height="48pt" viewBox="0 0 48 48" version="1.1">
<g id="surface1">
<path style=" stroke:none;fill-rule:evenodd;fill:rgb(30.980392%,30.980392%,30.980392%);fill-opacity:1;" d="M 11.207031 2.847656 L 36.792969 2.847656 C 41.40625 2.847656 45.152344 6.59375 45.152344 11.207031 L 45.152344 36.792969 C 45.152344 41.40625 41.40625 45.152344 36.792969 45.152344 L 11.207031 45.152344 C 6.59375 45.152344 2.847656 41.40625 2.847656 36.792969 L 2.847656 11.207031 C 2.847656 6.59375 6.59375 2.847656 11.207031 2.847656 Z M 11.207031 2.847656 "/>
<path style=" stroke:none;fill-rule:evenodd;fill:rgb(100%,38.823529%,38.823529%);fill-opacity:1;" d="M 37.808594 45.121094 C 46.324219 30.121094 35.808594 21.480469 25.40625 19.238281 C 36.410156 26.378906 26.660156 40.425781 12.621094 45.140625 C 18.683594 45.113281 31.746094 45.191406 37.808594 45.121094 Z M 37.808594 45.121094 "/>
<path style=" stroke:none;fill-rule:evenodd;fill:rgb(100%,38.823529%,38.823529%);fill-opacity:1;" d="M 12.300781 2.878906 C -0.144531 17.253906 12.207031 26.519531 22.609375 28.761719 C 11.597656 21.625 20.558594 8.292969 29.796875 2.859375 C 23.734375 2.886719 18.371094 2.808594 12.300781 2.878906 Z M 12.300781 2.878906 "/>
<path style=" stroke:none;fill-rule:nonzero;fill:rgb(100%,38.823529%,38.823529%);fill-opacity:1;" d="M 27.597656 27.621094 C 26.390625 28.824219 23.792969 28.183594 21.796875 26.183594 C 19.796875 24.1875 19.15625 21.589844 20.359375 20.378906 C 21.566406 19.175781 24.160156 19.816406 26.160156 21.816406 C 28.160156 23.8125 28.800781 26.410156 27.597656 27.621094 Z M 27.597656 27.621094 "/>
</g>
</svg>
