<?xml version="1.0" encoding="UTF-8"?>
<svg xmlns="http://www.w3.org/2000/svg" xmlns:xlink="http://www.w3.org/1999/xlink" width="48pt" height="48pt" viewBox="0 0 48 48" version="1.1">
<g id="surface1">
<path style=" stroke:none;fill-rule:evenodd;fill:rgb(48.235294%,75.686275%,21.176471%);fill-opacity:1;" d="M 11.207031 2.847656 L 36.792969 2.847656 C 41.40625 2.847656 45.152344 6.59375 45.152344 11.207031 L 45.152344 36.792969 C 45.152344 41.40625 41.40625 45.152344 36.792969 45.152344 L 11.207031 45.152344 C 6.59375 45.152344 2.847656 41.40625 2.847656 36.792969 L 2.847656 11.207031 C 2.847656 6.59375 6.59375 2.847656 11.207031 2.847656 Z M 11.207031 2.847656 "/>
<path style=" stroke:none;fill-rule:nonzero;fill:rgb(100%,100%,100%);fill-opacity:1;" d="M 24 19.484375 C 15.277344 19.484375 8.203125 24.730469 8.203125 30.769531 L 14.972656 30.769531 L 14.972656 38.234375 C 14.972656 38.234375 15.082031 39.796875 16.667969 39.796875 L 31.332031 39.796875 C 32.917969 39.796875 33.027344 38.234375 33.027344 38.234375 L 33.027344 30.769531 L 39.796875 30.769531 C 39.796875 24.730469 32.722656 19.484375 24 19.484375 Z M 24 19.484375 "/>
<path style=" stroke:none;fill-rule:nonzero;fill:rgb(29.803922%,29.803922%,29.803922%);fill-opacity:1;" d="M 19.484375 19.484375 L 28.515625 19.484375 L 27.386719 24 L 20.613281 24 Z M 19.484375 19.484375 "/>
<path style=" stroke:none;fill-rule:nonzero;fill:rgb(99.607843%,80.392157%,21.960784%);fill-opacity:1;" d="M 30.769531 14.972656 C 30.769531 18.714844 27.738281 21.746094 24 21.746094 C 20.261719 21.746094 17.230469 18.714844 17.230469 14.972656 C 17.230469 11.234375 20.261719 8.203125 24 8.203125 C 27.738281 8.203125 30.769531 11.234375 30.769531 14.972656 Z M 30.769531 14.972656 "/>
</g>
</svg>
