<?xml version="1.0" encoding="UTF-8"?>
<svg xmlns="http://www.w3.org/2000/svg" xmlns:xlink="http://www.w3.org/1999/xlink" width="48pt" height="48pt" viewBox="0 0 48 48" version="1.1">
<g id="surface1">
<path style=" stroke:none;fill-rule:evenodd;fill:rgb(20%,59.607843%,76.470588%);fill-opacity:1;" d="M 11.207031 2.847656 L 36.792969 2.847656 C 41.40625 2.847656 45.152344 6.59375 45.152344 11.207031 L 45.152344 36.792969 C 45.152344 41.40625 41.40625 45.152344 36.792969 45.152344 L 11.207031 45.152344 C 6.59375 45.152344 2.847656 41.40625 2.847656 36.792969 L 2.847656 11.207031 C 2.847656 6.59375 6.59375 2.847656 11.207031 2.847656 Z M 11.207031 2.847656 "/>
<path style=" stroke:none;fill-rule:evenodd;fill:rgb(64.705882%,80%,87.45098%);fill-opacity:1;" d="M 30.828125 10.863281 C 27.980469 11.675781 26.199219 16.605469 26.5 16.484375 L 26.546875 17.625 C 26.988281 17.652344 27.394531 17.707031 27.703125 17.8125 C 28.800781 18.1875 30.191406 17.511719 31.09375 16.933594 C 31.113281 16.707031 31.125 16.488281 31.125 16.277344 C 31.609375 15.863281 32.140625 15.34375 32.292969 14.921875 C 32.582031 14.09375 32.84375 12.453125 32.378906 11.800781 C 32.140625 11.472656 31.800781 12.855469 31.796875 12.96875 C 31.777344 13.175781 31.277344 12.753906 31.121094 12.890625 C 30.832031 13.140625 31.109375 13.699219 30.996094 13.6875 C 30.84375 13.667969 30.796875 13.402344 30.644531 13.425781 C 30.253906 13.753906 30.03125 14.15625 29.859375 14.546875 C 29.75 14.515625 29.640625 14.484375 29.542969 14.4375 C 29.390625 14.375 29.40625 13.984375 29.457031 13.828125 C 29.527344 13.636719 29.863281 13.769531 29.957031 13.589844 C 30.058594 13.386719 29.863281 13.042969 30.003906 12.871094 C 30.089844 12.769531 30.238281 12.90625 30.324219 12.808594 C 30.578125 12.480469 31 10.8125 30.828125 10.863281 Z M 30.828125 10.863281 "/>
<path style=" stroke:none;fill-rule:evenodd;fill:rgb(100%,100%,100%);fill-opacity:1;" d="M 35.140625 14.371094 C 34.859375 15.359375 34.5 16.011719 34.082031 16.421875 C 34.140625 16.171875 34.140625 15.894531 34.0625 15.589844 L 32.84375 16.90625 C 32.921875 16.683594 32.96875 16.441406 32.917969 16.167969 L 31.746094 17.167969 C 31.9375 16.921875 32.035156 16.628906 32.011719 16.25 C 32.027344 16.28125 29.480469 18.421875 27.703125 17.816406 C 26.222656 17.3125 22.707031 17.675781 21.152344 19.558594 C 16.421875 20.03125 12.394531 24.378906 12.765625 27.714844 C 13.144531 31.1875 16.542969 33.316406 17.359375 33.527344 C 17.550781 33.589844 17.734375 33.613281 17.902344 33.625 C 18.105469 34.984375 18.988281 36.449219 20.078125 37.03125 C 21.027344 37.542969 23.527344 36.042969 23.527344 36.042969 C 21.886719 35.074219 20.847656 34.125 20.078125 33.15625 C 21.296875 33.078125 23.042969 33.519531 24.671875 33.859375 C 24.886719 33.84375 24.65625 31.558594 22.582031 30.925781 C 21.511719 30.605469 19.488281 30.425781 18.472656 31.421875 C 18.105469 30.550781 17.796875 29.0625 18.550781 28.082031 C 19.332031 27.0625 21.859375 26.308594 22.996094 26.207031 C 23.097656 26.253906 23.203125 26.3125 23.3125 26.355469 C 27.0625 27.5625 36.417969 20.402344 35.140625 14.371094 Z M 35.140625 14.371094 "/>
<path style="fill-rule:evenodd;fill:rgb(20%,59.607843%,76.470588%);fill-opacity:1;stroke-width:0.123;stroke-linecap:butt;stroke-linejoin:miter;stroke:rgb(0%,0%,0%);stroke-opacity:1;stroke-miterlimit:4;" d="M -43.662736 17.050799 C -43.678361 17.079444 -44.100236 16.842465 -44.253882 16.787778 C -44.423153 16.727882 -44.660132 17.165382 -44.553361 17.316424 C -44.399716 17.524757 -43.917945 17.57684 -43.943986 17.597674 Z M -43.662736 17.050799 " transform="matrix(1.5,0,0,1.5,89.787073,1.443333)"/>
<path style=" stroke:none;fill-rule:evenodd;fill:rgb(64.705882%,80%,87.45098%);fill-opacity:1;" d="M 24.714844 24 C 24.433594 24.003906 24.097656 24.089844 23.746094 24.292969 C 23.21875 24.589844 22.410156 26.699219 22.140625 27.40625 C 21.042969 28.371094 20.953125 30.59375 21.5625 31.691406 C 23.9375 35.980469 30.449219 38.527344 32.277344 36.332031 C 31.886719 35.730469 31.207031 35.640625 30.324219 35.019531 C 30.136719 35.058594 29.96875 35.128906 29.847656 35.269531 L 29.371094 34.449219 C 29.1875 34.480469 29.03125 34.207031 28.847656 34.527344 C 28.511719 34.277344 28.527344 34.183594 28.59375 33.984375 C 28.652344 33.832031 28.722656 33.71875 28.796875 33.605469 C 29.3125 33.777344 29.863281 33.96875 30.222656 34.113281 C 30.433594 34.199219 30.265625 33.511719 30.484375 33.496094 C 30.792969 33.46875 30.859375 34.269531 31.167969 34.285156 C 31.433594 34.308594 31.546875 33.503906 31.777344 33.636719 C 32.128906 33.832031 33.46875 34.984375 33.378906 34.402344 C 33.175781 33.125 31.589844 31.707031 30.636719 31.15625 C 30.152344 30.878906 29.230469 30.75 28.488281 30.683594 C 27.652344 29.496094 26.277344 28.089844 25.191406 27.488281 C 25.136719 27.457031 25.078125 27.425781 25.019531 27.402344 C 25.324219 26.527344 25.828125 25.152344 25.441406 24.347656 C 25.339844 24.128906 25.066406 23.996094 24.714844 24 Z M 24.714844 24 "/>
<path style=" stroke:none;fill-rule:evenodd;fill:rgb(20%,59.607843%,76.470588%);fill-opacity:1;" d="M 27.753906 19.777344 C 27.753906 20.550781 27.125 21.183594 26.34375 21.183594 C 25.566406 21.183594 24.9375 20.550781 24.9375 19.777344 C 24.9375 19 25.566406 18.371094 26.34375 18.371094 C 27.125 18.371094 27.753906 19 27.753906 19.777344 Z M 27.753906 19.777344 "/>
</g>
</svg>
