<?xml version="1.0" encoding="UTF-8"?>
<svg xmlns="http://www.w3.org/2000/svg" xmlns:xlink="http://www.w3.org/1999/xlink" width="48pt" height="48pt" viewBox="0 0 48 48" version="1.1">
<g id="surface1">
<path style=" stroke:none;fill-rule:evenodd;fill:rgb(4.313725%,25.882353%,38.823529%);fill-opacity:1;" d="M 11.207031 2.847656 L 36.792969 2.847656 C 41.40625 2.847656 45.152344 6.59375 45.152344 11.207031 L 45.152344 36.792969 C 45.152344 41.40625 41.40625 45.152344 36.792969 45.152344 L 11.207031 45.152344 C 6.59375 45.152344 2.847656 41.40625 2.847656 36.792969 L 2.847656 11.207031 C 2.847656 6.59375 6.59375 2.847656 11.207031 2.847656 Z M 11.207031 2.847656 "/>
<path style=" stroke:none;fill-rule:nonzero;fill:rgb(100%,100%,100%);fill-opacity:1;" d="M 16.496094 38.332031 C 16.472656 37.675781 16.457031 36.027344 16.457031 34.667969 L 16.457031 32.1875 L 16.300781 32.1875 C 16.214844 32.1875 15.933594 32.136719 15.675781 32.074219 C 13.75 31.613281 12.21875 30.003906 11.855469 28.058594 C 11.777344 27.628906 11.765625 27.046875 11.78125 23.394531 C 11.800781 18.824219 11.78125 19.050781 12.144531 18.175781 C 12.671875 16.90625 13.753906 15.832031 15 15.347656 C 15.921875 14.988281 15.53125 15.003906 24.199219 15.027344 L 32.078125 15.042969 L 32.496094 15.167969 C 34.421875 15.765625 35.816406 17.316406 36.152344 19.238281 C 36.222656 19.675781 36.234375 20.339844 36.21875 23.839844 C 36.203125 27.847656 36.199219 27.933594 36.078125 28.375 C 35.800781 29.363281 35.140625 30.40625 34.402344 31.015625 C 33.75 31.550781 33.175781 31.84375 32.292969 32.089844 C 31.871094 32.207031 31.734375 32.207031 28.261719 32.230469 L 24.667969 32.25 L 23.457031 33.332031 C 22.792969 33.933594 21.046875 35.488281 19.589844 36.800781 C 18.125 38.109375 16.839844 39.261719 16.730469 39.355469 L 16.53125 39.53125 Z M 16.496094 38.332031 "/>
</g>
</svg>
