<?xml version="1.0" encoding="UTF-8"?>
<svg xmlns="http://www.w3.org/2000/svg" xmlns:xlink="http://www.w3.org/1999/xlink" width="48pt" height="48pt" viewBox="0 0 48 48" version="1.1">
<g id="surface1">
<path style=" stroke:none;fill-rule:evenodd;fill:rgb(58.431373%,58.431373%,58.431373%);fill-opacity:1;" d="M 11.207031 2.847656 L 36.792969 2.847656 C 41.40625 2.847656 45.152344 6.59375 45.152344 11.207031 L 45.152344 36.792969 C 45.152344 41.40625 41.40625 45.152344 36.792969 45.152344 L 11.207031 45.152344 C 6.59375 45.152344 2.847656 41.40625 2.847656 36.792969 L 2.847656 11.207031 C 2.847656 6.59375 6.59375 2.847656 11.207031 2.847656 Z M 11.207031 2.847656 "/>
<path style=" stroke:none;fill-rule:nonzero;fill:rgb(30.196078%,30.196078%,30.196078%);fill-opacity:1;" d="M 24 11.097656 C 19.488281 11.097656 15.636719 12.582031 14.035156 14.683594 C 13.90625 14.859375 13.785156 15.035156 13.683594 15.222656 C 13.589844 15.394531 13.503906 15.574219 13.441406 15.753906 C 13.421875 15.8125 13.410156 15.871094 13.394531 15.925781 C 13.359375 16.046875 13.316406 16.171875 13.296875 16.296875 C 13.265625 16.472656 13.246094 16.65625 13.246094 16.832031 C 13.246094 17.019531 13.265625 17.203125 13.300781 17.390625 C 13.332031 17.566406 13.378906 17.75 13.449219 17.925781 C 13.515625 18.109375 13.597656 18.285156 13.699219 18.464844 C 13.792969 18.640625 13.90625 18.8125 14.035156 18.984375 C 15.683594 21.152344 19.621094 22.566406 24 22.566406 C 28.378906 22.566406 32.316406 21.152344 33.964844 18.984375 C 33.964844 18.980469 33.964844 18.980469 33.964844 18.980469 C 34.074219 18.832031 34.171875 18.683594 34.253906 18.535156 C 34.269531 18.503906 34.292969 18.480469 34.3125 18.449219 C 34.375 18.324219 34.4375 18.199219 34.488281 18.066406 C 34.511719 18.003906 34.542969 17.949219 34.566406 17.890625 C 34.597656 17.78125 34.628906 17.675781 34.652344 17.566406 C 34.671875 17.484375 34.699219 17.402344 34.707031 17.316406 C 34.738281 17.15625 34.75 16.996094 34.753906 16.832031 C 34.753906 16.640625 34.734375 16.453125 34.699219 16.261719 C 34.597656 15.703125 34.34375 15.171875 33.964844 14.675781 C 32.371094 12.578125 28.515625 11.09375 24.003906 11.09375 Z M 14.035156 21.847656 C 13.515625 22.535156 13.25 23.265625 13.246094 24 C 13.246094 27.171875 18.0625 29.738281 24 29.738281 C 29.9375 29.738281 34.753906 27.167969 34.753906 24 C 34.75 23.265625 34.484375 22.53125 33.964844 21.847656 C 32.324219 24.015625 28.378906 25.433594 24 25.4375 C 19.621094 25.433594 15.675781 24.015625 14.035156 21.847656 Z M 14.035156 29.019531 C 13.515625 29.703125 13.25 30.433594 13.246094 31.171875 C 13.246094 34.339844 18.0625 36.90625 24 36.90625 C 29.9375 36.90625 34.753906 34.339844 34.753906 31.171875 C 34.75 30.433594 34.484375 29.703125 33.964844 29.019531 C 32.316406 31.1875 28.378906 32.605469 24 32.605469 C 19.621094 32.605469 15.675781 31.1875 14.035156 29.019531 Z M 14.035156 29.019531 "/>
</g>
</svg>
