<?xml version="1.0" encoding="UTF-8"?>
<svg xmlns="http://www.w3.org/2000/svg" xmlns:xlink="http://www.w3.org/1999/xlink" width="48pt" height="48pt" viewBox="0 0 48 48" version="1.1">
<g id="surface1">
<path style=" stroke:none;fill-rule:evenodd;fill:rgb(100%,85.490196%,0%);fill-opacity:1;" d="M 11.207031 2.847656 L 36.792969 2.847656 C 41.40625 2.847656 45.152344 6.59375 45.152344 11.207031 L 45.152344 36.792969 C 45.152344 41.40625 41.40625 45.152344 36.792969 45.152344 L 11.207031 45.152344 C 6.59375 45.152344 2.847656 41.40625 2.847656 36.792969 L 2.847656 11.207031 C 2.847656 6.59375 6.59375 2.847656 11.207031 2.847656 Z M 11.207031 2.847656 "/>
<path style=" stroke:none;fill-rule:evenodd;fill:rgb(100%,21.568627%,21.568627%);fill-opacity:1;" d="M 28.839844 18.410156 C 28.527344 18.410156 28.207031 18.425781 27.894531 18.457031 C 27.578125 18.488281 27.265625 18.535156 26.957031 18.597656 C 26.652344 18.660156 26.34375 18.738281 26.035156 18.832031 C 25.734375 18.925781 25.4375 19.035156 25.144531 19.15625 C 24.859375 19.28125 24.574219 19.417969 24.296875 19.574219 C 24.019531 19.722656 23.75 19.886719 23.488281 20.066406 C 23.230469 20.246094 22.972656 20.4375 22.734375 20.640625 C 22.496094 20.84375 22.261719 21.058594 22.042969 21.285156 C 21.816406 21.511719 21.613281 21.75 21.417969 21.996094 C 21.21875 22.246094 21.035156 22.5 20.863281 22.765625 C 20.691406 23.03125 20.535156 23.308594 20.394531 23.589844 C 20.25 23.871094 20.121094 24.160156 20.003906 24.453125 C 19.890625 24.75 19.792969 25.046875 19.707031 25.355469 C 19.625 25.65625 19.550781 25.96875 19.5 26.28125 C 19.449219 26.589844 19.40625 26.90625 19.386719 27.21875 C 19.371094 27.441406 19.363281 27.667969 19.363281 27.890625 C 19.363281 28.207031 19.378906 28.519531 19.410156 28.839844 C 19.441406 29.152344 19.488281 29.464844 19.550781 29.769531 C 19.613281 30.082031 19.691406 30.390625 19.785156 30.691406 C 19.878906 30.996094 19.984375 31.292969 20.109375 31.582031 C 20.234375 31.875 20.371094 32.15625 20.519531 32.433594 C 20.671875 32.714844 20.839844 32.984375 21.015625 33.246094 C 21.199219 33.503906 21.386719 33.753906 21.59375 33.996094 C 21.796875 34.238281 22.011719 34.46875 22.234375 34.691406 C 22.464844 34.910156 22.703125 35.121094 22.949219 35.3125 C 23.199219 35.511719 23.453125 35.691406 23.71875 35.863281 C 23.984375 36.035156 24.261719 36.191406 24.542969 36.339844 C 24.824219 36.480469 25.109375 36.609375 25.40625 36.722656 C 25.703125 36.839844 26 36.9375 26.308594 37.019531 C 26.609375 37.109375 26.917969 37.175781 27.230469 37.230469 C 27.542969 37.285156 27.855469 37.324219 28.167969 37.34375 C 28.390625 37.359375 28.613281 37.371094 28.839844 37.371094 C 29.15625 37.371094 29.472656 37.355469 29.785156 37.324219 C 30.097656 37.292969 30.410156 37.246094 30.722656 37.183594 C 31.035156 37.121094 31.339844 37.042969 31.644531 36.949219 C 31.941406 36.855469 32.238281 36.746094 32.53125 36.621094 C 32.824219 36.5 33.109375 36.359375 33.386719 36.207031 C 33.660156 36.058594 33.933594 35.890625 34.191406 35.714844 C 34.453125 35.535156 34.707031 35.34375 34.949219 35.140625 C 35.1875 34.9375 35.421875 34.71875 35.640625 34.496094 C 35.859375 34.265625 36.066406 34.03125 36.265625 33.78125 C 36.464844 33.535156 36.644531 33.277344 36.816406 33.011719 C 36.988281 32.746094 37.144531 32.46875 37.285156 32.1875 C 37.433594 31.90625 37.5625 31.621094 37.675781 31.324219 C 37.792969 31.03125 37.890625 30.730469 37.972656 30.425781 C 38.058594 30.121094 38.128906 29.8125 38.183594 29.5 C 38.234375 29.1875 38.277344 28.875 38.296875 28.558594 C 38.3125 28.339844 38.324219 28.113281 38.316406 27.890625 C 38.324219 27.574219 38.308594 27.253906 38.269531 26.941406 C 38.238281 26.628906 38.191406 26.316406 38.128906 26.003906 C 38.066406 25.699219 37.988281 25.390625 37.894531 25.089844 C 37.800781 24.785156 37.699219 24.488281 37.574219 24.199219 C 37.449219 23.90625 37.3125 23.621094 37.160156 23.34375 C 37.011719 23.066406 36.84375 22.796875 36.667969 22.535156 C 36.484375 22.277344 36.296875 22.027344 36.089844 21.78125 C 35.886719 21.542969 35.671875 21.308594 35.449219 21.089844 C 35.21875 20.871094 34.984375 20.660156 34.734375 20.464844 C 34.484375 20.265625 34.230469 20.082031 33.964844 19.910156 C 33.699219 19.746094 33.421875 19.582031 33.140625 19.441406 C 32.859375 19.296875 32.574219 19.167969 32.277344 19.050781 C 31.980469 18.941406 31.683594 18.839844 31.375 18.753906 C 31.074219 18.671875 30.765625 18.605469 30.453125 18.546875 C 30.140625 18.496094 29.828125 18.457031 29.511719 18.433594 C 29.285156 18.417969 29.0625 18.410156 28.839844 18.410156 Z M 28.839844 18.410156 "/>
<path style=" stroke:none;fill-rule:evenodd;fill:rgb(78.039216%,15.686275%,15.686275%);fill-opacity:1;" d="M 3.125 23.425781 C 3.121094 23.558594 3.113281 23.691406 3.109375 23.828125 C 3.109375 24.140625 3.125 24.457031 3.15625 24.777344 C 3.1875 25.089844 3.234375 25.402344 3.296875 25.707031 C 3.359375 26.019531 3.4375 26.328125 3.53125 26.628906 C 3.625 26.933594 3.734375 27.230469 3.859375 27.519531 C 3.980469 27.808594 4.121094 28.09375 4.269531 28.371094 C 4.421875 28.652344 4.589844 28.917969 4.765625 29.175781 C 4.941406 29.4375 5.136719 29.691406 5.339844 29.933594 C 5.542969 30.175781 5.761719 30.40625 5.984375 30.625 C 6.214844 30.847656 6.449219 31.058594 6.699219 31.25 C 6.941406 31.449219 7.203125 31.636719 7.46875 31.800781 C 7.734375 31.972656 8.011719 32.128906 8.292969 32.269531 C 8.574219 32.417969 8.859375 32.546875 9.15625 32.660156 C 9.449219 32.777344 9.75 32.875 10.050781 32.964844 C 10.359375 33.046875 10.667969 33.113281 10.980469 33.167969 C 11.292969 33.21875 11.605469 33.261719 11.921875 33.28125 C 12.144531 33.296875 12.371094 33.308594 12.59375 33.308594 C 12.90625 33.308594 13.222656 33.292969 13.535156 33.261719 C 13.855469 33.222656 14.160156 33.175781 14.472656 33.121094 C 14.78125 33.050781 15.089844 32.972656 15.390625 32.886719 C 15.691406 32.792969 15.988281 32.683594 16.28125 32.558594 C 16.574219 32.433594 16.859375 32.296875 17.136719 32.144531 C 17.410156 31.996094 17.683594 31.828125 17.941406 31.652344 C 18.203125 31.472656 18.453125 31.28125 18.699219 31.078125 C 18.9375 30.875 19.171875 30.65625 19.390625 30.433594 C 19.480469 30.339844 19.5625 30.238281 19.644531 30.144531 C 19.609375 30.019531 19.578125 29.894531 19.550781 29.769531 C 19.488281 29.464844 19.441406 29.152344 19.410156 28.839844 C 19.378906 28.519531 19.363281 28.207031 19.363281 27.890625 C 19.363281 27.667969 19.371094 27.441406 19.386719 27.21875 C 19.40625 26.90625 19.449219 26.589844 19.5 26.28125 C 19.550781 25.96875 19.625 25.65625 19.707031 25.355469 C 19.792969 25.046875 19.890625 24.75 20.003906 24.453125 C 20.121094 24.160156 20.25 23.871094 20.394531 23.589844 C 20.535156 23.308594 20.691406 23.03125 20.863281 22.765625 C 21.035156 22.5 21.21875 22.246094 21.417969 21.996094 C 21.535156 21.847656 21.660156 21.707031 21.785156 21.574219 C 21.746094 21.390625 21.699219 21.207031 21.644531 21.027344 C 21.550781 20.722656 21.449219 20.425781 21.324219 20.136719 C 21.199219 19.84375 21.0625 19.5625 20.910156 19.28125 C 20.753906 19.003906 20.59375 18.734375 20.410156 18.472656 C 20.234375 18.214844 20.042969 17.964844 19.839844 17.71875 C 19.636719 17.480469 19.421875 17.246094 19.191406 17.027344 C 18.96875 16.808594 18.730469 16.597656 18.484375 16.402344 C 18.234375 16.203125 17.980469 16.019531 17.714844 15.847656 C 17.449219 15.675781 17.171875 15.519531 16.890625 15.378906 C 16.609375 15.234375 16.316406 15.105469 16.027344 14.988281 C 15.730469 14.875 15.433594 14.777344 15.125 14.691406 C 14.824219 14.609375 14.511719 14.535156 14.199219 14.484375 C 13.957031 14.449219 13.714844 14.417969 13.46875 14.394531 C 13.03125 14.925781 12.746094 15.480469 12.25 15.996094 C 10.933594 17.359375 9.464844 18.644531 8.082031 19.765625 C 5.425781 21.925781 3.28125 23.324219 3.125 23.425781 Z M 3.125 23.425781 "/>
<path style=" stroke:none;fill-rule:evenodd;fill:rgb(100%,85.490196%,0%);fill-opacity:1;" d="M 29.765625 18.464844 C 29.996094 18.484375 30.222656 18.511719 30.453125 18.546875 C 30.765625 18.605469 31.074219 18.671875 31.375 18.753906 C 31.683594 18.839844 31.980469 18.941406 32.277344 19.058594 C 32.574219 19.167969 32.859375 19.296875 33.140625 19.441406 C 33.421875 19.582031 33.699219 19.746094 33.964844 19.910156 C 34.230469 20.082031 34.484375 20.265625 34.734375 20.464844 C 34.984375 20.660156 35.21875 20.871094 35.449219 21.089844 C 35.671875 21.308594 35.886719 21.542969 36.089844 21.78125 C 36.296875 22.027344 36.484375 22.277344 36.667969 22.535156 C 36.84375 22.796875 37.011719 23.066406 37.160156 23.34375 C 37.3125 23.621094 37.449219 23.90625 37.574219 24.199219 C 37.699219 24.488281 37.800781 24.785156 37.894531 25.089844 C 37.988281 25.390625 38.066406 25.699219 38.128906 26.003906 C 38.191406 26.316406 38.238281 26.628906 38.269531 26.941406 C 38.308594 27.253906 38.324219 27.574219 38.316406 27.890625 C 38.324219 28.113281 38.3125 28.339844 38.296875 28.558594 C 38.277344 28.875 38.234375 29.1875 38.183594 29.5 C 38.128906 29.8125 38.058594 30.121094 37.972656 30.425781 C 37.890625 30.730469 37.792969 31.03125 37.675781 31.324219 C 37.5625 31.621094 37.433594 31.90625 37.285156 32.1875 C 37.144531 32.46875 36.988281 32.746094 36.816406 33.011719 C 36.644531 33.277344 36.464844 33.535156 36.265625 33.78125 C 36.066406 34.03125 35.859375 34.265625 35.640625 34.496094 C 35.421875 34.71875 35.1875 34.9375 34.949219 35.140625 C 34.707031 35.34375 34.453125 35.535156 34.191406 35.714844 C 33.933594 35.890625 33.660156 36.058594 33.386719 36.207031 C 33.109375 36.359375 32.824219 36.5 32.53125 36.621094 C 32.238281 36.746094 31.941406 36.855469 31.644531 36.949219 C 31.339844 37.042969 31.035156 37.121094 30.722656 37.183594 C 30.410156 37.246094 30.097656 37.292969 29.785156 37.324219 C 29.472656 37.355469 29.15625 37.371094 28.839844 37.371094 C 28.613281 37.371094 28.390625 37.359375 28.167969 37.34375 C 27.855469 37.324219 27.542969 37.285156 27.230469 37.230469 C 26.917969 37.175781 26.609375 37.109375 26.308594 37.019531 C 26 36.9375 25.703125 36.839844 25.40625 36.722656 C 25.109375 36.609375 24.824219 36.480469 24.542969 36.339844 C 24.261719 36.191406 23.984375 36.035156 23.71875 35.863281 C 23.453125 35.691406 23.199219 35.511719 22.949219 35.3125 C 22.703125 35.121094 22.464844 34.910156 22.234375 34.691406 C 22.011719 34.46875 21.796875 34.238281 21.59375 33.996094 C 21.386719 33.753906 21.199219 33.503906 21.015625 33.246094 C 20.839844 32.984375 20.671875 32.714844 20.519531 32.433594 C 20.371094 32.15625 20.234375 31.875 20.109375 31.582031 C 19.984375 31.292969 19.878906 30.996094 19.785156 30.691406 C 19.734375 30.511719 19.6875 30.328125 19.644531 30.144531 C 19.5625 30.238281 19.480469 30.339844 19.390625 30.433594 C 19.171875 30.65625 18.9375 30.875 18.699219 31.078125 C 18.453125 31.28125 18.203125 31.472656 17.941406 31.652344 C 17.683594 31.828125 17.410156 31.996094 17.136719 32.144531 C 16.859375 32.296875 16.574219 32.433594 16.28125 32.558594 C 15.988281 32.683594 15.691406 32.792969 15.390625 32.886719 C 15.089844 32.972656 14.78125 33.050781 14.472656 33.121094 C 14.160156 33.175781 13.855469 33.222656 13.535156 33.261719 C 13.222656 33.292969 12.90625 33.308594 12.59375 33.308594 C 12.371094 33.308594 12.144531 33.296875 11.921875 33.28125 C 11.605469 33.261719 11.292969 33.21875 10.980469 33.167969 C 10.667969 33.113281 10.359375 33.046875 10.050781 32.964844 C 9.75 32.875 9.449219 32.777344 9.15625 32.660156 C 8.859375 32.546875 8.574219 32.417969 8.292969 32.277344 C 8.011719 32.128906 7.734375 31.972656 7.46875 31.808594 C 7.203125 31.636719 6.941406 31.449219 6.699219 31.25 C 6.449219 31.058594 6.214844 30.847656 5.984375 30.625 C 5.761719 30.40625 5.542969 30.175781 5.339844 29.933594 C 5.136719 29.691406 4.949219 29.4375 4.765625 29.183594 C 4.589844 28.917969 4.421875 28.652344 4.269531 28.371094 C 4.121094 28.09375 3.984375 27.808594 3.859375 27.519531 C 3.734375 27.230469 3.625 26.933594 3.53125 26.628906 C 3.4375 26.328125 3.359375 26.019531 3.296875 25.714844 C 3.234375 25.402344 3.1875 25.089844 3.15625 24.777344 C 3.125 24.457031 3.109375 24.140625 3.109375 23.828125 C 3.113281 23.691406 3.121094 23.558594 3.125 23.425781 C 3.121094 23.425781 2.949219 23.558594 2.949219 23.558594 L 2.847656 23.621094 L 2.847656 36.785156 C 2.847656 41.421875 6.578125 45.152344 11.207031 45.152344 L 36.785156 45.152344 C 41.421875 45.152344 45.152344 41.421875 45.152344 36.785156 L 45.152344 11.207031 C 45.152344 6.578125 41.421875 2.847656 36.785156 2.847656 L 20.488281 2.847656 C 20.503906 2.859375 20.5 2.859375 20.519531 2.871094 C 21.769531 3.828125 23.109375 4.890625 24.324219 6.058594 C 25.542969 7.21875 26.640625 8.484375 27.410156 9.855469 C 28.21875 11.269531 28.765625 12.9375 29.160156 14.65625 C 29.449219 15.933594 29.597656 17.207031 29.765625 18.464844 Z M 29.765625 18.464844 "/>
<path style=" stroke:none;fill-rule:evenodd;fill:rgb(100%,85.490196%,0%);fill-opacity:1;" d="M 18.855469 16.730469 C 18.96875 16.824219 19.082031 16.925781 19.191406 17.027344 C 19.421875 17.246094 19.636719 17.480469 19.839844 17.71875 C 20.042969 17.964844 20.234375 18.214844 20.417969 18.472656 C 20.59375 18.734375 20.753906 19.003906 20.910156 19.28125 C 21.0625 19.5625 21.199219 19.84375 21.324219 20.136719 C 21.449219 20.425781 21.550781 20.722656 21.644531 21.027344 C 21.699219 21.207031 21.746094 21.390625 21.785156 21.574219 C 21.871094 21.472656 21.953125 21.378906 22.042969 21.285156 C 22.261719 21.058594 22.496094 20.84375 22.734375 20.640625 C 22.972656 20.4375 23.230469 20.246094 23.488281 20.066406 C 23.75 19.886719 24.019531 19.722656 24.296875 19.566406 C 24.574219 19.417969 24.859375 19.28125 25.144531 19.15625 C 25.171875 19.144531 25.199219 19.140625 25.222656 19.128906 C 24.824219 16.417969 24.25 13.394531 23.5 12.066406 C 22.824219 10.878906 20.71875 9.03125 18.777344 7.421875 C 18.957031 8.144531 19.171875 8.84375 19.308594 9.59375 C 19.566406 11.035156 19.699219 12.5 19.574219 13.878906 C 19.480469 14.84375 19.171875 15.792969 18.855469 16.730469 Z M 18.855469 16.730469 "/>
<path style=" stroke:none;fill-rule:evenodd;fill:rgb(100%,85.490196%,0%);fill-opacity:1;" d="M 14.925781 12.488281 C 14.472656 13.128906 13.996094 13.761719 13.46875 14.394531 C 13.714844 14.417969 13.957031 14.449219 14.199219 14.484375 C 14.359375 14.515625 14.515625 14.550781 14.675781 14.589844 C 14.761719 14.265625 15.066406 13.683594 15.089844 13.464844 C 15.109375 13.265625 14.9375 12.75 14.925781 12.488281 Z M 14.925781 12.488281 "/>
<path style=" stroke:none;fill-rule:evenodd;fill:rgb(12.156863%,44.313725%,12.156863%);fill-opacity:1;" d="M 14.925781 12.488281 C 14.9375 12.75 15.109375 13.265625 15.089844 13.464844 C 15.066406 13.683594 14.761719 14.265625 14.675781 14.589844 C 14.828125 14.621094 14.972656 14.65625 15.125 14.691406 C 15.433594 14.777344 15.730469 14.875 16.027344 14.988281 C 16.316406 15.105469 16.609375 15.234375 16.890625 15.378906 C 17.171875 15.519531 17.449219 15.675781 17.714844 15.847656 C 17.980469 16.019531 18.234375 16.203125 18.484375 16.402344 C 18.609375 16.503906 18.734375 16.613281 18.855469 16.730469 C 19.171875 15.792969 19.480469 14.84375 19.574219 13.878906 C 19.699219 12.5 19.566406 11.035156 19.308594 9.59375 C 19.171875 8.84375 18.957031 8.144531 18.777344 7.421875 C 18.371094 7.082031 18.1875 6.75 17.78125 6.441406 C 17.058594 5.886719 17.035156 5.921875 16.421875 5.488281 C 16.503906 6.15625 16.675781 6.761719 16.640625 7.484375 C 16.574219 8.875 16.246094 10.34375 15.484375 11.769531 C 15.355469 12.011719 15.105469 12.25 14.925781 12.496094 Z M 14.925781 12.488281 "/>
<path style=" stroke:none;fill-rule:evenodd;fill:rgb(14.117647%,51.764706%,14.117647%);fill-opacity:1;" d="M 16.421875 5.488281 C 17.035156 5.921875 17.058594 5.886719 17.78125 6.441406 C 20.105469 8.21875 22.683594 10.628906 23.5 12.074219 C 24.25 13.394531 24.824219 16.417969 25.222656 19.128906 C 25.488281 19.019531 25.761719 18.917969 26.035156 18.832031 C 26.34375 18.738281 26.652344 18.660156 26.957031 18.597656 C 27.265625 18.535156 27.578125 18.488281 27.894531 18.457031 C 28.207031 18.425781 28.527344 18.410156 28.839844 18.410156 C 29.0625 18.410156 29.285156 18.417969 29.511719 18.433594 C 29.59375 18.441406 29.683594 18.453125 29.765625 18.464844 C 29.597656 17.207031 29.449219 15.933594 29.160156 14.65625 C 28.765625 12.9375 28.21875 11.269531 27.410156 9.855469 C 26.640625 8.484375 25.542969 7.21875 24.324219 6.058594 C 23.109375 4.890625 21.769531 3.828125 20.519531 2.871094 C 20.5 2.859375 20.503906 2.859375 20.488281 2.847656 L 15.90625 2.847656 C 16.042969 3.238281 16.097656 3.160156 16.214844 3.621094 C 16.359375 4.171875 16.34375 4.859375 16.421875 5.488281 Z M 16.421875 5.488281 "/>
<path style=" stroke:none;fill-rule:evenodd;fill:rgb(19.607843%,71.372549%,19.607843%);fill-opacity:1;" d="M 2.847656 23.621094 L 2.949219 23.558594 C 2.949219 23.558594 5.332031 22.003906 8.089844 19.765625 C 9.464844 18.644531 10.933594 17.359375 12.25 15.996094 C 13.5625 14.628906 14.722656 13.1875 15.484375 11.769531 C 16.246094 10.34375 16.574219 8.875 16.640625 7.484375 C 16.707031 6.089844 16.511719 4.765625 16.214844 3.621094 C 16.097656 3.160156 16.042969 3.238281 15.90625 2.847656 L 11.207031 2.847656 C 6.578125 2.847656 2.847656 6.578125 2.847656 11.207031 Z M 2.847656 23.621094 "/>
</g>
</svg>
