<?xml version="1.0" encoding="UTF-8"?>
<svg xmlns="http://www.w3.org/2000/svg" xmlns:xlink="http://www.w3.org/1999/xlink" width="48pt" height="48pt" viewBox="0 0 48 48" version="1.1">
<g id="surface1">
<path style=" stroke:none;fill-rule:evenodd;fill:rgb(90.196078%,90.196078%,90.196078%);fill-opacity:1;" d="M 11.207031 2.847656 L 36.792969 2.847656 C 41.40625 2.847656 45.152344 6.59375 45.152344 11.207031 L 45.152344 36.792969 C 45.152344 41.40625 41.40625 45.152344 36.792969 45.152344 L 11.207031 45.152344 C 6.59375 45.152344 2.847656 41.40625 2.847656 36.792969 L 2.847656 11.207031 C 2.847656 6.59375 6.59375 2.847656 11.207031 2.847656 Z M 11.207031 2.847656 "/>
<path style=" stroke:none;fill-rule:nonzero;fill:rgb(36.078431%,33.333333%,26.666667%);fill-opacity:1;" d="M 13.238281 13.105469 C 16.550781 22.4375 30.730469 20.597656 35.386719 11.4375 C 39.628906 35.957031 23.042969 37.621094 12.175781 29.941406 C 12.640625 24.714844 13.394531 20.558594 13.238281 13.105469 Z M 13.238281 13.105469 "/>
<path style=" stroke:none;fill-rule:evenodd;fill:rgb(53.333333%,54.117647%,52.156863%);fill-opacity:1;" d="M 19.972656 21.972656 C 19.972656 23.972656 18.355469 25.589844 16.359375 25.589844 C 14.359375 25.589844 12.746094 23.972656 12.746094 21.972656 C 12.746094 19.980469 14.359375 18.359375 16.359375 18.359375 C 18.355469 18.359375 19.972656 19.980469 19.972656 21.972656 Z M 19.972656 21.972656 "/>
<path style=" stroke:none;fill-rule:evenodd;fill:rgb(88.235294%,88.235294%,86.666667%);fill-opacity:1;" d="M 19.191406 21.953125 C 19.191406 23.53125 17.910156 24.8125 16.339844 24.8125 C 14.761719 24.8125 13.480469 23.53125 13.480469 21.953125 C 13.480469 20.375 14.761719 19.097656 16.339844 19.097656 C 17.910156 19.097656 19.191406 20.375 19.191406 21.953125 Z M 19.191406 21.953125 "/>
<path style=" stroke:none;fill-rule:evenodd;fill:rgb(0%,0%,0%);fill-opacity:1;" d="M 18.933594 22.605469 C 18.933594 23.65625 18.078125 24.511719 17.027344 24.511719 C 15.980469 24.511719 15.125 23.65625 15.125 22.605469 C 15.125 21.550781 15.980469 20.699219 17.027344 20.699219 C 18.078125 20.699219 18.933594 21.550781 18.933594 22.605469 Z M 18.933594 22.605469 "/>
<path style=" stroke:none;fill-rule:evenodd;fill:rgb(18.039216%,20.392157%,21.176471%);fill-opacity:1;" d="M 18.308594 22.59375 C 18.308594 23.300781 17.730469 23.878906 17.015625 23.878906 C 16.308594 23.878906 15.730469 23.300781 15.730469 22.59375 C 15.730469 21.878906 16.308594 21.300781 17.015625 21.300781 C 17.730469 21.300781 18.308594 21.878906 18.308594 22.59375 Z M 18.308594 22.59375 "/>
<path style=" stroke:none;fill-rule:evenodd;fill:rgb(100%,100%,100%);fill-opacity:1;" d="M 17.136719 21.824219 C 17.136719 22.328125 16.730469 22.734375 16.230469 22.734375 C 15.722656 22.734375 15.316406 22.328125 15.316406 21.824219 C 15.316406 21.324219 15.722656 20.917969 16.230469 20.917969 C 16.730469 20.917969 17.136719 21.324219 17.136719 21.824219 Z M 17.136719 21.824219 "/>
<path style=" stroke:none;fill-rule:evenodd;fill:rgb(53.333333%,54.117647%,52.156863%);fill-opacity:1;" d="M 27.421875 22.292969 C 27.421875 24.625 25.53125 26.515625 23.203125 26.515625 C 20.871094 26.515625 18.980469 24.625 18.980469 22.292969 C 18.980469 19.957031 20.871094 18.066406 23.203125 18.066406 C 25.53125 18.066406 27.421875 19.957031 27.421875 22.292969 Z M 27.421875 22.292969 "/>
<path style=" stroke:none;fill-rule:evenodd;fill:rgb(88.235294%,88.235294%,86.666667%);fill-opacity:1;" d="M 26.511719 22.265625 C 26.511719 24.109375 25.019531 25.605469 23.175781 25.605469 C 21.332031 25.605469 19.839844 24.109375 19.839844 22.265625 C 19.839844 20.421875 21.332031 18.925781 23.175781 18.925781 C 25.019531 18.925781 26.511719 20.421875 26.511719 22.265625 Z M 26.511719 22.265625 "/>
<path style=" stroke:none;fill-rule:evenodd;fill:rgb(0%,0%,0%);fill-opacity:1;" d="M 26.207031 23.027344 C 26.207031 24.253906 25.214844 25.25 23.984375 25.25 C 22.753906 25.25 21.761719 24.253906 21.761719 23.027344 C 21.761719 21.796875 22.753906 20.800781 23.984375 20.800781 C 25.214844 20.800781 26.207031 21.796875 26.207031 23.027344 Z M 26.207031 23.027344 "/>
<path style=" stroke:none;fill-rule:evenodd;fill:rgb(18.039216%,20.392157%,21.176471%);fill-opacity:1;" d="M 25.480469 23.011719 C 25.480469 23.84375 24.800781 24.515625 23.96875 24.515625 C 23.140625 24.515625 22.464844 23.84375 22.464844 23.011719 C 22.464844 22.183594 23.140625 21.503906 23.96875 21.503906 C 24.800781 21.503906 25.480469 22.183594 25.480469 23.011719 Z M 25.480469 23.011719 "/>
<path style=" stroke:none;fill-rule:evenodd;fill:rgb(100%,100%,100%);fill-opacity:1;" d="M 24.109375 22.113281 C 24.109375 22.703125 23.636719 23.175781 23.046875 23.175781 C 22.464844 23.175781 21.988281 22.703125 21.988281 22.113281 C 21.988281 21.527344 22.464844 21.050781 23.046875 21.050781 C 23.636719 21.050781 24.109375 21.527344 24.109375 22.113281 Z M 24.109375 22.113281 "/>
<path style=" stroke:none;fill-rule:evenodd;fill:rgb(16.470588%,18.823529%,19.607843%);fill-opacity:1;" d="M 13.042969 22.917969 C 11.300781 20.621094 8.589844 19.746094 6.984375 20.964844 C 5.378906 22.175781 5.488281 25.027344 7.230469 27.328125 C 8.972656 29.625 11.6875 30.5 13.292969 29.28125 C 14.894531 28.0625 14.785156 25.214844 13.042969 22.917969 Z M 13.042969 22.917969 "/>
<path style=" stroke:none;fill-rule:evenodd;fill:rgb(100%,100%,100%);fill-opacity:1;" d="M 9.78125 23.355469 C 9.78125 22.316406 9.140625 21.472656 8.347656 21.472656 C 7.558594 21.472656 6.917969 22.316406 6.917969 23.355469 C 6.917969 24.390625 7.558594 25.230469 8.347656 25.230469 C 9.140625 25.230469 9.78125 24.390625 9.78125 23.355469 Z M 9.78125 23.355469 "/>
<path style=" stroke:none;fill-rule:nonzero;fill:rgb(0.392157%,0.392157%,0%);fill-opacity:1;" d="M 19.144531 29.144531 C 22.171875 29.4375 25.230469 29.589844 27.53125 27.707031 C 27.246094 27.277344 26.828125 27 26.402344 26.667969 C 28.183594 27.050781 29.5625 28.035156 29.332031 29.777344 L 28.167969 29.066406 C 23.421875 31.21875 20.980469 29.53125 19.144531 29.144531 Z M 19.144531 29.144531 "/>
<path style=" stroke:none;fill-rule:nonzero;fill:rgb(40.392157%,22.352941%,2.745098%);fill-opacity:1;" d="M 25.597656 30.015625 C 28.050781 31.832031 30.574219 33.277344 33.265625 34.234375 L 34.277344 31.859375 C 31.957031 30.652344 29.59375 29.503906 26.996094 28.671875 C 25.996094 28.753906 25.699219 29.21875 25.597656 30.015625 Z M 25.597656 30.015625 "/>
<path style=" stroke:none;fill-rule:nonzero;fill:rgb(74.117647%,40.784314%,5.490196%);fill-opacity:1;" d="M 25.980469 29.1875 C 27.824219 30.855469 30.496094 32.230469 33.128906 33.621094 L 33.828125 32.152344 C 30.832031 30.761719 28.207031 29.765625 25.980469 29.1875 Z M 25.980469 29.1875 "/>
<path style=" stroke:none;fill-rule:nonzero;fill:rgb(53.333333%,54.117647%,52.156863%);fill-opacity:1;" d="M 32.949219 34.566406 C 32.722656 33.316406 33.175781 32.296875 34.378906 31.527344 L 34.613281 32.207031 L 37.578125 34.046875 L 36.613281 35.515625 L 33.484375 34.296875 Z M 32.949219 34.566406 "/>
<path style=" stroke:none;fill-rule:nonzero;fill:rgb(84.705882%,84.705882%,84.705882%);fill-opacity:1;" d="M 33.558594 33.636719 L 37.152344 35.140625 L 37.488281 34.261719 L 34.269531 32.53125 Z M 33.558594 33.636719 "/>
<path style=" stroke:none;fill-rule:nonzero;fill:rgb(14.117647%,14.117647%,14.117647%);fill-opacity:1;" d="M 36.707031 34.230469 C 36.503906 34.457031 36.386719 34.609375 36.324219 34.832031 C 35.53125 37.644531 38.480469 37.894531 41.511719 39.394531 C 41.3125 36.765625 39.035156 32.199219 36.707031 34.230469 Z M 36.707031 34.230469 "/>
<path style=" stroke:none;fill-rule:evenodd;fill:rgb(66.27451%,66.27451%,66.27451%);fill-opacity:1;" d="M 38.777344 34.917969 C 38.777344 35.394531 38.386719 35.785156 37.90625 35.785156 C 37.421875 35.785156 37.03125 35.394531 37.03125 34.917969 C 37.03125 34.433594 37.421875 34.042969 37.90625 34.042969 C 38.386719 34.042969 38.777344 34.433594 38.777344 34.917969 Z M 38.777344 34.917969 "/>
<path style=" stroke:none;fill-rule:nonzero;fill:rgb(41.176471%,41.176471%,41.176471%);fill-opacity:1;" d="M 40.09375 37.359375 C 39.769531 36.738281 39.453125 36.125 39.015625 35.816406 C 38.753906 35.511719 39.230469 35.285156 39.386719 35.515625 C 39.746094 35.984375 39.910156 36.683594 40.09375 37.359375 Z M 40.09375 37.359375 "/>
</g>
</svg>
