<?xml version="1.0" encoding="UTF-8"?>
<svg xmlns="http://www.w3.org/2000/svg" xmlns:xlink="http://www.w3.org/1999/xlink" width="48pt" height="48pt" viewBox="0 0 48 48" version="1.1">
<g id="surface1">
<path style=" stroke:none;fill-rule:evenodd;fill:rgb(49.411765%,6.27451%,5.490196%);fill-opacity:1;" d="M 11.207031 2.847656 L 36.792969 2.847656 C 41.40625 2.847656 45.152344 6.59375 45.152344 11.207031 L 45.152344 36.792969 C 45.152344 41.40625 41.40625 45.152344 36.792969 45.152344 L 11.207031 45.152344 C 6.59375 45.152344 2.847656 41.40625 2.847656 36.792969 L 2.847656 11.207031 C 2.847656 6.59375 6.59375 2.847656 11.207031 2.847656 Z M 11.207031 2.847656 "/>
<path style=" stroke:none;fill-rule:nonzero;fill:rgb(76.078431%,20.784314%,16.470588%);fill-opacity:1;" d="M 24.839844 39.917969 L 39.917969 24.839844 C 40.378906 24.375 40.378906 23.625 39.917969 23.160156 L 24.839844 8.082031 C 24.375 7.621094 23.625 7.621094 23.160156 8.082031 L 8.082031 23.160156 C 7.621094 23.625 7.621094 24.375 8.082031 24.839844 L 23.160156 39.917969 C 23.625 40.378906 24.375 40.378906 24.839844 39.917969 Z M 24.839844 39.917969 "/>
<path style="fill:none;stroke-width:1;stroke-linecap:butt;stroke-linejoin:miter;stroke:rgb(100%,100%,100%);stroke-opacity:1;stroke-miterlimit:4;" d="M -49.418259 3.394765 L -43.342738 9.467682 " transform="matrix(1.5,0,0,1.5,91.060983,9.357071)"/>
<path style="fill:none;stroke-width:1;stroke-linecap:butt;stroke-linejoin:miter;stroke:rgb(100%,100%,100%);stroke-opacity:1;stroke-miterlimit:4;" d="M -46.793259 5.605703 L -46.793259 12.261953 " transform="matrix(1.5,0,0,1.5,91.060983,9.357071)"/>
<path style=" stroke:none;fill-rule:nonzero;fill:rgb(100%,100%,100%);fill-opacity:1;" d="M 30.253906 24.621094 C 30.253906 26.347656 28.855469 27.75 27.125 27.75 C 25.394531 27.75 24 26.347656 24 24.621094 C 24 22.894531 25.394531 21.496094 27.125 21.496094 C 28.855469 21.496094 30.253906 22.894531 30.253906 24.621094 Z M 30.253906 24.621094 "/>
<path style=" stroke:none;fill-rule:nonzero;fill:rgb(100%,100%,100%);fill-opacity:1;" d="M 24 29.625 C 24 31.355469 22.597656 32.753906 20.871094 32.753906 C 19.140625 32.753906 17.738281 31.355469 17.738281 29.625 C 17.738281 27.902344 19.140625 26.5 20.871094 26.5 C 22.597656 26.5 24 27.902344 24 29.625 Z M 24 29.625 "/>
<path style=" stroke:none;fill-rule:nonzero;fill:rgb(100%,100%,100%);fill-opacity:1;" d="M 24 18.363281 C 24 20.09375 22.597656 21.496094 20.871094 21.496094 C 19.140625 21.496094 17.738281 20.09375 17.738281 18.363281 C 17.738281 16.640625 19.140625 15.238281 20.871094 15.238281 C 22.597656 15.238281 24 16.640625 24 18.363281 Z M 24 18.363281 "/>
</g>
</svg>
