<?xml version="1.0" encoding="UTF-8"?>
<svg xmlns="http://www.w3.org/2000/svg" xmlns:xlink="http://www.w3.org/1999/xlink" width="48pt" height="48pt" viewBox="0 0 48 48" version="1.1">
<g id="surface1">
<path style=" stroke:none;fill-rule:evenodd;fill:rgb(30.980392%,30.980392%,30.980392%);fill-opacity:1;" d="M 11.207031 2.847656 L 36.792969 2.847656 C 41.40625 2.847656 45.152344 6.59375 45.152344 11.207031 L 45.152344 36.792969 C 45.152344 41.40625 41.40625 45.152344 36.792969 45.152344 L 11.207031 45.152344 C 6.59375 45.152344 2.847656 41.40625 2.847656 36.792969 L 2.847656 11.207031 C 2.847656 6.59375 6.59375 2.847656 11.207031 2.847656 Z M 11.207031 2.847656 "/>
<path style=" stroke:none;fill-rule:nonzero;fill:rgb(24.705882%,69.803922%,67.058824%);fill-opacity:1;" d="M 15.71875 15.246094 C 13.121094 17.535156 11.480469 20.886719 11.480469 24.636719 C 11.480469 29.707031 14.46875 34.046875 18.78125 36.019531 L 18.78125 36.121094 L 18.984375 36.121094 C 19.589844 36.378906 20.21875 36.582031 20.871094 36.75 L 20.871094 38.875 C 14.175781 37.40625 9.40625 31.488281 9.390625 24.640625 C 9.390625 23.222656 9.597656 21.816406 10.003906 20.464844 L 7.847656 20.464844 C 7.488281 21.828125 7.308594 23.230469 7.300781 24.640625 C 7.308594 33.453125 14.160156 40.746094 22.957031 41.296875 L 22.957031 33.921875 C 23.316406 33.980469 23.671875 34.019531 24.019531 34.03125 C 24.386719 34.015625 24.714844 33.972656 25.042969 33.925781 L 25.042969 41.28125 C 33.832031 40.734375 40.6875 33.449219 40.699219 24.640625 C 40.6875 23.230469 40.503906 21.828125 40.144531 20.464844 L 37.988281 20.464844 C 38.394531 21.816406 38.605469 23.222656 38.609375 24.640625 C 38.597656 31.496094 33.828125 37.421875 27.128906 38.890625 L 27.128906 36.75 C 27.78125 36.582031 28.410156 36.378906 29.015625 36.121094 L 29.21875 36.121094 L 29.21875 36.019531 C 33.53125 34.046875 36.519531 29.707031 36.519531 24.640625 C 36.519531 20.886719 34.878906 17.535156 32.28125 15.246094 L 28.542969 15.246094 C 32.03125 16.933594 34.4375 20.488281 34.4375 24.640625 C 34.4375 28.515625 32.339844 31.875 29.21875 33.675781 L 29.21875 32.324219 C 29.9375 31.625 29.980469 30.574219 29.238281 29.78125 L 28.828125 29.339844 L 28.96875 28.527344 C 29.175781 27.316406 29.675781 26.410156 30.417969 25.894531 C 30.75 25.667969 31.089844 25.402344 31.167969 25.308594 C 31.34375 25.09375 31.355469 24.035156 31.183594 23.425781 C 30.714844 21.753906 28.253906 18.191406 26.4375 16.550781 C 25.40625 15.625 24.597656 15.203125 23.824219 15.25 C 23.355469 15.277344 22.894531 15.480469 22.40625 15.839844 C 21.75 16.316406 20.066406 18.082031 19.269531 19.125 C 17.574219 21.359375 16.691406 23.160156 16.691406 24.410156 C 16.691406 25.246094 16.769531 25.375 17.488281 25.855469 C 18.28125 26.378906 18.746094 27.15625 18.984375 28.375 L 19.175781 29.347656 L 18.875 29.621094 C 18.378906 30.066406 18.171875 30.566406 18.230469 31.175781 C 18.269531 31.59375 18.484375 32.011719 18.78125 32.324219 L 18.78125 33.675781 C 15.660156 31.875 13.5625 28.515625 13.5625 24.640625 C 13.5625 20.488281 15.96875 16.933594 19.457031 15.246094 Z M 20.871094 29.855469 C 21.449219 29.855469 21.910156 30.324219 21.910156 30.902344 C 21.910156 31.472656 21.449219 31.941406 20.871094 31.941406 C 20.292969 31.941406 19.828125 31.472656 19.828125 30.902344 C 19.828125 30.324219 20.292969 29.855469 20.871094 29.855469 Z M 27.128906 29.855469 C 27.707031 29.855469 28.171875 30.324219 28.171875 30.902344 C 28.171875 31.472656 27.707031 31.941406 27.128906 31.941406 C 26.550781 31.941406 26.089844 31.472656 26.089844 30.902344 C 26.089844 30.324219 26.550781 29.855469 27.128906 29.855469 Z M 27.128906 29.855469 "/>
</g>
</svg>
