<?xml version="1.0" encoding="UTF-8"?>
<svg xmlns="http://www.w3.org/2000/svg" xmlns:xlink="http://www.w3.org/1999/xlink" width="48pt" height="48pt" viewBox="0 0 48 48" version="1.1">
<g id="surface1">
<path style=" stroke:none;fill-rule:evenodd;fill:rgb(80%,80%,80%);fill-opacity:1;" d="M 11.207031 2.847656 L 36.792969 2.847656 C 41.40625 2.847656 45.152344 6.59375 45.152344 11.207031 L 45.152344 36.792969 C 45.152344 41.40625 41.40625 45.152344 36.792969 45.152344 L 11.207031 45.152344 C 6.59375 45.152344 2.847656 41.40625 2.847656 36.792969 L 2.847656 11.207031 C 2.847656 6.59375 6.59375 2.847656 11.207031 2.847656 Z M 11.207031 2.847656 "/>
<path style=" stroke:none;fill-rule:nonzero;fill:rgb(30.980392%,54.901961%,96.470588%);fill-opacity:1;" d="M 11.433594 13.234375 C 10.558594 13.234375 9.84375 13.855469 9.675781 14.65625 C 9.644531 14.894531 9.644531 15.078125 9.644531 15.078125 L 9.644531 32.972656 C 9.644531 33.957031 10.4375 34.777344 11.433594 34.765625 L 13.75 34.765625 L 13.75 15.078125 C 13.75 14.953125 13.734375 14.84375 13.714844 14.75 C 13.59375 14.234375 12.984375 13.660156 12.363281 13.234375 Z M 11.433594 13.234375 "/>
<path style=" stroke:none;fill-rule:nonzero;fill:rgb(30.980392%,54.901961%,96.470588%);fill-opacity:1;" d="M 35.949219 13.234375 C 35.089844 13.480469 34.234375 14.21875 34.25 15.027344 L 34.25 34.765625 L 36.527344 34.765625 C 37.558594 34.765625 38.355469 33.96875 38.355469 33 L 38.355469 15.011719 C 38.355469 14.019531 37.53125 13.234375 36.558594 13.234375 Z M 35.949219 13.234375 "/>
<path style=" stroke:none;fill-rule:evenodd;fill:rgb(30.980392%,54.901961%,96.470588%);fill-opacity:1;" d="M 36.347656 13.234375 C 35.890625 13.230469 35.4375 13.359375 35.074219 13.644531 L 24 21.949219 L 12.921875 13.644531 C 10.847656 12.0625 8.410156 15.457031 10.464844 16.921875 L 22.769531 26.152344 C 23.496094 26.699219 24.5 26.699219 25.230469 26.152344 L 36.910156 17.390625 L 37.53125 16.921875 C 39.050781 15.839844 38.324219 13.253906 36.347656 13.234375 Z M 36.347656 13.234375 "/>
</g>
</svg>
