<?xml version="1.0" encoding="UTF-8"?>
<svg xmlns="http://www.w3.org/2000/svg" xmlns:xlink="http://www.w3.org/1999/xlink" width="48pt" height="48pt" viewBox="0 0 48 48" version="1.1">
<g id="surface1">
<path style=" stroke:none;fill-rule:evenodd;fill:rgb(28.235294%,29.411765%,38.039216%);fill-opacity:1;" d="M 11.207031 2.847656 L 36.792969 2.847656 C 41.40625 2.847656 45.152344 6.59375 45.152344 11.207031 L 45.152344 36.792969 C 45.152344 41.40625 41.40625 45.152344 36.792969 45.152344 L 11.207031 45.152344 C 6.59375 45.152344 2.847656 41.40625 2.847656 36.792969 L 2.847656 11.207031 C 2.847656 6.59375 6.59375 2.847656 11.207031 2.847656 Z M 11.207031 2.847656 "/>
<path style=" stroke:none;fill-rule:nonzero;fill:rgb(28.235294%,29.411765%,38.039216%);fill-opacity:1;" d="M 24 6.609375 C 14.394531 6.609375 6.609375 14.394531 6.609375 24 C 6.609375 33.605469 14.394531 41.390625 24 41.390625 C 33.605469 41.390625 41.390625 33.605469 41.390625 24 C 41.390625 14.394531 33.605469 6.609375 24 6.609375 Z M 24 6.609375 "/>
<path style=" stroke:none;fill-rule:nonzero;fill:rgb(58.039216%,60%,69.803922%);fill-opacity:1;" d="M 33.9375 24 C 33.9375 29.488281 29.488281 33.9375 24 33.9375 C 18.511719 33.9375 14.0625 29.488281 14.0625 24 C 14.0625 18.511719 18.511719 14.0625 24 14.0625 C 29.488281 14.0625 33.9375 18.511719 33.9375 24 Z M 33.9375 24 "/>
<path style=" stroke:none;fill-rule:nonzero;fill:rgb(100%,100%,100%);fill-opacity:1;" d="M 31.78125 11 C 32.671875 11.515625 32.996094 12.628906 32.5 13.484375 L 26.21875 24.363281 C 25.722656 25.21875 24.597656 25.5 23.707031 24.984375 C 22.816406 24.46875 22.496094 23.359375 22.996094 22.5 L 29.269531 11.625 C 29.765625 10.765625 30.890625 10.484375 31.78125 11 Z M 31.78125 11 "/>
<path style=" stroke:none;fill-rule:nonzero;fill:rgb(58.039216%,60%,69.803922%);fill-opacity:1;" d="M 40.144531 24 C 40.144531 24.6875 39.652344 25.238281 39.035156 25.238281 L 37.53125 25.238281 C 36.917969 25.238281 36.421875 24.6875 36.421875 24 C 36.421875 23.3125 36.917969 22.761719 37.53125 22.761719 L 39.035156 22.761719 C 39.652344 22.761719 40.144531 23.3125 40.144531 24 Z M 40.144531 24 "/>
<path style=" stroke:none;fill-rule:nonzero;fill:rgb(58.039216%,60%,69.803922%);fill-opacity:1;" d="M 11.578125 24 C 11.578125 24.6875 11.082031 25.238281 10.46875 25.238281 L 8.964844 25.238281 C 8.347656 25.238281 7.855469 24.6875 7.855469 24 C 7.855469 23.3125 8.347656 22.761719 8.964844 22.761719 L 10.46875 22.761719 C 11.082031 22.761719 11.578125 23.3125 11.578125 24 Z M 11.578125 24 "/>
<path style=" stroke:none;fill-rule:nonzero;fill:rgb(58.039216%,60%,69.803922%);fill-opacity:1;" d="M 24 40.144531 C 23.3125 40.144531 22.761719 39.652344 22.761719 39.035156 L 22.761719 37.53125 C 22.761719 36.917969 23.3125 36.421875 24 36.421875 C 24.6875 36.421875 25.238281 36.917969 25.238281 37.53125 L 25.238281 39.035156 C 25.238281 39.652344 24.6875 40.144531 24 40.144531 Z M 24 40.144531 "/>
<path style=" stroke:none;fill-rule:nonzero;fill:rgb(58.039216%,60%,69.803922%);fill-opacity:1;" d="M 24 11.578125 C 23.3125 11.578125 22.761719 11.082031 22.761719 10.46875 L 22.761719 8.964844 C 22.761719 8.347656 23.3125 7.855469 24 7.855469 C 24.6875 7.855469 25.238281 8.347656 25.238281 8.964844 L 25.238281 10.46875 C 25.238281 11.082031 24.6875 11.578125 24 11.578125 Z M 24 11.578125 "/>
</g>
</svg>
