<?xml version="1.0" encoding="UTF-8"?>
<svg xmlns="http://www.w3.org/2000/svg" xmlns:xlink="http://www.w3.org/1999/xlink" width="48pt" height="48pt" viewBox="0 0 48 48" version="1.1">
<g id="surface1">
<path style=" stroke:none;fill-rule:evenodd;fill:rgb(55.686275%,55.686275%,55.686275%);fill-opacity:1;" d="M 2.847656 20.546875 L 2.847656 36.785156 C 2.847656 41.421875 6.578125 45.152344 11.214844 45.152344 L 36.792969 45.152344 C 41.421875 45.152344 45.152344 41.421875 45.152344 36.785156 L 45.152344 20.546875 Z M 2.847656 20.546875 "/>
<path style=" stroke:none;fill-rule:evenodd;fill:rgb(84.705882%,84.705882%,84.705882%);fill-opacity:1;" d="M 2.847656 20.546875 L 45.152344 20.546875 L 45.152344 11.207031 C 45.152344 6.578125 41.421875 2.847656 36.792969 2.847656 L 11.214844 2.847656 C 6.578125 2.847656 2.847656 6.578125 2.847656 11.207031 Z M 2.847656 20.546875 "/>
<path style=" stroke:none;fill-rule:nonzero;fill:rgb(92.54902%,92.54902%,92.54902%);fill-opacity:1;" d="M 18 30.234375 L 30 30.234375 C 30.828125 30.234375 31.5 30.90625 31.5 31.734375 L 31.5 33.234375 C 31.5 34.0625 30.828125 34.734375 30 34.734375 L 18 34.734375 C 17.171875 34.734375 16.5 34.0625 16.5 33.234375 L 16.5 31.734375 C 16.5 30.90625 17.171875 30.234375 18 30.234375 Z M 18 30.234375 "/>
</g>
</svg>
