<?xml version="1.0" encoding="UTF-8"?>
<svg xmlns="http://www.w3.org/2000/svg" xmlns:xlink="http://www.w3.org/1999/xlink" width="48pt" height="48pt" viewBox="0 0 48 48" version="1.1">
<g id="surface1">
<path style=" stroke:none;fill-rule:evenodd;fill:rgb(36.470588%,70.588235%,24.313725%);fill-opacity:1;" d="M 11.207031 2.847656 L 36.792969 2.847656 C 41.40625 2.847656 45.152344 6.59375 45.152344 11.207031 L 45.152344 36.792969 C 45.152344 41.40625 41.40625 45.152344 36.792969 45.152344 L 11.207031 45.152344 C 6.59375 45.152344 2.847656 41.40625 2.847656 36.792969 L 2.847656 11.207031 C 2.847656 6.59375 6.59375 2.847656 11.207031 2.847656 Z M 11.207031 2.847656 "/>
<path style=" stroke:none;fill-rule:nonzero;fill:rgb(100%,100%,100%);fill-opacity:1;" d="M 18.140625 8.402344 C 17.910156 8.425781 17.714844 8.613281 17.671875 8.839844 L 17.21875 11.128906 C 16.40625 11.449219 15.644531 11.886719 14.972656 12.421875 L 12.75 11.667969 C 12.515625 11.589844 12.238281 11.691406 12.113281 11.902344 L 9.96875 15.621094 C 9.847656 15.832031 9.902344 16.128906 10.089844 16.285156 L 11.859375 17.84375 C 11.796875 18.265625 11.761719 18.683594 11.761719 19.121094 C 11.761719 19.550781 11.796875 19.972656 11.859375 20.390625 L 10.089844 21.949219 C 9.902344 22.109375 9.847656 22.40625 9.96875 22.621094 L 12.113281 26.332031 C 12.238281 26.546875 12.515625 26.652344 12.75 26.574219 L 14.972656 25.816406 C 15.644531 26.355469 16.40625 26.792969 17.21875 27.109375 L 17.671875 29.402344 C 17.71875 29.640625 17.949219 29.832031 18.191406 29.839844 L 22.480469 29.839844 C 22.722656 29.832031 22.949219 29.640625 22.996094 29.402344 L 23.449219 27.109375 C 24.261719 26.792969 25.019531 26.355469 25.691406 25.816406 L 27.917969 26.574219 C 28.152344 26.652344 28.433594 26.546875 28.558594 26.332031 L 30.699219 22.621094 C 30.824219 22.40625 30.765625 22.109375 30.582031 21.949219 L 28.808594 20.390625 C 28.871094 19.972656 28.90625 19.550781 28.90625 19.121094 C 28.90625 18.683594 28.871094 18.265625 28.808594 17.84375 L 30.582031 16.285156 C 30.765625 16.128906 30.824219 15.832031 30.699219 15.621094 L 28.558594 11.902344 C 28.433594 11.691406 28.152344 11.589844 27.917969 11.667969 L 25.691406 12.421875 C 25.019531 11.886719 24.261719 11.449219 23.449219 11.128906 L 22.996094 8.839844 C 22.949219 8.597656 22.722656 8.40625 22.480469 8.402344 L 18.191406 8.402344 C 18.175781 8.402344 18.15625 8.402344 18.140625 8.402344 Z M 20.332031 14.527344 C 22.871094 14.527344 24.925781 16.582031 24.925781 19.121094 C 24.925781 21.65625 22.871094 23.714844 20.332031 23.714844 C 17.796875 23.714844 15.738281 21.65625 15.738281 19.121094 C 15.738281 16.582031 17.796875 14.527344 20.332031 14.527344 Z M 20.332031 14.527344 "/>
<path style=" stroke:none;fill-rule:nonzero;fill:rgb(61.176471%,88.235294%,45.098039%);fill-opacity:1;" d="M 30.355469 25.234375 C 30.203125 25.234375 30.058594 25.34375 30.015625 25.488281 L 29.558594 26.957031 C 29 27.109375 28.46875 27.339844 27.988281 27.644531 L 26.589844 26.988281 C 26.4375 26.921875 26.25 26.96875 26.152344 27.097656 L 24.480469 29.378906 C 24.386719 29.515625 24.402344 29.707031 24.511719 29.828125 L 25.5625 30.980469 C 25.488281 31.246094 25.4375 31.519531 25.40625 31.800781 C 25.375 32.089844 25.371094 32.371094 25.378906 32.644531 L 24.105469 33.535156 C 23.96875 33.628906 23.917969 33.824219 23.980469 33.96875 L 25.121094 36.558594 C 25.1875 36.707031 25.363281 36.796875 25.519531 36.761719 L 27.03125 36.425781 C 27.433594 36.824219 27.902344 37.167969 28.410156 37.433594 L 28.542969 38.964844 C 28.558594 39.125 28.691406 39.269531 28.855469 39.292969 L 31.660156 39.59375 C 31.824219 39.609375 31.984375 39.5 32.03125 39.347656 L 32.496094 37.875 C 33.046875 37.730469 33.578125 37.496094 34.058594 37.191406 L 35.464844 37.84375 C 35.609375 37.910156 35.800781 37.863281 35.894531 37.734375 L 37.566406 35.453125 C 37.660156 35.324219 37.652344 35.125 37.535156 35.003906 L 36.484375 33.859375 C 36.558594 33.589844 36.613281 33.316406 36.644531 33.03125 C 36.675781 32.746094 36.683594 32.46875 36.667969 32.1875 L 37.941406 31.296875 C 38.078125 31.203125 38.136719 31.015625 38.066406 30.863281 L 36.933594 28.277344 C 36.863281 28.128906 36.6875 28.042969 36.53125 28.078125 L 35.015625 28.410156 C 34.613281 28.011719 34.144531 27.671875 33.636719 27.40625 L 33.503906 25.871094 C 33.488281 25.707031 33.355469 25.566406 33.199219 25.546875 L 30.386719 25.238281 C 30.375 25.238281 30.363281 25.238281 30.355469 25.234375 Z M 31.355469 29.40625 C 33.015625 29.589844 34.214844 31.082031 34.035156 32.746094 C 33.855469 34.40625 32.359375 35.609375 30.699219 35.425781 C 29.03125 35.246094 27.832031 33.75 28.015625 32.089844 C 28.199219 30.425781 29.691406 29.222656 31.355469 29.40625 Z M 31.355469 29.40625 "/>
</g>
</svg>
