<?xml version="1.0" encoding="UTF-8"?>
<svg xmlns="http://www.w3.org/2000/svg" xmlns:xlink="http://www.w3.org/1999/xlink" width="48pt" height="48pt" viewBox="0 0 48 48" version="1.1">
<g id="surface1">
<path style=" stroke:none;fill-rule:evenodd;fill:rgb(30.980392%,30.980392%,30.980392%);fill-opacity:1;" d="M 11.207031 2.847656 L 36.792969 2.847656 C 41.40625 2.847656 45.152344 6.59375 45.152344 11.207031 L 45.152344 36.792969 C 45.152344 41.40625 41.40625 45.152344 36.792969 45.152344 L 11.207031 45.152344 C 6.59375 45.152344 2.847656 41.40625 2.847656 36.792969 L 2.847656 11.207031 C 2.847656 6.59375 6.59375 2.847656 11.207031 2.847656 Z M 11.207031 2.847656 "/>
<path style=" stroke:none;fill-rule:nonzero;fill:rgb(76.862745%,76.862745%,76.862745%);fill-opacity:1;" d="M 10.5 10.5 L 10.5 37.5 L 37.5 37.5 L 37.5 10.5 Z M 14.5625 13.5 L 33.4375 13.5 L 28.9375 18 L 19.0625 18 Z M 13.5 14.5625 L 18 19.0625 L 18 28.941406 L 13.5 33.441406 Z M 34.5 14.5625 L 34.5 33.441406 L 30 28.941406 L 30 19.066406 L 34.5 14.566406 Z M 19.5 19.5 L 28.5 19.5 L 28.5 28.5 L 19.5 28.5 Z M 19.0625 30 L 28.9375 30 L 33.4375 34.5 L 14.5625 34.5 Z M 19.0625 30 "/>
<path style=" stroke:none;fill-rule:nonzero;fill:rgb(90.980392%,90.980392%,90.980392%);fill-opacity:1;" d="M 12 7.5 C 9.515625 7.5 7.5 9.515625 7.5 12 C 7.5 14.484375 9.515625 16.5 12 16.5 C 14.484375 16.5 16.5 14.484375 16.5 12 C 16.5 9.515625 14.484375 7.5 12 7.5 Z M 36 7.5 C 33.515625 7.5 31.5 9.515625 31.5 12 C 31.5 14.484375 33.515625 16.5 36 16.5 C 38.484375 16.5 40.5 14.484375 40.5 12 C 40.5 9.515625 38.484375 7.5 36 7.5 Z M 18.75 16.5 C 17.503906 16.5 16.5 17.503906 16.5 18.75 C 16.5 19.996094 17.503906 21 18.75 21 C 19.996094 21 21 19.996094 21 18.75 C 21 17.503906 19.996094 16.5 18.75 16.5 Z M 29.25 16.5 C 28.003906 16.5 27 17.503906 27 18.75 C 27 19.996094 28.003906 21 29.25 21 C 30.496094 21 31.5 19.996094 31.5 18.75 C 31.5 17.503906 30.496094 16.5 29.25 16.5 Z M 18.75 27 C 17.503906 27 16.5 28.003906 16.5 29.25 C 16.5 30.496094 17.503906 31.5 18.75 31.5 C 19.996094 31.5 21 30.496094 21 29.25 C 21 28.003906 19.996094 27 18.75 27 Z M 29.25 27 C 28.003906 27 27 28.003906 27 29.25 C 27 30.496094 28.003906 31.5 29.25 31.5 C 30.496094 31.5 31.5 30.496094 31.5 29.25 C 31.5 28.003906 30.496094 27 29.25 27 Z M 12 31.5 C 9.515625 31.5 7.5 33.515625 7.5 36 C 7.5 38.484375 9.515625 40.5 12 40.5 C 14.484375 40.5 16.5 38.484375 16.5 36 C 16.5 33.515625 14.484375 31.5 12 31.5 Z M 36 31.5 C 33.515625 31.5 31.5 33.515625 31.5 36 C 31.5 38.484375 33.515625 40.5 36 40.5 C 38.484375 40.5 40.5 38.484375 40.5 36 C 40.5 33.515625 38.484375 31.5 36 31.5 Z M 36 31.5 "/>
</g>
</svg>
