<?xml version="1.0" encoding="UTF-8"?>
<svg xmlns="http://www.w3.org/2000/svg" xmlns:xlink="http://www.w3.org/1999/xlink" width="48pt" height="48pt" viewBox="0 0 48 48" version="1.1">
<g id="surface1">
<path style=" stroke:none;fill-rule:evenodd;fill:rgb(92.54902%,92.54902%,92.54902%);fill-opacity:1;" d="M 11.207031 2.847656 L 36.792969 2.847656 C 41.40625 2.847656 45.152344 6.59375 45.152344 11.207031 L 45.152344 36.792969 C 45.152344 41.40625 41.40625 45.152344 36.792969 45.152344 L 11.207031 45.152344 C 6.59375 45.152344 2.847656 41.40625 2.847656 36.792969 L 2.847656 11.207031 C 2.847656 6.59375 6.59375 2.847656 11.207031 2.847656 Z M 11.207031 2.847656 "/>
<path style=" stroke:none;fill-rule:nonzero;fill:rgb(100%,81.176471%,24.705882%);fill-opacity:1;" d="M 18.921875 32.324219 C 20.542969 33.25 21.105469 35.3125 20.175781 36.933594 C 19.25 38.550781 17.1875 39.113281 15.574219 38.1875 C 13.953125 37.261719 13.390625 35.199219 14.316406 33.578125 C 15.238281 31.964844 17.300781 31.402344 18.921875 32.324219 Z M 18.921875 32.324219 "/>
<path style=" stroke:none;fill-rule:nonzero;fill:rgb(48.627451%,76.470588%,15.294118%);fill-opacity:1;" d="M 15.261719 23.394531 C 17.152344 24.472656 17.808594 26.878906 16.722656 28.769531 C 15.644531 30.65625 13.238281 31.3125 11.355469 30.234375 C 9.464844 29.15625 8.808594 26.746094 9.886719 24.859375 C 10.96875 22.96875 13.375 22.3125 15.261719 23.394531 Z M 15.261719 23.394531 "/>
<path style=" stroke:none;fill-rule:nonzero;fill:rgb(15.294118%,67.843137%,76.470588%);fill-opacity:1;" d="M 18.355469 13.339844 C 20.511719 14.574219 21.261719 17.324219 20.03125 19.480469 C 18.796875 21.640625 16.046875 22.390625 13.886719 21.15625 C 11.730469 19.921875 10.980469 17.171875 12.214844 15.011719 C 13.449219 12.855469 16.199219 12.105469 18.355469 13.339844 Z M 18.355469 13.339844 "/>
<path style=" stroke:none;fill-rule:nonzero;fill:rgb(100%,81.176471%,24.705882%);fill-opacity:1;" d="M 33.261719 10.183594 C 36.230469 11.878906 37.261719 15.660156 35.5625 18.628906 C 33.871094 21.597656 30.089844 22.628906 27.121094 20.933594 C 24.152344 19.234375 23.121094 15.453125 24.816406 12.484375 C 26.515625 9.519531 30.296875 8.488281 33.261719 10.183594 Z M 33.261719 10.183594 "/>
<path style=" stroke:none;fill-rule:nonzero;fill:rgb(48.627451%,76.470588%,15.294118%);fill-opacity:1;" d="M 36.363281 23.46875 C 38.519531 24.703125 39.269531 27.453125 38.035156 29.609375 C 36.808594 31.769531 34.058594 32.519531 31.894531 31.285156 C 29.738281 30.050781 28.988281 27.300781 30.222656 25.140625 C 31.457031 22.984375 34.207031 22.234375 36.363281 23.46875 Z M 36.363281 23.46875 "/>
<path style=" stroke:none;fill-rule:nonzero;fill:rgb(15.294118%,67.843137%,76.470588%);fill-opacity:1;" d="M 29.703125 31.171875 C 31.652344 32.144531 32.4375 34.515625 31.457031 36.457031 C 30.484375 38.402344 28.121094 39.1875 26.171875 38.214844 C 24.230469 37.238281 23.441406 34.871094 24.417969 32.925781 C 25.394531 30.984375 27.761719 30.199219 29.703125 31.171875 Z M 29.703125 31.171875 "/>
</g>
</svg>
