<?xml version="1.0" encoding="UTF-8"?>
<svg xmlns="http://www.w3.org/2000/svg" xmlns:xlink="http://www.w3.org/1999/xlink" width="48pt" height="48pt" viewBox="0 0 48 48" version="1.1">
<g id="surface1">
<path style=" stroke:none;fill-rule:evenodd;fill:rgb(20.392157%,39.607843%,64.313725%);fill-opacity:1;" d="M 11.207031 2.847656 L 36.792969 2.847656 C 41.40625 2.847656 45.152344 6.59375 45.152344 11.207031 L 45.152344 36.792969 C 45.152344 41.40625 41.40625 45.152344 36.792969 45.152344 L 11.207031 45.152344 C 6.59375 45.152344 2.847656 41.40625 2.847656 36.792969 L 2.847656 11.207031 C 2.847656 6.59375 6.59375 2.847656 11.207031 2.847656 Z M 11.207031 2.847656 "/>
<path style=" stroke:none;fill-rule:evenodd;fill:rgb(100%,100%,100%);fill-opacity:1;" d="M 12.75 18.75 C 12.75 18.75 12.03125 18.734375 11.292969 19.109375 C 10.546875 19.480469 9.75 20.375 9.75 21.75 L 11.25 21.75 C 11.25 20.25 12.75 20.25 12.75 20.25 C 12.75 20.25 14.25 20.25 14.25 21.75 C 14.25 22.3125 14.058594 22.734375 13.707031 23.1875 C 13.355469 23.636719 12.832031 24.078125 12.269531 24.546875 C 11.707031 25.015625 11.105469 25.511719 10.613281 26.140625 C 10.121094 26.765625 9.75 27.5625 9.75 28.5 L 9.75 29.25 L 15.75 29.25 L 15.75 27.75 L 11.386719 27.75 C 11.480469 27.515625 11.613281 27.292969 11.792969 27.0625 C 12.144531 26.613281 12.667969 26.171875 13.230469 25.703125 C 13.792969 25.234375 14.394531 24.738281 14.886719 24.109375 C 15.378906 23.484375 15.75 22.6875 15.75 21.75 C 15.75 20.375 14.953125 19.480469 14.207031 19.109375 C 13.46875 18.738281 12.75 18.75 12.75 18.75 Z M 12.75 18.75 "/>
<path style=" stroke:none;fill-rule:nonzero;fill:rgb(100%,100%,100%);fill-opacity:1;" d="M 20.25 18.75 C 18.597656 18.75 17.25 20.097656 17.25 21.75 L 17.25 26.25 C 17.25 27.902344 18.597656 29.25 20.25 29.25 C 21.902344 29.25 23.25 27.902344 23.25 26.25 L 23.25 21.75 C 23.25 20.097656 21.902344 18.75 20.25 18.75 Z M 20.25 20.25 C 21.09375 20.25 21.75 20.90625 21.75 21.75 L 21.75 26.25 C 21.75 27.09375 21.09375 27.75 20.25 27.75 C 19.40625 27.75 18.75 27.09375 18.75 26.25 L 18.75 21.75 C 18.75 20.90625 19.40625 20.25 20.25 20.25 Z M 20.25 20.25 "/>
<path style=" stroke:none;fill-rule:evenodd;fill:rgb(100%,100%,100%);fill-opacity:1;" d="M 26.25 18.75 L 26.25 23.25 L 29.25 23.25 L 29.25 18.75 L 30.75 18.75 L 30.75 29.25 L 29.25 29.25 L 29.25 24.75 L 24.75 24.75 L 24.75 18.75 L 26.25 18.75 "/>
<path style=" stroke:none;fill-rule:nonzero;fill:rgb(100%,100%,100%);fill-opacity:1;" d="M 35.25 18.75 C 33.597656 18.75 32.25 20.097656 32.25 21.75 C 32.25 22.652344 32.660156 23.449219 33.292969 24 C 32.660156 24.550781 32.25 25.347656 32.25 26.25 C 32.25 27.902344 33.597656 29.25 35.25 29.25 C 36.902344 29.25 38.25 27.902344 38.25 26.25 C 38.25 25.347656 37.839844 24.550781 37.207031 24 C 37.839844 23.449219 38.25 22.652344 38.25 21.75 C 38.25 20.097656 36.902344 18.75 35.25 18.75 Z M 35.25 20.25 C 36.09375 20.25 36.75 20.90625 36.75 21.75 C 36.75 22.59375 36.09375 23.25 35.25 23.25 C 34.40625 23.25 33.75 22.59375 33.75 21.75 C 33.75 20.90625 34.40625 20.25 35.25 20.25 Z M 35.25 24.75 C 36.09375 24.75 36.75 25.40625 36.75 26.25 C 36.75 27.09375 36.09375 27.75 35.25 27.75 C 34.40625 27.75 33.75 27.09375 33.75 26.25 C 33.75 25.40625 34.40625 24.75 35.25 24.75 Z M 35.25 24.75 "/>
</g>
</svg>
