<?xml version="1.0" encoding="UTF-8"?>
<svg xmlns="http://www.w3.org/2000/svg" xmlns:xlink="http://www.w3.org/1999/xlink" width="48pt" height="48pt" viewBox="0 0 48 48" version="1.1">
<g id="surface1">
<path style=" stroke:none;fill-rule:evenodd;fill:rgb(100%,77.254902%,26.27451%);fill-opacity:1;" d="M 11.207031 2.847656 L 36.792969 2.847656 C 41.40625 2.847656 45.152344 6.59375 45.152344 11.207031 L 45.152344 36.792969 C 45.152344 41.40625 41.40625 45.152344 36.792969 45.152344 L 11.207031 45.152344 C 6.59375 45.152344 2.847656 41.40625 2.847656 36.792969 L 2.847656 11.207031 C 2.847656 6.59375 6.59375 2.847656 11.207031 2.847656 Z M 11.207031 2.847656 "/>
<path style=" stroke:none;fill-rule:nonzero;fill:rgb(100%,31.764706%,0%);fill-opacity:1;" d="M 18 28.5 C 18 31.8125 15.3125 34.5 12 34.5 C 8.6875 34.5 6 31.8125 6 28.5 C 6 25.1875 8.6875 22.5 12 22.5 C 15.3125 22.5 18 25.1875 18 28.5 Z M 18 28.5 "/>
<path style=" stroke:none;fill-rule:nonzero;fill:rgb(30.196078%,30.196078%,30.196078%);fill-opacity:1;" d="M 6 10.5 L 42 10.5 L 42 18 L 6 18 Z M 6 10.5 "/>
<path style=" stroke:none;fill-rule:nonzero;fill:rgb(100%,31.764706%,0%);fill-opacity:1;" d="M 19.5 12 L 19.5 18 L 15 18 L 15 12 Z M 19.5 12 "/>
<path style=" stroke:none;fill-rule:nonzero;fill:rgb(30.196078%,30.196078%,30.196078%);fill-opacity:1;" d="M 27.75 21 C 26.503906 21 25.5 22.003906 25.5 23.25 C 25.5 24.496094 26.503906 25.5 27.75 25.5 C 28.996094 25.5 30 24.496094 30 23.25 C 30 22.003906 28.996094 21 27.75 21 Z M 33.75 21 C 32.503906 21 31.5 22.003906 31.5 23.25 C 31.5 24.496094 32.503906 25.5 33.75 25.5 C 34.996094 25.5 36 24.496094 36 23.25 C 36 22.003906 34.996094 21 33.75 21 Z M 39.75 21 C 38.503906 21 37.5 22.003906 37.5 23.25 C 37.5 24.496094 38.503906 25.5 39.75 25.5 C 40.996094 25.5 42 24.496094 42 23.25 C 42 22.003906 40.996094 21 39.75 21 Z M 27.75 27 C 26.503906 27 25.5 28.003906 25.5 29.25 C 25.5 30.496094 26.503906 31.5 27.75 31.5 C 28.996094 31.5 30 30.496094 30 29.25 C 30 28.003906 28.996094 27 27.75 27 Z M 33.75 27 C 32.503906 27 31.5 28.003906 31.5 29.25 C 31.5 30.496094 32.503906 31.5 33.75 31.5 C 34.996094 31.5 36 30.496094 36 29.25 C 36 28.003906 34.996094 27 33.75 27 Z M 39.75 27 C 38.503906 27 37.5 28.003906 37.5 29.25 C 37.5 30.496094 38.503906 31.5 39.75 31.5 C 40.996094 31.5 42 30.496094 42 29.25 C 42 28.003906 40.996094 27 39.75 27 Z M 27.75 33 C 26.503906 33 25.5 34.003906 25.5 35.25 C 25.5 36.496094 26.503906 37.5 27.75 37.5 C 28.996094 37.5 30 36.496094 30 35.25 C 30 34.003906 28.996094 33 27.75 33 Z M 33.75 33 C 32.503906 33 31.5 34.003906 31.5 35.25 C 31.5 36.496094 32.503906 37.5 33.75 37.5 C 34.996094 37.5 36 36.496094 36 35.25 C 36 34.003906 34.996094 33 33.75 33 Z M 39.75 33 C 38.503906 33 37.5 34.003906 37.5 35.25 C 37.5 36.496094 38.503906 37.5 39.75 37.5 C 40.996094 37.5 42 36.496094 42 35.25 C 42 34.003906 40.996094 33 39.75 33 Z M 39.75 33 "/>
</g>
</svg>
