<?xml version="1.0" encoding="UTF-8"?>
<svg xmlns="http://www.w3.org/2000/svg" xmlns:xlink="http://www.w3.org/1999/xlink" width="48pt" height="48pt" viewBox="0 0 48 48" version="1.1">
<g id="surface1">
<path style=" stroke:none;fill-rule:evenodd;fill:rgb(92.156863%,30.196078%,15.294118%);fill-opacity:1;" d="M 11.207031 2.847656 L 36.792969 2.847656 C 41.40625 2.847656 45.152344 6.59375 45.152344 11.207031 L 45.152344 36.792969 C 45.152344 41.40625 41.40625 45.152344 36.792969 45.152344 L 11.207031 45.152344 C 6.59375 45.152344 2.847656 41.40625 2.847656 36.792969 L 2.847656 11.207031 C 2.847656 6.59375 6.59375 2.847656 11.207031 2.847656 Z M 11.207031 2.847656 "/>
<path style=" stroke:none;fill-rule:nonzero;fill:rgb(100%,100%,100%);fill-opacity:1;" d="M 36.75 22.234375 L 13.046875 8.691406 C 12.03125 8.125 11.125 8.175781 10.578125 8.714844 C 10.183594 9.089844 9.972656 9.691406 9.972656 10.480469 L 9.972656 37.503906 C 9.972656 38.292969 10.203125 38.902344 10.578125 39.277344 C 11.144531 39.828125 12.03125 39.878906 13.046875 39.292969 L 36.75 25.75 C 38.453125 24.785156 38.453125 23.21875 36.75 22.234375 Z M 36.75 22.234375 "/>
<path style=" stroke:none;fill-rule:nonzero;fill:rgb(100%,84.313725%,22.352941%);fill-opacity:1;" d="M 24 11.65625 C 22.472656 11.65625 21.015625 11.953125 19.675781 12.484375 L 19.671875 12.480469 C 19.660156 12.488281 19.644531 12.496094 19.636719 12.5 C 19.328125 12.621094 19.027344 12.761719 18.730469 12.910156 C 18.675781 12.9375 18.621094 12.964844 18.5625 12.988281 C 18.277344 13.140625 17.996094 13.308594 17.71875 13.480469 C 17.660156 13.515625 17.605469 13.546875 17.550781 13.582031 C 17.292969 13.75 17.042969 13.9375 16.796875 14.125 C 16.730469 14.175781 16.660156 14.230469 16.59375 14.28125 C 16.375 14.457031 16.167969 14.652344 15.957031 14.84375 C 15.875 14.917969 15.796875 14.988281 15.71875 15.0625 C 15.464844 15.3125 15.21875 15.578125 14.984375 15.855469 C 14.972656 15.871094 14.957031 15.886719 14.941406 15.902344 C 13.949219 17.09375 13.1875 18.488281 12.730469 20.011719 C 12.722656 20.03125 12.71875 20.050781 12.714844 20.066406 C 12.605469 20.425781 12.515625 20.785156 12.441406 21.15625 C 12.433594 21.199219 12.425781 21.246094 12.421875 21.292969 C 12.359375 21.621094 12.308594 21.949219 12.277344 22.285156 C 12.234375 22.671875 12.21875 23.050781 12.214844 23.4375 C 12.214844 23.808594 12.238281 24.175781 12.269531 24.535156 C 12.28125 24.609375 12.285156 24.6875 12.296875 24.761719 C 12.332031 25.074219 12.378906 25.386719 12.4375 25.691406 C 12.449219 25.738281 12.457031 25.792969 12.46875 25.84375 C 12.707031 26.996094 13.113281 28.082031 13.667969 29.089844 C 14.042969 29.78125 14.488281 30.425781 14.996094 31.027344 C 16.238281 32.503906 17.839844 33.675781 19.667969 34.402344 C 19.6875 34.40625 19.699219 34.394531 19.71875 34.402344 C 20.109375 34.550781 20.503906 34.6875 20.910156 34.796875 L 35.355469 26.550781 C 35.636719 25.535156 35.78125 24.488281 35.785156 23.4375 C 35.785156 22.933594 35.738281 22.433594 35.675781 21.941406 C 35.667969 21.828125 35.652344 21.707031 35.628906 21.59375 L 35.625 21.59375 C 34.734375 15.964844 29.875 11.65625 24 11.65625 Z M 24 11.65625 "/>
<path style=" stroke:none;fill-rule:nonzero;fill:rgb(100%,54.901961%,0%);fill-opacity:1;" d="M 31.296875 23.4375 C 31.296875 27.46875 28.03125 30.734375 24 30.734375 C 19.96875 30.734375 16.703125 27.46875 16.703125 23.4375 C 16.703125 19.410156 19.96875 16.144531 24 16.144531 C 28.03125 16.144531 31.296875 19.410156 31.296875 23.4375 Z M 31.296875 23.4375 "/>
</g>
</svg>
