<?xml version="1.0" encoding="UTF-8"?>
<svg xmlns="http://www.w3.org/2000/svg" xmlns:xlink="http://www.w3.org/1999/xlink" width="48pt" height="48pt" viewBox="0 0 48 48" version="1.1">
<g id="surface1">
<path style=" stroke:none;fill-rule:evenodd;fill:rgb(39.607843%,58.431373%,76.470588%);fill-opacity:1;" d="M 11.207031 2.847656 L 36.792969 2.847656 C 41.40625 2.847656 45.152344 6.59375 45.152344 11.207031 L 45.152344 36.792969 C 45.152344 41.40625 41.40625 45.152344 36.792969 45.152344 L 11.207031 45.152344 C 6.59375 45.152344 2.847656 41.40625 2.847656 36.792969 L 2.847656 11.207031 C 2.847656 6.59375 6.59375 2.847656 11.207031 2.847656 Z M 11.207031 2.847656 "/>
<path style=" stroke:none;fill-rule:nonzero;fill:rgb(100%,100%,100%);fill-opacity:1;" d="M 23.796875 9.515625 C 21.925781 9.515625 20.136719 9.871094 18.488281 10.511719 C 19.121094 10.421875 19.878906 10.371094 20.785156 10.371094 C 25.972656 10.371094 28.910156 12.671875 31.046875 15.113281 C 32.472656 16.75 34.953125 21.609375 36.792969 21.609375 C 37.324219 21.5625 37.746094 21.136719 38.078125 20.488281 C 36.285156 14.152344 30.574219 9.515625 23.792969 9.515625 Z M 23.796875 9.515625 "/>
<path style=" stroke:none;fill-rule:nonzero;fill:rgb(100%,100%,100%);fill-opacity:1;" d="M 14.703125 17.378906 C 19.722656 17.378906 28.558594 28.25 37.941406 29.347656 C 38.183594 28.59375 38.363281 27.808594 38.484375 27 C 34.21875 26.046875 28.855469 20.964844 26.925781 19.046875 C 23.910156 16.046875 21.09375 13.042969 17.234375 13.042969 C 15.917969 13.042969 14.707031 13.269531 13.660156 13.59375 C 11.722656 15.441406 10.265625 17.8125 9.515625 20.484375 C 11.0625 18.90625 12.832031 17.378906 14.703125 17.378906 Z M 14.703125 17.378906 "/>
<path style=" stroke:none;fill-rule:nonzero;fill:rgb(100%,100%,100%);fill-opacity:1;" d="M 29.597656 34.441406 C 20.980469 34.441406 14.46875 29.691406 12.152344 29.691406 C 11.207031 29.691406 10.660156 30.363281 10.347656 31.167969 C 11.832031 34.390625 14.402344 36.988281 17.566406 38.484375 C 17.121094 37.3125 16.855469 35.761719 18.558594 35.761719 C 20.0625 35.761719 21.5625 37.089844 27.125 37.089844 C 29.660156 37.089844 32 36.546875 33.71875 36 C 34.628906 35.160156 35.4375 34.214844 36.125 33.175781 C 34.484375 33.777344 32.089844 34.441406 29.597656 34.441406 Z M 29.597656 34.441406 "/>
</g>
</svg>
