<?xml version="1.0" encoding="UTF-8"?>
<svg xmlns="http://www.w3.org/2000/svg" xmlns:xlink="http://www.w3.org/1999/xlink" width="48pt" height="48pt" viewBox="0 0 48 48" version="1.1">
<g id="surface1">
<path style=" stroke:none;fill-rule:evenodd;fill:rgb(15.686275%,35.686275%,12.156863%);fill-opacity:1;" d="M 11.207031 2.847656 L 36.792969 2.847656 C 41.40625 2.847656 45.152344 6.59375 45.152344 11.207031 L 45.152344 36.792969 C 45.152344 41.40625 41.40625 45.152344 36.792969 45.152344 L 11.207031 45.152344 C 6.59375 45.152344 2.847656 41.40625 2.847656 36.792969 L 2.847656 11.207031 C 2.847656 6.59375 6.59375 2.847656 11.207031 2.847656 Z M 11.207031 2.847656 "/>
<path style=" stroke:none;fill-rule:nonzero;fill:rgb(100%,100%,100%);fill-opacity:1;" d="M 32.933594 32.308594 C 27.050781 38.996094 21.925781 38.800781 18.40625 35.738281 C 13.125 31.136719 8.238281 14.410156 11.027344 11.25 C 13.8125 8.082031 31.34375 12.902344 35.105469 16.402344 C 38.863281 19.90625 39.121094 25.269531 32.933594 32.308594 Z M 32.933594 32.308594 "/>
<path style=" stroke:none;fill-rule:nonzero;fill:rgb(71.764706%,81.960784%,38.039216%);fill-opacity:1;" d="M 20.574219 20.0625 C 19.175781 20.0625 18.089844 20.453125 17.300781 21.234375 C 16.515625 22.011719 16.125 23.097656 16.125 24.496094 C 16.125 25.890625 16.515625 26.972656 17.300781 27.753906 C 18.089844 28.53125 19.175781 28.921875 20.574219 28.921875 C 21.207031 28.921875 21.808594 28.84375 22.371094 28.683594 C 22.933594 28.519531 23.535156 28.277344 24 27.964844 L 24 24 L 21.046875 24 L 21.046875 24.984375 L 23.011719 24.984375 L 23.011719 27.535156 C 22.746094 27.6875 22.441406 27.796875 22.109375 27.871094 C 21.777344 27.9375 21.097656 27.972656 20.671875 27.972656 C 19.582031 27.972656 18.515625 27.683594 17.96875 27.097656 C 17.421875 26.515625 17.109375 25.644531 17.109375 24.496094 C 17.109375 23.339844 17.421875 22.46875 17.96875 21.886719 C 18.515625 21.300781 19.582031 21.011719 20.671875 21.011719 C 21.230469 21.011719 21.605469 21.105469 22.109375 21.285156 C 22.609375 21.46875 23.0625 21.738281 23.503906 22.105469 L 23.503906 20.875 C 23.066406 20.605469 22.605469 20.40625 22.078125 20.265625 C 21.558594 20.128906 21.152344 20.0625 20.574219 20.0625 Z M 25.96875 20.0625 L 25.96875 28.921875 L 26.953125 28.921875 L 26.953125 25.96875 L 28.691406 25.96875 C 29.691406 25.957031 30.59375 25.765625 31.105469 25.339844 C 31.613281 24.90625 31.871094 23.972656 31.871094 23.128906 C 31.871094 22.296875 31.613281 21.171875 31.105469 20.738281 C 30.59375 20.300781 29.691406 20.0625 28.691406 20.0625 Z M 26.953125 21.046875 L 28.777344 21.046875 C 29.449219 21.03125 29.972656 21.183594 30.339844 21.457031 C 30.707031 21.730469 30.890625 22.609375 30.890625 23.109375 C 30.890625 23.613281 30.707031 24.300781 30.339844 24.574219 C 29.972656 24.847656 29.453125 24.984375 28.777344 24.984375 L 26.953125 24.984375 Z M 26.953125 21.046875 "/>
</g>
</svg>
