<?xml version="1.0" encoding="UTF-8"?>
<svg xmlns="http://www.w3.org/2000/svg" xmlns:xlink="http://www.w3.org/1999/xlink" width="48pt" height="48pt" viewBox="0 0 48 48" version="1.1">
<g id="surface1">
<path style=" stroke:none;fill-rule:evenodd;fill:rgb(90.196078%,90.196078%,90.196078%);fill-opacity:1;" d="M 11.207031 2.847656 L 36.792969 2.847656 C 41.40625 2.847656 45.152344 6.59375 45.152344 11.207031 L 45.152344 36.792969 C 45.152344 41.40625 41.40625 45.152344 36.792969 45.152344 L 11.207031 45.152344 C 6.59375 45.152344 2.847656 41.40625 2.847656 36.792969 L 2.847656 11.207031 C 2.847656 6.59375 6.59375 2.847656 11.207031 2.847656 Z M 11.207031 2.847656 "/>
<path style=" stroke:none;fill-rule:nonzero;fill:rgb(40%,62.745098%,17.254902%);fill-opacity:1;" d="M 38.402344 33.605469 L 38.402344 8.394531 C 38.402344 7.734375 37.839844 7.199219 37.140625 7.199219 L 15.660156 7.199219 C 14.964844 7.199219 14.394531 7.734375 14.394531 8.394531 L 14.394531 33.605469 C 14.394531 34.265625 14.964844 34.800781 15.660156 34.800781 L 37.140625 34.800781 C 37.839844 34.800781 38.402344 34.265625 38.402344 33.605469 Z M 38.402344 33.605469 "/>
<path style=" stroke:none;fill-rule:nonzero;fill:rgb(49.411765%,73.72549%,18.039216%);fill-opacity:1;" d="M 33.605469 39.605469 L 33.605469 14.394531 C 33.605469 13.734375 33.035156 13.199219 32.339844 13.199219 L 10.859375 13.199219 C 10.160156 13.199219 9.597656 13.734375 9.597656 14.394531 L 9.597656 39.605469 C 9.597656 40.265625 10.160156 40.800781 10.859375 40.800781 L 32.339844 40.800781 C 33.035156 40.800781 33.605469 40.265625 33.605469 39.605469 Z M 33.605469 39.605469 "/>
<path style="fill-rule:nonzero;fill:rgb(100%,100%,100%);fill-opacity:1;stroke-width:0.5;stroke-linecap:butt;stroke-linejoin:miter;stroke:rgb(100%,100%,100%);stroke-opacity:1;stroke-miterlimit:4;" d="M 13.8125 13.309896 C 13.59375 13.309896 13.385417 13.416667 13.335938 13.59375 C 13.148438 14.28125 13.356771 15.341146 13.705729 16.664062 L 13.601562 16.919271 C 13.333333 17.565104 13 18.210938 12.708333 18.783854 C 11.502604 21.145833 10.5625 22.419271 9.9375 22.510417 L 9.934896 22.481771 C 9.919271 22.1875 10.466146 21.429688 11.200521 20.825521 C 11.278646 20.763021 11.606771 20.447917 11.606771 20.447917 C 11.606771 20.447917 11.164062 20.679688 11.065104 20.739583 C 10.143229 21.291667 9.679688 21.84375 9.606771 22.210938 C 9.583333 22.320312 9.601562 22.450521 9.695312 22.507812 L 9.929688 22.625 C 10.572917 22.947917 11.364583 22.101562 12.414062 20.260417 C 13.481771 19.908854 14.815104 19.580729 16.03125 19.403646 C 17.117188 20.023438 18.364583 20.320312 18.84375 20.190104 C 18.9375 20.166667 19.03125 20.09375 19.080729 20.028646 C 19.117188 19.96875 19.174479 19.726562 19.174479 19.726562 C 19.174479 19.726562 19.083333 19.846354 19.007812 19.885417 C 18.705729 20.028646 17.747396 19.789062 16.768229 19.309896 C 17.614583 19.21875 18.322917 19.216146 18.700521 19.335938 C 19.179688 19.489583 19.179688 19.645833 19.174479 19.677083 C 19.179688 19.653646 19.200521 19.544271 19.200521 19.5 C 19.190104 19.385417 19.153646 19.283854 19.065104 19.197917 C 18.888021 19.023438 18.450521 18.934896 17.851562 18.927083 C 17.403646 18.924479 16.861979 18.960938 16.273438 19.044271 C 16.002604 18.893229 15.721354 18.721354 15.497396 18.510417 C 14.927083 17.979167 14.447917 17.239583 14.153646 16.408854 C 14.169271 16.330729 14.190104 16.252604 14.208333 16.174479 C 14.291667 15.802083 14.351562 14.575521 14.351562 14.575521 C 14.351562 14.575521 14.114583 15.5 14.080729 15.638021 C 14.054688 15.726562 14.023438 15.820312 13.992188 15.916667 C 13.8125 15.283854 13.71875 14.669271 13.71875 14.205729 C 13.71875 14.075521 13.731771 13.820312 13.768229 13.617188 C 13.789062 13.471354 13.841146 13.398438 13.893229 13.361979 C 14 13.388021 14.122396 13.552083 14.247396 13.825521 C 14.354167 14.065104 14.346354 14.341146 14.346354 14.510417 C 14.346354 14.510417 14.460938 14.091146 14.4375 13.841146 C 14.419271 13.690104 14.278646 13.304688 13.971354 13.309896 L 13.947917 13.309896 L 13.8125 13.304688 Z M 13.916667 17.138021 C 14.229167 17.770833 14.664062 18.367188 15.231771 18.846354 C 15.356771 18.955729 15.492188 19.059896 15.632812 19.153646 C 14.601562 19.34375 13.518229 19.614583 12.510417 20.033854 C 12.695312 19.710938 12.888021 19.361979 13.091146 18.981771 C 13.481771 18.242188 13.71875 17.674479 13.916667 17.138021 Z M 13.916667 17.138021 " transform="matrix(1.5,0,0,1.5,0,0)"/>
<path style=" stroke:none;fill-rule:evenodd;fill:rgb(100%,66.27451%,24.313725%);fill-opacity:1;" d="M 41.894531 33.566406 C 41.894531 38.535156 37.863281 42.566406 32.894531 42.566406 C 27.925781 42.566406 23.894531 38.535156 23.894531 33.566406 C 23.894531 28.59375 27.925781 24.566406 32.894531 24.566406 C 37.863281 24.566406 41.894531 28.59375 41.894531 33.566406 Z M 41.894531 33.566406 "/>
<path style=" stroke:none;fill-rule:nonzero;fill:rgb(100%,100%,100%);fill-opacity:1;" d="M 28.394531 36.0625 L 28.394531 38.066406 L 30.402344 38.066406 L 35.464844 33.003906 L 33.457031 31 Z M 37.234375 31.234375 C 37.449219 31.027344 37.449219 30.691406 37.234375 30.480469 L 35.984375 29.222656 C 35.769531 29.015625 35.4375 29.015625 35.222656 29.222656 L 34.175781 30.28125 L 36.183594 32.285156 Z M 37.234375 31.234375 "/>
</g>
</svg>
