<?xml version="1.0" encoding="UTF-8"?>
<svg xmlns="http://www.w3.org/2000/svg" xmlns:xlink="http://www.w3.org/1999/xlink" width="48pt" height="48pt" viewBox="0 0 48 48" version="1.1">
<g id="surface1">
<path style=" stroke:none;fill-rule:evenodd;fill:rgb(98.039216%,74.117647%,49.803922%);fill-opacity:1;" d="M 11.207031 2.847656 L 36.792969 2.847656 C 41.40625 2.847656 45.152344 6.59375 45.152344 11.207031 L 45.152344 36.792969 C 45.152344 41.40625 41.40625 45.152344 36.792969 45.152344 L 11.207031 45.152344 C 6.59375 45.152344 2.847656 41.40625 2.847656 36.792969 L 2.847656 11.207031 C 2.847656 6.59375 6.59375 2.847656 11.207031 2.847656 Z M 11.207031 2.847656 "/>
<path style=" stroke:none;fill-rule:nonzero;fill:rgb(24.705882%,24.705882%,24.705882%);fill-opacity:1;" d="M 21.859375 9 C 21.265625 9 20.785156 9.515625 20.785156 10.15625 L 20.785156 28.613281 L 16.5 28.613281 L 24 39 L 31.5 28.613281 L 27.214844 28.613281 L 27.214844 10.15625 C 27.214844 9.515625 26.734375 9 26.140625 9 Z M 21.859375 9 "/>
<path style=" stroke:none;fill-rule:nonzero;fill:rgb(97.647059%,97.647059%,97.647059%);fill-opacity:1;" d="M 42.613281 33.375 C 42.613281 38.34375 38.582031 42.375 33.613281 42.375 C 28.640625 42.375 24.613281 38.34375 24.613281 33.375 C 24.613281 28.40625 28.640625 24.375 33.613281 24.375 C 38.582031 24.375 42.613281 28.40625 42.613281 33.375 Z M 42.613281 33.375 "/>
<path style=" stroke:none;fill-rule:nonzero;fill:rgb(24.705882%,24.705882%,24.705882%);fill-opacity:1;" d="M 28.8125 28.574219 L 28.8125 31.191406 L 38.417969 31.191406 L 38.417969 28.574219 Z M 28.8125 32.066406 L 28.8125 34.6875 L 38.417969 34.6875 L 38.417969 32.066406 Z M 28.8125 35.558594 L 28.8125 38.175781 L 38.417969 38.175781 L 38.417969 35.558594 Z M 28.8125 35.558594 "/>
</g>
</svg>
