<?xml version="1.0" encoding="UTF-8"?>
<svg xmlns="http://www.w3.org/2000/svg" xmlns:xlink="http://www.w3.org/1999/xlink" width="48pt" height="48pt" viewBox="0 0 48 48" version="1.1">
<g id="surface1">
<path style=" stroke:none;fill-rule:evenodd;fill:rgb(11.764706%,50.196078%,100%);fill-opacity:1;" d="M 11.207031 2.847656 L 36.792969 2.847656 C 41.40625 2.847656 45.152344 6.59375 45.152344 11.207031 L 45.152344 36.792969 C 45.152344 41.40625 41.40625 45.152344 36.792969 45.152344 L 11.207031 45.152344 C 6.59375 45.152344 2.847656 41.40625 2.847656 36.792969 L 2.847656 11.207031 C 2.847656 6.59375 6.59375 2.847656 11.207031 2.847656 Z M 11.207031 2.847656 "/>
<path style=" stroke:none;fill-rule:nonzero;fill:rgb(100%,100%,100%);fill-opacity:1;" d="M 20.328125 6.859375 L 20.328125 9.785156 C 15.160156 11.125 11.128906 15.160156 9.792969 20.328125 L 6.859375 20.328125 L 6.859375 27.671875 L 9.785156 27.671875 C 11.125 32.839844 15.160156 36.871094 20.328125 38.207031 L 20.328125 41.140625 L 27.671875 41.140625 L 27.671875 38.214844 C 32.839844 36.875 36.871094 32.839844 38.207031 27.671875 L 41.140625 27.671875 L 41.140625 20.328125 L 38.214844 20.328125 C 36.875 15.160156 32.839844 11.128906 27.671875 9.792969 L 27.671875 6.859375 Z M 20.328125 6.859375 "/>
<path style=" stroke:none;fill-rule:nonzero;fill:rgb(11.764706%,50.196078%,100%);fill-opacity:1;" d="M 32.566406 24 C 32.566406 19.265625 28.734375 15.433594 24 15.433594 C 19.265625 15.433594 15.433594 19.265625 15.433594 24 C 15.433594 28.734375 19.265625 32.566406 24 32.566406 C 28.734375 32.566406 32.566406 28.734375 32.566406 24 Z M 32.566406 24 "/>
</g>
</svg>
