<?xml version="1.0" encoding="UTF-8"?>
<svg xmlns="http://www.w3.org/2000/svg" xmlns:xlink="http://www.w3.org/1999/xlink" width="48pt" height="48pt" viewBox="0 0 48 48" version="1.1">
<g id="surface1">
<path style=" stroke:none;fill-rule:evenodd;fill:rgb(30.196078%,30.196078%,30.196078%);fill-opacity:1;" d="M 11.207031 2.847656 L 36.792969 2.847656 C 41.40625 2.847656 45.152344 6.59375 45.152344 11.207031 L 45.152344 36.792969 C 45.152344 41.40625 41.40625 45.152344 36.792969 45.152344 L 11.207031 45.152344 C 6.59375 45.152344 2.847656 41.40625 2.847656 36.792969 L 2.847656 11.207031 C 2.847656 6.59375 6.59375 2.847656 11.207031 2.847656 Z M 11.207031 2.847656 "/>
<path style=" stroke:none;fill-rule:nonzero;fill:rgb(38.823529%,38.823529%,38.823529%);fill-opacity:1;" d="M 7.792969 40.65625 C 7.65625 40.59375 7.449219 40.40625 7.378906 40.277344 C 7.339844 40.199219 7.324219 39.128906 7.324219 36.277344 L 7.324219 32.390625 L 6.902344 32.390625 C 6.542969 32.390625 6.457031 32.371094 6.292969 32.265625 C 5.9375 32.042969 5.941406 32.121094 5.941406 29.5625 C 5.941406 27.035156 5.9375 27.097656 6.253906 26.859375 C 6.394531 26.753906 6.472656 26.734375 6.871094 26.722656 L 7.324219 26.707031 L 7.324219 24.074219 L 6.902344 24.074219 C 6.410156 24.074219 6.25 24.011719 6.066406 23.746094 L 5.941406 23.5625 L 5.941406 19.855469 C 5.941406 16.421875 5.953125 16.140625 6.03125 16.015625 C 6.230469 15.707031 6.441406 15.613281 6.953125 15.613281 L 7.324219 15.613281 L 7.324219 13.167969 C 7.324219 10.433594 7.328125 10.472656 6.980469 10.292969 C 6.832031 10.214844 6.6875 10.203125 5.949219 10.203125 C 4.984375 10.203125 4.863281 10.167969 4.667969 9.84375 C 4.578125 9.703125 4.566406 9.597656 4.566406 8.746094 C 4.566406 7.855469 4.574219 7.796875 4.675781 7.644531 C 4.902344 7.316406 4.984375 7.300781 6.390625 7.300781 C 7.746094 7.300781 8.121094 7.347656 8.609375 7.597656 C 9.253906 7.925781 9.84375 8.621094 10.027344 9.265625 C 10.058594 9.390625 10.109375 9.542969 10.128906 9.605469 C 10.15625 9.667969 10.175781 10.113281 10.175781 10.597656 L 10.175781 11.480469 L 25.449219 11.480469 C 39.105469 11.480469 40.75 11.488281 41.027344 11.558594 C 42.027344 11.800781 42.933594 12.652344 43.285156 13.671875 L 43.40625 14.015625 L 43.417969 23.238281 L 43.433594 32.464844 L 43.308594 32.855469 C 42.980469 33.871094 42.222656 34.644531 41.21875 35.003906 C 40.917969 35.109375 40.800781 35.121094 39.402344 35.144531 L 37.90625 35.167969 L 37.890625 36.316406 C 37.878906 37.589844 37.875 37.597656 37.546875 37.824219 C 37.40625 37.921875 37.324219 37.921875 34.386719 37.917969 C 31.453125 37.917969 31.371094 37.910156 31.238281 37.816406 C 31.167969 37.761719 31.058594 37.644531 30.996094 37.558594 C 30.890625 37.394531 30.886719 37.355469 30.886719 36.265625 L 30.886719 35.144531 L 28.183594 35.144531 L 28.183594 36.269531 C 28.183594 37.53125 28.160156 37.625 27.828125 37.824219 C 27.671875 37.917969 27.511719 37.917969 21.894531 37.917969 C 16.199219 37.917969 16.121094 37.910156 15.988281 37.816406 C 15.917969 37.761719 15.808594 37.644531 15.746094 37.558594 C 15.640625 37.394531 15.636719 37.355469 15.636719 36.265625 L 15.636719 35.144531 L 10.175781 35.144531 L 10.175781 37.636719 C 10.175781 40.078125 10.171875 40.125 10.074219 40.308594 C 10.015625 40.410156 9.886719 40.542969 9.78125 40.597656 C 9.613281 40.691406 9.527344 40.703125 8.746094 40.699219 C 8.269531 40.699219 7.84375 40.675781 7.792969 40.65625 Z M 18.441406 35.78125 L 18.441406 35.144531 L 17.113281 35.144531 L 17.113281 36.421875 L 18.441406 36.421875 Z M 21.191406 35.78125 L 21.191406 35.144531 L 19.863281 35.144531 L 19.863281 36.421875 L 21.191406 36.421875 Z M 23.949219 35.78125 L 23.949219 35.144531 L 22.6875 35.144531 L 22.652344 35.449219 C 22.636719 35.613281 22.621094 35.902344 22.621094 36.082031 L 22.621094 36.421875 L 23.949219 36.421875 Z M 26.753906 35.78125 L 26.753906 35.144531 L 25.425781 35.144531 L 25.425781 36.421875 L 26.753906 36.421875 Z M 33.691406 35.78125 L 33.691406 35.144531 L 32.363281 35.144531 L 32.363281 36.421875 L 33.691406 36.421875 Z M 36.441406 35.78125 L 36.441406 35.144531 L 35.113281 35.144531 L 35.113281 36.421875 L 36.441406 36.421875 Z M 33.496094 29.375 C 33.640625 29.332031 33.933594 29.25 34.136719 29.1875 C 35.691406 28.734375 37.214844 27.316406 37.746094 25.816406 C 37.796875 25.683594 37.847656 25.53125 37.871094 25.480469 C 37.988281 25.175781 38.121094 24.628906 38.171875 24.203125 C 38.246094 23.582031 38.207031 22.402344 38.09375 21.910156 C 37.792969 20.613281 37.183594 19.519531 36.300781 18.707031 C 35.847656 18.285156 35.511719 18.046875 34.9375 17.753906 C 34.484375 17.519531 34.457031 17.511719 33.691406 17.296875 L 33.222656 17.167969 L 24.707031 17.152344 L 16.199219 17.136719 L 16.027344 17.25 C 15.6875 17.480469 15.707031 17.0625 15.707031 23.3125 C 15.707031 29.5625 15.6875 29.144531 16.027344 29.375 L 16.199219 29.488281 L 24.707031 29.472656 C 32.386719 29.457031 33.25 29.449219 33.496094 29.375 Z M 31.082031 28.058594 C 30.703125 28.003906 30.09375 27.871094 30.027344 27.8125 C 30 27.796875 29.894531 27.75 29.796875 27.71875 C 29.519531 27.628906 28.859375 27.21875 28.515625 26.921875 C 27.753906 26.265625 27.28125 25.46875 26.964844 24.324219 C 26.871094 23.988281 26.855469 22.613281 26.941406 22.355469 C 27.316406 21.203125 27.5 20.84375 27.984375 20.25 C 28.566406 19.546875 29.285156 19.066406 30.246094 18.746094 L 30.8125 18.550781 L 31.625 18.550781 C 32.5 18.550781 32.621094 18.574219 33.472656 18.910156 C 34.84375 19.457031 35.957031 20.828125 36.292969 22.378906 C 36.71875 24.394531 35.640625 26.644531 33.796875 27.5625 C 33.484375 27.71875 32.90625 27.917969 32.535156 28.003906 C 32.183594 28.082031 31.457031 28.109375 31.082031 28.058594 Z M 32.15625 25.394531 C 32.644531 25.269531 33.136719 24.917969 33.4375 24.46875 C 34.378906 23.050781 33.34375 21.171875 31.621094 21.171875 C 30.667969 21.171875 29.859375 21.75 29.558594 22.644531 C 29.394531 23.125 29.441406 23.765625 29.667969 24.25 C 29.792969 24.527344 30.207031 24.984375 30.472656 25.140625 C 30.953125 25.421875 31.636719 25.527344 32.15625 25.394531 Z M 18.433594 24.800781 C 18.421875 24.441406 18.421875 24.097656 18.433594 24.042969 L 18.449219 23.933594 L 21.191406 23.925781 C 23.488281 23.925781 23.949219 23.9375 23.996094 23.996094 C 24.03125 24.042969 24.046875 24.28125 24.035156 24.746094 L 24.027344 25.425781 L 21.234375 25.441406 L 18.449219 25.453125 Z M 18.449219 22.589844 C 18.425781 22.546875 18.421875 22.207031 18.433594 21.839844 L 18.449219 21.171875 L 21.21875 21.171875 C 23.699219 21.171875 23.988281 21.183594 24.019531 21.25 C 24.078125 21.40625 24.050781 22.59375 23.984375 22.636719 C 23.953125 22.65625 22.699219 22.671875 21.203125 22.671875 C 18.699219 22.671875 18.472656 22.667969 18.449219 22.589844 Z M 18.449219 22.589844 "/>
<path style=" stroke:none;fill-rule:nonzero;fill:rgb(100%,100%,100%);fill-opacity:1;" d="M 17.28125 26.199219 L 17.28125 28.71875 L 15.324219 28.71875 L 15.324219 38.84375 L 12.03125 38.84375 L 12.03125 28.71875 L 10.09375 28.71875 L 10.09375 26.199219 Z M 17.28125 26.199219 "/>
<path style=" stroke:none;fill-rule:nonzero;fill:rgb(100%,100%,100%);fill-opacity:1;" d="M 25.074219 33.84375 L 20.988281 33.84375 L 20.988281 36.09375 C 20.988281 36.554688 21.019531 36.855469 21.09375 36.992188 C 21.160156 37.132812 21.292969 37.199219 21.488281 37.199219 C 21.722656 37.199219 21.886719 37.109375 21.96875 36.929688 C 22.050781 36.75 22.09375 36.402344 22.09375 35.886719 L 22.09375 34.511719 L 25.074219 34.511719 L 25.074219 35.28125 C 25.074219 35.921875 25.03125 36.417969 24.949219 36.761719 C 24.875 37.109375 24.6875 37.480469 24.386719 37.867188 C 24.09375 38.257812 23.71875 38.546875 23.261719 38.742188 C 22.800781 38.933594 22.230469 39.03125 21.550781 39.03125 C 20.886719 39.03125 20.292969 38.933594 19.78125 38.742188 C 19.265625 38.546875 18.863281 38.28125 18.574219 37.949219 C 18.292969 37.617188 18.097656 37.25 17.988281 36.84375 C 17.890625 36.445312 17.84375 35.855469 17.84375 35.074219 L 17.84375 32.054688 C 17.84375 31.152344 17.957031 30.4375 18.199219 29.90625 C 18.449219 29.382812 18.847656 28.980469 19.40625 28.699219 C 19.957031 28.421875 20.597656 28.28125 21.324219 28.28125 C 22.207031 28.28125 22.9375 28.460938 23.511719 28.804688 C 24.09375 29.136719 24.496094 29.585938 24.71875 30.136719 C 24.953125 30.695312 25.074219 31.46875 25.074219 32.46875 Z M 21.90625 32.15625 L 21.90625 31.40625 C 21.90625 30.867188 21.875 30.523438 21.824219 30.367188 C 21.765625 30.199219 21.644531 30.117188 21.46875 30.117188 C 21.261719 30.117188 21.125 30.1875 21.074219 30.324219 C 21.015625 30.464844 20.988281 30.824219 20.988281 31.40625 L 20.988281 32.15625 Z M 21.90625 32.15625 "/>
<path style=" stroke:none;fill-rule:nonzero;fill:rgb(100%,100%,100%);fill-opacity:1;" d="M 32.542969 31.78125 L 29.753906 31.78125 L 29.753906 31.21875 C 29.753906 30.75 29.722656 30.449219 29.667969 30.324219 C 29.613281 30.1875 29.480469 30.117188 29.273438 30.117188 C 29.089844 30.117188 28.949219 30.179688 28.855469 30.304688 C 28.773438 30.417969 28.730469 30.589844 28.730469 30.824219 C 28.730469 31.148438 28.753906 31.382812 28.792969 31.53125 C 28.835938 31.671875 28.964844 31.835938 29.191406 32.011719 C 29.410156 32.195312 29.867188 32.449219 30.566406 32.78125 C 31.480469 33.242188 32.074219 33.667969 32.355469 34.054688 C 32.648438 34.460938 32.792969 35.03125 32.792969 35.78125 C 32.792969 36.632812 32.679688 37.273438 32.460938 37.699219 C 32.253906 38.132812 31.886719 38.464844 31.378906 38.699219 C 30.863281 38.917969 30.242188 39.03125 29.523438 39.03125 C 28.714844 39.03125 28.027344 38.90625 27.460938 38.65625 C 26.886719 38.40625 26.492188 38.070312 26.273438 37.636719 C 26.066406 37.210938 25.960938 36.5625 25.960938 35.699219 L 25.960938 35.199219 L 28.753906 35.199219 L 28.753906 35.867188 C 28.753906 36.421875 28.785156 36.78125 28.855469 36.949219 C 28.925781 37.117188 29.066406 37.199219 29.273438 37.199219 C 29.492188 37.199219 29.648438 37.148438 29.730469 37.03125 C 29.824219 36.921875 29.878906 36.6875 29.878906 36.324219 C 29.878906 35.824219 29.820312 35.511719 29.710938 35.386719 C 29.585938 35.261719 28.972656 34.898438 27.878906 34.28125 C 26.945312 33.757812 26.378906 33.28125 26.167969 32.867188 C 25.972656 32.4375 25.878906 31.929688 25.878906 31.34375 C 25.878906 30.527344 25.980469 29.921875 26.191406 29.53125 C 26.410156 29.132812 26.785156 28.824219 27.316406 28.617188 C 27.839844 28.398438 28.449219 28.28125 29.148438 28.28125 C 29.824219 28.28125 30.402344 28.375 30.878906 28.554688 C 31.363281 28.71875 31.738281 28.949219 32.003906 29.242188 C 32.261719 29.53125 32.417969 29.804688 32.460938 30.054688 C 32.511719 30.292969 32.542969 30.667969 32.542969 31.179688 Z M 32.542969 31.78125 "/>
<path style=" stroke:none;fill-rule:nonzero;fill:rgb(100%,100%,100%);fill-opacity:1;" d="M 36.972656 27.09375 L 36.972656 28.71875 L 37.824219 28.71875 L 37.824219 30.367188 L 36.972656 30.367188 L 36.972656 35.90625 C 36.972656 36.589844 37.003906 36.96875 37.074219 37.054688 C 37.144531 37.136719 37.433594 37.179688 37.949219 37.179688 L 37.949219 38.84375 L 36.679688 38.84375 C 35.957031 38.84375 35.441406 38.820312 35.136719 38.761719 C 34.832031 38.695312 34.558594 38.554688 34.324219 38.34375 C 34.085938 38.125 33.941406 37.875 33.886719 37.59375 C 33.832031 37.320312 33.804688 36.667969 33.804688 35.636719 L 33.804688 30.367188 L 33.117188 30.367188 L 33.117188 28.71875 L 33.804688 28.71875 L 33.804688 27.09375 Z M 36.972656 27.09375 "/>
<path style=" stroke:none;fill-rule:nonzero;fill:rgb(100%,24.705882%,25.882353%);fill-opacity:1;" d="M 19.199219 14.152344 L 15.90625 14.152344 L 15.90625 13.007812 C 15.90625 12.289062 15.871094 11.835938 15.800781 11.652344 C 15.746094 11.476562 15.597656 11.382812 15.363281 11.382812 C 15.15625 11.382812 15.015625 11.460938 14.949219 11.609375 C 14.875 11.765625 14.84375 12.167969 14.84375 12.820312 L 14.84375 18.882812 C 14.84375 19.453125 14.875 19.828125 14.949219 20.007812 C 15.015625 20.1875 15.160156 20.277344 15.386719 20.277344 C 15.621094 20.277344 15.78125 20.183594 15.863281 19.984375 C 15.957031 19.777344 16.011719 19.375 16.011719 18.777344 L 16.011719 17.277344 L 15.34375 17.277344 L 15.34375 15.359375 L 19.199219 15.359375 L 19.199219 22.152344 L 17.113281 22.152344 L 16.824219 21.234375 C 16.597656 21.640625 16.3125 21.9375 15.96875 22.132812 C 15.636719 22.324219 15.230469 22.421875 14.761719 22.421875 C 14.203125 22.421875 13.683594 22.289062 13.199219 22.027344 C 12.722656 21.75 12.363281 21.417969 12.113281 21.027344 C 11.863281 20.625 11.703125 20.210938 11.636719 19.777344 C 11.578125 19.335938 11.550781 18.683594 11.550781 17.820312 L 11.550781 14.046875 C 11.550781 12.839844 11.613281 11.964844 11.738281 11.421875 C 11.875 10.882812 12.25 10.382812 12.863281 9.921875 C 13.488281 9.464844 14.285156 9.234375 15.261719 9.234375 C 16.230469 9.234375 17.03125 9.4375 17.65625 9.839844 C 18.292969 10.230469 18.707031 10.695312 18.90625 11.234375 C 19.097656 11.777344 19.199219 12.570312 19.199219 13.609375 Z M 19.199219 14.152344 "/>
<path style=" stroke:none;fill-rule:nonzero;fill:rgb(100%,24.705882%,25.882353%);fill-opacity:1;" d="M 23.582031 11.777344 L 23.539062 12.695312 C 23.816406 12.335938 24.121094 12.0625 24.457031 11.882812 C 24.800781 11.6875 25.167969 11.589844 25.558594 11.589844 C 26.058594 11.589844 26.480469 11.726562 26.832031 11.984375 C 27.191406 12.25 27.414062 12.558594 27.496094 12.902344 C 27.589844 13.25 27.644531 13.835938 27.644531 14.652344 L 27.644531 19.027344 C 27.644531 19.960938 27.585938 20.625 27.476562 21.027344 C 27.363281 21.433594 27.132812 21.75 26.789062 21.984375 C 26.441406 22.21875 26.023438 22.339844 25.539062 22.339844 C 25.132812 22.339844 24.769531 22.246094 24.433594 22.070312 C 24.101562 21.890625 23.800781 21.621094 23.539062 21.257812 L 23.539062 23.632812 L 20.371094 23.632812 L 20.371094 11.777344 Z M 24.476562 14.796875 C 24.476562 14.164062 24.457031 13.773438 24.414062 13.632812 C 24.371094 13.496094 24.238281 13.421875 24.019531 13.421875 C 23.808594 13.421875 23.675781 13.507812 23.621094 13.671875 C 23.566406 13.828125 23.539062 14.203125 23.539062 14.796875 L 23.539062 19.089844 C 23.539062 19.714844 23.566406 20.109375 23.621094 20.277344 C 23.691406 20.433594 23.832031 20.507812 24.039062 20.507812 C 24.230469 20.507812 24.351562 20.4375 24.394531 20.296875 C 24.445312 20.148438 24.476562 19.792969 24.476562 19.234375 Z M 24.476562 14.796875 "/>
<path style=" stroke:none;fill-rule:nonzero;fill:rgb(100%,24.705882%,25.882353%);fill-opacity:1;" d="M 35.90625 11.777344 L 35.90625 22.152344 L 32.695312 22.152344 L 32.738281 21.296875 C 32.53125 21.648438 32.265625 21.914062 31.945312 22.089844 C 31.625 22.257812 31.257812 22.339844 30.84375 22.339844 C 30.351562 22.339844 29.953125 22.257812 29.632812 22.089844 C 29.328125 21.921875 29.097656 21.703125 28.945312 21.421875 C 28.804688 21.148438 28.71875 20.859375 28.675781 20.570312 C 28.644531 20.265625 28.632812 19.667969 28.632812 18.777344 L 28.632812 11.777344 L 31.78125 11.777344 L 31.78125 18.839844 C 31.78125 19.648438 31.800781 20.125 31.84375 20.277344 C 31.894531 20.433594 32.035156 20.507812 32.257812 20.507812 C 32.492188 20.507812 32.632812 20.433594 32.675781 20.277344 C 32.71875 20.109375 32.738281 19.605469 32.738281 18.757812 L 32.738281 11.777344 Z M 35.90625 11.777344 "/>
</g>
</svg>
