<?xml version="1.0" encoding="UTF-8"?>
<svg xmlns="http://www.w3.org/2000/svg" xmlns:xlink="http://www.w3.org/1999/xlink" width="48pt" height="48pt" viewBox="0 0 48 48" version="1.1">
<g id="surface1">
<path style=" stroke:none;fill-rule:evenodd;fill:rgb(67.45098%,54.117647%,47.058824%);fill-opacity:1;" d="M 11.207031 2.847656 L 36.792969 2.847656 C 41.40625 2.847656 45.152344 6.59375 45.152344 11.207031 L 45.152344 36.792969 C 45.152344 41.40625 41.40625 45.152344 36.792969 45.152344 L 11.207031 45.152344 C 6.59375 45.152344 2.847656 41.40625 2.847656 36.792969 L 2.847656 11.207031 C 2.847656 6.59375 6.59375 2.847656 11.207031 2.847656 Z M 11.207031 2.847656 "/>
<path style="fill:none;stroke-width:1;stroke-linecap:butt;stroke-linejoin:miter;stroke:rgb(28.627451%,28.627451%,28.627451%);stroke-opacity:1;stroke-miterlimit:4;" d="M 10.5 15 L 10.5 9.5 L 22.5 9.5 L 22.5 15 " transform="matrix(1.5,0,0,1.5,-0.75,0.75)"/>
<path style="fill:none;stroke-width:1;stroke-linecap:butt;stroke-linejoin:miter;stroke:rgb(28.627451%,28.627451%,28.627451%);stroke-opacity:1;stroke-miterlimit:4;" d="M 13.5 22 L 13.5 15.5 L 25.5 15.5 L 25.5 22 " transform="matrix(1.5,0,0,1.5,-0.75,0.75)"/>
<path style="fill:none;stroke-width:1;stroke-linecap:butt;stroke-linejoin:miter;stroke:rgb(28.627451%,28.627451%,28.627451%);stroke-opacity:1;stroke-miterlimit:4;" d="M 7.5 22 L 7.5 15.5 L 19.5 15.5 L 19.5 22 " transform="matrix(1.5,0,0,1.5,-0.75,0.75)"/>
<path style=" stroke:none;fill-rule:nonzero;fill:rgb(100%,100%,100%);fill-opacity:1;" d="M 8.25 30.75 L 12.75 30.75 L 12.75 36.75 L 8.25 36.75 Z M 8.25 30.75 "/>
<path style=" stroke:none;fill-rule:nonzero;fill:rgb(100%,100%,100%);fill-opacity:1;" d="M 17.25 30.75 L 21.75 30.75 L 21.75 36.75 L 17.25 36.75 Z M 17.25 30.75 "/>
<path style=" stroke:none;fill-rule:nonzero;fill:rgb(100%,100%,100%);fill-opacity:1;" d="M 26.25 30.75 L 30.75 30.75 L 30.75 36.75 L 26.25 36.75 Z M 26.25 30.75 "/>
<path style=" stroke:none;fill-rule:nonzero;fill:rgb(100%,100%,100%);fill-opacity:1;" d="M 21.75 11.25 L 26.25 11.25 L 26.25 17.25 L 21.75 17.25 Z M 21.75 11.25 "/>
<path style=" stroke:none;fill-rule:nonzero;fill:rgb(100%,100%,100%);fill-opacity:1;" d="M 12.75 20.25 L 17.25 20.25 L 17.25 26.25 L 12.75 26.25 Z M 12.75 20.25 "/>
<path style=" stroke:none;fill-rule:nonzero;fill:rgb(100%,100%,100%);fill-opacity:1;" d="M 30.75 20.25 L 35.25 20.25 L 35.25 26.25 L 30.75 26.25 Z M 30.75 20.25 "/>
<path style=" stroke:none;fill-rule:nonzero;fill:rgb(100%,100%,100%);fill-opacity:1;" d="M 35.25 30.75 L 39.75 30.75 L 39.75 36.75 L 35.25 36.75 Z M 35.25 30.75 "/>
</g>
</svg>
