<?xml version="1.0" encoding="UTF-8"?>
<svg xmlns="http://www.w3.org/2000/svg" xmlns:xlink="http://www.w3.org/1999/xlink" width="48pt" height="48pt" viewBox="0 0 48 48" version="1.1">
<g id="surface1">
<path style=" stroke:none;fill-rule:evenodd;fill:rgb(30.980392%,30.980392%,30.980392%);fill-opacity:1;" d="M 11.207031 2.847656 L 36.792969 2.847656 C 41.40625 2.847656 45.152344 6.59375 45.152344 11.207031 L 45.152344 36.792969 C 45.152344 41.40625 41.40625 45.152344 36.792969 45.152344 L 11.207031 45.152344 C 6.59375 45.152344 2.847656 41.40625 2.847656 36.792969 L 2.847656 11.207031 C 2.847656 6.59375 6.59375 2.847656 11.207031 2.847656 Z M 11.207031 2.847656 "/>
<path style=" stroke:none;fill-rule:nonzero;fill:rgb(70.588235%,70.588235%,70.588235%);fill-opacity:1;" d="M 10.53125 13.5 L 10.605469 14.121094 C 10.738281 15.277344 10.886719 15.644531 11.277344 15.847656 C 11.472656 15.953125 11.675781 16.171875 11.71875 16.34375 C 11.800781 16.671875 12.015625 16.761719 12.015625 16.464844 C 12.015625 16.363281 11.792969 15.847656 11.519531 15.324219 C 11.246094 14.796875 11.019531 14.308594 11.019531 14.238281 C 11.019531 14.171875 10.910156 13.980469 10.777344 13.808594 Z M 37.46875 13.5 L 37.222656 13.808594 C 37.089844 13.980469 36.980469 14.171875 36.980469 14.238281 C 36.972656 14.308594 36.75 14.796875 36.480469 15.324219 C 36.207031 15.847656 35.984375 16.363281 35.984375 16.464844 C 35.984375 16.761719 36.199219 16.671875 36.28125 16.34375 C 36.324219 16.171875 36.527344 15.953125 36.722656 15.847656 C 37.113281 15.644531 37.253906 15.277344 37.394531 14.121094 Z M 9.265625 14.183594 C 9.191406 14.183594 9.175781 14.269531 9.230469 14.394531 C 9.4375 14.890625 9.441406 15.167969 9.238281 15.167969 C 9.128906 15.167969 9.042969 15.207031 9.042969 15.261719 C 9.042969 15.453125 9.449219 15.925781 9.703125 16.03125 C 10.011719 16.15625 10.28125 16.183594 10.28125 16.09375 C 10.28125 16.058594 10.222656 15.925781 10.15625 15.8125 C 10.09375 15.691406 9.980469 15.363281 9.90625 15.078125 C 9.777344 14.558594 9.503906 14.183594 9.265625 14.183594 Z M 38.730469 14.183594 C 38.488281 14.183594 38.21875 14.558594 38.089844 15.078125 C 38.015625 15.363281 37.90625 15.691406 37.839844 15.8125 C 37.769531 15.925781 37.71875 16.058594 37.71875 16.09375 C 37.71875 16.183594 37.988281 16.15625 38.296875 16.03125 C 38.550781 15.925781 38.957031 15.453125 38.957031 15.261719 C 38.957031 15.207031 38.863281 15.167969 38.753906 15.167969 C 38.550781 15.167969 38.558594 14.890625 38.769531 14.394531 C 38.824219 14.269531 38.808594 14.183594 38.730469 14.183594 Z M 23.957031 14.484375 C 24 14.59375 23.964844 14.671875 23.863281 14.671875 C 23.453125 14.671875 23.296875 16.15625 23.605469 17.078125 C 23.6875 17.324219 23.6875 17.324219 23.535156 17.078125 C 23.285156 16.667969 22.890625 16.277344 22.730469 16.277344 C 22.640625 16.277344 22.53125 16.441406 22.488281 16.644531 C 22.441406 16.847656 22.355469 17.015625 22.285156 17.015625 C 22.21875 17.015625 22.199219 16.964844 22.238281 16.894531 C 22.28125 16.828125 22.265625 16.683594 22.203125 16.566406 C 22.097656 16.378906 22.074219 16.386719 21.949219 16.625 C 21.832031 16.828125 21.84375 16.984375 21.988281 17.339844 C 22.230469 17.902344 22.230469 18 21.984375 18 C 21.722656 18 21.828125 18.300781 22.105469 18.355469 C 22.347656 18.402344 22.796875 18.046875 22.796875 17.808594 C 22.796875 17.71875 22.859375 17.609375 22.933594 17.566406 C 23.128906 17.449219 23.34375 17.703125 23.21875 17.902344 C 23.160156 17.988281 23.109375 18.105469 23.109375 18.144531 C 23.109375 18.191406 22.953125 18.355469 22.761719 18.5 C 22.316406 18.847656 22.332031 19.402344 22.78125 19.464844 C 22.953125 19.488281 23.042969 19.457031 23 19.386719 C 22.953125 19.3125 23.046875 19.316406 23.21875 19.394531 C 23.378906 19.472656 23.566406 19.6875 23.640625 19.878906 C 23.765625 19.875 23.886719 19.859375 24 19.832031 C 24.113281 19.859375 24.230469 19.875 24.359375 19.878906 C 24.433594 19.6875 24.621094 19.472656 24.78125 19.394531 C 24.953125 19.316406 25.042969 19.3125 24.996094 19.386719 C 24.953125 19.457031 25.046875 19.488281 25.214844 19.464844 C 25.667969 19.402344 25.675781 18.847656 25.234375 18.5 C 25.042969 18.355469 24.886719 18.191406 24.886719 18.144531 C 24.886719 18.105469 24.839844 17.988281 24.78125 17.902344 C 24.652344 17.703125 24.871094 17.449219 25.0625 17.566406 C 25.136719 17.609375 25.199219 17.71875 25.199219 17.808594 C 25.199219 18.046875 25.644531 18.402344 25.890625 18.355469 C 26.167969 18.300781 26.269531 18 26.015625 18 C 25.769531 18 25.769531 17.902344 26.003906 17.339844 C 26.152344 16.984375 26.160156 16.828125 26.050781 16.625 C 25.925781 16.386719 25.902344 16.378906 25.796875 16.566406 C 25.734375 16.683594 25.714844 16.828125 25.753906 16.894531 C 25.796875 16.964844 25.777344 17.015625 25.707031 17.015625 C 25.640625 17.015625 25.550781 16.847656 25.511719 16.644531 C 25.464844 16.441406 25.355469 16.277344 25.269531 16.277344 C 25.105469 16.277344 24.714844 16.667969 24.464844 17.078125 C 24.3125 17.324219 24.308594 17.324219 24.390625 17.078125 C 24.703125 16.15625 24.542969 14.671875 24.128906 14.671875 C 24.035156 14.671875 23.996094 14.59375 24.035156 14.484375 C 24.027344 14.5 24.011719 14.515625 24 14.53125 C 23.984375 14.515625 23.972656 14.5 23.957031 14.484375 Z M 7.636719 14.832031 C 7.40625 14.910156 7.484375 16.457031 7.738281 16.847656 C 7.933594 17.140625 7.933594 17.167969 7.753906 17.097656 C 7.503906 17.003906 7.5 17.171875 7.730469 17.609375 C 7.996094 18.113281 8.527344 18.558594 9.378906 18.980469 C 9.808594 19.191406 10.15625 19.386719 10.15625 19.40625 C 10.15625 19.542969 8.972656 19.203125 8.707031 18.996094 C 8.214844 18.609375 7.988281 18.671875 8.3125 19.105469 C 8.457031 19.300781 8.546875 19.550781 8.511719 19.652344 C 8.433594 19.855469 8.765625 20.191406 9.417969 20.582031 C 9.957031 20.90625 10.074219 20.910156 9.972656 20.59375 C 9.871094 20.269531 9.925781 20.28125 10.285156 20.660156 C 10.535156 20.925781 10.542969 20.964844 10.347656 20.890625 C 10.171875 20.824219 10.140625 20.839844 10.21875 20.964844 C 10.316406 21.125 10.105469 21.105469 9.371094 20.886719 C 9.175781 20.828125 9.15625 20.863281 9.230469 21.109375 C 9.433594 21.753906 9.765625 22.042969 10.578125 22.269531 C 11.019531 22.394531 11.347656 22.546875 11.316406 22.597656 C 11.238281 22.722656 10.402344 22.582031 10.1875 22.417969 C 9.964844 22.238281 9.984375 22.691406 10.214844 23.019531 C 10.421875 23.3125 11.253906 23.738281 12.265625 24.0625 L 12.941406 24.277344 L 12.324219 24.21875 C 11.984375 24.1875 11.558594 24.140625 11.378906 24.113281 C 11.105469 24.074219 11.058594 24.097656 11.113281 24.300781 C 11.207031 24.65625 11.839844 25.144531 12.296875 25.214844 C 12.515625 25.246094 12.972656 25.324219 13.316406 25.378906 L 13.9375 25.488281 L 13.378906 25.644531 C 13.078125 25.734375 12.609375 25.777344 12.347656 25.738281 C 11.886719 25.675781 11.878906 25.683594 12.050781 25.941406 C 12.300781 26.316406 12.902344 26.644531 13.59375 26.769531 L 14.183594 26.878906 L 13.46875 26.832031 C 13.078125 26.808594 12.761719 26.828125 12.761719 26.878906 C 12.761719 26.933594 12.90625 27.125 13.089844 27.308594 C 13.433594 27.652344 13.574219 27.675781 14.925781 27.644531 L 15.796875 27.625 L 15.050781 27.949219 C 14.152344 28.339844 14 28.464844 14.246094 28.621094 C 14.394531 28.714844 14.347656 28.8125 13.980469 29.199219 C 13.734375 29.457031 13.324219 29.941406 13.066406 30.28125 C 11.90625 31.824219 11.296875 32.316406 10.5625 32.316406 C 9.921875 32.316406 9.859375 32.519531 10.464844 32.636719 C 11.074219 32.75 11.894531 32.605469 12.566406 32.269531 C 13.375 31.859375 13.328125 32.074219 12.449219 32.753906 C 12.207031 32.941406 12.207031 32.949219 12.511719 32.871094 C 12.683594 32.828125 13.089844 32.628906 13.410156 32.4375 C 14.03125 32.0625 14.128906 32.046875 13.796875 32.375 C 13.515625 32.65625 13.683594 32.761719 14.089844 32.566406 C 14.277344 32.472656 14.53125 32.410156 14.644531 32.425781 C 14.761719 32.441406 15.121094 32.214844 15.4375 31.921875 C 15.765625 31.625 15.964844 31.503906 15.886719 31.652344 C 15.8125 31.792969 15.660156 31.980469 15.550781 32.066406 C 15.449219 32.152344 15.363281 32.277344 15.363281 32.332031 C 15.363281 32.574219 15.65625 32.410156 16.285156 31.816406 C 16.675781 31.453125 16.984375 31.25 17.03125 31.324219 C 17.074219 31.394531 17.046875 31.453125 16.96875 31.453125 C 16.886719 31.453125 16.855469 31.542969 16.894531 31.640625 C 16.9375 31.753906 16.894531 31.824219 16.78125 31.824219 C 16.683594 31.824219 16.605469 31.878906 16.605469 31.941406 C 16.605469 32.191406 17.359375 31.785156 17.535156 31.441406 C 17.78125 30.980469 17.855469 30.988281 17.753906 31.472656 C 17.703125 31.753906 17.71875 31.839844 17.824219 31.777344 C 17.902344 31.730469 17.964844 31.605469 17.964844 31.503906 C 17.964844 31.402344 18.058594 31.332031 18.175781 31.355469 C 18.324219 31.378906 18.5 31.199219 18.734375 30.777344 C 19.003906 30.285156 19.078125 30.21875 19.078125 30.453125 C 19.078125 30.683594 19.128906 30.730469 19.328125 30.683594 C 19.527344 30.628906 19.496094 30.707031 19.152344 31.125 C 18.703125 31.671875 18.457031 32.316406 18.699219 32.316406 C 18.769531 32.316406 18.832031 32.269531 18.832031 32.207031 C 18.832031 32.144531 19.015625 32.035156 19.238281 31.957031 L 19.640625 31.824219 L 19.234375 32.144531 C 18.675781 32.582031 18.09375 33.628906 18.097656 34.171875 C 18.105469 34.558594 18.121094 34.578125 18.253906 34.371094 C 18.660156 33.714844 19.1875 33.277344 20.082031 32.832031 L 21.0625 32.34375 L 21.0625 32.703125 C 21.0625 32.902344 21.121094 33.0625 21.1875 33.0625 C 21.253906 33.0625 21.3125 32.949219 21.3125 32.808594 C 21.3125 32.671875 21.421875 32.34375 21.558594 32.078125 C 21.859375 31.496094 23.527344 30.175781 24 30.109375 C 24.453125 30.144531 26.136719 31.484375 26.441406 32.078125 C 26.574219 32.34375 26.6875 32.671875 26.6875 32.808594 C 26.6875 32.949219 26.746094 33.0625 26.8125 33.0625 C 26.878906 33.0625 26.933594 32.902344 26.933594 32.703125 L 26.933594 32.34375 L 27.917969 32.832031 C 28.808594 33.277344 29.332031 33.714844 29.746094 34.371094 C 29.875 34.578125 29.894531 34.558594 29.902344 34.171875 C 29.90625 33.628906 29.324219 32.589844 28.765625 32.144531 L 28.359375 31.824219 L 28.761719 31.957031 C 28.984375 32.035156 29.167969 32.144531 29.167969 32.207031 C 29.167969 32.269531 29.222656 32.316406 29.300781 32.316406 C 29.542969 32.316406 29.292969 31.671875 28.84375 31.125 C 28.5 30.707031 28.472656 30.628906 28.671875 30.683594 C 28.863281 30.730469 28.917969 30.683594 28.921875 30.453125 C 28.921875 30.21875 28.996094 30.292969 29.265625 30.777344 C 29.5 31.199219 29.675781 31.378906 29.816406 31.355469 C 29.941406 31.339844 30.03125 31.402344 30.03125 31.503906 C 30.03125 31.605469 30.097656 31.730469 30.175781 31.777344 C 30.28125 31.839844 30.296875 31.753906 30.238281 31.472656 C 30.144531 30.988281 30.21875 30.980469 30.457031 31.441406 C 30.636719 31.785156 31.394531 32.191406 31.394531 31.941406 C 31.394531 31.878906 31.316406 31.824219 31.214844 31.824219 C 31.105469 31.824219 31.0625 31.753906 31.105469 31.640625 C 31.144531 31.542969 31.109375 31.453125 31.03125 31.453125 C 30.953125 31.453125 30.921875 31.394531 30.96875 31.324219 C 31.015625 31.25 31.324219 31.453125 31.714844 31.816406 C 32.339844 32.410156 32.636719 32.578125 32.636719 32.339844 C 32.636719 32.277344 32.550781 32.152344 32.449219 32.066406 C 32.339844 31.980469 32.1875 31.792969 32.113281 31.652344 C 32.035156 31.503906 32.234375 31.625 32.558594 31.925781 C 32.878906 32.21875 33.234375 32.441406 33.355469 32.425781 C 33.46875 32.410156 33.71875 32.472656 33.90625 32.566406 C 34.316406 32.761719 34.480469 32.65625 34.203125 32.375 C 33.871094 32.046875 33.96875 32.0625 34.589844 32.4375 C 34.910156 32.628906 35.316406 32.828125 35.488281 32.871094 C 35.785156 32.949219 35.792969 32.941406 35.546875 32.753906 C 34.671875 32.074219 34.621094 31.859375 35.433594 32.269531 C 36.097656 32.605469 36.925781 32.75 37.53125 32.636719 C 38.136719 32.519531 38.074219 32.316406 37.4375 32.316406 C 36.699219 32.316406 36.089844 31.824219 34.933594 30.285156 C 34.675781 29.949219 34.265625 29.457031 34.015625 29.199219 C 33.644531 28.8125 33.597656 28.714844 33.75 28.621094 C 34 28.464844 33.847656 28.339844 32.949219 27.949219 L 32.203125 27.625 L 33.066406 27.644531 C 34.425781 27.675781 34.5625 27.652344 34.910156 27.308594 C 35.09375 27.125 35.238281 26.933594 35.238281 26.878906 C 35.238281 26.828125 34.921875 26.808594 34.527344 26.832031 L 33.8125 26.878906 L 34.40625 26.769531 C 35.09375 26.644531 35.691406 26.324219 35.949219 25.941406 C 36.121094 25.683594 36.113281 25.675781 35.644531 25.738281 C 35.386719 25.777344 34.921875 25.734375 34.613281 25.644531 L 34.0625 25.488281 L 34.683594 25.378906 C 35.027344 25.316406 35.484375 25.246094 35.703125 25.214844 C 36.160156 25.140625 36.792969 24.65625 36.886719 24.300781 C 36.941406 24.097656 36.894531 24.066406 36.621094 24.113281 C 36.441406 24.140625 36.015625 24.1875 35.675781 24.21875 L 35.058594 24.277344 L 35.734375 24.058594 C 36.746094 23.738281 37.578125 23.3125 37.785156 23.019531 C 38.015625 22.691406 38.035156 22.234375 37.8125 22.410156 C 37.597656 22.582031 36.761719 22.722656 36.683594 22.597656 C 36.652344 22.542969 36.980469 22.394531 37.421875 22.269531 C 38.234375 22.035156 38.566406 21.753906 38.769531 21.109375 C 38.84375 20.863281 38.824219 20.828125 38.628906 20.886719 C 37.894531 21.105469 37.683594 21.121094 37.78125 20.964844 C 37.859375 20.839844 37.828125 20.824219 37.652344 20.890625 C 37.457031 20.964844 37.464844 20.921875 37.714844 20.660156 C 38.074219 20.28125 38.128906 20.269531 38.027344 20.59375 C 37.925781 20.90625 38.042969 20.902344 38.582031 20.578125 C 39.234375 20.191406 39.566406 19.847656 39.488281 19.652344 C 39.453125 19.546875 39.542969 19.300781 39.6875 19.105469 C 40.011719 18.667969 39.785156 18.605469 39.292969 18.996094 C 39.027344 19.203125 37.84375 19.542969 37.84375 19.40625 C 37.84375 19.386719 38.191406 19.191406 38.621094 18.980469 C 39.472656 18.550781 40.003906 18.113281 40.269531 17.609375 C 40.5 17.171875 40.496094 17.003906 40.246094 17.097656 C 40.066406 17.167969 40.066406 17.140625 40.261719 16.847656 C 40.515625 16.457031 40.59375 14.910156 40.363281 14.828125 C 40.28125 14.800781 40.1875 14.890625 40.140625 15.027344 C 40.097656 15.160156 39.828125 15.503906 39.542969 15.785156 C 39.253906 16.074219 39.113281 16.277344 39.222656 16.234375 C 39.558594 16.125 39.597656 16.296875 39.3125 16.605469 C 39 16.9375 38.734375 16.972656 38.628906 16.707031 C 38.542969 16.46875 38.46875 16.472656 37.449219 16.777344 L 36.59375 17.027344 L 36.199219 17.84375 C 35.871094 18.527344 35.675781 18.753906 34.9375 19.296875 C 34.457031 19.65625 33.957031 20.0625 33.828125 20.203125 C 33.53125 20.535156 33.644531 21.027344 34.078125 21.25 C 34.394531 21.417969 34.375 21.425781 33.253906 21.828125 C 31.65625 22.402344 31.082031 22.355469 31.175781 21.644531 C 31.207031 21.40625 31.472656 21.234375 32.234375 20.957031 C 32.734375 20.777344 32.753906 20.59375 32.277344 20.59375 C 31.675781 20.59375 31.722656 20.386719 32.390625 20.046875 C 33.730469 19.378906 35.359375 17.972656 35.675781 17.214844 C 35.828125 16.847656 35.796875 16.144531 35.628906 16.15625 C 35.582031 16.15625 35.417969 16.4375 35.261719 16.78125 C 34.800781 17.746094 33.09375 18.949219 31.519531 19.40625 C 30.582031 19.675781 29.613281 20.253906 29.203125 20.796875 C 28.542969 21.65625 28.113281 22.050781 27.738281 22.136719 L 27.371094 22.21875 L 27.792969 21.933594 C 28.359375 21.546875 28.441406 21.296875 27.96875 21.40625 L 27.621094 21.484375 L 27.925781 21.265625 C 28.40625 20.933594 28.917969 20.4375 28.917969 20.308594 C 28.917969 20.246094 28.808594 20.222656 28.671875 20.261719 C 28.46875 20.3125 28.503906 20.230469 28.847656 19.8125 C 29.296875 19.265625 29.542969 18.621094 29.300781 18.621094 C 29.230469 18.621094 29.167969 18.671875 29.167969 18.730469 C 29.167969 18.792969 28.984375 18.90625 28.761719 18.980469 L 28.359375 19.113281 L 28.765625 18.792969 C 29.324219 18.355469 29.90625 17.308594 29.902344 16.769531 C 29.894531 16.386719 29.878906 16.363281 29.746094 16.574219 C 29.339844 17.222656 28.8125 17.667969 27.917969 18.105469 L 26.9375 18.59375 L 26.9375 18.234375 C 26.9375 18.042969 26.878906 17.878906 26.8125 17.878906 C 26.746094 17.878906 26.6875 17.996094 26.6875 18.128906 C 26.6875 18.640625 26.175781 19.371094 25.378906 19.996094 C 24.457031 20.714844 24.261719 21.027344 24.128906 21.964844 L 24 22.144531 L 23.871094 21.964844 C 23.746094 21.027344 23.546875 20.714844 22.625 19.996094 C 21.828125 19.371094 21.3125 18.640625 21.3125 18.136719 C 21.3125 17.996094 21.253906 17.878906 21.1875 17.878906 C 21.121094 17.878906 21.066406 18.042969 21.066406 18.238281 L 21.066406 18.597656 L 20.082031 18.109375 C 19.191406 17.667969 18.667969 17.222656 18.253906 16.574219 C 18.125 16.363281 18.105469 16.386719 18.097656 16.769531 C 18.09375 17.308594 18.675781 18.355469 19.234375 18.796875 L 19.640625 19.121094 L 19.238281 18.980469 C 19.015625 18.90625 18.839844 18.792969 18.839844 18.730469 C 18.839844 18.671875 18.777344 18.621094 18.699219 18.621094 C 18.457031 18.621094 18.707031 19.265625 19.15625 19.8125 C 19.5 20.230469 19.53125 20.3125 19.328125 20.261719 C 19.191406 20.222656 19.082031 20.25 19.082031 20.3125 C 19.082031 20.4375 19.59375 20.933594 20.074219 21.265625 L 20.386719 21.484375 L 20.03125 21.40625 C 19.558594 21.296875 19.644531 21.546875 20.207031 21.933594 L 20.628906 22.21875 L 20.261719 22.136719 C 19.890625 22.050781 19.457031 21.65625 18.800781 20.796875 C 18.386719 20.261719 17.417969 19.675781 16.480469 19.40625 C 14.910156 18.949219 13.199219 17.738281 12.746094 16.78125 C 12.582031 16.4375 12.417969 16.160156 12.375 16.15625 C 12.203125 16.144531 12.171875 16.847656 12.324219 17.214844 C 12.644531 17.972656 14.269531 19.378906 15.609375 20.046875 C 16.277344 20.386719 16.324219 20.59375 15.730469 20.59375 C 15.246094 20.59375 15.265625 20.777344 15.765625 20.957031 C 16.53125 21.234375 16.792969 21.40625 16.824219 21.652344 C 16.917969 22.355469 16.34375 22.40625 14.746094 21.828125 C 13.625 21.425781 13.609375 21.417969 13.921875 21.25 C 14.355469 21.027344 14.472656 20.535156 14.171875 20.203125 C 14.042969 20.0625 13.546875 19.65625 13.0625 19.296875 C 12.324219 18.753906 12.128906 18.527344 11.800781 17.839844 L 11.410156 17.03125 L 10.550781 16.777344 C 9.53125 16.472656 9.464844 16.46875 9.371094 16.707031 C 9.265625 16.972656 9.003906 16.9375 8.691406 16.605469 C 8.402344 16.296875 8.441406 16.125 8.777344 16.238281 C 8.890625 16.277344 8.746094 16.074219 8.457031 15.785156 C 8.171875 15.5 7.902344 15.160156 7.859375 15.027344 C 7.816406 14.890625 7.71875 14.800781 7.640625 14.828125 Z M 10.066406 17.589844 C 10.128906 17.574219 10.28125 17.609375 10.5 17.703125 C 10.730469 17.796875 11 18.046875 11.121094 18.269531 C 11.238281 18.496094 11.511719 18.859375 11.722656 19.078125 L 11.722656 19.082031 C 11.9375 19.308594 12.078125 19.484375 12.035156 19.480469 C 11.84375 19.46875 11.183594 19.058594 10.839844 18.734375 C 10.636719 18.542969 10.328125 18.332031 10.15625 18.265625 C 9.9375 18.183594 9.910156 18.140625 10.0625 18.136719 C 10.316406 18.125 10.34375 17.988281 10.136719 17.785156 C 10.019531 17.667969 10 17.597656 10.066406 17.589844 Z M 37.933594 17.589844 C 38 17.605469 37.980469 17.667969 37.863281 17.785156 C 37.65625 17.996094 37.683594 18.125 37.9375 18.136719 C 38.089844 18.140625 38.058594 18.183594 37.84375 18.265625 C 37.671875 18.332031 37.363281 18.542969 37.160156 18.734375 C 36.816406 19.058594 36.15625 19.46875 35.964844 19.480469 C 35.921875 19.484375 36.0625 19.308594 36.277344 19.082031 L 36.277344 19.078125 C 36.488281 18.859375 36.761719 18.496094 36.878906 18.269531 C 36.996094 18.046875 37.269531 17.796875 37.5 17.703125 C 37.71875 17.609375 37.871094 17.574219 37.933594 17.589844 Z M 23.792969 17.699219 C 23.859375 17.65625 23.878906 17.703125 23.839844 17.8125 C 23.753906 18.027344 23.667969 18.066406 23.667969 17.890625 C 23.667969 17.824219 23.722656 17.738281 23.792969 17.699219 Z M 24.140625 17.699219 C 24.152344 17.675781 24.171875 17.675781 24.207031 17.699219 C 24.277344 17.738281 24.332031 17.824219 24.332031 17.890625 C 24.332031 18.066406 24.246094 18.027344 24.160156 17.8125 C 24.140625 17.761719 24.136719 17.71875 24.140625 17.699219 Z M 24.140625 17.699219 "/>
</g>
</svg>
