<?xml version="1.0" encoding="UTF-8"?>
<svg xmlns="http://www.w3.org/2000/svg" xmlns:xlink="http://www.w3.org/1999/xlink" width="48pt" height="48pt" viewBox="0 0 48 48" version="1.1">
<g id="surface1">
<path style=" stroke:none;fill-rule:evenodd;fill:rgb(0.784314%,52.54902%,76.078431%);fill-opacity:1;" d="M 11.207031 2.847656 L 36.792969 2.847656 C 41.40625 2.847656 45.152344 6.59375 45.152344 11.207031 L 45.152344 36.792969 C 45.152344 41.40625 41.40625 45.152344 36.792969 45.152344 L 11.207031 45.152344 C 6.59375 45.152344 2.847656 41.40625 2.847656 36.792969 L 2.847656 11.207031 C 2.847656 6.59375 6.59375 2.847656 11.207031 2.847656 Z M 11.207031 2.847656 "/>
<path style=" stroke:none;fill-rule:nonzero;fill:rgb(79.215686%,90.980392%,100%);fill-opacity:1;" d="M 24.125 18.746094 C 22.203125 18.699219 20.410156 19.703125 19.453125 21.371094 C 18.003906 23.878906 18.863281 27.089844 21.375 28.542969 C 23.886719 29.988281 27.097656 29.128906 28.546875 26.621094 C 29.996094 24.105469 29.136719 20.894531 26.625 19.449219 C 25.863281 19.003906 25 18.765625 24.125 18.746094 Z M 23.894531 21.746094 C 24.324219 21.722656 24.75 21.828125 25.125 22.042969 C 26.203125 22.667969 26.566406 24.042969 25.949219 25.121094 C 25.328125 26.191406 23.953125 26.5625 22.875 25.941406 C 21.796875 25.316406 21.433594 23.941406 22.050781 22.871094 C 22.433594 22.203125 23.128906 21.78125 23.894531 21.746094 Z M 23.894531 21.746094 "/>
<path style=" stroke:none;fill-rule:nonzero;fill:rgb(44.313725%,75.686275%,100%);fill-opacity:1;" d="M 27.183594 17.628906 L 33.546875 11.265625 L 35.136719 16.035156 L 30.363281 20.8125 Z M 27.183594 17.628906 "/>
<path style=" stroke:none;fill-rule:nonzero;fill:rgb(44.313725%,75.686275%,100%);fill-opacity:1;" d="M 12.863281 12.855469 C 6.714844 19.003906 6.714844 28.980469 12.863281 35.128906 C 19.015625 41.28125 28.984375 41.28125 35.136719 35.128906 C 41.285156 28.980469 41.285156 19.003906 35.136719 12.855469 C 34.597656 12.328125 34.027344 11.839844 33.417969 11.390625 L 30.191406 14.613281 C 30.828125 15.03125 31.417969 15.503906 31.953125 16.035156 C 36.347656 20.433594 36.347656 27.550781 31.953125 31.949219 C 27.5625 36.339844 20.4375 36.339844 16.046875 31.949219 C 11.652344 27.550781 11.652344 20.433594 16.046875 16.035156 C 18.546875 13.542969 22.078125 12.363281 25.578125 12.863281 L 29.277344 9.171875 C 23.550781 7.128906 17.167969 8.566406 12.863281 12.855469 Z M 12.863281 12.855469 "/>
</g>
</svg>
