<?xml version="1.0" encoding="UTF-8"?>
<svg xmlns="http://www.w3.org/2000/svg" xmlns:xlink="http://www.w3.org/1999/xlink" width="48pt" height="48pt" viewBox="0 0 48 48" version="1.1">
<g id="surface1">
<path style=" stroke:none;fill-rule:evenodd;fill:rgb(20.392157%,39.607843%,64.313725%);fill-opacity:1;" d="M 11.207031 2.847656 L 36.792969 2.847656 C 41.40625 2.847656 45.152344 6.59375 45.152344 11.207031 L 45.152344 36.792969 C 45.152344 41.40625 41.40625 45.152344 36.792969 45.152344 L 11.207031 45.152344 C 6.59375 45.152344 2.847656 41.40625 2.847656 36.792969 L 2.847656 11.207031 C 2.847656 6.59375 6.59375 2.847656 11.207031 2.847656 Z M 11.207031 2.847656 "/>
<path style=" stroke:none;fill-rule:evenodd;fill:rgb(20.392157%,39.607843%,64.313725%);fill-opacity:1;" d="M 6.125 43.269531 C 6.105469 42.953125 5.996094 42.738281 5.988281 42.402344 C 5.96875 40.046875 6.378906 37.253906 6.378906 37.253906 L 11.246094 11.457031 L 12.152344 11.46875 L 7.746094 3.640625 C 4.863281 4.957031 2.847656 7.824219 2.847656 11.207031 L 2.847656 36.792969 C 2.847656 39.46875 4.175781 41.738281 6.125 43.269531 Z M 6.125 43.269531 "/>
<path style=" stroke:none;fill-rule:evenodd;fill:rgb(33.333333%,34.117647%,32.54902%);fill-opacity:1;" d="M 41.730469 43.371094 C 41.769531 42.972656 41.925781 42.699219 41.925781 42.265625 C 41.921875 39.910156 41.140625 37.152344 41.140625 37.152344 L 35.722656 11.777344 L 35.160156 11.769531 L 34.441406 12.957031 L 12.917969 12.832031 L 12.152344 11.46875 L 11.246094 11.457031 L 6.378906 37.253906 C 6.378906 37.253906 5.96875 40.046875 5.988281 42.402344 C 5.996094 42.738281 6.105469 42.953125 6.125 43.269531 C 7.542969 44.386719 9.253906 45.152344 11.207031 45.152344 L 36.785156 45.152344 C 38.675781 45.152344 40.332031 44.417969 41.730469 43.371094 Z M 41.730469 43.371094 "/>
<path style=" stroke:none;fill-rule:evenodd;fill:rgb(20.392157%,39.607843%,64.313725%);fill-opacity:1;" d="M 40.109375 3.546875 L 35.160156 11.769531 L 35.722656 11.777344 L 41.140625 37.152344 C 41.140625 37.152344 41.921875 39.910156 41.925781 42.265625 C 41.925781 42.699219 41.769531 42.972656 41.730469 43.371094 C 43.761719 41.84375 45.152344 39.535156 45.152344 36.792969 L 45.152344 11.207031 C 45.152344 7.761719 43.078125 4.828125 40.109375 3.546875 Z M 40.109375 3.546875 "/>
<path style=" stroke:none;fill-rule:evenodd;fill:rgb(60.392157%,61.176471%,59.215686%);fill-opacity:1;" d="M 7.746094 3.640625 L 12.917969 12.832031 L 34.441406 12.957031 L 40.109375 3.546875 C 39.089844 3.105469 37.972656 2.847656 36.785156 2.847656 L 11.207031 2.847656 C 9.964844 2.847656 8.800781 3.15625 7.746094 3.640625 Z M 7.746094 3.640625 "/>
<path style=" stroke:none;fill-rule:evenodd;fill:rgb(20.392157%,39.607843%,64.313725%);fill-opacity:1;" d="M 13.035156 16.457031 L 10.792969 33.386719 C 10.714844 33.890625 10.753906 34.558594 11.269531 34.558594 L 36.375 34.558594 C 36.796875 34.558594 37.035156 34.15625 36.9375 33.386719 L 33.738281 16.550781 Z M 13.035156 16.457031 "/>
<path style="fill-rule:evenodd;fill:rgb(53.333333%,54.117647%,52.156863%);fill-opacity:1;stroke-width:0.693904;stroke-linecap:butt;stroke-linejoin:miter;stroke:rgb(33.333333%,34.117647%,32.54902%);stroke-opacity:1;stroke-miterlimit:4;" d="M 11.270833 8.559896 C 11.270833 7.971354 10.924479 7.497396 10.5 7.497396 C 10.072917 7.497396 9.729167 7.971354 9.729167 8.559896 C 9.729167 9.145833 10.072917 9.622396 10.5 9.622396 C 10.924479 9.622396 11.270833 9.145833 11.270833 8.559896 Z M 11.270833 8.559896 " transform="matrix(1.5,0,0,1.5,0,0)"/>
<path style="fill-rule:evenodd;fill:rgb(53.333333%,54.117647%,52.156863%);fill-opacity:1;stroke-width:0.693904;stroke-linecap:butt;stroke-linejoin:miter;stroke:rgb(33.333333%,34.117647%,32.54902%);stroke-opacity:1;stroke-miterlimit:4;" d="M 22.09375 8.559896 C 22.09375 7.971354 21.75 7.497396 21.322917 7.497396 C 20.898438 7.497396 20.552083 7.971354 20.552083 8.559896 C 20.552083 9.145833 20.898438 9.622396 21.322917 9.622396 C 21.75 9.622396 22.09375 9.145833 22.09375 8.559896 Z M 22.09375 8.559896 " transform="matrix(1.5,0,0,1.5,0,0)"/>
<path style="fill:none;stroke-width:0.693903;stroke-linecap:round;stroke-linejoin:round;stroke:rgb(100%,100%,100%);stroke-opacity:1;stroke-miterlimit:4;" d="M 8.604167 16.03125 L 22.648438 16.03125 " transform="matrix(1.5,0,0,1.5,0,0)"/>
<path style="fill:none;stroke-width:1.670226;stroke-linecap:round;stroke-linejoin:round;stroke:rgb(98.823529%,91.372549%,30.980392%);stroke-opacity:0.682353;stroke-miterlimit:4;" d="M 11.846354 27.585938 L 14.260417 27.585938 " transform="matrix(1.5,0,0,1.5,0,0)"/>
<path style="fill:none;stroke-width:1.670226;stroke-linecap:round;stroke-linejoin:round;stroke:rgb(72.941176%,74.117647%,71.372549%);stroke-opacity:0.682353;stroke-miterlimit:4;" d="M 16.65625 27.585938 L 16.666667 27.585938 " transform="matrix(1.5,0,0,1.5,0,0)"/>
<path style="fill:none;stroke-width:1.670226;stroke-linecap:round;stroke-linejoin:round;stroke:rgb(72.941176%,74.117647%,71.372549%);stroke-opacity:0.682353;stroke-miterlimit:4;" d="M 19.0625 27.585938 L 19.072917 27.585938 " transform="matrix(1.5,0,0,1.5,0,0)"/>
<path style="fill:none;stroke-width:1.670226;stroke-linecap:round;stroke-linejoin:round;stroke:rgb(72.941176%,74.117647%,71.372549%);stroke-opacity:0.682353;stroke-miterlimit:4;" d="M 21.46875 27.585938 L 21.479167 27.585938 " transform="matrix(1.5,0,0,1.5,0,0)"/>
</g>
</svg>
