<?xml version="1.0" encoding="UTF-8"?>
<svg xmlns="http://www.w3.org/2000/svg" xmlns:xlink="http://www.w3.org/1999/xlink" width="48pt" height="48pt" viewBox="0 0 48 48" version="1.1">
<g id="surface1">
<path style=" stroke:none;fill-rule:evenodd;fill:rgb(79.607843%,26.666667%,26.666667%);fill-opacity:1;" d="M 11.207031 2.847656 L 36.792969 2.847656 C 41.40625 2.847656 45.152344 6.59375 45.152344 11.207031 L 45.152344 36.792969 C 45.152344 41.40625 41.40625 45.152344 36.792969 45.152344 L 11.207031 45.152344 C 6.59375 45.152344 2.847656 41.40625 2.847656 36.792969 L 2.847656 11.207031 C 2.847656 6.59375 6.59375 2.847656 11.207031 2.847656 Z M 11.207031 2.847656 "/>
<path style=" stroke:none;fill-rule:nonzero;fill:rgb(100%,100%,100%);fill-opacity:1;" d="M 22.5 12 L 22.5 21 L 25.5 21 L 25.5 12 Z M 25.558594 15.125 C 25.738281 15.15625 25.917969 15.1875 26.09375 15.222656 C 25.917969 15.1875 25.738281 15.15625 25.558594 15.125 Z M 22.058594 15.1875 C 21.894531 15.21875 21.730469 15.253906 21.566406 15.296875 C 21.730469 15.253906 21.894531 15.21875 22.058594 15.1875 Z M 26.566406 15.328125 C 26.75 15.375 26.933594 15.425781 27.109375 15.484375 C 26.933594 15.425781 26.75 15.375 26.566406 15.328125 Z M 21.019531 15.4375 C 20.871094 15.484375 20.71875 15.535156 20.566406 15.59375 C 20.71875 15.535156 20.871094 15.484375 21.019531 15.4375 Z M 27.644531 15.660156 C 27.738281 15.691406 27.832031 15.730469 27.925781 15.765625 C 27.832031 15.730469 27.738281 15.691406 27.644531 15.660156 Z M 20.1875 15.730469 C 16.15625 17.296875 13.503906 21.175781 13.5 25.5 C 13.5 31.296875 18.203125 36 24 36 C 29.796875 36 34.5 31.296875 34.5 25.5 C 34.496094 21.300781 31.988281 17.511719 28.128906 15.859375 L 27 18.628906 C 29.730469 19.824219 31.5 22.519531 31.5 25.5 C 31.5 29.640625 28.140625 33 24 33 C 19.859375 33 16.5 29.640625 16.5 25.5 C 16.503906 22.484375 18.3125 19.761719 21.09375 18.59375 Z M 20.1875 15.730469 "/>
</g>
</svg>
