<?xml version="1.0" encoding="UTF-8"?>
<svg xmlns="http://www.w3.org/2000/svg" xmlns:xlink="http://www.w3.org/1999/xlink" width="48pt" height="48pt" viewBox="0 0 48 48" version="1.1">
<g id="surface1">
<path style=" stroke:none;fill-rule:evenodd;fill:rgb(94.901961%,94.901961%,94.901961%);fill-opacity:1;" d="M 11.207031 2.847656 L 36.792969 2.847656 C 41.40625 2.847656 45.152344 6.59375 45.152344 11.207031 L 45.152344 36.792969 C 45.152344 41.40625 41.40625 45.152344 36.792969 45.152344 L 11.207031 45.152344 C 6.59375 45.152344 2.847656 41.40625 2.847656 36.792969 L 2.847656 11.207031 C 2.847656 6.59375 6.59375 2.847656 11.207031 2.847656 Z M 11.207031 2.847656 "/>
<path style=" stroke:none;fill-rule:nonzero;fill:rgb(20.392157%,46.27451%,80%);fill-opacity:1;" d="M 24.042969 5.546875 C 23.703125 5.53125 23.363281 5.625 23.066406 5.800781 L 9.113281 14.074219 C 8.535156 14.417969 8.183594 15.046875 8.183594 15.730469 L 8.183594 32.269531 C 8.183594 32.953125 8.535156 33.582031 9.113281 33.925781 L 23.066406 42.199219 C 23.644531 42.542969 24.355469 42.542969 24.933594 42.199219 L 38.886719 33.925781 C 39.464844 33.582031 39.816406 32.953125 39.816406 32.269531 L 39.816406 15.730469 C 39.816406 15.046875 39.464844 14.417969 38.886719 14.074219 L 24.933594 5.800781 C 24.660156 5.640625 24.355469 5.550781 24.042969 5.546875 Z M 24.042969 5.546875 "/>
<path style=" stroke:none;fill-rule:nonzero;fill:rgb(96.078431%,40%,40%);fill-opacity:1;" d="M 24 42.453125 C 23.675781 42.453125 23.359375 42.371094 23.066406 42.199219 L 9.109375 33.925781 C 8.535156 33.589844 8.183594 32.953125 8.183594 32.269531 L 8.183594 15.730469 C 8.183594 15.453125 8.238281 15.183594 8.347656 14.9375 L 24 24.167969 Z M 24 42.453125 "/>
<path style=" stroke:none;fill-rule:nonzero;fill:rgb(48.627451%,80.784314%,26.666667%);fill-opacity:1;" d="M 24 42.453125 C 24.324219 42.453125 24.640625 42.371094 24.933594 42.199219 L 38.890625 33.925781 C 39.464844 33.589844 39.816406 32.953125 39.816406 32.269531 L 39.816406 15.730469 C 39.816406 15.453125 39.761719 15.183594 39.652344 14.9375 L 24 24.167969 Z M 24 42.453125 "/>
</g>
</svg>
