<?xml version="1.0" encoding="UTF-8"?>
<svg xmlns="http://www.w3.org/2000/svg" xmlns:xlink="http://www.w3.org/1999/xlink" width="48pt" height="48pt" viewBox="0 0 48 48" version="1.1">
<g id="surface1">
<path style=" stroke:none;fill-rule:evenodd;fill:rgb(48.627451%,69.411765%,30.980392%);fill-opacity:1;" d="M 11.207031 2.847656 L 36.792969 2.847656 C 41.40625 2.847656 45.152344 6.59375 45.152344 11.207031 L 45.152344 36.792969 C 45.152344 41.40625 41.40625 45.152344 36.792969 45.152344 L 11.207031 45.152344 C 6.59375 45.152344 2.847656 41.40625 2.847656 36.792969 L 2.847656 11.207031 C 2.847656 6.59375 6.59375 2.847656 11.207031 2.847656 Z M 11.207031 2.847656 "/>
<path style=" stroke:none;fill-rule:nonzero;fill:rgb(18.039216%,18.039216%,18.039216%);fill-opacity:1;" d="M 34.5 18 C 33.355469 14.363281 29.433594 13.527344 26.277344 13.5 C 23.496094 13.5 21.449219 14.542969 20.140625 16.375 C 18.84375 18.203125 18 20.066406 18 24.011719 C 18 27.910156 18.824219 29.890625 20.066406 31.734375 C 21.316406 33.574219 23.859375 34.480469 25.894531 34.488281 C 27.699219 34.5 29.707031 33.722656 31.5 33 L 31.5 27.113281 L 28.5 27.113281 L 28.5 25.5 L 37.5 25.5 L 37.5 34.5 C 33.5625 36.597656 29.421875 37.484375 25.300781 37.5 C 20.699219 37.5 17.078125 36.296875 14.4375 33.890625 C 11.8125 31.484375 10.5 28.191406 10.5 24.011719 C 10.5 19.8125 11.8125 16.515625 14.4375 14.109375 C 17.078125 11.703125 20.699219 10.5 25.300781 10.5 C 29.234375 10.628906 32.644531 11.425781 36 12.75 L 36 18 Z M 34.5 18 "/>
</g>
</svg>
