<?xml version="1.0" encoding="UTF-8"?>
<svg xmlns="http://www.w3.org/2000/svg" xmlns:xlink="http://www.w3.org/1999/xlink" width="48pt" height="48pt" viewBox="0 0 48 48" version="1.1">
<g id="surface1">
<path style=" stroke:none;fill-rule:evenodd;fill:rgb(95.294118%,48.235294%,12.941176%);fill-opacity:1;" d="M 11.207031 2.847656 L 36.792969 2.847656 C 41.40625 2.847656 45.152344 6.59375 45.152344 11.207031 L 45.152344 36.792969 C 45.152344 41.40625 41.40625 45.152344 36.792969 45.152344 L 11.207031 45.152344 C 6.59375 45.152344 2.847656 41.40625 2.847656 36.792969 L 2.847656 11.207031 C 2.847656 6.59375 6.59375 2.847656 11.207031 2.847656 Z M 11.207031 2.847656 "/>
<path style=" stroke:none;fill-rule:nonzero;fill:rgb(100%,100%,100%);fill-opacity:1;" d="M 24 9 C 15.714844 9 9 15.714844 9 24 C 9 32.285156 15.714844 39 24 39 C 32.285156 39 39 32.285156 39 24 C 39 15.714844 32.285156 9 24 9 Z M 17.984375 13.417969 L 23.730469 13.417969 L 30.328125 30.199219 L 33.234375 29.253906 L 34.199219 32.503906 L 27.941406 34.3125 L 23.730469 23.640625 L 17.558594 33.371094 L 13.6875 33.371094 L 22.308594 19.449219 L 21.34375 16.699219 L 17.984375 16.699219 Z M 17.984375 13.417969 "/>
<path style=" stroke:none;fill-rule:nonzero;fill:rgb(100%,100%,100%);fill-opacity:1;" d="M 44.046875 34.503906 C 44.046875 39.472656 40.015625 43.503906 35.046875 43.503906 C 30.078125 43.503906 26.046875 39.472656 26.046875 34.503906 C 26.046875 29.53125 30.078125 25.503906 35.046875 25.503906 C 40.015625 25.503906 44.046875 29.53125 44.046875 34.503906 Z M 44.046875 34.503906 "/>
<path style=" stroke:none;fill-rule:nonzero;fill:rgb(95.294118%,48.235294%,12.941176%);fill-opacity:1;" d="M 38.363281 38.714844 L 32.761719 38.714844 L 32.761719 37.574219 L 34.722656 35.605469 C 34.972656 35.355469 35.199219 35.128906 35.394531 34.917969 C 35.597656 34.707031 35.769531 34.503906 35.917969 34.308594 C 36.0625 34.109375 36.175781 33.90625 36.253906 33.703125 C 36.332031 33.5 36.375 33.277344 36.375 33.042969 C 36.375 32.777344 36.292969 32.574219 36.121094 32.425781 C 35.949219 32.28125 35.722656 32.214844 35.4375 32.214844 C 35.136719 32.214844 34.847656 32.28125 34.566406 32.417969 C 34.292969 32.558594 34 32.753906 33.699219 33.003906 L 32.738281 31.953125 C 32.910156 31.808594 33.089844 31.667969 33.277344 31.535156 C 33.464844 31.402344 33.667969 31.285156 33.890625 31.183594 C 34.113281 31.078125 34.363281 30.996094 34.636719 30.9375 C 34.90625 30.875 35.207031 30.84375 35.542969 30.84375 C 35.941406 30.84375 36.300781 30.890625 36.613281 30.996094 C 36.9375 31.097656 37.207031 31.246094 37.433594 31.4375 C 37.65625 31.625 37.828125 31.855469 37.949219 32.121094 C 38.066406 32.390625 38.128906 32.691406 38.128906 33.03125 C 38.128906 33.332031 38.074219 33.625 37.957031 33.90625 C 37.84375 34.183594 37.6875 34.453125 37.488281 34.722656 C 37.292969 34.988281 37.0625 35.253906 36.796875 35.519531 C 36.542969 35.78125 36.261719 36.046875 35.964844 36.324219 L 34.957031 37.261719 L 34.957031 37.332031 L 38.363281 37.332031 L 38.363281 38.71875 Z M 38.363281 38.714844 "/>
</g>
</svg>
