<?xml version="1.0" encoding="UTF-8"?>
<svg xmlns="http://www.w3.org/2000/svg" xmlns:xlink="http://www.w3.org/1999/xlink" width="48pt" height="48pt" viewBox="0 0 48 48" version="1.1">
<g id="surface1">
<path style=" stroke:none;fill-rule:evenodd;fill:rgb(100%,74.117647%,0%);fill-opacity:1;" d="M 11.207031 2.847656 L 36.792969 2.847656 C 41.40625 2.847656 45.152344 6.59375 45.152344 11.207031 L 45.152344 36.792969 C 45.152344 41.40625 41.40625 45.152344 36.792969 45.152344 L 11.207031 45.152344 C 6.59375 45.152344 2.847656 41.40625 2.847656 36.792969 L 2.847656 11.207031 C 2.847656 6.59375 6.59375 2.847656 11.207031 2.847656 Z M 11.207031 2.847656 "/>
<path style=" stroke:none;fill-rule:nonzero;fill:rgb(20%,20%,20%);fill-opacity:1;" d="M 39.136719 24 C 39.136719 32.359375 32.359375 39.136719 24 39.136719 C 15.640625 39.136719 8.863281 32.359375 8.863281 24 C 8.863281 15.640625 15.640625 8.863281 24 8.863281 C 32.359375 8.863281 39.136719 15.640625 39.136719 24 Z M 39.136719 24 "/>
<path style=" stroke:none;fill-rule:nonzero;fill:rgb(100%,100%,100%);fill-opacity:1;" d="M 37.628906 24 C 37.628906 31.527344 31.527344 37.628906 24 37.628906 C 16.472656 37.628906 10.371094 31.527344 10.371094 24 C 10.371094 16.472656 16.472656 10.371094 24 10.371094 C 31.527344 10.371094 37.628906 16.472656 37.628906 24 Z M 37.628906 24 "/>
<path style=" stroke:none;fill-rule:nonzero;fill:rgb(100%,42.745098%,0%);fill-opacity:1;" d="M 18.097656 13.871094 L 18.792969 16.792969 L 21.25 16.746094 L 22.546875 18.644531 L 16.9375 34.128906 L 21.902344 32.605469 L 25.097656 22.722656 L 30.246094 30.746094 L 34.1875 27.453125 L 32.472656 24.953125 L 31.082031 26.0625 L 23.105469 13.917969 Z M 18.097656 13.871094 "/>
<path style=" stroke:none;fill-rule:nonzero;fill:rgb(20%,20%,20%);fill-opacity:1;" d="M 37.796875 11.589844 L 39.941406 11.589844 L 39.941406 12.507812 L 36.402344 12.507812 L 36.402344 11.589844 L 38.171875 10.027344 C 38.339844 9.878906 38.453125 9.738281 38.527344 9.613281 C 38.609375 9.476562 38.652344 9.332031 38.652344 9.175781 C 38.652344 8.957031 38.574219 8.773438 38.421875 8.632812 C 38.265625 8.496094 38.066406 8.425781 37.816406 8.425781 C 37.609375 8.425781 37.386719 8.464844 37.152344 8.550781 C 36.925781 8.632812 36.683594 8.753906 36.421875 8.902344 L 36.421875 7.839844 C 36.699219 7.757812 36.972656 7.691406 37.253906 7.632812 C 37.53125 7.582031 37.800781 7.550781 38.066406 7.550781 C 38.652344 7.550781 39.097656 7.683594 39.421875 7.945312 C 39.738281 8.195312 39.902344 8.550781 39.902344 9.007812 C 39.902344 9.273438 39.828125 9.523438 39.691406 9.757812 C 39.566406 9.980469 39.28125 10.289062 38.839844 10.675781 Z M 37.796875 11.589844 "/>
</g>
</svg>
