<?xml version="1.0" encoding="UTF-8"?>
<svg xmlns="http://www.w3.org/2000/svg" xmlns:xlink="http://www.w3.org/1999/xlink" width="48pt" height="48pt" viewBox="0 0 48 48" version="1.1">
<g id="surface1">
<path style=" stroke:none;fill-rule:evenodd;fill:rgb(16.470588%,31.372549%,51.372549%);fill-opacity:1;" d="M 11.207031 2.847656 L 36.792969 2.847656 C 41.40625 2.847656 45.152344 6.59375 45.152344 11.207031 L 45.152344 36.792969 C 45.152344 41.40625 41.40625 45.152344 36.792969 45.152344 L 11.207031 45.152344 C 6.59375 45.152344 2.847656 41.40625 2.847656 36.792969 L 2.847656 11.207031 C 2.847656 6.59375 6.59375 2.847656 11.207031 2.847656 Z M 11.207031 2.847656 "/>
<path style=" stroke:none;fill-rule:nonzero;fill:rgb(100%,100%,100%);fill-opacity:1;" d="M 24 10.5 C 16.628906 10.5 10.5 16.3125 10.5 23.347656 C 10.5 30.386719 16.628906 36 24 36 L 24.003906 36 C 25.035156 35.996094 26.050781 35.796875 27.058594 35.578125 C 29.128906 36.941406 31.660156 37.875 34.53125 37.355469 C 35.847656 37.113281 36.375 35.8125 35.457031 34.839844 C 34.472656 33.796875 33.847656 33.152344 33.816406 31.769531 C 36.0625 29.464844 37.496094 26.527344 37.5 23.347656 C 37.5 16.3125 31.371094 10.5 24 10.5 Z M 24 13.5 C 29.792969 13.5 34.5 18.050781 34.5 23.34375 C 34.496094 25.621094 33.472656 27.824219 31.671875 29.671875 C 31.109375 30.25 30.800781 31.027344 30.816406 31.832031 C 30.839844 32.714844 31.175781 33.527344 31.515625 34.285156 C 30.546875 34.0625 29.613281 33.671875 28.703125 33.074219 C 28.027344 32.625 27.199219 32.472656 26.40625 32.644531 C 25.453125 32.859375 24.65625 32.996094 24 33 C 18.152344 33 13.5 28.640625 13.5 23.347656 C 13.5 18.058594 18.207031 13.5 24 13.5 Z M 24 13.5 "/>
<path style="fill:none;stroke-width:2;stroke-linecap:round;stroke-linejoin:round;stroke:rgb(100%,100%,100%);stroke-opacity:1;stroke-miterlimit:4;" d="M 13 17.997867 C 13 17.997867 14.601562 18.997867 16 18.997867 C 17.398438 18.997867 19 17.997867 19 17.997867 " transform="matrix(1.5,0,0,1.5,0,-0.024144)"/>
</g>
</svg>
