<?xml version="1.0" encoding="UTF-8"?>
<svg xmlns="http://www.w3.org/2000/svg" xmlns:xlink="http://www.w3.org/1999/xlink" width="48pt" height="48pt" viewBox="0 0 48 48" version="1.1">
<g id="surface1">
<path style=" stroke:none;fill-rule:evenodd;fill:rgb(0.784314%,52.54902%,76.078431%);fill-opacity:1;" d="M 34.25 16.421875 C 34.171875 16.417969 34.097656 16.410156 34.027344 16.433594 L 34.027344 16.425781 C 33.980469 16.4375 33.910156 16.484375 33.875 16.527344 C 32.265625 21.035156 30.671875 25.535156 29.058594 30.035156 C 29.941406 30.042969 30.859375 30.097656 31.746094 30.035156 C 33.308594 25.496094 34.921875 20.964844 36.503906 16.433594 C 35.828125 16.417969 35.15625 16.441406 34.46875 16.433594 C 34.394531 16.441406 34.324219 16.433594 34.25 16.421875 Z M 34.25 16.421875 "/>
<path style=" stroke:none;fill-rule:evenodd;fill:rgb(100%,100%,100%);fill-opacity:1;" d="M 22.652344 45.152344 C 24.234375 41.0625 26.144531 36.578125 27.515625 32.765625 C 29.359375 32.730469 31.1875 32.75 33.035156 32.714844 C 33.621094 32.691406 34.355469 32.503906 34.988281 32.183594 C 35.625 31.859375 36.167969 31.402344 36.359375 30.828125 C 37.917969 26.453125 39.46875 22.121094 40.972656 17.722656 C 41.21875 17.058594 41.375 16.328125 41.171875 15.640625 C 40.910156 14.753906 40.105469 14.082031 39.238281 13.847656 C 38.484375 13.613281 37.730469 13.714844 36.953125 13.699219 C 34.59375 13.691406 32.167969 13.671875 29.800781 13.652344 C 29.765625 13.730469 29.746094 13.921875 29.707031 14 C 26.203125 23.828125 22.066406 35.074219 18.4375 45.152344 Z M 34.25 16.421875 C 34.324219 16.433594 34.394531 16.441406 34.46875 16.433594 C 35.15625 16.441406 35.828125 16.417969 36.503906 16.433594 C 34.921875 20.964844 33.308594 25.496094 31.746094 30.035156 C 30.859375 30.097656 29.941406 30.042969 29.058594 30.035156 C 30.671875 25.535156 32.265625 21.035156 33.875 16.527344 C 33.910156 16.484375 33.980469 16.4375 34.027344 16.425781 L 34.027344 16.433594 C 34.097656 16.410156 34.171875 16.417969 34.25 16.421875 Z M 34.25 16.421875 "/>
<path style=" stroke:none;fill-rule:evenodd;fill:rgb(0.784314%,52.54902%,76.078431%);fill-opacity:1;" d="M 17.359375 2.847656 L 11.214844 2.847656 C 6.578125 2.847656 2.847656 6.578125 2.847656 11.207031 L 2.847656 36.785156 C 2.847656 41.421875 6.578125 45.152344 11.214844 45.152344 L 18.4375 45.152344 C 22.066406 35.074219 26.203125 23.828125 29.707031 14 C 29.746094 13.921875 29.765625 13.730469 29.800781 13.652344 C 32.167969 13.671875 34.59375 13.691406 36.953125 13.699219 C 37.730469 13.714844 38.484375 13.613281 39.238281 13.847656 C 40.105469 14.082031 40.910156 14.753906 41.171875 15.640625 C 41.375 16.328125 41.21875 17.058594 40.972656 17.722656 C 39.46875 22.121094 37.917969 26.453125 36.359375 30.828125 C 36.167969 31.402344 35.625 31.859375 34.988281 32.183594 C 34.355469 32.503906 33.621094 32.691406 33.035156 32.714844 C 31.1875 32.75 29.359375 32.730469 27.515625 32.765625 C 26.144531 36.578125 24.234375 41.0625 22.652344 45.152344 L 36.792969 45.152344 C 41.421875 45.152344 45.152344 41.421875 45.152344 36.785156 L 45.152344 11.207031 C 45.152344 6.578125 41.421875 2.847656 36.792969 2.847656 L 22.53125 2.847656 C 21.34375 6.234375 20.144531 9.671875 18.980469 12.96875 C 19.90625 13.003906 21.082031 13.089844 22.191406 13.375 C 23.300781 13.667969 24.34375 14.152344 24.988281 14.988281 C 25.292969 15.378906 25.425781 15.886719 25.449219 16.410156 C 25.464844 16.9375 25.363281 17.488281 25.1875 17.96875 C 23.511719 22.671875 21.785156 27.363281 20.121094 32.066406 C 18.644531 32.089844 17.175781 32.058594 15.703125 32.066406 C 15.496094 32.0625 15.300781 32.097656 15.105469 32.019531 C 16.980469 26.859375 18.816406 21.65625 20.667969 16.472656 C 19.785156 16.464844 18.917969 16.496094 18.035156 16.472656 C 17.902344 16.761719 17.785156 17.078125 17.6875 17.375 C 15.984375 22.144531 14.265625 26.894531 12.574219 31.671875 C 12.496094 31.792969 12.515625 32.066406 12.324219 32.066406 C 10.917969 32.074219 9.503906 32.0625 8.105469 32.066406 C 7.847656 32.0625 7.605469 32.09375 7.359375 32.019531 C 10.683594 22.8125 14.03125 12.40625 17.359375 2.847656 Z M 17.359375 2.847656 "/>
<path style=" stroke:none;fill-rule:evenodd;fill:rgb(100%,100%,100%);fill-opacity:1;" d="M 17.359375 2.847656 C 14.03125 12.40625 10.683594 22.8125 7.359375 32.019531 C 7.605469 32.09375 7.847656 32.0625 8.105469 32.066406 C 9.503906 32.0625 10.917969 32.074219 12.324219 32.066406 C 12.515625 32.066406 12.496094 31.792969 12.574219 31.671875 C 14.265625 26.894531 15.984375 22.144531 17.6875 17.375 C 17.785156 17.078125 17.902344 16.761719 18.035156 16.472656 C 18.917969 16.496094 19.785156 16.464844 20.667969 16.472656 C 18.816406 21.65625 16.980469 26.859375 15.105469 32.019531 C 15.300781 32.097656 15.496094 32.0625 15.703125 32.066406 C 17.175781 32.058594 18.644531 32.089844 20.121094 32.066406 C 21.785156 27.363281 23.511719 22.671875 25.1875 17.96875 C 25.363281 17.488281 25.464844 16.9375 25.449219 16.410156 C 25.425781 15.886719 25.292969 15.378906 24.988281 14.988281 C 24.34375 14.152344 23.300781 13.667969 22.191406 13.375 C 21.082031 13.089844 19.90625 13.003906 18.980469 12.96875 C 20.144531 9.671875 21.34375 6.234375 22.53125 2.847656 Z M 17.359375 2.847656 "/>
</g>
</svg>
