<?xml version="1.0" encoding="UTF-8"?>
<svg xmlns="http://www.w3.org/2000/svg" xmlns:xlink="http://www.w3.org/1999/xlink" width="48pt" height="48pt" viewBox="0 0 48 48" version="1.1">
<g id="surface1">
<path style=" stroke:none;fill-rule:evenodd;fill:rgb(46.666667%,40.392157%,75.294118%);fill-opacity:1;" d="M 11.207031 2.847656 L 36.792969 2.847656 C 41.40625 2.847656 45.152344 6.59375 45.152344 11.207031 L 45.152344 36.792969 C 45.152344 41.40625 41.40625 45.152344 36.792969 45.152344 L 11.207031 45.152344 C 6.59375 45.152344 2.847656 41.40625 2.847656 36.792969 L 2.847656 11.207031 C 2.847656 6.59375 6.59375 2.847656 11.207031 2.847656 Z M 11.207031 2.847656 "/>
<path style=" stroke:none;fill-rule:evenodd;fill:rgb(56.862745%,50.980392%,84.313725%);fill-opacity:1;" d="M 32.894531 45.152344 L 32.894531 22.628906 C 32.894531 21.46875 32.660156 20.371094 32.238281 19.371094 C 31.816406 18.363281 31.207031 17.464844 30.453125 16.707031 C 29.699219 15.953125 28.796875 15.34375 27.792969 14.921875 C 26.792969 14.5 25.6875 14.265625 24.53125 14.265625 L 5.003906 14.265625 C 4.238281 14.265625 3.550781 14.503906 2.847656 14.699219 L 2.847656 36.785156 C 2.847656 41.421875 6.578125 45.152344 11.207031 45.152344 Z M 32.894531 45.152344 "/>
<path style=" stroke:none;fill-rule:evenodd;fill:rgb(65.490196%,60.784314%,87.45098%);fill-opacity:1;" d="M 32.894531 35.75 L 32.894531 45.152344 L 36.785156 45.152344 C 41.421875 45.152344 45.152344 41.421875 45.152344 36.785156 L 45.152344 35.75 Z M 32.894531 35.75 "/>
<path style=" stroke:none;fill-rule:evenodd;fill:rgb(65.490196%,60.784314%,87.45098%);fill-opacity:1;" d="M 13.253906 2.847656 L 11.207031 2.847656 C 6.578125 2.847656 2.847656 6.578125 2.847656 11.207031 L 2.847656 14.699219 C 3.550781 14.503906 4.238281 14.265625 5.003906 14.265625 L 13.253906 14.265625 Z M 13.253906 2.847656 "/>
<path style=" stroke:none;fill-rule:evenodd;fill:rgb(46.666667%,40.392157%,75.294118%);fill-opacity:1;" d="M 13.253906 2.847656 L 13.253906 14.265625 L 24.53125 14.265625 C 25.6875 14.265625 26.792969 14.5 27.792969 14.921875 C 28.796875 15.34375 29.699219 15.953125 30.453125 16.707031 C 31.207031 17.464844 31.816406 18.363281 32.238281 19.371094 C 32.660156 20.371094 32.894531 21.46875 32.894531 22.628906 L 32.894531 35.75 L 45.152344 35.75 L 45.152344 11.207031 C 45.152344 6.578125 41.421875 2.847656 36.785156 2.847656 Z M 13.253906 2.847656 "/>
<path style=" stroke:none;fill-rule:nonzero;fill:rgb(100%,100%,100%);fill-opacity:1;" d="M 17.152344 19.519531 C 11.347656 19.519531 6.652344 24.222656 6.652344 30.019531 C 6.652344 35.816406 11.347656 40.519531 17.152344 40.519531 C 22.949219 40.519531 27.652344 35.816406 27.652344 30.019531 C 27.652344 24.222656 22.949219 19.519531 17.152344 19.519531 Z M 16.097656 21.527344 C 16.21875 21.515625 16.375 21.53125 16.5 21.527344 C 16.515625 21.582031 16.410156 21.792969 16.269531 22.097656 C 15.378906 24.042969 15.332031 26.316406 16.15625 27.53125 C 16.308594 27.753906 16.441406 27.964844 16.441406 27.988281 C 16.441406 28.019531 16.28125 28.046875 16.097656 28.046875 C 15.671875 28.046875 15.265625 27.785156 14.4375 27.136719 C 14.074219 26.84375 13.59375 26.597656 13.410156 26.5625 C 13.121094 26.503906 13.042969 26.527344 12.667969 26.90625 C 12.316406 27.253906 12.207031 27.441406 12.207031 27.761719 C 12.207031 28.972656 13.652344 29.9375 16.328125 30.503906 C 19.964844 31.277344 20.859375 31.96875 20.957031 33.878906 C 21.082031 36.277344 19.808594 38.082031 17.011719 39.484375 C 16.675781 39.652344 16.464844 39.714844 16.328125 39.769531 C 16.265625 39.765625 16.21875 39.777344 16.15625 39.769531 C 16.136719 39.691406 16.097656 39.519531 16.097656 39.199219 C 16.097656 37.921875 15.597656 36.613281 14.839844 35.878906 C 14.636719 35.683594 14.066406 35.269531 13.582031 34.96875 C 13.09375 34.667969 12.605469 34.316406 12.496094 34.167969 C 12.3125 33.921875 12.296875 33.765625 12.4375 33.308594 C 12.691406 32.472656 12.996094 32.003906 13.578125 31.480469 C 13.886719 31.203125 14.199219 30.96875 14.265625 30.964844 C 14.332031 30.957031 13.875 30.816406 13.183594 30.675781 C 12.488281 30.535156 11.472656 30.238281 10.949219 30.046875 C 9.988281 29.703125 8.699219 28.972656 8.207031 28.449219 L 8.144531 28.390625 C 8.855469 25.578125 10.839844 23.269531 13.464844 22.160156 C 14.015625 21.925781 14.582031 21.765625 15.183594 21.644531 C 15.480469 21.582031 15.785156 21.5625 16.097656 21.53125 Z M 24.675781 25.816406 C 24.890625 25.949219 25.703125 27.703125 25.933594 28.5625 C 26.234375 29.667969 26.207031 31.578125 25.933594 32.675781 C 25.828125 33.09375 25.691406 33.488281 25.652344 33.535156 C 25.605469 33.589844 25.4375 33.308594 25.25 32.964844 C 25.058594 32.625 24.441406 31.902344 23.933594 31.363281 C 22.457031 29.808594 22.230469 29 22.84375 27.761719 C 23.15625 27.136719 24.511719 25.714844 24.675781 25.816406 Z M 24.675781 25.816406 "/>
<path style=" stroke:none;fill-rule:evenodd;fill:rgb(30.980392%,30.980392%,30.980392%);fill-opacity:1;" d="M 43.375 32.96875 C 43.375 37.9375 39.34375 41.96875 34.375 41.96875 C 29.402344 41.96875 25.375 37.9375 25.375 32.96875 C 25.375 28 29.402344 23.96875 34.375 23.96875 C 39.34375 23.96875 43.375 28 43.375 32.96875 Z M 43.375 32.96875 "/>
<path style=" stroke:none;fill-rule:nonzero;fill:rgb(100%,100%,100%);fill-opacity:1;" d="M 35.5 28.46875 L 35.5 32.96875 L 37.1875 32.96875 L 34.375 36.34375 L 31.5625 32.96875 L 33.25 32.96875 L 33.25 28.46875 Z M 35.5 28.46875 "/>
</g>
</svg>
