<?xml version="1.0" encoding="UTF-8"?>
<svg xmlns="http://www.w3.org/2000/svg" xmlns:xlink="http://www.w3.org/1999/xlink" width="48pt" height="48pt" viewBox="0 0 48 48" version="1.1">
<g id="surface1">
<path style=" stroke:none;fill-rule:evenodd;fill:rgb(0%,49.411765%,100%);fill-opacity:1;" d="M 11.207031 2.847656 L 36.792969 2.847656 C 41.40625 2.847656 45.152344 6.59375 45.152344 11.207031 L 45.152344 36.792969 C 45.152344 41.40625 41.40625 45.152344 36.792969 45.152344 L 11.207031 45.152344 C 6.59375 45.152344 2.847656 41.40625 2.847656 36.792969 L 2.847656 11.207031 C 2.847656 6.59375 6.59375 2.847656 11.207031 2.847656 Z M 11.207031 2.847656 "/>
<path style="fill:none;stroke-width:0.914724;stroke-linecap:butt;stroke-linejoin:miter;stroke:rgb(100%,100%,100%);stroke-opacity:1;stroke-miterlimit:4.5;" d="M 23.867188 8.434896 C 23.885417 11.520833 23.929688 13.960938 23.929688 16.533854 C 23.929688 20.958333 20.34375 24.541667 15.919271 24.541667 C 11.497396 24.541667 7.914062 20.958333 7.914062 16.533854 C 7.914062 12.111979 11.497396 8.523438 15.992188 8.518229 C 19.044271 8.372396 21.90625 8.416667 23.867188 8.434896 Z M 23.867188 8.434896 " transform="matrix(1.5,0,0,1.5,0,0)"/>
<path style="fill:none;stroke-width:3.527835;stroke-linecap:round;stroke-linejoin:miter;stroke:rgb(100%,100%,100%);stroke-opacity:1;stroke-miterlimit:4;" d="M 553.129961 -346.532735 L 553.129961 -352.060818 " transform="matrix(1.233051,0,0,-1.233051,-657.877111,-402.745545)"/>
<path style=" stroke:none;fill-rule:evenodd;fill:rgb(100%,100%,100%);fill-opacity:1;" d="M 26.390625 18.230469 C 26.390625 19.457031 25.390625 20.457031 24.160156 20.457031 C 22.933594 20.457031 21.933594 19.457031 21.933594 18.230469 C 21.933594 17 22.933594 16 24.160156 16 C 25.390625 16 26.390625 17 26.390625 18.230469 Z M 26.390625 18.230469 "/>
</g>
</svg>
