<?xml version="1.0" encoding="UTF-8"?>
<svg xmlns="http://www.w3.org/2000/svg" xmlns:xlink="http://www.w3.org/1999/xlink" width="48pt" height="48pt" viewBox="0 0 48 48" version="1.1">
<g id="surface1">
<path style="fill:none;stroke-width:0.914724;stroke-linecap:butt;stroke-linejoin:miter;stroke:rgb(100%,100%,100%);stroke-opacity:1;stroke-miterlimit:4.5;" d="M 23.867188 8.434896 C 23.885417 11.520833 23.929688 13.960938 23.929688 16.533854 C 23.929688 20.958333 20.34375 24.541667 15.919271 24.541667 C 11.497396 24.541667 7.914062 20.958333 7.914062 16.533854 C 7.914062 12.111979 11.497396 8.523438 15.992188 8.518229 C 19.044271 8.372396 21.90625 8.416667 23.867188 8.434896 Z M 23.867188 8.434896 " transform="matrix(1.5,0,0,1.5,0,0)"/>
<path style=" stroke:none;fill-rule:evenodd;fill:rgb(0%,49.411765%,100%);fill-opacity:1;" d="M 11.207031 2.847656 L 36.792969 2.847656 C 41.40625 2.847656 45.152344 6.59375 45.152344 11.207031 L 45.152344 36.792969 C 45.152344 41.40625 41.40625 45.152344 36.792969 45.152344 L 11.207031 45.152344 C 6.59375 45.152344 2.847656 41.40625 2.847656 36.792969 L 2.847656 11.207031 C 2.847656 6.59375 6.59375 2.847656 11.207031 2.847656 Z M 11.207031 2.847656 "/>
<path style=" stroke:none;fill-rule:evenodd;fill:rgb(0%,49.411765%,100%);fill-opacity:1;" d="M 13.832031 45.152344 L 36.792969 45.152344 C 41.421875 45.152344 45.152344 41.421875 45.152344 36.785156 L 45.152344 11.207031 C 45.152344 6.578125 41.421875 2.847656 36.792969 2.847656 L 13.832031 2.847656 Z M 13.832031 45.152344 "/>
<path style=" stroke:none;fill-rule:evenodd;fill:rgb(0%,36.862745%,63.921569%);fill-opacity:1;" d="M 13.832031 45.152344 L 13.832031 2.847656 L 11.207031 2.847656 C 6.578125 2.847656 2.847656 6.578125 2.847656 11.207031 L 2.847656 36.785156 C 2.847656 41.421875 6.578125 45.152344 11.207031 45.152344 Z M 13.832031 45.152344 "/>
<path style=" stroke:none;fill-rule:nonzero;fill:rgb(100%,100%,100%);fill-opacity:1;" d="M 29.484375 13.074219 C 28.027344 13.074219 26.824219 14.28125 26.824219 15.738281 C 26.824219 17.1875 27.984375 18.402344 29.453125 18.402344 C 30.921875 18.402344 32.144531 17.199219 32.144531 15.738281 C 32.144531 14.28125 30.941406 13.074219 29.484375 13.074219 Z M 31.839844 19.9375 L 30.730469 20.003906 L 24.511719 20.363281 L 24.511719 23.605469 L 26.980469 23.605469 C 27.082031 23.605469 27.09375 23.609375 27.15625 23.613281 C 27.128906 23.605469 27.125 23.550781 27.125 23.949219 L 27.125 31.707031 C 27.125 31.832031 27.121094 31.839844 27.113281 31.894531 C 27.105469 31.878906 26.84375 31.964844 26.089844 31.964844 L 24.84375 31.964844 L 24.84375 35.0625 L 34.144531 35.0625 L 34.144531 31.964844 L 32.902344 31.964844 C 32.136719 31.964844 31.871094 31.878906 31.855469 31.894531 C 31.847656 31.832031 31.839844 31.832031 31.839844 31.707031 Z M 31.839844 19.9375 "/>
</g>
</svg>
