<?xml version="1.0" encoding="UTF-8"?>
<svg xmlns="http://www.w3.org/2000/svg" xmlns:xlink="http://www.w3.org/1999/xlink" width="48pt" height="48pt" viewBox="0 0 48 48" version="1.1">
<g id="surface1">
<path style=" stroke:none;fill-rule:evenodd;fill:rgb(12.54902%,58.431373%,94.901961%);fill-opacity:1;" d="M 11.207031 2.847656 L 36.792969 2.847656 C 41.40625 2.847656 45.152344 6.59375 45.152344 11.207031 L 45.152344 36.792969 C 45.152344 41.40625 41.40625 45.152344 36.792969 45.152344 L 11.207031 45.152344 C 6.59375 45.152344 2.847656 41.40625 2.847656 36.792969 L 2.847656 11.207031 C 2.847656 6.59375 6.59375 2.847656 11.207031 2.847656 Z M 11.207031 2.847656 "/>
<path style=" stroke:none;fill-rule:evenodd;fill:rgb(100%,100%,100%);fill-opacity:1;" d="M 17.609375 9.640625 L 11.207031 18.277344 L 13.015625 21.863281 L 32.191406 21.863281 C 32.011719 26.464844 31.972656 27.574219 30.996094 29.953125 C 30.417969 31.355469 29.6875 32.234375 28.21875 32.921875 C 26.75 33.605469 24.402344 34.019531 20.828125 33.792969 L 20.535156 38.28125 C 24.5625 38.542969 27.667969 38.144531 30.125 37 C 32.578125 35.847656 34.246094 33.871094 35.15625 31.667969 C 36.972656 27.261719 36.484375 25.0625 36.792969 19.746094 L 36.691406 17.363281 L 17.484375 17.363281 L 21.21875 12.324219 Z M 17.609375 9.640625 "/>
</g>
</svg>
