<?xml version="1.0" encoding="UTF-8"?>
<svg xmlns="http://www.w3.org/2000/svg" xmlns:xlink="http://www.w3.org/1999/xlink" width="48pt" height="48pt" viewBox="0 0 48 48" version="1.1">
<g id="surface1">
<path style=" stroke:none;fill-rule:evenodd;fill:rgb(81.960784%,19.607843%,19.607843%);fill-opacity:1;" d="M 11.207031 2.847656 L 36.792969 2.847656 C 41.40625 2.847656 45.152344 6.59375 45.152344 11.207031 L 45.152344 36.792969 C 45.152344 41.40625 41.40625 45.152344 36.792969 45.152344 L 11.207031 45.152344 C 6.59375 45.152344 2.847656 41.40625 2.847656 36.792969 L 2.847656 11.207031 C 2.847656 6.59375 6.59375 2.847656 11.207031 2.847656 Z M 11.207031 2.847656 "/>
<path style=" stroke:none;fill-rule:nonzero;fill:rgb(100%,100%,100%);fill-opacity:1;" d="M 39.808594 28.863281 L 39.808594 30.078125 L 8.191406 30.078125 L 8.191406 28.863281 Z M 39.808594 28.863281 "/>
<path style=" stroke:none;fill-rule:nonzero;fill:rgb(100%,100%,100%);fill-opacity:1;" d="M 39.808594 32.511719 L 39.808594 33.730469 L 8.191406 33.730469 L 8.191406 32.511719 Z M 39.808594 32.511719 "/>
<path style=" stroke:none;fill-rule:nonzero;fill:rgb(100%,100%,100%);fill-opacity:1;" d="M 39.808594 36.160156 L 39.808594 37.375 L 8.191406 37.375 L 8.191406 36.160156 Z M 39.808594 36.160156 "/>
<path style=" stroke:none;fill-rule:nonzero;fill:rgb(100%,100%,100%);fill-opacity:1;" d="M 39.808594 17.921875 L 39.808594 19.136719 L 8.191406 19.136719 L 8.191406 17.921875 Z M 39.808594 17.921875 "/>
<path style=" stroke:none;fill-rule:nonzero;fill:rgb(100%,100%,100%);fill-opacity:1;" d="M 39.808594 21.566406 L 39.808594 22.785156 L 8.191406 22.785156 L 8.191406 21.566406 Z M 39.808594 21.566406 "/>
<path style=" stroke:none;fill-rule:nonzero;fill:rgb(100%,100%,100%);fill-opacity:1;" d="M 39.808594 25.214844 L 39.808594 26.433594 L 8.191406 26.433594 L 8.191406 25.214844 Z M 39.808594 25.214844 "/>
<path style=" stroke:none;fill-rule:nonzero;fill:rgb(100%,100%,100%);fill-opacity:1;" d="M 39.808594 14.269531 L 39.808594 15.488281 L 8.191406 15.488281 L 8.191406 14.269531 Z M 39.808594 14.269531 "/>
<path style=" stroke:none;fill-rule:nonzero;fill:rgb(100%,100%,100%);fill-opacity:1;" d="M 39.808594 10.625 L 39.808594 11.839844 L 8.191406 11.839844 L 8.191406 10.625 Z M 39.808594 10.625 "/>
<path style=" stroke:none;fill-rule:nonzero;fill:rgb(100%,100%,100%);fill-opacity:1;" d="M 19.136719 39.808594 L 17.921875 39.808594 L 17.921875 8.191406 L 19.136719 8.191406 Z M 19.136719 39.808594 "/>
<path style=" stroke:none;fill-rule:nonzero;fill:rgb(100%,100%,100%);fill-opacity:1;" d="M 15.488281 39.808594 L 14.269531 39.808594 L 14.269531 8.191406 L 15.488281 8.191406 Z M 15.488281 39.808594 "/>
<path style=" stroke:none;fill-rule:nonzero;fill:rgb(100%,100%,100%);fill-opacity:1;" d="M 11.839844 39.808594 L 10.625 39.808594 L 10.625 8.191406 L 11.839844 8.191406 Z M 11.839844 39.808594 "/>
<path style=" stroke:none;fill-rule:nonzero;fill:rgb(100%,100%,100%);fill-opacity:1;" d="M 30.078125 39.808594 L 28.863281 39.808594 L 28.863281 8.191406 L 30.078125 8.191406 Z M 30.078125 39.808594 "/>
<path style=" stroke:none;fill-rule:nonzero;fill:rgb(100%,100%,100%);fill-opacity:1;" d="M 26.433594 39.808594 L 25.214844 39.808594 L 25.214844 8.191406 L 26.433594 8.191406 Z M 26.433594 39.808594 "/>
<path style=" stroke:none;fill-rule:nonzero;fill:rgb(100%,100%,100%);fill-opacity:1;" d="M 22.785156 39.808594 L 21.566406 39.808594 L 21.566406 8.191406 L 22.785156 8.191406 Z M 22.785156 39.808594 "/>
<path style=" stroke:none;fill-rule:nonzero;fill:rgb(100%,100%,100%);fill-opacity:1;" d="M 33.730469 39.808594 L 32.511719 39.808594 L 32.511719 8.191406 L 33.730469 8.191406 Z M 33.730469 39.808594 "/>
<path style=" stroke:none;fill-rule:nonzero;fill:rgb(100%,100%,100%);fill-opacity:1;" d="M 37.375 39.808594 L 36.160156 39.808594 L 36.160156 8.191406 L 37.375 8.191406 Z M 37.375 39.808594 "/>
<path style=" stroke:none;fill-rule:nonzero;fill:rgb(71.764706%,71.764706%,71.764706%);fill-opacity:1;" d="M 38.59375 37.128906 L 38.59375 10.871094 C 38.59375 10.0625 37.777344 9.40625 36.765625 9.40625 L 11.234375 9.40625 C 10.222656 9.40625 9.40625 10.0625 9.40625 10.871094 L 9.40625 37.128906 C 9.40625 37.9375 10.222656 38.59375 11.234375 38.59375 L 36.765625 38.59375 C 37.777344 38.59375 38.59375 37.9375 38.59375 37.128906 Z M 38.59375 37.128906 "/>
<path style=" stroke:none;fill-rule:nonzero;fill:rgb(81.960784%,19.607843%,19.607843%);fill-opacity:1;" d="M 14.269531 13.058594 L 33.730469 13.058594 C 34.402344 13.058594 34.941406 13.597656 34.941406 14.269531 L 34.941406 33.730469 C 34.941406 34.402344 34.402344 34.941406 33.730469 34.941406 L 14.269531 34.941406 C 13.597656 34.941406 13.058594 34.402344 13.058594 33.730469 L 13.058594 14.269531 C 13.058594 13.597656 13.597656 13.058594 14.269531 13.058594 Z M 14.269531 13.058594 "/>
</g>
</svg>
