<?xml version="1.0" encoding="UTF-8"?>
<svg xmlns="http://www.w3.org/2000/svg" xmlns:xlink="http://www.w3.org/1999/xlink" width="48pt" height="48pt" viewBox="0 0 48 48" version="1.1">
<g id="surface1">
<path style=" stroke:none;fill-rule:evenodd;fill:rgb(0.784314%,52.54902%,76.078431%);fill-opacity:1;" d="M 11.207031 2.847656 L 36.792969 2.847656 C 41.40625 2.847656 45.152344 6.59375 45.152344 11.207031 L 45.152344 36.792969 C 45.152344 41.40625 41.40625 45.152344 36.792969 45.152344 L 11.207031 45.152344 C 6.59375 45.152344 2.847656 41.40625 2.847656 36.792969 L 2.847656 11.207031 C 2.847656 6.59375 6.59375 2.847656 11.207031 2.847656 Z M 11.207031 2.847656 "/>
<path style=" stroke:none;fill-rule:nonzero;fill:rgb(100%,100%,100%);fill-opacity:1;" d="M 18.746094 8.8125 C 17.769531 8.8125 16.988281 9.59375 16.988281 10.566406 L 16.988281 26.921875 C 16.988281 27.890625 17.769531 28.671875 18.746094 28.671875 L 35.097656 28.671875 C 36.066406 28.671875 36.847656 27.890625 36.847656 26.921875 L 36.847656 12.316406 L 40.355469 8.8125 Z M 18.746094 8.8125 "/>
<path style=" stroke:none;fill-rule:nonzero;fill:rgb(20.784314%,72.54902%,96.078431%);fill-opacity:1;" d="M 7.644531 19.328125 L 11.152344 22.832031 L 11.152344 37.433594 C 11.152344 38.40625 11.933594 39.1875 12.902344 39.1875 L 29.253906 39.1875 C 30.230469 39.1875 31.011719 38.40625 31.011719 37.433594 L 31.011719 21.078125 C 31.011719 20.109375 30.230469 19.328125 29.253906 19.328125 Z M 7.644531 19.328125 "/>
<path style=" stroke:none;fill-rule:nonzero;fill:rgb(68.235294%,89.019608%,98.431373%);fill-opacity:1;" d="M 14.65625 25.167969 L 14.65625 26.339844 L 27.503906 26.339844 L 27.503906 25.167969 Z M 14.65625 28.671875 L 14.65625 29.839844 L 27.503906 29.839844 L 27.503906 28.671875 Z M 14.65625 32.175781 L 14.65625 33.34375 L 24.46875 33.34375 L 24.46875 32.175781 Z M 14.65625 32.175781 "/>
</g>
</svg>
