<?xml version="1.0" encoding="UTF-8"?>
<svg xmlns="http://www.w3.org/2000/svg" xmlns:xlink="http://www.w3.org/1999/xlink" width="48pt" height="48pt" viewBox="0 0 48 48" version="1.1">
<g id="surface1">
<path style=" stroke:none;fill-rule:nonzero;fill:rgb(12.54902%,52.54902%,90.588235%);fill-opacity:1;" d="M 45 10.453125 C 44.917969 9.582031 44.824219 8.71875 44.496094 7.949219 C 44.074219 6.949219 43.464844 6.046875 42.707031 5.292969 C 41.949219 4.535156 41.050781 3.921875 40.046875 3.5 C 39.28125 3.175781 38.417969 3.082031 37.550781 3 L 24 3 L 24 24 L 45 24 Z M 45 10.453125 "/>
<path style=" stroke:none;fill-rule:nonzero;fill:rgb(99.607843%,29.411765%,44.313725%);fill-opacity:1;" d="M 10.449219 3 C 9.582031 3.082031 8.714844 3.175781 7.949219 3.5 C 6.949219 3.921875 6.046875 4.535156 5.292969 5.292969 C 4.535156 6.046875 3.921875 6.949219 3.5 7.949219 C 3.175781 8.714844 3.082031 9.582031 3 10.449219 L 3 24 L 24 24 L 24 3 Z M 10.449219 3 "/>
<path style=" stroke:none;fill-rule:nonzero;fill:rgb(40%,33.333333%,89.411765%);fill-opacity:1;" d="M 37.550781 45 C 38.417969 44.917969 39.285156 44.824219 40.050781 44.5 C 41.050781 44.078125 41.953125 43.464844 42.707031 42.707031 C 43.464844 41.953125 44.078125 41.050781 44.5 40.050781 C 44.824219 39.285156 44.917969 38.417969 45 37.550781 L 45 24 L 24 24 L 24 45 Z M 37.550781 45 "/>
<path style=" stroke:none;fill-rule:nonzero;fill:rgb(100%,54.901961%,16.470588%);fill-opacity:1;" d="M 3 37.546875 C 3.082031 38.417969 3.183594 39.28125 3.503906 40.050781 C 3.925781 41.050781 4.535156 41.953125 5.292969 42.707031 C 6.050781 43.464844 6.949219 44.078125 7.953125 44.5 C 8.71875 44.824219 9.582031 44.917969 10.449219 45 L 24 45 L 24 24 L 3 24 Z M 3 37.546875 "/>
<path style=" stroke:none;fill-rule:evenodd;fill:rgb(24.705882%,24.705882%,24.705882%);fill-opacity:1;" d="M 14.285156 7.933594 L 33.714844 7.933594 C 37.222656 7.933594 40.066406 10.777344 40.066406 14.285156 L 40.066406 33.714844 C 40.066406 37.222656 37.222656 40.066406 33.714844 40.066406 L 14.285156 40.066406 C 10.777344 40.066406 7.933594 37.222656 7.933594 33.714844 L 7.933594 14.285156 C 7.933594 10.777344 10.777344 7.933594 14.285156 7.933594 Z M 14.285156 7.933594 "/>
<path style="fill:none;stroke-width:2;stroke-linecap:round;stroke-linejoin:miter;stroke:rgb(100%,100%,100%);stroke-opacity:1;stroke-miterlimit:4;" d="M 59.303399 -11.983351 L 67.304044 -11.983351 " transform="matrix(1.245993,0,0,1.245993,-57.418984,47.661644)"/>
<path style="fill:none;stroke-width:2;stroke-linecap:round;stroke-linejoin:miter;stroke:rgb(100%,100%,100%);stroke-opacity:1;stroke-miterlimit:4;" d="M 59.303399 -17.983834 L 63.303722 -17.983834 M 59.303399 -25.984479 L 63.303722 -25.984479 M 61.306696 -17.983834 L 61.306696 -25.984479 " transform="matrix(1.245993,0,0,1.245993,-57.418984,47.661644)"/>
<path style="fill:none;stroke-width:2;stroke-linecap:round;stroke-linejoin:round;stroke:rgb(100%,100%,100%);stroke-opacity:1;stroke-miterlimit:4;" d="M 67.304044 -18.98078 L 67.304044 -17.983834 L 68.304125 -17.983834 C 72.219801 -18.099831 71.304366 -24.871537 71.304366 -25.984479 " transform="matrix(1.245993,0,0,1.245993,-57.418984,47.661644)"/>
</g>
</svg>
