<?xml version="1.0" encoding="UTF-8"?>
<svg xmlns="http://www.w3.org/2000/svg" xmlns:xlink="http://www.w3.org/1999/xlink" width="48pt" height="48pt" viewBox="0 0 48 48" version="1.1">
<g id="surface1">
<path style=" stroke:none;fill-rule:evenodd;fill:rgb(80%,80%,80%);fill-opacity:1;" d="M 11.207031 2.847656 L 36.792969 2.847656 C 41.40625 2.847656 45.152344 6.59375 45.152344 11.207031 L 45.152344 36.792969 C 45.152344 41.40625 41.40625 45.152344 36.792969 45.152344 L 11.207031 45.152344 C 6.59375 45.152344 2.847656 41.40625 2.847656 36.792969 L 2.847656 11.207031 C 2.847656 6.59375 6.59375 2.847656 11.207031 2.847656 Z M 11.207031 2.847656 "/>
<path style=" stroke:none;fill-rule:nonzero;fill:rgb(26.666667%,43.529412%,49.019608%);fill-opacity:1;" d="M 21 17.222656 C 19.652344 17.230469 18.160156 17.46875 17.484375 17.878906 C 16.8125 18.292969 16.5 18.925781 16.5 19.800781 L 16.5 21.722656 C 16.5 22.25 16.253906 22.59375 15.84375 22.847656 C 15.4375 23.105469 14.339844 23.277344 13.5 23.269531 L 13.5 24.769531 C 15.152344 24.777344 16.5 25.324219 16.5 26.363281 L 16.5 28.011719 C 16.5 28.96875 16.8125 29.6875 17.4375 30.113281 C 18.074219 30.550781 19.5625 30.761719 21 30.769531 L 21 29.230469 C 20.285156 29.214844 18.785156 29.089844 18.46875 28.855469 C 18.152344 28.613281 18 28.28125 18 27.824219 L 18 26.042969 C 18 25.578125 17.828125 24.222656 16.40625 24.027344 L 16.40625 23.933594 C 17.828125 23.707031 18 22.621094 18 21.957031 L 18 20.175781 C 18 19.71875 18.152344 19.425781 18.46875 19.191406 C 18.792969 18.957031 20.292969 18.800781 21 18.769531 Z M 27 17.222656 L 27 18.769531 C 27.707031 18.800781 29.207031 18.957031 29.53125 19.191406 C 29.847656 19.425781 30 19.71875 30 20.175781 L 30 21.957031 C 30 22.621094 30.171875 23.707031 31.59375 23.925781 L 31.59375 24.019531 C 30.171875 24.222656 30 25.578125 30 26.042969 L 30 27.824219 C 30 28.28125 29.847656 28.613281 29.53125 28.855469 C 29.214844 29.089844 27.714844 29.214844 27 29.230469 L 27 30.777344 C 28.4375 30.761719 29.925781 30.550781 30.5625 30.121094 C 31.1875 29.6875 31.5 28.96875 31.5 28.011719 L 31.5 26.371094 C 31.5 25.324219 32.847656 24.777344 34.5 24.777344 L 34.5 23.277344 C 33.660156 23.277344 32.5625 23.105469 32.15625 22.855469 C 31.746094 22.59375 31.5 22.25 31.5 21.722656 L 31.5 19.800781 C 31.5 18.925781 31.1875 18.292969 30.515625 17.878906 C 29.839844 17.46875 28.347656 17.230469 27 17.222656 Z M 27 17.222656 "/>
</g>
</svg>
