<?xml version="1.0" encoding="UTF-8"?>
<svg xmlns="http://www.w3.org/2000/svg" xmlns:xlink="http://www.w3.org/1999/xlink" width="48pt" height="48pt" viewBox="0 0 48 48" version="1.1">
<g id="surface1">
<path style=" stroke:none;fill-rule:evenodd;fill:rgb(80%,94.117647%,74.509804%);fill-opacity:1;" d="M 11.207031 2.847656 L 36.792969 2.847656 C 41.40625 2.847656 45.152344 6.59375 45.152344 11.207031 L 45.152344 36.792969 C 45.152344 41.40625 41.40625 45.152344 36.792969 45.152344 L 11.207031 45.152344 C 6.59375 45.152344 2.847656 41.40625 2.847656 36.792969 L 2.847656 11.207031 C 2.847656 6.59375 6.59375 2.847656 11.207031 2.847656 Z M 11.207031 2.847656 "/>
<path style=" stroke:none;fill-rule:nonzero;fill:rgb(29.411765%,68.235294%,30.980392%);fill-opacity:1;" d="M 18.746094 8.8125 C 17.769531 8.8125 16.988281 9.59375 16.988281 10.566406 L 16.988281 26.921875 C 16.988281 27.890625 17.769531 28.671875 18.746094 28.671875 L 35.097656 28.671875 C 36.066406 28.671875 36.847656 27.890625 36.847656 26.921875 L 36.847656 12.316406 L 40.355469 8.8125 Z M 18.746094 8.8125 "/>
<path style=" stroke:none;fill-rule:nonzero;fill:rgb(54.117647%,76.078431%,28.627451%);fill-opacity:1;" d="M 7.644531 19.328125 L 11.152344 22.832031 L 11.152344 37.433594 C 11.152344 38.40625 11.933594 39.1875 12.902344 39.1875 L 29.253906 39.1875 C 30.230469 39.1875 31.011719 38.40625 31.011719 37.433594 L 31.011719 21.078125 C 31.011719 20.109375 30.230469 19.328125 29.253906 19.328125 Z M 7.644531 19.328125 "/>
<path style=" stroke:none;fill-rule:evenodd;fill:rgb(100%,100%,100%);fill-opacity:1;" d="M 19.546875 23.519531 L 18.917969 26.90625 L 15.40625 26.90625 L 15.40625 28.035156 L 18.703125 28.035156 L 18.074219 31.421875 L 15.40625 31.421875 L 15.40625 32.550781 L 17.859375 32.550781 L 17.230469 35.9375 L 18.421875 35.9375 L 19.058594 32.550781 L 22.042969 32.550781 L 21.40625 35.9375 L 22.597656 35.9375 L 23.234375 32.550781 L 27.339844 32.550781 L 27.339844 31.421875 L 23.441406 31.421875 L 24.078125 28.035156 L 27.339844 28.035156 L 27.339844 26.90625 L 24.285156 26.90625 L 24.917969 23.519531 L 23.722656 23.519531 L 23.09375 26.90625 L 20.109375 26.90625 L 20.738281 23.519531 Z M 19.902344 28.035156 L 22.886719 28.035156 L 22.25 31.421875 L 19.265625 31.421875 Z M 19.902344 28.035156 "/>
</g>
</svg>
