<?xml version="1.0" encoding="UTF-8"?>
<svg xmlns="http://www.w3.org/2000/svg" xmlns:xlink="http://www.w3.org/1999/xlink" width="48pt" height="48pt" viewBox="0 0 48 48" version="1.1">
<g id="surface1">
<path style=" stroke:none;fill-rule:evenodd;fill:rgb(98.039216%,36.078431%,36.078431%);fill-opacity:1;" d="M 11.207031 2.847656 L 36.792969 2.847656 C 41.40625 2.847656 45.152344 6.59375 45.152344 11.207031 L 45.152344 36.792969 C 45.152344 41.40625 41.40625 45.152344 36.792969 45.152344 L 11.207031 45.152344 C 6.59375 45.152344 2.847656 41.40625 2.847656 36.792969 L 2.847656 11.207031 C 2.847656 6.59375 6.59375 2.847656 11.207031 2.847656 Z M 11.207031 2.847656 "/>
<path style=" stroke:none;fill-rule:nonzero;fill:rgb(100%,75.294118%,100%);fill-opacity:1;" d="M 16.285156 12.003906 C 16.125 12 15.957031 12 15.792969 12.011719 C 12.328125 12.230469 8.535156 16.621094 6.8125 22.40625 C 4.859375 28.980469 6.230469 35.015625 9.878906 35.894531 C 12.199219 36.449219 14.996094 34.78125 17.25 31.5 L 30.75 31.5 C 33.003906 34.78125 35.796875 36.449219 38.113281 35.894531 C 41.765625 35.019531 43.140625 28.980469 41.1875 22.40625 C 39.230469 15.839844 34.683594 11.222656 31.03125 12.105469 C 29.332031 12.519531 28.058594 14.09375 27.457031 16.5 L 20.542969 16.5 C 19.941406 14.09375 18.660156 12.519531 16.964844 12.105469 C 16.746094 12.050781 16.519531 12.019531 16.285156 12.003906 Z M 20.921875 19.5 L 26.921875 19.5 L 26.921875 24 L 28.421875 24 L 23.921875 28.5 L 19.421875 24 L 20.921875 24 Z M 20.921875 19.5 "/>
</g>
</svg>
