<?xml version="1.0" encoding="UTF-8"?>
<svg xmlns="http://www.w3.org/2000/svg" xmlns:xlink="http://www.w3.org/1999/xlink" width="48pt" height="48pt" viewBox="0 0 48 48" version="1.1">
<g id="surface1">
<path style=" stroke:none;fill-rule:evenodd;fill:rgb(0.784314%,52.54902%,76.078431%);fill-opacity:1;" d="M 11.207031 2.847656 L 36.792969 2.847656 C 41.40625 2.847656 45.152344 6.59375 45.152344 11.207031 L 45.152344 36.792969 C 45.152344 41.40625 41.40625 45.152344 36.792969 45.152344 L 11.207031 45.152344 C 6.59375 45.152344 2.847656 41.40625 2.847656 36.792969 L 2.847656 11.207031 C 2.847656 6.59375 6.59375 2.847656 11.207031 2.847656 Z M 11.207031 2.847656 "/>
<path style=" stroke:none;fill-rule:nonzero;fill:rgb(54.117647%,86.666667%,100%);fill-opacity:1;" d="M 12 12 L 16.5 12 L 16.5 36 L 12 36 Z M 12 12 "/>
<path style=" stroke:none;fill-rule:nonzero;fill:rgb(54.117647%,86.666667%,100%);fill-opacity:1;" d="M 27 12 L 31.5 12 L 31.5 36 L 27 36 Z M 27 12 "/>
<path style=" stroke:none;fill-rule:nonzero;fill:rgb(54.117647%,86.666667%,100%);fill-opacity:1;" d="M 36 12 L 36 16.5 L 22.5 16.5 L 22.5 12 Z M 36 12 "/>
</g>
</svg>
