<?xml version="1.0" encoding="UTF-8"?>
<svg xmlns="http://www.w3.org/2000/svg" xmlns:xlink="http://www.w3.org/1999/xlink" width="48pt" height="48pt" viewBox="0 0 48 48" version="1.1">
<g id="surface1">
<path style=" stroke:none;fill-rule:evenodd;fill:rgb(33.333333%,39.215686%,56.078431%);fill-opacity:1;" d="M 11.207031 2.847656 L 36.792969 2.847656 C 41.40625 2.847656 45.152344 6.59375 45.152344 11.207031 L 45.152344 36.792969 C 45.152344 41.40625 41.40625 45.152344 36.792969 45.152344 L 11.207031 45.152344 C 6.59375 45.152344 2.847656 41.40625 2.847656 36.792969 L 2.847656 11.207031 C 2.847656 6.59375 6.59375 2.847656 11.207031 2.847656 Z M 11.207031 2.847656 "/>
<path style=" stroke:none;fill-rule:evenodd;fill:rgb(100%,100%,100%);fill-opacity:1;" d="M 10.839844 10.5 C 16.671875 17.144531 17.441406 24 17.136719 28.5 C 16.863281 32.441406 14.4375 33.921875 13.972656 34.109375 C 13.011719 34.496094 10.738281 35.078125 7.5 33 C 7.5 35.421875 9.582031 37.5 13.203125 37.5 C 16.828125 37.5 19.792969 34.59375 20.394531 31.316406 C 22.484375 14.402344 18.503906 12.027344 18.503906 12.027344 C 18.503906 12.027344 14.863281 10.5 10.839844 10.5 Z M 22.5 10.5 C 23.558594 14.988281 31.5 16.753906 31.5 18.886719 C 31.5 21.019531 25.410156 21.390625 25.5 24.847656 C 25.589844 29.628906 33.265625 35.953125 40.5 37.5 C 37.324219 33.824219 29.296875 25.800781 31.941406 23.738281 C 41.472656 17.265625 32.734375 11.972656 22.5 10.5 Z M 22.5 10.5 "/>
</g>
</svg>
