<?xml version="1.0" encoding="UTF-8"?>
<svg xmlns="http://www.w3.org/2000/svg" xmlns:xlink="http://www.w3.org/1999/xlink" width="48pt" height="48pt" viewBox="0 0 48 48" version="1.1">
<g id="surface1">
<path style=" stroke:none;fill-rule:evenodd;fill:rgb(90.588235%,29.803922%,23.529412%);fill-opacity:1;" d="M 11.207031 2.847656 L 36.792969 2.847656 C 41.40625 2.847656 45.152344 6.59375 45.152344 11.207031 L 45.152344 36.792969 C 45.152344 41.40625 41.40625 45.152344 36.792969 45.152344 L 11.207031 45.152344 C 6.59375 45.152344 2.847656 41.40625 2.847656 36.792969 L 2.847656 11.207031 C 2.847656 6.59375 6.59375 2.847656 11.207031 2.847656 Z M 11.207031 2.847656 "/>
<path style=" stroke:none;fill-rule:evenodd;fill:rgb(100%,100%,100%);fill-opacity:1;" d="M 20.265625 32.199219 C 20.265625 32.199219 19.175781 32.871094 21.035156 33.09375 C 23.296875 33.363281 24.449219 33.324219 26.933594 32.828125 C 26.933594 32.828125 27.589844 33.261719 28.5 33.636719 C 22.925781 36.152344 15.886719 33.488281 20.265625 32.199219 Z M 20.265625 32.199219 "/>
<path style=" stroke:none;fill-rule:evenodd;fill:rgb(100%,100%,100%);fill-opacity:1;" d="M 19.582031 28.917969 C 19.582031 28.917969 18.359375 29.871094 20.222656 30.074219 C 22.636719 30.332031 24.535156 30.355469 27.832031 29.6875 C 27.832031 29.6875 28.285156 30.171875 29.003906 30.4375 C 22.265625 32.515625 14.761719 30.605469 19.582031 28.917969 Z M 19.582031 28.917969 "/>
<path style=" stroke:none;fill-rule:evenodd;fill:rgb(100%,100%,100%);fill-opacity:1;" d="M 25.324219 23.34375 C 26.699219 25.011719 24.964844 26.511719 24.964844 26.511719 C 24.964844 26.511719 28.449219 24.613281 26.847656 22.234375 C 25.355469 20.019531 24.207031 18.921875 30.417969 15.125 C 30.417969 15.125 20.667969 17.691406 25.324219 23.34375 Z M 25.324219 23.34375 "/>
<path style=" stroke:none;fill-rule:evenodd;fill:rgb(100%,100%,100%);fill-opacity:1;" d="M 32.699219 34.628906 C 32.699219 34.628906 33.5 35.328125 31.808594 35.871094 C 28.59375 36.894531 18.417969 37.207031 15.59375 35.910156 C 14.578125 35.441406 16.480469 34.796875 17.082031 34.660156 C 17.703125 34.519531 18.0625 34.546875 18.0625 34.546875 C 16.933594 33.707031 10.761719 36.191406 14.925781 36.90625 C 26.292969 38.84375 35.644531 36.03125 32.699219 34.628906 Z M 32.699219 34.628906 "/>
<path style=" stroke:none;fill-rule:evenodd;fill:rgb(100%,100%,100%);fill-opacity:1;" d="M 20.785156 25.511719 C 20.785156 25.511719 15.609375 26.808594 18.953125 27.28125 C 20.363281 27.480469 23.175781 27.433594 25.800781 27.199219 C 27.941406 27.011719 30.089844 26.605469 30.089844 26.605469 C 30.089844 26.605469 29.339844 26.949219 28.792969 27.339844 C 23.535156 28.796875 13.378906 28.121094 16.308594 26.628906 C 18.777344 25.371094 20.785156 25.511719 20.785156 25.511719 Z M 20.785156 25.511719 "/>
<path style=" stroke:none;fill-rule:evenodd;fill:rgb(100%,100%,100%);fill-opacity:1;" d="M 30.066406 30.980469 C 35.410156 28.058594 32.941406 25.246094 31.21875 25.625 C 30.796875 25.714844 30.609375 25.796875 30.609375 25.796875 C 30.609375 25.796875 30.765625 25.535156 31.0625 25.425781 C 34.472656 24.160156 37.097656 29.152344 29.964844 31.125 C 29.964844 31.125 30.046875 31.046875 30.066406 30.980469 Z M 30.066406 30.980469 "/>
<path style=" stroke:none;fill-rule:evenodd;fill:rgb(100%,100%,100%);fill-opacity:1;" d="M 26.847656 9 C 26.847656 9 29.808594 12.121094 24.042969 16.910156 C 19.421875 20.761719 22.988281 22.953125 24.042969 25.457031 C 21.34375 22.894531 19.363281 20.636719 20.691406 18.53125 C 22.640625 15.449219 28.042969 13.953125 26.847656 9 Z M 26.847656 9 "/>
<path style=" stroke:none;fill-rule:evenodd;fill:rgb(100%,100%,100%);fill-opacity:1;" d="M 21.3125 38.90625 C 26.4375 39.25 34.3125 38.714844 34.5 36.15625 C 34.5 36.15625 34.140625 37.125 30.261719 37.894531 C 25.886719 38.765625 20.488281 38.660156 17.285156 38.105469 C 17.285156 38.105469 17.941406 38.675781 21.3125 38.90625 Z M 21.3125 38.90625 "/>
</g>
</svg>
