<?xml version="1.0" encoding="UTF-8"?>
<svg xmlns="http://www.w3.org/2000/svg" xmlns:xlink="http://www.w3.org/1999/xlink" width="48pt" height="48pt" viewBox="0 0 48 48" version="1.1">
<g id="surface1">
<path style=" stroke:none;fill-rule:evenodd;fill:rgb(30.980392%,23.137255%,12.941176%);fill-opacity:1;" d="M 11.207031 2.847656 L 36.792969 2.847656 C 41.40625 2.847656 45.152344 6.59375 45.152344 11.207031 L 45.152344 36.792969 C 45.152344 41.40625 41.40625 45.152344 36.792969 45.152344 L 11.207031 45.152344 C 6.59375 45.152344 2.847656 41.40625 2.847656 36.792969 L 2.847656 11.207031 C 2.847656 6.59375 6.59375 2.847656 11.207031 2.847656 Z M 11.207031 2.847656 "/>
<path style=" stroke:none;fill-rule:nonzero;fill:rgb(47.843137%,38.039216%,26.27451%);fill-opacity:1;" d="M 28.738281 9.746094 C 23.734375 9.824219 12.917969 10.589844 10.9375 13.753906 C 10.59375 14.667969 9.972656 17.871094 9.675781 20.324219 C 9.605469 20.886719 9.535156 21.609375 9.46875 22.269531 C 8.234375 23.535156 7.542969 25.234375 7.542969 27.003906 C 7.542969 28.386719 7.96875 29.738281 8.753906 30.871094 C 8.746094 31.0625 8.6875 31.878906 8.6875 31.878906 C 8.59375 35.015625 8.667969 35.128906 11.644531 36.371094 C 14.027344 37.359375 16.605469 37.875 20.515625 38.144531 C 23.863281 38.375 27.25 38.269531 29.832031 37.855469 C 34.375 37.125 38.3125 35.640625 38.75 34.488281 C 38.871094 34.175781 39.050781 32.886719 39.152344 31.625 C 39.171875 31.371094 39.183594 31.15625 39.203125 30.917969 C 40.015625 29.777344 40.453125 28.40625 40.457031 27.003906 C 40.457031 25.328125 39.832031 23.71875 38.714844 22.480469 C 38.515625 21.199219 38.277344 19.746094 37.957031 17.847656 C 37.402344 14.90625 36.730469 12.082031 36.472656 11.582031 C 35.730469 10.113281 34.8125 9.832031 30.484375 9.746094 C 30.046875 9.734375 29.453125 9.734375 28.738281 9.746094 Z M 28.738281 9.746094 "/>
<path style=" stroke:none;fill-rule:nonzero;fill:rgb(21.568627%,17.254902%,11.764706%);fill-opacity:1;" d="M 26.71875 35.65625 C 27.730469 35.203125 28.160156 34.582031 27.566406 34.433594 C 27.371094 34.378906 26.847656 34.542969 26.410156 34.78125 C 25.433594 35.328125 24.078125 35.363281 22.878906 34.886719 C 21.378906 34.28125 20.660156 34.613281 21.859375 35.355469 C 23.183594 36.175781 25.277344 36.308594 26.71875 35.65625 Z M 26.71875 35.65625 "/>
<path style=" stroke:none;fill-rule:nonzero;fill:rgb(21.568627%,65.098039%,26.27451%);fill-opacity:1;" d="M 20.707031 26.746094 C 20.707031 30.078125 18.003906 32.777344 14.671875 32.777344 C 11.339844 32.777344 8.640625 30.078125 8.640625 26.746094 C 8.640625 23.410156 11.339844 20.707031 14.671875 20.707031 C 18.003906 20.707031 20.707031 23.410156 20.707031 26.746094 Z M 20.707031 26.746094 "/>
<path style=" stroke:none;fill-rule:nonzero;fill:rgb(21.568627%,17.254902%,11.764706%);fill-opacity:1;" d="M 15.222656 26.191406 C 15.222656 26.800781 14.730469 27.292969 14.125 27.292969 C 13.519531 27.292969 13.027344 26.800781 13.027344 26.191406 C 13.027344 25.589844 13.519531 25.097656 14.125 25.097656 C 14.730469 25.097656 15.222656 25.589844 15.222656 26.191406 Z M 15.222656 26.191406 "/>
<path style=" stroke:none;fill-rule:nonzero;fill:rgb(21.568627%,65.098039%,26.27451%);fill-opacity:1;" d="M 39.359375 26.746094 C 39.359375 30.078125 36.65625 32.777344 33.328125 32.777344 C 29.996094 32.777344 27.292969 30.078125 27.292969 26.746094 C 27.292969 23.410156 29.996094 20.707031 33.328125 20.707031 C 36.65625 20.707031 39.359375 23.410156 39.359375 26.746094 Z M 39.359375 26.746094 "/>
<path style=" stroke:none;fill-rule:nonzero;fill:rgb(21.568627%,17.254902%,11.764706%);fill-opacity:1;" d="M 34.972656 26.191406 C 34.972656 26.800781 34.480469 27.292969 33.875 27.292969 C 33.269531 27.292969 32.777344 26.800781 32.777344 26.191406 C 32.777344 25.589844 33.269531 25.097656 33.875 25.097656 C 34.480469 25.097656 34.972656 25.589844 34.972656 26.191406 Z M 34.972656 26.191406 "/>
<path style=" stroke:none;fill-rule:nonzero;fill:rgb(21.568627%,17.254902%,11.764706%);fill-opacity:1;" d="M 34.910156 13.097656 C 34.957031 13.214844 31.683594 14.546875 28.902344 15.785156 C 26.121094 17.027344 24.886719 17.699219 24.839844 17.582031 C 24.808594 17.515625 26.519531 16.425781 27.683594 15.871094 C 29.921875 14.902344 32.175781 13.863281 34.910156 13.097656 Z M 34.910156 13.097656 "/>
<path style=" stroke:none;fill-rule:nonzero;fill:rgb(21.568627%,17.254902%,11.764706%);fill-opacity:1;" d="M 32.550781 18.855469 C 32.433594 18.886719 31.066406 17.574219 29.761719 15.828125 C 28.457031 14.078125 27.707031 12.558594 27.828125 12.527344 C 27.949219 12.496094 28.78125 13.886719 30.089844 15.636719 C 31.390625 17.378906 32.671875 18.824219 32.550781 18.855469 Z M 32.550781 18.855469 "/>
</g>
</svg>
