<?xml version="1.0" encoding="UTF-8"?>
<svg xmlns="http://www.w3.org/2000/svg" xmlns:xlink="http://www.w3.org/1999/xlink" width="48pt" height="48pt" viewBox="0 0 48 48" version="1.1">
<g id="surface1">
<path style=" stroke:none;fill-rule:evenodd;fill:rgb(50.588235%,38.039216%,18.823529%);fill-opacity:1;" d="M 11.207031 2.847656 L 36.792969 2.847656 C 41.40625 2.847656 45.152344 6.59375 45.152344 11.207031 L 45.152344 36.792969 C 45.152344 41.40625 41.40625 45.152344 36.792969 45.152344 L 11.207031 45.152344 C 6.59375 45.152344 2.847656 41.40625 2.847656 36.792969 L 2.847656 11.207031 C 2.847656 6.59375 6.59375 2.847656 11.207031 2.847656 Z M 11.207031 2.847656 "/>
<path style=" stroke:none;fill-rule:nonzero;fill:rgb(100%,100%,100%);fill-opacity:1;" d="M 18 14.5 C 20.484375 14.5 22.5 16.515625 22.5 19 C 22.5 21.484375 20.484375 23.5 18 23.5 C 15.515625 23.5 13.5 21.484375 13.5 19 C 13.5 16.515625 15.515625 14.5 18 14.5 Z M 18 14.5 "/>
<path style=" stroke:none;fill-rule:nonzero;fill:rgb(100%,100%,100%);fill-opacity:1;" d="M 18 26 C 27 25.996094 27 32 27 32 L 27 33.5 L 9 33.5 L 9 32 C 9 32 9 26.003906 18 26 Z M 18 26 "/>
<path style=" stroke:none;fill-rule:nonzero;fill:rgb(100%,100%,100%);fill-opacity:1;" d="M 33 14.5 C 34.65625 14.5 36 15.84375 36 17.5 C 36 19.15625 34.65625 20.5 33 20.5 C 31.34375 20.5 30 19.15625 30 17.5 C 30 15.84375 31.34375 14.5 33 14.5 Z M 33 14.5 "/>
<path style=" stroke:none;fill-rule:nonzero;fill:rgb(100%,100%,100%);fill-opacity:1;" d="M 33 22 C 39 21.996094 39 26.800781 39 26.800781 L 39 28 L 27 28 L 27 26.800781 C 27 26.800781 27 22.003906 33 22 Z M 33 22 "/>
</g>
</svg>
