<?xml version="1.0" encoding="UTF-8"?>
<svg xmlns="http://www.w3.org/2000/svg" xmlns:xlink="http://www.w3.org/1999/xlink" width="48pt" height="48pt" viewBox="0 0 48 48" version="1.1">
<g id="surface1">
<path style=" stroke:none;fill-rule:evenodd;fill:rgb(82.352941%,82.352941%,82.352941%);fill-opacity:1;" d="M 44.183594 7.484375 L 43.230469 7.484375 L 37.550781 13.160156 L 45.121094 13.160156 L 45.152344 13.128906 L 45.152344 11.214844 C 45.152344 9.847656 44.753906 8.621094 44.183594 7.484375 Z M 44.183594 7.484375 "/>
<path style=" stroke:none;fill-rule:evenodd;fill:rgb(32.156863%,25.490196%,38.431373%);fill-opacity:1;" d="M 12.097656 2.847656 L 11.207031 2.847656 C 9.328125 2.847656 7.6875 3.578125 6.296875 4.613281 L 9.167969 7.484375 L 9.167969 13.160156 L 2.847656 13.160156 L 2.847656 36.792969 C 2.847656 41.421875 6.578125 45.152344 11.207031 45.152344 L 36.785156 45.152344 C 41.421875 45.152344 45.152344 41.421875 45.152344 36.792969 L 45.152344 13.128906 L 45.121094 13.160156 L 37.550781 13.160156 L 43.230469 7.484375 L 39.339844 3.597656 C 38.5 3.300781 37.734375 2.847656 36.785156 2.847656 L 32.910156 2.847656 L 37.550781 7.484375 L 29.984375 7.484375 L 25.34375 2.847656 L 19.660156 2.847656 L 24.300781 7.484375 L 16.734375 7.484375 Z M 12.097656 2.847656 "/>
<path style=" stroke:none;fill-rule:evenodd;fill:rgb(74.509804%,74.509804%,74.509804%);fill-opacity:1;" d="M 12.097656 2.847656 L 16.734375 7.484375 L 24.300781 7.484375 L 19.667969 2.847656 Z M 12.097656 2.847656 "/>
<path style=" stroke:none;fill-rule:evenodd;fill:rgb(74.509804%,74.509804%,74.509804%);fill-opacity:1;" d="M 25.34375 2.847656 L 29.984375 7.484375 L 37.550781 7.484375 L 32.910156 2.847656 Z M 25.34375 2.847656 "/>
<path style=" stroke:none;fill-rule:evenodd;fill:rgb(74.509804%,74.509804%,74.509804%);fill-opacity:1;" d="M 39.339844 3.597656 L 43.230469 7.484375 L 44.183594 7.484375 C 43.203125 5.546875 41.402344 4.316406 39.339844 3.597656 Z M 39.339844 3.597656 "/>
<path style=" stroke:none;fill-rule:evenodd;fill:rgb(82.352941%,82.352941%,82.352941%);fill-opacity:1;" d="M 2.847656 13.160156 L 9.167969 13.160156 L 9.167969 7.484375 L 6.296875 4.613281 C 4.253906 6.136719 2.847656 8.457031 2.847656 11.214844 Z M 2.847656 13.160156 "/>
<path style=" stroke:none;fill-rule:nonzero;fill:rgb(82.352941%,82.352941%,82.352941%);fill-opacity:1;" d="M 17.699219 18.839844 C 17.449219 18.832031 17.199219 18.941406 17.019531 19.140625 C 16.839844 19.339844 16.734375 19.609375 16.734375 19.890625 L 16.734375 36.707031 C 16.734375 37.082031 16.917969 37.433594 17.207031 37.621094 C 17.5 37.808594 17.859375 37.8125 18.152344 37.625 L 31.394531 29.214844 C 31.691406 29.027344 31.875 28.683594 31.875 28.300781 C 31.875 27.921875 31.691406 27.574219 31.394531 27.390625 L 18.152344 18.980469 C 18.015625 18.890625 17.859375 18.84375 17.699219 18.839844 Z M 17.699219 18.839844 "/>
<path style=" stroke:none;fill-rule:evenodd;fill:rgb(82.352941%,82.352941%,82.352941%);fill-opacity:1;" d="M 16.734375 7.484375 L 11.058594 13.160156 L 18.628906 13.160156 L 24.300781 7.484375 Z M 16.734375 7.484375 "/>
<path style=" stroke:none;fill-rule:evenodd;fill:rgb(82.352941%,82.352941%,82.352941%);fill-opacity:1;" d="M 29.980469 7.484375 L 24.300781 13.160156 L 31.875 13.160156 L 37.550781 7.484375 Z M 29.980469 7.484375 "/>
</g>
</svg>
