<?xml version="1.0" encoding="UTF-8"?>
<svg xmlns="http://www.w3.org/2000/svg" xmlns:xlink="http://www.w3.org/1999/xlink" width="48pt" height="48pt" viewBox="0 0 48 48" version="1.1">
<g id="surface1">
<path style=" stroke:none;fill-rule:evenodd;fill:rgb(90.588235%,29.803922%,23.529412%);fill-opacity:1;" d="M 11.207031 2.847656 L 36.792969 2.847656 C 41.40625 2.847656 45.152344 6.59375 45.152344 11.207031 L 45.152344 36.792969 C 45.152344 41.40625 41.40625 45.152344 36.792969 45.152344 L 11.207031 45.152344 C 6.59375 45.152344 2.847656 41.40625 2.847656 36.792969 L 2.847656 11.207031 C 2.847656 6.59375 6.59375 2.847656 11.207031 2.847656 Z M 11.207031 2.847656 "/>
<path style=" stroke:none;fill-rule:nonzero;fill:rgb(50.196078%,0%,0%);fill-opacity:1;" d="M 19.5 29.765625 C 18.792969 29.730469 17.972656 30.058594 17.324219 30.703125 L 14.503906 33.519531 C 13.46875 34.5625 13.253906 36.027344 14.035156 36.808594 C 14.816406 37.589844 16.28125 37.378906 17.324219 36.339844 L 20.140625 33.519531 C 21.183594 32.480469 21.390625 31.015625 20.609375 30.234375 C 20.316406 29.941406 19.925781 29.785156 19.5 29.765625 Z M 28.425781 29.765625 C 28 29.785156 27.609375 29.941406 27.316406 30.234375 C 26.535156 31.015625 26.746094 32.480469 27.785156 33.519531 L 30.605469 36.339844 C 31.644531 37.378906 33.109375 37.589844 33.890625 36.808594 C 34.671875 36.027344 34.457031 34.5625 33.421875 33.519531 L 30.605469 30.703125 C 29.953125 30.058594 29.136719 29.730469 28.425781 29.765625 Z M 28.425781 29.765625 "/>
<path style=" stroke:none;fill-rule:nonzero;fill:rgb(50.196078%,0%,0%);fill-opacity:1;" d="M 13.566406 10.71875 C 10.949219 10.71875 8.824219 12.84375 8.824219 15.464844 C 8.824219 17.253906 9.839844 18.894531 11.441406 19.699219 C 10.980469 21.046875 10.71875 22.488281 10.71875 24 C 10.71875 31.359375 16.640625 37.28125 24 37.28125 C 31.359375 37.28125 37.28125 31.359375 37.28125 24 C 37.28125 22.488281 37.019531 21.046875 36.558594 19.699219 C 38.160156 18.894531 39.175781 17.253906 39.175781 15.464844 C 39.175781 12.84375 37.050781 10.71875 34.433594 10.71875 C 32.980469 10.71875 31.597656 11.390625 30.703125 12.542969 C 28.734375 11.390625 26.453125 10.71875 24 10.71875 C 21.546875 10.71875 19.261719 11.390625 17.292969 12.542969 C 16.394531 11.394531 15.019531 10.722656 13.566406 10.71875 Z M 13.566406 10.71875 "/>
<path style=" stroke:none;fill-rule:nonzero;fill:rgb(100%,100%,100%);fill-opacity:0.921569;" d="M 35.378906 24 C 35.378906 17.714844 30.285156 12.621094 24 12.621094 C 17.714844 12.621094 12.621094 17.714844 12.621094 24 C 12.621094 30.285156 17.714844 35.378906 24 35.378906 C 30.285156 35.378906 35.378906 30.285156 35.378906 24 Z M 35.378906 24 "/>
<path style=" stroke:none;fill-rule:nonzero;fill:rgb(61.176471%,23.529412%,23.529412%);fill-opacity:1;" d="M 22.703125 24.535156 L 24.765625 28.066406 C 25.144531 28.714844 25.980469 28.933594 26.636719 28.5625 C 27.292969 28.1875 27.515625 27.363281 27.136719 26.71875 L 25.082031 23.214844 L 29.824219 20.515625 C 30.152344 20.328125 30.261719 19.917969 30.074219 19.59375 C 29.886719 19.269531 29.46875 19.160156 29.140625 19.347656 L 23.457031 22.582031 C 22.683594 22.964844 22.386719 23.964844 22.703125 24.535156 Z M 22.703125 24.535156 "/>
<path style=" stroke:none;fill-rule:nonzero;fill:rgb(61.176471%,23.529412%,23.529412%);fill-opacity:1;" d="M 24 13.566406 C 23.472656 13.566406 23.050781 13.988281 23.050781 14.515625 C 23.050781 15.035156 23.472656 15.464844 24 15.464844 C 24.527344 15.464844 24.949219 15.035156 24.949219 14.515625 C 24.949219 13.988281 24.527344 13.566406 24 13.566406 Z M 24 13.566406 "/>
<path style=" stroke:none;fill-rule:nonzero;fill:rgb(61.176471%,23.529412%,23.529412%);fill-opacity:1;" d="M 24 32.535156 C 23.472656 32.535156 23.050781 32.964844 23.050781 33.484375 C 23.050781 34.011719 23.472656 34.433594 24 34.433594 C 24.527344 34.433594 24.949219 34.011719 24.949219 33.484375 C 24.949219 32.964844 24.527344 32.535156 24 32.535156 Z M 24 32.535156 "/>
<path style=" stroke:none;fill-rule:nonzero;fill:rgb(61.176471%,23.529412%,23.529412%);fill-opacity:1;" d="M 34.433594 24 C 34.433594 23.472656 34.011719 23.050781 33.484375 23.050781 C 32.964844 23.050781 32.535156 23.472656 32.535156 24 C 32.535156 24.527344 32.964844 24.949219 33.484375 24.949219 C 34.011719 24.949219 34.433594 24.527344 34.433594 24 Z M 34.433594 24 "/>
<path style=" stroke:none;fill-rule:nonzero;fill:rgb(61.176471%,23.529412%,23.529412%);fill-opacity:1;" d="M 15.464844 24 C 15.464844 23.472656 15.035156 23.050781 14.515625 23.050781 C 13.988281 23.050781 13.566406 23.472656 13.566406 24 C 13.566406 24.527344 13.988281 24.949219 14.515625 24.949219 C 15.035156 24.949219 15.464844 24.527344 15.464844 24 Z M 15.464844 24 "/>
</g>
</svg>
