<?xml version="1.0" encoding="UTF-8"?>
<svg xmlns="http://www.w3.org/2000/svg" xmlns:xlink="http://www.w3.org/1999/xlink" width="48pt" height="48pt" viewBox="0 0 48 48" version="1.1">
<g id="surface1">
<path style=" stroke:none;fill-rule:evenodd;fill:rgb(52.156863%,52.156863%,52.156863%);fill-opacity:1;" d="M 11.207031 2.847656 L 36.792969 2.847656 C 41.40625 2.847656 45.152344 6.59375 45.152344 11.207031 L 45.152344 36.792969 C 45.152344 41.40625 41.40625 45.152344 36.792969 45.152344 L 11.207031 45.152344 C 6.59375 45.152344 2.847656 41.40625 2.847656 36.792969 L 2.847656 11.207031 C 2.847656 6.59375 6.59375 2.847656 11.207031 2.847656 Z M 11.207031 2.847656 "/>
<path style=" stroke:none;fill-rule:evenodd;fill:rgb(40%,40%,40%);fill-opacity:1;" d="M 45.152344 20.042969 C 45.003906 19.996094 44.894531 19.871094 44.730469 19.871094 L 20.964844 19.871094 C 20.964844 19.167969 20.394531 18.597656 19.691406 18.597656 L 17.160156 18.597656 C 16.457031 18.597656 15.890625 19.167969 15.890625 19.871094 L 14.941406 19.871094 C 14.5 19.871094 14.105469 20.046875 13.816406 20.332031 C 13.53125 20.621094 13.355469 21.015625 13.355469 21.453125 L 13.355469 43.636719 C 13.355469 44.078125 13.53125 44.472656 13.816406 44.761719 C 14.0625 45.003906 14.410156 45.109375 14.769531 45.152344 L 36.792969 45.152344 C 41.421875 45.152344 45.152344 41.421875 45.152344 36.785156 Z M 45.152344 20.042969 "/>
<path style=" stroke:none;fill-rule:evenodd;fill:rgb(52.156863%,52.156863%,52.156863%);fill-opacity:1;" d="M 11.214844 2.847656 C 6.578125 2.847656 2.847656 6.578125 2.847656 11.207031 L 2.847656 36.785156 C 2.847656 41.421875 6.578125 45.152344 11.214844 45.152344 L 14.769531 45.152344 C 14.410156 45.109375 14.0625 45.003906 13.816406 44.761719 C 13.53125 44.472656 13.355469 44.078125 13.355469 43.636719 L 13.355469 21.453125 C 13.355469 21.015625 13.53125 20.621094 13.816406 20.332031 C 14.105469 20.046875 14.5 19.871094 14.941406 19.871094 L 15.890625 19.871094 C 15.890625 19.167969 16.457031 18.597656 17.160156 18.597656 L 19.691406 18.597656 C 20.394531 18.597656 20.964844 19.167969 20.964844 19.871094 L 44.730469 19.871094 C 44.894531 19.871094 45.003906 19.996094 45.152344 20.042969 L 45.152344 11.207031 C 45.152344 6.578125 41.421875 2.847656 36.792969 2.847656 Z M 11.214844 2.847656 "/>
<path style=" stroke:none;fill-rule:nonzero;fill:rgb(20%,20%,20%);fill-opacity:1;" d="M 43.78125 23.671875 C 43.78125 24.371094 43.214844 24.9375 42.511719 24.9375 C 41.8125 24.9375 41.246094 24.371094 41.246094 23.671875 C 41.246094 22.96875 41.8125 22.402344 42.511719 22.402344 C 43.214844 22.402344 43.78125 22.96875 43.78125 23.671875 Z M 43.78125 23.671875 "/>
<path style=" stroke:none;fill-rule:nonzero;fill:rgb(30.196078%,30.196078%,30.196078%);fill-opacity:1;" d="M 39.980469 32.546875 C 39.980469 38.144531 35.4375 42.6875 29.832031 42.6875 C 24.234375 42.6875 19.691406 38.144531 19.691406 32.546875 C 19.691406 26.941406 24.234375 22.402344 29.832031 22.402344 C 35.4375 22.402344 39.980469 26.941406 39.980469 32.546875 Z M 39.980469 32.546875 "/>
<path style=" stroke:none;fill-rule:nonzero;fill:rgb(0%,58.431373%,52.941176%);fill-opacity:1;" d="M 37.441406 32.546875 C 37.441406 28.34375 34.035156 24.9375 29.832031 24.9375 C 25.636719 24.9375 22.230469 28.34375 22.230469 32.546875 C 22.230469 36.746094 25.636719 40.152344 29.832031 40.152344 C 34.035156 40.152344 37.441406 36.746094 37.441406 32.546875 Z M 37.441406 32.546875 "/>
<path style=" stroke:none;fill-rule:nonzero;fill:rgb(40%,74.901961%,71.764706%);fill-opacity:1;" d="M 34.90625 32.546875 C 34.90625 35.34375 32.636719 37.613281 29.832031 37.613281 C 27.035156 37.613281 24.765625 35.34375 24.765625 32.546875 C 24.765625 29.746094 27.035156 27.472656 29.832031 27.472656 C 32.636719 27.472656 34.90625 29.746094 34.90625 32.546875 Z M 34.90625 32.546875 "/>
</g>
</svg>
