<?xml version="1.0" encoding="UTF-8"?>
<svg xmlns="http://www.w3.org/2000/svg" xmlns:xlink="http://www.w3.org/1999/xlink" width="48pt" height="48pt" viewBox="0 0 48 48" version="1.1">
<g id="surface1">
<path style=" stroke:none;fill-rule:evenodd;fill:rgb(80%,80%,80%);fill-opacity:1;" d="M 11.207031 2.847656 L 36.792969 2.847656 C 41.40625 2.847656 45.152344 6.59375 45.152344 11.207031 L 45.152344 36.792969 C 45.152344 41.40625 41.40625 45.152344 36.792969 45.152344 L 11.207031 45.152344 C 6.59375 45.152344 2.847656 41.40625 2.847656 36.792969 L 2.847656 11.207031 C 2.847656 6.59375 6.59375 2.847656 11.207031 2.847656 Z M 11.207031 2.847656 "/>
<path style=" stroke:none;fill-rule:nonzero;fill:rgb(28.627451%,63.529412%,83.921569%);fill-opacity:1;" d="M 23.800781 14.53125 L 15.457031 6.1875 C 15.203125 5.933594 14.785156 5.933594 14.53125 6.1875 L 6.1875 14.53125 C 5.933594 14.785156 5.933594 15.203125 6.1875 15.457031 L 14.53125 23.800781 C 14.785156 24.058594 15.203125 24.058594 15.457031 23.800781 L 23.800781 15.457031 C 24.058594 15.203125 24.058594 14.785156 23.800781 14.53125 Z M 23.800781 14.53125 "/>
<path style=" stroke:none;fill-rule:nonzero;fill:rgb(79.215686%,64.705882%,16.470588%);fill-opacity:1;" d="M 41.8125 14.53125 L 33.46875 6.1875 C 33.214844 5.933594 32.796875 5.933594 32.542969 6.1875 L 24.199219 14.53125 C 23.941406 14.785156 23.941406 15.203125 24.199219 15.457031 L 32.542969 23.800781 C 32.796875 24.058594 33.214844 24.058594 33.46875 23.800781 L 41.8125 15.457031 C 42.066406 15.203125 42.066406 14.785156 41.8125 14.53125 Z M 41.8125 14.53125 "/>
<path style=" stroke:none;fill-rule:nonzero;fill:rgb(91.372549%,29.019608%,38.823529%);fill-opacity:1;" d="M 23.800781 32.542969 L 15.457031 24.199219 C 15.203125 23.941406 14.785156 23.941406 14.53125 24.199219 L 6.1875 32.542969 C 5.933594 32.796875 5.933594 33.214844 6.1875 33.46875 L 14.53125 41.8125 C 14.785156 42.066406 15.203125 42.066406 15.457031 41.8125 L 23.800781 33.46875 C 24.058594 33.214844 24.058594 32.796875 23.800781 32.542969 Z M 23.800781 32.542969 "/>
<path style=" stroke:none;fill-rule:nonzero;fill:rgb(43.137255%,66.666667%,32.54902%);fill-opacity:1;" d="M 41.800781 32.53125 L 33.457031 24.1875 C 33.203125 23.933594 32.785156 23.933594 32.53125 24.1875 L 24.1875 32.53125 C 23.933594 32.785156 23.933594 33.203125 24.1875 33.457031 L 32.53125 41.800781 C 32.785156 42.058594 33.203125 42.058594 33.457031 41.800781 L 41.800781 33.457031 C 42.058594 33.203125 42.058594 32.785156 41.800781 32.53125 Z M 41.800781 32.53125 "/>
</g>
</svg>
