<?xml version="1.0" encoding="UTF-8"?>
<svg xmlns="http://www.w3.org/2000/svg" xmlns:xlink="http://www.w3.org/1999/xlink" width="48pt" height="48pt" viewBox="0 0 48 48" version="1.1">
<g id="surface1">
<path style=" stroke:none;fill-rule:evenodd;fill:rgb(34.509804%,49.019608%,90.196078%);fill-opacity:1;" d="M 11.207031 2.847656 L 36.792969 2.847656 C 41.40625 2.847656 45.152344 6.59375 45.152344 11.207031 L 45.152344 36.792969 C 45.152344 41.40625 41.40625 45.152344 36.792969 45.152344 L 11.207031 45.152344 C 6.59375 45.152344 2.847656 41.40625 2.847656 36.792969 L 2.847656 11.207031 C 2.847656 6.59375 6.59375 2.847656 11.207031 2.847656 Z M 11.207031 2.847656 "/>
<path style=" stroke:none;fill-rule:nonzero;fill:rgb(76.470588%,82.352941%,100%);fill-opacity:1;" d="M 15.316406 36.832031 C 15.03125 36.703125 14.765625 36.421875 14.644531 36.125 L 14.550781 35.886719 L 14.550781 22.816406 L 14.652344 22.535156 C 14.730469 22.324219 14.800781 22.214844 14.953125 22.074219 C 15.296875 21.75 15.433594 21.714844 16.296875 21.691406 L 17.046875 21.671875 L 17.0625 19.472656 C 17.078125 17.671875 17.09375 17.207031 17.152344 16.871094 C 17.660156 13.878906 19.984375 11.589844 22.984375 11.113281 C 23.464844 11.042969 24.535156 11.042969 25.015625 11.113281 C 26.203125 11.300781 27.300781 11.769531 28.21875 12.480469 C 29.621094 13.566406 30.558594 15.136719 30.847656 16.886719 C 30.90625 17.25 30.921875 17.6875 30.9375 19.496094 L 30.953125 21.671875 L 31.707031 21.6875 C 32.425781 21.707031 32.472656 21.714844 32.691406 21.816406 C 32.984375 21.964844 33.222656 22.222656 33.347656 22.535156 L 33.449219 22.78125 L 33.449219 35.886719 L 33.355469 36.125 C 33.234375 36.421875 32.96875 36.703125 32.683594 36.832031 L 32.457031 36.941406 L 15.542969 36.941406 Z M 28.339844 19.644531 C 28.339844 18.519531 28.324219 17.480469 28.296875 17.324219 C 28.183594 16.488281 27.707031 15.5625 27.089844 14.933594 C 26.402344 14.238281 25.683594 13.878906 24.558594 13.667969 C 23.644531 13.496094 22.386719 13.8125 21.488281 14.4375 C 20.574219 15.078125 19.855469 16.234375 19.703125 17.324219 C 19.675781 17.480469 19.660156 18.519531 19.660156 19.644531 L 19.65625 21.683594 L 28.34375 21.683594 L 28.34375 19.644531 Z M 28.339844 19.644531 "/>
</g>
</svg>
