<?xml version="1.0" encoding="UTF-8"?>
<svg xmlns="http://www.w3.org/2000/svg" xmlns:xlink="http://www.w3.org/1999/xlink" width="48pt" height="48pt" viewBox="0 0 48 48" version="1.1">
<g id="surface1">
<path style=" stroke:none;fill-rule:evenodd;fill:rgb(21.960784%,63.921569%,20.392157%);fill-opacity:1;" d="M 11.207031 2.847656 L 36.792969 2.847656 C 41.40625 2.847656 45.152344 6.59375 45.152344 11.207031 L 45.152344 36.792969 C 45.152344 41.40625 41.40625 45.152344 36.792969 45.152344 L 11.207031 45.152344 C 6.59375 45.152344 2.847656 41.40625 2.847656 36.792969 L 2.847656 11.207031 C 2.847656 6.59375 6.59375 2.847656 11.207031 2.847656 Z M 11.207031 2.847656 "/>
<path style=" stroke:none;fill-rule:nonzero;fill:rgb(100%,100%,100%);fill-opacity:1;" d="M 30 10.5 C 25.859375 10.5 22.5 13.859375 22.5 18 C 22.5 19.144531 22.765625 20.277344 23.269531 21.300781 L 10.5 34.074219 L 10.5 37.5 L 13.925781 37.5 L 15.425781 36 L 19.5 36 L 19.5 31.925781 L 21.425781 30 L 25.5 30 L 25.5 25.925781 L 26.703125 24.730469 C 27.730469 25.234375 28.855469 25.496094 30 25.5 C 34.140625 25.5 37.5 22.140625 37.5 18 C 37.5 13.859375 34.140625 10.5 30 10.5 Z M 31.5 13.5 C 33.15625 13.5 34.5 14.84375 34.5 16.5 C 34.5 18.15625 33.15625 19.5 31.5 19.5 C 29.84375 19.5 28.5 18.15625 28.5 16.5 C 28.5 14.84375 29.84375 13.5 31.5 13.5 Z M 31.5 13.5 "/>
<path style=" stroke:none;fill-rule:nonzero;fill:rgb(27.058824%,27.058824%,27.058824%);fill-opacity:1;" d="M 10.5 16.925781 L 10.5 13.5 L 13.925781 13.5 L 34.5 34.074219 L 34.5 37.5 L 31.074219 37.5 Z M 10.5 16.925781 "/>
</g>
</svg>
