<?xml version="1.0" encoding="UTF-8"?>
<svg xmlns="http://www.w3.org/2000/svg" xmlns:xlink="http://www.w3.org/1999/xlink" width="48pt" height="48pt" viewBox="0 0 48 48" version="1.1">
<g id="surface1">
<path style=" stroke:none;fill-rule:evenodd;fill:rgb(95.686275%,70.588235%,0%);fill-opacity:1;" d="M 11.207031 2.847656 L 36.792969 2.847656 C 41.40625 2.847656 45.152344 6.59375 45.152344 11.207031 L 45.152344 36.792969 C 45.152344 41.40625 41.40625 45.152344 36.792969 45.152344 L 11.207031 45.152344 C 6.59375 45.152344 2.847656 41.40625 2.847656 36.792969 L 2.847656 11.207031 C 2.847656 6.59375 6.59375 2.847656 11.207031 2.847656 Z M 11.207031 2.847656 "/>
<path style=" stroke:none;fill-rule:nonzero;fill:rgb(100%,100%,100%);fill-opacity:1;" d="M 24 9 C 18.203125 9 13.5 13.703125 13.5 19.5 C 13.5 22.441406 14.71875 25.09375 16.667969 27 L 16.5 27 L 16.5 37.5 L 19.5 37.5 L 19.5 39 L 28.5 39 L 28.5 37.5 L 31.5 37.5 L 31.5 27 L 31.328125 27 C 33.28125 25.09375 34.5 22.441406 34.5 19.5 C 34.5 13.703125 29.796875 9 24 9 Z M 24 12 C 28.140625 12 31.5 15.359375 31.5 19.5 C 31.5 21.78125 30.484375 23.824219 28.878906 25.199219 C 27.566406 26.324219 25.863281 27 24 27 C 22.175781 27 20.503906 26.347656 19.203125 25.265625 C 17.550781 23.890625 16.5 21.816406 16.5 19.5 C 16.5 15.359375 19.859375 12 24 12 Z M 19.5 30 L 28.5 30 L 28.5 31.5 L 19.5 31.5 Z M 19.5 34.5 L 28.5 34.5 L 28.5 36 L 19.5 36 Z M 19.5 34.5 "/>
</g>
</svg>
