<?xml version="1.0" encoding="UTF-8"?>
<svg xmlns="http://www.w3.org/2000/svg" xmlns:xlink="http://www.w3.org/1999/xlink" width="48pt" height="48pt" viewBox="0 0 48 48" version="1.1">
<g id="surface1">
<path style=" stroke:none;fill-rule:evenodd;fill:rgb(30.980392%,45.882353%,87.058824%);fill-opacity:1;" d="M 11.207031 2.847656 L 36.792969 2.847656 C 41.40625 2.847656 45.152344 6.59375 45.152344 11.207031 L 45.152344 36.792969 C 45.152344 41.40625 41.40625 45.152344 36.792969 45.152344 L 11.207031 45.152344 C 6.59375 45.152344 2.847656 41.40625 2.847656 36.792969 L 2.847656 11.207031 C 2.847656 6.59375 6.59375 2.847656 11.207031 2.847656 Z M 11.207031 2.847656 "/>
<path style=" stroke:none;fill-rule:nonzero;fill:rgb(100%,100%,100%);fill-opacity:1;" d="M 25.40625 15.027344 C 23.0625 12.683594 18.792969 13.15625 15.859375 16.082031 C 12.933594 19.015625 12.457031 23.285156 14.800781 25.628906 C 17.144531 27.972656 21.417969 27.5 24.34375 24.574219 C 27.277344 21.640625 27.75 17.371094 25.40625 15.027344 Z M 24.34375 16.082031 C 25.515625 17.253906 25.515625 19.15625 24.34375 20.328125 C 23.175781 21.5 21.277344 21.5 20.105469 20.328125 C 21.277344 21.5 21.277344 23.402344 20.105469 24.574219 C 18.933594 25.746094 17.03125 25.746094 15.859375 24.574219 C 14.6875 23.402344 14.6875 21.5 15.859375 20.328125 C 17.03125 19.15625 18.933594 19.15625 20.105469 20.328125 C 18.933594 19.15625 18.933594 17.253906 20.105469 16.082031 C 21.277344 14.910156 23.175781 14.910156 24.34375 16.082031 Z M 24.34375 16.082031 "/>
<path style=" stroke:none;fill-rule:nonzero;fill:rgb(100%,100%,100%);fill-opacity:1;" d="M 24.746094 22.847656 L 33.496094 31.597656 C 34.300781 32.402344 34.480469 33.53125 33.890625 34.113281 C 33.308594 34.703125 32.175781 34.527344 31.375 33.71875 L 22.625 24.96875 C 21.816406 24.160156 21.640625 23.035156 22.222656 22.449219 C 22.8125 21.863281 23.9375 22.042969 24.746094 22.847656 Z M 24.746094 22.847656 "/>
<path style=" stroke:none;fill-rule:nonzero;fill:rgb(100%,100%,100%);fill-opacity:1;" d="M 32.167969 26.03125 L 34.558594 28.417969 C 34.777344 28.636719 34.714844 29.050781 34.421875 29.34375 C 34.128906 29.636719 33.714844 29.699219 33.496094 29.472656 L 31.109375 27.089844 C 30.890625 26.871094 30.949219 26.453125 31.238281 26.160156 C 31.53125 25.871094 31.949219 25.808594 32.167969 26.03125 Z M 32.167969 26.03125 "/>
<path style=" stroke:none;fill-rule:nonzero;fill:rgb(100%,100%,100%);fill-opacity:1;" d="M 32.894531 28.746094 L 30.113281 31.53125 C 29.859375 31.785156 29.410156 31.761719 29.121094 31.464844 C 28.828125 31.171875 28.796875 30.730469 29.050781 30.46875 L 31.839844 27.6875 C 32.09375 27.433594 32.535156 27.457031 32.832031 27.753906 C 33.125 28.046875 33.15625 28.488281 32.894531 28.746094 Z M 32.894531 28.746094 "/>
</g>
</svg>
