<?xml version="1.0" encoding="UTF-8"?>
<svg xmlns="http://www.w3.org/2000/svg" xmlns:xlink="http://www.w3.org/1999/xlink" width="48pt" height="48pt" viewBox="0 0 48 48" version="1.1">
<g id="surface1">
<path style=" stroke:none;fill-rule:evenodd;fill:rgb(41.176471%,76.078431%,46.27451%);fill-opacity:1;" d="M 11.207031 2.847656 L 36.792969 2.847656 C 41.40625 2.847656 45.152344 6.59375 45.152344 11.207031 L 45.152344 36.792969 C 45.152344 41.40625 41.40625 45.152344 36.792969 45.152344 L 11.207031 45.152344 C 6.59375 45.152344 2.847656 41.40625 2.847656 36.792969 L 2.847656 11.207031 C 2.847656 6.59375 6.59375 2.847656 11.207031 2.847656 Z M 11.207031 2.847656 "/>
<path style=" stroke:none;fill-rule:nonzero;fill:rgb(100%,100%,100%);fill-opacity:1;" d="M 24 12.871094 C 20.109375 12.871094 16.78125 14.152344 15.40625 15.957031 C 15.292969 16.113281 15.1875 16.265625 15.097656 16.425781 C 15.015625 16.578125 14.949219 16.730469 14.890625 16.890625 C 14.875 16.9375 14.863281 16.984375 14.847656 17.03125 C 14.816406 17.140625 14.785156 17.246094 14.765625 17.355469 C 14.738281 17.511719 14.722656 17.660156 14.722656 17.816406 C 14.722656 17.980469 14.738281 18.136719 14.769531 18.296875 C 14.796875 18.453125 14.839844 18.609375 14.894531 18.761719 C 14.953125 18.917969 15.027344 19.074219 15.109375 19.222656 C 15.191406 19.375 15.292969 19.527344 15.40625 19.671875 C 16.824219 21.542969 20.222656 22.765625 24 22.765625 C 27.777344 22.765625 31.175781 21.542969 32.59375 19.671875 C 32.59375 19.671875 32.59375 19.667969 32.597656 19.667969 C 32.691406 19.542969 32.777344 19.417969 32.847656 19.285156 C 32.863281 19.261719 32.878906 19.234375 32.894531 19.207031 C 32.953125 19.105469 33.003906 18.996094 33.046875 18.878906 C 33.066406 18.828125 33.097656 18.78125 33.113281 18.730469 C 33.144531 18.636719 33.171875 18.542969 33.1875 18.453125 C 33.207031 18.378906 33.230469 18.308594 33.238281 18.234375 C 33.265625 18.09375 33.277344 17.957031 33.277344 17.816406 C 33.277344 17.652344 33.261719 17.488281 33.230469 17.324219 C 33.144531 16.839844 32.921875 16.386719 32.597656 15.957031 C 31.21875 14.144531 27.894531 12.863281 24.003906 12.863281 Z M 15.40625 22.144531 C 14.957031 22.734375 14.722656 23.363281 14.722656 24 C 14.722656 26.734375 18.875 28.949219 24 28.949219 C 29.125 28.949219 33.277344 26.734375 33.277344 24 C 33.277344 23.363281 33.042969 22.734375 32.59375 22.144531 C 31.175781 24.015625 27.777344 25.238281 24 25.238281 C 20.21875 25.238281 16.824219 24.015625 15.40625 22.144531 Z M 15.40625 28.332031 C 14.957031 28.921875 14.722656 29.550781 14.722656 30.1875 C 14.722656 32.921875 18.875 35.136719 24 35.136719 C 29.125 35.136719 33.277344 32.921875 33.277344 30.1875 C 33.277344 29.550781 33.042969 28.921875 32.59375 28.332031 C 31.175781 30.199219 27.777344 31.421875 24 31.425781 C 20.21875 31.421875 16.824219 30.199219 15.40625 28.332031 Z M 15.40625 28.332031 "/>
</g>
</svg>
