<?xml version="1.0" encoding="UTF-8"?>
<svg xmlns="http://www.w3.org/2000/svg" xmlns:xlink="http://www.w3.org/1999/xlink" width="48pt" height="48pt" viewBox="0 0 48 48" version="1.1">
<g id="surface1">
<path style=" stroke:none;fill-rule:evenodd;fill:rgb(17.647059%,58.823529%,81.568627%);fill-opacity:1;" d="M 11.207031 2.847656 L 36.792969 2.847656 C 41.40625 2.847656 45.152344 6.59375 45.152344 11.207031 L 45.152344 36.792969 C 45.152344 41.40625 41.40625 45.152344 36.792969 45.152344 L 11.207031 45.152344 C 6.59375 45.152344 2.847656 41.40625 2.847656 36.792969 L 2.847656 11.207031 C 2.847656 6.59375 6.59375 2.847656 11.207031 2.847656 Z M 11.207031 2.847656 "/>
<path style=" stroke:none;fill-rule:nonzero;fill:rgb(95.686275%,87.058824%,72.54902%);fill-opacity:1;" d="M 24 19.671875 C 15.300781 19.671875 8.25 26.722656 8.25 35.421875 C 8.261719 38.96875 9.46875 42.402344 11.675781 45.171875 L 36.328125 45.171875 C 38.53125 42.402344 39.738281 38.964844 39.75 35.421875 C 39.75 26.722656 32.699219 19.671875 24 19.671875 Z M 24 19.671875 "/>
<path style=" stroke:none;fill-rule:nonzero;fill:rgb(100%,55.686275%,28.627451%);fill-opacity:1;" d="M 24 19.671875 C 18.402344 19.671875 13.488281 22.597656 10.699219 27 C 10.292969 27.53125 9.933594 28.089844 9.671875 28.683594 C 9.261719 29.621094 8.953125 30.589844 8.722656 31.628906 C 8.574219 32.25 8.441406 32.878906 8.363281 33.53125 C 8.355469 33.589844 8.375 33.597656 8.402344 33.589844 C 8.375 33.839844 8.332031 34.078125 8.3125 34.339844 C 8.238281 35.171875 8.230469 35.515625 8.285156 35.515625 L 17.25 24.921875 L 15.671875 33.777344 C 15.6875 33.785156 15.984375 33.667969 16.332031 33.503906 C 18.480469 32.515625 20.417969 32.078125 22.785156 31.796875 C 23.597656 31.699219 26.433594 31.683594 27.28125 31.777344 C 29.003906 31.953125 30.582031 32.347656 32.515625 32.886719 C 33.375 33.121094 33.796875 33.175781 34.5 33.152344 C 35.203125 33.125 35.613281 33.03125 36.136719 32.78125 C 37.433594 32.15625 38.109375 30.128906 37.921875 28.667969 C 37.902344 28.53125 37.863281 28.402344 37.839844 28.265625 C 37.894531 28.128906 37.839844 27.894531 37.621094 27.515625 C 37.40625 26.941406 37.089844 26.363281 36.609375 25.71875 C 33.359375 22.152344 29.121094 19.605469 24 19.671875 Z M 24 19.671875 "/>
<path style=" stroke:none;fill-rule:nonzero;fill:rgb(14.509804%,14.509804%,14.117647%);fill-opacity:1;" d="M 20.25 36.921875 C 20.25 38.167969 19.246094 39.171875 18 39.171875 C 16.753906 39.171875 15.75 38.167969 15.75 36.921875 C 15.75 35.683594 16.753906 34.671875 18 34.671875 C 19.246094 34.671875 20.25 35.683594 20.25 36.921875 Z M 20.25 36.921875 "/>
<path style=" stroke:none;fill-rule:nonzero;fill:rgb(14.509804%,14.509804%,14.117647%);fill-opacity:1;" d="M 33.75 36.921875 C 33.75 38.167969 32.746094 39.171875 31.5 39.171875 C 30.253906 39.171875 29.25 38.167969 29.25 36.921875 C 29.25 35.683594 30.253906 34.671875 31.5 34.671875 C 32.746094 34.671875 33.75 35.683594 33.75 36.921875 Z M 33.75 36.921875 "/>
<path style=" stroke:none;fill-rule:nonzero;fill:rgb(100%,55.686275%,28.627451%);fill-opacity:1;" d="M 20.753906 10.671875 C 20.6875 10.671875 20.234375 11.4375 19.808594 12.28125 C 19.175781 13.515625 18.875 14.46875 18.769531 15.5625 C 18.746094 15.832031 18.75 16.097656 18.765625 16.363281 C 18.753906 16.480469 18.75 16.597656 18.75 16.71875 C 18.75 19.175781 20.765625 21.171875 23.25 21.171875 C 25.734375 21.171875 27.75 19.175781 27.75 16.71875 C 27.75 16.605469 27.746094 16.488281 27.734375 16.378906 C 27.738281 16.265625 27.75 16.152344 27.746094 16.042969 C 27.667969 14.515625 26.777344 13.46875 25.433594 12.78125 C 24.71875 12.417969 23.625 12.246094 22.917969 12.246094 C 22.03125 12.238281 21.355469 11.480469 20.921875 10.855469 C 20.847656 10.753906 20.777344 10.671875 20.753906 10.671875 Z M 20.753906 10.671875 "/>
</g>
</svg>
