<?xml version="1.0" encoding="UTF-8"?>
<svg xmlns="http://www.w3.org/2000/svg" xmlns:xlink="http://www.w3.org/1999/xlink" width="48pt" height="48pt" viewBox="0 0 48 48" version="1.1">
<g id="surface1">
<path style=" stroke:none;fill-rule:evenodd;fill:rgb(87.058824%,65.490196%,11.764706%);fill-opacity:1;" d="M 11.207031 2.847656 L 36.792969 2.847656 C 41.40625 2.847656 45.152344 6.59375 45.152344 11.207031 L 45.152344 36.792969 C 45.152344 41.40625 41.40625 45.152344 36.792969 45.152344 L 11.207031 45.152344 C 6.59375 45.152344 2.847656 41.40625 2.847656 36.792969 L 2.847656 11.207031 C 2.847656 6.59375 6.59375 2.847656 11.207031 2.847656 Z M 11.207031 2.847656 "/>
<path style=" stroke:none;fill-rule:nonzero;fill:rgb(100%,100%,100%);fill-opacity:1;" d="M 27.574219 39.078125 C 27.574219 39.066406 27.75 38.597656 27.964844 38.035156 L 28.355469 37.015625 L 28.292969 36.878906 C 28.253906 36.800781 27.894531 36.152344 27.5 35.425781 C 26.691406 33.96875 25.140625 31.15625 23.9375 28.96875 C 23.511719 28.191406 23.152344 27.527344 23.140625 27.496094 C 23.125 27.453125 23.171875 27.40625 23.300781 27.332031 C 23.535156 27.207031 23.628906 27.105469 23.628906 26.980469 C 23.628906 26.925781 23.496094 26.628906 23.324219 26.324219 L 23.011719 25.761719 L 23.234375 25.453125 C 24.667969 23.511719 24.890625 20.871094 23.816406 18.691406 C 22.816406 16.675781 20.925781 15.347656 18.667969 15.066406 C 17.519531 14.921875 16.09375 15.160156 15.109375 15.660156 L 14.871094 15.78125 L 15 16.082031 C 15.261719 16.6875 15.5 16.988281 16.042969 17.40625 C 16.3125 17.609375 16.328125 17.621094 16.457031 17.578125 C 16.53125 17.558594 16.765625 17.535156 16.980469 17.535156 C 17.644531 17.53125 18.203125 17.777344 18.671875 18.277344 C 19.390625 19.035156 19.515625 20.15625 18.984375 21.066406 C 18.714844 21.53125 18.09375 21.988281 17.542969 22.136719 C 17.191406 22.222656 16.53125 22.199219 16.191406 22.078125 C 15.714844 21.90625 15.214844 21.5 14.980469 21.089844 C 14.871094 20.894531 14.847656 20.878906 14.5625 20.78125 C 13.675781 20.46875 12.890625 19.769531 12.308594 18.769531 L 12.136719 18.46875 L 11.988281 18.769531 C 11.515625 19.761719 11.277344 21.074219 11.375 22.128906 C 11.652344 25.046875 13.652344 27.34375 16.496094 28 C 17.03125 28.125 17.542969 28.171875 18.15625 28.152344 L 18.730469 28.136719 L 19.046875 28.703125 C 19.21875 29.019531 19.390625 29.285156 19.421875 29.296875 C 19.542969 29.34375 19.675781 29.324219 19.863281 29.222656 C 19.96875 29.171875 20.066406 29.128906 20.089844 29.128906 C 20.125 29.128906 20.203125 29.269531 21 30.71875 C 21.296875 31.261719 21.558594 31.71875 21.582031 31.730469 C 21.605469 31.746094 21.855469 31.769531 22.136719 31.78125 C 22.421875 31.796875 22.675781 31.832031 22.707031 31.855469 C 22.734375 31.878906 22.847656 32.0625 22.957031 32.265625 L 23.15625 32.636719 L 22.839844 33.058594 L 22.519531 33.472656 L 22.703125 33.8125 L 22.878906 34.144531 L 23.089844 34.171875 C 23.203125 34.1875 23.464844 34.207031 23.671875 34.222656 L 24.046875 34.25 L 24.265625 34.636719 C 24.386719 34.847656 24.472656 35.046875 24.457031 35.078125 C 24.449219 35.113281 24.308594 35.308594 24.144531 35.515625 L 23.855469 35.890625 L 24.105469 36.371094 L 24.667969 36.472656 C 24.980469 36.53125 25.25 36.589844 25.28125 36.605469 C 25.3125 36.621094 25.246094 36.761719 25.058594 37.074219 C 24.90625 37.316406 24.785156 37.53125 24.785156 37.550781 C 24.785156 37.574219 24.917969 37.828125 25.078125 38.121094 L 25.371094 38.652344 L 26.386719 38.847656 C 26.941406 38.964844 27.4375 39.0625 27.488281 39.074219 C 27.535156 39.082031 27.574219 39.089844 27.574219 39.078125 Z M 36.640625 32.761719 L 36.628906 31.703125 L 34.808594 29.722656 C 33.800781 28.636719 32.253906 26.964844 31.371094 26.003906 C 28.96875 23.410156 28.527344 22.925781 28.511719 22.890625 C 28.503906 22.871094 28.574219 22.792969 28.660156 22.714844 C 28.972656 22.425781 29 22.253906 28.765625 21.996094 C 28.675781 21.894531 28.5 21.699219 28.375 21.5625 L 28.152344 21.308594 L 28.671875 19.902344 C 28.957031 19.125 29.285156 18.25 29.394531 17.949219 C 29.574219 17.464844 29.59375 17.386719 29.578125 17.171875 C 29.550781 16.792969 29.464844 16.675781 28.746094 16.058594 C 26.359375 14 24.667969 12.566406 24.53125 12.496094 C 24.3125 12.375 23.859375 12.375 23.640625 12.496094 C 23.511719 12.5625 22.019531 13.90625 21.457031 14.464844 L 21.292969 14.628906 L 21.652344 14.832031 C 23.269531 15.738281 24.464844 17.109375 25.128906 18.8125 C 25.457031 19.660156 25.597656 20.378906 25.625 21.359375 C 25.660156 22.734375 25.410156 23.886719 24.816406 25.074219 L 24.625 25.457031 L 24.8125 25.652344 C 24.984375 25.828125 25.011719 25.839844 25.144531 25.824219 C 25.246094 25.808594 25.359375 25.746094 25.511719 25.621094 L 25.722656 25.433594 L 25.886719 25.609375 C 26.066406 25.816406 28.011719 27.921875 28.410156 28.347656 L 28.683594 28.636719 L 29.042969 28.300781 C 29.246094 28.113281 29.4375 27.964844 29.480469 27.964844 C 29.5625 27.964844 30.128906 28.542969 30.183594 28.675781 C 30.207031 28.746094 30.15625 28.8125 29.839844 29.121094 L 29.457031 29.480469 L 29.59375 29.625 C 29.667969 29.703125 29.839844 29.890625 29.972656 30.035156 C 30.113281 30.1875 30.328125 30.421875 30.453125 30.550781 L 30.683594 30.796875 L 31.03125 30.464844 C 31.265625 30.246094 31.40625 30.136719 31.46875 30.136719 C 31.574219 30.136719 32.1875 30.761719 32.1875 30.875 C 32.1875 30.933594 31.832031 31.300781 31.546875 31.542969 L 31.4375 31.636719 L 32.050781 32.269531 L 32.402344 31.9375 C 32.722656 31.628906 32.839844 31.566406 32.941406 31.636719 C 33.074219 31.722656 33.542969 32.292969 33.542969 32.359375 C 33.542969 32.410156 33.417969 32.558594 33.1875 32.777344 L 32.828125 33.109375 L 32.9375 33.238281 C 33 33.3125 33.125 33.453125 33.21875 33.550781 L 33.386719 33.738281 L 34.691406 33.777344 C 35.410156 33.796875 36.144531 33.816406 36.324219 33.816406 L 36.644531 33.816406 Z M 18.058594 20.714844 C 18.265625 20.359375 18.359375 19.863281 18.285156 19.480469 L 18.253906 19.308594 L 17.90625 19.28125 C 16.761719 19.199219 15.808594 18.765625 15.015625 17.96875 C 14.203125 17.144531 13.769531 16.09375 13.769531 14.90625 C 13.765625 13.785156 14.125 12.824219 14.855469 12 C 15.480469 11.285156 16.191406 10.855469 17.128906 10.613281 C 17.472656 10.527344 17.597656 10.515625 18.140625 10.515625 C 19.128906 10.515625 19.847656 10.734375 20.644531 11.269531 C 20.96875 11.484375 21.589844 12.109375 21.796875 12.425781 C 21.890625 12.566406 21.980469 12.683594 21.996094 12.683594 C 22.042969 12.683594 23.136719 11.691406 23.152344 11.640625 C 23.167969 11.574219 22.753906 11.050781 22.425781 10.714844 C 20.597656 8.832031 17.738281 8.375 15.40625 9.589844 C 14.261719 10.183594 13.285156 11.191406 12.75 12.332031 C 11.621094 14.753906 12.191406 17.589844 14.175781 19.355469 C 15.128906 20.207031 16.375 20.746094 17.660156 20.855469 L 17.957031 20.878906 Z M 18.058594 20.714844 "/>
</g>
</svg>
