<?xml version="1.0" encoding="UTF-8"?>
<svg xmlns="http://www.w3.org/2000/svg" xmlns:xlink="http://www.w3.org/1999/xlink" width="48pt" height="48pt" viewBox="0 0 48 48" version="1.1">
<g id="surface1">
<path style=" stroke:none;fill-rule:evenodd;fill:rgb(90.196078%,90.196078%,90.196078%);fill-opacity:1;" d="M 11.207031 2.847656 L 36.792969 2.847656 C 41.40625 2.847656 45.152344 6.59375 45.152344 11.207031 L 45.152344 36.792969 C 45.152344 41.40625 41.40625 45.152344 36.792969 45.152344 L 11.207031 45.152344 C 6.59375 45.152344 2.847656 41.40625 2.847656 36.792969 L 2.847656 11.207031 C 2.847656 6.59375 6.59375 2.847656 11.207031 2.847656 Z M 11.207031 2.847656 "/>
<path style=" stroke:none;fill-rule:nonzero;fill:rgb(51.764706%,0%,100%);fill-opacity:1;" d="M 12.902344 28.222656 C 12.332031 28.105469 11.828125 27.839844 11.421875 27.441406 C 11.015625 27.050781 10.734375 26.566406 10.621094 26.050781 L 10.550781 25.765625 L 10.5625 18.890625 L 10.574219 12.011719 L 10.675781 11.714844 C 10.863281 11.160156 11.171875 10.722656 11.605469 10.378906 C 12.09375 9.984375 12.644531 9.769531 13.300781 9.707031 C 13.546875 9.6875 15.464844 9.683594 19.046875 9.6875 C 24.886719 9.703125 24.503906 9.6875 25.015625 9.871094 C 25.957031 10.191406 26.660156 10.949219 26.910156 11.90625 C 26.984375 12.167969 26.984375 12.1875 26.996094 15.222656 L 27.003906 18.277344 L 24 18.277344 L 24 12.558594 L 13.527344 12.558594 L 13.527344 25.4375 L 19.5 25.4375 L 19.5 28.28125 L 16.332031 28.28125 C 13.402344 28.28125 13.144531 28.277344 12.902344 28.222656 Z M 12.902344 28.222656 "/>
<path style=" stroke:none;fill-rule:nonzero;fill:rgb(0%,70.588235%,44.313725%);fill-opacity:1;" d="M 23.699219 38.285156 C 22.433594 38.160156 21.390625 37.28125 21.082031 36.078125 L 21.015625 35.800781 L 21.015625 29 C 21.015625 22.65625 21.015625 22.1875 21.066406 21.988281 C 21.214844 21.421875 21.464844 20.980469 21.84375 20.597656 C 22.214844 20.230469 22.609375 20 23.175781 19.816406 L 23.453125 19.734375 L 29.121094 19.722656 C 34.582031 19.714844 34.796875 19.71875 35.078125 19.777344 C 35.707031 19.90625 36.246094 20.203125 36.683594 20.660156 C 36.953125 20.953125 37.082031 21.152344 37.238281 21.519531 C 37.457031 22.027344 37.441406 21.519531 37.441406 29.015625 C 37.441406 34.824219 37.4375 35.8125 37.402344 36 C 37.136719 37.261719 36.066406 38.167969 34.714844 38.285156 C 34.296875 38.324219 24.078125 38.324219 23.699219 38.285156 Z M 34.472656 29 L 34.472656 22.5625 L 24 22.5625 L 24 35.441406 L 34.472656 35.441406 Z M 34.472656 29 "/>
<path style=" stroke:none;fill-rule:nonzero;fill:rgb(0%,70.588235%,44.313725%);fill-opacity:1;" d="M 14.511719 36.972656 C 13.171875 35.6875 12.0625 34.628906 12.046875 34.628906 C 12.035156 34.628906 12.027344 35.457031 12.027344 36.472656 L 12.027344 38.316406 L 9.058594 38.316406 L 9.058594 29.722656 L 18.03125 29.722656 L 18.019531 31.152344 L 18.011719 32.582031 L 14.175781 32.613281 L 16.609375 34.941406 C 17.949219 36.21875 19.046875 37.277344 19.050781 37.285156 C 19.0625 37.308594 17.15625 39.152344 17.015625 39.261719 C 16.953125 39.308594 16.863281 39.230469 14.511719 36.972656 Z M 14.511719 36.972656 "/>
<path style=" stroke:none;fill-rule:nonzero;fill:rgb(51.764706%,0%,100%);fill-opacity:1;" d="M 33.488281 11.027344 C 34.828125 12.3125 35.9375 13.371094 35.953125 13.371094 C 35.964844 13.371094 35.972656 12.542969 35.972656 11.527344 L 35.972656 9.683594 L 38.941406 9.683594 L 38.941406 18.277344 L 29.96875 18.277344 L 29.980469 16.847656 L 29.988281 15.417969 L 33.824219 15.386719 L 31.390625 13.058594 C 30.050781 11.78125 28.953125 10.722656 28.949219 10.714844 C 28.9375 10.691406 30.84375 8.847656 30.984375 8.738281 C 31.046875 8.691406 31.136719 8.769531 33.488281 11.027344 Z M 33.488281 11.027344 "/>
</g>
</svg>
