<?xml version="1.0" encoding="UTF-8"?>
<svg xmlns="http://www.w3.org/2000/svg" xmlns:xlink="http://www.w3.org/1999/xlink" width="48pt" height="48pt" viewBox="0 0 48 48" version="1.1">
<g id="surface1">
<path style=" stroke:none;fill-rule:evenodd;fill:rgb(32.156863%,58.039216%,88.627451%);fill-opacity:1;" d="M 45.152344 20.515625 C 45.113281 20.515625 45.09375 20.480469 45.058594 20.480469 L 26.113281 20.488281 L 23.015625 16.71875 C 22.503906 16.097656 21.917969 15.625 21.261719 15.3125 C 20.605469 14.996094 19.871094 14.832031 19.066406 14.832031 L 3.453125 14.832031 C 3.214844 14.832031 3.066406 15.03125 2.847656 15.082031 L 2.847656 36.785156 C 2.847656 41.421875 6.578125 45.152344 11.214844 45.152344 L 36.792969 45.152344 C 41.421875 45.152344 45.152344 41.421875 45.152344 36.785156 Z M 45.152344 20.515625 "/>
<path style=" stroke:none;fill-rule:evenodd;fill:rgb(51.764706%,82.352941%,99.607843%);fill-opacity:1;" d="M 11.214844 2.847656 C 6.578125 2.847656 2.847656 6.578125 2.847656 11.207031 L 2.847656 15.082031 C 3.066406 15.03125 3.214844 14.832031 3.453125 14.832031 L 19.066406 14.832031 C 19.871094 14.832031 20.605469 14.996094 21.261719 15.3125 C 21.917969 15.625 22.503906 16.097656 23.015625 16.71875 L 26.113281 20.488281 L 45.058594 20.480469 C 45.09375 20.480469 45.113281 20.515625 45.152344 20.515625 L 45.152344 11.207031 C 45.152344 6.578125 41.421875 2.847656 36.792969 2.847656 Z M 11.214844 2.847656 "/>
<path style=" stroke:none;fill-rule:nonzero;fill:rgb(36.470588%,70.588235%,11.764706%);fill-opacity:1;" d="M 42.078125 33.964844 C 42.078125 38.109375 38.71875 41.464844 34.578125 41.464844 C 30.433594 41.464844 27.078125 38.109375 27.078125 33.964844 C 27.078125 29.824219 30.433594 26.464844 34.578125 26.464844 C 38.71875 26.464844 42.078125 29.824219 42.078125 33.964844 Z M 42.078125 33.964844 "/>
<path style=" stroke:none;fill-rule:nonzero;fill:rgb(100%,100%,100%);fill-opacity:1;" d="M 34.578125 29.277344 C 31.988281 29.277344 29.890625 31.375 29.890625 33.964844 C 29.890625 36.558594 31.988281 38.652344 34.578125 38.652344 C 37.167969 38.652344 39.265625 36.558594 39.265625 33.964844 C 39.265625 31.375 37.167969 29.277344 34.578125 29.277344 Z M 34.578125 30.214844 C 36.644531 30.214844 38.328125 31.894531 38.328125 33.964844 C 38.328125 36.035156 36.644531 37.714844 34.578125 37.714844 C 32.503906 37.714844 30.828125 36.035156 30.828125 33.964844 C 30.828125 31.894531 32.503906 30.214844 34.578125 30.214844 Z M 34.578125 30.214844 "/>
<path style=" stroke:none;fill-rule:nonzero;fill:rgb(100%,100%,100%);fill-opacity:1;" d="M 37.390625 29.746094 L 33.640625 32.089844 L 33.640625 27.402344 Z M 37.390625 29.746094 "/>
<path style=" stroke:none;fill-rule:nonzero;fill:rgb(100%,100%,100%);fill-opacity:1;" d="M 31.765625 38.183594 L 35.515625 40.527344 L 35.515625 35.839844 Z M 31.765625 38.183594 "/>
</g>
</svg>
