<?xml version="1.0" encoding="UTF-8"?>
<svg xmlns="http://www.w3.org/2000/svg" xmlns:xlink="http://www.w3.org/1999/xlink" width="48pt" height="48pt" viewBox="0 0 48 48" version="1.1">
<g id="surface1">
<path style=" stroke:none;fill-rule:evenodd;fill:rgb(56.470588%,79.215686%,97.647059%);fill-opacity:1;" d="M 11.207031 2.847656 L 36.792969 2.847656 C 41.40625 2.847656 45.152344 6.59375 45.152344 11.207031 L 45.152344 36.792969 C 45.152344 41.40625 41.40625 45.152344 36.792969 45.152344 L 11.207031 45.152344 C 6.59375 45.152344 2.847656 41.40625 2.847656 36.792969 L 2.847656 11.207031 C 2.847656 6.59375 6.59375 2.847656 11.207031 2.847656 Z M 11.207031 2.847656 "/>
<path style=" stroke:none;fill-rule:nonzero;fill:rgb(12.54902%,58.431373%,94.901961%);fill-opacity:1;" d="M 24 7.59375 C 33.058594 7.59375 40.40625 14.941406 40.40625 24 C 40.40625 33.058594 33.058594 40.40625 24 40.40625 C 14.941406 40.40625 7.59375 33.058594 7.59375 24 C 7.59375 14.941406 14.941406 7.59375 24 7.59375 Z M 24 7.59375 "/>
<path style=" stroke:none;fill-rule:nonzero;fill:rgb(74.509804%,89.803922%,89.411765%);fill-opacity:1;" d="M 24 7.59375 C 21.933594 7.59375 19.964844 7.988281 18.140625 8.683594 C 18.011719 8.808594 17.839844 8.902344 17.703125 8.886719 C 17.683594 8.886719 17.660156 8.875 17.644531 8.863281 C 16.75 9.238281 15.894531 9.703125 15.089844 10.222656 C 15.191406 10.390625 15.222656 10.582031 15.011719 10.675781 C 14.972656 10.691406 14.515625 10.734375 14.359375 10.734375 C 12.0625 12.402344 10.222656 14.640625 9.046875 17.261719 C 9.0625 17.261719 9.078125 17.25 9.097656 17.25 C 9.277344 17.246094 9.535156 17.296875 9.707031 17.332031 C 9.863281 17.363281 9.996094 17.46875 10.128906 17.480469 C 10.519531 17.511719 10.613281 17.207031 10.925781 17.042969 C 11.253906 17.082031 11.472656 16.984375 11.769531 17.015625 C 11.972656 17.042969 12.121094 17.253906 12.277344 17.265625 C 12.40625 17.28125 12.527344 17.144531 12.652344 17.160156 C 12.777344 17.183594 12.988281 17.453125 13.011719 17.605469 C 13.035156 17.792969 12.871094 17.964844 12.925781 18.171875 C 13.125 18.375 13.484375 18.417969 13.765625 18.53125 C 13.953125 18.378906 13.792969 18.097656 13.765625 17.875 C 13.765625 17.78125 13.78125 17.691406 13.765625 17.605469 C 13.75 17.453125 13.683594 17.316406 13.683594 17.1875 C 13.683594 16.589844 14.167969 16.308594 14.566406 16.074219 C 14.738281 15.96875 14.875 15.785156 15.027344 15.714844 C 15.238281 15.605469 15.402344 15.578125 15.578125 15.480469 C 15.894531 15.300781 16.167969 15.15625 16.417969 14.953125 C 16.53125 14.683594 16.425781 14.316406 16.4375 14.050781 C 16.550781 13.980469 16.652344 14.082031 16.777344 14.074219 C 16.96875 14.03125 16.984375 13.761719 17.09375 13.652344 C 17.15625 13.589844 17.328125 13.546875 17.40625 13.484375 C 17.597656 13.332031 17.660156 13.109375 17.828125 13.042969 C 17.890625 13.019531 18.027344 13.027344 18.121094 13 C 18.246094 12.96875 18.421875 12.816406 18.625 12.75 C 18.761719 12.703125 19.0625 12.691406 19.109375 12.644531 C 19.171875 12.578125 19.109375 12.402344 19.128906 12.308594 C 19.234375 11.832031 19.949219 11.734375 20.375 11.574219 C 20.667969 11.457031 20.972656 11.253906 21.296875 11.316406 C 21.234375 11.542969 20.933594 11.464844 20.984375 11.738281 C 21.050781 12.121094 21.5625 11.628906 21.699219 11.574219 C 21.953125 11.464844 22.394531 11.394531 22.730469 11.277344 C 23.027344 11.167969 23.558594 11.003906 23.277344 10.667969 C 23.046875 10.652344 22.933594 10.9375 22.730469 11.027344 C 22.589844 11.046875 22.621094 10.90625 22.5 10.894531 C 22.386719 10.878906 22.324219 11 22.203125 10.980469 C 22.089844 10.964844 21.925781 10.78125 21.90625 10.644531 C 21.863281 10.292969 22.203125 10.152344 22.347656 9.886719 C 22.253906 9.566406 21.816406 9.824219 21.550781 9.699219 C 21.574219 9.511719 21.769531 9.378906 21.988281 9.34375 C 22.171875 9.3125 22.578125 9.328125 22.6875 9.421875 C 22.75 9.480469 22.691406 9.609375 22.792969 9.699219 C 22.902344 9.796875 23.03125 9.785156 23.171875 9.761719 C 23.21875 9.519531 22.859375 9.582031 22.902344 9.421875 C 23.183594 9.238281 23.644531 9.390625 23.996094 9.339844 C 24.191406 9.308594 24.402344 9.167969 24.582031 9.066406 C 24.75 8.972656 24.96875 8.808594 25.144531 8.964844 C 25.199219 9.136719 24.988281 9.191406 24.894531 9.277344 C 24.574219 9.5625 24.246094 9.890625 23.996094 10.222656 C 24.144531 10.375 24.425781 10.296875 24.6875 10.328125 C 24.785156 10.34375 24.910156 10.375 25.019531 10.390625 C 25.144531 10.410156 25.28125 10.40625 25.378906 10.433594 C 25.558594 10.480469 25.605469 10.667969 25.777344 10.667969 C 26.066406 10.667969 26.066406 10.355469 25.90625 10.160156 C 25.957031 9.957031 26.035156 9.859375 25.96875 9.71875 C 25.839844 9.457031 25.363281 9.703125 25.339844 9.378906 C 25.324219 9.171875 25.515625 9.183594 25.589844 9.027344 C 25.558594 8.621094 25.921875 8.589844 25.886719 8.230469 C 25.863281 8.074219 25.738281 8.074219 25.628906 7.933594 C 25.578125 7.859375 25.550781 7.730469 25.488281 7.667969 C 25 7.625 24.5 7.59375 24 7.59375 Z M 15.535156 10.90625 C 15.636719 10.921875 15.75 11.027344 15.871094 11.03125 C 15.984375 11.035156 16.078125 10.972656 16.144531 10.988281 C 16.324219 11.035156 16.394531 11.300781 16.230469 11.433594 C 16.09375 11.449219 16.035156 11.375 15.9375 11.390625 C 15.652344 11.4375 15.542969 12 15.328125 11.980469 C 15.125 11.964844 15.015625 11.472656 15.21875 11.328125 C 15.234375 11.199219 15.128906 11.175781 15.136719 11.050781 C 15.191406 10.972656 15.371094 10.890625 15.535156 10.90625 Z M 14.589844 10.96875 C 14.644531 10.972656 14.691406 10.988281 14.714844 11.011719 C 14.6875 11.234375 14.511719 11.222656 14.339844 11.328125 C 14.035156 11.503906 13.863281 11.78125 13.769531 12.167969 C 13.746094 12.28125 13.449219 12.578125 13.308594 12.546875 C 12.972656 12.480469 13.394531 11.863281 13.472656 11.769531 C 13.558594 11.667969 13.671875 11.574219 13.769531 11.453125 C 13.863281 11.339844 13.925781 11.183594 14.019531 11.121094 C 14.125 11.046875 14.410156 10.964844 14.589844 10.96875 Z M 17.078125 11.730469 C 17.183594 11.730469 17.28125 11.746094 17.324219 11.792969 C 17.253906 12.066406 16.65625 11.996094 16.4375 11.894531 C 16.453125 11.792969 16.613281 11.761719 16.753906 11.746094 C 16.847656 11.746094 16.96875 11.722656 17.078125 11.730469 Z M 15.71875 12.238281 C 15.785156 12.238281 15.859375 12.253906 15.933594 12.277344 C 15.738281 12.4375 15.53125 12.527344 15.199219 12.628906 C 15.042969 12.683594 14.765625 12.746094 14.734375 12.566406 C 14.703125 12.347656 14.96875 12.402344 15.113281 12.378906 C 15.300781 12.355469 15.5 12.246094 15.71875 12.238281 Z M 36.605469 13.484375 C 36.582031 13.546875 36.5625 13.605469 36.566406 13.660156 C 36.578125 13.765625 36.6875 13.859375 36.714844 14 C 36.730469 14.074219 36.683594 14.230469 36.714844 14.296875 C 36.816406 14.488281 37.082031 14.347656 37.269531 14.359375 C 37.058594 14.0625 36.839844 13.765625 36.605469 13.484375 Z M 37.683594 14.933594 C 37.652344 15.078125 37.550781 15.265625 37.472656 15.386719 C 37.292969 15.667969 37.042969 15.683594 36.777344 15.828125 C 36.558594 15.953125 36.464844 16.160156 36.332031 16.375 C 36.199219 16.609375 36.109375 16.75 36.167969 17.089844 C 35.980469 17.464844 35.691406 17.691406 35.308594 17.871094 C 35.1875 17.921875 35.03125 17.9375 34.925781 18.015625 C 34.84375 18.078125 34.796875 18.238281 34.675781 18.371094 C 34.527344 18.535156 34.375 18.605469 34.296875 18.730469 C 34.234375 18.828125 34.214844 19.019531 34.144531 19.152344 C 34.058594 19.328125 33.871094 19.417969 33.75 19.59375 C 33.699219 19.675781 33.660156 19.84375 33.597656 19.953125 C 33.46875 20.191406 33.238281 20.371094 33.265625 20.582031 C 33.285156 20.785156 33.519531 20.824219 33.535156 21.003906 C 33.542969 21.105469 33.46875 21.167969 33.472656 21.277344 C 33.480469 21.4375 33.589844 21.550781 33.597656 21.675781 C 33.628906 21.988281 33.496094 22.113281 33.4375 22.328125 C 33.40625 22.425781 33.421875 22.542969 33.390625 22.621094 C 33.339844 22.78125 33.125 22.921875 33.121094 23.105469 C 33.121094 23.234375 33.253906 23.34375 33.265625 23.527344 C 33.265625 23.652344 33.203125 23.785156 33.222656 23.90625 C 33.269531 24.136719 33.675781 24.402344 33.855469 24.578125 C 34.09375 24.816406 34.40625 25 34.503906 25.25 C 34.59375 25.464844 34.59375 25.738281 34.761719 25.902344 C 34.878906 26.019531 35.082031 26.09375 35.246094 26.21875 C 35.390625 26.332031 35.546875 26.433594 35.703125 26.550781 C 35.964844 26.753906 36.347656 27.152344 36.753906 27.121094 C 36.96875 27.105469 37.1875 26.933594 37.425781 26.890625 C 37.675781 26.84375 38 26.824219 38.25 26.847656 C 38.441406 26.871094 38.640625 26.984375 38.839844 26.972656 C 39.050781 26.957031 39.292969 26.800781 39.53125 26.699219 C 39.722656 26.613281 39.964844 26.519531 40.222656 26.453125 C 40.339844 25.65625 40.40625 24.832031 40.40625 24 C 40.40625 20.640625 39.402344 17.527344 37.683594 14.933594 Z M 10.546875 20.441406 C 10.199219 20.464844 9.96875 20.480469 9.769531 20.566406 C 9.316406 20.777344 9.40625 21.390625 8.953125 21.535156 C 8.792969 21.589844 8.578125 21.589844 8.40625 21.625 C 8.253906 21.652344 8.074219 21.734375 7.917969 21.730469 C 7.875 21.730469 7.816406 21.699219 7.761719 21.675781 C 7.71875 21.96875 7.6875 22.261719 7.660156 22.550781 C 8.09375 22.636719 8.316406 23.207031 8.703125 23.394531 C 8.808594 23.449219 8.941406 23.453125 9.078125 23.484375 C 9.1875 23.503906 9.269531 23.550781 9.375 23.589844 C 9.59375 23.660156 9.871094 23.65625 10.046875 23.734375 C 10.3125 23.855469 10.511719 24.359375 10.738281 24.488281 C 10.753906 24.628906 10.714844 24.8125 10.761719 24.910156 C 10.871094 25.058594 11.027344 25.027344 11.203125 25.125 C 11.417969 25.238281 11.484375 25.535156 11.6875 25.628906 C 11.761719 25.660156 11.933594 25.65625 12.046875 25.6875 C 12.324219 25.777344 12.417969 26.097656 12.65625 26.027344 C 12.8125 25.980469 12.796875 25.816406 12.824219 25.671875 C 12.925781 25.558594 13.042969 25.378906 13.203125 25.375 C 13.464844 25.363281 13.484375 25.644531 13.582031 25.902344 C 13.636719 26.042969 13.777344 26.167969 13.8125 26.316406 C 13.878906 26.582031 13.84375 27.363281 13.792969 27.519531 C 13.722656 27.714844 13.464844 27.792969 13.308594 28.003906 C 13.230469 28.105469 13.191406 28.25 13.136719 28.324219 C 13.03125 28.449219 12.878906 28.480469 12.800781 28.59375 C 12.761719 28.660156 12.71875 28.800781 12.675781 28.886719 C 12.546875 29.15625 12.378906 29.34375 12.484375 29.667969 C 12.53125 29.796875 12.738281 29.886719 12.738281 30.042969 C 12.738281 30.222656 12.347656 30.390625 12.316406 30.589844 C 12.296875 30.738281 12.4375 31.003906 12.484375 31.203125 C 12.519531 31.347656 12.796875 31.4375 12.886719 31.535156 C 13.03125 31.703125 13.152344 31.9375 13.285156 32.144531 C 13.550781 32.558594 13.761719 33.058594 14.019531 33.453125 C 14.15625 33.660156 14.347656 33.847656 14.441406 34.0625 C 14.488281 34.171875 14.484375 34.300781 14.527344 34.402344 C 14.675781 34.738281 15.339844 35.09375 15.683594 35.261719 C 15.84375 35.339844 16.019531 35.363281 16.167969 35.449219 C 16.390625 35.574219 16.832031 35.90625 16.941406 36.097656 C 17.046875 36.277344 17.109375 36.703125 17.15625 36.984375 C 17.21875 37.355469 17.15625 37.636719 17.175781 38.035156 C 17.191406 38.253906 17.261719 38.46875 17.261719 38.6875 C 17.261719 38.761719 17.222656 38.816406 17.21875 38.894531 C 17.21875 38.910156 17.222656 38.921875 17.222656 38.9375 C 19.285156 39.871094 21.578125 40.40625 24 40.40625 C 24.4375 40.40625 24.871094 40.378906 25.296875 40.347656 C 25.316406 40.316406 25.332031 40.28125 25.359375 40.25 C 25.457031 40.125 25.546875 40.011719 25.609375 39.894531 C 25.671875 39.511719 25.457031 39.246094 25.546875 38.90625 C 25.644531 38.53125 26.171875 38.296875 26.535156 38.128906 C 26.660156 38.066406 26.792969 37.972656 26.890625 37.9375 C 27.144531 37.847656 27.464844 37.894531 27.691406 37.8125 C 28.089844 37.671875 28.128906 37.246094 28.324219 36.886719 C 28.417969 36.71875 28.535156 36.546875 28.550781 36.425781 C 28.566406 36.316406 28.515625 36.214844 28.53125 36.089844 C 28.550781 35.957031 28.667969 35.847656 28.699219 35.707031 C 28.746094 35.527344 28.765625 35.261719 28.765625 35.058594 C 28.765625 34.890625 28.6875 34.746094 28.683594 34.59375 C 28.65625 34.050781 28.878906 33.988281 29.078125 33.691406 C 29.183594 33.546875 29.21875 33.375 29.292969 33.269531 C 29.628906 32.765625 30.21875 32.519531 30.171875 31.753906 C 30.160156 31.503906 30 30.933594 29.816406 30.855469 C 29.707031 30.808594 29.464844 30.847656 29.3125 30.792969 C 28.8125 30.605469 28.519531 29.988281 28.003906 29.949219 C 27.894531 29.933594 27.796875 29.996094 27.671875 29.988281 C 27.46875 29.980469 27.160156 29.847656 26.933594 29.824219 C 26.792969 29.808594 26.597656 29.863281 26.515625 29.824219 C 26.378906 29.761719 26.371094 29.515625 26.261719 29.441406 C 26.175781 29.386719 26.011719 29.363281 25.886719 29.316406 C 25.675781 29.238281 25.511719 29.144531 25.277344 29.128906 C 25.199219 29.125 25.109375 29.160156 25.019531 29.152344 C 24.890625 29.128906 24.785156 28.972656 24.660156 28.894531 C 24.511719 28.800781 24.371094 28.761719 24.308594 28.625 C 24.441406 28.171875 24.0625 28.046875 23.96875 27.785156 C 23.925781 27.660156 23.949219 27.515625 23.90625 27.40625 C 23.855469 27.25 23.699219 27.15625 23.527344 27.027344 C 23.222656 26.792969 22.953125 26.574219 22.515625 26.519531 C 22.328125 26.496094 22.136719 26.578125 21.90625 26.5625 C 21.660156 26.546875 21.355469 26.332031 21.171875 26.125 C 20.996094 25.921875 20.90625 25.734375 20.75 25.640625 C 20.605469 25.546875 20.410156 25.546875 20.308594 25.453125 C 20.265625 25.410156 20.269531 25.339844 20.222656 25.238281 C 20.152344 25.089844 20.027344 25 20.121094 24.816406 C 19.953125 24.734375 19.949219 24.980469 19.761719 24.949219 C 19.597656 24.714844 19.464844 24.605469 19.089844 24.671875 C 18.921875 24.703125 18.824219 24.917969 18.625 24.921875 C 18.464844 24.9375 18.339844 24.746094 18.125 24.714844 C 17.957031 24.691406 17.777344 24.753906 17.660156 24.734375 C 17.480469 24.699219 17.425781 24.550781 17.261719 24.441406 C 17.140625 24.363281 16.90625 24.230469 16.839844 24.230469 C 16.628906 24.246094 16.480469 24.683594 16.1875 24.527344 C 16.046875 24.34375 16.417969 24.25 16.25 24.082031 C 16.121094 23.953125 16.015625 24.140625 15.910156 24.214844 C 15.796875 24.292969 15.6875 24.371094 15.558594 24.421875 C 15.269531 24.527344 15.089844 24.46875 14.863281 24.589844 C 14.652344 24.699219 14.644531 24.875 14.527344 25.09375 C 14.425781 25.269531 14.207031 25.527344 14.0625 25.535156 C 13.886719 25.550781 13.71875 25.292969 13.558594 25.222656 C 13.078125 25.015625 12.84375 25.40625 12.441406 25.410156 C 12.074219 25.425781 11.542969 24.8125 11.5625 24.464844 C 11.5625 24.25 11.683594 23.925781 11.707031 23.667969 C 11.730469 23.453125 11.875 23.328125 11.875 23.136719 C 11.878906 22.878906 11.535156 22.6875 11.371094 22.65625 C 10.980469 22.582031 10.433594 22.8125 9.984375 22.636719 C 9.894531 22.488281 10.082031 22.390625 10.128906 22.253906 C 10.160156 22.171875 10.144531 22.066406 10.171875 21.984375 C 10.222656 21.847656 10.363281 21.746094 10.425781 21.605469 C 10.472656 21.496094 10.484375 21.339844 10.53125 21.203125 C 10.582031 21.050781 10.6875 20.953125 10.699219 20.84375 C 10.714844 20.703125 10.660156 20.542969 10.550781 20.449219 Z M 16.171875 24.894531 C 16.3125 24.910156 16.332031 25.203125 16.1875 25.230469 C 16.03125 25.253906 15.949219 24.984375 16.105469 24.910156 C 16.125 24.894531 16.152344 24.894531 16.171875 24.902344 Z M 16.171875 24.894531 "/>
</g>
</svg>
