<?xml version="1.0" encoding="UTF-8"?>
<svg xmlns="http://www.w3.org/2000/svg" xmlns:xlink="http://www.w3.org/1999/xlink" width="48pt" height="48pt" viewBox="0 0 48 48" version="1.1">
<g id="surface1">
<path style=" stroke:none;fill-rule:evenodd;fill:rgb(21.568627%,62.745098%,94.901961%);fill-opacity:1;" d="M 11.207031 2.847656 L 36.792969 2.847656 C 41.40625 2.847656 45.152344 6.59375 45.152344 11.207031 L 45.152344 36.792969 C 45.152344 41.40625 41.40625 45.152344 36.792969 45.152344 L 11.207031 45.152344 C 6.59375 45.152344 2.847656 41.40625 2.847656 36.792969 L 2.847656 11.207031 C 2.847656 6.59375 6.59375 2.847656 11.207031 2.847656 Z M 11.207031 2.847656 "/>
<path style=" stroke:none;fill-rule:nonzero;fill:rgb(100%,100%,100%);fill-opacity:1;" d="M 22 12 C 21.441406 12 21 12.34375 21 12.769531 L 21 24.519531 L 17 24.519531 L 24 33.910156 L 31 24.519531 L 27 24.519531 L 27 12.769531 C 27 12.34375 26.550781 12 26 12 Z M 24 33.910156 L 15.902344 33.910156 C 15.402344 33.910156 15 34.378906 15 34.957031 C 15 35.535156 15.402344 36 15.902344 36 L 32.097656 36 C 32.597656 36 33 35.535156 33 34.957031 C 33 34.378906 32.597656 33.910156 32.097656 33.910156 Z M 24 33.910156 "/>
</g>
</svg>
