<?xml version="1.0" encoding="UTF-8"?>
<svg xmlns="http://www.w3.org/2000/svg" xmlns:xlink="http://www.w3.org/1999/xlink" width="48pt" height="48pt" viewBox="0 0 48 48" version="1.1">
<g id="surface1">
<path style=" stroke:none;fill-rule:evenodd;fill:rgb(64.705882%,81.176471%,39.215686%);fill-opacity:1;" d="M 11.207031 2.847656 L 36.792969 2.847656 C 41.40625 2.847656 45.152344 6.59375 45.152344 11.207031 L 45.152344 36.792969 C 45.152344 41.40625 41.40625 45.152344 36.792969 45.152344 L 11.207031 45.152344 C 6.59375 45.152344 2.847656 41.40625 2.847656 36.792969 L 2.847656 11.207031 C 2.847656 6.59375 6.59375 2.847656 11.207031 2.847656 Z M 11.207031 2.847656 "/>
<path style=" stroke:none;fill-rule:nonzero;fill:rgb(100%,100%,100%);fill-opacity:1;" d="M 28.5 33 C 28.5 35.484375 26.484375 37.5 24 37.5 C 21.515625 37.5 19.5 35.484375 19.5 33 C 19.5 30.515625 21.515625 28.5 24 28.5 C 26.484375 28.5 28.5 30.515625 28.5 33 Z M 28.5 33 "/>
<path style=" stroke:none;fill-rule:nonzero;fill:rgb(100%,100%,100%);fill-opacity:1;" d="M 42 33 C 42 35.484375 39.984375 37.5 37.5 37.5 C 35.015625 37.5 33 35.484375 33 33 C 33 30.515625 35.015625 28.5 37.5 28.5 C 39.984375 28.5 42 30.515625 42 33 Z M 42 33 "/>
<path style=" stroke:none;fill-rule:nonzero;fill:rgb(30.196078%,30.196078%,30.196078%);fill-opacity:1;" d="M 15 33 C 15 35.484375 12.984375 37.5 10.5 37.5 C 8.015625 37.5 6 35.484375 6 33 C 6 30.515625 8.015625 28.5 10.5 28.5 C 12.984375 28.5 15 30.515625 15 33 Z M 15 33 "/>
<path style=" stroke:none;fill-rule:nonzero;fill:rgb(30.196078%,30.196078%,30.196078%);fill-opacity:1;" d="M 28.5 15 C 28.5 17.484375 26.484375 19.5 24 19.5 C 21.515625 19.5 19.5 17.484375 19.5 15 C 19.5 12.515625 21.515625 10.5 24 10.5 C 26.484375 10.5 28.5 12.515625 28.5 15 Z M 28.5 15 "/>
</g>
</svg>
