<?xml version="1.0" encoding="UTF-8"?>
<svg xmlns="http://www.w3.org/2000/svg" xmlns:xlink="http://www.w3.org/1999/xlink" width="48pt" height="48pt" viewBox="0 0 48 48" version="1.1">
<g id="surface1">
<path style=" stroke:none;fill-rule:evenodd;fill:rgb(49.019608%,38.823529%,15.686275%);fill-opacity:1;" d="M 11.207031 2.847656 L 36.792969 2.847656 C 41.40625 2.847656 45.152344 6.59375 45.152344 11.207031 L 45.152344 36.792969 C 45.152344 41.40625 41.40625 45.152344 36.792969 45.152344 L 11.207031 45.152344 C 6.59375 45.152344 2.847656 41.40625 2.847656 36.792969 L 2.847656 11.207031 C 2.847656 6.59375 6.59375 2.847656 11.207031 2.847656 Z M 11.207031 2.847656 "/>
<path style=" stroke:none;fill-rule:nonzero;fill:rgb(67.843137%,50.588235%,32.156863%);fill-opacity:1;" d="M 22.5 3 L 22.5 22.5 L 3 22.5 L 3 25.5 L 22.5 25.5 L 22.5 45 L 25.5 45 L 25.5 25.5 L 45 25.5 L 45 22.5 L 25.5 22.5 L 25.5 3 Z M 22.5 3 "/>
<path style=" stroke:none;fill-rule:nonzero;fill:rgb(100%,100%,100%);fill-opacity:1;" d="M 40.144531 34.550781 C 40.144531 37.453125 37.792969 39.800781 34.894531 39.800781 C 31.996094 39.800781 29.644531 37.453125 29.644531 34.550781 C 29.644531 31.65625 31.996094 29.300781 34.894531 29.300781 C 37.792969 29.300781 40.144531 31.65625 40.144531 34.550781 Z M 40.144531 34.550781 "/>
</g>
</svg>
