<?xml version="1.0" encoding="UTF-8"?>
<svg xmlns="http://www.w3.org/2000/svg" xmlns:xlink="http://www.w3.org/1999/xlink" width="48pt" height="48pt" viewBox="0 0 48 48" version="1.1">
<g id="surface1">
<path style=" stroke:none;fill-rule:evenodd;fill:rgb(76.078431%,20.784314%,16.470588%);fill-opacity:1;" d="M 11.207031 2.847656 L 36.792969 2.847656 C 41.40625 2.847656 45.152344 6.59375 45.152344 11.207031 L 45.152344 36.792969 C 45.152344 41.40625 41.40625 45.152344 36.792969 45.152344 L 11.207031 45.152344 C 6.59375 45.152344 2.847656 41.40625 2.847656 36.792969 L 2.847656 11.207031 C 2.847656 6.59375 6.59375 2.847656 11.207031 2.847656 Z M 11.207031 2.847656 "/>
<path style=" stroke:none;fill-rule:nonzero;fill:rgb(100%,100%,100%);fill-opacity:1;" d="M 36 9.011719 L 36 15.046875 C 29.972656 15.152344 28.496094 21.027344 28.496094 21.027344 L 33.035156 21.027344 L 33.035156 27.0625 L 25.988281 27.0625 C 21.753906 40.140625 12 38.972656 12 38.972656 L 12 32.9375 C 12 32.9375 18.1875 34.089844 21.34375 22.5625 C 25.292969 8.144531 36 9.011719 36 9.011719 Z M 36 9.011719 "/>
</g>
</svg>
