<?xml version="1.0" encoding="UTF-8"?>
<svg xmlns="http://www.w3.org/2000/svg" xmlns:xlink="http://www.w3.org/1999/xlink" width="48pt" height="48pt" viewBox="0 0 48 48" version="1.1">
<g id="surface1">
<path style=" stroke:none;fill-rule:evenodd;fill:rgb(20%,20%,20%);fill-opacity:1;" d="M 11.207031 2.847656 L 36.792969 2.847656 C 41.40625 2.847656 45.152344 6.59375 45.152344 11.207031 L 45.152344 36.792969 C 45.152344 41.40625 41.40625 45.152344 36.792969 45.152344 L 11.207031 45.152344 C 6.59375 45.152344 2.847656 41.40625 2.847656 36.792969 L 2.847656 11.207031 C 2.847656 6.59375 6.59375 2.847656 11.207031 2.847656 Z M 11.207031 2.847656 "/>
<path style=" stroke:none;fill-rule:evenodd;fill:rgb(68.627451%,81.176471%,25.490196%);fill-opacity:1;" d="M 13.347656 20.515625 L 13.128906 21.214844 C 11.734375 25.730469 11.808594 29.546875 13.203125 32.390625 C 14.597656 35.234375 17.347656 36.972656 20.792969 37.296875 L 20.800781 37.296875 C 24.296875 37.59375 27.433594 35.949219 29.90625 33.167969 C 32.378906 30.386719 34.277344 26.457031 35.535156 21.910156 L 35.878906 20.675781 L 34.597656 20.671875 Z M 14.839844 22.488281 L 33.25 22.621094 C 32.058594 26.40625 30.417969 29.640625 28.441406 31.863281 C 26.25 34.328125 23.769531 35.578125 20.972656 35.34375 C 18.0625 35.074219 16.0625 33.761719 14.964844 31.527344 C 13.925781 29.421875 13.777344 26.34375 14.839844 22.488281 Z M 14.839844 22.488281 "/>
<path style=" stroke:none;fill-rule:nonzero;fill:rgb(68.627451%,81.176471%,25.490196%);fill-opacity:1;" d="M 16.957031 10.738281 C 16.058594 10.738281 15.3125 11.488281 15.3125 12.390625 C 15.3125 13.292969 16.058594 14.035156 16.957031 14.035156 C 17.859375 14.035156 18.605469 13.292969 18.605469 12.390625 C 18.605469 11.488281 17.859375 10.738281 16.957031 10.738281 Z M 16.957031 10.738281 "/>
<path style=" stroke:none;fill-rule:nonzero;fill:rgb(68.627451%,81.176471%,25.490196%);fill-opacity:1;" d="M 28.59375 10.667969 C 27.691406 10.667969 26.941406 11.410156 26.941406 12.3125 C 26.941406 13.214844 27.691406 13.964844 28.59375 13.964844 C 29.496094 13.964844 30.238281 13.214844 30.238281 12.3125 C 30.238281 11.410156 29.496094 10.667969 28.59375 10.667969 Z M 28.59375 10.667969 "/>
</g>
</svg>
