<?xml version="1.0" encoding="UTF-8"?>
<svg xmlns="http://www.w3.org/2000/svg" xmlns:xlink="http://www.w3.org/1999/xlink" width="48pt" height="48pt" viewBox="0 0 48 48" version="1.1">
<g id="surface1">
<path style=" stroke:none;fill-rule:evenodd;fill:rgb(90.196078%,90.196078%,90.196078%);fill-opacity:1;" d="M 11.207031 2.847656 L 36.792969 2.847656 C 41.40625 2.847656 45.152344 6.59375 45.152344 11.207031 L 45.152344 36.792969 C 45.152344 41.40625 41.40625 45.152344 36.792969 45.152344 L 11.207031 45.152344 C 6.59375 45.152344 2.847656 41.40625 2.847656 36.792969 L 2.847656 11.207031 C 2.847656 6.59375 6.59375 2.847656 11.207031 2.847656 Z M 11.207031 2.847656 "/>
<path style=" stroke:none;fill-rule:nonzero;fill:rgb(19.607843%,40%,96.862745%);fill-opacity:1;" d="M 15.597656 38.800781 C 13.957031 38.550781 12.675781 37.917969 11.535156 36.777344 C 10.582031 35.816406 9.925781 34.65625 9.644531 33.441406 C 9.375 32.261719 9.378906 31.339844 9.652344 30.144531 C 9.894531 29.089844 10.449219 28.046875 11.234375 27.167969 C 11.597656 26.75 15.765625 22.589844 15.832031 22.566406 C 15.863281 22.558594 15.878906 22.734375 15.878906 23.035156 C 15.886719 23.890625 16.046875 24.808594 16.386719 25.816406 L 16.550781 26.328125 L 14.988281 27.890625 C 13.4375 29.441406 13.265625 29.636719 13.015625 30.125 C 12.753906 30.636719 12.628906 31.191406 12.628906 31.847656 C 12.636719 34.066406 14.691406 35.90625 16.890625 35.667969 C 17.558594 35.59375 18.105469 35.390625 18.65625 35.015625 C 19.046875 34.746094 25.671875 28.09375 25.921875 27.71875 C 26.863281 26.292969 26.691406 24.332031 25.511719 23.066406 C 25.277344 22.816406 24.734375 22.371094 24.667969 22.371094 C 24.535156 22.371094 24.730469 22.152344 25.75 21.128906 L 26.875 20.003906 L 27.15625 20.25 C 27.484375 20.535156 28.167969 21.25 28.28125 21.425781 C 28.324219 21.488281 28.386719 21.574219 28.421875 21.609375 C 28.515625 21.707031 28.949219 22.453125 29.078125 22.746094 C 29.488281 23.660156 29.699219 24.640625 29.699219 25.660156 C 29.699219 27.21875 29.25 28.558594 28.296875 29.871094 C 28.183594 30.027344 26.480469 31.761719 24.511719 33.722656 C 21.9375 36.296875 20.828125 37.375 20.558594 37.566406 C 19.109375 38.582031 17.246094 39.046875 15.597656 38.800781 Z M 15.597656 38.800781 "/>
<path style=" stroke:none;fill-rule:nonzero;fill:rgb(16.078431%,65.490196%,20.392157%);fill-opacity:1;" d="M 32.402344 9.199219 C 34.042969 9.449219 35.324219 10.082031 36.464844 11.222656 C 37.417969 12.183594 38.074219 13.34375 38.355469 14.558594 C 38.625 15.738281 38.621094 16.660156 38.347656 17.855469 C 38.105469 18.910156 37.550781 19.953125 36.765625 20.832031 C 36.402344 21.25 32.234375 25.410156 32.167969 25.433594 C 32.136719 25.441406 32.121094 25.265625 32.121094 24.964844 C 32.113281 24.109375 31.953125 23.191406 31.613281 22.183594 L 31.449219 21.671875 L 33.011719 20.109375 C 34.5625 18.558594 34.734375 18.363281 34.984375 17.875 C 35.246094 17.363281 35.371094 16.808594 35.371094 16.152344 C 35.363281 13.933594 33.308594 12.09375 31.109375 12.332031 C 30.441406 12.40625 29.894531 12.609375 29.34375 12.984375 C 28.953125 13.253906 22.328125 19.90625 22.078125 20.28125 C 21.136719 21.707031 21.308594 23.667969 22.488281 24.933594 C 22.722656 25.183594 23.265625 25.628906 23.332031 25.628906 C 23.464844 25.628906 23.269531 25.847656 22.25 26.871094 L 21.125 27.996094 L 20.84375 27.75 C 20.515625 27.464844 19.832031 26.75 19.71875 26.574219 C 19.675781 26.511719 19.613281 26.425781 19.578125 26.390625 C 19.484375 26.292969 19.050781 25.546875 18.921875 25.253906 C 18.511719 24.339844 18.300781 23.359375 18.300781 22.339844 C 18.300781 20.78125 18.75 19.441406 19.703125 18.128906 C 19.816406 17.972656 21.519531 16.238281 23.488281 14.277344 C 26.0625 11.703125 27.171875 10.625 27.441406 10.433594 C 28.890625 9.417969 30.753906 8.953125 32.402344 9.199219 Z M 32.402344 9.199219 "/>
</g>
</svg>
