<?xml version="1.0" encoding="UTF-8"?>
<svg xmlns="http://www.w3.org/2000/svg" xmlns:xlink="http://www.w3.org/1999/xlink" width="48pt" height="48pt" viewBox="0 0 48 48" version="1.1">
<g id="surface1">
<path style=" stroke:none;fill-rule:evenodd;fill:rgb(41.176471%,57.647059%,76.862745%);fill-opacity:1;" d="M 11.207031 2.847656 L 36.792969 2.847656 C 41.40625 2.847656 45.152344 6.59375 45.152344 11.207031 L 45.152344 36.792969 C 45.152344 41.40625 41.40625 45.152344 36.792969 45.152344 L 11.207031 45.152344 C 6.59375 45.152344 2.847656 41.40625 2.847656 36.792969 L 2.847656 11.207031 C 2.847656 6.59375 6.59375 2.847656 11.207031 2.847656 Z M 11.207031 2.847656 "/>
<path style=" stroke:none;fill-rule:evenodd;fill:rgb(100%,86.666667%,45.098039%);fill-opacity:1;" d="M 16.40625 9.625 C 16.113281 9.609375 15.839844 9.738281 15.660156 9.972656 C 14.652344 11.265625 13.597656 13.015625 12.59375 14.578125 L 11.402344 12.527344 C 11.152344 12.105469 10.613281 11.957031 10.191406 12.207031 C 9.769531 12.453125 9.625 12.996094 9.875 13.417969 L 11.78125 16.6875 C 11.933594 16.949219 12.207031 17.113281 12.515625 17.125 C 12.816406 17.128906 13.105469 16.984375 13.277344 16.734375 C 14.515625 14.890625 15.921875 12.511719 17.050781 11.0625 C 17.261719 10.800781 17.308594 10.449219 17.171875 10.140625 C 17.035156 9.839844 16.738281 9.640625 16.40625 9.625 Z M 16.40625 9.625 "/>
<path style=" stroke:none;fill-rule:nonzero;fill:rgb(100%,86.666667%,45.098039%);fill-opacity:1;" d="M 20.246094 12.625 L 36.746094 12.625 C 37.578125 12.625 38.246094 13.296875 38.246094 14.125 C 38.246094 14.953125 37.578125 15.625 36.746094 15.625 L 20.246094 15.625 C 19.417969 15.625 18.746094 14.953125 18.746094 14.125 C 18.746094 13.296875 19.417969 12.625 20.246094 12.625 Z M 20.246094 12.625 "/>
<path style=" stroke:none;fill-rule:nonzero;fill:rgb(100%,86.666667%,45.098039%);fill-opacity:1;" d="M 20.246094 23.125 L 36.746094 23.125 C 37.578125 23.125 38.246094 23.796875 38.246094 24.625 C 38.246094 25.453125 37.578125 26.125 36.746094 26.125 L 20.246094 26.125 C 19.417969 26.125 18.746094 25.453125 18.746094 24.625 C 18.746094 23.796875 19.417969 23.125 20.246094 23.125 Z M 20.246094 23.125 "/>
<path style=" stroke:none;fill-rule:nonzero;fill:rgb(100%,86.666667%,45.098039%);fill-opacity:1;" d="M 14.246094 24.625 C 14.246094 25.453125 13.578125 26.125 12.746094 26.125 C 11.917969 26.125 11.246094 25.453125 11.246094 24.625 C 11.246094 23.796875 11.917969 23.125 12.746094 23.125 C 13.578125 23.125 14.246094 23.796875 14.246094 24.625 Z M 14.246094 24.625 "/>
<path style=" stroke:none;fill-rule:nonzero;fill:rgb(100%,86.666667%,45.098039%);fill-opacity:1;" d="M 20.246094 32.125 L 36.746094 32.125 C 37.578125 32.125 38.246094 32.792969 38.246094 33.625 C 38.246094 34.453125 37.578125 35.125 36.746094 35.125 L 20.246094 35.125 C 19.417969 35.125 18.746094 34.453125 18.746094 33.625 C 18.746094 32.792969 19.417969 32.125 20.246094 32.125 Z M 20.246094 32.125 "/>
<path style=" stroke:none;fill-rule:nonzero;fill:rgb(100%,86.666667%,45.098039%);fill-opacity:1;" d="M 14.246094 33.625 C 14.246094 34.453125 13.578125 35.125 12.746094 35.125 C 11.917969 35.125 11.246094 34.453125 11.246094 33.625 C 11.246094 32.792969 11.917969 32.125 12.746094 32.125 C 13.578125 32.125 14.246094 32.792969 14.246094 33.625 Z M 14.246094 33.625 "/>
</g>
</svg>
