<?xml version="1.0" encoding="UTF-8"?>
<svg xmlns="http://www.w3.org/2000/svg" xmlns:xlink="http://www.w3.org/1999/xlink" width="48pt" height="48pt" viewBox="0 0 48 48" version="1.1">
<g id="surface1">
<path style=" stroke:none;fill-rule:evenodd;fill:rgb(30.980392%,30.980392%,30.980392%);fill-opacity:1;" d="M 11.207031 2.847656 L 36.792969 2.847656 C 41.40625 2.847656 45.152344 6.59375 45.152344 11.207031 L 45.152344 36.792969 C 45.152344 41.40625 41.40625 45.152344 36.792969 45.152344 L 11.207031 45.152344 C 6.59375 45.152344 2.847656 41.40625 2.847656 36.792969 L 2.847656 11.207031 C 2.847656 6.59375 6.59375 2.847656 11.207031 2.847656 Z M 11.207031 2.847656 "/>
<path style=" stroke:none;fill-rule:nonzero;fill:rgb(70.196078%,70.196078%,70.196078%);fill-opacity:1;" d="M 21.027344 8.902344 C 20.71875 8.933594 20.449219 9.199219 20.390625 9.511719 L 19.78125 12.746094 C 18.683594 13.191406 17.644531 13.808594 16.738281 14.5625 L 13.722656 13.5 C 13.40625 13.386719 13.027344 13.53125 12.859375 13.828125 L 9.953125 19.066406 C 9.792969 19.371094 9.859375 19.785156 10.113281 20.011719 L 12.519531 22.207031 C 12.433594 22.796875 12.386719 23.386719 12.386719 24 C 12.386719 24.613281 12.433594 25.203125 12.519531 25.792969 L 10.113281 27.988281 C 9.859375 28.214844 9.792969 28.628906 9.953125 28.933594 L 12.859375 34.171875 C 13.027344 34.46875 13.40625 34.613281 13.722656 34.5 L 16.738281 33.4375 C 17.644531 34.191406 18.683594 34.808594 19.78125 35.253906 L 20.390625 38.488281 C 20.453125 38.828125 20.765625 39.097656 21.09375 39.105469 L 26.90625 39.105469 C 27.234375 39.097656 27.546875 38.828125 27.609375 38.488281 L 28.21875 35.253906 C 29.316406 34.808594 30.355469 34.191406 31.261719 33.4375 L 34.277344 34.5 C 34.59375 34.613281 34.972656 34.46875 35.140625 34.171875 L 38.046875 28.933594 C 38.207031 28.628906 38.140625 28.214844 37.886719 27.988281 L 35.480469 25.792969 C 35.566406 25.203125 35.613281 24.613281 35.613281 24 C 35.613281 23.386719 35.566406 22.796875 35.480469 22.207031 L 37.886719 20.011719 C 38.140625 19.785156 38.207031 19.371094 38.046875 19.066406 L 35.140625 13.828125 C 34.972656 13.53125 34.59375 13.386719 34.277344 13.5 L 31.261719 14.5625 C 30.355469 13.808594 29.316406 13.191406 28.21875 12.746094 L 27.609375 9.511719 C 27.546875 9.171875 27.234375 8.902344 26.90625 8.894531 L 21.09375 8.894531 C 21.074219 8.894531 21.050781 8.894531 21.027344 8.894531 Z M 21.027344 8.902344 "/>
</g>
</svg>
