<?xml version="1.0" encoding="UTF-8"?>
<svg xmlns="http://www.w3.org/2000/svg" xmlns:xlink="http://www.w3.org/1999/xlink" width="48pt" height="48pt" viewBox="0 0 48 48" version="1.1">
<g id="surface1">
<path style=" stroke:none;fill-rule:evenodd;fill:rgb(55.686275%,55.686275%,55.686275%);fill-opacity:1;" d="M 11.207031 2.847656 L 36.792969 2.847656 C 41.40625 2.847656 45.152344 6.59375 45.152344 11.207031 L 45.152344 36.792969 C 45.152344 41.40625 41.40625 45.152344 36.792969 45.152344 L 11.207031 45.152344 C 6.59375 45.152344 2.847656 41.40625 2.847656 36.792969 L 2.847656 11.207031 C 2.847656 6.59375 6.59375 2.847656 11.207031 2.847656 Z M 11.207031 2.847656 "/>
<path style=" stroke:none;fill-rule:nonzero;fill:rgb(100%,18.431373%,18.431373%);fill-opacity:1;" d="M 3 23.25 L 9 23.25 L 9 24.75 L 3 24.75 Z M 3 23.25 "/>
<path style=" stroke:none;fill-rule:nonzero;fill:rgb(100%,18.431373%,18.431373%);fill-opacity:1;" d="M 12 23.25 L 18 23.25 L 18 24.75 L 12 24.75 Z M 12 23.25 "/>
<path style=" stroke:none;fill-rule:nonzero;fill:rgb(100%,18.431373%,18.431373%);fill-opacity:1;" d="M 21 23.25 L 27 23.25 L 27 24.75 L 21 24.75 Z M 21 23.25 "/>
<path style=" stroke:none;fill-rule:nonzero;fill:rgb(100%,18.431373%,18.431373%);fill-opacity:1;" d="M 30 23.25 L 36 23.25 L 36 24.75 L 30 24.75 Z M 30 23.25 "/>
<path style=" stroke:none;fill-rule:nonzero;fill:rgb(100%,18.431373%,18.431373%);fill-opacity:1;" d="M 39 23.25 L 45 23.25 L 45 24.75 L 39 24.75 Z M 39 23.25 "/>
<path style="fill:none;stroke-width:1;stroke-linecap:round;stroke-linejoin:round;stroke:rgb(18.039216%,18.039216%,18.039216%);stroke-opacity:1;stroke-miterlimit:4;" d="M 6 21.789062 C 6 21.789062 13.208333 25.791667 16 23.789062 C 21.408854 19.914062 10.695312 9.90625 17 7.789062 C 21.166667 6.393229 26 15.789062 26 15.789062 " transform="matrix(1.5,0,0,1.5,0,0)"/>
</g>
</svg>
