<?xml version="1.0" encoding="UTF-8"?>
<svg xmlns="http://www.w3.org/2000/svg" xmlns:xlink="http://www.w3.org/1999/xlink" width="48pt" height="48pt" viewBox="0 0 48 48" version="1.1">
<g id="surface1">
<path style=" stroke:none;fill-rule:evenodd;fill:rgb(60%,60%,60%);fill-opacity:1;" d="M 11.207031 2.847656 L 36.792969 2.847656 C 41.40625 2.847656 45.152344 6.59375 45.152344 11.207031 L 45.152344 36.792969 C 45.152344 41.40625 41.40625 45.152344 36.792969 45.152344 L 11.207031 45.152344 C 6.59375 45.152344 2.847656 41.40625 2.847656 36.792969 L 2.847656 11.207031 C 2.847656 6.59375 6.59375 2.847656 11.207031 2.847656 Z M 11.207031 2.847656 "/>
<path style=" stroke:none;fill-rule:nonzero;fill:rgb(94.901961%,21.568627%,21.568627%);fill-opacity:1;" d="M 33 6 C 27.203125 6 22.5 10.703125 22.5 16.5 C 22.5 22.296875 27.203125 27 33 27 C 38.796875 27 43.5 22.296875 43.5 16.5 C 43.5 10.703125 38.796875 6 33 6 Z M 33 6 "/>
<path style=" stroke:none;fill-rule:nonzero;fill:rgb(21.568627%,62.745098%,94.901961%);fill-opacity:1;" d="M 15 21 C 9.203125 21 4.5 25.703125 4.5 31.5 C 4.5 37.296875 9.203125 42 15 42 C 20.796875 42 25.5 37.296875 25.5 31.5 C 25.5 25.703125 20.796875 21 15 21 Z M 15 21 "/>
</g>
</svg>
