<?xml version="1.0" encoding="UTF-8"?>
<svg xmlns="http://www.w3.org/2000/svg" xmlns:xlink="http://www.w3.org/1999/xlink" width="48pt" height="48pt" viewBox="0 0 48 48" version="1.1">
<g id="surface1">
<path style=" stroke:none;fill-rule:evenodd;fill:rgb(99.607843%,80.392157%,21.960784%);fill-opacity:1;" d="M 11.207031 2.847656 L 36.792969 2.847656 C 41.40625 2.847656 45.152344 6.59375 45.152344 11.207031 L 45.152344 36.792969 C 45.152344 41.40625 41.40625 45.152344 36.792969 45.152344 L 11.207031 45.152344 C 6.59375 45.152344 2.847656 41.40625 2.847656 36.792969 L 2.847656 11.207031 C 2.847656 6.59375 6.59375 2.847656 11.207031 2.847656 Z M 11.207031 2.847656 "/>
<path style=" stroke:none;fill-rule:nonzero;fill:rgb(100%,100%,100%);fill-opacity:1;" d="M 24.035156 6.917969 C 23.75 6.90625 23.46875 6.984375 23.21875 7.128906 L 10.136719 14.871094 C 9.652344 15.15625 9.355469 15.6875 9.355469 16.261719 L 9.355469 31.746094 C 9.355469 32.3125 9.652344 32.84375 10.136719 33.128906 L 23.21875 40.871094 C 23.703125 41.15625 24.296875 41.15625 24.78125 40.871094 L 37.863281 33.128906 C 38.34375 32.84375 38.644531 32.3125 38.644531 31.746094 L 38.644531 16.253906 C 38.644531 15.6875 38.34375 15.15625 37.863281 14.871094 L 24.78125 7.128906 C 24.550781 6.996094 24.296875 6.921875 24.035156 6.917969 Z M 24.035156 6.917969 "/>
<path style=" stroke:none;fill-rule:nonzero;fill:rgb(24.705882%,24.705882%,24.705882%);fill-opacity:1;" d="M 18.449219 34.707031 C 18.394531 34.65625 18.347656 34.457031 18.347656 34.265625 C 18.347656 33.847656 18.121094 33.824219 17.90625 34.21875 C 17.65625 34.6875 17.449219 34.5625 17.496094 33.964844 C 17.53125 33.53125 17.488281 33.421875 17.316406 33.46875 C 16.332031 33.71875 16.328125 33.714844 16.984375 32.996094 C 17.691406 32.230469 17.816406 31.765625 17.28125 31.9375 C 17.097656 31.996094 16.566406 32.074219 16.105469 32.113281 C 14.667969 32.25 13.191406 31.316406 13.191406 30.28125 C 13.191406 29.84375 13.953125 29.234375 15.050781 28.792969 C 15.609375 28.5625 16.082031 28.285156 16.105469 28.171875 C 16.125 28.0625 15.90625 27.816406 15.621094 27.628906 C 14.964844 27.207031 14.59375 26.613281 14.203125 25.355469 C 13.753906 23.902344 13.855469 21.386719 14.425781 19.730469 C 16.40625 13.988281 22.160156 11.609375 27.589844 14.285156 C 31.0625 15.996094 33.574219 18.707031 34.121094 21.339844 C 34.269531 22.046875 34.253906 22.203125 33.988281 22.71875 C 33.640625 23.402344 32.863281 24.21875 32.566406 24.21875 C 32.453125 24.21875 32.175781 24 31.953125 23.738281 C 31.375 23.050781 28.75 20.457031 27.660156 19.496094 L 26.730469 18.671875 L 26.828125 17.84375 C 26.925781 17.050781 26.917969 17.011719 26.550781 16.84375 C 25.996094 16.59375 25.21875 16.839844 25.15625 17.292969 C 25.121094 17.546875 25.308594 17.84375 25.890625 18.425781 L 26.671875 19.214844 L 25.792969 19.21875 C 24.191406 19.222656 23.886719 19.472656 24.671875 20.136719 C 25.253906 20.621094 25.453125 21.050781 25.40625 21.6875 L 25.359375 22.230469 L 26.058594 22.199219 C 26.59375 22.167969 26.753906 22.207031 26.753906 22.378906 C 26.753906 22.5 26.6875 22.597656 26.605469 22.597656 C 26.359375 22.597656 26.441406 23.015625 26.71875 23.175781 C 26.917969 23.296875 26.933594 23.359375 26.785156 23.453125 C 26.683594 23.519531 26.640625 23.6875 26.691406 23.824219 C 26.832031 24.191406 26.542969 24.128906 25.402344 23.53125 C 24.457031 23.035156 24.339844 22.921875 24.003906 22.171875 C 23.421875 20.855469 22.921875 20.5 22.921875 21.40625 C 22.921875 21.628906 22.78125 22.339844 22.609375 22.980469 C 22.066406 25.015625 22.003906 24.808594 23.160156 24.808594 C 24.324219 24.808594 25.160156 25 25.4375 25.332031 C 25.640625 25.578125 25.667969 26.25 25.503906 27.113281 C 25.410156 27.621094 25.421875 27.636719 25.78125 27.542969 C 26.136719 27.453125 26.152344 27.472656 26.066406 27.890625 C 25.984375 28.316406 26 28.332031 26.515625 28.332031 C 26.808594 28.332031 27.046875 28.402344 27.046875 28.484375 C 27.046875 28.5625 26.996094 28.628906 26.925781 28.628906 C 26.863281 28.628906 26.683594 28.722656 26.527344 28.839844 C 26.246094 29.042969 26.246094 29.050781 26.519531 29.355469 C 26.839844 29.703125 26.800781 29.71875 25.644531 29.660156 C 24.777344 29.625 24.59375 29.5 24.464844 28.875 C 24.3125 28.144531 23.972656 27.691406 23.734375 27.890625 C 23.28125 28.269531 24.160156 29.824219 25.253906 30.578125 C 26.808594 31.640625 28.578125 31.890625 30.203125 31.277344 C 31.308594 30.855469 32.917969 29.300781 33.800781 27.792969 C 34.792969 26.109375 35.003906 26.136719 34.644531 27.90625 C 34.046875 30.847656 32.019531 33.0625 29.050781 34.015625 C 28.09375 34.324219 27.566406 34.402344 26.386719 34.402344 C 23.921875 34.40625 22.515625 33.71875 20.234375 31.390625 C 18.800781 29.925781 18.375 29.8125 19.109375 31.09375 L 19.578125 31.910156 L 19.105469 33.359375 C 18.84375 34.15625 18.609375 34.808594 18.589844 34.808594 C 18.566406 34.808594 18.503906 34.765625 18.453125 34.714844 Z M 19.105469 26.777344 C 17.824219 24.222656 17.542969 23.199219 17.542969 21.125 C 17.542969 19.578125 17.574219 19.375 17.9375 18.6875 C 19.03125 16.609375 21.378906 15.402344 24.308594 15.390625 C 25.683594 15.390625 27.234375 15.628906 27.859375 15.941406 C 28.625 16.328125 29.71875 17.328125 30.832031 18.667969 C 32.140625 20.234375 32.246094 20.53125 31.292969 19.953125 C 31.027344 19.792969 30.660156 19.65625 30.484375 19.65625 C 29.921875 19.65625 29.714844 19.488281 29.613281 18.972656 C 29.542969 18.605469 29.339844 18.328125 28.84375 17.953125 C 27.730469 17.105469 27.300781 17.484375 28.074219 18.644531 C 28.722656 19.625 32.308594 23.066406 32.621094 23.011719 C 33.066406 22.925781 33.410156 22.027344 33.339844 21.125 C 33.214844 19.597656 32.136719 18.011719 30.453125 16.875 C 28.917969 15.832031 26 14.511719 24.6875 14.25 C 20.5 13.425781 16.410156 16.03125 15.8125 19.90625 C 15.453125 22.222656 16.734375 25.292969 19.144531 27.859375 C 19.542969 28.285156 19.894531 28.609375 19.925781 28.578125 C 19.953125 28.546875 19.582031 27.734375 19.105469 26.777344 Z M 19.105469 26.777344 "/>
</g>
</svg>
