<?xml version="1.0" encoding="UTF-8"?>
<svg xmlns="http://www.w3.org/2000/svg" xmlns:xlink="http://www.w3.org/1999/xlink" width="48pt" height="48pt" viewBox="0 0 48 48" version="1.1">
<g id="surface1">
<path style=" stroke:none;fill-rule:evenodd;fill:rgb(60%,60%,60%);fill-opacity:1;" d="M 43.09375 42.136719 C 42.644531 42.246094 42.089844 42.386719 42.089844 42.386719 L 5.863281 42.386719 C 5.699219 42.386719 5.277344 42.246094 4.941406 42.1875 C 6.472656 43.96875 8.667969 45.152344 11.207031 45.152344 L 36.792969 45.152344 C 39.355469 45.152344 41.5625 43.941406 43.09375 42.136719 Z M 43.09375 42.136719 "/>
<path style=" stroke:none;fill-rule:evenodd;fill:rgb(99.607843%,59.215686%,0%);fill-opacity:1;" d="M 45.109375 37.019531 L 45.109375 20.957031 C 45.109375 20.265625 44.777344 19.65625 44.265625 19.269531 L 44.269531 19.261719 L 23.980469 4.355469 C 23.980469 4.355469 3.6875 19.28125 3.8125 19.1875 L 3.8125 19.183594 C 3.765625 19.214844 3.722656 19.246094 3.683594 19.277344 L 3.660156 19.296875 C 3.167969 19.683594 2.847656 20.28125 2.847656 20.957031 L 2.847656 36.792969 C 2.847656 38.878906 3.683594 40.722656 4.941406 42.1875 C 5.277344 42.246094 5.699219 42.386719 5.863281 42.386719 L 42.089844 42.386719 C 42.089844 42.386719 42.644531 42.246094 43.09375 42.136719 C 44.277344 40.734375 45.050781 38.996094 45.109375 37.019531 Z M 45.109375 37.019531 "/>
<path style=" stroke:none;fill-rule:evenodd;fill:rgb(60%,60%,60%);fill-opacity:1;" d="M 11.207031 2.847656 C 6.578125 2.847656 2.84375 6.578125 2.84375 11.214844 L 2.84375 20.957031 C 2.84375 20.28125 3.167969 19.683594 3.660156 19.296875 L 3.683594 19.277344 C 3.722656 19.246094 3.765625 19.214844 3.8125 19.183594 L 3.8125 19.1875 C 3.6875 19.28125 23.980469 4.355469 23.980469 4.355469 L 44.269531 19.261719 L 44.265625 19.269531 C 44.777344 19.65625 45.109375 20.265625 45.109375 20.957031 L 45.109375 37.019531 C 45.109375 36.941406 45.15625 36.875 45.15625 36.792969 L 45.15625 11.214844 C 45.15625 6.578125 41.421875 2.847656 36.792969 2.847656 Z M 11.207031 2.847656 "/>
<path style=" stroke:none;fill-rule:nonzero;fill:rgb(92.156863%,92.156863%,92.156863%);fill-opacity:1;" d="M 9.640625 8.878906 L 38.316406 8.878906 C 39.566406 8.878906 40.578125 9.890625 40.578125 11.140625 L 40.578125 33.785156 C 40.578125 35.035156 39.566406 36.046875 38.316406 36.046875 L 9.640625 36.046875 C 8.390625 36.046875 7.375 35.035156 7.375 33.785156 L 7.375 11.140625 C 7.375 9.890625 8.390625 8.878906 9.640625 8.878906 Z M 9.640625 8.878906 "/>
<path style=" stroke:none;fill-rule:evenodd;fill:rgb(99.607843%,80.392157%,21.960784%);fill-opacity:1;" d="M 45.109375 37.019531 L 45.109375 20.957031 L 10.390625 44.988281 C 10.675781 45.015625 10.921875 45.152344 11.207031 45.152344 L 36.792969 45.152344 C 41.339844 45.152344 44.980469 41.542969 45.109375 37.019531 Z M 45.109375 37.019531 "/>
<path style=" stroke:none;fill-rule:evenodd;fill:rgb(99.607843%,75.294118%,2.352941%);fill-opacity:1;" d="M 23.980469 35.582031 L 2.847656 20.957031 L 2.847656 36.792969 C 2.847656 41.136719 6.167969 44.5625 10.390625 44.988281 Z M 23.980469 35.582031 "/>
<path style=" stroke:none;fill-rule:nonzero;fill:rgb(51.764706%,51.764706%,51.764706%);fill-opacity:1;" d="M 24 13.550781 L 18 21.050781 L 21 21.050781 L 21 27.800781 C 21 28.292969 21.277344 28.550781 21.75 28.550781 L 26.25 28.550781 C 26.722656 28.550781 27 28.292969 27 27.800781 L 27 21.050781 L 30 21.050781 Z M 24 13.550781 "/>
</g>
</svg>
