<?xml version="1.0" encoding="UTF-8"?>
<svg xmlns="http://www.w3.org/2000/svg" xmlns:xlink="http://www.w3.org/1999/xlink" width="48pt" height="48pt" viewBox="0 0 48 48" version="1.1">
<g id="surface1">
<path style=" stroke:none;fill-rule:evenodd;fill:rgb(35.686275%,35.686275%,35.686275%);fill-opacity:1;" d="M 11.207031 2.847656 L 36.792969 2.847656 C 41.40625 2.847656 45.152344 6.59375 45.152344 11.207031 L 45.152344 36.792969 C 45.152344 41.40625 41.40625 45.152344 36.792969 45.152344 L 11.207031 45.152344 C 6.59375 45.152344 2.847656 41.40625 2.847656 36.792969 L 2.847656 11.207031 C 2.847656 6.59375 6.59375 2.847656 11.207031 2.847656 Z M 11.207031 2.847656 "/>
<path style=" stroke:none;fill-rule:evenodd;fill:rgb(35.686275%,35.686275%,35.686275%);fill-opacity:1;" d="M 10.90625 2.910156 C 6.421875 3.078125 2.847656 6.683594 2.847656 11.207031 L 2.847656 36.792969 C 2.847656 41.421875 6.578125 45.152344 11.207031 45.152344 L 36.785156 45.152344 C 41.421875 45.152344 45.152344 41.421875 45.152344 36.792969 L 45.152344 11.207031 C 45.152344 6.578125 41.421875 2.847656 36.785156 2.847656 L 16.90625 2.847656 L 16.90625 5.191406 C 16.90625 5.609375 16.734375 5.980469 16.464844 6.25 C 16.191406 6.519531 15.816406 6.691406 15.40625 6.691406 L 12.40625 6.691406 C 11.988281 6.691406 11.609375 6.519531 11.339844 6.25 C 11.066406 5.980469 10.90625 5.609375 10.90625 5.191406 Z M 10.90625 2.910156 "/>
<path style=" stroke:none;fill-rule:evenodd;fill:rgb(21.568627%,21.568627%,21.568627%);fill-opacity:1;" d="M 10.90625 2.910156 L 10.90625 5.191406 C 10.90625 5.609375 11.066406 5.980469 11.339844 6.25 C 11.609375 6.519531 11.988281 6.691406 12.40625 6.691406 L 15.40625 6.691406 C 15.816406 6.691406 16.191406 6.519531 16.464844 6.25 C 16.734375 5.980469 16.90625 5.609375 16.90625 5.191406 L 16.90625 2.847656 L 11.207031 2.847656 C 11.097656 2.847656 11.011719 2.90625 10.90625 2.910156 Z M 10.90625 2.910156 "/>
<path style=" stroke:none;fill-rule:nonzero;fill:rgb(20%,20%,20%);fill-opacity:1;" d="M 40.292969 10.949219 C 40.292969 11.777344 39.621094 12.449219 38.792969 12.449219 C 37.964844 12.449219 37.292969 11.777344 37.292969 10.949219 C 37.292969 10.121094 37.964844 9.449219 38.792969 9.449219 C 39.621094 9.449219 40.292969 10.121094 40.292969 10.949219 Z M 40.292969 10.949219 "/>
<path style=" stroke:none;fill-rule:nonzero;fill:rgb(20%,20%,20%);fill-opacity:1;" d="M 36 24 C 36 30.625 30.625 36 24 36 C 17.375 36 12 30.625 12 24 C 12 17.375 17.375 12 24 12 C 30.625 12 36 17.375 36 24 Z M 36 24 "/>
<path style=" stroke:none;fill-rule:nonzero;fill:rgb(0%,58.431373%,52.941176%);fill-opacity:1;" d="M 33 24 C 33 19.03125 28.96875 15 24 15 C 19.03125 15 15 19.03125 15 24 C 15 28.96875 19.03125 33 24 33 C 28.96875 33 33 28.96875 33 24 Z M 33 24 "/>
<path style=" stroke:none;fill-rule:nonzero;fill:rgb(40%,74.901961%,71.764706%);fill-opacity:1;" d="M 30 24 C 30 27.3125 27.3125 30 24 30 C 20.6875 30 18 27.3125 18 24 C 18 20.6875 20.6875 18 24 18 C 27.3125 18 30 20.6875 30 24 Z M 30 24 "/>
</g>
</svg>
