<?xml version="1.0" encoding="UTF-8"?>
<svg xmlns="http://www.w3.org/2000/svg" xmlns:xlink="http://www.w3.org/1999/xlink" width="48pt" height="48pt" viewBox="0 0 48 48" version="1.1">
<g id="surface1">
<path style=" stroke:none;fill-rule:evenodd;fill:rgb(30.980392%,30.980392%,30.980392%);fill-opacity:1;" d="M 11.207031 2.847656 L 36.792969 2.847656 C 41.40625 2.847656 45.152344 6.59375 45.152344 11.207031 L 45.152344 36.792969 C 45.152344 41.40625 41.40625 45.152344 36.792969 45.152344 L 11.207031 45.152344 C 6.59375 45.152344 2.847656 41.40625 2.847656 36.792969 L 2.847656 11.207031 C 2.847656 6.59375 6.59375 2.847656 11.207031 2.847656 Z M 11.207031 2.847656 "/>
<path style=" stroke:none;fill-rule:nonzero;fill:rgb(100%,100%,100%);fill-opacity:1;" d="M 24 9.785156 C 16.105469 9.785156 9.785156 16.105469 9.785156 24 C 9.785156 31.894531 16.105469 38.214844 24 38.214844 C 25.265625 38.214844 26.371094 37.105469 26.371094 35.84375 C 26.371094 35.214844 26.207031 34.738281 25.738281 34.265625 C 25.421875 33.792969 25.105469 33.316406 25.105469 32.6875 C 25.105469 31.421875 26.214844 30.316406 27.472656 30.316406 L 30.316406 30.316406 C 34.738281 30.316406 38.214844 26.84375 38.214844 22.421875 C 38.214844 15.472656 31.894531 9.785156 24 9.785156 Z M 24 9.785156 "/>
<path style=" stroke:none;fill-rule:nonzero;fill:rgb(94.509804%,64.313725%,26.27451%);fill-opacity:1;" d="M 14.160156 24 C 12.996094 24 11.972656 22.980469 11.972656 21.8125 C 11.972656 20.644531 12.996094 19.625 14.160156 19.625 C 15.328125 19.625 16.347656 20.644531 16.347656 21.8125 C 16.347656 22.980469 15.328125 24 14.160156 24 Z M 14.160156 24 "/>
<path style=" stroke:none;fill-rule:nonzero;fill:rgb(24.705882%,56.470588%,86.27451%);fill-opacity:1;" d="M 19.625 17.441406 C 18.464844 17.441406 17.441406 16.421875 17.441406 15.253906 C 17.441406 14.089844 18.464844 13.066406 19.625 13.066406 C 20.792969 13.066406 21.8125 14.089844 21.8125 15.253906 C 21.8125 16.421875 20.792969 17.441406 19.625 17.441406 Z M 19.625 17.441406 "/>
<path style=" stroke:none;fill-rule:nonzero;fill:rgb(33.72549%,66.27451%,7.45098%);fill-opacity:1;" d="M 27.28125 17.441406 C 26.113281 17.441406 25.09375 16.421875 25.09375 15.253906 C 25.09375 14.089844 26.113281 13.066406 27.28125 13.066406 C 28.449219 13.066406 29.46875 14.089844 29.46875 15.253906 C 29.46875 16.421875 28.449219 17.441406 27.28125 17.441406 Z M 27.28125 17.441406 "/>
<path style=" stroke:none;fill-rule:nonzero;fill:rgb(95.294118%,35.686275%,35.686275%);fill-opacity:1;" d="M 32.746094 24 C 31.578125 24 30.558594 22.980469 30.558594 21.8125 C 30.558594 20.644531 31.578125 19.625 32.746094 19.625 C 33.910156 19.625 34.933594 20.644531 34.933594 21.8125 C 34.933594 22.980469 33.910156 24 32.746094 24 Z M 32.746094 24 "/>
</g>
</svg>
