<?xml version="1.0" encoding="UTF-8"?>
<svg xmlns="http://www.w3.org/2000/svg" xmlns:xlink="http://www.w3.org/1999/xlink" width="48pt" height="48pt" viewBox="0 0 48 48" version="1.1">
<g id="surface1">
<path style=" stroke:none;fill-rule:evenodd;fill:rgb(18.823529%,62.352941%,100%);fill-opacity:1;" d="M 11.207031 2.847656 L 36.792969 2.847656 C 41.40625 2.847656 45.152344 6.59375 45.152344 11.207031 L 45.152344 36.792969 C 45.152344 41.40625 41.40625 45.152344 36.792969 45.152344 L 11.207031 45.152344 C 6.59375 45.152344 2.847656 41.40625 2.847656 36.792969 L 2.847656 11.207031 C 2.847656 6.59375 6.59375 2.847656 11.207031 2.847656 Z M 11.207031 2.847656 "/>
<path style=" stroke:none;fill-rule:evenodd;fill:rgb(90.196078%,90.196078%,90.196078%);fill-opacity:1;" d="M 37.828125 24 C 37.828125 31.640625 31.640625 37.828125 24 37.828125 C 16.359375 37.828125 10.171875 31.640625 10.171875 24 C 10.171875 16.359375 16.359375 10.171875 24 10.171875 C 31.640625 10.171875 37.828125 16.359375 37.828125 24 Z M 37.828125 24 "/>
<path style=" stroke:none;fill-rule:evenodd;fill:rgb(94.901961%,94.901961%,94.901961%);fill-opacity:1;" d="M 30.015625 36.433594 L 28.378906 33.121094 L 29.957031 36.464844 C 29.980469 36.453125 29.996094 36.441406 30.015625 36.433594 Z M 30.015625 36.433594 "/>
<path style=" stroke:none;fill-rule:evenodd;fill:rgb(100%,100%,100%);fill-opacity:1;" d="M 32.496094 34.890625 L 24.597656 25.082031 L 28.378906 33.113281 L 30.015625 36.433594 C 30.894531 36.003906 31.722656 35.488281 32.496094 34.890625 Z M 32.496094 34.890625 "/>
<path style=" stroke:none;fill-rule:evenodd;fill:rgb(94.901961%,94.901961%,94.901961%);fill-opacity:1;" d="M 24.066406 23.953125 L 24.597656 25.082031 L 32.496094 34.890625 C 33 34.503906 33.480469 34.089844 33.921875 33.636719 C 34.238281 33.3125 34.535156 32.96875 34.816406 32.613281 C 34.828125 32.605469 34.832031 32.59375 34.84375 32.582031 C 35.109375 32.25 35.355469 31.902344 35.589844 31.546875 C 35.621094 31.5 35.644531 31.453125 35.675781 31.40625 C 35.886719 31.074219 36.082031 30.734375 36.265625 30.386719 C 36.300781 30.316406 36.339844 30.246094 36.371094 30.171875 C 36.53125 29.847656 36.683594 29.515625 36.816406 29.175781 C 36.859375 29.074219 36.902344 28.972656 36.9375 28.871094 C 37.058594 28.550781 37.167969 28.230469 37.261719 27.902344 C 37.296875 27.777344 37.332031 27.652344 37.371094 27.519531 C 37.421875 27.300781 37.472656 27.078125 37.515625 26.855469 Z M 24.066406 23.953125 "/>
<path style=" stroke:none;fill-rule:evenodd;fill:rgb(90.196078%,90.196078%,90.196078%);fill-opacity:1;" d="M 24 10.167969 C 21.34375 10.171875 18.746094 10.933594 16.515625 12.371094 L 23.953125 24.078125 L 10.222656 22.890625 C 10.191406 23.261719 10.171875 23.628906 10.167969 24 C 10.167969 31.640625 16.359375 37.832031 24 37.832031 C 26.0625 37.824219 28.097656 37.359375 29.957031 36.464844 L 24.066406 23.953125 L 37.515625 26.855469 C 37.71875 25.917969 37.828125 24.957031 37.832031 24 C 37.832031 16.359375 31.640625 10.167969 24 10.167969 Z M 24 10.167969 "/>
<path style=" stroke:none;fill-rule:evenodd;fill:rgb(94.901961%,94.901961%,94.901961%);fill-opacity:1;" d="M 14.167969 14.292969 C 11.886719 16.609375 10.488281 19.652344 10.222656 22.890625 L 23.953125 24.078125 Z M 14.167969 14.292969 "/>
<path style=" stroke:none;fill-rule:evenodd;fill:rgb(100%,100%,100%);fill-opacity:1;" d="M 14.167969 14.292969 L 23.953125 24.078125 L 16.515625 12.371094 C 15.667969 12.925781 14.875 13.566406 14.167969 14.292969 Z M 14.167969 14.292969 "/>
<path style=" stroke:none;fill-rule:evenodd;fill:rgb(70.196078%,70.196078%,70.196078%);fill-opacity:1;" d="M 28.953125 24 C 28.953125 26.734375 26.734375 28.953125 24 28.953125 C 21.261719 28.953125 19.042969 26.734375 19.042969 24 C 19.042969 21.265625 21.261719 19.046875 24 19.046875 C 26.734375 19.046875 28.953125 21.265625 28.953125 24 Z M 28.953125 24 "/>
<path style=" stroke:none;fill-rule:evenodd;fill:rgb(100%,100%,100%);fill-opacity:1;" d="M 27.660156 24 C 27.660156 26.019531 26.019531 27.660156 24 27.660156 C 21.980469 27.660156 20.339844 26.019531 20.339844 24 C 20.339844 21.980469 21.980469 20.339844 24 20.339844 C 26.019531 20.339844 27.660156 21.980469 27.660156 24 Z M 27.660156 24 "/>
<path style=" stroke:none;fill-rule:evenodd;fill:rgb(18.431373%,49.019608%,73.72549%);fill-opacity:1;" d="M 45.15625 26.714844 C 44.355469 26.839844 43.472656 27.089844 42.691406 27.183594 C 39.667969 27.550781 36.78125 27.691406 34.011719 27.628906 C 31.246094 27.566406 28.597656 27.308594 26.058594 26.871094 C 23.515625 26.433594 21.082031 25.824219 18.734375 25.0625 C 16.386719 24.300781 14.125 23.394531 11.9375 22.371094 C 9.753906 21.339844 7.640625 20.191406 5.582031 18.949219 C 4.628906 18.371094 3.78125 17.609375 2.84375 16.996094 L 2.84375 36.792969 C 2.84375 41.421875 6.578125 45.152344 11.207031 45.152344 L 36.792969 45.152344 C 41.421875 45.152344 45.15625 41.421875 45.15625 36.792969 Z M 45.15625 26.714844 "/>
<path style=" stroke:none;fill-rule:evenodd;fill:rgb(100%,100%,100%);fill-opacity:1;" d="M 33.113281 35.71875 L 26.152344 39.738281 L 26.152344 31.699219 Z M 33.113281 35.71875 "/>
<path style=" stroke:none;fill-rule:evenodd;fill:rgb(100%,100%,100%);fill-opacity:1;" d="M 16.308594 31.699219 L 24.308594 31.699219 L 24.308594 39.699219 L 16.308594 39.699219 Z M 16.308594 31.699219 "/>
</g>
</svg>
