<?xml version="1.0" encoding="UTF-8"?>
<svg xmlns="http://www.w3.org/2000/svg" xmlns:xlink="http://www.w3.org/1999/xlink" width="48pt" height="48pt" viewBox="0 0 48 48" version="1.1">
<g id="surface1">
<path style=" stroke:none;fill-rule:evenodd;fill:rgb(80%,80%,80%);fill-opacity:1;" d="M 11.207031 2.847656 L 36.792969 2.847656 C 41.40625 2.847656 45.152344 6.59375 45.152344 11.207031 L 45.152344 36.792969 C 45.152344 41.40625 41.40625 45.152344 36.792969 45.152344 L 11.207031 45.152344 C 6.59375 45.152344 2.847656 41.40625 2.847656 36.792969 L 2.847656 11.207031 C 2.847656 6.59375 6.59375 2.847656 11.207031 2.847656 Z M 11.207031 2.847656 "/>
<path style=" stroke:none;fill-rule:nonzero;fill:rgb(30.196078%,30.196078%,30.196078%);fill-opacity:1;" d="M 12 28.5 C 12 29.746094 10.996094 30.75 9.75 30.75 C 8.503906 30.75 7.5 29.746094 7.5 28.5 C 7.5 27.253906 8.503906 26.25 9.75 26.25 C 10.996094 26.25 12 27.253906 12 28.5 Z M 12 28.5 "/>
<path style=" stroke:none;fill-rule:nonzero;fill:rgb(30.196078%,30.196078%,30.196078%);fill-opacity:1;" d="M 25.5 28.5 C 25.5 29.746094 24.496094 30.75 23.25 30.75 C 22.003906 30.75 21 29.746094 21 28.5 C 21 27.253906 22.003906 26.25 23.25 26.25 C 24.496094 26.25 25.5 27.253906 25.5 28.5 Z M 25.5 28.5 "/>
<path style=" stroke:none;fill-rule:nonzero;fill:rgb(30.196078%,30.196078%,30.196078%);fill-opacity:1;" d="M 25.5 19.5 C 25.5 20.746094 24.496094 21.75 23.25 21.75 C 22.003906 21.75 21 20.746094 21 19.5 C 21 18.253906 22.003906 17.25 23.25 17.25 C 24.496094 17.25 25.5 18.253906 25.5 19.5 Z M 25.5 19.5 "/>
<path style=" stroke:none;fill-rule:nonzero;fill:rgb(30.196078%,30.196078%,30.196078%);fill-opacity:1;" d="M 40.5 19.5 C 40.5 20.746094 39.496094 21.75 38.25 21.75 C 37.003906 21.75 36 20.746094 36 19.5 C 36 18.253906 37.003906 17.25 38.25 17.25 C 39.496094 17.25 40.5 18.253906 40.5 19.5 Z M 40.5 19.5 "/>
<path style=" stroke:none;fill-rule:nonzero;fill:rgb(30.196078%,30.196078%,30.196078%);fill-opacity:1;" d="M 22.5 18.75 L 22.5 27.75 L 9 27.75 L 9 29.25 L 24 29.25 L 24 20.25 L 39 20.25 L 39 18.75 Z M 22.5 18.75 "/>
</g>
</svg>
