<?xml version="1.0" encoding="UTF-8"?>
<svg xmlns="http://www.w3.org/2000/svg" xmlns:xlink="http://www.w3.org/1999/xlink" width="48pt" height="48pt" viewBox="0 0 48 48" version="1.1">
<g id="surface1">
<path style=" stroke:none;fill-rule:evenodd;fill:rgb(66.27451%,28.627451%,7.058824%);fill-opacity:1;" d="M 11.207031 2.847656 L 36.792969 2.847656 C 41.40625 2.847656 45.152344 6.59375 45.152344 11.207031 L 45.152344 36.792969 C 45.152344 41.40625 41.40625 45.152344 36.792969 45.152344 L 11.207031 45.152344 C 6.59375 45.152344 2.847656 41.40625 2.847656 36.792969 L 2.847656 11.207031 C 2.847656 6.59375 6.59375 2.847656 11.207031 2.847656 Z M 11.207031 2.847656 "/>
<path style=" stroke:none;fill-rule:nonzero;fill:rgb(92.941176%,64.313725%,34.509804%);fill-opacity:1;" d="M 21 24.75 L 27 24.75 L 25.5 39.75 L 22.5 39.75 Z M 21 24.75 "/>
<path style=" stroke:none;fill-rule:nonzero;fill:rgb(92.941176%,64.313725%,34.509804%);fill-opacity:1;" d="M 24 8.25 C 19.03125 8.25 15 12.28125 15 17.25 C 15 22.21875 19.03125 26.25 24 26.25 C 28.96875 26.25 33 22.21875 33 17.25 C 33 12.28125 28.96875 8.25 24 8.25 Z M 24 9.75 C 27.3125 9.75 30 12.4375 30 15.75 C 30 19.0625 27.3125 21.75 24 21.75 C 20.6875 21.75 18 19.0625 18 15.75 C 18 12.4375 20.6875 9.75 24 9.75 Z M 24 9.75 "/>
<path style=" stroke:none;fill-rule:nonzero;fill:rgb(96.078431%,38.039216%,38.039216%);fill-opacity:1;" d="M 30 26.25 L 30 29.25 L 18 29.25 L 18 26.25 Z M 30 26.25 "/>
</g>
</svg>
