<?xml version="1.0" encoding="UTF-8"?>
<svg xmlns="http://www.w3.org/2000/svg" xmlns:xlink="http://www.w3.org/1999/xlink" width="48pt" height="48pt" viewBox="0 0 48 48" version="1.1">
<g id="surface1">
<path style=" stroke:none;fill-rule:evenodd;fill:rgb(41.176471%,16.078431%,84.705882%);fill-opacity:1;" d="M 11.207031 2.847656 L 36.792969 2.847656 C 41.40625 2.847656 45.152344 6.59375 45.152344 11.207031 L 45.152344 36.792969 C 45.152344 41.40625 41.40625 45.152344 36.792969 45.152344 L 11.207031 45.152344 C 6.59375 45.152344 2.847656 41.40625 2.847656 36.792969 L 2.847656 11.207031 C 2.847656 6.59375 6.59375 2.847656 11.207031 2.847656 Z M 11.207031 2.847656 "/>
<path style=" stroke:none;fill-rule:evenodd;fill:rgb(41.176471%,16.078431%,84.705882%);fill-opacity:1;" d="M 10.878906 8.136719 C 9.875 8.136719 9.019531 8.6875 8.527344 9.328125 C 8.035156 9.972656 7.808594 10.730469 7.808594 11.519531 L 7.808594 28.441406 C 7.808594 29.234375 8.035156 29.988281 8.527344 30.636719 C 9.019531 31.277344 9.875 31.832031 10.878906 31.832031 L 31.285156 31.832031 C 32.292969 31.832031 33.152344 31.277344 33.640625 30.636719 C 34.128906 29.988281 34.359375 29.234375 34.359375 28.441406 L 34.359375 11.519531 C 34.359375 10.730469 34.128906 9.972656 33.640625 9.328125 C 33.152344 8.6875 32.292969 8.136719 31.285156 8.136719 Z M 10.878906 8.136719 "/>
<path style=" stroke:none;fill-rule:evenodd;fill:rgb(100%,100%,100%);fill-opacity:1;" d="M 11.832031 9.863281 C 11.3125 9.863281 10.855469 10.152344 10.566406 10.527344 C 10.28125 10.902344 10.128906 11.375 10.128906 11.886719 L 10.128906 13.207031 C 10.128906 13.222656 10.128906 13.238281 10.128906 13.253906 L 10.128906 28.808594 C 10.128906 29.316406 10.28125 29.792969 10.566406 30.167969 C 10.855469 30.542969 11.3125 30.824219 11.832031 30.824219 L 32.238281 30.824219 C 32.761719 30.824219 33.21875 30.542969 33.503906 30.167969 C 33.792969 29.792969 33.941406 29.316406 33.941406 28.808594 L 33.941406 13.269531 C 33.941406 13.265625 33.941406 13.261719 33.941406 13.253906 C 33.941406 13.234375 33.941406 13.207031 33.941406 13.1875 L 33.941406 11.886719 C 33.941406 11.375 33.792969 10.902344 33.503906 10.527344 C 33.21875 10.152344 32.761719 9.863281 32.238281 9.863281 Z M 11.832031 11.234375 L 32.238281 11.234375 C 32.28125 11.234375 32.332031 11.25 32.417969 11.355469 C 32.496094 11.464844 32.574219 11.65625 32.574219 11.886719 L 32.574219 13.253906 C 32.574219 13.441406 32.441406 13.566406 32.261719 13.566406 L 11.8125 13.566406 C 11.625 13.566406 11.5 13.441406 11.5 13.253906 L 11.5 11.886719 C 11.5 11.65625 11.578125 11.464844 11.65625 11.355469 C 11.738281 11.25 11.792969 11.234375 11.832031 11.234375 Z M 30.839844 11.527344 C 30.671875 11.527344 30.519531 11.625 30.457031 11.78125 C 30.394531 11.9375 30.433594 12.113281 30.550781 12.234375 L 30.75 12.425781 L 30.578125 12.597656 C 30.417969 12.761719 30.417969 13.019531 30.578125 13.183594 C 30.734375 13.34375 30.996094 13.34375 31.15625 13.183594 L 31.332031 13.011719 L 31.503906 13.183594 C 31.667969 13.34375 31.925781 13.34375 32.089844 13.183594 C 32.25 13.019531 32.246094 12.761719 32.082031 12.597656 L 31.910156 12.425781 L 32.082031 12.253906 C 32.234375 12.089844 32.230469 11.839844 32.074219 11.683594 C 31.917969 11.527344 31.667969 11.519531 31.503906 11.671875 L 31.332031 11.84375 L 31.136719 11.652344 C 31.058594 11.574219 30.953125 11.527344 30.839844 11.527344 Z M 11.5 14.875 C 11.605469 14.894531 11.703125 14.9375 11.8125 14.9375 L 32.261719 14.9375 C 32.371094 14.9375 32.46875 14.894531 32.574219 14.875 L 32.574219 28.808594 C 32.574219 29.035156 32.496094 29.230469 32.410156 29.332031 C 32.332031 29.441406 32.28125 29.457031 32.238281 29.457031 L 11.832031 29.457031 C 11.792969 29.457031 11.738281 29.441406 11.65625 29.332031 C 11.578125 29.230469 11.5 29.035156 11.5 28.808594 Z M 11.5 14.875 "/>
<path style=" stroke:none;fill-rule:evenodd;fill:rgb(41.176471%,16.078431%,84.705882%);fill-opacity:1;" d="M 16.714844 16.167969 C 15.707031 16.167969 14.847656 16.722656 14.359375 17.363281 C 13.871094 18.011719 13.640625 18.765625 13.640625 19.558594 L 13.640625 36.480469 C 13.640625 37.269531 13.871094 38.027344 14.359375 38.671875 C 14.847656 39.3125 15.707031 39.863281 16.714844 39.863281 L 37.121094 39.863281 C 38.125 39.863281 38.980469 39.3125 39.472656 38.671875 C 39.964844 38.027344 40.191406 37.269531 40.191406 36.480469 L 40.191406 19.558594 C 40.191406 18.765625 39.964844 18.011719 39.472656 17.363281 C 38.980469 16.722656 38.125 16.167969 37.121094 16.167969 Z M 16.714844 16.167969 "/>
<path style=" stroke:none;fill-rule:evenodd;fill:rgb(100%,100%,100%);fill-opacity:1;" d="M 16.714844 17.550781 C 16.191406 17.550781 15.746094 17.832031 15.457031 18.203125 C 15.171875 18.578125 15.019531 19.050781 15.019531 19.558594 L 15.019531 36.480469 C 15.019531 36.988281 15.171875 37.457031 15.457031 37.828125 C 15.746094 38.203125 16.191406 38.484375 16.714844 38.484375 L 37.121094 38.484375 C 37.636719 38.484375 38.089844 38.203125 38.375 37.828125 C 38.65625 37.457031 38.808594 36.988281 38.808594 36.480469 L 38.808594 19.558594 C 38.808594 19.050781 38.65625 18.578125 38.375 18.203125 C 38.089844 17.832031 37.636719 17.550781 37.121094 17.550781 Z M 16.714844 18.894531 L 37.121094 18.894531 C 37.167969 18.894531 37.222656 18.910156 37.308594 19.019531 C 37.390625 19.128906 37.464844 19.324219 37.464844 19.558594 L 37.464844 36.480469 C 37.464844 36.714844 37.390625 36.90625 37.308594 37.015625 C 37.222656 37.125 37.167969 37.140625 37.121094 37.140625 L 16.714844 37.140625 C 16.667969 37.140625 16.609375 37.125 16.527344 37.015625 C 16.441406 36.90625 16.363281 36.714844 16.363281 36.480469 L 16.363281 19.558594 C 16.363281 19.324219 16.441406 19.128906 16.527344 19.019531 C 16.609375 18.910156 16.667969 18.894531 16.714844 18.894531 Z M 16.714844 18.894531 "/>
<path style=" stroke:none;fill-rule:evenodd;fill:rgb(100%,100%,100%);fill-opacity:1;" d="M 16.691406 17.503906 C 15.78125 17.503906 15.019531 18.261719 15.019531 19.171875 L 15.019531 20.925781 C 15.019531 21.84375 15.78125 22.597656 16.691406 22.597656 L 37.140625 22.597656 C 38.050781 22.597656 38.808594 21.84375 38.808594 20.925781 L 38.808594 19.171875 C 38.808594 18.261719 38.050781 17.503906 37.140625 17.503906 Z M 16.691406 18.847656 L 37.140625 18.847656 C 37.332031 18.847656 37.464844 18.980469 37.464844 19.171875 L 37.464844 20.925781 C 37.464844 21.121094 37.332031 21.253906 37.140625 21.253906 L 16.691406 21.253906 C 16.5 21.253906 16.363281 21.121094 16.363281 20.925781 L 16.363281 19.171875 C 16.363281 18.980469 16.5 18.847656 16.691406 18.847656 Z M 16.691406 18.847656 "/>
<path style=" stroke:none;fill-rule:evenodd;fill:rgb(100%,100%,100%);fill-opacity:1;" d="M 16.714844 17.542969 C 16.191406 17.542969 15.734375 17.824219 15.449219 18.199219 C 15.160156 18.574219 15.011719 19.046875 15.011719 19.558594 L 15.011719 20.878906 C 15.011719 20.894531 15.011719 20.910156 15.011719 20.925781 L 15.011719 36.480469 C 15.011719 36.988281 15.160156 37.464844 15.449219 37.839844 C 15.734375 38.214844 16.191406 38.496094 16.714844 38.496094 L 37.121094 38.496094 C 37.640625 38.496094 38.097656 38.214844 38.386719 37.839844 C 38.671875 37.464844 38.824219 36.988281 38.824219 36.480469 L 38.824219 20.941406 C 38.824219 20.9375 38.824219 20.933594 38.824219 20.925781 C 38.824219 20.90625 38.824219 20.878906 38.824219 20.859375 L 38.824219 19.558594 C 38.824219 19.046875 38.671875 18.574219 38.386719 18.199219 C 38.097656 17.824219 37.640625 17.542969 37.121094 17.542969 Z M 16.714844 18.90625 L 37.121094 18.90625 C 37.160156 18.90625 37.214844 18.921875 37.296875 19.027344 C 37.375 19.136719 37.453125 19.328125 37.453125 19.558594 L 37.453125 20.925781 C 37.453125 21.113281 37.324219 21.238281 37.140625 21.238281 L 16.691406 21.238281 C 16.511719 21.238281 16.378906 21.113281 16.378906 20.925781 L 16.378906 19.558594 C 16.378906 19.328125 16.457031 19.136719 16.535156 19.027344 C 16.621094 18.921875 16.671875 18.90625 16.714844 18.90625 Z M 35.714844 19.253906 C 35.5625 19.269531 35.4375 19.371094 35.390625 19.515625 C 35.339844 19.65625 35.375 19.8125 35.484375 19.917969 L 35.667969 20.097656 L 35.503906 20.265625 C 35.394531 20.359375 35.34375 20.503906 35.378906 20.644531 C 35.410156 20.792969 35.519531 20.902344 35.660156 20.933594 C 35.808594 20.96875 35.953125 20.917969 36.046875 20.808594 L 36.207031 20.640625 L 36.375 20.808594 C 36.46875 20.910156 36.613281 20.953125 36.75 20.921875 C 36.890625 20.886719 36.996094 20.78125 37.03125 20.640625 C 37.066406 20.503906 37.027344 20.359375 36.921875 20.265625 L 36.753906 20.097656 L 36.921875 19.9375 C 37.074219 19.785156 37.074219 19.542969 36.921875 19.390625 C 36.769531 19.238281 36.527344 19.238281 36.375 19.390625 L 36.207031 19.558594 L 36.027344 19.371094 C 35.953125 19.296875 35.855469 19.253906 35.75 19.253906 C 35.738281 19.253906 35.722656 19.253906 35.714844 19.253906 Z M 16.378906 22.546875 C 16.484375 22.566406 16.582031 22.609375 16.691406 22.609375 L 37.140625 22.609375 C 37.25 22.609375 37.347656 22.566406 37.453125 22.546875 L 37.453125 36.480469 C 37.453125 36.707031 37.375 36.902344 37.296875 37.011719 C 37.214844 37.113281 37.160156 37.128906 37.121094 37.128906 L 16.714844 37.128906 C 16.671875 37.128906 16.621094 37.113281 16.535156 37.011719 C 16.457031 36.902344 16.378906 36.707031 16.378906 36.480469 Z M 27.238281 23.894531 C 27.011719 23.894531 26.824219 23.96875 26.675781 24.113281 C 26.53125 24.265625 26.453125 24.453125 26.453125 24.675781 L 26.453125 30.746094 C 26.453125 30.972656 26.53125 31.15625 26.675781 31.296875 C 26.824219 31.433594 27.015625 31.503906 27.238281 31.503906 C 27.46875 31.503906 27.652344 31.425781 27.796875 31.28125 C 27.941406 31.136719 28.015625 30.957031 28.015625 30.746094 L 28.015625 28.066406 L 30.714844 31.015625 C 30.886719 31.191406 31.019531 31.316406 31.128906 31.390625 C 31.246094 31.46875 31.371094 31.503906 31.503906 31.503906 C 31.734375 31.503906 31.925781 31.441406 32.082031 31.324219 C 32.238281 31.199219 32.316406 31.015625 32.316406 30.777344 C 32.316406 30.625 32.277344 30.488281 32.199219 30.371094 C 32.125 30.246094 32.015625 30.113281 31.878906 29.984375 L 29.472656 27.449219 L 31.441406 25.488281 C 31.621094 25.3125 31.753906 25.160156 31.832031 25.035156 C 31.917969 24.910156 31.953125 24.785156 31.953125 24.65625 C 31.953125 24.425781 31.878906 24.246094 31.722656 24.109375 C 31.566406 23.964844 31.390625 23.894531 31.183594 23.894531 C 30.957031 23.894531 30.753906 23.996094 30.578125 24.191406 L 28.015625 26.941406 L 28.015625 24.675781 C 28.015625 24.433594 27.941406 24.238281 27.796875 24.105469 C 27.65625 23.964844 27.46875 23.894531 27.238281 23.894531 Z M 23.871094 25.097656 L 22.847656 25.9375 L 23.777344 27.511719 L 23.25 28.796875 L 21.449219 29.097656 L 21.441406 30.464844 L 23.300781 30.941406 L 23.808594 32.191406 L 22.628906 33.703125 L 23.628906 34.75 L 25.25 33.65625 L 26.535156 34.230469 L 26.964844 36.105469 L 28.34375 36.089844 L 28.722656 34.160156 L 30.011719 33.652344 L 31.628906 34.703125 L 32.390625 33.652344 L 30.550781 31.921875 C 25.84375 36.238281 21.777344 29.582031 25.824219 26.796875 L 25.824219 25.796875 L 25.34375 26.035156 Z M 23.871094 25.097656 "/>
</g>
</svg>
