<?xml version="1.0" encoding="UTF-8"?>
<svg xmlns="http://www.w3.org/2000/svg" xmlns:xlink="http://www.w3.org/1999/xlink" width="48pt" height="48pt" viewBox="0 0 48 48" version="1.1">
<g id="surface1">
<path style=" stroke:none;fill-rule:evenodd;fill:rgb(80%,80%,80%);fill-opacity:1;" d="M 11.207031 2.847656 L 36.792969 2.847656 C 41.40625 2.847656 45.152344 6.59375 45.152344 11.207031 L 45.152344 36.792969 C 45.152344 41.40625 41.40625 45.152344 36.792969 45.152344 L 11.207031 45.152344 C 6.59375 45.152344 2.847656 41.40625 2.847656 36.792969 L 2.847656 11.207031 C 2.847656 6.59375 6.59375 2.847656 11.207031 2.847656 Z M 11.207031 2.847656 "/>
<path style=" stroke:none;fill-rule:nonzero;fill:rgb(40%,40%,40%);fill-opacity:1;" d="M 9.457031 11.355469 L 9.457031 12.855469 L 21.457031 12.855469 L 21.457031 11.355469 Z M 9.457031 14.355469 L 9.457031 15.855469 L 15.457031 15.855469 L 15.457031 14.355469 Z M 9.457031 17.355469 L 9.457031 18.855469 L 16.957031 18.855469 L 16.957031 17.355469 Z M 9.457031 20.355469 L 9.457031 21.855469 L 12.457031 21.855469 L 12.457031 20.355469 Z M 9.457031 23.355469 L 9.457031 24.855469 L 16.957031 24.855469 L 16.957031 23.355469 Z M 9.457031 23.355469 "/>
</g>
</svg>
