<?xml version="1.0" encoding="UTF-8"?>
<svg xmlns="http://www.w3.org/2000/svg" xmlns:xlink="http://www.w3.org/1999/xlink" width="48pt" height="48pt" viewBox="0 0 48 48" version="1.1">
<g id="surface1">
<path style=" stroke:none;fill-rule:evenodd;fill:rgb(82.352941%,63.921569%,36.078431%);fill-opacity:1;" d="M 11.207031 2.847656 L 36.792969 2.847656 C 41.40625 2.847656 45.152344 6.59375 45.152344 11.207031 L 45.152344 36.792969 C 45.152344 41.40625 41.40625 45.152344 36.792969 45.152344 L 11.207031 45.152344 C 6.59375 45.152344 2.847656 41.40625 2.847656 36.792969 L 2.847656 11.207031 C 2.847656 6.59375 6.59375 2.847656 11.207031 2.847656 Z M 11.207031 2.847656 "/>
<path style=" stroke:none;fill-rule:nonzero;fill:rgb(100%,100%,100%);fill-opacity:1;" d="M 34.890625 7.125 C 33.636719 7.125 32.425781 7.457031 31.269531 8.125 C 30.136719 8.761719 29.0625 9.699219 28.058594 10.921875 C 27.078125 12.125 26.183594 13.609375 25.375 15.375 C 24.574219 17.113281 23.878906 19.082031 23.300781 21.28125 C 22.902344 22.84375 22.496094 24.160156 22.09375 25.234375 C 21.6875 26.308594 21.277344 27.203125 20.847656 27.917969 C 19.917969 27.5625 18.996094 26.480469 18.089844 26.25 C 17.207031 25.996094 16.300781 25.871094 15.371094 25.871094 C 14.640625 25.871094 13.972656 25.984375 13.371094 26.214844 C 12.792969 26.441406 12.292969 26.722656 11.863281 27.058594 C 11.433594 27.390625 11.09375 27.746094 10.84375 28.128906 C 10.613281 28.515625 10.5 29.660156 10.5 29.996094 C 10.5 30.53125 10.75 30.980469 11.253906 31.339844 C 11.761719 31.699219 12.515625 31.875 13.519531 31.875 C 16.191406 31.875 18.441406 31.171875 20.28125 29.765625 C 21.441406 30.277344 22.621094 30.761719 23.828125 31.21875 C 25.0625 31.65625 26.421875 31.875 27.90625 31.875 C 29.59375 31.875 30.941406 31.515625 31.949219 30.800781 C 32.953125 30.058594 33.53125 29.113281 34.136719 27.730469 C 34.160156 27.578125 34.128906 27.472656 34.027344 27.421875 C 33.953125 27.347656 33.863281 27.347656 33.761719 27.421875 C 33.332031 28.292969 33.019531 28.84375 32.363281 29.300781 C 31.707031 29.765625 30.75 29.996094 29.496094 29.996094 C 27.984375 29.996094 26.597656 29.828125 25.34375 29.496094 C 24.109375 29.136719 22.921875 28.738281 21.792969 28.308594 C 23.355469 26.4375 24.574219 23.792969 25.457031 20.363281 C 25.984375 18.214844 26.5 16.425781 27.003906 14.996094 C 27.503906 13.5625 28.046875 12.421875 28.625 11.578125 C 29.203125 10.707031 29.839844 10.21875 30.515625 9.886719 C 31.21875 9.527344 32.046875 9.355469 33.003906 9.355469 C 33.707031 9.355469 34.285156 9.484375 34.738281 9.734375 C 35.21875 9.96875 35.574219 10.269531 35.796875 10.65625 C 36.027344 11.042969 36.152344 11.347656 36.175781 11.8125 C 36.203125 12.269531 36.140625 13.175781 35.988281 13.640625 C 35.964844 13.765625 36 13.859375 36.097656 13.90625 C 36.222656 13.964844 36.34375 13.949219 36.441406 13.871094 C 36.691406 13.4375 36.933594 12.4375 37.15625 11.769531 C 37.386719 11.078125 37.5 10.472656 37.5 9.964844 C 37.5 9.171875 37.253906 8.503906 36.78125 7.96875 C 36.300781 7.40625 35.671875 7.125 34.890625 7.125 Z M 13.707031 27.136719 C 14.792969 27.136719 15.8125 27.285156 16.769531 27.59375 C 17.722656 27.902344 18.671875 29.050781 19.605469 29.457031 C 19.027344 30.019531 18.363281 30.402344 17.636719 30.609375 C 16.933594 30.785156 16.128906 30.875 15.222656 30.875 C 14.191406 30.875 13.378906 30.714844 12.800781 30.378906 C 12.25 30.046875 11.972656 28.839844 11.972656 28.328125 C 11.972656 27.53125 12.550781 27.136719 13.707031 27.136719 Z M 17.25 33.375 C 16.003906 33.375 15 34.378906 15 35.625 C 15 36.863281 16.003906 37.875 17.25 37.875 C 18.496094 37.875 19.5 36.863281 19.5 35.625 C 19.5 34.378906 18.496094 33.375 17.25 33.375 Z M 29.25 33.375 C 28.003906 33.375 27 34.378906 27 35.625 C 27 36.863281 28.003906 37.875 29.25 37.875 C 30.496094 37.875 31.5 36.863281 31.5 35.625 C 31.5 34.378906 30.496094 33.375 29.25 33.375 Z M 23.25 36.375 C 22.003906 36.375 21 37.378906 21 38.625 C 21 39.863281 22.003906 40.875 23.25 40.875 C 24.496094 40.875 25.5 39.863281 25.5 38.625 C 25.5 37.378906 24.496094 36.375 23.25 36.375 Z M 23.25 36.375 "/>
</g>
</svg>
