<?xml version="1.0" encoding="UTF-8"?>
<svg xmlns="http://www.w3.org/2000/svg" xmlns:xlink="http://www.w3.org/1999/xlink" width="48pt" height="48pt" viewBox="0 0 48 48" version="1.1">
<g id="surface1">
<path style=" stroke:none;fill-rule:evenodd;fill:rgb(46.27451%,61.960784%,86.27451%);fill-opacity:1;" d="M 11.207031 2.847656 L 36.792969 2.847656 C 41.40625 2.847656 45.152344 6.59375 45.152344 11.207031 L 45.152344 36.792969 C 45.152344 41.40625 41.40625 45.152344 36.792969 45.152344 L 11.207031 45.152344 C 6.59375 45.152344 2.847656 41.40625 2.847656 36.792969 L 2.847656 11.207031 C 2.847656 6.59375 6.59375 2.847656 11.207031 2.847656 Z M 11.207031 2.847656 "/>
<path style=" stroke:none;fill-rule:nonzero;fill:rgb(19.215686%,19.215686%,19.215686%);fill-opacity:1;" d="M 25.019531 11.25 C 24.859375 11.25 24.890625 11.878906 25.058594 12.019531 C 25.25 12.183594 25.53125 12.75 25.613281 13.136719 L 25.675781 13.441406 L 25.152344 13.550781 C 23.902344 13.816406 23.660156 14.675781 24.46875 15.984375 C 24.75 16.441406 24.75 16.457031 24.699219 17.449219 C 24.65625 18.191406 24.675781 18.574219 24.78125 18.925781 C 24.941406 19.484375 25.394531 19.988281 25.863281 20.152344 C 26.386719 20.332031 27.800781 20.25 28.328125 20.003906 C 28.90625 19.746094 29.65625 18.964844 29.863281 18.40625 C 30.109375 17.75 30.015625 16.84375 29.625 16.050781 C 29.246094 15.292969 28.261719 14.253906 27.578125 13.90625 C 27.21875 13.71875 27.046875 13.558594 26.925781 13.292969 C 26.753906 12.910156 25.203125 11.25 25.019531 11.25 Z M 16.058594 14.25 C 16.035156 14.25 16.019531 14.253906 16 14.269531 C 15.8125 14.464844 15.660156 15.449219 15.675781 16.371094 C 15.691406 17.238281 15.671875 17.421875 15.5 17.707031 C 14.925781 18.675781 14.828125 20.441406 15.296875 21.441406 C 15.707031 22.332031 16.386719 22.875 17.425781 23.128906 C 18.152344 23.3125 18.640625 23.285156 19.324219 23.035156 C 21.199219 22.355469 21.527344 21.015625 20.175781 19.503906 C 19.628906 18.890625 19.375 18.390625 19.375 17.9375 C 19.375 17.386719 19.171875 16.847656 18.832031 16.484375 C 18.527344 16.15625 18.511719 16.15625 17.925781 16.207031 C 17.597656 16.234375 17.214844 16.285156 17.066406 16.324219 C 16.828125 16.386719 16.792969 16.355469 16.621094 15.96875 C 16.515625 15.738281 16.433594 15.355469 16.425781 15.109375 C 16.425781 14.730469 16.207031 14.265625 16.058594 14.25 Z M 35.121094 15.753906 C 34.886719 15.707031 34.8125 16.253906 35 16.652344 C 35.089844 16.832031 35.144531 17.144531 35.128906 17.34375 L 35.097656 17.703125 L 34.59375 17.707031 C 34.203125 17.71875 34.015625 17.78125 33.746094 17.988281 C 33.421875 18.234375 32.933594 19.058594 32.933594 19.359375 C 32.933594 19.425781 32.636719 20.074219 32.269531 20.800781 C 31.90625 21.527344 31.578125 22.265625 31.542969 22.441406 C 31.332031 23.386719 31.90625 24.089844 33.269531 24.578125 C 33.84375 24.785156 34.449219 24.800781 35.097656 24.628906 C 36.160156 24.347656 36.84375 23.8125 37.253906 22.9375 C 37.472656 22.472656 37.503906 22.285156 37.5 21.449219 C 37.496094 20.359375 37.285156 19.671875 36.730469 18.890625 C 36.558594 18.644531 36.34375 18.171875 36.261719 17.832031 C 36.082031 17.144531 35.347656 15.796875 35.121094 15.753906 Z M 10.621094 23.253906 C 10.59375 23.246094 10.578125 23.25 10.5625 23.265625 C 10.371094 23.472656 10.660156 25.515625 10.957031 26.003906 C 11.03125 26.125 11.136719 26.53125 11.191406 26.910156 C 11.441406 28.621094 12.640625 30.21875 13.996094 30.667969 C 14.457031 30.816406 15.464844 30.761719 16.113281 30.546875 C 16.652344 30.371094 16.828125 30.25 17.234375 29.796875 C 18.078125 28.847656 18.230469 27.910156 17.667969 27.15625 C 17.515625 26.953125 17.058594 26.578125 16.652344 26.324219 C 16.246094 26.066406 15.535156 25.589844 15.074219 25.269531 C 13.734375 24.324219 13.589844 24.234375 13.21875 24.125 C 12.75 23.984375 12.269531 24.136719 11.878906 24.542969 L 11.574219 24.859375 L 11.386719 24.519531 C 11.277344 24.332031 11.191406 24.089844 11.191406 23.972656 C 11.191406 23.769531 10.792969 23.292969 10.621094 23.253906 Z M 27.753906 24.75 C 27.167969 24.753906 26.484375 24.847656 25.699219 25.035156 C 23.480469 25.574219 22.425781 26.214844 21.953125 27.3125 C 21.746094 27.792969 21.730469 27.953125 21.785156 28.871094 C 21.84375 29.796875 21.828125 29.933594 21.609375 30.394531 C 21.386719 30.863281 21.128906 31.128906 19.957031 32.121094 C 19.589844 32.433594 19.550781 32.503906 19.511719 33.078125 C 19.472656 33.613281 19.511719 33.792969 19.78125 34.363281 C 20.355469 35.582031 21.394531 36.40625 22.699219 36.660156 C 23.3125 36.78125 23.71875 36.78125 24.777344 36.660156 C 28.886719 36.203125 33.609375 34.722656 34.957031 33.46875 C 35.667969 32.8125 35.949219 32.207031 35.996094 31.25 C 36.082031 29.417969 35.253906 28.316406 33.785156 28.308594 C 32.628906 28.308594 31.46875 27.636719 30.996094 26.699219 C 30.640625 26.003906 29.925781 25.3125 29.261719 25.019531 C 28.84375 24.839844 28.34375 24.746094 27.753906 24.75 Z M 27.753906 24.75 "/>
</g>
</svg>
