<?xml version="1.0" encoding="UTF-8"?>
<svg xmlns="http://www.w3.org/2000/svg" xmlns:xlink="http://www.w3.org/1999/xlink" width="48pt" height="48pt" viewBox="0 0 48 48" version="1.1">
<g id="surface1">
<path style=" stroke:none;fill-rule:evenodd;fill:rgb(89.411765%,59.607843%,8.235294%);fill-opacity:1;" d="M 45.152344 19.503906 C 44.84375 19.347656 44.578125 19.121094 44.207031 19.121094 L 3.792969 19.121094 C 3.421875 19.121094 3.15625 19.347656 2.847656 19.503906 L 2.847656 36.792969 C 2.847656 41.421875 6.578125 45.15625 11.207031 45.15625 L 36.792969 45.15625 C 41.421875 45.15625 45.152344 41.421875 45.152344 36.792969 Z M 45.152344 19.503906 "/>
<path style=" stroke:none;fill-rule:evenodd;fill:rgb(94.901961%,71.764706%,25.098039%);fill-opacity:1;" d="M 41.402344 19.121094 C 41.464844 18.925781 41.640625 18.792969 41.640625 18.582031 L 41.640625 16.449219 C 41.640625 15.855469 41.386719 15.324219 40.96875 14.933594 C 40.550781 14.546875 39.984375 14.3125 39.347656 14.3125 L 27.894531 14.3125 C 27.261719 14.3125 26.6875 14.546875 26.269531 14.933594 C 25.859375 15.324219 25.605469 15.855469 25.605469 16.449219 L 25.605469 18.582031 C 25.605469 18.792969 25.78125 18.925781 25.839844 19.121094 Z M 41.402344 19.121094 "/>
<path style=" stroke:none;fill-rule:evenodd;fill:rgb(94.901961%,71.764706%,25.098039%);fill-opacity:1;" d="M 22.160156 19.121094 C 22.21875 18.925781 22.394531 18.792969 22.394531 18.582031 L 22.394531 16.449219 C 22.394531 15.855469 22.140625 15.324219 21.730469 14.933594 C 21.3125 14.546875 20.738281 14.3125 20.105469 14.3125 L 8.652344 14.3125 C 8.015625 14.3125 7.449219 14.546875 7.03125 14.933594 C 6.613281 15.324219 6.359375 15.855469 6.359375 16.449219 L 6.359375 18.582031 C 6.359375 18.792969 6.535156 18.925781 6.597656 19.121094 Z M 22.160156 19.121094 "/>
<path style=" stroke:none;fill-rule:evenodd;fill:rgb(55.686275%,55.686275%,55.686275%);fill-opacity:1;" d="M 11.207031 2.84375 C 6.578125 2.84375 2.847656 6.578125 2.847656 11.207031 L 2.847656 19.503906 C 3.15625 19.347656 3.421875 19.121094 3.792969 19.121094 L 6.597656 19.121094 C 6.535156 18.925781 6.359375 18.792969 6.359375 18.582031 L 6.359375 16.449219 C 6.359375 15.855469 6.613281 15.324219 7.03125 14.933594 C 7.449219 14.546875 8.015625 14.3125 8.652344 14.3125 L 20.105469 14.3125 C 20.738281 14.3125 21.3125 14.546875 21.722656 14.933594 C 22.140625 15.324219 22.394531 15.855469 22.394531 16.449219 L 22.394531 18.582031 C 22.394531 18.792969 22.21875 18.925781 22.160156 19.121094 L 25.839844 19.121094 C 25.78125 18.925781 25.605469 18.792969 25.605469 18.582031 L 25.605469 16.449219 C 25.605469 15.855469 25.859375 15.324219 26.269531 14.933594 C 26.6875 14.546875 27.261719 14.3125 27.894531 14.3125 L 39.347656 14.3125 C 39.984375 14.3125 40.558594 14.546875 40.96875 14.933594 C 41.386719 15.324219 41.640625 15.855469 41.640625 16.449219 L 41.640625 18.582031 C 41.640625 18.792969 41.464844 18.925781 41.402344 19.121094 L 44.207031 19.121094 C 44.578125 19.121094 44.84375 19.347656 45.152344 19.503906 L 45.152344 11.207031 C 45.152344 6.578125 41.421875 2.84375 36.792969 2.84375 Z M 11.207031 2.84375 "/>
</g>
</svg>
