<?xml version="1.0" encoding="UTF-8"?>
<svg xmlns="http://www.w3.org/2000/svg" xmlns:xlink="http://www.w3.org/1999/xlink" width="48pt" height="48pt" viewBox="0 0 48 48" version="1.1">
<g id="surface1">
<path style=" stroke:none;fill-rule:evenodd;fill:rgb(99.607843%,75.294118%,2.352941%);fill-opacity:1;" d="M 45.152344 18.332031 L 45.152344 11.207031 C 45.152344 6.578125 41.421875 2.847656 36.792969 2.847656 L 29.667969 2.847656 Z M 45.152344 18.332031 "/>
<path style=" stroke:none;fill-rule:evenodd;fill:rgb(99.607843%,75.294118%,2.352941%);fill-opacity:1;" d="M 27.167969 2.847656 L 11.214844 2.847656 C 6.578125 2.847656 2.847656 6.578125 2.847656 11.207031 L 2.847656 36.785156 C 2.847656 41.421875 6.578125 45.152344 11.214844 45.152344 L 36.792969 45.152344 C 41.421875 45.152344 45.152344 41.421875 45.152344 36.785156 L 45.152344 20.832031 Z M 27.167969 2.847656 "/>
<path style=" stroke:none;fill-rule:evenodd;fill:rgb(100%,100%,100%);fill-opacity:1;" d="M 27.167969 2.847656 L 45.152344 20.832031 L 45.152344 18.332031 L 29.667969 2.847656 Z M 27.167969 2.847656 "/>
<path style=" stroke:none;fill-rule:nonzero;fill:rgb(100%,100%,100%);fill-opacity:1;" d="M 33.058594 18.292969 C 32.488281 18.105469 31.796875 18 31.144531 18.363281 C 30.0625 18.96875 29.675781 20.171875 29.675781 21.265625 C 29.671875 22.355469 29.949219 23.496094 30.199219 24.589844 C 30.449219 25.675781 30.671875 26.730469 30.660156 27.472656 C 30.65625 28.21875 30.546875 28.5 30.097656 28.722656 C 29.738281 28.90625 29.515625 28.921875 29.285156 28.875 C 29.058594 28.828125 28.785156 28.691406 28.480469 28.421875 C 27.855469 27.886719 27.128906 26.859375 26.316406 25.765625 C 25.5 24.667969 24.574219 23.484375 23.328125 22.644531 C 22.078125 21.800781 20.457031 21.359375 18.589844 21.78125 L 18.574219 21.785156 L 18.550781 21.792969 C 17.339844 22.121094 16.4375 23.042969 15.808594 24.171875 C 15.175781 25.296875 14.785156 26.671875 14.59375 28.128906 C 14.566406 28.359375 14.621094 28.605469 14.605469 28.839844 C 14.175781 28.808594 13.824219 28.660156 13.394531 28.652344 L 11.3125 28.605469 L 10.410156 28.589844 L 10.375 30.386719 L 11.269531 30.402344 L 13.355469 30.449219 C 13.8125 30.453125 14.171875 30.597656 14.621094 30.636719 C 14.671875 32.800781 15.011719 34.953125 16.042969 36.613281 L 16.058594 36.644531 L 16.078125 36.671875 C 17.675781 38.859375 20.402344 39.496094 22.425781 38.714844 C 23.4375 38.324219 24.308594 37.488281 24.574219 36.34375 C 24.84375 35.191406 24.515625 33.855469 23.582031 32.417969 C 22.691406 31.035156 21.160156 30.144531 19.375 29.5625 C 18.484375 29.269531 17.394531 29.261719 16.390625 29.109375 C 16.40625 28.859375 16.34375 28.605469 16.375 28.359375 C 16.542969 27.078125 16.894531 25.902344 17.375 25.046875 C 17.847656 24.191406 18.410156 23.699219 19.015625 23.535156 C 20.417969 23.222656 21.402344 23.511719 22.324219 24.136719 C 23.253906 24.761719 24.089844 25.769531 24.875 26.832031 C 25.660156 27.890625 26.386719 28.988281 27.308594 29.78125 C 27.769531 30.183594 28.300781 30.511719 28.933594 30.636719 C 29.5625 30.761719 30.261719 30.65625 30.90625 30.332031 C 32.019531 29.769531 32.449219 28.578125 32.457031 27.496094 C 32.46875 26.40625 32.199219 25.28125 31.949219 24.183594 C 31.699219 23.089844 31.46875 22.03125 31.46875 21.265625 C 31.46875 20.496094 31.589844 20.171875 32.027344 19.933594 C 32.03125 19.925781 32.171875 19.890625 32.488281 19.996094 C 32.800781 20.097656 33.214844 20.328125 33.597656 20.589844 C 34.371094 21.113281 35.015625 21.738281 35.015625 21.738281 L 35.65625 22.363281 L 36.910156 21.078125 L 36.265625 20.453125 C 36.265625 20.453125 35.542969 19.738281 34.609375 19.105469 C 34.140625 18.785156 33.625 18.484375 33.058594 18.292969 Z M 16.417969 30.90625 C 17.21875 31.035156 18.136719 31.046875 18.816406 31.269531 C 20.371094 31.777344 21.515625 32.519531 22.078125 33.390625 C 22.839844 34.566406 22.949219 35.40625 22.824219 35.9375 C 22.703125 36.464844 22.359375 36.8125 21.777344 37.035156 C 20.621094 37.484375 18.660156 37.121094 17.558594 35.628906 C 16.828125 34.441406 16.515625 32.699219 16.417969 30.90625 Z M 16.417969 30.90625 "/>
</g>
</svg>
