<?xml version="1.0" encoding="UTF-8"?>
<svg xmlns="http://www.w3.org/2000/svg" xmlns:xlink="http://www.w3.org/1999/xlink" width="48pt" height="48pt" viewBox="0 0 48 48" version="1.1">
<g id="surface1">
<path style=" stroke:none;fill-rule:evenodd;fill:rgb(90.980392%,11.372549%,38.431373%);fill-opacity:1;" d="M 45.152344 18.332031 L 45.152344 11.207031 C 45.152344 6.578125 41.421875 2.847656 36.792969 2.847656 L 29.667969 2.847656 Z M 45.152344 18.332031 "/>
<path style=" stroke:none;fill-rule:evenodd;fill:rgb(90.980392%,11.372549%,38.431373%);fill-opacity:1;" d="M 27.167969 2.847656 L 11.214844 2.847656 C 6.578125 2.847656 2.847656 6.578125 2.847656 11.207031 L 2.847656 36.785156 C 2.847656 41.421875 6.578125 45.152344 11.214844 45.152344 L 36.792969 45.152344 C 41.421875 45.152344 45.152344 41.421875 45.152344 36.785156 L 45.152344 20.832031 Z M 27.167969 2.847656 "/>
<path style=" stroke:none;fill-rule:evenodd;fill:rgb(100%,100%,100%);fill-opacity:1;" d="M 27.167969 2.847656 L 45.152344 20.832031 L 45.152344 18.332031 L 29.667969 2.847656 Z M 27.167969 2.847656 "/>
<path style=" stroke:none;fill-rule:nonzero;fill:rgb(100%,100%,100%);fill-opacity:1;" d="M 24.140625 14.265625 C 19.160156 14.265625 14.902344 15.613281 13.140625 17.519531 C 12.988281 17.683594 12.859375 17.84375 12.75 18.011719 C 12.640625 18.171875 12.550781 18.332031 12.480469 18.496094 C 12.464844 18.546875 12.449219 18.597656 12.433594 18.652344 C 12.390625 18.761719 12.34375 18.875 12.324219 18.988281 C 12.285156 19.152344 12.265625 19.3125 12.265625 19.472656 C 12.265625 19.640625 12.285156 19.8125 12.324219 19.980469 C 12.359375 20.140625 12.417969 20.308594 12.484375 20.46875 C 12.5625 20.628906 12.652344 20.792969 12.761719 20.953125 C 12.871094 21.113281 12.996094 21.269531 13.140625 21.425781 C 14.953125 23.390625 19.300781 24.675781 24.140625 24.675781 C 28.980469 24.675781 33.328125 23.390625 35.140625 21.425781 C 35.140625 21.421875 35.144531 21.421875 35.144531 21.421875 C 35.265625 21.285156 35.371094 21.15625 35.46875 21.015625 C 35.484375 20.988281 35.511719 20.964844 35.527344 20.9375 C 35.597656 20.824219 35.667969 20.707031 35.722656 20.59375 C 35.75 20.542969 35.785156 20.484375 35.808594 20.433594 C 35.847656 20.332031 35.878906 20.238281 35.90625 20.140625 C 35.925781 20.0625 35.953125 19.988281 35.96875 19.910156 C 36 19.765625 36.015625 19.621094 36.015625 19.472656 C 36.015625 19.300781 35.996094 19.125 35.953125 18.953125 C 35.84375 18.449219 35.5625 17.96875 35.144531 17.515625 C 33.378906 15.609375 29.125 14.265625 24.144531 14.265625 Z M 13.140625 24.027344 C 12.5625 24.644531 12.265625 25.308594 12.265625 25.980469 C 12.265625 28.855469 17.582031 31.183594 24.140625 31.183594 C 30.703125 31.183594 36.019531 28.855469 36.015625 25.980469 C 36.015625 25.308594 35.71875 24.644531 35.144531 24.027344 C 33.328125 25.988281 28.980469 27.277344 24.140625 27.28125 C 19.308594 27.277344 14.953125 25.988281 13.140625 24.027344 Z M 13.140625 30.53125 C 12.5625 31.152344 12.265625 31.8125 12.265625 32.484375 C 12.265625 35.359375 17.582031 37.6875 24.140625 37.6875 C 30.699219 37.6875 36.015625 35.359375 36.015625 32.484375 C 36.015625 31.8125 35.71875 31.152344 35.140625 30.53125 C 33.328125 32.5 28.980469 33.785156 24.140625 33.785156 C 19.300781 33.785156 14.953125 32.5 13.140625 30.53125 Z M 13.140625 30.53125 "/>
</g>
</svg>
