<?xml version="1.0" encoding="UTF-8"?>
<svg xmlns="http://www.w3.org/2000/svg" xmlns:xlink="http://www.w3.org/1999/xlink" width="48pt" height="48pt" viewBox="0 0 48 48" version="1.1">
<g id="surface1">
<path style=" stroke:none;fill-rule:evenodd;fill:rgb(100%,34.117647%,13.333333%);fill-opacity:1;" d="M 45.152344 18.332031 L 45.152344 11.207031 C 45.152344 6.578125 41.421875 2.847656 36.792969 2.847656 L 29.667969 2.847656 Z M 45.152344 18.332031 "/>
<path style=" stroke:none;fill-rule:evenodd;fill:rgb(100%,34.117647%,13.333333%);fill-opacity:1;" d="M 27.167969 2.847656 L 11.214844 2.847656 C 6.578125 2.847656 2.847656 6.578125 2.847656 11.207031 L 2.847656 36.785156 C 2.847656 41.421875 6.578125 45.152344 11.214844 45.152344 L 36.792969 45.152344 C 41.421875 45.152344 45.152344 41.421875 45.152344 36.785156 L 45.152344 20.832031 Z M 27.167969 2.847656 "/>
<path style=" stroke:none;fill-rule:evenodd;fill:rgb(100%,100%,100%);fill-opacity:1;" d="M 27.167969 2.847656 L 45.152344 20.832031 L 45.152344 18.332031 L 29.667969 2.847656 Z M 27.167969 2.847656 "/>
<path style=" stroke:none;fill-rule:nonzero;fill:rgb(100%,100%,100%);fill-opacity:1;" d="M 16.089844 19.296875 C 14.269531 19.296875 12.589844 20.265625 11.683594 21.839844 C 10.777344 23.410156 10.777344 25.347656 11.683594 26.921875 C 12.355469 28.082031 13.457031 28.933594 14.761719 29.285156 C 14.894531 29.324219 15.042969 29.355469 15.183594 29.378906 C 15.28125 29.402344 15.375 29.417969 15.472656 29.425781 C 15.519531 29.433594 15.5625 29.4375 15.609375 29.441406 C 16.675781 29.5625 17.753906 29.332031 18.6875 28.796875 C 20.261719 27.890625 21.234375 26.214844 21.234375 24.394531 L 16.089844 24.394531 Z M 16.089844 19.296875 "/>
<path style=" stroke:none;fill-rule:nonzero;fill:rgb(100%,100%,100%);fill-opacity:1;" d="M 24.90625 20.472656 L 36.015625 20.472656 C 36.558594 20.472656 36.996094 20.910156 36.996094 21.453125 C 36.996094 21.996094 36.558594 22.4375 36.015625 22.4375 L 24.90625 22.4375 C 24.363281 22.4375 23.925781 21.996094 23.925781 21.453125 C 23.925781 20.910156 24.363281 20.472656 24.90625 20.472656 Z M 24.90625 20.472656 "/>
<path style=" stroke:none;fill-rule:nonzero;fill:rgb(100%,100%,100%);fill-opacity:1;" d="M 24.90625 26.355469 L 36.015625 26.355469 C 36.558594 26.355469 36.996094 26.792969 36.996094 27.332031 C 36.996094 27.875 36.558594 28.3125 36.015625 28.3125 L 24.90625 28.3125 C 24.363281 28.3125 23.925781 27.875 23.925781 27.332031 C 23.925781 26.792969 24.363281 26.355469 24.90625 26.355469 Z M 24.90625 26.355469 "/>
<path style=" stroke:none;fill-rule:nonzero;fill:rgb(100%,100%,100%);fill-opacity:1;" d="M 13.152344 32.234375 L 30.796875 32.234375 C 31.339844 32.234375 31.777344 32.671875 31.777344 33.214844 C 31.777344 33.753906 31.339844 34.191406 30.796875 34.191406 L 13.152344 34.191406 C 12.609375 34.191406 12.167969 33.753906 12.167969 33.214844 C 12.167969 32.671875 12.609375 32.234375 13.152344 32.234375 Z M 13.152344 32.234375 "/>
</g>
</svg>
