<?xml version="1.0" encoding="UTF-8"?>
<svg xmlns="http://www.w3.org/2000/svg" xmlns:xlink="http://www.w3.org/1999/xlink" width="48pt" height="48pt" viewBox="0 0 48 48" version="1.1">
<g id="surface1">
<path style=" stroke:none;fill-rule:evenodd;fill:rgb(12.156863%,56.078431%,84.313725%);fill-opacity:1;" d="M 24 24 L 1.828125 24 L 1.828125 37.40625 C 1.828125 42.265625 5.734375 46.171875 10.59375 46.171875 L 24 46.171875 Z M 24 24 "/>
<path style=" stroke:none;fill-rule:evenodd;fill:rgb(17.647059%,29.019608%,36.470588%);fill-opacity:1;" d="M 24 24 L 24 46.171875 L 37.40625 46.171875 C 42.265625 46.171875 46.171875 42.265625 46.171875 37.40625 L 46.171875 24 Z M 24 24 "/>
<path style=" stroke:none;fill-rule:evenodd;fill:rgb(17.647059%,29.019608%,36.470588%);fill-opacity:1;" d="M 10.59375 1.828125 C 5.734375 1.828125 1.828125 5.734375 1.828125 10.59375 L 1.828125 24 L 24 24 L 24 1.828125 Z M 10.59375 1.828125 "/>
<path style=" stroke:none;fill-rule:evenodd;fill:rgb(12.156863%,56.078431%,84.313725%);fill-opacity:1;" d="M 24 1.828125 L 24 24 L 46.171875 24 L 46.171875 10.59375 C 46.171875 5.734375 42.265625 1.828125 37.40625 1.828125 Z M 24 1.828125 "/>
</g>
</svg>
