<?xml version="1.0" encoding="UTF-8"?>
<svg xmlns="http://www.w3.org/2000/svg" xmlns:xlink="http://www.w3.org/1999/xlink" width="48pt" height="48pt" viewBox="0 0 48 48" version="1.1">
<g id="surface1">
<path style=" stroke:none;fill-rule:evenodd;fill:rgb(30.980392%,30.980392%,30.980392%);fill-opacity:1;" d="M 11.207031 2.847656 L 36.792969 2.847656 C 41.40625 2.847656 45.152344 6.59375 45.152344 11.207031 L 45.152344 36.792969 C 45.152344 41.40625 41.40625 45.152344 36.792969 45.152344 L 11.207031 45.152344 C 6.59375 45.152344 2.847656 41.40625 2.847656 36.792969 L 2.847656 11.207031 C 2.847656 6.59375 6.59375 2.847656 11.207031 2.847656 Z M 11.207031 2.847656 "/>
<path style=" stroke:none;fill-rule:nonzero;fill:rgb(100%,100%,100%);fill-opacity:1;" d="M 20.785156 38.863281 C 21.015625 38.105469 22.171875 36.199219 22.792969 35.546875 C 23.171875 35.144531 23.484375 34.785156 23.484375 34.738281 C 23.484375 34.421875 22.542969 33.730469 18.339844 30.957031 C 16.089844 29.480469 14.871094 28.417969 13.746094 26.96875 L 12.796875 25.746094 L 12.402344 23.886719 C 12.105469 22.484375 12.035156 21.925781 12.125 21.605469 C 12.214844 21.285156 12.199219 21.144531 12.0625 21.03125 C 11.808594 20.824219 11.816406 19.890625 12.074219 19.792969 C 12.21875 19.738281 12.269531 19.546875 12.253906 19.121094 C 12.234375 18.3125 12.363281 18.042969 13.535156 16.375 C 14.222656 15.394531 14.71875 14.839844 15.089844 14.609375 C 15.390625 14.425781 15.980469 13.957031 16.394531 13.566406 C 17.089844 12.933594 17.203125 12.871094 17.597656 12.941406 C 17.910156 13 18.125 12.957031 18.347656 12.785156 C 18.859375 12.410156 19.65625 11.984375 19.859375 11.984375 C 20.074219 11.984375 21.324219 11.285156 21.703125 10.949219 C 22.140625 10.566406 23.832031 9.753906 24.09375 9.808594 C 24.230469 9.828125 24.359375 9.980469 24.386719 10.140625 C 24.40625 10.300781 24.464844 10.433594 24.515625 10.433594 C 24.5625 10.433594 25.019531 10.234375 25.527344 9.988281 C 26.035156 9.75 27.113281 9.371094 27.921875 9.144531 C 29.503906 8.714844 29.921875 8.734375 30.207031 9.261719 C 30.339844 9.496094 30.480469 9.527344 31.542969 9.527344 C 32.765625 9.527344 33.402344 9.707031 33.558594 10.097656 C 33.597656 10.207031 34.019531 10.480469 34.496094 10.699219 C 35.199219 11.019531 35.359375 11.152344 35.359375 11.402344 C 35.359375 11.59375 35.503906 11.8125 35.761719 11.988281 C 36.347656 12.394531 36.238281 12.734375 35.359375 13.238281 C 34.957031 13.46875 34.542969 13.714844 34.433594 13.777344 C 34.269531 13.875 34.300781 13.925781 34.597656 14.0625 C 34.796875 14.152344 34.964844 14.3125 34.964844 14.417969 C 34.964844 14.699219 33.828125 16.199219 33.378906 16.515625 C 32.902344 16.84375 32.894531 16.988281 33.292969 18.140625 C 33.464844 18.628906 33.738281 19.621094 33.902344 20.328125 C 34.0625 21.042969 34.3125 22 34.449219 22.464844 C 34.582031 22.925781 34.792969 23.859375 34.910156 24.535156 C 35.28125 26.675781 34.96875 28.046875 33.78125 29.511719 C 32.980469 30.488281 31.078125 32.292969 29.964844 33.121094 L 29.125 33.75 L 29.203125 34.394531 C 29.261719 34.890625 29.386719 35.15625 29.753906 35.558594 C 30.332031 36.183594 31.402344 38.285156 31.402344 38.792969 L 31.402344 39.15625 L 20.699219 39.15625 Z M 27.515625 24.472656 C 27.691406 24.300781 27.839844 24.003906 27.839844 23.824219 C 27.839844 23.640625 27.691406 23.34375 27.515625 23.171875 C 26.597656 22.277344 25.261719 23.566406 26.144531 24.496094 C 26.527344 24.890625 27.097656 24.886719 27.515625 24.472656 Z M 33.402344 22.121094 C 33.484375 21.714844 33.113281 21.171875 32.703125 21.082031 C 32.3125 21 31.769531 21.328125 31.6875 21.714844 C 31.597656 22.128906 31.980469 22.699219 32.402344 22.78125 C 32.796875 22.859375 33.324219 22.503906 33.402344 22.121094 Z M 33.402344 22.121094 "/>
</g>
</svg>
