<?xml version="1.0" encoding="UTF-8"?>
<svg xmlns="http://www.w3.org/2000/svg" xmlns:xlink="http://www.w3.org/1999/xlink" width="48pt" height="48pt" viewBox="0 0 48 48" version="1.1">
<g id="surface1">
<path style=" stroke:none;fill-rule:evenodd;fill:rgb(96.078431%,57.647059%,20.784314%);fill-opacity:1;" d="M 11.207031 2.847656 L 36.792969 2.847656 C 41.40625 2.847656 45.152344 6.59375 45.152344 11.207031 L 45.152344 36.792969 C 45.152344 41.40625 41.40625 45.152344 36.792969 45.152344 L 11.207031 45.152344 C 6.59375 45.152344 2.847656 41.40625 2.847656 36.792969 L 2.847656 11.207031 C 2.847656 6.59375 6.59375 2.847656 11.207031 2.847656 Z M 11.207031 2.847656 "/>
<path style=" stroke:none;fill-rule:nonzero;fill:rgb(100%,100%,100%);fill-opacity:1;" d="M 14.097656 12 C 12.269531 12 10.464844 13.457031 10.5 15.269531 L 10.5 30 L 7.5 30 L 7.5 36 L 40.5 36 L 40.5 30 L 37.5 30 L 37.5 15.269531 C 37.5 13.457031 35.730469 12 33.902344 12 Z M 15.75 15 L 32.25 15 C 33.46875 15 34.5 16.246094 34.5 17.453125 L 34.5 28.363281 C 34.5 28.765625 34.582031 30.207031 33.597656 30 L 14.402344 30 C 13.417969 29.941406 13.5 28.765625 13.5 28.363281 L 13.5 17.457031 C 13.5 16.246094 14.53125 15 15.75 15 Z M 15.75 15 "/>
</g>
</svg>
