<?xml version="1.0" encoding="UTF-8"?>
<svg xmlns="http://www.w3.org/2000/svg" xmlns:xlink="http://www.w3.org/1999/xlink" width="48pt" height="48pt" viewBox="0 0 48 48" version="1.1">
<g id="surface1">
<path style=" stroke:none;fill-rule:evenodd;fill:rgb(96.078431%,49.803922%,21.960784%);fill-opacity:1;" d="M 11.207031 2.847656 L 36.792969 2.847656 C 41.40625 2.847656 45.152344 6.59375 45.152344 11.207031 L 45.152344 36.792969 C 45.152344 41.40625 41.40625 45.152344 36.792969 45.152344 L 11.207031 45.152344 C 6.59375 45.152344 2.847656 41.40625 2.847656 36.792969 L 2.847656 11.207031 C 2.847656 6.59375 6.59375 2.847656 11.207031 2.847656 Z M 11.207031 2.847656 "/>
<path style=" stroke:none;fill-rule:nonzero;fill:rgb(100%,100%,100%);fill-opacity:1;" d="M 24 9.546875 C 23.59375 9.546875 23.199219 9.566406 22.800781 9.597656 C 19.230469 9.855469 16.359375 11.175781 13.777344 13.753906 C 11.644531 15.878906 10.328125 18.5 9.808594 21.246094 C 9.761719 21.496094 9.722656 21.75 9.6875 22.003906 C 9.667969 22.160156 9.640625 22.316406 9.625 22.472656 C 9.589844 22.8125 9.574219 23.15625 9.558594 23.5 C 9.558594 23.582031 9.550781 23.671875 9.550781 23.761719 C 9.546875 23.839844 9.546875 23.921875 9.546875 24 C 9.546875 31.875 15.78125 38.234375 23.597656 38.441406 C 23.660156 38.441406 23.722656 38.449219 23.785156 38.449219 C 23.859375 38.449219 23.925781 38.453125 24 38.453125 C 24.347656 38.453125 24.691406 38.4375 25.035156 38.410156 C 25.078125 38.410156 25.121094 38.40625 25.160156 38.40625 C 30.324219 37.996094 34.699219 34.894531 36.90625 30.5 C 36.90625 30.5 36.910156 30.5 36.910156 30.5 C 37.050781 30.214844 37.199219 29.933594 37.324219 29.636719 C 38 28.109375 38.371094 26.484375 38.433594 24.785156 C 38.4375 24.734375 38.4375 24.675781 38.441406 24.625 C 38.441406 24.464844 38.453125 24.300781 38.453125 24.136719 C 38.453125 24.089844 38.453125 24.046875 38.453125 24 L 38.453125 11.714844 C 38.453125 10.511719 37.488281 9.546875 36.285156 9.546875 Z M 24 9.546875 "/>
<path style=" stroke:none;fill-rule:nonzero;fill:rgb(96.078431%,49.803922%,21.960784%);fill-opacity:1;" d="M 25.417969 15.738281 C 25.058594 15.738281 24.753906 16.03125 24.75 16.378906 C 24.75 16.734375 25.050781 17.03125 25.417969 17.03125 C 26.988281 17.046875 28.285156 17.542969 29.332031 18.527344 C 30.363281 19.5 30.90625 20.847656 30.917969 22.609375 C 30.921875 22.957031 31.222656 23.25 31.589844 23.25 C 31.589844 23.25 31.59375 23.25 31.59375 23.25 C 31.957031 23.246094 32.261719 22.953125 32.261719 22.597656 C 32.25 21.566406 32.082031 20.625 31.753906 19.796875 C 31.425781 18.957031 30.925781 18.214844 30.269531 17.597656 C 28.980469 16.378906 27.324219 15.753906 25.421875 15.738281 Z M 18.644531 17.261719 C 18.390625 17.21875 18.113281 17.265625 17.839844 17.394531 L 17.816406 17.394531 L 17.785156 17.410156 C 17.277344 17.703125 16.800781 18.09375 16.355469 18.578125 L 16.316406 18.621094 L 16.316406 18.652344 C 16.003906 19.035156 15.800781 19.425781 15.753906 19.816406 C 15.738281 19.886719 15.738281 19.941406 15.738281 20.003906 C 15.738281 20.183594 15.765625 20.363281 15.824219 20.542969 L 15.832031 20.589844 L 15.863281 20.609375 C 16.042969 21.214844 16.441406 22.15625 17.324219 23.753906 C 17.90625 24.816406 18.503906 25.703125 19.097656 26.449219 C 19.410156 26.839844 19.765625 27.25 20.175781 27.660156 C 20.183594 27.667969 20.199219 27.683594 20.21875 27.699219 C 20.222656 27.703125 20.234375 27.71875 20.253906 27.738281 L 20.296875 27.78125 L 20.300781 27.78125 C 20.3125 27.796875 20.324219 27.808594 20.328125 27.8125 L 20.332031 27.816406 L 20.339844 27.828125 C 20.75 28.234375 21.15625 28.589844 21.550781 28.902344 C 22.296875 29.496094 23.183594 30.09375 24.246094 30.683594 C 25.84375 31.566406 26.796875 31.964844 27.402344 32.140625 L 27.421875 32.167969 L 27.457031 32.175781 C 27.628906 32.234375 27.808594 32.261719 27.984375 32.261719 C 28.058594 32.261719 28.121094 32.253906 28.183594 32.246094 C 28.59375 32.199219 29 32 29.40625 31.660156 L 29.417969 31.652344 C 29.421875 31.644531 29.417969 31.644531 29.421875 31.644531 C 29.425781 31.640625 29.425781 31.636719 29.433594 31.636719 C 29.910156 31.199219 30.296875 30.71875 30.589844 30.214844 L 30.609375 30.175781 L 30.609375 30.144531 C 30.875 29.59375 30.769531 29.027344 30.332031 28.660156 C 30.324219 28.652344 30.113281 28.480469 29.855469 28.265625 C 29.59375 28.050781 29.277344 27.796875 29.066406 27.640625 C 28.667969 27.34375 28.046875 26.964844 27.691406 26.765625 L 27.6875 26.765625 C 27.011719 26.386719 26.300781 26.605469 25.988281 27.011719 L 25.441406 27.691406 C 25.222656 27.972656 24.78125 27.949219 24.769531 27.949219 C 21.058594 26.988281 20.0625 23.261719 20.058594 23.234375 C 20.050781 23.222656 20.027344 22.78125 20.308594 22.558594 L 20.988281 22.011719 C 21.390625 21.703125 21.621094 20.988281 21.238281 20.3125 C 21.042969 19.957031 20.65625 19.332031 20.359375 18.9375 C 20.203125 18.722656 19.949219 18.40625 19.734375 18.144531 C 19.625 18.011719 19.527344 17.890625 19.457031 17.800781 C 19.421875 17.761719 19.390625 17.722656 19.371094 17.703125 C 19.359375 17.6875 19.355469 17.683594 19.34375 17.671875 C 19.34375 17.671875 19.34375 17.667969 19.339844 17.667969 C 19.152344 17.4375 18.910156 17.300781 18.644531 17.261719 Z M 25.457031 18.746094 C 25.097656 18.71875 24.777344 18.988281 24.75 19.332031 C 24.722656 19.683594 25.003906 19.988281 25.363281 20.015625 C 26.246094 20.078125 26.84375 20.332031 27.292969 20.808594 L 27.292969 20.8125 C 27.75 21.292969 27.957031 21.84375 27.9375 22.597656 L 27.9375 22.605469 C 27.933594 22.949219 28.222656 23.246094 28.582031 23.25 L 28.597656 23.25 C 28.953125 23.25 29.246094 22.96875 29.253906 22.628906 C 29.28125 21.59375 28.941406 20.667969 28.261719 19.953125 C 27.578125 19.234375 26.609375 18.828125 25.457031 18.746094 Z M 25.457031 18.746094 "/>
</g>
</svg>
