<?xml version="1.0" encoding="UTF-8"?>
<svg xmlns="http://www.w3.org/2000/svg" xmlns:xlink="http://www.w3.org/1999/xlink" width="48pt" height="48pt" viewBox="0 0 48 48" version="1.1">
<g id="surface1">
<path style=" stroke:none;fill-rule:evenodd;fill:rgb(30.980392%,30.980392%,30.980392%);fill-opacity:1;" d="M 11.207031 2.847656 L 36.792969 2.847656 C 41.40625 2.847656 45.152344 6.59375 45.152344 11.207031 L 45.152344 36.792969 C 45.152344 41.40625 41.40625 45.152344 36.792969 45.152344 L 11.207031 45.152344 C 6.59375 45.152344 2.847656 41.40625 2.847656 36.792969 L 2.847656 11.207031 C 2.847656 6.59375 6.59375 2.847656 11.207031 2.847656 Z M 11.207031 2.847656 "/>
<path style=" stroke:none;fill-rule:nonzero;fill:rgb(100%,100%,100%);fill-opacity:1;" d="M 24 9 C 32.285156 9 39 15.714844 39 24 C 39 32.285156 32.285156 39 24 39 C 15.714844 39 9 32.285156 9 24 C 9 15.714844 15.714844 9 24 9 Z M 24 9 "/>
<path style=" stroke:none;fill-rule:nonzero;fill:rgb(30.980392%,30.980392%,30.980392%);fill-opacity:1;" d="M 20.25 13.5 L 17.3125 22.4375 L 15 23.25 L 13.5 29.25 L 15.605469 28.515625 L 13.5 34.5 L 33 34.5 L 34.5 28.5 L 24.394531 28.5 L 25.589844 25.019531 L 28.5 24 L 30 18 L 27.296875 18.949219 L 29.25 13.5 Z M 20.25 13.5 "/>
</g>
</svg>
