<?xml version="1.0" encoding="UTF-8"?>
<svg xmlns="http://www.w3.org/2000/svg" xmlns:xlink="http://www.w3.org/1999/xlink" width="48pt" height="48pt" viewBox="0 0 48 48" version="1.1">
<g id="surface1">
<path style=" stroke:none;fill-rule:evenodd;fill:rgb(24.705882%,24.705882%,24.705882%);fill-opacity:1;" d="M 11.207031 2.847656 L 36.792969 2.847656 C 41.40625 2.847656 45.152344 6.59375 45.152344 11.207031 L 45.152344 36.792969 C 45.152344 41.40625 41.40625 45.152344 36.792969 45.152344 L 11.207031 45.152344 C 6.59375 45.152344 2.847656 41.40625 2.847656 36.792969 L 2.847656 11.207031 C 2.847656 6.59375 6.59375 2.847656 11.207031 2.847656 Z M 11.207031 2.847656 "/>
<path style=" stroke:none;fill-rule:nonzero;fill:rgb(80%,80%,80%);fill-opacity:1;" d="M 38.550781 24 C 38.550781 32.347656 31.785156 39.113281 23.441406 39.113281 C 15.09375 39.113281 8.328125 32.347656 8.328125 24 C 8.328125 15.652344 15.09375 8.886719 23.441406 8.886719 C 31.785156 8.886719 38.550781 15.652344 38.550781 24 Z M 38.550781 24 "/>
<path style=" stroke:none;fill-rule:nonzero;fill:rgb(27.45098%,60%,38.039216%);fill-opacity:1;" d="M 26.796875 22.324219 L 39.113281 22.324219 C 40.042969 22.324219 40.792969 23.074219 40.792969 24 C 40.792969 24.925781 40.042969 25.675781 39.113281 25.675781 L 26.796875 25.675781 C 25.871094 25.675781 25.121094 24.925781 25.121094 24 C 25.121094 23.074219 25.871094 22.324219 26.796875 22.324219 Z M 26.796875 22.324219 "/>
<path style=" stroke:none;fill-rule:nonzero;fill:rgb(26.27451%,56.078431%,58.823529%);fill-opacity:1;" d="M 8.886719 16.722656 L 21.203125 16.722656 C 22.128906 16.722656 22.878906 17.472656 22.878906 18.402344 C 22.878906 19.328125 22.128906 20.082031 21.203125 20.082031 L 8.886719 20.082031 C 7.957031 20.082031 7.207031 19.328125 7.207031 18.402344 C 7.207031 17.472656 7.957031 16.722656 8.886719 16.722656 Z M 8.886719 16.722656 "/>
<path style=" stroke:none;fill-rule:nonzero;fill:rgb(27.45098%,60%,38.039216%);fill-opacity:1;" d="M 8.886719 27.917969 L 21.203125 27.917969 C 22.128906 27.917969 22.878906 28.671875 22.878906 29.597656 C 22.878906 30.527344 22.128906 31.277344 21.203125 31.277344 L 8.886719 31.277344 C 7.957031 31.277344 7.207031 30.527344 7.207031 29.597656 C 7.207031 28.671875 7.957031 27.917969 8.886719 27.917969 Z M 8.886719 27.917969 "/>
<path style=" stroke:none;fill-rule:nonzero;fill:rgb(24.705882%,24.705882%,24.705882%);fill-opacity:1;" d="M 16.160156 32.394531 C 17.308594 29.09375 18.402344 27.917969 18.402344 24 C 18.402344 20.082031 17.34375 19.015625 16.160156 15.605469 C 27.015625 15.605469 31.839844 24 31.839844 24 C 31.839844 24 27.015625 32.394531 16.160156 32.394531 Z M 16.160156 32.394531 "/>
</g>
</svg>
