<?xml version="1.0" encoding="UTF-8"?>
<svg xmlns="http://www.w3.org/2000/svg" xmlns:xlink="http://www.w3.org/1999/xlink" width="48pt" height="48pt" viewBox="0 0 48 48" version="1.1">
<g id="surface1">
<path style=" stroke:none;fill-rule:evenodd;fill:rgb(25.882353%,72.941176%,30.980392%);fill-opacity:1;" d="M 11.207031 2.847656 L 36.792969 2.847656 C 41.40625 2.847656 45.152344 6.59375 45.152344 11.207031 L 45.152344 36.792969 C 45.152344 41.40625 41.40625 45.152344 36.792969 45.152344 L 11.207031 45.152344 C 6.59375 45.152344 2.847656 41.40625 2.847656 36.792969 L 2.847656 11.207031 C 2.847656 6.59375 6.59375 2.847656 11.207031 2.847656 Z M 11.207031 2.847656 "/>
<path style=" stroke:none;fill-rule:nonzero;fill:rgb(100%,100%,100%);fill-opacity:1;" d="M 28.683594 11.980469 C 28.402344 11.855469 28.046875 11.933594 27.847656 12.160156 L 25.78125 14.503906 C 24.628906 14.324219 23.457031 14.3125 22.324219 14.484375 L 20.265625 12.113281 C 20.050781 11.863281 19.65625 11.796875 19.375 11.957031 L 14.394531 14.800781 C 14.113281 14.96875 13.972656 15.34375 14.082031 15.652344 L 15.082031 18.644531 C 14.730469 19.082031 14.402344 19.542969 14.109375 20.046875 C 13.816406 20.546875 13.578125 21.058594 13.371094 21.578125 L 10.269531 22.183594 C 9.953125 22.238281 9.691406 22.550781 9.6875 22.875 L 9.65625 28.605469 C 9.660156 28.933594 9.910156 29.238281 10.234375 29.308594 L 13.3125 29.933594 C 13.722656 31 14.308594 32.019531 15.03125 32.933594 L 14.011719 35.886719 C 13.902344 36.191406 14.035156 36.566406 14.316406 36.734375 L 19.261719 39.621094 C 19.542969 39.78125 19.9375 39.714844 20.152344 39.46875 L 22.21875 37.125 C 23.371094 37.308594 24.542969 37.3125 25.675781 37.144531 L 27.734375 39.515625 C 27.949219 39.765625 28.34375 39.832031 28.625 39.671875 L 33.597656 36.828125 C 33.886719 36.667969 34.027344 36.285156 33.917969 35.980469 L 32.917969 32.984375 C 33.269531 32.546875 33.59375 32.089844 33.890625 31.582031 C 34.183594 31.082031 34.421875 30.574219 34.628906 30.046875 L 37.730469 29.449219 C 38.046875 29.390625 38.308594 29.082031 38.3125 28.753906 L 38.34375 23.019531 C 38.339844 22.699219 38.089844 22.386719 37.765625 22.324219 L 34.6875 21.699219 C 34.277344 20.625 33.691406 19.609375 32.96875 18.699219 L 33.988281 15.746094 C 34.097656 15.4375 33.964844 15.0625 33.683594 14.894531 L 28.738281 12.011719 C 28.71875 12 28.703125 11.988281 28.683594 11.980469 Z M 28.578125 17.96875 C 32.910156 20.5 34.375 26.058594 31.84375 30.390625 C 29.316406 34.722656 23.753906 36.1875 19.421875 33.660156 C 15.089844 31.128906 13.625 25.574219 16.15625 21.238281 C 18.683594 16.90625 24.246094 15.441406 28.578125 17.96875 Z M 28.578125 17.96875 "/>
<path style=" stroke:none;fill-rule:evenodd;fill:rgb(100%,100%,100%);fill-opacity:1;" d="M 26.644531 9.667969 C 26.644531 11.125 25.457031 12.308594 24 12.308594 C 22.542969 12.308594 21.355469 11.125 21.355469 9.667969 C 21.355469 8.203125 22.542969 7.019531 24 7.019531 C 25.457031 7.019531 26.644531 8.203125 26.644531 9.667969 Z M 26.644531 9.667969 "/>
<path style="fill:none;stroke-width:3.2;stroke-linecap:round;stroke-linejoin:miter;stroke:rgb(100%,100%,100%);stroke-opacity:1;stroke-miterlimit:4;" d="M 16 13.440814 L 16 20.380918 " transform="matrix(1.5,0,0,1.5,-0.00000015,0.448155)"/>
</g>
</svg>
