<?xml version="1.0" encoding="UTF-8"?>
<svg xmlns="http://www.w3.org/2000/svg" xmlns:xlink="http://www.w3.org/1999/xlink" width="48pt" height="48pt" viewBox="0 0 48 48" version="1.1">
<g id="surface1">
<path style=" stroke:none;fill-rule:evenodd;fill:rgb(97.254902%,70.588235%,9.019608%);fill-opacity:1;" d="M 5.292969 42.707031 L 42.707031 5.292969 C 41.199219 3.78125 39.109375 2.847656 36.792969 2.847656 L 11.214844 2.847656 C 6.578125 2.847656 2.847656 6.578125 2.847656 11.214844 L 2.847656 36.792969 C 2.847656 39.105469 3.78125 41.191406 5.292969 42.707031 Z M 5.292969 42.707031 "/>
<path style=" stroke:none;fill-rule:evenodd;fill:rgb(80%,80%,80%);fill-opacity:1;" d="M 25.933594 45.152344 L 25.933594 32.808594 L 22.503906 32.808594 L 22.503906 45.152344 Z M 25.933594 45.152344 "/>
<path style=" stroke:none;fill-rule:evenodd;fill:rgb(40%,17.254902%,56.078431%);fill-opacity:1;" d="M 23.515625 24.484375 L 5.292969 42.707031 C 6.808594 44.21875 8.894531 45.152344 11.214844 45.152344 L 22.503906 45.152344 L 22.503906 32.808594 L 25.933594 32.808594 L 25.933594 45.152344 L 36.792969 45.152344 C 38.855469 45.152344 40.675781 44.328125 42.128906 43.097656 Z M 23.515625 24.484375 "/>
<path style=" stroke:none;fill-rule:evenodd;fill:rgb(0.784314%,65.882353%,84.705882%);fill-opacity:1;" d="M 23.515625 24.484375 L 42.128906 43.097656 C 43.941406 41.566406 45.152344 39.359375 45.152344 36.792969 L 45.152344 11.214844 C 45.152344 8.894531 44.21875 6.800781 42.707031 5.292969 Z M 23.515625 24.484375 "/>
<path style=" stroke:none;fill-rule:evenodd;fill:rgb(28.627451%,38.431373%,12.54902%);fill-opacity:1;" d="M 36.15625 24.417969 C 36.15625 31.011719 30.8125 36.355469 24.21875 36.355469 C 17.628906 36.355469 12.285156 31.011719 12.285156 24.417969 C 12.285156 17.824219 17.628906 12.480469 24.21875 12.480469 C 30.8125 12.480469 36.15625 17.824219 36.15625 24.417969 Z M 36.15625 24.417969 "/>
<path style=" stroke:none;fill-rule:evenodd;fill:rgb(57.254902%,77.647059%,25.882353%);fill-opacity:1;" d="M 14.546875 10.207031 C 14.292969 10.214844 14.050781 10.347656 13.921875 10.574219 C 13.792969 10.792969 13.785156 11.066406 13.910156 11.292969 L 15.636719 14.515625 C 12.859375 16.925781 11.21875 20.386719 11.121094 24.0625 L 37.324219 24.0625 C 37.21875 20.390625 35.582031 16.925781 32.800781 14.519531 L 34.53125 11.292969 C 34.652344 11.066406 34.652344 10.792969 34.519531 10.574219 C 34.390625 10.347656 34.152344 10.214844 33.894531 10.207031 C 33.621094 10.207031 33.371094 10.359375 33.238281 10.605469 L 31.628906 13.621094 C 29.453125 12.113281 26.871094 11.300781 24.21875 11.296875 C 21.574219 11.300781 18.984375 12.105469 16.800781 13.605469 L 15.203125 10.605469 C 15.074219 10.359375 14.824219 10.207031 14.546875 10.207031 Z M 11.136719 25.359375 C 11.628906 32.222656 17.339844 37.535156 24.21875 37.535156 C 31.09375 37.527344 36.796875 32.21875 37.292969 25.359375 Z M 11.136719 25.359375 "/>
<path style=" stroke:none;fill-rule:evenodd;fill:rgb(100%,100%,100%);fill-opacity:1;" d="M 21.121094 19.21875 C 21.121094 20.359375 20.191406 21.285156 19.050781 21.285156 C 17.90625 21.285156 16.984375 20.359375 16.984375 19.21875 C 16.984375 18.074219 17.90625 17.144531 19.050781 17.144531 C 20.191406 17.144531 21.121094 18.074219 21.121094 19.21875 Z M 21.121094 19.21875 "/>
<path style=" stroke:none;fill-rule:evenodd;fill:rgb(100%,100%,100%);fill-opacity:1;" d="M 31.457031 19.21875 C 31.457031 20.359375 30.53125 21.285156 29.390625 21.285156 C 28.25 21.285156 27.324219 20.359375 27.324219 19.21875 C 27.324219 18.074219 28.25 17.144531 29.390625 17.144531 C 30.53125 17.144531 31.457031 18.074219 31.457031 19.21875 Z M 31.457031 19.21875 "/>
</g>
</svg>
