<?xml version="1.0" encoding="UTF-8"?>
<svg xmlns="http://www.w3.org/2000/svg" xmlns:xlink="http://www.w3.org/1999/xlink" width="48pt" height="48pt" viewBox="0 0 48 48" version="1.1">
<g id="surface1">
<path style=" stroke:none;fill-rule:evenodd;fill:rgb(80%,80%,80%);fill-opacity:1;" d="M 11.207031 2.847656 L 36.792969 2.847656 C 41.40625 2.847656 45.152344 6.59375 45.152344 11.207031 L 45.152344 36.792969 C 45.152344 41.40625 41.40625 45.152344 36.792969 45.152344 L 11.207031 45.152344 C 6.59375 45.152344 2.847656 41.40625 2.847656 36.792969 L 2.847656 11.207031 C 2.847656 6.59375 6.59375 2.847656 11.207031 2.847656 Z M 11.207031 2.847656 "/>
<path style=" stroke:none;fill-rule:nonzero;fill:rgb(90.588235%,29.803922%,23.529412%);fill-opacity:1;" d="M 23.996094 16.503906 L 29.996094 24.003906 L 23.996094 31.503906 L 17.996094 24.003906 Z M 23.996094 16.503906 "/>
<path style=" stroke:none;fill-rule:nonzero;fill:rgb(90.588235%,29.803922%,23.529412%);fill-opacity:1;" d="M 14.855469 12.40625 L 12.4375 12.40625 L 12.050781 13.5 L 10.5 13.5 L 12.71875 7.5 L 14.566406 7.5 L 16.785156 13.5 L 15.234375 13.5 Z M 12.824219 11.292969 L 14.464844 11.292969 L 13.644531 8.90625 Z M 12.824219 11.292969 "/>
<path style=" stroke:none;fill-rule:nonzero;fill:rgb(90.588235%,29.803922%,23.529412%);fill-opacity:1;" d="M 13.5 13.503906 L 16.5 17.253906 L 13.5 21.003906 L 10.5 17.253906 Z M 13.5 13.503906 "/>
<path style=" stroke:none;fill-rule:nonzero;fill:rgb(90.588235%,29.803922%,23.529412%);fill-opacity:1;" d="M 33.140625 35.59375 L 35.5625 35.59375 L 35.941406 34.5 L 37.5 34.5 L 35.277344 40.5 L 33.433594 40.5 L 31.207031 34.5 L 32.765625 34.5 Z M 35.175781 36.707031 L 33.53125 36.707031 L 34.355469 39.09375 Z M 35.175781 36.707031 "/>
<path style=" stroke:none;fill-rule:nonzero;fill:rgb(90.588235%,29.803922%,23.529412%);fill-opacity:1;" d="M 34.5 34.503906 L 31.5 30.753906 L 34.5 27.003906 L 37.5 30.753906 Z M 34.5 34.503906 "/>
</g>
</svg>
