<?xml version="1.0" encoding="UTF-8"?>
<svg xmlns="http://www.w3.org/2000/svg" xmlns:xlink="http://www.w3.org/1999/xlink" width="48pt" height="48pt" viewBox="0 0 48 48" version="1.1">
<g id="surface1">
<path style=" stroke:none;fill-rule:evenodd;fill:rgb(54.901961%,41.960784%,37.254902%);fill-opacity:1;" d="M 11.207031 2.847656 L 36.792969 2.847656 C 41.40625 2.847656 45.152344 6.59375 45.152344 11.207031 L 45.152344 36.792969 C 45.152344 41.40625 41.40625 45.152344 36.792969 45.152344 L 11.207031 45.152344 C 6.59375 45.152344 2.847656 41.40625 2.847656 36.792969 L 2.847656 11.207031 C 2.847656 6.59375 6.59375 2.847656 11.207031 2.847656 Z M 11.207031 2.847656 "/>
<path style=" stroke:none;fill-rule:nonzero;fill:rgb(97.254902%,74.117647%,16.862745%);fill-opacity:1;" d="M 26.035156 11.625 C 18.171875 11.625 11.796875 18.003906 11.796875 25.863281 C 11.796875 33.730469 18.171875 40.105469 26.035156 40.105469 C 33.894531 40.105469 40.269531 33.730469 40.269531 25.863281 C 40.269531 18.003906 33.894531 11.625 26.035156 11.625 Z M 26.035156 11.625 "/>
<path style=" stroke:none;fill-rule:nonzero;fill:rgb(54.901961%,41.960784%,37.254902%);fill-opacity:1;" d="M 25.75 16.402344 C 27.515625 16.816406 27.703125 19.066406 29.125 19.613281 C 31.015625 20.386719 31.175781 17.980469 30.203125 16.703125 "/>
<path style=" stroke:none;fill-rule:nonzero;fill:rgb(54.901961%,41.960784%,37.254902%);fill-opacity:1;" d="M 23.394531 4.847656 C 13.464844 4.839844 5.28125 13.015625 5.019531 23.332031 C 4.753906 33.816406 12.765625 42.535156 22.910156 42.8125 C 27.855469 42.941406 31.714844 41.046875 35.09375 37.855469 C 35.457031 37.558594 35.65625 37.363281 35.65625 37.363281 C 35.65625 37.363281 39.324219 33.515625 39.519531 30.332031 C 38.582031 31.878906 37.722656 33.433594 35.394531 34.578125 C 34.324219 35.074219 33.34375 35.496094 32.359375 35.828125 C 32.296875 35.84375 32.230469 35.859375 32.167969 35.875 C 31.699219 35.984375 31.207031 36.078125 30.691406 36.152344 C 30.628906 36.160156 30.566406 36.167969 30.503906 36.175781 C 29.972656 36.246094 29.421875 36.292969 28.855469 36.316406 C 28.796875 36.316406 28.734375 36.316406 28.675781 36.316406 C 28.113281 36.339844 27.542969 36.339844 26.957031 36.3125 C 26.921875 36.3125 26.886719 36.3125 26.84375 36.3125 C 26.253906 36.285156 26.328125 36.234375 25.730469 36.160156 C 25.640625 36.152344 25.558594 36.144531 25.46875 36.136719 C 24.886719 36.058594 24.296875 35.964844 23.71875 35.84375 C 23.625 35.828125 23.53125 35.808594 23.4375 35.785156 C 22.863281 35.667969 22.300781 35.527344 21.746094 35.363281 C 21.566406 35.3125 21.390625 35.253906 21.214844 35.203125 C 21.082031 35.160156 20.949219 35.121094 20.816406 35.074219 C 20.628906 35.011719 20.449219 34.941406 20.265625 34.871094 C 20.113281 34.816406 19.964844 34.761719 19.816406 34.703125 C 19.644531 34.628906 19.480469 34.558594 19.3125 34.484375 C 19.171875 34.421875 19.027344 34.363281 18.886719 34.296875 C 18.582031 34.15625 18.285156 34.003906 18 33.847656 C 17.769531 33.722656 17.558594 33.589844 17.347656 33.453125 C 16.875 33.136719 16.457031 32.78125 16.082031 32.417969 C 14.152344 30.441406 14.238281 28.121094 14.339844 26.609375 C 14.46875 24.71875 16.058594 20.566406 21.269531 18.371094 C 24.496094 17.234375 28.292969 16.4375 31.457031 17.457031 C 33.84375 17.996094 35.558594 18.777344 37.828125 19.578125 C 37.828125 19.578125 37.808594 19.621094 38.433594 19.777344 C 42.84375 20.472656 42.347656 16.839844 42.347656 16.839844 L 42.003906 15.988281 C 41.925781 15.542969 42.261719 15.1875 42.261719 15.1875 C 42.261719 15.1875 41.988281 14.1875 42.035156 13.527344 C 42.082031 12.863281 42.046875 12.015625 41.902344 10.800781 C 41.753906 9.59375 40.964844 8.574219 40.703125 8.378906 C 40.449219 8.191406 39.246094 7.285156 38.09375 6.839844 C 36.941406 6.386719 35.777344 6.050781 34.339844 6.25 C 34.183594 6.277344 34.03125 6.296875 33.875 6.324219 C 33.84375 6.3125 33.824219 6.300781 33.792969 6.296875 C 33.246094 6.128906 32.859375 4.839844 32.410156 4.847656 C 32.378906 4.847656 32.34375 4.855469 32.308594 4.859375 C 32.277344 4.859375 32.238281 4.863281 32.203125 4.871094 C 32.167969 4.878906 32.128906 4.886719 32.09375 4.894531 C 32.050781 4.910156 32.011719 4.921875 31.972656 4.941406 C 31.714844 5.0625 31.550781 6.46875 31.453125 6.769531 C 29.15625 5.609375 26.59375 4.925781 23.871094 4.855469 C 23.714844 4.847656 23.558594 4.847656 23.394531 4.847656 Z M 33.511719 35.480469 C 33.171875 35.605469 32.808594 35.714844 32.433594 35.808594 C 32.808594 35.714844 33.171875 35.605469 33.511719 35.480469 Z M 33.511719 35.480469 "/>
<path style=" stroke:none;fill-rule:nonzero;fill:rgb(82.745098%,78.823529%,77.647059%);fill-opacity:1;" d="M 31.40625 10.292969 C 29.421875 10.285156 27.265625 10.871094 25.691406 11.417969 C 22.714844 12.472656 20.855469 13.328125 18.433594 15.050781 C 17.792969 15.519531 15.277344 17.371094 13.746094 19.949219 C 9.515625 27.425781 12.511719 35.363281 17.980469 37.167969 C 23.988281 39.417969 29.746094 40.066406 36.984375 33.667969 C 36.363281 34.167969 36.984375 33.667969 33.511719 35.480469 C 29.417969 37.003906 22.859375 36.515625 18 33.847656 C 14.09375 31.6875 14.484375 28.503906 14.613281 26.613281 C 14.738281 24.71875 16.058594 20.566406 21.277344 18.371094 C 24.5 17.234375 28.292969 16.4375 31.457031 17.457031 C 33.84375 17.996094 35.558594 18.96875 37.824219 19.769531 C 37.824219 19.769531 37.808594 19.808594 38.433594 19.964844 C 42.84375 20.660156 42.984375 16.78125 42.984375 16.78125 L 42.859375 16.074219 L 42.472656 15.113281 L 42.292969 14.703125 L 42.183594 14.480469 C 42.183594 14.480469 42.152344 14.203125 42.105469 13.917969 C 42.019531 14.980469 41.597656 15.558594 41.597656 15.558594 C 38.171875 14.910156 37.558594 11.953125 33.941406 10.714844 C 33.183594 10.410156 32.3125 10.292969 31.40625 10.292969 Z M 36.984375 33.667969 C 37.386719 33.347656 37.578125 33.128906 37.578125 33.128906 C 37.378906 33.316406 37.183594 33.496094 36.984375 33.667969 Z M 36.984375 33.667969 "/>
<path style=" stroke:none;fill-rule:nonzero;fill:rgb(54.901961%,41.960784%,37.254902%);fill-opacity:1;" d="M 13.175781 19.910156 L 13.15625 20.078125 C 14.535156 20.011719 16.222656 20.308594 17.480469 21.1875 C 18.453125 21.84375 19.328125 22.824219 20.574219 22.378906 C 21.425781 22.082031 21.472656 21.578125 21.144531 20.746094 C 20.871094 20.066406 20.410156 18.902344 19.847656 18.453125 C 19.035156 17.808594 16.9375 18.03125 16.832031 16.6875 C 16.753906 16.050781 17.152344 15.574219 17.511719 15.113281 C 17.511719 15.113281 13.441406 16.136719 13.175781 19.910156 Z M 13.175781 19.910156 "/>
<path style=" stroke:none;fill-rule:nonzero;fill:rgb(24.705882%,24.705882%,24.705882%);fill-opacity:1;" d="M 41.660156 15.699219 C 41.660156 15.699219 41.503906 16.1875 40.777344 16.230469 C 40.042969 16.277344 40.167969 17.296875 40.800781 17.863281 C 41.4375 18.4375 41.9375 18.59375 42.359375 18.15625 C 42.785156 17.71875 43.824219 16.988281 41.660156 15.699219 Z M 41.660156 15.699219 "/>
<path style=" stroke:none;fill-rule:nonzero;fill:rgb(24.705882%,24.705882%,24.705882%);fill-opacity:1;" d="M 37.277344 13.824219 C 36.8125 14.410156 35.964844 14.511719 35.371094 14.050781 C 34.78125 13.582031 34.675781 12.734375 35.136719 12.144531 C 35.597656 11.558594 36.449219 11.453125 37.042969 11.917969 C 37.628906 12.378906 37.734375 13.234375 37.277344 13.824219 Z M 37.277344 13.824219 "/>
<path style=" stroke:none;fill-rule:nonzero;fill:rgb(24.705882%,24.705882%,24.705882%);fill-opacity:1;" d="M 42.609375 13.902344 C 42.566406 14.421875 42.234375 14.8125 41.863281 14.777344 C 41.496094 14.734375 41.230469 14.28125 41.269531 13.753906 C 41.3125 13.234375 41.640625 12.84375 42.011719 12.878906 C 42.378906 12.921875 42.652344 13.375 42.609375 13.902344 Z M 42.609375 13.902344 "/>
</g>
</svg>
