<?xml version="1.0" encoding="UTF-8"?>
<svg xmlns="http://www.w3.org/2000/svg" xmlns:xlink="http://www.w3.org/1999/xlink" width="48pt" height="48pt" viewBox="0 0 48 48" version="1.1">
<g id="surface1">
<path style=" stroke:none;fill-rule:evenodd;fill:rgb(11.372549%,65.098039%,90.980392%);fill-opacity:1;" d="M 11.207031 2.847656 L 36.792969 2.847656 C 41.40625 2.847656 45.152344 6.59375 45.152344 11.207031 L 45.152344 36.792969 C 45.152344 41.40625 41.40625 45.152344 36.792969 45.152344 L 11.207031 45.152344 C 6.59375 45.152344 2.847656 41.40625 2.847656 36.792969 L 2.847656 11.207031 C 2.847656 6.59375 6.59375 2.847656 11.207031 2.847656 Z M 11.207031 2.847656 "/>
<path style=" stroke:none;fill-rule:nonzero;fill:rgb(100%,88.235294%,45.490196%);fill-opacity:1;" d="M 19.5 28.5 C 19.5 31.402344 17.152344 33.75 14.25 33.75 C 11.347656 33.75 9 31.402344 9 28.5 C 9 25.597656 11.347656 23.25 14.25 23.25 C 17.152344 23.25 19.5 25.597656 19.5 28.5 Z M 19.5 28.5 "/>
<path style=" stroke:none;fill-rule:nonzero;fill:rgb(100%,82.745098%,21.960784%);fill-opacity:1;" d="M 21 21.75 C 21 24.234375 18.984375 26.25 16.5 26.25 C 14.015625 26.25 12 24.234375 12 21.75 C 12 19.265625 14.015625 17.25 16.5 17.25 C 18.984375 17.25 21 19.265625 21 21.75 Z M 21 21.75 "/>
<path style=" stroke:none;fill-rule:nonzero;fill:rgb(100%,72.156863%,13.333333%);fill-opacity:1;" d="M 31.5 21 C 31.5 24.730469 28.480469 27.75 24.75 27.75 C 21.019531 27.75 18 24.730469 18 21 C 18 17.269531 21.019531 14.25 24.75 14.25 C 28.480469 14.25 31.5 17.269531 31.5 21 Z M 31.5 21 "/>
<path style=" stroke:none;fill-rule:nonzero;fill:rgb(100%,48.627451%,17.647059%);fill-opacity:1;" d="M 39 27 C 39 30.730469 35.980469 33.75 32.25 33.75 C 28.519531 33.75 25.5 30.730469 25.5 27 C 25.5 23.269531 28.519531 20.25 32.25 20.25 C 35.980469 20.25 39 23.269531 39 27 Z M 39 27 "/>
<path style=" stroke:none;fill-rule:nonzero;fill:rgb(100%,59.215686%,17.647059%);fill-opacity:1;" d="M 31.5 26.25 C 31.5 30.390625 28.140625 33.75 24 33.75 C 19.859375 33.75 16.5 30.390625 16.5 26.25 C 16.5 22.109375 19.859375 18.75 24 18.75 C 28.140625 18.75 31.5 22.109375 31.5 26.25 Z M 31.5 26.25 "/>
</g>
</svg>
