<?xml version="1.0" encoding="UTF-8"?>
<svg xmlns="http://www.w3.org/2000/svg" xmlns:xlink="http://www.w3.org/1999/xlink" width="48pt" height="48pt" viewBox="0 0 48 48" version="1.1">
<g id="surface1">
<path style=" stroke:none;fill-rule:evenodd;fill:rgb(83.921569%,40.784314%,16.078431%);fill-opacity:1;" d="M 11.207031 2.847656 L 36.792969 2.847656 C 41.40625 2.847656 45.152344 6.59375 45.152344 11.207031 L 45.152344 36.792969 C 45.152344 41.40625 41.40625 45.152344 36.792969 45.152344 L 11.207031 45.152344 C 6.59375 45.152344 2.847656 41.40625 2.847656 36.792969 L 2.847656 11.207031 C 2.847656 6.59375 6.59375 2.847656 11.207031 2.847656 Z M 11.207031 2.847656 "/>
<path style="fill:none;stroke-width:3;stroke-linecap:round;stroke-linejoin:round;stroke:rgb(97.254902%,74.901961%,58.039216%);stroke-opacity:1;stroke-miterlimit:4;" d="M 13.499925 22.500265 L 13.499925 15.281515 C 13.499925 15.281515 13.999925 13.500265 15.999925 13.500265 C 17.999925 13.500265 18.499925 15.281515 18.499925 15.281515 L 18.499925 22.500265 M 8.499925 22.500265 L 8.499925 15.281515 C 8.499925 15.281515 8.999925 13.500265 10.999925 13.500265 C 13.999925 13.500265 13.499925 15.281515 13.499925 15.281515 L 13.499925 22.500265 " transform="matrix(1.5,0,0,1.5,-1.499888,0.733977)"/>
<path style=" stroke:none;fill-rule:nonzero;fill:rgb(100%,100%,100%);fill-opacity:1;" d="M 39 17.234375 C 39 18.0625 38.328125 18.734375 37.5 18.734375 L 28.5 18.734375 C 27.671875 18.734375 27 18.0625 27 17.234375 C 27 16.40625 27.671875 15.734375 28.5 15.734375 L 37.5 15.734375 C 38.328125 15.734375 39 16.40625 39 17.234375 Z M 39 17.234375 "/>
<path style=" stroke:none;fill-rule:nonzero;fill:rgb(100%,100%,100%);fill-opacity:1;" d="M 33 23.234375 C 32.171875 23.234375 31.5 22.5625 31.5 21.734375 L 31.5 12.734375 C 31.5 11.90625 32.171875 11.234375 33 11.234375 C 33.828125 11.234375 34.5 11.90625 34.5 12.734375 L 34.5 21.734375 C 34.5 22.5625 33.828125 23.234375 33 23.234375 Z M 33 23.234375 "/>
</g>
</svg>
