<?xml version="1.0" encoding="UTF-8"?>
<svg xmlns="http://www.w3.org/2000/svg" xmlns:xlink="http://www.w3.org/1999/xlink" width="48pt" height="48pt" viewBox="0 0 48 48" version="1.1">
<g id="surface1">
<path style=" stroke:none;fill-rule:evenodd;fill:rgb(100%,54.117647%,0%);fill-opacity:1;" d="M 11.207031 2.847656 L 36.792969 2.847656 C 41.40625 2.847656 45.152344 6.59375 45.152344 11.207031 L 45.152344 36.792969 C 45.152344 41.40625 41.40625 45.152344 36.792969 45.152344 L 11.207031 45.152344 C 6.59375 45.152344 2.847656 41.40625 2.847656 36.792969 L 2.847656 11.207031 C 2.847656 6.59375 6.59375 2.847656 11.207031 2.847656 Z M 11.207031 2.847656 "/>
<path style=" stroke:none;fill-rule:nonzero;fill:rgb(100%,100%,100%);fill-opacity:1;" d="M 15.550781 34.855469 C 13.863281 32.316406 12.484375 30.191406 12.484375 30.128906 C 12.480469 30.042969 13.503906 29.550781 17.441406 27.746094 C 20.167969 26.488281 22.433594 25.464844 22.472656 25.464844 C 22.519531 25.464844 22.550781 25.515625 22.550781 25.582031 C 22.550781 25.644531 22.28125 26.691406 21.949219 27.90625 C 21.515625 29.46875 21.359375 30.128906 21.402344 30.1875 C 21.5 30.308594 22.4375 30.621094 23.089844 30.753906 C 23.980469 30.9375 25.3125 31.019531 26.144531 30.949219 C 28.707031 30.722656 31.40625 29.519531 33.863281 27.503906 C 34.628906 26.875 34.671875 26.847656 34.699219 26.875 C 34.738281 26.921875 34.199219 28.183594 33.890625 28.75 C 33.355469 29.730469 32.859375 30.449219 32.097656 31.332031 C 30.191406 33.566406 27.78125 34.90625 24.855469 35.359375 C 24.035156 35.484375 22.042969 35.5 21.183594 35.390625 C 20.878906 35.347656 20.496094 35.300781 20.328125 35.28125 L 20.019531 35.246094 L 19.703125 36.300781 C 19.074219 38.390625 18.738281 39.421875 18.675781 39.441406 C 18.640625 39.453125 17.234375 37.390625 15.550781 34.855469 Z M 25.3125 22.558594 C 25.441406 22.128906 26.566406 17.984375 26.566406 17.953125 C 26.566406 17.796875 25.1875 17.359375 24.214844 17.207031 C 23.3125 17.074219 21.625 17.066406 20.847656 17.207031 C 18.433594 17.636719 15.9375 18.875 13.667969 20.769531 C 13.378906 21.003906 13.128906 21.203125 13.105469 21.203125 C 13.019531 21.203125 13.058594 21.074219 13.332031 20.421875 C 14 18.859375 14.949219 17.441406 16.175781 16.171875 C 18.09375 14.199219 20.234375 13.089844 23.011719 12.640625 C 23.941406 12.496094 25.875 12.496094 27.015625 12.644531 C 27.472656 12.707031 27.871094 12.738281 27.890625 12.71875 C 27.910156 12.699219 28.214844 11.769531 28.550781 10.667969 C 28.894531 9.558594 29.207031 8.621094 29.246094 8.582031 C 29.292969 8.535156 29.34375 8.550781 29.425781 8.636719 C 29.65625 8.875 35.515625 17.792969 35.515625 17.90625 C 35.515625 17.96875 35.480469 18.050781 35.4375 18.082031 C 35.394531 18.121094 33.707031 18.902344 31.683594 19.816406 C 29.65625 20.738281 27.441406 21.753906 26.753906 22.078125 C 25.488281 22.671875 25.253906 22.75 25.3125 22.558594 Z M 25.3125 22.558594 "/>
</g>
</svg>
