<?xml version="1.0" encoding="UTF-8"?>
<svg xmlns="http://www.w3.org/2000/svg" xmlns:xlink="http://www.w3.org/1999/xlink" width="48pt" height="48pt" viewBox="0 0 48 48" version="1.1">
<g id="surface1">
<path style=" stroke:none;fill-rule:evenodd;fill:rgb(12.54902%,58.431373%,94.901961%);fill-opacity:1;" d="M 41.238281 43.699219 L 24.625 27.089844 L 7.542969 44.222656 C 8.65625 44.777344 9.875 45.152344 11.207031 45.152344 L 36.792969 45.152344 C 38.46875 45.152344 39.933594 44.535156 41.238281 43.699219 Z M 41.238281 43.699219 "/>
<path style=" stroke:none;fill-rule:evenodd;fill:rgb(100%,89.803922%,0%);fill-opacity:1;" d="M 44.582031 39.621094 L 28.332031 23.371094 L 24.625 27.089844 L 41.238281 43.699219 C 42.761719 42.714844 43.957031 41.347656 44.582031 39.621094 Z M 44.582031 39.621094 "/>
<path style=" stroke:none;fill-rule:evenodd;fill:rgb(0%,63.921569%,10.980392%);fill-opacity:1;" d="M 44.175781 7.480469 L 28.332031 23.371094 L 44.582031 39.621094 C 44.90625 38.730469 45.152344 37.796875 45.152344 36.792969 L 45.152344 11.207031 C 45.152344 9.84375 44.753906 8.613281 44.175781 7.480469 Z M 44.175781 7.480469 "/>
<path style=" stroke:none;fill-rule:evenodd;fill:rgb(100%,100%,100%);fill-opacity:1;" d="M 40.542969 3.832031 L 3.816406 40.519531 C 4.636719 42.136719 5.921875 43.421875 7.542969 44.222656 L 44.175781 7.480469 C 43.378906 5.902344 42.121094 4.640625 40.542969 3.832031 Z M 40.542969 3.832031 "/>
<path style=" stroke:none;fill-rule:evenodd;fill:rgb(91.372549%,89.803922%,86.27451%);fill-opacity:1;" d="M 11.207031 2.847656 C 6.578125 2.847656 2.847656 6.578125 2.847656 11.207031 L 2.847656 36.792969 C 2.847656 38.15625 3.246094 39.390625 3.816406 40.519531 L 40.542969 3.832031 C 39.402344 3.253906 38.160156 2.847656 36.792969 2.847656 Z M 11.207031 2.847656 "/>
<path style=" stroke:none;fill-rule:nonzero;fill:rgb(95.294118%,25.882353%,20.784314%);fill-opacity:1;" d="M 14.46875 7.128906 C 10.644531 7.128906 7.550781 10.171875 7.550781 13.921875 C 7.550781 14.15625 7.574219 14.371094 7.59375 14.597656 C 7.613281 14.828125 7.644531 15.058594 7.683594 15.28125 C 8.472656 20.050781 11.699219 23.433594 14.46875 26.152344 C 17.234375 23.433594 20.457031 20.050781 21.25 15.28125 C 21.285156 15.058594 21.316406 14.828125 21.339844 14.597656 C 21.359375 14.371094 21.378906 14.15625 21.378906 13.921875 C 21.378906 10.171875 18.285156 7.128906 14.464844 7.128906 Z M 14.46875 7.128906 "/>
<path style=" stroke:none;fill-rule:nonzero;fill:rgb(100%,100%,100%);fill-opacity:1;" d="M 14.46875 10.589844 C 15.894531 10.589844 17.058594 11.75 17.058594 13.183594 C 17.058594 14.613281 15.894531 15.777344 14.46875 15.777344 C 13.035156 15.777344 11.875 14.613281 11.875 13.183594 C 11.875 11.75 13.035156 10.589844 14.46875 10.589844 Z M 14.46875 10.589844 "/>
</g>
</svg>
