<?xml version="1.0" encoding="UTF-8"?>
<svg xmlns="http://www.w3.org/2000/svg" xmlns:xlink="http://www.w3.org/1999/xlink" width="48pt" height="48pt" viewBox="0 0 48 48" version="1.1">
<g id="surface1">
<path style=" stroke:none;fill-rule:evenodd;fill:rgb(56.078431%,15.294118%,7.45098%);fill-opacity:1;" d="M 11.207031 2.847656 L 36.792969 2.847656 C 41.40625 2.847656 45.152344 6.59375 45.152344 11.207031 L 45.152344 36.792969 C 45.152344 41.40625 41.40625 45.152344 36.792969 45.152344 L 11.207031 45.152344 C 6.59375 45.152344 2.847656 41.40625 2.847656 36.792969 L 2.847656 11.207031 C 2.847656 6.59375 6.59375 2.847656 11.207031 2.847656 Z M 11.207031 2.847656 "/>
<path style=" stroke:none;fill-rule:nonzero;fill:rgb(72.156863%,19.607843%,16.078431%);fill-opacity:1;" d="M 23.183594 16.378906 L 24.816406 16.378906 C 26.171875 16.378906 27.265625 17.402344 27.265625 18.667969 L 27.265625 36.957031 C 27.265625 38.21875 26.171875 39.246094 24.816406 39.246094 L 23.183594 39.246094 C 21.828125 39.246094 20.734375 38.21875 20.734375 36.957031 L 20.734375 18.667969 C 20.734375 17.402344 21.828125 16.378906 23.183594 16.378906 Z M 23.183594 16.378906 "/>
<path style=" stroke:none;fill-rule:nonzero;fill:rgb(83.529412%,29.803922%,25.490196%);fill-opacity:1;" d="M 22.207031 23.984375 C 18.609375 23.917969 17.152344 23.859375 16.253906 23.738281 C 15.597656 23.65625 15.28125 23.566406 14.917969 23.390625 C 14.316406 23.09375 13.941406 22.683594 13.675781 22.015625 C 13.425781 21.40625 13.328125 20.921875 13.238281 19.902344 C 13.136719 18.746094 13.125 18.535156 13.113281 16.734375 C 13.105469 14.621094 13.128906 13.925781 13.269531 12.527344 C 13.34375 11.785156 13.453125 11.296875 13.65625 10.78125 C 13.84375 10.308594 14.011719 10.046875 14.324219 9.761719 C 14.707031 9.394531 15.136719 9.175781 15.671875 9.0625 C 16.472656 8.890625 20.097656 8.753906 24 8.753906 C 27.902344 8.753906 31.53125 8.890625 32.332031 9.0625 C 32.910156 9.1875 33.339844 9.417969 33.753906 9.832031 C 34.078125 10.160156 34.246094 10.453125 34.449219 11.050781 C 34.652344 11.671875 34.730469 12.21875 34.847656 13.839844 C 34.902344 14.605469 34.902344 18.144531 34.847656 18.910156 C 34.78125 19.8125 34.703125 20.609375 34.652344 20.894531 C 34.511719 21.636719 34.246094 22.324219 33.941406 22.714844 C 33.734375 22.984375 33.328125 23.300781 32.984375 23.464844 C 32.640625 23.628906 32.3125 23.707031 31.78125 23.761719 C 30.136719 23.921875 25.105469 24.042969 22.207031 23.984375 Z M 22.207031 23.984375 "/>
<path style="fill:none;stroke-width:1.377649;stroke-linecap:round;stroke-linejoin:round;stroke:rgb(99.607843%,99.607843%,99.607843%);stroke-opacity:1;stroke-miterlimit:4;" d="M 8.498267 11.497531 L 8.498267 6.499963 L 10.600618 8.498273 L 12.498474 6.499963 L 12.498474 11.497531 " transform="matrix(1.088811,0,0,1.088811,6.579028,6.579021)"/>
<path style="fill:none;stroke-width:1.377649;stroke-linecap:round;stroke-linejoin:round;stroke:rgb(99.607843%,99.607843%,99.607843%);stroke-opacity:1;stroke-miterlimit:4;" d="M 14.503959 11.497531 L 16.602723 6.499963 L 18.701487 11.497531 " transform="matrix(1.088811,0,0,1.088811,6.579028,6.579021)"/>
<path style="fill:none;stroke-width:1.377649;stroke-linecap:round;stroke-linejoin:round;stroke:rgb(99.607843%,99.607843%,99.607843%);stroke-opacity:1;stroke-miterlimit:4;" d="M 21.499838 11.497531 L 21.499838 6.499963 " transform="matrix(1.088811,0,0,1.088811,6.579028,6.579021)"/>
<path style="fill:none;stroke-width:1.377649;stroke-linecap:round;stroke-linejoin:round;stroke:rgb(99.607843%,99.607843%,99.607843%);stroke-opacity:1;stroke-miterlimit:4;" d="M 19.505116 6.499963 L 23.501736 6.499963 " transform="matrix(1.088811,0,0,1.088811,6.579028,6.579021)"/>
<path style="fill:none;stroke-width:1.377649;stroke-linecap:butt;stroke-linejoin:miter;stroke:rgb(99.607843%,99.607843%,99.607843%);stroke-opacity:1;stroke-miterlimit:4;" d="M 15.19996 10.50017 L 18.005486 10.50017 " transform="matrix(1.088811,0,0,1.088811,6.579028,6.579021)"/>
</g>
</svg>
