<?xml version="1.0" encoding="UTF-8"?>
<svg xmlns="http://www.w3.org/2000/svg" xmlns:xlink="http://www.w3.org/1999/xlink" width="48pt" height="48pt" viewBox="0 0 48 48" version="1.1">
<g id="surface1">
<path style=" stroke:none;fill-rule:evenodd;fill:rgb(89.411765%,37.254902%,3.921569%);fill-opacity:1;" d="M 11.207031 2.847656 L 36.792969 2.847656 C 41.40625 2.847656 45.152344 6.59375 45.152344 11.207031 L 45.152344 36.792969 C 45.152344 41.40625 41.40625 45.152344 36.792969 45.152344 L 11.207031 45.152344 C 6.59375 45.152344 2.847656 41.40625 2.847656 36.792969 L 2.847656 11.207031 C 2.847656 6.59375 6.59375 2.847656 11.207031 2.847656 Z M 11.207031 2.847656 "/>
<path style=" stroke:none;fill-rule:evenodd;fill:rgb(58.039216%,76.470588%,89.411765%);fill-opacity:1;" d="M 44.96875 10.285156 C 44.488281 6.113281 41.09375 2.847656 36.792969 2.847656 L 16.984375 2.847656 C 15.894531 3.738281 14.816406 4.667969 13.894531 5.753906 C 12.761719 7.09375 11.769531 8.566406 10.972656 10.125 C 10.171875 11.683594 9.566406 13.324219 9.199219 15.011719 C 8.828125 16.691406 8.691406 18.417969 8.839844 20.136719 C 8.972656 21.746094 9.421875 23.394531 10.113281 24.941406 C 10.8125 26.488281 11.753906 27.9375 12.894531 29.152344 C 14.035156 30.363281 15.355469 31.332031 16.8125 31.957031 C 18.269531 32.578125 19.863281 32.847656 21.558594 32.660156 C 22.550781 32.558594 23.464844 32.285156 24.265625 31.871094 C 25.074219 31.457031 25.765625 30.90625 26.324219 30.230469 C 26.875 29.558594 27.285156 28.765625 27.527344 27.875 C 27.765625 26.984375 27.828125 26 27.6875 24.9375 C 27.683594 24.925781 27.691406 24.90625 27.6875 24.894531 C 27.578125 24.605469 27.378906 24.40625 27.105469 24.234375 C 26.800781 24.046875 26.378906 23.941406 25.933594 23.878906 C 25.75 23.859375 25.574219 23.847656 25.386719 23.84375 L 25.152344 24.660156 C 24.902344 25.609375 24.121094 26.578125 22.964844 27.203125 C 22.390625 27.515625 21.703125 27.730469 20.964844 27.769531 C 20.222656 27.8125 19.433594 27.683594 18.636719 27.316406 L 18.59375 27.277344 C 17.621094 26.71875 16.730469 25.847656 15.996094 24.769531 C 15.261719 23.699219 14.683594 22.410156 14.339844 21.03125 C 14 19.652344 13.910156 18.171875 14.167969 16.699219 C 14.425781 15.230469 15.035156 13.769531 16.09375 12.449219 C 17.09375 11.203125 18.15625 10.136719 19.269531 9.238281 C 20.378906 8.34375 21.535156 7.613281 22.730469 7.035156 C 23.921875 6.457031 25.152344 6.035156 26.390625 5.753906 C 27.628906 5.46875 28.890625 5.328125 30.144531 5.308594 C 32.660156 5.269531 35.171875 5.714844 37.578125 6.515625 C 39.988281 7.316406 42.292969 8.472656 44.390625 9.875 C 44.589844 10.003906 44.777344 10.152344 44.96875 10.285156 Z M 44.96875 10.285156 "/>
<path style=" stroke:none;fill-rule:evenodd;fill:rgb(58.039216%,76.470588%,89.411765%);fill-opacity:1;" d="M 3.042969 37.761719 C 3.542969 41.910156 6.921875 45.152344 11.207031 45.152344 L 31.042969 45.152344 C 32.125 44.261719 33.191406 43.332031 34.109375 42.25 C 35.246094 40.90625 36.234375 39.441406 37.03125 37.886719 C 37.828125 36.332031 38.433594 34.691406 38.800781 33.015625 C 39.171875 31.339844 39.308594 29.613281 39.160156 27.902344 C 39.019531 26.292969 38.578125 24.644531 37.886719 23.097656 C 37.1875 21.546875 36.246094 20.097656 35.105469 18.886719 C 33.964844 17.675781 32.644531 16.699219 31.1875 16.066406 C 29.730469 15.4375 28.136719 15.152344 26.441406 15.339844 C 25.441406 15.449219 24.527344 15.722656 23.722656 16.136719 C 22.917969 16.550781 22.222656 17.097656 21.675781 17.753906 C 21.136719 18.40625 20.730469 19.15625 20.488281 20.011719 C 20.25 20.863281 20.175781 21.816406 20.3125 22.871094 C 20.515625 23.550781 21.175781 23.921875 22.066406 24.078125 C 22.238281 24.109375 22.4375 24.144531 22.613281 24.15625 L 22.847656 23.375 C 23.097656 22.425781 23.878906 21.464844 25.035156 20.839844 C 25.609375 20.527344 26.296875 20.3125 27.035156 20.269531 C 27.777344 20.230469 28.574219 20.355469 29.363281 20.722656 L 29.40625 20.722656 C 30.378906 21.28125 31.269531 22.160156 32.003906 23.246094 C 32.738281 24.332031 33.316406 25.625 33.660156 27.003906 C 34 28.386719 34.089844 29.871094 33.832031 31.34375 C 33.574219 32.8125 32.964844 34.269531 31.90625 35.59375 C 30.90625 36.839844 29.84375 37.902344 28.730469 38.800781 C 27.621094 39.699219 26.464844 40.425781 25.269531 41.003906 C 24.078125 41.578125 22.847656 42.003906 21.609375 42.285156 C 20.371094 42.574219 19.109375 42.71875 17.855469 42.734375 C 15.339844 42.769531 12.828125 42.328125 10.421875 41.527344 C 8.011719 40.730469 5.707031 39.566406 3.609375 38.167969 C 3.417969 38.035156 3.234375 37.894531 3.042969 37.761719 Z M 3.042969 37.761719 "/>
<path style=" stroke:none;fill-rule:evenodd;fill:rgb(89.411765%,37.254902%,3.921569%);fill-opacity:1;" d="M 3.042969 37.761719 C 3.234375 37.894531 3.417969 38.035156 3.609375 38.167969 C 5.707031 39.566406 8.011719 40.730469 10.421875 41.527344 C 12.828125 42.328125 15.339844 42.769531 17.855469 42.734375 C 19.109375 42.71875 20.371094 42.574219 21.609375 42.285156 C 22.847656 42.003906 24.078125 41.578125 25.269531 41.003906 C 26.464844 40.425781 27.621094 39.699219 28.730469 38.800781 C 29.84375 37.902344 30.90625 36.839844 31.90625 35.59375 C 32.964844 34.269531 33.574219 32.8125 33.832031 31.34375 C 34.089844 29.871094 34 28.386719 33.660156 27.003906 C 33.316406 25.625 32.738281 24.332031 32.003906 23.246094 C 31.269531 22.160156 30.378906 21.28125 29.40625 20.722656 L 29.363281 20.722656 C 28.574219 20.355469 27.777344 20.230469 27.035156 20.269531 C 26.296875 20.3125 25.609375 20.527344 25.035156 20.839844 C 23.878906 21.464844 23.097656 22.425781 22.847656 23.375 L 22.613281 24.15625 C 22.4375 24.144531 22.238281 24.109375 22.066406 24.078125 C 21.175781 23.921875 20.515625 23.550781 20.3125 22.871094 C 20.175781 21.816406 20.25 20.863281 20.488281 20.011719 C 20.730469 19.15625 21.136719 18.40625 21.675781 17.753906 C 22.222656 17.097656 22.917969 16.550781 23.722656 16.136719 C 24.527344 15.722656 25.441406 15.449219 26.441406 15.339844 C 28.136719 15.152344 29.730469 15.4375 31.1875 16.066406 C 32.644531 16.699219 33.964844 17.675781 35.105469 18.886719 C 36.246094 20.097656 37.1875 21.546875 37.886719 23.097656 C 38.578125 24.644531 39.019531 26.292969 39.160156 27.902344 C 39.308594 29.613281 39.171875 31.339844 38.800781 33.015625 C 38.433594 34.691406 37.828125 36.332031 37.03125 37.886719 C 36.234375 39.441406 35.246094 40.90625 34.109375 42.25 C 33.191406 43.332031 32.125 44.261719 31.042969 45.152344 L 36.792969 45.152344 C 41.421875 45.152344 45.152344 41.421875 45.152344 36.792969 L 45.152344 11.207031 C 45.152344 10.878906 45.003906 10.605469 44.96875 10.285156 C 44.777344 10.152344 44.589844 10.003906 44.390625 9.875 C 42.292969 8.472656 39.988281 7.316406 37.578125 6.515625 C 35.171875 5.714844 32.660156 5.269531 30.144531 5.308594 C 28.890625 5.328125 27.628906 5.46875 26.390625 5.753906 C 25.152344 6.035156 23.921875 6.457031 22.730469 7.035156 C 21.535156 7.613281 20.378906 8.34375 19.269531 9.238281 C 18.15625 10.136719 17.09375 11.203125 16.09375 12.449219 C 15.035156 13.769531 14.425781 15.230469 14.167969 16.699219 C 13.910156 18.171875 14 19.652344 14.339844 21.03125 C 14.683594 22.410156 15.261719 23.699219 15.996094 24.769531 C 16.730469 25.847656 17.621094 26.71875 18.59375 27.277344 L 18.636719 27.316406 C 19.433594 27.683594 20.222656 27.8125 20.964844 27.769531 C 21.703125 27.730469 22.390625 27.515625 22.964844 27.203125 C 24.121094 26.578125 24.902344 25.609375 25.152344 24.660156 L 25.386719 23.84375 C 25.574219 23.847656 25.75 23.859375 25.933594 23.878906 C 26.378906 23.941406 26.800781 24.046875 27.105469 24.234375 C 27.378906 24.40625 27.578125 24.605469 27.6875 24.894531 C 27.691406 24.90625 27.683594 24.925781 27.6875 24.9375 C 27.828125 26 27.765625 26.984375 27.527344 27.875 C 27.285156 28.765625 26.875 29.558594 26.324219 30.230469 C 25.765625 30.90625 25.074219 31.457031 24.265625 31.871094 C 23.464844 32.285156 22.550781 32.558594 21.558594 32.660156 C 19.863281 32.847656 18.269531 32.578125 16.8125 31.957031 C 15.355469 31.332031 14.035156 30.363281 12.894531 29.152344 C 11.753906 27.9375 10.8125 26.488281 10.113281 24.941406 C 9.421875 23.394531 8.972656 21.746094 8.839844 20.136719 C 8.691406 18.417969 8.828125 16.691406 9.199219 15.011719 C 9.566406 13.324219 10.171875 11.683594 10.972656 10.125 C 11.769531 8.566406 12.761719 7.09375 13.894531 5.753906 C 14.816406 4.667969 15.894531 3.738281 16.984375 2.847656 L 11.207031 2.847656 C 6.578125 2.847656 2.847656 6.578125 2.847656 11.207031 L 2.847656 36.792969 C 2.847656 37.136719 3.003906 37.425781 3.042969 37.761719 Z M 3.042969 37.761719 "/>
</g>
</svg>
