<?xml version="1.0" encoding="UTF-8"?>
<svg xmlns="http://www.w3.org/2000/svg" xmlns:xlink="http://www.w3.org/1999/xlink" width="48pt" height="48pt" viewBox="0 0 48 48" version="1.1">
<g id="surface1">
<path style=" stroke:none;fill-rule:evenodd;fill:rgb(37.254902%,50.588235%,83.137255%);fill-opacity:1;" d="M 11.207031 2.847656 L 36.792969 2.847656 C 41.40625 2.847656 45.152344 6.59375 45.152344 11.207031 L 45.152344 36.792969 C 45.152344 41.40625 41.40625 45.152344 36.792969 45.152344 L 11.207031 45.152344 C 6.59375 45.152344 2.847656 41.40625 2.847656 36.792969 L 2.847656 11.207031 C 2.847656 6.59375 6.59375 2.847656 11.207031 2.847656 Z M 11.207031 2.847656 "/>
<path style=" stroke:none;fill-rule:nonzero;fill:rgb(100%,100%,100%);fill-opacity:1;" d="M 39.808594 24 C 39.808594 29.375 35.453125 33.730469 30.078125 33.730469 C 24.707031 33.730469 20.355469 29.375 20.355469 24 C 20.355469 18.625 24.707031 14.269531 30.078125 14.269531 C 35.453125 14.269531 39.808594 18.625 39.808594 24 Z M 39.808594 24 "/>
<path style=" stroke:none;fill-rule:nonzero;fill:rgb(100%,100%,100%);fill-opacity:1;" d="M 28.863281 17.3125 C 28.863281 23.019531 24.234375 27.644531 18.527344 27.644531 C 12.816406 27.644531 8.191406 23.019531 8.191406 17.3125 C 8.191406 11.605469 12.816406 6.972656 18.527344 6.972656 C 24.234375 6.972656 28.863281 11.605469 28.863281 17.3125 Z M 28.863281 17.3125 "/>
<path style=" stroke:none;fill-rule:nonzero;fill:rgb(100%,100%,100%);fill-opacity:1;" d="M 28.863281 30.6875 C 28.863281 36.394531 24.234375 41.027344 18.527344 41.027344 C 12.816406 41.027344 8.191406 36.394531 8.191406 30.6875 C 8.191406 24.980469 12.816406 20.355469 18.527344 20.355469 C 24.234375 20.355469 28.863281 24.980469 28.863281 30.6875 Z M 28.863281 30.6875 "/>
<path style=" stroke:none;fill-rule:nonzero;fill:rgb(86.27451%,90.980392%,87.843137%);fill-opacity:1;" d="M 20.355469 24 C 20.355469 27.359375 17.628906 30.078125 14.269531 30.078125 C 10.917969 30.078125 8.191406 27.359375 8.191406 24 C 8.191406 20.640625 10.917969 17.921875 14.269531 17.921875 C 17.628906 17.921875 20.355469 20.640625 20.355469 24 Z M 20.355469 24 "/>
<path style=" stroke:none;fill-rule:nonzero;fill:rgb(86.27451%,90.980392%,87.843137%);fill-opacity:1;" d="M 31.296875 30.078125 C 31.296875 33.4375 28.574219 36.160156 25.214844 36.160156 C 21.859375 36.160156 19.136719 33.4375 19.136719 30.078125 C 19.136719 26.722656 21.859375 24 25.214844 24 C 28.574219 24 31.296875 26.722656 31.296875 30.078125 Z M 31.296875 30.078125 "/>
<path style=" stroke:none;fill-rule:nonzero;fill:rgb(86.27451%,90.980392%,87.843137%);fill-opacity:1;" d="M 31.296875 17.921875 C 31.296875 21.277344 28.574219 24 25.214844 24 C 21.859375 24 19.136719 21.277344 19.136719 17.921875 C 19.136719 14.5625 21.859375 11.839844 25.214844 11.839844 C 28.574219 11.839844 31.296875 14.5625 31.296875 17.921875 Z M 31.296875 17.921875 "/>
<path style=" stroke:none;fill-rule:nonzero;fill:rgb(100%,74.901961%,0%);fill-opacity:1;" d="M 14.667969 11.90625 C 15.089844 11.703125 15.488281 12.03125 15.488281 12.03125 L 25.082031 17.625 L 34.355469 23.035156 C 34.355469 23.035156 34.941406 23.316406 34.941406 23.996094 C 34.941406 24.671875 34.355469 24.890625 34.355469 24.890625 L 25.0625 30.300781 L 15.25 36.015625 C 15.25 36.015625 14.964844 36.265625 14.597656 36.105469 C 14.175781 35.921875 14.285156 35.453125 14.285156 35.453125 L 14.285156 12.660156 C 14.285156 12.660156 14.238281 12.121094 14.667969 11.90625 Z M 14.667969 11.90625 "/>
</g>
</svg>
