<?xml version="1.0" encoding="UTF-8"?>
<svg xmlns="http://www.w3.org/2000/svg" xmlns:xlink="http://www.w3.org/1999/xlink" width="48pt" height="48pt" viewBox="0 0 48 48" version="1.1">
<g id="surface1">
<path style=" stroke:none;fill-rule:evenodd;fill:rgb(29.411765%,66.27451%,75.294118%);fill-opacity:1;" d="M 11.207031 2.847656 L 36.792969 2.847656 C 41.40625 2.847656 45.152344 6.59375 45.152344 11.207031 L 45.152344 36.792969 C 45.152344 41.40625 41.40625 45.152344 36.792969 45.152344 L 11.207031 45.152344 C 6.59375 45.152344 2.847656 41.40625 2.847656 36.792969 L 2.847656 11.207031 C 2.847656 6.59375 6.59375 2.847656 11.207031 2.847656 Z M 11.207031 2.847656 "/>
<path style=" stroke:none;fill-rule:nonzero;fill:rgb(100%,100%,100%);fill-opacity:1;" d="M 22.636719 34.449219 C 21.71875 34.363281 19.894531 34.03125 19.105469 33.808594 C 17.421875 33.324219 15.925781 32.832031 14.703125 31.785156 C 14.457031 31.578125 14.167969 31.410156 14.042969 31.410156 C 13.917969 31.410156 12.746094 31.769531 11.433594 32.214844 C 10.121094 32.65625 8.984375 33.019531 8.90625 33.019531 C 8.65625 33.019531 8.472656 32.410156 8.171875 31.464844 C 7.839844 30.425781 7.816406 30.234375 8.011719 30.078125 C 8.082031 30.015625 9.015625 29.675781 10.082031 29.324219 C 11.144531 28.972656 12.035156 28.640625 12.050781 28.589844 C 12.089844 28.472656 10.589844 28.363281 9 28.363281 C 8.011719 28.363281 7.949219 28.355469 7.714844 28.121094 C 7.484375 27.894531 7.472656 27.832031 7.527344 27.300781 C 7.5625 26.984375 7.589844 26.503906 7.589844 26.230469 C 7.589844 25.417969 7.59375 25.410156 9.722656 25.449219 L 11.09375 25.480469 L 11.207031 24.671875 C 11.347656 23.734375 11.660156 22.863281 12.136719 22.089844 C 12.390625 21.671875 12.464844 21.464844 12.433594 21.234375 C 11.980469 18.019531 11.917969 16.785156 12.152344 14.410156 C 12.339844 12.488281 12.636719 12 13.609375 12 C 14.625 12 16.871094 13.175781 19.640625 15.871094 L 21.035156 16.78125 L 21.953125 16.683594 C 23.105469 16.550781 24.605469 16.550781 26.0625 16.683594 L 27.191406 16.777344 L 28.785156 15.730469 C 31.207031 14.125 32.066406 13.109375 33.015625 12.546875 C 33.6875 12.144531 33.890625 12.066406 34.394531 12.035156 C 34.953125 12.003906 35.011719 12.019531 35.277344 12.285156 C 35.832031 12.832031 36.066406 14 36.074219 16.417969 C 36.074219 17.871094 36.035156 18 35.777344 20.285156 L 35.65625 21.339844 L 36.074219 21.96875 C 36.589844 22.761719 36.738281 23.6875 37.066406 24.671875 L 37.1875 25.480469 L 38.457031 25.449219 C 39.71875 25.421875 40.0625 25.4375 40.214844 25.550781 C 40.363281 25.667969 40.40625 25.871094 40.46875 26.800781 C 40.515625 27.457031 40.511719 27.984375 40.457031 28.082031 C 40.355469 28.269531 39.894531 28.359375 39.027344 28.363281 C 38.683594 28.363281 38.21875 28.390625 37.625 28.425781 C 35.171875 28.5 35.234375 28.5 38.113281 29.375 C 39.113281 29.683594 39.988281 30.035156 40.066406 30.121094 C 40.199219 30.246094 40.199219 30.328125 40.050781 30.875 C 39.816406 31.753906 39.480469 32.84375 39.285156 32.964844 C 39.152344 33.046875 38.644531 32.90625 36.800781 32.285156 C 35.527344 31.855469 34.40625 31.503906 34.300781 31.503906 C 34.203125 31.503906 33.730469 31.5 33.25 31.859375 C 31.410156 33.246094 29.09375 34.121094 26.457031 34.421875 C 25.652344 34.511719 23.480469 34.53125 22.636719 34.453125 Z M 22.636719 34.449219 "/>
<path style=" stroke:none;fill-rule:nonzero;fill:rgb(18.823529%,18.823529%,18.823529%);fill-opacity:1;" d="M 19.5 24.75 C 19.5 25.996094 18.496094 27 17.25 27 C 16.003906 27 15 25.996094 15 24.75 C 15 23.503906 16.003906 22.5 17.25 22.5 C 18.496094 22.5 19.5 23.503906 19.5 24.75 Z M 19.5 24.75 "/>
<path style=" stroke:none;fill-rule:nonzero;fill:rgb(18.823529%,18.823529%,18.823529%);fill-opacity:1;" d="M 33 24.75 C 33 25.996094 31.996094 27 30.75 27 C 29.503906 27 28.5 25.996094 28.5 24.75 C 28.5 23.503906 29.503906 22.5 30.75 22.5 C 31.996094 22.5 33 23.503906 33 24.75 Z M 33 24.75 "/>
</g>
</svg>
