<?xml version="1.0" encoding="UTF-8"?>
<svg xmlns="http://www.w3.org/2000/svg" xmlns:xlink="http://www.w3.org/1999/xlink" width="48pt" height="48pt" viewBox="0 0 48 48" version="1.1">
<g id="surface1">
<path style=" stroke:none;fill-rule:evenodd;fill:rgb(80%,80%,80%);fill-opacity:1;" d="M 11.207031 2.847656 L 36.792969 2.847656 C 41.40625 2.847656 45.152344 6.59375 45.152344 11.207031 L 45.152344 36.792969 C 45.152344 41.40625 41.40625 45.152344 36.792969 45.152344 L 11.207031 45.152344 C 6.59375 45.152344 2.847656 41.40625 2.847656 36.792969 L 2.847656 11.207031 C 2.847656 6.59375 6.59375 2.847656 11.207031 2.847656 Z M 11.207031 2.847656 "/>
<path style=" stroke:none;fill-rule:evenodd;fill:rgb(30.196078%,30.196078%,30.196078%);fill-opacity:1;" d="M 13.5 9.75 L 34.5 9.75 L 34.5 21.75 L 13.5 21.75 Z M 13.5 9.75 "/>
<path style=" stroke:none;fill-rule:nonzero;fill:rgb(30.980392%,30.980392%,30.980392%);fill-opacity:1;" d="M 14.699219 27.75 C 14.121094 27.75 13.652344 28.21875 13.652344 28.800781 L 13.652344 30.902344 L 11.550781 30.902344 C 10.96875 30.902344 10.5 31.371094 10.5 31.949219 L 10.5 34.050781 C 10.5 34.628906 10.96875 35.097656 11.550781 35.097656 L 13.652344 35.097656 L 13.652344 37.199219 C 13.652344 37.78125 14.121094 38.25 14.699219 38.25 L 16.800781 38.25 C 17.378906 38.25 17.847656 37.78125 17.847656 37.199219 L 17.847656 35.097656 L 19.949219 35.097656 C 20.53125 35.097656 21 34.628906 21 34.050781 L 21 31.949219 C 21 31.371094 20.53125 30.902344 19.949219 30.902344 L 17.847656 30.902344 L 17.847656 28.800781 C 17.847656 28.21875 17.378906 27.75 16.800781 27.75 Z M 14.699219 27.75 "/>
<path style=" stroke:none;fill-rule:nonzero;fill:rgb(93.72549%,33.72549%,27.45098%);fill-opacity:1;" d="M 37.5 30 C 37.5 31.246094 36.496094 32.25 35.25 32.25 C 34.003906 32.25 33 31.246094 33 30 C 33 28.753906 34.003906 27.75 35.25 27.75 C 36.496094 27.75 37.5 28.753906 37.5 30 Z M 37.5 30 "/>
<path style=" stroke:none;fill-rule:nonzero;fill:rgb(93.72549%,33.72549%,27.45098%);fill-opacity:1;" d="M 31.5 30 C 31.5 31.246094 30.496094 32.25 29.25 32.25 C 28.003906 32.25 27 31.246094 27 30 C 27 28.753906 28.003906 27.75 29.25 27.75 C 30.496094 27.75 31.5 28.753906 31.5 30 Z M 31.5 30 "/>
<path style=" stroke:none;fill-rule:nonzero;fill:rgb(92.156863%,57.254902%,0%);fill-opacity:1;" d="M 37.5 36 C 37.5 37.246094 36.496094 38.25 35.25 38.25 C 34.003906 38.25 33 37.246094 33 36 C 33 34.753906 34.003906 33.75 35.25 33.75 C 36.496094 33.75 37.5 34.753906 37.5 36 Z M 37.5 36 "/>
<path style=" stroke:none;fill-rule:nonzero;fill:rgb(92.156863%,57.254902%,0%);fill-opacity:1;" d="M 31.5 36 C 31.5 37.246094 30.496094 38.25 29.25 38.25 C 28.003906 38.25 27 37.246094 27 36 C 27 34.753906 28.003906 33.75 29.25 33.75 C 30.496094 33.75 31.5 34.753906 31.5 36 Z M 31.5 36 "/>
</g>
</svg>
