<?xml version="1.0" encoding="UTF-8"?>
<svg xmlns="http://www.w3.org/2000/svg" xmlns:xlink="http://www.w3.org/1999/xlink" width="48pt" height="48pt" viewBox="0 0 48 48" version="1.1">
<defs>
<linearGradient id="linear0" gradientUnits="userSpaceOnUse" x1="56" y1="92.001" x2="56" y2="4.001" gradientTransform="matrix(0.500507,0,0,0.502825,1.977685,-0.135591)">
<stop offset="0" style="stop-color:rgb(94.901961%,94.901961%,94.901961%);stop-opacity:1;"/>
<stop offset="1" style="stop-color:rgb(100%,100%,100%);stop-opacity:1;"/>
</linearGradient>
</defs>
<g id="surface1">
<path style=" stroke:none;fill-rule:evenodd;fill:rgb(49.411765%,76.078431%,25.882353%);fill-opacity:1;" d="M 11.207031 2.847656 L 36.792969 2.847656 C 41.40625 2.847656 45.152344 6.59375 45.152344 11.207031 L 45.152344 36.792969 C 45.152344 41.40625 41.40625 45.152344 36.792969 45.152344 L 11.207031 45.152344 C 6.59375 45.152344 2.847656 41.40625 2.847656 36.792969 L 2.847656 11.207031 C 2.847656 6.59375 6.59375 2.847656 11.207031 2.847656 Z M 11.207031 2.847656 "/>
<path style=" stroke:none;fill-rule:nonzero;fill:url(#linear0);" d="M 8.484375 10.421875 L 8.484375 18.46875 L 12.488281 18.46875 L 12.488281 27.613281 C 12.488281 33.128906 16.917969 37.578125 22.40625 37.578125 L 39.515625 37.578125 L 39.515625 20.386719 C 39.515625 14.871094 35.089844 10.421875 29.597656 10.421875 Z M 10.484375 12.4375 L 29.597656 12.4375 C 34.015625 12.4375 37.515625 15.953125 37.515625 20.386719 L 37.515625 35.5625 L 22.40625 35.5625 C 17.988281 35.5625 14.488281 32.046875 14.488281 27.613281 L 14.488281 18.46875 C 14.488281 17.417969 13.535156 16.457031 12.488281 16.457031 L 10.484375 16.457031 Z M 10.484375 12.4375 "/>
<path style=" stroke:none;fill-rule:nonzero;fill:rgb(100%,100%,100%);fill-opacity:1;" d="M 17.496094 14.449219 L 17.496094 28.527344 C 17.496094 30.753906 19.28125 32.546875 21.5 32.546875 L 30.503906 32.546875 C 32.722656 32.546875 34.511719 30.753906 34.511719 28.527344 L 34.511719 20.984375 C 34.511719 19.042969 32.941406 17.464844 31.003906 17.464844 C 30.027344 17.464844 29.140625 17.875 28.503906 18.53125 C 27.871094 17.875 26.984375 17.464844 26 17.464844 C 24.066406 17.464844 22.5 19.042969 22.5 20.984375 L 22.5 27.015625 L 24.5 27.015625 L 24.5 20.984375 C 24.5 20.152344 25.171875 19.472656 26 19.472656 C 26.832031 19.472656 27.503906 20.152344 27.503906 20.984375 L 27.503906 27.015625 L 29.503906 27.015625 L 29.503906 20.984375 C 29.503906 20.152344 30.175781 19.472656 31.003906 19.472656 C 31.839844 19.472656 32.511719 20.152344 32.511719 20.984375 L 32.511719 28.527344 C 32.511719 29.640625 31.613281 30.535156 30.503906 30.535156 L 21.5 30.535156 C 20.390625 30.535156 19.496094 29.640625 19.496094 28.527344 L 19.496094 14.449219 Z M 17.496094 14.449219 "/>
</g>
</svg>
