<?xml version="1.0" encoding="UTF-8"?>
<svg xmlns="http://www.w3.org/2000/svg" xmlns:xlink="http://www.w3.org/1999/xlink" width="48pt" height="48pt" viewBox="0 0 48 48" version="1.1">
<g id="surface1">
<path style=" stroke:none;fill-rule:evenodd;fill:rgb(80%,80%,80%);fill-opacity:1;" d="M 11.207031 2.847656 L 36.792969 2.847656 C 41.40625 2.847656 45.152344 6.59375 45.152344 11.207031 L 45.152344 36.792969 C 45.152344 41.40625 41.40625 45.152344 36.792969 45.152344 L 11.207031 45.152344 C 6.59375 45.152344 2.847656 41.40625 2.847656 36.792969 L 2.847656 11.207031 C 2.847656 6.59375 6.59375 2.847656 11.207031 2.847656 Z M 11.207031 2.847656 "/>
<path style=" stroke:none;fill-rule:nonzero;fill:rgb(100%,100%,100%);fill-opacity:1;" d="M 24 13.542969 C 20.0625 13.542969 16.707031 15.953125 15.265625 19.363281 C 11.597656 19.910156 8.785156 23.035156 8.785156 26.855469 C 8.785156 31.050781 12.191406 34.457031 16.394531 34.457031 L 32.558594 34.457031 C 36.234375 34.457031 39.214844 31.480469 39.214844 27.800781 C 39.214844 24.386719 36.640625 21.589844 33.328125 21.207031 C 32.464844 16.847656 28.613281 13.542969 24 13.542969 Z M 24 13.542969 "/>
<path style=" stroke:none;fill-rule:nonzero;fill:rgb(50.196078%,50.196078%,50.196078%);fill-opacity:1;" d="M 25.394531 18.246094 C 24.765625 18.277344 24.222656 18.71875 24.078125 19.339844 C 23.925781 19.953125 24.203125 20.59375 24.75 20.90625 C 24.75 20.90625 26.796875 21.941406 26.796875 25.464844 C 26.796875 27.21875 26.234375 28.285156 25.699219 28.972656 C 25.160156 29.667969 24.746094 29.875 24.746094 29.875 C 24.285156 30.113281 23.988281 30.578125 23.96875 31.097656 C 23.953125 31.613281 24.214844 32.105469 24.660156 32.371094 C 25.105469 32.636719 25.65625 32.640625 26.105469 32.386719 C 26.105469 32.386719 27.089844 31.839844 27.949219 30.730469 C 28.8125 29.621094 29.652344 27.859375 29.652344 25.464844 C 29.652344 20.6875 26.214844 18.457031 26.214844 18.457031 C 25.96875 18.308594 25.683594 18.234375 25.394531 18.246094 Z M 25.394531 18.246094 "/>
<path style=" stroke:none;fill-rule:nonzero;fill:rgb(50.196078%,50.196078%,50.196078%);fill-opacity:1;" d="M 19.683594 20.1875 C 19 20.199219 18.417969 20.691406 18.296875 21.371094 C 18.183594 22.046875 18.558594 22.707031 19.203125 22.953125 C 19.203125 22.953125 21.144531 23.71875 21.144531 25.503906 C 21.144531 27.292969 19.265625 27.875 19.265625 27.875 C 18.519531 28.128906 18.121094 28.9375 18.371094 29.683594 C 18.621094 30.433594 19.433594 30.832031 20.175781 30.582031 C 20.175781 30.582031 24 29.25 24 25.503906 C 24 21.761719 20.238281 20.296875 20.238281 20.296875 C 20.0625 20.222656 19.875 20.1875 19.683594 20.1875 Z M 19.683594 20.1875 "/>
</g>
</svg>
