<?xml version="1.0" encoding="UTF-8"?>
<svg xmlns="http://www.w3.org/2000/svg" xmlns:xlink="http://www.w3.org/1999/xlink" width="48pt" height="48pt" viewBox="0 0 48 48" version="1.1">
<g id="surface1">
<path style=" stroke:none;fill-rule:evenodd;fill:rgb(100%,48.627451%,25.098039%);fill-opacity:1;" d="M 11.207031 2.847656 L 36.792969 2.847656 C 41.40625 2.847656 45.152344 6.59375 45.152344 11.207031 L 45.152344 36.792969 C 45.152344 41.40625 41.40625 45.152344 36.792969 45.152344 L 11.207031 45.152344 C 6.59375 45.152344 2.847656 41.40625 2.847656 36.792969 L 2.847656 11.207031 C 2.847656 6.59375 6.59375 2.847656 11.207031 2.847656 Z M 11.207031 2.847656 "/>
<path style=" stroke:none;fill-rule:nonzero;fill:rgb(84.313725%,36.862745%,19.607843%);fill-opacity:1;" d="M 28.5 12 C 23.53125 12 19.5 13.34375 19.5 15 C 19.5 16.65625 23.53125 18 28.5 18 C 33.46875 18 37.5 16.65625 37.5 15 C 37.5 13.34375 33.46875 12 28.5 12 Z M 37.203125 17.246094 C 36.183594 18.574219 32.605469 19.5 28.5 19.5 C 24.402344 19.5 20.824219 18.574219 19.796875 17.253906 C 19.605469 17.496094 19.503906 17.75 19.5 18 C 19.5 19.65625 23.53125 21 28.5 21 C 33.46875 21 37.5 19.65625 37.5 18 C 37.5 17.746094 37.394531 17.496094 37.203125 17.246094 Z M 37.203125 20.246094 C 36.183594 21.574219 32.605469 22.5 28.5 22.5 C 24.402344 22.5 20.824219 21.574219 19.796875 20.253906 C 19.605469 20.496094 19.503906 20.75 19.5 21 C 19.503906 21.546875 19.953125 22.078125 20.796875 22.542969 C 23.527344 22.675781 25.839844 23.207031 27.199219 23.964844 C 27.628906 23.988281 28.0625 24 28.5 24 C 33.46875 24 37.5 22.65625 37.5 21 C 37.5 20.746094 37.394531 20.496094 37.203125 20.246094 Z M 37.203125 23.246094 C 36.183594 24.574219 32.605469 25.5 28.5 25.5 C 28.5 25.5 28.5 26.59375 28.5 27 C 33.46875 27 37.5 25.65625 37.5 24 C 37.5 23.746094 37.394531 23.496094 37.203125 23.246094 Z M 37.203125 26.246094 C 36.183594 27.574219 32.605469 28.5 28.5 28.5 C 28.5 29.152344 28.5 29.261719 28.5 30 C 33.46875 30 37.5 28.65625 37.5 27 C 37.5 26.746094 37.394531 26.496094 37.203125 26.246094 Z M 37.203125 29.246094 C 36.183594 30.574219 32.605469 31.5 28.5 31.5 C 28.5 32.167969 28.5 32.566406 28.5 33 C 33.46875 33 37.5 31.65625 37.5 30 C 37.5 29.746094 37.394531 29.496094 37.203125 29.246094 Z M 37.203125 32.246094 C 36.183594 33.574219 32.605469 34.5 28.5 34.5 C 28.5 35.035156 28.042969 35.53125 27.300781 35.96875 C 27.703125 35.988281 28.097656 36 28.5 36 C 33.46875 36 37.5 34.65625 37.5 33 C 37.5 32.746094 37.394531 32.496094 37.203125 32.246094 Z M 37.203125 32.246094 "/>
<path style=" stroke:none;fill-rule:nonzero;fill:rgb(100%,84.705882%,77.647059%);fill-opacity:1;" d="M 28.5 10.5 C 23.53125 10.5 19.5 11.84375 19.5 13.5 C 19.5 15.15625 23.53125 16.5 28.5 16.5 C 33.46875 16.5 37.5 15.15625 37.5 13.5 C 37.5 11.84375 33.46875 10.5 28.5 10.5 Z M 37.203125 15.746094 C 36.183594 17.074219 32.605469 18 28.5 18 C 24.402344 18 20.824219 17.074219 19.796875 15.753906 C 19.605469 15.996094 19.503906 16.25 19.5 16.5 C 19.5 18.15625 23.53125 19.5 28.5 19.5 C 33.46875 19.5 37.5 18.15625 37.5 16.5 C 37.5 16.246094 37.394531 15.996094 37.203125 15.746094 Z M 37.203125 18.746094 C 36.183594 20.074219 32.605469 21 28.5 21 C 24.402344 21 20.824219 20.074219 19.796875 18.753906 C 19.605469 18.996094 19.503906 19.25 19.5 19.5 C 19.503906 20.046875 19.953125 20.578125 20.796875 21.042969 C 23.527344 21.175781 25.839844 21.707031 27.199219 22.464844 C 27.628906 22.488281 28.0625 22.5 28.5 22.5 C 33.46875 22.5 37.5 21.15625 37.5 19.5 C 37.5 19.246094 37.394531 18.996094 37.203125 18.746094 Z M 37.203125 21.746094 C 36.183594 23.074219 32.605469 24 28.5 24 C 28.5 24 28.5 25.09375 28.5 25.5 C 33.46875 25.5 37.5 24.15625 37.5 22.5 C 37.5 22.246094 37.394531 21.996094 37.203125 21.746094 Z M 37.203125 24.746094 C 36.183594 26.074219 32.605469 27 28.5 27 C 28.5 27.652344 28.5 27.761719 28.5 28.5 C 33.46875 28.5 37.5 27.15625 37.5 25.5 C 37.5 25.246094 37.394531 24.996094 37.203125 24.746094 Z M 37.203125 27.746094 C 36.183594 29.074219 32.605469 30 28.5 30 C 28.5 30.667969 28.5 31.066406 28.5 31.5 C 33.46875 31.5 37.5 30.15625 37.5 28.5 C 37.5 28.246094 37.394531 27.996094 37.203125 27.746094 Z M 37.203125 30.746094 C 36.183594 32.074219 32.605469 33 28.5 33 C 28.5 33.535156 28.042969 34.03125 27.300781 34.46875 C 27.703125 34.488281 28.097656 34.5 28.5 34.5 C 33.46875 34.5 37.5 33.15625 37.5 31.5 C 37.5 31.246094 37.394531 30.996094 37.203125 30.746094 Z M 37.203125 30.746094 "/>
<path style=" stroke:none;fill-rule:nonzero;fill:rgb(84.313725%,36.862745%,19.607843%);fill-opacity:1;" d="M 19.5 22.5 C 14.53125 22.5 10.5 23.84375 10.5 25.5 C 10.5 27.15625 14.53125 28.5 19.5 28.5 C 24.46875 28.5 28.5 27.15625 28.5 25.5 C 28.5 23.84375 24.46875 22.5 19.5 22.5 Z M 28.203125 27.746094 C 27.183594 29.074219 23.605469 30 19.5 30 C 15.402344 30 11.824219 29.074219 10.796875 27.753906 C 10.605469 27.996094 10.503906 28.25 10.5 28.5 C 10.5 30.15625 14.53125 31.5 19.5 31.5 C 24.46875 31.5 28.5 30.15625 28.5 28.5 C 28.5 28.246094 28.394531 27.996094 28.203125 27.746094 Z M 28.203125 30.746094 C 27.183594 32.074219 23.605469 33 19.5 33 C 15.402344 33 11.824219 32.074219 10.796875 30.753906 C 10.605469 30.996094 10.503906 31.25 10.5 31.5 C 10.5 33.15625 14.53125 34.5 19.5 34.5 C 24.46875 34.5 28.5 33.15625 28.5 31.5 C 28.5 31.246094 28.394531 30.996094 28.203125 30.746094 Z M 28.203125 33.746094 C 27.183594 35.074219 23.605469 36 19.5 36 C 15.402344 36 11.824219 35.074219 10.796875 33.753906 C 10.605469 33.996094 10.503906 34.25 10.5 34.5 C 10.5 36.15625 14.53125 37.5 19.5 37.5 C 24.46875 37.5 28.5 36.15625 28.5 34.5 C 28.5 34.246094 28.394531 33.996094 28.203125 33.746094 Z M 28.203125 33.746094 "/>
<path style=" stroke:none;fill-rule:nonzero;fill:rgb(100%,100%,100%);fill-opacity:1;" d="M 19.5 21 C 14.53125 21 10.5 22.34375 10.5 24 C 10.5 25.65625 14.53125 27 19.5 27 C 24.46875 27 28.5 25.65625 28.5 24 C 28.5 22.34375 24.46875 21 19.5 21 Z M 28.203125 26.246094 C 27.183594 27.574219 23.605469 28.5 19.5 28.5 C 15.402344 28.5 11.824219 27.574219 10.796875 26.253906 C 10.605469 26.496094 10.503906 26.75 10.5 27 C 10.5 28.65625 14.53125 30 19.5 30 C 24.46875 30 28.5 28.65625 28.5 27 C 28.5 26.746094 28.394531 26.496094 28.203125 26.246094 Z M 28.203125 29.246094 C 27.183594 30.574219 23.605469 31.5 19.5 31.5 C 15.402344 31.5 11.824219 30.574219 10.796875 29.253906 C 10.605469 29.496094 10.503906 29.75 10.5 30 C 10.5 31.65625 14.53125 33 19.5 33 C 24.46875 33 28.5 31.65625 28.5 30 C 28.5 29.746094 28.394531 29.496094 28.203125 29.246094 Z M 28.203125 32.246094 C 27.183594 33.574219 23.605469 34.5 19.5 34.5 C 15.402344 34.5 11.824219 33.574219 10.796875 32.253906 C 10.605469 32.496094 10.503906 32.75 10.5 33 C 10.5 34.65625 14.53125 36 19.5 36 C 24.46875 36 28.5 34.65625 28.5 33 C 28.5 32.746094 28.394531 32.496094 28.203125 32.246094 Z M 28.203125 32.246094 "/>
</g>
</svg>
