<?xml version="1.0" encoding="UTF-8"?>
<svg xmlns="http://www.w3.org/2000/svg" xmlns:xlink="http://www.w3.org/1999/xlink" width="48pt" height="48pt" viewBox="0 0 48 48" version="1.1">
<g id="surface1">
<path style=" stroke:none;fill-rule:evenodd;fill:rgb(36.862745%,40.784314%,51.764706%);fill-opacity:1;" d="M 11.207031 2.847656 L 36.792969 2.847656 C 41.40625 2.847656 45.152344 6.59375 45.152344 11.207031 L 45.152344 36.792969 C 45.152344 41.40625 41.40625 45.152344 36.792969 45.152344 L 11.207031 45.152344 C 6.59375 45.152344 2.847656 41.40625 2.847656 36.792969 L 2.847656 11.207031 C 2.847656 6.59375 6.59375 2.847656 11.207031 2.847656 Z M 11.207031 2.847656 "/>
<path style=" stroke:none;fill-rule:nonzero;fill:rgb(97.647059%,97.647059%,97.647059%);fill-opacity:1;" d="M 17.519531 11.269531 C 12.972656 11.578125 7.449219 15.785156 7.5 22.613281 C 7.546875 29.089844 9.503906 32.671875 11.203125 36.75 L 14.75 35.21875 C 12.722656 32.136719 9.707031 25.878906 9.878906 21.75 C 9.996094 19.027344 10.949219 17.121094 12.59375 15.582031 C 16.566406 11.878906 22.042969 12.75 25.261719 16.699219 C 27.089844 19.027344 27.402344 22.449219 25.722656 24.941406 C 22.878906 29.183594 16.421875 27.121094 15.980469 22.214844 C 15.769531 19.878906 18.011719 18.082031 20.066406 18.0625 C 17.957031 16.839844 14.691406 19.097656 14.871094 21.871094 C 15.390625 30.035156 24.28125 30.199219 27.019531 25.542969 C 31.917969 17.222656 23.605469 10.859375 17.519531 11.269531 Z M 17.519531 11.269531 "/>
<path style=" stroke:none;fill-rule:nonzero;fill:rgb(49.803922%,68.627451%,85.882353%);fill-opacity:1;" d="M 36.699219 11.25 L 32.871094 12.871094 C 35.175781 17.355469 37.847656 20.792969 37.855469 26.328125 C 37.859375 28.363281 37.050781 30.667969 35.144531 32.378906 C 33.410156 33.9375 31.144531 34.855469 28.453125 34.472656 C 25.628906 34.078125 23.691406 32.769531 22.480469 31.285156 C 20.578125 28.746094 20.265625 25.503906 21.800781 23.136719 C 22.675781 21.78125 24.621094 20.628906 26.546875 20.796875 C 29.949219 21.09375 31.847656 23 31.816406 25.878906 C 31.785156 28.8125 29.734375 29.9375 27.433594 29.734375 C 29.589844 30.699219 32.84375 29.4375 32.828125 26.207031 C 32.8125 21.859375 29.910156 19.761719 26.78125 19.746094 C 23.550781 19.730469 21.761719 20.941406 20.722656 22.59375 C 19.6875 24.246094 19.40625 26.421875 19.527344 28.199219 C 19.640625 30.003906 20.9375 32.1875 22.894531 33.875 C 24.855469 35.5625 27.480469 36.75 30.230469 36.75 C 34.660156 36.75 40.546875 32.1875 40.5 25.488281 C 40.449219 18.785156 38.519531 14.808594 36.699219 11.253906 Z M 36.699219 11.25 "/>
</g>
</svg>
