<?xml version="1.0" encoding="UTF-8"?>
<svg xmlns="http://www.w3.org/2000/svg" xmlns:xlink="http://www.w3.org/1999/xlink" width="48pt" height="48pt" viewBox="0 0 48 48" version="1.1">
<g id="surface1">
<path style=" stroke:none;fill-rule:evenodd;fill:rgb(66.27451%,35.686275%,83.529412%);fill-opacity:1;" d="M 11.207031 2.847656 L 36.792969 2.847656 C 41.40625 2.847656 45.152344 6.59375 45.152344 11.207031 L 45.152344 36.792969 C 45.152344 41.40625 41.40625 45.152344 36.792969 45.152344 L 11.207031 45.152344 C 6.59375 45.152344 2.847656 41.40625 2.847656 36.792969 L 2.847656 11.207031 C 2.847656 6.59375 6.59375 2.847656 11.207031 2.847656 Z M 11.207031 2.847656 "/>
<path style=" stroke:none;fill-rule:nonzero;fill:rgb(89.019608%,87.45098%,90.980392%);fill-opacity:1;" d="M 17.453125 15 C 17.203125 14.996094 16.957031 15.097656 16.78125 15.285156 C 16.597656 15.472656 16.5 15.734375 16.5 16 L 16.5 32 C 16.5 32.355469 16.675781 32.6875 16.96875 32.863281 C 17.253906 33.042969 17.613281 33.046875 17.902344 32.871094 L 31.027344 24.871094 C 31.316406 24.691406 31.5 24.359375 31.5 24 C 31.5 23.640625 31.316406 23.308594 31.027344 23.128906 L 17.902344 15.128906 C 17.765625 15.046875 17.613281 15.003906 17.457031 15 Z M 17.453125 15 "/>
</g>
</svg>
