<?xml version="1.0" encoding="UTF-8"?>
<svg xmlns="http://www.w3.org/2000/svg" xmlns:xlink="http://www.w3.org/1999/xlink" width="48pt" height="48pt" viewBox="0 0 48 48" version="1.1">
<g id="surface1">
<path style=" stroke:none;fill-rule:evenodd;fill:rgb(30.980392%,30.980392%,30.980392%);fill-opacity:1;" d="M 11.207031 2.847656 L 36.792969 2.847656 C 41.40625 2.847656 45.152344 6.59375 45.152344 11.207031 L 45.152344 36.792969 C 45.152344 41.40625 41.40625 45.152344 36.792969 45.152344 L 11.207031 45.152344 C 6.59375 45.152344 2.847656 41.40625 2.847656 36.792969 L 2.847656 11.207031 C 2.847656 6.59375 6.59375 2.847656 11.207031 2.847656 Z M 11.207031 2.847656 "/>
<path style=" stroke:none;fill-rule:nonzero;fill:rgb(97.647059%,97.647059%,97.647059%);fill-opacity:1;" d="M 24 9.605469 C 20.371094 9.605469 17.058594 10.738281 14.613281 12.644531 C 12.171875 14.546875 10.582031 17.269531 10.582031 20.300781 L 10.582031 21.402344 C 8.15625 22.628906 6.472656 25.855469 6.472656 29.628906 C 6.472656 34.46875 9.222656 38.394531 12.769531 38.394531 L 12.769531 20.300781 C 12.769531 18.03125 13.949219 15.941406 15.964844 14.371094 C 17.980469 12.800781 20.828125 11.796875 24 11.796875 C 27.171875 11.796875 30.019531 12.800781 32.035156 14.371094 C 34.050781 15.941406 35.230469 18.03125 35.230469 20.300781 L 35.230469 37.140625 L 34.40625 37.140625 L 34.40625 21.140625 C 33.859375 21.140625 33.3125 21.417969 33.035156 21.6875 L 33.035156 37.140625 L 29.917969 37.140625 C 30.128906 36.769531 30.261719 36.347656 30.261719 35.890625 L 30.261719 34.640625 C 30.261719 33.25 29.140625 32.136719 27.753906 32.136719 L 22.75 32.136719 C 21.359375 32.136719 20.246094 33.25 20.246094 34.640625 L 20.246094 35.890625 C 20.246094 37.277344 21.359375 38.394531 22.75 38.394531 L 35.265625 38.394531 L 35.265625 38.390625 C 38.796875 38.363281 41.527344 34.453125 41.527344 29.628906 C 41.527344 25.847656 39.84375 22.628906 37.417969 21.402344 L 37.417969 20.300781 C 37.417969 17.269531 35.828125 14.546875 33.386719 12.644531 C 30.941406 10.738281 27.628906 9.605469 24 9.605469 Z M 13.59375 21.140625 L 13.59375 38.394531 C 14.140625 38.394531 14.6875 38.121094 14.964844 37.574219 L 14.964844 21.6875 C 14.6875 21.417969 14.140625 21.140625 13.59375 21.140625 Z M 13.59375 21.140625 "/>
</g>
</svg>
