<?xml version="1.0" encoding="UTF-8"?>
<svg xmlns="http://www.w3.org/2000/svg" xmlns:xlink="http://www.w3.org/1999/xlink" width="48pt" height="48pt" viewBox="0 0 48 48" version="1.1">
<g id="surface1">
<path style=" stroke:none;fill-rule:evenodd;fill:rgb(20%,30.196078%,36.078431%);fill-opacity:1;" d="M 45.152344 23.15625 L 2.847656 23.15625 L 2.847656 36.699219 C 2.847656 41.328125 6.578125 45.058594 11.207031 45.058594 L 36.792969 45.058594 C 41.421875 45.058594 45.152344 41.328125 45.152344 36.699219 Z M 45.152344 23.15625 "/>
<path style=" stroke:none;fill-rule:evenodd;fill:rgb(81.568627%,49.411765%,20.392157%);fill-opacity:1;" d="M 45.152344 15.28125 L 2.847656 15.28125 L 2.847656 23.15625 L 45.152344 23.15625 Z M 45.152344 15.28125 "/>
<path style=" stroke:none;fill-rule:evenodd;fill:rgb(50.196078%,50.196078%,50.196078%);fill-opacity:1;" d="M 11.207031 2.753906 C 6.578125 2.753906 2.847656 6.484375 2.847656 11.113281 L 2.847656 15.28125 L 45.152344 15.28125 L 45.152344 11.113281 C 45.152344 6.484375 41.421875 2.753906 36.792969 2.753906 Z M 11.207031 2.753906 "/>
<path style=" stroke:none;fill-rule:evenodd;fill:rgb(91.764706%,67.843137%,26.27451%);fill-opacity:1;" d="M 45.152344 21.988281 L 2.847656 21.988281 L 2.847656 36.886719 C 2.847656 41.515625 6.578125 45.246094 11.207031 45.246094 L 36.785156 45.246094 C 41.421875 45.246094 45.152344 41.515625 45.152344 36.886719 Z M 45.152344 21.988281 "/>
<path style=" stroke:none;fill-rule:evenodd;fill:rgb(79.607843%,49.803922%,17.254902%);fill-opacity:1;" d="M 13.589844 27.003906 C 13.589844 27.855469 12.902344 28.542969 12.050781 28.542969 C 11.203125 28.542969 10.515625 27.855469 10.515625 27.003906 C 10.515625 26.15625 11.203125 25.46875 12.050781 25.46875 C 12.902344 25.46875 13.589844 26.15625 13.589844 27.003906 Z M 13.589844 27.003906 "/>
<path style=" stroke:none;fill-rule:evenodd;fill:rgb(79.607843%,49.803922%,17.254902%);fill-opacity:1;" d="M 38.21875 27.03125 C 38.21875 27.878906 37.53125 28.566406 36.683594 28.566406 C 35.832031 28.566406 35.144531 27.878906 35.144531 27.03125 C 35.144531 26.183594 35.832031 25.496094 36.683594 25.496094 C 37.53125 25.496094 38.21875 26.183594 38.21875 27.03125 Z M 38.21875 27.03125 "/>
<path style="fill:none;stroke-width:1.290687;stroke-linecap:round;stroke-linejoin:miter;stroke:rgb(100%,100%,100%);stroke-opacity:1;stroke-miterlimit:4;" d="M -37.337791 20.291534 C -36.572166 32.075388 -21.608625 30.958201 -21.035708 20.291534 " transform="matrix(1.5,0,0,1.5,68.135593,-2.847457)"/>
</g>
</svg>
