<?xml version="1.0" encoding="UTF-8"?>
<svg xmlns="http://www.w3.org/2000/svg" xmlns:xlink="http://www.w3.org/1999/xlink" width="48pt" height="48pt" viewBox="0 0 48 48" version="1.1">
<g id="surface1">
<path style=" stroke:none;fill-rule:evenodd;fill:rgb(27.45098%,61.960784%,84.313725%);fill-opacity:1;" d="M 11.207031 2.847656 L 36.792969 2.847656 C 41.40625 2.847656 45.152344 6.59375 45.152344 11.207031 L 45.152344 36.792969 C 45.152344 41.40625 41.40625 45.152344 36.792969 45.152344 L 11.207031 45.152344 C 6.59375 45.152344 2.847656 41.40625 2.847656 36.792969 L 2.847656 11.207031 C 2.847656 6.59375 6.59375 2.847656 11.207031 2.847656 Z M 11.207031 2.847656 "/>
<path style=" stroke:none;fill-rule:nonzero;fill:rgb(67.058824%,98.039216%,100%);fill-opacity:1;" d="M 30.765625 12.15625 L 17.234375 28.230469 L 24 34.152344 L 29.074219 29.074219 L 29.074219 35.84375 L 35.84375 35.84375 L 35.84375 12.15625 Z M 30.765625 12.15625 "/>
<path style=" stroke:none;fill-rule:nonzero;fill:rgb(100%,100%,100%);fill-opacity:1;" d="M 25.691406 24 L 18.925781 29.921875 L 12.15625 35.84375 L 12.15625 12.15625 L 18.925781 18.078125 Z M 25.691406 24 "/>
</g>
</svg>
