<?xml version="1.0" encoding="UTF-8"?>
<svg xmlns="http://www.w3.org/2000/svg" xmlns:xlink="http://www.w3.org/1999/xlink" width="48pt" height="48pt" viewBox="0 0 48 48" version="1.1">
<g id="surface1">
<path style=" stroke:none;fill-rule:evenodd;fill:rgb(97.254902%,84.313725%,68.235294%);fill-opacity:1;" d="M 11.207031 2.847656 L 36.792969 2.847656 C 41.40625 2.847656 45.152344 6.59375 45.152344 11.207031 L 45.152344 36.792969 C 45.152344 41.40625 41.40625 45.152344 36.792969 45.152344 L 11.207031 45.152344 C 6.59375 45.152344 2.847656 41.40625 2.847656 36.792969 L 2.847656 11.207031 C 2.847656 6.59375 6.59375 2.847656 11.207031 2.847656 Z M 11.207031 2.847656 "/>
<path style=" stroke:none;fill-rule:evenodd;fill:rgb(16.470588%,33.72549%,48.235294%);fill-opacity:1;" d="M 33 13.5 C 30.378906 13.5 28.90625 14.859375 28.285156 16.183594 C 27.660156 17.5 27.75 18.792969 27.75 18.792969 L 29.25 18.707031 C 29.25 18.707031 29.203125 17.75 29.640625 16.816406 C 30.078125 15.890625 30.855469 15 33 15 C 35.144531 15 35.917969 15.890625 36.355469 16.816406 C 36.792969 17.75 36.75 18.707031 36.75 18.707031 L 38.25 18.792969 C 38.25 18.792969 38.332031 17.5 37.714844 16.183594 C 37.089844 14.859375 35.613281 13.5 33 13.5 Z M 33 18 C 32.582031 18 32.25 18.332031 32.25 18.75 C 32.25 19.167969 32.582031 19.5 33 19.5 C 33.410156 19.5 33.75 19.167969 33.75 18.75 C 33.75 18.332031 33.410156 18 33 18 Z M 15 19.5 C 12.386719 19.5 10.910156 20.859375 10.285156 22.183594 C 9.667969 23.5 9.75 24.792969 9.75 24.792969 L 9.75 34.5 L 11.25 34.5 L 11.25 24.707031 C 11.25 24.707031 11.207031 23.75 11.644531 22.816406 C 12.082031 21.890625 12.859375 21 15 21 C 17.144531 21 17.921875 21.890625 18.359375 22.816406 C 18.796875 23.75 18.75 24.707031 18.75 24.707031 L 18.75 34.5 L 20.25 34.5 L 20.25 24.707031 C 20.25 24.707031 20.207031 23.75 20.644531 22.816406 C 21.082031 21.890625 21.855469 21 24 21 C 26.144531 21 26.921875 21.890625 27.359375 22.816406 C 27.796875 23.75 27.75 24.707031 27.75 24.707031 L 27.75 29.207031 C 27.75 29.207031 27.660156 30.5 28.285156 31.816406 C 28.90625 33.140625 30.378906 34.5 33 34.5 C 35.613281 34.5 37.089844 33.140625 37.714844 31.816406 C 38.332031 30.5 38.25 29.207031 38.25 29.207031 L 38.25 19.5 L 36.75 19.5 L 36.75 29.292969 C 36.75 29.292969 36.792969 30.25 36.355469 31.183594 C 35.917969 32.109375 35.144531 33 33 33 C 30.855469 33 30.078125 32.109375 29.640625 31.183594 C 29.203125 30.25 29.25 29.292969 29.25 29.292969 L 29.25 24.792969 C 29.25 24.792969 29.339844 23.5 28.714844 22.183594 C 28.09375 20.859375 26.621094 19.5 24 19.5 C 21.640625 19.5 20.214844 20.605469 19.5 21.792969 C 18.785156 20.605469 17.359375 19.5 15 19.5 Z M 15 19.5 "/>
</g>
</svg>
