<?xml version="1.0" encoding="UTF-8"?>
<svg xmlns="http://www.w3.org/2000/svg" xmlns:xlink="http://www.w3.org/1999/xlink" width="48pt" height="48pt" viewBox="0 0 48 48" version="1.1">
<g id="surface1">
<path style=" stroke:none;fill-rule:evenodd;fill:rgb(14.901961%,33.333333%,48.627451%);fill-opacity:1;" d="M 11.207031 2.847656 L 36.792969 2.847656 C 41.40625 2.847656 45.152344 6.59375 45.152344 11.207031 L 45.152344 36.792969 C 45.152344 41.40625 41.40625 45.152344 36.792969 45.152344 L 11.207031 45.152344 C 6.59375 45.152344 2.847656 41.40625 2.847656 36.792969 L 2.847656 11.207031 C 2.847656 6.59375 6.59375 2.847656 11.207031 2.847656 Z M 11.207031 2.847656 "/>
<path style=" stroke:none;fill-rule:nonzero;fill:rgb(100%,100%,100%);fill-opacity:1;" d="M 11.285156 10.5 C 10.113281 10.472656 9.5625 11.285156 9.808594 12.6875 C 9.886719 13.136719 10.277344 13.78125 11.128906 14.847656 C 12.078125 16.03125 12.457031 16.683594 12.871094 17.800781 C 13.519531 19.574219 13.824219 20.167969 14.347656 20.71875 C 14.761719 21.152344 14.761719 21.152344 14.484375 22.027344 C 14.058594 23.386719 13.96875 26.105469 14.3125 27.386719 C 14.824219 29.300781 15.457031 30.171875 16.339844 30.171875 C 16.96875 30.171875 17.484375 29.644531 17.667969 28.816406 C 17.734375 28.53125 17.855469 28.121094 17.9375 27.902344 C 18.078125 27.53125 18.113281 27.558594 18.675781 28.472656 C 19 29.003906 19.621094 29.792969 20.050781 30.222656 C 21.046875 31.230469 22.410156 32.359375 22.511719 32.261719 C 22.550781 32.222656 22.15625 31.628906 21.625 30.941406 C 21.097656 30.261719 20.105469 28.667969 19.410156 27.40625 C 18.609375 25.933594 18.066406 25.109375 17.894531 25.109375 C 17.339844 25.109375 16.824219 25.980469 16.519531 27.433594 C 16.171875 29.105469 15.5625 28.824219 15.066406 26.765625 C 14.785156 25.578125 14.933594 23.980469 15.464844 22.484375 C 15.707031 21.800781 15.90625 21.171875 15.90625 21.082031 C 15.90625 21 15.519531 20.269531 15.046875 19.464844 C 14.574219 18.660156 14.019531 17.519531 13.8125 16.933594 C 13.3125 15.5 13.078125 15.082031 12.078125 13.863281 C 11.042969 12.613281 10.949219 12.035156 11.765625 12.042969 C 12.40625 12.046875 13.4375 12.472656 14.472656 13.171875 C 15.128906 13.613281 15.347656 13.671875 16.402344 13.671875 C 17.722656 13.671875 18.011719 13.78125 19.84375 14.988281 C 21.707031 16.21875 23.097656 17.359375 24.0625 18.457031 C 24.917969 19.433594 25.386719 20.28125 27.90625 25.441406 C 28.871094 27.421875 29.730469 28.378906 30.910156 28.792969 C 32.738281 29.421875 33.359375 29.707031 34.160156 30.285156 L 35.011719 30.894531 L 34.441406 31.011719 C 34.125 31.066406 33.4375 31.167969 32.910156 31.230469 C 31.824219 31.355469 31.109375 31.808594 31.109375 32.375 C 31.109375 33.011719 33.285156 34.839844 35.46875 36.035156 C 36.519531 36.609375 37.527344 37.175781 37.714844 37.292969 C 38.199219 37.605469 38.332031 37.566406 38.207031 37.15625 C 37.941406 36.285156 37.046875 35.441406 34.5625 33.714844 C 33.105469 32.699219 33.089844 32.734375 35.035156 32.542969 C 36.421875 32.402344 37.125 32.167969 37.125 31.832031 C 37.125 31.675781 36.421875 30.863281 35.558594 30.027344 C 34.207031 28.714844 33.75 28.386719 32.265625 27.660156 C 30.238281 26.675781 29.5 25.894531 29.035156 24.238281 C 28.339844 21.761719 26.46875 18.855469 23.980469 16.390625 C 21.410156 13.847656 18.957031 12.441406 16.714844 12.21875 C 15.796875 12.128906 15.324219 11.988281 14.855469 11.671875 C 14.050781 11.128906 12.191406 10.519531 11.285156 10.5 Z M 15.730469 15.003906 C 15.546875 14.988281 15.386719 15.015625 15.277344 15.09375 C 14.871094 15.371094 14.917969 15.714844 15.402344 15.925781 C 15.625 16.027344 15.949219 16.378906 16.113281 16.707031 C 16.675781 17.816406 17.535156 17.074219 17.152344 15.8125 C 17.03125 15.417969 16.28125 15.042969 15.730469 15.003906 Z M 15.730469 15.003906 "/>
</g>
</svg>
