<?xml version="1.0" encoding="UTF-8"?>
<svg xmlns="http://www.w3.org/2000/svg" xmlns:xlink="http://www.w3.org/1999/xlink" width="48pt" height="48pt" viewBox="0 0 48 48" version="1.1">
<g id="surface1">
<path style=" stroke:none;fill-rule:evenodd;fill:rgb(80%,80%,80%);fill-opacity:1;" d="M 11.207031 2.847656 L 36.792969 2.847656 C 41.40625 2.847656 45.152344 6.59375 45.152344 11.207031 L 45.152344 36.792969 C 45.152344 41.40625 41.40625 45.152344 36.792969 45.152344 L 11.207031 45.152344 C 6.59375 45.152344 2.847656 41.40625 2.847656 36.792969 L 2.847656 11.207031 C 2.847656 6.59375 6.59375 2.847656 11.207031 2.847656 Z M 11.207031 2.847656 "/>
<path style=" stroke:none;fill-rule:nonzero;fill:rgb(29.019608%,38.039216%,80%);fill-opacity:1;" d="M 7.464844 15.136719 C 6.816406 15.144531 6.230469 15.503906 5.933594 16.078125 C 5.628906 16.652344 5.667969 17.339844 6.027344 17.875 C 6.386719 18.410156 7.003906 18.714844 7.652344 18.65625 C 13.328125 18.347656 15.894531 20.34375 18.035156 23.089844 C 20.171875 25.828125 21.457031 29.480469 24.167969 32.003906 C 26.347656 34.035156 29.488281 35.292969 32.550781 36.160156 C 35.621094 37.035156 38.542969 37.472656 40.484375 37.472656 C 41.121094 37.480469 41.707031 37.144531 42.03125 36.597656 C 42.347656 36.046875 42.347656 35.371094 42.03125 34.816406 C 41.707031 34.269531 41.121094 33.933594 40.484375 33.941406 C 39.128906 33.941406 36.292969 33.558594 33.519531 32.769531 C 30.75 31.980469 27.980469 30.738281 26.574219 29.421875 C 24.839844 27.808594 23.390625 24.214844 20.816406 20.917969 C 18.25 17.621094 14.128906 14.777344 7.464844 15.136719 Z M 7.464844 15.136719 "/>
<path style=" stroke:none;fill-rule:nonzero;fill:rgb(90.980392%,26.27451%,26.27451%);fill-opacity:1;" d="M 29.433594 10.550781 C 27.6875 10.371094 26.355469 11.292969 25.550781 12.0625 C 25.152344 12.449219 24.847656 12.824219 24.640625 13.109375 C 24.535156 13.253906 24.453125 13.378906 24.390625 13.480469 C 24.378906 13.496094 24.375 13.511719 24.363281 13.527344 L 23.203125 14.980469 C 22.863281 15.390625 22.730469 15.925781 22.832031 16.449219 C 22.941406 16.96875 23.277344 17.417969 23.746094 17.660156 C 23.519531 17.972656 23.292969 18.277344 23.171875 18.800781 C 22.652344 21.066406 23.714844 23.078125 25.003906 24.453125 C 25.9375 25.453125 27.078125 25.921875 28.121094 26.296875 C 28.640625 26.484375 29.136719 26.628906 29.566406 26.730469 C 30 26.828125 30.21875 26.921875 30.859375 26.875 C 32.730469 26.738281 34.222656 26.160156 35.308594 25.277344 C 36.394531 24.390625 37.027344 23.285156 37.503906 22.308594 C 38.480469 20.296875 37.886719 18.308594 37.4375 16.878906 C 37.425781 16.847656 37.417969 16.8125 37.40625 16.78125 C 35.941406 12.9375 32.421875 10.902344 29.453125 10.558594 C 29.449219 10.550781 29.4375 10.550781 29.433594 10.550781 Z M 29.0625 14.066406 C 30.609375 14.253906 33.167969 15.671875 34.078125 17.984375 C 34.4375 19.167969 34.550781 20.308594 34.332031 20.761719 C 33.9375 21.566406 33.574219 22.140625 33.082031 22.542969 C 32.59375 22.9375 31.925781 23.261719 30.597656 23.359375 C 30.96875 23.332031 30.636719 23.355469 30.359375 23.285156 C 30.078125 23.222656 29.703125 23.113281 29.316406 22.980469 C 28.550781 22.703125 27.746094 22.21875 27.578125 22.042969 C 26.917969 21.332031 26.488281 20.113281 26.609375 19.59375 C 26.5 20.066406 26.722656 19.519531 27.105469 19.21875 C 27.484375 18.917969 27.855469 18.691406 27.855469 18.691406 C 28.496094 18.328125 28.839844 17.609375 28.722656 16.878906 C 28.605469 16.15625 28.050781 15.582031 27.332031 15.433594 C 27.378906 15.359375 27.417969 15.28125 27.453125 15.199219 C 27.449219 15.214844 27.4375 15.234375 27.4375 15.238281 C 27.40625 15.308594 27.394531 15.324219 27.390625 15.339844 C 27.378906 15.355469 27.378906 15.355469 27.378906 15.359375 C 27.402344 15.324219 27.441406 15.261719 27.5 15.183594 C 27.613281 15.019531 27.792969 14.800781 27.996094 14.609375 C 28.394531 14.222656 28.78125 14.042969 29.0625 14.066406 Z M 27.582031 14.589844 C 27.582031 14.589844 27.589844 14.589844 27.589844 14.589844 C 27.589844 14.589844 27.589844 14.609375 27.582031 14.609375 C 27.582031 14.605469 27.582031 14.59375 27.582031 14.589844 Z M 27.515625 15.019531 C 27.515625 15.027344 27.511719 15.035156 27.511719 15.035156 C 27.511719 15.035156 27.5 15.078125 27.488281 15.097656 C 27.5 15.074219 27.503906 15.046875 27.515625 15.019531 Z M 27.515625 15.019531 "/>
</g>
</svg>
