<?xml version="1.0" encoding="UTF-8"?>
<svg xmlns="http://www.w3.org/2000/svg" xmlns:xlink="http://www.w3.org/1999/xlink" width="48pt" height="48pt" viewBox="0 0 48 48" version="1.1">
<g id="surface1">
<path style=" stroke:none;fill-rule:evenodd;fill:rgb(90.196078%,90.196078%,90.196078%);fill-opacity:1;" d="M 34.863281 2.847656 L 16.074219 2.847656 L 34.863281 29.675781 Z M 34.863281 2.847656 "/>
<path style=" stroke:none;fill-rule:evenodd;fill:rgb(41.960784%,65.098039%,24.705882%);fill-opacity:1;" d="M 34.863281 2.847656 L 34.863281 29.675781 L 43.332031 41.777344 C 44.40625 40.371094 45.152344 38.703125 45.152344 36.792969 L 45.152344 11.207031 C 45.152344 6.578125 41.421875 2.847656 36.792969 2.847656 Z M 34.863281 2.847656 "/>
<path style=" stroke:none;fill-rule:evenodd;fill:rgb(90.196078%,90.196078%,90.196078%);fill-opacity:1;" d="M 13.136719 45.152344 L 31.925781 45.152344 L 13.136719 18.324219 Z M 13.136719 45.152344 "/>
<path style=" stroke:none;fill-rule:evenodd;fill:rgb(25.882353%,68.627451%,90.196078%);fill-opacity:1;" d="M 13.136719 45.152344 L 13.136719 18.324219 L 4.667969 6.222656 C 3.59375 7.628906 2.847656 9.296875 2.847656 11.207031 L 2.847656 36.792969 C 2.847656 41.421875 6.578125 45.152344 11.207031 45.152344 Z M 13.136719 45.152344 "/>
<path style=" stroke:none;fill-rule:evenodd;fill:rgb(58.823529%,79.215686%,41.960784%);fill-opacity:1;" d="M 4.667969 6.222656 L 31.925781 45.152344 L 36.792969 45.152344 C 39.515625 45.152344 41.8125 43.78125 43.332031 41.777344 L 16.074219 2.847656 L 11.207031 2.847656 C 8.484375 2.847656 6.1875 4.21875 4.667969 6.222656 Z M 4.667969 6.222656 "/>
</g>
</svg>
