<?xml version="1.0" encoding="UTF-8"?>
<svg xmlns="http://www.w3.org/2000/svg" xmlns:xlink="http://www.w3.org/1999/xlink" width="48pt" height="48pt" viewBox="0 0 48 48" version="1.1">
<g id="surface1">
<path style=" stroke:none;fill-rule:evenodd;fill:rgb(30.980392%,30.980392%,30.980392%);fill-opacity:1;" d="M 11.207031 2.847656 L 36.792969 2.847656 C 41.40625 2.847656 45.152344 6.59375 45.152344 11.207031 L 45.152344 36.792969 C 45.152344 41.40625 41.40625 45.152344 36.792969 45.152344 L 11.207031 45.152344 C 6.59375 45.152344 2.847656 41.40625 2.847656 36.792969 L 2.847656 11.207031 C 2.847656 6.59375 6.59375 2.847656 11.207031 2.847656 Z M 11.207031 2.847656 "/>
<path style=" stroke:none;fill-rule:nonzero;fill:rgb(100%,100%,100%);fill-opacity:1;" d="M 20.792969 33.8125 C 22.21875 33.371094 23.925781 32.171875 24.730469 31.046875 L 24.996094 30.671875 L 24.660156 29.671875 C 23.453125 26.003906 25.652344 22.3125 29.421875 21.675781 C 32.160156 21.214844 35.035156 22.890625 36.027344 25.527344 C 36.261719 26.15625 36.269531 26.160156 36.191406 25.675781 C 35.964844 24.253906 35.261719 22.9375 34.113281 21.808594 C 32.917969 20.621094 31.527344 19.949219 29.785156 19.71875 C 29.253906 19.644531 29.199219 19.667969 29 20.003906 C 28.6875 20.53125 27.785156 21.40625 27.125 21.828125 C 25.332031 22.972656 22.574219 22.972656 20.78125 21.832031 C 18.75 20.542969 17.605469 18.066406 17.980469 15.785156 C 18.183594 14.542969 18.730469 13.4375 19.597656 12.515625 C 20.234375 11.84375 20.277344 11.769531 19.910156 11.980469 C 19.296875 12.332031 17.855469 13.902344 17.441406 14.660156 C 16.972656 15.535156 16.589844 17.089844 16.59375 18.113281 C 16.59375 18.996094 16.828125 20.167969 17.167969 21.011719 C 17.363281 21.503906 17.386719 21.519531 18.121094 21.605469 C 18.53125 21.652344 19.1875 21.796875 19.574219 21.933594 C 22.972656 23.105469 24.582031 27.03125 22.988281 30.285156 C 21.902344 32.5 19.386719 33.933594 17.035156 33.667969 C 16.078125 33.558594 16.183594 33.6875 17.238281 33.925781 C 18.183594 34.140625 19.894531 34.082031 20.792969 33.8125 Z M 20.792969 33.8125 "/>
<path style=" stroke:none;fill-rule:nonzero;fill:rgb(100%,100%,100%);fill-opacity:1;" d="M 24 9 C 15.722656 9 9 15.722656 9 24 C 9 32.277344 15.722656 39 24 39 C 32.277344 39 39 32.277344 39 24 C 39 15.722656 32.277344 9 24 9 Z M 24 10.609375 C 31.40625 10.609375 37.390625 16.59375 37.390625 24 C 37.390625 31.40625 31.40625 37.390625 24 37.390625 C 16.59375 37.390625 10.609375 31.40625 10.609375 24 C 10.609375 16.59375 16.59375 10.609375 24 10.609375 Z M 24 10.609375 "/>
</g>
</svg>
