<?xml version="1.0" encoding="UTF-8"?>
<svg xmlns="http://www.w3.org/2000/svg" xmlns:xlink="http://www.w3.org/1999/xlink" width="48pt" height="48pt" viewBox="0 0 48 48" version="1.1">
<g id="surface1">
<path style=" stroke:none;fill-rule:evenodd;fill:rgb(80%,80%,80%);fill-opacity:1;" d="M 11.207031 2.847656 L 36.792969 2.847656 C 41.40625 2.847656 45.152344 6.59375 45.152344 11.207031 L 45.152344 36.792969 C 45.152344 41.40625 41.40625 45.152344 36.792969 45.152344 L 11.207031 45.152344 C 6.59375 45.152344 2.847656 41.40625 2.847656 36.792969 L 2.847656 11.207031 C 2.847656 6.59375 6.59375 2.847656 11.207031 2.847656 Z M 11.207031 2.847656 "/>
<path style=" stroke:none;fill-rule:nonzero;fill:rgb(23.529412%,54.901961%,97.254902%);fill-opacity:1;" d="M 24.75 7.5 C 15.636719 7.5 8.25 14.886719 8.25 24 C 8.25 33.113281 15.636719 40.5 24.75 40.5 C 33.863281 40.5 41.25 33.113281 41.25 24 C 41.25 14.886719 33.863281 7.5 24.75 7.5 Z M 26.625 11.25 C 33.457031 11.25 39 16.792969 39 23.625 C 39 30.457031 33.457031 36 26.625 36 C 19.792969 36 14.25 30.457031 14.25 23.625 C 14.25 16.792969 19.792969 11.25 26.625 11.25 Z M 26.625 11.25 "/>
<path style=" stroke:none;fill-rule:nonzero;fill:rgb(98.823529%,57.254902%,30.196078%);fill-opacity:1;" d="M 9.152344 18 L 16.347656 18 C 17.675781 18 18.75 19.074219 18.75 20.402344 L 18.75 27.597656 C 18.75 28.925781 17.675781 30 16.347656 30 L 9.152344 30 C 7.824219 30 6.75 28.925781 6.75 27.597656 L 6.75 20.402344 C 6.75 19.074219 7.824219 18 9.152344 18 Z M 9.152344 18 "/>
<path style=" stroke:none;fill-rule:nonzero;fill:rgb(98.823529%,57.254902%,30.196078%);fill-opacity:1;" d="M 35.25 27 L 39.75 27 C 40.578125 27 41.25 27.671875 41.25 28.5 L 41.25 33 C 41.25 33.828125 40.578125 34.5 39.75 34.5 L 35.25 34.5 C 34.421875 34.5 33.75 33.828125 33.75 33 L 33.75 28.5 C 33.75 27.671875 34.421875 27 35.25 27 Z M 35.25 27 "/>
<path style=" stroke:none;fill-rule:nonzero;fill:rgb(98.823529%,57.254902%,30.196078%);fill-opacity:1;" d="M 31.949219 9 L 35.550781 9 C 36.214844 9 36.75 9.535156 36.75 10.199219 L 36.75 13.800781 C 36.75 14.464844 36.214844 15 35.550781 15 L 31.949219 15 C 31.285156 15 30.75 14.464844 30.75 13.800781 L 30.75 10.199219 C 30.75 9.535156 31.285156 9 31.949219 9 Z M 31.949219 9 "/>
</g>
</svg>
