<?xml version="1.0" encoding="UTF-8"?>
<svg xmlns="http://www.w3.org/2000/svg" xmlns:xlink="http://www.w3.org/1999/xlink" width="48pt" height="48pt" viewBox="0 0 48 48" version="1.1">
<g id="surface1">
<path style=" stroke:none;fill-rule:evenodd;fill:rgb(0.784314%,52.54902%,28.627451%);fill-opacity:1;" d="M 2.953125 37.328125 C 3.246094 41.691406 6.769531 45.152344 11.207031 45.152344 L 36.792969 45.152344 C 41.421875 45.152344 45.15625 41.421875 45.15625 36.785156 L 45.15625 36.375 C 44.8125 36.828125 44.363281 37.1875 43.839844 37.441406 C 42.722656 37.988281 41.332031 38.140625 40.214844 38.140625 C 39.097656 38.140625 37.703125 37.988281 36.589844 37.441406 C 36.03125 37.171875 35.546875 36.800781 35.199219 36.3125 C 34.847656 35.816406 34.640625 35.199219 34.640625 34.425781 C 34.625 35.074219 34.40625 35.628906 34.050781 36.097656 C 33.703125 36.566406 33.21875 36.953125 32.667969 37.253906 C 31.558594 37.863281 30.183594 38.140625 29.066406 38.140625 C 27.949219 38.140625 26.558594 37.988281 25.441406 37.441406 C 24.886719 37.171875 24.402344 36.800781 24.050781 36.3125 C 23.703125 35.816406 23.488281 35.199219 23.488281 34.425781 C 23.472656 35.074219 23.253906 35.628906 22.90625 36.097656 C 22.550781 36.566406 22.066406 36.953125 21.515625 37.253906 C 20.410156 37.863281 19.035156 38.140625 17.921875 38.140625 C 16.800781 38.140625 15.410156 37.988281 14.296875 37.441406 C 13.738281 37.171875 13.25 36.800781 12.902344 36.3125 C 12.550781 35.816406 12.34375 35.199219 12.34375 34.425781 C 12.34375 35.199219 12.136719 35.824219 11.785156 36.316406 C 11.4375 36.8125 10.953125 37.183594 10.394531 37.457031 C 9.28125 38.003906 7.890625 38.15625 6.769531 38.140625 C 5.5625 38.125 4.167969 37.96875 3.078125 37.433594 C 3.027344 37.40625 3.003906 37.355469 2.953125 37.328125 Z M 2.953125 37.328125 "/>
<path style=" stroke:none;fill-rule:evenodd;fill:rgb(24.705882%,78.039216%,47.058824%);fill-opacity:1;" d="M 2.953125 37.328125 C 3.003906 37.355469 3.027344 37.40625 3.078125 37.433594 C 4.167969 37.96875 5.5625 38.125 6.769531 38.140625 C 7.890625 38.15625 9.28125 38.003906 10.394531 37.457031 C 10.953125 37.183594 11.4375 36.8125 11.785156 36.316406 C 12.136719 35.824219 12.34375 35.199219 12.34375 34.425781 C 12.34375 35.199219 12.550781 35.816406 12.902344 36.3125 C 13.25 36.800781 13.738281 37.171875 14.296875 37.441406 C 15.410156 37.988281 16.800781 38.140625 17.921875 38.140625 C 19.035156 38.140625 20.410156 37.863281 21.515625 37.253906 C 22.066406 36.953125 22.550781 36.566406 22.90625 36.097656 C 23.253906 35.628906 23.472656 35.074219 23.488281 34.425781 C 23.488281 35.199219 23.703125 35.816406 24.050781 36.3125 C 24.402344 36.800781 24.886719 37.171875 25.441406 37.441406 C 26.558594 37.988281 27.949219 38.140625 29.066406 38.140625 C 30.183594 38.140625 31.558594 37.863281 32.667969 37.253906 C 33.21875 36.953125 33.703125 36.566406 34.050781 36.097656 C 34.40625 35.628906 34.625 35.074219 34.640625 34.425781 C 34.640625 35.199219 34.847656 35.816406 35.199219 36.3125 C 35.546875 36.800781 36.03125 37.171875 36.589844 37.441406 C 37.703125 37.988281 39.097656 38.140625 40.214844 38.140625 C 41.332031 38.140625 42.722656 37.988281 43.839844 37.441406 C 44.363281 37.1875 44.8125 36.828125 45.15625 36.375 L 45.15625 11.207031 C 45.15625 6.578125 41.421875 2.847656 36.792969 2.847656 L 11.207031 2.847656 C 6.578125 2.847656 2.84375 6.578125 2.84375 11.207031 L 2.84375 36.785156 C 2.84375 36.980469 2.941406 37.140625 2.953125 37.328125 Z M 2.953125 37.328125 "/>
<path style=" stroke:none;fill-rule:nonzero;fill:rgb(92.54902%,94.117647%,94.509804%);fill-opacity:1;" d="M 13.878906 9.855469 C 16.957031 9.855469 19.453125 12.347656 19.453125 15.425781 C 19.453125 18.503906 16.957031 21 13.878906 21 C 10.800781 21 8.308594 18.503906 8.308594 15.425781 C 8.308594 12.347656 10.800781 9.855469 13.878906 9.855469 Z M 13.878906 9.855469 "/>
<path style=" stroke:none;fill-rule:nonzero;fill:rgb(28.627451%,28.627451%,28.627451%);fill-opacity:1;" d="M 17.59375 13.566406 C 18.621094 13.566406 19.453125 14.402344 19.453125 15.425781 C 19.453125 16.453125 18.621094 17.285156 17.59375 17.285156 C 16.566406 17.285156 15.738281 16.453125 15.738281 15.425781 C 15.738281 14.402344 16.566406 13.566406 17.59375 13.566406 Z M 17.59375 13.566406 "/>
<path style=" stroke:none;fill-rule:nonzero;fill:rgb(92.54902%,94.117647%,94.509804%);fill-opacity:1;" d="M 34.316406 9.855469 C 37.394531 9.855469 39.890625 12.347656 39.890625 15.425781 C 39.890625 18.503906 37.394531 21 34.316406 21 C 31.238281 21 28.746094 18.503906 28.746094 15.425781 C 28.746094 12.347656 31.238281 9.855469 34.316406 9.855469 Z M 34.316406 9.855469 "/>
<path style=" stroke:none;fill-rule:nonzero;fill:rgb(28.627451%,28.627451%,28.627451%);fill-opacity:1;" d="M 38.03125 13.566406 C 39.058594 13.566406 39.890625 14.402344 39.890625 15.425781 C 39.890625 16.453125 39.058594 17.285156 38.03125 17.285156 C 37.003906 17.285156 36.175781 16.453125 36.175781 15.425781 C 36.175781 14.402344 37.003906 13.566406 38.03125 13.566406 Z M 38.03125 13.566406 "/>
</g>
</svg>
