<?xml version="1.0" encoding="UTF-8"?>
<svg xmlns="http://www.w3.org/2000/svg" xmlns:xlink="http://www.w3.org/1999/xlink" width="48pt" height="48pt" viewBox="0 0 48 48" version="1.1">
<g id="surface1">
<path style=" stroke:none;fill-rule:evenodd;fill:rgb(0.784314%,69.019608%,58.039216%);fill-opacity:1;" d="M 2.847656 24.203125 L 2.847656 36.792969 C 2.847656 41.421875 6.578125 45.152344 11.207031 45.152344 L 36.785156 45.152344 C 41.421875 45.152344 45.152344 41.421875 45.152344 36.792969 L 45.152344 24.203125 Z M 2.847656 24.203125 "/>
<path style=" stroke:none;fill-rule:evenodd;fill:rgb(0.784314%,52.156863%,49.019608%);fill-opacity:1;" d="M 2.847656 24.203125 L 45.152344 24.203125 L 45.152344 11.207031 C 45.152344 6.578125 41.421875 2.847656 36.785156 2.847656 L 11.207031 2.847656 C 6.578125 2.847656 2.847656 6.578125 2.847656 11.207031 Z M 2.847656 24.203125 "/>
<path style=" stroke:none;fill-rule:nonzero;fill:rgb(100%,100%,100%);fill-opacity:1;" d="M 14.359375 27.640625 C 14.390625 28.425781 14.558594 29.042969 14.863281 29.488281 C 15.167969 29.921875 15.5 30.246094 15.871094 30.46875 C 16.253906 30.675781 16.613281 30.808594 16.949219 30.855469 C 17.300781 30.902344 17.542969 30.925781 17.667969 30.925781 C 18.160156 30.925781 18.609375 30.828125 19.011719 30.640625 C 19.40625 30.433594 19.746094 30.175781 20.015625 29.871094 C 20.285156 29.550781 20.496094 29.203125 20.640625 28.816406 C 20.78125 28.433594 20.855469 28.050781 20.855469 27.667969 C 20.855469 27.1875 20.761719 26.75 20.566406 26.347656 C 20.390625 25.949219 20.152344 25.613281 19.847656 25.34375 C 19.546875 25.074219 19.191406 24.863281 18.792969 24.71875 C 18.394531 24.558594 17.980469 24.480469 17.546875 24.480469 L 16.636719 24.480469 L 16.636719 21.984375 L 17.5 21.984375 C 18.140625 21.984375 18.636719 21.863281 18.984375 21.625 C 19.339844 21.371094 19.59375 21.09375 19.75 20.785156 C 19.925781 20.484375 20.027344 20.203125 20.042969 19.949219 C 20.074219 19.691406 20.089844 19.550781 20.089844 19.519531 C 20.089844 19.199219 20.03125 18.894531 19.921875 18.609375 C 19.808594 18.300781 19.644531 18.042969 19.441406 17.816406 C 19.234375 17.59375 18.980469 17.417969 18.671875 17.292969 C 18.386719 17.144531 18.066406 17.074219 17.714844 17.074219 C 17.589844 17.074219 17.402344 17.097656 17.160156 17.144531 C 16.9375 17.175781 16.699219 17.277344 16.441406 17.433594 C 16.1875 17.59375 15.957031 17.839844 15.75 18.175781 C 15.542969 18.511719 15.40625 18.972656 15.34375 19.566406 L 12.847656 19.566406 C 12.910156 18.558594 13.144531 17.746094 13.546875 17.121094 C 13.941406 16.5 14.40625 16.019531 14.933594 15.683594 C 15.464844 15.332031 15.988281 15.097656 16.515625 14.988281 C 17.042969 14.859375 17.46875 14.796875 17.785156 14.796875 C 18.488281 14.796875 19.128906 14.925781 19.703125 15.183594 C 20.296875 15.421875 20.796875 15.765625 21.214844 16.214844 C 21.644531 16.640625 21.980469 17.160156 22.21875 17.769531 C 22.457031 18.359375 22.578125 19.003906 22.578125 19.707031 C 22.578125 20.1875 22.53125 20.605469 22.4375 20.957031 C 22.339844 21.308594 22.214844 21.621094 22.050781 21.890625 C 21.910156 22.144531 21.738281 22.378906 21.550781 22.589844 C 21.359375 22.777344 21.15625 22.96875 20.949219 23.160156 C 21.464844 23.480469 21.871094 23.839844 22.171875 24.238281 C 22.488281 24.640625 22.738281 25.035156 22.917969 25.4375 C 23.09375 25.839844 23.203125 26.230469 23.25 26.613281 C 23.3125 26.980469 23.347656 27.296875 23.347656 27.574219 C 23.347656 28.464844 23.1875 29.265625 22.871094 29.96875 C 22.5625 30.65625 22.152344 31.238281 21.621094 31.71875 C 21.09375 32.199219 20.480469 32.5625 19.777344 32.816406 C 19.089844 33.074219 18.363281 33.203125 17.59375 33.203125 C 16.84375 33.203125 16.125 33.066406 15.4375 32.796875 C 14.75 32.527344 14.144531 32.140625 13.613281 31.644531 C 13.089844 31.152344 12.667969 30.566406 12.347656 29.894531 C 12.027344 29.207031 11.871094 28.457031 11.871094 27.640625 Z M 14.359375 27.640625 "/>
<path style=" stroke:none;fill-rule:nonzero;fill:rgb(100%,100%,100%);fill-opacity:1;" d="M 33.285156 32.871094 L 30.792969 32.871094 L 30.792969 17.410156 L 28.183594 17.410156 L 28.183594 15.128906 L 33.285156 15.128906 Z M 33.285156 32.871094 "/>
</g>
</svg>
