<?xml version="1.0" encoding="UTF-8"?>
<svg xmlns="http://www.w3.org/2000/svg" xmlns:xlink="http://www.w3.org/1999/xlink" width="48pt" height="48pt" viewBox="0 0 48 48" version="1.1">
<g id="surface1">
<path style=" stroke:none;fill-rule:evenodd;fill:rgb(92.54902%,92.54902%,92.54902%);fill-opacity:1;" d="M 11.207031 2.847656 L 36.792969 2.847656 C 41.40625 2.847656 45.152344 6.59375 45.152344 11.207031 L 45.152344 36.792969 C 45.152344 41.40625 41.40625 45.152344 36.792969 45.152344 L 11.207031 45.152344 C 6.59375 45.152344 2.847656 41.40625 2.847656 36.792969 L 2.847656 11.207031 C 2.847656 6.59375 6.59375 2.847656 11.207031 2.847656 Z M 11.207031 2.847656 "/>
<path style=" stroke:none;fill-rule:evenodd;fill:rgb(92.54902%,92.54902%,92.54902%);fill-opacity:1;" d="M 11.207031 2.847656 C 6.578125 2.847656 2.847656 6.578125 2.847656 11.207031 L 2.847656 35.347656 C 3.113281 35.285156 3.53125 35.109375 3.765625 35.066406 C 6.511719 34.546875 8.640625 34.296875 10.5 34.316406 C 12.359375 34.339844 13.941406 34.636719 15.59375 35.207031 C 17.128906 35.738281 17.5625 35.800781 19.1875 35.714844 C 20.582031 35.640625 22.113281 35.371094 23.609375 34.953125 C 25.105469 34.53125 26.558594 33.957031 27.792969 33.292969 C 28.910156 32.6875 29.355469 32.1875 30.015625 31.453125 C 29.785156 31.488281 29.5625 31.519531 29.339844 31.542969 C 28.636719 31.59375 27.949219 31.597656 27.277344 31.558594 C 26.605469 31.511719 25.949219 31.421875 25.3125 31.285156 C 24.675781 31.152344 24.058594 30.96875 23.464844 30.738281 C 22.871094 30.515625 22.296875 30.246094 21.75 29.925781 C 21.359375 29.703125 20.984375 29.457031 20.625 29.191406 C 20.113281 28.8125 19.636719 28.394531 19.183594 27.933594 C 18.722656 27.472656 18.300781 26.972656 17.910156 26.433594 C 17.515625 25.894531 17.15625 25.316406 16.832031 24.707031 C 16.503906 24.09375 16.207031 23.449219 15.953125 22.769531 C 15.691406 22.089844 15.46875 21.378906 15.285156 20.640625 C 15.097656 19.902344 14.941406 19.136719 14.828125 18.34375 C 14.714844 17.550781 14.640625 16.734375 14.597656 15.902344 C 14.558594 15.0625 14.558594 14.207031 14.589844 13.332031 C 14.625 12.457031 14.699219 11.574219 14.800781 10.671875 C 14.910156 9.765625 15.058594 8.855469 15.238281 7.933594 C 15.417969 7.015625 15.636719 6.089844 15.886719 5.160156 C 16.097656 4.390625 16.339844 3.621094 16.597656 2.847656 Z M 11.207031 2.847656 "/>
<path style=" stroke:none;fill-rule:evenodd;fill:rgb(19.215686%,56.862745%,80.392157%);fill-opacity:1;" d="M 16.597656 2.847656 C 16.339844 3.621094 16.097656 4.390625 15.886719 5.160156 C 15.636719 6.089844 15.417969 7.015625 15.238281 7.933594 C 15.058594 8.855469 14.910156 9.765625 14.800781 10.671875 C 14.699219 11.574219 14.625 12.457031 14.589844 13.332031 C 14.558594 14.207031 14.558594 15.0625 14.597656 15.902344 C 14.640625 16.734375 14.714844 17.550781 14.828125 18.34375 C 14.941406 19.136719 15.097656 19.902344 15.285156 20.640625 C 15.46875 21.378906 15.691406 22.089844 15.953125 22.769531 C 16.207031 23.449219 16.503906 24.09375 16.832031 24.707031 C 17.15625 25.316406 17.515625 25.894531 17.910156 26.433594 C 18.300781 26.972656 18.722656 27.472656 19.183594 27.933594 C 19.636719 28.394531 20.113281 28.8125 20.625 29.191406 C 20.984375 29.457031 21.359375 29.703125 21.75 29.925781 C 22.296875 30.246094 22.871094 30.515625 23.464844 30.738281 C 24.058594 30.96875 24.675781 31.152344 25.3125 31.285156 C 25.949219 31.421875 26.605469 31.511719 27.277344 31.558594 C 27.949219 31.597656 28.636719 31.59375 29.339844 31.542969 C 30.042969 31.496094 30.753906 31.402344 31.472656 31.253906 C 32.199219 31.113281 32.933594 30.925781 33.667969 30.691406 C 34.40625 30.457031 35.144531 30.175781 35.890625 29.855469 C 36.636719 29.535156 37.378906 29.167969 38.125 28.761719 C 38.871094 28.355469 39.609375 27.902344 40.347656 27.410156 C 41.082031 26.921875 41.8125 26.394531 42.53125 25.832031 C 43.253906 25.265625 43.96875 24.660156 44.667969 24.027344 C 44.828125 23.863281 44.988281 23.707031 45.152344 23.546875 L 45.152344 19.261719 C 45.019531 19.425781 44.886719 19.589844 44.753906 19.75 C 44.261719 20.316406 43.753906 20.863281 43.234375 21.386719 C 42.71875 21.90625 42.1875 22.40625 41.652344 22.878906 C 41.109375 23.347656 40.5625 23.792969 40.011719 24.207031 C 39.453125 24.625 38.894531 25.011719 38.328125 25.363281 C 37.765625 25.722656 37.199219 26.046875 36.628906 26.339844 C 36.0625 26.636719 35.488281 26.894531 34.925781 27.121094 C 34.359375 27.347656 33.792969 27.542969 33.230469 27.699219 C 32.671875 27.855469 32.121094 27.980469 31.574219 28.066406 C 31.019531 28.15625 30.484375 28.207031 29.953125 28.222656 C 29.421875 28.238281 28.90625 28.222656 28.402344 28.167969 C 27.894531 28.113281 27.402344 28.027344 26.921875 27.902344 C 26.449219 27.78125 25.984375 27.621094 25.542969 27.425781 C 25.230469 27.292969 24.921875 27.136719 24.625 26.964844 C 24.207031 26.722656 23.8125 26.449219 23.433594 26.140625 C 23.058594 25.832031 22.703125 25.496094 22.371094 25.128906 C 22.035156 24.761719 21.722656 24.359375 21.4375 23.933594 C 21.15625 23.5 20.894531 23.046875 20.660156 22.5625 C 20.425781 22.082031 20.21875 21.574219 20.035156 21.042969 C 19.855469 20.511719 19.699219 19.953125 19.574219 19.375 C 19.449219 18.800781 19.347656 18.203125 19.277344 17.589844 C 19.207031 16.972656 19.160156 16.339844 19.144531 15.691406 C 19.136719 15.042969 19.152344 14.378906 19.191406 13.707031 C 19.234375 13.035156 19.308594 12.347656 19.402344 11.65625 C 19.5 10.964844 19.628906 10.265625 19.785156 9.558594 C 19.9375 8.855469 20.121094 8.144531 20.328125 7.4375 C 20.535156 6.722656 20.769531 6.015625 21.03125 5.308594 C 21.292969 4.597656 21.578125 3.890625 21.886719 3.191406 C 21.941406 3.078125 21.996094 2.964844 22.050781 2.847656 Z M 16.597656 2.847656 "/>
<path style="fill-rule:nonzero;fill:rgb(40%,40%,40%);fill-opacity:1;stroke-width:0.3;stroke-linecap:butt;stroke-linejoin:miter;stroke:rgb(40%,40%,40%);stroke-opacity:1;stroke-miterlimit:4;" d="M 23.080729 17.96875 C 22.5625 17.955729 22.013021 17.992188 21.333333 18.125 C 21.145833 18.158854 20.679688 18.278646 20.440104 18.354167 C 19.614583 18.614583 18.510417 19.148438 17.981771 19.549479 L 17.872396 19.632812 C 17.622396 19.833333 17.388021 20.054688 17.25 20.361979 L 17.200521 20.460938 C 17.15625 20.559896 17.148438 20.5625 17.09375 20.552083 C 17.0625 20.544271 16.835938 20.539062 16.59375 20.539062 C 16.1875 20.541667 16.132812 20.544271 15.914062 20.591146 C 15.351562 20.710938 14.820312 20.945312 14.346354 21.283854 L 14.208333 21.382812 L 14.114583 21.309896 C 13.986979 21.210938 13.627604 21.039062 13.460938 20.989583 C 13.083333 20.882812 12.677083 20.84375 12.09375 20.861979 C 10.580729 20.90625 9.330729 21.208333 8.153646 21.820312 C 7.502604 22.153646 6.835938 22.606771 6.486979 22.955729 C 6.260417 23.177083 6.169271 23.34375 6.135417 23.583333 C 6.117188 23.731771 6.114583 23.731771 6.049479 23.757812 C 5.924479 23.802083 5.4375 24.049479 5.346354 24.114583 C 5.268229 24.174479 5.257812 24.1875 5.257812 24.257812 C 5.257812 24.341146 5.299479 24.450521 5.335938 24.476562 C 5.354167 24.486979 5.356771 24.481771 5.346354 24.455729 C 5.309896 24.364583 5.294271 24.257812 5.315104 24.21875 C 5.346354 24.164062 5.669271 23.976562 5.927083 23.872396 L 6.153646 23.78125 L 6.166667 23.885417 C 6.174479 23.940104 6.197917 24.028646 6.21875 24.075521 C 6.247396 24.138021 6.25 24.164062 6.231771 24.169271 C 6.21875 24.174479 6.09375 24.216146 5.950521 24.263021 C 5.809896 24.309896 5.643229 24.361979 5.583333 24.377604 C 5.466146 24.408854 5.427083 24.440104 5.419271 24.510417 C 5.416667 24.53125 5.414062 24.5625 5.408854 24.575521 C 5.40625 24.591146 5.4375 24.622396 5.479167 24.643229 C 5.606771 24.710938 5.760417 24.697917 6.033854 24.59375 C 6.164062 24.544271 6.270833 24.510417 6.278646 24.518229 C 6.283854 24.523438 6.3125 24.583333 6.335938 24.645833 C 6.455729 24.955729 6.684896 25.34375 6.872396 25.565104 C 7.0625 25.789062 7.356771 25.989583 7.632812 26.075521 L 7.729167 26.106771 L 7.335938 26.497396 C 6.888021 26.940104 6.200521 27.664062 6.200521 27.695312 C 6.200521 27.721354 6.291667 27.903646 6.354167 27.992188 C 6.424479 28.09375 6.549479 28.21875 6.677083 28.320312 C 6.731771 28.364583 6.783854 28.398438 6.791667 28.398438 C 6.799479 28.398438 7.106771 28.101562 7.476562 27.736979 C 7.846354 27.372396 8.34375 26.895833 8.575521 26.677083 L 8.997396 26.28125 L 9.229167 26.28125 C 9.434896 26.28125 9.846354 26.247396 10.117188 26.210938 C 10.377604 26.580729 10.666667 27.135417 10.416667 26.174479 C 10.419271 26.169271 10.510417 26.148438 10.614583 26.127604 C 12.210938 25.802083 13.570312 25.080729 14.315104 24.15625 C 14.59375 23.8125 14.679688 23.575521 14.6875 23.153646 L 14.690104 22.898438 L 14.768229 22.872396 C 14.809896 22.856771 15 22.789062 15.190104 22.71875 C 15.919271 22.447917 16.049479 22.408854 16.382812 22.346354 C 16.815104 22.268229 17.492188 22.153646 17.5 22.158854 C 17.5 22.158854 17.528646 22.210938 17.554688 22.268229 C 17.697917 22.552083 17.924479 22.802083 18.148438 22.927083 C 18.408854 23.072917 18.856771 23.210938 19.289062 23.28125 C 20.596354 23.497396 22.28125 23.195312 23.700521 22.486979 C 23.8125 22.429688 23.950521 22.356771 24.007812 22.325521 C 24.091146 22.273438 24.122396 22.268229 24.179688 22.278646 C 24.335938 22.304688 25.174479 22.502604 25.1875 22.518229 C 25.333333 22.549479 25.552083 22.617188 25.552083 22.617188 C 25.565104 22.604167 25.611979 22.614583 26.40625 22.825521 C 26.768229 22.919271 27.075521 22.992188 27.091146 22.989583 C 27.117188 22.979167 27.197917 22.789062 27.236979 22.638021 C 27.268229 22.53125 27.283854 22.270833 27.268229 22.166667 L 27.257812 22.080729 L 26.971354 21.989583 C 26.664062 21.893229 25.833333 21.65625 25.497396 21.570312 L 25.283854 21.518229 L 25.263021 21.440104 C 25.242188 21.367188 25.247396 21.361979 25.335938 21.229167 C 25.447917 21.0625 25.533854 20.872396 25.591146 20.648438 C 25.625 20.502604 25.632812 20.429688 25.632812 20.072917 C 25.632812 19.804688 25.625 19.611979 25.606771 19.520833 C 25.59375 19.445312 25.585938 19.375 25.591146 19.372396 C 25.596354 19.364583 25.705729 19.341146 25.825521 19.322917 C 26.143229 19.270833 26.289062 19.200521 26.364583 19.054688 C 26.398438 18.989583 26.398438 18.981771 26.364583 18.981771 C 26.346354 18.981771 26.333333 18.971354 26.333333 18.955729 C 26.333333 18.940104 26.309896 18.919271 26.278646 18.90625 C 26.229167 18.885417 26.195312 18.888021 26.03125 18.929688 C 25.864583 18.971354 25.492188 19.049479 25.440104 19.049479 C 25.429688 19.049479 25.414062 19 25.40625 18.940104 C 25.398438 18.877604 25.377604 18.799479 25.354167 18.757812 L 25.315104 18.679688 L 25.377604 18.669271 C 25.583333 18.635417 25.799479 18.617188 26.023438 18.625 L 26.283854 18.627604 L 26.320312 18.716146 C 26.335938 18.760417 26.356771 18.815104 26.361979 18.835938 C 26.382812 18.903646 26.395833 18.854167 26.382812 18.763021 C 26.375 18.716146 26.351562 18.653646 26.322917 18.617188 L 26.273438 18.5625 L 26.059896 18.5625 C 25.854167 18.5625 25.479167 18.585938 25.372396 18.611979 C 25.325521 18.617188 25.3125 18.606771 25.257812 18.523438 C 25.153646 18.361979 24.960938 18.229167 24.705729 18.138021 C 24.697917 18.138021 24.664062 18.132812 24.653646 18.127604 C 24.645833 18.127604 24.643229 18.132812 24.635417 18.132812 C 24.080729 18.049479 23.596354 17.981771 23.080729 17.96875 Z M 22.929688 18.013021 C 23.289062 18.013021 23.648438 18.028646 23.84375 18.052083 C 24.427083 18.127604 24.65625 18.179688 24.854167 18.289062 C 24.924479 18.322917 24.966146 18.351562 24.945312 18.34375 C 24.614583 18.247396 24.260417 18.166667 23.872396 18.111979 C 23.486979 18.052083 22.6875 18.028646 22.294271 18.0625 C 21.304688 18.153646 20.382812 18.416667 19.335938 18.90625 C 18.768229 19.200521 18.177083 19.486979 17.666667 19.966146 C 17.497396 20.138021 17.414062 20.268229 17.354167 20.447917 C 17.330729 20.510417 17.304688 20.617188 17.299479 20.684896 L 17.28125 20.804688 L 17.28125 20.695312 C 17.278646 20.601562 17.270833 20.583333 17.239583 20.572917 C 17.1875 20.559896 17.1875 20.552083 17.263021 20.398438 C 17.466146 20.007812 17.851562 19.627604 18.364583 19.322917 C 18.53125 19.221354 18.875 19.039062 18.929688 19.018229 C 18.976562 19.002604 18.976562 19.002604 18.940104 19.03125 C 18.856771 19.09375 18.96875 19.049479 19.299479 18.877604 C 20.138021 18.455729 21.052083 18.177083 22.018229 18.052083 C 22.208333 18.028646 22.570312 18.013021 22.929688 18.013021 Z M 22.71875 18.072917 C 22.971354 18.065104 23.226562 18.070312 23.382812 18.083333 C 23.658854 18.106771 24.091146 18.164062 24.075521 18.174479 C 24.072917 18.177083 23.979167 18.174479 23.872396 18.164062 C 22.830729 18.059896 21.833333 18.125 20.927083 18.361979 C 20.585938 18.447917 20.549479 18.455729 20.71875 18.398438 C 21.0625 18.283854 21.596354 18.169271 22.044271 18.111979 C 22.208333 18.091146 22.466146 18.075521 22.71875 18.072917 Z M 23.25 18.174479 C 23.40625 18.177083 23.5625 18.190104 23.71875 18.205729 C 23.729167 18.197917 23.739583 18.195312 23.75 18.1875 C 24.054688 18.221354 24.260417 18.257812 24.424479 18.294271 C 24.445312 18.299479 24.466146 18.302083 24.486979 18.304688 L 24.46875 18.309896 C 24.572917 18.335938 24.669271 18.364583 24.747396 18.403646 C 24.945312 18.502604 25.023438 18.59375 25.145833 18.864583 C 25.21875 19.028646 25.216146 19.03125 25.177083 19.044271 C 25.054688 19.091146 24.455729 19.226562 23.815104 19.354167 C 23.007812 19.518229 22.726562 19.583333 22.476562 19.669271 C 22.333333 19.721354 22.145833 19.804688 22.239583 19.778646 C 22.695312 19.645833 24.007812 19.346354 24.690104 19.221354 C 24.783854 19.205729 24.947917 19.169271 25.052083 19.145833 L 25.239583 19.101562 L 25.263021 19.190104 L 25.289062 19.278646 L 25.018229 19.356771 C 23.416667 19.822917 22.747396 20.007812 22.302083 20.096354 C 21.9375 20.174479 21.929688 20.174479 21.929688 19.992188 C 21.929688 19.919271 21.9375 19.895833 21.96875 19.882812 C 22.023438 19.851562 22.018229 19.809896 21.945312 19.763021 C 21.898438 19.736979 21.861979 19.729167 21.815104 19.736979 C 21.638021 19.763021 19.375 20.497396 17.893229 21.007812 C 17.645833 21.091146 17.4375 21.158854 17.427083 21.158854 C 17.414062 21.158854 17.403646 21.106771 17.385417 20.955729 L 17.489583 20.627604 L 17.408854 20.65625 C 17.697917 19.539062 20.377604 18.09375 23.25 18.174479 Z M 24.138021 18.1875 C 24.153646 18.179688 24.169271 18.179688 24.177083 18.1875 C 24.179688 18.195312 24.169271 18.197917 24.148438 18.197917 C 24.127604 18.197917 24.122396 18.190104 24.138021 18.1875 Z M 24.841146 18.351562 C 24.877604 18.351562 25.122396 18.4375 25.145833 18.460938 C 25.164062 18.476562 25.179688 18.520833 25.190104 18.559896 C 25.197917 18.596354 25.273438 18.851562 25.364583 19.122396 C 25.502604 19.549479 25.596354 19.908854 25.572917 19.934896 C 25.570312 19.9375 25.549479 19.945312 25.523438 19.947917 C 25.5 19.950521 25.466146 19.958333 25.447917 19.966146 C 25.424479 19.976562 25.416667 19.950521 25.40625 19.791667 C 25.372396 19.270833 25.166667 18.684896 24.9375 18.455729 C 24.882812 18.398438 24.835938 18.351562 24.841146 18.351562 Z M 25.21875 18.565104 C 25.221354 18.5625 25.229167 18.570312 25.239583 18.585938 C 25.252604 18.606771 25.257812 18.625 25.25 18.632812 C 25.247396 18.635417 25.236979 18.625 25.231771 18.611979 C 25.221354 18.585938 25.21875 18.570312 25.21875 18.565104 Z M 25.283854 18.770833 C 25.28125 18.757812 25.289062 18.763021 25.302083 18.791667 C 25.320312 18.820312 25.335938 18.872396 25.34375 18.914062 C 25.361979 19.007812 25.346354 19.002604 25.315104 18.903646 C 25.294271 18.830729 25.283854 18.789062 25.283854 18.770833 Z M 25.981771 18.986979 C 26.013021 18.986979 26.023438 18.989583 26.039062 19.002604 C 26.065104 19.03125 26.0625 19.039062 26.018229 19.083333 C 25.986979 19.111979 25.895833 19.153646 25.815104 19.179688 C 25.736979 19.205729 25.645833 19.231771 25.611979 19.239583 C 25.554688 19.25 25.549479 19.247396 25.53125 19.174479 C 25.510417 19.085938 25.481771 19.101562 25.820312 19.020833 C 25.90625 19 25.955729 18.989583 25.981771 18.986979 Z M 25.434896 19.114583 C 25.479167 19.114583 25.486979 19.127604 25.513021 19.25 C 25.53125 19.322917 25.559896 19.471354 25.575521 19.575521 C 25.611979 19.799479 25.604167 19.864583 25.570312 19.690104 C 25.549479 19.596354 25.447917 19.273438 25.398438 19.148438 C 25.393229 19.125 25.398438 19.114583 25.434896 19.114583 Z M 25.291667 19.424479 C 25.335938 19.424479 25.346354 19.476562 25.372396 19.820312 C 25.393229 20.091146 25.372396 20.450521 25.322917 20.643229 C 25.257812 20.882812 25.028646 21.252604 25.028646 21.252604 C 25.018229 21.270833 24.976562 21.315104 24.9375 21.351562 L 24.864583 21.419271 L 24.528646 21.346354 C 23.59375 21.145833 22.445312 20.989583 21.59375 20.950521 C 21.208333 20.929688 21.03125 20.934896 20.544271 20.958333 L 20.382812 20.96875 L 20.825521 20.815104 C 21.841146 20.466146 22.023438 20.393229 22.075521 20.333333 C 22.101562 20.302083 22.125 20.257812 22.125 20.231771 C 22.125 20.208333 22.127604 20.184896 22.138021 20.184896 C 22.252604 20.184896 22.820312 20.054688 23.304688 19.916667 C 24.177083 19.669271 25.174479 19.424479 25.291667 19.424479 Z M 18.044271 19.6875 C 18.03125 19.705729 17.986979 19.75 17.903646 19.833333 C 17.697917 20.033854 17.554688 20.226562 17.4375 20.466146 C 17.372396 20.596354 17.364583 20.625 17.356771 20.820312 C 17.351562 20.9375 17.356771 21.075521 17.372396 21.143229 C 17.395833 21.268229 17.572917 21.804688 17.638021 21.950521 C 17.664062 22.002604 17.677083 22.049479 17.674479 22.052083 C 17.658854 22.065104 17.539062 21.770833 17.458333 21.523438 C 17.320312 21.104167 17.289062 20.84375 17.34375 20.583333 C 17.414062 20.260417 17.632812 19.966146 17.989583 19.71875 C 18.033854 19.684896 18.054688 19.669271 18.044271 19.6875 Z M 19.914062 19.822917 L 19.768229 19.872396 C 19.815104 19.856771 19.864583 19.841146 19.914062 19.822917 Z M 16.559896 20.549479 L 16.716146 20.549479 L 16.736979 20.606771 C 16.75 20.643229 16.752604 20.669271 16.752604 20.674479 C 16.75 20.674479 16.627604 20.6875 16.481771 20.697917 C 16 20.739583 15.419271 20.895833 15.007812 21.091146 C 14.90625 21.135417 14.78125 21.200521 14.726562 21.236979 C 14.622396 21.299479 14.604167 21.291667 14.604167 21.1875 C 14.604167 21.138021 14.710938 21.065104 15 20.927083 C 15.466146 20.695312 16.070312 20.549479 16.559896 20.549479 Z M 17.294271 20.809896 L 17.294271 20.927083 C 17.294271 21.083333 17.333333 21.252604 17.4375 21.565104 C 17.583333 22.010417 17.757812 22.309896 18 22.552083 C 18.15625 22.700521 18.419271 22.885417 18.466146 22.872396 C 18.479167 22.864583 18.486979 22.867188 18.479167 22.877604 C 18.466146 22.898438 18.6875 22.997396 18.882812 23.059896 C 19.388021 23.210938 20.416667 23.268229 21.122396 23.177083 C 21.934896 23.072917 22.830729 22.799479 23.583333 22.424479 C 23.854167 22.289062 24.007812 22.197917 24.377604 21.955729 C 24.539062 21.854167 24.669271 21.773438 24.674479 21.778646 C 24.677083 21.78125 24.653646 21.804688 24.617188 21.833333 C 23.601562 22.604167 22.125 23.138021 20.690104 23.260417 C 20.419271 23.283854 19.882812 23.28125 19.622396 23.257812 C 19.200521 23.21875 18.736979 23.111979 18.395833 22.976562 C 17.976562 22.802083 17.752604 22.583333 17.539062 22.127604 C 17.346354 21.729167 17.101562 20.914062 17.177083 20.934896 C 17.1875 20.9375 17.21875 20.908854 17.247396 20.875 Z M 15.864583 20.825521 C 15.885417 20.825521 15.895833 20.833333 15.90625 20.846354 C 15.919271 20.864583 15.929688 20.888021 15.929688 20.895833 C 15.929688 20.903646 15.867188 20.927083 15.791667 20.950521 C 15.716146 20.971354 15.614583 21.002604 15.565104 21.018229 C 15.450521 21.054688 15.429688 21.052083 15.429688 21 C 15.429688 20.947917 15.481771 20.924479 15.739583 20.854167 C 15.804688 20.835938 15.84375 20.825521 15.864583 20.825521 Z M 16.757812 20.841146 C 16.885417 20.84375 16.992188 20.854167 17.044271 20.877604 C 17.114583 20.90625 17.114583 20.90625 17.138021 21.075521 C 17.148438 21.169271 17.153646 21.25 17.145833 21.257812 C 17.138021 21.263021 16.851562 21.367188 16.502604 21.489583 L 15.875 21.710938 L 15.242188 21.825521 C 14.898438 21.893229 14.591146 21.947917 14.5625 21.955729 C 14.518229 21.966146 14.510417 21.955729 14.471354 21.851562 C 14.450521 21.791667 14.429688 21.726562 14.429688 21.705729 C 14.429688 21.653646 14.601562 21.489583 14.75 21.395833 C 15.125 21.164062 15.783854 20.945312 16.354167 20.861979 C 16.481771 20.84375 16.627604 20.835938 16.757812 20.841146 Z M 12.479167 20.882812 C 12.872396 20.888021 13.268229 20.950521 13.53125 21.044271 C 13.731771 21.117188 13.989583 21.252604 14.018229 21.302083 C 14.028646 21.322917 14.054688 21.356771 14.080729 21.375 C 14.101562 21.393229 14.148438 21.46875 14.179688 21.541667 C 14.216146 21.614583 14.257812 21.6875 14.273438 21.697917 C 14.320312 21.736979 14.40625 21.950521 14.46875 22.169271 C 14.666667 22.885417 14.674479 23.4375 14.479167 23.815104 C 14.320312 24.127604 13.778646 24.666667 13.309896 24.979167 C 12.333333 25.627604 11.091146 26.049479 9.747396 26.174479 C 9.242188 26.221354 8.53125 26.200521 8.247396 26.127604 C 8.174479 26.111979 8.177083 26.106771 8.278646 26.117188 C 8.335938 26.125 8.455729 26.135417 8.544271 26.148438 C 8.791667 26.177083 9.510417 26.174479 9.84375 26.138021 C 10.684896 26.049479 11.476562 25.841146 12.208333 25.518229 C 12.528646 25.377604 12.908854 25.169271 12.986979 25.096354 C 13.013021 25.070312 13.125 24.986979 13.229167 24.908854 C 13.822917 24.492188 14.28125 23.979167 14.393229 23.611979 C 14.40625 23.565104 14.424479 23.533854 14.429688 23.539062 C 14.466146 23.559896 14.497396 23.335938 14.497396 23.080729 C 14.492188 22.854167 14.481771 22.757812 14.424479 22.447917 C 14.322917 21.9375 14.302083 21.875 14.208333 21.721354 C 14.106771 21.559896 14.002604 21.460938 13.822917 21.354167 C 13.377604 21.091146 12.822917 20.979167 11.940104 20.966146 L 11.708333 20.960938 L 11.893229 20.940104 L 12.075521 20.916667 L 11.950521 20.908854 C 11.854167 20.90625 11.888021 20.903646 12.09375 20.888021 C 12.21875 20.877604 12.351562 20.877604 12.479167 20.882812 Z M 11.679688 20.96875 C 11.679688 20.976562 11.552083 20.997396 11.395833 21.013021 C 9.804688 21.205729 8.601562 21.635417 7.414062 22.434896 C 7.010417 22.705729 6.736979 22.916667 6.580729 23.075521 C 6.416667 23.239583 6.385417 23.294271 6.34375 23.481771 C 6.289062 23.760417 6.403646 24.299479 6.638021 24.851562 C 6.684896 24.950521 6.71875 25.044271 6.71875 25.054688 C 6.71875 25.0625 6.700521 25.075521 6.679688 25.083333 C 6.632812 25.09375 6.554688 24.989583 6.440104 24.747396 C 6.354167 24.5625 6.247396 24.231771 6.270833 24.221354 C 6.333333 24.200521 6.333333 24.184896 6.283854 24.075521 C 6.25 24 6.229167 23.914062 6.216146 23.770833 C 6.190104 23.520833 6.216146 23.429688 6.356771 23.216146 C 6.479167 23.028646 6.638021 22.867188 6.940104 22.635417 C 7.992188 21.822917 9.174479 21.302083 10.46875 21.075521 C 10.893229 21.002604 11.679688 20.934896 11.679688 20.96875 Z M 12.481771 21.039062 C 13.065104 21.0625 13.471354 21.1875 13.856771 21.440104 C 14.007812 21.539062 14.075521 21.617188 14.169271 21.802083 C 14.273438 22.010417 14.273438 22.013021 14.177083 22.028646 C 13.638021 22.111979 11.135417 22.622396 9.940104 22.895833 C 9.596354 22.976562 9.570312 23.010417 9.632812 23.270833 C 9.645833 23.333333 9.658854 23.398438 9.658854 23.416667 C 9.658854 23.450521 9.395833 23.544271 8.947917 23.669271 C 8.393229 23.825521 6.6875 24.25 6.632812 24.25 C 6.601562 24.247396 6.554688 24.252604 6.53125 24.263021 C 6.481771 24.278646 6.46875 24.257812 6.460938 24.158854 C 6.458333 24.083333 6.429688 24.096354 7.382812 23.789062 C 8.294271 23.492188 8.59375 23.398438 8.96875 23.299479 C 9.322917 23.205729 9.335938 23.200521 9.210938 23.216146 C 9.007812 23.236979 8.6875 23.330729 7.989583 23.559896 C 6.851562 23.9375 6.466146 24.049479 6.429688 24.013021 C 6.398438 23.981771 6.385417 23.583333 6.408854 23.476562 C 6.460938 23.263021 6.645833 23.052083 7.039062 22.75 C 7.960938 22.033854 8.888021 21.580729 9.981771 21.302083 C 10.554688 21.158854 11.101562 21.080729 11.835938 21.044271 C 12.072917 21.03125 12.289062 21.03125 12.481771 21.039062 Z M 20.789062 21.835938 C 21.591146 21.841146 22.356771 21.929688 23.325521 22.106771 C 23.580729 22.153646 23.791667 22.190104 23.802083 22.190104 C 23.851562 22.190104 23.760417 22.247396 23.510417 22.372396 C 22.726562 22.760417 21.864583 23.018229 20.989583 23.117188 C 20.6875 23.15625 20.080729 23.169271 19.825521 23.145833 C 19.083333 23.083333 18.427083 22.872396 18.125 22.601562 C 17.96875 22.458333 17.75 22.153646 17.783854 22.122396 C 17.791667 22.114583 17.903646 22.09375 18.03125 22.072917 C 19.145833 21.908854 19.986979 21.830729 20.789062 21.835938 Z M 18.611979 22.924479 C 18.614583 22.916667 18.638021 22.924479 18.658854 22.9375 C 18.679688 22.947917 18.802083 22.986979 18.924479 23.020833 C 19.049479 23.059896 19.135417 23.085938 19.114583 23.085938 C 19.03125 23.085938 18.591146 22.940104 18.611979 22.924479 Z M 14.416667 23.013021 C 14.429688 23.013021 14.434896 23.083333 14.427083 23.229167 C 14.40625 23.59375 14.315104 23.809896 14.033854 24.143229 C 13.335938 24.976562 12.125 25.625 10.708333 25.927083 C 10.533854 25.960938 10.393229 25.992188 10.385417 25.992188 C 10.354167 25.854167 10.309896 25.697917 10.289062 25.549479 L 10.239583 25.427083 L 10.216146 25.270833 L 10.382812 25.125 C 11.239583 24.466146 12.236979 23.898438 13.382812 23.424479 C 13.864583 23.221354 14.393229 23.013021 14.416667 23.013021 Z M 19.177083 23.096354 C 19.1875 23.091146 19.210938 23.091146 19.221354 23.096354 C 19.236979 23.101562 19.226562 23.104167 19.197917 23.104167 C 19.174479 23.104167 19.164062 23.101562 19.177083 23.096354 Z M 19.291667 23.114583 C 19.304688 23.111979 19.325521 23.111979 19.341146 23.114583 C 19.354167 23.122396 19.341146 23.125 19.315104 23.125 C 19.289062 23.125 19.278646 23.122396 19.291667 23.114583 Z M 19.427083 23.135417 C 19.440104 23.127604 19.458333 23.127604 19.466146 23.135417 C 19.471354 23.143229 19.458333 23.145833 19.4375 23.145833 C 19.416667 23.145833 19.414062 23.138021 19.427083 23.132812 Z M 11.541667 23.320312 C 11.549479 23.320312 11.429688 23.385417 11.278646 23.466146 C 10.455729 23.895833 9.708333 24.416667 8.643229 25.309896 C 8.458333 25.460938 8.221354 25.666667 8.114583 25.763021 C 8.010417 25.856771 7.919271 25.934896 7.914062 25.934896 C 7.875 25.929688 7.585938 25.815104 7.510417 25.770833 C 7.200521 25.596354 6.924479 25.273438 6.705729 24.835938 C 6.625 24.684896 6.528646 24.450521 6.528646 24.424479 C 6.528646 24.385417 7.5 24.104167 8.507812 23.854167 C 9.080729 23.710938 9.21875 23.674479 9.559896 23.549479 L 9.674479 23.502604 L 9.726562 23.554688 C 9.75 23.580729 9.794271 23.611979 9.820312 23.614583 C 9.872396 23.627604 10.164062 23.580729 10.981771 23.424479 C 11.28125 23.364583 11.53125 23.320312 11.541667 23.320312 Z M 6.205729 24.252604 C 6.210938 24.260417 6.221354 24.294271 6.226562 24.333333 L 6.229167 24.398438 L 6.065104 24.440104 C 5.908854 24.479167 5.778646 24.492188 5.726562 24.471354 C 5.695312 24.458333 5.695312 24.395833 5.721354 24.377604 C 5.768229 24.351562 6.190104 24.239583 6.205729 24.252604 Z M 10.023438 25.549479 C 10.028646 25.572917 10.033854 25.635417 10.049479 25.6875 C 10.065104 25.770833 10.075521 25.783854 10.114583 25.783854 C 10.158854 25.783854 10.166667 25.799479 10.1875 25.992188 C 10.190104 26.013021 10.148438 26.028646 10.018229 26.044271 C 9.924479 26.054688 9.705729 26.072917 9.539062 26.080729 L 9.229167 26.091146 L 9.320312 26.007812 C 9.372396 25.958333 9.544271 25.809896 9.705729 25.677083 Z M 10.023438 25.549479 " transform="matrix(1.5,0,0,1.5,0,0)"/>
</g>
</svg>
