<?xml version="1.0" encoding="UTF-8"?>
<svg xmlns="http://www.w3.org/2000/svg" xmlns:xlink="http://www.w3.org/1999/xlink" width="48pt" height="48pt" viewBox="0 0 48 48" version="1.1">
<g id="surface1">
<path style=" stroke:none;fill-rule:evenodd;fill:rgb(92.54902%,92.54902%,92.54902%);fill-opacity:1;" d="M 22.050781 2.847656 C 21.996094 2.964844 21.941406 3.078125 21.886719 3.191406 C 21.578125 3.890625 21.292969 4.597656 21.03125 5.308594 C 20.769531 6.015625 20.535156 6.722656 20.328125 7.4375 C 20.121094 8.144531 19.9375 8.855469 19.785156 9.558594 C 19.628906 10.265625 19.5 10.964844 19.402344 11.65625 C 19.308594 12.347656 19.234375 13.035156 19.191406 13.707031 C 19.152344 14.378906 19.136719 15.042969 19.144531 15.691406 C 19.160156 16.339844 19.207031 16.972656 19.277344 17.589844 C 19.347656 18.203125 19.449219 18.800781 19.574219 19.375 C 19.699219 19.953125 19.855469 20.511719 20.035156 21.042969 C 20.21875 21.574219 20.425781 22.082031 20.660156 22.5625 C 20.894531 23.046875 21.15625 23.5 21.4375 23.925781 C 21.722656 24.359375 22.035156 24.761719 22.371094 25.128906 C 22.703125 25.496094 23.058594 25.832031 23.433594 26.140625 C 23.8125 26.449219 24.207031 26.722656 24.625 26.964844 C 24.921875 27.136719 25.230469 27.292969 25.542969 27.425781 C 25.984375 27.621094 26.449219 27.78125 26.921875 27.902344 C 27.402344 28.027344 27.894531 28.113281 28.402344 28.167969 C 28.90625 28.222656 29.421875 28.238281 29.953125 28.222656 C 30.484375 28.207031 31.019531 28.15625 31.574219 28.066406 C 32.121094 27.980469 32.671875 27.855469 33.230469 27.699219 C 33.792969 27.542969 34.359375 27.347656 34.925781 27.121094 C 35.488281 26.894531 36.0625 26.636719 36.628906 26.339844 C 37.199219 26.046875 37.765625 25.722656 38.328125 25.363281 C 38.894531 25.011719 39.453125 24.625 40.011719 24.207031 C 40.5625 23.792969 41.109375 23.347656 41.652344 22.878906 C 42.1875 22.40625 42.71875 21.90625 43.234375 21.386719 C 43.753906 20.863281 44.261719 20.316406 44.753906 19.75 C 44.886719 19.589844 45.019531 19.425781 45.152344 19.261719 L 45.152344 11.207031 C 45.152344 6.578125 41.421875 2.847656 36.792969 2.847656 Z M 22.050781 2.847656 "/>
<path style=" stroke:none;fill-rule:evenodd;fill:rgb(92.54902%,92.54902%,92.54902%);fill-opacity:1;" d="M 17.25 45.152344 C 17.4375 44.894531 17.707031 44.644531 17.859375 44.386719 C 18.328125 43.597656 18.628906 42.808594 18.746094 42.035156 C 18.863281 41.238281 18.847656 40.996094 18.59375 40.136719 C 18.292969 39.113281 17.746094 38.25 16.972656 37.5625 C 16.203125 36.878906 15.214844 36.375 14.027344 36.078125 C 12.796875 35.769531 11.519531 35.628906 10.027344 35.65625 C 8.53125 35.683594 6.824219 35.878906 4.738281 36.246094 C 4.324219 36.316406 3.484375 36.671875 2.855469 36.832031 C 2.878906 41.449219 6.59375 45.152344 11.207031 45.152344 Z M 17.25 45.152344 "/>
<path style=" stroke:none;fill-rule:evenodd;fill:rgb(92.54902%,92.54902%,92.54902%);fill-opacity:1;" d="M 42.824219 42.542969 C 42.234375 42.605469 41.5625 42.828125 41.027344 42.832031 C 38.503906 42.878906 36.246094 42.53125 34.386719 41.84375 C 33.457031 41.5 32.625 41.074219 31.917969 40.5625 C 31.203125 40.058594 30.609375 39.472656 30.152344 38.816406 C 29.84375 38.375 29.535156 37.824219 29.472656 37.597656 C 29.378906 37.265625 29.25 37.140625 28.8125 36.957031 C 27.5625 36.441406 26.390625 36.394531 24.691406 36.785156 C 23.128906 37.144531 22.074219 37.625 21.191406 38.375 C 20.261719 39.160156 19.863281 39.792969 20 40.265625 C 20.167969 40.871094 20.082031 42.292969 19.824219 43.160156 C 19.625 43.828125 19.246094 44.488281 18.855469 45.152344 L 36.792969 45.152344 C 39.183594 45.152344 41.300781 44.136719 42.824219 42.542969 Z M 42.824219 42.542969 "/>
<path style=" stroke:none;fill-rule:evenodd;fill:rgb(92.54902%,92.54902%,92.54902%);fill-opacity:1;" d="M 42.832031 25.578125 C 43.589844 25.347656 44.046875 25.066406 45.042969 24.8125 C 45.089844 24.800781 45.109375 24.800781 45.152344 24.792969 L 45.152344 23.546875 C 44.988281 23.707031 44.828125 23.863281 44.667969 24.019531 C 44.0625 24.566406 43.453125 25.082031 42.832031 25.578125 Z M 42.832031 25.578125 "/>
<path style=" stroke:none;fill-rule:evenodd;fill:rgb(92.54902%,92.54902%,92.54902%);fill-opacity:1;" d="M 32.421875 31.015625 C 32.203125 31.246094 31.878906 31.464844 31.699219 31.703125 C 31.105469 32.496094 30.714844 33.316406 30.527344 34.160156 C 30.34375 35.003906 30.363281 35.871094 30.605469 36.75 C 30.792969 37.441406 31.050781 37.996094 31.464844 38.480469 C 31.875 38.96875 32.433594 39.390625 33.207031 39.832031 C 34.234375 40.417969 35.433594 40.847656 36.753906 41.125 C 38.074219 41.394531 39.503906 41.515625 40.988281 41.480469 C 41.894531 41.457031 42.839844 41.269531 43.765625 41.136719 C 44.566406 39.855469 45.152344 38.421875 45.152344 36.792969 L 45.152344 24.792969 C 45.109375 24.800781 45.089844 24.800781 45.042969 24.8125 C 44.046875 25.066406 43.589844 25.347656 42.832031 25.578125 C 42.734375 25.660156 42.636719 25.746094 42.53125 25.832031 C 41.8125 26.394531 41.082031 26.921875 40.347656 27.410156 C 39.609375 27.902344 38.871094 28.355469 38.125 28.761719 C 37.378906 29.167969 36.636719 29.535156 35.890625 29.855469 C 35.144531 30.175781 34.40625 30.457031 33.667969 30.691406 C 33.25 30.8125 32.832031 30.921875 32.421875 31.015625 Z M 32.421875 31.015625 "/>
<path style=" stroke:none;fill-rule:evenodd;fill:rgb(92.54902%,92.54902%,92.54902%);fill-opacity:1;" d="M 30.015625 31.453125 C 29.355469 32.1875 28.910156 32.6875 27.792969 33.292969 C 26.558594 33.957031 25.105469 34.53125 23.609375 34.953125 C 22.113281 35.371094 20.582031 35.640625 19.1875 35.714844 C 17.5625 35.800781 17.128906 35.738281 15.59375 35.207031 C 13.941406 34.636719 12.359375 34.339844 10.5 34.316406 C 8.640625 34.296875 6.511719 34.546875 3.765625 35.066406 C 3.53125 35.109375 3.113281 35.285156 2.847656 35.347656 L 2.847656 36.792969 C 2.847656 36.808594 2.855469 36.816406 2.855469 36.832031 C 3.484375 36.671875 4.324219 36.316406 4.738281 36.246094 C 6.824219 35.878906 8.53125 35.683594 10.027344 35.65625 C 11.519531 35.628906 12.796875 35.769531 14.027344 36.078125 C 15.214844 36.375 16.203125 36.878906 16.972656 37.5625 C 17.746094 38.25 18.292969 39.113281 18.59375 40.136719 C 18.847656 40.996094 18.863281 41.238281 18.746094 42.035156 C 18.628906 42.808594 18.328125 43.597656 17.859375 44.386719 C 17.707031 44.644531 17.4375 44.894531 17.25 45.152344 L 18.855469 45.152344 C 19.246094 44.488281 19.625 43.828125 19.824219 43.160156 C 20.082031 42.292969 20.167969 40.871094 20 40.265625 C 19.863281 39.792969 20.261719 39.160156 21.191406 38.375 C 22.074219 37.625 23.128906 37.144531 24.691406 36.785156 C 26.390625 36.394531 27.5625 36.441406 28.8125 36.957031 C 29.25 37.140625 29.378906 37.265625 29.472656 37.597656 C 29.535156 37.824219 29.84375 38.375 30.152344 38.816406 C 30.609375 39.472656 31.203125 40.058594 31.917969 40.5625 C 32.625 41.074219 33.457031 41.5 34.386719 41.84375 C 36.246094 42.53125 38.503906 42.878906 41.027344 42.832031 C 41.5625 42.828125 42.234375 42.605469 42.824219 42.542969 C 43.207031 42.128906 43.464844 41.621094 43.765625 41.136719 C 42.839844 41.269531 41.894531 41.457031 40.988281 41.480469 C 39.503906 41.515625 38.074219 41.394531 36.753906 41.125 C 35.433594 40.847656 34.234375 40.417969 33.207031 39.832031 C 32.433594 39.390625 31.875 38.96875 31.464844 38.480469 C 31.050781 37.996094 30.792969 37.441406 30.605469 36.75 C 30.363281 35.871094 30.34375 35.003906 30.527344 34.160156 C 30.714844 33.316406 31.105469 32.496094 31.699219 31.703125 C 31.878906 31.464844 32.203125 31.246094 32.421875 31.015625 C 32.105469 31.105469 31.792969 31.183594 31.472656 31.253906 C 30.984375 31.34375 30.496094 31.410156 30.015625 31.453125 Z M 30.015625 31.453125 "/>
<path style=" stroke:none;fill-rule:evenodd;fill:rgb(92.54902%,92.54902%,92.54902%);fill-opacity:1;" d="M 11.207031 2.847656 C 6.578125 2.847656 2.847656 6.578125 2.847656 11.207031 L 2.847656 35.347656 C 3.113281 35.285156 3.53125 35.109375 3.765625 35.066406 C 6.511719 34.546875 8.640625 34.296875 10.5 34.316406 C 12.359375 34.339844 13.941406 34.636719 15.59375 35.207031 C 17.128906 35.738281 17.5625 35.800781 19.1875 35.714844 C 20.582031 35.640625 22.113281 35.371094 23.609375 34.953125 C 25.105469 34.53125 26.558594 33.957031 27.792969 33.292969 C 28.910156 32.6875 29.355469 32.1875 30.015625 31.453125 C 29.785156 31.488281 29.5625 31.519531 29.339844 31.542969 C 28.636719 31.59375 27.949219 31.597656 27.277344 31.558594 C 26.605469 31.511719 25.949219 31.421875 25.3125 31.285156 C 24.675781 31.152344 24.058594 30.96875 23.464844 30.738281 C 22.871094 30.515625 22.296875 30.246094 21.75 29.925781 C 21.359375 29.703125 20.984375 29.457031 20.625 29.191406 C 20.113281 28.8125 19.636719 28.394531 19.183594 27.933594 C 18.722656 27.472656 18.300781 26.972656 17.910156 26.433594 C 17.515625 25.894531 17.15625 25.316406 16.832031 24.707031 C 16.503906 24.09375 16.207031 23.449219 15.953125 22.769531 C 15.691406 22.089844 15.46875 21.378906 15.285156 20.640625 C 15.097656 19.902344 14.941406 19.136719 14.828125 18.34375 C 14.714844 17.550781 14.640625 16.734375 14.597656 15.902344 C 14.558594 15.0625 14.558594 14.207031 14.589844 13.332031 C 14.625 12.457031 14.699219 11.574219 14.800781 10.671875 C 14.910156 9.765625 15.058594 8.855469 15.238281 7.933594 C 15.417969 7.015625 15.636719 6.089844 15.886719 5.160156 C 16.097656 4.390625 16.339844 3.621094 16.597656 2.847656 Z M 11.207031 2.847656 "/>
<path style=" stroke:none;fill-rule:evenodd;fill:rgb(19.215686%,56.862745%,80.392157%);fill-opacity:1;" d="M 16.597656 2.847656 C 16.339844 3.621094 16.097656 4.390625 15.886719 5.160156 C 15.636719 6.089844 15.417969 7.015625 15.238281 7.933594 C 15.058594 8.855469 14.910156 9.765625 14.800781 10.671875 C 14.699219 11.574219 14.625 12.457031 14.589844 13.332031 C 14.558594 14.207031 14.558594 15.0625 14.597656 15.902344 C 14.640625 16.734375 14.714844 17.550781 14.828125 18.34375 C 14.941406 19.136719 15.097656 19.902344 15.285156 20.640625 C 15.46875 21.378906 15.691406 22.089844 15.953125 22.769531 C 16.207031 23.449219 16.503906 24.09375 16.832031 24.707031 C 17.15625 25.316406 17.515625 25.894531 17.910156 26.433594 C 18.300781 26.972656 18.722656 27.472656 19.183594 27.933594 C 19.636719 28.394531 20.113281 28.8125 20.625 29.191406 C 20.984375 29.457031 21.359375 29.703125 21.75 29.925781 C 22.296875 30.246094 22.871094 30.515625 23.464844 30.738281 C 24.058594 30.96875 24.675781 31.152344 25.3125 31.285156 C 25.949219 31.421875 26.605469 31.511719 27.277344 31.558594 C 27.949219 31.597656 28.636719 31.59375 29.339844 31.542969 C 30.042969 31.496094 30.753906 31.402344 31.472656 31.253906 C 32.199219 31.113281 32.933594 30.925781 33.667969 30.691406 C 34.40625 30.457031 35.144531 30.175781 35.890625 29.855469 C 36.636719 29.535156 37.378906 29.167969 38.125 28.761719 C 38.871094 28.355469 39.609375 27.902344 40.347656 27.410156 C 41.082031 26.921875 41.8125 26.394531 42.53125 25.832031 C 43.253906 25.265625 43.96875 24.660156 44.667969 24.027344 C 44.828125 23.863281 44.988281 23.707031 45.152344 23.546875 L 45.152344 19.261719 C 45.019531 19.425781 44.886719 19.589844 44.753906 19.75 C 44.261719 20.316406 43.753906 20.863281 43.234375 21.386719 C 42.71875 21.90625 42.1875 22.40625 41.652344 22.878906 C 41.109375 23.347656 40.5625 23.792969 40.011719 24.207031 C 39.453125 24.625 38.894531 25.011719 38.328125 25.363281 C 37.765625 25.722656 37.199219 26.046875 36.628906 26.339844 C 36.0625 26.636719 35.488281 26.894531 34.925781 27.121094 C 34.359375 27.347656 33.792969 27.542969 33.230469 27.699219 C 32.671875 27.855469 32.121094 27.980469 31.574219 28.066406 C 31.019531 28.15625 30.484375 28.207031 29.953125 28.222656 C 29.421875 28.238281 28.90625 28.222656 28.402344 28.167969 C 27.894531 28.113281 27.402344 28.027344 26.921875 27.902344 C 26.449219 27.78125 25.984375 27.621094 25.542969 27.425781 C 25.230469 27.292969 24.921875 27.136719 24.625 26.964844 C 24.207031 26.722656 23.8125 26.449219 23.433594 26.140625 C 23.058594 25.832031 22.703125 25.496094 22.371094 25.128906 C 22.035156 24.761719 21.722656 24.359375 21.4375 23.933594 C 21.15625 23.5 20.894531 23.046875 20.660156 22.5625 C 20.425781 22.082031 20.21875 21.574219 20.035156 21.042969 C 19.855469 20.511719 19.699219 19.953125 19.574219 19.375 C 19.449219 18.800781 19.347656 18.203125 19.277344 17.589844 C 19.207031 16.972656 19.160156 16.339844 19.144531 15.691406 C 19.136719 15.042969 19.152344 14.378906 19.191406 13.707031 C 19.234375 13.035156 19.308594 12.347656 19.402344 11.65625 C 19.5 10.964844 19.628906 10.265625 19.785156 9.558594 C 19.9375 8.855469 20.121094 8.144531 20.328125 7.4375 C 20.535156 6.722656 20.769531 6.015625 21.03125 5.308594 C 21.292969 4.597656 21.578125 3.890625 21.886719 3.191406 C 21.941406 3.078125 21.996094 2.964844 22.050781 2.847656 Z M 16.597656 2.847656 "/>
<path style="fill-rule:nonzero;fill:rgb(40%,40%,40%);fill-opacity:1;stroke-width:0.3;stroke-linecap:butt;stroke-linejoin:miter;stroke:rgb(40%,40%,40%);stroke-opacity:1;stroke-miterlimit:4;" d="M 23.177083 19.111979 C 22.658854 19.096354 22.111979 19.138021 21.429688 19.270833 C 21.242188 19.304688 20.778646 19.424479 20.539062 19.497396 C 19.710938 19.757812 18.606771 20.294271 18.080729 20.695312 L 17.96875 20.778646 C 17.71875 20.979167 17.486979 21.197917 17.346354 21.507812 L 17.299479 21.606771 C 17.252604 21.700521 17.247396 21.708333 17.190104 21.697917 C 17.158854 21.690104 16.934896 21.684896 16.690104 21.684896 C 16.283854 21.684896 16.229167 21.690104 16.010417 21.736979 C 15.447917 21.856771 14.919271 22.091146 14.445312 22.427083 L 14.304688 22.528646 L 14.210938 22.455729 C 14.083333 22.356771 13.726562 22.184896 13.559896 22.135417 C 13.179688 22.028646 12.773438 21.989583 12.190104 22.007812 C 10.677083 22.049479 9.427083 22.354167 8.25 22.960938 C 7.601562 23.299479 6.934896 23.752604 6.583333 24.101562 C 6.356771 24.322917 6.268229 24.489583 6.231771 24.729167 C 6.216146 24.877604 6.210938 24.877604 6.145833 24.903646 C 6.020833 24.947917 5.533854 25.195312 5.445312 25.260417 C 5.364583 25.315104 5.354167 25.330729 5.354167 25.398438 C 5.354167 25.486979 5.395833 25.596354 5.434896 25.622396 C 5.450521 25.632812 5.455729 25.625 5.445312 25.601562 C 5.40625 25.510417 5.393229 25.403646 5.414062 25.364583 C 5.445312 25.304688 5.768229 25.122396 6.028646 25.018229 L 6.25 24.924479 L 6.263021 25.028646 C 6.270833 25.085938 6.294271 25.174479 6.315104 25.21875 C 6.34375 25.28125 6.346354 25.309896 6.330729 25.3125 C 6.315104 25.315104 6.190104 25.361979 6.049479 25.40625 C 5.90625 25.455729 5.739583 25.507812 5.679688 25.523438 C 5.5625 25.554688 5.523438 25.585938 5.518229 25.653646 C 5.513021 25.677083 5.510417 25.708333 5.507812 25.721354 C 5.502604 25.736979 5.533854 25.763021 5.575521 25.789062 C 5.705729 25.856771 5.856771 25.84375 6.132812 25.736979 C 6.260417 25.6875 6.367188 25.65625 6.375 25.664062 C 6.382812 25.669271 6.408854 25.729167 6.434896 25.791667 C 6.552083 26.096354 6.78125 26.489583 6.96875 26.708333 C 7.158854 26.934896 7.455729 27.132812 7.729167 27.221354 L 7.825521 27.252604 L 7.434896 27.638021 C 6.986979 28.085938 6.299479 28.809896 6.299479 28.841146 C 6.299479 28.867188 6.388021 29.044271 6.450521 29.138021 C 6.520833 29.239583 6.645833 29.364583 6.773438 29.466146 C 6.830729 29.510417 6.882812 29.544271 6.888021 29.544271 C 6.895833 29.544271 7.205729 29.247396 7.572917 28.882812 C 7.945312 28.518229 8.440104 28.039062 8.674479 27.822917 L 9.09375 27.427083 L 9.325521 27.427083 C 9.53125 27.424479 9.945312 27.393229 10.216146 27.356771 C 10.476562 27.726562 10.763021 28.278646 10.518229 27.315104 C 10.518229 27.3125 10.606771 27.294271 10.710938 27.270833 C 12.309896 26.947917 13.666667 26.221354 14.414062 25.302083 C 14.690104 24.958333 14.778646 24.721354 14.783854 24.299479 L 14.789062 24.044271 L 14.864583 24.018229 C 14.90625 24.002604 15.096354 23.934896 15.289062 23.861979 C 16.018229 23.59375 16.145833 23.552083 16.479167 23.492188 C 16.914062 23.414062 17.59375 23.299479 17.596354 23.302083 C 17.596354 23.304688 17.625 23.354167 17.653646 23.414062 C 17.794271 23.697917 18.020833 23.945312 18.247396 24.072917 C 18.507812 24.21875 18.955729 24.354167 19.385417 24.427083 C 20.695312 24.643229 22.382812 24.335938 23.799479 23.632812 C 23.908854 23.575521 24.049479 23.502604 24.104167 23.46875 C 24.190104 23.419271 24.21875 23.414062 24.278646 23.424479 C 24.434896 23.450521 25.270833 23.648438 25.283854 23.658854 C 25.429688 23.695312 25.648438 23.763021 25.648438 23.763021 C 25.664062 23.75 25.708333 23.760417 26.502604 23.96875 C 26.864583 24.065104 27.174479 24.138021 27.1875 24.132812 C 27.216146 24.122396 27.294271 23.934896 27.333333 23.783854 C 27.364583 23.674479 27.382812 23.414062 27.367188 23.3125 L 27.354167 23.221354 L 27.070312 23.135417 C 26.760417 23.039062 25.929688 22.802083 25.59375 22.716146 L 25.382812 22.658854 L 25.361979 22.585938 C 25.341146 22.513021 25.34375 22.502604 25.434896 22.375 C 25.544271 22.208333 25.632812 22.018229 25.6875 21.794271 C 25.726562 21.648438 25.729167 21.575521 25.729167 21.216146 C 25.729167 20.950521 25.721354 20.757812 25.705729 20.666667 C 25.690104 20.591146 25.684896 20.520833 25.6875 20.513021 C 25.695312 20.507812 25.802083 20.486979 25.924479 20.466146 C 26.239583 20.416667 26.385417 20.34375 26.460938 20.200521 C 26.497396 20.135417 26.497396 20.127604 26.460938 20.127604 C 26.445312 20.127604 26.429688 20.114583 26.429688 20.101562 C 26.429688 20.085938 26.40625 20.0625 26.375 20.052083 C 26.325521 20.03125 26.291667 20.033854 26.127604 20.075521 C 25.960938 20.117188 25.591146 20.195312 25.539062 20.195312 C 25.528646 20.195312 25.510417 20.145833 25.502604 20.083333 C 25.497396 20.023438 25.476562 19.940104 25.450521 19.898438 L 25.414062 19.825521 L 25.476562 19.815104 C 25.679688 19.778646 25.895833 19.763021 26.122396 19.768229 L 26.382812 19.773438 L 26.416667 19.861979 C 26.434896 19.90625 26.455729 19.960938 26.458333 19.981771 C 26.479167 20.044271 26.492188 19.997396 26.479167 19.908854 C 26.471354 19.856771 26.447917 19.799479 26.419271 19.763021 L 26.372396 19.705729 L 26.15625 19.705729 C 25.950521 19.705729 25.575521 19.731771 25.46875 19.757812 C 25.424479 19.763021 25.408854 19.752604 25.354167 19.669271 C 25.25 19.507812 25.059896 19.375 24.802083 19.283854 C 24.794271 19.28125 24.760417 19.278646 24.75 19.273438 C 24.747396 19.273438 24.739583 19.273438 24.736979 19.273438 C 24.177083 19.195312 23.695312 19.125 23.177083 19.111979 Z M 23.028646 19.158854 C 23.385417 19.158854 23.747396 19.174479 23.940104 19.197917 C 24.523438 19.273438 24.752604 19.325521 24.950521 19.429688 C 25.020833 19.46875 25.0625 19.492188 25.041667 19.489583 C 24.710938 19.393229 24.356771 19.3125 23.96875 19.252604 C 23.583333 19.195312 22.783854 19.174479 22.393229 19.208333 C 21.403646 19.299479 20.479167 19.559896 19.434896 20.052083 C 18.867188 20.34375 18.273438 20.632812 17.763021 21.106771 C 17.59375 21.283854 17.510417 21.408854 17.450521 21.591146 C 17.427083 21.65625 17.403646 21.763021 17.395833 21.830729 L 17.377604 21.950521 L 17.377604 21.841146 C 17.375 21.747396 17.367188 21.726562 17.335938 21.71875 C 17.283854 21.705729 17.283854 21.695312 17.361979 21.544271 C 17.5625 21.148438 17.947917 20.770833 18.460938 20.466146 C 18.627604 20.364583 18.971354 20.184896 19.028646 20.164062 C 19.072917 20.145833 19.072917 20.145833 19.039062 20.174479 C 18.955729 20.239583 19.065104 20.195312 19.395833 20.023438 C 20.236979 19.601562 21.148438 19.322917 22.114583 19.197917 C 22.304688 19.174479 22.666667 19.158854 23.028646 19.158854 Z M 22.815104 19.216146 C 23.070312 19.210938 23.322917 19.216146 23.479167 19.229167 C 23.757812 19.25 24.1875 19.309896 24.174479 19.320312 C 24.169271 19.322917 24.075521 19.315104 23.96875 19.304688 C 22.927083 19.205729 21.929688 19.270833 21.023438 19.507812 C 20.684896 19.59375 20.645833 19.601562 20.815104 19.544271 C 21.158854 19.429688 21.695312 19.3125 22.143229 19.257812 C 22.304688 19.236979 22.5625 19.221354 22.815104 19.216146 Z M 23.346354 19.315104 C 23.502604 19.322917 23.658854 19.335938 23.815104 19.351562 C 23.825521 19.34375 23.835938 19.341146 23.846354 19.333333 C 24.153646 19.367188 24.356771 19.403646 24.520833 19.440104 C 24.541667 19.445312 24.5625 19.445312 24.583333 19.450521 L 24.565104 19.455729 C 24.669271 19.481771 24.768229 19.510417 24.84375 19.549479 C 25.041667 19.648438 25.122396 19.739583 25.242188 20.010417 C 25.315104 20.174479 25.3125 20.174479 25.273438 20.190104 C 25.153646 20.231771 24.552083 20.372396 23.914062 20.5 C 23.104167 20.664062 22.822917 20.729167 22.572917 20.815104 C 22.429688 20.867188 22.242188 20.950521 22.335938 20.924479 C 22.791667 20.789062 24.104167 20.489583 24.789062 20.364583 C 24.882812 20.346354 25.044271 20.3125 25.148438 20.289062 L 25.335938 20.247396 L 25.361979 20.333333 L 25.385417 20.424479 L 25.114583 20.5 C 23.513021 20.966146 22.84375 21.148438 22.398438 21.242188 C 22.033854 21.320312 22.028646 21.315104 22.028646 21.138021 C 22.028646 21.065104 22.033854 21.041667 22.065104 21.023438 C 22.122396 20.997396 22.114583 20.955729 22.041667 20.908854 C 21.997396 20.882812 21.958333 20.875 21.914062 20.882812 C 21.736979 20.90625 19.471354 21.643229 17.989583 22.148438 C 17.742188 22.236979 17.533854 22.304688 17.523438 22.304688 C 17.510417 22.304688 17.5 22.25 17.481771 22.101562 L 17.585938 21.773438 L 17.507812 21.799479 C 17.794271 20.684896 20.476562 19.239583 23.346354 19.315104 Z M 24.236979 19.330729 C 24.25 19.325521 24.268229 19.325521 24.273438 19.333333 C 24.278646 19.341146 24.268229 19.34375 24.247396 19.34375 C 24.226562 19.341146 24.21875 19.335938 24.236979 19.330729 Z M 24.9375 19.497396 C 24.976562 19.497396 25.21875 19.583333 25.242188 19.604167 C 25.260417 19.622396 25.278646 19.664062 25.289062 19.705729 C 25.294271 19.742188 25.372396 19.997396 25.460938 20.268229 C 25.601562 20.695312 25.695312 21.054688 25.669271 21.080729 C 25.666667 21.083333 25.645833 21.091146 25.622396 21.09375 C 25.596354 21.09375 25.5625 21.104167 25.544271 21.111979 C 25.520833 21.122396 25.513021 21.096354 25.502604 20.934896 C 25.471354 20.416667 25.263021 19.825521 25.033854 19.601562 C 24.979167 19.544271 24.934896 19.497396 24.9375 19.497396 Z M 25.315104 19.710938 C 25.320312 19.705729 25.325521 19.710938 25.335938 19.731771 C 25.351562 19.752604 25.354167 19.770833 25.346354 19.778646 C 25.34375 19.78125 25.333333 19.770833 25.330729 19.752604 C 25.320312 19.729167 25.315104 19.716146 25.315104 19.710938 Z M 25.382812 19.916667 C 25.377604 19.898438 25.385417 19.908854 25.398438 19.9375 C 25.416667 19.960938 25.434896 20.018229 25.440104 20.054688 C 25.458333 20.153646 25.445312 20.145833 25.414062 20.044271 C 25.393229 19.971354 25.382812 19.929688 25.382812 19.916667 Z M 26.080729 20.132812 C 26.111979 20.127604 26.122396 20.135417 26.135417 20.148438 C 26.164062 20.177083 26.158854 20.184896 26.114583 20.229167 C 26.083333 20.252604 25.992188 20.299479 25.914062 20.322917 C 25.833333 20.351562 25.742188 20.377604 25.708333 20.385417 C 25.653646 20.395833 25.648438 20.393229 25.627604 20.320312 C 25.606771 20.229167 25.580729 20.247396 25.916667 20.164062 C 26.002604 20.145833 26.052083 20.132812 26.080729 20.132812 Z M 25.53125 20.260417 C 25.575521 20.260417 25.583333 20.273438 25.611979 20.395833 C 25.627604 20.46875 25.65625 20.614583 25.674479 20.721354 C 25.708333 20.940104 25.700521 21.010417 25.666667 20.835938 C 25.645833 20.742188 25.544271 20.419271 25.497396 20.291667 C 25.489583 20.268229 25.497396 20.260417 25.53125 20.260417 Z M 25.388021 20.565104 C 25.434896 20.565104 25.445312 20.622396 25.46875 20.966146 C 25.489583 21.236979 25.46875 21.596354 25.419271 21.789062 C 25.354167 22.028646 25.125 22.398438 25.125 22.398438 C 25.114583 22.416667 25.072917 22.458333 25.033854 22.497396 L 24.960938 22.565104 L 24.625 22.492188 C 23.690104 22.291667 22.541667 22.135417 21.690104 22.09375 C 21.304688 22.075521 21.127604 22.080729 20.643229 22.104167 L 20.479167 22.114583 L 20.924479 21.960938 C 21.9375 21.611979 22.122396 21.539062 22.174479 21.479167 C 22.197917 21.447917 22.221354 21.403646 22.221354 21.377604 C 22.221354 21.351562 22.226562 21.330729 22.236979 21.330729 C 22.351562 21.330729 22.916667 21.200521 23.403646 21.0625 C 24.273438 20.815104 25.270833 20.565104 25.388021 20.565104 Z M 18.143229 20.833333 C 18.127604 20.846354 18.083333 20.893229 18 20.979167 C 17.794271 21.179688 17.653646 21.372396 17.533854 21.606771 C 17.46875 21.742188 17.460938 21.768229 17.455729 21.960938 C 17.447917 22.083333 17.455729 22.21875 17.46875 22.283854 C 17.492188 22.414062 17.669271 22.947917 17.736979 23.096354 C 17.760417 23.145833 17.773438 23.195312 17.770833 23.197917 C 17.757812 23.210938 17.635417 22.916667 17.554688 22.666667 C 17.416667 22.25 17.385417 21.989583 17.440104 21.726562 C 17.510417 21.40625 17.729167 21.111979 18.085938 20.861979 C 18.132812 20.830729 18.153646 20.815104 18.143229 20.833333 Z M 20.010417 20.96875 L 19.864583 21.018229 C 19.914062 21 19.960938 20.986979 20.010417 20.96875 Z M 16.65625 21.695312 L 16.8125 21.695312 L 16.833333 21.752604 C 16.846354 21.789062 16.854167 21.815104 16.851562 21.815104 C 16.846354 21.820312 16.726562 21.830729 16.580729 21.84375 C 16.096354 21.885417 15.518229 22.039062 15.104167 22.231771 C 15.002604 22.28125 14.877604 22.346354 14.822917 22.377604 C 14.71875 22.440104 14.700521 22.4375 14.700521 22.333333 C 14.700521 22.283854 14.809896 22.210938 15.096354 22.072917 C 15.5625 21.841146 16.166667 21.695312 16.65625 21.695312 Z M 17.393229 21.955729 L 17.393229 22.072917 C 17.393229 22.226562 17.429688 22.398438 17.533854 22.710938 C 17.679688 23.153646 17.854167 23.455729 18.096354 23.695312 C 18.252604 23.846354 18.518229 24.03125 18.5625 24.018229 C 18.575521 24.010417 18.583333 24.013021 18.575521 24.020833 C 18.5625 24.044271 18.783854 24.143229 18.979167 24.200521 C 19.486979 24.356771 20.513021 24.414062 21.21875 24.322917 C 22.03125 24.21875 22.927083 23.945312 23.679688 23.565104 C 23.950521 23.429688 24.104167 23.34375 24.479167 23.101562 C 24.635417 22.997396 24.768229 22.916667 24.770833 22.919271 C 24.773438 22.927083 24.75 22.950521 24.716146 22.979167 C 23.697917 23.747396 22.221354 24.283854 20.789062 24.40625 C 20.518229 24.427083 19.979167 24.427083 19.71875 24.403646 C 19.299479 24.364583 18.833333 24.257812 18.492188 24.117188 C 18.072917 23.947917 17.851562 23.729167 17.635417 23.273438 C 17.445312 22.872396 17.197917 22.059896 17.273438 22.080729 C 17.283854 22.083333 17.315104 22.054688 17.34375 22.020833 Z M 15.960938 21.971354 C 15.981771 21.971354 15.992188 21.979167 16.002604 21.992188 C 16.018229 22.010417 16.028646 22.03125 16.028646 22.041667 C 16.028646 22.049479 15.966146 22.072917 15.888021 22.09375 C 15.8125 22.117188 15.710938 22.145833 15.664062 22.164062 C 15.549479 22.200521 15.528646 22.197917 15.528646 22.143229 C 15.528646 22.09375 15.580729 22.070312 15.835938 22 C 15.903646 21.981771 15.940104 21.971354 15.960938 21.971354 Z M 16.854167 21.986979 C 16.981771 21.986979 17.091146 22 17.143229 22.020833 C 17.210938 22.052083 17.210938 22.052083 17.236979 22.21875 C 17.247396 22.3125 17.25 22.395833 17.242188 22.403646 C 17.236979 22.408854 16.947917 22.513021 16.601562 22.635417 L 15.971354 22.856771 L 15.34375 22.971354 C 14.997396 23.033854 14.6875 23.09375 14.658854 23.096354 C 14.614583 23.106771 14.606771 23.101562 14.570312 22.997396 C 14.549479 22.934896 14.528646 22.867188 14.528646 22.851562 C 14.528646 22.799479 14.697917 22.635417 14.846354 22.541667 C 15.221354 22.309896 15.882812 22.091146 16.450521 22.007812 C 16.580729 21.989583 16.726562 21.981771 16.854167 21.986979 Z M 12.575521 22.023438 C 12.96875 22.033854 13.364583 22.09375 13.627604 22.190104 C 13.830729 22.263021 14.085938 22.398438 14.114583 22.447917 C 14.125 22.46875 14.153646 22.5 14.177083 22.520833 C 14.197917 22.539062 14.247396 22.614583 14.278646 22.6875 C 14.3125 22.760417 14.354167 22.830729 14.372396 22.84375 C 14.416667 22.882812 14.502604 23.096354 14.565104 23.3125 C 14.763021 24.03125 14.770833 24.583333 14.575521 24.960938 C 14.416667 25.273438 13.875 25.809896 13.40625 26.122396 C 12.429688 26.773438 11.1875 27.190104 9.84375 27.320312 C 9.341146 27.367188 8.627604 27.346354 8.34375 27.273438 C 8.270833 27.252604 8.273438 27.252604 8.375 27.263021 C 8.434896 27.268229 8.552083 27.28125 8.643229 27.291667 C 8.888021 27.322917 9.606771 27.320312 9.940104 27.283854 C 10.78125 27.195312 11.572917 26.986979 12.304688 26.664062 C 12.625 26.523438 13.007812 26.315104 13.083333 26.239583 C 13.111979 26.216146 13.221354 26.132812 13.325521 26.054688 C 13.919271 25.635417 14.377604 25.122396 14.489583 24.757812 C 14.502604 24.710938 14.520833 24.679688 14.53125 24.684896 C 14.5625 24.705729 14.59375 24.479167 14.59375 24.226562 C 14.591146 23.997396 14.580729 23.903646 14.520833 23.59375 C 14.419271 23.083333 14.398438 23.020833 14.304688 22.867188 C 14.205729 22.705729 14.101562 22.606771 13.919271 22.5 C 13.476562 22.236979 12.919271 22.122396 12.039062 22.111979 L 11.804688 22.106771 L 11.989583 22.085938 L 12.174479 22.0625 L 12.049479 22.054688 C 11.950521 22.052083 11.986979 22.049479 12.190104 22.033854 C 12.315104 22.023438 12.447917 22.020833 12.575521 22.023438 Z M 11.778646 22.114583 C 11.778646 22.122396 11.648438 22.143229 11.492188 22.158854 C 9.903646 22.351562 8.697917 22.778646 7.510417 23.580729 C 7.106771 23.851562 6.833333 24.0625 6.677083 24.221354 C 6.513021 24.385417 6.481771 24.440104 6.440104 24.627604 C 6.385417 24.90625 6.5 25.440104 6.736979 25.997396 C 6.78125 26.096354 6.815104 26.1875 6.815104 26.197917 C 6.815104 26.208333 6.799479 26.221354 6.778646 26.226562 C 6.729167 26.239583 6.653646 26.135417 6.539062 25.888021 C 6.450521 25.705729 6.34375 25.375 6.367188 25.367188 C 6.429688 25.34375 6.429688 25.330729 6.382812 25.221354 C 6.346354 25.143229 6.325521 25.054688 6.3125 24.914062 C 6.289062 24.666667 6.3125 24.575521 6.455729 24.356771 C 6.575521 24.174479 6.736979 24.013021 7.039062 23.78125 C 8.091146 22.96875 9.270833 22.445312 10.565104 22.21875 C 10.989583 22.145833 11.778646 22.075521 11.778646 22.114583 Z M 12.580729 22.184896 C 13.164062 22.208333 13.570312 22.333333 13.955729 22.585938 C 14.104167 22.684896 14.174479 22.763021 14.268229 22.947917 C 14.372396 23.153646 14.372396 23.158854 14.273438 23.174479 C 13.736979 23.252604 11.231771 23.768229 10.039062 24.041667 C 9.695312 24.122396 9.666667 24.15625 9.729167 24.416667 C 9.742188 24.479167 9.757812 24.544271 9.757812 24.5625 C 9.757812 24.596354 9.492188 24.690104 9.044271 24.815104 C 8.489583 24.96875 6.783854 25.395833 6.729167 25.395833 C 6.697917 25.393229 6.653646 25.398438 6.627604 25.40625 C 6.580729 25.424479 6.565104 25.398438 6.559896 25.302083 C 6.554688 25.229167 6.528646 25.239583 7.479167 24.934896 C 8.393229 24.638021 8.690104 24.544271 9.065104 24.445312 C 9.419271 24.351562 9.434896 24.346354 9.309896 24.361979 C 9.104167 24.382812 8.783854 24.471354 8.085938 24.705729 C 6.947917 25.083333 6.5625 25.195312 6.528646 25.15625 C 6.497396 25.125 6.481771 24.729167 6.507812 24.617188 C 6.559896 24.408854 6.742188 24.197917 7.135417 23.895833 C 8.059896 23.179688 8.986979 22.726562 10.080729 22.447917 C 10.653646 22.302083 11.197917 22.226562 11.934896 22.1875 C 12.169271 22.177083 12.385417 22.174479 12.580729 22.184896 Z M 20.885417 22.979167 C 21.6875 22.986979 22.455729 23.075521 23.424479 23.252604 C 23.677083 23.299479 23.888021 23.335938 23.898438 23.335938 C 23.947917 23.335938 23.856771 23.393229 23.606771 23.518229 C 22.822917 23.90625 21.960938 24.158854 21.085938 24.263021 C 20.783854 24.299479 20.177083 24.3125 19.924479 24.291667 C 19.179688 24.226562 18.523438 24.013021 18.221354 23.742188 C 18.065104 23.604167 17.846354 23.299479 17.882812 23.263021 C 17.888021 23.260417 18 23.239583 18.127604 23.21875 C 19.242188 23.054688 20.083333 22.976562 20.885417 22.979167 Z M 18.708333 24.070312 C 18.710938 24.0625 18.736979 24.070312 18.757812 24.080729 C 18.778646 24.09375 18.898438 24.132812 19.020833 24.166667 C 19.145833 24.200521 19.231771 24.231771 19.210938 24.231771 C 19.132812 24.231771 18.6875 24.085938 18.708333 24.070312 Z M 14.513021 24.15625 C 14.528646 24.15625 14.53125 24.229167 14.523438 24.372396 C 14.502604 24.739583 14.414062 24.950521 14.135417 25.283854 C 13.434896 26.117188 12.221354 26.768229 10.804688 27.072917 C 10.632812 27.106771 10.489583 27.138021 10.481771 27.138021 C 10.450521 26.997396 10.40625 26.841146 10.385417 26.695312 L 10.335938 26.570312 L 10.3125 26.414062 L 10.479167 26.270833 C 11.335938 25.606771 12.333333 25.044271 13.479167 24.570312 C 13.966146 24.367188 14.489583 24.15625 14.513021 24.15625 Z M 19.273438 24.239583 C 19.283854 24.236979 19.309896 24.236979 19.320312 24.239583 C 19.333333 24.247396 19.322917 24.25 19.294271 24.25 C 19.270833 24.25 19.260417 24.247396 19.273438 24.239583 Z M 19.388021 24.260417 C 19.403646 24.252604 19.424479 24.252604 19.4375 24.260417 C 19.450521 24.263021 19.4375 24.270833 19.414062 24.270833 C 19.385417 24.270833 19.375 24.263021 19.388021 24.260417 Z M 19.523438 24.278646 C 19.539062 24.273438 19.554688 24.273438 19.5625 24.28125 C 19.570312 24.289062 19.554688 24.291667 19.533854 24.291667 C 19.513021 24.289062 19.510417 24.283854 19.523438 24.278646 Z M 11.638021 24.466146 C 11.645833 24.466146 11.528646 24.53125 11.375 24.611979 C 10.552083 25.039062 9.804688 25.5625 8.739583 26.455729 C 8.554688 26.606771 8.320312 26.8125 8.210938 26.908854 C 8.106771 27.002604 8.018229 27.080729 8.010417 27.080729 C 7.971354 27.075521 7.684896 26.958333 7.606771 26.916667 C 7.299479 26.739583 7.020833 26.416667 6.802083 25.981771 C 6.721354 25.825521 6.625 25.596354 6.625 25.570312 C 6.625 25.528646 7.596354 25.25 8.604167 25 C 9.177083 24.856771 9.315104 24.815104 9.65625 24.690104 L 9.770833 24.648438 L 9.822917 24.697917 C 9.846354 24.726562 9.893229 24.752604 9.916667 24.760417 C 9.96875 24.773438 10.260417 24.726562 11.080729 24.565104 C 11.377604 24.510417 11.627604 24.466146 11.638021 24.466146 Z M 6.302083 25.395833 C 6.309896 25.403646 6.320312 25.440104 6.322917 25.476562 L 6.325521 25.541667 L 6.164062 25.585938 C 6.007812 25.625 5.875 25.638021 5.822917 25.617188 C 5.791667 25.604167 5.791667 25.541667 5.820312 25.523438 C 5.864583 25.497396 6.289062 25.385417 6.302083 25.395833 Z M 10.122396 26.695312 C 10.125 26.716146 10.132812 26.778646 10.145833 26.833333 C 10.164062 26.916667 10.174479 26.927083 10.210938 26.927083 C 10.257812 26.927083 10.263021 26.945312 10.283854 27.138021 C 10.289062 27.158854 10.247396 27.169271 10.114583 27.1875 C 10.020833 27.200521 9.802083 27.21875 9.635417 27.226562 L 9.325521 27.236979 L 9.416667 27.148438 C 9.46875 27.104167 9.643229 26.955729 9.802083 26.822917 Z M 10.122396 26.695312 " transform="matrix(1.5,0,0,1.5,0,0)"/>
</g>
</svg>
