<?xml version="1.0" encoding="UTF-8"?>
<svg xmlns="http://www.w3.org/2000/svg" xmlns:xlink="http://www.w3.org/1999/xlink" width="48pt" height="48pt" viewBox="0 0 48 48" version="1.1">
<g id="surface1">
<path style=" stroke:none;fill-rule:evenodd;fill:rgb(11.372549%,23.529412%,39.607843%);fill-opacity:1;" d="M 11.207031 2.847656 L 36.792969 2.847656 C 41.40625 2.847656 45.152344 6.59375 45.152344 11.207031 L 45.152344 36.792969 C 45.152344 41.40625 41.40625 45.152344 36.792969 45.152344 L 11.207031 45.152344 C 6.59375 45.152344 2.847656 41.40625 2.847656 36.792969 L 2.847656 11.207031 C 2.847656 6.59375 6.59375 2.847656 11.207031 2.847656 Z M 11.207031 2.847656 "/>
<path style=" stroke:none;fill-rule:nonzero;fill:rgb(16.470588%,66.666667%,87.45098%);fill-opacity:1;" d="M 20.640625 23.011719 C 11.660156 18.953125 8.269531 17.25 8.199219 16.761719 C 8.144531 16.4375 8.328125 16.113281 8.691406 15.878906 C 9.003906 15.671875 12.253906 14.121094 15.921875 12.433594 C 21.894531 9.671875 22.71875 9.355469 23.910156 9.355469 C 25.109375 9.355469 25.933594 9.671875 31.90625 12.433594 C 35.566406 14.121094 38.816406 15.671875 39.121094 15.871094 C 40.238281 16.605469 39.855469 17.125 37.3125 18.3125 C 23.316406 24.859375 24.1875 24.613281 20.640625 23.011719 Z M 20.640625 23.011719 "/>
<path style=" stroke:none;fill-rule:nonzero;fill:rgb(50.588235%,68.235294%,12.941176%);fill-opacity:1;" d="M 21.984375 30.800781 C 21.339844 30.542969 13.949219 27.171875 11.046875 25.808594 C 9.5 25.078125 8.167969 24.300781 8.082031 24.078125 C 7.863281 23.515625 8.441406 23.09375 11.121094 21.863281 L 13.433594 20.800781 L 18.128906 22.972656 C 21.847656 24.691406 23.0625 25.144531 23.921875 25.144531 C 24.785156 25.144531 26 24.691406 29.714844 22.972656 L 34.410156 20.800781 L 36.730469 21.863281 C 38 22.453125 39.238281 23.097656 39.480469 23.308594 C 40.449219 24.136719 40.347656 24.199219 29.746094 29.09375 C 26.347656 30.660156 26.902344 30.359375 25.917969 30.816406 C 24.5 31.402344 23.449219 31.390625 21.984375 30.800781 Z M 21.984375 30.800781 "/>
<path style=" stroke:none;fill-rule:nonzero;fill:rgb(92.156863%,32.941176%,11.372549%);fill-opacity:1;" d="M 22.078125 38.199219 C 21.433594 37.9375 14.042969 34.566406 11.140625 33.203125 C 9.59375 32.472656 8.261719 31.699219 8.175781 31.472656 C 7.964844 30.910156 8.542969 30.488281 11.214844 29.261719 L 13.53125 28.199219 L 18.230469 30.371094 C 21.941406 32.089844 23.15625 32.542969 24.019531 32.542969 C 24.878906 32.542969 26.09375 32.089844 29.808594 30.371094 L 34.511719 28.199219 L 36.824219 29.261719 C 38.09375 29.847656 39.332031 30.496094 39.578125 30.703125 C 40.546875 31.53125 40.441406 31.589844 29.839844 36.488281 C 26.449219 38.058594 27 37.753906 26.015625 38.214844 C 24.59375 38.796875 23.546875 38.785156 22.078125 38.199219 Z M 22.078125 38.199219 "/>
</g>
</svg>
