<?xml version="1.0" encoding="UTF-8"?>
<svg xmlns="http://www.w3.org/2000/svg" xmlns:xlink="http://www.w3.org/1999/xlink" width="48pt" height="48pt" viewBox="0 0 48 48" version="1.1">
<g id="surface1">
<path style=" stroke:none;fill-rule:evenodd;fill:rgb(18.823529%,21.960784%,46.666667%);fill-opacity:1;" d="M 11.207031 2.847656 L 36.792969 2.847656 C 41.40625 2.847656 45.152344 6.59375 45.152344 11.207031 L 45.152344 36.792969 C 45.152344 41.40625 41.40625 45.152344 36.792969 45.152344 L 11.207031 45.152344 C 6.59375 45.152344 2.847656 41.40625 2.847656 36.792969 L 2.847656 11.207031 C 2.847656 6.59375 6.59375 2.847656 11.207031 2.847656 Z M 11.207031 2.847656 "/>
<path style=" stroke:none;fill-rule:nonzero;fill:rgb(61.176471%,61.176471%,61.176471%);fill-opacity:1;" d="M 24 13.5 C 20.703125 13.503906 17.410156 14.3125 14.902344 15.90625 C 9.378906 19.410156 9 25.484375 14.074219 29.207031 C 14.535156 29.546875 14.964844 29.859375 15.015625 29.902344 L 13.609375 32.394531 L 16.5 34.5 L 24 22.019531 L 31.5 34.5 L 34.390625 32.394531 L 32.984375 29.902344 C 33.035156 29.859375 33.464844 29.546875 33.925781 29.207031 C 39 25.484375 38.621094 19.410156 33.097656 15.90625 C 30.589844 14.3125 27.296875 13.503906 24 13.5 Z M 23.238281 15 L 16.488281 27 C 8.988281 21 17.238281 15 23.238281 15 Z M 24.75 15 C 30.75 15 39 21 31.5 27 Z M 24 25.5 L 21 29.996094 L 24 34.5 L 27 29.996094 Z M 24 25.5 "/>
</g>
</svg>
