<?xml version="1.0" encoding="UTF-8"?>
<svg xmlns="http://www.w3.org/2000/svg" xmlns:xlink="http://www.w3.org/1999/xlink" width="48pt" height="48pt" viewBox="0 0 48 48" version="1.1">
<g id="surface1">
<path style=" stroke:none;fill-rule:evenodd;fill:rgb(38.823529%,65.882353%,82.745098%);fill-opacity:1;" d="M 6.519531 43.535156 L 33.972656 16.984375 C 33.1875 15.03125 32.40625 13.363281 31.671875 12.152344 C 30.941406 10.9375 30.265625 10.171875 29.671875 10.015625 C 29.53125 9.972656 29.371094 9.964844 29.183594 9.980469 C 28.46875 10.035156 27.453125 10.488281 26.222656 11.238281 C 24.988281 11.988281 23.542969 13.035156 21.96875 14.292969 C 18.824219 16.8125 15.175781 20.167969 11.746094 23.644531 C 8.328125 27.109375 5.128906 30.691406 2.84375 33.691406 L 2.84375 36.792969 C 2.84375 39.644531 4.355469 42.027344 6.519531 43.535156 Z M 6.519531 43.535156 "/>
<path style=" stroke:none;fill-rule:evenodd;fill:rgb(80.392157%,89.411765%,99.215686%);fill-opacity:1;" d="M 41.0625 43.816406 C 41.03125 43.597656 41.046875 43.46875 41.015625 43.246094 C 40.441406 39.152344 39.3125 34.027344 37.941406 29.03125 L 21.28125 45.152344 L 36.792969 45.152344 C 38.386719 45.152344 39.792969 44.589844 41.0625 43.816406 Z M 41.0625 43.816406 "/>
<path style=" stroke:none;fill-rule:evenodd;fill:rgb(61.176471%,78.039216%,95.686275%);fill-opacity:1;" d="M 37.890625 29.082031 C 37.90625 29.042969 37.933594 29.015625 37.949219 28.972656 C 36.734375 24.566406 35.347656 20.28125 33.972656 16.878906 C 33.957031 16.886719 33.949219 16.894531 33.9375 16.902344 C 33.949219 16.933594 33.957031 16.949219 33.972656 16.984375 L 6.519531 43.535156 C 7.875 44.472656 9.433594 45.152344 11.207031 45.152344 L 21.28125 45.152344 Z M 37.890625 29.082031 "/>
<path style=" stroke:none;fill-rule:evenodd;fill:rgb(0%,49.411765%,100%);fill-opacity:1;" d="M 11.207031 2.847656 C 6.578125 2.847656 2.84375 6.578125 2.84375 11.207031 L 2.84375 33.691406 C 5.128906 30.691406 8.328125 27.109375 11.746094 23.644531 C 15.175781 20.167969 18.824219 16.8125 21.96875 14.292969 C 23.542969 13.035156 24.988281 11.988281 26.222656 11.238281 C 27.453125 10.488281 28.46875 10.035156 29.183594 9.980469 C 29.371094 9.964844 29.53125 9.972656 29.671875 10.015625 C 30.265625 10.171875 30.941406 10.9375 31.671875 12.152344 C 32.390625 13.34375 33.160156 14.988281 33.9375 16.902344 C 33.949219 16.894531 33.957031 16.886719 33.972656 16.878906 C 35.347656 20.28125 36.734375 24.566406 37.949219 28.972656 C 37.933594 29.015625 37.90625 29.042969 37.890625 29.082031 L 37.941406 29.03125 C 37.941406 29.03125 37.941406 29.03125 37.941406 29.027344 L 37.949219 29.027344 L 37.941406 29.03125 C 39.3125 34.027344 40.441406 39.152344 41.015625 43.246094 C 41.046875 43.46875 41.03125 43.597656 41.0625 43.816406 C 43.46875 42.355469 45.15625 39.828125 45.15625 36.792969 L 45.15625 11.207031 C 45.15625 6.578125 41.421875 2.847656 36.792969 2.847656 Z M 11.207031 2.847656 "/>
</g>
</svg>
