<?xml version="1.0" encoding="UTF-8"?>
<svg xmlns="http://www.w3.org/2000/svg" xmlns:xlink="http://www.w3.org/1999/xlink" width="48pt" height="48pt" viewBox="0 0 48 48" version="1.1">
<g id="surface1">
<path style=" stroke:none;fill-rule:evenodd;fill:rgb(32.156863%,58.039216%,88.627451%);fill-opacity:1;" d="M 11.207031 2.847656 L 36.792969 2.847656 C 41.40625 2.847656 45.152344 6.59375 45.152344 11.207031 L 45.152344 36.792969 C 45.152344 41.40625 41.40625 45.152344 36.792969 45.152344 L 11.207031 45.152344 C 6.59375 45.152344 2.847656 41.40625 2.847656 36.792969 L 2.847656 11.207031 C 2.847656 6.59375 6.59375 2.847656 11.207031 2.847656 Z M 11.207031 2.847656 "/>
<path style=" stroke:none;fill-rule:nonzero;fill:rgb(100%,100%,100%);fill-opacity:1;" d="M 24 9 C 15.714844 9 9 15.714844 9 24 C 9 32.285156 15.714844 39 24 39 C 32.285156 39 39 32.285156 39 24 C 39 15.714844 32.285156 9 24 9 Z M 22.597656 11.988281 C 22.761719 11.972656 22.964844 12 23.128906 11.988281 C 23.152344 12.066406 23.015625 12.347656 22.828125 12.753906 C 21.640625 15.34375 21.574219 18.375 22.671875 20 C 22.871094 20.292969 23.050781 20.574219 23.050781 20.609375 C 23.050781 20.644531 22.839844 20.683594 22.597656 20.683594 C 22.027344 20.683594 21.484375 20.339844 20.386719 19.464844 C 19.894531 19.078125 19.261719 18.75 19.015625 18.703125 C 18.625 18.625 18.527344 18.660156 18.019531 19.160156 C 17.558594 19.625 17.410156 19.878906 17.410156 20.308594 C 17.410156 21.921875 19.332031 23.203125 22.90625 23.964844 C 27.75 24.988281 28.941406 25.910156 29.078125 28.457031 C 29.246094 31.65625 27.546875 34.0625 23.816406 35.925781 C 23.375 36.152344 23.089844 36.238281 22.90625 36.3125 C 22.824219 36.308594 22.753906 36.324219 22.671875 36.3125 C 22.640625 36.214844 22.597656 35.984375 22.597656 35.550781 C 22.597656 33.855469 21.925781 32.105469 20.921875 31.128906 C 20.652344 30.863281 19.894531 30.3125 19.246094 29.910156 C 18.59375 29.503906 17.941406 29.042969 17.796875 28.84375 C 17.550781 28.511719 17.535156 28.3125 17.722656 27.699219 C 18.0625 26.582031 18.464844 25.964844 19.246094 25.253906 C 19.65625 24.886719 20.066406 24.582031 20.160156 24.574219 C 20.25 24.566406 19.636719 24.378906 18.714844 24.191406 C 17.785156 24 16.433594 23.605469 15.734375 23.355469 C 14.457031 22.890625 12.734375 21.917969 12.078125 21.21875 C 12.046875 21.1875 12.027344 21.167969 12 21.140625 C 12.941406 17.390625 15.582031 14.3125 19.089844 12.832031 C 19.824219 12.519531 20.578125 12.308594 21.378906 12.144531 C 21.777344 12.066406 22.1875 12.03125 22.597656 11.988281 Z M 34.035156 17.707031 C 34.324219 17.886719 35.40625 20.230469 35.714844 21.371094 C 36.109375 22.84375 36.082031 25.394531 35.714844 26.859375 C 35.574219 27.417969 35.390625 27.9375 35.328125 28 C 35.269531 28.066406 35.046875 27.699219 34.792969 27.246094 C 34.535156 26.792969 33.722656 25.824219 33.042969 25.109375 C 31.082031 23.035156 30.769531 21.957031 31.59375 20.308594 C 32.011719 19.472656 33.8125 17.574219 34.035156 17.707031 Z M 34.035156 17.707031 "/>
</g>
</svg>
