<?xml version="1.0" encoding="UTF-8"?>
<svg xmlns="http://www.w3.org/2000/svg" xmlns:xlink="http://www.w3.org/1999/xlink" width="48pt" height="48pt" viewBox="0 0 48 48" version="1.1">
<g id="surface1">
<path style=" stroke:none;fill-rule:evenodd;fill:rgb(23.137255%,58.039216%,96.862745%);fill-opacity:1;" d="M 11.207031 2.847656 L 36.792969 2.847656 C 41.40625 2.847656 45.152344 6.59375 45.152344 11.207031 L 45.152344 36.792969 C 45.152344 41.40625 41.40625 45.152344 36.792969 45.152344 L 11.207031 45.152344 C 6.59375 45.152344 2.847656 41.40625 2.847656 36.792969 L 2.847656 11.207031 C 2.847656 6.59375 6.59375 2.847656 11.207031 2.847656 Z M 11.207031 2.847656 "/>
<path style=" stroke:none;fill-rule:nonzero;fill:rgb(23.137255%,58.039216%,96.862745%);fill-opacity:1;" d="M 36.722656 24 C 36.722656 31.027344 31.027344 36.722656 24 36.722656 C 16.972656 36.722656 11.277344 31.027344 11.277344 24 C 11.277344 16.972656 16.972656 11.277344 24 11.277344 C 31.027344 11.277344 36.722656 16.972656 36.722656 24 Z M 36.722656 24 "/>
<path style=" stroke:none;fill-rule:nonzero;fill:rgb(100%,100%,100%);fill-opacity:1;" d="M 24 9.15625 C 15.777344 9.15625 9.15625 15.777344 9.15625 24 C 9.15625 32.222656 15.777344 38.84375 24 38.84375 C 32.222656 38.84375 38.84375 32.222656 38.84375 24 C 38.84375 15.777344 32.222656 9.15625 24 9.15625 Z M 24 15.519531 C 27.515625 15.519531 30.359375 19.316406 30.359375 24 C 30.359375 28.683594 27.515625 32.480469 24 32.480469 C 20.484375 32.480469 17.640625 28.683594 17.640625 24 C 17.640625 19.316406 20.484375 15.519531 24 15.519531 Z M 24 15.519531 "/>
</g>
</svg>
