<?xml version="1.0" encoding="UTF-8"?>
<svg xmlns="http://www.w3.org/2000/svg" xmlns:xlink="http://www.w3.org/1999/xlink" width="48pt" height="48pt" viewBox="0 0 48 48" version="1.1">
<g id="surface1">
<path style=" stroke:none;fill-rule:evenodd;fill:rgb(30.588235%,56.862745%,85.098039%);fill-opacity:1;" d="M 11.207031 2.847656 L 36.792969 2.847656 C 41.40625 2.847656 45.152344 6.59375 45.152344 11.207031 L 45.152344 36.792969 C 45.152344 41.40625 41.40625 45.152344 36.792969 45.152344 L 11.207031 45.152344 C 6.59375 45.152344 2.847656 41.40625 2.847656 36.792969 L 2.847656 11.207031 C 2.847656 6.59375 6.59375 2.847656 11.207031 2.847656 Z M 11.207031 2.847656 "/>
<path style=" stroke:none;fill-rule:evenodd;fill:rgb(30.588235%,56.862745%,85.098039%);fill-opacity:1;" d="M 23.964844 23.566406 L 23.65625 23.953125 L 23.621094 24.433594 L 24.308594 24.375 L 24.378906 23.890625 Z M 23.964844 23.566406 "/>
<path style=" stroke:none;fill-rule:evenodd;fill:rgb(30.588235%,56.862745%,85.098039%);fill-opacity:1;" d="M 24.546875 23.378906 L 24.171875 23.386719 L 23.972656 23.890625 L 23.027344 23.890625 L 23.027344 24.378906 L 23.253906 24.378906 C 23.253906 24.378906 23.265625 24.484375 23.285156 24.621094 L 23.863281 24.574219 L 24.230469 24.34375 L 24.324219 23.890625 L 24.792969 23.847656 L 24.972656 23.46875 Z M 24.546875 23.378906 "/>
<path style=" stroke:none;fill-rule:evenodd;fill:rgb(51.372549%,69.803922%,89.411765%);fill-opacity:1;" d="M 30.3125 35.578125 L 30.519531 34.40625 L 29.832031 34.21875 L 29.832031 28.550781 C 29.832031 28.550781 27.910156 27.09375 27.800781 27.09375 C 27.691406 27.09375 26.78125 26.847656 26.78125 26.847656 L 26.59375 25.78125 L 24.089844 22.644531 L 24.339844 21.519531 L 24.421875 19.683594 L 26.152344 18.46875 L 25.902344 16.40625 L 23.375 16.21875 L 21.402344 13.964844 L 19.996094 13.578125 L 19.09375 13.40625 L 19.203125 12.582031 L 18.046875 12.421875 L 18.046875 12.890625 L 17.480469 12.75 L 17.480469 27.214844 C 17.480469 31.847656 21.214844 35.578125 25.84375 35.578125 Z M 30.3125 35.578125 "/>
<path style=" stroke:none;fill-rule:evenodd;fill:rgb(51.372549%,69.803922%,89.411765%);fill-opacity:1;" d="M 24.359375 2.84375 L 24.40625 3.964844 L 25.667969 4.734375 L 25.613281 5.890625 L 24.40625 6.300781 L 24.484375 6.683594 L 25.941406 7.34375 L 25.917969 8.140625 L 25.496094 8.175781 C 25.488281 8.160156 25.484375 8.15625 25.484375 8.15625 L 23.652344 7.589844 L 23.574219 7 L 24.109375 6.628906 L 24.109375 6.09375 L 23.53125 5.949219 L 23.386719 6.441406 L 22.375 6.605469 L 22.269531 6.566406 L 22.269531 6.613281 L 21.921875 6.671875 L 21.636719 6.09375 L 21.308594 5.949219 L 20.582031 5.949219 L 20.253906 6.21875 L 20.253906 6.816406 L 20.871094 7.019531 L 21.480469 7.105469 L 21.34375 7.167969 L 20.785156 7.785156 L 20.542969 7.472656 L 20.003906 7.332031 L 18.542969 8.714844 L 18.730469 8.863281 L 16.566406 10.066406 L 14.53125 12.183594 L 14.390625 13.125 L 12.347656 14.464844 L 11.339844 15.480469 L 11.453125 17.511719 L 10.046875 16.859375 L 10.058594 15.671875 L 6.152344 15.671875 L 4.128906 16.691406 L 3.253906 18.3125 L 2.90625 19.59375 L 3.472656 20.839844 L 5.066406 21.03125 L 7.597656 19.339844 L 7.824219 20.175781 L 7.046875 21.636719 L 8.972656 21.964844 L 9.167969 24.9375 L 11.808594 25.386719 L 13.484375 23.453125 L 15.519531 23.859375 L 16.234375 24.859375 L 18.1875 24.746094 L 18.246094 24.167969 L 19.316406 24.683594 L 20.527344 26.578125 L 22.613281 26.609375 L 23.386719 27.957031 L 23.496094 29.605469 L 25.808594 30.484375 L 28.71875 30.511719 L 29.574219 31.910156 L 30.871094 32.324219 L 30.621094 33.484375 L 29.203125 35.277344 L 28.792969 39.261719 L 27.515625 40.265625 L 25.613281 40.214844 L 24.984375 41.3125 L 25.453125 43.375 L 24.0625 45.15625 L 36.71875 45.15625 C 41.359375 45.15625 45.09375 41.421875 45.09375 36.792969 L 45.09375 27.375 L 44.253906 27.285156 L 43.488281 26.515625 L 42.082031 26.515625 L 41.371094 27.175781 L 38.894531 27.175781 L 38.8125 27.394531 L 37.433594 27.394531 L 34.269531 23.796875 L 34.296875 21 L 34.824219 20.808594 L 35.015625 19.734375 L 34.269531 19.734375 L 33.96875 18.609375 L 37.625 15.96875 L 37.625 14.105469 L 39.417969 13.109375 L 40.140625 13.175781 L 41.613281 13.175781 L 42.765625 12.5625 L 45.09375 12.378906 L 45.09375 11.207031 C 45.09375 10.65625 44.878906 10.175781 44.78125 9.65625 L 43.890625 9.472656 L 42.269531 11.578125 L 41.949219 12.402344 L 40.917969 12.496094 L 39.386719 12.503906 L 38.464844 12.078125 L 38.199219 10.261719 L 38.527344 9.390625 L 40.082031 9.050781 L 41.785156 9.390625 L 41.996094 8.453125 L 41.269531 8.28125 L 41.519531 6.816406 L 43.230469 6.546875 L 43.363281 6.359375 C 43.253906 6.207031 43.171875 6.035156 43.046875 5.890625 L 42.800781 6.191406 L 41.519531 6.3125 L 40.558594 6.3125 L 40.667969 5.171875 L 41.464844 5.011719 L 41.394531 4.472656 L 40.652344 4.003906 L 40.128906 3.652344 L 40.128906 3.605469 C 39.082031 3.136719 37.941406 2.84375 36.71875 2.84375 Z M 39.902344 3.921875 L 40.53125 4.199219 L 40.472656 4.910156 L 39.113281 5.875 L 38.34375 5.875 L 38.34375 5.1875 L 38.347656 5.1875 L 39.011719 4.128906 Z M 22.535156 7.9375 L 22.542969 7.9375 L 22.96875 8.027344 L 22.78125 8.40625 L 22.3125 8.449219 L 22.21875 8.902344 L 21.855469 9.125 L 21.277344 9.175781 C 21.253906 9.042969 21.246094 8.9375 21.246094 8.9375 L 21.015625 8.9375 L 21.015625 8.449219 L 21.964844 8.449219 L 22.160156 7.941406 Z M 20.027344 8.449219 L 20.4375 8.769531 L 20.363281 9.253906 L 19.683594 9.3125 L 19.714844 8.832031 Z M 20.027344 8.449219 "/>
<path style=" stroke:none;fill-rule:evenodd;fill:rgb(30.588235%,56.862745%,85.098039%);fill-opacity:1;" d="M 23.667969 23.988281 L 23.660156 24.011719 L 24.296875 24.011719 L 24.339844 23.988281 Z M 23.667969 23.988281 "/>
<path style=" stroke:none;fill-rule:evenodd;fill:rgb(51.372549%,69.803922%,89.411765%);fill-opacity:1;" d="M 21.09375 22.449219 L 21.21875 22.910156 L 22.042969 23.453125 L 23.691406 23.675781 L 23.691406 25.550781 L 24.453125 25.425781 L 25.15625 23.964844 L 26.90625 23.410156 L 26.90625 22.449219 Z M 21.09375 22.449219 "/>
<path style=" stroke:none;fill-rule:nonzero;fill:rgb(20%,20%,20%);fill-opacity:1;" d="M 17.863281 10.503906 C 10.277344 10.785156 9.359375 14.488281 11.511719 19.519531 C 12.160156 21.046875 14.246094 20.917969 13.074219 19.371094 C 8.175781 4.109375 40.734375 18.058594 34.199219 27.113281 C 32.347656 29.160156 29.425781 29.707031 27.082031 28.671875 C 26.015625 28.203125 24.066406 28.816406 25.640625 29.699219 C 28.828125 31.496094 36.378906 30.46875 37.285156 26.199219 C 39.542969 15.5625 23.339844 10.308594 17.863281 10.503906 M 28.167969 18.277344 C 23.675781 23.175781 19.28125 33.34375 16.878906 35.75 C 15.578125 37.046875 13.769531 34.671875 13.222656 35.410156 C 12.234375 36.765625 14.253906 37.472656 16.296875 37.5 C 21.109375 37.589844 30.078125 16.574219 28.167969 18.277344 Z M 28.167969 18.277344 "/>
</g>
</svg>
