<?xml version="1.0" encoding="UTF-8"?>
<svg xmlns="http://www.w3.org/2000/svg" xmlns:xlink="http://www.w3.org/1999/xlink" width="48pt" height="48pt" viewBox="0 0 48 48" version="1.1">
<g id="surface1">
<path style=" stroke:none;fill-rule:evenodd;fill:rgb(29.411765%,68.235294%,30.980392%);fill-opacity:1;" d="M 11.207031 2.847656 L 36.792969 2.847656 C 41.40625 2.847656 45.152344 6.59375 45.152344 11.207031 L 45.152344 36.792969 C 45.152344 41.40625 41.40625 45.152344 36.792969 45.152344 L 11.207031 45.152344 C 6.59375 45.152344 2.847656 41.40625 2.847656 36.792969 L 2.847656 11.207031 C 2.847656 6.59375 6.59375 2.847656 11.207031 2.847656 Z M 11.207031 2.847656 "/>
<path style=" stroke:none;fill-rule:nonzero;fill:rgb(100%,100%,100%);fill-opacity:1;" d="M 14.636719 37.519531 C 14.109375 37.355469 13.6875 36.777344 13.574219 36.058594 C 13.5 35.597656 13.5 23.402344 13.574219 22.902344 C 13.667969 22.265625 14.003906 21.75 14.488281 21.511719 C 14.707031 21.402344 14.84375 21.375 15.144531 21.375 L 15.527344 21.375 L 15.558594 19.65625 C 15.582031 17.933594 15.613281 17.605469 15.832031 16.746094 C 16.550781 13.878906 18.808594 11.515625 21.589844 10.707031 C 22.449219 10.457031 22.941406 10.394531 24 10.394531 C 25.058594 10.394531 25.550781 10.457031 26.410156 10.707031 C 29.191406 11.515625 31.449219 13.878906 32.167969 16.746094 C 32.386719 17.605469 32.417969 17.933594 32.441406 19.65625 L 32.472656 21.375 L 32.855469 21.375 C 33.15625 21.375 33.292969 21.402344 33.511719 21.511719 C 33.996094 21.75 34.332031 22.265625 34.425781 22.902344 C 34.5 23.402344 34.5 35.597656 34.425781 36.058594 C 34.3125 36.777344 33.878906 37.359375 33.34375 37.519531 C 32.957031 37.636719 15.003906 37.636719 14.636719 37.519531 Z M 25.3125 33.902344 C 25.394531 33.839844 25.515625 33.683594 25.582031 33.558594 C 25.703125 33.324219 25.703125 33.285156 25.703125 31.386719 L 25.703125 29.453125 L 25.886719 29.214844 C 26.253906 28.730469 26.421875 27.957031 26.285156 27.378906 C 26.058594 26.410156 25.347656 25.75 24.402344 25.613281 C 23.089844 25.421875 22.003906 26.136719 21.714844 27.378906 C 21.578125 27.957031 21.746094 28.730469 22.113281 29.214844 L 22.296875 29.453125 L 22.296875 31.375 C 22.296875 33.402344 22.3125 33.515625 22.550781 33.785156 C 22.75 34.011719 22.90625 34.035156 24.0625 34.019531 C 25.078125 34.011719 25.175781 34 25.3125 33.902344 Z M 28.9375 19.707031 C 28.917969 18.207031 28.902344 18.003906 28.800781 17.636719 C 28.308594 15.859375 26.949219 14.5 25.199219 14.019531 C 24.589844 13.859375 23.410156 13.859375 22.800781 14.019531 C 21.050781 14.5 19.691406 15.859375 19.199219 17.636719 C 19.097656 18.003906 19.082031 18.207031 19.0625 19.707031 L 19.042969 21.375 L 28.957031 21.375 Z M 28.9375 19.707031 "/>
</g>
</svg>
