<?xml version="1.0" encoding="UTF-8"?>
<svg xmlns="http://www.w3.org/2000/svg" xmlns:xlink="http://www.w3.org/1999/xlink" width="48pt" height="48pt" viewBox="0 0 48 48" version="1.1">
<g id="surface1">
<path style=" stroke:none;fill-rule:evenodd;fill:rgb(12.54902%,59.215686%,98.431373%);fill-opacity:1;" d="M 11.207031 2.847656 L 36.792969 2.847656 C 41.40625 2.847656 45.152344 6.59375 45.152344 11.207031 L 45.152344 36.792969 C 45.152344 41.40625 41.40625 45.152344 36.792969 45.152344 L 11.207031 45.152344 C 6.59375 45.152344 2.847656 41.40625 2.847656 36.792969 L 2.847656 11.207031 C 2.847656 6.59375 6.59375 2.847656 11.207031 2.847656 Z M 11.207031 2.847656 "/>
<path style=" stroke:none;fill-rule:nonzero;fill:rgb(100%,100%,100%);fill-opacity:1;" d="M 27.921875 8.863281 L 20.078125 9.984375 L 20.078125 12.230469 L 16.265625 12.230469 C 9.984375 12.230469 9.984375 16.152344 9.984375 16.152344 L 9.984375 20.078125 L 20.078125 20.078125 C 20.078125 18.777344 20.792969 17.832031 22.09375 17.832031 C 23.394531 17.832031 23.957031 18.777344 23.957031 20.078125 L 24.035156 20.078125 L 10.128906 29.046875 L 9.984375 29.046875 L 9.984375 35.769531 L 20.078125 35.769531 L 20.078125 39.136719 L 27.921875 38.015625 L 27.921875 35.769531 L 38.011719 35.769531 L 38.011719 29.046875 L 24 29.046875 L 35.128906 21.964844 C 36.667969 20.859375 38.015625 20.078125 38.015625 16.9375 C 38.015625 16.9375 38.238281 12.230469 29.605469 12.230469 L 27.921875 12.230469 Z M 27.921875 8.863281 "/>
</g>
</svg>
