<?xml version="1.0" encoding="UTF-8"?>
<svg xmlns="http://www.w3.org/2000/svg" xmlns:xlink="http://www.w3.org/1999/xlink" width="48pt" height="48pt" viewBox="0 0 48 48" version="1.1">
<g id="surface1">
<path style=" stroke:none;fill-rule:evenodd;fill:rgb(76.862745%,9.803922%,12.156863%);fill-opacity:1;" d="M 11.207031 2.847656 C 6.578125 2.847656 2.847656 6.578125 2.847656 11.207031 L 2.847656 36.792969 C 2.847656 41.421875 6.578125 45.152344 11.207031 45.152344 L 11.488281 45.152344 L 11.488281 41.785156 C 11.488281 40.84375 11.683594 39.949219 12.019531 39.128906 C 12.363281 38.316406 12.863281 37.582031 13.480469 36.96875 C 14.09375 36.355469 14.828125 35.855469 15.640625 35.511719 C 16.457031 35.167969 17.355469 34.980469 18.296875 34.980469 L 29.703125 34.980469 C 30.644531 34.980469 31.542969 35.167969 32.359375 35.511719 C 33.171875 35.855469 33.90625 36.355469 34.519531 36.96875 C 35.136719 37.582031 35.636719 38.316406 35.980469 39.128906 C 36.316406 39.949219 36.511719 40.84375 36.511719 41.785156 L 36.511719 45.152344 L 36.792969 45.152344 C 41.421875 45.152344 45.152344 41.421875 45.152344 36.792969 L 45.152344 11.207031 C 45.152344 6.578125 41.421875 2.847656 36.792969 2.847656 Z M 11.207031 2.847656 "/>
<path style=" stroke:none;fill-rule:nonzero;fill:rgb(86.27451%,27.843137%,28.627451%);fill-opacity:1;" d="M 21.746094 13 C 38.953125 17.34375 45.0625 26.902344 24.691406 35.925781 C 23.015625 36.671875 28.925781 36.453125 27.144531 37.8125 C 51.933594 27.125 39.917969 16.828125 21.746094 13 Z M 21.746094 13 "/>
<path style=" stroke:none;fill-rule:nonzero;fill:rgb(86.27451%,27.843137%,28.627451%);fill-opacity:1;" d="M 16.238281 12.769531 C 32.121094 16.988281 40.800781 21.238281 28.765625 32.628906 C 47.589844 23.058594 30.511719 14.253906 16.238281 12.769531 Z M 16.238281 12.769531 "/>
<path style=" stroke:none;fill-rule:nonzero;fill:rgb(86.27451%,27.843137%,28.627451%);fill-opacity:1;" d="M 5.65625 13.015625 C 23.265625 16.75 40.71875 21.84375 20.464844 35.542969 C 50.488281 21.152344 21.738281 13.71875 5.65625 13.015625 Z M 5.65625 13.015625 "/>
<path style=" stroke:none;fill-rule:evenodd;fill:rgb(80%,80%,80%);fill-opacity:1;" d="M 36.511719 45.152344 L 36.511719 41.785156 C 36.511719 40.84375 36.316406 39.949219 35.980469 39.128906 C 35.636719 38.316406 35.136719 37.582031 34.519531 36.96875 C 33.90625 36.355469 33.171875 35.855469 32.359375 35.511719 C 31.542969 35.167969 30.644531 34.980469 29.703125 34.980469 L 18.296875 34.980469 C 17.355469 34.980469 16.457031 35.167969 15.640625 35.511719 C 14.828125 35.855469 14.09375 36.355469 13.480469 36.96875 C 12.863281 37.582031 12.363281 38.316406 12.019531 39.128906 C 11.683594 39.949219 11.488281 40.84375 11.488281 41.785156 L 11.488281 45.152344 Z M 36.511719 45.152344 "/>
<path style=" stroke:none;fill-rule:nonzero;fill:rgb(100%,100%,100%);fill-opacity:1;" d="M 24.464844 28.984375 L 27.285156 26.160156 C 26.449219 28.714844 27.371094 31.785156 30.355469 31.558594 C 32.800781 30.816406 34.59375 29.550781 36.644531 27.972656 C 36.980469 27.59375 37.140625 27.066406 36.925781 27.066406 C 34.578125 29.019531 30.128906 31.5 29.238281 29.410156 C 27.207031 21.761719 40.691406 15.21875 36.519531 10.511719 C 29.671875 14.640625 29.480469 23.714844 23.816406 28.503906 C 26.308594 22.402344 27.527344 15.660156 30.339844 10.671875 C 29.394531 10.230469 28.984375 10.574219 28.035156 10.949219 C 26.144531 14.527344 25.058594 18.589844 23.128906 21.472656 C 20.207031 25.816406 20.066406 26.019531 19.300781 26.933594 C 17.5 29.074219 15.3125 30.457031 13.875 30.363281 C 12.949219 30.300781 12.324219 29.675781 12.175781 28.667969 C 12.121094 28.285156 12.125 28.136719 12.203125 27.6875 C 13.285156 24.3125 14.8125 22.832031 16.613281 20.265625 C 15.921875 20.214844 15.246094 20.484375 14.589844 20.652344 C 12.449219 22.511719 10.636719 25.8125 10.59375 28.644531 C 10.59375 29.644531 10.765625 30.222656 11.234375 30.796875 C 11.496094 31.113281 12.175781 31.558594 12.535156 31.644531 C 12.890625 31.730469 13.964844 31.683594 14.421875 31.5625 C 16.136719 31.105469 18.4375 28.964844 21.5 24.972656 C 22.886719 23.175781 23.714844 22.121094 23.8125 22.027344 C 23.921875 21.925781 23.925781 21.933594 23.925781 22.160156 C 23.113281 25.5 21.890625 28.332031 21.375 31.75 C 21.433594 31.78125 21.511719 31.808594 21.558594 31.808594 C 21.597656 31.808594 22.90625 30.535156 24.464844 28.984375 Z M 31.253906 20.5 C 32.136719 17.34375 33.464844 14.417969 35.410156 12.066406 C 35.105469 15.480469 33.21875 17.871094 31.300781 20.59375 C 31.269531 20.625 31.253906 20.589844 31.253906 20.5 Z M 31.253906 20.5 "/>
<path style=" stroke:none;fill-rule:nonzero;fill:rgb(76.862745%,9.803922%,12.156863%);fill-opacity:1;" d="M 17.59375 43.261719 L 17.59375 40.699219 L 19.53125 40.699219 C 20.613281 40.699219 21.261719 40.097656 21.261719 39.179688 C 21.261719 38.285156 20.613281 37.699219 19.53125 37.699219 L 17.21875 37.699219 L 17.21875 43.261719 Z M 17.59375 38.035156 L 19.511719 38.035156 C 20.386719 38.035156 20.886719 38.449219 20.886719 39.179688 C 20.886719 39.929688 20.386719 40.347656 19.511719 40.347656 L 17.59375 40.347656 Z M 17.59375 38.035156 "/>
<path style=" stroke:none;fill-rule:nonzero;fill:rgb(76.862745%,9.803922%,12.156863%);fill-opacity:1;" d="M 24.242188 43.261719 C 25.136719 43.261719 25.867188 43.011719 26.40625 42.492188 C 26.96875 41.972656 27.242188 41.304688 27.242188 40.472656 C 27.242188 39.660156 26.96875 38.972656 26.40625 38.472656 C 25.867188 37.949219 25.136719 37.699219 24.242188 37.699219 L 22.511719 37.699219 L 22.511719 43.261719 Z M 22.886719 38.035156 L 24.179688 38.035156 C 25.011719 38.035156 25.65625 38.261719 26.136719 38.699219 C 26.636719 39.160156 26.867188 39.742188 26.867188 40.472656 C 26.867188 41.222656 26.636719 41.804688 26.136719 42.242188 C 25.65625 42.699219 25.011719 42.929688 24.179688 42.929688 L 22.886719 42.929688 Z M 22.886719 38.035156 "/>
<path style=" stroke:none;fill-rule:nonzero;fill:rgb(76.862745%,9.803922%,12.156863%);fill-opacity:1;" d="M 29.046875 43.261719 L 29.046875 40.511719 L 31.796875 40.511719 L 31.796875 40.160156 L 29.046875 40.160156 L 29.046875 38.035156 L 32.359375 38.035156 L 32.359375 37.699219 L 28.671875 37.699219 L 28.671875 43.261719 Z M 29.046875 43.261719 "/>
</g>
</svg>
