<?xml version="1.0" encoding="UTF-8"?>
<svg xmlns="http://www.w3.org/2000/svg" xmlns:xlink="http://www.w3.org/1999/xlink" width="48pt" height="48pt" viewBox="0 0 48 48" version="1.1">
<g id="surface1">
<path style=" stroke:none;fill-rule:evenodd;fill:rgb(30.588235%,68.627451%,26.666667%);fill-opacity:1;" d="M 2.847656 26.421875 C 3.042969 26.28125 3.28125 26.09375 3.316406 26.09375 C 3.417969 26.09375 4.1875 25.621094 4.527344 25.355469 C 4.597656 25.296875 5.261719 24.957031 6 24.597656 C 6.738281 24.238281 7.894531 23.683594 8.566406 23.355469 C 9.246094 23.027344 9.832031 22.761719 9.878906 22.761719 C 9.925781 22.761719 10.328125 22.535156 10.777344 22.265625 C 11.21875 21.996094 11.707031 21.730469 11.859375 21.683594 C 12.324219 21.535156 14.707031 19.925781 15.769531 19.046875 C 16.933594 18.082031 18.546875 16.34375 18.875 15.699219 C 19 15.464844 19.140625 15.238281 19.191406 15.203125 C 19.296875 15.140625 19.53125 14.683594 20.199219 13.28125 C 21.027344 11.472656 21.546875 9.214844 21.574219 6.980469 C 21.589844 5.863281 21.480469 4.761719 21.222656 3.722656 C 21.144531 3.40625 20.953125 3.152344 20.84375 2.847656 L 11.207031 2.847656 C 6.578125 2.847656 2.847656 6.578125 2.847656 11.207031 Z M 2.847656 26.421875 "/>
<path style=" stroke:none;fill-rule:evenodd;fill:rgb(30.588235%,68.627451%,26.666667%);fill-opacity:1;" d="M 41.121094 43.777344 C 40.785156 43.675781 40.21875 43.511719 39.71875 43.386719 C 38.113281 42.96875 34.546875 41.347656 33.355469 40.5 C 33.003906 40.253906 32.671875 40.046875 32.609375 40.046875 C 32.546875 40.046875 32.191406 39.824219 31.816406 39.542969 C 30.1875 38.3125 28.375 37.144531 26.441406 36.167969 C 24.503906 35.183594 22.453125 34.386719 20.347656 33.886719 C 19 33.589844 16.328125 33.5625 15.03125 33.832031 C 13.25 34.207031 11.574219 34.78125 10.136719 35.488281 C 8.691406 36.191406 7.496094 37.042969 6.652344 37.953125 C 5.832031 38.84375 5.027344 40.433594 4.90625 41.375 C 4.859375 41.761719 5.203125 42.203125 5.328125 42.734375 C 6.832031 44.222656 8.90625 45.152344 11.207031 45.152344 L 36.792969 45.152344 C 38.417969 45.152344 39.839844 44.574219 41.121094 43.777344 Z M 41.121094 43.777344 "/>
<path style=" stroke:none;fill-rule:evenodd;fill:rgb(100%,100%,100%);fill-opacity:1;" d="M 45.152344 36.222656 L 45.152344 33.222656 C 45.058594 33.21875 44.964844 33.265625 44.871094 33.253906 C 43.703125 33.09375 42.535156 32.714844 41.394531 32.128906 C 40.261719 31.546875 39.152344 30.765625 38.125 29.800781 C 36.714844 28.484375 36.230469 27.953125 35.558594 26.988281 C 34.296875 25.167969 33.527344 23.277344 32.875 20.390625 C 32.597656 19.160156 32.652344 13.0625 32.964844 10.785156 C 33.308594 8.222656 33.261719 5.453125 32.855469 2.847656 L 29.640625 2.847656 C 29.652344 2.910156 29.699219 3.015625 29.703125 3.074219 C 29.925781 4.65625 29.964844 8.058594 29.78125 9.613281 C 29.464844 12.277344 29.34375 15.949219 29.5 18.214844 C 29.671875 20.675781 29.832031 21.605469 30.433594 23.550781 C 30.859375 24.941406 31.917969 27.25 32.386719 27.824219 C 32.542969 28.015625 32.800781 28.390625 32.964844 28.652344 C 33.121094 28.917969 33.292969 29.136719 33.34375 29.136719 C 33.390625 29.136719 33.53125 29.292969 33.644531 29.488281 C 33.9375 29.957031 34.800781 30.878906 35.675781 31.644531 C 36.066406 31.988281 36.578125 32.441406 36.816406 32.65625 C 37.050781 32.863281 37.433594 33.15625 37.65625 33.296875 C 37.886719 33.4375 38.261719 33.703125 38.5 33.886719 C 39.214844 34.441406 40.347656 35.003906 41.542969 35.449219 C 42.734375 35.886719 43.984375 36.199219 44.933594 36.261719 C 45.015625 36.261719 45.074219 36.21875 45.152344 36.222656 Z M 45.152344 36.222656 "/>
<path style=" stroke:none;fill-rule:evenodd;fill:rgb(100%,100%,100%);fill-opacity:1;" d="M 2.957031 37.316406 C 3.09375 39.425781 3.921875 41.339844 5.328125 42.734375 C 5.203125 42.203125 4.859375 41.761719 4.90625 41.375 C 5.027344 40.433594 5.832031 38.84375 6.652344 37.953125 C 7.496094 37.042969 8.691406 36.191406 10.136719 35.488281 C 11.574219 34.78125 13.25 34.207031 15.03125 33.832031 C 16.328125 33.5625 19 33.589844 20.347656 33.886719 C 22.453125 34.386719 24.503906 35.183594 26.441406 36.167969 C 28.375 37.144531 30.1875 38.3125 31.816406 39.542969 C 32.191406 39.824219 32.546875 40.046875 32.609375 40.046875 C 32.671875 40.046875 33.003906 40.253906 33.355469 40.5 C 34.546875 41.347656 38.113281 42.96875 39.71875 43.386719 C 40.21875 43.511719 40.785156 43.675781 41.121094 43.777344 C 42.359375 43.003906 43.359375 41.925781 44.078125 40.667969 C 42.484375 40.359375 40.050781 39.785156 39.1875 39.421875 C 38.765625 39.246094 38.199219 39.015625 37.933594 38.917969 C 37.660156 38.8125 36.988281 38.472656 36.433594 38.160156 C 35.875 37.84375 35.386719 37.582031 35.347656 37.582031 C 35.3125 37.582031 35 37.386719 34.65625 37.136719 C 34.3125 36.890625 33.996094 36.6875 33.949219 36.6875 C 33.902344 36.6875 33.53125 36.449219 33.128906 36.144531 C 32.730469 35.847656 32.300781 35.542969 32.1875 35.472656 C 31.578125 35.109375 29.921875 34.0625 29.625 33.859375 C 28.953125 33.394531 27.402344 32.589844 25.738281 31.832031 C 24.589844 31.3125 23.859375 31.074219 21.578125 30.453125 C 20.453125 30.144531 20.15625 30.121094 17.671875 30.113281 C 14.878906 30.113281 14.269531 30.199219 12.484375 30.796875 C 12.097656 30.925781 11.484375 31.125 11.125 31.234375 C 10.332031 31.472656 7.953125 32.582031 7.894531 32.734375 C 7.871094 32.796875 7.800781 32.847656 7.738281 32.847656 C 7.597656 32.847656 6.214844 33.71875 5.972656 33.957031 C 5.878906 34.050781 5.59375 34.292969 5.339844 34.484375 C 4.832031 34.863281 3.953125 35.78125 3.652344 36.246094 C 3.542969 36.40625 3.28125 36.792969 3.066406 37.09375 C 3.035156 37.136719 2.988281 37.261719 2.957031 37.316406 Z M 2.957031 37.316406 "/>
<path style=" stroke:none;fill-rule:evenodd;fill:rgb(100%,100%,100%);fill-opacity:1;" d="M 24.503906 2.847656 L 20.84375 2.847656 C 20.953125 3.152344 21.144531 3.40625 21.222656 3.722656 C 21.480469 4.761719 21.589844 5.863281 21.574219 6.980469 C 21.546875 9.214844 21.027344 11.472656 20.199219 13.28125 C 19.53125 14.683594 19.296875 15.140625 19.191406 15.203125 C 19.140625 15.238281 19 15.464844 18.875 15.699219 C 18.546875 16.34375 16.933594 18.082031 15.769531 19.046875 C 14.707031 19.925781 12.324219 21.535156 11.859375 21.683594 C 11.707031 21.730469 11.21875 21.996094 10.777344 22.265625 C 10.328125 22.535156 9.925781 22.761719 9.878906 22.761719 C 9.832031 22.761719 9.246094 23.027344 8.566406 23.355469 C 7.894531 23.683594 6.738281 24.238281 6 24.597656 C 5.261719 24.957031 4.597656 25.296875 4.527344 25.355469 C 4.1875 25.621094 3.417969 26.09375 3.316406 26.09375 C 3.28125 26.09375 3.042969 26.28125 2.847656 26.421875 L 2.847656 30.285156 C 2.933594 30.21875 3.011719 30.125 3.078125 30.082031 C 3.285156 29.949219 3.753906 29.609375 4.121094 29.328125 C 4.941406 28.6875 5.515625 28.328125 6.660156 27.71875 C 8.144531 26.933594 8.277344 26.863281 9.605469 26.261719 C 11.011719 25.613281 11.308594 25.464844 13.1875 24.425781 C 15.40625 23.207031 16.402344 22.574219 17.207031 21.875 C 17.515625 21.605469 17.832031 21.363281 17.910156 21.339844 C 18.246094 21.21875 20.269531 19.171875 21.109375 18.105469 C 22.0625 16.894531 23.269531 14.625 23.988281 12.675781 C 24.160156 12.222656 24.449219 10.886719 24.785156 9.027344 C 25.058594 7.519531 25.109375 5.316406 24.902344 4.035156 C 24.828125 3.582031 24.640625 3.355469 24.503906 2.847656 Z M 24.503906 2.847656 "/>
<path style=" stroke:none;fill-rule:evenodd;fill:rgb(94.117647%,55.294118%,14.509804%);fill-opacity:1;" d="M 24.503906 2.847656 C 24.640625 3.355469 24.828125 3.582031 24.902344 4.035156 C 25.109375 5.316406 25.058594 7.519531 24.785156 9.027344 C 24.449219 10.886719 24.160156 12.222656 23.988281 12.675781 C 23.269531 14.625 22.0625 16.894531 21.109375 18.105469 C 20.269531 19.171875 18.246094 21.21875 17.910156 21.339844 C 17.832031 21.363281 17.515625 21.605469 17.207031 21.875 C 16.402344 22.574219 15.40625 23.207031 13.1875 24.425781 C 11.308594 25.464844 11.011719 25.613281 9.605469 26.261719 C 8.277344 26.863281 8.144531 26.933594 6.660156 27.71875 C 5.515625 28.328125 4.941406 28.6875 4.121094 29.328125 C 3.753906 29.609375 3.285156 29.949219 3.078125 30.082031 C 3.011719 30.125 2.933594 30.21875 2.847656 30.285156 L 2.847656 36.792969 C 2.847656 36.980469 2.941406 37.136719 2.957031 37.316406 C 2.988281 37.261719 3.035156 37.136719 3.066406 37.09375 C 3.28125 36.792969 3.542969 36.40625 3.652344 36.246094 C 3.953125 35.78125 4.832031 34.863281 5.339844 34.484375 C 5.59375 34.292969 5.878906 34.050781 5.972656 33.957031 C 6.214844 33.71875 7.597656 32.847656 7.738281 32.847656 C 7.800781 32.847656 7.871094 32.796875 7.894531 32.734375 C 7.953125 32.582031 10.332031 31.472656 11.125 31.234375 C 11.484375 31.125 12.097656 30.925781 12.484375 30.796875 C 14.269531 30.199219 14.878906 30.113281 17.671875 30.113281 C 20.15625 30.121094 20.453125 30.144531 21.578125 30.453125 C 23.859375 31.074219 24.589844 31.3125 25.738281 31.832031 C 27.402344 32.589844 28.953125 33.394531 29.625 33.859375 C 29.921875 34.0625 31.578125 35.109375 32.1875 35.472656 C 32.300781 35.542969 32.730469 35.847656 33.128906 36.144531 C 33.53125 36.449219 33.902344 36.6875 33.949219 36.6875 C 33.996094 36.6875 34.3125 36.890625 34.65625 37.136719 C 35 37.386719 35.3125 37.582031 35.347656 37.582031 C 35.386719 37.582031 35.875 37.84375 36.433594 38.160156 C 36.988281 38.472656 37.660156 38.8125 37.933594 38.917969 C 38.199219 39.015625 38.765625 39.246094 39.1875 39.421875 C 40.050781 39.785156 42.484375 40.359375 44.078125 40.667969 C 44.730469 39.519531 45.152344 38.222656 45.152344 36.792969 L 45.152344 36.222656 C 45.074219 36.21875 45.015625 36.261719 44.933594 36.261719 C 43.984375 36.199219 42.734375 35.886719 41.542969 35.449219 C 40.347656 35.003906 39.214844 34.441406 38.5 33.886719 C 38.261719 33.703125 37.886719 33.4375 37.65625 33.296875 C 37.433594 33.15625 37.050781 32.863281 36.816406 32.65625 C 36.578125 32.441406 36.066406 31.988281 35.675781 31.644531 C 34.800781 30.878906 33.9375 29.957031 33.644531 29.488281 C 33.53125 29.292969 33.390625 29.136719 33.34375 29.136719 C 33.292969 29.136719 33.121094 28.917969 32.964844 28.652344 C 32.800781 28.390625 32.542969 28.015625 32.386719 27.824219 C 31.917969 27.25 30.859375 24.941406 30.433594 23.550781 C 29.832031 21.605469 29.671875 20.675781 29.5 18.214844 C 29.34375 15.949219 29.464844 12.277344 29.78125 9.613281 C 29.964844 8.058594 29.925781 4.65625 29.703125 3.074219 C 29.699219 3.015625 29.652344 2.910156 29.640625 2.847656 Z M 24.503906 2.847656 "/>
<path style=" stroke:none;fill-rule:evenodd;fill:rgb(30.588235%,68.627451%,26.666667%);fill-opacity:1;" d="M 32.855469 2.847656 C 33.261719 5.453125 33.308594 8.222656 32.964844 10.785156 C 32.652344 13.0625 32.597656 19.160156 32.875 20.390625 C 33.527344 23.277344 34.296875 25.167969 35.558594 26.988281 C 36.230469 27.953125 36.714844 28.484375 38.125 29.800781 C 39.152344 30.765625 40.261719 31.546875 41.394531 32.128906 C 42.535156 32.714844 43.703125 33.09375 44.871094 33.253906 C 44.964844 33.265625 45.058594 33.21875 45.152344 33.222656 L 45.152344 11.207031 C 45.152344 6.578125 41.421875 2.847656 36.792969 2.847656 Z M 32.855469 2.847656 "/>
</g>
</svg>
