<?xml version="1.0" encoding="UTF-8"?>
<svg xmlns="http://www.w3.org/2000/svg" xmlns:xlink="http://www.w3.org/1999/xlink" width="48pt" height="48pt" viewBox="0 0 48 48" version="1.1">
<g id="surface1">
<path style=" stroke:none;fill-rule:evenodd;fill:rgb(80%,80%,80%);fill-opacity:1;" d="M 11.207031 2.847656 L 36.792969 2.847656 C 41.40625 2.847656 45.152344 6.59375 45.152344 11.207031 L 45.152344 36.792969 C 45.152344 41.40625 41.40625 45.152344 36.792969 45.152344 L 11.207031 45.152344 C 6.59375 45.152344 2.847656 41.40625 2.847656 36.792969 L 2.847656 11.207031 C 2.847656 6.59375 6.59375 2.847656 11.207031 2.847656 Z M 11.207031 2.847656 "/>
<path style=" stroke:none;fill-rule:evenodd;fill:rgb(99.607843%,63.921569%,19.607843%);fill-opacity:1;" d="M 38.285156 44.847656 L 38.285156 25.160156 L 29.285156 20.214844 L 20.285156 25.160156 L 20.285156 45.152344 L 36.785156 45.152344 C 37.324219 45.152344 37.785156 44.957031 38.285156 44.847656 Z M 38.285156 44.847656 "/>
<path style=" stroke:none;fill-rule:evenodd;fill:rgb(30.588235%,30.588235%,30.588235%);fill-opacity:1;" d="M 29.285156 18.714844 L 18.785156 24.109375 L 18.785156 45.152344 L 20.285156 45.152344 L 20.285156 25.160156 L 29.285156 20.214844 L 38.285156 25.160156 L 38.285156 44.847656 C 38.785156 44.746094 39.324219 44.734375 39.785156 44.550781 L 39.785156 24.109375 Z M 29.285156 18.714844 "/>
<path style=" stroke:none;fill-rule:evenodd;fill:rgb(80%,80%,80%);fill-opacity:1;" d="M 11.207031 2.847656 C 6.578125 2.847656 2.847656 6.578125 2.847656 11.214844 L 2.847656 36.792969 C 2.847656 41.421875 6.578125 45.152344 11.207031 45.152344 L 18.785156 45.152344 L 18.785156 24.109375 L 29.285156 18.714844 L 39.785156 24.109375 L 39.785156 44.550781 C 42.921875 43.34375 45.152344 40.359375 45.152344 36.792969 L 45.152344 11.214844 C 45.152344 6.578125 41.421875 2.847656 36.785156 2.847656 Z M 11.207031 2.847656 "/>
<path style=" stroke:none;fill-rule:nonzero;fill:rgb(30.588235%,30.588235%,30.588235%);fill-opacity:1;" d="M 32.285156 24.714844 C 32.285156 25.25 31.71875 25.746094 30.785156 26.011719 C 29.859375 26.277344 28.71875 26.277344 27.785156 26.011719 C 26.859375 25.746094 26.285156 25.25 26.285156 24.714844 "/>
</g>
</svg>
