<?xml version="1.0" encoding="UTF-8"?>
<svg xmlns="http://www.w3.org/2000/svg" xmlns:xlink="http://www.w3.org/1999/xlink" width="48pt" height="48pt" viewBox="0 0 48 48" version="1.1">
<g id="surface1">
<path style=" stroke:none;fill-rule:evenodd;fill:rgb(91.764706%,25.490196%,25.490196%);fill-opacity:1;" d="M 11.207031 2.847656 L 36.792969 2.847656 C 41.40625 2.847656 45.152344 6.59375 45.152344 11.207031 L 45.152344 36.792969 C 45.152344 41.40625 41.40625 45.152344 36.792969 45.152344 L 11.207031 45.152344 C 6.59375 45.152344 2.847656 41.40625 2.847656 36.792969 L 2.847656 11.207031 C 2.847656 6.59375 6.59375 2.847656 11.207031 2.847656 Z M 11.207031 2.847656 "/>
<path style=" stroke:none;fill-rule:nonzero;fill:rgb(100%,100%,100%);fill-opacity:1;" d="M 22.5 27.75 C 19.347656 31.949219 19.53125 35.285156 18.75 39.75 C 17.699219 35.015625 18.152344 31.949219 15 27.75 L 18.75 28.5 Z M 22.5 27.75 "/>
<path style=" stroke:none;fill-rule:nonzero;fill:rgb(100%,100%,100%);fill-opacity:1;" d="M 33 27.75 C 29.847656 31.949219 30.03125 35.285156 29.25 39.75 C 28.199219 35.015625 28.652344 31.949219 25.5 27.75 L 29.25 28.5 Z M 33 27.75 "/>
<path style=" stroke:none;fill-rule:nonzero;fill:rgb(100%,100%,100%);fill-opacity:1;" d="M 15 18.75 C 19.199219 21.902344 28.535156 21.71875 33 22.5 C 28.265625 23.550781 19.199219 23.097656 15 26.25 L 15.75 22.5 Z M 15 18.75 "/>
<path style=" stroke:none;fill-rule:nonzero;fill:rgb(100%,100%,100%);fill-opacity:1;" d="M 15 8.25 C 19.199219 11.402344 28.535156 11.21875 33 12 C 28.265625 13.050781 19.199219 12.597656 15 15.75 L 15.75 12 Z M 15 8.25 "/>
<path style=" stroke:none;fill-rule:nonzero;fill:rgb(100%,100%,100%);fill-opacity:1;" d="M 18 13.5 C 22.199219 16.652344 25.535156 16.46875 30 17.25 C 25.265625 18.300781 22.199219 17.847656 18 21 L 18.75 17.25 Z M 18 13.5 "/>
</g>
</svg>
