<?xml version="1.0" encoding="UTF-8"?>
<svg xmlns="http://www.w3.org/2000/svg" xmlns:xlink="http://www.w3.org/1999/xlink" width="48pt" height="48pt" viewBox="0 0 48 48" version="1.1">
<g id="surface1">
<path style=" stroke:none;fill-rule:evenodd;fill:rgb(0.784314%,52.54902%,76.078431%);fill-opacity:1;" d="M 11.207031 2.847656 L 36.792969 2.847656 C 41.40625 2.847656 45.152344 6.59375 45.152344 11.207031 L 45.152344 36.792969 C 45.152344 41.40625 41.40625 45.152344 36.792969 45.152344 L 11.207031 45.152344 C 6.59375 45.152344 2.847656 41.40625 2.847656 36.792969 L 2.847656 11.207031 C 2.847656 6.59375 6.59375 2.847656 11.207031 2.847656 Z M 11.207031 2.847656 "/>
<path style=" stroke:none;fill-rule:nonzero;fill:rgb(92.54902%,92.54902%,92.54902%);fill-opacity:1;" d="M 16.527344 12.75 C 14.671875 12.730469 12.46875 14.667969 12.066406 20.167969 C 11.640625 26.035156 13.308594 26.613281 15.121094 26.613281 C 16.625 26.613281 17.839844 25.859375 19.167969 24.3125 C 19.363281 24.078125 19.59375 23.953125 19.675781 24.042969 C 19.765625 24.128906 19.832031 24.199219 19.824219 24.191406 C 19.816406 24.183594 19.71875 24.417969 19.625 24.714844 C 19.363281 25.527344 18.96875 27.109375 19.371094 28.222656 C 19.472656 28.515625 19.691406 28.472656 19.78125 28.175781 C 19.996094 27.46875 20.402344 26.25 20.847656 25.640625 C 21.027344 25.386719 21.238281 25.53125 21.230469 25.839844 C 21.171875 27.730469 21.78125 31.171875 24.558594 33.359375 C 27.46875 35.644531 31.703125 35.589844 34 34.609375 C 34.28125 34.488281 34.71875 34.496094 35.019531 34.550781 C 35.203125 34.582031 35.4375 34.605469 35.730469 34.589844 C 36.578125 34.542969 35.160156 33.816406 35.066406 33.433594 C 34.96875 33.042969 35.730469 32.96875 35.878906 31.738281 C 36.035156 30.503906 35.066406 31.691406 35.066406 31.691406 C 35.066406 31.691406 34.355469 32.527344 31.515625 32.34375 C 28.902344 32.175781 25.785156 30.828125 25.890625 26.089844 C 25.894531 25.777344 25.996094 25.5 26.089844 25.464844 C 26.175781 25.425781 26.4375 25.5625 26.59375 25.828125 C 26.988281 26.480469 27.34375 27.535156 27.535156 28.175781 C 27.625 28.472656 27.84375 28.519531 27.949219 28.230469 C 28.296875 27.261719 28.042969 25.933594 27.796875 25.066406 C 27.714844 24.769531 27.800781 24.394531 28 24.207031 C 28.191406 24.019531 28.496094 24.050781 28.699219 24.285156 C 30.03125 25.855469 31.25 26.621094 32.761719 26.621094 C 34.574219 26.621094 36.238281 26.042969 35.816406 20.171875 C 35.390625 14.300781 32.902344 12.488281 30.984375 12.78125 C 29.75 12.96875 28.894531 13.605469 28.449219 14.03125 C 28.222656 14.246094 28.074219 14.464844 28.074219 14.488281 C 28.074219 14.511719 27.894531 14.355469 27.65625 14.15625 C 26.625 13.296875 25.328125 12.78125 23.921875 12.78125 C 22.53125 12.78125 21.246094 13.28125 20.21875 14.121094 C 19.984375 14.316406 19.808594 14.480469 19.808594 14.46875 C 19.808594 14.457031 19.65625 14.25 19.433594 14.035156 C 18.980469 13.609375 18.125 12.96875 16.890625 12.78125 C 16.769531 12.761719 16.652344 12.75 16.527344 12.75 Z M 21.75 17.25 C 22.160156 17.25 22.5 17.589844 22.5 18 C 22.5 18.417969 22.160156 18.75 21.75 18.75 C 21.332031 18.75 21 18.417969 21 18 C 21 17.589844 21.332031 17.25 21.75 17.25 Z M 26.25 17.25 C 26.660156 17.25 27 17.589844 27 18 C 27 18.417969 26.660156 18.75 26.25 18.75 C 25.832031 18.75 25.5 18.417969 25.5 18 C 25.5 17.589844 25.832031 17.25 26.25 17.25 Z M 26.25 17.25 "/>
</g>
</svg>
