<?xml version="1.0" encoding="UTF-8"?>
<svg xmlns="http://www.w3.org/2000/svg" xmlns:xlink="http://www.w3.org/1999/xlink" width="48pt" height="48pt" viewBox="0 0 48 48" version="1.1">
<g id="surface1">
<path style=" stroke:none;fill-rule:evenodd;fill:rgb(32.941176%,69.803922%,24.705882%);fill-opacity:1;" d="M 11.207031 2.847656 L 36.792969 2.847656 C 41.40625 2.847656 45.152344 6.59375 45.152344 11.207031 L 45.152344 36.792969 C 45.152344 41.40625 41.40625 45.152344 36.792969 45.152344 L 11.207031 45.152344 C 6.59375 45.152344 2.847656 41.40625 2.847656 36.792969 L 2.847656 11.207031 C 2.847656 6.59375 6.59375 2.847656 11.207031 2.847656 Z M 11.207031 2.847656 "/>
<path style=" stroke:none;fill-rule:nonzero;fill:rgb(30.980392%,30.980392%,30.980392%);fill-opacity:1;" d="M 24 11.34375 C 15.078125 11.34375 7.894531 19.253906 7.894531 24 C 7.894531 28.746094 15.078125 36.65625 24 36.65625 C 32.921875 36.65625 40.105469 28.746094 40.105469 24 C 40.105469 19.253906 32.921875 11.34375 24 11.34375 Z M 24 11.34375 "/>
<path style=" stroke:none;fill-rule:nonzero;fill:rgb(32.941176%,69.803922%,24.705882%);fill-opacity:1;" d="M 25.734375 15.941406 C 22.25 15.941406 19.375 18.792969 19.375 22.269531 C 19.375 23.59375 19.824219 24.8125 20.519531 25.832031 L 16.28125 30.074219 C 15.828125 30.519531 15.816406 31.25 16.265625 31.707031 C 16.714844 32.160156 17.441406 32.171875 17.902344 31.730469 L 22.140625 27.484375 C 23.160156 28.1875 24.410156 28.597656 25.734375 28.597656 C 29.21875 28.597656 32.0625 25.753906 32.0625 22.269531 C 32.0625 18.792969 29.21875 15.949219 25.734375 15.949219 Z M 25.734375 18.246094 C 27.972656 18.246094 29.761719 20.035156 29.761719 22.269531 C 29.761719 24.511719 27.972656 26.296875 25.734375 26.296875 C 23.496094 26.296875 21.707031 24.511719 21.707031 22.269531 C 21.707031 20.035156 23.496094 18.246094 25.734375 18.246094 Z M 25.734375 18.246094 "/>
</g>
</svg>
