<?xml version="1.0" encoding="UTF-8"?>
<svg xmlns="http://www.w3.org/2000/svg" xmlns:xlink="http://www.w3.org/1999/xlink" width="48pt" height="48pt" viewBox="0 0 48 48" version="1.1">
<g id="surface1">
<path style=" stroke:none;fill-rule:evenodd;fill:rgb(100%,100%,100%);fill-opacity:1;" d="M 11.207031 2.847656 L 36.792969 2.847656 C 41.40625 2.847656 45.152344 6.59375 45.152344 11.207031 L 45.152344 36.792969 C 45.152344 41.40625 41.40625 45.152344 36.792969 45.152344 L 11.207031 45.152344 C 6.59375 45.152344 2.847656 41.40625 2.847656 36.792969 L 2.847656 11.207031 C 2.847656 6.59375 6.59375 2.847656 11.207031 2.847656 Z M 11.207031 2.847656 "/>
<path style=" stroke:none;fill-rule:evenodd;fill:rgb(37.254902%,70.196078%,9.803922%);fill-opacity:1;" d="M 45.152344 14.847656 L 45.152344 11.207031 C 45.152344 6.578125 41.421875 2.847656 36.792969 2.847656 L 30.105469 2.847656 L 30.105469 14.847656 Z M 45.152344 14.847656 "/>
<path style=" stroke:none;fill-rule:evenodd;fill:rgb(90.588235%,29.411765%,29.411765%);fill-opacity:1;" d="M 22.472656 45.152344 L 36.792969 45.152344 C 41.421875 45.152344 45.152344 41.421875 45.152344 36.792969 L 45.152344 19.421875 L 22.472656 19.421875 Z M 22.472656 45.152344 "/>
<path style=" stroke:none;fill-rule:evenodd;fill:rgb(20.784314%,67.058824%,89.411765%);fill-opacity:1;" d="M 2.847656 19.421875 L 2.847656 36.792969 C 2.847656 41.421875 6.578125 45.152344 11.207031 45.152344 L 17.894531 45.152344 L 17.894531 19.421875 Z M 2.847656 19.421875 "/>
<path style=" stroke:none;fill-rule:evenodd;fill:rgb(100%,75.686275%,16.078431%);fill-opacity:1;" d="M 25.527344 2.847656 L 11.207031 2.847656 C 6.578125 2.847656 2.847656 6.578125 2.847656 11.207031 L 2.847656 14.847656 L 25.527344 14.847656 Z M 25.527344 2.847656 "/>
<path style=" stroke:none;fill-rule:evenodd;fill:rgb(100%,100%,100%);fill-opacity:1;" d="M 25.527344 2.847656 L 25.527344 14.847656 L 2.847656 14.847656 L 2.847656 19.421875 L 17.894531 19.421875 L 17.894531 45.152344 L 22.472656 45.152344 L 22.472656 19.421875 L 45.152344 19.421875 L 45.152344 14.847656 L 30.105469 14.847656 L 30.105469 2.847656 Z M 25.527344 2.847656 "/>
</g>
</svg>
