<?xml version="1.0" encoding="UTF-8"?>
<svg xmlns="http://www.w3.org/2000/svg" xmlns:xlink="http://www.w3.org/1999/xlink" width="48pt" height="48pt" viewBox="0 0 48 48" version="1.1">
<g id="surface1">
<path style=" stroke:none;fill-rule:evenodd;fill:rgb(30.980392%,30.980392%,30.980392%);fill-opacity:1;" d="M 11.207031 2.847656 L 36.792969 2.847656 C 41.40625 2.847656 45.152344 6.59375 45.152344 11.207031 L 45.152344 36.792969 C 45.152344 41.40625 41.40625 45.152344 36.792969 45.152344 L 11.207031 45.152344 C 6.59375 45.152344 2.847656 41.40625 2.847656 36.792969 L 2.847656 11.207031 C 2.847656 6.59375 6.59375 2.847656 11.207031 2.847656 Z M 11.207031 2.847656 "/>
<path style=" stroke:none;fill-rule:nonzero;fill:rgb(100%,100%,100%);fill-opacity:1;" d="M 40.105469 7.894531 L 36.078125 7.894531 L 36.078125 11.921875 L 40.105469 11.921875 Z M 40.105469 36.078125 L 36.078125 36.078125 L 36.078125 40.105469 L 40.105469 40.105469 Z M 30.707031 7.894531 L 26.683594 7.894531 L 26.683594 11.921875 L 30.707031 11.921875 Z M 30.707031 36.078125 L 26.683594 36.078125 L 26.683594 40.105469 L 30.707031 40.105469 Z M 21.316406 7.894531 L 17.292969 7.894531 L 17.292969 11.921875 L 21.316406 11.921875 Z M 21.316406 36.078125 L 17.292969 36.078125 L 17.292969 40.105469 L 21.316406 40.105469 Z M 11.921875 7.894531 L 7.894531 7.894531 L 7.894531 11.921875 L 11.921875 11.921875 Z M 11.921875 36.078125 L 7.894531 36.078125 L 7.894531 40.105469 L 11.921875 40.105469 Z M 11.921875 36.078125 "/>
<path style=" stroke:none;fill-rule:nonzero;fill:rgb(74.509804%,100%,29.803922%);fill-opacity:1;" d="M 22.65625 25.34375 C 21.066406 27.910156 17.550781 28.785156 14.796875 27.308594 C 12.046875 25.824219 11.105469 22.542969 12.691406 19.972656 Z M 22.65625 25.34375 "/>
<path style=" stroke:none;fill-rule:nonzero;fill:rgb(17.254902%,17.254902%,17.254902%);fill-opacity:1;" d="M 17.152344 22.375 C 16.921875 23.953125 17.386719 25.847656 18.582031 27.9375 C 18.589844 27.933594 18.59375 27.933594 18.59375 27.933594 C 17.953125 26.4375 18.046875 24.746094 18.628906 23.175781 Z M 17.152344 22.375 "/>
<path style=" stroke:none;fill-rule:nonzero;fill:rgb(74.509804%,100%,29.803922%);fill-opacity:1;" d="M 25.34375 25.34375 C 26.933594 27.910156 30.449219 28.792969 33.203125 27.308594 C 35.953125 25.824219 36.894531 22.542969 35.308594 19.972656 Z M 25.34375 25.34375 "/>
<path style=" stroke:none;fill-rule:nonzero;fill:rgb(17.254902%,17.254902%,17.254902%);fill-opacity:1;" d="M 30.847656 22.375 L 29.371094 23.175781 C 29.953125 24.746094 30.046875 26.4375 29.40625 27.933594 C 29.40625 27.933594 29.410156 27.933594 29.417969 27.9375 C 30.613281 25.847656 31.078125 23.953125 30.847656 22.375 Z M 30.847656 22.375 "/>
</g>
</svg>
