<?xml version="1.0" encoding="UTF-8"?>
<svg xmlns="http://www.w3.org/2000/svg" xmlns:xlink="http://www.w3.org/1999/xlink" width="48pt" height="48pt" viewBox="0 0 48 48" version="1.1">
<g id="surface1">
<path style=" stroke:none;fill-rule:evenodd;fill:rgb(30.980392%,30.980392%,30.980392%);fill-opacity:1;" d="M 11.207031 2.847656 L 36.792969 2.847656 C 41.40625 2.847656 45.152344 6.59375 45.152344 11.207031 L 45.152344 36.792969 C 45.152344 41.40625 41.40625 45.152344 36.792969 45.152344 L 11.207031 45.152344 C 6.59375 45.152344 2.847656 41.40625 2.847656 36.792969 L 2.847656 11.207031 C 2.847656 6.59375 6.59375 2.847656 11.207031 2.847656 Z M 11.207031 2.847656 "/>
<path style="fill:none;stroke-width:2;stroke-linecap:round;stroke-linejoin:bevel;stroke:rgb(63.529412%,52.941176%,91.372549%);stroke-opacity:1;stroke-miterlimit:4;" d="M 5.000094 15.986049 C 5.000094 15.986049 9.000094 16.644903 9.000094 14.071986 C 9.000094 11.49907 5.013115 11.970424 5.013115 11.970424 M 5.013115 19.970424 L 5.013115 11.970424 " transform="matrix(1.5,0,0,1.5,-0.000141655,0.0482707)"/>
<path style="fill:none;stroke-width:2;stroke-linecap:round;stroke-linejoin:round;stroke:rgb(100%,69.019608%,25.882353%);stroke-opacity:1;stroke-miterlimit:4;" d="M 19.000094 19.986049 L 19.000094 11.986049 M 13.007907 11.986049 L 16.000094 15.99907 L 19.000094 11.986049 M 13.007907 19.986049 L 13.007907 11.986049 " transform="matrix(1.5,0,0,1.5,-0.000141655,0.0482707)"/>
<path style="fill:none;stroke-width:2;stroke-linecap:round;stroke-linejoin:bevel;stroke:rgb(100%,69.019608%,25.882353%);stroke-opacity:1;stroke-miterlimit:4;" d="M 23.000094 16.986049 L 27.000094 16.986049 M 23.000094 19.970424 L 23.000094 14.103236 M 27.000094 19.970424 L 27.000094 14.103236 M 23.000094 14.103236 C 23.000094 14.103236 22.908949 11.970424 25.000094 11.970424 C 27.09124 11.970424 27.000094 14.103236 27.000094 14.103236 " transform="matrix(1.5,0,0,1.5,-0.000141655,0.0482707)"/>
</g>
</svg>
