<?xml version="1.0" encoding="UTF-8"?>
<svg xmlns="http://www.w3.org/2000/svg" xmlns:xlink="http://www.w3.org/1999/xlink" width="48pt" height="48pt" viewBox="0 0 48 48" version="1.1">
<g id="surface1">
<path style=" stroke:none;fill-rule:evenodd;fill:rgb(93.333333%,25.098039%,33.72549%);fill-opacity:1;" d="M 11.207031 2.847656 L 36.792969 2.847656 C 41.40625 2.847656 45.152344 6.59375 45.152344 11.207031 L 45.152344 36.792969 C 45.152344 41.40625 41.40625 45.152344 36.792969 45.152344 L 11.207031 45.152344 C 6.59375 45.152344 2.847656 41.40625 2.847656 36.792969 L 2.847656 11.207031 C 2.847656 6.59375 6.59375 2.847656 11.207031 2.847656 Z M 11.207031 2.847656 "/>
<path style=" stroke:none;fill-rule:nonzero;fill:rgb(100%,100%,100%);fill-opacity:1;" d="M 13.441406 12 C 11.8125 12 10.5 13.355469 10.5 15.03125 C 10.5 27.480469 12.707031 36.046875 24 36 C 35.292969 35.953125 37.5 27.46875 37.5 15.03125 C 37.5 13.355469 36.1875 12 34.558594 12 Z M 17.6875 18.828125 C 18.15625 18.828125 18.628906 19.011719 18.988281 19.375 L 24 24.328125 L 29.011719 19.230469 C 29.371094 18.859375 29.839844 18.683594 30.308594 18.683594 C 30.78125 18.683594 31.253906 18.859375 31.621094 19.230469 C 32.339844 19.957031 32.339844 21.152344 31.621094 21.878906 L 25.441406 28.136719 C 25.046875 28.535156 24.515625 28.699219 24 28.660156 C 23.484375 28.699219 22.953125 28.535156 22.558594 28.136719 L 16.386719 21.878906 C 15.660156 21.152344 15.660156 19.957031 16.386719 19.230469 C 16.746094 18.859375 17.21875 18.675781 17.6875 18.675781 Z M 17.6875 18.828125 "/>
</g>
</svg>
