<?xml version="1.0" encoding="UTF-8"?>
<svg xmlns="http://www.w3.org/2000/svg" xmlns:xlink="http://www.w3.org/1999/xlink" width="48pt" height="48pt" viewBox="0 0 48 48" version="1.1">
<g id="surface1">
<path style=" stroke:none;fill-rule:evenodd;fill:rgb(87.843137%,29.803922%,49.803922%);fill-opacity:1;" d="M 11.207031 2.847656 L 36.792969 2.847656 C 41.40625 2.847656 45.152344 6.59375 45.152344 11.207031 L 45.152344 36.792969 C 45.152344 41.40625 41.40625 45.152344 36.792969 45.152344 L 11.207031 45.152344 C 6.59375 45.152344 2.847656 41.40625 2.847656 36.792969 L 2.847656 11.207031 C 2.847656 6.59375 6.59375 2.847656 11.207031 2.847656 Z M 11.207031 2.847656 "/>
<path style=" stroke:none;fill-rule:nonzero;fill:rgb(100%,100%,100%);fill-opacity:1;" d="M 17.25 13.5 L 30.75 13.5 C 32.824219 13.5 34.5 15.175781 34.5 17.25 L 34.5 30.75 C 34.5 32.824219 32.824219 34.5 30.75 34.5 L 17.25 34.5 C 15.175781 34.5 13.5 32.824219 13.5 30.75 L 13.5 17.25 C 13.5 15.175781 15.175781 13.5 17.25 13.5 Z M 17.25 13.5 "/>
<path style=" stroke:none;fill-rule:nonzero;fill:rgb(67.058824%,26.27451%,40.392157%);fill-opacity:1;" d="M 18.75 16.5 L 29.25 16.5 C 30.496094 16.5 31.5 17.503906 31.5 18.75 L 31.5 29.25 C 31.5 30.496094 30.496094 31.5 29.25 31.5 L 18.75 31.5 C 17.503906 31.5 16.5 30.496094 16.5 29.25 L 16.5 18.75 C 16.5 17.503906 17.503906 16.5 18.75 16.5 Z M 18.75 16.5 "/>
</g>
</svg>
