<?xml version="1.0" encoding="UTF-8"?>
<svg xmlns="http://www.w3.org/2000/svg" xmlns:xlink="http://www.w3.org/1999/xlink" width="48pt" height="48pt" viewBox="0 0 48 48" version="1.1">
<g id="surface1">
<path style=" stroke:none;fill-rule:evenodd;fill:rgb(0%,57.647059%,80.392157%);fill-opacity:1;" d="M 11.207031 2.847656 L 36.792969 2.847656 C 41.40625 2.847656 45.152344 6.59375 45.152344 11.207031 L 45.152344 36.792969 C 45.152344 41.40625 41.40625 45.152344 36.792969 45.152344 L 11.207031 45.152344 C 6.59375 45.152344 2.847656 41.40625 2.847656 36.792969 L 2.847656 11.207031 C 2.847656 6.59375 6.59375 2.847656 11.207031 2.847656 Z M 11.207031 2.847656 "/>
<path style=" stroke:none;fill-rule:nonzero;fill:rgb(30.980392%,30.980392%,30.980392%);fill-opacity:1;" d="M 8.667969 23.332031 L 29.605469 9.714844 C 32.082031 8.097656 35.394531 8.800781 37.011719 11.277344 L 40.902344 17.261719 C 42.515625 19.738281 41.8125 23.050781 39.332031 24.667969 L 18.394531 38.285156 C 15.917969 39.902344 12.605469 39.199219 10.988281 36.722656 L 7.097656 30.738281 C 5.484375 28.261719 6.1875 24.949219 8.667969 23.332031 Z M 8.667969 23.332031 "/>
<path style=" stroke:none;fill-rule:nonzero;fill:rgb(0%,57.647059%,80.392157%);fill-opacity:1;" d="M 13.046875 23.527344 L 28 13.792969 L 34.953125 24.472656 L 20 34.207031 Z M 13.046875 23.527344 "/>
<path style="fill:none;stroke-width:0.588496;stroke-linecap:butt;stroke-linejoin:miter;stroke:rgb(100%,100%,100%);stroke-opacity:1;stroke-miterlimit:4;" d="M 9.851927 18.798691 L 9.84989 15.648894 L 12.646067 15.650808 L 12.651324 12.849493 L 9.501528 12.85153 " transform="matrix(1.068227,-0.695039,0.695039,1.068227,-3.539127,17.895113)"/>
<path style="fill:none;stroke-width:0.588496;stroke-linecap:butt;stroke-linejoin:miter;stroke:rgb(100%,100%,100%);stroke-opacity:1;stroke-miterlimit:4;" d="M 16.998178 12.851085 L 15.251933 12.848492 L 15.2499 18.449327 L 13.499415 18.447631 " transform="matrix(1.068227,-0.695039,0.695039,1.068227,-3.539127,17.895113)"/>
<path style="fill:none;stroke-width:0.588496;stroke-linecap:butt;stroke-linejoin:miter;stroke:rgb(100%,100%,100%);stroke-opacity:1;stroke-miterlimit:4;" d="M 17.84765 18.801171 L 17.849854 15.650477 L 20.647703 15.649822 L 20.651288 12.851076 L 17.503163 12.850543 " transform="matrix(1.068227,-0.695039,0.695039,1.068227,-3.539127,17.895113)"/>
<path style=" stroke:none;fill-rule:nonzero;fill:rgb(41.176471%,49.411765%,51.372549%);fill-opacity:1;" d="M 10.59375 28.160156 C 10.234375 28.394531 10.136719 28.863281 10.371094 29.21875 L 11.203125 30.5 L 9.921875 31.339844 C 9.5625 31.566406 9.464844 32.042969 9.699219 32.394531 L 10.53125 33.675781 C 10.761719 34.03125 11.234375 34.128906 11.589844 33.902344 L 12.871094 33.066406 L 13.703125 34.347656 C 13.933594 34.703125 14.40625 34.800781 14.761719 34.574219 L 16.042969 33.738281 C 16.402344 33.503906 16.5 33.035156 16.265625 32.683594 L 15.433594 31.394531 L 16.714844 30.5625 C 17.074219 30.332031 17.171875 29.859375 16.9375 29.503906 L 16.105469 28.222656 C 15.875 27.871094 15.402344 27.769531 15.046875 28 L 13.765625 28.832031 L 12.933594 27.550781 C 12.703125 27.199219 12.230469 27.097656 11.875 27.328125 Z M 10.59375 28.160156 "/>
<path style=" stroke:none;fill-rule:nonzero;fill:rgb(41.176471%,49.411765%,51.372549%);fill-opacity:1;" d="M 33.988281 15.980469 C 33.394531 16.363281 32.609375 16.199219 32.222656 15.609375 C 31.839844 15.019531 32.003906 14.230469 32.597656 13.84375 C 33.1875 13.464844 33.972656 13.628906 34.359375 14.21875 C 34.746094 14.808594 34.578125 15.597656 33.988281 15.980469 Z M 33.988281 15.980469 "/>
<path style=" stroke:none;fill-rule:nonzero;fill:rgb(41.176471%,49.411765%,51.372549%);fill-opacity:1;" d="M 36.765625 20.253906 C 36.175781 20.640625 35.386719 20.46875 35.003906 19.878906 C 34.621094 19.292969 34.785156 18.5 35.375 18.121094 C 35.96875 17.734375 36.753906 17.902344 37.140625 18.488281 C 37.527344 19.082031 37.359375 19.871094 36.765625 20.253906 Z M 36.765625 20.253906 "/>
<path style=" stroke:none;fill-rule:nonzero;fill:rgb(41.176471%,49.411765%,51.372549%);fill-opacity:1;" d="M 35.75 16.355469 C 35.363281 15.765625 35.53125 14.972656 36.125 14.59375 C 36.714844 14.207031 37.503906 14.375 37.886719 14.964844 C 38.269531 15.550781 38.105469 16.34375 37.515625 16.730469 C 36.921875 17.109375 36.136719 16.941406 35.75 16.355469 Z M 35.75 16.355469 "/>
<path style=" stroke:none;fill-rule:nonzero;fill:rgb(41.176471%,49.411765%,51.372549%);fill-opacity:1;" d="M 31.480469 19.136719 C 31.09375 18.546875 31.261719 17.753906 31.847656 17.371094 C 32.441406 16.988281 33.230469 17.15625 33.613281 17.746094 C 34 18.332031 33.832031 19.125 33.238281 19.511719 C 32.652344 19.890625 31.859375 19.722656 31.480469 19.136719 Z M 31.480469 19.136719 "/>
</g>
</svg>
