<?xml version="1.0" encoding="UTF-8"?>
<svg xmlns="http://www.w3.org/2000/svg" xmlns:xlink="http://www.w3.org/1999/xlink" width="48pt" height="48pt" viewBox="0 0 48 48" version="1.1">
<g id="surface1">
<path style=" stroke:none;fill-rule:evenodd;fill:rgb(23.529412%,43.137255%,70.588235%);fill-opacity:1;" d="M 11.207031 2.847656 L 36.792969 2.847656 C 41.40625 2.847656 45.152344 6.59375 45.152344 11.207031 L 45.152344 36.792969 C 45.152344 41.40625 41.40625 45.152344 36.792969 45.152344 L 11.207031 45.152344 C 6.59375 45.152344 2.847656 41.40625 2.847656 36.792969 L 2.847656 11.207031 C 2.847656 6.59375 6.59375 2.847656 11.207031 2.847656 Z M 11.207031 2.847656 "/>
<path style=" stroke:none;fill-rule:nonzero;fill:rgb(100%,100%,100%);fill-opacity:1;" d="M 30.011719 10.5 C 29.859375 10.488281 29.621094 10.589844 29.183594 10.78125 C 28.660156 11.003906 27.480469 11.191406 26.550781 11.191406 C 23.269531 11.261719 20.644531 12.378906 18.519531 14.5 C 15.636719 17.390625 14.722656 21.03125 16.042969 24.410156 C 16.34375 25.191406 16.53125 25.984375 16.453125 26.171875 C 16.375 26.363281 15.816406 26.890625 15.222656 27.34375 C 13.925781 28.328125 13.03125 29.917969 12.808594 31.625 C 12.671875 32.652344 12.765625 33.140625 13.332031 34.363281 C 14.5625 36.984375 17.347656 38.109375 20.316406 37.175781 C 22.042969 36.640625 23.761719 34.730469 25.136719 31.832031 C 26.328125 29.328125 26.375 29.265625 27.652344 28.816406 C 29.808594 28.058594 31.160156 27.21875 32.511719 25.8125 C 34.902344 23.316406 35.785156 20.082031 34.933594 16.996094 C 34.546875 15.609375 34.21875 15.128906 32.480469 13.363281 C 31.375 12.246094 30.394531 11.109375 30.300781 10.84375 C 30.222656 10.625 30.160156 10.511719 30.011719 10.5 Z M 24.207031 13.5 C 25.234375 13.503906 26.019531 13.8125 26.238281 14.425781 C 26.308594 14.625 26.011719 15.578125 25.574219 16.53125 C 24.449219 18.996094 24.089844 20.34375 23.40625 24.683594 C 22.5625 30.0625 21.640625 32.390625 19.796875 33.785156 C 18.628906 34.667969 17.203125 34.738281 16.4375 33.964844 C 15.777344 33.292969 15.582031 32.449219 15.890625 31.566406 C 16.136719 30.871094 16.371094 30.753906 18.144531 30.496094 C 19.378906 30.3125 20.25 29.457031 20.25 28.339844 C 20.25 27.636719 19.96875 27.230469 19.003906 26.214844 C 17.527344 24.644531 16.875 23.140625 16.871094 21.238281 C 16.859375 18.265625 18.3125 15.734375 20.800781 14.40625 C 21.9375 13.796875 23.1875 13.496094 24.207031 13.5 Z M 28.011719 15.003906 C 28.316406 14.957031 28.703125 15.316406 29.253906 16.0625 C 31.425781 19.019531 31.203125 23.488281 28.753906 26.0625 C 27.714844 27.15625 27.46875 27.21875 26.746094 26.628906 C 26.328125 26.292969 26.246094 25.980469 26.25 24.734375 C 26.253906 22.824219 26.824219 18.140625 27.265625 16.359375 C 27.480469 15.5 27.703125 15.046875 28.011719 15.003906 Z M 28.011719 15.003906 "/>
</g>
</svg>
