<?xml version="1.0" encoding="UTF-8"?>
<svg xmlns="http://www.w3.org/2000/svg" xmlns:xlink="http://www.w3.org/1999/xlink" width="48pt" height="48pt" viewBox="0 0 48 48" version="1.1">
<g id="surface1">
<path style=" stroke:none;fill-rule:evenodd;fill:rgb(21.960784%,46.666667%,100%);fill-opacity:1;" d="M 11.207031 2.847656 L 36.792969 2.847656 C 41.40625 2.847656 45.152344 6.59375 45.152344 11.207031 L 45.152344 36.792969 C 45.152344 41.40625 41.40625 45.152344 36.792969 45.152344 L 11.207031 45.152344 C 6.59375 45.152344 2.847656 41.40625 2.847656 36.792969 L 2.847656 11.207031 C 2.847656 6.59375 6.59375 2.847656 11.207031 2.847656 Z M 11.207031 2.847656 "/>
<path style=" stroke:none;fill-rule:nonzero;fill:rgb(100%,100%,100%);fill-opacity:1;" d="M 39.386719 23.917969 C 39.386719 32.582031 32.355469 39.613281 23.6875 39.613281 C 15.015625 39.613281 7.988281 32.582031 7.988281 23.917969 C 7.988281 15.246094 15.015625 8.21875 23.6875 8.21875 C 32.355469 8.21875 39.386719 15.246094 39.386719 23.917969 Z M 39.386719 23.917969 "/>
<path style=" stroke:none;fill-rule:nonzero;fill:rgb(21.960784%,46.666667%,100%);fill-opacity:1;" d="M 16.625 8.949219 C 16.191406 9.160156 15.765625 9.390625 15.347656 9.636719 L 15.515625 9.636719 L 15.597656 9.910156 L 15.359375 10.136719 L 16.390625 10.160156 L 16.546875 10.535156 L 15.386719 10.488281 L 15.328125 10.207031 L 14.65625 10.058594 C 14.421875 10.21875 14.191406 10.386719 13.964844 10.550781 L 14.371094 10.550781 L 14.371094 10.824219 L 14.191406 11.0625 L 13.34375 11.0625 L 13.34375 11.027344 C 11.003906 12.9375 9.238281 15.464844 8.246094 18.316406 L 8.339844 18.363281 L 8.339844 19.730469 L 9.019531 20.902344 L 9.578125 20.984375 L 9.652344 20.582031 L 8.988281 19.566406 L 8.863281 18.578125 L 9.25 18.578125 L 9.410156 19.597656 L 10.363281 20.984375 L 10.121094 21.4375 L 10.722656 22.363281 L 12.222656 22.734375 L 12.222656 22.488281 L 12.828125 22.578125 L 12.769531 23.003906 L 13.238281 23.09375 L 13.96875 23.292969 L 15 24.46875 L 16.316406 24.566406 L 16.441406 25.644531 L 15.546875 26.277344 L 15.503906 27.234375 L 15.375 27.824219 L 16.675781 29.457031 L 16.777344 30.015625 C 16.777344 30.015625 17.246094 30.144531 17.308594 30.144531 C 17.363281 30.144531 18.363281 30.90625 18.363281 30.90625 L 18.363281 33.859375 L 18.71875 33.957031 L 18.480469 35.324219 L 19.078125 36.125 L 18.96875 37.472656 L 19.761719 38.871094 L 20.769531 39.753906 C 20.792969 39.761719 20.808594 39.761719 20.828125 39.765625 L 21.808594 39.78125 L 21.90625 39.453125 L 21.152344 38.816406 L 21.199219 38.5 L 21.328125 38.113281 L 21.359375 37.71875 L 20.847656 37.703125 L 20.59375 37.378906 L 21.015625 36.972656 L 21.074219 36.667969 L 20.597656 36.53125 L 20.628906 36.246094 L 21.300781 36.144531 L 22.324219 35.652344 L 22.667969 35.019531 L 23.738281 33.644531 L 23.5 32.566406 L 23.828125 31.996094 L 24.8125 32.027344 L 25.480469 31.5 L 25.691406 29.421875 L 26.425781 28.484375 L 26.558594 27.878906 L 25.886719 27.667969 L 25.441406 26.9375 L 23.925781 26.921875 L 22.722656 26.464844 L 22.667969 25.605469 L 22.265625 24.902344 L 21.175781 24.886719 L 20.550781 23.894531 L 19.996094 23.625 L 19.964844 23.921875 L 18.949219 23.984375 L 18.578125 23.464844 L 17.519531 23.25 L 16.644531 24.261719 L 15.277344 24.03125 L 15.175781 22.480469 L 14.171875 22.308594 L 14.574219 21.546875 L 14.457031 21.109375 L 13.140625 21.988281 L 12.3125 21.890625 L 12.019531 21.238281 L 12.199219 20.574219 L 12.65625 19.730469 L 13.707031 19.199219 L 15.738281 19.191406 L 15.734375 19.816406 L 16.464844 20.15625 L 16.40625 19.09375 L 16.933594 18.5625 L 17.988281 17.863281 L 18.066406 17.375 L 19.125 16.269531 L 20.25 15.644531 L 20.152344 15.5625 L 20.910156 14.84375 L 21.191406 14.917969 L 21.316406 15.078125 L 21.609375 14.761719 L 21.675781 14.730469 L 21.363281 14.683594 L 21.042969 14.574219 L 21.042969 14.265625 L 21.214844 14.125 L 21.589844 14.125 L 21.761719 14.203125 L 21.90625 14.5 L 22.089844 14.472656 L 22.089844 14.449219 L 22.140625 14.464844 L 22.671875 14.386719 L 22.746094 14.125 L 23.046875 14.203125 L 23.046875 14.484375 L 22.765625 14.675781 L 22.808594 14.980469 L 23.765625 15.277344 C 23.765625 15.277344 23.765625 15.28125 23.765625 15.292969 L 23.988281 15.269531 L 24 14.855469 L 23.246094 14.511719 L 23.199219 14.3125 L 23.828125 14.09375 L 23.855469 13.488281 L 23.199219 13.09375 L 23.15625 12.074219 L 22.253906 12.515625 L 21.925781 12.515625 L 22.011719 11.746094 L 20.785156 11.453125 L 20.28125 11.839844 L 20.28125 13.011719 L 19.363281 13.300781 L 19 14.0625 L 18.605469 14.128906 L 18.605469 13.152344 L 17.746094 13.03125 L 17.316406 12.75 L 17.144531 12.121094 L 18.675781 11.21875 L 19.425781 10.988281 L 19.503906 11.496094 L 19.921875 11.472656 L 19.953125 11.21875 L 20.390625 11.15625 L 20.402344 11.066406 L 20.214844 10.988281 L 20.167969 10.71875 L 20.707031 10.675781 L 21.03125 10.339844 L 21.046875 10.3125 L 21.050781 10.3125 L 21.152344 10.214844 L 22.28125 10.066406 L 22.78125 10.496094 L 21.46875 11.191406 L 23.140625 11.589844 L 23.355469 11.03125 L 24.082031 11.03125 L 24.339844 10.542969 L 23.828125 10.410156 L 23.828125 9.796875 L 22.207031 9.078125 L 21.09375 9.207031 L 20.464844 9.535156 L 20.511719 10.339844 L 19.847656 10.238281 L 19.75 9.796875 L 20.378906 9.222656 L 19.234375 9.167969 L 18.90625 9.265625 L 18.765625 9.652344 L 19.191406 9.722656 L 19.109375 10.15625 L 18.375 10.199219 L 18.265625 10.484375 L 17.207031 10.515625 C 17.207031 10.515625 17.175781 9.910156 17.136719 9.910156 C 17.09375 9.910156 17.964844 9.894531 17.964844 9.894531 L 18.59375 9.28125 L 18.25 9.109375 L 17.792969 9.550781 L 17.035156 9.511719 L 16.628906 8.953125 Z M 34.34375 11.324219 L 33.824219 11.527344 L 33.488281 11.890625 L 33.566406 12.3125 L 33.980469 12.371094 L 34.222656 12.988281 L 34.933594 12.703125 L 35.046875 13.53125 L 34.832031 13.53125 L 34.253906 13.441406 L 33.609375 13.550781 L 32.988281 14.433594 L 32.097656 14.574219 L 31.96875 15.339844 L 32.34375 15.425781 L 32.234375 15.917969 L 31.355469 15.738281 L 30.542969 15.917969 L 30.371094 16.371094 L 30.511719 17.316406 L 30.984375 17.542969 L 31.78125 17.535156 L 32.324219 17.488281 L 32.488281 17.0625 L 33.328125 15.964844 L 33.886719 16.078125 L 34.433594 15.582031 L 34.53125 15.96875 L 35.878906 16.878906 L 35.714844 17.097656 L 35.105469 17.066406 L 35.339844 17.394531 L 35.714844 17.480469 L 36.152344 17.296875 L 36.140625 16.769531 L 36.332031 16.671875 L 36.175781 16.503906 L 35.28125 16.003906 L 35.046875 15.339844 L 35.792969 15.339844 L 36.03125 15.578125 L 36.671875 16.128906 L 36.699219 16.800781 L 37.363281 17.511719 L 37.609375 16.535156 L 38.074219 16.285156 L 38.15625 17.082031 L 38.609375 17.578125 L 38.816406 17.574219 C 38.214844 16.082031 37.394531 14.6875 36.390625 13.433594 L 35.308594 13.421875 L 35.234375 13.175781 L 35.875 12.847656 C 35.402344 12.308594 34.890625 11.796875 34.34375 11.324219 Z M 14.355469 11.488281 C 14.386719 11.488281 14.355469 11.863281 14.355469 11.863281 L 13.503906 11.917969 L 13.34375 11.722656 L 13.941406 11.550781 C 13.941406 11.550781 14.324219 11.488281 14.355469 11.488281 Z M 15.386719 13.316406 L 15.792969 13.417969 L 15.652344 13.964844 L 15.207031 14.105469 L 14.933594 13.53125 Z M 16.5 14.613281 L 17.175781 14.613281 L 17.175781 14.824219 L 17.324219 14.824219 L 17.324219 15.175781 L 16.296875 15.175781 L 15.910156 15.066406 L 16.003906 14.824219 Z M 17.503906 14.765625 L 17.859375 15.089844 L 17.503906 15.175781 Z M 18.285156 15.261719 L 18.546875 15.425781 L 18.339844 15.597656 L 18.128906 15.425781 Z M 16.308594 15.316406 L 16.875 15.316406 L 16.144531 16.339844 L 15.847656 16.175781 L 15.910156 15.746094 Z M 17.21875 15.316406 L 17.796875 15.316406 L 17.796875 15.660156 L 17.542969 15.828125 L 17.21875 15.886719 Z M 17.9375 15.691406 L 17.980469 15.691406 L 18.636719 15.886719 L 18.636719 16.21875 L 18.089844 16.21875 L 17.9375 16.003906 Z M 17.667969 16.003906 L 17.667969 16.339844 L 17.421875 16.589844 L 16.875 16.589844 L 16.964844 16.207031 L 17.21875 16.1875 L 17.269531 16.058594 Z M 34.683594 17.421875 L 32.75 17.574219 L 32.152344 17.894531 L 31.386719 17.894531 L 31.011719 17.859375 L 30.078125 18.375 L 30.078125 19.355469 L 28.175781 20.730469 L 28.332031 21.316406 L 28.71875 21.316406 L 28.621094 21.875 L 28.347656 21.972656 L 28.332031 23.4375 L 29.980469 25.3125 L 30.691406 25.3125 L 30.738281 25.199219 L 32.027344 25.199219 L 32.394531 24.855469 L 33.125 24.855469 L 33.527344 25.261719 L 34.613281 25.371094 L 34.46875 26.824219 L 35.675781 28.957031 L 35.042969 30.171875 L 35.082031 30.746094 L 35.582031 31.25 L 35.582031 32.625 L 36.238281 33.515625 L 36.238281 34.113281 C 38.675781 31.1875 40.011719 27.496094 40.011719 23.683594 C 40.011719 22.105469 39.777344 20.53125 39.316406 19.015625 L 38.503906 19.015625 L 37.667969 18.390625 L 36.792969 18.480469 L 36.792969 19.015625 L 36.511719 19.015625 L 36.207031 18.800781 L 34.683594 18.410156 Z M 34.683594 17.421875 "/>
<path style=" stroke:none;fill-rule:nonzero;fill:rgb(100%,78.823529%,12.941176%);fill-opacity:1;" d="M 41.769531 29.371094 C 41.769531 36.234375 36.207031 41.796875 29.34375 41.796875 C 22.480469 41.796875 16.917969 36.234375 16.917969 29.371094 C 16.917969 22.503906 22.480469 16.941406 29.34375 16.941406 C 36.207031 16.941406 41.769531 22.503906 41.769531 29.371094 Z M 41.769531 29.371094 "/>
<path style=" stroke:none;fill-rule:nonzero;fill:rgb(100%,100%,100%);fill-opacity:1;" d="M 29.488281 19.84375 C 26.675781 19.84375 24.503906 22.128906 24.503906 24.96875 L 24.503906 26.816406 L 23.402344 26.816406 C 22.90625 26.816406 22.511719 27.292969 22.511719 27.785156 L 22.511719 36.886719 C 22.511719 37.378906 22.90625 37.78125 23.402344 37.78125 L 35.574219 37.78125 C 36.066406 37.78125 36.464844 37.378906 36.464844 36.886719 L 36.464844 27.785156 C 36.464844 27.292969 36.0625 26.785156 35.574219 26.824219 L 34.46875 26.824219 L 34.46875 24.96875 C 34.46875 22.128906 32.296875 19.84375 29.488281 19.84375 Z M 29.488281 21.839844 C 31.246094 21.839844 32.480469 23.191406 32.480469 24.96875 L 32.480469 26.816406 L 26.5 26.816406 L 26.5 24.96875 C 26.5 23.191406 27.730469 21.839844 29.488281 21.839844 Z M 29.488281 21.839844 "/>
</g>
</svg>
