<?xml version="1.0" encoding="UTF-8"?>
<svg xmlns="http://www.w3.org/2000/svg" xmlns:xlink="http://www.w3.org/1999/xlink" width="48pt" height="48pt" viewBox="0 0 48 48" version="1.1">
<g id="surface1">
<path style=" stroke:none;fill-rule:evenodd;fill:rgb(97.647059%,97.647059%,97.647059%);fill-opacity:1;" d="M 2.847656 26.347656 L 19.441406 26.347656 C 20.019531 26.347656 20.488281 25.90625 20.488281 25.347656 L 20.488281 12.347656 C 20.488281 11.796875 20.019531 11.347656 19.441406 11.347656 L 2.847656 11.347656 Z M 2.847656 26.347656 "/>
<path style=" stroke:none;fill-rule:evenodd;fill:rgb(97.647059%,97.647059%,97.647059%);fill-opacity:1;" d="M 33.988281 45.152344 L 33.988281 33.347656 C 33.988281 32.796875 33.519531 32.347656 32.941406 32.347656 L 14.042969 32.347656 C 13.457031 32.347656 12.988281 32.796875 12.988281 33.347656 L 12.988281 45.152344 Z M 33.988281 45.152344 "/>
<path style=" stroke:none;fill-rule:evenodd;fill:rgb(97.647059%,97.647059%,97.647059%);fill-opacity:1;" d="M 45.152344 11.347656 L 27.542969 11.347656 C 26.957031 11.347656 26.488281 11.796875 26.488281 12.347656 L 26.488281 25.347656 C 26.488281 25.90625 26.957031 26.347656 27.542969 26.347656 L 45.152344 26.347656 Z M 45.152344 11.347656 "/>
<path style=" stroke:none;fill-rule:evenodd;fill:rgb(29.019608%,70.196078%,89.411765%);fill-opacity:1;" d="M 11.207031 2.847656 C 6.578125 2.847656 2.847656 6.578125 2.847656 11.207031 L 2.847656 11.347656 L 19.441406 11.347656 C 20.019531 11.347656 20.488281 11.796875 20.488281 12.347656 L 20.488281 25.347656 C 20.488281 25.90625 20.019531 26.347656 19.441406 26.347656 L 2.847656 26.347656 L 2.847656 36.785156 C 2.847656 41.421875 6.578125 45.152344 11.207031 45.152344 L 12.988281 45.152344 L 12.988281 33.347656 C 12.988281 32.796875 13.457031 32.347656 14.042969 32.347656 L 32.941406 32.347656 C 33.519531 32.347656 33.988281 32.796875 33.988281 33.347656 L 33.988281 45.152344 L 36.785156 45.152344 C 41.421875 45.152344 45.152344 41.421875 45.152344 36.785156 L 45.152344 26.347656 L 27.542969 26.347656 C 26.957031 26.347656 26.488281 25.90625 26.488281 25.347656 L 26.488281 12.347656 C 26.488281 11.796875 26.957031 11.347656 27.542969 11.347656 L 45.152344 11.347656 L 45.152344 11.207031 C 45.152344 6.578125 41.421875 2.847656 36.785156 2.847656 Z M 11.207031 2.847656 "/>
</g>
</svg>
