<?xml version="1.0" encoding="UTF-8"?>
<svg xmlns="http://www.w3.org/2000/svg" xmlns:xlink="http://www.w3.org/1999/xlink" width="48pt" height="48pt" viewBox="0 0 48 48" version="1.1">
<g id="surface1">
<path style=" stroke:none;fill-rule:evenodd;fill:rgb(55.686275%,55.686275%,55.686275%);fill-opacity:1;" d="M 11.207031 2.847656 L 36.792969 2.847656 C 41.40625 2.847656 45.152344 6.59375 45.152344 11.207031 L 45.152344 36.792969 C 45.152344 41.40625 41.40625 45.152344 36.792969 45.152344 L 11.207031 45.152344 C 6.59375 45.152344 2.847656 41.40625 2.847656 36.792969 L 2.847656 11.207031 C 2.847656 6.59375 6.59375 2.847656 11.207031 2.847656 Z M 11.207031 2.847656 "/>
<path style=" stroke:none;fill-rule:nonzero;fill:rgb(27.843137%,27.843137%,27.843137%);fill-opacity:1;" d="M 13.371094 12.269531 L 34.628906 12.269531 C 37.410156 12.269531 39.671875 14.527344 39.671875 17.3125 L 39.671875 30.6875 C 39.671875 33.472656 37.410156 35.730469 34.628906 35.730469 L 13.371094 35.730469 C 10.589844 35.730469 8.328125 33.472656 8.328125 30.6875 L 8.328125 17.3125 C 8.328125 14.527344 10.589844 12.269531 13.371094 12.269531 Z M 13.371094 12.269531 "/>
<path style=" stroke:none;fill-rule:nonzero;fill:rgb(13.72549%,13.72549%,13.72549%);fill-opacity:1;" d="M 13.558594 13.753906 L 34.441406 13.753906 C 36.550781 13.753906 38.265625 15.394531 38.265625 17.421875 L 38.265625 30.578125 C 38.265625 32.605469 36.550781 34.246094 34.441406 34.246094 L 13.558594 34.246094 C 11.449219 34.246094 9.734375 32.605469 9.734375 30.578125 L 9.734375 17.421875 C 9.734375 15.394531 11.449219 13.753906 13.558594 13.753906 Z M 13.558594 13.753906 "/>
</g>
</svg>
