<?xml version="1.0" encoding="UTF-8"?>
<svg xmlns="http://www.w3.org/2000/svg" xmlns:xlink="http://www.w3.org/1999/xlink" width="48pt" height="48pt" viewBox="0 0 48 48" version="1.1">
<g id="surface1">
<path style=" stroke:none;fill-rule:evenodd;fill:rgb(60%,60%,60%);fill-opacity:1;" d="M 28.707031 2.847656 L 11.207031 2.847656 C 6.578125 2.847656 2.847656 6.578125 2.847656 11.207031 L 2.847656 36.792969 C 2.847656 41.421875 6.578125 45.152344 11.207031 45.152344 L 36.792969 45.152344 C 41.421875 45.152344 45.152344 41.421875 45.152344 36.792969 L 45.152344 11.207031 C 45.152344 6.578125 41.421875 2.847656 36.792969 2.847656 L 31.53125 2.847656 C 30.859375 3.566406 30.089844 4.300781 29.546875 5.003906 C 28.582031 6.261719 27.8125 7.496094 27.191406 8.71875 C 25.949219 11.167969 25.285156 13.5625 24.792969 16 L 22.734375 15.578125 C 23.25 13.046875 23.996094 10.4375 25.347656 7.777344 C 26.027344 6.441406 26.855469 5.097656 27.890625 3.738281 C 28.113281 3.449219 28.464844 3.144531 28.707031 2.847656 Z M 28.707031 2.847656 "/>
<path style=" stroke:none;fill-rule:evenodd;fill:rgb(40%,40%,40%);fill-opacity:1;" d="M 28.707031 2.847656 C 28.464844 3.144531 28.113281 3.449219 27.890625 3.738281 C 26.855469 5.097656 26.027344 6.441406 25.347656 7.777344 C 23.996094 10.4375 23.25 13.046875 22.734375 15.578125 L 24.792969 16 C 25.285156 13.5625 25.949219 11.167969 27.191406 8.71875 C 27.8125 7.496094 28.582031 6.261719 29.546875 5.003906 C 30.089844 4.300781 30.859375 3.566406 31.53125 2.847656 Z M 28.707031 2.847656 "/>
<path style=" stroke:none;fill-rule:evenodd;fill:rgb(60%,60%,60%);fill-opacity:1;" d="M 39.457031 44.613281 L 36.957031 41.480469 C 34.3125 38.15625 34.203125 38.042969 33.863281 38.097656 C 32.6875 38.296875 31.558594 38.300781 30.828125 38.105469 C 29.910156 37.855469 28.886719 37.214844 28.277344 36.511719 C 27.785156 35.949219 27.191406 34.816406 27.082031 34.21875 L 27.011719 33.839844 L 20.878906 33.839844 L 20.621094 34.625 C 20.222656 35.839844 19.546875 36.777344 18.640625 37.390625 C 17.730469 38.011719 16.597656 38.308594 15.296875 38.253906 L 14.21875 38.207031 L 11.261719 41.628906 C 9.703125 43.425781 9.042969 44.207031 8.542969 44.613281 C 9.390625 44.90625 10.261719 45.152344 11.207031 45.152344 L 36.792969 45.152344 C 37.738281 45.152344 38.609375 44.902344 39.457031 44.613281 Z M 39.457031 44.613281 "/>
<path style=" stroke:none;fill-rule:evenodd;fill:rgb(20%,20%,20%);fill-opacity:1;" d="M 45.152344 33.292969 C 45.128906 33.199219 45.109375 33.105469 45.089844 33.019531 C 44.925781 32.34375 44.238281 29.433594 43.5625 26.542969 C 42.582031 22.371094 42.234375 21.09375 41.890625 20.355469 C 41.480469 19.472656 40.953125 18.675781 40.3125 17.957031 C 39.671875 17.246094 38.917969 16.609375 38.050781 16.0625 C 36.332031 14.96875 34.183594 14.222656 31.640625 13.847656 C 30.140625 13.628906 17.535156 13.628906 16.296875 13.847656 C 14.339844 14.199219 12.8125 14.621094 11.519531 15.207031 C 10.234375 15.796875 9.183594 16.546875 8.171875 17.546875 C 7.15625 18.558594 6.921875 18.863281 6.453125 19.824219 C 5.875 20.996094 5.824219 21.175781 3.753906 29.636719 C 3.46875 30.792969 3.167969 32.03125 2.847656 33.332031 L 2.847656 36.792969 C 2.847656 40.472656 5.246094 43.496094 8.542969 44.613281 C 9.042969 44.207031 9.703125 43.425781 11.261719 41.628906 L 14.21875 38.207031 L 15.296875 38.253906 C 16.597656 38.308594 17.730469 38.011719 18.640625 37.390625 C 19.546875 36.777344 20.222656 35.839844 20.621094 34.625 L 20.878906 33.839844 L 27.011719 33.839844 L 27.082031 34.21875 C 27.191406 34.816406 27.785156 35.949219 28.277344 36.511719 C 28.886719 37.214844 29.910156 37.855469 30.828125 38.105469 C 31.558594 38.300781 32.6875 38.296875 33.871094 38.097656 C 34.203125 38.042969 34.3125 38.15625 36.964844 41.480469 L 39.457031 44.613281 C 42.753906 43.5 45.152344 40.480469 45.152344 36.792969 Z M 33.832031 18.222656 C 34.40625 18.613281 34.59375 19.246094 34.332031 19.921875 C 34.167969 20.363281 33.839844 20.667969 33.453125 20.800781 C 33.066406 20.933594 32.625 20.894531 32.21875 20.652344 C 31.792969 20.386719 31.546875 19.980469 31.503906 19.550781 C 31.464844 19.125 31.628906 18.675781 32 18.339844 C 32.527344 17.859375 33.222656 17.816406 33.832031 18.222656 Z M 13.503906 18.660156 L 16.535156 18.660156 L 16.535156 21.574219 L 19.515625 21.636719 L 19.546875 23.125 L 19.582031 24.613281 L 16.535156 24.613281 L 16.535156 27.652344 L 13.503906 27.652344 L 13.503906 24.613281 L 10.582031 24.613281 L 10.582031 21.578125 L 13.503906 21.578125 Z M 22.496094 29.050781 L 25.53125 29.050781 L 25.53125 30.6875 L 22.496094 30.6875 Z M 16.160156 30.640625 C 16.84375 30.753906 17.46875 31.183594 17.808594 31.878906 C 18.042969 32.359375 18.089844 32.847656 18 33.292969 C 17.910156 33.738281 17.683594 34.140625 17.371094 34.453125 C 17.058594 34.765625 16.65625 34.988281 16.207031 35.074219 C 15.765625 35.160156 15.28125 35.109375 14.800781 34.871094 C 14.109375 34.527344 13.6875 33.902344 13.574219 33.222656 C 13.457031 32.546875 13.65625 31.8125 14.203125 31.269531 C 14.75 30.71875 15.484375 30.527344 16.160156 30.640625 Z M 16.160156 30.640625 "/>
<path style=" stroke:none;fill-rule:evenodd;fill:rgb(90.196078%,90.196078%,90.196078%);fill-opacity:1;" d="M 31.703125 30.671875 C 31.078125 30.824219 30.527344 31.238281 30.214844 31.878906 C 29.933594 32.464844 29.910156 33.078125 30.109375 33.621094 C 30.300781 34.160156 30.71875 34.625 31.308594 34.90625 C 31.988281 35.230469 32.730469 35.15625 33.328125 34.800781 C 33.925781 34.449219 34.378906 33.816406 34.484375 33.03125 C 34.5625 32.453125 34.109375 31.40625 33.628906 31.074219 C 33.019531 30.644531 32.328125 30.527344 31.703125 30.671875 Z M 31.703125 30.671875 "/>
<path style=" stroke:none;fill-rule:evenodd;fill:rgb(90.196078%,90.196078%,90.196078%);fill-opacity:1;" d="M 31.703125 30.671875 C 32.328125 30.527344 33.019531 30.644531 33.628906 31.074219 C 34.109375 31.40625 34.5625 32.453125 34.484375 33.03125 C 34.378906 33.816406 33.925781 34.449219 33.328125 34.800781 C 32.730469 35.15625 31.988281 35.230469 31.308594 34.90625 C 30.71875 34.625 30.300781 34.160156 30.109375 33.621094 C 29.910156 33.078125 29.933594 32.464844 30.214844 31.878906 C 30.527344 31.238281 31.078125 30.824219 31.703125 30.671875 Z M 31.703125 30.671875 "/>
<path style=" stroke:none;fill-rule:evenodd;fill:rgb(90.196078%,90.196078%,90.196078%);fill-opacity:1;" d="M 16.160156 30.640625 C 15.484375 30.527344 14.75 30.71875 14.203125 31.269531 C 13.65625 31.8125 13.457031 32.546875 13.574219 33.222656 C 13.6875 33.902344 14.109375 34.527344 14.800781 34.871094 C 15.28125 35.109375 15.765625 35.160156 16.207031 35.074219 C 16.65625 34.988281 17.058594 34.765625 17.371094 34.453125 C 17.683594 34.140625 17.910156 33.738281 18 33.292969 C 18.089844 32.847656 18.042969 32.359375 17.808594 31.878906 C 17.46875 31.183594 16.84375 30.753906 16.160156 30.640625 Z M 16.160156 30.640625 "/>
<path style=" stroke:none;fill-rule:evenodd;fill:rgb(90.196078%,90.196078%,90.196078%);fill-opacity:1;" d="M 22.496094 29.050781 L 22.496094 30.6875 L 25.53125 30.6875 L 25.53125 29.050781 Z M 22.496094 29.050781 "/>
<path style=" stroke:none;fill-rule:evenodd;fill:rgb(90.196078%,90.196078%,90.196078%);fill-opacity:1;" d="M 32.734375 23.949219 C 32.121094 24.03125 31.707031 24.453125 31.5625 24.964844 C 31.417969 25.46875 31.542969 26.058594 32.015625 26.472656 C 32.421875 26.832031 32.949219 26.921875 33.40625 26.796875 C 33.863281 26.667969 34.253906 26.324219 34.394531 25.8125 C 34.546875 25.265625 34.417969 24.761719 34.109375 24.410156 C 33.796875 24.066406 33.308594 23.875 32.734375 23.949219 Z M 32.734375 23.949219 "/>
<path style=" stroke:none;fill-rule:evenodd;fill:rgb(90.196078%,90.196078%,90.196078%);fill-opacity:1;" d="M 32.734375 23.949219 C 33.308594 23.875 33.796875 24.066406 34.109375 24.410156 C 34.417969 24.761719 34.546875 25.265625 34.394531 25.8125 C 34.253906 26.324219 33.863281 26.667969 33.40625 26.796875 C 32.949219 26.921875 32.421875 26.832031 32.015625 26.472656 C 31.542969 26.058594 31.417969 25.46875 31.5625 24.964844 C 31.707031 24.453125 32.121094 24.03125 32.734375 23.949219 Z M 32.734375 23.949219 "/>
<path style=" stroke:none;fill-rule:evenodd;fill:rgb(90.196078%,90.196078%,90.196078%);fill-opacity:1;" d="M 30.636719 21.09375 C 30.019531 20.78125 29.46875 20.886719 28.953125 21.402344 C 28.613281 21.734375 28.5625 21.871094 28.5625 22.371094 C 28.5625 23.035156 28.855469 23.496094 29.433594 23.75 C 29.917969 23.957031 30.046875 23.953125 30.621094 23.675781 C 31.175781 23.402344 31.464844 22.902344 31.464844 22.394531 C 31.46875 21.890625 31.191406 21.378906 30.636719 21.09375 Z M 30.636719 21.09375 "/>
<path style=" stroke:none;fill-rule:evenodd;fill:rgb(90.196078%,90.196078%,90.196078%);fill-opacity:1;" d="M 30.636719 21.09375 C 31.191406 21.378906 31.46875 21.890625 31.464844 22.394531 C 31.464844 22.902344 31.175781 23.402344 30.621094 23.675781 C 30.046875 23.953125 29.917969 23.957031 29.433594 23.75 C 28.855469 23.496094 28.5625 23.035156 28.5625 22.371094 C 28.5625 21.871094 28.613281 21.734375 28.953125 21.402344 C 29.46875 20.886719 30.019531 20.78125 30.636719 21.09375 Z M 30.636719 21.09375 "/>
<path style=" stroke:none;fill-rule:evenodd;fill:rgb(90.196078%,90.196078%,90.196078%);fill-opacity:1;" d="M 36.542969 21.035156 C 35.957031 20.792969 35.390625 20.921875 34.90625 21.402344 C 34.574219 21.734375 34.519531 21.871094 34.519531 22.371094 C 34.519531 23.035156 34.808594 23.496094 35.386719 23.75 C 35.855469 23.953125 36.074219 23.949219 36.566406 23.746094 C 37.140625 23.503906 37.421875 22.949219 37.417969 22.390625 C 37.410156 21.832031 37.121094 21.277344 36.542969 21.035156 Z M 36.542969 21.035156 "/>
<path style=" stroke:none;fill-rule:evenodd;fill:rgb(100%,79.215686%,34.509804%);fill-opacity:1;" d="M 36.542969 21.035156 C 37.121094 21.277344 37.410156 21.832031 37.417969 22.390625 C 37.421875 22.949219 37.140625 23.503906 36.566406 23.746094 C 36.074219 23.949219 35.855469 23.953125 35.386719 23.75 C 34.808594 23.496094 34.519531 23.035156 34.519531 22.371094 C 34.519531 21.871094 34.574219 21.734375 34.90625 21.402344 C 35.390625 20.921875 35.957031 20.792969 36.542969 21.035156 Z M 36.542969 21.035156 "/>
<path style=" stroke:none;fill-rule:evenodd;fill:rgb(90.196078%,90.196078%,90.196078%);fill-opacity:1;" d="M 13.503906 18.660156 L 13.503906 21.578125 L 10.582031 21.578125 L 10.582031 24.613281 L 13.503906 24.613281 L 13.503906 27.652344 L 16.535156 27.652344 L 16.535156 24.613281 L 19.582031 24.613281 L 19.546875 23.125 L 19.515625 21.636719 L 16.535156 21.574219 L 16.535156 18.660156 Z M 13.503906 18.660156 "/>
<path style=" stroke:none;fill-rule:evenodd;fill:rgb(93.333333%,32.54902%,32.54902%);fill-opacity:1;" d="M 33.832031 18.222656 C 33.222656 17.816406 32.527344 17.859375 32 18.339844 C 31.628906 18.675781 31.464844 19.125 31.503906 19.550781 C 31.546875 19.980469 31.792969 20.386719 32.21875 20.652344 C 32.625 20.894531 33.066406 20.933594 33.453125 20.800781 C 33.839844 20.667969 34.167969 20.363281 34.332031 19.921875 C 34.59375 19.246094 34.40625 18.613281 33.832031 18.222656 Z M 33.832031 18.222656 "/>
</g>
</svg>
