<?xml version="1.0" encoding="UTF-8"?>
<svg xmlns="http://www.w3.org/2000/svg" xmlns:xlink="http://www.w3.org/1999/xlink" width="48pt" height="48pt" viewBox="0 0 48 48" version="1.1">
<g id="surface1">
<path style=" stroke:none;fill-rule:evenodd;fill:rgb(94.901961%,94.901961%,94.901961%);fill-opacity:1;" d="M 11.207031 2.847656 L 36.792969 2.847656 C 41.40625 2.847656 45.152344 6.59375 45.152344 11.207031 L 45.152344 36.792969 C 45.152344 41.40625 41.40625 45.152344 36.792969 45.152344 L 11.207031 45.152344 C 6.59375 45.152344 2.847656 41.40625 2.847656 36.792969 L 2.847656 11.207031 C 2.847656 6.59375 6.59375 2.847656 11.207031 2.847656 Z M 11.207031 2.847656 "/>
<path style=" stroke:none;fill-rule:nonzero;fill:rgb(56.470588%,87.058824%,66.27451%);fill-opacity:1;" d="M 24.074219 13.042969 L 24.074219 25.238281 C 25.3125 25.753906 25.1875 25.859375 25.671875 26.738281 L 37.828125 26.738281 C 36.6875 16.285156 29.796875 13.605469 24.074219 13.042969 Z M 24.074219 13.042969 "/>
<path style=" stroke:none;fill-rule:nonzero;fill:rgb(24.313725%,28.627451%,35.294118%);fill-opacity:1;" d="M 22.425781 41.53125 C 16.683594 40.933594 11.660156 36.886719 9.921875 31.4375 C 9.097656 28.875 8.964844 26.488281 9.488281 23.871094 C 9.921875 21.714844 11 19.417969 12.378906 17.699219 L 12.800781 17.171875 L 12.550781 16.910156 L 12.296875 16.644531 L 11.933594 16.988281 L 11.324219 16.371094 C 10.910156 15.949219 10.714844 15.6875 10.714844 15.566406 C 10.714844 15.4375 10.96875 15.128906 11.578125 14.515625 C 12.667969 13.425781 12.65625 13.433594 13.484375 14.238281 L 14.09375 14.828125 L 13.925781 15.011719 L 13.753906 15.1875 L 14.011719 15.453125 L 14.265625 15.714844 L 14.777344 15.308594 C 16.785156 13.6875 19.421875 12.574219 22.050781 12.230469 C 22.535156 12.167969 22.953125 12.113281 22.96875 12.113281 C 22.988281 12.113281 23.003906 12.015625 23.003906 11.890625 L 23.003906 11.671875 L 21.980469 11.640625 C 21.011719 11.613281 20.933594 11.597656 20.453125 11.359375 C 19.863281 11.074219 19.457031 10.65625 19.171875 10.046875 C 18.886719 9.433594 18.886719 8.574219 19.171875 7.953125 C 19.457031 7.347656 19.863281 6.933594 20.457031 6.640625 L 20.964844 6.390625 L 27.042969 6.390625 L 27.550781 6.640625 C 28.140625 6.933594 28.546875 7.347656 28.832031 7.953125 C 29.121094 8.574219 29.121094 9.433594 28.832031 10.046875 C 28.546875 10.65625 28.140625 11.074219 27.550781 11.359375 C 27.074219 11.597656 26.996094 11.613281 26.027344 11.640625 L 25 11.671875 L 25 11.890625 C 25 12.015625 25.015625 12.113281 25.035156 12.113281 C 25.058594 12.113281 25.46875 12.167969 25.957031 12.230469 C 28.582031 12.574219 31.21875 13.6875 33.230469 15.308594 L 33.738281 15.714844 L 33.996094 15.453125 L 34.25 15.1875 L 34.082031 15.011719 L 33.910156 14.828125 L 34.519531 14.238281 C 35.34375 13.4375 35.332031 13.4375 36.394531 14.484375 C 37.480469 15.558594 37.484375 15.574219 36.65625 16.402344 L 36.074219 16.984375 L 35.890625 16.816406 L 35.707031 16.644531 L 35.457031 16.910156 L 35.203125 17.171875 L 35.625 17.699219 C 36.996094 19.402344 38.074219 21.6875 38.511719 23.828125 C 39.738281 29.800781 37.25 35.8125 32.152344 39.175781 C 29.332031 41.035156 25.832031 41.886719 22.425781 41.53125 Z M 26.484375 39.234375 C 32.324219 37.988281 36.421875 33.203125 36.65625 27.347656 C 36.917969 21.03125 32.4375 15.5 26.1875 14.417969 C 25.152344 14.234375 23.296875 14.199219 22.3125 14.339844 C 16.855469 15.113281 12.628906 19.105469 11.535156 24.515625 C 11.292969 25.734375 11.296875 28.0625 11.546875 29.246094 C 12.722656 34.765625 17.011719 38.707031 22.621094 39.417969 C 22.765625 39.4375 23.527344 39.4375 24.3125 39.421875 C 25.378906 39.40625 25.917969 39.359375 26.484375 39.234375 Z M 23.699219 37.777344 L 23.699219 37.160156 L 24.3125 37.160156 L 24.3125 38.390625 L 23.699219 38.390625 Z M 21.792969 38.171875 C 21.707031 38.121094 21.707031 38.003906 21.78125 37.574219 C 21.828125 37.28125 21.890625 37.019531 21.917969 36.996094 C 21.941406 36.96875 22.082031 36.964844 22.222656 36.984375 L 22.484375 37.027344 L 22.433594 37.453125 C 22.355469 38.160156 22.316406 38.234375 22.09375 38.234375 C 21.980469 38.234375 21.84375 38.203125 21.792969 38.167969 Z M 25.667969 38.058594 C 25.640625 37.964844 25.597656 37.691406 25.574219 37.453125 L 25.519531 37.027344 L 25.78125 36.984375 C 25.921875 36.964844 26.0625 36.96875 26.089844 36.996094 C 26.113281 37.019531 26.175781 37.28125 26.230469 37.574219 C 26.328125 38.160156 26.292969 38.234375 25.910156 38.234375 C 25.765625 38.234375 25.699219 38.1875 25.667969 38.058594 Z M 20.011719 37.6875 C 19.90625 37.644531 19.808594 37.597656 19.792969 37.582031 C 19.769531 37.566406 19.855469 37.292969 19.96875 36.972656 L 20.183594 36.394531 L 20.449219 36.511719 C 20.597656 36.574219 20.730469 36.621094 20.746094 36.621094 C 20.753906 36.621094 20.675781 36.878906 20.5625 37.199219 C 20.347656 37.796875 20.324219 37.8125 20.011719 37.6875 Z M 27.449219 37.199219 C 27.332031 36.878906 27.253906 36.621094 27.265625 36.621094 C 27.277344 36.621094 27.410156 36.574219 27.558594 36.511719 L 27.828125 36.394531 L 28.027344 36.953125 C 28.140625 37.253906 28.230469 37.527344 28.230469 37.558594 C 28.230469 37.597656 27.808594 37.777344 27.699219 37.777344 C 27.671875 37.777344 27.5625 37.515625 27.449219 37.199219 Z M 18.183594 36.839844 L 17.9375 36.6875 L 18.144531 36.324219 C 18.261719 36.121094 18.410156 35.875 18.472656 35.777344 C 18.605469 35.589844 18.609375 35.59375 19.074219 35.902344 C 19.109375 35.921875 18.550781 36.917969 18.480469 36.964844 C 18.453125 36.980469 18.316406 36.925781 18.183594 36.839844 Z M 29.480469 36.910156 C 29.347656 36.738281 28.902344 35.921875 28.933594 35.902344 C 29.097656 35.785156 29.386719 35.625 29.410156 35.625 C 29.453125 35.625 29.988281 36.519531 30.015625 36.628906 C 30.027344 36.667969 29.925781 36.769531 29.796875 36.855469 C 29.605469 36.972656 29.542969 36.988281 29.480469 36.910156 Z M 16.527344 35.675781 L 16.300781 35.5 L 16.703125 35.027344 C 16.9375 34.746094 17.140625 34.566406 17.191406 34.597656 C 17.34375 34.683594 17.546875 34.875 17.546875 34.933594 C 17.546875 35.011719 16.855469 35.855469 16.792969 35.855469 C 16.765625 35.855469 16.644531 35.777344 16.527344 35.675781 Z M 30.8125 35.421875 C 30.613281 35.1875 30.457031 34.964844 30.457031 34.933594 C 30.457031 34.875 30.660156 34.683594 30.8125 34.597656 C 30.863281 34.566406 31.066406 34.746094 31.300781 35.027344 L 31.703125 35.5 L 31.484375 35.675781 C 31.359375 35.777344 31.238281 35.855469 31.214844 35.855469 C 31.1875 35.855469 31.003906 35.660156 30.8125 35.421875 Z M 15.09375 34.25 L 14.9375 34.027344 L 15.40625 33.621094 L 15.878906 33.207031 L 16.0625 33.421875 C 16.160156 33.535156 16.246094 33.660156 16.246094 33.699219 C 16.246094 33.769531 15.40625 34.46875 15.316406 34.46875 C 15.28125 34.46875 15.183594 34.371094 15.09375 34.25 Z M 32.191406 34.113281 C 31.957031 33.921875 31.761719 33.734375 31.761719 33.699219 C 31.761719 33.660156 31.84375 33.535156 31.941406 33.421875 L 32.128906 33.207031 L 32.597656 33.621094 L 33.066406 34.027344 L 32.910156 34.25 C 32.824219 34.371094 32.722656 34.46875 32.6875 34.46875 C 32.65625 34.46875 32.433594 34.3125 32.191406 34.113281 Z M 13.953125 32.609375 L 13.792969 32.363281 L 14.296875 32.074219 C 14.566406 31.910156 14.824219 31.78125 14.859375 31.78125 C 14.933594 31.78125 15.167969 32.125 15.167969 32.234375 C 15.167969 32.296875 14.25 32.859375 14.144531 32.859375 C 14.125 32.859375 14.035156 32.746094 13.953125 32.609375 Z M 33.316406 32.578125 C 33.050781 32.425781 32.839844 32.269531 32.839844 32.234375 C 32.839844 32.125 33.078125 31.78125 33.152344 31.78125 C 33.183594 31.78125 33.4375 31.910156 33.714844 32.074219 L 34.214844 32.363281 L 34.058594 32.609375 C 33.96875 32.746094 33.875 32.855469 33.847656 32.855469 C 33.824219 32.855469 33.582031 32.730469 33.316406 32.578125 Z M 13.140625 30.90625 C 13.113281 30.800781 13.074219 30.667969 13.050781 30.605469 C 13.019531 30.519531 13.125 30.453125 13.453125 30.339844 C 13.699219 30.253906 13.957031 30.160156 14.035156 30.128906 C 14.140625 30.089844 14.199219 30.136719 14.292969 30.359375 C 14.355469 30.515625 14.394531 30.65625 14.386719 30.660156 C 14.355469 30.6875 13.246094 31.089844 13.214844 31.089844 C 13.199219 31.089844 13.167969 31.003906 13.140625 30.90625 Z M 34.183594 30.878906 C 33.886719 30.769531 33.636719 30.671875 33.621094 30.660156 C 33.609375 30.65625 33.652344 30.515625 33.71875 30.359375 C 33.8125 30.136719 33.863281 30.089844 33.96875 30.128906 C 34.046875 30.160156 34.308594 30.253906 34.550781 30.339844 C 34.878906 30.453125 34.988281 30.519531 34.953125 30.605469 C 34.933594 30.667969 34.890625 30.800781 34.863281 30.90625 C 34.808594 31.125 34.847656 31.128906 34.183594 30.878906 Z M 12.589844 28.890625 C 12.527344 28.558594 12.578125 28.511719 13.15625 28.4375 C 13.390625 28.410156 13.621094 28.371094 13.671875 28.347656 C 13.765625 28.316406 13.910156 28.839844 13.832031 28.917969 C 13.800781 28.941406 12.761719 29.167969 12.65625 29.171875 C 12.644531 29.171875 12.613281 29.046875 12.589844 28.890625 Z M 34.699219 29.058594 C 34.433594 29.003906 34.199219 28.941406 34.175781 28.917969 C 34.09375 28.839844 34.238281 28.3125 34.332031 28.347656 C 34.386719 28.371094 34.621094 28.410156 34.847656 28.4375 C 35.082031 28.46875 35.316406 28.519531 35.371094 28.550781 C 35.496094 28.628906 35.410156 29.171875 35.277344 29.160156 C 35.222656 29.15625 34.964844 29.109375 34.699219 29.058594 Z M 23.199219 28.683594 C 22.734375 28.464844 22.375 28.109375 22.160156 27.660156 L 22.003906 27.328125 L 20.699219 27.328125 L 20.699219 26.328125 L 22.050781 26.328125 L 22.140625 26.078125 C 22.5 25.082031 23.894531 24.542969 24.871094 25.011719 C 25.269531 25.207031 25.734375 25.683594 25.894531 26.066406 L 26.003906 26.328125 L 31.378906 26.328125 L 31.378906 27.328125 L 26 27.328125 L 25.84375 27.660156 C 25.503906 28.378906 24.769531 28.859375 24.003906 28.859375 C 23.71875 28.859375 23.453125 28.800781 23.199219 28.683594 Z M 24.515625 27.714844 C 25.089844 27.363281 25.160156 26.574219 24.667969 26.121094 C 24.433594 25.902344 24.332031 25.863281 24.003906 25.863281 C 23.671875 25.863281 23.578125 25.902344 23.34375 26.121094 C 22.671875 26.734375 23.097656 27.863281 24.003906 27.863281 C 24.152344 27.863281 24.378906 27.796875 24.515625 27.714844 Z M 12.402344 26.863281 L 12.402344 26.558594 L 13.707031 26.558594 L 13.707031 27.171875 L 12.402344 27.171875 Z M 34.296875 26.863281 L 34.296875 26.558594 L 35.605469 26.558594 L 35.605469 27.171875 L 34.296875 27.171875 Z M 13.140625 25.265625 L 12.535156 25.15625 L 12.582031 24.886719 C 12.605469 24.738281 12.640625 24.605469 12.65625 24.589844 C 12.671875 24.574219 12.949219 24.597656 13.277344 24.652344 C 13.902344 24.746094 13.933594 24.78125 13.796875 25.21875 C 13.75 25.371094 13.734375 25.375 13.140625 25.265625 Z M 34.191406 25.28125 C 34.167969 25.21875 34.144531 25.0625 34.144531 24.941406 C 34.144531 24.734375 34.167969 24.722656 34.683594 24.636719 C 34.980469 24.589844 35.269531 24.5625 35.328125 24.582031 C 35.40625 24.613281 35.550781 25.171875 35.480469 25.171875 C 35.472656 25.171875 35.191406 25.222656 34.859375 25.292969 C 34.53125 25.355469 34.253906 25.40625 34.25 25.40625 C 34.246094 25.40625 34.21875 25.347656 34.191406 25.28125 Z M 13.59375 23.425781 C 13.296875 23.316406 13.042969 23.21875 13.03125 23.207031 C 12.984375 23.175781 13.199219 22.640625 13.253906 22.640625 C 13.308594 22.640625 14.347656 23.019531 14.378906 23.058594 C 14.40625 23.078125 14.175781 23.640625 14.152344 23.628906 C 14.140625 23.628906 13.890625 23.535156 13.59375 23.425781 Z M 33.691406 23.359375 C 33.636719 23.207031 33.621094 23.058594 33.65625 23.027344 C 33.746094 22.949219 34.597656 22.640625 34.71875 22.640625 C 34.808594 22.640625 34.988281 23.003906 34.988281 23.175781 C 34.988281 23.222656 33.933594 23.636719 33.824219 23.636719 C 33.800781 23.636719 33.746094 23.515625 33.691406 23.359375 Z M 32.925781 21.722656 L 32.761719 21.421875 L 33.28125 21.136719 C 33.5625 20.980469 33.824219 20.839844 33.847656 20.824219 C 33.894531 20.796875 34.25 21.339844 34.203125 21.371094 C 34.191406 21.375 34.050781 21.457031 33.894531 21.550781 C 33.734375 21.640625 33.488281 21.785156 33.347656 21.871094 L 33.09375 22.019531 Z M 14.34375 21.667969 C 14.078125 21.519531 13.859375 21.355469 13.863281 21.308594 C 13.863281 21.261719 13.921875 21.125 13.996094 21.015625 L 14.128906 20.808594 L 14.59375 21.078125 C 14.84375 21.222656 15.082031 21.375 15.113281 21.40625 C 15.183594 21.472656 14.972656 21.949219 14.878906 21.941406 C 14.847656 21.941406 14.605469 21.816406 14.34375 21.667969 Z M 15.410156 20.09375 C 14.96875 19.722656 14.941406 19.6875 15.035156 19.542969 C 15.261719 19.203125 15.355469 19.207031 15.8125 19.597656 C 16.046875 19.800781 16.238281 19.988281 16.238281 20.015625 C 16.238281 20.042969 16.160156 20.160156 16.066406 20.277344 L 15.894531 20.484375 Z M 31.910156 20.265625 C 31.816406 20.140625 31.738281 20.027344 31.734375 20.003906 C 31.730469 19.984375 31.9375 19.792969 32.203125 19.574219 L 32.683594 19.171875 L 32.875 19.386719 C 32.980469 19.503906 33.0625 19.625 33.066406 19.65625 C 33.066406 19.714844 32.1875 20.488281 32.121094 20.488281 C 32.09375 20.488281 32 20.386719 31.910156 20.265625 Z M 16.714844 18.699219 L 16.3125 18.222656 L 16.515625 18.046875 C 16.625 17.953125 16.746094 17.875 16.78125 17.875 C 16.863281 17.875 17.546875 18.671875 17.546875 18.769531 C 17.546875 18.8125 17.453125 18.917969 17.328125 19.011719 L 17.109375 19.171875 Z M 30.613281 18.984375 L 30.378906 18.78125 L 30.609375 18.5 C 30.734375 18.347656 30.925781 18.121094 31.03125 17.988281 L 31.222656 17.761719 L 31.707031 18.246094 L 31.300781 18.714844 C 31.078125 18.972656 30.886719 19.183594 30.875 19.183594 C 30.863281 19.183594 30.746094 19.09375 30.613281 18.984375 Z M 18.25 17.5625 L 17.9375 17.027344 L 18.1875 16.875 C 18.324219 16.792969 18.449219 16.722656 18.46875 16.722656 C 18.546875 16.730469 19.082031 17.738281 19.042969 17.808594 C 19.019531 17.84375 18.902344 17.925781 18.78125 17.988281 L 18.5625 18.105469 Z M 29.128906 17.964844 C 29.015625 17.894531 28.921875 17.808594 28.921875 17.765625 C 28.921875 17.652344 29.484375 16.722656 29.558594 16.722656 C 29.644531 16.722656 30.074219 16.972656 30.074219 17.027344 C 30.066406 17.128906 29.488281 18.058594 29.417969 18.074219 C 29.375 18.082031 29.25 18.035156 29.128906 17.964844 Z M 27.515625 17.203125 C 27.355469 17.140625 27.234375 17.046875 27.25 17 C 27.269531 16.953125 27.363281 16.683594 27.46875 16.394531 C 27.660156 15.84375 27.640625 15.855469 28.128906 16.042969 L 28.300781 16.105469 L 28.105469 16.625 C 27.824219 17.363281 27.847656 17.339844 27.515625 17.203125 Z M 20.125 17.167969 C 20.105469 17.113281 20.015625 16.863281 19.925781 16.621094 C 19.746094 16.128906 19.769531 16.0625 20.128906 15.988281 C 20.355469 15.941406 20.359375 15.949219 20.5625 16.519531 L 20.765625 17.09375 L 20.53125 17.175781 C 20.222656 17.285156 20.167969 17.28125 20.125 17.167969 Z M 21.890625 16.691406 C 21.792969 16.347656 21.699219 15.621094 21.75 15.574219 C 21.785156 15.542969 21.921875 15.496094 22.058594 15.46875 L 22.300781 15.421875 L 22.390625 15.980469 C 22.441406 16.28125 22.484375 16.566406 22.496094 16.605469 C 22.511719 16.714844 21.921875 16.800781 21.890625 16.691406 Z M 25.671875 16.746094 C 25.558594 16.730469 25.464844 16.6875 25.464844 16.660156 C 25.464844 16.53125 25.683594 15.480469 25.714844 15.449219 C 25.738281 15.425781 25.878906 15.433594 26.03125 15.457031 C 26.34375 15.515625 26.34375 15.515625 26.21875 16.265625 C 26.125 16.828125 26.140625 16.816406 25.671875 16.746094 Z M 23.699219 15.964844 L 23.699219 15.359375 L 23.9375 15.3125 C 24.066406 15.285156 24.207031 15.265625 24.246094 15.265625 C 24.28125 15.265625 24.3125 15.558594 24.3125 15.917969 L 24.3125 16.566406 L 23.699219 16.566406 Z M 23.003906 10.488281 C 23.003906 10.128906 23.199219 10.042969 23.988281 10.042969 C 24.792969 10.042969 25 10.128906 25 10.472656 C 25 10.652344 25.015625 10.65625 25.792969 10.652344 C 26.753906 10.652344 27.078125 10.566406 27.46875 10.214844 C 27.988281 9.746094 28.167969 9.199219 27.996094 8.578125 C 27.878906 8.136719 27.3125 7.558594 26.886719 7.4375 C 26.472656 7.324219 21.542969 7.316406 21.136719 7.433594 C 20.808594 7.527344 20.285156 7.957031 20.121094 8.277344 C 19.8125 8.875 19.925781 9.574219 20.417969 10.09375 C 20.84375 10.542969 21.171875 10.644531 22.175781 10.652344 C 22.972656 10.65625 23.003906 10.644531 23.003906 10.488281 Z M 23.003906 10.488281 "/>
</g>
</svg>
