<?xml version="1.0" encoding="UTF-8"?>
<svg xmlns="http://www.w3.org/2000/svg" xmlns:xlink="http://www.w3.org/1999/xlink" width="48pt" height="48pt" viewBox="0 0 48 48" version="1.1">
<g id="surface1">
<path style=" stroke:none;fill-rule:evenodd;fill:rgb(98.823529%,78.039216%,20%);fill-opacity:1;" d="M 11.207031 2.847656 L 36.792969 2.847656 C 41.40625 2.847656 45.152344 6.59375 45.152344 11.207031 L 45.152344 36.792969 C 45.152344 41.40625 41.40625 45.152344 36.792969 45.152344 L 11.207031 45.152344 C 6.59375 45.152344 2.847656 41.40625 2.847656 36.792969 L 2.847656 11.207031 C 2.847656 6.59375 6.59375 2.847656 11.207031 2.847656 Z M 11.207031 2.847656 "/>
<path style=" stroke:none;fill-rule:nonzero;fill:rgb(100%,100%,100%);fill-opacity:1;" d="M 26.441406 33.109375 C 32.277344 30.988281 37.082031 29.222656 37.121094 29.1875 C 37.207031 29.109375 36.683594 27.691406 36.363281 27.152344 C 35.84375 26.261719 35.339844 25.855469 34.328125 25.511719 C 33.355469 25.183594 32.609375 24.636719 32.078125 23.863281 C 31.796875 23.453125 31.09375 21.832031 30.265625 19.675781 C 29.21875 16.941406 28.472656 15.738281 27.171875 14.671875 C 25.75 13.5 24.433594 13.035156 22.269531 12.949219 L 20.972656 12.890625 L 20.671875 12.277344 C 20.308594 11.527344 20.214844 11.410156 19.796875 11.199219 C 18.683594 10.628906 17.25 11.613281 17.433594 12.824219 C 17.457031 13.03125 17.546875 13.34375 17.613281 13.511719 C 17.800781 13.964844 17.714844 14.160156 17.109375 14.652344 C 14.910156 16.40625 13.902344 18.609375 14.046875 21.300781 C 14.113281 22.59375 14.1875 22.886719 15.21875 25.972656 C 16.246094 29.046875 16.296875 29.269531 16.25 30.316406 C 16.214844 31.175781 16.136719 31.390625 15.378906 32.769531 C 15.109375 33.253906 15.097656 33.328125 15.097656 34.191406 C 15.097656 35.035156 15.125 35.183594 15.433594 36.035156 C 15.613281 36.546875 15.78125 36.964844 15.796875 36.964844 C 15.816406 36.964844 20.605469 35.230469 26.441406 33.109375 Z M 27.546875 36.574219 C 28.480469 36.316406 29.433594 35.5 29.921875 34.546875 C 30.203125 33.988281 30.375 33.421875 30.261719 33.421875 C 30.144531 33.421875 23.925781 35.683594 23.84375 35.753906 C 23.753906 35.839844 24.503906 36.316406 25 36.488281 C 25.816406 36.78125 26.691406 36.808594 27.546875 36.574219 Z M 27.546875 36.574219 "/>
</g>
</svg>
