<?xml version="1.0" encoding="UTF-8"?>
<svg xmlns="http://www.w3.org/2000/svg" xmlns:xlink="http://www.w3.org/1999/xlink" width="48pt" height="48pt" viewBox="0 0 48 48" version="1.1">
<g id="surface1">
<path style=" stroke:none;fill-rule:evenodd;fill:rgb(71.764706%,71.764706%,71.764706%);fill-opacity:1;" d="M 11.207031 2.847656 L 36.792969 2.847656 C 41.40625 2.847656 45.152344 6.59375 45.152344 11.207031 L 45.152344 36.792969 C 45.152344 41.40625 41.40625 45.152344 36.792969 45.152344 L 11.207031 45.152344 C 6.59375 45.152344 2.847656 41.40625 2.847656 36.792969 L 2.847656 11.207031 C 2.847656 6.59375 6.59375 2.847656 11.207031 2.847656 Z M 11.207031 2.847656 "/>
<path style=" stroke:none;fill-rule:nonzero;fill:rgb(40%,40%,40%);fill-opacity:1;" d="M 18 36.8125 L 15 33.8125 L 9 33.8125 L 9 12.8125 L 39 12.8125 L 39 33.8125 L 33 33.8125 L 30 36.8125 Z M 18 36.8125 "/>
<path style=" stroke:none;fill-rule:nonzero;fill:rgb(97.254902%,76.862745%,30.588235%);fill-opacity:1;" d="M 13.5 15.8125 L 16.5 15.8125 L 16.5 12.8125 L 13.5 12.8125 Z M 13.5 15.8125 "/>
<path style=" stroke:none;fill-rule:nonzero;fill:rgb(97.254902%,76.862745%,30.588235%);fill-opacity:1;" d="M 18 15.8125 L 21 15.8125 L 21 12.8125 L 18 12.8125 Z M 18 15.8125 "/>
<path style=" stroke:none;fill-rule:nonzero;fill:rgb(97.254902%,76.862745%,30.588235%);fill-opacity:1;" d="M 22.5 15.8125 L 25.5 15.8125 L 25.5 12.8125 L 22.5 12.8125 Z M 22.5 15.8125 "/>
<path style=" stroke:none;fill-rule:nonzero;fill:rgb(97.254902%,76.862745%,30.588235%);fill-opacity:1;" d="M 27 15.8125 L 30 15.8125 L 30 12.8125 L 27 12.8125 Z M 27 15.8125 "/>
<path style=" stroke:none;fill-rule:nonzero;fill:rgb(97.254902%,76.862745%,30.588235%);fill-opacity:1;" d="M 31.5 15.8125 L 34.5 15.8125 L 34.5 12.8125 L 31.5 12.8125 Z M 31.5 15.8125 "/>
</g>
</svg>
