<?xml version="1.0" encoding="UTF-8"?>
<svg xmlns="http://www.w3.org/2000/svg" xmlns:xlink="http://www.w3.org/1999/xlink" width="48pt" height="48pt" viewBox="0 0 48 48" version="1.1">
<defs>
<linearGradient id="linear0" gradientUnits="userSpaceOnUse" x1="18.033899" y1="-8.271187" x2="17.634579" y2="6.68057" gradientTransform="matrix(1.5,0,0,1.5,-2.223905,17.186192)">
<stop offset="0" style="stop-color:rgb(100%,62.745098%,0.392157%);stop-opacity:1;"/>
<stop offset="1" style="stop-color:rgb(100%,49.803922%,0.392157%);stop-opacity:0;"/>
</linearGradient>
<linearGradient id="linear1" gradientUnits="userSpaceOnUse" x1="14.169707" y1="35.254238" x2="14.447506" y2="26.193838" gradientTransform="matrix(1.5,0,0,1.5,-0.562524,-8.09788)">
<stop offset="0" style="stop-color:rgb(97.254902%,69.803922%,28.627451%);stop-opacity:1;"/>
<stop offset="1" style="stop-color:rgb(97.254902%,69.803922%,28.627451%);stop-opacity:0;"/>
</linearGradient>
</defs>
<g id="surface1">
<path style=" stroke:none;fill-rule:evenodd;fill:rgb(26.666667%,22.352941%,9.803922%);fill-opacity:1;" d="M 11.222656 2.847656 L 36.800781 2.847656 C 41.421875 2.847656 45.167969 6.59375 45.167969 11.207031 L 45.167969 36.792969 C 45.167969 41.40625 41.421875 45.152344 36.800781 45.152344 L 11.222656 45.152344 C 6.605469 45.152344 2.859375 41.40625 2.859375 36.792969 L 2.859375 11.207031 C 2.859375 6.59375 6.605469 2.847656 11.222656 2.847656 Z M 11.222656 2.847656 "/>
<path style=" stroke:none;fill-rule:evenodd;fill:rgb(100%,85.882353%,37.647059%);fill-opacity:1;" d="M 11.222656 2.847656 L 36.800781 2.847656 C 41.421875 2.847656 45.167969 6.59375 45.167969 11.207031 L 45.167969 36.792969 C 45.167969 41.40625 41.421875 45.152344 36.800781 45.152344 L 11.222656 45.152344 C 6.605469 45.152344 2.859375 41.40625 2.859375 36.792969 L 2.859375 11.207031 C 2.859375 6.59375 6.605469 2.847656 11.222656 2.847656 Z M 11.222656 2.847656 "/>
<path style=" stroke:none;fill-rule:evenodd;fill:url(#linear0);" d="M 11.222656 2.847656 L 36.800781 2.847656 C 41.421875 2.847656 45.167969 6.59375 45.167969 11.207031 L 45.167969 36.792969 C 45.167969 41.40625 41.421875 45.152344 36.800781 45.152344 L 11.222656 45.152344 C 6.605469 45.152344 2.859375 41.40625 2.859375 36.792969 L 2.859375 11.207031 C 2.859375 6.59375 6.605469 2.847656 11.222656 2.847656 Z M 11.222656 2.847656 "/>
<path style=" stroke:none;fill-rule:nonzero;fill:rgb(44.313725%,38.823529%,0%);fill-opacity:1;" d="M 26.035156 12.808594 C 23.097656 12.808594 20.71875 15.140625 20.71875 18.019531 C 20.71875 19.328125 21.21875 20.582031 22.125 21.546875 C 21.628906 22.300781 21.363281 23.207031 21.359375 24.128906 C 21.359375 26.613281 23.230469 28.625 25.53125 28.625 C 26.6875 28.625 27.785156 28.109375 28.574219 27.199219 C 28.863281 27.378906 29.191406 27.472656 29.519531 27.472656 C 30.53125 27.472656 31.386719 26.613281 31.546875 25.441406 C 32.199219 25.738281 32.90625 25.890625 33.621094 25.894531 C 36.421875 25.894531 38.691406 23.625 38.691406 20.824219 C 38.691406 18.027344 36.421875 15.753906 33.621094 15.753906 C 32.734375 15.753906 31.863281 15.996094 31.097656 16.4375 C 30.394531 14.277344 28.347656 12.808594 26.035156 12.808594 Z M 26.035156 12.808594 "/>
<path style=" stroke:none;fill-rule:nonzero;fill:rgb(30.196078%,22.745098%,0.784314%);fill-opacity:1;" d="M 31.996094 29.738281 C 31.957031 29.578125 31.6875 28.683594 31.6875 28.683594 C 30.984375 27.316406 30.011719 26.347656 28.972656 25.464844 C 25.171875 26.046875 24.828125 27.019531 24.230469 27.207031 L 23.90625 27.082031 C 24.828125 26.027344 26.191406 25.792969 27.390625 25.25 L 25.089844 24.386719 L 25.160156 24.042969 L 28.46875 25.105469 C 28.347656 24.589844 27.707031 24.074219 27.121094 23.558594 L 27.425781 23.269531 C 27.9375 23.765625 28.472656 24.359375 28.9375 24.722656 C 29.785156 25.84375 30.640625 26.214844 31.488281 26.953125 L 31.546875 25.441406 C 29.816406 23.777344 28.339844 23.082031 26.996094 22.949219 L 26.871094 22.605469 C 28.042969 22.902344 29.027344 22.894531 30.734375 24.042969 C 30.246094 23.402344 29.828125 22.621094 29.53125 21.597656 L 29.875 21.527344 C 30.265625 23.082031 30.878906 23.621094 31.402344 24.421875 C 31.421875 21.871094 31.878906 20.441406 32.371094 19.121094 L 32.765625 19.480469 C 31.082031 23.160156 32.40625 26.96875 33.394531 28.984375 Z M 31.996094 29.738281 "/>
<path style=" stroke:none;fill-rule:evenodd;fill:rgb(100%,98.431373%,62.745098%);fill-opacity:1;" d="M 31.71875 45.125 L 37.167969 33.941406 L 27.152344 32.160156 L 17.03125 30.589844 L 17.128906 30.230469 L 12.425781 30.203125 L 20.640625 32.109375 L 12.761719 32.921875 L 12.199219 34.550781 L 18.558594 36.128906 L 4.421875 39.484375 L 7.15625 43.015625 C 7.332031 43.027344 10.390625 45.089844 10.566406 45.089844 Z M 31.71875 45.125 "/>
<path style=" stroke:none;fill-rule:evenodd;fill:url(#linear1);" d="M 31.71875 45.125 L 37.167969 33.941406 L 27.152344 32.160156 L 17.03125 30.589844 L 17.128906 30.230469 L 12.425781 30.203125 L 20.640625 32.109375 L 12.761719 32.921875 L 12.199219 34.550781 L 18.558594 36.128906 L 4.421875 39.484375 L 7.15625 43.015625 C 7.332031 43.027344 10.355469 45.125 10.535156 45.125 C 15.828125 45.1875 24.65625 45.125 31.71875 45.125 Z M 31.71875 45.125 "/>
<path style=" stroke:none;fill-rule:nonzero;fill:rgb(99.607843%,69.803922%,0.784314%);fill-opacity:1;" d="M 12.84375 30.566406 L 31.875 30.894531 L 31.828125 29.394531 L 26.484375 29.140625 L 25.6875 28.457031 L 24.890625 29.113281 L 23.53125 28.878906 L 21.9375 29.769531 L 18.871094 28.578125 L 18.214844 28.90625 L 17.765625 29.28125 L 16.105469 29.375 Z M 12.84375 30.566406 "/>
<path style=" stroke:none;fill-rule:evenodd;fill:rgb(86.27451%,72.941176%,26.666667%);fill-opacity:1;" d="M 13.605469 34.238281 L 15.167969 34.738281 C 15.167969 34.738281 14.246094 34 14.203125 33.753906 C 14.160156 33.511719 14.21875 33.199219 14.59375 32.9375 C 15.355469 32.410156 21.863281 32.621094 21.808594 32.378906 C 21.753906 32.140625 12.792969 30.324219 10.691406 29.589844 C 10.3125 29.300781 7.984375 28.902344 6.410156 28.734375 C 5.636719 28.453125 3.765625 27.847656 2.84375 27.890625 L 2.84375 33.34375 C 4.671875 33.324219 6.347656 33.277344 8.988281 33.394531 C 10.527344 33.582031 12.066406 33.972656 13.605469 34.238281 Z M 13.605469 34.238281 "/>
<path style=" stroke:none;fill-rule:evenodd;fill:rgb(76.078431%,64.705882%,14.509804%);fill-opacity:1;" d="M 4.421875 39.484375 C 9.859375 38.207031 13.71875 37.542969 19.3125 36.34375 C 19.144531 36.019531 18.808594 35.503906 17.441406 35.214844 C 14.515625 34.285156 11.917969 33.796875 8.988281 33.394531 C 6.488281 33.265625 4.574219 33.324219 2.84375 33.34375 C 2.863281 35.113281 2.738281 37.332031 3.011719 38.328125 Z M 4.421875 39.484375 "/>
<path style=" stroke:none;fill-rule:evenodd;fill:rgb(24.705882%,20%,1.176471%);fill-opacity:1;" d="M 10.707031 45.136719 L 11.378906 44.433594 C 11.75 44.121094 11.886719 43.824219 11.878906 43.535156 C 11.871094 43.246094 11.722656 42.964844 11.527344 42.683594 C 8.855469 41.109375 6.238281 39.78125 3.671875 38.609375 C 3.421875 38.496094 3.261719 38.433594 3.011719 38.328125 C 3.683594 42.074219 6.75 45.015625 10.707031 45.136719 Z M 10.707031 45.136719 "/>
<path style=" stroke:none;fill-rule:nonzero;fill:rgb(86.27451%,72.941176%,26.666667%);fill-opacity:1;" d="M 24.324219 32.1875 C 26.792969 32.964844 29.359375 33.449219 32.160156 33.175781 L 34.640625 30.191406 C 29.300781 30.078125 26.167969 30.863281 24.324219 32.1875 Z M 24.324219 32.1875 "/>
<path style=" stroke:none;fill-rule:evenodd;fill:rgb(26.666667%,22.352941%,9.803922%);fill-opacity:1;" d="M 45.167969 28.285156 L 44.578125 28.527344 C 43.980469 28.171875 43.4375 28.402344 42.65625 28.5 C 42.074219 28.191406 40.121094 27.71875 38.675781 27.457031 C 37.722656 26.765625 36.410156 26.796875 35.152344 26.722656 C 33.988281 27.28125 31.96875 28.21875 31.652344 28.769531 L 30.21875 30.191406 C 29.832031 30.910156 29.855469 31.113281 30.300781 31.871094 C 29.917969 32.136719 29.316406 32.636719 28.847656 33.175781 C 28.378906 33.71875 28.042969 34.300781 28.171875 34.753906 L 28.828125 35.34375 C 27.1875 36.707031 26.394531 37.886719 25.324219 39.765625 C 25.324219 39.765625 25.035156 40.0625 25.175781 40.425781 C 25.265625 40.652344 25.925781 41.222656 26.113281 41.480469 C 26.390625 41.855469 26.222656 41.90625 26.378906 42.15625 L 28.480469 45.140625 L 36.800781 45.140625 C 41.433594 45.140625 45.167969 41.417969 45.167969 36.78125 Z M 45.167969 28.285156 "/>
<path style=" stroke:none;fill-rule:evenodd;fill:rgb(17.254902%,10.980392%,5.098039%);fill-opacity:1;" d="M 39.285156 44.714844 C 36.953125 43.578125 32.261719 40.65625 32.605469 40.863281 C 32.984375 41.09375 34.332031 45.003906 34.332031 45.003906 C 34.332031 45.003906 30.3125 40.480469 29.449219 39.667969 C 28.582031 38.855469 29.222656 39.058594 27.902344 38.878906 C 27.238281 38.792969 27.027344 38.972656 26.910156 39.265625 C 26.792969 39.558594 26.769531 39.957031 26.480469 40.300781 C 26.183594 40.644531 26.183594 40.644531 25.996094 40.582031 C 25.96875 40.574219 25.792969 40.578125 25.753906 40.566406 C 25.957031 40.832031 26.390625 41.246094 26.550781 41.464844 C 26.828125 41.839844 26.65625 41.890625 26.816406 42.136719 L 28.78125 44.933594 L 28.972656 45.125 L 37.238281 45.125 C 37.964844 45.125 38.613281 44.890625 39.285156 44.714844 Z M 39.285156 44.714844 "/>
<path style=" stroke:none;fill-rule:evenodd;fill:rgb(17.254902%,10.980392%,5.098039%);fill-opacity:1;" d="M 28.652344 35.378906 L 28.738281 35.488281 C 28.738281 35.488281 29.671875 34.609375 30.449219 34.300781 C 31.21875 33.996094 32.246094 34.355469 32.246094 34.355469 C 32.246094 34.355469 32.386719 34.121094 34.078125 34.230469 C 35.765625 34.339844 40.03125 35.828125 40.03125 35.828125 C 40.03125 35.828125 37.816406 33.980469 35.910156 33.113281 C 34.957031 32.6875 34.078125 32.558594 33.433594 32.542969 C 32.792969 32.519531 32.390625 32.613281 32.390625 32.613281 L 28.558594 33.699219 C 28.421875 33.980469 28.140625 34.285156 28.203125 34.519531 L 28.863281 35.109375 C 28.765625 35.191406 28.746094 35.296875 28.652344 35.378906 Z M 28.652344 35.378906 "/>
<path style=" stroke:none;fill-rule:nonzero;fill:rgb(26.666667%,22.352941%,9.803922%);fill-opacity:1;" d="M 19.847656 44.777344 C 20.449219 44.953125 21.042969 45.144531 21.699219 45.144531 L 34.089844 45.144531 L 26.78125 41.640625 C 25.332031 41.765625 23.890625 41.542969 22.449219 42.109375 C 20.953125 42.785156 20.597656 43.292969 19.847656 43.859375 C 19.589844 44.28125 19.703125 44.53125 19.847656 44.777344 Z M 19.847656 44.777344 "/>
<path style=" stroke:none;fill-rule:evenodd;fill:rgb(31.764706%,29.411765%,0.392157%);fill-opacity:1;" d="M 28.65625 2.847656 C 28.628906 2.871094 28.605469 2.894531 28.578125 2.917969 C 28.425781 3.074219 28.285156 3.238281 28.152344 3.40625 C 28.015625 3.578125 27.886719 3.753906 27.769531 3.9375 C 27.6875 4.0625 27.609375 4.199219 27.535156 4.332031 C 27.433594 4.519531 27.339844 4.71875 27.253906 4.921875 C 27.167969 5.121094 27.09375 5.324219 27.03125 5.53125 C 26.96875 5.738281 26.917969 5.953125 26.875 6.167969 C 26.832031 6.378906 26.800781 6.59375 26.785156 6.8125 C 26.765625 7.03125 26.753906 7.246094 26.753906 7.464844 C 26.761719 7.683594 26.777344 7.90625 26.796875 8.121094 C 26.824219 8.339844 26.859375 8.558594 26.90625 8.769531 C 26.921875 8.863281 26.941406 8.953125 26.96875 9.046875 C 26.808594 9.136719 26.652344 9.230469 26.496094 9.332031 C 26.34375 9.433594 26.191406 9.542969 26.050781 9.660156 C 25.90625 9.777344 25.769531 9.902344 25.640625 10.03125 C 25.503906 10.160156 25.378906 10.296875 25.253906 10.441406 C 25.136719 10.582031 25.027344 10.734375 24.917969 10.886719 C 24.8125 11.042969 24.714844 11.203125 24.621094 11.363281 C 24.605469 11.386719 24.59375 11.410156 24.582031 11.433594 C 24.488281 11.597656 24.410156 11.765625 24.339844 11.9375 C 24.265625 12.109375 24.199219 12.285156 24.140625 12.464844 C 24.082031 12.640625 24.03125 12.824219 23.988281 13.003906 C 23.953125 13.183594 23.921875 13.363281 23.894531 13.550781 C 23.875 13.734375 23.859375 13.921875 23.855469 14.105469 C 23.847656 14.285156 23.855469 14.472656 23.863281 14.65625 C 23.875 14.839844 23.894531 15.019531 23.925781 15.199219 C 23.957031 15.378906 23.996094 15.558594 24.046875 15.730469 C 24.09375 15.90625 24.144531 16.078125 24.214844 16.246094 C 24.277344 16.410156 24.34375 16.574219 24.425781 16.734375 C 24.503906 16.890625 24.59375 17.046875 24.6875 17.191406 C 24.785156 17.34375 24.890625 17.484375 25 17.625 C 25.109375 17.761719 25.222656 17.890625 25.347656 18.015625 C 25.46875 18.140625 25.597656 18.253906 25.734375 18.363281 C 25.871094 18.480469 26.011719 18.578125 26.160156 18.675781 C 26.261719 18.738281 26.363281 18.800781 26.472656 18.863281 C 26.625 18.941406 26.78125 19.019531 26.941406 19.082031 C 27.105469 19.152344 27.269531 19.207031 27.441406 19.253906 C 27.609375 19.308594 27.777344 19.347656 27.949219 19.378906 C 28.121094 19.40625 28.296875 19.433594 28.472656 19.441406 C 28.644531 19.453125 28.824219 19.457031 29 19.453125 C 29.175781 19.441406 29.355469 19.425781 29.53125 19.40625 C 29.707031 19.378906 29.886719 19.34375 30.058594 19.300781 C 30.234375 19.261719 30.40625 19.207031 30.578125 19.152344 C 30.609375 19.136719 30.640625 19.125 30.667969 19.113281 C 30.714844 19.191406 30.761719 19.265625 30.8125 19.339844 C 30.863281 19.40625 30.921875 19.472656 30.980469 19.535156 C 31.035156 19.605469 31.097656 19.660156 31.160156 19.71875 C 31.230469 19.777344 31.296875 19.828125 31.363281 19.878906 C 31.421875 19.917969 31.484375 19.953125 31.546875 19.988281 C 31.621094 20.027344 31.699219 20.0625 31.78125 20.09375 C 31.859375 20.125 31.9375 20.15625 32.019531 20.175781 C 32.105469 20.199219 32.191406 20.21875 32.277344 20.230469 C 32.363281 20.246094 32.449219 20.25 32.535156 20.253906 C 32.625 20.253906 32.714844 20.253906 32.800781 20.25 C 32.890625 20.246094 32.980469 20.234375 33.066406 20.214844 C 33.15625 20.199219 33.246094 20.175781 33.332031 20.15625 C 33.421875 20.128906 33.511719 20.097656 33.597656 20.0625 C 33.6875 20.027344 33.769531 19.988281 33.855469 19.941406 C 33.9375 19.902344 34.019531 19.855469 34.105469 19.800781 C 34.183594 19.75 34.261719 19.691406 34.339844 19.628906 C 34.417969 19.574219 34.488281 19.503906 34.5625 19.4375 C 34.636719 19.371094 34.703125 19.300781 34.769531 19.230469 C 34.839844 19.15625 34.902344 19.078125 34.957031 18.996094 C 34.96875 18.984375 34.972656 18.972656 34.980469 18.964844 C 35.109375 19.136719 35.246094 19.296875 35.390625 19.453125 C 35.53125 19.605469 35.683594 19.753906 35.84375 19.894531 C 36 20.03125 36.167969 20.167969 36.339844 20.285156 C 36.511719 20.410156 36.6875 20.527344 36.871094 20.628906 C 36.910156 20.65625 36.953125 20.675781 36.996094 20.703125 C 37.175781 20.800781 37.371094 20.894531 37.566406 20.980469 C 37.761719 21.058594 37.957031 21.128906 38.160156 21.191406 C 38.363281 21.253906 38.566406 21.308594 38.777344 21.347656 C 38.984375 21.390625 39.191406 21.421875 39.402344 21.441406 C 39.613281 21.464844 39.824219 21.472656 40.035156 21.472656 C 40.246094 21.472656 40.457031 21.464844 40.667969 21.441406 C 40.878906 21.421875 41.089844 21.390625 41.296875 21.347656 C 41.5 21.308594 41.707031 21.253906 41.910156 21.191406 C 42.109375 21.128906 42.3125 21.050781 42.503906 20.972656 C 42.699219 20.890625 42.890625 20.796875 43.078125 20.699219 C 43.261719 20.59375 43.441406 20.484375 43.613281 20.363281 C 43.792969 20.246094 43.957031 20.121094 44.121094 19.980469 C 44.28125 19.84375 44.433594 19.699219 44.582031 19.546875 C 44.730469 19.394531 44.871094 19.234375 45 19.066406 C 45.058594 18.996094 45.113281 18.917969 45.167969 18.832031 L 45.167969 11.214844 C 45.167969 6.578125 41.4375 2.847656 36.800781 2.847656 Z M 28.65625 2.847656 "/>
<path style=" stroke:none;fill-rule:nonzero;fill:rgb(30.196078%,22.745098%,0.784314%);fill-opacity:1;" d="M 36.894531 28.605469 C 35.683594 30.496094 36.378906 26.355469 36.378906 26.355469 C 36.894531 24.796875 34.859375 20.171875 34.730469 19.777344 C 31.269531 18.691406 33.097656 18.839844 32.515625 18.75 L 32.292969 18.503906 C 33.234375 18.621094 34.066406 19.121094 34.980469 18.964844 C 35.089844 18.480469 34.765625 17.777344 34.484375 17.097656 L 34.859375 16.984375 C 35.082031 17.613281 35.292969 18.332031 35.53125 18.839844 C 36.90625 21.90625 36.660156 21.082031 37.074219 22.0625 C 36.933594 19.277344 37.386719 17.660156 38.640625 15.558594 L 40.386719 15.410156 C 37.152344 17.730469 37.800781 26.230469 38.394531 28.546875 Z M 36.894531 28.605469 "/>
</g>
</svg>
