<?xml version="1.0" encoding="UTF-8"?>
<svg xmlns="http://www.w3.org/2000/svg" xmlns:xlink="http://www.w3.org/1999/xlink" width="48pt" height="48pt" viewBox="0 0 48 48" version="1.1">
<g id="surface1">
<path style=" stroke:none;fill-rule:evenodd;fill:rgb(16.078431%,50.196078%,61.176471%);fill-opacity:1;" d="M 44.902344 38.035156 L 3.097656 38.035156 C 3.71875 42.046875 7.019531 45.152344 11.214844 45.152344 L 36.792969 45.152344 C 40.980469 45.152344 44.28125 42.046875 44.902344 38.035156 Z M 44.902344 38.035156 "/>
<path style=" stroke:none;fill-rule:evenodd;fill:rgb(29.019608%,70.196078%,89.411765%);fill-opacity:1;" d="M 11.214844 2.847656 C 6.578125 2.847656 2.847656 6.578125 2.847656 11.214844 L 2.847656 36.792969 C 2.847656 37.234375 3.035156 37.613281 3.097656 38.035156 L 44.902344 38.035156 C 44.96875 37.613281 45.152344 37.234375 45.152344 36.792969 L 45.152344 11.214844 C 45.152344 6.578125 41.421875 2.847656 36.792969 2.847656 Z M 11.214844 2.847656 "/>
<path style=" stroke:none;fill-rule:nonzero;fill:rgb(100%,100%,100%);fill-opacity:1;" d="M 20.25 24.011719 L 20.25 32.015625 C 20.25 32.566406 20.75 33.011719 21.375 33.011719 L 37.125 33.011719 C 37.75 33.011719 38.25 32.566406 38.25 32.015625 L 38.25 24.011719 Z M 20.25 24.011719 "/>
<path style=" stroke:none;fill-rule:nonzero;fill:rgb(30.980392%,30.980392%,30.980392%);fill-opacity:1;" d="M 21.375 21.011719 L 37.125 21.011719 C 37.75 21.011719 38.25 21.457031 38.25 22.015625 L 38.25 24.011719 L 20.25 24.011719 L 20.25 22.011719 C 20.25 21.457031 20.75 21.011719 21.375 21.011719 Z M 21.375 21.011719 "/>
<path style=" stroke:none;fill-rule:nonzero;fill:rgb(100%,100%,100%);fill-opacity:1;" d="M 10.3125 10.511719 L 13.6875 10.511719 C 14 10.511719 14.25 10.765625 14.25 11.074219 L 14.25 14.449219 C 14.25 14.761719 14 15.011719 13.6875 15.011719 L 10.3125 15.011719 C 10 15.011719 9.75 14.761719 9.75 14.449219 L 9.75 11.074219 C 9.75 10.765625 10 10.511719 10.3125 10.511719 Z M 10.3125 10.511719 "/>
<path style=" stroke:none;fill-rule:nonzero;fill:rgb(100%,100%,100%);fill-opacity:1;" d="M 10.3125 16.511719 L 13.6875 16.511719 C 14 16.511719 14.25 16.765625 14.25 17.074219 L 14.25 20.449219 C 14.25 20.761719 14 21.011719 13.6875 21.011719 L 10.3125 21.011719 C 10 21.011719 9.75 20.761719 9.75 20.449219 L 9.75 17.074219 C 9.75 16.765625 10 16.511719 10.3125 16.511719 Z M 10.3125 16.511719 "/>
<path style=" stroke:none;fill-rule:nonzero;fill:rgb(100%,100%,100%);fill-opacity:1;" d="M 10.3125 22.511719 L 13.6875 22.511719 C 14 22.511719 14.25 22.765625 14.25 23.074219 L 14.25 26.449219 C 14.25 26.761719 14 27.011719 13.6875 27.011719 L 10.3125 27.011719 C 10 27.011719 9.75 26.761719 9.75 26.449219 L 9.75 23.074219 C 9.75 22.765625 10 22.511719 10.3125 22.511719 Z M 10.3125 22.511719 "/>
<path style=" stroke:none;fill-rule:nonzero;fill:rgb(100%,100%,100%);fill-opacity:1;" d="M 10.3125 28.511719 L 13.6875 28.511719 C 14 28.511719 14.25 28.765625 14.25 29.074219 L 14.25 32.449219 C 14.25 32.761719 14 33.011719 13.6875 33.011719 L 10.3125 33.011719 C 10 33.011719 9.75 32.761719 9.75 32.449219 L 9.75 29.074219 C 9.75 28.765625 10 28.511719 10.3125 28.511719 Z M 10.3125 28.511719 "/>
</g>
</svg>
