<?xml version="1.0" encoding="UTF-8"?>
<svg xmlns="http://www.w3.org/2000/svg" xmlns:xlink="http://www.w3.org/1999/xlink" width="48pt" height="48pt" viewBox="0 0 48 48" version="1.1">
<g id="surface1">
<path style=" stroke:none;fill-rule:evenodd;fill:rgb(24.313725%,31.372549%,70.588235%);fill-opacity:1;" d="M 11.207031 2.847656 L 36.792969 2.847656 C 41.40625 2.847656 45.152344 6.59375 45.152344 11.207031 L 45.152344 36.792969 C 45.152344 41.40625 41.40625 45.152344 36.792969 45.152344 L 11.207031 45.152344 C 6.59375 45.152344 2.847656 41.40625 2.847656 36.792969 L 2.847656 11.207031 C 2.847656 6.59375 6.59375 2.847656 11.207031 2.847656 Z M 11.207031 2.847656 "/>
<path style=" stroke:none;fill-rule:nonzero;fill:rgb(100%,100%,100%);fill-opacity:1;" d="M 24 10.5 C 22.34375 10.5 21 11.84375 21 13.5 C 21 15.15625 22.34375 16.5 24 16.5 C 25.65625 16.5 27 15.15625 27 13.5 C 27 11.84375 25.65625 10.5 24 10.5 Z M 13.5 18 L 13.5 19.5 L 21 19.5 L 21 37.5 L 22.5 37.5 L 22.5 28.5 L 25.5 28.5 L 25.5 37.5 L 27 37.5 L 27 19.5 L 34.5 19.5 L 34.5 18 Z M 13.5 18 "/>
</g>
</svg>
