<?xml version="1.0" encoding="UTF-8"?>
<svg xmlns="http://www.w3.org/2000/svg" xmlns:xlink="http://www.w3.org/1999/xlink" width="48pt" height="48pt" viewBox="0 0 48 48" version="1.1">
<g id="surface1">
<path style=" stroke:none;fill-rule:evenodd;fill:rgb(96.078431%,51.764706%,6.666667%);fill-opacity:1;" d="M 11.207031 2.847656 L 36.792969 2.847656 C 41.40625 2.847656 45.152344 6.59375 45.152344 11.207031 L 45.152344 36.792969 C 45.152344 41.40625 41.40625 45.152344 36.792969 45.152344 L 11.207031 45.152344 C 6.59375 45.152344 2.847656 41.40625 2.847656 36.792969 L 2.847656 11.207031 C 2.847656 6.59375 6.59375 2.847656 11.207031 2.847656 Z M 11.207031 2.847656 "/>
<path style=" stroke:none;fill-rule:nonzero;fill:rgb(100%,100%,100%);fill-opacity:1;" d="M 20.871094 15.371094 L 24 17.160156 L 27.128906 15.371094 C 32.332031 15.371094 36.527344 19.597656 36.527344 24.84375 L 36.527344 27.371094 C 36.527344 32.621094 32.332031 36.84375 27.128906 36.84375 L 24 35.949219 L 20.871094 36.84375 C 15.667969 36.84375 11.472656 32.621094 11.472656 27.371094 L 11.472656 24.84375 C 11.472656 19.59375 15.667969 15.371094 20.871094 15.371094 Z M 20.871094 15.371094 "/>
<path style="fill:none;stroke-width:2;stroke-linecap:round;stroke-linejoin:round;stroke:rgb(29.019608%,14.509804%,2.745098%);stroke-opacity:1;stroke-miterlimit:4;" d="M -18.685448 12.114323 C -18.685448 12.114323 -18.779198 9.286198 -17.432844 9.132552 C -16.083885 8.978906 -15.104719 9.728906 -15.104719 9.728906 " transform="matrix(1.5,0,0,1.5,52.028172,-1.011328)"/>
</g>
</svg>
