<?xml version="1.0" encoding="UTF-8"?>
<svg xmlns="http://www.w3.org/2000/svg" xmlns:xlink="http://www.w3.org/1999/xlink" width="48pt" height="48pt" viewBox="0 0 48 48" version="1.1">
<g id="surface1">
<path style=" stroke:none;fill-rule:evenodd;fill:rgb(100%,54.117647%,0%);fill-opacity:1;" d="M 11.207031 2.847656 L 36.792969 2.847656 C 41.40625 2.847656 45.152344 6.59375 45.152344 11.207031 L 45.152344 36.792969 C 45.152344 41.40625 41.40625 45.152344 36.792969 45.152344 L 11.207031 45.152344 C 6.59375 45.152344 2.847656 41.40625 2.847656 36.792969 L 2.847656 11.207031 C 2.847656 6.59375 6.59375 2.847656 11.207031 2.847656 Z M 11.207031 2.847656 "/>
<path style=" stroke:none;fill-rule:evenodd;fill:rgb(100%,100%,100%);fill-opacity:1;" d="M 36.667969 36.667969 L 28.988281 35.019531 L 25.316406 41.957031 L 20.496094 35.765625 L 13.222656 38.71875 L 13.511719 30.875 L 6.042969 28.464844 L 11.308594 22.636719 L 7.128906 15.984375 L 14.910156 14.910156 L 15.984375 7.128906 L 22.636719 11.308594 L 28.464844 6.042969 L 30.875 13.511719 L 38.71875 13.222656 L 35.765625 20.496094 L 41.957031 25.316406 L 35.019531 28.988281 Z M 36.667969 36.667969 "/>
<path style=" stroke:none;fill-rule:evenodd;fill:rgb(100%,54.117647%,0%);fill-opacity:1;" d="M 30.34375 28.890625 L 23.972656 28.894531 L 17.65625 28.890625 L 20.832031 23.542969 L 24 18.238281 L 27.191406 23.582031 Z M 30.34375 28.890625 "/>
</g>
</svg>
