<?xml version="1.0" encoding="UTF-8"?>
<svg xmlns="http://www.w3.org/2000/svg" xmlns:xlink="http://www.w3.org/1999/xlink" width="48pt" height="48pt" viewBox="0 0 48 48" version="1.1">
<g id="surface1">
<path style=" stroke:none;fill-rule:evenodd;fill:rgb(55.686275%,55.686275%,55.686275%);fill-opacity:1;" d="M 11.207031 2.847656 L 36.792969 2.847656 C 41.40625 2.847656 45.152344 6.59375 45.152344 11.207031 L 45.152344 36.792969 C 45.152344 41.40625 41.40625 45.152344 36.792969 45.152344 L 11.207031 45.152344 C 6.59375 45.152344 2.847656 41.40625 2.847656 36.792969 L 2.847656 11.207031 C 2.847656 6.59375 6.59375 2.847656 11.207031 2.847656 Z M 11.207031 2.847656 "/>
<path style=" stroke:none;fill-rule:nonzero;fill:rgb(27.843137%,27.843137%,27.843137%);fill-opacity:1;" d="M 19.316406 7.910156 C 16.972656 7.910156 15.082031 9.800781 15.082031 12.144531 L 15.082031 23.375 C 15.082031 25.722656 16.972656 27.609375 19.316406 27.609375 L 21.605469 27.609375 C 21.796875 29.046875 23.011719 30.152344 24.5 30.152344 L 31.984375 30.152344 C 33.472656 30.152344 34.6875 29.046875 34.878906 27.609375 L 37.167969 27.609375 C 39.511719 27.609375 41.402344 25.722656 41.402344 23.375 L 41.402344 12.144531 C 41.402344 9.800781 39.511719 7.910156 37.167969 7.910156 Z M 19.316406 7.910156 "/>
<path style=" stroke:none;fill-rule:nonzero;fill:rgb(14.901961%,41.568627%,84.313725%);fill-opacity:1;" d="M 19.472656 9.160156 L 37.011719 9.160156 C 38.78125 9.160156 40.21875 10.535156 40.21875 12.238281 L 40.21875 23.285156 C 40.21875 24.984375 38.78125 26.363281 37.011719 26.363281 L 19.472656 26.363281 C 17.703125 26.363281 16.265625 24.984375 16.265625 23.285156 L 16.265625 12.238281 C 16.265625 10.535156 17.703125 9.160156 19.472656 9.160156 Z M 19.472656 9.160156 "/>
<path style=" stroke:none;fill-rule:nonzero;fill:rgb(27.843137%,27.843137%,27.843137%);fill-opacity:1;" d="M 10.832031 17.847656 C 8.488281 17.847656 6.597656 19.738281 6.597656 22.082031 L 6.597656 33.3125 C 6.597656 35.65625 8.488281 37.546875 10.832031 37.546875 L 13.121094 37.546875 C 13.3125 38.984375 14.527344 40.089844 16.015625 40.089844 L 23.5 40.089844 C 24.988281 40.089844 26.203125 38.984375 26.394531 37.546875 L 28.683594 37.546875 C 31.027344 37.546875 32.917969 35.65625 32.917969 33.3125 L 32.917969 22.082031 C 32.917969 19.738281 31.027344 17.847656 28.683594 17.847656 Z M 10.832031 17.847656 "/>
<path style=" stroke:none;fill-rule:nonzero;fill:rgb(100%,74.509804%,27.843137%);fill-opacity:1;" d="M 10.988281 19.09375 L 28.527344 19.09375 C 30.296875 19.09375 31.730469 20.472656 31.730469 22.171875 L 31.730469 33.222656 C 31.730469 34.921875 30.296875 36.300781 28.527344 36.300781 L 10.988281 36.300781 C 9.21875 36.300781 7.78125 34.921875 7.78125 33.222656 L 7.78125 22.171875 C 7.78125 20.472656 9.21875 19.09375 10.988281 19.09375 Z M 10.988281 19.09375 "/>
</g>
</svg>
