<?xml version="1.0" encoding="UTF-8"?>
<svg xmlns="http://www.w3.org/2000/svg" xmlns:xlink="http://www.w3.org/1999/xlink" width="48pt" height="48pt" viewBox="0 0 48 48" version="1.1">
<g id="surface1">
<path style=" stroke:none;fill-rule:evenodd;fill:rgb(11.764706%,51.764706%,21.960784%);fill-opacity:1;" d="M 11.207031 2.847656 L 36.792969 2.847656 C 41.40625 2.847656 45.152344 6.59375 45.152344 11.207031 L 45.152344 36.792969 C 45.152344 41.40625 41.40625 45.152344 36.792969 45.152344 L 11.207031 45.152344 C 6.59375 45.152344 2.847656 41.40625 2.847656 36.792969 L 2.847656 11.207031 C 2.847656 6.59375 6.59375 2.847656 11.207031 2.847656 Z M 11.207031 2.847656 "/>
<path style=" stroke:none;fill-rule:evenodd;fill:rgb(100%,100%,100%);fill-opacity:1;" d="M 27.722656 8.375 L 37.90625 8.375 C 39.359375 8.375 40.53125 9.550781 40.53125 11 L 40.53125 26.730469 C 40.53125 28.183594 39.359375 29.355469 37.90625 29.355469 L 27.722656 29.355469 C 26.277344 29.355469 25.097656 28.183594 25.097656 26.730469 L 25.097656 11 C 25.097656 9.550781 26.277344 8.375 27.722656 8.375 Z M 27.722656 8.375 "/>
<path style=" stroke:none;fill-rule:nonzero;fill:rgb(11.764706%,51.764706%,21.960784%);fill-opacity:1;" d="M 26.136719 19.246094 C 26.136719 17.457031 26.1875 16.800781 26.332031 16.746094 C 26.484375 16.683594 26.472656 16.625 26.300781 16.5 C 26.097656 16.359375 26.105469 16.296875 26.339844 16.035156 C 26.488281 15.871094 26.609375 15.527344 26.609375 15.269531 C 26.605469 14.828125 26.59375 14.816406 26.371094 15.113281 C 26.15625 15.394531 26.136719 15.316406 26.136719 14.269531 C 26.136719 13.261719 26.183594 13.066406 26.527344 12.722656 C 27.078125 12.171875 28.066406 12.171875 28.363281 12.730469 C 28.550781 13.078125 28.542969 13.167969 28.28125 13.453125 C 27.875 13.90625 27.328125 13.8125 27.328125 13.292969 C 27.328125 13.074219 27.421875 12.890625 27.53125 12.890625 C 27.640625 12.890625 27.71875 12.964844 27.714844 13.050781 C 27.703125 13.140625 27.628906 13.191406 27.550781 13.171875 C 27.472656 13.152344 27.410156 13.207031 27.410156 13.300781 C 27.410156 13.394531 27.535156 13.449219 27.6875 13.421875 C 27.84375 13.390625 27.96875 13.222656 27.96875 13.046875 C 27.96875 12.609375 27.324219 12.53125 27.105469 12.949219 C 26.890625 13.339844 27.027344 13.722656 27.449219 13.949219 C 27.871094 14.175781 28.582031 13.667969 28.65625 13.082031 C 28.734375 12.421875 28.15625 11.957031 27.378906 12.0625 C 27.03125 12.109375 26.609375 12.269531 26.441406 12.425781 C 26.140625 12.699219 26.019531 12.578125 26.253906 12.246094 C 26.472656 11.933594 27.355469 11.675781 27.824219 11.785156 C 28.371094 11.917969 28.84375 12.296875 28.84375 12.597656 C 28.84375 12.714844 28.917969 12.8125 29 12.8125 C 29.082031 12.8125 29.121094 12.90625 29.074219 13.019531 C 29.03125 13.136719 29.058594 13.40625 29.140625 13.621094 L 29.285156 14.011719 L 29.402344 13.578125 C 29.472656 13.292969 29.425781 13.03125 29.261719 12.785156 C 28.949219 12.34375 28.925781 12.066406 29.21875 12.3125 C 29.332031 12.410156 29.480469 12.441406 29.535156 12.386719 C 29.589844 12.332031 29.511719 12.191406 29.359375 12.082031 C 29.207031 11.972656 29.136719 11.828125 29.199219 11.765625 C 29.375 11.589844 29.800781 12.015625 29.800781 12.363281 C 29.800781 12.546875 29.886719 12.652344 30 12.609375 C 30.109375 12.574219 30.1875 12.3125 30.175781 12.035156 C 30.15625 11.589844 30.191406 11.546875 30.527344 11.628906 C 30.972656 11.746094 31.59375 11.566406 31.46875 11.363281 C 31.417969 11.285156 31.238281 11.21875 31.066406 11.21875 C 30.609375 11.21875 30.699219 11.011719 31.269531 10.738281 C 31.925781 10.425781 32.09375 10.011719 31.496094 10.160156 C 31.253906 10.222656 31.078125 10.199219 31.078125 10.109375 C 31.078125 9.765625 31.828125 9.5 32.808594 9.5 C 33.605469 9.496094 33.886719 9.5625 34.136719 9.8125 C 34.519531 10.199219 34.417969 10.355469 33.949219 10.105469 C 33.636719 9.9375 33.609375 9.953125 33.65625 10.285156 C 33.691406 10.550781 33.871094 10.714844 34.253906 10.839844 L 34.808594 11.015625 L 34.339844 11.265625 C 33.933594 11.480469 33.90625 11.527344 34.152344 11.625 C 34.308594 11.683594 34.636719 11.691406 34.878906 11.644531 C 35.292969 11.5625 35.316406 11.589844 35.261719 12.003906 C 35.160156 12.675781 35.464844 12.730469 35.832031 12.105469 C 36.152344 11.566406 36.152344 11.546875 35.859375 11.457031 C 35.125 11.222656 34.140625 9.464844 34.746094 9.464844 C 34.832031 9.464844 34.90625 9.636719 34.90625 9.839844 C 34.90625 10.625 36.128906 11.527344 36.9375 11.332031 C 37.25 11.261719 37.074219 11.15625 36.328125 10.996094 C 35.5625 10.828125 34.953125 10.058594 35.234375 9.609375 C 35.347656 9.425781 35.421875 9.453125 35.625 9.746094 C 35.941406 10.191406 36.488281 10.203125 36.953125 9.769531 C 37.234375 9.511719 37.449219 9.457031 38.015625 9.519531 C 38.84375 9.613281 39.09375 9.738281 38.949219 9.980469 C 38.886719 10.078125 38.917969 10.105469 39.015625 10.042969 C 39.253906 9.894531 39.527344 10.441406 39.527344 11.066406 L 39.527344 11.574219 L 39.222656 11.199219 C 39.050781 10.988281 38.863281 10.871094 38.800781 10.933594 C 38.738281 11 38.765625 11.152344 38.863281 11.269531 C 39.199219 11.671875 38.855469 11.6875 38.339844 11.292969 C 37.722656 10.824219 37.5625 10.796875 37.6875 11.199219 C 37.765625 11.441406 37.671875 11.511719 37.125 11.597656 C 36.464844 11.703125 36.019531 12 36.019531 12.332031 C 36.019531 12.433594 36.105469 12.457031 36.207031 12.394531 C 36.339844 12.316406 36.359375 12.375 36.277344 12.589844 C 36.207031 12.753906 36.113281 13.097656 36.0625 13.359375 C 35.988281 13.722656 36.019531 13.800781 36.203125 13.734375 C 36.339844 13.683594 36.519531 13.769531 36.628906 13.941406 C 36.734375 14.109375 36.9375 14.246094 37.078125 14.246094 C 37.265625 14.246094 37.222656 14.15625 36.917969 13.917969 C 36.621094 13.683594 36.5 13.441406 36.503906 13.078125 C 36.511719 12.390625 36.832031 12.015625 37.558594 11.847656 C 38.386719 11.660156 39.527344 12.144531 39.527344 12.675781 L 39.527344 13.042969 L 39.285156 12.699219 C 38.792969 11.988281 37.3125 11.863281 36.972656 12.5 C 36.464844 13.453125 37.511719 14.488281 38.292969 13.800781 C 38.816406 13.34375 38.535156 12.652344 37.824219 12.652344 C 37.535156 12.652344 37.453125 12.738281 37.453125 13.050781 C 37.453125 13.34375 37.542969 13.449219 37.777344 13.449219 C 37.949219 13.449219 38.09375 13.371094 38.09375 13.269531 C 38.09375 13.175781 37.984375 13.140625 37.855469 13.1875 C 37.578125 13.292969 37.527344 13.046875 37.785156 12.878906 C 37.886719 12.824219 38.082031 12.894531 38.230469 13.042969 C 38.472656 13.292969 38.464844 13.332031 38.121094 13.621094 C 37.691406 13.96875 37.230469 13.828125 37.058594 13.300781 C 36.761719 12.359375 38.222656 11.941406 38.980469 12.753906 C 39.191406 12.988281 39.375 13.253906 39.378906 13.355469 C 39.519531 15.160156 39.421875 15.8125 39.128906 15.082031 C 39.03125 14.84375 38.996094 14.859375 38.863281 15.203125 C 38.734375 15.542969 38.777344 15.652344 39.121094 15.925781 C 39.582031 16.296875 39.640625 16.480469 39.285156 16.480469 C 39.15625 16.480469 39.046875 16.519531 39.046875 16.574219 C 39.046875 16.621094 39.15625 16.769531 39.285156 16.902344 C 39.480469 17.089844 39.527344 17.605469 39.527344 19.40625 L 39.527344 21.671875 L 32.832031 21.667969 L 26.136719 21.660156 Z M 29.449219 21.0625 C 29.46875 20.863281 29.515625 20.5625 29.550781 20.386719 C 29.589844 20.207031 29.625 20.035156 29.628906 19.996094 C 29.636719 19.957031 29.746094 20.0625 29.863281 20.234375 C 29.988281 20.402344 30.050781 20.613281 30.003906 20.703125 C 29.953125 20.792969 30.003906 20.777344 30.121094 20.671875 C 30.292969 20.515625 30.292969 20.433594 30.125 20.234375 C 29.949219 20.015625 29.988281 20 30.457031 20.078125 C 30.980469 20.160156 30.984375 20.160156 30.621094 19.941406 C 30.152344 19.660156 29.589844 19.761719 29.214844 20.191406 C 29.050781 20.371094 29.015625 20.46875 29.125 20.40625 C 29.246094 20.332031 29.324219 20.378906 29.324219 20.519531 C 29.324219 20.652344 29.246094 20.78125 29.15625 20.8125 C 28.980469 20.875 29.113281 21.421875 29.308594 21.421875 C 29.363281 21.421875 29.425781 21.261719 29.449219 21.0625 Z M 33.46875 21.183594 C 33.578125 21.050781 33.597656 20.941406 33.503906 20.941406 C 33.421875 20.941406 33.261719 21.050781 33.152344 21.183594 C 33.035156 21.316406 33.019531 21.421875 33.109375 21.421875 C 33.199219 21.421875 33.359375 21.3125 33.46875 21.183594 Z M 34.824219 21.261719 C 34.769531 21.175781 34.808594 21.105469 34.90625 21.105469 C 35.003906 21.105469 35.058594 21.015625 35.015625 20.90625 C 34.972656 20.796875 34.863281 20.722656 34.765625 20.746094 C 34.667969 20.765625 34.582031 20.6875 34.582031 20.566406 C 34.582031 20.417969 34.433594 20.363281 34.105469 20.40625 C 33.84375 20.433594 33.628906 20.390625 33.628906 20.300781 C 33.628906 20.21875 33.699219 20.144531 33.785156 20.144531 C 33.972656 20.144531 33.953125 18.894531 33.761719 18.777344 C 33.691406 18.730469 33.671875 18.808594 33.730469 18.941406 C 33.78125 19.078125 33.75 19.1875 33.667969 19.1875 C 33.394531 19.1875 33.066406 18.675781 33.125 18.347656 C 33.15625 18.15625 33.109375 18.078125 33.003906 18.144531 C 32.683594 18.34375 32.828125 18.859375 33.308594 19.214844 C 33.855469 19.621094 33.972656 19.972656 33.433594 19.597656 C 32.953125 19.261719 32.671875 19.292969 33.082031 19.640625 C 33.265625 19.792969 33.464844 20.109375 33.527344 20.347656 C 33.582031 20.589844 33.6875 20.777344 33.75 20.765625 C 34.144531 20.703125 34.417969 20.824219 34.503906 21.105469 C 34.5625 21.28125 34.675781 21.421875 34.765625 21.421875 C 34.847656 21.421875 34.878906 21.347656 34.824219 21.261719 Z M 36.464844 20.84375 C 36.527344 20.234375 36.042969 19.777344 35.359375 19.792969 C 34.730469 19.8125 34.34375 20.136719 34.910156 20.171875 C 35.125 20.1875 35.464844 20.183594 35.660156 20.167969 C 35.980469 20.140625 36.019531 20.207031 36.019531 20.792969 C 36.019531 21.5625 36.390625 21.605469 36.464844 20.84375 Z M 30.917969 20.933594 C 30.917969 20.84375 30.984375 20.808594 31.066406 20.859375 C 31.144531 20.90625 31.253906 20.878906 31.3125 20.792969 C 31.363281 20.707031 31.53125 20.6875 31.683594 20.738281 C 31.910156 20.828125 31.921875 20.808594 31.75 20.59375 C 31.535156 20.332031 31.019531 20.371094 30.640625 20.667969 C 30.363281 20.878906 30.386719 21.105469 30.675781 21.105469 C 30.808594 21.105469 30.917969 21.027344 30.917969 20.933594 Z M 33.125 20.605469 C 33.277344 20.363281 33.285156 20.21875 33.160156 20.09375 C 33.035156 19.972656 32.988281 20.019531 32.988281 20.277344 C 32.988281 20.46875 32.925781 20.625 32.847656 20.625 C 32.636719 20.625 32.34375 20.207031 32.46875 20.082031 C 32.53125 20.019531 32.457031 20.015625 32.308594 20.078125 C 31.953125 20.214844 31.964844 20.277344 32.390625 20.636719 C 32.847656 21.015625 32.871094 21.011719 33.125 20.605469 Z M 35.542969 20.640625 C 35.542969 20.5625 35.421875 20.453125 35.28125 20.402344 C 35.0625 20.316406 35.050781 20.339844 35.21875 20.542969 C 35.449219 20.816406 35.542969 20.847656 35.542969 20.640625 Z M 28.910156 19.796875 C 29.09375 19.644531 29.480469 19.472656 29.765625 19.417969 C 30.457031 19.28125 30.21875 18.984375 29.199219 18.707031 C 28.121094 18.417969 27.574219 18.109375 27.410156 17.707031 C 27.308594 17.449219 27.265625 17.425781 27.261719 17.625 C 27.253906 17.769531 27.363281 18.003906 27.5 18.140625 C 27.730469 18.371094 27.6875 18.464844 27.371094 18.410156 C 27.300781 18.402344 27.25 18.472656 27.25 18.574219 C 27.25 18.675781 27.421875 18.71875 27.675781 18.667969 C 27.925781 18.621094 28.191406 18.675781 28.328125 18.808594 C 28.515625 19 28.5 19.027344 28.203125 18.988281 C 27.832031 18.949219 27.410156 19.40625 27.625 19.613281 C 27.691406 19.683594 27.796875 19.660156 27.855469 19.574219 C 27.917969 19.480469 28.191406 19.277344 28.46875 19.113281 C 28.941406 18.839844 28.980469 18.839844 29.34375 19.109375 C 29.625 19.316406 29.644531 19.363281 29.421875 19.285156 C 28.957031 19.125 28.363281 19.597656 28.378906 20.109375 C 28.386719 20.359375 28.433594 20.449219 28.484375 20.3125 C 28.53125 20.183594 28.722656 19.953125 28.910156 19.796875 Z M 32.441406 19.667969 C 32.566406 19.667969 32.671875 19.597656 32.671875 19.515625 C 32.671875 19.300781 32.15625 19.496094 31.910156 19.800781 C 31.75 20.003906 31.714844 20.011719 31.714844 19.816406 C 31.714844 19.691406 31.9375 19.402344 32.21875 19.171875 C 32.609375 18.855469 32.691406 18.6875 32.59375 18.453125 C 32.46875 18.167969 32.457031 18.167969 32.390625 18.472656 C 32.355469 18.644531 32.109375 18.988281 31.847656 19.230469 C 31.449219 19.597656 31.40625 19.714844 31.5625 20 L 31.746094 20.339844 L 31.980469 20.003906 C 32.105469 19.816406 32.3125 19.667969 32.441406 19.667969 Z M 37.136719 19.96875 C 37.136719 19.878906 36.90625 19.597656 36.621094 19.339844 C 35.972656 18.75 36.363281 18.703125 37.199219 19.269531 C 37.527344 19.488281 37.824219 19.667969 37.859375 19.667969 C 38.03125 19.667969 37.910156 19.214844 37.691406 19.03125 C 37.339844 18.734375 37.40625 18.589844 37.855469 18.671875 C 38.089844 18.71875 38.25 18.675781 38.25 18.574219 C 38.25 18.472656 38.136719 18.390625 37.988281 18.390625 C 37.746094 18.390625 37.746094 18.375 37.988281 18.097656 C 38.136719 17.941406 38.246094 17.707031 38.238281 17.582031 C 38.230469 17.394531 38.214844 17.394531 38.136719 17.589844 C 37.972656 18 37.402344 18.375 36.558594 18.625 C 36.109375 18.761719 35.566406 19.011719 35.359375 19.183594 L 34.984375 19.5 L 35.503906 19.355469 C 35.792969 19.277344 35.988281 19.269531 35.941406 19.347656 C 35.894531 19.421875 36.015625 19.511719 36.21875 19.535156 C 36.417969 19.566406 36.644531 19.746094 36.730469 19.9375 C 36.878906 20.269531 37.136719 20.292969 37.136719 19.96875 Z M 35.160156 18.949219 C 35.347656 18.746094 35.816406 18.496094 36.199219 18.390625 C 37.371094 18.074219 37.589844 17.949219 37.859375 17.425781 C 38.324219 16.527344 37.796875 15.707031 36.894531 15.9375 C 36.390625 16.0625 36.140625 16.503906 36.269531 17.035156 C 36.40625 17.5625 37.097656 17.765625 37.394531 17.359375 C 37.636719 17.027344 37.425781 16.480469 37.0625 16.480469 C 36.746094 16.480469 36.589844 16.792969 36.796875 17.003906 C 36.925781 17.136719 36.972656 17.109375 36.972656 16.910156 C 36.972656 16.761719 37.046875 16.640625 37.136719 16.640625 C 37.332031 16.640625 37.347656 17.222656 37.152344 17.347656 C 36.714844 17.621094 36.175781 16.785156 36.527344 16.371094 C 36.792969 16.046875 37.511719 16.113281 37.738281 16.484375 C 37.90625 16.753906 37.902344 16.902344 37.6875 17.34375 C 37.421875 17.910156 36.839844 18.199219 36.625 17.871094 C 36.53125 17.730469 36.464844 17.722656 36.378906 17.855469 C 36.3125 17.953125 35.972656 18.175781 35.621094 18.359375 C 35.199219 18.578125 34.859375 18.921875 34.621094 19.378906 C 34.386719 19.8125 34.359375 19.925781 34.535156 19.691406 C 34.691406 19.484375 34.972656 19.144531 35.160156 18.949219 Z M 30.675781 19.097656 C 30.4375 18.78125 30 18.421875 29.714844 18.300781 C 29.425781 18.183594 29.15625 17.988281 29.109375 17.878906 C 29.046875 17.71875 28.988281 17.730469 28.863281 17.90625 C 28.730469 18.105469 28.644531 18.105469 28.3125 17.925781 C 27.703125 17.597656 27.46875 17.046875 27.734375 16.550781 C 27.90625 16.230469 28.050781 16.15625 28.4375 16.191406 C 28.855469 16.234375 28.933594 16.3125 28.972656 16.738281 C 29.03125 17.34375 28.578125 17.621094 28.25 17.175781 C 28.140625 17.027344 28 16.953125 27.9375 17.011719 C 27.714844 17.238281 28.328125 17.640625 28.738281 17.535156 C 29.363281 17.378906 29.417969 16.308594 28.8125 15.984375 C 28.050781 15.578125 27.300781 16.25 27.472656 17.183594 C 27.574219 17.703125 28.230469 18.234375 28.78125 18.234375 C 29.3125 18.234375 30.363281 18.863281 30.65625 19.359375 C 30.816406 19.628906 30.988281 19.8125 31.035156 19.765625 C 31.082031 19.714844 30.921875 19.417969 30.675781 19.097656 Z M 31.558594 18.230469 C 31.558594 18.160156 31.308594 17.957031 31 17.78125 C 30.3125 17.375 30.121094 16.761719 30.535156 16.300781 C 30.75 16.0625 30.953125 16 31.28125 16.066406 C 31.558594 16.121094 31.691406 16.09375 31.636719 16 C 31.417969 15.644531 30.121094 16.011719 30.121094 16.425781 C 30.121094 16.730469 29.847656 16.6875 29.65625 16.359375 C 29.503906 16.105469 29.488281 16.109375 29.488281 16.402344 C 29.484375 16.578125 29.660156 16.859375 29.878906 17.019531 C 30.097656 17.1875 30.277344 17.4375 30.277344 17.578125 C 30.277344 17.734375 30.230469 17.769531 30.15625 17.660156 C 30.042969 17.496094 29.484375 17.234375 29.484375 17.347656 C 29.484375 17.589844 29.703125 17.894531 29.816406 17.824219 C 29.894531 17.777344 29.957031 17.8125 29.957031 17.910156 C 29.957031 18.027344 30.058594 18.035156 30.238281 17.9375 C 30.410156 17.847656 30.667969 17.855469 30.917969 17.957031 L 31.316406 18.125 L 30.839844 18.222656 L 30.359375 18.328125 L 30.796875 18.441406 C 31.035156 18.503906 31.234375 18.636719 31.234375 18.722656 C 31.234375 18.816406 31.171875 18.847656 31.09375 18.800781 C 31.011719 18.75 30.984375 18.863281 31.035156 19.046875 C 31.113281 19.347656 31.144531 19.332031 31.339844 18.871094 C 31.457031 18.589844 31.558594 18.300781 31.558594 18.230469 Z M 34.472656 19.03125 C 34.515625 18.855469 34.5 18.746094 34.425781 18.792969 C 34.359375 18.832031 34.25 18.746094 34.191406 18.59375 C 34.058594 18.234375 34.535156 17.886719 35.082031 17.941406 C 35.5 17.984375 36.019531 17.6875 36.019531 17.410156 C 36.019531 17.332031 35.871094 17.34375 35.691406 17.441406 C 35.511719 17.535156 35.277344 17.582031 35.171875 17.546875 C 34.902344 17.449219 34.144531 17.863281 33.953125 18.21875 C 33.839844 18.441406 33.855469 18.566406 34.03125 18.714844 C 34.160156 18.824219 34.265625 19.011719 34.265625 19.128906 C 34.265625 19.453125 34.375 19.394531 34.472656 19.03125 Z M 31.972656 17.988281 C 31.925781 17.859375 31.816406 17.753906 31.734375 17.753906 C 31.652344 17.753906 31.667969 17.925781 31.769531 18.144531 C 31.957031 18.550781 32.136719 18.410156 31.972656 17.988281 Z M 34.265625 17.558594 C 35.128906 16.980469 35.074219 16.328125 34.160156 16.324219 C 33.796875 16.316406 33.535156 16.722656 33.796875 16.886719 C 33.886719 16.9375 33.9375 16.886719 33.910156 16.769531 C 33.886719 16.640625 34.019531 16.558594 34.265625 16.558594 C 34.90625 16.558594 34.832031 17.015625 34.113281 17.496094 C 33.660156 17.792969 33.472656 18.027344 33.484375 18.277344 L 33.5 18.628906 L 33.605469 18.28125 C 33.660156 18.089844 33.957031 17.765625 34.265625 17.558594 Z M 34.824219 18.390625 C 35.105469 18.269531 35.09375 18.253906 34.703125 18.246094 C 34.464844 18.238281 34.265625 18.308594 34.265625 18.390625 C 34.265625 18.578125 34.390625 18.578125 34.824219 18.390625 Z M 33.199219 17.566406 C 33.214844 17.59375 33.363281 17.5625 33.535156 17.5 C 33.816406 17.390625 33.8125 17.375 33.46875 17.246094 C 33.238281 17.160156 33.03125 17.171875 32.933594 17.269531 C 32.824219 17.378906 32.675781 17.347656 32.484375 17.171875 C 32.15625 16.875 32.082031 17.09375 32.390625 17.433594 C 32.515625 17.566406 32.417969 17.546875 32.152344 17.378906 C 31.910156 17.234375 31.714844 17.175781 31.714844 17.261719 C 31.714844 17.339844 31.949219 17.546875 32.234375 17.71875 C 32.707031 18.003906 32.765625 18.011719 32.957031 17.777344 C 33.074219 17.628906 33.175781 17.535156 33.199219 17.566406 Z M 31.074219 17.308594 C 30.5625 16.890625 30.746094 16.402344 31.359375 16.550781 C 31.6875 16.636719 31.75 16.613281 31.613281 16.480469 C 31.324219 16.183594 30.6875 16.355469 30.628906 16.746094 C 30.582031 17.066406 31.199219 17.84375 31.363281 17.675781 C 31.40625 17.636719 31.277344 17.46875 31.074219 17.308594 Z M 35.824219 16.816406 C 35.933594 16.683594 36.015625 16.464844 36.015625 16.328125 C 36.015625 16.15625 35.921875 16.199219 35.703125 16.480469 C 35.457031 16.792969 35.390625 16.816406 35.386719 16.609375 C 35.378906 16.074219 33.988281 15.546875 33.722656 15.980469 C 33.675781 16.050781 33.8125 16.078125 34.03125 16.042969 C 34.25 15.996094 34.609375 16.082031 34.839844 16.234375 C 35.1875 16.464844 35.238281 16.589844 35.160156 16.988281 C 35.074219 17.433594 35.089844 17.457031 35.34375 17.265625 C 35.496094 17.144531 35.707031 16.949219 35.824219 16.816406 Z M 28.765625 16.785156 C 28.765625 16.496094 28.222656 16.394531 27.988281 16.644531 C 27.847656 16.800781 27.875 16.824219 28.105469 16.738281 C 28.488281 16.605469 28.785156 16.792969 28.503906 16.988281 C 28.328125 17.113281 28.332031 17.128906 28.527344 17.078125 C 28.65625 17.042969 28.765625 16.910156 28.765625 16.785156 Z M 31.628906 16.96875 C 31.683594 16.886719 31.578125 16.828125 31.402344 16.84375 C 31.222656 16.855469 31.078125 16.921875 31.078125 16.988281 C 31.078125 17.167969 31.515625 17.152344 31.628906 16.96875 Z M 33.21875 16.714844 C 33.574219 16.449219 33.433594 16.402344 32.988281 16.640625 C 32.785156 16.746094 32.65625 16.746094 32.589844 16.636719 C 32.53125 16.546875 32.546875 16.488281 32.621094 16.515625 C 32.832031 16.582031 33.785156 15.652344 33.78125 15.375 C 33.777344 15.214844 33.574219 15.355469 33.207031 15.761719 C 32.890625 16.125 32.609375 16.316406 32.566406 16.214844 C 32.417969 15.832031 31.714844 15.125 31.714844 15.355469 C 31.714844 15.480469 31.90625 15.785156 32.140625 16.03125 C 32.53125 16.433594 32.542969 16.480469 32.261719 16.484375 C 31.996094 16.488281 32.011719 16.519531 32.355469 16.71875 C 32.84375 17 32.84375 17 33.21875 16.714844 Z M 30.886719 15.582031 C 31.253906 15.511719 31.394531 15.394531 31.394531 15.167969 C 31.394531 14.785156 30.234375 13.660156 30.140625 13.949219 C 30.105469 14.058594 30.214844 14.261719 30.390625 14.394531 C 30.691406 14.640625 30.988281 15.363281 30.785156 15.363281 C 30.734375 15.363281 30.535156 15.171875 30.355469 14.941406 C 30.082031 14.597656 29.933594 14.535156 29.589844 14.625 C 29.109375 14.746094 28.996094 15.308594 29.417969 15.46875 C 29.671875 15.566406 30.03125 15.214844 29.847656 15.046875 C 29.796875 15 29.722656 15.050781 29.6875 15.160156 C 29.589844 15.441406 29.324219 15.410156 29.324219 15.125 C 29.324219 14.972656 29.472656 14.886719 29.722656 14.886719 C 30.035156 14.886719 30.121094 14.964844 30.121094 15.277344 C 30.121094 15.488281 30.046875 15.707031 29.957031 15.761719 C 29.875 15.816406 29.800781 15.9375 29.800781 16.035156 C 29.800781 16.128906 29.933594 16.09375 30.089844 15.949219 C 30.25 15.800781 30.609375 15.640625 30.886719 15.582031 Z M 35.386719 15.527344 C 35.136719 15.0625 35.332031 14.832031 35.902344 14.949219 C 36.3125 15.03125 36.347656 15.011719 36.175781 14.808594 C 36.066406 14.671875 35.859375 14.566406 35.707031 14.566406 C 35.359375 14.566406 34.839844 15.128906 34.980469 15.355469 C 35.035156 15.449219 35.046875 15.519531 35 15.519531 C 34.953125 15.519531 34.839844 15.378906 34.75 15.214844 C 34.613281 14.957031 34.660156 14.828125 35.015625 14.5 C 35.550781 14.003906 35.410156 13.800781 34.796875 14.191406 C 34.230469 14.550781 34.109375 14.71875 34.109375 15.144531 C 34.109375 15.410156 34.234375 15.511719 34.671875 15.59375 C 34.984375 15.652344 35.285156 15.816406 35.339844 15.964844 C 35.402344 16.113281 35.464844 16.152344 35.5 16.042969 C 35.535156 15.941406 35.484375 15.707031 35.386719 15.527344 Z M 33.628906 14.734375 C 34.328125 13.816406 34.34375 12.644531 33.660156 12.65625 C 33.40625 12.660156 33.40625 12.671875 33.667969 12.824219 C 33.824219 12.917969 33.949219 13.128906 33.949219 13.308594 C 33.949219 13.484375 33.878906 13.589844 33.800781 13.535156 C 33.71875 13.488281 33.609375 13.660156 33.550781 13.921875 C 33.496094 14.175781 33.296875 14.578125 33.121094 14.808594 L 32.792969 15.222656 L 32.410156 14.863281 C 32.203125 14.671875 32.03125 14.386719 32.03125 14.234375 C 32.03125 13.808594 31.859375 13.441406 31.699219 13.542969 C 31.484375 13.671875 31.527344 13.0625 31.746094 12.84375 C 31.890625 12.703125 31.890625 12.652344 31.75 12.652344 C 31.652344 12.652344 31.488281 12.800781 31.390625 12.980469 C 31.144531 13.4375 31.464844 14.3125 32.175781 15.171875 C 32.816406 15.9375 32.675781 15.980469 33.628906 14.734375 Z M 36.238281 15.433594 C 36.296875 15.292969 36.265625 15.230469 36.175781 15.285156 C 36.089844 15.339844 36.019531 15.449219 36.019531 15.53125 C 36.019531 15.761719 36.136719 15.707031 36.238281 15.433594 Z M 35.796875 15.089844 C 35.636719 14.925781 35.5 15.171875 35.636719 15.386719 C 35.734375 15.546875 35.769531 15.546875 35.828125 15.386719 C 35.863281 15.277344 35.847656 15.140625 35.796875 15.089844 Z M 33.246094 13.609375 C 33.34375 13.074219 33.339844 13.066406 33.089844 13.371094 C 32.84375 13.675781 32.832031 13.660156 32.871094 13.019531 C 32.894531 12.636719 32.84375 12.363281 32.75 12.378906 C 32.660156 12.402344 32.609375 12.699219 32.636719 13.050781 C 32.675781 13.628906 32.65625 13.660156 32.453125 13.402344 C 32.152344 13.015625 31.957031 13.328125 32.207031 13.808594 C 32.566406 14.5 32.703125 14.605469 32.933594 14.375 C 33.046875 14.253906 33.1875 13.910156 33.246094 13.609375 Z M 28.855469 13.917969 C 29.109375 13.4375 28.972656 13.410156 28.578125 13.859375 C 28.332031 14.128906 28.296875 14.246094 28.453125 14.246094 C 28.574219 14.246094 28.753906 14.097656 28.855469 13.917969 Z M 26.667969 11.332031 C 26.785156 10.875 26.640625 10.769531 26.324219 11.089844 C 26.175781 11.238281 26.136719 11.1875 26.136719 10.859375 C 26.136719 9.796875 27.847656 9.003906 28.503906 9.761719 C 28.878906 10.191406 29.441406 10.199219 29.894531 9.769531 C 30.34375 9.347656 30.484375 9.574219 30.175781 10.207031 C 29.953125 10.671875 29.261719 11.09375 28.449219 11.269531 C 28.21875 11.324219 28.253906 11.34375 28.574219 11.359375 C 29.371094 11.390625 30.050781 10.984375 30.378906 10.28125 C 30.542969 9.921875 30.734375 9.628906 30.796875 9.625 C 30.972656 9.621094 30.9375 9.792969 30.628906 10.417969 C 30.246094 11.203125 29.285156 11.703125 28.402344 11.582031 C 27.828125 11.503906 27.734375 11.449219 27.8125 11.199219 C 27.949219 10.777344 27.675781 10.828125 27.078125 11.332031 L 26.558594 11.769531 Z M 28.964844 9.824219 C 28.511719 9.71875 28.644531 9.515625 29.160156 9.515625 C 29.425781 9.515625 29.640625 9.566406 29.640625 9.628906 C 29.640625 9.796875 29.292969 9.894531 28.964844 9.824219 Z M 36.058594 9.828125 C 35.691406 9.699219 35.855469 9.515625 36.339844 9.515625 C 36.605469 9.515625 36.816406 9.535156 36.816406 9.5625 C 36.816406 9.6875 36.234375 9.890625 36.058594 9.828125 Z M 36.058594 9.828125 "/>
<path style=" stroke:none;fill-rule:evenodd;fill:rgb(100%,100%,100%);fill-opacity:1;" d="M 10.09375 8.375 L 20.277344 8.375 C 21.722656 8.375 22.902344 9.550781 22.902344 11 L 22.902344 26.730469 C 22.902344 28.183594 21.722656 29.355469 20.277344 29.355469 L 10.09375 29.355469 C 8.640625 29.355469 7.46875 28.183594 7.46875 26.730469 L 7.46875 11 C 7.46875 9.550781 8.640625 8.375 10.09375 8.375 Z M 10.09375 8.375 "/>
<path style=" stroke:none;fill-rule:nonzero;fill:rgb(81.960784%,0%,0%);fill-opacity:1;" d="M 13.175781 25.542969 C 10.738281 23.046875 10.207031 22.230469 10.207031 20.996094 C 10.207031 19.675781 10.875 18.800781 12.140625 18.464844 C 12.78125 18.292969 12.984375 18.300781 13.609375 18.542969 C 14.011719 18.699219 14.5625 19.078125 14.839844 19.390625 L 15.339844 19.964844 L 15.921875 19.328125 C 17.28125 17.839844 19.417969 18.105469 20.265625 19.871094 C 20.59375 20.542969 20.609375 20.6875 20.441406 21.488281 C 20.191406 22.675781 19.421875 23.78125 17.859375 25.191406 C 17.140625 25.84375 16.292969 26.699219 15.972656 27.09375 L 15.390625 27.808594 Z M 13.175781 25.542969 "/>
<path style=" stroke:none;fill-rule:nonzero;fill:rgb(81.960784%,0%,0%);fill-opacity:1;" d="M 18.355469 13.097656 C 17.472656 12.199219 17.28125 11.90625 17.28125 11.457031 C 17.28125 10.984375 17.519531 10.671875 17.980469 10.546875 C 18.207031 10.484375 18.28125 10.488281 18.503906 10.578125 C 18.652344 10.628906 18.847656 10.769531 18.949219 10.878906 L 19.128906 11.089844 L 19.339844 10.859375 C 19.828125 10.324219 20.597656 10.421875 20.90625 11.050781 C 21.019531 11.296875 21.027344 11.347656 20.96875 11.636719 C 20.875 12.066406 20.597656 12.464844 20.035156 12.972656 C 19.78125 13.203125 19.472656 13.511719 19.359375 13.65625 L 19.144531 13.910156 Z M 18.355469 13.097656 "/>
<path style=" stroke:none;fill-rule:nonzero;fill:rgb(0%,0%,0%);fill-opacity:1;" d="M 11.472656 11.160156 L 10.746094 14.535156 L 12.183594 14.535156 Z M 11.160156 10.246094 L 11.765625 10.246094 L 13.246094 17.058594 L 12.703125 17.058594 L 12.347656 15.308594 L 10.597656 15.308594 L 10.246094 17.058594 L 9.683594 17.058594 Z M 11.160156 10.246094 "/>
<path style=" stroke:none;fill-rule:nonzero;fill:rgb(81.960784%,0%,0%);fill-opacity:1;" d="M 30.8125 35.8125 C 28.375 33.316406 27.839844 32.496094 27.839844 31.265625 C 27.839844 29.949219 28.511719 29.066406 29.777344 28.730469 C 30.417969 28.5625 30.613281 28.574219 31.246094 28.8125 C 31.644531 28.964844 32.199219 29.34375 32.472656 29.660156 L 32.972656 30.230469 L 33.558594 29.59375 C 34.917969 28.109375 37.046875 28.375 37.902344 30.140625 C 38.230469 30.8125 38.246094 30.953125 38.074219 31.753906 C 37.824219 32.949219 37.058594 34.050781 35.496094 35.464844 C 34.777344 36.109375 33.925781 36.964844 33.605469 37.359375 L 33.019531 38.078125 Z M 30.8125 35.8125 "/>
<path style=" stroke:none;fill-rule:evenodd;fill:rgb(100%,100%,100%);fill-opacity:1;" d="M 27.722656 18.644531 L 37.90625 18.644531 C 39.359375 18.644531 40.53125 19.816406 40.53125 21.269531 L 40.53125 37 C 40.53125 38.449219 39.359375 39.625 37.90625 39.625 L 27.722656 39.625 C 26.277344 39.625 25.097656 38.449219 25.097656 37 L 25.097656 21.269531 C 25.097656 19.816406 26.277344 18.644531 27.722656 18.644531 Z M 27.722656 18.644531 "/>
<path style=" stroke:none;fill-rule:nonzero;fill:rgb(0%,0%,0%);fill-opacity:1;" d="M 30.488281 37.515625 C 31.484375 37.160156 32.53125 35.957031 32.785156 34.875 C 32.90625 34.34375 32.816406 34.339844 32 34.839844 C 31.265625 35.296875 29.949219 35.375 29.246094 35.011719 C 28.363281 34.550781 28.015625 34.003906 28.015625 33.082031 C 28.015625 31.9375 28.527344 31.234375 30.625 29.484375 C 31.519531 28.734375 32.421875 27.921875 32.621094 27.671875 L 32.980469 27.222656 L 33.40625 27.734375 C 33.644531 28.015625 34.464844 28.769531 35.234375 29.40625 C 36.984375 30.871094 37.421875 31.339844 37.734375 32.082031 C 38.464844 33.824219 37.40625 35.234375 35.378906 35.234375 C 34.722656 35.234375 34.378906 35.140625 33.933594 34.839844 C 33.609375 34.621094 33.3125 34.4375 33.269531 34.4375 C 33.035156 34.4375 33.261719 35.449219 33.621094 35.96875 C 34.058594 36.621094 34.359375 36.886719 35.171875 37.347656 C 35.65625 37.621094 35.613281 37.625 32.957031 37.613281 C 31.46875 37.609375 30.355469 37.5625 30.488281 37.515625 Z M 30.488281 37.515625 "/>
<path style=" stroke:none;fill-rule:nonzero;fill:rgb(0%,0%,0%);fill-opacity:1;" d="M 35.542969 24.730469 C 35.964844 24.578125 36.40625 24.066406 36.515625 23.609375 C 36.566406 23.386719 36.527344 23.386719 36.183594 23.59375 C 35.871094 23.785156 35.3125 23.824219 35.015625 23.667969 C 34.644531 23.472656 34.496094 23.246094 34.496094 22.855469 C 34.496094 22.371094 34.714844 22.066406 35.597656 21.328125 C 35.980469 21.011719 36.359375 20.667969 36.441406 20.5625 L 36.59375 20.371094 L 36.777344 20.589844 C 36.878906 20.707031 37.222656 21.027344 37.550781 21.296875 C 38.292969 21.917969 38.480469 22.113281 38.609375 22.425781 C 38.917969 23.167969 38.472656 23.765625 37.613281 23.765625 C 37.332031 23.765625 37.1875 23.722656 37 23.59375 C 36.863281 23.5 36.738281 23.425781 36.71875 23.425781 C 36.621094 23.425781 36.71875 23.855469 36.871094 24.074219 C 37.050781 24.347656 37.183594 24.464844 37.527344 24.65625 C 37.730469 24.777344 37.714844 24.777344 36.589844 24.769531 C 35.957031 24.765625 35.484375 24.75 35.542969 24.730469 Z M 35.542969 24.730469 "/>
<path style=" stroke:none;fill-rule:nonzero;fill:rgb(0%,0%,0%);fill-opacity:1;" d="M 28.957031 21.285156 L 27.625 24.910156 L 28.957031 24.910156 Z M 28.8125 20.472656 L 29.480469 20.472656 L 29.480469 24.910156 L 30.042969 24.910156 L 30.042969 25.683594 L 29.480469 25.683594 L 29.480469 27.285156 L 28.957031 27.285156 L 28.957031 25.683594 L 27.207031 25.683594 L 27.207031 24.785156 Z M 28.8125 20.472656 "/>
</g>
</svg>
