<?xml version="1.0" encoding="UTF-8"?>
<svg xmlns="http://www.w3.org/2000/svg" xmlns:xlink="http://www.w3.org/1999/xlink" width="48pt" height="48pt" viewBox="0 0 48 48" version="1.1">
<g id="surface1">
<path style=" stroke:none;fill-rule:evenodd;fill:rgb(0%,61.176471%,35.686275%);fill-opacity:1;" d="M 14.5625 45.152344 L 24 24 L 2.847656 14.5625 L 2.847656 36.792969 C 2.847656 41.421875 6.578125 45.152344 11.207031 45.152344 Z M 14.5625 45.152344 "/>
<path style=" stroke:none;fill-rule:evenodd;fill:rgb(0%,78.823529%,35.686275%);fill-opacity:1;" d="M 45.152344 33.4375 L 24 24 L 14.5625 45.152344 L 36.792969 45.152344 C 41.421875 45.152344 45.152344 41.421875 45.152344 36.792969 Z M 45.152344 33.4375 "/>
<path style=" stroke:none;fill-rule:evenodd;fill:rgb(0%,61.176471%,35.686275%);fill-opacity:1;" d="M 33.4375 2.847656 L 24 24 L 45.152344 33.4375 L 45.152344 11.207031 C 45.152344 6.578125 41.421875 2.847656 36.792969 2.847656 Z M 33.4375 2.847656 "/>
<path style=" stroke:none;fill-rule:evenodd;fill:rgb(0%,78.823529%,35.686275%);fill-opacity:1;" d="M 2.847656 14.5625 L 24 24 L 33.4375 2.847656 L 11.207031 2.847656 C 6.578125 2.847656 2.847656 6.578125 2.847656 11.207031 Z M 2.847656 14.5625 "/>
<path style=" stroke:none;fill-rule:nonzero;fill:rgb(100%,100%,100%);fill-opacity:1;" d="M 18.496094 38.691406 C 18.5625 38.621094 18.777344 38.480469 18.972656 38.375 C 19.316406 38.199219 19.375 38.183594 20.171875 38.113281 C 21.191406 38.027344 21.996094 37.871094 22.359375 37.703125 C 22.902344 37.441406 23.222656 36.980469 23.394531 36.203125 C 23.472656 35.855469 23.496094 35.464844 23.511719 33.800781 C 23.53125 31.753906 23.457031 28.886719 23.371094 28.441406 C 23.277344 27.96875 23.199219 27.878906 22.371094 27.261719 C 21.46875 26.59375 20.390625 25.558594 19.910156 24.902344 C 19.042969 23.714844 18.558594 22.503906 18.3125 20.894531 C 18.246094 20.457031 18.21875 19.984375 18.21875 19.109375 C 18.21875 17.144531 18.402344 15.875 19.246094 11.910156 C 19.550781 10.472656 19.640625 10.167969 19.8125 9.980469 L 19.917969 9.863281 L 28.0625 9.863281 L 28.171875 9.980469 C 28.328125 10.144531 28.40625 10.433594 28.761719 12.0625 C 29.730469 16.535156 29.953125 18.761719 29.660156 20.890625 C 29.285156 23.578125 28.035156 25.488281 25.402344 27.421875 C 25.078125 27.65625 24.785156 27.910156 24.746094 27.984375 C 24.609375 28.246094 24.558594 28.699219 24.503906 29.894531 C 24.4375 31.609375 24.433594 35.175781 24.503906 35.714844 C 24.65625 36.917969 25 37.464844 25.78125 37.769531 C 26.121094 37.90625 26.839844 38.027344 27.816406 38.113281 C 28.550781 38.183594 28.644531 38.203125 28.984375 38.371094 C 29.1875 38.46875 29.40625 38.609375 29.480469 38.683594 L 29.605469 38.816406 L 18.378906 38.816406 Z M 18.496094 38.691406 "/>
<path style=" stroke:none;fill-rule:nonzero;fill:rgb(73.333333%,0%,18.431373%);fill-opacity:1;" d="M 18.988281 19.84375 C 18.714844 27.65625 28.425781 29.636719 29.152344 19.84375 C 26.902344 23.089844 21.441406 16.832031 18.988281 19.84375 Z M 18.988281 19.84375 "/>
</g>
</svg>
