<?xml version="1.0" encoding="UTF-8"?>
<svg xmlns="http://www.w3.org/2000/svg" xmlns:xlink="http://www.w3.org/1999/xlink" width="48pt" height="48pt" viewBox="0 0 48 48" version="1.1">
<g id="surface1">
<path style=" stroke:none;fill-rule:evenodd;fill:rgb(18.431373%,40.392157%,72.941176%);fill-opacity:1;" d="M 11.207031 2.847656 L 36.792969 2.847656 C 41.40625 2.847656 45.152344 6.59375 45.152344 11.207031 L 45.152344 36.792969 C 45.152344 41.40625 41.40625 45.152344 36.792969 45.152344 L 11.207031 45.152344 C 6.59375 45.152344 2.847656 41.40625 2.847656 36.792969 L 2.847656 11.207031 C 2.847656 6.59375 6.59375 2.847656 11.207031 2.847656 Z M 11.207031 2.847656 "/>
<path style=" stroke:none;fill-rule:nonzero;fill:rgb(49.803922%,75.686275%,87.058824%);fill-opacity:1;" d="M 14.25 15.75 C 9.691406 15.75 6 19.441406 6 24 C 6 28.558594 9.691406 32.25 14.25 32.25 C 15.550781 32.246094 16.839844 31.9375 18 31.339844 L 18 39.75 L 22.5 39.75 L 22.5 15.75 L 18 15.75 L 18 16.652344 C 16.839844 16.0625 15.550781 15.75 14.25 15.75 Z M 14.25 20.25 C 16.324219 20.25 18 21.925781 18 24 C 18 26.074219 16.324219 27.75 14.25 27.75 C 12.175781 27.75 10.5 26.074219 10.5 24 C 10.5 21.925781 12.175781 20.25 14.25 20.25 Z M 14.25 20.25 "/>
<path style=" stroke:none;fill-rule:nonzero;fill:rgb(100%,100%,100%);fill-opacity:1;" d="M 33.75 32.25 C 38.308594 32.25 42 28.558594 42 24 C 42 19.441406 38.308594 15.75 33.75 15.75 C 32.449219 15.753906 31.160156 16.0625 30 16.660156 L 30 8.25 L 25.5 8.25 L 25.5 32.25 L 30 32.25 L 30 31.347656 C 31.160156 31.941406 32.449219 32.25 33.75 32.25 Z M 33.75 27.75 C 31.675781 27.75 30 26.074219 30 24 C 30 21.925781 31.675781 20.25 33.75 20.25 C 35.824219 20.25 37.5 21.925781 37.5 24 C 37.5 26.074219 35.824219 27.75 33.75 27.75 Z M 33.75 27.75 "/>
</g>
</svg>
