<?xml version="1.0" encoding="UTF-8"?>
<svg xmlns="http://www.w3.org/2000/svg" xmlns:xlink="http://www.w3.org/1999/xlink" width="48pt" height="48pt" viewBox="0 0 48 48" version="1.1">
<g id="surface1">
<path style=" stroke:none;fill-rule:evenodd;fill:rgb(17.647059%,25.882353%,48.235294%);fill-opacity:1;" d="M 11.207031 2.847656 C 6.578125 2.847656 2.847656 6.578125 2.847656 11.207031 L 2.847656 36.792969 C 2.847656 41.421875 6.578125 45.152344 11.207031 45.152344 L 36.3125 45.152344 L 22.046875 30.894531 L 25.855469 30.792969 L 26.027344 26.675781 L 29.96875 26.761719 L 30.109375 22.496094 L 45.011719 37.484375 C 45.03125 37.246094 45.152344 37.035156 45.152344 36.792969 L 45.152344 11.207031 C 45.152344 6.578125 41.421875 2.847656 36.792969 2.847656 Z M 11.207031 2.847656 "/>
<path style=" stroke:none;fill-rule:evenodd;fill:rgb(84.313725%,88.627451%,92.54902%);fill-opacity:1;" d="M 37.113281 24 C 37.113281 31.238281 31.238281 37.113281 24 37.113281 C 16.761719 37.113281 10.886719 31.238281 10.886719 24 C 10.886719 16.761719 16.761719 10.886719 24 10.886719 C 31.238281 10.886719 37.113281 16.761719 37.113281 24 Z M 37.113281 24 "/>
<path style=" stroke:none;fill-rule:evenodd;fill:rgb(99.215686%,62.745098%,0.784314%);fill-opacity:1;" d="M 45.011719 37.484375 L 30.109375 22.496094 L 29.96875 26.761719 L 26.027344 26.675781 L 25.855469 30.792969 L 22.046875 30.894531 L 36.3125 45.152344 L 36.792969 45.152344 C 41.175781 45.152344 44.644531 41.769531 45.011719 37.484375 Z M 45.011719 37.484375 "/>
<path style=" stroke:none;fill-rule:evenodd;fill:rgb(100%,100%,100%);fill-opacity:1;" d="M 28.558594 37.402344 L 22.050781 30.894531 Z M 28.558594 37.402344 "/>
<path style=" stroke:none;fill-rule:evenodd;fill:rgb(99.215686%,62.745098%,0.784314%);fill-opacity:1;" d="M 30.109375 22.496094 L 29.96875 26.761719 L 26.027344 26.675781 L 25.855469 30.785156 L 22.050781 30.894531 L 28.558594 37.402344 C 32.410156 36.160156 35.558594 33.332031 37.203125 29.636719 Z M 30.109375 22.496094 "/>
<path style=" stroke:none;fill-rule:evenodd;fill:rgb(100%,100%,100%);fill-opacity:1;" d="M 18.105469 18.808594 L 22.046875 30.894531 L 22.050781 30.894531 L 25.855469 30.785156 L 26.027344 26.675781 L 29.96875 26.761719 L 30.109375 22.496094 Z M 18.105469 18.808594 "/>
<path style=" stroke:none;fill-rule:nonzero;fill:rgb(0%,0%,0%);fill-opacity:1;" d="M 18.105469 18.808594 L 19.597656 23.332031 L 22.605469 20.230469 Z M 18.105469 18.808594 "/>
</g>
</svg>
