<?xml version="1.0" encoding="UTF-8"?>
<svg xmlns="http://www.w3.org/2000/svg" xmlns:xlink="http://www.w3.org/1999/xlink" width="48pt" height="48pt" viewBox="0 0 48 48" version="1.1">
<g id="surface1">
<path style=" stroke:none;fill-rule:evenodd;fill:rgb(40%,65.098039%,87.058824%);fill-opacity:1;" d="M 11.207031 2.847656 L 36.792969 2.847656 C 41.40625 2.847656 45.152344 6.59375 45.152344 11.207031 L 45.152344 36.792969 C 45.152344 41.40625 41.40625 45.152344 36.792969 45.152344 L 11.207031 45.152344 C 6.59375 45.152344 2.847656 41.40625 2.847656 36.792969 L 2.847656 11.207031 C 2.847656 6.59375 6.59375 2.847656 11.207031 2.847656 Z M 11.207031 2.847656 "/>
<path style=" stroke:none;fill-rule:nonzero;fill:rgb(100%,100%,100%);fill-opacity:1;" d="M 22.609375 14.28125 C 22.609375 18.113281 19.503906 21.222656 15.671875 21.222656 C 11.839844 21.222656 8.730469 18.113281 8.730469 14.28125 C 8.730469 10.449219 11.839844 7.34375 15.671875 7.34375 C 19.503906 7.34375 22.609375 10.449219 22.609375 14.28125 Z M 22.609375 14.28125 "/>
<path style=" stroke:none;fill-rule:nonzero;fill:rgb(30.196078%,30.196078%,30.196078%);fill-opacity:1;" d="M 22.609375 33.71875 C 22.609375 37.550781 19.503906 40.65625 15.671875 40.65625 C 11.839844 40.65625 8.730469 37.550781 8.730469 33.71875 C 8.730469 29.886719 11.839844 26.777344 15.671875 26.777344 C 19.503906 26.777344 22.609375 29.886719 22.609375 33.71875 Z M 22.609375 33.71875 "/>
<path style=" stroke:none;fill-rule:nonzero;fill:rgb(100%,100%,100%);fill-opacity:1;" d="M 39.269531 33.71875 C 39.269531 29.886719 36.160156 26.777344 32.328125 26.777344 C 28.496094 26.777344 25.390625 29.886719 25.390625 33.71875 C 25.390625 37.550781 28.496094 40.65625 32.328125 40.65625 C 36.160156 40.65625 39.269531 37.550781 39.269531 33.71875 Z M 39.269531 33.71875 "/>
<path style=" stroke:none;fill-rule:nonzero;fill:rgb(30.196078%,30.196078%,30.196078%);fill-opacity:1;" d="M 39.269531 14.28125 C 39.269531 10.449219 36.160156 7.34375 32.328125 7.34375 C 28.496094 7.34375 25.390625 10.449219 25.390625 14.28125 C 25.390625 18.113281 28.496094 21.222656 32.328125 21.222656 C 36.160156 21.222656 39.269531 18.113281 39.269531 14.28125 Z M 39.269531 14.28125 "/>
</g>
</svg>
