<?xml version="1.0" encoding="UTF-8"?>
<svg xmlns="http://www.w3.org/2000/svg" xmlns:xlink="http://www.w3.org/1999/xlink" width="48pt" height="48pt" viewBox="0 0 48 48" version="1.1">
<g id="surface1">
<path style=" stroke:none;fill-rule:evenodd;fill:rgb(80%,80%,80%);fill-opacity:1;" d="M 11.207031 2.847656 L 36.792969 2.847656 C 41.40625 2.847656 45.152344 6.59375 45.152344 11.207031 L 45.152344 36.792969 C 45.152344 41.40625 41.40625 45.152344 36.792969 45.152344 L 11.207031 45.152344 C 6.59375 45.152344 2.847656 41.40625 2.847656 36.792969 L 2.847656 11.207031 C 2.847656 6.59375 6.59375 2.847656 11.207031 2.847656 Z M 11.207031 2.847656 "/>
<path style=" stroke:none;fill-rule:evenodd;fill:rgb(18.823529%,61.568627%,75.294118%);fill-opacity:1;" d="M 42.402344 33.230469 C 42.402344 38.203125 38.371094 42.230469 33.402344 42.230469 C 28.425781 42.230469 24.402344 38.203125 24.402344 33.230469 C 24.402344 28.261719 28.425781 24.230469 33.402344 24.230469 C 38.371094 24.230469 42.402344 28.261719 42.402344 33.230469 Z M 42.402344 33.230469 "/>
<path style=" stroke:none;fill-rule:evenodd;fill:rgb(100%,100%,100%);fill-opacity:1;" d="M 33.402344 29.574219 C 32.308594 29.582031 31.207031 29.832031 30.261719 30.375 C 29.878906 30.621094 29.425781 30.9375 29.082031 31.261719 C 28.546875 31.785156 28.082031 32.402344 27.769531 33.09375 C 28.628906 34.972656 30.503906 36.359375 32.574219 36.5625 C 33.925781 36.714844 35.34375 36.480469 36.535156 35.808594 C 36.917969 35.5625 37.371094 35.246094 37.714844 34.921875 C 38.25 34.394531 38.714844 33.78125 39.027344 33.089844 C 38.171875 31.207031 36.292969 29.824219 34.222656 29.621094 C 33.953125 29.589844 33.671875 29.574219 33.402344 29.574219 Z M 33.402344 30.980469 C 34.527344 30.957031 35.53125 31.96875 35.511719 33.089844 C 35.542969 34.332031 34.308594 35.40625 33.082031 35.171875 C 31.847656 35.027344 30.980469 33.640625 31.386719 32.46875 C 31.644531 31.605469 32.496094 30.96875 33.402344 30.980469 Z M 33.402344 32.386719 C 33.214844 32.386719 33.03125 32.464844 32.902344 32.59375 C 32.769531 32.722656 32.691406 32.90625 32.699219 33.09375 C 32.699219 33.480469 33.011719 33.796875 33.402344 33.796875 C 33.785156 33.796875 34.105469 33.480469 34.105469 33.09375 C 34.097656 32.703125 33.785156 32.390625 33.402344 32.390625 Z M 33.402344 32.386719 "/>
</g>
</svg>
