<?xml version="1.0" encoding="UTF-8"?>
<svg xmlns="http://www.w3.org/2000/svg" xmlns:xlink="http://www.w3.org/1999/xlink" width="48pt" height="48pt" viewBox="0 0 48 48" version="1.1">
<g id="surface1">
<path style=" stroke:none;fill-rule:evenodd;fill:rgb(76.078431%,20.784314%,16.470588%);fill-opacity:1;" d="M 11.207031 2.847656 L 36.792969 2.847656 C 41.40625 2.847656 45.152344 6.59375 45.152344 11.207031 L 45.152344 36.792969 C 45.152344 41.40625 41.40625 45.152344 36.792969 45.152344 L 11.207031 45.152344 C 6.59375 45.152344 2.847656 41.40625 2.847656 36.792969 L 2.847656 11.207031 C 2.847656 6.59375 6.59375 2.847656 11.207031 2.847656 Z M 11.207031 2.847656 "/>
<path style=" stroke:none;fill-rule:nonzero;fill:rgb(99.607843%,96.862745%,75.294118%);fill-opacity:1;" d="M 8.347656 8.347656 L 8.347656 18.78125 L 18.78125 18.78125 L 18.78125 8.347656 Z M 21.390625 8.347656 L 21.390625 13.566406 L 24 13.566406 L 24 10.957031 L 26.609375 10.957031 L 26.609375 8.347656 Z M 24 13.566406 L 24 18.78125 L 26.609375 18.78125 L 26.609375 13.566406 Z M 24 18.78125 L 21.390625 18.78125 L 21.390625 21.390625 L 24 21.390625 Z M 24 21.390625 L 24 24 L 26.609375 24 L 26.609375 21.390625 Z M 26.609375 24 L 26.609375 26.609375 L 31.824219 26.609375 L 31.824219 21.390625 L 29.21875 21.390625 L 29.21875 24 Z M 31.824219 26.609375 L 31.824219 29.21875 L 34.433594 29.21875 L 34.433594 31.824219 L 37.042969 31.824219 L 37.042969 26.609375 Z M 37.042969 26.609375 L 39.652344 26.609375 L 39.652344 21.390625 L 34.433594 21.390625 L 34.433594 24 L 37.042969 24 Z M 31.824219 29.21875 L 29.21875 29.21875 L 29.21875 31.824219 L 31.824219 31.824219 Z M 29.21875 31.824219 L 26.609375 31.824219 L 26.609375 34.433594 L 29.21875 34.433594 Z M 29.21875 34.433594 L 29.21875 37.042969 L 31.824219 37.042969 L 31.824219 34.433594 Z M 31.824219 37.042969 L 31.824219 39.652344 L 34.433594 39.652344 L 34.433594 37.042969 Z M 34.433594 37.042969 L 39.652344 37.042969 L 39.652344 34.433594 L 34.433594 34.433594 Z M 26.609375 34.433594 L 21.390625 34.433594 L 21.390625 37.042969 L 24 37.042969 L 24 39.652344 L 26.609375 39.652344 Z M 26.609375 31.824219 L 26.609375 26.609375 L 21.390625 26.609375 L 21.390625 29.21875 L 24 29.21875 L 24 31.824219 Z M 21.390625 26.609375 L 21.390625 21.390625 L 18.78125 21.390625 L 18.78125 24 L 16.175781 24 L 16.175781 26.609375 Z M 16.175781 24 L 16.175781 21.390625 L 8.347656 21.390625 L 8.347656 26.609375 L 13.566406 26.609375 L 13.566406 24 Z M 29.21875 8.347656 L 29.21875 18.78125 L 39.652344 18.78125 L 39.652344 8.347656 Z M 10.957031 10.957031 L 16.175781 10.957031 L 16.175781 16.175781 L 10.957031 16.175781 Z M 31.824219 10.957031 L 37.042969 10.957031 L 37.042969 16.175781 L 31.824219 16.175781 Z M 12.261719 12.261719 L 12.261719 14.871094 L 14.871094 14.871094 L 14.871094 12.261719 Z M 33.128906 12.261719 L 33.128906 14.871094 L 35.738281 14.871094 L 35.738281 12.261719 Z M 8.347656 29.21875 L 8.347656 39.652344 L 18.78125 39.652344 L 18.78125 29.21875 Z M 10.957031 31.824219 L 16.175781 31.824219 L 16.175781 37.042969 L 10.957031 37.042969 Z M 12.261719 33.128906 L 12.261719 35.738281 L 14.871094 35.738281 L 14.871094 33.128906 Z M 12.261719 33.128906 "/>
</g>
</svg>
