<?xml version="1.0" encoding="UTF-8"?>
<svg xmlns="http://www.w3.org/2000/svg" xmlns:xlink="http://www.w3.org/1999/xlink" width="48pt" height="48pt" viewBox="0 0 48 48" version="1.1">
<g id="surface1">
<path style=" stroke:none;fill-rule:evenodd;fill:rgb(15.686275%,15.686275%,48.235294%);fill-opacity:1;" d="M 11.207031 2.847656 L 36.792969 2.847656 C 41.40625 2.847656 45.152344 6.59375 45.152344 11.207031 L 45.152344 36.792969 C 45.152344 41.40625 41.40625 45.152344 36.792969 45.152344 L 11.207031 45.152344 C 6.59375 45.152344 2.847656 41.40625 2.847656 36.792969 L 2.847656 11.207031 C 2.847656 6.59375 6.59375 2.847656 11.207031 2.847656 Z M 11.207031 2.847656 "/>
<path style=" stroke:none;fill-rule:nonzero;fill:rgb(59.607843%,40.784314%,100%);fill-opacity:1;" d="M 24.917969 9.75 C 24.378906 9.75 23.824219 9.769531 23.253906 9.824219 C 18.214844 10.246094 14.605469 12.792969 11.683594 15.808594 C 9.625 17.9375 8.09375 20.925781 7.660156 23.921875 C 7.035156 28.265625 8.214844 32.144531 11.175781 34.9375 C 13.6875 37.308594 17.667969 38.144531 21.839844 38.238281 C 24.765625 38.308594 27.515625 38.0625 29.972656 37.496094 C 31.203125 37.214844 32.410156 36.847656 33.183594 36.386719 C 33.957031 35.921875 34.484375 35.324219 34.5 34.589844 L 34.5 34.582031 C 34.5 33.390625 33.8125 32.410156 32.808594 31.609375 C 29.90625 29.5625 27.53125 28.378906 24.308594 26.753906 C 23.421875 26.332031 22.621094 25.78125 22.5 24.90625 C 22.347656 23.78125 24.0625 23.441406 24.894531 23.347656 C 26.0625 23.246094 27.042969 23.292969 28.230469 23.40625 C 29.410156 23.527344 30.734375 24.589844 31.140625 24.746094 L 31.171875 24.761719 L 31.207031 24.765625 C 31.285156 24.777344 31.40625 24.730469 31.457031 24.671875 C 31.515625 24.613281 31.519531 24.566406 31.53125 24.535156 C 31.546875 24.46875 31.542969 24.441406 31.535156 24.410156 C 31.53125 24.34375 31.519531 24.285156 31.503906 24.207031 C 31.46875 24.050781 31.410156 23.847656 31.332031 23.597656 C 31.066406 22.0625 30.15625 19.847656 29.519531 18.527344 C 29.371094 18.253906 29.21875 18.019531 29.0625 17.832031 C 28.90625 17.652344 28.753906 17.5 28.53125 17.4375 C 28.234375 17.359375 27.808594 17.339844 27.234375 17.34375 C 26.660156 17.355469 25.855469 17.394531 25.066406 17.472656 C 23.488281 17.628906 21.785156 17.921875 19.980469 18.355469 C 18.171875 18.785156 16.46875 19.355469 15.28125 20.089844 C 14.683594 20.453125 14.0625 20.859375 13.78125 21.339844 C 13.5 21.8125 13.425781 22.980469 13.644531 23.535156 C 14.109375 24.746094 15.425781 25.652344 16.863281 26.433594 C 19.875 28.074219 22.53125 29.113281 25.375 30.871094 C 26.421875 31.4375 27.125 32.285156 26.96875 33.140625 C 26.800781 34.042969 25.71875 34.488281 24.78125 34.800781 C 23.097656 35.359375 21.40625 35.300781 19.917969 35.25 C 16.457031 35.097656 13.222656 34.375 10.847656 31.6875 C 9.375 30.015625 9.175781 28.300781 9.015625 25.84375 C 8.859375 23.4375 9.796875 20.75 11.144531 18.75 C 14.144531 14.308594 18.050781 11.734375 23.222656 11.046875 C 29.332031 10.265625 33.503906 12.457031 36.175781 14.816406 C 37.511719 15.996094 38.46875 17.421875 39.082031 18.339844 C 39.390625 18.796875 39.613281 19.171875 39.761719 19.433594 C 39.832031 19.5625 39.890625 19.660156 39.921875 19.722656 C 39.941406 19.753906 39.953125 19.78125 39.96875 19.800781 C 39.972656 19.816406 39.964844 19.8125 40.015625 19.871094 C 40.03125 19.878906 40.109375 19.933594 40.109375 19.933594 C 40.113281 19.933594 40.457031 19.816406 40.457031 19.816406 C 40.464844 19.816406 40.5 19.683594 40.5 19.660156 C 40.5 19.636719 40.496094 19.625 40.496094 19.613281 C 40.480469 19.535156 40.472656 19.542969 40.457031 19.511719 C 40.449219 19.480469 40.425781 19.4375 40.40625 19.394531 C 40.363281 19.300781 40.300781 19.175781 40.21875 19.027344 C 40.050781 18.71875 39.800781 18.300781 39.46875 17.808594 C 38.808594 16.828125 37.800781 15.347656 36.410156 14.109375 C 33.984375 11.941406 30.378906 9.894531 25.453125 9.761719 C 25.277344 9.753906 25.097656 9.75 24.917969 9.75 Z M 24.917969 9.75 "/>
</g>
</svg>
