<?xml version="1.0" encoding="UTF-8"?>
<svg xmlns="http://www.w3.org/2000/svg" xmlns:xlink="http://www.w3.org/1999/xlink" width="48pt" height="48pt" viewBox="0 0 48 48" version="1.1">
<g id="surface1">
<path style=" stroke:none;fill-rule:evenodd;fill:rgb(49.411765%,76.078431%,25.882353%);fill-opacity:1;" d="M 11.207031 2.847656 L 36.792969 2.847656 C 41.40625 2.847656 45.152344 6.59375 45.152344 11.207031 L 45.152344 36.792969 C 45.152344 41.40625 41.40625 45.152344 36.792969 45.152344 L 11.207031 45.152344 C 6.59375 45.152344 2.847656 41.40625 2.847656 36.792969 L 2.847656 11.207031 C 2.847656 6.59375 6.59375 2.847656 11.207031 2.847656 Z M 11.207031 2.847656 "/>
<path style=" stroke:none;fill-rule:nonzero;fill:rgb(100%,100%,100%);fill-opacity:1;" d="M 31.234375 20.707031 L 29.921875 20.707031 L 29.921875 18.078125 L 31.234375 18.078125 L 31.234375 14.128906 L 35.183594 14.128906 L 35.183594 18.078125 L 37.8125 18.078125 L 37.816406 20.707031 L 35.1875 20.707031 L 35.183594 27.140625 C 35.183594 27.8125 35.3125 28.605469 37.15625 28.605469 L 37.8125 28.605469 L 37.816406 32.550781 C 37.816406 32.550781 33.605469 32.558594 33.605469 32.550781 C 31.941406 32.550781 31.234375 30.972656 31.234375 30.160156 C 31.234375 28.253906 31.234375 20.707031 31.234375 20.707031 Z M 31.234375 20.707031 "/>
<path style=" stroke:none;fill-rule:nonzero;fill:rgb(100%,100%,100%);fill-opacity:1;" d="M 13.984375 10.183594 C 12.082031 10.183594 10.183594 12.027344 10.183594 13.871094 L 10.183594 28.871094 C 10.183594 30.714844 12.082031 32.550781 13.984375 32.550781 L 17.871094 32.550781 C 17.933594 32.5625 18.015625 32.519531 18.078125 32.625 L 18.078125 35.949219 C 18.078125 36.871094 19.230469 37.8125 19.980469 37.8125 C 19.980469 37.824219 24.660156 37.8125 24.660156 37.8125 L 24.65625 33.871094 L 23.777344 33.871094 C 21.878906 33.871094 22.035156 33.269531 22.035156 32.59375 C 22.035156 32.558594 22.019531 32.59375 22.015625 32.558594 C 22.019531 32.558594 22.027344 32.550781 22.035156 32.550781 L 23.484375 32.550781 C 25.386719 32.550781 27.285156 30.714844 27.285156 28.871094 L 27.285156 13.871094 C 27.285156 12.027344 25.386719 10.183594 23.484375 10.183594 Z M 16.890625 14.128906 L 20.578125 14.128906 C 22.109375 14.128906 23.339844 15.339844 23.339844 16.84375 L 23.339844 25.890625 C 23.339844 27.394531 22.109375 28.605469 20.578125 28.605469 L 16.890625 28.605469 C 15.359375 28.605469 14.128906 27.394531 14.128906 25.890625 L 14.128906 16.84375 C 14.128906 15.339844 15.359375 14.128906 16.890625 14.128906 Z M 16.890625 14.128906 "/>
</g>
</svg>
