<?xml version="1.0" encoding="UTF-8"?>
<svg xmlns="http://www.w3.org/2000/svg" xmlns:xlink="http://www.w3.org/1999/xlink" width="48pt" height="48pt" viewBox="0 0 48 48" version="1.1">
<g id="surface1">
<path style=" stroke:none;fill-rule:evenodd;fill:rgb(0.784314%,52.54902%,76.078431%);fill-opacity:1;" d="M 11.207031 2.847656 L 36.792969 2.847656 C 41.40625 2.847656 45.152344 6.59375 45.152344 11.207031 L 45.152344 36.792969 C 45.152344 41.40625 41.40625 45.152344 36.792969 45.152344 L 11.207031 45.152344 C 6.59375 45.152344 2.847656 41.40625 2.847656 36.792969 L 2.847656 11.207031 C 2.847656 6.59375 6.59375 2.847656 11.207031 2.847656 Z M 11.207031 2.847656 "/>
<path style=" stroke:none;fill-rule:nonzero;fill:rgb(100%,100%,100%);fill-opacity:1;" d="M 24 12 C 17.375 12 12 17.375 12 24 C 12 30.625 17.375 36 24 36 C 26.75 36 29.417969 35.050781 31.550781 33.324219 C 30.433594 34.089844 29.105469 34.5 27.75 34.5 C 24.019531 34.5 21 31.480469 21 27.75 C 21 24.019531 24.019531 21 27.75 21 C 31.480469 21 34.5 24.019531 34.5 27.75 C 34.5 29.074219 34.109375 30.363281 33.378906 31.464844 C 35.074219 29.34375 35.996094 26.714844 36 24 C 36 17.375 30.625 12 24 12 Z M 24 12 "/>
</g>
</svg>
