<?xml version="1.0" encoding="UTF-8"?>
<svg xmlns="http://www.w3.org/2000/svg" xmlns:xlink="http://www.w3.org/1999/xlink" width="48pt" height="48pt" viewBox="0 0 48 48" version="1.1">
<g id="surface1">
<path style=" stroke:none;fill-rule:evenodd;fill:rgb(80.392157%,52.54902%,32.156863%);fill-opacity:1;" d="M 11.207031 2.847656 L 36.792969 2.847656 C 41.40625 2.847656 45.152344 6.59375 45.152344 11.207031 L 45.152344 36.792969 C 45.152344 41.40625 41.40625 45.152344 36.792969 45.152344 L 11.207031 45.152344 C 6.59375 45.152344 2.847656 41.40625 2.847656 36.792969 L 2.847656 11.207031 C 2.847656 6.59375 6.59375 2.847656 11.207031 2.847656 Z M 11.207031 2.847656 "/>
<path style=" stroke:none;fill-rule:nonzero;fill:rgb(100%,100%,100%);fill-opacity:1;" d="M 33.332031 16.25 C 33.886719 15.761719 34.628906 15.640625 35.191406 15.921875 L 35.296875 15.816406 C 35.636719 15.015625 36.238281 14.125 37.082031 13.308594 C 37.925781 12.488281 38.839844 11.894531 39.660156 11.566406 C 39.660156 11.566406 39.824219 11.410156 40.027344 11.21875 C 40.230469 11.019531 40.105469 10.589844 39.753906 10.246094 L 37.691406 8.238281 C 37.339844 7.894531 36.894531 7.777344 36.699219 7.96875 L 36.339844 8.316406 C 36.003906 9.125 35.394531 10.015625 34.546875 10.839844 C 33.703125 11.660156 32.78125 12.253906 31.953125 12.582031 L 31.878906 12.65625 C 32.234375 13.203125 32.125 13.988281 31.59375 14.558594 L 26.050781 19.917969 C 25.8125 19.902344 25.425781 19.714844 24.910156 18.9375 C 23.988281 17.546875 21.839844 16.753906 20.066406 19.746094 C 18.296875 22.738281 19.765625 23.234375 14.71875 23.800781 C 12.9375 23.902344 11.25 24.5625 9.957031 25.816406 C 6.90625 28.785156 7.25 33.949219 10.734375 37.339844 C 14.222656 40.730469 19.527344 41.066406 22.578125 38.09375 C 22.636719 38.042969 22.6875 37.984375 22.738281 37.933594 C 22.738281 37.933594 22.761719 37.910156 22.792969 37.875 C 23.035156 37.613281 23.261719 37.339844 23.453125 37.050781 C 24.238281 35.96875 25.363281 34.015625 25.109375 31.972656 C 24.734375 28.894531 27.699219 29.035156 28.925781 28.261719 C 30.15625 27.488281 30.589844 26.816406 30.625 26.046875 C 30.625 26.046875 29.160156 27.046875 27.824219 25.746094 C 26.75 24.699219 27.222656 22.917969 27.6875 21.972656 Z M 33.332031 16.25 "/>
</g>
</svg>
