<?xml version="1.0" encoding="UTF-8"?>
<svg xmlns="http://www.w3.org/2000/svg" xmlns:xlink="http://www.w3.org/1999/xlink" width="48pt" height="48pt" viewBox="0 0 48 48" version="1.1">
<g id="surface1">
<path style=" stroke:none;fill-rule:evenodd;fill:rgb(35.294118%,25.098039%,50.196078%);fill-opacity:1;" d="M 11.207031 2.847656 L 36.792969 2.847656 C 41.40625 2.847656 45.152344 6.59375 45.152344 11.207031 L 45.152344 36.792969 C 45.152344 41.40625 41.40625 45.152344 36.792969 45.152344 L 11.207031 45.152344 C 6.59375 45.152344 2.847656 41.40625 2.847656 36.792969 L 2.847656 11.207031 C 2.847656 6.59375 6.59375 2.847656 11.207031 2.847656 Z M 11.207031 2.847656 "/>
<path style=" stroke:none;fill-rule:evenodd;fill:rgb(47.843137%,73.72549%,79.607843%);fill-opacity:1;" d="M 26.84375 45.152344 C 27.09375 44.074219 27.375 43.082031 27.472656 41.667969 C 27.621094 39.535156 27.597656 37.441406 27.410156 36.640625 C 27.160156 35.65625 26.515625 33.886719 26.558594 33.816406 C 26.597656 33.75 27.65625 33.855469 28.558594 33.855469 C 29.613281 33.855469 30.394531 33.894531 30.953125 33.722656 C 31.433594 33.578125 32 33.34375 32.332031 33.363281 C 33.082031 33.402344 33.933594 33.25 34.65625 32.921875 C 35.378906 32.59375 35.980469 32.089844 36.230469 31.421875 C 36.386719 31.011719 37.042969 30.472656 37.214844 30.238281 C 37.496094 29.847656 37.640625 29.527344 37.464844 28.917969 C 37.207031 28.050781 36.160156 27.546875 35.058594 26.535156 C 34.21875 25.769531 33.800781 25.691406 33.761719 24.875 C 33.730469 24.269531 33.890625 23.855469 33.5625 23.546875 C 33.191406 23.199219 32.261719 23.421875 32.199219 23.417969 C 32.003906 23.1875 31.816406 22.957031 31.765625 22.703125 C 31.714844 22.449219 31.796875 22.167969 32.152344 21.839844 C 32.691406 21.347656 33.011719 21.125 33.011719 20.589844 C 33.011719 20.058594 32.691406 19.902344 32.222656 19.488281 C 31.917969 19.21875 31.589844 19 31.488281 19 C 31.390625 19 30.890625 18.605469 30.386719 18.121094 C 29.890625 17.652344 29.472656 17.453125 29.078125 17.371094 C 28.6875 17.28125 28.324219 17.316406 27.941406 17.316406 C 27.628906 17.316406 27.402344 17.167969 27.246094 16.90625 C 27.089844 16.640625 27.011719 16.265625 27.011719 15.816406 C 27.421875 14.324219 28.234375 12.996094 29.105469 11.957031 C 29.96875 10.917969 30.890625 10.160156 31.511719 9.816406 C 29.941406 9.59375 28.589844 9.871094 27.363281 10.441406 C 26.140625 11.011719 25.046875 11.875 24.011719 12.816406 C 23.910156 11.71875 25.390625 9.03125 25.511719 8.324219 C 24.402344 8.902344 23.527344 9.90625 22.800781 11.011719 C 22.082031 12.121094 21.515625 13.328125 21.011719 14.316406 C 20.375 13.453125 20.511719 11.640625 20.261719 10.566406 C 19.28125 11.859375 18.574219 13.621094 18.011719 15.378906 C 17.453125 17.136719 17.035156 18.894531 16.640625 20.1875 C 16.078125 22.027344 15.441406 23.511719 14.691406 24.699219 C 13.941406 25.890625 13.074219 26.78125 12.058594 27.4375 C 10.84375 28.21875 9.761719 28.621094 7.417969 29.152344 C 7.050781 29.261719 4.71875 30.074219 2.847656 30.730469 L 2.847656 36.792969 C 2.847656 41.421875 6.578125 45.152344 11.214844 45.152344 Z M 26.84375 45.152344 "/>
<path style=" stroke:none;fill-rule:evenodd;fill:rgb(35.294118%,25.098039%,50.196078%);fill-opacity:1;" d="M 11.214844 2.847656 C 6.578125 2.847656 2.847656 6.578125 2.847656 11.214844 L 2.847656 30.730469 C 4.71875 30.074219 7.050781 29.261719 7.417969 29.152344 C 9.761719 28.621094 10.84375 28.21875 12.058594 27.4375 C 13.074219 26.78125 13.941406 25.890625 14.691406 24.699219 C 15.441406 23.511719 16.078125 22.027344 16.640625 20.1875 C 17.035156 18.894531 17.453125 17.136719 18.011719 15.378906 C 18.574219 13.621094 19.28125 11.859375 20.261719 10.566406 C 20.511719 11.640625 20.375 13.453125 21.011719 14.316406 C 21.515625 13.328125 22.082031 12.121094 22.800781 11.011719 C 23.527344 9.90625 24.402344 8.902344 25.511719 8.324219 C 25.511719 8.324219 25.511719 8.316406 25.511719 8.316406 C 25.511719 8.316406 25.511719 8.324219 25.511719 8.324219 C 25.390625 9.03125 23.910156 11.71875 24.011719 12.816406 C 25.046875 11.875 26.140625 11.011719 27.363281 10.441406 C 28.589844 9.871094 29.941406 9.59375 31.511719 9.816406 C 30.890625 10.160156 29.96875 10.917969 29.105469 11.957031 C 28.234375 12.996094 27.421875 14.324219 27.011719 15.816406 C 27.011719 16.265625 27.089844 16.640625 27.246094 16.90625 C 27.402344 17.167969 27.628906 17.316406 27.941406 17.316406 C 28.324219 17.316406 28.6875 17.28125 29.078125 17.363281 C 29.472656 17.453125 29.890625 17.652344 30.386719 18.121094 C 30.890625 18.605469 31.390625 19 31.488281 19 C 31.589844 19 31.917969 19.21875 32.222656 19.488281 C 32.691406 19.902344 33.011719 20.058594 33.011719 20.589844 C 33.011719 21.125 32.691406 21.347656 32.152344 21.839844 C 31.796875 22.167969 31.714844 22.449219 31.765625 22.703125 C 31.816406 22.957031 32.003906 23.1875 32.199219 23.410156 C 32.261719 23.421875 33.191406 23.199219 33.5625 23.546875 C 33.890625 23.855469 33.730469 24.269531 33.761719 24.875 C 33.800781 25.691406 34.21875 25.769531 35.058594 26.535156 C 36.160156 27.546875 37.207031 28.050781 37.464844 28.917969 C 37.640625 29.527344 37.496094 29.847656 37.214844 30.238281 C 37.042969 30.472656 36.386719 31.011719 36.230469 31.421875 C 35.980469 32.089844 35.378906 32.59375 34.65625 32.921875 C 33.933594 33.25 33.082031 33.402344 32.332031 33.363281 C 32 33.34375 31.433594 33.578125 30.953125 33.722656 C 30.394531 33.894531 29.613281 33.855469 28.558594 33.855469 C 27.65625 33.855469 26.597656 33.75 26.558594 33.816406 C 26.515625 33.886719 27.160156 35.65625 27.410156 36.640625 C 27.597656 37.441406 27.621094 39.535156 27.472656 41.667969 C 27.375 43.082031 27.09375 44.074219 26.84375 45.152344 L 36.792969 45.152344 C 41.421875 45.152344 45.152344 41.421875 45.152344 36.792969 L 45.152344 11.214844 C 45.152344 6.578125 41.421875 2.847656 36.792969 2.847656 Z M 11.214844 2.847656 "/>
</g>
</svg>
