<?xml version="1.0" encoding="UTF-8"?>
<svg xmlns="http://www.w3.org/2000/svg" xmlns:xlink="http://www.w3.org/1999/xlink" width="48pt" height="48pt" viewBox="0 0 48 48" version="1.1">
<g id="surface1">
<path style=" stroke:none;fill-rule:evenodd;fill:rgb(80%,80%,80%);fill-opacity:1;" d="M 23.550781 30.691406 C 21.667969 30.691406 19.832031 31.074219 18.472656 31.785156 C 17.792969 32.140625 17.230469 32.582031 16.832031 33.105469 C 16.441406 33.625 16.21875 34.21875 16.21875 34.890625 C 16.21875 35.566406 16.558594 36.328125 17.121094 37.09375 C 17.6875 37.855469 18.480469 38.625 19.390625 39.300781 C 20.296875 39.984375 21.328125 40.582031 22.363281 41.011719 C 23.402344 41.4375 24.441406 41.699219 25.386719 41.699219 C 26.140625 41.699219 26.863281 41.371094 27.519531 40.859375 C 28.175781 40.34375 28.769531 39.640625 29.269531 38.878906 C 30.269531 37.359375 30.886719 35.621094 30.886719 34.722656 C 30.886719 34.25 30.667969 33.761719 30.269531 33.292969 C 29.878906 32.828125 29.316406 32.378906 28.636719 31.996094 C 27.269531 31.222656 25.4375 30.691406 23.550781 30.691406 Z M 23.550781 30.691406 "/>
<path style=" stroke:none;fill-rule:evenodd;fill:rgb(80%,80%,80%);fill-opacity:1;" d="M 36.390625 17.902344 C 35.375 17.902344 34.457031 18.207031 33.792969 18.699219 C 33.128906 19.191406 32.722656 19.875 32.722656 20.628906 C 32.722656 21.386719 33.128906 22.066406 33.792969 22.5625 C 34.457031 23.058594 35.375 23.359375 36.390625 23.359375 C 37.402344 23.359375 38.316406 23.058594 38.984375 22.5625 C 39.644531 22.066406 40.050781 21.386719 40.050781 20.628906 C 40.050781 19.875 39.644531 19.191406 38.984375 18.699219 C 38.316406 18.207031 37.402344 17.902344 36.390625 17.902344 Z M 36.390625 17.902344 "/>
<path style=" stroke:none;fill-rule:evenodd;fill:rgb(30.980392%,30.980392%,30.980392%);fill-opacity:1;" d="M 43.550781 6.542969 C 43.078125 6.9375 41.71875 8.125 38.722656 10.035156 C 37 11.140625 34.9375 12.339844 32.640625 13.449219 C 30.34375 14.5625 27.808594 15.589844 25.128906 16.355469 C 24.933594 17.09375 24.613281 18.015625 24.136719 18.980469 C 23.660156 19.949219 23.015625 20.964844 22.175781 21.878906 C 21.332031 22.800781 20.292969 23.628906 19.003906 24.230469 C 17.71875 24.828125 16.191406 25.199219 14.386719 25.199219 C 13.316406 25.199219 12.347656 25.074219 11.472656 24.847656 C 10.597656 24.628906 9.816406 24.308594 9.113281 23.917969 C 7.707031 23.136719 6.636719 22.0625 5.808594 20.902344 C 4.980469 19.746094 4.40625 18.496094 4 17.359375 C 3.597656 16.230469 3.371094 15.207031 3.238281 14.511719 C 3.0625 14.378906 3.027344 14.316406 2.847656 14.160156 L 2.847656 36.792969 C 2.847656 41.421875 6.578125 45.152344 11.207031 45.152344 L 36.792969 45.152344 C 41.421875 45.152344 45.152344 41.421875 45.152344 36.792969 L 45.152344 11.207031 C 45.152344 9.4375 44.484375 7.890625 43.550781 6.542969 Z M 36.390625 17.902344 C 37.402344 17.902344 38.316406 18.207031 38.984375 18.699219 C 39.644531 19.191406 40.050781 19.875 40.050781 20.628906 C 40.050781 21.386719 39.644531 22.066406 38.984375 22.5625 C 38.316406 23.058594 37.402344 23.359375 36.390625 23.359375 C 35.375 23.359375 34.457031 23.058594 33.792969 22.5625 C 33.128906 22.066406 32.722656 21.386719 32.722656 20.628906 C 32.722656 19.875 33.128906 19.191406 33.792969 18.699219 C 34.457031 18.207031 35.375 17.902344 36.390625 17.902344 Z M 23.550781 30.691406 C 25.4375 30.691406 27.269531 31.222656 28.636719 31.996094 C 29.316406 32.378906 29.878906 32.828125 30.269531 33.292969 C 30.667969 33.761719 30.886719 34.25 30.886719 34.722656 C 30.886719 35.621094 30.269531 37.359375 29.269531 38.878906 C 28.769531 39.640625 28.175781 40.34375 27.519531 40.859375 C 26.863281 41.371094 26.140625 41.699219 25.386719 41.699219 C 24.441406 41.699219 23.402344 41.4375 22.363281 41.011719 C 21.328125 40.582031 20.296875 39.984375 19.390625 39.300781 C 18.480469 38.625 17.6875 37.855469 17.121094 37.09375 C 16.558594 36.328125 16.21875 35.566406 16.21875 34.890625 C 16.21875 34.21875 16.441406 33.625 16.832031 33.105469 C 17.230469 32.582031 17.792969 32.140625 18.472656 31.785156 C 19.832031 31.074219 21.667969 30.691406 23.550781 30.691406 Z M 23.550781 30.691406 "/>
<path style=" stroke:none;fill-rule:evenodd;fill:rgb(80%,80%,80%);fill-opacity:1;" d="M 42.34375 5.046875 C 41.925781 5.394531 39.402344 7.578125 34.75 10.160156 C 32.246094 11.558594 29.28125 12.964844 26.019531 14.050781 C 24.390625 14.597656 22.683594 15.0625 20.925781 15.40625 C 19.171875 15.746094 17.359375 15.96875 15.519531 16.027344 C 13.5 16.089844 11.75 15.863281 10.253906 15.511719 C 8.765625 15.15625 7.53125 14.667969 6.535156 14.191406 C 4.636719 13.285156 3 11.683594 2.847656 11.535156 L 2.847656 14.160156 C 3.027344 14.316406 3.0625 14.378906 3.238281 14.511719 C 3.371094 15.207031 3.597656 16.230469 4 17.359375 C 4.40625 18.496094 4.980469 19.746094 5.808594 20.902344 C 6.636719 22.0625 7.707031 23.136719 9.113281 23.917969 C 9.816406 24.308594 10.597656 24.628906 11.472656 24.847656 C 12.347656 25.074219 13.316406 25.199219 14.386719 25.199219 C 16.191406 25.199219 17.71875 24.828125 19.003906 24.230469 C 20.292969 23.628906 21.332031 22.800781 22.175781 21.878906 C 23.015625 20.964844 23.660156 19.949219 24.136719 18.980469 C 24.613281 18.015625 24.933594 17.09375 25.128906 16.355469 C 27.808594 15.589844 30.34375 14.5625 32.640625 13.449219 C 34.9375 12.339844 37 11.140625 38.722656 10.035156 C 41.71875 8.125 43.078125 6.9375 43.550781 6.542969 C 43.175781 6.003906 42.828125 5.480469 42.34375 5.046875 Z M 42.34375 5.046875 "/>
<path style=" stroke:none;fill-rule:evenodd;fill:rgb(30.980392%,30.980392%,30.980392%);fill-opacity:1;" d="M 11.207031 2.847656 C 6.578125 2.847656 2.847656 6.578125 2.847656 11.207031 L 2.847656 11.535156 C 3 11.683594 4.636719 13.285156 6.535156 14.191406 C 7.53125 14.667969 8.765625 15.15625 10.253906 15.511719 C 11.75 15.863281 13.5 16.089844 15.519531 16.027344 C 17.359375 15.96875 19.171875 15.746094 20.925781 15.40625 C 22.683594 15.0625 24.390625 14.597656 26.019531 14.050781 C 29.28125 12.964844 32.246094 11.558594 34.75 10.160156 C 39.402344 7.578125 41.925781 5.394531 42.34375 5.046875 C 40.863281 3.714844 38.949219 2.847656 36.792969 2.847656 Z M 11.207031 2.847656 "/>
</g>
</svg>
