<?xml version="1.0" encoding="UTF-8"?>
<svg xmlns="http://www.w3.org/2000/svg" xmlns:xlink="http://www.w3.org/1999/xlink" width="48pt" height="48pt" viewBox="0 0 48 48" version="1.1">
<g id="surface1">
<path style=" stroke:none;fill-rule:evenodd;fill:rgb(79.215686%,63.137255%,49.019608%);fill-opacity:1;" d="M 11.207031 2.847656 L 36.792969 2.847656 C 41.40625 2.847656 45.152344 6.59375 45.152344 11.207031 L 45.152344 36.792969 C 45.152344 41.40625 41.40625 45.152344 36.792969 45.152344 L 11.207031 45.152344 C 6.59375 45.152344 2.847656 41.40625 2.847656 36.792969 L 2.847656 11.207031 C 2.847656 6.59375 6.59375 2.847656 11.207031 2.847656 Z M 11.207031 2.847656 "/>
<path style=" stroke:none;fill-rule:nonzero;fill:rgb(52.156863%,33.72549%,16.078431%);fill-opacity:1;" d="M 18.75 28.5 L 18.75 38.5 C 18.75 39.609375 19.417969 40.5 20.25 40.5 L 21.75 40.5 C 22.582031 40.5 23.25 39.609375 23.25 38.5 L 23.25 28.5 Z M 18.75 28.5 "/>
<path style=" stroke:none;fill-rule:nonzero;fill:rgb(80%,80%,80%);fill-opacity:1;" d="M 18.75 7.5 C 18.75 7.5 29.25 13.308594 29.25 28.5 L 18.75 28.5 Z M 18.75 7.5 "/>
<path style=" stroke:none;fill-rule:nonzero;fill:rgb(80%,80%,80%);fill-opacity:1;" d="M 21.75 32.25 C 21.75 32.667969 21.417969 33 21 33 C 20.582031 33 20.25 32.667969 20.25 32.25 C 20.25 31.832031 20.582031 31.5 21 31.5 C 21.417969 31.5 21.75 31.832031 21.75 32.25 Z M 21.75 32.25 "/>
<path style=" stroke:none;fill-rule:nonzero;fill:rgb(80%,80%,80%);fill-opacity:1;" d="M 21.75 36.75 C 21.75 37.167969 21.417969 37.5 21 37.5 C 20.582031 37.5 20.25 37.167969 20.25 36.75 C 20.25 36.332031 20.582031 36 21 36 C 21.417969 36 21.75 36.332031 21.75 36.75 Z M 21.75 36.75 "/>
<path style=" stroke:none;fill-rule:nonzero;fill:rgb(90.588235%,29.803922%,23.529412%);fill-opacity:1;" d="M 42.613281 33.402344 C 42.613281 38.371094 38.582031 42.402344 33.613281 42.402344 C 28.640625 42.402344 24.613281 38.371094 24.613281 33.402344 C 24.613281 28.433594 28.640625 24.402344 33.613281 24.402344 C 38.582031 24.402344 42.613281 28.433594 42.613281 33.402344 Z M 42.613281 33.402344 "/>
<path style=" stroke:none;fill-rule:evenodd;fill:rgb(65.098039%,93.72549%,30.196078%);fill-opacity:1;" d="M 31.613281 23.402344 L 31.613281 24.636719 C 29.011719 25.230469 26.808594 26.949219 25.597656 29.328125 C 26.269531 29.207031 27.667969 28.859375 29.78125 27.707031 C 30.613281 27.25 31.339844 26.84375 31.613281 26.402344 C 29.21875 29.402344 31.8125 29.839844 33.113281 31.402344 C 33.113281 31.402344 36.15625 29.402344 33.613281 26.402344 C 36.613281 27.859375 39.613281 27.402344 39.613281 27.402344 C 39.613281 27.402344 39.628906 27.105469 39.609375 26.703125 C 37.964844 25.222656 35.828125 24.40625 33.613281 24.402344 L 33.613281 23.402344 Z M 31.613281 23.402344 "/>
</g>
</svg>
