<?xml version="1.0" encoding="UTF-8"?>
<svg xmlns="http://www.w3.org/2000/svg" xmlns:xlink="http://www.w3.org/1999/xlink" width="48pt" height="48pt" viewBox="0 0 48 48" version="1.1">
<g id="surface1">
<path style=" stroke:none;fill-rule:evenodd;fill:rgb(80%,80%,80%);fill-opacity:1;" d="M 11.207031 2.847656 L 36.792969 2.847656 C 41.40625 2.847656 45.152344 6.59375 45.152344 11.207031 L 45.152344 36.792969 C 45.152344 41.40625 41.40625 45.152344 36.792969 45.152344 L 11.207031 45.152344 C 6.59375 45.152344 2.847656 41.40625 2.847656 36.792969 L 2.847656 11.207031 C 2.847656 6.59375 6.59375 2.847656 11.207031 2.847656 Z M 11.207031 2.847656 "/>
<path style=" stroke:none;fill-rule:nonzero;fill:rgb(33.72549%,33.72549%,33.72549%);fill-opacity:1;" d="M 16.5 14.25 L 19.5 18.75 L 13.5 18.75 L 12.75 21.75 L 9 21.75 L 9.75 17.25 L 7.5 17.25 L 6 26.25 L 11.402344 26.25 L 10.5 29.25 L 15.75 29.25 L 12 33.75 L 16.5 33.75 L 19.5 29.25 L 28.5 29.25 L 31.5 33.75 L 36 33.75 L 32.25 29.25 L 37.5 29.25 L 36.597656 26.25 L 42 26.25 L 40.5 17.25 L 38.25 17.25 L 39 21.75 L 35.25 21.75 L 34.5 18.75 L 28.5 18.75 L 31.5 14.25 L 29.25 14.25 L 26.25 18.75 L 21.75 18.75 L 18.75 14.25 Z M 16.5 14.25 "/>
<path style=" stroke:none;fill-rule:nonzero;fill:rgb(100%,100%,100%);fill-opacity:1;" d="M 28.5 21.75 L 28.5 24.75 L 31.5 24.75 L 31.5 21.75 Z M 28.5 21.75 "/>
<path style=" stroke:none;fill-rule:nonzero;fill:rgb(100%,100%,100%);fill-opacity:1;" d="M 16.5 21.75 L 16.5 24.75 L 19.5 24.75 L 19.5 21.75 Z M 16.5 21.75 "/>
</g>
</svg>
