<?xml version="1.0" encoding="UTF-8"?>
<svg xmlns="http://www.w3.org/2000/svg" xmlns:xlink="http://www.w3.org/1999/xlink" width="48pt" height="48pt" viewBox="0 0 48 48" version="1.1">
<g id="surface1">
<path style=" stroke:none;fill-rule:evenodd;fill:rgb(32.156863%,51.764706%,37.254902%);fill-opacity:1;" d="M 11.207031 2.847656 L 36.792969 2.847656 C 41.40625 2.847656 45.152344 6.59375 45.152344 11.207031 L 45.152344 36.792969 C 45.152344 41.40625 41.40625 45.152344 36.792969 45.152344 L 11.207031 45.152344 C 6.59375 45.152344 2.847656 41.40625 2.847656 36.792969 L 2.847656 11.207031 C 2.847656 6.59375 6.59375 2.847656 11.207031 2.847656 Z M 11.207031 2.847656 "/>
<path style=" stroke:none;fill-rule:evenodd;fill:rgb(32.156863%,51.764706%,37.254902%);fill-opacity:1;" d="M 34.5 45.152344 L 34.5 19.78125 L 13.5 19.78125 L 13.5 25.78125 L 26.402344 25.78125 C 26.980469 25.78125 27.503906 26.015625 27.886719 26.394531 C 28.265625 26.777344 28.5 27.296875 28.5 27.878906 L 28.5 45.152344 Z M 34.5 45.152344 "/>
<path style=" stroke:none;fill-rule:evenodd;fill:rgb(98.431373%,76.078431%,58.431373%);fill-opacity:1;" d="M 39 44.707031 L 39 17.824219 C 39 17.128906 38.703125 16.496094 38.238281 16.035156 C 37.769531 15.574219 37.136719 15.28125 36.453125 15.28125 L 11.546875 15.28125 C 10.863281 15.28125 10.230469 15.574219 9.761719 16.035156 C 9.296875 16.496094 9 17.128906 9 17.824219 L 9 27.734375 C 9 28.425781 9.296875 29.066406 9.761719 29.535156 C 10.230469 30 10.863281 30.292969 11.546875 30.28125 L 24 30.28125 L 24 45.152344 L 28.5 45.152344 L 28.5 27.878906 C 28.5 27.296875 28.265625 26.777344 27.886719 26.394531 C 27.503906 26.015625 26.980469 25.78125 26.402344 25.78125 L 13.5 25.78125 L 13.5 19.78125 L 34.5 19.78125 L 34.5 45.152344 L 36.792969 45.152344 C 37.578125 45.152344 38.28125 44.90625 39 44.707031 Z M 39 44.707031 "/>
<path style=" stroke:none;fill-rule:evenodd;fill:rgb(32.156863%,51.764706%,37.254902%);fill-opacity:1;" d="M 11.207031 2.847656 C 6.578125 2.847656 2.847656 6.578125 2.847656 11.207031 L 2.847656 36.792969 C 2.847656 41.421875 6.578125 45.152344 11.207031 45.152344 L 24 45.152344 L 24 30.28125 L 11.546875 30.28125 C 10.863281 30.292969 10.230469 30 9.761719 29.535156 C 9.296875 29.066406 9 28.425781 9 27.734375 L 9 17.824219 C 9 17.128906 9.296875 16.496094 9.761719 16.035156 C 10.230469 15.574219 10.863281 15.28125 11.546875 15.28125 L 36.453125 15.28125 C 37.136719 15.28125 37.769531 15.574219 38.238281 16.035156 C 38.703125 16.496094 39 17.128906 39 17.824219 L 39 44.707031 C 42.527344 43.722656 45.152344 40.640625 45.152344 36.792969 L 45.152344 11.207031 C 45.152344 6.578125 41.421875 2.847656 36.792969 2.847656 Z M 11.207031 2.847656 "/>
</g>
</svg>
