<?xml version="1.0" encoding="UTF-8"?>
<svg xmlns="http://www.w3.org/2000/svg" xmlns:xlink="http://www.w3.org/1999/xlink" width="48pt" height="48pt" viewBox="0 0 48 48" version="1.1">
<g id="surface1">
<path style=" stroke:none;fill-rule:nonzero;fill:rgb(12.54902%,52.54902%,90.588235%);fill-opacity:1;" d="M 45 10.453125 C 44.917969 9.582031 44.824219 8.71875 44.496094 7.949219 C 44.074219 6.949219 43.464844 6.046875 42.707031 5.292969 C 41.949219 4.535156 41.050781 3.921875 40.046875 3.5 C 39.28125 3.175781 38.417969 3.082031 37.550781 3 L 24 3 L 24 24 L 45 24 Z M 45 10.453125 "/>
<path style=" stroke:none;fill-rule:nonzero;fill:rgb(78.039216%,14.509804%,40%);fill-opacity:1;" d="M 10.449219 3 C 9.582031 3.082031 8.714844 3.175781 7.949219 3.5 C 6.949219 3.921875 6.046875 4.535156 5.292969 5.292969 C 4.535156 6.046875 3.921875 6.949219 3.5 7.949219 C 3.175781 8.714844 3.082031 9.582031 3 10.449219 L 3 24 L 24 24 L 24 3 Z M 10.449219 3 "/>
<path style=" stroke:none;fill-rule:nonzero;fill:rgb(78.039216%,14.509804%,40%);fill-opacity:1;" d="M 37.550781 45 C 38.417969 44.917969 39.285156 44.824219 40.050781 44.5 C 41.050781 44.078125 41.953125 43.464844 42.707031 42.707031 C 43.464844 41.953125 44.078125 41.050781 44.5 40.050781 C 44.824219 39.285156 44.917969 38.417969 45 37.550781 L 45 24 L 24 24 L 24 45 Z M 37.550781 45 "/>
<path style=" stroke:none;fill-rule:nonzero;fill:rgb(100%,54.901961%,16.470588%);fill-opacity:1;" d="M 3 37.546875 C 3.082031 38.417969 3.183594 39.28125 3.503906 40.050781 C 3.925781 41.050781 4.535156 41.953125 5.292969 42.707031 C 6.050781 43.464844 6.949219 44.078125 7.953125 44.5 C 8.71875 44.824219 9.582031 44.917969 10.449219 45 L 24 45 L 24 24 L 3 24 Z M 3 37.546875 "/>
<path style=" stroke:none;fill-rule:evenodd;fill:rgb(24.705882%,24.705882%,24.705882%);fill-opacity:1;" d="M 14.285156 7.933594 L 33.714844 7.933594 C 37.222656 7.933594 40.066406 10.777344 40.066406 14.285156 L 40.066406 33.714844 C 40.066406 37.222656 37.222656 40.066406 33.714844 40.066406 L 14.285156 40.066406 C 10.777344 40.066406 7.933594 37.222656 7.933594 33.714844 L 7.933594 14.285156 C 7.933594 10.777344 10.777344 7.933594 14.285156 7.933594 Z M 14.285156 7.933594 "/>
<path style="fill:none;stroke-width:2;stroke-linecap:round;stroke-linejoin:miter;stroke:rgb(100%,100%,100%);stroke-opacity:1;stroke-miterlimit:4;" d="M 56.457162 -11.035731 L 64.456253 -11.035731 " transform="matrix(1.347809,0,0,1.347809,-60.171615,48.331092)"/>
<path style="fill:none;stroke-width:2;stroke-linecap:round;stroke-linejoin:bevel;stroke:rgb(100%,100%,100%);stroke-opacity:1;stroke-miterlimit:4;" d="M 64.456253 -17.032151 C 64.456253 -17.032151 68.50217 -16.684364 68.455799 -21.034595 C 68.412326 -25.381927 64.456253 -25.034141 64.456253 -25.034141 M 64.44466 -17.032151 L 64.44466 -25.034141 " transform="matrix(1.347809,0,0,1.347809,-60.171615,48.331092)"/>
<path style="fill:none;stroke-width:2;stroke-linecap:round;stroke-linejoin:miter;stroke:rgb(100%,100%,100%);stroke-opacity:1;stroke-miterlimit:4;" d="M 60.456708 -17.032151 L 58.459833 -20.034708 M 56.457162 -21.034595 C 56.457162 -21.034595 60.456708 -20.567981 60.456708 -23.034368 C 60.456708 -25.497856 56.457162 -25.034141 56.457162 -25.034141 M 56.457162 -17.032151 L 56.457162 -25.034141 " transform="matrix(1.347809,0,0,1.347809,-60.171615,48.331092)"/>
</g>
</svg>
