<?xml version="1.0" encoding="UTF-8"?>
<svg xmlns="http://www.w3.org/2000/svg" xmlns:xlink="http://www.w3.org/1999/xlink" width="48pt" height="48pt" viewBox="0 0 48 48" version="1.1">
<g id="surface1">
<path style=" stroke:none;fill-rule:evenodd;fill:rgb(19.215686%,63.921569%,70.196078%);fill-opacity:1;" d="M 11.207031 2.847656 L 36.792969 2.847656 C 41.40625 2.847656 45.152344 6.59375 45.152344 11.207031 L 45.152344 36.792969 C 45.152344 41.40625 41.40625 45.152344 36.792969 45.152344 L 11.207031 45.152344 C 6.59375 45.152344 2.847656 41.40625 2.847656 36.792969 L 2.847656 11.207031 C 2.847656 6.59375 6.59375 2.847656 11.207031 2.847656 Z M 11.207031 2.847656 "/>
<path style=" stroke:none;fill-rule:nonzero;fill:rgb(100%,100%,100%);fill-opacity:1;" d="M 13.171875 8.574219 L 16.0625 6.90625 C 17.660156 5.984375 19.796875 6.691406 20.832031 8.488281 L 35.847656 34.5 C 36.890625 36.296875 36.433594 38.5 34.839844 39.421875 L 31.949219 41.089844 C 30.355469 42.011719 28.21875 41.300781 27.183594 39.503906 L 12.160156 13.496094 C 11.125 11.699219 11.578125 9.496094 13.171875 8.574219 Z M 13.171875 8.574219 "/>
<path style=" stroke:none;fill-rule:nonzero;fill:rgb(40.392157%,73.72549%,78.431373%);fill-opacity:1;" d="M 34.832031 8.578125 L 31.941406 6.910156 C 30.347656 5.988281 28.214844 6.699219 27.175781 8.496094 L 12.15625 34.503906 C 11.121094 36.300781 11.574219 38.503906 13.171875 39.425781 L 16.058594 41.09375 C 17.65625 42.015625 19.792969 41.308594 20.828125 39.511719 L 35.847656 13.5 C 36.886719 11.703125 36.433594 9.5 34.832031 8.578125 Z M 34.832031 8.578125 "/>
<path style=" stroke:none;fill-rule:nonzero;fill:rgb(58.039216%,83.137255%,87.058824%);fill-opacity:1;" d="M 42.777344 25.667969 L 42.777344 22.328125 C 42.777344 20.484375 41.09375 18.988281 39.019531 18.988281 L 8.980469 18.988281 C 6.90625 18.988281 5.222656 20.484375 5.222656 22.328125 L 5.222656 25.667969 C 5.222656 27.511719 6.90625 29 8.980469 29 L 39.019531 29 C 41.09375 29 42.777344 27.511719 42.777344 25.667969 Z M 42.777344 25.667969 "/>
</g>
</svg>
