<?xml version="1.0" encoding="UTF-8"?>
<svg xmlns="http://www.w3.org/2000/svg" xmlns:xlink="http://www.w3.org/1999/xlink" width="48pt" height="48pt" viewBox="0 0 48 48" version="1.1">
<g id="surface1">
<path style=" stroke:none;fill-rule:evenodd;fill:rgb(80%,80%,80%);fill-opacity:1;" d="M 11.207031 2.847656 L 36.792969 2.847656 C 41.40625 2.847656 45.152344 6.59375 45.152344 11.207031 L 45.152344 36.792969 C 45.152344 41.40625 41.40625 45.152344 36.792969 45.152344 L 11.207031 45.152344 C 6.59375 45.152344 2.847656 41.40625 2.847656 36.792969 L 2.847656 11.207031 C 2.847656 6.59375 6.59375 2.847656 11.207031 2.847656 Z M 11.207031 2.847656 "/>
<path style=" stroke:none;fill-rule:nonzero;fill:rgb(50.196078%,50.196078%,50.196078%);fill-opacity:1;" d="M 24 10.480469 C 14.058594 10.480469 6 16.1875 6 23.230469 C 6 30.269531 14.058594 35.980469 24 35.980469 C 33.941406 35.980469 42 30.269531 42 23.230469 C 42 16.1875 33.941406 10.480469 24 10.480469 Z M 27 14.980469 C 34.457031 14.980469 40.5 18.675781 40.5 23.230469 C 40.5 27.785156 34.457031 31.480469 27 31.480469 C 19.542969 31.480469 13.5 27.785156 13.5 23.230469 C 13.5 18.675781 19.542969 14.980469 27 14.980469 Z M 27 14.980469 "/>
<path style=" stroke:none;fill-rule:evenodd;fill:rgb(11.764706%,38.431373%,69.803922%);fill-opacity:1;" d="M 34.652344 29.230469 C 34.652344 29.230469 35.230469 29.0625 35.808594 29.359375 C 36.011719 29.464844 36.359375 29.667969 36.609375 29.9375 C 36.855469 30.203125 36.972656 30.46875 36.972656 30.46875 L 40.5 37.519531 L 33 37.519531 C 33 37.519531 31.324219 32.621094 29.753906 30.519531 C 29.441406 30.265625 29.183594 29.996094 28.875 30.019531 L 27 30.019531 L 27 37.515625 L 21 37.515625 L 21 16.519531 L 32.371094 16.519531 C 33.597656 16.519531 38.816406 17.269531 39 22.519531 C 38.816406 27.769531 34.652344 29.269531 34.652344 29.269531 Z M 27 20.980469 L 27 25.480469 L 31.5 25.480469 C 31.5 25.480469 33 25.535156 33 23.230469 C 33 20.8125 31.5 20.984375 31.5 20.984375 Z M 27 20.980469 "/>
</g>
</svg>
