<?xml version="1.0" encoding="UTF-8"?>
<svg xmlns="http://www.w3.org/2000/svg" xmlns:xlink="http://www.w3.org/1999/xlink" width="48pt" height="48pt" viewBox="0 0 48 48" version="1.1">
<g id="surface1">
<path style=" stroke:none;fill-rule:evenodd;fill:rgb(75.686275%,15.294118%,17.647059%);fill-opacity:1;" d="M 11.207031 2.847656 L 36.792969 2.847656 C 41.40625 2.847656 45.152344 6.59375 45.152344 11.207031 L 45.152344 36.792969 C 45.152344 41.40625 41.40625 45.152344 36.792969 45.152344 L 11.207031 45.152344 C 6.59375 45.152344 2.847656 41.40625 2.847656 36.792969 L 2.847656 11.207031 C 2.847656 6.59375 6.59375 2.847656 11.207031 2.847656 Z M 11.207031 2.847656 "/>
<path style=" stroke:none;fill-rule:nonzero;fill:rgb(100%,100%,100%);fill-opacity:1;" d="M 9.621094 10.578125 C 10.753906 12.167969 11.566406 15.207031 12.011719 18.71875 C 10.453125 20.28125 9.625 22.121094 9.621094 24 C 9.625 25.933594 10.503906 27.816406 12.144531 29.410156 C 11.769531 32.863281 10.964844 35.855469 9.621094 37.421875 C 13.519531 37.421875 17.019531 35.746094 19.472656 33.089844 C 20.933594 33.417969 22.464844 33.582031 24 33.589844 C 31.941406 33.582031 38.378906 29.292969 38.378906 24 C 38.378906 18.707031 31.941406 14.417969 24 14.410156 C 22.464844 14.417969 20.933594 14.589844 19.472656 14.917969 C 17.027344 12.253906 13.519531 10.578125 9.621094 10.578125 Z M 9.621094 10.578125 "/>
<path style=" stroke:none;fill-rule:nonzero;fill:rgb(75.686275%,15.294118%,17.647059%);fill-opacity:1;" d="M 24 16.332031 C 20.375 16.332031 17.125 17.332031 14.894531 18.816406 C 12.667969 20.300781 11.535156 22.128906 11.535156 24 C 11.542969 25.347656 12.140625 26.730469 13.480469 28.03125 C 13.902344 28.441406 14.113281 29.027344 14.050781 29.613281 C 13.84375 31.53125 13.53125 33.324219 13.027344 34.925781 C 14.96875 34.316406 16.707031 33.261719 18.0625 31.792969 C 18.527344 31.285156 19.222656 31.074219 19.890625 31.21875 C 21.207031 31.515625 22.605469 31.667969 24.003906 31.667969 C 27.625 31.667969 30.878906 30.667969 33.105469 29.183594 C 35.332031 27.699219 36.464844 25.871094 36.464844 24 C 36.464844 22.128906 35.332031 20.300781 33.105469 18.816406 C 30.875 17.332031 27.625 16.332031 24 16.332031 Z M 24 16.332031 "/>
<path style=" stroke:none;fill-rule:nonzero;fill:rgb(100%,100%,100%);fill-opacity:1;" d="M 18.25 22.082031 C 17.1875 22.082031 16.332031 22.941406 16.332031 24 C 16.332031 25.058594 17.1875 25.917969 18.25 25.917969 C 19.308594 25.917969 20.167969 25.058594 20.167969 24 C 20.167969 22.941406 19.308594 22.082031 18.25 22.082031 Z M 24 22.082031 C 22.941406 22.082031 22.082031 22.941406 22.082031 24 C 22.082031 25.058594 22.941406 25.917969 24 25.917969 C 25.058594 25.917969 25.917969 25.058594 25.917969 24 C 25.917969 22.941406 25.058594 22.082031 24 22.082031 Z M 29.75 22.082031 C 28.691406 22.082031 27.832031 22.941406 27.832031 24 C 27.832031 25.058594 28.691406 25.917969 29.75 25.917969 C 30.8125 25.917969 31.667969 25.058594 31.667969 24 C 31.667969 22.941406 30.8125 22.082031 29.75 22.082031 Z M 29.75 22.082031 "/>
</g>
</svg>
