<?xml version="1.0" encoding="UTF-8"?>
<svg xmlns="http://www.w3.org/2000/svg" xmlns:xlink="http://www.w3.org/1999/xlink" width="48pt" height="48pt" viewBox="0 0 48 48" version="1.1">
<g id="surface1">
<path style=" stroke:none;fill-rule:evenodd;fill:rgb(21.568627%,62.745098%,94.901961%);fill-opacity:1;" d="M 11.207031 2.847656 L 36.792969 2.847656 C 41.40625 2.847656 45.152344 6.59375 45.152344 11.207031 L 45.152344 36.792969 C 45.152344 41.40625 41.40625 45.152344 36.792969 45.152344 L 11.207031 45.152344 C 6.59375 45.152344 2.847656 41.40625 2.847656 36.792969 L 2.847656 11.207031 C 2.847656 6.59375 6.59375 2.847656 11.207031 2.847656 Z M 11.207031 2.847656 "/>
<path style=" stroke:none;fill-rule:evenodd;fill:rgb(100%,100%,100%);fill-opacity:1;" d="M 23.765625 9.75 C 22.996094 9.75 22.363281 10.375 22.363281 11.152344 C 22.363281 11.53125 22.519531 11.890625 22.792969 12.15625 L 21.09375 15.828125 C 21.050781 15.828125 21.003906 15.824219 20.964844 15.824219 C 20.542969 15.824219 20.144531 16.015625 19.878906 16.34375 L 15.917969 14.925781 C 15.902344 14.574219 15.753906 14.238281 15.511719 13.996094 C 14.957031 13.441406 14.074219 13.441406 13.527344 13.996094 C 12.980469 14.542969 12.980469 15.425781 13.527344 15.972656 C 13.777344 16.222656 14.109375 16.371094 14.457031 16.386719 L 15.875 20.34375 C 15.546875 20.609375 15.359375 21.011719 15.355469 21.425781 L 14.421875 21.425781 L 13.375 21.558594 L 9.75 21.988281 L 9.75 26.480469 L 13.371094 26.910156 C 13.621094 27.886719 14.011719 28.824219 14.519531 29.691406 L 12.269531 32.5625 L 15.441406 35.730469 L 18.308594 33.480469 C 19.175781 33.988281 20.113281 34.375 21.089844 34.628906 L 21.519531 38.25 L 26.011719 38.25 L 26.441406 34.628906 C 27.421875 34.378906 28.355469 33.988281 29.222656 33.480469 L 32.09375 35.730469 L 35.261719 32.558594 L 33.011719 29.6875 L 32.359375 28.859375 L 31.640625 28.140625 C 31.980469 27.875 32.175781 27.46875 32.175781 27.035156 C 32.175781 26.996094 32.171875 26.949219 32.167969 26.90625 L 35.84375 25.207031 C 36.105469 25.480469 36.46875 25.636719 36.847656 25.636719 C 37.625 25.636719 38.25 25.003906 38.25 24.234375 C 38.25 23.457031 37.625 22.832031 36.847656 22.832031 C 36.46875 22.832031 36.109375 22.984375 35.84375 23.253906 L 32.167969 21.5625 C 32.171875 21.515625 32.175781 21.472656 32.175781 21.425781 C 32.175781 21.011719 31.984375 20.609375 31.660156 20.34375 L 33.074219 16.378906 C 33.425781 16.371094 33.761719 16.222656 34.003906 15.972656 C 34.550781 15.425781 34.550781 14.542969 34.003906 13.996094 C 33.457031 13.441406 32.574219 13.441406 32.027344 13.996094 C 31.777344 14.238281 31.628906 14.574219 31.613281 14.925781 L 27.65625 16.339844 C 27.390625 16.015625 26.988281 15.824219 26.566406 15.824219 C 26.527344 15.824219 26.484375 15.828125 26.441406 15.828125 L 24.746094 12.15625 C 25.015625 11.890625 25.167969 11.53125 25.167969 11.152344 C 25.167969 10.375 24.542969 9.75 23.765625 9.75 Z M 23.894531 12.546875 L 25.59375 16.21875 C 25.4375 16.371094 25.324219 16.550781 25.25 16.753906 L 22.28125 16.753906 C 22.207031 16.550781 22.09375 16.371094 21.9375 16.21875 L 23.636719 12.546875 C 23.675781 12.550781 23.722656 12.550781 23.765625 12.550781 C 23.808594 12.550781 23.855469 12.550781 23.894531 12.546875 Z M 15.640625 15.816406 L 19.5625 17.21875 C 19.5625 17.222656 19.5625 17.222656 19.5625 17.222656 C 19.5625 17.433594 19.609375 17.640625 19.699219 17.828125 L 17.359375 20.167969 C 17.171875 20.078125 16.96875 20.027344 16.761719 20.027344 C 16.753906 20.027344 16.753906 20.027344 16.753906 20.027344 L 15.355469 16.105469 C 15.40625 16.066406 15.457031 16.019531 15.511719 15.972656 C 15.558594 15.925781 15.597656 15.875 15.640625 15.816406 Z M 31.894531 15.816406 C 31.933594 15.875 31.980469 15.925781 32.027344 15.972656 C 32.074219 16.019531 32.125 16.066406 32.183594 16.109375 L 30.777344 20.027344 C 30.566406 20.027344 30.359375 20.078125 30.171875 20.167969 L 27.832031 17.828125 C 27.921875 17.640625 27.96875 17.433594 27.972656 17.222656 C 27.972656 17.222656 27.972656 17.222656 27.972656 17.21875 Z M 22.28125 17.691406 L 25.25 17.691406 C 25.449219 18.25 25.972656 18.625 26.566406 18.625 C 26.78125 18.625 26.984375 18.578125 27.171875 18.488281 L 29.511719 20.828125 C 29.421875 21.015625 29.375 21.21875 29.375 21.425781 C 29.375 22.019531 29.75 22.550781 30.308594 22.75 L 30.308594 25.71875 C 29.75 25.917969 29.375 26.441406 29.375 27.035156 C 29.375 27.363281 29.488281 27.6875 29.703125 27.9375 C 28.425781 29.988281 26.183594 31.234375 23.765625 31.238281 C 19.894531 31.238281 16.761719 28.105469 16.761719 24.234375 C 16.761719 23.761719 16.808594 23.285156 16.90625 22.824219 C 17.621094 22.746094 18.160156 22.144531 18.160156 21.425781 C 18.160156 21.21875 18.113281 21.015625 18.019531 20.824219 L 20.359375 18.488281 C 20.546875 18.578125 20.753906 18.625 20.964844 18.625 C 21.558594 18.625 22.082031 18.25 22.28125 17.691406 Z M 31.777344 22.40625 L 35.453125 24.105469 C 35.449219 24.144531 35.449219 24.1875 35.449219 24.234375 C 35.449219 24.277344 35.449219 24.316406 35.453125 24.363281 L 31.78125 26.058594 C 31.628906 25.90625 31.441406 25.785156 31.238281 25.71875 L 31.238281 22.75 C 31.441406 22.675781 31.625 22.558594 31.777344 22.40625 Z M 31.777344 22.40625 "/>
</g>
</svg>
