<?xml version="1.0" encoding="UTF-8"?>
<svg xmlns="http://www.w3.org/2000/svg" xmlns:xlink="http://www.w3.org/1999/xlink" width="48pt" height="48pt" viewBox="0 0 48 48" version="1.1">
<g id="surface1">
<path style=" stroke:none;fill-rule:evenodd;fill:rgb(0%,49.411765%,100%);fill-opacity:1;" d="M 11.207031 2.847656 L 36.792969 2.847656 C 41.40625 2.847656 45.152344 6.59375 45.152344 11.207031 L 45.152344 36.792969 C 45.152344 41.40625 41.40625 45.152344 36.792969 45.152344 L 11.207031 45.152344 C 6.59375 45.152344 2.847656 41.40625 2.847656 36.792969 L 2.847656 11.207031 C 2.847656 6.59375 6.59375 2.847656 11.207031 2.847656 Z M 11.207031 2.847656 "/>
<path style=" stroke:none;fill-rule:nonzero;fill:rgb(71.764706%,71.764706%,71.764706%);fill-opacity:1;" d="M 33.175781 36.746094 L 14.824219 36.746094 L 14.824219 27.566406 L 33.175781 27.566406 Z M 33.175781 36.746094 "/>
<path style=" stroke:none;fill-rule:nonzero;fill:rgb(60%,60%,60%);fill-opacity:1;" d="M 35.5625 28.484375 L 12.4375 28.484375 C 11.722656 28.484375 11.152344 27.902344 11.152344 27.183594 L 11.152344 14.183594 C 11.152344 13.464844 11.722656 12.878906 12.4375 12.878906 L 35.5625 12.878906 C 36.277344 12.878906 36.847656 13.464844 36.847656 14.183594 L 36.847656 27.183594 C 36.847656 27.902344 36.277344 28.484375 35.5625 28.484375 Z M 35.5625 28.484375 "/>
<path style=" stroke:none;fill-rule:nonzero;fill:rgb(40%,40%,40%);fill-opacity:1;" d="M 31.34375 24.8125 L 16.65625 24.8125 L 16.65625 22.980469 L 31.34375 22.980469 Z M 31.34375 24.8125 "/>
<path style=" stroke:none;fill-rule:nonzero;fill:rgb(40%,40%,40%);fill-opacity:1;" d="M 29.503906 21.140625 L 18.496094 21.140625 L 18.496094 19.308594 L 29.503906 19.308594 Z M 29.503906 21.140625 "/>
<path style=" stroke:none;fill-rule:nonzero;fill:rgb(40%,40%,40%);fill-opacity:1;" d="M 27.671875 17.472656 L 20.328125 17.472656 L 20.328125 15.636719 L 27.671875 15.636719 Z M 27.671875 17.472656 "/>
<path style=" stroke:none;fill-rule:nonzero;fill:rgb(40%,40%,40%);fill-opacity:1;" d="M 31.34375 34.910156 L 26.753906 34.910156 L 26.753906 32.15625 L 31.34375 32.15625 Z M 31.34375 34.910156 "/>
<path style=" stroke:none;fill-rule:nonzero;fill:rgb(40%,40%,40%);fill-opacity:1;" d="M 21.246094 34.910156 L 16.65625 34.910156 L 16.65625 32.15625 L 21.246094 32.15625 Z M 21.246094 34.910156 "/>
</g>
</svg>
