<?xml version="1.0" encoding="UTF-8"?>
<svg xmlns="http://www.w3.org/2000/svg" xmlns:xlink="http://www.w3.org/1999/xlink" width="48pt" height="48pt" viewBox="0 0 48 48" version="1.1">
<g id="surface1">
<path style=" stroke:none;fill-rule:evenodd;fill:rgb(21.960784%,45.098039%,56.078431%);fill-opacity:1;" d="M 11.207031 2.847656 L 36.792969 2.847656 C 41.40625 2.847656 45.152344 6.59375 45.152344 11.207031 L 45.152344 36.792969 C 45.152344 41.40625 41.40625 45.152344 36.792969 45.152344 L 11.207031 45.152344 C 6.59375 45.152344 2.847656 41.40625 2.847656 36.792969 L 2.847656 11.207031 C 2.847656 6.59375 6.59375 2.847656 11.207031 2.847656 Z M 11.207031 2.847656 "/>
<path style=" stroke:none;fill-rule:nonzero;fill:rgb(100%,100%,100%);fill-opacity:1;" d="M 24 8.277344 C 15.316406 8.277344 8.277344 15.316406 8.277344 24 C 8.277344 32.683594 15.316406 39.722656 24 39.722656 C 32.683594 39.722656 39.722656 32.683594 39.722656 24 C 39.722656 15.316406 32.683594 8.277344 24 8.277344 Z M 24 8.277344 "/>
<path style=" stroke:none;fill-rule:nonzero;fill:rgb(21.960784%,45.098039%,56.078431%);fill-opacity:1;" d="M 19.015625 19.222656 L 22.390625 19.222656 L 22.390625 34.1875 L 20.703125 36.105469 L 19.015625 34.1875 Z M 19.015625 19.222656 "/>
<path style=" stroke:none;fill-rule:nonzero;fill:rgb(21.960784%,45.098039%,56.078431%);fill-opacity:1;" d="M 19.636719 18.097656 L 19.636719 18.105469 C 18.996094 18.109375 18.496094 18.121094 17.90625 18.253906 C 17.300781 18.394531 16.765625 18.511719 16.765625 19.261719 L 17.550781 19.636719 C 17.550781 19.636719 17.964844 19.328125 18.339844 19.261719 C 18.769531 19.1875 19.253906 19.433594 19.636719 19.671875 L 19.636719 20.011719 L 21.265625 20.011719 C 21.265625 20.011719 22.34375 19.140625 23.066406 19.261719 C 23.441406 19.328125 23.855469 19.636719 23.855469 19.636719 L 24.640625 19.261719 C 24.640625 18.511719 24.105469 18.394531 23.5 18.253906 C 22.753906 18.082031 22.234375 18.109375 21.265625 18.097656 Z M 19.636719 18.097656 "/>
<path style=" stroke:none;fill-rule:nonzero;fill:rgb(21.960784%,45.098039%,56.078431%);fill-opacity:1;" d="M 21.265625 14.269531 L 21.265625 18.769531 L 20.140625 18.769531 L 20.140625 14.269531 Z M 21.265625 14.269531 "/>
<path style=" stroke:none;fill-rule:nonzero;fill:rgb(21.960784%,45.098039%,56.078431%);fill-opacity:1;" d="M 22.390625 13.59375 C 22.390625 14.21875 21.636719 14.71875 20.703125 14.71875 C 19.769531 14.71875 19.015625 14.21875 19.015625 13.59375 Z M 22.390625 13.59375 "/>
<path style=" stroke:none;fill-rule:nonzero;fill:rgb(21.960784%,45.098039%,56.078431%);fill-opacity:1;" d="M 19.015625 24.296875 L 20.703125 25.984375 L 19.015625 27.671875 L 17.328125 25.984375 Z M 19.015625 24.296875 "/>
<path style=" stroke:none;fill-rule:nonzero;fill:rgb(21.960784%,45.098039%,56.078431%);fill-opacity:1;" d="M 25.386719 18.097656 C 25.609375 18.4375 25.765625 18.859375 25.765625 19.261719 C 25.765625 19.566406 25.644531 19.859375 25.421875 20.074219 C 26.347656 20.71875 26.894531 21.878906 26.894531 23.03125 C 26.894531 25.160156 25.707031 25.347656 23.515625 25.980469 C 24.832031 29.1875 27.449219 32.03125 30.042969 33.5 C 32.25 34.839844 34.277344 35.777344 37.019531 36.105469 C 33.984375 32.402344 29.261719 30.765625 26.894531 27.105469 C 28.472656 26.277344 30.269531 25.558594 30.269531 22.816406 C 30.269531 20.597656 28.246094 18.097656 26.738281 18.097656 Z M 25.386719 18.097656 "/>
</g>
</svg>
