<?xml version="1.0" encoding="UTF-8"?>
<svg xmlns="http://www.w3.org/2000/svg" xmlns:xlink="http://www.w3.org/1999/xlink" width="48pt" height="48pt" viewBox="0 0 48 48" version="1.1">
<g id="surface1">
<path style=" stroke:none;fill-rule:evenodd;fill:rgb(33.72549%,61.176471%,87.058824%);fill-opacity:1;" d="M 11.207031 2.847656 L 36.792969 2.847656 C 41.40625 2.847656 45.152344 6.59375 45.152344 11.207031 L 45.152344 36.792969 C 45.152344 41.40625 41.40625 45.152344 36.792969 45.152344 L 11.207031 45.152344 C 6.59375 45.152344 2.847656 41.40625 2.847656 36.792969 L 2.847656 11.207031 C 2.847656 6.59375 6.59375 2.847656 11.207031 2.847656 Z M 11.207031 2.847656 "/>
<path style=" stroke:none;fill-rule:nonzero;fill:rgb(100%,100%,100%);fill-opacity:1;" d="M 21.785156 11.027344 C 15.683594 11.027344 10.730469 15.863281 10.730469 21.839844 C 10.730469 22.765625 10.855469 23.691406 11.097656 24.589844 C 9.136719 25.53125 7.78125 27.519531 7.78125 29.839844 L 7.78125 31.136719 C 7.78125 34.371094 10.40625 36.972656 13.671875 36.972656 L 34.328125 36.972656 C 37.59375 36.972656 40.21875 34.371094 40.21875 31.136719 L 40.21875 29.839844 C 40.21875 27.390625 38.707031 25.300781 36.558594 24.433594 C 37.496094 23.285156 38.003906 21.863281 38.011719 20.394531 C 38.011719 16.8125 35.035156 13.90625 31.371094 13.90625 C 30.761719 13.90625 30.152344 13.996094 29.558594 14.15625 C 27.488281 12.152344 24.699219 11.027344 21.785156 11.027344 Z M 21.785156 11.027344 "/>
<path style=" stroke:none;fill-rule:nonzero;fill:rgb(66.666667%,80.784314%,93.333333%);fill-opacity:1;" d="M 24 16.433594 C 19.222656 16.433594 15.347656 20.300781 15.347656 25.082031 C 15.347656 29.859375 19.222656 33.734375 24 33.734375 C 28.777344 33.734375 32.652344 29.859375 32.652344 25.082031 C 32.652344 20.300781 28.777344 16.433594 24 16.433594 Z M 24 18.59375 C 27.582031 18.59375 30.488281 21.5 30.488281 25.082031 C 30.488281 28.667969 27.582031 31.566406 24 31.566406 C 20.417969 31.566406 17.511719 28.667969 17.511719 25.082031 C 17.511719 21.5 20.417969 18.59375 24 18.59375 Z M 24 18.59375 "/>
<path style=" stroke:none;fill-rule:nonzero;fill:rgb(33.72549%,61.176471%,87.058824%);fill-opacity:1;" d="M 24 20.753906 C 21.609375 20.753906 19.675781 22.691406 19.675781 25.082031 C 19.675781 27.46875 21.609375 29.40625 24 29.40625 C 26.390625 29.40625 28.324219 27.46875 28.324219 25.082031 C 28.324219 22.691406 26.390625 20.753906 24 20.753906 Z M 24 20.753906 "/>
<path style=" stroke:none;fill-rule:nonzero;fill:rgb(33.72549%,61.176471%,87.058824%);fill-opacity:1;" d="M 18.59375 15.890625 C 18.59375 16.785156 17.863281 17.511719 16.96875 17.511719 C 16.078125 17.511719 15.347656 16.785156 15.347656 15.890625 C 15.347656 14.996094 16.078125 14.265625 16.96875 14.265625 C 17.863281 14.265625 18.59375 14.996094 18.59375 15.890625 Z M 18.59375 15.890625 "/>
</g>
</svg>
