<?xml version="1.0" encoding="UTF-8"?>
<svg xmlns="http://www.w3.org/2000/svg" xmlns:xlink="http://www.w3.org/1999/xlink" width="48pt" height="48pt" viewBox="0 0 48 48" version="1.1">
<g id="surface1">
<path style=" stroke:none;fill-rule:evenodd;fill:rgb(99.607843%,63.529412%,21.960784%);fill-opacity:1;" d="M 11.207031 2.847656 L 36.792969 2.847656 C 41.40625 2.847656 45.152344 6.59375 45.152344 11.207031 L 45.152344 36.792969 C 45.152344 41.40625 41.40625 45.152344 36.792969 45.152344 L 11.207031 45.152344 C 6.59375 45.152344 2.847656 41.40625 2.847656 36.792969 L 2.847656 11.207031 C 2.847656 6.59375 6.59375 2.847656 11.207031 2.847656 Z M 11.207031 2.847656 "/>
<path style=" stroke:none;fill-rule:nonzero;fill:rgb(100%,100%,100%);fill-opacity:1;" d="M 15.644531 32.847656 C 14.285156 32.34375 13.511719 30.972656 13.859375 29.6875 C 14.050781 28.96875 14.558594 28.378906 15.34375 27.96875 C 15.863281 27.699219 16 27.574219 15.941406 27.421875 C 15.402344 25.957031 15.75 24.261719 16.808594 23.15625 C 18.230469 21.675781 20.5 21.589844 21.996094 22.953125 C 22.207031 23.144531 22.425781 23.300781 22.484375 23.300781 C 22.542969 23.300781 22.675781 23.019531 22.78125 22.671875 C 23.175781 21.371094 23.910156 20.332031 24.953125 19.613281 C 27.847656 17.613281 31.609375 18.660156 33.121094 21.890625 C 33.558594 22.828125 33.589844 22.972656 33.628906 24.078125 C 33.660156 24.949219 33.625 25.4375 33.488281 25.933594 C 33.386719 26.300781 33.328125 26.636719 33.371094 26.675781 C 33.40625 26.714844 33.609375 26.546875 33.824219 26.308594 C 34.234375 25.84375 34.265625 25.839844 35.222656 26.140625 C 36.152344 26.425781 37.042969 27.363281 37.363281 28.390625 C 37.582031 29.089844 37.53125 30.207031 37.25 30.871094 C 36.96875 31.535156 36.246094 32.34375 35.621094 32.699219 C 35.1875 32.941406 35.003906 32.953125 31.738281 32.988281 C 29.566406 33.015625 28.160156 32.984375 27.910156 32.90625 C 26.878906 32.589844 26.089844 31.402344 26.089844 30.160156 C 26.089844 28.675781 27.230469 27.394531 28.550781 27.394531 L 28.972656 27.394531 L 28.558594 27.792969 C 27.90625 28.410156 27.746094 29.152344 28.089844 29.90625 C 28.292969 30.355469 28.984375 30.792969 29.480469 30.792969 C 29.984375 30.792969 30.699219 30.375 30.957031 29.9375 C 31.25 29.433594 31.246094 28.421875 30.949219 27.589844 C 30.625 26.691406 29.964844 25.964844 29.0625 25.5 C 28.402344 25.160156 28.207031 25.121094 27.410156 25.121094 C 25.839844 25.125 25.691406 25.234375 21.855469 29.199219 C 18.9375 32.203125 18.457031 32.652344 17.972656 32.816406 C 17.316406 33.046875 16.214844 33.0625 15.644531 32.847656 Z M 10.765625 23.371094 C 10.425781 23.015625 10.417969 22.730469 10.71875 22.328125 C 10.902344 22.089844 11.050781 22.015625 11.390625 22.015625 C 11.808594 22.015625 11.828125 21.996094 11.902344 21.578125 C 12.027344 20.839844 12.519531 20.019531 13.050781 19.667969 C 13.722656 19.222656 14.503906 19.042969 15.050781 19.199219 C 15.292969 19.265625 15.519531 19.28125 15.566406 19.234375 C 15.621094 19.183594 15.707031 18.855469 15.769531 18.503906 C 16.015625 17.167969 16.871094 15.96875 18.03125 15.339844 C 18.722656 14.96875 20.386719 14.878906 21.144531 15.183594 C 22.390625 15.667969 23.246094 16.605469 23.640625 17.90625 C 23.765625 18.316406 23.871094 18.71875 23.871094 18.800781 C 23.871094 18.890625 23.636719 19.238281 23.347656 19.582031 C 23.066406 19.921875 22.683594 20.484375 22.488281 20.828125 C 22.246094 21.277344 22.097656 21.433594 21.96875 21.390625 C 21.871094 21.355469 21.484375 21.214844 21.113281 21.078125 C 20.105469 20.703125 18.6875 20.78125 17.675781 21.277344 C 16.8125 21.691406 16.230469 22.199219 15.746094 22.941406 C 15.550781 23.238281 15.339844 23.519531 15.269531 23.566406 C 15.207031 23.613281 14.230469 23.652344 13.09375 23.652344 C 11.0625 23.65625 11.035156 23.652344 10.761719 23.371094 Z M 10.765625 23.371094 "/>
</g>
</svg>
