<?xml version="1.0" encoding="UTF-8"?>
<svg xmlns="http://www.w3.org/2000/svg" xmlns:xlink="http://www.w3.org/1999/xlink" width="48pt" height="48pt" viewBox="0 0 48 48" version="1.1">
<g id="surface1">
<path style=" stroke:none;fill-rule:evenodd;fill:rgb(30.980392%,30.980392%,30.980392%);fill-opacity:1;" d="M 11.207031 2.847656 L 36.792969 2.847656 C 41.40625 2.847656 45.152344 6.59375 45.152344 11.207031 L 45.152344 36.792969 C 45.152344 41.40625 41.40625 45.152344 36.792969 45.152344 L 11.207031 45.152344 C 6.59375 45.152344 2.847656 41.40625 2.847656 36.792969 L 2.847656 11.207031 C 2.847656 6.59375 6.59375 2.847656 11.207031 2.847656 Z M 11.207031 2.847656 "/>
<path style=" stroke:none;fill-rule:nonzero;fill:rgb(100%,100%,100%);fill-opacity:1;" d="M 11.566406 8.957031 L 11.566406 10.457031 L 10.816406 10.457031 C 9.566406 10.457031 8.566406 11.464844 8.566406 12.707031 C 8.566406 13.957031 9.566406 14.957031 10.816406 14.957031 L 11.566406 14.957031 L 11.566406 16.457031 L 8.703125 16.457031 C 9.011719 17.332031 9.832031 17.957031 10.816406 17.957031 L 11.566406 17.957031 L 11.566406 19.457031 L 13.066406 19.457031 L 13.066406 17.957031 L 13.816406 17.957031 C 15.0625 17.957031 16.066406 16.957031 16.066406 15.707031 C 16.066406 14.464844 15.0625 13.457031 13.816406 13.457031 L 13.066406 13.457031 L 13.066406 11.957031 L 15.925781 11.957031 C 15.621094 11.089844 14.796875 10.457031 13.816406 10.457031 L 13.066406 10.457031 L 13.066406 8.957031 Z M 10.816406 11.957031 L 11.566406 11.957031 L 11.566406 13.457031 L 10.816406 13.457031 C 10.402344 13.457031 10.066406 13.125 10.066406 12.707031 C 10.066406 12.296875 10.402344 11.957031 10.816406 11.957031 Z M 13.066406 14.957031 L 13.816406 14.957031 C 14.230469 14.957031 14.566406 15.296875 14.566406 15.707031 C 14.566406 16.125 14.230469 16.480469 13.816406 16.457031 L 13.066406 16.457031 Z M 19.066406 17.957031 L 19.066406 19.457031 L 28.066406 19.457031 L 28.066406 17.957031 Z M 19.066406 17.957031 "/>
<path style=" stroke:none;fill-rule:evenodd;fill:rgb(73.333333%,27.45098%,85.490196%);fill-opacity:1;" d="M 42.628906 33.316406 C 42.628906 38.285156 38.605469 42.316406 33.628906 42.316406 C 28.660156 42.316406 24.628906 38.285156 24.628906 33.316406 C 24.628906 28.34375 28.660156 24.316406 33.628906 24.316406 C 38.605469 24.316406 42.628906 28.34375 42.628906 33.316406 Z M 42.628906 33.316406 "/>
<path style=" stroke:none;fill-rule:nonzero;fill:rgb(100%,100%,100%);fill-opacity:1;" d="M 29.128906 28.816406 L 29.886719 28.816406 C 34.441406 28.816406 38.136719 32.503906 38.136719 37.0625 L 38.136719 37.816406 L 37.378906 37.816406 C 36.96875 37.816406 36.640625 37.472656 36.640625 37.0625 C 36.640625 33.332031 33.621094 30.3125 29.890625 30.3125 C 29.484375 30.3125 29.136719 29.984375 29.136719 29.574219 L 29.136719 28.816406 Z M 29.128906 28.816406 "/>
<path style=" stroke:none;fill-rule:nonzero;fill:rgb(100%,100%,100%);fill-opacity:1;" d="M 29.128906 31.824219 L 29.886719 31.824219 C 32.785156 31.824219 35.125 34.160156 35.125 37.0625 L 35.125 37.816406 L 34.386719 37.816406 C 33.984375 37.816406 33.636719 37.472656 33.636719 37.0625 C 33.636719 34.988281 31.957031 33.316406 29.886719 33.316406 C 29.484375 33.316406 29.136719 32.972656 29.136719 32.5625 L 29.136719 31.824219 Z M 29.128906 31.824219 "/>
<path style=" stroke:none;fill-rule:nonzero;fill:rgb(100%,100%,100%);fill-opacity:1;" d="M 30.628906 34.8125 C 31.457031 34.8125 32.140625 35.496094 32.140625 36.324219 C 32.140625 37.152344 31.453125 37.816406 30.628906 37.816406 C 29.800781 37.816406 29.136719 37.152344 29.136719 36.324219 C 29.136719 35.496094 29.800781 34.8125 30.628906 34.8125 Z M 30.628906 34.8125 "/>
</g>
</svg>
