<?xml version="1.0" encoding="UTF-8"?>
<svg xmlns="http://www.w3.org/2000/svg" xmlns:xlink="http://www.w3.org/1999/xlink" width="48pt" height="48pt" viewBox="0 0 48 48" version="1.1">
<g id="surface1">
<path style=" stroke:none;fill-rule:evenodd;fill:rgb(24.313725%,31.372549%,70.588235%);fill-opacity:1;" d="M 11.207031 2.847656 L 36.792969 2.847656 C 41.40625 2.847656 45.152344 6.59375 45.152344 11.207031 L 45.152344 36.792969 C 45.152344 41.40625 41.40625 45.152344 36.792969 45.152344 L 11.207031 45.152344 C 6.59375 45.152344 2.847656 41.40625 2.847656 36.792969 L 2.847656 11.207031 C 2.847656 6.59375 6.59375 2.847656 11.207031 2.847656 Z M 11.207031 2.847656 "/>
<path style=" stroke:none;fill-rule:nonzero;fill:rgb(100%,100%,100%);fill-opacity:1;" d="M 13.199219 9.628906 C 12.511719 9.613281 11.84375 9.84375 11.347656 10.265625 C 10.859375 10.691406 10.578125 11.277344 10.578125 11.886719 L 10.578125 36.113281 C 10.578125 36.917969 11.0625 37.660156 11.847656 38.066406 C 12.636719 38.46875 13.605469 38.46875 14.390625 38.066406 L 26.21875 32.011719 L 38.042969 25.953125 C 38.832031 25.546875 39.316406 24.800781 39.316406 24 C 39.316406 23.191406 38.832031 22.449219 38.042969 22.046875 L 26.21875 15.988281 L 14.390625 9.933594 C 14.027344 9.746094 13.613281 9.640625 13.199219 9.628906 Z M 13.199219 9.628906 "/>
<path style=" stroke:none;fill-rule:nonzero;fill:rgb(24.313725%,31.372549%,70.588235%);fill-opacity:1;" d="M 23.828125 17.84375 C 24.121094 17.832031 24.40625 17.933594 24.613281 18.113281 C 24.828125 18.296875 24.949219 18.546875 24.949219 18.808594 L 24.949219 29.191406 C 24.949219 29.535156 24.738281 29.855469 24.402344 30.027344 C 24.066406 30.203125 23.652344 30.203125 23.3125 30.027344 L 18.246094 27.433594 L 13.175781 24.832031 C 12.839844 24.660156 12.628906 24.34375 12.628906 24 C 12.628906 23.652344 12.839844 23.332031 13.175781 23.160156 L 18.246094 20.566406 L 23.3125 17.96875 C 23.46875 17.890625 23.644531 17.84375 23.824219 17.84375 Z M 23.828125 17.84375 "/>
</g>
</svg>
