<?xml version="1.0" encoding="UTF-8"?>
<svg xmlns="http://www.w3.org/2000/svg" xmlns:xlink="http://www.w3.org/1999/xlink" width="48pt" height="48pt" viewBox="0 0 48 48" version="1.1">
<g id="surface1">
<path style=" stroke:none;fill-rule:evenodd;fill:rgb(21.568627%,62.745098%,94.901961%);fill-opacity:1;" d="M 11.207031 2.847656 L 36.792969 2.847656 C 41.40625 2.847656 45.152344 6.59375 45.152344 11.207031 L 45.152344 36.792969 C 45.152344 41.40625 41.40625 45.152344 36.792969 45.152344 L 11.207031 45.152344 C 6.59375 45.152344 2.847656 41.40625 2.847656 36.792969 L 2.847656 11.207031 C 2.847656 6.59375 6.59375 2.847656 11.207031 2.847656 Z M 11.207031 2.847656 "/>
<path style=" stroke:none;fill-rule:nonzero;fill:rgb(100%,100%,100%);fill-opacity:1;" d="M 34.558594 7.578125 C 29.96875 7.636719 22.886719 8.921875 20.675781 11.578125 L 20.671875 11.578125 C 18.90625 14.167969 18.675781 24.292969 19.136719 23.671875 C 22.894531 18.527344 31.90625 12.175781 37.285156 9.625 C 40.1875 8.246094 38.125 7.535156 34.558594 7.578125 Z M 30.125 15.96875 C 27.019531 16.191406 21.558594 21.527344 22.324219 21.496094 C 28.675781 21.269531 32.644531 21.640625 37.605469 23.191406 C 38.339844 23.421875 36.808594 16.488281 30.125 15.96875 Z M 26.765625 21.515625 C 26.605469 21.527344 26.535156 21.566406 26.589844 21.652344 C 30.21875 26.90625 32.0625 30.464844 33.464844 35.503906 C 33.671875 36.253906 38.613281 31.199219 35.421875 25.253906 C 33.785156 23.058594 27.910156 21.457031 26.765625 21.515625 Z M 28.65625 25.730469 C 28.621094 25.71875 28.59375 25.738281 28.582031 25.785156 C 26.972656 31.984375 25.488281 35.714844 22.597656 40.0625 C 22.167969 40.703125 29.191406 41.207031 31.597656 34.902344 C 32.234375 32.027344 29.191406 25.871094 28.65625 25.730469 Z M 26.890625 29.691406 C 26.875 29.6875 26.859375 29.691406 26.839844 29.703125 C 21.097656 32.464844 17.316406 33.734375 12.152344 34.300781 C 11.390625 34.390625 15.535156 40.128906 21.871094 37.917969 L 21.875 37.910156 C 24.546875 36.5 27.347656 29.808594 26.890625 29.691406 Z M 26.890625 29.691406 "/>
<path style=" stroke:none;fill-rule:nonzero;fill:rgb(30.980392%,30.980392%,30.980392%);fill-opacity:1;" d="M 17.417969 13.363281 C 16.253906 13.5625 11.605469 16.796875 12.671875 22.609375 L 12.675781 22.613281 C 13.691406 25.582031 20.207031 29.527344 19.984375 28.785156 C 18.136719 22.65625 17.464844 18.691406 17.671875 13.46875 C 17.675781 13.371094 17.578125 13.339844 17.417969 13.363281 Z M 9.941406 22.515625 C 9.34375 22.4375 7.941406 29.015625 13.527344 32.359375 C 16.410156 33.546875 23.652344 31.207031 22.949219 30.886719 C 17.15625 28.253906 13.761719 26.144531 9.996094 22.546875 C 9.980469 22.53125 9.964844 22.519531 9.941406 22.515625 Z M 9.941406 22.515625 "/>
</g>
</svg>
