<?xml version="1.0" encoding="UTF-8"?>
<svg xmlns="http://www.w3.org/2000/svg" xmlns:xlink="http://www.w3.org/1999/xlink" width="48pt" height="48pt" viewBox="0 0 48 48" version="1.1">
<g id="surface1">
<path style=" stroke:none;fill-rule:evenodd;fill:rgb(80%,80%,80%);fill-opacity:1;" d="M 11.207031 2.847656 L 36.792969 2.847656 C 41.40625 2.847656 45.152344 6.59375 45.152344 11.207031 L 45.152344 36.792969 C 45.152344 41.40625 41.40625 45.152344 36.792969 45.152344 L 11.207031 45.152344 C 6.59375 45.152344 2.847656 41.40625 2.847656 36.792969 L 2.847656 11.207031 C 2.847656 6.59375 6.59375 2.847656 11.207031 2.847656 Z M 11.207031 2.847656 "/>
<path style=" stroke:none;fill-rule:nonzero;fill:rgb(28.235294%,57.647059%,83.529412%);fill-opacity:1;" d="M 15.28125 8.691406 C 9.488281 11.792969 6 17.378906 5.988281 23.636719 C 6.003906 32.25 12.839844 39.78125 21.917969 41.066406 C 22.566406 41.136719 22.761719 41.105469 23.238281 41.066406 C 27.640625 41.066406 31.203125 37.722656 31.203125 33.597656 C 31.199219 30.765625 29.5 28.238281 26.910156 26.972656 C 26.910156 26.972656 24.050781 25.746094 22.785156 25.109375 C 20.957031 24.25 18.9375 23.488281 17.019531 22.390625 C 16.058594 21.839844 15.089844 21.191406 14.21875 20.203125 C 13.347656 19.207031 12.625 17.71875 12.625 16.167969 C 12.625 13.144531 13.792969 10.84375 15.28125 8.691406 Z M 15.28125 8.691406 "/>
<path style=" stroke:none;fill-rule:nonzero;fill:rgb(28.235294%,57.647059%,83.529412%);fill-opacity:1;" d="M 32.71875 39.308594 C 38.511719 36.207031 42 30.621094 42.011719 24.363281 C 41.996094 15.75 35.160156 8.21875 26.082031 6.933594 C 25.433594 6.863281 25.238281 6.894531 24.761719 6.933594 C 20.359375 6.933594 16.796875 10.277344 16.796875 14.402344 C 16.800781 17.234375 18.5 19.761719 21.089844 21.027344 C 21.089844 21.027344 23.949219 22.253906 25.214844 22.890625 C 27.042969 23.75 29.0625 24.511719 30.980469 25.609375 C 31.941406 26.160156 32.910156 26.808594 33.78125 27.796875 C 34.65625 28.792969 35.375 30.28125 35.375 31.832031 C 35.375 34.855469 34.207031 37.15625 32.71875 39.308594 Z M 32.71875 39.308594 "/>
</g>
</svg>
