<?xml version="1.0" encoding="UTF-8"?>
<svg xmlns="http://www.w3.org/2000/svg" xmlns:xlink="http://www.w3.org/1999/xlink" width="48pt" height="48pt" viewBox="0 0 48 48" version="1.1">
<g id="surface1">
<path style=" stroke:none;fill-rule:evenodd;fill:rgb(18.823529%,23.137255%,70.980392%);fill-opacity:1;" d="M 11.207031 2.847656 L 36.792969 2.847656 C 41.40625 2.847656 45.152344 6.59375 45.152344 11.207031 L 45.152344 36.792969 C 45.152344 41.40625 41.40625 45.152344 36.792969 45.152344 L 11.207031 45.152344 C 6.59375 45.152344 2.847656 41.40625 2.847656 36.792969 L 2.847656 11.207031 C 2.847656 6.59375 6.59375 2.847656 11.207031 2.847656 Z M 11.207031 2.847656 "/>
<path style=" stroke:none;fill-rule:nonzero;fill:rgb(100%,100%,100%);fill-opacity:1;" d="M 12.683594 24.386719 C 14.535156 22.746094 16.839844 21.597656 19.613281 20.964844 C 17.90625 19.71875 16.878906 18.621094 15.828125 17.15625 C 15.34375 16.496094 15.863281 16.125 16.53125 15.605469 C 20.527344 14.074219 27.535156 13.207031 31.089844 15.828125 C 32.03125 16.59375 29.941406 17.871094 28.925781 18.265625 C 32.652344 18.925781 35.53125 19.988281 37.167969 22.503906 C 39.730469 18.703125 38.707031 13.175781 35.796875 11.375 C 32.886719 9.574219 22.890625 5.777344 11.738281 11.035156 C 6.703125 13.464844 8.828125 19.230469 12.683594 24.386719 Z M 12.683594 24.386719 "/>
<path style=" stroke:none;fill-rule:nonzero;fill:rgb(100%,100%,100%);fill-opacity:1;" d="M 14.246094 25.765625 C 19.46875 24.472656 24.761719 23.175781 32.042969 25.765625 C 28.738281 19.089844 20.089844 21.675781 14.246094 25.765625 Z M 14.246094 25.765625 "/>
<path style=" stroke:none;fill-rule:nonzero;fill:rgb(100%,100%,100%);fill-opacity:1;" d="M 27.683594 21.167969 C 35.113281 24.152344 38.214844 31.871094 28.078125 34.964844 C 23 36.636719 14.609375 35.296875 12.355469 33.605469 C 10.582031 32.246094 12.628906 30.074219 15.125 29.1875 C 12.066406 29.191406 10.425781 29.949219 9.425781 31.652344 C 8.902344 32.839844 9.042969 33.597656 9.171875 34.089844 C 12.71875 42.667969 38.484375 41.183594 39.214844 30.515625 C 39.417969 24.777344 32.699219 21.375 27.683594 21.167969 Z M 27.683594 21.167969 "/>
<path style=" stroke:none;fill-rule:evenodd;fill:rgb(76.470588%,71.372549%,58.039216%);fill-opacity:1;" d="M 29.015625 30 C 29.015625 32.859375 26.699219 35.175781 23.839844 35.175781 C 20.984375 35.175781 18.667969 32.859375 18.667969 30 C 18.667969 27.144531 20.984375 24.828125 23.839844 24.828125 C 26.699219 24.828125 29.015625 27.144531 29.015625 30 Z M 29.015625 30 "/>
<path style=" stroke:none;fill-rule:evenodd;fill:rgb(3.137255%,14.509804%,52.156863%);fill-opacity:1;" d="M 28.015625 30.03125 C 28.015625 32.324219 26.160156 34.175781 23.871094 34.175781 C 21.582031 34.175781 19.722656 32.324219 19.722656 30.03125 C 19.722656 27.746094 21.582031 25.886719 23.871094 25.886719 C 26.160156 25.886719 28.015625 27.746094 28.015625 30.03125 Z M 28.015625 30.03125 "/>
<path style=" stroke:none;fill-rule:evenodd;fill:rgb(100%,100%,100%);fill-opacity:1;" d="M 24.738281 33.328125 L 23.933594 31.761719 L 23.25 33.386719 L 23.203125 31.625 L 21.878906 32.792969 L 22.605469 31.183594 L 20.90625 31.660156 L 22.261719 30.527344 L 20.519531 30.21875 L 22.230469 29.78125 L 20.796875 28.753906 L 22.527344 29.105469 L 21.683594 27.550781 L 23.089844 28.621094 L 23.003906 26.855469 L 23.808594 28.425781 L 24.496094 26.800781 L 24.535156 28.5625 L 25.859375 27.394531 L 25.136719 29.003906 L 26.832031 28.527344 L 25.484375 29.660156 L 27.21875 29.96875 L 25.511719 30.402344 L 26.941406 31.433594 L 25.214844 31.082031 L 26.058594 32.636719 L 24.652344 31.566406 Z M 24.738281 33.328125 "/>
</g>
</svg>
