<?xml version="1.0" encoding="UTF-8"?>
<svg xmlns="http://www.w3.org/2000/svg" xmlns:xlink="http://www.w3.org/1999/xlink" width="48pt" height="48pt" viewBox="0 0 48 48" version="1.1">
<g id="surface1">
<path style=" stroke:none;fill-rule:evenodd;fill:rgb(100%,78.823529%,27.843137%);fill-opacity:1;" d="M 11.207031 2.847656 L 36.792969 2.847656 C 41.40625 2.847656 45.152344 6.59375 45.152344 11.207031 L 45.152344 36.792969 C 45.152344 41.40625 41.40625 45.152344 36.792969 45.152344 L 11.207031 45.152344 C 6.59375 45.152344 2.847656 41.40625 2.847656 36.792969 L 2.847656 11.207031 C 2.847656 6.59375 6.59375 2.847656 11.207031 2.847656 Z M 11.207031 2.847656 "/>
<path style=" stroke:none;fill-rule:nonzero;fill:rgb(70.196078%,55.294118%,19.607843%);fill-opacity:1;" d="M 24 14.425781 C 20.105469 14.433594 16.59375 16.796875 15.128906 20.410156 L 13.234375 20.410156 L 12.035156 22.800781 L 14.515625 22.800781 C 14.464844 23.199219 14.433594 23.597656 14.425781 24 L 13.234375 26.390625 L 14.746094 26.390625 C 15.839844 30.613281 19.640625 33.5625 24 33.574219 C 26.90625 33.574219 29.65625 32.25 31.46875 29.984375 L 27.964844 29.984375 C 26.785156 30.761719 25.410156 31.175781 24 31.175781 C 20.964844 31.175781 18.253906 29.261719 17.238281 26.390625 L 25.199219 26.390625 L 26.390625 24 L 16.824219 24 C 16.824219 23.597656 16.859375 23.199219 16.925781 22.800781 L 26.390625 22.800781 L 27.589844 20.410156 L 17.792969 20.410156 C 19.074219 18.191406 21.4375 16.824219 24 16.824219 C 25.40625 16.824219 26.785156 17.238281 27.957031 18.015625 L 31.457031 18.015625 C 29.644531 15.75 26.902344 14.433594 24 14.425781 Z M 24 14.425781 "/>
<path style=" stroke:none;fill-rule:nonzero;fill:rgb(70.196078%,55.294118%,19.607843%);fill-opacity:1;" d="M 24 8.449219 C 15.386719 8.449219 8.449219 15.386719 8.449219 24 C 8.449219 32.613281 15.386719 39.550781 24 39.550781 C 32.613281 39.550781 39.550781 32.613281 39.550781 24 C 39.550781 15.386719 32.613281 8.449219 24 8.449219 Z M 24 10.839844 C 31.332031 10.839844 37.160156 16.667969 37.160156 24 C 37.160156 31.332031 31.332031 37.160156 24 37.160156 C 16.667969 37.160156 10.839844 31.332031 10.839844 24 C 10.839844 16.667969 16.667969 10.839844 24 10.839844 Z M 24 10.839844 "/>
</g>
</svg>
