<?xml version="1.0" encoding="UTF-8"?>
<svg xmlns="http://www.w3.org/2000/svg" xmlns:xlink="http://www.w3.org/1999/xlink" width="48pt" height="48pt" viewBox="0 0 48 48" version="1.1">
<g id="surface1">
<path style=" stroke:none;fill-rule:evenodd;fill:rgb(32.941176%,50.588235%,77.254902%);fill-opacity:1;" d="M 11.207031 2.847656 L 36.792969 2.847656 C 41.40625 2.847656 45.152344 6.59375 45.152344 11.207031 L 45.152344 36.792969 C 45.152344 41.40625 41.40625 45.152344 36.792969 45.152344 L 11.207031 45.152344 C 6.59375 45.152344 2.847656 41.40625 2.847656 36.792969 L 2.847656 11.207031 C 2.847656 6.59375 6.59375 2.847656 11.207031 2.847656 Z M 11.207031 2.847656 "/>
<path style=" stroke:none;fill-rule:nonzero;fill:rgb(63.137255%,74.117647%,90.980392%);fill-opacity:1;" d="M 20.277344 10.34375 C 16.738281 10.34375 13.730469 12.488281 12.433594 15.527344 C 9.140625 16.011719 6.621094 18.796875 6.621094 22.191406 C 6.621094 25.933594 9.675781 28.96875 13.449219 28.96875 L 27.957031 28.96875 C 31.253906 28.96875 33.933594 26.3125 33.933594 23.042969 C 33.933594 20 31.625 17.503906 28.652344 17.167969 C 27.875 13.285156 24.417969 10.34375 20.277344 10.34375 Z M 20.277344 10.34375 "/>
<path style=" stroke:none;fill-rule:nonzero;fill:rgb(92.54902%,92.54902%,92.54902%);fill-opacity:1;" d="M 27.722656 19.03125 C 24.1875 19.03125 21.175781 21.183594 19.878906 24.21875 C 16.589844 24.703125 14.066406 27.484375 14.066406 30.886719 C 14.066406 34.625 17.125 37.65625 20.894531 37.65625 L 35.40625 37.65625 C 38.707031 37.65625 41.378906 35.003906 41.378906 31.730469 C 41.378906 28.6875 39.078125 26.199219 36.097656 25.859375 C 35.324219 21.972656 31.871094 19.03125 27.722656 19.03125 Z M 27.722656 19.03125 "/>
</g>
</svg>
