<?xml version="1.0" encoding="UTF-8"?>
<svg xmlns="http://www.w3.org/2000/svg" xmlns:xlink="http://www.w3.org/1999/xlink" width="48pt" height="48pt" viewBox="0 0 48 48" version="1.1">
<g id="surface1">
<path style=" stroke:none;fill-rule:evenodd;fill:rgb(43.921569%,29.411765%,56.862745%);fill-opacity:1;" d="M 11.207031 2.847656 L 36.792969 2.847656 C 41.40625 2.847656 45.152344 6.59375 45.152344 11.207031 L 45.152344 36.792969 C 45.152344 41.40625 41.40625 45.152344 36.792969 45.152344 L 11.207031 45.152344 C 6.59375 45.152344 2.847656 41.40625 2.847656 36.792969 L 2.847656 11.207031 C 2.847656 6.59375 6.59375 2.847656 11.207031 2.847656 Z M 11.207031 2.847656 "/>
<path style=" stroke:none;fill-rule:nonzero;fill:rgb(29.803922%,54.117647%,29.803922%);fill-opacity:1;" d="M 10.5 24 L 15 24 L 15 28.5 L 10.5 28.5 Z M 10.5 24 "/>
<path style=" stroke:none;fill-rule:nonzero;fill:rgb(89.411765%,36.862745%,36.862745%);fill-opacity:1;" d="M 15 24 L 19.5 24 L 19.5 28.5 L 15 28.5 Z M 15 24 "/>
<path style=" stroke:none;fill-rule:nonzero;fill:rgb(43.921569%,47.45098%,100%);fill-opacity:1;" d="M 19.5 24 L 24 24 L 24 28.5 L 19.5 28.5 Z M 19.5 24 "/>
<path style=" stroke:none;fill-rule:nonzero;fill:rgb(80.392157%,80.392157%,80.392157%);fill-opacity:1;" d="M 24 24 L 28.5 24 L 28.5 28.5 L 24 28.5 Z M 24 24 "/>
<path style=" stroke:none;fill-rule:nonzero;fill:rgb(100%,74.117647%,10.196078%);fill-opacity:1;" d="M 28.5 24 L 33 24 L 33 28.5 L 28.5 28.5 Z M 28.5 24 "/>
<path style=" stroke:none;fill-rule:nonzero;fill:rgb(95.294118%,95.294118%,95.294118%);fill-opacity:1;" d="M 33 24 L 37.5 24 L 37.5 28.5 L 33 28.5 Z M 33 24 "/>
<path style=" stroke:none;fill-rule:nonzero;fill:rgb(43.921569%,47.45098%,100%);fill-opacity:1;" d="M 10.5 19.5 L 15 19.5 L 15 24 L 10.5 24 Z M 10.5 19.5 "/>
<path style=" stroke:none;fill-rule:nonzero;fill:rgb(95.294118%,95.294118%,95.294118%);fill-opacity:1;" d="M 15 19.5 L 19.5 19.5 L 19.5 24 L 15 24 Z M 15 19.5 "/>
<path style=" stroke:none;fill-rule:nonzero;fill:rgb(29.803922%,54.117647%,29.803922%);fill-opacity:1;" d="M 19.5 19.5 L 24 19.5 L 24 24 L 19.5 24 Z M 19.5 19.5 "/>
<path style=" stroke:none;fill-rule:nonzero;fill:rgb(95.294118%,95.294118%,95.294118%);fill-opacity:1;" d="M 24 19.5 L 28.5 19.5 L 28.5 24 L 24 24 Z M 24 19.5 "/>
<path style=" stroke:none;fill-rule:nonzero;fill:rgb(80.392157%,80.392157%,80.392157%);fill-opacity:1;" d="M 28.5 19.5 L 33 19.5 L 33 24 L 28.5 24 Z M 28.5 19.5 "/>
<path style=" stroke:none;fill-rule:nonzero;fill:rgb(43.921569%,47.45098%,100%);fill-opacity:1;" d="M 33 19.5 L 37.5 19.5 L 37.5 24 L 33 24 Z M 33 19.5 "/>
<path style=" stroke:none;fill-rule:nonzero;fill:rgb(95.294118%,95.294118%,95.294118%);fill-opacity:1;" d="M 10.5 15 L 15 15 L 15 19.5 L 10.5 19.5 Z M 10.5 15 "/>
<path style=" stroke:none;fill-rule:nonzero;fill:rgb(100%,93.333333%,20.784314%);fill-opacity:1;" d="M 15 15 L 19.5 15 L 19.5 19.5 L 15 19.5 Z M 15 15 "/>
<path style=" stroke:none;fill-rule:nonzero;fill:rgb(100%,74.117647%,10.196078%);fill-opacity:1;" d="M 19.5 15 L 24 15 L 24 19.5 L 19.5 19.5 Z M 19.5 15 "/>
<path style=" stroke:none;fill-rule:nonzero;fill:rgb(85.882353%,37.254902%,90.980392%);fill-opacity:1;" d="M 24 15 L 28.5 15 L 28.5 19.5 L 24 19.5 Z M 24 15 "/>
<path style=" stroke:none;fill-rule:nonzero;fill:rgb(100%,93.333333%,20.784314%);fill-opacity:1;" d="M 28.5 15 L 33 15 L 33 19.5 L 28.5 19.5 Z M 28.5 15 "/>
<path style=" stroke:none;fill-rule:nonzero;fill:rgb(100%,74.117647%,10.196078%);fill-opacity:1;" d="M 15 28.5 L 19.5 28.5 L 19.5 33 L 15 33 Z M 15 28.5 "/>
<path style=" stroke:none;fill-rule:nonzero;fill:rgb(85.882353%,37.254902%,90.980392%);fill-opacity:1;" d="M 19.5 28.5 L 24 28.5 L 24 33 L 19.5 33 Z M 19.5 28.5 "/>
<path style=" stroke:none;fill-rule:nonzero;fill:rgb(89.411765%,36.862745%,36.862745%);fill-opacity:1;" d="M 24 28.5 L 28.5 28.5 L 28.5 33 L 24 33 Z M 24 28.5 "/>
<path style=" stroke:none;fill-rule:nonzero;fill:rgb(100%,93.333333%,20.784314%);fill-opacity:1;" d="M 28.5 28.5 L 33 28.5 L 33 33 L 28.5 33 Z M 28.5 28.5 "/>
<path style=" stroke:none;fill-rule:nonzero;fill:rgb(89.411765%,36.862745%,36.862745%);fill-opacity:1;" d="M 33 28.5 L 37.5 28.5 L 37.5 33 L 33 33 Z M 33 28.5 "/>
<path style=" stroke:none;fill-rule:nonzero;fill:rgb(43.921569%,47.45098%,100%);fill-opacity:1;" d="M 19.5 33 L 24 33 L 24 37.5 L 19.5 37.5 Z M 19.5 33 "/>
<path style=" stroke:none;fill-rule:nonzero;fill:rgb(95.294118%,95.294118%,95.294118%);fill-opacity:1;" d="M 24 33 L 28.5 33 L 28.5 37.5 L 24 37.5 Z M 24 33 "/>
<path style=" stroke:none;fill-rule:nonzero;fill:rgb(29.803922%,54.117647%,29.803922%);fill-opacity:1;" d="M 28.5 33 L 33 33 L 33 37.5 L 28.5 37.5 Z M 28.5 33 "/>
<path style=" stroke:none;fill-rule:nonzero;fill:rgb(85.882353%,37.254902%,90.980392%);fill-opacity:1;" d="M 33 33 L 37.5 33 L 37.5 37.5 L 33 37.5 Z M 33 33 "/>
<path style=" stroke:none;fill-rule:nonzero;fill:rgb(100%,74.117647%,10.196078%);fill-opacity:1;" d="M 10.5 10.5 L 15 10.5 L 15 15 L 10.5 15 Z M 10.5 10.5 "/>
<path style=" stroke:none;fill-rule:nonzero;fill:rgb(89.411765%,36.862745%,36.862745%);fill-opacity:1;" d="M 15 10.5 L 19.5 10.5 L 19.5 15 L 15 15 Z M 15 10.5 "/>
<path style=" stroke:none;fill-rule:nonzero;fill:rgb(100%,93.333333%,20.784314%);fill-opacity:1;" d="M 19.5 10.5 L 24 10.5 L 24 15 L 19.5 15 Z M 19.5 10.5 "/>
<path style=" stroke:none;fill-rule:nonzero;fill:rgb(43.921569%,47.45098%,100%);fill-opacity:1;" d="M 24 10.5 L 28.5 10.5 L 28.5 15 L 24 15 Z M 24 10.5 "/>
</g>
</svg>
