<?xml version="1.0" encoding="UTF-8"?>
<svg xmlns="http://www.w3.org/2000/svg" xmlns:xlink="http://www.w3.org/1999/xlink" width="48pt" height="48pt" viewBox="0 0 48 48" version="1.1">
<g id="surface1">
<path style=" stroke:none;fill-rule:evenodd;fill:rgb(40%,71.764706%,26.666667%);fill-opacity:1;" d="M 11.207031 2.847656 L 36.792969 2.847656 C 41.40625 2.847656 45.152344 6.59375 45.152344 11.207031 L 45.152344 36.792969 C 45.152344 41.40625 41.40625 45.152344 36.792969 45.152344 L 11.207031 45.152344 C 6.59375 45.152344 2.847656 41.40625 2.847656 36.792969 L 2.847656 11.207031 C 2.847656 6.59375 6.59375 2.847656 11.207031 2.847656 Z M 11.207031 2.847656 "/>
<path style=" stroke:none;fill-rule:nonzero;fill:rgb(100%,100%,100%);fill-opacity:1;" d="M 41.050781 22.105469 L 25.894531 6.949219 C 24.847656 5.902344 23.152344 5.902344 22.105469 6.949219 L 6.949219 22.105469 C 5.902344 23.152344 5.902344 24.847656 6.949219 25.894531 L 22.105469 41.050781 C 23.152344 42.097656 24.847656 42.097656 25.894531 41.050781 L 41.050781 25.894531 C 42.097656 24.847656 42.097656 23.152344 41.050781 22.105469 Z M 41.050781 22.105469 "/>
<path style=" stroke:none;fill-rule:evenodd;fill:rgb(40%,71.764706%,26.666667%);fill-opacity:1;" d="M 24.003906 9.683594 C 21.730469 9.683594 19.785156 9.953125 18.144531 10.511719 L 12.953125 15.699219 C 12.660156 16.917969 12.53125 18.25 12.640625 19.113281 C 13.203125 23.625 17.933594 26.597656 24.003906 26.597656 C 28.34375 26.597656 30.511719 28.828125 30.59375 29.527344 C 30.640625 29.875 30.675781 31.386719 29.875 31.9375 C 29.078125 32.484375 26.910156 33.109375 24.003906 33.109375 C 20.441406 33.109375 16.1875 30.847656 16.1875 30.847656 C 14.839844 30.046875 13.214844 30.636719 12.558594 31.902344 L 17.894531 37.238281 C 19.636719 37.816406 21.746094 38.3125 24.003906 38.3125 C 26.28125 38.3125 28.222656 38.042969 29.863281 37.484375 L 35.058594 32.296875 C 35.347656 31.078125 35.480469 29.75 35.371094 28.878906 C 34.808594 24.371094 30.078125 21.394531 24.003906 21.394531 C 19.667969 21.394531 17.628906 19.167969 17.542969 18.46875 C 17.5 18.121094 17.464844 16.609375 18.265625 16.058594 C 19.0625 15.511719 21.097656 14.890625 24.003906 14.890625 C 27.566406 14.890625 31.824219 17.144531 31.824219 17.144531 C 33.171875 17.949219 34.796875 17.363281 35.449219 16.09375 L 30.113281 10.761719 C 28.375 10.175781 26.265625 9.683594 24.003906 9.683594 Z M 24.003906 9.683594 "/>
</g>
</svg>
