<?xml version="1.0" encoding="UTF-8"?>
<svg xmlns="http://www.w3.org/2000/svg" xmlns:xlink="http://www.w3.org/1999/xlink" width="48pt" height="48pt" viewBox="0 0 48 48" version="1.1">
<g id="surface1">
<path style=" stroke:none;fill-rule:evenodd;fill:rgb(80%,80%,80%);fill-opacity:1;" d="M 17.683594 15.066406 L 17.683594 19.65625 L 29.910156 19.65625 L 29.910156 15.066406 Z M 17.683594 15.066406 "/>
<path style=" stroke:none;fill-rule:evenodd;fill:rgb(50.196078%,50.196078%,50.196078%);fill-opacity:1;" d="M 45.152344 19.65625 L 32.96875 19.65625 L 32.96875 15.066406 L 29.910156 12.011719 L 17.683594 12.011719 L 14.628906 15.066406 L 14.628906 19.65625 L 2.847656 19.65625 L 2.847656 36.785156 C 2.847656 41.421875 6.578125 45.152344 11.214844 45.152344 L 36.792969 45.152344 C 41.421875 45.152344 45.152344 41.421875 45.152344 36.785156 Z M 17.683594 15.066406 L 29.910156 15.066406 L 29.910156 19.65625 L 17.683594 19.65625 Z M 17.683594 15.066406 "/>
<path style=" stroke:none;fill-rule:evenodd;fill:rgb(80%,80%,80%);fill-opacity:1;" d="M 11.214844 2.847656 C 6.578125 2.847656 2.847656 6.578125 2.847656 11.207031 L 2.847656 19.65625 L 14.628906 19.65625 L 14.628906 15.066406 L 17.683594 12.011719 L 29.910156 12.011719 L 32.96875 15.066406 L 32.96875 19.65625 L 45.152344 19.65625 L 45.152344 11.207031 C 45.152344 6.578125 41.421875 2.847656 36.792969 2.847656 Z M 11.214844 2.847656 "/>
<path style=" stroke:none;fill-rule:evenodd;fill:rgb(29.019608%,70.196078%,89.411765%);fill-opacity:1;" d="M 42.902344 33.558594 C 42.902344 38.527344 38.875 42.558594 33.902344 42.558594 C 28.933594 42.558594 24.902344 38.527344 24.902344 33.558594 C 24.902344 28.589844 28.933594 24.558594 33.902344 24.558594 C 38.875 24.558594 42.902344 28.589844 42.902344 33.558594 Z M 42.902344 33.558594 "/>
<path style=" stroke:none;fill-rule:nonzero;fill:rgb(100%,100%,100%);fill-opacity:1;" d="M 35.703125 28.109375 L 35.703125 32.957031 L 37.5 32.90625 L 33.902344 37.753906 L 30.300781 32.90625 L 32.105469 32.90625 L 32.105469 28.109375 Z M 29.703125 37.753906 L 38.105469 37.753906 L 38.105469 38.957031 L 29.703125 38.957031 Z M 29.703125 37.753906 "/>
</g>
</svg>
