<?xml version="1.0" encoding="UTF-8"?>
<svg xmlns="http://www.w3.org/2000/svg" xmlns:xlink="http://www.w3.org/1999/xlink" width="48pt" height="48pt" viewBox="0 0 48 48" version="1.1">
<g id="surface1">
<path style=" stroke:none;fill-rule:evenodd;fill:rgb(0.784314%,58.039216%,60%);fill-opacity:1;" d="M 11.207031 2.847656 L 36.792969 2.847656 C 41.40625 2.847656 45.152344 6.59375 45.152344 11.207031 L 45.152344 36.792969 C 45.152344 41.40625 41.40625 45.152344 36.792969 45.152344 L 11.207031 45.152344 C 6.59375 45.152344 2.847656 41.40625 2.847656 36.792969 L 2.847656 11.207031 C 2.847656 6.59375 6.59375 2.847656 11.207031 2.847656 Z M 11.207031 2.847656 "/>
<path style=" stroke:none;fill-rule:nonzero;fill:rgb(100%,100%,100%);fill-opacity:1;" d="M 18.449219 9.886719 L 14.550781 12.136719 L 17.425781 17.121094 C 16.230469 18.40625 15.433594 20.015625 15.136719 21.75 L 9 21.75 L 9 26.25 L 15.527344 26.25 C 16.027344 27.660156 16.871094 28.921875 17.980469 29.925781 L 14.550781 35.863281 L 18.449219 38.113281 L 21.972656 32.011719 C 22.636719 32.167969 23.316406 32.246094 24 32.25 C 24.683594 32.246094 25.359375 32.167969 26.027344 32.003906 L 29.550781 38.113281 L 33.449219 35.863281 L 30.019531 29.925781 C 31.128906 28.921875 31.972656 27.660156 32.472656 26.25 L 39 26.25 L 39 21.75 L 32.871094 21.75 C 32.578125 20.011719 31.777344 18.402344 30.574219 17.113281 L 33.449219 12.136719 L 29.550781 9.886719 L 26.777344 14.691406 C 25.878906 14.402344 24.941406 14.25 24 14.25 C 23.058594 14.253906 22.125 14.40625 21.230469 14.699219 Z M 24 17.25 C 27.3125 17.25 30 19.9375 30 23.25 C 30 26.5625 27.3125 29.25 24 29.25 C 20.6875 29.25 18 26.5625 18 23.25 C 18 19.9375 20.6875 17.25 24 17.25 Z M 24 17.25 "/>
</g>
</svg>
