<?xml version="1.0" encoding="UTF-8"?>
<svg xmlns="http://www.w3.org/2000/svg" xmlns:xlink="http://www.w3.org/1999/xlink" width="48pt" height="48pt" viewBox="0 0 48 48" version="1.1">
<g id="surface1">
<path style=" stroke:none;fill-rule:evenodd;fill:rgb(52.54902%,19.215686%,41.960784%);fill-opacity:1;" d="M 11.207031 2.847656 L 36.792969 2.847656 C 41.40625 2.847656 45.152344 6.59375 45.152344 11.207031 L 45.152344 36.792969 C 45.152344 41.40625 41.40625 45.152344 36.792969 45.152344 L 11.207031 45.152344 C 6.59375 45.152344 2.847656 41.40625 2.847656 36.792969 L 2.847656 11.207031 C 2.847656 6.59375 6.59375 2.847656 11.207031 2.847656 Z M 11.207031 2.847656 "/>
<path style="fill:none;stroke-width:1;stroke-linecap:butt;stroke-linejoin:miter;stroke:rgb(100%,100%,100%);stroke-opacity:1;stroke-miterlimit:4;" d="M 11.5 11.5 L 19.5 8.5 L 23.5 13.5 L 20.5 22.5 L 13.5 23.5 L 8.5 19.5 Z M 11.5 11.5 " transform="matrix(1.5,0,0,1.5,0,0)"/>
<path style="fill:none;stroke-width:1;stroke-linecap:butt;stroke-linejoin:miter;stroke:rgb(100%,100%,100%);stroke-opacity:1;stroke-miterlimit:4;" d="M 16.5 18.5 L 19.5 8.5 " transform="matrix(1.5,0,0,1.5,0,0)"/>
<path style="fill:none;stroke-width:1;stroke-linecap:butt;stroke-linejoin:miter;stroke:rgb(100%,100%,100%);stroke-opacity:1;stroke-miterlimit:4;" d="M 16.5 18.5 L 11.5 11.5 " transform="matrix(1.5,0,0,1.5,0,0)"/>
<path style="fill:none;stroke-width:1;stroke-linecap:butt;stroke-linejoin:miter;stroke:rgb(100%,100%,100%);stroke-opacity:1;stroke-miterlimit:4;" d="M 16.5 18.5 L 8.5 19.5 " transform="matrix(1.5,0,0,1.5,0,0)"/>
<path style="fill:none;stroke-width:1;stroke-linecap:butt;stroke-linejoin:miter;stroke:rgb(100%,100%,100%);stroke-opacity:1;stroke-miterlimit:4;" d="M 16.5 18.5 L 20.5 22.5 " transform="matrix(1.5,0,0,1.5,0,0)"/>
<path style="fill:none;stroke-width:1;stroke-linecap:butt;stroke-linejoin:miter;stroke:rgb(100%,100%,100%);stroke-opacity:1;stroke-miterlimit:4;" d="M 16.5 18.5 L 13.5 23.5 " transform="matrix(1.5,0,0,1.5,0,0)"/>
<path style="fill:none;stroke-width:1;stroke-linecap:butt;stroke-linejoin:miter;stroke:rgb(100%,100%,100%);stroke-opacity:1;stroke-miterlimit:4;" d="M 16.5 18.5 L 23.5 13.5 " transform="matrix(1.5,0,0,1.5,0,0)"/>
<path style=" stroke:none;fill-rule:nonzero;fill:rgb(100%,100%,100%);fill-opacity:1;" d="M 31.5 12.75 C 31.5 13.996094 30.496094 15 29.25 15 C 28.003906 15 27 13.996094 27 12.75 C 27 11.503906 28.003906 10.5 29.25 10.5 C 30.496094 10.5 31.5 11.503906 31.5 12.75 Z M 31.5 12.75 "/>
<path style=" stroke:none;fill-rule:nonzero;fill:rgb(100%,100%,100%);fill-opacity:1;" d="M 37.5 20.25 C 37.5 21.496094 36.496094 22.5 35.25 22.5 C 34.003906 22.5 33 21.496094 33 20.25 C 33 19.003906 34.003906 18 35.25 18 C 36.496094 18 37.5 19.003906 37.5 20.25 Z M 37.5 20.25 "/>
<path style=" stroke:none;fill-rule:nonzero;fill:rgb(100%,100%,100%);fill-opacity:1;" d="M 33 33.75 C 33 34.996094 31.996094 36 30.75 36 C 29.503906 36 28.5 34.996094 28.5 33.75 C 28.5 32.503906 29.503906 31.5 30.75 31.5 C 31.996094 31.5 33 32.503906 33 33.75 Z M 33 33.75 "/>
<path style=" stroke:none;fill-rule:nonzero;fill:rgb(100%,100%,100%);fill-opacity:1;" d="M 22.5 35.25 C 22.5 36.496094 21.496094 37.5 20.25 37.5 C 19.003906 37.5 18 36.496094 18 35.25 C 18 34.003906 19.003906 33 20.25 33 C 21.496094 33 22.5 34.003906 22.5 35.25 Z M 22.5 35.25 "/>
<path style=" stroke:none;fill-rule:nonzero;fill:rgb(100%,100%,100%);fill-opacity:1;" d="M 15 29.25 C 15 30.496094 13.996094 31.5 12.75 31.5 C 11.503906 31.5 10.5 30.496094 10.5 29.25 C 10.5 28.003906 11.503906 27 12.75 27 C 13.996094 27 15 28.003906 15 29.25 Z M 15 29.25 "/>
<path style=" stroke:none;fill-rule:nonzero;fill:rgb(100%,100%,100%);fill-opacity:1;" d="M 19.5 17.25 C 19.5 18.496094 18.496094 19.5 17.25 19.5 C 16.003906 19.5 15 18.496094 15 17.25 C 15 16.003906 16.003906 15 17.25 15 C 18.496094 15 19.5 16.003906 19.5 17.25 Z M 19.5 17.25 "/>
<path style=" stroke:none;fill-rule:nonzero;fill:rgb(100%,100%,100%);fill-opacity:1;" d="M 27 27.75 C 27 28.996094 25.996094 30 24.75 30 C 23.503906 30 22.5 28.996094 22.5 27.75 C 22.5 26.503906 23.503906 25.5 24.75 25.5 C 25.996094 25.5 27 26.503906 27 27.75 Z M 27 27.75 "/>
</g>
</svg>
