<?xml version="1.0" encoding="UTF-8"?>
<svg xmlns="http://www.w3.org/2000/svg" xmlns:xlink="http://www.w3.org/1999/xlink" width="48pt" height="48pt" viewBox="0 0 48 48" version="1.1">
<g id="surface1">
<path style=" stroke:none;fill-rule:evenodd;fill:rgb(100%,53.333333%,20%);fill-opacity:1;" d="M 11.207031 2.847656 L 36.792969 2.847656 C 41.40625 2.847656 45.152344 6.59375 45.152344 11.207031 L 45.152344 36.792969 C 45.152344 41.40625 41.40625 45.152344 36.792969 45.152344 L 11.207031 45.152344 C 6.59375 45.152344 2.847656 41.40625 2.847656 36.792969 L 2.847656 11.207031 C 2.847656 6.59375 6.59375 2.847656 11.207031 2.847656 Z M 11.207031 2.847656 "/>
<path style=" stroke:none;fill-rule:nonzero;fill:rgb(100%,100%,100%);fill-opacity:1;" d="M 7.875 25.46875 C 7.808594 25.46875 7.75 25.527344 7.738281 25.605469 L 7.5 27.527344 L 7.738281 29.410156 C 7.75 29.488281 7.808594 29.542969 7.875 29.542969 C 7.941406 29.542969 7.996094 29.488281 8.003906 29.410156 L 8.292969 27.527344 L 8.003906 25.605469 C 7.996094 25.527344 7.941406 25.46875 7.875 25.46875 Z M 9.230469 24.421875 C 9.21875 24.339844 9.160156 24.28125 9.09375 24.28125 C 9.019531 24.28125 8.964844 24.339844 8.957031 24.421875 C 8.957031 24.421875 8.628906 27.527344 8.628906 27.527344 L 8.957031 30.558594 C 8.964844 30.640625 9.019531 30.699219 9.09375 30.699219 C 9.160156 30.699219 9.21875 30.640625 9.230469 30.558594 L 9.597656 27.527344 Z M 14.34375 21.5625 C 14.207031 21.5625 14.097656 21.671875 14.09375 21.816406 L 13.832031 27.527344 L 14.09375 31.214844 C 14.097656 31.359375 14.207031 31.472656 14.34375 31.472656 C 14.472656 31.472656 14.582031 31.359375 14.59375 31.214844 L 14.886719 27.527344 L 14.59375 21.816406 C 14.582031 21.671875 14.472656 21.5625 14.34375 21.5625 Z M 11.699219 23.546875 C 11.59375 23.546875 11.511719 23.628906 11.503906 23.746094 L 11.214844 27.527344 L 11.503906 31.183594 C 11.511719 31.296875 11.59375 31.386719 11.699219 31.386719 C 11.796875 31.386719 11.878906 31.296875 11.890625 31.183594 L 12.21875 27.527344 L 11.890625 23.746094 C 11.878906 23.628906 11.796875 23.542969 11.699219 23.542969 Z M 17.03125 31.472656 C 17.199219 31.472656 17.328125 31.332031 17.339844 31.15625 L 17.589844 27.53125 L 17.339844 19.933594 C 17.332031 19.753906 17.199219 19.613281 17.03125 19.613281 C 16.863281 19.613281 16.730469 19.753906 16.722656 19.933594 C 16.722656 19.933594 16.5 27.53125 16.5 27.53125 L 16.722656 31.15625 C 16.730469 31.332031 16.863281 31.472656 17.03125 31.472656 Z M 22.535156 31.488281 C 22.765625 31.488281 22.949219 31.292969 22.953125 31.050781 L 22.953125 31.058594 L 22.953125 31.050781 L 23.128906 27.53125 L 22.953125 18.753906 C 22.949219 18.515625 22.765625 18.316406 22.535156 18.316406 C 22.308594 18.316406 22.121094 18.515625 22.113281 18.753906 L 21.957031 27.527344 C 21.957031 27.53125 22.113281 31.058594 22.113281 31.058594 C 22.121094 31.292969 22.308594 31.488281 22.535156 31.488281 Z M 19.761719 31.472656 C 19.957031 31.472656 20.121094 31.308594 20.125 31.097656 L 20.339844 27.53125 L 20.125 19.875 C 20.121094 19.667969 19.957031 19.5 19.761719 19.5 C 19.5625 19.5 19.40625 19.667969 19.402344 19.875 L 19.207031 27.53125 L 19.402344 31.097656 C 19.40625 31.308594 19.5625 31.472656 19.761719 31.472656 Z M 13.015625 31.441406 C 13.128906 31.441406 13.230469 31.34375 13.234375 31.214844 L 13.546875 27.527344 L 13.234375 24.015625 C 13.230469 23.886719 13.128906 23.785156 13.015625 23.785156 C 12.894531 23.785156 12.800781 23.886719 12.792969 24.015625 L 12.519531 27.527344 L 12.792969 31.214844 C 12.800781 31.34375 12.894531 31.441406 13.015625 31.441406 Z M 10.390625 31.238281 C 10.472656 31.238281 10.546875 31.167969 10.558594 31.074219 L 10.90625 27.527344 L 10.558594 23.84375 C 10.546875 23.746094 10.472656 23.675781 10.390625 23.675781 C 10.300781 23.675781 10.234375 23.746094 10.222656 23.84375 C 10.222656 23.84375 9.917969 27.527344 9.917969 27.527344 L 10.222656 31.074219 C 10.234375 31.171875 10.300781 31.238281 10.390625 31.238281 Z M 21.144531 19.75 C 20.925781 19.75 20.753906 19.925781 20.753906 20.15625 L 20.578125 27.53125 L 20.753906 31.078125 C 20.753906 31.300781 20.925781 31.484375 21.144531 31.484375 C 21.359375 31.484375 21.53125 31.300781 21.535156 31.074219 L 21.535156 31.078125 L 21.730469 27.53125 L 21.535156 20.15625 C 21.53125 19.925781 21.359375 19.75 21.144531 19.75 Z M 15.683594 31.480469 C 15.832031 31.480469 15.953125 31.355469 15.957031 31.191406 L 16.234375 27.527344 L 15.957031 20.515625 C 15.953125 20.355469 15.832031 20.230469 15.683594 20.230469 C 15.53125 20.230469 15.410156 20.355469 15.40625 20.515625 C 15.40625 20.515625 15.160156 27.527344 15.160156 27.527344 L 15.40625 31.191406 C 15.410156 31.355469 15.53125 31.480469 15.683594 31.480469 Z M 18.722656 31.136719 L 18.722656 31.128906 L 18.957031 27.53125 L 18.722656 19.675781 C 18.71875 19.480469 18.574219 19.328125 18.390625 19.328125 C 18.207031 19.328125 18.0625 19.480469 18.058594 19.675781 L 17.847656 27.53125 L 18.058594 31.136719 C 18.0625 31.328125 18.207031 31.480469 18.390625 31.480469 C 18.574219 31.480469 18.71875 31.328125 18.722656 31.128906 Z M 36.441406 23 C 35.886719 23 35.355469 23.121094 34.871094 23.332031 C 34.546875 19.503906 31.480469 16.5 27.738281 16.5 C 26.824219 16.5 25.933594 16.6875 25.140625 17.003906 C 24.839844 17.128906 24.753906 17.261719 24.75 17.503906 L 24.75 30.988281 C 24.753906 31.25 24.949219 31.46875 25.1875 31.496094 C 25.199219 31.496094 36.371094 31.5 36.441406 31.5 C 38.683594 31.5 40.5 29.597656 40.5 27.25 C 40.5 24.90625 38.683594 23 36.441406 23 Z M 23.921875 17.496094 C 23.675781 17.496094 23.480469 17.703125 23.472656 17.964844 L 23.292969 27.53125 L 23.472656 31.003906 C 23.480469 31.261719 23.675781 31.46875 23.921875 31.46875 C 24.167969 31.46875 24.363281 31.261719 24.371094 31 L 24.371094 31.003906 L 24.566406 27.53125 L 24.371094 17.964844 C 24.363281 17.703125 24.167969 17.496094 23.921875 17.496094 Z M 23.921875 17.496094 "/>
</g>
</svg>
