<?xml version="1.0" encoding="UTF-8"?>
<svg xmlns="http://www.w3.org/2000/svg" xmlns:xlink="http://www.w3.org/1999/xlink" width="48pt" height="48pt" viewBox="0 0 48 48" version="1.1">
<g id="surface1">
<path style=" stroke:none;fill-rule:evenodd;fill:rgb(0%,49.411765%,100%);fill-opacity:1;" d="M 11.207031 2.847656 L 36.792969 2.847656 C 41.40625 2.847656 45.152344 6.59375 45.152344 11.207031 L 45.152344 36.792969 C 45.152344 41.40625 41.40625 45.152344 36.792969 45.152344 L 11.207031 45.152344 C 6.59375 45.152344 2.847656 41.40625 2.847656 36.792969 L 2.847656 11.207031 C 2.847656 6.59375 6.59375 2.847656 11.207031 2.847656 Z M 11.207031 2.847656 "/>
<path style=" stroke:none;fill-rule:nonzero;fill:rgb(52.156863%,52.156863%,52.156863%);fill-opacity:1;" d="M 24 15.984375 C 19.574219 15.984375 15.984375 19.574219 15.984375 24 C 15.984375 28.425781 19.574219 32.015625 24 32.015625 C 28.425781 32.015625 32.015625 28.425781 32.015625 24 C 32.015625 19.574219 28.425781 15.984375 24 15.984375 Z M 24 20.796875 C 25.769531 20.796875 27.203125 22.230469 27.203125 24 C 27.203125 25.769531 25.769531 27.203125 24 27.203125 C 22.230469 27.203125 20.796875 25.769531 20.796875 24 C 20.796875 22.230469 22.230469 20.796875 24 20.796875 Z M 24 20.796875 "/>
<path style=" stroke:none;fill-rule:nonzero;fill:rgb(80%,80%,80%);fill-opacity:1;" d="M 24 7.972656 C 15.121094 7.972656 7.972656 15.121094 7.972656 24 C 7.972656 32.878906 15.121094 40.027344 24 40.027344 C 32.878906 40.027344 40.027344 32.878906 40.027344 24 C 40.027344 15.121094 32.878906 7.972656 24 7.972656 Z M 24 17.589844 C 27.542969 17.589844 30.410156 20.457031 30.410156 24 C 30.410156 27.542969 27.542969 30.410156 24 30.410156 C 20.457031 30.410156 17.589844 27.542969 17.589844 24 C 17.589844 20.457031 20.457031 17.589844 24 17.589844 Z M 24 17.589844 "/>
<path style=" stroke:none;fill-rule:nonzero;fill:rgb(100%,62.352941%,14.901961%);fill-opacity:1;" d="M 35.421875 23.980469 C 33.515625 26.652344 27.03125 34.183594 29.792969 38.542969 C 31.925781 41.910156 39.191406 41.925781 41.300781 38.542969 C 44.050781 34.136719 37.046875 26.652344 35.421875 23.980469 Z M 35.421875 23.980469 "/>
<path style=" stroke:none;fill-rule:nonzero;fill:rgb(100%,100%,100%);fill-opacity:1;" d="M 27.550781 24 C 27.550781 25.964844 25.964844 27.550781 24 27.550781 C 22.035156 27.550781 20.449219 25.964844 20.449219 24 C 20.449219 22.035156 22.035156 20.449219 24 20.449219 C 25.964844 20.449219 27.550781 22.035156 27.550781 24 Z M 27.550781 24 "/>
</g>
</svg>
