<?xml version="1.0" encoding="UTF-8"?>
<svg xmlns="http://www.w3.org/2000/svg" xmlns:xlink="http://www.w3.org/1999/xlink" width="48pt" height="48pt" viewBox="0 0 48 48" version="1.1">
<g id="surface1">
<path style=" stroke:none;fill-rule:evenodd;fill:rgb(35.294118%,61.960784%,5.098039%);fill-opacity:1;" d="M 11.207031 2.847656 L 36.792969 2.847656 C 41.40625 2.847656 45.152344 6.59375 45.152344 11.207031 L 45.152344 36.792969 C 45.152344 41.40625 41.40625 45.152344 36.792969 45.152344 L 11.207031 45.152344 C 6.59375 45.152344 2.847656 41.40625 2.847656 36.792969 L 2.847656 11.207031 C 2.847656 6.59375 6.59375 2.847656 11.207031 2.847656 Z M 11.207031 2.847656 "/>
<path style=" stroke:none;fill-rule:nonzero;fill:rgb(68.235294%,94.901961%,37.647059%);fill-opacity:1;" d="M 24 9 C 15.6875 9 9 15.6875 9 24 C 9 32.3125 15.6875 39 24 39 C 32.3125 39 39 32.3125 39 24 L 34.5 24 C 34.5 29.796875 29.796875 34.5 24 34.5 C 18.203125 34.5 13.5 29.796875 13.5 24 C 13.5 18.203125 18.203125 13.5 24 13.5 Z M 24 9 "/>
<path style=" stroke:none;fill-rule:nonzero;fill:rgb(100%,60.392157%,10.588235%);fill-opacity:1;" d="M 24 9 L 24 13.5 C 29.796875 13.5 34.5 18.203125 34.5 24 L 39 24 C 39 15.6875 32.3125 9 24 9 Z M 24 9 "/>
</g>
</svg>
