<?xml version="1.0" encoding="UTF-8"?>
<svg xmlns="http://www.w3.org/2000/svg" xmlns:xlink="http://www.w3.org/1999/xlink" width="48pt" height="48pt" viewBox="0 0 48 48" version="1.1">
<g id="surface1">
<path style=" stroke:none;fill-rule:evenodd;fill:rgb(96.078431%,46.27451%,20.784314%);fill-opacity:1;" d="M 11.207031 2.847656 L 36.792969 2.847656 C 41.40625 2.847656 45.152344 6.59375 45.152344 11.207031 L 45.152344 36.792969 C 45.152344 41.40625 41.40625 45.152344 36.792969 45.152344 L 11.207031 45.152344 C 6.59375 45.152344 2.847656 41.40625 2.847656 36.792969 L 2.847656 11.207031 C 2.847656 6.59375 6.59375 2.847656 11.207031 2.847656 Z M 11.207031 2.847656 "/>
<path style=" stroke:none;fill-rule:nonzero;fill:rgb(100%,100%,100%);fill-opacity:1;" d="M 25.550781 15 C 22.40625 15.003906 19.535156 16.722656 18.144531 19.433594 C 17.558594 19.140625 16.90625 18.984375 16.238281 18.980469 C 13.957031 18.980469 12.105469 20.765625 12.105469 22.964844 C 12.105469 23.097656 12.113281 23.238281 12.128906 23.378906 C 10.300781 24.089844 9 25.886719 9 28.019531 C 9 30.78125 11.15625 33 13.828125 33 L 33.136719 33 C 33.566406 33 33.980469 32.921875 34.375 32.816406 C 37.058594 32.324219 39 30.066406 39 27.441406 C 39 24.578125 36.703125 22.203125 33.734375 21.988281 L 33.753906 21.96875 C 33.234375 17.988281 29.71875 15.003906 25.550781 15 Z M 24 19.5 L 30 25.5 L 25.5 25.5 L 25.5 31.5 L 22.5 31.5 L 22.5 25.5 L 18 25.5 Z M 24 19.5 "/>
</g>
</svg>
