<?xml version="1.0" encoding="UTF-8"?>
<svg xmlns="http://www.w3.org/2000/svg" xmlns:xlink="http://www.w3.org/1999/xlink" width="48pt" height="48pt" viewBox="0 0 48 48" version="1.1">
<g id="surface1">
<path style=" stroke:none;fill-rule:evenodd;fill:rgb(23.529412%,38.431373%,56.470588%);fill-opacity:1;" d="M 11.207031 2.847656 L 36.792969 2.847656 C 41.40625 2.847656 45.152344 6.59375 45.152344 11.207031 L 45.152344 36.792969 C 45.152344 41.40625 41.40625 45.152344 36.792969 45.152344 L 11.207031 45.152344 C 6.59375 45.152344 2.847656 41.40625 2.847656 36.792969 L 2.847656 11.207031 C 2.847656 6.59375 6.59375 2.847656 11.207031 2.847656 Z M 11.207031 2.847656 "/>
<path style=" stroke:none;fill-rule:nonzero;fill:rgb(100%,100%,100%);fill-opacity:1;" d="M 32.316406 8.234375 C 31.558594 8.230469 30.792969 8.5 30.21875 9.027344 C 29.207031 9.949219 28.964844 11.519531 29.640625 12.734375 C 30.019531 13.410156 30.988281 14.078125 31.785156 14.199219 C 33.597656 14.480469 35.261719 13.058594 35.261719 11.230469 C 35.261719 10.09375 34.511719 8.9375 33.480469 8.480469 C 33.109375 8.316406 32.714844 8.238281 32.316406 8.234375 Z M 32.316406 8.234375 "/>
<path style="fill:none;stroke-width:2;stroke-linecap:round;stroke-linejoin:round;stroke:rgb(100%,100%,100%);stroke-opacity:1;stroke-miterlimit:4;" d="M 12.001708 13.000121 L 14.600666 10.000121 L 19.501708 10.000121 L 22.501708 13.000121 L 25.001708 10.000121 " transform="matrix(1.5,0,0,1.5,0.759157,0.734193)"/>
<path style="fill:none;stroke-width:3;stroke-linecap:round;stroke-linejoin:round;stroke:rgb(100%,100%,100%);stroke-opacity:1;stroke-miterlimit:4;" d="M 6.501708 18.500121 L 11.798583 18.500121 L 14.501708 15.500121 L 18.501708 18.500121 L 17.501708 24.500121 " transform="matrix(1.5,0,0,1.5,0.759157,0.734193)"/>
<path style=" stroke:none;fill-rule:nonzero;fill:rgb(100%,100%,100%);fill-opacity:1;" d="M 19.808594 23.65625 L 27.316406 14.363281 L 31.890625 17.832031 L 24.386719 27.125 Z M 19.808594 23.65625 "/>
</g>
</svg>
