<?xml version="1.0" encoding="UTF-8"?>
<svg xmlns="http://www.w3.org/2000/svg" xmlns:xlink="http://www.w3.org/1999/xlink" width="48pt" height="48pt" viewBox="0 0 48 48" version="1.1">
<g id="surface1">
<path style=" stroke:none;fill-rule:evenodd;fill:rgb(11.764706%,84.313725%,37.647059%);fill-opacity:1;" d="M 11.207031 2.847656 L 36.792969 2.847656 C 41.40625 2.847656 45.152344 6.59375 45.152344 11.207031 L 45.152344 36.792969 C 45.152344 41.40625 41.40625 45.152344 36.792969 45.152344 L 11.207031 45.152344 C 6.59375 45.152344 2.847656 41.40625 2.847656 36.792969 L 2.847656 11.207031 C 2.847656 6.59375 6.59375 2.847656 11.207031 2.847656 Z M 11.207031 2.847656 "/>
<path style=" stroke:none;fill-rule:nonzero;fill:rgb(100%,100%,100%);fill-opacity:1;" d="M 21.089844 15 C 18.542969 15 16.082031 15.261719 13.984375 15.78125 C 12.90625 16.046875 12.828125 16.078125 12.527344 16.332031 C 12.15625 16.640625 12 16.984375 12 17.472656 C 12 18.078125 12.292969 18.546875 12.839844 18.816406 C 13.28125 19.035156 13.574219 19.03125 14.550781 18.78125 C 15.542969 18.53125 16.941406 18.292969 18.167969 18.160156 C 19.417969 18.027344 23.355469 18.050781 24.613281 18.199219 C 28.027344 18.589844 30.457031 19.238281 32.816406 20.378906 C 33.421875 20.675781 34.015625 20.9375 34.144531 20.96875 C 34.816406 21.125 35.621094 20.707031 35.902344 20.066406 C 36.042969 19.746094 36.03125 19.15625 35.878906 18.839844 C 35.691406 18.449219 35.3125 18.167969 34.308594 17.675781 C 32.589844 16.847656 30.746094 16.222656 28.6875 15.78125 C 26.261719 15.261719 23.628906 15 21.089844 15 Z M 20.066406 21.003906 C 19.613281 21.011719 19.222656 21.027344 18.957031 21.058594 C 17.25 21.230469 15.027344 21.699219 14.324219 22.042969 C 13.582031 22.394531 13.316406 23.550781 13.777344 24.292969 C 13.953125 24.574219 14.472656 24.886719 14.769531 24.886719 C 14.886719 24.886719 15.421875 24.761719 15.972656 24.609375 C 17.574219 24.167969 18.640625 24.019531 20.59375 23.984375 C 21.859375 23.964844 22.96875 23.984375 23.707031 24.066406 C 26.839844 24.425781 29.59375 25.046875 32.25 26.609375 C 32.613281 26.824219 32.996094 27 33.089844 27 C 33.878906 27 34.566406 26.019531 34.433594 25.234375 C 34.316406 24.546875 34.019531 24.253906 32.660156 23.5 C 30.410156 22.246094 27.488281 21.589844 24.550781 21.15625 C 24.050781 21.082031 23.027344 21.03125 22 21.011719 C 21.484375 21 20.519531 21 20.066406 21.003906 Z M 21.734375 27.003906 C 21.371094 27.011719 21.058594 27.027344 20.847656 27.058594 C 19.480469 27.230469 17.703125 27.699219 17.136719 28.042969 C 16.542969 28.394531 16.332031 29.550781 16.699219 30.292969 C 16.839844 30.574219 17.253906 30.886719 17.496094 30.886719 C 17.582031 30.886719 18.019531 30.761719 18.457031 30.609375 C 19.734375 30.167969 20.589844 30.019531 22.152344 29.984375 C 23.167969 29.964844 23.175781 29.984375 23.765625 30.066406 C 26.269531 30.425781 27.660156 31.046875 29.785156 32.609375 C 30.082031 32.824219 30.386719 33 30.464844 33 C 31.097656 33 31.644531 32.171875 31.535156 31.386719 C 31.441406 30.691406 31.207031 30.40625 30.121094 29.652344 C 28.324219 28.390625 26.792969 27.589844 24.441406 27.15625 C 24.042969 27.082031 23.222656 27.03125 22.402344 27.011719 C 21.988281 27 22.097656 27 21.734375 27.003906 Z M 21.734375 27.003906 "/>
</g>
</svg>
