<?xml version="1.0" encoding="UTF-8"?>
<svg xmlns="http://www.w3.org/2000/svg" xmlns:xlink="http://www.w3.org/1999/xlink" width="48pt" height="48pt" viewBox="0 0 48 48" version="1.1">
<g id="surface1">
<path style=" stroke:none;fill-rule:evenodd;fill:rgb(37.254902%,48.627451%,54.117647%);fill-opacity:1;" d="M 11.207031 2.847656 L 36.792969 2.847656 C 41.40625 2.847656 45.152344 6.59375 45.152344 11.207031 L 45.152344 36.792969 C 45.152344 41.40625 41.40625 45.152344 36.792969 45.152344 L 11.207031 45.152344 C 6.59375 45.152344 2.847656 41.40625 2.847656 36.792969 L 2.847656 11.207031 C 2.847656 6.59375 6.59375 2.847656 11.207031 2.847656 Z M 11.207031 2.847656 "/>
<path style=" stroke:none;fill-rule:nonzero;fill:rgb(49.803922%,58.823529%,63.137255%);fill-opacity:1;" d="M 40.5 24 C 40.5 14.886719 33.113281 7.5 24 7.5 C 14.886719 7.5 7.5 14.886719 7.5 24 C 7.5 33.113281 14.886719 40.5 24 40.5 C 33.113281 40.5 40.5 33.113281 40.5 24 Z M 40.5 24 "/>
<path style=" stroke:none;fill-rule:nonzero;fill:rgb(87.45098%,89.803922%,90.980392%);fill-opacity:1;" d="M 24 11.625 L 20.660156 15.636719 C 17.339844 16.957031 15 20.207031 15 24 C 15 28.96875 19.03125 33 24 33 C 28.96875 33 33 28.96875 33 24 C 33 20.207031 30.660156 16.957031 27.339844 15.628906 Z M 24 11.625 "/>
</g>
</svg>
