<?xml version="1.0" encoding="UTF-8"?>
<svg xmlns="http://www.w3.org/2000/svg" xmlns:xlink="http://www.w3.org/1999/xlink" width="48pt" height="48pt" viewBox="0 0 48 48" version="1.1">
<g id="surface1">
<path style=" stroke:none;fill-rule:evenodd;fill:rgb(23.529412%,34.117647%,44.313725%);fill-opacity:1;" d="M 11.207031 2.847656 L 36.792969 2.847656 C 41.40625 2.847656 45.152344 6.59375 45.152344 11.207031 L 45.152344 36.792969 C 45.152344 41.40625 41.40625 45.152344 36.792969 45.152344 L 11.207031 45.152344 C 6.59375 45.152344 2.847656 41.40625 2.847656 36.792969 L 2.847656 11.207031 C 2.847656 6.59375 6.59375 2.847656 11.207031 2.847656 Z M 11.207031 2.847656 "/>
<path style=" stroke:none;fill-rule:nonzero;fill:rgb(39.215686%,87.058824%,86.27451%);fill-opacity:1;" d="M 24 6.628906 C 22.753906 6.628906 21.75 7.640625 21.75 8.878906 C 21.75 10.125 22.753906 11.128906 24 11.128906 C 25.246094 11.128906 26.25 10.125 26.25 8.878906 C 26.25 7.640625 25.246094 6.628906 24 6.628906 Z M 14.949219 9.628906 C 14.574219 9.640625 14.203125 9.738281 13.875 9.933594 C 13.359375 10.230469 12.980469 10.71875 12.828125 11.296875 C 12.671875 11.875 12.75 12.488281 13.050781 13.003906 C 13.671875 14.082031 15.046875 14.453125 16.125 13.828125 C 17.203125 13.207031 17.566406 11.832031 16.949219 10.753906 C 16.535156 10.042969 15.769531 9.613281 14.949219 9.628906 Z M 33.050781 9.628906 C 32.230469 9.613281 31.464844 10.042969 31.050781 10.753906 C 30.433594 11.832031 30.796875 13.207031 31.875 13.828125 C 32.953125 14.453125 34.328125 14.082031 34.949219 13.003906 C 35.25 12.488281 35.328125 11.875 35.171875 11.296875 C 35.019531 10.71875 34.640625 10.230469 34.125 9.933594 C 33.796875 9.738281 33.425781 9.640625 33.050781 9.628906 Z M 9.058594 15.628906 C 9 15.628906 8.949219 15.628906 8.894531 15.636719 C 8.128906 15.671875 7.4375 16.09375 7.050781 16.753906 C 6.433594 17.832031 6.800781 19.207031 7.878906 19.828125 C 8.953125 20.453125 10.328125 20.082031 10.953125 19.003906 C 11.574219 17.933594 11.203125 16.550781 10.128906 15.933594 C 9.800781 15.746094 9.433594 15.640625 9.058594 15.628906 Z M 38.941406 15.628906 C 38.566406 15.640625 38.199219 15.746094 37.871094 15.933594 C 36.796875 16.550781 36.425781 17.933594 37.046875 19.003906 C 37.671875 20.082031 39.046875 20.453125 40.121094 19.828125 C 41.199219 19.207031 41.566406 17.832031 40.949219 16.753906 C 40.5625 16.09375 39.871094 15.671875 39.105469 15.636719 C 39.050781 15.628906 39 15.628906 38.941406 15.628906 Z M 7.5 24.628906 C 6.253906 24.628906 5.25 25.640625 5.25 26.878906 C 5.25 28.125 6.253906 29.128906 7.5 29.128906 C 8.746094 29.128906 9.75 28.125 9.75 26.878906 C 9.75 25.640625 8.746094 24.628906 7.5 24.628906 Z M 40.5 24.628906 C 39.253906 24.628906 38.25 25.640625 38.25 26.878906 C 38.25 28.125 39.253906 29.128906 40.5 29.128906 C 41.746094 29.128906 42.75 28.125 42.75 26.878906 C 42.75 25.640625 41.746094 24.628906 40.5 24.628906 Z M 10.449219 32.128906 C 10.074219 32.140625 9.703125 32.246094 9.378906 32.433594 C 8.300781 33.050781 7.933594 34.425781 8.550781 35.503906 C 8.847656 36.027344 9.34375 36.402344 9.917969 36.558594 C 10.496094 36.707031 11.109375 36.628906 11.628906 36.328125 C 12.703125 35.707031 13.074219 34.332031 12.453125 33.253906 C 12.042969 32.542969 11.269531 32.109375 10.449219 32.128906 Z M 37.390625 32.128906 C 36.625 32.167969 35.933594 32.59375 35.546875 33.253906 C 34.925781 34.332031 35.296875 35.707031 36.371094 36.328125 C 36.890625 36.628906 37.503906 36.707031 38.082031 36.558594 C 38.65625 36.402344 39.152344 36.027344 39.449219 35.503906 C 40.066406 34.425781 39.699219 33.050781 38.621094 32.433594 C 38.296875 32.246094 37.925781 32.140625 37.550781 32.128906 C 37.5 32.128906 37.441406 32.128906 37.390625 32.128906 Z M 37.390625 32.128906 "/>
<path style=" stroke:none;fill-rule:nonzero;fill:rgb(94.117647%,94.901961%,96.862745%);fill-opacity:1;" d="M 37.042969 28.875 L 24.863281 27.941406 L 26.03125 23.59375 Z M 37.042969 28.875 "/>
<path style=" stroke:none;fill-rule:nonzero;fill:rgb(14.117647%,18.823529%,24.313725%);fill-opacity:1;" d="M 23.03125 29.003906 C 21.027344 28.46875 19.84375 26.410156 20.375 24.410156 C 20.910156 22.410156 22.96875 21.222656 24.96875 21.761719 C 26.96875 22.292969 28.15625 24.347656 27.621094 26.347656 C 27.082031 28.347656 25.03125 29.535156 23.03125 29.003906 Z M 23.03125 29.003906 "/>
</g>
</svg>
