<?xml version="1.0" encoding="UTF-8"?>
<svg xmlns="http://www.w3.org/2000/svg" xmlns:xlink="http://www.w3.org/1999/xlink" width="48pt" height="48pt" viewBox="0 0 48 48" version="1.1">
<g id="surface1">
<path style=" stroke:none;fill-rule:evenodd;fill:rgb(80%,80%,80%);fill-opacity:1;" d="M 11.207031 2.847656 L 36.792969 2.847656 C 41.40625 2.847656 45.152344 6.59375 45.152344 11.207031 L 45.152344 36.792969 C 45.152344 41.40625 41.40625 45.152344 36.792969 45.152344 L 11.207031 45.152344 C 6.59375 45.152344 2.847656 41.40625 2.847656 36.792969 L 2.847656 11.207031 C 2.847656 6.59375 6.59375 2.847656 11.207031 2.847656 Z M 11.207031 2.847656 "/>
<path style=" stroke:none;fill-rule:nonzero;fill:rgb(100%,36.862745%,25.882353%);fill-opacity:1;" d="M 16.089844 16.550781 C 14.269531 16.550781 12.59375 17.519531 11.683594 19.09375 C 10.777344 20.667969 10.777344 22.605469 11.683594 24.175781 C 12.359375 25.339844 13.464844 26.1875 14.761719 26.535156 C 14.902344 26.578125 15.042969 26.609375 15.1875 26.636719 C 15.28125 26.652344 15.378906 26.667969 15.472656 26.683594 C 15.519531 26.6875 15.566406 26.691406 15.613281 26.699219 C 16.683594 26.8125 17.761719 26.589844 18.691406 26.050781 C 20.265625 25.144531 21.234375 23.464844 21.234375 21.652344 L 16.089844 21.652344 Z M 16.089844 16.550781 "/>
<path style=" stroke:none;fill-rule:nonzero;fill:rgb(40%,40%,40%);fill-opacity:1;" d="M 24.910156 17.730469 L 36.015625 17.730469 C 36.558594 17.730469 36.996094 18.167969 36.996094 18.707031 C 36.996094 19.25 36.558594 19.6875 36.015625 19.6875 L 24.910156 19.6875 C 24.371094 19.6875 23.933594 19.25 23.933594 18.707031 C 23.933594 18.167969 24.371094 17.730469 24.910156 17.730469 Z M 24.910156 17.730469 "/>
<path style=" stroke:none;fill-rule:nonzero;fill:rgb(40%,40%,40%);fill-opacity:1;" d="M 24.910156 23.609375 L 36.015625 23.609375 C 36.558594 23.609375 36.996094 24.046875 36.996094 24.589844 C 36.996094 25.128906 36.558594 25.566406 36.015625 25.566406 L 24.910156 25.566406 C 24.371094 25.566406 23.933594 25.128906 23.933594 24.589844 C 23.933594 24.046875 24.371094 23.609375 24.910156 23.609375 Z M 24.910156 23.609375 "/>
<path style=" stroke:none;fill-rule:nonzero;fill:rgb(40%,40%,40%);fill-opacity:1;" d="M 13.152344 29.488281 L 30.800781 29.488281 C 31.34375 29.488281 31.78125 29.925781 31.78125 30.46875 C 31.78125 31.011719 31.34375 31.449219 30.800781 31.449219 L 13.152344 31.449219 C 12.609375 31.449219 12.171875 31.011719 12.171875 30.46875 C 12.171875 29.925781 12.609375 29.488281 13.152344 29.488281 Z M 13.152344 29.488281 "/>
</g>
</svg>
