<?xml version="1.0" encoding="UTF-8"?>
<svg xmlns="http://www.w3.org/2000/svg" xmlns:xlink="http://www.w3.org/1999/xlink" width="48pt" height="48pt" viewBox="0 0 48 48" version="1.1">
<g id="surface1">
<path style=" stroke:none;fill-rule:evenodd;fill:rgb(57.254902%,57.254902%,57.254902%);fill-opacity:1;" d="M 11.207031 2.847656 L 36.792969 2.847656 C 41.40625 2.847656 45.152344 6.59375 45.152344 11.207031 L 45.152344 36.792969 C 45.152344 41.40625 41.40625 45.152344 36.792969 45.152344 L 11.207031 45.152344 C 6.59375 45.152344 2.847656 41.40625 2.847656 36.792969 L 2.847656 11.207031 C 2.847656 6.59375 6.59375 2.847656 11.207031 2.847656 Z M 11.207031 2.847656 "/>
<path style=" stroke:none;fill-rule:nonzero;fill:rgb(30.980392%,30.980392%,30.980392%);fill-opacity:1;" d="M 39.984375 28.894531 L 39.984375 19.105469 C 39.984375 15.503906 37.121094 12.582031 33.589844 12.582031 L 14.410156 12.582031 C 10.878906 12.582031 8.015625 15.503906 8.015625 19.105469 L 8.015625 28.894531 C 8.015625 32.496094 10.878906 35.417969 14.410156 35.417969 L 33.589844 35.417969 C 37.121094 35.417969 39.984375 32.496094 39.984375 28.894531 Z M 39.984375 28.894531 "/>
<path style=" stroke:none;fill-rule:nonzero;fill:rgb(28.235294%,66.666667%,83.529412%);fill-opacity:1;" d="M 35.417969 26.9375 L 35.417969 21.0625 C 35.417969 18.894531 33.378906 17.152344 30.847656 17.152344 L 17.152344 17.152344 C 14.621094 17.152344 12.582031 18.894531 12.582031 21.0625 L 12.582031 26.9375 C 12.582031 29.105469 14.621094 30.847656 17.152344 30.847656 L 20.003906 30.847656 L 24 28.566406 L 27.996094 30.847656 L 30.847656 30.847656 C 33.378906 30.847656 35.417969 29.105469 35.417969 26.9375 Z M 35.417969 26.9375 "/>
<path style=" stroke:none;fill-rule:nonzero;fill:rgb(57.254902%,57.254902%,57.254902%);fill-opacity:1;" d="M 10.296875 21.285156 L 10.296875 25.566406 C 10.296875 25.964844 9.917969 26.28125 9.441406 26.28125 L 7.730469 26.28125 C 7.253906 26.28125 6.875 25.964844 6.875 25.566406 L 6.875 21.285156 C 6.875 20.894531 7.253906 20.574219 7.730469 20.574219 L 9.441406 20.574219 C 9.917969 20.574219 10.296875 20.894531 10.296875 21.285156 Z M 10.296875 21.285156 "/>
<path style=" stroke:none;fill-rule:nonzero;fill:rgb(57.254902%,57.254902%,57.254902%);fill-opacity:1;" d="M 41.125 21.285156 L 41.125 25.566406 C 41.125 25.964844 40.746094 26.28125 40.269531 26.28125 L 38.558594 26.28125 C 38.082031 26.28125 37.703125 25.964844 37.703125 25.566406 L 37.703125 21.285156 C 37.703125 20.894531 38.082031 20.574219 38.558594 20.574219 L 40.269531 20.574219 C 40.746094 20.574219 41.125 20.894531 41.125 21.285156 Z M 41.125 21.285156 "/>
</g>
</svg>
