<?xml version="1.0" encoding="UTF-8"?>
<svg xmlns="http://www.w3.org/2000/svg" xmlns:xlink="http://www.w3.org/1999/xlink" width="48pt" height="48pt" viewBox="0 0 48 48" version="1.1">
<g id="surface1">
<path style=" stroke:none;fill-rule:evenodd;fill:rgb(15.294118%,43.137255%,83.921569%);fill-opacity:1;" d="M 11.207031 2.847656 L 36.792969 2.847656 C 41.40625 2.847656 45.152344 6.59375 45.152344 11.207031 L 45.152344 36.792969 C 45.152344 41.40625 41.40625 45.152344 36.792969 45.152344 L 11.207031 45.152344 C 6.59375 45.152344 2.847656 41.40625 2.847656 36.792969 L 2.847656 11.207031 C 2.847656 6.59375 6.59375 2.847656 11.207031 2.847656 Z M 11.207031 2.847656 "/>
<path style=" stroke:none;fill-rule:nonzero;fill:rgb(100%,78.823529%,27.843137%);fill-opacity:1;" d="M 23.402344 7.871094 C 21.953125 7.871094 20.550781 8.082031 19.21875 8.449219 C 25.78125 10.269531 30.574219 16.25 30.574219 23.402344 C 30.574219 30.558594 25.78125 36.535156 19.21875 38.355469 C 20.550781 38.722656 21.953125 38.9375 23.402344 38.9375 C 32.011719 38.9375 38.9375 32.011719 38.9375 23.402344 C 38.9375 14.796875 32.011719 7.871094 23.402344 7.871094 Z M 23.402344 7.871094 "/>
<path style=" stroke:none;fill-rule:nonzero;fill:rgb(27.843137%,54.117647%,100%);fill-opacity:1;" d="M 15.636719 25.792969 L 17.667969 29.722656 L 22.207031 30.355469 L 18.921875 33.417969 L 19.699219 37.738281 L 15.636719 35.699219 L 11.574219 37.738281 L 12.347656 33.417969 L 9.0625 30.355469 L 13.605469 29.722656 Z M 15.636719 25.792969 "/>
<path style=" stroke:none;fill-rule:nonzero;fill:rgb(43.529412%,64.313725%,100%);fill-opacity:1;" d="M 21.609375 18.625 L 23.269531 21.769531 L 26.984375 22.277344 L 24.296875 24.722656 L 24.933594 28.183594 L 21.609375 26.546875 L 18.285156 28.183594 L 18.921875 24.722656 L 16.234375 22.277344 L 19.949219 21.769531 Z M 21.609375 18.625 "/>
<path style=" stroke:none;fill-rule:nonzero;fill:rgb(56.470588%,72.54902%,100%);fill-opacity:1;" d="M 17.425781 13.84375 L 18.535156 15.8125 L 21.011719 16.125 L 19.21875 17.65625 L 19.644531 19.816406 L 17.425781 18.796875 L 15.214844 19.816406 L 15.636719 17.65625 L 13.84375 16.125 L 16.324219 15.8125 Z M 17.425781 13.84375 "/>
<path style=" stroke:none;fill-rule:nonzero;fill:rgb(0%,0%,0%);fill-opacity:0.156863;" d="M 21.324219 9.207031 C 20.605469 9.308594 19.90625 9.457031 19.21875 9.644531 C 25.59375 11.410156 30.285156 17.113281 30.546875 24 C 30.550781 23.800781 30.574219 23.605469 30.574219 23.402344 C 30.574219 17.042969 26.777344 11.613281 21.324219 9.207031 Z M 15.0625 17.167969 L 13.84375 17.324219 L 15.4375 18.683594 L 15.636719 17.65625 Z M 19.792969 17.167969 L 19.21875 17.65625 L 19.421875 18.683594 L 21.011719 17.324219 Z M 17.425781 18.796875 L 15.46875 19.699219 L 15.214844 21.011719 L 17.425781 19.996094 L 19.644531 21.011719 L 19.386719 19.699219 Z M 17.375 23.3125 L 16.234375 23.46875 L 18.734375 25.75 L 18.921875 24.722656 Z M 25.84375 23.3125 L 24.296875 24.722656 L 24.488281 25.75 L 26.988281 23.46875 Z M 38.90625 24 C 38.589844 32.324219 31.808594 38.9375 23.402344 38.9375 C 22.699219 38.9375 22.003906 38.886719 21.324219 38.792969 C 20.644531 39.089844 19.949219 39.347656 19.21875 39.550781 C 20.550781 39.917969 21.953125 40.128906 23.402344 40.128906 C 32.011719 40.128906 38.9375 33.203125 38.9375 24.597656 C 38.9375 24.394531 38.910156 24.199219 38.90625 24 Z M 21.609375 26.546875 L 18.527344 28.0625 L 18.285156 29.375 L 21.609375 27.746094 L 24.933594 29.375 L 24.691406 28.0625 Z M 10.183594 31.394531 L 9.0625 31.550781 L 12.167969 34.441406 L 12.347656 33.417969 Z M 21.09375 31.394531 L 18.921875 33.417969 L 19.105469 34.441406 L 22.207031 31.550781 Z M 15.636719 35.699219 L 11.8125 37.621094 L 11.574219 38.9375 L 15.636719 36.894531 L 19.699219 38.9375 L 19.609375 38.453125 C 19.480469 38.417969 19.347656 38.390625 19.21875 38.355469 C 19.339844 38.324219 19.453125 38.277344 19.574219 38.238281 L 19.457031 37.621094 Z M 15.636719 35.699219 "/>
</g>
</svg>
