<?xml version="1.0" encoding="UTF-8"?>
<svg xmlns="http://www.w3.org/2000/svg" xmlns:xlink="http://www.w3.org/1999/xlink" width="48pt" height="48pt" viewBox="0 0 48 48" version="1.1">
<g id="surface1">
<path style=" stroke:none;fill-rule:evenodd;fill:rgb(1.960784%,1.960784%,1.960784%);fill-opacity:0.2;" d="M 11.207031 2.847656 L 36.792969 2.847656 C 41.40625 2.847656 45.152344 6.59375 45.152344 11.207031 L 45.152344 36.792969 C 45.152344 41.40625 41.40625 45.152344 36.792969 45.152344 L 11.207031 45.152344 C 6.59375 45.152344 2.847656 41.40625 2.847656 36.792969 L 2.847656 11.207031 C 2.847656 6.59375 6.59375 2.847656 11.207031 2.847656 Z M 11.207031 2.847656 "/>
<path style=" stroke:none;fill-rule:nonzero;fill:rgb(40.392157%,25.882353%,55.294118%);fill-opacity:1;" d="M 24 7.769531 C 23.152344 7.769531 22.296875 8.082031 21.660156 8.71875 L 8.71875 21.667969 C 7.449219 22.9375 7.453125 25.0625 8.722656 26.332031 L 21.667969 39.277344 C 22.9375 40.546875 25.0625 40.550781 26.339844 39.28125 L 39.277344 26.332031 C 40.546875 25.0625 40.546875 22.9375 39.277344 21.667969 L 26.339844 8.71875 C 25.703125 8.082031 24.847656 7.769531 24 7.769531 Z M 24 7.769531 "/>
<path style=" stroke:none;fill-rule:nonzero;fill:rgb(54.509804%,57.647059%,100%);fill-opacity:1;" d="M 25.074219 23.558594 L 25.074219 23.625 C 27.890625 23.984375 29.410156 25.324219 29.410156 27.636719 C 29.410156 29.191406 28.871094 30.421875 27.796875 31.324219 C 26.71875 32.214844 25.160156 32.65625 23.121094 32.65625 C 21.234375 32.65625 19.722656 32.355469 18.589844 31.746094 L 18.589844 29.785156 C 20.027344 30.527344 21.519531 30.894531 23.074219 30.894531 C 25.839844 30.894531 27.21875 29.785156 27.21875 27.566406 C 27.21875 25.582031 25.734375 24.59375 22.761719 24.59375 L 21.832031 24.59375 L 21.832031 22.917969 L 22.761719 22.917969 C 24.011719 22.917969 24.652344 22.5625 25.339844 21.980469 C 26.027344 21.394531 26.371094 20.625 26.371094 19.660156 C 26.371094 18.878906 26.105469 18.261719 25.574219 17.808594 C 25.042969 17.347656 24.332031 17.121094 23.441406 17.121094 C 22.050781 17.121094 21.03125 17.582031 19.738281 18.511719 L 18.660156 17.074219 C 20.121094 15.917969 21.496094 15.34375 23.441406 15.34375 C 25.046875 15.34375 26.066406 15.722656 26.96875 16.484375 C 27.875 17.246094 28.328125 18.253906 28.328125 19.527344 C 28.328125 20.582031 28.222656 21.472656 27.582031 22.1875 C 26.941406 22.902344 26.261719 23.355469 25.074219 23.558594 Z M 25.074219 23.558594 "/>
</g>
</svg>
