<?xml version="1.0" encoding="UTF-8"?>
<svg xmlns="http://www.w3.org/2000/svg" xmlns:xlink="http://www.w3.org/1999/xlink" width="48pt" height="48pt" viewBox="0 0 48 48" version="1.1">
<g id="surface1">
<path style=" stroke:none;fill-rule:evenodd;fill:rgb(78.039216%,56.470588%,15.294118%);fill-opacity:1;" d="M 11.207031 2.847656 L 36.792969 2.847656 C 41.40625 2.847656 45.152344 6.59375 45.152344 11.207031 L 45.152344 36.792969 C 45.152344 41.40625 41.40625 45.152344 36.792969 45.152344 L 11.207031 45.152344 C 6.59375 45.152344 2.847656 41.40625 2.847656 36.792969 L 2.847656 11.207031 C 2.847656 6.59375 6.59375 2.847656 11.207031 2.847656 Z M 11.207031 2.847656 "/>
<path style=" stroke:none;fill-rule:nonzero;fill:rgb(25.490196%,72.54902%,25.490196%);fill-opacity:1;" d="M 16.683594 14.671875 L 16.8125 14.671875 C 17.347656 14.671875 17.785156 15.316406 17.785156 16.121094 L 17.785156 21.511719 C 17.785156 22.3125 17.347656 22.957031 16.8125 22.957031 L 16.683594 22.957031 C 16.144531 22.957031 15.714844 22.3125 15.714844 21.511719 L 15.714844 16.121094 C 15.714844 15.316406 16.144531 14.671875 16.683594 14.671875 Z M 16.683594 14.671875 "/>
<path style=" stroke:none;fill-rule:nonzero;fill:rgb(100%,79.215686%,11.372549%);fill-opacity:1;" d="M 22.550781 14.683594 C 21.746094 14.683594 20.890625 15.324219 20.890625 16.113281 L 20.890625 17.792969 C 18.203125 18.640625 16.4375 21.015625 15.714844 22.453125 C 14.988281 21.015625 10.53125 20.378906 10.53125 20.378906 L 10.53125 24.003906 L 9.5 24.003906 L 9.5 28.152344 L 10.53125 28.152344 L 10.53125 31.253906 C 10.503906 31.253906 14.988281 30.621094 15.714844 29.183594 C 16.4375 30.621094 20.375 33.328125 26.175781 33.328125 C 31.972656 33.328125 38.5 30.191406 38.5 25.4375 C 38.496094 22.0625 35.660156 19.175781 31.25 17.785156 L 31.25 16.113281 C 31.25 15.324219 30.605469 14.683594 29.800781 14.683594 Z M 22.550781 14.683594 "/>
<path style=" stroke:none;fill-rule:nonzero;fill:rgb(100%,100%,100%);fill-opacity:1;" d="M 28.144531 25.042969 C 28.144531 26.1875 27.214844 27.113281 26.074219 27.113281 C 24.925781 27.113281 24 26.1875 24 25.042969 C 24 23.894531 24.925781 22.96875 26.074219 22.96875 C 27.214844 22.96875 28.144531 23.894531 28.144531 25.042969 Z M 28.144531 25.042969 "/>
<path style=" stroke:none;fill-rule:nonzero;fill:rgb(100%,100%,100%);fill-opacity:1;" d="M 33.324219 25.042969 C 33.324219 26.1875 32.394531 27.113281 31.25 27.113281 C 30.109375 27.113281 29.175781 26.1875 29.175781 25.042969 C 29.175781 23.894531 30.109375 22.96875 31.25 22.96875 C 32.394531 22.96875 33.324219 23.894531 33.324219 25.042969 Z M 33.324219 25.042969 "/>
<path style=" stroke:none;fill-rule:nonzero;fill:rgb(100%,100%,100%);fill-opacity:1;" d="M 22.964844 25.042969 C 22.964844 26.1875 22.035156 27.113281 20.890625 27.113281 C 19.75 27.113281 18.824219 26.1875 18.824219 25.042969 C 18.824219 23.894531 19.75 22.96875 20.890625 22.96875 C 22.035156 22.96875 22.964844 23.894531 22.964844 25.042969 Z M 22.964844 25.042969 "/>
</g>
</svg>
