<?xml version="1.0" encoding="UTF-8"?>
<svg xmlns="http://www.w3.org/2000/svg" xmlns:xlink="http://www.w3.org/1999/xlink" width="48pt" height="48pt" viewBox="0 0 48 48" version="1.1">
<g id="surface1">
<path style=" stroke:none;fill-rule:evenodd;fill:rgb(85.098039%,59.607843%,0%);fill-opacity:1;" d="M 11.207031 2.847656 L 36.792969 2.847656 C 41.40625 2.847656 45.152344 6.59375 45.152344 11.207031 L 45.152344 36.792969 C 45.152344 41.40625 41.40625 45.152344 36.792969 45.152344 L 11.207031 45.152344 C 6.59375 45.152344 2.847656 41.40625 2.847656 36.792969 L 2.847656 11.207031 C 2.847656 6.59375 6.59375 2.847656 11.207031 2.847656 Z M 11.207031 2.847656 "/>
<path style=" stroke:none;fill-rule:nonzero;fill:rgb(99.607843%,75.294118%,2.352941%);fill-opacity:1;" d="M 24 7.535156 L 19.175781 12.359375 L 12.359375 12.359375 L 12.359375 19.175781 L 7.535156 24 L 12.359375 28.824219 L 12.359375 35.640625 L 19.175781 35.640625 L 24 40.464844 L 28.824219 35.640625 L 35.640625 35.640625 L 35.640625 28.824219 L 40.464844 24 L 35.640625 19.175781 L 35.640625 12.359375 L 28.824219 12.359375 L 24 7.542969 Z M 24 7.535156 "/>
<path style=" stroke:none;fill-rule:nonzero;fill:rgb(99.607843%,80.392157%,21.960784%);fill-opacity:1;" d="M 17.699219 8.792969 L 15.089844 15.089844 L 8.792969 17.703125 L 11.402344 24 L 8.792969 30.296875 L 15.089844 32.910156 L 17.699219 39.207031 L 24 36.597656 L 30.296875 39.207031 L 32.90625 32.910156 L 39.207031 30.296875 L 36.597656 24 L 39.207031 17.699219 L 32.90625 15.089844 L 30.296875 8.792969 L 24 11.394531 Z M 17.699219 8.792969 "/>
<path style=" stroke:none;fill-rule:nonzero;fill:rgb(30.196078%,30.196078%,30.196078%);fill-opacity:1;" d="M 36.660156 24 C 36.660156 17.003906 30.996094 11.339844 24 11.339844 C 17.003906 11.339844 11.339844 17.003906 11.339844 24 C 11.339844 30.996094 17.003906 36.660156 24 36.660156 C 30.996094 36.660156 36.660156 30.996094 36.660156 24 Z M 36.660156 24 "/>
</g>
</svg>
