<?xml version="1.0" encoding="UTF-8"?>
<svg xmlns="http://www.w3.org/2000/svg" xmlns:xlink="http://www.w3.org/1999/xlink" width="48pt" height="48pt" viewBox="0 0 48 48" version="1.1">
<g id="surface1">
<path style=" stroke:none;fill-rule:evenodd;fill:rgb(92.54902%,92.54902%,92.54902%);fill-opacity:1;" d="M 11.207031 2.847656 L 36.792969 2.847656 C 41.40625 2.847656 45.152344 6.59375 45.152344 11.207031 L 45.152344 36.792969 C 45.152344 41.40625 41.40625 45.152344 36.792969 45.152344 L 11.207031 45.152344 C 6.59375 45.152344 2.847656 41.40625 2.847656 36.792969 L 2.847656 11.207031 C 2.847656 6.59375 6.59375 2.847656 11.207031 2.847656 Z M 11.207031 2.847656 "/>
<path style=" stroke:none;fill-rule:nonzero;fill:rgb(30.980392%,30.980392%,30.980392%);fill-opacity:1;" d="M 34.003906 21.363281 C 34.277344 20.441406 34.421875 19.472656 34.421875 18.472656 C 34.421875 12.761719 29.761719 8.128906 24 8.128906 C 18.246094 8.128906 13.578125 12.761719 13.578125 18.472656 C 13.578125 19.472656 13.730469 20.441406 14 21.363281 C 12.6875 22.410156 7.59375 26.941406 9.6875 32.816406 C 9.6875 32.816406 11.464844 32.667969 12.917969 29.996094 C 13.359375 31.707031 14.183594 33.261719 15.308594 34.558594 C 13.660156 35.035156 12.546875 35.96875 12.546875 37.042969 C 12.546875 38.605469 14.921875 39.871094 17.847656 39.871094 C 19.839844 39.871094 21.574219 39.285156 22.480469 38.421875 C 22.980469 38.488281 23.484375 38.53125 24 38.53125 C 24.515625 38.53125 25.019531 38.488281 25.519531 38.421875 C 26.433594 39.285156 28.160156 39.871094 30.152344 39.871094 C 33.078125 39.871094 35.457031 38.597656 35.457031 37.042969 C 35.457031 35.972656 34.339844 35.035156 32.691406 34.558594 C 33.816406 33.261719 34.640625 31.707031 35.082031 29.996094 C 36.535156 32.667969 38.308594 32.816406 38.308594 32.816406 C 40.40625 26.941406 35.3125 22.40625 34.003906 21.363281 Z M 34.003906 21.363281 "/>
<path style=" stroke:none;fill-rule:nonzero;fill:rgb(100%,100%,100%);fill-opacity:1;" d="M 20.828125 15.535156 C 20.828125 16.703125 19.878906 17.652344 18.707031 17.652344 C 17.542969 17.652344 16.59375 16.703125 16.59375 15.535156 C 16.59375 14.371094 17.542969 13.421875 18.707031 13.421875 C 19.878906 13.421875 20.828125 14.371094 20.828125 15.535156 Z M 20.828125 15.535156 "/>
<path style=" stroke:none;fill-rule:nonzero;fill:rgb(100%,100%,100%);fill-opacity:1;" d="M 31.40625 15.535156 C 31.40625 16.703125 30.457031 17.652344 29.292969 17.652344 C 28.121094 17.652344 27.171875 16.703125 27.171875 15.535156 C 27.171875 14.371094 28.121094 13.421875 29.292969 13.421875 C 30.457031 13.421875 31.40625 14.371094 31.40625 15.535156 Z M 31.40625 15.535156 "/>
<path style=" stroke:none;fill-rule:nonzero;fill:rgb(100%,100%,100%);fill-opacity:1;" d="M 31.40625 27.171875 C 31.40625 22.5 28.089844 18.707031 24 18.707031 C 19.910156 18.707031 16.59375 22.5 16.59375 27.171875 C 16.59375 31.847656 19.910156 35.636719 24 35.636719 C 28.089844 35.636719 31.40625 31.847656 31.40625 27.171875 Z M 31.40625 27.171875 "/>
<path style=" stroke:none;fill-rule:nonzero;fill:rgb(18.823529%,18.823529%,18.823529%);fill-opacity:1;" d="M 20.828125 16.59375 C 20.828125 17.175781 20.355469 17.652344 19.769531 17.652344 C 19.183594 17.652344 18.707031 17.175781 18.707031 16.59375 C 18.707031 16.011719 19.183594 15.535156 19.769531 15.535156 C 20.355469 15.535156 20.828125 16.011719 20.828125 16.59375 Z M 20.828125 16.59375 "/>
<path style=" stroke:none;fill-rule:nonzero;fill:rgb(18.823529%,18.823529%,18.823529%);fill-opacity:1;" d="M 31.40625 16.59375 C 31.40625 17.175781 30.933594 17.652344 30.347656 17.652344 C 29.765625 17.652344 29.292969 17.175781 29.292969 16.59375 C 29.292969 16.011719 29.765625 15.535156 30.347656 15.535156 C 30.933594 15.535156 31.40625 16.011719 31.40625 16.59375 Z M 31.40625 16.59375 "/>
<path style=" stroke:none;fill-rule:nonzero;fill:rgb(80.392157%,32.156863%,32.156863%);fill-opacity:1;" d="M 21.886719 16.59375 L 26.113281 16.59375 C 25.777344 19.855469 24 22.941406 24 22.941406 C 24 22.941406 21.886719 19.277344 21.886719 16.59375 Z M 21.886719 16.59375 "/>
</g>
</svg>
