<?xml version="1.0" encoding="UTF-8"?>
<svg xmlns="http://www.w3.org/2000/svg" xmlns:xlink="http://www.w3.org/1999/xlink" width="48pt" height="48pt" viewBox="0 0 48 48" version="1.1">
<g id="surface1">
<path style=" stroke:none;fill-rule:evenodd;fill:rgb(43.137255%,66.666667%,21.176471%);fill-opacity:1;" d="M 11.207031 2.847656 L 36.792969 2.847656 C 41.40625 2.847656 45.152344 6.59375 45.152344 11.207031 L 45.152344 36.792969 C 45.152344 41.40625 41.40625 45.152344 36.792969 45.152344 L 11.207031 45.152344 C 6.59375 45.152344 2.847656 41.40625 2.847656 36.792969 L 2.847656 11.207031 C 2.847656 6.59375 6.59375 2.847656 11.207031 2.847656 Z M 11.207031 2.847656 "/>
<path style=" stroke:none;fill-rule:nonzero;fill:rgb(100%,100%,100%);fill-opacity:1;" d="M 23.464844 7.203125 C 17.019531 7.203125 13.339844 9.839844 10.9375 12.8125 C 12.777344 13.316406 14.0625 13.738281 14.480469 13.875 C 14.484375 13.59375 14.53125 11.089844 14.53125 11.089844 L 14.5625 11.011719 L 14.65625 10.980469 C 15.222656 11.0625 27.300781 12.847656 32.390625 15.8125 C 33.019531 16.183594 33.328125 16.566406 33.71875 16.96875 C 35.125 18.421875 36.996094 24.472656 37.191406 25.722656 L 37.113281 25.855469 C 37.042969 25.878906 36.859375 26.003906 36.628906 26.160156 C 35.441406 26.996094 32.667969 28.9375 29.109375 28.621094 C 25.910156 28.332031 21.734375 26.5 16.699219 23.183594 C 16.921875 23.703125 17.96875 26.191406 18.140625 26.609375 L 18.214844 26.691406 C 18.941406 27.074219 25.941406 30.640625 29.410156 30.566406 C 32.214844 30.511719 35.203125 29.140625 36.402344 28.425781 L 36.78125 28.355469 C 36.890625 28.4375 36.871094 28.597656 36.839844 28.75 C 36.765625 29.09375 36.605469 29.71875 36.488281 30.015625 L 36.394531 30.253906 C 36.253906 30.621094 36.125 30.96875 35.871094 31.175781 C 35.167969 31.816406 34.035156 32.328125 32.269531 33.097656 C 29.542969 34.292969 25.125 35.042969 21.015625 35.015625 C 19.546875 34.984375 18.125 34.824219 16.875 34.675781 C 14.265625 34.378906 12.152344 34.140625 10.886719 35.125 C 13.957031 38.605469 18.457031 40.800781 23.46875 40.800781 C 32.746094 40.800781 40.277344 33.28125 40.277344 24 C 40.277344 14.722656 32.746094 7.199219 23.46875 7.199219 L 23.464844 7.199219 Z M 27.90625 16.09375 C 26.621094 16.113281 25.40625 16.59375 24.464844 17.480469 C 23.453125 18.417969 22.871094 19.699219 22.816406 21.078125 C 22.730469 23.921875 24.96875 26.324219 27.8125 26.425781 C 29.199219 26.472656 30.511719 25.980469 31.515625 25.035156 C 32.527344 24.09375 33.105469 22.824219 33.15625 21.441406 C 33.25 18.59375 31.015625 16.199219 28.160156 16.09375 C 28.078125 16.089844 27.988281 16.09375 27.90625 16.09375 Z M 27.765625 17.613281 C 27.886719 17.609375 28 17.609375 28.121094 17.613281 C 30.109375 17.6875 31.671875 19.355469 31.605469 21.34375 C 31.574219 22.300781 31.167969 23.199219 30.464844 23.859375 C 29.753906 24.511719 28.84375 24.847656 27.875 24.824219 C 25.890625 24.746094 24.332031 23.074219 24.402344 21.089844 C 24.425781 20.125 24.84375 19.234375 25.542969 18.578125 C 26.15625 18.003906 26.9375 17.667969 27.765625 17.613281 Z M 28.714844 19.421875 C 27.828125 19.421875 27.113281 19.902344 27.113281 20.488281 C 27.113281 21.078125 27.828125 21.5625 28.714844 21.5625 C 29.597656 21.5625 30.308594 21.078125 30.308594 20.488281 C 30.308594 19.902344 29.597656 19.421875 28.714844 19.421875 Z M 28.714844 19.421875 "/>
</g>
</svg>
