<?xml version="1.0" encoding="UTF-8"?>
<svg xmlns="http://www.w3.org/2000/svg" xmlns:xlink="http://www.w3.org/1999/xlink" width="48pt" height="48pt" viewBox="0 0 48 48" version="1.1">
<g id="surface1">
<path style=" stroke:none;fill-rule:evenodd;fill:rgb(2.352941%,59.607843%,49.411765%);fill-opacity:1;" d="M 11.207031 2.847656 L 36.792969 2.847656 C 41.40625 2.847656 45.152344 6.59375 45.152344 11.207031 L 45.152344 36.792969 C 45.152344 41.40625 41.40625 45.152344 36.792969 45.152344 L 11.207031 45.152344 C 6.59375 45.152344 2.847656 41.40625 2.847656 36.792969 L 2.847656 11.207031 C 2.847656 6.59375 6.59375 2.847656 11.207031 2.847656 Z M 11.207031 2.847656 "/>
<path style=" stroke:none;fill-rule:nonzero;fill:rgb(12.54902%,69.803922%,57.647059%);fill-opacity:1;" d="M 39.449219 24 C 39.449219 15.46875 32.53125 8.550781 24 8.550781 C 15.46875 8.550781 8.550781 15.46875 8.550781 24 C 8.550781 32.53125 15.46875 39.449219 24 39.449219 C 32.53125 39.449219 39.449219 32.53125 39.449219 24 Z M 39.449219 24 "/>
<path style=" stroke:none;fill-rule:nonzero;fill:rgb(100%,100%,100%);fill-opacity:1;" d="M 23.003906 14.066406 L 23.003906 16.300781 C 19.734375 16.699219 17.082031 19.019531 16.277344 22.0625 L 18.34375 22.0625 C 19.191406 19.863281 21.4375 18.152344 23.890625 18.171875 L 24.066406 18.171875 C 24.964844 18.183594 25.839844 18.390625 26.628906 18.777344 C 28.0625 19.402344 29.121094 20.636719 29.640625 22.0625 L 31.722656 22.0625 C 30.917969 19.019531 28.265625 16.703125 24.996094 16.308594 L 24.996094 14.074219 L 23.003906 14.074219 Z M 24 19.777344 C 21.574219 19.777344 19.609375 21.683594 19.609375 24.046875 C 19.609375 24.046875 19.578125 24.449219 19.707031 24.902344 L 26.449219 24.902344 C 26.265625 25.394531 25.9375 25.839844 25.496094 26.136719 C 24.472656 26.921875 22.933594 26.636719 22.0625 25.753906 L 19.972656 25.753906 C 20.652344 27.265625 22.199219 28.316406 24 28.316406 C 26.425781 28.316406 28.390625 26.40625 28.390625 24.046875 C 28.390625 24.046875 28.390625 23.609375 28.300781 23.191406 L 21.558594 23.191406 C 21.9375 22.261719 22.84375 21.503906 23.894531 21.496094 L 24.050781 21.496094 C 24.761719 21.511719 25.441406 21.839844 25.921875 22.34375 L 28.027344 22.34375 C 27.34375 20.839844 25.796875 19.78125 24 19.78125 Z M 16.277344 25.9375 C 17.082031 28.980469 19.734375 31.300781 23.003906 31.699219 L 23.003906 33.933594 L 24.996094 33.933594 L 24.996094 31.699219 C 28.265625 31.296875 30.917969 28.980469 31.722656 25.9375 L 29.667969 25.9375 C 28.863281 28.246094 26.371094 29.917969 23.855469 29.828125 C 21.402344 29.839844 19.183594 28.136719 18.347656 25.9375 Z M 16.277344 25.9375 "/>
</g>
</svg>
