<?xml version="1.0" encoding="UTF-8"?>
<svg xmlns="http://www.w3.org/2000/svg" xmlns:xlink="http://www.w3.org/1999/xlink" width="48pt" height="48pt" viewBox="0 0 48 48" version="1.1">
<g id="surface1">
<path style=" stroke:none;fill-rule:evenodd;fill:rgb(5.098039%,41.176471%,73.72549%);fill-opacity:1;" d="M 11.207031 2.847656 L 36.792969 2.847656 C 41.40625 2.847656 45.152344 6.59375 45.152344 11.207031 L 45.152344 36.792969 C 45.152344 41.40625 41.40625 45.152344 36.792969 45.152344 L 11.207031 45.152344 C 6.59375 45.152344 2.847656 41.40625 2.847656 36.792969 L 2.847656 11.207031 C 2.847656 6.59375 6.59375 2.847656 11.207031 2.847656 Z M 11.207031 2.847656 "/>
<path style=" stroke:none;fill-rule:nonzero;fill:rgb(0.784314%,47.058824%,86.27451%);fill-opacity:1;" d="M 24.046875 7.359375 C 23.933594 7.359375 23.816406 7.402344 23.738281 7.472656 C 22.589844 8.589844 21.417969 9.839844 20.359375 11.027344 C 20.355469 11.027344 20.355469 11.03125 20.355469 11.03125 C 17.746094 14.042969 15.761719 17.136719 14.324219 20.449219 C 12.984375 23.535156 12.203125 26.203125 11.488281 30.09375 C 11.332031 30.941406 11.175781 31.972656 11.066406 32.808594 C 11.015625 33.21875 10.96875 33.582031 10.949219 33.855469 C 10.9375 33.988281 10.925781 34.097656 10.925781 34.1875 C 10.925781 34.234375 10.925781 34.269531 10.933594 34.316406 C 10.933594 34.339844 10.933594 34.363281 10.949219 34.40625 C 10.957031 34.449219 10.949219 34.535156 11.128906 34.640625 C 11.230469 34.699219 11.246094 34.683594 11.269531 34.6875 C 11.292969 34.691406 11.3125 34.699219 11.332031 34.703125 C 11.371094 34.707031 11.410156 34.714844 11.464844 34.71875 C 11.558594 34.730469 11.675781 34.734375 11.800781 34.738281 C 12.800781 34.792969 14.28125 35.027344 15.253906 35.292969 C 15.917969 35.472656 16.355469 35.621094 16.996094 35.886719 C 17.144531 35.941406 17.28125 36 17.386719 36.042969 C 17.4375 36.0625 17.480469 36.078125 17.511719 36.089844 C 17.519531 36.09375 17.535156 36.097656 17.546875 36.105469 C 17.546875 36.105469 17.550781 36.105469 17.550781 36.105469 C 17.558594 36.109375 17.5625 36.109375 17.574219 36.113281 C 17.566406 36.113281 17.566406 36.109375 17.566406 36.109375 C 17.566406 36.109375 17.566406 36.113281 17.574219 36.113281 C 17.578125 36.113281 17.582031 36.121094 17.59375 36.121094 C 17.597656 36.121094 17.605469 36.125 17.609375 36.125 C 17.609375 36.125 17.597656 36.125 17.59375 36.125 C 17.625 36.140625 17.65625 36.15625 17.703125 36.183594 C 17.8125 36.238281 17.964844 36.3125 18.125 36.402344 C 19.703125 37.21875 20.886719 38.066406 22.769531 39.738281 C 23.015625 39.957031 23.25 40.15625 23.421875 40.308594 C 23.511719 40.378906 23.582031 40.441406 23.640625 40.484375 C 23.671875 40.511719 23.699219 40.527344 23.722656 40.546875 C 23.734375 40.550781 23.746094 40.5625 23.769531 40.578125 C 23.78125 40.582031 23.792969 40.589844 23.816406 40.605469 C 23.84375 40.613281 23.863281 40.636719 23.980469 40.640625 C 24.113281 40.644531 24.140625 40.621094 24.167969 40.605469 C 24.199219 40.59375 24.207031 40.589844 24.222656 40.578125 C 24.246094 40.566406 24.261719 40.558594 24.269531 40.546875 C 24.300781 40.527344 24.328125 40.511719 24.359375 40.484375 C 24.417969 40.4375 24.5 40.371094 24.59375 40.292969 C 24.785156 40.128906 25.035156 39.917969 25.3125 39.675781 C 26.871094 38.308594 27.625 37.730469 28.707031 37.0625 C 31.082031 35.609375 33.191406 34.964844 36.4375 34.707031 L 36.699219 34.6875 C 36.910156 34.671875 37.074219 34.511719 37.074219 34.3125 L 37.074219 34.167969 C 37.074219 33.871094 36.996094 33.253906 36.894531 32.488281 C 36.792969 31.730469 36.65625 30.859375 36.535156 30.203125 C 35.828125 26.277344 35.015625 23.515625 33.660156 20.390625 C 32.441406 17.574219 30.691406 14.730469 28.605469 12.15625 C 28.597656 12.152344 28.59375 12.144531 28.589844 12.140625 C 27.183594 10.597656 25.816406 8.984375 24.332031 7.484375 C 24.261719 7.40625 24.15625 7.363281 24.046875 7.359375 Z M 24.046875 7.359375 "/>
<path style=" stroke:none;fill-rule:evenodd;fill:rgb(28.235294%,62.745098%,97.254902%);fill-opacity:1;" d="M 24.046875 7.371094 C 23.933594 7.363281 23.816406 7.40625 23.738281 7.484375 C 22.765625 8.425781 21.785156 9.464844 20.863281 10.484375 L 24.011719 28.703125 L 27.125 10.511719 C 26.214844 9.488281 25.300781 8.46875 24.332031 7.488281 C 24.261719 7.417969 24.15625 7.371094 24.046875 7.371094 Z M 24.011719 28.703125 L 33.578125 20.277344 C 32.921875 18.796875 32.109375 17.316406 31.191406 15.863281 Z M 24.011719 28.703125 L 35.847656 27 C 35.558594 25.796875 35.230469 24.671875 34.855469 23.578125 Z M 24.011719 28.703125 L 36.667969 34.703125 L 36.703125 34.699219 C 36.910156 34.683594 37.074219 34.515625 37.074219 34.324219 L 37.074219 34.199219 C 37.074219 33.902344 36.996094 33.285156 36.894531 32.527344 C 36.84375 32.144531 36.777344 31.769531 36.714844 31.375 L 36.484375 30.53125 Z M 24.011719 28.703125 L 28.644531 37.050781 L 28.894531 36.964844 C 29.777344 36.4375 30.628906 36.019531 31.519531 35.691406 Z M 24.011719 28.703125 L 22.046875 39.128906 C 22.285156 39.332031 22.503906 39.515625 22.769531 39.746094 C 23.015625 39.96875 23.25 40.167969 23.421875 40.3125 C 23.511719 40.386719 23.582031 40.449219 23.640625 40.496094 C 23.671875 40.515625 23.691406 40.535156 23.71875 40.550781 C 23.734375 40.5625 23.746094 40.574219 23.769531 40.582031 C 23.769531 40.589844 23.777344 40.589844 23.78125 40.59375 L 24.011719 40.628906 L 24.65625 40.246094 C 24.84375 40.089844 25.0625 39.902344 25.3125 39.6875 C 25.550781 39.472656 25.683594 39.378906 25.886719 39.203125 Z M 24.011719 28.703125 L 16.566406 35.730469 C 16.707031 35.78125 16.839844 35.828125 16.996094 35.890625 C 17.144531 35.953125 17.28125 36.011719 17.386719 36.050781 C 17.4375 36.066406 17.472656 36.089844 17.503906 36.097656 C 17.519531 36.105469 17.535156 36.109375 17.546875 36.113281 C 17.546875 36.113281 17.550781 36.113281 17.550781 36.113281 C 17.558594 36.113281 17.5625 36.121094 17.566406 36.125 C 17.566406 36.121094 17.566406 36.121094 17.566406 36.121094 C 17.566406 36.121094 17.566406 36.121094 17.574219 36.121094 C 17.578125 36.125 17.582031 36.125 17.59375 36.128906 C 17.597656 36.128906 17.605469 36.136719 17.609375 36.136719 C 17.609375 36.136719 17.597656 36.136719 17.59375 36.136719 C 17.625 36.152344 17.65625 36.167969 17.703125 36.191406 C 17.8125 36.246094 17.964844 36.324219 18.125 36.40625 C 18.546875 36.625 18.9375 36.847656 19.324219 37.089844 Z M 24.011719 28.703125 L 11.457031 30.355469 C 11.3125 31.15625 11.167969 32.078125 11.066406 32.839844 C 11.015625 33.25 10.96875 33.613281 10.949219 33.886719 C 10.9375 34.015625 10.925781 34.121094 10.925781 34.207031 C 10.925781 34.214844 10.925781 34.214844 10.925781 34.21875 C 10.925781 34.253906 10.925781 34.285156 10.933594 34.324219 C 10.933594 34.347656 10.933594 34.375 10.949219 34.417969 C 10.957031 34.457031 10.949219 34.542969 11.128906 34.644531 C 11.230469 34.703125 11.246094 34.691406 11.269531 34.699219 C 11.292969 34.703125 11.3125 34.707031 11.332031 34.707031 C 11.371094 34.71875 11.417969 34.71875 11.464844 34.722656 C 11.558594 34.734375 11.675781 34.746094 11.800781 34.75 C 11.984375 34.761719 12.199219 34.78125 12.40625 34.800781 Z M 24.011719 28.703125 L 13.152344 23.578125 C 12.792969 24.625 12.480469 25.703125 12.191406 26.859375 Z M 24.011719 28.703125 L 16.847656 15.792969 C 15.980469 17.15625 15.230469 18.546875 14.574219 19.980469 Z M 24.011719 28.703125 "/>
</g>
</svg>
