<?xml version="1.0" encoding="UTF-8"?>
<svg xmlns="http://www.w3.org/2000/svg" xmlns:xlink="http://www.w3.org/1999/xlink" width="48pt" height="48pt" viewBox="0 0 48 48" version="1.1">
<g id="surface1">
<path style=" stroke:none;fill-rule:evenodd;fill:rgb(28.235294%,68.235294%,100%);fill-opacity:1;" d="M 11.207031 2.847656 L 36.792969 2.847656 C 41.40625 2.847656 45.152344 6.59375 45.152344 11.207031 L 45.152344 36.792969 C 45.152344 41.40625 41.40625 45.152344 36.792969 45.152344 L 11.207031 45.152344 C 6.59375 45.152344 2.847656 41.40625 2.847656 36.792969 L 2.847656 11.207031 C 2.847656 6.59375 6.59375 2.847656 11.207031 2.847656 Z M 11.207031 2.847656 "/>
<path style=" stroke:none;fill-rule:nonzero;fill:rgb(100%,100%,100%);fill-opacity:1;" d="M 17.167969 15 L 17.332031 15 C 18.53125 15 19.5 15.96875 19.5 17.167969 L 19.5 32.332031 C 19.5 33.53125 18.53125 34.5 17.332031 34.5 L 17.167969 34.5 C 15.96875 34.5 15 33.53125 15 32.332031 L 15 17.167969 C 15 15.96875 15.96875 15 17.167969 15 Z M 17.167969 15 "/>
<path style=" stroke:none;fill-rule:nonzero;fill:rgb(100%,100%,100%);fill-opacity:1;" d="M 17.171875 13.5 C 16.667969 13.519531 16.207031 13.730469 15.953125 14.058594 L 10.703125 20.828125 C 10.433594 21.171875 10.433594 21.597656 10.699219 21.941406 C 10.96875 22.285156 11.464844 22.5 11.996094 22.5 L 22.503906 22.5 C 23.035156 22.5 23.53125 22.285156 23.800781 21.941406 C 24.066406 21.597656 24.066406 21.171875 23.796875 20.828125 L 18.546875 14.058594 C 18.265625 13.691406 17.734375 13.480469 17.171875 13.5 Z M 17.171875 13.5 "/>
<path style=" stroke:none;fill-rule:nonzero;fill:rgb(100%,100%,100%);fill-opacity:1;" d="M 30.667969 33 L 30.832031 33 C 32.03125 33 33 32.03125 33 30.832031 L 33 15.667969 C 33 14.46875 32.03125 13.5 30.832031 13.5 L 30.667969 13.5 C 29.46875 13.5 28.5 14.46875 28.5 15.667969 L 28.5 30.832031 C 28.5 32.03125 29.46875 33 30.667969 33 Z M 30.667969 33 "/>
<path style=" stroke:none;fill-rule:nonzero;fill:rgb(100%,100%,100%);fill-opacity:1;" d="M 30.671875 34.5 C 30.167969 34.480469 29.707031 34.269531 29.453125 33.941406 L 24.203125 27.171875 C 23.933594 26.828125 23.933594 26.402344 24.199219 26.058594 C 24.46875 25.714844 24.964844 25.5 25.496094 25.5 L 36.003906 25.5 C 36.535156 25.5 37.03125 25.714844 37.300781 26.058594 C 37.566406 26.402344 37.566406 26.828125 37.296875 27.171875 L 32.046875 33.941406 C 31.765625 34.308594 31.234375 34.519531 30.671875 34.5 Z M 30.671875 34.5 "/>
</g>
</svg>
