<?xml version="1.0" encoding="UTF-8"?>
<svg xmlns="http://www.w3.org/2000/svg" xmlns:xlink="http://www.w3.org/1999/xlink" width="48pt" height="48pt" viewBox="0 0 48 48" version="1.1">
<g id="surface1">
<path style=" stroke:none;fill-rule:evenodd;fill:rgb(76.078431%,20.784314%,16.470588%);fill-opacity:1;" d="M 11.207031 2.847656 L 36.792969 2.847656 C 41.40625 2.847656 45.152344 6.59375 45.152344 11.207031 L 45.152344 36.792969 C 45.152344 41.40625 41.40625 45.152344 36.792969 45.152344 L 11.207031 45.152344 C 6.59375 45.152344 2.847656 41.40625 2.847656 36.792969 L 2.847656 11.207031 C 2.847656 6.59375 6.59375 2.847656 11.207031 2.847656 Z M 11.207031 2.847656 "/>
<path style=" stroke:none;fill-rule:nonzero;fill:rgb(100%,100%,100%);fill-opacity:1;" d="M 24 10.5 C 16.542969 10.5 10.5 16.542969 10.5 24 C 10.5 31.457031 16.542969 37.5 24 37.5 C 31.457031 37.5 37.5 31.457031 37.5 24 C 37.5 16.542969 31.457031 10.5 24 10.5 Z M 24 13.5 C 29.796875 13.5 34.5 18.203125 34.5 24 C 34.5 29.796875 29.796875 34.5 24 34.5 C 18.203125 34.5 13.5 29.796875 13.5 24 C 13.5 18.203125 18.203125 13.5 24 13.5 Z M 24 18 C 23.167969 18 22.5 18.667969 22.5 19.5 L 22.5 28.5 C 22.5 29.332031 23.167969 30 24 30 C 24.832031 30 25.5 29.332031 25.5 28.5 L 25.5 19.5 C 25.5 18.667969 24.832031 18 24 18 Z M 24 18 "/>
</g>
</svg>
