<?xml version="1.0" encoding="UTF-8"?>
<svg xmlns="http://www.w3.org/2000/svg" xmlns:xlink="http://www.w3.org/1999/xlink" width="48pt" height="48pt" viewBox="0 0 48 48" version="1.1">
<g id="surface1">
<path style=" stroke:none;fill-rule:evenodd;fill:rgb(40%,40%,40%);fill-opacity:1;" d="M 11.207031 2.847656 L 36.792969 2.847656 C 41.40625 2.847656 45.152344 6.59375 45.152344 11.207031 L 45.152344 36.792969 C 45.152344 41.40625 41.40625 45.152344 36.792969 45.152344 L 11.207031 45.152344 C 6.59375 45.152344 2.847656 41.40625 2.847656 36.792969 L 2.847656 11.207031 C 2.847656 6.59375 6.59375 2.847656 11.207031 2.847656 Z M 11.207031 2.847656 "/>
<path style=" stroke:none;fill-rule:nonzero;fill:rgb(80%,80%,80%);fill-opacity:1;" d="M 24.097656 8.691406 C 22.109375 8.6875 20.089844 9.066406 18.128906 9.878906 C 10.308594 13.128906 6.625 22.042969 9.878906 29.871094 C 13.128906 37.691406 22.046875 41.375 29.871094 38.125 C 37.691406 34.871094 41.375 25.957031 38.121094 18.136719 C 35.683594 12.265625 30.058594 8.722656 24.097656 8.691406 Z M 24 15.253906 C 28.828125 15.253906 32.746094 19.171875 32.746094 24 C 32.746094 28.828125 28.828125 32.746094 24 32.746094 C 19.171875 32.746094 15.253906 28.828125 15.253906 24 C 15.253906 19.171875 19.171875 15.253906 24 15.253906 Z M 24 15.253906 "/>
<path style=" stroke:none;fill-rule:nonzero;fill:rgb(90.588235%,29.803922%,23.529412%);fill-opacity:1;" d="M 24.097656 8.691406 C 22.253906 8.6875 20.378906 9.015625 18.558594 9.714844 L 20.890625 15.828125 C 21.878906 15.449219 22.9375 15.253906 24 15.253906 C 25.0625 15.253906 26.113281 15.453125 27.109375 15.832031 L 29.441406 9.707031 C 27.746094 9.0625 25.941406 8.703125 24.097656 8.691406 Z M 9.714844 18.558594 C 9.019531 20.378906 8.6875 22.253906 8.699219 24.09375 C 8.707031 25.9375 9.066406 27.75 9.714844 29.441406 L 15.828125 27.113281 C 15.449219 26.121094 15.253906 25.0625 15.253906 24 C 15.261719 22.9375 15.453125 21.878906 15.839844 20.890625 Z M 38.285156 18.558594 L 32.171875 20.886719 C 32.550781 21.878906 32.746094 22.9375 32.746094 24 C 32.746094 25.0625 32.546875 26.113281 32.167969 27.109375 L 38.285156 29.441406 C 38.933594 27.75 39.292969 25.9375 39.300781 24.09375 C 39.3125 22.253906 38.984375 20.378906 38.285156 18.558594 Z M 20.890625 32.167969 L 18.558594 38.285156 C 20.378906 38.984375 22.253906 39.3125 24.097656 39.308594 C 25.941406 39.296875 27.746094 38.9375 29.441406 38.292969 L 27.113281 32.171875 C 26.121094 32.550781 25.0625 32.746094 24 32.746094 C 22.9375 32.746094 21.886719 32.546875 20.890625 32.167969 Z M 20.890625 32.167969 "/>
</g>
</svg>
