<?xml version="1.0" encoding="UTF-8"?>
<svg xmlns="http://www.w3.org/2000/svg" xmlns:xlink="http://www.w3.org/1999/xlink" width="48pt" height="48pt" viewBox="0 0 48 48" version="1.1">
<g id="surface1">
<path style=" stroke:none;fill-rule:evenodd;fill:rgb(91.764706%,53.333333%,16.862745%);fill-opacity:1;" d="M 11.207031 2.847656 L 36.792969 2.847656 C 41.40625 2.847656 45.152344 6.59375 45.152344 11.207031 L 45.152344 36.792969 C 45.152344 41.40625 41.40625 45.152344 36.792969 45.152344 L 11.207031 45.152344 C 6.59375 45.152344 2.847656 41.40625 2.847656 36.792969 L 2.847656 11.207031 C 2.847656 6.59375 6.59375 2.847656 11.207031 2.847656 Z M 11.207031 2.847656 "/>
<path style=" stroke:none;fill-rule:nonzero;fill:rgb(100%,100%,100%);fill-opacity:1;" d="M 24 10.5 C 19.769531 10.5 16.5 13.941406 16.5 18.214844 L 16.5 21 L 14.839844 21 C 14.097656 21 13.5 21.707031 13.5 22.457031 L 13.5 36.152344 C 13.5 36.894531 14.097656 37.5 14.839844 37.5 L 33.160156 37.5 C 33.902344 37.5 34.5 36.894531 34.5 36.152344 L 34.5 22.457031 C 34.5 21.707031 33.902344 20.953125 33.160156 21 L 31.5 21 L 31.5 18.214844 C 31.5 13.941406 28.230469 10.5 24 10.5 Z M 24 13.5 C 26.644531 13.5 28.5 15.542969 28.5 18.214844 L 28.5 21 L 19.5 21 L 19.5 18.214844 C 19.5 15.542969 21.355469 13.5 24 13.5 Z M 24 13.5 "/>
</g>
</svg>
