<?xml version="1.0" encoding="UTF-8"?>
<svg xmlns="http://www.w3.org/2000/svg" xmlns:xlink="http://www.w3.org/1999/xlink" width="48pt" height="48pt" viewBox="0 0 48 48" version="1.1">
<g id="surface1">
<path style=" stroke:none;fill-rule:evenodd;fill:rgb(24.313725%,56.862745%,22.745098%);fill-opacity:1;" d="M 11.207031 2.847656 L 36.792969 2.847656 C 41.40625 2.847656 45.152344 6.59375 45.152344 11.207031 L 45.152344 36.792969 C 45.152344 41.40625 41.40625 45.152344 36.792969 45.152344 L 11.207031 45.152344 C 6.59375 45.152344 2.847656 41.40625 2.847656 36.792969 L 2.847656 11.207031 C 2.847656 6.59375 6.59375 2.847656 11.207031 2.847656 Z M 11.207031 2.847656 "/>
<path style=" stroke:none;fill-rule:nonzero;fill:rgb(100%,100%,100%);fill-opacity:1;" d="M 28.796875 35.925781 C 31.121094 35.027344 32.980469 33.394531 34.027344 31.332031 C 34.582031 30.238281 34.890625 29.171875 35.015625 27.878906 C 35.050781 27.535156 35.050781 26.5 35.015625 26.140625 C 34.84375 24.316406 34.300781 22.546875 33.378906 20.8125 L 33.175781 20.421875 L 16.125 20.421875 L 15.921875 20.8125 C 15 22.546875 14.457031 24.316406 14.285156 26.140625 C 14.25 26.5 14.25 27.535156 14.28125 27.878906 C 14.410156 29.171875 14.71875 30.238281 15.277344 31.332031 C 16.324219 33.394531 18.199219 35.042969 20.503906 35.925781 L 20.769531 36.027344 L 28.542969 36.027344 Z M 36.050781 30.59375 C 37.207031 30.011719 38.1875 29.28125 38.855469 28.503906 C 39.238281 28.050781 39.464844 27.734375 39.6875 27.285156 C 39.957031 26.753906 40.109375 26.265625 40.207031 25.621094 C 40.25 25.328125 40.261719 24.667969 40.21875 24.441406 C 40.078125 23.660156 39.714844 22.957031 39.144531 22.371094 C 38.472656 21.671875 37.675781 21.269531 36.683594 21.121094 C 36.390625 21.074219 35.644531 21.066406 35.285156 21.109375 C 35.15625 21.125 35.03125 21.136719 35.019531 21.140625 C 35.003906 21.144531 35.046875 21.277344 35.144531 21.5 C 35.222656 21.691406 35.332031 21.972656 35.390625 22.113281 L 35.488281 22.378906 L 35.917969 22.378906 C 36.375 22.378906 36.5625 22.402344 36.875 22.484375 C 37.761719 22.71875 38.46875 23.347656 38.800781 24.199219 C 38.949219 24.558594 38.980469 24.839844 38.9375 25.28125 C 38.839844 26.253906 38.425781 27.09375 37.667969 27.875 C 37.269531 28.28125 36.777344 28.675781 36.308594 28.964844 C 36.222656 29.019531 36.152344 29.078125 36.152344 29.09375 C 36.152344 29.152344 36.003906 29.769531 35.9375 30.019531 C 35.894531 30.15625 35.828125 30.375 35.78125 30.503906 C 35.738281 30.640625 35.703125 30.75 35.707031 30.753906 C 35.714844 30.753906 35.863281 30.6875 36.050781 30.59375 Z M 13.515625 30.511719 C 13.515625 30.511719 13.5 30.464844 13.484375 30.421875 C 13.359375 30.0625 13.1875 29.347656 13.097656 28.839844 C 12.808594 27.113281 12.941406 25.25 13.5 23.347656 L 13.558594 23.136719 L 13.417969 22.996094 C 13.214844 22.78125 13.125 22.667969 12.980469 22.421875 C 12.769531 22.078125 12.660156 21.800781 12.457031 21.105469 C 12.277344 20.496094 12.191406 20.253906 12.082031 20.015625 C 11.863281 19.550781 11.5625 19.277344 11.15625 19.167969 C 11.035156 19.136719 10.902344 19.128906 9.636719 19.128906 L 8.246094 19.128906 L 8.128906 19.183594 C 7.890625 19.296875 7.753906 19.503906 7.753906 19.769531 C 7.753906 19.90625 7.761719 19.941406 7.828125 20.066406 C 7.886719 20.183594 7.921875 20.222656 8.046875 20.316406 C 8.214844 20.449219 8.28125 20.535156 8.410156 20.800781 C 8.597656 21.203125 8.71875 21.640625 9.21875 23.6875 C 9.660156 25.527344 10.125 26.765625 10.785156 27.863281 C 11.378906 28.847656 12.097656 29.613281 12.988281 30.203125 C 13.234375 30.363281 13.515625 30.53125 13.515625 30.511719 Z M 32.371094 19.082031 C 32.128906 18.769531 31.597656 18.238281 31.246094 17.957031 C 30.316406 17.214844 29.261719 16.675781 28.046875 16.328125 C 27.691406 16.222656 27.125 16.09375 26.902344 16.0625 C 26.847656 16.050781 26.808594 16.042969 26.808594 16.042969 C 26.808594 16.035156 26.847656 15.953125 26.90625 15.855469 C 27.296875 15.171875 27.355469 14.316406 27.050781 13.578125 C 26.785156 12.933594 26.230469 12.386719 25.574219 12.140625 C 24.964844 11.910156 24.265625 11.917969 23.660156 12.167969 C 23.015625 12.433594 22.46875 12.988281 22.222656 13.644531 C 21.949219 14.371094 22.015625 15.1875 22.394531 15.859375 C 22.453125 15.953125 22.496094 16.035156 22.496094 16.042969 C 22.488281 16.042969 22.375 16.066406 22.234375 16.09375 C 20.765625 16.359375 19.316406 16.984375 18.207031 17.839844 C 17.761719 18.183594 17.207031 18.71875 16.933594 19.082031 C 16.90625 19.121094 17.277344 19.121094 24.652344 19.121094 C 32.027344 19.121094 32.394531 19.121094 32.371094 19.082031 Z M 24.375 15.839844 C 24.144531 15.792969 23.917969 15.660156 23.734375 15.484375 C 23.222656 14.96875 23.222656 14.167969 23.734375 13.652344 C 24.25 13.140625 25.050781 13.140625 25.566406 13.652344 C 26.078125 14.167969 26.078125 14.96875 25.566406 15.484375 C 25.25 15.800781 24.816406 15.925781 24.375 15.839844 Z M 24.375 15.839844 "/>
</g>
</svg>
