<?xml version="1.0" encoding="UTF-8"?>
<svg xmlns="http://www.w3.org/2000/svg" xmlns:xlink="http://www.w3.org/1999/xlink" width="48pt" height="48pt" viewBox="0 0 48 48" version="1.1">
<g id="surface1">
<path style=" stroke:none;fill-rule:evenodd;fill:rgb(21.568627%,62.745098%,94.901961%);fill-opacity:1;" d="M 11.207031 2.847656 L 36.792969 2.847656 C 41.40625 2.847656 45.152344 6.59375 45.152344 11.207031 L 45.152344 36.792969 C 45.152344 41.40625 41.40625 45.152344 36.792969 45.152344 L 11.207031 45.152344 C 6.59375 45.152344 2.847656 41.40625 2.847656 36.792969 L 2.847656 11.207031 C 2.847656 6.59375 6.59375 2.847656 11.207031 2.847656 Z M 11.207031 2.847656 "/>
<path style=" stroke:none;fill-rule:nonzero;fill:rgb(100%,100%,100%);fill-opacity:1;" d="M 25.796875 33.578125 C 25.25 33.25 24.90625 32.675781 23.394531 29.628906 C 22.5625 27.941406 21.765625 26.441406 21.628906 26.296875 C 21.480469 26.136719 20.21875 25.464844 18.339844 24.546875 C 14.625 22.734375 14.25 22.449219 14.25 21.421875 C 14.25 20.941406 14.484375 20.484375 14.847656 20.246094 C 14.972656 20.160156 18.859375 18.769531 23.480469 17.15625 C 31.59375 14.316406 31.894531 14.21875 32.453125 14.253906 C 32.933594 14.28125 33.074219 14.332031 33.300781 14.550781 C 33.644531 14.878906 33.800781 15.339844 33.734375 15.828125 C 33.660156 16.355469 27.832031 32.8125 27.621094 33.105469 C 27.15625 33.722656 26.371094 33.933594 25.796875 33.578125 Z M 25.796875 33.578125 "/>
</g>
</svg>
