<?xml version="1.0" encoding="UTF-8"?>
<svg xmlns="http://www.w3.org/2000/svg" xmlns:xlink="http://www.w3.org/1999/xlink" width="48pt" height="48pt" viewBox="0 0 48 48" version="1.1">
<g id="surface1">
<path style=" stroke:none;fill-rule:evenodd;fill:rgb(55.686275%,55.686275%,55.686275%);fill-opacity:1;" d="M 11.207031 2.847656 L 36.792969 2.847656 C 41.40625 2.847656 45.152344 6.59375 45.152344 11.207031 L 45.152344 36.792969 C 45.152344 41.40625 41.40625 45.152344 36.792969 45.152344 L 11.207031 45.152344 C 6.59375 45.152344 2.847656 41.40625 2.847656 36.792969 L 2.847656 11.207031 C 2.847656 6.59375 6.59375 2.847656 11.207031 2.847656 Z M 11.207031 2.847656 "/>
<path style=" stroke:none;fill-rule:nonzero;fill:rgb(80%,80%,80%);fill-opacity:1;" d="M 27.285156 31.980469 C 27.28125 31.96875 27.269531 31.878906 27.269531 31.78125 C 27.269531 31.5 27.230469 31.332031 27.03125 30.878906 C 26.96875 30.730469 26.863281 30.46875 26.796875 30.296875 C 26.636719 29.871094 26.324219 29.15625 26.246094 29.042969 C 26.207031 28.988281 26.15625 28.890625 26.125 28.816406 C 26.09375 28.746094 26.050781 28.652344 26.027344 28.605469 C 25.878906 28.3125 25.464844 27.234375 25.253906 26.625 C 25.191406 26.4375 25.082031 26.144531 25.011719 25.972656 C 24.9375 25.800781 24.824219 25.496094 24.761719 25.296875 C 24.691406 25.097656 24.5625 24.746094 24.464844 24.511719 C 24.25 23.988281 23.9375 23.046875 23.886719 22.753906 C 23.863281 22.640625 23.832031 22.5 23.824219 22.441406 C 23.8125 22.390625 23.800781 22.265625 23.800781 22.171875 C 23.800781 22 23.855469 21.609375 23.878906 21.558594 C 23.910156 21.511719 23.957031 21.542969 24.050781 21.671875 C 24.308594 22.03125 24.484375 22.097656 25.355469 22.152344 C 25.84375 22.183594 26.109375 22.222656 26.25 22.292969 C 26.488281 22.410156 26.683594 22.691406 26.921875 23.296875 C 27.328125 24.292969 27.457031 24.636719 27.683594 25.296875 C 27.777344 25.574219 27.84375 25.722656 27.863281 25.730469 C 27.953125 25.746094 28.433594 25.003906 28.652344 24.5 C 28.933594 23.863281 29.417969 22.597656 29.515625 22.222656 C 29.597656 21.933594 29.863281 21.527344 30.308594 21.03125 C 30.4375 20.886719 30.59375 20.730469 30.644531 20.6875 C 30.871094 20.515625 31.4375 20.4375 31.824219 20.527344 C 31.910156 20.546875 32.167969 20.566406 32.394531 20.578125 C 32.691406 20.589844 32.816406 20.605469 32.839844 20.625 C 32.871094 20.660156 32.8125 20.863281 32.707031 21.097656 C 32.667969 21.1875 32.605469 21.34375 32.578125 21.441406 C 32.546875 21.535156 32.515625 21.628906 32.503906 21.640625 C 32.496094 21.65625 32.453125 21.765625 32.410156 21.890625 C 32.371094 22.015625 32.328125 22.125 32.316406 22.140625 C 32.253906 22.21875 31.824219 23.519531 31.683594 24.058594 C 31.628906 24.253906 31.5625 24.527344 31.527344 24.65625 C 31.496094 24.785156 31.425781 25.042969 31.375 25.222656 C 31.324219 25.40625 31.269531 25.59375 31.265625 25.640625 C 31.253906 25.6875 31.21875 25.777344 31.183594 25.839844 C 31 26.1875 30.65625 26.96875 30.269531 27.9375 C 29.855469 28.980469 29.769531 29.160156 29.59375 29.480469 C 29.421875 29.78125 28.875 30.636719 28.800781 30.714844 C 28.78125 30.734375 28.734375 30.796875 28.691406 30.855469 C 28.574219 31.046875 28.292969 31.386719 28.125 31.546875 C 27.933594 31.734375 27.816406 31.8125 27.566406 31.917969 C 27.390625 31.996094 27.316406 32.011719 27.285156 31.980469 Z M 23.839844 30.917969 C 23.816406 30.902344 23.78125 30.832031 23.75 30.761719 C 23.722656 30.6875 23.660156 30.5625 23.609375 30.484375 C 23.5625 30.402344 23.519531 30.328125 23.519531 30.316406 C 23.519531 30.308594 23.484375 30.246094 23.441406 30.175781 C 23.40625 30.113281 23.324219 29.949219 23.265625 29.8125 C 22.984375 29.144531 22.785156 28.6875 22.671875 28.464844 L 22.546875 28.214844 L 21.957031 28.203125 C 21.636719 28.199219 21.308594 28.203125 21.222656 28.214844 C 21.003906 28.234375 20.980469 28.265625 20.863281 28.671875 C 20.8125 28.863281 20.753906 29.074219 20.738281 29.136719 C 20.667969 29.378906 20.441406 29.988281 20.378906 30.09375 C 20.300781 30.230469 20.105469 30.433594 19.964844 30.515625 C 19.8125 30.605469 19.574219 30.667969 19.394531 30.667969 C 19.316406 30.667969 19.09375 30.636719 18.902344 30.59375 C 18.6875 30.550781 18.472656 30.527344 18.359375 30.527344 C 18.175781 30.527344 18.171875 30.527344 18.03125 30.417969 C 17.878906 30.300781 17.863281 30.265625 17.925781 30.214844 C 18.011719 30.144531 18.140625 29.746094 18.214844 29.316406 C 18.238281 29.175781 18.28125 28.964844 18.308594 28.84375 C 18.363281 28.582031 18.371094 28.453125 18.324219 28.417969 C 18.308594 28.402344 18.21875 28.378906 18.125 28.371094 C 18.03125 28.355469 17.941406 28.332031 17.925781 28.324219 C 17.910156 28.308594 17.933594 28.265625 17.984375 28.199219 C 18.042969 28.121094 18.0625 28.074219 18.0625 28.003906 C 18.0625 27.921875 18.046875 27.894531 17.953125 27.8125 L 17.839844 27.714844 L 17.9375 27.558594 C 17.988281 27.472656 18.046875 27.375 18.074219 27.339844 C 18.214844 27.097656 18.433594 26.800781 18.5 26.753906 C 18.566406 26.707031 18.59375 26.703125 18.699219 26.71875 C 18.761719 26.730469 18.84375 26.738281 18.878906 26.738281 C 18.957031 26.738281 18.933594 26.796875 19.167969 26.113281 C 19.222656 25.9375 19.3125 25.675781 19.363281 25.53125 C 19.417969 25.390625 19.496094 25.144531 19.542969 25 C 19.589844 24.847656 19.6875 24.527344 19.765625 24.285156 C 19.84375 24.046875 19.925781 23.765625 19.953125 23.671875 C 19.980469 23.574219 20.046875 23.386719 20.097656 23.253906 C 20.15625 23.125 20.269531 22.859375 20.355469 22.660156 C 20.503906 22.296875 20.894531 21.503906 21.058594 21.230469 C 21.15625 21.058594 21.371094 20.800781 21.417969 20.800781 C 21.433594 20.800781 21.457031 20.824219 21.472656 20.847656 C 21.515625 20.917969 21.597656 20.902344 21.902344 20.765625 C 22.183594 20.640625 22.511719 20.550781 22.511719 20.605469 C 22.511719 20.613281 22.457031 20.683594 22.394531 20.753906 C 22.222656 20.949219 22.066406 21.191406 22.027344 21.332031 C 22.003906 21.394531 21.984375 21.558594 21.980469 21.6875 L 21.964844 21.925781 L 22.089844 22.28125 C 22.222656 22.671875 22.378906 23.027344 22.722656 23.691406 C 22.996094 24.214844 23.464844 25.171875 23.546875 25.355469 C 23.652344 25.605469 23.9375 26.171875 24.050781 26.363281 C 24.113281 26.46875 24.191406 26.605469 24.222656 26.667969 C 24.292969 26.800781 24.535156 27.042969 24.675781 27.113281 C 24.855469 27.203125 24.902344 27.253906 24.9375 27.378906 C 25 27.582031 24.988281 27.636719 24.84375 27.800781 C 24.777344 27.886719 24.714844 27.972656 24.714844 28 C 24.714844 28.027344 24.785156 28.183594 24.871094 28.355469 C 25.285156 29.1875 25.65625 29.925781 25.65625 29.9375 C 25.65625 29.941406 25.550781 29.953125 25.425781 29.964844 C 25.058594 29.988281 24.933594 30.0625 24.371094 30.625 C 24.109375 30.886719 24.066406 30.910156 23.972656 30.925781 C 23.910156 30.9375 23.859375 30.933594 23.839844 30.917969 Z M 21.9375 26.75 C 21.953125 26.71875 21.859375 26.484375 21.730469 26.230469 C 21.613281 26.015625 21.597656 25.996094 21.546875 25.996094 C 21.488281 25.996094 21.488281 26 21.394531 26.332031 C 21.316406 26.613281 21.296875 26.730469 21.328125 26.761719 C 21.355469 26.785156 21.921875 26.78125 21.9375 26.75 Z M 33.1875 30.746094 C 33.082031 30.722656 32.753906 30.558594 32.640625 30.46875 C 32.480469 30.34375 32.394531 30.308594 32.246094 30.292969 C 32.066406 30.277344 32.011719 30.292969 31.886719 30.40625 C 31.765625 30.511719 31.761719 30.511719 31.675781 30.480469 C 31.59375 30.449219 31.582031 30.390625 31.613281 30.121094 C 31.667969 29.628906 31.808594 29.222656 32.019531 28.953125 C 32.078125 28.875 32.144531 28.761719 32.171875 28.691406 C 32.300781 28.347656 32.488281 27.402344 32.597656 26.515625 C 32.640625 26.207031 32.699219 25.800781 32.730469 25.613281 C 32.875 24.730469 32.925781 23.941406 32.84375 23.675781 C 32.8125 23.558594 32.703125 23.425781 32.535156 23.296875 C 32.417969 23.203125 32.417969 23.160156 32.546875 23.019531 C 32.707031 22.839844 32.855469 22.566406 33.152344 21.878906 C 33.167969 21.839844 33.214844 21.703125 33.253906 21.574219 C 33.363281 21.230469 33.472656 20.941406 33.511719 20.933594 C 33.519531 20.925781 33.628906 20.96875 33.75 21.027344 C 34.125 21.207031 34.230469 21.230469 35.019531 21.230469 C 35.71875 21.230469 36.457031 21.171875 36.761719 21.105469 C 36.957031 21.058594 37.816406 21.0625 38.066406 21.113281 C 38.316406 21.171875 38.90625 21.355469 39.074219 21.433594 C 39.214844 21.5 39.582031 21.84375 39.746094 22.058594 C 39.875 22.222656 40 22.4375 39.984375 22.453125 C 39.980469 22.457031 39.902344 22.421875 39.8125 22.363281 C 39.660156 22.277344 39.640625 22.265625 39.527344 22.28125 C 39.371094 22.296875 39.34375 22.316406 39.109375 22.660156 C 38.859375 23.019531 38.546875 23.441406 38.453125 23.542969 C 38.378906 23.625 38.363281 23.628906 38.269531 23.613281 C 38.21875 23.605469 38.0625 23.5625 37.925781 23.519531 C 37.597656 23.425781 37.40625 23.417969 37 23.480469 C 36.449219 23.566406 36.144531 23.597656 35.871094 23.597656 C 35.519531 23.597656 35.535156 23.578125 35.433594 24.15625 C 35.386719 24.40625 35.332031 24.707031 35.316406 24.828125 C 35.296875 25.027344 35.296875 25.050781 35.328125 25.089844 C 35.371094 25.128906 35.410156 25.128906 36.542969 25.1875 C 36.9375 25.203125 37.066406 25.21875 37.261719 25.269531 C 37.386719 25.308594 37.503906 25.34375 37.515625 25.355469 C 37.542969 25.375 37.578125 25.546875 37.609375 25.808594 C 37.640625 26.050781 37.902344 26.417969 38.078125 26.464844 C 38.183594 26.496094 38.171875 26.558594 38.058594 26.605469 C 37.621094 26.761719 37.636719 26.761719 37.105469 26.777344 C 36.671875 26.792969 36 26.859375 35.378906 26.941406 C 35.292969 26.953125 35.199219 26.964844 35.175781 26.96875 C 35.152344 26.96875 35.105469 26.996094 35.0625 27.03125 C 35.003906 27.082031 34.980469 27.140625 34.933594 27.316406 C 34.859375 27.621094 34.816406 27.988281 34.863281 28.03125 C 34.886719 28.050781 35.03125 28.066406 35.394531 28.082031 C 36.425781 28.125 37.015625 28.15625 37.527344 28.1875 C 37.816406 28.207031 38.296875 28.222656 38.589844 28.222656 C 39.09375 28.222656 39.121094 28.230469 39.160156 28.269531 C 39.203125 28.324219 39.203125 28.324219 39.125 28.386719 C 38.957031 28.503906 38.703125 28.785156 38.644531 28.910156 C 38.566406 29.0625 38.503906 29.261719 38.453125 29.53125 C 38.371094 29.964844 38.285156 30.191406 38.15625 30.300781 C 37.96875 30.457031 37.550781 30.59375 37.246094 30.59375 C 37.136719 30.59375 36.910156 30.605469 36.738281 30.621094 C 36.121094 30.667969 35.519531 30.691406 34.558594 30.714844 C 34.015625 30.730469 33.5 30.746094 33.410156 30.75 C 33.316406 30.753906 33.21875 30.753906 33.1875 30.746094 Z M 12.199219 30.59375 C 11.671875 30.515625 11.546875 30.484375 11.113281 30.34375 C 10.625 30.175781 10.144531 29.964844 10.097656 29.878906 C 10.078125 29.84375 10.050781 29.8125 10.035156 29.8125 C 10.019531 29.8125 9.984375 29.78125 9.957031 29.746094 C 9.925781 29.714844 9.847656 29.640625 9.769531 29.59375 C 9.699219 29.542969 9.511719 29.371094 9.347656 29.214844 C 8.878906 28.746094 8.707031 28.5 8.511719 28.035156 C 8.355469 27.671875 8.308594 27.5 8.253906 27.074219 C 8.234375 26.890625 8.203125 26.625 8.183594 26.488281 C 8.128906 26.125 8.109375 25.863281 8.066406 25.125 C 8.003906 24 8 23.527344 8.042969 23.238281 C 8.0625 23.105469 8.109375 22.800781 8.140625 22.578125 C 8.171875 22.347656 8.214844 22.0625 8.234375 21.9375 C 8.253906 21.8125 8.292969 21.574219 8.316406 21.402344 C 8.394531 20.859375 8.488281 20.46875 8.605469 20.203125 C 8.660156 20.066406 8.75 19.847656 8.808594 19.71875 C 8.925781 19.425781 9.25 18.644531 9.578125 18.171875 C 9.777344 17.890625 10.019531 17.636719 10.28125 17.410156 C 10.644531 17.097656 11.183594 16.746094 11.464844 16.605469 C 11.734375 16.46875 12.25 16.261719 12.667969 16.160156 C 13.109375 16.058594 13.652344 15.996094 14.015625 16.003906 C 14.785156 16.03125 14.871094 16.027344 15.285156 16.113281 C 15.578125 16.171875 15.875 16.253906 16.136719 16.402344 C 16.558594 16.636719 16.9375 16.953125 17.253906 17.3125 C 17.46875 17.5625 17.964844 18.296875 18.105469 18.582031 C 18.160156 18.699219 18.234375 18.871094 18.261719 18.957031 C 18.292969 19.050781 18.339844 19.1875 18.371094 19.261719 C 18.402344 19.339844 18.457031 19.5625 18.5 19.761719 C 18.566406 20.09375 18.574219 20.144531 18.558594 20.441406 C 18.542969 20.828125 18.5 21.058594 18.394531 21.308594 C 18.332031 21.46875 18.292969 21.519531 18.113281 21.703125 C 17.894531 21.921875 17.660156 22.09375 17.339844 22.277344 C 17.0625 22.425781 16.230469 22.839844 16.191406 22.839844 C 16.171875 22.839844 16.144531 22.847656 16.140625 22.859375 C 16.121094 22.890625 15.871094 22.96875 15.722656 22.988281 C 15.628906 23.003906 15.609375 23 15.542969 22.933594 C 15.480469 22.871094 15.46875 22.855469 15.484375 22.785156 C 15.503906 22.675781 15.527344 22.660156 15.667969 22.667969 C 15.785156 22.671875 15.792969 22.671875 15.875 22.574219 C 16.035156 22.371094 16.042969 22.355469 16.035156 22.121094 C 16.03125 21.796875 15.96875 21.339844 15.917969 21.203125 C 15.847656 21.03125 15.644531 20.625 15.535156 20.441406 C 15.40625 20.234375 15.324219 20.144531 14.988281 19.878906 C 14.832031 19.753906 14.699219 19.640625 14.683594 19.625 C 14.671875 19.609375 14.582031 19.550781 14.484375 19.5 C 14.175781 19.328125 13.875 19.3125 13.59375 19.457031 C 13.34375 19.589844 12.777344 20.21875 12.511719 20.667969 C 12.144531 21.28125 11.933594 21.941406 11.859375 22.667969 C 11.84375 22.800781 11.832031 23.25 11.832031 23.65625 C 11.832031 24.609375 11.859375 24.75 12.105469 25.1875 C 12.160156 25.292969 12.207031 25.386719 12.207031 25.394531 C 12.207031 25.40625 12.230469 25.441406 12.253906 25.472656 C 12.28125 25.503906 12.375 25.636719 12.457031 25.765625 C 12.546875 25.90625 12.683594 26.074219 12.796875 26.1875 C 12.90625 26.285156 12.996094 26.371094 13 26.371094 C 13.003906 26.371094 13.082031 26.4375 13.171875 26.511719 C 13.355469 26.671875 13.574219 26.785156 13.910156 26.890625 C 14.308594 27.015625 14.496094 27.035156 15.207031 27.042969 C 15.769531 27.046875 15.886719 27.042969 16.046875 27.003906 C 16.144531 26.980469 16.292969 26.949219 16.359375 26.9375 C 16.5 26.917969 16.597656 26.894531 16.691406 26.878906 C 16.722656 26.871094 16.777344 26.863281 16.808594 26.863281 C 16.839844 26.863281 16.886719 26.855469 16.90625 26.84375 C 16.925781 26.832031 17.019531 26.816406 17.113281 26.8125 C 17.214844 26.808594 17.347656 26.792969 17.421875 26.785156 C 17.546875 26.769531 17.652344 26.796875 17.652344 26.84375 C 17.652344 26.855469 17.613281 26.921875 17.566406 27 C 17.390625 27.296875 17.035156 27.988281 16.980469 28.152344 C 16.921875 28.3125 16.925781 28.59375 16.988281 28.707031 C 17.0625 28.824219 17.058594 28.859375 16.957031 28.972656 C 16.917969 29.027344 16.878906 29.082031 16.878906 29.09375 C 16.878906 29.109375 16.863281 29.128906 16.847656 29.140625 C 16.828125 29.152344 16.800781 29.183594 16.785156 29.214844 C 16.699219 29.386719 16.042969 30.128906 15.90625 30.214844 C 15.691406 30.34375 14.96875 30.503906 14.144531 30.605469 C 13.941406 30.628906 13.589844 30.644531 13.230469 30.652344 C 12.691406 30.65625 12.609375 30.652344 12.199219 30.59375 Z M 28.207031 21.144531 C 28.199219 21.136719 27.394531 21.046875 26.816406 20.988281 C 26.207031 20.925781 25.832031 20.839844 25.75 20.738281 C 25.703125 20.6875 25.75 20.449219 26.003906 19.496094 C 26.042969 19.34375 26.097656 19.074219 26.125 18.890625 C 26.152344 18.707031 26.191406 18.464844 26.21875 18.34375 C 26.253906 18.191406 26.265625 18.089844 26.261719 17.957031 C 26.25 17.816406 26.253906 17.785156 26.28125 17.785156 C 26.300781 17.785156 26.4375 17.808594 26.589844 17.832031 C 26.738281 17.859375 27.03125 17.894531 27.238281 17.917969 C 27.441406 17.9375 27.683594 17.964844 27.765625 17.980469 C 27.847656 17.988281 28.160156 18.011719 28.453125 18.027344 C 28.75 18.035156 29 18.058594 29.015625 18.0625 C 29.027344 18.066406 29.09375 18.191406 29.160156 18.339844 C 29.28125 18.578125 29.292969 18.605469 29.253906 18.640625 C 29.160156 18.734375 28.28125 18.707031 27.589844 18.582031 C 27.15625 18.503906 27.175781 18.5 27.136719 18.722656 C 27.074219 19.042969 27.105469 19.078125 27.417969 19.113281 C 27.777344 19.15625 27.980469 19.191406 27.980469 19.21875 C 27.980469 19.234375 27.980469 19.308594 27.980469 19.378906 C 27.972656 19.5 27.984375 19.519531 28.046875 19.597656 C 28.089844 19.644531 28.113281 19.691406 28.105469 19.707031 C 28.09375 19.730469 27.96875 19.730469 27.652344 19.71875 C 27.136719 19.691406 27.035156 19.699219 26.996094 19.738281 C 26.953125 19.785156 26.917969 20.140625 26.953125 20.175781 C 27.011719 20.234375 27.636719 20.347656 28.050781 20.375 C 28.277344 20.386719 28.578125 20.417969 28.730469 20.433594 C 28.875 20.453125 29.042969 20.46875 29.09375 20.46875 C 29.214844 20.46875 29.238281 20.5 29.175781 20.574219 C 29.152344 20.597656 29.125 20.636719 29.125 20.652344 C 29.125 20.660156 29.097656 20.714844 29.066406 20.761719 C 28.980469 20.890625 28.972656 20.953125 29.03125 21.042969 C 29.058594 21.089844 29.074219 21.128906 29.0625 21.140625 C 29.046875 21.15625 28.222656 21.160156 28.207031 21.144531 Z M 24.796875 20.527344 C 24.65625 20.425781 24.578125 20.421875 24.347656 20.496094 C 24.121094 20.566406 24.113281 20.5625 24.121094 20.09375 C 24.121094 19.871094 24.136719 19.597656 24.160156 19.417969 L 24.203125 19.113281 L 24.128906 19.027344 C 24.015625 18.894531 23.886719 18.8125 23.707031 18.761719 C 23.519531 18.703125 23.484375 18.703125 23.453125 18.746094 C 23.4375 18.761719 23.410156 18.90625 23.390625 19.066406 C 23.3125 19.71875 23.296875 19.738281 22.957031 19.847656 C 22.832031 19.890625 22.703125 19.941406 22.660156 19.957031 C 22.375 20.082031 22.203125 20.136719 22.203125 20.097656 C 22.203125 20.089844 22.253906 19.984375 22.324219 19.863281 C 22.457031 19.609375 22.46875 19.558594 22.519531 19.042969 C 22.5625 18.621094 22.550781 18.496094 22.46875 18.421875 C 22.390625 18.347656 22.1875 18.261719 22.097656 18.261719 C 22.046875 18.261719 22.015625 18.25 22.015625 18.230469 C 22.015625 18.191406 22.375 17.953125 22.574219 17.847656 C 22.714844 17.777344 22.699219 17.828125 22.828125 17.136719 C 22.925781 16.589844 22.921875 16.597656 22.953125 16.597656 C 22.964844 16.597656 23.058594 16.683594 23.160156 16.777344 C 23.265625 16.875 23.421875 16.996094 23.515625 17.050781 C 23.605469 17.105469 23.691406 17.160156 23.703125 17.183594 C 23.722656 17.203125 23.71875 17.269531 23.691406 17.410156 C 23.671875 17.519531 23.652344 17.660156 23.644531 17.71875 L 23.628906 17.832031 L 23.8125 17.949219 C 23.910156 18.011719 24.0625 18.105469 24.144531 18.160156 C 24.230469 18.214844 24.3125 18.261719 24.328125 18.261719 C 24.402344 18.261719 24.480469 17.988281 24.480469 17.75 C 24.480469 17.535156 24.496094 17.53125 24.796875 17.65625 C 25.003906 17.746094 25.082031 17.761719 25.203125 17.761719 C 25.28125 17.765625 25.347656 17.769531 25.355469 17.78125 C 25.363281 17.792969 25.347656 17.964844 25.324219 18.167969 C 25.300781 18.371094 25.269531 18.738281 25.253906 18.996094 C 25.222656 19.589844 25.214844 19.65625 25.144531 19.859375 C 25.050781 20.125 25.015625 20.28125 25.003906 20.425781 C 24.988281 20.640625 24.972656 20.652344 24.796875 20.527344 Z M 20.433594 20.285156 C 20.40625 20.277344 20.363281 20.253906 20.339844 20.238281 C 20.3125 20.21875 20.246094 20.203125 20.183594 20.203125 C 20.078125 20.203125 20.066406 20.203125 20.082031 20.152344 C 20.125 19.957031 20.207031 19.480469 20.21875 19.347656 C 20.230469 19.265625 20.25 18.933594 20.269531 18.605469 C 20.285156 18.277344 20.3125 17.90625 20.316406 17.777344 C 20.339844 17.5 20.308594 17.355469 20.230469 17.308594 C 20.1875 17.28125 20.015625 17.277344 19.511719 17.28125 C 18.808594 17.292969 18.777344 17.285156 18.832031 17.183594 C 18.84375 17.15625 18.847656 17.074219 18.84375 16.984375 C 18.832031 16.859375 18.816406 16.8125 18.746094 16.703125 C 18.699219 16.636719 18.613281 16.535156 18.566406 16.496094 C 18.515625 16.449219 18.472656 16.402344 18.472656 16.386719 C 18.472656 16.339844 19.253906 16.359375 19.636719 16.410156 C 19.988281 16.457031 20.082031 16.457031 20.597656 16.417969 C 20.828125 16.394531 21.0625 16.332031 21.09375 16.292969 C 21.097656 16.277344 21.125 16.265625 21.144531 16.265625 C 21.183594 16.265625 21.191406 16.292969 21.207031 16.394531 C 21.21875 16.464844 21.234375 16.542969 21.25 16.5625 C 21.292969 16.613281 21.5625 16.644531 22.058594 16.644531 C 22.535156 16.644531 22.542969 16.652344 22.484375 16.796875 C 22.46875 16.839844 22.402344 16.941406 22.332031 17.027344 C 22.152344 17.253906 22.066406 17.292969 21.644531 17.316406 C 21.457031 17.328125 21.296875 17.347656 21.285156 17.355469 C 21.269531 17.371094 21.207031 18.121094 21.183594 18.605469 C 21.171875 18.769531 21.183594 19.03125 21.207031 19.328125 C 21.238281 19.6875 21.246094 19.824219 21.222656 19.925781 C 21.191406 20.089844 21.125 20.199219 21.019531 20.238281 C 20.941406 20.277344 20.511719 20.308594 20.433594 20.28125 Z M 20.433594 20.285156 "/>
</g>
</svg>
