<?xml version="1.0" encoding="UTF-8"?>
<svg xmlns="http://www.w3.org/2000/svg" xmlns:xlink="http://www.w3.org/1999/xlink" width="48pt" height="48pt" viewBox="0 0 48 48" version="1.1">
<g id="surface1">
<path style=" stroke:none;fill-rule:evenodd;fill:rgb(71.764706%,71.764706%,71.764706%);fill-opacity:1;" d="M 11.207031 2.847656 L 36.792969 2.847656 C 41.40625 2.847656 45.152344 6.59375 45.152344 11.207031 L 45.152344 36.792969 C 45.152344 41.40625 41.40625 45.152344 36.792969 45.152344 L 11.207031 45.152344 C 6.59375 45.152344 2.847656 41.40625 2.847656 36.792969 L 2.847656 11.207031 C 2.847656 6.59375 6.59375 2.847656 11.207031 2.847656 Z M 11.207031 2.847656 "/>
<path style=" stroke:none;fill-rule:nonzero;fill:rgb(30.196078%,30.196078%,30.196078%);fill-opacity:1;" d="M 24 10.5 C 21.503906 10.5 19.5 12.503906 19.5 15 L 19.5 24.011719 C 17.613281 25.425781 16.503906 27.644531 16.5 30 C 16.5 34.140625 19.859375 37.5 24 37.5 C 28.140625 37.5 31.5 34.140625 31.5 30 C 31.496094 27.644531 30.386719 25.425781 28.5 24.011719 L 28.5 15 C 28.5 12.503906 26.496094 10.5 24 10.5 Z M 24 13.5 C 24.886719 13.5 25.5 14.113281 25.5 15 L 25.5 25.511719 L 26.703125 26.410156 C 27.832031 27.261719 28.496094 28.589844 28.5 30.003906 C 28.5 32.519531 26.519531 34.5 24 34.5 C 21.480469 34.5 19.5 32.519531 19.5 30.003906 L 19.5 30 C 19.503906 28.582031 20.167969 27.261719 21.296875 26.410156 L 22.5 25.511719 L 22.5 15 C 22.5 14.113281 23.113281 13.5 24 13.5 Z M 24 13.5 "/>
<path style=" stroke:none;fill-rule:nonzero;fill:rgb(96.862745%,37.254902%,37.254902%);fill-opacity:1;" d="M 22.5 19.5 L 22.5 25.511719 L 21.296875 26.410156 C 20.167969 27.261719 19.503906 28.582031 19.5 30 L 19.5 30.003906 C 19.5 32.519531 21.480469 34.5 24 34.5 C 26.519531 34.5 28.5 32.519531 28.5 30.003906 C 28.496094 28.589844 27.832031 27.261719 26.703125 26.410156 L 25.5 25.511719 L 25.5 19.5 Z M 22.5 19.5 "/>
</g>
</svg>
