<?xml version="1.0" encoding="UTF-8"?>
<svg xmlns="http://www.w3.org/2000/svg" xmlns:xlink="http://www.w3.org/1999/xlink" width="48pt" height="48pt" viewBox="0 0 48 48" version="1.1">
<g id="surface1">
<path style=" stroke:none;fill-rule:evenodd;fill:rgb(20%,30.196078%,36.078431%);fill-opacity:1;" d="M 45.152344 23.15625 L 2.847656 23.15625 L 2.847656 36.699219 C 2.847656 41.328125 6.578125 45.058594 11.207031 45.058594 L 36.792969 45.058594 C 41.421875 45.058594 45.152344 41.328125 45.152344 36.699219 Z M 45.152344 23.15625 "/>
<path style=" stroke:none;fill-rule:evenodd;fill:rgb(81.568627%,49.411765%,20.392157%);fill-opacity:1;" d="M 45.152344 15.28125 L 2.847656 15.28125 L 2.847656 23.15625 L 45.152344 23.15625 Z M 45.152344 15.28125 "/>
<path style=" stroke:none;fill-rule:evenodd;fill:rgb(50.196078%,50.196078%,50.196078%);fill-opacity:1;" d="M 11.207031 2.753906 C 6.578125 2.753906 2.847656 6.484375 2.847656 11.113281 L 2.847656 15.28125 L 45.152344 15.28125 L 45.152344 11.113281 C 45.152344 6.484375 41.421875 2.753906 36.792969 2.753906 Z M 11.207031 2.753906 "/>
<path style=" stroke:none;fill-rule:evenodd;fill:rgb(91.764706%,67.843137%,26.27451%);fill-opacity:1;" d="M 45.152344 21.988281 L 2.847656 21.988281 L 2.847656 36.886719 C 2.847656 41.515625 6.578125 45.246094 11.207031 45.246094 L 36.785156 45.246094 C 41.421875 45.246094 45.152344 41.515625 45.152344 36.886719 Z M 45.152344 21.988281 "/>
<path style=" stroke:none;fill-rule:evenodd;fill:rgb(79.607843%,49.803922%,17.254902%);fill-opacity:1;" d="M 13.589844 27.003906 C 13.589844 27.855469 12.902344 28.542969 12.050781 28.542969 C 11.203125 28.542969 10.515625 27.855469 10.515625 27.003906 C 10.515625 26.15625 11.203125 25.46875 12.050781 25.46875 C 12.902344 25.46875 13.589844 26.15625 13.589844 27.003906 Z M 13.589844 27.003906 "/>
<path style=" stroke:none;fill-rule:evenodd;fill:rgb(79.607843%,49.803922%,17.254902%);fill-opacity:1;" d="M 38.21875 27.03125 C 38.21875 27.878906 37.53125 28.566406 36.683594 28.566406 C 35.832031 28.566406 35.144531 27.878906 35.144531 27.03125 C 35.144531 26.183594 35.832031 25.496094 36.683594 25.496094 C 37.53125 25.496094 38.21875 26.183594 38.21875 27.03125 Z M 38.21875 27.03125 "/>
<path style="fill:none;stroke-width:1.290687;stroke-linecap:round;stroke-linejoin:miter;stroke:rgb(100%,100%,100%);stroke-opacity:1;stroke-miterlimit:4;" d="M -37.337791 20.291534 C -36.572166 32.075388 -21.608625 30.958201 -21.035708 20.291534 " transform="matrix(1.5,0,0,1.5,68.135593,-2.847457)"/>
<path style=" stroke:none;fill-rule:evenodd;fill:rgb(0%,69.803922%,0%);fill-opacity:1;" d="M 41.644531 33.378906 C 41.644531 37.527344 38.285156 40.878906 34.144531 40.878906 C 30 40.878906 26.644531 37.527344 26.644531 33.378906 C 26.644531 29.238281 30 25.878906 34.144531 25.878906 C 38.285156 25.878906 41.644531 29.238281 41.644531 33.378906 Z M 41.644531 33.378906 "/>
<path style=" stroke:none;fill-rule:nonzero;fill:rgb(100%,100%,100%);fill-opacity:1;" d="M 30.769531 33.785156 C 30.890625 33.828125 31.003906 33.910156 31.113281 34.042969 C 31.230469 34.171875 31.339844 34.355469 31.453125 34.582031 L 32.011719 35.691406 L 31.421875 35.691406 L 30.902344 34.652344 C 30.765625 34.378906 30.636719 34.199219 30.503906 34.109375 C 30.378906 34.019531 30.207031 33.972656 29.996094 33.972656 L 29.390625 33.972656 L 29.390625 35.691406 L 28.84375 35.691406 L 28.84375 31.625 L 30.082031 31.625 C 30.550781 31.625 30.894531 31.722656 31.125 31.917969 C 31.355469 32.109375 31.46875 32.40625 31.46875 32.796875 C 31.46875 33.050781 31.410156 33.265625 31.292969 33.4375 C 31.171875 33.605469 31 33.722656 30.769531 33.785156 Z M 29.390625 32.078125 L 29.390625 33.519531 L 30.082031 33.519531 C 30.347656 33.519531 30.550781 33.464844 30.6875 33.339844 C 30.824219 33.21875 30.890625 33.035156 30.890625 32.796875 C 30.890625 32.558594 30.824219 32.378906 30.6875 32.261719 C 30.550781 32.140625 30.347656 32.078125 30.082031 32.078125 Z M 29.390625 32.078125 "/>
<path style=" stroke:none;fill-rule:nonzero;fill:rgb(100%,100%,100%);fill-opacity:1;" d="M 33.277344 32.078125 L 33.277344 33.609375 L 33.96875 33.609375 C 34.222656 33.609375 34.421875 33.542969 34.5625 33.40625 C 34.703125 33.277344 34.769531 33.089844 34.769531 32.839844 C 34.769531 32.597656 34.703125 32.410156 34.5625 32.277344 C 34.421875 32.144531 34.222656 32.078125 33.96875 32.078125 Z M 32.722656 31.625 L 33.96875 31.625 C 34.421875 31.625 34.765625 31.730469 35 31.9375 C 35.234375 32.140625 35.355469 32.441406 35.355469 32.839844 C 35.355469 33.246094 35.234375 33.546875 35 33.75 C 34.765625 33.957031 34.421875 34.058594 33.96875 34.058594 L 33.277344 34.058594 L 33.277344 35.691406 L 32.722656 35.691406 Z M 32.722656 31.625 "/>
<path style=" stroke:none;fill-rule:nonzero;fill:rgb(100%,100%,100%);fill-opacity:1;" d="M 36.09375 31.625 L 36.910156 31.625 L 37.953125 34.394531 L 38.996094 31.625 L 39.816406 31.625 L 39.816406 35.691406 L 39.28125 35.691406 L 39.28125 32.121094 L 38.230469 34.910156 L 37.675781 34.910156 L 36.625 32.121094 L 36.625 35.691406 L 36.09375 35.691406 Z M 36.09375 31.625 "/>
</g>
</svg>
