<?xml version="1.0" encoding="UTF-8"?>
<svg xmlns="http://www.w3.org/2000/svg" xmlns:xlink="http://www.w3.org/1999/xlink" width="48pt" height="48pt" viewBox="0 0 48 48" version="1.1">
<g id="surface1">
<path style=" stroke:none;fill-rule:evenodd;fill:rgb(47.843137%,31.372549%,61.960784%);fill-opacity:1;" d="M 11.207031 2.847656 L 36.792969 2.847656 C 41.40625 2.847656 45.152344 6.59375 45.152344 11.207031 L 45.152344 36.792969 C 45.152344 41.40625 41.40625 45.152344 36.792969 45.152344 L 11.207031 45.152344 C 6.59375 45.152344 2.847656 41.40625 2.847656 36.792969 L 2.847656 11.207031 C 2.847656 6.59375 6.59375 2.847656 11.207031 2.847656 Z M 11.207031 2.847656 "/>
<path style=" stroke:none;fill-rule:nonzero;fill:rgb(98.039216%,90.980392%,63.529412%);fill-opacity:1;" d="M 9 24 C 9 32.285156 15.714844 39 24 39 C 32.285156 39 39 32.285156 39 24 C 39 15.714844 32.285156 9 24 9 C 15.714844 9 9 15.714844 9 24 Z M 9 24 "/>
<path style=" stroke:none;fill-rule:nonzero;fill:rgb(78.431373%,72.941176%,50.980392%);fill-opacity:1;" d="M 25.417969 9.078125 C 27.308594 9.253906 29.152344 9.792969 30.84375 10.65625 C 30.769531 10.894531 30.859375 11.167969 31.136719 11.40625 C 31.324219 11.566406 31.472656 11.816406 31.472656 11.96875 C 31.472656 12.417969 31.066406 13.105469 30.746094 13.207031 C 30.3125 13.339844 30.457031 13.800781 31.011719 14.058594 C 31.265625 14.171875 31.582031 14.511719 31.714844 14.808594 C 31.84375 15.105469 32.03125 15.394531 32.136719 15.457031 C 32.238281 15.519531 32.324219 15.75 32.324219 15.972656 C 32.324219 16.285156 32.183594 16.4375 31.714844 16.625 C 31.378906 16.753906 30.980469 16.855469 30.824219 16.839844 C 29.933594 16.753906 29.871094 17.277344 30.652344 18.292969 C 31.0625 18.832031 31.261719 18.96875 31.546875 18.902344 C 31.808594 18.839844 31.953125 18.910156 32.074219 19.171875 C 32.199219 19.449219 32.40625 19.542969 32.964844 19.582031 C 33.511719 19.621094 33.753906 19.730469 33.957031 20.03125 C 34.109375 20.25 34.324219 20.425781 34.4375 20.425781 C 34.550781 20.425781 34.824219 20.574219 35.042969 20.75 C 35.480469 21.113281 35.652344 21.152344 35.800781 20.910156 C 36.003906 20.597656 36.441406 20.753906 37.09375 21.378906 C 37.671875 21.933594 37.746094 22.082031 37.65625 22.5625 C 37.5 23.417969 37.035156 24.171875 36.511719 24.4375 C 36.046875 24.667969 36.042969 24.6875 36.316406 24.984375 C 36.480469 25.15625 36.753906 25.339844 36.933594 25.390625 C 37.4375 25.546875 37.152344 25.738281 36.25 25.855469 C 35.316406 25.972656 35.03125 26.308594 35.464844 26.765625 C 35.707031 27.019531 35.691406 27.074219 35.308594 27.3125 C 34.546875 27.785156 33.949219 27.5 34.65625 27 C 35.113281 26.683594 34.792969 26.546875 34.125 26.78125 C 33.589844 26.96875 33.484375 26.957031 33.167969 26.683594 C 32.519531 26.121094 31.8125 26.953125 32.40625 27.578125 C 32.785156 27.980469 32.671875 28.457031 32.183594 28.527344 C 31.964844 28.558594 31.515625 28.753906 31.183594 28.972656 C 30.847656 29.1875 30.488281 29.363281 30.378906 29.363281 C 30.269531 29.363281 29.957031 29.589844 29.691406 29.855469 C 29.144531 30.402344 28.84375 30.46875 28.691406 30.082031 C 28.503906 29.625 28.578125 29.386719 29.078125 28.84375 C 29.472656 28.410156 30.113281 27.265625 30.113281 26.988281 C 30.113281 26.816406 29.464844 26.964844 29.09375 27.214844 C 28.871094 27.371094 28.496094 27.574219 28.269531 27.660156 C 28.035156 27.761719 27.785156 28.0625 27.671875 28.394531 C 27.496094 28.917969 27.425781 28.964844 26.800781 28.964844 L 26.125 28.964844 L 26.019531 30.183594 C 25.902344 31.644531 25.78125 31.941406 25.28125 32.0625 C 24.90625 32.152344 24.511719 32.730469 24.511719 33.175781 C 24.511719 33.296875 24.78125 33.589844 25.105469 33.824219 C 25.511719 34.121094 25.683594 34.371094 25.65625 34.613281 C 25.621094 34.921875 25.691406 34.96875 26.125 34.9375 C 26.40625 34.917969 26.890625 35.015625 27.203125 35.15625 C 27.574219 35.324219 27.972656 35.375 28.347656 35.308594 C 28.78125 35.230469 28.925781 35.261719 28.925781 35.433594 C 28.925781 35.550781 29.078125 35.785156 29.265625 35.949219 C 29.71875 36.34375 29.53125 36.550781 28.832031 36.425781 C 28.394531 36.347656 28.222656 36.378906 28.152344 36.566406 C 27.988281 36.96875 28.394531 37.535156 28.769531 37.441406 C 29.011719 37.386719 29.125 37.46875 29.199219 37.75 C 29.222656 37.847656 29.269531 37.933594 29.328125 38.003906 C 28.558594 38.300781 27.765625 38.535156 26.953125 38.703125 C 27.03125 38.5625 27.113281 38.433594 27.199219 38.375 C 27.582031 38.097656 27.324219 37.390625 26.792969 37.261719 C 26.25 37.128906 26.339844 36.78125 26.925781 36.714844 C 27.441406 36.65625 27.996094 36.128906 27.824219 35.863281 C 27.703125 35.683594 27.207031 35.707031 26.207031 35.949219 C 25.761719 36.050781 25.449219 35.839844 24.40625 34.691406 C 23.796875 34.03125 23.332031 33.753906 22.824219 33.753906 C 22.625 33.753906 21.933594 33.578125 21.277344 33.359375 C 20.042969 32.941406 19.558594 32.957031 19.597656 33.410156 C 19.699219 34.347656 19.089844 34.316406 18.105469 33.332031 C 17.691406 32.921875 17.316406 32.625 17.269531 32.671875 C 17.078125 32.855469 17.421875 33.734375 17.816406 34.089844 C 18.316406 34.542969 18.34375 34.828125 17.902344 35.050781 C 17.65625 35.175781 17.558594 35.425781 17.515625 35.996094 L 17.46875 36.765625 L 16.839844 36.765625 C 16.621094 36.765625 16.4375 36.792969 16.292969 36.847656 C 11.921875 34.222656 9.1875 29.5625 9.019531 24.46875 C 9.253906 23.980469 9.234375 23.683594 9.019531 23.347656 C 9.035156 23.066406 9.0625 22.785156 9.089844 22.511719 C 9.230469 22.5 9.363281 22.496094 9.527344 22.503906 C 10.28125 22.535156 10.933594 22.234375 10.933594 21.859375 C 10.933594 21.777344 11.199219 21.449219 11.527344 21.125 C 11.902344 20.753906 12.089844 20.433594 12.03125 20.265625 C 11.984375 20.113281 12.09375 19.863281 12.285156 19.699219 C 12.472656 19.535156 12.628906 19.269531 12.628906 19.113281 C 12.628906 18.863281 12.785156 18.832031 13.941406 18.859375 L 15.261719 18.890625 L 15.238281 20.1875 C 15.199219 22.457031 14.859375 23.046875 13.816406 22.667969 C 13.339844 22.496094 12.167969 22.625 11.832031 22.890625 C 11.707031 22.984375 11.535156 23.332031 11.441406 23.667969 C 11.347656 23.996094 11.003906 24.5625 10.675781 24.933594 C 10.015625 25.675781 9.964844 25.964844 10.34375 26.839844 C 10.675781 27.597656 11.035156 27.511719 10.964844 26.6875 L 10.910156 26.074219 L 11.472656 26.175781 C 11.785156 26.234375 12.171875 26.464844 12.347656 26.691406 C 12.597656 27.015625 12.714844 27.0625 12.902344 26.917969 C 13.03125 26.8125 13.136719 26.59375 13.136719 26.433594 C 13.136719 26.269531 13.296875 26.089844 13.496094 26.03125 C 13.6875 25.96875 13.957031 25.675781 14.089844 25.375 C 14.296875 24.890625 14.292969 24.746094 14.046875 24.15625 C 13.796875 23.5625 13.796875 23.464844 14.027344 23.246094 C 14.234375 23.042969 14.34375 23.035156 14.621094 23.203125 C 14.894531 23.371094 15.03125 23.355469 15.359375 23.136719 C 15.578125 22.984375 15.964844 22.863281 16.214844 22.863281 C 16.71875 22.863281 16.871094 22.621094 16.871094 21.800781 C 16.871094 21.050781 17.324219 20.78125 18.390625 20.875 C 19.128906 20.941406 19.292969 20.894531 19.890625 20.4375 C 20.261719 20.152344 20.84375 19.46875 21.1875 18.917969 C 21.535156 18.359375 21.90625 17.78125 22.015625 17.628906 C 22.171875 17.40625 22.128906 17.199219 21.828125 16.59375 L 21.441406 15.839844 L 22.253906 15.949219 C 23.703125 16.140625 24 16.328125 23.375 16.667969 C 23.128906 16.792969 23.121094 16.859375 23.308594 17.078125 C 23.433594 17.21875 23.488281 17.441406 23.4375 17.574219 C 23.378906 17.707031 23.449219 18.019531 23.582031 18.265625 C 23.71875 18.515625 23.832031 18.863281 23.839844 19.046875 C 23.855469 19.605469 24.8125 20.046875 25.875 19.988281 C 27.488281 19.902344 27.625 19.925781 28.199219 20.457031 C 28.910156 21.125 29.003906 21.433594 28.671875 22.050781 C 28.347656 22.652344 27.777344 22.890625 26.78125 22.84375 C 25.890625 22.796875 25.792969 22.875 25.996094 23.464844 C 26.167969 23.964844 26.746094 24.15625 27.140625 23.84375 C 27.441406 23.605469 28.488281 23.785156 28.808594 24.140625 C 28.941406 24.285156 29.140625 24.675781 29.25 25 C 29.4375 25.558594 29.496094 25.59375 30.332031 25.671875 C 31.171875 25.753906 31.253906 25.730469 31.855469 25.171875 C 32.53125 24.550781 32.640625 24.078125 32.316406 23.265625 C 32.175781 22.902344 32.066406 22.84375 31.683594 22.910156 C 30.921875 23.050781 30.625 22.785156 30.625 21.972656 C 30.625 21.582031 30.699219 21.214844 30.792969 21.15625 C 30.886719 21.105469 30.964844 20.894531 30.964844 20.691406 C 30.964844 20.496094 31.058594 20.234375 31.175781 20.125 C 31.34375 19.957031 31.324219 19.871094 31.050781 19.675781 C 30.863281 19.546875 30.558594 19.457031 30.371094 19.480469 C 30.183594 19.5 29.667969 19.421875 29.222656 19.300781 C 28.578125 19.125 28.390625 18.996094 28.300781 18.65625 C 28.140625 18.015625 27.734375 17.5 27.394531 17.5 C 26.863281 17.5 26.855469 16.246094 27.371094 14.421875 C 27.449219 14.152344 27.660156 13.984375 28.03125 13.890625 C 28.332031 13.8125 28.660156 13.609375 28.761719 13.433594 C 28.859375 13.253906 29.035156 13.109375 29.160156 13.109375 C 29.28125 13.109375 29.519531 12.964844 29.691406 12.785156 C 29.859375 12.605469 30.214844 12.464844 30.480469 12.464844 C 31.113281 12.464844 31.125 12.027344 30.496094 11.796875 C 29.832031 11.550781 28.796875 11.871094 28.550781 12.394531 C 28.214844 13.109375 27.832031 12.8125 27.714844 11.734375 C 27.566406 10.40625 27.105469 10.019531 25.660156 10.019531 L 24.621094 10.019531 L 25.074219 9.566406 C 25.21875 9.425781 25.332031 9.25 25.417969 9.078125 Z M 20.027344 9.550781 C 20.050781 9.578125 20.082031 9.597656 20.109375 9.628906 C 20.457031 9.984375 20.621094 10.035156 21.160156 9.953125 C 22.097656 9.8125 21.980469 10.1875 20.9375 10.644531 C 20.375 10.890625 20.015625 11.171875 19.890625 11.457031 C 19.300781 12.832031 18.890625 13.574219 18.6875 13.644531 C 18.269531 13.796875 18.027344 13.496094 17.933594 12.714844 C 17.828125 11.816406 17.527344 11.625 16.980469 12.113281 C 16.769531 12.308594 16.472656 12.464844 16.324219 12.464844 C 15.859375 12.464844 15.515625 12.644531 15.515625 12.902344 C 15.515625 13.035156 15.359375 13.355469 15.167969 13.613281 C 14.878906 13.996094 14.6875 14.089844 14.15625 14.089844 C 13.503906 14.089844 13.105469 14.207031 12.285156 14.660156 C 12.277344 14.667969 12.265625 14.667969 12.25 14.675781 C 14.234375 12.1875 16.953125 10.390625 20.027344 9.550781 Z M 38.996094 23.9375 C 39 23.957031 39 23.980469 39 24 C 38.996094 24.96875 38.894531 25.933594 38.707031 26.878906 C 38.160156 27.105469 38.015625 27.015625 37.957031 26.511719 C 37.925781 26.25 37.792969 25.953125 37.652344 25.847656 C 37.4375 25.691406 37.472656 25.609375 37.917969 25.308594 C 38.199219 25.113281 38.480469 24.777344 38.535156 24.558594 C 38.59375 24.34375 38.78125 24.109375 38.996094 23.9375 Z M 34.277344 28.894531 C 34.417969 28.878906 34.582031 28.953125 34.769531 29.136719 C 35.167969 29.515625 35.109375 30.277344 34.660156 30.578125 C 34.144531 30.921875 33.949219 30.824219 33.878906 30.1875 C 33.800781 29.402344 33.96875 28.925781 34.277344 28.894531 Z M 31.730469 31.160156 C 31.886719 31.167969 32.050781 31.277344 32.21875 31.503906 C 32.402344 31.75 32.449219 32.066406 32.378906 32.546875 C 32.296875 33.136719 32.332031 33.261719 32.640625 33.421875 C 33.035156 33.625 33.121094 34.222656 32.796875 34.535156 C 32.472656 34.84375 32.167969 34.765625 32.058594 34.34375 C 31.902344 33.738281 31.015625 33.667969 30.410156 34.207031 C 30.15625 34.441406 29.949219 34.558594 29.949219 34.46875 C 29.949219 34.378906 30.214844 34.058594 30.542969 33.753906 C 31.042969 33.292969 31.136719 33.09375 31.136719 32.496094 C 31.136719 31.652344 31.390625 31.152344 31.730469 31.160156 Z M 35.910156 33.097656 C 35.796875 33.246094 35.683594 33.390625 35.5625 33.535156 C 35.667969 33.378906 35.78125 33.230469 35.910156 33.097656 Z M 30.855469 35.402344 C 30.933594 35.425781 30.964844 35.519531 30.964844 35.6875 C 30.964844 35.859375 31.074219 36.035156 31.203125 36.082031 C 31.378906 36.152344 31.421875 36.355469 31.355469 36.839844 C 31.339844 36.925781 31.332031 37 31.332031 37.078125 C 31.125 37.1875 30.917969 37.296875 30.707031 37.394531 C 30.71875 37.136719 30.671875 36.832031 30.535156 36.449219 C 30.300781 35.800781 30.296875 35.636719 30.484375 35.527344 C 30.660156 35.417969 30.78125 35.375 30.855469 35.402344 Z M 30.855469 35.402344 "/>
</g>
</svg>
