<?xml version="1.0" encoding="UTF-8"?>
<svg xmlns="http://www.w3.org/2000/svg" xmlns:xlink="http://www.w3.org/1999/xlink" width="48pt" height="48pt" viewBox="0 0 48 48" version="1.1">
<g id="surface1">
<path style=" stroke:none;fill-rule:evenodd;fill:rgb(90.588235%,29.803922%,23.529412%);fill-opacity:1;" d="M 2.847656 16.699219 L 2.847656 36.785156 C 2.847656 41.421875 6.578125 45.152344 11.214844 45.152344 L 36.792969 45.152344 C 41.421875 45.152344 45.152344 41.421875 45.152344 36.785156 L 45.152344 11.207031 C 45.152344 10.730469 44.957031 10.316406 44.878906 9.859375 C 42.21875 9.714844 39.480469 9.546875 36.640625 8.894531 C 34.84375 8.484375 33.058594 7.953125 31.328125 7.261719 C 29.597656 6.574219 27.925781 5.730469 26.363281 4.699219 C 27.425781 6.253906 28.230469 7.816406 28.824219 9.359375 C 29.417969 10.902344 29.800781 12.421875 30.03125 13.890625 C 30.253906 15.363281 30.316406 16.792969 30.269531 18.144531 C 30.21875 19.5 30.058594 20.78125 29.828125 21.964844 C 29.371094 24.332031 28.644531 26.3125 28.042969 27.699219 C 27.433594 29.089844 26.9375 29.886719 26.9375 29.886719 C 26.9375 29.886719 25.308594 28.265625 23.480469 25.574219 C 22.566406 24.222656 21.605469 22.605469 20.777344 20.78125 C 19.941406 18.957031 19.238281 16.9375 18.847656 14.777344 C 18.230469 11.332031 18.191406 8.636719 18.457031 6.53125 C 17.8125 7.550781 16.921875 8.621094 15.707031 9.703125 C 14.496094 10.785156 12.953125 11.875 10.988281 12.921875 C 7.824219 14.621094 5.207031 15.761719 2.847656 16.699219 Z M 2.847656 16.699219 "/>
<path style=" stroke:none;fill-rule:evenodd;fill:rgb(65.098039%,93.72549%,30.196078%);fill-opacity:1;" d="M 2.847656 16.699219 C 5.207031 15.761719 7.824219 14.621094 10.988281 12.921875 C 12.953125 11.875 14.496094 10.785156 15.707031 9.703125 C 16.921875 8.621094 17.8125 7.550781 18.457031 6.53125 C 18.191406 8.636719 18.230469 11.332031 18.847656 14.777344 C 19.238281 16.9375 19.941406 18.957031 20.777344 20.78125 C 21.605469 22.605469 22.566406 24.222656 23.480469 25.574219 C 25.308594 28.265625 26.9375 29.886719 26.9375 29.886719 C 26.9375 29.886719 27.433594 29.089844 28.042969 27.699219 C 28.644531 26.3125 29.371094 24.332031 29.828125 21.964844 C 30.058594 20.78125 30.21875 19.5 30.269531 18.144531 C 30.316406 16.792969 30.253906 15.363281 30.03125 13.890625 C 29.800781 12.421875 29.417969 10.902344 28.824219 9.359375 C 28.230469 7.816406 27.425781 6.253906 26.363281 4.699219 C 27.925781 5.730469 29.597656 6.574219 31.328125 7.261719 C 33.058594 7.953125 34.84375 8.484375 36.640625 8.894531 C 39.480469 9.546875 42.21875 9.714844 44.878906 9.859375 C 44.21875 5.902344 40.941406 2.847656 36.792969 2.847656 L 11.214844 2.847656 C 6.578125 2.847656 2.847656 6.578125 2.847656 11.207031 Z M 2.847656 16.699219 "/>
</g>
</svg>
