<?xml version="1.0" encoding="UTF-8"?>
<svg xmlns="http://www.w3.org/2000/svg" xmlns:xlink="http://www.w3.org/1999/xlink" width="48pt" height="48pt" viewBox="0 0 48 48" version="1.1">
<g id="surface1">
<path style=" stroke:none;fill-rule:evenodd;fill:rgb(49.019608%,27.45098%,59.607843%);fill-opacity:1;" d="M 11.207031 2.847656 L 36.792969 2.847656 C 41.40625 2.847656 45.152344 6.59375 45.152344 11.207031 L 45.152344 36.792969 C 45.152344 41.40625 41.40625 45.152344 36.792969 45.152344 L 11.207031 45.152344 C 6.59375 45.152344 2.847656 41.40625 2.847656 36.792969 L 2.847656 11.207031 C 2.847656 6.59375 6.59375 2.847656 11.207031 2.847656 Z M 11.207031 2.847656 "/>
<path style=" stroke:none;fill-rule:nonzero;fill:rgb(100%,88.627451%,67.45098%);fill-opacity:1;" d="M 24 7.472656 C 14.875 7.472656 7.472656 14.875 7.472656 24 C 7.472656 33.125 14.875 40.527344 24 40.527344 Z M 33.300781 10.34375 C 33.421875 10.421875 33.53125 10.515625 33.644531 10.605469 C 33.53125 10.515625 33.417969 10.425781 33.300781 10.34375 Z M 34.589844 11.316406 C 34.738281 11.441406 34.886719 11.589844 35.035156 11.722656 C 34.890625 11.582031 34.738281 11.449219 34.589844 11.316406 Z M 35.769531 12.410156 C 35.921875 12.5625 36.058594 12.722656 36.203125 12.878906 C 36.0625 12.722656 35.917969 12.566406 35.769531 12.410156 Z M 36.859375 13.636719 C 36.996094 13.796875 37.113281 13.972656 37.238281 14.144531 C 37.121094 13.972656 36.988281 13.800781 36.859375 13.636719 Z M 37.808594 14.933594 C 37.933594 15.121094 38.042969 15.3125 38.15625 15.503906 C 38.042969 15.3125 37.925781 15.121094 37.808594 14.933594 Z M 38.644531 16.359375 C 38.734375 16.535156 38.816406 16.71875 38.90625 16.902344 C 38.824219 16.71875 38.734375 16.535156 38.644531 16.359375 Z M 39.328125 17.847656 C 39.402344 18.027344 39.464844 18.214844 39.53125 18.394531 C 39.46875 18.214844 39.402344 18.03125 39.328125 17.847656 Z M 39.863281 19.402344 C 39.921875 19.597656 39.96875 19.796875 40.015625 19.996094 C 39.96875 19.796875 39.917969 19.597656 39.863281 19.402344 Z M 40.277344 21.144531 C 40.28125 21.175781 40.285156 21.203125 40.292969 21.230469 C 40.285156 21.203125 40.28125 21.175781 40.277344 21.144531 Z M 40.472656 22.75 C 40.480469 22.808594 40.484375 22.863281 40.484375 22.917969 C 40.484375 22.863281 40.480469 22.808594 40.472656 22.75 Z M 37.65625 33.300781 C 37.578125 33.421875 37.484375 33.53125 37.394531 33.644531 C 37.484375 33.53125 37.574219 33.417969 37.65625 33.300781 Z M 36.683594 34.589844 C 36.558594 34.738281 36.410156 34.886719 36.277344 35.035156 C 36.417969 34.890625 36.550781 34.738281 36.683594 34.589844 Z M 35.589844 35.769531 C 35.4375 35.921875 35.277344 36.058594 35.121094 36.203125 C 35.277344 36.0625 35.433594 35.917969 35.589844 35.769531 Z M 34.363281 36.859375 C 34.203125 36.996094 34.027344 37.113281 33.855469 37.238281 C 34.027344 37.121094 34.199219 36.988281 34.363281 36.859375 Z M 33.066406 37.808594 C 32.878906 37.933594 32.6875 38.042969 32.496094 38.15625 C 32.6875 38.042969 32.878906 37.925781 33.066406 37.808594 Z M 31.640625 38.644531 C 31.464844 38.734375 31.28125 38.816406 31.097656 38.90625 C 31.28125 38.824219 31.464844 38.734375 31.640625 38.644531 Z M 30.152344 39.328125 C 29.972656 39.402344 29.785156 39.464844 29.605469 39.53125 C 29.785156 39.46875 29.96875 39.402344 30.152344 39.328125 Z M 28.597656 39.863281 C 28.402344 39.921875 28.203125 39.96875 28.003906 40.015625 C 28.203125 39.96875 28.402344 39.917969 28.597656 39.863281 Z M 26.855469 40.277344 C 26.824219 40.28125 26.796875 40.285156 26.769531 40.292969 C 26.796875 40.285156 26.824219 40.28125 26.855469 40.277344 Z M 25.25 40.472656 C 25.191406 40.480469 25.136719 40.484375 25.082031 40.484375 C 25.136719 40.484375 25.191406 40.480469 25.25 40.472656 Z M 25.25 40.472656 "/>
<path style=" stroke:none;fill-rule:nonzero;fill:rgb(80%,70.980392%,54.117647%);fill-opacity:1;" d="M 36.984375 24 C 36.984375 31.171875 31.171875 36.984375 24 36.984375 C 16.828125 36.984375 11.015625 31.171875 11.015625 24 C 11.015625 16.828125 16.828125 11.015625 24 11.015625 C 31.171875 11.015625 36.984375 16.828125 36.984375 24 Z M 36.984375 24 "/>
<path style=" stroke:none;fill-rule:nonzero;fill:rgb(63.921569%,56.862745%,43.137255%);fill-opacity:1;" d="M 33.441406 24 C 33.441406 29.214844 29.214844 33.441406 24 33.441406 C 18.785156 33.441406 14.558594 29.214844 14.558594 24 C 14.558594 18.785156 18.785156 14.558594 24 14.558594 C 29.214844 14.558594 33.441406 18.785156 33.441406 24 Z M 33.441406 24 "/>
<path style=" stroke:none;fill-rule:nonzero;fill:rgb(50.980392%,45.490196%,34.509804%);fill-opacity:1;" d="M 29.902344 24 C 29.902344 27.261719 27.261719 29.902344 24 29.902344 C 20.738281 29.902344 18.097656 27.261719 18.097656 24 C 18.097656 20.738281 20.738281 18.097656 24 18.097656 C 27.261719 18.097656 29.902344 20.738281 29.902344 24 Z M 29.902344 24 "/>
<path style=" stroke:none;fill-rule:nonzero;fill:rgb(49.019608%,27.45098%,59.607843%);fill-opacity:1;" d="M 40.527344 24 C 40.527344 33.125 33.125 40.527344 24 40.527344 L 24 7.472656 C 33.125 7.472656 40.527344 14.875 40.527344 24 Z M 40.527344 24 "/>
</g>
</svg>
