<?xml version="1.0" encoding="UTF-8"?>
<svg xmlns="http://www.w3.org/2000/svg" xmlns:xlink="http://www.w3.org/1999/xlink" width="48pt" height="48pt" viewBox="0 0 48 48" version="1.1">
<g id="surface1">
<path style=" stroke:none;fill-rule:evenodd;fill:rgb(30.980392%,30.980392%,30.980392%);fill-opacity:1;" d="M 11.207031 2.847656 L 36.792969 2.847656 C 41.40625 2.847656 45.152344 6.59375 45.152344 11.207031 L 45.152344 36.792969 C 45.152344 41.40625 41.40625 45.152344 36.792969 45.152344 L 11.207031 45.152344 C 6.59375 45.152344 2.847656 41.40625 2.847656 36.792969 L 2.847656 11.207031 C 2.847656 6.59375 6.59375 2.847656 11.207031 2.847656 Z M 11.207031 2.847656 "/>
<path style=" stroke:none;fill-rule:nonzero;fill:rgb(100%,34.117647%,34.117647%);fill-opacity:1;" d="M 24 7.488281 C 22.753906 7.488281 21.75 8.496094 21.75 9.738281 C 21.75 10.980469 22.753906 11.988281 24 11.988281 C 25.246094 11.988281 26.25 10.980469 26.25 9.738281 C 26.25 8.496094 25.246094 7.488281 24 7.488281 Z M 14.949219 10.488281 C 14.574219 10.496094 14.203125 10.597656 13.875 10.785156 C 13.359375 11.089844 12.980469 11.578125 12.828125 12.15625 C 12.671875 12.734375 12.75 13.347656 13.050781 13.863281 C 13.671875 14.9375 15.046875 15.308594 16.125 14.6875 C 17.203125 14.066406 17.566406 12.6875 16.949219 11.613281 C 16.535156 10.902344 15.769531 10.46875 14.949219 10.488281 Z M 33.050781 10.488281 C 32.230469 10.46875 31.464844 10.902344 31.050781 11.613281 C 30.433594 12.6875 30.796875 14.066406 31.875 14.6875 C 32.953125 15.308594 34.328125 14.9375 34.949219 13.863281 C 35.25 13.347656 35.328125 12.734375 35.171875 12.15625 C 35.019531 11.578125 34.640625 11.089844 34.125 10.785156 C 33.796875 10.597656 33.425781 10.496094 33.050781 10.488281 Z M 9.058594 16.488281 C 9 16.488281 8.949219 16.488281 8.894531 16.488281 C 8.128906 16.527344 7.4375 16.953125 7.050781 17.613281 C 6.433594 18.691406 6.800781 20.066406 7.878906 20.6875 C 8.953125 21.308594 10.328125 20.9375 10.953125 19.863281 C 11.574219 18.785156 11.203125 17.410156 10.128906 16.792969 C 9.800781 16.605469 9.433594 16.5 9.058594 16.488281 Z M 38.941406 16.488281 C 38.566406 16.5 38.199219 16.605469 37.871094 16.792969 C 36.796875 17.410156 36.425781 18.785156 37.046875 19.863281 C 37.671875 20.9375 39.046875 21.308594 40.121094 20.6875 C 41.199219 20.066406 41.566406 18.691406 40.949219 17.613281 C 40.5625 16.953125 39.871094 16.527344 39.105469 16.488281 C 39.050781 16.488281 39 16.488281 38.941406 16.488281 Z M 7.5 25.488281 C 6.253906 25.488281 5.25 26.496094 5.25 27.738281 C 5.25 28.980469 6.253906 29.988281 7.5 29.988281 C 8.746094 29.988281 9.75 28.980469 9.75 27.738281 C 9.75 26.496094 8.746094 25.488281 7.5 25.488281 Z M 40.5 25.488281 C 39.253906 25.488281 38.25 26.496094 38.25 27.738281 C 38.25 28.980469 39.253906 29.988281 40.5 29.988281 C 41.746094 29.988281 42.75 28.980469 42.75 27.738281 C 42.75 26.496094 41.746094 25.488281 40.5 25.488281 Z M 10.449219 32.988281 C 10.074219 33 9.703125 33.105469 9.378906 33.292969 C 8.300781 33.910156 7.933594 35.285156 8.550781 36.363281 C 8.847656 36.878906 9.34375 37.261719 9.917969 37.410156 C 10.496094 37.566406 11.109375 37.484375 11.628906 37.1875 C 12.703125 36.566406 13.074219 35.1875 12.453125 34.113281 C 12.042969 33.402344 11.269531 32.96875 10.449219 32.988281 Z M 37.390625 32.988281 C 36.625 33.027344 35.933594 33.449219 35.546875 34.113281 C 34.925781 35.1875 35.296875 36.566406 36.371094 37.1875 C 36.890625 37.484375 37.503906 37.566406 38.082031 37.410156 C 38.65625 37.261719 39.152344 36.878906 39.449219 36.363281 C 40.066406 35.285156 39.699219 33.910156 38.621094 33.292969 C 38.296875 33.105469 37.925781 33 37.550781 32.988281 C 37.5 32.988281 37.441406 32.988281 37.390625 32.988281 Z M 37.390625 32.988281 "/>
<path style=" stroke:none;fill-rule:nonzero;fill:rgb(100%,65.098039%,65.098039%);fill-opacity:1;" d="M 37.042969 29.734375 L 24.863281 28.800781 L 26.03125 24.453125 Z M 37.042969 29.734375 "/>
<path style=" stroke:none;fill-rule:nonzero;fill:rgb(100%,65.098039%,65.098039%);fill-opacity:1;" d="M 23.03125 29.859375 C 21.027344 29.324219 19.84375 27.269531 20.375 25.265625 C 20.910156 23.265625 22.96875 22.078125 24.96875 22.613281 C 26.96875 23.152344 28.15625 25.207031 27.621094 27.207031 C 27.082031 29.207031 25.03125 30.394531 23.03125 29.859375 Z M 23.03125 29.859375 "/>
</g>
</svg>
