<?xml version="1.0" encoding="UTF-8"?>
<svg xmlns="http://www.w3.org/2000/svg" xmlns:xlink="http://www.w3.org/1999/xlink" width="48pt" height="48pt" viewBox="0 0 48 48" version="1.1">
<g id="surface1">
<path style=" stroke:none;fill-rule:evenodd;fill:rgb(72.941176%,83.921569%,19.607843%);fill-opacity:1;" d="M 11.207031 2.847656 L 36.792969 2.847656 C 41.40625 2.847656 45.152344 6.59375 45.152344 11.207031 L 45.152344 36.792969 C 45.152344 41.40625 41.40625 45.152344 36.792969 45.152344 L 11.207031 45.152344 C 6.59375 45.152344 2.847656 41.40625 2.847656 36.792969 L 2.847656 11.207031 C 2.847656 6.59375 6.59375 2.847656 11.207031 2.847656 Z M 11.207031 2.847656 "/>
<path style=" stroke:none;fill-rule:nonzero;fill:rgb(100%,100%,100%);fill-opacity:1;" d="M 24 8.105469 C 15.21875 8.105469 8.105469 14.714844 8.105469 22.863281 C 8.105469 27.230469 10.183594 31.363281 13.78125 34.171875 L 13.78125 39.894531 L 18.003906 36.527344 C 19.90625 37.25 21.941406 37.625 24 37.625 C 32.78125 37.625 39.894531 31.015625 39.894531 22.863281 C 39.894531 14.714844 32.78125 8.105469 24 8.105469 Z M 24 8.105469 "/>
<path style=" stroke:none;fill-rule:nonzero;fill:rgb(34.117647%,51.764706%,9.411765%);fill-opacity:1;" d="M 24 12.644531 C 18.355469 12.644531 13.78125 17.21875 13.78125 22.863281 C 13.78125 28.511719 18.355469 33.082031 24 33.082031 C 24.378906 33.078125 24.761719 33.058594 25.136719 33.011719 L 25.136719 37.574219 C 26.292969 37.5 27.433594 37.308594 28.542969 37.003906 L 28.542969 32.015625 C 32.019531 30.292969 34.21875 26.746094 34.21875 22.863281 C 34.21875 17.21875 29.644531 12.644531 24 12.644531 Z M 24 12.644531 "/>
<path style=" stroke:none;fill-rule:nonzero;fill:rgb(14.509804%,16.078431%,12.54902%);fill-opacity:1;" d="M 24 17.1875 C 20.863281 17.1875 18.324219 19.730469 18.324219 22.863281 L 18.324219 31.355469 C 19.359375 32.042969 20.515625 32.542969 21.730469 32.816406 L 21.730469 28.066406 C 22.441406 28.378906 23.21875 28.542969 24 28.542969 C 27.136719 28.542969 29.675781 26 29.675781 22.863281 C 29.675781 19.730469 27.136719 17.1875 24 17.1875 Z M 24 17.1875 "/>
</g>
</svg>
