<?xml version="1.0" encoding="UTF-8"?>
<svg xmlns="http://www.w3.org/2000/svg" xmlns:xlink="http://www.w3.org/1999/xlink" width="48pt" height="48pt" viewBox="0 0 48 48" version="1.1">
<g id="surface1">
<path style=" stroke:none;fill-rule:evenodd;fill:rgb(39.607843%,77.254902%,47.843137%);fill-opacity:1;" d="M 11.207031 2.847656 L 36.792969 2.847656 C 41.40625 2.847656 45.152344 6.59375 45.152344 11.207031 L 45.152344 36.792969 C 45.152344 41.40625 41.40625 45.152344 36.792969 45.152344 L 11.207031 45.152344 C 6.59375 45.152344 2.847656 41.40625 2.847656 36.792969 L 2.847656 11.207031 C 2.847656 6.59375 6.59375 2.847656 11.207031 2.847656 Z M 11.207031 2.847656 "/>
<path style=" stroke:none;fill-rule:nonzero;fill:rgb(17.647059%,35.294118%,21.568627%);fill-opacity:1;" d="M 24 8.332031 C 21.519531 8.332031 19.519531 10.328125 19.519531 12.808594 L 19.519531 18.035156 L 17.542969 16.050781 C 16.199219 14.707031 14.035156 14.707031 12.691406 16.050781 C 11.355469 17.394531 11.355469 19.558594 12.691406 20.894531 L 19.15625 27.359375 L 12.691406 33.816406 C 11.355469 35.15625 11.355469 37.316406 12.691406 38.660156 C 14.035156 40.003906 16.199219 40.003906 17.542969 38.660156 L 21.675781 34.527344 C 22.355469 34.9375 23.144531 35.191406 24 35.191406 C 24.855469 35.191406 25.644531 34.9375 26.324219 34.527344 L 30.457031 38.660156 C 31.800781 40.003906 33.964844 40.003906 35.308594 38.660156 C 36.644531 37.316406 36.644531 35.15625 35.308594 33.816406 L 28.84375 27.359375 L 35.308594 20.894531 C 36.644531 19.558594 36.644531 17.394531 35.308594 16.050781 C 33.964844 14.707031 31.800781 14.707031 30.457031 16.050781 L 28.480469 18.035156 L 28.480469 12.808594 C 28.480469 10.328125 26.480469 8.332031 24 8.332031 Z M 24 8.332031 "/>
<path style=" stroke:none;fill-rule:nonzero;fill:rgb(42.745098%,45.490196%,50.588235%);fill-opacity:1;" d="M 35.191406 26.796875 C 35.191406 20.308594 30.183594 15.046875 24 15.046875 C 17.816406 15.046875 12.808594 20.308594 12.808594 26.796875 C 12.808594 33.285156 17.816406 38.546875 24 38.546875 C 30.183594 38.546875 35.191406 33.285156 35.191406 26.796875 Z M 35.191406 26.796875 "/>
<path style=" stroke:none;fill-rule:nonzero;fill:rgb(76.862745%,76.862745%,76.862745%);fill-opacity:1;" d="M 17.316406 20.609375 C 17.015625 20.605469 16.722656 20.722656 16.511719 20.9375 C 16.296875 21.152344 16.175781 21.441406 16.183594 21.746094 L 16.183594 26.046875 C 16.183594 26.050781 16.175781 26.058594 16.175781 26.058594 C 16.175781 26.074219 16.175781 26.082031 16.175781 26.097656 C 16.171875 26.128906 16.167969 26.160156 16.167969 26.1875 C 16.167969 26.222656 16.167969 26.253906 16.171875 26.292969 C 16.171875 26.308594 16.171875 26.324219 16.175781 26.34375 C 16.175781 26.359375 16.175781 26.378906 16.183594 26.402344 L 16.183594 30.699219 C 16.183594 30.761719 16.1875 30.828125 16.199219 30.890625 C 16.203125 30.925781 16.207031 30.964844 16.21875 31 C 16.230469 31.035156 16.238281 31.066406 16.253906 31.105469 C 16.253906 31.105469 16.253906 31.105469 16.253906 31.109375 C 16.265625 31.140625 16.28125 31.171875 16.296875 31.203125 C 16.296875 31.207031 16.296875 31.207031 16.296875 31.207031 C 16.3125 31.246094 16.332031 31.277344 16.355469 31.300781 C 16.371094 31.339844 16.390625 31.363281 16.417969 31.394531 C 16.4375 31.425781 16.464844 31.453125 16.488281 31.480469 C 16.511719 31.503906 16.535156 31.53125 16.5625 31.558594 C 16.5625 31.558594 16.566406 31.558594 16.566406 31.5625 C 16.597656 31.582031 16.625 31.609375 16.65625 31.628906 C 16.6875 31.652344 16.714844 31.667969 16.746094 31.6875 C 16.75 31.6875 16.75 31.6875 16.753906 31.691406 C 16.777344 31.703125 16.796875 31.714844 16.824219 31.722656 C 16.832031 31.730469 16.847656 31.738281 16.863281 31.746094 C 16.890625 31.753906 16.921875 31.769531 16.953125 31.78125 C 17.015625 31.796875 17.082031 31.8125 17.144531 31.824219 C 17.167969 31.824219 17.183594 31.828125 17.203125 31.828125 C 17.207031 31.828125 17.214844 31.828125 17.21875 31.828125 C 17.246094 31.832031 17.277344 31.832031 17.300781 31.832031 C 17.328125 31.832031 17.355469 31.832031 17.386719 31.828125 C 17.386719 31.828125 17.390625 31.828125 17.394531 31.828125 C 17.394531 31.828125 17.402344 31.828125 17.402344 31.828125 C 17.417969 31.828125 17.4375 31.824219 17.453125 31.824219 C 17.519531 31.8125 17.582031 31.796875 17.644531 31.78125 C 17.683594 31.765625 17.714844 31.753906 17.75 31.738281 C 17.753906 31.738281 17.753906 31.738281 17.753906 31.738281 C 17.785156 31.722656 17.816406 31.707031 17.847656 31.6875 C 17.855469 31.6875 17.855469 31.6875 17.855469 31.6875 C 17.917969 31.652344 17.980469 31.609375 18.03125 31.5625 C 18.035156 31.5625 18.035156 31.558594 18.042969 31.558594 C 18.066406 31.53125 18.09375 31.503906 18.113281 31.480469 C 18.140625 31.453125 18.167969 31.425781 18.1875 31.394531 C 18.207031 31.363281 18.230469 31.339844 18.25 31.300781 C 18.269531 31.277344 18.292969 31.246094 18.308594 31.207031 C 18.308594 31.207031 18.308594 31.207031 18.308594 31.203125 C 18.324219 31.171875 18.339844 31.140625 18.347656 31.109375 C 18.347656 31.105469 18.347656 31.105469 18.347656 31.105469 C 18.363281 31.066406 18.375 31.035156 18.378906 31 C 18.390625 30.964844 18.402344 30.925781 18.40625 30.890625 C 18.417969 30.828125 18.421875 30.761719 18.421875 30.699219 L 18.421875 27.34375 L 20.65625 27.34375 L 20.65625 30.699219 C 20.65625 30.761719 20.660156 30.828125 20.671875 30.890625 C 20.675781 30.925781 20.6875 30.964844 20.699219 31 C 20.707031 31.035156 20.71875 31.066406 20.730469 31.105469 C 20.730469 31.105469 20.730469 31.105469 20.730469 31.109375 C 20.746094 31.140625 20.753906 31.171875 20.769531 31.203125 C 20.769531 31.207031 20.769531 31.207031 20.777344 31.207031 C 20.792969 31.246094 20.808594 31.277344 20.828125 31.300781 C 20.847656 31.339844 20.871094 31.363281 20.890625 31.394531 C 20.917969 31.425781 20.9375 31.453125 20.964844 31.480469 C 20.988281 31.503906 21.011719 31.53125 21.035156 31.558594 C 21.042969 31.558594 21.042969 31.558594 21.046875 31.5625 C 21.074219 31.582031 21.105469 31.609375 21.128906 31.628906 C 21.160156 31.652344 21.191406 31.667969 21.222656 31.6875 C 21.222656 31.6875 21.230469 31.6875 21.230469 31.6875 C 21.230469 31.691406 21.230469 31.691406 21.230469 31.691406 C 21.253906 31.703125 21.277344 31.714844 21.296875 31.722656 C 21.308594 31.730469 21.316406 31.734375 21.328125 31.738281 C 21.332031 31.738281 21.332031 31.746094 21.339844 31.746094 C 21.371094 31.753906 21.402344 31.769531 21.433594 31.78125 C 21.496094 31.796875 21.558594 31.8125 21.625 31.824219 C 21.640625 31.824219 21.660156 31.828125 21.675781 31.828125 C 21.683594 31.828125 21.691406 31.828125 21.699219 31.828125 C 21.722656 31.832031 21.75 31.832031 21.78125 31.832031 C 21.808594 31.832031 21.832031 31.832031 21.859375 31.828125 C 21.863281 31.828125 21.871094 31.828125 21.875 31.828125 C 21.894531 31.828125 21.910156 31.824219 21.933594 31.824219 C 22 31.8125 22.0625 31.796875 22.125 31.78125 C 22.15625 31.765625 22.191406 31.753906 22.222656 31.738281 C 22.222656 31.738281 22.222656 31.738281 22.230469 31.738281 C 22.230469 31.738281 22.230469 31.738281 22.234375 31.738281 C 22.265625 31.722656 22.296875 31.707031 22.328125 31.6875 C 22.328125 31.6875 22.328125 31.6875 22.332031 31.6875 C 22.394531 31.652344 22.453125 31.609375 22.511719 31.5625 C 22.515625 31.558594 22.515625 31.558594 22.515625 31.558594 C 22.542969 31.53125 22.566406 31.503906 22.59375 31.480469 C 22.621094 31.453125 22.640625 31.425781 22.667969 31.394531 C 22.6875 31.363281 22.707031 31.339844 22.730469 31.300781 C 22.75 31.277344 22.765625 31.246094 22.78125 31.207031 C 22.78125 31.207031 22.785156 31.203125 22.785156 31.203125 C 22.800781 31.171875 22.8125 31.140625 22.828125 31.109375 C 22.828125 31.109375 22.828125 31.105469 22.828125 31.105469 C 22.839844 31.066406 22.847656 31.03125 22.859375 31 C 22.871094 30.964844 22.875 30.925781 22.886719 30.890625 C 22.894531 30.828125 22.902344 30.761719 22.894531 30.699219 L 22.894531 26.402344 C 22.902344 26.378906 22.902344 26.359375 22.90625 26.34375 C 22.90625 26.324219 22.90625 26.308594 22.910156 26.292969 C 22.910156 26.269531 22.910156 26.25 22.910156 26.230469 C 22.910156 26.207031 22.910156 26.1875 22.910156 26.160156 C 22.910156 26.15625 22.910156 26.152344 22.910156 26.144531 C 22.90625 26.113281 22.902344 26.089844 22.894531 26.058594 C 22.894531 26.050781 22.894531 26.050781 22.894531 26.046875 L 22.894531 21.746094 C 22.902344 21.441406 22.78125 21.152344 22.566406 20.9375 C 22.355469 20.722656 22.0625 20.605469 21.761719 20.609375 C 21.480469 20.613281 21.207031 20.722656 21.003906 20.921875 C 20.980469 20.941406 20.953125 20.972656 20.925781 21 C 20.910156 21.019531 20.890625 21.046875 20.875 21.066406 C 20.859375 21.089844 20.847656 21.105469 20.839844 21.121094 C 20.832031 21.125 20.828125 21.136719 20.824219 21.140625 C 20.671875 21.371094 20.613281 21.644531 20.65625 21.917969 L 20.65625 25.105469 L 18.421875 25.105469 L 18.421875 21.917969 C 18.464844 21.644531 18.402344 21.371094 18.253906 21.140625 C 18.253906 21.140625 18.253906 21.136719 18.25 21.136719 C 18.238281 21.121094 18.230469 21.105469 18.21875 21.089844 C 18.214844 21.082031 18.207031 21.078125 18.203125 21.066406 C 18.1875 21.046875 18.167969 21.019531 18.152344 21 C 18.125 20.972656 18.097656 20.941406 18.074219 20.921875 C 17.871094 20.722656 17.597656 20.613281 17.316406 20.609375 Z M 27.359375 22.878906 C 25.503906 22.878906 24 24.386719 24 26.238281 C 24 28.09375 25.503906 29.59375 27.359375 29.59375 C 27.636719 29.59375 27.917969 29.558594 28.1875 29.484375 C 28.160156 29.578125 28.144531 29.6875 28.121094 29.777344 C 27.957031 30.234375 27.753906 30.511719 27.558594 30.644531 C 27.359375 30.777344 27.097656 30.871094 26.46875 30.738281 C 25.863281 30.609375 25.269531 30.996094 25.140625 31.605469 C 25.015625 32.207031 25.402344 32.800781 26.003906 32.925781 C 27.058594 33.152344 28.058594 33.003906 28.800781 32.503906 C 29.546875 32.003906 29.972656 31.253906 30.234375 30.511719 C 30.753906 29.015625 30.714844 27.359375 30.714844 26.238281 C 30.714844 26.191406 30.714844 26.152344 30.707031 26.109375 C 30.640625 24.308594 29.160156 22.878906 27.359375 22.878906 Z M 27.359375 25.121094 C 27.972656 25.121094 28.480469 25.621094 28.480469 26.238281 C 28.480469 26.855469 27.972656 27.359375 27.359375 27.359375 C 26.738281 27.359375 26.238281 26.855469 26.238281 26.238281 C 26.238281 25.621094 26.738281 25.121094 27.359375 25.121094 Z M 27.359375 25.121094 "/>
</g>
</svg>
