<?xml version="1.0" encoding="UTF-8"?>
<svg xmlns="http://www.w3.org/2000/svg" xmlns:xlink="http://www.w3.org/1999/xlink" width="48pt" height="48pt" viewBox="0 0 48 48" version="1.1">
<g id="surface1">
<path style=" stroke:none;fill-rule:evenodd;fill:rgb(99.607843%,75.294118%,2.352941%);fill-opacity:1;" d="M 11.207031 2.847656 L 36.792969 2.847656 C 41.40625 2.847656 45.152344 6.59375 45.152344 11.207031 L 45.152344 36.792969 C 45.152344 41.40625 41.40625 45.152344 36.792969 45.152344 L 11.207031 45.152344 C 6.59375 45.152344 2.847656 41.40625 2.847656 36.792969 L 2.847656 11.207031 C 2.847656 6.59375 6.59375 2.847656 11.207031 2.847656 Z M 11.207031 2.847656 "/>
<path style=" stroke:none;fill-rule:nonzero;fill:rgb(100%,100%,100%);fill-opacity:1;" d="M 24 12.84375 L 17.625 23.46875 L 9.128906 12.84375 L 10.1875 35.15625 L 37.808594 35.15625 L 38.871094 12.84375 L 30.375 23.46875 Z M 24 12.84375 "/>
<path style=" stroke:none;fill-rule:nonzero;fill:rgb(90.980392%,17.647059%,17.647059%);fill-opacity:1;" d="M 32.5 27.71875 L 34.09375 25.59375 L 35.6875 27.71875 L 34.09375 29.84375 Z M 32.5 27.71875 "/>
<path style=" stroke:none;fill-rule:nonzero;fill:rgb(90.980392%,17.647059%,17.647059%);fill-opacity:1;" d="M 21.875 27.511719 L 24 24.324219 L 26.125 27.511719 L 24 30.699219 Z M 21.875 27.511719 "/>
<path style=" stroke:none;fill-rule:nonzero;fill:rgb(90.980392%,17.647059%,17.647059%);fill-opacity:1;" d="M 12.316406 27.71875 L 13.910156 25.59375 L 15.503906 27.71875 L 13.910156 29.84375 Z M 12.316406 27.71875 "/>
</g>
</svg>
