<?xml version="1.0" encoding="UTF-8"?>
<svg xmlns="http://www.w3.org/2000/svg" xmlns:xlink="http://www.w3.org/1999/xlink" width="48pt" height="48pt" viewBox="0 0 48 48" version="1.1">
<g id="surface1">
<path style=" stroke:none;fill-rule:evenodd;fill:rgb(55.686275%,55.686275%,55.686275%);fill-opacity:1;" d="M 11.207031 2.847656 L 36.792969 2.847656 C 41.40625 2.847656 45.152344 6.59375 45.152344 11.207031 L 45.152344 36.792969 C 45.152344 41.40625 41.40625 45.152344 36.792969 45.152344 L 11.207031 45.152344 C 6.59375 45.152344 2.847656 41.40625 2.847656 36.792969 L 2.847656 11.207031 C 2.847656 6.59375 6.59375 2.847656 11.207031 2.847656 Z M 11.207031 2.847656 "/>
<path style=" stroke:none;fill-rule:nonzero;fill:rgb(30.196078%,30.196078%,30.196078%);fill-opacity:1;" d="M 8.921875 30.3125 L 20.84375 30.3125 C 21.8125 30.3125 22.597656 31.097656 22.597656 32.066406 L 22.597656 36.972656 C 22.597656 37.941406 21.8125 38.730469 20.84375 38.730469 L 8.921875 38.730469 C 7.953125 38.730469 7.167969 37.941406 7.167969 36.972656 L 7.167969 32.066406 C 7.167969 31.097656 7.953125 30.3125 8.921875 30.3125 Z M 8.921875 30.3125 "/>
<path style=" stroke:none;fill-rule:nonzero;fill:rgb(30.196078%,30.196078%,30.196078%);fill-opacity:1;" d="M 27.15625 30.3125 L 39.078125 30.3125 C 40.046875 30.3125 40.832031 31.097656 40.832031 32.066406 L 40.832031 36.972656 C 40.832031 37.941406 40.046875 38.730469 39.078125 38.730469 L 27.15625 38.730469 C 26.1875 38.730469 25.402344 37.941406 25.402344 36.972656 L 25.402344 32.066406 C 25.402344 31.097656 26.1875 30.3125 27.15625 30.3125 Z M 27.15625 30.3125 "/>
<path style=" stroke:none;fill-rule:nonzero;fill:rgb(30.196078%,30.196078%,30.196078%);fill-opacity:1;" d="M 35.222656 9.269531 L 40.832031 9.269531 L 40.832031 10.671875 L 35.222656 10.671875 Z M 35.222656 9.269531 "/>
<path style=" stroke:none;fill-rule:nonzero;fill:rgb(30.196078%,30.196078%,30.196078%);fill-opacity:1;" d="M 35.222656 12.078125 L 40.832031 12.078125 L 40.832031 13.480469 L 35.222656 13.480469 Z M 35.222656 12.078125 "/>
<path style=" stroke:none;fill-rule:nonzero;fill:rgb(30.196078%,30.196078%,30.196078%);fill-opacity:1;" d="M 35.222656 14.878906 L 40.832031 14.878906 L 40.832031 16.285156 L 35.222656 16.285156 Z M 35.222656 14.878906 "/>
<path style=" stroke:none;fill-rule:nonzero;fill:rgb(30.196078%,30.196078%,30.196078%);fill-opacity:1;" d="M 35.222656 17.6875 L 40.832031 17.6875 L 40.832031 19.089844 L 35.222656 19.089844 Z M 35.222656 17.6875 "/>
<path style=" stroke:none;fill-rule:nonzero;fill:rgb(30.196078%,30.196078%,30.196078%);fill-opacity:1;" d="M 35.222656 20.496094 L 40.832031 20.496094 L 40.832031 21.894531 L 35.222656 21.894531 Z M 35.222656 20.496094 "/>
<path style=" stroke:none;fill-rule:nonzero;fill:rgb(30.196078%,30.196078%,30.196078%);fill-opacity:1;" d="M 35.222656 23.296875 L 40.832031 23.296875 L 40.832031 24.703125 L 35.222656 24.703125 Z M 35.222656 23.296875 "/>
</g>
</svg>
