<?xml version="1.0" encoding="UTF-8"?>
<svg xmlns="http://www.w3.org/2000/svg" xmlns:xlink="http://www.w3.org/1999/xlink" width="48pt" height="48pt" viewBox="0 0 48 48" version="1.1">
<g id="surface1">
<path style=" stroke:none;fill-rule:evenodd;fill:rgb(31.764706%,50.588235%,25.098039%);fill-opacity:1;" d="M 11.207031 2.847656 L 36.792969 2.847656 C 41.40625 2.847656 45.152344 6.59375 45.152344 11.207031 L 45.152344 36.792969 C 45.152344 41.40625 41.40625 45.152344 36.792969 45.152344 L 11.207031 45.152344 C 6.59375 45.152344 2.847656 41.40625 2.847656 36.792969 L 2.847656 11.207031 C 2.847656 6.59375 6.59375 2.847656 11.207031 2.847656 Z M 11.207031 2.847656 "/>
<path style=" stroke:none;fill-rule:nonzero;fill:rgb(38.431373%,61.176471%,30.196078%);fill-opacity:1;" d="M 19.589844 8.550781 L 28.410156 8.550781 L 28.410156 11.863281 L 19.589844 11.863281 Z M 19.589844 8.550781 "/>
<path style=" stroke:none;fill-rule:nonzero;fill:rgb(63.529412%,83.137255%,44.313725%);fill-opacity:1;" d="M 13.480469 10.761719 L 34.519531 10.761719 C 35.410156 10.761719 36.136719 11.515625 36.136719 12.449219 L 36.136719 37.761719 C 36.136719 38.691406 35.410156 39.449219 34.519531 39.449219 L 13.480469 39.449219 C 12.589844 39.449219 11.863281 38.691406 11.863281 37.761719 L 11.863281 12.449219 C 11.863281 11.515625 12.589844 10.761719 13.480469 10.761719 Z M 13.480469 10.761719 "/>
<path style=" stroke:none;fill-rule:nonzero;fill:rgb(54.117647%,72.941176%,32.156863%);fill-opacity:1;" d="M 11.25 9.65625 L 36.75 9.65625 C 37.628906 9.65625 38.34375 10.394531 38.34375 11.3125 L 38.34375 14.621094 C 38.34375 15.535156 37.628906 16.277344 36.75 16.277344 L 11.25 16.277344 C 10.371094 16.277344 9.65625 15.535156 9.65625 14.621094 L 9.65625 11.3125 C 9.65625 10.394531 10.371094 9.65625 11.25 9.65625 Z M 11.25 9.65625 "/>
<path style=" stroke:none;fill-rule:nonzero;fill:rgb(54.117647%,72.941176%,32.156863%);fill-opacity:1;" d="M 22.894531 20.6875 L 25.105469 20.6875 C 25.714844 20.6875 26.207031 21.035156 26.207031 21.464844 L 26.207031 35.363281 C 26.207031 35.792969 25.714844 36.136719 25.105469 36.136719 L 22.894531 36.136719 C 22.285156 36.136719 21.792969 35.792969 21.792969 35.363281 L 21.792969 21.464844 C 21.792969 21.035156 22.285156 20.6875 22.894531 20.6875 Z M 22.894531 20.6875 "/>
<path style=" stroke:none;fill-rule:nonzero;fill:rgb(54.117647%,72.941176%,32.156863%);fill-opacity:1;" d="M 16.277344 20.6875 L 18.484375 20.6875 C 19.09375 20.6875 19.589844 21.035156 19.589844 21.464844 L 19.589844 35.363281 C 19.589844 35.792969 19.09375 36.136719 18.484375 36.136719 L 16.277344 36.136719 C 15.667969 36.136719 15.171875 35.792969 15.171875 35.363281 L 15.171875 21.464844 C 15.171875 21.035156 15.667969 20.6875 16.277344 20.6875 Z M 16.277344 20.6875 "/>
<path style=" stroke:none;fill-rule:nonzero;fill:rgb(54.117647%,72.941176%,32.156863%);fill-opacity:1;" d="M 29.515625 20.6875 L 31.722656 20.6875 C 32.332031 20.6875 32.828125 21.035156 32.828125 21.464844 L 32.828125 35.363281 C 32.828125 35.792969 32.332031 36.136719 31.722656 36.136719 L 29.515625 36.136719 C 28.90625 36.136719 28.410156 35.792969 28.410156 35.363281 L 28.410156 21.464844 C 28.410156 21.035156 28.90625 20.6875 29.515625 20.6875 Z M 29.515625 20.6875 "/>
<path style=" stroke:none;fill-rule:nonzero;fill:rgb(54.117647%,72.941176%,32.156863%);fill-opacity:1;" d="M 19.589844 8.550781 L 28.410156 8.550781 L 28.410156 9.65625 L 19.589844 9.65625 Z M 19.589844 8.550781 "/>
</g>
</svg>
