<?xml version="1.0" encoding="UTF-8"?>
<svg xmlns="http://www.w3.org/2000/svg" xmlns:xlink="http://www.w3.org/1999/xlink" width="48pt" height="48pt" viewBox="0 0 48 48" version="1.1">
<g id="surface1">
<path style=" stroke:none;fill-rule:evenodd;fill:rgb(0%,50.588235%,80%);fill-opacity:1;" d="M 11.207031 2.847656 L 36.792969 2.847656 C 41.40625 2.847656 45.152344 6.59375 45.152344 11.207031 L 45.152344 36.792969 C 45.152344 41.40625 41.40625 45.152344 36.792969 45.152344 L 11.207031 45.152344 C 6.59375 45.152344 2.847656 41.40625 2.847656 36.792969 L 2.847656 11.207031 C 2.847656 6.59375 6.59375 2.847656 11.207031 2.847656 Z M 11.207031 2.847656 "/>
<path style=" stroke:none;fill-rule:nonzero;fill:rgb(100%,100%,100%);fill-opacity:1;" d="M 11.125 10.238281 L 18.984375 10.238281 C 20.613281 10.238281 21.9375 11.558594 21.9375 13.1875 L 21.9375 34.8125 C 21.9375 36.441406 20.613281 37.761719 18.984375 37.761719 L 11.125 37.761719 C 9.496094 37.761719 8.171875 36.441406 8.171875 34.8125 L 8.171875 13.1875 C 8.171875 11.558594 9.496094 10.238281 11.125 10.238281 Z M 11.125 10.238281 "/>
<path style=" stroke:none;fill-rule:nonzero;fill:rgb(100%,100%,100%);fill-opacity:1;" d="M 29.015625 10.238281 L 36.875 10.238281 C 38.503906 10.238281 39.828125 11.394531 39.828125 12.816406 L 39.828125 21.421875 C 39.828125 22.84375 38.503906 24 36.875 24 L 29.015625 24 C 27.386719 24 26.0625 22.84375 26.0625 21.421875 L 26.0625 12.816406 C 26.0625 11.394531 27.386719 10.238281 29.015625 10.238281 Z M 29.015625 10.238281 "/>
</g>
</svg>
