<?xml version="1.0" encoding="UTF-8"?>
<svg xmlns="http://www.w3.org/2000/svg" xmlns:xlink="http://www.w3.org/1999/xlink" width="48pt" height="48pt" viewBox="0 0 48 48" version="1.1">
<g id="surface1">
<path style=" stroke:none;fill-rule:evenodd;fill:rgb(63.921569%,16.862745%,34.509804%);fill-opacity:1;" d="M 11.207031 2.847656 L 36.792969 2.847656 C 41.40625 2.847656 45.152344 6.59375 45.152344 11.207031 L 45.152344 36.792969 C 45.152344 41.40625 41.40625 45.152344 36.792969 45.152344 L 11.207031 45.152344 C 6.59375 45.152344 2.847656 41.40625 2.847656 36.792969 L 2.847656 11.207031 C 2.847656 6.59375 6.59375 2.847656 11.207031 2.847656 Z M 11.207031 2.847656 "/>
<path style=" stroke:none;fill-rule:nonzero;fill:rgb(95.294118%,67.058824%,43.529412%);fill-opacity:1;" d="M 29.25 21 C 24.28125 21 20.25 25.03125 20.25 30 C 20.25 34.96875 24.28125 39 29.25 39 C 34.21875 39 38.25 34.96875 38.25 30 C 38.25 25.03125 34.21875 21 29.25 21 Z M 30 22.5 C 33.730469 22.5 36.75 25.519531 36.75 29.25 C 36.75 32.980469 33.730469 36 30 36 C 26.269531 36 23.25 32.980469 23.25 29.25 C 23.25 25.519531 26.269531 22.5 30 22.5 Z M 30 22.5 "/>
<path style=" stroke:none;fill-rule:nonzero;fill:rgb(96.862745%,76.470588%,60.392157%);fill-opacity:1;" d="M 38.25 27 C 38.25 29.484375 36.234375 31.5 33.75 31.5 C 31.265625 31.5 29.25 29.484375 29.25 27 C 29.25 24.515625 31.265625 22.5 33.75 22.5 C 36.234375 22.5 38.25 24.515625 38.25 27 Z M 38.25 27 "/>
<path style=" stroke:none;fill-rule:nonzero;fill:rgb(95.294118%,67.058824%,43.529412%);fill-opacity:1;" d="M 18.75 9 C 13.78125 9 9.75 13.03125 9.75 18 C 9.75 22.96875 13.78125 27 18.75 27 C 23.71875 27 27.75 22.96875 27.75 18 C 27.75 13.03125 23.71875 9 18.75 9 Z M 19.5 10.5 C 23.230469 10.5 26.25 13.519531 26.25 17.25 C 26.25 20.980469 23.230469 24 19.5 24 C 15.769531 24 12.75 20.980469 12.75 17.25 C 12.75 13.519531 15.769531 10.5 19.5 10.5 Z M 19.5 10.5 "/>
<path style=" stroke:none;fill-rule:nonzero;fill:rgb(96.862745%,76.470588%,60.392157%);fill-opacity:1;" d="M 27.75 15 C 27.75 17.484375 25.734375 19.5 23.25 19.5 C 20.765625 19.5 18.75 17.484375 18.75 15 C 18.75 12.515625 20.765625 10.5 23.25 10.5 C 25.734375 10.5 27.75 12.515625 27.75 15 Z M 27.75 15 "/>
</g>
</svg>
