<?xml version="1.0" encoding="UTF-8"?>
<svg xmlns="http://www.w3.org/2000/svg" xmlns:xlink="http://www.w3.org/1999/xlink" width="48pt" height="48pt" viewBox="0 0 48 48" version="1.1">
<g id="surface1">
<path style=" stroke:none;fill-rule:evenodd;fill:rgb(90.196078%,90.196078%,90.196078%);fill-opacity:1;" d="M 11.207031 2.847656 L 36.792969 2.847656 C 41.40625 2.847656 45.152344 6.59375 45.152344 11.207031 L 45.152344 36.792969 C 45.152344 41.40625 41.40625 45.152344 36.792969 45.152344 L 11.207031 45.152344 C 6.59375 45.152344 2.847656 41.40625 2.847656 36.792969 L 2.847656 11.207031 C 2.847656 6.59375 6.59375 2.847656 11.207031 2.847656 Z M 11.207031 2.847656 "/>
<path style=" stroke:none;fill-rule:nonzero;fill:rgb(31.372549%,58.431373%,67.058824%);fill-opacity:1;" d="M 23.980469 8.332031 C 20.972656 8.332031 18.378906 11.128906 18.378906 14.597656 C 18.378906 22.433594 13.90625 23.21875 13.90625 28.699219 C 13.90625 34.753906 18.417969 39.667969 23.980469 39.667969 C 29.542969 39.667969 34.046875 34.753906 34.046875 28.699219 C 34.046875 23.21875 29.574219 22.433594 29.574219 14.597656 C 29.574219 11.128906 26.980469 8.332031 23.980469 8.332031 Z M 23.980469 8.332031 "/>
<path style=" stroke:none;fill-rule:nonzero;fill:rgb(100%,100%,100%);fill-opacity:1;" d="M 23.980469 17.285156 C 21.972656 17.285156 20.621094 18.984375 20.621094 21.089844 C 20.621094 25.84375 17.261719 26.324219 17.261719 29.652344 C 17.261719 33.328125 20.269531 36.308594 23.980469 36.308594 C 27.6875 36.308594 30.691406 33.328125 30.691406 29.652344 C 30.691406 26.324219 27.332031 25.84375 27.332031 21.089844 C 27.332031 18.984375 25.980469 17.285156 23.980469 17.285156 Z M 23.980469 17.285156 "/>
<path style=" stroke:none;fill-rule:nonzero;fill:rgb(91.764706%,69.411765%,3.137255%);fill-opacity:1;" d="M 18.964844 39.644531 C 18.625 39.589844 18.328125 39.488281 17.671875 39.207031 C 16.699219 38.785156 16.246094 38.652344 14.46875 38.246094 C 13.578125 38.042969 13.246094 37.953125 12.480469 37.703125 C 12.199219 37.613281 11.824219 37.496094 11.644531 37.449219 C 11.167969 37.308594 11.042969 37.253906 10.863281 37.113281 C 10.625 36.925781 10.515625 36.636719 10.558594 36.3125 C 10.582031 36.105469 10.65625 35.90625 10.859375 35.488281 C 11.125 34.933594 11.785156 34.730469 11.828125 34.175781 C 11.855469 33.855469 11.832031 33.488281 11.75 32.734375 C 11.703125 32.285156 11.691406 32.121094 11.6875 31.832031 C 11.6875 31.527344 11.691406 31.738281 11.722656 31.621094 C 11.84375 31.175781 11.9375 30.921875 12.359375 30.8125 C 12.484375 30.777344 12.222656 30.777344 12.800781 30.761719 C 13.160156 30.75 13.371094 30.746094 13.410156 30.730469 C 13.660156 30.671875 13.84375 30.582031 14.011719 30.421875 C 14.171875 30.265625 14.28125 29.441406 14.488281 29.066406 C 14.816406 28.488281 15.464844 28.5 15.988281 28.472656 C 16.136719 28.503906 16.1875 28.527344 16.347656 28.621094 C 16.515625 28.71875 16.5625 28.753906 16.703125 28.90625 C 17.0625 29.292969 17.234375 29.527344 18.042969 30.746094 C 18.675781 31.714844 18.875 32.027344 19.128906 32.480469 C 19.410156 32.972656 19.917969 33.765625 20.105469 34.003906 C 20.136719 34.046875 20.332031 34.296875 20.535156 34.558594 C 20.746094 34.816406 20.933594 35.0625 20.957031 35.097656 C 21.34375 35.640625 21.613281 36.261719 21.714844 36.878906 C 21.746094 37.09375 21.746094 37.128906 21.730469 37.378906 C 21.703125 37.691406 21.683594 37.828125 21.652344 37.894531 C 21.636719 37.921875 21.605469 38 21.582031 38.0625 C 21.285156 38.886719 20.550781 39.503906 19.699219 39.644531 C 19.515625 39.675781 19.15625 39.675781 18.964844 39.644531 Z M 18.964844 39.644531 "/>
<path style=" stroke:none;fill-rule:nonzero;fill:rgb(91.764706%,69.411765%,3.137255%);fill-opacity:1;" d="M 32.046875 39.269531 C 32.308594 39.089844 32.511719 38.886719 32.9375 38.390625 C 33.566406 37.65625 33.550781 37.363281 34.859375 36.308594 C 35.511719 35.78125 35.75 35.574219 36.285156 35.058594 C 36.480469 34.871094 36.738281 34.625 36.863281 34.511719 C 37.207031 34.207031 37.292969 34.109375 37.378906 33.925781 C 37.5 33.675781 37.46875 33.394531 37.300781 33.152344 C 37.191406 32.996094 37.046875 32.863281 36.707031 32.605469 C 36.253906 32.261719 36.125 31.96875 35.863281 31.535156 C 35.707031 31.285156 35.910156 30.644531 35.667969 30 C 35.519531 29.613281 35.457031 29.480469 35.34375 29.246094 C 35.214844 28.996094 35.1875 28.953125 35.113281 28.871094 C 34.828125 28.558594 34.515625 28.453125 34.113281 28.535156 C 34 28.5625 33.933594 28.589844 33.453125 28.816406 C 33.152344 28.953125 32.878906 29.074219 32.839844 29.082031 C 32.609375 29.140625 32.421875 29.136719 32.214844 29.074219 C 32.015625 29.015625 31.859375 29.425781 31.53125 29.207031 C 31.308594 29.0625 31.066406 28.875 30.894531 28.828125 C 30.65625 28.765625 30.65625 28.765625 30.433594 28.785156 C 30.214844 28.8125 30.058594 28.875 29.878906 29.015625 C 29.769531 29.097656 29.738281 29.136719 29.640625 29.28125 C 29.542969 29.421875 29.519531 29.472656 29.464844 29.652344 C 29.328125 30.109375 29.28125 30.371094 29.121094 31.6875 C 28.988281 32.730469 28.957031 33.0625 28.933594 33.535156 C 28.90625 34.046875 28.816406 34.894531 28.761719 35.167969 C 28.75 35.214844 28.691406 35.496094 28.628906 35.792969 C 28.566406 36.082031 28.511719 36.359375 28.503906 36.402344 C 28.410156 36.996094 28.441406 37.609375 28.621094 38.144531 C 28.683594 38.339844 28.699219 38.363281 28.8125 38.558594 C 28.964844 38.800781 29.035156 38.90625 29.09375 38.949219 C 29.113281 38.964844 29.171875 39.011719 29.21875 39.050781 C 29.800781 39.597656 30.671875 39.800781 31.4375 39.566406 C 31.597656 39.515625 31.902344 39.371094 32.046875 39.265625 Z M 32.046875 39.269531 "/>
<path style=" stroke:none;fill-rule:nonzero;fill:rgb(100%,100%,100%);fill-opacity:1;" d="M 23.980469 13.925781 C 23.980469 15.167969 22.972656 16.167969 21.738281 16.167969 C 20.503906 16.167969 19.5 15.167969 19.5 13.925781 C 19.5 12.691406 20.503906 11.6875 21.738281 11.6875 C 22.972656 11.6875 23.980469 12.691406 23.980469 13.925781 Z M 23.980469 13.925781 "/>
<path style=" stroke:none;fill-rule:nonzero;fill:rgb(19.607843%,19.607843%,19.607843%);fill-opacity:1;" d="M 22.859375 13.925781 C 22.859375 14.546875 22.359375 15.046875 21.738281 15.046875 C 21.121094 15.046875 20.621094 14.546875 20.621094 13.925781 C 20.621094 13.3125 21.121094 12.808594 21.738281 12.808594 C 22.359375 12.808594 22.859375 13.3125 22.859375 13.925781 Z M 22.859375 13.925781 "/>
<path style=" stroke:none;fill-rule:nonzero;fill:rgb(96.862745%,49.019608%,0%);fill-opacity:1;" d="M 27.332031 16.722656 C 27.332031 18.890625 25.832031 20.640625 23.980469 20.640625 C 22.125 20.640625 20.621094 18.890625 20.621094 16.722656 Z M 27.332031 16.722656 "/>
<path style=" stroke:none;fill-rule:nonzero;fill:rgb(100%,100%,100%);fill-opacity:1;" d="M 28.453125 13.925781 C 28.453125 15.167969 27.453125 16.167969 26.214844 16.167969 C 24.980469 16.167969 23.980469 15.167969 23.980469 13.925781 C 23.980469 12.691406 24.980469 11.6875 26.214844 11.6875 C 27.453125 11.6875 28.453125 12.691406 28.453125 13.925781 Z M 28.453125 13.925781 "/>
<path style=" stroke:none;fill-rule:nonzero;fill:rgb(19.607843%,19.607843%,19.607843%);fill-opacity:1;" d="M 27.332031 13.925781 C 27.332031 14.546875 26.832031 15.046875 26.214844 15.046875 C 25.597656 15.046875 25.09375 14.546875 25.09375 13.925781 C 25.09375 13.3125 25.597656 12.808594 26.214844 12.808594 C 26.832031 12.808594 27.332031 13.3125 27.332031 13.925781 Z M 27.332031 13.925781 "/>
<path style=" stroke:none;fill-rule:nonzero;fill:rgb(91.764706%,69.411765%,3.137255%);fill-opacity:1;" d="M 27.332031 16.910156 C 27.332031 17.285156 25.832031 19.527344 23.980469 19.527344 C 22.125 19.527344 20.621094 17.285156 20.621094 16.910156 C 20.621094 15.878906 22.125 15.046875 23.980469 15.046875 C 25.832031 15.046875 27.332031 15.878906 27.332031 16.910156 Z M 27.332031 16.910156 "/>
<path style=" stroke:none;fill-rule:nonzero;fill:rgb(31.372549%,58.431373%,67.058824%);fill-opacity:1;" d="M 32.316406 31.886719 C 31.027344 31.886719 31.015625 30.816406 30.761719 29.550781 C 30.472656 28.152344 30.292969 27.339844 32.53125 27.21875 C 34.472656 26.582031 34.777344 31.8125 32.316406 31.886719 Z M 32.316406 31.886719 "/>
</g>
</svg>
