<?xml version="1.0" encoding="UTF-8"?>
<svg xmlns="http://www.w3.org/2000/svg" xmlns:xlink="http://www.w3.org/1999/xlink" width="48pt" height="48pt" viewBox="0 0 48 48" version="1.1">
<g id="surface1">
<path style=" stroke:none;fill-rule:evenodd;fill:rgb(55.686275%,55.686275%,55.686275%);fill-opacity:1;" d="M 11.207031 2.847656 L 36.792969 2.847656 C 41.40625 2.847656 45.152344 6.59375 45.152344 11.207031 L 45.152344 36.792969 C 45.152344 41.40625 41.40625 45.152344 36.792969 45.152344 L 11.207031 45.152344 C 6.59375 45.152344 2.847656 41.40625 2.847656 36.792969 L 2.847656 11.207031 C 2.847656 6.59375 6.59375 2.847656 11.207031 2.847656 Z M 11.207031 2.847656 "/>
<path style=" stroke:none;fill-rule:nonzero;fill:rgb(27.843137%,27.843137%,27.843137%);fill-opacity:1;" d="M 13.640625 11.605469 C 10.921875 11.605469 8.730469 13.796875 8.730469 16.519531 L 8.730469 29.550781 C 8.730469 32.277344 10.921875 34.46875 13.640625 34.46875 L 16.296875 34.46875 C 16.519531 36.136719 17.925781 37.417969 19.65625 37.417969 L 28.34375 37.417969 C 30.074219 37.417969 31.480469 36.136719 31.703125 34.46875 L 34.359375 34.46875 C 37.078125 34.46875 39.269531 32.277344 39.269531 29.550781 L 39.269531 16.519531 C 39.269531 13.796875 37.078125 11.605469 34.359375 11.605469 Z M 13.640625 11.605469 "/>
<path style=" stroke:none;fill-rule:nonzero;fill:rgb(13.72549%,13.72549%,13.72549%);fill-opacity:1;" d="M 13.824219 13.050781 L 34.175781 13.050781 C 36.230469 13.050781 37.894531 14.652344 37.894531 16.625 L 37.894531 29.449219 C 37.894531 31.421875 36.230469 33.019531 34.175781 33.019531 L 13.824219 33.019531 C 11.769531 33.019531 10.105469 31.421875 10.105469 29.449219 L 10.105469 16.625 C 10.105469 14.652344 11.769531 13.050781 13.824219 13.050781 Z M 13.824219 13.050781 "/>
</g>
</svg>
