<?xml version="1.0" encoding="UTF-8"?>
<svg xmlns="http://www.w3.org/2000/svg" xmlns:xlink="http://www.w3.org/1999/xlink" width="48pt" height="48pt" viewBox="0 0 48 48" version="1.1">
<g id="surface1">
<path style=" stroke:none;fill-rule:evenodd;fill:rgb(32.941176%,67.058824%,92.941176%);fill-opacity:1;" d="M 11.207031 2.847656 L 36.792969 2.847656 C 41.40625 2.847656 45.152344 6.59375 45.152344 11.207031 L 45.152344 36.792969 C 45.152344 41.40625 41.40625 45.152344 36.792969 45.152344 L 11.207031 45.152344 C 6.59375 45.152344 2.847656 41.40625 2.847656 36.792969 L 2.847656 11.207031 C 2.847656 6.59375 6.59375 2.847656 11.207031 2.847656 Z M 11.207031 2.847656 "/>
<path style=" stroke:none;fill-rule:nonzero;fill:rgb(100%,100%,100%);fill-opacity:1;" d="M 9.375 11.972656 C 8.40625 11.972656 7.625 12.746094 7.625 13.707031 L 7.625 34.238281 C 7.625 35.199219 8.40625 35.90625 9.375 35.90625 L 20.21875 35.90625 L 24 39.6875 L 27.78125 35.90625 L 38.625 35.90625 C 39.59375 35.90625 40.375 35.199219 40.375 34.238281 L 40.375 13.707031 C 40.375 12.746094 39.59375 11.972656 38.625 11.972656 Z M 9.375 11.972656 "/>
<path style=" stroke:none;fill-rule:nonzero;fill:rgb(32.941176%,67.058824%,92.941176%);fill-opacity:1;" d="M 34.078125 17.6875 C 33.332031 18.015625 32.535156 18.238281 31.703125 18.339844 C 32.558594 17.828125 33.214844 17.015625 33.519531 16.050781 C 32.71875 16.527344 31.839844 16.871094 30.894531 17.058594 C 30.140625 16.25 29.066406 15.75 27.875 15.75 C 25.59375 15.75 23.738281 17.597656 23.738281 19.886719 C 23.738281 20.207031 23.777344 20.527344 23.847656 20.828125 C 20.410156 20.65625 17.363281 19.011719 15.328125 16.503906 C 14.96875 17.113281 14.765625 17.828125 14.765625 18.582031 C 14.765625 20.019531 15.496094 21.285156 16.605469 22.027344 C 15.925781 22.003906 15.292969 21.816406 14.734375 21.511719 C 14.734375 21.527344 14.734375 21.542969 14.734375 21.5625 C 14.734375 23.5625 16.15625 25.234375 18.046875 25.613281 C 17.703125 25.707031 17.339844 25.761719 16.957031 25.761719 C 16.691406 25.761719 16.433594 25.734375 16.183594 25.6875 C 16.707031 27.328125 18.234375 28.527344 20.046875 28.558594 C 18.628906 29.667969 16.847656 30.328125 14.910156 30.328125 C 14.574219 30.328125 14.246094 30.308594 13.921875 30.269531 C 15.753906 31.441406 17.925781 32.128906 20.261719 32.128906 C 27.871094 32.128906 32.027344 25.828125 32.027344 20.363281 C 32.027344 20.183594 32.019531 20.003906 32.015625 19.828125 C 32.824219 19.246094 33.527344 18.515625 34.078125 17.6875 "/>
</g>
</svg>
