<?xml version="1.0" encoding="UTF-8"?>
<svg xmlns="http://www.w3.org/2000/svg" xmlns:xlink="http://www.w3.org/1999/xlink" width="48pt" height="48pt" viewBox="0 0 48 48" version="1.1">
<g id="surface1">
<path style=" stroke:none;fill-rule:evenodd;fill:rgb(49.411765%,77.647059%,22.352941%);fill-opacity:1;" d="M 11.207031 2.847656 L 36.792969 2.847656 C 41.40625 2.847656 45.152344 6.59375 45.152344 11.207031 L 45.152344 36.792969 C 45.152344 41.40625 41.40625 45.152344 36.792969 45.152344 L 11.207031 45.152344 C 6.59375 45.152344 2.847656 41.40625 2.847656 36.792969 L 2.847656 11.207031 C 2.847656 6.59375 6.59375 2.847656 11.207031 2.847656 Z M 11.207031 2.847656 "/>
<path style=" stroke:none;fill-rule:nonzero;fill:rgb(30.196078%,30.196078%,30.196078%);fill-opacity:1;" d="M 36.4375 22.5 C 36.046875 19.4375 34.496094 16.644531 32.097656 14.703125 C 31.609375 14.886719 31.09375 15 30.546875 15 C 28.65625 15 27.035156 13.808594 26.371094 12.144531 C 25.765625 12.050781 25.15625 12 24.546875 12 C 22.949219 12 21.363281 12.316406 19.890625 12.941406 L 22.171875 16.894531 C 22.9375 16.636719 23.738281 16.503906 24.546875 16.5 C 28.105469 16.503906 31.171875 19.011719 31.886719 22.5 Z M 36.4375 25.5 L 31.890625 25.5 C 31.183594 28.988281 28.109375 31.5 24.546875 31.5 C 23.738281 31.5 22.9375 31.363281 22.171875 31.109375 L 19.894531 35.050781 C 21.363281 35.671875 22.949219 35.996094 24.546875 36 C 25.15625 35.996094 25.769531 35.941406 26.375 35.84375 C 27.042969 34.1875 28.660156 33 30.546875 33 C 31.09375 33 31.613281 33.113281 32.105469 33.296875 C 34.496094 31.355469 36.046875 28.5625 36.4375 25.5 Z M 33.546875 10.5 C 33.546875 8.84375 32.203125 7.5 30.546875 7.5 C 28.890625 7.5 27.546875 8.84375 27.546875 10.5 C 27.546875 12.15625 28.890625 13.5 30.546875 13.5 C 32.203125 13.5 33.546875 12.15625 33.546875 10.5 Z M 33.546875 37.5 C 33.546875 35.84375 32.203125 34.5 30.546875 34.5 C 28.890625 34.5 27.546875 35.84375 27.546875 37.5 C 27.546875 39.15625 28.890625 40.5 30.546875 40.5 C 32.203125 40.5 33.546875 39.15625 33.546875 37.5 Z M 19.578125 18.394531 L 17.300781 14.453125 C 15.128906 16.097656 13.589844 18.433594 12.921875 21.074219 C 13.609375 21.859375 14.046875 22.878906 14.046875 24 C 14.046875 25.121094 13.613281 26.136719 12.925781 26.925781 C 13.589844 29.566406 15.128906 31.90625 17.296875 33.550781 L 19.578125 29.609375 C 17.96875 28.1875 17.046875 26.144531 17.046875 24 C 17.046875 21.855469 17.96875 19.816406 19.578125 18.394531 Z M 12.546875 24 C 12.546875 22.34375 11.203125 21 9.546875 21 C 7.890625 21 6.546875 22.34375 6.546875 24 C 6.546875 25.65625 7.890625 27 9.546875 27 C 11.203125 27 12.546875 25.65625 12.546875 24 Z M 12.546875 24 "/>
<path style=" stroke:none;fill-rule:nonzero;fill:rgb(30.196078%,30.196078%,30.196078%);fill-opacity:1;" d="M 23.046875 18 L 22.910156 19.578125 C 22.410156 19.765625 21.949219 20.035156 21.535156 20.375 L 20.097656 19.703125 L 18.597656 22.296875 L 19.902344 23.203125 C 19.855469 23.46875 19.832031 23.734375 19.828125 24 C 19.832031 24.265625 19.855469 24.535156 19.902344 24.796875 L 18.597656 25.703125 L 20.097656 28.296875 L 21.53125 27.625 C 21.941406 27.964844 22.410156 28.234375 22.910156 28.417969 L 23.046875 30 L 26.046875 30 L 26.175781 28.421875 C 26.675781 28.234375 27.144531 27.964844 27.558594 27.625 L 28.988281 28.296875 L 30.488281 25.703125 L 29.1875 24.796875 C 29.234375 24.53125 29.253906 24.265625 29.261719 24 C 29.261719 23.734375 29.234375 23.464844 29.191406 23.203125 L 30.488281 22.296875 L 28.988281 19.703125 L 27.558594 20.375 C 27.144531 20.035156 26.675781 19.765625 26.175781 19.582031 L 26.046875 18 Z M 24.546875 22.285156 C 25.488281 22.285156 26.261719 23.050781 26.261719 24 C 26.261719 24.949219 25.488281 25.714844 24.546875 25.714844 C 23.597656 25.714844 22.832031 24.949219 22.828125 24 C 22.832031 23.050781 23.597656 22.285156 24.546875 22.285156 Z M 24.546875 22.285156 "/>
</g>
</svg>
