<?xml version="1.0" encoding="UTF-8"?>
<svg xmlns="http://www.w3.org/2000/svg" xmlns:xlink="http://www.w3.org/1999/xlink" width="48pt" height="48pt" viewBox="0 0 48 48" version="1.1">
<g id="surface1">
<path style=" stroke:none;fill-rule:evenodd;fill:rgb(14.117647%,22.745098%,52.156863%);fill-opacity:1;" d="M 11.207031 2.847656 L 36.792969 2.847656 C 41.40625 2.847656 45.152344 6.59375 45.152344 11.207031 L 45.152344 36.792969 C 45.152344 41.40625 41.40625 45.152344 36.792969 45.152344 L 11.207031 45.152344 C 6.59375 45.152344 2.847656 41.40625 2.847656 36.792969 L 2.847656 11.207031 C 2.847656 6.59375 6.59375 2.847656 11.207031 2.847656 Z M 11.207031 2.847656 "/>
<path style=" stroke:none;fill-rule:nonzero;fill:rgb(100%,100%,100%);fill-opacity:1;" d="M 24.589844 37.542969 C 21.109375 37.089844 17.78125 36.0625 15.777344 34.332031 C 15.207031 33.84375 14.074219 32.65625 14.171875 32.625 C 14.5 32.6875 15.175781 32.988281 15.839844 33.003906 C 16.5 33.027344 16.847656 32.324219 17.171875 31.792969 L 17.171875 26.191406 C 17.171875 20.019531 17.316406 20.125 16.878906 19.746094 C 16.347656 19.28125 14.78125 19.425781 13.722656 20.136719 C 12.113281 21.214844 10.199219 23.605469 8.832031 26.09375 C 8.589844 26.535156 8.371094 26.917969 8.347656 26.9375 C 8.324219 26.964844 8.316406 26.484375 8.339844 25.875 C 8.390625 24.191406 8.703125 23.015625 9.558594 21.28125 C 10.339844 19.699219 10.730469 19.269531 12.394531 17.457031 C 15.15625 14.453125 17.878906 12.375 20.578125 11.21875 C 21.214844 10.949219 23.1875 10.425781 23.324219 10.425781 C 23.347656 10.425781 22.394531 10.980469 22.171875 11.140625 C 20.832031 12.121094 20.375 12.796875 20.183594 13.984375 C 20.035156 14.863281 20.535156 15.933594 20.921875 16.371094 C 21.125 16.59375 21.199219 16.628906 21.472656 16.65625 C 21.859375 16.621094 22.78125 16.457031 23.171875 16.425781 L 23.171875 30.375 C 23.171875 31.425781 23.621094 31.488281 24.667969 31.488281 C 25.722656 31.488281 26.625 30.691406 27.671875 30.011719 L 27.671875 18.261719 L 27.300781 16.917969 C 27.144531 16.363281 26.734375 15.699219 26.171875 14.925781 C 27.25 14.949219 27.933594 16.230469 28.875 16.574219 C 31.609375 14.40625 33.546875 12.644531 36.671875 11.925781 C 35.3125 14.082031 35.128906 15 33.671875 17.097656 L 33.671875 29.65625 C 33.824219 29.832031 34.605469 30.058594 34.96875 30.089844 C 37.4375 29.738281 38.03125 28.347656 39.671875 26.925781 C 39.722656 26.972656 38.402344 29.46875 37.84375 30.300781 C 36.140625 32.855469 33.691406 34.441406 31.425781 35.886719 C 31.003906 36.15625 31 36.15625 30.855469 36.035156 C 29.78125 35.550781 29.171875 35.285156 27.925781 34.34375 C 26.714844 35.5 26.125 36.347656 24.855469 37.574219 C 24.8125 37.566406 24.699219 37.550781 24.589844 37.542969 Z M 24.589844 37.542969 "/>
</g>
</svg>
