<?xml version="1.0" encoding="UTF-8"?>
<svg xmlns="http://www.w3.org/2000/svg" xmlns:xlink="http://www.w3.org/1999/xlink" width="48pt" height="48pt" viewBox="0 0 48 48" version="1.1">
<g id="surface1">
<path style=" stroke:none;fill-rule:evenodd;fill:rgb(29.803922%,34.901961%,41.176471%);fill-opacity:1;" d="M 11.207031 2.847656 L 36.792969 2.847656 C 41.40625 2.847656 45.152344 6.59375 45.152344 11.207031 L 45.152344 36.792969 C 45.152344 41.40625 41.40625 45.152344 36.792969 45.152344 L 11.207031 45.152344 C 6.59375 45.152344 2.847656 41.40625 2.847656 36.792969 L 2.847656 11.207031 C 2.847656 6.59375 6.59375 2.847656 11.207031 2.847656 Z M 11.207031 2.847656 "/>
<path style=" stroke:none;fill-rule:nonzero;fill:rgb(100%,100%,100%);fill-opacity:1;" d="M 26.3125 24 L 31.15625 15.390625 L 33.457031 24 L 31.15625 32.609375 Z M 23.953125 25.902344 L 28.796875 34.011719 L 20.359375 31.785156 L 14.265625 25.902344 Z M 28.792969 13.988281 L 23.953125 23.050781 L 14.265625 23.050781 L 20.359375 16.214844 Z M 35.707031 21 L 32.753906 9.75 L 21.722656 12.78125 L 20.09375 15.738281 L 16.78125 15.714844 L 8.707031 24 L 16.78125 32.285156 L 20.09375 32.261719 L 21.730469 35.21875 L 32.753906 38.25 L 35.707031 27 L 34.207031 24 "/>
</g>
</svg>
