<?xml version="1.0" encoding="UTF-8"?>
<svg xmlns="http://www.w3.org/2000/svg" xmlns:xlink="http://www.w3.org/1999/xlink" width="48pt" height="48pt" viewBox="0 0 48 48" version="1.1">
<g id="surface1">
<path style=" stroke:none;fill-rule:evenodd;fill:rgb(87.45098%,83.137255%,82.745098%);fill-opacity:1;" d="M 11.207031 2.847656 L 36.792969 2.847656 C 41.40625 2.847656 45.152344 6.59375 45.152344 11.207031 L 45.152344 36.792969 C 45.152344 41.40625 41.40625 45.152344 36.792969 45.152344 L 11.207031 45.152344 C 6.59375 45.152344 2.847656 41.40625 2.847656 36.792969 L 2.847656 11.207031 C 2.847656 6.59375 6.59375 2.847656 11.207031 2.847656 Z M 11.207031 2.847656 "/>
<path style=" stroke:none;fill-rule:nonzero;fill:rgb(50.588235%,20%,32.156863%);fill-opacity:1;" d="M 20.308594 39.761719 C 20.15625 39.714844 18.5625 39.058594 15.894531 37.957031 C 15.25 37.691406 14.6875 37.441406 14.652344 37.40625 C 14.609375 37.371094 14.886719 36.609375 15.269531 35.714844 L 15.964844 34.089844 L 15.660156 33.863281 C 15.496094 33.738281 14.933594 33.199219 14.402344 32.652344 L 13.441406 31.667969 L 11.847656 32.339844 C 10.972656 32.707031 10.222656 32.980469 10.183594 32.941406 C 10.089844 32.855469 8.714844 29.546875 8.714844 29.410156 C 8.714844 29.347656 10.40625 29.308594 13.246094 29.308594 L 17.78125 29.308594 L 18.371094 29.847656 C 19.1875 30.59375 20.378906 31.265625 21.40625 31.558594 C 22.628906 31.90625 24.578125 31.90625 25.765625 31.566406 C 28.519531 30.777344 30.597656 28.660156 31.328125 25.90625 C 31.621094 24.8125 31.597656 22.871094 31.28125 21.859375 C 30.4375 19.152344 28.550781 17.277344 25.800781 16.410156 C 24.6875 16.0625 22.609375 16.066406 21.480469 16.421875 C 20.308594 16.785156 19.136719 17.433594 18.355469 18.144531 L 17.671875 18.777344 L 13.183594 18.777344 C 8.949219 18.777344 8.691406 18.765625 8.753906 18.589844 C 9.199219 17.375 10.175781 15.167969 10.277344 15.160156 C 10.34375 15.160156 11.082031 15.449219 11.917969 15.800781 C 12.75 16.152344 13.464844 16.425781 13.5 16.410156 C 13.535156 16.394531 13.816406 16.109375 14.121094 15.769531 C 14.421875 15.433594 14.941406 14.910156 15.28125 14.605469 C 15.621094 14.300781 15.90625 14 15.925781 13.933594 C 15.941406 13.863281 15.667969 13.125 15.3125 12.285156 C 14.957031 11.449219 14.703125 10.722656 14.75 10.675781 C 14.886719 10.546875 20.34375 8.34375 20.453125 8.378906 C 20.503906 8.402344 20.84375 9.105469 21.203125 9.953125 L 21.855469 11.488281 L 25.402344 11.488281 L 26.074219 9.917969 C 26.859375 8.082031 26.566406 8.183594 28.660156 9.042969 C 32.082031 10.457031 32.59375 10.683594 32.574219 10.777344 C 32.5625 10.828125 32.269531 11.550781 31.921875 12.386719 L 31.292969 13.902344 L 32.5625 15.167969 L 33.839844 16.4375 L 35.363281 15.796875 C 36.203125 15.449219 36.9375 15.160156 37.003906 15.160156 C 37.066406 15.160156 37.167969 15.265625 37.222656 15.402344 C 38.40625 18.175781 39.453125 20.847656 39.378906 20.917969 C 39.332031 20.964844 38.597656 21.285156 37.753906 21.636719 C 36.488281 22.152344 36.21875 22.300781 36.246094 22.464844 C 36.261719 22.574219 36.28125 23.363281 36.292969 24.222656 L 36.308594 25.785156 L 37.878906 26.441406 C 38.75 26.808594 39.457031 27.144531 39.457031 27.199219 C 39.457031 27.246094 39.214844 27.871094 38.910156 28.582031 C 38.613281 29.292969 38.1875 30.355469 37.964844 30.949219 C 37.488281 32.207031 37.140625 33.03125 37.082031 33.03125 C 37.058594 33.03125 36.371094 32.75 35.546875 32.402344 C 34.722656 32.050781 33.984375 31.753906 33.902344 31.734375 C 33.816406 31.71875 33.503906 31.988281 33.207031 32.339844 C 32.910156 32.691406 32.378906 33.21875 32.027344 33.511719 C 31.671875 33.800781 31.378906 34.078125 31.378906 34.121094 C 31.375 34.160156 31.660156 34.871094 32.011719 35.691406 C 32.359375 36.511719 32.644531 37.246094 32.644531 37.316406 C 32.644531 37.386719 32.011719 37.703125 31.238281 38.019531 C 30.464844 38.339844 29.230469 38.84375 28.5 39.152344 C 27.769531 39.453125 27.066406 39.734375 26.941406 39.777344 C 26.738281 39.839844 26.667969 39.722656 26.160156 38.488281 C 25.292969 36.363281 25.621094 36.609375 23.621094 36.597656 L 21.90625 36.59375 L 21.808594 36.859375 C 21.535156 37.582031 20.625 39.671875 20.550781 39.738281 C 20.503906 39.78125 20.394531 39.792969 20.308594 39.761719 Z M 20.308594 39.761719 "/>
<path style=" stroke:none;fill-rule:evenodd;fill:rgb(81.960784%,75.294118%,74.901961%);fill-opacity:1;" d="M 2.847656 29.40625 L 23.6875 29.40625 C 24.4375 29.40625 25.152344 29.253906 25.796875 28.984375 C 26.441406 28.707031 27.027344 28.3125 27.511719 27.824219 C 28 27.339844 28.394531 26.753906 28.671875 26.109375 C 28.941406 25.457031 29.09375 24.75 29.09375 24 C 29.09375 23.253906 28.941406 22.542969 28.671875 21.890625 C 28.394531 21.246094 28 20.660156 27.511719 20.175781 C 27.027344 19.6875 26.441406 19.292969 25.796875 19.019531 C 25.152344 18.75 24.4375 18.59375 23.6875 18.59375 L 2.847656 18.59375 Z M 2.847656 29.40625 "/>
<path style=" stroke:none;fill-rule:nonzero;fill:rgb(21.568627%,21.568627%,21.568627%);fill-opacity:1;" d="M 27.339844 24 C 27.339844 25.84375 25.84375 27.339844 24 27.339844 C 22.15625 27.339844 20.660156 25.84375 20.660156 24 C 20.660156 22.15625 22.15625 20.660156 24 20.660156 C 25.84375 20.660156 27.339844 22.15625 27.339844 24 Z M 27.339844 24 "/>
<path style=" stroke:none;fill-rule:nonzero;fill:rgb(100%,52.54902%,0%);fill-opacity:1;" d="M 26.4375 24 C 26.4375 25.34375 25.34375 26.4375 24 26.4375 C 22.65625 26.4375 21.5625 25.34375 21.5625 24 C 21.5625 22.65625 22.65625 21.5625 24 21.5625 C 25.34375 21.5625 26.4375 22.65625 26.4375 24 Z M 26.4375 24 "/>
<path style=" stroke:none;fill-rule:nonzero;fill:rgb(50.588235%,20%,32.156863%);fill-opacity:1;" d="M 6.027344 27.546875 C 5.84375 27.363281 5.84375 20.644531 6.027344 20.464844 C 6.109375 20.375 6.625 20.332031 7.652344 20.332031 C 8.675781 20.332031 9.191406 20.375 9.28125 20.464844 C 9.359375 20.542969 9.40625 20.964844 9.40625 21.628906 L 9.40625 22.675781 L 8.34375 22.675781 L 8.34375 21.394531 L 6.855469 21.394531 L 6.855469 26.609375 L 8.34375 26.609375 L 8.34375 25.230469 L 9.40625 25.230469 L 9.40625 26.277344 C 9.40625 27.699219 9.433594 27.675781 7.582031 27.675781 C 6.613281 27.675781 6.109375 27.636719 6.027344 27.546875 Z M 10.535156 27.472656 C 10.390625 27.3125 10.363281 27.097656 10.386719 26.277344 L 10.417969 25.28125 L 10.921875 25.25 L 11.425781 25.214844 L 11.425781 26.609375 L 12.8125 26.609375 L 12.8125 25.394531 L 11.589844 24.160156 L 10.363281 22.921875 L 10.363281 21.800781 C 10.363281 20.300781 10.328125 20.332031 12.1875 20.332031 C 13.160156 20.332031 13.660156 20.375 13.75 20.464844 C 13.828125 20.542969 13.875 20.953125 13.875 21.578125 L 13.875 22.566406 L 12.8125 22.566406 L 12.8125 21.394531 L 11.425781 21.394531 L 11.425781 22.542969 L 12.652344 23.714844 L 13.875 24.878906 L 13.875 26.097656 C 13.875 27.71875 13.921875 27.675781 12.105469 27.675781 C 10.886719 27.675781 10.699219 27.652344 10.535156 27.472656 Z M 15.011719 27.480469 C 14.855469 27.308594 14.832031 26.90625 14.832031 23.984375 C 14.832031 20.921875 14.847656 20.671875 15.027344 20.511719 C 15.1875 20.363281 15.472656 20.332031 16.707031 20.332031 C 17.722656 20.332031 18.234375 20.375 18.324219 20.464844 C 18.40625 20.542969 18.449219 20.964844 18.449219 21.628906 L 18.449219 22.675781 L 17.386719 22.675781 L 17.386719 21.394531 L 15.894531 21.394531 L 15.894531 26.609375 L 17.386719 26.609375 L 17.386719 25.230469 L 18.449219 25.230469 L 18.449219 26.277344 C 18.449219 27.699219 18.480469 27.675781 16.625 27.675781 C 15.363281 27.675781 15.160156 27.652344 15.011719 27.480469 Z M 15.011719 27.480469 "/>
</g>
</svg>
