<?xml version="1.0" encoding="UTF-8"?>
<svg xmlns="http://www.w3.org/2000/svg" xmlns:xlink="http://www.w3.org/1999/xlink" width="48pt" height="48pt" viewBox="0 0 48 48" version="1.1">
<g id="surface1">
<path style=" stroke:none;fill-rule:evenodd;fill:rgb(14.509804%,43.137255%,83.529412%);fill-opacity:1;" d="M 11.207031 2.847656 L 36.792969 2.847656 C 41.40625 2.847656 45.152344 6.59375 45.152344 11.207031 L 45.152344 36.792969 C 45.152344 41.40625 41.40625 45.152344 36.792969 45.152344 L 11.207031 45.152344 C 6.59375 45.152344 2.847656 41.40625 2.847656 36.792969 L 2.847656 11.207031 C 2.847656 6.59375 6.59375 2.847656 11.207031 2.847656 Z M 11.207031 2.847656 "/>
<path style=" stroke:none;fill-rule:nonzero;fill:rgb(100%,100%,100%);fill-opacity:1;" d="M 16 16.828125 C 22.222656 16.75 25.203125 15.261719 28.203125 13.777344 C 31.949219 16.214844 36.089844 16.660156 40.253906 16.980469 C 42.527344 35.816406 34.265625 39.238281 28.355469 41.847656 C 17.886719 38.269531 13.8125 29.894531 16 16.828125 Z M 16 16.828125 "/>
<path style=" stroke:none;fill-rule:nonzero;fill:rgb(78.039216%,20.392157%,22.352941%);fill-opacity:1;" d="M 18.621094 19.21875 C 23.488281 19.160156 25.816406 17.996094 28.167969 16.832031 C 31.09375 18.738281 34.332031 19.089844 37.59375 19.339844 C 39.371094 34.074219 32.90625 36.75 28.285156 38.792969 C 20.09375 35.996094 16.910156 29.441406 18.621094 19.21875 Z M 18.621094 19.21875 "/>
<path style=" stroke:none;fill-rule:nonzero;fill:rgb(100%,100%,100%);fill-opacity:1;" d="M 13.613281 6.152344 C 12.171875 6.152344 10.980469 7.34375 10.980469 8.785156 C 10.980469 10.246094 12.191406 11.421875 13.613281 11.421875 C 15.042969 11.421875 16.25 10.25 16.25 8.785156 C 16.25 7.339844 15.066406 6.152344 13.613281 6.152344 Z M 12.878906 13.203125 L 12.785156 13.222656 L 7.359375 14.394531 L 7.359375 16.722656 L 9.769531 17.175781 L 8.078125 25.730469 L 8.074219 25.738281 C 7.9375 26.46875 7.871094 27.066406 7.871094 27.550781 C 7.871094 28.394531 8.078125 29.191406 8.628906 29.765625 C 9.183594 30.332031 9.980469 30.566406 10.816406 30.566406 C 12.21875 30.566406 13.839844 30.144531 15.652344 29.386719 L 16.21875 29.152344 L 16.21875 26.292969 L 15.015625 26.675781 C 14.078125 26.980469 13.390625 27.113281 12.949219 27.113281 C 12.582031 27.113281 12.421875 27.027344 12.390625 27.003906 C 12.359375 26.980469 12.34375 27.003906 12.34375 26.792969 C 12.34375 26.707031 12.363281 26.488281 12.421875 26.171875 L 12.421875 26.160156 L 14.917969 13.203125 Z M 12.878906 13.203125 "/>
<path style=" stroke:none;fill-rule:nonzero;fill:rgb(100%,100%,100%);fill-opacity:1;" d="M 25.082031 22.277344 L 22.496094 24.863281 L 25.441406 27.8125 L 22.496094 30.761719 L 25.082031 33.347656 L 28.035156 30.402344 L 30.984375 33.347656 L 33.574219 30.761719 L 30.621094 27.8125 L 33.574219 24.863281 L 30.984375 22.277344 L 28.035156 25.222656 Z M 25.082031 22.277344 "/>
</g>
</svg>
