<?xml version="1.0" encoding="UTF-8"?>
<svg xmlns="http://www.w3.org/2000/svg" xmlns:xlink="http://www.w3.org/1999/xlink" width="48pt" height="48pt" viewBox="0 0 48 48" version="1.1">
<g id="surface1">
<path style=" stroke:none;fill-rule:evenodd;fill:rgb(94.117647%,22.352941%,22.352941%);fill-opacity:1;" d="M 11.207031 2.847656 L 36.792969 2.847656 C 41.40625 2.847656 45.152344 6.59375 45.152344 11.207031 L 45.152344 36.792969 C 45.152344 41.40625 41.40625 45.152344 36.792969 45.152344 L 11.207031 45.152344 C 6.59375 45.152344 2.847656 41.40625 2.847656 36.792969 L 2.847656 11.207031 C 2.847656 6.59375 6.59375 2.847656 11.207031 2.847656 Z M 11.207031 2.847656 "/>
<path style=" stroke:none;fill-rule:nonzero;fill:rgb(100%,100%,100%);fill-opacity:1;" d="M 13.511719 9.980469 L 13.511719 11.480469 L 12.761719 11.480469 C 11.515625 11.480469 10.511719 12.480469 10.511719 13.730469 C 10.511719 14.972656 11.515625 15.980469 12.761719 15.980469 L 13.511719 15.980469 L 13.511719 17.480469 L 10.644531 17.480469 C 10.957031 18.347656 11.78125 18.980469 12.761719 18.980469 L 13.511719 18.980469 L 13.511719 20.480469 L 15.011719 20.480469 L 15.011719 18.980469 L 15.761719 18.980469 C 17.003906 18.980469 18.011719 17.972656 18.011719 16.730469 C 18.011719 15.480469 17.003906 14.480469 15.761719 14.480469 L 15.011719 14.480469 L 15.011719 12.980469 L 17.875 12.980469 C 17.5625 12.105469 16.738281 11.480469 15.761719 11.480469 L 15.011719 11.480469 L 15.011719 9.980469 Z M 12.761719 12.980469 L 13.511719 12.980469 L 13.511719 14.480469 L 12.761719 14.480469 C 12.34375 14.480469 12.011719 14.140625 12.011719 13.730469 C 12.011719 13.3125 12.34375 12.980469 12.761719 12.980469 Z M 15.011719 15.980469 L 15.761719 15.980469 C 16.175781 15.980469 16.511719 16.3125 16.511719 16.730469 C 16.511719 17.140625 16.175781 17.496094 15.761719 17.480469 L 15.011719 17.480469 Z M 21.011719 18.980469 L 21.011719 20.480469 L 30.011719 20.480469 L 30.011719 18.980469 Z M 21.011719 18.980469 "/>
</g>
</svg>
