<?xml version="1.0" encoding="UTF-8"?>
<svg xmlns="http://www.w3.org/2000/svg" xmlns:xlink="http://www.w3.org/1999/xlink" width="48pt" height="48pt" viewBox="0 0 48 48" version="1.1">
<g id="surface1">
<path style=" stroke:none;fill-rule:evenodd;fill:rgb(55.686275%,55.686275%,55.686275%);fill-opacity:1;" d="M 11.207031 2.847656 L 36.792969 2.847656 C 41.40625 2.847656 45.152344 6.59375 45.152344 11.207031 L 45.152344 36.792969 C 45.152344 41.40625 41.40625 45.152344 36.792969 45.152344 L 11.207031 45.152344 C 6.59375 45.152344 2.847656 41.40625 2.847656 36.792969 L 2.847656 11.207031 C 2.847656 6.59375 6.59375 2.847656 11.207031 2.847656 Z M 11.207031 2.847656 "/>
<path style=" stroke:none;fill-rule:nonzero;fill:rgb(27.843137%,27.843137%,27.843137%);fill-opacity:1;" d="M 13.640625 11.09375 C 10.921875 11.09375 8.730469 13.285156 8.730469 16.011719 L 8.730469 29.042969 C 8.730469 31.765625 10.921875 33.957031 13.640625 33.957031 L 16.296875 33.957031 C 16.519531 35.625 17.925781 36.90625 19.65625 36.90625 L 28.34375 36.90625 C 30.074219 36.90625 31.480469 35.625 31.703125 33.957031 L 34.359375 33.957031 C 37.078125 33.957031 39.269531 31.765625 39.269531 29.042969 L 39.269531 16.011719 C 39.269531 13.285156 37.078125 11.09375 34.359375 11.09375 Z M 13.640625 11.09375 "/>
<path style=" stroke:none;fill-rule:nonzero;fill:rgb(13.72549%,13.72549%,13.72549%);fill-opacity:1;" d="M 13.824219 12.542969 L 34.175781 12.542969 C 36.230469 12.542969 37.894531 14.140625 37.894531 16.113281 L 37.894531 28.9375 C 37.894531 30.910156 36.230469 32.511719 34.175781 32.511719 L 13.824219 32.511719 C 11.769531 32.511719 10.105469 30.910156 10.105469 28.9375 L 10.105469 16.113281 C 10.105469 14.140625 11.769531 12.542969 13.824219 12.542969 Z M 13.824219 12.542969 "/>
<path style=" stroke:none;fill-rule:nonzero;fill:rgb(75.294118%,79.215686%,20%);fill-opacity:1;" d="M 28.949219 18.046875 C 27.71875 18.046875 26.71875 19.046875 26.71875 20.28125 C 26.71875 21.511719 27.71875 22.511719 28.949219 22.511719 C 30.183594 22.511719 31.183594 21.511719 31.183594 20.28125 C 31.183594 19.046875 30.183594 18.046875 28.949219 18.046875 Z M 28.949219 18.046875 "/>
<path style=" stroke:none;fill-rule:nonzero;fill:rgb(75.294118%,79.215686%,20%);fill-opacity:1;" d="M 19.097656 25.339844 C 16.644531 25.339844 14.191406 27.121094 14.191406 31.636719 L 14.191406 32.472656 L 33.824219 32.472656 C 33.824219 32.472656 32.1875 27.121094 29.734375 27.121094 C 27.277344 27.121094 27.277344 29.796875 25.640625 29.796875 C 24.003906 29.796875 21.550781 25.339844 19.097656 25.339844 Z M 19.097656 25.339844 "/>
</g>
</svg>
