<?xml version="1.0" encoding="UTF-8"?>
<svg xmlns="http://www.w3.org/2000/svg" xmlns:xlink="http://www.w3.org/1999/xlink" width="48pt" height="48pt" viewBox="0 0 48 48" version="1.1">
<g id="surface1">
<path style=" stroke:none;fill-rule:evenodd;fill:rgb(49.803922%,30.980392%,78.431373%);fill-opacity:1;" d="M 11.207031 2.847656 L 36.792969 2.847656 C 41.40625 2.847656 45.152344 6.59375 45.152344 11.207031 L 45.152344 36.792969 C 45.152344 41.40625 41.40625 45.152344 36.792969 45.152344 L 11.207031 45.152344 C 6.59375 45.152344 2.847656 41.40625 2.847656 36.792969 L 2.847656 11.207031 C 2.847656 6.59375 6.59375 2.847656 11.207031 2.847656 Z M 11.207031 2.847656 "/>
<path style=" stroke:none;fill-rule:nonzero;fill:rgb(100%,100%,100%);fill-opacity:1;" d="M 13.332031 20.003906 C 12.144531 21.199219 11.144531 22.324219 11.167969 23.800781 L 8.933594 26.035156 C 6.902344 28.066406 7.066406 31.5 9.09375 33.527344 L 14.472656 38.90625 C 16.5 40.933594 19.933594 41.097656 21.964844 39.066406 L 24.199219 36.832031 C 25.675781 36.847656 26.800781 35.855469 27.996094 34.667969 L 34.667969 27.996094 C 35.855469 26.800781 36.855469 25.675781 36.832031 24.199219 L 39.066406 21.964844 C 41.097656 19.933594 40.933594 16.5 38.90625 14.472656 L 33.527344 9.09375 C 31.5 7.066406 28.066406 6.902344 26.035156 8.933594 L 23.800781 11.167969 C 22.324219 11.152344 21.199219 12.144531 20.003906 13.332031 Z M 13.332031 20.003906 "/>
<path style=" stroke:none;fill-rule:nonzero;fill:rgb(49.803922%,30.980392%,78.431373%);fill-opacity:1;" d="M 34.183594 11.375 C 34.855469 12.050781 34.855469 13.144531 34.183594 13.816406 C 33.503906 14.496094 32.410156 14.496094 31.734375 13.816406 C 31.0625 13.144531 31.0625 12.050781 31.734375 11.375 C 32.410156 10.703125 33.503906 10.703125 34.183594 11.375 Z M 34.183594 11.375 "/>
<path style=" stroke:none;fill-rule:nonzero;fill:rgb(49.803922%,30.980392%,78.431373%);fill-opacity:1;" d="M 32.550781 18.707031 C 31.875 19.378906 30.78125 19.378906 30.109375 18.707031 C 29.433594 18.03125 29.433594 16.9375 30.109375 16.265625 C 30.78125 15.589844 31.875 15.589844 32.550781 16.265625 C 33.222656 16.9375 33.222656 18.03125 32.550781 18.707031 Z M 32.550781 18.707031 "/>
<path style=" stroke:none;fill-rule:nonzero;fill:rgb(48.235294%,57.254902%,92.941176%);fill-opacity:1;" d="M 14.230469 24 L 24 14.230469 L 33.769531 24 L 24 33.769531 Z M 14.230469 24 "/>
<path style=" stroke:none;fill-rule:nonzero;fill:rgb(32.156863%,100%,25.490196%);fill-opacity:1;" d="M 28.886719 10.96875 C 28.4375 11.421875 27.707031 11.421875 27.253906 10.96875 C 26.808594 10.519531 26.808594 9.792969 27.253906 9.339844 C 27.707031 8.890625 28.4375 8.890625 28.886719 9.339844 C 29.339844 9.792969 29.339844 10.519531 28.886719 10.96875 Z M 28.886719 10.96875 "/>
<path style=" stroke:none;fill-rule:nonzero;fill:rgb(49.803922%,30.980392%,78.431373%);fill-opacity:1;" d="M 11.785156 29.703125 C 11.332031 30.152344 11.332031 30.878906 11.785156 31.328125 L 12.597656 32.144531 L 11.785156 32.957031 C 11.332031 33.410156 11.332031 34.136719 11.785156 34.589844 L 12.597656 35.402344 C 13.050781 35.855469 13.777344 35.855469 14.230469 35.402344 L 15.042969 34.589844 L 15.855469 35.402344 C 16.308594 35.855469 17.03125 35.855469 17.484375 35.402344 L 18.296875 34.589844 C 18.75 34.136719 18.75 33.410156 18.296875 32.957031 L 17.484375 32.144531 L 18.296875 31.328125 C 18.75 30.878906 18.75 30.152344 18.296875 29.703125 L 17.484375 28.886719 C 17.03125 28.4375 16.308594 28.4375 15.855469 28.886719 L 15.042969 29.703125 L 14.230469 28.886719 C 13.777344 28.4375 13.050781 28.4375 12.597656 28.886719 Z M 11.785156 29.703125 "/>
</g>
</svg>
