<?xml version="1.0" encoding="UTF-8"?>
<svg xmlns="http://www.w3.org/2000/svg" xmlns:xlink="http://www.w3.org/1999/xlink" width="48pt" height="48pt" viewBox="0 0 48 48" version="1.1">
<g id="surface1">
<path style=" stroke:none;fill-rule:evenodd;fill:rgb(30.980392%,30.980392%,30.980392%);fill-opacity:1;" d="M 11.207031 2.847656 L 36.792969 2.847656 C 41.40625 2.847656 45.152344 6.59375 45.152344 11.207031 L 45.152344 36.792969 C 45.152344 41.40625 41.40625 45.152344 36.792969 45.152344 L 11.207031 45.152344 C 6.59375 45.152344 2.847656 41.40625 2.847656 36.792969 L 2.847656 11.207031 C 2.847656 6.59375 6.59375 2.847656 11.207031 2.847656 Z M 11.207031 2.847656 "/>
<path style=" stroke:none;fill-rule:nonzero;fill:rgb(80%,80%,80%);fill-opacity:1;" d="M 16.832031 10.496094 C 16.496094 10.496094 16.140625 10.503906 15.761719 10.503906 C 13.832031 10.46875 11.902344 10.53125 9.972656 10.503906 C 8.636719 10.496094 8.941406 12.136719 9.332031 12.824219 C 13.609375 20.449219 18.667969 28.984375 23.375 37.03125 C 24.28125 38.363281 25.234375 36.550781 25.746094 35.777344 C 27.027344 33.8125 28.082031 31.761719 29.167969 29.703125 C 29.625 28.324219 28.34375 27.261719 27.890625 26.089844 C 25.109375 21.15625 22.1875 16.3125 19.347656 11.417969 C 18.667969 10.605469 17.847656 10.496094 16.832031 10.496094 Z M 30.8125 10.503906 C 29.375 10.503906 30.285156 12.125 30.285156 12.125 C 30.285156 12.125 32.441406 16.214844 33.6875 18.453125 C 34.925781 20.6875 35.597656 18.765625 35.910156 18.144531 C 37.03125 15.917969 38 13.59375 38.785156 12.050781 C 39.574219 10.511719 37.9375 10.503906 37.9375 10.503906 Z M 30.8125 10.503906 "/>
</g>
</svg>
