<?xml version="1.0" encoding="UTF-8"?>
<svg xmlns="http://www.w3.org/2000/svg" xmlns:xlink="http://www.w3.org/1999/xlink" width="48pt" height="48pt" viewBox="0 0 48 48" version="1.1">
<g id="surface1">
<path style=" stroke:none;fill-rule:evenodd;fill:rgb(49.019608%,32.156863%,61.568627%);fill-opacity:1;" d="M 11.207031 2.847656 L 36.792969 2.847656 C 41.40625 2.847656 45.152344 6.59375 45.152344 11.207031 L 45.152344 36.792969 C 45.152344 41.40625 41.40625 45.152344 36.792969 45.152344 L 11.207031 45.152344 C 6.59375 45.152344 2.847656 41.40625 2.847656 36.792969 L 2.847656 11.207031 C 2.847656 6.59375 6.59375 2.847656 11.207031 2.847656 Z M 11.207031 2.847656 "/>
<path style=" stroke:none;fill-rule:nonzero;fill:rgb(100%,100%,100%);fill-opacity:1;" d="M 26.0625 12 C 25.53125 12 25.09375 12.421875 25.089844 12.933594 C 25.089844 13.441406 25.527344 13.875 26.058594 13.878906 C 28.347656 13.894531 30.230469 14.621094 31.75 16.046875 C 33.25 17.464844 34.03125 19.421875 34.050781 21.980469 C 34.058594 22.488281 34.496094 22.910156 35.027344 22.910156 C 35.027344 22.910156 35.035156 22.90625 35.035156 22.90625 C 35.5625 22.902344 36.003906 22.472656 36 21.964844 C 35.988281 20.46875 35.746094 19.097656 35.269531 17.890625 C 34.792969 16.671875 34.0625 15.59375 33.109375 14.699219 C 31.230469 12.933594 28.832031 12.019531 26.066406 12 L 26.058594 12 Z M 16.21875 14.207031 C 15.847656 14.144531 15.453125 14.214844 15.050781 14.40625 L 15.019531 14.40625 L 14.972656 14.433594 C 14.234375 14.847656 13.542969 15.417969 12.890625 16.125 L 12.839844 16.175781 L 12.839844 16.230469 C 12.386719 16.792969 12.089844 17.355469 12.019531 17.921875 C 12 18.015625 12 18.105469 12 18.199219 C 12 18.453125 12.035156 18.714844 12.121094 18.972656 L 12.140625 19.046875 L 12.183594 19.074219 C 12.441406 19.953125 13.019531 21.324219 14.296875 23.644531 C 15.152344 25.1875 16.015625 26.472656 16.878906 27.558594 C 17.332031 28.125 17.847656 28.71875 18.449219 29.316406 C 18.453125 29.324219 18.480469 29.347656 18.503906 29.375 C 18.515625 29.386719 18.527344 29.40625 18.5625 29.4375 L 18.621094 29.496094 L 18.625 29.496094 C 18.644531 29.515625 18.660156 29.53125 18.660156 29.535156 L 18.671875 29.550781 L 18.683594 29.5625 C 19.28125 30.152344 19.871094 30.667969 20.449219 31.121094 C 21.527344 31.984375 22.8125 32.859375 24.355469 33.707031 C 26.683594 34.988281 28.0625 35.574219 28.941406 35.824219 L 28.972656 35.863281 L 29.027344 35.878906 C 29.277344 35.964844 29.53125 36.003906 29.792969 36 C 29.890625 36.003906 29.984375 36 30.074219 35.980469 C 30.671875 35.90625 31.265625 35.625 31.855469 35.128906 L 31.863281 35.121094 L 31.871094 35.121094 C 31.878906 35.109375 31.875 35.113281 31.875 35.105469 C 31.878906 35.105469 31.886719 35.097656 31.890625 35.09375 C 32.589844 34.457031 33.152344 33.765625 33.574219 33.027344 L 33.597656 32.980469 L 33.597656 32.933594 C 33.988281 32.125 33.832031 31.296875 33.203125 30.769531 C 33.1875 30.761719 32.886719 30.503906 32.511719 30.199219 C 32.125 29.886719 31.667969 29.515625 31.359375 29.292969 C 30.777344 28.859375 29.875 28.300781 29.363281 28.015625 L 29.359375 28.015625 C 28.375 27.464844 27.34375 27.785156 26.890625 28.375 L 26.097656 29.371094 C 25.777344 29.769531 25.136719 29.734375 25.121094 29.734375 C 19.730469 28.34375 18.28125 22.925781 18.269531 22.886719 C 18.265625 22.871094 18.230469 22.230469 18.636719 21.902344 L 19.625 21.109375 C 20.214844 20.660156 20.542969 19.628906 19.988281 18.640625 C 19.699219 18.128906 19.140625 17.222656 18.714844 16.644531 C 18.484375 16.332031 18.113281 15.875 17.800781 15.488281 C 17.644531 15.296875 17.503906 15.125 17.402344 14.996094 C 17.347656 14.933594 17.308594 14.886719 17.277344 14.847656 C 17.261719 14.828125 17.246094 14.816406 17.238281 14.808594 C 17.234375 14.800781 17.234375 14.796875 17.230469 14.796875 C 16.953125 14.46875 16.605469 14.269531 16.21875 14.203125 Z M 26.121094 16.363281 C 25.597656 16.328125 25.128906 16.71875 25.09375 17.21875 C 25.058594 17.722656 25.457031 18.171875 25.980469 18.207031 C 27.265625 18.296875 28.128906 18.675781 28.78125 19.363281 C 29.449219 20.066406 29.75 20.871094 29.722656 21.964844 L 29.722656 21.96875 C 29.714844 22.472656 30.136719 22.902344 30.65625 22.910156 L 30.675781 22.910156 C 31.191406 22.910156 31.625 22.503906 31.636719 22.003906 C 31.671875 20.5 31.175781 19.160156 30.191406 18.121094 C 29.199219 17.074219 27.792969 16.484375 26.113281 16.363281 Z M 26.121094 16.363281 "/>
</g>
</svg>
