<?xml version="1.0" encoding="UTF-8"?>
<svg xmlns="http://www.w3.org/2000/svg" xmlns:xlink="http://www.w3.org/1999/xlink" width="48pt" height="48pt" viewBox="0 0 48 48" version="1.1">
<g id="surface1">
<path style=" stroke:none;fill-rule:evenodd;fill:rgb(39.215686%,17.254902%,40.784314%);fill-opacity:1;" d="M 11.207031 2.847656 C 6.578125 2.847656 2.847656 6.578125 2.847656 11.207031 L 2.847656 36.785156 C 2.847656 41.421875 6.578125 45.152344 11.207031 45.152344 L 23.84375 45.152344 L 23.84375 33.78125 C 23.84375 32.625 24.074219 31.519531 24.496094 30.519531 C 24.917969 29.519531 25.53125 28.621094 26.285156 27.863281 C 27.042969 27.109375 27.941406 26.496094 28.941406 26.074219 C 29.941406 25.652344 31.046875 25.421875 32.203125 25.421875 L 45.152344 25.421875 L 45.152344 11.207031 C 45.152344 6.578125 41.421875 2.847656 36.785156 2.847656 Z M 11.207031 2.847656 "/>
<path style=" stroke:none;fill-rule:nonzero;fill:rgb(100%,100%,100%);fill-opacity:1;" d="M 8.207031 8.214844 L 8.207031 12.15625 L 12.15625 12.15625 L 12.15625 8.214844 Z M 35.84375 8.214844 L 35.84375 12.15625 L 39.792969 12.15625 L 39.792969 8.214844 Z M 8.207031 17.421875 L 8.207031 21.371094 L 12.15625 21.371094 L 12.15625 17.421875 Z M 35.84375 17.421875 L 35.84375 21.371094 L 39.792969 21.371094 L 39.792969 17.421875 Z M 8.207031 26.628906 L 8.207031 30.578125 L 12.15625 30.578125 L 12.15625 26.628906 Z M 35.84375 26.628906 L 35.84375 30.578125 L 39.792969 30.578125 L 39.792969 26.628906 Z M 8.207031 35.84375 L 8.207031 39.785156 L 12.15625 39.785156 L 12.15625 35.84375 Z M 35.84375 35.84375 L 35.84375 39.785156 L 39.792969 39.785156 L 39.792969 35.84375 Z M 35.84375 35.84375 "/>
<path style=" stroke:none;fill-rule:nonzero;fill:rgb(100%,100%,100%);fill-opacity:1;" d="M 14.792969 9.527344 L 33.207031 9.527344 L 33.207031 21.371094 L 14.792969 21.371094 Z M 14.792969 9.527344 "/>
<path style=" stroke:none;fill-rule:nonzero;fill:rgb(100%,100%,100%);fill-opacity:1;" d="M 14.792969 26.628906 L 33.207031 26.628906 L 33.207031 38.472656 L 14.792969 38.472656 Z M 14.792969 26.628906 "/>
<path style=" stroke:none;fill-rule:evenodd;fill:rgb(39.215686%,73.72549%,40.784314%);fill-opacity:1;" d="M 45.152344 25.421875 L 32.203125 25.421875 C 31.046875 25.421875 29.941406 25.652344 28.941406 26.074219 C 27.941406 26.496094 27.042969 27.109375 26.285156 27.863281 C 25.53125 28.621094 24.917969 29.519531 24.496094 30.519531 C 24.074219 31.519531 23.84375 32.625 23.84375 33.78125 L 23.84375 45.152344 L 36.785156 45.152344 C 41.421875 45.152344 45.152344 41.421875 45.152344 36.785156 Z M 45.152344 25.421875 "/>
<path style=" stroke:none;fill-rule:nonzero;fill:rgb(100%,100%,100%);fill-opacity:1;" d="M 30.988281 29.386719 C 29.714844 29.386719 28.683594 30.421875 28.683594 31.691406 C 28.683594 32.96875 29.714844 34 30.988281 34 C 31.402344 34 31.78125 33.875 32.113281 33.683594 L 33.933594 35.386719 L 32.113281 37.089844 C 31.78125 36.902344 31.402344 36.769531 30.988281 36.769531 C 29.714844 36.769531 28.683594 37.800781 28.683594 39.078125 C 28.683594 40.355469 29.714844 41.386719 30.988281 41.386719 C 32.265625 41.386719 33.296875 40.355469 33.296875 39.078125 C 33.296875 38.863281 33.265625 38.667969 33.207031 38.472656 L 35.171875 36.566406 L 39.296875 40.464844 L 40.683594 40.464844 L 40.683594 39.542969 L 33.207031 32.300781 C 33.265625 32.105469 33.296875 31.90625 33.296875 31.691406 C 33.296875 30.421875 32.265625 29.386719 30.988281 29.386719 Z M 30.988281 30.769531 C 31.5 30.769531 31.910156 31.183594 31.910156 31.691406 C 31.910156 32.203125 31.5 32.621094 30.988281 32.621094 C 30.480469 32.621094 30.0625 32.203125 30.0625 31.691406 C 30.0625 31.183594 30.480469 30.769531 30.988281 30.769531 Z M 39.296875 30.3125 L 35.660156 33.746094 L 36.875 34.925781 L 40.683594 31.234375 L 40.683594 30.3125 Z M 30.988281 38.15625 C 31.5 38.15625 31.910156 38.566406 31.910156 39.078125 C 31.910156 39.589844 31.5 40 30.988281 40 C 30.480469 40 30.0625 39.589844 30.0625 39.078125 C 30.0625 38.566406 30.480469 38.15625 30.988281 38.15625 Z M 30.988281 38.15625 "/>
</g>
</svg>
