<?xml version="1.0" encoding="UTF-8"?>
<svg xmlns="http://www.w3.org/2000/svg" xmlns:xlink="http://www.w3.org/1999/xlink" width="48pt" height="48pt" viewBox="0 0 48 48" version="1.1">
<g id="surface1">
<path style=" stroke:none;fill-rule:evenodd;fill:rgb(26.27451%,76.078431%,16.470588%);fill-opacity:1;" d="M 11.207031 2.847656 L 36.792969 2.847656 C 41.40625 2.847656 45.152344 6.59375 45.152344 11.207031 L 45.152344 36.792969 C 45.152344 41.40625 41.40625 45.152344 36.792969 45.152344 L 11.207031 45.152344 C 6.59375 45.152344 2.847656 41.40625 2.847656 36.792969 L 2.847656 11.207031 C 2.847656 6.59375 6.59375 2.847656 11.207031 2.847656 Z M 11.207031 2.847656 "/>
<path style=" stroke:none;fill-rule:nonzero;fill:rgb(100%,100%,100%);fill-opacity:1;" d="M 24.933594 41.6875 L 41.6875 24.933594 C 42.203125 24.417969 42.203125 23.582031 41.6875 23.066406 L 24.933594 6.3125 C 24.417969 5.796875 23.582031 5.796875 23.066406 6.3125 L 6.3125 23.066406 C 5.796875 23.582031 5.796875 24.417969 6.3125 24.933594 L 23.066406 41.6875 C 23.582031 42.203125 24.417969 42.203125 24.933594 41.6875 Z M 24.933594 41.6875 "/>
<path style=" stroke:none;fill-rule:nonzero;fill:rgb(26.27451%,76.078431%,16.470588%);fill-opacity:1;" d="M 16.355469 14.964844 L 16.355469 16.355469 L 17.746094 16.355469 L 17.746094 33.035156 L 19.828125 33.035156 L 28.863281 16.355469 L 30.253906 16.355469 L 30.253906 14.964844 L 24.691406 14.964844 L 24.691406 16.355469 L 26.082031 16.355469 L 20.527344 26.082031 L 20.527344 16.355469 L 21.917969 16.355469 L 21.917969 14.964844 Z M 16.355469 14.964844 "/>
<path style=" stroke:none;fill-rule:nonzero;fill:rgb(26.27451%,76.078431%,16.470588%);fill-opacity:1;" d="M 23.308594 28.863281 L 24.691406 28.863281 L 24.691406 33.035156 L 23.308594 33.035156 Z M 23.308594 28.863281 "/>
<path style=" stroke:none;fill-rule:nonzero;fill:rgb(26.27451%,76.078431%,16.470588%);fill-opacity:1;" d="M 23.308594 26.082031 L 24.691406 26.082031 L 24.691406 27.472656 L 23.308594 27.472656 Z M 23.308594 26.082031 "/>
<path style=" stroke:none;fill-rule:nonzero;fill:rgb(26.27451%,76.078431%,16.470588%);fill-opacity:1;" d="M 26.082031 28.863281 L 26.082031 33.035156 L 27.472656 33.035156 L 27.472656 31.324219 L 28.863281 32.34375 L 30.253906 31.300781 L 30.253906 33.035156 L 31.644531 33.035156 L 31.644531 28.863281 L 30.253906 28.863281 L 28.863281 30.253906 L 27.472656 28.863281 Z M 26.082031 28.863281 "/>
</g>
</svg>
