<?xml version="1.0" encoding="UTF-8"?>
<svg xmlns="http://www.w3.org/2000/svg" xmlns:xlink="http://www.w3.org/1999/xlink" width="48pt" height="48pt" viewBox="0 0 48 48" version="1.1">
<g id="surface1">
<path style=" stroke:none;fill-rule:evenodd;fill:rgb(30.980392%,30.980392%,30.980392%);fill-opacity:1;" d="M 11.207031 2.847656 L 36.792969 2.847656 C 41.40625 2.847656 45.152344 6.59375 45.152344 11.207031 L 45.152344 36.792969 C 45.152344 41.40625 41.40625 45.152344 36.792969 45.152344 L 11.207031 45.152344 C 6.59375 45.152344 2.847656 41.40625 2.847656 36.792969 L 2.847656 11.207031 C 2.847656 6.59375 6.59375 2.847656 11.207031 2.847656 Z M 11.207031 2.847656 "/>
<path style=" stroke:none;fill-rule:nonzero;fill:rgb(41.568627%,14.509804%,21.568627%);fill-opacity:1;" d="M 6.75 18 L 11.589844 30 L 15.035156 30 L 19.800781 18 L 16.535156 18 L 13.277344 25.910156 L 10.050781 18 Z M 6.75 18 "/>
<path style=" stroke:none;fill-rule:nonzero;fill:rgb(65.098039%,66.666667%,67.843137%);fill-opacity:0.941176;" d="M 22.988281 18 C 21.363281 22.019531 19.714844 26.015625 18 30 L 21.449219 30 L 24.675781 22.125 L 27.863281 30 L 31.3125 30 L 34.5 21.902344 L 37.800781 30 L 41.25 30 C 39.535156 26.015625 37.847656 22.019531 36.222656 18 L 32.777344 18 L 29.589844 25.910156 L 26.324219 18 Z M 22.988281 18 "/>
</g>
</svg>
