<?xml version="1.0" encoding="UTF-8"?>
<svg xmlns="http://www.w3.org/2000/svg" xmlns:xlink="http://www.w3.org/1999/xlink" width="48pt" height="48pt" viewBox="0 0 48 48" version="1.1">
<g id="surface1">
<path style=" stroke:none;fill-rule:evenodd;fill:rgb(38.039216%,51.764706%,65.098039%);fill-opacity:1;" d="M 11.207031 2.847656 L 36.792969 2.847656 C 41.40625 2.847656 45.152344 6.59375 45.152344 11.207031 L 45.152344 36.792969 C 45.152344 41.40625 41.40625 45.152344 36.792969 45.152344 L 11.207031 45.152344 C 6.59375 45.152344 2.847656 41.40625 2.847656 36.792969 L 2.847656 11.207031 C 2.847656 6.59375 6.59375 2.847656 11.207031 2.847656 Z M 11.207031 2.847656 "/>
<path style=" stroke:none;fill-rule:evenodd;fill:rgb(100%,100%,100%);fill-opacity:1;" d="M 23.894531 26.410156 L 25.527344 26.410156 C 25.527344 26.410156 26.019531 26.359375 26.269531 26.078125 C 26.503906 25.816406 26.496094 25.332031 26.496094 25.332031 C 26.496094 25.332031 26.464844 23.066406 27.480469 22.730469 C 28.484375 22.402344 29.769531 24.921875 31.136719 25.894531 C 32.167969 26.625 32.949219 26.46875 32.949219 26.46875 L 36.59375 26.410156 C 36.59375 26.410156 38.5 26.292969 37.597656 24.738281 C 37.519531 24.609375 37.066406 23.589844 34.886719 21.488281 C 32.597656 19.292969 32.90625 19.644531 35.660156 15.84375 C 37.339844 13.53125 38.003906 12.113281 37.796875 11.511719 C 37.597656 10.933594 36.363281 11.089844 36.363281 11.089844 L 32.261719 11.113281 C 32.261719 11.113281 31.953125 11.066406 31.730469 11.207031 C 31.503906 11.34375 31.363281 11.667969 31.363281 11.667969 C 31.363281 11.667969 30.714844 13.457031 29.847656 14.980469 C 28.019531 18.199219 27.292969 18.363281 26.988281 18.167969 C 26.296875 17.703125 26.46875 16.296875 26.46875 15.300781 C 26.46875 12.183594 26.925781 10.886719 25.582031 10.546875 C 25.136719 10.4375 24.808594 10.363281 23.667969 10.347656 C 22.199219 10.332031 20.957031 10.355469 20.261719 10.714844 C 19.792969 10.949219 19.433594 11.472656 19.652344 11.503906 C 19.921875 11.546875 20.535156 11.675781 20.859375 12.136719 C 21.28125 12.730469 21.265625 14.0625 21.265625 14.0625 C 21.265625 14.0625 21.511719 17.730469 20.703125 18.1875 C 20.152344 18.5 19.390625 17.859375 17.761719 14.941406 C 16.925781 13.449219 16.296875 11.796875 16.296875 11.796875 C 16.296875 11.796875 16.171875 11.488281 15.957031 11.324219 C 15.691406 11.125 15.328125 11.058594 15.328125 11.058594 L 11.425781 11.082031 C 11.425781 11.082031 10.839844 11.105469 10.625 11.363281 C 10.433594 11.597656 10.609375 12.089844 10.609375 12.089844 C 10.609375 12.089844 13.660156 19.488281 17.121094 23.21875 C 20.292969 26.640625 23.894531 26.417969 23.894531 26.417969 "/>
<path style=" stroke:none;fill-rule:nonzero;fill:rgb(100%,100%,100%);fill-opacity:1;" d="M 13.707031 35.542969 C 13.707031 35.863281 13.652344 36.15625 13.542969 36.417969 C 13.433594 36.675781 13.269531 36.894531 13.058594 37.082031 C 12.84375 37.265625 12.582031 37.40625 12.269531 37.503906 C 11.964844 37.605469 11.609375 37.652344 11.214844 37.652344 C 10.859375 37.652344 10.519531 37.613281 10.199219 37.542969 C 9.875 37.46875 9.574219 37.363281 9.296875 37.21875 L 9.296875 35.792969 C 9.453125 35.863281 9.613281 35.9375 9.777344 36.011719 C 9.9375 36.082031 10.097656 36.144531 10.265625 36.203125 C 10.433594 36.253906 10.597656 36.300781 10.765625 36.332031 C 10.933594 36.371094 11.097656 36.386719 11.265625 36.386719 C 11.4375 36.386719 11.578125 36.363281 11.699219 36.328125 C 11.816406 36.292969 11.917969 36.238281 11.988281 36.171875 C 12.066406 36.105469 12.121094 36.019531 12.152344 35.925781 C 12.1875 35.832031 12.207031 35.730469 12.207031 35.613281 C 12.207031 35.480469 12.175781 35.363281 12.121094 35.261719 C 12.0625 35.15625 11.980469 35.058594 11.875 34.96875 C 11.769531 34.875 11.644531 34.785156 11.5 34.699219 C 11.355469 34.613281 11.191406 34.519531 11.011719 34.425781 C 10.859375 34.347656 10.6875 34.25 10.5 34.140625 C 10.3125 34.027344 10.128906 33.890625 9.964844 33.722656 C 9.796875 33.558594 9.660156 33.355469 9.546875 33.121094 C 9.4375 32.878906 9.378906 32.597656 9.378906 32.265625 C 9.378906 31.941406 9.433594 31.65625 9.535156 31.402344 C 9.644531 31.140625 9.800781 30.925781 10 30.75 C 10.199219 30.574219 10.4375 30.4375 10.71875 30.34375 C 11 30.25 11.316406 30.207031 11.667969 30.207031 C 11.84375 30.207031 12.011719 30.21875 12.175781 30.238281 C 12.347656 30.265625 12.511719 30.296875 12.671875 30.339844 C 12.839844 30.378906 13.003906 30.4375 13.167969 30.5 C 13.332031 30.5625 13.503906 30.636719 13.675781 30.714844 L 13.183594 31.910156 C 13.035156 31.839844 12.894531 31.78125 12.765625 31.730469 C 12.640625 31.671875 12.515625 31.628906 12.390625 31.59375 C 12.269531 31.558594 12.152344 31.53125 12.03125 31.515625 C 11.910156 31.496094 11.796875 31.484375 11.675781 31.484375 C 11.421875 31.484375 11.222656 31.550781 11.082031 31.691406 C 10.949219 31.828125 10.878906 32.011719 10.878906 32.238281 C 10.878906 32.359375 10.902344 32.46875 10.9375 32.5625 C 10.984375 32.65625 11.046875 32.746094 11.136719 32.828125 C 11.230469 32.910156 11.347656 32.996094 11.488281 33.078125 C 11.636719 33.167969 11.808594 33.261719 12.015625 33.371094 C 12.261719 33.503906 12.488281 33.640625 12.699219 33.777344 C 12.90625 33.910156 13.082031 34.066406 13.234375 34.234375 C 13.386719 34.402344 13.503906 34.589844 13.582031 34.796875 C 13.667969 35.011719 13.707031 35.261719 13.707031 35.542969 Z M 13.707031 35.542969 "/>
<path style=" stroke:none;fill-rule:nonzero;fill:rgb(100%,100%,100%);fill-opacity:1;" d="M 19.183594 37.550781 L 18.6875 35.828125 L 16.191406 35.828125 L 15.691406 37.550781 L 14.140625 37.550781 L 16.496094 30.28125 L 18.371094 30.28125 L 20.734375 37.550781 Z M 18.332031 34.542969 L 17.863281 32.953125 C 17.84375 32.894531 17.816406 32.796875 17.777344 32.660156 C 17.734375 32.527344 17.691406 32.378906 17.644531 32.21875 C 17.605469 32.050781 17.5625 31.886719 17.527344 31.722656 C 17.484375 31.558594 17.457031 31.417969 17.4375 31.300781 C 17.425781 31.375 17.40625 31.457031 17.386719 31.558594 C 17.363281 31.65625 17.339844 31.765625 17.3125 31.875 C 17.285156 31.984375 17.253906 32.09375 17.222656 32.207031 C 17.199219 32.316406 17.167969 32.425781 17.140625 32.527344 C 17.113281 32.625 17.089844 32.714844 17.066406 32.785156 C 17.046875 32.863281 17.03125 32.921875 17.019531 32.953125 L 16.5625 34.542969 Z M 18.332031 34.542969 "/>
<path style=" stroke:none;fill-rule:nonzero;fill:rgb(100%,100%,100%);fill-opacity:1;" d="M 25.078125 30.308594 L 26.628906 30.308594 L 24.371094 37.550781 L 22.699219 37.550781 L 20.441406 30.308594 L 21.996094 30.308594 L 23.222656 34.671875 C 23.238281 34.722656 23.261719 34.816406 23.285156 34.953125 C 23.316406 35.082031 23.34375 35.230469 23.375 35.390625 C 23.40625 35.546875 23.4375 35.703125 23.46875 35.863281 C 23.5 36.019531 23.519531 36.15625 23.535156 36.265625 C 23.558594 36.15625 23.578125 36.019531 23.609375 35.863281 C 23.636719 35.703125 23.667969 35.546875 23.703125 35.390625 C 23.734375 35.234375 23.765625 35.089844 23.796875 34.957031 C 23.828125 34.824219 23.855469 34.730469 23.871094 34.671875 Z M 25.078125 30.308594 "/>
<path style=" stroke:none;fill-rule:nonzero;fill:rgb(100%,100%,100%);fill-opacity:1;" d="M 31.707031 37.550781 L 27.535156 37.550781 L 27.535156 30.308594 L 31.707031 30.308594 L 31.707031 31.566406 L 29.074219 31.566406 L 29.074219 33.15625 L 31.527344 33.15625 L 31.527344 34.417969 L 29.074219 34.417969 L 29.074219 36.285156 L 31.707031 36.285156 Z M 31.707031 37.550781 "/>
<path style=" stroke:none;fill-rule:nonzero;fill:rgb(100%,100%,100%);fill-opacity:1;" d="M 34.761719 33.527344 L 35.175781 33.527344 C 35.605469 33.527344 35.910156 33.441406 36.09375 33.269531 C 36.28125 33.097656 36.371094 32.847656 36.371094 32.519531 C 36.371094 32.175781 36.269531 31.933594 36.074219 31.785156 C 35.875 31.640625 35.566406 31.566406 35.152344 31.566406 L 34.761719 31.566406 Z M 34.761719 34.769531 L 34.761719 37.550781 L 33.222656 37.550781 L 33.222656 30.308594 L 35.207031 30.308594 C 36.136719 30.308594 36.824219 30.488281 37.265625 30.847656 C 37.707031 31.207031 37.925781 31.75 37.925781 32.480469 C 37.925781 32.730469 37.894531 32.953125 37.828125 33.152344 C 37.761719 33.355469 37.671875 33.535156 37.5625 33.691406 C 37.453125 33.847656 37.324219 33.984375 37.175781 34.105469 C 37.035156 34.21875 36.886719 34.316406 36.730469 34.394531 C 37.09375 34.984375 37.421875 35.511719 37.714844 35.972656 C 37.839844 36.171875 37.957031 36.363281 38.078125 36.550781 C 38.191406 36.738281 38.300781 36.90625 38.394531 37.058594 C 38.484375 37.207031 38.5625 37.324219 38.621094 37.417969 L 38.703125 37.550781 L 37 37.550781 L 35.433594 34.769531 Z M 34.761719 34.769531 "/>
</g>
</svg>
