<?xml version="1.0" encoding="UTF-8"?>
<svg xmlns="http://www.w3.org/2000/svg" xmlns:xlink="http://www.w3.org/1999/xlink" width="48pt" height="48pt" viewBox="0 0 48 48" version="1.1">
<g id="surface1">
<path style=" stroke:none;fill-rule:evenodd;fill:rgb(30.588235%,56.862745%,85.098039%);fill-opacity:1;" d="M 11.207031 2.847656 L 36.792969 2.847656 C 41.40625 2.847656 45.152344 6.59375 45.152344 11.207031 L 45.152344 36.792969 C 45.152344 41.40625 41.40625 45.152344 36.792969 45.152344 L 11.207031 45.152344 C 6.59375 45.152344 2.847656 41.40625 2.847656 36.792969 L 2.847656 11.207031 C 2.847656 6.59375 6.59375 2.847656 11.207031 2.847656 Z M 11.207031 2.847656 "/>
<path style=" stroke:none;fill-rule:nonzero;fill:rgb(100%,67.843137%,32.54902%);fill-opacity:1;" d="M 30.75 39 C 31.996094 39 33 37.996094 33 36.75 L 33 17.25 C 33 16.003906 31.996094 15 30.75 15 L 11.25 15 C 10.003906 15 9 16.003906 9 17.25 L 9 36.75 C 9 37.996094 10.003906 39 11.25 39 Z M 27 33 L 15 33 L 15 21 L 27 21 Z M 27 33 "/>
<path style=" stroke:none;fill-rule:nonzero;fill:rgb(63.921569%,79.215686%,96.470588%);fill-opacity:1;" d="M 36.75 33 C 37.996094 33 39 31.996094 39 30.75 L 39 11.25 C 39 10.003906 37.996094 9 36.75 9 L 17.25 9 C 16.003906 9 15 10.003906 15 11.25 L 15 15 L 33 15 L 33 27 L 21 27 L 21 21 L 15 21 L 15 30.75 C 15 31.996094 16.003906 33 17.25 33 Z M 36.75 33 "/>
</g>
</svg>
