<?xml version="1.0" encoding="UTF-8"?>
<svg xmlns="http://www.w3.org/2000/svg" xmlns:xlink="http://www.w3.org/1999/xlink" width="48pt" height="48pt" viewBox="0 0 48 48" version="1.1">
<g id="surface1">
<path style=" stroke:none;fill-rule:evenodd;fill:rgb(30.980392%,30.980392%,30.980392%);fill-opacity:1;" d="M 11.207031 2.847656 L 36.792969 2.847656 C 41.40625 2.847656 45.152344 6.59375 45.152344 11.207031 L 45.152344 36.792969 C 45.152344 41.40625 41.40625 45.152344 36.792969 45.152344 L 11.207031 45.152344 C 6.59375 45.152344 2.847656 41.40625 2.847656 36.792969 L 2.847656 11.207031 C 2.847656 6.59375 6.59375 2.847656 11.207031 2.847656 Z M 11.207031 2.847656 "/>
<path style=" stroke:none;fill-rule:nonzero;fill:rgb(37.647059%,51.764706%,100%);fill-opacity:1;" d="M 25.5 6.75 C 18.875 6.75 13.5 12.125 13.5 18.75 C 13.5 18.828125 13.503906 18.90625 13.511719 18.984375 C 13.503906 19.058594 13.488281 19.128906 13.488281 19.203125 C 13.496094 19.390625 13.496094 19.582031 13.511719 19.769531 C 13.511719 19.808594 13.503906 19.84375 13.503906 19.878906 L 13.503906 22.121094 L 13.488281 22.953125 L 10.75 27.269531 C 10.121094 28.472656 10.71875 29.21875 12.074219 29.238281 L 13.503906 29.261719 L 13.503906 32.636719 C 13.503906 34.046875 14.824219 35.230469 16.238281 35.230469 L 19.5 35.269531 L 19.5 41.171875 C 20 41.207031 20.496094 41.25 21 41.25 C 25.480469 41.25 29.621094 39.847656 33.019531 37.472656 L 33.019531 28.652344 C 33.019531 28.453125 33.011719 28.292969 33.003906 28.109375 C 35.84375 25.832031 37.5 22.390625 37.5 18.75 C 37.5 12.125 32.125 6.75 25.5 6.75 Z M 25.5 6.75 "/>
<path style=" stroke:none;fill-rule:nonzero;fill:rgb(100%,100%,100%);fill-opacity:1;" d="M 26.25 11.25 C 22.519531 11.25 19.5 14.269531 19.5 18 C 19.5 21.730469 22.519531 24.75 26.25 24.75 C 29.980469 24.75 33 21.730469 33 18 C 33 14.269531 29.980469 11.25 26.25 11.25 Z M 26.25 14.25 C 28.324219 14.25 30 15.925781 30 18 C 30 20.074219 28.324219 21.75 26.25 21.75 C 24.175781 21.75 22.5 20.074219 22.5 18 C 22.5 15.925781 24.175781 14.25 26.25 14.25 Z M 26.25 14.25 "/>
<path style=" stroke:none;fill-rule:nonzero;fill:rgb(100%,100%,100%);fill-opacity:1;" d="M 28.5 18 C 28.5 19.246094 27.496094 20.25 26.25 20.25 C 25.003906 20.25 24 19.246094 24 18 C 24 16.753906 25.003906 15.75 26.25 15.75 C 27.496094 15.75 28.5 16.753906 28.5 18 Z M 28.5 18 "/>
</g>
</svg>
