<?xml version="1.0" encoding="UTF-8"?>
<svg xmlns="http://www.w3.org/2000/svg" xmlns:xlink="http://www.w3.org/1999/xlink" width="48pt" height="48pt" viewBox="0 0 48 48" version="1.1">
<g id="surface1">
<path style=" stroke:none;fill-rule:evenodd;fill:rgb(30.980392%,30.980392%,30.980392%);fill-opacity:1;" d="M 11.207031 2.847656 L 36.792969 2.847656 C 41.40625 2.847656 45.152344 6.59375 45.152344 11.207031 L 45.152344 36.792969 C 45.152344 41.40625 41.40625 45.152344 36.792969 45.152344 L 11.207031 45.152344 C 6.59375 45.152344 2.847656 41.40625 2.847656 36.792969 L 2.847656 11.207031 C 2.847656 6.59375 6.59375 2.847656 11.207031 2.847656 Z M 11.207031 2.847656 "/>
<path style=" stroke:none;fill-rule:nonzero;fill:rgb(99.607843%,80.392157%,21.960784%);fill-opacity:1;" d="M 19.808594 38.566406 C 17.167969 37.910156 14.910156 36.566406 12.597656 34.265625 C 10.777344 32.449219 10.496094 32.046875 9.78125 30.230469 C 9.078125 28.425781 8.996094 27.96875 9 25.957031 C 9.011719 22.75 9.636719 20.816406 11.433594 18.425781 C 13.125 16.183594 13.886719 15.5625 16.578125 14.246094 C 18.464844 13.316406 19.683594 12.957031 22.339844 12.542969 C 23.421875 12.375 23.457031 12 22.457031 11.296875 C 21.171875 10.402344 19.800781 9.15625 19.941406 9.011719 C 20.09375 8.855469 25.144531 10.605469 27.464844 11.613281 C 30.40625 12.894531 34.03125 15.402344 35.6875 17.300781 C 36.339844 18.046875 36.640625 18.832031 36.28125 18.832031 C 36.113281 18.832031 33.984375 17.871094 31.832031 16.816406 C 30.933594 16.378906 30.089844 16.082031 29.964844 16.160156 C 29.832031 16.238281 29.988281 16.417969 30.308594 16.558594 C 30.621094 16.691406 30.933594 16.875 31 16.964844 C 31.0625 17.046875 31.566406 17.253906 32.113281 17.421875 C 32.667969 17.589844 33.121094 17.8125 33.121094 17.921875 C 33.121094 18.03125 33.25 18.128906 33.410156 18.136719 C 33.574219 18.144531 34.230469 18.402344 34.871094 18.703125 L 36.035156 19.261719 L 35.109375 19.519531 C 33.671875 19.921875 33.046875 19.847656 30.386719 18.949219 C 27.269531 17.902344 24.105469 17.644531 21.253906 18.214844 C 18.441406 18.777344 18.1875 19.207031 19.578125 21.046875 C 20.652344 22.464844 21.734375 22.8125 23.347656 22.261719 C 24.011719 22.035156 24.707031 21.949219 25.078125 22.046875 C 25.644531 22.199219 25.65625 22.230469 25.230469 22.386719 C 24.800781 22.546875 24.816406 22.589844 25.464844 22.941406 C 25.941406 23.203125 26.035156 23.328125 25.753906 23.332031 C 25.308594 23.34375 25.203125 23.703125 25.578125 23.9375 C 26.027344 24.214844 25.824219 24.566406 25.308594 24.402344 C 24.902344 24.269531 24.832031 24.316406 24.953125 24.640625 C 25.074219 24.953125 25.003906 25.003906 24.636719 24.886719 C 24.285156 24.777344 24.167969 24.847656 24.160156 25.167969 C 24.15625 25.5 24.003906 25.417969 23.5 24.800781 C 22.871094 24.042969 22.746094 23.996094 20.621094 23.785156 C 17.996094 23.53125 17.292969 23.285156 16.503906 22.34375 L 15.917969 21.640625 L 15.285156 23.019531 C 14.46875 24.824219 14.277344 27.503906 14.84375 29.214844 C 16.121094 33.09375 18.808594 34.738281 21.550781 33.328125 C 23.417969 32.371094 23.941406 30.597656 22.84375 29 C 22.207031 28.078125 22.203125 27.058594 22.839844 27.589844 C 23.21875 27.90625 23.453125 27.707031 23.472656 27.046875 C 23.488281 26.597656 23.515625 26.609375 23.730469 27.144531 L 23.972656 27.734375 L 24.332031 27.203125 C 24.78125 26.542969 25.105469 26.511719 24.941406 27.144531 C 24.800781 27.683594 25.097656 27.765625 25.558594 27.324219 C 25.8125 27.078125 25.839844 27.125 25.703125 27.582031 C 25.550781 28.078125 25.59375 28.125 26.089844 27.984375 C 26.5625 27.847656 26.527344 27.921875 25.84375 28.511719 L 25.050781 29.199219 L 25.21875 31.808594 L 25.390625 34.421875 L 24.671875 35.03125 C 23.957031 35.636719 23.953125 35.644531 24.488281 35.777344 C 25.253906 35.972656 28.546875 35.558594 29.9375 35.089844 C 32.277344 34.308594 35.046875 32.199219 36.191406 30.328125 C 37.628906 27.980469 38.433594 23.421875 37.738281 21.503906 C 37.449219 20.6875 37.4375 20.496094 37.691406 20.496094 C 38.328125 20.496094 38.988281 23.089844 39 25.609375 C 39.011719 28.71875 37.878906 31.621094 35.699219 34.089844 C 32.265625 37.96875 25.300781 39.933594 19.808594 38.566406 Z M 19.808594 38.566406 "/>
</g>
</svg>
