<?xml version="1.0" encoding="UTF-8"?>
<svg xmlns="http://www.w3.org/2000/svg" xmlns:xlink="http://www.w3.org/1999/xlink" width="48pt" height="48pt" viewBox="0 0 48 48" version="1.1">
<g id="surface1">
<path style=" stroke:none;fill-rule:evenodd;fill:rgb(30.980392%,30.980392%,30.980392%);fill-opacity:1;" d="M 11.207031 2.847656 L 36.792969 2.847656 C 41.40625 2.847656 45.152344 6.59375 45.152344 11.207031 L 45.152344 36.792969 C 45.152344 41.40625 41.40625 45.152344 36.792969 45.152344 L 11.207031 45.152344 C 6.59375 45.152344 2.847656 41.40625 2.847656 36.792969 L 2.847656 11.207031 C 2.847656 6.59375 6.59375 2.847656 11.207031 2.847656 Z M 11.207031 2.847656 "/>
<path style=" stroke:none;fill-rule:nonzero;fill:rgb(100%,82.745098%,55.294118%);fill-opacity:1;" d="M 32.535156 9.316406 L 33.925781 10.125 C 34.0625 10.203125 34.109375 10.378906 34.03125 10.519531 L 31.050781 15.675781 C 30.96875 15.816406 30.792969 15.863281 30.65625 15.785156 L 29.265625 14.984375 C 29.128906 14.90625 29.082031 14.730469 29.160156 14.589844 L 32.140625 9.425781 C 32.222656 9.292969 32.394531 9.238281 32.535156 9.316406 Z M 32.535156 9.316406 "/>
<path style=" stroke:none;fill-rule:nonzero;fill:rgb(100%,100%,100%);fill-opacity:1;" d="M 29.113281 10.972656 C 28.765625 10.769531 28.324219 10.890625 28.125 11.238281 L 27.136719 12.949219 C 21.484375 11.550781 15.589844 14.0625 12.675781 19.097656 C 9.0625 25.355469 11.207031 33.355469 17.464844 36.96875 C 23.71875 40.578125 31.71875 38.433594 35.328125 32.175781 C 38.234375 27.136719 37.457031 20.78125 33.425781 16.582031 L 34.417969 14.871094 C 34.613281 14.527344 34.5 14.082031 34.152344 13.878906 Z M 29.113281 10.972656 "/>
<path style=" stroke:none;fill-rule:nonzero;fill:rgb(30.980392%,30.980392%,30.980392%);fill-opacity:1;" d="M 22.355469 15.832031 C 22.160156 15.828125 21.984375 15.839844 21.832031 15.847656 C 20.386719 15.980469 18.503906 17.265625 16.90625 19.214844 C 15.363281 21.105469 14.917969 22.609375 15.578125 23.71875 C 16.316406 24.96875 17.175781 25.675781 18.375 26.035156 C 19.402344 26.34375 19.703125 26.527344 20.582031 27.375 C 22 28.75 22.484375 28.902344 25.464844 28.910156 C 26.71875 28.910156 28.234375 28.863281 28.828125 28.796875 C 29.707031 28.703125 30.078125 28.589844 30.800781 28.191406 C 32.722656 27.140625 33.035156 26.425781 32.46875 24.371094 C 32.292969 23.722656 32.003906 22.371094 31.828125 21.347656 C 31.652344 20.332031 31.433594 19.34375 31.339844 19.152344 C 30.910156 18.296875 29.542969 17.472656 27.183594 16.652344 C 25.886719 16.203125 23.703125 15.839844 22.355469 15.832031 Z M 21.515625 20.191406 C 22.660156 20.238281 22.917969 21.238281 22.910156 22.097656 C 22.910156 23.3125 22.738281 23.78125 22.113281 24.246094 C 21.644531 24.589844 20.5 24.660156 20.160156 24.363281 C 19.800781 24.058594 19.644531 23.480469 19.644531 22.496094 C 19.644531 21.015625 20.3125 20.191406 21.515625 20.191406 Z M 27.324219 20.191406 C 27.605469 20.1875 27.90625 20.277344 28.269531 20.457031 C 28.640625 20.644531 29.0625 20.949219 29.203125 21.128906 C 29.53125 21.5625 29.535156 22.542969 29.207031 23.625 C 28.714844 25.265625 27.722656 25.925781 26.371094 25.527344 C 25.84375 25.371094 25.230469 24.636719 25.121094 24.03125 C 24.9375 23.058594 25.738281 20.988281 26.488281 20.484375 C 26.777344 20.292969 27.042969 20.199219 27.324219 20.191406 Z M 17.765625 26.730469 C 17.308594 26.730469 16.816406 26.878906 16.347656 27.1875 C 15.777344 27.566406 14.65625 28.890625 14.359375 29.542969 C 13.796875 30.769531 14.730469 32.675781 16.136719 33.152344 C 16.625 33.316406 16.636719 33.316406 17.078125 33.097656 C 17.609375 32.84375 17.871094 32.5 18.792969 30.839844 C 19.410156 29.714844 19.578125 29.292969 19.625 28.71875 C 19.675781 28.074219 19.640625 27.957031 19.28125 27.488281 C 18.890625 26.988281 18.355469 26.734375 17.765625 26.730469 Z M 22.296875 30 C 21.238281 30 20.488281 30.667969 20 32.027344 C 19.574219 33.207031 19.527344 34.214844 19.875 34.566406 C 20.488281 35.175781 22.753906 35.671875 23.441406 35.34375 C 23.734375 35.207031 23.824219 35.003906 23.957031 34.171875 C 24.09375 33.378906 23.910156 31.605469 23.625 30.921875 C 23.375 30.308594 22.925781 30 22.296875 30 Z M 27.261719 30 C 27.167969 30 27.058594 30.003906 26.925781 30.015625 C 26.140625 30.074219 25.71875 30.339844 25.339844 31.011719 C 25.089844 31.464844 25.0625 31.625 25.113281 32.53125 C 25.183594 33.667969 25.355469 34.246094 25.660156 34.328125 C 25.988281 34.421875 27.464844 34.285156 28.113281 34.109375 C 28.910156 33.886719 29.453125 33.453125 29.453125 33.042969 C 29.453125 32.597656 28.308594 30.503906 27.902344 30.207031 C 27.699219 30.058594 27.546875 30 27.261719 30 Z M 27.261719 30 "/>
</g>
</svg>
