<?xml version="1.0" encoding="UTF-8"?>
<svg xmlns="http://www.w3.org/2000/svg" xmlns:xlink="http://www.w3.org/1999/xlink" width="48pt" height="48pt" viewBox="0 0 48 48" version="1.1">
<g id="surface1">
<path style=" stroke:none;fill-rule:evenodd;fill:rgb(40%,40%,40%);fill-opacity:1;" d="M 11.207031 2.847656 L 36.792969 2.847656 C 41.40625 2.847656 45.152344 6.59375 45.152344 11.207031 L 45.152344 36.792969 C 45.152344 41.40625 41.40625 45.152344 36.792969 45.152344 L 11.207031 45.152344 C 6.59375 45.152344 2.847656 41.40625 2.847656 36.792969 L 2.847656 11.207031 C 2.847656 6.59375 6.59375 2.847656 11.207031 2.847656 Z M 11.207031 2.847656 "/>
<path style=" stroke:none;fill-rule:nonzero;fill:rgb(99.607843%,75.294118%,2.352941%);fill-opacity:1;" d="M 18.941406 11.347656 L 15.980469 14.3125 L 11.785156 14.3125 L 11.785156 18.503906 L 8.824219 21.46875 L 11.785156 24.433594 L 11.785156 28.625 L 15.980469 28.625 L 18.941406 31.589844 L 21.90625 28.625 L 26.097656 28.625 L 26.097656 24.433594 L 29.058594 21.46875 L 26.097656 18.503906 L 26.097656 14.3125 L 21.90625 14.3125 Z M 18.941406 11.347656 "/>
<path style=" stroke:none;fill-rule:nonzero;fill:rgb(99.607843%,80.392157%,21.960784%);fill-opacity:1;" d="M 15.074219 12.121094 L 13.46875 15.988281 L 9.59375 17.597656 L 11.199219 21.46875 L 9.59375 25.339844 L 13.46875 26.949219 L 15.074219 30.816406 L 18.941406 29.214844 L 22.816406 30.816406 L 24.421875 26.949219 L 28.292969 25.339844 L 26.6875 21.46875 L 28.292969 17.597656 L 24.421875 15.988281 L 22.816406 12.121094 L 18.941406 13.722656 Z M 15.074219 12.121094 "/>
<path style=" stroke:none;fill-rule:nonzero;fill:rgb(99.607843%,85.098039%,41.568627%);fill-opacity:1;" d="M 27.292969 21.472656 C 27.292969 16.863281 23.558594 13.125 18.941406 13.125 C 14.332031 13.125 10.597656 16.863281 10.597656 21.472656 C 10.597656 26.082031 14.332031 29.824219 18.941406 29.824219 C 23.558594 29.824219 27.292969 26.082031 27.292969 21.472656 Z M 27.292969 21.472656 "/>
<path style=" stroke:none;fill-rule:nonzero;fill:rgb(84.705882%,84.705882%,84.705882%);fill-opacity:1;" d="M 24 16.410156 C 20.074219 16.410156 16.722656 18.746094 15.285156 22.046875 C 11.625 22.574219 8.824219 25.597656 8.824219 29.292969 C 8.824219 33.355469 12.21875 36.652344 16.410156 36.652344 L 32.535156 36.652344 C 36.203125 36.652344 39.175781 33.765625 39.175781 30.207031 C 39.175781 26.90625 36.613281 24.199219 33.308594 23.828125 C 32.449219 19.609375 28.605469 16.410156 24 16.410156 Z M 24 16.410156 "/>
</g>
</svg>
