<?xml version="1.0" encoding="UTF-8"?>
<svg xmlns="http://www.w3.org/2000/svg" xmlns:xlink="http://www.w3.org/1999/xlink" width="48pt" height="48pt" viewBox="0 0 48 48" version="1.1">
<g id="surface1">
<path style=" stroke:none;fill-rule:evenodd;fill:rgb(80%,80%,80%);fill-opacity:1;" d="M 11.207031 2.847656 L 36.792969 2.847656 C 41.40625 2.847656 45.152344 6.59375 45.152344 11.207031 L 45.152344 36.792969 C 45.152344 41.40625 41.40625 45.152344 36.792969 45.152344 L 11.207031 45.152344 C 6.59375 45.152344 2.847656 41.40625 2.847656 36.792969 L 2.847656 11.207031 C 2.847656 6.59375 6.59375 2.847656 11.207031 2.847656 Z M 11.207031 2.847656 "/>
<path style=" stroke:none;fill-rule:nonzero;fill:rgb(93.72549%,22.352941%,22.352941%);fill-opacity:1;" d="M 13.5 13.5 C 11.839844 13.5 10.5 14.839844 10.5 16.5 L 24 24 L 37.5 16.5 C 37.5 14.839844 36.160156 13.5 34.5 13.5 Z M 13.5 15 L 34.5 15 C 35.066406 15 35.453125 15.339844 35.707031 15.777344 L 24 22.28125 L 12.292969 15.777344 C 12.546875 15.339844 12.933594 15 13.5 15 Z M 10.5 18 L 10.5 31.5 C 10.5 33.160156 11.839844 34.5 13.5 34.5 L 34.5 34.5 C 36.160156 34.5 37.5 33.160156 37.5 31.5 L 37.5 18 L 24 25.5 Z M 12 20.550781 L 23.269531 26.8125 C 23.722656 27.0625 24.277344 27.0625 24.730469 26.8125 L 36 20.550781 L 36 31.5 C 36 32.359375 35.355469 33 34.5 33 L 13.5 33 C 12.640625 33 12 32.355469 12 31.5 Z M 12 20.550781 "/>
</g>
</svg>
