<?xml version="1.0" encoding="UTF-8"?>
<svg xmlns="http://www.w3.org/2000/svg" xmlns:xlink="http://www.w3.org/1999/xlink" width="48pt" height="48pt" viewBox="0 0 48 48" version="1.1">
<g id="surface1">
<path style=" stroke:none;fill-rule:evenodd;fill:rgb(25.882353%,41.176471%,69.019608%);fill-opacity:1;" d="M 18.558594 15.972656 C 17.332031 15.890625 16.933594 15.984375 16.933594 16.347656 C 16.933594 16.496094 16.832031 16.796875 16.71875 17.027344 C 16.511719 17.421875 16.515625 17.4375 16.824219 17.488281 C 17.15625 17.535156 17.339844 17.609375 17.425781 17.832031 C 17.515625 18.0625 17.503906 18.4375 17.453125 19.097656 C 17.402344 19.777344 17.328125 21.109375 17.285156 22.066406 C 17.25 23.019531 17.183594 24.09375 17.140625 24.453125 C 17.097656 24.8125 17 26.246094 16.925781 27.636719 C 16.855469 29.027344 16.75 30.441406 16.699219 30.78125 C 16.609375 31.378906 16.613281 31.394531 17.027344 31.394531 C 17.253906 31.394531 17.65625 31.457031 17.917969 31.53125 C 18.308594 31.644531 18.441406 31.621094 18.640625 31.410156 C 18.917969 31.113281 18.839844 31.230469 20.925781 28.214844 C 21.78125 26.980469 22.746094 25.597656 23.066406 25.144531 C 23.390625 24.691406 23.980469 23.863281 24.371094 23.300781 C 24.761719 22.746094 25.125 22.28125 25.183594 22.28125 C 25.238281 22.28125 25.28125 24.546875 25.269531 27.3125 L 25.25 32.332031 L 25.972656 32.421875 C 26.371094 32.46875 26.800781 32.515625 26.933594 32.527344 C 27.082031 32.542969 27.574219 31.957031 28.308594 30.878906 C 28.933594 29.957031 29.59375 28.996094 29.78125 28.746094 C 30.167969 28.214844 32.234375 25.25 33.769531 23.015625 C 36.628906 18.859375 36.425781 19.105469 36.980469 19.105469 C 37.253906 19.105469 37.503906 19.019531 37.53125 18.921875 C 37.5625 18.824219 37.667969 18.457031 37.769531 18.113281 C 37.917969 17.621094 37.921875 17.464844 37.78125 17.378906 C 37.582031 17.253906 32.84375 16.917969 32.6875 17.011719 C 32.578125 17.078125 32.121094 18.410156 32.121094 18.660156 C 32.121094 18.746094 32.425781 18.8125 32.84375 18.8125 C 33.238281 18.8125 33.566406 18.855469 33.566406 18.910156 C 33.566406 18.964844 33.328125 19.375 33.042969 19.816406 C 32.753906 20.261719 31.777344 21.761719 30.875 23.152344 C 29.972656 24.542969 29.167969 25.765625 29.078125 25.863281 C 28.800781 26.191406 28.609375 26.066406 28.699219 25.621094 C 28.746094 25.378906 28.824219 24.519531 28.871094 23.703125 C 28.917969 22.878906 28.972656 21.855469 29.003906 21.417969 C 29.230469 17.894531 29.253906 16.824219 29.121094 16.738281 C 29.042969 16.6875 28.417969 16.605469 27.738281 16.550781 L 26.503906 16.457031 L 25.4375 18.105469 C 24.847656 19.011719 23.558594 21.035156 22.566406 22.605469 C 21.578125 24.171875 20.675781 25.453125 20.566406 25.457031 C 20.402344 25.464844 20.378906 25.21875 20.453125 24.128906 C 20.503906 23.390625 20.578125 21.910156 20.625 20.839844 C 20.6875 19.324219 20.707031 18.605469 20.828125 18.261719 C 20.953125 17.917969 21.183594 17.941406 21.667969 17.917969 L 22.488281 17.875 L 22.75 17.152344 C 22.890625 16.753906 23.003906 16.386719 23.003906 16.339844 C 23.003906 16.292969 22.246094 16.203125 21.308594 16.152344 C 20.375 16.09375 19.136719 16.011719 18.558594 15.972656 Z M 18.558594 15.972656 "/>
<path style=" stroke:none;fill-rule:evenodd;fill:rgb(25.882353%,41.176471%,69.019608%);fill-opacity:1;" d="M 37.515625 45.003906 C 36.546875 44.886719 35.828125 44.796875 32.625 44.417969 C 27.246094 43.777344 26.503906 43.6875 25.324219 43.542969 C 22.5625 43.203125 18.777344 42.761719 17.222656 42.597656 C 16.785156 42.558594 16.035156 42.464844 15.558594 42.394531 C 15.082031 42.328125 14.652344 42.3125 14.59375 42.363281 C 14.542969 42.417969 14.425781 42.949219 14.347656 43.542969 C 14.265625 44.140625 14.152344 44.839844 14.097656 45.097656 C 14.089844 45.152344 14.140625 45.113281 14.136719 45.152344 L 36.792969 45.152344 C 37.046875 45.152344 37.265625 45.027344 37.515625 45.003906 Z M 37.515625 45.003906 "/>
<path style=" stroke:none;fill-rule:evenodd;fill:rgb(25.882353%,41.176471%,69.019608%);fill-opacity:1;" d="M 44.824219 38.449219 C 44.480469 38.410156 44.191406 38.375 43.832031 38.339844 C 43 38.25 41.828125 38.121094 41.234375 38.046875 C 40.636719 37.980469 39.464844 37.847656 38.628906 37.765625 C 37.792969 37.675781 36.230469 37.511719 35.15625 37.390625 C 34.082031 37.269531 32.296875 37.082031 31.183594 36.964844 C 27.90625 36.613281 27.734375 36.59375 27.203125 36.527344 C 26.921875 36.488281 26.308594 36.425781 25.828125 36.378906 C 25.347656 36.339844 24.40625 36.238281 23.730469 36.160156 C 23.050781 36.089844 21.847656 35.964844 21.058594 35.878906 C 20.261719 35.800781 19.285156 35.703125 18.886719 35.65625 C 16.519531 35.402344 15.761719 35.363281 15.644531 35.511719 C 15.578125 35.59375 15.484375 36.019531 15.4375 36.457031 C 15.390625 36.894531 15.296875 37.550781 15.230469 37.921875 L 15.105469 38.589844 L 15.910156 38.683594 C 16.355469 38.734375 17.402344 38.871094 18.234375 38.988281 C 19.066406 39.109375 20.308594 39.277344 20.984375 39.355469 C 21.65625 39.4375 22.734375 39.566406 23.371094 39.644531 C 24.003906 39.722656 25.078125 39.84375 25.753906 39.921875 C 26.433594 39.996094 28.316406 40.222656 29.949219 40.425781 C 31.582031 40.636719 33.988281 40.933594 35.300781 41.09375 C 39.636719 41.613281 40.136719 41.675781 41.160156 41.8125 C 41.609375 41.871094 42.441406 41.96875 43.15625 42.046875 C 44.003906 41.019531 44.542969 39.800781 44.824219 38.449219 Z M 44.824219 38.449219 "/>
<path style=" stroke:none;fill-rule:evenodd;fill:rgb(25.882353%,41.176471%,69.019608%);fill-opacity:1;" d="M 45.152344 31.589844 C 45.011719 31.574219 44.871094 31.558594 44.703125 31.535156 C 38.375 30.90625 38.46875 30.910156 38.339844 31.394531 C 38.285156 31.59375 38.199219 32.285156 38.144531 32.925781 L 38.046875 34.097656 L 39.097656 34.199219 C 39.671875 34.25 40.375 34.324219 40.652344 34.355469 C 40.933594 34.386719 41.84375 34.484375 42.675781 34.578125 C 43.511719 34.667969 44.550781 34.792969 44.988281 34.859375 C 45.035156 34.863281 45.105469 34.863281 45.152344 34.871094 Z M 45.152344 31.589844 "/>
<path style=" stroke:none;fill-rule:evenodd;fill:rgb(25.882353%,41.176471%,69.019608%);fill-opacity:1;" d="M 45.152344 24.699219 C 44.765625 24.667969 44.386719 24.636719 43.980469 24.597656 C 41.152344 24.34375 39.292969 24.214844 39.191406 24.253906 C 39.074219 24.3125 38.707031 27.1875 38.808594 27.285156 C 38.855469 27.332031 39.53125 27.433594 40.316406 27.503906 C 41.097656 27.578125 42.453125 27.703125 43.328125 27.792969 C 43.878906 27.84375 44.535156 27.902344 45.152344 27.957031 Z M 45.152344 24.699219 "/>
<path style=" stroke:none;fill-rule:evenodd;fill:rgb(25.882353%,41.176471%,69.019608%);fill-opacity:1;" d="M 45.152344 17.824219 C 44.328125 17.769531 43.46875 17.714844 42.71875 17.667969 C 41.433594 17.582031 40.328125 17.503906 40.261719 17.496094 C 39.886719 17.433594 39.800781 17.582031 39.71875 18.484375 C 39.667969 19.019531 39.59375 19.699219 39.550781 19.984375 C 39.503906 20.3125 39.488281 20.480469 39.722656 20.578125 C 39.964844 20.675781 40.449219 20.707031 41.402344 20.765625 C 42.222656 20.8125 43.371094 20.910156 43.953125 20.988281 C 44.296875 21.03125 44.734375 21.046875 45.152344 21.074219 Z M 45.152344 17.824219 "/>
<path style=" stroke:none;fill-rule:evenodd;fill:rgb(94.901961%,96.862745%,98.039216%);fill-opacity:1;" d="M 45.152344 12.3125 L 13.402344 10.222656 L 7.566406 44.246094 C 8.675781 44.785156 9.886719 45.152344 11.214844 45.152344 L 14.136719 45.152344 C 14.140625 45.113281 14.089844 45.152344 14.097656 45.097656 C 14.152344 44.839844 14.265625 44.140625 14.347656 43.542969 C 14.425781 42.949219 14.542969 42.417969 14.59375 42.363281 C 14.652344 42.3125 15.082031 42.328125 15.558594 42.394531 C 16.035156 42.464844 16.785156 42.558594 17.222656 42.597656 C 18.777344 42.761719 22.5625 43.203125 25.324219 43.542969 C 26.503906 43.6875 27.246094 43.777344 32.625 44.417969 C 35.828125 44.796875 36.546875 44.886719 37.515625 45.003906 C 39.808594 44.800781 41.777344 43.71875 43.15625 42.046875 C 42.441406 41.96875 41.609375 41.871094 41.160156 41.8125 C 40.136719 41.675781 39.636719 41.613281 35.300781 41.09375 C 33.988281 40.933594 31.582031 40.636719 29.949219 40.425781 C 28.316406 40.222656 26.433594 39.996094 25.753906 39.921875 C 25.078125 39.84375 24.003906 39.722656 23.371094 39.644531 C 22.734375 39.566406 21.65625 39.4375 20.984375 39.355469 C 20.308594 39.277344 19.066406 39.109375 18.234375 38.988281 C 17.402344 38.871094 16.355469 38.734375 15.910156 38.683594 L 15.105469 38.589844 L 15.230469 37.921875 C 15.296875 37.550781 15.390625 36.894531 15.4375 36.457031 C 15.484375 36.019531 15.578125 35.59375 15.644531 35.511719 C 15.761719 35.363281 16.519531 35.402344 18.886719 35.65625 C 19.285156 35.703125 20.261719 35.800781 21.058594 35.878906 C 21.847656 35.964844 23.050781 36.089844 23.730469 36.160156 C 24.40625 36.238281 25.347656 36.339844 25.828125 36.378906 C 26.308594 36.425781 26.921875 36.488281 27.203125 36.527344 C 27.734375 36.59375 27.90625 36.613281 31.183594 36.964844 C 32.296875 37.082031 34.082031 37.269531 35.15625 37.390625 C 36.230469 37.511719 37.792969 37.675781 38.628906 37.765625 C 39.464844 37.847656 40.636719 37.980469 41.234375 38.046875 C 41.828125 38.121094 43 38.25 43.832031 38.339844 C 44.191406 38.375 44.480469 38.410156 44.824219 38.449219 C 44.9375 37.894531 45.152344 37.378906 45.152344 36.792969 L 45.152344 34.871094 C 45.105469 34.863281 45.035156 34.863281 44.988281 34.859375 C 44.550781 34.792969 43.511719 34.667969 42.675781 34.578125 C 41.84375 34.484375 40.933594 34.386719 40.652344 34.355469 C 40.375 34.324219 39.671875 34.25 39.097656 34.199219 L 38.046875 34.097656 L 38.144531 32.925781 C 38.199219 32.285156 38.285156 31.59375 38.339844 31.394531 C 38.46875 30.910156 38.375 30.90625 44.703125 31.535156 C 44.871094 31.558594 45.011719 31.574219 45.152344 31.589844 L 45.152344 27.957031 C 44.535156 27.902344 43.878906 27.84375 43.328125 27.792969 C 42.453125 27.703125 41.097656 27.578125 40.316406 27.503906 C 39.53125 27.433594 38.855469 27.332031 38.808594 27.285156 C 38.707031 27.1875 39.074219 24.3125 39.191406 24.253906 C 39.292969 24.214844 41.152344 24.34375 43.980469 24.597656 C 44.386719 24.636719 44.765625 24.667969 45.152344 24.699219 L 45.152344 21.074219 C 44.734375 21.046875 44.296875 21.03125 43.953125 20.988281 C 43.371094 20.910156 42.222656 20.8125 41.402344 20.765625 C 40.449219 20.707031 39.964844 20.675781 39.722656 20.578125 C 39.488281 20.480469 39.503906 20.3125 39.550781 19.984375 C 39.59375 19.699219 39.667969 19.019531 39.71875 18.484375 C 39.800781 17.582031 39.886719 17.433594 40.261719 17.496094 C 40.328125 17.503906 41.433594 17.582031 42.71875 17.667969 C 43.46875 17.714844 44.328125 17.769531 45.152344 17.824219 Z M 18.558594 15.972656 C 19.136719 16.011719 20.375 16.09375 21.308594 16.144531 C 22.246094 16.203125 23.003906 16.292969 23.003906 16.339844 C 23.003906 16.386719 22.890625 16.753906 22.75 17.152344 L 22.488281 17.875 L 21.667969 17.917969 C 21.183594 17.941406 20.953125 17.917969 20.828125 18.261719 C 20.707031 18.605469 20.6875 19.324219 20.625 20.839844 C 20.578125 21.910156 20.503906 23.390625 20.453125 24.128906 C 20.378906 25.21875 20.402344 25.464844 20.566406 25.457031 C 20.675781 25.453125 21.578125 24.171875 22.566406 22.605469 C 23.558594 21.035156 24.847656 19.011719 25.4375 18.105469 L 26.503906 16.457031 L 27.738281 16.550781 C 28.417969 16.605469 29.042969 16.6875 29.121094 16.738281 C 29.253906 16.824219 29.230469 17.894531 29.003906 21.417969 C 28.972656 21.855469 28.917969 22.878906 28.871094 23.703125 C 28.824219 24.519531 28.746094 25.378906 28.699219 25.613281 C 28.609375 26.066406 28.800781 26.191406 29.078125 25.863281 C 29.167969 25.765625 29.972656 24.542969 30.875 23.152344 C 31.78125 21.761719 32.753906 20.261719 33.042969 19.816406 C 33.328125 19.375 33.566406 18.964844 33.566406 18.910156 C 33.566406 18.855469 33.238281 18.8125 32.84375 18.8125 C 32.425781 18.8125 32.121094 18.746094 32.121094 18.660156 C 32.121094 18.410156 32.578125 17.078125 32.6875 17.011719 C 32.84375 16.917969 37.582031 17.253906 37.78125 17.378906 C 37.921875 17.464844 37.917969 17.621094 37.769531 18.113281 C 37.667969 18.457031 37.5625 18.824219 37.53125 18.921875 C 37.503906 19.019531 37.253906 19.097656 36.980469 19.097656 C 36.425781 19.097656 36.628906 18.859375 33.769531 23.015625 C 32.234375 25.25 30.167969 28.214844 29.78125 28.746094 C 29.59375 28.996094 28.933594 29.957031 28.308594 30.878906 C 27.574219 31.957031 27.082031 32.542969 26.933594 32.527344 C 26.800781 32.515625 26.371094 32.46875 25.972656 32.421875 L 25.25 32.332031 L 25.269531 27.3125 C 25.28125 24.546875 25.238281 22.28125 25.183594 22.28125 C 25.125 22.28125 24.761719 22.746094 24.371094 23.300781 C 23.980469 23.863281 23.390625 24.691406 23.066406 25.144531 C 22.746094 25.597656 21.78125 26.980469 20.925781 28.214844 C 18.839844 31.230469 18.917969 31.113281 18.640625 31.410156 C 18.441406 31.621094 18.308594 31.644531 17.917969 31.53125 C 17.65625 31.457031 17.253906 31.394531 17.027344 31.394531 C 16.613281 31.394531 16.609375 31.378906 16.699219 30.78125 C 16.75 30.441406 16.855469 29.027344 16.925781 27.636719 C 17 26.246094 17.097656 24.8125 17.140625 24.453125 C 17.183594 24.09375 17.25 23.019531 17.285156 22.066406 C 17.328125 21.109375 17.402344 19.777344 17.453125 19.097656 C 17.503906 18.4375 17.515625 18.0625 17.425781 17.832031 C 17.339844 17.609375 17.15625 17.535156 16.824219 17.488281 C 16.515625 17.4375 16.511719 17.421875 16.71875 17.027344 C 16.832031 16.796875 16.933594 16.496094 16.933594 16.347656 C 16.933594 15.984375 17.332031 15.890625 18.558594 15.972656 Z M 18.558594 15.972656 "/>
<path style=" stroke:none;fill-rule:evenodd;fill:rgb(25.882353%,41.176471%,69.019608%);fill-opacity:1;" d="M 11.214844 2.847656 C 6.578125 2.847656 2.847656 6.578125 2.847656 11.214844 L 2.847656 36.792969 C 2.847656 40.097656 4.792969 42.886719 7.566406 44.246094 L 13.402344 10.222656 L 45.152344 12.3125 L 45.152344 11.214844 C 45.152344 6.578125 41.421875 2.847656 36.792969 2.847656 Z M 11.214844 2.847656 "/>
</g>
</svg>
