<?xml version="1.0" encoding="UTF-8"?>
<svg xmlns="http://www.w3.org/2000/svg" xmlns:xlink="http://www.w3.org/1999/xlink" width="48pt" height="48pt" viewBox="0 0 48 48" version="1.1">
<g id="surface1">
<path style=" stroke:none;fill-rule:evenodd;fill:rgb(92.54902%,92.54902%,92.54902%);fill-opacity:1;" d="M 25.421875 2.847656 L 25.421875 18.574219 C 25.421875 18.988281 25.761719 19.324219 26.171875 19.324219 L 45.152344 19.324219 L 45.152344 11.214844 C 45.152344 6.578125 41.421875 2.847656 36.792969 2.847656 Z M 25.421875 2.847656 "/>
<path style=" stroke:none;fill-rule:evenodd;fill:rgb(29.019608%,70.196078%,89.411765%);fill-opacity:1;" d="M 36.792969 45.152344 C 41.421875 45.152344 45.152344 41.421875 45.152344 36.792969 L 45.152344 19.324219 L 26.171875 19.324219 C 25.761719 19.324219 25.421875 18.988281 25.421875 18.574219 L 25.421875 2.847656 L 11.207031 2.847656 C 6.578125 2.847656 2.847656 6.578125 2.847656 11.214844 L 2.847656 36.792969 C 2.847656 41.421875 6.578125 45.152344 11.207031 45.152344 Z M 36.792969 45.152344 "/>
</g>
</svg>
