<?xml version="1.0" encoding="UTF-8"?>
<svg xmlns="http://www.w3.org/2000/svg" xmlns:xlink="http://www.w3.org/1999/xlink" width="48pt" height="48pt" viewBox="0 0 48 48" version="1.1">
<g id="surface1">
<path style=" stroke:none;fill-rule:evenodd;fill:rgb(99.607843%,80.392157%,21.960784%);fill-opacity:1;" d="M 11.207031 2.847656 L 36.792969 2.847656 C 41.40625 2.847656 45.152344 6.59375 45.152344 11.207031 L 45.152344 36.792969 C 45.152344 41.40625 41.40625 45.152344 36.792969 45.152344 L 11.207031 45.152344 C 6.59375 45.152344 2.847656 41.40625 2.847656 36.792969 L 2.847656 11.207031 C 2.847656 6.59375 6.59375 2.847656 11.207031 2.847656 Z M 11.207031 2.847656 "/>
<path style=" stroke:none;fill-rule:nonzero;fill:rgb(24.705882%,24.705882%,24.705882%);fill-opacity:1;" d="M 23.886719 9 C 18.984375 9 16.0625 12.058594 16.0625 12.058594 L 20.558594 20.59375 C 21.566406 19.886719 22.765625 19.503906 24 19.5 C 25.167969 19.5 26.300781 19.84375 27.277344 20.480469 L 31.714844 12.058594 C 31.714844 12.058594 28.78125 9 23.886719 9 Z M 24 22.5 C 22.34375 22.5 21 23.84375 21 25.5 C 21 27.15625 22.34375 28.5 24 28.5 C 25.65625 28.5 27 27.15625 27 25.5 C 27 23.84375 25.65625 22.5 24 22.5 Z M 30.082031 25.324219 C 30.066406 25.761719 29.996094 26.203125 29.890625 26.640625 C 29.875 26.703125 29.859375 26.769531 29.84375 26.832031 C 29.839844 26.863281 29.828125 26.894531 29.824219 26.925781 C 29.417969 28.578125 28.328125 29.984375 26.824219 30.785156 L 32.332031 38.875 C 32.332031 38.875 36.558594 37.964844 39.003906 33.890625 C 41.453125 29.816406 40.15625 25.859375 40.15625 25.859375 Z M 17.917969 25.441406 L 7.839844 25.984375 C 7.839844 25.984375 6.550781 29.953125 9 34.027344 C 11.449219 38.097656 15.667969 39 15.667969 39 L 21.1875 30.886719 C 20.652344 30.566406 20.167969 30.171875 19.730469 29.707031 C 19.652344 29.628906 19.578125 29.546875 19.503906 29.464844 C 19.4375 29.386719 19.371094 29.3125 19.308594 29.234375 C 19.300781 29.234375 19.300781 29.230469 19.300781 29.230469 C 19.152344 29.035156 19.011719 28.832031 18.886719 28.625 C 18.871094 28.605469 18.855469 28.582031 18.84375 28.5625 C 18.8125 28.515625 18.796875 28.472656 18.777344 28.425781 C 18.703125 28.308594 18.640625 28.183594 18.578125 28.050781 C 18.167969 27.214844 17.941406 26.328125 17.917969 25.441406 Z M 17.917969 25.441406 "/>
</g>
</svg>
