<?xml version="1.0" encoding="UTF-8"?>
<svg xmlns="http://www.w3.org/2000/svg" xmlns:xlink="http://www.w3.org/1999/xlink" width="48pt" height="48pt" viewBox="0 0 48 48" version="1.1">
<g id="surface1">
<path style=" stroke:none;fill-rule:evenodd;fill:rgb(98.431373%,47.843137%,14.117647%);fill-opacity:1;" d="M 11.207031 2.847656 L 36.792969 2.847656 C 41.40625 2.847656 45.152344 6.59375 45.152344 11.207031 L 45.152344 36.792969 C 45.152344 41.40625 41.40625 45.152344 36.792969 45.152344 L 11.207031 45.152344 C 6.59375 45.152344 2.847656 41.40625 2.847656 36.792969 L 2.847656 11.207031 C 2.847656 6.59375 6.59375 2.847656 11.207031 2.847656 Z M 11.207031 2.847656 "/>
<path style=" stroke:none;fill-rule:nonzero;fill:rgb(100%,100%,100%);fill-opacity:1;" d="M 16.5 9 C 12.359375 9 9 12.359375 9 16.5 C 9 20.640625 12.359375 24 16.5 24 C 12.359375 24 9 27.359375 9 31.5 C 9 35.640625 12.359375 39 16.5 39 C 20.640625 39 24 35.640625 24 31.5 C 23.996094 31.328125 23.988281 31.15625 23.972656 30.988281 C 23.984375 30.988281 23.988281 30.988281 24 30.988281 C 24.003906 30.988281 24.011719 30.988281 24.015625 30.988281 C 24.003906 31.160156 24 31.328125 24 31.5 C 24 35.640625 27.359375 39 31.5 39 C 35.640625 39 39 35.640625 39 31.5 C 39 27.359375 35.640625 24 31.5 24 C 31.488281 24 31.484375 24 31.472656 24.003906 C 31.472656 24 31.472656 24 31.472656 24 C 31.484375 24 31.488281 24 31.5 24 C 35.640625 24 39 20.640625 39 16.5 C 39 12.359375 35.640625 9 31.5 9 C 27.558594 9 24.285156 12.058594 24.015625 15.988281 C 24.011719 15.988281 24.003906 15.988281 24 15.988281 C 23.988281 15.988281 23.984375 15.988281 23.972656 15.988281 C 23.703125 12.058594 20.441406 9.003906 16.5 9 Z M 31.484375 13.464844 C 32.503906 13.453125 33.464844 13.964844 34.019531 14.8125 C 34.582031 15.667969 34.671875 16.75 34.253906 17.683594 C 33.378906 19.730469 32.621094 21.8125 31.097656 23.699219 C 29.589844 25.582031 26.988281 27 24 27 C 22.207031 27 22.222656 27.078125 21.738281 27.652344 C 21.253906 28.21875 20.457031 29.9375 19.25 32.703125 C 18.839844 33.714844 17.910156 34.421875 16.828125 34.550781 C 15.746094 34.683594 14.675781 34.21875 14.035156 33.332031 C 13.394531 32.449219 13.285156 31.285156 13.75 30.296875 C 14.925781 27.613281 15.625 25.582031 17.167969 23.765625 C 18.714844 21.949219 21.292969 21 24 21 C 25.511719 21 25.765625 20.761719 26.425781 19.9375 C 27.089844 19.113281 27.828125 17.449219 28.746094 15.316406 C 29.203125 14.207031 30.28125 13.472656 31.484375 13.464844 Z M 16.5 13.5 C 18.15625 13.5 19.5 14.84375 19.5 16.5 C 19.5 18.15625 18.15625 19.5 16.5 19.5 C 14.84375 19.5 13.5 18.15625 13.5 16.5 C 13.5 14.84375 14.84375 13.5 16.5 13.5 Z M 31.5 28.5 C 33.15625 28.5 34.5 29.84375 34.5 31.5 C 34.5 33.15625 33.15625 34.5 31.5 34.5 C 29.84375 34.5 28.5 33.15625 28.5 31.5 C 28.5 29.84375 29.84375 28.5 31.5 28.5 Z M 31.5 28.5 "/>
</g>
</svg>
