<?xml version="1.0" encoding="UTF-8"?>
<svg xmlns="http://www.w3.org/2000/svg" xmlns:xlink="http://www.w3.org/1999/xlink" width="48pt" height="48pt" viewBox="0 0 48 48" version="1.1">
<g id="surface1">
<path style=" stroke:none;fill-rule:evenodd;fill:rgb(58.823529%,10.196078%,10.196078%);fill-opacity:1;" d="M 16.269531 45.152344 L 36.792969 45.152344 C 41.421875 45.152344 45.152344 41.421875 45.152344 36.792969 L 45.152344 11.214844 C 45.152344 6.578125 41.421875 2.847656 36.792969 2.847656 L 16.269531 2.847656 Z M 16.269531 45.152344 "/>
<path style=" stroke:none;fill-rule:evenodd;fill:rgb(47.058824%,8.235294%,8.235294%);fill-opacity:1;" d="M 16.269531 45.152344 L 16.269531 2.847656 L 11.207031 2.847656 C 6.578125 2.847656 2.847656 6.578125 2.847656 11.214844 L 2.847656 36.792969 C 2.847656 41.421875 6.578125 45.152344 11.207031 45.152344 Z M 16.269531 45.152344 "/>
<path style=" stroke:none;fill-rule:nonzero;fill:rgb(100%,100%,100%);fill-opacity:1;" d="M 27.0625 9.511719 L 33.0625 9.511719 L 33.0625 39.511719 L 27.0625 39.511719 Z M 27.0625 9.511719 "/>
<path style=" stroke:none;fill-rule:nonzero;fill:rgb(100%,100%,100%);fill-opacity:1;" d="M 40.5625 17.011719 L 40.5625 23.011719 L 19.5625 23.011719 L 19.5625 17.011719 Z M 40.5625 17.011719 "/>
</g>
</svg>
