<?xml version="1.0" encoding="UTF-8"?>
<svg xmlns="http://www.w3.org/2000/svg" xmlns:xlink="http://www.w3.org/1999/xlink" width="48pt" height="48pt" viewBox="0 0 48 48" version="1.1">
<g id="surface1">
<path style=" stroke:none;fill-rule:evenodd;fill:rgb(100%,100%,100%);fill-opacity:1;" d="M 22.433594 16.167969 L 16.167969 17.734375 L 9.902344 31.832031 L 24 38.097656 L 33.394531 30.265625 L 31.832031 20.871094 Z M 22.433594 16.167969 "/>
<path style=" stroke:none;fill-rule:evenodd;fill:rgb(76.862745%,74.509804%,63.529412%);fill-opacity:1;" d="M 45.152344 36.425781 C 43.140625 35.21875 33.902344 30.296875 33.394531 30.265625 L 24 38.097656 L 23.964844 38.082031 L 23.964844 45.152344 L 36.792969 45.152344 C 41.421875 45.152344 45.152344 41.421875 45.152344 36.792969 Z M 45.152344 36.425781 "/>
<path style=" stroke:none;fill-rule:evenodd;fill:rgb(91.372549%,90.196078%,86.666667%);fill-opacity:1;" d="M 44.535156 8.144531 C 42.734375 10.324219 35.246094 17.597656 31.832031 20.871094 L 33.394531 30.265625 L 45.152344 36.425781 L 45.152344 11.207031 C 45.152344 10.121094 44.910156 9.097656 44.535156 8.144531 Z M 44.535156 8.144531 "/>
<path style=" stroke:none;fill-rule:evenodd;fill:rgb(23.921569%,39.607843%,78.431373%);fill-opacity:1;" d="M 22.433594 2.847656 L 22.433594 16.167969 L 31.832031 20.871094 C 36.078125 16.691406 40.050781 13.027344 44.535156 8.144531 C 43.316406 5.046875 40.339844 2.847656 36.792969 2.847656 Z M 22.433594 2.847656 "/>
<path style=" stroke:none;fill-rule:evenodd;fill:rgb(69.019608%,67.058824%,51.764706%);fill-opacity:1;" d="M 2.847656 34.9375 L 2.847656 36.792969 C 2.847656 41.421875 6.578125 45.152344 11.207031 45.152344 L 23.964844 45.152344 L 23.964844 38.082031 L 9.957031 31.855469 Z M 2.847656 34.9375 "/>
<path style=" stroke:none;fill-rule:evenodd;fill:rgb(83.921569%,82.352941%,75.294118%);fill-opacity:1;" d="M 2.847656 34.9375 L 9.957031 31.855469 L 9.902344 31.832031 L 16.15625 17.761719 L 3.09375 9.984375 C 3.03125 10.402344 2.847656 10.777344 2.847656 11.207031 Z M 2.847656 34.9375 "/>
<path style=" stroke:none;fill-rule:evenodd;fill:rgb(86.666667%,33.72549%,22.352941%);fill-opacity:1;" d="M 3.09375 9.984375 L 16.15625 17.761719 L 16.167969 17.734375 L 22.433594 16.167969 L 22.433594 2.847656 L 11.207031 2.847656 C 7.011719 2.847656 3.703125 5.964844 3.09375 9.984375 Z M 3.09375 9.984375 "/>
</g>
</svg>
