<?xml version="1.0" encoding="UTF-8"?>
<svg xmlns="http://www.w3.org/2000/svg" xmlns:xlink="http://www.w3.org/1999/xlink" width="48pt" height="48pt" viewBox="0 0 48 48" version="1.1">
<g id="surface1">
<path style=" stroke:none;fill-rule:evenodd;fill:rgb(95.686275%,72.54902%,19.607843%);fill-opacity:1;" d="M 11.207031 2.847656 L 36.792969 2.847656 C 41.40625 2.847656 45.152344 6.59375 45.152344 11.207031 L 45.152344 36.792969 C 45.152344 41.40625 41.40625 45.152344 36.792969 45.152344 L 11.207031 45.152344 C 6.59375 45.152344 2.847656 41.40625 2.847656 36.792969 L 2.847656 11.207031 C 2.847656 6.59375 6.59375 2.847656 11.207031 2.847656 Z M 11.207031 2.847656 "/>
<path style=" stroke:none;fill-rule:nonzero;fill:rgb(100%,100%,100%);fill-opacity:1;" d="M 25.265625 9 C 16.058594 9 11.128906 15.582031 10.238281 22.769531 C 9.628906 27.71875 10.753906 32.355469 12.222656 35.441406 C 14.375 39.390625 14.941406 39.621094 18.316406 38.214844 C 25.175781 35.347656 32.003906 32.046875 37.21875 29.285156 C 39.21875 28.230469 39.097656 23.972656 38.890625 21.5 C 38.386719 15.332031 34.480469 9 25.265625 9 Z M 25.265625 9 "/>
<path style=" stroke:none;fill-rule:nonzero;fill:rgb(26.666667%,26.666667%,26.666667%);fill-opacity:1;" d="M 22.5 18.214844 C 22.308594 18.21875 22.121094 18.265625 21.941406 18.347656 C 19.683594 19.238281 18.46875 20.355469 15.871094 20.683594 C 14.347656 20.875 12.167969 20.910156 10.644531 20.730469 C 9.777344 20.609375 9 21.308594 9 22.214844 L 9 28.5 C 9 29.347656 9.675781 30.027344 10.5 30 C 12.855469 29.824219 15.285156 29.53125 17.488281 28.765625 C 17.488281 28.765625 24 26.613281 24 19.714844 C 24 18.871094 23.324219 18.191406 22.5 18.214844 Z M 22.5 18.214844 "/>
<path style=" stroke:none;fill-rule:nonzero;fill:rgb(100%,100%,100%);fill-opacity:1;" d="M 22.925781 20.785156 C 22.925781 21.375 22.449219 21.859375 21.859375 21.859375 C 21.265625 21.859375 20.785156 21.375 20.785156 20.785156 C 20.785156 20.191406 21.265625 19.714844 21.859375 19.714844 C 22.449219 19.714844 22.925781 20.191406 22.925781 20.785156 Z M 22.925781 20.785156 "/>
</g>
</svg>
