<?xml version="1.0" encoding="UTF-8"?>
<svg xmlns="http://www.w3.org/2000/svg" xmlns:xlink="http://www.w3.org/1999/xlink" width="48pt" height="48pt" viewBox="0 0 48 48" version="1.1">
<g id="surface1">
<path style=" stroke:none;fill-rule:evenodd;fill:rgb(96.078431%,51.764706%,6.666667%);fill-opacity:1;" d="M 11.207031 2.847656 L 36.792969 2.847656 C 41.40625 2.847656 45.152344 6.59375 45.152344 11.207031 L 45.152344 36.792969 C 45.152344 41.40625 41.40625 45.152344 36.792969 45.152344 L 11.207031 45.152344 C 6.59375 45.152344 2.847656 41.40625 2.847656 36.792969 L 2.847656 11.207031 C 2.847656 6.59375 6.59375 2.847656 11.207031 2.847656 Z M 11.207031 2.847656 "/>
<path style=" stroke:none;fill-rule:evenodd;fill:rgb(100%,100%,100%);fill-opacity:1;" d="M 28.878906 13.160156 L 24.636719 18.296875 C 22.296875 21.121094 20.386719 23.484375 20.386719 23.550781 C 20.386719 23.621094 22.386719 26.1875 24.828125 29.261719 L 29.265625 34.839844 L 33.917969 34.839844 C 37.621094 34.839844 38.546875 34.808594 38.441406 34.671875 C 38.191406 34.339844 29.972656 23.996094 29.792969 23.777344 C 29.621094 23.574219 29.988281 23.078125 33.707031 18.589844 C 35.96875 15.859375 37.902344 13.519531 38 13.394531 C 38.167969 13.171875 37.933594 13.160156 33.53125 13.160156 Z M 10.75 13.160156 C 10.75 13.160156 18.609375 23.546875 18.449219 23.511719 C 18.46875 23.558594 16.652344 25.90625 14.40625 28.71875 C 12.167969 31.535156 10.152344 34.066406 9.9375 34.339844 L 9.546875 34.839844 L 18.863281 34.839844 L 21.046875 32.109375 C 22.558594 30.214844 23.1875 29.328125 23.105469 29.214844 C 23.035156 29.125 22 27.8125 20.796875 26.296875 L 18.609375 23.546875 L 20.902344 20.785156 C 22.160156 19.265625 23.175781 18.011719 23.160156 18 Z M 10.75 13.160156 "/>
</g>
</svg>
