<?xml version="1.0" encoding="UTF-8"?>
<svg xmlns="http://www.w3.org/2000/svg" xmlns:xlink="http://www.w3.org/1999/xlink" width="48pt" height="48pt" viewBox="0 0 48 48" version="1.1">
<g id="surface1">
<path style=" stroke:none;fill-rule:evenodd;fill:rgb(55.686275%,55.686275%,55.686275%);fill-opacity:1;" d="M 24.019531 12.644531 C 23.753906 12.644531 23.484375 12.65625 23.21875 12.675781 C 22.84375 12.703125 22.464844 12.75 22.09375 12.8125 C 21.71875 12.875 21.347656 12.957031 20.984375 13.0625 C 20.621094 13.160156 20.261719 13.28125 19.910156 13.417969 C 19.558594 13.558594 19.207031 13.707031 18.871094 13.878906 C 18.535156 14.050781 18.207031 14.238281 17.886719 14.449219 C 17.566406 14.652344 17.261719 14.871094 16.964844 15.105469 C 16.667969 15.339844 16.386719 15.59375 16.113281 15.855469 C 15.839844 16.121094 15.582031 16.394531 15.339844 16.6875 C 15.09375 16.980469 14.863281 17.277344 14.652344 17.589844 C 14.4375 17.902344 14.238281 18.222656 14.058594 18.558594 C 13.875 18.890625 13.714844 19.230469 13.566406 19.578125 C 13.417969 19.925781 13.285156 20.28125 13.175781 20.644531 C 13.0625 21.003906 12.96875 21.375 12.894531 21.746094 C 12.816406 22.113281 12.765625 22.488281 12.722656 22.863281 C 12.6875 23.246094 12.671875 23.621094 12.671875 24 C 12.671875 24.265625 12.683594 24.535156 12.699219 24.800781 C 12.722656 25.183594 12.769531 25.558594 12.832031 25.933594 C 12.894531 26.300781 12.980469 26.671875 13.082031 27.035156 C 13.183594 27.402344 13.300781 27.761719 13.441406 28.113281 C 13.578125 28.46875 13.730469 28.8125 13.902344 29.152344 C 14.074219 29.488281 14.265625 29.816406 14.46875 30.136719 C 14.671875 30.453125 14.890625 30.761719 15.128906 31.058594 C 15.363281 31.355469 15.613281 31.640625 15.878906 31.910156 C 16.140625 32.183594 16.421875 32.4375 16.707031 32.683594 C 17 32.925781 17.300781 33.15625 17.613281 33.371094 C 17.921875 33.582031 18.246094 33.78125 18.578125 33.964844 C 18.910156 34.144531 19.25 34.308594 19.597656 34.457031 C 19.949219 34.605469 20.308594 34.734375 20.667969 34.84375 C 21.03125 34.957031 21.394531 35.050781 21.765625 35.125 C 22.136719 35.203125 22.511719 35.261719 22.890625 35.296875 C 23.265625 35.332031 23.644531 35.355469 24.019531 35.355469 C 24.292969 35.355469 24.558594 35.34375 24.824219 35.324219 C 25.203125 35.296875 25.578125 35.25 25.953125 35.1875 C 26.328125 35.125 26.699219 35.042969 27.0625 34.9375 C 27.421875 34.839844 27.78125 34.71875 28.136719 34.582031 C 28.488281 34.441406 28.832031 34.292969 29.171875 34.121094 C 29.511719 33.949219 29.839844 33.761719 30.15625 33.550781 C 30.472656 33.347656 30.78125 33.128906 31.078125 32.894531 C 31.375 32.660156 31.660156 32.40625 31.933594 32.144531 C 32.203125 31.878906 32.464844 31.605469 32.707031 31.3125 C 32.949219 31.019531 33.175781 30.722656 33.390625 30.410156 C 33.605469 30.097656 33.800781 29.777344 33.984375 29.441406 C 34.167969 29.109375 34.332031 28.769531 34.480469 28.421875 C 34.625 28.074219 34.753906 27.71875 34.871094 27.355469 C 34.980469 26.996094 35.074219 26.625 35.152344 26.253906 C 35.222656 25.886719 35.28125 25.511719 35.316406 25.136719 C 35.355469 24.753906 35.375 24.378906 35.375 24 C 35.375 23.734375 35.363281 23.464844 35.34375 23.199219 C 35.316406 22.816406 35.277344 22.441406 35.207031 22.066406 C 35.144531 21.699219 35.0625 21.328125 34.964844 20.964844 C 34.859375 20.597656 34.738281 20.238281 34.605469 19.886719 C 34.46875 19.53125 34.3125 19.1875 34.140625 18.847656 C 33.96875 18.511719 33.78125 18.183594 33.578125 17.863281 C 33.371094 17.546875 33.152344 17.238281 32.917969 16.941406 C 32.683594 16.644531 32.433594 16.359375 32.167969 16.089844 C 31.902344 15.816406 31.625 15.5625 31.332031 15.316406 C 31.046875 15.074219 30.746094 14.84375 30.433594 14.628906 C 30.121094 14.417969 29.796875 14.21875 29.464844 14.035156 C 29.136719 13.855469 28.792969 13.691406 28.441406 13.542969 C 28.09375 13.394531 27.738281 13.265625 27.375 13.15625 C 27.015625 13.042969 26.652344 12.949219 26.277344 12.875 C 25.90625 12.796875 25.53125 12.738281 25.15625 12.703125 C 24.78125 12.667969 24.402344 12.644531 24.019531 12.644531 Z M 24.019531 12.644531 "/>
<path style=" stroke:none;fill-rule:evenodd;fill:rgb(55.686275%,55.686275%,55.686275%);fill-opacity:1;" d="M 34.269531 28.855469 C 34.277344 28.84375 34.28125 28.84375 34.285156 28.839844 C 34.292969 28.824219 34.292969 28.808594 34.300781 28.792969 C 34.292969 28.8125 34.28125 28.832031 34.269531 28.847656 Z M 34.269531 28.855469 "/>
<path style=" stroke:none;fill-rule:evenodd;fill:rgb(100%,34.117647%,34.117647%);fill-opacity:1;" d="M 6.277344 43.355469 C 7.332031 43.800781 8.386719 44.277344 9.496094 44.542969 C 11.105469 44.925781 12.753906 45.125 14.417969 45.125 C 15.828125 45.125 17.207031 44.984375 18.535156 44.722656 C 19.871094 44.457031 21.15625 44.074219 22.386719 43.574219 C 24.839844 42.566406 27.066406 41.113281 28.957031 39.3125 C 30.847656 37.511719 32.40625 35.363281 33.527344 32.96875 C 34.089844 31.777344 34.535156 30.515625 34.871094 29.207031 C 35.199219 27.902344 35.410156 26.546875 35.484375 25.15625 C 35.449219 25.527344 35.246094 25.78125 35.171875 26.125 C 35.160156 26.171875 35.15625 26.214844 35.152344 26.253906 C 35.074219 26.625 34.980469 26.996094 34.871094 27.355469 C 34.753906 27.71875 34.625 28.074219 34.480469 28.421875 C 34.421875 28.546875 34.359375 28.671875 34.300781 28.792969 C 34.292969 28.808594 34.292969 28.824219 34.285156 28.839844 C 34.28125 28.84375 34.277344 28.84375 34.269531 28.855469 C 34.183594 29.050781 34.089844 29.25 33.984375 29.441406 C 33.800781 29.777344 33.605469 30.097656 33.390625 30.410156 C 33.175781 30.722656 32.949219 31.019531 32.707031 31.3125 C 32.464844 31.605469 32.203125 31.878906 31.933594 32.144531 C 31.660156 32.40625 31.375 32.660156 31.078125 32.894531 C 30.78125 33.128906 30.472656 33.347656 30.15625 33.550781 C 29.839844 33.761719 29.511719 33.949219 29.171875 34.121094 C 28.832031 34.292969 28.488281 34.441406 28.136719 34.582031 C 27.78125 34.71875 27.421875 34.839844 27.0625 34.9375 C 26.699219 35.042969 26.328125 35.125 25.953125 35.1875 C 25.578125 35.25 25.203125 35.296875 24.824219 35.324219 C 24.707031 35.328125 24.589844 35.332031 24.472656 35.332031 C 24.5 35.363281 23.808594 35.519531 24.019531 35.519531 C 22.5625 35.519531 21.140625 35.375 19.765625 35.09375 C 18.390625 34.8125 17.0625 34.394531 15.796875 33.859375 C 14.535156 33.328125 13.339844 32.675781 12.214844 31.917969 C 11.089844 31.15625 10.042969 30.292969 9.082031 29.332031 C 8.128906 28.378906 7.265625 27.332031 6.503906 26.207031 C 5.746094 25.082031 5.09375 23.886719 4.558594 22.621094 C 4.019531 21.355469 3.609375 20.03125 3.328125 18.65625 C 3.046875 17.28125 2.894531 15.855469 2.894531 14.394531 C 2.894531 12.730469 3.09375 11.078125 3.480469 9.472656 C 3.746094 8.359375 4.222656 7.3125 4.667969 6.253906 C 3.609375 7.65625 2.871094 9.3125 2.871094 11.207031 L 2.871094 36.792969 C 2.871094 39.527344 4.253906 41.832031 6.277344 43.355469 Z M 6.277344 43.355469 "/>
<path style=" stroke:none;fill-rule:evenodd;fill:rgb(55.686275%,55.686275%,55.686275%);fill-opacity:1;" d="M 28.875 13.75 C 28.871094 13.75 28.863281 13.738281 28.859375 13.738281 C 28.847656 13.730469 28.828125 13.730469 28.816406 13.722656 C 28.832031 13.734375 28.855469 13.738281 28.875 13.75 Z M 28.875 13.75 "/>
<path style=" stroke:none;fill-rule:evenodd;fill:rgb(72.941176%,100%,25.490196%);fill-opacity:1;" d="M 4.667969 6.253906 C 4.125 6.964844 3.410156 8.089844 3.09375 9.265625 C 2.644531 10.917969 2.894531 12.734375 2.894531 14.394531 C 2.894531 15.855469 3.046875 17.28125 3.328125 18.65625 C 3.609375 20.03125 4.019531 21.355469 4.558594 22.621094 C 5.09375 23.886719 5.746094 25.082031 6.503906 26.207031 C 7.265625 27.332031 8.128906 28.378906 9.082031 29.332031 C 10.042969 30.292969 11.089844 31.15625 12.214844 31.917969 C 13.339844 32.675781 14.535156 33.328125 15.796875 33.859375 C 17.0625 34.394531 18.390625 34.8125 19.765625 35.09375 C 21.140625 35.375 22.5625 35.519531 24.019531 35.519531 C 23.808594 35.519531 24.5 35.363281 24.472656 35.332031 C 24.324219 35.34375 24.171875 35.347656 24.019531 35.355469 C 23.644531 35.355469 23.265625 35.332031 22.890625 35.296875 C 22.511719 35.261719 22.136719 35.203125 21.765625 35.125 C 21.394531 35.050781 21.03125 34.957031 20.667969 34.84375 C 20.308594 34.734375 19.949219 34.605469 19.597656 34.457031 C 19.25 34.308594 18.910156 34.144531 18.578125 33.964844 C 18.246094 33.78125 17.921875 33.582031 17.613281 33.371094 C 17.300781 33.15625 17 32.925781 16.707031 32.683594 C 16.421875 32.4375 16.140625 32.183594 15.878906 31.910156 C 15.613281 31.640625 15.363281 31.355469 15.128906 31.058594 C 14.890625 30.761719 14.671875 30.453125 14.46875 30.136719 C 14.265625 29.816406 14.074219 29.488281 13.902344 29.152344 C 13.730469 28.8125 13.578125 28.46875 13.441406 28.113281 C 13.300781 27.761719 13.183594 27.402344 13.082031 27.035156 C 12.980469 26.671875 12.894531 26.300781 12.832031 25.933594 C 12.769531 25.558594 12.722656 25.183594 12.699219 24.800781 C 12.683594 24.535156 12.671875 24.265625 12.671875 24 C 12.671875 23.785156 12.6875 23.574219 12.703125 23.359375 C 12.625 23.1875 12.535156 23.015625 12.558594 22.847656 C 12.558594 22.84375 12.5625 22.839844 12.5625 22.832031 C 12.636719 21.441406 12.84375 20.089844 13.175781 18.78125 C 13.511719 17.472656 13.957031 16.21875 14.519531 15.027344 C 15.644531 12.628906 17.203125 10.484375 19.09375 8.683594 C 20.984375 6.886719 23.207031 5.433594 25.660156 4.433594 C 26.890625 3.925781 28.175781 3.535156 29.503906 3.277344 C 30.839844 3.011719 32.21875 2.875 33.625 2.875 C 35.300781 2.875 36.996094 2.917969 38.558594 3.292969 C 39.699219 3.566406 40.699219 4.1875 41.761719 4.636719 C 40.359375 3.582031 38.707031 2.847656 36.8125 2.847656 L 11.230469 2.847656 C 8.496094 2.847656 6.1875 4.234375 4.667969 6.253906 Z M 4.667969 6.253906 "/>
<path style=" stroke:none;fill-rule:evenodd;fill:rgb(100%,52.156863%,7.843137%);fill-opacity:1;" d="M 43.378906 41.746094 C 44.089844 40.714844 44.652344 39.75 44.910156 38.640625 C 45.292969 37.03125 45.144531 35.269531 45.144531 33.605469 C 45.144531 32.191406 45.003906 30.816406 44.746094 29.484375 C 44.480469 28.152344 44.09375 26.863281 43.59375 25.636719 C 42.589844 23.183594 41.136719 20.957031 39.332031 19.066406 C 37.535156 17.175781 35.386719 15.621094 32.996094 14.5 C 31.796875 13.9375 30.535156 13.484375 29.230469 13.15625 C 27.925781 12.824219 26.566406 12.609375 25.175781 12.535156 C 25.546875 12.574219 25.800781 12.777344 26.152344 12.855469 C 26.191406 12.859375 26.234375 12.863281 26.277344 12.875 C 26.652344 12.949219 27.015625 13.042969 27.375 13.15625 C 27.738281 13.265625 28.09375 13.394531 28.441406 13.542969 C 28.566406 13.597656 28.691406 13.660156 28.816406 13.722656 C 28.828125 13.730469 28.847656 13.730469 28.859375 13.738281 C 28.863281 13.738281 28.871094 13.75 28.875 13.75 C 29.074219 13.839844 29.269531 13.9375 29.464844 14.035156 C 29.796875 14.21875 30.121094 14.417969 30.433594 14.628906 C 30.746094 14.84375 31.046875 15.074219 31.332031 15.316406 C 31.625 15.5625 31.902344 15.816406 32.167969 16.089844 C 32.433594 16.359375 32.683594 16.644531 32.917969 16.941406 C 33.152344 17.238281 33.371094 17.546875 33.578125 17.863281 C 33.78125 18.183594 33.96875 18.511719 34.140625 18.847656 C 34.3125 19.1875 34.46875 19.53125 34.605469 19.886719 C 34.738281 20.238281 34.859375 20.597656 34.964844 20.964844 C 35.0625 21.328125 35.144531 21.699219 35.207031 22.066406 C 35.277344 22.441406 35.316406 22.816406 35.34375 23.199219 C 35.363281 23.464844 35.375 23.734375 35.375 24 C 35.375 24.378906 35.355469 24.753906 35.316406 25.136719 C 35.285156 25.46875 35.234375 25.796875 35.171875 26.125 C 35.246094 25.78125 35.449219 25.527344 35.484375 25.15625 C 35.410156 26.546875 35.199219 27.902344 34.871094 29.207031 C 34.535156 30.515625 34.089844 31.777344 33.527344 32.96875 C 32.40625 35.363281 30.847656 37.511719 28.957031 39.3125 C 27.066406 41.113281 24.839844 42.566406 22.386719 43.574219 C 21.15625 44.074219 19.871094 44.457031 18.535156 44.722656 C 17.207031 44.984375 15.828125 45.125 14.417969 45.125 C 12.753906 45.125 11.105469 44.925781 9.496094 44.542969 C 8.386719 44.277344 7.332031 43.800781 6.277344 43.355469 C 7.675781 44.410156 9.332031 45.152344 11.230469 45.152344 L 36.8125 45.152344 C 39.550781 45.152344 41.855469 43.765625 43.378906 41.746094 Z M 43.378906 41.746094 "/>
<path style=" stroke:none;fill-rule:evenodd;fill:rgb(100%,76.862745%,18.039216%);fill-opacity:1;" d="M 33.625 2.875 C 32.21875 2.875 30.839844 3.011719 29.503906 3.277344 C 28.175781 3.535156 26.890625 3.925781 25.660156 4.433594 C 23.207031 5.433594 20.984375 6.886719 19.09375 8.683594 C 17.203125 10.484375 15.644531 12.628906 14.519531 15.027344 C 13.957031 16.21875 13.511719 17.472656 13.175781 18.78125 C 12.84375 20.089844 12.636719 21.441406 12.5625 22.832031 C 12.5625 22.839844 12.558594 22.84375 12.558594 22.847656 C 12.535156 23.019531 12.625 23.1875 12.703125 23.359375 C 12.707031 23.191406 12.714844 23.03125 12.722656 22.863281 C 12.765625 22.488281 12.816406 22.113281 12.894531 21.746094 C 12.96875 21.375 13.0625 21.003906 13.175781 20.644531 C 13.285156 20.285156 13.417969 19.925781 13.566406 19.578125 C 13.714844 19.230469 13.875 18.890625 14.058594 18.558594 C 14.238281 18.222656 14.4375 17.902344 14.652344 17.589844 C 14.863281 17.277344 15.09375 16.980469 15.339844 16.6875 C 15.582031 16.394531 15.839844 16.121094 16.113281 15.855469 C 16.386719 15.59375 16.667969 15.34375 16.964844 15.105469 C 17.261719 14.871094 17.566406 14.652344 17.886719 14.449219 C 18.207031 14.238281 18.535156 14.050781 18.871094 13.878906 C 19.207031 13.707031 19.558594 13.558594 19.910156 13.417969 C 20.261719 13.28125 20.621094 13.160156 20.984375 13.0625 C 21.347656 12.957031 21.71875 12.875 22.09375 12.8125 C 22.464844 12.75 22.84375 12.703125 23.21875 12.675781 C 23.484375 12.65625 23.753906 12.644531 24.019531 12.644531 C 24.402344 12.644531 24.78125 12.667969 25.15625 12.703125 C 25.488281 12.738281 25.824219 12.785156 26.152344 12.855469 C 25.800781 12.777344 25.546875 12.574219 25.175781 12.535156 C 26.566406 12.609375 27.925781 12.824219 29.230469 13.15625 C 30.535156 13.484375 31.796875 13.9375 32.996094 14.5 C 35.386719 15.621094 37.535156 17.175781 39.332031 19.066406 C 41.136719 20.957031 42.589844 23.183594 43.59375 25.636719 C 44.09375 26.863281 44.480469 28.152344 44.746094 29.484375 C 45.003906 30.816406 45.144531 32.191406 45.144531 33.605469 C 45.144531 35.269531 44.953125 36.921875 44.566406 38.527344 C 44.296875 39.640625 43.824219 40.6875 43.378906 41.746094 C 44.433594 40.34375 45.175781 38.6875 45.175781 36.792969 L 45.175781 11.207031 C 45.175781 8.46875 43.78125 6.160156 41.761719 4.636719 C 40.988281 4.082031 39.425781 3.078125 37.953125 2.9375 C 36.355469 2.78125 35.300781 2.875 33.625 2.875 Z M 33.625 2.875 "/>
</g>
</svg>
