<?xml version="1.0" encoding="UTF-8"?>
<svg xmlns="http://www.w3.org/2000/svg" xmlns:xlink="http://www.w3.org/1999/xlink" width="48pt" height="48pt" viewBox="0 0 48 48" version="1.1">
<g id="surface1">
<path style=" stroke:none;fill-rule:evenodd;fill:rgb(80%,80%,80%);fill-opacity:1;" d="M 2.847656 11.640625 L 2.847656 36.792969 C 2.847656 41.421875 6.578125 45.152344 11.214844 45.152344 L 36.792969 45.152344 C 41.421875 45.152344 45.152344 41.421875 45.152344 36.792969 L 45.152344 11.640625 Z M 2.847656 11.640625 "/>
<path style=" stroke:none;fill-rule:evenodd;fill:rgb(96.862745%,75.686275%,24.313725%);fill-opacity:1;" d="M 33.949219 2.847656 C 33.90625 2.96875 33.75 2.964844 33.75 3.109375 L 33.75 7.28125 C 33.75 7.785156 34.0625 8.191406 34.453125 8.191406 L 36.046875 8.191406 C 36.4375 8.191406 36.75 7.785156 36.75 7.28125 L 36.75 3.109375 C 36.75 2.964844 36.59375 2.96875 36.550781 2.847656 Z M 33.949219 2.847656 "/>
<path style=" stroke:none;fill-rule:evenodd;fill:rgb(96.862745%,75.686275%,24.313725%);fill-opacity:1;" d="M 26.449219 2.847656 C 26.40625 2.96875 26.25 2.964844 26.25 3.109375 L 26.25 7.28125 C 26.25 7.785156 26.5625 8.191406 26.953125 8.191406 L 28.546875 8.191406 C 28.9375 8.191406 29.25 7.785156 29.25 7.28125 L 29.25 3.109375 C 29.25 2.964844 29.09375 2.96875 29.050781 2.847656 Z M 26.449219 2.847656 "/>
<path style=" stroke:none;fill-rule:evenodd;fill:rgb(96.862745%,75.686275%,24.313725%);fill-opacity:1;" d="M 18.949219 2.847656 C 18.90625 2.96875 18.75 2.964844 18.75 3.109375 L 18.75 7.28125 C 18.75 7.785156 19.0625 8.191406 19.453125 8.191406 L 21.046875 8.191406 C 21.4375 8.191406 21.75 7.785156 21.75 7.28125 L 21.75 3.109375 C 21.75 2.964844 21.59375 2.96875 21.550781 2.847656 Z M 18.949219 2.847656 "/>
<path style=" stroke:none;fill-rule:evenodd;fill:rgb(30.980392%,30.980392%,30.980392%);fill-opacity:1;" d="M 11.449219 2.847656 L 11.214844 2.847656 C 6.578125 2.847656 2.847656 6.578125 2.847656 11.214844 L 2.847656 11.640625 L 45.152344 11.640625 L 45.152344 11.214844 C 45.152344 6.578125 41.421875 2.847656 36.792969 2.847656 L 36.550781 2.847656 C 36.59375 2.96875 36.75 2.964844 36.75 3.109375 L 36.75 7.28125 C 36.75 7.785156 36.4375 8.191406 36.046875 8.191406 L 34.453125 8.191406 C 34.0625 8.191406 33.75 7.785156 33.75 7.28125 L 33.75 3.109375 C 33.75 2.964844 33.90625 2.96875 33.949219 2.847656 L 29.050781 2.847656 C 29.09375 2.96875 29.25 2.964844 29.25 3.109375 L 29.25 7.28125 C 29.25 7.785156 28.9375 8.191406 28.546875 8.191406 L 26.953125 8.191406 C 26.5625 8.191406 26.25 7.785156 26.25 7.28125 L 26.25 3.109375 C 26.25 2.964844 26.40625 2.96875 26.449219 2.847656 L 21.550781 2.847656 C 21.59375 2.96875 21.75 2.964844 21.75 3.109375 L 21.75 7.28125 C 21.75 7.785156 21.4375 8.191406 21.046875 8.191406 L 19.453125 8.191406 C 19.0625 8.191406 18.75 7.785156 18.75 7.28125 L 18.75 3.109375 C 18.75 2.964844 18.90625 2.96875 18.949219 2.847656 L 14.050781 2.847656 C 14.09375 2.96875 14.25 2.964844 14.25 3.109375 L 14.25 7.28125 C 14.25 7.785156 13.9375 8.191406 13.546875 8.191406 L 11.953125 8.191406 C 11.5625 8.191406 11.25 7.785156 11.25 7.28125 L 11.25 3.109375 C 11.25 2.964844 11.40625 2.96875 11.449219 2.847656 Z M 11.449219 2.847656 "/>
<path style=" stroke:none;fill-rule:evenodd;fill:rgb(96.862745%,75.686275%,24.313725%);fill-opacity:1;" d="M 11.449219 2.847656 C 11.40625 2.96875 11.25 2.964844 11.25 3.109375 L 11.25 7.28125 C 11.25 7.785156 11.5625 8.191406 11.953125 8.191406 L 13.546875 8.191406 C 13.9375 8.191406 14.25 7.785156 14.25 7.28125 L 14.25 3.109375 C 14.25 2.964844 14.09375 2.96875 14.050781 2.847656 Z M 11.449219 2.847656 "/>
<path style=" stroke:none;fill-rule:nonzero;fill:rgb(30.980392%,30.980392%,30.980392%);fill-opacity:1;" d="M 17.234375 19.488281 C 16.625 19.488281 16.074219 19.859375 15.84375 20.421875 C 15.613281 20.988281 15.75 21.636719 16.1875 22.0625 L 21.878906 27.753906 L 16.1875 33.441406 C 15.792969 33.816406 15.628906 34.378906 15.765625 34.910156 C 15.902344 35.4375 16.316406 35.847656 16.84375 35.988281 C 17.375 36.125 17.9375 35.957031 18.3125 35.5625 L 24 29.875 L 29.6875 35.5625 C 30.0625 35.957031 30.625 36.125 31.15625 35.988281 C 31.683594 35.847656 32.097656 35.4375 32.234375 34.910156 C 32.371094 34.378906 32.207031 33.816406 31.8125 33.441406 L 26.121094 27.753906 L 31.8125 22.0625 C 32.394531 21.480469 32.394531 20.527344 31.8125 19.941406 C 31.222656 19.359375 30.277344 19.355469 29.6875 19.941406 L 24 25.628906 L 18.3125 19.941406 C 18.027344 19.652344 17.640625 19.488281 17.234375 19.488281 Z M 17.234375 19.488281 "/>
</g>
</svg>
