<?xml version="1.0" encoding="UTF-8"?>
<svg xmlns="http://www.w3.org/2000/svg" xmlns:xlink="http://www.w3.org/1999/xlink" width="48pt" height="48pt" viewBox="0 0 48 48" version="1.1">
<g id="surface1">
<path style=" stroke:none;fill-rule:evenodd;fill:rgb(100%,78.823529%,20%);fill-opacity:1;" d="M 4.8125 -7.722656 L 43.1875 -7.722656 C 50.109375 -7.722656 55.722656 -2.109375 55.722656 4.8125 L 55.722656 43.1875 C 55.722656 50.109375 50.109375 55.722656 43.1875 55.722656 L 4.8125 55.722656 C -2.109375 55.722656 -7.722656 50.109375 -7.722656 43.1875 L -7.722656 4.8125 C -7.722656 -2.109375 -2.109375 -7.722656 4.8125 -7.722656 Z M 4.8125 -7.722656 "/>
<path style=" stroke:none;fill-rule:nonzero;fill:rgb(97.647059%,97.647059%,97.647059%);fill-opacity:1;" d="M 18.082031 44.046875 C 18.011719 43.933594 18.625 42.941406 19.449219 41.847656 C 21.550781 39.046875 22.691406 37.292969 21.761719 36.203125 C 21.375 35.761719 20.847656 35.25 17.71875 35.25 C 10.9375 35.25 8.160156 33.9375 6.058594 31.660156 C 3.167969 28.53125 2.207031 22.15625 3.691406 16.84375 C 5.4375 10.613281 12.097656 6 22.019531 4.167969 C 28.484375 3.324219 36.207031 3.375 41.03125 8.03125 C 45.308594 12.296875 46.253906 20.183594 43.246094 26.453125 C 41.277344 30.550781 37.6875 34.097656 33.21875 35.285156 C 31.644531 35.703125 31.449219 35.847656 29.050781 38.363281 C 26.496094 41.050781 23.050781 42.703125 20.660156 43.730469 C 19.375 44.277344 18.308594 44.410156 18.082031 44.046875 Z M 18.082031 44.046875 "/>
</g>
</svg>
