<?xml version="1.0" encoding="UTF-8"?>
<svg xmlns="http://www.w3.org/2000/svg" xmlns:xlink="http://www.w3.org/1999/xlink" width="48pt" height="48pt" viewBox="0 0 48 48" version="1.1">
<g id="surface1">
<path style=" stroke:none;fill-rule:evenodd;fill:rgb(45.490196%,69.803922%,92.941176%);fill-opacity:1;" d="M 11.207031 2.847656 L 36.792969 2.847656 C 41.40625 2.847656 45.152344 6.59375 45.152344 11.207031 L 45.152344 36.792969 C 45.152344 41.40625 41.40625 45.152344 36.792969 45.152344 L 11.207031 45.152344 C 6.59375 45.152344 2.847656 41.40625 2.847656 36.792969 L 2.847656 11.207031 C 2.847656 6.59375 6.59375 2.847656 11.207031 2.847656 Z M 11.207031 2.847656 "/>
<path style=" stroke:none;fill-rule:nonzero;fill:rgb(100%,100%,100%);fill-opacity:1;" d="M 17.25 18.75 L 17.25 20.25 L 16.5 20.25 C 15.253906 20.25 14.25 21.253906 14.25 22.5 C 14.25 23.746094 15.253906 24.75 16.5 24.75 L 17.25 24.75 L 17.25 26.25 L 14.386719 26.25 C 14.699219 27.125 15.519531 27.75 16.5 27.75 L 17.25 27.75 L 17.25 29.25 L 18.75 29.25 L 18.75 27.75 L 19.5 27.75 C 20.746094 27.75 21.75 26.746094 21.75 25.5 C 21.75 24.253906 20.746094 23.25 19.5 23.25 L 18.75 23.25 L 18.75 21.75 L 21.613281 21.75 C 21.300781 20.875 20.480469 20.25 19.5 20.25 L 18.75 20.25 L 18.75 18.75 Z M 16.5 21.75 L 17.25 21.75 L 17.25 23.25 L 16.5 23.25 C 16.082031 23.25 15.75 22.917969 15.75 22.5 C 15.75 22.082031 16.082031 21.75 16.5 21.75 Z M 18.75 24.75 L 19.5 24.75 C 19.917969 24.75 20.25 25.082031 20.25 25.5 C 20.25 25.917969 19.917969 26.269531 19.5 26.25 L 18.75 26.25 Z M 24.75 27.75 L 24.75 29.25 L 33.75 29.25 L 33.75 27.75 Z M 24.75 27.75 "/>
</g>
</svg>
