<?xml version="1.0" encoding="UTF-8"?>
<svg xmlns="http://www.w3.org/2000/svg" xmlns:xlink="http://www.w3.org/1999/xlink" width="48pt" height="48pt" viewBox="0 0 48 48" version="1.1">
<g id="surface1">
<path style=" stroke:none;fill-rule:evenodd;fill:rgb(35.686275%,35.686275%,35.686275%);fill-opacity:1;" d="M 11.207031 2.847656 L 36.792969 2.847656 C 41.40625 2.847656 45.152344 6.59375 45.152344 11.207031 L 45.152344 36.792969 C 45.152344 41.40625 41.40625 45.152344 36.792969 45.152344 L 11.207031 45.152344 C 6.59375 45.152344 2.847656 41.40625 2.847656 36.792969 L 2.847656 11.207031 C 2.847656 6.59375 6.59375 2.847656 11.207031 2.847656 Z M 11.207031 2.847656 "/>
<path style=" stroke:none;fill-rule:nonzero;fill:rgb(55.686275%,55.686275%,55.686275%);fill-opacity:1;" d="M 40.722656 29.144531 L 40.722656 30.433594 L 7.277344 30.433594 L 7.277344 29.144531 Z M 40.722656 29.144531 "/>
<path style=" stroke:none;fill-rule:nonzero;fill:rgb(55.686275%,55.686275%,55.686275%);fill-opacity:1;" d="M 40.722656 33.003906 L 40.722656 34.292969 L 7.277344 34.292969 L 7.277344 33.003906 Z M 40.722656 33.003906 "/>
<path style=" stroke:none;fill-rule:nonzero;fill:rgb(55.686275%,55.686275%,55.686275%);fill-opacity:1;" d="M 40.722656 36.863281 L 40.722656 38.152344 L 7.277344 38.152344 L 7.277344 36.863281 Z M 40.722656 36.863281 "/>
<path style=" stroke:none;fill-rule:nonzero;fill:rgb(55.686275%,55.686275%,55.686275%);fill-opacity:1;" d="M 40.722656 17.566406 L 40.722656 18.855469 L 7.277344 18.855469 L 7.277344 17.566406 Z M 40.722656 17.566406 "/>
<path style=" stroke:none;fill-rule:nonzero;fill:rgb(55.686275%,55.686275%,55.686275%);fill-opacity:1;" d="M 40.722656 21.425781 L 40.722656 22.714844 L 7.277344 22.714844 L 7.277344 21.425781 Z M 40.722656 21.425781 "/>
<path style=" stroke:none;fill-rule:nonzero;fill:rgb(55.686275%,55.686275%,55.686275%);fill-opacity:1;" d="M 40.722656 25.285156 L 40.722656 26.574219 L 7.277344 26.574219 L 7.277344 25.285156 Z M 40.722656 25.285156 "/>
<path style=" stroke:none;fill-rule:nonzero;fill:rgb(55.686275%,55.686275%,55.686275%);fill-opacity:1;" d="M 40.722656 13.707031 L 40.722656 14.996094 L 7.277344 14.996094 L 7.277344 13.707031 Z M 40.722656 13.707031 "/>
<path style=" stroke:none;fill-rule:nonzero;fill:rgb(55.686275%,55.686275%,55.686275%);fill-opacity:1;" d="M 40.722656 9.847656 L 40.722656 11.136719 L 7.277344 11.136719 L 7.277344 9.847656 Z M 40.722656 9.847656 "/>
<path style=" stroke:none;fill-rule:nonzero;fill:rgb(55.686275%,55.686275%,55.686275%);fill-opacity:1;" d="M 18.855469 40.722656 L 17.566406 40.722656 L 17.566406 7.277344 L 18.855469 7.277344 Z M 18.855469 40.722656 "/>
<path style=" stroke:none;fill-rule:nonzero;fill:rgb(55.686275%,55.686275%,55.686275%);fill-opacity:1;" d="M 14.996094 40.722656 L 13.707031 40.722656 L 13.707031 7.277344 L 14.996094 7.277344 Z M 14.996094 40.722656 "/>
<path style=" stroke:none;fill-rule:nonzero;fill:rgb(55.686275%,55.686275%,55.686275%);fill-opacity:1;" d="M 11.136719 40.722656 L 9.847656 40.722656 L 9.847656 7.277344 L 11.136719 7.277344 Z M 11.136719 40.722656 "/>
<path style=" stroke:none;fill-rule:nonzero;fill:rgb(55.686275%,55.686275%,55.686275%);fill-opacity:1;" d="M 30.433594 40.722656 L 29.144531 40.722656 L 29.144531 7.277344 L 30.433594 7.277344 Z M 30.433594 40.722656 "/>
<path style=" stroke:none;fill-rule:nonzero;fill:rgb(55.686275%,55.686275%,55.686275%);fill-opacity:1;" d="M 26.574219 40.722656 L 25.285156 40.722656 L 25.285156 7.277344 L 26.574219 7.277344 Z M 26.574219 40.722656 "/>
<path style=" stroke:none;fill-rule:nonzero;fill:rgb(55.686275%,55.686275%,55.686275%);fill-opacity:1;" d="M 22.714844 40.722656 L 21.425781 40.722656 L 21.425781 7.277344 L 22.714844 7.277344 Z M 22.714844 40.722656 "/>
<path style=" stroke:none;fill-rule:nonzero;fill:rgb(55.686275%,55.686275%,55.686275%);fill-opacity:1;" d="M 34.292969 40.722656 L 33.003906 40.722656 L 33.003906 7.277344 L 34.292969 7.277344 Z M 34.292969 40.722656 "/>
<path style=" stroke:none;fill-rule:nonzero;fill:rgb(55.686275%,55.686275%,55.686275%);fill-opacity:1;" d="M 38.152344 40.722656 L 36.863281 40.722656 L 36.863281 7.277344 L 38.152344 7.277344 Z M 38.152344 40.722656 "/>
<path style=" stroke:none;fill-rule:nonzero;fill:rgb(71.764706%,71.764706%,71.764706%);fill-opacity:1;" d="M 39.4375 37.828125 L 39.4375 10.171875 C 39.4375 9.28125 38.71875 8.5625 37.828125 8.5625 L 10.171875 8.5625 C 9.28125 8.5625 8.5625 9.28125 8.5625 10.171875 L 8.5625 37.828125 C 8.5625 38.71875 9.28125 39.4375 10.171875 39.4375 L 37.828125 39.4375 C 38.71875 39.4375 39.4375 38.71875 39.4375 37.828125 Z M 39.4375 37.828125 "/>
<path style=" stroke:none;fill-rule:nonzero;fill:rgb(40%,40%,40%);fill-opacity:1;" d="M 12.421875 17.566406 L 20.140625 17.566406 L 20.140625 18.855469 L 12.421875 18.855469 Z M 12.421875 17.566406 "/>
<path style=" stroke:none;fill-rule:nonzero;fill:rgb(40%,40%,40%);fill-opacity:1;" d="M 21.425781 17.566406 L 25.285156 17.566406 L 25.285156 18.855469 L 21.425781 18.855469 Z M 21.425781 17.566406 "/>
<path style=" stroke:none;fill-rule:nonzero;fill:rgb(40%,40%,40%);fill-opacity:1;" d="M 26.574219 17.566406 L 35.578125 17.566406 L 35.578125 18.855469 L 26.574219 18.855469 Z M 26.574219 17.566406 "/>
<path style=" stroke:none;fill-rule:nonzero;fill:rgb(40%,40%,40%);fill-opacity:1;" d="M 12.421875 22.714844 L 22.714844 22.714844 L 22.714844 24 L 12.421875 24 Z M 12.421875 22.714844 "/>
<path style=" stroke:none;fill-rule:nonzero;fill:rgb(40%,40%,40%);fill-opacity:1;" d="M 24 22.714844 L 34.292969 22.714844 L 34.292969 24 L 24 24 Z M 24 22.714844 "/>
<path style=" stroke:none;fill-rule:nonzero;fill:rgb(40%,40%,40%);fill-opacity:1;" d="M 12.421875 27.859375 L 16.28125 27.859375 L 16.28125 29.144531 L 12.421875 29.144531 Z M 12.421875 27.859375 "/>
<path style=" stroke:none;fill-rule:nonzero;fill:rgb(40%,40%,40%);fill-opacity:1;" d="M 17.566406 27.859375 L 21.425781 27.859375 L 21.425781 29.144531 L 17.566406 29.144531 Z M 17.566406 27.859375 "/>
<path style=" stroke:none;fill-rule:nonzero;fill:rgb(40%,40%,40%);fill-opacity:1;" d="M 22.714844 27.859375 L 30.433594 27.859375 L 30.433594 29.144531 L 22.714844 29.144531 Z M 22.714844 27.859375 "/>
</g>
</svg>
