<?xml version="1.0" encoding="UTF-8"?>
<svg xmlns="http://www.w3.org/2000/svg" xmlns:xlink="http://www.w3.org/1999/xlink" width="48pt" height="48pt" viewBox="0 0 48 48" version="1.1">
<g id="surface1">
<path style=" stroke:none;fill-rule:evenodd;fill:rgb(37.647059%,37.647059%,37.647059%);fill-opacity:1;" d="M 11.207031 2.847656 L 36.792969 2.847656 C 41.40625 2.847656 45.152344 6.59375 45.152344 11.207031 L 45.152344 36.792969 C 45.152344 41.40625 41.40625 45.152344 36.792969 45.152344 L 11.207031 45.152344 C 6.59375 45.152344 2.847656 41.40625 2.847656 36.792969 L 2.847656 11.207031 C 2.847656 6.59375 6.59375 2.847656 11.207031 2.847656 Z M 11.207031 2.847656 "/>
<path style=" stroke:none;fill-rule:nonzero;fill:rgb(30.980392%,30.980392%,30.980392%);fill-opacity:1;" d="M 23.015625 14.628906 C 16.109375 14.628906 17.71875 20.71875 14.183594 22.613281 C 10.59375 24.652344 12.574219 26.472656 13.152344 28.4375 C 14.128906 31.714844 16.875 29.402344 24.984375 27.453125 C 33.097656 25.503906 34.839844 25.796875 33.859375 22.519531 C 33.277344 20.578125 35.203125 18.777344 31.011719 18.605469 C 27.605469 18.792969 27.941406 14.628906 23.015625 14.628906 Z M 23.015625 14.628906 "/>
<path style=" stroke:none;fill-rule:nonzero;fill:rgb(60%,60%,60%);fill-opacity:1;" d="M 38.6875 21.953125 C 37.707031 18.675781 30.339844 17.597656 22.222656 19.546875 C 14.113281 21.496094 8.332031 25.730469 9.3125 29.003906 C 10.292969 32.285156 17.660156 33.363281 25.777344 31.417969 C 33.886719 29.46875 39.667969 25.230469 38.6875 21.953125 Z M 38.6875 21.953125 "/>
<path style=" stroke:none;fill-rule:nonzero;fill:rgb(100%,100%,100%);fill-opacity:1;" d="M 31.855469 28.277344 C 31.488281 26.597656 28.109375 25.972656 24.316406 26.878906 C 20.519531 27.785156 17.746094 29.878906 18.113281 31.558594 C 18.484375 33.234375 21.859375 33.859375 25.65625 32.953125 C 29.449219 32.046875 32.222656 29.953125 31.855469 28.277344 Z M 31.855469 28.277344 "/>
</g>
</svg>
