<?xml version="1.0" encoding="UTF-8"?>
<svg xmlns="http://www.w3.org/2000/svg" xmlns:xlink="http://www.w3.org/1999/xlink" width="48pt" height="48pt" viewBox="0 0 48 48" version="1.1">
<g id="surface1">
<path style=" stroke:none;fill-rule:evenodd;fill:rgb(76.078431%,20.784314%,16.470588%);fill-opacity:1;" d="M 11.207031 2.847656 L 36.792969 2.847656 C 41.40625 2.847656 45.152344 6.59375 45.152344 11.207031 L 45.152344 36.792969 C 45.152344 41.40625 41.40625 45.152344 36.792969 45.152344 L 11.207031 45.152344 C 6.59375 45.152344 2.847656 41.40625 2.847656 36.792969 L 2.847656 11.207031 C 2.847656 6.59375 6.59375 2.847656 11.207031 2.847656 Z M 11.207031 2.847656 "/>
<path style=" stroke:none;fill-rule:nonzero;fill:rgb(100%,100%,100%);fill-opacity:1;" d="M 24.875 28.433594 C 32.644531 24.015625 32.480469 24.109375 32.480469 24.019531 C 32.480469 23.9375 18.878906 16.125 18.8125 16.171875 C 18.769531 16.199219 18.761719 31.765625 18.800781 31.816406 C 18.824219 31.832031 18.871094 31.832031 18.910156 31.816406 C 18.949219 31.800781 21.636719 30.277344 24.875 28.433594 Z M 24.875 28.433594 "/>
</g>
</svg>
