<?xml version="1.0" encoding="UTF-8"?>
<svg xmlns="http://www.w3.org/2000/svg" xmlns:xlink="http://www.w3.org/1999/xlink" width="48pt" height="48pt" viewBox="0 0 48 48" version="1.1">
<g id="surface1">
<path style=" stroke:none;fill-rule:evenodd;fill:rgb(60.392157%,79.215686%,23.529412%);fill-opacity:1;" d="M 11.207031 2.847656 L 36.792969 2.847656 C 41.40625 2.847656 45.152344 6.59375 45.152344 11.207031 L 45.152344 36.792969 C 45.152344 41.40625 41.40625 45.152344 36.792969 45.152344 L 11.207031 45.152344 C 6.59375 45.152344 2.847656 41.40625 2.847656 36.792969 L 2.847656 11.207031 C 2.847656 6.59375 6.59375 2.847656 11.207031 2.847656 Z M 11.207031 2.847656 "/>
<path style="fill:none;stroke-width:3;stroke-linecap:round;stroke-linejoin:round;stroke:rgb(100%,100%,100%);stroke-opacity:1;stroke-miterlimit:4;" d="M 12.499841 22.5 L 22.499841 9.5 " transform="matrix(1.5,0,0,1.5,-1.499761,0)"/>
<path style="fill:none;stroke-width:3;stroke-linecap:round;stroke-linejoin:round;stroke:rgb(100%,100%,100%);stroke-opacity:1;stroke-miterlimit:4;" d="M 11.499841 9.5 L 16.700362 16 " transform="matrix(1.5,0,0,1.5,-1.499761,0)"/>
<path style=" stroke:none;fill-rule:nonzero;fill:rgb(59.215686%,22.352941%,85.098039%);fill-opacity:1;" d="M 42 33.472656 C 42 38.441406 37.96875 42.472656 33 42.472656 C 28.03125 42.472656 24 38.441406 24 33.472656 C 24 28.503906 28.03125 24.472656 33 24.472656 C 37.96875 24.472656 42 28.503906 42 33.472656 Z M 42 33.472656 "/>
<path style="fill:none;stroke-width:2.666667;stroke-linecap:round;stroke-linejoin:round;stroke:rgb(100%,100%,100%);stroke-opacity:1;stroke-miterlimit:4;" d="M 21 25.999086 L 21 19.999086 L 27 25.999086 L 27 19.999086 " transform="matrix(1.125,0,0,1.125,6,7.598684)"/>
</g>
</svg>
