<?xml version="1.0" encoding="UTF-8"?>
<svg xmlns="http://www.w3.org/2000/svg" xmlns:xlink="http://www.w3.org/1999/xlink" width="48pt" height="48pt" viewBox="0 0 48 48" version="1.1">
<g id="surface1">
<path style=" stroke:none;fill-rule:evenodd;fill:rgb(60.392157%,79.215686%,23.529412%);fill-opacity:1;" d="M 11.207031 2.847656 L 36.792969 2.847656 C 41.40625 2.847656 45.152344 6.59375 45.152344 11.207031 L 45.152344 36.792969 C 45.152344 41.40625 41.40625 45.152344 36.792969 45.152344 L 11.207031 45.152344 C 6.59375 45.152344 2.847656 41.40625 2.847656 36.792969 L 2.847656 11.207031 C 2.847656 6.59375 6.59375 2.847656 11.207031 2.847656 Z M 11.207031 2.847656 "/>
<path style="fill:none;stroke-width:3;stroke-linecap:round;stroke-linejoin:round;stroke:rgb(100%,100%,100%);stroke-opacity:1;stroke-miterlimit:4;" d="M 12.499841 22.5 L 22.499841 9.5 " transform="matrix(1.5,0,0,1.5,-1.499761,0)"/>
<path style="fill:none;stroke-width:3;stroke-linecap:round;stroke-linejoin:round;stroke:rgb(100%,100%,100%);stroke-opacity:1;stroke-miterlimit:4;" d="M 11.499841 9.5 L 16.700362 16 " transform="matrix(1.5,0,0,1.5,-1.499761,0)"/>
<path style=" stroke:none;fill-rule:nonzero;fill:rgb(100%,54.901961%,6.27451%);fill-opacity:1;" d="M 42.15625 33 C 42.15625 37.96875 38.128906 42 33.15625 42 C 28.1875 42 24.15625 37.96875 24.15625 33 C 24.15625 28.03125 28.1875 24 33.15625 24 C 38.128906 24 42.15625 28.03125 42.15625 33 Z M 42.15625 33 "/>
<path style="fill:none;stroke-width:2.666667;stroke-linecap:round;stroke-linejoin:round;stroke:rgb(100%,100%,100%);stroke-opacity:1;stroke-miterlimit:4;" d="M 20.998538 27 L 20.998538 20 L 26.998538 20 L 26.998538 24 L 20.998538 24 " transform="matrix(1.125,0,0,1.125,6.157895,7.125)"/>
</g>
</svg>
