<?xml version="1.0" encoding="UTF-8"?>
<svg xmlns="http://www.w3.org/2000/svg" xmlns:xlink="http://www.w3.org/1999/xlink" width="48pt" height="48pt" viewBox="0 0 48 48" version="1.1">
<g id="surface1">
<path style=" stroke:none;fill-rule:evenodd;fill:rgb(60.392157%,79.215686%,23.529412%);fill-opacity:1;" d="M 11.207031 2.847656 L 36.792969 2.847656 C 41.40625 2.847656 45.152344 6.59375 45.152344 11.207031 L 45.152344 36.792969 C 45.152344 41.40625 41.40625 45.152344 36.792969 45.152344 L 11.207031 45.152344 C 6.59375 45.152344 2.847656 41.40625 2.847656 36.792969 L 2.847656 11.207031 C 2.847656 6.59375 6.59375 2.847656 11.207031 2.847656 Z M 11.207031 2.847656 "/>
<path style="fill:none;stroke-width:3;stroke-linecap:round;stroke-linejoin:round;stroke:rgb(100%,100%,100%);stroke-opacity:1;stroke-miterlimit:4;" d="M 12.499841 22.5 L 22.499841 9.5 " transform="matrix(1.5,0,0,1.5,-1.499761,0)"/>
<path style="fill:none;stroke-width:3;stroke-linecap:round;stroke-linejoin:round;stroke:rgb(100%,100%,100%);stroke-opacity:1;stroke-miterlimit:4;" d="M 11.499841 9.5 L 16.700362 16 " transform="matrix(1.5,0,0,1.5,-1.499761,0)"/>
<path style=" stroke:none;fill-rule:nonzero;fill:rgb(30.980392%,30.980392%,30.980392%);fill-opacity:1;" d="M 42.316406 33 C 42.316406 37.96875 38.285156 42 33.316406 42 C 28.34375 42 24.316406 37.96875 24.316406 33 C 24.316406 28.03125 28.34375 24 33.316406 24 C 38.285156 24 42.316406 28.03125 42.316406 33 Z M 42.316406 33 "/>
<path style=" stroke:none;fill-rule:nonzero;fill:rgb(100%,100%,100%);fill-opacity:1;" d="M 31.066406 28.5 C 28.578125 28.5 26.566406 30.515625 26.566406 33 C 26.566406 35.484375 28.578125 37.5 31.066406 37.5 C 33.113281 37.5 34.90625 36.109375 35.417969 34.125 L 37.816406 34.125 L 37.816406 36.375 L 38.941406 36.375 L 38.941406 34.125 L 40.066406 34.125 L 40.066406 31.875 L 35.417969 31.875 C 34.90625 29.890625 33.113281 28.503906 31.066406 28.5 Z M 31.066406 30.75 C 32.308594 30.75 33.316406 31.753906 33.316406 33 C 33.316406 34.246094 32.308594 35.25 31.066406 35.25 C 29.824219 35.25 28.816406 34.246094 28.816406 33 C 28.816406 31.753906 29.824219 30.75 31.066406 30.75 Z M 31.066406 30.75 "/>
</g>
</svg>
