<?xml version="1.0" encoding="UTF-8"?>
<svg xmlns="http://www.w3.org/2000/svg" xmlns:xlink="http://www.w3.org/1999/xlink" width="48pt" height="48pt" viewBox="0 0 48 48" version="1.1">
<g id="surface1">
<path style=" stroke:none;fill-rule:evenodd;fill:rgb(17.254902%,66.666667%,77.647059%);fill-opacity:1;" d="M 11.207031 2.847656 L 36.792969 2.847656 C 41.40625 2.847656 45.152344 6.59375 45.152344 11.207031 L 45.152344 36.792969 C 45.152344 41.40625 41.40625 45.152344 36.792969 45.152344 L 11.207031 45.152344 C 6.59375 45.152344 2.847656 41.40625 2.847656 36.792969 L 2.847656 11.207031 C 2.847656 6.59375 6.59375 2.847656 11.207031 2.847656 Z M 11.207031 2.847656 "/>
<path style=" stroke:none;fill-rule:nonzero;fill:rgb(43.137255%,43.137255%,43.137255%);fill-opacity:1;" d="M 10.046875 18.050781 L 10.046875 24 C 10.046875 25.324219 9.941406 27.59375 10.8125 28.652344 C 12.261719 31.078125 15.359375 36.324219 16.546875 38.722656 C 16.9375 39.441406 17.796875 39.628906 18.886719 39.628906 L 29.113281 39.628906 C 30.203125 39.628906 31.0625 39.441406 31.453125 38.722656 C 32.640625 36.324219 35.738281 31.078125 37.1875 28.652344 C 38.058594 27.59375 37.953125 25.324219 37.953125 24 L 37.953125 18.050781 C 37.953125 13.058594 31.75 8.371094 24 8.371094 C 16.25 8.371094 10.046875 13.058594 10.046875 18.050781 Z M 10.046875 18.050781 "/>
<path style=" stroke:none;fill-rule:nonzero;fill:rgb(34.509804%,34.509804%,34.509804%);fill-opacity:1;" d="M 11.996094 23.972656 C 11.09375 23.980469 10.1875 23.996094 10.046875 24.015625 L 10.046875 24.78125 C 10.046875 26.105469 9.941406 27.59375 10.8125 28.652344 C 12.253906 31.078125 15.359375 36.324219 16.546875 38.722656 C 16.9375 39.441406 17.796875 39.628906 18.886719 39.628906 L 29.113281 39.628906 C 30.203125 39.628906 31.0625 39.441406 31.453125 38.722656 C 32.640625 36.324219 35.746094 31.078125 37.1875 28.652344 C 38.058594 27.59375 37.953125 26.105469 37.953125 24.78125 L 37.953125 24.015625 C 37.792969 24.015625 34.550781 23.996094 34.410156 24 C 31.253906 23.972656 31.390625 25.097656 30.09375 27.125 C 28.875 29.230469 28.871094 31.847656 28.261719 33.378906 C 27.40625 30.425781 27.875 24.558594 24 24.558594 C 20.125 24.558594 20.59375 30.425781 19.738281 33.378906 C 19.128906 31.847656 19.457031 29.230469 18.246094 27.125 C 17.402344 25.699219 16.003906 24.09375 14.15625 23.972656 C 14.03125 23.96875 12.902344 23.96875 11.996094 23.972656 Z M 11.996094 23.972656 "/>
<path style=" stroke:none;fill-rule:nonzero;fill:rgb(29.411765%,29.411765%,29.411765%);fill-opacity:1;" d="M 18.886719 39.628906 L 29.113281 39.628906 L 28.261719 33.378906 C 27.40625 30.425781 27.875 24.78125 24 24.78125 C 20.125 24.78125 20.59375 30.425781 19.738281 33.378906 Z M 18.886719 39.628906 "/>
<path style=" stroke:none;fill-rule:nonzero;fill:rgb(47.843137%,76.862745%,92.156863%);fill-opacity:1;" d="M 13.390625 21.765625 L 13.390625 24 C 15.703125 23.640625 16.839844 25.503906 17.796875 27.125 C 19.015625 29.230469 19.128906 31.964844 19.738281 33.488281 C 20.59375 30.542969 20.125 25.113281 24 25.113281 C 27.875 25.113281 27.40625 30.542969 28.261719 33.488281 C 28.871094 31.964844 28.984375 29.230469 30.203125 27.125 C 31.589844 24.964844 32.144531 24 34.609375 24 L 34.609375 21.765625 Z M 13.390625 21.765625 "/>
</g>
</svg>
