<?xml version="1.0" encoding="UTF-8"?>
<svg xmlns="http://www.w3.org/2000/svg" xmlns:xlink="http://www.w3.org/1999/xlink" width="48pt" height="48pt" viewBox="0 0 48 48" version="1.1">
<g id="surface1">
<path style=" stroke:none;fill-rule:evenodd;fill:rgb(65.882353%,9.019608%,9.019608%);fill-opacity:1;" d="M 11.207031 2.847656 L 36.792969 2.847656 C 41.40625 2.847656 45.152344 6.59375 45.152344 11.207031 L 45.152344 36.792969 C 45.152344 41.40625 41.40625 45.152344 36.792969 45.152344 L 11.207031 45.152344 C 6.59375 45.152344 2.847656 41.40625 2.847656 36.792969 L 2.847656 11.207031 C 2.847656 6.59375 6.59375 2.847656 11.207031 2.847656 Z M 11.207031 2.847656 "/>
<path style=" stroke:none;fill-rule:nonzero;fill:rgb(80%,80%,80%);fill-opacity:1;" d="M 24.035156 8.050781 C 23.746094 8.046875 23.453125 8.125 23.199219 8.277344 L 11.136719 15.421875 C 10.636719 15.71875 10.332031 16.261719 10.332031 16.855469 L 10.332031 31.144531 C 10.332031 31.738281 10.636719 32.28125 11.136719 32.578125 L 23.199219 39.722656 C 23.691406 40.019531 24.308594 40.019531 24.800781 39.722656 L 36.863281 32.578125 C 37.363281 32.28125 37.667969 31.738281 37.667969 31.144531 L 37.667969 16.855469 C 37.667969 16.261719 37.363281 15.71875 36.863281 15.421875 L 24.800781 8.277344 C 24.574219 8.136719 24.308594 8.058594 24.035156 8.050781 Z M 24.035156 8.050781 "/>
<path style="fill:none;stroke-width:3;stroke-linecap:square;stroke-linejoin:round;stroke:rgb(65.882353%,9.019608%,9.019608%);stroke-opacity:1;stroke-miterlimit:4;" d="M -37.75603 3.094846 L -29.401863 3.094846 L -37.75603 13.042763 L -29.401863 13.042763 " transform="matrix(1.5,0,0,1.5,74.36842,11.842105)"/>
</g>
</svg>
