<?xml version="1.0" encoding="UTF-8"?>
<svg xmlns="http://www.w3.org/2000/svg" xmlns:xlink="http://www.w3.org/1999/xlink" width="16pt" height="16pt" viewBox="0 0 16 16" version="1.1">
<g id="surface1">
<path style=" stroke:none;fill-rule:evenodd;fill:rgb(99.607843%,80.392157%,21.960784%);fill-opacity:1;" d="M 3.734375 0.949219 L 12.265625 0.949219 C 13.800781 0.949219 15.050781 2.199219 15.050781 3.734375 L 15.050781 12.265625 C 15.050781 13.800781 13.800781 15.050781 12.265625 15.050781 L 3.734375 15.050781 C 2.199219 15.050781 0.949219 13.800781 0.949219 12.265625 L 0.949219 3.734375 C 0.949219 2.199219 2.199219 0.949219 3.734375 0.949219 Z M 3.734375 0.949219 "/>
<path style=" stroke:none;fill-rule:nonzero;fill:rgb(99.607843%,21.960784%,21.960784%);fill-opacity:1;" d="M 2.332031 5 L 2.332031 6.5 L 3.332031 6.5 L 3.332031 11 L 4.832031 11 L 4.832031 5 Z M 8.832031 5 C 7.175781 5 5.832031 6.34375 5.832031 8 C 5.832031 9.65625 7.175781 11 8.832031 11 L 13.152344 11 C 13.378906 10.527344 13.554688 10.027344 13.667969 9.5 L 8.832031 9.5 C 8.003906 9.5 7.332031 8.828125 7.332031 8 C 7.332031 7.171875 8.003906 6.5 8.832031 6.5 C 9.257812 6.5 9.664062 6.683594 9.949219 7 L 11.65625 7 C 11.234375 5.804688 10.101562 5 8.832031 5 Z M 8.832031 5 "/>
</g>
</svg>
