<?xml version="1.0" encoding="UTF-8"?>
<svg xmlns="http://www.w3.org/2000/svg" xmlns:xlink="http://www.w3.org/1999/xlink" width="16pt" height="16pt" viewBox="0 0 16 16" version="1.1">
<g id="surface1">
<path style=" stroke:none;fill-rule:evenodd;fill:rgb(100%,71.764706%,23.529412%);fill-opacity:1;" d="M 3.734375 0.949219 L 12.265625 0.949219 C 13.800781 0.949219 15.050781 2.199219 15.050781 3.734375 L 15.050781 12.265625 C 15.050781 13.800781 13.800781 15.050781 12.265625 15.050781 L 3.734375 15.050781 C 2.199219 15.050781 0.949219 13.800781 0.949219 12.265625 L 0.949219 3.734375 C 0.949219 2.199219 2.199219 0.949219 3.734375 0.949219 Z M 3.734375 0.949219 "/>
<path style=" stroke:none;fill-rule:nonzero;fill:rgb(30.980392%,30.980392%,30.980392%);fill-opacity:1;" d="M 4.175781 9.195312 L 11.824219 9.195312 C 12.351562 9.195312 12.777344 9.613281 12.777344 10.132812 L 12.777344 12.011719 C 12.777344 12.53125 12.351562 12.949219 11.824219 12.949219 L 4.175781 12.949219 C 3.648438 12.949219 3.222656 12.53125 3.222656 12.011719 L 3.222656 10.132812 C 3.222656 9.613281 3.648438 9.195312 4.175781 9.195312 Z M 4.175781 9.195312 "/>
<path style=" stroke:none;fill-rule:nonzero;fill:rgb(30.980392%,30.980392%,30.980392%);fill-opacity:1;" d="M 6.75 3.390625 L 6.46875 4.214844 L 5.808594 3.640625 L 5.574219 4.316406 L 5.074219 3.882812 L 4.828125 4.601562 L 4.34375 4.363281 L 4.289062 5.175781 L 3.613281 4.847656 L 3.554688 5.707031 L 2.878906 5.574219 L 3.050781 6.425781 L 4.246094 9.195312 L 11.753906 9.195312 L 12.949219 6.425781 L 13.121094 5.574219 L 12.445312 5.707031 L 12.386719 4.847656 L 11.710938 5.175781 L 11.65625 4.363281 L 11.171875 4.601562 L 10.925781 3.882812 L 10.425781 4.316406 L 10.191406 3.640625 L 9.53125 4.214844 L 9.25 3.390625 L 8.589844 3.964844 L 8.488281 4.335938 L 8.488281 4.125 L 8 3.402344 L 8 3.40625 L 8 3.402344 L 7.511719 4.125 L 7.511719 4.335938 L 7.410156 3.964844 Z M 6.75 3.390625 "/>
<path style="fill:none;stroke-width:3;stroke-linecap:round;stroke-linejoin:round;stroke:rgb(100%,71.764706%,23.529412%);stroke-opacity:1;stroke-miterlimit:4;" d="M 7.496305 13.497108 L 13.50497 13.497108 C 10.231678 16.919185 9.499193 19.07086 9.499193 23.500104 " transform="matrix(0.341304,0,0,0.341304,2.539137,2.709789)"/>
<path style="fill:none;stroke-width:3;stroke-linecap:round;stroke-linejoin:round;stroke:rgb(100%,71.764706%,23.529412%);stroke-opacity:1;stroke-miterlimit:4;" d="M 19.502189 13.497108 L 19.502189 23.500104 " transform="matrix(0.341304,0,0,0.341304,2.539137,2.709789)"/>
<path style="fill:none;stroke-width:3;stroke-linecap:round;stroke-linejoin:round;stroke:rgb(100%,71.764706%,23.529412%);stroke-opacity:1;stroke-miterlimit:4;" d="M 24.503687 13.497108 L 19.502189 19.288316 " transform="matrix(0.341304,0,0,0.341304,2.539137,2.709789)"/>
<path style="fill:none;stroke-width:3;stroke-linecap:round;stroke-linejoin:round;stroke:rgb(100%,71.764706%,23.529412%);stroke-opacity:1;stroke-miterlimit:4;" d="M 24.503687 23.500104 L 19.502189 17.857682 " transform="matrix(0.341304,0,0,0.341304,2.539137,2.709789)"/>
<path style=" stroke:none;fill-rule:nonzero;fill:rgb(95.686275%,31.764706%,31.764706%);fill-opacity:1;" d="M 8 6.464844 L 5.953125 3.050781 L 10.046875 3.050781 Z M 8 6.464844 "/>
</g>
</svg>
