<?xml version="1.0" encoding="UTF-8"?>
<svg xmlns="http://www.w3.org/2000/svg" xmlns:xlink="http://www.w3.org/1999/xlink" width="16pt" height="16pt" viewBox="0 0 16 16" version="1.1">
<g id="surface1">
<path style=" stroke:none;fill-rule:evenodd;fill:rgb(96.078431%,51.764706%,6.666667%);fill-opacity:1;" d="M 3.734375 0.949219 L 12.265625 0.949219 C 13.800781 0.949219 15.050781 2.199219 15.050781 3.734375 L 15.050781 12.265625 C 15.050781 13.800781 13.800781 15.050781 12.265625 15.050781 L 3.734375 15.050781 C 2.199219 15.050781 0.949219 13.800781 0.949219 12.265625 L 0.949219 3.734375 C 0.949219 2.199219 2.199219 0.949219 3.734375 0.949219 Z M 3.734375 0.949219 "/>
<path style=" stroke:none;fill-rule:nonzero;fill:rgb(100%,80.392157%,43.137255%);fill-opacity:1;" d="M 9.359375 3.5 L 10.859375 2.5 L 10.859375 12.5 L 9.359375 13.5 Z M 9.359375 3.5 "/>
<path style=" stroke:none;fill-rule:nonzero;fill:rgb(100%,80.392157%,43.137255%);fill-opacity:1;" d="M 4.476562 10 L 2.859375 9.203125 L 11.523438 4.203125 L 13.140625 5 Z M 4.476562 10 "/>
<path style=" stroke:none;fill-rule:nonzero;fill:rgb(100%,80.392157%,43.137255%);fill-opacity:1;" d="M 13.023438 10.703125 L 13.140625 12.5 L 4.476562 7.5 L 4.359375 5.703125 Z M 13.023438 10.703125 "/>
</g>
</svg>
