<?xml version="1.0" encoding="UTF-8"?>
<svg xmlns="http://www.w3.org/2000/svg" xmlns:xlink="http://www.w3.org/1999/xlink" width="16pt" height="16pt" viewBox="0 0 16 16" version="1.1">
<g id="surface1">
<path style=" stroke:none;fill-rule:evenodd;fill:rgb(76.078431%,20.784314%,16.470588%);fill-opacity:1;" d="M 3.734375 0.949219 L 12.265625 0.949219 C 13.800781 0.949219 15.050781 2.199219 15.050781 3.734375 L 15.050781 12.265625 C 15.050781 13.800781 13.800781 15.050781 12.265625 15.050781 L 3.734375 15.050781 C 2.199219 15.050781 0.949219 13.800781 0.949219 12.265625 L 0.949219 3.734375 C 0.949219 2.199219 2.199219 0.949219 3.734375 0.949219 Z M 3.734375 0.949219 "/>
<path style=" stroke:none;fill-rule:nonzero;fill:rgb(40.392157%,54.509804%,100%);fill-opacity:1;" d="M 3.921875 7.058594 L 12.078125 7.058594 C 12.421875 7.058594 12.703125 7.339844 12.703125 7.6875 L 12.703125 8.3125 C 12.703125 8.660156 12.421875 8.941406 12.078125 8.941406 L 3.921875 8.941406 C 3.578125 8.941406 3.296875 8.660156 3.296875 8.3125 L 3.296875 7.6875 C 3.296875 7.339844 3.578125 7.058594 3.921875 7.058594 Z M 3.921875 7.058594 "/>
<path style=" stroke:none;fill-rule:nonzero;fill:rgb(100%,100%,100%);fill-opacity:1;" d="M 6.746094 11.449219 L 6.746094 4.550781 C 6.746094 4.03125 6.324219 3.609375 5.804688 3.609375 L 5.492188 3.609375 C 4.972656 3.609375 4.550781 4.03125 4.550781 4.550781 L 4.550781 11.449219 C 4.550781 11.96875 4.972656 12.390625 5.492188 12.390625 L 5.804688 12.390625 C 6.324219 12.390625 6.746094 11.96875 6.746094 11.449219 Z M 6.746094 11.449219 "/>
<path style=" stroke:none;fill-rule:nonzero;fill:rgb(100%,100%,100%);fill-opacity:1;" d="M 11.449219 11.449219 L 11.449219 4.550781 C 11.449219 4.03125 11.027344 3.609375 10.507812 3.609375 L 10.195312 3.609375 C 9.675781 3.609375 9.253906 4.03125 9.253906 4.550781 L 9.253906 11.449219 C 9.253906 11.96875 9.675781 12.390625 10.195312 12.390625 L 10.507812 12.390625 C 11.027344 12.390625 11.449219 11.96875 11.449219 11.449219 Z M 11.449219 11.449219 "/>
<path style=" stroke:none;fill-rule:nonzero;fill:rgb(100%,100%,100%);fill-opacity:1;" d="M 4.550781 10.664062 L 4.550781 5.335938 C 4.550781 5.074219 4.339844 4.863281 4.078125 4.863281 C 3.820312 4.863281 3.609375 5.074219 3.609375 5.335938 L 3.609375 10.664062 C 3.609375 10.925781 3.820312 11.136719 4.078125 11.136719 C 4.339844 11.136719 4.550781 10.925781 4.550781 10.664062 Z M 4.550781 10.664062 "/>
<path style=" stroke:none;fill-rule:nonzero;fill:rgb(100%,100%,100%);fill-opacity:1;" d="M 12.390625 10.664062 L 12.390625 5.335938 C 12.390625 5.074219 12.179688 4.863281 11.921875 4.863281 C 11.660156 4.863281 11.449219 5.074219 11.449219 5.335938 L 11.449219 10.664062 C 11.449219 10.925781 11.660156 11.136719 11.921875 11.136719 C 12.179688 11.136719 12.390625 10.925781 12.390625 10.664062 Z M 12.390625 10.664062 "/>
</g>
</svg>
