<?xml version="1.0" encoding="UTF-8"?>
<svg xmlns="http://www.w3.org/2000/svg" xmlns:xlink="http://www.w3.org/1999/xlink" width="16pt" height="16pt" viewBox="0 0 16 16" version="1.1">
<g id="surface1">
<path style=" stroke:none;fill-rule:evenodd;fill:rgb(0%,77.254902%,92.54902%);fill-opacity:1;" d="M 9.382812 15.050781 L 9.382812 7.65625 C 9.382812 7.460938 9.304688 7.289062 9.175781 7.160156 C 9.050781 7.035156 8.875 6.957031 8.683594 6.957031 L 1.222656 6.957031 C 1.117188 6.957031 1.039062 7.027344 0.949219 7.070312 L 0.949219 12.261719 C 0.949219 13.808594 2.191406 15.050781 3.738281 15.050781 Z M 9.382812 15.050781 "/>
<path style=" stroke:none;fill-rule:evenodd;fill:rgb(76.078431%,76.078431%,76.078431%);fill-opacity:1;" d="M 9.382812 8.433594 L 9.382812 15.050781 L 12.265625 15.050781 C 13.808594 15.050781 15.050781 13.808594 15.050781 12.261719 L 15.050781 8.429688 C 15.046875 8.429688 15.046875 8.433594 15.042969 8.433594 Z M 9.382812 8.433594 "/>
<path style=" stroke:none;fill-rule:evenodd;fill:rgb(76.078431%,76.078431%,76.078431%);fill-opacity:1;" d="M 7.667969 0.949219 L 3.738281 0.949219 C 2.191406 0.949219 0.949219 2.191406 0.949219 3.734375 L 0.949219 7.070312 C 1.039062 7.027344 1.117188 6.957031 1.222656 6.957031 L 7.636719 6.957031 L 7.636719 1.023438 C 7.636719 0.996094 7.664062 0.976562 7.667969 0.949219 Z M 7.667969 0.949219 "/>
<path style=" stroke:none;fill-rule:evenodd;fill:rgb(84.705882%,85.490196%,86.27451%);fill-opacity:1;" d="M 7.667969 0.949219 C 7.664062 0.976562 7.636719 0.996094 7.636719 1.023438 L 7.636719 6.957031 L 8.683594 6.957031 C 8.875 6.957031 9.050781 7.035156 9.175781 7.160156 C 9.304688 7.289062 9.382812 7.460938 9.382812 7.65625 L 9.382812 8.433594 L 15.042969 8.433594 C 15.046875 8.433594 15.046875 8.429688 15.050781 8.429688 L 15.050781 3.734375 C 15.050781 2.191406 13.808594 0.949219 12.265625 0.949219 Z M 7.667969 0.949219 "/>
<path style=" stroke:none;fill-rule:nonzero;fill:rgb(61.568627%,61.568627%,61.568627%);fill-opacity:1;" d="M 12.90625 4.742188 L 12.90625 5.003906 L 10.429688 5.003906 C 10.453125 5.375 10.5625 5.65625 10.765625 5.851562 C 10.964844 6.046875 11.242188 6.140625 11.601562 6.140625 C 11.808594 6.140625 12.007812 6.117188 12.199219 6.066406 C 12.394531 6.015625 12.589844 5.9375 12.78125 5.835938 L 12.78125 6.347656 C 12.585938 6.429688 12.390625 6.492188 12.1875 6.53125 C 11.984375 6.578125 11.777344 6.597656 11.566406 6.597656 C 11.046875 6.597656 10.632812 6.445312 10.324219 6.140625 C 10.019531 5.835938 9.871094 5.425781 9.871094 4.90625 C 9.871094 4.371094 10.015625 3.945312 10.300781 3.632812 C 10.59375 3.316406 10.984375 3.15625 11.472656 3.15625 C 11.914062 3.15625 12.265625 3.300781 12.519531 3.585938 C 12.777344 3.867188 12.90625 4.253906 12.90625 4.742188 M 12.367188 4.582031 C 12.363281 4.289062 12.28125 4.054688 12.117188 3.878906 C 11.957031 3.703125 11.746094 3.613281 11.480469 3.613281 C 11.179688 3.613281 10.9375 3.699219 10.757812 3.871094 C 10.578125 4.039062 10.476562 4.277344 10.449219 4.585938 L 12.367188 4.582031 M 11.71875 1.972656 L 12.3125 1.972656 L 12.3125 2.5625 L 11.71875 2.5625 L 11.71875 1.972656 M 10.574219 1.972656 L 11.167969 1.972656 L 11.167969 2.5625 L 10.574219 2.5625 L 10.574219 1.972656 "/>
<path style=" stroke:none;fill-rule:nonzero;fill:rgb(100%,100%,100%);fill-opacity:1;" d="M 5.675781 11.097656 C 5.203125 11.097656 4.878906 11.148438 4.699219 11.253906 C 4.519531 11.359375 4.429688 11.535156 4.429688 11.789062 C 4.429688 11.988281 4.496094 12.148438 4.628906 12.265625 C 4.765625 12.382812 4.953125 12.441406 5.1875 12.441406 C 5.507812 12.441406 5.765625 12.332031 5.957031 12.109375 C 6.15625 11.886719 6.25 11.59375 6.25 11.222656 L 6.25 11.097656 L 5.675781 11.097656 M 6.832031 10.863281 L 6.832031 12.828125 L 6.253906 12.828125 L 6.253906 12.304688 C 6.121094 12.511719 5.953125 12.667969 5.757812 12.765625 C 5.558594 12.867188 5.316406 12.914062 5.03125 12.914062 C 4.671875 12.914062 4.382812 12.816406 4.167969 12.621094 C 3.953125 12.421875 3.847656 12.15625 3.847656 11.824219 C 3.847656 11.4375 3.980469 11.148438 4.246094 10.949219 C 4.511719 10.753906 4.910156 10.65625 5.4375 10.65625 L 6.253906 10.65625 L 6.253906 10.601562 C 6.253906 10.339844 6.164062 10.140625 5.988281 10 C 5.8125 9.855469 5.566406 9.78125 5.25 9.78125 C 5.046875 9.78125 4.851562 9.808594 4.660156 9.855469 C 4.46875 9.902344 4.28125 9.972656 4.105469 10.066406 L 4.105469 9.542969 C 4.320312 9.464844 4.527344 9.40625 4.726562 9.367188 C 4.925781 9.324219 5.121094 9.304688 5.308594 9.304688 C 5.820312 9.304688 6.203125 9.433594 6.453125 9.691406 C 6.707031 9.949219 6.832031 10.339844 6.832031 10.863281 M 4.875 7.796875 L 5.765625 8.945312 L 5.285156 8.945312 L 4.253906 7.796875 L 4.875 7.796875 "/>
</g>
</svg>
