<?xml version="1.0" encoding="UTF-8"?>
<svg xmlns="http://www.w3.org/2000/svg" xmlns:xlink="http://www.w3.org/1999/xlink" width="16pt" height="16pt" viewBox="0 0 16 16" version="1.1">
<g id="surface1">
<path style=" stroke:none;fill-rule:evenodd;fill:rgb(26.666667%,30.588235%,51.372549%);fill-opacity:1;" d="M 3.734375 0.949219 L 12.265625 0.949219 C 13.800781 0.949219 15.050781 2.199219 15.050781 3.734375 L 15.050781 12.265625 C 15.050781 13.800781 13.800781 15.050781 12.265625 15.050781 L 3.734375 15.050781 C 2.199219 15.050781 0.949219 13.800781 0.949219 12.265625 L 0.949219 3.734375 C 0.949219 2.199219 2.199219 0.949219 3.734375 0.949219 Z M 3.734375 0.949219 "/>
<path style=" stroke:none;fill-rule:nonzero;fill:rgb(10.980392%,51.372549%,67.058824%);fill-opacity:1;" d="M 3.5 4.53125 C 3.5 4.53125 4.550781 4.5 5.414062 4.5 C 6.617188 4.5 8 4.898438 8 7 C 8 9.101562 6.613281 9.5 5.414062 9.492188 C 5.148438 9.503906 5 9.507812 5 9.507812 L 5 11.5 L 3.5 11.5 Z M 5 8.496094 C 5.152344 8.511719 5.152344 8.503906 5.378906 8.5 C 6.132812 8.492188 6.5 7.671875 6.5 6.949219 C 6.5 6.304688 6.214844 5.527344 5.488281 5.5 C 5.203125 5.488281 5 5.5 5 5.5 Z M 5 8.496094 "/>
<path style=" stroke:none;fill-rule:nonzero;fill:rgb(10.980392%,51.372549%,67.058824%);fill-opacity:1;" d="M 9 10 C 9.273438 10.183594 9.796875 10.5 10.234375 10.5 C 10.6875 10.5 11 10.222656 11 9.953125 C 11 9.683594 10.917969 9.355469 10.359375 9.148438 C 9.371094 8.78125 8.992188 8.34375 9 7.734375 C 9 6.742188 9.761719 6 10.945312 6 C 11.5 6 12.25 6.5 12.25 6.5 L 12.25 7.5 C 12.035156 7.371094 11.40625 7 10.996094 7 C 10.632812 7 10.273438 7.292969 10.273438 7.558594 C 10.273438 7.90625 10.613281 7.9375 11.199219 8.164062 C 12.109375 8.507812 12.488281 9.011719 12.5 9.785156 C 12.5 10.765625 11.804688 11.546875 10.425781 11.5 C 9.953125 11.480469 9.359375 11.214844 9 11 C 9 10.609375 9 10.390625 9 10 Z M 9 10 "/>
</g>
</svg>
