<?xml version="1.0" encoding="UTF-8"?>
<svg xmlns="http://www.w3.org/2000/svg" xmlns:xlink="http://www.w3.org/1999/xlink" width="16pt" height="16pt" viewBox="0 0 16 16" version="1.1">
<g id="surface1">
<path style=" stroke:none;fill-rule:evenodd;fill:rgb(72.941176%,17.647059%,17.647059%);fill-opacity:1;" d="M 3.734375 0.949219 L 12.265625 0.949219 C 13.800781 0.949219 15.050781 2.199219 15.050781 3.734375 L 15.050781 12.265625 C 15.050781 13.800781 13.800781 15.050781 12.265625 15.050781 L 3.734375 15.050781 C 2.199219 15.050781 0.949219 13.800781 0.949219 12.265625 L 0.949219 3.734375 C 0.949219 2.199219 2.199219 0.949219 3.734375 0.949219 Z M 3.734375 0.949219 "/>
<path style=" stroke:none;fill-rule:nonzero;fill:rgb(51.764706%,51.764706%,51.764706%);fill-opacity:1;" d="M 5.9375 3.261719 L 6.421875 3.261719 C 6.6875 3.261719 6.90625 3.488281 6.90625 3.765625 L 6.90625 6.769531 C 6.90625 7.046875 6.6875 7.269531 6.421875 7.269531 L 5.9375 7.269531 C 5.667969 7.269531 5.449219 7.046875 5.449219 6.769531 L 5.449219 3.765625 C 5.449219 3.488281 5.667969 3.261719 5.9375 3.261719 Z M 5.9375 3.261719 "/>
<path style=" stroke:none;fill-rule:nonzero;fill:rgb(51.764706%,51.764706%,51.764706%);fill-opacity:1;" d="M 9.578125 3.261719 L 10.0625 3.261719 C 10.332031 3.261719 10.550781 3.488281 10.550781 3.765625 L 10.550781 6.769531 C 10.550781 7.046875 10.332031 7.269531 10.0625 7.269531 L 9.578125 7.269531 C 9.3125 7.269531 9.09375 7.046875 9.09375 6.769531 L 9.09375 3.765625 C 9.09375 3.488281 9.3125 3.261719 9.578125 3.261719 Z M 9.578125 3.261719 "/>
<path style=" stroke:none;fill-rule:nonzero;fill:rgb(100%,100%,100%);fill-opacity:1;" d="M 4.84375 6.90625 L 11.15625 6.90625 C 11.425781 6.90625 11.644531 7.125 11.644531 7.390625 L 11.644531 12.25 C 11.644531 12.519531 11.425781 12.738281 11.15625 12.738281 L 4.84375 12.738281 C 4.574219 12.738281 4.355469 12.519531 4.355469 12.25 L 4.355469 7.390625 C 4.355469 7.125 4.574219 6.90625 4.84375 6.90625 Z M 4.84375 6.90625 "/>
</g>
</svg>
