<?xml version="1.0" encoding="UTF-8"?>
<svg xmlns="http://www.w3.org/2000/svg" xmlns:xlink="http://www.w3.org/1999/xlink" width="16pt" height="16pt" viewBox="0 0 16 16" version="1.1">
<g id="surface1">
<path style=" stroke:none;fill-rule:evenodd;fill:rgb(81.960784%,100%,25.882353%);fill-opacity:1;" d="M 3.734375 0.949219 L 12.265625 0.949219 C 13.800781 0.949219 15.050781 2.199219 15.050781 3.734375 L 15.050781 12.265625 C 15.050781 13.800781 13.800781 15.050781 12.265625 15.050781 L 3.734375 15.050781 C 2.199219 15.050781 0.949219 13.800781 0.949219 12.265625 L 0.949219 3.734375 C 0.949219 2.199219 2.199219 0.949219 3.734375 0.949219 Z M 3.734375 0.949219 "/>
<path style=" stroke:none;fill-rule:nonzero;fill:rgb(30.980392%,30.980392%,30.980392%);fill-opacity:1;" d="M 13.5 9 C 12.589844 10 11.574219 11.070312 10.15625 10.972656 C 9.566406 10.882812 8.925781 10.226562 8.453125 9.578125 C 7.859375 8.75 7.355469 7.789062 6.816406 6.894531 C 6.363281 6.21875 5.796875 5.554688 4.703125 6.367188 C 4.328125 6.632812 3.960938 7.105469 3.679688 7.613281 C 3.226562 8.421875 4.015625 9.507812 4.75 9.5 C 7.785156 9.46875 11.15625 6.402344 13 5 C 11.332031 6.792969 10.4375 7.820312 7.019531 9.8125 C 6.179688 10.296875 5.441406 10.605469 4.359375 10.867188 C 3.714844 11.027344 2.761719 11.171875 2.550781 10.484375 C 2.335938 9.769531 2.855469 8.667969 2.960938 8.425781 C 3.777344 6.625 4.996094 4.75 7.125 5.027344 C 9.15625 5.292969 9.25 8.460938 10.765625 9.296875 C 11.511719 9.703125 12.066406 9.75 13.5 9 Z M 13.5 9 "/>
</g>
</svg>
