<?xml version="1.0" encoding="UTF-8"?>
<svg xmlns="http://www.w3.org/2000/svg" xmlns:xlink="http://www.w3.org/1999/xlink" width="16pt" height="16pt" viewBox="0 0 16 16" version="1.1">
<g id="surface1">
<path style=" stroke:none;fill-rule:evenodd;fill:rgb(6.27451%,61.568627%,56.078431%);fill-opacity:1;" d="M 3.734375 0.949219 L 12.265625 0.949219 C 13.800781 0.949219 15.050781 2.199219 15.050781 3.734375 L 15.050781 12.265625 C 15.050781 13.800781 13.800781 15.050781 12.265625 15.050781 L 3.734375 15.050781 C 2.199219 15.050781 0.949219 13.800781 0.949219 12.265625 L 0.949219 3.734375 C 0.949219 2.199219 2.199219 0.949219 3.734375 0.949219 Z M 3.734375 0.949219 "/>
<path style=" stroke:none;fill-rule:nonzero;fill:rgb(100%,100%,100%);fill-opacity:1;" d="M 4.773438 6.773438 C 4.484375 6.773438 4.25 7.039062 4.25 7.367188 L 4.25 9.679688 C 4.25 10.007812 4.484375 10.273438 4.773438 10.273438 C 5.058594 10.273438 5.25 10.007812 5.25 9.679688 L 5.25 7.367188 C 5.25 7.039062 5.0625 6.773438 4.773438 6.773438 "/>
<path style=" stroke:none;fill-rule:nonzero;fill:rgb(100%,100%,100%);fill-opacity:1;" d="M 5.75 6.773438 L 5.75 11.023438 C 5.75 11.140625 5.882812 11.273438 6 11.273438 L 6.75 11.273438 L 6.75 12.210938 C 6.75 12.523438 6.949219 12.773438 7.25 12.773438 C 7.550781 12.773438 7.761719 12.523438 7.75 12.210938 L 7.75 11.273438 L 8.25 11.273438 L 8.25 12.210938 C 8.25 12.523438 8.449219 12.773438 8.75 12.773438 C 9.050781 12.773438 9.25 12.519531 9.25 12.210938 L 9.25 11.273438 L 10 11.273438 C 10.117188 11.273438 10.25 11.140625 10.25 11.023438 L 10.25 6.773438 Z M 5.75 6.773438 "/>
<path style=" stroke:none;fill-rule:nonzero;fill:rgb(100%,100%,100%);fill-opacity:1;" d="M 11.273438 6.773438 C 10.984375 6.773438 10.75 7.039062 10.75 7.367188 L 10.75 9.679688 C 10.75 10.007812 10.984375 10.273438 11.273438 10.273438 C 11.558594 10.273438 11.75 10.007812 11.75 9.679688 L 11.75 7.367188 C 11.75 7.039062 11.5625 6.773438 11.273438 6.773438 "/>
<path style=" stroke:none;fill-rule:nonzero;fill:rgb(100%,100%,100%);fill-opacity:1;" d="M 6.683594 3.226562 L 6.25 3.476562 L 6.847656 4.511719 C 5.753906 5.042969 5.75 6.273438 5.75 6.273438 L 10.25 6.273438 C 10.25 6.273438 10.246094 5.042969 9.152344 4.511719 L 9.75 3.476562 L 9.316406 3.226562 L 8.671875 4.347656 C 8.472656 4.300781 8.25 4.273438 8 4.273438 C 7.75 4.273438 7.53125 4.300781 7.328125 4.347656 Z M 7 5.273438 C 7.140625 5.273438 7.25 5.386719 7.25 5.523438 C 7.25 5.660156 7.136719 5.773438 7 5.773438 C 6.863281 5.773438 6.75 5.664062 6.75 5.523438 C 6.75 5.386719 6.863281 5.273438 7 5.273438 Z M 9 5.273438 C 9.140625 5.273438 9.25 5.386719 9.25 5.523438 C 9.25 5.660156 9.136719 5.773438 9 5.773438 C 8.863281 5.773438 8.75 5.664062 8.75 5.523438 C 8.75 5.386719 8.863281 5.273438 9 5.273438 Z M 9 5.273438 "/>
</g>
</svg>
