<?xml version="1.0" encoding="UTF-8"?>
<svg xmlns="http://www.w3.org/2000/svg" xmlns:xlink="http://www.w3.org/1999/xlink" width="16pt" height="16pt" viewBox="0 0 16 16" version="1.1">
<g id="surface1">
<path style=" stroke:none;fill-rule:evenodd;fill:rgb(30.980392%,30.980392%,30.980392%);fill-opacity:1;" d="M 3.734375 0.949219 L 12.265625 0.949219 C 13.800781 0.949219 15.050781 2.199219 15.050781 3.734375 L 15.050781 12.265625 C 15.050781 13.800781 13.800781 15.050781 12.265625 15.050781 L 3.734375 15.050781 C 2.199219 15.050781 0.949219 13.800781 0.949219 12.265625 L 0.949219 3.734375 C 0.949219 2.199219 2.199219 0.949219 3.734375 0.949219 Z M 3.734375 0.949219 "/>
<path style=" stroke:none;fill-rule:nonzero;fill:rgb(100%,38.823529%,38.823529%);fill-opacity:1;" d="M 3.519531 10.242188 L 5.132812 10.242188 C 5.515625 10.242188 5.828125 10.53125 5.828125 10.894531 L 5.828125 12.589844 C 5.828125 12.949219 5.515625 13.242188 5.132812 13.242188 L 3.519531 13.242188 C 3.136719 13.242188 2.828125 12.949219 2.828125 12.589844 L 2.828125 10.894531 C 2.828125 10.53125 3.136719 10.242188 3.519531 10.242188 Z M 3.519531 10.242188 "/>
<path style=" stroke:none;fill-rule:nonzero;fill:rgb(100%,38.823529%,38.823529%);fill-opacity:1;" d="M 3.519531 5.742188 L 5.132812 5.742188 C 5.515625 5.742188 5.828125 6.03125 5.828125 6.394531 L 5.828125 8.089844 C 5.828125 8.449219 5.515625 8.742188 5.132812 8.742188 L 3.519531 8.742188 C 3.136719 8.742188 2.828125 8.449219 2.828125 8.089844 L 2.828125 6.394531 C 2.828125 6.03125 3.136719 5.742188 3.519531 5.742188 Z M 3.519531 5.742188 "/>
<path style=" stroke:none;fill-rule:nonzero;fill:rgb(100%,38.823529%,38.823529%);fill-opacity:1;" d="M 8.019531 10.242188 L 9.632812 10.242188 C 10.015625 10.242188 10.328125 10.53125 10.328125 10.894531 L 10.328125 12.589844 C 10.328125 12.949219 10.015625 13.242188 9.632812 13.242188 L 8.019531 13.242188 C 7.636719 13.242188 7.328125 12.949219 7.328125 12.589844 L 7.328125 10.894531 C 7.328125 10.53125 7.636719 10.242188 8.019531 10.242188 Z M 8.019531 10.242188 "/>
<path style=" stroke:none;fill-rule:nonzero;fill:rgb(100%,38.823529%,38.823529%);fill-opacity:1;" d="M 8.019531 5.742188 L 9.632812 5.742188 C 10.015625 5.742188 10.328125 6.03125 10.328125 6.394531 L 10.328125 8.089844 C 10.328125 8.449219 10.015625 8.742188 9.632812 8.742188 L 8.019531 8.742188 C 7.636719 8.742188 7.328125 8.449219 7.328125 8.089844 L 7.328125 6.394531 C 7.328125 6.03125 7.636719 5.742188 8.019531 5.742188 Z M 8.019531 5.742188 "/>
</g>
</svg>
