<?xml version="1.0" encoding="UTF-8"?>
<svg xmlns="http://www.w3.org/2000/svg" xmlns:xlink="http://www.w3.org/1999/xlink" width="16pt" height="16pt" viewBox="0 0 16 16" version="1.1">
<g id="surface1">
<path style=" stroke:none;fill-rule:evenodd;fill:rgb(52.54902%,36.862745%,56.470588%);fill-opacity:1;" d="M 3.734375 0.949219 L 12.265625 0.949219 C 13.800781 0.949219 15.050781 2.199219 15.050781 3.734375 L 15.050781 12.265625 C 15.050781 13.800781 13.800781 15.050781 12.265625 15.050781 L 3.734375 15.050781 C 2.199219 15.050781 0.949219 13.800781 0.949219 12.265625 L 0.949219 3.734375 C 0.949219 2.199219 2.199219 0.949219 3.734375 0.949219 Z M 3.734375 0.949219 "/>
<path style=" stroke:none;fill-rule:nonzero;fill:rgb(63.137255%,63.137255%,84.313725%);fill-opacity:1;" d="M 4.5 7.25 C 4.273438 7.179688 3.5 7.75 3.5 7.75 C 3.910156 6.230469 6.5 4.75 6.5 4.75 C 6.25 4.65625 5 4.75 5 4.75 C 6.84375 2.957031 9.503906 3.75 9.503906 3.75 C 9.570312 3.359375 10.503906 2.75 10.503906 2.75 C 10.390625 2.863281 10.503906 3.5 10.503906 3.5 C 10.617188 3.292969 11.003906 3.25 11.003906 3.25 C 10.796875 3.734375 10.8125 4.703125 10.8125 4.703125 C 11.40625 5.300781 12.0625 7.375 12.0625 7.375 L 12.316406 7.742188 C 12.636719 8.203125 12.503906 8.925781 12.1875 9.09375 C 11.304688 9.625 10.902344 8.570312 10.902344 8.570312 C 9.921875 8.453125 9.003906 7.25 9.003906 7.25 C 7.757812 7.953125 9.167969 10.179688 9.734375 10.925781 C 10.46875 11.886719 9.503906 13.246094 9.503906 13.246094 C 9.503906 13.246094 7 13.421875 5.128906 11.496094 C 4.203125 10.507812 3.5 9.40625 4.5 7.25 Z M 4.5 7.25 "/>
</g>
</svg>
