<?xml version="1.0" encoding="UTF-8"?>
<svg xmlns="http://www.w3.org/2000/svg" xmlns:xlink="http://www.w3.org/1999/xlink" width="16pt" height="16pt" viewBox="0 0 16 16" version="1.1">
<g id="surface1">
<path style=" stroke:none;fill-rule:evenodd;fill:rgb(78.039216%,78.039216%,78.039216%);fill-opacity:1;" d="M 0.980469 3.59375 C 0.976562 3.644531 0.949219 3.6875 0.949219 3.738281 L 0.949219 12.265625 C 0.949219 13.808594 2.191406 15.050781 3.738281 15.050781 L 12.265625 15.050781 C 13.808594 15.050781 15.050781 13.808594 15.050781 12.265625 L 15.050781 3.738281 C 15.050781 3.6875 15.023438 3.644531 15.023438 3.59375 Z M 0.980469 3.59375 "/>
<path style=" stroke:none;fill-rule:evenodd;fill:rgb(32.156863%,58.039216%,88.627451%);fill-opacity:1;" d="M 0.980469 3.59375 L 15.023438 3.59375 C 14.945312 2.121094 13.757812 0.949219 12.265625 0.949219 L 3.738281 0.949219 C 2.246094 0.949219 1.058594 2.121094 0.980469 3.59375 Z M 0.980469 3.59375 "/>
<path style=" stroke:none;fill-rule:nonzero;fill:rgb(100%,100%,100%);fill-opacity:1;" d="M 3.023438 10.746094 L 12.976562 10.746094 C 13.265625 10.746094 13.5 11.023438 13.5 11.367188 L 13.5 11.625 C 13.5 11.96875 13.265625 12.246094 12.976562 12.246094 L 3.023438 12.246094 C 2.734375 12.246094 2.5 11.96875 2.5 11.625 L 2.5 11.367188 C 2.5 11.023438 2.734375 10.746094 3.023438 10.746094 Z M 3.023438 10.746094 "/>
<path style=" stroke:none;fill-rule:evenodd;fill:rgb(32.156863%,58.039216%,88.627451%);fill-opacity:1;" d="M 12 11.496094 C 12 12.460938 11.214844 13.246094 10.25 13.246094 C 9.285156 13.246094 8.5 12.460938 8.5 11.496094 C 8.5 10.53125 9.285156 9.746094 10.25 9.746094 C 11.214844 9.746094 12 10.53125 12 11.496094 Z M 12 11.496094 "/>
<path style=" stroke:none;fill-rule:nonzero;fill:rgb(100%,100%,96.862745%);fill-opacity:1;" d="M 4 5.996094 C 4 6.410156 3.664062 6.746094 3.25 6.746094 C 2.835938 6.746094 2.5 6.410156 2.5 5.996094 C 2.5 5.582031 2.835938 5.246094 3.25 5.246094 C 3.664062 5.246094 4 5.582031 4 5.996094 Z M 4 5.996094 "/>
<path style=" stroke:none;fill-rule:nonzero;fill:rgb(32.156863%,58.039216%,88.627451%);fill-opacity:1;" d="M 5.734375 7.746094 L 6.765625 7.746094 C 6.894531 7.746094 7 7.859375 7 8.003906 L 7 8.988281 C 7 9.128906 6.894531 9.246094 6.765625 9.246094 L 5.734375 9.246094 C 5.605469 9.246094 5.5 9.128906 5.5 8.988281 L 5.5 8.003906 C 5.5 7.859375 5.605469 7.746094 5.734375 7.746094 Z M 5.734375 7.746094 "/>
<path style=" stroke:none;fill-rule:nonzero;fill:rgb(32.156863%,58.039216%,88.627451%);fill-opacity:1;" d="M 4 8.496094 C 4 8.910156 3.664062 9.246094 3.25 9.246094 C 2.835938 9.246094 2.5 8.910156 2.5 8.496094 C 2.5 8.082031 2.835938 7.746094 3.25 7.746094 C 3.664062 7.746094 4 8.082031 4 8.496094 Z M 4 8.496094 "/>
<path style=" stroke:none;fill-rule:nonzero;fill:rgb(100%,100%,100%);fill-opacity:1;" d="M 5.734375 5.246094 L 6.765625 5.246094 C 6.894531 5.246094 7 5.359375 7 5.503906 L 7 6.488281 C 7 6.628906 6.894531 6.746094 6.765625 6.746094 L 5.734375 6.746094 C 5.605469 6.746094 5.5 6.628906 5.5 6.488281 L 5.5 5.503906 C 5.5 5.359375 5.605469 5.246094 5.734375 5.246094 Z M 5.734375 5.246094 "/>
</g>
</svg>
