<?xml version="1.0" encoding="UTF-8"?>
<svg xmlns="http://www.w3.org/2000/svg" xmlns:xlink="http://www.w3.org/1999/xlink" width="16pt" height="16pt" viewBox="0 0 16 16" version="1.1">
<g id="surface1">
<path style=" stroke:none;fill-rule:evenodd;fill:rgb(76.078431%,20.784314%,16.470588%);fill-opacity:1;" d="M 3.734375 0.949219 L 12.265625 0.949219 C 13.800781 0.949219 15.050781 2.199219 15.050781 3.734375 L 15.050781 12.265625 C 15.050781 13.800781 13.800781 15.050781 12.265625 15.050781 L 3.734375 15.050781 C 2.199219 15.050781 0.949219 13.800781 0.949219 12.265625 L 0.949219 3.734375 C 0.949219 2.199219 2.199219 0.949219 3.734375 0.949219 Z M 3.734375 0.949219 "/>
<path style=" stroke:none;fill-rule:nonzero;fill:rgb(100%,100%,100%);fill-opacity:1;" d="M 9.75 3.710938 C 9.03125 3.710938 8.386719 4.078125 7.933594 4.628906 C 7.484375 4.078125 6.835938 3.710938 6.121094 3.710938 C 4.753906 3.710938 3.644531 4.972656 3.644531 6.527344 C 3.644531 6.945312 3.710938 7.347656 3.824219 7.730469 C 3.824219 7.730469 3.925781 8.078125 4.019531 8.269531 C 5.0625 10.707031 7.933594 12.289062 7.933594 12.289062 C 7.933594 12.289062 10.808594 10.707031 11.847656 8.269531 C 12.890625 5.828125 11.984375 7.945312 12.042969 7.730469 C 12.152344 7.34375 12.222656 6.945312 12.222656 6.527344 C 12.222656 4.972656 11.113281 3.710938 9.75 3.710938 Z M 9.75 3.710938 "/>
</g>
</svg>
