<?xml version="1.0" encoding="UTF-8"?>
<svg xmlns="http://www.w3.org/2000/svg" xmlns:xlink="http://www.w3.org/1999/xlink" width="16pt" height="16pt" viewBox="0 0 16 16" version="1.1">
<g id="surface1">
<path style=" stroke:none;fill-rule:evenodd;fill:rgb(30.980392%,30.980392%,30.980392%);fill-opacity:1;" d="M 3.738281 0.949219 C 2.191406 0.949219 0.949219 2.191406 0.949219 3.734375 L 0.949219 6.425781 C 1.007812 6.296875 0.976562 6.289062 1.050781 6.152344 C 1.246094 5.796875 1.503906 5.441406 1.839844 5.175781 C 2.007812 5.042969 2.195312 4.933594 2.402344 4.855469 C 2.609375 4.777344 2.84375 4.734375 3.09375 4.734375 C 3.417969 4.734375 3.683594 4.828125 3.910156 5 C 4.136719 5.171875 4.328125 5.417969 4.488281 5.710938 C 4.8125 6.296875 5.027344 7.082031 5.25 7.867188 C 5.472656 8.652344 5.695312 9.4375 6.035156 10.027344 C 6.203125 10.324219 6.402344 10.570312 6.640625 10.746094 C 6.878906 10.917969 7.160156 11.019531 7.5 11.023438 C 7.917969 11.027344 8.316406 10.898438 8.707031 10.703125 C 9.097656 10.507812 9.480469 10.242188 9.863281 9.980469 C 10.246094 9.71875 10.632812 9.453125 11.03125 9.253906 C 11.425781 9.058594 11.835938 8.925781 12.265625 8.925781 C 13.128906 8.925781 13.867188 9.132812 14.382812 9.339844 C 14.804688 9.511719 14.960938 9.621094 15.050781 9.679688 L 15.050781 3.734375 C 15.050781 2.191406 13.808594 0.949219 12.265625 0.949219 Z M 3.738281 0.949219 "/>
<path style=" stroke:none;fill-rule:nonzero;fill:rgb(0%,0%,0%);fill-opacity:0.254902;" d="M 0.949219 9.378906 L 15.050781 9.378906 L 15.050781 10.378906 L 0.949219 10.378906 Z M 0.949219 9.378906 "/>
<path style=" stroke:none;fill-rule:nonzero;fill:rgb(0%,0%,0%);fill-opacity:0.254902;" d="M 0.949219 3.089844 L 15.050781 3.089844 L 15.050781 4.089844 L 0.949219 4.089844 Z M 0.949219 3.089844 "/>
<path style=" stroke:none;fill-rule:nonzero;fill:rgb(0%,0%,0%);fill-opacity:0.254902;" d="M 0.949219 7.089844 L 15.050781 7.089844 L 15.050781 8.089844 L 0.949219 8.089844 Z M 0.949219 7.089844 "/>
<path style=" stroke:none;fill-rule:nonzero;fill:rgb(0%,0%,0%);fill-opacity:0.254902;" d="M 0.949219 5.089844 L 15.050781 5.089844 L 15.050781 6.089844 L 0.949219 6.089844 Z M 0.949219 5.089844 "/>
<path style=" stroke:none;fill-rule:evenodd;fill:rgb(27.843137%,85.490196%,44.705882%);fill-opacity:1;" d="M 15.050781 9.679688 C 14.960938 9.621094 14.804688 9.511719 14.382812 9.339844 C 13.867188 9.132812 13.128906 8.925781 12.265625 8.925781 C 11.835938 8.925781 11.425781 9.058594 11.03125 9.253906 C 10.632812 9.453125 10.246094 9.71875 9.863281 9.980469 C 9.480469 10.242188 9.097656 10.507812 8.707031 10.703125 C 8.316406 10.898438 7.917969 11.027344 7.5 11.023438 C 7.160156 11.019531 6.878906 10.917969 6.640625 10.746094 C 6.402344 10.570312 6.203125 10.324219 6.035156 10.027344 C 5.695312 9.4375 5.472656 8.652344 5.25 7.867188 C 5.027344 7.082031 4.8125 6.296875 4.488281 5.710938 C 4.328125 5.417969 4.136719 5.171875 3.910156 5 C 3.683594 4.828125 3.417969 4.734375 3.09375 4.734375 C 2.84375 4.734375 2.609375 4.777344 2.402344 4.855469 C 2.195312 4.933594 2.007812 5.042969 1.839844 5.175781 C 1.503906 5.441406 1.246094 5.796875 1.050781 6.152344 C 0.976562 6.289062 1.007812 6.296875 0.949219 6.425781 L 0.949219 12.261719 C 0.949219 13.808594 2.191406 15.050781 3.738281 15.050781 L 12.265625 15.050781 C 13.808594 15.050781 15.050781 13.808594 15.050781 12.261719 Z M 15.050781 9.679688 "/>
<path style=" stroke:none;fill-rule:nonzero;fill:rgb(50.196078%,50.196078%,50.196078%);fill-opacity:1;" d="M 3.417969 2.734375 C 5.886719 2.734375 5.0625 8.710938 7.648438 8.734375 C 9.253906 8.75 10.570312 6.734375 12.230469 6.734375 C 13.890625 6.734375 15.050781 7.527344 15.050781 7.527344 L 15.050781 8.027344 C 15.050781 8.027344 13.890625 7.234375 12.230469 7.234375 C 10.570312 7.234375 9.253906 9.25 7.648438 9.234375 C 5.0625 9.210938 5.886719 3.234375 3.417969 3.234375 C 1.46875 3.234375 0.949219 5.945312 0.949219 5.945312 L 0.949219 5.445312 C 0.949219 5.445312 1.46875 2.734375 3.417969 2.734375 Z M 3.417969 2.734375 "/>
</g>
</svg>
