<?xml version="1.0" encoding="UTF-8"?>
<svg xmlns="http://www.w3.org/2000/svg" xmlns:xlink="http://www.w3.org/1999/xlink" width="16pt" height="16pt" viewBox="0 0 16 16" version="1.1">
<g id="surface1">
<path style=" stroke:none;fill-rule:evenodd;fill:rgb(0.784314%,65.882353%,95.294118%);fill-opacity:1;" d="M 3.734375 0.949219 L 12.265625 0.949219 C 13.800781 0.949219 15.050781 2.199219 15.050781 3.734375 L 15.050781 12.265625 C 15.050781 13.800781 13.800781 15.050781 12.265625 15.050781 L 3.734375 15.050781 C 2.199219 15.050781 0.949219 13.800781 0.949219 12.265625 L 0.949219 3.734375 C 0.949219 2.199219 2.199219 0.949219 3.734375 0.949219 Z M 3.734375 0.949219 "/>
<path style=" stroke:none;fill-rule:nonzero;fill:rgb(100%,100%,100%);fill-opacity:1;" d="M 8 3 C 5.238281 3 3 5.238281 3 8 C 3.003906 10.566406 4.949219 12.714844 7.5 12.96875 L 7.5 13 L 8 13 C 10.761719 13 13 10.761719 13 8 C 13 5.238281 10.761719 3 8 3 Z M 8.5 4.035156 C 8.625 4.050781 8.75 4.074219 8.875 4.101562 C 8.949219 4.226562 9.269531 4.796875 9.566406 5.660156 C 9.253906 5.695312 8.894531 5.722656 8.5 5.738281 Z M 7.5 4.035156 L 7.5 5.738281 C 7.105469 5.722656 6.746094 5.695312 6.433594 5.660156 C 6.730469 4.796875 7.050781 4.230469 7.125 4.101562 C 7.25 4.074219 7.375 4.050781 7.5 4.035156 Z M 10.289062 4.722656 C 10.558594 4.910156 10.800781 5.132812 11.015625 5.378906 C 10.90625 5.414062 10.753906 5.453125 10.578125 5.492188 C 10.484375 5.207031 10.386719 4.957031 10.289062 4.722656 Z M 5.707031 4.726562 C 5.609375 4.960938 5.515625 5.210938 5.421875 5.492188 C 5.242188 5.453125 5.09375 5.414062 4.980469 5.378906 C 5.195312 5.132812 5.4375 4.914062 5.707031 4.726562 Z M 4.410156 6.246094 C 4.503906 6.28125 4.746094 6.355469 5.171875 6.453125 C 5.089844 6.863281 5.023438 7.546875 5.007812 8 L 4.011719 8 C 4.046875 7.476562 4.179688 6.71875 4.410156 6.246094 Z M 11.59375 6.246094 C 11.824219 6.71875 11.957031 7.476562 11.992188 8 L 10.992188 8 C 10.976562 7.546875 10.910156 6.863281 10.828125 6.453125 C 11.253906 6.355469 11.5 6.28125 11.59375 6.246094 Z M 6.160156 6.628906 C 6.550781 6.679688 7 6.71875 7.5 6.734375 L 7.5 8 L 6.007812 8 C 6.023438 7.613281 6.082031 6.988281 6.160156 6.628906 Z M 9.839844 6.628906 C 9.917969 6.988281 9.976562 7.613281 9.992188 8 L 8.5 8 L 8.5 6.734375 C 9 6.71875 9.449219 6.679688 9.839844 6.628906 Z M 4.074219 9 L 5.042969 9 C 5.09375 9.496094 5.199219 9.707031 5.320312 10.136719 C 5.097656 10.203125 4.910156 10.273438 4.757812 10.332031 C 4.417969 9.859375 4.183594 9.570312 4.074219 9 Z M 6.050781 9 L 7.5 9 L 7.5 9.769531 C 7.058594 9.792969 6.65625 9.835938 6.296875 9.902344 C 6.191406 9.539062 6.101562 9.40625 6.050781 9 Z M 8.5 9 L 9.949219 9 C 9.898438 9.40625 9.808594 9.539062 9.703125 9.902344 C 9.34375 9.835938 8.941406 9.792969 8.5 9.769531 Z M 10.957031 9 L 11.925781 9 C 11.816406 9.570312 11.582031 9.859375 11.246094 10.332031 C 11.089844 10.273438 10.902344 10.203125 10.679688 10.136719 C 10.800781 9.707031 10.90625 9.496094 10.957031 9 Z M 7.5 10.769531 L 7.5 11.964844 C 7.375 11.949219 7.25 11.925781 7.125 11.898438 C 7.066406 11.800781 6.867188 11.445312 6.625 10.851562 C 6.886719 10.8125 7.183594 10.785156 7.5 10.769531 Z M 8.5 10.769531 C 8.816406 10.785156 9.113281 10.8125 9.375 10.851562 C 9.132812 11.445312 8.933594 11.796875 8.875 11.898438 C 8.75 11.925781 8.625 11.949219 8.5 11.964844 Z M 5.628906 11.074219 C 5.65625 11.144531 5.683594 11.210938 5.710938 11.277344 C 5.636719 11.226562 5.566406 11.171875 5.5 11.117188 C 5.542969 11.101562 5.582031 11.089844 5.628906 11.074219 Z M 10.371094 11.074219 C 10.417969 11.089844 10.460938 11.105469 10.503906 11.117188 C 10.4375 11.171875 10.363281 11.222656 10.292969 11.273438 C 10.320312 11.207031 10.34375 11.144531 10.371094 11.074219 Z M 10.371094 11.074219 "/>
<path style=" stroke:none;fill-rule:evenodd;fill:rgb(80%,36.862745%,33.333333%);fill-opacity:1;" d="M 13.972656 11.28125 C 13.972656 12.664062 12.851562 13.78125 11.472656 13.78125 C 10.09375 13.78125 8.972656 12.664062 8.972656 11.28125 C 8.972656 9.902344 10.09375 8.78125 11.472656 8.78125 C 12.851562 8.78125 13.972656 9.902344 13.972656 11.28125 Z M 13.972656 11.28125 "/>
<path style=" stroke:none;fill-rule:nonzero;fill:rgb(100%,100%,100%);fill-opacity:1;" d="M 11.160156 10.03125 L 11.132812 10.363281 C 11.027344 10.402344 10.929688 10.457031 10.84375 10.53125 L 10.546875 10.390625 L 10.234375 10.929688 L 10.503906 11.117188 C 10.496094 11.171875 10.488281 11.226562 10.488281 11.28125 C 10.488281 11.339844 10.496094 11.394531 10.503906 11.449219 L 10.234375 11.640625 L 10.546875 12.179688 L 10.84375 12.039062 C 10.929688 12.109375 11.027344 12.164062 11.132812 12.203125 L 11.160156 12.53125 L 11.785156 12.53125 L 11.8125 12.203125 C 11.917969 12.167969 12.015625 12.109375 12.097656 12.039062 L 12.398438 12.179688 L 12.710938 11.640625 L 12.4375 11.449219 C 12.449219 11.394531 12.453125 11.339844 12.453125 11.28125 C 12.453125 11.226562 12.449219 11.171875 12.4375 11.117188 L 12.710938 10.929688 L 12.398438 10.390625 L 12.101562 10.53125 C 12.015625 10.457031 11.917969 10.402344 11.8125 10.363281 L 11.785156 10.03125 Z M 11.472656 10.925781 C 11.671875 10.925781 11.828125 11.085938 11.828125 11.285156 C 11.828125 11.480469 11.671875 11.640625 11.472656 11.640625 C 11.273438 11.640625 11.113281 11.480469 11.113281 11.285156 C 11.113281 11.085938 11.273438 10.925781 11.472656 10.925781 Z M 11.472656 10.925781 "/>
</g>
</svg>
