<?xml version="1.0" encoding="UTF-8"?>
<svg xmlns="http://www.w3.org/2000/svg" xmlns:xlink="http://www.w3.org/1999/xlink" width="16pt" height="16pt" viewBox="0 0 16 16" version="1.1">
<g id="surface1">
<path style=" stroke:none;fill-rule:evenodd;fill:rgb(55.686275%,55.686275%,55.686275%);fill-opacity:1;" d="M 3.734375 0.949219 L 12.265625 0.949219 C 13.800781 0.949219 15.050781 2.199219 15.050781 3.734375 L 15.050781 12.265625 C 15.050781 13.800781 13.800781 15.050781 12.265625 15.050781 L 3.734375 15.050781 C 2.199219 15.050781 0.949219 13.800781 0.949219 12.265625 L 0.949219 3.734375 C 0.949219 2.199219 2.199219 0.949219 3.734375 0.949219 Z M 3.734375 0.949219 "/>
<path style=" stroke:none;fill-rule:nonzero;fill:rgb(27.843137%,27.843137%,27.843137%);fill-opacity:1;" d="M 10.867188 11.988281 L 10.867188 5.402344 C 10.867188 5.140625 10.65625 4.929688 10.390625 4.929688 L 5.609375 4.929688 C 5.34375 4.929688 5.132812 5.140625 5.132812 5.402344 L 5.132812 11.988281 C 5.132812 12.25 5.34375 12.457031 5.609375 12.457031 L 10.390625 12.457031 C 10.65625 12.457031 10.867188 12.25 10.867188 11.988281 Z M 10.867188 11.988281 "/>
<path style=" stroke:none;fill-rule:nonzero;fill:rgb(27.843137%,27.843137%,27.843137%);fill-opacity:1;" d="M 12.660156 10.933594 L 12.660156 4.660156 C 12.660156 4.414062 12.453125 4.214844 12.195312 4.214844 L 3.804688 4.214844 C 3.546875 4.214844 3.339844 4.414062 3.339844 4.660156 L 3.339844 10.933594 C 3.339844 11.183594 3.546875 11.382812 3.804688 11.382812 L 12.195312 11.382812 C 12.453125 11.382812 12.660156 11.183594 12.660156 10.933594 Z M 12.660156 10.933594 "/>
<path style=" stroke:none;fill-rule:nonzero;fill:rgb(86.27451%,30.980392%,27.843137%);fill-opacity:1;" d="M 11.945312 10.667969 L 11.945312 4.929688 L 4.054688 4.929688 L 4.054688 10.667969 Z M 11.945312 10.667969 "/>
<path style=" stroke:none;fill-rule:nonzero;fill:rgb(100%,100%,100%);fill-opacity:1;" d="M 6.484375 6.847656 L 8.859375 6.847656 C 9.035156 6.847656 9.035156 7.023438 9.035156 7.023438 L 9.035156 8.855469 C 9.035156 9.03125 8.859375 9.03125 8.859375 9.03125 L 6.484375 9.03125 C 6.484375 9.03125 6.304688 9.03125 6.304688 8.855469 L 6.304688 7.023438 C 6.304688 7.023438 6.304688 6.847656 6.484375 6.847656 Z M 10.125 7.121094 L 10.125 8.894531 L 9.035156 7.941406 Z M 10.125 7.121094 "/>
</g>
</svg>
