<?xml version="1.0" encoding="UTF-8"?>
<svg xmlns="http://www.w3.org/2000/svg" xmlns:xlink="http://www.w3.org/1999/xlink" width="16pt" height="16pt" viewBox="0 0 16 16" version="1.1">
<g id="surface1">
<path style=" stroke:none;fill-rule:evenodd;fill:rgb(0.784314%,65.882353%,95.294118%);fill-opacity:1;" d="M 3.734375 0.949219 L 12.265625 0.949219 C 13.800781 0.949219 15.050781 2.199219 15.050781 3.734375 L 15.050781 12.265625 C 15.050781 13.800781 13.800781 15.050781 12.265625 15.050781 L 3.734375 15.050781 C 2.199219 15.050781 0.949219 13.800781 0.949219 12.265625 L 0.949219 3.734375 C 0.949219 2.199219 2.199219 0.949219 3.734375 0.949219 Z M 3.734375 0.949219 "/>
<path style=" stroke:none;fill-rule:nonzero;fill:rgb(100%,100%,100%);fill-opacity:1;" d="M 3.265625 3.855469 C 2.9375 3.855469 2.675781 4.117188 2.675781 4.441406 L 2.675781 11.472656 C 2.675781 11.796875 2.9375 11.953125 3.265625 11.953125 L 8.640625 11.953125 L 9.917969 13.230469 L 10.984375 11.953125 L 12.734375 11.953125 C 13.0625 11.953125 13.324219 11.796875 13.324219 11.472656 L 13.324219 4.441406 C 13.324219 4.117188 13.0625 3.855469 12.734375 3.855469 Z M 3.265625 3.855469 "/>
<path style=" stroke:none;fill-rule:nonzero;fill:rgb(60%,60%,60%);fill-opacity:1;" d="M 8 5.132812 C 6.46875 5.132812 5.230469 6.375 5.230469 7.902344 C 5.230469 9.433594 6.46875 10.671875 8 10.671875 C 9.53125 10.671875 10.769531 9.433594 10.769531 7.902344 C 10.769531 6.375 9.53125 5.132812 8 5.132812 Z M 8.53125 5.625 C 8.929688 5.71875 9.300781 5.917969 9.601562 6.199219 C 9.503906 6.289062 9.402344 6.375 9.289062 6.449219 C 9.089844 6.125 8.824219 5.84375 8.511719 5.628906 C 8.519531 5.625 8.523438 5.625 8.53125 5.625 Z M 7.472656 5.625 C 7.476562 5.625 7.484375 5.625 7.488281 5.628906 C 7.175781 5.84375 6.910156 6.125 6.710938 6.449219 C 6.597656 6.375 6.496094 6.289062 6.398438 6.199219 C 6.699219 5.917969 7.070312 5.71875 7.472656 5.625 Z M 7.785156 5.945312 L 7.785156 6.828125 C 7.539062 6.804688 7.304688 6.746094 7.085938 6.652344 C 7.265625 6.371094 7.503906 6.128906 7.785156 5.945312 Z M 8.214844 5.945312 C 8.496094 6.128906 8.734375 6.371094 8.914062 6.652344 C 8.695312 6.746094 8.460938 6.804688 8.214844 6.828125 Z M 6.117188 6.515625 C 6.242188 6.628906 6.371094 6.738281 6.515625 6.828125 C 6.398438 7.097656 6.328125 7.386719 6.308594 7.691406 L 5.667969 7.691406 C 5.707031 7.265625 5.863281 6.859375 6.117188 6.515625 Z M 9.882812 6.515625 C 10.136719 6.859375 10.292969 7.265625 10.332031 7.691406 L 9.691406 7.691406 C 9.671875 7.386719 9.601562 7.097656 9.484375 6.828125 C 9.628906 6.738281 9.757812 6.628906 9.882812 6.515625 Z M 6.890625 7.03125 C 7.167969 7.152344 7.46875 7.226562 7.785156 7.253906 L 7.785156 7.691406 L 6.734375 7.691406 C 6.753906 7.460938 6.808594 7.238281 6.890625 7.03125 Z M 9.109375 7.03125 C 9.191406 7.238281 9.246094 7.460938 9.265625 7.691406 L 8.214844 7.691406 L 8.214844 7.253906 C 8.53125 7.226562 8.828125 7.152344 9.109375 7.03125 Z M 5.667969 8.117188 L 6.308594 8.117188 C 6.328125 8.421875 6.398438 8.710938 6.515625 8.976562 C 6.375 9.066406 6.203125 9.140625 6.089844 9.253906 C 5.851562 8.917969 5.707031 8.527344 5.667969 8.117188 Z M 6.734375 8.117188 L 7.785156 8.117188 L 7.785156 8.554688 C 7.46875 8.578125 7.167969 8.652344 6.890625 8.777344 C 6.808594 8.566406 6.753906 8.347656 6.734375 8.117188 Z M 8.214844 8.117188 L 9.265625 8.117188 C 9.246094 8.347656 9.191406 8.566406 9.109375 8.777344 C 8.828125 8.652344 8.53125 8.578125 8.214844 8.554688 Z M 9.691406 8.117188 L 10.332031 8.117188 C 10.292969 8.542969 10.136719 8.949219 9.878906 9.292969 C 9.757812 9.179688 9.628906 9.070312 9.484375 8.976562 C 9.601562 8.710938 9.671875 8.421875 9.691406 8.117188 Z M 7.785156 8.980469 L 7.785156 9.859375 C 7.503906 9.675781 7.265625 9.4375 7.085938 9.152344 C 7.304688 9.0625 7.539062 9 7.785156 8.980469 Z M 8.214844 8.980469 C 8.460938 9 8.695312 9.0625 8.914062 9.152344 C 8.734375 9.4375 8.496094 9.675781 8.214844 9.859375 Z M 6.710938 9.355469 C 6.910156 9.679688 7.175781 9.960938 7.488281 10.179688 C 7.480469 10.179688 7.476562 10.179688 7.46875 10.183594 C 7.070312 10.089844 6.703125 9.890625 6.402344 9.609375 C 6.5 9.515625 6.597656 9.429688 6.710938 9.355469 Z M 9.289062 9.355469 C 9.402344 9.429688 9.503906 9.515625 9.601562 9.609375 C 9.300781 9.890625 8.929688 10.089844 8.527344 10.179688 C 8.523438 10.179688 8.515625 10.179688 8.511719 10.179688 C 8.824219 9.960938 9.089844 9.679688 9.289062 9.355469 Z M 9.289062 9.355469 "/>
</g>
</svg>
