<?xml version="1.0" encoding="UTF-8"?>
<svg xmlns="http://www.w3.org/2000/svg" xmlns:xlink="http://www.w3.org/1999/xlink" width="16pt" height="16pt" viewBox="0 0 16 16" version="1.1">
<g id="surface1">
<path style=" stroke:none;fill-rule:evenodd;fill:rgb(37.647059%,54.117647%,70.980392%);fill-opacity:1;" d="M 3.734375 0.949219 L 12.265625 0.949219 C 13.800781 0.949219 15.050781 2.199219 15.050781 3.734375 L 15.050781 12.265625 C 15.050781 13.800781 13.800781 15.050781 12.265625 15.050781 L 3.734375 15.050781 C 2.199219 15.050781 0.949219 13.800781 0.949219 12.265625 L 0.949219 3.734375 C 0.949219 2.199219 2.199219 0.949219 3.734375 0.949219 Z M 3.734375 0.949219 "/>
<path style="fill:none;stroke-width:1;stroke-linecap:round;stroke-linejoin:round;stroke:rgb(98.431373%,76.470588%,30.980392%);stroke-opacity:1;stroke-miterlimit:4;" d="M 8.202887 22.499075 L 10.003052 12.503973 L 10.997329 27.501859 L 12.002072 13.49825 L 12.99635 26.497116 L 14.001093 15.49727 L 14.99537 22.499075 L 17.004857 13.49825 L 17.004857 25.502839 L 19.003877 12.503973 L 21.002898 27.501859 L 21.997175 16.502014 L 23.703145 21.494332 " transform="matrix(0.37323,0,0,0.37323,2.028283,1.840959)"/>
<path style=" stroke:none;fill-rule:nonzero;fill:rgb(100%,100%,100%);fill-opacity:1;" d="M 8 3.707031 C 6.917969 3.707031 5.929688 4.046875 5.203125 4.613281 C 4.472656 5.183594 4 5.996094 4 6.898438 L 4 7.222656 C 3.277344 7.589844 2.773438 8.550781 2.773438 9.679688 C 2.773438 11.121094 3.59375 12.292969 4.652344 12.292969 L 4.652344 6.898438 C 4.652344 6.21875 5.003906 5.597656 5.605469 5.128906 C 6.203125 4.660156 7.054688 4.359375 8 4.359375 C 8.945312 4.359375 9.796875 4.660156 10.394531 5.128906 C 10.996094 5.597656 11.347656 6.21875 11.347656 6.898438 L 11.347656 12.292969 C 12.40625 12.292969 13.226562 11.121094 13.226562 9.679688 C 13.226562 8.550781 12.722656 7.589844 12 7.222656 L 12 6.898438 C 12 5.996094 11.527344 5.183594 10.796875 4.613281 C 10.070312 4.046875 9.082031 3.707031 8 3.707031 Z M 4.898438 7.148438 L 4.898438 12.292969 C 5.0625 12.292969 5.222656 12.210938 5.304688 12.046875 L 5.304688 7.3125 C 5.222656 7.230469 5.0625 7.148438 4.898438 7.148438 Z M 11.101562 7.148438 C 10.9375 7.148438 10.777344 7.230469 10.695312 7.3125 L 10.695312 12.046875 C 10.777344 12.210938 10.9375 12.292969 11.101562 12.292969 Z M 11.101562 7.148438 "/>
</g>
</svg>
