<?xml version="1.0" encoding="UTF-8"?>
<svg xmlns="http://www.w3.org/2000/svg" xmlns:xlink="http://www.w3.org/1999/xlink" width="16pt" height="16pt" viewBox="0 0 16 16" version="1.1">
<g id="surface1">
<path style=" stroke:none;fill-rule:evenodd;fill:rgb(0%,58.431373%,52.941176%);fill-opacity:1;" d="M 4.609375 15.050781 L 12.265625 15.050781 C 13.808594 15.050781 15.050781 13.808594 15.050781 12.261719 L 15.050781 3.734375 C 15.050781 2.191406 13.808594 0.949219 12.265625 0.949219 L 4.609375 0.949219 Z M 4.609375 15.050781 "/>
<path style=" stroke:none;fill-rule:evenodd;fill:rgb(0%,46.666667%,42.352941%);fill-opacity:1;" d="M 4.609375 15.050781 L 4.609375 0.949219 L 3.734375 0.949219 C 2.191406 0.949219 0.949219 2.191406 0.949219 3.734375 L 0.949219 12.261719 C 0.949219 13.808594 2.191406 15.050781 3.734375 15.050781 Z M 4.609375 15.050781 "/>
<path style=" stroke:none;fill-rule:nonzero;fill:rgb(84.705882%,84.705882%,84.705882%);fill-opacity:1;" d="M 9.839844 0.949219 L 9.839844 7.949219 L 10.839844 6.949219 L 11.839844 7.949219 L 11.839844 0.949219 Z M 9.839844 0.949219 "/>
<path style=" stroke:none;fill-rule:evenodd;fill:rgb(95.294118%,25.882353%,20.784314%);fill-opacity:1;" d="M 13.8125 11.304688 C 13.8125 12.6875 12.695312 13.804688 11.3125 13.804688 C 9.933594 13.804688 8.8125 12.6875 8.8125 11.304688 C 8.8125 9.921875 9.933594 8.804688 11.3125 8.804688 C 12.695312 8.804688 13.8125 9.921875 13.8125 11.304688 Z M 13.8125 11.304688 "/>
<path style=" stroke:none;fill-rule:nonzero;fill:rgb(100%,100%,100%);fill-opacity:1;" d="M 12.070312 11.292969 C 12.070312 11.011719 11.914062 10.769531 11.683594 10.644531 L 11.683594 11.945312 C 11.914062 11.820312 12.070312 11.578125 12.070312 11.292969 Z M 9.75 10.664062 L 9.75 11.925781 L 10.363281 11.925781 L 11.25 12.8125 L 11.25 9.777344 L 10.363281 10.664062 Z M 11.683594 9.777344 L 11.683594 10.101562 C 12.1875 10.261719 12.550781 10.734375 12.550781 11.292969 C 12.550781 11.851562 12.1875 12.328125 11.683594 12.484375 L 11.683594 12.8125 C 12.367188 12.640625 12.875 12.03125 12.875 11.292969 C 12.875 10.558594 12.367188 9.945312 11.683594 9.777344 Z M 11.683594 9.777344 "/>
</g>
</svg>
