<?xml version="1.0" encoding="UTF-8"?>
<svg xmlns="http://www.w3.org/2000/svg" xmlns:xlink="http://www.w3.org/1999/xlink" width="16pt" height="16pt" viewBox="0 0 16 16" version="1.1">
<g id="surface1">
<path style=" stroke:none;fill-rule:evenodd;fill:rgb(97.254902%,35.686275%,47.45098%);fill-opacity:1;" d="M 3.734375 0.949219 L 12.265625 0.949219 C 13.800781 0.949219 15.050781 2.199219 15.050781 3.734375 L 15.050781 12.265625 C 15.050781 13.800781 13.800781 15.050781 12.265625 15.050781 L 3.734375 15.050781 C 2.199219 15.050781 0.949219 13.800781 0.949219 12.265625 L 0.949219 3.734375 C 0.949219 2.199219 2.199219 0.949219 3.734375 0.949219 Z M 3.734375 0.949219 "/>
<path style=" stroke:none;fill-rule:nonzero;fill:rgb(100%,100%,100%);fill-opacity:1;" d="M 4.75 3.75 L 4.75 4.75 L 6.25 4.75 L 6.25 3.75 Z M 9.75 3.75 L 9.75 4.75 L 11.25 4.75 L 11.25 3.75 Z M 2.25 4.75 L 2.25 5.75 L 3.75 5.75 L 3.75 4.75 Z M 12.25 4.75 L 12.25 5.75 L 13.75 5.75 L 13.75 4.75 Z M 7.25 5.25 L 7.25 6.25 L 8.75 6.25 L 8.75 5.25 Z M 4.75 5.75 L 4.75 6.75 L 6.25 6.75 L 6.25 5.75 Z M 9.75 5.75 L 9.75 6.75 L 11.25 6.75 L 11.25 5.75 Z M 2.25 6.75 L 2.25 7.75 L 3.75 7.75 L 3.75 6.75 Z M 12.25 6.75 L 12.25 7.75 L 13.75 7.75 L 13.75 6.75 Z M 7.25 7.25 L 7.25 8.25 L 8.75 8.25 L 8.75 7.25 Z M 4.75 7.75 L 4.75 8.75 L 6.25 8.75 L 6.25 7.75 Z M 9.75 7.75 L 9.75 8.75 L 11.25 8.75 L 11.25 7.75 Z M 2.25 8.75 L 2.25 9.75 L 3.75 9.75 L 3.75 8.75 Z M 12.25 8.75 L 12.25 9.75 L 13.75 9.75 L 13.75 8.75 Z M 7.25 9.25 L 7.25 10.25 L 8.75 10.25 L 8.75 9.25 Z M 4.75 9.75 L 4.75 10.75 L 6.25 10.75 L 6.25 9.75 Z M 9.75 9.75 L 9.75 10.75 L 11.25 10.75 L 11.25 9.75 Z M 7.25 11.25 L 7.25 12.25 L 8.75 12.25 L 8.75 11.25 Z M 7.25 11.25 "/>
</g>
</svg>
