<?xml version="1.0" encoding="UTF-8"?>
<svg xmlns="http://www.w3.org/2000/svg" xmlns:xlink="http://www.w3.org/1999/xlink" width="16pt" height="16pt" viewBox="0 0 16 16" version="1.1">
<g id="surface1">
<path style=" stroke:none;fill-rule:evenodd;fill:rgb(30.980392%,30.980392%,30.980392%);fill-opacity:1;" d="M 3.734375 0.949219 L 12.265625 0.949219 C 13.800781 0.949219 15.050781 2.199219 15.050781 3.734375 L 15.050781 12.265625 C 15.050781 13.800781 13.800781 15.050781 12.265625 15.050781 L 3.734375 15.050781 C 2.199219 15.050781 0.949219 13.800781 0.949219 12.265625 L 0.949219 3.734375 C 0.949219 2.199219 2.199219 0.949219 3.734375 0.949219 Z M 3.734375 0.949219 "/>
<path style=" stroke:none;fill-rule:nonzero;fill:rgb(45.490196%,74.509804%,82.352941%);fill-opacity:1;" d="M 2.703125 5 L 2.703125 11 L 4.203125 11 L 4.203125 10.867188 C 4.441406 10.953125 4.695312 11 4.953125 11 C 6.195312 11 7.203125 9.992188 7.203125 8.75 C 7.203125 7.507812 6.195312 6.5 4.953125 6.5 C 4.695312 6.5 4.441406 6.546875 4.203125 6.632812 L 4.203125 5 Z M 10.703125 5 C 9.046875 5 7.703125 6.34375 7.703125 8 C 7.703125 9.65625 9.046875 11 10.703125 11 C 11.773438 11 12.761719 10.425781 13.296875 9.5 L 10.703125 9.5 C 9.875 9.5 9.203125 8.828125 9.203125 8 C 9.203125 7.171875 9.875 6.5 10.703125 6.5 L 13.296875 6.5 C 12.761719 5.574219 11.773438 5 10.703125 5 Z M 4.953125 8 C 5.367188 8 5.703125 8.335938 5.703125 8.75 C 5.703125 9.164062 5.367188 9.5 4.953125 9.5 C 4.539062 9.5 4.203125 9.164062 4.203125 8.75 C 4.203125 8.335938 4.539062 8 4.953125 8 Z M 4.953125 8 "/>
</g>
</svg>
