<?xml version="1.0" encoding="UTF-8"?>
<svg xmlns="http://www.w3.org/2000/svg" xmlns:xlink="http://www.w3.org/1999/xlink" width="16pt" height="16pt" viewBox="0 0 16 16" version="1.1">
<g id="surface1">
<path style=" stroke:none;fill-rule:evenodd;fill:rgb(96.862745%,57.647059%,10.196078%);fill-opacity:1;" d="M 3.734375 0.949219 L 12.265625 0.949219 C 13.800781 0.949219 15.050781 2.199219 15.050781 3.734375 L 15.050781 12.265625 C 15.050781 13.800781 13.800781 15.050781 12.265625 15.050781 L 3.734375 15.050781 C 2.199219 15.050781 0.949219 13.800781 0.949219 12.265625 L 0.949219 3.734375 C 0.949219 2.199219 2.199219 0.949219 3.734375 0.949219 Z M 3.734375 0.949219 "/>
<path style=" stroke:none;fill-rule:nonzero;fill:rgb(100%,100%,100%);fill-opacity:1;" d="M 6.503906 3.5 L 6.503906 5 L 5.003906 5 L 5.003906 6 C 5.003906 6 5.578125 5.988281 5.566406 6 C 5.875 5.996094 5.972656 6.21875 6.003906 6.367188 L 6.003906 9.667969 C 5.992188 9.761719 6 9.992188 5.789062 10 C 5.796875 10.007812 5.003906 10 5.003906 10 L 5.003906 11 L 6.089844 11 C 6.273438 10.992188 6.328125 11 6.503906 11 L 6.503906 12.5 L 7.503906 12.5 L 7.503906 11 L 7.992188 11 L 8.015625 12.5 L 9.003906 12.5 L 8.992188 11 C 10.265625 10.90625 11.003906 10.296875 10.996094 9.25 C 11.003906 8.285156 10.234375 7.753906 9.753906 7.75 C 10.234375 7.75 10.503906 7.230469 10.503906 6.5 C 10.503906 5.5 9.8125 5 9.003906 5 L 9.003906 3.5 L 8.003906 3.5 L 8.003906 5 C 7.804688 5 7.707031 4.992188 7.503906 5 L 7.503906 3.5 Z M 7.503906 6 C 8.503906 6 9.003906 6 9.003906 6.75 C 9.003906 7.5 8.503906 7.5 7.503906 7.5 Z M 7.503906 8.5 C 8.835938 8.5 9.503906 8.417969 9.503906 9.25 C 9.503906 10.082031 8.835938 10 7.503906 10 Z M 7.503906 8.5 "/>
</g>
</svg>
