<?xml version="1.0" encoding="UTF-8"?>
<svg xmlns="http://www.w3.org/2000/svg" xmlns:xlink="http://www.w3.org/1999/xlink" width="16pt" height="16pt" viewBox="0 0 16 16" version="1.1">
<g id="surface1">
<path style=" stroke:none;fill-rule:evenodd;fill:rgb(23.529412%,53.333333%,90.588235%);fill-opacity:1;" d="M 8 15.050781 L 8 8 L 0.949219 8 L 0.949219 12.265625 C 0.949219 13.808594 2.191406 15.050781 3.734375 15.050781 Z M 8 15.050781 "/>
<path style=" stroke:none;fill-rule:evenodd;fill:rgb(36.470588%,75.686275%,36.078431%);fill-opacity:1;" d="M 15.050781 8 L 8 8 L 8 15.050781 L 12.265625 15.050781 C 13.808594 15.050781 15.050781 13.808594 15.050781 12.265625 Z M 15.050781 8 "/>
<path style=" stroke:none;fill-rule:evenodd;fill:rgb(76.078431%,20.784314%,16.470588%);fill-opacity:1;" d="M 8 0.949219 L 8 8 L 15.050781 8 L 15.050781 3.734375 C 15.050781 2.191406 13.808594 0.949219 12.265625 0.949219 Z M 8 0.949219 "/>
<path style=" stroke:none;fill-rule:evenodd;fill:rgb(90.588235%,65.490196%,23.529412%);fill-opacity:1;" d="M 0.949219 8 L 8 8 L 8 0.949219 L 3.734375 0.949219 C 2.191406 0.949219 0.949219 2.191406 0.949219 3.734375 Z M 0.949219 8 "/>
<path style=" stroke:none;fill-rule:nonzero;fill:rgb(18.039216%,18.039216%,18.039216%);fill-opacity:1;" d="M 11.5 8 C 11.5 9.933594 9.933594 11.5 8 11.5 C 6.066406 11.5 4.5 9.933594 4.5 8 C 4.5 6.066406 6.066406 4.5 8 4.5 C 9.933594 4.5 11.5 6.066406 11.5 8 Z M 11.5 8 "/>
</g>
</svg>
