<?xml version="1.0" encoding="UTF-8"?>
<svg xmlns="http://www.w3.org/2000/svg" xmlns:xlink="http://www.w3.org/1999/xlink" width="16pt" height="16pt" viewBox="0 0 16 16" version="1.1">
<g id="surface1">
<path style=" stroke:none;fill-rule:evenodd;fill:rgb(80%,80%,80%);fill-opacity:1;" d="M 15.050781 4.300781 L 15.050781 3.734375 C 15.050781 2.191406 13.808594 0.949219 12.265625 0.949219 L 6.613281 0.949219 C 6.601562 1.460938 6.527344 1.976562 6.558594 2.472656 C 7.449219 2.347656 8.332031 2.316406 9.195312 2.375 C 10.058594 2.433594 10.90625 2.574219 11.722656 2.796875 C 12.542969 3.023438 13.332031 3.328125 14.089844 3.703125 C 14.425781 3.871094 14.726562 4.101562 15.050781 4.300781 Z M 15.050781 4.300781 "/>
<path style=" stroke:none;fill-rule:evenodd;fill:rgb(80%,80%,80%);fill-opacity:1;" d="M 15.050781 9.332031 L 15.050781 5.179688 C 14.957031 5.121094 14.875 5.039062 14.78125 4.980469 C 14.125 4.582031 13.433594 4.242188 12.710938 3.96875 C 11.988281 3.691406 11.238281 3.480469 10.46875 3.339844 C 9.695312 3.195312 8.898438 3.125 8.089844 3.125 C 7.609375 3.125 7.125 3.152344 6.632812 3.207031 C 6.746094 3.871094 6.910156 4.535156 7.140625 5.1875 C 7.375 5.839844 7.667969 6.484375 8.039062 7.109375 C 8.863281 7.128906 9.664062 7.21875 10.441406 7.378906 C 11.21875 7.539062 11.964844 7.765625 12.683594 8.050781 C 13.398438 8.339844 14.082031 8.6875 14.730469 9.089844 C 14.84375 9.160156 14.9375 9.257812 15.050781 9.332031 Z M 15.050781 9.332031 "/>
<path style=" stroke:none;fill-rule:evenodd;fill:rgb(80%,80%,80%);fill-opacity:1;" d="M 7.4375 15.050781 L 12.265625 15.050781 C 13.808594 15.050781 15.050781 13.808594 15.050781 12.265625 L 15.050781 10.355469 C 14.910156 10.25 14.789062 10.125 14.644531 10.027344 C 14.058594 9.625 13.429688 9.265625 12.769531 8.953125 C 12.371094 9.886719 11.875 10.761719 11.289062 11.5625 C 10.707031 12.363281 10.039062 13.089844 9.304688 13.734375 C 8.730469 14.242188 8.085938 14.652344 7.4375 15.050781 Z M 7.4375 15.050781 "/>
<path style=" stroke:none;fill-rule:evenodd;fill:rgb(80%,80%,80%);fill-opacity:1;" d="M 1.171875 13.355469 C 1.59375 14.351562 2.578125 15.050781 3.734375 15.050781 L 5.902344 15.050781 C 5.921875 15.042969 5.949219 15.039062 5.96875 15.027344 C 6.859375 14.601562 7.699219 14.070312 8.46875 13.441406 C 9.238281 12.8125 9.9375 12.082031 10.550781 11.269531 C 11.164062 10.457031 11.6875 9.558594 12.105469 8.582031 C 11.476562 8.363281 10.808594 8.179688 10.125 8.050781 C 9.441406 7.921875 8.738281 7.847656 8.039062 7.847656 C 7.605469 8.566406 7.109375 9.230469 6.5625 9.832031 C 6.015625 10.433594 5.417969 10.976562 4.78125 11.460938 C 4.144531 11.941406 3.464844 12.363281 2.757812 12.71875 C 2.25 12.976562 1.707031 13.164062 1.171875 13.355469 Z M 1.171875 13.355469 "/>
<path style=" stroke:none;fill-rule:evenodd;fill:rgb(80%,80%,80%);fill-opacity:1;" d="M 1.429688 2.261719 C 1.152344 2.695312 0.949219 3.179688 0.949219 3.734375 L 0.949219 12.265625 C 0.949219 12.386719 1.003906 12.492188 1.019531 12.609375 C 1.402344 12.472656 1.792969 12.363281 2.160156 12.1875 C 2.816406 11.875 3.449219 11.507812 4.046875 11.085938 C 3.546875 10.394531 3.117188 9.675781 2.757812 8.933594 C 2.398438 8.1875 2.109375 7.421875 1.890625 6.644531 C 1.667969 5.867188 1.519531 5.078125 1.441406 4.28125 C 1.378906 3.609375 1.390625 2.933594 1.429688 2.261719 Z M 1.429688 2.261719 "/>
<path style=" stroke:none;fill-rule:evenodd;fill:rgb(80%,80%,80%);fill-opacity:1;" d="M 5.773438 0.949219 L 3.734375 0.949219 C 3.1875 0.949219 2.707031 1.148438 2.277344 1.417969 C 2.1875 2.128906 2.132812 2.847656 2.167969 3.570312 C 2.203125 4.390625 2.320312 5.210938 2.519531 6.015625 C 2.71875 6.824219 3 7.613281 3.363281 8.378906 C 3.726562 9.140625 4.175781 9.878906 4.710938 10.570312 C 5.230469 10.167969 5.707031 9.6875 6.152344 9.164062 C 6.59375 8.640625 7 8.066406 7.371094 7.480469 C 7.011719 6.851562 6.714844 6.203125 6.476562 5.542969 C 6.234375 4.878906 6.058594 4.203125 5.9375 3.523438 C 5.8125 2.84375 5.75 2.15625 5.738281 1.476562 C 5.734375 1.296875 5.765625 1.125 5.773438 0.949219 Z M 5.773438 0.949219 "/>
<path style=" stroke:none;fill-rule:evenodd;fill:rgb(40%,40%,40%);fill-opacity:1;" d="M 5.773438 0.949219 C 5.765625 1.125 5.734375 1.296875 5.738281 1.476562 C 5.75 2.15625 5.8125 2.84375 5.9375 3.523438 C 6.058594 4.203125 6.234375 4.878906 6.476562 5.542969 C 6.714844 6.203125 7.011719 6.851562 7.371094 7.480469 C 7 8.066406 6.59375 8.640625 6.152344 9.164062 C 5.707031 9.6875 5.230469 10.167969 4.710938 10.570312 C 4.175781 9.878906 3.726562 9.140625 3.363281 8.378906 C 3 7.613281 2.71875 6.824219 2.519531 6.015625 C 2.320312 5.210938 2.203125 4.390625 2.167969 3.570312 C 2.132812 2.847656 2.1875 2.128906 2.277344 1.417969 C 1.933594 1.636719 1.648438 1.917969 1.429688 2.261719 C 1.390625 2.933594 1.378906 3.609375 1.441406 4.28125 C 1.519531 5.078125 1.667969 5.867188 1.890625 6.644531 C 2.109375 7.421875 2.398438 8.1875 2.757812 8.933594 C 3.117188 9.675781 3.546875 10.394531 4.046875 11.085938 C 3.449219 11.507812 2.816406 11.875 2.160156 12.1875 C 1.792969 12.363281 1.402344 12.472656 1.019531 12.609375 C 1.050781 12.863281 1.074219 13.125 1.171875 13.355469 C 1.707031 13.164062 2.25 12.976562 2.757812 12.71875 C 3.464844 12.363281 4.144531 11.941406 4.78125 11.460938 C 5.417969 10.976562 6.015625 10.433594 6.5625 9.832031 C 7.109375 9.230469 7.605469 8.566406 8.039062 7.847656 C 8.738281 7.847656 9.441406 7.921875 10.125 8.050781 C 10.808594 8.179688 11.476562 8.363281 12.105469 8.582031 C 11.6875 9.558594 11.164062 10.457031 10.550781 11.269531 C 9.9375 12.082031 9.238281 12.8125 8.46875 13.441406 C 7.699219 14.070312 6.859375 14.601562 5.96875 15.027344 C 5.949219 15.039062 5.921875 15.042969 5.902344 15.050781 L 7.4375 15.050781 C 8.085938 14.652344 8.730469 14.242188 9.304688 13.734375 C 10.039062 13.089844 10.707031 12.363281 11.289062 11.5625 C 11.875 10.761719 12.371094 9.886719 12.769531 8.953125 C 13.429688 9.265625 14.058594 9.625 14.644531 10.027344 C 14.789062 10.125 14.910156 10.25 15.050781 10.355469 L 15.050781 9.332031 C 14.9375 9.257812 14.84375 9.160156 14.730469 9.089844 C 14.082031 8.6875 13.398438 8.339844 12.683594 8.050781 C 11.964844 7.765625 11.21875 7.539062 10.441406 7.378906 C 9.664062 7.21875 8.863281 7.128906 8.039062 7.109375 C 7.667969 6.484375 7.375 5.839844 7.140625 5.1875 C 6.910156 4.535156 6.746094 3.871094 6.632812 3.207031 C 7.125 3.152344 7.609375 3.125 8.089844 3.125 C 8.898438 3.125 9.695312 3.195312 10.46875 3.339844 C 11.238281 3.480469 11.988281 3.691406 12.710938 3.96875 C 13.433594 4.242188 14.125 4.582031 14.78125 4.980469 C 14.875 5.039062 14.957031 5.121094 15.050781 5.179688 L 15.050781 4.300781 C 14.726562 4.101562 14.425781 3.871094 14.089844 3.703125 C 13.332031 3.328125 12.542969 3.023438 11.722656 2.796875 C 10.90625 2.574219 10.058594 2.433594 9.195312 2.375 C 8.332031 2.316406 7.449219 2.347656 6.558594 2.472656 C 6.527344 1.976562 6.601562 1.460938 6.613281 0.949219 Z M 5.773438 0.949219 "/>
</g>
</svg>
