<?xml version="1.0" encoding="UTF-8"?>
<svg xmlns="http://www.w3.org/2000/svg" xmlns:xlink="http://www.w3.org/1999/xlink" width="16pt" height="16pt" viewBox="0 0 16 16" version="1.1">
<g id="surface1">
<path style=" stroke:none;fill-rule:evenodd;fill:rgb(20.784314%,72.54902%,96.078431%);fill-opacity:1;" d="M 3.734375 0.949219 L 12.265625 0.949219 C 13.800781 0.949219 15.050781 2.199219 15.050781 3.734375 L 15.050781 12.265625 C 15.050781 13.800781 13.800781 15.050781 12.265625 15.050781 L 3.734375 15.050781 C 2.199219 15.050781 0.949219 13.800781 0.949219 12.265625 L 0.949219 3.734375 C 0.949219 2.199219 2.199219 0.949219 3.734375 0.949219 Z M 3.734375 0.949219 "/>
<path style=" stroke:none;fill-rule:nonzero;fill:rgb(100%,100%,100%);fill-opacity:1;" d="M 6.855469 7.207031 C 6.855469 7.207031 8.132812 7.207031 8.136719 7.207031 C 8.433594 7.207031 8.671875 6.992188 8.679688 6.695312 C 8.683594 6.394531 8.445312 6.125 8.144531 6.121094 L 6.875 6.125 C 6.574219 6.121094 6.328125 6.359375 6.320312 6.65625 C 6.316406 6.957031 6.554688 7.203125 6.855469 7.207031 Z M 6.855469 7.207031 "/>
<path style=" stroke:none;fill-rule:nonzero;fill:rgb(100%,100%,100%);fill-opacity:1;" d="M 9.265625 8.609375 L 6.71875 8.609375 C 6.421875 8.609375 6.175781 8.855469 6.175781 9.152344 C 6.175781 9.453125 6.421875 9.695312 6.71875 9.695312 L 9.265625 9.695312 C 9.5625 9.695312 9.808594 9.453125 9.808594 9.152344 C 9.808594 8.855469 9.5625 8.609375 9.265625 8.609375 Z M 9.265625 8.609375 "/>
<path style=" stroke:none;fill-rule:nonzero;fill:rgb(100%,100%,100%);fill-opacity:1;" d="M 8 3.484375 C 5.503906 3.484375 3.484375 5.503906 3.484375 8 C 3.484375 10.496094 5.503906 12.515625 8 12.515625 C 10.496094 12.515625 12.515625 10.496094 12.515625 8 C 12.515625 5.503906 10.496094 3.484375 8 3.484375 Z M 10.578125 10.601562 C 10.230469 10.960938 9.734375 11.152344 9.152344 11.15625 L 6.875 11.15625 C 6.859375 11.15625 6.84375 11.15625 6.832031 11.15625 C 6.175781 11.15625 5.671875 10.972656 5.332031 10.609375 C 4.988281 10.246094 4.878906 9.753906 4.878906 9.070312 C 4.882812 9.023438 4.875 8.980469 4.878906 8.933594 L 4.878906 6.53125 C 4.90625 5.9375 5.175781 5.566406 5.375 5.355469 C 5.699219 5.015625 6.15625 4.84375 6.734375 4.84375 L 8.253906 4.84375 C 9.226562 4.871094 9.929688 5.546875 9.9375 6.488281 C 9.960938 6.773438 9.945312 7.035156 9.890625 7.269531 C 10.21875 7.28125 10.621094 7.335938 10.882812 7.675781 C 11.113281 7.972656 11.117188 8.3125 11.117188 8.78125 C 11.117188 8.878906 11.121094 9.125 11.121094 9.125 C 11.113281 9.730469 10.925781 10.242188 10.578125 10.601562 Z M 10.578125 10.601562 "/>
</g>
</svg>
