<?xml version="1.0" encoding="UTF-8"?>
<svg xmlns="http://www.w3.org/2000/svg" xmlns:xlink="http://www.w3.org/1999/xlink" width="16pt" height="16pt" viewBox="0 0 16 16" version="1.1">
<g id="surface1">
<path style=" stroke:none;fill-rule:evenodd;fill:rgb(90.588235%,31.764706%,46.666667%);fill-opacity:1;" d="M 3.734375 0.949219 L 12.265625 0.949219 C 13.800781 0.949219 15.050781 2.199219 15.050781 3.734375 L 15.050781 12.265625 C 15.050781 13.800781 13.800781 15.050781 12.265625 15.050781 L 3.734375 15.050781 C 2.199219 15.050781 0.949219 13.800781 0.949219 12.265625 L 0.949219 3.734375 C 0.949219 2.199219 2.199219 0.949219 3.734375 0.949219 Z M 3.734375 0.949219 "/>
<path style=" stroke:none;fill-rule:nonzero;fill:rgb(100%,100%,100%);fill-opacity:1;" d="M 8 3.5 C 7.488281 3.5 6.980469 3.589844 6.5 3.761719 L 6.5 9.5 C 6.5 9.777344 6.277344 10 6 10 C 5.722656 10 5.5 9.777344 5.5 9.5 L 5.5 4.261719 C 4.25 5.097656 3.5 6.5 3.5 8 C 3.5 10.484375 5.515625 12.5 8 12.5 C 10.484375 12.5 12.5 10.484375 12.5 8 C 12.5 5.515625 10.484375 3.5 8 3.5 Z M 7.722656 6 C 7.757812 6 7.792969 6.011719 7.828125 6.03125 L 10.890625 7.804688 C 10.957031 7.84375 11 7.917969 11 8 C 11 8.082031 10.957031 8.15625 10.890625 8.195312 L 7.828125 9.96875 C 7.757812 10.011719 7.675781 10.007812 7.609375 9.96875 C 7.542969 9.929688 7.5 9.855469 7.5 9.773438 L 7.5 6.226562 C 7.5 6.164062 7.523438 6.109375 7.5625 6.0625 C 7.605469 6.023438 7.664062 6 7.722656 6 Z M 7.722656 6 "/>
</g>
</svg>
