<?xml version="1.0" encoding="UTF-8"?>
<svg xmlns="http://www.w3.org/2000/svg" xmlns:xlink="http://www.w3.org/1999/xlink" width="16pt" height="16pt" viewBox="0 0 16 16" version="1.1">
<g id="surface1">
<path style=" stroke:none;fill-rule:evenodd;fill:rgb(78.039216%,29.019608%,70.588235%);fill-opacity:1;" d="M 3.734375 0.949219 L 12.265625 0.949219 C 13.800781 0.949219 15.050781 2.199219 15.050781 3.734375 L 15.050781 12.265625 C 15.050781 13.800781 13.800781 15.050781 12.265625 15.050781 L 3.734375 15.050781 C 2.199219 15.050781 0.949219 13.800781 0.949219 12.265625 L 0.949219 3.734375 C 0.949219 2.199219 2.199219 0.949219 3.734375 0.949219 Z M 3.734375 0.949219 "/>
<path style=" stroke:none;fill-rule:evenodd;fill:rgb(78.039216%,29.019608%,70.588235%);fill-opacity:1;" d="M 4.542969 15.050781 L 12.261719 15.050781 C 13.808594 15.050781 15.050781 13.808594 15.050781 12.261719 L 15.050781 3.734375 C 15.050781 2.191406 13.808594 0.949219 12.261719 0.949219 L 4.542969 0.949219 Z M 4.542969 15.050781 "/>
<path style=" stroke:none;fill-rule:evenodd;fill:rgb(62.352941%,23.137255%,56.470588%);fill-opacity:1;" d="M 4.542969 15.050781 L 4.542969 0.949219 L 3.734375 0.949219 C 2.191406 0.949219 0.949219 2.191406 0.949219 3.734375 L 0.949219 12.261719 C 0.949219 13.808594 2.191406 15.050781 3.734375 15.050781 Z M 4.542969 15.050781 "/>
<path style=" stroke:none;fill-rule:nonzero;fill:rgb(59.215686%,91.372549%,39.215686%);fill-opacity:1;" d="M 9.933594 0.945312 L 9.933594 7.945312 L 10.933594 6.945312 L 11.933594 7.945312 L 11.933594 0.945312 Z M 9.933594 0.945312 "/>
</g>
</svg>
