<?xml version="1.0" encoding="UTF-8"?>
<svg xmlns="http://www.w3.org/2000/svg" xmlns:xlink="http://www.w3.org/1999/xlink" width="16pt" height="16pt" viewBox="0 0 16 16" version="1.1">
<g id="surface1">
<path style=" stroke:none;fill-rule:evenodd;fill:rgb(0%,77.254902%,52.54902%);fill-opacity:1;" d="M 3.734375 0.949219 L 12.265625 0.949219 C 13.800781 0.949219 15.050781 2.199219 15.050781 3.734375 L 15.050781 12.265625 C 15.050781 13.800781 13.800781 15.050781 12.265625 15.050781 L 3.734375 15.050781 C 2.199219 15.050781 0.949219 13.800781 0.949219 12.265625 L 0.949219 3.734375 C 0.949219 2.199219 2.199219 0.949219 3.734375 0.949219 Z M 3.734375 0.949219 "/>
<path style=" stroke:none;fill-rule:nonzero;fill:rgb(100%,100%,100%);fill-opacity:1;" d="M 11.75 4.25 L 4.25 6.652344 L 7.027344 7.804688 L 8 8 L 8.207031 9 L 9.347656 11.75 Z M 6.714844 8.757812 C 6.714844 8.742188 6.628906 8.75 6.554688 8.769531 C 6.269531 8.84375 5.855469 9.148438 5.636719 9.449219 C 5.382812 9.789062 5.25 10.1875 5.25 10.597656 C 5.25 10.710938 5.253906 10.730469 5.289062 10.746094 C 5.328125 10.761719 5.648438 10.738281 5.78125 10.714844 C 6.15625 10.636719 6.476562 10.460938 6.761719 10.175781 C 6.941406 9.996094 7.046875 9.84375 7.152344 9.628906 C 7.21875 9.484375 7.265625 9.3125 7.246094 9.289062 C 7.238281 9.28125 7.203125 9.304688 7.160156 9.339844 C 6.847656 9.535156 6.601562 9.679688 6.25 9.75 C 6.34375 9.40625 6.4375 9.140625 6.621094 8.890625 C 6.671875 8.820312 6.714844 8.761719 6.714844 8.757812 Z M 6.714844 8.757812 "/>
<path style=" stroke:none;fill-rule:nonzero;fill:rgb(76.862745%,94.509804%,89.019608%);fill-opacity:1;" d="M 4.25 6.648438 L 7.027344 7.804688 L 8 8 L 11.75 4.25 Z M 4.25 6.648438 "/>
</g>
</svg>
