<?xml version="1.0" encoding="UTF-8"?>
<svg xmlns="http://www.w3.org/2000/svg" xmlns:xlink="http://www.w3.org/1999/xlink" width="16pt" height="16pt" viewBox="0 0 16 16" version="1.1">
<g id="surface1">
<path style=" stroke:none;fill-rule:evenodd;fill:rgb(25.490196%,64.705882%,78.039216%);fill-opacity:1;" d="M 3.734375 0.949219 L 12.265625 0.949219 C 13.800781 0.949219 15.050781 2.199219 15.050781 3.734375 L 15.050781 12.265625 C 15.050781 13.800781 13.800781 15.050781 12.265625 15.050781 L 3.734375 15.050781 C 2.199219 15.050781 0.949219 13.800781 0.949219 12.265625 L 0.949219 3.734375 C 0.949219 2.199219 2.199219 0.949219 3.734375 0.949219 Z M 3.734375 0.949219 "/>
<path style=" stroke:none;fill-rule:nonzero;fill:rgb(100%,100%,100%);fill-opacity:1;" d="M 8.140625 5.738281 C 6.964844 5.738281 6.011719 6.691406 6.011719 7.863281 C 6.011719 9.039062 6.964844 9.992188 8.140625 9.992188 C 9.3125 9.992188 10.265625 9.039062 10.265625 7.863281 C 10.265625 6.691406 9.3125 5.738281 8.140625 5.738281 Z M 8.140625 6.589844 C 8.84375 6.589844 9.414062 7.160156 9.414062 7.863281 C 9.414062 8.570312 8.84375 9.140625 8.140625 9.140625 C 7.433594 9.140625 6.863281 8.570312 6.863281 7.863281 C 6.863281 7.160156 7.433594 6.589844 8.140625 6.589844 Z M 8.140625 6.589844 "/>
<path style=" stroke:none;fill-rule:nonzero;fill:rgb(100%,100%,100%);fill-opacity:1;" d="M 3.035156 7.4375 C 2.800781 7.4375 2.609375 7.628906 2.609375 7.863281 C 2.582031 8.984375 2.652344 10.171875 2.609375 11.265625 C 2.609375 12.441406 3.5625 13.390625 4.738281 13.390625 C 5.910156 13.390625 6.863281 12.441406 6.863281 11.265625 C 6.863281 10.09375 5.910156 9.140625 4.738281 9.140625 C 4.277344 9.140625 3.828125 9.292969 3.460938 9.570312 L 3.460938 7.863281 C 3.460938 7.628906 3.273438 7.4375 3.035156 7.4375 Z M 4.738281 9.992188 C 5.441406 9.992188 6.011719 10.5625 6.011719 11.265625 C 6.011719 11.96875 5.441406 12.542969 4.738281 12.542969 C 4.03125 12.542969 3.460938 11.96875 3.460938 11.265625 C 3.460938 10.5625 4.03125 9.992188 4.738281 9.992188 Z M 4.738281 9.992188 "/>
<path style=" stroke:none;fill-rule:nonzero;fill:rgb(100%,100%,100%);fill-opacity:1;" d="M 10.265625 2.609375 C 10.15625 2.609375 10.046875 2.648438 9.964844 2.734375 C 9.796875 2.898438 9.796875 3.167969 9.964844 3.332031 L 11.015625 4.386719 L 9.964844 5.4375 C 9.796875 5.605469 9.796875 5.875 9.964844 6.039062 C 10.128906 6.207031 10.398438 6.207031 10.566406 6.039062 L 11.617188 4.988281 L 12.671875 6.039062 C 12.835938 6.207031 13.105469 6.207031 13.269531 6.039062 C 13.4375 5.875 13.4375 5.605469 13.269531 5.4375 L 12.21875 4.386719 L 13.269531 3.332031 C 13.4375 3.167969 13.4375 2.898438 13.269531 2.734375 C 13.105469 2.566406 12.835938 2.566406 12.671875 2.734375 L 11.617188 3.785156 L 10.566406 2.734375 C 10.484375 2.648438 10.375 2.609375 10.265625 2.609375 Z M 10.265625 2.609375 "/>
</g>
</svg>
