<?xml version="1.0" encoding="UTF-8"?>
<svg xmlns="http://www.w3.org/2000/svg" xmlns:xlink="http://www.w3.org/1999/xlink" width="16pt" height="16pt" viewBox="0 0 16 16" version="1.1">
<g id="surface1">
<path style=" stroke:none;fill-rule:evenodd;fill:rgb(96.862745%,43.529412%,19.215686%);fill-opacity:1;" d="M 3.734375 0.949219 L 12.265625 0.949219 C 13.800781 0.949219 15.050781 2.199219 15.050781 3.734375 L 15.050781 12.265625 C 15.050781 13.800781 13.800781 15.050781 12.265625 15.050781 L 3.734375 15.050781 C 2.199219 15.050781 0.949219 13.800781 0.949219 12.265625 L 0.949219 3.734375 C 0.949219 2.199219 2.199219 0.949219 3.734375 0.949219 Z M 3.734375 0.949219 "/>
<path style=" stroke:none;fill-rule:nonzero;fill:rgb(100%,100%,100%);fill-opacity:1;" d="M 8.574219 12.121094 C 9.019531 11.742188 9.144531 11.609375 9.699219 11.214844 C 10.011719 10.992188 10.0625 10.933594 10.007812 10.855469 C 9.96875 10.792969 9.015625 10.351562 8.53125 10.15625 C 8.027344 9.953125 7.972656 9.953125 7.484375 10.152344 C 7.046875 10.332031 6.105469 10.769531 6.023438 10.847656 C 5.9375 10.929688 5.980469 11.007812 6.195312 11.152344 C 6.640625 11.453125 7.042969 11.792969 7.445312 12.136719 C 8.023438 12.625 7.980469 12.628906 8.574219 12.125 Z M 6.242188 10.253906 C 6.84375 9.972656 6.9375 9.914062 7.394531 9.507812 C 7.785156 9.164062 7.855469 9.0625 7.800781 8.933594 C 7.78125 8.890625 7.492188 8.621094 7.152344 8.339844 C 6.355469 7.667969 6.390625 7.761719 6.691406 7.035156 C 6.875 6.605469 6.921875 6.460938 6.921875 6.339844 C 6.917969 6.160156 6.851562 6.023438 6.714844 5.929688 C 6.660156 5.890625 6.179688 5.699219 5.644531 5.5 C 5.109375 5.300781 4.675781 5.125 4.679688 5.109375 C 4.6875 5.074219 5.277344 5.007812 5.707031 5 L 6.03125 4.988281 L 6.625 5.195312 C 7.140625 5.375 7.222656 5.414062 7.261719 5.488281 C 7.289062 5.53125 7.308594 5.59375 7.308594 5.625 C 7.304688 5.65625 7.210938 6.085938 7.09375 6.578125 C 6.886719 7.445312 6.882812 7.480469 6.9375 7.53125 C 7.019531 7.617188 7.847656 7.773438 8.109375 7.75 C 8.40625 7.730469 9.007812 7.589844 9.070312 7.53125 C 9.117188 7.480469 9.109375 7.425781 8.90625 6.578125 C 8.789062 6.085938 8.695312 5.65625 8.695312 5.625 C 8.695312 5.59375 8.714844 5.53125 8.738281 5.488281 C 8.777344 5.414062 8.855469 5.378906 9.316406 5.21875 C 10.0625 4.957031 10.046875 4.960938 10.722656 5.019531 C 11.039062 5.046875 11.308594 5.082031 11.324219 5.097656 C 11.339844 5.109375 11.320312 5.132812 11.277344 5.152344 C 11.234375 5.167969 10.800781 5.328125 10.3125 5.511719 C 9.820312 5.695312 9.363281 5.878906 9.300781 5.921875 C 9.15625 6.015625 9.082031 6.152344 9.082031 6.339844 C 9.078125 6.457031 9.125 6.601562 9.300781 7.019531 C 9.425781 7.3125 9.523438 7.578125 9.523438 7.609375 C 9.523438 7.746094 9.421875 7.855469 8.863281 8.324219 C 8.542969 8.59375 8.253906 8.855469 8.226562 8.902344 C 8.199219 8.953125 8.183594 9.023438 8.191406 9.066406 C 8.207031 9.140625 8.59375 9.511719 8.984375 9.828125 C 9.152344 9.964844 10.152344 10.457031 10.3125 10.480469 C 10.445312 10.5 10.589844 10.4375 10.824219 10.242188 C 11.050781 10.050781 11.1875 9.859375 11.28125 9.605469 C 11.371094 9.359375 11.347656 9.199219 11.175781 8.804688 C 11.042969 8.507812 11.007812 8.34375 11.050781 8.230469 C 11.0625 8.203125 11.421875 7.867188 11.84375 7.484375 C 12.773438 6.640625 12.921875 6.492188 12.972656 6.34375 C 13.03125 6.175781 12.988281 5.957031 12.863281 5.734375 C 12.558594 5.207031 11.355469 3.496094 11.246094 3.496094 C 10.695312 3.585938 10.253906 3.835938 9.671875 3.925781 C 9.625 3.925781 9.433594 3.878906 9.242188 3.820312 C 8.421875 3.574219 8.15625 3.507812 8 3.507812 C 7.84375 3.507812 7.578125 3.574219 6.757812 3.820312 C 6.566406 3.878906 6.371094 3.925781 6.324219 3.925781 C 5.75 3.839844 5.289062 3.589844 4.699219 3.515625 C 4.605469 3.578125 3.824219 4.734375 3.484375 5.222656 C 3.085938 5.796875 3.046875 5.875 3.011719 6.09375 C 2.96875 6.398438 3.011719 6.449219 4.203125 7.527344 C 4.601562 7.890625 4.9375 8.203125 4.949219 8.230469 C 4.992188 8.34375 4.957031 8.515625 4.828125 8.8125 C 4.648438 9.226562 4.632812 9.339844 4.71875 9.589844 C 4.8125 9.859375 4.972656 10.078125 5.210938 10.265625 C 5.4375 10.441406 5.519531 10.484375 5.652344 10.488281 C 5.699219 10.488281 5.964844 10.382812 6.242188 10.253906 Z M 6.242188 10.253906 "/>
</g>
</svg>
