<?xml version="1.0" encoding="UTF-8"?>
<svg xmlns="http://www.w3.org/2000/svg" xmlns:xlink="http://www.w3.org/1999/xlink" width="16pt" height="16pt" viewBox="0 0 16 16" version="1.1">
<g id="surface1">
<path style=" stroke:none;fill-rule:evenodd;fill:rgb(30.980392%,30.980392%,30.980392%);fill-opacity:1;" d="M 3.734375 0.949219 L 12.265625 0.949219 C 13.800781 0.949219 15.050781 2.199219 15.050781 3.734375 L 15.050781 12.265625 C 15.050781 13.800781 13.800781 15.050781 12.265625 15.050781 L 3.734375 15.050781 C 2.199219 15.050781 0.949219 13.800781 0.949219 12.265625 L 0.949219 3.734375 C 0.949219 2.199219 2.199219 0.949219 3.734375 0.949219 Z M 3.734375 0.949219 "/>
<path style=" stroke:none;fill-rule:nonzero;fill:rgb(36.078431%,81.960784%,100%);fill-opacity:1;" d="M 7.949219 3 C 7.59375 3 7.234375 3.039062 6.878906 3.117188 C 5.617188 3.398438 4.519531 4.171875 3.738281 5.339844 C 3.40625 5.835938 3.105469 6.527344 3.105469 6.792969 C 3.105469 7.015625 3.367188 7.132812 3.542969 6.984375 C 3.582031 6.953125 3.625 6.890625 3.632812 6.84375 C 3.722656 6.4375 4.035156 5.824219 4.398438 5.34375 C 4.703125 4.945312 5.261719 4.441406 5.6875 4.179688 C 7.03125 3.355469 8.863281 3.339844 10.214844 4.140625 C 11.0625 4.640625 11.75 5.46875 12.15625 6.472656 C 12.246094 6.691406 12.390625 7.167969 12.390625 7.242188 C 12.390625 7.261719 12.261719 7.152344 12.101562 6.996094 C 11.757812 6.65625 11.722656 6.632812 11.589844 6.632812 C 11.4375 6.632812 11.335938 6.726562 11.320312 6.878906 C 11.3125 6.941406 11.316406 7.011719 11.328125 7.03125 C 11.351562 7.078125 12.445312 8.183594 12.53125 8.25 C 12.621094 8.320312 12.785156 8.3125 12.875 8.238281 C 12.996094 8.136719 13.011719 8.0625 12.996094 7.703125 C 12.933594 6.355469 12.089844 4.828125 10.925781 3.957031 C 10.09375 3.332031 9.023438 2.996094 7.949219 3 Z M 3 7.933594 L 3.015625 8.28125 C 3.039062 8.875 3.207031 9.484375 3.519531 10.125 C 4.148438 11.414062 5.183594 12.34375 6.4375 12.753906 C 6.800781 12.875 7.066406 12.929688 7.550781 12.988281 C 7.761719 13.011719 8.425781 13 8.683594 12.964844 C 10.152344 12.773438 11.453125 11.925781 12.3125 10.59375 C 12.589844 10.164062 12.863281 9.539062 12.898438 9.25 C 12.910156 9.140625 12.90625 9.125 12.824219 9.046875 C 12.75 8.972656 12.71875 8.960938 12.632812 8.960938 C 12.464844 8.960938 12.421875 9.007812 12.3125 9.339844 C 11.9375 10.46875 11.027344 11.503906 9.949219 12.023438 C 9.078125 12.445312 8.082031 12.5625 7.085938 12.363281 C 5.953125 12.136719 4.972656 11.445312 4.296875 10.40625 C 4.046875 10.015625 3.78125 9.421875 3.683594 9.03125 C 3.660156 8.945312 3.636719 8.851562 3.628906 8.824219 C 3.621094 8.796875 3.765625 8.921875 3.945312 9.105469 L 4.28125 9.429688 L 4.40625 9.421875 C 4.578125 9.402344 4.652344 9.328125 4.667969 9.15625 L 4.679688 9.027344 L 3.410156 7.757812 C 3.410156 7.757812 3.289062 7.675781 3.140625 7.746094 C 2.992188 7.8125 3 7.933594 3 7.933594 Z M 3 7.933594 "/>
</g>
</svg>
