<?xml version="1.0" encoding="UTF-8"?>
<svg xmlns="http://www.w3.org/2000/svg" xmlns:xlink="http://www.w3.org/1999/xlink" width="16pt" height="16pt" viewBox="0 0 16 16" version="1.1">
<g id="surface1">
<path style=" stroke:none;fill-rule:evenodd;fill:rgb(65.490196%,82.352941%,52.156863%);fill-opacity:1;" d="M 3.734375 0.949219 L 12.265625 0.949219 C 13.800781 0.949219 15.050781 2.199219 15.050781 3.734375 L 15.050781 12.265625 C 15.050781 13.800781 13.800781 15.050781 12.265625 15.050781 L 3.734375 15.050781 C 2.199219 15.050781 0.949219 13.800781 0.949219 12.265625 L 0.949219 3.734375 C 0.949219 2.199219 2.199219 0.949219 3.734375 0.949219 Z M 3.734375 0.949219 "/>
<path style=" stroke:none;fill-rule:nonzero;fill:rgb(100%,100%,100%);fill-opacity:1;" d="M 4.585938 5.648438 C 4.585938 5.996094 4.59375 6.386719 4.609375 6.695312 L 3.851562 6.695312 C 3.449219 6.695312 3.121094 7.019531 3.121094 7.425781 L 3.121094 10.507812 C 3.121094 10.914062 3.449219 11.222656 3.851562 11.222656 L 5.386719 11.222656 C 5.730469 11.222656 5.910156 10.875 5.910156 10.875 C 6.742188 11.570312 7.953125 11.570312 8.855469 11.570312 C 10.683594 11.570312 12.878906 11.5 12.878906 5.648438 Z M 4.269531 7.390625 L 4.632812 7.390625 C 4.777344 8.835938 5.097656 9.8125 5.523438 10.46875 C 5.460938 10.503906 5.390625 10.527344 5.320312 10.527344 L 4.269531 10.527344 C 4.019531 10.527344 3.816406 10.292969 3.816406 10.003906 L 3.816406 7.914062 C 3.816406 7.625 4.019531 7.390625 4.269531 7.390625 Z M 4.269531 7.390625 "/>
</g>
</svg>
