<?xml version="1.0" encoding="UTF-8"?>
<svg xmlns="http://www.w3.org/2000/svg" xmlns:xlink="http://www.w3.org/1999/xlink" width="16pt" height="16pt" viewBox="0 0 16 16" version="1.1">
<g id="surface1">
<path style=" stroke:none;fill-rule:evenodd;fill:rgb(0%,58.431373%,52.941176%);fill-opacity:1;" d="M 4.542969 15.050781 L 12.261719 15.050781 C 13.808594 15.050781 15.050781 13.808594 15.050781 12.265625 L 15.050781 3.738281 C 15.050781 2.191406 13.808594 0.949219 12.261719 0.949219 L 4.542969 0.949219 Z M 4.542969 15.050781 "/>
<path style=" stroke:none;fill-rule:evenodd;fill:rgb(0%,46.666667%,42.352941%);fill-opacity:1;" d="M 4.542969 15.050781 L 4.542969 0.949219 L 3.734375 0.949219 C 2.191406 0.949219 0.949219 2.191406 0.949219 3.738281 L 0.949219 12.265625 C 0.949219 13.808594 2.191406 15.050781 3.734375 15.050781 Z M 4.542969 15.050781 "/>
<path style=" stroke:none;fill-rule:nonzero;fill:rgb(84.705882%,84.705882%,84.705882%);fill-opacity:1;" d="M 9.933594 0.949219 L 9.933594 7.949219 L 10.933594 6.949219 L 11.933594 7.949219 L 11.933594 0.949219 Z M 9.933594 0.949219 "/>
<path style=" stroke:none;fill-rule:evenodd;fill:rgb(52.156863%,38.039216%,77.254902%);fill-opacity:1;" d="M 14.152344 11.578125 C 14.152344 12.957031 13.03125 14.078125 11.652344 14.078125 C 10.273438 14.078125 9.152344 12.957031 9.152344 11.578125 C 9.152344 10.195312 10.273438 9.078125 11.652344 9.078125 C 13.03125 9.078125 14.152344 10.195312 14.152344 11.578125 Z M 14.152344 11.578125 "/>
<path style=" stroke:none;fill-rule:nonzero;fill:rgb(100%,100%,100%);fill-opacity:1;" d="M 11.328125 10.328125 L 11.300781 10.65625 C 11.195312 10.695312 11.097656 10.75 11.015625 10.820312 L 10.714844 10.679688 L 10.402344 11.222656 L 10.671875 11.410156 C 10.664062 11.464844 10.660156 11.519531 10.660156 11.578125 C 10.660156 11.632812 10.664062 11.6875 10.671875 11.742188 L 10.402344 11.929688 L 10.714844 12.472656 L 11.015625 12.332031 C 11.097656 12.402344 11.195312 12.457031 11.300781 12.496094 L 11.328125 12.828125 L 11.953125 12.828125 L 11.980469 12.496094 C 12.085938 12.457031 12.183594 12.402344 12.269531 12.332031 L 12.566406 12.472656 L 12.878906 11.929688 L 12.609375 11.742188 C 12.617188 11.6875 12.625 11.632812 12.625 11.578125 C 12.625 11.519531 12.617188 11.464844 12.609375 11.410156 L 12.878906 11.222656 L 12.566406 10.679688 L 12.269531 10.820312 C 12.183594 10.75 12.085938 10.695312 11.980469 10.65625 L 11.953125 10.328125 Z M 11.640625 11.21875 C 11.839844 11.21875 12 11.378906 12 11.578125 C 12 11.773438 11.839844 11.933594 11.640625 11.933594 C 11.445312 11.933594 11.285156 11.773438 11.285156 11.578125 C 11.285156 11.378906 11.445312 11.21875 11.640625 11.21875 Z M 11.640625 11.21875 "/>
</g>
</svg>
