<?xml version="1.0" encoding="UTF-8"?>
<svg xmlns="http://www.w3.org/2000/svg" xmlns:xlink="http://www.w3.org/1999/xlink" width="16pt" height="16pt" viewBox="0 0 16 16" version="1.1">
<g id="surface1">
<path style=" stroke:none;fill-rule:evenodd;fill:rgb(40%,40%,40%);fill-opacity:1;" d="M 3.734375 0.949219 L 12.265625 0.949219 C 13.800781 0.949219 15.050781 2.199219 15.050781 3.734375 L 15.050781 12.265625 C 15.050781 13.800781 13.800781 15.050781 12.265625 15.050781 L 3.734375 15.050781 C 2.199219 15.050781 0.949219 13.800781 0.949219 12.265625 L 0.949219 3.734375 C 0.949219 2.199219 2.199219 0.949219 3.734375 0.949219 Z M 3.734375 0.949219 "/>
<path style=" stroke:none;fill-rule:nonzero;fill:rgb(97.647059%,97.647059%,97.647059%);fill-opacity:1;" d="M 8.414062 2.453125 C 8.351562 2.484375 8.28125 2.503906 8.222656 2.546875 C 8.113281 2.632812 8.011719 2.71875 7.914062 2.816406 C 7.808594 2.921875 7.695312 2.980469 7.542969 3.011719 C 7.167969 3.085938 6.949219 3.171875 6.597656 3.316406 C 5.824219 3.644531 5.3125 4.257812 4.945312 5 C 4.621094 5.65625 4.613281 6.367188 4.640625 7.082031 C 4.695312 8.558594 5.578125 9.636719 6.046875 10.773438 L 6.167969 10.773438 C 5.984375 10.773438 5.820312 10.898438 5.820312 11.050781 L 5.820312 11.609375 C 5.820312 11.761719 5.984375 11.964844 6.167969 11.964844 L 5.90625 11.964844 C 5.667969 11.964844 5.421875 12.148438 5.421875 12.378906 L 5.421875 13.132812 C 5.421875 13.363281 5.667969 13.546875 5.90625 13.546875 L 9.734375 13.546875 C 9.972656 13.546875 10.179688 13.363281 10.179688 13.132812 L 10.179688 12.378906 C 10.179688 12.148438 9.972656 11.964844 9.734375 11.964844 L 9.472656 11.964844 C 9.65625 11.964844 9.78125 11.761719 9.78125 11.609375 L 9.78125 11.050781 C 9.78125 10.898438 9.65625 10.773438 9.472656 10.773438 L 9.523438 10.773438 C 9.640625 10.664062 9.636719 10.464844 9.742188 10.351562 C 10.222656 9.84375 10.308594 9.121094 9.972656 8.503906 C 9.808594 8.203125 9.574219 7.957031 9.308594 7.75 C 9.003906 7.511719 8.695312 7.289062 8.390625 7.058594 C 8.300781 6.992188 8.3125 6.914062 8.199219 6.8125 C 8.484375 6.871094 8.625 6.945312 8.855469 6.957031 C 9.253906 6.976562 9.597656 7.148438 9.917969 7.382812 C 10.039062 7.46875 10.183594 7.542969 10.328125 7.59375 C 10.515625 7.65625 10.609375 7.609375 10.71875 7.441406 C 10.75 7.394531 10.765625 7.34375 10.796875 7.285156 C 11.015625 7.292969 11.140625 7.121094 11.203125 6.917969 C 11.222656 6.84375 11.257812 6.78125 11.28125 6.714844 C 11.453125 6.253906 11.367188 5.851562 11.035156 5.5 C 10.960938 5.417969 10.875 5.351562 10.796875 5.273438 C 10.539062 5.015625 10.28125 4.757812 10.03125 4.496094 C 9.84375 4.304688 9.683594 4.09375 9.5 3.90625 C 9.40625 3.8125 9.328125 3.71875 9.289062 3.59375 C 9.222656 3.40625 9.101562 3.257812 8.929688 3.160156 C 8.867188 3.125 8.648438 3.085938 8.605469 3.058594 C 8.53125 2.847656 8.703125 2.582031 8.414062 2.453125 Z M 8.414062 2.453125 "/>
</g>
</svg>
