<?xml version="1.0" encoding="UTF-8"?>
<svg xmlns="http://www.w3.org/2000/svg" xmlns:xlink="http://www.w3.org/1999/xlink" width="16pt" height="16pt" viewBox="0 0 16 16" version="1.1">
<g id="surface1">
<path style=" stroke:none;fill-rule:evenodd;fill:rgb(100%,92.54902%,67.45098%);fill-opacity:1;" d="M 3.734375 0.949219 L 12.265625 0.949219 C 13.800781 0.949219 15.050781 2.199219 15.050781 3.734375 L 15.050781 12.265625 C 15.050781 13.800781 13.800781 15.050781 12.265625 15.050781 L 3.734375 15.050781 C 2.199219 15.050781 0.949219 13.800781 0.949219 12.265625 L 0.949219 3.734375 C 0.949219 2.199219 2.199219 0.949219 3.734375 0.949219 Z M 3.734375 0.949219 "/>
<path style=" stroke:none;fill-rule:nonzero;fill:rgb(59.215686%,35.294118%,20.392157%);fill-opacity:1;" d="M 7.5625 2.847656 C 7.589844 2.828125 7.96875 3.070312 8.359375 3.355469 C 8.925781 3.773438 9.285156 4.144531 9.605469 4.632812 C 9.683594 4.753906 9.746094 4.878906 9.804688 5.007812 C 9.839844 5.0625 9.871094 5.113281 9.902344 5.171875 C 10.515625 6.328125 10.183594 7.789062 9.15625 8.433594 C 8.128906 9.078125 6.796875 8.660156 6.183594 7.503906 C 6.15625 7.449219 6.128906 7.394531 6.105469 7.339844 C 6.074219 7.289062 6.042969 7.238281 6.015625 7.183594 C 5.667969 6.445312 5.738281 5.65625 6.125 4.984375 C 6.328125 4.625 6.734375 4.265625 7.027344 4.078125 C 7.390625 3.847656 7.515625 3.378906 7.539062 2.972656 C 7.542969 2.910156 7.554688 2.851562 7.5625 2.847656 Z M 7.5625 2.847656 "/>
<path style=" stroke:none;fill-rule:nonzero;fill:rgb(94.509804%,71.372549%,36.078431%);fill-opacity:1;" d="M 6.191406 6.527344 C 6.066406 6.527344 5.949219 6.59375 5.875 6.699219 C 5.796875 6.808594 5.773438 6.953125 5.804688 7.082031 L 7.210938 12.828125 C 7.257812 13.019531 7.417969 13.15625 7.597656 13.15625 L 8.402344 13.15625 C 8.582031 13.15625 8.742188 13.019531 8.789062 12.828125 L 10.195312 7.082031 C 10.226562 6.953125 10.203125 6.808594 10.125 6.699219 C 10.050781 6.59375 9.933594 6.527344 9.808594 6.527344 Z M 6.191406 6.527344 "/>
<path style=" stroke:none;fill-rule:nonzero;fill:rgb(100%,81.176471%,53.333333%);fill-opacity:1;" d="M 5.324219 6.160156 L 10.675781 6.160156 C 10.824219 6.160156 10.945312 6.324219 10.945312 6.527344 C 10.945312 6.730469 10.824219 6.894531 10.675781 6.894531 L 5.324219 6.894531 C 5.175781 6.894531 5.054688 6.730469 5.054688 6.527344 C 5.054688 6.324219 5.175781 6.160156 5.324219 6.160156 Z M 5.324219 6.160156 "/>
<path style=" stroke:none;fill-rule:evenodd;fill:rgb(80%,36.862745%,33.333333%);fill-opacity:1;" d="M 14.015625 11.46875 C 14.015625 12.847656 12.894531 13.96875 11.515625 13.96875 C 10.132812 13.96875 9.015625 12.847656 9.015625 11.46875 C 9.015625 10.085938 10.132812 8.96875 11.515625 8.96875 C 12.894531 8.96875 14.015625 10.085938 14.015625 11.46875 Z M 14.015625 11.46875 "/>
<path style=" stroke:none;fill-rule:nonzero;fill:rgb(100%,100%,100%);fill-opacity:1;" d="M 11.203125 10.21875 L 11.175781 10.546875 C 11.070312 10.585938 10.972656 10.640625 10.886719 10.710938 L 10.589844 10.570312 L 10.277344 11.113281 L 10.546875 11.300781 C 10.539062 11.355469 10.53125 11.410156 10.53125 11.46875 C 10.53125 11.523438 10.539062 11.578125 10.546875 11.632812 L 10.277344 11.820312 L 10.589844 12.363281 L 10.886719 12.222656 C 10.972656 12.292969 11.070312 12.347656 11.175781 12.386719 L 11.203125 12.71875 L 11.828125 12.71875 L 11.855469 12.386719 C 11.960938 12.347656 12.058594 12.292969 12.140625 12.222656 L 12.441406 12.363281 L 12.753906 11.820312 L 12.484375 11.632812 C 12.492188 11.578125 12.496094 11.523438 12.496094 11.46875 C 12.496094 11.410156 12.492188 11.355469 12.484375 11.300781 L 12.753906 11.113281 L 12.441406 10.570312 L 12.140625 10.710938 C 12.058594 10.640625 11.960938 10.585938 11.855469 10.546875 L 11.828125 10.21875 Z M 11.515625 11.109375 C 11.710938 11.109375 11.871094 11.269531 11.871094 11.46875 C 11.871094 11.664062 11.710938 11.824219 11.515625 11.824219 C 11.316406 11.824219 11.15625 11.664062 11.15625 11.46875 C 11.15625 11.269531 11.316406 11.109375 11.515625 11.109375 Z M 11.515625 11.109375 "/>
</g>
</svg>
