<?xml version="1.0" encoding="UTF-8"?>
<svg xmlns="http://www.w3.org/2000/svg" xmlns:xlink="http://www.w3.org/1999/xlink" width="16pt" height="16pt" viewBox="0 0 16 16" version="1.1">
<g id="surface1">
<path style=" stroke:none;fill-rule:evenodd;fill:rgb(20.784314%,72.54902%,96.078431%);fill-opacity:1;" d="M 3.734375 0.949219 L 12.265625 0.949219 C 13.800781 0.949219 15.050781 2.199219 15.050781 3.734375 L 15.050781 12.265625 C 15.050781 13.800781 13.800781 15.050781 12.265625 15.050781 L 3.734375 15.050781 C 2.199219 15.050781 0.949219 13.800781 0.949219 12.265625 L 0.949219 3.734375 C 0.949219 2.199219 2.199219 0.949219 3.734375 0.949219 Z M 3.734375 0.949219 "/>
<path style=" stroke:none;fill-rule:nonzero;fill:rgb(100%,100%,100%);fill-opacity:1;" d="M 12.789062 5.078125 C 12.4375 5.230469 12.058594 5.332031 11.660156 5.378906 C 12.066406 5.140625 12.375 4.761719 12.523438 4.3125 C 12.144531 4.53125 11.722656 4.691406 11.277344 4.78125 C 10.917969 4.40625 10.40625 4.171875 9.84375 4.171875 C 8.757812 4.171875 7.875 5.035156 7.875 6.105469 C 7.875 6.253906 7.894531 6.402344 7.929688 6.542969 C 6.296875 6.464844 4.847656 5.691406 3.878906 4.523438 C 3.710938 4.808594 3.613281 5.140625 3.613281 5.496094 C 3.613281 6.167969 3.960938 6.757812 4.484375 7.105469 C 4.164062 7.09375 3.859375 7.007812 3.597656 6.863281 C 3.597656 6.871094 3.597656 6.878906 3.597656 6.886719 C 3.597656 7.824219 4.273438 8.605469 5.171875 8.785156 C 5.007812 8.828125 4.832031 8.851562 4.65625 8.851562 C 4.527344 8.851562 4.40625 8.839844 4.285156 8.816406 C 4.535156 9.585938 5.261719 10.144531 6.121094 10.160156 C 5.449219 10.679688 4.601562 10.988281 3.679688 10.988281 C 3.523438 10.988281 3.367188 10.980469 3.210938 10.960938 C 4.082031 11.511719 5.113281 11.828125 6.222656 11.828125 C 9.835938 11.828125 11.8125 8.882812 11.8125 6.328125 C 11.8125 6.242188 11.8125 6.160156 11.808594 6.078125 C 12.191406 5.804688 12.523438 5.464844 12.789062 5.078125 Z M 12.789062 5.078125 "/>
</g>
</svg>
