<?xml version="1.0" encoding="UTF-8"?>
<svg xmlns="http://www.w3.org/2000/svg" xmlns:xlink="http://www.w3.org/1999/xlink" width="16pt" height="16pt" viewBox="0 0 16 16" version="1.1">
<g id="surface1">
<path style=" stroke:none;fill-rule:evenodd;fill:rgb(76.078431%,20.784314%,16.470588%);fill-opacity:1;" d="M 3.734375 0.949219 L 12.265625 0.949219 C 13.800781 0.949219 15.050781 2.199219 15.050781 3.734375 L 15.050781 12.265625 C 15.050781 13.800781 13.800781 15.050781 12.265625 15.050781 L 3.734375 15.050781 C 2.199219 15.050781 0.949219 13.800781 0.949219 12.265625 L 0.949219 3.734375 C 0.949219 2.199219 2.199219 0.949219 3.734375 0.949219 Z M 3.734375 0.949219 "/>
<path style=" stroke:none;fill-rule:nonzero;fill:rgb(97.647059%,97.647059%,97.647059%);fill-opacity:1;" d="M 4.65625 4.589844 C 4.097656 4.640625 3.890625 4.667969 3.582031 4.929688 C 3.109375 5.34375 3 6.15625 3 7.40625 L 3 8.59375 C 3 10.015625 3.1875 10.734375 3.503906 11 C 3.867188 11.308594 4.105469 11.332031 4.34375 11.371094 C 4.4375 11.382812 5.097656 11.5 8.023438 11.5 C 9.847656 11.5 11.417969 11.414062 11.578125 11.394531 C 11.839844 11.359375 12.210938 11.3125 12.5 11 C 12.917969 10.527344 13 9.738281 13 8.597656 L 13 7.21875 C 13 6.480469 12.960938 5.4375 12.5 5 C 12.148438 4.703125 12.019531 4.625 11.296875 4.585938 C 11.09375 4.578125 9.3125 4.5 8.066406 4.5 C 6.898438 4.5 5.175781 4.570312 4.65625 4.589844 Z M 7 6.5 L 9.5 8 L 7 9.5 "/>
<path style=" stroke:none;fill-rule:nonzero;fill:rgb(1.176471%,66.27451%,95.686275%);fill-opacity:1;" d="M 14.09375 11.457031 C 14.09375 12.839844 12.972656 13.957031 11.59375 13.957031 C 10.210938 13.957031 9.09375 12.839844 9.09375 11.457031 C 9.09375 10.078125 10.210938 8.957031 11.59375 8.957031 C 12.972656 8.957031 14.09375 10.078125 14.09375 11.457031 Z M 14.09375 11.457031 "/>
<path style=" stroke:none;fill-rule:nonzero;fill:rgb(100%,100%,100%);fill-opacity:1;" d="M 12.09375 9.957031 L 13.09375 10.957031 L 12.761719 10.957031 L 11.925781 11.792969 C 12.425781 12.292969 11.761719 12.625 11.761719 12.625 L 11.261719 12.125 L 10.425781 12.957031 L 10.09375 12.957031 L 10.09375 12.625 L 10.925781 11.792969 L 10.425781 11.292969 C 10.425781 11.292969 10.761719 10.625 11.261719 11.125 L 12.09375 10.292969 Z M 12.09375 9.957031 "/>
</g>
</svg>
