<?xml version="1.0" encoding="UTF-8"?>
<svg xmlns="http://www.w3.org/2000/svg" xmlns:xlink="http://www.w3.org/1999/xlink" width="16pt" height="16pt" viewBox="0 0 16 16" version="1.1">
<g id="surface1">
<path style=" stroke:none;fill-rule:evenodd;fill:rgb(99.607843%,71.372549%,14.509804%);fill-opacity:1;" d="M 3.734375 0.949219 L 12.265625 0.949219 C 13.800781 0.949219 15.050781 2.199219 15.050781 3.734375 L 15.050781 12.265625 C 15.050781 13.800781 13.800781 15.050781 12.265625 15.050781 L 3.734375 15.050781 C 2.199219 15.050781 0.949219 13.800781 0.949219 12.265625 L 0.949219 3.734375 C 0.949219 2.199219 2.199219 0.949219 3.734375 0.949219 Z M 3.734375 0.949219 "/>
<path style=" stroke:none;fill-rule:nonzero;fill:rgb(25.882353%,25.882353%,25.882353%);fill-opacity:1;" d="M 11.5 11.808594 C 10.691406 12.238281 9.800781 12.496094 8.957031 12.5 C 7.589844 12.5 6.503906 12.097656 5.703125 11.292969 C 4.902344 10.484375 4.5 9.386719 4.5 8.003906 C 4.5 6.617188 4.902344 5.519531 5.703125 4.714844 C 6.503906 3.90625 7.589844 3.5 8.957031 3.5 C 9.875 3.511719 10.757812 3.789062 11.5 4.191406 L 11.5 6.039062 C 10.773438 5.601562 9.914062 5.328125 9.128906 5.324219 C 8.375 5.324219 7.609375 5.578125 7.171875 6.09375 C 6.742188 6.601562 6.523438 7.105469 6.523438 8.003906 C 6.523438 8.898438 6.742188 9.394531 7.171875 9.90625 C 7.609375 10.421875 8.375 10.675781 9.128906 10.675781 C 9.972656 10.625 10.890625 10.390625 11.5 9.960938 Z M 11.5 11.808594 "/>
</g>
</svg>
