<?xml version="1.0" encoding="UTF-8"?>
<svg xmlns="http://www.w3.org/2000/svg" xmlns:xlink="http://www.w3.org/1999/xlink" width="16pt" height="16pt" viewBox="0 0 16 16" version="1.1">
<g id="surface1">
<path style=" stroke:none;fill-rule:evenodd;fill:rgb(54.901961%,54.901961%,54.901961%);fill-opacity:1;" d="M 3.734375 0.949219 L 12.265625 0.949219 C 13.800781 0.949219 15.050781 2.199219 15.050781 3.734375 L 15.050781 12.265625 C 15.050781 13.800781 13.800781 15.050781 12.265625 15.050781 L 3.734375 15.050781 C 2.199219 15.050781 0.949219 13.800781 0.949219 12.265625 L 0.949219 3.734375 C 0.949219 2.199219 2.199219 0.949219 3.734375 0.949219 Z M 3.734375 0.949219 "/>
<path style=" stroke:none;fill-rule:nonzero;fill:rgb(27.058824%,27.058824%,27.058824%);fill-opacity:1;" d="M 4.457031 4.089844 L 11.542969 4.089844 C 12.46875 4.089844 13.222656 4.84375 13.222656 5.769531 L 13.222656 10.230469 C 13.222656 11.15625 12.46875 11.910156 11.542969 11.910156 L 4.457031 11.910156 C 3.53125 11.910156 2.777344 11.15625 2.777344 10.230469 L 2.777344 5.769531 C 2.777344 4.84375 3.53125 4.089844 4.457031 4.089844 Z M 4.457031 4.089844 "/>
<path style=" stroke:none;fill-rule:nonzero;fill:rgb(12.941176%,12.941176%,12.941176%);fill-opacity:1;" d="M 4.519531 4.585938 L 11.480469 4.585938 C 12.183594 4.585938 12.753906 5.132812 12.753906 5.808594 L 12.753906 10.191406 C 12.753906 10.867188 12.183594 11.414062 11.480469 11.414062 L 4.519531 11.414062 C 3.816406 11.414062 3.246094 10.867188 3.246094 10.191406 L 3.246094 5.808594 C 3.246094 5.132812 3.816406 4.585938 4.519531 4.585938 Z M 4.519531 4.585938 "/>
<path style=" stroke:none;fill-rule:nonzero;fill:rgb(86.666667%,30.196078%,24.313725%);fill-opacity:1;" d="M 10.050781 6.484375 C 10.042969 6.40625 10.035156 6.324219 10.003906 6.25 C 9.960938 6.148438 9.898438 6.058594 9.820312 5.984375 C 9.742188 5.90625 9.652344 5.84375 9.546875 5.800781 C 9.445312 5.757812 9.332031 5.734375 9.214844 5.734375 L 6.585938 5.734375 C 6.46875 5.734375 6.355469 5.757812 6.253906 5.800781 C 6.148438 5.84375 6.058594 5.90625 5.980469 5.984375 C 5.902344 6.058594 5.839844 6.148438 5.796875 6.25 C 5.753906 6.351562 5.730469 6.464844 5.730469 6.582031 L 5.730469 6.988281 L 6.582031 8.445312 L 6.609375 8.492188 L 6.613281 8.496094 L 6.667969 8.589844 L 7.160156 8.984375 L 7.300781 8.921875 L 7.457031 9.023438 C 7.4375 8.988281 7.421875 8.9375 7.402344 8.878906 L 8.328125 8.492188 L 7.371094 6.851562 C 7.457031 6.652344 7.609375 6.515625 7.878906 6.484375 Z M 10.050781 6.484375 "/>
<path style=" stroke:none;fill-rule:nonzero;fill:rgb(100%,80.784314%,25.490196%);fill-opacity:1;" d="M 8.28125 10.015625 L 9.222656 10.015625 C 9.34375 10.015625 9.453125 9.996094 9.554688 9.953125 C 9.65625 9.90625 9.746094 9.847656 9.824219 9.769531 C 9.902344 9.691406 9.960938 9.601562 10.003906 9.5 C 10.046875 9.398438 10.070312 9.289062 10.070312 9.171875 L 10.070312 6.582031 C 10.070312 6.546875 10.054688 6.515625 10.050781 6.484375 L 7.910156 6.484375 C 7.910156 6.484375 8.355469 6.683594 8.542969 6.789062 C 9.023438 7.066406 9.070312 8.058594 9.074219 8.457031 L 9.15625 8.503906 L 9.070312 8.644531 C 9.070312 8.644531 9.070312 8.652344 9.070312 8.652344 L 9.039062 8.699219 Z M 8.28125 10.015625 "/>
<path style=" stroke:none;fill-rule:nonzero;fill:rgb(6.27451%,62.352941%,35.686275%);fill-opacity:1;" d="M 5.730469 6.679688 L 5.730469 9.171875 C 5.730469 9.289062 5.753906 9.398438 5.796875 9.5 C 5.839844 9.601562 5.902344 9.691406 5.976562 9.769531 C 6.054688 9.847656 6.144531 9.90625 6.246094 9.953125 C 6.347656 9.996094 6.460938 10.015625 6.578125 10.015625 L 8.28125 10.015625 L 9.210938 8.46875 C 9.109375 8.640625 8.667969 8.859375 8.480469 8.96875 C 7.878906 9.3125 7.113281 9.089844 6.765625 8.488281 Z M 5.730469 6.679688 "/>
<path style=" stroke:none;fill-rule:nonzero;fill:rgb(100%,100%,100%);fill-opacity:1;" d="M 9.300781 7.875 C 9.300781 7.109375 8.679688 6.484375 7.910156 6.484375 C 7.140625 6.484375 6.515625 7.109375 6.515625 7.875 C 6.515625 8.644531 7.140625 9.269531 7.910156 9.269531 C 8.679688 9.269531 9.300781 8.644531 9.300781 7.875 Z M 9.300781 7.875 "/>
<path style=" stroke:none;fill-rule:nonzero;fill:rgb(27.058824%,52.941176%,95.294118%);fill-opacity:1;" d="M 8.90625 7.875 C 8.90625 7.328125 8.457031 6.882812 7.910156 6.882812 C 7.359375 6.882812 6.914062 7.328125 6.914062 7.875 C 6.914062 8.425781 7.359375 8.871094 7.910156 8.871094 C 8.457031 8.871094 8.90625 8.425781 8.90625 7.875 Z M 8.90625 7.875 "/>
</g>
</svg>
