<?xml version="1.0" encoding="UTF-8"?>
<svg xmlns="http://www.w3.org/2000/svg" xmlns:xlink="http://www.w3.org/1999/xlink" width="16pt" height="16pt" viewBox="0 0 16 16" version="1.1">
<g id="surface1">
<path style=" stroke:none;fill-rule:evenodd;fill:rgb(100%,100%,100%);fill-opacity:1;" d="M 4.949219 0.949219 L 4.949219 4.949219 L 0.949219 4.949219 L 0.949219 5.964844 L 4.949219 5.964844 L 4.949219 10.027344 L 0.949219 10.027344 L 0.949219 11.042969 L 4.949219 11.042969 L 4.949219 15.050781 L 5.964844 15.050781 L 5.964844 11.042969 L 10.027344 11.042969 L 10.027344 15.050781 L 11.042969 15.050781 L 11.042969 11.042969 L 15.050781 11.042969 L 15.050781 10.027344 L 11.042969 10.027344 L 11.042969 5.964844 L 15.050781 5.964844 L 15.050781 4.949219 L 11.042969 4.949219 L 11.042969 0.949219 L 10.027344 0.949219 L 10.027344 4.949219 L 5.964844 4.949219 L 5.964844 0.949219 Z M 4.949219 0.949219 "/>
<path style=" stroke:none;fill-rule:evenodd;fill:rgb(99.607843%,55.686275%,55.686275%);fill-opacity:1;" d="M 5.941406 5.996094 L 5.941406 10.023438 L 10.003906 10.023438 L 10.003906 5.996094 Z M 5.941406 5.996094 "/>
<path style=" stroke:none;fill-rule:evenodd;fill:rgb(92.156863%,38.431373%,32.54902%);fill-opacity:1;" d="M 5.941406 5.996094 L 10.003906 5.996094 L 10.003906 10.023438 L 5.941406 10.023438 Z M 5.941406 5.996094 "/>
<path style=" stroke:none;fill-rule:evenodd;fill:rgb(29.019608%,60%,89.411765%);fill-opacity:1;" d="M 10.027344 0.949219 L 5.964844 0.949219 L 5.964844 4.949219 L 10.027344 4.949219 Z M 10.027344 0.949219 "/>
<path style=" stroke:none;fill-rule:evenodd;fill:rgb(29.019608%,60%,89.411765%);fill-opacity:1;" d="M 15.050781 4.949219 L 15.050781 3.734375 C 15.050781 2.191406 13.808594 0.949219 12.265625 0.949219 L 11.042969 0.949219 L 11.042969 4.949219 Z M 15.050781 4.949219 "/>
<path style=" stroke:none;fill-rule:evenodd;fill:rgb(29.019608%,60%,89.411765%);fill-opacity:1;" d="M 15.050781 10.027344 L 15.050781 5.964844 L 11.042969 5.964844 L 11.042969 10.027344 Z M 15.050781 10.027344 "/>
<path style=" stroke:none;fill-rule:evenodd;fill:rgb(92.156863%,38.431373%,32.54902%);fill-opacity:1;" d="M 11.042969 15.050781 L 12.265625 15.050781 C 13.808594 15.050781 15.050781 13.808594 15.050781 12.265625 L 15.050781 11.042969 L 11.042969 11.042969 Z M 11.042969 15.050781 "/>
<path style=" stroke:none;fill-rule:evenodd;fill:rgb(36.862745%,68.627451%,24.313725%);fill-opacity:1;" d="M 5.964844 15.050781 L 10.027344 15.050781 L 10.027344 11.042969 L 5.964844 11.042969 Z M 5.964844 15.050781 "/>
<path style=" stroke:none;fill-rule:evenodd;fill:rgb(36.862745%,68.627451%,24.313725%);fill-opacity:1;" d="M 0.949219 11.042969 L 0.949219 12.265625 C 0.949219 13.808594 2.191406 15.050781 3.734375 15.050781 L 4.949219 15.050781 L 4.949219 11.042969 Z M 0.949219 11.042969 "/>
<path style=" stroke:none;fill-rule:evenodd;fill:rgb(36.862745%,68.627451%,24.313725%);fill-opacity:1;" d="M 0.949219 5.964844 L 0.949219 10.027344 L 4.949219 10.027344 L 4.949219 5.964844 Z M 0.949219 5.964844 "/>
<path style=" stroke:none;fill-rule:evenodd;fill:rgb(92.156863%,38.431373%,32.54902%);fill-opacity:1;" d="M 4.949219 0.949219 L 3.734375 0.949219 C 2.191406 0.949219 0.949219 2.191406 0.949219 3.734375 L 0.949219 4.949219 L 4.949219 4.949219 Z M 4.949219 0.949219 "/>
</g>
</svg>
