<?xml version="1.0" encoding="UTF-8"?>
<svg xmlns="http://www.w3.org/2000/svg" xmlns:xlink="http://www.w3.org/1999/xlink" width="16pt" height="16pt" viewBox="0 0 16 16" version="1.1">
<g id="surface1">
<path style=" stroke:none;fill-rule:evenodd;fill:rgb(90.196078%,90.196078%,90.196078%);fill-opacity:1;" d="M 3.734375 0.949219 L 12.265625 0.949219 C 13.800781 0.949219 15.050781 2.199219 15.050781 3.734375 L 15.050781 12.265625 C 15.050781 13.800781 13.800781 15.050781 12.265625 15.050781 L 3.734375 15.050781 C 2.199219 15.050781 0.949219 13.800781 0.949219 12.265625 L 0.949219 3.734375 C 0.949219 2.199219 2.199219 0.949219 3.734375 0.949219 Z M 3.734375 0.949219 "/>
<path style=" stroke:none;fill-rule:nonzero;fill:rgb(87.843137%,23.529412%,23.137255%);fill-opacity:1;" d="M 11.710938 2.730469 C 11.570312 3.601562 11.140625 4.394531 10.496094 4.984375 C 9.78125 4.511719 8.921875 4.234375 8 4.234375 C 7.078125 4.234375 6.21875 4.511719 5.503906 4.984375 C 4.863281 4.402344 4.4375 3.617188 4.289062 2.753906 C 4.253906 2.960938 4.234375 3.171875 4.234375 3.382812 C 4.234375 4.140625 4.453125 4.875 4.855469 5.507812 C 4.007812 6.328125 3.480469 7.472656 3.480469 8.753906 C 3.480469 11.257812 5.496094 13.269531 8 13.269531 C 10.503906 13.269531 12.519531 11.257812 12.519531 8.753906 C 12.519531 7.476562 11.992188 6.328125 11.144531 5.507812 C 11.546875 4.875 11.765625 4.140625 11.765625 3.382812 C 11.765625 3.164062 11.746094 2.945312 11.710938 2.730469 Z M 11.710938 2.730469 "/>
<path style=" stroke:none;fill-rule:nonzero;fill:rgb(100%,100%,100%);fill-opacity:1;" d="M 7.625 9.882812 C 7.175781 10.601562 6.191406 10.847656 5.417969 10.433594 C 4.644531 10.015625 4.382812 9.097656 4.828125 8.375 Z M 7.625 9.882812 "/>
<path style=" stroke:none;fill-rule:nonzero;fill:rgb(17.254902%,17.254902%,17.254902%);fill-opacity:1;" d="M 6.078125 9.050781 C 6.015625 9.492188 6.144531 10.023438 6.480469 10.609375 C 6.480469 10.609375 6.484375 10.609375 6.484375 10.609375 C 6.300781 10.191406 6.328125 9.714844 6.492188 9.273438 Z M 6.078125 9.050781 "/>
<path style=" stroke:none;fill-rule:nonzero;fill:rgb(100%,100%,100%);fill-opacity:1;" d="M 8.375 9.882812 C 8.824219 10.601562 9.808594 10.851562 10.582031 10.433594 C 11.355469 10.015625 11.617188 9.097656 11.171875 8.375 Z M 8.375 9.882812 "/>
<path style=" stroke:none;fill-rule:nonzero;fill:rgb(17.254902%,17.254902%,17.254902%);fill-opacity:1;" d="M 9.921875 9.050781 L 9.507812 9.273438 C 9.671875 9.714844 9.699219 10.191406 9.515625 10.609375 C 9.515625 10.609375 9.519531 10.609375 9.519531 10.609375 C 9.855469 10.023438 9.984375 9.492188 9.921875 9.050781 Z M 9.921875 9.050781 "/>
</g>
</svg>
