<?xml version="1.0" encoding="UTF-8"?>
<svg xmlns="http://www.w3.org/2000/svg" xmlns:xlink="http://www.w3.org/1999/xlink" width="16pt" height="16pt" viewBox="0 0 16 16" version="1.1">
<g id="surface1">
<path style=" stroke:none;fill-rule:evenodd;fill:rgb(100%,54.117647%,10.196078%);fill-opacity:1;" d="M 3.734375 0.949219 L 12.265625 0.949219 C 13.800781 0.949219 15.050781 2.199219 15.050781 3.734375 L 15.050781 12.265625 C 15.050781 13.800781 13.800781 15.050781 12.265625 15.050781 L 3.734375 15.050781 C 2.199219 15.050781 0.949219 13.800781 0.949219 12.265625 L 0.949219 3.734375 C 0.949219 2.199219 2.199219 0.949219 3.734375 0.949219 Z M 3.734375 0.949219 "/>
<path style=" stroke:none;fill-rule:nonzero;fill:rgb(96.862745%,74.117647%,36.470588%);fill-opacity:1;" d="M 8.800781 7.242188 C 7.488281 5.941406 7.117188 4.710938 6.566406 4.074219 C 5.117188 2.394531 1.644531 6.890625 5.402344 10.617188 C 9.15625 14.339844 13.6875 10.898438 11.878906 9.394531 C 11.234375 8.859375 10.046875 8.476562 8.800781 7.242188 Z M 8.800781 7.242188 "/>
<path style=" stroke:none;fill-rule:nonzero;fill:rgb(100%,100%,100%);fill-opacity:1;" d="M 5.804688 3.714844 C 5.050781 4.554688 4.632812 5.644531 4.628906 6.773438 C 4.628906 9.3125 6.6875 11.371094 9.226562 11.371094 C 10.355469 11.367188 11.445312 10.949219 12.285156 10.191406 C 12.28125 9.90625 12.15625 9.625 11.878906 9.394531 C 11.234375 8.859375 10.046875 8.476562 8.800781 7.242188 C 7.488281 5.941406 7.117188 4.710938 6.566406 4.074219 C 6.347656 3.820312 6.082031 3.710938 5.804688 3.714844 Z M 5.804688 3.714844 "/>
</g>
</svg>
