<?xml version="1.0" encoding="UTF-8"?>
<svg xmlns="http://www.w3.org/2000/svg" xmlns:xlink="http://www.w3.org/1999/xlink" width="16pt" height="16pt" viewBox="0 0 16 16" version="1.1">
<g id="surface1">
<path style=" stroke:none;fill-rule:evenodd;fill:rgb(20%,61.176471%,20%);fill-opacity:1;" d="M 14.0625 14.351562 L 5.695312 11.121094 L 1.867188 14.304688 C 2.363281 14.757812 3.007812 15.050781 3.734375 15.050781 L 12.265625 15.050781 C 12.960938 15.050781 13.578125 14.769531 14.0625 14.351562 Z M 14.0625 14.351562 "/>
<path style=" stroke:none;fill-rule:evenodd;fill:rgb(80%,80%,80%);fill-opacity:1;" d="M 14.964844 12.640625 C 14.984375 12.511719 15.050781 12.398438 15.050781 12.261719 L 15.050781 3.734375 C 15.050781 2.191406 13.808594 0.949219 12.265625 0.949219 L 8.394531 0.949219 Z M 14.964844 12.640625 "/>
<path style=" stroke:none;fill-rule:evenodd;fill:rgb(100%,100%,100%);fill-opacity:1;" d="M 5.703125 11.121094 L 9.839844 12.71875 L 9.273438 8.15625 Z M 5.703125 11.121094 "/>
<path style=" stroke:none;fill-rule:evenodd;fill:rgb(80%,80%,80%);fill-opacity:1;" d="M 8.371094 0.949219 L 3.734375 0.949219 C 2.191406 0.949219 0.949219 2.191406 0.949219 3.734375 L 0.949219 12.261719 C 0.949219 12.851562 1.179688 13.355469 1.496094 13.800781 Z M 8.371094 0.949219 "/>
<path style=" stroke:none;fill-rule:evenodd;fill:rgb(29.019608%,52.54902%,84.705882%);fill-opacity:1;" d="M 8.371094 0.949219 L 1.496094 13.800781 C 1.617188 13.972656 1.710938 14.164062 1.867188 14.304688 L 5.695312 11.121094 L 5.703125 11.121094 L 9.273438 8.15625 L 8.386719 0.949219 Z M 8.371094 0.949219 "/>
<path style=" stroke:none;fill-rule:evenodd;fill:rgb(86.666667%,23.529412%,23.921569%);fill-opacity:1;" d="M 8.386719 0.949219 L 9.839844 12.71875 L 14.0625 14.351562 C 14.5625 13.921875 14.859375 13.316406 14.964844 12.640625 L 8.394531 0.949219 Z M 8.386719 0.949219 "/>
</g>
</svg>
