<?xml version="1.0" encoding="UTF-8"?>
<svg xmlns="http://www.w3.org/2000/svg" xmlns:xlink="http://www.w3.org/1999/xlink" width="16pt" height="16pt" viewBox="0 0 16 16" version="1.1">
<g id="surface1">
<path style=" stroke:none;fill-rule:evenodd;fill:rgb(94.509804%,79.215686%,25.882353%);fill-opacity:1;" d="M 3.734375 0.949219 L 12.265625 0.949219 C 13.800781 0.949219 15.050781 2.199219 15.050781 3.734375 L 15.050781 12.265625 C 15.050781 13.800781 13.800781 15.050781 12.265625 15.050781 L 3.734375 15.050781 C 2.199219 15.050781 0.949219 13.800781 0.949219 12.265625 L 0.949219 3.734375 C 0.949219 2.199219 2.199219 0.949219 3.734375 0.949219 Z M 3.734375 0.949219 "/>
<path style=" stroke:none;fill-rule:nonzero;fill:rgb(41.176471%,40.784314%,32.54902%);fill-opacity:1;" d="M 8 2.03125 C 7.6875 2.03125 7.375 2.148438 7.140625 2.382812 L 2.382812 7.140625 C 1.914062 7.609375 1.914062 8.390625 2.382812 8.859375 L 7.140625 13.617188 C 7.609375 14.085938 8.390625 14.085938 8.859375 13.617188 L 13.617188 8.859375 C 14.085938 8.390625 14.085938 7.609375 13.617188 7.140625 L 8.859375 2.382812 C 8.625 2.148438 8.3125 2.03125 8 2.03125 Z M 8 2.03125 "/>
<path style=" stroke:none;fill-rule:nonzero;fill:rgb(24.705882%,65.490196%,88.627451%);fill-opacity:1;" d="M 8 3.226562 C 7.894531 3.226562 7.792969 3.265625 7.714844 3.34375 L 6.125 4.929688 C 5.972656 5.085938 5.972656 5.34375 6.128906 5.5 L 7.714844 7.085938 C 7.871094 7.242188 8.128906 7.242188 8.285156 7.085938 L 9.875 5.5 C 10.027344 5.34375 10.027344 5.085938 9.875 4.929688 L 8.285156 3.34375 C 8.207031 3.265625 8.105469 3.226562 8 3.226562 Z M 8 3.226562 "/>
<path style=" stroke:none;fill-rule:nonzero;fill:rgb(24.705882%,24.705882%,24.705882%);fill-opacity:1;" d="M 8 8.796875 C 7.894531 8.796875 7.792969 8.835938 7.714844 8.914062 L 6.125 10.5 C 5.972656 10.65625 5.972656 10.914062 6.128906 11.070312 L 7.714844 12.65625 C 7.871094 12.8125 8.128906 12.8125 8.285156 12.65625 L 9.875 11.070312 C 10.027344 10.914062 10.027344 10.65625 9.875 10.5 L 8.285156 8.914062 C 8.207031 8.835938 8.105469 8.796875 8 8.796875 Z M 8 8.796875 "/>
<path style=" stroke:none;fill-rule:nonzero;fill:rgb(94.509804%,79.215686%,25.882353%);fill-opacity:1;" d="M 12.773438 8 C 12.773438 7.894531 12.734375 7.792969 12.65625 7.714844 L 11.070312 6.125 C 10.914062 5.972656 10.65625 5.972656 10.5 6.125 L 8.914062 7.714844 C 8.757812 7.871094 8.757812 8.128906 8.914062 8.285156 L 10.5 9.875 C 10.65625 10.027344 10.914062 10.027344 11.070312 9.875 L 12.65625 8.285156 C 12.734375 8.207031 12.773438 8.105469 12.773438 8 Z M 12.773438 8 "/>
<path style=" stroke:none;fill-rule:nonzero;fill:rgb(91.764706%,44.705882%,73.333333%);fill-opacity:1;" d="M 7.203125 8 C 7.203125 7.894531 7.164062 7.792969 7.085938 7.714844 L 5.5 6.125 C 5.34375 5.972656 5.085938 5.972656 4.929688 6.125 L 3.34375 7.714844 C 3.1875 7.871094 3.1875 8.128906 3.34375 8.285156 L 4.929688 9.875 C 5.085938 10.027344 5.34375 10.027344 5.5 9.875 L 7.085938 8.285156 C 7.164062 8.207031 7.203125 8.105469 7.203125 8 Z M 7.203125 8 "/>
</g>
</svg>
