<?xml version="1.0" encoding="UTF-8"?>
<svg xmlns="http://www.w3.org/2000/svg" xmlns:xlink="http://www.w3.org/1999/xlink" width="16pt" height="16pt" viewBox="0 0 16 16" version="1.1">
<g id="surface1">
<path style=" stroke:none;fill-rule:evenodd;fill:rgb(0%,61.568627%,23.921569%);fill-opacity:1;" d="M 3.734375 0.949219 L 12.265625 0.949219 C 13.800781 0.949219 15.050781 2.199219 15.050781 3.734375 L 15.050781 12.265625 C 15.050781 13.800781 13.800781 15.050781 12.265625 15.050781 L 3.734375 15.050781 C 2.199219 15.050781 0.949219 13.800781 0.949219 12.265625 L 0.949219 3.734375 C 0.949219 2.199219 2.199219 0.949219 3.734375 0.949219 Z M 3.734375 0.949219 "/>
<path style=" stroke:none;fill-rule:evenodd;fill:rgb(100%,100%,100%);fill-opacity:1;" d="M 10.195312 3.609375 L 6.710938 7.09375 L 4.488281 5.367188 L 3.609375 5.804688 L 3.609375 10.195312 L 4.488281 10.632812 L 6.710938 8.90625 L 10.195312 12.390625 L 12.390625 11.511719 L 12.390625 4.488281 Z M 10.195312 6.195312 L 10.195312 9.804688 L 7.875 8 Z M 4.488281 6.683594 L 5.804688 8 L 4.488281 9.316406 Z M 4.488281 6.683594 "/>
</g>
</svg>
