<?xml version="1.0" encoding="UTF-8"?>
<svg xmlns="http://www.w3.org/2000/svg" xmlns:xlink="http://www.w3.org/1999/xlink" width="16pt" height="16pt" viewBox="0 0 16 16" version="1.1">
<g id="surface1">
<path style=" stroke:none;fill-rule:evenodd;fill:rgb(30.980392%,30.980392%,30.980392%);fill-opacity:1;" d="M 3.734375 0.949219 L 12.265625 0.949219 C 13.800781 0.949219 15.050781 2.199219 15.050781 3.734375 L 15.050781 12.265625 C 15.050781 13.800781 13.800781 15.050781 12.265625 15.050781 L 3.734375 15.050781 C 2.199219 15.050781 0.949219 13.800781 0.949219 12.265625 L 0.949219 3.734375 C 0.949219 2.199219 2.199219 0.949219 3.734375 0.949219 Z M 3.734375 0.949219 "/>
<path style=" stroke:none;fill-rule:nonzero;fill:rgb(88.235294%,38.431373%,38.431373%);fill-opacity:1;" d="M 4.703125 6.523438 C 3.546875 6.714844 2.703125 7.710938 2.699219 8.882812 C 2.699219 10.203125 3.769531 11.277344 5.09375 11.277344 C 5.84375 11.277344 6.546875 10.925781 7 10.328125 C 6.59375 10.222656 6.210938 10.039062 5.878906 9.785156 C 5.660156 9.972656 5.382812 10.078125 5.09375 10.078125 C 4.433594 10.078125 3.894531 9.542969 3.894531 8.882812 C 3.894531 8.390625 4.199219 7.945312 4.65625 7.765625 C 4.628906 7.59375 4.617188 7.421875 4.613281 7.246094 C 4.617188 7 4.644531 6.761719 4.703125 6.523438 Z M 4.703125 6.523438 "/>
<path style=" stroke:none;fill-rule:nonzero;fill:rgb(41.176471%,85.882353%,24.313725%);fill-opacity:1;" d="M 7.089844 3.296875 C 5.765625 3.296875 4.695312 4.367188 4.695312 5.6875 C 4.695312 5.953125 4.742188 6.21875 4.828125 6.46875 C 5.132812 6.164062 5.496094 5.925781 5.894531 5.765625 C 5.894531 5.738281 5.890625 5.714844 5.890625 5.6875 C 5.890625 5.027344 6.429688 4.492188 7.089844 4.492188 C 7.75 4.492188 8.285156 5.027344 8.285156 5.6875 C 8.285156 5.714844 8.285156 5.738281 8.28125 5.765625 C 8.683594 5.925781 9.046875 6.164062 9.351562 6.46875 C 9.4375 6.21875 9.484375 5.953125 9.484375 5.6875 C 9.484375 4.367188 8.410156 3.296875 7.089844 3.296875 Z M 7.089844 3.296875 "/>
<path style=" stroke:none;fill-rule:nonzero;fill:rgb(64.705882%,91.372549%,54.901961%);fill-opacity:1;" d="M 7.886719 5.6875 C 7.886719 6.128906 7.53125 6.488281 7.089844 6.488281 C 6.648438 6.488281 6.292969 6.128906 6.292969 5.6875 C 6.292969 5.25 6.648438 4.890625 7.089844 4.890625 C 7.53125 4.890625 7.886719 5.25 7.886719 5.6875 Z M 7.886719 5.6875 "/>
<path style=" stroke:none;fill-rule:nonzero;fill:rgb(92.156863%,58.431373%,58.431373%);fill-opacity:1;" d="M 5.890625 8.882812 C 5.890625 9.324219 5.535156 9.679688 5.09375 9.679688 C 4.652344 9.679688 4.296875 9.324219 4.296875 8.882812 C 4.296875 8.441406 4.652344 8.082031 5.09375 8.082031 C 5.535156 8.082031 5.890625 8.441406 5.890625 8.882812 Z M 5.890625 8.882812 "/>
<path style=" stroke:none;fill-rule:nonzero;fill:rgb(100%,100%,100%);fill-opacity:1;" d="M 11.878906 8.882812 C 11.878906 9.765625 11.164062 10.480469 10.28125 10.480469 C 9.402344 10.480469 8.6875 9.765625 8.6875 8.882812 C 8.6875 8 9.402344 7.285156 10.28125 7.285156 C 11.164062 7.285156 11.878906 8 11.878906 8.882812 Z M 11.878906 8.882812 "/>
<path style=" stroke:none;fill-rule:nonzero;fill:rgb(100%,100%,100%);fill-opacity:1;" d="M 9.484375 9.28125 L 11.078125 9.28125 L 11.078125 10.878906 L 9.484375 10.878906 Z M 9.484375 9.28125 "/>
<path style=" stroke:none;fill-rule:nonzero;fill:rgb(100%,100%,100%);fill-opacity:1;" d="M 9.484375 11.277344 L 11.078125 11.277344 L 11.078125 11.675781 L 9.484375 11.675781 Z M 9.484375 11.277344 "/>
<path style=" stroke:none;fill-rule:nonzero;fill:rgb(88.235294%,38.431373%,38.431373%);fill-opacity:1;" d="M 13.300781 9.703125 C 13.300781 11.363281 11.957031 12.703125 10.300781 12.703125 C 8.644531 12.703125 7.300781 11.363281 7.300781 9.703125 C 7.300781 8.046875 8.644531 6.703125 10.300781 6.703125 C 11.957031 6.703125 13.300781 8.046875 13.300781 9.703125 Z M 13.300781 9.703125 "/>
<path style=" stroke:none;fill-rule:nonzero;fill:rgb(100%,100%,100%);fill-opacity:1;" d="M 10.300781 8.203125 C 9.472656 8.203125 8.800781 8.875 8.800781 9.703125 C 8.800781 10.535156 9.472656 11.203125 10.300781 11.203125 C 10.980469 11.203125 11.558594 10.753906 11.742188 10.132812 L 11.277344 10.132812 C 11.113281 10.511719 10.738281 10.777344 10.300781 10.777344 C 9.710938 10.777344 9.230469 10.296875 9.230469 9.703125 C 9.230469 9.113281 9.710938 8.632812 10.300781 8.632812 C 10.597656 8.632812 10.859375 8.757812 11.054688 8.953125 L 10.515625 9.492188 L 11.800781 9.492188 L 11.800781 8.207031 L 11.359375 8.644531 C 11.089844 8.375 10.714844 8.207031 10.300781 8.207031 Z M 10.300781 8.203125 "/>
</g>
</svg>
