<?xml version="1.0" encoding="UTF-8"?>
<svg xmlns="http://www.w3.org/2000/svg" xmlns:xlink="http://www.w3.org/1999/xlink" width="16pt" height="16pt" viewBox="0 0 16 16" version="1.1">
<g id="surface1">
<path style=" stroke:none;fill-rule:evenodd;fill:rgb(30.980392%,30.980392%,30.980392%);fill-opacity:1;" d="M 3.734375 0.949219 L 12.265625 0.949219 C 13.800781 0.949219 15.050781 2.199219 15.050781 3.734375 L 15.050781 12.265625 C 15.050781 13.800781 13.800781 15.050781 12.265625 15.050781 L 3.734375 15.050781 C 2.199219 15.050781 0.949219 13.800781 0.949219 12.265625 L 0.949219 3.734375 C 0.949219 2.199219 2.199219 0.949219 3.734375 0.949219 Z M 3.734375 0.949219 "/>
<path style=" stroke:none;fill-rule:nonzero;fill:rgb(88.235294%,38.431373%,38.431373%);fill-opacity:1;" d="M 4.703125 6.515625 C 3.546875 6.707031 2.703125 7.703125 2.699219 8.875 C 2.699219 10.199219 3.769531 11.269531 5.09375 11.269531 C 5.84375 11.269531 6.546875 10.917969 7 10.324219 C 6.59375 10.21875 6.210938 10.03125 5.878906 9.777344 C 5.660156 9.96875 5.382812 10.070312 5.09375 10.074219 C 4.433594 10.074219 3.894531 9.535156 3.894531 8.875 C 3.894531 8.382812 4.199219 7.9375 4.65625 7.761719 C 4.628906 7.585938 4.617188 7.414062 4.613281 7.238281 C 4.617188 6.996094 4.644531 6.753906 4.703125 6.515625 Z M 4.703125 6.515625 "/>
<path style=" stroke:none;fill-rule:nonzero;fill:rgb(41.176471%,85.882353%,24.313725%);fill-opacity:1;" d="M 7.089844 3.289062 C 5.765625 3.289062 4.695312 4.359375 4.695312 5.683594 C 4.695312 5.949219 4.742188 6.210938 4.828125 6.464844 C 5.132812 6.15625 5.496094 5.917969 5.894531 5.757812 C 5.894531 5.730469 5.890625 5.707031 5.890625 5.683594 C 5.890625 5.019531 6.429688 4.484375 7.089844 4.484375 C 7.75 4.484375 8.285156 5.019531 8.285156 5.683594 C 8.285156 5.707031 8.285156 5.734375 8.28125 5.757812 C 8.683594 5.917969 9.046875 6.15625 9.351562 6.460938 C 9.4375 6.210938 9.484375 5.949219 9.484375 5.683594 C 9.484375 4.359375 8.410156 3.289062 7.089844 3.289062 Z M 7.089844 3.289062 "/>
<path style=" stroke:none;fill-rule:nonzero;fill:rgb(64.705882%,91.372549%,54.901961%);fill-opacity:1;" d="M 7.886719 5.683594 C 7.886719 6.125 7.53125 6.480469 7.089844 6.480469 C 6.648438 6.480469 6.292969 6.125 6.292969 5.683594 C 6.292969 5.242188 6.648438 4.882812 7.089844 4.882812 C 7.53125 4.882812 7.886719 5.242188 7.886719 5.683594 Z M 7.886719 5.683594 "/>
<path style=" stroke:none;fill-rule:nonzero;fill:rgb(92.156863%,58.431373%,58.431373%);fill-opacity:1;" d="M 5.890625 8.875 C 5.890625 9.316406 5.535156 9.671875 5.09375 9.671875 C 4.652344 9.671875 4.296875 9.316406 4.296875 8.875 C 4.296875 8.433594 4.652344 8.078125 5.09375 8.078125 C 5.535156 8.078125 5.890625 8.433594 5.890625 8.875 Z M 5.890625 8.875 "/>
<path style=" stroke:none;fill-rule:nonzero;fill:rgb(88.235294%,38.431373%,38.431373%);fill-opacity:1;" d="M 13.300781 9.699219 C 13.300781 11.355469 11.957031 12.699219 10.300781 12.699219 C 8.644531 12.699219 7.300781 11.355469 7.300781 9.699219 C 7.300781 8.042969 8.644531 6.699219 10.300781 6.699219 C 11.957031 6.699219 13.300781 8.042969 13.300781 9.699219 Z M 13.300781 9.699219 "/>
<path style=" stroke:none;fill-rule:nonzero;fill:rgb(100%,100%,100%);fill-opacity:1;" d="M 10.300781 8.199219 C 9.472656 8.199219 8.800781 8.871094 8.800781 9.699219 C 8.800781 10.527344 9.472656 11.199219 10.300781 11.199219 C 10.980469 11.199219 11.558594 10.75 11.742188 10.125 L 11.277344 10.125 C 11.113281 10.503906 10.738281 10.769531 10.300781 10.769531 C 9.710938 10.769531 9.230469 10.289062 9.230469 9.699219 C 9.230469 9.109375 9.710938 8.625 10.300781 8.625 C 10.597656 8.625 10.859375 8.75 11.054688 8.945312 L 10.515625 9.484375 L 11.800781 9.484375 L 11.800781 8.199219 L 11.359375 8.640625 C 11.089844 8.367188 10.714844 8.199219 10.300781 8.199219 Z M 10.300781 8.199219 "/>
<path style=" stroke:none;fill-rule:nonzero;fill:rgb(41.176471%,85.882353%,24.313725%);fill-opacity:1;" d="M 13.289062 9.710938 C 13.289062 11.371094 11.945312 12.710938 10.289062 12.710938 C 8.632812 12.710938 7.289062 11.371094 7.289062 9.710938 C 7.289062 8.054688 8.632812 6.710938 10.289062 6.710938 C 11.945312 6.710938 13.289062 8.054688 13.289062 9.710938 Z M 13.289062 9.710938 "/>
<path style=" stroke:none;fill-rule:nonzero;fill:rgb(100%,100%,100%);fill-opacity:1;" d="M 8.417969 9.355469 L 9.210938 8.5625 L 11.066406 10.417969 L 10.273438 11.210938 Z M 8.417969 9.355469 "/>
<path style=" stroke:none;fill-rule:nonzero;fill:rgb(100%,100%,100%);fill-opacity:1;" d="M 10.273438 11.210938 L 9.476562 10.417969 L 11.863281 8.03125 L 12.660156 8.828125 Z M 10.273438 11.210938 "/>
</g>
</svg>
