<?xml version="1.0" encoding="UTF-8"?>
<svg xmlns="http://www.w3.org/2000/svg" xmlns:xlink="http://www.w3.org/1999/xlink" width="16pt" height="16pt" viewBox="0 0 16 16" version="1.1">
<g id="surface1">
<path style=" stroke:none;fill-rule:evenodd;fill:rgb(30.980392%,30.980392%,30.980392%);fill-opacity:1;" d="M 3.734375 0.949219 L 12.265625 0.949219 C 13.800781 0.949219 15.050781 2.199219 15.050781 3.734375 L 15.050781 12.265625 C 15.050781 13.800781 13.800781 15.050781 12.265625 15.050781 L 3.734375 15.050781 C 2.199219 15.050781 0.949219 13.800781 0.949219 12.265625 L 0.949219 3.734375 C 0.949219 2.199219 2.199219 0.949219 3.734375 0.949219 Z M 3.734375 0.949219 "/>
<path style=" stroke:none;fill-rule:nonzero;fill:rgb(24.705882%,67.45098%,82.352941%);fill-opacity:1;" d="M 10.976562 7.039062 L 10.949219 7.082031 C 11.015625 7.367188 11.046875 7.65625 11.050781 7.949219 C 11.046875 8.164062 11.03125 8.375 10.996094 8.585938 C 11.59375 8.796875 12 9.363281 12 10 C 12 10.828125 11.328125 11.5 10.5 11.5 C 10.128906 11.5 9.769531 11.359375 9.496094 11.109375 C 9.085938 11.429688 8.617188 11.667969 8.117188 11.804688 L 8.113281 11.8125 C 8.679688 12.558594 9.5625 13 10.5 13 C 12.15625 13 13.5 11.65625 13.5 10 C 13.5 8.527344 12.429688 7.273438 10.976562 7.039062 Z M 10.976562 7.039062 "/>
<path style=" stroke:none;fill-rule:nonzero;fill:rgb(88.235294%,38.431373%,38.431373%);fill-opacity:1;" d="M 5.007812 7.046875 C 3.5625 7.285156 2.5 8.535156 2.5 10 C 2.5 11.65625 3.84375 13 5.5 13 C 6.4375 13 7.320312 12.5625 7.886719 11.8125 C 7.378906 11.679688 6.902344 11.449219 6.484375 11.128906 C 6.210938 11.367188 5.859375 11.5 5.5 11.5 C 4.671875 11.5 4 10.828125 4 10 C 4 9.382812 4.378906 8.828125 4.953125 8.601562 C 4.917969 8.386719 4.902344 8.167969 4.902344 7.949219 C 4.902344 7.644531 4.9375 7.34375 5.007812 7.046875 Z M 5.007812 7.046875 "/>
<path style=" stroke:none;fill-rule:nonzero;fill:rgb(41.176471%,85.882353%,24.313725%);fill-opacity:1;" d="M 8 3 C 6.34375 3 5 4.34375 5 6 C 5 6.332031 5.058594 6.664062 5.167969 6.980469 C 5.550781 6.59375 6.003906 6.296875 6.503906 6.09375 C 6.5 6.0625 6.5 6.03125 6.5 6 C 6.5 5.171875 7.171875 4.5 8 4.5 C 8.828125 4.5 9.5 5.171875 9.5 6 C 9.5 6.03125 9.5 6.0625 9.496094 6.09375 C 9.996094 6.296875 10.449219 6.59375 10.832031 6.976562 C 10.941406 6.664062 11 6.332031 11 6 C 11 4.34375 9.65625 3 8 3 Z M 8 3 "/>
<path style=" stroke:none;fill-rule:nonzero;fill:rgb(64.705882%,91.372549%,54.901961%);fill-opacity:1;" d="M 9 6 C 9 6.550781 8.550781 7 8 7 C 7.449219 7 7 6.550781 7 6 C 7 5.449219 7.449219 5 8 5 C 8.550781 5 9 5.449219 9 6 Z M 9 6 "/>
<path style=" stroke:none;fill-rule:nonzero;fill:rgb(92.156863%,58.431373%,58.431373%);fill-opacity:1;" d="M 6.5 10 C 6.5 10.550781 6.050781 11 5.5 11 C 4.949219 11 4.5 10.550781 4.5 10 C 4.5 9.449219 4.949219 9 5.5 9 C 6.050781 9 6.5 9.449219 6.5 10 Z M 6.5 10 "/>
<path style=" stroke:none;fill-rule:nonzero;fill:rgb(54.901961%,80.392157%,89.411765%);fill-opacity:1;" d="M 11.5 10 C 11.5 10.550781 11.050781 11 10.5 11 C 9.949219 11 9.5 10.550781 9.5 10 C 9.5 9.449219 9.949219 9 10.5 9 C 11.050781 9 11.5 9.449219 11.5 10 Z M 11.5 10 "/>
</g>
</svg>
