<?xml version="1.0" encoding="UTF-8"?>
<svg xmlns="http://www.w3.org/2000/svg" xmlns:xlink="http://www.w3.org/1999/xlink" width="16pt" height="16pt" viewBox="0 0 16 16" version="1.1">
<g id="surface1">
<path style=" stroke:none;fill-rule:evenodd;fill:rgb(30.980392%,30.980392%,30.980392%);fill-opacity:1;" d="M 3.734375 0.949219 L 12.265625 0.949219 C 13.800781 0.949219 15.050781 2.199219 15.050781 3.734375 L 15.050781 12.265625 C 15.050781 13.800781 13.800781 15.050781 12.265625 15.050781 L 3.734375 15.050781 C 2.199219 15.050781 0.949219 13.800781 0.949219 12.265625 L 0.949219 3.734375 C 0.949219 2.199219 2.199219 0.949219 3.734375 0.949219 Z M 3.734375 0.949219 "/>
<path style=" stroke:none;fill-rule:nonzero;fill:rgb(88.235294%,38.431373%,38.431373%);fill-opacity:1;" d="M 4.613281 6.4375 C 3.460938 6.632812 2.613281 7.628906 2.609375 8.796875 C 2.609375 10.121094 3.683594 11.191406 5.007812 11.191406 C 5.753906 11.191406 6.460938 10.84375 6.910156 10.246094 C 6.503906 10.140625 6.125 9.953125 5.792969 9.699219 C 5.574219 9.890625 5.296875 9.996094 5.007812 9.996094 C 4.34375 9.996094 3.808594 9.460938 3.808594 8.796875 C 3.808594 8.304688 4.109375 7.859375 4.570312 7.683594 C 4.542969 7.511719 4.527344 7.335938 4.527344 7.160156 C 4.53125 6.917969 4.558594 6.675781 4.613281 6.4375 Z M 4.613281 6.4375 "/>
<path style=" stroke:none;fill-rule:nonzero;fill:rgb(41.176471%,85.882353%,24.313725%);fill-opacity:1;" d="M 7 3.210938 C 5.679688 3.210938 4.609375 4.28125 4.609375 5.605469 C 4.609375 5.871094 4.65625 6.136719 4.742188 6.386719 C 5.046875 6.082031 5.410156 5.839844 5.808594 5.679688 C 5.808594 5.65625 5.804688 5.628906 5.804688 5.605469 C 5.804688 4.945312 6.339844 4.40625 7 4.40625 C 7.664062 4.40625 8.199219 4.945312 8.199219 5.605469 C 8.199219 5.628906 8.199219 5.65625 8.195312 5.679688 C 8.59375 5.839844 8.957031 6.082031 9.261719 6.386719 C 9.351562 6.136719 9.394531 5.871094 9.398438 5.605469 C 9.398438 4.28125 8.324219 3.210938 7 3.210938 Z M 7 3.210938 "/>
<path style=" stroke:none;fill-rule:nonzero;fill:rgb(64.705882%,91.372549%,54.901961%);fill-opacity:1;" d="M 7.800781 5.605469 C 7.800781 6.046875 7.441406 6.402344 7 6.402344 C 6.5625 6.402344 6.203125 6.046875 6.203125 5.605469 C 6.203125 5.164062 6.5625 4.808594 7 4.808594 C 7.441406 4.808594 7.800781 5.164062 7.800781 5.605469 Z M 7.800781 5.605469 "/>
<path style=" stroke:none;fill-rule:nonzero;fill:rgb(92.156863%,58.431373%,58.431373%);fill-opacity:1;" d="M 5.804688 8.796875 C 5.804688 9.238281 5.449219 9.597656 5.007812 9.597656 C 4.566406 9.597656 4.207031 9.238281 4.207031 8.796875 C 4.207031 8.359375 4.566406 8 5.007812 8 C 5.449219 8 5.804688 8.359375 5.804688 8.796875 Z M 5.804688 8.796875 "/>
<path style=" stroke:none;fill-rule:nonzero;fill:rgb(24.705882%,67.45098%,82.352941%);fill-opacity:1;" d="M 13.390625 9.597656 C 13.390625 11.359375 11.957031 12.789062 10.195312 12.789062 C 8.433594 12.789062 7 11.359375 7 9.597656 C 7 7.832031 8.433594 6.402344 10.195312 6.402344 C 11.957031 6.402344 13.390625 7.832031 13.390625 9.597656 Z M 13.390625 9.597656 "/>
<path style=" stroke:none;fill-rule:nonzero;fill:rgb(100%,100%,100%);fill-opacity:1;" d="M 11.792969 8.796875 C 11.792969 9.679688 11.078125 10.394531 10.195312 10.394531 C 9.3125 10.394531 8.597656 9.679688 8.597656 8.796875 C 8.597656 7.917969 9.3125 7.203125 10.195312 7.203125 C 11.078125 7.203125 11.792969 7.917969 11.792969 8.796875 Z M 11.792969 8.796875 "/>
<path style=" stroke:none;fill-rule:nonzero;fill:rgb(100%,100%,100%);fill-opacity:1;" d="M 9.398438 9.199219 L 10.992188 9.199219 L 10.992188 10.792969 L 9.398438 10.792969 Z M 9.398438 9.199219 "/>
<path style=" stroke:none;fill-rule:nonzero;fill:rgb(100%,100%,100%);fill-opacity:1;" d="M 9.398438 11.191406 L 10.992188 11.191406 L 10.992188 11.59375 L 9.398438 11.59375 Z M 9.398438 11.191406 "/>
</g>
</svg>
