<?xml version="1.0" encoding="UTF-8"?>
<svg xmlns="http://www.w3.org/2000/svg" xmlns:xlink="http://www.w3.org/1999/xlink" width="16pt" height="16pt" viewBox="0 0 16 16" version="1.1">
<g id="surface1">
<path style=" stroke:none;fill-rule:evenodd;fill:rgb(51.372549%,26.27451%,40%);fill-opacity:1;" d="M 3.734375 0.949219 L 12.265625 0.949219 C 13.800781 0.949219 15.050781 2.199219 15.050781 3.734375 L 15.050781 12.265625 C 15.050781 13.800781 13.800781 15.050781 12.265625 15.050781 L 3.734375 15.050781 C 2.199219 15.050781 0.949219 13.800781 0.949219 12.265625 L 0.949219 3.734375 C 0.949219 2.199219 2.199219 0.949219 3.734375 0.949219 Z M 3.734375 0.949219 "/>
<path style=" stroke:none;fill-rule:evenodd;fill:rgb(51.372549%,26.27451%,40%);fill-opacity:1;" d="M 3.738281 0.949219 C 2.191406 0.949219 0.949219 2.191406 0.949219 3.734375 L 0.949219 6.40625 C 1.058594 6.507812 1.171875 6.59375 1.269531 6.738281 C 1.425781 6.96875 1.582031 7.238281 1.78125 7.5 C 2.035156 7.816406 2.359375 7.984375 2.632812 8.191406 C 2.765625 8.296875 2.890625 8.414062 2.984375 8.5625 C 3.078125 8.714844 3.140625 8.902344 3.160156 9.152344 C 3.191406 9.617188 3.265625 10.046875 3.429688 10.386719 C 3.476562 10.480469 3.546875 10.546875 3.609375 10.628906 L 15.050781 10.628906 L 15.050781 3.734375 C 15.050781 2.191406 13.808594 0.949219 12.265625 0.949219 Z M 3.738281 0.949219 "/>
<path style=" stroke:none;fill-rule:nonzero;fill:rgb(100%,52.941176%,63.921569%);fill-opacity:1;" d="M 10.71875 9.761719 C 10.71875 12.109375 8.8125 14.011719 6.46875 14.011719 C 4.121094 14.011719 2.21875 12.109375 2.21875 9.761719 C 2.21875 7.414062 4.121094 5.511719 6.46875 5.511719 C 8.8125 5.511719 10.71875 7.414062 10.71875 9.761719 Z M 10.71875 9.761719 "/>
<path style=" stroke:none;fill-rule:evenodd;fill:rgb(85.882353%,29.411765%,45.098039%);fill-opacity:1;" d="M 15.050781 10.628906 L 3.609375 10.628906 C 3.65625 10.691406 3.691406 10.765625 3.75 10.816406 C 3.886719 10.9375 4.050781 11.023438 4.253906 11.074219 C 4.730469 11.199219 5.253906 11.507812 5.742188 11.941406 C 6.230469 12.375 6.679688 12.929688 7 13.546875 C 7.203125 13.9375 7.496094 14.195312 7.828125 14.363281 C 8.164062 14.53125 8.542969 14.605469 8.917969 14.632812 C 9.675781 14.6875 10.433594 14.550781 10.847656 14.550781 C 12.328125 14.550781 13.015625 14.578125 13.757812 14.613281 C 14.40625 14.234375 15.050781 13.382812 15.050781 12.261719 Z M 15.050781 10.628906 "/>
<path style=" stroke:none;fill-rule:evenodd;fill:rgb(22.745098%,18.039216%,19.215686%);fill-opacity:1;" d="M 13.757812 14.613281 C 13.015625 14.578125 12.328125 14.550781 10.847656 14.550781 C 10.433594 14.550781 9.675781 14.6875 8.917969 14.632812 C 8.542969 14.605469 8.164062 14.53125 7.828125 14.363281 C 7.496094 14.195312 7.203125 13.9375 7 13.546875 C 6.679688 12.929688 6.230469 12.375 5.742188 11.941406 C 5.253906 11.507812 4.730469 11.199219 4.253906 11.074219 C 4.050781 11.023438 3.886719 10.9375 3.75 10.816406 C 3.617188 10.703125 3.511719 10.554688 3.429688 10.386719 C 3.265625 10.046875 3.191406 9.617188 3.160156 9.152344 C 3.140625 8.902344 3.078125 8.714844 2.984375 8.5625 C 2.890625 8.414062 2.765625 8.296875 2.632812 8.191406 C 2.359375 7.984375 2.035156 7.816406 1.78125 7.5 C 1.582031 7.238281 1.425781 6.96875 1.269531 6.738281 C 1.171875 6.59375 1.058594 6.507812 0.949219 6.40625 L 0.949219 12.261719 C 0.949219 13.808594 2.191406 15.050781 3.738281 15.050781 L 12.265625 15.050781 C 12.796875 15.050781 13.421875 14.859375 13.757812 14.613281 Z M 13.757812 14.613281 "/>
</g>
</svg>
