<?xml version="1.0" encoding="UTF-8"?>
<svg xmlns="http://www.w3.org/2000/svg" xmlns:xlink="http://www.w3.org/1999/xlink" width="16pt" height="16pt" viewBox="0 0 16 16" version="1.1">
<g id="surface1">
<path style=" stroke:none;fill-rule:evenodd;fill:rgb(37.254902%,48.627451%,54.117647%);fill-opacity:1;" d="M 3.734375 0.949219 L 12.265625 0.949219 C 13.800781 0.949219 15.050781 2.199219 15.050781 3.734375 L 15.050781 12.265625 C 15.050781 13.800781 13.800781 15.050781 12.265625 15.050781 L 3.734375 15.050781 C 2.199219 15.050781 0.949219 13.800781 0.949219 12.265625 L 0.949219 3.734375 C 0.949219 2.199219 2.199219 0.949219 3.734375 0.949219 Z M 3.734375 0.949219 "/>
<path style=" stroke:none;fill-rule:nonzero;fill:rgb(100%,100%,100%);fill-opacity:1;" d="M 7.023438 3.378906 C 6.921875 3.390625 6.832031 3.472656 6.8125 3.574219 L 6.613281 4.59375 C 6.25 4.738281 5.914062 4.933594 5.613281 5.171875 L 4.625 4.835938 C 4.519531 4.796875 4.394531 4.84375 4.339844 4.9375 L 3.386719 6.59375 C 3.332031 6.6875 3.355469 6.820312 3.4375 6.890625 L 4.226562 7.585938 C 4.199219 7.769531 4.183594 7.957031 4.183594 8.152344 C 4.183594 8.34375 4.199219 8.53125 4.226562 8.71875 L 3.4375 9.410156 C 3.355469 9.484375 3.332031 9.613281 3.386719 9.710938 L 4.339844 11.363281 C 4.394531 11.457031 4.519531 11.503906 4.625 11.46875 L 5.613281 11.132812 C 5.914062 11.371094 6.25 11.566406 6.613281 11.707031 L 6.8125 12.730469 C 6.835938 12.835938 6.9375 12.921875 7.046875 12.921875 L 8.953125 12.921875 C 9.0625 12.921875 9.164062 12.835938 9.1875 12.730469 L 9.386719 11.707031 C 9.75 11.566406 10.085938 11.371094 10.386719 11.132812 L 11.375 11.46875 C 11.480469 11.503906 11.605469 11.457031 11.660156 11.363281 L 12.613281 9.710938 C 12.667969 9.613281 12.644531 9.484375 12.5625 9.410156 L 11.773438 8.71875 C 11.800781 8.53125 11.816406 8.34375 11.816406 8.152344 C 11.816406 7.957031 11.800781 7.769531 11.773438 7.585938 L 12.5625 6.890625 C 12.644531 6.820312 12.667969 6.6875 12.613281 6.59375 L 11.660156 4.9375 C 11.605469 4.84375 11.480469 4.796875 11.375 4.835938 L 10.386719 5.171875 C 10.085938 4.929688 9.75 4.738281 9.386719 4.59375 L 9.1875 3.574219 C 9.164062 3.46875 9.0625 3.382812 8.953125 3.378906 L 7.046875 3.378906 C 7.039062 3.378906 7.03125 3.378906 7.023438 3.378906 Z M 7.023438 3.378906 "/>
<path style=" stroke:none;fill-rule:nonzero;fill:rgb(37.254902%,48.627451%,54.117647%);fill-opacity:1;" d="M 8 6.109375 C 9.128906 6.109375 10.046875 7.023438 10.046875 8.152344 C 10.046875 9.28125 9.128906 10.195312 8 10.195312 C 6.871094 10.195312 5.953125 9.28125 5.953125 8.152344 C 5.953125 7.023438 6.871094 6.109375 8 6.109375 Z M 8 6.109375 "/>
<path style=" stroke:none;fill-rule:evenodd;fill:rgb(3.921569%,72.156863%,51.764706%);fill-opacity:1;" d="M 12.261719 11.703125 C 12.261719 12.808594 11.363281 13.703125 10.261719 13.703125 C 9.15625 13.703125 8.261719 12.808594 8.261719 11.703125 C 8.261719 10.597656 9.15625 9.703125 10.261719 9.703125 C 11.363281 9.703125 12.261719 10.597656 12.261719 11.703125 Z M 12.261719 11.703125 "/>
<path style=" stroke:none;fill-rule:nonzero;fill:rgb(100%,100%,100%);fill-opacity:1;" d="M 9.261719 12.257812 L 9.261719 12.703125 L 9.707031 12.703125 L 10.832031 11.578125 L 10.386719 11.132812 Z M 11.226562 11.1875 C 11.273438 11.140625 11.273438 11.0625 11.226562 11.015625 L 10.945312 10.738281 C 10.898438 10.691406 10.824219 10.691406 10.777344 10.738281 L 10.546875 10.972656 L 10.992188 11.417969 Z M 11.226562 11.1875 "/>
</g>
</svg>
