<?xml version="1.0" encoding="UTF-8"?>
<svg xmlns="http://www.w3.org/2000/svg" xmlns:xlink="http://www.w3.org/1999/xlink" width="16pt" height="16pt" viewBox="0 0 16 16" version="1.1">
<g id="surface1">
<path style=" stroke:none;fill-rule:evenodd;fill:rgb(80%,80%,80%);fill-opacity:1;" d="M 3.734375 0.949219 L 12.265625 0.949219 C 13.800781 0.949219 15.050781 2.199219 15.050781 3.734375 L 15.050781 12.265625 C 15.050781 13.800781 13.800781 15.050781 12.265625 15.050781 L 3.734375 15.050781 C 2.199219 15.050781 0.949219 13.800781 0.949219 12.265625 L 0.949219 3.734375 C 0.949219 2.199219 2.199219 0.949219 3.734375 0.949219 Z M 3.734375 0.949219 "/>
<path style=" stroke:none;fill-rule:nonzero;fill:rgb(97.647059%,32.941176%,56.078431%);fill-opacity:1;" d="M 7.210938 8.511719 C 7.152344 8.445312 7.117188 8.367188 7.078125 8.289062 C 7.117188 8.425781 7.191406 8.546875 7.265625 8.664062 L 7.210938 8.511719 M 7.210938 8.511719 C 7.152344 8.449219 7.117188 8.367188 7.078125 8.289062 C 7.117188 8.429688 7.195312 8.546875 7.265625 8.667969 L 7.210938 8.511719 M 10.878906 7.316406 C 10.886719 7.574219 10.804688 7.695312 10.730469 7.917969 L 10.59375 7.984375 C 10.484375 8.203125 10.605469 8.125 10.527344 8.296875 C 10.355469 8.453125 10.003906 8.785156 9.894531 8.8125 C 9.8125 8.8125 9.949219 8.714844 9.96875 8.679688 C 9.734375 8.839844 9.78125 8.921875 9.429688 9.015625 L 9.421875 8.996094 C 8.550781 9.410156 7.34375 8.585938 7.359375 7.460938 C 7.351562 7.53125 7.332031 7.515625 7.3125 7.542969 C 7.269531 6.964844 7.578125 6.386719 8.09375 6.148438 C 8.601562 5.890625 9.195312 5.996094 9.558594 6.34375 C 9.359375 6.074219 8.964844 5.792969 8.492188 5.820312 C 8.03125 5.828125 7.601562 6.125 7.457031 6.449219 C 7.21875 6.601562 7.191406 7.03125 7.089844 7.109375 C 6.953125 8.148438 7.351562 8.59375 8.027344 9.121094 C 8.132812 9.191406 8.054688 9.203125 8.070312 9.261719 C 7.84375 9.152344 7.640625 8.992188 7.472656 8.796875 C 7.5625 8.925781 7.65625 9.058594 7.78125 9.160156 C 7.570312 9.085938 7.289062 8.636719 7.207031 8.621094 C 7.570312 9.28125 8.6875 9.785156 9.269531 9.535156 C 9 9.546875 8.65625 9.542969 8.351562 9.425781 C 8.222656 9.359375 8.050781 9.222656 8.082031 9.195312 C 8.878906 9.5 9.703125 9.425781 10.390625 8.863281 C 10.5625 8.726562 10.757812 8.488281 10.8125 8.484375 C 10.730469 8.613281 10.828125 8.546875 10.761719 8.660156 C 10.9375 8.375 10.6875 8.542969 10.941406 8.164062 L 11.035156 8.296875 C 11 8.058594 11.328125 7.769531 11.292969 7.394531 C 11.371094 7.28125 11.375 7.515625 11.296875 7.78125 C 11.40625 7.488281 11.328125 7.441406 11.355469 7.199219 C 11.386719 7.28125 11.425781 7.367188 11.445312 7.453125 C 11.375 7.171875 11.519531 6.976562 11.554688 6.8125 C 11.519531 6.796875 11.445312 6.9375 11.429688 6.601562 C 11.429688 6.453125 11.46875 6.523438 11.484375 6.488281 C 11.453125 6.472656 11.378906 6.359375 11.335938 6.144531 C 11.367188 6.09375 11.421875 6.277344 11.46875 6.285156 C 11.4375 6.113281 11.390625 5.984375 11.386719 5.855469 C 11.257812 5.578125 11.34375 5.890625 11.238281 5.734375 C 11.097656 5.296875 11.351562 5.636719 11.367188 5.4375 C 11.578125 5.742188 11.695312 6.21875 11.75 6.417969 C 11.707031 6.175781 11.640625 5.941406 11.558594 5.71875 C 11.621094 5.746094 11.457031 5.222656 11.640625 5.570312 C 11.441406 4.832031 10.796875 4.144531 10.203125 3.820312 C 10.277344 3.890625 10.371094 3.972656 10.335938 3.984375 C 10.039062 3.808594 10.09375 3.792969 10.050781 3.71875 C 9.808594 3.617188 9.792969 3.726562 9.636719 3.71875 C 9.179688 3.472656 9.09375 3.5 8.675781 3.34375 L 8.695312 3.4375 C 8.394531 3.335938 8.34375 3.476562 8.019531 3.4375 C 8 3.421875 8.125 3.378906 8.226562 3.363281 C 7.9375 3.40625 7.949219 3.308594 7.667969 3.375 C 7.734375 3.328125 7.8125 3.292969 7.886719 3.25 C 7.648438 3.265625 7.320312 3.390625 7.421875 3.277344 C 7.035156 3.453125 6.347656 3.699219 5.964844 4.0625 L 5.953125 3.984375 C 5.773438 4.199219 5.183594 4.625 5.136719 4.90625 L 5.089844 4.917969 C 4.996094 5.074219 4.9375 5.253906 4.863281 5.417969 C 4.742188 5.625 4.6875 5.496094 4.703125 5.53125 C 4.46875 6.015625 4.351562 6.425781 4.25 6.761719 C 4.324219 6.871094 4.25 7.421875 4.28125 7.863281 C 4.160156 10.046875 5.78125 12.160156 7.554688 12.648438 C 7.8125 12.746094 8.203125 12.742188 8.53125 12.75 C 8.140625 12.636719 8.09375 12.691406 7.714844 12.554688 C 7.441406 12.425781 7.382812 12.277344 7.1875 12.105469 L 7.265625 12.242188 C 6.886719 12.109375 7.046875 12.074219 6.738281 11.976562 L 6.820312 11.867188 C 6.695312 11.859375 6.496094 11.65625 6.4375 11.546875 L 6.304688 11.550781 C 6.144531 11.347656 6.058594 11.203125 6.0625 11.089844 L 6.019531 11.167969 C 5.96875 11.082031 5.425781 10.40625 5.710938 10.566406 C 5.65625 10.515625 5.585938 10.484375 5.511719 10.34375 L 5.570312 10.28125 C 5.433594 10.101562 5.320312 9.875 5.328125 9.796875 C 5.402344 9.898438 5.453125 9.914062 5.5 9.933594 C 5.15625 9.066406 5.136719 9.886719 4.878906 9.050781 L 4.933594 9.046875 C 4.890625 8.980469 4.863281 8.910156 4.832031 8.84375 L 4.855469 8.601562 C 4.609375 8.308594 4.785156 7.363281 4.824219 6.847656 C 4.847656 6.636719 5.027344 6.410156 5.167969 6.058594 L 5.082031 6.046875 C 5.242188 5.757812 6 4.898438 6.351562 4.941406 C 6.519531 4.726562 6.316406 4.941406 6.28125 4.886719 C 6.65625 4.496094 6.773438 4.609375 7.027344 4.539062 C 7.296875 4.375 6.792969 4.605469 6.921875 4.476562 C 7.390625 4.355469 7.253906 4.199219 7.867188 4.136719 C 7.929688 4.175781 7.71875 4.195312 7.664062 4.242188 C 8.054688 4.046875 8.898438 4.09375 9.449219 4.351562 C 10.089844 4.65625 10.804688 5.550781 10.832031 6.394531 L 10.863281 6.40625 C 10.847656 6.738281 10.914062 7.128906 10.800781 7.484375 L 10.878906 7.316406 "/>
</g>
</svg>
