<?xml version="1.0" encoding="UTF-8"?>
<svg xmlns="http://www.w3.org/2000/svg" xmlns:xlink="http://www.w3.org/1999/xlink" width="16pt" height="16pt" viewBox="0 0 16 16" version="1.1">
<g id="surface1">
<path style=" stroke:none;fill-rule:evenodd;fill:rgb(60.784314%,80%,43.137255%);fill-opacity:1;" d="M 3.734375 0.949219 L 12.265625 0.949219 C 13.800781 0.949219 15.050781 2.199219 15.050781 3.734375 L 15.050781 12.265625 C 15.050781 13.800781 13.800781 15.050781 12.265625 15.050781 L 3.734375 15.050781 C 2.199219 15.050781 0.949219 13.800781 0.949219 12.265625 L 0.949219 3.734375 C 0.949219 2.199219 2.199219 0.949219 3.734375 0.949219 Z M 3.734375 0.949219 "/>
<path style=" stroke:none;fill-rule:nonzero;fill:rgb(100%,100%,100%);fill-opacity:1;" d="M 10.546875 3.636719 C 11.242188 3.640625 11.90625 3.921875 12.386719 4.421875 C 12.398438 4.4375 12.410156 4.445312 12.421875 4.457031 C 12.6875 4.722656 12.84375 4.976562 12.910156 5.226562 C 13.03125 5.527344 13.09375 5.847656 13.097656 6.171875 C 13.097656 7.582031 11.957031 8.722656 10.546875 8.722656 C 10.199219 8.722656 9.855469 8.648438 9.53125 8.507812 C 9.507812 8.5 9.480469 8.484375 9.453125 8.472656 C 9.421875 8.457031 9.386719 8.441406 9.355469 8.421875 C 9.34375 8.417969 9.328125 8.414062 9.3125 8.40625 C 6.730469 11.902344 2.902344 12.375 2.902344 12.375 L 8.140625 7.023438 C 8.085938 6.890625 8.054688 6.765625 8.046875 6.648438 C 8.015625 6.492188 8 6.335938 8 6.175781 C 8 4.765625 9.140625 3.625 10.546875 3.625 Z M 10.546875 3.636719 "/>
<path style=" stroke:none;fill-rule:nonzero;fill:rgb(28.235294%,53.72549%,29.019608%);fill-opacity:1;" d="M 5.453125 3.636719 C 4.757812 3.640625 4.09375 3.921875 3.613281 4.421875 C 3.601562 4.4375 3.589844 4.445312 3.578125 4.457031 C 3.3125 4.722656 3.15625 4.976562 3.089844 5.226562 C 2.96875 5.527344 2.90625 5.847656 2.902344 6.171875 C 2.902344 7.582031 4.042969 8.722656 5.453125 8.722656 C 5.800781 8.722656 6.144531 8.648438 6.46875 8.507812 C 6.492188 8.5 6.519531 8.484375 6.546875 8.472656 C 6.578125 8.457031 6.613281 8.441406 6.644531 8.421875 C 6.65625 8.417969 6.671875 8.414062 6.6875 8.40625 C 9.269531 11.902344 13.097656 12.375 13.097656 12.375 L 7.859375 7.023438 C 7.914062 6.890625 7.945312 6.765625 7.953125 6.648438 C 7.984375 6.492188 8 6.335938 8 6.175781 C 8 4.765625 6.859375 3.625 5.453125 3.625 Z M 5.453125 3.636719 "/>
<path style=" stroke:none;fill-rule:nonzero;fill:rgb(60.784314%,80%,43.137255%);fill-opacity:1;" d="M 6.542969 6.1875 C 6.542969 6.789062 6.054688 7.28125 5.453125 7.28125 C 4.847656 7.28125 4.359375 6.789062 4.359375 6.1875 C 4.359375 5.582031 4.847656 5.09375 5.453125 5.09375 C 6.054688 5.09375 6.542969 5.582031 6.542969 6.1875 Z M 6.542969 6.1875 "/>
<path style=" stroke:none;fill-rule:nonzero;fill:rgb(97.647059%,97.647059%,97.647059%);fill-opacity:1;" d="M 8.363281 8.371094 C 8.363281 8.574219 8.203125 8.734375 8 8.734375 C 7.796875 8.734375 7.636719 8.574219 7.636719 8.371094 C 7.636719 8.171875 7.796875 8.007812 8 8.007812 C 8.203125 8.007812 8.363281 8.171875 8.363281 8.371094 Z M 8.363281 8.371094 "/>
<path style=" stroke:none;fill-rule:nonzero;fill:rgb(60.784314%,80%,43.137255%);fill-opacity:1;" d="M 11.640625 6.1875 C 11.640625 6.789062 11.152344 7.28125 10.546875 7.28125 C 9.945312 7.28125 9.457031 6.789062 9.457031 6.1875 C 9.457031 5.582031 9.945312 5.09375 10.546875 5.09375 C 11.152344 5.09375 11.640625 5.582031 11.640625 6.1875 Z M 11.640625 6.1875 "/>
</g>
</svg>
