<?xml version="1.0" encoding="UTF-8"?>
<svg xmlns="http://www.w3.org/2000/svg" xmlns:xlink="http://www.w3.org/1999/xlink" width="16pt" height="16pt" viewBox="0 0 16 16" version="1.1">
<g id="surface1">
<path style=" stroke:none;fill-rule:evenodd;fill:rgb(92.54902%,92.54902%,92.54902%);fill-opacity:1;" d="M 3.734375 0.949219 L 12.265625 0.949219 C 13.800781 0.949219 15.050781 2.199219 15.050781 3.734375 L 15.050781 12.265625 C 15.050781 13.800781 13.800781 15.050781 12.265625 15.050781 L 3.734375 15.050781 C 2.199219 15.050781 0.949219 13.800781 0.949219 12.265625 L 0.949219 3.734375 C 0.949219 2.199219 2.199219 0.949219 3.734375 0.949219 Z M 3.734375 0.949219 "/>
<path style=" stroke:none;fill-rule:nonzero;fill:rgb(10.588235%,66.27451%,79.607843%);fill-opacity:1;" d="M 6.667969 12.183594 L 5.148438 7.238281 L 2.675781 7.621094 L 4.578125 6.097656 L 5.71875 6.480469 L 7.238281 10.28125 L 10.472656 8.378906 L 11.421875 8.570312 L 13.324219 12.183594 L 7.621094 11.613281 Z M 9.710938 7.621094 L 12.183594 3.816406 L 11.042969 8.191406 Z M 9.710938 7.621094 "/>
<path style=" stroke:none;fill-rule:nonzero;fill:rgb(90.196078%,34.901961%,0.784314%);fill-opacity:1;" d="M 7.429688 9.902344 L 6.859375 8.570312 L 8.378906 7.621094 L 9.140625 7.621094 L 10.09375 8.378906 Z M 7.429688 9.902344 "/>
</g>
</svg>
