<?xml version="1.0" encoding="UTF-8"?>
<svg xmlns="http://www.w3.org/2000/svg" xmlns:xlink="http://www.w3.org/1999/xlink" width="16pt" height="16pt" viewBox="0 0 16 16" version="1.1">
<g id="surface1">
<path style=" stroke:none;fill-rule:evenodd;fill:rgb(100%,100%,100%);fill-opacity:1;" d="M 8.050781 8.050781 C 7.457031 8.050781 6.894531 8.164062 6.371094 8.363281 C 5.84375 8.566406 5.355469 8.851562 4.902344 9.195312 C 4.449219 9.535156 4.03125 9.9375 3.644531 10.363281 C 3.265625 10.792969 2.917969 11.25 2.609375 11.707031 C 2.101562 12.460938 1.761719 13.15625 1.457031 13.78125 C 1.957031 14.53125 2.765625 15.050781 3.738281 15.050781 L 4.125 15.050781 C 4.226562 14.992188 4.359375 15.003906 4.449219 14.925781 C 4.78125 14.644531 5.078125 14.246094 5.398438 13.765625 C 5.71875 13.285156 6.0625 12.726562 6.484375 12.125 C 6.90625 11.527344 7.410156 10.886719 8.050781 10.246094 C 8.050781 10.246094 8.359375 9.851562 8.839844 9.472656 C 9.078125 9.28125 9.355469 9.097656 9.660156 8.96875 C 9.964844 8.84375 10.292969 8.769531 10.628906 8.804688 C 10.359375 8.625 9.925781 8.421875 9.457031 8.269531 C 8.984375 8.117188 8.476562 8.019531 8.050781 8.050781 Z M 8.050781 8.050781 "/>
<path style=" stroke:none;fill-rule:evenodd;fill:rgb(99.607843%,80.392157%,21.960784%);fill-opacity:1;" d="M 9.621094 8.34375 C 9.769531 8.398438 9.871094 8.460938 10.003906 8.519531 C 9.910156 8.476562 9.828125 8.402344 9.730469 8.363281 C 9.695312 8.351562 9.65625 8.359375 9.621094 8.34375 Z M 9.621094 8.34375 "/>
<path style=" stroke:none;fill-rule:evenodd;fill:rgb(30.980392%,30.980392%,30.980392%);fill-opacity:1;" d="M 11.976562 15.050781 C 11.875 14.992188 11.746094 15.003906 11.652344 14.925781 C 11.320312 14.644531 11.023438 14.246094 10.703125 13.765625 C 10.382812 13.285156 10.039062 12.726562 9.617188 12.125 C 9.195312 11.527344 8.691406 10.886719 8.050781 10.246094 C 7.410156 10.886719 6.90625 11.527344 6.484375 12.125 C 6.0625 12.726562 5.71875 13.285156 5.398438 13.765625 C 5.078125 14.246094 4.78125 14.644531 4.449219 14.925781 C 4.359375 15.003906 4.226562 14.992188 4.125 15.050781 Z M 11.976562 15.050781 "/>
<path style=" stroke:none;fill-rule:evenodd;fill:rgb(92.156863%,64.313725%,23.529412%);fill-opacity:1;" d="M 14.597656 13.699219 C 14.300781 13.085938 13.980469 12.433594 13.492188 11.707031 C 13.183594 11.25 12.839844 10.792969 12.457031 10.363281 C 12.074219 9.9375 11.65625 9.535156 11.199219 9.195312 C 10.996094 9.039062 10.757812 8.949219 10.535156 8.820312 C 10.234375 8.804688 9.9375 8.855469 9.660156 8.96875 C 9.355469 9.097656 9.078125 9.28125 8.839844 9.472656 C 8.359375 9.851562 8.050781 10.246094 8.050781 10.246094 C 8.691406 10.886719 9.195312 11.527344 9.617188 12.125 C 10.039062 12.726562 10.382812 13.285156 10.703125 13.765625 C 11.023438 14.246094 11.320312 14.644531 11.652344 14.925781 C 11.746094 15.003906 11.875 14.992188 11.976562 15.050781 L 12.265625 15.050781 C 13.269531 15.050781 14.109375 14.492188 14.597656 13.699219 Z M 14.597656 13.699219 "/>
<path style=" stroke:none;fill-rule:evenodd;fill:rgb(30.980392%,30.980392%,30.980392%);fill-opacity:1;" d="M 14.628906 2.347656 C 14.328125 2.96875 13.996094 3.648438 13.492188 4.390625 C 13.183594 4.847656 12.839844 5.308594 12.457031 5.734375 C 12.074219 6.164062 11.65625 6.566406 11.199219 6.90625 C 10.746094 7.25 10.253906 7.535156 9.730469 7.734375 C 9.203125 7.9375 8.644531 8.050781 8.050781 8.050781 C 8.476562 8.019531 8.984375 8.117188 9.457031 8.269531 C 9.523438 8.289062 9.554688 8.320312 9.621094 8.34375 C 9.65625 8.359375 9.695312 8.351562 9.730469 8.363281 C 9.828125 8.402344 9.910156 8.476562 10.003906 8.519531 C 10.222656 8.617188 10.484375 8.707031 10.628906 8.804688 C 10.597656 8.800781 10.566406 8.820312 10.535156 8.820312 C 10.757812 8.949219 10.996094 9.039062 11.199219 9.195312 C 11.65625 9.535156 12.074219 9.9375 12.457031 10.363281 C 12.839844 10.792969 13.183594 11.25 13.492188 11.707031 C 13.980469 12.433594 14.300781 13.085938 14.597656 13.699219 C 14.859375 13.273438 15.050781 12.800781 15.050781 12.265625 L 15.050781 3.738281 C 15.050781 3.21875 14.875 2.761719 14.628906 2.347656 Z M 14.628906 2.347656 "/>
<path style=" stroke:none;fill-rule:evenodd;fill:rgb(30.980392%,30.980392%,30.980392%);fill-opacity:1;" d="M 8.050781 5.855469 C 8.691406 5.21875 9.195312 4.578125 9.617188 3.976562 C 10.039062 3.375 10.382812 2.816406 10.703125 2.335938 C 11.023438 1.855469 11.320312 1.453125 11.652344 1.175781 C 11.824219 1.03125 12.046875 1.023438 12.246094 0.949219 L 3.859375 0.949219 C 4.054688 1.023438 4.28125 1.03125 4.449219 1.175781 C 4.78125 1.453125 5.078125 1.855469 5.398438 2.335938 C 5.71875 2.816406 6.0625 3.375 6.484375 3.976562 C 6.90625 4.578125 7.410156 5.21875 8.050781 5.855469 Z M 8.050781 5.855469 "/>
<path style=" stroke:none;fill-rule:evenodd;fill:rgb(99.607843%,80.392157%,21.960784%);fill-opacity:1;" d="M 6.089844 7.578125 C 6.1875 7.621094 6.269531 7.699219 6.371094 7.734375 C 6.40625 7.75 6.449219 7.746094 6.484375 7.757812 C 6.328125 7.703125 6.226562 7.640625 6.089844 7.578125 Z M 6.089844 7.578125 "/>
<path style=" stroke:none;fill-rule:evenodd;fill:rgb(30.980392%,30.980392%,30.980392%);fill-opacity:1;" d="M 1.425781 2.265625 C 1.148438 2.699219 0.949219 3.183594 0.949219 3.738281 L 0.949219 12.265625 C 0.949219 12.835938 1.164062 13.339844 1.457031 13.78125 C 1.761719 13.15625 2.101562 12.460938 2.609375 11.707031 C 2.917969 11.25 3.265625 10.792969 3.644531 10.363281 C 4.03125 9.9375 4.449219 9.535156 4.902344 9.195312 C 5.355469 8.851562 5.84375 8.566406 6.371094 8.363281 C 6.894531 8.164062 7.457031 8.050781 8.050781 8.050781 C 7.625 8.082031 7.117188 7.984375 6.644531 7.832031 C 6.578125 7.8125 6.546875 7.78125 6.484375 7.757812 C 6.449219 7.746094 6.40625 7.75 6.371094 7.734375 C 6.269531 7.699219 6.1875 7.621094 6.089844 7.578125 C 5.875 7.480469 5.617188 7.390625 5.472656 7.296875 C 5.503906 7.300781 5.53125 7.28125 5.5625 7.28125 C 5.34375 7.152344 5.109375 7.0625 4.902344 6.90625 C 4.449219 6.566406 4.03125 6.164062 3.644531 5.734375 C 3.265625 5.308594 2.917969 4.847656 2.609375 4.390625 C 2.089844 3.621094 1.734375 2.902344 1.425781 2.265625 Z M 1.425781 2.265625 "/>
<path style=" stroke:none;fill-rule:evenodd;fill:rgb(33.72549%,54.901961%,74.901961%);fill-opacity:1;" d="M 1.425781 2.265625 C 1.734375 2.902344 2.089844 3.621094 2.609375 4.390625 C 2.917969 4.847656 3.265625 5.308594 3.644531 5.734375 C 4.03125 6.164062 4.449219 6.566406 4.902344 6.90625 C 5.109375 7.0625 5.34375 7.152344 5.5625 7.28125 C 5.867188 7.296875 6.164062 7.246094 6.441406 7.128906 C 6.746094 7 7.027344 6.816406 7.265625 6.628906 C 7.742188 6.25 8.050781 5.855469 8.050781 5.855469 C 7.410156 5.21875 6.90625 4.578125 6.484375 3.976562 C 6.0625 3.375 5.71875 2.816406 5.398438 2.335938 C 5.078125 1.855469 4.78125 1.453125 4.449219 1.175781 C 4.28125 1.03125 4.054688 1.023438 3.859375 0.949219 L 3.738281 0.949219 C 2.746094 0.949219 1.921875 1.492188 1.425781 2.265625 Z M 1.425781 2.265625 "/>
<path style=" stroke:none;fill-rule:evenodd;fill:rgb(100%,100%,100%);fill-opacity:1;" d="M 12.246094 0.949219 C 12.046875 1.023438 11.824219 1.03125 11.652344 1.175781 C 11.320312 1.453125 11.023438 1.855469 10.703125 2.335938 C 10.382812 2.816406 10.039062 3.375 9.617188 3.976562 C 9.195312 4.578125 8.691406 5.21875 8.050781 5.855469 C 8.050781 5.855469 7.742188 6.25 7.265625 6.628906 C 7.027344 6.816406 6.746094 7 6.441406 7.128906 C 6.136719 7.257812 5.808594 7.332031 5.472656 7.296875 C 5.746094 7.476562 6.175781 7.679688 6.644531 7.832031 C 7.117188 7.984375 7.625 8.082031 8.050781 8.050781 C 8.644531 8.050781 9.203125 7.9375 9.730469 7.734375 C 10.253906 7.535156 10.746094 7.25 11.199219 6.90625 C 11.65625 6.566406 12.074219 6.164062 12.457031 5.734375 C 12.839844 5.308594 13.183594 4.847656 13.492188 4.390625 C 13.996094 3.648438 14.328125 2.96875 14.628906 2.347656 C 14.148438 1.527344 13.292969 0.949219 12.265625 0.949219 Z M 12.246094 0.949219 "/>
</g>
</svg>
