<?xml version="1.0" encoding="UTF-8"?>
<svg xmlns="http://www.w3.org/2000/svg" xmlns:xlink="http://www.w3.org/1999/xlink" width="16pt" height="16pt" viewBox="0 0 16 16" version="1.1">
<g id="surface1">
<path style=" stroke:none;fill-rule:evenodd;fill:rgb(55.686275%,55.686275%,55.686275%);fill-opacity:1;" d="M 3.734375 0.949219 L 12.265625 0.949219 C 13.800781 0.949219 15.050781 2.199219 15.050781 3.734375 L 15.050781 12.265625 C 15.050781 13.800781 13.800781 15.050781 12.265625 15.050781 L 3.734375 15.050781 C 2.199219 15.050781 0.949219 13.800781 0.949219 12.265625 L 0.949219 3.734375 C 0.949219 2.199219 2.199219 0.949219 3.734375 0.949219 Z M 3.734375 0.949219 "/>
<path style=" stroke:none;fill-rule:nonzero;fill:rgb(27.843137%,27.843137%,27.843137%);fill-opacity:1;" d="M 4.457031 4.089844 L 11.542969 4.089844 C 12.46875 4.089844 13.222656 4.84375 13.222656 5.769531 L 13.222656 10.230469 C 13.222656 11.15625 12.46875 11.910156 11.542969 11.910156 L 4.457031 11.910156 C 3.53125 11.910156 2.777344 11.15625 2.777344 10.230469 L 2.777344 5.769531 C 2.777344 4.84375 3.53125 4.089844 4.457031 4.089844 Z M 4.457031 4.089844 "/>
<path style=" stroke:none;fill-rule:nonzero;fill:rgb(13.72549%,13.72549%,13.72549%);fill-opacity:1;" d="M 4.519531 4.585938 L 11.480469 4.585938 C 12.183594 4.585938 12.753906 5.132812 12.753906 5.808594 L 12.753906 10.191406 C 12.753906 10.867188 12.183594 11.414062 11.480469 11.414062 L 4.519531 11.414062 C 3.816406 11.414062 3.246094 10.867188 3.246094 10.191406 L 3.246094 5.808594 C 3.246094 5.132812 3.816406 4.585938 4.519531 4.585938 Z M 4.519531 4.585938 "/>
<path style=" stroke:none;fill-rule:nonzero;fill:rgb(55.686275%,55.686275%,55.686275%);fill-opacity:1;" d="M 8 6.0625 C 7.425781 6.0625 6.96875 6.566406 6.96875 7.1875 L 6.96875 7.613281 L 6.707031 7.613281 C 6.566406 7.613281 6.453125 7.847656 6.453125 8 L 6.453125 9.660156 C 6.453125 9.8125 6.566406 9.9375 6.710938 9.9375 L 9.292969 9.9375 C 9.433594 9.9375 9.546875 9.8125 9.546875 9.660156 L 9.546875 8 C 9.546875 7.847656 9.433594 7.613281 9.289062 7.613281 L 9.03125 7.613281 L 9.03125 7.1875 C 9.03125 6.566406 8.574219 6.0625 8 6.0625 Z M 8 6.839844 C 8.285156 6.839844 8.386719 6.863281 8.386719 7.171875 L 8.386719 7.613281 L 7.613281 7.613281 L 7.613281 7.171875 C 7.613281 6.863281 7.714844 6.839844 8 6.839844 Z M 8 6.839844 "/>
</g>
</svg>
