<?xml version="1.0" encoding="UTF-8"?>
<svg xmlns="http://www.w3.org/2000/svg" xmlns:xlink="http://www.w3.org/1999/xlink" width="16pt" height="16pt" viewBox="0 0 16 16" version="1.1">
<g id="surface1">
<path style=" stroke:none;fill-rule:evenodd;fill:rgb(89.019608%,74.901961%,12.54902%);fill-opacity:1;" d="M 15.050781 5.523438 L 10.078125 6.441406 L 15.03125 12.355469 C 15.03125 12.324219 15.050781 12.296875 15.050781 12.265625 Z M 15.050781 5.523438 "/>
<path style=" stroke:none;fill-rule:evenodd;fill:rgb(15.686275%,63.529412%,14.901961%);fill-opacity:1;" d="M 14.550781 13.753906 L 10.40625 9 L 8.117188 15.050781 L 12.265625 15.050781 C 13.246094 15.050781 14.058594 14.519531 14.550781 13.753906 Z M 14.550781 13.753906 "/>
<path style=" stroke:none;fill-rule:evenodd;fill:rgb(16.078431%,46.666667%,81.960784%);fill-opacity:1;" d="M 6.722656 15.050781 L 8.328125 10.554688 L 0.949219 11.777344 L 0.949219 12.265625 C 0.949219 13.808594 2.191406 15.050781 3.734375 15.050781 Z M 6.722656 15.050781 "/>
<path style=" stroke:none;fill-rule:evenodd;fill:rgb(75.294118%,16.078431%,75.294118%);fill-opacity:1;" d="M 0.949219 10.476562 L 5.921875 9.558594 L 0.96875 3.644531 C 0.96875 3.675781 0.949219 3.703125 0.949219 3.734375 Z M 0.949219 10.476562 "/>
<path style=" stroke:none;fill-rule:evenodd;fill:rgb(20.392157%,20.392157%,20.392157%);fill-opacity:1;" d="M 1.449219 2.246094 C 1.183594 2.65625 0.984375 3.117188 0.96875 3.644531 L 5.921875 9.558594 L 0.949219 10.476562 L 0.949219 11.777344 L 8.328125 10.554688 L 6.722656 15.050781 L 8.117188 15.050781 L 10.40625 9 L 14.550781 13.753906 C 14.816406 13.34375 15.015625 12.882812 15.03125 12.355469 L 10.078125 6.441406 L 15.050781 5.523438 L 15.050781 4.222656 L 7.671875 5.445312 L 9.273438 0.949219 L 7.882812 0.949219 L 5.59375 7 Z M 1.449219 2.246094 "/>
<path style=" stroke:none;fill-rule:evenodd;fill:rgb(75.294118%,9.019608%,15.686275%);fill-opacity:1;" d="M 1.449219 2.246094 L 5.59375 7 L 7.882812 0.949219 L 3.734375 0.949219 C 2.753906 0.949219 1.941406 1.480469 1.449219 2.246094 Z M 1.449219 2.246094 "/>
<path style=" stroke:none;fill-rule:evenodd;fill:rgb(91.372549%,44.705882%,10.196078%);fill-opacity:1;" d="M 9.273438 0.949219 L 7.671875 5.445312 L 15.050781 4.222656 L 15.050781 3.734375 C 15.050781 2.191406 13.808594 0.949219 12.265625 0.949219 Z M 9.273438 0.949219 "/>
</g>
</svg>
