<?xml version="1.0" encoding="UTF-8"?>
<svg xmlns="http://www.w3.org/2000/svg" xmlns:xlink="http://www.w3.org/1999/xlink" width="16pt" height="16pt" viewBox="0 0 16 16" version="1.1">
<g id="surface1">
<path style=" stroke:none;fill-rule:evenodd;fill:rgb(100%,100%,100%);fill-opacity:1;" d="M 3.734375 0.949219 L 12.265625 0.949219 C 13.800781 0.949219 15.050781 2.199219 15.050781 3.734375 L 15.050781 12.265625 C 15.050781 13.800781 13.800781 15.050781 12.265625 15.050781 L 3.734375 15.050781 C 2.199219 15.050781 0.949219 13.800781 0.949219 12.265625 L 0.949219 3.734375 C 0.949219 2.199219 2.199219 0.949219 3.734375 0.949219 Z M 3.734375 0.949219 "/>
<path style=" stroke:none;fill-rule:evenodd;fill:rgb(24.313725%,31.372549%,70.588235%);fill-opacity:1;" d="M 1.40625 2.292969 L 14.640625 13.636719 C 14.878906 13.226562 15.050781 12.773438 15.050781 12.265625 L 15.050781 3.738281 C 15.050781 2.191406 13.808594 0.949219 12.261719 0.949219 L 3.734375 0.949219 C 2.734375 0.949219 1.898438 1.503906 1.40625 2.292969 Z M 7.710938 3.734375 L 13.410156 3.734375 L 13.410156 8.621094 Z M 7.710938 3.734375 "/>
<path style=" stroke:none;fill-rule:evenodd;fill:rgb(0.784314%,65.882353%,95.294118%);fill-opacity:1;" d="M 14.640625 13.636719 L 1.40625 2.292969 C 1.140625 2.71875 0.949219 3.195312 0.949219 3.738281 L 0.949219 12.265625 C 0.949219 13.808594 2.191406 15.050781 3.734375 15.050781 L 12.261719 15.050781 C 13.296875 15.050781 14.160156 14.46875 14.640625 13.636719 Z M 2.589844 7.265625 L 8.289062 12.152344 L 2.589844 12.152344 Z M 2.589844 7.265625 "/>
</g>
</svg>
