<?xml version="1.0" encoding="UTF-8"?>
<svg xmlns="http://www.w3.org/2000/svg" xmlns:xlink="http://www.w3.org/1999/xlink" width="16pt" height="16pt" viewBox="0 0 16 16" version="1.1">
<g id="surface1">
<path style=" stroke:none;fill-rule:evenodd;fill:rgb(99.607843%,75.294118%,2.352941%);fill-opacity:1;" d="M 15.050781 9.613281 L 12.824219 9.613281 L 12.824219 10.78125 C 12.824219 11.140625 12.894531 11.484375 13.027344 11.796875 C 13.15625 12.109375 13.347656 12.390625 13.585938 12.625 C 13.820312 12.863281 14.101562 13.054688 14.414062 13.1875 C 14.546875 13.242188 14.703125 13.238281 14.847656 13.273438 C 14.96875 12.957031 15.050781 12.621094 15.050781 12.261719 Z M 15.050781 9.613281 "/>
<path style=" stroke:none;fill-rule:evenodd;fill:rgb(12.54902%,58.431373%,94.901961%);fill-opacity:1;" d="M 15.050781 6.113281 L 12.824219 6.113281 L 12.824219 9.613281 L 15.050781 9.613281 Z M 15.050781 6.113281 "/>
<path style=" stroke:none;fill-rule:evenodd;fill:rgb(29.411765%,68.235294%,30.980392%);fill-opacity:1;" d="M 14.96875 3.328125 C 14.78125 3.359375 14.582031 3.367188 14.414062 3.4375 C 14.101562 3.570312 13.820312 3.761719 13.585938 3.996094 C 13.347656 4.234375 13.15625 4.515625 13.027344 4.828125 C 12.894531 5.140625 12.824219 5.484375 12.824219 5.84375 L 12.824219 6.113281 L 15.050781 6.113281 L 15.050781 3.734375 C 15.050781 3.589844 14.988281 3.46875 14.96875 3.328125 Z M 14.96875 3.328125 "/>
<path style=" stroke:none;fill-rule:evenodd;fill:rgb(95.294118%,25.882353%,20.784314%);fill-opacity:1;" d="M 4.140625 0.949219 L 4.140625 15.050781 L 12.261719 15.050781 C 13.449219 15.050781 14.441406 14.3125 14.847656 13.273438 C 14.703125 13.238281 14.546875 13.242188 14.414062 13.1875 C 14.101562 13.054688 13.820312 12.863281 13.585938 12.625 C 13.347656 12.390625 13.15625 12.109375 13.027344 11.796875 C 12.894531 11.484375 12.824219 11.140625 12.824219 10.78125 L 12.824219 5.84375 C 12.824219 5.484375 12.894531 5.140625 13.027344 4.828125 C 13.15625 4.515625 13.347656 4.234375 13.585938 3.996094 C 13.820312 3.761719 14.101562 3.570312 14.414062 3.4375 C 14.582031 3.367188 14.78125 3.359375 14.96875 3.328125 C 14.765625 1.988281 13.660156 0.949219 12.261719 0.949219 Z M 4.140625 0.949219 "/>
<path style=" stroke:none;fill-rule:evenodd;fill:rgb(30.980392%,30.980392%,30.980392%);fill-opacity:1;" d="M 4.140625 15.050781 L 4.140625 0.949219 L 3.734375 0.949219 C 2.191406 0.949219 0.949219 2.191406 0.949219 3.734375 L 0.949219 12.261719 C 0.949219 13.808594 2.191406 15.050781 3.734375 15.050781 Z M 4.140625 15.050781 "/>
<path style=" stroke:none;fill-rule:nonzero;fill:rgb(97.647059%,97.647059%,97.647059%);fill-opacity:1;" d="M 5.941406 5.113281 L 5.941406 11.113281 L 7.71875 11.113281 C 10.832031 11.113281 10.941406 9.222656 10.941406 8.113281 C 10.941406 7 10.832031 5.058594 7.71875 5.113281 Z M 7.71875 6.449219 C 9.054688 6.449219 9.441406 6.78125 9.441406 8.113281 C 9.441406 9.445312 9.054688 9.78125 7.71875 9.78125 L 7.441406 9.78125 L 7.441406 6.449219 Z M 7.71875 6.449219 "/>
</g>
</svg>
