<?xml version="1.0" encoding="UTF-8"?>
<svg xmlns="http://www.w3.org/2000/svg" xmlns:xlink="http://www.w3.org/1999/xlink" width="16pt" height="16pt" viewBox="0 0 16 16" version="1.1">
<g id="surface1">
<path style=" stroke:none;fill-rule:evenodd;fill:rgb(20%,20%,20%);fill-opacity:1;" d="M 2.636719 1.175781 C 1.644531 1.601562 0.949219 2.582031 0.949219 3.734375 L 0.949219 12.261719 C 0.949219 13.386719 1.617188 14.339844 2.574219 14.78125 C 2.789062 14.59375 3 14.410156 3.191406 14.195312 C 3.414062 13.941406 3.609375 13.652344 3.765625 13.308594 C 4.042969 12.679688 4.132812 12.0625 4.15625 11.398438 C 4.175781 10.734375 4.125 10.015625 4.125 9.1875 L 4.125 2.957031 C 4.125 2.6875 4.109375 2.511719 4.050781 2.359375 C 3.992188 2.207031 3.886719 2.082031 3.703125 1.910156 C 3.375 1.652344 2.996094 1.414062 2.636719 1.175781 Z M 2.636719 1.175781 "/>
<path style=" stroke:none;fill-rule:evenodd;fill:rgb(91.372549%,49.411765%,6.27451%);fill-opacity:1;" d="M 2.636719 1.175781 C 2.996094 1.414062 3.375 1.652344 3.703125 1.910156 C 3.886719 2.082031 3.992188 2.207031 4.050781 2.359375 C 4.109375 2.511719 4.125 2.6875 4.125 2.957031 L 4.125 9.1875 C 4.125 10.015625 4.175781 10.734375 4.15625 11.398438 C 4.132812 12.0625 4.042969 12.679688 3.765625 13.308594 C 3.609375 13.652344 3.414062 13.941406 3.191406 14.195312 C 3 14.410156 2.789062 14.59375 2.574219 14.78125 C 2.929688 14.945312 3.316406 15.050781 3.738281 15.050781 L 12.265625 15.050781 C 13.808594 15.050781 15.050781 13.808594 15.050781 12.261719 L 15.050781 3.734375 C 15.050781 2.191406 13.808594 0.949219 12.265625 0.949219 L 3.738281 0.949219 C 3.34375 0.949219 2.972656 1.03125 2.636719 1.175781 Z M 2.636719 1.175781 "/>
<path style=" stroke:none;fill-rule:evenodd;fill:rgb(100%,100%,100%);fill-opacity:1;" d="M 7.25 3.464844 C 8.109375 3.46875 9.867188 3.488281 10.210938 3.65625 C 11.71875 4.503906 11.945312 5.519531 11.914062 6.964844 C 11.953125 8.273438 11.472656 9.6875 10.210938 10.355469 C 9.75 10.578125 6.855469 10.578125 6.855469 10.578125 L 6.777344 3.464844 C 6.777344 3.464844 6.964844 3.464844 7.25 3.464844 Z M 7.25 3.464844 "/>
<path style=" stroke:none;fill-rule:evenodd;fill:rgb(76.078431%,20.784314%,16.470588%);fill-opacity:1;" d="M 5.582031 7.03125 C 5.542969 7.046875 5.652344 7.3125 5.765625 7.472656 C 5.945312 7.722656 6.0625 7.867188 6.3125 8.09375 C 6.636719 8.390625 6.71875 8.4375 6.855469 8.578125 C 6.992188 8.714844 7.167969 8.972656 7.167969 8.972656 L 7.167969 12.984375 C 7.167969 13.257812 6.890625 13.433594 6.796875 13.46875 C 6.671875 13.511719 6.390625 13.601562 6.390625 13.601562 L 6.390625 13.742188 L 9.546875 13.742188 L 9.546875 13.605469 C 9.546875 13.605469 9.222656 13.511719 9.09375 13.46875 C 9.003906 13.433594 8.773438 13.257812 8.769531 12.984375 L 8.769531 8.90625 C 8.769531 8.609375 9.03125 8.535156 9.136719 8.492188 C 9.277344 8.429688 9.476562 8.421875 9.546875 8.285156 C 9.613281 8.144531 9.460938 8.214844 9.40625 8.214844 C 8.921875 8.21875 7.644531 8.214844 7.644531 8.214844 C 7.3125 8.214844 6.988281 8.171875 6.71875 8.027344 C 6.53125 7.921875 6.347656 7.789062 6.175781 7.613281 L 5.632812 7.0625 C 5.605469 7.035156 5.589844 7.027344 5.582031 7.03125 Z M 13.921875 7.03125 C 13.910156 7.027344 13.894531 7.035156 13.871094 7.0625 L 13.328125 7.613281 C 13.152344 7.789062 12.96875 7.921875 12.78125 8.027344 C 12.511719 8.171875 12.1875 8.214844 11.855469 8.214844 C 11.855469 8.214844 10.582031 8.21875 10.09375 8.214844 C 10.042969 8.214844 9.890625 8.144531 9.957031 8.285156 C 10.023438 8.421875 10.226562 8.429688 10.363281 8.492188 C 10.46875 8.535156 10.730469 8.609375 10.730469 8.90625 L 10.730469 12.984375 C 10.726562 13.257812 10.5 13.433594 10.40625 13.46875 C 10.28125 13.511719 9.964844 13.601562 9.964844 13.601562 L 9.964844 13.742188 L 13.109375 13.742188 L 13.109375 13.601562 C 13.109375 13.601562 12.832031 13.511719 12.703125 13.46875 C 12.613281 13.433594 12.332031 13.257812 12.332031 12.984375 L 12.332031 8.972656 C 12.332031 8.972656 12.507812 8.714844 12.644531 8.578125 C 12.78125 8.4375 12.867188 8.390625 13.1875 8.09375 C 13.4375 7.867188 13.554688 7.722656 13.734375 7.472656 C 13.851562 7.3125 13.957031 7.046875 13.921875 7.03125 Z M 13.921875 7.03125 "/>
</g>
</svg>
