<?xml version="1.0" encoding="UTF-8"?>
<svg xmlns="http://www.w3.org/2000/svg" xmlns:xlink="http://www.w3.org/1999/xlink" width="16pt" height="16pt" viewBox="0 0 16 16" version="1.1">
<g id="surface1">
<path style=" stroke:none;fill-rule:evenodd;fill:rgb(100%,76.470588%,35.294118%);fill-opacity:1;" d="M 3.734375 0.949219 L 12.265625 0.949219 C 13.800781 0.949219 15.050781 2.199219 15.050781 3.734375 L 15.050781 12.265625 C 15.050781 13.800781 13.800781 15.050781 12.265625 15.050781 L 3.734375 15.050781 C 2.199219 15.050781 0.949219 13.800781 0.949219 12.265625 L 0.949219 3.734375 C 0.949219 2.199219 2.199219 0.949219 3.734375 0.949219 Z M 3.734375 0.949219 "/>
<path style=" stroke:none;fill-rule:nonzero;fill:rgb(100%,100%,100%);fill-opacity:1;" d="M 8.375 2.886719 L 13.113281 7.625 C 13.320312 7.832031 13.320312 8.167969 13.113281 8.375 L 8.375 13.113281 C 8.167969 13.320312 7.832031 13.320312 7.625 13.113281 L 2.886719 8.375 C 2.679688 8.167969 2.679688 7.832031 2.886719 7.625 L 7.625 2.886719 C 7.832031 2.679688 8.167969 2.679688 8.375 2.886719 Z M 8.375 2.886719 "/>
<path style=" stroke:none;fill-rule:nonzero;fill:rgb(18.039216%,18.039216%,18.039216%);fill-opacity:1;" d="M 8.203125 5.234375 L 8.203125 6.917969 L 6.984375 8.128906 L 6.988281 8.132812 L 6.984375 8.132812 L 6.984375 10.765625 L 7.796875 10.765625 L 7.796875 8.34375 L 8.203125 7.929688 L 8.203125 10.765625 L 9.015625 10.765625 L 9.015625 5.234375 Z M 8.203125 5.234375 "/>
</g>
</svg>
