<?xml version="1.0" encoding="UTF-8"?>
<svg xmlns="http://www.w3.org/2000/svg" xmlns:xlink="http://www.w3.org/1999/xlink" width="16pt" height="16pt" viewBox="0 0 16 16" version="1.1">
<g id="surface1">
<path style=" stroke:none;fill-rule:evenodd;fill:rgb(34.901961%,65.490196%,81.960784%);fill-opacity:1;" d="M 3.734375 0.949219 L 12.265625 0.949219 C 13.800781 0.949219 15.050781 2.199219 15.050781 3.734375 L 15.050781 12.265625 C 15.050781 13.800781 13.800781 15.050781 12.265625 15.050781 L 3.734375 15.050781 C 2.199219 15.050781 0.949219 13.800781 0.949219 12.265625 L 0.949219 3.734375 C 0.949219 2.199219 2.199219 0.949219 3.734375 0.949219 Z M 3.734375 0.949219 "/>
<path style=" stroke:none;fill-rule:nonzero;fill:rgb(100%,100%,100%);fill-opacity:1;" d="M 2.75 4.75 L 2.75 6.25 L 8.109375 6.25 C 8.503906 6.25 8.75 6.460938 8.75 6.796875 L 8.75 9.203125 C 8.75 9.539062 8.503906 9.746094 8.105469 9.75 L 4.257812 9.75 L 4.257812 6.875 L 2.75 6.875 L 2.75 11.25 L 9.179688 11.25 C 9.773438 11.25 10.25 10.765625 10.25 10.167969 L 10.25 5.832031 C 10.25 5.234375 9.773438 4.75 9.179688 4.75 Z M 2.75 4.75 "/>
<path style=" stroke:none;fill-rule:nonzero;fill:rgb(100%,100%,100%);fill-opacity:1;" d="M 11.75 4.75 L 11.75 6.25 L 13.25 6.25 L 13.25 4.75 Z M 11.75 6.75 L 11.75 11.25 L 13.25 11.25 L 13.25 6.75 Z M 11.75 6.75 "/>
</g>
</svg>
