<?xml version="1.0" encoding="UTF-8"?>
<svg xmlns="http://www.w3.org/2000/svg" xmlns:xlink="http://www.w3.org/1999/xlink" width="16pt" height="16pt" viewBox="0 0 16 16" version="1.1">
<g id="surface1">
<path style=" stroke:none;fill-rule:evenodd;fill:rgb(90.196078%,19.607843%,0%);fill-opacity:1;" d="M 3.839844 0.847656 C 2.296875 0.847656 1.050781 2.089844 1.050781 3.636719 L 1.050781 12.160156 C 1.050781 12.75 1.273438 13.269531 1.585938 13.71875 C 1.78125 13.148438 1.929688 12.488281 1.929688 11.5625 C 1.929688 10.59375 1.78125 9.359375 1.402344 7.703125 C 1.820312 7.921875 2.203125 8.1875 2.542969 8.5 C 2.886719 8.8125 3.1875 9.167969 3.449219 9.554688 C 3.707031 9.941406 3.929688 10.359375 4.105469 10.800781 C 4.28125 11.242188 4.410156 11.703125 4.5 12.175781 C 4.5 12.175781 4.6875 12.082031 4.816406 11.71875 C 4.878906 11.539062 4.925781 11.289062 4.925781 10.953125 C 4.925781 10.613281 4.878906 10.1875 4.75 9.648438 C 5.066406 10.34375 5.597656 11.003906 6.066406 11.507812 C 6.535156 12.011719 6.941406 12.359375 7.015625 12.429688 C 7.121094 12.097656 7.296875 11.84375 7.488281 11.628906 C 7.683594 11.417969 7.886719 11.246094 8.054688 11.078125 C 8.21875 10.910156 8.347656 10.746094 8.378906 10.550781 C 8.414062 10.355469 8.351562 10.128906 8.140625 9.832031 C 8.816406 9.984375 9.328125 10.199219 9.71875 10.433594 C 10.109375 10.667969 10.375 10.925781 10.566406 11.167969 C 10.949219 11.652344 11.015625 12.078125 11.09375 12.160156 C 11.28125 11.167969 11.441406 10.898438 11.488281 10.625 C 11.535156 10.351562 11.46875 10.074219 11.207031 9.066406 C 11.746094 10.042969 12.109375 10.523438 12.335938 10.652344 C 12.449219 10.714844 12.53125 10.691406 12.578125 10.601562 C 12.628906 10.507812 12.652344 10.34375 12.644531 10.128906 C 12.636719 9.703125 12.523438 9.066406 12.347656 8.367188 C 12.167969 7.671875 11.921875 6.90625 11.644531 6.230469 C 12.40625 6.882812 13.007812 7.402344 13.464844 7.847656 C 13.917969 8.296875 14.230469 8.671875 14.421875 9.039062 C 14.613281 9.40625 14.683594 9.765625 14.65625 10.175781 C 14.625 10.589844 14.5 11.054688 14.296875 11.636719 C 14.804688 11.03125 14.914062 10.878906 15.152344 10.550781 L 15.152344 3.636719 C 15.152344 2.089844 13.910156 0.847656 12.363281 0.847656 Z M 3.839844 0.847656 "/>
<path style=" stroke:none;fill-rule:nonzero;fill:rgb(52.156863%,52.156863%,52.156863%);fill-opacity:1;" d="M 8 5.195312 C 6.449219 5.195312 5.195312 6.449219 5.195312 8 C 5.195312 9.550781 6.449219 10.804688 8 10.804688 C 9.550781 10.804688 10.804688 9.550781 10.804688 8 C 10.804688 6.449219 9.550781 5.195312 8 5.195312 Z M 8 6.878906 C 8.621094 6.878906 9.121094 7.378906 9.121094 8 C 9.121094 8.621094 8.621094 9.121094 8 9.121094 C 7.378906 9.121094 6.878906 8.621094 6.878906 8 C 6.878906 7.378906 7.378906 6.878906 8 6.878906 Z M 8 6.878906 "/>
<path style=" stroke:none;fill-rule:nonzero;fill:rgb(90.196078%,90.196078%,90.196078%);fill-opacity:1;" d="M 8 2.761719 C 5.097656 2.761719 2.761719 5.097656 2.761719 8 C 2.761719 10.902344 5.097656 13.238281 8 13.238281 C 10.902344 13.238281 13.238281 10.902344 13.238281 8 C 13.238281 5.097656 10.902344 2.761719 8 2.761719 Z M 8 5.753906 C 9.238281 5.753906 10.246094 6.761719 10.246094 8 C 10.246094 9.238281 9.238281 10.246094 8 10.246094 C 6.761719 10.246094 5.753906 9.238281 5.753906 8 C 5.753906 6.761719 6.761719 5.753906 8 5.753906 Z M 8 5.753906 "/>
<path style=" stroke:none;fill-rule:nonzero;fill:rgb(100%,100%,100%);fill-opacity:1;" d="M 8 6.484375 C 7.160156 6.484375 6.484375 7.160156 6.484375 8 C 6.484375 8.839844 7.160156 9.515625 8 9.515625 C 8.839844 9.515625 9.515625 8.839844 9.515625 8 C 9.515625 7.160156 8.839844 6.484375 8 6.484375 Z M 8 6.484375 "/>
<path style=" stroke:none;fill-rule:evenodd;fill:rgb(100%,71.764706%,0%);fill-opacity:1;" d="M 15.152344 10.550781 C 14.914062 10.878906 14.804688 11.03125 14.296875 11.636719 C 14.5 11.054688 14.625 10.589844 14.65625 10.175781 C 14.683594 9.765625 14.613281 9.40625 14.421875 9.039062 C 14.230469 8.671875 13.917969 8.296875 13.464844 7.847656 C 13.007812 7.402344 12.40625 6.882812 11.644531 6.230469 C 11.921875 6.90625 12.167969 7.671875 12.347656 8.367188 C 12.523438 9.066406 12.636719 9.703125 12.644531 10.128906 C 12.652344 10.34375 12.628906 10.507812 12.578125 10.601562 C 12.53125 10.691406 12.449219 10.714844 12.335938 10.652344 C 12.109375 10.523438 11.746094 10.042969 11.207031 9.066406 C 11.46875 10.074219 11.535156 10.351562 11.488281 10.625 C 11.441406 10.898438 11.28125 11.167969 11.09375 12.160156 C 11.015625 12.078125 10.949219 11.652344 10.566406 11.167969 C 10.375 10.925781 10.109375 10.667969 9.71875 10.433594 C 9.328125 10.199219 8.816406 9.984375 8.140625 9.832031 C 8.351562 10.128906 8.414062 10.355469 8.378906 10.550781 C 8.347656 10.746094 8.21875 10.910156 8.054688 11.078125 C 7.886719 11.246094 7.683594 11.417969 7.488281 11.628906 C 7.296875 11.84375 7.121094 12.097656 7.015625 12.429688 C 6.941406 12.359375 6.535156 12.011719 6.066406 11.507812 C 5.597656 11.003906 5.066406 10.34375 4.75 9.648438 C 4.878906 10.1875 4.925781 10.613281 4.925781 10.953125 C 4.925781 11.289062 4.878906 11.539062 4.816406 11.71875 C 4.6875 12.082031 4.5 12.175781 4.5 12.175781 C 4.410156 11.703125 4.28125 11.242188 4.105469 10.800781 C 3.929688 10.359375 3.707031 9.941406 3.449219 9.554688 C 3.1875 9.167969 2.886719 8.8125 2.542969 8.5 C 2.203125 8.1875 1.820312 7.921875 1.402344 7.703125 C 1.78125 9.359375 1.929688 10.59375 1.929688 11.5625 C 1.929688 12.488281 1.78125 13.148438 1.585938 13.71875 C 2.085938 14.445312 2.886719 14.949219 3.839844 14.949219 L 12.363281 14.949219 C 13.910156 14.949219 15.152344 13.703125 15.152344 12.160156 Z M 15.152344 10.550781 "/>
</g>
</svg>
