<?xml version="1.0" encoding="UTF-8"?>
<svg xmlns="http://www.w3.org/2000/svg" xmlns:xlink="http://www.w3.org/1999/xlink" width="16pt" height="16pt" viewBox="0 0 16 16" version="1.1">
<g id="surface1">
<path style=" stroke:none;fill-rule:evenodd;fill:rgb(55.686275%,55.686275%,55.686275%);fill-opacity:1;" d="M 3.734375 0.949219 C 2.191406 0.949219 0.949219 2.191406 0.949219 3.734375 L 0.949219 8.195312 L 15.050781 8.195312 L 15.050781 3.734375 C 15.050781 2.191406 13.808594 0.949219 12.265625 0.949219 Z M 3.734375 0.949219 "/>
<path style=" stroke:none;fill-rule:nonzero;fill:rgb(90.196078%,90.196078%,90.196078%);fill-opacity:1;" d="M 3.554688 3.398438 L 12.449219 3.398438 L 12.449219 8.726562 L 3.554688 8.726562 Z M 3.554688 3.398438 "/>
<path style=" stroke:none;fill-rule:nonzero;fill:rgb(50.196078%,50.196078%,50.196078%);fill-opacity:1;" d="M 4.441406 5.53125 L 6.667969 5.53125 L 6.667969 7.128906 L 4.441406 7.128906 Z M 4.441406 5.53125 "/>
<path style=" stroke:none;fill-rule:nonzero;fill:rgb(50.196078%,50.196078%,50.196078%);fill-opacity:1;" d="M 9.335938 5.53125 L 11.558594 5.53125 L 11.558594 7.128906 L 9.335938 7.128906 Z M 9.335938 5.53125 "/>
<path style=" stroke:none;fill-rule:evenodd;fill:rgb(30.196078%,30.196078%,30.196078%);fill-opacity:1;" d="M 15.050781 8.195312 L 0.949219 8.195312 L 0.949219 12.265625 C 0.949219 13.808594 2.191406 15.050781 3.734375 15.050781 L 12.265625 15.050781 C 13.808594 15.050781 15.050781 13.808594 15.050781 12.265625 Z M 15.050781 8.195312 "/>
<path style=" stroke:none;fill-rule:nonzero;fill:rgb(50.196078%,50.196078%,50.196078%);fill-opacity:1;" d="M 4.269531 10.328125 L 11.730469 10.328125 C 12.027344 10.328125 12.265625 10.5625 12.265625 10.859375 C 12.265625 11.152344 12.027344 11.390625 11.730469 11.390625 L 4.269531 11.390625 C 3.976562 11.390625 3.738281 11.152344 3.738281 10.859375 C 3.738281 10.5625 3.976562 10.328125 4.269531 10.328125 Z M 4.269531 10.328125 "/>
<path style=" stroke:none;fill-rule:nonzero;fill:rgb(50.196078%,50.196078%,50.196078%);fill-opacity:1;" d="M 5.335938 12.457031 L 10.664062 12.457031 C 10.960938 12.457031 11.199219 12.695312 11.199219 12.988281 C 11.199219 13.285156 10.960938 13.523438 10.664062 13.523438 L 5.335938 13.523438 C 5.042969 13.523438 4.804688 13.285156 4.804688 12.988281 C 4.804688 12.695312 5.042969 12.457031 5.335938 12.457031 Z M 5.335938 12.457031 "/>
<path style=" stroke:none;fill-rule:nonzero;fill:rgb(23.529412%,57.254902%,82.352941%);fill-opacity:1;" d="M 14.175781 11.109375 C 14.175781 12.765625 12.832031 14.109375 11.175781 14.109375 C 9.519531 14.109375 8.175781 12.765625 8.175781 11.109375 C 8.175781 9.453125 9.519531 8.109375 11.175781 8.109375 C 12.832031 8.109375 14.175781 9.453125 14.175781 11.109375 Z M 14.175781 11.109375 "/>
<path style=" stroke:none;fill-rule:nonzero;fill:rgb(100%,100%,100%);fill-opacity:1;" d="M 9.675781 11.226562 C 9.675781 12.054688 10.347656 12.726562 11.175781 12.726562 C 11.996094 12.726562 12.660156 12.070312 12.675781 11.253906 C 12.675781 11.246094 12.675781 11.234375 12.675781 11.226562 C 12.675781 11.089844 12.527344 10.976562 12.390625 10.976562 C 12.25 10.976562 12.113281 11.089844 12.113281 11.226562 C 12.113281 11.78125 11.730469 12.164062 11.175781 12.164062 C 10.625 12.164062 10.238281 11.78125 10.238281 11.226562 C 10.238281 10.675781 10.625 10.289062 11.175781 10.289062 L 11.175781 10.851562 L 12.300781 9.976562 L 11.175781 9.164062 L 11.175781 9.726562 C 10.347656 9.726562 9.675781 10.398438 9.675781 11.226562 Z M 9.675781 11.226562 "/>
</g>
</svg>
