<?xml version="1.0" encoding="UTF-8"?>
<svg xmlns="http://www.w3.org/2000/svg" xmlns:xlink="http://www.w3.org/1999/xlink" width="16pt" height="16pt" viewBox="0 0 16 16" version="1.1">
<g id="surface1">
<path style=" stroke:none;fill-rule:evenodd;fill:rgb(92.54902%,92.54902%,92.54902%);fill-opacity:1;" d="M 3.734375 0.949219 L 12.265625 0.949219 C 13.800781 0.949219 15.050781 2.199219 15.050781 3.734375 L 15.050781 12.265625 C 15.050781 13.800781 13.800781 15.050781 12.265625 15.050781 L 3.734375 15.050781 C 2.199219 15.050781 0.949219 13.800781 0.949219 12.265625 L 0.949219 3.734375 C 0.949219 2.199219 2.199219 0.949219 3.734375 0.949219 Z M 3.734375 0.949219 "/>
<path style=" stroke:none;fill-rule:evenodd;fill:rgb(92.54902%,92.54902%,92.54902%);fill-opacity:1;" d="M 7.351562 0.949219 C 7.332031 0.988281 7.3125 1.027344 7.296875 1.0625 C 7.191406 1.296875 7.097656 1.53125 7.011719 1.769531 C 6.921875 2.003906 6.84375 2.242188 6.777344 2.480469 C 6.707031 2.714844 6.644531 2.953125 6.59375 3.1875 C 6.542969 3.421875 6.5 3.65625 6.46875 3.886719 C 6.4375 4.117188 6.410156 4.34375 6.398438 4.570312 C 6.382812 4.792969 6.378906 5.015625 6.382812 5.230469 C 6.386719 5.445312 6.402344 5.65625 6.425781 5.863281 C 6.449219 6.066406 6.484375 6.265625 6.523438 6.457031 C 6.566406 6.652344 6.617188 6.835938 6.679688 7.015625 C 6.738281 7.191406 6.808594 7.359375 6.886719 7.519531 C 6.964844 7.683594 7.050781 7.832031 7.144531 7.976562 C 7.242188 8.121094 7.34375 8.253906 7.457031 8.375 C 7.566406 8.5 7.6875 8.609375 7.8125 8.714844 C 7.9375 8.816406 8.070312 8.90625 8.207031 8.988281 C 8.308594 9.046875 8.410156 9.097656 8.515625 9.140625 C 8.660156 9.207031 8.816406 9.261719 8.972656 9.300781 C 9.132812 9.34375 9.296875 9.371094 9.46875 9.390625 C 9.636719 9.40625 9.808594 9.414062 9.984375 9.40625 C 10.160156 9.402344 10.339844 9.386719 10.523438 9.355469 C 10.707031 9.328125 10.890625 9.285156 11.078125 9.234375 C 11.265625 9.179688 11.453125 9.117188 11.640625 9.039062 C 11.828125 8.964844 12.019531 8.878906 12.210938 8.78125 C 12.398438 8.683594 12.589844 8.574219 12.777344 8.453125 C 12.964844 8.335938 13.152344 8.207031 13.335938 8.070312 C 13.519531 7.929688 13.703125 7.78125 13.882812 7.625 C 14.0625 7.46875 14.238281 7.300781 14.410156 7.128906 C 14.585938 6.953125 14.753906 6.773438 14.917969 6.582031 C 14.960938 6.53125 15.007812 6.476562 15.050781 6.421875 L 15.050781 3.734375 C 15.050781 2.191406 13.808594 0.949219 12.265625 0.949219 Z M 7.351562 0.949219 "/>
<path style=" stroke:none;fill-rule:evenodd;fill:rgb(92.54902%,92.54902%,92.54902%);fill-opacity:1;" d="M 5.75 15.050781 C 5.8125 14.964844 5.902344 14.882812 5.953125 14.796875 C 6.109375 14.53125 6.210938 14.269531 6.25 14.011719 C 6.289062 13.746094 6.28125 13.664062 6.199219 13.378906 C 6.097656 13.039062 5.914062 12.75 5.65625 12.519531 C 5.402344 12.292969 5.070312 12.125 4.675781 12.027344 C 4.265625 11.921875 3.839844 11.875 3.34375 11.886719 C 2.84375 11.894531 2.273438 11.960938 1.578125 12.082031 C 1.441406 12.105469 1.160156 12.222656 0.953125 12.277344 C 0.960938 13.816406 2.199219 15.050781 3.734375 15.050781 Z M 5.75 15.050781 "/>
<path style=" stroke:none;fill-rule:evenodd;fill:rgb(92.54902%,92.54902%,92.54902%);fill-opacity:1;" d="M 14.273438 14.179688 C 14.078125 14.203125 13.855469 14.277344 13.675781 14.277344 C 12.835938 14.292969 12.082031 14.175781 11.460938 13.949219 C 11.152344 13.832031 10.875 13.691406 10.640625 13.519531 C 10.402344 13.351562 10.203125 13.15625 10.050781 12.9375 C 9.949219 12.792969 9.84375 12.609375 9.824219 12.53125 C 9.792969 12.421875 9.75 12.378906 9.605469 12.320312 C 9.1875 12.148438 8.796875 12.132812 8.230469 12.261719 C 7.710938 12.382812 7.359375 12.542969 7.0625 12.792969 C 6.753906 13.054688 6.621094 13.265625 6.667969 13.421875 C 6.722656 13.625 6.695312 14.097656 6.609375 14.386719 C 6.542969 14.609375 6.414062 14.828125 6.285156 15.050781 L 12.265625 15.050781 C 13.0625 15.050781 13.765625 14.710938 14.273438 14.179688 Z M 14.273438 14.179688 "/>
<path style=" stroke:none;fill-rule:evenodd;fill:rgb(92.54902%,92.54902%,92.54902%);fill-opacity:1;" d="M 14.277344 8.527344 C 14.53125 8.449219 14.683594 8.355469 15.015625 8.269531 C 15.03125 8.265625 15.035156 8.265625 15.050781 8.265625 L 15.050781 7.847656 C 14.996094 7.902344 14.941406 7.953125 14.890625 8.007812 C 14.6875 8.1875 14.484375 8.359375 14.277344 8.527344 Z M 14.277344 8.527344 "/>
<path style=" stroke:none;fill-rule:evenodd;fill:rgb(92.54902%,92.54902%,92.54902%);fill-opacity:1;" d="M 10.808594 10.339844 C 10.734375 10.414062 10.625 10.488281 10.566406 10.566406 C 10.367188 10.832031 10.238281 11.105469 10.175781 11.386719 C 10.113281 11.667969 10.121094 11.957031 10.203125 12.25 C 10.265625 12.480469 10.351562 12.664062 10.488281 12.828125 C 10.625 12.988281 10.8125 13.128906 11.070312 13.277344 C 11.410156 13.472656 11.8125 13.617188 12.25 13.707031 C 12.691406 13.796875 13.167969 13.839844 13.664062 13.828125 C 13.964844 13.820312 14.28125 13.757812 14.589844 13.710938 C 14.855469 13.285156 15.050781 12.808594 15.050781 12.265625 L 15.050781 8.265625 C 15.035156 8.265625 15.03125 8.265625 15.015625 8.269531 C 14.683594 8.355469 14.53125 8.449219 14.277344 8.527344 C 14.246094 8.554688 14.210938 8.582031 14.175781 8.609375 C 13.9375 8.796875 13.695312 8.972656 13.449219 9.136719 C 13.203125 9.300781 12.957031 9.453125 12.707031 9.585938 C 12.460938 9.722656 12.210938 9.84375 11.964844 9.953125 C 11.714844 10.058594 11.46875 10.152344 11.222656 10.230469 C 11.082031 10.269531 10.945312 10.308594 10.808594 10.339844 Z M 10.808594 10.339844 "/>
<path style=" stroke:none;fill-rule:evenodd;fill:rgb(92.54902%,92.54902%,92.54902%);fill-opacity:1;" d="M 10.003906 10.484375 C 9.785156 10.730469 9.636719 10.894531 9.265625 11.097656 C 8.851562 11.320312 8.367188 11.511719 7.871094 11.652344 C 7.371094 11.789062 6.859375 11.878906 6.394531 11.90625 C 5.855469 11.933594 5.710938 11.914062 5.199219 11.734375 C 4.648438 11.546875 4.121094 11.445312 3.5 11.4375 C 2.878906 11.433594 2.171875 11.515625 1.253906 11.6875 C 1.175781 11.703125 1.039062 11.761719 0.949219 11.78125 L 0.949219 12.265625 C 0.949219 12.269531 0.953125 12.273438 0.953125 12.277344 C 1.160156 12.222656 1.441406 12.105469 1.578125 12.082031 C 2.273438 11.960938 2.84375 11.894531 3.34375 11.886719 C 3.839844 11.875 4.265625 11.921875 4.675781 12.027344 C 5.070312 12.125 5.402344 12.292969 5.65625 12.519531 C 5.914062 12.75 6.097656 13.039062 6.199219 13.378906 C 6.28125 13.664062 6.289062 13.746094 6.25 14.011719 C 6.210938 14.269531 6.109375 14.53125 5.953125 14.796875 C 5.902344 14.882812 5.8125 14.964844 5.75 15.050781 L 6.285156 15.050781 C 6.414062 14.828125 6.542969 14.609375 6.609375 14.386719 C 6.695312 14.097656 6.722656 13.625 6.667969 13.421875 C 6.621094 13.265625 6.753906 13.054688 7.0625 12.792969 C 7.359375 12.542969 7.710938 12.382812 8.230469 12.261719 C 8.796875 12.132812 9.1875 12.148438 9.605469 12.320312 C 9.75 12.378906 9.792969 12.421875 9.824219 12.53125 C 9.84375 12.609375 9.949219 12.792969 10.050781 12.9375 C 10.203125 13.15625 10.402344 13.351562 10.640625 13.519531 C 10.875 13.691406 11.152344 13.832031 11.460938 13.949219 C 12.082031 14.175781 12.835938 14.292969 13.675781 14.277344 C 13.855469 14.277344 14.078125 14.203125 14.273438 14.179688 C 14.402344 14.042969 14.488281 13.875 14.589844 13.710938 C 14.28125 13.757812 13.964844 13.820312 13.664062 13.828125 C 13.167969 13.839844 12.691406 13.796875 12.25 13.707031 C 11.8125 13.617188 11.410156 13.472656 11.070312 13.277344 C 10.8125 13.128906 10.625 12.988281 10.488281 12.828125 C 10.351562 12.664062 10.265625 12.480469 10.203125 12.25 C 10.121094 11.957031 10.113281 11.667969 10.175781 11.386719 C 10.238281 11.105469 10.367188 10.832031 10.566406 10.566406 C 10.625 10.488281 10.734375 10.414062 10.808594 10.339844 C 10.703125 10.367188 10.597656 10.394531 10.492188 10.417969 C 10.328125 10.449219 10.164062 10.46875 10.003906 10.484375 Z M 10.003906 10.484375 "/>
<path style=" stroke:none;fill-rule:evenodd;fill:rgb(92.54902%,92.54902%,92.54902%);fill-opacity:1;" d="M 3.734375 0.949219 C 2.191406 0.949219 0.949219 2.191406 0.949219 3.734375 L 0.949219 11.78125 C 1.039062 11.761719 1.175781 11.703125 1.253906 11.6875 C 2.171875 11.515625 2.878906 11.433594 3.5 11.4375 C 4.121094 11.445312 4.648438 11.546875 5.199219 11.734375 C 5.710938 11.914062 5.855469 11.933594 6.394531 11.90625 C 6.859375 11.878906 7.371094 11.789062 7.871094 11.652344 C 8.367188 11.511719 8.851562 11.320312 9.265625 11.097656 C 9.636719 10.894531 9.785156 10.730469 10.003906 10.484375 C 9.929688 10.496094 9.855469 10.507812 9.78125 10.515625 C 9.546875 10.53125 9.316406 10.53125 9.09375 10.519531 C 8.867188 10.503906 8.648438 10.472656 8.4375 10.429688 C 8.226562 10.382812 8.019531 10.324219 7.820312 10.246094 C 7.625 10.171875 7.433594 10.082031 7.25 9.976562 C 7.121094 9.902344 6.996094 9.820312 6.875 9.730469 C 6.703125 9.605469 6.546875 9.464844 6.394531 9.3125 C 6.242188 9.15625 6.101562 8.992188 5.96875 8.8125 C 5.839844 8.632812 5.71875 8.4375 5.609375 8.234375 C 5.5 8.03125 5.402344 7.816406 5.316406 7.589844 C 5.230469 7.363281 5.15625 7.125 5.09375 6.878906 C 5.03125 6.632812 4.980469 6.378906 4.941406 6.113281 C 4.90625 5.851562 4.878906 5.578125 4.867188 5.300781 C 4.851562 5.019531 4.851562 4.734375 4.863281 4.445312 C 4.875 4.152344 4.898438 3.859375 4.933594 3.558594 C 4.96875 3.253906 5.019531 2.953125 5.078125 2.644531 C 5.140625 2.339844 5.210938 2.03125 5.296875 1.71875 C 5.367188 1.464844 5.445312 1.207031 5.53125 0.949219 Z M 3.734375 0.949219 "/>
<path style=" stroke:none;fill-rule:evenodd;fill:rgb(19.215686%,56.862745%,80.392157%);fill-opacity:1;" d="M 5.53125 0.949219 C 5.445312 1.207031 5.367188 1.464844 5.296875 1.71875 C 5.210938 2.03125 5.140625 2.339844 5.078125 2.644531 C 5.019531 2.953125 4.96875 3.253906 4.933594 3.558594 C 4.898438 3.859375 4.875 4.152344 4.863281 4.445312 C 4.851562 4.734375 4.851562 5.019531 4.867188 5.300781 C 4.878906 5.578125 4.90625 5.851562 4.941406 6.113281 C 4.980469 6.378906 5.03125 6.632812 5.09375 6.878906 C 5.15625 7.125 5.230469 7.363281 5.316406 7.589844 C 5.402344 7.816406 5.5 8.03125 5.609375 8.234375 C 5.71875 8.4375 5.839844 8.632812 5.96875 8.8125 C 6.101562 8.992188 6.242188 9.15625 6.394531 9.3125 C 6.546875 9.464844 6.703125 9.605469 6.875 9.730469 C 6.996094 9.820312 7.121094 9.902344 7.25 9.976562 C 7.433594 10.082031 7.625 10.171875 7.820312 10.246094 C 8.019531 10.324219 8.226562 10.382812 8.4375 10.429688 C 8.648438 10.472656 8.867188 10.503906 9.09375 10.519531 C 9.316406 10.53125 9.546875 10.53125 9.78125 10.515625 C 10.015625 10.5 10.25 10.46875 10.492188 10.417969 C 10.734375 10.371094 10.976562 10.308594 11.222656 10.230469 C 11.46875 10.152344 11.714844 10.058594 11.964844 9.953125 C 12.210938 9.84375 12.460938 9.722656 12.707031 9.585938 C 12.957031 9.453125 13.203125 9.300781 13.449219 9.136719 C 13.695312 8.972656 13.9375 8.796875 14.175781 8.609375 C 14.417969 8.421875 14.65625 8.21875 14.890625 8.007812 C 14.941406 7.953125 14.996094 7.902344 15.050781 7.847656 L 15.050781 6.421875 C 15.007812 6.476562 14.960938 6.53125 14.917969 6.582031 C 14.753906 6.773438 14.585938 6.953125 14.410156 7.128906 C 14.238281 7.300781 14.0625 7.46875 13.882812 7.625 C 13.703125 7.78125 13.519531 7.929688 13.335938 8.070312 C 13.152344 8.207031 12.964844 8.335938 12.777344 8.453125 C 12.589844 8.574219 12.398438 8.683594 12.210938 8.78125 C 12.019531 8.878906 11.828125 8.964844 11.640625 9.039062 C 11.453125 9.117188 11.265625 9.179688 11.078125 9.234375 C 10.890625 9.285156 10.707031 9.328125 10.523438 9.355469 C 10.339844 9.386719 10.160156 9.402344 9.984375 9.40625 C 9.808594 9.414062 9.636719 9.40625 9.46875 9.390625 C 9.296875 9.371094 9.132812 9.34375 8.972656 9.300781 C 8.816406 9.261719 8.660156 9.207031 8.515625 9.140625 C 8.410156 9.097656 8.308594 9.046875 8.207031 8.988281 C 8.070312 8.90625 7.9375 8.816406 7.8125 8.714844 C 7.6875 8.609375 7.566406 8.5 7.457031 8.375 C 7.34375 8.253906 7.242188 8.121094 7.144531 7.976562 C 7.050781 7.832031 6.964844 7.683594 6.886719 7.519531 C 6.808594 7.359375 6.738281 7.191406 6.679688 7.015625 C 6.617188 6.835938 6.566406 6.652344 6.523438 6.457031 C 6.484375 6.265625 6.449219 6.066406 6.425781 5.863281 C 6.402344 5.65625 6.386719 5.445312 6.382812 5.230469 C 6.378906 5.015625 6.382812 4.792969 6.398438 4.570312 C 6.410156 4.34375 6.4375 4.117188 6.46875 3.886719 C 6.5 3.65625 6.542969 3.421875 6.59375 3.1875 C 6.644531 2.953125 6.707031 2.714844 6.777344 2.480469 C 6.84375 2.242188 6.921875 2.003906 7.011719 1.769531 C 7.097656 1.53125 7.191406 1.296875 7.296875 1.0625 C 7.3125 1.027344 7.332031 0.988281 7.351562 0.949219 Z M 5.53125 0.949219 "/>
<path style="fill-rule:nonzero;fill:rgb(40%,40%,40%);fill-opacity:1;stroke-width:0.3;stroke-linecap:butt;stroke-linejoin:miter;stroke:rgb(40%,40%,40%);stroke-opacity:1;stroke-miterlimit:4;" d="M -4.229881 23.603908 C -4.753319 23.588283 -5.300194 23.635158 -5.979881 23.767971 C -6.167381 23.799221 -6.628319 23.916408 -6.870506 23.994533 C -7.698631 24.252346 -8.800194 24.791408 -9.331444 25.189846 L -9.440819 25.275783 C -9.690819 25.471096 -9.925194 25.689846 -10.065819 26.002346 L -10.112694 26.103908 C -10.159569 26.197658 -10.159569 26.205471 -10.222069 26.189846 C -10.253319 26.182033 -10.472069 26.182033 -10.722069 26.182033 C -11.128319 26.182033 -11.183006 26.182033 -11.401756 26.228908 C -11.964256 26.353908 -12.487694 26.588283 -12.964256 26.924221 L -13.104881 27.025783 L -13.198631 26.947658 C -13.323631 26.853908 -13.683006 26.682033 -13.847069 26.627346 C -14.229881 26.525783 -14.636131 26.486721 -15.222069 26.502346 C -16.729881 26.541408 -17.979881 26.846096 -19.159569 27.455471 C -19.808006 27.791408 -20.472069 28.244533 -20.823631 28.596096 C -21.050194 28.814846 -21.143944 28.986721 -21.175194 29.221096 C -21.190819 29.369533 -21.198631 29.369533 -21.261131 29.400783 C -21.386131 29.439846 -21.878319 29.689846 -21.964256 29.752346 C -22.042381 29.807033 -22.058006 29.822658 -22.058006 29.892971 C -22.058006 29.978908 -22.011131 30.088283 -21.972069 30.119533 C -21.956444 30.127346 -21.956444 30.119533 -21.964256 30.096096 C -22.003319 30.002346 -22.018944 29.900783 -21.995506 29.861721 C -21.964256 29.799221 -21.643944 29.619533 -21.386131 29.510158 L -21.159569 29.416408 L -21.143944 29.525783 C -21.136131 29.580471 -21.112694 29.666408 -21.097069 29.713283 C -21.065819 29.775783 -21.065819 29.807033 -21.081444 29.807033 C -21.097069 29.807033 -21.222069 29.853908 -21.362694 29.900783 C -21.503319 29.947658 -21.667381 30.002346 -21.729881 30.017971 C -21.847069 30.049221 -21.886131 30.080471 -21.893944 30.150783 C -21.893944 30.174221 -21.901756 30.205471 -21.901756 30.213283 C -21.909569 30.228908 -21.878319 30.260158 -21.831444 30.283596 C -21.706444 30.353908 -21.550194 30.338283 -21.276756 30.228908 C -21.151756 30.182033 -21.042381 30.150783 -21.034569 30.158596 C -21.026756 30.166408 -21.003319 30.221096 -20.972069 30.283596 C -20.854881 30.588283 -20.628319 30.986721 -20.440819 31.205471 C -20.253319 31.432033 -19.956444 31.627346 -19.683006 31.713283 L -19.581444 31.744533 L -19.972069 32.135158 C -20.425194 32.580471 -21.112694 33.307033 -21.112694 33.338283 C -21.112694 33.361721 -21.018944 33.541408 -20.956444 33.635158 C -20.886131 33.736721 -20.761131 33.861721 -20.636131 33.963283 C -20.581444 34.002346 -20.526756 34.041408 -20.518944 34.041408 C -20.511131 34.041408 -20.206444 33.744533 -19.839256 33.377346 C -19.464256 33.010158 -18.972069 32.533596 -18.737694 32.314846 L -18.315819 31.924221 L -18.081444 31.924221 C -17.878319 31.916408 -17.464256 31.885158 -17.190819 31.853908 C -16.933006 32.221096 -16.643944 32.775783 -16.893944 31.807033 C -16.893944 31.807033 -16.800194 31.791408 -16.698631 31.767971 C -15.097069 31.439846 -13.745506 30.713283 -12.995506 29.799221 C -12.722069 29.455471 -12.628319 29.213283 -12.628319 28.791408 L -12.620506 28.541408 L -12.542381 28.510158 C -12.503319 28.494533 -12.315819 28.432033 -12.120506 28.353908 C -11.393944 28.088283 -11.261131 28.049221 -10.933006 27.986721 C -10.495506 27.908596 -9.815819 27.791408 -9.815819 27.799221 C -9.815819 27.799221 -9.784569 27.846096 -9.753319 27.908596 C -9.612694 28.189846 -9.386131 28.439846 -9.159569 28.564846 C -8.901756 28.713283 -8.456444 28.846096 -8.026756 28.924221 C -6.714256 29.135158 -5.034569 28.830471 -3.612694 28.127346 C -3.503319 28.072658 -3.362694 27.994533 -3.308006 27.963283 C -3.222069 27.916408 -3.190819 27.908596 -3.128319 27.916408 C -2.972069 27.947658 -2.136131 28.142971 -2.128319 28.150783 C -1.979881 28.189846 -1.761131 28.260158 -1.761131 28.260158 C -1.745506 28.244533 -1.698631 28.252346 -0.909569 28.463283 C -0.542381 28.557033 -0.237694 28.635158 -0.222069 28.627346 C -0.190819 28.619533 -0.112694 28.432033 -0.0736312 28.275783 C -0.0423812 28.166408 -0.0267562 27.908596 -0.0423812 27.807033 L -0.0580062 27.713283 L -0.339256 27.627346 C -0.651756 27.533596 -1.479881 27.299221 -1.815819 27.213283 L -2.026756 27.150783 L -2.050194 27.080471 C -2.065819 27.010158 -2.065819 26.994533 -1.972069 26.869533 C -1.862694 26.705471 -1.776756 26.510158 -1.722069 26.291408 C -1.690819 26.142971 -1.683006 26.072658 -1.683006 25.713283 C -1.683006 25.447658 -1.690819 25.252346 -1.706444 25.158596 C -1.722069 25.088283 -1.722069 25.017971 -1.722069 25.010158 C -1.714256 25.002346 -1.604881 24.978908 -1.487694 24.963283 C -1.167381 24.908596 -1.026756 24.838283 -0.948631 24.697658 C -0.909569 24.627346 -0.909569 24.619533 -0.948631 24.619533 C -0.964256 24.619533 -0.979881 24.611721 -0.979881 24.596096 C -0.979881 24.580471 -1.003319 24.557033 -1.034569 24.549221 C -1.081444 24.525783 -1.120506 24.525783 -1.284569 24.572658 C -1.448631 24.611721 -1.815819 24.689846 -1.870506 24.689846 C -1.878319 24.689846 -1.901756 24.642971 -1.909569 24.580471 C -1.909569 24.517971 -1.933006 24.432033 -1.956444 24.392971 L -1.995506 24.322658 L -1.933006 24.307033 C -1.729881 24.275783 -1.511131 24.260158 -1.284569 24.260158 L -1.026756 24.267971 L -0.995506 24.353908 C -0.972069 24.400783 -0.956444 24.455471 -0.948631 24.478908 C -0.933006 24.541408 -0.917381 24.494533 -0.933006 24.400783 C -0.940819 24.353908 -0.964256 24.291408 -0.987694 24.260158 L -1.034569 24.197658 L -1.253319 24.197658 C -1.456444 24.197658 -1.831444 24.228908 -1.940819 24.252346 C -1.987694 24.260158 -2.003319 24.244533 -2.058006 24.166408 C -2.159569 24.002346 -2.347069 23.869533 -2.604881 23.775783 C -2.612694 23.775783 -2.651756 23.775783 -2.659569 23.767971 C -2.659569 23.767971 -2.667381 23.767971 -2.675194 23.767971 C -3.229881 23.689846 -3.714256 23.619533 -4.229881 23.603908 Z M -4.378319 23.650783 C -4.026756 23.650783 -3.659569 23.666408 -3.472069 23.689846 C -2.886131 23.767971 -2.659569 23.822658 -2.456444 23.924221 C -2.386131 23.963283 -2.347069 23.986721 -2.370506 23.986721 C -2.698631 23.885158 -3.050194 23.807033 -3.440819 23.744533 C -3.823631 23.689846 -4.628319 23.666408 -5.018944 23.705471 C -6.003319 23.791408 -6.933006 24.057033 -7.972069 24.549221 C -8.542381 24.838283 -9.136131 25.127346 -9.643944 25.603908 C -9.815819 25.775783 -9.901756 25.900783 -9.956444 26.088283 C -9.979881 26.150783 -10.003319 26.260158 -10.011131 26.322658 L -10.034569 26.447658 L -10.034569 26.338283 C -10.034569 26.244533 -10.042381 26.221096 -10.073631 26.213283 C -10.128319 26.197658 -10.128319 26.189846 -10.050194 26.041408 C -9.847069 25.642971 -9.464256 25.267971 -8.948631 24.963283 C -8.784569 24.861721 -8.440819 24.682033 -8.378319 24.658596 C -8.339256 24.642971 -8.339256 24.642971 -8.370506 24.666408 C -8.456444 24.736721 -8.347069 24.689846 -8.011131 24.517971 C -7.175194 24.096096 -6.261131 23.814846 -5.292381 23.689846 C -5.104881 23.666408 -4.745506 23.650783 -4.378319 23.650783 Z M -4.597069 23.713283 C -4.339256 23.705471 -4.089256 23.713283 -3.933006 23.721096 C -3.651756 23.744533 -3.222069 23.807033 -3.237694 23.814846 C -3.237694 23.814846 -3.331444 23.807033 -3.440819 23.799221 C -4.479881 23.697658 -5.479881 23.767971 -6.386131 24.002346 C -6.722069 24.088283 -6.761131 24.096096 -6.597069 24.041408 C -6.253319 23.924221 -5.714256 23.807033 -5.268944 23.752346 C -5.104881 23.728908 -4.847069 23.713283 -4.597069 23.713283 Z M -4.065819 23.807033 C -3.909569 23.814846 -3.753319 23.830471 -3.597069 23.846096 C -3.581444 23.838283 -3.573631 23.838283 -3.565819 23.830471 C -3.253319 23.861721 -3.050194 23.900783 -2.886131 23.932033 C -2.870506 23.939846 -2.847069 23.939846 -2.823631 23.947658 L -2.847069 23.947658 C -2.737694 23.978908 -2.643944 24.002346 -2.565819 24.041408 C -2.370506 24.142971 -2.284569 24.236721 -2.167381 24.502346 C -2.097069 24.666408 -2.097069 24.666408 -2.136131 24.682033 C -2.253319 24.728908 -2.854881 24.869533 -3.495506 24.994533 C -4.308006 25.158596 -4.589256 25.221096 -4.839256 25.307033 C -4.979881 25.361721 -5.167381 25.447658 -5.073631 25.416408 C -4.620506 25.283596 -3.308006 24.986721 -2.620506 24.861721 C -2.526756 24.838283 -2.362694 24.807033 -2.261131 24.783596 L -2.073631 24.744533 L -2.026756 24.916408 L -2.292381 24.994533 C -3.893944 25.463283 -4.565819 25.642971 -5.011131 25.736721 C -5.378319 25.814846 -5.378319 25.807033 -5.378319 25.635158 C -5.378319 25.557033 -5.378319 25.533596 -5.347069 25.517971 C -5.284569 25.494533 -5.292381 25.447658 -5.370506 25.400783 C -5.409569 25.377346 -5.448631 25.369533 -5.495506 25.377346 C -5.675194 25.400783 -7.940819 26.135158 -9.417381 26.642971 C -9.667381 26.728908 -9.878319 26.799221 -9.886131 26.799221 C -9.901756 26.799221 -9.909569 26.744533 -9.925194 26.596096 L -9.823631 26.267971 L -9.901756 26.291408 C -9.612694 25.182033 -6.933006 23.736721 -4.065819 23.807033 Z M -3.175194 23.822658 C -3.159569 23.822658 -3.143944 23.822658 -3.136131 23.830471 C -3.128319 23.838283 -3.143944 23.838283 -3.159569 23.838283 C -3.183006 23.838283 -3.190819 23.830471 -3.175194 23.822658 Z M -2.472069 23.994533 C -2.433006 23.994533 -2.190819 24.080471 -2.167381 24.096096 C -2.151756 24.119533 -2.128319 24.158596 -2.120506 24.197658 C -2.112694 24.236721 -2.034569 24.494533 -1.948631 24.760158 C -1.808006 25.189846 -1.714256 25.549221 -1.737694 25.572658 C -1.745506 25.580471 -1.761131 25.588283 -1.784569 25.588283 C -1.815819 25.588283 -1.847069 25.596096 -1.862694 25.603908 C -1.886131 25.619533 -1.893944 25.588283 -1.909569 25.432033 C -1.940819 24.908596 -2.143944 24.322658 -2.378319 24.096096 C -2.433006 24.041408 -2.472069 23.994533 -2.472069 23.994533 Z M -2.097069 24.205471 C -2.089256 24.197658 -2.081444 24.205471 -2.073631 24.228908 C -2.058006 24.244533 -2.058006 24.267971 -2.065819 24.275783 C -2.065819 24.275783 -2.073631 24.267971 -2.081444 24.244533 C -2.089256 24.221096 -2.097069 24.213283 -2.097069 24.205471 Z M -2.026756 24.408596 C -2.034569 24.392971 -2.026756 24.400783 -2.011131 24.432033 C -1.995506 24.455471 -1.972069 24.510158 -1.972069 24.549221 C -1.948631 24.650783 -1.964256 24.642971 -1.995506 24.541408 C -2.018944 24.463283 -2.026756 24.424221 -2.026756 24.408596 Z M -1.331444 24.627346 C -1.300194 24.619533 -1.284569 24.627346 -1.276756 24.642971 C -1.245506 24.674221 -1.253319 24.682033 -1.292381 24.721096 C -1.323631 24.744533 -1.417381 24.791408 -1.495506 24.814846 C -1.573631 24.846096 -1.667381 24.869533 -1.698631 24.877346 C -1.753319 24.892971 -1.761131 24.885158 -1.784569 24.814846 C -1.800194 24.721096 -1.831444 24.744533 -1.495506 24.658596 C -1.409569 24.642971 -1.354881 24.627346 -1.331444 24.627346 Z M -1.878319 24.752346 C -1.831444 24.752346 -1.823631 24.767971 -1.800194 24.892971 C -1.784569 24.963283 -1.753319 25.111721 -1.737694 25.213283 C -1.698631 25.432033 -1.706444 25.502346 -1.745506 25.330471 C -1.761131 25.236721 -1.862694 24.916408 -1.909569 24.783596 C -1.917381 24.760158 -1.909569 24.752346 -1.878319 24.752346 Z M -2.018944 25.057033 C -1.972069 25.057033 -1.964256 25.119533 -1.940819 25.463283 C -1.917381 25.728908 -1.940819 26.088283 -1.987694 26.283596 C -2.058006 26.525783 -2.284569 26.892971 -2.284569 26.892971 C -2.292381 26.908596 -2.339256 26.955471 -2.378319 26.994533 L -2.448631 27.057033 L -2.784569 26.986721 C -3.722069 26.783596 -4.870506 26.627346 -5.722069 26.588283 C -6.104881 26.572658 -6.284569 26.572658 -6.768944 26.596096 L -6.933006 26.611721 L -6.487694 26.455471 C -5.472069 26.103908 -5.284569 26.033596 -5.237694 25.971096 C -5.214256 25.939846 -5.190819 25.900783 -5.190819 25.869533 C -5.190819 25.846096 -5.183006 25.822658 -5.175194 25.822658 C -5.058006 25.822658 -4.495506 25.697658 -4.003319 25.557033 C -3.136131 25.307033 -2.136131 25.057033 -2.018944 25.057033 Z M -9.268944 25.330471 C -9.284569 25.338283 -9.323631 25.385158 -9.409569 25.471096 C -9.612694 25.674221 -9.753319 25.869533 -9.878319 26.103908 C -9.940819 26.236721 -9.948631 26.260158 -9.956444 26.455471 C -9.964256 26.580471 -9.956444 26.713283 -9.940819 26.775783 C -9.917381 26.908596 -9.737694 27.439846 -9.675194 27.588283 C -9.651756 27.642971 -9.636131 27.689846 -9.636131 27.689846 C -9.651756 27.705471 -9.776756 27.408596 -9.854881 27.158596 C -9.995506 26.744533 -10.026756 26.486721 -9.972069 26.221096 C -9.901756 25.900783 -9.683006 25.603908 -9.323631 25.353908 C -9.276756 25.322658 -9.253319 25.307033 -9.268944 25.330471 Z M -7.401756 25.463283 L -7.542381 25.510158 C -7.495506 25.494533 -7.448631 25.478908 -7.401756 25.463283 Z M -10.753319 26.189846 L -10.597069 26.189846 L -10.573631 26.244533 C -10.565819 26.283596 -10.558006 26.307033 -10.558006 26.307033 C -10.565819 26.314846 -10.683006 26.322658 -10.831444 26.338283 C -11.315819 26.377346 -11.893944 26.533596 -12.308006 26.728908 C -12.409569 26.775783 -12.534569 26.838283 -12.589256 26.869533 C -12.690819 26.932033 -12.706444 26.932033 -12.706444 26.830471 C -12.706444 26.775783 -12.597069 26.705471 -12.315819 26.564846 C -11.847069 26.338283 -11.245506 26.189846 -10.753319 26.189846 Z M -10.018944 26.447658 L -10.018944 26.564846 C -10.018944 26.721096 -9.979881 26.892971 -9.878319 27.205471 C -9.729881 27.650783 -9.558006 27.947658 -9.315819 28.189846 C -9.159569 28.338283 -8.893944 28.525783 -8.847069 28.510158 C -8.831444 28.502346 -8.823631 28.510158 -8.831444 28.517971 C -8.847069 28.541408 -8.628319 28.635158 -8.433006 28.697658 C -7.925194 28.853908 -6.893944 28.908596 -6.190819 28.814846 C -5.378319 28.713283 -4.479881 28.439846 -3.729881 28.057033 C -3.456444 27.924221 -3.308006 27.838283 -2.933006 27.596096 C -2.776756 27.494533 -2.643944 27.408596 -2.636131 27.416408 C -2.636131 27.424221 -2.659569 27.447658 -2.690819 27.471096 C -3.714256 28.244533 -5.190819 28.775783 -6.620506 28.900783 C -6.893944 28.924221 -7.433006 28.924221 -7.690819 28.900783 C -8.112694 28.861721 -8.573631 28.752346 -8.917381 28.611721 C -9.339256 28.439846 -9.558006 28.221096 -9.776756 27.767971 C -9.964256 27.369533 -10.214256 26.557033 -10.136131 26.572658 C -10.128319 26.580471 -10.097069 26.549221 -10.065819 26.517971 Z M -11.448631 26.463283 C -11.425194 26.463283 -11.417381 26.471096 -11.409569 26.486721 C -11.393944 26.502346 -11.378319 26.525783 -11.378319 26.533596 C -11.378319 26.541408 -11.440819 26.564846 -11.518944 26.588283 C -11.597069 26.611721 -11.698631 26.642971 -11.745506 26.658596 C -11.862694 26.697658 -11.878319 26.689846 -11.878319 26.635158 C -11.878319 26.588283 -11.831444 26.564846 -11.573631 26.494533 C -11.503319 26.478908 -11.472069 26.463283 -11.448631 26.463283 Z M -10.558006 26.478908 C -10.425194 26.478908 -10.315819 26.494533 -10.268944 26.517971 C -10.198631 26.549221 -10.198631 26.549221 -10.175194 26.713283 C -10.159569 26.807033 -10.159569 26.892971 -10.167381 26.900783 C -10.175194 26.900783 -10.464256 27.010158 -10.808006 27.127346 L -11.440819 27.353908 L -12.065819 27.463283 C -12.409569 27.525783 -12.722069 27.588283 -12.753319 27.588283 C -12.792381 27.603908 -12.800194 27.596096 -12.839256 27.494533 C -12.862694 27.432033 -12.878319 27.361721 -12.878319 27.346096 C -12.878319 27.291408 -12.714256 27.127346 -12.565819 27.033596 C -12.190819 26.807033 -11.526756 26.588283 -10.956444 26.502346 C -10.831444 26.486721 -10.683006 26.478908 -10.558006 26.478908 Z M -14.831444 26.517971 C -14.440819 26.525783 -14.042381 26.588283 -13.784569 26.682033 C -13.581444 26.760158 -13.323631 26.892971 -13.292381 26.939846 C -13.284569 26.963283 -13.253319 26.994533 -13.229881 27.017971 C -13.214256 27.033596 -13.159569 27.111721 -13.128319 27.182033 C -13.097069 27.252346 -13.058006 27.322658 -13.034569 27.338283 C -12.995506 27.377346 -12.909569 27.588283 -12.847069 27.807033 C -12.643944 28.525783 -12.636131 29.080471 -12.831444 29.455471 C -12.995506 29.767971 -13.534569 30.307033 -14.003319 30.619533 C -14.979881 31.267971 -16.222069 31.682033 -17.565819 31.814846 C -18.065819 31.861721 -18.784569 31.838283 -19.065819 31.767971 C -19.136131 31.744533 -19.136131 31.744533 -19.034569 31.760158 C -18.972069 31.760158 -18.854881 31.775783 -18.768944 31.783596 C -18.518944 31.814846 -17.800194 31.814846 -17.472069 31.775783 C -16.628319 31.689846 -15.839256 31.478908 -15.104881 31.158596 C -14.784569 31.017971 -14.401756 30.807033 -14.323631 30.736721 C -14.300194 30.713283 -14.190819 30.627346 -14.081444 30.549221 C -13.487694 30.127346 -13.034569 29.619533 -12.917381 29.252346 C -12.909569 29.205471 -12.886131 29.174221 -12.878319 29.182033 C -12.847069 29.197658 -12.815819 28.971096 -12.815819 28.721096 C -12.815819 28.494533 -12.831444 28.400783 -12.886131 28.088283 C -12.987694 27.580471 -13.011131 27.517971 -13.104881 27.361721 C -13.206444 27.197658 -13.308006 27.103908 -13.487694 26.994533 C -13.933006 26.728908 -14.487694 26.619533 -15.370506 26.603908 L -15.604881 26.603908 L -15.417381 26.580471 L -15.237694 26.557033 L -15.362694 26.549221 C -15.456444 26.549221 -15.425194 26.541408 -15.222069 26.525783 C -15.097069 26.517971 -14.964256 26.517971 -14.831444 26.517971 Z M -15.628319 26.611721 C -15.628319 26.619533 -15.761131 26.635158 -15.917381 26.650783 C -17.503319 26.846096 -18.714256 27.275783 -19.901756 28.072658 C -20.300194 28.346096 -20.573631 28.557033 -20.729881 28.713283 C -20.893944 28.877346 -20.925194 28.932033 -20.972069 29.119533 C -21.026756 29.400783 -20.909569 29.932033 -20.675194 30.494533 C -20.628319 30.588283 -20.597069 30.682033 -20.597069 30.689846 C -20.597069 30.705471 -20.612694 30.713283 -20.628319 30.721096 C -20.683006 30.736721 -20.753319 30.627346 -20.870506 30.385158 C -20.956444 30.197658 -21.065819 29.869533 -21.042381 29.861721 C -20.979881 29.838283 -20.979881 29.822658 -21.026756 29.713283 C -21.065819 29.635158 -21.081444 29.549221 -21.097069 29.408596 C -21.120506 29.158596 -21.097069 29.072658 -20.956444 28.853908 C -20.831444 28.666408 -20.675194 28.510158 -20.370506 28.275783 C -19.315819 27.463283 -18.136131 26.939846 -16.847069 26.713283 C -16.417381 26.642971 -15.628319 26.572658 -15.628319 26.611721 Z M -14.831444 26.682033 C -14.245506 26.705471 -13.839256 26.830471 -13.456444 27.080471 C -13.308006 27.182033 -13.237694 27.260158 -13.143944 27.439846 C -13.034569 27.650783 -13.034569 27.650783 -13.136131 27.666408 C -13.675194 27.744533 -16.175194 28.260158 -17.370506 28.533596 C -17.714256 28.619533 -17.745506 28.650783 -17.683006 28.908596 C -17.667381 28.971096 -17.651756 29.041408 -17.651756 29.057033 C -17.651756 29.088283 -17.917381 29.182033 -18.362694 29.307033 C -18.917381 29.463283 -20.628319 29.892971 -20.683006 29.892971 C -20.714256 29.885158 -20.753319 29.892971 -20.784569 29.900783 C -20.831444 29.916408 -20.847069 29.892971 -20.847069 29.799221 C -20.854881 29.721096 -20.878319 29.736721 -19.933006 29.432033 C -19.018944 29.135158 -18.722069 29.041408 -18.347069 28.939846 C -17.987694 28.846096 -17.972069 28.838283 -18.097069 28.853908 C -18.308006 28.877346 -18.628319 28.963283 -19.323631 29.197658 C -20.464256 29.580471 -20.847069 29.689846 -20.878319 29.650783 C -20.909569 29.619533 -20.925194 29.221096 -20.901756 29.111721 C -20.847069 28.900783 -20.667381 28.689846 -20.276756 28.392971 C -19.347069 27.674221 -18.425194 27.221096 -17.331444 26.939846 C -16.753319 26.799221 -16.214256 26.721096 -15.472069 26.682033 C -15.237694 26.674221 -15.026756 26.666408 -14.831444 26.682033 Z M -6.526756 27.471096 C -5.722069 27.478908 -4.956444 27.572658 -3.987694 27.744533 C -3.729881 27.791408 -3.518944 27.830471 -3.511131 27.830471 C -3.464256 27.830471 -3.550194 27.885158 -3.800194 28.010158 C -4.589256 28.400783 -5.448631 28.650783 -6.323631 28.760158 C -6.628319 28.791408 -7.229881 28.807033 -7.487694 28.783596 C -8.229881 28.721096 -8.886131 28.510158 -9.190819 28.236721 C -9.347069 28.096096 -9.565819 27.791408 -9.526756 27.760158 C -9.518944 27.752346 -9.409569 27.736721 -9.284569 27.713283 C -8.167381 27.549221 -7.323631 27.471096 -6.526756 27.471096 Z M -8.698631 28.564846 C -8.698631 28.557033 -8.675194 28.564846 -8.651756 28.572658 C -8.628319 28.588283 -8.511131 28.627346 -8.386131 28.658596 C -8.261131 28.697658 -8.175194 28.728908 -8.198631 28.728908 C -8.276756 28.728908 -8.722069 28.580471 -8.698631 28.564846 Z M -12.893944 28.650783 C -12.878319 28.650783 -12.878319 28.721096 -12.886131 28.869533 C -12.909569 29.236721 -12.995506 29.447658 -13.276756 29.775783 C -13.972069 30.611721 -15.190819 31.260158 -16.604881 31.564846 C -16.776756 31.603908 -16.917381 31.635158 -16.925194 31.635158 C -16.956444 31.494533 -17.003319 31.338283 -17.026756 31.189846 L -17.073631 31.064846 L -17.097069 30.908596 L -16.933006 30.767971 C -16.073631 30.103908 -15.073631 29.541408 -13.933006 29.064846 C -13.440819 28.861721 -12.917381 28.650783 -12.893944 28.650783 Z M -8.136131 28.736721 C -8.128319 28.728908 -8.097069 28.728908 -8.089256 28.736721 C -8.073631 28.744533 -8.089256 28.744533 -8.112694 28.744533 C -8.136131 28.744533 -8.151756 28.744533 -8.136131 28.736721 Z M -8.018944 28.752346 C -8.003319 28.744533 -7.987694 28.744533 -7.972069 28.752346 C -7.956444 28.760158 -7.972069 28.767971 -7.995506 28.767971 C -8.026756 28.767971 -8.034569 28.760158 -8.018944 28.752346 Z M -7.886131 28.775783 C -7.870506 28.767971 -7.854881 28.767971 -7.847069 28.775783 C -7.839256 28.783596 -7.854881 28.783596 -7.878319 28.783596 C -7.893944 28.783596 -7.901756 28.775783 -7.886131 28.775783 Z M -15.768944 28.963283 C -15.761131 28.963283 -15.878319 29.025783 -16.034569 29.103908 C -16.854881 29.533596 -17.604881 30.057033 -18.667381 30.947658 C -18.854881 31.103908 -19.089256 31.307033 -19.198631 31.400783 C -19.300194 31.494533 -19.393944 31.572658 -19.401756 31.572658 C -19.440819 31.572658 -19.722069 31.455471 -19.800194 31.408596 C -20.112694 31.236721 -20.386131 30.908596 -20.604881 30.478908 C -20.690819 30.322658 -20.784569 30.088283 -20.784569 30.064846 C -20.784569 30.025783 -19.815819 29.744533 -18.808006 29.494533 C -18.229881 29.353908 -18.097069 29.307033 -17.753319 29.182033 L -17.636131 29.142971 L -17.589256 29.189846 C -17.565819 29.221096 -17.518944 29.244533 -17.495506 29.252346 C -17.440819 29.267971 -17.151756 29.221096 -16.331444 29.057033 C -16.034569 29.002346 -15.784569 28.963283 -15.768944 28.963283 Z M -21.104881 29.892971 C -21.097069 29.900783 -21.089256 29.932033 -21.089256 29.971096 L -21.081444 30.033596 L -21.245506 30.080471 C -21.401756 30.119533 -21.534569 30.135158 -21.589256 30.111721 C -21.620506 30.096096 -21.620506 30.033596 -21.589256 30.017971 C -21.542381 29.994533 -21.120506 29.877346 -21.104881 29.892971 Z M -17.284569 31.189846 C -17.284569 31.213283 -17.276756 31.275783 -17.261131 31.330471 C -17.245506 31.408596 -17.237694 31.424221 -17.198631 31.424221 C -17.151756 31.424221 -17.143944 31.439846 -17.128319 31.635158 C -17.120506 31.650783 -17.159569 31.666408 -17.292381 31.682033 C -17.386131 31.697658 -17.604881 31.713283 -17.776756 31.721096 L -18.081444 31.728908 L -17.995506 31.642971 C -17.940819 31.596096 -17.768944 31.447658 -17.604881 31.314846 Z M -17.284569 31.189846 " transform="matrix(0.5,0,0,0.5,13.704784,-2.247267)"/>
</g>
</svg>
