<?xml version="1.0" encoding="UTF-8"?>
<svg xmlns="http://www.w3.org/2000/svg" xmlns:xlink="http://www.w3.org/1999/xlink" width="16pt" height="16pt" viewBox="0 0 16 16" version="1.1">
<g id="surface1">
<path style=" stroke:none;fill-rule:evenodd;fill:rgb(60%,60%,60%);fill-opacity:1;" d="M 3.734375 0.949219 L 12.265625 0.949219 C 13.800781 0.949219 15.050781 2.199219 15.050781 3.734375 L 15.050781 12.265625 C 15.050781 13.800781 13.800781 15.050781 12.265625 15.050781 L 3.734375 15.050781 C 2.199219 15.050781 0.949219 13.800781 0.949219 12.265625 L 0.949219 3.734375 C 0.949219 2.199219 2.199219 0.949219 3.734375 0.949219 Z M 3.734375 0.949219 "/>
<path style=" stroke:none;fill-rule:nonzero;fill:rgb(90.196078%,90.196078%,90.196078%);fill-opacity:1;" d="M 4.070312 6.21875 L 3.988281 6.21875 C 3.355469 6.21875 2.84375 6.734375 2.84375 7.371094 L 2.84375 10.992188 C 2.84375 11.625 3.355469 12.140625 3.988281 12.140625 L 12.011719 12.140625 C 12.644531 12.140625 13.15625 11.625 13.15625 10.992188 L 13.15625 7.371094 C 13.15625 6.734375 12.644531 6.21875 12.011719 6.21875 L 11.929688 6.21875 L 11.929688 9.003906 C 11.929688 9.253906 11.828125 9.480469 11.667969 9.644531 C 11.5 9.808594 11.277344 9.910156 11.023438 9.910156 L 4.976562 9.910156 C 4.722656 9.910156 4.5 9.808594 4.332031 9.644531 C 4.171875 9.480469 4.070312 9.253906 4.070312 9.003906 Z M 4.070312 6.21875 "/>
<path style=" stroke:none;fill-rule:nonzero;fill:rgb(35.686275%,35.686275%,35.686275%);fill-opacity:1;" d="M 4.070312 6.21875 L 4.070312 9.003906 C 4.070312 9.253906 4.171875 9.480469 4.332031 9.644531 C 4.5 9.808594 4.722656 9.910156 4.976562 9.910156 L 11.023438 9.910156 C 11.277344 9.910156 11.5 9.808594 11.667969 9.644531 C 11.828125 9.480469 11.929688 9.253906 11.929688 9.003906 L 11.929688 6.21875 Z M 4.070312 6.21875 "/>
<path style=" stroke:none;fill-rule:nonzero;fill:rgb(32.156863%,32.156863%,32.156863%);fill-opacity:1;" d="M 4.542969 10.839844 L 11.457031 10.839844 L 11.457031 12.140625 L 4.542969 12.140625 Z M 4.542969 10.839844 "/>
<path style=" stroke:none;fill-rule:nonzero;fill:rgb(80%,80%,80%);fill-opacity:1;" d="M 4.984375 11.316406 L 11.015625 11.316406 L 11.015625 13.109375 L 4.984375 13.109375 Z M 4.984375 11.316406 "/>
<path style=" stroke:none;fill-rule:nonzero;fill:rgb(80%,80%,80%);fill-opacity:1;" d="M 5.433594 11.316406 L 10.566406 11.316406 L 10.566406 12.679688 L 5.433594 12.679688 Z M 5.433594 11.316406 "/>
<path style=" stroke:none;fill-rule:nonzero;fill:rgb(100%,100%,100%);fill-opacity:1;" d="M 12.589844 10.949219 C 12.589844 11.132812 12.441406 11.28125 12.257812 11.28125 C 12.078125 11.28125 11.925781 11.132812 11.925781 10.949219 C 11.925781 10.765625 12.078125 10.617188 12.257812 10.617188 C 12.441406 10.617188 12.589844 10.765625 12.589844 10.949219 Z M 12.589844 10.949219 "/>
<path style=" stroke:none;fill-rule:nonzero;fill:rgb(80%,80%,80%);fill-opacity:1;" d="M 4.929688 2.890625 L 10.960938 2.890625 L 10.960938 6.949219 L 4.929688 6.949219 Z M 4.929688 2.890625 "/>
<path style=" stroke:none;fill-rule:nonzero;fill:rgb(80%,80%,80%);fill-opacity:1;" d="M 5.378906 3.292969 L 10.511719 3.292969 L 10.511719 6.949219 L 5.378906 6.949219 Z M 5.378906 3.292969 "/>
<path style=" stroke:none;fill-rule:evenodd;fill:rgb(75.294118%,21.176471%,18.823529%);fill-opacity:1;" d="M 14.296875 11.316406 C 14.296875 12.976562 12.957031 14.316406 11.296875 14.316406 C 9.640625 14.316406 8.296875 12.976562 8.296875 11.316406 C 8.296875 9.660156 9.640625 8.316406 11.296875 8.316406 C 12.957031 8.316406 14.296875 9.660156 14.296875 11.316406 Z M 14.296875 11.316406 "/>
<path style=" stroke:none;fill-rule:evenodd;fill:rgb(100%,100%,100%);fill-opacity:1;" d="M 11.296875 10.097656 C 10.9375 10.105469 10.570312 10.1875 10.253906 10.367188 C 10.125 10.449219 9.976562 10.554688 9.859375 10.660156 C 9.683594 10.835938 9.527344 11.042969 9.421875 11.273438 C 9.707031 11.898438 10.335938 12.359375 11.023438 12.429688 C 11.476562 12.480469 11.949219 12.402344 12.34375 12.179688 C 12.46875 12.09375 12.625 11.988281 12.734375 11.882812 C 12.917969 11.707031 13.070312 11.5 13.171875 11.273438 C 12.890625 10.644531 12.265625 10.183594 11.574219 10.113281 C 11.484375 10.105469 11.390625 10.097656 11.296875 10.097656 Z M 11.296875 10.570312 C 11.675781 10.5625 12.007812 10.898438 12 11.273438 C 12.015625 11.6875 11.601562 12.042969 11.195312 11.964844 C 10.78125 11.917969 10.492188 11.453125 10.628906 11.0625 C 10.714844 10.777344 10.996094 10.566406 11.296875 10.570312 Z M 11.296875 11.039062 C 11.234375 11.039062 11.175781 11.0625 11.132812 11.105469 C 11.089844 11.152344 11.0625 11.210938 11.0625 11.273438 C 11.0625 11.402344 11.171875 11.507812 11.296875 11.507812 C 11.429688 11.507812 11.53125 11.402344 11.53125 11.273438 C 11.53125 11.140625 11.429688 11.039062 11.296875 11.039062 Z M 11.296875 11.039062 "/>
</g>
</svg>
