<?xml version="1.0" encoding="UTF-8"?>
<svg xmlns="http://www.w3.org/2000/svg" xmlns:xlink="http://www.w3.org/1999/xlink" width="16pt" height="16pt" viewBox="0 0 16 16" version="1.1">
<g id="surface1">
<path style=" stroke:none;fill-rule:evenodd;fill:rgb(54.509804%,75.686275%,83.921569%);fill-opacity:1;" d="M 3.734375 0.949219 L 12.265625 0.949219 C 13.800781 0.949219 15.050781 2.199219 15.050781 3.734375 L 15.050781 12.265625 C 15.050781 13.800781 13.800781 15.050781 12.265625 15.050781 L 3.734375 15.050781 C 2.199219 15.050781 0.949219 13.800781 0.949219 12.265625 L 0.949219 3.734375 C 0.949219 2.199219 2.199219 0.949219 3.734375 0.949219 Z M 3.734375 0.949219 "/>
<path style=" stroke:none;fill-rule:nonzero;fill:rgb(100%,100%,100%);fill-opacity:1;" d="M 11 8.957031 C 11.277344 10.882812 9.902344 13.542969 9.445312 13.40625 C 9.292969 13.589844 6.441406 11.84375 6.109375 9.953125 C 6.078125 9.773438 5.285156 8.539062 5.648438 8.925781 C 6.164062 9.472656 5.117188 7.84375 5.347656 7.339844 C 5.695312 6.597656 7.605469 6.488281 8.5 6.488281 C 9.320312 6.488281 10.277344 6.121094 10.6875 6.585938 C 11.03125 6.976562 10.882812 8.125 11 8.957031 Z M 11 8.957031 "/>
<path style=" stroke:none;fill-rule:nonzero;fill:rgb(30.980392%,30.980392%,30.980392%);fill-opacity:1;" d="M 8.582031 11.820312 C 8.582031 11.765625 8.699219 11.699219 9.058594 11.546875 C 9.226562 11.472656 9.28125 11.46875 9.324219 11.515625 C 9.347656 11.546875 9.363281 11.585938 9.351562 11.597656 C 9.332031 11.621094 8.644531 11.871094 8.601562 11.871094 C 8.589844 11.871094 8.582031 11.847656 8.582031 11.820312 Z M 8.582031 11.820312 "/>
<path style=" stroke:none;fill-rule:nonzero;fill:rgb(30.980392%,30.980392%,30.980392%);fill-opacity:1;" d="M 8.761719 11.171875 C 8.5625 11.085938 8.507812 10.960938 8.695312 11.019531 C 8.996094 11.117188 9.003906 11.101562 8.984375 10.558594 C 8.96875 10.21875 8.984375 10.0625 9.027344 10.09375 C 9.0625 10.125 9.101562 10.394531 9.113281 10.699219 C 9.140625 11.304688 9.125 11.328125 8.761719 11.171875 Z M 8.761719 11.171875 "/>
<path style=" stroke:none;fill-rule:nonzero;fill:rgb(30.980392%,30.980392%,30.980392%);fill-opacity:1;" d="M 4.636719 9.292969 C 4.449219 9.167969 4.296875 9.054688 4.296875 9.042969 C 4.300781 9.03125 4.394531 8.941406 4.511719 8.84375 C 4.714844 8.679688 4.742188 8.535156 4.742188 8.421875 C 4.742188 8.359375 3.992188 7.324219 3.523438 6.738281 C 3.34375 6.511719 3.183594 6.292969 3.164062 6.25 C 3.148438 6.199219 3.171875 6.125 3.226562 6.050781 C 3.410156 5.8125 3.722656 5.425781 3.894531 5.09375 C 4.066406 4.765625 4.273438 4.5 4.308594 4.554688 C 4.359375 4.640625 4.410156 4.585938 4.816406 4.042969 C 5.226562 3.496094 5.5625 2.984375 5.644531 2.984375 C 5.734375 2.984375 5.699219 3.078125 5.523438 3.277344 C 5.207031 3.609375 5.109375 4.074219 5.109375 4.375 C 5.082031 4.949219 5.546875 5.359375 6.050781 5.59375 C 6.699219 5.746094 7.300781 5.675781 7.417969 5.136719 C 7.511719 4.6875 7.191406 4.410156 6.824219 4.296875 C 6.734375 4.339844 6.472656 4.613281 6.390625 4.878906 C 6.363281 4.96875 6.28125 4.9375 6.28125 4.832031 C 6.28125 4.617188 6.523438 4.066406 6.652344 3.835938 C 6.832031 3.503906 7.027344 3.488281 7.191406 3.523438 C 7.28125 3.539062 7.347656 3.484375 7.433594 3.417969 L 7.546875 3.328125 C 7.945312 3.625 8.394531 3.839844 8.820312 4.085938 C 9.300781 4.425781 9.761719 4.621094 9.765625 4.667969 C 9.769531 4.699219 9.765625 4.699219 9.761719 4.90625 C 9.753906 5.269531 9.757812 5.289062 9.84375 5.289062 C 10.023438 5.289062 10.203125 5.1875 10.445312 4.898438 C 10.863281 4.390625 10.917969 4.386719 10.917969 3.960938 C 10.949219 3.636719 10.519531 2.9375 10.25 3.199219 C 10.140625 3.3125 10.007812 3.710938 10.046875 3.816406 C 10.078125 3.886719 10.25 3.9375 10.34375 3.902344 C 10.441406 3.863281 10.425781 3.941406 10.3125 4.042969 C 10.167969 4.179688 10.003906 4.203125 9.886719 4.105469 C 9.738281 3.984375 9.703125 3.515625 9.8125 3.210938 C 9.917969 2.921875 10.296875 2.617188 10.375 2.585938 C 10.464844 2.550781 10.5625 2.625 10.921875 3.09375 C 11.496094 3.957031 12.125 4.734375 12.683594 5.558594 C 12.753906 5.660156 12.820312 5.808594 12.835938 5.890625 C 12.855469 6.023438 12.828125 6.070312 12.523438 6.421875 C 12.015625 7 11.675781 7.46875 11.675781 7.589844 C 11.675781 7.71875 11.9375 7.820312 12.167969 7.855469 C 12.335938 7.878906 12.445312 7.9375 12.445312 8 C 12.171875 8.371094 11.09375 9.890625 10.964844 9.785156 C 10.953125 9.765625 10.933594 9.519531 10.917969 9.242188 C 10.820312 8.488281 10.785156 8.082031 10.695312 7.347656 C 10.671875 7.203125 10.664062 7.203125 10.492188 7.226562 C 10.0625 7.285156 9.53125 7.320312 9.109375 7.390625 C 8.769531 7.449219 8.472656 7.6875 8.332031 7.609375 C 8.191406 7.535156 7.441406 7.398438 6.996094 7.34375 C 5.683594 7.179688 5.898438 7.207031 5.898438 7.367188 L 6.1875 9.699219 C 6.1875 9.699219 6.324219 10.324219 6.207031 10.324219 C 5.582031 10.085938 5.121094 9.628906 4.636719 9.292969 Z M 4.636719 9.292969 "/>
<path style=" stroke:none;fill-rule:nonzero;fill:rgb(30.980392%,30.980392%,30.980392%);fill-opacity:1;" d="M 8.195312 9.9375 C 8.195312 10.148438 8.019531 10.324219 7.804688 10.324219 C 7.59375 10.324219 7.417969 10.148438 7.417969 9.9375 C 7.417969 9.722656 7.59375 9.546875 7.804688 9.546875 C 8.019531 9.546875 8.195312 9.722656 8.195312 9.9375 Z M 8.195312 9.9375 "/>
<path style=" stroke:none;fill-rule:nonzero;fill:rgb(30.980392%,30.980392%,30.980392%);fill-opacity:1;" d="M 6.75 9.160156 C 6.722656 9.160156 6.707031 9.164062 6.699219 9.167969 C 6.679688 9.183594 6.65625 9.261719 6.652344 9.34375 L 6.644531 9.5 L 7.179688 9.523438 C 7.480469 9.550781 7.8125 9.558594 8.09375 9.539062 C 8.195312 9.539062 8.207031 9.53125 8.183594 9.480469 C 8.121094 9.34375 8.019531 9.265625 7.898438 9.257812 C 7.832031 9.253906 7.546875 9.226562 7.257812 9.199219 C 7.015625 9.171875 6.835938 9.160156 6.75 9.160156 Z M 6.75 9.160156 "/>
<path style=" stroke:none;fill-rule:nonzero;fill:rgb(30.980392%,30.980392%,30.980392%);fill-opacity:1;" d="M 9.0625 8.773438 C 9.023438 8.773438 9 8.777344 8.996094 8.78125 C 8.972656 8.800781 8.964844 8.894531 8.96875 8.988281 C 8.984375 9.140625 8.992188 9.15625 9.089844 9.152344 C 9.355469 9.164062 9.625 9.160156 9.894531 9.160156 C 10.105469 9.152344 10.367188 9.015625 10.515625 8.945312 C 10.515625 8.921875 10.496094 8.90625 10.472656 8.90625 C 10.449219 8.90625 10.113281 8.871094 9.730469 8.828125 C 9.421875 8.792969 9.175781 8.773438 9.0625 8.773438 Z M 9.0625 8.773438 "/>
<path style=" stroke:none;fill-rule:nonzero;fill:rgb(30.980392%,30.980392%,30.980392%);fill-opacity:1;" d="M 9.742188 9.546875 C 9.742188 9.761719 9.570312 9.9375 9.355469 9.9375 C 9.140625 9.9375 8.96875 9.761719 8.96875 9.546875 C 8.96875 9.335938 9.140625 9.160156 9.355469 9.160156 C 9.570312 9.160156 9.742188 9.335938 9.742188 9.546875 Z M 9.742188 9.546875 "/>
</g>
</svg>
