<?xml version="1.0" encoding="UTF-8"?>
<svg xmlns="http://www.w3.org/2000/svg" xmlns:xlink="http://www.w3.org/1999/xlink" width="16pt" height="16pt" viewBox="0 0 16 16" version="1.1">
<g id="surface1">
<path style=" stroke:none;fill-rule:evenodd;fill:rgb(76.078431%,20.784314%,16.470588%);fill-opacity:1;" d="M 3.734375 0.949219 L 12.265625 0.949219 C 13.800781 0.949219 15.050781 2.199219 15.050781 3.734375 L 15.050781 12.265625 C 15.050781 13.800781 13.800781 15.050781 12.265625 15.050781 L 3.734375 15.050781 C 2.199219 15.050781 0.949219 13.800781 0.949219 12.265625 L 0.949219 3.734375 C 0.949219 2.199219 2.199219 0.949219 3.734375 0.949219 Z M 3.734375 0.949219 "/>
<path style=" stroke:none;fill-rule:nonzero;fill:rgb(100%,100%,100%);fill-opacity:1;" d="M 8.855469 2.578125 L 6.992188 2.609375 L 6.617188 2.894531 L 6.644531 2.925781 L 5.417969 2.957031 L 5.511719 2.832031 L 2.703125 2.769531 L 2.671875 2.957031 L 2.640625 3.242188 L 2.832031 3.59375 L 2.738281 4.320312 L 2.578125 4.953125 L 2.671875 5.550781 L 2.703125 6.027344 L 2.894531 6.65625 L 2.832031 6.976562 L 2.863281 7.324219 L 3.082031 7.578125 L 3.144531 7.984375 L 2.738281 8.144531 L 2.800781 9.410156 L 3.050781 9.601562 L 2.894531 10.707031 L 2.765625 10.769531 L 2.671875 12.890625 L 2.785156 12.875 L 3.050781 12.929688 C 3.050781 12.929688 3.375 13.042969 3.441406 13.0625 C 3.511719 13.085938 3.609375 12.964844 3.609375 12.964844 L 3.875 12.964844 L 4.101562 12.917969 L 4.222656 12.972656 L 4.335938 12.964844 L 4.613281 12.941406 L 4.746094 12.886719 L 4.804688 13.019531 L 4.847656 12.984375 L 4.96875 12.929688 L 5.226562 12.90625 L 5.28125 12.984375 C 5.28125 12.984375 5.59375 13.019531 5.703125 13.019531 C 5.816406 13.019531 5.796875 12.929688 5.796875 12.929688 C 5.796875 12.929688 5.828125 12.917969 5.882812 12.972656 C 5.9375 13.03125 6.019531 12.953125 6.019531 12.953125 L 6.128906 12.894531 L 6.207031 12.972656 L 6.285156 13.03125 L 6.5 12.984375 L 6.84375 12.984375 L 6.921875 12.964844 L 7.246094 13.421875 L 7.265625 13.1875 L 7.789062 13.1875 C 7.835938 13.1875 7.8125 13.34375 7.8125 13.34375 L 8.15625 13.230469 L 8.335938 13.410156 L 8.703125 13.175781 L 8.90625 13.140625 L 9.296875 13.121094 L 9.855469 13.121094 L 10.488281 13.164062 L 10.65625 13.097656 L 10.777344 12.984375 L 11.113281 13.175781 L 11.359375 13.074219 C 11.359375 13.074219 11.625 13.175781 11.671875 13.1875 C 11.714844 13.199219 12.128906 13.140625 12.128906 13.140625 L 12.382812 13.074219 L 12.21875 12.953125 L 12.328125 12.90625 L 12.796875 12.929688 L 13.421875 13.085938 L 13.410156 9.003906 L 13.410156 8.75 L 13.253906 8.769531 L 13.054688 8.804688 L 13.054688 8.679688 L 13.164062 8.578125 L 13.253906 8.445312 L 13.277344 7.964844 L 13.242188 7.617188 L 13.097656 7.191406 L 12.964844 7.015625 L 12.941406 6.847656 L 12.976562 6.734375 L 12.984375 6.703125 L 13.132812 6.644531 L 13.15625 6.589844 L 13.042969 6.398438 L 13.144531 6.34375 L 13.300781 6.246094 L 13.363281 5.679688 L 13.394531 5.296875 L 13.394531 3.96875 L 13.300781 3.589844 L 13.363281 3.179688 L 13.394531 3.019531 L 13.109375 2.894531 L 12.039062 2.703125 L 11.878906 2.925781 L 11.816406 2.671875 L 9.769531 2.640625 L 9.703125 2.988281 L 9.203125 3.050781 L 9.136719 2.832031 L 8.695312 2.769531 Z M 8.855469 2.578125 "/>
<path style=" stroke:none;fill-rule:nonzero;fill:rgb(76.078431%,20.784314%,16.470588%);fill-opacity:1;" d="M 10.324219 4.320312 L 8.773438 5.09375 L 11.097656 6.644531 L 11.097656 5.09375 Z M 4.902344 4.707031 L 3.742188 5.09375 L 10.324219 11.679688 L 11.484375 11.679688 L 12.257812 9.742188 Z M 4.128906 8.96875 L 3.742188 10.90625 L 4.515625 11.679688 L 5.289062 11.679688 L 6.453125 11.292969 Z M 4.128906 8.96875 "/>
</g>
</svg>
