<?xml version="1.0" encoding="UTF-8"?>
<svg xmlns="http://www.w3.org/2000/svg" xmlns:xlink="http://www.w3.org/1999/xlink" width="16pt" height="16pt" viewBox="0 0 16 16" version="1.1">
<g id="surface1">
<path style=" stroke:none;fill-rule:nonzero;fill:rgb(7.843137%,86.666667%,69.411765%);fill-opacity:1;" d="M 15 3.484375 C 14.972656 3.195312 14.941406 2.90625 14.832031 2.648438 C 14.691406 2.316406 14.488281 2.015625 14.234375 1.765625 C 13.984375 1.511719 13.683594 1.308594 13.347656 1.167969 C 13.09375 1.058594 12.804688 1.027344 12.515625 1 L 8 1 L 8 8 L 15 8 Z M 15 3.484375 "/>
<path style=" stroke:none;fill-rule:nonzero;fill:rgb(81.176471%,30.980392%,54.901961%);fill-opacity:1;" d="M 3.484375 1 C 3.195312 1.027344 2.90625 1.058594 2.648438 1.167969 C 2.316406 1.308594 2.015625 1.511719 1.765625 1.765625 C 1.511719 2.015625 1.308594 2.316406 1.167969 2.648438 C 1.058594 2.90625 1.027344 3.195312 1 3.484375 L 1 8 L 8 8 L 8 1 Z M 3.484375 1 "/>
<path style=" stroke:none;fill-rule:nonzero;fill:rgb(40%,33.333333%,89.411765%);fill-opacity:1;" d="M 12.515625 15 C 12.804688 14.972656 13.09375 14.941406 13.351562 14.832031 C 13.683594 14.691406 13.984375 14.488281 14.234375 14.234375 C 14.488281 13.984375 14.691406 13.683594 14.832031 13.351562 C 14.941406 13.09375 14.972656 12.804688 15 12.515625 L 15 8 L 8 8 L 8 15 Z M 12.515625 15 "/>
<path style=" stroke:none;fill-rule:nonzero;fill:rgb(7.843137%,86.666667%,69.411765%);fill-opacity:1;" d="M 1 12.515625 C 1.027344 12.804688 1.0625 13.09375 1.167969 13.351562 C 1.308594 13.683594 1.511719 13.984375 1.765625 14.234375 C 2.015625 14.488281 2.316406 14.691406 2.652344 14.832031 C 2.90625 14.941406 3.195312 14.972656 3.484375 15 L 8 15 L 8 8 L 1 8 Z M 1 12.515625 "/>
<path style=" stroke:none;fill-rule:evenodd;fill:rgb(24.705882%,24.705882%,24.705882%);fill-opacity:1;" d="M 4.761719 2.644531 L 11.238281 2.644531 C 12.40625 2.644531 13.355469 3.59375 13.355469 4.761719 L 13.355469 11.238281 C 13.355469 12.40625 12.40625 13.355469 11.238281 13.355469 L 4.761719 13.355469 C 3.59375 13.355469 2.644531 12.40625 2.644531 11.238281 L 2.644531 4.761719 C 2.644531 3.59375 3.59375 2.644531 4.761719 2.644531 Z M 4.761719 2.644531 "/>
<path style="fill:none;stroke-width:2;stroke-linecap:round;stroke-linejoin:miter;stroke:rgb(100%,100%,100%);stroke-opacity:1;stroke-miterlimit:4;" d="M -32.896123 6.589672 L -24.899726 6.589672 " transform="matrix(0.457726,0,0,0.457726,20.315212,8.194676)"/>
<path style="fill:none;stroke-width:2;stroke-linecap:round;stroke-linejoin:bevel;stroke:rgb(100%,100%,100%);stroke-opacity:1;stroke-miterlimit:4;" d="M -32.896123 0.59024 C -32.896123 0.59024 -28.850987 0.940136 -28.893657 -3.403691 C -28.944862 -7.756053 -32.896123 -7.406157 -32.896123 -7.406157 M -32.913191 0.59024 L -32.913191 -7.414691 " transform="matrix(0.457726,0,0,0.457726,20.315212,8.194676)"/>
<path style="fill:none;stroke-width:2;stroke-linecap:round;stroke-linejoin:bevel;stroke:rgb(100%,100%,100%);stroke-opacity:1;stroke-miterlimit:4;" d="M -24.899726 -3.403691 C -24.899726 -3.403691 -20.89726 -2.942853 -20.89726 -5.409191 C -20.89726 -7.866995 -24.899726 -7.406157 -24.899726 -7.406157 M -24.899726 0.59024 L -24.899726 -7.406157 " transform="matrix(0.457726,0,0,0.457726,20.315212,8.194676)"/>
</g>
</svg>
