<?xml version="1.0" encoding="UTF-8"?>
<svg xmlns="http://www.w3.org/2000/svg" xmlns:xlink="http://www.w3.org/1999/xlink" width="16pt" height="16pt" viewBox="0 0 16 16" version="1.1">
<g id="surface1">
<path style=" stroke:none;fill-rule:evenodd;fill:rgb(100%,83.137255%,29.019608%);fill-opacity:1;" d="M 3.734375 0.949219 L 12.265625 0.949219 C 13.800781 0.949219 15.050781 2.199219 15.050781 3.734375 L 15.050781 12.265625 C 15.050781 13.800781 13.800781 15.050781 12.265625 15.050781 L 3.734375 15.050781 C 2.199219 15.050781 0.949219 13.800781 0.949219 12.265625 L 0.949219 3.734375 C 0.949219 2.199219 2.199219 0.949219 3.734375 0.949219 Z M 3.734375 0.949219 "/>
<path style=" stroke:none;fill-rule:nonzero;fill:rgb(95.686275%,70.588235%,0%);fill-opacity:1;" d="M 8 2.949219 C 5.210938 2.949219 2.949219 5.210938 2.949219 8 C 2.949219 10.789062 5.210938 13.050781 8 13.050781 C 10.789062 13.050781 13.050781 10.789062 13.050781 8 C 13.050781 5.210938 10.789062 2.949219 8 2.949219 Z M 8 2.949219 "/>
<path style=" stroke:none;fill-rule:nonzero;fill:rgb(100%,83.137255%,29.019608%);fill-opacity:1;" d="M 7.355469 2.992188 C 6.703125 3.078125 6.089844 3.285156 5.539062 3.59375 L 5.898438 3.679688 L 6.128906 3.84375 L 6.128906 3.980469 L 6.519531 4.234375 L 6.429688 4.605469 L 6.21875 4.445312 L 6.082031 4.605469 L 5.921875 4.699219 L 5.828125 4.421875 L 5.875 4.257812 L 5.828125 4.144531 L 5.597656 3.9375 L 5.503906 3.9375 L 5.597656 4.167969 L 5.597656 4.375 C 5.503906 4.347656 5.414062 4.339844 5.320312 4.328125 L 5.574219 4.511719 L 5.597656 4.628906 L 5.898438 4.882812 L 6.199219 4.8125 L 6.199219 4.628906 L 6.335938 4.71875 L 6.265625 4.882812 L 6.5 4.882812 L 6.613281 5.089844 L 6.75 5.25 L 7.03125 5.296875 L 6.867188 5.460938 L 6.820312 5.621094 L 7.03125 5.621094 L 7.28125 5.761719 L 7.28125 6.175781 L 7.167969 6.175781 L 7.050781 6.292969 L 6.796875 6.175781 L 6.707031 5.921875 L 6.519531 5.808594 L 6.5 5.714844 L 6.199219 5.644531 L 6.035156 5.828125 L 5.851562 5.921875 L 5.96875 6.128906 L 5.804688 6.085938 L 5.710938 5.875 L 5.921875 5.644531 L 5.828125 5.644531 L 5.640625 5.808594 L 5.597656 6.039062 L 5.4375 6.246094 L 5.390625 5.945312 L 5.296875 5.898438 C 5.199219 6.003906 5.125 6.128906 5.042969 6.246094 L 4.71875 6.269531 L 4.558594 6.386719 L 4.625 6.5 L 4.8125 6.660156 L 5.066406 6.660156 L 5.410156 6.546875 L 5.574219 6.570312 L 5.710938 6.707031 L 6.082031 6.339844 L 6.335938 6.269531 L 6.707031 6.3125 L 7.050781 6.40625 C 7.242188 6.625 7.429688 6.851562 7.609375 7.078125 L 7.816406 7.609375 L 7.722656 7.703125 L 7.90625 7.980469 L 7.699219 8.464844 C 7.53125 8.65625 7.359375 8.847656 7.191406 9.042969 L 6.9375 8.832031 L 6.84375 8.949219 L 6.566406 8.789062 L 6.472656 8.878906 L 6.21875 8.878906 L 6.058594 9.0625 L 6.152344 9.390625 L 5.96875 9.597656 L 5.988281 9.96875 L 5.828125 10.242188 L 5.941406 10.472656 C 5.953125 10.640625 5.96875 10.8125 5.96875 10.984375 C 5.886719 11.210938 5.789062 11.421875 5.710938 11.652344 L 5.667969 12.023438 L 5.667969 12.207031 L 5.527344 12.207031 L 5.296875 12.070312 L 5.078125 12.070312 C 5.898438 12.65625 6.90625 13.007812 8 13.007812 C 8.820312 13.007812 9.59375 12.808594 10.277344 12.460938 L 10.289062 12.4375 L 10.125 12.277344 L 10.078125 12.113281 L 9.824219 12.046875 L 9.640625 11.539062 L 9.6875 11.421875 L 9.570312 11.214844 L 9.269531 11.144531 L 9.132812 10.796875 L 9.15625 10.335938 L 8.921875 10.011719 L 8.902344 9.6875 C 9.21875 9.53125 9.511719 9.367188 9.824219 9.203125 L 9.988281 8.878906 L 10.265625 8.8125 L 10.425781 8.394531 L 10.796875 8.441406 L 11.140625 8.1875 L 11.488281 8.511719 L 11.488281 8.558594 C 11.59375 8.527344 11.71875 8.523438 11.8125 8.464844 L 11.882812 8.234375 L 11.882812 8 L 12.113281 8.027344 C 12.09375 7.871094 12.0625 7.695312 12.042969 7.539062 L 12.183594 7.539062 L 12.320312 7.722656 L 12.460938 7.792969 L 12.644531 7.679688 L 12.667969 7.449219 L 12.644531 7.171875 L 12.34375 6.960938 L 12.113281 6.960938 L 12.066406 6.824219 L 11.789062 6.890625 L 11.582031 7.148438 L 11.535156 6.707031 L 11.164062 6.40625 L 11.050781 6.0625 L 10.773438 5.945312 L 10.609375 5.738281 L 10.265625 5.667969 L 10.101562 5.390625 L 10.609375 5.390625 L 10.289062 5.25 L 10.054688 5.25 L 9.757812 5.136719 L 9.710938 5.4375 L 9.570312 5.230469 L 9.734375 5.113281 L 9.6875 5 L 9.800781 4.882812 L 9.941406 4.859375 L 9.894531 4.71875 L 10.011719 4.511719 L 10.242188 4.605469 L 10.195312 4.421875 L 10.472656 4.257812 L 10.679688 4.652344 L 10.65625 4.765625 L 10.863281 4.859375 L 11.003906 5.160156 L 11.050781 4.882812 L 11.421875 4.746094 L 11.488281 4.535156 L 11.003906 4.257812 L 10.796875 4.050781 L 10.773438 3.796875 L 10.785156 3.789062 C 10.734375 3.753906 10.675781 3.722656 10.621094 3.6875 L 10.703125 3.890625 L 10.472656 3.890625 L 10.402344 3.703125 L 10.195312 3.867188 L 10.011719 3.867188 L 10.011719 3.683594 L 10.21875 3.589844 L 10.402344 3.703125 L 10.378906 3.65625 C 10.289062 3.59375 10.199219 3.515625 10.105469 3.449219 L 9.875 3.519531 C 9.730469 3.621094 9.601562 3.71875 9.457031 3.820312 L 9.226562 3.613281 L 9.480469 3.519531 L 9.570312 3.289062 L 9.75 3.269531 C 9.65625 3.234375 9.558594 3.195312 9.457031 3.167969 L 8.996094 3.496094 L 8.996094 3.703125 L 9.179688 3.914062 L 8.925781 4.421875 L 8.738281 4.328125 L 8.53125 3.984375 C 8.222656 3.882812 7.921875 3.769531 7.628906 3.636719 L 7.65625 3.773438 L 7.515625 3.867188 L 7.261719 3.683594 L 7.375 3.542969 L 7.5625 3.636719 L 7.585938 3.613281 L 7.359375 2.992188 Z M 5.046875 3.910156 C 4.96875 3.96875 4.886719 4.023438 4.8125 4.085938 L 4.902344 4.1875 L 5.15625 3.910156 Z M 6.960938 4.167969 L 7.097656 4.167969 L 7.097656 4.304688 L 7.007812 4.421875 L 7.007812 4.628906 L 7.050781 4.929688 L 6.820312 4.882812 L 6.636719 4.71875 L 6.796875 4.558594 C 6.847656 4.421875 6.894531 4.296875 6.960938 4.167969 Z M 7.308594 4.46875 L 7.445312 4.515625 L 7.421875 4.789062 L 7.214844 4.675781 Z M 3.703125 6.824219 L 3.492188 7.054688 L 3.265625 7.03125 C 3.183594 7.109375 3.101562 7.171875 3.027344 7.246094 C 2.992188 7.484375 2.972656 7.730469 2.972656 7.980469 C 2.972656 9.628906 3.765625 11.085938 4.984375 12 L 4.671875 11.628906 L 4.71875 11.46875 L 4.441406 11.234375 L 4.648438 11.03125 L 4.417969 10.84375 L 4.1875 10.703125 L 4.09375 10.589844 L 4.164062 10.335938 L 4.164062 9.6875 L 3.980469 9.296875 L 3.769531 9.0625 L 3.515625 8.464844 L 3.515625 8.300781 C 3.636719 8.316406 3.746094 8.339844 3.863281 8.347656 L 3.632812 8.09375 L 3.308594 7.863281 L 3.125 7.65625 L 3.125 7.449219 C 3.164062 7.371094 3.199219 7.269531 3.238281 7.191406 L 3.402344 7.402344 L 3.515625 7.238281 L 3.703125 7.101562 Z M 4.601562 6.9375 L 4.394531 7.191406 L 4.117188 7.769531 L 3.957031 7.953125 L 4.046875 8.164062 L 3.886719 8.347656 C 3.953125 8.351562 4.027344 8.347656 4.09375 8.347656 C 4.21875 8.078125 4.324219 7.796875 4.417969 7.515625 L 4.578125 7.332031 L 4.671875 6.984375 Z M 13.023438 7.847656 C 13.015625 7.863281 12.992188 7.910156 12.992188 7.910156 L 12.597656 8.140625 L 12.183594 8.257812 L 12.019531 8.488281 L 11.742188 8.695312 L 11.605469 8.648438 L 11.488281 8.71875 L 11.488281 8.742188 L 11.628906 9.179688 L 11.742188 9.34375 L 11.71875 9.433594 L 11.8125 9.78125 L 11.464844 10.40625 L 11.121094 10.730469 L 10.957031 10.9375 L 10.980469 11.421875 L 10.863281 11.675781 L 10.949219 12.050781 C 12.207031 11.136719 13.027344 9.660156 13.027344 7.980469 C 13.027344 7.9375 13.027344 7.890625 13.023438 7.847656 Z M 13.023438 7.847656 "/>
<path style=" stroke:none;fill-rule:nonzero;fill:rgb(100%,100%,100%);fill-opacity:1;" d="M 8.378906 4.296875 L 8.554688 5.3125 L 7.8125 6.035156 L 8.839844 6.1875 L 9.296875 7.113281 L 9.753906 6.1875 L 10.777344 6.035156 L 10.035156 5.3125 L 10.210938 4.296875 L 9.296875 4.777344 Z M 4.863281 5.183594 L 5.039062 6.203125 L 4.296875 6.925781 L 5.320312 7.074219 L 5.777344 8 L 6.234375 7.074219 L 7.261719 6.925781 L 6.519531 6.203125 L 6.691406 5.183594 L 5.777344 5.667969 Z M 9.308594 7.777344 L 9.480469 8.796875 L 8.738281 9.515625 L 9.765625 9.667969 L 10.222656 10.59375 L 10.679688 9.667969 L 11.703125 9.515625 L 10.960938 8.796875 L 11.136719 7.777344 L 10.222656 8.257812 Z M 5.234375 8.886719 L 5.40625 9.90625 L 4.667969 10.628906 L 5.691406 10.777344 L 6.148438 11.703125 L 6.605469 10.777344 L 7.628906 10.628906 L 6.890625 9.90625 L 7.0625 8.886719 L 6.148438 9.367188 Z M 5.234375 8.886719 "/>
<path style=" stroke:none;fill-rule:nonzero;fill:rgb(76.078431%,20.784314%,16.470588%);fill-opacity:1;" d="M 7.679688 8.855469 C 7.519531 8.859375 7.378906 8.945312 7.304688 9.085938 C 7.230469 9.222656 7.234375 9.390625 7.3125 9.523438 L 8.25 11.144531 L 7.3125 12.765625 C 7.234375 12.90625 7.230469 13.074219 7.308594 13.214844 C 7.390625 13.351562 7.535156 13.4375 7.695312 13.4375 C 7.855469 13.4375 8.003906 13.347656 8.082031 13.207031 L 8.757812 12.03125 L 9.4375 13.207031 C 9.515625 13.347656 9.664062 13.4375 9.824219 13.4375 C 9.984375 13.4375 10.128906 13.351562 10.210938 13.214844 C 10.289062 13.074219 10.289062 12.90625 10.203125 12.765625 L 9.269531 11.144531 L 10.203125 9.523438 C 10.285156 9.386719 10.289062 9.21875 10.210938 9.078125 C 10.132812 8.941406 9.988281 8.855469 9.828125 8.855469 C 9.667969 8.851562 9.515625 8.9375 9.4375 9.082031 L 8.757812 10.257812 L 8.082031 9.082031 C 8 8.9375 7.84375 8.847656 7.679688 8.855469 Z M 10.886719 8.855469 C 10.746094 8.855469 10.609375 8.921875 10.527344 9.035156 C 10.445312 9.148438 10.417969 9.292969 10.460938 9.425781 L 11.523438 13.113281 C 11.578125 13.304688 11.75 13.433594 11.949219 13.433594 C 12.144531 13.433594 12.316406 13.304688 12.371094 13.113281 L 13.4375 9.425781 C 13.503906 9.191406 13.367188 8.949219 13.132812 8.878906 C 12.898438 8.8125 12.652344 8.945312 12.585938 9.183594 L 11.949219 11.390625 L 11.308594 9.183594 C 11.257812 8.988281 11.082031 8.859375 10.886719 8.855469 Z M 10.886719 8.855469 "/>
</g>
</svg>
