<?xml version="1.0" encoding="UTF-8"?>
<svg xmlns="http://www.w3.org/2000/svg" xmlns:xlink="http://www.w3.org/1999/xlink" width="16pt" height="16pt" viewBox="0 0 16 16" version="1.1">
<g id="surface1">
<path style=" stroke:none;fill-rule:evenodd;fill:rgb(0%,46.666667%,100%);fill-opacity:1;" d="M 3.734375 0.949219 L 12.265625 0.949219 C 13.800781 0.949219 15.050781 2.199219 15.050781 3.734375 L 15.050781 12.265625 C 15.050781 13.800781 13.800781 15.050781 12.265625 15.050781 L 3.734375 15.050781 C 2.199219 15.050781 0.949219 13.800781 0.949219 12.265625 L 0.949219 3.734375 C 0.949219 2.199219 2.199219 0.949219 3.734375 0.949219 Z M 3.734375 0.949219 "/>
<path style=" stroke:none;fill-rule:nonzero;fill:rgb(100%,100%,100%);fill-opacity:1;" d="M 8 3.507812 C 9.121094 3.507812 10.027344 4.460938 10.027344 5.636719 C 10.027344 6.8125 9.121094 7.765625 8 7.765625 C 6.878906 7.765625 5.972656 6.8125 5.972656 5.636719 C 5.972656 4.460938 6.878906 3.507812 8 3.507812 Z M 8 3.507812 "/>
<path style=" stroke:none;fill-rule:nonzero;fill:rgb(100%,100%,100%);fill-opacity:1;" d="M 8 8.945312 C 12.054688 8.945312 12.054688 11.78125 12.054688 11.78125 L 12.054688 12.492188 L 3.945312 12.492188 L 3.945312 11.78125 C 3.945312 11.78125 3.945312 8.949219 8 8.945312 Z M 8 8.945312 "/>
<path style=" stroke:none;fill-rule:nonzero;fill:rgb(0%,24.705882%,47.45098%);fill-opacity:1;" d="M 13.125 8.199219 C 13.125 7.25 12.359375 6.484375 11.410156 6.484375 C 10.460938 6.484375 9.695312 7.25 9.695312 8.199219 C 9.695312 8.898438 10.117188 9.527344 10.765625 9.789062 L 10.765625 10.777344 L 10.125 10.777344 L 10.125 11.847656 L 10.765625 11.847656 L 10.765625 12.492188 L 12.054688 12.492188 L 12.054688 9.792969 C 12.703125 9.53125 13.125 8.898438 13.125 8.199219 Z M 12.054688 8.199219 C 12.054688 8.554688 11.765625 8.84375 11.410156 8.84375 C 11.054688 8.84375 10.765625 8.554688 10.765625 8.199219 C 10.765625 7.84375 11.054688 7.558594 11.410156 7.558594 C 11.765625 7.558594 12.054688 7.84375 12.054688 8.199219 Z M 12.054688 8.199219 "/>
</g>
</svg>
