<?xml version="1.0" encoding="UTF-8"?>
<svg xmlns="http://www.w3.org/2000/svg" xmlns:xlink="http://www.w3.org/1999/xlink" width="16pt" height="16pt" viewBox="0 0 16 16" version="1.1">
<g id="surface1">
<path style=" stroke:none;fill-rule:evenodd;fill:rgb(49.411765%,76.078431%,25.882353%);fill-opacity:1;" d="M 3.734375 0.949219 L 12.265625 0.949219 C 13.800781 0.949219 15.050781 2.199219 15.050781 3.734375 L 15.050781 12.265625 C 15.050781 13.800781 13.800781 15.050781 12.265625 15.050781 L 3.734375 15.050781 C 2.199219 15.050781 0.949219 13.800781 0.949219 12.265625 L 0.949219 3.734375 C 0.949219 2.199219 2.199219 0.949219 3.734375 0.949219 Z M 3.734375 0.949219 "/>
<path style=" stroke:none;fill-rule:nonzero;fill:rgb(75.294118%,100%,53.333333%);fill-opacity:1;" d="M 11.492188 12.65625 L 11.492188 7.609375 L 13.046875 7.609375 L 13.046875 3.457031 C 13.046875 3.179688 12.820312 2.953125 12.542969 2.953125 L 3.457031 2.953125 C 3.179688 2.953125 2.953125 3.179688 2.953125 3.457031 L 2.953125 7.609375 L 4.507812 7.609375 L 4.507812 12.65625 C 4.507812 12.9375 4.617188 13.046875 4.894531 13.046875 L 11.105469 13.046875 C 11.382812 13.046875 11.492188 12.9375 11.492188 12.65625 Z M 11.492188 12.65625 "/>
</g>
</svg>
