<?xml version="1.0" encoding="UTF-8"?>
<svg xmlns="http://www.w3.org/2000/svg" xmlns:xlink="http://www.w3.org/1999/xlink" width="16pt" height="16pt" viewBox="0 0 16 16" version="1.1">
<g id="surface1">
<path style=" stroke:none;fill-rule:evenodd;fill:rgb(96.078431%,51.764706%,20.784314%);fill-opacity:1;" d="M 3.734375 0.949219 L 12.265625 0.949219 C 13.800781 0.949219 15.050781 2.199219 15.050781 3.734375 L 15.050781 12.265625 C 15.050781 13.800781 13.800781 15.050781 12.265625 15.050781 L 3.734375 15.050781 C 2.199219 15.050781 0.949219 13.800781 0.949219 12.265625 L 0.949219 3.734375 C 0.949219 2.199219 2.199219 0.949219 3.734375 0.949219 Z M 3.734375 0.949219 "/>
<path style=" stroke:none;fill-rule:nonzero;fill:rgb(83.921569%,20.784314%,18.431373%);fill-opacity:1;" d="M 5.75 5.5 C 4.921875 5.5 4.25 6.171875 4.25 7 C 4.25 7.828125 4.921875 8.5 5.75 8.5 C 6.578125 8.5 7.25 7.828125 7.25 7 L 5.75 7 Z M 8.25 5.5 L 8.25 6.5 L 11.75 6.5 L 11.75 5.5 Z M 8.25 7.5 L 8.25 8.5 L 11.75 8.5 L 11.75 7.5 Z M 4.25 9.5 L 4.25 10.5 L 10.25 10.5 L 10.25 9.5 Z M 4.25 9.5 "/>
</g>
</svg>
