<?xml version="1.0" encoding="UTF-8"?>
<svg xmlns="http://www.w3.org/2000/svg" xmlns:xlink="http://www.w3.org/1999/xlink" width="16pt" height="16pt" viewBox="0 0 16 16" version="1.1">
<g id="surface1">
<path style=" stroke:none;fill-rule:evenodd;fill:rgb(80%,80%,80%);fill-opacity:1;" d="M 3.734375 0.949219 L 12.265625 0.949219 C 13.800781 0.949219 15.050781 2.199219 15.050781 3.734375 L 15.050781 12.265625 C 15.050781 13.800781 13.800781 15.050781 12.265625 15.050781 L 3.734375 15.050781 C 2.199219 15.050781 0.949219 13.800781 0.949219 12.265625 L 0.949219 3.734375 C 0.949219 2.199219 2.199219 0.949219 3.734375 0.949219 Z M 3.734375 0.949219 "/>
<path style=" stroke:none;fill-rule:nonzero;fill:rgb(50.196078%,50.196078%,50.196078%);fill-opacity:1;" d="M 12.339844 5.371094 C 13.390625 5.371094 13.300781 6.5 13.300781 6.5 L 13.300781 7.484375 C 13.300781 7.847656 12.84375 8.597656 12.84375 8.597656 L 12.84375 9.292969 L 13.765625 9.71875 L 13.765625 10.445312 L 10.074219 10.445312 L 10.074219 9.71875 L 10.996094 9.292969 L 10.996094 8.597656 C 10.996094 8.597656 10.535156 7.847656 10.539062 7.484375 L 10.539062 6.5 C 10.539062 6.5 10.449219 5.371094 11.5 5.371094 "/>
<path style=" stroke:none;fill-rule:nonzero;fill:rgb(15.686275%,60.784314%,21.176471%);fill-opacity:1;" d="M 3.15625 9.0625 L 2.234375 8.140625 L 3.15625 7.21875 Z M 3.15625 9.0625 "/>
<path style=" stroke:none;fill-rule:nonzero;fill:rgb(92.54902%,71.372549%,30.588235%);fill-opacity:1;" d="M 4.023438 6.753906 L 6.445312 6.753906 C 6.648438 6.753906 6.847656 6.984375 6.847656 7.21875 L 6.847656 9.0625 C 6.847656 9.296875 6.648438 9.523438 6.445312 9.523438 L 4.023438 9.523438 C 3.816406 9.523438 3.621094 9.296875 3.621094 9.0625 L 3.621094 7.21875 C 3.621094 6.984375 3.816406 6.753906 4.023438 6.753906 Z M 4.023438 6.753906 "/>
<path style=" stroke:none;fill-rule:nonzero;fill:rgb(28.235294%,28.235294%,28.235294%);fill-opacity:1;" d="M 7.308594 5.378906 C 8.835938 5.378906 10.074219 6.621094 10.074219 8.148438 C 10.074219 9.675781 8.835938 10.914062 7.308594 10.914062 C 5.78125 10.914062 4.542969 9.675781 4.542969 8.148438 C 4.542969 6.621094 5.78125 5.378906 7.308594 5.378906 Z M 7.308594 5.378906 "/>
<path style=" stroke:none;fill-rule:nonzero;fill:rgb(28.235294%,28.235294%,28.235294%);fill-opacity:1;" d="M 8.449219 9.285156 C 8.71875 9.015625 9.152344 9.011719 9.414062 9.273438 L 11.074219 10.933594 C 11.335938 11.195312 11.328125 11.625 11.058594 11.894531 C 10.789062 12.167969 10.359375 12.171875 10.09375 11.910156 L 8.4375 10.25 C 8.171875 9.988281 8.179688 9.558594 8.449219 9.285156 Z M 8.449219 9.285156 "/>
<path style=" stroke:none;fill-rule:nonzero;fill:rgb(36.470588%,60%,100%);fill-opacity:1;" d="M 6.328125 7.167969 C 5.785156 7.714844 5.785156 8.582031 6.328125 9.125 C 6.875 9.667969 7.742188 9.671875 8.285156 9.125 C 8.832031 8.582031 8.828125 7.710938 8.285156 7.167969 C 7.742188 6.625 6.875 6.625 6.328125 7.167969 Z M 6.328125 7.167969 "/>
</g>
</svg>
