<?xml version="1.0" encoding="UTF-8"?>
<svg xmlns="http://www.w3.org/2000/svg" xmlns:xlink="http://www.w3.org/1999/xlink" width="16pt" height="16pt" viewBox="0 0 16 16" version="1.1">
<g id="surface1">
<path style=" stroke:none;fill-rule:evenodd;fill:rgb(45.490196%,74.901961%,80%);fill-opacity:1;" d="M 3.734375 0.949219 L 12.265625 0.949219 C 13.800781 0.949219 15.050781 2.199219 15.050781 3.734375 L 15.050781 12.265625 C 15.050781 13.800781 13.800781 15.050781 12.265625 15.050781 L 3.734375 15.050781 C 2.199219 15.050781 0.949219 13.800781 0.949219 12.265625 L 0.949219 3.734375 C 0.949219 2.199219 2.199219 0.949219 3.734375 0.949219 Z M 3.734375 0.949219 "/>
<path style="fill:none;stroke-width:1;stroke-linecap:round;stroke-linejoin:miter;stroke:rgb(24.705882%,24.705882%,24.705882%);stroke-opacity:1;stroke-miterlimit:4;" d="M 23.507688 15.581174 C 23.507688 15.581174 25.398313 13.057737 24.23425 10.628049 C 23.070188 8.198362 17.42175 9.932737 13.078 12.971799 C 9.953 15.151487 8.445188 19.003049 8.499875 21.503049 " transform="matrix(0.5,0,0,0.5,-0.249938,0.240663)"/>
<path style="fill:none;stroke-width:1;stroke-linecap:round;stroke-linejoin:miter;stroke:rgb(24.705882%,24.705882%,24.705882%);stroke-opacity:1;stroke-miterlimit:4;" d="M 12.499875 22.503049 C 12.499875 22.503049 13.218625 25.409299 16.382688 25.534299 C 19.554563 25.659299 20.898313 20.292112 20.445188 15.018674 C 20.117063 11.213987 18.687375 7.706174 16.499875 6.503049 " transform="matrix(0.5,0,0,0.5,-0.249938,0.240663)"/>
<path style="fill:none;stroke-width:1;stroke-linecap:round;stroke-linejoin:miter;stroke:rgb(24.705882%,24.705882%,24.705882%);stroke-opacity:1;stroke-miterlimit:4;" d="M 13.499875 9.596799 C 13.499875 9.596799 9.093625 6.940549 7.804563 10.018674 C 6.5155 13.088987 10.781125 18.721799 15.898313 20.112424 C 19.468625 21.073362 23.468625 19.924924 24.499875 19.503049 " transform="matrix(0.5,0,0,0.5,-0.249938,0.240663)"/>
<path style="fill-rule:nonzero;fill:rgb(24.705882%,24.705882%,24.705882%);fill-opacity:1;stroke-width:0.874498;stroke-linecap:butt;stroke-linejoin:miter;stroke:rgb(24.705882%,24.705882%,24.705882%);stroke-opacity:1;stroke-miterlimit:4;" d="M 17.562375 15.503049 C 17.562375 16.088987 17.085813 16.565549 16.499875 16.565549 C 15.913938 16.565549 15.437375 16.088987 15.437375 15.503049 C 15.437375 14.917112 15.913938 14.432737 16.499875 14.432737 C 17.085813 14.432737 17.562375 14.917112 17.562375 15.503049 Z M 17.562375 15.503049 " transform="matrix(0.5,0,0,0.5,-0.249938,0.240663)"/>
<path style=" stroke:none;fill-rule:nonzero;fill:rgb(24.705882%,24.705882%,24.705882%);fill-opacity:1;" d="M 7.964844 2.742188 C 7.710938 2.753906 7.480469 2.894531 7.351562 3.117188 C 7.144531 3.472656 7.265625 3.933594 7.625 4.140625 C 7.984375 4.347656 8.441406 4.222656 8.648438 3.867188 C 8.855469 3.507812 8.734375 3.046875 8.375 2.84375 C 8.25 2.769531 8.109375 2.734375 7.964844 2.742188 Z M 11.984375 9.242188 C 11.859375 9.242188 11.734375 9.277344 11.625 9.34375 C 11.265625 9.546875 11.144531 10.007812 11.351562 10.367188 C 11.558594 10.722656 12.015625 10.847656 12.375 10.640625 C 12.734375 10.433594 12.855469 9.972656 12.648438 9.617188 C 12.511719 9.378906 12.257812 9.234375 11.984375 9.242188 Z M 4 10.242188 C 3.585938 10.242188 3.25 10.578125 3.25 10.992188 C 3.25 11.40625 3.585938 11.742188 4 11.742188 C 4.414062 11.742188 4.75 11.40625 4.75 10.992188 C 4.75 10.578125 4.414062 10.242188 4 10.242188 Z M 4 10.242188 "/>
<path style=" stroke:none;fill-rule:nonzero;fill:rgb(45.490196%,74.901961%,80%);fill-opacity:1;" d="M 8 3.242188 C 7.863281 3.242188 7.75 3.351562 7.75 3.492188 C 7.75 3.628906 7.863281 3.742188 8 3.742188 C 8.140625 3.742188 8.25 3.628906 8.25 3.492188 C 8.25 3.351562 8.140625 3.242188 8 3.242188 Z M 12 9.742188 C 11.863281 9.742188 11.75 9.851562 11.75 9.992188 C 11.75 10.128906 11.863281 10.242188 12 10.242188 C 12.140625 10.242188 12.25 10.128906 12.25 9.992188 C 12.25 9.851562 12.140625 9.742188 12 9.742188 Z M 4 10.742188 C 3.863281 10.742188 3.75 10.851562 3.75 10.992188 C 3.75 11.128906 3.863281 11.242188 4 11.242188 C 4.140625 11.242188 4.25 11.128906 4.25 10.992188 C 4.25 10.851562 4.140625 10.742188 4 10.742188 Z M 4 10.742188 "/>
</g>
</svg>
