<?xml version="1.0" encoding="UTF-8"?>
<svg xmlns="http://www.w3.org/2000/svg" xmlns:xlink="http://www.w3.org/1999/xlink" width="16pt" height="16pt" viewBox="0 0 16 16" version="1.1">
<g id="surface1">
<path style=" stroke:none;fill-rule:evenodd;fill:rgb(76.862745%,12.156863%,35.686275%);fill-opacity:1;" d="M 3.734375 0.949219 L 12.265625 0.949219 C 13.800781 0.949219 15.050781 2.199219 15.050781 3.734375 L 15.050781 12.265625 C 15.050781 13.800781 13.800781 15.050781 12.265625 15.050781 L 3.734375 15.050781 C 2.199219 15.050781 0.949219 13.800781 0.949219 12.265625 L 0.949219 3.734375 C 0.949219 2.199219 2.199219 0.949219 3.734375 0.949219 Z M 3.734375 0.949219 "/>
<path style=" stroke:none;fill-rule:nonzero;fill:rgb(100%,100%,100%);fill-opacity:1;" d="M 12 10 L 8 10 L 8 14 Z M 12 10 "/>
<path style=" stroke:none;fill-rule:nonzero;fill:rgb(100%,100%,100%);fill-opacity:1;" d="M 12 6 L 8 6 L 8 10 Z M 12 6 "/>
<path style=" stroke:none;fill-rule:nonzero;fill:rgb(91.764706%,47.843137%,63.529412%);fill-opacity:1;" d="M 12 2 L 8 2 L 8 6 Z M 12 2 "/>
<path style=" stroke:none;fill-rule:nonzero;fill:rgb(87.843137%,87.843137%,87.843137%);fill-opacity:1;" d="M 4 10 L 8 10 L 8 14 Z M 4 10 "/>
<path style=" stroke:none;fill-rule:nonzero;fill:rgb(87.843137%,87.843137%,87.843137%);fill-opacity:1;" d="M 4 2 L 8 2 L 8 10 L 4 10 Z M 4 2 "/>
</g>
</svg>
