<?xml version="1.0" encoding="UTF-8"?>
<svg xmlns="http://www.w3.org/2000/svg" xmlns:xlink="http://www.w3.org/1999/xlink" width="16pt" height="16pt" viewBox="0 0 16 16" version="1.1">
<g id="surface1">
<path style=" stroke:none;fill-rule:evenodd;fill:rgb(37.254902%,72.54902%,63.137255%);fill-opacity:1;" d="M 3.734375 0.949219 L 12.265625 0.949219 C 13.800781 0.949219 15.050781 2.199219 15.050781 3.734375 L 15.050781 12.265625 C 15.050781 13.800781 13.800781 15.050781 12.265625 15.050781 L 3.734375 15.050781 C 2.199219 15.050781 0.949219 13.800781 0.949219 12.265625 L 0.949219 3.734375 C 0.949219 2.199219 2.199219 0.949219 3.734375 0.949219 Z M 3.734375 0.949219 "/>
<path style=" stroke:none;fill-rule:nonzero;fill:rgb(100%,100%,100%);fill-opacity:1;" d="M 5.5625 4.75 C 5.414062 4.746094 5.269531 4.800781 5.164062 4.898438 C 5.058594 5 5 5.136719 5 5.277344 L 5 10.722656 C 5 10.910156 5.105469 11.085938 5.273438 11.179688 C 5.441406 11.273438 5.652344 11.273438 5.820312 11.179688 L 8.273438 9.816406 L 10.726562 8.457031 C 10.894531 8.363281 11 8.1875 11 8 C 11 7.8125 10.894531 7.636719 10.726562 7.542969 L 8.273438 6.183594 L 5.820312 4.820312 C 5.742188 4.777344 5.652344 4.75 5.5625 4.75 Z M 5.5625 4.75 "/>
</g>
</svg>
