<?xml version="1.0" encoding="UTF-8"?>
<svg xmlns="http://www.w3.org/2000/svg" xmlns:xlink="http://www.w3.org/1999/xlink" width="16pt" height="16pt" viewBox="0 0 16 16" version="1.1">
<g id="surface1">
<path style=" stroke:none;fill-rule:evenodd;fill:rgb(14.117647%,58.823529%,94.901961%);fill-opacity:1;" d="M 3.734375 0.949219 L 12.265625 0.949219 C 13.800781 0.949219 15.050781 2.199219 15.050781 3.734375 L 15.050781 12.265625 C 15.050781 13.800781 13.800781 15.050781 12.265625 15.050781 L 3.734375 15.050781 C 2.199219 15.050781 0.949219 13.800781 0.949219 12.265625 L 0.949219 3.734375 C 0.949219 2.199219 2.199219 0.949219 3.734375 0.949219 Z M 3.734375 0.949219 "/>
<path style=" stroke:none;fill-rule:nonzero;fill:rgb(100%,100%,100%);fill-opacity:1;" d="M 8 2.5 C 4.960938 2.5 2.5 4.960938 2.5 8 C 2.5 11.039062 4.960938 13.5 8 13.5 C 11.039062 13.5 13.5 11.039062 13.5 8 C 13.5 4.960938 11.039062 2.5 8 2.5 Z M 6.5 4 L 9.5 4 C 10.332031 4 11 4.679688 11 5.523438 L 11 6.285156 C 11 7.128906 10.332031 8 9.5 8 L 9 8 L 9 11.238281 C 9 11.660156 8.789062 12 8.375 12 L 7.625 12 C 7.210938 12 7.015625 11.660156 7 11.238281 L 7 8 L 6.5 8 C 5.667969 8 5 7.128906 5 6.285156 L 5 5.523438 C 5 4.679688 5.667969 4 6.5 4 Z M 6.5 4 "/>
</g>
</svg>
