<?xml version="1.0" encoding="UTF-8"?>
<svg xmlns="http://www.w3.org/2000/svg" xmlns:xlink="http://www.w3.org/1999/xlink" width="16pt" height="16pt" viewBox="0 0 16 16" version="1.1">
<g id="surface1">
<path style=" stroke:none;fill-rule:evenodd;fill:rgb(30.980392%,30.980392%,30.980392%);fill-opacity:1;" d="M 3.734375 0.949219 L 12.265625 0.949219 C 13.800781 0.949219 15.050781 2.199219 15.050781 3.734375 L 15.050781 12.265625 C 15.050781 13.800781 13.800781 15.050781 12.265625 15.050781 L 3.734375 15.050781 C 2.199219 15.050781 0.949219 13.800781 0.949219 12.265625 L 0.949219 3.734375 C 0.949219 2.199219 2.199219 0.949219 3.734375 0.949219 Z M 3.734375 0.949219 "/>
<path style=" stroke:none;fill-rule:evenodd;fill:rgb(30.980392%,30.980392%,30.980392%);fill-opacity:1;" d="M 0.949219 4.011719 L 0.949219 12.265625 C 0.949219 13.808594 2.191406 15.050781 3.734375 15.050781 L 12.261719 15.050781 C 13.808594 15.050781 15.050781 13.808594 15.050781 12.265625 L 15.050781 4.011719 Z M 0.949219 4.011719 "/>
<path style=" stroke:none;fill-rule:evenodd;fill:rgb(24.705882%,24.705882%,24.705882%);fill-opacity:1;" d="M 14.847656 2.738281 L 13.578125 4.011719 L 15.050781 4.011719 L 15.050781 3.738281 C 15.050781 3.382812 14.96875 3.050781 14.847656 2.738281 Z M 14.847656 2.738281 "/>
<path style=" stroke:none;fill-rule:evenodd;fill:rgb(39.607843%,39.607843%,39.607843%);fill-opacity:1;" d="M 14.699219 2.453125 L 13.054688 2.453125 L 11.496094 4.011719 L 13.578125 4.011719 L 14.847656 2.738281 C 14.808594 2.636719 14.75 2.546875 14.699219 2.453125 Z M 14.699219 2.453125 "/>
<path style=" stroke:none;fill-rule:evenodd;fill:rgb(39.607843%,39.607843%,39.607843%);fill-opacity:1;" d="M 9.933594 4.011719 L 11.496094 2.453125 L 9.410156 2.453125 L 7.851562 4.011719 Z M 9.933594 4.011719 "/>
<path style=" stroke:none;fill-rule:evenodd;fill:rgb(24.705882%,24.705882%,24.705882%);fill-opacity:1;" d="M 9.992188 0.949219 L 11.496094 2.453125 L 9.933594 4.011719 L 11.496094 4.011719 L 13.054688 2.453125 L 11.554688 0.949219 Z M 9.992188 0.949219 "/>
<path style=" stroke:none;fill-rule:evenodd;fill:rgb(24.705882%,24.705882%,24.705882%);fill-opacity:1;" d="M 7.851562 2.453125 L 6.289062 4.011719 L 7.851562 4.011719 L 9.410156 2.453125 L 7.910156 0.949219 L 6.347656 0.949219 Z M 7.851562 2.453125 "/>
<path style=" stroke:none;fill-rule:evenodd;fill:rgb(39.607843%,39.607843%,39.607843%);fill-opacity:1;" d="M 5.765625 2.453125 L 4.207031 4.011719 L 6.289062 4.011719 L 7.851562 2.453125 Z M 5.765625 2.453125 "/>
<path style=" stroke:none;fill-rule:evenodd;fill:rgb(24.705882%,24.705882%,24.705882%);fill-opacity:1;" d="M 2.5 1.265625 L 3.6875 2.453125 L 3.6875 4.011719 L 4.207031 4.011719 L 5.765625 2.453125 L 4.265625 0.949219 L 3.734375 0.949219 C 3.285156 0.949219 2.878906 1.078125 2.5 1.265625 Z M 2.5 1.265625 "/>
<path style=" stroke:none;fill-rule:evenodd;fill:rgb(39.607843%,39.607843%,39.607843%);fill-opacity:1;" d="M 0.949219 4.011719 L 3.6875 4.011719 L 3.6875 2.453125 L 2.5 1.265625 C 1.589844 1.722656 0.949219 2.644531 0.949219 3.738281 Z M 0.949219 4.011719 "/>
<path style=" stroke:none;fill-rule:evenodd;fill:rgb(39.607843%,39.607843%,39.607843%);fill-opacity:1;" d="M 4.265625 0.949219 L 5.765625 2.453125 L 7.851562 2.453125 L 6.347656 0.949219 Z M 4.265625 0.949219 "/>
<path style=" stroke:none;fill-rule:evenodd;fill:rgb(39.607843%,39.607843%,39.607843%);fill-opacity:1;" d="M 7.910156 0.949219 L 9.410156 2.453125 L 11.496094 2.453125 L 9.992188 0.949219 Z M 7.910156 0.949219 "/>
<path style=" stroke:none;fill-rule:evenodd;fill:rgb(39.607843%,39.607843%,39.607843%);fill-opacity:1;" d="M 11.554688 0.949219 L 13.054688 2.453125 L 14.699219 2.453125 C 14.230469 1.570312 13.335938 0.949219 12.261719 0.949219 Z M 11.554688 0.949219 "/>
<path style=" stroke:none;fill-rule:nonzero;fill:rgb(72.941176%,72.941176%,72.941176%);fill-opacity:1;" d="M 10.636719 9.472656 L 6.136719 11.972656 L 6.136719 6.972656 Z M 10.636719 9.472656 "/>
</g>
</svg>
