<?xml version="1.0" encoding="UTF-8"?>
<svg xmlns="http://www.w3.org/2000/svg" xmlns:xlink="http://www.w3.org/1999/xlink" width="16pt" height="16pt" viewBox="0 0 16 16" version="1.1">
<g id="surface1">
<path style=" stroke:none;fill-rule:evenodd;fill:rgb(35.686275%,35.686275%,35.686275%);fill-opacity:1;" d="M 3.734375 0.949219 L 12.265625 0.949219 C 13.800781 0.949219 15.050781 2.199219 15.050781 3.734375 L 15.050781 12.265625 C 15.050781 13.800781 13.800781 15.050781 12.265625 15.050781 L 3.734375 15.050781 C 2.199219 15.050781 0.949219 13.800781 0.949219 12.265625 L 0.949219 3.734375 C 0.949219 2.199219 2.199219 0.949219 3.734375 0.949219 Z M 3.734375 0.949219 "/>
<path style=" stroke:none;fill-rule:nonzero;fill:rgb(35.686275%,35.686275%,35.686275%);fill-opacity:1;" d="M 3.050781 4.070312 L 12.949219 4.070312 C 13.253906 4.070312 13.5 4.316406 13.5 4.621094 L 13.5 11.378906 C 13.5 11.683594 13.253906 11.929688 12.949219 11.929688 L 3.050781 11.929688 C 2.746094 11.929688 2.5 11.683594 2.5 11.378906 L 2.5 4.621094 C 2.5 4.316406 2.746094 4.070312 3.050781 4.070312 Z M 3.050781 4.070312 "/>
<path style=" stroke:none;fill-rule:nonzero;fill:rgb(80%,80%,80%);fill-opacity:1;" d="M 4.464844 5.839844 C 4.464844 6.164062 4.199219 6.429688 3.875 6.429688 C 3.550781 6.429688 3.285156 6.164062 3.285156 5.839844 C 3.285156 5.515625 3.550781 5.25 3.875 5.25 C 4.199219 5.25 4.464844 5.515625 4.464844 5.839844 Z M 4.464844 5.839844 "/>
<path style=" stroke:none;fill-rule:nonzero;fill:rgb(80%,80%,80%);fill-opacity:1;" d="M 6.429688 5.839844 C 6.429688 6.164062 6.164062 6.429688 5.839844 6.429688 C 5.515625 6.429688 5.25 6.164062 5.25 5.839844 C 5.25 5.515625 5.515625 5.25 5.839844 5.25 C 6.164062 5.25 6.429688 5.515625 6.429688 5.839844 Z M 6.429688 5.839844 "/>
<path style=" stroke:none;fill-rule:nonzero;fill:rgb(80%,80%,80%);fill-opacity:1;" d="M 8.390625 5.839844 C 8.390625 6.164062 8.128906 6.429688 7.804688 6.429688 C 7.476562 6.429688 7.214844 6.164062 7.214844 5.839844 C 7.214844 5.515625 7.476562 5.25 7.804688 5.25 C 8.128906 5.25 8.390625 5.515625 8.390625 5.839844 Z M 8.390625 5.839844 "/>
<path style=" stroke:none;fill-rule:nonzero;fill:rgb(80%,80%,80%);fill-opacity:1;" d="M 10.359375 5.839844 C 10.359375 6.164062 10.09375 6.429688 9.765625 6.429688 C 9.441406 6.429688 9.179688 6.164062 9.179688 5.839844 C 9.179688 5.515625 9.441406 5.25 9.765625 5.25 C 10.09375 5.25 10.359375 5.515625 10.359375 5.839844 Z M 10.359375 5.839844 "/>
<path style=" stroke:none;fill-rule:nonzero;fill:rgb(100%,53.333333%,20.392157%);fill-opacity:1;" d="M 12.320312 5.839844 C 12.320312 6.164062 12.058594 6.429688 11.734375 6.429688 C 11.40625 6.429688 11.140625 6.164062 11.140625 5.839844 C 11.140625 5.515625 11.40625 5.25 11.734375 5.25 C 12.058594 5.25 12.320312 5.515625 12.320312 5.839844 Z M 12.320312 5.839844 "/>
<path style=" stroke:none;fill-rule:nonzero;fill:rgb(80%,80%,80%);fill-opacity:1;" d="M 5.640625 8.195312 C 5.640625 8.523438 5.378906 8.785156 5.054688 8.785156 C 4.726562 8.785156 4.464844 8.523438 4.464844 8.195312 C 4.464844 7.871094 4.726562 7.609375 5.054688 7.609375 C 5.378906 7.609375 5.640625 7.871094 5.640625 8.195312 Z M 5.640625 8.195312 "/>
<path style=" stroke:none;fill-rule:nonzero;fill:rgb(80%,80%,80%);fill-opacity:1;" d="M 7.609375 8.195312 C 7.609375 8.523438 7.34375 8.785156 7.015625 8.785156 C 6.691406 8.785156 6.429688 8.523438 6.429688 8.195312 C 6.429688 7.871094 6.691406 7.609375 7.015625 7.609375 C 7.34375 7.609375 7.609375 7.871094 7.609375 8.195312 Z M 7.609375 8.195312 "/>
<path style=" stroke:none;fill-rule:nonzero;fill:rgb(100%,53.333333%,20.392157%);fill-opacity:1;" d="M 9.570312 8.195312 C 9.570312 8.523438 9.308594 8.785156 8.984375 8.785156 C 8.65625 8.785156 8.390625 8.523438 8.390625 8.195312 C 8.390625 7.871094 8.65625 7.609375 8.984375 7.609375 C 9.308594 7.609375 9.570312 7.871094 9.570312 8.195312 Z M 9.570312 8.195312 "/>
<path style=" stroke:none;fill-rule:nonzero;fill:rgb(80%,80%,80%);fill-opacity:1;" d="M 11.535156 8.195312 C 11.535156 8.523438 11.273438 8.785156 10.945312 8.785156 C 10.621094 8.785156 10.359375 8.523438 10.359375 8.195312 C 10.359375 7.871094 10.621094 7.609375 10.945312 7.609375 C 11.273438 7.609375 11.535156 7.871094 11.535156 8.195312 Z M 11.535156 8.195312 "/>
<path style=" stroke:none;fill-rule:nonzero;fill:rgb(80%,80%,80%);fill-opacity:1;" d="M 4.367188 9.964844 L 11.632812 9.964844 C 11.796875 9.964844 11.929688 10.09375 11.929688 10.257812 L 11.929688 10.847656 C 11.929688 11.011719 11.796875 11.140625 11.632812 11.140625 L 4.367188 11.140625 C 4.203125 11.140625 4.070312 11.011719 4.070312 10.847656 L 4.070312 10.257812 C 4.070312 10.09375 4.203125 9.964844 4.367188 9.964844 Z M 4.367188 9.964844 "/>
<path style=" stroke:none;fill-rule:nonzero;fill:rgb(91.372549%,32.941176%,11.372549%);fill-opacity:1;" d="M 13.851562 10.742188 C 13.851562 12.398438 12.511719 13.742188 10.851562 13.742188 C 9.195312 13.742188 7.851562 12.398438 7.851562 10.742188 C 7.851562 9.085938 9.195312 7.742188 10.851562 7.742188 C 12.511719 7.742188 13.851562 9.085938 13.851562 10.742188 Z M 13.851562 10.742188 "/>
<path style=" stroke:none;fill-rule:nonzero;fill:rgb(100%,100%,100%);fill-opacity:1;" d="M 10.757812 9.242188 C 10.648438 9.242188 10.535156 9.25 10.464844 9.257812 C 10.136719 9.308594 9.875 9.421875 9.707031 9.589844 C 9.617188 9.679688 9.5625 9.777344 9.527344 9.902344 C 9.507812 9.980469 9.5 10.15625 9.519531 10.222656 C 9.589844 10.457031 9.75 10.636719 10.058594 10.820312 C 10.1875 10.894531 10.285156 10.945312 10.578125 11.078125 C 10.921875 11.234375 11.027344 11.296875 11.078125 11.375 C 11.09375 11.40625 11.105469 11.421875 11.101562 11.457031 C 11.09375 11.519531 11.066406 11.546875 10.996094 11.574219 C 10.949219 11.59375 10.929688 11.597656 10.839844 11.597656 C 10.675781 11.59375 10.53125 11.5625 10.332031 11.492188 C 10.191406 11.445312 10.054688 11.375 9.9375 11.300781 C 9.824219 11.222656 9.8125 11.222656 9.78125 11.238281 C 9.753906 11.253906 9.566406 11.421875 9.425781 11.558594 C 9.335938 11.644531 9.332031 11.664062 9.394531 11.726562 C 9.457031 11.785156 9.632812 11.914062 9.726562 11.96875 C 9.828125 12.03125 9.898438 12.0625 10.015625 12.109375 C 10.210938 12.179688 10.375 12.210938 10.683594 12.234375 C 10.75 12.242188 11 12.242188 11.089844 12.234375 C 11.570312 12.199219 11.960938 12.042969 12.167969 11.8125 C 12.242188 11.730469 12.285156 11.660156 12.320312 11.5625 C 12.355469 11.46875 12.363281 11.28125 12.339844 11.167969 C 12.296875 10.984375 12.1875 10.816406 12.007812 10.675781 C 11.828125 10.535156 11.648438 10.441406 11.210938 10.269531 C 10.90625 10.148438 10.792969 10.082031 10.765625 10.015625 C 10.75 9.980469 10.757812 9.914062 10.78125 9.890625 C 10.828125 9.84375 10.921875 9.824219 11.042969 9.839844 C 11.265625 9.867188 11.550781 9.96875 11.800781 10.109375 C 11.851562 10.136719 11.898438 10.160156 11.90625 10.160156 C 11.949219 10.171875 11.972656 10.15625 12.140625 9.96875 C 12.339844 9.734375 12.339844 9.746094 12.226562 9.667969 C 11.894531 9.429688 11.511719 9.292969 11.070312 9.25 C 10.984375 9.242188 10.871094 9.238281 10.757812 9.242188 Z M 10.757812 9.242188 "/>
</g>
</svg>
