<?xml version="1.0" encoding="UTF-8"?>
<svg xmlns="http://www.w3.org/2000/svg" xmlns:xlink="http://www.w3.org/1999/xlink" width="16pt" height="16pt" viewBox="0 0 16 16" version="1.1">
<g id="surface1">
<path style=" stroke:none;fill-rule:evenodd;fill:rgb(30.980392%,30.980392%,30.980392%);fill-opacity:1;" d="M 3.734375 0.949219 L 12.265625 0.949219 C 13.800781 0.949219 15.050781 2.199219 15.050781 3.734375 L 15.050781 12.265625 C 15.050781 13.800781 13.800781 15.050781 12.265625 15.050781 L 3.734375 15.050781 C 2.199219 15.050781 0.949219 13.800781 0.949219 12.265625 L 0.949219 3.734375 C 0.949219 2.199219 2.199219 0.949219 3.734375 0.949219 Z M 3.734375 0.949219 "/>
<path style=" stroke:none;fill-rule:nonzero;fill:rgb(87.45098%,34.117647%,30.196078%);fill-opacity:1;" d="M 7.488281 12.5 C 10.550781 11.710938 15.160156 8.640625 10.503906 4.5 C 12.574219 7.125 13.015625 8 8.492188 8 C 12.890625 8.882812 9.003906 10.644531 6.984375 11 Z M 7.488281 12.5 "/>
<path style=" stroke:none;fill-rule:nonzero;fill:rgb(47.45098%,87.058824%,49.019608%);fill-opacity:1;" d="M 8.511719 3.5 C 5.449219 4.289062 0.839844 7.359375 5.496094 11.5 C 3.425781 8.875 2.984375 8 7.507812 8 C 3.109375 7.117188 6.996094 5.355469 9.015625 5 Z M 8.511719 3.5 "/>
</g>
</svg>
