<?xml version="1.0" encoding="UTF-8"?>
<svg xmlns="http://www.w3.org/2000/svg" xmlns:xlink="http://www.w3.org/1999/xlink" width="16pt" height="16pt" viewBox="0 0 16 16" version="1.1">
<g id="surface1">
<path style=" stroke:none;fill-rule:evenodd;fill:rgb(55.686275%,55.686275%,55.686275%);fill-opacity:1;" d="M 3.734375 0.949219 L 12.265625 0.949219 C 13.800781 0.949219 15.050781 2.199219 15.050781 3.734375 L 15.050781 12.265625 C 15.050781 13.800781 13.800781 15.050781 12.265625 15.050781 L 3.734375 15.050781 C 2.199219 15.050781 0.949219 13.800781 0.949219 12.265625 L 0.949219 3.734375 C 0.949219 2.199219 2.199219 0.949219 3.734375 0.949219 Z M 3.734375 0.949219 "/>
<path style=" stroke:none;fill-rule:nonzero;fill:rgb(30.196078%,30.196078%,30.196078%);fill-opacity:1;" d="M 8 4.5 C 6.066406 4.5 4.5 6.066406 4.5 8 L 4.5 11.5 L 8 11.5 C 9.933594 11.5 11.5 9.933594 11.5 8 C 11.5 6.066406 9.933594 4.5 8 4.5 Z M 8 6 C 9.105469 6 10 6.894531 10 8 C 10 9.105469 9.105469 10 8 10 C 6.894531 10 6 9.105469 6 8 C 6 6.894531 6.894531 6 8 6 Z M 8 6 "/>
<path style=" stroke:none;fill-rule:evenodd;fill:rgb(30.196078%,66.666667%,96.078431%);fill-opacity:1;" d="M 14.027344 11.527344 C 14.027344 12.90625 12.90625 14.027344 11.527344 14.027344 C 10.144531 14.027344 9.027344 12.90625 9.027344 11.527344 C 9.027344 10.144531 10.144531 9.027344 11.527344 9.027344 C 12.90625 9.027344 14.027344 10.144531 14.027344 11.527344 Z M 14.027344 11.527344 "/>
<path style=" stroke:none;fill-rule:nonzero;fill:rgb(100%,100%,100%);fill-opacity:1;" d="M 11.085938 11.339844 L 12.023438 11.339844 L 12.023438 13.214844 L 11.085938 13.214844 Z M 11.085938 11.339844 "/>
<path style=" stroke:none;fill-rule:nonzero;fill:rgb(100%,100%,100%);fill-opacity:1;" d="M 11.085938 10.089844 L 12.023438 10.089844 L 12.023438 11.027344 L 11.085938 11.027344 Z M 11.085938 10.089844 "/>
</g>
</svg>
