<?xml version="1.0" encoding="UTF-8"?>
<svg xmlns="http://www.w3.org/2000/svg" xmlns:xlink="http://www.w3.org/1999/xlink" width="16pt" height="16pt" viewBox="0 0 16 16" version="1.1">
<g id="surface1">
<path style=" stroke:none;fill-rule:evenodd;fill:rgb(1.568627%,17.254902%,21.960784%);fill-opacity:1;" d="M 3.734375 0.949219 L 12.265625 0.949219 C 13.800781 0.949219 15.050781 2.199219 15.050781 3.734375 L 15.050781 12.265625 C 15.050781 13.800781 13.800781 15.050781 12.265625 15.050781 L 3.734375 15.050781 C 2.199219 15.050781 0.949219 13.800781 0.949219 12.265625 L 0.949219 3.734375 C 0.949219 2.199219 2.199219 0.949219 3.734375 0.949219 Z M 3.734375 0.949219 "/>
<path style=" stroke:none;fill-rule:evenodd;fill:rgb(1.568627%,17.254902%,21.960784%);fill-opacity:1;" d="M 3.734375 0.949219 C 2.191406 0.949219 0.949219 2.191406 0.949219 3.738281 L 0.949219 6.40625 C 1.050781 6.082031 1.160156 5.765625 1.289062 5.546875 C 1.484375 5.175781 1.753906 4.859375 2.066406 4.601562 C 2.382812 4.34375 2.738281 4.148438 3.105469 4.023438 C 3.46875 3.894531 3.84375 3.835938 4.191406 3.851562 C 4.539062 3.867188 4.859375 3.957031 5.125 4.128906 C 5.4375 3.765625 5.785156 3.523438 6.148438 3.34375 C 6.515625 3.164062 6.898438 3.046875 7.28125 2.9375 C 6.886719 3.421875 6.605469 3.890625 6.4375 4.347656 C 6.265625 4.800781 6.207031 5.238281 6.257812 5.660156 C 6.308594 6.082031 6.464844 6.484375 6.722656 6.871094 C 6.980469 7.257812 7.34375 7.625 7.800781 7.976562 C 7.207031 7.867188 6.140625 7.828125 5.21875 7.875 C 5.089844 8.164062 5.015625 8.457031 4.984375 8.75 C 4.953125 9.042969 4.96875 9.332031 5.019531 9.617188 C 5.125 10.1875 5.382812 10.726562 5.742188 11.195312 C 6.101562 11.664062 6.5625 12.054688 7.078125 12.328125 C 7.59375 12.597656 8.15625 12.746094 8.726562 12.726562 C 9.203125 12.703125 9.601562 12.617188 9.9375 12.472656 C 10.28125 12.332031 10.558594 12.132812 10.792969 11.890625 C 11.027344 11.648438 11.21875 11.359375 11.375 11.035156 C 11.535156 10.710938 11.664062 10.351562 11.78125 9.96875 C 12.007812 9.203125 12.179688 8.332031 12.410156 7.445312 C 12.644531 6.558594 12.9375 5.652344 13.417969 4.804688 C 13.855469 5.136719 14.210938 5.5 14.5 5.882812 C 14.734375 6.203125 14.898438 6.546875 15.050781 6.898438 L 15.050781 3.738281 C 15.050781 2.191406 13.808594 0.949219 12.261719 0.949219 Z M 3.734375 0.949219 "/>
<path style=" stroke:none;fill-rule:nonzero;fill:rgb(100%,77.647059%,2.745098%);fill-opacity:1;" d="M 6.554688 11.179688 C 11.257812 14.105469 15.625 5.78125 10.441406 1.78125 C 16.28125 2.539062 13.476562 8.820312 14.101562 12.910156 C 11.914062 12.8125 9.027344 14.886719 7.070312 13.78125 C 6.589844 13.507812 6.773438 11.609375 6.554688 11.179688 Z M 6.554688 11.179688 "/>
<path style=" stroke:none;fill-rule:nonzero;fill:rgb(81.960784%,29.411765%,0.392157%);fill-opacity:1;" d="M 5.683594 7.515625 C 5.203125 8.445312 5.421875 8.597656 5.574219 8.773438 C 6.078125 9.222656 6.90625 8.972656 8.40625 8.132812 C 8.476562 8.707031 8 9.367188 6.757812 9.988281 C 6.351562 10.191406 6.152344 10.507812 6.554688 11.179688 L 8.441406 13.449219 L 5.8125 13.226562 L 3.640625 7.699219 Z M 5.683594 7.515625 "/>
<path style=" stroke:none;fill-rule:nonzero;fill:rgb(96.862745%,56.078431%,1.568627%);fill-opacity:1;" d="M 10.21875 3.550781 C 12.503906 5.03125 11.960938 7.167969 12.640625 9.019531 L 13.125 5.605469 C 12.203125 4.152344 12.058594 3.789062 10.21875 3.550781 Z M 10.21875 3.550781 "/>
<path style=" stroke:none;fill-rule:nonzero;fill:rgb(96.862745%,56.078431%,1.568627%);fill-opacity:1;" d="M 11.625 7.105469 C 11.839844 9.082031 11.601562 10.441406 11.980469 10.515625 L 12.65625 8.667969 C 12.484375 8.515625 12.089844 7.59375 11.625 7.105469 Z M 11.625 7.105469 "/>
<path style=" stroke:none;fill-rule:nonzero;fill:rgb(86.27451%,29.019608%,1.568627%);fill-opacity:1;" d="M 2.574219 2.570312 C 1.800781 3.585938 1.554688 4.578125 1.761719 5.488281 L 3.246094 4.398438 C 2.90625 4.039062 2.640625 3.519531 2.574219 2.570312 Z M 2.574219 2.570312 "/>
<path style=" stroke:none;fill-rule:nonzero;fill:rgb(100%,100%,100%);fill-opacity:1;" d="M 5.824219 5.976562 C 6.789062 5.976562 7.792969 6.15625 8.640625 5.621094 C 8.199219 6.269531 7.703125 6.726562 6.773438 7.132812 Z M 5.824219 5.976562 "/>
<path style=" stroke:none;fill-rule:nonzero;fill:rgb(94.901961%,34.901961%,0%);fill-opacity:1;" d="M 5.929688 4.566406 C 6.398438 4.863281 6.460938 5.269531 8.601562 5.09375 C 8.757812 5.261719 8.757812 5.4375 8.640625 5.621094 C 7.90625 6.109375 6.78125 6.140625 5.898438 5.949219 Z M 5.929688 4.566406 "/>
<path style=" stroke:none;fill-rule:nonzero;fill:rgb(39.607843%,39.215686%,39.607843%);fill-opacity:1;" d="M 8.601562 5.09375 C 8.761719 5.398438 8.601562 5.542969 8.503906 5.691406 C 9.0625 5.765625 9.15625 4.941406 8.601562 5.09375 Z M 8.601562 5.09375 "/>
<path style=" stroke:none;fill-rule:evenodd;fill:rgb(93.72549%,35.294118%,0%);fill-opacity:1;" d="M 15.050781 6.898438 C 14.898438 6.546875 14.734375 6.203125 14.5 5.882812 C 14.210938 5.5 13.855469 5.136719 13.417969 4.804688 C 12.9375 5.652344 12.644531 6.558594 12.410156 7.445312 C 12.179688 8.332031 12.007812 9.203125 11.78125 9.96875 C 11.664062 10.351562 11.535156 10.710938 11.375 11.035156 C 11.21875 11.359375 11.027344 11.648438 10.792969 11.890625 C 10.558594 12.132812 10.28125 12.332031 9.9375 12.472656 C 9.601562 12.617188 9.203125 12.703125 8.726562 12.726562 C 8.15625 12.746094 7.59375 12.597656 7.078125 12.328125 C 6.5625 12.054688 6.101562 11.664062 5.742188 11.195312 C 5.382812 10.726562 5.125 10.1875 5.019531 9.617188 C 4.96875 9.332031 4.953125 9.042969 4.984375 8.75 C 5.015625 8.457031 5.089844 8.164062 5.21875 7.875 C 6.140625 7.828125 7.207031 7.867188 7.800781 7.976562 C 7.34375 7.625 6.980469 7.257812 6.722656 6.871094 C 6.464844 6.484375 6.308594 6.082031 6.257812 5.660156 C 6.207031 5.238281 6.265625 4.800781 6.4375 4.347656 C 6.605469 3.890625 6.886719 3.421875 7.28125 2.9375 C 6.898438 3.046875 6.515625 3.164062 6.148438 3.34375 C 5.785156 3.523438 5.4375 3.765625 5.125 4.128906 C 4.859375 3.957031 4.539062 3.867188 4.191406 3.851562 C 3.84375 3.835938 3.46875 3.894531 3.105469 4.023438 C 2.738281 4.148438 2.382812 4.34375 2.066406 4.601562 C 1.753906 4.859375 1.484375 5.175781 1.289062 5.546875 C 1.160156 5.765625 1.050781 6.082031 0.949219 6.40625 L 0.949219 12.265625 C 0.949219 13.808594 2.191406 15.050781 3.734375 15.050781 L 12.261719 15.050781 C 13.808594 15.050781 15.050781 13.808594 15.050781 12.265625 Z M 15.050781 6.898438 "/>
</g>
</svg>
