<?xml version="1.0" encoding="UTF-8"?>
<svg xmlns="http://www.w3.org/2000/svg" xmlns:xlink="http://www.w3.org/1999/xlink" width="16pt" height="16pt" viewBox="0 0 16 16" version="1.1">
<g id="surface1">
<path style=" stroke:none;fill-rule:evenodd;fill:rgb(30.980392%,30.980392%,30.980392%);fill-opacity:1;" d="M 3.734375 0.949219 L 12.265625 0.949219 C 13.800781 0.949219 15.050781 2.199219 15.050781 3.734375 L 15.050781 12.265625 C 15.050781 13.800781 13.800781 15.050781 12.265625 15.050781 L 3.734375 15.050781 C 2.199219 15.050781 0.949219 13.800781 0.949219 12.265625 L 0.949219 3.734375 C 0.949219 2.199219 2.199219 0.949219 3.734375 0.949219 Z M 3.734375 0.949219 "/>
<path style=" stroke:none;fill-rule:evenodd;fill:rgb(95.686275%,36.078431%,28.627451%);fill-opacity:1;" d="M 0.949219 9.535156 C 0.992188 9.636719 0.996094 9.757812 1.070312 9.835938 C 1.234375 10 1.460938 10.097656 1.707031 10.097656 L 2.90625 10.097656 C 3.15625 10.097656 3.378906 10 3.542969 9.835938 C 3.703125 9.671875 3.804688 9.449219 3.804688 9.199219 L 3.804688 6.800781 C 3.804688 6.550781 3.703125 6.328125 3.542969 6.164062 C 3.378906 6 3.15625 5.902344 2.90625 5.902344 L 1.707031 5.902344 C 1.460938 5.902344 1.234375 6 1.070312 6.164062 C 0.996094 6.242188 0.992188 6.363281 0.949219 6.464844 Z M 0.949219 9.535156 "/>
<path style=" stroke:none;fill-rule:evenodd;fill:rgb(95.686275%,36.078431%,28.627451%);fill-opacity:1;" d="M 7.238281 15.050781 C 7.3125 14.925781 7.402344 14.808594 7.402344 14.652344 L 7.402344 12.136719 C 7.402344 11.902344 7.308594 11.691406 7.160156 11.542969 C 7.011719 11.390625 6.804688 11.296875 6.578125 11.296875 L 1.632812 11.296875 C 1.40625 11.296875 1.199219 11.390625 1.050781 11.542969 C 0.988281 11.605469 0.988281 11.707031 0.949219 11.792969 L 0.949219 12.265625 C 0.949219 13.808594 2.191406 15.050781 3.734375 15.050781 Z M 7.238281 15.050781 "/>
<path style=" stroke:none;fill-rule:evenodd;fill:rgb(95.686275%,36.078431%,28.627451%);fill-opacity:1;" d="M 15.050781 11.792969 C 15.011719 11.707031 15.011719 11.605469 14.949219 11.542969 C 14.800781 11.390625 14.59375 11.296875 14.367188 11.296875 L 9.421875 11.296875 C 9.195312 11.296875 8.988281 11.390625 8.839844 11.542969 C 8.691406 11.691406 8.597656 11.902344 8.597656 12.136719 L 8.597656 14.652344 C 8.597656 14.808594 8.6875 14.925781 8.761719 15.050781 L 12.265625 15.050781 C 13.808594 15.050781 15.050781 13.808594 15.050781 12.265625 Z M 15.050781 11.792969 "/>
<path style=" stroke:none;fill-rule:evenodd;fill:rgb(95.686275%,36.078431%,28.627451%);fill-opacity:1;" d="M 8.761719 0.949219 C 8.6875 1.074219 8.597656 1.191406 8.597656 1.347656 L 8.597656 3.863281 C 8.597656 4.097656 8.691406 4.308594 8.839844 4.457031 C 8.988281 4.609375 9.195312 4.703125 9.421875 4.703125 L 14.367188 4.703125 C 14.59375 4.703125 14.800781 4.609375 14.949219 4.457031 C 15.011719 4.394531 15.011719 4.292969 15.050781 4.207031 L 15.050781 3.734375 C 15.050781 2.191406 13.808594 0.949219 12.265625 0.949219 Z M 8.761719 0.949219 "/>
<path style=" stroke:none;fill-rule:evenodd;fill:rgb(30.980392%,30.980392%,30.980392%);fill-opacity:1;" d="M 0.949219 4.207031 L 0.949219 6.464844 C 0.992188 6.363281 0.996094 6.242188 1.070312 6.164062 C 1.234375 6 1.460938 5.902344 1.707031 5.902344 L 2.90625 5.902344 C 3.15625 5.902344 3.378906 6 3.542969 6.164062 C 3.703125 6.328125 3.804688 6.550781 3.804688 6.800781 L 3.804688 9.199219 C 3.804688 9.449219 3.703125 9.671875 3.542969 9.835938 C 3.378906 10 3.15625 10.097656 2.90625 10.097656 L 1.707031 10.097656 C 1.460938 10.097656 1.234375 10 1.070312 9.835938 C 0.996094 9.757812 0.992188 9.636719 0.949219 9.535156 L 0.949219 11.792969 C 0.988281 11.707031 0.988281 11.605469 1.050781 11.542969 C 1.199219 11.390625 1.40625 11.296875 1.632812 11.296875 L 6.578125 11.296875 C 6.804688 11.296875 7.011719 11.390625 7.160156 11.542969 C 7.308594 11.691406 7.402344 11.902344 7.402344 12.136719 L 7.402344 14.652344 C 7.402344 14.808594 7.3125 14.925781 7.238281 15.050781 L 8.761719 15.050781 C 8.6875 14.925781 8.597656 14.808594 8.597656 14.652344 L 8.597656 12.136719 C 8.597656 11.902344 8.691406 11.691406 8.839844 11.542969 C 8.988281 11.390625 9.195312 11.296875 9.421875 11.296875 L 14.367188 11.296875 C 14.59375 11.296875 14.800781 11.390625 14.949219 11.542969 C 15.011719 11.605469 15.011719 11.707031 15.050781 11.792969 L 15.050781 9.535156 C 15.007812 9.636719 15.003906 9.757812 14.929688 9.835938 C 14.765625 10 14.539062 10.097656 14.292969 10.097656 L 13.09375 10.097656 C 12.84375 10.097656 12.621094 10 12.457031 9.835938 C 12.296875 9.671875 12.195312 9.449219 12.195312 9.199219 L 12.195312 6.800781 C 12.195312 6.550781 12.296875 6.328125 12.457031 6.164062 C 12.621094 6 12.84375 5.902344 13.09375 5.902344 L 14.292969 5.902344 C 14.539062 5.902344 14.765625 6 14.929688 6.164062 C 15.003906 6.242188 15.007812 6.363281 15.050781 6.464844 L 15.050781 4.207031 C 15.011719 4.292969 15.011719 4.394531 14.949219 4.457031 C 14.800781 4.609375 14.59375 4.703125 14.367188 4.703125 L 9.421875 4.703125 C 9.195312 4.703125 8.988281 4.609375 8.839844 4.457031 C 8.691406 4.308594 8.597656 4.097656 8.597656 3.863281 L 8.597656 1.347656 C 8.597656 1.191406 8.6875 1.074219 8.761719 0.949219 L 7.238281 0.949219 C 7.3125 1.074219 7.402344 1.191406 7.402344 1.347656 L 7.402344 3.863281 C 7.402344 4.097656 7.308594 4.308594 7.160156 4.457031 C 7.011719 4.609375 6.804688 4.703125 6.578125 4.703125 L 1.632812 4.703125 C 1.40625 4.703125 1.199219 4.609375 1.050781 4.457031 C 0.988281 4.394531 0.988281 4.292969 0.949219 4.207031 Z M 0.949219 4.207031 "/>
<path style=" stroke:none;fill-rule:evenodd;fill:rgb(95.686275%,36.078431%,28.627451%);fill-opacity:1;" d="M 0.949219 4.207031 C 0.988281 4.292969 0.988281 4.394531 1.050781 4.457031 C 1.199219 4.609375 1.40625 4.703125 1.632812 4.703125 L 6.578125 4.703125 C 6.804688 4.703125 7.011719 4.609375 7.160156 4.457031 C 7.308594 4.308594 7.402344 4.097656 7.402344 3.863281 L 7.402344 1.347656 C 7.402344 1.191406 7.3125 1.074219 7.238281 0.949219 L 3.734375 0.949219 C 2.191406 0.949219 0.949219 2.191406 0.949219 3.734375 Z M 0.949219 4.207031 "/>
<path style=" stroke:none;fill-rule:evenodd;fill:rgb(30.980392%,30.980392%,30.980392%);fill-opacity:1;" d="M 5.753906 5.902344 C 5.546875 5.902344 5.359375 5.996094 5.222656 6.148438 C 5.089844 6.300781 5.003906 6.511719 5.003906 6.742188 L 5.003906 9.257812 C 5.003906 9.488281 5.089844 9.699219 5.222656 9.851562 C 5.359375 10.003906 5.546875 10.097656 5.753906 10.097656 L 10.246094 10.097656 C 10.453125 10.097656 10.640625 10.003906 10.777344 9.851562 C 10.910156 9.699219 10.996094 9.488281 10.996094 9.257812 L 10.996094 6.742188 C 10.996094 6.511719 10.910156 6.300781 10.777344 6.148438 C 10.640625 5.996094 10.453125 5.902344 10.246094 5.902344 Z M 5.753906 5.902344 "/>
<path style=" stroke:none;fill-rule:evenodd;fill:rgb(95.686275%,36.078431%,28.627451%);fill-opacity:1;" d="M 5.753906 5.902344 L 10.246094 5.902344 C 10.453125 5.902344 10.640625 5.996094 10.777344 6.148438 C 10.910156 6.300781 10.996094 6.511719 10.996094 6.742188 L 10.996094 9.257812 C 10.996094 9.488281 10.910156 9.699219 10.777344 9.851562 C 10.640625 10.003906 10.453125 10.097656 10.246094 10.097656 L 5.753906 10.097656 C 5.546875 10.097656 5.359375 10.003906 5.222656 9.851562 C 5.089844 9.699219 5.003906 9.488281 5.003906 9.257812 L 5.003906 6.742188 C 5.003906 6.511719 5.089844 6.300781 5.222656 6.148438 C 5.359375 5.996094 5.546875 5.902344 5.753906 5.902344 Z M 5.753906 5.902344 "/>
<path style=" stroke:none;fill-rule:evenodd;fill:rgb(95.686275%,36.078431%,28.627451%);fill-opacity:1;" d="M 15.050781 6.464844 C 15.007812 6.363281 15.003906 6.242188 14.929688 6.164062 C 14.765625 6 14.539062 5.902344 14.292969 5.902344 L 13.09375 5.902344 C 12.84375 5.902344 12.621094 6 12.457031 6.164062 C 12.296875 6.328125 12.195312 6.550781 12.195312 6.800781 L 12.195312 9.199219 C 12.195312 9.449219 12.296875 9.671875 12.457031 9.835938 C 12.621094 10 12.84375 10.097656 13.09375 10.097656 L 14.292969 10.097656 C 14.539062 10.097656 14.765625 10 14.929688 9.835938 C 15.003906 9.757812 15.007812 9.636719 15.050781 9.535156 Z M 15.050781 6.464844 "/>
</g>
</svg>
