<?xml version="1.0" encoding="UTF-8"?>
<svg xmlns="http://www.w3.org/2000/svg" xmlns:xlink="http://www.w3.org/1999/xlink" width="16pt" height="16pt" viewBox="0 0 16 16" version="1.1">
<g id="surface1">
<path style=" stroke:none;fill-rule:evenodd;fill:rgb(76.078431%,20.784314%,16.470588%);fill-opacity:1;" d="M 3.734375 0.949219 L 12.265625 0.949219 C 13.800781 0.949219 15.050781 2.199219 15.050781 3.734375 L 15.050781 12.265625 C 15.050781 13.800781 13.800781 15.050781 12.265625 15.050781 L 3.734375 15.050781 C 2.199219 15.050781 0.949219 13.800781 0.949219 12.265625 L 0.949219 3.734375 C 0.949219 2.199219 2.199219 0.949219 3.734375 0.949219 Z M 3.734375 0.949219 "/>
<path style=" stroke:none;fill-rule:nonzero;fill:rgb(100%,100%,100%);fill-opacity:1;" d="M 12 3.003906 L 12 5.015625 C 9.992188 5.050781 9.5 7.007812 9.5 7.007812 L 11.011719 7.007812 L 11.011719 9.019531 L 8.664062 9.019531 C 7.25 13.378906 4 12.992188 4 12.992188 L 4 10.980469 C 4 10.980469 6.0625 11.363281 7.113281 7.519531 C 8.429688 2.714844 12 3.003906 12 3.003906 Z M 12 3.003906 "/>
</g>
</svg>
