<?xml version="1.0" encoding="UTF-8"?>
<svg xmlns="http://www.w3.org/2000/svg" xmlns:xlink="http://www.w3.org/1999/xlink" width="16pt" height="16pt" viewBox="0 0 16 16" version="1.1">
<g id="surface1">
<path style=" stroke:none;fill-rule:evenodd;fill:rgb(30.980392%,30.980392%,30.980392%);fill-opacity:1;" d="M 3.734375 0.949219 L 12.265625 0.949219 C 13.800781 0.949219 15.050781 2.199219 15.050781 3.734375 L 15.050781 12.265625 C 15.050781 13.800781 13.800781 15.050781 12.265625 15.050781 L 3.734375 15.050781 C 2.199219 15.050781 0.949219 13.800781 0.949219 12.265625 L 0.949219 3.734375 C 0.949219 2.199219 2.199219 0.949219 3.734375 0.949219 Z M 3.734375 0.949219 "/>
<path style=" stroke:none;fill-rule:nonzero;fill:rgb(80%,80%,80%);fill-opacity:1;" d="M 8 3.933594 L 10.847656 3.933594 C 10.847656 3.933594 9.023438 4.320312 8.8125 5 C 8.65625 5.507812 9.734375 5.925781 9.625 6.449219 C 9.496094 7.078125 8.128906 7.082031 8 7.710938 C 7.875 8.300781 9.324219 8.757812 9.21875 9.355469 C 9.113281 9.984375 7.605469 10.074219 7.59375 10.710938 C 7.582031 11.328125 9.21875 12.066406 9.21875 12.066406 L 5.152344 12.066406 Z M 8 3.933594 "/>
<path style=" stroke:none;fill-rule:nonzero;fill:rgb(59.607843%,59.607843%,59.607843%);fill-opacity:1;" d="M 3.117188 3.117188 L 3.117188 4.339844 L 4.339844 4.339844 L 4.339844 3.117188 Z M 11.660156 3.117188 L 11.660156 4.339844 L 12.882812 4.339844 L 12.882812 3.117188 Z M 3.117188 5.96875 L 3.117188 7.1875 L 4.339844 7.1875 L 4.339844 5.96875 Z M 11.660156 5.96875 L 11.660156 7.1875 L 12.882812 7.1875 L 12.882812 5.96875 Z M 3.117188 8.8125 L 3.117188 10.03125 L 4.339844 10.03125 L 4.339844 8.8125 Z M 11.660156 8.8125 L 11.660156 10.03125 L 12.882812 10.03125 L 12.882812 8.8125 Z M 3.117188 11.660156 L 3.117188 12.882812 L 4.339844 12.882812 L 4.339844 11.660156 Z M 11.660156 11.660156 L 11.660156 12.882812 L 12.882812 12.882812 L 12.882812 11.660156 Z M 11.660156 11.660156 "/>
</g>
</svg>
