<?xml version="1.0" encoding="UTF-8"?>
<svg xmlns="http://www.w3.org/2000/svg" xmlns:xlink="http://www.w3.org/1999/xlink" width="16pt" height="16pt" viewBox="0 0 16 16" version="1.1">
<g id="surface1">
<path style=" stroke:none;fill-rule:evenodd;fill:rgb(80%,80%,80%);fill-opacity:1;" d="M 3.734375 0.949219 L 12.265625 0.949219 C 13.800781 0.949219 15.050781 2.199219 15.050781 3.734375 L 15.050781 12.265625 C 15.050781 13.800781 13.800781 15.050781 12.265625 15.050781 L 3.734375 15.050781 C 2.199219 15.050781 0.949219 13.800781 0.949219 12.265625 L 0.949219 3.734375 C 0.949219 2.199219 2.199219 0.949219 3.734375 0.949219 Z M 3.734375 0.949219 "/>
<path style=" stroke:none;fill-rule:nonzero;fill:rgb(100%,100%,100%);fill-opacity:1;" d="M 7.554688 2.816406 L 8.445312 2.816406 C 9.015625 2.816406 9.480469 3.28125 9.480469 3.851562 L 9.480469 6.964844 C 9.480469 7.535156 9.015625 8 8.445312 8 L 7.554688 8 C 6.984375 8 6.519531 7.535156 6.519531 6.964844 L 6.519531 3.851562 C 6.519531 3.28125 6.984375 2.816406 7.554688 2.816406 Z M 7.554688 2.816406 "/>
<path style=" stroke:none;fill-rule:nonzero;fill:rgb(100%,100%,100%);fill-opacity:1;" d="M 8.082031 6.519531 C 7.425781 6.496094 6.808594 6.769531 6.480469 7.234375 L 3.792969 11.035156 C 3.476562 11.480469 3.476562 12.023438 3.792969 12.46875 C 4.105469 12.910156 4.683594 13.183594 5.3125 13.183594 L 10.6875 13.183594 C 11.316406 13.183594 11.894531 12.910156 12.207031 12.46875 C 12.523438 12.023438 12.523438 11.480469 12.207031 11.035156 L 9.519531 7.234375 C 9.222656 6.8125 8.679688 6.542969 8.082031 6.519531 Z M 8.082031 6.519531 "/>
<path style=" stroke:none;fill-rule:nonzero;fill:rgb(34.117647%,54.117647%,100%);fill-opacity:1;" d="M 8.101562 4.507812 C 7.796875 4.507812 7.546875 4.753906 7.546875 5.0625 C 7.546875 5.371094 7.796875 5.617188 8.101562 5.617188 C 8.40625 5.617188 8.65625 5.371094 8.65625 5.0625 C 8.65625 4.753906 8.40625 4.507812 8.101562 4.507812 Z M 8.101562 4.507812 "/>
<path style=" stroke:none;fill-rule:nonzero;fill:rgb(34.117647%,54.117647%,100%);fill-opacity:1;" d="M 7.359375 5.988281 C 7.054688 5.988281 6.804688 6.234375 6.804688 6.542969 C 6.804688 6.851562 7.054688 7.097656 7.359375 7.097656 C 7.667969 7.097656 7.917969 6.851562 7.917969 6.542969 C 7.917969 6.234375 7.667969 5.988281 7.359375 5.988281 Z M 7.359375 5.988281 "/>
<path style=" stroke:none;fill-rule:nonzero;fill:rgb(34.117647%,54.117647%,100%);fill-opacity:1;" d="M 8.472656 7.097656 C 8.164062 7.097656 7.917969 7.347656 7.917969 7.65625 C 7.917969 7.960938 8.164062 8.210938 8.472656 8.210938 C 8.777344 8.210938 9.027344 7.960938 9.027344 7.65625 C 9.027344 7.347656 8.777344 7.097656 8.472656 7.097656 Z M 8.472656 7.097656 "/>
<path style=" stroke:none;fill-rule:nonzero;fill:rgb(34.117647%,54.117647%,100%);fill-opacity:1;" d="M 7.359375 8.578125 C 7.054688 8.578125 6.804688 8.828125 6.804688 9.136719 C 6.804688 9.441406 7.054688 9.691406 7.359375 9.691406 C 7.667969 9.691406 7.917969 9.441406 7.917969 9.136719 C 7.917969 8.828125 7.667969 8.578125 7.359375 8.578125 Z M 7.359375 8.578125 "/>
<path style=" stroke:none;fill-rule:nonzero;fill:rgb(34.117647%,54.117647%,100%);fill-opacity:1;" d="M 5.953125 10.433594 L 5.460938 11.167969 C 5.066406 11.765625 5.5625 12.28125 6.347656 12.28125 L 9.484375 12.28125 C 10.269531 12.28125 10.765625 11.765625 10.371094 11.167969 L 9.878906 10.433594 Z M 5.953125 10.433594 "/>
</g>
</svg>
