<?xml version="1.0" encoding="UTF-8"?>
<svg xmlns="http://www.w3.org/2000/svg" xmlns:xlink="http://www.w3.org/1999/xlink" width="16pt" height="16pt" viewBox="0 0 16 16" version="1.1">
<g id="surface1">
<path style=" stroke:none;fill-rule:evenodd;fill:rgb(94.509804%,55.294118%,0%);fill-opacity:1;" d="M 3.734375 0.949219 L 12.265625 0.949219 C 13.800781 0.949219 15.050781 2.199219 15.050781 3.734375 L 15.050781 12.265625 C 15.050781 13.800781 13.800781 15.050781 12.265625 15.050781 L 3.734375 15.050781 C 2.199219 15.050781 0.949219 13.800781 0.949219 12.265625 L 0.949219 3.734375 C 0.949219 2.199219 2.199219 0.949219 3.734375 0.949219 Z M 3.734375 0.949219 "/>
<path style=" stroke:none;fill-rule:evenodd;fill:rgb(100%,100%,100%);fill-opacity:1;" d="M 13 6.484375 C 12.0625 2.523438 8.464844 2.554688 6.289062 3.589844 C 4.003906 4.746094 2.347656 7.707031 3.25 10.1875 C 4.648438 13.929688 9.785156 13.875 11.523438 10.394531 C 12.039062 9.117188 12.421875 8.210938 11 7 L 11 8.5 L 10.5 7.5 C 10.5 7.5 10.054688 8.546875 9.585938 9.027344 C 8.929688 9.691406 8 9.5 8 9.5 C 8.175781 10.164062 9.5 10.5 9.5 10.5 C 6.0625 12.125 5.960938 9.40625 6 8.75 C 6.113281 6.859375 7.632812 5.390625 9.640625 5.496094 C 10.277344 5.542969 11.5 6 11.5 6 C 11.039062 4.949219 10.386719 4.699219 10 4.5 C 11.507812 4 12.3125 5.578125 13 6.484375 Z M 13 6.484375 "/>
</g>
</svg>
