<?xml version="1.0" encoding="UTF-8"?>
<svg xmlns="http://www.w3.org/2000/svg" xmlns:xlink="http://www.w3.org/1999/xlink" width="16pt" height="16pt" viewBox="0 0 16 16" version="1.1">
<g id="surface1">
<path style=" stroke:none;fill-rule:evenodd;fill:rgb(43.137255%,69.411765%,22.352941%);fill-opacity:1;" d="M 3.734375 0.949219 L 12.265625 0.949219 C 13.800781 0.949219 15.050781 2.199219 15.050781 3.734375 L 15.050781 12.265625 C 15.050781 13.800781 13.800781 15.050781 12.265625 15.050781 L 3.734375 15.050781 C 2.199219 15.050781 0.949219 13.800781 0.949219 12.265625 L 0.949219 3.734375 C 0.949219 2.199219 2.199219 0.949219 3.734375 0.949219 Z M 3.734375 0.949219 "/>
<path style=" stroke:none;fill-rule:nonzero;fill:rgb(100%,100%,100%);fill-opacity:1;" d="M 8.007812 4.003906 C 7.621094 4 7.234375 4.054688 6.859375 4.15625 C 5.109375 4.605469 3.972656 6.257812 4 7.996094 L 3 7.996094 L 4.5 10.003906 L 6 7.996094 L 5 7.996094 C 4.996094 7.269531 5.113281 6.542969 5.621094 6 C 6.5 5.003906 8.246094 4.59375 9.507812 5.328125 C 9.925781 5.855469 10.855469 5.277344 10.367188 4.734375 C 9.671875 4.21875 8.886719 4.003906 8.007812 4.003906 Z M 11.5 5.996094 L 10 8.003906 L 11 8.003906 C 11.003906 8.730469 10.886719 9.457031 10.378906 10 C 9.433594 11.09375 7.753906 11.40625 6.492188 10.671875 C 6.074219 10.144531 5.144531 10.722656 5.632812 11.261719 C 6.328125 11.78125 7.113281 11.996094 7.992188 11.996094 C 8.382812 12 8.765625 11.945312 9.140625 11.84375 C 10.890625 11.394531 12.027344 9.742188 12 8.003906 L 13 8.003906 Z M 11.5 5.996094 "/>
</g>
</svg>
