<?xml version="1.0" encoding="UTF-8"?>
<svg xmlns="http://www.w3.org/2000/svg" xmlns:xlink="http://www.w3.org/1999/xlink" width="16pt" height="16pt" viewBox="0 0 16 16" version="1.1">
<g id="surface1">
<path style=" stroke:none;fill-rule:evenodd;fill:rgb(54.117647%,29.411765%,17.254902%);fill-opacity:1;" d="M 3.734375 0.949219 L 12.265625 0.949219 C 13.800781 0.949219 15.050781 2.199219 15.050781 3.734375 L 15.050781 12.265625 C 15.050781 13.800781 13.800781 15.050781 12.265625 15.050781 L 3.734375 15.050781 C 2.199219 15.050781 0.949219 13.800781 0.949219 12.265625 L 0.949219 3.734375 C 0.949219 2.199219 2.199219 0.949219 3.734375 0.949219 Z M 3.734375 0.949219 "/>
<path style=" stroke:none;fill-rule:nonzero;fill:rgb(98.431373%,71.372549%,29.019608%);fill-opacity:1;" d="M 4.859375 13.945312 C 4.867188 13.925781 4.890625 13.785156 4.910156 13.640625 C 5.027344 12.75 5.019531 12.179688 5.25 11.796875 C 5.292969 11.726562 5.414062 11.574219 5.519531 11.453125 C 5.625 11.335938 5.710938 11.261719 5.710938 11.246094 C 5.710938 11.226562 5.679688 11.222656 5.613281 11.234375 C 5.285156 11.285156 5.089844 11.226562 5 11.074219 C 4.953125 10.996094 5.007812 11.097656 5 9.140625 C 4.992188 6.890625 5.015625 7.105469 5.222656 7 C 5.371094 6.925781 5.558594 6.8125 5.722656 6.785156 C 6 6.738281 6.191406 6.949219 6.332031 7.21875 C 6.371094 7.292969 6.414062 7.347656 6.429688 7.34375 C 6.472656 7.328125 6.480469 5.300781 6.4375 5.300781 C 6.417969 5.300781 6.386719 5.351562 6.363281 5.410156 C 6.304688 5.5625 6.167969 5.910156 6.003906 5.984375 C 5.832031 6.058594 5.289062 6.25 5.175781 6.25 C 5.128906 6.25 5.015625 6.238281 5 6.222656 C 4.980469 6.203125 5 5.847656 5 4.765625 C 5 3.976562 4.988281 3.167969 5 3.15625 C 5.085938 3.015625 6.457031 2.960938 6.933594 3.066406 C 7.03125 3.089844 7.191406 3.144531 7.292969 3.195312 C 7.558594 3.320312 7.726562 3.554688 7.90625 3.898438 C 7.917969 3.917969 7.941406 3.933594 7.960938 3.933594 C 7.984375 3.933594 7.992188 3.875 8 3.125 C 8 2.628906 8 2.046875 7.992188 2.019531 C 7.992188 2.019531 7.734375 2.359375 7.699219 2.425781 L 7.625 2.488281 L 7.179688 2.480469 C 6.9375 2.476562 5.859375 2.480469 4.976562 2.480469 C 4.09375 2.480469 3.050781 2.492188 3.03125 2.5 C 2.953125 2.53125 3.03125 2.582031 3.230469 2.6875 C 3.574219 2.875 3.894531 3.027344 3.980469 3.339844 C 4.027344 3.519531 4.027344 6.109375 3.976562 6.316406 C 3.929688 6.515625 3.769531 6.664062 3.617188 6.824219 C 3.546875 6.898438 3.488281 6.96875 3.488281 6.984375 C 3.488281 6.996094 3.546875 7.0625 3.621094 7.128906 C 3.761719 7.269531 3.949219 7.4375 3.984375 7.578125 C 4.019531 7.714844 4.046875 11.640625 4.015625 11.855469 C 3.984375 12.070312 3.84375 12.164062 3.664062 12.355469 C 3.496094 12.53125 3.496094 12.53125 3.753906 12.625 C 3.960938 12.707031 4.355469 12.886719 4.433594 13.003906 C 4.515625 13.128906 4.625 13.359375 4.714844 13.679688 C 4.753906 13.828125 4.792969 13.953125 4.796875 13.964844 C 4.8125 13.992188 4.84375 13.984375 4.859375 13.945312 Z M 4.859375 13.945312 "/>
<path style=" stroke:none;fill-rule:nonzero;fill:rgb(98.431373%,71.372549%,29.019608%);fill-opacity:1;" d="M 9.027344 2.980469 C 9 2.996094 8.996094 3.195312 9 3.84375 C 9.007812 4.785156 8.976562 4.480469 9.171875 4.234375 C 9.4375 3.890625 9.796875 3.980469 9.949219 3.964844 C 10.335938 3.953125 10.429688 3.960938 10.464844 3.996094 C 10.503906 4.03125 10.539062 4.464844 10.507812 5.328125 L 10.507812 6.488281 C 10.507812 6.488281 10.238281 6.699219 10.09375 6.84375 C 10.046875 6.898438 10.003906 6.957031 10.003906 6.972656 C 10.003906 6.988281 10.039062 7.046875 10.082031 7.09375 C 10.195312 7.289062 10.496094 7.457031 10.496094 7.457031 L 10.5 9.460938 C 10.507812 11.648438 10.507812 11.515625 10.457031 11.558594 C 10.457031 11.558594 10.097656 11.933594 10 11.980469 C 10.515625 12.148438 10.71875 12.285156 10.9375 12.753906 C 10.96875 12.871094 10.980469 12.980469 11 12.980469 C 11.019531 12.980469 11.03125 12.871094 11.0625 12.753906 C 11.28125 12.285156 11.484375 12.148438 12 11.980469 C 11.902344 11.933594 11.542969 11.558594 11.542969 11.558594 C 11.492188 11.515625 11.492188 11.648438 11.5 9.460938 L 11.503906 7.457031 C 11.503906 7.457031 11.804688 7.289062 11.917969 7.09375 C 11.960938 7.046875 11.996094 6.988281 11.996094 6.972656 C 11.996094 6.957031 11.953125 6.898438 11.90625 6.84375 C 11.761719 6.699219 11.492188 6.488281 11.492188 6.488281 L 11.492188 5.328125 C 11.460938 4.464844 11.496094 4.03125 11.535156 3.996094 C 11.570312 3.960938 11.664062 3.953125 12.050781 3.964844 C 12.203125 3.980469 12.5625 3.890625 12.828125 4.234375 C 13.023438 4.480469 12.992188 4.785156 13 3.84375 C 13.003906 3.195312 13 2.996094 12.972656 2.980469 C 12.882812 3.117188 12.6875 3.472656 12.6875 3.472656 C 12.648438 3.492188 11.957031 3.480469 11 3.480469 C 10.042969 3.480469 9.351562 3.492188 9.3125 3.472656 C 9.3125 3.472656 9.117188 3.117188 9.027344 2.980469 Z M 9.027344 2.980469 "/>
</g>
</svg>
