<?xml version="1.0" encoding="UTF-8"?>
<svg xmlns="http://www.w3.org/2000/svg" xmlns:xlink="http://www.w3.org/1999/xlink" width="16pt" height="16pt" viewBox="0 0 16 16" version="1.1">
<g id="surface1">
<path style=" stroke:none;fill-rule:evenodd;fill:rgb(14.117647%,94.117647%,100%);fill-opacity:1;" d="M 15.050781 11.414062 L 11.414062 15.050781 L 12.261719 15.050781 C 13.808594 15.050781 15.050781 13.808594 15.050781 12.265625 Z M 15.050781 11.414062 "/>
<path style=" stroke:none;fill-rule:evenodd;fill:rgb(40%,86.666667%,13.72549%);fill-opacity:1;" d="M 15.050781 8.914062 L 8.914062 15.050781 L 11.414062 15.050781 L 15.050781 11.414062 Z M 15.050781 8.914062 "/>
<path style=" stroke:none;fill-rule:evenodd;fill:rgb(90.196078%,87.45098%,8.235294%);fill-opacity:1;" d="M 15.050781 6.414062 L 6.414062 15.050781 L 8.914062 15.050781 L 15.050781 8.914062 Z M 15.050781 6.414062 "/>
<path style=" stroke:none;fill-rule:evenodd;fill:rgb(94.901961%,29.803922%,23.921569%);fill-opacity:1;" d="M 15.050781 3.914062 L 3.914062 15.050781 L 6.414062 15.050781 L 15.050781 6.414062 Z M 15.050781 3.914062 "/>
<path style=" stroke:none;fill-rule:evenodd;fill:rgb(30.980392%,30.980392%,30.980392%);fill-opacity:1;" d="M 3.734375 0.949219 C 2.191406 0.949219 0.949219 2.191406 0.949219 3.738281 L 0.949219 12.265625 C 0.949219 13.808594 2.191406 15.050781 3.734375 15.050781 L 3.914062 15.050781 L 15.050781 3.914062 L 15.050781 3.738281 C 15.050781 2.191406 13.808594 0.949219 12.261719 0.949219 Z M 3.734375 0.949219 "/>
<path style=" stroke:none;fill-rule:nonzero;fill:rgb(100%,100%,100%);fill-opacity:1;" d="M 6.898438 2.453125 L 8.324219 4.953125 L 6.898438 7.453125 L 8.039062 7.453125 L 8.898438 5.953125 L 9.753906 7.453125 L 10.898438 7.453125 L 9.46875 4.953125 L 10.898438 2.453125 L 9.753906 2.453125 L 8.898438 3.953125 L 8.039062 2.453125 Z M 2.398438 2.453125 L 6.398438 2.453125 L 6.398438 3.078125 L 3.824219 6.515625 L 6.398438 6.515625 L 6.398438 7.453125 L 2.398438 7.453125 L 2.398438 6.828125 L 4.96875 3.390625 L 2.398438 3.390625 Z M 2.398438 2.453125 "/>
</g>
</svg>
