<?xml version="1.0" encoding="UTF-8"?>
<svg xmlns="http://www.w3.org/2000/svg" xmlns:xlink="http://www.w3.org/1999/xlink" width="16pt" height="16pt" viewBox="0 0 16 16" version="1.1">
<g id="surface1">
<path style=" stroke:none;fill-rule:evenodd;fill:rgb(30.980392%,30.980392%,30.980392%);fill-opacity:1;" d="M 3.734375 0.949219 L 12.265625 0.949219 C 13.800781 0.949219 15.050781 2.199219 15.050781 3.734375 L 15.050781 12.265625 C 15.050781 13.800781 13.800781 15.050781 12.265625 15.050781 L 3.734375 15.050781 C 2.199219 15.050781 0.949219 13.800781 0.949219 12.265625 L 0.949219 3.734375 C 0.949219 2.199219 2.199219 0.949219 3.734375 0.949219 Z M 3.734375 0.949219 "/>
<path style=" stroke:none;fill-rule:evenodd;fill:rgb(100%,38.823529%,38.823529%);fill-opacity:1;" d="M 12.601562 15.039062 C 15.441406 10.039062 11.9375 7.160156 8.46875 6.414062 C 12.136719 8.792969 8.886719 13.476562 4.207031 15.046875 C 6.226562 15.039062 10.582031 15.0625 12.601562 15.039062 Z M 12.601562 15.039062 "/>
<path style=" stroke:none;fill-rule:evenodd;fill:rgb(100%,38.823529%,38.823529%);fill-opacity:1;" d="M 4.101562 0.960938 C -0.046875 5.75 4.070312 8.839844 7.535156 9.585938 C 3.867188 7.207031 6.851562 2.765625 9.933594 0.953125 C 7.910156 0.960938 6.125 0.9375 4.101562 0.960938 Z M 4.101562 0.960938 "/>
<path style=" stroke:none;fill-rule:nonzero;fill:rgb(100%,38.823529%,38.823529%);fill-opacity:1;" d="M 9.199219 9.207031 C 8.796875 9.609375 7.929688 9.394531 7.265625 8.726562 C 6.597656 8.0625 6.386719 7.195312 6.785156 6.792969 C 7.1875 6.390625 8.054688 6.605469 8.71875 7.273438 C 9.386719 7.9375 9.601562 8.804688 9.199219 9.207031 Z M 9.199219 9.207031 "/>
</g>
</svg>
