<?xml version="1.0" encoding="UTF-8"?>
<svg xmlns="http://www.w3.org/2000/svg" xmlns:xlink="http://www.w3.org/1999/xlink" width="16pt" height="16pt" viewBox="0 0 16 16" version="1.1">
<g id="surface1">
<path style=" stroke:none;fill-rule:evenodd;fill:rgb(48.235294%,75.686275%,21.176471%);fill-opacity:1;" d="M 3.734375 0.949219 L 12.265625 0.949219 C 13.800781 0.949219 15.050781 2.199219 15.050781 3.734375 L 15.050781 12.265625 C 15.050781 13.800781 13.800781 15.050781 12.265625 15.050781 L 3.734375 15.050781 C 2.199219 15.050781 0.949219 13.800781 0.949219 12.265625 L 0.949219 3.734375 C 0.949219 2.199219 2.199219 0.949219 3.734375 0.949219 Z M 3.734375 0.949219 "/>
<path style=" stroke:none;fill-rule:nonzero;fill:rgb(100%,100%,100%);fill-opacity:1;" d="M 8 6.496094 C 5.09375 6.496094 2.734375 8.242188 2.734375 10.257812 L 4.992188 10.257812 L 4.992188 12.746094 C 4.992188 12.746094 5.027344 13.265625 5.554688 13.265625 L 10.445312 13.265625 C 10.972656 13.265625 11.007812 12.746094 11.007812 12.746094 L 11.007812 10.257812 L 13.265625 10.257812 C 13.265625 8.242188 10.90625 6.496094 8 6.496094 Z M 8 6.496094 "/>
<path style=" stroke:none;fill-rule:nonzero;fill:rgb(29.803922%,29.803922%,29.803922%);fill-opacity:1;" d="M 6.496094 6.496094 L 9.503906 6.496094 L 9.128906 8 L 6.871094 8 Z M 6.496094 6.496094 "/>
<path style=" stroke:none;fill-rule:nonzero;fill:rgb(99.607843%,80.392157%,21.960784%);fill-opacity:1;" d="M 10.257812 4.992188 C 10.257812 6.238281 9.246094 7.25 8 7.25 C 6.753906 7.25 5.742188 6.238281 5.742188 4.992188 C 5.742188 3.746094 6.753906 2.734375 8 2.734375 C 9.246094 2.734375 10.257812 3.746094 10.257812 4.992188 Z M 10.257812 4.992188 "/>
</g>
</svg>
