<?xml version="1.0" encoding="UTF-8"?>
<svg xmlns="http://www.w3.org/2000/svg" xmlns:xlink="http://www.w3.org/1999/xlink" width="16pt" height="16pt" viewBox="0 0 16 16" version="1.1">
<g id="surface1">
<path style=" stroke:none;fill-rule:evenodd;fill:rgb(4.313725%,25.882353%,38.823529%);fill-opacity:1;" d="M 3.734375 0.949219 L 12.265625 0.949219 C 13.800781 0.949219 15.050781 2.199219 15.050781 3.734375 L 15.050781 12.265625 C 15.050781 13.800781 13.800781 15.050781 12.265625 15.050781 L 3.734375 15.050781 C 2.199219 15.050781 0.949219 13.800781 0.949219 12.265625 L 0.949219 3.734375 C 0.949219 2.199219 2.199219 0.949219 3.734375 0.949219 Z M 3.734375 0.949219 "/>
<path style=" stroke:none;fill-rule:nonzero;fill:rgb(100%,100%,100%);fill-opacity:1;" d="M 5.5 12.777344 C 5.492188 12.558594 5.484375 12.007812 5.484375 11.554688 L 5.484375 10.730469 L 5.433594 10.730469 C 5.40625 10.730469 5.3125 10.710938 5.226562 10.691406 C 4.582031 10.539062 4.074219 10 3.953125 9.351562 C 3.925781 9.210938 3.921875 9.015625 3.925781 7.796875 C 3.933594 6.273438 3.925781 6.351562 4.046875 6.058594 C 4.222656 5.636719 4.585938 5.277344 5 5.117188 C 5.308594 4.996094 5.175781 5 8.066406 5.007812 L 10.691406 5.015625 L 10.832031 5.054688 C 11.472656 5.253906 11.9375 5.773438 12.050781 6.414062 C 12.074219 6.558594 12.078125 6.78125 12.074219 7.945312 C 12.066406 9.28125 12.066406 9.3125 12.027344 9.457031 C 11.933594 9.789062 11.714844 10.136719 11.46875 10.339844 C 11.25 10.515625 11.058594 10.613281 10.765625 10.695312 C 10.625 10.734375 10.578125 10.734375 9.421875 10.742188 L 8.222656 10.75 L 7.820312 11.109375 C 7.597656 11.3125 7.015625 11.828125 6.53125 12.265625 C 6.042969 12.703125 5.613281 13.085938 5.578125 13.117188 L 5.511719 13.175781 Z M 5.5 12.777344 "/>
</g>
</svg>
