<?xml version="1.0" encoding="UTF-8"?>
<svg xmlns="http://www.w3.org/2000/svg" xmlns:xlink="http://www.w3.org/1999/xlink" width="16pt" height="16pt" viewBox="0 0 16 16" version="1.1">
<g id="surface1">
<path style=" stroke:none;fill-rule:evenodd;fill:rgb(11.372549%,50.588235%,90.980392%);fill-opacity:1;" d="M 3.734375 0.949219 L 12.265625 0.949219 C 13.800781 0.949219 15.050781 2.199219 15.050781 3.734375 L 15.050781 12.265625 C 15.050781 13.800781 13.800781 15.050781 12.265625 15.050781 L 3.734375 15.050781 C 2.199219 15.050781 0.949219 13.800781 0.949219 12.265625 L 0.949219 3.734375 C 0.949219 2.199219 2.199219 0.949219 3.734375 0.949219 Z M 3.734375 0.949219 "/>
<path style=" stroke:none;fill-rule:nonzero;fill:rgb(100%,75.294118%,35.686275%);fill-opacity:1;" d="M 8 3 C 5.238281 3 3 5.238281 3 8 C 3 10.761719 5.238281 13 8 13 C 10.761719 13 13 10.761719 13 8 C 13 5.238281 10.761719 3 8 3 Z M 5.609375 6.5 C 6.203125 6.484375 6.757812 6.976562 6.941406 7.671875 C 7.152344 8.480469 6.789062 9.28125 6.132812 9.464844 C 5.476562 9.644531 4.769531 9.136719 4.558594 8.328125 C 4.347656 7.519531 4.710938 6.71875 5.367188 6.535156 C 5.445312 6.515625 5.527344 6.5 5.609375 6.5 Z M 10.390625 6.5 C 10.472656 6.5 10.554688 6.515625 10.632812 6.535156 C 11.289062 6.71875 11.652344 7.519531 11.441406 8.328125 C 11.339844 8.714844 11.117188 9.054688 10.820312 9.265625 C 10.527344 9.480469 10.183594 9.550781 9.867188 9.464844 C 9.210938 9.28125 8.847656 8.480469 9.058594 7.671875 C 9.242188 6.976562 9.796875 6.484375 10.390625 6.5 Z M 10.390625 6.5 "/>
</g>
</svg>
