<?xml version="1.0" encoding="UTF-8"?>
<svg xmlns="http://www.w3.org/2000/svg" xmlns:xlink="http://www.w3.org/1999/xlink" width="16pt" height="16pt" viewBox="0 0 16 16" version="1.1">
<g id="surface1">
<path style=" stroke:none;fill-rule:evenodd;fill:rgb(90.980392%,17.647059%,17.647059%);fill-opacity:1;" d="M 15.050781 9.015625 L 14.453125 8.21875 L 13.5625 9.40625 L 14.453125 10.597656 L 15.050781 9.800781 Z M 15.050781 9.015625 "/>
<path style=" stroke:none;fill-rule:evenodd;fill:rgb(99.607843%,75.294118%,2.352941%);fill-opacity:1;" d="M 15.050781 4.058594 L 8.09375 4.058594 C 7.882812 4.058594 7.6875 4.148438 7.546875 4.292969 C 7.410156 4.433594 7.324219 4.632812 7.324219 4.851562 C 7.507812 5.527344 7.550781 6.195312 7.503906 6.789062 C 7.457031 7.382812 7.320312 7.898438 7.132812 8.261719 C 6.945312 8.625 6.707031 8.835938 6.46875 8.820312 C 6.347656 8.8125 6.226562 8.75 6.109375 8.621094 C 5.992188 8.488281 5.878906 8.292969 5.777344 8.019531 C 5.640625 7.660156 5.472656 7.359375 5.234375 7.152344 C 4.992188 6.941406 4.675781 6.828125 4.234375 6.832031 L 3.847656 6.832031 C 3.632812 6.832031 3.460938 7.007812 3.460938 7.230469 L 3.460938 8.019531 C 3.460938 8.242188 3.632812 8.417969 3.847656 8.417969 L 4.234375 8.417969 L 4.234375 9.210938 C 4.269531 9.839844 4.324219 10.332031 4.402344 10.726562 C 4.476562 11.121094 4.578125 11.410156 4.703125 11.632812 C 4.824219 11.855469 4.976562 12.007812 5.152344 12.121094 C 5.332031 12.234375 5.539062 12.308594 5.777344 12.378906 C 6.109375 12.5 6.371094 12.617188 6.578125 12.753906 C 6.78125 12.890625 6.933594 13.046875 7.046875 13.25 C 7.253906 13.625 7.300781 14.207031 7.308594 15.050781 L 12.265625 15.050781 C 13.808594 15.050781 15.050781 13.808594 15.050781 12.265625 L 15.050781 9.800781 L 14.453125 10.597656 L 13.5625 9.40625 L 14.453125 8.21875 L 15.050781 9.015625 Z M 15.050781 4.058594 "/>
<path style=" stroke:none;fill-rule:evenodd;fill:rgb(79.607843%,64.313725%,17.647059%);fill-opacity:1;" d="M 14.996094 3.464844 L 8.089844 3.464844 C 8.058594 3.464844 8.03125 3.472656 8.003906 3.476562 C 7.953125 3.527344 7.90625 3.574219 7.871094 3.625 C 7.832031 3.675781 7.800781 3.726562 7.777344 3.78125 C 7.75 3.832031 7.734375 3.886719 7.722656 3.9375 C 7.714844 3.976562 7.710938 4.019531 7.710938 4.058594 C 7.710938 4.09375 7.714844 4.125 7.722656 4.160156 C 7.832031 4.097656 7.953125 4.058594 8.089844 4.058594 L 15.050781 4.058594 L 15.050781 3.734375 C 15.050781 3.640625 15.003906 3.558594 14.996094 3.464844 Z M 14.996094 3.464844 "/>
<path style=" stroke:none;fill-rule:evenodd;fill:rgb(90.196078%,90.196078%,90.196078%);fill-opacity:1;" d="M 7.761719 3.820312 C 7.75 3.851562 7.738281 3.878906 7.730469 3.910156 C 7.726562 3.914062 7.726562 3.921875 7.726562 3.925781 C 7.734375 3.890625 7.75 3.855469 7.761719 3.820312 Z M 7.761719 3.820312 "/>
<path style=" stroke:none;fill-rule:evenodd;fill:rgb(90.196078%,90.196078%,90.196078%);fill-opacity:1;" d="M 7.851562 3.660156 C 7.828125 3.6875 7.808594 3.71875 7.789062 3.75 C 7.785156 3.757812 7.78125 3.765625 7.78125 3.773438 C 7.800781 3.734375 7.824219 3.695312 7.851562 3.660156 Z M 7.851562 3.660156 "/>
<path style=" stroke:none;fill-rule:evenodd;fill:rgb(90.196078%,90.196078%,90.196078%);fill-opacity:1;" d="M 7.996094 3.484375 C 7.957031 3.523438 7.921875 3.5625 7.890625 3.597656 C 7.886719 3.605469 7.878906 3.613281 7.875 3.621094 C 7.910156 3.574219 7.953125 3.53125 7.996094 3.484375 Z M 7.996094 3.484375 "/>
<path style=" stroke:none;fill-rule:evenodd;fill:rgb(99.607843%,80.392157%,21.960784%);fill-opacity:1;" d="M 14.851562 2.957031 C 14.824219 2.945312 14.796875 2.933594 14.765625 2.921875 C 14.667969 2.886719 14.5625 2.851562 14.453125 2.816406 C 14.34375 2.785156 14.230469 2.753906 14.113281 2.726562 C 14 2.699219 13.875 2.671875 13.753906 2.648438 C 13.628906 2.625 13.503906 2.601562 13.375 2.582031 C 13.25 2.5625 13.125 2.546875 13 2.535156 C 13.003906 2.515625 13.003906 2.496094 13.003906 2.472656 C 13.003906 2.449219 13.003906 2.421875 13 2.394531 C 12.996094 2.371094 12.988281 2.34375 12.984375 2.316406 C 12.972656 2.289062 12.964844 2.265625 12.953125 2.238281 C 12.941406 2.214844 12.929688 2.191406 12.914062 2.167969 C 12.898438 2.140625 12.882812 2.117188 12.863281 2.09375 C 12.847656 2.070312 12.828125 2.046875 12.808594 2.027344 C 12.785156 2.003906 12.761719 1.984375 12.738281 1.964844 C 12.714844 1.945312 12.6875 1.925781 12.660156 1.90625 C 12.632812 1.886719 12.605469 1.871094 12.574219 1.855469 C 12.546875 1.835938 12.515625 1.820312 12.484375 1.808594 C 12.453125 1.792969 12.417969 1.78125 12.386719 1.769531 C 12.351562 1.757812 12.316406 1.746094 12.28125 1.734375 C 12.246094 1.726562 12.210938 1.71875 12.171875 1.710938 C 12.136719 1.703125 12.101562 1.699219 12.0625 1.691406 C 12.027344 1.6875 11.988281 1.6875 11.949219 1.683594 C 11.921875 1.683594 11.898438 1.683594 11.871094 1.683594 C 11.832031 1.683594 11.796875 1.683594 11.757812 1.6875 C 11.71875 1.6875 11.683594 1.691406 11.644531 1.699219 C 11.609375 1.703125 11.570312 1.710938 11.535156 1.71875 C 11.5 1.726562 11.460938 1.734375 11.425781 1.746094 C 11.390625 1.753906 11.359375 1.765625 11.328125 1.78125 C 11.292969 1.792969 11.261719 1.804688 11.230469 1.820312 C 11.199219 1.835938 11.167969 1.851562 11.140625 1.867188 C 11.109375 1.886719 11.082031 1.902344 11.054688 1.921875 C 11.03125 1.941406 11.003906 1.960938 10.980469 1.980469 C 10.957031 2 10.9375 2.023438 10.914062 2.046875 C 10.894531 2.066406 10.875 2.09375 10.859375 2.113281 C 10.84375 2.140625 10.828125 2.164062 10.8125 2.1875 C 10.796875 2.210938 10.785156 2.238281 10.777344 2.261719 C 10.765625 2.289062 10.757812 2.3125 10.75 2.339844 C 10.746094 2.367188 10.742188 2.390625 10.738281 2.417969 C 10.734375 2.4375 10.734375 2.453125 10.734375 2.472656 C 10.734375 2.496094 10.734375 2.515625 10.738281 2.535156 C 10.605469 2.546875 10.472656 2.566406 10.34375 2.585938 C 10.214844 2.605469 10.089844 2.625 9.964844 2.652344 C 9.84375 2.675781 9.722656 2.703125 9.605469 2.730469 C 9.488281 2.757812 9.378906 2.789062 9.269531 2.824219 C 9.160156 2.855469 9.058594 2.890625 8.957031 2.925781 C 8.859375 2.964844 8.765625 3.003906 8.675781 3.042969 C 8.585938 3.085938 8.503906 3.125 8.425781 3.171875 C 8.347656 3.214844 8.277344 3.261719 8.210938 3.308594 C 8.144531 3.351562 8.085938 3.402344 8.03125 3.449219 C 8.023438 3.457031 8.015625 3.46875 8.003906 3.476562 C 8.03125 3.472656 8.058594 3.464844 8.089844 3.464844 L 14.996094 3.464844 C 14.976562 3.28125 14.902344 3.125 14.851562 2.957031 Z M 14.851562 2.957031 "/>
<path style=" stroke:none;fill-rule:evenodd;fill:rgb(90.196078%,90.196078%,90.196078%);fill-opacity:1;" d="M 3.734375 0.949219 C 2.191406 0.949219 0.949219 2.191406 0.949219 3.734375 L 0.949219 12.265625 C 0.949219 13.808594 2.191406 15.050781 3.734375 15.050781 L 7.308594 15.050781 C 7.300781 14.207031 7.253906 13.625 7.046875 13.25 C 6.933594 13.046875 6.78125 12.890625 6.578125 12.753906 C 6.371094 12.617188 6.109375 12.5 5.777344 12.378906 C 5.539062 12.308594 5.332031 12.234375 5.152344 12.121094 C 4.976562 12.007812 4.824219 11.855469 4.703125 11.632812 C 4.578125 11.410156 4.476562 11.121094 4.402344 10.726562 C 4.324219 10.332031 4.269531 9.839844 4.234375 9.210938 L 4.234375 8.417969 L 3.847656 8.417969 C 3.632812 8.417969 3.460938 8.242188 3.460938 8.019531 L 3.460938 7.230469 C 3.460938 7.007812 3.632812 6.832031 3.847656 6.832031 L 4.234375 6.832031 C 4.675781 6.828125 4.992188 6.941406 5.234375 7.152344 C 5.472656 7.359375 5.640625 7.660156 5.777344 8.019531 C 5.878906 8.292969 5.992188 8.488281 6.109375 8.621094 C 6.226562 8.75 6.347656 8.8125 6.46875 8.820312 C 6.707031 8.835938 6.945312 8.625 7.132812 8.261719 C 7.320312 7.898438 7.457031 7.382812 7.503906 6.789062 C 7.550781 6.195312 7.507812 5.527344 7.324219 4.851562 C 7.324219 4.632812 7.410156 4.433594 7.546875 4.292969 C 7.6875 4.148438 7.882812 4.058594 8.09375 4.058594 L 8.089844 4.058594 C 7.953125 4.058594 7.832031 4.097656 7.722656 4.160156 C 7.714844 4.125 7.710938 4.09375 7.710938 4.058594 C 7.710938 4.019531 7.714844 3.976562 7.722656 3.9375 C 7.722656 3.933594 7.726562 3.929688 7.726562 3.925781 C 7.726562 3.921875 7.726562 3.914062 7.730469 3.910156 C 7.738281 3.878906 7.75 3.851562 7.761719 3.820312 C 7.765625 3.808594 7.769531 3.792969 7.777344 3.78125 C 7.777344 3.777344 7.78125 3.773438 7.78125 3.773438 C 7.78125 3.765625 7.785156 3.757812 7.789062 3.75 C 7.808594 3.71875 7.828125 3.6875 7.851562 3.660156 C 7.859375 3.648438 7.863281 3.636719 7.871094 3.625 C 7.871094 3.625 7.875 3.621094 7.875 3.621094 C 7.878906 3.613281 7.886719 3.605469 7.890625 3.597656 C 7.921875 3.5625 7.957031 3.523438 7.996094 3.484375 C 8 3.484375 8 3.480469 8.003906 3.476562 C 8.015625 3.46875 8.023438 3.457031 8.03125 3.449219 C 8.085938 3.402344 8.144531 3.351562 8.210938 3.308594 C 8.277344 3.261719 8.347656 3.214844 8.425781 3.171875 C 8.503906 3.125 8.585938 3.085938 8.675781 3.042969 C 8.765625 3.003906 8.859375 2.964844 8.957031 2.925781 C 9.058594 2.890625 9.160156 2.855469 9.269531 2.824219 C 9.378906 2.789062 9.488281 2.757812 9.605469 2.730469 C 9.722656 2.703125 9.84375 2.675781 9.964844 2.652344 C 10.089844 2.625 10.214844 2.605469 10.34375 2.585938 C 10.472656 2.566406 10.605469 2.546875 10.738281 2.535156 C 10.734375 2.515625 10.734375 2.496094 10.734375 2.472656 C 10.734375 2.453125 10.734375 2.4375 10.738281 2.417969 C 10.742188 2.390625 10.746094 2.367188 10.75 2.339844 C 10.757812 2.3125 10.765625 2.289062 10.777344 2.261719 C 10.785156 2.238281 10.796875 2.210938 10.8125 2.1875 C 10.828125 2.164062 10.84375 2.140625 10.859375 2.113281 C 10.875 2.09375 10.894531 2.066406 10.914062 2.046875 C 10.9375 2.023438 10.957031 2 10.980469 1.980469 C 11.003906 1.960938 11.03125 1.941406 11.054688 1.921875 C 11.082031 1.902344 11.109375 1.886719 11.140625 1.867188 C 11.167969 1.851562 11.199219 1.835938 11.230469 1.820312 C 11.261719 1.804688 11.292969 1.792969 11.328125 1.78125 C 11.359375 1.765625 11.390625 1.753906 11.425781 1.746094 C 11.460938 1.734375 11.5 1.726562 11.535156 1.71875 C 11.570312 1.710938 11.609375 1.703125 11.644531 1.699219 C 11.683594 1.691406 11.71875 1.6875 11.757812 1.6875 C 11.796875 1.683594 11.832031 1.683594 11.871094 1.683594 C 11.898438 1.683594 11.921875 1.683594 11.949219 1.683594 C 11.988281 1.6875 12.027344 1.6875 12.0625 1.691406 C 12.101562 1.699219 12.136719 1.703125 12.171875 1.710938 C 12.210938 1.71875 12.246094 1.726562 12.28125 1.734375 C 12.316406 1.746094 12.351562 1.757812 12.386719 1.769531 C 12.417969 1.78125 12.453125 1.792969 12.484375 1.808594 C 12.515625 1.820312 12.546875 1.835938 12.574219 1.855469 C 12.605469 1.871094 12.632812 1.886719 12.660156 1.90625 C 12.6875 1.925781 12.714844 1.945312 12.738281 1.964844 C 12.761719 1.984375 12.785156 2.003906 12.808594 2.027344 C 12.828125 2.046875 12.847656 2.070312 12.863281 2.09375 C 12.882812 2.117188 12.898438 2.140625 12.914062 2.167969 C 12.929688 2.191406 12.941406 2.214844 12.953125 2.238281 C 12.964844 2.265625 12.972656 2.289062 12.984375 2.316406 C 12.988281 2.34375 12.996094 2.371094 13 2.394531 C 13.003906 2.421875 13.003906 2.449219 13.003906 2.472656 C 13.003906 2.496094 13.003906 2.515625 13 2.535156 C 13.125 2.546875 13.25 2.5625 13.375 2.582031 C 13.503906 2.601562 13.628906 2.625 13.753906 2.648438 C 13.875 2.671875 14 2.699219 14.113281 2.726562 C 14.230469 2.753906 14.34375 2.785156 14.453125 2.816406 C 14.5625 2.851562 14.667969 2.886719 14.765625 2.921875 C 14.796875 2.933594 14.824219 2.945312 14.851562 2.957031 C 14.511719 1.808594 13.527344 0.949219 12.265625 0.949219 Z M 3.734375 0.949219 "/>
<path style=" stroke:none;fill-rule:evenodd;fill:rgb(90.980392%,17.647059%,17.647059%);fill-opacity:1;" d="M 9.105469 8.21875 L 8.214844 9.40625 L 9.105469 10.597656 L 9.996094 9.40625 Z M 9.105469 8.21875 "/>
<path style=" stroke:none;fill-rule:evenodd;fill:rgb(90.980392%,17.647059%,17.647059%);fill-opacity:1;" d="M 9.105469 8.21875 L 9.996094 9.40625 L 9.105469 10.597656 L 8.214844 9.40625 Z M 9.105469 8.21875 "/>
<path style=" stroke:none;fill-rule:evenodd;fill:rgb(90.980392%,17.647059%,17.647059%);fill-opacity:1;" d="M 11.78125 7.625 L 10.59375 9.40625 L 11.78125 11.191406 L 12.972656 9.40625 Z M 11.78125 7.625 "/>
<path style=" stroke:none;fill-rule:evenodd;fill:rgb(90.980392%,17.647059%,17.647059%);fill-opacity:1;" d="M 11.78125 7.625 L 12.972656 9.40625 L 11.78125 11.191406 L 10.59375 9.40625 Z M 11.78125 7.625 "/>
</g>
</svg>
