<?xml version="1.0" encoding="UTF-8"?>
<svg xmlns="http://www.w3.org/2000/svg" xmlns:xlink="http://www.w3.org/1999/xlink" width="16pt" height="16pt" viewBox="0 0 16 16" version="1.1">
<g id="surface1">
<path style=" stroke:none;fill-rule:evenodd;fill:rgb(94.509804%,34.901961%,56.470588%);fill-opacity:1;" d="M 3.734375 0.949219 L 12.265625 0.949219 C 13.800781 0.949219 15.050781 2.199219 15.050781 3.734375 L 15.050781 12.265625 C 15.050781 13.800781 13.800781 15.050781 12.265625 15.050781 L 3.734375 15.050781 C 2.199219 15.050781 0.949219 13.800781 0.949219 12.265625 L 0.949219 3.734375 C 0.949219 2.199219 2.199219 0.949219 3.734375 0.949219 Z M 3.734375 0.949219 "/>
<path style=" stroke:none;fill-rule:nonzero;fill:rgb(100%,100%,100%);fill-opacity:1;" d="M 10.75 4.5 C 8.816406 4.5 7.25 6.066406 7.25 8 C 7.25 9.933594 8.816406 11.5 10.75 11.5 C 12.683594 11.5 14.25 9.933594 14.25 8 C 14.25 6.066406 12.683594 4.5 10.75 4.5 Z M 4.25 5.5 C 2.871094 5.5 1.75 6.621094 1.75 8 C 1.75 9.378906 2.871094 10.5 4.25 10.5 C 5.628906 10.5 6.75 9.378906 6.75 8 C 6.75 6.621094 5.628906 5.5 4.25 5.5 Z M 10.75 5.5 C 12.128906 5.5 13.25 6.621094 13.25 8 C 13.25 9.378906 12.128906 10.5 10.75 10.5 C 9.371094 10.5 8.25 9.378906 8.25 8 C 8.25 6.621094 9.371094 5.5 10.75 5.5 Z M 4.25 6.5 C 5.078125 6.5 5.75 7.171875 5.75 8 C 5.75 8.828125 5.078125 9.5 4.25 9.5 C 3.421875 9.5 2.75 8.828125 2.75 8 C 2.75 7.171875 3.421875 6.5 4.25 6.5 Z M 4.25 6.5 "/>
</g>
</svg>
