<?xml version="1.0" encoding="UTF-8"?>
<svg xmlns="http://www.w3.org/2000/svg" xmlns:xlink="http://www.w3.org/1999/xlink" width="16pt" height="16pt" viewBox="0 0 16 16" version="1.1">
<g id="surface1">
<path style=" stroke:none;fill-rule:evenodd;fill:rgb(43.137255%,43.137255%,43.137255%);fill-opacity:1;" d="M 3.734375 0.949219 L 12.265625 0.949219 C 13.800781 0.949219 15.050781 2.199219 15.050781 3.734375 L 15.050781 12.265625 C 15.050781 13.800781 13.800781 15.050781 12.265625 15.050781 L 3.734375 15.050781 C 2.199219 15.050781 0.949219 13.800781 0.949219 12.265625 L 0.949219 3.734375 C 0.949219 2.199219 2.199219 0.949219 3.734375 0.949219 Z M 3.734375 0.949219 "/>
<path style=" stroke:none;fill-rule:nonzero;fill:rgb(100%,100%,100%);fill-opacity:1;" d="M 11.921875 5.375 C 11.039062 3.550781 8.488281 3.25 6.222656 4.695312 C 3.957031 6.144531 2.832031 8.800781 3.714844 10.625 C 4.59375 12.449219 7.140625 12.75 9.410156 11.304688 C 11.675781 9.855469 12.800781 7.199219 11.921875 5.375 Z M 11.921875 5.375 "/>
<path style=" stroke:none;fill-rule:nonzero;fill:rgb(24.313725%,24.313725%,24.313725%);fill-opacity:1;" d="M 8.917969 4.332031 C 8.917969 3.625 8.34375 3.046875 7.632812 3.046875 C 6.921875 3.046875 6.347656 3.625 6.347656 4.332031 C 6.347656 5.042969 6.921875 5.617188 7.632812 5.617188 C 8.34375 5.617188 8.917969 5.042969 8.917969 4.332031 Z M 8.917969 4.332031 "/>
<path style=" stroke:none;fill-rule:nonzero;fill:rgb(40%,40%,100%);fill-opacity:1;" d="M 8.550781 4.332031 C 8.550781 3.824219 8.140625 3.414062 7.632812 3.414062 C 7.125 3.414062 6.71875 3.824219 6.71875 4.332031 C 6.71875 4.839844 7.125 5.25 7.632812 5.25 C 8.140625 5.25 8.550781 4.839844 8.550781 4.332031 Z M 8.550781 4.332031 "/>
<path style=" stroke:none;fill-rule:nonzero;fill:rgb(24.313725%,24.313725%,24.313725%);fill-opacity:1;" d="M 13.320312 6.898438 C 13.320312 6.191406 12.746094 5.617188 12.035156 5.617188 C 11.328125 5.617188 10.75 6.191406 10.75 6.898438 C 10.75 7.609375 11.328125 8.183594 12.035156 8.183594 C 12.746094 8.183594 13.320312 7.609375 13.320312 6.898438 Z M 13.320312 6.898438 "/>
<path style=" stroke:none;fill-rule:nonzero;fill:rgb(40%,40%,100%);fill-opacity:1;" d="M 12.953125 6.898438 C 12.953125 6.390625 12.542969 5.984375 12.035156 5.984375 C 11.527344 5.984375 11.117188 6.390625 11.117188 6.898438 C 11.117188 7.40625 11.527344 7.816406 12.035156 7.816406 C 12.542969 7.816406 12.953125 7.40625 12.953125 6.898438 Z M 12.953125 6.898438 "/>
<path style=" stroke:none;fill-rule:nonzero;fill:rgb(24.313725%,24.313725%,24.313725%);fill-opacity:1;" d="M 5.25 7.632812 C 5.25 6.921875 4.671875 6.347656 3.964844 6.347656 C 3.253906 6.347656 2.679688 6.921875 2.679688 7.632812 C 2.679688 8.34375 3.253906 8.917969 3.964844 8.917969 C 4.671875 8.917969 5.25 8.34375 5.25 7.632812 Z M 5.25 7.632812 "/>
<path style=" stroke:none;fill-rule:nonzero;fill:rgb(40%,40%,100%);fill-opacity:1;" d="M 4.882812 7.632812 C 4.882812 7.125 4.472656 6.71875 3.964844 6.71875 C 3.457031 6.71875 3.046875 7.125 3.046875 7.632812 C 3.046875 8.140625 3.457031 8.550781 3.964844 8.550781 C 4.472656 8.550781 4.882812 8.140625 4.882812 7.632812 Z M 4.882812 7.632812 "/>
<path style=" stroke:none;fill-rule:nonzero;fill:rgb(24.313725%,24.313725%,24.313725%);fill-opacity:1;" d="M 6.347656 11.667969 C 6.347656 10.957031 5.773438 10.382812 5.066406 10.382812 C 4.355469 10.382812 3.78125 10.957031 3.78125 11.667969 C 3.78125 12.375 4.355469 12.953125 5.066406 12.953125 C 5.773438 12.953125 6.347656 12.375 6.347656 11.667969 Z M 6.347656 11.667969 "/>
<path style=" stroke:none;fill-rule:nonzero;fill:rgb(40%,40%,100%);fill-opacity:1;" d="M 5.984375 11.667969 C 5.984375 11.160156 5.570312 10.75 5.066406 10.75 C 4.558594 10.75 4.148438 11.160156 4.148438 11.667969 C 4.148438 12.175781 4.558594 12.585938 5.066406 12.585938 C 5.570312 12.585938 5.984375 12.175781 5.984375 11.667969 Z M 5.984375 11.667969 "/>
<path style=" stroke:none;fill-rule:nonzero;fill:rgb(24.313725%,24.313725%,24.313725%);fill-opacity:1;" d="M 11.117188 10.933594 C 11.117188 10.226562 10.542969 9.652344 9.832031 9.652344 C 9.125 9.652344 8.550781 10.226562 8.550781 10.933594 C 8.550781 11.644531 9.125 12.21875 9.832031 12.21875 C 10.542969 12.21875 11.117188 11.644531 11.117188 10.933594 Z M 11.117188 10.933594 "/>
<path style=" stroke:none;fill-rule:nonzero;fill:rgb(40%,40%,100%);fill-opacity:1;" d="M 10.75 10.933594 C 10.75 10.429688 10.339844 10.015625 9.832031 10.015625 C 9.328125 10.015625 8.917969 10.429688 8.917969 10.933594 C 8.917969 11.441406 9.328125 11.851562 9.832031 11.851562 C 10.339844 11.851562 10.75 11.441406 10.75 10.933594 Z M 10.75 10.933594 "/>
</g>
</svg>
