<?xml version="1.0" encoding="UTF-8"?>
<svg xmlns="http://www.w3.org/2000/svg" xmlns:xlink="http://www.w3.org/1999/xlink" width="16pt" height="16pt" viewBox="0 0 16 16" version="1.1">
<g id="surface1">
<path style=" stroke:none;fill-rule:evenodd;fill:rgb(90.196078%,90.196078%,90.196078%);fill-opacity:1;" d="M 3.734375 0.949219 L 12.265625 0.949219 C 13.800781 0.949219 15.050781 2.199219 15.050781 3.734375 L 15.050781 12.265625 C 15.050781 13.800781 13.800781 15.050781 12.265625 15.050781 L 3.734375 15.050781 C 2.199219 15.050781 0.949219 13.800781 0.949219 12.265625 L 0.949219 3.734375 C 0.949219 2.199219 2.199219 0.949219 3.734375 0.949219 Z M 3.734375 0.949219 "/>
<path style=" stroke:none;fill-rule:nonzero;fill:rgb(36.078431%,33.333333%,26.666667%);fill-opacity:1;" d="M 4.414062 4.367188 C 5.515625 7.480469 10.242188 6.867188 11.796875 3.8125 C 13.210938 11.984375 7.679688 12.539062 4.058594 9.980469 C 4.214844 8.238281 4.464844 6.851562 4.414062 4.367188 Z M 4.414062 4.367188 "/>
<path style=" stroke:none;fill-rule:evenodd;fill:rgb(53.333333%,54.117647%,52.156863%);fill-opacity:1;" d="M 6.65625 7.324219 C 6.65625 7.992188 6.117188 8.53125 5.453125 8.53125 C 4.785156 8.53125 4.25 7.992188 4.25 7.324219 C 4.25 6.660156 4.785156 6.121094 5.453125 6.121094 C 6.117188 6.121094 6.65625 6.660156 6.65625 7.324219 Z M 6.65625 7.324219 "/>
<path style=" stroke:none;fill-rule:evenodd;fill:rgb(88.235294%,88.235294%,86.666667%);fill-opacity:1;" d="M 6.398438 7.316406 C 6.398438 7.84375 5.96875 8.269531 5.445312 8.269531 C 4.921875 8.269531 4.492188 7.84375 4.492188 7.316406 C 4.492188 6.792969 4.921875 6.367188 5.445312 6.367188 C 5.96875 6.367188 6.398438 6.792969 6.398438 7.316406 Z M 6.398438 7.316406 "/>
<path style=" stroke:none;fill-rule:evenodd;fill:rgb(0%,0%,0%);fill-opacity:1;" d="M 6.3125 7.535156 C 6.3125 7.886719 6.027344 8.171875 5.675781 8.171875 C 5.328125 8.171875 5.042969 7.886719 5.042969 7.535156 C 5.042969 7.183594 5.328125 6.898438 5.675781 6.898438 C 6.027344 6.898438 6.3125 7.183594 6.3125 7.535156 Z M 6.3125 7.535156 "/>
<path style=" stroke:none;fill-rule:evenodd;fill:rgb(18.039216%,20.392157%,21.176471%);fill-opacity:1;" d="M 6.101562 7.53125 C 6.101562 7.765625 5.910156 7.960938 5.671875 7.960938 C 5.4375 7.960938 5.242188 7.765625 5.242188 7.53125 C 5.242188 7.292969 5.4375 7.101562 5.671875 7.101562 C 5.910156 7.101562 6.101562 7.292969 6.101562 7.53125 Z M 6.101562 7.53125 "/>
<path style=" stroke:none;fill-rule:evenodd;fill:rgb(100%,100%,100%);fill-opacity:1;" d="M 5.710938 7.273438 C 5.710938 7.441406 5.578125 7.578125 5.410156 7.578125 C 5.242188 7.578125 5.105469 7.441406 5.105469 7.273438 C 5.105469 7.109375 5.242188 6.972656 5.410156 6.972656 C 5.578125 6.972656 5.710938 7.109375 5.710938 7.273438 Z M 5.710938 7.273438 "/>
<path style=" stroke:none;fill-rule:evenodd;fill:rgb(53.333333%,54.117647%,52.156863%);fill-opacity:1;" d="M 9.140625 7.429688 C 9.140625 8.207031 8.511719 8.839844 7.734375 8.839844 C 6.957031 8.839844 6.328125 8.207031 6.328125 7.429688 C 6.328125 6.652344 6.957031 6.023438 7.734375 6.023438 C 8.511719 6.023438 9.140625 6.652344 9.140625 7.429688 Z M 9.140625 7.429688 "/>
<path style=" stroke:none;fill-rule:evenodd;fill:rgb(88.235294%,88.235294%,86.666667%);fill-opacity:1;" d="M 8.835938 7.421875 C 8.835938 8.035156 8.339844 8.535156 7.726562 8.535156 C 7.109375 8.535156 6.613281 8.035156 6.613281 7.421875 C 6.613281 6.808594 7.109375 6.308594 7.726562 6.308594 C 8.339844 6.308594 8.835938 6.808594 8.835938 7.421875 Z M 8.835938 7.421875 "/>
<path style=" stroke:none;fill-rule:evenodd;fill:rgb(0%,0%,0%);fill-opacity:1;" d="M 8.734375 7.675781 C 8.734375 8.085938 8.40625 8.417969 7.996094 8.417969 C 7.585938 8.417969 7.253906 8.085938 7.253906 7.675781 C 7.253906 7.265625 7.585938 6.933594 7.996094 6.933594 C 8.40625 6.933594 8.734375 7.265625 8.734375 7.675781 Z M 8.734375 7.675781 "/>
<path style=" stroke:none;fill-rule:evenodd;fill:rgb(18.039216%,20.392157%,21.176471%);fill-opacity:1;" d="M 8.492188 7.671875 C 8.492188 7.949219 8.265625 8.171875 7.988281 8.171875 C 7.714844 8.171875 7.488281 7.949219 7.488281 7.671875 C 7.488281 7.394531 7.714844 7.167969 7.988281 7.167969 C 8.265625 7.167969 8.492188 7.394531 8.492188 7.671875 Z M 8.492188 7.671875 "/>
<path style=" stroke:none;fill-rule:evenodd;fill:rgb(100%,100%,100%);fill-opacity:1;" d="M 8.035156 7.371094 C 8.035156 7.566406 7.878906 7.726562 7.683594 7.726562 C 7.488281 7.726562 7.328125 7.566406 7.328125 7.371094 C 7.328125 7.175781 7.488281 7.015625 7.683594 7.015625 C 7.878906 7.015625 8.035156 7.175781 8.035156 7.371094 Z M 8.035156 7.371094 "/>
<path style=" stroke:none;fill-rule:evenodd;fill:rgb(16.470588%,18.823529%,19.607843%);fill-opacity:1;" d="M 4.347656 7.640625 C 3.765625 6.875 2.863281 6.582031 2.328125 6.988281 C 1.792969 7.390625 1.828125 8.34375 2.410156 9.109375 C 2.992188 9.875 3.894531 10.167969 4.429688 9.761719 C 4.964844 9.355469 4.929688 8.40625 4.347656 7.640625 Z M 4.347656 7.640625 "/>
<path style=" stroke:none;fill-rule:evenodd;fill:rgb(100%,100%,100%);fill-opacity:1;" d="M 3.261719 7.785156 C 3.261719 7.4375 3.046875 7.15625 2.78125 7.15625 C 2.519531 7.15625 2.304688 7.4375 2.304688 7.785156 C 2.304688 8.128906 2.519531 8.410156 2.78125 8.410156 C 3.046875 8.410156 3.261719 8.128906 3.261719 7.785156 Z M 3.261719 7.785156 "/>
<path style=" stroke:none;fill-rule:nonzero;fill:rgb(0.392157%,0.392157%,0%);fill-opacity:1;" d="M 6.382812 9.714844 C 7.390625 9.8125 8.410156 9.863281 9.175781 9.234375 C 9.082031 9.09375 8.941406 9 8.800781 8.890625 C 9.394531 9.015625 9.855469 9.34375 9.777344 9.925781 L 9.390625 9.6875 C 7.808594 10.40625 6.992188 9.84375 6.382812 9.714844 Z M 6.382812 9.714844 "/>
<path style=" stroke:none;fill-rule:nonzero;fill:rgb(40.392157%,22.352941%,2.745098%);fill-opacity:1;" d="M 8.53125 10.003906 C 9.351562 10.609375 10.191406 11.09375 11.089844 11.410156 L 11.425781 10.621094 C 10.652344 10.21875 9.863281 9.835938 9 9.558594 C 8.664062 9.585938 8.566406 9.738281 8.53125 10.003906 Z M 8.53125 10.003906 "/>
<path style=" stroke:none;fill-rule:nonzero;fill:rgb(74.117647%,40.784314%,5.490196%);fill-opacity:1;" d="M 8.660156 9.730469 C 9.273438 10.285156 10.164062 10.742188 11.042969 11.207031 L 11.277344 10.71875 C 10.277344 10.253906 9.402344 9.921875 8.660156 9.730469 Z M 8.660156 9.730469 "/>
<path style=" stroke:none;fill-rule:nonzero;fill:rgb(53.333333%,54.117647%,52.156863%);fill-opacity:1;" d="M 10.984375 11.523438 C 10.90625 11.105469 11.058594 10.765625 11.460938 10.507812 L 11.539062 10.734375 L 12.527344 11.347656 L 12.203125 11.839844 L 11.160156 11.433594 Z M 10.984375 11.523438 "/>
<path style=" stroke:none;fill-rule:nonzero;fill:rgb(84.705882%,84.705882%,84.705882%);fill-opacity:1;" d="M 11.1875 11.210938 L 12.382812 11.714844 L 12.496094 11.421875 L 11.421875 10.84375 Z M 11.1875 11.210938 "/>
<path style=" stroke:none;fill-rule:nonzero;fill:rgb(14.117647%,14.117647%,14.117647%);fill-opacity:1;" d="M 12.234375 11.410156 C 12.167969 11.484375 12.128906 11.535156 12.109375 11.609375 C 11.84375 12.546875 12.828125 12.632812 13.835938 13.132812 C 13.769531 12.253906 13.011719 10.734375 12.234375 11.410156 Z M 12.234375 11.410156 "/>
<path style=" stroke:none;fill-rule:evenodd;fill:rgb(66.27451%,66.27451%,66.27451%);fill-opacity:1;" d="M 12.925781 11.640625 C 12.925781 11.796875 12.796875 11.929688 12.636719 11.929688 C 12.472656 11.929688 12.34375 11.796875 12.34375 11.640625 C 12.34375 11.476562 12.472656 11.347656 12.636719 11.347656 C 12.796875 11.347656 12.925781 11.476562 12.925781 11.640625 Z M 12.925781 11.640625 "/>
<path style=" stroke:none;fill-rule:nonzero;fill:rgb(41.176471%,41.176471%,41.176471%);fill-opacity:1;" d="M 13.363281 12.453125 C 13.257812 12.246094 13.152344 12.042969 13.003906 11.9375 C 12.917969 11.835938 13.078125 11.761719 13.128906 11.839844 C 13.25 11.996094 13.304688 12.226562 13.363281 12.453125 Z M 13.363281 12.453125 "/>
</g>
</svg>
