<?xml version="1.0" encoding="UTF-8"?>
<svg xmlns="http://www.w3.org/2000/svg" xmlns:xlink="http://www.w3.org/1999/xlink" width="16pt" height="16pt" viewBox="0 0 16 16" version="1.1">
<g id="surface1">
<path style=" stroke:none;fill-rule:evenodd;fill:rgb(80%,80%,80%);fill-opacity:1;" d="M 3.734375 0.949219 L 12.265625 0.949219 C 13.800781 0.949219 15.050781 2.199219 15.050781 3.734375 L 15.050781 12.265625 C 15.050781 13.800781 13.800781 15.050781 12.265625 15.050781 L 3.734375 15.050781 C 2.199219 15.050781 0.949219 13.800781 0.949219 12.265625 L 0.949219 3.734375 C 0.949219 2.199219 2.199219 0.949219 3.734375 0.949219 Z M 3.734375 0.949219 "/>
<path style=" stroke:none;fill-rule:nonzero;fill:rgb(30.980392%,54.901961%,96.470588%);fill-opacity:1;" d="M 3.8125 4.410156 C 3.519531 4.410156 3.28125 4.617188 3.226562 4.886719 C 3.214844 4.964844 3.214844 5.027344 3.214844 5.027344 L 3.214844 10.992188 C 3.214844 11.320312 3.480469 11.59375 3.8125 11.589844 L 4.582031 11.589844 L 4.582031 5.027344 C 4.582031 4.984375 4.578125 4.949219 4.570312 4.917969 C 4.53125 4.746094 4.328125 4.554688 4.121094 4.410156 Z M 3.8125 4.410156 "/>
<path style=" stroke:none;fill-rule:nonzero;fill:rgb(30.980392%,54.901961%,96.470588%);fill-opacity:1;" d="M 11.984375 4.410156 C 11.695312 4.492188 11.410156 4.738281 11.417969 5.007812 L 11.417969 11.589844 L 12.175781 11.589844 C 12.519531 11.589844 12.785156 11.324219 12.785156 11 L 12.785156 5.003906 C 12.785156 4.671875 12.511719 4.410156 12.1875 4.410156 Z M 11.984375 4.410156 "/>
<path style=" stroke:none;fill-rule:evenodd;fill:rgb(30.980392%,54.901961%,96.470588%);fill-opacity:1;" d="M 12.117188 4.410156 C 11.964844 4.410156 11.8125 4.453125 11.691406 4.546875 L 8 7.316406 L 4.308594 4.546875 C 3.617188 4.019531 2.804688 5.152344 3.488281 5.640625 L 7.589844 8.71875 C 7.832031 8.898438 8.167969 8.898438 8.410156 8.71875 L 12.304688 5.796875 L 12.511719 5.640625 C 13.015625 5.28125 12.773438 4.417969 12.117188 4.410156 Z M 12.117188 4.410156 "/>
</g>
</svg>
