<?xml version="1.0" encoding="UTF-8"?>
<svg xmlns="http://www.w3.org/2000/svg" xmlns:xlink="http://www.w3.org/1999/xlink" width="16pt" height="16pt" viewBox="0 0 16 16" version="1.1">
<g id="surface1">
<path style=" stroke:none;fill-rule:evenodd;fill:rgb(67.45098%,8.235294%,0%);fill-opacity:1;" d="M 3.734375 0.949219 L 12.265625 0.949219 C 13.800781 0.949219 15.050781 2.199219 15.050781 3.734375 L 15.050781 12.265625 C 15.050781 13.800781 13.800781 15.050781 12.265625 15.050781 L 3.734375 15.050781 C 2.199219 15.050781 0.949219 13.800781 0.949219 12.265625 L 0.949219 3.734375 C 0.949219 2.199219 2.199219 0.949219 3.734375 0.949219 Z M 3.734375 0.949219 "/>
<path style=" stroke:none;fill-rule:nonzero;fill:rgb(100%,100%,100%);fill-opacity:1;" d="M 9.761719 13.003906 C 9.300781 12.792969 8.625 12.429688 8.039062 12.082031 C 7.671875 11.863281 7.625 11.84375 7.402344 11.828125 C 7.046875 11.796875 6.828125 11.742188 6.578125 11.617188 C 6.371094 11.515625 6.207031 11.398438 6.03125 11.222656 C 5.511719 10.707031 5.175781 9.902344 5.039062 8.839844 C 4.992188 8.480469 4.972656 7.828125 4.992188 7.453125 C 5.0625 6.226562 5.453125 5.160156 6.058594 4.527344 C 6.40625 4.164062 6.734375 3.972656 7.179688 3.871094 C 7.527344 3.792969 8.023438 3.816406 8.351562 3.929688 C 9.238281 4.234375 9.789062 5.0625 10.023438 6.4375 C 10.09375 6.84375 10.113281 7.140625 10.113281 7.710938 C 10.113281 8.949219 9.949219 9.839844 9.601562 10.484375 C 9.46875 10.730469 9.257812 10.984375 9.101562 11.078125 C 9.023438 11.128906 9.003906 11.15625 9.003906 11.242188 C 9.003906 11.28125 9.015625 11.328125 9.027344 11.34375 C 9.054688 11.378906 9.554688 11.582031 10.105469 11.78125 C 10.320312 11.859375 10.5 11.929688 10.507812 11.9375 C 10.390625 12.390625 10.195312 12.730469 9.761719 13.003906 Z M 7.738281 10.40625 C 8.074219 10.296875 8.273438 9.792969 8.375 8.777344 C 8.414062 8.40625 8.40625 6.941406 8.367188 6.59375 C 8.308594 6.078125 8.230469 5.773438 8.09375 5.53125 C 8.003906 5.382812 7.941406 5.3125 7.820312 5.25 C 7.761719 5.214844 7.71875 5.207031 7.585938 5.207031 C 6.847656 5.433594 6.757812 6.457031 6.707031 7.03125 C 6.679688 7.414062 6.699219 8.65625 6.734375 8.972656 C 6.8125 9.605469 6.949219 10.011719 7.144531 10.230469 C 7.316406 10.414062 7.519531 10.476562 7.738281 10.40625 Z M 10.882812 6.761719 C 10.882812 6.757812 10.945312 6.566406 11.019531 6.34375 C 11.296875 5.507812 11.503906 4.722656 11.605469 4.140625 C 11.625 4.023438 11.648438 3.921875 11.65625 3.914062 C 11.664062 3.910156 11.890625 3.886719 12.164062 3.863281 C 12.4375 3.84375 12.710938 3.820312 12.773438 3.8125 C 12.84375 3.808594 12.886719 3.8125 12.886719 3.824219 C 12.886719 3.871094 12.632812 4.546875 12.519531 4.800781 C 12.351562 5.183594 12.125 5.652344 11.933594 6.003906 C 11.734375 6.371094 11.582031 6.636719 11.550781 6.667969 C 11.527344 6.691406 11.453125 6.707031 11.25 6.734375 C 10.976562 6.769531 10.882812 6.777344 10.882812 6.761719 Z M 10.882812 6.761719 "/>
</g>
</svg>
