<?xml version="1.0" encoding="UTF-8"?>
<svg xmlns="http://www.w3.org/2000/svg" xmlns:xlink="http://www.w3.org/1999/xlink" width="16pt" height="16pt" viewBox="0 0 16 16" version="1.1">
<g id="surface1">
<path style=" stroke:none;fill-rule:evenodd;fill:rgb(48.235294%,35.294118%,71.764706%);fill-opacity:1;" d="M 3.734375 0.949219 L 12.265625 0.949219 C 13.800781 0.949219 15.050781 2.199219 15.050781 3.734375 L 15.050781 12.265625 C 15.050781 13.800781 13.800781 15.050781 12.265625 15.050781 L 3.734375 15.050781 C 2.199219 15.050781 0.949219 13.800781 0.949219 12.265625 L 0.949219 3.734375 C 0.949219 2.199219 2.199219 0.949219 3.734375 0.949219 Z M 3.734375 0.949219 "/>
<path style=" stroke:none;fill-rule:evenodd;fill:rgb(100%,100%,100%);fill-opacity:1;" d="M 4 2.75 L 3.5 4.75 L 3.5 12.25 L 5.5 12.25 L 5.5 13.25 L 6.5 13.25 L 7.5 12.25 L 9 12.25 L 12.5 8.75 L 12.5 2.75 Z M 5 3.25 L 12 3.25 L 12 8.5 L 10.75 9.75 L 8 9.75 L 6.5 11.25 L 6.5 9.75 L 5 9.75 Z M 7 4.75 L 7 7.75 L 8 7.75 L 8 4.75 Z M 9.5 4.75 L 9.5 7.75 L 10.5 7.75 L 10.5 4.75 Z M 9.5 4.75 "/>
</g>
</svg>
