<?xml version="1.0" encoding="UTF-8"?>
<svg xmlns="http://www.w3.org/2000/svg" xmlns:xlink="http://www.w3.org/1999/xlink" width="16pt" height="16pt" viewBox="0 0 16 16" version="1.1">
<g id="surface1">
<path style=" stroke:none;fill-rule:evenodd;fill:rgb(80%,80%,80%);fill-opacity:1;" d="M 3.734375 0.949219 L 12.265625 0.949219 C 13.800781 0.949219 15.050781 2.199219 15.050781 3.734375 L 15.050781 12.265625 C 15.050781 13.800781 13.800781 15.050781 12.265625 15.050781 L 3.734375 15.050781 C 2.199219 15.050781 0.949219 13.800781 0.949219 12.265625 L 0.949219 3.734375 C 0.949219 2.199219 2.199219 0.949219 3.734375 0.949219 Z M 3.734375 0.949219 "/>
<path style=" stroke:none;fill-rule:nonzero;fill:rgb(30.980392%,30.980392%,30.980392%);fill-opacity:1;" d="M 3.523438 5.964844 L 12.476562 5.964844 L 12.476562 10.035156 L 3.523438 10.035156 Z M 3.523438 5.964844 "/>
<path style=" stroke:none;fill-rule:nonzero;fill:rgb(100%,100%,100%);fill-opacity:1;" d="M 8 2.300781 C 5.410156 2.300781 3.246094 4.015625 2.546875 6.371094 L 13.453125 6.371094 C 12.753906 4.015625 10.589844 2.300781 8 2.300781 Z M 2.546875 9.628906 C 3.25 11.984375 5.410156 13.699219 8 13.699219 C 10.589844 13.699219 12.753906 11.984375 13.453125 9.628906 Z M 2.546875 9.628906 "/>
<path style=" stroke:none;fill-rule:nonzero;fill:rgb(100%,38.823529%,38.823529%);fill-opacity:1;" d="M 9.21875 8 C 9.21875 8.671875 8.671875 9.21875 8 9.21875 C 7.328125 9.21875 6.78125 8.671875 6.78125 8 C 6.78125 7.328125 7.328125 6.78125 8 6.78125 C 8.671875 6.78125 9.21875 7.328125 9.21875 8 Z M 9.21875 8 "/>
<path style=" stroke:none;fill-rule:nonzero;fill:rgb(100%,38.823529%,38.823529%);fill-opacity:1;" d="M 12.070312 8 C 12.070312 8.671875 11.523438 9.21875 10.847656 9.21875 C 10.171875 9.21875 9.628906 8.671875 9.628906 8 C 9.628906 7.328125 10.171875 6.78125 10.847656 6.78125 C 11.523438 6.78125 12.070312 7.328125 12.070312 8 Z M 12.070312 8 "/>
<path style=" stroke:none;fill-rule:nonzero;fill:rgb(100%,38.823529%,38.823529%);fill-opacity:1;" d="M 6.371094 8 C 6.371094 8.671875 5.824219 9.21875 5.152344 9.21875 C 4.476562 9.21875 3.929688 8.671875 3.929688 8 C 3.929688 7.328125 4.476562 6.78125 5.152344 6.78125 C 5.824219 6.78125 6.371094 7.328125 6.371094 8 Z M 6.371094 8 "/>
</g>
</svg>
