<?xml version="1.0" encoding="UTF-8"?>
<svg xmlns="http://www.w3.org/2000/svg" xmlns:xlink="http://www.w3.org/1999/xlink" width="16pt" height="16pt" viewBox="0 0 16 16" version="1.1">
<g id="surface1">
<path style=" stroke:none;fill-rule:evenodd;fill:rgb(36.470588%,70.588235%,24.313725%);fill-opacity:1;" d="M 3.734375 0.949219 L 12.265625 0.949219 C 13.800781 0.949219 15.050781 2.199219 15.050781 3.734375 L 15.050781 12.265625 C 15.050781 13.800781 13.800781 15.050781 12.265625 15.050781 L 3.734375 15.050781 C 2.199219 15.050781 0.949219 13.800781 0.949219 12.265625 L 0.949219 3.734375 C 0.949219 2.199219 2.199219 0.949219 3.734375 0.949219 Z M 3.734375 0.949219 "/>
<path style=" stroke:none;fill-rule:nonzero;fill:rgb(100%,100%,100%);fill-opacity:1;" d="M 6.046875 2.800781 C 5.96875 2.808594 5.90625 2.871094 5.890625 2.945312 L 5.738281 3.710938 C 5.46875 3.816406 5.214844 3.960938 4.992188 4.140625 L 4.25 3.890625 C 4.171875 3.863281 4.078125 3.898438 4.039062 3.96875 L 3.324219 5.207031 C 3.28125 5.277344 3.300781 5.375 3.363281 5.429688 L 3.953125 5.949219 C 3.933594 6.089844 3.921875 6.226562 3.921875 6.375 C 3.921875 6.515625 3.933594 6.65625 3.953125 6.796875 L 3.363281 7.316406 C 3.300781 7.371094 3.28125 7.46875 3.324219 7.539062 L 4.039062 8.777344 C 4.078125 8.847656 4.171875 8.882812 4.25 8.859375 L 4.992188 8.605469 C 5.214844 8.785156 5.46875 8.929688 5.738281 9.035156 L 5.890625 9.800781 C 5.90625 9.878906 5.984375 9.945312 6.0625 9.945312 L 7.492188 9.945312 C 7.574219 9.945312 7.648438 9.878906 7.664062 9.800781 L 7.816406 9.035156 C 8.085938 8.929688 8.339844 8.785156 8.5625 8.605469 L 9.304688 8.859375 C 9.382812 8.882812 9.476562 8.847656 9.519531 8.777344 L 10.234375 7.539062 C 10.273438 7.46875 10.253906 7.371094 10.195312 7.316406 L 9.601562 6.796875 C 9.625 6.65625 9.636719 6.515625 9.636719 6.375 C 9.636719 6.226562 9.625 6.089844 9.601562 5.949219 L 10.195312 5.429688 C 10.253906 5.375 10.273438 5.277344 10.234375 5.207031 L 9.519531 3.96875 C 9.476562 3.898438 9.382812 3.863281 9.304688 3.890625 L 8.5625 4.140625 C 8.339844 3.960938 8.085938 3.816406 7.816406 3.710938 L 7.664062 2.945312 C 7.648438 2.867188 7.574219 2.800781 7.492188 2.800781 L 6.0625 2.800781 C 6.058594 2.800781 6.050781 2.800781 6.046875 2.800781 Z M 6.777344 4.84375 C 7.625 4.84375 8.308594 5.527344 8.308594 6.375 C 8.308594 7.21875 7.625 7.90625 6.777344 7.90625 C 5.933594 7.90625 5.246094 7.21875 5.246094 6.375 C 5.246094 5.527344 5.933594 4.84375 6.777344 4.84375 Z M 6.777344 4.84375 "/>
<path style=" stroke:none;fill-rule:nonzero;fill:rgb(61.176471%,88.235294%,45.098039%);fill-opacity:1;" d="M 10.117188 8.410156 C 10.066406 8.410156 10.019531 8.449219 10.003906 8.496094 L 9.851562 8.984375 C 9.667969 9.035156 9.488281 9.113281 9.328125 9.214844 L 8.863281 8.996094 C 8.8125 8.972656 8.75 8.988281 8.71875 9.03125 L 8.160156 9.792969 C 8.128906 9.839844 8.132812 9.902344 8.171875 9.941406 L 8.519531 10.328125 C 8.496094 10.414062 8.480469 10.507812 8.46875 10.601562 C 8.457031 10.695312 8.457031 10.789062 8.460938 10.882812 L 8.035156 11.179688 C 7.988281 11.210938 7.972656 11.273438 7.992188 11.324219 L 8.375 12.1875 C 8.394531 12.234375 8.453125 12.265625 8.507812 12.253906 L 9.011719 12.140625 C 9.144531 12.273438 9.300781 12.390625 9.46875 12.476562 L 9.515625 12.988281 C 9.519531 13.042969 9.5625 13.089844 9.617188 13.097656 L 10.554688 13.199219 C 10.609375 13.203125 10.660156 13.167969 10.675781 13.117188 L 10.832031 12.625 C 11.015625 12.578125 11.191406 12.5 11.351562 12.398438 L 11.820312 12.613281 C 11.871094 12.636719 11.933594 12.621094 11.964844 12.578125 L 12.523438 11.816406 C 12.554688 11.773438 12.550781 11.707031 12.511719 11.667969 L 12.160156 11.285156 C 12.1875 11.195312 12.203125 11.105469 12.214844 11.011719 C 12.226562 10.914062 12.226562 10.824219 12.222656 10.730469 L 12.648438 10.433594 C 12.691406 10.402344 12.710938 10.339844 12.6875 10.289062 L 12.3125 9.425781 C 12.289062 9.375 12.230469 9.347656 12.175781 9.359375 L 11.671875 9.46875 C 11.539062 9.335938 11.382812 9.222656 11.210938 9.136719 L 11.167969 8.625 C 11.164062 8.570312 11.117188 8.523438 11.066406 8.515625 L 10.128906 8.414062 C 10.125 8.414062 10.121094 8.414062 10.117188 8.410156 Z M 10.453125 9.800781 C 11.003906 9.863281 11.40625 10.359375 11.34375 10.914062 C 11.285156 11.46875 10.785156 11.871094 10.234375 11.808594 C 9.675781 11.75 9.277344 11.25 9.339844 10.695312 C 9.398438 10.140625 9.898438 9.742188 10.453125 9.800781 Z M 10.453125 9.800781 "/>
</g>
</svg>
