<?xml version="1.0" encoding="UTF-8"?>
<svg xmlns="http://www.w3.org/2000/svg" xmlns:xlink="http://www.w3.org/1999/xlink" width="16pt" height="16pt" viewBox="0 0 16 16" version="1.1">
<g id="surface1">
<path style=" stroke:none;fill-rule:evenodd;fill:rgb(34.117647%,69.019608%,45.490196%);fill-opacity:1;" d="M 0.949219 11.046875 L 0.949219 12.261719 C 0.949219 13.808594 2.191406 15.050781 3.738281 15.050781 L 12.265625 15.050781 C 13.808594 15.050781 15.050781 13.808594 15.050781 12.261719 L 15.050781 11.046875 L 12.570312 11.046875 L 10.46875 13.449219 L 8.367188 11.046875 Z M 0.949219 11.046875 "/>
<path style=" stroke:none;fill-rule:evenodd;fill:rgb(22.745098%,50.980392%,40.784314%);fill-opacity:1;" d="M 0.949219 11.046875 L 8.367188 11.046875 L 10.46875 13.449219 L 12.570312 11.046875 L 15.050781 11.046875 L 15.050781 3.734375 C 15.050781 2.191406 13.808594 0.949219 12.265625 0.949219 L 3.738281 0.949219 C 2.191406 0.949219 0.949219 2.191406 0.949219 3.734375 Z M 0.949219 11.046875 "/>
<path style=" stroke:none;fill-rule:nonzero;fill:rgb(61.568627%,75.686275%,70.588235%);fill-opacity:1;" d="M 5 3.984375 L 5 3.484375 L 11 3.484375 L 11 3.984375 Z M 5 3.984375 "/>
<path style=" stroke:none;fill-rule:nonzero;fill:rgb(61.568627%,75.686275%,70.588235%);fill-opacity:1;" d="M 5 5.484375 L 5 4.984375 L 11 4.984375 L 11 5.484375 Z M 5 5.484375 "/>
<path style=" stroke:none;fill-rule:nonzero;fill:rgb(61.568627%,75.686275%,70.588235%);fill-opacity:1;" d="M 5 6.984375 L 5 6.484375 L 11 6.484375 L 11 6.984375 Z M 5 6.984375 "/>
<path style=" stroke:none;fill-rule:nonzero;fill:rgb(61.568627%,75.686275%,70.588235%);fill-opacity:1;" d="M 5 8.484375 L 5 7.984375 L 9 7.984375 L 9 8.484375 Z M 5 8.484375 "/>
</g>
</svg>
