<?xml version="1.0" encoding="UTF-8"?>
<svg xmlns="http://www.w3.org/2000/svg" xmlns:xlink="http://www.w3.org/1999/xlink" width="16pt" height="16pt" viewBox="0 0 16 16" version="1.1">
<g id="surface1">
<path style=" stroke:none;fill-rule:evenodd;fill:rgb(60%,60%,60%);fill-opacity:1;" d="M 3.734375 0.949219 L 12.265625 0.949219 C 13.800781 0.949219 15.050781 2.199219 15.050781 3.734375 L 15.050781 12.265625 C 15.050781 13.800781 13.800781 15.050781 12.265625 15.050781 L 3.734375 15.050781 C 2.199219 15.050781 0.949219 13.800781 0.949219 12.265625 L 0.949219 3.734375 C 0.949219 2.199219 2.199219 0.949219 3.734375 0.949219 Z M 3.734375 0.949219 "/>
<path style=" stroke:none;fill-rule:nonzero;fill:rgb(80%,80%,80%);fill-opacity:1;" d="M 8 2.835938 C 5.589844 2.835938 5.324219 4.996094 5.324219 7.425781 L 6.46875 7.425781 C 6.441406 4.996094 6.992188 3.984375 8 3.984375 C 9.007812 3.984375 9.558594 4.996094 9.53125 7.425781 L 10.675781 7.425781 C 10.675781 4.996094 10.410156 2.835938 8 2.835938 Z M 8 2.835938 "/>
<path style=" stroke:none;fill-rule:nonzero;fill:rgb(100%,100%,100%);fill-opacity:1;" d="M 11.824219 9.339844 C 11.824219 7.226562 10.113281 5.515625 8 5.515625 C 5.886719 5.515625 4.175781 7.226562 4.175781 9.339844 C 4.175781 11.453125 5.886719 13.164062 8 13.164062 C 10.113281 13.164062 11.824219 11.453125 11.824219 9.339844 Z M 11.824219 9.339844 "/>
<path style=" stroke:none;fill-rule:nonzero;fill:rgb(30.980392%,30.980392%,30.980392%);fill-opacity:1;" d="M 10.675781 9.339844 C 10.675781 7.859375 9.480469 6.660156 8 6.660156 C 6.519531 6.660156 5.324219 7.859375 5.324219 9.339844 C 5.324219 10.816406 6.519531 12.015625 8 12.015625 C 9.480469 12.015625 10.675781 10.816406 10.675781 9.339844 Z M 10.675781 9.339844 "/>
<path style=" stroke:none;fill-rule:nonzero;fill:rgb(100%,34.901961%,41.176471%);fill-opacity:1;" d="M 9.488281 7.851562 L 8.878906 8.054688 L 8.324219 8.238281 C 7.921875 8.121094 7.484375 8.230469 7.1875 8.527344 C 6.738281 8.976562 6.738281 9.703125 7.1875 10.152344 C 7.636719 10.597656 8.363281 10.597656 8.8125 10.152344 C 9.109375 9.851562 9.21875 9.417969 9.101562 9.015625 Z M 9.488281 7.851562 "/>
</g>
</svg>
