<?xml version="1.0" encoding="UTF-8"?>
<svg xmlns="http://www.w3.org/2000/svg" xmlns:xlink="http://www.w3.org/1999/xlink" width="16pt" height="16pt" viewBox="0 0 16 16" version="1.1">
<g id="surface1">
<path style=" stroke:none;fill-rule:evenodd;fill:rgb(100%,49.019608%,0%);fill-opacity:1;" d="M 3.734375 0.949219 L 12.265625 0.949219 C 13.800781 0.949219 15.050781 2.199219 15.050781 3.734375 L 15.050781 12.265625 C 15.050781 13.800781 13.800781 15.050781 12.265625 15.050781 L 3.734375 15.050781 C 2.199219 15.050781 0.949219 13.800781 0.949219 12.265625 L 0.949219 3.734375 C 0.949219 2.199219 2.199219 0.949219 3.734375 0.949219 Z M 3.734375 0.949219 "/>
<path style=" stroke:none;fill-rule:evenodd;fill:rgb(100%,49.019608%,0%);fill-opacity:1;" d="M 14.234375 1.765625 C 13.734375 1.261719 13.035156 0.949219 12.265625 0.949219 L 3.738281 0.949219 C 2.191406 0.949219 0.949219 2.191406 0.949219 3.734375 L 0.949219 12.261719 C 0.949219 13.808594 2.191406 15.050781 3.738281 15.050781 L 8 15.050781 L 8 8 Z M 14.234375 1.765625 "/>
<path style=" stroke:none;fill-rule:evenodd;fill:rgb(100%,56.470588%,14.509804%);fill-opacity:1;" d="M 14.234375 1.765625 L 8 8 L 8 15.050781 L 12.265625 15.050781 C 13.808594 15.050781 15.050781 13.808594 15.050781 12.261719 L 15.050781 3.734375 C 15.050781 2.964844 14.738281 2.265625 14.234375 1.765625 Z M 14.234375 1.765625 "/>
<path style=" stroke:none;fill-rule:nonzero;fill:rgb(36.862745%,36.862745%,36.862745%);fill-opacity:1;" d="M 11.78125 3.972656 L 7.753906 7.753906 L 8.246094 8.25 L 12.027344 4.21875 Z M 11.78125 3.972656 "/>
<path style=" stroke:none;fill-rule:nonzero;fill:rgb(100%,100%,100%);fill-opacity:1;" d="M 7.828125 8 L 7.828125 13.5 L 8.171875 13.5 L 8.171875 8 Z M 7.828125 8 "/>
<path style=" stroke:none;fill-rule:nonzero;fill:rgb(24.705882%,24.705882%,24.705882%);fill-opacity:1;" d="M 5.375 5.125 L 5.128906 5.371094 L 7.753906 8.25 L 8.25 7.753906 Z M 5.375 5.125 "/>
<path style=" stroke:none;fill-rule:nonzero;fill:rgb(24.705882%,24.705882%,24.705882%);fill-opacity:1;" d="M 8.34375 8 C 8.34375 8.191406 8.191406 8.34375 8 8.34375 C 7.8125 8.34375 7.65625 8.191406 7.65625 8 C 7.65625 7.8125 7.8125 7.65625 8 7.65625 C 8.191406 7.65625 8.34375 7.8125 8.34375 8 Z M 8.34375 8 "/>
</g>
</svg>
