<?xml version="1.0" encoding="UTF-8"?>
<svg xmlns="http://www.w3.org/2000/svg" xmlns:xlink="http://www.w3.org/1999/xlink" width="16pt" height="16pt" viewBox="0 0 16 16" version="1.1">
<g id="surface1">
<path style=" stroke:none;fill-rule:evenodd;fill:rgb(28.235294%,29.411765%,38.039216%);fill-opacity:1;" d="M 3.734375 0.949219 L 12.265625 0.949219 C 13.800781 0.949219 15.050781 2.199219 15.050781 3.734375 L 15.050781 12.265625 C 15.050781 13.800781 13.800781 15.050781 12.265625 15.050781 L 3.734375 15.050781 C 2.199219 15.050781 0.949219 13.800781 0.949219 12.265625 L 0.949219 3.734375 C 0.949219 2.199219 2.199219 0.949219 3.734375 0.949219 Z M 3.734375 0.949219 "/>
<path style=" stroke:none;fill-rule:nonzero;fill:rgb(28.235294%,29.411765%,38.039216%);fill-opacity:1;" d="M 8 2.203125 C 4.796875 2.203125 2.203125 4.796875 2.203125 8 C 2.203125 11.203125 4.796875 13.796875 8 13.796875 C 11.203125 13.796875 13.796875 11.203125 13.796875 8 C 13.796875 4.796875 11.203125 2.203125 8 2.203125 Z M 8 2.203125 "/>
<path style=" stroke:none;fill-rule:nonzero;fill:rgb(58.039216%,60%,69.803922%);fill-opacity:1;" d="M 11.3125 8 C 11.3125 9.828125 9.828125 11.3125 8 11.3125 C 6.171875 11.3125 4.6875 9.828125 4.6875 8 C 4.6875 6.171875 6.171875 4.6875 8 4.6875 C 9.828125 4.6875 11.3125 6.171875 11.3125 8 Z M 11.3125 8 "/>
<path style=" stroke:none;fill-rule:nonzero;fill:rgb(100%,100%,100%);fill-opacity:1;" d="M 10.59375 3.667969 C 10.890625 3.839844 11 4.210938 10.832031 4.496094 L 8.738281 8.121094 C 8.574219 8.40625 8.199219 8.5 7.902344 8.328125 C 7.605469 8.15625 7.5 7.785156 7.664062 7.5 L 9.757812 3.875 C 9.921875 3.589844 10.296875 3.496094 10.59375 3.667969 Z M 10.59375 3.667969 "/>
<path style=" stroke:none;fill-rule:nonzero;fill:rgb(58.039216%,60%,69.803922%);fill-opacity:1;" d="M 13.382812 8 C 13.382812 8.230469 13.21875 8.414062 13.011719 8.414062 L 12.511719 8.414062 C 12.304688 8.414062 12.140625 8.230469 12.140625 8 C 12.140625 7.769531 12.304688 7.585938 12.511719 7.585938 L 13.011719 7.585938 C 13.21875 7.585938 13.382812 7.769531 13.382812 8 Z M 13.382812 8 "/>
<path style=" stroke:none;fill-rule:nonzero;fill:rgb(58.039216%,60%,69.803922%);fill-opacity:1;" d="M 3.859375 8 C 3.859375 8.230469 3.695312 8.414062 3.488281 8.414062 L 2.988281 8.414062 C 2.78125 8.414062 2.617188 8.230469 2.617188 8 C 2.617188 7.769531 2.78125 7.585938 2.988281 7.585938 L 3.488281 7.585938 C 3.695312 7.585938 3.859375 7.769531 3.859375 8 Z M 3.859375 8 "/>
<path style=" stroke:none;fill-rule:nonzero;fill:rgb(58.039216%,60%,69.803922%);fill-opacity:1;" d="M 8 13.382812 C 7.769531 13.382812 7.585938 13.21875 7.585938 13.011719 L 7.585938 12.511719 C 7.585938 12.304688 7.769531 12.140625 8 12.140625 C 8.230469 12.140625 8.414062 12.304688 8.414062 12.511719 L 8.414062 13.011719 C 8.414062 13.21875 8.230469 13.382812 8 13.382812 Z M 8 13.382812 "/>
<path style=" stroke:none;fill-rule:nonzero;fill:rgb(58.039216%,60%,69.803922%);fill-opacity:1;" d="M 8 3.859375 C 7.769531 3.859375 7.585938 3.695312 7.585938 3.488281 L 7.585938 2.988281 C 7.585938 2.78125 7.769531 2.617188 8 2.617188 C 8.230469 2.617188 8.414062 2.78125 8.414062 2.988281 L 8.414062 3.488281 C 8.414062 3.695312 8.230469 3.859375 8 3.859375 Z M 8 3.859375 "/>
</g>
</svg>
