<?xml version="1.0" encoding="UTF-8"?>
<svg xmlns="http://www.w3.org/2000/svg" xmlns:xlink="http://www.w3.org/1999/xlink" width="16pt" height="16pt" viewBox="0 0 16 16" version="1.1">
<g id="surface1">
<path style=" stroke:none;fill-rule:nonzero;fill:rgb(12.941176%,84.313725%,53.72549%);fill-opacity:1;" d="M 15 3.484375 C 14.972656 3.195312 14.941406 2.90625 14.832031 2.648438 C 14.691406 2.316406 14.488281 2.015625 14.234375 1.765625 C 13.984375 1.511719 13.683594 1.308594 13.347656 1.167969 C 13.09375 1.058594 12.804688 1.027344 12.515625 1 L 8 1 L 8 8 L 15 8 Z M 15 3.484375 "/>
<path style=" stroke:none;fill-rule:nonzero;fill:rgb(12.54902%,52.54902%,90.588235%);fill-opacity:1;" d="M 3.484375 1 C 3.195312 1.027344 2.90625 1.058594 2.648438 1.167969 C 2.316406 1.308594 2.015625 1.511719 1.765625 1.765625 C 1.511719 2.015625 1.308594 2.316406 1.167969 2.648438 C 1.058594 2.90625 1.027344 3.195312 1 3.484375 L 1 8 L 8 8 L 8 1 Z M 3.484375 1 "/>
<path style=" stroke:none;fill-rule:nonzero;fill:rgb(40%,33.333333%,89.411765%);fill-opacity:1;" d="M 12.515625 15 C 12.804688 14.972656 13.09375 14.941406 13.351562 14.832031 C 13.683594 14.691406 13.984375 14.488281 14.234375 14.234375 C 14.488281 13.984375 14.691406 13.683594 14.832031 13.351562 C 14.941406 13.09375 14.972656 12.804688 15 12.515625 L 15 8 L 8 8 L 8 15 Z M 12.515625 15 "/>
<path style=" stroke:none;fill-rule:nonzero;fill:rgb(12.941176%,84.313725%,53.72549%);fill-opacity:1;" d="M 1 12.515625 C 1.027344 12.804688 1.0625 13.09375 1.167969 13.351562 C 1.308594 13.683594 1.511719 13.984375 1.765625 14.234375 C 2.015625 14.488281 2.316406 14.691406 2.652344 14.832031 C 2.90625 14.941406 3.195312 14.972656 3.484375 15 L 8 15 L 8 8 L 1 8 Z M 1 12.515625 "/>
<path style=" stroke:none;fill-rule:evenodd;fill:rgb(24.705882%,24.705882%,24.705882%);fill-opacity:1;" d="M 4.761719 2.644531 L 11.238281 2.644531 C 12.40625 2.644531 13.355469 3.59375 13.355469 4.761719 L 13.355469 11.238281 C 13.355469 12.40625 12.40625 13.355469 11.238281 13.355469 L 4.761719 13.355469 C 3.59375 13.355469 2.644531 12.40625 2.644531 11.238281 L 2.644531 4.761719 C 2.644531 3.59375 3.59375 2.644531 4.761719 2.644531 Z M 4.761719 2.644531 "/>
<path style="fill:none;stroke-width:2;stroke-linecap:round;stroke-linejoin:miter;stroke:rgb(100%,100%,100%);stroke-opacity:1;stroke-miterlimit:4;" d="M 21.472171 -16.050178 L 29.473306 -16.050178 " transform="matrix(0.449155,0,0,0.449155,-4.35527,18.353549)"/>
<path style="fill:none;stroke-width:1.999874;stroke-linecap:round;stroke-linejoin:bevel;stroke:rgb(100%,100%,100%);stroke-opacity:1;stroke-miterlimit:4;" d="M 24.472597 -25.051456 L 26.47288 -25.051456 M 25.472738 -25.051456 C 25.472738 -25.051456 25.968461 -22.05103 23.472455 -22.05103 C 21.472171 -22.05103 21.472171 -24.051314 21.472171 -26.051597 C 21.472171 -28.051881 21.472171 -30.052165 23.472455 -30.052165 C 25.472738 -30.052165 25.464042 -29.052023 25.464042 -29.052023 " transform="matrix(0.449155,0,0,0.449155,-4.35527,18.353549)"/>
<path style="fill:none;stroke-width:1.999874;stroke-linecap:round;stroke-linejoin:bevel;stroke:rgb(100%,100%,100%);stroke-opacity:1;stroke-miterlimit:4;" d="M 31.517074 -30.052165 C 33.917415 -30.052165 33.517358 -28.051881 33.517358 -26.051597 C 33.517358 -24.051314 33.873931 -21.990152 31.517074 -22.05103 C 29.168915 -22.05103 29.516791 -24.051314 29.516791 -26.051597 C 29.516791 -28.051881 29.081946 -30.052165 31.517074 -30.052165 " transform="matrix(0.449155,0,0,0.449155,-4.35527,18.353549)"/>
</g>
</svg>
