<?xml version="1.0" encoding="UTF-8"?>
<svg xmlns="http://www.w3.org/2000/svg" xmlns:xlink="http://www.w3.org/1999/xlink" width="16pt" height="16pt" viewBox="0 0 16 16" version="1.1">
<g id="surface1">
<path style=" stroke:none;fill-rule:evenodd;fill:rgb(32.156863%,56.078431%,96.078431%);fill-opacity:1;" d="M 3.734375 0.949219 L 12.265625 0.949219 C 13.800781 0.949219 15.050781 2.199219 15.050781 3.734375 L 15.050781 12.265625 C 15.050781 13.800781 13.800781 15.050781 12.265625 15.050781 L 3.734375 15.050781 C 2.199219 15.050781 0.949219 13.800781 0.949219 12.265625 L 0.949219 3.734375 C 0.949219 2.199219 2.199219 0.949219 3.734375 0.949219 Z M 3.734375 0.949219 "/>
<path style=" stroke:none;fill-rule:nonzero;fill:rgb(100%,100%,100%);fill-opacity:1;" d="M 4.9375 3.625 C 4.695312 3.625 4.5 3.820312 4.5 4.0625 L 4.5 11.9375 C 4.5 12.179688 4.695312 12.375 4.9375 12.375 L 11.0625 12.375 C 11.304688 12.375 11.5 12.179688 11.5 11.9375 L 11.5 6.425781 L 9.09375 6.03125 L 8.699219 3.625 Z M 4.9375 3.625 "/>
<path style=" stroke:none;fill-rule:nonzero;fill:rgb(64.705882%,77.254902%,97.647059%);fill-opacity:1;" d="M 8.699219 3.625 L 8.699219 5.957031 C 8.699219 6.214844 8.910156 6.425781 9.167969 6.425781 L 11.5 6.425781 Z M 8.699219 3.625 "/>
<path style=" stroke:none;fill-rule:nonzero;fill:rgb(32.156863%,56.078431%,96.078431%);fill-opacity:1;" d="M 5.898438 7.824219 L 5.898438 8.175781 L 9.75 8.175781 L 9.75 7.824219 Z M 5.898438 8.875 L 5.898438 9.226562 L 9.75 9.226562 L 9.75 8.875 Z M 5.898438 9.925781 L 5.898438 10.273438 L 9.75 10.273438 L 9.75 9.925781 Z M 5.898438 10.976562 L 5.898438 11.324219 L 8.699219 11.324219 L 8.699219 10.976562 Z M 5.898438 10.976562 "/>
</g>
</svg>
