<?xml version="1.0" encoding="UTF-8"?>
<svg xmlns="http://www.w3.org/2000/svg" xmlns:xlink="http://www.w3.org/1999/xlink" width="16pt" height="16pt" viewBox="0 0 16 16" version="1.1">
<g id="surface1">
<path style=" stroke:none;fill-rule:evenodd;fill:rgb(39.607843%,58.431373%,76.470588%);fill-opacity:1;" d="M 3.734375 0.949219 L 12.265625 0.949219 C 13.800781 0.949219 15.050781 2.199219 15.050781 3.734375 L 15.050781 12.265625 C 15.050781 13.800781 13.800781 15.050781 12.265625 15.050781 L 3.734375 15.050781 C 2.199219 15.050781 0.949219 13.800781 0.949219 12.265625 L 0.949219 3.734375 C 0.949219 2.199219 2.199219 0.949219 3.734375 0.949219 Z M 3.734375 0.949219 "/>
<path style=" stroke:none;fill-rule:nonzero;fill:rgb(100%,100%,100%);fill-opacity:1;" d="M 7.933594 3.171875 C 7.308594 3.171875 6.710938 3.289062 6.164062 3.503906 C 6.375 3.472656 6.625 3.457031 6.929688 3.457031 C 8.65625 3.457031 9.636719 4.222656 10.347656 5.039062 C 10.824219 5.582031 11.652344 7.203125 12.265625 7.203125 C 12.441406 7.1875 12.582031 7.046875 12.691406 6.828125 C 12.09375 4.71875 10.191406 3.171875 7.929688 3.171875 Z M 7.933594 3.171875 "/>
<path style=" stroke:none;fill-rule:nonzero;fill:rgb(100%,100%,100%);fill-opacity:1;" d="M 4.902344 5.792969 C 6.574219 5.792969 9.519531 9.417969 12.648438 9.78125 C 12.726562 9.53125 12.789062 9.269531 12.828125 9 C 11.40625 8.683594 9.617188 6.988281 8.976562 6.347656 C 7.96875 5.347656 7.03125 4.347656 5.746094 4.347656 C 5.304688 4.347656 4.902344 4.421875 4.554688 4.53125 C 3.90625 5.148438 3.421875 5.9375 3.171875 6.828125 C 3.6875 6.300781 4.277344 5.792969 4.902344 5.792969 Z M 4.902344 5.792969 "/>
<path style=" stroke:none;fill-rule:nonzero;fill:rgb(100%,100%,100%);fill-opacity:1;" d="M 9.867188 11.480469 C 6.992188 11.480469 4.824219 9.898438 4.050781 9.898438 C 3.734375 9.898438 3.554688 10.121094 3.449219 10.390625 C 3.945312 11.464844 4.800781 12.328125 5.855469 12.828125 C 5.707031 12.4375 5.617188 11.921875 6.1875 11.921875 C 6.6875 11.921875 7.1875 12.363281 9.042969 12.363281 C 9.886719 12.363281 10.667969 12.183594 11.238281 12 C 11.542969 11.71875 11.8125 11.40625 12.042969 11.058594 C 11.496094 11.257812 10.695312 11.480469 9.867188 11.480469 Z M 9.867188 11.480469 "/>
</g>
</svg>
