<?xml version="1.0" encoding="UTF-8"?>
<svg xmlns="http://www.w3.org/2000/svg" xmlns:xlink="http://www.w3.org/1999/xlink" width="16pt" height="16pt" viewBox="0 0 16 16" version="1.1">
<g id="surface1">
<path style=" stroke:none;fill-rule:evenodd;fill:rgb(90.196078%,90.196078%,90.196078%);fill-opacity:1;" d="M 3.734375 0.949219 L 12.265625 0.949219 C 13.800781 0.949219 15.050781 2.199219 15.050781 3.734375 L 15.050781 12.265625 C 15.050781 13.800781 13.800781 15.050781 12.265625 15.050781 L 3.734375 15.050781 C 2.199219 15.050781 0.949219 13.800781 0.949219 12.265625 L 0.949219 3.734375 C 0.949219 2.199219 2.199219 0.949219 3.734375 0.949219 Z M 3.734375 0.949219 "/>
<path style=" stroke:none;fill-rule:nonzero;fill:rgb(99.607843%,75.294118%,2.352941%);fill-opacity:1;" d="M 8 8 L 2.421875 8 L 5.210938 5.210938 L 8 5.210938 "/>
<path style=" stroke:none;fill-rule:nonzero;fill:rgb(95.294118%,25.882353%,20.784314%);fill-opacity:1;" d="M 8 8 L 8 2.421875 L 10.789062 5.210938 L 10.789062 8 "/>
<path style=" stroke:none;fill-rule:nonzero;fill:rgb(29.411765%,68.235294%,30.980392%);fill-opacity:1;" d="M 5.210938 8 L 5.210938 10.789062 L 8 13.578125 L 8 8 "/>
<path style=" stroke:none;fill-rule:nonzero;fill:rgb(12.54902%,58.431373%,94.901961%);fill-opacity:1;" d="M 8 8 L 13.578125 8 L 10.789062 10.789062 L 8 10.789062 "/>
<path style=" stroke:none;fill-rule:nonzero;fill:rgb(61.176471%,15.294118%,69.019608%);fill-opacity:1;" d="M 8 8 L 10.789062 5.210938 L 10.789062 8 Z M 8 8 "/>
<path style=" stroke:none;fill-rule:nonzero;fill:rgb(11.764706%,63.921569%,38.431373%);fill-opacity:1;" d="M 8 8 L 5.210938 10.789062 L 5.210938 8 Z M 8 8 "/>
<path style=" stroke:none;fill-rule:nonzero;fill:rgb(24.313725%,31.372549%,70.588235%);fill-opacity:1;" d="M 10.789062 10.789062 L 8 8 L 8 10.789062 Z M 10.789062 10.789062 "/>
<path style=" stroke:none;fill-rule:nonzero;fill:rgb(99.607843%,59.215686%,0%);fill-opacity:1;" d="M 5.210938 5.210938 L 8 8 L 8 5.210938 Z M 5.210938 5.210938 "/>
<path style=" stroke:none;fill-rule:nonzero;fill:rgb(100%,100%,100%);fill-opacity:1;" d="M 8 6.40625 L 7.5 7.5 L 6.40625 8 L 7.5 8.5 L 8 9.59375 L 8.5 8.5 L 9.59375 8 L 8.5 7.5 Z M 8 6.40625 "/>
</g>
</svg>
