<?xml version="1.0" encoding="UTF-8"?>
<svg xmlns="http://www.w3.org/2000/svg" xmlns:xlink="http://www.w3.org/1999/xlink" width="16pt" height="16pt" viewBox="0 0 16 16" version="1.1">
<g id="surface1">
<path style=" stroke:none;fill-rule:evenodd;fill:rgb(90.196078%,90.196078%,90.196078%);fill-opacity:1;" d="M 3.734375 0.949219 L 12.265625 0.949219 C 13.800781 0.949219 15.050781 2.199219 15.050781 3.734375 L 15.050781 12.265625 C 15.050781 13.800781 13.800781 15.050781 12.265625 15.050781 L 3.734375 15.050781 C 2.199219 15.050781 0.949219 13.800781 0.949219 12.265625 L 0.949219 3.734375 C 0.949219 2.199219 2.199219 0.949219 3.734375 0.949219 Z M 3.734375 0.949219 "/>
<path style=" stroke:none;fill-rule:nonzero;fill:rgb(40%,62.745098%,17.254902%);fill-opacity:1;" d="M 12.800781 11.203125 L 12.800781 2.796875 C 12.800781 2.578125 12.613281 2.398438 12.378906 2.398438 L 5.21875 2.398438 C 4.988281 2.398438 4.796875 2.578125 4.796875 2.796875 L 4.796875 11.203125 C 4.796875 11.421875 4.988281 11.601562 5.21875 11.601562 L 12.378906 11.601562 C 12.613281 11.601562 12.800781 11.421875 12.800781 11.203125 Z M 12.800781 11.203125 "/>
<path style=" stroke:none;fill-rule:nonzero;fill:rgb(49.411765%,73.72549%,18.039216%);fill-opacity:1;" d="M 11.203125 13.203125 L 11.203125 4.796875 C 11.203125 4.578125 11.011719 4.398438 10.78125 4.398438 L 3.621094 4.398438 C 3.386719 4.398438 3.199219 4.578125 3.199219 4.796875 L 3.199219 13.203125 C 3.199219 13.421875 3.386719 13.601562 3.621094 13.601562 L 10.78125 13.601562 C 11.011719 13.601562 11.203125 13.421875 11.203125 13.203125 Z M 11.203125 13.203125 "/>
<path style="fill-rule:nonzero;fill:rgb(100%,100%,100%);fill-opacity:1;stroke-width:0.5;stroke-linecap:butt;stroke-linejoin:miter;stroke:rgb(100%,100%,100%);stroke-opacity:1;stroke-miterlimit:4;" d="M 13.8125 13.3125 C 13.59375 13.3125 13.382812 13.414062 13.335938 13.59375 C 13.148438 14.28125 13.359375 15.34375 13.703125 16.664062 L 13.601562 16.921875 C 13.335938 17.5625 13 18.210938 12.710938 18.78125 C 11.5 21.148438 10.5625 22.421875 9.9375 22.507812 L 9.9375 22.484375 C 9.921875 22.1875 10.46875 21.429688 11.203125 20.828125 C 11.28125 20.765625 11.609375 20.445312 11.609375 20.445312 C 11.609375 20.445312 11.164062 20.679688 11.0625 20.742188 C 10.140625 21.289062 9.679688 21.84375 9.609375 22.210938 C 9.585938 22.320312 9.601562 22.453125 9.695312 22.507812 L 9.929688 22.625 C 10.570312 22.945312 11.367188 22.101562 12.414062 20.257812 C 13.484375 19.90625 14.8125 19.578125 16.03125 19.40625 C 17.117188 20.023438 18.367188 20.320312 18.84375 20.1875 C 18.9375 20.164062 19.03125 20.09375 19.078125 20.03125 C 19.117188 19.96875 19.171875 19.726562 19.171875 19.726562 C 19.171875 19.726562 19.085938 19.84375 19.007812 19.882812 C 18.703125 20.03125 17.75 19.789062 16.765625 19.3125 C 17.617188 19.21875 18.320312 19.21875 18.703125 19.335938 C 19.179688 19.492188 19.179688 19.648438 19.171875 19.679688 C 19.179688 19.65625 19.203125 19.546875 19.203125 19.5 C 19.1875 19.382812 19.15625 19.28125 19.0625 19.195312 C 18.890625 19.023438 18.453125 18.9375 17.851562 18.929688 C 17.40625 18.921875 16.859375 18.960938 16.273438 19.046875 C 16 18.890625 15.71875 18.71875 15.5 18.507812 C 14.929688 17.976562 14.445312 17.242188 14.15625 16.40625 C 14.171875 16.328125 14.1875 16.25 14.210938 16.171875 C 14.289062 15.804688 14.351562 14.578125 14.351562 14.578125 C 14.351562 14.578125 14.117188 15.5 14.078125 15.640625 C 14.054688 15.726562 14.023438 15.820312 13.992188 15.914062 C 13.8125 15.28125 13.71875 14.671875 13.71875 14.203125 C 13.71875 14.078125 13.734375 13.820312 13.765625 13.617188 C 13.789062 13.46875 13.84375 13.398438 13.890625 13.359375 C 14 13.390625 14.125 13.554688 14.25 13.828125 C 14.351562 14.0625 14.34375 14.34375 14.34375 14.507812 C 14.34375 14.507812 14.460938 14.09375 14.4375 13.84375 C 14.421875 13.6875 14.28125 13.304688 13.96875 13.3125 L 13.945312 13.3125 L 13.8125 13.304688 Z M 13.914062 17.140625 C 14.226562 17.773438 14.664062 18.367188 15.234375 18.84375 C 15.359375 18.953125 15.492188 19.0625 15.632812 19.15625 C 14.601562 19.34375 13.515625 19.617188 12.507812 20.03125 C 12.695312 19.710938 12.890625 19.359375 13.09375 18.984375 C 13.484375 18.242188 13.71875 17.671875 13.914062 17.140625 Z M 13.914062 17.140625 " transform="matrix(0.5,0,0,0.5,0,0)"/>
<path style=" stroke:none;fill-rule:evenodd;fill:rgb(100%,66.27451%,24.313725%);fill-opacity:1;" d="M 13.964844 11.1875 C 13.964844 12.84375 12.621094 14.1875 10.964844 14.1875 C 9.308594 14.1875 7.964844 12.84375 7.964844 11.1875 C 7.964844 9.53125 9.308594 8.1875 10.964844 8.1875 C 12.621094 8.1875 13.964844 9.53125 13.964844 11.1875 Z M 13.964844 11.1875 "/>
<path style=" stroke:none;fill-rule:nonzero;fill:rgb(100%,100%,100%);fill-opacity:1;" d="M 9.464844 12.019531 L 9.464844 12.6875 L 10.132812 12.6875 L 11.820312 11 L 11.152344 10.332031 Z M 12.410156 10.410156 C 12.484375 10.34375 12.484375 10.230469 12.410156 10.160156 L 11.996094 9.742188 C 11.921875 9.671875 11.8125 9.671875 11.742188 9.742188 L 11.390625 10.09375 L 12.0625 10.761719 Z M 12.410156 10.410156 "/>
</g>
</svg>
