<?xml version="1.0" encoding="UTF-8"?>
<svg xmlns="http://www.w3.org/2000/svg" xmlns:xlink="http://www.w3.org/1999/xlink" width="16pt" height="16pt" viewBox="0 0 16 16" version="1.1">
<g id="surface1">
<path style=" stroke:none;fill-rule:evenodd;fill:rgb(98.039216%,74.117647%,49.803922%);fill-opacity:1;" d="M 3.734375 0.949219 L 12.265625 0.949219 C 13.800781 0.949219 15.050781 2.199219 15.050781 3.734375 L 15.050781 12.265625 C 15.050781 13.800781 13.800781 15.050781 12.265625 15.050781 L 3.734375 15.050781 C 2.199219 15.050781 0.949219 13.800781 0.949219 12.265625 L 0.949219 3.734375 C 0.949219 2.199219 2.199219 0.949219 3.734375 0.949219 Z M 3.734375 0.949219 "/>
<path style=" stroke:none;fill-rule:nonzero;fill:rgb(24.705882%,24.705882%,24.705882%);fill-opacity:1;" d="M 7.285156 3 C 7.089844 3 6.929688 3.171875 6.929688 3.386719 L 6.929688 9.539062 L 5.5 9.539062 L 8 13 L 10.5 9.539062 L 9.070312 9.539062 L 9.070312 3.386719 C 9.070312 3.171875 8.910156 3 8.714844 3 Z M 7.285156 3 "/>
<path style=" stroke:none;fill-rule:nonzero;fill:rgb(97.647059%,97.647059%,97.647059%);fill-opacity:1;" d="M 14.203125 11.125 C 14.203125 12.78125 12.859375 14.125 11.203125 14.125 C 9.546875 14.125 8.203125 12.78125 8.203125 11.125 C 8.203125 9.46875 9.546875 8.125 11.203125 8.125 C 12.859375 8.125 14.203125 9.46875 14.203125 11.125 Z M 14.203125 11.125 "/>
<path style=" stroke:none;fill-rule:nonzero;fill:rgb(24.705882%,24.705882%,24.705882%);fill-opacity:1;" d="M 9.605469 9.523438 L 9.605469 10.398438 L 12.804688 10.398438 L 12.804688 9.523438 Z M 9.605469 10.6875 L 9.605469 11.5625 L 12.804688 11.5625 L 12.804688 10.6875 Z M 9.605469 11.851562 L 9.605469 12.726562 L 12.804688 12.726562 L 12.804688 11.851562 Z M 9.605469 11.851562 "/>
</g>
</svg>
