<?xml version="1.0" encoding="UTF-8"?>
<svg xmlns="http://www.w3.org/2000/svg" xmlns:xlink="http://www.w3.org/1999/xlink" width="16pt" height="16pt" viewBox="0 0 16 16" version="1.1">
<g id="surface1">
<path style=" stroke:none;fill-rule:evenodd;fill:rgb(59.215686%,30.980392%,64.313725%);fill-opacity:1;" d="M 3.734375 0.949219 L 12.265625 0.949219 C 13.800781 0.949219 15.050781 2.199219 15.050781 3.734375 L 15.050781 12.265625 C 15.050781 13.800781 13.800781 15.050781 12.265625 15.050781 L 3.734375 15.050781 C 2.199219 15.050781 0.949219 13.800781 0.949219 12.265625 L 0.949219 3.734375 C 0.949219 2.199219 2.199219 0.949219 3.734375 0.949219 Z M 3.734375 0.949219 "/>
<path style=" stroke:none;fill-rule:nonzero;fill:rgb(30.196078%,30.196078%,30.196078%);fill-opacity:1;" d="M 7.859375 2.78125 C 7.75 2.78125 7.640625 2.789062 7.53125 2.800781 C 5.8125 2.992188 4.5625 4.410156 4.679688 5.992188 L 4.277344 6.039062 L 4.507812 8.117188 L 5.847656 7.96875 L 5.617188 5.890625 L 5.121094 5.945312 C 5.03125 4.585938 6.105469 3.375 7.578125 3.214844 C 9.050781 3.050781 10.371094 3.996094 10.578125 5.335938 L 10.140625 5.386719 L 10.371094 7.46875 L 11.664062 7.324219 L 11.4375 5.242188 L 11.019531 5.289062 C 10.800781 3.820312 9.4375 2.753906 7.859375 2.78125 Z M 7.859375 2.78125 "/>
<path style=" stroke:none;fill-rule:nonzero;fill:rgb(94.901961%,94.901961%,94.901961%);fill-opacity:1;" d="M 7.660156 3.910156 C 7.476562 3.917969 7.316406 4.015625 7.191406 4.160156 C 7.066406 4.300781 6.96875 4.496094 6.882812 4.71875 C 6.714844 5.167969 6.613281 6.125 6.554688 6.730469 C 6.5 7.335938 6.488281 7.585938 6.515625 8.109375 C 6.542969 8.628906 6.59375 9.035156 6.699219 9.265625 C 6.792969 9.460938 6.902344 9.6875 6.949219 9.890625 C 6.996094 10.097656 6.984375 10.261719 6.867188 10.390625 C 6.746094 10.523438 6.480469 10.640625 5.96875 10.671875 C 5.457031 10.699219 4.710938 10.488281 3.652344 10.289062 C 3.480469 10.257812 3.339844 10.253906 3.214844 10.296875 C 3.089844 10.335938 2.992188 10.429688 2.933594 10.542969 C 2.816406 10.773438 2.804688 11.613281 2.789062 12.050781 C 2.78125 12.191406 2.835938 12.328125 2.925781 12.4375 C 3.015625 12.546875 3.144531 12.640625 3.304688 12.71875 C 3.621094 12.875 4.0625 12.992188 4.617188 13.070312 C 5.71875 13.234375 7.25 13.261719 8.988281 13.160156 L 8.992188 13.160156 C 9.632812 13.105469 10.644531 13.070312 11.515625 12.847656 C 11.953125 12.734375 12.359375 12.578125 12.664062 12.339844 C 12.972656 12.101562 13.183594 11.769531 13.203125 11.347656 C 13.222656 10.953125 13.203125 10.355469 13.125 10.167969 C 13.046875 9.976562 12.875 9.875 12.703125 9.875 C 12.355469 9.863281 11.945312 10.054688 11.414062 10.179688 C 10.800781 10.324219 10.371094 10.261719 10.078125 10.242188 C 9.785156 10.21875 9.640625 10.242188 9.546875 10.125 C 9.457031 10.011719 9.417969 9.835938 9.398438 9.617188 C 9.378906 9.398438 9.382812 9.140625 9.351562 8.867188 C 9.296875 8.34375 9.191406 7.488281 8.957031 6.390625 C 8.839844 5.84375 8.6875 4.957031 8.484375 4.570312 C 8.386719 4.375 8.273438 4.210938 8.136719 4.09375 C 8 3.976562 7.835938 3.90625 7.660156 3.910156 Z M 7.660156 3.910156 "/>
<path style=" stroke:none;fill-rule:nonzero;fill:rgb(100%,100%,100%);fill-opacity:1;" d="M 7.25 6.945312 C 7.21875 7.75 6.972656 8.484375 6.609375 8.875 C 6.246094 9.257812 5.816406 9.238281 5.488281 8.816406 C 5.160156 8.394531 4.984375 7.636719 5.027344 6.832031 C 5.058594 6.03125 5.304688 5.292969 5.667969 4.90625 C 6.03125 4.519531 6.460938 4.542969 6.789062 4.964844 C 7.113281 5.386719 7.292969 6.140625 7.25 6.945312 Z M 7.25 6.945312 "/>
<path style=" stroke:none;fill-rule:nonzero;fill:rgb(30.196078%,30.196078%,30.196078%);fill-opacity:1;" d="M 6.878906 7.28125 C 6.851562 7.691406 6.578125 8.015625 6.269531 8.007812 C 5.964844 7.996094 5.738281 7.65625 5.769531 7.246094 C 5.796875 6.832031 6.070312 6.507812 6.378906 6.515625 C 6.683594 6.527344 6.910156 6.867188 6.878906 7.28125 Z M 6.878906 7.28125 "/>
<path style=" stroke:none;fill-rule:nonzero;fill:rgb(100%,100%,100%);fill-opacity:1;" d="M 10.582031 6.773438 C 10.71875 8.003906 10.253906 9.054688 9.546875 9.117188 C 8.84375 9.183594 8.160156 8.238281 8.023438 7.007812 C 7.886719 5.777344 8.351562 4.722656 9.058594 4.660156 C 9.765625 4.59375 10.445312 5.539062 10.582031 6.773438 Z M 10.582031 6.773438 "/>
<path style=" stroke:none;fill-rule:nonzero;fill:rgb(30.196078%,30.196078%,30.196078%);fill-opacity:1;" d="M 9.84375 7.3125 C 9.757812 7.722656 9.453125 8.03125 9.15625 8 C 8.859375 7.972656 8.683594 7.621094 8.765625 7.210938 C 8.816406 6.945312 8.96875 6.707031 9.160156 6.589844 C 9.355469 6.472656 9.558594 6.492188 9.699219 6.640625 C 9.84375 6.792969 9.894531 7.046875 9.84375 7.3125 Z M 9.84375 7.3125 "/>
</g>
</svg>
