<?xml version="1.0" encoding="UTF-8"?>
<svg xmlns="http://www.w3.org/2000/svg" xmlns:xlink="http://www.w3.org/1999/xlink" width="16pt" height="16pt" viewBox="0 0 16 16" version="1.1">
<g id="surface1">
<path style=" stroke:none;fill-rule:evenodd;fill:rgb(67.45098%,54.117647%,47.058824%);fill-opacity:1;" d="M 3.734375 0.949219 L 12.265625 0.949219 C 13.800781 0.949219 15.050781 2.199219 15.050781 3.734375 L 15.050781 12.265625 C 15.050781 13.800781 13.800781 15.050781 12.265625 15.050781 L 3.734375 15.050781 C 2.199219 15.050781 0.949219 13.800781 0.949219 12.265625 L 0.949219 3.734375 C 0.949219 2.199219 2.199219 0.949219 3.734375 0.949219 Z M 3.734375 0.949219 "/>
<path style="fill:none;stroke-width:1;stroke-linecap:butt;stroke-linejoin:miter;stroke:rgb(28.627451%,28.627451%,28.627451%);stroke-opacity:1;stroke-miterlimit:4;" d="M 10.5 15 L 10.5 9.5 L 22.5 9.5 L 22.5 15 " transform="matrix(0.5,0,0,0.5,-0.25,0.25)"/>
<path style="fill:none;stroke-width:1;stroke-linecap:butt;stroke-linejoin:miter;stroke:rgb(28.627451%,28.627451%,28.627451%);stroke-opacity:1;stroke-miterlimit:4;" d="M 13.5 22 L 13.5 15.5 L 25.5 15.5 L 25.5 22 " transform="matrix(0.5,0,0,0.5,-0.25,0.25)"/>
<path style="fill:none;stroke-width:1;stroke-linecap:butt;stroke-linejoin:miter;stroke:rgb(28.627451%,28.627451%,28.627451%);stroke-opacity:1;stroke-miterlimit:4;" d="M 7.5 22 L 7.5 15.5 L 19.5 15.5 L 19.5 22 " transform="matrix(0.5,0,0,0.5,-0.25,0.25)"/>
<path style=" stroke:none;fill-rule:nonzero;fill:rgb(100%,100%,100%);fill-opacity:1;" d="M 2.75 10.25 L 4.25 10.25 L 4.25 12.25 L 2.75 12.25 Z M 2.75 10.25 "/>
<path style=" stroke:none;fill-rule:nonzero;fill:rgb(100%,100%,100%);fill-opacity:1;" d="M 5.75 10.25 L 7.25 10.25 L 7.25 12.25 L 5.75 12.25 Z M 5.75 10.25 "/>
<path style=" stroke:none;fill-rule:nonzero;fill:rgb(100%,100%,100%);fill-opacity:1;" d="M 8.75 10.25 L 10.25 10.25 L 10.25 12.25 L 8.75 12.25 Z M 8.75 10.25 "/>
<path style=" stroke:none;fill-rule:nonzero;fill:rgb(100%,100%,100%);fill-opacity:1;" d="M 7.25 3.75 L 8.75 3.75 L 8.75 5.75 L 7.25 5.75 Z M 7.25 3.75 "/>
<path style=" stroke:none;fill-rule:nonzero;fill:rgb(100%,100%,100%);fill-opacity:1;" d="M 4.25 6.75 L 5.75 6.75 L 5.75 8.75 L 4.25 8.75 Z M 4.25 6.75 "/>
<path style=" stroke:none;fill-rule:nonzero;fill:rgb(100%,100%,100%);fill-opacity:1;" d="M 10.25 6.75 L 11.75 6.75 L 11.75 8.75 L 10.25 8.75 Z M 10.25 6.75 "/>
<path style=" stroke:none;fill-rule:nonzero;fill:rgb(100%,100%,100%);fill-opacity:1;" d="M 11.75 10.25 L 13.25 10.25 L 13.25 12.25 L 11.75 12.25 Z M 11.75 10.25 "/>
</g>
</svg>
