<?xml version="1.0" encoding="UTF-8"?>
<svg xmlns="http://www.w3.org/2000/svg" xmlns:xlink="http://www.w3.org/1999/xlink" width="16pt" height="16pt" viewBox="0 0 16 16" version="1.1">
<g id="surface1">
<path style=" stroke:none;fill-rule:evenodd;fill:rgb(45.490196%,81.960784%,34.901961%);fill-opacity:1;" d="M 3.734375 0.949219 L 12.265625 0.949219 C 13.800781 0.949219 15.050781 2.199219 15.050781 3.734375 L 15.050781 12.265625 C 15.050781 13.800781 13.800781 15.050781 12.265625 15.050781 L 3.734375 15.050781 C 2.199219 15.050781 0.949219 13.800781 0.949219 12.265625 L 0.949219 3.734375 C 0.949219 2.199219 2.199219 0.949219 3.734375 0.949219 Z M 3.734375 0.949219 "/>
<path style=" stroke:none;fill-rule:nonzero;fill:rgb(100%,100%,100%);fill-opacity:1;" d="M 4.015625 3.027344 L 4.015625 3.527344 L 3.765625 3.527344 C 3.351562 3.527344 3.015625 3.859375 3.015625 4.277344 C 3.015625 4.691406 3.351562 5.027344 3.765625 5.027344 L 4.015625 5.027344 L 4.015625 5.527344 L 3.0625 5.527344 C 3.167969 5.816406 3.4375 6.027344 3.765625 6.027344 L 4.015625 6.027344 L 4.015625 6.527344 L 4.515625 6.527344 L 4.515625 6.027344 L 4.765625 6.027344 C 5.183594 6.027344 5.515625 5.691406 5.515625 5.277344 C 5.515625 4.859375 5.183594 4.527344 4.765625 4.527344 L 4.515625 4.527344 L 4.515625 4.027344 L 5.46875 4.027344 C 5.367188 3.734375 5.09375 3.527344 4.765625 3.527344 L 4.515625 3.527344 L 4.515625 3.027344 Z M 3.765625 4.027344 L 4.015625 4.027344 L 4.015625 4.527344 L 3.765625 4.527344 C 3.628906 4.527344 3.515625 4.414062 3.515625 4.277344 C 3.515625 4.136719 3.628906 4.027344 3.765625 4.027344 Z M 4.515625 5.027344 L 4.765625 5.027344 C 4.90625 5.027344 5.015625 5.136719 5.015625 5.277344 C 5.015625 5.414062 4.90625 5.53125 4.765625 5.527344 L 4.515625 5.527344 Z M 6.515625 6.027344 L 6.515625 6.527344 L 9.515625 6.527344 L 9.515625 6.027344 Z M 6.515625 6.027344 "/>
</g>
</svg>
