<?xml version="1.0" encoding="UTF-8"?>
<svg xmlns="http://www.w3.org/2000/svg" xmlns:xlink="http://www.w3.org/1999/xlink" width="16pt" height="16pt" viewBox="0 0 16 16" version="1.1">
<g id="surface1">
<path style=" stroke:none;fill-rule:evenodd;fill:rgb(48.627451%,69.411765%,30.980392%);fill-opacity:1;" d="M 3.734375 0.949219 L 12.265625 0.949219 C 13.800781 0.949219 15.050781 2.199219 15.050781 3.734375 L 15.050781 12.265625 C 15.050781 13.800781 13.800781 15.050781 12.265625 15.050781 L 3.734375 15.050781 C 2.199219 15.050781 0.949219 13.800781 0.949219 12.265625 L 0.949219 3.734375 C 0.949219 2.199219 2.199219 0.949219 3.734375 0.949219 Z M 3.734375 0.949219 "/>
<path style=" stroke:none;fill-rule:nonzero;fill:rgb(18.039216%,18.039216%,18.039216%);fill-opacity:1;" d="M 11.5 6 C 11.117188 4.789062 9.8125 4.507812 8.757812 4.5 C 7.832031 4.5 7.148438 4.847656 6.714844 5.457031 C 6.28125 6.066406 6 6.6875 6 8.003906 C 6 9.304688 6.273438 9.964844 6.6875 10.578125 C 7.105469 11.191406 7.953125 11.492188 8.632812 11.496094 C 9.234375 11.5 9.902344 11.242188 10.5 11 L 10.5 9.039062 L 9.5 9.039062 L 9.5 8.5 L 12.5 8.5 L 12.5 11.5 C 11.1875 12.199219 9.808594 12.496094 8.433594 12.5 C 6.898438 12.5 5.691406 12.097656 4.8125 11.296875 C 3.9375 10.496094 3.5 9.398438 3.5 8.003906 C 3.5 6.605469 3.9375 5.503906 4.8125 4.703125 C 5.691406 3.902344 6.898438 3.5 8.433594 3.5 C 9.746094 3.542969 10.882812 3.808594 12 4.25 L 12 6 Z M 11.5 6 "/>
</g>
</svg>
