<?xml version="1.0" encoding="UTF-8"?>
<svg xmlns="http://www.w3.org/2000/svg" xmlns:xlink="http://www.w3.org/1999/xlink" width="16pt" height="16pt" viewBox="0 0 16 16" version="1.1">
<g id="surface1">
<path style=" stroke:none;fill-rule:evenodd;fill:rgb(11.372549%,23.137255%,52.156863%);fill-opacity:1;" d="M 3.734375 0.949219 L 12.265625 0.949219 C 13.800781 0.949219 15.050781 2.199219 15.050781 3.734375 L 15.050781 12.265625 C 15.050781 13.800781 13.800781 15.050781 12.265625 15.050781 L 3.734375 15.050781 C 2.199219 15.050781 0.949219 13.800781 0.949219 12.265625 L 0.949219 3.734375 C 0.949219 2.199219 2.199219 0.949219 3.734375 0.949219 Z M 3.734375 0.949219 "/>
<path style=" stroke:none;fill-rule:nonzero;fill:rgb(68.627451%,68.627451%,68.627451%);fill-opacity:1;" d="M 4.761719 4.960938 C 2.164062 5.070312 2.238281 10.96875 4.761719 11.03125 L 13.191406 11.03125 L 13.191406 9.351562 L 10.21875 9.351562 L 13.167969 6.96875 L 13.167969 4.984375 Z M 10.359375 6.820312 L 8.460938 8.414062 L 8.460938 7.644531 L 6.605469 7.644531 L 6.605469 9.441406 L 5.164062 9.441406 C 4.871094 9.644531 4.664062 6.898438 5.164062 6.84375 Z M 10.359375 6.820312 "/>
<path style=" stroke:none;fill-rule:nonzero;fill:rgb(7.058824%,13.333333%,27.45098%);fill-opacity:1;" d="M 4.742188 4.84375 L 4.738281 4.84375 C 4.042969 4.871094 3.519531 5.296875 3.1875 5.890625 C 2.855469 6.484375 2.699219 7.253906 2.703125 8.019531 C 2.707031 8.785156 2.875 9.550781 3.207031 10.140625 C 3.542969 10.726562 4.0625 11.140625 4.742188 11.15625 L 13.296875 11.15625 L 13.296875 9.234375 L 10.546875 9.234375 L 13.273438 7.03125 L 13.273438 4.867188 Z M 4.75 5.089844 L 13.027344 5.109375 L 13.027344 6.914062 L 9.851562 9.480469 L 13.050781 9.480469 L 13.050781 10.910156 L 4.746094 10.910156 C 4.164062 10.898438 3.730469 10.554688 3.421875 10.015625 C 3.113281 9.476562 2.953125 8.75 2.949219 8.019531 C 2.941406 7.289062 3.097656 6.558594 3.402344 6.011719 C 3.707031 5.46875 4.144531 5.113281 4.75 5.089844 Z M 10.683594 6.699219 L 10.34375 6.703125 L 5.140625 6.726562 L 5.132812 6.726562 C 5.015625 6.738281 4.933594 6.828125 4.882812 6.925781 C 4.832031 7.027344 4.796875 7.144531 4.773438 7.285156 C 4.726562 7.5625 4.714844 7.910156 4.726562 8.25 C 4.738281 8.589844 4.777344 8.921875 4.832031 9.160156 C 4.859375 9.28125 4.890625 9.378906 4.9375 9.457031 C 4.960938 9.496094 4.984375 9.535156 5.039062 9.5625 C 5.070312 9.578125 5.109375 9.578125 5.152344 9.570312 L 6.710938 9.570312 L 6.710938 7.773438 L 8.320312 7.773438 L 8.320312 8.683594 Z M 10.003906 6.949219 L 8.566406 8.15625 L 8.566406 7.527344 L 6.464844 7.527344 L 6.464844 9.324219 L 5.144531 9.324219 C 5.125 9.285156 5.097656 9.210938 5.074219 9.105469 C 5.023438 8.890625 4.984375 8.566406 4.972656 8.238281 C 4.960938 7.910156 4.972656 7.574219 5.015625 7.328125 C 5.039062 7.203125 5.070312 7.101562 5.101562 7.042969 C 5.132812 6.980469 5.15625 6.972656 5.160156 6.972656 Z M 10.003906 6.949219 "/>
</g>
</svg>
