<?xml version="1.0" encoding="UTF-8"?>
<svg xmlns="http://www.w3.org/2000/svg" xmlns:xlink="http://www.w3.org/1999/xlink" width="16pt" height="16pt" viewBox="0 0 16 16" version="1.1">
<g id="surface1">
<path style=" stroke:none;fill-rule:evenodd;fill:rgb(95.294118%,48.235294%,12.941176%);fill-opacity:1;" d="M 3.734375 0.949219 L 12.265625 0.949219 C 13.800781 0.949219 15.050781 2.199219 15.050781 3.734375 L 15.050781 12.265625 C 15.050781 13.800781 13.800781 15.050781 12.265625 15.050781 L 3.734375 15.050781 C 2.199219 15.050781 0.949219 13.800781 0.949219 12.265625 L 0.949219 3.734375 C 0.949219 2.199219 2.199219 0.949219 3.734375 0.949219 Z M 3.734375 0.949219 "/>
<path style=" stroke:none;fill-rule:nonzero;fill:rgb(100%,100%,100%);fill-opacity:1;" d="M 8 3 C 5.238281 3 3 5.238281 3 8 C 3 10.761719 5.238281 13 8 13 C 10.761719 13 13 10.761719 13 8 C 13 5.238281 10.761719 3 8 3 Z M 5.996094 4.472656 L 7.910156 4.472656 L 10.109375 10.066406 L 11.078125 9.75 L 11.398438 10.835938 L 9.3125 11.4375 L 7.910156 7.878906 L 5.851562 11.125 L 4.5625 11.125 L 7.4375 6.484375 L 7.113281 5.566406 L 5.996094 5.566406 Z M 5.996094 4.472656 "/>
<path style=" stroke:none;fill-rule:nonzero;fill:rgb(100%,100%,100%);fill-opacity:1;" d="M 14.683594 11.5 C 14.683594 13.15625 13.339844 14.5 11.683594 14.5 C 10.027344 14.5 8.683594 13.15625 8.683594 11.5 C 8.683594 9.84375 10.027344 8.5 11.683594 8.5 C 13.339844 8.5 14.683594 9.84375 14.683594 11.5 Z M 14.683594 11.5 "/>
<path style=" stroke:none;fill-rule:nonzero;fill:rgb(95.294118%,48.235294%,12.941176%);fill-opacity:1;" d="M 12.789062 12.90625 L 10.921875 12.90625 L 10.921875 12.523438 L 11.574219 11.867188 C 11.65625 11.785156 11.734375 11.710938 11.796875 11.640625 C 11.867188 11.570312 11.921875 11.5 11.972656 11.4375 C 12.019531 11.371094 12.058594 11.300781 12.085938 11.234375 C 12.109375 11.167969 12.125 11.09375 12.125 11.015625 C 12.125 10.925781 12.097656 10.859375 12.039062 10.808594 C 11.984375 10.761719 11.90625 10.738281 11.8125 10.738281 C 11.710938 10.738281 11.617188 10.761719 11.523438 10.804688 C 11.429688 10.851562 11.332031 10.917969 11.234375 11 L 10.914062 10.652344 C 10.96875 10.601562 11.03125 10.554688 11.09375 10.511719 C 11.15625 10.46875 11.222656 10.429688 11.296875 10.394531 C 11.371094 10.359375 11.453125 10.332031 11.546875 10.3125 C 11.636719 10.292969 11.734375 10.28125 11.847656 10.28125 C 11.980469 10.28125 12.101562 10.296875 12.203125 10.332031 C 12.3125 10.367188 12.402344 10.414062 12.476562 10.480469 C 12.550781 10.542969 12.609375 10.617188 12.648438 10.707031 C 12.6875 10.796875 12.710938 10.898438 12.710938 11.011719 C 12.710938 11.109375 12.691406 11.207031 12.652344 11.300781 C 12.613281 11.394531 12.5625 11.484375 12.496094 11.574219 C 12.429688 11.664062 12.355469 11.75 12.265625 11.839844 C 12.179688 11.925781 12.085938 12.015625 11.988281 12.109375 L 11.652344 12.421875 L 11.652344 12.445312 L 12.789062 12.445312 Z M 12.789062 12.90625 "/>
</g>
</svg>
