<?xml version="1.0" encoding="UTF-8"?>
<svg xmlns="http://www.w3.org/2000/svg" xmlns:xlink="http://www.w3.org/1999/xlink" width="16pt" height="16pt" viewBox="0 0 16 16" version="1.1">
<g id="surface1">
<path style=" stroke:none;fill-rule:evenodd;fill:rgb(71.764706%,71.764706%,71.764706%);fill-opacity:1;" d="M 3.457031 14.996094 L 3.457031 3.816406 L 0.949219 3.816406 L 0.949219 12.265625 C 0.949219 13.710938 2.050781 14.851562 3.457031 14.996094 Z M 3.457031 14.996094 "/>
<path style=" stroke:none;fill-rule:evenodd;fill:rgb(25.490196%,61.568627%,27.058824%);fill-opacity:1;" d="M 3.734375 0.949219 C 2.191406 0.949219 0.949219 2.191406 0.949219 3.738281 L 0.949219 3.816406 L 3.457031 3.816406 L 3.457031 14.996094 C 3.554688 15.003906 3.636719 15.050781 3.734375 15.050781 L 12.261719 15.050781 C 13.808594 15.050781 15.050781 13.808594 15.050781 12.265625 L 15.050781 3.738281 C 15.050781 2.191406 13.808594 0.949219 12.261719 0.949219 Z M 3.734375 0.949219 "/>
<path style=" stroke:none;fill-rule:nonzero;fill:rgb(97.254902%,76.862745%,30.588235%);fill-opacity:1;" d="M 5.808594 12.667969 L 7 12.667969 L 7 15.050781 L 5.808594 15.050781 Z M 5.808594 12.667969 "/>
<path style=" stroke:none;fill-rule:nonzero;fill:rgb(97.254902%,76.862745%,30.588235%);fill-opacity:1;" d="M 7.59375 12.667969 L 8.785156 12.667969 L 8.785156 15.050781 L 7.59375 15.050781 Z M 7.59375 12.667969 "/>
<path style=" stroke:none;fill-rule:nonzero;fill:rgb(97.254902%,76.862745%,30.588235%);fill-opacity:1;" d="M 9.382812 12.667969 L 10.574219 12.667969 L 10.574219 15.050781 L 9.382812 15.050781 Z M 9.382812 12.667969 "/>
<path style=" stroke:none;fill-rule:nonzero;fill:rgb(97.254902%,76.862745%,30.588235%);fill-opacity:1;" d="M 11.171875 12.667969 L 12.363281 12.667969 L 12.363281 15.050781 L 11.171875 15.050781 Z M 11.171875 12.667969 "/>
<path style=" stroke:none;fill-rule:nonzero;fill:rgb(71.764706%,71.764706%,71.764706%);fill-opacity:1;" d="M 7.6875 5.019531 L 8.285156 5.019531 L 8.285156 6.210938 L 7.6875 6.210938 Z M 7.6875 5.019531 "/>
<path style=" stroke:none;fill-rule:nonzero;fill:rgb(71.764706%,71.764706%,71.764706%);fill-opacity:1;" d="M 9.476562 5.019531 L 10.074219 5.019531 L 10.074219 6.210938 L 9.476562 6.210938 Z M 9.476562 5.019531 "/>
<path style=" stroke:none;fill-rule:nonzero;fill:rgb(71.764706%,71.764706%,71.764706%);fill-opacity:1;" d="M 7.6875 9.789062 L 8.285156 9.789062 L 8.285156 10.980469 L 7.6875 10.980469 Z M 7.6875 9.789062 "/>
<path style=" stroke:none;fill-rule:nonzero;fill:rgb(71.764706%,71.764706%,71.764706%);fill-opacity:1;" d="M 9.476562 9.789062 L 10.074219 9.789062 L 10.074219 10.980469 L 9.476562 10.980469 Z M 9.476562 9.789062 "/>
<path style=" stroke:none;fill-rule:nonzero;fill:rgb(71.764706%,71.764706%,71.764706%);fill-opacity:1;" d="M 11.859375 6.808594 L 11.859375 7.40625 L 10.667969 7.40625 L 10.667969 6.808594 Z M 11.859375 6.808594 "/>
<path style=" stroke:none;fill-rule:nonzero;fill:rgb(71.764706%,71.764706%,71.764706%);fill-opacity:1;" d="M 11.859375 8.59375 L 11.859375 9.191406 L 10.667969 9.191406 L 10.667969 8.59375 Z M 11.859375 8.59375 "/>
<path style=" stroke:none;fill-rule:nonzero;fill:rgb(71.764706%,71.764706%,71.764706%);fill-opacity:1;" d="M 7.09375 6.808594 L 7.09375 7.40625 L 5.902344 7.40625 L 5.902344 6.808594 Z M 7.09375 6.808594 "/>
<path style=" stroke:none;fill-rule:nonzero;fill:rgb(71.764706%,71.764706%,71.764706%);fill-opacity:1;" d="M 7.09375 8.59375 L 7.09375 9.191406 L 5.902344 9.191406 L 5.902344 8.59375 Z M 7.09375 8.59375 "/>
<path style=" stroke:none;fill-rule:nonzero;fill:rgb(30.588235%,30.588235%,30.588235%);fill-opacity:1;" d="M 7.808594 6.210938 L 9.953125 6.210938 C 10.347656 6.210938 10.667969 6.53125 10.667969 6.925781 L 10.667969 9.074219 C 10.667969 9.46875 10.347656 9.789062 9.953125 9.789062 L 7.808594 9.789062 C 7.414062 9.789062 7.09375 9.46875 7.09375 9.074219 L 7.09375 6.925781 C 7.09375 6.53125 7.414062 6.210938 7.808594 6.210938 Z M 7.808594 6.210938 "/>
</g>
</svg>
