<?xml version="1.0" encoding="UTF-8"?>
<svg xmlns="http://www.w3.org/2000/svg" xmlns:xlink="http://www.w3.org/1999/xlink" width="16pt" height="16pt" viewBox="0 0 16 16" version="1.1">
<g id="surface1">
<path style=" stroke:none;fill-rule:evenodd;fill:rgb(100%,42.352941%,53.72549%);fill-opacity:1;" d="M 3.734375 0.949219 L 12.265625 0.949219 C 13.800781 0.949219 15.050781 2.199219 15.050781 3.734375 L 15.050781 12.265625 C 15.050781 13.800781 13.800781 15.050781 12.265625 15.050781 L 3.734375 15.050781 C 2.199219 15.050781 0.949219 13.800781 0.949219 12.265625 L 0.949219 3.734375 C 0.949219 2.199219 2.199219 0.949219 3.734375 0.949219 Z M 3.734375 0.949219 "/>
<path style=" stroke:none;fill-rule:nonzero;fill:rgb(100%,100%,100%);fill-opacity:1;" d="M 4.503906 12.070312 C 4.53125 11.808594 4.6875 11.246094 5.074219 10.007812 C 5.726562 7.914062 6.140625 5.535156 5.964844 4.84375 C 5.921875 4.671875 5.917969 4.582031 5.949219 4.542969 C 6.046875 4.417969 6.445312 4.285156 6.773438 4.265625 C 7.449219 4.25 7.414062 4.5 7.390625 5.046875 C 7.375 5.53125 7.242188 6.449219 7.125 7.066406 C 7.085938 7.257812 7.066406 7.441406 7.078125 7.476562 C 7.097656 7.53125 7.28125 7.539062 8.144531 7.539062 C 8.71875 7.539062 9.207031 7.523438 9.238281 7.503906 C 9.324219 7.449219 9.375 7.253906 9.746094 5.570312 C 9.945312 4.667969 10.140625 3.871094 10.183594 3.796875 C 10.277344 3.632812 10.511719 3.5 10.710938 3.5 C 10.917969 3.5 11.277344 3.613281 11.402344 3.71875 L 11.5 3.800781 L 11.40625 4.082031 C 11.1875 4.730469 10.582031 7.613281 10.34375 9.136719 C 10.28125 9.539062 10.195312 10.0625 10.148438 10.300781 C 10.046875 10.8125 10.046875 11.007812 10.136719 11.246094 C 10.277344 11.621094 10.269531 11.65625 10.042969 11.761719 C 9.925781 11.8125 9.667969 11.886719 9.464844 11.921875 C 8.773438 12.042969 8.5625 11.890625 8.5625 11.265625 C 8.5625 10.84375 8.601562 10.621094 8.867188 9.519531 C 8.984375 9.035156 9.078125 8.601562 9.078125 8.554688 C 9.078125 8.472656 9.058594 8.46875 8.78125 8.496094 C 8.617188 8.515625 8.117188 8.53125 7.671875 8.53125 C 7.222656 8.535156 6.84375 8.550781 6.828125 8.566406 C 6.8125 8.585938 6.722656 8.933594 6.628906 9.34375 C 6.539062 9.753906 6.371094 10.429688 6.261719 10.847656 C 6.152344 11.261719 6.050781 11.722656 6.042969 11.875 C 6.03125 12.054688 6 12.171875 5.953125 12.214844 C 5.847656 12.3125 5.332031 12.464844 5.007812 12.492188 C 4.613281 12.535156 4.472656 12.359375 4.503906 12.070312 Z M 4.503906 12.070312 "/>
</g>
</svg>
