<?xml version="1.0" encoding="UTF-8"?>
<svg xmlns="http://www.w3.org/2000/svg" xmlns:xlink="http://www.w3.org/1999/xlink" width="16pt" height="16pt" viewBox="0 0 16 16" version="1.1">
<g id="surface1">
<path style=" stroke:none;fill-rule:evenodd;fill:rgb(60%,60%,60%);fill-opacity:1;" d="M 3.734375 0.949219 L 12.265625 0.949219 C 13.800781 0.949219 15.050781 2.199219 15.050781 3.734375 L 15.050781 12.265625 C 15.050781 13.800781 13.800781 15.050781 12.265625 15.050781 L 3.734375 15.050781 C 2.199219 15.050781 0.949219 13.800781 0.949219 12.265625 L 0.949219 3.734375 C 0.949219 2.199219 2.199219 0.949219 3.734375 0.949219 Z M 3.734375 0.949219 "/>
<path style=" stroke:none;fill-rule:nonzero;fill:rgb(14.117647%,54.117647%,99.215686%);fill-opacity:1;" d="M 6.039062 13.253906 C 5.96875 13.148438 5.839844 12.917969 5.75 12.742188 C 5.5625 12.363281 5.488281 12.351562 5.085938 12.636719 C 4.578125 12.992188 4.386719 12.890625 4.539062 12.359375 C 4.589844 12.1875 4.601562 12.011719 4.5625 11.976562 C 4.527344 11.941406 4.292969 11.984375 4.042969 12.074219 C 3.472656 12.28125 3.300781 12.207031 3.5 11.84375 C 3.578125 11.703125 3.617188 11.566406 3.589844 11.539062 C 3.5625 11.515625 3.375 11.546875 3.175781 11.613281 C 2.488281 11.847656 2.394531 11.726562 2.832031 11.175781 C 2.980469 10.988281 3.101562 10.765625 3.105469 10.679688 C 3.105469 10.59375 3.226562 10.386719 3.375 10.226562 C 3.714844 9.859375 4.097656 9.152344 4.09375 8.894531 C 3.226562 7.628906 3.617188 7.039062 4.183594 5.953125 C 4.332031 5.640625 4.53125 5.023438 4.714844 4.859375 C 5.484375 3.859375 6.988281 3.890625 7.796875 4.84375 C 8.042969 5 8.46875 5.867188 8.546875 6.179688 C 9.546875 7.378906 8.328125 8.300781 8.464844 8.945312 C 8.535156 9.277344 8.878906 9.855469 9.230469 10.234375 C 9.375 10.390625 9.496094 10.609375 9.496094 10.714844 C 9.496094 10.820312 9.59375 11.035156 9.71875 11.1875 C 10.09375 11.65625 9.988281 11.804688 9.421875 11.613281 C 8.984375 11.46875 8.921875 11.511719 9.097656 11.835938 C 9.21875 12.058594 9.21875 12.085938 9.082031 12.136719 C 9 12.167969 8.738281 12.132812 8.5 12.058594 C 8.261719 11.984375 8.046875 11.945312 8.019531 11.96875 C 7.996094 11.992188 8 12.199219 8.027344 12.429688 C 8.074219 12.796875 8.058594 12.847656 7.917969 12.847656 C 7.828125 12.847656 7.625 12.753906 7.460938 12.636719 C 7.300781 12.515625 7.125 12.421875 7.074219 12.421875 C 7.019531 12.421875 6.855469 12.652344 6.703125 12.933594 C 6.414062 13.484375 6.25 13.5625 6.039062 13.253906 Z M 6.039062 13.253906 "/>
<path style=" stroke:none;fill-rule:nonzero;fill:rgb(81.960784%,61.960784%,0.392157%);fill-opacity:1;" d="M 4.507812 3.347656 C 4.507812 3.347656 4.769531 4.921875 6.265625 5.28125 C 6.265625 5.28125 6.390625 4.1875 5.972656 3.804688 C 5.554688 3.425781 4.507812 3.347656 4.507812 3.347656 Z M 4.507812 3.347656 "/>
<path style=" stroke:none;fill-rule:nonzero;fill:rgb(81.960784%,61.960784%,0.392157%);fill-opacity:1;" d="M 8 3.316406 C 8 3.316406 7.765625 4.871094 6.265625 5.28125 C 6.265625 5.28125 6.128906 4.1875 6.542969 3.800781 C 6.953125 3.414062 8 3.316406 8 3.316406 Z M 8 3.316406 "/>
<path style=" stroke:none;fill-rule:nonzero;fill:rgb(99.607843%,80.392157%,21.960784%);fill-opacity:1;" d="M 6.273438 2.566406 C 6.273438 2.566406 4.773438 3.960938 6.265625 5.28125 C 7.6875 3.90625 6.273438 2.566406 6.273438 2.566406 Z M 6.273438 2.566406 "/>
<path style=" stroke:none;fill-rule:nonzero;fill:rgb(99.607843%,80.392157%,21.960784%);fill-opacity:1;" d="M 5.476562 7.125 C 5.476562 7.824219 4.914062 8.390625 4.214844 8.390625 C 3.519531 8.390625 2.953125 7.824219 2.953125 7.125 C 2.953125 6.429688 3.519531 5.863281 4.214844 5.863281 C 4.914062 5.863281 5.476562 6.429688 5.476562 7.125 Z M 5.476562 7.125 "/>
<path style=" stroke:none;fill-rule:nonzero;fill:rgb(32.54902%,32.54902%,32.54902%);fill-opacity:1;" d="M 4.214844 6.351562 C 3.785156 6.351562 3.4375 6.699219 3.4375 7.125 C 3.4375 7.554688 3.785156 7.902344 4.214844 7.902344 C 4.644531 7.902344 4.992188 7.554688 4.992188 7.125 C 4.992188 6.699219 4.644531 6.351562 4.214844 6.351562 Z M 4.214844 6.867188 C 4.359375 6.867188 4.472656 6.984375 4.472656 7.125 C 4.472656 7.269531 4.359375 7.386719 4.214844 7.386719 C 4.074219 7.386719 3.957031 7.269531 3.957031 7.125 C 3.957031 6.984375 4.074219 6.867188 4.214844 6.867188 Z M 4.214844 6.867188 "/>
<path style=" stroke:none;fill-rule:nonzero;fill:rgb(99.607843%,80.392157%,21.960784%);fill-opacity:1;" d="M 9.746094 7.125 C 9.746094 7.824219 9.183594 8.390625 8.484375 8.390625 C 7.789062 8.390625 7.222656 7.824219 7.222656 7.125 C 7.222656 6.429688 7.789062 5.863281 8.484375 5.863281 C 9.183594 5.863281 9.746094 6.429688 9.746094 7.125 Z M 9.746094 7.125 "/>
<path style=" stroke:none;fill-rule:nonzero;fill:rgb(32.54902%,32.54902%,32.54902%);fill-opacity:1;" d="M 8.484375 6.351562 C 8.058594 6.351562 7.707031 6.699219 7.707031 7.125 C 7.707031 7.554688 8.054688 7.902344 8.484375 7.902344 C 8.914062 7.902344 9.261719 7.554688 9.261719 7.125 C 9.261719 6.699219 8.914062 6.351562 8.484375 6.351562 Z M 8.484375 6.867188 C 8.628906 6.867188 8.742188 6.984375 8.742188 7.125 C 8.742188 7.269531 8.628906 7.386719 8.484375 7.386719 C 8.34375 7.386719 8.226562 7.269531 8.226562 7.125 C 8.226562 6.984375 8.34375 6.867188 8.484375 6.867188 Z M 8.484375 6.867188 "/>
<path style=" stroke:none;fill-rule:nonzero;fill:rgb(99.607843%,80.392157%,21.960784%);fill-opacity:1;" d="M 4.507812 8.023438 C 4.507812 8.023438 5.132812 7.417969 6.21875 7.417969 C 7.304688 7.417969 8 8.15625 8 8.15625 C 8 8.15625 7.976562 8.582031 7.722656 8.71875 C 7.46875 8.851562 6.773438 8.089844 6.125 8.089844 C 5.480469 8.089844 4.808594 8.625 4.808594 8.625 Z M 4.507812 8.023438 "/>
<path style=" stroke:none;fill-rule:nonzero;fill:rgb(32.54902%,32.54902%,32.54902%);fill-opacity:1;" d="M 6.230469 7.789062 C 5.75 7.785156 5.292969 7.890625 4.941406 8.101562 L 4.558594 8.335938 L 4.902344 8.996094 C 5.125 9.417969 5.410156 9.808594 5.703125 10.089844 C 5.957031 10.328125 6.226562 10.523438 6.304688 10.523438 C 6.542969 10.523438 7.386719 9.609375 7.714844 8.992188 C 7.882812 8.675781 7.984375 8.441406 7.9375 8.46875 C 7.890625 8.496094 7.816406 8.429688 7.777344 8.320312 C 7.726562 8.199219 7.5625 8.074219 7.34375 7.992188 C 6.988281 7.855469 6.605469 7.789062 6.230469 7.789062 Z M 6.230469 7.789062 "/>
<path style=" stroke:none;fill-rule:nonzero;fill:rgb(94.901961%,94.901961%,94.901961%);fill-opacity:1;" d="M 12.167969 6.085938 L 11.40625 6.085938 L 11.203125 6.808594 L 11.964844 6.808594 Z M 11.839844 4.507812 L 11.5625 5.523438 L 12.328125 5.523438 L 12.605469 4.507812 L 13.246094 4.507812 L 12.964844 5.523438 L 13.433594 5.523438 L 13.433594 6.085938 L 12.8125 6.085938 L 12.613281 6.808594 L 13.433594 6.808594 L 13.433594 7.375 L 12.460938 7.375 L 12.183594 8.390625 L 11.546875 8.390625 L 11.824219 7.375 L 11.058594 7.375 L 10.78125 8.390625 L 10.136719 8.390625 L 10.414062 7.375 L 9.941406 7.375 L 9.941406 6.808594 L 10.558594 6.808594 L 10.757812 6.085938 L 9.941406 6.085938 L 9.941406 5.523438 L 10.917969 5.523438 L 11.195312 4.507812 Z M 11.839844 4.507812 "/>
</g>
</svg>
