<?xml version="1.0" encoding="UTF-8"?>
<svg xmlns="http://www.w3.org/2000/svg" xmlns:xlink="http://www.w3.org/1999/xlink" width="16pt" height="16pt" viewBox="0 0 16 16" version="1.1">
<g id="surface1">
<path style=" stroke:none;fill-rule:evenodd;fill:rgb(40%,40%,40%);fill-opacity:1;" d="M 3.734375 0.949219 L 12.265625 0.949219 C 13.800781 0.949219 15.050781 2.199219 15.050781 3.734375 L 15.050781 12.265625 C 15.050781 13.800781 13.800781 15.050781 12.265625 15.050781 L 3.734375 15.050781 C 2.199219 15.050781 0.949219 13.800781 0.949219 12.265625 L 0.949219 3.734375 C 0.949219 2.199219 2.199219 0.949219 3.734375 0.949219 Z M 3.734375 0.949219 "/>
<path style=" stroke:none;fill-rule:nonzero;fill:rgb(80%,80%,80%);fill-opacity:1;" d="M 8.03125 2.898438 C 7.371094 2.894531 6.695312 3.023438 6.042969 3.292969 C 3.4375 4.375 2.207031 7.347656 3.292969 9.957031 C 4.375 12.5625 7.347656 13.792969 9.957031 12.707031 C 12.5625 11.625 13.792969 8.652344 12.707031 6.046875 C 11.894531 4.089844 10.019531 2.90625 8.03125 2.898438 Z M 8 5.085938 C 9.609375 5.085938 10.914062 6.390625 10.914062 8 C 10.914062 9.609375 9.609375 10.914062 8 10.914062 C 6.390625 10.914062 5.085938 9.609375 5.085938 8 C 5.085938 6.390625 6.390625 5.085938 8 5.085938 Z M 8 5.085938 "/>
<path style=" stroke:none;fill-rule:nonzero;fill:rgb(90.588235%,29.803922%,23.529412%);fill-opacity:1;" d="M 8.03125 2.898438 C 7.417969 2.894531 6.792969 3.003906 6.1875 3.238281 L 6.964844 5.277344 C 7.292969 5.148438 7.644531 5.085938 8 5.085938 C 8.355469 5.085938 8.703125 5.152344 9.035156 5.277344 L 9.8125 3.234375 C 9.25 3.019531 8.648438 2.902344 8.03125 2.898438 Z M 3.238281 6.1875 C 3.007812 6.792969 2.894531 7.417969 2.898438 8.03125 C 2.902344 8.644531 3.023438 9.25 3.238281 9.8125 L 5.277344 9.039062 C 5.148438 8.707031 5.085938 8.355469 5.085938 8 C 5.085938 7.644531 5.152344 7.292969 5.28125 6.964844 Z M 12.761719 6.1875 L 10.722656 6.960938 C 10.851562 7.292969 10.914062 7.644531 10.914062 8 C 10.914062 8.355469 10.847656 8.703125 10.722656 9.035156 L 12.761719 9.8125 C 12.976562 9.25 13.097656 8.644531 13.101562 8.03125 C 13.105469 7.417969 12.996094 6.792969 12.761719 6.1875 Z M 6.964844 10.722656 L 6.1875 12.761719 C 6.792969 12.996094 7.417969 13.105469 8.03125 13.101562 C 8.648438 13.097656 9.25 12.980469 9.8125 12.765625 L 9.039062 10.722656 C 8.707031 10.851562 8.355469 10.914062 8 10.914062 C 7.644531 10.914062 7.296875 10.847656 6.964844 10.722656 Z M 6.964844 10.722656 "/>
</g>
</svg>
