<?xml version="1.0" encoding="UTF-8"?>
<svg xmlns="http://www.w3.org/2000/svg" xmlns:xlink="http://www.w3.org/1999/xlink" width="16pt" height="16pt" viewBox="0 0 16 16" version="1.1">
<g id="surface1">
<path style=" stroke:none;fill-rule:evenodd;fill:rgb(80%,80%,80%);fill-opacity:1;" d="M 0.949219 7.582031 C 0.96875 7.660156 1.007812 7.738281 1.082031 7.738281 L 3.90625 7.738281 C 3.996094 7.738281 4.066406 7.65625 4.066406 7.550781 L 4.066406 4.78125 C 4.066406 4.675781 3.996094 4.59375 3.90625 4.59375 L 1.082031 4.59375 C 1.007812 4.59375 0.96875 4.671875 0.949219 4.75 Z M 0.949219 7.582031 "/>
<path style=" stroke:none;fill-rule:evenodd;fill:rgb(80%,80%,80%);fill-opacity:1;" d="M 0.949219 11.25 C 0.96875 11.328125 1.007812 11.40625 1.082031 11.40625 L 3.90625 11.40625 C 3.996094 11.40625 4.066406 11.324219 4.066406 11.21875 L 4.066406 8.449219 C 4.066406 8.34375 3.996094 8.261719 3.90625 8.261719 L 1.082031 8.261719 C 1.007812 8.261719 0.96875 8.339844 0.949219 8.417969 Z M 0.949219 11.25 "/>
<path style=" stroke:none;fill-rule:evenodd;fill:rgb(80%,80%,80%);fill-opacity:1;" d="M 3.929688 15.050781 C 4 15.03125 4.066406 14.980469 4.066406 14.890625 L 4.066406 12.121094 C 4.066406 12.015625 3.996094 11.933594 3.90625 11.933594 L 1.082031 11.933594 C 1.007812 11.933594 0.96875 12.007812 0.949219 12.089844 L 0.949219 12.265625 C 0.949219 13.808594 2.191406 15.050781 3.734375 15.050781 Z M 3.929688 15.050781 "/>
<path style=" stroke:none;fill-rule:evenodd;fill:rgb(80%,80%,80%);fill-opacity:1;" d="M 7.601562 15.050781 C 7.671875 15.03125 7.738281 14.980469 7.738281 14.890625 L 7.738281 12.121094 C 7.738281 12.015625 7.667969 11.933594 7.578125 11.933594 L 4.75 11.933594 C 4.664062 11.933594 4.59375 12.015625 4.59375 12.121094 L 4.59375 14.890625 C 4.59375 14.980469 4.660156 15.03125 4.730469 15.050781 Z M 7.601562 15.050781 "/>
<path style=" stroke:none;fill-rule:evenodd;fill:rgb(80%,80%,80%);fill-opacity:1;" d="M 11.269531 15.050781 C 11.339844 15.03125 11.40625 14.980469 11.40625 14.890625 L 11.40625 12.121094 C 11.40625 12.015625 11.335938 11.933594 11.25 11.933594 L 8.421875 11.933594 C 8.332031 11.933594 8.261719 12.015625 8.261719 12.121094 L 8.261719 14.890625 C 8.261719 14.980469 8.328125 15.03125 8.398438 15.050781 Z M 11.269531 15.050781 "/>
<path style=" stroke:none;fill-rule:evenodd;fill:rgb(80%,80%,80%);fill-opacity:1;" d="M 15.050781 12.089844 C 15.03125 12.007812 14.992188 11.933594 14.917969 11.933594 L 12.09375 11.933594 C 12.003906 11.933594 11.933594 12.015625 11.933594 12.121094 L 11.933594 14.890625 C 11.933594 14.980469 12 15.03125 12.070312 15.050781 L 12.265625 15.050781 C 13.808594 15.050781 15.050781 13.808594 15.050781 12.265625 Z M 15.050781 12.089844 "/>
<path style=" stroke:none;fill-rule:evenodd;fill:rgb(80%,80%,80%);fill-opacity:1;" d="M 12.070312 0.949219 C 12 0.96875 11.933594 1.019531 11.933594 1.109375 L 11.933594 3.878906 C 11.933594 3.984375 12.003906 4.066406 12.09375 4.066406 L 14.917969 4.066406 C 14.992188 4.066406 15.03125 3.992188 15.050781 3.910156 L 15.050781 3.734375 C 15.050781 2.191406 13.808594 0.949219 12.265625 0.949219 Z M 12.070312 0.949219 "/>
<path style=" stroke:none;fill-rule:evenodd;fill:rgb(100%,34.117647%,34.117647%);fill-opacity:1;" d="M 8.398438 0.949219 C 8.328125 0.96875 8.261719 1.019531 8.261719 1.109375 L 8.261719 3.878906 C 8.261719 3.984375 8.332031 4.066406 8.421875 4.066406 L 11.25 4.066406 C 11.335938 4.066406 11.40625 3.984375 11.40625 3.878906 L 11.40625 1.109375 C 11.40625 1.019531 11.339844 0.96875 11.269531 0.949219 Z M 8.398438 0.949219 "/>
<path style=" stroke:none;fill-rule:evenodd;fill:rgb(80%,80%,80%);fill-opacity:1;" d="M 4.730469 0.949219 C 4.660156 0.96875 4.59375 1.019531 4.59375 1.109375 L 4.59375 3.878906 C 4.59375 3.984375 4.664062 4.066406 4.75 4.066406 L 7.578125 4.066406 C 7.667969 4.066406 7.738281 3.984375 7.738281 3.878906 L 7.738281 1.109375 C 7.738281 1.019531 7.671875 0.96875 7.601562 0.949219 Z M 4.730469 0.949219 "/>
<path style=" stroke:none;fill-rule:evenodd;fill:rgb(92.54902%,92.54902%,92.54902%);fill-opacity:1;" d="M 0.949219 3.910156 L 0.949219 4.75 C 0.96875 4.671875 1.007812 4.59375 1.082031 4.59375 L 3.90625 4.59375 C 3.996094 4.59375 4.066406 4.675781 4.066406 4.78125 L 4.066406 7.550781 C 4.066406 7.65625 3.996094 7.738281 3.90625 7.738281 L 1.082031 7.738281 C 1.007812 7.738281 0.96875 7.660156 0.949219 7.582031 L 0.949219 8.417969 C 0.96875 8.339844 1.007812 8.261719 1.082031 8.261719 L 3.90625 8.261719 C 3.996094 8.261719 4.066406 8.34375 4.066406 8.449219 L 4.066406 11.21875 C 4.066406 11.324219 3.996094 11.40625 3.90625 11.40625 L 1.082031 11.40625 C 1.007812 11.40625 0.96875 11.328125 0.949219 11.25 L 0.949219 12.089844 C 0.96875 12.007812 1.007812 11.933594 1.082031 11.933594 L 3.90625 11.933594 C 3.996094 11.933594 4.066406 12.015625 4.066406 12.121094 L 4.066406 14.890625 C 4.066406 14.980469 4 15.03125 3.929688 15.050781 L 4.730469 15.050781 C 4.660156 15.03125 4.59375 14.980469 4.59375 14.890625 L 4.59375 12.121094 C 4.59375 12.015625 4.664062 11.933594 4.75 11.933594 L 7.578125 11.933594 C 7.667969 11.933594 7.738281 12.015625 7.738281 12.121094 L 7.738281 14.890625 C 7.738281 14.980469 7.671875 15.03125 7.601562 15.050781 L 8.398438 15.050781 C 8.328125 15.03125 8.261719 14.980469 8.261719 14.890625 L 8.261719 12.121094 C 8.261719 12.015625 8.332031 11.933594 8.421875 11.933594 L 11.25 11.933594 C 11.335938 11.933594 11.40625 12.015625 11.40625 12.121094 L 11.40625 14.890625 C 11.40625 14.980469 11.339844 15.03125 11.269531 15.050781 L 12.070312 15.050781 C 12 15.03125 11.933594 14.980469 11.933594 14.890625 L 11.933594 12.121094 C 11.933594 12.015625 12.003906 11.933594 12.09375 11.933594 L 14.917969 11.933594 C 14.992188 11.933594 15.03125 12.007812 15.050781 12.089844 L 15.050781 11.25 C 15.03125 11.328125 14.992188 11.40625 14.917969 11.40625 L 12.09375 11.40625 C 12.003906 11.40625 11.933594 11.324219 11.933594 11.21875 L 11.933594 8.449219 C 11.933594 8.34375 12.003906 8.261719 12.09375 8.261719 L 14.917969 8.261719 C 14.992188 8.261719 15.03125 8.339844 15.050781 8.421875 L 15.050781 7.578125 C 15.03125 7.660156 14.992188 7.738281 14.917969 7.738281 L 12.09375 7.738281 C 12.003906 7.738281 11.933594 7.65625 11.933594 7.550781 L 11.933594 4.78125 C 11.933594 4.675781 12.003906 4.59375 12.09375 4.59375 L 14.917969 4.59375 C 14.992188 4.59375 15.03125 4.671875 15.050781 4.75 L 15.050781 3.910156 C 15.03125 3.992188 14.992188 4.066406 14.917969 4.066406 L 12.09375 4.066406 C 12.003906 4.066406 11.933594 3.984375 11.933594 3.878906 L 11.933594 1.109375 C 11.933594 1.019531 12 0.96875 12.070312 0.949219 L 11.269531 0.949219 C 11.339844 0.96875 11.40625 1.019531 11.40625 1.109375 L 11.40625 3.878906 C 11.40625 3.984375 11.335938 4.066406 11.25 4.066406 L 8.421875 4.066406 C 8.332031 4.066406 8.261719 3.984375 8.261719 3.878906 L 8.261719 1.109375 C 8.261719 1.019531 8.328125 0.96875 8.398438 0.949219 L 7.601562 0.949219 C 7.671875 0.96875 7.738281 1.019531 7.738281 1.109375 L 7.738281 3.878906 C 7.738281 3.984375 7.667969 4.066406 7.578125 4.066406 L 4.75 4.066406 C 4.664062 4.066406 4.59375 3.984375 4.59375 3.878906 L 4.59375 1.109375 C 4.59375 1.019531 4.660156 0.96875 4.730469 0.949219 L 3.929688 0.949219 C 4 0.96875 4.066406 1.019531 4.066406 1.109375 L 4.066406 3.878906 C 4.066406 3.984375 3.996094 4.066406 3.90625 4.066406 L 1.082031 4.066406 C 1.007812 4.066406 0.96875 3.992188 0.949219 3.910156 Z M 0.949219 3.910156 "/>
<path style=" stroke:none;fill-rule:evenodd;fill:rgb(30.980392%,30.980392%,30.980392%);fill-opacity:1;" d="M 0.949219 3.910156 C 0.96875 3.992188 1.007812 4.066406 1.082031 4.066406 L 3.90625 4.066406 C 3.996094 4.066406 4.066406 3.984375 4.066406 3.878906 L 4.066406 1.109375 C 4.066406 1.019531 4 0.96875 3.929688 0.949219 L 3.734375 0.949219 C 2.191406 0.949219 0.949219 2.191406 0.949219 3.734375 Z M 0.949219 3.910156 "/>
<path style=" stroke:none;fill-rule:evenodd;fill:rgb(0.784314%,52.54902%,76.078431%);fill-opacity:1;" d="M 8.421875 8.261719 C 8.332031 8.261719 8.261719 8.34375 8.261719 8.449219 L 8.261719 11.21875 C 8.261719 11.324219 8.332031 11.40625 8.421875 11.40625 L 11.25 11.40625 C 11.335938 11.40625 11.40625 11.324219 11.40625 11.21875 L 11.40625 8.449219 C 11.40625 8.34375 11.335938 8.261719 11.25 8.261719 Z M 8.421875 8.261719 "/>
<path style=" stroke:none;fill-rule:evenodd;fill:rgb(80%,80%,80%);fill-opacity:1;" d="M 8.421875 8.261719 L 11.25 8.261719 C 11.335938 8.261719 11.40625 8.34375 11.40625 8.449219 L 11.40625 11.21875 C 11.40625 11.324219 11.335938 11.40625 11.25 11.40625 L 8.421875 11.40625 C 8.332031 11.40625 8.261719 11.324219 8.261719 11.21875 L 8.261719 8.449219 C 8.261719 8.34375 8.332031 8.261719 8.421875 8.261719 Z M 8.421875 8.261719 "/>
<path style=" stroke:none;fill-rule:evenodd;fill:rgb(0.784314%,52.54902%,76.078431%);fill-opacity:1;" d="M 4.75 8.261719 C 4.664062 8.261719 4.59375 8.34375 4.59375 8.449219 L 4.59375 11.21875 C 4.59375 11.324219 4.664062 11.40625 4.75 11.40625 L 7.578125 11.40625 C 7.667969 11.40625 7.738281 11.324219 7.738281 11.21875 L 7.738281 8.449219 C 7.738281 8.34375 7.667969 8.261719 7.578125 8.261719 Z M 4.75 8.261719 "/>
<path style=" stroke:none;fill-rule:evenodd;fill:rgb(30.980392%,30.980392%,30.980392%);fill-opacity:1;" d="M 4.75 8.261719 L 7.578125 8.261719 C 7.667969 8.261719 7.738281 8.34375 7.738281 8.449219 L 7.738281 11.21875 C 7.738281 11.324219 7.667969 11.40625 7.578125 11.40625 L 4.75 11.40625 C 4.664062 11.40625 4.59375 11.324219 4.59375 11.21875 L 4.59375 8.449219 C 4.59375 8.34375 4.664062 8.261719 4.75 8.261719 Z M 4.75 8.261719 "/>
<path style=" stroke:none;fill-rule:evenodd;fill:rgb(0.784314%,52.54902%,76.078431%);fill-opacity:1;" d="M 8.421875 4.59375 C 8.332031 4.59375 8.261719 4.675781 8.261719 4.78125 L 8.261719 7.550781 C 8.261719 7.65625 8.332031 7.738281 8.421875 7.738281 L 11.25 7.738281 C 11.335938 7.738281 11.40625 7.65625 11.40625 7.550781 L 11.40625 4.78125 C 11.40625 4.675781 11.335938 4.59375 11.25 4.59375 Z M 8.421875 4.59375 "/>
<path style=" stroke:none;fill-rule:evenodd;fill:rgb(100%,34.117647%,34.117647%);fill-opacity:1;" d="M 8.421875 4.59375 L 11.25 4.59375 C 11.335938 4.59375 11.40625 4.675781 11.40625 4.78125 L 11.40625 7.550781 C 11.40625 7.65625 11.335938 7.738281 11.25 7.738281 L 8.421875 7.738281 C 8.332031 7.738281 8.261719 7.65625 8.261719 7.550781 L 8.261719 4.78125 C 8.261719 4.675781 8.332031 4.59375 8.421875 4.59375 Z M 8.421875 4.59375 "/>
<path style=" stroke:none;fill-rule:evenodd;fill:rgb(0.784314%,52.54902%,76.078431%);fill-opacity:1;" d="M 4.75 4.59375 C 4.664062 4.59375 4.59375 4.675781 4.59375 4.78125 L 4.59375 7.550781 C 4.59375 7.65625 4.664062 7.738281 4.75 7.738281 L 7.578125 7.738281 C 7.667969 7.738281 7.738281 7.65625 7.738281 7.550781 L 7.738281 4.78125 C 7.738281 4.675781 7.667969 4.59375 7.578125 4.59375 Z M 4.75 4.59375 "/>
<path style=" stroke:none;fill-rule:evenodd;fill:rgb(80%,80%,80%);fill-opacity:1;" d="M 4.75 4.59375 L 7.578125 4.59375 C 7.667969 4.59375 7.738281 4.675781 7.738281 4.78125 L 7.738281 7.550781 C 7.738281 7.65625 7.667969 7.738281 7.578125 7.738281 L 4.75 7.738281 C 4.664062 7.738281 4.59375 7.65625 4.59375 7.550781 L 4.59375 4.78125 C 4.59375 4.675781 4.664062 4.59375 4.75 4.59375 Z M 4.75 4.59375 "/>
<path style=" stroke:none;fill-rule:evenodd;fill:rgb(29.019608%,78.039216%,24.313725%);fill-opacity:1;" d="M 15.050781 8.421875 C 15.03125 8.339844 14.992188 8.261719 14.917969 8.261719 L 12.09375 8.261719 C 12.003906 8.261719 11.933594 8.34375 11.933594 8.449219 L 11.933594 11.21875 C 11.933594 11.324219 12.003906 11.40625 12.09375 11.40625 L 14.917969 11.40625 C 14.992188 11.40625 15.03125 11.328125 15.050781 11.25 Z M 15.050781 8.421875 "/>
<path style=" stroke:none;fill-rule:evenodd;fill:rgb(80%,80%,80%);fill-opacity:1;" d="M 15.050781 4.75 C 15.03125 4.671875 14.992188 4.59375 14.917969 4.59375 L 12.09375 4.59375 C 12.003906 4.59375 11.933594 4.675781 11.933594 4.78125 L 11.933594 7.550781 C 11.933594 7.65625 12.003906 7.738281 12.09375 7.738281 L 14.917969 7.738281 C 14.992188 7.738281 15.03125 7.660156 15.050781 7.578125 Z M 15.050781 4.75 "/>
</g>
</svg>
