<?xml version="1.0" encoding="UTF-8"?>
<svg xmlns="http://www.w3.org/2000/svg" xmlns:xlink="http://www.w3.org/1999/xlink" width="16pt" height="16pt" viewBox="0 0 16 16" version="1.1">
<g id="surface1">
<path style=" stroke:none;fill-rule:evenodd;fill:rgb(46.666667%,40.392157%,75.294118%);fill-opacity:1;" d="M 3.734375 0.949219 L 12.265625 0.949219 C 13.800781 0.949219 15.050781 2.199219 15.050781 3.734375 L 15.050781 12.265625 C 15.050781 13.800781 13.800781 15.050781 12.265625 15.050781 L 3.734375 15.050781 C 2.199219 15.050781 0.949219 13.800781 0.949219 12.265625 L 0.949219 3.734375 C 0.949219 2.199219 2.199219 0.949219 3.734375 0.949219 Z M 3.734375 0.949219 "/>
<path style=" stroke:none;fill-rule:evenodd;fill:rgb(56.862745%,50.980392%,84.313725%);fill-opacity:1;" d="M 10.964844 15.050781 L 10.964844 7.542969 C 10.964844 7.15625 10.886719 6.789062 10.746094 6.457031 C 10.605469 6.121094 10.402344 5.820312 10.152344 5.570312 C 9.898438 5.316406 9.597656 5.113281 9.265625 4.972656 C 8.929688 4.832031 8.5625 4.753906 8.175781 4.753906 L 1.667969 4.753906 C 1.414062 4.753906 1.183594 4.835938 0.949219 4.898438 L 0.949219 12.261719 C 0.949219 13.808594 2.191406 15.050781 3.734375 15.050781 Z M 10.964844 15.050781 "/>
<path style=" stroke:none;fill-rule:evenodd;fill:rgb(65.490196%,60.784314%,87.45098%);fill-opacity:1;" d="M 10.964844 11.917969 L 10.964844 15.050781 L 12.261719 15.050781 C 13.808594 15.050781 15.050781 13.808594 15.050781 12.261719 L 15.050781 11.917969 Z M 10.964844 11.917969 "/>
<path style=" stroke:none;fill-rule:evenodd;fill:rgb(65.490196%,60.784314%,87.45098%);fill-opacity:1;" d="M 4.417969 0.949219 L 3.734375 0.949219 C 2.191406 0.949219 0.949219 2.191406 0.949219 3.734375 L 0.949219 4.898438 C 1.183594 4.835938 1.414062 4.753906 1.667969 4.753906 L 4.417969 4.753906 Z M 4.417969 0.949219 "/>
<path style=" stroke:none;fill-rule:evenodd;fill:rgb(46.666667%,40.392157%,75.294118%);fill-opacity:1;" d="M 4.417969 0.949219 L 4.417969 4.753906 L 8.175781 4.753906 C 8.5625 4.753906 8.929688 4.832031 9.265625 4.972656 C 9.597656 5.113281 9.898438 5.316406 10.152344 5.570312 C 10.402344 5.820312 10.605469 6.121094 10.746094 6.457031 C 10.886719 6.789062 10.964844 7.15625 10.964844 7.542969 L 10.964844 11.917969 L 15.050781 11.917969 L 15.050781 3.734375 C 15.050781 2.191406 13.808594 0.949219 12.261719 0.949219 Z M 4.417969 0.949219 "/>
<path style=" stroke:none;fill-rule:nonzero;fill:rgb(100%,100%,100%);fill-opacity:1;" d="M 5.71875 6.507812 C 3.78125 6.507812 2.21875 8.074219 2.21875 10.007812 C 2.21875 11.9375 3.78125 13.507812 5.71875 13.507812 C 7.648438 13.507812 9.21875 11.9375 9.21875 10.007812 C 9.21875 8.074219 7.648438 6.507812 5.71875 6.507812 Z M 5.367188 7.175781 C 5.40625 7.171875 5.457031 7.175781 5.5 7.175781 C 5.503906 7.195312 5.46875 7.265625 5.421875 7.367188 C 5.125 8.015625 5.109375 8.773438 5.386719 9.175781 C 5.4375 9.25 5.480469 9.320312 5.480469 9.328125 C 5.480469 9.339844 5.425781 9.347656 5.367188 9.347656 C 5.222656 9.347656 5.089844 9.261719 4.8125 9.046875 C 4.691406 8.949219 4.53125 8.867188 4.46875 8.855469 C 4.375 8.835938 4.347656 8.84375 4.222656 8.96875 C 4.105469 9.085938 4.070312 9.148438 4.070312 9.253906 C 4.070312 9.65625 4.550781 9.980469 5.441406 10.167969 C 6.65625 10.425781 6.953125 10.65625 6.984375 11.292969 C 7.027344 12.09375 6.601562 12.695312 5.671875 13.160156 C 5.558594 13.21875 5.488281 13.238281 5.441406 13.257812 C 5.421875 13.253906 5.40625 13.257812 5.386719 13.257812 C 5.378906 13.230469 5.367188 13.171875 5.367188 13.066406 C 5.367188 12.640625 5.199219 12.203125 4.945312 11.960938 C 4.878906 11.894531 4.6875 11.757812 4.527344 11.65625 C 4.363281 11.554688 4.203125 11.4375 4.164062 11.390625 C 4.105469 11.308594 4.097656 11.253906 4.144531 11.101562 C 4.230469 10.824219 4.332031 10.667969 4.527344 10.492188 C 4.628906 10.402344 4.734375 10.324219 4.753906 10.320312 C 4.777344 10.320312 4.625 10.273438 4.394531 10.226562 C 4.164062 10.179688 3.824219 10.078125 3.648438 10.015625 C 3.328125 9.902344 2.898438 9.65625 2.734375 9.484375 L 2.714844 9.464844 C 2.953125 8.527344 3.613281 7.757812 4.488281 7.386719 C 4.671875 7.308594 4.859375 7.253906 5.0625 7.214844 C 5.160156 7.195312 5.261719 7.1875 5.367188 7.175781 Z M 8.226562 8.605469 C 8.296875 8.648438 8.566406 9.234375 8.644531 9.519531 C 8.746094 9.890625 8.734375 10.527344 8.644531 10.890625 C 8.609375 11.03125 8.5625 11.164062 8.550781 11.179688 C 8.535156 11.195312 8.480469 11.101562 8.417969 10.988281 C 8.351562 10.875 8.148438 10.632812 7.976562 10.453125 C 7.484375 9.9375 7.410156 9.667969 7.613281 9.253906 C 7.71875 9.046875 8.171875 8.570312 8.226562 8.605469 Z M 8.226562 8.605469 "/>
<path style=" stroke:none;fill-rule:evenodd;fill:rgb(30.980392%,30.980392%,30.980392%);fill-opacity:1;" d="M 14.457031 10.988281 C 14.457031 12.644531 13.113281 13.988281 11.457031 13.988281 C 9.800781 13.988281 8.457031 12.644531 8.457031 10.988281 C 8.457031 9.332031 9.800781 7.988281 11.457031 7.988281 C 13.113281 7.988281 14.457031 9.332031 14.457031 10.988281 Z M 14.457031 10.988281 "/>
<path style=" stroke:none;fill-rule:nonzero;fill:rgb(100%,100%,100%);fill-opacity:1;" d="M 11.832031 9.488281 L 11.832031 10.988281 L 12.394531 10.988281 L 11.457031 12.113281 L 10.519531 10.988281 L 11.082031 10.988281 L 11.082031 9.488281 Z M 11.832031 9.488281 "/>
</g>
</svg>
