<?xml version="1.0" encoding="UTF-8"?>
<svg xmlns="http://www.w3.org/2000/svg" xmlns:xlink="http://www.w3.org/1999/xlink" width="16pt" height="16pt" viewBox="0 0 16 16" version="1.1">
<g id="surface1">
<path style=" stroke:none;fill-rule:evenodd;fill:rgb(21.568627%,71.372549%,28.235294%);fill-opacity:1;" d="M 3.734375 0.949219 L 12.265625 0.949219 C 13.800781 0.949219 15.050781 2.199219 15.050781 3.734375 L 15.050781 12.265625 C 15.050781 13.800781 13.800781 15.050781 12.265625 15.050781 L 3.734375 15.050781 C 2.199219 15.050781 0.949219 13.800781 0.949219 12.265625 L 0.949219 3.734375 C 0.949219 2.199219 2.199219 0.949219 3.734375 0.949219 Z M 3.734375 0.949219 "/>
<path style=" stroke:none;fill-rule:nonzero;fill:rgb(97.647059%,97.647059%,97.647059%);fill-opacity:1;" d="M 6.507812 13.484375 C 6.296875 13.457031 6.140625 13.410156 5.972656 13.324219 C 5.613281 13.128906 5.367188 12.796875 5.28125 12.371094 C 5.25 12.226562 5.25 11.898438 5.28125 11.75 C 5.359375 11.359375 5.527344 11.066406 6.09375 10.328125 C 6.4375 9.878906 7.0625 9.113281 7.082031 9.113281 C 7.089844 9.113281 7.132812 9.140625 7.183594 9.175781 C 7.359375 9.300781 7.570312 9.386719 7.800781 9.425781 C 7.824219 9.429688 7.84375 9.4375 7.847656 9.441406 C 7.851562 9.449219 7.875 9.691406 7.894531 9.988281 C 7.972656 11.050781 8.003906 11.6875 7.988281 11.953125 C 7.976562 12.207031 7.90625 12.476562 7.804688 12.6875 C 7.65625 12.996094 7.414062 13.246094 7.128906 13.375 C 6.9375 13.460938 6.691406 13.503906 6.507812 13.484375 Z M 9.351562 12.894531 C 8.875 12.804688 8.519531 12.386719 8.355469 11.722656 C 8.28125 11.414062 8.039062 9.90625 8.007812 9.53125 L 8 9.445312 L 8.050781 9.4375 C 8.328125 9.40625 8.4375 9.375 8.613281 9.289062 C 8.679688 9.257812 8.769531 9.203125 8.8125 9.171875 C 8.859375 9.140625 8.902344 9.113281 8.90625 9.113281 C 8.910156 9.113281 9.367188 9.628906 9.601562 9.902344 C 9.964844 10.328125 10.257812 10.6875 10.355469 10.84375 C 10.644531 11.285156 10.75 11.785156 10.628906 12.171875 C 10.574219 12.355469 10.476562 12.5 10.332031 12.625 C 10.0625 12.84375 9.667969 12.957031 9.351562 12.894531 Z M 11.636719 10.996094 C 11.269531 10.957031 10.914062 10.796875 10.601562 10.53125 C 10.421875 10.378906 9.894531 9.890625 9.644531 9.644531 C 9.4375 9.4375 9.027344 9.015625 9.027344 9 C 9.027344 8.996094 9.050781 8.960938 9.082031 8.925781 C 9.238281 8.738281 9.335938 8.535156 9.402344 8.265625 L 9.414062 8.21875 L 9.984375 8.222656 C 11.613281 8.238281 11.757812 8.246094 12.078125 8.34375 C 12.46875 8.457031 12.785156 8.703125 12.953125 9.023438 C 13.148438 9.390625 13.144531 9.839844 12.941406 10.261719 C 12.878906 10.394531 12.832031 10.460938 12.726562 10.574219 C 12.539062 10.78125 12.3125 10.90625 12.046875 10.964844 C 11.933594 10.988281 11.722656 11.003906 11.636719 10.996094 Z M 9.433594 7.910156 C 9.429688 7.824219 9.417969 7.710938 9.40625 7.660156 C 9.367188 7.46875 9.289062 7.273438 9.195312 7.125 C 9.171875 7.089844 9.152344 7.050781 9.15625 7.039062 C 9.167969 7.007812 10.050781 6.257812 10.421875 5.96875 C 10.671875 5.769531 10.816406 5.671875 11 5.578125 C 11.558594 5.289062 12.074219 5.304688 12.457031 5.625 C 12.632812 5.769531 12.78125 6.015625 12.84375 6.261719 C 12.882812 6.425781 12.886719 6.683594 12.847656 6.839844 C 12.734375 7.324219 12.375 7.65625 11.828125 7.789062 C 11.640625 7.835938 10.949219 7.933594 10.390625 7.992188 C 10.128906 8.019531 9.515625 8.074219 9.46875 8.074219 L 9.4375 8.074219 Z M 4.210938 7.980469 C 3.800781 7.9375 3.464844 7.785156 3.234375 7.546875 C 2.859375 7.15625 2.796875 6.546875 3.070312 5.996094 C 3.257812 5.621094 3.550781 5.382812 3.945312 5.292969 C 4.089844 5.261719 4.398438 5.265625 4.554688 5.296875 C 4.78125 5.347656 5.027344 5.453125 5.226562 5.589844 C 5.472656 5.757812 6.273438 6.40625 6.695312 6.78125 L 6.902344 6.96875 L 6.882812 7 C 6.871094 7.015625 6.84375 7.058594 6.816406 7.09375 C 6.707031 7.25 6.609375 7.5 6.574219 7.71875 L 6.554688 7.835938 L 6.503906 7.84375 C 6.308594 7.871094 5.464844 7.945312 5.09375 7.96875 C 4.816406 7.984375 4.328125 7.992188 4.210938 7.980469 Z M 8.984375 6.867188 C 8.8125 6.679688 8.488281 6.515625 8.199219 6.472656 C 8.132812 6.464844 8.078125 6.453125 8.074219 6.453125 C 8.070312 6.449219 8.0625 6.308594 8.046875 6.136719 C 7.980469 5.136719 7.957031 4.539062 7.980469 4.160156 C 8 3.78125 8.03125 3.613281 8.125 3.402344 C 8.21875 3.1875 8.429688 2.933594 8.617188 2.800781 C 9.027344 2.515625 9.53125 2.4375 10 2.582031 C 10.734375 2.808594 11.171875 3.640625 10.976562 4.445312 C 10.882812 4.824219 10.644531 5.203125 10.082031 5.847656 C 9.875 6.09375 9.078125 6.917969 9.050781 6.917969 C 9.039062 6.917969 9.011719 6.894531 8.984375 6.867188 Z M 6.484375 6.324219 C 5.570312 5.375 5.296875 5.023438 5.167969 4.609375 C 5.105469 4.421875 5.089844 4.296875 5.097656 4.085938 C 5.105469 3.871094 5.125 3.769531 5.203125 3.601562 C 5.347656 3.285156 5.59375 3.070312 5.953125 2.949219 C 6.203125 2.859375 6.449219 2.851562 6.691406 2.917969 C 6.820312 2.953125 7.015625 3.054688 7.128906 3.148438 C 7.335938 3.324219 7.5 3.597656 7.570312 3.878906 C 7.621094 4.078125 7.691406 4.566406 7.78125 5.324219 C 7.867188 6.039062 7.910156 6.4375 7.902344 6.449219 C 7.898438 6.453125 7.855469 6.460938 7.8125 6.46875 C 7.546875 6.507812 7.304688 6.613281 7.097656 6.78125 C 7.058594 6.816406 7.015625 6.847656 7.007812 6.847656 C 7 6.847656 6.765625 6.609375 6.484375 6.324219 Z M 6.484375 6.324219 "/>
<path style=" stroke:none;fill-rule:nonzero;fill:rgb(94.509804%,35.686275%,26.27451%);fill-opacity:1;" d="M 4.667969 10.773438 C 4.21875 10.722656 3.789062 10.304688 3.660156 9.800781 C 3.625 9.667969 3.617188 9.441406 3.640625 9.3125 C 3.683594 9.097656 3.785156 8.914062 3.949219 8.75 C 4.210938 8.488281 4.535156 8.351562 5.246094 8.203125 C 5.675781 8.117188 6.519531 7.984375 6.542969 8.003906 C 6.550781 8.011719 6.5625 8.054688 6.5625 8.105469 C 6.589844 8.375 6.710938 8.675781 6.882812 8.886719 C 6.921875 8.9375 6.957031 8.980469 6.960938 8.988281 C 6.96875 9 6.960938 9.019531 6.929688 9.0625 C 6.859375 9.144531 6.097656 9.9375 5.933594 10.09375 C 5.777344 10.242188 5.5 10.492188 5.429688 10.546875 C 5.34375 10.613281 5.203125 10.691406 5.097656 10.730469 C 5.011719 10.757812 4.828125 10.792969 4.773438 10.785156 C 4.765625 10.785156 4.71875 10.78125 4.667969 10.773438 Z M 4.667969 10.773438 "/>
<path style=" stroke:none;fill-rule:nonzero;fill:rgb(100%,79.215686%,16.862745%);fill-opacity:1;" d="M 9.566406 8 C 9.566406 8.867188 8.867188 9.566406 8 9.566406 C 7.132812 9.566406 6.433594 8.867188 6.433594 8 C 6.433594 7.132812 7.132812 6.433594 8 6.433594 C 8.867188 6.433594 9.566406 7.132812 9.566406 8 Z M 9.566406 8 "/>
</g>
</svg>
