<?xml version="1.0" encoding="UTF-8"?>
<svg xmlns="http://www.w3.org/2000/svg" xmlns:xlink="http://www.w3.org/1999/xlink" width="16pt" height="16pt" viewBox="0 0 16 16" version="1.1">
<g id="surface1">
<path style=" stroke:none;fill-rule:evenodd;fill:rgb(90.196078%,90.196078%,90.196078%);fill-opacity:1;" d="M 3.734375 0.949219 L 12.265625 0.949219 C 13.800781 0.949219 15.050781 2.199219 15.050781 3.734375 L 15.050781 12.265625 C 15.050781 13.800781 13.800781 15.050781 12.265625 15.050781 L 3.734375 15.050781 C 2.199219 15.050781 0.949219 13.800781 0.949219 12.265625 L 0.949219 3.734375 C 0.949219 2.199219 2.199219 0.949219 3.734375 0.949219 Z M 3.734375 0.949219 "/>
<path style=" stroke:none;fill-rule:nonzero;fill:rgb(52.156863%,68.235294%,100%);fill-opacity:1;" d="M 13.101562 3.445312 L 13.101562 9.277344 C 13.101562 9.578125 12.855469 9.820312 12.554688 9.820312 L 6.722656 9.820312 C 6.421875 9.820312 6.179688 9.578125 6.179688 9.277344 L 6.179688 3.445312 C 6.179688 3.144531 6.421875 2.898438 6.722656 2.898438 L 12.554688 2.898438 C 12.855469 2.898438 13.101562 3.144531 13.101562 3.445312 Z M 13.101562 3.445312 "/>
<path style=" stroke:none;fill-rule:nonzero;fill:rgb(41.568627%,54.509804%,80%);fill-opacity:1;" d="M 7.269531 5.085938 L 7.269531 4.71875 L 11.644531 4.71875 L 11.644531 5.085938 Z M 7.269531 5.085938 "/>
<path style=" stroke:none;fill-rule:nonzero;fill:rgb(41.568627%,54.509804%,80%);fill-opacity:1;" d="M 7.269531 6.179688 L 7.269531 5.8125 L 11.644531 5.8125 L 11.644531 6.179688 Z M 7.269531 6.179688 "/>
<path style=" stroke:none;fill-rule:nonzero;fill:rgb(41.568627%,54.509804%,80%);fill-opacity:1;" d="M 7.269531 7.269531 L 7.269531 6.90625 L 11.644531 6.90625 L 11.644531 7.269531 Z M 7.269531 7.269531 "/>
<path style=" stroke:none;fill-rule:nonzero;fill:rgb(41.568627%,54.509804%,80%);fill-opacity:1;" d="M 7.269531 8.363281 L 7.269531 8 L 10.1875 8 L 10.1875 8.363281 Z M 7.269531 8.363281 "/>
<path style=" stroke:none;fill-rule:nonzero;fill:rgb(65.490196%,72.941176%,100%);fill-opacity:1;" d="M 9.820312 6.722656 L 9.820312 12.554688 C 9.820312 12.855469 9.578125 13.101562 9.277344 13.101562 L 3.445312 13.101562 C 3.144531 13.101562 2.898438 12.855469 2.898438 12.554688 L 2.898438 6.722656 C 2.898438 6.421875 3.144531 6.179688 3.445312 6.179688 L 9.277344 6.179688 C 9.578125 6.179688 9.820312 6.421875 9.820312 6.722656 Z M 9.820312 6.722656 "/>
<path style=" stroke:none;fill-rule:nonzero;fill:rgb(32.54902%,36.470588%,49.803922%);fill-opacity:1;" d="M 3.992188 8.363281 L 3.992188 8 L 8.363281 8 L 8.363281 8.363281 Z M 3.992188 8.363281 "/>
<path style=" stroke:none;fill-rule:nonzero;fill:rgb(32.54902%,36.470588%,49.803922%);fill-opacity:1;" d="M 3.992188 9.457031 L 3.992188 9.09375 L 8.363281 9.09375 L 8.363281 9.457031 Z M 3.992188 9.457031 "/>
<path style=" stroke:none;fill-rule:nonzero;fill:rgb(32.54902%,36.470588%,49.803922%);fill-opacity:1;" d="M 3.992188 10.550781 L 3.992188 10.1875 L 8.363281 10.1875 L 8.363281 10.550781 Z M 3.992188 10.550781 "/>
<path style=" stroke:none;fill-rule:nonzero;fill:rgb(32.54902%,36.470588%,49.803922%);fill-opacity:1;" d="M 3.992188 11.644531 L 3.992188 11.28125 L 6.90625 11.28125 L 6.90625 11.644531 Z M 3.992188 11.644531 "/>
</g>
</svg>
