<?xml version="1.0" encoding="UTF-8"?>
<svg xmlns="http://www.w3.org/2000/svg" xmlns:xlink="http://www.w3.org/1999/xlink" width="16pt" height="16pt" viewBox="0 0 16 16" version="1.1">
<g id="surface1">
<path style=" stroke:none;fill-rule:evenodd;fill:rgb(63.921569%,90.196078%,38.039216%);fill-opacity:1;" d="M 3.734375 0.949219 L 12.265625 0.949219 C 13.800781 0.949219 15.050781 2.199219 15.050781 3.734375 L 15.050781 12.265625 C 15.050781 13.800781 13.800781 15.050781 12.265625 15.050781 L 3.734375 15.050781 C 2.199219 15.050781 0.949219 13.800781 0.949219 12.265625 L 0.949219 3.734375 C 0.949219 2.199219 2.199219 0.949219 3.734375 0.949219 Z M 3.734375 0.949219 "/>
<path style=" stroke:none;fill-rule:evenodd;fill:rgb(100%,99.607843%,89.411765%);fill-opacity:1;" d="M 5.019531 9.898438 C 4.621094 9.898438 4.257812 10.0625 3.996094 10.324219 C 3.734375 10.585938 3.574219 10.949219 3.574219 11.347656 C 3.574219 11.75 3.734375 12.109375 3.996094 12.371094 C 4.257812 12.632812 4.621094 12.796875 5.019531 12.796875 C 5.421875 12.796875 5.78125 12.632812 6.042969 12.371094 C 6.304688 12.109375 6.46875 11.75 6.46875 11.347656 C 6.46875 10.949219 6.304688 10.585938 6.042969 10.324219 C 5.78125 10.0625 5.421875 9.898438 5.019531 9.898438 Z M 5.019531 9.898438 "/>
<path style=" stroke:none;fill-rule:evenodd;fill:rgb(40%,40%,40%);fill-opacity:1;" d="M 5.019531 9.203125 C 4.96875 9.207031 4.921875 9.207031 4.871094 9.210938 C 4.796875 9.21875 4.726562 9.222656 4.65625 9.234375 C 4.585938 9.25 4.515625 9.265625 4.449219 9.28125 C 4.378906 9.300781 4.3125 9.324219 4.246094 9.351562 C 4.175781 9.375 4.113281 9.40625 4.046875 9.4375 C 3.984375 9.46875 3.921875 9.507812 3.863281 9.546875 C 3.804688 9.582031 3.746094 9.625 3.6875 9.671875 C 3.632812 9.714844 3.578125 9.761719 3.527344 9.8125 C 3.476562 9.859375 3.429688 9.914062 3.382812 9.96875 C 3.335938 10.023438 3.292969 10.078125 3.253906 10.140625 C 3.210938 10.199219 3.175781 10.257812 3.140625 10.320312 C 3.105469 10.382812 3.078125 10.449219 3.046875 10.515625 C 3.019531 10.578125 2.996094 10.644531 2.972656 10.714844 C 2.953125 10.78125 2.9375 10.851562 2.921875 10.921875 C 2.90625 10.992188 2.894531 11.0625 2.890625 11.132812 C 2.882812 11.203125 2.878906 11.277344 2.878906 11.347656 C 2.878906 11.398438 2.878906 11.449219 2.882812 11.5 C 2.890625 11.570312 2.898438 11.640625 2.910156 11.710938 C 2.921875 11.78125 2.9375 11.851562 2.957031 11.921875 C 2.976562 11.988281 3 12.058594 3.023438 12.125 C 3.046875 12.1875 3.078125 12.253906 3.109375 12.320312 C 3.144531 12.382812 3.179688 12.445312 3.21875 12.503906 C 3.257812 12.566406 3.296875 12.625 3.34375 12.679688 C 3.386719 12.734375 3.433594 12.789062 3.484375 12.839844 C 3.53125 12.890625 3.585938 12.9375 3.640625 12.984375 C 3.695312 13.03125 3.75 13.074219 3.8125 13.117188 C 3.871094 13.15625 3.929688 13.191406 3.992188 13.226562 C 4.054688 13.261719 4.121094 13.292969 4.1875 13.320312 C 4.25 13.347656 4.320312 13.375 4.386719 13.394531 C 4.457031 13.414062 4.523438 13.433594 4.59375 13.445312 C 4.664062 13.460938 4.734375 13.472656 4.808594 13.480469 C 4.878906 13.484375 4.949219 13.488281 5.019531 13.488281 C 5.070312 13.488281 5.121094 13.488281 5.171875 13.484375 C 5.242188 13.480469 5.3125 13.46875 5.382812 13.457031 C 5.453125 13.445312 5.523438 13.429688 5.59375 13.410156 C 5.660156 13.390625 5.730469 13.371094 5.796875 13.34375 C 5.863281 13.316406 5.925781 13.289062 5.992188 13.257812 C 6.054688 13.222656 6.117188 13.1875 6.175781 13.148438 C 6.238281 13.109375 6.296875 13.070312 6.351562 13.027344 C 6.40625 12.980469 6.460938 12.933594 6.511719 12.882812 C 6.5625 12.835938 6.613281 12.78125 6.65625 12.726562 C 6.703125 12.671875 6.75 12.617188 6.789062 12.558594 C 6.828125 12.5 6.863281 12.4375 6.898438 12.375 C 6.933594 12.3125 6.964844 12.25 6.992188 12.183594 C 7.019531 12.117188 7.046875 12.046875 7.066406 11.980469 C 7.085938 11.914062 7.105469 11.84375 7.121094 11.773438 C 7.132812 11.703125 7.144531 11.632812 7.152344 11.5625 C 7.15625 11.488281 7.160156 11.417969 7.160156 11.347656 C 7.160156 11.296875 7.160156 11.246094 7.15625 11.195312 C 7.152344 11.125 7.140625 11.054688 7.128906 10.984375 C 7.117188 10.914062 7.101562 10.84375 7.082031 10.773438 C 7.0625 10.707031 7.042969 10.640625 7.015625 10.570312 C 6.992188 10.503906 6.960938 10.4375 6.929688 10.375 C 6.894531 10.3125 6.859375 10.25 6.824219 10.191406 C 6.785156 10.128906 6.742188 10.074219 6.699219 10.015625 C 6.65625 9.960938 6.605469 9.90625 6.558594 9.855469 C 6.507812 9.804688 6.453125 9.753906 6.402344 9.710938 C 6.34375 9.664062 6.289062 9.621094 6.230469 9.578125 C 6.171875 9.539062 6.109375 9.5 6.046875 9.46875 C 5.984375 9.433594 5.921875 9.402344 5.855469 9.375 C 5.789062 9.347656 5.722656 9.324219 5.652344 9.300781 C 5.585938 9.28125 5.515625 9.261719 5.445312 9.25 C 5.375 9.234375 5.304688 9.222656 5.234375 9.21875 C 5.164062 9.207031 5.09375 9.203125 5.019531 9.203125 Z M 5.019531 9.898438 C 5.421875 9.898438 5.78125 10.0625 6.042969 10.324219 C 6.304688 10.585938 6.46875 10.949219 6.46875 11.347656 C 6.46875 11.75 6.304688 12.109375 6.042969 12.371094 C 5.78125 12.632812 5.421875 12.796875 5.019531 12.796875 C 4.621094 12.796875 4.257812 12.632812 3.996094 12.371094 C 3.734375 12.109375 3.574219 11.75 3.574219 11.347656 C 3.574219 10.949219 3.734375 10.585938 3.996094 10.324219 C 4.257812 10.0625 4.621094 9.898438 5.019531 9.898438 Z M 5.019531 9.898438 "/>
<path style=" stroke:none;fill-rule:evenodd;fill:rgb(80%,80%,80%);fill-opacity:1;" d="M 8.308594 15.050781 C 8.382812 14.984375 8.488281 14.953125 8.558594 14.882812 C 9.007812 14.433594 9.375 13.894531 9.625 13.296875 C 9.878906 12.699219 10.015625 12.039062 10.015625 11.347656 C 10.015625 10.65625 9.878906 9.996094 9.625 9.398438 C 9.375 8.800781 9.007812 8.261719 8.558594 7.8125 C 8.105469 7.359375 7.566406 6.992188 6.96875 6.742188 C 6.371094 6.488281 5.714844 6.351562 5.019531 6.351562 C 4.328125 6.351562 3.671875 6.488281 3.070312 6.742188 C 2.472656 6.992188 1.9375 7.359375 1.484375 7.8125 C 1.257812 8.035156 1.128906 8.339844 0.949219 8.605469 L 0.949219 12.265625 C 0.949219 13.808594 2.191406 15.050781 3.738281 15.050781 Z M 5.019531 9.203125 C 5.09375 9.203125 5.164062 9.207031 5.234375 9.21875 C 5.304688 9.222656 5.375 9.234375 5.445312 9.25 C 5.515625 9.261719 5.585938 9.28125 5.652344 9.300781 C 5.722656 9.324219 5.789062 9.347656 5.855469 9.375 C 5.921875 9.402344 5.984375 9.433594 6.046875 9.46875 C 6.109375 9.5 6.171875 9.539062 6.230469 9.578125 C 6.289062 9.621094 6.34375 9.664062 6.402344 9.710938 C 6.453125 9.753906 6.507812 9.804688 6.558594 9.855469 C 6.605469 9.90625 6.65625 9.960938 6.699219 10.015625 C 6.742188 10.074219 6.785156 10.128906 6.824219 10.191406 C 6.859375 10.25 6.894531 10.3125 6.929688 10.375 C 6.960938 10.4375 6.992188 10.503906 7.015625 10.570312 C 7.042969 10.640625 7.0625 10.707031 7.082031 10.773438 C 7.101562 10.84375 7.117188 10.914062 7.128906 10.984375 C 7.140625 11.054688 7.152344 11.125 7.15625 11.195312 C 7.160156 11.246094 7.160156 11.296875 7.160156 11.347656 C 7.160156 11.417969 7.15625 11.488281 7.152344 11.5625 C 7.144531 11.632812 7.132812 11.703125 7.121094 11.773438 C 7.105469 11.84375 7.085938 11.914062 7.066406 11.980469 C 7.046875 12.046875 7.019531 12.117188 6.992188 12.183594 C 6.964844 12.25 6.933594 12.3125 6.898438 12.375 C 6.863281 12.4375 6.828125 12.5 6.789062 12.558594 C 6.75 12.617188 6.703125 12.671875 6.65625 12.726562 C 6.613281 12.78125 6.5625 12.835938 6.511719 12.882812 C 6.460938 12.933594 6.40625 12.980469 6.351562 13.027344 C 6.296875 13.070312 6.238281 13.109375 6.175781 13.148438 C 6.117188 13.1875 6.054688 13.222656 5.992188 13.257812 C 5.925781 13.289062 5.863281 13.316406 5.796875 13.34375 C 5.730469 13.371094 5.660156 13.390625 5.59375 13.410156 C 5.523438 13.429688 5.453125 13.445312 5.382812 13.457031 C 5.3125 13.46875 5.242188 13.480469 5.171875 13.484375 C 5.121094 13.488281 5.070312 13.488281 5.019531 13.488281 C 4.949219 13.488281 4.878906 13.484375 4.808594 13.480469 C 4.734375 13.472656 4.664062 13.460938 4.59375 13.445312 C 4.523438 13.433594 4.457031 13.414062 4.386719 13.394531 C 4.320312 13.375 4.25 13.347656 4.1875 13.320312 C 4.121094 13.292969 4.054688 13.261719 3.992188 13.226562 C 3.929688 13.191406 3.871094 13.15625 3.8125 13.117188 C 3.75 13.074219 3.695312 13.03125 3.640625 12.984375 C 3.585938 12.9375 3.53125 12.890625 3.484375 12.839844 C 3.433594 12.789062 3.386719 12.734375 3.34375 12.679688 C 3.296875 12.625 3.257812 12.566406 3.21875 12.503906 C 3.179688 12.445312 3.144531 12.382812 3.109375 12.320312 C 3.078125 12.253906 3.046875 12.1875 3.023438 12.125 C 3 12.058594 2.976562 11.988281 2.957031 11.921875 C 2.9375 11.851562 2.921875 11.78125 2.910156 11.710938 C 2.898438 11.640625 2.890625 11.570312 2.882812 11.5 C 2.878906 11.449219 2.878906 11.398438 2.878906 11.347656 C 2.878906 11.277344 2.882812 11.203125 2.890625 11.132812 C 2.894531 11.0625 2.90625 10.992188 2.921875 10.921875 C 2.9375 10.851562 2.953125 10.78125 2.972656 10.714844 C 2.996094 10.644531 3.019531 10.578125 3.046875 10.515625 C 3.078125 10.449219 3.105469 10.382812 3.140625 10.320312 C 3.175781 10.257812 3.210938 10.199219 3.253906 10.140625 C 3.292969 10.078125 3.335938 10.023438 3.382812 9.96875 C 3.429688 9.914062 3.476562 9.859375 3.527344 9.8125 C 3.578125 9.761719 3.632812 9.714844 3.6875 9.671875 C 3.746094 9.625 3.804688 9.582031 3.863281 9.546875 C 3.921875 9.507812 3.984375 9.46875 4.046875 9.4375 C 4.113281 9.40625 4.175781 9.375 4.246094 9.351562 C 4.3125 9.324219 4.378906 9.300781 4.449219 9.28125 C 4.515625 9.265625 4.585938 9.25 4.65625 9.234375 C 4.726562 9.222656 4.796875 9.21875 4.871094 9.210938 C 4.921875 9.207031 4.96875 9.207031 5.019531 9.203125 Z M 5.019531 9.203125 "/>
<path style=" stroke:none;fill-rule:evenodd;fill:rgb(29.803922%,59.215686%,14.901961%);fill-opacity:1;" d="M 15.050781 11.796875 L 9.925781 11.796875 C 9.878906 12.3125 9.820312 12.835938 9.625 13.296875 C 9.375 13.894531 9.007812 14.433594 8.558594 14.882812 C 8.488281 14.953125 8.382812 14.984375 8.308594 15.050781 L 12.265625 15.050781 C 13.808594 15.050781 15.050781 13.808594 15.050781 12.265625 Z M 15.050781 11.796875 "/>
<path style=" stroke:none;fill-rule:evenodd;fill:rgb(49.019608%,77.647059%,27.45098%);fill-opacity:1;" d="M 15.050781 10.960938 C 14.53125 10.792969 14.09375 10.628906 13.925781 10.617188 C 13.582031 10.589844 13.128906 10.699219 12.71875 10.820312 C 12.308594 10.9375 11.9375 11.070312 11.765625 11.082031 C 11.589844 11.09375 10.980469 11.082031 10.597656 11.046875 C 10.304688 11.019531 10.113281 10.996094 9.941406 10.976562 C 9.953125 11.105469 10.015625 11.21875 10.015625 11.347656 C 10.015625 11.507812 9.941406 11.640625 9.925781 11.796875 L 15.050781 11.796875 Z M 15.050781 10.960938 "/>
<path style=" stroke:none;fill-rule:evenodd;fill:rgb(24.313725%,73.72549%,90.980392%);fill-opacity:1;" d="M 3.738281 0.949219 C 2.191406 0.949219 0.949219 2.191406 0.949219 3.734375 L 0.949219 8.605469 C 1.128906 8.339844 1.257812 8.035156 1.484375 7.8125 C 1.9375 7.359375 2.472656 6.992188 3.070312 6.742188 C 3.671875 6.488281 4.328125 6.351562 5.019531 6.351562 C 5.714844 6.351562 6.371094 6.488281 6.96875 6.742188 C 7.566406 6.992188 8.105469 7.359375 8.558594 7.8125 C 9.007812 8.261719 9.375 8.800781 9.625 9.398438 C 9.828125 9.882812 9.902344 10.425781 9.941406 10.976562 C 10.113281 10.996094 10.304688 11.019531 10.597656 11.046875 C 10.980469 11.082031 11.589844 11.09375 11.765625 11.082031 C 11.9375 11.070312 12.308594 10.9375 12.71875 10.820312 C 13.128906 10.699219 13.582031 10.589844 13.925781 10.617188 C 14.09375 10.628906 14.53125 10.792969 15.050781 10.960938 L 15.050781 3.734375 C 15.050781 2.191406 13.808594 0.949219 12.265625 0.949219 Z M 3.738281 0.949219 "/>
<path style=" stroke:none;fill-rule:evenodd;fill:rgb(100%,100%,100%);fill-opacity:1;" d="M 13.015625 4.675781 C 13.015625 5.464844 12.378906 6.101562 11.59375 6.101562 C 10.808594 6.101562 10.171875 5.464844 10.171875 4.675781 C 10.171875 3.890625 10.808594 3.253906 11.59375 3.253906 C 12.378906 3.253906 13.015625 3.890625 13.015625 4.675781 Z M 13.015625 4.675781 "/>
</g>
</svg>
