<?xml version="1.0" encoding="UTF-8"?>
<svg xmlns="http://www.w3.org/2000/svg" xmlns:xlink="http://www.w3.org/1999/xlink" width="16pt" height="16pt" viewBox="0 0 16 16" version="1.1">
<g id="surface1">
<path style=" stroke:none;fill-rule:evenodd;fill:rgb(81.960784%,19.607843%,19.607843%);fill-opacity:1;" d="M 3.734375 0.949219 L 12.265625 0.949219 C 13.800781 0.949219 15.050781 2.199219 15.050781 3.734375 L 15.050781 12.265625 C 15.050781 13.800781 13.800781 15.050781 12.265625 15.050781 L 3.734375 15.050781 C 2.199219 15.050781 0.949219 13.800781 0.949219 12.265625 L 0.949219 3.734375 C 0.949219 2.199219 2.199219 0.949219 3.734375 0.949219 Z M 3.734375 0.949219 "/>
<path style=" stroke:none;fill-rule:nonzero;fill:rgb(100%,100%,100%);fill-opacity:1;" d="M 13.269531 9.621094 L 13.269531 10.027344 L 2.730469 10.027344 L 2.730469 9.621094 Z M 13.269531 9.621094 "/>
<path style=" stroke:none;fill-rule:nonzero;fill:rgb(100%,100%,100%);fill-opacity:1;" d="M 13.269531 10.835938 L 13.269531 11.242188 L 2.730469 11.242188 L 2.730469 10.835938 Z M 13.269531 10.835938 "/>
<path style=" stroke:none;fill-rule:nonzero;fill:rgb(100%,100%,100%);fill-opacity:1;" d="M 13.269531 12.054688 L 13.269531 12.457031 L 2.730469 12.457031 L 2.730469 12.054688 Z M 13.269531 12.054688 "/>
<path style=" stroke:none;fill-rule:nonzero;fill:rgb(100%,100%,100%);fill-opacity:1;" d="M 13.269531 5.972656 L 13.269531 6.378906 L 2.730469 6.378906 L 2.730469 5.972656 Z M 13.269531 5.972656 "/>
<path style=" stroke:none;fill-rule:nonzero;fill:rgb(100%,100%,100%);fill-opacity:1;" d="M 13.269531 7.1875 L 13.269531 7.59375 L 2.730469 7.59375 L 2.730469 7.1875 Z M 13.269531 7.1875 "/>
<path style=" stroke:none;fill-rule:nonzero;fill:rgb(100%,100%,100%);fill-opacity:1;" d="M 13.269531 8.40625 L 13.269531 8.8125 L 2.730469 8.8125 L 2.730469 8.40625 Z M 13.269531 8.40625 "/>
<path style=" stroke:none;fill-rule:nonzero;fill:rgb(100%,100%,100%);fill-opacity:1;" d="M 13.269531 4.757812 L 13.269531 5.164062 L 2.730469 5.164062 L 2.730469 4.757812 Z M 13.269531 4.757812 "/>
<path style=" stroke:none;fill-rule:nonzero;fill:rgb(100%,100%,100%);fill-opacity:1;" d="M 13.269531 3.542969 L 13.269531 3.945312 L 2.730469 3.945312 L 2.730469 3.542969 Z M 13.269531 3.542969 "/>
<path style=" stroke:none;fill-rule:nonzero;fill:rgb(100%,100%,100%);fill-opacity:1;" d="M 6.378906 13.269531 L 5.972656 13.269531 L 5.972656 2.730469 L 6.378906 2.730469 Z M 6.378906 13.269531 "/>
<path style=" stroke:none;fill-rule:nonzero;fill:rgb(100%,100%,100%);fill-opacity:1;" d="M 5.164062 13.269531 L 4.757812 13.269531 L 4.757812 2.730469 L 5.164062 2.730469 Z M 5.164062 13.269531 "/>
<path style=" stroke:none;fill-rule:nonzero;fill:rgb(100%,100%,100%);fill-opacity:1;" d="M 3.945312 13.269531 L 3.542969 13.269531 L 3.542969 2.730469 L 3.945312 2.730469 Z M 3.945312 13.269531 "/>
<path style=" stroke:none;fill-rule:nonzero;fill:rgb(100%,100%,100%);fill-opacity:1;" d="M 10.027344 13.269531 L 9.621094 13.269531 L 9.621094 2.730469 L 10.027344 2.730469 Z M 10.027344 13.269531 "/>
<path style=" stroke:none;fill-rule:nonzero;fill:rgb(100%,100%,100%);fill-opacity:1;" d="M 8.8125 13.269531 L 8.40625 13.269531 L 8.40625 2.730469 L 8.8125 2.730469 Z M 8.8125 13.269531 "/>
<path style=" stroke:none;fill-rule:nonzero;fill:rgb(100%,100%,100%);fill-opacity:1;" d="M 7.59375 13.269531 L 7.1875 13.269531 L 7.1875 2.730469 L 7.59375 2.730469 Z M 7.59375 13.269531 "/>
<path style=" stroke:none;fill-rule:nonzero;fill:rgb(100%,100%,100%);fill-opacity:1;" d="M 11.242188 13.269531 L 10.835938 13.269531 L 10.835938 2.730469 L 11.242188 2.730469 Z M 11.242188 13.269531 "/>
<path style=" stroke:none;fill-rule:nonzero;fill:rgb(100%,100%,100%);fill-opacity:1;" d="M 12.457031 13.269531 L 12.054688 13.269531 L 12.054688 2.730469 L 12.457031 2.730469 Z M 12.457031 13.269531 "/>
<path style=" stroke:none;fill-rule:nonzero;fill:rgb(71.764706%,71.764706%,71.764706%);fill-opacity:1;" d="M 12.863281 12.375 L 12.863281 3.625 C 12.863281 3.355469 12.59375 3.136719 12.253906 3.136719 L 3.746094 3.136719 C 3.40625 3.136719 3.136719 3.355469 3.136719 3.625 L 3.136719 12.375 C 3.136719 12.644531 3.40625 12.863281 3.746094 12.863281 L 12.253906 12.863281 C 12.59375 12.863281 12.863281 12.644531 12.863281 12.375 Z M 12.863281 12.375 "/>
<path style=" stroke:none;fill-rule:nonzero;fill:rgb(81.960784%,19.607843%,19.607843%);fill-opacity:1;" d="M 4.757812 4.351562 L 11.242188 4.351562 C 11.46875 4.351562 11.648438 4.53125 11.648438 4.757812 L 11.648438 11.242188 C 11.648438 11.46875 11.46875 11.648438 11.242188 11.648438 L 4.757812 11.648438 C 4.53125 11.648438 4.351562 11.46875 4.351562 11.242188 L 4.351562 4.757812 C 4.351562 4.53125 4.53125 4.351562 4.757812 4.351562 Z M 4.757812 4.351562 "/>
</g>
</svg>
