<?xml version="1.0" encoding="UTF-8"?>
<svg xmlns="http://www.w3.org/2000/svg" xmlns:xlink="http://www.w3.org/1999/xlink" width="16pt" height="16pt" viewBox="0 0 16 16" version="1.1">
<g id="surface1">
<path style=" stroke:none;fill-rule:evenodd;fill:rgb(78.039216%,29.019608%,70.588235%);fill-opacity:1;" d="M 3.734375 0.949219 L 12.265625 0.949219 C 13.800781 0.949219 15.050781 2.199219 15.050781 3.738281 L 15.050781 12.265625 C 15.050781 13.804688 13.800781 15.050781 12.265625 15.050781 L 3.734375 15.050781 C 2.199219 15.050781 0.949219 13.804688 0.949219 12.265625 L 0.949219 3.738281 C 0.949219 2.199219 2.199219 0.949219 3.734375 0.949219 Z M 3.734375 0.949219 "/>
<path style=" stroke:none;fill-rule:evenodd;fill:rgb(35.686275%,35.686275%,35.686275%);fill-opacity:1;" d="M 4.542969 15.050781 L 12.261719 15.050781 C 13.808594 15.050781 15.050781 13.808594 15.050781 12.265625 L 15.050781 3.738281 C 15.050781 2.191406 13.808594 0.949219 12.261719 0.949219 L 4.542969 0.949219 Z M 4.542969 15.050781 "/>
<path style=" stroke:none;fill-rule:evenodd;fill:rgb(41.960784%,41.960784%,41.960784%);fill-opacity:1;" d="M 4.542969 15.050781 L 4.542969 0.949219 L 3.734375 0.949219 C 2.191406 0.949219 0.949219 2.191406 0.949219 3.738281 L 0.949219 12.265625 C 0.949219 13.808594 2.191406 15.050781 3.734375 15.050781 Z M 4.542969 15.050781 "/>
<path style=" stroke:none;fill-rule:evenodd;fill:rgb(11.764706%,63.921569%,38.431373%);fill-opacity:1;" d="M 14.15625 11.230469 C 14.15625 12.886719 12.8125 14.230469 11.15625 14.230469 C 9.5 14.230469 8.15625 12.886719 8.15625 11.230469 C 8.15625 9.574219 9.5 8.230469 11.15625 8.230469 C 12.8125 8.230469 14.15625 9.574219 14.15625 11.230469 Z M 14.15625 11.230469 "/>
<path style=" stroke:none;fill-rule:nonzero;fill:rgb(100%,100%,100%);fill-opacity:1;" d="M 9.65625 12.0625 L 9.65625 12.730469 L 10.324219 12.730469 L 12.011719 11.042969 L 11.34375 10.375 Z M 12.601562 10.453125 C 12.671875 10.382812 12.671875 10.269531 12.601562 10.199219 L 12.183594 9.78125 C 12.113281 9.710938 12 9.710938 11.929688 9.78125 L 11.582031 10.132812 L 12.25 10.800781 Z M 12.601562 10.453125 "/>
</g>
</svg>
