<?xml version="1.0" encoding="UTF-8"?>
<svg xmlns="http://www.w3.org/2000/svg" xmlns:xlink="http://www.w3.org/1999/xlink" width="16pt" height="16pt" viewBox="0 0 16 16" version="1.1">
<g id="surface1">
<path style=" stroke:none;fill-rule:evenodd;fill:rgb(25.882353%,41.960784%,39.607843%);fill-opacity:1;" d="M 3.734375 0.949219 L 12.265625 0.949219 C 13.800781 0.949219 15.050781 2.199219 15.050781 3.734375 L 15.050781 12.265625 C 15.050781 13.800781 13.800781 15.050781 12.265625 15.050781 L 3.734375 15.050781 C 2.199219 15.050781 0.949219 13.800781 0.949219 12.265625 L 0.949219 3.734375 C 0.949219 2.199219 2.199219 0.949219 3.734375 0.949219 Z M 3.734375 0.949219 "/>
<path style=" stroke:none;fill-rule:nonzero;fill:rgb(34.509804%,50.196078%,48.627451%);fill-opacity:1;" d="M 3.777344 2.679688 C 3.46875 2.75 3.222656 2.9375 3.25 3.292969 L 3.664062 9.910156 C 3.679688 10.121094 3.78125 10.3125 3.9375 10.429688 L 7.65625 13.203125 C 7.863281 13.359375 8.136719 13.359375 8.34375 13.203125 L 12.0625 10.429688 C 12.21875 10.3125 12.320312 10.121094 12.335938 9.910156 L 12.75 3.292969 C 12.777344 2.9375 12.53125 2.75 12.222656 2.679688 Z M 3.777344 2.679688 "/>
<path style=" stroke:none;fill-rule:evenodd;fill:rgb(92.54902%,92.54902%,92.54902%);fill-opacity:1;" d="M 8.265625 5.605469 L 7.472656 6.402344 L 8.265625 6.402344 L 8.527344 6.671875 L 9.054688 5.871094 L 8.792969 5.605469 Z M 9.320312 5.871094 L 8.792969 6.671875 L 9.054688 7.46875 L 9.847656 6.671875 L 9.847656 6.9375 L 9.054688 7.734375 L 9.320312 8.265625 L 10.375 7.203125 L 10.375 7.46875 L 9.320312 8.53125 L 10.375 8.53125 L 10.90625 8 L 10.90625 7.46875 L 10.640625 7.203125 L 10.640625 6.671875 L 10.109375 6.402344 L 9.847656 5.871094 Z M 6.945312 6.671875 L 6.679688 6.9375 L 7.207031 8.796875 L 5.027344 11.242188 L 6.660156 12.460938 L 8.792969 9.597656 L 9.320312 9.597656 L 9.582031 9.328125 L 10.109375 9.0625 L 10.375 8.796875 L 9.054688 8.796875 L 8.792969 8 L 8.527344 8 L 8.265625 8.796875 L 7.734375 8.796875 L 8 8 L 7.472656 7.46875 L 7.734375 7.203125 L 8.265625 7.734375 L 8.792969 7.734375 L 8.792969 7.46875 L 8.265625 6.671875 Z M 6.417969 7.203125 L 6.679688 8.53125 L 6.679688 8.796875 L 4.453125 10.816406 L 4.601562 10.921875 C 4.921875 10.632812 6.160156 9.5 6.945312 8.796875 Z M 8.265625 9.597656 L 8.527344 9.597656 L 7.207031 11.191406 Z M 8.265625 9.597656 "/>
</g>
</svg>
