<?xml version="1.0" encoding="UTF-8"?>
<svg xmlns="http://www.w3.org/2000/svg" xmlns:xlink="http://www.w3.org/1999/xlink" width="16pt" height="16pt" viewBox="0 0 16 16" version="1.1">
<g id="surface1">
<path style=" stroke:none;fill-rule:evenodd;fill:rgb(0.784314%,52.54902%,76.078431%);fill-opacity:1;" d="M 3.734375 0.949219 L 12.265625 0.949219 C 13.800781 0.949219 15.050781 2.199219 15.050781 3.734375 L 15.050781 12.265625 C 15.050781 13.800781 13.800781 15.050781 12.265625 15.050781 L 3.734375 15.050781 C 2.199219 15.050781 0.949219 13.800781 0.949219 12.265625 L 0.949219 3.734375 C 0.949219 2.199219 2.199219 0.949219 3.734375 0.949219 Z M 3.734375 0.949219 "/>
<path style=" stroke:none;fill-rule:nonzero;fill:rgb(100%,100%,100%);fill-opacity:1;" d="M 6.25 2.9375 C 5.921875 2.9375 5.664062 3.199219 5.664062 3.523438 L 5.664062 8.972656 C 5.664062 9.296875 5.921875 9.558594 6.25 9.558594 L 11.699219 9.558594 C 12.023438 9.558594 12.28125 9.296875 12.28125 8.972656 L 12.28125 4.105469 L 13.453125 2.9375 Z M 6.25 2.9375 "/>
<path style=" stroke:none;fill-rule:nonzero;fill:rgb(20.784314%,72.54902%,96.078431%);fill-opacity:1;" d="M 2.546875 6.441406 L 3.71875 7.609375 L 3.71875 12.476562 C 3.71875 12.800781 3.976562 13.0625 4.300781 13.0625 L 9.75 13.0625 C 10.078125 13.0625 10.335938 12.800781 10.335938 12.476562 L 10.335938 7.027344 C 10.335938 6.703125 10.078125 6.441406 9.75 6.441406 Z M 2.546875 6.441406 "/>
<path style=" stroke:none;fill-rule:nonzero;fill:rgb(68.235294%,89.019608%,98.431373%);fill-opacity:1;" d="M 4.886719 8.390625 L 4.886719 8.78125 L 9.167969 8.78125 L 9.167969 8.390625 Z M 4.886719 9.558594 L 4.886719 9.945312 L 9.167969 9.945312 L 9.167969 9.558594 Z M 4.886719 10.726562 L 4.886719 11.113281 L 8.15625 11.113281 L 8.15625 10.726562 Z M 4.886719 10.726562 "/>
</g>
</svg>
