<?xml version="1.0" encoding="UTF-8"?>
<svg xmlns="http://www.w3.org/2000/svg" xmlns:xlink="http://www.w3.org/1999/xlink" width="16pt" height="16pt" viewBox="0 0 16 16" version="1.1">
<g id="surface1">
<path style=" stroke:none;fill-rule:evenodd;fill:rgb(80%,94.117647%,74.509804%);fill-opacity:1;" d="M 3.734375 0.949219 L 12.265625 0.949219 C 13.800781 0.949219 15.050781 2.199219 15.050781 3.734375 L 15.050781 12.265625 C 15.050781 13.800781 13.800781 15.050781 12.265625 15.050781 L 3.734375 15.050781 C 2.199219 15.050781 0.949219 13.800781 0.949219 12.265625 L 0.949219 3.734375 C 0.949219 2.199219 2.199219 0.949219 3.734375 0.949219 Z M 3.734375 0.949219 "/>
<path style=" stroke:none;fill-rule:nonzero;fill:rgb(29.411765%,68.235294%,30.980392%);fill-opacity:1;" d="M 6.25 2.9375 C 5.921875 2.9375 5.664062 3.199219 5.664062 3.523438 L 5.664062 8.972656 C 5.664062 9.296875 5.921875 9.558594 6.25 9.558594 L 11.699219 9.558594 C 12.023438 9.558594 12.28125 9.296875 12.28125 8.972656 L 12.28125 4.105469 L 13.453125 2.9375 Z M 6.25 2.9375 "/>
<path style=" stroke:none;fill-rule:nonzero;fill:rgb(54.117647%,76.078431%,28.627451%);fill-opacity:1;" d="M 2.546875 6.441406 L 3.71875 7.609375 L 3.71875 12.476562 C 3.71875 12.800781 3.976562 13.0625 4.300781 13.0625 L 9.75 13.0625 C 10.078125 13.0625 10.335938 12.800781 10.335938 12.476562 L 10.335938 7.027344 C 10.335938 6.703125 10.078125 6.441406 9.75 6.441406 Z M 2.546875 6.441406 "/>
<path style=" stroke:none;fill-rule:evenodd;fill:rgb(100%,100%,100%);fill-opacity:1;" d="M 6.515625 7.839844 L 6.304688 8.96875 L 5.136719 8.96875 L 5.136719 9.34375 L 6.234375 9.34375 L 6.023438 10.472656 L 5.136719 10.472656 L 5.136719 10.851562 L 5.953125 10.851562 L 5.742188 11.980469 L 6.140625 11.980469 L 6.351562 10.851562 L 7.347656 10.851562 L 7.136719 11.980469 L 7.53125 11.980469 L 7.746094 10.851562 L 9.113281 10.851562 L 9.113281 10.472656 L 7.8125 10.472656 L 8.027344 9.34375 L 9.113281 9.34375 L 9.113281 8.96875 L 8.09375 8.96875 L 8.304688 7.839844 L 7.90625 7.839844 L 7.699219 8.96875 L 6.703125 8.96875 L 6.914062 7.839844 Z M 6.632812 9.34375 L 7.628906 9.34375 L 7.417969 10.472656 L 6.421875 10.472656 Z M 6.632812 9.34375 "/>
</g>
</svg>
