<?xml version="1.0" encoding="UTF-8"?>
<svg xmlns="http://www.w3.org/2000/svg" xmlns:xlink="http://www.w3.org/1999/xlink" width="16pt" height="16pt" viewBox="0 0 16 16" version="1.1">
<g id="surface1">
<path style=" stroke:none;fill-rule:evenodd;fill:rgb(0.784314%,52.54902%,76.078431%);fill-opacity:1;" d="M 3.734375 0.949219 L 12.265625 0.949219 C 13.800781 0.949219 15.050781 2.199219 15.050781 3.734375 L 15.050781 12.265625 C 15.050781 13.800781 13.800781 15.050781 12.265625 15.050781 L 3.734375 15.050781 C 2.199219 15.050781 0.949219 13.800781 0.949219 12.265625 L 0.949219 3.734375 C 0.949219 2.199219 2.199219 0.949219 3.734375 0.949219 Z M 3.734375 0.949219 "/>
<path style=" stroke:none;fill-rule:nonzero;fill:rgb(80%,80%,80%);fill-opacity:1;" d="M 12.761719 8 C 12.761719 5.371094 10.628906 3.238281 8 3.238281 C 5.367188 3.238281 3.234375 5.371094 3.234375 8 C 3.234375 10.628906 5.367188 12.761719 8 12.761719 C 10.628906 12.761719 12.761719 10.628906 12.761719 8 Z M 12.761719 8 "/>
<path style=" stroke:none;fill-rule:nonzero;fill:rgb(94.901961%,94.901961%,94.901961%);fill-opacity:1;" d="M 7.550781 5.28125 C 6.855469 5.261719 6.1875 5.402344 5.574219 5.546875 C 4.664062 5.761719 3.171875 6.421875 3.171875 6.421875 C 2.808594 6.582031 2.804688 7.09375 3.160156 7.257812 C 3.675781 7.519531 4.453125 7.628906 4.5625 8.222656 C 4.722656 9.09375 3.804688 9.894531 3.316406 10.703125 C 3.027344 11.164062 3.644531 11.65625 4.027344 11.265625 C 4.027344 11.265625 6.378906 9.078125 9.453125 8.996094 C 10.023438 8.980469 10.785156 9.234375 11.382812 9.507812 C 11.976562 9.785156 12.402344 9.992188 12.402344 9.992188 C 12.777344 10.238281 13.242188 9.742188 13.0625 9.328125 C 12.183594 7.269531 10.359375 5.578125 7.851562 5.300781 L 7.847656 5.300781 C 7.75 5.289062 7.648438 5.28125 7.550781 5.28125 Z M 7.550781 5.28125 "/>
</g>
</svg>
