<?xml version="1.0" encoding="UTF-8"?>
<svg xmlns="http://www.w3.org/2000/svg" xmlns:xlink="http://www.w3.org/1999/xlink" width="16pt" height="16pt" viewBox="0 0 16 16" version="1.1">
<g id="surface1">
<path style=" stroke:none;fill-rule:evenodd;fill:rgb(98.039216%,36.078431%,36.078431%);fill-opacity:1;" d="M 3.734375 0.949219 L 12.265625 0.949219 C 13.800781 0.949219 15.050781 2.199219 15.050781 3.734375 L 15.050781 12.265625 C 15.050781 13.800781 13.800781 15.050781 12.265625 15.050781 L 3.734375 15.050781 C 2.199219 15.050781 0.949219 13.800781 0.949219 12.265625 L 0.949219 3.734375 C 0.949219 2.199219 2.199219 0.949219 3.734375 0.949219 Z M 3.734375 0.949219 "/>
<path style=" stroke:none;fill-rule:nonzero;fill:rgb(100%,75.294118%,100%);fill-opacity:1;" d="M 5.429688 4 C 5.375 4 5.320312 4 5.265625 4.003906 C 4.109375 4.078125 2.84375 5.539062 2.269531 7.46875 C 1.621094 9.660156 2.078125 11.671875 3.292969 11.964844 C 4.066406 12.148438 5 11.59375 5.75 10.5 L 10.25 10.5 C 11 11.59375 11.933594 12.148438 12.703125 11.964844 C 13.921875 11.671875 14.378906 9.660156 13.730469 7.46875 C 13.078125 5.28125 11.5625 3.742188 10.34375 4.035156 C 9.777344 4.171875 9.351562 4.699219 9.152344 5.5 L 6.847656 5.5 C 6.648438 4.699219 6.21875 4.171875 5.65625 4.035156 C 5.582031 4.015625 5.507812 4.007812 5.429688 4 Z M 6.972656 6.5 L 8.972656 6.5 L 8.972656 8 L 9.472656 8 L 7.972656 9.5 L 6.472656 8 L 6.972656 8 Z M 6.972656 6.5 "/>
</g>
</svg>
