<?xml version="1.0" encoding="UTF-8"?>
<svg xmlns="http://www.w3.org/2000/svg" xmlns:xlink="http://www.w3.org/1999/xlink" width="16pt" height="16pt" viewBox="0 0 16 16" version="1.1">
<g id="surface1">
<path style=" stroke:none;fill-rule:evenodd;fill:rgb(40.392157%,12.941176%,40.784314%);fill-opacity:1;" d="M 3.734375 0.949219 L 12.265625 0.949219 C 13.800781 0.949219 15.050781 2.199219 15.050781 3.734375 L 15.050781 12.265625 C 15.050781 13.800781 13.800781 15.050781 12.265625 15.050781 L 3.734375 15.050781 C 2.199219 15.050781 0.949219 13.800781 0.949219 12.265625 L 0.949219 3.734375 C 0.949219 2.199219 2.199219 0.949219 3.734375 0.949219 Z M 3.734375 0.949219 "/>
<path style=" stroke:none;fill-rule:nonzero;fill:rgb(100%,100%,100%);fill-opacity:1;" d="M 8 3 C 5.238281 3 3 5.238281 3 8 C 3 10.761719 5.238281 13 8 13 C 10.761719 13 13 10.761719 13 8 C 13 5.238281 10.761719 3 8 3 Z M 6.316406 5 C 6.371094 5 6.421875 5.015625 6.46875 5.042969 L 10.84375 7.710938 C 10.9375 7.769531 11 7.878906 11 8 C 11 8.121094 10.9375 8.230469 10.84375 8.289062 L 6.46875 10.957031 C 6.371094 11.015625 6.25 11.015625 6.15625 10.953125 C 6.058594 10.894531 6 10.785156 6 10.667969 L 6 5.332031 C 6 5.246094 6.03125 5.15625 6.09375 5.09375 C 6.152344 5.03125 6.234375 5 6.316406 5 Z M 6.316406 5 "/>
</g>
</svg>
