<?xml version="1.0" encoding="UTF-8"?>
<svg xmlns="http://www.w3.org/2000/svg" xmlns:xlink="http://www.w3.org/1999/xlink" width="16pt" height="16pt" viewBox="0 0 16 16" version="1.1">
<g id="surface1">
<path style=" stroke:none;fill-rule:evenodd;fill:rgb(90.588235%,29.803922%,23.529412%);fill-opacity:1;" d="M 3.734375 0.949219 L 12.265625 0.949219 C 13.800781 0.949219 15.050781 2.199219 15.050781 3.734375 L 15.050781 12.265625 C 15.050781 13.800781 13.800781 15.050781 12.265625 15.050781 L 3.734375 15.050781 C 2.199219 15.050781 0.949219 13.800781 0.949219 12.265625 L 0.949219 3.734375 C 0.949219 2.199219 2.199219 0.949219 3.734375 0.949219 Z M 3.734375 0.949219 "/>
<path style=" stroke:none;fill-rule:evenodd;fill:rgb(100%,100%,100%);fill-opacity:1;" d="M 6.753906 10.734375 C 6.753906 10.734375 6.390625 10.957031 7.011719 11.03125 C 7.765625 11.121094 8.148438 11.109375 8.976562 10.941406 C 8.976562 10.941406 9.195312 11.085938 9.5 11.210938 C 7.640625 12.050781 5.296875 11.164062 6.753906 10.734375 Z M 6.753906 10.734375 "/>
<path style=" stroke:none;fill-rule:evenodd;fill:rgb(100%,100%,100%);fill-opacity:1;" d="M 6.527344 9.640625 C 6.527344 9.640625 6.121094 9.957031 6.742188 10.023438 C 7.546875 10.109375 8.179688 10.117188 9.277344 9.894531 C 9.277344 9.894531 9.429688 10.058594 9.667969 10.144531 C 7.421875 10.839844 4.921875 10.203125 6.527344 9.640625 Z M 6.527344 9.640625 "/>
<path style=" stroke:none;fill-rule:evenodd;fill:rgb(100%,100%,100%);fill-opacity:1;" d="M 8.441406 7.78125 C 8.898438 8.335938 8.320312 8.835938 8.320312 8.835938 C 8.320312 8.835938 9.484375 8.203125 8.949219 7.410156 C 8.453125 6.671875 8.070312 6.308594 10.140625 5.042969 C 10.140625 5.042969 6.890625 5.898438 8.441406 7.78125 Z M 8.441406 7.78125 "/>
<path style=" stroke:none;fill-rule:evenodd;fill:rgb(100%,100%,100%);fill-opacity:1;" d="M 10.898438 11.542969 C 10.898438 11.542969 11.167969 11.777344 10.601562 11.957031 C 9.53125 12.296875 6.140625 12.402344 5.199219 11.96875 C 4.859375 11.8125 5.492188 11.597656 5.695312 11.554688 C 5.902344 11.507812 6.019531 11.515625 6.019531 11.515625 C 5.644531 11.234375 3.585938 12.0625 4.976562 12.300781 C 8.765625 12.949219 11.882812 12.011719 10.898438 11.542969 Z M 10.898438 11.542969 "/>
<path style=" stroke:none;fill-rule:evenodd;fill:rgb(100%,100%,100%);fill-opacity:1;" d="M 6.929688 8.503906 C 6.929688 8.503906 5.203125 8.9375 6.316406 9.09375 C 6.789062 9.160156 7.726562 9.144531 8.601562 9.066406 C 9.3125 9.003906 10.03125 8.867188 10.03125 8.867188 C 10.03125 8.867188 9.78125 8.984375 9.597656 9.113281 C 7.84375 9.597656 4.460938 9.375 5.4375 8.875 C 6.257812 8.457031 6.929688 8.503906 6.929688 8.503906 Z M 6.929688 8.503906 "/>
<path style=" stroke:none;fill-rule:evenodd;fill:rgb(100%,100%,100%);fill-opacity:1;" d="M 10.023438 10.328125 C 11.804688 9.351562 10.980469 8.414062 10.40625 8.542969 C 10.265625 8.570312 10.203125 8.597656 10.203125 8.597656 C 10.203125 8.597656 10.253906 8.511719 10.355469 8.476562 C 11.492188 8.054688 12.367188 9.71875 9.988281 10.375 C 9.988281 10.375 10.015625 10.347656 10.023438 10.328125 Z M 10.023438 10.328125 "/>
<path style=" stroke:none;fill-rule:evenodd;fill:rgb(100%,100%,100%);fill-opacity:1;" d="M 8.949219 3 C 8.949219 3 9.9375 4.039062 8.015625 5.636719 C 6.472656 6.921875 7.664062 7.652344 8.015625 8.484375 C 7.113281 7.632812 6.453125 6.878906 6.898438 6.175781 C 7.546875 5.148438 9.347656 4.652344 8.949219 3 Z M 8.949219 3 "/>
<path style=" stroke:none;fill-rule:evenodd;fill:rgb(100%,100%,100%);fill-opacity:1;" d="M 7.105469 12.96875 C 8.8125 13.082031 11.4375 12.90625 11.5 12.050781 C 11.5 12.050781 11.378906 12.375 10.085938 12.632812 C 8.628906 12.921875 6.828125 12.886719 5.761719 12.703125 C 5.761719 12.703125 5.980469 12.890625 7.105469 12.96875 Z M 7.105469 12.96875 "/>
</g>
</svg>
