<?xml version="1.0" encoding="UTF-8"?>
<svg xmlns="http://www.w3.org/2000/svg" xmlns:xlink="http://www.w3.org/1999/xlink" width="16pt" height="16pt" viewBox="0 0 16 16" version="1.1">
<g id="surface1">
<path style=" stroke:none;fill-rule:evenodd;fill:rgb(21.568627%,62.745098%,94.901961%);fill-opacity:1;" d="M 3.734375 0.949219 L 12.265625 0.949219 C 13.800781 0.949219 15.050781 2.199219 15.050781 3.734375 L 15.050781 12.265625 C 15.050781 13.800781 13.800781 15.050781 12.265625 15.050781 L 3.734375 15.050781 C 2.199219 15.050781 0.949219 13.800781 0.949219 12.265625 L 0.949219 3.734375 C 0.949219 2.199219 2.199219 0.949219 3.734375 0.949219 Z M 3.734375 0.949219 "/>
<path style=" stroke:none;fill-rule:nonzero;fill:rgb(63.529412%,95.686275%,41.568627%);fill-opacity:1;" d="M 5.429688 2.71875 C 5.28125 2.792969 5.132812 2.871094 4.992188 2.953125 L 5.046875 2.953125 L 5.078125 3.046875 L 4.996094 3.125 L 5.347656 3.136719 L 5.402344 3.261719 L 5.003906 3.246094 L 4.984375 3.148438 L 4.753906 3.097656 C 4.671875 3.152344 4.59375 3.210938 4.515625 3.269531 L 4.65625 3.269531 L 4.65625 3.359375 L 4.59375 3.441406 L 4.304688 3.441406 L 4.304688 3.429688 C 3.503906 4.085938 2.898438 4.949219 2.558594 5.929688 L 2.589844 5.941406 L 2.589844 6.410156 L 2.824219 6.8125 L 3.015625 6.84375 L 3.039062 6.703125 L 2.8125 6.355469 L 2.769531 6.015625 L 2.902344 6.015625 L 2.957031 6.367188 L 3.285156 6.84375 L 3.203125 6.996094 L 3.40625 7.3125 L 3.921875 7.441406 L 3.921875 7.359375 L 4.128906 7.386719 L 4.109375 7.535156 L 4.269531 7.5625 L 4.519531 7.632812 L 4.875 8.035156 L 5.324219 8.070312 L 5.367188 8.4375 L 5.058594 8.65625 L 5.046875 8.984375 L 5 9.183594 L 5.445312 9.742188 L 5.480469 9.9375 C 5.480469 9.9375 5.640625 9.980469 5.664062 9.980469 C 5.683594 9.980469 6.023438 10.238281 6.023438 10.238281 L 6.023438 11.25 L 6.148438 11.285156 L 6.0625 11.75 L 6.269531 12.027344 L 6.234375 12.488281 L 6.503906 12.96875 L 6.851562 13.269531 C 6.855469 13.273438 6.863281 13.273438 6.871094 13.273438 L 7.203125 13.28125 L 7.238281 13.167969 L 6.980469 12.949219 L 6.996094 12.84375 L 7.042969 12.710938 L 7.050781 12.574219 L 6.875 12.570312 L 6.789062 12.457031 L 6.933594 12.316406 L 6.953125 12.214844 L 6.792969 12.167969 L 6.800781 12.070312 L 7.03125 12.035156 L 7.382812 11.863281 L 7.5 11.648438 L 7.867188 11.179688 L 7.78125 10.808594 L 7.894531 10.613281 L 8.234375 10.625 L 8.460938 10.441406 L 8.535156 9.730469 L 8.789062 9.410156 L 8.832031 9.203125 L 8.601562 9.128906 L 8.449219 8.878906 L 7.929688 8.875 L 7.519531 8.71875 L 7.5 8.421875 L 7.359375 8.183594 L 6.988281 8.175781 L 6.773438 7.839844 L 6.582031 7.746094 L 6.574219 7.847656 L 6.226562 7.871094 L 6.097656 7.691406 L 5.734375 7.617188 L 5.4375 7.964844 L 4.96875 7.882812 L 4.933594 7.351562 L 4.589844 7.296875 L 4.726562 7.035156 L 4.6875 6.882812 L 4.234375 7.1875 L 3.953125 7.152344 L 3.851562 6.929688 L 3.914062 6.699219 L 4.070312 6.410156 L 4.429688 6.230469 L 5.125 6.230469 L 5.125 6.441406 L 5.375 6.558594 L 5.355469 6.195312 L 5.535156 6.011719 L 5.898438 5.773438 L 5.921875 5.605469 L 6.285156 5.226562 L 6.671875 5.015625 L 6.636719 4.984375 L 6.898438 4.738281 L 6.992188 4.765625 L 7.039062 4.820312 L 7.136719 4.707031 L 7.160156 4.699219 L 7.050781 4.683594 L 6.941406 4.644531 L 6.941406 4.539062 L 7 4.492188 L 7.128906 4.492188 L 7.1875 4.515625 L 7.238281 4.621094 L 7.300781 4.609375 L 7.300781 4.601562 L 7.320312 4.609375 L 7.5 4.582031 L 7.527344 4.492188 L 7.628906 4.519531 L 7.628906 4.613281 L 7.53125 4.679688 L 7.546875 4.785156 L 7.875 4.886719 C 7.875 4.886719 7.875 4.886719 7.875 4.890625 L 7.953125 4.882812 L 7.957031 4.742188 L 7.695312 4.625 L 7.683594 4.554688 L 7.898438 4.480469 L 7.90625 4.273438 L 7.683594 4.136719 L 7.667969 3.789062 L 7.359375 3.941406 L 7.246094 3.941406 L 7.273438 3.675781 L 6.855469 3.578125 L 6.679688 3.707031 L 6.679688 4.109375 L 6.367188 4.210938 L 6.242188 4.46875 L 6.109375 4.492188 L 6.109375 4.15625 L 5.8125 4.117188 L 5.667969 4.023438 L 5.609375 3.804688 L 6.132812 3.496094 L 6.390625 3.417969 L 6.414062 3.589844 L 6.558594 3.582031 L 6.570312 3.496094 L 6.71875 3.476562 L 6.722656 3.445312 L 6.65625 3.417969 L 6.640625 3.328125 L 6.828125 3.3125 L 6.9375 3.195312 L 6.980469 3.152344 L 7.367188 3.101562 L 7.539062 3.25 L 7.089844 3.488281 L 7.660156 3.625 L 7.734375 3.429688 L 7.984375 3.429688 L 8.074219 3.265625 L 7.894531 3.21875 L 7.894531 3.007812 L 7.34375 2.765625 L 6.960938 2.808594 L 6.746094 2.921875 L 6.761719 3.195312 L 6.53125 3.160156 L 6.5 3.007812 L 6.714844 2.8125 L 6.324219 2.792969 L 6.210938 2.828125 L 6.160156 2.960938 L 6.308594 2.984375 L 6.28125 3.132812 L 6.03125 3.144531 L 5.992188 3.246094 L 5.628906 3.253906 C 5.628906 3.253906 5.617188 3.046875 5.605469 3.046875 C 5.589844 3.046875 5.886719 3.042969 5.886719 3.042969 L 6.105469 2.832031 L 5.984375 2.773438 L 5.828125 2.925781 L 5.570312 2.910156 Z M 11.5 3.53125 L 11.320312 3.601562 L 11.207031 3.726562 L 11.234375 3.871094 L 11.375 3.890625 L 11.457031 4.101562 L 11.699219 4.003906 L 11.738281 4.289062 L 11.667969 4.289062 L 11.46875 4.257812 L 11.25 4.296875 L 11.035156 4.597656 L 10.730469 4.644531 L 10.6875 4.90625 L 10.8125 4.9375 L 10.777344 5.105469 L 10.472656 5.046875 L 10.195312 5.105469 L 10.136719 5.261719 L 10.1875 5.585938 L 10.347656 5.664062 L 10.621094 5.660156 L 10.808594 5.644531 L 10.863281 5.496094 L 11.152344 5.121094 L 11.34375 5.160156 L 11.53125 4.992188 L 11.5625 5.125 L 12.023438 5.4375 L 11.96875 5.511719 L 11.761719 5.5 L 11.839844 5.613281 L 11.96875 5.640625 L 12.117188 5.578125 L 12.113281 5.398438 L 12.179688 5.363281 L 12.125 5.308594 L 11.820312 5.136719 L 11.738281 4.90625 L 11.996094 4.90625 L 12.078125 4.988281 L 12.296875 5.179688 L 12.304688 5.40625 L 12.53125 5.652344 L 12.617188 5.316406 L 12.777344 5.234375 L 12.804688 5.503906 L 12.957031 5.671875 L 13.03125 5.671875 C 12.824219 5.160156 12.546875 4.683594 12.199219 4.253906 L 11.828125 4.25 L 11.800781 4.167969 L 12.023438 4.054688 C 11.859375 3.871094 11.6875 3.695312 11.5 3.53125 Z M 4.652344 3.589844 C 4.664062 3.589844 4.652344 3.71875 4.652344 3.71875 L 4.359375 3.734375 L 4.304688 3.671875 L 4.511719 3.609375 C 4.511719 3.609375 4.640625 3.589844 4.652344 3.589844 Z M 5.003906 4.214844 L 5.144531 4.25 L 5.09375 4.4375 L 4.945312 4.484375 L 4.847656 4.289062 Z M 5.386719 4.660156 L 5.617188 4.660156 L 5.617188 4.730469 L 5.667969 4.730469 L 5.667969 4.851562 L 5.316406 4.851562 L 5.183594 4.816406 L 5.21875 4.730469 Z M 5.730469 4.710938 L 5.851562 4.824219 L 5.730469 4.851562 Z M 6 4.882812 L 6.089844 4.9375 L 6.015625 5 L 5.945312 4.9375 Z M 5.320312 4.902344 L 5.515625 4.902344 L 5.265625 5.25 L 5.164062 5.195312 L 5.183594 5.046875 Z M 5.632812 4.902344 L 5.832031 4.902344 L 5.832031 5.015625 L 5.742188 5.074219 L 5.632812 5.09375 Z M 5.878906 5.03125 L 5.894531 5.03125 L 6.117188 5.09375 L 6.117188 5.210938 L 5.929688 5.210938 L 5.878906 5.136719 Z M 5.785156 5.136719 L 5.785156 5.25 L 5.703125 5.335938 L 5.515625 5.335938 L 5.546875 5.207031 L 5.632812 5.199219 L 5.652344 5.15625 Z M 11.613281 5.621094 L 10.953125 5.671875 L 10.75 5.78125 L 10.484375 5.78125 L 10.359375 5.769531 L 10.039062 5.949219 L 10.039062 6.28125 L 9.386719 6.753906 L 9.441406 6.953125 L 9.574219 6.953125 L 9.539062 7.144531 L 9.445312 7.179688 L 9.4375 7.683594 L 10.003906 8.324219 L 10.25 8.324219 L 10.265625 8.285156 L 10.703125 8.285156 L 10.832031 8.167969 L 11.082031 8.167969 L 11.21875 8.304688 L 11.589844 8.34375 L 11.542969 8.839844 L 11.953125 9.574219 L 11.738281 9.988281 L 11.75 10.1875 L 11.921875 10.359375 L 11.921875 10.828125 L 12.148438 11.132812 L 12.148438 11.339844 C 12.984375 10.335938 13.4375 9.070312 13.441406 7.765625 C 13.4375 7.222656 13.359375 6.6875 13.203125 6.167969 L 12.921875 6.167969 L 12.636719 5.953125 L 12.335938 5.984375 L 12.335938 6.167969 L 12.242188 6.167969 L 12.136719 6.09375 L 11.613281 5.960938 Z M 11.613281 5.621094 "/>
<path style=" stroke:none;fill-rule:nonzero;fill:rgb(100%,78.823529%,12.941176%);fill-opacity:1;" d="M 14.023438 11.132812 C 14.023438 12.789062 12.679688 14.132812 11.023438 14.132812 C 9.367188 14.132812 8.023438 12.789062 8.023438 11.132812 C 8.023438 9.476562 9.367188 8.132812 11.023438 8.132812 C 12.679688 8.132812 14.023438 9.476562 14.023438 11.132812 Z M 14.023438 11.132812 "/>
<path style=" stroke:none;fill-rule:nonzero;fill:rgb(18.039216%,18.039216%,18.039216%);fill-opacity:1;" d="M 11.015625 12.632812 L 9.898438 11.132812 L 10.648438 11.132812 L 10.648438 9.632812 L 11.398438 9.632812 L 11.398438 11.132812 L 12.148438 11.132812 Z M 11.015625 12.632812 "/>
</g>
</svg>
