<?xml version="1.0" encoding="UTF-8"?>
<svg xmlns="http://www.w3.org/2000/svg" xmlns:xlink="http://www.w3.org/1999/xlink" width="16pt" height="16pt" viewBox="0 0 16 16" version="1.1">
<g id="surface1">
<path style=" stroke:none;fill-rule:evenodd;fill:rgb(30.980392%,23.137255%,12.941176%);fill-opacity:1;" d="M 3.734375 0.949219 L 12.265625 0.949219 C 13.800781 0.949219 15.050781 2.199219 15.050781 3.734375 L 15.050781 12.265625 C 15.050781 13.800781 13.800781 15.050781 12.265625 15.050781 L 3.734375 15.050781 C 2.199219 15.050781 0.949219 13.800781 0.949219 12.265625 L 0.949219 3.734375 C 0.949219 2.199219 2.199219 0.949219 3.734375 0.949219 Z M 3.734375 0.949219 "/>
<path style=" stroke:none;fill-rule:nonzero;fill:rgb(47.843137%,38.039216%,26.27451%);fill-opacity:1;" d="M 9.578125 3.25 C 7.910156 3.273438 4.304688 3.53125 3.644531 4.585938 C 3.53125 4.890625 3.324219 5.957031 3.226562 6.773438 C 3.203125 6.960938 3.179688 7.203125 3.15625 7.421875 C 2.746094 7.84375 2.515625 8.410156 2.515625 9 C 2.515625 9.460938 2.65625 9.914062 2.917969 10.289062 C 2.914062 10.355469 2.894531 10.625 2.894531 10.625 C 2.863281 11.671875 2.890625 11.710938 3.882812 12.125 C 4.675781 12.453125 5.535156 12.625 6.839844 12.714844 C 7.953125 12.792969 9.082031 12.757812 9.945312 12.617188 C 11.457031 12.375 12.769531 11.878906 12.917969 11.496094 C 12.957031 11.390625 13.015625 10.960938 13.050781 10.542969 C 13.058594 10.457031 13.0625 10.386719 13.066406 10.304688 C 13.339844 9.925781 13.484375 9.46875 13.484375 9 C 13.484375 8.441406 13.277344 7.90625 12.90625 7.492188 C 12.839844 7.066406 12.757812 6.582031 12.652344 5.949219 C 12.46875 4.96875 12.242188 4.027344 12.15625 3.859375 C 11.910156 3.371094 11.605469 3.277344 10.160156 3.25 C 10.015625 3.246094 9.816406 3.246094 9.578125 3.25 Z M 9.578125 3.25 "/>
<path style=" stroke:none;fill-rule:nonzero;fill:rgb(21.568627%,17.254902%,11.764706%);fill-opacity:1;" d="M 8.90625 11.886719 C 9.242188 11.734375 9.386719 11.527344 9.1875 11.476562 C 9.125 11.460938 8.949219 11.515625 8.804688 11.59375 C 8.476562 11.777344 8.027344 11.789062 7.625 11.628906 C 7.125 11.425781 6.886719 11.539062 7.285156 11.785156 C 7.726562 12.058594 8.425781 12.101562 8.90625 11.886719 Z M 8.90625 11.886719 "/>
<path style=" stroke:none;fill-rule:nonzero;fill:rgb(21.568627%,65.098039%,26.27451%);fill-opacity:1;" d="M 6.902344 8.914062 C 6.902344 10.027344 6 10.925781 4.890625 10.925781 C 3.78125 10.925781 2.878906 10.027344 2.878906 8.914062 C 2.878906 7.804688 3.78125 6.902344 4.890625 6.902344 C 6 6.902344 6.902344 7.804688 6.902344 8.914062 Z M 6.902344 8.914062 "/>
<path style=" stroke:none;fill-rule:nonzero;fill:rgb(21.568627%,17.254902%,11.764706%);fill-opacity:1;" d="M 5.074219 8.730469 C 5.074219 8.933594 4.910156 9.097656 4.707031 9.097656 C 4.507812 9.097656 4.34375 8.933594 4.34375 8.730469 C 4.34375 8.53125 4.507812 8.367188 4.707031 8.367188 C 4.910156 8.367188 5.074219 8.53125 5.074219 8.730469 Z M 5.074219 8.730469 "/>
<path style=" stroke:none;fill-rule:nonzero;fill:rgb(21.568627%,65.098039%,26.27451%);fill-opacity:1;" d="M 13.121094 8.914062 C 13.121094 10.027344 12.21875 10.925781 11.109375 10.925781 C 10 10.925781 9.097656 10.027344 9.097656 8.914062 C 9.097656 7.804688 10 6.902344 11.109375 6.902344 C 12.21875 6.902344 13.121094 7.804688 13.121094 8.914062 Z M 13.121094 8.914062 "/>
<path style=" stroke:none;fill-rule:nonzero;fill:rgb(21.568627%,17.254902%,11.764706%);fill-opacity:1;" d="M 11.65625 8.730469 C 11.65625 8.933594 11.492188 9.097656 11.292969 9.097656 C 11.089844 9.097656 10.925781 8.933594 10.925781 8.730469 C 10.925781 8.53125 11.089844 8.367188 11.292969 8.367188 C 11.492188 8.367188 11.65625 8.53125 11.65625 8.730469 Z M 11.65625 8.730469 "/>
<path style=" stroke:none;fill-rule:nonzero;fill:rgb(21.568627%,17.254902%,11.764706%);fill-opacity:1;" d="M 11.636719 4.367188 C 11.652344 4.40625 10.5625 4.847656 9.632812 5.261719 C 8.707031 5.675781 8.296875 5.898438 8.28125 5.859375 C 8.269531 5.839844 8.839844 5.476562 9.226562 5.289062 C 9.972656 4.96875 10.726562 4.621094 11.636719 4.367188 Z M 11.636719 4.367188 "/>
<path style=" stroke:none;fill-rule:nonzero;fill:rgb(21.568627%,17.254902%,11.764706%);fill-opacity:1;" d="M 10.851562 6.285156 C 10.8125 6.296875 10.355469 5.859375 9.921875 5.277344 C 9.484375 4.691406 9.234375 4.1875 9.277344 4.175781 C 9.316406 4.164062 9.59375 4.628906 10.03125 5.210938 C 10.464844 5.792969 10.890625 6.273438 10.851562 6.285156 Z M 10.851562 6.285156 "/>
</g>
</svg>
