<?xml version="1.0" encoding="UTF-8"?>
<svg xmlns="http://www.w3.org/2000/svg" xmlns:xlink="http://www.w3.org/1999/xlink" width="16pt" height="16pt" viewBox="0 0 16 16" version="1.1">
<g id="surface1">
<path style=" stroke:none;fill-rule:evenodd;fill:rgb(50.588235%,38.039216%,18.823529%);fill-opacity:1;" d="M 3.734375 0.949219 L 12.265625 0.949219 C 13.800781 0.949219 15.050781 2.199219 15.050781 3.734375 L 15.050781 12.265625 C 15.050781 13.800781 13.800781 15.050781 12.265625 15.050781 L 3.734375 15.050781 C 2.199219 15.050781 0.949219 13.800781 0.949219 12.265625 L 0.949219 3.734375 C 0.949219 2.199219 2.199219 0.949219 3.734375 0.949219 Z M 3.734375 0.949219 "/>
<path style=" stroke:none;fill-rule:nonzero;fill:rgb(100%,100%,100%);fill-opacity:1;" d="M 6 4.832031 C 6.828125 4.832031 7.5 5.503906 7.5 6.332031 C 7.5 7.160156 6.828125 7.832031 6 7.832031 C 5.171875 7.832031 4.5 7.160156 4.5 6.332031 C 4.5 5.503906 5.171875 4.832031 6 4.832031 Z M 6 4.832031 "/>
<path style=" stroke:none;fill-rule:nonzero;fill:rgb(100%,100%,100%);fill-opacity:1;" d="M 6 8.667969 C 9 8.664062 9 10.667969 9 10.667969 L 9 11.167969 L 3 11.167969 L 3 10.667969 C 3 10.667969 3 8.667969 6 8.667969 Z M 6 8.667969 "/>
<path style=" stroke:none;fill-rule:nonzero;fill:rgb(100%,100%,100%);fill-opacity:1;" d="M 11 4.832031 C 11.550781 4.832031 12 5.28125 12 5.832031 C 12 6.386719 11.550781 6.832031 11 6.832031 C 10.449219 6.832031 10 6.386719 10 5.832031 C 10 5.28125 10.449219 4.832031 11 4.832031 Z M 11 4.832031 "/>
<path style=" stroke:none;fill-rule:nonzero;fill:rgb(100%,100%,100%);fill-opacity:1;" d="M 11 7.332031 C 13 7.332031 13 8.933594 13 8.933594 L 13 9.332031 L 9 9.332031 L 9 8.933594 C 9 8.933594 9 7.335938 11 7.332031 Z M 11 7.332031 "/>
</g>
</svg>
