<?xml version="1.0" encoding="UTF-8"?>
<svg xmlns="http://www.w3.org/2000/svg" xmlns:xlink="http://www.w3.org/1999/xlink" width="16pt" height="16pt" viewBox="0 0 16 16" version="1.1">
<g id="surface1">
<path style=" stroke:none;fill-rule:evenodd;fill:rgb(82.352941%,82.352941%,82.352941%);fill-opacity:1;" d="M 14.726562 2.496094 L 14.410156 2.496094 L 12.515625 4.386719 L 15.039062 4.386719 L 15.050781 4.375 L 15.050781 3.738281 C 15.050781 3.28125 14.917969 2.875 14.726562 2.496094 Z M 14.726562 2.496094 "/>
<path style=" stroke:none;fill-rule:evenodd;fill:rgb(32.156863%,25.490196%,38.431373%);fill-opacity:1;" d="M 4.03125 0.949219 L 3.734375 0.949219 C 3.109375 0.949219 2.5625 1.191406 2.097656 1.539062 L 3.054688 2.496094 L 3.054688 4.386719 L 0.949219 4.386719 L 0.949219 12.265625 C 0.949219 13.808594 2.191406 15.050781 3.734375 15.050781 L 12.261719 15.050781 C 13.808594 15.050781 15.050781 13.808594 15.050781 12.265625 L 15.050781 4.375 L 15.039062 4.386719 L 12.515625 4.386719 L 14.410156 2.496094 L 13.113281 1.199219 C 12.832031 1.101562 12.578125 0.949219 12.261719 0.949219 L 10.96875 0.949219 L 12.515625 2.496094 L 9.996094 2.496094 L 8.449219 0.949219 L 6.554688 0.949219 L 8.101562 2.496094 L 5.578125 2.496094 Z M 4.03125 0.949219 "/>
<path style=" stroke:none;fill-rule:evenodd;fill:rgb(74.509804%,74.509804%,74.509804%);fill-opacity:1;" d="M 4.03125 0.949219 L 5.578125 2.496094 L 8.101562 2.496094 L 6.554688 0.949219 Z M 4.03125 0.949219 "/>
<path style=" stroke:none;fill-rule:evenodd;fill:rgb(74.509804%,74.509804%,74.509804%);fill-opacity:1;" d="M 8.449219 0.949219 L 9.996094 2.496094 L 12.515625 2.496094 L 10.96875 0.949219 Z M 8.449219 0.949219 "/>
<path style=" stroke:none;fill-rule:evenodd;fill:rgb(74.509804%,74.509804%,74.509804%);fill-opacity:1;" d="M 13.113281 1.199219 L 14.410156 2.496094 L 14.726562 2.496094 C 14.402344 1.847656 13.800781 1.4375 13.113281 1.199219 Z M 13.113281 1.199219 "/>
<path style=" stroke:none;fill-rule:evenodd;fill:rgb(82.352941%,82.352941%,82.352941%);fill-opacity:1;" d="M 0.949219 4.386719 L 3.054688 4.386719 L 3.054688 2.496094 L 2.097656 1.539062 C 1.417969 2.046875 0.949219 2.820312 0.949219 3.738281 Z M 0.949219 4.386719 "/>
<path style=" stroke:none;fill-rule:nonzero;fill:rgb(82.352941%,82.352941%,82.352941%);fill-opacity:1;" d="M 5.898438 6.28125 C 5.816406 6.277344 5.734375 6.3125 5.671875 6.378906 C 5.613281 6.445312 5.578125 6.535156 5.578125 6.628906 L 5.578125 12.234375 C 5.578125 12.359375 5.640625 12.476562 5.734375 12.539062 C 5.832031 12.601562 5.953125 12.605469 6.050781 12.542969 L 10.464844 9.738281 C 10.5625 9.675781 10.625 9.5625 10.625 9.433594 C 10.625 9.308594 10.5625 9.191406 10.464844 9.128906 L 6.050781 6.328125 C 6.003906 6.296875 5.953125 6.28125 5.898438 6.28125 Z M 5.898438 6.28125 "/>
<path style=" stroke:none;fill-rule:evenodd;fill:rgb(82.352941%,82.352941%,82.352941%);fill-opacity:1;" d="M 5.578125 2.496094 L 3.6875 4.386719 L 6.210938 4.386719 L 8.101562 2.496094 Z M 5.578125 2.496094 "/>
<path style=" stroke:none;fill-rule:evenodd;fill:rgb(82.352941%,82.352941%,82.352941%);fill-opacity:1;" d="M 9.992188 2.496094 L 8.101562 4.386719 L 10.625 4.386719 L 12.515625 2.496094 Z M 9.992188 2.496094 "/>
</g>
</svg>
