<?xml version="1.0" encoding="UTF-8"?>
<svg xmlns="http://www.w3.org/2000/svg" xmlns:xlink="http://www.w3.org/1999/xlink" width="16pt" height="16pt" viewBox="0 0 16 16" version="1.1">
<g id="surface1">
<path style=" stroke:none;fill-rule:evenodd;fill:rgb(99.607843%,80.392157%,21.960784%);fill-opacity:1;" d="M 3.734375 0.949219 L 12.265625 0.949219 C 13.800781 0.949219 15.050781 2.199219 15.050781 3.734375 L 15.050781 12.265625 C 15.050781 13.800781 13.800781 15.050781 12.265625 15.050781 L 3.734375 15.050781 C 2.199219 15.050781 0.949219 13.800781 0.949219 12.265625 L 0.949219 3.734375 C 0.949219 2.199219 2.199219 0.949219 3.734375 0.949219 Z M 3.734375 0.949219 "/>
<path style=" stroke:none;fill-rule:nonzero;fill:rgb(100%,100%,100%);fill-opacity:1;" d="M 8.136719 3.054688 C 5.394531 3.054688 3.1875 5.261719 3.1875 8 C 3.1875 10.738281 5.394531 12.945312 8.136719 12.945312 C 9.820312 12.945312 11.304688 12.113281 12.195312 10.832031 L 8.136719 8 L 12.8125 6.367188 C 12.140625 4.433594 10.304688 3.054688 8.136719 3.054688 Z M 8.136719 3.054688 "/>
<path style=" stroke:none;fill-rule:nonzero;fill:rgb(24.705882%,24.705882%,24.705882%);fill-opacity:1;" d="M 9.277344 5.335938 C 9.277344 5.757812 8.9375 6.097656 8.515625 6.097656 C 8.097656 6.097656 7.757812 5.757812 7.757812 5.335938 C 7.757812 4.917969 8.097656 4.574219 8.515625 4.574219 C 8.9375 4.574219 9.277344 4.917969 9.277344 5.335938 Z M 9.277344 5.335938 "/>
</g>
</svg>
