<?xml version="1.0" encoding="UTF-8"?>
<svg xmlns="http://www.w3.org/2000/svg" xmlns:xlink="http://www.w3.org/1999/xlink" width="16pt" height="16pt" viewBox="0 0 16 16" version="1.1">
<g id="surface1">
<path style=" stroke:none;fill-rule:evenodd;fill:rgb(30.980392%,30.980392%,30.980392%);fill-opacity:1;" d="M 3.734375 0.949219 L 12.265625 0.949219 C 13.800781 0.949219 15.050781 2.199219 15.050781 3.734375 L 15.050781 12.265625 C 15.050781 13.800781 13.800781 15.050781 12.265625 15.050781 L 3.734375 15.050781 C 2.199219 15.050781 0.949219 13.800781 0.949219 12.265625 L 0.949219 3.734375 C 0.949219 2.199219 2.199219 0.949219 3.734375 0.949219 Z M 3.734375 0.949219 "/>
<path style=" stroke:none;fill-rule:nonzero;fill:rgb(71.764706%,71.764706%,71.764706%);fill-opacity:1;" d="M 6.515625 11.875 C 6.515625 11.667969 6.546875 11.492188 6.605469 11.347656 C 6.664062 11.203125 6.75 11.089844 6.855469 11 C 6.960938 10.910156 7.085938 10.847656 7.230469 10.808594 C 7.371094 10.765625 7.523438 10.75 7.6875 10.75 C 7.84375 10.75 7.988281 10.765625 8.128906 10.808594 C 8.265625 10.847656 8.390625 10.910156 8.496094 11 C 8.601562 11.089844 8.6875 11.203125 8.75 11.347656 C 8.808594 11.492188 8.839844 11.667969 8.839844 11.875 C 8.839844 12.074219 8.808594 12.242188 8.75 12.382812 C 8.6875 12.523438 8.601562 12.640625 8.496094 12.734375 C 8.390625 12.828125 8.265625 12.894531 8.128906 12.9375 C 7.988281 12.980469 7.84375 13 7.6875 13 C 7.523438 13 7.371094 12.980469 7.230469 12.9375 C 7.085938 12.894531 6.960938 12.828125 6.855469 12.734375 C 6.75 12.640625 6.664062 12.523438 6.605469 12.382812 C 6.546875 12.242188 6.515625 12.074219 6.515625 11.875 M 6.734375 9.609375 L 6.734375 9.121094 C 6.734375 8.894531 6.757812 8.6875 6.804688 8.507812 C 6.851562 8.324219 6.921875 8.148438 7.015625 7.984375 C 7.109375 7.816406 7.234375 7.65625 7.382812 7.5 C 7.535156 7.34375 7.714844 7.179688 7.925781 7.015625 C 8.113281 6.867188 8.269531 6.738281 8.398438 6.625 C 8.527344 6.507812 8.628906 6.394531 8.707031 6.28125 C 8.789062 6.167969 8.84375 6.050781 8.878906 5.925781 C 8.917969 5.804688 8.933594 5.660156 8.933594 5.496094 C 8.933594 5.246094 8.847656 5.039062 8.679688 4.875 C 8.507812 4.710938 8.25 4.628906 7.902344 4.628906 C 7.59375 4.628906 7.265625 4.691406 6.917969 4.820312 C 6.566406 4.949219 6.203125 5.105469 5.828125 5.292969 L 5.152344 3.828125 C 5.34375 3.71875 5.546875 3.613281 5.769531 3.515625 C 5.996094 3.414062 6.226562 3.328125 6.46875 3.25 C 6.707031 3.171875 6.953125 3.109375 7.199219 3.066406 C 7.445312 3.023438 7.6875 3 7.925781 3 C 8.375 3 8.78125 3.054688 9.144531 3.164062 C 9.507812 3.269531 9.8125 3.429688 10.066406 3.636719 C 10.316406 3.84375 10.511719 4.09375 10.644531 4.390625 C 10.78125 4.6875 10.847656 5.023438 10.847656 5.40625 C 10.847656 5.683594 10.816406 5.929688 10.753906 6.148438 C 10.691406 6.367188 10.601562 6.570312 10.480469 6.757812 C 10.359375 6.945312 10.207031 7.125 10.023438 7.300781 C 9.839844 7.476562 9.625 7.660156 9.382812 7.855469 C 9.199219 8 9.046875 8.125 8.929688 8.234375 C 8.8125 8.34375 8.722656 8.445312 8.65625 8.542969 C 8.589844 8.640625 8.542969 8.742188 8.519531 8.84375 C 8.496094 8.949219 8.484375 9.070312 8.484375 9.210938 L 8.484375 9.609375 Z M 6.734375 9.609375 "/>
</g>
</svg>
