<?xml version="1.0" encoding="UTF-8"?>
<svg xmlns="http://www.w3.org/2000/svg" xmlns:xlink="http://www.w3.org/1999/xlink" width="16pt" height="16pt" viewBox="0 0 16 16" version="1.1">
<g id="surface1">
<path style=" stroke:none;fill-rule:evenodd;fill:rgb(46.27451%,54.901961%,35.294118%);fill-opacity:1;" d="M 3.734375 0.949219 L 12.265625 0.949219 C 13.800781 0.949219 15.050781 2.199219 15.050781 3.734375 L 15.050781 12.265625 C 15.050781 13.800781 13.800781 15.050781 12.265625 15.050781 L 3.734375 15.050781 C 2.199219 15.050781 0.949219 13.800781 0.949219 12.265625 L 0.949219 3.734375 C 0.949219 2.199219 2.199219 0.949219 3.734375 0.949219 Z M 3.734375 0.949219 "/>
<path style=" stroke:none;fill-rule:nonzero;fill:rgb(100%,100%,50.196078%);fill-opacity:1;" d="M 5 12 L 11 12 L 11 13.5 L 5 13.5 Z M 5 12 "/>
<path style=" stroke:none;fill-rule:nonzero;fill:rgb(100%,100%,50.196078%);fill-opacity:1;" d="M 10 10 C 10 10.550781 9.550781 11 9 11 C 8.449219 11 8 10.550781 8 10 C 8 9.449219 8.449219 9 9 9 C 9.550781 9 10 9.449219 10 10 Z M 10 10 "/>
<path style=" stroke:none;fill-rule:nonzero;fill:rgb(100%,100%,50.196078%);fill-opacity:1;" d="M 7 2.5 L 9 2.5 L 9 4.5 L 7 4.5 Z M 7 2.5 "/>
<path style=" stroke:none;fill-rule:nonzero;fill:rgb(100%,100%,50.196078%);fill-opacity:1;" d="M 9.5 2.5 L 11.5 2.5 L 11.5 4.5 L 9.5 4.5 Z M 9.5 2.5 "/>
<path style=" stroke:none;fill-rule:nonzero;fill:rgb(100%,100%,50.196078%);fill-opacity:1;" d="M 12 2.5 L 14 2.5 L 14 4.5 L 12 4.5 Z M 12 2.5 "/>
<path style=" stroke:none;fill-rule:nonzero;fill:rgb(100%,100%,50.196078%);fill-opacity:1;" d="M 2 5 L 4 5 L 4 7 L 2 7 Z M 2 5 "/>
<path style=" stroke:none;fill-rule:nonzero;fill:rgb(100%,100%,50.196078%);fill-opacity:1;" d="M 7 5 L 9 5 L 9 7 L 7 7 Z M 7 5 "/>
<path style=" stroke:none;fill-rule:nonzero;fill:rgb(100%,100%,50.196078%);fill-opacity:1;" d="M 9.5 5 L 11.5 5 L 11.5 7 L 9.5 7 Z M 9.5 5 "/>
</g>
</svg>
