<?xml version="1.0" encoding="UTF-8"?>
<svg xmlns="http://www.w3.org/2000/svg" xmlns:xlink="http://www.w3.org/1999/xlink" width="16pt" height="16pt" viewBox="0 0 16 16" version="1.1">
<g id="surface1">
<path style=" stroke:none;fill-rule:evenodd;fill:rgb(49.411765%,52.54902%,52.941176%);fill-opacity:1;" d="M 3.734375 0.949219 L 12.265625 0.949219 C 13.800781 0.949219 15.050781 2.199219 15.050781 3.734375 L 15.050781 12.265625 C 15.050781 13.800781 13.800781 15.050781 12.265625 15.050781 L 3.734375 15.050781 C 2.199219 15.050781 0.949219 13.800781 0.949219 12.265625 L 0.949219 3.734375 C 0.949219 2.199219 2.199219 0.949219 3.734375 0.949219 Z M 3.734375 0.949219 "/>
<path style=" stroke:none;fill-rule:nonzero;fill:rgb(57.254902%,90.588235%,38.823529%);fill-opacity:1;" d="M 4.269531 11.730469 L 5.585938 11.730469 C 5.949219 11.730469 6.246094 12.023438 6.246094 12.390625 C 6.246094 12.753906 5.949219 13.046875 5.585938 13.046875 L 4.269531 13.046875 C 3.90625 13.046875 3.609375 12.753906 3.609375 12.390625 C 3.609375 12.023438 3.90625 11.730469 4.269531 11.730469 Z M 4.269531 11.730469 "/>
<path style=" stroke:none;fill-rule:nonzero;fill:rgb(90.588235%,38.823529%,38.823529%);fill-opacity:1;" d="M 10.414062 11.730469 L 11.730469 11.730469 C 12.09375 11.730469 12.390625 12.023438 12.390625 12.390625 C 12.390625 12.753906 12.09375 13.046875 11.730469 13.046875 L 10.414062 13.046875 C 10.050781 13.046875 9.753906 12.753906 9.753906 12.390625 C 9.753906 12.023438 10.050781 11.730469 10.414062 11.730469 Z M 10.414062 11.730469 "/>
<path style=" stroke:none;fill-rule:nonzero;fill:rgb(100%,100%,100%);fill-opacity:1;" d="M 8.582031 2.953125 L 7.347656 3.0625 L 7.347656 7.875 L 8.570312 7.699219 L 8.570312 5.648438 L 10.210938 7.921875 L 11.5 7.535156 L 9.816406 5.347656 L 11.511719 3.285156 L 10.199219 3 L 8.570312 5.0625 Z M 5.785156 4.125 C 5.769531 4.125 5.757812 4.128906 5.746094 4.140625 L 5.261719 4.597656 C 5.238281 4.617188 5.238281 4.648438 5.25 4.671875 L 5.820312 5.554688 C 5.71875 5.714844 5.636719 5.886719 5.578125 6.070312 L 4.539062 6.273438 C 4.507812 6.28125 4.488281 6.304688 4.488281 6.332031 L 4.488281 6.984375 C 4.488281 7.011719 4.511719 7.03125 4.539062 7.039062 L 5.546875 7.273438 C 5.601562 7.484375 5.6875 7.683594 5.796875 7.867188 L 5.210938 8.710938 C 5.195312 8.734375 5.199219 8.765625 5.21875 8.785156 L 5.703125 9.246094 C 5.722656 9.265625 5.753906 9.265625 5.78125 9.25 L 6.699219 8.726562 C 6.875 8.824219 7.074219 8.902344 7.277344 8.953125 L 7.492188 9.929688 C 7.5 9.957031 7.523438 9.976562 7.550781 9.976562 L 8.238281 9.976562 C 8.265625 9.976562 8.292969 9.957031 8.296875 9.929688 L 8.550781 8.953125 C 8.761719 8.898438 8.960938 8.820312 9.148438 8.71875 L 10.050781 9.277344 C 10.078125 9.292969 10.109375 9.289062 10.128906 9.269531 L 10.613281 8.8125 C 10.632812 8.792969 10.640625 8.761719 10.625 8.738281 L 10.292969 8.226562 L 10.1875 8.257812 C 10.171875 8.261719 10.152344 8.253906 10.144531 8.242188 C 10.144531 8.242188 9.9375 7.953125 9.664062 7.578125 C 9.339844 8.175781 8.675781 8.589844 7.914062 8.589844 C 6.828125 8.589844 5.949219 7.757812 5.949219 6.730469 C 5.949219 5.976562 6.425781 5.328125 7.109375 5.035156 L 7.109375 4.558594 C 6.984375 4.597656 6.863281 4.648438 6.75 4.707031 C 6.75 4.707031 6.75 4.703125 6.75 4.703125 L 5.824219 4.132812 C 5.8125 4.125 5.796875 4.125 5.785156 4.125 Z M 5.785156 4.125 "/>
</g>
</svg>
