<?xml version="1.0" encoding="UTF-8"?>
<svg xmlns="http://www.w3.org/2000/svg" xmlns:xlink="http://www.w3.org/1999/xlink" width="16pt" height="16pt" viewBox="0 0 16 16" version="1.1">
<g id="surface1">
<path style=" stroke:none;fill-rule:evenodd;fill:rgb(30.980392%,30.980392%,30.980392%);fill-opacity:1;" d="M 3.734375 0.949219 L 12.265625 0.949219 C 13.800781 0.949219 15.050781 2.199219 15.050781 3.734375 L 15.050781 12.265625 C 15.050781 13.800781 13.800781 15.050781 12.265625 15.050781 L 3.734375 15.050781 C 2.199219 15.050781 0.949219 13.800781 0.949219 12.265625 L 0.949219 3.734375 C 0.949219 2.199219 2.199219 0.949219 3.734375 0.949219 Z M 3.734375 0.949219 "/>
<path style=" stroke:none;fill-rule:nonzero;fill:rgb(95.294118%,52.156863%,46.666667%);fill-opacity:1;" d="M 7.8125 3.5 L 7.828125 12.875 L 8.5625 12.875 L 8.5625 3.5 Z M 7.8125 3.5 "/>
<path style=" stroke:none;fill-rule:evenodd;fill:rgb(51.372549%,72.54902%,96.078431%);fill-opacity:1;" d="M 6.3125 5 L 6.3125 5.75 L 7.0625 5.75 L 7.0625 5 Z M 5.5625 6.125 L 5.5625 6.875 L 7.0625 6.875 L 7.0625 6.125 Z M 4.0625 7.25 L 4.0625 8 L 7.0625 8 L 7.0625 7.25 Z M 3.3125 8.375 L 3.3125 9.125 L 7.0625 9.125 L 7.0625 8.375 Z M 4.0625 9.5 L 4.0625 10.25 L 7.0625 10.25 L 7.0625 9.5 Z M 5.5625 10.625 L 5.5625 11.375 L 7.0625 11.375 L 7.0625 10.625 Z M 5.5625 10.625 "/>
<path style=" stroke:none;fill-rule:nonzero;fill:rgb(84.705882%,33.72549%,33.72549%);fill-opacity:1;" d="M 9.6875 3.125 L 6.6875 3.125 L 8.1875 5.375 Z M 9.6875 3.125 "/>
<path style=" stroke:none;fill-rule:nonzero;fill:rgb(32.156863%,49.411765%,69.803922%);fill-opacity:1;" d="M 9.605469 6.015625 C 9.464844 6.019531 9.316406 6.140625 9.316406 6.277344 L 9.3125 10.25 C 9.3125 10.425781 9.578125 10.582031 9.726562 10.476562 L 12.570312 8.484375 C 12.722656 8.378906 12.722656 8.132812 12.570312 8.027344 L 9.734375 6.046875 C 9.695312 6.023438 9.648438 6.011719 9.605469 6.015625 Z M 9.605469 6.015625 "/>
</g>
</svg>
