<?xml version="1.0" encoding="UTF-8"?>
<svg xmlns="http://www.w3.org/2000/svg" xmlns:xlink="http://www.w3.org/1999/xlink" width="16pt" height="16pt" viewBox="0 0 16 16" version="1.1">
<g id="surface1">
<path style=" stroke:none;fill-rule:evenodd;fill:rgb(30.980392%,45.882353%,87.058824%);fill-opacity:1;" d="M 3.734375 0.949219 L 12.265625 0.949219 C 13.800781 0.949219 15.050781 2.199219 15.050781 3.734375 L 15.050781 12.265625 C 15.050781 13.800781 13.800781 15.050781 12.265625 15.050781 L 3.734375 15.050781 C 2.199219 15.050781 0.949219 13.800781 0.949219 12.265625 L 0.949219 3.734375 C 0.949219 2.199219 2.199219 0.949219 3.734375 0.949219 Z M 3.734375 0.949219 "/>
<path style=" stroke:none;fill-rule:nonzero;fill:rgb(100%,100%,100%);fill-opacity:1;" d="M 8.46875 5.007812 C 7.6875 4.226562 6.265625 4.386719 5.285156 5.359375 C 4.3125 6.339844 4.152344 7.761719 4.933594 8.542969 C 5.714844 9.324219 7.140625 9.167969 8.113281 8.191406 C 9.09375 7.214844 9.25 5.789062 8.46875 5.007812 Z M 8.113281 5.359375 C 8.503906 5.75 8.503906 6.386719 8.113281 6.777344 C 7.726562 7.167969 7.09375 7.167969 6.703125 6.777344 C 7.09375 7.167969 7.09375 7.800781 6.703125 8.191406 C 6.3125 8.582031 5.675781 8.582031 5.285156 8.191406 C 4.894531 7.800781 4.894531 7.167969 5.285156 6.777344 C 5.675781 6.386719 6.3125 6.386719 6.703125 6.777344 C 6.3125 6.386719 6.3125 5.75 6.703125 5.359375 C 7.09375 4.96875 7.726562 4.96875 8.113281 5.359375 Z M 8.113281 5.359375 "/>
<path style=" stroke:none;fill-rule:nonzero;fill:rgb(100%,100%,100%);fill-opacity:1;" d="M 8.25 7.617188 L 11.164062 10.53125 C 11.433594 10.800781 11.492188 11.175781 11.296875 11.371094 C 11.101562 11.566406 10.726562 11.507812 10.457031 11.238281 L 7.542969 8.324219 C 7.273438 8.054688 7.214844 7.679688 7.40625 7.484375 C 7.605469 7.289062 7.980469 7.347656 8.25 7.617188 Z M 8.25 7.617188 "/>
<path style=" stroke:none;fill-rule:nonzero;fill:rgb(100%,100%,100%);fill-opacity:1;" d="M 10.722656 8.675781 L 11.519531 9.472656 C 11.59375 9.546875 11.570312 9.683594 11.472656 9.78125 C 11.375 9.878906 11.238281 9.898438 11.164062 9.824219 L 10.371094 9.03125 C 10.296875 8.957031 10.316406 8.816406 10.414062 8.71875 C 10.511719 8.625 10.648438 8.601562 10.722656 8.675781 Z M 10.722656 8.675781 "/>
<path style=" stroke:none;fill-rule:nonzero;fill:rgb(100%,100%,100%);fill-opacity:1;" d="M 10.964844 9.582031 L 10.039062 10.511719 C 9.953125 10.59375 9.804688 10.585938 9.707031 10.488281 C 9.609375 10.390625 9.597656 10.242188 9.683594 10.15625 L 10.613281 9.230469 C 10.699219 9.144531 10.84375 9.152344 10.945312 9.25 C 11.042969 9.347656 11.050781 9.496094 10.964844 9.582031 Z M 10.964844 9.582031 "/>
</g>
</svg>
