<?xml version="1.0" encoding="UTF-8"?>
<svg xmlns="http://www.w3.org/2000/svg" xmlns:xlink="http://www.w3.org/1999/xlink" width="16pt" height="16pt" viewBox="0 0 16 16" version="1.1">
<g id="surface1">
<path style=" stroke:none;fill-rule:evenodd;fill:rgb(41.176471%,76.078431%,46.27451%);fill-opacity:1;" d="M 3.734375 0.949219 L 12.265625 0.949219 C 13.800781 0.949219 15.050781 2.199219 15.050781 3.734375 L 15.050781 12.265625 C 15.050781 13.800781 13.800781 15.050781 12.265625 15.050781 L 3.734375 15.050781 C 2.199219 15.050781 0.949219 13.800781 0.949219 12.265625 L 0.949219 3.734375 C 0.949219 2.199219 2.199219 0.949219 3.734375 0.949219 Z M 3.734375 0.949219 "/>
<path style=" stroke:none;fill-rule:nonzero;fill:rgb(100%,100%,100%);fill-opacity:1;" d="M 8 4.289062 C 6.703125 4.289062 5.59375 4.71875 5.136719 5.320312 C 5.097656 5.371094 5.0625 5.421875 5.03125 5.476562 C 5.003906 5.527344 4.984375 5.578125 4.964844 5.628906 C 4.957031 5.644531 4.953125 5.660156 4.949219 5.675781 C 4.9375 5.714844 4.929688 5.75 4.921875 5.785156 C 4.914062 5.835938 4.90625 5.886719 4.90625 5.9375 C 4.90625 5.992188 4.914062 6.046875 4.921875 6.097656 C 4.933594 6.152344 4.945312 6.203125 4.964844 6.253906 C 4.984375 6.304688 5.007812 6.359375 5.035156 6.40625 C 5.0625 6.457031 5.097656 6.507812 5.136719 6.558594 C 5.609375 7.179688 6.742188 7.589844 8 7.589844 C 9.257812 7.589844 10.390625 7.179688 10.863281 6.558594 C 10.863281 6.558594 10.863281 6.554688 10.867188 6.554688 C 10.898438 6.515625 10.925781 6.472656 10.949219 6.429688 C 10.953125 6.421875 10.960938 6.410156 10.964844 6.402344 C 10.984375 6.367188 11 6.332031 11.015625 6.292969 C 11.023438 6.277344 11.03125 6.261719 11.039062 6.242188 C 11.046875 6.210938 11.058594 6.179688 11.0625 6.152344 C 11.070312 6.125 11.078125 6.101562 11.078125 6.078125 C 11.089844 6.03125 11.09375 5.984375 11.09375 5.9375 C 11.09375 5.882812 11.085938 5.828125 11.078125 5.773438 C 11.046875 5.613281 10.972656 5.460938 10.867188 5.320312 C 10.40625 4.714844 9.296875 4.289062 8 4.289062 Z M 5.136719 7.382812 C 4.984375 7.578125 4.90625 7.789062 4.90625 8 C 4.90625 8.910156 6.292969 9.648438 8 9.648438 C 9.707031 9.648438 11.09375 8.910156 11.09375 8 C 11.09375 7.789062 11.015625 7.578125 10.863281 7.382812 C 10.390625 8.003906 9.257812 8.414062 8 8.414062 C 6.738281 8.414062 5.609375 8.003906 5.136719 7.382812 Z M 5.136719 9.445312 C 4.984375 9.640625 4.90625 9.851562 4.90625 10.0625 C 4.90625 10.972656 6.292969 11.710938 8 11.710938 C 9.707031 11.710938 11.09375 10.972656 11.09375 10.0625 C 11.09375 9.851562 11.015625 9.640625 10.863281 9.445312 C 10.390625 10.066406 9.257812 10.472656 8 10.476562 C 6.738281 10.472656 5.609375 10.066406 5.136719 9.445312 Z M 5.136719 9.445312 "/>
</g>
</svg>
