<?xml version="1.0" encoding="UTF-8"?>
<svg xmlns="http://www.w3.org/2000/svg" xmlns:xlink="http://www.w3.org/1999/xlink" width="16pt" height="16pt" viewBox="0 0 16 16" version="1.1">
<g id="surface1">
<path style=" stroke:none;fill-rule:evenodd;fill:rgb(90.196078%,90.196078%,90.196078%);fill-opacity:1;" d="M 3.734375 0.949219 L 12.265625 0.949219 C 13.800781 0.949219 15.050781 2.199219 15.050781 3.734375 L 15.050781 12.265625 C 15.050781 13.800781 13.800781 15.050781 12.265625 15.050781 L 3.734375 15.050781 C 2.199219 15.050781 0.949219 13.800781 0.949219 12.265625 L 0.949219 3.734375 C 0.949219 2.199219 2.199219 0.949219 3.734375 0.949219 Z M 3.734375 0.949219 "/>
<path style=" stroke:none;fill-rule:nonzero;fill:rgb(51.764706%,0%,100%);fill-opacity:1;" d="M 4.300781 9.40625 C 4.109375 9.367188 3.941406 9.28125 3.808594 9.148438 C 3.671875 9.015625 3.578125 8.855469 3.539062 8.683594 L 3.515625 8.589844 L 3.523438 4.003906 L 3.558594 3.90625 C 3.621094 3.71875 3.722656 3.574219 3.867188 3.460938 C 4.03125 3.328125 4.214844 3.257812 4.433594 3.234375 C 4.515625 3.230469 5.15625 3.226562 6.347656 3.230469 C 8.296875 3.234375 8.167969 3.230469 8.339844 3.289062 C 8.652344 3.398438 8.886719 3.648438 8.96875 3.96875 C 8.996094 4.054688 8.996094 4.0625 9 5.074219 L 9 6.09375 L 8 6.09375 L 8 4.1875 L 4.507812 4.1875 L 4.507812 8.480469 L 6.5 8.480469 L 6.5 9.425781 L 5.445312 9.425781 C 4.46875 9.425781 4.382812 9.425781 4.300781 9.40625 Z M 4.300781 9.40625 "/>
<path style=" stroke:none;fill-rule:nonzero;fill:rgb(0%,70.588235%,44.313725%);fill-opacity:1;" d="M 7.898438 12.761719 C 7.476562 12.71875 7.128906 12.425781 7.027344 12.027344 L 7.003906 11.933594 L 7.003906 9.667969 C 7.003906 7.550781 7.003906 7.394531 7.023438 7.328125 C 7.070312 7.140625 7.15625 6.992188 7.28125 6.867188 C 7.40625 6.742188 7.535156 6.667969 7.726562 6.605469 L 7.816406 6.578125 L 9.707031 6.574219 C 11.527344 6.570312 11.597656 6.574219 11.691406 6.59375 C 11.902344 6.636719 12.082031 6.734375 12.226562 6.886719 C 12.316406 6.984375 12.359375 7.050781 12.414062 7.171875 C 12.484375 7.34375 12.480469 7.171875 12.480469 9.671875 C 12.480469 11.609375 12.480469 11.9375 12.46875 12 C 12.378906 12.421875 12.023438 12.722656 11.570312 12.761719 C 11.433594 12.773438 8.027344 12.773438 7.898438 12.761719 Z M 11.492188 9.667969 L 11.492188 7.519531 L 8 7.519531 L 8 11.8125 L 11.492188 11.8125 Z M 11.492188 9.667969 "/>
<path style=" stroke:none;fill-rule:nonzero;fill:rgb(0%,70.588235%,44.313725%);fill-opacity:1;" d="M 4.835938 12.324219 C 4.390625 11.894531 4.019531 11.542969 4.015625 11.542969 C 4.011719 11.542969 4.007812 11.820312 4.007812 12.15625 L 4.007812 12.773438 L 3.019531 12.773438 L 3.019531 9.90625 L 6.011719 9.90625 L 6.003906 10.859375 L 4.726562 10.871094 L 5.535156 11.648438 C 5.984375 12.074219 6.347656 12.425781 6.351562 12.429688 C 6.355469 12.4375 5.71875 13.050781 5.671875 13.085938 C 5.652344 13.101562 5.621094 13.078125 4.835938 12.324219 Z M 4.835938 12.324219 "/>
<path style=" stroke:none;fill-rule:nonzero;fill:rgb(51.764706%,0%,100%);fill-opacity:1;" d="M 11.164062 3.675781 C 11.609375 4.105469 11.980469 4.457031 11.984375 4.457031 C 11.988281 4.457031 11.992188 4.179688 11.992188 3.84375 L 11.992188 3.226562 L 12.980469 3.226562 L 12.980469 6.09375 L 9.988281 6.09375 L 9.996094 5.140625 L 11.273438 5.128906 L 10.464844 4.351562 C 10.015625 3.925781 9.652344 3.574219 9.648438 3.570312 C 9.644531 3.5625 10.28125 2.949219 10.328125 2.914062 C 10.347656 2.898438 10.378906 2.921875 11.164062 3.675781 Z M 11.164062 3.675781 "/>
</g>
</svg>
