<?xml version="1.0" encoding="UTF-8"?>
<svg xmlns="http://www.w3.org/2000/svg" xmlns:xlink="http://www.w3.org/1999/xlink" width="16pt" height="16pt" viewBox="0 0 16 16" version="1.1">
<g id="surface1">
<path style=" stroke:none;fill-rule:evenodd;fill:rgb(23.137255%,43.921569%,62.352941%);fill-opacity:1;" d="M 3.734375 0.949219 L 12.265625 0.949219 C 13.800781 0.949219 15.050781 2.199219 15.050781 3.734375 L 15.050781 12.265625 C 15.050781 13.800781 13.800781 15.050781 12.265625 15.050781 L 3.734375 15.050781 C 2.199219 15.050781 0.949219 13.800781 0.949219 12.265625 L 0.949219 3.734375 C 0.949219 2.199219 2.199219 0.949219 3.734375 0.949219 Z M 3.734375 0.949219 "/>
<path style=" stroke:none;fill-rule:nonzero;fill:rgb(100%,100%,100%);fill-opacity:1;" d="M 7.5 4.5 C 7.5 5.878906 6.378906 7 5 7 C 3.621094 7 2.5 5.878906 2.5 4.5 C 2.5 3.121094 3.621094 2 5 2 C 6.378906 2 7.5 3.121094 7.5 4.5 Z M 7.5 4.5 "/>
<path style=" stroke:none;fill-rule:nonzero;fill:rgb(100%,40.392157%,33.72549%);fill-opacity:1;" d="M 13.5 4.5 C 13.5 5.878906 12.378906 7 11 7 C 9.621094 7 8.5 5.878906 8.5 4.5 C 8.5 3.121094 9.621094 2 11 2 C 12.378906 2 13.5 3.121094 13.5 4.5 Z M 13.5 4.5 "/>
<path style=" stroke:none;fill-rule:nonzero;fill:rgb(30.196078%,30.196078%,30.196078%);fill-opacity:1;" d="M 7.5 11.5 C 7.5 12.878906 6.378906 14 5 14 C 3.621094 14 2.5 12.878906 2.5 11.5 C 2.5 10.121094 3.621094 9 5 9 C 6.378906 9 7.5 10.121094 7.5 11.5 Z M 7.5 11.5 "/>
<path style=" stroke:none;fill-rule:nonzero;fill:rgb(100%,40.392157%,33.72549%);fill-opacity:1;" d="M 13.5 11.5 C 13.5 12.878906 12.378906 14 11 14 C 9.621094 14 8.5 12.878906 8.5 11.5 C 8.5 10.121094 9.621094 9 11 9 C 12.378906 9 13.5 10.121094 13.5 11.5 Z M 13.5 11.5 "/>
</g>
</svg>
