<?xml version="1.0" encoding="UTF-8"?>
<svg xmlns="http://www.w3.org/2000/svg" xmlns:xlink="http://www.w3.org/1999/xlink" width="16pt" height="16pt" viewBox="0 0 16 16" version="1.1">
<g id="surface1">
<path style=" stroke:none;fill-rule:evenodd;fill:rgb(56.470588%,79.215686%,97.647059%);fill-opacity:1;" d="M 3.734375 0.949219 L 12.265625 0.949219 C 13.800781 0.949219 15.050781 2.199219 15.050781 3.734375 L 15.050781 12.265625 C 15.050781 13.800781 13.800781 15.050781 12.265625 15.050781 L 3.734375 15.050781 C 2.199219 15.050781 0.949219 13.800781 0.949219 12.265625 L 0.949219 3.734375 C 0.949219 2.199219 2.199219 0.949219 3.734375 0.949219 Z M 3.734375 0.949219 "/>
<path style=" stroke:none;fill-rule:nonzero;fill:rgb(12.54902%,58.431373%,94.901961%);fill-opacity:1;" d="M 8 2.53125 C 11.019531 2.53125 13.46875 4.980469 13.46875 8 C 13.46875 11.019531 11.019531 13.46875 8 13.46875 C 4.980469 13.46875 2.53125 11.019531 2.53125 8 C 2.53125 4.980469 4.980469 2.53125 8 2.53125 Z M 8 2.53125 "/>
<path style=" stroke:none;fill-rule:nonzero;fill:rgb(74.509804%,89.803922%,89.411765%);fill-opacity:1;" d="M 8 2.53125 C 7.3125 2.53125 6.65625 2.664062 6.046875 2.894531 C 6.003906 2.9375 5.945312 2.96875 5.902344 2.960938 C 5.894531 2.960938 5.886719 2.957031 5.882812 2.953125 C 5.582031 3.078125 5.296875 3.234375 5.03125 3.40625 C 5.0625 3.464844 5.074219 3.527344 5.003906 3.558594 C 4.992188 3.5625 4.839844 3.578125 4.785156 3.578125 C 4.019531 4.132812 3.40625 4.878906 3.015625 5.753906 C 3.019531 5.753906 3.027344 5.75 3.03125 5.75 C 3.09375 5.75 3.179688 5.765625 3.234375 5.777344 C 3.289062 5.789062 3.332031 5.824219 3.375 5.828125 C 3.507812 5.835938 3.539062 5.734375 3.640625 5.679688 C 3.75 5.695312 3.824219 5.660156 3.921875 5.671875 C 3.992188 5.679688 4.039062 5.75 4.09375 5.753906 C 4.136719 5.761719 4.175781 5.714844 4.21875 5.71875 C 4.257812 5.726562 4.328125 5.816406 4.335938 5.867188 C 4.34375 5.929688 4.289062 5.988281 4.308594 6.058594 C 4.375 6.125 4.496094 6.140625 4.589844 6.175781 C 4.652344 6.125 4.597656 6.03125 4.589844 5.957031 C 4.589844 5.925781 4.59375 5.898438 4.589844 5.867188 C 4.582031 5.816406 4.5625 5.773438 4.5625 5.730469 C 4.5625 5.53125 4.722656 5.4375 4.855469 5.359375 C 4.914062 5.324219 4.957031 5.261719 5.007812 5.238281 C 5.078125 5.203125 5.132812 5.191406 5.191406 5.160156 C 5.296875 5.101562 5.390625 5.050781 5.472656 4.984375 C 5.511719 4.894531 5.476562 4.773438 5.480469 4.683594 C 5.515625 4.660156 5.550781 4.695312 5.59375 4.691406 C 5.65625 4.675781 5.660156 4.585938 5.699219 4.550781 C 5.71875 4.53125 5.777344 4.515625 5.800781 4.496094 C 5.867188 4.445312 5.886719 4.371094 5.941406 4.347656 C 5.964844 4.339844 6.007812 4.34375 6.039062 4.332031 C 6.082031 4.324219 6.140625 4.273438 6.207031 4.25 C 6.253906 4.234375 6.355469 4.230469 6.371094 4.214844 C 6.390625 4.191406 6.371094 4.132812 6.375 4.101562 C 6.410156 3.945312 6.648438 3.910156 6.792969 3.859375 C 6.890625 3.820312 6.992188 3.75 7.097656 3.773438 C 7.078125 3.847656 6.976562 3.820312 6.996094 3.914062 C 7.015625 4.039062 7.1875 3.875 7.234375 3.859375 C 7.316406 3.820312 7.464844 3.796875 7.578125 3.757812 C 7.675781 3.722656 7.851562 3.667969 7.757812 3.554688 C 7.683594 3.550781 7.644531 3.644531 7.578125 3.675781 C 7.53125 3.683594 7.539062 3.636719 7.5 3.632812 C 7.460938 3.625 7.441406 3.667969 7.402344 3.660156 C 7.363281 3.65625 7.308594 3.59375 7.300781 3.546875 C 7.289062 3.429688 7.402344 3.382812 7.449219 3.296875 C 7.417969 3.1875 7.273438 3.273438 7.183594 3.234375 C 7.191406 3.171875 7.257812 3.125 7.328125 3.113281 C 7.390625 3.105469 7.527344 3.109375 7.5625 3.140625 C 7.582031 3.160156 7.5625 3.203125 7.597656 3.234375 C 7.632812 3.265625 7.675781 3.261719 7.722656 3.253906 C 7.738281 3.171875 7.621094 3.195312 7.632812 3.140625 C 7.726562 3.078125 7.882812 3.128906 8 3.113281 C 8.0625 3.101562 8.132812 3.054688 8.195312 3.023438 C 8.25 2.992188 8.324219 2.9375 8.382812 2.988281 C 8.398438 3.046875 8.328125 3.0625 8.296875 3.09375 C 8.191406 3.1875 8.082031 3.296875 8 3.40625 C 8.046875 3.457031 8.140625 3.433594 8.230469 3.441406 C 8.261719 3.449219 8.304688 3.457031 8.339844 3.464844 C 8.382812 3.46875 8.425781 3.46875 8.460938 3.476562 C 8.519531 3.492188 8.535156 3.554688 8.59375 3.554688 C 8.6875 3.554688 8.6875 3.453125 8.636719 3.386719 C 8.652344 3.320312 8.679688 3.285156 8.65625 3.238281 C 8.613281 3.152344 8.453125 3.234375 8.445312 3.125 C 8.441406 3.058594 8.503906 3.0625 8.53125 3.007812 C 8.519531 2.875 8.640625 2.863281 8.628906 2.742188 C 8.621094 2.691406 8.578125 2.691406 8.542969 2.644531 C 8.527344 2.621094 8.515625 2.578125 8.496094 2.554688 C 8.332031 2.542969 8.167969 2.53125 8 2.53125 Z M 5.179688 3.636719 C 5.210938 3.640625 5.25 3.675781 5.289062 3.675781 C 5.328125 3.679688 5.359375 3.65625 5.382812 3.664062 C 5.441406 3.679688 5.464844 3.765625 5.410156 3.8125 C 5.363281 3.816406 5.34375 3.792969 5.3125 3.796875 C 5.21875 3.8125 5.179688 4 5.109375 3.992188 C 5.042969 3.988281 5.003906 3.824219 5.074219 3.777344 C 5.078125 3.734375 5.042969 3.726562 5.046875 3.683594 C 5.0625 3.65625 5.125 3.628906 5.179688 3.636719 Z M 4.863281 3.65625 C 4.882812 3.65625 4.898438 3.664062 4.90625 3.671875 C 4.894531 3.746094 4.835938 3.742188 4.78125 3.777344 C 4.679688 3.835938 4.621094 3.925781 4.589844 4.054688 C 4.582031 4.09375 4.484375 4.191406 4.4375 4.183594 C 4.324219 4.160156 4.464844 3.953125 4.492188 3.921875 C 4.519531 3.890625 4.558594 3.859375 4.589844 3.816406 C 4.621094 3.78125 4.640625 3.726562 4.671875 3.707031 C 4.707031 3.683594 4.804688 3.65625 4.863281 3.65625 Z M 5.691406 3.910156 C 5.726562 3.910156 5.761719 3.914062 5.773438 3.929688 C 5.75 4.023438 5.550781 4 5.480469 3.964844 C 5.484375 3.929688 5.539062 3.921875 5.585938 3.914062 C 5.617188 3.914062 5.65625 3.90625 5.691406 3.910156 Z M 5.238281 4.078125 C 5.261719 4.078125 5.285156 4.085938 5.3125 4.09375 C 5.246094 4.144531 5.175781 4.175781 5.066406 4.210938 C 5.015625 4.226562 4.921875 4.25 4.910156 4.1875 C 4.902344 4.117188 4.988281 4.132812 5.039062 4.125 C 5.101562 4.117188 5.167969 4.082031 5.238281 4.078125 Z M 12.203125 4.496094 C 12.195312 4.515625 12.1875 4.535156 12.1875 4.554688 C 12.191406 4.589844 12.230469 4.621094 12.238281 4.667969 C 12.242188 4.691406 12.226562 4.742188 12.238281 4.765625 C 12.273438 4.828125 12.359375 4.78125 12.421875 4.785156 C 12.351562 4.6875 12.28125 4.589844 12.203125 4.496094 Z M 12.5625 4.976562 C 12.550781 5.027344 12.515625 5.089844 12.492188 5.128906 C 12.429688 5.222656 12.347656 5.226562 12.257812 5.277344 C 12.1875 5.316406 12.15625 5.386719 12.109375 5.457031 C 12.066406 5.535156 12.035156 5.582031 12.054688 5.695312 C 11.992188 5.820312 11.898438 5.898438 11.769531 5.957031 C 11.730469 5.972656 11.675781 5.980469 11.640625 6.003906 C 11.613281 6.027344 11.597656 6.078125 11.558594 6.125 C 11.507812 6.179688 11.457031 6.203125 11.433594 6.242188 C 11.410156 6.277344 11.40625 6.339844 11.382812 6.382812 C 11.351562 6.441406 11.289062 6.472656 11.25 6.53125 C 11.234375 6.558594 11.21875 6.613281 11.199219 6.652344 C 11.15625 6.730469 11.078125 6.789062 11.089844 6.859375 C 11.09375 6.929688 11.171875 6.941406 11.179688 7 C 11.179688 7.035156 11.15625 7.054688 11.15625 7.09375 C 11.160156 7.144531 11.195312 7.183594 11.199219 7.226562 C 11.210938 7.328125 11.164062 7.371094 11.144531 7.441406 C 11.136719 7.476562 11.140625 7.515625 11.128906 7.539062 C 11.113281 7.59375 11.042969 7.640625 11.039062 7.703125 C 11.039062 7.746094 11.085938 7.78125 11.089844 7.84375 C 11.089844 7.882812 11.066406 7.929688 11.074219 7.96875 C 11.089844 8.046875 11.226562 8.132812 11.285156 8.191406 C 11.363281 8.273438 11.46875 8.332031 11.5 8.417969 C 11.53125 8.488281 11.53125 8.578125 11.585938 8.632812 C 11.625 8.671875 11.695312 8.699219 11.75 8.738281 C 11.796875 8.777344 11.847656 8.8125 11.902344 8.851562 C 11.988281 8.917969 12.117188 9.050781 12.25 9.039062 C 12.324219 9.035156 12.394531 8.976562 12.476562 8.964844 C 12.558594 8.949219 12.667969 8.941406 12.75 8.949219 C 12.8125 8.957031 12.878906 8.996094 12.945312 8.992188 C 13.015625 8.984375 13.097656 8.933594 13.175781 8.898438 C 13.242188 8.871094 13.320312 8.839844 13.40625 8.816406 C 13.445312 8.550781 13.46875 8.277344 13.46875 8 C 13.46875 6.878906 13.132812 5.84375 12.5625 4.976562 Z M 3.515625 6.8125 C 3.398438 6.820312 3.324219 6.828125 3.257812 6.855469 C 3.105469 6.925781 3.136719 7.128906 2.984375 7.179688 C 2.929688 7.195312 2.859375 7.195312 2.800781 7.207031 C 2.75 7.21875 2.691406 7.246094 2.640625 7.242188 C 2.625 7.242188 2.605469 7.234375 2.585938 7.226562 C 2.574219 7.324219 2.5625 7.421875 2.554688 7.515625 C 2.699219 7.546875 2.773438 7.734375 2.902344 7.796875 C 2.9375 7.816406 2.980469 7.816406 3.027344 7.828125 C 3.0625 7.835938 3.089844 7.851562 3.125 7.863281 C 3.199219 7.886719 3.289062 7.886719 3.347656 7.910156 C 3.4375 7.953125 3.503906 8.121094 3.578125 8.164062 C 3.585938 8.210938 3.570312 8.269531 3.585938 8.304688 C 3.625 8.351562 3.675781 8.34375 3.734375 8.375 C 3.804688 8.414062 3.828125 8.511719 3.894531 8.542969 C 3.921875 8.554688 3.976562 8.550781 4.015625 8.5625 C 4.109375 8.59375 4.140625 8.699219 4.21875 8.675781 C 4.269531 8.660156 4.265625 8.605469 4.273438 8.558594 C 4.308594 8.519531 4.347656 8.460938 4.402344 8.457031 C 4.488281 8.453125 4.496094 8.546875 4.527344 8.632812 C 4.546875 8.679688 4.59375 8.722656 4.605469 8.773438 C 4.625 8.859375 4.613281 9.121094 4.597656 9.171875 C 4.574219 9.238281 4.488281 9.265625 4.4375 9.335938 C 4.410156 9.367188 4.398438 9.417969 4.378906 9.441406 C 4.34375 9.484375 4.292969 9.492188 4.265625 9.53125 C 4.253906 9.554688 4.238281 9.601562 4.226562 9.628906 C 4.183594 9.71875 4.125 9.78125 4.160156 9.890625 C 4.175781 9.933594 4.246094 9.960938 4.246094 10.015625 C 4.246094 10.074219 4.117188 10.128906 4.105469 10.195312 C 4.097656 10.246094 4.144531 10.335938 4.160156 10.402344 C 4.171875 10.449219 4.265625 10.480469 4.296875 10.511719 C 4.34375 10.566406 4.382812 10.644531 4.429688 10.714844 C 4.515625 10.851562 4.585938 11.019531 4.671875 11.152344 C 4.71875 11.21875 4.78125 11.28125 4.8125 11.355469 C 4.828125 11.390625 4.828125 11.433594 4.84375 11.46875 C 4.890625 11.578125 5.113281 11.699219 5.226562 11.753906 C 5.28125 11.78125 5.339844 11.789062 5.390625 11.816406 C 5.464844 11.859375 5.609375 11.96875 5.648438 12.03125 C 5.683594 12.09375 5.703125 12.234375 5.71875 12.328125 C 5.738281 12.453125 5.71875 12.546875 5.726562 12.679688 C 5.730469 12.75 5.753906 12.824219 5.753906 12.894531 C 5.753906 12.921875 5.742188 12.9375 5.738281 12.964844 C 5.738281 12.96875 5.742188 12.972656 5.742188 12.980469 C 6.429688 13.289062 7.191406 13.46875 8 13.46875 C 8.144531 13.46875 8.289062 13.460938 8.433594 13.449219 C 8.4375 13.4375 8.445312 13.425781 8.453125 13.417969 C 8.484375 13.375 8.515625 13.335938 8.535156 13.296875 C 8.558594 13.171875 8.484375 13.082031 8.515625 12.96875 C 8.546875 12.84375 8.722656 12.765625 8.84375 12.710938 C 8.886719 12.6875 8.929688 12.65625 8.964844 12.644531 C 9.046875 12.617188 9.15625 12.632812 9.230469 12.605469 C 9.363281 12.558594 9.375 12.414062 9.441406 12.296875 C 9.472656 12.238281 9.511719 12.183594 9.515625 12.140625 C 9.523438 12.105469 9.503906 12.070312 9.511719 12.03125 C 9.515625 11.984375 9.554688 11.949219 9.566406 11.902344 C 9.582031 11.84375 9.589844 11.753906 9.589844 11.6875 C 9.589844 11.628906 9.5625 11.582031 9.5625 11.53125 C 9.550781 11.351562 9.625 11.328125 9.691406 11.230469 C 9.726562 11.183594 9.738281 11.125 9.765625 11.089844 C 9.875 10.921875 10.074219 10.839844 10.058594 10.585938 C 10.054688 10.5 10 10.3125 9.9375 10.285156 C 9.902344 10.269531 9.820312 10.28125 9.769531 10.265625 C 9.605469 10.203125 9.507812 9.996094 9.335938 9.984375 C 9.296875 9.976562 9.265625 10 9.222656 9.996094 C 9.15625 9.992188 9.054688 9.949219 8.976562 9.941406 C 8.929688 9.9375 8.867188 9.953125 8.839844 9.941406 C 8.792969 9.921875 8.789062 9.839844 8.753906 9.8125 C 8.726562 9.796875 8.671875 9.789062 8.628906 9.773438 C 8.558594 9.746094 8.503906 9.714844 8.425781 9.710938 C 8.398438 9.707031 8.371094 9.71875 8.339844 9.71875 C 8.296875 9.710938 8.261719 9.65625 8.21875 9.632812 C 8.171875 9.601562 8.125 9.585938 8.101562 9.542969 C 8.148438 9.390625 8.019531 9.347656 7.988281 9.261719 C 7.976562 9.21875 7.984375 9.171875 7.96875 9.136719 C 7.953125 9.082031 7.898438 9.050781 7.84375 9.007812 C 7.742188 8.929688 7.652344 8.859375 7.503906 8.839844 C 7.441406 8.832031 7.378906 8.859375 7.300781 8.855469 C 7.21875 8.847656 7.117188 8.777344 7.058594 8.707031 C 7 8.640625 6.96875 8.578125 6.917969 8.546875 C 6.867188 8.515625 6.804688 8.515625 6.769531 8.484375 C 6.753906 8.46875 6.757812 8.445312 6.742188 8.414062 C 6.71875 8.363281 6.675781 8.332031 6.707031 8.273438 C 6.652344 8.246094 6.648438 8.328125 6.585938 8.316406 C 6.53125 8.238281 6.488281 8.203125 6.363281 8.222656 C 6.308594 8.234375 6.273438 8.304688 6.207031 8.308594 C 6.15625 8.3125 6.113281 8.25 6.042969 8.238281 C 5.984375 8.230469 5.925781 8.25 5.886719 8.246094 C 5.828125 8.234375 5.808594 8.183594 5.753906 8.148438 C 5.714844 8.121094 5.636719 8.078125 5.613281 8.078125 C 5.542969 8.082031 5.492188 8.226562 5.394531 8.175781 C 5.347656 8.113281 5.472656 8.082031 5.417969 8.027344 C 5.375 7.984375 5.339844 8.046875 5.304688 8.070312 C 5.265625 8.097656 5.230469 8.125 5.1875 8.140625 C 5.089844 8.175781 5.03125 8.15625 4.953125 8.195312 C 4.882812 8.234375 4.882812 8.292969 4.84375 8.363281 C 4.808594 8.421875 4.734375 8.507812 4.6875 8.511719 C 4.628906 8.515625 4.574219 8.429688 4.519531 8.40625 C 4.359375 8.339844 4.28125 8.46875 4.148438 8.46875 C 4.023438 8.476562 3.847656 8.269531 3.855469 8.15625 C 3.855469 8.082031 3.894531 7.976562 3.902344 7.890625 C 3.910156 7.816406 3.957031 7.777344 3.957031 7.710938 C 3.960938 7.625 3.84375 7.5625 3.789062 7.550781 C 3.660156 7.527344 3.476562 7.605469 3.328125 7.546875 C 3.296875 7.496094 3.359375 7.464844 3.375 7.417969 C 3.386719 7.390625 3.382812 7.355469 3.390625 7.328125 C 3.40625 7.28125 3.453125 7.25 3.476562 7.203125 C 3.492188 7.164062 3.496094 7.113281 3.511719 7.066406 C 3.527344 7.015625 3.5625 6.984375 3.566406 6.949219 C 3.570312 6.902344 3.554688 6.847656 3.515625 6.816406 Z M 5.390625 8.296875 C 5.4375 8.304688 5.445312 8.402344 5.394531 8.410156 C 5.34375 8.417969 5.316406 8.328125 5.367188 8.304688 C 5.375 8.296875 5.382812 8.296875 5.390625 8.300781 Z M 5.390625 8.296875 "/>
</g>
</svg>
