<?xml version="1.0" encoding="UTF-8"?>
<svg xmlns="http://www.w3.org/2000/svg" xmlns:xlink="http://www.w3.org/1999/xlink" width="16pt" height="16pt" viewBox="0 0 16 16" version="1.1">
<g id="surface1">
<path style=" stroke:none;fill-rule:evenodd;fill:rgb(30.588235%,56.862745%,85.098039%);fill-opacity:1;" d="M 3.734375 0.949219 L 12.265625 0.949219 C 13.800781 0.949219 15.050781 2.199219 15.050781 3.734375 L 15.050781 12.265625 C 15.050781 13.800781 13.800781 15.050781 12.265625 15.050781 L 3.734375 15.050781 C 2.199219 15.050781 0.949219 13.800781 0.949219 12.265625 L 0.949219 3.734375 C 0.949219 2.199219 2.199219 0.949219 3.734375 0.949219 Z M 3.734375 0.949219 "/>
<path style=" stroke:none;fill-rule:nonzero;fill:rgb(100%,100%,100%);fill-opacity:1;" d="M 3 9.5 L 5 9.5 L 5 10 L 3 10 Z M 3 9.5 "/>
<path style=" stroke:none;fill-rule:nonzero;fill:rgb(100%,92.156863%,36.470588%);fill-opacity:1;" d="M 10.75 3.5 L 10.917969 3.933594 L 11.351562 3.796875 L 11.125 4.203125 L 11.5 4.464844 L 11.050781 4.535156 L 11.082031 5 L 10.75 4.683594 L 10.417969 5 L 10.449219 4.535156 L 10 4.464844 L 10.375 4.203125 L 10.148438 3.796875 L 10.582031 3.933594 Z M 10.75 3.5 "/>
<path style=" stroke:none;fill-rule:nonzero;fill:rgb(45.490196%,14.117647%,14.117647%);fill-opacity:1;" d="M 11.5 12 L 9.5 12 L 9.5 11.5 L 11.5 11.5 Z M 11.5 12 "/>
<path style=" stroke:none;fill-rule:nonzero;fill:rgb(67.843137%,19.215686%,19.215686%);fill-opacity:1;" d="M 9.5 12 L 7.5 12 L 7.5 11.5 L 9.5 11.5 Z M 9.5 12 "/>
<path style=" stroke:none;fill-rule:nonzero;fill:rgb(45.490196%,14.117647%,14.117647%);fill-opacity:1;" d="M 7.5 12 L 5.5 12 L 5.5 11.5 L 7.5 11.5 Z M 7.5 12 "/>
<path style=" stroke:none;fill-rule:nonzero;fill:rgb(67.843137%,19.215686%,19.215686%);fill-opacity:1;" d="M 5.5 12 L 3.5 12 L 3.5 11.5 L 5.5 11.5 Z M 5.5 12 "/>
<path style=" stroke:none;fill-rule:nonzero;fill:rgb(45.490196%,14.117647%,14.117647%);fill-opacity:1;" d="M 3.5 12 L 1.5 12 L 1.5 11.5 L 3.5 11.5 Z M 3.5 12 "/>
<path style=" stroke:none;fill-rule:nonzero;fill:rgb(45.490196%,14.117647%,14.117647%);fill-opacity:1;" d="M 14.5 12 L 13.5 12 L 13.5 11.5 L 14.5 11.5 Z M 14.5 12 "/>
<path style=" stroke:none;fill-rule:nonzero;fill:rgb(67.843137%,19.215686%,19.215686%);fill-opacity:1;" d="M 10.5 12.5 L 8.5 12.5 L 8.5 12 L 10.5 12 Z M 10.5 12.5 "/>
<path style=" stroke:none;fill-rule:nonzero;fill:rgb(45.490196%,14.117647%,14.117647%);fill-opacity:1;" d="M 8.5 12.5 L 6.5 12.5 L 6.5 12 L 8.5 12 Z M 8.5 12.5 "/>
<path style=" stroke:none;fill-rule:nonzero;fill:rgb(67.843137%,19.215686%,19.215686%);fill-opacity:1;" d="M 6.5 12.5 L 4.5 12.5 L 4.5 12 L 6.5 12 Z M 6.5 12.5 "/>
<path style=" stroke:none;fill-rule:nonzero;fill:rgb(45.490196%,14.117647%,14.117647%);fill-opacity:1;" d="M 4.5 12.5 L 2.5 12.5 L 2.5 12 L 4.5 12 Z M 4.5 12.5 "/>
<path style=" stroke:none;fill-rule:nonzero;fill:rgb(67.843137%,19.215686%,19.215686%);fill-opacity:1;" d="M 2.5 12.5 L 1.5 12.5 L 1.5 12 L 2.5 12 Z M 2.5 12.5 "/>
<path style=" stroke:none;fill-rule:nonzero;fill:rgb(67.843137%,19.215686%,19.215686%);fill-opacity:1;" d="M 13.5 12 L 11.5 12 L 11.5 11.5 L 13.5 11.5 Z M 13.5 12 "/>
<path style=" stroke:none;fill-rule:nonzero;fill:rgb(67.843137%,19.215686%,19.215686%);fill-opacity:1;" d="M 14.5 12.5 L 12.5 12.5 L 12.5 12 L 14.5 12 Z M 14.5 12.5 "/>
<path style=" stroke:none;fill-rule:nonzero;fill:rgb(45.490196%,14.117647%,14.117647%);fill-opacity:1;" d="M 12.5 12.5 L 10.5 12.5 L 10.5 12 L 12.5 12 Z M 12.5 12.5 "/>
<path style=" stroke:none;fill-rule:nonzero;fill:rgb(45.490196%,14.117647%,14.117647%);fill-opacity:1;" d="M 5.5 6 L 6.5 6 L 6.5 6.5 L 5.5 6.5 Z M 5.5 6 "/>
<path style=" stroke:none;fill-rule:nonzero;fill:rgb(67.843137%,19.215686%,19.215686%);fill-opacity:1;" d="M 6.5 6 L 8.5 6 L 8.5 6.5 L 6.5 6.5 Z M 6.5 6 "/>
<path style=" stroke:none;fill-rule:nonzero;fill:rgb(45.490196%,14.117647%,14.117647%);fill-opacity:1;" d="M 8.5 6 L 10.5 6 L 10.5 6.5 L 8.5 6.5 Z M 8.5 6 "/>
<path style=" stroke:none;fill-rule:nonzero;fill:rgb(67.843137%,19.215686%,19.215686%);fill-opacity:1;" d="M 10.5 6 L 12.5 6 L 12.5 6.5 L 10.5 6.5 Z M 10.5 6 "/>
<path style=" stroke:none;fill-rule:nonzero;fill:rgb(45.490196%,14.117647%,14.117647%);fill-opacity:1;" d="M 12.5 6 L 14.5 6 L 14.5 6.5 L 12.5 6.5 Z M 12.5 6 "/>
<path style=" stroke:none;fill-rule:nonzero;fill:rgb(45.490196%,14.117647%,14.117647%);fill-opacity:1;" d="M 1.5 6 L 2.5 6 L 2.5 6.5 L 1.5 6.5 Z M 1.5 6 "/>
<path style=" stroke:none;fill-rule:nonzero;fill:rgb(67.843137%,19.215686%,19.215686%);fill-opacity:1;" d="M 5.5 5.5 L 7.5 5.5 L 7.5 6 L 5.5 6 Z M 5.5 5.5 "/>
<path style=" stroke:none;fill-rule:nonzero;fill:rgb(45.490196%,14.117647%,14.117647%);fill-opacity:1;" d="M 7.5 5.5 L 9.5 5.5 L 9.5 6 L 7.5 6 Z M 7.5 5.5 "/>
<path style=" stroke:none;fill-rule:nonzero;fill:rgb(67.843137%,19.215686%,19.215686%);fill-opacity:1;" d="M 9.5 5.5 L 11.5 5.5 L 11.5 6 L 9.5 6 Z M 9.5 5.5 "/>
<path style=" stroke:none;fill-rule:nonzero;fill:rgb(45.490196%,14.117647%,14.117647%);fill-opacity:1;" d="M 11.5 5.5 L 13.5 5.5 L 13.5 6 L 11.5 6 Z M 11.5 5.5 "/>
<path style=" stroke:none;fill-rule:nonzero;fill:rgb(67.843137%,19.215686%,19.215686%);fill-opacity:1;" d="M 13.5 5.5 L 14.5 5.5 L 14.5 6 L 13.5 6 Z M 13.5 5.5 "/>
<path style=" stroke:none;fill-rule:nonzero;fill:rgb(67.843137%,19.215686%,19.215686%);fill-opacity:1;" d="M 1.5 5.5 L 2.5 5.5 L 2.5 6 L 1.5 6 Z M 1.5 5.5 "/>
<path style=" stroke:none;fill-rule:nonzero;fill:rgb(100%,100%,100%);fill-opacity:1;" d="M 3 5 L 3.5 5 L 3.5 11 L 3 11 Z M 3 5 "/>
<path style=" stroke:none;fill-rule:nonzero;fill:rgb(100%,100%,100%);fill-opacity:1;" d="M 4.5 5 L 5 5 L 5 11 L 4.5 11 Z M 4.5 5 "/>
<path style=" stroke:none;fill-rule:nonzero;fill:rgb(100%,100%,100%);fill-opacity:1;" d="M 3 7.5 L 5 7.5 L 5 8 L 3 8 Z M 3 7.5 "/>
<path style=" stroke:none;fill-rule:nonzero;fill:rgb(100%,100%,100%);fill-opacity:1;" d="M 3 5.5 L 5 5.5 L 5 6 L 3 6 Z M 3 5.5 "/>
</g>
</svg>
