<?xml version="1.0" encoding="UTF-8"?>
<svg xmlns="http://www.w3.org/2000/svg" xmlns:xlink="http://www.w3.org/1999/xlink" width="16pt" height="16pt" viewBox="0 0 16 16" version="1.1">
<g id="surface1">
<path style=" stroke:none;fill-rule:evenodd;fill:rgb(37.647059%,1.568627%,56.470588%);fill-opacity:1;" d="M 3.734375 0.949219 L 12.265625 0.949219 C 13.800781 0.949219 15.050781 2.199219 15.050781 3.734375 L 15.050781 12.265625 C 15.050781 13.800781 13.800781 15.050781 12.265625 15.050781 L 3.734375 15.050781 C 2.199219 15.050781 0.949219 13.800781 0.949219 12.265625 L 0.949219 3.734375 C 0.949219 2.199219 2.199219 0.949219 3.734375 0.949219 Z M 3.734375 0.949219 "/>
<path style=" stroke:none;fill-rule:nonzero;fill:rgb(68.235294%,40%,87.843137%);fill-opacity:1;" d="M 11.917969 3.402344 L 6.585938 4.632812 C 5.835938 4.726562 5.863281 5.496094 5.863281 5.496094 L 5.863281 8.777344 C 5.691406 8.726562 5.511719 8.703125 5.328125 8.699219 C 4.25 8.699219 3.371094 9.578125 3.371094 10.65625 C 3.371094 11.738281 4.25 12.617188 5.328125 12.617188 C 6.34375 12.613281 7.1875 11.84375 7.28125 10.835938 L 7.289062 10.835938 L 7.289062 5.90625 L 11.203125 4.976562 L 11.203125 7.707031 C 11.03125 7.65625 10.851562 7.632812 10.671875 7.632812 C 9.589844 7.632812 8.710938 8.507812 8.710938 9.589844 C 8.710938 10.671875 9.589844 11.546875 10.671875 11.546875 C 11.683594 11.546875 12.527344 10.777344 12.617188 9.765625 L 12.628906 9.765625 L 12.628906 4.074219 C 12.628906 4.074219 12.636719 3.25 11.917969 3.402344 Z M 11.917969 3.402344 "/>
<path style=" stroke:none;fill-rule:nonzero;fill:rgb(96.470588%,86.666667%,47.45098%);fill-opacity:1;" d="M 13.273438 9.390625 C 12.800781 8.578125 10.878906 8.820312 10.453125 9.054688 L 7.011719 11.03125 C 6.832031 11.136719 6.769531 11.363281 6.875 11.546875 L 8.199219 13.828125 C 8.304688 14.007812 8.535156 14.070312 8.71875 13.964844 L 12.160156 11.988281 C 12.425781 11.828125 13.75 10.207031 13.273438 9.390625 Z M 12.617188 9.765625 C 12.722656 9.949219 12.660156 10.179688 12.480469 10.28125 C 12.296875 10.386719 12.066406 10.324219 11.964844 10.144531 C 11.859375 9.964844 11.921875 9.734375 12.101562 9.628906 C 12.28125 9.527344 12.515625 9.589844 12.617188 9.765625 Z M 12.617188 9.765625 "/>
<path style=" stroke:none;fill-rule:nonzero;fill:rgb(0%,0%,0%);fill-opacity:0.290196;" d="M 7.390625 11.683594 L 7.578125 12.007812 L 7.90625 11.820312 L 8.664062 13.125 L 8.992188 12.9375 L 8.234375 11.632812 L 8.5625 11.445312 L 8.375 11.117188 L 8.046875 11.304688 L 7.71875 11.496094 Z M 8.703125 10.929688 L 9.648438 12.5625 L 9.976562 12.371094 L 9.597656 11.71875 L 9.925781 11.53125 L 10.304688 12.183594 L 10.632812 11.996094 L 9.6875 10.363281 L 9.03125 10.742188 Z M 10.015625 10.175781 L 10.203125 10.5 L 10.960938 11.808594 L 11.945312 11.242188 L 11.753906 10.917969 L 11.660156 10.753906 L 11.824219 10.65625 L 11.636719 10.332031 L 10.980469 10.707031 L 11.167969 11.035156 L 11.332031 10.941406 L 11.425781 11.105469 L 11.097656 11.292969 L 10.53125 10.3125 L 11.1875 9.9375 L 11 9.609375 Z M 9.21875 11.066406 L 9.546875 10.878906 L 9.734375 11.203125 L 9.410156 11.394531 Z M 9.21875 11.066406 "/>
</g>
</svg>
