<?xml version="1.0" encoding="UTF-8"?>
<svg xmlns="http://www.w3.org/2000/svg" xmlns:xlink="http://www.w3.org/1999/xlink" width="16pt" height="16pt" viewBox="0 0 16 16" version="1.1">
<g id="surface1">
<path style=" stroke:none;fill-rule:evenodd;fill:rgb(85.098039%,59.215686%,30.588235%);fill-opacity:1;" d="M 3.734375 0.949219 L 12.265625 0.949219 C 13.800781 0.949219 15.050781 2.199219 15.050781 3.734375 L 15.050781 12.265625 C 15.050781 13.800781 13.800781 15.050781 12.265625 15.050781 L 3.734375 15.050781 C 2.199219 15.050781 0.949219 13.800781 0.949219 12.265625 L 0.949219 3.734375 C 0.949219 2.199219 2.199219 0.949219 3.734375 0.949219 Z M 3.734375 0.949219 "/>
<path style=" stroke:none;fill-rule:nonzero;fill:rgb(30.196078%,30.196078%,30.196078%);fill-opacity:1;" d="M 6.5 3 C 4.566406 3 3 4.566406 3 6.5 C 3 8.238281 4.28125 9.710938 6 9.960938 L 6 13 L 13 13 L 13 6 L 9.960938 6 C 9.710938 4.28125 8.238281 3 6.5 3 Z M 6.5 3.5 C 7.964844 3.5 9.214844 4.558594 9.457031 6 L 6 6 L 6 9.453125 C 4.558594 9.210938 3.5 7.964844 3.5 6.5 C 3.5 4.84375 4.84375 3.5 6.5 3.5 Z M 6.5 6.5 L 9.5 6.5 C 9.5 8.15625 8.15625 9.5 6.5 9.5 Z M 10 6.5 L 12.5 6.5 L 12.5 12.5 L 6.5 12.5 L 6.5 10 C 8.433594 10 10 8.433594 10 6.5 Z M 10 6.5 "/>
</g>
</svg>
