<?xml version="1.0" encoding="UTF-8"?>
<svg xmlns="http://www.w3.org/2000/svg" xmlns:xlink="http://www.w3.org/1999/xlink" width="16pt" height="16pt" viewBox="0 0 16 16" version="1.1">
<g id="surface1">
<path style=" stroke:none;fill-rule:evenodd;fill:rgb(49.019608%,38.823529%,15.686275%);fill-opacity:1;" d="M 3.734375 0.949219 L 12.265625 0.949219 C 13.800781 0.949219 15.050781 2.199219 15.050781 3.734375 L 15.050781 12.265625 C 15.050781 13.800781 13.800781 15.050781 12.265625 15.050781 L 3.734375 15.050781 C 2.199219 15.050781 0.949219 13.800781 0.949219 12.265625 L 0.949219 3.734375 C 0.949219 2.199219 2.199219 0.949219 3.734375 0.949219 Z M 3.734375 0.949219 "/>
<path style=" stroke:none;fill-rule:nonzero;fill:rgb(67.843137%,50.588235%,32.156863%);fill-opacity:1;" d="M 7.5 1 L 7.5 7.5 L 1 7.5 L 1 8.5 L 7.5 8.5 L 7.5 15 L 8.5 15 L 8.5 8.5 L 15 8.5 L 15 7.5 L 8.5 7.5 L 8.5 1 Z M 7.5 1 "/>
<path style=" stroke:none;fill-rule:nonzero;fill:rgb(100%,100%,100%);fill-opacity:1;" d="M 13.382812 11.515625 C 13.382812 12.484375 12.597656 13.265625 11.632812 13.265625 C 10.664062 13.265625 9.882812 12.484375 9.882812 11.515625 C 9.882812 10.550781 10.664062 9.765625 11.632812 9.765625 C 12.597656 9.765625 13.382812 10.550781 13.382812 11.515625 Z M 13.382812 11.515625 "/>
</g>
</svg>
