<?xml version="1.0" encoding="UTF-8"?>
<svg xmlns="http://www.w3.org/2000/svg" xmlns:xlink="http://www.w3.org/1999/xlink" width="16pt" height="16pt" viewBox="0 0 16 16" version="1.1">
<g id="surface1">
<path style=" stroke:none;fill-rule:evenodd;fill:rgb(55.686275%,55.686275%,55.686275%);fill-opacity:1;" d="M 3.734375 0.949219 L 12.265625 0.949219 C 13.800781 0.949219 15.050781 2.199219 15.050781 3.734375 L 15.050781 12.265625 C 15.050781 13.800781 13.800781 15.050781 12.265625 15.050781 L 3.734375 15.050781 C 2.199219 15.050781 0.949219 13.800781 0.949219 12.265625 L 0.949219 3.734375 C 0.949219 2.199219 2.199219 0.949219 3.734375 0.949219 Z M 3.734375 0.949219 "/>
<path style=" stroke:none;fill-rule:nonzero;fill:rgb(100%,18.431373%,18.431373%);fill-opacity:1;" d="M 1 7.75 L 3 7.75 L 3 8.25 L 1 8.25 Z M 1 7.75 "/>
<path style=" stroke:none;fill-rule:nonzero;fill:rgb(100%,18.431373%,18.431373%);fill-opacity:1;" d="M 4 7.75 L 6 7.75 L 6 8.25 L 4 8.25 Z M 4 7.75 "/>
<path style=" stroke:none;fill-rule:nonzero;fill:rgb(100%,18.431373%,18.431373%);fill-opacity:1;" d="M 7 7.75 L 9 7.75 L 9 8.25 L 7 8.25 Z M 7 7.75 "/>
<path style=" stroke:none;fill-rule:nonzero;fill:rgb(100%,18.431373%,18.431373%);fill-opacity:1;" d="M 10 7.75 L 12 7.75 L 12 8.25 L 10 8.25 Z M 10 7.75 "/>
<path style=" stroke:none;fill-rule:nonzero;fill:rgb(100%,18.431373%,18.431373%);fill-opacity:1;" d="M 13 7.75 L 15 7.75 L 15 8.25 L 13 8.25 Z M 13 7.75 "/>
<path style="fill:none;stroke-width:1;stroke-linecap:round;stroke-linejoin:round;stroke:rgb(18.039216%,18.039216%,18.039216%);stroke-opacity:1;stroke-miterlimit:4;" d="M 6 21.789062 C 6 21.789062 13.210938 25.789062 16 23.789062 C 21.40625 19.914062 10.695312 9.90625 17 7.789062 C 21.164062 6.390625 26 15.789062 26 15.789062 " transform="matrix(0.5,0,0,0.5,0,0)"/>
</g>
</svg>
