<?xml version="1.0" encoding="UTF-8"?>
<svg xmlns="http://www.w3.org/2000/svg" xmlns:xlink="http://www.w3.org/1999/xlink" width="16pt" height="16pt" viewBox="0 0 16 16" version="1.1">
<g id="surface1">
<path style=" stroke:none;fill-rule:evenodd;fill:rgb(100%,78.823529%,27.843137%);fill-opacity:1;" d="M 3.734375 0.949219 L 12.265625 0.949219 C 13.800781 0.949219 15.050781 2.199219 15.050781 3.734375 L 15.050781 12.265625 C 15.050781 13.800781 13.800781 15.050781 12.265625 15.050781 L 3.734375 15.050781 C 2.199219 15.050781 0.949219 13.800781 0.949219 12.265625 L 0.949219 3.734375 C 0.949219 2.199219 2.199219 0.949219 3.734375 0.949219 Z M 3.734375 0.949219 "/>
<path style=" stroke:none;fill-rule:nonzero;fill:rgb(70.196078%,55.294118%,19.607843%);fill-opacity:1;" d="M 8 2.851562 C 10.867188 2.851562 13.148438 5.132812 13.148438 8 C 13.148438 10.867188 10.867188 13.148438 8 13.148438 C 5.132812 13.148438 2.851562 10.867188 2.851562 8 C 2.851562 5.132812 5.132812 2.851562 8 2.851562 Z M 8 2.851562 "/>
<path style=" stroke:none;fill-rule:nonzero;fill:rgb(100%,78.823529%,27.843137%);fill-opacity:1;" d="M 6.917969 4.566406 C 6.558594 4.566406 6.273438 4.824219 6.273438 5.140625 L 6.273438 10.859375 C 6.273438 11.175781 6.558594 11.433594 6.917969 11.433594 C 7.273438 11.433594 7.558594 11.175781 7.558594 10.859375 L 7.558594 9.460938 L 8.542969 11.164062 C 8.703125 11.4375 9.078125 11.515625 9.386719 11.335938 C 9.695312 11.15625 9.816406 10.792969 9.65625 10.519531 L 8.203125 8.003906 L 9.65625 5.488281 C 9.816406 5.214844 9.695312 4.847656 9.386719 4.671875 C 9.269531 4.605469 9.144531 4.574219 9.027344 4.578125 C 8.828125 4.578125 8.640625 4.671875 8.542969 4.84375 L 7.558594 6.546875 L 7.558594 5.140625 C 7.558594 4.824219 7.273438 4.566406 6.917969 4.566406 Z M 6.917969 4.566406 "/>
</g>
</svg>
