<?xml version="1.0" encoding="UTF-8"?>
<svg xmlns="http://www.w3.org/2000/svg" xmlns:xlink="http://www.w3.org/1999/xlink" width="16pt" height="16pt" viewBox="0 0 16 16" version="1.1">
<g id="surface1">
<path style=" stroke:none;fill-rule:evenodd;fill:rgb(80%,80%,80%);fill-opacity:1;" d="M 3.734375 0.949219 L 12.265625 0.949219 C 13.800781 0.949219 15.050781 2.199219 15.050781 3.734375 L 15.050781 12.265625 C 15.050781 13.800781 13.800781 15.050781 12.265625 15.050781 L 3.734375 15.050781 C 2.199219 15.050781 0.949219 13.800781 0.949219 12.265625 L 0.949219 3.734375 C 0.949219 2.199219 2.199219 0.949219 3.734375 0.949219 Z M 3.734375 0.949219 "/>
<path style=" stroke:none;fill-rule:nonzero;fill:rgb(97.647059%,97.647059%,97.647059%);fill-opacity:1;" d="M 8 2.699219 C 5.0625 2.699219 2.699219 5.0625 2.699219 8 C 2.699219 10.9375 5.0625 13.300781 8 13.300781 C 10.9375 13.300781 13.300781 10.9375 13.300781 8 C 13.300781 5.0625 10.9375 2.699219 8 2.699219 Z M 8 2.699219 "/>
<path style=" stroke:none;fill-rule:nonzero;fill:rgb(9.019608%,58.431373%,4.313725%);fill-opacity:1;" d="M 8 4.214844 C 5.902344 4.214844 4.214844 5.902344 4.214844 8 C 4.214844 10.097656 5.902344 11.785156 8 11.785156 C 10.097656 11.785156 11.785156 10.097656 11.785156 8 C 11.785156 5.902344 10.097656 4.214844 8 4.214844 Z M 8 4.214844 "/>
<path style=" stroke:none;fill-rule:nonzero;fill:rgb(100%,100%,13.333333%);fill-opacity:1;" d="M 8 5.347656 C 6.53125 5.347656 5.347656 6.53125 5.347656 8 C 5.347656 9.46875 6.53125 10.652344 8 10.652344 C 9.46875 10.652344 10.652344 9.46875 10.652344 8 C 10.652344 6.53125 9.46875 5.347656 8 5.347656 Z M 8 5.347656 "/>
<path style=" stroke:none;fill-rule:nonzero;fill:rgb(81.960784%,39.607843%,100%);fill-opacity:1;" d="M 8 6.484375 C 7.160156 6.484375 6.484375 7.160156 6.484375 8 C 6.484375 8.839844 7.160156 9.515625 8 9.515625 C 8.839844 9.515625 9.515625 8.839844 9.515625 8 C 9.515625 7.160156 8.839844 6.484375 8 6.484375 Z M 8 6.484375 "/>
</g>
</svg>
