<?xml version="1.0" encoding="UTF-8"?>
<svg xmlns="http://www.w3.org/2000/svg" xmlns:xlink="http://www.w3.org/1999/xlink" width="16pt" height="16pt" viewBox="0 0 16 16" version="1.1">
<g id="surface1">
<path style=" stroke:none;fill-rule:evenodd;fill:rgb(99.607843%,80.392157%,21.960784%);fill-opacity:1;" d="M 3.734375 0.949219 L 12.265625 0.949219 C 13.800781 0.949219 15.050781 2.199219 15.050781 3.734375 L 15.050781 12.265625 C 15.050781 13.800781 13.800781 15.050781 12.265625 15.050781 L 3.734375 15.050781 C 2.199219 15.050781 0.949219 13.800781 0.949219 12.265625 L 0.949219 3.734375 C 0.949219 2.199219 2.199219 0.949219 3.734375 0.949219 Z M 3.734375 0.949219 "/>
<path style=" stroke:none;fill-rule:nonzero;fill:rgb(100%,100%,100%);fill-opacity:1;" d="M 8.011719 2.304688 C 7.917969 2.300781 7.824219 2.328125 7.738281 2.375 L 3.378906 4.957031 C 3.21875 5.050781 3.117188 5.230469 3.117188 5.421875 L 3.117188 10.582031 C 3.117188 10.769531 3.21875 10.949219 3.378906 11.042969 L 7.738281 13.625 C 7.902344 13.71875 8.097656 13.71875 8.261719 13.625 L 12.621094 11.042969 C 12.78125 10.949219 12.882812 10.769531 12.882812 10.582031 L 12.882812 5.417969 C 12.882812 5.230469 12.78125 5.050781 12.621094 4.957031 L 8.261719 2.375 C 8.183594 2.332031 8.097656 2.308594 8.011719 2.304688 Z M 8.011719 2.304688 "/>
<path style=" stroke:none;fill-rule:nonzero;fill:rgb(24.705882%,24.705882%,24.705882%);fill-opacity:1;" d="M 6.148438 11.570312 C 6.132812 11.550781 6.117188 11.484375 6.117188 11.421875 C 6.117188 11.28125 6.039062 11.273438 5.96875 11.40625 C 5.886719 11.5625 5.816406 11.519531 5.832031 11.320312 C 5.84375 11.175781 5.828125 11.140625 5.773438 11.15625 C 5.445312 11.238281 5.441406 11.238281 5.660156 11 C 5.898438 10.742188 5.9375 10.589844 5.761719 10.644531 C 5.699219 10.664062 5.523438 10.691406 5.367188 10.703125 C 4.890625 10.75 4.398438 10.4375 4.398438 10.09375 C 4.398438 9.949219 4.652344 9.746094 5.015625 9.597656 C 5.203125 9.519531 5.359375 9.429688 5.367188 9.390625 C 5.375 9.355469 5.300781 9.273438 5.207031 9.210938 C 4.988281 9.070312 4.863281 8.871094 4.734375 8.453125 C 4.585938 7.96875 4.617188 7.128906 4.808594 6.578125 C 5.46875 4.664062 7.386719 3.871094 9.195312 4.761719 C 10.355469 5.332031 11.191406 6.234375 11.375 7.113281 C 11.421875 7.347656 11.417969 7.402344 11.328125 7.574219 C 11.214844 7.800781 10.953125 8.074219 10.855469 8.074219 C 10.816406 8.074219 10.726562 8 10.652344 7.914062 C 10.457031 7.683594 9.582031 6.820312 9.21875 6.5 L 8.910156 6.222656 L 8.941406 5.949219 C 8.976562 5.683594 8.972656 5.671875 8.851562 5.613281 C 8.664062 5.53125 8.40625 5.613281 8.386719 5.765625 C 8.375 5.847656 8.4375 5.949219 8.628906 6.140625 L 8.890625 6.40625 L 8.597656 6.40625 C 8.0625 6.40625 7.960938 6.492188 8.222656 6.710938 C 8.417969 6.875 8.484375 7.015625 8.46875 7.230469 L 8.453125 7.410156 L 8.6875 7.398438 C 8.863281 7.390625 8.917969 7.402344 8.917969 7.460938 C 8.917969 7.5 8.894531 7.53125 8.867188 7.53125 C 8.785156 7.53125 8.8125 7.671875 8.90625 7.726562 C 8.972656 7.765625 8.976562 7.785156 8.929688 7.816406 C 8.894531 7.839844 8.878906 7.894531 8.898438 7.941406 C 8.945312 8.0625 8.847656 8.042969 8.46875 7.84375 C 8.152344 7.679688 8.113281 7.640625 8 7.390625 C 7.808594 6.953125 7.640625 6.832031 7.640625 7.136719 C 7.640625 7.210938 7.59375 7.445312 7.535156 7.660156 C 7.355469 8.339844 7.335938 8.269531 7.71875 8.269531 C 8.109375 8.269531 8.386719 8.332031 8.480469 8.445312 C 8.546875 8.527344 8.554688 8.75 8.5 9.039062 C 8.46875 9.207031 8.472656 9.210938 8.59375 9.179688 C 8.710938 9.152344 8.71875 9.15625 8.6875 9.296875 C 8.660156 9.4375 8.667969 9.445312 8.839844 9.445312 C 8.9375 9.445312 9.015625 9.46875 9.015625 9.496094 C 9.015625 9.519531 9 9.542969 8.976562 9.542969 C 8.953125 9.542969 8.894531 9.574219 8.84375 9.613281 C 8.75 9.679688 8.75 9.683594 8.839844 9.785156 C 8.945312 9.902344 8.933594 9.90625 8.546875 9.886719 C 8.257812 9.875 8.199219 9.832031 8.15625 9.625 C 8.105469 9.382812 7.992188 9.230469 7.910156 9.296875 C 7.761719 9.421875 8.054688 9.941406 8.417969 10.191406 C 8.9375 10.546875 9.527344 10.628906 10.066406 10.425781 C 10.4375 10.285156 10.972656 9.765625 11.265625 9.265625 C 11.597656 8.703125 11.667969 8.710938 11.546875 9.300781 C 11.347656 10.28125 10.671875 11.019531 9.683594 11.339844 C 9.363281 11.441406 9.1875 11.46875 8.796875 11.46875 C 7.972656 11.46875 7.503906 11.238281 6.746094 10.464844 C 6.265625 9.976562 6.125 9.9375 6.371094 10.363281 L 6.527344 10.636719 L 6.367188 11.121094 C 6.28125 11.386719 6.203125 11.601562 6.195312 11.601562 C 6.1875 11.601562 6.167969 11.589844 6.152344 11.570312 Z M 6.367188 8.925781 C 5.941406 8.074219 5.847656 7.734375 5.847656 7.042969 C 5.847656 6.527344 5.859375 6.457031 5.980469 6.230469 C 6.34375 5.535156 7.125 5.132812 8.101562 5.128906 C 8.5625 5.128906 9.078125 5.210938 9.285156 5.3125 C 9.542969 5.441406 9.90625 5.777344 10.277344 6.222656 C 10.714844 6.746094 10.75 6.84375 10.429688 6.652344 C 10.34375 6.597656 10.21875 6.550781 10.160156 6.550781 C 9.972656 6.550781 9.90625 6.496094 9.871094 6.324219 C 9.847656 6.203125 9.78125 6.109375 9.613281 5.984375 C 9.242188 5.703125 9.101562 5.828125 9.359375 6.214844 C 9.574219 6.542969 10.769531 7.6875 10.875 7.671875 C 11.023438 7.640625 11.136719 7.34375 11.113281 7.042969 C 11.070312 6.53125 10.710938 6.003906 10.152344 5.625 C 9.640625 5.277344 8.667969 4.835938 8.230469 4.75 C 6.832031 4.476562 5.46875 5.34375 5.269531 6.636719 C 5.152344 7.40625 5.578125 8.429688 6.382812 9.285156 C 6.515625 9.429688 6.632812 9.535156 6.640625 9.527344 C 6.652344 9.515625 6.527344 9.246094 6.367188 8.925781 Z M 6.367188 8.925781 "/>
</g>
</svg>
