<?xml version="1.0" encoding="UTF-8"?>
<svg xmlns="http://www.w3.org/2000/svg" xmlns:xlink="http://www.w3.org/1999/xlink" width="16pt" height="16pt" viewBox="0 0 16 16" version="1.1">
<g id="surface1">
<path style=" stroke:none;fill-rule:evenodd;fill:rgb(94.509804%,23.529412%,23.529412%);fill-opacity:1;" d="M 3.734375 0.949219 L 12.265625 0.949219 C 13.800781 0.949219 15.050781 2.199219 15.050781 3.734375 L 15.050781 12.265625 C 15.050781 13.800781 13.800781 15.050781 12.265625 15.050781 L 3.734375 15.050781 C 2.199219 15.050781 0.949219 13.800781 0.949219 12.265625 L 0.949219 3.734375 C 0.949219 2.199219 2.199219 0.949219 3.734375 0.949219 Z M 3.734375 0.949219 "/>
<path style=" stroke:none;fill-rule:nonzero;fill:rgb(100%,100%,100%);fill-opacity:1;" d="M 6.046875 5.492188 L 12.183594 5.492188 C 12.488281 5.492188 12.738281 5.742188 12.738281 6.050781 C 12.738281 6.359375 12.488281 6.609375 12.183594 6.609375 L 6.046875 6.609375 C 5.738281 6.609375 5.488281 6.359375 5.488281 6.050781 C 5.488281 5.742188 5.738281 5.492188 6.046875 5.492188 Z M 6.046875 5.492188 "/>
<path style=" stroke:none;fill-rule:evenodd;fill:rgb(100%,100%,100%);fill-opacity:1;" d="M 5.207031 4.375 C 5.117188 4.375 5.03125 4.421875 4.980469 4.5 C 4.695312 4.925781 4.398438 5.496094 4.113281 6.015625 L 3.789062 5.367188 C 3.71875 5.230469 3.550781 5.171875 3.414062 5.242188 C 3.277344 5.3125 3.21875 5.480469 3.289062 5.617188 L 3.847656 6.734375 C 3.890625 6.824219 3.984375 6.882812 4.089844 6.886719 C 4.191406 6.890625 4.289062 6.835938 4.339844 6.746094 C 4.703125 6.121094 5.109375 5.308594 5.445312 4.8125 C 5.503906 4.722656 5.511719 4.609375 5.460938 4.519531 C 5.410156 4.425781 5.3125 4.371094 5.207031 4.375 Z M 5.207031 4.375 "/>
<path style=" stroke:none;fill-rule:nonzero;fill:rgb(100%,100%,100%);fill-opacity:1;" d="M 6.046875 8 L 12.183594 8 C 12.488281 8 12.738281 8.25 12.738281 8.558594 C 12.738281 8.867188 12.488281 9.117188 12.183594 9.117188 L 6.046875 9.117188 C 5.738281 9.117188 5.488281 8.867188 5.488281 8.558594 C 5.488281 8.25 5.738281 8 6.046875 8 Z M 6.046875 8 "/>
<path style=" stroke:none;fill-rule:nonzero;fill:rgb(100%,100%,100%);fill-opacity:1;" d="M 4.652344 8.558594 C 4.652344 8.867188 4.402344 9.117188 4.09375 9.117188 C 3.789062 9.117188 3.539062 8.867188 3.539062 8.558594 C 3.539062 8.25 3.789062 8 4.09375 8 C 4.402344 8 4.652344 8.25 4.652344 8.558594 Z M 4.652344 8.558594 "/>
<path style=" stroke:none;fill-rule:nonzero;fill:rgb(100%,100%,100%);fill-opacity:1;" d="M 6.046875 10.511719 L 12.183594 10.511719 C 12.488281 10.511719 12.738281 10.761719 12.738281 11.070312 C 12.738281 11.375 12.488281 11.625 12.183594 11.625 L 6.046875 11.625 C 5.738281 11.625 5.488281 11.375 5.488281 11.070312 C 5.488281 10.761719 5.738281 10.511719 6.046875 10.511719 Z M 6.046875 10.511719 "/>
<path style=" stroke:none;fill-rule:nonzero;fill:rgb(100%,100%,100%);fill-opacity:1;" d="M 4.652344 11.070312 C 4.652344 11.375 4.402344 11.625 4.09375 11.625 C 3.789062 11.625 3.539062 11.375 3.539062 11.070312 C 3.539062 10.761719 3.789062 10.511719 4.09375 10.511719 C 4.402344 10.511719 4.652344 10.761719 4.652344 11.070312 Z M 4.652344 11.070312 "/>
</g>
</svg>
