<?xml version="1.0" encoding="UTF-8"?>
<svg xmlns="http://www.w3.org/2000/svg" xmlns:xlink="http://www.w3.org/1999/xlink" width="16pt" height="16pt" viewBox="0 0 16 16" version="1.1">
<g id="surface1">
<path style=" stroke:none;fill-rule:evenodd;fill:rgb(80%,80%,80%);fill-opacity:1;" d="M 3.734375 0.949219 L 12.265625 0.949219 C 13.800781 0.949219 15.050781 2.199219 15.050781 3.734375 L 15.050781 12.265625 C 15.050781 13.800781 13.800781 15.050781 12.265625 15.050781 L 3.734375 15.050781 C 2.199219 15.050781 0.949219 13.800781 0.949219 12.265625 L 0.949219 3.734375 C 0.949219 2.199219 2.199219 0.949219 3.734375 0.949219 Z M 3.734375 0.949219 "/>
<path style=" stroke:none;fill-rule:nonzero;fill:rgb(90.588235%,29.803922%,23.529412%);fill-opacity:1;" d="M 6.851562 6 C 6.109375 6 5.5 6.558594 5.5 7.25 C 5.5 7.609375 5.664062 7.9375 5.921875 8.167969 L 7.96875 10 L 10.078125 8.167969 C 10.335938 7.9375 10.5 7.609375 10.5 7.25 C 10.5 6.558594 9.890625 6 9.148438 6 C 8.660156 6 8.234375 6.242188 8 6.605469 C 7.765625 6.242188 7.339844 6 6.851562 6 Z M 6.851562 6 "/>
<path style=" stroke:none;fill-rule:nonzero;fill:rgb(90.588235%,29.803922%,23.529412%);fill-opacity:1;" d="M 4.039062 5 C 3.742188 5 3.5 5.210938 3.5 5.46875 C 3.5 5.605469 3.5625 5.726562 3.671875 5.8125 L 4.484375 6.5 L 5.328125 5.8125 C 5.4375 5.726562 5.5 5.605469 5.5 5.46875 C 5.5 5.210938 5.257812 5 4.960938 5 C 4.765625 5 4.59375 5.089844 4.5 5.226562 C 4.40625 5.089844 4.234375 5 4.039062 5 Z M 4.039062 5 "/>
<path style=" stroke:none;fill-rule:nonzero;fill:rgb(90.588235%,29.803922%,23.529412%);fill-opacity:1;" d="M 4.953125 4.136719 L 4.144531 4.136719 L 4.019531 4.5 L 3.5 4.5 L 4.242188 2.5 L 4.855469 2.5 L 5.597656 4.5 L 5.078125 4.5 Z M 4.273438 3.765625 L 4.824219 3.765625 L 4.546875 2.96875 Z M 4.273438 3.765625 "/>
<path style=" stroke:none;fill-rule:nonzero;fill:rgb(90.588235%,29.803922%,23.529412%);fill-opacity:1;" d="M 11.960938 11 C 12.257812 11 12.5 10.789062 12.5 10.53125 C 12.5 10.394531 12.4375 10.273438 12.328125 10.1875 L 11.515625 9.5 L 10.671875 10.1875 C 10.5625 10.273438 10.5 10.394531 10.5 10.53125 C 10.5 10.789062 10.742188 11 11.039062 11 C 11.234375 11 11.40625 10.910156 11.5 10.773438 C 11.59375 10.910156 11.765625 11 11.960938 11 Z M 11.960938 11 "/>
<path style=" stroke:none;fill-rule:nonzero;fill:rgb(90.588235%,29.803922%,23.529412%);fill-opacity:1;" d="M 11.046875 11.863281 L 11.855469 11.863281 L 11.980469 11.5 L 12.5 11.5 L 11.757812 13.5 L 11.144531 13.5 L 10.402344 11.5 L 10.921875 11.5 Z M 11.726562 12.234375 L 11.175781 12.234375 L 11.453125 13.03125 Z M 11.726562 12.234375 "/>
</g>
</svg>
