<?xml version="1.0" encoding="UTF-8"?>
<svg xmlns="http://www.w3.org/2000/svg" xmlns:xlink="http://www.w3.org/1999/xlink" width="16pt" height="16pt" viewBox="0 0 16 16" version="1.1">
<g id="surface1">
<path style=" stroke:none;fill-rule:evenodd;fill:rgb(55.686275%,55.686275%,55.686275%);fill-opacity:1;" d="M 3.734375 0.949219 L 12.265625 0.949219 C 13.800781 0.949219 15.050781 2.199219 15.050781 3.734375 L 15.050781 12.265625 C 15.050781 13.800781 13.800781 15.050781 12.265625 15.050781 L 3.734375 15.050781 C 2.199219 15.050781 0.949219 13.800781 0.949219 12.265625 L 0.949219 3.734375 C 0.949219 2.199219 2.199219 0.949219 3.734375 0.949219 Z M 3.734375 0.949219 "/>
<path style=" stroke:none;fill-rule:nonzero;fill:rgb(27.843137%,27.843137%,27.843137%);fill-opacity:1;" d="M 4.457031 4.089844 L 11.542969 4.089844 C 12.46875 4.089844 13.222656 4.84375 13.222656 5.769531 L 13.222656 10.230469 C 13.222656 11.15625 12.46875 11.910156 11.542969 11.910156 L 4.457031 11.910156 C 3.53125 11.910156 2.777344 11.15625 2.777344 10.230469 L 2.777344 5.769531 C 2.777344 4.84375 3.53125 4.089844 4.457031 4.089844 Z M 4.457031 4.089844 "/>
<path style=" stroke:none;fill-rule:nonzero;fill:rgb(13.72549%,13.72549%,13.72549%);fill-opacity:1;" d="M 4.519531 4.585938 L 11.480469 4.585938 C 12.183594 4.585938 12.753906 5.132812 12.753906 5.808594 L 12.753906 10.191406 C 12.753906 10.867188 12.183594 11.414062 11.480469 11.414062 L 4.519531 11.414062 C 3.816406 11.414062 3.246094 10.867188 3.246094 10.191406 L 3.246094 5.808594 C 3.246094 5.132812 3.816406 4.585938 4.519531 4.585938 Z M 4.519531 4.585938 "/>
<path style=" stroke:none;fill-rule:evenodd;fill:rgb(28.235294%,80.392157%,25.882353%);fill-opacity:1;" d="M 14.007812 10.949219 C 14.007812 12.609375 12.664062 13.949219 11.007812 13.949219 C 9.351562 13.949219 8.007812 12.609375 8.007812 10.949219 C 8.007812 9.292969 9.351562 7.949219 11.007812 7.949219 C 12.664062 7.949219 14.007812 9.292969 14.007812 10.949219 Z M 14.007812 10.949219 "/>
<path style=" stroke:none;fill-rule:nonzero;fill:rgb(100%,100%,100%);fill-opacity:1;" d="M 9.507812 9.453125 L 9.757812 9.453125 C 11.277344 9.453125 12.507812 10.679688 12.507812 12.199219 L 12.507812 12.453125 L 12.253906 12.453125 C 12.121094 12.453125 12.011719 12.335938 12.011719 12.199219 C 12.011719 10.957031 11 9.949219 9.761719 9.949219 C 9.625 9.949219 9.507812 9.839844 9.507812 9.703125 Z M 9.507812 9.453125 "/>
<path style=" stroke:none;fill-rule:nonzero;fill:rgb(100%,100%,100%);fill-opacity:1;" d="M 9.507812 10.453125 L 9.757812 10.453125 C 10.726562 10.453125 11.503906 11.234375 11.503906 12.199219 L 11.503906 12.453125 L 11.257812 12.453125 C 11.125 12.453125 11.007812 12.335938 11.007812 12.199219 C 11.007812 11.507812 10.449219 10.953125 9.757812 10.953125 C 9.625 10.953125 9.507812 10.835938 9.507812 10.699219 Z M 9.507812 10.453125 "/>
<path style=" stroke:none;fill-rule:nonzero;fill:rgb(100%,100%,100%);fill-opacity:1;" d="M 10.003906 11.449219 C 10.28125 11.449219 10.511719 11.675781 10.511719 11.953125 C 10.511719 12.230469 10.28125 12.453125 10.007812 12.453125 C 9.730469 12.453125 9.507812 12.230469 9.507812 11.953125 C 9.507812 11.675781 9.730469 11.449219 10.007812 11.449219 Z M 10.003906 11.449219 "/>
</g>
</svg>
