<?xml version="1.0" encoding="UTF-8"?>
<svg xmlns="http://www.w3.org/2000/svg" xmlns:xlink="http://www.w3.org/1999/xlink" width="16pt" height="16pt" viewBox="0 0 16 16" version="1.1">
<g id="surface1">
<path style=" stroke:none;fill-rule:evenodd;fill:rgb(11.372549%,65.098039%,90.980392%);fill-opacity:1;" d="M 3.734375 0.949219 L 12.265625 0.949219 C 13.800781 0.949219 15.050781 2.199219 15.050781 3.734375 L 15.050781 12.265625 C 15.050781 13.800781 13.800781 15.050781 12.265625 15.050781 L 3.734375 15.050781 C 2.199219 15.050781 0.949219 13.800781 0.949219 12.265625 L 0.949219 3.734375 C 0.949219 2.199219 2.199219 0.949219 3.734375 0.949219 Z M 3.734375 0.949219 "/>
<path style=" stroke:none;fill-rule:nonzero;fill:rgb(100%,100%,100%);fill-opacity:1;" d="M 10 4 C 9.171875 4 8.5 4.671875 8.5 5.5 C 8.5 5.617188 8.523438 5.71875 8.546875 5.828125 L 6.9375 6.828125 C 6.679688 6.625 6.355469 6.5 6 6.5 C 5.171875 6.5 4.5 7.171875 4.5 8 C 4.5 8.828125 5.171875 9.5 6 9.5 C 6.355469 9.5 6.679688 9.375 6.9375 9.171875 L 8.546875 10.171875 C 8.523438 10.28125 8.5 10.382812 8.5 10.5 C 8.5 11.328125 9.171875 12 10 12 C 10.828125 12 11.5 11.328125 11.5 10.5 C 11.5 9.671875 10.828125 9 10 9 C 9.644531 9 9.320312 9.125 9.0625 9.328125 L 7.453125 8.328125 C 7.476562 8.21875 7.5 8.117188 7.5 8 C 7.5 7.882812 7.476562 7.78125 7.453125 7.671875 L 9.0625 6.671875 C 9.320312 6.875 9.644531 7 10 7 C 10.828125 7 11.5 6.328125 11.5 5.5 C 11.5 4.671875 10.828125 4 10 4 Z M 10 4 "/>
</g>
</svg>
