<?xml version="1.0" encoding="UTF-8"?>
<svg xmlns="http://www.w3.org/2000/svg" xmlns:xlink="http://www.w3.org/1999/xlink" width="16pt" height="16pt" viewBox="0 0 16 16" version="1.1">
<g id="surface1">
<path style=" stroke:none;fill-rule:evenodd;fill:rgb(88.627451%,81.960784%,26.666667%);fill-opacity:1;" d="M 3.734375 0.949219 L 12.265625 0.949219 C 13.800781 0.949219 15.050781 2.199219 15.050781 3.734375 L 15.050781 12.265625 C 15.050781 13.800781 13.800781 15.050781 12.265625 15.050781 L 3.734375 15.050781 C 2.199219 15.050781 0.949219 13.800781 0.949219 12.265625 L 0.949219 3.734375 C 0.949219 2.199219 2.199219 0.949219 3.734375 0.949219 Z M 3.734375 0.949219 "/>
<path style=" stroke:none;fill-rule:nonzero;fill:rgb(47.45098%,44.313725%,19.215686%);fill-opacity:1;" d="M 3.648438 0.949219 L 4.421875 0.949219 L 4.421875 5.1875 L 3.648438 5.1875 Z M 3.648438 0.949219 "/>
<path style=" stroke:none;fill-rule:nonzero;fill:rgb(47.45098%,44.313725%,19.215686%);fill-opacity:1;" d="M 9.425781 0.949219 L 10.199219 0.949219 L 10.199219 4.03125 L 9.425781 4.03125 Z M 9.425781 0.949219 "/>
<path style=" stroke:none;fill-rule:nonzero;fill:rgb(47.45098%,44.313725%,19.215686%);fill-opacity:1;" d="M 4.804688 0.949219 L 5.578125 0.949219 L 5.578125 2.875 L 4.804688 2.875 Z M 4.804688 0.949219 "/>
<path style=" stroke:none;fill-rule:nonzero;fill:rgb(47.45098%,44.313725%,19.215686%);fill-opacity:1;" d="M 2.878906 5.957031 L 2.878906 9.039062 L 5.191406 9.039062 L 5.191406 5.957031 Z M 3.648438 6.726562 L 4.421875 6.726562 L 4.421875 8.265625 L 3.648438 8.265625 Z M 3.648438 6.726562 "/>
<path style=" stroke:none;fill-rule:nonzero;fill:rgb(47.45098%,44.313725%,19.215686%);fill-opacity:1;" d="M 5.960938 0.949219 L 6.730469 0.949219 L 6.730469 2.875 L 5.960938 2.875 Z M 5.960938 0.949219 "/>
<path style=" stroke:none;fill-rule:nonzero;fill:rgb(47.45098%,44.313725%,19.215686%);fill-opacity:1;" d="M 7.117188 0.949219 L 7.886719 0.949219 L 7.886719 2.875 L 7.117188 2.875 Z M 7.117188 0.949219 "/>
<path style=" stroke:none;fill-rule:nonzero;fill:rgb(47.45098%,44.313725%,19.215686%);fill-opacity:1;" d="M 8.273438 0.949219 L 9.042969 0.949219 L 9.042969 2.875 L 8.273438 2.875 Z M 8.273438 0.949219 "/>
<path style=" stroke:none;fill-rule:nonzero;fill:rgb(47.45098%,44.313725%,19.215686%);fill-opacity:1;" d="M 10.582031 0.949219 L 11.355469 0.949219 L 11.355469 2.875 L 10.582031 2.875 Z M 10.582031 0.949219 "/>
<path style=" stroke:none;fill-rule:nonzero;fill:rgb(47.45098%,44.313725%,19.215686%);fill-opacity:1;" d="M 11.738281 0.949219 L 12.507812 0.949219 L 12.507812 2.875 L 11.738281 2.875 Z M 11.738281 0.949219 "/>
</g>
</svg>
