<?xml version="1.0" encoding="UTF-8"?>
<svg xmlns="http://www.w3.org/2000/svg" xmlns:xlink="http://www.w3.org/1999/xlink" width="16pt" height="16pt" viewBox="0 0 16 16" version="1.1">
<g id="surface1">
<path style=" stroke:none;fill-rule:evenodd;fill:rgb(90.588235%,29.803922%,23.529412%);fill-opacity:1;" d="M 0.949219 10.664062 L 5.898438 8.78125 C 5.871094 8.710938 5.847656 8.640625 5.828125 8.574219 C 5.8125 8.5 5.796875 8.429688 5.78125 8.359375 C 5.769531 8.285156 5.761719 8.214844 5.757812 8.140625 C 5.753906 8.09375 5.75 8.046875 5.75 8 C 5.75 7.925781 5.757812 7.855469 5.765625 7.78125 C 5.773438 7.707031 5.78125 7.636719 5.796875 7.5625 C 5.8125 7.492188 5.832031 7.421875 5.851562 7.351562 C 5.867188 7.308594 5.882812 7.265625 5.898438 7.21875 L 0.949219 5.332031 Z M 0.949219 10.664062 "/>
<path style=" stroke:none;fill-rule:evenodd;fill:rgb(90.588235%,29.803922%,23.529412%);fill-opacity:1;" d="M 10.628906 15.050781 L 8.722656 10.046875 C 8.65625 10.074219 8.585938 10.09375 8.515625 10.113281 C 8.445312 10.132812 8.375 10.148438 8.300781 10.160156 C 8.230469 10.171875 8.15625 10.183594 8.082031 10.1875 C 8.039062 10.191406 7.992188 10.191406 7.945312 10.191406 C 7.871094 10.191406 7.796875 10.1875 7.726562 10.179688 C 7.652344 10.171875 7.578125 10.160156 7.507812 10.144531 C 7.4375 10.132812 7.367188 10.113281 7.296875 10.09375 C 7.25 10.078125 7.207031 10.0625 7.164062 10.046875 L 5.257812 15.050781 Z M 10.628906 15.050781 "/>
<path style=" stroke:none;fill-rule:evenodd;fill:rgb(90.588235%,29.803922%,23.529412%);fill-opacity:1;" d="M 15.050781 5.292969 L 9.992188 7.21875 C 10.015625 7.289062 10.039062 7.359375 10.058594 7.425781 C 10.078125 7.5 10.09375 7.570312 10.105469 7.640625 C 10.117188 7.714844 10.125 7.785156 10.128906 7.859375 C 10.132812 7.90625 10.136719 7.953125 10.136719 8 C 10.136719 8.074219 10.132812 8.144531 10.125 8.21875 C 10.117188 8.292969 10.105469 8.363281 10.089844 8.4375 C 10.078125 8.507812 10.058594 8.578125 10.035156 8.648438 C 10.019531 8.691406 10.007812 8.734375 9.988281 8.777344 L 15.050781 10.707031 Z M 15.050781 5.292969 "/>
<path style=" stroke:none;fill-rule:evenodd;fill:rgb(82.352941%,82.352941%,82.352941%);fill-opacity:1;" d="M 5.257812 0.949219 L 3.734375 0.949219 C 2.191406 0.949219 0.949219 2.191406 0.949219 3.738281 L 0.949219 5.332031 L 5.898438 7.21875 C 5.882812 7.265625 5.867188 7.308594 5.851562 7.351562 C 5.832031 7.421875 5.8125 7.492188 5.796875 7.5625 C 5.78125 7.636719 5.773438 7.707031 5.765625 7.78125 C 5.757812 7.855469 5.75 7.925781 5.75 8 C 5.75 8.046875 5.753906 8.09375 5.757812 8.140625 C 5.761719 8.214844 5.769531 8.285156 5.78125 8.359375 C 5.796875 8.429688 5.8125 8.5 5.828125 8.574219 C 5.847656 8.640625 5.871094 8.710938 5.898438 8.78125 L 0.949219 10.664062 L 0.949219 12.265625 C 0.949219 13.808594 2.191406 15.050781 3.734375 15.050781 L 5.257812 15.050781 L 7.164062 10.046875 C 7.207031 10.0625 7.25 10.078125 7.296875 10.09375 C 7.367188 10.113281 7.4375 10.132812 7.507812 10.144531 C 7.578125 10.160156 7.652344 10.171875 7.726562 10.179688 C 7.796875 10.1875 7.871094 10.191406 7.945312 10.191406 C 7.992188 10.191406 8.039062 10.191406 8.082031 10.1875 C 8.15625 10.183594 8.230469 10.171875 8.300781 10.160156 C 8.375 10.148438 8.445312 10.132812 8.515625 10.113281 C 8.585938 10.09375 8.65625 10.074219 8.722656 10.046875 L 10.628906 15.050781 L 12.265625 15.050781 C 13.808594 15.050781 15.050781 13.808594 15.050781 12.265625 L 15.050781 10.707031 L 9.988281 8.777344 C 10.007812 8.734375 10.019531 8.691406 10.035156 8.648438 C 10.058594 8.578125 10.078125 8.507812 10.089844 8.4375 C 10.105469 8.363281 10.117188 8.292969 10.125 8.21875 C 10.132812 8.144531 10.136719 8.074219 10.136719 8 C 10.136719 7.953125 10.132812 7.90625 10.128906 7.859375 C 10.125 7.785156 10.117188 7.714844 10.105469 7.640625 C 10.09375 7.570312 10.078125 7.5 10.058594 7.425781 C 10.039062 7.359375 10.015625 7.289062 9.992188 7.21875 L 15.050781 5.292969 L 15.050781 3.738281 C 15.050781 2.191406 13.808594 0.949219 12.265625 0.949219 L 10.628906 0.949219 L 8.722656 5.953125 C 8.679688 5.9375 8.636719 5.921875 8.59375 5.90625 C 8.523438 5.886719 8.453125 5.867188 8.378906 5.855469 C 8.308594 5.839844 8.234375 5.828125 8.164062 5.820312 C 8.089844 5.8125 8.015625 5.808594 7.945312 5.808594 C 7.898438 5.808594 7.851562 5.8125 7.804688 5.8125 C 7.730469 5.816406 7.660156 5.828125 7.585938 5.839844 C 7.515625 5.851562 7.441406 5.867188 7.375 5.886719 C 7.300781 5.90625 7.234375 5.925781 7.164062 5.953125 Z M 5.257812 0.949219 "/>
<path style=" stroke:none;fill-rule:evenodd;fill:rgb(90.588235%,29.803922%,23.529412%);fill-opacity:1;" d="M 5.257812 0.949219 L 7.164062 5.953125 C 7.234375 5.925781 7.300781 5.90625 7.375 5.886719 C 7.441406 5.867188 7.515625 5.851562 7.585938 5.839844 C 7.660156 5.828125 7.730469 5.816406 7.804688 5.8125 C 7.851562 5.8125 7.898438 5.808594 7.945312 5.808594 C 8.015625 5.808594 8.089844 5.8125 8.164062 5.820312 C 8.234375 5.828125 8.308594 5.839844 8.378906 5.855469 C 8.453125 5.867188 8.523438 5.886719 8.59375 5.90625 C 8.636719 5.921875 8.679688 5.9375 8.722656 5.953125 L 10.628906 0.949219 Z M 5.257812 0.949219 "/>
</g>
</svg>
