<?xml version="1.0" encoding="UTF-8"?>
<svg xmlns="http://www.w3.org/2000/svg" xmlns:xlink="http://www.w3.org/1999/xlink" width="16pt" height="16pt" viewBox="0 0 16 16" version="1.1">
<g id="surface1">
<path style=" stroke:none;fill-rule:evenodd;fill:rgb(18.823529%,62.352941%,100%);fill-opacity:1;" d="M 3.734375 0.949219 L 12.265625 0.949219 C 13.800781 0.949219 15.050781 2.199219 15.050781 3.734375 L 15.050781 12.265625 C 15.050781 13.800781 13.800781 15.050781 12.265625 15.050781 L 3.734375 15.050781 C 2.199219 15.050781 0.949219 13.800781 0.949219 12.265625 L 0.949219 3.734375 C 0.949219 2.199219 2.199219 0.949219 3.734375 0.949219 Z M 3.734375 0.949219 "/>
<path style=" stroke:none;fill-rule:evenodd;fill:rgb(90.196078%,90.196078%,90.196078%);fill-opacity:1;" d="M 12.609375 8 C 12.609375 10.546875 10.546875 12.609375 8 12.609375 C 5.453125 12.609375 3.390625 10.546875 3.390625 8 C 3.390625 5.453125 5.453125 3.390625 8 3.390625 C 10.546875 3.390625 12.609375 5.453125 12.609375 8 Z M 12.609375 8 "/>
<path style=" stroke:none;fill-rule:evenodd;fill:rgb(94.901961%,94.901961%,94.901961%);fill-opacity:1;" d="M 10.003906 12.144531 L 9.460938 11.039062 L 9.984375 12.15625 C 9.992188 12.152344 10 12.148438 10.003906 12.144531 Z M 10.003906 12.144531 "/>
<path style=" stroke:none;fill-rule:evenodd;fill:rgb(100%,100%,100%);fill-opacity:1;" d="M 10.832031 11.628906 L 8.199219 8.359375 L 9.460938 11.039062 L 10.003906 12.144531 C 10.296875 12 10.574219 11.828125 10.832031 11.628906 Z M 10.832031 11.628906 "/>
<path style=" stroke:none;fill-rule:evenodd;fill:rgb(94.901961%,94.901961%,94.901961%);fill-opacity:1;" d="M 8.023438 7.984375 L 8.199219 8.359375 L 10.832031 11.628906 C 11 11.5 11.160156 11.363281 11.308594 11.210938 C 11.414062 11.105469 11.511719 10.988281 11.605469 10.871094 C 11.609375 10.867188 11.609375 10.863281 11.613281 10.859375 C 11.703125 10.75 11.785156 10.632812 11.863281 10.515625 C 11.875 10.5 11.882812 10.484375 11.890625 10.46875 C 11.960938 10.359375 12.027344 10.246094 12.089844 10.128906 C 12.101562 10.105469 12.113281 10.082031 12.125 10.058594 C 12.175781 9.949219 12.226562 9.839844 12.273438 9.726562 C 12.285156 9.691406 12.300781 9.65625 12.3125 9.625 C 12.351562 9.515625 12.390625 9.410156 12.421875 9.300781 C 12.433594 9.257812 12.445312 9.21875 12.457031 9.171875 C 12.472656 9.101562 12.492188 9.027344 12.503906 8.953125 Z M 8.023438 7.984375 "/>
<path style=" stroke:none;fill-rule:evenodd;fill:rgb(90.196078%,90.196078%,90.196078%);fill-opacity:1;" d="M 8 3.390625 C 7.113281 3.390625 6.25 3.644531 5.503906 4.125 L 7.984375 8.027344 L 3.40625 7.628906 C 3.398438 7.753906 3.390625 7.875 3.390625 8 C 3.390625 10.546875 5.453125 12.609375 8 12.609375 C 8.6875 12.609375 9.367188 12.453125 9.984375 12.15625 L 8.023438 7.984375 L 12.503906 8.953125 C 12.574219 8.640625 12.609375 8.320312 12.609375 8 C 12.609375 5.453125 10.546875 3.390625 8 3.390625 Z M 8 3.390625 "/>
<path style=" stroke:none;fill-rule:evenodd;fill:rgb(94.901961%,94.901961%,94.901961%);fill-opacity:1;" d="M 4.722656 4.765625 C 3.960938 5.535156 3.496094 6.550781 3.40625 7.628906 L 7.984375 8.027344 Z M 4.722656 4.765625 "/>
<path style=" stroke:none;fill-rule:evenodd;fill:rgb(100%,100%,100%);fill-opacity:1;" d="M 4.722656 4.765625 L 7.984375 8.027344 L 5.503906 4.125 C 5.222656 4.308594 4.957031 4.523438 4.722656 4.765625 Z M 4.722656 4.765625 "/>
<path style=" stroke:none;fill-rule:evenodd;fill:rgb(70.196078%,70.196078%,70.196078%);fill-opacity:1;" d="M 9.652344 8 C 9.652344 8.910156 8.910156 9.652344 8 9.652344 C 7.085938 9.652344 6.347656 8.910156 6.347656 8 C 6.347656 7.089844 7.085938 6.347656 8 6.347656 C 8.910156 6.347656 9.652344 7.089844 9.652344 8 Z M 9.652344 8 "/>
<path style=" stroke:none;fill-rule:evenodd;fill:rgb(100%,100%,100%);fill-opacity:1;" d="M 9.21875 8 C 9.21875 8.671875 8.671875 9.21875 8 9.21875 C 7.328125 9.21875 6.78125 8.671875 6.78125 8 C 6.78125 7.328125 7.328125 6.78125 8 6.78125 C 8.671875 6.78125 9.21875 7.328125 9.21875 8 Z M 9.21875 8 "/>
<path style=" stroke:none;fill-rule:evenodd;fill:rgb(18.431373%,49.019608%,73.72549%);fill-opacity:1;" d="M 15.050781 8.90625 C 14.785156 8.945312 14.492188 9.03125 14.230469 9.0625 C 13.222656 9.183594 12.261719 9.230469 11.335938 9.210938 C 10.414062 9.1875 9.53125 9.101562 8.6875 8.957031 C 7.839844 8.8125 7.027344 8.609375 6.246094 8.355469 C 5.460938 8.101562 4.707031 7.796875 3.980469 7.457031 C 3.25 7.113281 2.546875 6.730469 1.859375 6.316406 C 1.542969 6.125 1.261719 5.871094 0.949219 5.664062 L 0.949219 12.265625 C 0.949219 13.808594 2.191406 15.050781 3.734375 15.050781 L 12.265625 15.050781 C 13.808594 15.050781 15.050781 13.808594 15.050781 12.265625 Z M 15.050781 8.90625 "/>
<path style=" stroke:none;fill-rule:evenodd;fill:rgb(100%,100%,100%);fill-opacity:1;" d="M 11.039062 11.90625 L 8.71875 13.246094 L 8.71875 10.566406 Z M 11.039062 11.90625 "/>
<path style=" stroke:none;fill-rule:evenodd;fill:rgb(100%,100%,100%);fill-opacity:1;" d="M 5.4375 10.566406 L 8.101562 10.566406 L 8.101562 13.234375 L 5.4375 13.234375 Z M 5.4375 10.566406 "/>
</g>
</svg>
