<?xml version="1.0" encoding="UTF-8"?>
<svg xmlns="http://www.w3.org/2000/svg" xmlns:xlink="http://www.w3.org/1999/xlink" width="16pt" height="16pt" viewBox="0 0 16 16" version="1.1">
<defs>
<linearGradient id="linear0" gradientUnits="userSpaceOnUse" x1="0" y1="24" x2="0" y2="19" gradientTransform="matrix(0.45896,0,0,0.5,-2.5075,-4.25)">
<stop offset="0" style="stop-color:rgb(28.235294%,28.235294%,28.235294%);stop-opacity:1;"/>
<stop offset="0.494" style="stop-color:rgb(31.372549%,31.372549%,31.372549%);stop-opacity:1;"/>
<stop offset="1" style="stop-color:rgb(28.235294%,28.235294%,28.235294%);stop-opacity:1;"/>
</linearGradient>
</defs>
<g id="surface1">
<path style=" stroke:none;fill-rule:evenodd;fill:rgb(80%,80%,80%);fill-opacity:1;" d="M 3.734375 0.949219 L 12.265625 0.949219 C 13.800781 0.949219 15.050781 2.199219 15.050781 3.734375 L 15.050781 12.265625 C 15.050781 13.800781 13.800781 15.050781 12.265625 15.050781 L 3.734375 15.050781 C 2.199219 15.050781 0.949219 13.800781 0.949219 12.265625 L 0.949219 3.734375 C 0.949219 2.199219 2.199219 0.949219 3.734375 0.949219 Z M 3.734375 0.949219 "/>
<path style=" stroke:none;fill-rule:evenodd;fill:url(#linear0);" d="M 3.246094 5.25 C 3.109375 5.25 3 5.359375 3 5.5 L 3 7.5 C 3 7.640625 3.109375 7.75 3.246094 7.75 L 11.261719 7.75 C 11.75 7.75 12.140625 7.363281 12.171875 6.875 C 12.355469 6.863281 12.5 6.699219 12.5 6.5 C 12.5 6.300781 12.355469 6.136719 12.171875 6.125 C 12.140625 5.636719 11.75 5.25 11.261719 5.25 Z M 3.246094 5.25 "/>
<path style=" stroke:none;fill-rule:nonzero;fill:rgb(55.294118%,41.568627%,24.313725%);fill-opacity:1;" d="M 6 7.75 L 6 8.75 L 11 8.75 L 13 10.75 L 13 10.25 L 11 7.75 Z M 6 7.75 "/>
<path style=" stroke:none;fill-rule:nonzero;fill:rgb(70.980392%,54.117647%,33.333333%);fill-opacity:1;" d="M 7 7.75 C 6.171875 7.75 5.5 8.421875 5.5 9.25 C 5.5 10.078125 6.171875 10.75 7 10.75 C 7.828125 10.75 8.5 10.078125 8.5 9.25 C 8.5 8.421875 7.828125 7.75 7 7.75 Z M 7.148438 8.0625 C 7.363281 8.085938 7.5625 8.171875 7.734375 8.304688 L 7.148438 8.886719 L 7.148438 8.0625 M 6.851562 8.0625 L 6.851562 8.886719 L 6.265625 8.300781 C 6.433594 8.171875 6.636719 8.089844 6.851562 8.0625 M 7.949219 8.515625 C 8.078125 8.683594 8.164062 8.886719 8.1875 9.101562 L 7.363281 9.101562 Z M 6.054688 8.515625 L 6.640625 9.101562 L 5.8125 9.101562 C 5.839844 8.886719 5.921875 8.683594 6.054688 8.515625 M 5.8125 9.398438 L 6.640625 9.398438 L 6.050781 9.984375 C 5.921875 9.816406 5.839844 9.613281 5.8125 9.402344 M 7.363281 9.402344 L 8.1875 9.402344 C 8.164062 9.613281 8.078125 9.816406 7.949219 9.984375 L 7.363281 9.402344 M 6.851562 9.613281 L 6.851562 10.441406 C 6.636719 10.414062 6.433594 10.328125 6.265625 10.199219 L 6.851562 9.613281 M 7.148438 9.613281 L 7.734375 10.199219 C 7.566406 10.328125 7.363281 10.414062 7.148438 10.4375 Z M 7.148438 9.613281 "/>
</g>
</svg>
