<?xml version="1.0" encoding="UTF-8"?>
<svg xmlns="http://www.w3.org/2000/svg" xmlns:xlink="http://www.w3.org/1999/xlink" width="16pt" height="16pt" viewBox="0 0 16 16" version="1.1">
<g id="surface1">
<path style=" stroke:none;fill-rule:evenodd;fill:rgb(80%,80%,80%);fill-opacity:1;" d="M 3.734375 0.949219 L 12.265625 0.949219 C 13.800781 0.949219 15.050781 2.199219 15.050781 3.734375 L 15.050781 12.265625 C 15.050781 13.800781 13.800781 15.050781 12.265625 15.050781 L 3.734375 15.050781 C 2.199219 15.050781 0.949219 13.800781 0.949219 12.265625 L 0.949219 3.734375 C 0.949219 2.199219 2.199219 0.949219 3.734375 0.949219 Z M 3.734375 0.949219 "/>
<path style=" stroke:none;fill-rule:nonzero;fill:rgb(30.196078%,30.196078%,30.196078%);fill-opacity:1;" d="M 4 9.5 C 4 9.914062 3.664062 10.25 3.25 10.25 C 2.835938 10.25 2.5 9.914062 2.5 9.5 C 2.5 9.085938 2.835938 8.75 3.25 8.75 C 3.664062 8.75 4 9.085938 4 9.5 Z M 4 9.5 "/>
<path style=" stroke:none;fill-rule:nonzero;fill:rgb(30.196078%,30.196078%,30.196078%);fill-opacity:1;" d="M 8.5 9.5 C 8.5 9.914062 8.164062 10.25 7.75 10.25 C 7.335938 10.25 7 9.914062 7 9.5 C 7 9.085938 7.335938 8.75 7.75 8.75 C 8.164062 8.75 8.5 9.085938 8.5 9.5 Z M 8.5 9.5 "/>
<path style=" stroke:none;fill-rule:nonzero;fill:rgb(30.196078%,30.196078%,30.196078%);fill-opacity:1;" d="M 8.5 6.5 C 8.5 6.914062 8.164062 7.25 7.75 7.25 C 7.335938 7.25 7 6.914062 7 6.5 C 7 6.085938 7.335938 5.75 7.75 5.75 C 8.164062 5.75 8.5 6.085938 8.5 6.5 Z M 8.5 6.5 "/>
<path style=" stroke:none;fill-rule:nonzero;fill:rgb(30.196078%,30.196078%,30.196078%);fill-opacity:1;" d="M 13.5 6.5 C 13.5 6.914062 13.164062 7.25 12.75 7.25 C 12.335938 7.25 12 6.914062 12 6.5 C 12 6.085938 12.335938 5.75 12.75 5.75 C 13.164062 5.75 13.5 6.085938 13.5 6.5 Z M 13.5 6.5 "/>
<path style=" stroke:none;fill-rule:nonzero;fill:rgb(30.196078%,30.196078%,30.196078%);fill-opacity:1;" d="M 7.5 6.25 L 7.5 9.25 L 3 9.25 L 3 9.75 L 8 9.75 L 8 6.75 L 13 6.75 L 13 6.25 Z M 7.5 6.25 "/>
</g>
</svg>
