<?xml version="1.0" encoding="UTF-8"?>
<svg xmlns="http://www.w3.org/2000/svg" xmlns:xlink="http://www.w3.org/1999/xlink" width="16pt" height="16pt" viewBox="0 0 16 16" version="1.1">
<g id="surface1">
<path style=" stroke:none;fill-rule:evenodd;fill:rgb(18.039216%,54.117647%,25.882353%);fill-opacity:1;" d="M 3.734375 0.949219 L 12.265625 0.949219 C 13.800781 0.949219 15.050781 2.199219 15.050781 3.734375 L 15.050781 12.265625 C 15.050781 13.800781 13.800781 15.050781 12.265625 15.050781 L 3.734375 15.050781 C 2.199219 15.050781 0.949219 13.800781 0.949219 12.265625 L 0.949219 3.734375 C 0.949219 2.199219 2.199219 0.949219 3.734375 0.949219 Z M 3.734375 0.949219 "/>
<path style=" stroke:none;fill-rule:nonzero;fill:rgb(100%,100%,100%);fill-opacity:1;" d="M 3.050781 4.4375 L 4.441406 3.046875 C 4.632812 2.855469 4.945312 2.855469 5.136719 3.046875 L 6.527344 4.4375 C 6.71875 4.628906 6.71875 4.941406 6.527344 5.132812 L 5.136719 6.523438 C 4.945312 6.71875 4.632812 6.71875 4.441406 6.523438 L 3.050781 5.132812 C 2.859375 4.941406 2.859375 4.628906 3.050781 4.4375 Z M 3.050781 4.4375 "/>
<path style=" stroke:none;fill-rule:nonzero;fill:rgb(100%,100%,100%);fill-opacity:1;" d="M 13.09375 8.003906 C 13.09375 5.1875 10.8125 2.910156 8 2.910156 C 5.1875 2.910156 2.90625 5.1875 2.90625 8.003906 C 2.90625 10.816406 5.1875 13.097656 8 13.097656 C 10.8125 13.097656 13.09375 10.816406 13.09375 8.003906 Z M 13.09375 8.003906 "/>
<path style=" stroke:none;fill-rule:nonzero;fill:rgb(80%,80%,80%);fill-opacity:1;" d="M 11.6875 8.003906 C 11.6875 10.039062 10.035156 11.691406 8 11.691406 C 5.964844 11.691406 4.3125 10.039062 4.3125 8.003906 C 4.3125 5.964844 5.964844 4.3125 8 4.3125 C 10.035156 4.3125 11.6875 5.964844 11.6875 8.003906 Z M 11.6875 8.003906 "/>
<path style=" stroke:none;fill-rule:nonzero;fill:rgb(95.686275%,32.156863%,27.45098%);fill-opacity:1;" d="M 9.335938 5.710938 C 9.589844 5.855469 9.691406 6.148438 9.566406 6.363281 L 8.4375 8.320312 C 8.3125 8.535156 8.007812 8.59375 7.753906 8.449219 C 7.503906 8.304688 7.398438 8.011719 7.523438 7.792969 L 8.65625 5.839844 C 8.777344 5.621094 9.082031 5.5625 9.335938 5.710938 Z M 9.335938 5.710938 "/>
<path style=" stroke:none;fill-rule:nonzero;fill:rgb(30.196078%,30.196078%,30.196078%);fill-opacity:1;" d="M 8.878906 8.003906 C 8.878906 8.488281 8.484375 8.882812 8 8.882812 C 7.515625 8.882812 7.121094 8.488281 7.121094 8.003906 C 7.121094 7.515625 7.515625 7.125 8 7.125 C 8.484375 7.125 8.878906 7.515625 8.878906 8.003906 Z M 8.878906 8.003906 "/>
<path style=" stroke:none;fill-rule:nonzero;fill:rgb(30.196078%,30.196078%,30.196078%);fill-opacity:1;" d="M 8.527344 10.8125 C 8.527344 11.105469 8.292969 11.339844 8 11.339844 C 7.707031 11.339844 7.472656 11.105469 7.472656 10.8125 C 7.472656 10.523438 7.707031 10.285156 8 10.285156 C 8.292969 10.285156 8.527344 10.523438 8.527344 10.8125 Z M 8.527344 10.8125 "/>
<path style=" stroke:none;fill-rule:nonzero;fill:rgb(30.196078%,30.196078%,30.196078%);fill-opacity:1;" d="M 8.527344 5.191406 C 8.527344 5.484375 8.292969 5.71875 8 5.71875 C 7.707031 5.71875 7.472656 5.484375 7.472656 5.191406 C 7.472656 4.902344 7.707031 4.664062 8 4.664062 C 8.292969 4.664062 8.527344 4.902344 8.527344 5.191406 Z M 8.527344 5.191406 "/>
<path style=" stroke:none;fill-rule:nonzero;fill:rgb(30.196078%,30.196078%,30.196078%);fill-opacity:1;" d="M 5.1875 8.53125 C 4.898438 8.53125 4.664062 8.292969 4.664062 8.003906 C 4.664062 7.710938 4.898438 7.476562 5.1875 7.476562 C 5.480469 7.476562 5.71875 7.710938 5.71875 8.003906 C 5.71875 8.292969 5.480469 8.53125 5.1875 8.53125 Z M 5.1875 8.53125 "/>
<path style=" stroke:none;fill-rule:nonzero;fill:rgb(30.196078%,30.196078%,30.196078%);fill-opacity:1;" d="M 10.8125 8.53125 C 10.519531 8.53125 10.28125 8.292969 10.28125 8.003906 C 10.28125 7.710938 10.519531 7.476562 10.8125 7.476562 C 11.101562 7.476562 11.335938 7.710938 11.335938 8.003906 C 11.335938 8.292969 11.101562 8.53125 10.8125 8.53125 Z M 10.8125 8.53125 "/>
</g>
</svg>
