<?xml version="1.0" encoding="UTF-8"?>
<svg xmlns="http://www.w3.org/2000/svg" xmlns:xlink="http://www.w3.org/1999/xlink" width="16pt" height="16pt" viewBox="0 0 16 16" version="1.1">
<g id="surface1">
<path style=" stroke:none;fill-rule:evenodd;fill:rgb(100%,74.117647%,55.686275%);fill-opacity:1;" d="M 3.734375 0.949219 L 12.265625 0.949219 C 13.800781 0.949219 15.050781 2.199219 15.050781 3.734375 L 15.050781 12.265625 C 15.050781 13.800781 13.800781 15.050781 12.265625 15.050781 L 3.734375 15.050781 C 2.199219 15.050781 0.949219 13.800781 0.949219 12.265625 L 0.949219 3.734375 C 0.949219 2.199219 2.199219 0.949219 3.734375 0.949219 Z M 3.734375 0.949219 "/>
<path style=" stroke:none;fill-rule:nonzero;fill:rgb(30.196078%,30.196078%,30.196078%);fill-opacity:1;" d="M 6.5 5.5 C 6.5 6.050781 6.050781 6.5 5.5 6.5 C 4.949219 6.5 4.5 6.050781 4.5 5.5 C 4.5 4.949219 4.949219 4.5 5.5 4.5 C 6.050781 4.5 6.5 4.949219 6.5 5.5 Z M 6.5 5.5 "/>
<path style=" stroke:none;fill-rule:nonzero;fill:rgb(30.196078%,30.196078%,30.196078%);fill-opacity:1;" d="M 11.5 5.5 C 11.5 6.050781 11.050781 6.5 10.5 6.5 C 9.949219 6.5 9.5 6.050781 9.5 5.5 C 9.5 4.949219 9.949219 4.5 10.5 4.5 C 11.050781 4.5 11.5 4.949219 11.5 5.5 Z M 11.5 5.5 "/>
<path style=" stroke:none;fill-rule:nonzero;fill:rgb(30.196078%,30.196078%,30.196078%);fill-opacity:1;" d="M 5.335938 9.652344 C 5.886719 10.796875 6.902344 11.5 8 11.5 C 9.097656 11.5 10.113281 10.792969 10.660156 9.652344 L 10.285156 9.652344 C 9.703125 10.433594 8.875 10.882812 8 10.882812 C 7.125 10.882812 6.296875 10.433594 5.710938 9.652344 Z M 5.335938 9.652344 "/>
<path style=" stroke:none;fill-rule:nonzero;fill:rgb(30.196078%,30.196078%,30.196078%);fill-opacity:1;" d="M 8 7 C 6.894531 7 6 7.671875 6 8.5 C 6 9.328125 6.894531 10 8 10 C 9.105469 10 10 9.328125 10 8.5 C 10 7.671875 9.105469 7 8 7 Z M 7 8 C 7.277344 8 7.5 8.222656 7.5 8.5 C 7.5 8.777344 7.277344 9 7 9 C 6.722656 9 6.5 8.777344 6.5 8.5 C 6.5 8.222656 6.722656 8 7 8 Z M 9 8 C 9.277344 8 9.5 8.222656 9.5 8.5 C 9.5 8.777344 9.277344 9 9 9 C 8.722656 9 8.5 8.777344 8.5 8.5 C 8.5 8.222656 8.722656 8 9 8 Z M 9 8 "/>
</g>
</svg>
