<?xml version="1.0" encoding="UTF-8"?>
<svg xmlns="http://www.w3.org/2000/svg" xmlns:xlink="http://www.w3.org/1999/xlink" width="16pt" height="16pt" viewBox="0 0 16 16" version="1.1">
<g id="surface1">
<path style=" stroke:none;fill-rule:evenodd;fill:rgb(93.72549%,35.294118%,18.823529%);fill-opacity:1;" d="M 3.734375 0.949219 L 12.265625 0.949219 C 13.800781 0.949219 15.050781 2.199219 15.050781 3.734375 L 15.050781 12.265625 C 15.050781 13.800781 13.800781 15.050781 12.265625 15.050781 L 3.734375 15.050781 C 2.199219 15.050781 0.949219 13.800781 0.949219 12.265625 L 0.949219 3.734375 C 0.949219 2.199219 2.199219 0.949219 3.734375 0.949219 Z M 3.734375 0.949219 "/>
<path style=" stroke:none;fill-rule:nonzero;fill:rgb(100%,100%,100%);fill-opacity:1;" d="M 3.75 3 L 3.75 13 L 5.75 13 L 5.75 10.859375 L 7 13 L 9.25 13 L 7.40625 9.75 L 9.25 6.5 L 7 6.5 L 5.75 8.640625 L 5.75 3 Z M 10 6.5 L 8.25 9.5 L 8.097656 9.75 L 8.25 10 L 10 13 L 12.25 13 L 10.40625 9.75 L 12.25 6.5 Z M 10 6.5 "/>
</g>
</svg>
