<?xml version="1.0" encoding="UTF-8"?>
<svg xmlns="http://www.w3.org/2000/svg" xmlns:xlink="http://www.w3.org/1999/xlink" width="16pt" height="16pt" viewBox="0 0 16 16" version="1.1">
<g id="surface1">
<path style=" stroke:none;fill-rule:evenodd;fill:rgb(66.27451%,28.627451%,7.058824%);fill-opacity:1;" d="M 3.734375 0.949219 L 12.265625 0.949219 C 13.800781 0.949219 15.050781 2.199219 15.050781 3.734375 L 15.050781 12.265625 C 15.050781 13.800781 13.800781 15.050781 12.265625 15.050781 L 3.734375 15.050781 C 2.199219 15.050781 0.949219 13.800781 0.949219 12.265625 L 0.949219 3.734375 C 0.949219 2.199219 2.199219 0.949219 3.734375 0.949219 Z M 3.734375 0.949219 "/>
<path style=" stroke:none;fill-rule:nonzero;fill:rgb(92.941176%,64.313725%,34.509804%);fill-opacity:1;" d="M 7 8.25 L 9 8.25 L 8.5 13.25 L 7.5 13.25 Z M 7 8.25 "/>
<path style=" stroke:none;fill-rule:nonzero;fill:rgb(92.941176%,64.313725%,34.509804%);fill-opacity:1;" d="M 8 2.75 C 6.34375 2.75 5 4.09375 5 5.75 C 5 7.40625 6.34375 8.75 8 8.75 C 9.65625 8.75 11 7.40625 11 5.75 C 11 4.09375 9.65625 2.75 8 2.75 Z M 8 3.25 C 9.105469 3.25 10 4.144531 10 5.25 C 10 6.355469 9.105469 7.25 8 7.25 C 6.894531 7.25 6 6.355469 6 5.25 C 6 4.144531 6.894531 3.25 8 3.25 Z M 8 3.25 "/>
<path style=" stroke:none;fill-rule:nonzero;fill:rgb(96.078431%,38.039216%,38.039216%);fill-opacity:1;" d="M 10 8.75 L 10 9.75 L 6 9.75 L 6 8.75 Z M 10 8.75 "/>
</g>
</svg>
