<?xml version="1.0" encoding="UTF-8"?>
<svg xmlns="http://www.w3.org/2000/svg" xmlns:xlink="http://www.w3.org/1999/xlink" width="16pt" height="16pt" viewBox="0 0 16 16" version="1.1">
<g id="surface1">
<path style=" stroke:none;fill-rule:evenodd;fill:rgb(100%,100%,100%);fill-opacity:1;" d="M 3.734375 0.949219 L 12.265625 0.949219 C 13.800781 0.949219 15.050781 2.199219 15.050781 3.734375 L 15.050781 12.265625 C 15.050781 13.800781 13.800781 15.050781 12.265625 15.050781 L 3.734375 15.050781 C 2.199219 15.050781 0.949219 13.800781 0.949219 12.265625 L 0.949219 3.734375 C 0.949219 2.199219 2.199219 0.949219 3.734375 0.949219 Z M 3.734375 0.949219 "/>
<path style=" stroke:none;fill-rule:evenodd;fill:rgb(76.862745%,60.392157%,42.352941%);fill-opacity:1;" d="M 3.734375 0.949219 C 2.191406 0.949219 0.949219 2.191406 0.949219 3.734375 L 0.949219 12.261719 C 0.949219 12.59375 1.011719 12.910156 1.117188 13.207031 L 1.765625 13.207031 L 1.765625 13.523438 L 1.25 13.523438 C 1.710938 14.429688 2.648438 15.050781 3.734375 15.050781 L 12.265625 15.050781 C 13.808594 15.050781 15.050781 13.808594 15.050781 12.261719 L 15.050781 3.734375 C 15.050781 2.191406 13.808594 0.949219 12.265625 0.949219 Z M 1.484375 2.476562 L 2.753906 2.476562 L 2.753906 2.792969 L 1.484375 2.792969 Z M 3.390625 2.476562 L 4.660156 2.476562 L 4.660156 2.792969 L 3.390625 2.792969 Z M 5.296875 2.476562 L 6.566406 2.476562 L 6.566406 2.792969 L 5.296875 2.792969 Z M 7.199219 2.476562 L 8.46875 2.476562 L 8.46875 2.792969 L 7.199219 2.792969 Z M 9.105469 2.476562 L 10.375 2.476562 L 10.375 2.792969 L 9.105469 2.792969 Z M 11.011719 2.476562 L 11.261719 2.476562 L 11.6875 2.519531 L 11.71875 2.527344 L 12.117188 2.648438 L 12.148438 2.660156 L 12.3125 2.75 L 12.160156 3.03125 L 12.011719 2.949219 L 11.644531 2.832031 L 11.238281 2.792969 L 11.011719 2.792969 Z M 12.871094 3.15625 L 13.125 3.46875 L 13.144531 3.492188 L 13.339844 3.851562 L 13.351562 3.878906 L 13.472656 4.28125 L 13.480469 4.3125 L 13.484375 4.355469 L 13.167969 4.386719 L 13.167969 4.359375 L 13.050781 3.988281 L 12.875 3.660156 L 12.625 3.359375 Z M 13.207031 5 L 13.523438 5 L 13.523438 6.273438 L 13.207031 6.273438 Z M 13.207031 6.90625 L 13.523438 6.90625 L 13.523438 8.175781 L 13.207031 8.175781 Z M 13.207031 8.8125 L 13.523438 8.8125 L 13.523438 10.082031 L 13.207031 10.082031 Z M 13.207031 10.71875 L 13.523438 10.71875 L 13.523438 11.261719 L 13.480469 11.6875 L 13.472656 11.71875 L 13.382812 12.015625 L 13.078125 11.921875 L 13.167969 11.640625 L 13.207031 11.238281 Z M 12.804688 12.421875 L 13.050781 12.625 L 12.867188 12.847656 L 12.847656 12.867188 L 12.53125 13.125 L 12.507812 13.144531 L 12.148438 13.339844 L 12.117188 13.351562 L 11.957031 13.402344 L 11.863281 13.097656 L 12.007812 13.050781 L 12.34375 12.871094 L 12.632812 12.632812 Z M 11.273438 13.203125 L 11.304688 13.519531 L 11.261719 13.523438 L 10.019531 13.523438 L 10.019531 13.207031 L 11.238281 13.207031 Z M 2.402344 13.207031 L 3.671875 13.207031 L 3.671875 13.523438 L 2.402344 13.523438 Z M 4.304688 13.207031 L 5.574219 13.207031 L 5.574219 13.523438 L 4.304688 13.523438 Z M 6.210938 13.207031 L 7.480469 13.207031 L 7.480469 13.523438 L 6.210938 13.523438 Z M 8.113281 13.207031 L 9.386719 13.207031 L 9.386719 13.523438 L 8.113281 13.523438 Z M 8.113281 13.207031 "/>
<path style=" stroke:none;fill-rule:nonzero;fill:rgb(60.784314%,43.137255%,24.313725%);fill-opacity:1;" d="M 12.25 6 L 15.050781 6 L 15.050781 10 L 12.25 10 C 11.863281 10 11.550781 9.703125 11.550781 9.332031 L 11.550781 6.667969 C 11.550781 6.296875 11.863281 6 12.25 6 Z M 12.25 6 "/>
<path style=" stroke:none;fill-rule:nonzero;fill:rgb(100%,100%,100%);fill-opacity:1;" d="M 12.453125 6.25 L 12.453125 6.332031 L 12.445312 6.25 L 12.410156 6.253906 L 12.429688 6.417969 L 12.808594 6.417969 L 12.808594 6.25 Z M 12.984375 6.25 L 12.984375 6.417969 L 13.335938 6.417969 L 13.335938 6.25 Z M 13.511719 6.25 L 13.511719 6.417969 L 13.867188 6.417969 L 13.867188 6.25 Z M 14.042969 6.25 L 14.042969 6.417969 L 14.394531 6.417969 L 14.394531 6.25 Z M 14.570312 6.25 L 14.570312 6.417969 L 14.800781 6.417969 L 14.800781 6.25 Z M 12.222656 6.292969 L 12.207031 6.296875 L 12.191406 6.304688 L 12.09375 6.355469 L 12.078125 6.363281 L 11.996094 6.433594 L 11.992188 6.4375 L 11.984375 6.441406 L 11.917969 6.527344 L 11.910156 6.53125 L 11.90625 6.539062 L 11.90625 6.542969 L 12.003906 6.59375 L 12.054688 6.628906 L 12.121094 6.550781 L 12.1875 6.496094 L 12.269531 6.453125 L 12.277344 6.449219 L 12.273438 6.441406 Z M 11.828125 6.710938 L 11.816406 6.753906 L 11.8125 6.761719 L 11.8125 6.769531 L 11.800781 6.878906 L 11.800781 7.066406 L 11.976562 7.066406 L 11.976562 6.890625 L 11.988281 6.792969 L 12 6.757812 Z M 11.800781 7.234375 L 11.800781 7.566406 L 11.976562 7.566406 L 11.976562 7.234375 Z M 11.800781 7.734375 L 11.800781 8.066406 L 11.976562 8.066406 L 11.976562 7.734375 Z M 11.800781 8.234375 L 11.800781 8.566406 L 11.976562 8.566406 L 11.976562 8.234375 Z M 11.800781 8.734375 L 11.800781 9.066406 L 11.976562 9.066406 L 11.976562 8.734375 Z M 11.988281 9.207031 L 11.820312 9.253906 L 11.847656 9.351562 L 11.855469 9.367188 L 11.90625 9.460938 L 11.910156 9.46875 L 11.917969 9.472656 L 11.984375 9.554688 L 11.996094 9.566406 L 12.015625 9.582031 L 12.128906 9.453125 L 12.121094 9.445312 L 12.0625 9.375 L 12.015625 9.296875 Z M 12.257812 9.539062 L 12.171875 9.6875 L 12.191406 9.695312 L 12.207031 9.703125 L 12.3125 9.734375 L 12.320312 9.738281 L 12.328125 9.738281 L 12.445312 9.75 L 12.5625 9.75 L 12.5625 9.582031 L 12.453125 9.582031 L 12.355469 9.574219 L 12.265625 9.546875 Z M 12.734375 9.582031 L 12.734375 9.75 L 13.089844 9.75 L 13.089844 9.582031 Z M 13.265625 9.582031 L 13.265625 9.75 L 13.617188 9.75 L 13.617188 9.582031 Z M 13.796875 9.582031 L 13.796875 9.75 L 14.148438 9.75 L 14.148438 9.582031 Z M 14.324219 9.582031 L 14.324219 9.75 L 14.675781 9.75 L 14.675781 9.582031 Z M 14.324219 9.582031 "/>
<path style=" stroke:none;fill-rule:nonzero;fill:rgb(100%,100%,100%);fill-opacity:1;" d="M 13.617188 8.03125 C 13.617188 8.292969 13.40625 8.503906 13.144531 8.503906 C 12.886719 8.503906 12.675781 8.292969 12.675781 8.03125 C 12.675781 7.773438 12.886719 7.5625 13.144531 7.5625 C 13.40625 7.5625 13.617188 7.773438 13.617188 8.03125 Z M 13.617188 8.03125 "/>
<path style=" stroke:none;fill-rule:nonzero;fill:rgb(0%,0%,0%);fill-opacity:0.494118;" d="M 5.375 7.65625 L 4.5 7.734375 L 4.5 11.160156 L 5.367188 11.035156 L 5.367188 9.574219 L 6.539062 11.195312 L 7.453125 10.917969 L 6.253906 9.363281 L 7.464844 7.894531 L 6.527344 7.691406 L 5.367188 9.160156 Z M 3.386719 8.488281 C 3.375 8.492188 3.363281 8.492188 3.359375 8.5 L 3.011719 8.828125 C 3 8.84375 2.996094 8.863281 3.007812 8.878906 L 3.410156 9.511719 C 3.339844 9.625 3.28125 9.746094 3.238281 9.875 L 2.5 10.019531 C 2.476562 10.023438 2.460938 10.042969 2.460938 10.0625 L 2.460938 10.523438 C 2.460938 10.546875 2.476562 10.5625 2.5 10.566406 L 3.21875 10.730469 C 3.253906 10.878906 3.3125 11.023438 3.394531 11.15625 L 2.976562 11.753906 C 2.964844 11.773438 2.96875 11.796875 2.984375 11.808594 L 3.328125 12.136719 C 3.34375 12.148438 3.363281 12.152344 3.382812 12.140625 L 4.035156 11.765625 C 4.164062 11.835938 4.300781 11.890625 4.449219 11.929688 L 4.601562 12.621094 C 4.605469 12.640625 4.625 12.65625 4.644531 12.65625 L 5.132812 12.65625 C 5.152344 12.65625 5.171875 12.640625 5.175781 12.625 L 5.355469 11.925781 C 5.503906 11.890625 5.648438 11.832031 5.78125 11.757812 L 6.421875 12.15625 C 6.441406 12.167969 6.464844 12.167969 6.480469 12.152344 L 6.824219 11.828125 C 6.835938 11.8125 6.839844 11.792969 6.828125 11.773438 L 6.59375 11.410156 L 6.519531 11.433594 C 6.507812 11.4375 6.496094 11.429688 6.488281 11.421875 C 6.488281 11.421875 6.339844 11.214844 6.148438 10.949219 C 5.914062 11.375 5.445312 11.667969 4.902344 11.667969 C 4.128906 11.667969 3.5 11.078125 3.5 10.34375 C 3.5 9.808594 3.84375 9.347656 4.328125 9.140625 L 4.328125 8.796875 C 4.238281 8.828125 4.15625 8.863281 4.074219 8.90625 C 4.074219 8.90625 4.074219 8.902344 4.074219 8.902344 L 3.414062 8.496094 C 3.40625 8.488281 3.394531 8.488281 3.386719 8.488281 Z M 3.386719 8.488281 "/>
</g>
</svg>
