<?xml version="1.0" encoding="UTF-8"?>
<svg xmlns="http://www.w3.org/2000/svg" xmlns:xlink="http://www.w3.org/1999/xlink" width="16pt" height="16pt" viewBox="0 0 16 16" version="1.1">
<g id="surface1">
<path style=" stroke:none;fill-rule:evenodd;fill:rgb(80%,80%,80%);fill-opacity:1;" d="M 3.734375 0.949219 L 12.265625 0.949219 C 13.800781 0.949219 15.050781 2.199219 15.050781 3.734375 L 15.050781 12.265625 C 15.050781 13.800781 13.800781 15.050781 12.265625 15.050781 L 3.734375 15.050781 C 2.199219 15.050781 0.949219 13.800781 0.949219 12.265625 L 0.949219 3.734375 C 0.949219 2.199219 2.199219 0.949219 3.734375 0.949219 Z M 3.734375 0.949219 "/>
<path style=" stroke:none;fill-rule:nonzero;fill:rgb(40%,40%,40%);fill-opacity:1;" d="M 3.152344 3.785156 L 3.152344 4.285156 L 7.152344 4.285156 L 7.152344 3.785156 Z M 3.152344 4.785156 L 3.152344 5.285156 L 5.152344 5.285156 L 5.152344 4.785156 Z M 3.152344 5.785156 L 3.152344 6.285156 L 5.652344 6.285156 L 5.652344 5.785156 Z M 3.152344 6.785156 L 3.152344 7.285156 L 4.152344 7.285156 L 4.152344 6.785156 Z M 3.152344 7.785156 L 3.152344 8.285156 L 5.652344 8.285156 L 5.652344 7.785156 Z M 3.152344 7.785156 "/>
</g>
</svg>
