<?xml version="1.0" encoding="UTF-8"?>
<svg xmlns="http://www.w3.org/2000/svg" xmlns:xlink="http://www.w3.org/1999/xlink" width="16pt" height="16pt" viewBox="0 0 16 16" version="1.1">
<g id="surface1">
<path style=" stroke:none;fill-rule:evenodd;fill:rgb(76.078431%,20.784314%,16.470588%);fill-opacity:1;" d="M 3.734375 0.949219 L 12.265625 0.949219 C 13.800781 0.949219 15.050781 2.199219 15.050781 3.734375 L 15.050781 12.265625 C 15.050781 13.800781 13.800781 15.050781 12.265625 15.050781 L 3.734375 15.050781 C 2.199219 15.050781 0.949219 13.800781 0.949219 12.265625 L 0.949219 3.734375 C 0.949219 2.199219 2.199219 0.949219 3.734375 0.949219 Z M 3.734375 0.949219 "/>
<path style=" stroke:none;fill-rule:nonzero;fill:rgb(100%,100%,100%);fill-opacity:1;" d="M 6.027344 10.476562 C 5.867188 10.453125 5.582031 10.359375 5.390625 10.265625 C 4.15625 9.664062 3.648438 8.148438 4.257812 6.871094 C 4.953125 5.410156 6.855469 5.039062 8 6.140625 C 8.328125 6.457031 8.476562 6.726562 8.972656 7.929688 C 9.492188 9.1875 9.589844 9.382812 9.757812 9.550781 C 9.9375 9.730469 10.105469 9.789062 10.421875 9.789062 C 10.949219 9.789062 11.324219 9.460938 11.324219 9 C 11.324219 8.609375 11.1875 8.484375 10.5 8.234375 C 9.453125 7.851562 9.117188 7.507812 9.113281 6.8125 C 9.113281 6.4375 9.207031 6.191406 9.441406 5.933594 C 9.78125 5.566406 10.363281 5.445312 10.878906 5.628906 C 11.097656 5.707031 11.5625 6.121094 11.5625 6.242188 C 11.5625 6.296875 11.292969 6.472656 11.144531 6.515625 C 11.066406 6.535156 11 6.507812 10.910156 6.421875 C 10.726562 6.242188 10.601562 6.1875 10.382812 6.1875 C 10.007812 6.1875 9.773438 6.417969 9.773438 6.792969 C 9.773438 7.164062 9.921875 7.289062 10.664062 7.542969 C 11.691406 7.894531 11.992188 8.214844 12 8.949219 C 12.003906 9.582031 11.722656 10.042969 11.164062 10.3125 C 10.910156 10.433594 10.824219 10.449219 10.40625 10.449219 C 9.8125 10.449219 9.546875 10.339844 9.214844 9.957031 C 8.988281 9.703125 8.761719 9.21875 8.035156 7.464844 C 7.734375 6.734375 7.34375 6.378906 6.699219 6.238281 C 6.375 6.167969 5.917969 6.234375 5.621094 6.390625 C 5.328125 6.546875 5.007812 6.890625 4.855469 7.210938 C 4.726562 7.46875 4.714844 7.539062 4.714844 7.988281 C 4.714844 8.414062 4.734375 8.515625 4.839844 8.75 C 5 9.109375 5.3125 9.4375 5.660156 9.617188 C 5.910156 9.746094 5.988281 9.761719 6.386719 9.761719 C 6.769531 9.761719 6.871094 9.742188 7.097656 9.632812 C 7.359375 9.503906 7.710938 9.1875 7.851562 8.949219 L 7.925781 8.824219 L 8.074219 9.164062 C 8.15625 9.351562 8.222656 9.53125 8.222656 9.5625 C 8.222656 9.65625 7.890625 9.964844 7.585938 10.15625 C 7.125 10.445312 6.59375 10.554688 6.027344 10.476562 M 6.027344 10.476562 "/>
</g>
</svg>
