<?xml version="1.0" encoding="UTF-8"?>
<svg xmlns="http://www.w3.org/2000/svg" xmlns:xlink="http://www.w3.org/1999/xlink" width="16pt" height="16pt" viewBox="0 0 16 16" version="1.1">
<g id="surface1">
<path style=" stroke:none;fill-rule:evenodd;fill:rgb(89.411765%,59.607843%,8.235294%);fill-opacity:1;" d="M 15.050781 6.5 C 14.949219 6.449219 14.859375 6.375 14.734375 6.375 L 1.265625 6.375 C 1.140625 6.375 1.050781 6.449219 0.949219 6.5 L 0.949219 12.265625 C 0.949219 13.808594 2.191406 15.050781 3.734375 15.050781 L 12.265625 15.050781 C 13.808594 15.050781 15.050781 13.808594 15.050781 12.265625 Z M 15.050781 6.5 "/>
<path style=" stroke:none;fill-rule:evenodd;fill:rgb(94.901961%,71.764706%,25.098039%);fill-opacity:1;" d="M 13.800781 6.375 C 13.820312 6.308594 13.878906 6.265625 13.878906 6.195312 L 13.878906 5.484375 C 13.878906 5.285156 13.796875 5.109375 13.65625 4.976562 C 13.515625 4.847656 13.328125 4.769531 13.117188 4.769531 L 9.296875 4.769531 C 9.085938 4.769531 8.894531 4.847656 8.757812 4.976562 C 8.621094 5.109375 8.535156 5.285156 8.535156 5.484375 L 8.535156 6.195312 C 8.535156 6.265625 8.59375 6.308594 8.613281 6.375 Z M 13.800781 6.375 "/>
<path style=" stroke:none;fill-rule:evenodd;fill:rgb(94.901961%,71.764706%,25.098039%);fill-opacity:1;" d="M 7.386719 6.375 C 7.40625 6.308594 7.464844 6.265625 7.464844 6.195312 L 7.464844 5.484375 C 7.464844 5.285156 7.378906 5.109375 7.242188 4.976562 C 7.105469 4.847656 6.914062 4.769531 6.703125 4.769531 L 2.882812 4.769531 C 2.671875 4.769531 2.484375 4.847656 2.34375 4.976562 C 2.203125 5.109375 2.121094 5.285156 2.121094 5.484375 L 2.121094 6.195312 C 2.121094 6.265625 2.179688 6.308594 2.199219 6.375 Z M 7.386719 6.375 "/>
<path style=" stroke:none;fill-rule:evenodd;fill:rgb(55.686275%,55.686275%,55.686275%);fill-opacity:1;" d="M 3.734375 0.949219 C 2.191406 0.949219 0.949219 2.191406 0.949219 3.734375 L 0.949219 6.5 C 1.050781 6.449219 1.140625 6.375 1.265625 6.375 L 2.199219 6.375 C 2.179688 6.308594 2.121094 6.265625 2.121094 6.195312 L 2.121094 5.484375 C 2.121094 5.285156 2.203125 5.109375 2.34375 4.976562 C 2.484375 4.847656 2.671875 4.769531 2.882812 4.769531 L 6.703125 4.769531 C 6.914062 4.769531 7.105469 4.847656 7.242188 4.976562 C 7.378906 5.109375 7.464844 5.285156 7.464844 5.484375 L 7.464844 6.195312 C 7.464844 6.265625 7.40625 6.308594 7.386719 6.375 L 8.613281 6.375 C 8.59375 6.308594 8.535156 6.265625 8.535156 6.195312 L 8.535156 5.484375 C 8.535156 5.285156 8.621094 5.109375 8.757812 4.976562 C 8.894531 4.847656 9.085938 4.769531 9.296875 4.769531 L 13.117188 4.769531 C 13.328125 4.769531 13.519531 4.847656 13.65625 4.976562 C 13.796875 5.109375 13.878906 5.285156 13.878906 5.484375 L 13.878906 6.195312 C 13.878906 6.265625 13.820312 6.308594 13.800781 6.375 L 14.734375 6.375 C 14.859375 6.375 14.949219 6.449219 15.050781 6.5 L 15.050781 3.734375 C 15.050781 2.191406 13.808594 0.949219 12.265625 0.949219 Z M 3.734375 0.949219 "/>
</g>
</svg>
