<?xml version="1.0" encoding="UTF-8"?>
<svg xmlns="http://www.w3.org/2000/svg" xmlns:xlink="http://www.w3.org/1999/xlink" width="16pt" height="16pt" viewBox="0 0 16 16" version="1.1">
<g id="surface1">
<path style=" stroke:none;fill-rule:evenodd;fill:rgb(100%,34.117647%,13.333333%);fill-opacity:1;" d="M 15.050781 6.109375 L 15.050781 3.734375 C 15.050781 2.191406 13.808594 0.949219 12.265625 0.949219 L 9.890625 0.949219 Z M 15.050781 6.109375 "/>
<path style=" stroke:none;fill-rule:evenodd;fill:rgb(100%,34.117647%,13.333333%);fill-opacity:1;" d="M 9.054688 0.949219 L 3.738281 0.949219 C 2.191406 0.949219 0.949219 2.191406 0.949219 3.734375 L 0.949219 12.261719 C 0.949219 13.808594 2.191406 15.050781 3.738281 15.050781 L 12.265625 15.050781 C 13.808594 15.050781 15.050781 13.808594 15.050781 12.261719 L 15.050781 6.945312 Z M 9.054688 0.949219 "/>
<path style=" stroke:none;fill-rule:evenodd;fill:rgb(100%,100%,100%);fill-opacity:1;" d="M 9.054688 0.949219 L 15.050781 6.945312 L 15.050781 6.109375 L 9.890625 0.949219 Z M 9.054688 0.949219 "/>
<path style=" stroke:none;fill-rule:nonzero;fill:rgb(100%,77.254902%,56.862745%);fill-opacity:1;" d="M 5.363281 6.433594 C 4.757812 6.433594 4.195312 6.753906 3.894531 7.28125 C 3.59375 7.804688 3.59375 8.449219 3.894531 8.972656 C 4.117188 9.359375 4.484375 9.644531 4.921875 9.761719 C 4.964844 9.773438 5.015625 9.785156 5.0625 9.792969 C 5.09375 9.800781 5.125 9.804688 5.15625 9.808594 C 5.171875 9.8125 5.1875 9.8125 5.203125 9.8125 C 5.558594 9.855469 5.917969 9.777344 6.230469 9.597656 C 6.753906 9.296875 7.078125 8.738281 7.078125 8.132812 L 5.363281 8.132812 Z M 5.363281 6.433594 "/>
<path style=" stroke:none;fill-rule:nonzero;fill:rgb(100%,77.254902%,56.862745%);fill-opacity:1;" d="M 8.300781 6.824219 L 12.003906 6.824219 C 12.1875 6.824219 12.332031 6.96875 12.332031 7.152344 C 12.332031 7.332031 12.1875 7.480469 12.003906 7.480469 L 8.300781 7.480469 C 8.121094 7.480469 7.976562 7.332031 7.976562 7.152344 C 7.976562 6.96875 8.121094 6.824219 8.300781 6.824219 Z M 8.300781 6.824219 "/>
<path style=" stroke:none;fill-rule:nonzero;fill:rgb(100%,77.254902%,56.862745%);fill-opacity:1;" d="M 8.300781 8.785156 L 12.003906 8.785156 C 12.1875 8.785156 12.332031 8.929688 12.332031 9.109375 C 12.332031 9.292969 12.1875 9.4375 12.003906 9.4375 L 8.300781 9.4375 C 8.121094 9.4375 7.976562 9.292969 7.976562 9.109375 C 7.976562 8.929688 8.121094 8.785156 8.300781 8.785156 Z M 8.300781 8.785156 "/>
<path style=" stroke:none;fill-rule:nonzero;fill:rgb(100%,77.254902%,56.862745%);fill-opacity:1;" d="M 4.382812 10.746094 L 10.265625 10.746094 C 10.445312 10.746094 10.59375 10.890625 10.59375 11.070312 C 10.59375 11.25 10.445312 11.398438 10.265625 11.398438 L 4.382812 11.398438 C 4.203125 11.398438 4.054688 11.25 4.054688 11.070312 C 4.054688 10.890625 4.203125 10.746094 4.382812 10.746094 Z M 4.382812 10.746094 "/>
</g>
</svg>
