<?xml version="1.0" encoding="UTF-8"?>
<svg xmlns="http://www.w3.org/2000/svg" xmlns:xlink="http://www.w3.org/1999/xlink" width="16pt" height="16pt" viewBox="0 0 16 16" version="1.1">
<g id="surface1">
<path style=" stroke:none;fill-rule:evenodd;fill:rgb(96.078431%,57.647059%,20.784314%);fill-opacity:1;" d="M 3.734375 0.949219 L 12.265625 0.949219 C 13.800781 0.949219 15.050781 2.199219 15.050781 3.734375 L 15.050781 12.265625 C 15.050781 13.800781 13.800781 15.050781 12.265625 15.050781 L 3.734375 15.050781 C 2.199219 15.050781 0.949219 13.800781 0.949219 12.265625 L 0.949219 3.734375 C 0.949219 2.199219 2.199219 0.949219 3.734375 0.949219 Z M 3.734375 0.949219 "/>
<path style=" stroke:none;fill-rule:nonzero;fill:rgb(100%,100%,100%);fill-opacity:1;" d="M 4.699219 4 C 4.089844 4 3.488281 4.484375 3.5 5.089844 L 3.5 10 L 2.5 10 L 2.5 12 L 13.5 12 L 13.5 10 L 12.5 10 L 12.5 5.089844 C 12.5 4.484375 11.910156 4 11.300781 4 Z M 5.25 5 L 10.75 5 C 11.15625 5 11.5 5.414062 11.5 5.816406 L 11.5 9.453125 C 11.5 9.589844 11.527344 10.070312 11.199219 10 L 4.800781 10 C 4.472656 9.980469 4.5 9.589844 4.5 9.453125 L 4.5 5.820312 C 4.5 5.414062 4.84375 5 5.25 5 Z M 5.25 5 "/>
</g>
</svg>
