<?xml version="1.0" encoding="UTF-8"?>
<svg xmlns="http://www.w3.org/2000/svg" xmlns:xlink="http://www.w3.org/1999/xlink" width="16pt" height="16pt" viewBox="0 0 16 16" version="1.1">
<g id="surface1">
<path style=" stroke:none;fill-rule:evenodd;fill:rgb(55.686275%,55.686275%,55.686275%);fill-opacity:1;" d="M 3.734375 0.949219 L 12.265625 0.949219 C 13.800781 0.949219 15.050781 2.199219 15.050781 3.734375 L 15.050781 12.265625 C 15.050781 13.800781 13.800781 15.050781 12.265625 15.050781 L 3.734375 15.050781 C 2.199219 15.050781 0.949219 13.800781 0.949219 12.265625 L 0.949219 3.734375 C 0.949219 2.199219 2.199219 0.949219 3.734375 0.949219 Z M 3.734375 0.949219 "/>
<path style=" stroke:none;fill-rule:nonzero;fill:rgb(27.843137%,27.843137%,27.843137%);fill-opacity:1;" d="M 4.457031 4.089844 L 11.542969 4.089844 C 12.46875 4.089844 13.222656 4.84375 13.222656 5.769531 L 13.222656 10.230469 C 13.222656 11.15625 12.46875 11.910156 11.542969 11.910156 L 4.457031 11.910156 C 3.53125 11.910156 2.777344 11.15625 2.777344 10.230469 L 2.777344 5.769531 C 2.777344 4.84375 3.53125 4.089844 4.457031 4.089844 Z M 4.457031 4.089844 "/>
<path style=" stroke:none;fill-rule:nonzero;fill:rgb(11.372549%,51.372549%,68.627451%);fill-opacity:1;" d="M 4.519531 4.585938 L 11.480469 4.585938 C 12.183594 4.585938 12.753906 5.132812 12.753906 5.808594 L 12.753906 10.191406 C 12.753906 10.867188 12.183594 11.414062 11.480469 11.414062 L 4.519531 11.414062 C 3.816406 11.414062 3.246094 10.867188 3.246094 10.191406 L 3.246094 5.808594 C 3.246094 5.132812 3.816406 4.585938 4.519531 4.585938 Z M 4.519531 4.585938 "/>
<path style=" stroke:none;fill-rule:nonzero;fill:rgb(94.117647%,97.647059%,99.215686%);fill-opacity:1;" d="M 11.421875 6.671875 C 11.421875 7.40625 10.824219 8 10.089844 8 C 9.355469 8 8.761719 7.40625 8.761719 6.671875 C 8.761719 5.933594 9.355469 5.339844 10.089844 5.339844 C 10.824219 5.339844 11.421875 5.933594 11.421875 6.671875 Z M 11.421875 6.671875 "/>
<path style=" stroke:none;fill-rule:nonzero;fill:rgb(76.862745%,90.588235%,96.078431%);fill-opacity:1;" d="M 6.480469 8.1875 C 6.480469 8.714844 6.054688 9.140625 5.53125 9.140625 C 5.003906 9.140625 4.578125 8.714844 4.578125 8.1875 C 4.578125 7.664062 5.003906 7.238281 5.53125 7.238281 C 6.054688 7.238281 6.480469 7.664062 6.480469 8.1875 Z M 6.480469 8.1875 "/>
<path style=" stroke:none;fill-rule:nonzero;fill:rgb(65.098039%,85.490196%,94.117647%);fill-opacity:1;" d="M 9.519531 9.902344 C 9.519531 10.320312 9.179688 10.660156 8.761719 10.660156 C 8.339844 10.660156 8 10.320312 8 9.902344 C 8 9.480469 8.339844 9.140625 8.761719 9.140625 C 9.179688 9.140625 9.519531 9.480469 9.519531 9.902344 Z M 9.519531 9.902344 "/>
<path style=" stroke:none;fill-rule:nonzero;fill:rgb(76.862745%,90.588235%,96.078431%);fill-opacity:1;" d="M 8 6.671875 C 8 6.984375 7.746094 7.238281 7.429688 7.238281 C 7.113281 7.238281 6.859375 6.984375 6.859375 6.671875 C 6.859375 6.355469 7.113281 6.097656 7.429688 6.097656 C 7.746094 6.097656 8 6.355469 8 6.671875 Z M 8 6.671875 "/>
<path style=" stroke:none;fill-rule:nonzero;fill:rgb(82.745098%,92.941176%,97.254902%);fill-opacity:1;" d="M 11.285156 9.398438 C 11.285156 9.675781 11.0625 9.898438 10.785156 9.898438 C 10.507812 9.898438 10.285156 9.675781 10.285156 9.398438 C 10.285156 9.125 10.507812 8.898438 10.785156 8.898438 C 11.0625 8.898438 11.285156 9.125 11.285156 9.398438 Z M 11.285156 9.398438 "/>
</g>
</svg>
