<?xml version="1.0" encoding="UTF-8"?>
<svg xmlns="http://www.w3.org/2000/svg" xmlns:xlink="http://www.w3.org/1999/xlink" width="16pt" height="16pt" viewBox="0 0 16 16" version="1.1">
<g id="surface1">
<path style=" stroke:none;fill-rule:evenodd;fill:rgb(97.254902%,70.588235%,9.019608%);fill-opacity:1;" d="M 1.765625 14.234375 L 14.234375 1.765625 C 13.734375 1.261719 13.035156 0.949219 12.265625 0.949219 L 3.738281 0.949219 C 2.191406 0.949219 0.949219 2.191406 0.949219 3.738281 L 0.949219 12.265625 C 0.949219 13.035156 1.261719 13.730469 1.765625 14.234375 Z M 1.765625 14.234375 "/>
<path style=" stroke:none;fill-rule:evenodd;fill:rgb(80%,80%,80%);fill-opacity:1;" d="M 8.644531 15.050781 L 8.644531 10.9375 L 7.5 10.9375 L 7.5 15.050781 Z M 8.644531 15.050781 "/>
<path style=" stroke:none;fill-rule:evenodd;fill:rgb(40%,17.254902%,56.078431%);fill-opacity:1;" d="M 7.839844 8.160156 L 1.765625 14.234375 C 2.269531 14.738281 2.964844 15.050781 3.738281 15.050781 L 7.5 15.050781 L 7.5 10.9375 L 8.644531 10.9375 L 8.644531 15.050781 L 12.265625 15.050781 C 12.953125 15.050781 13.558594 14.777344 14.042969 14.367188 Z M 7.839844 8.160156 "/>
<path style=" stroke:none;fill-rule:evenodd;fill:rgb(0.784314%,65.882353%,84.705882%);fill-opacity:1;" d="M 7.839844 8.160156 L 14.042969 14.367188 C 14.648438 13.855469 15.050781 13.121094 15.050781 12.265625 L 15.050781 3.738281 C 15.050781 2.964844 14.738281 2.265625 14.234375 1.765625 Z M 7.839844 8.160156 "/>
<path style=" stroke:none;fill-rule:evenodd;fill:rgb(28.627451%,38.431373%,12.54902%);fill-opacity:1;" d="M 12.050781 8.140625 C 12.050781 10.335938 10.269531 12.117188 8.074219 12.117188 C 5.875 12.117188 4.09375 10.335938 4.09375 8.140625 C 4.09375 5.941406 5.875 4.160156 8.074219 4.160156 C 10.269531 4.160156 12.050781 5.941406 12.050781 8.140625 Z M 12.050781 8.140625 "/>
<path style=" stroke:none;fill-rule:evenodd;fill:rgb(57.254902%,77.647059%,25.882353%);fill-opacity:1;" d="M 4.847656 3.402344 C 4.765625 3.40625 4.683594 3.449219 4.640625 3.523438 C 4.597656 3.597656 4.59375 3.6875 4.636719 3.765625 L 5.210938 4.839844 C 4.285156 5.640625 3.738281 6.796875 3.707031 8.019531 L 12.441406 8.019531 C 12.40625 6.796875 11.859375 5.640625 10.933594 4.839844 L 11.511719 3.765625 C 11.550781 3.6875 11.550781 3.597656 11.507812 3.523438 C 11.464844 3.449219 11.382812 3.40625 11.296875 3.402344 C 11.207031 3.402344 11.125 3.453125 11.078125 3.535156 L 10.542969 4.539062 C 9.816406 4.039062 8.957031 3.765625 8.074219 3.765625 C 7.191406 3.765625 6.328125 4.035156 5.601562 4.535156 L 5.066406 3.535156 C 5.023438 3.453125 4.941406 3.402344 4.847656 3.402344 Z M 3.710938 8.453125 C 3.875 10.742188 5.78125 12.511719 8.074219 12.511719 C 10.363281 12.507812 12.265625 10.738281 12.429688 8.453125 Z M 3.710938 8.453125 "/>
<path style=" stroke:none;fill-rule:evenodd;fill:rgb(100%,100%,100%);fill-opacity:1;" d="M 7.039062 6.40625 C 7.039062 6.785156 6.730469 7.09375 6.351562 7.09375 C 5.96875 7.09375 5.660156 6.785156 5.660156 6.40625 C 5.660156 6.023438 5.96875 5.714844 6.351562 5.714844 C 6.730469 5.714844 7.039062 6.023438 7.039062 6.40625 Z M 7.039062 6.40625 "/>
<path style=" stroke:none;fill-rule:evenodd;fill:rgb(100%,100%,100%);fill-opacity:1;" d="M 10.484375 6.40625 C 10.484375 6.785156 10.175781 7.09375 9.796875 7.09375 C 9.417969 7.09375 9.109375 6.785156 9.109375 6.40625 C 9.109375 6.023438 9.417969 5.714844 9.796875 5.714844 C 10.175781 5.714844 10.484375 6.023438 10.484375 6.40625 Z M 10.484375 6.40625 "/>
</g>
</svg>
