<?xml version="1.0" encoding="UTF-8"?>
<svg xmlns="http://www.w3.org/2000/svg" xmlns:xlink="http://www.w3.org/1999/xlink" width="16pt" height="16pt" viewBox="0 0 16 16" version="1.1">
<g id="surface1">
<path style=" stroke:none;fill-rule:evenodd;fill:rgb(96.078431%,51.764706%,6.666667%);fill-opacity:1;" d="M 3.734375 0.949219 L 12.265625 0.949219 C 13.800781 0.949219 15.050781 2.199219 15.050781 3.734375 L 15.050781 12.265625 C 15.050781 13.800781 13.800781 15.050781 12.265625 15.050781 L 3.734375 15.050781 C 2.199219 15.050781 0.949219 13.800781 0.949219 12.265625 L 0.949219 3.734375 C 0.949219 2.199219 2.199219 0.949219 3.734375 0.949219 Z M 3.734375 0.949219 "/>
<path style=" stroke:none;fill-rule:nonzero;fill:rgb(100%,100%,100%);fill-opacity:1;" d="M 8.25 4 C 7.421875 4 6.75 4.671875 6.75 5.5 C 6.75 5.617188 6.773438 5.71875 6.796875 5.828125 L 5.1875 6.828125 C 4.929688 6.625 4.605469 6.5 4.25 6.5 C 3.421875 6.5 2.75 7.171875 2.75 8 C 2.75 8.828125 3.421875 9.5 4.25 9.5 C 4.605469 9.5 4.929688 9.378906 5.1875 9.171875 L 6.796875 10.171875 C 6.773438 10.28125 6.75 10.382812 6.75 10.5 C 6.75 11.328125 7.421875 12 8.25 12 C 9.078125 12 9.75 11.328125 9.75 10.5 C 9.75 9.671875 9.078125 9 8.25 9 C 7.894531 9 7.570312 9.125 7.3125 9.328125 L 5.703125 8.328125 C 5.726562 8.21875 5.75 8.117188 5.75 8 C 5.75 7.886719 5.726562 7.78125 5.703125 7.671875 L 7.3125 6.671875 C 7.570312 6.878906 7.894531 7 8.25 7 C 9.078125 7 9.75 6.328125 9.75 5.5 C 9.75 4.671875 9.078125 4 8.25 4 Z M 11.75 4 C 10.921875 4 10.25 4.671875 10.25 5.5 C 10.25 6.328125 10.921875 7 11.75 7 C 12.578125 7 13.25 6.328125 13.25 5.5 C 13.25 4.671875 12.578125 4 11.75 4 Z M 11.75 9 C 10.921875 9 10.25 9.671875 10.25 10.5 C 10.25 11.328125 10.921875 12 11.75 12 C 12.578125 12 13.25 11.328125 13.25 10.5 C 13.25 9.671875 12.578125 9 11.75 9 Z M 11.75 9 "/>
</g>
</svg>
