<?xml version="1.0" encoding="UTF-8"?>
<svg xmlns="http://www.w3.org/2000/svg" xmlns:xlink="http://www.w3.org/1999/xlink" width="16pt" height="16pt" viewBox="0 0 16 16" version="1.1">
<g id="surface1">
<path style=" stroke:none;fill-rule:evenodd;fill:rgb(100%,100%,100%);fill-opacity:1;" d="M 3.734375 0.949219 L 12.265625 0.949219 C 13.800781 0.949219 15.050781 2.199219 15.050781 3.734375 L 15.050781 12.265625 C 15.050781 13.800781 13.800781 15.050781 12.265625 15.050781 L 3.734375 15.050781 C 2.199219 15.050781 0.949219 13.800781 0.949219 12.265625 L 0.949219 3.734375 C 0.949219 2.199219 2.199219 0.949219 3.734375 0.949219 Z M 3.734375 0.949219 "/>
<path style=" stroke:none;fill-rule:evenodd;fill:rgb(30.980392%,30.980392%,30.980392%);fill-opacity:1;" d="M 14.234375 1.765625 L 1.765625 14.234375 C 2.265625 14.738281 2.964844 15.050781 3.734375 15.050781 L 12.265625 15.050781 C 13.808594 15.050781 15.050781 13.808594 15.050781 12.265625 L 15.050781 3.734375 C 15.050781 2.964844 14.738281 2.269531 14.234375 1.765625 Z M 14.234375 1.765625 "/>
<path style=" stroke:none;fill-rule:evenodd;fill:rgb(44.705882%,44.705882%,44.705882%);fill-opacity:1;" d="M 14.234375 1.765625 C 13.734375 1.261719 13.035156 0.949219 12.265625 0.949219 L 3.734375 0.949219 C 2.191406 0.949219 0.949219 2.191406 0.949219 3.734375 L 0.949219 12.265625 C 0.949219 13.035156 1.261719 13.734375 1.765625 14.234375 Z M 14.234375 1.765625 "/>
<path style=" stroke:none;fill-rule:nonzero;fill:rgb(94.901961%,94.901961%,94.901961%);fill-opacity:1;" d="M 4.113281 11.886719 L 7.515625 7.515625 L 7.976562 7.972656 L 8.484375 8.484375 Z M 4.113281 11.886719 "/>
<path style=" stroke:none;fill-rule:nonzero;fill:rgb(95.294118%,25.882353%,20.784314%);fill-opacity:1;" d="M 11.886719 4.113281 L 7.515625 7.515625 L 8.484375 8.484375 Z M 11.886719 4.113281 "/>
</g>
</svg>
