<?xml version="1.0" encoding="UTF-8"?>
<svg xmlns="http://www.w3.org/2000/svg" xmlns:xlink="http://www.w3.org/1999/xlink" width="16pt" height="16pt" viewBox="0 0 16 16" version="1.1">
<g id="surface1">
<path style=" stroke:none;fill-rule:evenodd;fill:rgb(14.117647%,43.137255%,60.392157%);fill-opacity:1;" d="M 3.734375 0.949219 L 12.265625 0.949219 C 13.800781 0.949219 15.050781 2.199219 15.050781 3.734375 L 15.050781 12.265625 C 15.050781 13.800781 13.800781 15.050781 12.265625 15.050781 L 3.734375 15.050781 C 2.199219 15.050781 0.949219 13.800781 0.949219 12.265625 L 0.949219 3.734375 C 0.949219 2.199219 2.199219 0.949219 3.734375 0.949219 Z M 3.734375 0.949219 "/>
<path style=" stroke:none;fill-rule:nonzero;fill:rgb(100%,100%,100%);fill-opacity:1;" d="M 8 3 C 5.238281 3 3 5.238281 3 8 C 3 10.761719 5.238281 13 8 13 C 10.761719 13 13 10.761719 13 8 C 13 5.238281 10.761719 3 8 3 Z M 8 4.5 C 8.554688 4.5 9 4.902344 9 5.402344 L 9 9.597656 C 9 10.097656 8.554688 10.5 8 10.5 C 7.445312 10.5 7 10.097656 7 9.597656 L 7 5.402344 C 7 4.902344 7.445312 4.5 8 4.5 Z M 5 6.5 C 5.554688 6.5 6 6.945312 6 7.5 L 6 9.5 C 6 10.054688 5.554688 10.5 5 10.5 C 4.445312 10.5 4 10.054688 4 9.5 L 4 7.5 C 4 6.945312 4.445312 6.5 5 6.5 Z M 11 6.5 C 11.554688 6.5 12 6.945312 12 7.5 L 12 9.5 C 12 10.054688 11.554688 10.5 11 10.5 C 10.445312 10.5 10 10.054688 10 9.5 L 10 7.5 C 10 6.945312 10.445312 6.5 11 6.5 Z M 11 6.5 "/>
</g>
</svg>
