<?xml version="1.0" encoding="UTF-8"?>
<svg xmlns="http://www.w3.org/2000/svg" xmlns:xlink="http://www.w3.org/1999/xlink" width="16pt" height="16pt" viewBox="0 0 16 16" version="1.1">
<g id="surface1">
<path style=" stroke:none;fill-rule:evenodd;fill:rgb(0.784314%,52.54902%,76.078431%);fill-opacity:1;" d="M 3.734375 0.949219 L 12.265625 0.949219 C 13.800781 0.949219 15.050781 2.199219 15.050781 3.734375 L 15.050781 12.265625 C 15.050781 13.800781 13.800781 15.050781 12.265625 15.050781 L 3.734375 15.050781 C 2.199219 15.050781 0.949219 13.800781 0.949219 12.265625 L 0.949219 3.734375 C 0.949219 2.199219 2.199219 0.949219 3.734375 0.949219 Z M 3.734375 0.949219 "/>
<path style=" stroke:none;fill-rule:nonzero;fill:rgb(51.764706%,51.764706%,51.764706%);fill-opacity:1;" d="M 8 5.03125 C 6.359375 5.03125 5.03125 6.359375 5.03125 8 C 5.03125 9.640625 6.359375 10.96875 8 10.96875 C 9.640625 10.96875 10.96875 9.640625 10.96875 8 C 10.96875 6.359375 9.640625 5.03125 8 5.03125 Z M 8 6.8125 C 8.65625 6.8125 9.1875 7.34375 9.1875 8 C 9.1875 8.65625 8.65625 9.1875 8 9.1875 C 7.34375 9.1875 6.8125 8.65625 6.8125 8 C 6.8125 7.34375 7.34375 6.8125 8 6.8125 Z M 8 6.8125 "/>
<path style=" stroke:none;fill-rule:nonzero;fill:rgb(80%,80%,80%);fill-opacity:1;" d="M 8 2.457031 C 4.929688 2.457031 2.457031 4.929688 2.457031 8 C 2.457031 11.070312 4.929688 13.542969 8 13.542969 C 11.070312 13.542969 13.542969 11.070312 13.542969 8 C 13.542969 4.929688 11.070312 2.457031 8 2.457031 Z M 8 5.625 C 9.3125 5.625 10.375 6.6875 10.375 8 C 10.375 9.3125 9.3125 10.375 8 10.375 C 6.6875 10.375 5.625 9.3125 5.625 8 C 5.625 6.6875 6.6875 5.625 8 5.625 Z M 8 5.625 "/>
<path style=" stroke:none;fill-rule:nonzero;fill:rgb(39.215686%,80.392157%,29.019608%);fill-opacity:1;" d="M 4.609375 9.582031 L 11.390625 9.582031 C 11.703125 9.582031 11.957031 9.835938 11.957031 10.148438 L 11.957031 12.976562 C 11.957031 13.289062 11.703125 13.542969 11.390625 13.542969 L 4.609375 13.542969 C 4.296875 13.542969 4.042969 13.289062 4.042969 12.976562 L 4.042969 10.148438 C 4.042969 9.835938 4.296875 9.582031 4.609375 9.582031 Z M 4.609375 9.582031 "/>
<path style="fill:none;stroke-width:0.999897;stroke-linecap:round;stroke-linejoin:round;stroke:rgb(100%,100%,100%);stroke-opacity:1;stroke-miterlimit:4;" d="M -31.976235 18.148971 L -31.976235 14.211471 M -35.140297 14.211471 L -33.55436 16.180221 L -31.976235 14.211471 M -35.140297 18.148971 L -35.140297 14.211471 " transform="matrix(0.5,0,0,0.5,22.601399,3.472389)"/>
<path style="fill:none;stroke-width:0.999663;stroke-linecap:round;stroke-linejoin:miter;stroke:rgb(100%,100%,100%);stroke-opacity:1;stroke-miterlimit:4;" d="M -27.226235 18.148971 L -29.593422 15.688034 M -27.226235 14.211471 L -29.593422 16.672409 M -29.593422 18.148971 L -29.593422 14.211471 " transform="matrix(0.5,0,0,0.5,22.601399,3.472389)"/>
<path style="fill:none;stroke-width:0.999599;stroke-linecap:round;stroke-linejoin:round;stroke:rgb(100%,100%,100%);stroke-opacity:1;stroke-miterlimit:4;" d="M -23.265297 14.203659 L -24.452797 18.156784 L -25.640297 14.203659 " transform="matrix(0.5,0,0,0.5,22.601399,3.472389)"/>
</g>
</svg>
