<?xml version="1.0" encoding="UTF-8"?>
<svg xmlns="http://www.w3.org/2000/svg" xmlns:xlink="http://www.w3.org/1999/xlink" width="16pt" height="16pt" viewBox="0 0 16 16" version="1.1">
<g id="surface1">
<path style=" stroke:none;fill-rule:evenodd;fill:rgb(99.607843%,80.392157%,21.960784%);fill-opacity:1;" d="M 3.734375 0.949219 L 12.265625 0.949219 C 13.800781 0.949219 15.050781 2.199219 15.050781 3.734375 L 15.050781 12.265625 C 15.050781 13.800781 13.800781 15.050781 12.265625 15.050781 L 3.734375 15.050781 C 2.199219 15.050781 0.949219 13.800781 0.949219 12.265625 L 0.949219 3.734375 C 0.949219 2.199219 2.199219 0.949219 3.734375 0.949219 Z M 3.734375 0.949219 "/>
<path style=" stroke:none;fill-rule:nonzero;fill:rgb(49.803922%,40%,10.980392%);fill-opacity:1;" d="M 8.292969 5.488281 L 7 10.316406 L 7.722656 10.511719 L 9.019531 5.683594 Z M 9.25 5.511719 L 9.25 6.511719 L 10.5 7.761719 L 9.25 9.011719 L 9.25 10.011719 L 11.75 7.761719 Z M 6.75 6.011719 L 4.25 8.261719 L 6.75 10.511719 L 6.75 9.511719 L 5.5 8.261719 L 6.75 7.011719 Z M 6.75 6.011719 "/>
</g>
</svg>
