<?xml version="1.0" encoding="UTF-8"?>
<svg xmlns="http://www.w3.org/2000/svg" xmlns:xlink="http://www.w3.org/1999/xlink" width="16pt" height="16pt" viewBox="0 0 16 16" version="1.1">
<g id="surface1">
<path style=" stroke:none;fill-rule:evenodd;fill:rgb(76.078431%,24.705882%,17.254902%);fill-opacity:1;" d="M 3.765625 1 L 12.234375 1 C 13.761719 1 15 2.238281 15 3.765625 L 15 12.234375 C 15 13.761719 13.761719 15 12.234375 15 L 3.765625 15 C 2.238281 15 1 13.761719 1 12.234375 L 1 3.765625 C 1 2.238281 2.238281 1 3.765625 1 Z M 3.765625 1 "/>
<path style=" stroke:none;fill-rule:nonzero;fill:rgb(60.784314%,12.54902%,5.098039%);fill-opacity:1;" d="M 8 2.570312 C 11 2.570312 13.429688 5 13.429688 8 C 13.429688 11 11 13.429688 8 13.429688 C 5 13.429688 2.570312 11 2.570312 8 C 2.570312 5 5 2.570312 8 2.570312 Z M 8 2.570312 "/>
<path style=" stroke:none;fill-rule:nonzero;fill:rgb(89.803922%,45.490196%,32.156863%);fill-opacity:1;" d="M 8 2.570312 C 7.316406 2.570312 6.664062 2.703125 6.0625 2.929688 C 6.015625 2.972656 5.960938 3.003906 5.917969 3 C 5.910156 3 5.902344 2.996094 5.898438 2.992188 C 5.601562 3.113281 5.316406 3.269531 5.050781 3.441406 C 5.085938 3.496094 5.09375 3.558594 5.023438 3.589844 C 5.011719 3.59375 4.859375 3.609375 4.808594 3.609375 C 4.046875 4.160156 3.441406 4.902344 3.050781 5.769531 C 3.054688 5.769531 3.0625 5.765625 3.066406 5.765625 C 3.125 5.765625 3.214844 5.78125 3.269531 5.792969 C 3.320312 5.804688 3.363281 5.839844 3.410156 5.84375 C 3.539062 5.851562 3.570312 5.75 3.671875 5.699219 C 3.78125 5.710938 3.855469 5.679688 3.953125 5.6875 C 4.019531 5.699219 4.066406 5.765625 4.121094 5.769531 C 4.164062 5.777344 4.203125 5.730469 4.246094 5.734375 C 4.285156 5.742188 4.355469 5.832031 4.363281 5.882812 C 4.371094 5.945312 4.316406 6 4.335938 6.070312 C 4.402344 6.140625 4.519531 6.152344 4.613281 6.1875 C 4.675781 6.140625 4.621094 6.046875 4.613281 5.972656 C 4.613281 5.941406 4.617188 5.914062 4.613281 5.882812 C 4.609375 5.832031 4.585938 5.789062 4.585938 5.746094 C 4.585938 5.546875 4.746094 5.453125 4.878906 5.375 C 4.9375 5.34375 4.980469 5.28125 5.03125 5.257812 C 5.101562 5.222656 5.15625 5.214844 5.214844 5.179688 C 5.316406 5.121094 5.40625 5.074219 5.488281 5.003906 C 5.527344 4.917969 5.492188 4.796875 5.496094 4.707031 C 5.535156 4.683594 5.566406 4.71875 5.609375 4.714844 C 5.671875 4.703125 5.679688 4.609375 5.714844 4.574219 C 5.734375 4.554688 5.792969 4.539062 5.816406 4.519531 C 5.882812 4.46875 5.902344 4.394531 5.957031 4.375 C 5.976562 4.367188 6.023438 4.367188 6.054688 4.359375 C 6.09375 4.347656 6.15625 4.296875 6.21875 4.277344 C 6.265625 4.261719 6.367188 4.257812 6.382812 4.242188 C 6.402344 4.21875 6.382812 4.160156 6.390625 4.128906 C 6.421875 3.972656 6.660156 3.941406 6.800781 3.886719 C 6.898438 3.847656 7 3.78125 7.105469 3.800781 C 7.085938 3.875 6.984375 3.851562 7 3.941406 C 7.023438 4.066406 7.191406 3.90625 7.238281 3.886719 C 7.324219 3.851562 7.46875 3.828125 7.578125 3.789062 C 7.675781 3.753906 7.855469 3.699219 7.761719 3.585938 C 7.683594 3.582031 7.644531 3.675781 7.578125 3.707031 C 7.53125 3.714844 7.542969 3.667969 7.503906 3.664062 C 7.464844 3.65625 7.445312 3.699219 7.40625 3.691406 C 7.367188 3.6875 7.3125 3.625 7.308594 3.578125 C 7.292969 3.464844 7.40625 3.417969 7.453125 3.328125 C 7.421875 3.222656 7.277344 3.308594 7.1875 3.265625 C 7.195312 3.203125 7.261719 3.160156 7.335938 3.148438 C 7.394531 3.140625 7.53125 3.144531 7.566406 3.175781 C 7.585938 3.195312 7.566406 3.238281 7.601562 3.265625 C 7.636719 3.296875 7.679688 3.296875 7.726562 3.289062 C 7.742188 3.207031 7.625 3.230469 7.636719 3.175781 C 7.730469 3.113281 7.882812 3.164062 8 3.148438 C 8.0625 3.136719 8.132812 3.089844 8.191406 3.058594 C 8.25 3.027344 8.320312 2.972656 8.378906 3.023438 C 8.394531 3.078125 8.328125 3.097656 8.296875 3.125 C 8.1875 3.222656 8.082031 3.328125 8 3.441406 C 8.046875 3.492188 8.140625 3.464844 8.226562 3.476562 C 8.261719 3.480469 8.300781 3.492188 8.339844 3.496094 C 8.378906 3.503906 8.421875 3.5 8.457031 3.511719 C 8.515625 3.527344 8.53125 3.585938 8.589844 3.585938 C 8.683594 3.585938 8.683594 3.484375 8.628906 3.421875 C 8.648438 3.351562 8.671875 3.320312 8.652344 3.273438 C 8.609375 3.1875 8.453125 3.269531 8.441406 3.160156 C 8.4375 3.09375 8.5 3.09375 8.527344 3.046875 C 8.515625 2.910156 8.636719 2.898438 8.625 2.78125 C 8.617188 2.730469 8.578125 2.730469 8.539062 2.683594 C 8.523438 2.65625 8.515625 2.613281 8.492188 2.59375 C 8.332031 2.578125 8.164062 2.570312 8 2.570312 Z M 5.199219 3.667969 C 5.230469 3.671875 5.269531 3.707031 5.308594 3.707031 C 5.347656 3.710938 5.378906 3.6875 5.402344 3.695312 C 5.460938 3.710938 5.484375 3.796875 5.429688 3.839844 C 5.382812 3.84375 5.363281 3.820312 5.332031 3.828125 C 5.234375 3.84375 5.203125 4.027344 5.128906 4.019531 C 5.0625 4.015625 5.027344 3.855469 5.09375 3.804688 C 5.097656 3.765625 5.0625 3.757812 5.066406 3.714844 C 5.085938 3.6875 5.144531 3.660156 5.199219 3.667969 Z M 4.886719 3.6875 C 4.90625 3.6875 4.921875 3.695312 4.925781 3.703125 C 4.917969 3.773438 4.859375 3.773438 4.800781 3.804688 C 4.703125 3.863281 4.644531 3.957031 4.613281 4.082031 C 4.605469 4.121094 4.507812 4.21875 4.460938 4.210938 C 4.351562 4.1875 4.492188 3.984375 4.515625 3.953125 C 4.542969 3.917969 4.582031 3.886719 4.613281 3.847656 C 4.644531 3.808594 4.667969 3.757812 4.699219 3.738281 C 4.734375 3.714844 4.828125 3.6875 4.886719 3.6875 Z M 5.707031 3.9375 C 5.742188 3.9375 5.777344 3.945312 5.789062 3.960938 C 5.765625 4.050781 5.570312 4.027344 5.496094 3.996094 C 5.5 3.960938 5.554688 3.949219 5.601562 3.945312 C 5.632812 3.945312 5.671875 3.9375 5.707031 3.9375 Z M 5.257812 4.109375 C 5.28125 4.109375 5.304688 4.113281 5.328125 4.121094 C 5.265625 4.171875 5.199219 4.203125 5.085938 4.238281 C 5.035156 4.253906 4.945312 4.273438 4.933594 4.21875 C 4.921875 4.144531 5.011719 4.160156 5.058594 4.15625 C 5.121094 4.144531 5.1875 4.109375 5.257812 4.109375 Z M 12.171875 4.519531 C 12.164062 4.539062 12.15625 4.558594 12.160156 4.578125 C 12.164062 4.613281 12.199219 4.644531 12.207031 4.691406 C 12.214844 4.714844 12.199219 4.765625 12.207031 4.789062 C 12.242188 4.851562 12.328125 4.804688 12.390625 4.808594 C 12.320312 4.710938 12.25 4.613281 12.171875 4.519531 Z M 12.527344 5 C 12.515625 5.046875 12.484375 5.109375 12.460938 5.148438 C 12.398438 5.242188 12.316406 5.246094 12.226562 5.296875 C 12.15625 5.335938 12.125 5.40625 12.082031 5.476562 C 12.035156 5.554688 12.007812 5.601562 12.027344 5.710938 C 11.964844 5.835938 11.871094 5.914062 11.742188 5.96875 C 11.703125 5.988281 11.652344 5.992188 11.617188 6.019531 C 11.589844 6.039062 11.574219 6.09375 11.53125 6.136719 C 11.484375 6.191406 11.433594 6.214844 11.40625 6.253906 C 11.386719 6.289062 11.378906 6.351562 11.359375 6.394531 C 11.328125 6.453125 11.265625 6.484375 11.226562 6.542969 C 11.210938 6.570312 11.199219 6.625 11.175781 6.660156 C 11.132812 6.738281 11.058594 6.796875 11.066406 6.871094 C 11.074219 6.9375 11.152344 6.949219 11.15625 7.007812 C 11.15625 7.042969 11.132812 7.0625 11.136719 7.097656 C 11.136719 7.152344 11.171875 7.1875 11.175781 7.230469 C 11.1875 7.335938 11.140625 7.375 11.125 7.445312 C 11.113281 7.480469 11.117188 7.515625 11.109375 7.542969 C 11.089844 7.597656 11.019531 7.640625 11.015625 7.703125 C 11.015625 7.746094 11.0625 7.78125 11.066406 7.84375 C 11.066406 7.882812 11.046875 7.929688 11.050781 7.96875 C 11.066406 8.046875 11.203125 8.132812 11.261719 8.191406 C 11.339844 8.269531 11.445312 8.332031 11.476562 8.414062 C 11.503906 8.484375 11.503906 8.578125 11.5625 8.628906 C 11.601562 8.667969 11.667969 8.691406 11.722656 8.734375 C 11.769531 8.773438 11.820312 8.804688 11.875 8.84375 C 11.960938 8.910156 12.085938 9.042969 12.222656 9.03125 C 12.292969 9.027344 12.363281 8.96875 12.445312 8.957031 C 12.527344 8.941406 12.632812 8.933594 12.714844 8.941406 C 12.78125 8.949219 12.84375 8.988281 12.910156 8.984375 C 12.980469 8.980469 13.0625 8.925781 13.140625 8.890625 C 13.203125 8.863281 13.28125 8.835938 13.371094 8.8125 C 13.40625 8.546875 13.429688 8.277344 13.429688 8 C 13.429688 6.890625 13.097656 5.859375 12.527344 5 Z M 3.546875 6.824219 C 3.433594 6.828125 3.355469 6.835938 3.292969 6.863281 C 3.140625 6.933594 3.171875 7.136719 3.019531 7.183594 C 2.96875 7.203125 2.894531 7.203125 2.839844 7.214844 C 2.789062 7.222656 2.730469 7.25 2.675781 7.25 C 2.664062 7.25 2.644531 7.238281 2.625 7.230469 C 2.609375 7.328125 2.601562 7.421875 2.59375 7.519531 C 2.734375 7.546875 2.8125 7.738281 2.9375 7.800781 C 2.972656 7.816406 3.015625 7.820312 3.0625 7.828125 C 3.097656 7.835938 3.125 7.851562 3.160156 7.863281 C 3.234375 7.886719 3.324219 7.886719 3.382812 7.910156 C 3.46875 7.953125 3.535156 8.121094 3.609375 8.160156 C 3.617188 8.207031 3.601562 8.269531 3.617188 8.300781 C 3.65625 8.351562 3.707031 8.339844 3.765625 8.371094 C 3.835938 8.410156 3.859375 8.507812 3.925781 8.539062 C 3.949219 8.550781 4.007812 8.546875 4.042969 8.558594 C 4.136719 8.589844 4.167969 8.695312 4.246094 8.671875 C 4.296875 8.65625 4.292969 8.601562 4.300781 8.554688 C 4.335938 8.515625 4.375 8.457031 4.425781 8.453125 C 4.511719 8.453125 4.519531 8.546875 4.550781 8.628906 C 4.570312 8.675781 4.617188 8.71875 4.628906 8.765625 C 4.652344 8.855469 4.640625 9.113281 4.621094 9.164062 C 4.597656 9.230469 4.511719 9.253906 4.460938 9.328125 C 4.4375 9.359375 4.421875 9.40625 4.40625 9.429688 C 4.371094 9.472656 4.320312 9.484375 4.292969 9.519531 C 4.28125 9.542969 4.265625 9.589844 4.253906 9.617188 C 4.210938 9.707031 4.15625 9.769531 4.1875 9.875 C 4.203125 9.917969 4.273438 9.949219 4.273438 10 C 4.273438 10.058594 4.144531 10.113281 4.132812 10.179688 C 4.125 10.230469 4.171875 10.316406 4.1875 10.382812 C 4.203125 10.433594 4.292969 10.460938 4.320312 10.496094 C 4.371094 10.546875 4.410156 10.625 4.453125 10.695312 C 4.542969 10.832031 4.609375 11 4.699219 11.128906 C 4.742188 11.199219 4.804688 11.257812 4.835938 11.328125 C 4.851562 11.367188 4.851562 11.410156 4.863281 11.441406 C 4.914062 11.554688 5.132812 11.671875 5.246094 11.726562 C 5.300781 11.75 5.359375 11.761719 5.40625 11.789062 C 5.480469 11.828125 5.628906 11.941406 5.664062 12.003906 C 5.699219 12.0625 5.71875 12.203125 5.734375 12.296875 C 5.753906 12.421875 5.734375 12.511719 5.742188 12.644531 C 5.746094 12.71875 5.769531 12.789062 5.769531 12.859375 C 5.769531 12.886719 5.757812 12.90625 5.753906 12.929688 C 5.753906 12.9375 5.757812 12.9375 5.757812 12.945312 C 6.4375 13.25 7.199219 13.429688 8 13.429688 C 8.144531 13.429688 8.289062 13.421875 8.429688 13.410156 C 8.4375 13.402344 8.441406 13.390625 8.449219 13.378906 C 8.484375 13.335938 8.511719 13.296875 8.53125 13.261719 C 8.554688 13.132812 8.484375 13.046875 8.511719 12.933594 C 8.546875 12.808594 8.71875 12.730469 8.839844 12.675781 C 8.878906 12.65625 8.921875 12.625 8.957031 12.613281 C 9.042969 12.582031 9.144531 12.597656 9.222656 12.570312 C 9.351562 12.523438 9.367188 12.382812 9.429688 12.265625 C 9.460938 12.210938 9.5 12.152344 9.507812 12.113281 C 9.511719 12.078125 9.496094 12.042969 9.5 12 C 9.507812 11.957031 9.546875 11.921875 9.554688 11.875 C 9.570312 11.8125 9.578125 11.726562 9.578125 11.660156 C 9.578125 11.605469 9.550781 11.554688 9.550781 11.503906 C 9.542969 11.328125 9.613281 11.304688 9.679688 11.207031 C 9.714844 11.160156 9.726562 11.101562 9.75 11.066406 C 9.863281 10.902344 10.058594 10.820312 10.042969 10.566406 C 10.039062 10.484375 9.984375 10.292969 9.925781 10.269531 C 9.890625 10.253906 9.808594 10.265625 9.757812 10.25 C 9.59375 10.1875 9.496094 9.984375 9.328125 9.96875 C 9.289062 9.964844 9.257812 9.984375 9.214844 9.984375 C 9.148438 9.980469 9.046875 9.9375 8.96875 9.925781 C 8.921875 9.921875 8.859375 9.941406 8.832031 9.925781 C 8.789062 9.90625 8.785156 9.824219 8.75 9.800781 C 8.71875 9.78125 8.664062 9.777344 8.625 9.761719 C 8.554688 9.734375 8.5 9.703125 8.421875 9.699219 C 8.394531 9.695312 8.367188 9.707031 8.339844 9.703125 C 8.296875 9.699219 8.261719 9.644531 8.21875 9.621094 C 8.167969 9.589844 8.121094 9.574219 8.101562 9.53125 C 8.144531 9.378906 8.019531 9.339844 7.988281 9.253906 C 7.976562 9.210938 7.984375 9.164062 7.96875 9.125 C 7.953125 9.078125 7.898438 9.046875 7.84375 9 C 7.742188 8.921875 7.652344 8.851562 7.507812 8.835938 C 7.445312 8.828125 7.382812 8.851562 7.308594 8.847656 C 7.226562 8.84375 7.125 8.773438 7.0625 8.703125 C 7.003906 8.636719 6.976562 8.574219 6.921875 8.542969 C 6.875 8.511719 6.8125 8.511719 6.777344 8.480469 C 6.765625 8.46875 6.765625 8.441406 6.75 8.410156 C 6.726562 8.359375 6.683594 8.332031 6.714844 8.269531 C 6.660156 8.242188 6.660156 8.324219 6.597656 8.3125 C 6.542969 8.234375 6.5 8.199219 6.375 8.222656 C 6.320312 8.234375 6.285156 8.304688 6.21875 8.304688 C 6.167969 8.3125 6.125 8.246094 6.054688 8.234375 C 6 8.230469 5.941406 8.25 5.902344 8.242188 C 5.84375 8.230469 5.824219 8.183594 5.769531 8.144531 C 5.730469 8.121094 5.652344 8.078125 5.628906 8.078125 C 5.5625 8.082031 5.511719 8.226562 5.414062 8.171875 C 5.367188 8.113281 5.488281 8.082031 5.4375 8.027344 C 5.390625 7.984375 5.359375 8.046875 5.324219 8.070312 C 5.285156 8.097656 5.25 8.121094 5.207031 8.140625 C 5.109375 8.171875 5.050781 8.15625 4.976562 8.195312 C 4.90625 8.230469 4.90625 8.289062 4.863281 8.363281 C 4.832031 8.421875 4.757812 8.503906 4.710938 8.507812 C 4.652344 8.515625 4.597656 8.425781 4.542969 8.40625 C 4.386719 8.335938 4.308594 8.464844 4.175781 8.46875 C 4.050781 8.472656 3.875 8.269531 3.882812 8.152344 C 3.882812 8.082031 3.921875 7.976562 3.933594 7.890625 C 3.9375 7.820312 3.988281 7.777344 3.988281 7.714844 C 3.988281 7.628906 3.875 7.566406 3.820312 7.554688 C 3.691406 7.53125 3.511719 7.609375 3.359375 7.546875 C 3.332031 7.5 3.394531 7.46875 3.410156 7.421875 C 3.421875 7.394531 3.414062 7.359375 3.421875 7.332031 C 3.441406 7.289062 3.488281 7.253906 3.507812 7.207031 C 3.523438 7.171875 3.527344 7.121094 3.542969 7.074219 C 3.558594 7.023438 3.59375 6.992188 3.597656 6.953125 C 3.601562 6.910156 3.585938 6.855469 3.546875 6.824219 Z M 5.410156 8.296875 C 5.457031 8.300781 5.464844 8.398438 5.414062 8.40625 C 5.363281 8.414062 5.335938 8.328125 5.386719 8.300781 C 5.394531 8.296875 5.402344 8.296875 5.410156 8.296875 Z M 5.410156 8.296875 "/>
</g>
</svg>
