<?xml version="1.0" encoding="UTF-8"?>
<svg xmlns="http://www.w3.org/2000/svg" xmlns:xlink="http://www.w3.org/1999/xlink" width="16pt" height="16pt" viewBox="0 0 16 16" version="1.1">
<g id="surface1">
<path style=" stroke:none;fill-rule:evenodd;fill:rgb(20%,30.196078%,36.078431%);fill-opacity:1;" d="M 15.105469 7.71875 L 0.902344 7.71875 L 0.902344 12.265625 C 0.902344 13.824219 2.15625 15.074219 3.707031 15.074219 L 12.296875 15.074219 C 13.855469 15.074219 15.105469 13.824219 15.105469 12.265625 Z M 15.105469 7.71875 "/>
<path style=" stroke:none;fill-rule:evenodd;fill:rgb(81.568627%,49.411765%,20.392157%);fill-opacity:1;" d="M 15.105469 5.078125 L 0.902344 5.078125 L 0.902344 7.71875 L 15.105469 7.71875 Z M 15.105469 5.078125 "/>
<path style=" stroke:none;fill-rule:evenodd;fill:rgb(50.196078%,50.196078%,50.196078%);fill-opacity:1;" d="M 3.707031 0.871094 C 2.15625 0.871094 0.902344 2.121094 0.902344 3.675781 L 0.902344 5.078125 L 15.105469 5.078125 L 15.105469 3.675781 C 15.105469 2.121094 13.855469 0.871094 12.296875 0.871094 Z M 3.707031 0.871094 "/>
<path style=" stroke:none;fill-rule:evenodd;fill:rgb(91.764706%,67.843137%,26.27451%);fill-opacity:1;" d="M 15.105469 7.328125 L 0.902344 7.328125 L 0.902344 12.328125 C 0.902344 13.886719 2.15625 15.136719 3.707031 15.136719 L 12.296875 15.136719 C 13.851562 15.136719 15.105469 13.886719 15.105469 12.328125 Z M 15.105469 7.328125 "/>
<path style=" stroke:none;fill-rule:evenodd;fill:rgb(79.607843%,49.803922%,17.254902%);fill-opacity:1;" d="M 4.507812 9.015625 C 4.507812 9.296875 4.277344 9.53125 3.992188 9.53125 C 3.707031 9.53125 3.476562 9.296875 3.476562 9.015625 C 3.476562 8.726562 3.707031 8.496094 3.992188 8.496094 C 4.277344 8.496094 4.507812 8.726562 4.507812 9.015625 Z M 4.507812 9.015625 "/>
<path style=" stroke:none;fill-rule:evenodd;fill:rgb(79.607843%,49.803922%,17.254902%);fill-opacity:1;" d="M 12.777344 9.019531 C 12.777344 9.308594 12.546875 9.539062 12.261719 9.539062 C 11.976562 9.539062 11.746094 9.308594 11.746094 9.019531 C 11.746094 8.734375 11.976562 8.503906 12.261719 8.503906 C 12.546875 8.503906 12.777344 8.734375 12.777344 9.019531 Z M 12.777344 9.019531 "/>
<path style=" stroke:none;fill-rule:nonzero;fill:rgb(100%,100%,100%);fill-opacity:1;" d="M 4.023438 8.894531 C 3.9375 8.894531 3.855469 8.929688 3.792969 8.992188 C 3.734375 9.054688 3.703125 9.140625 3.710938 9.226562 C 3.914062 12.328125 6.054688 13.832031 8.171875 13.753906 C 10.285156 13.679688 12.382812 12.054688 12.535156 9.222656 C 12.542969 9.113281 12.492188 9.003906 12.398438 8.941406 C 12.304688 8.882812 12.1875 8.875 12.085938 8.925781 C 11.988281 8.980469 11.921875 9.078125 11.921875 9.191406 C 11.785156 11.734375 9.96875 13.078125 8.148438 13.140625 C 6.328125 13.207031 4.507812 12.027344 4.324219 9.1875 C 4.316406 9.027344 4.1875 8.898438 4.023438 8.894531 Z M 4.023438 8.894531 "/>
</g>
</svg>
