<?xml version="1.0" encoding="UTF-8"?>
<svg xmlns="http://www.w3.org/2000/svg" xmlns:xlink="http://www.w3.org/1999/xlink" width="16pt" height="16pt" viewBox="0 0 16 16" version="1.1">
<g id="surface1">
<path style=" stroke:none;fill-rule:evenodd;fill:rgb(55.686275%,55.686275%,55.686275%);fill-opacity:1;" d="M 3.734375 0.949219 L 12.265625 0.949219 C 13.800781 0.949219 15.050781 2.199219 15.050781 3.734375 L 15.050781 12.265625 C 15.050781 13.800781 13.800781 15.050781 12.265625 15.050781 L 3.734375 15.050781 C 2.199219 15.050781 0.949219 13.800781 0.949219 12.265625 L 0.949219 3.734375 C 0.949219 2.199219 2.199219 0.949219 3.734375 0.949219 Z M 3.734375 0.949219 "/>
<path style=" stroke:none;fill-rule:nonzero;fill:rgb(71.764706%,71.764706%,71.764706%);fill-opacity:1;" d="M 3.613281 13.582031 L 12.386719 13.582031 L 12.386719 9.59375 L 3.613281 9.59375 Z M 3.613281 13.582031 "/>
<path style=" stroke:none;fill-rule:nonzero;fill:rgb(40%,40%,40%);fill-opacity:1;" d="M 4.8125 12.785156 L 6.40625 12.785156 L 6.40625 11.589844 L 4.8125 11.589844 Z M 4.8125 12.785156 "/>
<path style=" stroke:none;fill-rule:nonzero;fill:rgb(40%,40%,40%);fill-opacity:1;" d="M 9.59375 12.785156 L 11.1875 12.785156 L 11.1875 11.589844 L 9.59375 11.589844 Z M 9.59375 12.785156 "/>
<path style=" stroke:none;fill-rule:nonzero;fill:rgb(31.764706%,38.039216%,63.529412%);fill-opacity:1;" d="M 8 2.417969 C 4.917969 2.417969 2.417969 4.917969 2.417969 8 C 2.421875 8.828125 2.605469 9.644531 2.964844 10.390625 L 13.035156 10.390625 C 13.390625 9.644531 13.578125 8.828125 13.582031 8 C 13.582031 4.917969 11.082031 2.417969 8 2.417969 Z M 8 2.417969 "/>
<path style=" stroke:none;fill-rule:nonzero;fill:rgb(100%,100%,100%);fill-opacity:0.454902;" d="M 9.394531 3.613281 C 8.40625 3.613281 7.601562 4.417969 7.601562 5.40625 L 7.601562 6.40625 L 6.605469 6.40625 C 5.613281 6.40625 4.8125 7.207031 4.8125 8.199219 C 4.8125 9.191406 5.613281 9.992188 6.605469 9.992188 C 7.59375 9.992188 8.398438 9.191406 8.398438 8.199219 L 8.398438 7.203125 L 9.394531 7.203125 C 10.386719 7.203125 11.1875 6.398438 11.1875 5.40625 C 11.1875 4.417969 10.386719 3.613281 9.394531 3.613281 Z M 9.394531 4.410156 C 9.945312 4.410156 10.390625 4.859375 10.390625 5.40625 C 10.390625 5.957031 9.945312 6.40625 9.394531 6.40625 L 8.601562 6.40625 C 8.511719 6.40625 8.398438 6.40625 8.398438 6.1875 L 8.398438 5.40625 C 8.398438 4.859375 8.84375 4.410156 9.394531 4.410156 Z M 6.605469 7.203125 L 7.398438 7.203125 C 7.488281 7.203125 7.601562 7.203125 7.601562 7.421875 L 7.601562 8.199219 C 7.601562 8.75 7.15625 9.195312 6.605469 9.195312 C 6.054688 9.195312 5.609375 8.75 5.609375 8.199219 C 5.609375 7.648438 6.054688 7.203125 6.605469 7.203125 Z M 6.605469 7.203125 "/>
<path style=" stroke:none;fill-rule:nonzero;fill:rgb(100%,100%,100%);fill-opacity:1;" d="M 9.394531 3.613281 C 8.40625 3.613281 7.601562 4.417969 7.601562 5.40625 L 7.601562 6.40625 L 6.605469 6.40625 C 6.59375 6.40625 6.578125 6.40625 6.5625 6.40625 C 6.359375 6.429688 6.207031 6.597656 6.207031 6.804688 C 6.207031 7.023438 6.382812 7.203125 6.605469 7.203125 L 7.398438 7.203125 C 7.488281 7.203125 7.601562 7.203125 7.601562 7.421875 L 7.601562 8.199219 C 7.601562 8.75 7.15625 9.195312 6.605469 9.195312 C 6.453125 9.195312 6.308594 9.15625 6.179688 9.097656 C 6.125 9.070312 6.066406 9.058594 6.007812 9.058594 C 5.785156 9.058594 5.609375 9.234375 5.609375 9.453125 C 5.609375 9.605469 5.691406 9.742188 5.828125 9.8125 C 6.0625 9.929688 6.328125 9.992188 6.605469 9.992188 C 7.59375 9.992188 8.398438 9.191406 8.398438 8.199219 L 8.398438 7.203125 L 9.195312 7.203125 C 9.417969 7.203125 9.59375 7.023438 9.59375 6.804688 C 9.59375 6.582031 9.417969 6.40625 9.195312 6.40625 L 8.601562 6.40625 C 8.511719 6.40625 8.398438 6.40625 8.398438 6.1875 L 8.398438 5.40625 C 8.398438 4.859375 8.84375 4.410156 9.394531 4.410156 C 9.496094 4.410156 9.589844 4.429688 9.683594 4.457031 C 9.683594 4.457031 9.683594 4.457031 9.683594 4.453125 C 9.71875 4.46875 9.757812 4.472656 9.792969 4.472656 C 10.015625 4.472656 10.191406 4.292969 10.191406 4.074219 C 10.191406 4.035156 10.1875 4 10.175781 3.964844 C 10.175781 3.957031 10.179688 3.953125 10.179688 3.945312 C 10.175781 3.9375 10.167969 3.933594 10.164062 3.929688 C 10.117188 3.800781 10.003906 3.707031 9.871094 3.683594 C 9.867188 3.679688 9.863281 3.679688 9.859375 3.675781 C 9.710938 3.636719 9.558594 3.613281 9.394531 3.613281 Z M 9.394531 3.613281 "/>
</g>
</svg>
