<?xml version="1.0" encoding="UTF-8"?>
<svg xmlns="http://www.w3.org/2000/svg" xmlns:xlink="http://www.w3.org/1999/xlink" width="16pt" height="16pt" viewBox="0 0 16 16" version="1.1">
<g id="surface1">
<path style=" stroke:none;fill-rule:evenodd;fill:rgb(98.431373%,72.941176%,13.333333%);fill-opacity:1;" d="M 3.734375 0.949219 L 12.265625 0.949219 C 13.800781 0.949219 15.050781 2.199219 15.050781 3.734375 L 15.050781 12.265625 C 15.050781 13.800781 13.800781 15.050781 12.265625 15.050781 L 3.734375 15.050781 C 2.199219 15.050781 0.949219 13.800781 0.949219 12.265625 L 0.949219 3.734375 C 0.949219 2.199219 2.199219 0.949219 3.734375 0.949219 Z M 3.734375 0.949219 "/>
<path style=" stroke:none;fill-rule:nonzero;fill:rgb(100%,100%,100%);fill-opacity:1;" d="M 5.921875 2.554688 C 4.148438 2.554688 2.710938 4.671875 2.710938 7.28125 C 2.710938 9.886719 4.148438 12 5.921875 12 C 6.683594 12 7.417969 11.601562 8 10.875 C 8.578125 11.601562 9.316406 12 10.078125 12 C 11.851562 12 13.289062 9.886719 13.289062 7.28125 C 13.289062 4.671875 11.851562 2.554688 10.078125 2.554688 C 9.316406 2.558594 8.582031 2.957031 8 3.679688 C 7.421875 2.953125 6.683594 2.554688 5.921875 2.554688 Z M 5.921875 2.554688 "/>
<path style="fill:none;stroke-width:5;stroke-linecap:round;stroke-linejoin:round;stroke:rgb(91.764706%,52.156863%,1.568627%);stroke-opacity:1;stroke-miterlimit:4;" d="M 7.3125 24.382812 C 7.3125 24.382812 11.242188 23.625 16 23.625 C 20.757812 23.625 24.6875 24.382812 24.6875 24.382812 " transform="matrix(0.5,0,0,0.5,0,0)"/>
<path style=" stroke:none;fill-rule:nonzero;fill:rgb(98.431373%,72.941176%,13.333333%);fill-opacity:1;" d="M 5.898438 4.066406 C 5.664062 4.066406 5.265625 4.207031 4.898438 4.773438 C 4.53125 5.339844 4.234375 6.269531 4.234375 7.328125 C 4.234375 8.382812 4.53125 9.316406 4.898438 9.882812 C 5.070312 10.148438 5.277344 10.453125 5.445312 10.621094 C 5.972656 10.566406 6.585938 10.527344 7.246094 10.503906 L 7.246094 5.640625 C 7.132812 5.300781 6.96875 5.003906 6.820312 4.773438 C 6.453125 4.207031 6.128906 4.066406 5.898438 4.066406 Z M 10.128906 4.066406 C 9.894531 4.066406 9.574219 4.207031 9.203125 4.773438 C 9.054688 5.003906 8.867188 5.300781 8.753906 5.640625 L 8.753906 10.503906 C 9.421875 10.527344 10.042969 10.570312 10.578125 10.621094 C 10.746094 10.457031 10.953125 10.148438 11.125 9.882812 C 11.496094 9.316406 11.789062 8.382812 11.789062 7.328125 C 11.789062 6.269531 11.496094 5.339844 11.125 4.773438 C 10.757812 4.207031 10.359375 4.066406 10.128906 4.066406 Z M 10.128906 4.066406 "/>
</g>
</svg>
