<?xml version="1.0" encoding="UTF-8"?>
<svg xmlns="http://www.w3.org/2000/svg" xmlns:xlink="http://www.w3.org/1999/xlink" width="16pt" height="16pt" viewBox="0 0 16 16" version="1.1">
<g id="surface1">
<path style=" stroke:none;fill-rule:evenodd;fill:rgb(89.411765%,37.254902%,3.921569%);fill-opacity:1;" d="M 3.734375 0.949219 L 12.265625 0.949219 C 13.800781 0.949219 15.050781 2.199219 15.050781 3.734375 L 15.050781 12.265625 C 15.050781 13.800781 13.800781 15.050781 12.265625 15.050781 L 3.734375 15.050781 C 2.199219 15.050781 0.949219 13.800781 0.949219 12.265625 L 0.949219 3.734375 C 0.949219 2.199219 2.199219 0.949219 3.734375 0.949219 Z M 3.734375 0.949219 "/>
<path style=" stroke:none;fill-rule:evenodd;fill:rgb(58.039216%,76.470588%,89.411765%);fill-opacity:1;" d="M 14.988281 3.429688 C 14.828125 2.039062 13.699219 0.949219 12.265625 0.949219 L 5.660156 0.949219 C 5.296875 1.246094 4.9375 1.554688 4.632812 1.917969 C 4.253906 2.363281 3.921875 2.855469 3.65625 3.375 C 3.390625 3.894531 3.1875 4.441406 3.066406 5.003906 C 2.941406 5.5625 2.898438 6.140625 2.945312 6.710938 C 2.992188 7.25 3.140625 7.796875 3.371094 8.3125 C 3.605469 8.828125 3.917969 9.3125 4.296875 9.71875 C 4.679688 10.121094 5.117188 10.445312 5.605469 10.652344 C 6.089844 10.859375 6.621094 10.949219 7.1875 10.886719 C 7.515625 10.851562 7.820312 10.761719 8.089844 10.625 C 8.359375 10.484375 8.589844 10.300781 8.773438 10.078125 C 8.957031 9.851562 9.09375 9.589844 9.175781 9.292969 C 9.253906 8.996094 9.277344 8.667969 9.230469 8.3125 C 9.226562 8.308594 9.230469 8.300781 9.230469 8.296875 C 9.191406 8.203125 9.125 8.136719 9.035156 8.078125 C 8.933594 8.015625 8.792969 7.980469 8.644531 7.960938 C 8.582031 7.953125 8.523438 7.949219 8.460938 7.949219 L 8.382812 8.21875 C 8.300781 8.535156 8.039062 8.859375 7.65625 9.066406 C 7.464844 9.171875 7.234375 9.242188 6.988281 9.257812 C 6.742188 9.269531 6.476562 9.226562 6.210938 9.105469 L 6.199219 9.09375 C 5.875 8.90625 5.578125 8.617188 5.332031 8.257812 C 5.085938 7.898438 4.894531 7.46875 4.78125 7.011719 C 4.667969 6.550781 4.636719 6.058594 4.722656 5.566406 C 4.808594 5.078125 5.011719 4.589844 5.363281 4.148438 C 5.699219 3.734375 6.050781 3.378906 6.421875 3.078125 C 6.792969 2.78125 7.179688 2.539062 7.578125 2.34375 C 7.972656 2.152344 8.382812 2.011719 8.796875 1.917969 C 9.210938 1.824219 9.628906 1.777344 10.046875 1.769531 C 10.886719 1.757812 11.722656 1.90625 12.527344 2.171875 C 13.328125 2.4375 14.097656 2.824219 14.796875 3.292969 C 14.863281 3.335938 14.925781 3.382812 14.988281 3.429688 Z M 14.988281 3.429688 "/>
<path style=" stroke:none;fill-rule:evenodd;fill:rgb(58.039216%,76.470588%,89.411765%);fill-opacity:1;" d="M 1.015625 12.585938 C 1.179688 13.96875 2.308594 15.050781 3.734375 15.050781 L 10.347656 15.050781 C 10.707031 14.753906 11.0625 14.445312 11.371094 14.082031 C 11.75 13.636719 12.078125 13.148438 12.34375 12.628906 C 12.609375 12.109375 12.8125 11.5625 12.933594 11.003906 C 13.058594 10.445312 13.101562 9.871094 13.054688 9.300781 C 13.007812 8.765625 12.859375 8.214844 12.628906 7.699219 C 12.394531 7.183594 12.082031 6.699219 11.703125 6.296875 C 11.320312 5.890625 10.882812 5.566406 10.394531 5.355469 C 9.910156 5.144531 9.378906 5.050781 8.8125 5.113281 C 8.480469 5.148438 8.175781 5.242188 7.90625 5.378906 C 7.640625 5.515625 7.40625 5.699219 7.226562 5.917969 C 7.046875 6.136719 6.910156 6.386719 6.828125 6.671875 C 6.75 6.953125 6.726562 7.273438 6.769531 7.625 C 6.839844 7.851562 7.058594 7.972656 7.355469 8.027344 C 7.414062 8.035156 7.480469 8.046875 7.539062 8.050781 L 7.617188 7.792969 C 7.699219 7.476562 7.960938 7.15625 8.34375 6.945312 C 8.535156 6.84375 8.765625 6.769531 9.011719 6.757812 C 9.257812 6.742188 9.523438 6.785156 9.789062 6.90625 L 9.800781 6.90625 C 10.125 7.09375 10.421875 7.386719 10.667969 7.75 C 10.914062 8.109375 11.105469 8.542969 11.21875 9 C 11.332031 9.460938 11.363281 9.957031 11.277344 10.449219 C 11.191406 10.9375 10.988281 11.421875 10.636719 11.863281 C 10.300781 12.28125 9.949219 12.632812 9.578125 12.933594 C 9.207031 13.234375 8.820312 13.476562 8.421875 13.667969 C 8.027344 13.859375 7.617188 14 7.203125 14.09375 C 6.789062 14.191406 6.371094 14.238281 5.953125 14.246094 C 5.113281 14.257812 4.277344 14.109375 3.472656 13.84375 C 2.671875 13.578125 1.902344 13.1875 1.203125 12.722656 C 1.140625 12.679688 1.078125 12.632812 1.015625 12.585938 Z M 1.015625 12.585938 "/>
<path style=" stroke:none;fill-rule:evenodd;fill:rgb(89.411765%,37.254902%,3.921569%);fill-opacity:1;" d="M 1.015625 12.585938 C 1.078125 12.632812 1.140625 12.679688 1.203125 12.722656 C 1.902344 13.1875 2.671875 13.578125 3.472656 13.84375 C 4.277344 14.109375 5.113281 14.257812 5.953125 14.246094 C 6.371094 14.238281 6.789062 14.191406 7.203125 14.09375 C 7.617188 14 8.027344 13.859375 8.421875 13.667969 C 8.820312 13.476562 9.207031 13.234375 9.578125 12.933594 C 9.949219 12.632812 10.300781 12.28125 10.636719 11.863281 C 10.988281 11.421875 11.191406 10.9375 11.277344 10.449219 C 11.363281 9.957031 11.332031 9.460938 11.21875 9 C 11.105469 8.542969 10.914062 8.109375 10.667969 7.75 C 10.421875 7.386719 10.125 7.09375 9.800781 6.90625 L 9.789062 6.90625 C 9.523438 6.785156 9.257812 6.742188 9.011719 6.757812 C 8.765625 6.769531 8.535156 6.84375 8.34375 6.945312 C 7.960938 7.15625 7.699219 7.476562 7.617188 7.792969 L 7.539062 8.050781 C 7.480469 8.046875 7.414062 8.035156 7.355469 8.027344 C 7.058594 7.972656 6.839844 7.851562 6.769531 7.625 C 6.726562 7.273438 6.75 6.953125 6.828125 6.671875 C 6.910156 6.386719 7.046875 6.136719 7.226562 5.917969 C 7.40625 5.699219 7.640625 5.515625 7.90625 5.378906 C 8.175781 5.242188 8.480469 5.148438 8.8125 5.113281 C 9.378906 5.050781 9.910156 5.144531 10.394531 5.355469 C 10.882812 5.566406 11.320312 5.890625 11.703125 6.296875 C 12.082031 6.699219 12.394531 7.183594 12.628906 7.699219 C 12.859375 8.214844 13.007812 8.765625 13.054688 9.300781 C 13.101562 9.871094 13.058594 10.445312 12.933594 11.003906 C 12.8125 11.5625 12.609375 12.109375 12.34375 12.628906 C 12.078125 13.148438 11.75 13.636719 11.371094 14.082031 C 11.0625 14.445312 10.707031 14.753906 10.347656 15.050781 L 12.265625 15.050781 C 13.808594 15.050781 15.050781 13.808594 15.050781 12.265625 L 15.050781 3.734375 C 15.050781 3.625 15 3.535156 14.988281 3.429688 C 14.925781 3.382812 14.863281 3.335938 14.796875 3.292969 C 14.097656 2.824219 13.328125 2.4375 12.527344 2.171875 C 11.722656 1.90625 10.886719 1.757812 10.046875 1.769531 C 9.628906 1.777344 9.210938 1.824219 8.796875 1.917969 C 8.382812 2.011719 7.972656 2.152344 7.578125 2.34375 C 7.179688 2.539062 6.792969 2.78125 6.421875 3.078125 C 6.050781 3.378906 5.699219 3.734375 5.363281 4.148438 C 5.011719 4.589844 4.808594 5.078125 4.722656 5.566406 C 4.636719 6.058594 4.667969 6.550781 4.78125 7.011719 C 4.894531 7.46875 5.085938 7.898438 5.332031 8.257812 C 5.578125 8.617188 5.875 8.90625 6.199219 9.09375 L 6.210938 9.105469 C 6.476562 9.226562 6.742188 9.269531 6.988281 9.257812 C 7.234375 9.242188 7.464844 9.171875 7.65625 9.066406 C 8.039062 8.859375 8.300781 8.535156 8.382812 8.21875 L 8.460938 7.949219 C 8.523438 7.949219 8.582031 7.953125 8.644531 7.960938 C 8.792969 7.980469 8.933594 8.015625 9.035156 8.078125 C 9.125 8.136719 9.191406 8.203125 9.230469 8.296875 C 9.230469 8.300781 9.226562 8.308594 9.230469 8.3125 C 9.277344 8.667969 9.253906 8.996094 9.175781 9.292969 C 9.09375 9.589844 8.957031 9.851562 8.773438 10.078125 C 8.589844 10.300781 8.359375 10.484375 8.089844 10.625 C 7.820312 10.761719 7.515625 10.851562 7.1875 10.886719 C 6.621094 10.949219 6.089844 10.859375 5.605469 10.652344 C 5.117188 10.445312 4.679688 10.121094 4.296875 9.71875 C 3.917969 9.3125 3.605469 8.828125 3.371094 8.3125 C 3.140625 7.796875 2.992188 7.25 2.945312 6.710938 C 2.898438 6.140625 2.941406 5.5625 3.066406 5.003906 C 3.1875 4.441406 3.390625 3.894531 3.65625 3.375 C 3.921875 2.855469 4.253906 2.363281 4.632812 1.917969 C 4.9375 1.554688 5.296875 1.246094 5.660156 0.949219 L 3.734375 0.949219 C 2.191406 0.949219 0.949219 2.191406 0.949219 3.734375 L 0.949219 12.265625 C 0.949219 12.378906 1 12.476562 1.015625 12.585938 Z M 1.015625 12.585938 "/>
</g>
</svg>
