<?xml version="1.0" encoding="UTF-8"?>
<svg xmlns="http://www.w3.org/2000/svg" xmlns:xlink="http://www.w3.org/1999/xlink" width="16pt" height="16pt" viewBox="0 0 16 16" version="1.1">
<g id="surface1">
<path style=" stroke:none;fill-rule:evenodd;fill:rgb(55.686275%,55.686275%,55.686275%);fill-opacity:1;" d="M 3.734375 0.949219 L 12.265625 0.949219 C 13.800781 0.949219 15.050781 2.199219 15.050781 3.734375 L 15.050781 12.265625 C 15.050781 13.800781 13.800781 15.050781 12.265625 15.050781 L 3.734375 15.050781 C 2.199219 15.050781 0.949219 13.800781 0.949219 12.265625 L 0.949219 3.734375 C 0.949219 2.199219 2.199219 0.949219 3.734375 0.949219 Z M 3.734375 0.949219 "/>
<path style=" stroke:none;fill-rule:nonzero;fill:rgb(80%,80%,80%);fill-opacity:1;" d="M 11.996094 12.578125 L 11.996094 5.457031 L 4.003906 5.457031 L 4.003906 12.578125 C 4.003906 12.859375 4.226562 13.085938 4.503906 13.085938 L 11.496094 13.085938 C 11.773438 13.085938 11.996094 12.859375 11.996094 12.578125 Z M 11.996094 12.578125 "/>
<path style=" stroke:none;fill-rule:nonzero;fill:rgb(72.156863%,72.156863%,72.156863%);fill-opacity:1;" d="M 5.820312 4.003906 L 10.179688 4.003906 L 11.996094 5.457031 L 4.003906 5.457031 Z M 5.820312 4.003906 "/>
<path style=" stroke:none;fill-rule:nonzero;fill:rgb(63.921569%,63.921569%,63.921569%);fill-opacity:1;" d="M 5.820312 2.914062 L 10.179688 2.914062 L 10.179688 4.003906 L 5.820312 4.003906 Z M 5.820312 2.914062 "/>
<path style=" stroke:none;fill-rule:nonzero;fill:rgb(63.921569%,63.921569%,63.921569%);fill-opacity:1;" d="M 10.179688 4.003906 L 11.996094 5.457031 L 8.726562 5.457031 Z M 10.179688 4.003906 "/>
<path style=" stroke:none;fill-rule:nonzero;fill:rgb(72.156863%,72.156863%,72.156863%);fill-opacity:1;" d="M 8.726562 5.457031 L 8.726562 13.085938 L 11.53125 13.085938 C 11.789062 13.085938 11.996094 12.859375 11.996094 12.578125 L 11.996094 5.457031 Z M 8.726562 5.457031 "/>
<path style=" stroke:none;fill-rule:nonzero;fill:rgb(22.745098%,52.54902%,77.254902%);fill-opacity:1;" d="M 5.089844 7.269531 C 5.085938 7.269531 5.078125 7.269531 5.074219 7.269531 C 5.0625 7.269531 5.050781 7.269531 5.042969 7.273438 C 5.035156 7.273438 5.03125 7.273438 5.027344 7.277344 C 5.019531 7.277344 5.015625 7.277344 5.011719 7.28125 C 5.003906 7.28125 4.996094 7.28125 4.988281 7.285156 C 4.984375 7.285156 4.984375 7.285156 4.980469 7.289062 C 4.96875 7.289062 4.960938 7.292969 4.953125 7.296875 C 4.953125 7.296875 4.949219 7.300781 4.945312 7.300781 C 4.9375 7.304688 4.929688 7.308594 4.921875 7.3125 C 4.917969 7.3125 4.917969 7.316406 4.917969 7.316406 C 4.789062 7.390625 4.71875 7.53125 4.734375 7.671875 L 4.734375 10.539062 C 4.730469 10.671875 4.800781 10.792969 4.914062 10.859375 C 5.027344 10.921875 5.167969 10.921875 5.28125 10.859375 C 5.390625 10.792969 5.460938 10.671875 5.460938 10.539062 L 5.460938 8.730469 L 5.890625 9.308594 C 5.960938 9.398438 6.070312 9.453125 6.183594 9.453125 C 6.296875 9.453125 6.40625 9.398438 6.472656 9.308594 L 6.910156 8.726562 L 6.910156 10.539062 C 6.90625 10.671875 6.976562 10.792969 7.089844 10.859375 C 7.203125 10.921875 7.34375 10.921875 7.457031 10.859375 C 7.570312 10.792969 7.640625 10.671875 7.636719 10.539062 L 7.636719 7.675781 C 7.652344 7.550781 7.601562 7.429688 7.503906 7.351562 C 7.492188 7.34375 7.484375 7.335938 7.472656 7.328125 C 7.464844 7.324219 7.453125 7.316406 7.441406 7.3125 C 7.433594 7.304688 7.421875 7.300781 7.414062 7.296875 C 7.410156 7.296875 7.410156 7.296875 7.410156 7.296875 C 7.40625 7.292969 7.398438 7.289062 7.394531 7.289062 C 7.390625 7.289062 7.390625 7.289062 7.390625 7.289062 C 7.382812 7.285156 7.371094 7.28125 7.359375 7.28125 C 7.359375 7.28125 7.359375 7.277344 7.359375 7.277344 C 7.359375 7.277344 7.355469 7.277344 7.355469 7.277344 C 7.34375 7.277344 7.335938 7.273438 7.324219 7.273438 C 7.320312 7.273438 7.320312 7.273438 7.320312 7.273438 C 7.308594 7.269531 7.296875 7.269531 7.289062 7.269531 C 7.285156 7.269531 7.285156 7.269531 7.285156 7.269531 C 7.152344 7.265625 7.027344 7.332031 6.957031 7.449219 L 6.183594 8.484375 L 5.410156 7.449219 C 5.34375 7.335938 5.222656 7.265625 5.089844 7.269531 Z M 5.089844 7.269531 "/>
<path style=" stroke:none;fill-rule:nonzero;fill:rgb(22.745098%,52.54902%,77.254902%);fill-opacity:1;" d="M 10.539062 7.269531 C 10.519531 7.269531 10.503906 7.269531 10.484375 7.273438 L 9.816406 7.273438 C 9.6875 7.269531 9.5625 7.339844 9.5 7.453125 C 9.433594 7.566406 9.433594 7.707031 9.5 7.820312 C 9.5625 7.933594 9.6875 8 9.816406 8 L 10.179688 8 L 10.179688 10.542969 C 10.179688 10.671875 10.246094 10.796875 10.359375 10.863281 C 10.472656 10.929688 10.613281 10.929688 10.726562 10.863281 C 10.839844 10.796875 10.90625 10.671875 10.90625 10.542969 L 10.90625 8 L 11.269531 8 C 11.402344 8 11.523438 7.933594 11.589844 7.820312 C 11.65625 7.707031 11.65625 7.566406 11.589844 7.453125 C 11.523438 7.339844 11.402344 7.269531 11.269531 7.273438 L 10.605469 7.273438 C 10.582031 7.269531 10.5625 7.265625 10.539062 7.269531 Z M 10.539062 7.269531 "/>
</g>
</svg>
