<?xml version="1.0" encoding="UTF-8"?>
<svg xmlns="http://www.w3.org/2000/svg" xmlns:xlink="http://www.w3.org/1999/xlink" width="16pt" height="16pt" viewBox="0 0 16 16" version="1.1">
<g id="surface1">
<path style=" stroke:none;fill-rule:evenodd;fill:rgb(41.960784%,41.960784%,41.960784%);fill-opacity:1;" d="M 3.734375 0.949219 L 12.265625 0.949219 C 13.800781 0.949219 15.050781 2.199219 15.050781 3.734375 L 15.050781 12.265625 C 15.050781 13.800781 13.800781 15.050781 12.265625 15.050781 L 3.734375 15.050781 C 2.199219 15.050781 0.949219 13.800781 0.949219 12.265625 L 0.949219 3.734375 C 0.949219 2.199219 2.199219 0.949219 3.734375 0.949219 Z M 3.734375 0.949219 "/>
<path style=" stroke:none;fill-rule:evenodd;fill:rgb(47.058824%,32.941176%,22.352941%);fill-opacity:1;" d="M 4.425781 15.050781 L 4.425781 11.574219 L 0.949219 11.574219 L 0.949219 12.265625 C 0.949219 13.808594 2.191406 15.050781 3.734375 15.050781 Z M 4.425781 15.050781 "/>
<path style=" stroke:none;fill-rule:evenodd;fill:rgb(34.509804%,23.529412%,15.686275%);fill-opacity:1;" d="M 8 15.050781 L 8 11.574219 L 4.425781 11.574219 L 4.425781 15.050781 Z M 8 15.050781 "/>
<path style=" stroke:none;fill-rule:evenodd;fill:rgb(72.156863%,51.764706%,35.686275%);fill-opacity:1;" d="M 11.574219 15.050781 L 11.574219 11.574219 L 8 11.574219 L 8 15.050781 Z M 11.574219 15.050781 "/>
<path style=" stroke:none;fill-rule:evenodd;fill:rgb(58.431373%,41.960784%,28.627451%);fill-opacity:1;" d="M 15.050781 11.574219 L 11.574219 11.574219 L 11.574219 15.050781 L 12.265625 15.050781 C 13.808594 15.050781 15.050781 13.808594 15.050781 12.265625 Z M 15.050781 11.574219 "/>
<path style=" stroke:none;fill-rule:evenodd;fill:rgb(47.058824%,32.941176%,22.352941%);fill-opacity:1;" d="M 4.425781 11.574219 L 4.425781 8 L 0.949219 8 L 0.949219 11.574219 Z M 4.425781 11.574219 "/>
<path style=" stroke:none;fill-rule:evenodd;fill:rgb(41.960784%,41.960784%,41.960784%);fill-opacity:1;" d="M 11.574219 11.574219 L 11.574219 8 L 8 8 L 8 11.574219 Z M 11.574219 11.574219 "/>
<path style=" stroke:none;fill-rule:evenodd;fill:rgb(60.784314%,79.215686%,41.960784%);fill-opacity:1;" d="M 15.050781 8 L 11.574219 8 L 11.574219 11.574219 L 15.050781 11.574219 Z M 15.050781 8 "/>
<path style=" stroke:none;fill-rule:evenodd;fill:rgb(44.705882%,69.803922%,28.235294%);fill-opacity:1;" d="M 15.050781 4.425781 L 11.574219 4.425781 L 11.574219 8 L 15.050781 8 Z M 15.050781 4.425781 "/>
<path style=" stroke:none;fill-rule:evenodd;fill:rgb(58.431373%,41.960784%,28.627451%);fill-opacity:1;" d="M 11.574219 4.425781 L 8 4.425781 L 8 8 L 11.574219 8 Z M 11.574219 4.425781 "/>
<path style=" stroke:none;fill-rule:evenodd;fill:rgb(58.431373%,41.960784%,28.627451%);fill-opacity:1;" d="M 8 8 L 4.425781 8 L 4.425781 11.574219 L 8 11.574219 Z M 8 8 "/>
<path style=" stroke:none;fill-rule:evenodd;fill:rgb(60.784314%,79.215686%,41.960784%);fill-opacity:1;" d="M 8 4.425781 L 4.425781 4.425781 L 4.425781 8 L 8 8 Z M 8 4.425781 "/>
<path style=" stroke:none;fill-rule:evenodd;fill:rgb(37.647059%,62.745098%,21.176471%);fill-opacity:1;" d="M 11.574219 0.949219 L 11.574219 4.425781 L 15.050781 4.425781 L 15.050781 3.734375 C 15.050781 2.191406 13.808594 0.949219 12.265625 0.949219 Z M 11.574219 0.949219 "/>
<path style=" stroke:none;fill-rule:evenodd;fill:rgb(44.705882%,69.803922%,28.235294%);fill-opacity:1;" d="M 8 0.949219 L 4.425781 0.949219 L 4.425781 4.425781 L 8 4.425781 Z M 8 0.949219 "/>
<path style=" stroke:none;fill-rule:evenodd;fill:rgb(33.72549%,58.823529%,17.254902%);fill-opacity:1;" d="M 8 0.949219 L 8 4.425781 L 11.574219 4.425781 L 11.574219 0.949219 Z M 8 0.949219 "/>
<path style=" stroke:none;fill-rule:evenodd;fill:rgb(34.509804%,23.529412%,15.686275%);fill-opacity:1;" d="M 0.949219 4.425781 L 0.949219 8 L 4.425781 8 L 4.425781 4.425781 Z M 0.949219 4.425781 "/>
<path style=" stroke:none;fill-rule:evenodd;fill:rgb(33.72549%,58.823529%,17.254902%);fill-opacity:1;" d="M 0.949219 4.425781 L 4.425781 4.425781 L 4.425781 0.949219 L 3.734375 0.949219 C 2.191406 0.949219 0.949219 2.191406 0.949219 3.734375 Z M 0.949219 4.425781 "/>
</g>
</svg>
