<?xml version="1.0" encoding="UTF-8"?>
<svg xmlns="http://www.w3.org/2000/svg" xmlns:xlink="http://www.w3.org/1999/xlink" width="16pt" height="16pt" viewBox="0 0 16 16" version="1.1">
<g id="surface1">
<path style=" stroke:none;fill-rule:evenodd;fill:rgb(0.784314%,65.882353%,95.294118%);fill-opacity:1;" d="M 3.734375 0.949219 L 12.265625 0.949219 C 13.800781 0.949219 15.050781 2.199219 15.050781 3.734375 L 15.050781 12.265625 C 15.050781 13.800781 13.800781 15.050781 12.265625 15.050781 L 3.734375 15.050781 C 2.199219 15.050781 0.949219 13.800781 0.949219 12.265625 L 0.949219 3.734375 C 0.949219 2.199219 2.199219 0.949219 3.734375 0.949219 Z M 3.734375 0.949219 "/>
<path style=" stroke:none;fill-rule:evenodd;fill:rgb(50.980392%,100%,48.627451%);fill-opacity:1;" d="M 7.4375 3.03125 C 4.945312 3.308594 3 5.429688 3 8 C 3 10.757812 5.242188 13 8 13 C 10.757812 13 13 10.757812 13 8 C 13 5.464844 11.109375 3.375 8.664062 3.046875 C 8.664062 3.046875 7.984375 2.953125 7.4375 3.03125 Z M 7.667969 3.703125 L 7.667969 5.390625 C 7.1875 5.371094 6.734375 5.320312 6.3125 5.242188 C 6.375 5.09375 6.441406 4.949219 6.515625 4.820312 C 6.847656 4.21875 7.25 3.84375 7.667969 3.703125 Z M 8.378906 3.734375 C 8.417969 3.738281 8.457031 3.742188 8.496094 3.75 C 8.871094 3.914062 9.230469 4.273438 9.535156 4.820312 C 9.605469 4.949219 9.671875 5.089844 9.734375 5.234375 C 9.3125 5.316406 8.859375 5.367188 8.378906 5.386719 Z M 6.1875 4.015625 C 6.078125 4.160156 5.980469 4.3125 5.890625 4.472656 C 5.785156 4.660156 5.691406 4.859375 5.609375 5.074219 C 5.375 5.003906 5.164062 4.929688 4.96875 4.84375 C 5.320312 4.503906 5.734375 4.222656 6.1875 4.015625 Z M 9.984375 4.1875 C 10.40625 4.316406 10.726562 4.582031 11.03125 4.84375 C 10.847656 4.921875 10.648438 4.996094 10.4375 5.0625 C 10.351562 4.855469 10.261719 4.65625 10.160156 4.472656 C 10.105469 4.375 10.046875 4.277344 9.984375 4.1875 Z M 4.515625 5.359375 C 4.523438 5.382812 4.503906 5.320312 4.511719 5.347656 C 4.769531 5.46875 5.078125 5.660156 5.378906 5.75 C 5.222656 6.308594 5.125 6.921875 5.097656 7.570312 L 3.644531 7.570312 C 3.726562 6.742188 4.039062 5.984375 4.515625 5.359375 Z M 11.488281 5.363281 C 11.960938 5.988281 12.273438 6.746094 12.351562 7.570312 L 10.949219 7.570312 C 10.921875 6.917969 10.824219 6.300781 10.667969 5.738281 C 10.953125 5.652344 11.234375 5.484375 11.480469 5.371094 C 11.492188 5.34375 11.480469 5.386719 11.488281 5.363281 Z M 9.972656 5.914062 C 10.117188 6.414062 10.207031 6.976562 10.234375 7.570312 L 8.378906 7.570312 L 8.378906 6.101562 C 8.941406 6.082031 9.476562 6.015625 9.972656 5.914062 Z M 6.070312 5.925781 C 6.570312 6.027344 7.105469 6.085938 7.667969 6.101562 L 7.667969 7.570312 L 5.8125 7.570312 C 5.839844 6.980469 5.929688 6.421875 6.070312 5.925781 Z M 3.640625 8.285156 L 5.097656 8.285156 C 5.125 8.953125 5.226562 9.582031 5.390625 10.152344 C 5.070312 10.195312 4.515625 10.519531 4.488281 10.535156 C 3.925781 9.847656 3.699219 9.226562 3.640625 8.285156 Z M 5.8125 8.285156 L 7.667969 8.285156 L 7.667969 9.804688 C 7.109375 9.820312 6.578125 9.878906 6.085938 9.980469 C 5.9375 9.46875 5.84375 8.894531 5.8125 8.285156 Z M 8.378906 8.285156 L 10.234375 8.285156 C 10.207031 8.898438 10.109375 9.476562 9.960938 9.988281 C 9.46875 9.886719 8.9375 9.828125 8.378906 9.804688 Z M 10.949219 8.285156 L 12.359375 8.285156 C 12.304688 9.152344 12.046875 9.894531 11.5625 10.550781 C 11.335938 10.40625 10.921875 10.257812 10.65625 10.164062 C 10.820312 9.59375 10.921875 8.957031 10.949219 8.285156 Z M 7.667969 10.515625 L 7.667969 12.152344 C 7.25 12.011719 6.847656 11.640625 6.515625 11.039062 C 6.449219 10.921875 6.390625 10.792969 6.332031 10.660156 C 6.746094 10.582031 7.195312 10.535156 7.667969 10.515625 Z M 8.378906 10.519531 C 8.851562 10.539062 9.300781 10.589844 9.714844 10.671875 C 9.65625 10.796875 9.597656 10.921875 9.535156 11.039062 C 9.203125 11.640625 8.796875 12.015625 8.378906 12.152344 Z M 5.625 10.828125 C 5.707031 11.023438 5.792969 11.210938 5.890625 11.386719 C 6.027344 11.628906 6.179688 11.851562 6.351562 12.050781 C 5.804688 11.828125 5.3125 11.5 4.902344 11.089844 C 5.121094 10.992188 5.363281 10.90625 5.625 10.828125 Z M 10.417969 10.84375 C 10.664062 10.914062 10.890625 11 11.097656 11.089844 C 10.707031 11.484375 10.242188 11.800781 9.726562 12.019531 C 9.886719 11.828125 10.03125 11.617188 10.160156 11.386719 C 10.253906 11.214844 10.339844 11.03125 10.417969 10.84375 Z M 10.417969 10.84375 "/>
<path style=" stroke:none;fill-rule:evenodd;fill:rgb(80%,36.862745%,33.333333%);fill-opacity:1;" d="M 14.109375 11.070312 C 14.109375 12.726562 12.765625 14.070312 11.109375 14.070312 C 9.453125 14.070312 8.109375 12.726562 8.109375 11.070312 C 8.109375 9.414062 9.453125 8.070312 11.109375 8.070312 C 12.765625 8.070312 14.109375 9.414062 14.109375 11.070312 Z M 14.109375 11.070312 "/>
<path style=" stroke:none;fill-rule:nonzero;fill:rgb(100%,100%,100%);fill-opacity:1;" d="M 10.824219 9.078125 L 11.574219 9.078125 L 11.574219 11.328125 L 10.824219 11.328125 Z M 10.824219 9.078125 "/>
<path style=" stroke:none;fill-rule:nonzero;fill:rgb(100%,100%,100%);fill-opacity:1;" d="M 10.824219 12.078125 L 11.574219 12.078125 L 11.574219 12.828125 L 10.824219 12.828125 Z M 10.824219 12.078125 "/>
</g>
</svg>
