<?xml version="1.0" encoding="UTF-8"?>
<svg xmlns="http://www.w3.org/2000/svg" xmlns:xlink="http://www.w3.org/1999/xlink" width="16pt" height="16pt" viewBox="0 0 16 16" version="1.1">
<defs>
<linearGradient id="linear0" gradientUnits="userSpaceOnUse" x1="56" y1="92.001" x2="56" y2="4.001" gradientTransform="matrix(0.166836,0,0,0.167608,0.659228,-0.045197)">
<stop offset="0" style="stop-color:rgb(94.901961%,94.901961%,94.901961%);stop-opacity:1;"/>
<stop offset="1" style="stop-color:rgb(100%,100%,100%);stop-opacity:1;"/>
</linearGradient>
</defs>
<g id="surface1">
<path style=" stroke:none;fill-rule:evenodd;fill:rgb(49.411765%,76.078431%,25.882353%);fill-opacity:1;" d="M 3.734375 0.949219 L 12.265625 0.949219 C 13.800781 0.949219 15.050781 2.199219 15.050781 3.734375 L 15.050781 12.265625 C 15.050781 13.800781 13.800781 15.050781 12.265625 15.050781 L 3.734375 15.050781 C 2.199219 15.050781 0.949219 13.800781 0.949219 12.265625 L 0.949219 3.734375 C 0.949219 2.199219 2.199219 0.949219 3.734375 0.949219 Z M 3.734375 0.949219 "/>
<path style=" stroke:none;fill-rule:nonzero;fill:url(#linear0);" d="M 2.828125 3.472656 L 2.828125 6.15625 L 4.164062 6.15625 L 4.164062 9.203125 C 4.164062 11.042969 5.640625 12.527344 7.46875 12.527344 L 13.171875 12.527344 L 13.171875 6.796875 C 13.171875 4.957031 11.695312 3.472656 9.867188 3.472656 Z M 3.496094 4.144531 L 9.867188 4.144531 C 11.339844 4.144531 12.503906 5.316406 12.503906 6.796875 L 12.503906 11.855469 L 7.46875 11.855469 C 5.996094 11.855469 4.828125 10.683594 4.828125 9.203125 L 4.828125 6.15625 C 4.828125 5.804688 4.511719 5.484375 4.164062 5.484375 L 3.496094 5.484375 Z M 3.496094 4.144531 "/>
<path style=" stroke:none;fill-rule:nonzero;fill:rgb(100%,100%,100%);fill-opacity:1;" d="M 5.832031 4.816406 L 5.832031 9.507812 C 5.832031 10.25 6.425781 10.847656 7.167969 10.847656 L 10.167969 10.847656 C 10.90625 10.847656 11.503906 10.25 11.503906 9.507812 L 11.503906 6.996094 C 11.503906 6.347656 10.980469 5.820312 10.335938 5.820312 C 10.007812 5.820312 9.714844 5.957031 9.5 6.175781 C 9.289062 5.957031 8.996094 5.820312 8.667969 5.820312 C 8.023438 5.820312 7.5 6.347656 7.5 6.996094 L 7.5 9.003906 L 8.167969 9.003906 L 8.167969 6.996094 C 8.167969 6.71875 8.390625 6.492188 8.667969 6.492188 C 8.945312 6.492188 9.167969 6.71875 9.167969 6.996094 L 9.167969 9.003906 L 9.835938 9.003906 L 9.835938 6.996094 C 9.835938 6.71875 10.058594 6.492188 10.335938 6.492188 C 10.613281 6.492188 10.835938 6.71875 10.835938 6.996094 L 10.835938 9.507812 C 10.835938 9.878906 10.539062 10.179688 10.167969 10.179688 L 7.167969 10.179688 C 6.796875 10.179688 6.5 9.878906 6.5 9.507812 L 6.5 4.816406 Z M 5.832031 4.816406 "/>
</g>
</svg>
