<?xml version="1.0" encoding="UTF-8"?>
<svg xmlns="http://www.w3.org/2000/svg" xmlns:xlink="http://www.w3.org/1999/xlink" width="16pt" height="16pt" viewBox="0 0 16 16" version="1.1">
<g id="surface1">
<path style=" stroke:none;fill-rule:evenodd;fill:rgb(80%,80%,80%);fill-opacity:1;" d="M 3.734375 0.949219 L 12.265625 0.949219 C 13.800781 0.949219 15.050781 2.199219 15.050781 3.734375 L 15.050781 12.265625 C 15.050781 13.800781 13.800781 15.050781 12.265625 15.050781 L 3.734375 15.050781 C 2.199219 15.050781 0.949219 13.800781 0.949219 12.265625 L 0.949219 3.734375 C 0.949219 2.199219 2.199219 0.949219 3.734375 0.949219 Z M 3.734375 0.949219 "/>
<path style=" stroke:none;fill-rule:nonzero;fill:rgb(100%,100%,100%);fill-opacity:1;" d="M 8 4.515625 C 6.6875 4.515625 5.570312 5.316406 5.089844 6.453125 C 3.867188 6.636719 2.929688 7.679688 2.929688 8.953125 C 2.929688 10.351562 4.0625 11.484375 5.464844 11.484375 L 10.851562 11.484375 C 12.078125 11.484375 13.070312 10.492188 13.070312 9.265625 C 13.070312 8.128906 12.214844 7.195312 11.109375 7.070312 C 10.820312 5.617188 9.539062 4.515625 8 4.515625 Z M 8 4.515625 "/>
<path style=" stroke:none;fill-rule:nonzero;fill:rgb(50.196078%,50.196078%,50.196078%);fill-opacity:1;" d="M 8.464844 6.082031 C 8.253906 6.09375 8.074219 6.238281 8.027344 6.445312 C 7.976562 6.652344 8.066406 6.863281 8.25 6.96875 C 8.25 6.96875 8.933594 7.3125 8.933594 8.488281 C 8.933594 9.074219 8.746094 9.429688 8.566406 9.65625 C 8.386719 9.890625 8.25 9.957031 8.25 9.957031 C 8.09375 10.039062 7.996094 10.191406 7.988281 10.367188 C 7.984375 10.539062 8.070312 10.703125 8.21875 10.789062 C 8.367188 10.878906 8.550781 10.878906 8.703125 10.796875 C 8.703125 10.796875 9.03125 10.613281 9.316406 10.242188 C 9.605469 9.875 9.882812 9.285156 9.882812 8.488281 C 9.882812 6.894531 8.738281 6.152344 8.738281 6.152344 C 8.65625 6.101562 8.5625 6.078125 8.464844 6.082031 Z M 8.464844 6.082031 "/>
<path style=" stroke:none;fill-rule:nonzero;fill:rgb(50.196078%,50.196078%,50.196078%);fill-opacity:1;" d="M 6.5625 6.730469 C 6.332031 6.734375 6.140625 6.898438 6.097656 7.125 C 6.0625 7.347656 6.1875 7.570312 6.402344 7.652344 C 6.402344 7.652344 7.046875 7.90625 7.046875 8.5 C 7.046875 9.097656 6.421875 9.292969 6.421875 9.292969 C 6.171875 9.375 6.039062 9.644531 6.125 9.894531 C 6.207031 10.144531 6.476562 10.277344 6.726562 10.195312 C 6.726562 10.195312 8 9.75 8 8.5 C 8 7.253906 6.746094 6.765625 6.746094 6.765625 C 6.6875 6.742188 6.625 6.730469 6.5625 6.730469 Z M 6.5625 6.730469 "/>
</g>
</svg>
