<?xml version="1.0" encoding="UTF-8"?>
<svg xmlns="http://www.w3.org/2000/svg" xmlns:xlink="http://www.w3.org/1999/xlink" width="16pt" height="16pt" viewBox="0 0 16 16" version="1.1">
<g id="surface1">
<path style=" stroke:none;fill-rule:evenodd;fill:rgb(84.313725%,34.901961%,3.137255%);fill-opacity:1;" d="M 3.734375 0.949219 L 12.265625 0.949219 C 13.800781 0.949219 15.050781 2.199219 15.050781 3.734375 L 15.050781 12.265625 C 15.050781 13.800781 13.800781 15.050781 12.265625 15.050781 L 3.734375 15.050781 C 2.199219 15.050781 0.949219 13.800781 0.949219 12.265625 L 0.949219 3.734375 C 0.949219 2.199219 2.199219 0.949219 3.734375 0.949219 Z M 3.734375 0.949219 "/>
<path style=" stroke:none;fill-rule:nonzero;fill:rgb(99.607843%,78.431373%,64.313725%);fill-opacity:1;" d="M 6.667969 8.46875 C 8.15625 9.347656 8.304688 10.023438 8 10.566406 C 7.695312 11.109375 7.046875 11.3125 5.5625 10.433594 C 4.074219 9.550781 2.390625 7.769531 2.253906 7.164062 C 2.835938 6.984375 5.179688 7.585938 6.667969 8.46875 Z M 6.667969 8.46875 "/>
<path style=" stroke:none;fill-rule:nonzero;fill:rgb(98.431373%,65.098039%,43.529412%);fill-opacity:1;" d="M 7.871094 8.0625 C 8.726562 9.59375 8.53125 10.253906 8 10.566406 C 7.46875 10.878906 6.8125 10.726562 5.953125 9.199219 C 5.09375 7.671875 4.507812 5.265625 4.683594 4.671875 C 5.273438 4.8125 7.011719 6.539062 7.871094 8.0625 Z M 7.871094 8.0625 "/>
<path style=" stroke:none;fill-rule:nonzero;fill:rgb(97.254902%,52.54902%,23.137255%);fill-opacity:1;" d="M 9.105469 8.332031 C 9.105469 10.09375 8.609375 10.566406 8 10.566406 C 7.390625 10.566406 6.894531 10.09375 6.894531 8.332031 C 6.894531 6.570312 7.558594 4.183594 8 3.757812 C 8.441406 4.183594 9.105469 6.570312 9.105469 8.332031 Z M 9.105469 8.332031 "/>
<path style=" stroke:none;fill-rule:nonzero;fill:rgb(96.862745%,42.745098%,7.058824%);fill-opacity:1;" d="M 10.046875 9.199219 C 9.1875 10.726562 8.53125 10.878906 8 10.566406 C 7.46875 10.253906 7.273438 9.59375 8.128906 8.0625 C 8.988281 6.539062 10.726562 4.8125 11.316406 4.671875 C 11.492188 5.265625 10.90625 7.671875 10.046875 9.199219 Z M 10.046875 9.199219 "/>
<path style=" stroke:none;fill-rule:nonzero;fill:rgb(100%,100%,100%);fill-opacity:1;" d="M 10.4375 10.433594 C 8.953125 11.3125 8.304688 11.109375 8 10.566406 C 7.695312 10.023438 7.84375 9.347656 9.332031 8.46875 C 10.820312 7.585938 13.164062 6.984375 13.746094 7.164062 C 13.609375 7.769531 11.925781 9.550781 10.4375 10.433594 Z M 10.4375 10.433594 "/>
<path style="fill:none;stroke-width:1;stroke-linecap:round;stroke-linejoin:bevel;stroke:rgb(22.745098%,62.745098%,23.921569%);stroke-opacity:1;stroke-miterlimit:4;" d="M -59.141662 28.071201 C -60.2276 27.985264 -59.9151 26.555576 -59.907287 25.774326 " transform="matrix(0.5,0,0,0.5,37.762237,-2.043413)"/>
</g>
</svg>
