<?xml version="1.0" encoding="UTF-8"?>
<svg xmlns="http://www.w3.org/2000/svg" xmlns:xlink="http://www.w3.org/1999/xlink" width="16pt" height="16pt" viewBox="0 0 16 16" version="1.1">
<g id="surface1">
<path style=" stroke:none;fill-rule:evenodd;fill:rgb(19.607843%,61.176471%,19.607843%);fill-opacity:1;" d="M 3.734375 0.949219 L 12.265625 0.949219 C 13.800781 0.949219 15.050781 2.199219 15.050781 3.734375 L 15.050781 12.265625 C 15.050781 13.800781 13.800781 15.050781 12.265625 15.050781 L 3.734375 15.050781 C 2.199219 15.050781 0.949219 13.800781 0.949219 12.265625 L 0.949219 3.734375 C 0.949219 2.199219 2.199219 0.949219 3.734375 0.949219 Z M 3.734375 0.949219 "/>
<path style=" stroke:none;fill-rule:nonzero;fill:rgb(14.901961%,14.901961%,14.901961%);fill-opacity:1;" d="M 10.894531 5.796875 L 9.023438 6.09375 C 8.929688 5.855469 8.84375 5.691406 8.769531 5.601562 C 8.695312 5.507812 8.570312 5.414062 8.398438 5.320312 L 8.398438 6.769531 C 9.414062 7.042969 10.09375 7.328125 10.4375 7.628906 C 10.890625 8.035156 11.117188 8.550781 11.117188 9.171875 C 11.117188 9.539062 11.03125 9.875 10.871094 10.179688 C 10.707031 10.484375 10.5 10.738281 10.246094 10.941406 C 9.996094 11.144531 9.726562 11.296875 9.441406 11.390625 C 9.15625 11.480469 8.808594 11.53125 8.398438 11.550781 L 8.398438 12.5 L 7.664062 12.5 L 7.664062 11.550781 C 7.171875 11.507812 6.769531 11.429688 6.460938 11.3125 C 6.15625 11.195312 5.890625 11.035156 5.667969 10.832031 C 5.449219 10.625 5.277344 10.40625 5.15625 10.171875 C 5.035156 9.9375 4.945312 9.835938 4.882812 9.5 L 6.914062 9 C 6.976562 9.332031 7.054688 9.648438 7.15625 9.796875 C 7.261719 9.945312 7.429688 10.074219 7.664062 10.1875 L 7.664062 8.414062 C 6.984375 8.226562 6.503906 8.0625 6.21875 7.925781 C 5.9375 7.789062 5.695312 7.570312 5.488281 7.269531 C 5.28125 6.964844 5.175781 6.59375 5.175781 6.15625 C 5.175781 5.5625 5.382812 5.0625 5.796875 4.667969 C 6.21875 4.265625 6.839844 4.042969 7.664062 4 L 7.664062 3.5 L 8.398438 3.5 L 8.398438 4 C 9.148438 4.046875 9.71875 4.222656 10.117188 4.53125 C 10.515625 4.839844 10.773438 5.261719 10.894531 5.796875 Z M 7.664062 5.292969 C 7.449219 5.363281 7.300781 5.453125 7.214844 5.554688 C 7.132812 5.660156 7.089844 5.78125 7.089844 5.921875 C 7.089844 6.070312 7.132812 6.199219 7.214844 6.308594 C 7.304688 6.417969 7.453125 6.507812 7.664062 6.578125 Z M 8.398438 10.238281 C 8.683594 10.175781 8.890625 10.070312 9.019531 9.925781 C 9.15625 9.78125 9.21875 9.617188 9.21875 9.433594 C 9.21875 9.277344 9.164062 9.132812 9.050781 9 C 8.9375 8.867188 8.722656 8.746094 8.398438 8.628906 Z M 8.398438 10.238281 "/>
</g>
</svg>
