<?xml version="1.0" encoding="UTF-8"?>
<svg xmlns="http://www.w3.org/2000/svg" xmlns:xlink="http://www.w3.org/1999/xlink" width="16pt" height="16pt" viewBox="0 0 16 16" version="1.1">
<g id="surface1">
<path style=" stroke:none;fill-rule:evenodd;fill:rgb(100%,48.627451%,25.098039%);fill-opacity:1;" d="M 3.734375 0.949219 L 12.265625 0.949219 C 13.800781 0.949219 15.050781 2.199219 15.050781 3.734375 L 15.050781 12.265625 C 15.050781 13.800781 13.800781 15.050781 12.265625 15.050781 L 3.734375 15.050781 C 2.199219 15.050781 0.949219 13.800781 0.949219 12.265625 L 0.949219 3.734375 C 0.949219 2.199219 2.199219 0.949219 3.734375 0.949219 Z M 3.734375 0.949219 "/>
<path style=" stroke:none;fill-rule:nonzero;fill:rgb(84.313725%,36.862745%,19.607843%);fill-opacity:1;" d="M 9.5 4 C 7.84375 4 6.5 4.449219 6.5 5 C 6.5 5.550781 7.84375 6 9.5 6 C 11.15625 6 12.5 5.550781 12.5 5 C 12.5 4.449219 11.15625 4 9.5 4 Z M 12.402344 5.75 C 12.0625 6.191406 10.867188 6.5 9.5 6.5 C 8.132812 6.5 6.941406 6.191406 6.597656 5.75 C 6.535156 5.832031 6.5 5.917969 6.5 6 C 6.5 6.550781 7.84375 7 9.5 7 C 11.15625 7 12.5 6.550781 12.5 6 C 12.5 5.914062 12.464844 5.832031 12.402344 5.75 Z M 12.402344 6.75 C 12.0625 7.191406 10.867188 7.5 9.5 7.5 C 8.132812 7.5 6.941406 7.191406 6.597656 6.75 C 6.535156 6.832031 6.5 6.917969 6.5 7 C 6.5 7.183594 6.652344 7.359375 6.933594 7.515625 C 7.84375 7.558594 8.613281 7.734375 9.066406 7.988281 C 9.210938 7.996094 9.355469 8 9.5 8 C 11.15625 8 12.5 7.550781 12.5 7 C 12.5 6.914062 12.464844 6.832031 12.402344 6.75 Z M 12.402344 7.75 C 12.0625 8.191406 10.867188 8.5 9.5 8.5 C 9.5 8.5 9.5 8.863281 9.5 9 C 11.15625 9 12.5 8.550781 12.5 8 C 12.5 7.914062 12.464844 7.832031 12.402344 7.75 Z M 12.402344 8.75 C 12.0625 9.191406 10.867188 9.5 9.5 9.5 C 9.5 9.71875 9.5 9.753906 9.5 10 C 11.15625 10 12.5 9.550781 12.5 9 C 12.5 8.914062 12.464844 8.832031 12.402344 8.75 Z M 12.402344 9.75 C 12.0625 10.191406 10.867188 10.5 9.5 10.5 C 9.5 10.722656 9.5 10.855469 9.5 11 C 11.15625 11 12.5 10.550781 12.5 10 C 12.5 9.914062 12.464844 9.832031 12.402344 9.75 Z M 12.402344 10.75 C 12.0625 11.191406 10.867188 11.5 9.5 11.5 C 9.5 11.679688 9.347656 11.84375 9.101562 11.988281 C 9.234375 11.996094 9.367188 12 9.5 12 C 11.15625 12 12.5 11.550781 12.5 11 C 12.5 10.914062 12.464844 10.832031 12.402344 10.75 Z M 12.402344 10.75 "/>
<path style=" stroke:none;fill-rule:nonzero;fill:rgb(100%,84.705882%,77.647059%);fill-opacity:1;" d="M 9.5 3.5 C 7.84375 3.5 6.5 3.949219 6.5 4.5 C 6.5 5.050781 7.84375 5.5 9.5 5.5 C 11.15625 5.5 12.5 5.050781 12.5 4.5 C 12.5 3.949219 11.15625 3.5 9.5 3.5 Z M 12.402344 5.25 C 12.0625 5.691406 10.867188 6 9.5 6 C 8.132812 6 6.941406 5.691406 6.597656 5.25 C 6.535156 5.332031 6.5 5.417969 6.5 5.5 C 6.5 6.050781 7.84375 6.5 9.5 6.5 C 11.15625 6.5 12.5 6.050781 12.5 5.5 C 12.5 5.414062 12.464844 5.332031 12.402344 5.25 Z M 12.402344 6.25 C 12.0625 6.691406 10.867188 7 9.5 7 C 8.132812 7 6.941406 6.691406 6.597656 6.25 C 6.535156 6.332031 6.5 6.417969 6.5 6.5 C 6.5 6.683594 6.652344 6.859375 6.933594 7.015625 C 7.84375 7.058594 8.613281 7.234375 9.066406 7.488281 C 9.210938 7.496094 9.355469 7.5 9.5 7.5 C 11.15625 7.5 12.5 7.050781 12.5 6.5 C 12.5 6.414062 12.464844 6.332031 12.402344 6.25 Z M 12.402344 7.25 C 12.0625 7.691406 10.867188 8 9.5 8 C 9.5 8 9.5 8.363281 9.5 8.5 C 11.15625 8.5 12.5 8.050781 12.5 7.5 C 12.5 7.414062 12.464844 7.332031 12.402344 7.25 Z M 12.402344 8.25 C 12.0625 8.691406 10.867188 9 9.5 9 C 9.5 9.21875 9.5 9.253906 9.5 9.5 C 11.15625 9.5 12.5 9.050781 12.5 8.5 C 12.5 8.414062 12.464844 8.332031 12.402344 8.25 Z M 12.402344 9.25 C 12.0625 9.691406 10.867188 10 9.5 10 C 9.5 10.222656 9.5 10.355469 9.5 10.5 C 11.15625 10.5 12.5 10.050781 12.5 9.5 C 12.5 9.414062 12.464844 9.332031 12.402344 9.25 Z M 12.402344 10.25 C 12.0625 10.691406 10.867188 11 9.5 11 C 9.5 11.179688 9.347656 11.34375 9.101562 11.488281 C 9.234375 11.496094 9.367188 11.5 9.5 11.5 C 11.15625 11.5 12.5 11.050781 12.5 10.5 C 12.5 10.414062 12.464844 10.332031 12.402344 10.25 Z M 12.402344 10.25 "/>
<path style=" stroke:none;fill-rule:nonzero;fill:rgb(84.313725%,36.862745%,19.607843%);fill-opacity:1;" d="M 6.5 7.5 C 4.84375 7.5 3.5 7.949219 3.5 8.5 C 3.5 9.050781 4.84375 9.5 6.5 9.5 C 8.15625 9.5 9.5 9.050781 9.5 8.5 C 9.5 7.949219 8.15625 7.5 6.5 7.5 Z M 9.402344 9.25 C 9.0625 9.691406 7.867188 10 6.5 10 C 5.132812 10 3.941406 9.691406 3.597656 9.25 C 3.535156 9.332031 3.5 9.417969 3.5 9.5 C 3.5 10.050781 4.84375 10.5 6.5 10.5 C 8.15625 10.5 9.5 10.050781 9.5 9.5 C 9.5 9.414062 9.464844 9.332031 9.402344 9.25 Z M 9.402344 10.25 C 9.0625 10.691406 7.867188 11 6.5 11 C 5.132812 11 3.941406 10.691406 3.597656 10.25 C 3.535156 10.332031 3.5 10.417969 3.5 10.5 C 3.5 11.050781 4.84375 11.5 6.5 11.5 C 8.15625 11.5 9.5 11.050781 9.5 10.5 C 9.5 10.414062 9.464844 10.332031 9.402344 10.25 Z M 9.402344 11.25 C 9.0625 11.691406 7.867188 12 6.5 12 C 5.132812 12 3.941406 11.691406 3.597656 11.25 C 3.535156 11.332031 3.5 11.417969 3.5 11.5 C 3.5 12.050781 4.84375 12.5 6.5 12.5 C 8.15625 12.5 9.5 12.050781 9.5 11.5 C 9.5 11.414062 9.464844 11.332031 9.402344 11.25 Z M 9.402344 11.25 "/>
<path style=" stroke:none;fill-rule:nonzero;fill:rgb(100%,100%,100%);fill-opacity:1;" d="M 6.5 7 C 4.84375 7 3.5 7.449219 3.5 8 C 3.5 8.550781 4.84375 9 6.5 9 C 8.15625 9 9.5 8.550781 9.5 8 C 9.5 7.449219 8.15625 7 6.5 7 Z M 9.402344 8.75 C 9.0625 9.191406 7.867188 9.5 6.5 9.5 C 5.132812 9.5 3.941406 9.191406 3.597656 8.75 C 3.535156 8.832031 3.5 8.917969 3.5 9 C 3.5 9.550781 4.84375 10 6.5 10 C 8.15625 10 9.5 9.550781 9.5 9 C 9.5 8.914062 9.464844 8.832031 9.402344 8.75 Z M 9.402344 9.75 C 9.0625 10.191406 7.867188 10.5 6.5 10.5 C 5.132812 10.5 3.941406 10.191406 3.597656 9.75 C 3.535156 9.832031 3.5 9.917969 3.5 10 C 3.5 10.550781 4.84375 11 6.5 11 C 8.15625 11 9.5 10.550781 9.5 10 C 9.5 9.914062 9.464844 9.832031 9.402344 9.75 Z M 9.402344 10.75 C 9.0625 11.191406 7.867188 11.5 6.5 11.5 C 5.132812 11.5 3.941406 11.191406 3.597656 10.75 C 3.535156 10.832031 3.5 10.917969 3.5 11 C 3.5 11.550781 4.84375 12 6.5 12 C 8.15625 12 9.5 11.550781 9.5 11 C 9.5 10.914062 9.464844 10.832031 9.402344 10.75 Z M 9.402344 10.75 "/>
</g>
</svg>
