<?xml version="1.0" encoding="UTF-8"?>
<svg xmlns="http://www.w3.org/2000/svg" xmlns:xlink="http://www.w3.org/1999/xlink" width="16pt" height="16pt" viewBox="0 0 16 16" version="1.1">
<g id="surface1">
<path style=" stroke:none;fill-rule:evenodd;fill:rgb(87.058824%,33.333333%,29.803922%);fill-opacity:1;" d="M 3.734375 0.949219 L 12.265625 0.949219 C 13.800781 0.949219 15.050781 2.199219 15.050781 3.734375 L 15.050781 12.265625 C 15.050781 13.800781 13.800781 15.050781 12.265625 15.050781 L 3.734375 15.050781 C 2.199219 15.050781 0.949219 13.800781 0.949219 12.265625 L 0.949219 3.734375 C 0.949219 2.199219 2.199219 0.949219 3.734375 0.949219 Z M 3.734375 0.949219 "/>
<path style=" stroke:none;fill-rule:nonzero;fill:rgb(100%,100%,100%);fill-opacity:1;" d="M 4.734375 3.75 C 4.332031 3.761719 4.011719 4.09375 4.011719 4.5 L 4.011719 7.878906 C 3.996094 7.960938 3.996094 8.042969 4.011719 8.125 L 4.011719 11.5 C 4.007812 11.769531 4.148438 12.019531 4.382812 12.15625 C 4.617188 12.292969 4.90625 12.292969 5.140625 12.15625 C 5.371094 12.019531 5.515625 11.769531 5.511719 11.5 L 5.511719 8.71875 C 6.035156 8.726562 6.792969 8.765625 8.097656 8.613281 C 8.945312 8.515625 9.804688 8.359375 10.53125 8.054688 C 10.894531 7.902344 11.234375 7.710938 11.515625 7.421875 C 11.792969 7.132812 12.003906 6.707031 12 6.253906 C 11.996094 5.800781 11.785156 5.378906 11.503906 5.09375 C 11.222656 4.804688 10.886719 4.613281 10.519531 4.460938 C 9.792969 4.152344 8.9375 3.996094 8.089844 3.894531 C 6.394531 3.691406 4.734375 3.75 4.734375 3.75 Z M 5.511719 5.277344 C 6.007812 5.273438 6.722656 5.242188 7.910156 5.382812 C 8.683594 5.476562 9.445312 5.632812 9.9375 5.84375 C 10.183594 5.945312 10.351562 6.0625 10.429688 6.140625 C 10.503906 6.21875 10.5 6.222656 10.5 6.265625 C 10.5 6.304688 10.507812 6.300781 10.4375 6.378906 C 10.363281 6.453125 10.195312 6.566406 9.953125 6.671875 C 9.464844 6.875 8.699219 7.03125 7.921875 7.125 C 6.734375 7.261719 6.007812 7.226562 5.511719 7.21875 Z M 5.511719 5.277344 "/>
</g>
</svg>
