<?xml version="1.0" encoding="UTF-8"?>
<svg xmlns="http://www.w3.org/2000/svg" xmlns:xlink="http://www.w3.org/1999/xlink" width="16pt" height="16pt" viewBox="0 0 16 16" version="1.1">
<g id="surface1">
<path style=" stroke:none;fill-rule:evenodd;fill:rgb(30.980392%,30.980392%,30.980392%);fill-opacity:1;" d="M 3.734375 0.949219 L 12.265625 0.949219 C 13.800781 0.949219 15.050781 2.199219 15.050781 3.734375 L 15.050781 12.265625 C 15.050781 13.800781 13.800781 15.050781 12.265625 15.050781 L 3.734375 15.050781 C 2.199219 15.050781 0.949219 13.800781 0.949219 12.265625 L 0.949219 3.734375 C 0.949219 2.199219 2.199219 0.949219 3.734375 0.949219 Z M 3.734375 0.949219 "/>
<path style=" stroke:none;fill-rule:nonzero;fill:rgb(97.647059%,97.647059%,97.647059%);fill-opacity:1;" d="M 8 3.203125 C 6.789062 3.203125 5.6875 3.578125 4.871094 4.214844 C 4.058594 4.847656 3.527344 5.757812 3.527344 6.765625 L 3.527344 7.132812 C 2.71875 7.542969 2.15625 8.617188 2.15625 9.875 C 2.15625 11.488281 3.074219 12.796875 4.257812 12.796875 L 4.257812 6.765625 C 4.257812 6.011719 4.648438 5.3125 5.320312 4.789062 C 5.992188 4.265625 6.941406 3.933594 8 3.933594 C 9.058594 3.933594 10.007812 4.265625 10.679688 4.789062 C 11.351562 5.3125 11.742188 6.011719 11.742188 6.765625 L 11.742188 12.378906 L 11.46875 12.378906 L 11.46875 7.046875 C 11.285156 7.046875 11.105469 7.140625 11.011719 7.230469 L 11.011719 12.378906 L 9.972656 12.378906 C 10.042969 12.257812 10.085938 12.117188 10.085938 11.964844 L 10.085938 11.546875 C 10.085938 11.082031 9.714844 10.710938 9.25 10.710938 L 7.582031 10.710938 C 7.121094 10.710938 6.75 11.082031 6.75 11.546875 L 6.75 11.964844 C 6.75 12.425781 7.121094 12.796875 7.582031 12.796875 L 11.753906 12.796875 C 12.933594 12.789062 13.84375 11.484375 13.84375 9.875 C 13.84375 8.617188 13.28125 7.542969 12.472656 7.132812 L 12.472656 6.765625 C 12.472656 5.757812 11.941406 4.847656 11.128906 4.214844 C 10.3125 3.578125 9.210938 3.203125 8 3.203125 Z M 4.53125 7.046875 L 4.53125 12.796875 C 4.714844 12.796875 4.894531 12.707031 4.988281 12.523438 L 4.988281 7.230469 C 4.894531 7.140625 4.714844 7.046875 4.53125 7.046875 Z M 4.53125 7.046875 "/>
</g>
</svg>
