<?xml version="1.0" encoding="UTF-8"?>
<svg xmlns="http://www.w3.org/2000/svg" xmlns:xlink="http://www.w3.org/1999/xlink" width="16pt" height="16pt" viewBox="0 0 16 16" version="1.1">
<g id="surface1">
<path style=" stroke:none;fill-rule:evenodd;fill:rgb(100%,72.941176%,34.509804%);fill-opacity:1;" d="M 7.945312 15.050781 L 12.265625 15.050781 C 13.808594 15.050781 15.050781 13.808594 15.050781 12.261719 L 15.050781 3.734375 C 15.050781 2.191406 13.808594 0.949219 12.265625 0.949219 L 7.945312 0.949219 Z M 7.945312 15.050781 "/>
<path style=" stroke:none;fill-rule:evenodd;fill:rgb(45.098039%,42.745098%,67.058824%);fill-opacity:1;" d="M 7.945312 15.050781 L 7.945312 0.949219 L 3.738281 0.949219 C 2.191406 0.949219 0.949219 2.191406 0.949219 3.734375 L 0.949219 12.261719 C 0.949219 13.808594 2.191406 15.050781 3.738281 15.050781 Z M 7.945312 15.050781 "/>
<path style=" stroke:none;fill-rule:nonzero;fill:rgb(100%,100%,100%);fill-opacity:1;" d="M 13 8 C 13 10.761719 10.761719 13 8 13 C 5.238281 13 3 10.761719 3 8 C 3 5.238281 5.238281 3 8 3 C 10.761719 3 13 5.238281 13 8 Z M 13 8 "/>
<path style=" stroke:none;fill-rule:nonzero;fill:rgb(20%,20%,20%);fill-opacity:1;" d="M 6.75 5 L 6.75 8.527344 C 6.667969 8.507812 6.582031 8.5 6.5 8.5 C 5.808594 8.5 5.25 9.058594 5.25 9.75 C 5.25 10.441406 5.808594 11 6.5 11 C 7.191406 11 7.75 10.441406 7.75 9.75 L 7.75 6 L 9.75 6 L 9.75 7.527344 C 9.667969 7.507812 9.582031 7.5 9.5 7.5 C 8.808594 7.5 8.25 8.058594 8.25 8.75 C 8.25 9.441406 8.808594 10 9.5 10 C 10.191406 10 10.75 9.441406 10.75 8.75 L 10.75 5 Z M 6.75 5 "/>
</g>
</svg>
