<?xml version="1.0" encoding="UTF-8"?>
<svg xmlns="http://www.w3.org/2000/svg" xmlns:xlink="http://www.w3.org/1999/xlink" width="16pt" height="16pt" viewBox="0 0 16 16" version="1.1">
<g id="surface1">
<path style=" stroke:none;fill-rule:evenodd;fill:rgb(30.980392%,30.980392%,30.980392%);fill-opacity:1;" d="M 3.734375 0.949219 L 12.265625 0.949219 C 13.800781 0.949219 15.050781 2.199219 15.050781 3.734375 L 15.050781 12.265625 C 15.050781 13.800781 13.800781 15.050781 12.265625 15.050781 L 3.734375 15.050781 C 2.199219 15.050781 0.949219 13.800781 0.949219 12.265625 L 0.949219 3.734375 C 0.949219 2.199219 2.199219 0.949219 3.734375 0.949219 Z M 3.734375 0.949219 "/>
<path style=" stroke:none;fill-rule:nonzero;fill:rgb(100%,100%,100%);fill-opacity:1;" d="M 7.25 2.25 L 7.25 4.75 L 8.75 4.75 L 8.75 2.25 Z M 7.25 6.75 L 7.25 9.25 L 8.75 9.25 L 8.75 6.75 Z M 7.25 11.25 L 7.25 13.75 L 8.75 13.75 L 8.75 11.25 Z M 7.25 11.25 "/>
<path style=" stroke:none;fill-rule:evenodd;fill:rgb(24.705882%,54.901961%,90.196078%);fill-opacity:1;" d="M 14.375 11.230469 C 14.375 12.886719 13.03125 14.230469 11.375 14.230469 C 9.71875 14.230469 8.375 12.886719 8.375 11.230469 C 8.375 9.574219 9.71875 8.230469 11.375 8.230469 C 13.03125 8.230469 14.375 9.574219 14.375 11.230469 Z M 14.375 11.230469 "/>
<path style=" stroke:none;fill-rule:nonzero;fill:rgb(100%,100%,100%);fill-opacity:1;" d="M 11 8.605469 L 11 9.394531 C 10.265625 9.546875 9.6875 10.121094 9.539062 10.855469 L 8.75 10.855469 L 8.75 11.605469 L 9.539062 11.605469 C 9.6875 12.34375 10.265625 12.917969 11 13.066406 L 11 13.855469 L 11.75 13.855469 L 11.75 13.066406 C 12.484375 12.917969 13.0625 12.34375 13.210938 11.605469 L 14 11.605469 L 14 10.855469 L 13.210938 10.855469 C 13.0625 10.121094 12.484375 9.546875 11.75 9.394531 L 11.75 8.605469 Z M 11.375 10.480469 C 11.789062 10.480469 12.125 10.816406 12.125 11.230469 C 12.125 11.644531 11.789062 11.980469 11.375 11.980469 C 10.960938 11.980469 10.625 11.644531 10.625 11.230469 C 10.625 10.816406 10.960938 10.480469 11.375 10.480469 Z M 11.375 10.480469 "/>
</g>
</svg>
