<?xml version="1.0" encoding="UTF-8"?>
<svg xmlns="http://www.w3.org/2000/svg" xmlns:xlink="http://www.w3.org/1999/xlink" width="16pt" height="16pt" viewBox="0 0 16 16" version="1.1">
<g id="surface1">
<path style=" stroke:none;fill-rule:evenodd;fill:rgb(25.098039%,62.745098%,0%);fill-opacity:1;" d="M 3.734375 0.949219 L 12.265625 0.949219 C 13.800781 0.949219 15.050781 2.199219 15.050781 3.734375 L 15.050781 12.265625 C 15.050781 13.800781 13.800781 15.050781 12.265625 15.050781 L 3.734375 15.050781 C 2.199219 15.050781 0.949219 13.800781 0.949219 12.265625 L 0.949219 3.734375 C 0.949219 2.199219 2.199219 0.949219 3.734375 0.949219 Z M 3.734375 0.949219 "/>
<path style=" stroke:none;fill-rule:nonzero;fill:rgb(100%,100%,100%);fill-opacity:1;" d="M 8.304688 6.832031 C 7.367188 6.78125 6.296875 6.9375 5.589844 7.5 C 4.449219 8.417969 3.914062 9.785156 4.515625 11.375 C 4.6875 11.839844 5.34375 12.25 5.953125 12.585938 C 8.496094 13.539062 10.996094 12.457031 12.375 10.789062 C 12.851562 10.203125 12.558594 9.53125 12.273438 9.144531 C 11.421875 7.96875 10.324219 6.9375 8.304688 6.832031 Z M 7.898438 3.058594 C 6.328125 3.042969 4.730469 3.921875 3.9375 4.964844 C 3.285156 5.816406 2.785156 6.679688 2.679688 7.714844 C 2.707031 8.300781 3.007812 8.695312 3.6875 8.722656 C 3.875 8.734375 4.058594 8.734375 4.246094 8.738281 C 4.46875 8.164062 4.832031 7.609375 5.367188 7.242188 C 6.199219 6.675781 7.289062 6.472656 8.285156 6.515625 C 8.449219 6.519531 8.613281 6.535156 8.773438 6.554688 C 8.882812 5.742188 9.03125 4.925781 9 4.097656 C 8.972656 3.4375 8.386719 3.074219 7.898438 3.058594 Z M 11.035156 4.253906 C 10.589844 5.136719 10.097656 5.9375 9.617188 6.738281 C 10.765625 7.097656 11.789062 7.90625 12.503906 9.015625 C 12.570312 9.121094 12.625 9.21875 12.667969 9.3125 C 12.992188 9.265625 13.171875 8.96875 13.222656 8.632812 C 13.578125 6.296875 12.921875 5.121094 12.074219 4.160156 C 11.679688 3.71875 11.332031 3.679688 11.035156 4.253906 Z M 11.035156 4.253906 "/>
</g>
</svg>
