<?xml version="1.0" encoding="UTF-8"?>
<svg xmlns="http://www.w3.org/2000/svg" xmlns:xlink="http://www.w3.org/1999/xlink" width="16pt" height="16pt" viewBox="0 0 16 16" version="1.1">
<g id="surface1">
<path style=" stroke:none;fill-rule:evenodd;fill:rgb(89.019608%,18.039216%,18.039216%);fill-opacity:1;" d="M 3.734375 0.949219 L 12.265625 0.949219 C 13.800781 0.949219 15.050781 2.199219 15.050781 3.734375 L 15.050781 12.265625 C 15.050781 13.800781 13.800781 15.050781 12.265625 15.050781 L 3.734375 15.050781 C 2.199219 15.050781 0.949219 13.800781 0.949219 12.265625 L 0.949219 3.734375 C 0.949219 2.199219 2.199219 0.949219 3.734375 0.949219 Z M 3.734375 0.949219 "/>
<path style="fill:none;stroke-width:3;stroke-linecap:round;stroke-linejoin:round;stroke:rgb(100%,100%,100%);stroke-opacity:1;stroke-miterlimit:4;" d="M 13.171875 8.460938 C 8.226562 10.75 6.90625 14.484375 7.78125 18.320312 C 9.773438 27.0625 16.539062 25.40625 17.71875 25.210938 C 19.664062 24.882812 23.5625 23.953125 24.34375 19.09375 C 25.148438 14.125 21.90625 12.15625 19.953125 11.71875 C 17.5 11.179688 15.484375 11.523438 14.375 13.257812 C 13.335938 14.859375 13.25 16.84375 13.90625 18.179688 C 14.5 19.390625 15.054688 19.4375 15.976562 19.460938 C 19.15625 19.53125 19.59375 18.070312 19.242188 16.210938 C 18.4375 12.242188 16.585938 11.125 17.21875 8.0625 C 17.875 5.992188 20.023438 6.28125 21.46875 7.460938 " transform="matrix(0.5,0,0,0.5,0,0)"/>
</g>
</svg>
