<?xml version="1.0" encoding="UTF-8"?>
<svg xmlns="http://www.w3.org/2000/svg" xmlns:xlink="http://www.w3.org/1999/xlink" width="16pt" height="16pt" viewBox="0 0 16 16" version="1.1">
<g id="surface1">
<path style=" stroke:none;fill-rule:evenodd;fill:rgb(0.784314%,52.54902%,76.078431%);fill-opacity:1;" d="M 3.734375 0.949219 L 12.265625 0.949219 C 13.800781 0.949219 15.050781 2.199219 15.050781 3.734375 L 15.050781 12.265625 C 15.050781 13.800781 13.800781 15.050781 12.265625 15.050781 L 3.734375 15.050781 C 2.199219 15.050781 0.949219 13.800781 0.949219 12.265625 L 0.949219 3.734375 C 0.949219 2.199219 2.199219 0.949219 3.734375 0.949219 Z M 3.734375 0.949219 "/>
<path style=" stroke:none;fill-rule:nonzero;fill:rgb(100%,100%,100%);fill-opacity:1;" d="M 8 6 C 6.894531 6 6 6.894531 6 8 C 6 9.105469 6.894531 10 8 10 C 9.105469 10 10 9.105469 10 8 C 10 6.894531 9.105469 6 8 6 Z M 10 8 C 10 8.828125 10.671875 9.5 11.5 9.5 C 12.328125 9.5 13 8.828125 13 8 C 13 7.171875 12.328125 6.5 11.5 6.5 C 10.671875 6.5 10 7.171875 10 8 Z M 6 8 C 6 7.171875 5.328125 6.5 4.5 6.5 C 3.671875 6.5 3 7.171875 3 8 C 3 8.828125 3.671875 9.5 4.5 9.5 C 5.328125 9.5 6 8.828125 6 8 Z M 8 7 C 8.550781 7 9 7.449219 9 8 C 9 8.550781 8.550781 9 8 9 C 7.449219 9 7 8.550781 7 8 C 7 7.449219 7.449219 7 8 7 Z M 4.5 7.5 C 4.777344 7.5 5 7.722656 5 8 C 5 8.277344 4.777344 8.5 4.5 8.5 C 4.222656 8.5 4 8.277344 4 8 C 4 7.722656 4.222656 7.5 4.5 7.5 Z M 11.5 7.5 C 11.777344 7.5 12 7.722656 12 8 C 12 8.277344 11.777344 8.5 11.5 8.5 C 11.222656 8.5 11 8.277344 11 8 C 11 7.722656 11.222656 7.5 11.5 7.5 Z M 11.5 7.5 "/>
</g>
</svg>
