<?xml version="1.0" encoding="UTF-8"?>
<svg xmlns="http://www.w3.org/2000/svg" xmlns:xlink="http://www.w3.org/1999/xlink" width="16pt" height="16pt" viewBox="0 0 16 16" version="1.1">
<g id="surface1">
<path style=" stroke:none;fill-rule:evenodd;fill:rgb(28.627451%,40%,100%);fill-opacity:1;" d="M 3.734375 0.871094 L 12.265625 0.871094 C 13.800781 0.871094 15.050781 2.117188 15.050781 3.65625 L 15.050781 12.183594 C 15.050781 13.722656 13.800781 14.96875 12.265625 14.96875 L 3.734375 14.96875 C 2.199219 14.96875 0.949219 13.722656 0.949219 12.183594 L 0.949219 3.65625 C 0.949219 2.117188 2.199219 0.871094 3.734375 0.871094 Z M 3.734375 0.871094 "/>
<path style=" stroke:none;fill-rule:evenodd;fill:rgb(9.803922%,75.686275%,44.313725%);fill-opacity:1;" d="M 15.050781 10.007812 C 14.878906 10.136719 14.515625 10.410156 13.851562 10.8125 C 13.449219 11.054688 13.007812 11.300781 12.582031 11.484375 C 12.160156 11.667969 11.757812 11.789062 11.4375 11.789062 C 11.113281 11.789062 10.710938 11.652344 10.261719 11.453125 C 9.8125 11.25 9.316406 10.976562 8.804688 10.707031 C 8.296875 10.4375 7.773438 10.167969 7.269531 9.964844 C 6.765625 9.761719 6.28125 9.628906 5.851562 9.628906 C 5.421875 9.628906 5.019531 9.761719 4.644531 9.964844 C 4.265625 10.167969 3.917969 10.4375 3.597656 10.707031 C 3.273438 10.976562 2.980469 11.25 2.710938 11.453125 C 2.441406 11.652344 2.203125 11.789062 1.984375 11.789062 C 1.769531 11.789062 1.582031 11.667969 1.421875 11.484375 C 1.261719 11.300781 1.125 11.054688 1.019531 10.8125 C 0.972656 10.707031 0.984375 10.703125 0.949219 10.597656 L 0.949219 12.398438 C 0.949219 13.941406 2.191406 15.1875 3.734375 15.1875 L 12.265625 15.1875 C 13.808594 15.1875 15.050781 13.941406 15.050781 12.398438 Z M 15.050781 10.007812 "/>
<path style=" stroke:none;fill-rule:evenodd;fill:rgb(28.627451%,28.627451%,28.627451%);fill-opacity:1;" d="M 3.734375 0.8125 C 2.191406 0.8125 0.949219 2.058594 0.949219 3.601562 L 0.949219 7.359375 C 1.078125 7.203125 1.175781 7.050781 1.558594 6.746094 C 1.824219 6.527344 2.148438 6.308594 2.511719 6.144531 C 2.871094 5.980469 3.273438 5.871094 3.703125 5.871094 C 4.132812 5.871094 4.539062 5.960938 4.933594 6.09375 C 5.328125 6.230469 5.707031 6.40625 6.085938 6.582031 C 6.464844 6.761719 6.84375 6.933594 7.230469 7.0625 C 7.617188 7.191406 8.015625 7.277344 8.429688 7.265625 C 8.636719 7.261719 8.839844 7.203125 9.039062 7.105469 C 9.238281 7.007812 9.433594 6.871094 9.621094 6.707031 C 10 6.378906 10.367188 5.945312 10.71875 5.511719 C 11.070312 5.078125 11.410156 4.644531 11.746094 4.320312 C 12.078125 3.996094 12.402344 3.78125 12.726562 3.78125 C 13.371094 3.78125 14.015625 4.007812 14.496094 4.234375 C 14.828125 4.390625 14.921875 4.464844 15.050781 4.546875 L 15.050781 3.601562 C 15.050781 2.058594 13.808594 0.8125 12.265625 0.8125 Z M 3.734375 0.8125 "/>
</g>
</svg>
