<?xml version="1.0" encoding="UTF-8"?>
<svg xmlns="http://www.w3.org/2000/svg" xmlns:xlink="http://www.w3.org/1999/xlink" width="16pt" height="16pt" viewBox="0 0 16 16" version="1.1">
<g id="surface1">
<path style=" stroke:none;fill-rule:evenodd;fill:rgb(80%,80%,80%);fill-opacity:1;" d="M 3.734375 0.949219 L 12.265625 0.949219 C 13.800781 0.949219 15.050781 2.199219 15.050781 3.734375 L 15.050781 12.265625 C 15.050781 13.800781 13.800781 15.050781 12.265625 15.050781 L 3.734375 15.050781 C 2.199219 15.050781 0.949219 13.800781 0.949219 12.265625 L 0.949219 3.734375 C 0.949219 2.199219 2.199219 0.949219 3.734375 0.949219 Z M 3.734375 0.949219 "/>
<path style=" stroke:none;fill-rule:nonzero;fill:rgb(29.019608%,38.039216%,80%);fill-opacity:1;" d="M 2.488281 5.046875 C 2.273438 5.046875 2.078125 5.167969 1.976562 5.359375 C 1.875 5.550781 1.890625 5.78125 2.007812 5.957031 C 2.128906 6.136719 2.335938 6.238281 2.550781 6.21875 C 4.441406 6.117188 5.296875 6.78125 6.011719 7.695312 C 6.722656 8.609375 7.152344 9.828125 8.054688 10.667969 C 8.78125 11.34375 9.828125 11.765625 10.851562 12.054688 C 11.875 12.34375 12.847656 12.492188 13.496094 12.492188 C 13.707031 12.492188 13.902344 12.382812 14.011719 12.199219 C 14.117188 12.015625 14.117188 11.789062 14.011719 11.605469 C 13.902344 11.421875 13.707031 11.3125 13.496094 11.3125 C 13.042969 11.3125 12.097656 11.1875 11.171875 10.921875 C 10.25 10.660156 9.328125 10.246094 8.859375 9.808594 C 8.28125 9.269531 7.796875 8.070312 6.9375 6.972656 C 6.082031 5.875 4.710938 4.925781 2.488281 5.046875 Z M 2.488281 5.046875 "/>
<path style=" stroke:none;fill-rule:nonzero;fill:rgb(90.980392%,26.27451%,26.27451%);fill-opacity:1;" d="M 9.8125 3.515625 C 9.230469 3.457031 8.785156 3.765625 8.515625 4.019531 C 8.382812 4.148438 8.28125 4.273438 8.214844 4.371094 C 8.179688 4.417969 8.152344 4.460938 8.128906 4.492188 C 8.125 4.5 8.125 4.503906 8.121094 4.507812 L 7.734375 4.992188 C 7.621094 5.128906 7.578125 5.308594 7.609375 5.484375 C 7.648438 5.65625 7.757812 5.804688 7.914062 5.886719 C 7.839844 5.992188 7.765625 6.09375 7.722656 6.265625 C 7.550781 7.023438 7.90625 7.691406 8.335938 8.152344 C 8.644531 8.484375 9.027344 8.640625 9.375 8.765625 C 9.546875 8.828125 9.710938 8.875 9.855469 8.910156 C 10 8.941406 10.074219 8.972656 10.285156 8.957031 C 10.910156 8.914062 11.40625 8.71875 11.769531 8.425781 C 12.132812 8.128906 12.34375 7.761719 12.5 7.4375 C 12.828125 6.765625 12.628906 6.101562 12.480469 5.625 C 12.476562 5.617188 12.472656 5.605469 12.46875 5.59375 C 11.980469 4.3125 10.808594 3.632812 9.816406 3.519531 C 9.816406 3.515625 9.8125 3.515625 9.8125 3.515625 Z M 9.6875 4.6875 C 10.203125 4.75 11.054688 5.222656 11.359375 5.996094 C 11.480469 6.390625 11.515625 6.769531 11.445312 6.921875 C 11.3125 7.1875 11.191406 7.378906 11.027344 7.515625 C 10.863281 7.644531 10.640625 7.753906 10.199219 7.785156 C 10.324219 7.777344 10.210938 7.785156 10.121094 7.761719 C 10.027344 7.742188 9.902344 7.703125 9.773438 7.660156 C 9.515625 7.566406 9.25 7.40625 9.191406 7.347656 C 8.972656 7.109375 8.828125 6.703125 8.871094 6.53125 C 8.832031 6.6875 8.90625 6.507812 9.035156 6.40625 C 9.160156 6.304688 9.285156 6.230469 9.285156 6.230469 C 9.5 6.109375 9.613281 5.871094 9.574219 5.625 C 9.535156 5.386719 9.351562 5.195312 9.109375 5.144531 C 9.125 5.121094 9.140625 5.09375 9.152344 5.066406 C 9.148438 5.070312 9.144531 5.078125 9.144531 5.078125 C 9.136719 5.101562 9.132812 5.109375 9.128906 5.113281 C 9.125 5.117188 9.125 5.117188 9.125 5.121094 C 9.132812 5.109375 9.148438 5.085938 9.167969 5.0625 C 9.203125 5.007812 9.265625 4.933594 9.332031 4.871094 C 9.464844 4.742188 9.59375 4.679688 9.6875 4.6875 Z M 9.195312 4.863281 C 9.195312 4.863281 9.195312 4.871094 9.195312 4.871094 C 9.195312 4.867188 9.195312 4.863281 9.195312 4.863281 Z M 9.171875 5.007812 C 9.171875 5.007812 9.171875 5.011719 9.171875 5.011719 C 9.171875 5.011719 9.167969 5.027344 9.164062 5.03125 C 9.167969 5.023438 9.167969 5.015625 9.171875 5.007812 Z M 9.171875 5.007812 "/>
</g>
</svg>
