<?xml version="1.0" encoding="UTF-8"?>
<svg xmlns="http://www.w3.org/2000/svg" xmlns:xlink="http://www.w3.org/1999/xlink" width="16pt" height="16pt" viewBox="0 0 16 16" version="1.1">
<g id="surface1">
<path style=" stroke:none;fill-rule:evenodd;fill:rgb(90.196078%,90.196078%,90.196078%);fill-opacity:1;" d="M 11.621094 0.949219 L 5.359375 0.949219 L 11.621094 9.890625 Z M 11.621094 0.949219 "/>
<path style=" stroke:none;fill-rule:evenodd;fill:rgb(41.960784%,65.098039%,24.705882%);fill-opacity:1;" d="M 11.621094 0.949219 L 11.621094 9.890625 L 14.445312 13.925781 C 14.800781 13.457031 15.050781 12.902344 15.050781 12.265625 L 15.050781 3.734375 C 15.050781 2.191406 13.808594 0.949219 12.265625 0.949219 Z M 11.621094 0.949219 "/>
<path style=" stroke:none;fill-rule:evenodd;fill:rgb(90.196078%,90.196078%,90.196078%);fill-opacity:1;" d="M 4.378906 15.050781 L 10.640625 15.050781 L 4.378906 6.109375 Z M 4.378906 15.050781 "/>
<path style=" stroke:none;fill-rule:evenodd;fill:rgb(25.882353%,68.627451%,90.196078%);fill-opacity:1;" d="M 4.378906 15.050781 L 4.378906 6.109375 L 1.554688 2.074219 C 1.199219 2.542969 0.949219 3.097656 0.949219 3.734375 L 0.949219 12.265625 C 0.949219 13.808594 2.191406 15.050781 3.734375 15.050781 Z M 4.378906 15.050781 "/>
<path style=" stroke:none;fill-rule:evenodd;fill:rgb(58.823529%,79.215686%,41.960784%);fill-opacity:1;" d="M 1.554688 2.074219 L 10.640625 15.050781 L 12.265625 15.050781 C 13.171875 15.050781 13.9375 14.59375 14.445312 13.925781 L 5.359375 0.949219 L 3.734375 0.949219 C 2.828125 0.949219 2.0625 1.40625 1.554688 2.074219 Z M 1.554688 2.074219 "/>
</g>
</svg>
