<?xml version="1.0" encoding="UTF-8"?>
<svg xmlns="http://www.w3.org/2000/svg" xmlns:xlink="http://www.w3.org/1999/xlink" width="16pt" height="16pt" viewBox="0 0 16 16" version="1.1">
<g id="surface1">
<path style=" stroke:none;fill-rule:evenodd;fill:rgb(99.215686%,73.333333%,15.686275%);fill-opacity:1;" d="M 3.734375 0.949219 L 12.265625 0.949219 C 13.800781 0.949219 15.050781 2.199219 15.050781 3.734375 L 15.050781 12.265625 C 15.050781 13.800781 13.800781 15.050781 12.265625 15.050781 L 3.734375 15.050781 C 2.199219 15.050781 0.949219 13.800781 0.949219 12.265625 L 0.949219 3.734375 C 0.949219 2.199219 2.199219 0.949219 3.734375 0.949219 Z M 3.734375 0.949219 "/>
<path style=" stroke:none;fill-rule:nonzero;fill:rgb(100%,100%,100%);fill-opacity:1;" d="M 12.175781 8.757812 C 12.175781 11.0625 10.304688 12.933594 8 12.933594 C 5.695312 12.933594 3.824219 11.0625 3.824219 8.757812 C 3.824219 6.453125 5.695312 4.585938 8 4.585938 C 10.304688 4.585938 12.175781 6.453125 12.175781 8.757812 Z M 12.175781 8.757812 "/>
<path style=" stroke:none;fill-rule:nonzero;fill:rgb(30.980392%,30.980392%,30.980392%);fill-opacity:1;" d="M 8 3.066406 C 6.820312 3.066406 5.746094 3.425781 4.953125 4.027344 C 4.15625 4.628906 3.824219 5.492188 3.824219 6.453125 L 3.824219 6.859375 C 3.039062 7.25 2.308594 8.207031 2.308594 9.402344 C 2.308594 10.933594 3.433594 12.175781 4.585938 12.175781 L 4.585938 6.453125 C 4.585938 5.734375 4.734375 5.148438 5.390625 4.652344 C 6.046875 4.152344 6.96875 3.824219 8 3.824219 C 9.03125 3.824219 9.953125 4.152344 10.609375 4.652344 C 11.265625 5.148438 11.414062 5.734375 11.414062 6.453125 L 11.414062 12.175781 C 12.566406 12.175781 13.691406 10.933594 13.691406 9.402344 C 13.691406 8.207031 12.960938 7.25 12.175781 6.859375 L 12.175781 6.453125 C 12.175781 5.492188 11.84375 4.628906 11.046875 4.027344 C 10.253906 3.425781 9.179688 3.066406 8 3.066406 Z M 6.101562 6.859375 C 5.683594 6.859375 5.34375 7.203125 5.34375 7.621094 C 5.34375 8.039062 5.683594 8.378906 6.101562 8.378906 C 6.519531 8.378906 6.859375 8.039062 6.859375 7.621094 C 6.859375 7.203125 6.519531 6.859375 6.101562 6.859375 Z M 9.898438 6.859375 C 9.480469 6.859375 9.140625 7.203125 9.140625 7.621094 C 9.140625 8.039062 9.480469 8.378906 9.898438 8.378906 C 10.316406 8.378906 10.65625 8.039062 10.65625 7.621094 C 10.65625 7.203125 10.316406 6.859375 9.898438 6.859375 Z M 9.515625 10.277344 L 6.484375 10.285156 C 6.484375 11.125 7.160156 11.796875 8 11.796875 C 8.839844 11.796875 9.515625 11.113281 9.515625 10.277344 Z M 9.515625 10.277344 "/>
</g>
</svg>
