<?xml version="1.0" encoding="UTF-8"?>
<svg xmlns="http://www.w3.org/2000/svg" xmlns:xlink="http://www.w3.org/1999/xlink" width="16pt" height="16pt" viewBox="0 0 16 16" version="1.1">
<g id="surface1">
<path style=" stroke:none;fill-rule:evenodd;fill:rgb(37.254902%,48.627451%,54.117647%);fill-opacity:1;" d="M 3.734375 0.949219 L 12.265625 0.949219 C 13.800781 0.949219 15.050781 2.199219 15.050781 3.734375 L 15.050781 12.265625 C 15.050781 13.800781 13.800781 15.050781 12.265625 15.050781 L 3.734375 15.050781 C 2.199219 15.050781 0.949219 13.800781 0.949219 12.265625 L 0.949219 3.734375 C 0.949219 2.199219 2.199219 0.949219 3.734375 0.949219 Z M 3.734375 0.949219 "/>
<path style=" stroke:none;fill-rule:nonzero;fill:rgb(92.156863%,92.156863%,92.156863%);fill-opacity:1;" d="M 3.398438 5.3125 C 3.3125 5.3125 3.242188 5.378906 3.242188 5.46875 L 3.242188 6.398438 C 3.242188 6.484375 3.3125 6.550781 3.398438 6.550781 L 4.328125 6.550781 C 4.414062 6.550781 4.484375 6.484375 4.484375 6.398438 L 4.484375 5.46875 C 4.484375 5.378906 4.414062 5.3125 4.328125 5.3125 Z M 5.46875 5.3125 C 5.378906 5.3125 5.3125 5.378906 5.3125 5.46875 L 5.3125 6.398438 C 5.3125 6.484375 5.378906 6.550781 5.46875 6.550781 L 6.398438 6.550781 C 6.484375 6.550781 6.550781 6.484375 6.550781 6.398438 L 6.550781 5.46875 C 6.550781 5.378906 6.484375 5.3125 6.398438 5.3125 Z M 7.535156 5.3125 C 7.449219 5.3125 7.378906 5.378906 7.378906 5.46875 L 7.378906 6.398438 C 7.378906 6.484375 7.449219 6.550781 7.535156 6.550781 L 8.464844 6.550781 C 8.550781 6.550781 8.621094 6.484375 8.621094 6.398438 L 8.621094 5.46875 C 8.621094 5.378906 8.550781 5.3125 8.464844 5.3125 Z M 9.601562 5.3125 C 9.515625 5.3125 9.449219 5.378906 9.449219 5.46875 L 9.449219 6.398438 C 9.449219 6.484375 9.515625 6.550781 9.601562 6.550781 L 10.53125 6.550781 C 10.621094 6.550781 10.6875 6.484375 10.6875 6.398438 L 10.6875 5.46875 C 10.6875 5.378906 10.621094 5.3125 10.53125 5.3125 Z M 11.671875 5.3125 C 11.585938 5.3125 11.515625 5.378906 11.515625 5.46875 L 11.515625 6.398438 C 11.515625 6.484375 11.585938 6.550781 11.671875 6.550781 L 12.601562 6.550781 C 12.6875 6.550781 12.757812 6.484375 12.757812 6.398438 L 12.757812 5.46875 C 12.757812 5.378906 12.6875 5.3125 12.601562 5.3125 Z M 3.398438 7.378906 C 3.3125 7.378906 3.242188 7.449219 3.242188 7.535156 L 3.242188 8.464844 C 3.242188 8.550781 3.3125 8.621094 3.398438 8.621094 L 4.328125 8.621094 C 4.414062 8.621094 4.484375 8.550781 4.484375 8.464844 L 4.484375 7.535156 C 4.484375 7.449219 4.414062 7.378906 4.328125 7.378906 Z M 5.46875 7.378906 C 5.378906 7.378906 5.3125 7.449219 5.3125 7.535156 L 5.3125 8.464844 C 5.3125 8.550781 5.378906 8.621094 5.46875 8.621094 L 6.398438 8.621094 C 6.484375 8.621094 6.550781 8.550781 6.550781 8.464844 L 6.550781 7.535156 C 6.550781 7.449219 6.484375 7.378906 6.398438 7.378906 Z M 7.535156 7.378906 C 7.449219 7.378906 7.378906 7.449219 7.378906 7.535156 L 7.378906 8.464844 C 7.378906 8.550781 7.449219 8.621094 7.535156 8.621094 L 8.464844 8.621094 C 8.550781 8.621094 8.621094 8.550781 8.621094 8.464844 L 8.621094 7.535156 C 8.621094 7.449219 8.550781 7.378906 8.464844 7.378906 Z M 9.601562 7.378906 C 9.515625 7.378906 9.449219 7.449219 9.449219 7.535156 L 9.449219 8.464844 C 9.449219 8.550781 9.515625 8.621094 9.601562 8.621094 L 10.53125 8.621094 C 10.621094 8.621094 10.6875 8.550781 10.6875 8.464844 L 10.6875 7.535156 C 10.6875 7.449219 10.621094 7.378906 10.53125 7.378906 Z M 11.671875 7.378906 C 11.585938 7.378906 11.515625 7.449219 11.515625 7.535156 L 11.515625 8.464844 C 11.515625 8.550781 11.585938 8.621094 11.671875 8.621094 L 12.601562 8.621094 C 12.6875 8.621094 12.757812 8.550781 12.757812 8.464844 L 12.757812 7.535156 C 12.757812 7.449219 12.6875 7.378906 12.601562 7.378906 Z M 5.46875 9.449219 C 5.378906 9.449219 5.3125 9.515625 5.3125 9.601562 L 5.3125 10.53125 C 5.3125 10.621094 5.378906 10.6875 5.46875 10.6875 L 10.53125 10.6875 C 10.621094 10.6875 10.6875 10.621094 10.6875 10.53125 L 10.6875 9.601562 C 10.6875 9.515625 10.621094 9.449219 10.53125 9.449219 Z M 5.46875 9.449219 "/>
</g>
</svg>
