<?xml version="1.0" encoding="UTF-8"?>
<svg xmlns="http://www.w3.org/2000/svg" xmlns:xlink="http://www.w3.org/1999/xlink" width="16pt" height="16pt" viewBox="0 0 16 16" version="1.1">
<g id="surface1">
<path style=" stroke:none;fill-rule:evenodd;fill:rgb(100%,100%,74.901961%);fill-opacity:1;" d="M 0.949219 6.519531 L 0.949219 12.265625 C 0.949219 13.808594 2.191406 15.050781 3.734375 15.050781 L 12.261719 15.050781 C 13.808594 15.050781 15.050781 13.808594 15.050781 12.265625 L 15.050781 6.519531 Z M 0.949219 6.519531 "/>
<path style=" stroke:none;fill-rule:evenodd;fill:rgb(40.392157%,39.607843%,96.470588%);fill-opacity:1;" d="M 0.949219 6.519531 L 15.050781 6.519531 L 15.050781 3.738281 C 15.050781 2.191406 13.808594 0.949219 12.261719 0.949219 L 3.734375 0.949219 C 2.191406 0.949219 0.949219 2.191406 0.949219 3.738281 Z M 0.949219 6.519531 "/>
<path style=" stroke:none;fill-rule:nonzero;fill:rgb(24.705882%,24.705882%,24.705882%);fill-opacity:1;" d="M 3.597656 6.519531 L 6.589844 6.519531 L 6.589844 9.511719 L 3.597656 9.511719 Z M 3.597656 6.519531 "/>
<path style=" stroke:none;fill-rule:nonzero;fill:rgb(24.705882%,24.705882%,24.705882%);fill-opacity:1;" d="M 9.582031 6.519531 L 12.574219 6.519531 L 12.574219 9.511719 L 9.582031 9.511719 Z M 9.582031 6.519531 "/>
</g>
</svg>
