<?xml version="1.0" encoding="UTF-8"?>
<svg xmlns="http://www.w3.org/2000/svg" xmlns:xlink="http://www.w3.org/1999/xlink" width="16pt" height="16pt" viewBox="0 0 16 16" version="1.1">
<g id="surface1">
<path style=" stroke:none;fill-rule:evenodd;fill:rgb(14.509804%,47.058824%,20%);fill-opacity:1;" d="M 3.734375 0.949219 L 12.265625 0.949219 C 13.800781 0.949219 15.050781 2.199219 15.050781 3.734375 L 15.050781 12.265625 C 15.050781 13.800781 13.800781 15.050781 12.265625 15.050781 L 3.734375 15.050781 C 2.199219 15.050781 0.949219 13.800781 0.949219 12.265625 L 0.949219 3.734375 C 0.949219 2.199219 2.199219 0.949219 3.734375 0.949219 Z M 3.734375 0.949219 "/>
<path style=" stroke:none;fill-rule:nonzero;fill:rgb(29.411765%,68.235294%,30.980392%);fill-opacity:1;" d="M 2.636719 9.40625 L 6.59375 13.363281 C 6.722656 13.496094 6.9375 13.496094 7.066406 13.363281 L 11.023438 9.40625 C 11.15625 9.277344 11.15625 9.0625 11.023438 8.933594 L 7.066406 4.976562 C 6.9375 4.84375 6.722656 4.84375 6.59375 4.976562 L 2.636719 8.933594 C 2.503906 9.0625 2.503906 9.277344 2.636719 9.40625 Z M 2.636719 9.40625 "/>
<path style=" stroke:none;fill-rule:nonzero;fill:rgb(29.411765%,68.235294%,30.980392%);fill-opacity:1;" d="M 4.976562 9.40625 L 8.933594 13.363281 C 9.0625 13.496094 9.277344 13.496094 9.40625 13.363281 L 13.363281 9.40625 C 13.496094 9.277344 13.496094 9.0625 13.363281 8.933594 L 9.40625 4.976562 C 9.277344 4.84375 9.0625 4.84375 8.933594 4.976562 L 4.976562 8.933594 C 4.84375 9.0625 4.84375 9.277344 4.976562 9.40625 Z M 4.976562 9.40625 "/>
<path style=" stroke:none;fill-rule:nonzero;fill:rgb(96.078431%,51.764706%,6.666667%);fill-opacity:1;" d="M 2.660156 8.300781 L 7.699219 13.339844 C 7.863281 13.503906 8.136719 13.503906 8.300781 13.339844 L 13.339844 8.300781 C 13.503906 8.136719 13.503906 7.863281 13.339844 7.699219 L 8.300781 2.660156 C 8.136719 2.496094 7.863281 2.496094 7.699219 2.660156 L 2.660156 7.699219 C 2.496094 7.863281 2.496094 8.136719 2.660156 8.300781 Z M 2.660156 8.300781 "/>
<path style=" stroke:none;fill-rule:nonzero;fill:rgb(100%,100%,100%);fill-opacity:1;" d="M 8.390625 10.144531 C 8.695312 10.121094 8.738281 10.042969 8.898438 9.90625 C 9.0625 9.765625 9.082031 9.605469 9.082031 9.363281 C 9.082031 9.148438 9.097656 8.902344 8.9375 8.75 C 8.777344 8.597656 8.699219 8.46875 8.390625 8.390625 Z M 7.609375 5.851562 C 7.328125 5.871094 7.246094 5.976562 7.089844 6.109375 C 6.9375 6.242188 6.914062 6.410156 6.914062 6.632812 C 6.914062 6.835938 6.929688 7.007812 7.070312 7.140625 C 7.214844 7.277344 7.304688 7.328125 7.609375 7.414062 Z M 6.046875 10.144531 L 6.046875 9.171875 L 6.480469 9.171875 C 6.492188 9.515625 6.589844 9.664062 6.796875 9.839844 C 7.003906 10.015625 7.203125 10.140625 7.609375 10.144531 L 7.609375 8.390625 C 6.984375 8.226562 6.679688 7.9375 6.425781 7.726562 C 6.175781 7.515625 6.046875 7.234375 6.046875 6.886719 C 6.046875 6.484375 6.199219 6.15625 6.496094 5.914062 C 6.796875 5.667969 7.078125 5.492188 7.609375 5.460938 L 7.609375 4.484375 L 8.390625 4.484375 L 8.390625 5.460938 C 8.664062 5.550781 8.753906 5.570312 8.9375 5.625 C 9.203125 5.707031 9.492188 5.769531 9.734375 5.871094 L 9.734375 6.828125 L 9.300781 6.828125 C 9.265625 6.535156 9.148438 6.3125 8.960938 6.144531 C 8.773438 5.976562 8.710938 5.875 8.390625 5.851562 L 8.390625 7.609375 C 9.058594 7.777344 9.28125 7.957031 9.546875 8.175781 C 9.816406 8.390625 9.953125 8.609375 9.953125 8.976562 C 9.953125 9.394531 9.777344 9.78125 9.480469 10.054688 C 9.199219 10.316406 8.960938 10.5 8.390625 10.535156 L 8.390625 11.511719 L 7.609375 11.511719 L 7.609375 10.535156 C 7.359375 10.480469 7.210938 10.453125 6.933594 10.386719 C 6.652344 10.324219 6.351562 10.273438 6.046875 10.144531 Z M 6.046875 10.144531 "/>
</g>
</svg>
