<?xml version="1.0" encoding="UTF-8"?>
<svg xmlns="http://www.w3.org/2000/svg" xmlns:xlink="http://www.w3.org/1999/xlink" width="16pt" height="16pt" viewBox="0 0 16 16" version="1.1">
<g id="surface1">
<path style=" stroke:none;fill-rule:evenodd;fill:rgb(12.54902%,59.215686%,98.431373%);fill-opacity:1;" d="M 3.734375 0.949219 L 12.265625 0.949219 C 13.800781 0.949219 15.050781 2.199219 15.050781 3.734375 L 15.050781 12.265625 C 15.050781 13.800781 13.800781 15.050781 12.265625 15.050781 L 3.734375 15.050781 C 2.199219 15.050781 0.949219 13.800781 0.949219 12.265625 L 0.949219 3.734375 C 0.949219 2.199219 2.199219 0.949219 3.734375 0.949219 Z M 3.734375 0.949219 "/>
<path style=" stroke:none;fill-rule:nonzero;fill:rgb(100%,100%,100%);fill-opacity:1;" d="M 9.308594 2.953125 L 6.691406 3.328125 L 6.691406 4.078125 L 5.421875 4.078125 C 3.328125 4.078125 3.328125 5.382812 3.328125 5.382812 L 3.328125 6.691406 L 6.691406 6.691406 C 6.691406 6.257812 6.929688 5.945312 7.363281 5.945312 C 7.796875 5.945312 7.984375 6.257812 7.984375 6.691406 L 8.011719 6.691406 L 3.375 9.683594 L 3.328125 9.683594 L 3.328125 11.921875 L 6.691406 11.921875 L 6.691406 13.046875 L 9.308594 12.671875 L 9.308594 11.921875 L 12.671875 11.921875 L 12.671875 9.683594 L 8 9.683594 L 11.710938 7.320312 C 12.222656 6.953125 12.671875 6.691406 12.671875 5.644531 C 12.671875 5.644531 12.746094 4.078125 9.867188 4.078125 L 9.308594 4.078125 Z M 9.308594 2.953125 "/>
</g>
</svg>
