<?xml version="1.0" encoding="UTF-8"?>
<svg xmlns="http://www.w3.org/2000/svg" xmlns:xlink="http://www.w3.org/1999/xlink" width="16pt" height="16pt" viewBox="0 0 16 16" version="1.1">
<g id="surface1">
<path style=" stroke:none;fill-rule:evenodd;fill:rgb(13.333333%,33.72549%,43.921569%);fill-opacity:1;" d="M 3.734375 0.949219 L 12.265625 0.949219 C 13.800781 0.949219 15.050781 2.199219 15.050781 3.734375 L 15.050781 12.265625 C 15.050781 13.800781 13.800781 15.050781 12.265625 15.050781 L 3.734375 15.050781 C 2.199219 15.050781 0.949219 13.800781 0.949219 12.265625 L 0.949219 3.734375 C 0.949219 2.199219 2.199219 0.949219 3.734375 0.949219 Z M 3.734375 0.949219 "/>
<path style=" stroke:none;fill-rule:nonzero;fill:rgb(37.254902%,48.627451%,54.117647%);fill-opacity:1;" d="M 3.101562 6.015625 L 3.140625 7.710938 C 3.179688 7.980469 3.40625 8.46875 3.746094 8.851562 C 4.21875 9.386719 4.917969 9.722656 5.691406 9.722656 L 10.296875 9.722656 L 12.027344 12 C 12.890625 13.140625 13.863281 12.203125 13.753906 11.433594 L 13.464844 6.015625 Z M 3.101562 6.015625 "/>
<path style=" stroke:none;fill-rule:nonzero;fill:rgb(49.803922%,58.823529%,63.137255%);fill-opacity:1;" d="M 5.136719 3.46875 L 10.886719 3.46875 C 12.320312 3.46875 13.472656 4.601562 13.472656 6.007812 C 13.472656 6.652344 13.230469 7.238281 12.828125 7.6875 C 12.355469 8.214844 11.660156 8.546875 10.886719 8.546875 L 6.285156 8.546875 L 3.984375 11.929688 C 3.113281 13.078125 2.078125 12.414062 2.261719 11.367188 L 2.546875 6.007812 C 2.625 4.601562 3.703125 3.46875 5.136719 3.46875 Z M 5.136719 3.46875 "/>
<path style=" stroke:none;fill-rule:nonzero;fill:rgb(87.45098%,89.803922%,90.980392%);fill-opacity:1;" d="M 6.359375 5.527344 L 6.359375 6.351562 L 3.886719 6.351562 L 3.886719 5.527344 Z M 6.359375 5.527344 "/>
<path style=" stroke:none;fill-rule:nonzero;fill:rgb(87.45098%,89.803922%,90.980392%);fill-opacity:1;" d="M 10.480469 5.9375 C 10.480469 6.167969 10.296875 6.351562 10.066406 6.351562 C 9.839844 6.351562 9.65625 6.167969 9.65625 5.9375 C 9.65625 5.710938 9.839844 5.527344 10.066406 5.527344 C 10.296875 5.527344 10.480469 5.710938 10.480469 5.9375 Z M 10.480469 5.9375 "/>
<path style=" stroke:none;fill-rule:nonzero;fill:rgb(87.45098%,89.803922%,90.980392%);fill-opacity:1;" d="M 12.125 5.9375 C 12.125 6.167969 11.941406 6.351562 11.714844 6.351562 C 11.488281 6.351562 11.304688 6.167969 11.304688 5.9375 C 11.304688 5.710938 11.488281 5.527344 11.714844 5.527344 C 11.941406 5.527344 12.125 5.710938 12.125 5.9375 Z M 12.125 5.9375 "/>
<path style=" stroke:none;fill-rule:nonzero;fill:rgb(87.45098%,89.803922%,90.980392%);fill-opacity:1;" d="M 10.890625 5.527344 C 10.664062 5.527344 10.480469 5.34375 10.480469 5.117188 C 10.480469 4.890625 10.664062 4.703125 10.890625 4.703125 C 11.121094 4.703125 11.304688 4.890625 11.304688 5.117188 C 11.304688 5.34375 11.121094 5.527344 10.890625 5.527344 Z M 10.890625 5.527344 "/>
<path style=" stroke:none;fill-rule:nonzero;fill:rgb(87.45098%,89.803922%,90.980392%);fill-opacity:1;" d="M 10.890625 7.175781 C 10.664062 7.175781 10.480469 6.992188 10.480469 6.765625 C 10.480469 6.535156 10.664062 6.351562 10.890625 6.351562 C 11.121094 6.351562 11.304688 6.535156 11.304688 6.765625 C 11.304688 6.992188 11.121094 7.175781 10.890625 7.175781 Z M 10.890625 7.175781 "/>
<path style=" stroke:none;fill-rule:nonzero;fill:rgb(87.45098%,89.803922%,90.980392%);fill-opacity:1;" d="M 5.535156 7.175781 L 4.710938 7.175781 L 4.710938 4.703125 L 5.535156 4.703125 Z M 5.535156 7.175781 "/>
</g>
</svg>
