<?xml version="1.0" encoding="UTF-8"?>
<svg xmlns="http://www.w3.org/2000/svg" xmlns:xlink="http://www.w3.org/1999/xlink" width="16pt" height="16pt" viewBox="0 0 16 16" version="1.1">
<g id="surface1">
<path style=" stroke:none;fill-rule:evenodd;fill:rgb(92.54902%,92.54902%,92.54902%);fill-opacity:1;" d="M 11.058594 4.90625 L 13.675781 4.90625 C 14.078125 4.90625 14.445312 5.070312 14.707031 5.332031 C 14.921875 5.546875 15 5.855469 15.050781 6.167969 L 15.050781 3.734375 C 15.050781 2.191406 13.808594 0.949219 12.265625 0.949219 L 9.796875 0.949219 C 10.109375 1 10.417969 1.082031 10.628906 1.292969 C 10.894531 1.558594 11.058594 1.921875 11.058594 2.324219 Z M 11.058594 4.90625 "/>
<path style=" stroke:none;fill-rule:evenodd;fill:rgb(92.54902%,92.54902%,92.54902%);fill-opacity:1;" d="M 0.949219 9.796875 L 0.949219 12.261719 C 0.949219 13.808594 2.191406 15.050781 3.738281 15.050781 L 6.292969 15.050781 C 5.9375 15.019531 5.605469 14.90625 5.371094 14.671875 C 5.105469 14.40625 4.941406 14.042969 4.941406 13.640625 L 4.941406 11.058594 L 2.324219 11.058594 C 1.921875 11.058594 1.558594 10.894531 1.292969 10.628906 C 1.082031 10.417969 1 10.109375 0.949219 9.796875 Z M 0.949219 9.796875 "/>
<path style=" stroke:none;fill-rule:evenodd;fill:rgb(18.039216%,44.705882%,74.509804%);fill-opacity:1;" d="M 0.949219 9.796875 C 1 10.109375 1.082031 10.417969 1.292969 10.628906 C 1.558594 10.894531 1.921875 11.058594 2.324219 11.058594 L 4.941406 11.058594 L 4.941406 6.363281 C 4.941406 5.957031 5.105469 5.59375 5.371094 5.332031 C 5.632812 5.070312 5.996094 4.90625 6.398438 4.90625 L 11.058594 4.90625 L 11.058594 2.324219 C 11.058594 1.921875 10.894531 1.558594 10.628906 1.292969 C 10.417969 1.082031 10.109375 1 9.796875 0.949219 L 3.738281 0.949219 C 2.191406 0.949219 0.949219 2.191406 0.949219 3.734375 Z M 0.949219 9.796875 "/>
<path style=" stroke:none;fill-rule:nonzero;fill:rgb(27.058824%,61.568627%,96.862745%);fill-opacity:1;" d="M 13.09375 11.640625 L 13.09375 4.359375 C 13.09375 3.558594 12.441406 2.90625 11.640625 2.90625 L 4.359375 2.90625 C 3.558594 2.90625 2.90625 3.558594 2.90625 4.359375 L 2.90625 11.640625 C 2.90625 12.441406 3.558594 13.09375 4.359375 13.09375 L 11.640625 13.09375 C 12.441406 13.09375 13.09375 12.441406 13.09375 11.640625 Z M 13.09375 11.640625 "/>
<path style=" stroke:none;fill-rule:evenodd;fill:rgb(56.470588%,76.078431%,98.039216%);fill-opacity:1;" d="M 15.050781 6.167969 C 15 5.855469 14.921875 5.546875 14.707031 5.332031 C 14.445312 5.070312 14.078125 4.90625 13.675781 4.90625 L 6.398438 4.90625 C 5.996094 4.90625 5.632812 5.070312 5.371094 5.332031 C 5.105469 5.59375 4.941406 5.957031 4.941406 6.363281 L 4.941406 13.640625 C 4.941406 14.042969 5.105469 14.40625 5.371094 14.671875 C 5.605469 14.90625 5.9375 15.019531 6.292969 15.050781 L 12.265625 15.050781 C 13.808594 15.050781 15.050781 13.808594 15.050781 12.261719 Z M 15.050781 6.167969 "/>
<path style=" stroke:none;fill-rule:nonzero;fill:rgb(95.294118%,30.588235%,31.764706%);fill-opacity:1;" d="M 9.59375 7.972656 C 8.855469 7.984375 8.285156 8.300781 8.015625 8.84375 C 7.460938 9.949219 8.277344 11.6875 9.835938 12.730469 C 11.398438 13.769531 13.113281 13.714844 13.667969 12.605469 C 14.222656 11.5 13.40625 9.757812 11.847656 8.71875 C 11.109375 8.230469 10.300781 7.960938 9.59375 7.972656 Z M 9.59375 7.972656 "/>
<path style=" stroke:none;fill-rule:nonzero;fill:rgb(100%,100%,100%);fill-opacity:1;" d="M 10.214844 8.972656 C 10.511719 8.964844 10.832031 9.023438 11.140625 9.140625 C 12.234375 9.546875 12.984375 10.589844 12.820312 11.464844 C 12.652344 12.339844 11.632812 12.71875 10.542969 12.308594 C 9.449219 11.898438 8.699219 10.859375 8.863281 9.984375 C 8.976562 9.386719 9.5 8.996094 10.214844 8.972656 Z M 10.214844 8.972656 "/>
<path style="fill:none;stroke-width:2;stroke-linecap:round;stroke-linejoin:round;stroke:rgb(95.294118%,30.588235%,31.764706%);stroke-opacity:1;stroke-miterlimit:4;" d="M -27.680921 10.629523 L -21.680921 15.629523 " transform="matrix(0.5,0,0,0.5,20.68421,2.157895)"/>
</g>
</svg>
