<?xml version="1.0" encoding="UTF-8"?>
<svg xmlns="http://www.w3.org/2000/svg" xmlns:xlink="http://www.w3.org/1999/xlink" width="16pt" height="16pt" viewBox="0 0 16 16" version="1.1">
<g id="surface1">
<path style=" stroke:none;fill-rule:evenodd;fill:rgb(76.862745%,9.803922%,12.156863%);fill-opacity:1;" d="M 3.734375 0.949219 C 2.191406 0.949219 0.949219 2.191406 0.949219 3.734375 L 0.949219 12.265625 C 0.949219 13.808594 2.191406 15.050781 3.734375 15.050781 L 3.828125 15.050781 L 3.828125 13.929688 C 3.828125 13.613281 3.894531 13.316406 4.007812 13.042969 C 4.121094 12.773438 4.289062 12.527344 4.492188 12.324219 C 4.699219 12.117188 4.941406 11.953125 5.214844 11.835938 C 5.484375 11.722656 5.785156 11.660156 6.097656 11.660156 L 9.902344 11.660156 C 10.214844 11.660156 10.515625 11.722656 10.785156 11.835938 C 11.058594 11.953125 11.300781 12.117188 11.507812 12.324219 C 11.710938 12.527344 11.878906 12.773438 11.992188 13.042969 C 12.105469 13.316406 12.171875 13.613281 12.171875 13.929688 L 12.171875 15.050781 L 12.265625 15.050781 C 13.808594 15.050781 15.050781 13.808594 15.050781 12.265625 L 15.050781 3.734375 C 15.050781 2.191406 13.808594 0.949219 12.265625 0.949219 Z M 3.734375 0.949219 "/>
<path style=" stroke:none;fill-rule:nonzero;fill:rgb(86.27451%,27.843137%,28.627451%);fill-opacity:1;" d="M 7.25 4.332031 C 12.984375 5.78125 15.019531 8.96875 8.230469 11.976562 C 7.671875 12.222656 9.640625 12.152344 9.046875 12.605469 C 17.3125 9.042969 13.304688 5.609375 7.25 4.332031 Z M 7.25 4.332031 "/>
<path style=" stroke:none;fill-rule:nonzero;fill:rgb(86.27451%,27.843137%,28.627451%);fill-opacity:1;" d="M 5.414062 4.257812 C 10.707031 5.664062 13.601562 7.078125 9.589844 10.875 C 15.863281 7.6875 10.171875 4.75 5.414062 4.257812 Z M 5.414062 4.257812 "/>
<path style=" stroke:none;fill-rule:nonzero;fill:rgb(86.27451%,27.843137%,28.627451%);fill-opacity:1;" d="M 1.886719 4.339844 C 7.753906 5.582031 13.574219 7.28125 6.820312 11.847656 C 16.828125 7.050781 7.246094 4.574219 1.886719 4.339844 Z M 1.886719 4.339844 "/>
<path style=" stroke:none;fill-rule:evenodd;fill:rgb(80%,80%,80%);fill-opacity:1;" d="M 12.171875 15.050781 L 12.171875 13.929688 C 12.171875 13.613281 12.105469 13.316406 11.992188 13.042969 C 11.878906 12.773438 11.710938 12.527344 11.507812 12.324219 C 11.300781 12.117188 11.058594 11.953125 10.785156 11.835938 C 10.515625 11.722656 10.214844 11.660156 9.902344 11.660156 L 6.097656 11.660156 C 5.785156 11.660156 5.484375 11.722656 5.214844 11.835938 C 4.941406 11.953125 4.699219 12.117188 4.492188 12.324219 C 4.289062 12.527344 4.121094 12.773438 4.007812 13.042969 C 3.894531 13.316406 3.828125 13.613281 3.828125 13.929688 L 3.828125 15.050781 Z M 12.171875 15.050781 "/>
<path style=" stroke:none;fill-rule:nonzero;fill:rgb(100%,100%,100%);fill-opacity:1;" d="M 8.15625 9.660156 L 9.09375 8.71875 C 8.816406 9.570312 9.125 10.59375 10.117188 10.519531 C 10.933594 10.273438 11.53125 9.851562 12.214844 9.324219 C 12.328125 9.199219 12.378906 9.023438 12.308594 9.023438 C 11.527344 9.671875 10.042969 10.5 9.746094 9.804688 C 9.070312 7.253906 13.5625 5.074219 12.171875 3.503906 C 9.890625 4.878906 9.828125 7.90625 7.9375 9.5 C 8.769531 7.46875 9.175781 5.21875 10.113281 3.558594 C 9.796875 3.410156 9.660156 3.523438 9.34375 3.648438 C 8.714844 4.84375 8.351562 6.195312 7.710938 7.15625 C 6.734375 8.605469 6.6875 8.671875 6.433594 8.976562 C 5.832031 9.691406 5.105469 10.152344 4.625 10.121094 C 4.316406 10.101562 4.109375 9.890625 4.058594 9.554688 C 4.039062 9.429688 4.042969 9.378906 4.066406 9.230469 C 4.429688 8.105469 4.9375 7.609375 5.539062 6.753906 C 5.308594 6.738281 5.082031 6.828125 4.863281 6.882812 C 4.148438 7.503906 3.546875 8.605469 3.53125 9.546875 C 3.53125 9.882812 3.589844 10.074219 3.746094 10.265625 C 3.832031 10.371094 4.058594 10.519531 4.179688 10.546875 C 4.296875 10.578125 4.65625 10.5625 4.808594 10.519531 C 5.378906 10.367188 6.144531 9.65625 7.167969 8.324219 C 7.628906 7.726562 7.90625 7.375 7.9375 7.34375 C 7.972656 7.308594 7.976562 7.3125 7.976562 7.386719 C 7.703125 8.5 7.296875 9.445312 7.125 10.582031 C 7.144531 10.59375 7.171875 10.601562 7.1875 10.601562 C 7.199219 10.601562 7.636719 10.179688 8.15625 9.660156 Z M 10.417969 6.832031 C 10.710938 5.78125 11.15625 4.804688 11.804688 4.023438 C 11.703125 5.160156 11.074219 5.957031 10.433594 6.863281 C 10.421875 6.875 10.417969 6.863281 10.417969 6.832031 Z M 10.417969 6.832031 "/>
<path style=" stroke:none;fill-rule:nonzero;fill:rgb(76.862745%,9.803922%,12.156863%);fill-opacity:1;" d="M 5.863281 14.421875 L 5.863281 13.566406 L 6.511719 13.566406 C 6.871094 13.566406 7.085938 13.367188 7.085938 13.058594 C 7.085938 12.761719 6.871094 12.566406 6.511719 12.566406 L 5.738281 12.566406 L 5.738281 14.421875 Z M 5.863281 12.679688 L 6.503906 12.679688 C 6.796875 12.679688 6.960938 12.816406 6.960938 13.058594 C 6.960938 13.308594 6.796875 13.449219 6.503906 13.449219 L 5.863281 13.449219 Z M 5.863281 12.679688 "/>
<path style=" stroke:none;fill-rule:nonzero;fill:rgb(76.862745%,9.803922%,12.156863%);fill-opacity:1;" d="M 8.082031 14.421875 C 8.378906 14.421875 8.621094 14.335938 8.800781 14.164062 C 8.988281 13.992188 9.082031 13.769531 9.082031 13.492188 C 9.082031 13.21875 8.988281 12.992188 8.800781 12.824219 C 8.621094 12.648438 8.378906 12.566406 8.082031 12.566406 L 7.503906 12.566406 L 7.503906 14.421875 Z M 7.628906 12.679688 L 8.058594 12.679688 C 8.335938 12.679688 8.550781 12.753906 8.710938 12.898438 C 8.878906 13.054688 8.957031 13.246094 8.957031 13.492188 C 8.957031 13.742188 8.878906 13.933594 8.710938 14.082031 C 8.550781 14.234375 8.335938 14.308594 8.058594 14.308594 L 7.628906 14.308594 Z M 7.628906 12.679688 "/>
<path style=" stroke:none;fill-rule:nonzero;fill:rgb(76.862745%,9.803922%,12.156863%);fill-opacity:1;" d="M 9.683594 14.421875 L 9.683594 13.503906 L 10.597656 13.503906 L 10.597656 13.386719 L 9.683594 13.386719 L 9.683594 12.679688 L 10.785156 12.679688 L 10.785156 12.566406 L 9.558594 12.566406 L 9.558594 14.421875 Z M 9.683594 14.421875 "/>
</g>
</svg>
