<?xml version="1.0" encoding="UTF-8"?>
<svg xmlns="http://www.w3.org/2000/svg" xmlns:xlink="http://www.w3.org/1999/xlink" width="16pt" height="16pt" viewBox="0 0 16 16" version="1.1">
<g id="surface1">
<path style=" stroke:none;fill-rule:evenodd;fill:rgb(30.588235%,68.627451%,26.666667%);fill-opacity:1;" d="M 0.949219 8.808594 C 1.015625 8.761719 1.09375 8.699219 1.105469 8.699219 C 1.140625 8.699219 1.394531 8.539062 1.507812 8.453125 C 1.53125 8.433594 1.753906 8.320312 2 8.199219 C 2.246094 8.078125 2.632812 7.894531 2.855469 7.785156 C 3.082031 7.675781 3.277344 7.585938 3.292969 7.585938 C 3.308594 7.585938 3.441406 7.511719 3.59375 7.421875 C 3.738281 7.332031 3.902344 7.242188 3.953125 7.226562 C 4.109375 7.179688 4.902344 6.640625 5.257812 6.347656 C 5.644531 6.027344 6.183594 5.449219 6.292969 5.234375 C 6.332031 5.15625 6.378906 5.078125 6.398438 5.066406 C 6.433594 5.046875 6.511719 4.894531 6.734375 4.425781 C 7.007812 3.824219 7.183594 3.070312 7.191406 2.328125 C 7.195312 1.953125 7.160156 1.585938 7.074219 1.242188 C 7.046875 1.136719 6.984375 1.050781 6.949219 0.949219 L 3.734375 0.949219 C 2.191406 0.949219 0.949219 2.191406 0.949219 3.734375 Z M 0.949219 8.808594 "/>
<path style=" stroke:none;fill-rule:evenodd;fill:rgb(30.588235%,68.627451%,26.666667%);fill-opacity:1;" d="M 13.707031 14.59375 C 13.59375 14.558594 13.40625 14.503906 13.238281 14.460938 C 12.703125 14.324219 11.515625 13.78125 11.117188 13.5 C 11 13.417969 10.890625 13.347656 10.871094 13.347656 C 10.847656 13.347656 10.730469 13.273438 10.605469 13.179688 C 10.0625 12.769531 9.457031 12.382812 8.8125 12.054688 C 8.167969 11.726562 7.484375 11.460938 6.78125 11.296875 C 6.332031 11.195312 5.441406 11.1875 5.011719 11.277344 C 4.417969 11.402344 3.859375 11.59375 3.378906 11.828125 C 2.898438 12.0625 2.5 12.347656 2.21875 12.652344 C 1.945312 12.949219 1.675781 13.476562 1.636719 13.792969 C 1.621094 13.921875 1.734375 14.066406 1.777344 14.246094 C 2.277344 14.742188 2.96875 15.050781 3.734375 15.050781 L 12.265625 15.050781 C 12.804688 15.050781 13.28125 14.859375 13.707031 14.59375 Z M 13.707031 14.59375 "/>
<path style=" stroke:none;fill-rule:evenodd;fill:rgb(100%,100%,100%);fill-opacity:1;" d="M 15.050781 12.074219 L 15.050781 11.074219 C 15.019531 11.074219 14.988281 11.089844 14.957031 11.085938 C 14.566406 11.03125 14.179688 10.90625 13.796875 10.710938 C 13.421875 10.515625 13.050781 10.253906 12.707031 9.933594 C 12.238281 9.496094 12.078125 9.316406 11.851562 8.996094 C 11.433594 8.390625 11.175781 7.757812 10.957031 6.796875 C 10.867188 6.386719 10.882812 4.355469 10.988281 3.59375 C 11.101562 2.742188 11.085938 1.816406 10.953125 0.949219 L 9.878906 0.949219 C 9.882812 0.96875 9.898438 1.003906 9.902344 1.023438 C 9.976562 1.550781 9.988281 2.6875 9.925781 3.203125 C 9.820312 4.09375 9.78125 5.316406 9.832031 6.070312 C 9.890625 6.890625 9.945312 7.203125 10.144531 7.851562 C 10.285156 8.3125 10.640625 9.082031 10.796875 9.273438 C 10.847656 9.339844 10.933594 9.464844 10.988281 9.550781 C 11.039062 9.640625 11.097656 9.710938 11.113281 9.710938 C 11.128906 9.710938 11.175781 9.765625 11.214844 9.828125 C 11.3125 9.984375 11.601562 10.292969 11.890625 10.546875 C 12.023438 10.664062 12.191406 10.8125 12.273438 10.886719 C 12.351562 10.953125 12.476562 11.050781 12.550781 11.097656 C 12.628906 11.144531 12.753906 11.234375 12.832031 11.296875 C 13.070312 11.480469 13.449219 11.667969 13.847656 11.816406 C 14.246094 11.960938 14.660156 12.066406 14.976562 12.085938 C 15.003906 12.085938 15.023438 12.074219 15.050781 12.074219 Z M 15.050781 12.074219 "/>
<path style=" stroke:none;fill-rule:evenodd;fill:rgb(100%,100%,100%);fill-opacity:1;" d="M 0.984375 12.4375 C 1.03125 13.140625 1.308594 13.78125 1.777344 14.246094 C 1.734375 14.066406 1.621094 13.921875 1.636719 13.792969 C 1.675781 13.476562 1.945312 12.949219 2.21875 12.652344 C 2.5 12.347656 2.898438 12.0625 3.378906 11.828125 C 3.859375 11.59375 4.417969 11.402344 5.011719 11.277344 C 5.441406 11.1875 6.332031 11.195312 6.78125 11.296875 C 7.484375 11.460938 8.167969 11.726562 8.8125 12.054688 C 9.457031 12.382812 10.0625 12.769531 10.605469 13.179688 C 10.730469 13.273438 10.847656 13.347656 10.871094 13.347656 C 10.890625 13.347656 11 13.417969 11.117188 13.5 C 11.515625 13.78125 12.703125 14.324219 13.238281 14.460938 C 13.40625 14.503906 13.59375 14.558594 13.707031 14.59375 C 14.121094 14.335938 14.453125 13.976562 14.691406 13.554688 C 14.160156 13.453125 13.351562 13.261719 13.0625 13.140625 C 12.921875 13.082031 12.734375 13.003906 12.644531 12.972656 C 12.554688 12.9375 12.328125 12.824219 12.144531 12.71875 C 11.957031 12.613281 11.796875 12.527344 11.78125 12.527344 C 11.769531 12.527344 11.667969 12.460938 11.550781 12.378906 C 11.4375 12.296875 11.332031 12.230469 11.316406 12.230469 C 11.300781 12.230469 11.175781 12.148438 11.042969 12.046875 C 10.910156 11.949219 10.765625 11.847656 10.730469 11.824219 C 10.527344 11.703125 9.972656 11.355469 9.875 11.285156 C 9.652344 11.132812 9.132812 10.863281 8.578125 10.609375 C 8.195312 10.4375 7.953125 10.359375 7.191406 10.152344 C 6.816406 10.046875 6.71875 10.039062 5.890625 10.039062 C 4.960938 10.039062 4.757812 10.066406 4.160156 10.265625 C 4.03125 10.308594 3.828125 10.375 3.707031 10.410156 C 3.445312 10.492188 2.652344 10.859375 2.632812 10.910156 C 2.625 10.933594 2.601562 10.949219 2.578125 10.949219 C 2.53125 10.949219 2.070312 11.238281 1.992188 11.320312 C 1.960938 11.351562 1.863281 11.429688 1.78125 11.496094 C 1.609375 11.621094 1.316406 11.925781 1.21875 12.082031 C 1.179688 12.136719 1.09375 12.265625 1.023438 12.363281 C 1.011719 12.378906 0.996094 12.421875 0.984375 12.4375 Z M 0.984375 12.4375 "/>
<path style=" stroke:none;fill-rule:evenodd;fill:rgb(100%,100%,100%);fill-opacity:1;" d="M 8.167969 0.949219 L 6.949219 0.949219 C 6.984375 1.050781 7.046875 1.136719 7.074219 1.242188 C 7.160156 1.585938 7.195312 1.953125 7.191406 2.328125 C 7.183594 3.070312 7.007812 3.824219 6.734375 4.425781 C 6.511719 4.894531 6.433594 5.046875 6.398438 5.066406 C 6.378906 5.078125 6.332031 5.15625 6.292969 5.234375 C 6.183594 5.449219 5.644531 6.027344 5.257812 6.347656 C 4.902344 6.640625 4.109375 7.179688 3.953125 7.226562 C 3.902344 7.242188 3.738281 7.332031 3.59375 7.421875 C 3.441406 7.511719 3.308594 7.585938 3.292969 7.585938 C 3.277344 7.585938 3.082031 7.675781 2.855469 7.785156 C 2.632812 7.894531 2.246094 8.078125 2 8.199219 C 1.753906 8.320312 1.53125 8.433594 1.507812 8.453125 C 1.394531 8.539062 1.140625 8.699219 1.105469 8.699219 C 1.09375 8.699219 1.015625 8.761719 0.949219 8.808594 L 0.949219 10.09375 C 0.976562 10.074219 1.003906 10.042969 1.027344 10.027344 C 1.09375 9.984375 1.25 9.871094 1.375 9.777344 C 1.648438 9.5625 1.839844 9.441406 2.21875 9.238281 C 2.714844 8.976562 2.757812 8.953125 3.203125 8.753906 C 3.671875 8.539062 3.769531 8.488281 4.394531 8.140625 C 5.136719 7.734375 5.46875 7.523438 5.734375 7.292969 C 5.839844 7.203125 5.945312 7.121094 5.96875 7.113281 C 6.082031 7.074219 6.757812 6.390625 7.035156 6.035156 C 7.355469 5.632812 7.757812 4.875 7.996094 4.226562 C 8.054688 4.074219 8.148438 3.628906 8.261719 3.007812 C 8.351562 2.507812 8.371094 1.773438 8.300781 1.34375 C 8.277344 1.195312 8.214844 1.117188 8.167969 0.949219 Z M 8.167969 0.949219 "/>
<path style=" stroke:none;fill-rule:evenodd;fill:rgb(94.117647%,55.294118%,14.509804%);fill-opacity:1;" d="M 8.167969 0.949219 C 8.214844 1.117188 8.277344 1.195312 8.300781 1.34375 C 8.371094 1.773438 8.351562 2.507812 8.261719 3.007812 C 8.148438 3.628906 8.054688 4.074219 7.996094 4.226562 C 7.757812 4.875 7.355469 5.632812 7.035156 6.035156 C 6.757812 6.390625 6.082031 7.074219 5.96875 7.113281 C 5.945312 7.121094 5.839844 7.203125 5.734375 7.292969 C 5.46875 7.523438 5.136719 7.734375 4.394531 8.140625 C 3.769531 8.488281 3.671875 8.539062 3.203125 8.753906 C 2.757812 8.953125 2.714844 8.976562 2.21875 9.238281 C 1.839844 9.441406 1.648438 9.5625 1.375 9.777344 C 1.25 9.871094 1.09375 9.984375 1.027344 10.027344 C 1.003906 10.042969 0.976562 10.074219 0.949219 10.09375 L 0.949219 12.265625 C 0.949219 12.328125 0.980469 12.378906 0.984375 12.4375 C 0.996094 12.421875 1.011719 12.378906 1.023438 12.363281 C 1.09375 12.265625 1.179688 12.136719 1.21875 12.082031 C 1.316406 11.925781 1.609375 11.621094 1.78125 11.496094 C 1.863281 11.429688 1.960938 11.351562 1.992188 11.320312 C 2.070312 11.238281 2.53125 10.949219 2.578125 10.949219 C 2.601562 10.949219 2.625 10.933594 2.632812 10.910156 C 2.652344 10.859375 3.445312 10.492188 3.707031 10.410156 C 3.828125 10.375 4.03125 10.308594 4.160156 10.265625 C 4.757812 10.066406 4.960938 10.039062 5.890625 10.039062 C 6.71875 10.039062 6.816406 10.046875 7.191406 10.152344 C 7.953125 10.359375 8.195312 10.4375 8.578125 10.609375 C 9.132812 10.863281 9.652344 11.132812 9.875 11.285156 C 9.972656 11.355469 10.527344 11.703125 10.730469 11.824219 C 10.765625 11.847656 10.910156 11.949219 11.042969 12.046875 C 11.175781 12.148438 11.300781 12.230469 11.316406 12.230469 C 11.332031 12.230469 11.4375 12.296875 11.550781 12.378906 C 11.667969 12.460938 11.769531 12.527344 11.78125 12.527344 C 11.796875 12.527344 11.957031 12.613281 12.144531 12.71875 C 12.328125 12.824219 12.554688 12.9375 12.644531 12.972656 C 12.734375 13.003906 12.921875 13.082031 13.0625 13.140625 C 13.351562 13.261719 14.160156 13.453125 14.691406 13.554688 C 14.910156 13.171875 15.050781 12.742188 15.050781 12.265625 L 15.050781 12.074219 C 15.023438 12.074219 15.003906 12.085938 14.976562 12.085938 C 14.660156 12.066406 14.246094 11.960938 13.847656 11.816406 C 13.449219 11.667969 13.070312 11.480469 12.832031 11.296875 C 12.753906 11.234375 12.628906 11.144531 12.550781 11.097656 C 12.476562 11.050781 12.351562 10.953125 12.273438 10.886719 C 12.191406 10.8125 12.023438 10.664062 11.890625 10.546875 C 11.601562 10.292969 11.3125 9.984375 11.214844 9.828125 C 11.175781 9.765625 11.128906 9.710938 11.113281 9.710938 C 11.097656 9.710938 11.039062 9.640625 10.988281 9.550781 C 10.933594 9.464844 10.847656 9.339844 10.796875 9.273438 C 10.640625 9.082031 10.285156 8.3125 10.144531 7.851562 C 9.945312 7.203125 9.890625 6.890625 9.832031 6.070312 C 9.78125 5.316406 9.820312 4.09375 9.925781 3.203125 C 9.988281 2.6875 9.976562 1.550781 9.902344 1.023438 C 9.898438 1.003906 9.882812 0.96875 9.878906 0.949219 Z M 8.167969 0.949219 "/>
<path style=" stroke:none;fill-rule:evenodd;fill:rgb(30.588235%,68.627451%,26.666667%);fill-opacity:1;" d="M 10.953125 0.949219 C 11.085938 1.816406 11.101562 2.742188 10.988281 3.59375 C 10.882812 4.355469 10.867188 6.386719 10.957031 6.796875 C 11.175781 7.757812 11.433594 8.390625 11.851562 8.996094 C 12.078125 9.316406 12.238281 9.496094 12.707031 9.933594 C 13.050781 10.253906 13.421875 10.515625 13.796875 10.710938 C 14.179688 10.90625 14.566406 11.03125 14.957031 11.085938 C 14.988281 11.089844 15.019531 11.074219 15.050781 11.074219 L 15.050781 3.734375 C 15.050781 2.191406 13.808594 0.949219 12.265625 0.949219 Z M 10.953125 0.949219 "/>
</g>
</svg>
