<?xml version="1.0" encoding="UTF-8"?>
<svg xmlns="http://www.w3.org/2000/svg" xmlns:xlink="http://www.w3.org/1999/xlink" width="16pt" height="16pt" viewBox="0 0 16 16" version="1.1">
<g id="surface1">
<path style=" stroke:none;fill-rule:evenodd;fill:rgb(100%,55.686275%,12.54902%);fill-opacity:1;" d="M 6.84375 2.929688 L 6.078125 7.609375 L 8.15625 7.609375 C 8.582031 7.609375 8.953125 7.554688 9.273438 7.453125 C 9.59375 7.351562 9.871094 7.203125 10.109375 7.007812 C 10.347656 6.8125 10.542969 6.578125 10.695312 6.289062 C 10.847656 6.003906 10.957031 5.667969 11.023438 5.265625 C 11.085938 4.867188 11.089844 4.53125 11.03125 4.25 C 10.96875 3.964844 10.851562 3.730469 10.675781 3.535156 C 10.503906 3.339844 10.277344 3.1875 9.988281 3.085938 C 9.699219 2.984375 9.347656 2.929688 8.921875 2.929688 Z M 6.84375 2.929688 "/>
<path style=" stroke:none;fill-rule:evenodd;fill:rgb(100%,55.686275%,12.54902%);fill-opacity:1;" d="M 4.859375 15.050781 L 12.265625 15.050781 C 13.808594 15.050781 15.050781 13.808594 15.050781 12.265625 L 15.050781 3.738281 C 15.050781 2.191406 13.808594 0.949219 12.265625 0.949219 L 11.78125 0.949219 C 12.28125 1.144531 12.75 1.375 13.085938 1.722656 C 13.484375 2.132812 13.75 2.644531 13.886719 3.238281 C 14.019531 3.832031 14.027344 4.515625 13.902344 5.265625 C 13.777344 6.023438 13.550781 6.707031 13.222656 7.308594 C 12.890625 7.90625 12.460938 8.417969 11.925781 8.828125 L 11.921875 8.828125 C 11.390625 9.238281 10.773438 9.539062 10.078125 9.734375 C 9.382812 9.933594 8.609375 10.03125 7.761719 10.03125 L 5.683594 10.03125 Z M 4.859375 15.050781 "/>
<path style=" stroke:none;fill-rule:evenodd;fill:rgb(100%,55.686275%,12.54902%);fill-opacity:1;" d="M 4.394531 0.949219 L 3.738281 0.949219 C 2.191406 0.949219 0.949219 2.191406 0.949219 3.738281 L 0.949219 12.265625 C 0.949219 13.214844 1.453125 14.011719 2.175781 14.515625 Z M 4.394531 0.949219 "/>
<path style=" stroke:none;fill-rule:evenodd;fill:rgb(100%,100%,100%);fill-opacity:1;" d="M 4.394531 0.949219 L 2.175781 14.515625 C 2.625 14.828125 3.144531 15.050781 3.738281 15.050781 L 4.859375 15.050781 L 5.683594 10.03125 L 7.761719 10.03125 C 8.609375 10.03125 9.382812 9.933594 10.078125 9.734375 C 10.773438 9.539062 11.390625 9.238281 11.921875 8.828125 L 11.925781 8.828125 C 12.460938 8.417969 12.890625 7.90625 13.222656 7.308594 C 13.550781 6.707031 13.777344 6.023438 13.902344 5.265625 C 14.027344 4.515625 14.019531 3.832031 13.886719 3.238281 C 13.75 2.644531 13.484375 2.132812 13.085938 1.722656 C 12.75 1.375 12.28125 1.144531 11.78125 0.949219 Z M 6.84375 2.929688 L 8.921875 2.929688 C 9.347656 2.929688 9.699219 2.984375 9.988281 3.085938 C 10.277344 3.1875 10.503906 3.339844 10.675781 3.535156 C 10.851562 3.730469 10.96875 3.964844 11.03125 4.25 C 11.089844 4.53125 11.085938 4.867188 11.023438 5.265625 C 10.957031 5.667969 10.847656 6.003906 10.695312 6.289062 C 10.542969 6.578125 10.347656 6.8125 10.109375 7.007812 C 9.871094 7.203125 9.59375 7.351562 9.273438 7.453125 C 8.953125 7.554688 8.582031 7.609375 8.15625 7.609375 L 6.078125 7.609375 Z M 6.84375 2.929688 "/>
</g>
</svg>
