<?xml version="1.0" encoding="UTF-8"?>
<svg xmlns="http://www.w3.org/2000/svg" xmlns:xlink="http://www.w3.org/1999/xlink" width="16pt" height="16pt" viewBox="0 0 16 16" version="1.1">
<g id="surface1">
<path style=" stroke:none;fill-rule:evenodd;fill:rgb(23.529412%,69.019608%,32.941176%);fill-opacity:1;" d="M 3.734375 0.949219 L 12.265625 0.949219 C 13.800781 0.949219 15.050781 2.199219 15.050781 3.734375 L 15.050781 12.265625 C 15.050781 13.800781 13.800781 15.050781 12.265625 15.050781 L 3.734375 15.050781 C 2.199219 15.050781 0.949219 13.800781 0.949219 12.265625 L 0.949219 3.734375 C 0.949219 2.199219 2.199219 0.949219 3.734375 0.949219 Z M 3.734375 0.949219 "/>
<path style=" stroke:none;fill-rule:evenodd;fill:rgb(100%,100%,100%);fill-opacity:1;" d="M 4.75 4.5 C 9.988281 4.671875 12.011719 7.496094 10.996094 10.015625 C 10.707031 10.71875 10.40625 11.101562 9.761719 11.5 C 9.789062 11.398438 9.8125 11.296875 9.835938 11.195312 C 10.214844 9.230469 9.769531 6.804688 6.25 5.5 C 9.050781 6.996094 10.027344 10 8.597656 11.4375 C 6.375 11.75 4.75 10.046875 4.75 8.082031 Z M 4.75 4.5 "/>
</g>
</svg>
