<?xml version="1.0" encoding="UTF-8"?>
<svg xmlns="http://www.w3.org/2000/svg" xmlns:xlink="http://www.w3.org/1999/xlink" width="16pt" height="16pt" viewBox="0 0 16 16" version="1.1">
<g id="surface1">
<path style=" stroke:none;fill-rule:evenodd;fill:rgb(80%,80%,80%);fill-opacity:1;" d="M 3.734375 0.949219 L 12.265625 0.949219 C 13.800781 0.949219 15.050781 2.199219 15.050781 3.734375 L 15.050781 12.265625 C 15.050781 13.800781 13.800781 15.050781 12.265625 15.050781 L 3.734375 15.050781 C 2.199219 15.050781 0.949219 13.800781 0.949219 12.265625 L 0.949219 3.734375 C 0.949219 2.199219 2.199219 0.949219 3.734375 0.949219 Z M 3.734375 0.949219 "/>
<path style=" stroke:none;fill-rule:evenodd;fill:rgb(99.607843%,63.921569%,19.607843%);fill-opacity:1;" d="M 12.761719 14.949219 L 12.761719 8.386719 L 9.761719 6.738281 L 6.761719 8.386719 L 6.761719 15.050781 L 12.261719 15.050781 C 12.441406 15.050781 12.59375 14.984375 12.761719 14.949219 Z M 12.761719 14.949219 "/>
<path style=" stroke:none;fill-rule:evenodd;fill:rgb(30.588235%,30.588235%,30.588235%);fill-opacity:1;" d="M 9.761719 6.238281 L 6.261719 8.035156 L 6.261719 15.050781 L 6.761719 15.050781 L 6.761719 8.386719 L 9.761719 6.738281 L 12.761719 8.386719 L 12.761719 14.949219 C 12.929688 14.914062 13.109375 14.910156 13.261719 14.851562 L 13.261719 8.035156 Z M 9.761719 6.238281 "/>
<path style=" stroke:none;fill-rule:evenodd;fill:rgb(80%,80%,80%);fill-opacity:1;" d="M 3.734375 0.949219 C 2.191406 0.949219 0.949219 2.191406 0.949219 3.738281 L 0.949219 12.265625 C 0.949219 13.808594 2.191406 15.050781 3.734375 15.050781 L 6.261719 15.050781 L 6.261719 8.035156 L 9.761719 6.238281 L 13.261719 8.035156 L 13.261719 14.851562 C 14.308594 14.449219 15.050781 13.453125 15.050781 12.265625 L 15.050781 3.738281 C 15.050781 2.191406 13.808594 0.949219 12.261719 0.949219 Z M 3.734375 0.949219 "/>
<path style=" stroke:none;fill-rule:nonzero;fill:rgb(30.588235%,30.588235%,30.588235%);fill-opacity:1;" d="M 10.761719 8.238281 C 10.761719 8.417969 10.574219 8.582031 10.261719 8.671875 C 9.953125 8.757812 9.574219 8.757812 9.261719 8.671875 C 8.953125 8.582031 8.761719 8.417969 8.761719 8.238281 "/>
</g>
</svg>
