<?xml version="1.0" encoding="UTF-8"?>
<svg xmlns="http://www.w3.org/2000/svg" xmlns:xlink="http://www.w3.org/1999/xlink" width="16pt" height="16pt" viewBox="0 0 16 16" version="1.1">
<g id="surface1">
<path style=" stroke:none;fill-rule:evenodd;fill:rgb(91.764706%,25.490196%,25.490196%);fill-opacity:1;" d="M 3.734375 0.949219 L 12.265625 0.949219 C 13.800781 0.949219 15.050781 2.199219 15.050781 3.734375 L 15.050781 12.265625 C 15.050781 13.800781 13.800781 15.050781 12.265625 15.050781 L 3.734375 15.050781 C 2.199219 15.050781 0.949219 13.800781 0.949219 12.265625 L 0.949219 3.734375 C 0.949219 2.199219 2.199219 0.949219 3.734375 0.949219 Z M 3.734375 0.949219 "/>
<path style=" stroke:none;fill-rule:nonzero;fill:rgb(100%,100%,100%);fill-opacity:1;" d="M 7.5 9.25 C 6.449219 10.648438 6.511719 11.761719 6.25 13.25 C 5.898438 11.671875 6.050781 10.648438 5 9.25 L 6.25 9.5 Z M 7.5 9.25 "/>
<path style=" stroke:none;fill-rule:nonzero;fill:rgb(100%,100%,100%);fill-opacity:1;" d="M 11 9.25 C 9.949219 10.648438 10.011719 11.761719 9.75 13.25 C 9.398438 11.671875 9.550781 10.648438 8.5 9.25 L 9.75 9.5 Z M 11 9.25 "/>
<path style=" stroke:none;fill-rule:nonzero;fill:rgb(100%,100%,100%);fill-opacity:1;" d="M 5 6.25 C 6.398438 7.300781 9.511719 7.238281 11 7.5 C 9.421875 7.851562 6.398438 7.699219 5 8.75 L 5.25 7.5 Z M 5 6.25 "/>
<path style=" stroke:none;fill-rule:nonzero;fill:rgb(100%,100%,100%);fill-opacity:1;" d="M 5 2.75 C 6.398438 3.800781 9.511719 3.738281 11 4 C 9.421875 4.351562 6.398438 4.199219 5 5.25 L 5.25 4 Z M 5 2.75 "/>
<path style=" stroke:none;fill-rule:nonzero;fill:rgb(100%,100%,100%);fill-opacity:1;" d="M 6 4.5 C 7.398438 5.550781 8.511719 5.488281 10 5.75 C 8.421875 6.101562 7.398438 5.949219 6 7 L 6.25 5.75 Z M 6 4.5 "/>
</g>
</svg>
