<?xml version="1.0" encoding="UTF-8"?>
<svg xmlns="http://www.w3.org/2000/svg" xmlns:xlink="http://www.w3.org/1999/xlink" width="16pt" height="16pt" viewBox="0 0 16 16" version="1.1">
<g id="surface1">
<path style=" stroke:none;fill-rule:evenodd;fill:rgb(0.784314%,52.54902%,76.078431%);fill-opacity:1;" d="M 3.734375 0.949219 L 12.265625 0.949219 C 13.800781 0.949219 15.050781 2.199219 15.050781 3.734375 L 15.050781 12.265625 C 15.050781 13.800781 13.800781 15.050781 12.265625 15.050781 L 3.734375 15.050781 C 2.199219 15.050781 0.949219 13.800781 0.949219 12.265625 L 0.949219 3.734375 C 0.949219 2.199219 2.199219 0.949219 3.734375 0.949219 Z M 3.734375 0.949219 "/>
<path style=" stroke:none;fill-rule:nonzero;fill:rgb(92.54902%,92.54902%,92.54902%);fill-opacity:1;" d="M 5.507812 4.25 C 4.890625 4.242188 4.15625 4.890625 4.023438 6.722656 C 3.878906 8.679688 4.4375 8.871094 5.039062 8.871094 C 5.542969 8.871094 5.945312 8.621094 6.390625 8.105469 C 6.453125 8.027344 6.53125 7.984375 6.558594 8.015625 C 6.589844 8.042969 6.609375 8.066406 6.609375 8.0625 C 6.605469 8.0625 6.574219 8.140625 6.542969 8.238281 C 6.453125 8.507812 6.324219 9.035156 6.457031 9.40625 C 6.492188 9.503906 6.5625 9.492188 6.59375 9.390625 C 6.664062 9.15625 6.800781 8.75 6.949219 8.546875 C 7.007812 8.460938 7.078125 8.511719 7.078125 8.613281 C 7.058594 9.242188 7.261719 10.390625 8.1875 11.121094 C 9.15625 11.882812 10.566406 11.863281 11.332031 11.535156 C 11.425781 11.496094 11.574219 11.5 11.671875 11.515625 C 11.734375 11.527344 11.8125 11.535156 11.910156 11.53125 C 12.191406 11.515625 11.71875 11.273438 11.6875 11.144531 C 11.65625 11.015625 11.910156 10.988281 11.960938 10.578125 C 12.011719 10.167969 11.6875 10.5625 11.6875 10.5625 C 11.6875 10.5625 11.453125 10.84375 10.503906 10.78125 C 9.632812 10.726562 8.59375 10.277344 8.628906 8.695312 C 8.632812 8.59375 8.664062 8.5 8.695312 8.488281 C 8.726562 8.476562 8.8125 8.519531 8.863281 8.609375 C 8.996094 8.828125 9.113281 9.179688 9.179688 9.390625 C 9.207031 9.492188 9.28125 9.507812 9.316406 9.410156 C 9.433594 9.085938 9.347656 8.644531 9.265625 8.355469 C 9.238281 8.257812 9.265625 8.132812 9.332031 8.070312 C 9.398438 8.007812 9.5 8.015625 9.566406 8.09375 C 10.011719 8.617188 10.417969 8.875 10.921875 8.875 C 11.523438 8.875 12.078125 8.679688 11.9375 6.722656 C 11.796875 4.765625 10.96875 4.164062 10.328125 4.261719 C 9.917969 4.324219 9.632812 4.535156 9.484375 4.675781 C 9.40625 4.75 9.359375 4.820312 9.359375 4.828125 C 9.359375 4.835938 9.296875 4.785156 9.21875 4.71875 C 8.875 4.433594 8.441406 4.261719 7.972656 4.261719 C 7.511719 4.261719 7.082031 4.425781 6.738281 4.707031 C 6.660156 4.773438 6.601562 4.828125 6.601562 4.824219 C 6.601562 4.820312 6.550781 4.75 6.476562 4.679688 C 6.328125 4.535156 6.042969 4.324219 5.628906 4.261719 C 5.589844 4.253906 5.550781 4.25 5.507812 4.25 Z M 7.25 5.75 C 7.386719 5.75 7.5 5.863281 7.5 6 C 7.5 6.140625 7.386719 6.25 7.25 6.25 C 7.109375 6.25 7 6.140625 7 6 C 7 5.863281 7.109375 5.75 7.25 5.75 Z M 8.75 5.75 C 8.886719 5.75 9 5.863281 9 6 C 9 6.140625 8.886719 6.25 8.75 6.25 C 8.609375 6.25 8.5 6.140625 8.5 6 C 8.5 5.863281 8.609375 5.75 8.75 5.75 Z M 8.75 5.75 "/>
</g>
</svg>
