<?xml version="1.0" encoding="UTF-8"?>
<svg xmlns="http://www.w3.org/2000/svg" xmlns:xlink="http://www.w3.org/1999/xlink" width="16pt" height="16pt" viewBox="0 0 16 16" version="1.1">
<g id="surface1">
<path style=" stroke:none;fill-rule:evenodd;fill:rgb(32.941176%,69.803922%,24.705882%);fill-opacity:1;" d="M 3.734375 0.949219 L 12.265625 0.949219 C 13.800781 0.949219 15.050781 2.199219 15.050781 3.734375 L 15.050781 12.265625 C 15.050781 13.800781 13.800781 15.050781 12.265625 15.050781 L 3.734375 15.050781 C 2.199219 15.050781 0.949219 13.800781 0.949219 12.265625 L 0.949219 3.734375 C 0.949219 2.199219 2.199219 0.949219 3.734375 0.949219 Z M 3.734375 0.949219 "/>
<path style=" stroke:none;fill-rule:nonzero;fill:rgb(30.980392%,30.980392%,30.980392%);fill-opacity:1;" d="M 8 3.617188 C 4.910156 3.617188 2.421875 6.355469 2.421875 8 C 2.421875 9.644531 4.910156 12.382812 8 12.382812 C 11.089844 12.382812 13.578125 9.644531 13.578125 8 C 13.578125 6.355469 11.089844 3.617188 8 3.617188 Z M 8 3.617188 "/>
<path style=" stroke:none;fill-rule:nonzero;fill:rgb(32.941176%,69.803922%,24.705882%);fill-opacity:1;" d="M 7.621094 4.59375 C 7.453125 4.59375 7.320312 4.78125 7.320312 5.011719 L 7.320312 5.363281 C 7.074219 5.425781 6.835938 5.527344 6.617188 5.65625 L 6.367188 5.40625 C 6.203125 5.242188 5.976562 5.203125 5.859375 5.324219 L 5.324219 5.859375 C 5.203125 5.976562 5.242188 6.203125 5.40625 6.367188 L 5.65625 6.617188 C 5.527344 6.835938 5.429688 7.074219 5.367188 7.320312 L 5.011719 7.320312 C 4.78125 7.320312 4.59375 7.453125 4.59375 7.621094 L 4.59375 8.378906 C 4.59375 8.546875 4.78125 8.679688 5.011719 8.679688 L 5.363281 8.679688 C 5.425781 8.925781 5.527344 9.164062 5.65625 9.382812 L 5.40625 9.628906 C 5.242188 9.796875 5.203125 10.023438 5.324219 10.140625 L 5.859375 10.675781 C 5.976562 10.796875 6.203125 10.757812 6.367188 10.59375 L 6.617188 10.34375 C 6.835938 10.472656 7.074219 10.570312 7.320312 10.632812 L 7.320312 10.988281 C 7.320312 11.21875 7.453125 11.40625 7.621094 11.40625 L 8.378906 11.40625 C 8.546875 11.40625 8.679688 11.21875 8.679688 10.988281 L 8.679688 10.636719 C 8.925781 10.570312 9.164062 10.472656 9.382812 10.34375 L 9.628906 10.59375 C 9.796875 10.757812 10.023438 10.796875 10.140625 10.675781 L 10.675781 10.140625 C 10.796875 10.019531 10.757812 9.796875 10.59375 9.628906 L 10.34375 9.382812 C 10.472656 9.164062 10.570312 8.925781 10.632812 8.679688 L 10.988281 8.679688 C 11.21875 8.679688 11.40625 8.546875 11.40625 8.378906 L 11.40625 7.621094 C 11.40625 7.453125 11.21875 7.320312 10.988281 7.320312 L 10.636719 7.320312 C 10.574219 7.074219 10.472656 6.835938 10.34375 6.617188 L 10.59375 6.367188 C 10.757812 6.203125 10.796875 5.976562 10.675781 5.859375 L 10.140625 5.324219 C 10.023438 5.203125 9.796875 5.242188 9.632812 5.40625 L 9.382812 5.65625 C 9.164062 5.527344 8.925781 5.429688 8.679688 5.367188 L 8.679688 5.011719 C 8.679688 4.78125 8.546875 4.59375 8.378906 4.59375 Z M 8 6.636719 C 8.75 6.636719 9.363281 7.25 9.363281 8 C 9.363281 8.75 8.75 9.363281 8 9.363281 C 7.25 9.363281 6.636719 8.75 6.636719 8 C 6.636719 7.25 7.25 6.636719 8 6.636719 Z M 8 6.636719 "/>
</g>
</svg>
