<?xml version="1.0" encoding="UTF-8"?>
<svg xmlns="http://www.w3.org/2000/svg" xmlns:xlink="http://www.w3.org/1999/xlink" width="16pt" height="16pt" viewBox="0 0 16 16" version="1.1">
<g id="surface1">
<path style=" stroke:none;fill-rule:evenodd;fill:rgb(30.980392%,30.980392%,30.980392%);fill-opacity:1;" d="M 3.734375 0.949219 L 12.265625 0.949219 C 13.800781 0.949219 15.050781 2.199219 15.050781 3.734375 L 15.050781 12.265625 C 15.050781 13.800781 13.800781 15.050781 12.265625 15.050781 L 3.734375 15.050781 C 2.199219 15.050781 0.949219 13.800781 0.949219 12.265625 L 0.949219 3.734375 C 0.949219 2.199219 2.199219 0.949219 3.734375 0.949219 Z M 3.734375 0.949219 "/>
<path style=" stroke:none;fill-rule:nonzero;fill:rgb(100%,100%,100%);fill-opacity:1;" d="M 13.367188 2.632812 L 12.027344 2.632812 L 12.027344 3.972656 L 13.367188 3.972656 Z M 13.367188 12.027344 L 12.027344 12.027344 L 12.027344 13.367188 L 13.367188 13.367188 Z M 10.234375 2.632812 L 8.894531 2.632812 L 8.894531 3.972656 L 10.234375 3.972656 Z M 10.234375 12.027344 L 8.894531 12.027344 L 8.894531 13.367188 L 10.234375 13.367188 Z M 7.105469 2.632812 L 5.765625 2.632812 L 5.765625 3.972656 L 7.105469 3.972656 Z M 7.105469 12.027344 L 5.765625 12.027344 L 5.765625 13.367188 L 7.105469 13.367188 Z M 3.972656 2.632812 L 2.632812 2.632812 L 2.632812 3.972656 L 3.972656 3.972656 Z M 3.972656 12.027344 L 2.632812 12.027344 L 2.632812 13.367188 L 3.972656 13.367188 Z M 3.972656 12.027344 "/>
<path style=" stroke:none;fill-rule:nonzero;fill:rgb(74.509804%,100%,29.803922%);fill-opacity:1;" d="M 7.550781 8.449219 C 7.023438 9.304688 5.851562 9.59375 4.933594 9.101562 C 4.015625 8.609375 3.703125 7.515625 4.230469 6.65625 Z M 7.550781 8.449219 "/>
<path style=" stroke:none;fill-rule:nonzero;fill:rgb(17.254902%,17.254902%,17.254902%);fill-opacity:1;" d="M 5.71875 7.457031 C 5.640625 7.984375 5.796875 8.617188 6.195312 9.3125 C 6.195312 9.3125 6.199219 9.3125 6.199219 9.3125 C 5.984375 8.8125 6.015625 8.25 6.210938 7.726562 Z M 5.71875 7.457031 "/>
<path style=" stroke:none;fill-rule:nonzero;fill:rgb(74.509804%,100%,29.803922%);fill-opacity:1;" d="M 8.449219 8.449219 C 8.976562 9.304688 10.148438 9.597656 11.066406 9.101562 C 11.984375 8.609375 12.296875 7.515625 11.769531 6.65625 Z M 8.449219 8.449219 "/>
<path style=" stroke:none;fill-rule:nonzero;fill:rgb(17.254902%,17.254902%,17.254902%);fill-opacity:1;" d="M 10.28125 7.457031 L 9.789062 7.726562 C 9.984375 8.25 10.015625 8.8125 9.800781 9.3125 C 9.800781 9.3125 9.804688 9.3125 9.804688 9.3125 C 10.203125 8.617188 10.359375 7.984375 10.28125 7.457031 Z M 10.28125 7.457031 "/>
</g>
</svg>
