<?xml version="1.0" encoding="UTF-8"?>
<svg xmlns="http://www.w3.org/2000/svg" xmlns:xlink="http://www.w3.org/1999/xlink" width="16pt" height="16pt" viewBox="0 0 16 16" version="1.1">
<g id="surface1">
<path style=" stroke:none;fill-rule:evenodd;fill:rgb(94.901961%,94.901961%,94.901961%);fill-opacity:1;" d="M 3.734375 0.949219 L 12.265625 0.949219 C 13.800781 0.949219 15.050781 2.199219 15.050781 3.734375 L 15.050781 12.265625 C 15.050781 13.800781 13.800781 15.050781 12.265625 15.050781 L 3.734375 15.050781 C 2.199219 15.050781 0.949219 13.800781 0.949219 12.265625 L 0.949219 3.734375 C 0.949219 2.199219 2.199219 0.949219 3.734375 0.949219 Z M 3.734375 0.949219 "/>
<path style=" stroke:none;fill-rule:nonzero;fill:rgb(21.568627%,62.745098%,94.901961%);fill-opacity:1;" d="M 8.066406 8.019531 C 9.378906 10.410156 8.773438 14.953125 6.484375 13.632812 C 5.8125 13.242188 5.550781 12.835938 5.507812 12.453125 C 5.15625 12.609375 4.671875 12.585938 4 12.199219 C 1.453125 10.730469 5.34375 8.078125 8.066406 8.023438 "/>
<path style=" stroke:none;fill-rule:nonzero;fill:rgb(90.588235%,29.803922%,23.529412%);fill-opacity:1;" d="M 8.066406 8.019531 C 8.160156 8.019531 8.25 8.015625 8.347656 8.007812 C 11.03125 7.777344 14.347656 5.125 12.132812 3.84375 C 11.464844 3.457031 10.980469 3.4375 10.625 3.585938 C 10.582031 3.207031 10.324219 2.796875 9.652344 2.410156 C 7.21875 1.007812 6.789062 5.226562 7.902344 7.6875 C 7.953125 7.804688 7.933594 7.925781 7.988281 8.03125 "/>
<path style=" stroke:none;fill-rule:nonzero;fill:rgb(99.607843%,80.392157%,21.960784%);fill-opacity:1;" d="M 7.980469 8.046875 C 8.035156 10.769531 10.832031 14.40625 12.15625 12.109375 C 12.542969 11.441406 12.5625 10.957031 12.414062 10.605469 C 12.792969 10.5625 13.203125 10.300781 13.589844 9.628906 C 15.058594 7.085938 10.367188 6.734375 7.980469 8.046875 "/>
<path style=" stroke:none;fill-rule:nonzero;fill:rgb(64.313725%,77.647059%,22.352941%);fill-opacity:1;" d="M 7.980469 8.046875 C 5.589844 9.359375 1.046875 8.753906 2.367188 6.460938 C 2.757812 5.792969 3.164062 5.53125 3.546875 5.484375 C 3.390625 5.132812 3.414062 4.652344 3.800781 3.980469 C 5.269531 1.433594 7.921875 5.320312 7.976562 8.042969 "/>
</g>
</svg>
