<?xml version="1.0" encoding="UTF-8"?>
<svg xmlns="http://www.w3.org/2000/svg" xmlns:xlink="http://www.w3.org/1999/xlink" width="16pt" height="16pt" viewBox="0 0 16 16" version="1.1">
<g id="surface1">
<path style=" stroke:none;fill-rule:evenodd;fill:rgb(93.333333%,25.098039%,33.72549%);fill-opacity:1;" d="M 3.734375 0.949219 L 12.265625 0.949219 C 13.800781 0.949219 15.050781 2.199219 15.050781 3.734375 L 15.050781 12.265625 C 15.050781 13.800781 13.800781 15.050781 12.265625 15.050781 L 3.734375 15.050781 C 2.199219 15.050781 0.949219 13.800781 0.949219 12.265625 L 0.949219 3.734375 C 0.949219 2.199219 2.199219 0.949219 3.734375 0.949219 Z M 3.734375 0.949219 "/>
<path style=" stroke:none;fill-rule:nonzero;fill:rgb(100%,100%,100%);fill-opacity:1;" d="M 4.480469 4 C 3.9375 4 3.5 4.453125 3.5 5.011719 C 3.5 9.160156 4.234375 12.015625 8 12 C 11.765625 11.984375 12.5 9.15625 12.5 5.011719 C 12.5 4.453125 12.0625 4 11.519531 4 Z M 5.894531 6.277344 C 6.050781 6.277344 6.210938 6.335938 6.328125 6.457031 L 8 8.109375 L 9.671875 6.410156 C 9.789062 6.285156 9.945312 6.226562 10.101562 6.226562 C 10.261719 6.226562 10.417969 6.285156 10.539062 6.410156 C 10.78125 6.652344 10.78125 7.050781 10.539062 7.292969 L 8.480469 9.378906 C 8.347656 9.511719 8.171875 9.566406 8 9.554688 C 7.828125 9.566406 7.652344 9.511719 7.519531 9.378906 L 5.460938 7.292969 C 5.21875 7.050781 5.21875 6.652344 5.460938 6.410156 C 5.582031 6.285156 5.738281 6.226562 5.894531 6.226562 Z M 5.894531 6.277344 "/>
</g>
</svg>
