<?xml version="1.0" encoding="UTF-8"?>
<svg xmlns="http://www.w3.org/2000/svg" xmlns:xlink="http://www.w3.org/1999/xlink" width="16pt" height="16pt" viewBox="0 0 16 16" version="1.1">
<g id="surface1">
<path style=" stroke:none;fill-rule:evenodd;fill:rgb(75.686275%,17.647059%,14.509804%);fill-opacity:1;" d="M 3.734375 0.949219 L 12.265625 0.949219 C 13.800781 0.949219 15.050781 2.199219 15.050781 3.734375 L 15.050781 12.265625 C 15.050781 13.800781 13.800781 15.050781 12.265625 15.050781 L 3.734375 15.050781 C 2.199219 15.050781 0.949219 13.800781 0.949219 12.265625 L 0.949219 3.734375 C 0.949219 2.199219 2.199219 0.949219 3.734375 0.949219 Z M 3.734375 0.949219 "/>
<path style=" stroke:none;fill-rule:nonzero;fill:rgb(75.686275%,17.647059%,14.509804%);fill-opacity:1;" d="M 14.050781 8 C 14.050781 4.65625 11.34375 1.949219 8 1.949219 C 4.65625 1.949219 1.949219 4.65625 1.949219 8 C 1.949219 11.34375 4.65625 14.050781 8 14.050781 C 11.34375 14.050781 14.050781 11.34375 14.050781 8 Z M 14.050781 8 "/>
<path style=" stroke:none;fill-rule:nonzero;fill:rgb(100%,100%,100%);fill-opacity:1;" d="M 8 1.949219 C 7.554688 1.949219 7.121094 2 6.703125 2.089844 L 6.703125 4.871094 L 4.738281 2.902344 C 4 3.375 3.375 4 2.902344 4.738281 L 4.871094 6.703125 L 2.089844 6.703125 C 2 7.121094 1.949219 7.554688 1.949219 8 C 1.949219 8.445312 2 8.878906 2.089844 9.296875 L 4.871094 9.296875 L 2.902344 11.261719 C 3.375 12 4 12.625 4.738281 13.097656 L 6.703125 11.128906 L 6.703125 13.910156 C 7.121094 14 7.554688 14.050781 8 14.050781 C 8.445312 14.050781 8.878906 14 9.296875 13.910156 L 9.296875 11.128906 L 11.261719 13.097656 C 12 12.625 12.625 12 13.097656 11.261719 L 11.128906 9.296875 L 13.910156 9.296875 C 14 8.878906 14.050781 8.445312 14.050781 8 C 14.050781 7.554688 14 7.121094 13.910156 6.703125 L 11.128906 6.703125 L 13.097656 4.738281 C 12.625 4 12 3.375 11.261719 2.902344 L 9.296875 4.871094 L 9.296875 2.089844 C 8.878906 2 8.445312 1.949219 8 1.949219 Z M 8 1.949219 "/>
<path style=" stroke:none;fill-rule:nonzero;fill:rgb(100%,79.607843%,1.960784%);fill-opacity:1;" d="M 13.1875 8 C 13.1875 5.136719 10.863281 2.8125 8 2.8125 C 5.136719 2.8125 2.8125 5.136719 2.8125 8 C 2.8125 10.863281 5.136719 13.1875 8 13.1875 C 10.863281 13.1875 13.1875 10.863281 13.1875 8 Z M 13.1875 8 "/>
<path style=" stroke:none;fill-rule:nonzero;fill:rgb(75.686275%,17.647059%,14.509804%);fill-opacity:1;" d="M 12.324219 8 C 12.324219 5.613281 10.386719 3.675781 8 3.675781 C 5.613281 3.675781 3.675781 5.613281 3.675781 8 C 3.675781 10.386719 5.613281 12.324219 8 12.324219 C 10.386719 12.324219 12.324219 10.386719 12.324219 8 Z M 12.324219 8 "/>
<path style=" stroke:none;fill-rule:nonzero;fill:rgb(100%,98.823529%,96.862745%);fill-opacity:1;" d="M 5.839844 5.839844 L 6.703125 5.839844 L 6.703125 10.160156 L 5.839844 10.160156 Z M 5.839844 5.839844 "/>
<path style=" stroke:none;fill-rule:nonzero;fill:rgb(100%,98.823529%,96.862745%);fill-opacity:1;" d="M 7.566406 5.839844 L 7.566406 6.703125 L 4.972656 6.703125 L 4.972656 5.839844 Z M 7.566406 5.839844 "/>
<path style=" stroke:none;fill-rule:nonzero;fill:rgb(100%,98.823529%,96.862745%);fill-opacity:1;" d="M 8 5.839844 L 8.863281 5.839844 L 8.863281 10.160156 L 8 10.160156 Z M 8 5.839844 "/>
<path style=" stroke:none;fill-rule:nonzero;fill:rgb(100%,98.823529%,96.862745%);fill-opacity:1;" d="M 10.59375 7.566406 L 10.59375 8.433594 L 8 8.433594 L 8 7.566406 Z M 10.59375 7.566406 "/>
<path style=" stroke:none;fill-rule:nonzero;fill:rgb(100%,98.823529%,96.862745%);fill-opacity:1;" d="M 9.730469 5.839844 L 10.59375 5.839844 L 10.59375 10.160156 L 9.730469 10.160156 Z M 9.730469 5.839844 "/>
</g>
</svg>
