<?xml version="1.0" encoding="UTF-8"?>
<svg xmlns="http://www.w3.org/2000/svg" xmlns:xlink="http://www.w3.org/1999/xlink" width="16pt" height="16pt" viewBox="0 0 16 16" version="1.1">
<g id="surface1">
<path style=" stroke:none;fill-rule:evenodd;fill:rgb(100%,22.352941%,22.352941%);fill-opacity:1;" d="M 3.734375 0.949219 L 12.265625 0.949219 C 13.800781 0.949219 15.050781 2.199219 15.050781 3.734375 L 15.050781 12.265625 C 15.050781 13.800781 13.800781 15.050781 12.265625 15.050781 L 3.734375 15.050781 C 2.199219 15.050781 0.949219 13.800781 0.949219 12.265625 L 0.949219 3.734375 C 0.949219 2.199219 2.199219 0.949219 3.734375 0.949219 Z M 3.734375 0.949219 "/>
<path style=" stroke:none;fill-rule:nonzero;fill:rgb(100%,91.372549%,70.980392%);fill-opacity:1;" d="M 9.015625 8.375 C 10.761719 8.3125 11.824219 8.132812 11.917969 7.875 C 11.9375 7.820312 11.929688 7.808594 11.875 7.757812 L 11.808594 7.703125 L 11.863281 7.671875 C 11.890625 7.652344 11.964844 7.59375 12.023438 7.539062 C 12.410156 7.191406 12.320312 6.5625 11.84375 6.261719 C 11.78125 6.222656 11.734375 6.175781 11.738281 6.164062 C 11.953125 5.683594 11.996094 5.507812 12.007812 5.058594 C 12.019531 4.671875 11.996094 4.476562 11.894531 4.171875 C 11.609375 3.324219 10.839844 2.597656 9.921875 2.316406 C 9.574219 2.207031 9.402344 2.183594 9.015625 2.183594 C 8.691406 2.183594 8.628906 2.191406 8.429688 2.242188 C 7.582031 2.460938 6.992188 2.957031 6.496094 3.867188 C 6.433594 3.984375 6.378906 4.078125 6.375 4.078125 C 6.371094 4.078125 6.277344 3.984375 6.164062 3.878906 C 5.847656 3.574219 5.574219 3.4375 5.226562 3.417969 C 4.984375 3.40625 4.832031 3.4375 4.605469 3.546875 C 4.277344 3.707031 4.007812 4.046875 3.921875 4.410156 C 3.824219 4.808594 3.945312 5.253906 4.246094 5.609375 L 4.328125 5.710938 L 4.269531 5.75 C 4.113281 5.855469 3.894531 6.097656 3.824219 6.246094 C 3.675781 6.542969 3.714844 6.898438 3.917969 7.171875 C 4.027344 7.3125 4.1875 7.425781 4.308594 7.445312 C 4.355469 7.453125 4.398438 7.464844 4.402344 7.472656 C 4.40625 7.480469 4.398438 7.550781 4.390625 7.628906 C 4.363281 7.8125 4.394531 7.878906 4.550781 7.96875 C 5.085938 8.269531 6.976562 8.441406 9.015625 8.375 Z M 9.015625 8.375 "/>
<path style=" stroke:none;fill-rule:nonzero;fill:rgb(100%,100%,100%);fill-opacity:1;" d="M 8.898438 13.769531 C 9.628906 13.675781 10.28125 13.472656 10.753906 13.1875 C 10.921875 13.085938 11.230469 12.847656 11.257812 12.796875 C 11.265625 12.773438 11.417969 11.644531 11.589844 10.285156 C 11.910156 7.730469 11.917969 7.628906 11.828125 7.613281 C 11.808594 7.609375 11.78125 7.628906 11.765625 7.65625 C 11.652344 7.863281 11.003906 8.019531 9.832031 8.121094 C 9.300781 8.167969 7.546875 8.1875 6.878906 8.15625 C 5.476562 8.085938 4.574219 7.941406 4.242188 7.734375 C 4.183594 7.699219 4.128906 7.671875 4.125 7.679688 C 4.117188 7.6875 4.25 8.835938 4.421875 10.230469 L 4.738281 12.765625 L 4.820312 12.851562 C 4.921875 12.957031 5.246094 13.171875 5.472656 13.285156 C 6 13.546875 6.753906 13.738281 7.519531 13.804688 C 7.835938 13.828125 8.578125 13.8125 8.898438 13.769531 Z M 8.898438 13.769531 "/>
<path style=" stroke:none;fill-rule:nonzero;fill:rgb(10.588235%,10.588235%,10.588235%);fill-opacity:1;" d="M 10.714844 5.480469 C 10.714844 5.800781 10.453125 6.0625 10.132812 6.0625 C 9.8125 6.0625 9.550781 5.800781 9.550781 5.480469 C 9.550781 5.15625 9.8125 4.898438 10.132812 4.898438 C 10.453125 4.898438 10.714844 5.15625 10.714844 5.480469 Z M 10.714844 5.480469 "/>
<path style=" stroke:none;fill-rule:nonzero;fill:rgb(58.431373%,14.509804%,14.509804%);fill-opacity:1;" d="M 9.164062 6.835938 C 9.164062 7.265625 8.640625 7.613281 8 7.613281 C 7.359375 7.613281 6.835938 7.265625 6.835938 6.835938 C 8.03125 6.960938 9.164062 6.835938 9.164062 6.835938 Z M 9.164062 6.835938 "/>
<path style=" stroke:none;fill-rule:nonzero;fill:rgb(10.588235%,10.588235%,10.588235%);fill-opacity:1;" d="M 6.449219 5.480469 C 6.449219 5.800781 6.1875 6.0625 5.867188 6.0625 C 5.546875 6.0625 5.285156 5.800781 5.285156 5.480469 C 5.285156 5.15625 5.546875 4.898438 5.867188 4.898438 C 6.1875 4.898438 6.449219 5.15625 6.449219 5.480469 Z M 6.449219 5.480469 "/>
<path style=" stroke:none;fill-rule:nonzero;fill:rgb(100%,22.352941%,22.352941%);fill-opacity:1;" d="M 11.078125 8.417969 C 10.734375 8.515625 10.339844 8.59375 9.898438 8.65625 L 9.609375 13.246094 C 10.046875 13.136719 10.441406 12.988281 10.753906 12.800781 C 10.769531 12.792969 10.789062 12.773438 10.804688 12.765625 Z M 4.921875 8.417969 L 5.195312 12.734375 C 5.289062 12.792969 5.390625 12.855469 5.472656 12.898438 C 5.734375 13.027344 6.046875 13.136719 6.390625 13.222656 L 6.101562 8.652344 C 5.664062 8.59375 5.265625 8.515625 4.921875 8.417969 Z M 7.222656 8.753906 L 7.222656 13.378906 C 7.324219 13.390625 7.421875 13.40625 7.519531 13.417969 C 7.808594 13.441406 8.421875 13.425781 8.777344 13.390625 L 8.777344 8.757812 C 8.519531 8.769531 8.261719 8.777344 8 8.777344 C 7.738281 8.777344 7.480469 8.769531 7.222656 8.753906 Z M 7.222656 8.753906 "/>
</g>
</svg>
