<?xml version="1.0" encoding="UTF-8"?>
<svg xmlns="http://www.w3.org/2000/svg" xmlns:xlink="http://www.w3.org/1999/xlink" width="16pt" height="16pt" viewBox="0 0 16 16" version="1.1">
<g id="surface1">
<path style=" stroke:none;fill-rule:evenodd;fill:rgb(94.901961%,94.901961%,94.901961%);fill-opacity:1;" d="M 3.4375 0.949219 L 11.964844 0.949219 C 13.503906 0.949219 14.753906 2.199219 14.753906 3.734375 L 14.753906 12.265625 C 14.753906 13.800781 13.503906 15.050781 11.964844 15.050781 L 3.4375 15.050781 C 1.898438 15.050781 0.652344 13.800781 0.652344 12.265625 L 0.652344 3.734375 C 0.652344 2.199219 1.898438 0.949219 3.4375 0.949219 Z M 3.4375 0.949219 "/>
<path style=" stroke:none;fill-rule:nonzero;fill:rgb(33.72549%,66.666667%,83.137255%);fill-opacity:1;" d="M 14.753906 8 C 14.753906 11.894531 11.597656 15.050781 7.703125 15.050781 C 3.808594 15.050781 0.648438 11.894531 0.648438 8 C 0.648438 4.105469 3.808594 0.949219 7.703125 0.949219 C 11.597656 0.949219 14.753906 4.105469 14.753906 8 Z M 14.753906 8 "/>
<path style=" stroke:none;fill-rule:evenodd;fill:rgb(33.72549%,66.666667%,83.137255%);fill-opacity:1;" d="M 11.34375 0.949219 L 6.660156 0.949219 L 10.707031 4.996094 C 10.75 5.042969 10.796875 5.089844 10.839844 5.136719 C 10.9375 5.242188 11.027344 5.351562 11.109375 5.46875 C 11.195312 5.578125 11.273438 5.699219 11.34375 5.820312 Z M 11.34375 0.949219 "/>
<path style=" stroke:none;fill-rule:evenodd;fill:rgb(33.72549%,66.666667%,83.137255%);fill-opacity:1;" d="M 14.753906 6.101562 L 14.753906 3.734375 C 14.753906 2.191406 13.511719 0.949219 11.964844 0.949219 L 11.953125 0.949219 L 11.953125 8 C 11.953125 8.066406 11.949219 8.128906 11.945312 8.195312 C 11.9375 8.335938 11.925781 8.476562 11.90625 8.617188 C 11.882812 8.757812 11.855469 8.898438 11.820312 9.035156 Z M 13.753906 2.035156 C 13.832031 2.117188 13.910156 2.203125 13.984375 2.289062 C 13.90625 2.203125 13.835938 2.117188 13.753906 2.035156 Z M 14.28125 2.625 C 14.359375 2.726562 14.4375 2.828125 14.515625 2.929688 C 14.4375 2.828125 14.359375 2.726562 14.28125 2.625 Z M 14.757812 3.269531 C 14.828125 3.375 14.894531 3.488281 14.964844 3.597656 C 14.898438 3.488281 14.828125 3.378906 14.757812 3.269531 Z M 15.171875 3.960938 C 15.234375 4.074219 15.292969 4.1875 15.351562 4.308594 C 15.292969 4.191406 15.234375 4.074219 15.171875 3.960938 Z M 15.171875 3.960938 "/>
<path style=" stroke:none;fill-rule:evenodd;fill:rgb(33.72549%,66.666667%,83.137255%);fill-opacity:1;" d="M 14.753906 11.640625 L 14.753906 6.957031 L 10.707031 11.003906 C 10.660156 11.050781 10.613281 11.09375 10.5625 11.140625 C 10.460938 11.234375 10.347656 11.324219 10.234375 11.40625 C 10.121094 11.492188 10.003906 11.570312 9.882812 11.640625 Z M 14.753906 11.640625 "/>
<path style=" stroke:none;fill-rule:evenodd;fill:rgb(33.72549%,66.666667%,83.137255%);fill-opacity:1;" d="M 9.601562 15.050781 L 11.964844 15.050781 C 13.511719 15.050781 14.753906 13.808594 14.753906 12.265625 L 14.753906 12.25 L 7.703125 12.25 C 7.636719 12.25 7.570312 12.25 7.507812 12.246094 C 7.367188 12.238281 7.222656 12.222656 7.085938 12.203125 C 6.945312 12.179688 6.804688 12.152344 6.667969 12.117188 Z M 13.664062 14.050781 C 13.589844 14.125 13.511719 14.195312 13.429688 14.265625 C 13.507812 14.195312 13.589844 14.125 13.664062 14.050781 Z M 13.070312 14.585938 C 12.976562 14.65625 12.882812 14.730469 12.789062 14.796875 C 12.882812 14.726562 12.980469 14.660156 13.070312 14.585938 Z M 13.070312 14.585938 "/>
<path style=" stroke:none;fill-rule:evenodd;fill:rgb(33.72549%,66.666667%,83.137255%);fill-opacity:1;" d="M 4.058594 15.050781 L 8.742188 15.050781 L 4.699219 11.003906 C 4.652344 10.957031 4.609375 10.910156 4.5625 10.863281 C 4.46875 10.757812 4.378906 10.648438 4.296875 10.53125 C 4.210938 10.421875 4.132812 10.300781 4.058594 10.179688 Z M 4.058594 15.050781 "/>
<path style=" stroke:none;fill-rule:evenodd;fill:rgb(33.72549%,66.666667%,83.137255%);fill-opacity:1;" d="M 0.652344 9.898438 L 0.652344 12.265625 C 0.652344 13.808594 1.894531 15.050781 3.4375 15.050781 L 3.453125 15.050781 L 3.453125 8 C 3.453125 7.933594 3.453125 7.871094 3.457031 7.804688 C 3.464844 7.664062 3.480469 7.523438 3.5 7.382812 C 3.519531 7.242188 3.550781 7.105469 3.585938 6.964844 Z M 0.878906 13.054688 C 0.960938 13.164062 1.039062 13.269531 1.125 13.375 C 1.039062 13.269531 0.957031 13.164062 0.878906 13.054688 Z M 1.417969 13.710938 C 1.496094 13.796875 1.570312 13.882812 1.648438 13.964844 C 1.570312 13.878906 1.496094 13.796875 1.417969 13.710938 Z M 1.417969 13.710938 "/>
<path style=" stroke:none;fill-rule:evenodd;fill:rgb(33.72549%,66.666667%,83.137255%);fill-opacity:1;" d="M 0.652344 4.359375 L 0.652344 9.042969 L 4.699219 4.996094 C 4.746094 4.949219 4.792969 4.90625 4.839844 4.859375 C 4.945312 4.765625 5.054688 4.675781 5.167969 4.59375 C 5.28125 4.507812 5.402344 4.429688 5.523438 4.359375 Z M 0.652344 4.359375 "/>
<path style=" stroke:none;fill-rule:evenodd;fill:rgb(33.72549%,66.666667%,83.137255%);fill-opacity:1;" d="M 5.804688 0.949219 L 3.4375 0.949219 C 1.894531 0.949219 0.652344 2.191406 0.652344 3.734375 L 0.652344 3.75 L 7.703125 3.75 C 7.765625 3.75 7.832031 3.75 7.898438 3.753906 C 8.039062 3.761719 8.179688 3.777344 8.320312 3.796875 C 8.460938 3.820312 8.597656 3.847656 8.734375 3.882812 Z M 2.632812 1.1875 C 2.53125 1.265625 2.425781 1.339844 2.328125 1.421875 C 2.425781 1.339844 2.53125 1.265625 2.632812 1.1875 Z M 1.988281 1.71875 C 1.90625 1.792969 1.820312 1.867188 1.738281 1.949219 C 1.820312 1.871094 1.90625 1.792969 1.988281 1.71875 Z M 1.988281 1.71875 "/>
<path style=" stroke:none;fill-rule:evenodd;fill:rgb(94.901961%,94.901961%,94.901961%);fill-opacity:1;" d="M 5.804688 0.949219 L 8.734375 3.882812 C 8.597656 3.847656 8.460938 3.820312 8.320312 3.796875 C 8.179688 3.777344 8.039062 3.761719 7.898438 3.753906 C 7.832031 3.75 7.765625 3.75 7.703125 3.75 L 0.652344 3.75 L 0.652344 4.359375 L 5.523438 4.359375 C 5.402344 4.429688 5.28125 4.507812 5.167969 4.59375 C 5.054688 4.675781 4.945312 4.765625 4.839844 4.859375 C 4.792969 4.90625 4.746094 4.949219 4.699219 4.996094 L 0.652344 9.042969 L 0.652344 9.898438 L 3.585938 6.964844 C 3.550781 7.105469 3.519531 7.242188 3.5 7.382812 C 3.480469 7.523438 3.464844 7.664062 3.457031 7.804688 C 3.453125 7.871094 3.453125 7.933594 3.453125 8 L 3.453125 15.050781 L 4.058594 15.050781 L 4.058594 10.179688 C 4.132812 10.300781 4.210938 10.421875 4.296875 10.53125 C 4.378906 10.648438 4.46875 10.757812 4.5625 10.863281 C 4.609375 10.910156 4.652344 10.957031 4.699219 11.003906 L 8.742188 15.050781 L 9.601562 15.050781 L 6.667969 12.117188 C 6.804688 12.152344 6.945312 12.179688 7.085938 12.203125 C 7.222656 12.222656 7.367188 12.238281 7.507812 12.246094 C 7.570312 12.25 7.636719 12.25 7.703125 12.25 L 14.753906 12.25 L 14.753906 11.640625 L 9.882812 11.640625 C 10.003906 11.570312 10.121094 11.492188 10.234375 11.40625 C 10.347656 11.324219 10.460938 11.234375 10.5625 11.140625 C 10.613281 11.09375 10.660156 11.050781 10.707031 11.003906 L 14.753906 6.957031 L 14.753906 6.101562 L 11.820312 9.035156 C 11.855469 8.898438 11.882812 8.757812 11.90625 8.617188 C 11.925781 8.476562 11.9375 8.335938 11.945312 8.195312 C 11.949219 8.128906 11.953125 8.066406 11.953125 8 L 11.953125 0.949219 L 11.34375 0.949219 L 11.34375 5.820312 C 11.273438 5.699219 11.195312 5.578125 11.109375 5.46875 C 11.027344 5.351562 10.9375 5.242188 10.839844 5.136719 C 10.796875 5.089844 10.75 5.042969 10.707031 4.996094 L 6.660156 0.949219 Z M 5.804688 0.949219 "/>
<path style=" stroke:none;fill-rule:nonzero;fill:rgb(72.941176%,13.333333%,100%);fill-opacity:1;" d="M 14.136719 11.40625 C 14.136719 13.0625 12.792969 14.40625 11.136719 14.40625 C 9.480469 14.40625 8.136719 13.0625 8.136719 11.40625 C 8.136719 9.75 9.480469 8.40625 11.136719 8.40625 C 12.792969 8.40625 14.136719 9.75 14.136719 11.40625 Z M 14.136719 11.40625 "/>
<path style=" stroke:none;fill-rule:nonzero;fill:rgb(100%,100%,100%);fill-opacity:1;" d="M 12.261719 12.90625 L 10.394531 12.90625 L 10.394531 12.527344 L 11.046875 11.871094 C 11.132812 11.785156 11.207031 11.710938 11.273438 11.640625 C 11.339844 11.570312 11.398438 11.503906 11.445312 11.4375 C 11.496094 11.371094 11.53125 11.304688 11.558594 11.234375 C 11.585938 11.167969 11.597656 11.09375 11.597656 11.015625 C 11.597656 10.925781 11.570312 10.859375 11.515625 10.8125 C 11.457031 10.761719 11.382812 10.738281 11.285156 10.738281 C 11.1875 10.738281 11.089844 10.761719 10.996094 10.808594 C 10.90625 10.855469 10.808594 10.917969 10.707031 11.003906 L 10.386719 10.652344 C 10.441406 10.605469 10.503906 10.558594 10.5625 10.515625 C 10.625 10.46875 10.695312 10.429688 10.769531 10.394531 C 10.84375 10.359375 10.925781 10.332031 11.015625 10.3125 C 11.109375 10.292969 11.207031 10.28125 11.320312 10.28125 C 11.453125 10.28125 11.574219 10.296875 11.679688 10.332031 C 11.785156 10.367188 11.875 10.417969 11.953125 10.480469 C 12.027344 10.542969 12.082031 10.617188 12.121094 10.707031 C 12.164062 10.796875 12.183594 10.898438 12.183594 11.011719 C 12.183594 11.113281 12.164062 11.210938 12.125 11.304688 C 12.089844 11.394531 12.035156 11.484375 11.96875 11.578125 C 11.90625 11.664062 11.828125 11.753906 11.738281 11.84375 C 11.652344 11.929688 11.5625 12.015625 11.460938 12.109375 L 11.125 12.421875 L 11.125 12.445312 L 12.261719 12.445312 Z M 12.261719 12.90625 "/>
</g>
</svg>
