<?xml version="1.0" encoding="UTF-8"?>
<svg xmlns="http://www.w3.org/2000/svg" xmlns:xlink="http://www.w3.org/1999/xlink" width="16pt" height="16pt" viewBox="0 0 16 16" version="1.1">
<g id="surface1">
<path style=" stroke:none;fill-rule:evenodd;fill:rgb(94.901961%,94.901961%,94.901961%);fill-opacity:1;" d="M 3.734375 0.949219 L 12.265625 0.949219 C 13.800781 0.949219 15.050781 2.199219 15.050781 3.734375 L 15.050781 12.265625 C 15.050781 13.800781 13.800781 15.050781 12.265625 15.050781 L 3.734375 15.050781 C 2.199219 15.050781 0.949219 13.800781 0.949219 12.265625 L 0.949219 3.734375 C 0.949219 2.199219 2.199219 0.949219 3.734375 0.949219 Z M 3.734375 0.949219 "/>
<path style=" stroke:none;fill-rule:nonzero;fill:rgb(33.72549%,66.666667%,83.137255%);fill-opacity:1;" d="M 15.050781 8 C 15.050781 11.894531 11.894531 15.050781 8 15.050781 C 4.105469 15.050781 0.949219 11.894531 0.949219 8 C 0.949219 4.105469 4.105469 0.949219 8 0.949219 C 11.894531 0.949219 15.050781 4.105469 15.050781 8 Z M 15.050781 8 "/>
<path style=" stroke:none;fill-rule:evenodd;fill:rgb(33.72549%,66.666667%,83.137255%);fill-opacity:1;" d="M 11.640625 0.949219 L 6.957031 0.949219 L 11.003906 4.996094 C 11.050781 5.042969 11.09375 5.089844 11.140625 5.136719 C 11.234375 5.242188 11.324219 5.351562 11.40625 5.46875 C 11.492188 5.578125 11.570312 5.699219 11.640625 5.820312 Z M 11.640625 0.949219 "/>
<path style=" stroke:none;fill-rule:evenodd;fill:rgb(33.72549%,66.666667%,83.137255%);fill-opacity:1;" d="M 15.050781 6.101562 L 15.050781 3.734375 C 15.050781 2.191406 13.808594 0.949219 12.265625 0.949219 L 12.25 0.949219 L 12.25 8 C 12.25 8.066406 12.25 8.128906 12.246094 8.195312 C 12.238281 8.335938 12.222656 8.476562 12.203125 8.617188 C 12.179688 8.757812 12.152344 8.898438 12.117188 9.035156 Z M 14.050781 2.035156 C 14.128906 2.117188 14.207031 2.203125 14.28125 2.289062 C 14.203125 2.203125 14.132812 2.117188 14.050781 2.035156 Z M 14.578125 2.625 C 14.660156 2.726562 14.734375 2.828125 14.8125 2.929688 C 14.734375 2.828125 14.660156 2.726562 14.578125 2.625 Z M 15.054688 3.269531 C 15.125 3.375 15.195312 3.488281 15.261719 3.597656 C 15.195312 3.488281 15.125 3.378906 15.054688 3.269531 Z M 15.46875 3.960938 C 15.53125 4.074219 15.59375 4.1875 15.648438 4.308594 C 15.59375 4.191406 15.53125 4.074219 15.46875 3.960938 Z M 15.46875 3.960938 "/>
<path style=" stroke:none;fill-rule:evenodd;fill:rgb(33.72549%,66.666667%,83.137255%);fill-opacity:1;" d="M 15.050781 11.640625 L 15.050781 6.957031 L 11.003906 11.003906 C 10.957031 11.050781 10.910156 11.09375 10.863281 11.140625 C 10.757812 11.234375 10.648438 11.324219 10.53125 11.40625 C 10.421875 11.492188 10.300781 11.570312 10.179688 11.640625 Z M 15.050781 11.640625 "/>
<path style=" stroke:none;fill-rule:evenodd;fill:rgb(33.72549%,66.666667%,83.137255%);fill-opacity:1;" d="M 9.898438 15.050781 L 12.265625 15.050781 C 13.808594 15.050781 15.050781 13.808594 15.050781 12.265625 L 15.050781 12.25 L 8 12.25 C 7.933594 12.25 7.871094 12.25 7.804688 12.246094 C 7.664062 12.238281 7.523438 12.222656 7.382812 12.203125 C 7.242188 12.179688 7.105469 12.152344 6.964844 12.117188 Z M 13.964844 14.050781 C 13.886719 14.125 13.808594 14.195312 13.730469 14.265625 C 13.808594 14.195312 13.886719 14.125 13.964844 14.050781 Z M 13.367188 14.585938 C 13.277344 14.65625 13.183594 14.730469 13.089844 14.796875 C 13.179688 14.726562 13.277344 14.660156 13.367188 14.585938 Z M 13.367188 14.585938 "/>
<path style=" stroke:none;fill-rule:evenodd;fill:rgb(33.72549%,66.666667%,83.137255%);fill-opacity:1;" d="M 4.359375 15.050781 L 9.042969 15.050781 L 4.996094 11.003906 C 4.949219 10.957031 4.90625 10.910156 4.863281 10.863281 C 4.765625 10.757812 4.675781 10.648438 4.59375 10.53125 C 4.507812 10.421875 4.429688 10.300781 4.359375 10.179688 Z M 4.359375 15.050781 "/>
<path style=" stroke:none;fill-rule:evenodd;fill:rgb(33.72549%,66.666667%,83.137255%);fill-opacity:1;" d="M 0.949219 9.898438 L 0.949219 12.265625 C 0.949219 13.808594 2.191406 15.050781 3.734375 15.050781 L 3.75 15.050781 L 3.75 8 C 3.75 7.933594 3.75 7.871094 3.753906 7.804688 C 3.761719 7.664062 3.777344 7.523438 3.796875 7.382812 C 3.820312 7.242188 3.847656 7.105469 3.882812 6.964844 Z M 1.175781 13.054688 C 1.257812 13.164062 1.335938 13.269531 1.421875 13.375 C 1.335938 13.269531 1.253906 13.164062 1.175781 13.054688 Z M 1.71875 13.710938 C 1.792969 13.796875 1.867188 13.882812 1.949219 13.964844 C 1.867188 13.878906 1.792969 13.796875 1.71875 13.710938 Z M 1.71875 13.710938 "/>
<path style=" stroke:none;fill-rule:evenodd;fill:rgb(33.72549%,66.666667%,83.137255%);fill-opacity:1;" d="M 0.949219 4.359375 L 0.949219 9.042969 L 4.996094 4.996094 C 5.042969 4.949219 5.089844 4.90625 5.140625 4.859375 C 5.242188 4.765625 5.351562 4.675781 5.46875 4.59375 C 5.578125 4.507812 5.699219 4.429688 5.820312 4.359375 Z M 0.949219 4.359375 "/>
<path style=" stroke:none;fill-rule:evenodd;fill:rgb(33.72549%,66.666667%,83.137255%);fill-opacity:1;" d="M 6.101562 0.949219 L 3.734375 0.949219 C 2.191406 0.949219 0.949219 2.191406 0.949219 3.734375 L 0.949219 3.75 L 8 3.75 C 8.066406 3.75 8.128906 3.75 8.195312 3.753906 C 8.335938 3.761719 8.476562 3.777344 8.617188 3.796875 C 8.757812 3.820312 8.898438 3.847656 9.035156 3.882812 Z M 2.929688 1.1875 C 2.828125 1.265625 2.726562 1.339844 2.625 1.421875 C 2.726562 1.339844 2.828125 1.265625 2.929688 1.1875 Z M 2.289062 1.71875 C 2.203125 1.792969 2.117188 1.867188 2.035156 1.949219 C 2.117188 1.871094 2.203125 1.792969 2.289062 1.71875 Z M 2.289062 1.71875 "/>
<path style=" stroke:none;fill-rule:evenodd;fill:rgb(94.901961%,94.901961%,94.901961%);fill-opacity:1;" d="M 6.101562 0.949219 L 9.035156 3.882812 C 8.898438 3.847656 8.757812 3.820312 8.617188 3.796875 C 8.476562 3.777344 8.335938 3.761719 8.195312 3.753906 C 8.128906 3.75 8.066406 3.75 8 3.75 L 0.949219 3.75 L 0.949219 4.359375 L 5.820312 4.359375 C 5.699219 4.429688 5.578125 4.507812 5.46875 4.59375 C 5.351562 4.675781 5.242188 4.765625 5.140625 4.859375 C 5.089844 4.90625 5.042969 4.949219 4.996094 4.996094 L 0.949219 9.042969 L 0.949219 9.898438 L 3.882812 6.964844 C 3.847656 7.105469 3.820312 7.242188 3.796875 7.382812 C 3.777344 7.523438 3.761719 7.664062 3.753906 7.804688 C 3.75 7.871094 3.75 7.933594 3.75 8 L 3.75 15.050781 L 4.359375 15.050781 L 4.359375 10.179688 C 4.429688 10.300781 4.507812 10.421875 4.59375 10.53125 C 4.675781 10.648438 4.765625 10.757812 4.863281 10.863281 C 4.90625 10.910156 4.949219 10.957031 4.996094 11.003906 L 9.042969 15.050781 L 9.898438 15.050781 L 6.964844 12.117188 C 7.105469 12.152344 7.242188 12.179688 7.382812 12.203125 C 7.523438 12.222656 7.664062 12.238281 7.804688 12.246094 C 7.871094 12.25 7.933594 12.25 8 12.25 L 15.050781 12.25 L 15.050781 11.640625 L 10.179688 11.640625 C 10.300781 11.570312 10.421875 11.492188 10.53125 11.40625 C 10.648438 11.324219 10.757812 11.234375 10.863281 11.140625 C 10.910156 11.09375 10.957031 11.050781 11.003906 11.003906 L 15.050781 6.957031 L 15.050781 6.101562 L 12.117188 9.035156 C 12.152344 8.898438 12.179688 8.757812 12.203125 8.617188 C 12.222656 8.476562 12.238281 8.335938 12.246094 8.195312 C 12.25 8.128906 12.25 8.066406 12.25 8 L 12.25 0.949219 L 11.640625 0.949219 L 11.640625 5.820312 C 11.570312 5.699219 11.492188 5.578125 11.40625 5.46875 C 11.324219 5.351562 11.234375 5.242188 11.140625 5.136719 C 11.09375 5.089844 11.050781 5.042969 11.003906 4.996094 L 6.957031 0.949219 Z M 6.101562 0.949219 "/>
</g>
</svg>
