<?xml version="1.0" encoding="UTF-8"?>
<svg xmlns="http://www.w3.org/2000/svg" xmlns:xlink="http://www.w3.org/1999/xlink" width="16pt" height="16pt" viewBox="0 0 16 16" version="1.1">
<g id="surface1">
<path style=" stroke:none;fill-rule:evenodd;fill:rgb(91.372549%,44.705882%,27.843137%);fill-opacity:1;" d="M 3.734375 0.949219 L 12.265625 0.949219 C 13.800781 0.949219 15.050781 2.199219 15.050781 3.734375 L 15.050781 12.265625 C 15.050781 13.800781 13.800781 15.050781 12.265625 15.050781 L 3.734375 15.050781 C 2.199219 15.050781 0.949219 13.800781 0.949219 12.265625 L 0.949219 3.734375 C 0.949219 2.199219 2.199219 0.949219 3.734375 0.949219 Z M 3.734375 0.949219 "/>
<path style=" stroke:none;fill-rule:nonzero;fill:rgb(70.196078%,70.196078%,70.196078%);fill-opacity:1;" d="M 13 8 C 13 10.761719 10.761719 13 8 13 C 5.238281 13 3 10.761719 3 8 C 3 5.238281 5.238281 3 8 3 C 10.761719 3 13 5.238281 13 8 Z M 13 8 "/>
<path style=" stroke:none;fill-rule:nonzero;fill:rgb(40%,40%,40%);fill-opacity:1;" d="M 11.660156 4.601562 L 10.5 5.679688 L 8 8 L 10.5 10.320312 L 11.660156 11.398438 C 12.519531 10.472656 13 9.261719 13 8 C 13 6.738281 12.519531 5.523438 11.660156 4.601562 Z M 11.660156 4.601562 "/>
<path style="fill:none;stroke-width:1;stroke-linecap:round;stroke-linejoin:round;stroke:rgb(95.294118%,95.294118%,95.294118%);stroke-opacity:1;stroke-miterlimit:4;" d="M -24.342106 10.736842 C -24.342106 10.736842 -23.295231 11.377467 -23.342106 12.736842 C -23.381169 14.096217 -24.342106 14.736842 -24.342106 14.736842 " transform="matrix(0.5,0,0,0.5,23.421053,1.631579)"/>
</g>
</svg>
