<?xml version="1.0" encoding="UTF-8"?>
<svg xmlns="http://www.w3.org/2000/svg" xmlns:xlink="http://www.w3.org/1999/xlink" width="16pt" height="16pt" viewBox="0 0 16 16" version="1.1">
<g id="surface1">
<path style=" stroke:none;fill-rule:evenodd;fill:rgb(0%,57.647059%,80.392157%);fill-opacity:1;" d="M 3.734375 0.949219 L 12.265625 0.949219 C 13.800781 0.949219 15.050781 2.199219 15.050781 3.734375 L 15.050781 12.265625 C 15.050781 13.800781 13.800781 15.050781 12.265625 15.050781 L 3.734375 15.050781 C 2.199219 15.050781 0.949219 13.800781 0.949219 12.265625 L 0.949219 3.734375 C 0.949219 2.199219 2.199219 0.949219 3.734375 0.949219 Z M 3.734375 0.949219 "/>
<path style=" stroke:none;fill-rule:nonzero;fill:rgb(30.980392%,30.980392%,30.980392%);fill-opacity:1;" d="M 2.890625 7.777344 L 9.867188 3.238281 C 10.695312 2.699219 11.796875 2.933594 12.335938 3.757812 L 13.632812 5.753906 C 14.171875 6.578125 13.9375 7.683594 13.109375 8.222656 L 6.132812 12.761719 C 5.304688 13.300781 4.203125 13.066406 3.664062 12.242188 L 2.367188 10.246094 C 1.828125 9.421875 2.0625 8.316406 2.890625 7.777344 Z M 2.890625 7.777344 "/>
<path style=" stroke:none;fill-rule:nonzero;fill:rgb(0%,57.647059%,80.392157%);fill-opacity:1;" d="M 4.347656 7.84375 L 9.332031 4.597656 L 11.652344 8.15625 L 6.667969 11.402344 Z M 4.347656 7.84375 "/>
<path style="fill:none;stroke-width:0.588496;stroke-linecap:butt;stroke-linejoin:miter;stroke:rgb(100%,100%,100%);stroke-opacity:1;stroke-miterlimit:4;" d="M 9.853593 18.796116 L 9.851557 15.64632 L 12.64439 15.653373 L 12.64875 12.847818 L 9.498954 12.849855 " transform="matrix(0.356076,-0.23168,0.23168,0.356076,-1.179709,5.965038)"/>
<path style="fill:none;stroke-width:0.588496;stroke-linecap:butt;stroke-linejoin:miter;stroke:rgb(100%,100%,100%);stroke-opacity:1;stroke-miterlimit:4;" d="M 17.002412 12.850184 L 15.247686 12.849386 L 15.248996 18.445081 L 13.501977 18.449298 " transform="matrix(0.356076,-0.23168,0.23168,0.356076,-1.179709,5.965038)"/>
<path style="fill:none;stroke-width:0.588496;stroke-linecap:butt;stroke-linejoin:miter;stroke:rgb(100%,100%,100%);stroke-opacity:1;stroke-miterlimit:4;" d="M 17.849314 18.798597 L 17.847277 15.648801 L 20.645125 15.648147 L 20.652178 12.855314 L 17.507397 12.849643 " transform="matrix(0.356076,-0.23168,0.23168,0.356076,-1.179709,5.965038)"/>
<path style=" stroke:none;fill-rule:nonzero;fill:rgb(41.176471%,49.411765%,51.372549%);fill-opacity:1;" d="M 3.53125 9.386719 C 3.410156 9.464844 3.378906 9.621094 3.457031 9.738281 L 3.734375 10.167969 L 3.308594 10.445312 C 3.1875 10.523438 3.15625 10.679688 3.234375 10.796875 L 3.511719 11.226562 C 3.585938 11.34375 3.746094 11.375 3.863281 11.300781 L 4.289062 11.023438 L 4.566406 11.449219 C 4.644531 11.566406 4.800781 11.601562 4.921875 11.523438 L 5.347656 11.246094 C 5.46875 11.167969 5.5 11.011719 5.421875 10.894531 L 5.144531 10.464844 L 5.570312 10.1875 C 5.691406 10.109375 5.722656 9.953125 5.644531 9.835938 L 5.367188 9.40625 C 5.292969 9.289062 5.132812 9.257812 5.015625 9.332031 L 4.589844 9.609375 L 4.3125 9.183594 C 4.234375 9.066406 4.078125 9.03125 3.957031 9.109375 Z M 3.53125 9.386719 "/>
<path style=" stroke:none;fill-rule:nonzero;fill:rgb(41.176471%,49.411765%,51.372549%);fill-opacity:1;" d="M 11.328125 5.328125 C 11.132812 5.453125 10.871094 5.398438 10.742188 5.203125 C 10.613281 5.007812 10.667969 4.742188 10.867188 4.613281 C 11.0625 4.488281 11.324219 4.542969 11.453125 4.738281 C 11.582031 4.9375 11.527344 5.199219 11.328125 5.328125 Z M 11.328125 5.328125 "/>
<path style=" stroke:none;fill-rule:nonzero;fill:rgb(41.176471%,49.411765%,51.372549%);fill-opacity:1;" d="M 12.253906 6.75 C 12.058594 6.878906 11.796875 6.824219 11.667969 6.625 C 11.539062 6.429688 11.59375 6.167969 11.792969 6.039062 C 11.988281 5.910156 12.25 5.96875 12.378906 6.164062 C 12.507812 6.359375 12.453125 6.625 12.253906 6.75 Z M 12.253906 6.75 "/>
<path style=" stroke:none;fill-rule:nonzero;fill:rgb(41.176471%,49.411765%,51.372549%);fill-opacity:1;" d="M 11.917969 5.453125 C 11.789062 5.253906 11.84375 4.992188 12.042969 4.863281 C 12.238281 4.734375 12.5 4.792969 12.628906 4.988281 C 12.757812 5.183594 12.703125 5.449219 12.503906 5.578125 C 12.308594 5.703125 12.046875 5.648438 11.917969 5.453125 Z M 11.917969 5.453125 "/>
<path style=" stroke:none;fill-rule:nonzero;fill:rgb(41.176471%,49.411765%,51.372549%);fill-opacity:1;" d="M 10.492188 6.378906 C 10.363281 6.183594 10.421875 5.917969 10.617188 5.789062 C 10.8125 5.664062 11.078125 5.71875 11.203125 5.914062 C 11.332031 6.109375 11.277344 6.375 11.078125 6.503906 C 10.882812 6.628906 10.621094 6.574219 10.492188 6.378906 Z M 10.492188 6.378906 "/>
</g>
</svg>
