<?xml version="1.0" encoding="UTF-8"?>
<svg xmlns="http://www.w3.org/2000/svg" xmlns:xlink="http://www.w3.org/1999/xlink" width="16pt" height="16pt" viewBox="0 0 16 16" version="1.1">
<g id="surface1">
<path style=" stroke:none;fill-rule:evenodd;fill:rgb(55.686275%,55.686275%,55.686275%);fill-opacity:1;" d="M 3.734375 0.949219 L 12.265625 0.949219 C 13.800781 0.949219 15.050781 2.199219 15.050781 3.734375 L 15.050781 12.265625 C 15.050781 13.800781 13.800781 15.050781 12.265625 15.050781 L 3.734375 15.050781 C 2.199219 15.050781 0.949219 13.800781 0.949219 12.265625 L 0.949219 3.734375 C 0.949219 2.199219 2.199219 0.949219 3.734375 0.949219 Z M 3.734375 0.949219 "/>
<path style=" stroke:none;fill-rule:nonzero;fill:rgb(27.843137%,27.843137%,27.843137%);fill-opacity:1;" d="M 4.457031 4.089844 L 11.542969 4.089844 C 12.46875 4.089844 13.222656 4.84375 13.222656 5.769531 L 13.222656 10.230469 C 13.222656 11.15625 12.46875 11.910156 11.542969 11.910156 L 4.457031 11.910156 C 3.53125 11.910156 2.777344 11.15625 2.777344 10.230469 L 2.777344 5.769531 C 2.777344 4.84375 3.53125 4.089844 4.457031 4.089844 Z M 4.457031 4.089844 "/>
<path style=" stroke:none;fill-rule:nonzero;fill:rgb(1.960784%,70.588235%,94.901961%);fill-opacity:1;" d="M 4.519531 4.585938 L 11.480469 4.585938 C 12.183594 4.585938 12.753906 5.132812 12.753906 5.808594 L 12.753906 10.191406 C 12.753906 10.867188 12.183594 11.414062 11.480469 11.414062 L 4.519531 11.414062 C 3.816406 11.414062 3.246094 10.867188 3.246094 10.191406 L 3.246094 5.808594 C 3.246094 5.132812 3.816406 4.585938 4.519531 4.585938 Z M 4.519531 4.585938 "/>
<path style=" stroke:none;fill-rule:nonzero;fill:rgb(100%,100%,100%);fill-opacity:1;" d="M 5.851562 10.425781 C 5.851562 10.28125 5.867188 10.234375 5.933594 10.191406 C 5.96875 10.167969 5.980469 10.164062 6.105469 10.160156 L 6.238281 10.15625 L 6.238281 10.039062 C 6.238281 9.933594 6.242188 9.910156 6.261719 9.875 C 6.289062 9.8125 6.351562 9.773438 6.433594 9.765625 L 6.492188 9.761719 L 6.503906 9.605469 C 6.535156 9.171875 6.644531 8.847656 6.84375 8.578125 C 6.910156 8.488281 7.039062 8.359375 7.203125 8.214844 C 7.421875 8.023438 7.417969 7.972656 7.183594 7.769531 C 7.023438 7.632812 6.871094 7.476562 6.804688 7.375 C 6.625 7.105469 6.527344 6.769531 6.5 6.355469 L 6.496094 6.238281 L 6.433594 6.234375 C 6.351562 6.226562 6.289062 6.1875 6.261719 6.125 C 6.242188 6.089844 6.238281 6.066406 6.238281 5.960938 L 6.238281 5.839844 L 6.117188 5.839844 C 5.972656 5.839844 5.925781 5.824219 5.882812 5.757812 C 5.859375 5.71875 5.855469 5.710938 5.851562 5.585938 L 5.847656 5.453125 L 10.152344 5.453125 L 10.148438 5.585938 C 10.144531 5.710938 10.140625 5.71875 10.117188 5.757812 C 10.074219 5.824219 10.027344 5.839844 9.882812 5.839844 L 9.761719 5.839844 L 9.761719 5.960938 C 9.761719 6.066406 9.757812 6.089844 9.738281 6.125 C 9.710938 6.1875 9.648438 6.226562 9.566406 6.234375 L 9.503906 6.238281 L 9.5 6.351562 C 9.480469 6.671875 9.417969 6.9375 9.316406 7.152344 C 9.207031 7.390625 9.078125 7.550781 8.804688 7.777344 C 8.667969 7.890625 8.625 7.941406 8.625 8 C 8.625 8.0625 8.65625 8.101562 8.808594 8.230469 C 8.984375 8.382812 9.058594 8.457031 9.132812 8.550781 C 9.351562 8.828125 9.472656 9.1875 9.5 9.644531 L 9.503906 9.761719 L 9.566406 9.765625 C 9.648438 9.773438 9.710938 9.8125 9.738281 9.875 C 9.757812 9.910156 9.761719 9.933594 9.761719 10.039062 L 9.761719 10.15625 L 9.894531 10.160156 C 10.019531 10.164062 10.03125 10.167969 10.066406 10.191406 C 10.132812 10.234375 10.148438 10.28125 10.148438 10.425781 L 10.148438 10.546875 L 5.851562 10.546875 Z M 7.226562 9.695312 C 7.246094 9.507812 7.296875 9.335938 7.382812 9.195312 C 7.445312 9.089844 7.488281 9.03125 7.636719 8.867188 C 7.914062 8.546875 7.953125 8.464844 7.929688 8.207031 C 7.917969 8.0625 7.882812 7.929688 7.828125 7.816406 C 7.773438 7.714844 7.722656 7.644531 7.578125 7.480469 C 7.472656 7.359375 7.4375 7.300781 7.429688 7.25 L 7.425781 7.21875 L 8.007812 7.21875 L 8.589844 7.214844 L 8.585938 7.253906 C 8.574219 7.324219 8.53125 7.394531 8.421875 7.515625 C 8.28125 7.679688 8.234375 7.734375 8.183594 7.832031 C 8.074219 8.042969 8.039062 8.324219 8.101562 8.488281 C 8.144531 8.597656 8.1875 8.65625 8.425781 8.9375 C 8.65625 9.199219 8.742188 9.390625 8.773438 9.703125 L 8.777344 9.761719 L 9.191406 9.761719 L 9.1875 9.695312 C 9.15625 9.234375 9.0625 8.953125 8.851562 8.703125 C 8.820312 8.667969 8.726562 8.578125 8.640625 8.5 C 8.4375 8.324219 8.40625 8.285156 8.363281 8.203125 C 8.300781 8.082031 8.300781 7.921875 8.359375 7.804688 C 8.398438 7.722656 8.453125 7.664062 8.617188 7.523438 C 8.851562 7.316406 8.933594 7.222656 9.027344 7.03125 C 9.121094 6.835938 9.175781 6.59375 9.1875 6.300781 L 9.1875 6.238281 L 6.808594 6.238281 L 6.8125 6.3125 C 6.828125 6.605469 6.875 6.8125 6.960938 7.007812 C 7.046875 7.195312 7.140625 7.316406 7.34375 7.492188 C 7.527344 7.65625 7.59375 7.722656 7.632812 7.808594 C 7.664062 7.875 7.667969 7.878906 7.667969 8 C 7.667969 8.121094 7.664062 8.125 7.632812 8.191406 C 7.589844 8.28125 7.535156 8.34375 7.386719 8.472656 C 7.171875 8.660156 7.066406 8.78125 6.984375 8.945312 C 6.902344 9.109375 6.835938 9.367188 6.820312 9.582031 C 6.816406 9.628906 6.8125 9.6875 6.8125 9.714844 L 6.804688 9.761719 L 7.222656 9.761719 Z M 7.226562 9.695312 "/>
</g>
</svg>
