<?xml version="1.0" encoding="UTF-8"?>
<svg xmlns="http://www.w3.org/2000/svg" xmlns:xlink="http://www.w3.org/1999/xlink" width="16pt" height="16pt" viewBox="0 0 16 16" version="1.1">
<g id="surface1">
<path style=" stroke:none;fill-rule:evenodd;fill:rgb(97.647059%,97.647059%,97.647059%);fill-opacity:1;" d="M 0.949219 8.78125 L 6.480469 8.78125 C 6.671875 8.78125 6.828125 8.636719 6.828125 8.449219 L 6.828125 4.117188 C 6.828125 3.933594 6.671875 3.78125 6.480469 3.78125 L 0.949219 3.78125 Z M 0.949219 8.78125 "/>
<path style=" stroke:none;fill-rule:evenodd;fill:rgb(97.647059%,97.647059%,97.647059%);fill-opacity:1;" d="M 11.328125 15.050781 L 11.328125 11.117188 C 11.328125 10.933594 11.171875 10.78125 10.980469 10.78125 L 4.679688 10.78125 C 4.484375 10.78125 4.328125 10.933594 4.328125 11.117188 L 4.328125 15.050781 Z M 11.328125 15.050781 "/>
<path style=" stroke:none;fill-rule:evenodd;fill:rgb(97.647059%,97.647059%,97.647059%);fill-opacity:1;" d="M 15.050781 3.78125 L 9.179688 3.78125 C 8.984375 3.78125 8.828125 3.933594 8.828125 4.117188 L 8.828125 8.449219 C 8.828125 8.636719 8.984375 8.78125 9.179688 8.78125 L 15.050781 8.78125 Z M 15.050781 3.78125 "/>
<path style=" stroke:none;fill-rule:evenodd;fill:rgb(29.019608%,70.196078%,89.411765%);fill-opacity:1;" d="M 3.734375 0.949219 C 2.191406 0.949219 0.949219 2.191406 0.949219 3.734375 L 0.949219 3.78125 L 6.480469 3.78125 C 6.671875 3.78125 6.828125 3.933594 6.828125 4.117188 L 6.828125 8.449219 C 6.828125 8.636719 6.671875 8.78125 6.480469 8.78125 L 0.949219 8.78125 L 0.949219 12.261719 C 0.949219 13.808594 2.191406 15.050781 3.734375 15.050781 L 4.328125 15.050781 L 4.328125 11.117188 C 4.328125 10.933594 4.484375 10.78125 4.679688 10.78125 L 10.980469 10.78125 C 11.171875 10.78125 11.328125 10.933594 11.328125 11.117188 L 11.328125 15.050781 L 12.261719 15.050781 C 13.808594 15.050781 15.050781 13.808594 15.050781 12.261719 L 15.050781 8.78125 L 9.179688 8.78125 C 8.984375 8.78125 8.828125 8.636719 8.828125 8.449219 L 8.828125 4.117188 C 8.828125 3.933594 8.984375 3.78125 9.179688 3.78125 L 15.050781 3.78125 L 15.050781 3.734375 C 15.050781 2.191406 13.808594 0.949219 12.261719 0.949219 Z M 3.734375 0.949219 "/>
</g>
</svg>
