<?xml version="1.0" encoding="UTF-8"?>
<svg xmlns="http://www.w3.org/2000/svg" xmlns:xlink="http://www.w3.org/1999/xlink" width="16pt" height="16pt" viewBox="0 0 16 16" version="1.1">
<g id="surface1">
<path style=" stroke:none;fill-rule:evenodd;fill:rgb(71.764706%,71.764706%,71.764706%);fill-opacity:1;" d="M 3.734375 0.949219 L 12.265625 0.949219 C 13.800781 0.949219 15.050781 2.199219 15.050781 3.734375 L 15.050781 12.265625 C 15.050781 13.800781 13.800781 15.050781 12.265625 15.050781 L 3.734375 15.050781 C 2.199219 15.050781 0.949219 13.800781 0.949219 12.265625 L 0.949219 3.734375 C 0.949219 2.199219 2.199219 0.949219 3.734375 0.949219 Z M 3.734375 0.949219 "/>
<path style=" stroke:none;fill-rule:nonzero;fill:rgb(11.372549%,20.392157%,30.980392%);fill-opacity:1;" d="M 7.753906 11.019531 L 7.753906 11.636719 L 6.933594 11.644531 C 6.0625 11.652344 6.085938 11.648438 5.90625 11.75 C 5.828125 11.792969 5.707031 11.898438 5.667969 11.957031 L 5.632812 12.011719 L 4.773438 12.019531 L 3.914062 12.03125 L 3.832031 12.085938 C 3.589844 12.25 3.613281 12.605469 3.875 12.722656 C 3.949219 12.753906 4.019531 12.757812 4.792969 12.757812 L 5.628906 12.757812 L 5.660156 12.8125 C 5.71875 12.933594 5.949219 13.082031 6.125 13.117188 C 6.171875 13.125 7.09375 13.132812 8.179688 13.132812 L 10.152344 13.128906 L 10.257812 13.085938 C 10.402344 13.027344 10.5 12.953125 10.578125 12.847656 L 10.644531 12.757812 L 11.460938 12.757812 C 11.964844 12.757812 12.300781 12.75 12.34375 12.738281 C 12.492188 12.699219 12.609375 12.546875 12.605469 12.390625 C 12.605469 12.230469 12.488281 12.085938 12.324219 12.039062 C 12.285156 12.027344 11.933594 12.019531 11.453125 12.019531 L 10.644531 12.019531 L 10.570312 11.921875 C 10.484375 11.816406 10.371094 11.738281 10.230469 11.6875 C 10.144531 11.65625 10.046875 11.652344 9.324219 11.644531 L 8.511719 11.636719 L 8.511719 11.019531 Z M 7.753906 11.019531 "/>
<path style=" stroke:none;fill-rule:nonzero;fill:rgb(32.156863%,58.039216%,88.627451%);fill-opacity:1;" d="M 11.902344 3.945312 C 12.285156 3.945312 12.59375 4.253906 12.59375 4.640625 L 12.59375 10.421875 C 12.59375 10.804688 12.285156 11.113281 11.902344 11.113281 L 4.085938 11.113281 C 3.703125 11.113281 3.394531 10.804688 3.394531 10.421875 L 3.394531 3.421875 C 3.394531 3.117188 3.640625 2.867188 3.949219 2.867188 L 6.933594 2.867188 C 7.242188 2.867188 7.492188 2.988281 7.6875 3.230469 L 8.28125 3.949219 Z M 11.902344 3.945312 "/>
<path style=" stroke:none;fill-rule:nonzero;fill:rgb(11.372549%,20.392157%,30.980392%);fill-opacity:1;" d="M 7.664062 5.597656 C 8.117188 5.597656 8.484375 5.964844 8.484375 6.414062 C 8.484375 6.867188 8.117188 7.234375 7.664062 7.234375 C 7.214844 7.234375 6.847656 6.867188 6.847656 6.414062 C 6.847656 5.964844 7.214844 5.597656 7.664062 5.597656 Z M 7.664062 5.597656 "/>
<path style=" stroke:none;fill-rule:nonzero;fill:rgb(11.372549%,20.392157%,30.980392%);fill-opacity:1;" d="M 7.664062 7.6875 C 9.296875 7.6875 9.296875 8.777344 9.296875 8.777344 L 9.296875 9.046875 L 6.03125 9.046875 L 6.03125 8.777344 C 6.03125 8.777344 6.03125 7.6875 7.664062 7.6875 Z M 7.664062 7.6875 "/>
<path style=" stroke:none;fill-rule:nonzero;fill:rgb(11.372549%,20.392157%,30.980392%);fill-opacity:1;" d="M 9.285156 6.351562 C 9.53125 6.351562 9.730469 6.550781 9.730469 6.796875 C 9.730469 7.042969 9.53125 7.238281 9.285156 7.238281 C 9.039062 7.238281 8.839844 7.042969 8.839844 6.796875 C 8.839844 6.550781 9.039062 6.351562 9.285156 6.351562 Z M 9.285156 6.351562 "/>
<path style=" stroke:none;fill-rule:nonzero;fill:rgb(11.372549%,20.392157%,30.980392%);fill-opacity:1;" d="M 9.285156 7.460938 C 10.171875 7.460938 10.171875 8.171875 10.171875 8.171875 L 10.171875 8.351562 L 8.394531 8.351562 L 8.394531 8.171875 C 8.394531 8.171875 8.394531 7.460938 9.285156 7.460938 Z M 9.285156 7.460938 "/>
</g>
</svg>
