<?xml version="1.0" encoding="UTF-8"?>
<svg xmlns="http://www.w3.org/2000/svg" xmlns:xlink="http://www.w3.org/1999/xlink" width="16pt" height="16pt" viewBox="0 0 16 16" version="1.1">
<g id="surface1">
<path style=" stroke:none;fill-rule:evenodd;fill:rgb(37.254902%,48.627451%,54.117647%);fill-opacity:1;" d="M 3.734375 0.949219 L 12.265625 0.949219 C 13.800781 0.949219 15.050781 2.199219 15.050781 3.734375 L 15.050781 12.265625 C 15.050781 13.800781 13.800781 15.050781 12.265625 15.050781 L 3.734375 15.050781 C 2.199219 15.050781 0.949219 13.800781 0.949219 12.265625 L 0.949219 3.734375 C 0.949219 2.199219 2.199219 0.949219 3.734375 0.949219 Z M 3.734375 0.949219 "/>
<path style=" stroke:none;fill-rule:nonzero;fill:rgb(49.803922%,58.823529%,63.137255%);fill-opacity:1;" d="M 13.5 8 C 13.5 4.960938 11.039062 2.5 8 2.5 C 4.960938 2.5 2.5 4.960938 2.5 8 C 2.5 11.039062 4.960938 13.5 8 13.5 C 11.039062 13.5 13.5 11.039062 13.5 8 Z M 13.5 8 "/>
<path style=" stroke:none;fill-rule:nonzero;fill:rgb(87.45098%,89.803922%,90.980392%);fill-opacity:1;" d="M 8 3.875 L 6.886719 5.210938 C 5.78125 5.652344 5 6.734375 5 8 C 5 9.65625 6.34375 11 8 11 C 9.65625 11 11 9.65625 11 8 C 11 6.734375 10.21875 5.652344 9.113281 5.210938 Z M 8 3.875 "/>
</g>
</svg>
