<?xml version="1.0" encoding="UTF-8"?>
<svg xmlns="http://www.w3.org/2000/svg" xmlns:xlink="http://www.w3.org/1999/xlink" width="16pt" height="16pt" viewBox="0 0 16 16" version="1.1">
<g id="surface1">
<path style=" stroke:none;fill-rule:nonzero;fill:rgb(60.784314%,14.901961%,68.627451%);fill-opacity:1;" d="M 10.359375 15.050781 L 12.269531 15.050781 C 12.65625 15.050781 13.023438 14.972656 13.355469 14.832031 C 13.6875 14.691406 13.988281 14.488281 14.242188 14.234375 C 14.496094 13.984375 14.699219 13.683594 14.839844 13.347656 C 14.980469 13.015625 15.058594 12.648438 15.058594 12.261719 L 15.058594 10.351562 L 10.359375 10.351562 Z M 10.359375 15.050781 "/>
<path style=" stroke:none;fill-rule:nonzero;fill:rgb(99.607843%,59.215686%,0%);fill-opacity:1;" d="M 0.941406 10.351562 L 0.941406 12.265625 C 0.941406 12.648438 1.019531 13.015625 1.160156 13.351562 C 1.300781 13.683594 1.503906 13.984375 1.757812 14.234375 C 2.011719 14.488281 2.3125 14.691406 2.644531 14.832031 C 2.976562 14.972656 3.34375 15.050781 3.730469 15.050781 L 5.640625 15.050781 L 5.640625 10.351562 Z M 0.941406 10.351562 "/>
<path style=" stroke:none;fill-rule:nonzero;fill:rgb(95.294118%,25.882353%,20.784314%);fill-opacity:1;" d="M 5.648438 10.351562 L 10.351562 10.351562 L 10.351562 15.058594 L 5.648438 15.058594 Z M 5.648438 10.351562 "/>
<path style=" stroke:none;fill-rule:nonzero;fill:rgb(99.607843%,67.45098%,20%);fill-opacity:1;" d="M 0.941406 5.648438 L 5.648438 5.648438 L 5.648438 10.351562 L 0.941406 10.351562 Z M 0.941406 5.648438 "/>
<path style=" stroke:none;fill-rule:nonzero;fill:rgb(96.078431%,40.784314%,36.470588%);fill-opacity:1;" d="M 5.648438 5.648438 L 10.351562 5.648438 L 10.351562 10.351562 L 5.648438 10.351562 Z M 5.648438 5.648438 "/>
<path style=" stroke:none;fill-rule:nonzero;fill:rgb(68.627451%,31.764706%,74.901961%);fill-opacity:1;" d="M 10.351562 5.648438 L 15.058594 5.648438 L 15.058594 10.351562 L 10.351562 10.351562 Z M 10.351562 5.648438 "/>
<path style=" stroke:none;fill-rule:nonzero;fill:rgb(76.470588%,49.019608%,81.176471%);fill-opacity:1;" d="M 15.050781 5.648438 L 15.050781 3.734375 C 15.050781 3.351562 14.972656 2.984375 14.832031 2.648438 C 14.691406 2.316406 14.488281 2.015625 14.234375 1.765625 C 13.984375 1.511719 13.683594 1.308594 13.351562 1.167969 C 13.015625 1.027344 12.648438 0.949219 12.265625 0.949219 L 10.351562 0.949219 L 10.351562 5.648438 Z M 15.050781 5.648438 "/>
<path style=" stroke:none;fill-rule:nonzero;fill:rgb(97.254902%,55.686275%,52.54902%);fill-opacity:1;" d="M 5.648438 0.941406 L 10.351562 0.941406 L 10.351562 5.648438 L 5.648438 5.648438 Z M 5.648438 0.941406 "/>
<path style=" stroke:none;fill-rule:nonzero;fill:rgb(99.607843%,75.686275%,40%);fill-opacity:1;" d="M 5.648438 0.949219 L 3.734375 0.949219 C 3.351562 0.949219 2.984375 1.027344 2.648438 1.167969 C 2.316406 1.308594 2.015625 1.511719 1.765625 1.765625 C 1.511719 2.015625 1.308594 2.316406 1.167969 2.648438 C 1.027344 2.984375 0.949219 3.351562 0.949219 3.734375 L 0.949219 5.648438 L 5.648438 5.648438 Z M 5.648438 0.949219 "/>
</g>
</svg>
