<?xml version="1.0" encoding="UTF-8"?>
<svg xmlns="http://www.w3.org/2000/svg" xmlns:xlink="http://www.w3.org/1999/xlink" width="16pt" height="16pt" viewBox="0 0 16 16" version="1.1">
<g id="surface1">
<path style=" stroke:none;fill-rule:evenodd;fill:rgb(93.72549%,69.019608%,33.333333%);fill-opacity:1;" d="M 3.734375 0.949219 L 12.265625 0.949219 C 13.800781 0.949219 15.050781 2.199219 15.050781 3.734375 L 15.050781 12.265625 C 15.050781 13.800781 13.800781 15.050781 12.265625 15.050781 L 3.734375 15.050781 C 2.199219 15.050781 0.949219 13.800781 0.949219 12.265625 L 0.949219 3.734375 C 0.949219 2.199219 2.199219 0.949219 3.734375 0.949219 Z M 3.734375 0.949219 "/>
<path style=" stroke:none;fill-rule:nonzero;fill:rgb(100%,100%,100%);fill-opacity:1;" d="M 4.347656 8.082031 C 4.347656 10.015625 1.914062 11.4375 4.105469 11.4375 L 11.894531 11.4375 C 14.085938 11.4375 11.652344 10.015625 11.652344 8.082031 C 11.652344 5.929688 10.675781 3.535156 8 3.535156 C 5.320312 3.535156 4.347656 5.929688 4.347656 8.082031 Z M 4.347656 8.082031 "/>
<path style=" stroke:none;fill-rule:nonzero;fill:rgb(100%,100%,100%);fill-opacity:1;" d="M 6.28125 11.4375 C 6.535156 12.03125 7.203125 12.464844 8 12.464844 C 8.796875 12.464844 9.464844 12.03125 9.71875 11.4375 Z M 6.28125 11.4375 "/>
</g>
</svg>
