<?xml version="1.0" encoding="UTF-8"?>
<svg xmlns="http://www.w3.org/2000/svg" xmlns:xlink="http://www.w3.org/1999/xlink" width="16pt" height="16pt" viewBox="0 0 16 16" version="1.1">
<g id="surface1">
<path style=" stroke:none;fill-rule:evenodd;fill:rgb(20.784314%,72.54902%,96.078431%);fill-opacity:1;" d="M 3.734375 0.949219 L 12.265625 0.949219 C 13.800781 0.949219 15.050781 2.199219 15.050781 3.734375 L 15.050781 12.265625 C 15.050781 13.800781 13.800781 15.050781 12.265625 15.050781 L 3.734375 15.050781 C 2.199219 15.050781 0.949219 13.800781 0.949219 12.265625 L 0.949219 3.734375 C 0.949219 2.199219 2.199219 0.949219 3.734375 0.949219 Z M 3.734375 0.949219 "/>
<path style=" stroke:none;fill-rule:nonzero;fill:rgb(93.72549%,26.666667%,26.666667%);fill-opacity:1;" d="M 6.296875 3.078125 C 5.984375 3.078125 5.730469 3.332031 5.730469 3.648438 L 5.730469 8.945312 C 5.730469 9.261719 5.984375 9.515625 6.296875 9.515625 L 11.59375 9.515625 C 11.910156 9.515625 12.164062 9.261719 12.164062 8.945312 L 12.164062 4.214844 L 13.300781 3.078125 Z M 6.296875 3.078125 "/>
<path style=" stroke:none;fill-rule:nonzero;fill:rgb(97.647059%,97.647059%,97.647059%);fill-opacity:1;" d="M 2.699219 6.484375 L 3.835938 7.621094 L 3.835938 12.351562 C 3.835938 12.667969 4.089844 12.921875 4.40625 12.921875 L 9.703125 12.921875 C 10.015625 12.921875 10.269531 12.667969 10.269531 12.351562 L 10.269531 7.054688 C 10.269531 6.738281 10.015625 6.484375 9.703125 6.484375 Z M 2.699219 6.484375 "/>
<path style=" stroke:none;fill-rule:nonzero;fill:rgb(68.235294%,89.019608%,98.431373%);fill-opacity:1;" d="M 4.972656 8.378906 L 4.972656 8.757812 L 9.136719 8.757812 L 9.136719 8.378906 Z M 4.972656 9.515625 L 4.972656 9.890625 L 9.136719 9.890625 L 9.136719 9.515625 Z M 4.972656 10.648438 L 4.972656 11.027344 L 8.152344 11.027344 L 8.152344 10.648438 Z M 4.972656 10.648438 "/>
</g>
</svg>
