<?xml version="1.0" encoding="UTF-8"?>
<svg xmlns="http://www.w3.org/2000/svg" xmlns:xlink="http://www.w3.org/1999/xlink" width="16pt" height="16pt" viewBox="0 0 16 16" version="1.1">
<g id="surface1">
<path style=" stroke:none;fill-rule:evenodd;fill:rgb(92.54902%,38.431373%,58.431373%);fill-opacity:1;" d="M 3.734375 0.949219 L 12.265625 0.949219 C 13.800781 0.949219 15.050781 2.199219 15.050781 3.734375 L 15.050781 12.265625 C 15.050781 13.800781 13.800781 15.050781 12.265625 15.050781 L 3.734375 15.050781 C 2.199219 15.050781 0.949219 13.800781 0.949219 12.265625 L 0.949219 3.734375 C 0.949219 2.199219 2.199219 0.949219 3.734375 0.949219 Z M 3.734375 0.949219 "/>
<path style=" stroke:none;fill-rule:nonzero;fill:rgb(100%,100%,100%);fill-opacity:1;" d="M 8 4.105469 C 6.488281 4.105469 5.199219 5.003906 4.644531 6.273438 C 3.238281 6.476562 2.15625 7.640625 2.15625 9.0625 C 2.15625 10.625 3.464844 11.894531 5.078125 11.894531 L 11.285156 11.894531 C 12.699219 11.894531 13.84375 10.785156 13.84375 9.417969 C 13.84375 8.144531 12.855469 7.101562 11.582031 6.960938 C 11.25 5.335938 9.773438 4.105469 8 4.105469 Z M 8 4.105469 "/>
<path style=" stroke:none;fill-rule:nonzero;fill:rgb(92.54902%,38.431373%,58.431373%);fill-opacity:1;" d="M 9.558594 6.050781 L 7.21875 6.441406 L 7.21875 8.496094 C 7.101562 8.425781 6.96875 8.390625 6.832031 8.390625 C 6.402344 8.390625 6.050781 8.738281 6.050781 9.167969 C 6.050781 9.597656 6.402344 9.949219 6.832031 9.949219 C 7.261719 9.949219 7.609375 9.597656 7.609375 9.167969 L 7.609375 7.15625 L 9.167969 6.894531 L 9.167969 8.105469 C 9.050781 8.035156 8.914062 8 8.78125 8 C 8.347656 8 8 8.347656 8 8.777344 C 8 9.207031 8.347656 9.558594 8.78125 9.558594 C 9.207031 9.558594 9.558594 9.207031 9.558594 8.777344 Z M 9.558594 6.050781 "/>
</g>
</svg>
