<?xml version="1.0" encoding="UTF-8"?>
<svg xmlns="http://www.w3.org/2000/svg" xmlns:xlink="http://www.w3.org/1999/xlink" width="16pt" height="16pt" viewBox="0 0 16 16" version="1.1">
<g id="surface1">
<path style=" stroke:none;fill-rule:evenodd;fill:rgb(100%,54.117647%,0%);fill-opacity:1;" d="M 3.734375 0.949219 L 12.265625 0.949219 C 13.800781 0.949219 15.050781 2.199219 15.050781 3.734375 L 15.050781 12.265625 C 15.050781 13.800781 13.800781 15.050781 12.265625 15.050781 L 3.734375 15.050781 C 2.199219 15.050781 0.949219 13.800781 0.949219 12.265625 L 0.949219 3.734375 C 0.949219 2.199219 2.199219 0.949219 3.734375 0.949219 Z M 3.734375 0.949219 "/>
<path style=" stroke:none;fill-rule:evenodd;fill:rgb(100%,100%,100%);fill-opacity:1;" d="M 12.222656 12.222656 L 9.664062 11.671875 L 8.4375 13.984375 L 6.832031 11.921875 L 4.40625 12.90625 L 4.503906 10.292969 L 2.015625 9.488281 L 3.769531 7.546875 L 2.375 5.328125 L 4.96875 4.96875 L 5.328125 2.375 L 7.546875 3.769531 L 9.488281 2.015625 L 10.292969 4.503906 L 12.90625 4.40625 L 11.921875 6.832031 L 13.984375 8.4375 L 11.671875 9.664062 Z M 12.222656 12.222656 "/>
<path style=" stroke:none;fill-rule:evenodd;fill:rgb(100%,54.117647%,0%);fill-opacity:1;" d="M 10.113281 9.628906 L 7.992188 9.632812 L 5.886719 9.628906 L 6.945312 7.847656 L 8 6.078125 L 9.0625 7.859375 Z M 10.113281 9.628906 "/>
</g>
</svg>
