<?xml version="1.0" encoding="UTF-8"?>
<svg xmlns="http://www.w3.org/2000/svg" xmlns:xlink="http://www.w3.org/1999/xlink" width="16pt" height="16pt" viewBox="0 0 16 16" version="1.1">
<g id="surface1">
<path style=" stroke:none;fill-rule:evenodd;fill:rgb(55.686275%,55.686275%,55.686275%);fill-opacity:1;" d="M 3.734375 0.949219 L 12.265625 0.949219 C 13.800781 0.949219 15.050781 2.199219 15.050781 3.734375 L 15.050781 12.265625 C 15.050781 13.800781 13.800781 15.050781 12.265625 15.050781 L 3.734375 15.050781 C 2.199219 15.050781 0.949219 13.800781 0.949219 12.265625 L 0.949219 3.734375 C 0.949219 2.199219 2.199219 0.949219 3.734375 0.949219 Z M 3.734375 0.949219 "/>
<path style=" stroke:none;fill-rule:nonzero;fill:rgb(27.843137%,27.843137%,27.843137%);fill-opacity:1;" d="M 6.4375 2.636719 C 5.65625 2.636719 5.027344 3.265625 5.027344 4.046875 L 5.027344 7.792969 C 5.027344 8.574219 5.65625 9.203125 6.4375 9.203125 L 7.203125 9.203125 C 7.265625 9.683594 7.671875 10.050781 8.167969 10.050781 L 10.660156 10.050781 C 11.15625 10.050781 11.5625 9.683594 11.625 9.203125 L 12.390625 9.203125 C 13.171875 9.203125 13.800781 8.574219 13.800781 7.792969 L 13.800781 4.046875 C 13.800781 3.265625 13.171875 2.636719 12.390625 2.636719 Z M 6.4375 2.636719 "/>
<path style=" stroke:none;fill-rule:nonzero;fill:rgb(14.901961%,41.568627%,84.313725%);fill-opacity:1;" d="M 6.492188 3.054688 L 12.335938 3.054688 C 12.925781 3.054688 13.40625 3.511719 13.40625 4.078125 L 13.40625 7.761719 C 13.40625 8.328125 12.925781 8.789062 12.335938 8.789062 L 6.492188 8.789062 C 5.902344 8.789062 5.421875 8.328125 5.421875 7.761719 L 5.421875 4.078125 C 5.421875 3.511719 5.902344 3.054688 6.492188 3.054688 Z M 6.492188 3.054688 "/>
<path style=" stroke:none;fill-rule:nonzero;fill:rgb(27.843137%,27.843137%,27.843137%);fill-opacity:1;" d="M 3.609375 5.949219 C 2.828125 5.949219 2.199219 6.578125 2.199219 7.359375 L 2.199219 11.105469 C 2.199219 11.886719 2.828125 12.515625 3.609375 12.515625 L 4.375 12.515625 C 4.4375 12.996094 4.84375 13.363281 5.339844 13.363281 L 7.832031 13.363281 C 8.328125 13.363281 8.734375 12.996094 8.796875 12.515625 L 9.5625 12.515625 C 10.34375 12.515625 10.972656 11.886719 10.972656 11.105469 L 10.972656 7.359375 C 10.972656 6.578125 10.34375 5.949219 9.5625 5.949219 Z M 3.609375 5.949219 "/>
<path style=" stroke:none;fill-rule:nonzero;fill:rgb(100%,74.509804%,27.843137%);fill-opacity:1;" d="M 3.664062 6.363281 L 9.507812 6.363281 C 10.097656 6.363281 10.578125 6.824219 10.578125 7.390625 L 10.578125 11.074219 C 10.578125 11.640625 10.097656 12.101562 9.507812 12.101562 L 3.664062 12.101562 C 3.074219 12.101562 2.59375 11.640625 2.59375 11.074219 L 2.59375 7.390625 C 2.59375 6.824219 3.074219 6.363281 3.664062 6.363281 Z M 3.664062 6.363281 "/>
</g>
</svg>
