<?xml version="1.0" encoding="UTF-8"?>
<svg xmlns="http://www.w3.org/2000/svg" xmlns:xlink="http://www.w3.org/1999/xlink" width="16pt" height="16pt" viewBox="0 0 16 16" version="1.1">
<g id="surface1">
<path style=" stroke:none;fill-rule:evenodd;fill:rgb(18.431373%,40.392157%,72.941176%);fill-opacity:1;" d="M 3.734375 0.949219 L 12.265625 0.949219 C 13.800781 0.949219 15.050781 2.199219 15.050781 3.734375 L 15.050781 12.265625 C 15.050781 13.800781 13.800781 15.050781 12.265625 15.050781 L 3.734375 15.050781 C 2.199219 15.050781 0.949219 13.800781 0.949219 12.265625 L 0.949219 3.734375 C 0.949219 2.199219 2.199219 0.949219 3.734375 0.949219 Z M 3.734375 0.949219 "/>
<path style=" stroke:none;fill-rule:nonzero;fill:rgb(49.803922%,75.686275%,87.058824%);fill-opacity:1;" d="M 4.75 5.25 C 3.230469 5.25 2 6.480469 2 8 C 2 9.519531 3.230469 10.75 4.75 10.75 C 5.183594 10.75 5.613281 10.644531 6 10.445312 L 6 13.25 L 7.5 13.25 L 7.5 5.25 L 6 5.25 L 6 5.550781 C 5.613281 5.355469 5.183594 5.25 4.75 5.25 Z M 4.75 6.75 C 5.441406 6.75 6 7.308594 6 8 C 6 8.691406 5.441406 9.25 4.75 9.25 C 4.058594 9.25 3.5 8.691406 3.5 8 C 3.5 7.308594 4.058594 6.75 4.75 6.75 Z M 4.75 6.75 "/>
<path style=" stroke:none;fill-rule:nonzero;fill:rgb(100%,100%,100%);fill-opacity:1;" d="M 11.25 10.75 C 12.769531 10.75 14 9.519531 14 8 C 14 6.480469 12.769531 5.25 11.25 5.25 C 10.816406 5.25 10.386719 5.355469 10 5.554688 L 10 2.75 L 8.5 2.75 L 8.5 10.75 L 10 10.75 L 10 10.449219 C 10.386719 10.648438 10.816406 10.75 11.25 10.75 Z M 11.25 9.25 C 10.558594 9.25 10 8.691406 10 8 C 10 7.308594 10.558594 6.75 11.25 6.75 C 11.941406 6.75 12.5 7.308594 12.5 8 C 12.5 8.691406 11.941406 9.25 11.25 9.25 Z M 11.25 9.25 "/>
</g>
</svg>
