<?xml version="1.0" encoding="UTF-8"?>
<svg xmlns="http://www.w3.org/2000/svg" xmlns:xlink="http://www.w3.org/1999/xlink" width="16pt" height="16pt" viewBox="0 0 16 16" version="1.1">
<g id="surface1">
<path style=" stroke:none;fill-rule:evenodd;fill:rgb(17.647059%,25.882353%,48.235294%);fill-opacity:1;" d="M 3.734375 0.949219 C 2.191406 0.949219 0.949219 2.191406 0.949219 3.734375 L 0.949219 12.265625 C 0.949219 13.808594 2.191406 15.050781 3.734375 15.050781 L 12.105469 15.050781 L 7.347656 10.296875 L 8.617188 10.265625 L 8.675781 8.890625 L 9.988281 8.921875 L 10.035156 7.5 L 15.003906 12.496094 C 15.011719 12.414062 15.050781 12.34375 15.050781 12.265625 L 15.050781 3.734375 C 15.050781 2.191406 13.808594 0.949219 12.265625 0.949219 Z M 3.734375 0.949219 "/>
<path style=" stroke:none;fill-rule:evenodd;fill:rgb(84.313725%,88.627451%,92.54902%);fill-opacity:1;" d="M 12.371094 8 C 12.371094 10.414062 10.414062 12.371094 8 12.371094 C 5.585938 12.371094 3.628906 10.414062 3.628906 8 C 3.628906 5.585938 5.585938 3.628906 8 3.628906 C 10.414062 3.628906 12.371094 5.585938 12.371094 8 Z M 12.371094 8 "/>
<path style=" stroke:none;fill-rule:evenodd;fill:rgb(99.215686%,62.745098%,0.784314%);fill-opacity:1;" d="M 15.003906 12.496094 L 10.035156 7.5 L 9.988281 8.921875 L 8.675781 8.890625 L 8.617188 10.265625 L 7.347656 10.296875 L 12.105469 15.050781 L 12.265625 15.050781 C 13.726562 15.050781 14.882812 13.921875 15.003906 12.496094 Z M 15.003906 12.496094 "/>
<path style=" stroke:none;fill-rule:evenodd;fill:rgb(100%,100%,100%);fill-opacity:1;" d="M 9.519531 12.46875 L 7.351562 10.296875 Z M 9.519531 12.46875 "/>
<path style=" stroke:none;fill-rule:evenodd;fill:rgb(99.215686%,62.745098%,0.784314%);fill-opacity:1;" d="M 10.035156 7.5 L 9.988281 8.921875 L 8.675781 8.890625 L 8.617188 10.261719 L 7.351562 10.296875 L 9.519531 12.46875 C 10.804688 12.054688 11.851562 11.109375 12.402344 9.878906 Z M 10.035156 7.5 "/>
<path style=" stroke:none;fill-rule:evenodd;fill:rgb(100%,100%,100%);fill-opacity:1;" d="M 6.035156 6.269531 L 7.347656 10.296875 L 7.351562 10.296875 L 8.617188 10.261719 L 8.675781 8.890625 L 9.988281 8.921875 L 10.035156 7.5 Z M 6.035156 6.269531 "/>
<path style=" stroke:none;fill-rule:nonzero;fill:rgb(0%,0%,0%);fill-opacity:1;" d="M 6.035156 6.269531 L 6.53125 7.777344 L 7.535156 6.742188 Z M 6.035156 6.269531 "/>
</g>
</svg>
