<?xml version="1.0" encoding="UTF-8"?>
<svg xmlns="http://www.w3.org/2000/svg" xmlns:xlink="http://www.w3.org/1999/xlink" width="16pt" height="16pt" viewBox="0 0 16 16" version="1.1">
<g id="surface1">
<path style=" stroke:none;fill-rule:evenodd;fill:rgb(80%,80%,80%);fill-opacity:1;" d="M 3.734375 0.949219 L 12.265625 0.949219 C 13.800781 0.949219 15.050781 2.199219 15.050781 3.734375 L 15.050781 12.265625 C 15.050781 13.800781 13.800781 15.050781 12.265625 15.050781 L 3.734375 15.050781 C 2.199219 15.050781 0.949219 13.800781 0.949219 12.265625 L 0.949219 3.734375 C 0.949219 2.199219 2.199219 0.949219 3.734375 0.949219 Z M 3.734375 0.949219 "/>
<path style=" stroke:none;fill-rule:nonzero;fill:rgb(27.843137%,27.843137%,27.843137%);fill-opacity:1;" d="M 8 2.75 C 7.296875 2.75 6.597656 3.027344 6.0625 3.5625 C 5.589844 4.035156 5.320312 4.628906 5.265625 5.25 L 3 5.25 L 3 11.75 L 7.5 11.75 L 7.5 12.5 L 8 12.5 L 8 10.5 L 7.5 10.5 L 7.5 11.25 L 3.5 11.25 L 3.5 5.75 L 5.265625 5.75 C 5.320312 6.371094 5.589844 6.964844 6.0625 7.4375 C 7.136719 8.511719 8.863281 8.511719 9.9375 7.4375 C 10.410156 6.964844 10.679688 6.371094 10.734375 5.75 L 12.5 5.75 L 12.5 11.25 L 9 11.25 L 9 9.75 L 8.5 9.75 L 8.5 13.25 L 9 13.25 L 9 11.75 L 13 11.75 L 13 5.25 L 10.734375 5.25 C 10.679688 4.628906 10.410156 4.035156 9.9375 3.5625 C 9.402344 3.027344 8.703125 2.75 8 2.75 Z M 8 3.265625 C 8.492188 3.265625 8.980469 3.421875 9.390625 3.75 L 8 5.140625 L 6.609375 3.75 C 7.019531 3.421875 7.507812 3.265625 8 3.265625 Z M 6.25 4.109375 L 7.640625 5.5 L 6.25 6.890625 C 5.597656 6.074219 5.597656 4.925781 6.25 4.109375 Z M 9.75 4.109375 C 10.402344 4.925781 10.402344 6.074219 9.75 6.890625 L 8.359375 5.5 Z M 8 5.859375 L 9.390625 7.25 C 8.574219 7.902344 7.425781 7.902344 6.609375 7.25 Z M 8 5.859375 "/>
</g>
</svg>
