<?xml version="1.0" encoding="UTF-8"?>
<svg xmlns="http://www.w3.org/2000/svg" xmlns:xlink="http://www.w3.org/1999/xlink" width="16pt" height="16pt" viewBox="0 0 16 16" version="1.1">
<g id="surface1">
<path style=" stroke:none;fill-rule:evenodd;fill:rgb(18.823529%,23.921569%,45.882353%);fill-opacity:1;" d="M 3.734375 0.949219 L 12.265625 0.949219 C 13.800781 0.949219 15.050781 2.199219 15.050781 3.734375 L 15.050781 12.265625 C 15.050781 13.800781 13.800781 15.050781 12.265625 15.050781 L 3.734375 15.050781 C 2.199219 15.050781 0.949219 13.800781 0.949219 12.265625 L 0.949219 3.734375 C 0.949219 2.199219 2.199219 0.949219 3.734375 0.949219 Z M 3.734375 0.949219 "/>
<path style=" stroke:none;fill-rule:nonzero;fill:rgb(36.470588%,54.901961%,72.54902%);fill-opacity:1;" d="M 8 5 C 7.925781 5 7.855469 5.003906 7.78125 5.011719 C 7.765625 5.011719 7.75 5.015625 7.734375 5.015625 C 6.464844 5.152344 5.5 6.222656 5.5 7.5 C 5.5 7.507812 5.5 7.511719 5.5 7.519531 C 4.640625 7.640625 4 8.378906 4 9.25 C 4 9.265625 4 9.28125 4 9.292969 C 4 9.304688 4 9.320312 4 9.332031 C 4 10.253906 4.746094 11 5.667969 11 L 10 11 C 11.105469 11 12 10.105469 12 9 C 12 8.074219 11.359375 7.269531 10.460938 7.058594 C 10.265625 5.992188 9.410156 5.171875 8.339844 5.027344 C 8.328125 5.023438 8.316406 5.023438 8.308594 5.019531 C 8.257812 5.015625 8.207031 5.011719 8.15625 5.007812 C 8.105469 5.003906 8.050781 5 8 5 Z M 7.996094 6 C 8.019531 6 8.046875 6 8.074219 6.003906 C 8.078125 6.003906 8.089844 6.003906 8.097656 6.003906 C 8.125 6.007812 8.15625 6.011719 8.1875 6.015625 C 8.191406 6.015625 8.199219 6.015625 8.203125 6.015625 C 8.851562 6.105469 9.359375 6.59375 9.476562 7.234375 C 9.546875 7.628906 9.84375 7.941406 10.230469 8.03125 C 10.6875 8.140625 10.996094 8.535156 11 9 C 11 9.5625 10.5625 10 10 10 L 5.667969 10 C 5.285156 10 5 9.714844 5 9.332031 C 5 9.332031 5 9.328125 5 9.328125 C 5 9.304688 5 9.28125 5 9.257812 C 5 9.253906 5 9.253906 5 9.25 C 5 8.871094 5.265625 8.5625 5.644531 8.507812 C 6.140625 8.4375 6.507812 8.003906 6.5 7.5 C 6.5 6.726562 7.070312 6.09375 7.839844 6.011719 C 7.847656 6.011719 7.855469 6.007812 7.863281 6.007812 C 7.867188 6.007812 7.871094 6.007812 7.875 6.007812 C 7.914062 6.003906 7.953125 6 7.996094 6 Z M 7.996094 6 "/>
</g>
</svg>
