<?xml version="1.0" encoding="UTF-8"?>
<svg xmlns="http://www.w3.org/2000/svg" xmlns:xlink="http://www.w3.org/1999/xlink" width="16pt" height="16pt" viewBox="0 0 16 16" version="1.1">
<g id="surface1">
<path style=" stroke:none;fill-rule:evenodd;fill:rgb(80%,80%,80%);fill-opacity:1;" d="M 3.734375 0.949219 L 12.265625 0.949219 C 13.800781 0.949219 15.050781 2.199219 15.050781 3.734375 L 15.050781 12.265625 C 15.050781 13.800781 13.800781 15.050781 12.265625 15.050781 L 3.734375 15.050781 C 2.199219 15.050781 0.949219 13.800781 0.949219 12.265625 L 0.949219 3.734375 C 0.949219 2.199219 2.199219 0.949219 3.734375 0.949219 Z M 3.734375 0.949219 "/>
<path style=" stroke:none;fill-rule:evenodd;fill:rgb(18.823529%,61.568627%,75.294118%);fill-opacity:1;" d="M 14.132812 11.078125 C 14.132812 12.734375 12.789062 14.078125 11.132812 14.078125 C 9.476562 14.078125 8.132812 12.734375 8.132812 11.078125 C 8.132812 9.421875 9.476562 8.078125 11.132812 8.078125 C 12.789062 8.078125 14.132812 9.421875 14.132812 11.078125 Z M 14.132812 11.078125 "/>
<path style=" stroke:none;fill-rule:evenodd;fill:rgb(100%,100%,100%);fill-opacity:1;" d="M 11.132812 9.859375 C 10.769531 9.859375 10.402344 9.945312 10.085938 10.125 C 9.960938 10.207031 9.808594 10.3125 9.695312 10.421875 C 9.515625 10.59375 9.359375 10.800781 9.257812 11.03125 C 9.542969 11.65625 10.167969 12.121094 10.859375 12.1875 C 11.308594 12.238281 11.78125 12.160156 12.179688 11.9375 C 12.304688 11.855469 12.457031 11.75 12.570312 11.640625 C 12.75 11.464844 12.90625 11.261719 13.007812 11.03125 C 12.722656 10.402344 12.097656 9.941406 11.40625 9.875 C 11.316406 9.863281 11.222656 9.859375 11.132812 9.859375 Z M 11.132812 10.328125 C 11.507812 10.320312 11.84375 10.65625 11.835938 11.03125 C 11.847656 11.445312 11.4375 11.800781 11.027344 11.722656 C 10.617188 11.675781 10.328125 11.214844 10.460938 10.824219 C 10.546875 10.535156 10.832031 10.324219 11.132812 10.328125 Z M 11.132812 10.796875 C 11.070312 10.796875 11.011719 10.820312 10.96875 10.863281 C 10.921875 10.90625 10.898438 10.96875 10.898438 11.03125 C 10.898438 11.160156 11.003906 11.265625 11.132812 11.265625 C 11.261719 11.265625 11.367188 11.160156 11.367188 11.03125 C 11.367188 10.902344 11.261719 10.796875 11.132812 10.796875 Z M 11.132812 10.796875 "/>
</g>
</svg>
