<?xml version="1.0" encoding="UTF-8"?>
<svg xmlns="http://www.w3.org/2000/svg" xmlns:xlink="http://www.w3.org/1999/xlink" width="16pt" height="16pt" viewBox="0 0 16 16" version="1.1">
<g id="surface1">
<path style=" stroke:none;fill-rule:evenodd;fill:rgb(76.078431%,20.784314%,16.470588%);fill-opacity:1;" d="M 3.734375 0.949219 L 12.265625 0.949219 C 13.800781 0.949219 15.050781 2.199219 15.050781 3.734375 L 15.050781 12.265625 C 15.050781 13.800781 13.800781 15.050781 12.265625 15.050781 L 3.734375 15.050781 C 2.199219 15.050781 0.949219 13.800781 0.949219 12.265625 L 0.949219 3.734375 C 0.949219 2.199219 2.199219 0.949219 3.734375 0.949219 Z M 3.734375 0.949219 "/>
<path style=" stroke:none;fill-rule:nonzero;fill:rgb(99.607843%,96.862745%,75.294118%);fill-opacity:1;" d="M 2.78125 2.78125 L 2.78125 6.261719 L 6.261719 6.261719 L 6.261719 2.78125 Z M 7.128906 2.78125 L 7.128906 4.523438 L 8 4.523438 L 8 3.652344 L 8.871094 3.652344 L 8.871094 2.78125 Z M 8 4.523438 L 8 6.261719 L 8.871094 6.261719 L 8.871094 4.523438 Z M 8 6.261719 L 7.128906 6.261719 L 7.128906 7.128906 L 8 7.128906 Z M 8 7.128906 L 8 8 L 8.871094 8 L 8.871094 7.128906 Z M 8.871094 8 L 8.871094 8.871094 L 10.609375 8.871094 L 10.609375 7.128906 L 9.738281 7.128906 L 9.738281 8 Z M 10.609375 8.871094 L 10.609375 9.738281 L 11.476562 9.738281 L 11.476562 10.609375 L 12.347656 10.609375 L 12.347656 8.871094 Z M 12.347656 8.871094 L 13.21875 8.871094 L 13.21875 7.128906 L 11.476562 7.128906 L 11.476562 8 L 12.347656 8 Z M 10.609375 9.738281 L 9.738281 9.738281 L 9.738281 10.609375 L 10.609375 10.609375 Z M 9.738281 10.609375 L 8.871094 10.609375 L 8.871094 11.476562 L 9.738281 11.476562 Z M 9.738281 11.476562 L 9.738281 12.347656 L 10.609375 12.347656 L 10.609375 11.476562 Z M 10.609375 12.347656 L 10.609375 13.21875 L 11.476562 13.21875 L 11.476562 12.347656 Z M 11.476562 12.347656 L 13.21875 12.347656 L 13.21875 11.476562 L 11.476562 11.476562 Z M 8.871094 11.476562 L 7.128906 11.476562 L 7.128906 12.347656 L 8 12.347656 L 8 13.21875 L 8.871094 13.21875 Z M 8.871094 10.609375 L 8.871094 8.871094 L 7.128906 8.871094 L 7.128906 9.738281 L 8 9.738281 L 8 10.609375 Z M 7.128906 8.871094 L 7.128906 7.128906 L 6.261719 7.128906 L 6.261719 8 L 5.390625 8 L 5.390625 8.871094 Z M 5.390625 8 L 5.390625 7.128906 L 2.78125 7.128906 L 2.78125 8.871094 L 4.523438 8.871094 L 4.523438 8 Z M 9.738281 2.78125 L 9.738281 6.261719 L 13.21875 6.261719 L 13.21875 2.78125 Z M 3.652344 3.652344 L 5.390625 3.652344 L 5.390625 5.390625 L 3.652344 5.390625 Z M 10.609375 3.652344 L 12.347656 3.652344 L 12.347656 5.390625 L 10.609375 5.390625 Z M 4.085938 4.085938 L 4.085938 4.957031 L 4.957031 4.957031 L 4.957031 4.085938 Z M 11.042969 4.085938 L 11.042969 4.957031 L 11.914062 4.957031 L 11.914062 4.085938 Z M 2.78125 9.738281 L 2.78125 13.21875 L 6.261719 13.21875 L 6.261719 9.738281 Z M 3.652344 10.609375 L 5.390625 10.609375 L 5.390625 12.347656 L 3.652344 12.347656 Z M 4.085938 11.042969 L 4.085938 11.914062 L 4.957031 11.914062 L 4.957031 11.042969 Z M 4.085938 11.042969 "/>
</g>
</svg>
