<?xml version="1.0" encoding="UTF-8"?>
<svg xmlns="http://www.w3.org/2000/svg" xmlns:xlink="http://www.w3.org/1999/xlink" width="16pt" height="16pt" viewBox="0 0 16 16" version="1.1">
<g id="surface1">
<path style=" stroke:none;fill-rule:evenodd;fill:rgb(47.058824%,16.078431%,27.45098%);fill-opacity:1;" d="M 3.734375 0.949219 L 12.265625 0.949219 C 13.800781 0.949219 15.050781 2.199219 15.050781 3.734375 L 15.050781 12.265625 C 15.050781 13.800781 13.800781 15.050781 12.265625 15.050781 L 3.734375 15.050781 C 2.199219 15.050781 0.949219 13.800781 0.949219 12.265625 L 0.949219 3.734375 C 0.949219 2.199219 2.199219 0.949219 3.734375 0.949219 Z M 3.734375 0.949219 "/>
<path style=" stroke:none;fill-rule:evenodd;fill:rgb(97.254902%,30.588235%,30.588235%);fill-opacity:1;" d="M 0.949219 9.628906 C 0.949219 9.78125 1.011719 9.914062 1.109375 10.011719 C 1.207031 10.109375 1.34375 10.171875 1.492188 10.171875 L 4.746094 10.171875 C 4.898438 10.171875 5.03125 10.109375 5.128906 10.011719 C 5.230469 9.914062 5.289062 9.78125 5.289062 9.628906 L 5.289062 6.375 C 5.289062 6.222656 5.230469 6.089844 5.128906 5.988281 C 5.03125 5.890625 4.898438 5.832031 4.746094 5.832031 L 1.492188 5.832031 C 1.34375 5.832031 1.207031 5.890625 1.109375 5.988281 C 1.011719 6.089844 0.949219 6.222656 0.949219 6.375 Z M 0.949219 9.628906 "/>
<path style=" stroke:none;fill-rule:evenodd;fill:rgb(97.254902%,30.588235%,30.588235%);fill-opacity:1;" d="M 4.753906 15.050781 C 4.902344 15.046875 5.035156 14.992188 5.128906 14.894531 C 5.230469 14.796875 5.289062 14.660156 5.289062 14.511719 L 5.289062 11.257812 C 5.289062 11.105469 5.230469 10.96875 5.128906 10.875 C 5.03125 10.773438 4.898438 10.714844 4.746094 10.714844 L 1.492188 10.714844 C 1.34375 10.714844 1.207031 10.773438 1.109375 10.875 C 1.011719 10.96875 0.949219 11.105469 0.949219 11.257812 L 0.949219 12.261719 C 0.949219 13.808594 2.191406 15.050781 3.738281 15.050781 Z M 4.753906 15.050781 "/>
<path style=" stroke:none;fill-rule:evenodd;fill:rgb(97.254902%,30.588235%,30.588235%);fill-opacity:1;" d="M 9.636719 15.050781 C 9.78125 15.046875 9.917969 14.992188 10.015625 14.894531 C 10.109375 14.796875 10.171875 14.660156 10.171875 14.511719 L 10.171875 11.257812 C 10.171875 11.105469 10.109375 10.96875 10.015625 10.875 C 9.914062 10.773438 9.78125 10.714844 9.628906 10.714844 L 6.375 10.714844 C 6.222656 10.714844 6.089844 10.773438 5.988281 10.875 C 5.890625 10.96875 5.832031 11.105469 5.832031 11.257812 L 5.832031 14.511719 C 5.832031 14.660156 5.890625 14.796875 5.988281 14.894531 C 6.085938 14.992188 6.21875 15.046875 6.367188 15.050781 Z M 9.636719 15.050781 "/>
<path style=" stroke:none;fill-rule:evenodd;fill:rgb(47.058824%,16.078431%,27.45098%);fill-opacity:1;" d="M 4.746094 0.949219 C 4.898438 0.949219 5.03125 1.007812 5.128906 1.109375 C 5.230469 1.203125 5.289062 1.339844 5.289062 1.492188 L 5.289062 4.746094 C 5.289062 4.894531 5.230469 5.03125 5.128906 5.128906 C 5.03125 5.226562 4.898438 5.289062 4.746094 5.289062 L 1.492188 5.289062 C 1.34375 5.289062 1.207031 5.226562 1.109375 5.128906 C 1.011719 5.03125 0.949219 4.894531 0.949219 4.746094 L 0.949219 6.375 C 0.949219 6.222656 1.011719 6.089844 1.109375 5.988281 C 1.207031 5.890625 1.34375 5.832031 1.492188 5.832031 L 4.746094 5.832031 C 4.898438 5.832031 5.03125 5.890625 5.128906 5.988281 C 5.230469 6.089844 5.289062 6.222656 5.289062 6.375 L 5.289062 9.628906 C 5.289062 9.78125 5.230469 9.914062 5.128906 10.011719 C 5.03125 10.109375 4.898438 10.171875 4.746094 10.171875 L 1.492188 10.171875 C 1.34375 10.171875 1.207031 10.109375 1.109375 10.011719 C 1.011719 9.914062 0.949219 9.78125 0.949219 9.628906 L 0.949219 11.257812 C 0.949219 11.105469 1.011719 10.96875 1.109375 10.875 C 1.207031 10.773438 1.34375 10.714844 1.492188 10.714844 L 4.746094 10.714844 C 4.898438 10.714844 5.03125 10.773438 5.128906 10.875 C 5.230469 10.96875 5.289062 11.105469 5.289062 11.257812 L 5.289062 14.511719 C 5.289062 14.660156 5.230469 14.796875 5.128906 14.894531 C 5.035156 14.992188 4.902344 15.046875 4.753906 15.050781 L 6.367188 15.050781 C 6.21875 15.046875 6.085938 14.992188 5.988281 14.894531 C 5.890625 14.796875 5.832031 14.660156 5.832031 14.511719 L 5.832031 11.257812 C 5.832031 11.105469 5.890625 10.96875 5.988281 10.875 C 6.089844 10.773438 6.222656 10.714844 6.375 10.714844 L 9.628906 10.714844 C 9.78125 10.714844 9.914062 10.773438 10.015625 10.875 C 10.109375 10.96875 10.171875 11.105469 10.171875 11.257812 L 10.171875 14.511719 C 10.171875 14.660156 10.109375 14.796875 10.015625 14.894531 C 9.917969 14.992188 9.78125 15.046875 9.636719 15.050781 L 12.265625 15.050781 C 13.808594 15.050781 15.050781 13.808594 15.050781 12.261719 L 15.050781 3.734375 C 15.050781 2.191406 13.808594 0.949219 12.265625 0.949219 Z M 4.746094 0.949219 "/>
<path style=" stroke:none;fill-rule:evenodd;fill:rgb(97.254902%,30.588235%,30.588235%);fill-opacity:1;" d="M 0.949219 3.734375 L 0.949219 4.746094 C 0.949219 4.894531 1.011719 5.03125 1.109375 5.128906 C 1.207031 5.226562 1.34375 5.289062 1.492188 5.289062 L 4.746094 5.289062 C 4.898438 5.289062 5.03125 5.226562 5.128906 5.128906 C 5.230469 5.03125 5.289062 4.894531 5.289062 4.746094 L 5.289062 1.492188 C 5.289062 1.339844 5.230469 1.203125 5.128906 1.109375 C 5.03125 1.007812 4.898438 0.949219 4.746094 0.949219 L 3.738281 0.949219 C 2.191406 0.949219 0.949219 2.191406 0.949219 3.734375 Z M 0.949219 3.734375 "/>
</g>
</svg>
