<?xml version="1.0" encoding="UTF-8"?>
<svg xmlns="http://www.w3.org/2000/svg" xmlns:xlink="http://www.w3.org/1999/xlink" width="16pt" height="16pt" viewBox="0 0 16 16" version="1.1">
<g id="surface1">
<path style=" stroke:none;fill-rule:evenodd;fill:rgb(0.784314%,65.882353%,95.294118%);fill-opacity:1;" d="M 3.734375 0.949219 L 12.265625 0.949219 C 13.800781 0.949219 15.050781 2.199219 15.050781 3.734375 L 15.050781 12.265625 C 15.050781 13.800781 13.800781 15.050781 12.265625 15.050781 L 3.734375 15.050781 C 2.199219 15.050781 0.949219 13.800781 0.949219 12.265625 L 0.949219 3.734375 C 0.949219 2.199219 2.199219 0.949219 3.734375 0.949219 Z M 3.734375 0.949219 "/>
<path style=" stroke:none;fill-rule:nonzero;fill:rgb(0.392157%,32.941176%,47.45098%);fill-opacity:1;" d="M 8.75 3 C 8.472656 3 8.25 3.222656 8.25 3.5 L 8.25 7.09375 L 7.71875 7.625 C 7.53125 6.402344 6.484375 5.5 5.25 5.5 C 3.871094 5.5 2.75 6.621094 2.75 8 C 2.75 9.378906 3.871094 10.5 5.25 10.5 C 5.792969 10.5 6.316406 10.320312 6.75 9.996094 L 6.75 12.5 C 6.75 12.777344 6.972656 13 7.25 13 C 7.527344 13 7.75 12.777344 7.75 12.5 L 7.75 9.007812 L 8.296875 8.460938 C 8.515625 9.640625 9.546875 10.5 10.75 10.5 C 12.128906 10.5 13.25 9.378906 13.25 8 C 13.25 6.621094 12.128906 5.5 10.75 5.5 C 10.207031 5.5 9.683594 5.679688 9.25 6.003906 L 9.25 3.5 C 9.25 3.222656 9.027344 3 8.75 3 Z M 5.25 6.5 C 6.078125 6.5 6.75 7.171875 6.75 8 C 6.75 8.828125 6.078125 9.5 5.25 9.5 C 4.421875 9.5 3.75 8.828125 3.75 8 C 3.75 7.171875 4.421875 6.5 5.25 6.5 Z M 10.75 6.5 C 11.578125 6.5 12.25 7.171875 12.25 8 C 12.25 8.828125 11.578125 9.5 10.75 9.5 C 9.921875 9.5 9.25 8.828125 9.25 8 C 9.25 7.171875 9.921875 6.5 10.75 6.5 Z M 10.75 6.5 "/>
</g>
</svg>
