<?xml version="1.0" encoding="UTF-8"?>
<svg xmlns="http://www.w3.org/2000/svg" xmlns:xlink="http://www.w3.org/1999/xlink" width="16pt" height="16pt" viewBox="0 0 16 16" version="1.1">
<g id="surface1">
<path style=" stroke:none;fill-rule:evenodd;fill:rgb(76.078431%,20.784314%,16.470588%);fill-opacity:1;" d="M 3.734375 0.949219 L 12.265625 0.949219 C 13.800781 0.949219 15.050781 2.199219 15.050781 3.734375 L 15.050781 12.265625 C 15.050781 13.800781 13.800781 15.050781 12.265625 15.050781 L 3.734375 15.050781 C 2.199219 15.050781 0.949219 13.800781 0.949219 12.265625 L 0.949219 3.734375 C 0.949219 2.199219 2.199219 0.949219 3.734375 0.949219 Z M 3.734375 0.949219 "/>
<path style=" stroke:none;fill-rule:nonzero;fill:rgb(100%,100%,100%);fill-opacity:1;" d="M 3.546875 3.515625 L 6 5.984375 L 10 5.984375 L 10 9.96875 L 12.5 12.453125 L 12.5 3.515625 Z M 6 6.5625 L 3.5 9 L 3.5 12.484375 L 7.1875 12.484375 L 9.65625 9.984375 L 6 9.984375 Z M 6 6.5625 "/>
<path style=" stroke:none;fill-rule:evenodd;fill:rgb(52.156863%,38.039216%,77.254902%);fill-opacity:1;" d="M 14.109375 11.042969 C 14.109375 12.699219 12.769531 14.042969 11.109375 14.042969 C 9.453125 14.042969 8.109375 12.699219 8.109375 11.042969 C 8.109375 9.386719 9.453125 8.042969 11.109375 8.042969 C 12.769531 8.042969 14.109375 9.386719 14.109375 11.042969 Z M 14.109375 11.042969 "/>
<path style=" stroke:none;fill-rule:nonzero;fill:rgb(100%,100%,100%);fill-opacity:1;" d="M 10.734375 9.542969 L 10.703125 9.9375 C 10.578125 9.984375 10.460938 10.050781 10.359375 10.136719 L 10 9.96875 L 9.625 10.617188 L 9.953125 10.84375 C 9.9375 10.910156 9.933594 10.976562 9.933594 11.042969 C 9.933594 11.109375 9.9375 11.175781 9.949219 11.242188 L 9.625 11.46875 L 10 12.117188 L 10.359375 11.949219 C 10.460938 12.035156 10.578125 12.101562 10.703125 12.148438 L 10.734375 12.542969 L 11.484375 12.542969 L 11.519531 12.148438 C 11.644531 12.101562 11.761719 12.035156 11.863281 11.949219 L 12.222656 12.117188 L 12.597656 11.46875 L 12.273438 11.242188 C 12.28125 11.175781 12.289062 11.109375 12.289062 11.042969 C 12.289062 10.976562 12.285156 10.910156 12.273438 10.84375 L 12.597656 10.617188 L 12.222656 9.96875 L 11.863281 10.136719 C 11.761719 10.050781 11.644531 9.984375 11.519531 9.9375 L 11.484375 9.542969 Z M 11.109375 10.613281 C 11.347656 10.613281 11.539062 10.808594 11.539062 11.042969 C 11.539062 11.28125 11.347656 11.472656 11.109375 11.472656 C 10.875 11.472656 10.683594 11.28125 10.683594 11.042969 C 10.683594 10.808594 10.875 10.613281 11.109375 10.613281 Z M 11.109375 10.613281 "/>
</g>
</svg>
