<?xml version="1.0" encoding="UTF-8"?>
<svg xmlns="http://www.w3.org/2000/svg" xmlns:xlink="http://www.w3.org/1999/xlink" width="16pt" height="16pt" viewBox="0 0 16 16" version="1.1">
<g id="surface1">
<path style=" stroke:none;fill-rule:evenodd;fill:rgb(12.54902%,58.431373%,94.901961%);fill-opacity:1;" d="M 3.734375 0.949219 L 12.265625 0.949219 C 13.800781 0.949219 15.050781 2.199219 15.050781 3.734375 L 15.050781 12.265625 C 15.050781 13.800781 13.800781 15.050781 12.265625 15.050781 L 3.734375 15.050781 C 2.199219 15.050781 0.949219 13.800781 0.949219 12.265625 L 0.949219 3.734375 C 0.949219 2.199219 2.199219 0.949219 3.734375 0.949219 Z M 3.734375 0.949219 "/>
<path style=" stroke:none;fill-rule:nonzero;fill:rgb(100%,100%,100%);fill-opacity:1;" d="M 4.953125 13.199219 C 3.484375 12.710938 3.011719 11.367188 4.078125 10.703125 C 4.4375 10.480469 5.191406 10.484375 5.679688 10.707031 C 5.878906 10.800781 6.070312 10.84375 6.105469 10.808594 C 6.191406 10.71875 6.355469 9.820312 6.746094 7.292969 C 7.078125 5.113281 7.128906 4.367188 6.976562 3.921875 C 6.910156 3.722656 6.914062 3.628906 6.988281 3.535156 C 7.238281 3.230469 9.425781 2.75 10.574219 2.75 C 11.515625 2.75 12.03125 3.019531 12.363281 3.6875 C 12.929688 4.820312 11.691406 6.769531 9.566406 8.085938 L 9.34375 8.222656 L 9.515625 8.574219 C 9.851562 9.253906 10.542969 10.261719 10.953125 10.675781 C 11.1875 10.90625 11.375 11.140625 11.375 11.191406 C 11.375 11.25 11.21875 11.285156 10.980469 11.285156 C 10.210938 11.285156 9.414062 10.707031 8.351562 9.378906 C 8.1875 9.175781 8.035156 9.027344 8.011719 9.050781 C 7.988281 9.074219 7.859375 9.671875 7.722656 10.375 C 7.410156 12.003906 7.132812 12.617188 6.550781 12.980469 C 6.246094 13.171875 6.042969 13.230469 5.65625 13.246094 C 5.382812 13.257812 5.066406 13.238281 4.953125 13.199219 Z M 9.300781 6.515625 C 9.929688 6.0625 10.464844 5.535156 10.796875 5.039062 C 11.011719 4.722656 11.09375 4.65625 11.238281 4.695312 C 11.359375 4.730469 11.339844 4.699219 11.171875 4.597656 C 10.753906 4.347656 8.933594 4.472656 8.703125 4.769531 C 8.617188 4.882812 8.289062 6.992188 8.34375 7.082031 C 8.386719 7.15625 8.5625 7.054688 9.300781 6.515625 Z M 9.300781 6.515625 "/>
</g>
</svg>
