<?xml version="1.0" encoding="UTF-8"?>
<svg xmlns="http://www.w3.org/2000/svg" xmlns:xlink="http://www.w3.org/1999/xlink" width="16pt" height="16pt" viewBox="0 0 16 16" version="1.1">
<g id="surface1">
<path style=" stroke:none;fill-rule:evenodd;fill:rgb(29.803922%,38.823529%,41.960784%);fill-opacity:1;" d="M 3.734375 0.949219 L 12.265625 0.949219 C 13.800781 0.949219 15.050781 2.199219 15.050781 3.734375 L 15.050781 12.265625 C 15.050781 13.800781 13.800781 15.050781 12.265625 15.050781 L 3.734375 15.050781 C 2.199219 15.050781 0.949219 13.800781 0.949219 12.265625 L 0.949219 3.734375 C 0.949219 2.199219 2.199219 0.949219 3.734375 0.949219 Z M 3.734375 0.949219 "/>
<path style=" stroke:none;fill-rule:nonzero;fill:rgb(23.921569%,30.980392%,33.72549%);fill-opacity:1;" d="M 9 7.5 C 9 9.433594 7.433594 11 5.5 11 C 3.566406 11 2 9.433594 2 7.5 C 2 5.566406 3.566406 4 5.5 4 C 7.433594 4 9 5.566406 9 7.5 Z M 9 7.5 "/>
<path style=" stroke:none;fill-rule:nonzero;fill:rgb(93.333333%,34.509804%,34.509804%);fill-opacity:1;" d="M 3.023438 5.023438 C 2.90625 5.144531 2.796875 5.269531 2.699219 5.40625 L 3.777344 6.484375 C 3.316406 7.269531 3.441406 8.269531 4.085938 8.914062 C 4.730469 9.558594 5.730469 9.683594 6.515625 9.21875 L 7.59375 10.300781 C 7.726562 10.203125 7.855469 10.09375 7.976562 9.972656 C 8.09375 9.855469 8.203125 9.726562 8.300781 9.59375 L 7.21875 8.515625 C 7.683594 7.730469 7.558594 6.730469 6.914062 6.085938 C 6.269531 5.441406 5.269531 5.316406 4.484375 5.78125 L 3.40625 4.699219 C 3.273438 4.796875 3.144531 4.90625 3.023438 5.027344 Z M 3.023438 5.023438 "/>
<path style=" stroke:none;fill-rule:nonzero;fill:rgb(95.294118%,76.862745%,76.862745%);fill-opacity:1;" d="M 6.5 7.5 C 6.5 8.050781 6.050781 8.5 5.5 8.5 C 4.949219 8.5 4.5 8.050781 4.5 7.5 C 4.5 6.949219 4.949219 6.5 5.5 6.5 C 6.050781 6.5 6.5 6.949219 6.5 7.5 Z M 6.5 7.5 "/>
<path style=" stroke:none;fill-rule:nonzero;fill:rgb(23.921569%,30.980392%,33.72549%);fill-opacity:1;" d="M 10.5 4.5 L 13.5 4.5 C 13.777344 4.5 14 4.722656 14 5 C 14 5.277344 13.777344 5.5 13.5 5.5 L 10.5 5.5 C 10.222656 5.5 10 5.277344 10 5 C 10 4.722656 10.222656 4.5 10.5 4.5 Z M 10.5 4.5 "/>
<path style=" stroke:none;fill-rule:nonzero;fill:rgb(34.509804%,76.862745%,93.333333%);fill-opacity:1;" d="M 14 11.25 C 14 11.664062 13.664062 12 13.25 12 C 12.835938 12 12.5 11.664062 12.5 11.25 C 12.5 10.835938 12.835938 10.5 13.25 10.5 C 13.664062 10.5 14 10.835938 14 11.25 Z M 14 11.25 "/>
<path style=" stroke:none;fill-rule:nonzero;fill:rgb(34.509804%,76.862745%,93.333333%);fill-opacity:1;" d="M 12 11.25 C 12 11.664062 11.664062 12 11.25 12 C 10.835938 12 10.5 11.664062 10.5 11.25 C 10.5 10.835938 10.835938 10.5 11.25 10.5 C 11.664062 10.5 12 10.835938 12 11.25 Z M 12 11.25 "/>
<path style=" stroke:none;fill-rule:nonzero;fill:rgb(23.921569%,30.980392%,33.72549%);fill-opacity:1;" d="M 10.5 6 L 13.5 6 C 13.777344 6 14 6.222656 14 6.5 C 14 6.777344 13.777344 7 13.5 7 L 10.5 7 C 10.222656 7 10 6.777344 10 6.5 C 10 6.222656 10.222656 6 10.5 6 Z M 10.5 6 "/>
<path style=" stroke:none;fill-rule:nonzero;fill:rgb(23.921569%,30.980392%,33.72549%);fill-opacity:1;" d="M 10.5 7.5 L 13.5 7.5 C 13.777344 7.5 14 7.722656 14 8 C 14 8.277344 13.777344 8.5 13.5 8.5 L 10.5 8.5 C 10.222656 8.5 10 8.277344 10 8 C 10 7.722656 10.222656 7.5 10.5 7.5 Z M 10.5 7.5 "/>
<path style=" stroke:none;fill-rule:nonzero;fill:rgb(23.921569%,30.980392%,33.72549%);fill-opacity:1;" d="M 10.5 9 L 13.5 9 C 13.777344 9 14 9.222656 14 9.5 C 14 9.777344 13.777344 10 13.5 10 L 10.5 10 C 10.222656 10 10 9.777344 10 9.5 C 10 9.222656 10.222656 9 10.5 9 Z M 10.5 9 "/>
</g>
</svg>
