<?xml version="1.0" encoding="UTF-8"?>
<svg xmlns="http://www.w3.org/2000/svg" xmlns:xlink="http://www.w3.org/1999/xlink" width="16pt" height="16pt" viewBox="0 0 16 16" version="1.1">
<g id="surface1">
<path style=" stroke:none;fill-rule:evenodd;fill:rgb(35.294118%,25.098039%,50.196078%);fill-opacity:1;" d="M 3.734375 0.949219 L 12.265625 0.949219 C 13.800781 0.949219 15.050781 2.199219 15.050781 3.734375 L 15.050781 12.265625 C 15.050781 13.800781 13.800781 15.050781 12.265625 15.050781 L 3.734375 15.050781 C 2.199219 15.050781 0.949219 13.800781 0.949219 12.265625 L 0.949219 3.734375 C 0.949219 2.199219 2.199219 0.949219 3.734375 0.949219 Z M 3.734375 0.949219 "/>
<path style=" stroke:none;fill-rule:evenodd;fill:rgb(47.843137%,73.72549%,79.607843%);fill-opacity:1;" d="M 8.949219 15.050781 C 9.03125 14.691406 9.125 14.359375 9.15625 13.890625 C 9.207031 13.179688 9.199219 12.480469 9.136719 12.214844 C 9.054688 11.886719 8.839844 11.296875 8.851562 11.273438 C 8.867188 11.25 9.21875 11.285156 9.519531 11.285156 C 9.871094 11.285156 10.132812 11.296875 10.316406 11.242188 C 10.476562 11.191406 10.667969 11.113281 10.777344 11.121094 C 11.027344 11.132812 11.3125 11.082031 11.550781 10.972656 C 11.792969 10.863281 11.992188 10.695312 12.078125 10.472656 C 12.128906 10.335938 12.347656 10.15625 12.40625 10.078125 C 12.5 9.949219 12.546875 9.84375 12.488281 9.640625 C 12.402344 9.351562 12.054688 9.183594 11.6875 8.84375 C 11.40625 8.589844 11.265625 8.5625 11.253906 8.292969 C 11.242188 8.089844 11.296875 7.953125 11.1875 7.847656 C 11.0625 7.734375 10.753906 7.808594 10.734375 7.804688 C 10.667969 7.730469 10.605469 7.652344 10.589844 7.566406 C 10.570312 7.484375 10.597656 7.390625 10.71875 7.28125 C 10.898438 7.117188 11.003906 7.042969 11.003906 6.863281 C 11.003906 6.6875 10.898438 6.632812 10.742188 6.496094 C 10.640625 6.40625 10.53125 6.332031 10.496094 6.332031 C 10.464844 6.332031 10.296875 6.203125 10.128906 6.039062 C 9.964844 5.882812 9.824219 5.816406 9.691406 5.789062 C 9.5625 5.761719 9.441406 5.773438 9.3125 5.773438 C 9.210938 5.773438 9.132812 5.722656 9.082031 5.636719 C 9.03125 5.546875 9.003906 5.421875 9.003906 5.273438 C 9.140625 4.773438 9.410156 4.332031 9.703125 3.984375 C 9.988281 3.640625 10.296875 3.386719 10.503906 3.273438 C 9.980469 3.199219 9.53125 3.289062 9.121094 3.480469 C 8.714844 3.671875 8.347656 3.957031 8.003906 4.273438 C 7.96875 3.90625 8.464844 3.011719 8.503906 2.773438 C 8.132812 2.96875 7.84375 3.300781 7.601562 3.671875 C 7.359375 4.039062 7.171875 4.441406 7.003906 4.773438 C 6.792969 4.484375 6.835938 3.878906 6.753906 3.523438 C 6.425781 3.953125 6.191406 4.539062 6.003906 5.125 C 5.816406 5.710938 5.679688 6.296875 5.546875 6.730469 C 5.359375 7.34375 5.148438 7.835938 4.898438 8.234375 C 4.648438 8.628906 4.359375 8.925781 4.019531 9.144531 C 3.613281 9.40625 3.253906 9.539062 2.472656 9.71875 C 2.351562 9.753906 1.574219 10.023438 0.949219 10.242188 L 0.949219 12.265625 C 0.949219 13.808594 2.191406 15.050781 3.738281 15.050781 Z M 8.949219 15.050781 "/>
<path style=" stroke:none;fill-rule:evenodd;fill:rgb(35.294118%,25.098039%,50.196078%);fill-opacity:1;" d="M 3.738281 0.949219 C 2.191406 0.949219 0.949219 2.191406 0.949219 3.738281 L 0.949219 10.242188 C 1.574219 10.023438 2.351562 9.753906 2.472656 9.71875 C 3.253906 9.539062 3.613281 9.40625 4.019531 9.144531 C 4.359375 8.925781 4.648438 8.628906 4.898438 8.234375 C 5.148438 7.835938 5.359375 7.34375 5.546875 6.730469 C 5.679688 6.296875 5.816406 5.710938 6.003906 5.125 C 6.191406 4.539062 6.425781 3.953125 6.753906 3.523438 C 6.835938 3.878906 6.792969 4.484375 7.003906 4.773438 C 7.171875 4.441406 7.359375 4.039062 7.601562 3.671875 C 7.84375 3.300781 8.132812 2.96875 8.503906 2.773438 C 8.464844 3.011719 7.96875 3.90625 8.003906 4.273438 C 8.347656 3.957031 8.714844 3.671875 9.121094 3.480469 C 9.53125 3.289062 9.980469 3.199219 10.503906 3.273438 C 10.296875 3.386719 9.988281 3.640625 9.703125 3.984375 C 9.410156 4.332031 9.140625 4.773438 9.003906 5.273438 C 9.003906 5.421875 9.03125 5.546875 9.082031 5.636719 C 9.132812 5.722656 9.210938 5.773438 9.3125 5.773438 C 9.441406 5.773438 9.5625 5.761719 9.691406 5.789062 C 9.824219 5.816406 9.964844 5.882812 10.128906 6.039062 C 10.296875 6.203125 10.464844 6.332031 10.496094 6.332031 C 10.53125 6.332031 10.640625 6.40625 10.742188 6.496094 C 10.898438 6.632812 11.003906 6.6875 11.003906 6.863281 C 11.003906 7.042969 10.898438 7.117188 10.71875 7.28125 C 10.597656 7.390625 10.570312 7.484375 10.589844 7.566406 C 10.605469 7.652344 10.667969 7.730469 10.734375 7.804688 C 10.753906 7.808594 11.0625 7.734375 11.1875 7.847656 C 11.296875 7.953125 11.242188 8.089844 11.253906 8.292969 C 11.265625 8.5625 11.40625 8.589844 11.6875 8.84375 C 12.054688 9.183594 12.402344 9.351562 12.488281 9.640625 C 12.546875 9.84375 12.5 9.949219 12.40625 10.078125 C 12.347656 10.15625 12.128906 10.335938 12.078125 10.472656 C 11.992188 10.695312 11.792969 10.863281 11.550781 10.972656 C 11.3125 11.082031 11.027344 11.132812 10.777344 11.121094 C 10.667969 11.113281 10.476562 11.191406 10.316406 11.242188 C 10.132812 11.296875 9.871094 11.285156 9.519531 11.285156 C 9.21875 11.285156 8.867188 11.25 8.851562 11.273438 C 8.839844 11.296875 9.054688 11.886719 9.136719 12.214844 C 9.199219 12.480469 9.207031 13.179688 9.15625 13.890625 C 9.125 14.359375 9.03125 14.691406 8.949219 15.050781 L 12.265625 15.050781 C 13.808594 15.050781 15.050781 13.808594 15.050781 12.265625 L 15.050781 3.738281 C 15.050781 2.191406 13.808594 0.949219 12.265625 0.949219 Z M 3.738281 0.949219 "/>
</g>
</svg>
