<?xml version="1.0" encoding="UTF-8"?>
<svg xmlns="http://www.w3.org/2000/svg" xmlns:xlink="http://www.w3.org/1999/xlink" width="16pt" height="16pt" viewBox="0 0 16 16" version="1.1">
<g id="surface1">
<path style=" stroke:none;fill-rule:evenodd;fill:rgb(30.980392%,30.980392%,30.980392%);fill-opacity:1;" d="M 3.734375 0.949219 L 12.265625 0.949219 C 13.800781 0.949219 15.050781 2.199219 15.050781 3.734375 L 15.050781 12.265625 C 15.050781 13.800781 13.800781 15.050781 12.265625 15.050781 L 3.734375 15.050781 C 2.199219 15.050781 0.949219 13.800781 0.949219 12.265625 L 0.949219 3.734375 C 0.949219 2.199219 2.199219 0.949219 3.734375 0.949219 Z M 3.734375 0.949219 "/>
<path style=" stroke:none;fill-rule:nonzero;fill:rgb(24.705882%,99.607843%,24.705882%);fill-opacity:1;" d="M 13.328125 2.5 C 13.308594 2.5 13.269531 2.5 13.226562 2.503906 C 13.167969 2.507812 13.121094 2.511719 13.113281 2.511719 C 13.109375 2.511719 13.089844 2.535156 13.066406 2.566406 C 13.046875 2.59375 13.023438 2.625 13.019531 2.625 C 13.015625 2.628906 12.976562 2.644531 12.9375 2.65625 C 12.871094 2.683594 12.863281 2.683594 12.84375 2.675781 C 12.8125 2.671875 12.765625 2.671875 12.363281 2.703125 L 12.175781 2.71875 L 12.085938 2.804688 C 12.035156 2.855469 11.988281 2.894531 11.984375 2.902344 C 11.984375 2.90625 11.953125 2.917969 11.921875 2.929688 C 11.8125 2.964844 11.71875 3.019531 11.652344 3.085938 C 11.605469 3.132812 11.59375 3.15625 11.554688 3.246094 C 11.539062 3.28125 11.523438 3.3125 11.523438 3.3125 C 11.523438 3.316406 11.5 3.304688 11.472656 3.285156 C 11.328125 3.191406 11.1875 3.148438 11.027344 3.148438 C 10.800781 3.148438 10.601562 3.207031 10.453125 3.320312 C 10.304688 3.429688 10.1875 3.566406 10.117188 3.703125 C 10.09375 3.753906 10.0625 3.859375 10.050781 3.960938 C 10.039062 4.066406 10.042969 4.238281 10.0625 4.320312 C 10.089844 4.460938 10.207031 4.71875 10.335938 4.933594 C 10.492188 5.1875 10.617188 5.347656 10.921875 5.679688 C 11.039062 5.804688 11.0625 5.832031 11.308594 6.085938 C 11.5 6.28125 11.5625 6.355469 11.644531 6.476562 C 11.816406 6.742188 11.90625 6.996094 11.882812 7.140625 C 11.867188 7.21875 11.816406 7.292969 11.746094 7.347656 C 11.699219 7.382812 11.589844 7.4375 11.527344 7.453125 C 11.476562 7.472656 11.410156 7.484375 11.40625 7.480469 C 11.402344 7.480469 11.410156 7.4375 11.421875 7.390625 C 11.460938 7.238281 11.476562 7.101562 11.46875 6.96875 C 11.453125 6.742188 11.359375 6.511719 11.226562 6.367188 C 11.125 6.253906 10.933594 6.125 10.792969 6.078125 C 10.710938 6.046875 10.667969 6.042969 10.574219 6.046875 C 10.472656 6.046875 10.421875 6.0625 10.347656 6.097656 C 10.253906 6.140625 10.210938 6.203125 10.210938 6.289062 C 10.210938 6.324219 10.214844 6.335938 10.226562 6.363281 C 10.25 6.402344 10.289062 6.441406 10.320312 6.457031 C 10.335938 6.460938 10.371094 6.46875 10.402344 6.472656 C 10.484375 6.480469 10.542969 6.5 10.613281 6.53125 C 10.679688 6.5625 10.726562 6.59375 10.785156 6.65625 C 10.859375 6.726562 10.902344 6.800781 10.921875 6.898438 C 10.9375 6.953125 10.9375 7.078125 10.921875 7.128906 C 10.910156 7.183594 10.878906 7.257812 10.863281 7.277344 L 10.851562 7.292969 L 10.742188 7.183594 C 10.59375 7.039062 10.390625 6.847656 10.332031 6.800781 C 10.128906 6.628906 9.921875 6.511719 9.75 6.46875 C 9.722656 6.460938 9.699219 6.453125 9.695312 6.449219 C 9.691406 6.445312 9.6875 6.421875 9.683594 6.394531 C 9.648438 6.183594 9.554688 5.9375 9.441406 5.765625 C 9.371094 5.664062 9.3125 5.59375 9.195312 5.476562 C 9.023438 5.304688 8.859375 5.183594 8.6875 5.101562 L 8.597656 5.058594 L 8.582031 5 C 8.53125 4.816406 8.4375 4.625 8.324219 4.472656 C 8.269531 4.402344 8.15625 4.285156 8.089844 4.234375 C 7.910156 4.09375 7.714844 4.007812 7.46875 3.972656 C 7.367188 3.957031 7.160156 3.953125 7.058594 3.960938 C 6.851562 3.980469 6.679688 4.042969 6.550781 4.136719 C 6.296875 4.328125 6.0625 4.65625 5.957031 4.980469 C 5.875 5.234375 5.59375 6.386719 5.445312 7.0625 C 5.425781 7.148438 5.40625 7.1875 5.351562 7.265625 C 5.296875 7.34375 5.25 7.390625 5.203125 7.417969 C 5.171875 7.4375 5.167969 7.4375 5.128906 7.4375 C 5.078125 7.4375 5.03125 7.417969 5.011719 7.390625 C 4.976562 7.34375 4.960938 7.25 4.964844 7.125 C 4.96875 7.035156 4.976562 6.988281 5.011719 6.796875 C 5.054688 6.589844 5.015625 6.4375 4.894531 6.3125 C 4.835938 6.25 4.746094 6.199219 4.660156 6.171875 C 4.605469 6.15625 4.496094 6.160156 4.4375 6.175781 C 4.273438 6.21875 4.140625 6.320312 4.050781 6.464844 C 4.039062 6.488281 4.019531 6.527344 4.011719 6.542969 C 3.988281 6.597656 3.988281 6.597656 3.949219 6.539062 C 3.933594 6.511719 3.898438 6.46875 3.875 6.449219 C 3.832031 6.40625 3.832031 6.40625 3.753906 6.378906 C 3.710938 6.367188 3.65625 6.34375 3.632812 6.332031 C 3.574219 6.304688 3.523438 6.289062 3.464844 6.28125 C 3.4375 6.277344 3.351562 6.265625 3.277344 6.25 C 3.144531 6.230469 3.136719 6.230469 3.078125 6.203125 C 3.007812 6.167969 3.015625 6.175781 2.945312 6.066406 C 2.898438 5.996094 2.867188 5.96875 2.820312 5.957031 C 2.730469 5.9375 2.621094 6.019531 2.613281 6.113281 C 2.609375 6.144531 2.609375 6.148438 2.59375 6.15625 C 2.5625 6.171875 2.53125 6.207031 2.515625 6.238281 C 2.476562 6.316406 2.515625 6.429688 2.59375 6.460938 C 2.609375 6.46875 2.765625 6.496094 2.796875 6.496094 C 2.800781 6.496094 2.828125 6.515625 2.859375 6.539062 C 2.917969 6.578125 2.917969 6.582031 2.96875 6.660156 C 2.996094 6.707031 3.03125 6.757812 3.046875 6.777344 C 3.0625 6.796875 3.082031 6.824219 3.089844 6.835938 C 3.109375 6.875 3.171875 6.953125 3.203125 6.980469 C 3.222656 6.996094 3.25 7.019531 3.261719 7.039062 C 3.332031 7.136719 3.414062 7.175781 3.574219 7.191406 L 3.640625 7.199219 L 3.6875 7.234375 C 3.753906 7.28125 3.839844 7.324219 3.910156 7.34375 C 3.988281 7.359375 4.074219 7.359375 4.160156 7.332031 C 4.191406 7.324219 4.21875 7.316406 4.21875 7.320312 C 4.21875 7.320312 4.222656 7.355469 4.226562 7.390625 C 4.25 7.640625 4.355469 7.84375 4.539062 8.003906 C 4.699219 8.140625 4.824219 8.199219 5.042969 8.234375 C 5.121094 8.246094 5.269531 8.25 5.339844 8.238281 C 5.464844 8.21875 5.617188 8.148438 5.738281 8.058594 C 5.882812 7.949219 6.019531 7.761719 6.164062 7.472656 C 6.316406 7.171875 6.394531 6.933594 6.503906 6.457031 C 6.554688 6.214844 6.609375 5.945312 6.640625 5.742188 C 6.652344 5.671875 6.667969 5.578125 6.679688 5.539062 C 6.730469 5.332031 6.820312 5.140625 6.949219 4.980469 C 6.996094 4.917969 7.09375 4.828125 7.128906 4.808594 C 7.214844 4.761719 7.335938 4.761719 7.441406 4.8125 C 7.480469 4.828125 7.679688 4.976562 7.679688 4.984375 C 7.679688 4.992188 7.644531 5.007812 7.605469 5.023438 C 7.433594 5.09375 7.289062 5.183594 7.175781 5.296875 C 7.050781 5.425781 6.953125 5.582031 6.898438 5.738281 C 6.871094 5.828125 6.863281 5.875 6.863281 5.996094 C 6.863281 6.136719 6.882812 6.242188 6.921875 6.347656 C 6.980469 6.496094 7.101562 6.617188 7.238281 6.664062 C 7.320312 6.695312 7.378906 6.6875 7.429688 6.636719 C 7.472656 6.59375 7.496094 6.539062 7.484375 6.484375 C 7.484375 6.46875 7.46875 6.4375 7.453125 6.40625 C 7.394531 6.308594 7.367188 6.21875 7.359375 6.125 C 7.355469 6.039062 7.382812 5.90625 7.421875 5.828125 C 7.445312 5.777344 7.503906 5.710938 7.5625 5.667969 C 7.640625 5.609375 7.753906 5.5625 7.832031 5.550781 L 7.863281 5.546875 L 7.859375 5.601562 C 7.855469 5.65625 7.851562 5.675781 7.808594 5.925781 C 7.792969 6.007812 7.777344 6.105469 7.773438 6.140625 C 7.734375 6.4375 7.75 6.726562 7.820312 6.898438 C 7.820312 6.90625 7.804688 6.917969 7.78125 6.933594 C 7.570312 7.085938 7.375 7.308594 7.261719 7.542969 C 7.125 7.816406 7.046875 8.132812 7.046875 8.382812 L 7.046875 8.457031 L 7 8.492188 C 6.9375 8.546875 6.847656 8.636719 6.792969 8.703125 C 6.578125 8.96875 6.46875 9.273438 6.480469 9.59375 C 6.484375 9.734375 6.503906 9.832031 6.558594 9.984375 C 6.652344 10.265625 6.796875 10.484375 6.976562 10.621094 C 7.03125 10.660156 7.210938 10.75 7.308594 10.78125 C 7.511719 10.851562 7.722656 10.882812 7.925781 10.875 C 8.023438 10.871094 8.035156 10.871094 8.714844 10.742188 C 9.09375 10.667969 9.578125 10.578125 9.785156 10.539062 C 9.996094 10.5 10.195312 10.460938 10.226562 10.453125 C 10.371094 10.421875 10.539062 10.457031 10.632812 10.539062 C 10.679688 10.578125 10.703125 10.644531 10.695312 10.699219 C 10.6875 10.742188 10.609375 10.804688 10.519531 10.847656 C 10.4375 10.886719 10.355469 10.910156 10.191406 10.941406 C 10.066406 10.964844 10.042969 10.972656 9.980469 11.003906 C 9.851562 11.070312 9.75 11.191406 9.71875 11.3125 C 9.699219 11.371094 9.699219 11.496094 9.710938 11.546875 C 9.753906 11.707031 9.875 11.839844 10.039062 11.910156 C 10.128906 11.949219 10.253906 11.972656 10.335938 11.964844 C 10.359375 11.964844 10.375 11.964844 10.378906 11.96875 C 10.378906 11.96875 10.371094 11.992188 10.351562 12.019531 C 10.335938 12.046875 10.316406 12.085938 10.304688 12.109375 C 10.28125 12.164062 10.28125 12.175781 10.292969 12.355469 C 10.300781 12.476562 10.3125 12.535156 10.335938 12.597656 C 10.34375 12.613281 10.347656 12.652344 10.351562 12.679688 C 10.363281 12.769531 10.375 12.816406 10.390625 12.855469 L 10.40625 12.890625 L 10.390625 13.074219 L 10.34375 13.148438 C 10.292969 13.230469 10.277344 13.261719 10.277344 13.296875 C 10.277344 13.339844 10.289062 13.367188 10.324219 13.402344 C 10.378906 13.457031 10.445312 13.480469 10.503906 13.464844 C 10.53125 13.457031 10.535156 13.460938 10.554688 13.46875 C 10.566406 13.480469 10.585938 13.488281 10.597656 13.492188 C 10.644531 13.503906 10.683594 13.5 10.730469 13.480469 C 10.78125 13.457031 10.8125 13.425781 10.828125 13.386719 C 10.851562 13.339844 10.847656 13.292969 10.8125 13.207031 L 10.789062 13.140625 L 10.804688 13.035156 C 10.820312 12.929688 10.824219 12.929688 10.84375 12.90625 C 10.875 12.871094 10.890625 12.847656 10.90625 12.804688 C 10.914062 12.78125 10.941406 12.742188 10.960938 12.714844 C 11.003906 12.65625 11.046875 12.578125 11.066406 12.515625 C 11.070312 12.496094 11.09375 12.4375 11.109375 12.390625 L 11.140625 12.308594 L 11.140625 12.253906 C 11.136719 12.210938 11.128906 12.183594 11.113281 12.132812 L 11.09375 12.066406 L 11.101562 11.984375 C 11.113281 11.890625 11.113281 11.84375 11.105469 11.777344 C 11.09375 11.671875 11.058594 11.59375 11 11.519531 C 10.976562 11.492188 10.960938 11.46875 10.960938 11.464844 C 10.960938 11.457031 10.984375 11.441406 11.011719 11.425781 C 11.121094 11.367188 11.234375 11.265625 11.3125 11.171875 C 11.429688 11.023438 11.503906 10.742188 11.484375 10.542969 C 11.46875 10.371094 11.417969 10.214844 11.335938 10.09375 C 11.25 9.960938 11.109375 9.84375 10.953125 9.761719 C 10.820312 9.699219 10.691406 9.667969 10.453125 9.640625 C 10.359375 9.628906 10 9.628906 9.890625 9.640625 C 9.566406 9.671875 9.164062 9.75 8.734375 9.871094 C 8.660156 9.890625 8.5625 9.914062 8.519531 9.925781 C 8.433594 9.945312 7.945312 10.007812 7.886719 10.007812 C 7.847656 10.007812 7.722656 9.988281 7.667969 9.972656 C 7.546875 9.945312 7.449219 9.898438 7.40625 9.855469 C 7.375 9.824219 7.328125 9.738281 7.316406 9.6875 C 7.3125 9.671875 7.308594 9.636719 7.304688 9.609375 C 7.300781 9.570312 7.300781 9.558594 7.335938 9.429688 C 7.355469 9.355469 7.371094 9.292969 7.375 9.292969 C 7.375 9.292969 7.402344 9.3125 7.429688 9.339844 C 7.65625 9.546875 7.941406 9.640625 8.175781 9.664062 C 8.492188 9.671875 8.902344 9.527344 9.035156 9.28125 C 9.125 9.117188 9.125 8.953125 9.039062 8.875 C 9.007812 8.84375 8.96875 8.828125 8.910156 8.828125 C 8.84375 8.828125 8.796875 8.855469 8.761719 8.910156 C 8.722656 8.972656 8.710938 8.988281 8.671875 9.023438 C 8.609375 9.089844 8.503906 9.144531 8.394531 9.171875 C 8.328125 9.1875 8.226562 9.191406 8.171875 9.175781 C 8.117188 9.160156 8.03125 9.117188 7.988281 9.089844 C 7.925781 9.046875 7.832031 8.9375 7.828125 8.90625 C 7.828125 8.894531 7.992188 8.84375 8.207031 8.789062 C 8.429688 8.730469 8.570312 8.679688 8.734375 8.597656 C 8.886719 8.523438 8.980469 8.457031 9.082031 8.359375 C 9.117188 8.328125 9.144531 8.300781 9.148438 8.300781 C 9.152344 8.300781 9.171875 8.308594 9.191406 8.316406 C 9.292969 8.363281 9.46875 8.414062 9.589844 8.433594 C 9.75 8.460938 9.878906 8.464844 10.039062 8.441406 C 10.328125 8.398438 10.574219 8.320312 10.773438 8.203125 C 10.804688 8.1875 10.828125 8.171875 10.835938 8.171875 C 10.839844 8.171875 10.882812 8.1875 10.929688 8.203125 C 11.082031 8.253906 11.214844 8.277344 11.375 8.28125 C 11.609375 8.289062 11.820312 8.246094 12.015625 8.148438 C 12.15625 8.078125 12.242188 8.015625 12.351562 7.90625 C 12.546875 7.703125 12.6875 7.472656 12.746094 7.261719 C 12.769531 7.160156 12.777344 7.097656 12.769531 6.996094 C 12.742188 6.652344 12.617188 6.328125 12.398438 6.042969 C 12.214844 5.796875 11.78125 5.300781 11.269531 4.742188 C 11.082031 4.539062 11.089844 4.546875 11.019531 4.460938 C 10.929688 4.351562 10.894531 4.269531 10.878906 4.136719 C 10.863281 4.027344 10.898438 3.949219 10.972656 3.921875 C 11.0625 3.886719 11.238281 3.992188 11.394531 4.171875 C 11.515625 4.308594 11.570312 4.355469 11.664062 4.402344 C 11.824219 4.480469 11.980469 4.476562 12.136719 4.390625 C 12.203125 4.351562 12.28125 4.273438 12.3125 4.210938 C 12.347656 4.136719 12.367188 4.0625 12.371094 3.964844 C 12.375 3.824219 12.347656 3.710938 12.269531 3.582031 C 12.261719 3.5625 12.253906 3.546875 12.253906 3.546875 C 12.257812 3.546875 12.3125 3.539062 12.375 3.535156 C 12.484375 3.53125 12.492188 3.53125 12.527344 3.511719 C 12.546875 3.503906 12.574219 3.484375 12.59375 3.472656 C 12.609375 3.460938 12.648438 3.433594 12.679688 3.414062 C 12.742188 3.371094 12.792969 3.324219 12.847656 3.257812 C 12.875 3.222656 12.894531 3.207031 12.921875 3.191406 C 12.96875 3.167969 13.007812 3.128906 13.027344 3.085938 L 13.046875 3.050781 L 13.105469 3.03125 C 13.164062 3.011719 13.171875 3.011719 13.246094 3.007812 C 13.359375 3.007812 13.410156 2.996094 13.453125 2.953125 C 13.492188 2.917969 13.5 2.890625 13.5 2.828125 C 13.5 2.765625 13.488281 2.738281 13.453125 2.695312 C 13.433594 2.671875 13.429688 2.664062 13.425781 2.636719 C 13.417969 2.574219 13.378906 2.507812 13.34375 2.5 C 13.339844 2.5 13.335938 2.5 13.328125 2.5 Z M 8.441406 5.535156 C 8.449219 5.535156 8.457031 5.542969 8.476562 5.558594 C 8.578125 5.636719 8.683594 5.738281 8.765625 5.847656 C 8.933594 6.074219 9.019531 6.328125 9.007812 6.566406 C 9.003906 6.683594 8.972656 6.769531 8.914062 6.835938 C 8.867188 6.890625 8.8125 6.910156 8.738281 6.894531 C 8.601562 6.863281 8.503906 6.757812 8.453125 6.59375 C 8.40625 6.433594 8.394531 6.105469 8.425781 5.816406 C 8.429688 5.765625 8.433594 5.6875 8.433594 5.636719 C 8.433594 5.589844 8.4375 5.542969 8.4375 5.539062 C 8.441406 5.539062 8.441406 5.535156 8.441406 5.535156 Z M 9.5 7.128906 C 9.578125 7.128906 9.664062 7.152344 9.753906 7.195312 C 9.847656 7.238281 10.0625 7.390625 10.234375 7.53125 C 10.382812 7.648438 10.511719 7.757812 10.507812 7.765625 C 10.503906 7.777344 10.367188 7.8125 10.25 7.828125 C 10.195312 7.835938 9.964844 7.84375 9.914062 7.839844 C 9.84375 7.832031 9.726562 7.8125 9.671875 7.796875 C 9.519531 7.753906 9.34375 7.644531 9.269531 7.546875 C 9.222656 7.484375 9.1875 7.390625 9.1875 7.335938 C 9.1875 7.308594 9.210938 7.261719 9.242188 7.230469 C 9.3125 7.164062 9.398438 7.128906 9.5 7.128906 Z M 8.433594 7.402344 C 8.441406 7.402344 8.449219 7.402344 8.453125 7.40625 C 8.539062 7.410156 8.605469 7.433594 8.640625 7.46875 C 8.671875 7.503906 8.683594 7.589844 8.664062 7.660156 C 8.605469 7.886719 8.316406 8.101562 7.824219 8.289062 C 7.738281 8.324219 7.597656 8.363281 7.578125 8.363281 C 7.570312 8.363281 7.570312 8.359375 7.574219 8.34375 C 7.589844 8.261719 7.640625 8.125 7.699219 8.011719 C 7.839844 7.738281 8.039062 7.535156 8.257812 7.445312 C 8.328125 7.417969 8.382812 7.402344 8.433594 7.402344 Z M 8.433594 7.402344 "/>
</g>
</svg>
