<?xml version="1.0" encoding="UTF-8"?>
<svg xmlns="http://www.w3.org/2000/svg" xmlns:xlink="http://www.w3.org/1999/xlink" width="16pt" height="16pt" viewBox="0 0 16 16" version="1.1">
<g id="surface1">
<path style=" stroke:none;fill-rule:evenodd;fill:rgb(16.470588%,0%,0.392157%);fill-opacity:1;" d="M 3.734375 0.949219 L 12.265625 0.949219 C 13.800781 0.949219 15.050781 2.199219 15.050781 3.734375 L 15.050781 12.265625 C 15.050781 13.800781 13.800781 15.050781 12.265625 15.050781 L 3.734375 15.050781 C 2.199219 15.050781 0.949219 13.800781 0.949219 12.265625 L 0.949219 3.734375 C 0.949219 2.199219 2.199219 0.949219 3.734375 0.949219 Z M 3.734375 0.949219 "/>
<path style=" stroke:none;fill-rule:nonzero;fill:rgb(59.607843%,0%,0.392157%);fill-opacity:0.705882;" d="M 8.222656 7.945312 C 8.222656 6.648438 7.125 5.597656 5.777344 5.597656 C 4.425781 5.597656 3.332031 6.648438 3.332031 7.945312 C 3.332031 9.242188 4.425781 10.296875 5.777344 10.296875 C 7.125 10.296875 8.222656 9.242188 8.222656 7.945312 Z M 8.222656 7.945312 "/>
<path style=" stroke:none;fill-rule:nonzero;fill:rgb(59.607843%,0%,0.392157%);fill-opacity:0.745098;" d="M 8.847656 9.445312 C 8.847656 8.148438 7.75 7.09375 6.402344 7.09375 C 5.050781 7.09375 3.957031 8.148438 3.957031 9.445312 C 3.957031 10.742188 5.050781 11.792969 6.402344 11.792969 C 7.75 11.792969 8.847656 10.742188 8.847656 9.445312 Z M 8.847656 9.445312 "/>
<path style=" stroke:none;fill-rule:nonzero;fill:rgb(59.607843%,0%,0.392157%);fill-opacity:0.686275;" d="M 11.273438 10.730469 C 11.273438 9.320312 9.832031 8.175781 8.050781 8.175781 C 6.269531 8.175781 4.824219 9.320312 4.824219 10.730469 C 4.824219 12.140625 6.269531 13.28125 8.050781 13.28125 C 9.832031 13.28125 11.273438 12.140625 11.273438 10.730469 Z M 11.273438 10.730469 "/>
<path style=" stroke:none;fill-rule:nonzero;fill:rgb(59.607843%,0%,0.392157%);fill-opacity:0.647059;" d="M 9.730469 5.980469 C 9.730469 4.683594 8.636719 3.632812 7.285156 3.632812 C 5.9375 3.632812 4.84375 4.683594 4.84375 5.980469 C 4.84375 7.277344 5.9375 8.328125 7.285156 8.328125 C 8.636719 8.328125 9.730469 7.277344 9.730469 5.980469 Z M 9.730469 5.980469 "/>
<path style=" stroke:none;fill-rule:nonzero;fill:rgb(59.607843%,0%,0.392157%);fill-opacity:0.717647;" d="M 11.503906 6.171875 C 11.503906 4.875 10.410156 3.824219 9.0625 3.824219 C 7.710938 3.824219 6.617188 4.875 6.617188 6.171875 C 6.617188 7.46875 7.710938 8.519531 9.0625 8.519531 C 10.410156 8.519531 11.503906 7.46875 11.503906 6.171875 Z M 11.503906 6.171875 "/>
<path style=" stroke:none;fill-rule:nonzero;fill:rgb(59.607843%,0%,0.392157%);fill-opacity:0.772549;" d="M 12.140625 7.226562 C 12.140625 5.929688 11.128906 4.878906 9.878906 4.878906 C 8.632812 4.878906 7.621094 5.929688 7.621094 7.226562 C 7.621094 8.523438 8.632812 9.578125 9.878906 9.578125 C 11.128906 9.578125 12.140625 8.523438 12.140625 7.226562 Z M 12.140625 7.226562 "/>
<path style=" stroke:none;fill-rule:nonzero;fill:rgb(59.607843%,0%,0.392157%);fill-opacity:0.682353;" d="M 8.414062 6.339844 C 8.414062 5.042969 7.320312 3.992188 5.96875 3.992188 C 4.617188 3.992188 3.523438 5.042969 3.523438 6.339844 C 3.523438 7.636719 4.617188 8.6875 5.96875 8.6875 C 7.320312 8.6875 8.414062 7.636719 8.414062 6.339844 Z M 8.414062 6.339844 "/>
<path style=" stroke:none;fill-rule:evenodd;fill:rgb(100%,100%,100%);fill-opacity:1;" d="M 10.242188 7.203125 C 10.242188 5.402344 8.777344 3.9375 6.96875 3.9375 C 5.160156 3.9375 3.695312 5.402344 3.695312 7.203125 C 3.695312 9.007812 5.160156 10.46875 6.96875 10.46875 C 8.777344 10.46875 10.242188 9.007812 10.242188 7.203125 Z M 10.242188 7.203125 "/>
<path style=" stroke:none;fill-rule:evenodd;fill:rgb(64.313725%,0.784314%,1.960784%);fill-opacity:1;" d="M 12.578125 8.914062 C 12.578125 6.691406 10.773438 4.890625 8.546875 4.890625 C 6.320312 4.890625 4.515625 6.691406 4.515625 8.914062 C 4.515625 11.132812 6.320312 12.933594 8.546875 12.933594 C 10.773438 12.933594 12.578125 11.132812 12.578125 8.914062 Z M 12.578125 8.914062 "/>
<path style=" stroke:none;fill-rule:evenodd;fill:rgb(0%,0.784314%,1.960784%);fill-opacity:1;" d="M 12.542969 8.933594 C 12.542969 6.742188 10.761719 4.964844 8.566406 4.964844 C 6.371094 4.964844 4.589844 6.742188 4.589844 8.933594 C 4.589844 11.125 6.371094 12.898438 8.566406 12.898438 C 10.761719 12.898438 12.542969 11.125 12.542969 8.933594 Z M 12.542969 8.933594 "/>
</g>
</svg>
