<?xml version="1.0" encoding="UTF-8"?>
<svg xmlns="http://www.w3.org/2000/svg" xmlns:xlink="http://www.w3.org/1999/xlink" width="16pt" height="16pt" viewBox="0 0 16 16" version="1.1">
<g id="surface1">
<path style=" stroke:none;fill-rule:evenodd;fill:rgb(25.882353%,43.137255%,65.490196%);fill-opacity:1;" d="M 3.734375 0.949219 L 12.265625 0.949219 C 13.800781 0.949219 15.050781 2.199219 15.050781 3.734375 L 15.050781 12.265625 C 15.050781 13.800781 13.800781 15.050781 12.265625 15.050781 L 3.734375 15.050781 C 2.199219 15.050781 0.949219 13.800781 0.949219 12.265625 L 0.949219 3.734375 C 0.949219 2.199219 2.199219 0.949219 3.734375 0.949219 Z M 3.734375 0.949219 "/>
<path style=" stroke:none;fill-rule:nonzero;fill:rgb(100%,100%,100%);fill-opacity:1;" d="M 11.25 7.128906 C 10.382812 9.34375 4.664062 9.683594 4.371094 8.792969 C 3.863281 7.078125 4.992188 5.320312 6.890625 4.859375 C 8.789062 4.402344 10.742188 5.417969 11.25 7.128906 Z M 11.25 7.128906 "/>
<path style=" stroke:none;fill-rule:nonzero;fill:rgb(100%,100%,100%);fill-opacity:1;" d="M 11.25 7.75 C 11.25 7.75 6.535156 11.160156 3.511719 10.070312 C 2.984375 9.65625 3.984375 8.964844 3.980469 8.808594 C 2.824219 9.265625 2.25 9.867188 2.25 10.585938 C 2.742188 12.1875 7.210938 10.425781 7.953125 10.089844 C 9.425781 9.382812 11.25 7.75 11.25 7.75 Z M 11.25 7.75 "/>
<path style=" stroke:none;fill-rule:nonzero;fill:rgb(100%,100%,100%);fill-opacity:1;" d="M 5.25 11.25 C 5.25 11.25 11.03125 9.914062 12.328125 7.0625 C 12.390625 6.421875 11.382812 6.664062 11.265625 6.558594 C 12.886719 5.816406 13.828125 6.582031 13.746094 7.0625 C 13.59375 7.933594 11.796875 9.359375 9.449219 10.289062 C 7.90625 10.875 5.25 11.25 5.25 11.25 Z M 5.25 11.25 "/>
</g>
</svg>
