<?xml version="1.0" encoding="UTF-8"?>
<svg xmlns="http://www.w3.org/2000/svg" xmlns:xlink="http://www.w3.org/1999/xlink" width="16pt" height="16pt" viewBox="0 0 16 16" version="1.1">
<g id="surface1">
<path style=" stroke:none;fill-rule:evenodd;fill:rgb(80%,80%,80%);fill-opacity:1;" d="M 3.734375 0.949219 L 12.265625 0.949219 C 13.800781 0.949219 15.050781 2.199219 15.050781 3.734375 L 15.050781 12.265625 C 15.050781 13.800781 13.800781 15.050781 12.265625 15.050781 L 3.734375 15.050781 C 2.199219 15.050781 0.949219 13.800781 0.949219 12.265625 L 0.949219 3.734375 C 0.949219 2.199219 2.199219 0.949219 3.734375 0.949219 Z M 3.734375 0.949219 "/>
<path style=" stroke:none;fill-rule:nonzero;fill:rgb(100%,100%,100%);fill-opacity:1;" d="M 6.34375 2.84375 L 9.65625 2.84375 C 9.960938 2.84375 10.207031 3.078125 10.207031 3.359375 L 10.207031 12.640625 C 10.207031 12.921875 9.960938 13.15625 9.65625 13.15625 L 6.34375 13.15625 C 6.039062 13.15625 5.792969 12.921875 5.792969 12.640625 L 5.792969 3.359375 C 5.792969 3.078125 6.039062 2.84375 6.34375 2.84375 Z M 6.34375 2.84375 "/>
<path style=" stroke:none;fill-rule:nonzero;fill:rgb(100%,100%,100%);fill-opacity:1;" d="M 13.15625 6.34375 L 13.15625 9.65625 C 13.15625 9.960938 12.921875 10.207031 12.640625 10.207031 L 3.359375 10.207031 C 3.078125 10.207031 2.84375 9.960938 2.84375 9.65625 L 2.84375 6.34375 C 2.84375 6.039062 3.078125 5.792969 3.359375 5.792969 L 12.640625 5.792969 C 12.921875 5.792969 13.15625 6.039062 13.15625 6.34375 Z M 13.15625 6.34375 "/>
<path style=" stroke:none;fill-rule:nonzero;fill:rgb(24.313725%,24.313725%,24.313725%);fill-opacity:1;" d="M 8 3.953125 C 8.203125 3.953125 8.367188 4.175781 8.367188 4.457031 L 8.367188 7.492188 C 8.367188 7.773438 8.203125 8 8 8 C 7.796875 8 7.632812 7.773438 7.632812 7.492188 L 7.632812 4.457031 C 7.632812 4.175781 7.796875 3.953125 8 3.953125 Z M 8 3.953125 "/>
<path style=" stroke:none;fill-rule:nonzero;fill:rgb(24.313725%,24.313725%,24.313725%);fill-opacity:1;" d="M 12.046875 8 C 12.046875 8.203125 11.824219 8.367188 11.542969 8.367188 L 8.507812 8.367188 C 8.226562 8.367188 8 8.203125 8 8 C 8 7.796875 8.226562 7.632812 8.507812 7.632812 L 11.542969 7.632812 C 11.824219 7.632812 12.046875 7.796875 12.046875 8 Z M 12.046875 8 "/>
<path style=" stroke:none;fill-rule:nonzero;fill:rgb(87.45098%,34.117647%,30.196078%);fill-opacity:1;" d="M 9.472656 8 C 9.472656 8.8125 8.8125 9.472656 8 9.472656 C 7.1875 9.472656 6.527344 8.8125 6.527344 8 C 6.527344 7.1875 7.1875 6.527344 8 6.527344 C 8.8125 6.527344 9.472656 7.1875 9.472656 8 Z M 9.472656 8 "/>
</g>
</svg>
