<?xml version="1.0" encoding="UTF-8"?>
<svg xmlns="http://www.w3.org/2000/svg" xmlns:xlink="http://www.w3.org/1999/xlink" width="16pt" height="16pt" viewBox="0 0 16 16" version="1.1">
<g id="surface1">
<path style=" stroke:none;fill-rule:evenodd;fill:rgb(19.215686%,63.921569%,70.196078%);fill-opacity:1;" d="M 3.734375 0.949219 L 12.265625 0.949219 C 13.800781 0.949219 15.050781 2.199219 15.050781 3.734375 L 15.050781 12.265625 C 15.050781 13.800781 13.800781 15.050781 12.265625 15.050781 L 3.734375 15.050781 C 2.199219 15.050781 0.949219 13.800781 0.949219 12.265625 L 0.949219 3.734375 C 0.949219 2.199219 2.199219 0.949219 3.734375 0.949219 Z M 3.734375 0.949219 "/>
<path style=" stroke:none;fill-rule:nonzero;fill:rgb(100%,100%,100%);fill-opacity:1;" d="M 4.390625 2.859375 L 5.355469 2.300781 C 5.886719 1.996094 6.597656 2.230469 6.945312 2.828125 L 11.949219 11.5 C 12.296875 12.097656 12.144531 12.832031 11.613281 13.140625 L 10.648438 13.695312 C 10.117188 14.003906 9.40625 13.765625 9.0625 13.167969 L 4.054688 4.5 C 3.707031 3.898438 3.859375 3.164062 4.390625 2.859375 Z M 4.390625 2.859375 "/>
<path style=" stroke:none;fill-rule:nonzero;fill:rgb(40.392157%,73.72549%,78.431373%);fill-opacity:1;" d="M 11.609375 2.859375 L 10.648438 2.304688 C 10.117188 1.996094 9.40625 2.234375 9.058594 2.832031 L 4.050781 11.5 C 3.707031 12.101562 3.859375 12.835938 4.390625 13.140625 L 5.351562 13.699219 C 5.886719 14.003906 6.597656 13.769531 6.941406 13.171875 L 11.949219 4.5 C 12.296875 3.902344 12.144531 3.167969 11.609375 2.859375 Z M 11.609375 2.859375 "/>
<path style=" stroke:none;fill-rule:nonzero;fill:rgb(58.039216%,83.137255%,87.058824%);fill-opacity:1;" d="M 14.257812 8.554688 L 14.257812 7.441406 C 14.257812 6.828125 13.699219 6.328125 13.007812 6.328125 L 2.992188 6.328125 C 2.300781 6.328125 1.742188 6.828125 1.742188 7.441406 L 1.742188 8.554688 C 1.742188 9.171875 2.300781 9.667969 2.992188 9.667969 L 13.007812 9.667969 C 13.699219 9.667969 14.257812 9.171875 14.257812 8.554688 Z M 14.257812 8.554688 "/>
</g>
</svg>
