<?xml version="1.0" encoding="UTF-8"?>
<svg xmlns="http://www.w3.org/2000/svg" xmlns:xlink="http://www.w3.org/1999/xlink" width="16pt" height="16pt" viewBox="0 0 16 16" version="1.1">
<g id="surface1">
<path style=" stroke:none;fill-rule:evenodd;fill:rgb(48.235294%,78.823529%,64.313725%);fill-opacity:1;" d="M 3.878906 1.1875 L 12.121094 1.1875 C 13.609375 1.1875 14.8125 2.390625 14.8125 3.878906 L 14.8125 12.121094 C 14.8125 13.609375 13.609375 14.8125 12.121094 14.8125 L 3.878906 14.8125 C 2.390625 14.8125 1.1875 13.609375 1.1875 12.121094 L 1.1875 3.878906 C 1.1875 2.390625 2.390625 1.1875 3.878906 1.1875 Z M 3.878906 1.1875 "/>
<path style=" stroke:none;fill-rule:evenodd;fill:rgb(48.235294%,78.823529%,64.313725%);fill-opacity:1;" d="M 7.457031 0.949219 C 7.96875 0.976562 8.472656 1.050781 8.925781 1.234375 C 9.449219 1.445312 9.921875 1.753906 10.316406 2.132812 C 10.710938 2.515625 11.03125 2.96875 11.253906 3.46875 C 11.472656 3.972656 11.597656 4.523438 11.597656 5.105469 C 11.597656 5.644531 11.410156 6.253906 11.078125 6.839844 C 10.75 7.421875 10.277344 7.976562 9.703125 8.414062 L 8.347656 6.554688 C 8.148438 6.25 7.875 6.003906 7.554688 5.835938 C 7.234375 5.664062 6.871094 5.570312 6.496094 5.570312 C 6.195312 5.570312 5.910156 5.628906 5.648438 5.734375 C 5.386719 5.84375 5.152344 6 4.953125 6.1875 C 4.753906 6.378906 4.59375 6.605469 4.484375 6.859375 C 4.371094 7.109375 4.3125 7.382812 4.3125 7.671875 C 4.3125 8.105469 4.453125 8.527344 4.710938 8.882812 L 4.714844 8.882812 L 5.019531 9.304688 L 4.3125 9.304688 L 4.3125 12.574219 C 4.3125 12.789062 4.261719 12.984375 4.171875 13.15625 C 4.082031 13.328125 3.953125 13.476562 3.796875 13.597656 C 3.484375 13.839844 3.0625 13.972656 2.609375 13.972656 C 2.15625 13.972656 1.734375 13.839844 1.421875 13.597656 C 1.308594 13.511719 1.234375 13.394531 1.15625 13.28125 C 1.5625 14.316406 2.554688 15.050781 3.738281 15.050781 L 12.265625 15.050781 C 13.808594 15.050781 15.050781 13.808594 15.050781 12.265625 L 15.050781 3.734375 C 15.050781 2.191406 13.808594 0.949219 12.265625 0.949219 Z M 6.496094 6.039062 C 6.773438 6.039062 7.042969 6.105469 7.28125 6.222656 C 7.519531 6.34375 7.730469 6.515625 7.886719 6.734375 L 11.289062 11.402344 C 11.488281 11.675781 11.59375 12.003906 11.597656 12.339844 C 11.597656 12.5625 11.546875 12.78125 11.464844 12.976562 C 11.375 13.171875 11.25 13.347656 11.097656 13.496094 C 10.945312 13.640625 10.761719 13.761719 10.558594 13.84375 C 10.355469 13.925781 10.132812 13.972656 9.894531 13.972656 C 9.621094 13.972656 9.351562 13.90625 9.113281 13.789062 C 8.875 13.667969 8.664062 13.496094 8.503906 13.277344 L 5.105469 8.609375 C 4.90625 8.332031 4.796875 8.007812 4.796875 7.671875 C 4.796875 7.445312 4.84375 7.230469 4.929688 7.035156 C 5.015625 6.839844 5.140625 6.664062 5.292969 6.515625 C 5.449219 6.367188 5.632812 6.25 5.835938 6.167969 C 6.039062 6.082031 6.261719 6.039062 6.496094 6.039062 Z M 6.496094 6.039062 "/>
<path style=" stroke:none;fill-rule:evenodd;fill:rgb(70.588235%,48.235294%,70.980392%);fill-opacity:1;" d="M 6.496094 6.039062 C 6.261719 6.039062 6.039062 6.082031 5.835938 6.167969 C 5.632812 6.25 5.449219 6.367188 5.292969 6.515625 C 5.140625 6.664062 5.015625 6.839844 4.929688 7.035156 C 4.84375 7.230469 4.796875 7.445312 4.796875 7.671875 C 4.796875 8.007812 4.90625 8.332031 5.105469 8.609375 L 8.503906 13.277344 C 8.664062 13.496094 8.875 13.667969 9.113281 13.789062 C 9.351562 13.90625 9.621094 13.972656 9.894531 13.972656 C 10.132812 13.972656 10.355469 13.925781 10.558594 13.84375 C 10.761719 13.761719 10.945312 13.640625 11.097656 13.496094 C 11.25 13.347656 11.375 13.171875 11.464844 12.976562 C 11.546875 12.78125 11.597656 12.5625 11.597656 12.339844 C 11.59375 12.003906 11.488281 11.675781 11.289062 11.402344 L 7.886719 6.734375 C 7.730469 6.515625 7.519531 6.34375 7.28125 6.222656 C 7.042969 6.105469 6.773438 6.039062 6.496094 6.039062 Z M 6.496094 6.039062 "/>
<path style=" stroke:none;fill-rule:evenodd;fill:rgb(100%,100%,100%);fill-opacity:1;" d="M 4 0.949219 C 4.234375 1.136719 4.433594 1.359375 4.566406 1.617188 C 4.714844 1.894531 4.796875 2.207031 4.796875 2.539062 C 4.796875 2.828125 4.734375 3.101562 4.625 3.351562 C 4.511719 3.605469 4.351562 3.828125 4.152344 4.019531 C 3.953125 4.210938 3.71875 4.363281 3.457031 4.472656 C 3.199219 4.578125 2.910156 4.640625 2.609375 4.640625 C 2.265625 4.640625 1.941406 4.558594 1.652344 4.421875 C 1.378906 4.285156 1.144531 4.09375 0.949219 3.867188 L 0.949219 12.265625 C 0.949219 12.625 1.03125 12.964844 1.15625 13.28125 C 1.234375 13.394531 1.308594 13.511719 1.421875 13.597656 C 1.734375 13.839844 2.15625 13.972656 2.609375 13.972656 C 3.0625 13.972656 3.484375 13.839844 3.796875 13.597656 C 3.953125 13.476562 4.082031 13.328125 4.171875 13.15625 C 4.261719 12.984375 4.3125 12.789062 4.3125 12.574219 L 4.3125 9.304688 L 5.019531 9.304688 L 4.714844 8.882812 L 4.710938 8.882812 C 4.453125 8.527344 4.3125 8.105469 4.3125 7.671875 C 4.3125 7.382812 4.371094 7.109375 4.484375 6.859375 C 4.59375 6.605469 4.753906 6.378906 4.953125 6.1875 C 5.152344 6 5.386719 5.84375 5.648438 5.734375 C 5.910156 5.628906 6.195312 5.570312 6.496094 5.570312 C 6.871094 5.570312 7.234375 5.664062 7.554688 5.835938 C 7.875 6.003906 8.148438 6.25 8.347656 6.554688 L 9.703125 8.414062 C 10.277344 7.976562 10.75 7.421875 11.078125 6.839844 C 11.410156 6.253906 11.597656 5.644531 11.597656 5.105469 C 11.597656 4.523438 11.472656 3.972656 11.253906 3.46875 C 11.03125 2.96875 10.710938 2.515625 10.316406 2.132812 C 9.921875 1.753906 9.449219 1.445312 8.925781 1.234375 C 8.472656 1.050781 7.96875 0.976562 7.457031 0.949219 Z M 4 0.949219 "/>
<path style=" stroke:none;fill-rule:evenodd;fill:rgb(48.235294%,78.823529%,64.313725%);fill-opacity:1;" d="M 1.058594 3.199219 C 1.019531 3.378906 0.949219 3.546875 0.949219 3.734375 L 0.949219 3.867188 C 1.144531 4.09375 1.378906 4.285156 1.652344 4.421875 C 1.941406 4.558594 2.265625 4.640625 2.609375 4.640625 C 2.910156 4.640625 3.199219 4.578125 3.457031 4.472656 C 3.71875 4.363281 3.953125 4.210938 4.152344 4.019531 C 4.351562 3.828125 4.511719 3.605469 4.625 3.351562 C 4.734375 3.101562 4.796875 2.828125 4.796875 2.539062 C 4.796875 2.207031 4.714844 1.894531 4.566406 1.617188 C 4.433594 1.359375 4.234375 1.136719 4 0.949219 L 3.738281 0.949219 C 3.578125 0.949219 3.4375 1.015625 3.285156 1.039062 C 3.316406 1.050781 3.347656 1.066406 3.378906 1.082031 C 3.429688 1.105469 3.480469 1.132812 3.527344 1.164062 C 3.578125 1.191406 3.625 1.222656 3.667969 1.257812 C 3.710938 1.292969 3.753906 1.328125 3.796875 1.367188 C 3.835938 1.402344 3.875 1.441406 3.910156 1.484375 C 3.945312 1.527344 3.980469 1.570312 4.015625 1.613281 C 4.046875 1.660156 4.074219 1.707031 4.101562 1.753906 C 4.128906 1.800781 4.15625 1.851562 4.175781 1.902344 C 4.199219 1.953125 4.21875 2 4.234375 2.054688 C 4.25 2.105469 4.265625 2.160156 4.277344 2.210938 C 4.289062 2.265625 4.296875 2.320312 4.300781 2.375 C 4.308594 2.429688 4.3125 2.484375 4.3125 2.539062 C 4.3125 2.578125 4.308594 2.613281 4.308594 2.652344 C 4.300781 2.707031 4.296875 2.761719 4.285156 2.8125 C 4.277344 2.867188 4.265625 2.921875 4.25 2.972656 C 4.234375 3.027344 4.214844 3.078125 4.195312 3.128906 C 4.175781 3.179688 4.152344 3.230469 4.125 3.28125 C 4.097656 3.328125 4.070312 3.375 4.042969 3.421875 C 4.011719 3.46875 3.976562 3.511719 3.941406 3.554688 C 3.90625 3.59375 3.871094 3.636719 3.828125 3.675781 C 3.789062 3.714844 3.75 3.75 3.703125 3.785156 C 3.660156 3.820312 3.617188 3.855469 3.570312 3.886719 C 3.523438 3.917969 3.472656 3.945312 3.425781 3.96875 C 3.375 3.996094 3.324219 4.019531 3.273438 4.042969 C 3.21875 4.0625 3.167969 4.082031 3.113281 4.097656 C 3.058594 4.113281 3.003906 4.125 2.949219 4.140625 C 2.890625 4.148438 2.835938 4.15625 2.78125 4.164062 C 2.722656 4.167969 2.667969 4.171875 2.609375 4.171875 C 2.570312 4.171875 2.53125 4.171875 2.488281 4.167969 C 2.433594 4.164062 2.375 4.15625 2.320312 4.148438 C 2.265625 4.136719 2.210938 4.125 2.15625 4.109375 C 2.101562 4.097656 2.046875 4.078125 1.992188 4.0625 C 1.941406 4.039062 1.890625 4.019531 1.839844 3.992188 C 1.789062 3.96875 1.738281 3.941406 1.691406 3.910156 C 1.644531 3.882812 1.597656 3.851562 1.550781 3.816406 C 1.507812 3.78125 1.464844 3.746094 1.425781 3.710938 C 1.382812 3.671875 1.34375 3.632812 1.308594 3.589844 C 1.273438 3.546875 1.238281 3.503906 1.207031 3.460938 C 1.171875 3.414062 1.144531 3.367188 1.117188 3.320312 C 1.09375 3.28125 1.078125 3.242188 1.058594 3.199219 Z M 1.058594 3.199219 "/>
<path style=" stroke:none;fill-rule:evenodd;fill:rgb(70.588235%,48.235294%,70.980392%);fill-opacity:1;" d="M 1.058594 3.199219 C 1.078125 3.242188 1.09375 3.28125 1.117188 3.320312 C 1.144531 3.367188 1.171875 3.414062 1.207031 3.460938 C 1.238281 3.503906 1.273438 3.546875 1.308594 3.589844 C 1.34375 3.632812 1.382812 3.671875 1.425781 3.710938 C 1.464844 3.746094 1.507812 3.78125 1.550781 3.816406 C 1.597656 3.851562 1.644531 3.882812 1.691406 3.910156 C 1.738281 3.941406 1.789062 3.96875 1.839844 3.992188 C 1.890625 4.019531 1.941406 4.039062 1.992188 4.0625 C 2.046875 4.078125 2.101562 4.097656 2.15625 4.109375 C 2.210938 4.125 2.265625 4.136719 2.320312 4.148438 C 2.375 4.15625 2.433594 4.164062 2.488281 4.167969 C 2.53125 4.171875 2.570312 4.171875 2.609375 4.171875 C 2.667969 4.171875 2.722656 4.167969 2.78125 4.164062 C 2.835938 4.15625 2.890625 4.148438 2.949219 4.140625 C 3.003906 4.125 3.058594 4.113281 3.113281 4.097656 C 3.167969 4.082031 3.21875 4.0625 3.273438 4.042969 C 3.324219 4.019531 3.375 3.996094 3.425781 3.96875 C 3.472656 3.945312 3.523438 3.917969 3.570312 3.886719 C 3.617188 3.855469 3.660156 3.820312 3.703125 3.785156 C 3.75 3.75 3.789062 3.714844 3.828125 3.675781 C 3.871094 3.636719 3.90625 3.59375 3.941406 3.554688 C 3.976562 3.511719 4.011719 3.46875 4.042969 3.421875 C 4.070312 3.375 4.097656 3.328125 4.125 3.28125 C 4.152344 3.230469 4.175781 3.179688 4.195312 3.128906 C 4.214844 3.078125 4.234375 3.027344 4.25 2.972656 C 4.265625 2.921875 4.277344 2.867188 4.285156 2.8125 C 4.296875 2.761719 4.300781 2.707031 4.308594 2.652344 C 4.308594 2.613281 4.3125 2.578125 4.3125 2.539062 C 4.3125 2.484375 4.308594 2.429688 4.300781 2.375 C 4.296875 2.320312 4.289062 2.265625 4.277344 2.210938 C 4.265625 2.160156 4.25 2.105469 4.234375 2.054688 C 4.21875 2 4.199219 1.953125 4.175781 1.902344 C 4.15625 1.851562 4.128906 1.800781 4.101562 1.753906 C 4.074219 1.707031 4.046875 1.660156 4.015625 1.613281 C 3.980469 1.570312 3.945312 1.527344 3.910156 1.484375 C 3.875 1.441406 3.835938 1.402344 3.796875 1.367188 C 3.753906 1.328125 3.710938 1.292969 3.667969 1.257812 C 3.625 1.222656 3.578125 1.191406 3.527344 1.164062 C 3.480469 1.132812 3.429688 1.105469 3.378906 1.082031 C 3.347656 1.066406 3.316406 1.050781 3.285156 1.039062 C 2.148438 1.230469 1.28125 2.078125 1.058594 3.199219 Z M 1.058594 3.199219 "/>
</g>
</svg>
