<?xml version="1.0" encoding="UTF-8"?>
<svg xmlns="http://www.w3.org/2000/svg" xmlns:xlink="http://www.w3.org/1999/xlink" width="16pt" height="16pt" viewBox="0 0 16 16" version="1.1">
<g id="surface1">
<path style=" stroke:none;fill-rule:evenodd;fill:rgb(80%,80%,80%);fill-opacity:1;" d="M 3.734375 0.949219 L 12.265625 0.949219 C 13.800781 0.949219 15.050781 2.199219 15.050781 3.734375 L 15.050781 12.265625 C 15.050781 13.800781 13.800781 15.050781 12.265625 15.050781 L 3.734375 15.050781 C 2.199219 15.050781 0.949219 13.800781 0.949219 12.265625 L 0.949219 3.734375 C 0.949219 2.199219 2.199219 0.949219 3.734375 0.949219 Z M 3.734375 0.949219 "/>
<path style=" stroke:none;fill-rule:nonzero;fill:rgb(50.196078%,50.196078%,50.196078%);fill-opacity:1;" d="M 8 3.492188 C 4.6875 3.492188 2 5.394531 2 7.742188 C 2 10.089844 4.6875 11.992188 8 11.992188 C 11.3125 11.992188 14 10.089844 14 7.742188 C 14 5.394531 11.3125 3.492188 8 3.492188 Z M 9 4.992188 C 11.484375 4.992188 13.5 6.226562 13.5 7.742188 C 13.5 9.261719 11.484375 10.492188 9 10.492188 C 6.515625 10.492188 4.5 9.261719 4.5 7.742188 C 4.5 6.226562 6.515625 4.992188 9 4.992188 Z M 9 4.992188 "/>
<path style=" stroke:none;fill-rule:evenodd;fill:rgb(11.764706%,38.431373%,69.803922%);fill-opacity:1;" d="M 11.550781 9.742188 C 11.550781 9.742188 11.742188 9.6875 11.9375 9.785156 C 12.003906 9.820312 12.121094 9.890625 12.203125 9.980469 C 12.285156 10.066406 12.324219 10.15625 12.324219 10.15625 L 13.5 12.507812 L 11 12.507812 C 11 12.507812 10.441406 10.875 9.917969 10.171875 C 9.8125 10.089844 9.726562 10 9.625 10.007812 L 9 10.007812 L 9 12.503906 L 7 12.503906 L 7 5.507812 L 10.789062 5.507812 C 11.199219 5.507812 12.9375 5.757812 13 7.507812 C 12.9375 9.257812 11.550781 9.757812 11.550781 9.757812 Z M 9 6.992188 L 9 8.492188 L 10.5 8.492188 C 10.5 8.492188 11 8.511719 11 7.742188 C 11 6.9375 10.5 6.996094 10.5 6.996094 Z M 9 6.992188 "/>
</g>
</svg>
