<?xml version="1.0" encoding="UTF-8"?>
<svg xmlns="http://www.w3.org/2000/svg" xmlns:xlink="http://www.w3.org/1999/xlink" width="16pt" height="16pt" viewBox="0 0 16 16" version="1.1">
<g id="surface1">
<path style=" stroke:none;fill-rule:evenodd;fill:rgb(75.686275%,15.294118%,17.647059%);fill-opacity:1;" d="M 3.734375 0.949219 L 12.265625 0.949219 C 13.800781 0.949219 15.050781 2.199219 15.050781 3.734375 L 15.050781 12.265625 C 15.050781 13.800781 13.800781 15.050781 12.265625 15.050781 L 3.734375 15.050781 C 2.199219 15.050781 0.949219 13.800781 0.949219 12.265625 L 0.949219 3.734375 C 0.949219 2.199219 2.199219 0.949219 3.734375 0.949219 Z M 3.734375 0.949219 "/>
<path style=" stroke:none;fill-rule:nonzero;fill:rgb(100%,100%,100%);fill-opacity:1;" d="M 3.207031 3.527344 C 3.585938 4.054688 3.855469 5.070312 4.003906 6.238281 C 3.484375 6.761719 3.207031 7.375 3.207031 8 C 3.207031 8.644531 3.5 9.273438 4.046875 9.804688 C 3.921875 10.953125 3.65625 11.953125 3.207031 12.472656 C 4.507812 12.472656 5.671875 11.914062 6.492188 11.03125 C 6.976562 11.140625 7.488281 11.195312 8 11.195312 C 10.648438 11.195312 12.792969 9.765625 12.792969 8 C 12.792969 6.234375 10.648438 4.804688 8 4.804688 C 7.488281 4.804688 6.976562 4.863281 6.492188 4.972656 C 5.675781 4.085938 4.507812 3.527344 3.207031 3.527344 Z M 3.207031 3.527344 "/>
<path style=" stroke:none;fill-rule:nonzero;fill:rgb(75.686275%,15.294118%,17.647059%);fill-opacity:1;" d="M 8 5.445312 C 6.792969 5.445312 5.707031 5.777344 4.964844 6.273438 C 4.222656 6.765625 3.84375 7.375 3.84375 8 C 3.847656 8.449219 4.046875 8.910156 4.492188 9.34375 C 4.632812 9.480469 4.703125 9.675781 4.683594 9.871094 C 4.613281 10.511719 4.511719 11.109375 4.34375 11.640625 C 4.988281 11.4375 5.570312 11.085938 6.019531 10.597656 C 6.175781 10.429688 6.40625 10.359375 6.628906 10.40625 C 7.070312 10.503906 7.535156 10.554688 8 10.554688 C 9.207031 10.554688 10.292969 10.222656 11.035156 9.726562 C 11.777344 9.234375 12.15625 8.625 12.15625 8 C 12.15625 7.375 11.777344 6.765625 11.035156 6.273438 C 10.292969 5.777344 9.207031 5.445312 8 5.445312 Z M 8 5.445312 "/>
<path style=" stroke:none;fill-rule:nonzero;fill:rgb(100%,100%,100%);fill-opacity:1;" d="M 6.082031 7.359375 C 5.730469 7.359375 5.445312 7.648438 5.445312 8 C 5.445312 8.351562 5.730469 8.640625 6.082031 8.640625 C 6.4375 8.640625 6.722656 8.351562 6.722656 8 C 6.722656 7.648438 6.4375 7.359375 6.082031 7.359375 Z M 8 7.359375 C 7.648438 7.359375 7.359375 7.648438 7.359375 8 C 7.359375 8.351562 7.648438 8.640625 8 8.640625 C 8.351562 8.640625 8.640625 8.351562 8.640625 8 C 8.640625 7.648438 8.351562 7.359375 8 7.359375 Z M 9.917969 7.359375 C 9.5625 7.359375 9.277344 7.648438 9.277344 8 C 9.277344 8.351562 9.5625 8.640625 9.917969 8.640625 C 10.269531 8.640625 10.554688 8.351562 10.554688 8 C 10.554688 7.648438 10.269531 7.359375 9.917969 7.359375 Z M 9.917969 7.359375 "/>
</g>
</svg>
