<?xml version="1.0" encoding="UTF-8"?>
<svg xmlns="http://www.w3.org/2000/svg" xmlns:xlink="http://www.w3.org/1999/xlink" width="16pt" height="16pt" viewBox="0 0 16 16" version="1.1">
<g id="surface1">
<path style=" stroke:none;fill-rule:evenodd;fill:rgb(0%,49.411765%,100%);fill-opacity:1;" d="M 3.734375 0.949219 L 12.265625 0.949219 C 13.800781 0.949219 15.050781 2.199219 15.050781 3.734375 L 15.050781 12.265625 C 15.050781 13.800781 13.800781 15.050781 12.265625 15.050781 L 3.734375 15.050781 C 2.199219 15.050781 0.949219 13.800781 0.949219 12.265625 L 0.949219 3.734375 C 0.949219 2.199219 2.199219 0.949219 3.734375 0.949219 Z M 3.734375 0.949219 "/>
<path style=" stroke:none;fill-rule:nonzero;fill:rgb(71.764706%,71.764706%,71.764706%);fill-opacity:1;" d="M 11.058594 12.25 L 4.941406 12.25 L 4.941406 9.1875 L 11.058594 9.1875 Z M 11.058594 12.25 "/>
<path style=" stroke:none;fill-rule:nonzero;fill:rgb(60%,60%,60%);fill-opacity:1;" d="M 11.855469 9.496094 L 4.144531 9.496094 C 3.90625 9.496094 3.71875 9.300781 3.71875 9.0625 L 3.71875 4.726562 C 3.71875 4.488281 3.90625 4.292969 4.144531 4.292969 L 11.855469 4.292969 C 12.09375 4.292969 12.28125 4.488281 12.28125 4.726562 L 12.28125 9.0625 C 12.28125 9.300781 12.09375 9.496094 11.855469 9.496094 Z M 11.855469 9.496094 "/>
<path style=" stroke:none;fill-rule:nonzero;fill:rgb(40%,40%,40%);fill-opacity:1;" d="M 10.449219 8.269531 L 5.550781 8.269531 L 5.550781 7.660156 L 10.449219 7.660156 Z M 10.449219 8.269531 "/>
<path style=" stroke:none;fill-rule:nonzero;fill:rgb(40%,40%,40%);fill-opacity:1;" d="M 9.835938 7.046875 L 6.164062 7.046875 L 6.164062 6.4375 L 9.835938 6.4375 Z M 9.835938 7.046875 "/>
<path style=" stroke:none;fill-rule:nonzero;fill:rgb(40%,40%,40%);fill-opacity:1;" d="M 9.222656 5.824219 L 6.777344 5.824219 L 6.777344 5.210938 L 9.222656 5.210938 Z M 9.222656 5.824219 "/>
<path style=" stroke:none;fill-rule:nonzero;fill:rgb(40%,40%,40%);fill-opacity:1;" d="M 10.449219 11.636719 L 8.917969 11.636719 L 8.917969 10.71875 L 10.449219 10.71875 Z M 10.449219 11.636719 "/>
<path style=" stroke:none;fill-rule:nonzero;fill:rgb(40%,40%,40%);fill-opacity:1;" d="M 7.082031 11.636719 L 5.550781 11.636719 L 5.550781 10.71875 L 7.082031 10.71875 Z M 7.082031 11.636719 "/>
</g>
</svg>
