<?xml version="1.0" encoding="UTF-8"?>
<svg xmlns="http://www.w3.org/2000/svg" xmlns:xlink="http://www.w3.org/1999/xlink" width="16pt" height="16pt" viewBox="0 0 16 16" version="1.1">
<g id="surface1">
<path style=" stroke:none;fill-rule:evenodd;fill:rgb(0%,49.411765%,100%);fill-opacity:1;" d="M 3.734375 0.949219 L 12.265625 0.949219 C 13.800781 0.949219 15.050781 2.199219 15.050781 3.734375 L 15.050781 12.265625 C 15.050781 13.800781 13.800781 15.050781 12.265625 15.050781 L 3.734375 15.050781 C 2.199219 15.050781 0.949219 13.800781 0.949219 12.265625 L 0.949219 3.734375 C 0.949219 2.199219 2.199219 0.949219 3.734375 0.949219 Z M 3.734375 0.949219 "/>
<path style=" stroke:none;fill-rule:nonzero;fill:rgb(60%,60%,60%);fill-opacity:1;" d="M 6.097656 9.726562 L 10.09375 9.726562 L 10.09375 12.875 L 6.097656 12.875 Z M 6.097656 9.726562 "/>
<path style=" stroke:none;fill-rule:nonzero;fill:rgb(30.196078%,30.196078%,30.196078%);fill-opacity:1;" d="M 6.011719 3.78125 L 10.179688 3.78125 C 10.675781 3.78125 11.078125 4.183594 11.078125 4.679688 L 11.078125 9.464844 C 11.078125 9.960938 10.675781 10.363281 10.179688 10.363281 L 6.011719 10.363281 C 5.515625 10.363281 5.113281 9.960938 5.113281 9.464844 L 5.113281 4.679688 C 5.113281 4.183594 5.515625 3.78125 6.011719 3.78125 Z M 6.011719 3.78125 "/>
<path style=" stroke:none;fill-rule:nonzero;fill:rgb(30.196078%,30.196078%,30.196078%);fill-opacity:1;" d="M 6.730469 11.695312 L 7.796875 11.695312 L 7.796875 12.300781 L 6.730469 12.300781 Z M 6.730469 11.695312 "/>
<path style=" stroke:none;fill-rule:nonzero;fill:rgb(30.196078%,30.196078%,30.196078%);fill-opacity:1;" d="M 8.398438 11.695312 L 9.460938 11.695312 L 9.460938 12.300781 L 8.398438 12.300781 Z M 8.398438 11.695312 "/>
</g>
</svg>
