<?xml version="1.0" encoding="UTF-8"?>
<svg xmlns="http://www.w3.org/2000/svg" xmlns:xlink="http://www.w3.org/1999/xlink" width="16pt" height="16pt" viewBox="0 0 16 16" version="1.1">
<g id="surface1">
<path style=" stroke:none;fill-rule:evenodd;fill:rgb(0%,49.411765%,100%);fill-opacity:1;" d="M 3.734375 0.949219 L 12.265625 0.949219 C 13.800781 0.949219 15.050781 2.199219 15.050781 3.734375 L 15.050781 12.265625 C 15.050781 13.800781 13.800781 15.050781 12.265625 15.050781 L 3.734375 15.050781 C 2.199219 15.050781 0.949219 13.800781 0.949219 12.265625 L 0.949219 3.734375 C 0.949219 2.199219 2.199219 0.949219 3.734375 0.949219 Z M 3.734375 0.949219 "/>
<path style="fill-rule:nonzero;fill:rgb(100%,100%,91.372549%);fill-opacity:1;stroke-width:1.129384;stroke-linecap:butt;stroke-linejoin:miter;stroke:rgb(100%,100%,91.764706%);stroke-opacity:1;stroke-miterlimit:4;" d="M 14.320312 24.078125 C 11.539062 23.484375 9.09375 21.117188 8.367188 18.3125 C 8.085938 17.476562 8.109375 15.59375 8.3125 14.65625 C 8.640625 13.101562 9.84375 11.179688 11.085938 10.242188 C 12.734375 8.984375 13.484375 8.726562 16.328125 8.414062 C 21.390625 7.859375 22.992188 7.703125 23.039062 7.75 C 23.0625 7.773438 23.273438 9.554688 23.5 11.703125 C 24.078125 17.085938 24.015625 18.109375 22.960938 20.210938 C 22.765625 20.601562 22.203125 21.3125 21.632812 21.882812 C 20.851562 22.679688 20.4375 22.992188 19.609375 23.398438 C 17.898438 24.234375 16.109375 24.46875 14.320312 24.078125 Z M 12.015625 19.109375 C 13.84375 18.664062 15.65625 17.554688 17.40625 15.789062 C 18.90625 14.28125 20.296875 12.242188 21.367188 9.96875 C 21.804688 9.039062 23.070312 7.765625 22.757812 7.875 C 22.679688 7.90625 20.671875 8.039062 18.953125 8.21875 C 17.226562 8.390625 14.242188 8.757812 13.8125 8.859375 C 11.078125 9.476562 8.453125 12.164062 8.226562 15.03125 C 8 16.796875 8.304688 18.203125 8.96875 19.640625 L 10.476562 19.40625 C 10.796875 19.367188 11.492188 19.234375 12.015625 19.101562 Z M 12.015625 19.109375 " transform="matrix(0.5,0,0,0.5,0,0)"/>
<path style=" stroke:none;fill-rule:nonzero;fill:rgb(60%,60%,60%);fill-opacity:1;" d="M 10.195312 11.394531 L 13.121094 11.394531 L 13.121094 13.699219 L 10.195312 13.699219 Z M 10.195312 11.394531 "/>
<path style=" stroke:none;fill-rule:nonzero;fill:rgb(30.196078%,30.196078%,30.196078%);fill-opacity:1;" d="M 10.132812 7.046875 L 13.183594 7.046875 C 13.546875 7.046875 13.839844 7.34375 13.839844 7.703125 L 13.839844 11.203125 C 13.839844 11.566406 13.546875 11.859375 13.183594 11.859375 L 10.132812 11.859375 C 9.769531 11.859375 9.476562 11.566406 9.476562 11.203125 L 9.476562 7.703125 C 9.476562 7.34375 9.769531 7.046875 10.132812 7.046875 Z M 10.132812 7.046875 "/>
<path style=" stroke:none;fill-rule:nonzero;fill:rgb(30.196078%,30.196078%,30.196078%);fill-opacity:1;" d="M 10.65625 12.835938 L 11.4375 12.835938 L 11.4375 13.28125 L 10.65625 13.28125 Z M 10.65625 12.835938 "/>
<path style=" stroke:none;fill-rule:nonzero;fill:rgb(30.196078%,30.196078%,30.196078%);fill-opacity:1;" d="M 11.878906 12.835938 L 12.65625 12.835938 L 12.65625 13.28125 L 11.878906 13.28125 Z M 11.878906 12.835938 "/>
</g>
</svg>
