<?xml version="1.0" encoding="UTF-8"?>
<svg xmlns="http://www.w3.org/2000/svg" xmlns:xlink="http://www.w3.org/1999/xlink" width="16pt" height="16pt" viewBox="0 0 16 16" version="1.1">
<g id="surface1">
<path style=" stroke:none;fill-rule:evenodd;fill:rgb(76.470588%,39.607843%,56.862745%);fill-opacity:1;" d="M 3.734375 0.949219 L 12.265625 0.949219 C 13.800781 0.949219 15.050781 2.199219 15.050781 3.734375 L 15.050781 12.265625 C 15.050781 13.800781 13.800781 15.050781 12.265625 15.050781 L 3.734375 15.050781 C 2.199219 15.050781 0.949219 13.800781 0.949219 12.265625 L 0.949219 3.734375 C 0.949219 2.199219 2.199219 0.949219 3.734375 0.949219 Z M 3.734375 0.949219 "/>
<path style=" stroke:none;fill-rule:nonzero;fill:rgb(81.176471%,52.941176%,65.882353%);fill-opacity:1;" d="M 13.894531 6.421875 C 13.457031 4.789062 11.789062 3.828125 10.15625 4.265625 C 9.71875 2.628906 8.054688 1.667969 6.421875 2.105469 C 4.789062 2.542969 3.828125 4.210938 4.265625 5.84375 C 2.628906 6.28125 1.667969 7.945312 2.105469 9.578125 C 2.542969 11.210938 4.210938 12.171875 5.84375 11.734375 C 6.28125 13.371094 7.945312 14.332031 9.578125 13.894531 C 11.210938 13.457031 12.171875 11.789062 11.734375 10.15625 C 13.371094 9.71875 14.332031 8.054688 13.894531 6.421875 Z M 13.894531 6.421875 "/>
<path style=" stroke:none;fill-rule:nonzero;fill:rgb(88.627451%,71.764706%,79.607843%);fill-opacity:1;" d="M 9.046875 6.1875 C 8.570312 5.914062 7.980469 5.941406 7.535156 6.265625 C 6.988281 6.207031 6.460938 6.476562 6.1875 6.953125 C 5.914062 7.429688 5.941406 8.019531 6.265625 8.464844 C 6.207031 9.011719 6.476562 9.539062 6.953125 9.8125 C 7.429688 10.085938 8.019531 10.058594 8.464844 9.734375 C 9.011719 9.792969 9.539062 9.523438 9.8125 9.046875 C 10.085938 8.570312 10.058594 7.980469 9.734375 7.535156 C 9.792969 6.988281 9.523438 6.460938 9.046875 6.1875 Z M 9.046875 6.1875 "/>
</g>
</svg>
