<?xml version="1.0" encoding="UTF-8"?>
<svg xmlns="http://www.w3.org/2000/svg" xmlns:xlink="http://www.w3.org/1999/xlink" width="16pt" height="16pt" viewBox="0 0 16 16" version="1.1">
<g id="surface1">
<path style=" stroke:none;fill-rule:evenodd;fill:rgb(21.960784%,45.098039%,56.078431%);fill-opacity:1;" d="M 3.734375 0.949219 L 12.265625 0.949219 C 13.800781 0.949219 15.050781 2.199219 15.050781 3.734375 L 15.050781 12.265625 C 15.050781 13.800781 13.800781 15.050781 12.265625 15.050781 L 3.734375 15.050781 C 2.199219 15.050781 0.949219 13.800781 0.949219 12.265625 L 0.949219 3.734375 C 0.949219 2.199219 2.199219 0.949219 3.734375 0.949219 Z M 3.734375 0.949219 "/>
<path style=" stroke:none;fill-rule:nonzero;fill:rgb(100%,100%,100%);fill-opacity:1;" d="M 8 2.757812 C 5.105469 2.757812 2.757812 5.105469 2.757812 8 C 2.757812 10.894531 5.105469 13.242188 8 13.242188 C 10.894531 13.242188 13.242188 10.894531 13.242188 8 C 13.242188 5.105469 10.894531 2.757812 8 2.757812 Z M 8 2.757812 "/>
<path style=" stroke:none;fill-rule:nonzero;fill:rgb(21.960784%,45.098039%,56.078431%);fill-opacity:1;" d="M 6.339844 6.40625 L 7.464844 6.40625 L 7.464844 11.394531 L 6.902344 12.035156 L 6.339844 11.394531 Z M 6.339844 6.40625 "/>
<path style=" stroke:none;fill-rule:nonzero;fill:rgb(21.960784%,45.098039%,56.078431%);fill-opacity:1;" d="M 6.546875 6.03125 L 6.546875 6.035156 C 6.332031 6.035156 6.164062 6.039062 5.96875 6.085938 C 5.765625 6.132812 5.589844 6.171875 5.589844 6.421875 L 5.851562 6.546875 C 5.851562 6.546875 5.988281 6.441406 6.113281 6.421875 C 6.257812 6.394531 6.417969 6.476562 6.546875 6.558594 L 6.546875 6.671875 L 7.089844 6.671875 C 7.089844 6.671875 7.449219 6.378906 7.6875 6.421875 C 7.8125 6.441406 7.953125 6.546875 7.953125 6.546875 L 8.214844 6.421875 C 8.214844 6.171875 8.035156 6.132812 7.832031 6.085938 C 7.585938 6.027344 7.410156 6.035156 7.089844 6.03125 Z M 6.546875 6.03125 "/>
<path style=" stroke:none;fill-rule:nonzero;fill:rgb(21.960784%,45.098039%,56.078431%);fill-opacity:1;" d="M 7.089844 4.757812 L 7.089844 6.257812 L 6.714844 6.257812 L 6.714844 4.757812 Z M 7.089844 4.757812 "/>
<path style=" stroke:none;fill-rule:nonzero;fill:rgb(21.960784%,45.098039%,56.078431%);fill-opacity:1;" d="M 7.464844 4.53125 C 7.464844 4.738281 7.210938 4.90625 6.902344 4.90625 C 6.589844 4.90625 6.339844 4.738281 6.339844 4.53125 Z M 7.464844 4.53125 "/>
<path style=" stroke:none;fill-rule:nonzero;fill:rgb(21.960784%,45.098039%,56.078431%);fill-opacity:1;" d="M 6.339844 8.097656 L 6.902344 8.660156 L 6.339844 9.222656 L 5.777344 8.660156 Z M 6.339844 8.097656 "/>
<path style=" stroke:none;fill-rule:nonzero;fill:rgb(21.960784%,45.098039%,56.078431%);fill-opacity:1;" d="M 8.460938 6.03125 C 8.535156 6.144531 8.589844 6.285156 8.589844 6.421875 C 8.589844 6.523438 8.546875 6.621094 8.472656 6.691406 C 8.78125 6.90625 8.964844 7.292969 8.964844 7.675781 C 8.964844 8.386719 8.570312 8.449219 7.839844 8.660156 C 8.277344 9.730469 9.148438 10.675781 10.015625 11.167969 C 10.75 11.613281 11.425781 11.925781 12.339844 12.035156 C 11.328125 10.800781 9.753906 10.253906 8.964844 9.035156 C 9.492188 8.757812 10.089844 8.519531 10.089844 7.605469 C 10.089844 6.867188 9.414062 6.03125 8.914062 6.03125 Z M 8.460938 6.03125 "/>
</g>
</svg>
