<?xml version="1.0" encoding="UTF-8"?>
<svg xmlns="http://www.w3.org/2000/svg" xmlns:xlink="http://www.w3.org/1999/xlink" width="16pt" height="16pt" viewBox="0 0 16 16" version="1.1">
<g id="surface1">
<path style=" stroke:none;fill-rule:evenodd;fill:rgb(100%,28.235294%,28.235294%);fill-opacity:1;" d="M 3.734375 0.949219 L 12.265625 0.949219 C 13.800781 0.949219 15.050781 2.199219 15.050781 3.734375 L 15.050781 12.265625 C 15.050781 13.800781 13.800781 15.050781 12.265625 15.050781 L 3.734375 15.050781 C 2.199219 15.050781 0.949219 13.800781 0.949219 12.265625 L 0.949219 3.734375 C 0.949219 2.199219 2.199219 0.949219 3.734375 0.949219 Z M 3.734375 0.949219 "/>
<path style=" stroke:none;fill-rule:nonzero;fill:rgb(100%,100%,100%);fill-opacity:1;" d="M 4.839844 0.945312 C 4.871094 1.046875 4.917969 1.230469 4.917969 1.230469 L 5.003906 1.488281 L 5 1.492188 L 5.003906 1.507812 C 5.027344 1.578125 5.046875 1.648438 5.058594 1.71875 C 5.074219 1.789062 5.085938 1.863281 5.09375 1.933594 C 5.097656 2.007812 5.101562 2.078125 5.097656 2.148438 C 5.097656 2.222656 5.09375 2.292969 5.085938 2.363281 C 5.078125 2.433594 5.0625 2.503906 5.046875 2.574219 C 5.03125 2.640625 5.011719 2.710938 4.988281 2.773438 C 4.964844 2.839844 4.9375 2.902344 4.910156 2.964844 C 4.878906 3.023438 4.84375 3.082031 4.804688 3.136719 L 4.8125 3.136719 C 4.773438 3.191406 4.734375 3.25 4.703125 3.3125 C 4.667969 3.371094 4.640625 3.433594 4.613281 3.5 C 4.585938 3.5625 4.5625 3.625 4.542969 3.691406 C 4.523438 3.757812 4.507812 3.828125 4.5 3.894531 C 4.484375 3.964844 4.476562 4.035156 4.472656 4.109375 C 4.46875 4.175781 4.46875 4.246094 4.476562 4.316406 C 4.480469 4.390625 4.492188 4.460938 4.503906 4.535156 C 4.519531 4.605469 4.535156 4.675781 4.558594 4.746094 C 4.578125 4.804688 4.597656 4.863281 4.625 4.917969 C 4.648438 4.972656 4.671875 5.027344 4.703125 5.078125 C 4.761719 5.183594 4.828125 5.28125 4.902344 5.367188 C 4.976562 5.453125 5.0625 5.535156 5.152344 5.605469 C 5.242188 5.675781 5.335938 5.738281 5.4375 5.789062 C 5.535156 5.839844 5.644531 5.882812 5.753906 5.914062 C 5.859375 5.945312 5.972656 5.96875 6.085938 5.976562 C 6.203125 5.988281 6.316406 5.984375 6.433594 5.972656 C 6.488281 5.96875 6.546875 5.957031 6.609375 5.945312 C 6.664062 5.929688 6.722656 5.914062 6.78125 5.894531 C 6.839844 5.875 6.898438 5.855469 6.953125 5.832031 C 7.007812 5.808594 7.058594 5.777344 7.109375 5.75 C 7.210938 5.6875 7.304688 5.621094 7.390625 5.546875 C 7.480469 5.46875 7.558594 5.386719 7.625 5.292969 C 7.695312 5.203125 7.757812 5.105469 7.808594 5.003906 C 7.859375 4.902344 7.898438 4.796875 7.929688 4.683594 C 7.960938 4.574219 7.984375 4.457031 7.996094 4.34375 C 8.003906 4.226562 8 4.109375 7.988281 3.992188 C 7.984375 3.933594 7.972656 3.871094 7.960938 3.8125 C 7.949219 3.753906 7.933594 3.691406 7.914062 3.632812 C 7.890625 3.5625 7.859375 3.496094 7.832031 3.429688 C 7.800781 3.363281 7.765625 3.300781 7.730469 3.242188 C 7.691406 3.179688 7.652344 3.121094 7.609375 3.066406 C 7.566406 3.011719 7.519531 2.960938 7.46875 2.910156 C 7.421875 2.863281 7.367188 2.816406 7.3125 2.773438 C 7.261719 2.734375 7.203125 2.691406 7.144531 2.65625 C 7.085938 2.621094 7.023438 2.589844 6.960938 2.5625 C 6.902344 2.53125 6.835938 2.507812 6.769531 2.484375 L 6.78125 2.484375 C 6.71875 2.460938 6.65625 2.4375 6.597656 2.40625 C 6.535156 2.375 6.476562 2.339844 6.421875 2.300781 C 6.363281 2.261719 6.308594 2.21875 6.253906 2.171875 C 6.203125 2.125 6.152344 2.078125 6.101562 2.027344 C 6.054688 1.972656 6.007812 1.921875 5.96875 1.863281 C 5.921875 1.804688 5.882812 1.746094 5.847656 1.683594 C 5.8125 1.621094 5.777344 1.554688 5.746094 1.492188 C 5.722656 1.441406 5.703125 1.390625 5.6875 1.335938 L 5.578125 1 C 5.578125 1 5.5625 0.953125 5.5625 0.945312 Z M 9.859375 4.472656 C 9.789062 4.46875 9.71875 4.472656 9.648438 4.476562 C 9.574219 4.484375 9.503906 4.492188 9.433594 4.507812 C 9.359375 4.523438 9.292969 4.539062 9.21875 4.5625 C 9.160156 4.582031 9.105469 4.605469 9.046875 4.628906 C 8.996094 4.65625 8.941406 4.679688 8.890625 4.710938 C 8.785156 4.769531 8.691406 4.835938 8.605469 4.914062 C 8.515625 4.988281 8.4375 5.074219 8.371094 5.160156 C 8.296875 5.25 8.234375 5.347656 8.1875 5.449219 C 8.136719 5.550781 8.09375 5.65625 8.0625 5.765625 C 8.03125 5.875 8.015625 5.988281 8.003906 6.101562 C 7.996094 6.21875 8 6.332031 8.015625 6.449219 C 8.019531 6.507812 8.03125 6.5625 8.042969 6.625 C 8.058594 6.679688 8.074219 6.738281 8.09375 6.796875 C 8.113281 6.855469 8.136719 6.910156 8.160156 6.964844 C 8.183594 7.019531 8.214844 7.074219 8.242188 7.125 C 8.300781 7.222656 8.371094 7.316406 8.449219 7.402344 C 8.527344 7.488281 8.609375 7.566406 8.703125 7.636719 C 8.796875 7.703125 8.890625 7.765625 8.996094 7.8125 C 9.097656 7.867188 9.203125 7.90625 9.3125 7.9375 C 9.425781 7.964844 9.539062 7.984375 9.65625 7.996094 C 9.769531 8.003906 9.890625 8 10.007812 7.988281 C 10.066406 7.980469 10.125 7.96875 10.183594 7.957031 C 10.242188 7.945312 10.300781 7.925781 10.359375 7.90625 C 10.433594 7.882812 10.5 7.855469 10.566406 7.824219 C 10.632812 7.792969 10.695312 7.761719 10.753906 7.722656 C 10.8125 7.683594 10.871094 7.644531 10.925781 7.597656 C 10.980469 7.554688 11.03125 7.507812 11.078125 7.457031 C 11.128906 7.40625 11.171875 7.355469 11.214844 7.300781 C 11.257812 7.246094 11.292969 7.1875 11.328125 7.128906 C 11.363281 7.070312 11.394531 7.011719 11.425781 6.949219 C 11.453125 6.886719 11.476562 6.820312 11.496094 6.753906 L 11.5 6.765625 C 11.523438 6.703125 11.546875 6.640625 11.578125 6.582031 C 11.609375 6.519531 11.644531 6.460938 11.683594 6.402344 C 11.71875 6.34375 11.761719 6.289062 11.808594 6.238281 C 11.851562 6.183594 11.902344 6.132812 11.953125 6.082031 C 12.003906 6.035156 12.058594 5.988281 12.113281 5.945312 C 12.171875 5.902344 12.230469 5.859375 12.292969 5.824219 C 12.355469 5.785156 12.417969 5.753906 12.484375 5.722656 C 12.53125 5.699219 12.582031 5.679688 12.636719 5.660156 L 12.636719 5.664062 C 12.9375 5.601562 13.21875 5.601562 13.542969 5.601562 L 13.542969 4.898438 C 13.21875 4.898438 12.878906 4.902344 12.476562 4.976562 L 12.460938 4.980469 C 12.390625 5.003906 12.320312 5.023438 12.25 5.039062 C 12.175781 5.054688 12.105469 5.0625 12.035156 5.070312 C 11.964844 5.078125 11.890625 5.082031 11.820312 5.082031 C 11.75 5.082031 11.675781 5.074219 11.605469 5.066406 C 11.535156 5.058594 11.464844 5.050781 11.394531 5.035156 C 11.328125 5.019531 11.257812 5 11.191406 4.976562 C 11.128906 4.953125 11.066406 4.929688 11.003906 4.898438 C 10.941406 4.867188 10.886719 4.832031 10.828125 4.796875 L 10.832031 4.804688 C 10.777344 4.765625 10.714844 4.726562 10.65625 4.695312 C 10.59375 4.660156 10.53125 4.632812 10.46875 4.609375 C 10.40625 4.582031 10.339844 4.558594 10.273438 4.539062 C 10.203125 4.519531 10.136719 4.503906 10.070312 4.496094 C 10 4.484375 9.929688 4.476562 9.859375 4.472656 Z M 4.65625 6.488281 C 4.597656 6.492188 4.539062 6.492188 4.480469 6.5 C 4.421875 6.507812 4.359375 6.519531 4.300781 6.53125 C 4.242188 6.546875 4.183594 6.5625 4.125 6.582031 C 4.054688 6.605469 3.988281 6.632812 3.921875 6.664062 C 3.855469 6.691406 3.792969 6.730469 3.734375 6.765625 C 3.671875 6.804688 3.617188 6.84375 3.5625 6.890625 C 3.507812 6.933594 3.453125 6.980469 3.40625 7.03125 C 3.359375 7.082031 3.3125 7.132812 3.273438 7.1875 C 3.230469 7.242188 3.191406 7.296875 3.15625 7.359375 C 3.121094 7.417969 3.09375 7.476562 3.0625 7.539062 C 3.035156 7.601562 3.007812 7.667969 2.988281 7.730469 L 2.984375 7.722656 C 2.964844 7.785156 2.9375 7.84375 2.90625 7.90625 C 2.878906 7.96875 2.84375 8.027344 2.808594 8.085938 C 2.71875 8.195312 2.59375 8.253906 2.457031 8.289062 L 2.457031 9.40625 L 2.667969 9.40625 C 2.742188 9.410156 2.8125 9.414062 2.882812 9.421875 C 2.953125 9.429688 3.023438 9.4375 3.089844 9.453125 C 3.160156 9.46875 3.230469 9.488281 3.292969 9.511719 C 3.359375 9.535156 3.421875 9.5625 3.484375 9.59375 C 3.542969 9.621094 3.601562 9.65625 3.65625 9.691406 L 3.65625 9.683594 C 3.710938 9.722656 3.769531 9.761719 3.832031 9.792969 C 3.890625 9.828125 3.953125 9.855469 4.019531 9.878906 C 4.082031 9.90625 4.148438 9.929688 4.214844 9.949219 C 4.28125 9.96875 4.347656 9.980469 4.417969 9.992188 C 4.484375 10 4.558594 10.011719 4.628906 10.015625 C 4.699219 10.015625 4.769531 10.015625 4.839844 10.011719 C 4.910156 10.003906 4.984375 9.996094 5.054688 9.980469 C 5.125 9.96875 5.195312 9.949219 5.265625 9.925781 C 5.324219 9.90625 5.382812 9.882812 5.4375 9.859375 C 5.492188 9.832031 5.546875 9.808594 5.597656 9.777344 C 5.703125 9.71875 5.796875 9.652344 5.882812 9.574219 C 5.96875 9.5 6.046875 9.414062 6.121094 9.324219 C 6.1875 9.234375 6.25 9.140625 6.300781 9.039062 C 6.351562 8.9375 6.390625 8.828125 6.421875 8.71875 C 6.453125 8.609375 6.472656 8.5 6.484375 8.386719 C 6.492188 8.269531 6.488281 8.15625 6.476562 8.039062 C 6.46875 7.980469 6.457031 7.921875 6.445312 7.863281 C 6.433594 7.804688 6.414062 7.75 6.394531 7.6875 C 6.375 7.632812 6.351562 7.578125 6.328125 7.523438 C 6.300781 7.46875 6.273438 7.417969 6.242188 7.367188 C 6.183594 7.265625 6.113281 7.171875 6.039062 7.085938 C 5.960938 7 5.875 6.921875 5.785156 6.851562 C 5.691406 6.78125 5.59375 6.722656 5.492188 6.671875 C 5.390625 6.625 5.28125 6.582031 5.171875 6.554688 C 5.0625 6.523438 4.945312 6.503906 4.828125 6.496094 C 4.773438 6.488281 4.714844 6.488281 4.65625 6.488281 Z M 8.230469 8.015625 C 8.171875 8.015625 8.113281 8.019531 8.054688 8.027344 C 8 8.03125 7.9375 8.042969 7.878906 8.054688 C 7.824219 8.066406 7.765625 8.082031 7.707031 8.105469 C 7.648438 8.125 7.59375 8.144531 7.535156 8.167969 C 7.484375 8.191406 7.433594 8.21875 7.378906 8.25 C 7.28125 8.308594 7.183594 8.375 7.097656 8.453125 C 7.011719 8.53125 6.933594 8.613281 6.863281 8.703125 C 6.792969 8.796875 6.734375 8.890625 6.679688 8.996094 C 6.628906 9.097656 6.589844 9.203125 6.558594 9.316406 C 6.527344 9.425781 6.503906 9.539062 6.496094 9.65625 C 6.484375 9.773438 6.484375 9.890625 6.5 10.007812 C 6.503906 10.066406 6.515625 10.125 6.527344 10.1875 C 6.542969 10.246094 6.558594 10.304688 6.578125 10.363281 C 6.597656 10.4375 6.625 10.503906 6.65625 10.570312 C 6.6875 10.636719 6.71875 10.699219 6.757812 10.757812 C 6.796875 10.820312 6.835938 10.875 6.878906 10.929688 C 6.921875 10.984375 6.96875 11.039062 7.019531 11.089844 C 7.066406 11.136719 7.121094 11.183594 7.175781 11.222656 C 7.230469 11.265625 7.285156 11.304688 7.34375 11.339844 C 7.402344 11.375 7.464844 11.40625 7.527344 11.4375 C 7.589844 11.464844 7.652344 11.492188 7.71875 11.515625 L 7.707031 11.515625 C 7.769531 11.535156 7.828125 11.5625 7.890625 11.59375 C 7.953125 11.625 8.011719 11.660156 8.066406 11.699219 C 8.125 11.738281 8.179688 11.78125 8.234375 11.828125 C 8.285156 11.871094 8.335938 11.921875 8.386719 11.972656 C 8.433594 12.023438 8.480469 12.078125 8.523438 12.136719 C 8.566406 12.195312 8.605469 12.253906 8.640625 12.316406 C 8.679688 12.378906 8.710938 12.441406 8.742188 12.507812 C 8.765625 12.558594 8.78125 12.609375 8.800781 12.660156 L 8.796875 12.664062 L 8.914062 13 C 8.914062 13 9.21875 13.929688 9.253906 15.054688 L 9.953125 15.054688 C 9.917969 13.796875 9.570312 12.769531 9.570312 12.769531 L 9.484375 12.511719 L 9.488281 12.507812 L 9.484375 12.492188 C 9.460938 12.421875 9.441406 12.351562 9.429688 12.28125 C 9.414062 12.207031 9.402344 12.140625 9.394531 12.066406 C 9.390625 11.996094 9.390625 11.921875 9.390625 11.851562 C 9.390625 11.777344 9.394531 11.707031 9.40625 11.636719 C 9.414062 11.5625 9.425781 11.496094 9.441406 11.425781 C 9.457031 11.359375 9.476562 11.289062 9.5 11.222656 C 9.523438 11.15625 9.546875 11.09375 9.578125 11.035156 C 9.609375 10.972656 9.644531 10.917969 9.683594 10.859375 L 9.675781 10.863281 C 9.714844 10.808594 9.75 10.75 9.785156 10.6875 C 9.820312 10.625 9.847656 10.566406 9.875 10.5 C 9.902344 10.4375 9.925781 10.371094 9.945312 10.304688 C 9.964844 10.238281 9.980469 10.171875 9.988281 10.101562 C 10 10.03125 10.007812 9.964844 10.011719 9.890625 C 10.015625 9.824219 10.015625 9.75 10.011719 9.679688 C 10.007812 9.609375 9.996094 9.535156 9.984375 9.464844 C 9.96875 9.394531 9.953125 9.324219 9.929688 9.25 C 9.910156 9.191406 9.890625 9.136719 9.867188 9.082031 C 9.84375 9.027344 9.8125 8.96875 9.785156 8.921875 C 9.726562 8.816406 9.660156 8.71875 9.585938 8.632812 C 9.511719 8.546875 9.425781 8.464844 9.335938 8.394531 C 9.25 8.324219 9.152344 8.261719 9.054688 8.210938 C 8.953125 8.15625 8.84375 8.113281 8.738281 8.082031 C 8.628906 8.050781 8.515625 8.03125 8.402344 8.019531 C 8.34375 8.015625 8.289062 8.015625 8.230469 8.015625 Z M 8.230469 8.015625 "/>
</g>
</svg>
