<?xml version="1.0" encoding="UTF-8"?>
<svg xmlns="http://www.w3.org/2000/svg" xmlns:xlink="http://www.w3.org/1999/xlink" width="16pt" height="16pt" viewBox="0 0 16 16" version="1.1">
<g id="surface1">
<path style=" stroke:none;fill-rule:evenodd;fill:rgb(96.470588%,58.823529%,20.392157%);fill-opacity:1;" d="M 3.734375 0.949219 L 12.265625 0.949219 C 13.800781 0.949219 15.050781 2.199219 15.050781 3.734375 L 15.050781 12.265625 C 15.050781 13.800781 13.800781 15.050781 12.265625 15.050781 L 3.734375 15.050781 C 2.199219 15.050781 0.949219 13.800781 0.949219 12.265625 L 0.949219 3.734375 C 0.949219 2.199219 2.199219 0.949219 3.734375 0.949219 Z M 3.734375 0.949219 "/>
<path style=" stroke:none;fill-rule:nonzero;fill:rgb(100%,100%,100%);fill-opacity:1;" d="M 11.863281 3.464844 L 6.605469 4.675781 C 5.863281 4.769531 5.890625 5.53125 5.890625 5.53125 L 5.890625 8.765625 C 5.722656 8.71875 5.542969 8.691406 5.367188 8.691406 C 4.296875 8.691406 3.433594 9.554688 3.433594 10.621094 C 3.433594 11.6875 4.296875 12.554688 5.367188 12.554688 C 6.363281 12.554688 7.199219 11.792969 7.289062 10.796875 L 7.296875 10.796875 L 7.296875 5.9375 L 11.160156 5.015625 L 11.160156 7.710938 C 10.988281 7.664062 10.8125 7.636719 10.632812 7.636719 C 9.566406 7.636719 8.703125 8.5 8.703125 9.570312 C 8.703125 10.636719 9.566406 11.5 10.632812 11.5 C 11.632812 11.5 12.46875 10.738281 12.558594 9.746094 L 12.566406 9.746094 L 12.566406 4.125 C 12.566406 4.125 12.574219 3.3125 11.863281 3.464844 Z M 11.863281 3.464844 "/>
</g>
</svg>
