<?xml version="1.0" encoding="UTF-8"?>
<svg xmlns="http://www.w3.org/2000/svg" xmlns:xlink="http://www.w3.org/1999/xlink" width="16pt" height="16pt" viewBox="0 0 16 16" version="1.1">
<g id="surface1">
<path style=" stroke:none;fill-rule:evenodd;fill:rgb(30.980392%,30.980392%,30.980392%);fill-opacity:1;" d="M 3.734375 0.949219 L 12.265625 0.949219 C 13.800781 0.949219 15.050781 2.199219 15.050781 3.734375 L 15.050781 12.265625 C 15.050781 13.800781 13.800781 15.050781 12.265625 15.050781 L 3.734375 15.050781 C 2.199219 15.050781 0.949219 13.800781 0.949219 12.265625 L 0.949219 3.734375 C 0.949219 2.199219 2.199219 0.949219 3.734375 0.949219 Z M 3.734375 0.949219 "/>
<path style=" stroke:none;fill-rule:nonzero;fill:rgb(100%,66.27451%,17.254902%);fill-opacity:1;" d="M 5.75 5.25 L 5.75 5.75 L 7.25 5.75 L 7.25 6.25 L 5.25 6.25 L 5.25 7.75 L 4.75 7.75 L 4.75 6.25 L 4.25 6.25 L 4.25 9.75 L 4.75 9.75 L 4.75 8.25 L 5.25 8.25 L 5.25 9.75 L 6.25 10.75 L 9.5 10.75 L 10 10.25 L 10.75 10.25 L 10.75 10.75 L 11.25 10.75 L 11.75 10.25 L 11.75 7.25 L 11.25 6.75 L 10.75 6.75 L 10.75 7.25 L 10.3125 7.25 L 9.3125 6.25 L 7.75 6.25 L 7.75 5.75 L 9.25 5.75 L 9.25 5.25 Z M 5.75 6.75 L 9 6.75 L 10 7.75 L 11.25 7.75 L 11.25 9.75 L 9.75 9.75 L 9.25 10.25 L 6.5625 10.25 L 5.75 9.398438 Z M 5.75 6.75 "/>
<path style=" stroke:none;fill-rule:evenodd;fill:rgb(24.705882%,57.254902%,90.588235%);fill-opacity:1;" d="M 14.34375 11.355469 C 14.34375 13.011719 13 14.355469 11.34375 14.355469 C 9.6875 14.355469 8.34375 13.011719 8.34375 11.355469 C 8.34375 9.699219 9.6875 8.355469 11.34375 8.355469 C 13 8.355469 14.34375 9.699219 14.34375 11.355469 Z M 14.34375 11.355469 "/>
<path style=" stroke:none;fill-rule:nonzero;fill:rgb(100%,100%,100%);fill-opacity:1;" d="M 10.96875 9.855469 L 10.933594 10.25 C 10.808594 10.296875 10.691406 10.363281 10.589844 10.449219 L 10.230469 10.28125 L 9.855469 10.929688 L 10.183594 11.15625 C 10.171875 11.21875 10.164062 11.289062 10.164062 11.355469 C 10.164062 11.421875 10.167969 11.488281 10.179688 11.554688 L 9.855469 11.78125 L 10.230469 12.429688 L 10.589844 12.261719 C 10.691406 12.34375 10.808594 12.414062 10.933594 12.457031 L 10.96875 12.855469 L 11.71875 12.855469 L 11.75 12.457031 C 11.875 12.414062 11.992188 12.34375 12.09375 12.261719 L 12.453125 12.429688 L 12.828125 11.78125 L 12.5 11.554688 C 12.515625 11.488281 12.519531 11.421875 12.519531 11.355469 C 12.519531 11.285156 12.515625 11.21875 12.503906 11.15625 L 12.828125 10.929688 L 12.453125 10.28125 L 12.09375 10.449219 C 11.992188 10.363281 11.875 10.296875 11.75 10.25 L 11.71875 9.855469 Z M 11.34375 10.925781 C 11.578125 10.925781 11.769531 11.117188 11.769531 11.355469 C 11.769531 11.589844 11.578125 11.78125 11.34375 11.78125 C 11.105469 11.78125 10.914062 11.589844 10.914062 11.355469 C 10.914062 11.117188 11.105469 10.925781 11.34375 10.925781 Z M 11.34375 10.925781 "/>
</g>
</svg>
