<?xml version="1.0" encoding="UTF-8"?>
<svg xmlns="http://www.w3.org/2000/svg" xmlns:xlink="http://www.w3.org/1999/xlink" width="16pt" height="16pt" viewBox="0 0 16 16" version="1.1">
<g id="surface1">
<path style=" stroke:none;fill-rule:evenodd;fill:rgb(95.686275%,70.588235%,0%);fill-opacity:1;" d="M 3.734375 0.949219 L 12.265625 0.949219 C 13.800781 0.949219 15.050781 2.199219 15.050781 3.734375 L 15.050781 12.265625 C 15.050781 13.800781 13.800781 15.050781 12.265625 15.050781 L 3.734375 15.050781 C 2.199219 15.050781 0.949219 13.800781 0.949219 12.265625 L 0.949219 3.734375 C 0.949219 2.199219 2.199219 0.949219 3.734375 0.949219 Z M 3.734375 0.949219 "/>
<path style=" stroke:none;fill-rule:nonzero;fill:rgb(24.705882%,24.705882%,24.705882%);fill-opacity:1;" d="M 8 3.5 C 6.097656 3.503906 4.402344 4.707031 3.769531 6.5 L 2.5 6.5 L 4.5 9.5 L 6.5 6.5 L 5.40625 6.5 C 5.941406 5.574219 6.929688 5 8 5 C 9.273438 5 10.40625 5.808594 10.828125 7.007812 L 11.5 6 L 12.460938 7.441406 C 12.179688 5.191406 10.265625 3.5 8 3.5 Z M 11.5 6.5 L 9.5 9.5 L 10.59375 9.5 C 10.058594 10.425781 9.070312 11 8 11 C 6.726562 11 5.59375 10.191406 5.171875 8.992188 L 4.5 10 L 3.539062 8.558594 C 3.820312 10.808594 5.734375 12.5 8 12.5 C 9.902344 12.496094 11.597656 11.292969 12.230469 9.5 L 13.5 9.5 Z M 11.5 6.5 "/>
</g>
</svg>
