<?xml version="1.0" encoding="UTF-8"?>
<svg xmlns="http://www.w3.org/2000/svg" xmlns:xlink="http://www.w3.org/1999/xlink" width="16pt" height="16pt" viewBox="0 0 16 16" version="1.1">
<g id="surface1">
<path style=" stroke:none;fill-rule:evenodd;fill:rgb(40.392157%,75.294118%,74.901961%);fill-opacity:1;" d="M 3.734375 0.949219 L 12.265625 0.949219 C 13.800781 0.949219 15.050781 2.199219 15.050781 3.734375 L 15.050781 12.265625 C 15.050781 13.800781 13.800781 15.050781 12.265625 15.050781 L 3.734375 15.050781 C 2.199219 15.050781 0.949219 13.800781 0.949219 12.265625 L 0.949219 3.734375 C 0.949219 2.199219 2.199219 0.949219 3.734375 0.949219 Z M 3.734375 0.949219 "/>
<path style=" stroke:none;fill-rule:nonzero;fill:rgb(20%,37.647059%,37.254902%);fill-opacity:1;" d="M 4.25 4.875 L 4.25 11.125 L 11.75 11.125 L 11.75 4.875 Z M 4.875 5.5 L 7.375 5.5 L 7.375 6.75 L 4.875 6.75 Z M 8 5.5 L 11.109375 5.5 L 11.109375 6.75 L 8 6.75 Z M 4.875 7.375 L 7.375 7.375 L 7.375 8.625 L 4.875 8.625 Z M 8 7.375 L 11.109375 7.375 L 11.109375 8.625 L 8 8.625 Z M 4.875 9.25 L 7.375 9.25 L 7.375 10.5 L 4.875 10.5 Z M 8 9.25 L 11.109375 9.25 L 11.109375 10.5 L 8 10.5 Z M 8 9.25 "/>
</g>
</svg>
