<?xml version="1.0" encoding="UTF-8"?>
<svg xmlns="http://www.w3.org/2000/svg" xmlns:xlink="http://www.w3.org/1999/xlink" width="16pt" height="16pt" viewBox="0 0 16 16" version="1.1">
<g id="surface1">
<path style=" stroke:none;fill-rule:evenodd;fill:rgb(0%,52.54902%,100%);fill-opacity:1;" d="M 3.734375 0.949219 L 12.265625 0.949219 C 13.800781 0.949219 15.050781 2.199219 15.050781 3.734375 L 15.050781 12.265625 C 15.050781 13.800781 13.800781 15.050781 12.265625 15.050781 L 3.734375 15.050781 C 2.199219 15.050781 0.949219 13.800781 0.949219 12.265625 L 0.949219 3.734375 C 0.949219 2.199219 2.199219 0.949219 3.734375 0.949219 Z M 3.734375 0.949219 "/>
<path style=" stroke:none;fill-rule:nonzero;fill:rgb(100%,100%,100%);fill-opacity:1;" d="M 6.554688 12.492188 C 6.859375 12.277344 6.71875 11.941406 6.050781 11.292969 C 5.515625 10.773438 5.335938 10.433594 5.332031 9.949219 C 5.332031 9.644531 5.359375 9.578125 5.554688 9.390625 C 5.855469 9.105469 6.148438 8.96875 6.695312 8.851562 C 7.363281 8.707031 7.324219 8.683594 7.324219 9.28125 C 7.324219 9.726562 7.347656 9.832031 7.472656 9.96875 C 7.765625 10.277344 7.984375 10.199219 9.027344 9.425781 C 12.199219 7.070312 12.0625 7.1875 12.0625 6.761719 C 12.0625 6.433594 11.996094 6.363281 10.703125 5.402344 C 7.792969 3.242188 7.972656 3.359375 7.710938 3.457031 C 7.382812 3.582031 7.324219 3.710938 7.324219 4.289062 L 7.324219 4.835938 L 7.058594 4.835938 C 6.910156 4.835938 6.578125 4.902344 6.320312 4.980469 C 4.804688 5.449219 3.941406 6.773438 3.933594 8.648438 C 3.933594 9.488281 4.058594 10.011719 4.46875 10.851562 C 4.832031 11.589844 5.296875 12.089844 5.902344 12.390625 C 6.386719 12.632812 6.359375 12.628906 6.554688 12.492188 Z M 6.554688 12.492188 "/>
</g>
</svg>
