<?xml version="1.0" encoding="UTF-8"?>
<svg xmlns="http://www.w3.org/2000/svg" xmlns:xlink="http://www.w3.org/1999/xlink" width="16pt" height="16pt" viewBox="0 0 16 16" version="1.1">
<g id="surface1">
<path style=" stroke:none;fill-rule:evenodd;fill:rgb(80%,80%,80%);fill-opacity:1;" d="M 3.734375 0.949219 L 12.265625 0.949219 C 13.800781 0.949219 15.050781 2.199219 15.050781 3.734375 L 15.050781 12.265625 C 15.050781 13.800781 13.800781 15.050781 12.265625 15.050781 L 3.734375 15.050781 C 2.199219 15.050781 0.949219 13.800781 0.949219 12.265625 L 0.949219 3.734375 C 0.949219 2.199219 2.199219 0.949219 3.734375 0.949219 Z M 3.734375 0.949219 "/>
<path style=" stroke:none;fill-rule:nonzero;fill:rgb(28.235294%,57.647059%,83.529412%);fill-opacity:1;" d="M 5.09375 2.898438 C 3.164062 3.929688 2 5.792969 1.996094 7.878906 C 2 10.75 4.28125 13.261719 7.304688 13.6875 C 7.523438 13.710938 7.585938 13.703125 7.746094 13.6875 C 9.214844 13.6875 10.402344 12.574219 10.402344 11.199219 C 10.398438 10.253906 9.832031 9.414062 8.96875 8.992188 C 8.96875 8.992188 8.015625 8.582031 7.59375 8.371094 C 6.984375 8.082031 6.3125 7.828125 5.671875 7.464844 C 5.351562 7.28125 5.03125 7.0625 4.738281 6.734375 C 4.449219 6.402344 4.207031 5.90625 4.207031 5.390625 C 4.207031 4.382812 4.597656 3.613281 5.09375 2.898438 Z M 5.09375 2.898438 "/>
<path style=" stroke:none;fill-rule:nonzero;fill:rgb(28.235294%,57.647059%,83.529412%);fill-opacity:1;" d="M 10.90625 13.101562 C 12.835938 12.070312 14 10.207031 14.003906 8.121094 C 14 5.25 11.71875 2.738281 8.695312 2.3125 C 8.476562 2.289062 8.414062 2.296875 8.253906 2.3125 C 6.785156 2.3125 5.597656 3.425781 5.597656 4.800781 C 5.601562 5.746094 6.167969 6.585938 7.03125 7.007812 C 7.03125 7.007812 7.984375 7.417969 8.40625 7.628906 C 9.015625 7.917969 9.6875 8.171875 10.328125 8.535156 C 10.648438 8.71875 10.96875 8.9375 11.261719 9.265625 C 11.550781 9.597656 11.792969 10.09375 11.792969 10.609375 C 11.792969 11.617188 11.402344 12.386719 10.90625 13.101562 Z M 10.90625 13.101562 "/>
</g>
</svg>
