<?xml version="1.0" encoding="UTF-8"?>
<svg xmlns="http://www.w3.org/2000/svg" xmlns:xlink="http://www.w3.org/1999/xlink" width="16pt" height="16pt" viewBox="0 0 16 16" version="1.1">
<g id="surface1">
<path style=" stroke:none;fill-rule:evenodd;fill:rgb(100%,78.823529%,27.843137%);fill-opacity:1;" d="M 3.734375 0.949219 L 12.265625 0.949219 C 13.800781 0.949219 15.050781 2.199219 15.050781 3.734375 L 15.050781 12.265625 C 15.050781 13.800781 13.800781 15.050781 12.265625 15.050781 L 3.734375 15.050781 C 2.199219 15.050781 0.949219 13.800781 0.949219 12.265625 L 0.949219 3.734375 C 0.949219 2.199219 2.199219 0.949219 3.734375 0.949219 Z M 3.734375 0.949219 "/>
<path style=" stroke:none;fill-rule:nonzero;fill:rgb(70.196078%,55.294118%,19.607843%);fill-opacity:1;" d="M 8 4.808594 C 6.703125 4.8125 5.53125 5.597656 5.042969 6.804688 L 4.410156 6.804688 L 4.011719 7.601562 L 4.839844 7.601562 C 4.820312 7.734375 4.8125 7.867188 4.808594 8 L 4.410156 8.796875 L 4.914062 8.796875 C 5.28125 10.203125 6.546875 11.1875 8 11.191406 C 8.96875 11.191406 9.886719 10.75 10.488281 9.996094 L 9.320312 9.996094 C 8.929688 10.253906 8.46875 10.390625 8 10.390625 C 6.988281 10.390625 6.085938 9.753906 5.746094 8.796875 L 8.398438 8.796875 L 8.796875 8 L 5.609375 8 C 5.609375 7.867188 5.621094 7.734375 5.640625 7.601562 L 8.796875 7.601562 L 9.195312 6.804688 L 5.929688 6.804688 C 6.359375 6.0625 7.144531 5.609375 8 5.609375 C 8.46875 5.609375 8.929688 5.746094 9.320312 6.003906 L 10.484375 6.003906 C 9.882812 5.25 8.96875 4.8125 8 4.808594 Z M 8 4.808594 "/>
<path style=" stroke:none;fill-rule:nonzero;fill:rgb(70.196078%,55.294118%,19.607843%);fill-opacity:1;" d="M 8 2.816406 C 5.128906 2.816406 2.816406 5.128906 2.816406 8 C 2.816406 10.871094 5.128906 13.183594 8 13.183594 C 10.871094 13.183594 13.183594 10.871094 13.183594 8 C 13.183594 5.128906 10.871094 2.816406 8 2.816406 Z M 8 3.613281 C 10.445312 3.613281 12.386719 5.554688 12.386719 8 C 12.386719 10.445312 10.445312 12.386719 8 12.386719 C 5.554688 12.386719 3.613281 10.445312 3.613281 8 C 3.613281 5.554688 5.554688 3.613281 8 3.613281 Z M 8 3.613281 "/>
</g>
</svg>
