<?xml version="1.0" encoding="UTF-8"?>
<svg xmlns="http://www.w3.org/2000/svg" xmlns:xlink="http://www.w3.org/1999/xlink" width="16pt" height="16pt" viewBox="0 0 16 16" version="1.1">
<g id="surface1">
<path style=" stroke:none;fill-rule:evenodd;fill:rgb(32.941176%,50.588235%,77.254902%);fill-opacity:1;" d="M 3.734375 0.949219 L 12.265625 0.949219 C 13.800781 0.949219 15.050781 2.199219 15.050781 3.734375 L 15.050781 12.265625 C 15.050781 13.800781 13.800781 15.050781 12.265625 15.050781 L 3.734375 15.050781 C 2.199219 15.050781 0.949219 13.800781 0.949219 12.265625 L 0.949219 3.734375 C 0.949219 2.199219 2.199219 0.949219 3.734375 0.949219 Z M 3.734375 0.949219 "/>
<path style=" stroke:none;fill-rule:nonzero;fill:rgb(63.137255%,74.117647%,90.980392%);fill-opacity:1;" d="M 6.757812 3.449219 C 5.578125 3.449219 4.578125 4.164062 4.144531 5.175781 C 3.046875 5.335938 2.207031 6.265625 2.207031 7.398438 C 2.207031 8.644531 3.226562 9.65625 4.484375 9.65625 L 9.320312 9.65625 C 10.417969 9.65625 11.3125 8.769531 11.3125 7.679688 C 11.3125 6.667969 10.542969 5.835938 9.550781 5.722656 C 9.292969 4.429688 8.140625 3.449219 6.757812 3.449219 Z M 6.757812 3.449219 "/>
<path style=" stroke:none;fill-rule:nonzero;fill:rgb(92.54902%,92.54902%,92.54902%);fill-opacity:1;" d="M 9.242188 6.34375 C 8.0625 6.34375 7.058594 7.0625 6.625 8.074219 C 5.53125 8.234375 4.6875 9.160156 4.6875 10.296875 C 4.6875 11.542969 5.707031 12.550781 6.964844 12.550781 L 11.800781 12.550781 C 12.902344 12.550781 13.792969 11.667969 13.792969 10.578125 C 13.792969 9.5625 13.027344 8.734375 12.03125 8.621094 C 11.773438 7.324219 10.625 6.34375 9.242188 6.34375 Z M 9.242188 6.34375 "/>
</g>
</svg>
