<?xml version="1.0" encoding="UTF-8"?>
<svg xmlns="http://www.w3.org/2000/svg" xmlns:xlink="http://www.w3.org/1999/xlink" width="16pt" height="16pt" viewBox="0 0 16 16" version="1.1">
<g id="surface1">
<path style=" stroke:none;fill-rule:evenodd;fill:rgb(43.921569%,29.411765%,56.862745%);fill-opacity:1;" d="M 3.734375 0.949219 L 12.265625 0.949219 C 13.800781 0.949219 15.050781 2.199219 15.050781 3.734375 L 15.050781 12.265625 C 15.050781 13.800781 13.800781 15.050781 12.265625 15.050781 L 3.734375 15.050781 C 2.199219 15.050781 0.949219 13.800781 0.949219 12.265625 L 0.949219 3.734375 C 0.949219 2.199219 2.199219 0.949219 3.734375 0.949219 Z M 3.734375 0.949219 "/>
<path style=" stroke:none;fill-rule:nonzero;fill:rgb(29.803922%,54.117647%,29.803922%);fill-opacity:1;" d="M 3.5 8 L 5 8 L 5 9.5 L 3.5 9.5 Z M 3.5 8 "/>
<path style=" stroke:none;fill-rule:nonzero;fill:rgb(89.411765%,36.862745%,36.862745%);fill-opacity:1;" d="M 5 8 L 6.5 8 L 6.5 9.5 L 5 9.5 Z M 5 8 "/>
<path style=" stroke:none;fill-rule:nonzero;fill:rgb(43.921569%,47.45098%,100%);fill-opacity:1;" d="M 6.5 8 L 8 8 L 8 9.5 L 6.5 9.5 Z M 6.5 8 "/>
<path style=" stroke:none;fill-rule:nonzero;fill:rgb(80.392157%,80.392157%,80.392157%);fill-opacity:1;" d="M 8 8 L 9.5 8 L 9.5 9.5 L 8 9.5 Z M 8 8 "/>
<path style=" stroke:none;fill-rule:nonzero;fill:rgb(100%,74.117647%,10.196078%);fill-opacity:1;" d="M 9.5 8 L 11 8 L 11 9.5 L 9.5 9.5 Z M 9.5 8 "/>
<path style=" stroke:none;fill-rule:nonzero;fill:rgb(95.294118%,95.294118%,95.294118%);fill-opacity:1;" d="M 11 8 L 12.5 8 L 12.5 9.5 L 11 9.5 Z M 11 8 "/>
<path style=" stroke:none;fill-rule:nonzero;fill:rgb(43.921569%,47.45098%,100%);fill-opacity:1;" d="M 3.5 6.5 L 5 6.5 L 5 8 L 3.5 8 Z M 3.5 6.5 "/>
<path style=" stroke:none;fill-rule:nonzero;fill:rgb(95.294118%,95.294118%,95.294118%);fill-opacity:1;" d="M 5 6.5 L 6.5 6.5 L 6.5 8 L 5 8 Z M 5 6.5 "/>
<path style=" stroke:none;fill-rule:nonzero;fill:rgb(29.803922%,54.117647%,29.803922%);fill-opacity:1;" d="M 6.5 6.5 L 8 6.5 L 8 8 L 6.5 8 Z M 6.5 6.5 "/>
<path style=" stroke:none;fill-rule:nonzero;fill:rgb(95.294118%,95.294118%,95.294118%);fill-opacity:1;" d="M 8 6.5 L 9.5 6.5 L 9.5 8 L 8 8 Z M 8 6.5 "/>
<path style=" stroke:none;fill-rule:nonzero;fill:rgb(80.392157%,80.392157%,80.392157%);fill-opacity:1;" d="M 9.5 6.5 L 11 6.5 L 11 8 L 9.5 8 Z M 9.5 6.5 "/>
<path style=" stroke:none;fill-rule:nonzero;fill:rgb(43.921569%,47.45098%,100%);fill-opacity:1;" d="M 11 6.5 L 12.5 6.5 L 12.5 8 L 11 8 Z M 11 6.5 "/>
<path style=" stroke:none;fill-rule:nonzero;fill:rgb(95.294118%,95.294118%,95.294118%);fill-opacity:1;" d="M 3.5 5 L 5 5 L 5 6.5 L 3.5 6.5 Z M 3.5 5 "/>
<path style=" stroke:none;fill-rule:nonzero;fill:rgb(100%,93.333333%,20.784314%);fill-opacity:1;" d="M 5 5 L 6.5 5 L 6.5 6.5 L 5 6.5 Z M 5 5 "/>
<path style=" stroke:none;fill-rule:nonzero;fill:rgb(100%,74.117647%,10.196078%);fill-opacity:1;" d="M 6.5 5 L 8 5 L 8 6.5 L 6.5 6.5 Z M 6.5 5 "/>
<path style=" stroke:none;fill-rule:nonzero;fill:rgb(85.882353%,37.254902%,90.980392%);fill-opacity:1;" d="M 8 5 L 9.5 5 L 9.5 6.5 L 8 6.5 Z M 8 5 "/>
<path style=" stroke:none;fill-rule:nonzero;fill:rgb(100%,93.333333%,20.784314%);fill-opacity:1;" d="M 9.5 5 L 11 5 L 11 6.5 L 9.5 6.5 Z M 9.5 5 "/>
<path style=" stroke:none;fill-rule:nonzero;fill:rgb(100%,74.117647%,10.196078%);fill-opacity:1;" d="M 5 9.5 L 6.5 9.5 L 6.5 11 L 5 11 Z M 5 9.5 "/>
<path style=" stroke:none;fill-rule:nonzero;fill:rgb(85.882353%,37.254902%,90.980392%);fill-opacity:1;" d="M 6.5 9.5 L 8 9.5 L 8 11 L 6.5 11 Z M 6.5 9.5 "/>
<path style=" stroke:none;fill-rule:nonzero;fill:rgb(89.411765%,36.862745%,36.862745%);fill-opacity:1;" d="M 8 9.5 L 9.5 9.5 L 9.5 11 L 8 11 Z M 8 9.5 "/>
<path style=" stroke:none;fill-rule:nonzero;fill:rgb(100%,93.333333%,20.784314%);fill-opacity:1;" d="M 9.5 9.5 L 11 9.5 L 11 11 L 9.5 11 Z M 9.5 9.5 "/>
<path style=" stroke:none;fill-rule:nonzero;fill:rgb(89.411765%,36.862745%,36.862745%);fill-opacity:1;" d="M 11 9.5 L 12.5 9.5 L 12.5 11 L 11 11 Z M 11 9.5 "/>
<path style=" stroke:none;fill-rule:nonzero;fill:rgb(43.921569%,47.45098%,100%);fill-opacity:1;" d="M 6.5 11 L 8 11 L 8 12.5 L 6.5 12.5 Z M 6.5 11 "/>
<path style=" stroke:none;fill-rule:nonzero;fill:rgb(95.294118%,95.294118%,95.294118%);fill-opacity:1;" d="M 8 11 L 9.5 11 L 9.5 12.5 L 8 12.5 Z M 8 11 "/>
<path style=" stroke:none;fill-rule:nonzero;fill:rgb(29.803922%,54.117647%,29.803922%);fill-opacity:1;" d="M 9.5 11 L 11 11 L 11 12.5 L 9.5 12.5 Z M 9.5 11 "/>
<path style=" stroke:none;fill-rule:nonzero;fill:rgb(85.882353%,37.254902%,90.980392%);fill-opacity:1;" d="M 11 11 L 12.5 11 L 12.5 12.5 L 11 12.5 Z M 11 11 "/>
<path style=" stroke:none;fill-rule:nonzero;fill:rgb(100%,74.117647%,10.196078%);fill-opacity:1;" d="M 3.5 3.5 L 5 3.5 L 5 5 L 3.5 5 Z M 3.5 3.5 "/>
<path style=" stroke:none;fill-rule:nonzero;fill:rgb(89.411765%,36.862745%,36.862745%);fill-opacity:1;" d="M 5 3.5 L 6.5 3.5 L 6.5 5 L 5 5 Z M 5 3.5 "/>
<path style=" stroke:none;fill-rule:nonzero;fill:rgb(100%,93.333333%,20.784314%);fill-opacity:1;" d="M 6.5 3.5 L 8 3.5 L 8 5 L 6.5 5 Z M 6.5 3.5 "/>
<path style=" stroke:none;fill-rule:nonzero;fill:rgb(43.921569%,47.45098%,100%);fill-opacity:1;" d="M 8 3.5 L 9.5 3.5 L 9.5 5 L 8 5 Z M 8 3.5 "/>
</g>
</svg>
