<?xml version="1.0" encoding="UTF-8"?>
<svg xmlns="http://www.w3.org/2000/svg" xmlns:xlink="http://www.w3.org/1999/xlink" width="16pt" height="16pt" viewBox="0 0 16 16" version="1.1">
<g id="surface1">
<path style=" stroke:none;fill-rule:evenodd;fill:rgb(55.686275%,55.686275%,55.686275%);fill-opacity:1;" d="M 3.734375 0.949219 L 12.265625 0.949219 C 13.800781 0.949219 15.050781 2.199219 15.050781 3.734375 L 15.050781 12.265625 C 15.050781 13.800781 13.800781 15.050781 12.265625 15.050781 L 3.734375 15.050781 C 2.199219 15.050781 0.949219 13.800781 0.949219 12.265625 L 0.949219 3.734375 C 0.949219 2.199219 2.199219 0.949219 3.734375 0.949219 Z M 3.734375 0.949219 "/>
<path style=" stroke:none;fill-rule:nonzero;fill:rgb(30.980392%,30.980392%,30.980392%);fill-opacity:1;" d="M 11.480469 8 C 11.480469 9.921875 9.921875 11.480469 8 11.480469 C 6.078125 11.480469 4.519531 9.921875 4.519531 8 C 4.519531 6.078125 6.078125 4.519531 8 4.519531 C 9.921875 4.519531 11.480469 6.078125 11.480469 8 Z M 11.480469 8 "/>
<path style=" stroke:none;fill-rule:nonzero;fill:rgb(80%,80%,80%);fill-opacity:1;" d="M 8 2.589844 C 5 2.589844 2.589844 5 2.589844 8 C 2.589844 11 5 13.410156 8 13.410156 C 11 13.410156 13.410156 11 13.410156 8 C 13.410156 5 11 2.589844 8 2.589844 Z M 8 3.75 C 8.855469 3.75 9.546875 4.441406 9.546875 5.296875 C 9.546875 6.148438 8.855469 6.839844 8 6.839844 C 7.144531 6.839844 6.453125 6.148438 6.453125 5.296875 C 6.453125 4.441406 7.144531 3.75 8 3.75 Z M 5.296875 6.453125 C 6.148438 6.453125 6.839844 7.144531 6.839844 8 C 6.839844 8.855469 6.148438 9.546875 5.296875 9.546875 C 4.441406 9.546875 3.75 8.855469 3.75 8 C 3.75 7.144531 4.441406 6.453125 5.296875 6.453125 Z M 10.703125 6.453125 C 11.558594 6.453125 12.25 7.144531 12.25 8 C 12.25 8.855469 11.558594 9.546875 10.703125 9.546875 C 9.851562 9.546875 9.160156 8.855469 9.160156 8 C 9.160156 7.144531 9.851562 6.453125 10.703125 6.453125 Z M 8 9.160156 C 8.855469 9.160156 9.546875 9.851562 9.546875 10.703125 C 9.546875 11.558594 8.855469 12.25 8 12.25 C 7.144531 12.25 6.453125 11.558594 6.453125 10.703125 C 6.453125 9.851562 7.144531 9.160156 8 9.160156 Z M 8 9.160156 "/>
<path style=" stroke:none;fill-rule:nonzero;fill:rgb(30.980392%,30.980392%,30.980392%);fill-opacity:1;" d="M 8.671875 7.613281 C 8.617188 7.519531 8.5 7.488281 8.40625 7.542969 C 8.3125 7.59375 8.28125 7.714844 8.335938 7.808594 C 8.390625 7.898438 8.507812 7.929688 8.597656 7.875 C 8.691406 7.824219 8.722656 7.707031 8.671875 7.613281 Z M 7.875 7.402344 C 7.824219 7.308594 7.707031 7.277344 7.613281 7.328125 C 7.519531 7.382812 7.488281 7.5 7.542969 7.59375 C 7.59375 7.6875 7.714844 7.71875 7.808594 7.664062 C 7.898438 7.609375 7.929688 7.492188 7.875 7.402344 Z M 8.457031 8.40625 C 8.40625 8.3125 8.285156 8.28125 8.191406 8.335938 C 8.101562 8.390625 8.070312 8.507812 8.125 8.597656 C 8.175781 8.691406 8.292969 8.722656 8.386719 8.671875 C 8.480469 8.617188 8.511719 8.5 8.457031 8.40625 Z M 7.664062 8.191406 C 7.609375 8.101562 7.492188 8.070312 7.402344 8.125 C 7.308594 8.175781 7.277344 8.292969 7.328125 8.386719 C 7.382812 8.480469 7.5 8.511719 7.59375 8.457031 C 7.6875 8.40625 7.71875 8.285156 7.664062 8.191406 Z M 7.664062 8.191406 "/>
</g>
</svg>
