<?xml version="1.0" encoding="UTF-8"?>
<svg xmlns="http://www.w3.org/2000/svg" xmlns:xlink="http://www.w3.org/1999/xlink" width="16pt" height="16pt" viewBox="0 0 16 16" version="1.1">
<g id="surface1">
<path style=" stroke:none;fill-rule:evenodd;fill:rgb(36.470588%,70.588235%,24.313725%);fill-opacity:1;" d="M 3.734375 0.949219 L 12.265625 0.949219 C 13.800781 0.949219 15.050781 2.199219 15.050781 3.734375 L 15.050781 12.265625 C 15.050781 13.800781 13.800781 15.050781 12.265625 15.050781 L 3.734375 15.050781 C 2.199219 15.050781 0.949219 13.800781 0.949219 12.265625 L 0.949219 3.734375 C 0.949219 2.199219 2.199219 0.949219 3.734375 0.949219 Z M 3.734375 0.949219 "/>
<path style=" stroke:none;fill-rule:nonzero;fill:rgb(100%,100%,100%);fill-opacity:1;" d="M 8.011719 2.710938 C 9.0625 2.714844 10.128906 3.0625 10.960938 3.75 C 11.546875 4.460938 10.433594 5.226562 9.929688 4.53125 C 8.417969 3.5625 6.28125 3.902344 5.144531 5.351562 C 4.539062 6.070312 4.195312 7.027344 4.199219 7.992188 L 5.199219 7.992188 C 4.667969 8.835938 4.132812 9.683594 3.601562 10.53125 L 2 7.992188 L 3 7.992188 C 2.96875 5.691406 4.53125 3.503906 6.628906 2.910156 C 7.078125 2.78125 7.542969 2.707031 8.011719 2.710938 Z M 12.402344 5.460938 C 12.933594 6.308594 13.46875 7.15625 14 8 L 13 8 C 13.027344 10.328125 11.425781 12.539062 9.292969 13.101562 C 7.851562 13.527344 6.222656 13.21875 5.039062 12.242188 C 4.433594 11.515625 5.566406 10.761719 6.074219 11.464844 C 7.539062 12.40625 9.59375 12.105469 10.75 10.761719 C 11.421875 10.03125 11.804688 9.019531 11.800781 8 L 10.800781 8 L 12.398438 5.460938 Z M 12.402344 5.460938 "/>
<path style=" stroke:none;fill-rule:nonzero;fill:rgb(100%,100%,100%);fill-opacity:1;" d="M 7.375 5.488281 L 7.316406 6.152344 C 7.109375 6.230469 6.914062 6.34375 6.742188 6.484375 L 6.140625 6.203125 L 5.511719 7.289062 L 6.058594 7.667969 C 6.039062 7.777344 6.027344 7.890625 6.027344 8 C 6.027344 8.113281 6.035156 8.222656 6.054688 8.335938 L 5.511719 8.710938 L 6.140625 9.796875 L 6.738281 9.515625 C 6.910156 9.660156 7.109375 9.769531 7.316406 9.847656 L 7.371094 10.511719 L 8.625 10.511719 L 8.683594 9.847656 C 8.890625 9.769531 9.085938 9.660156 9.257812 9.515625 L 9.859375 9.796875 L 10.488281 8.710938 L 9.941406 8.332031 C 9.960938 8.222656 9.972656 8.109375 9.972656 8 C 9.972656 7.890625 9.964844 7.777344 9.945312 7.667969 L 10.488281 7.289062 L 9.859375 6.203125 L 9.261719 6.484375 C 9.089844 6.339844 8.890625 6.230469 8.683594 6.152344 L 8.628906 5.488281 L 7.371094 5.488281 Z M 8 7.28125 C 8.394531 7.28125 8.71875 7.605469 8.71875 8 C 8.71875 8.394531 8.394531 8.71875 8 8.71875 C 7.605469 8.71875 7.28125 8.394531 7.28125 8 C 7.28125 7.605469 7.605469 7.28125 8 7.28125 Z M 8 7.28125 "/>
</g>
</svg>
