<?xml version="1.0" encoding="UTF-8"?>
<svg xmlns="http://www.w3.org/2000/svg" xmlns:xlink="http://www.w3.org/1999/xlink" width="16pt" height="16pt" viewBox="0 0 16 16" version="1.1">
<g id="surface1">
<path style=" stroke:none;fill-rule:evenodd;fill:rgb(94.901961%,94.901961%,94.901961%);fill-opacity:1;" d="M 3.734375 0.949219 L 12.265625 0.949219 C 13.800781 0.949219 15.050781 2.199219 15.050781 3.734375 L 15.050781 12.265625 C 15.050781 13.800781 13.800781 15.050781 12.265625 15.050781 L 3.734375 15.050781 C 2.199219 15.050781 0.949219 13.800781 0.949219 12.265625 L 0.949219 3.734375 C 0.949219 2.199219 2.199219 0.949219 3.734375 0.949219 Z M 3.734375 0.949219 "/>
<path style=" stroke:none;fill-rule:nonzero;fill:rgb(50.196078%,37.254902%,83.921569%);fill-opacity:1;" d="M 8.777344 3.140625 C 8 3.140625 7.222656 3.140625 7.222656 3.917969 L 7.222656 8.667969 C 7.03125 8.613281 6.835938 8.582031 6.640625 8.582031 C 5.457031 8.582031 4.5 9.539062 4.5 10.722656 C 4.5 11.90625 5.457031 12.859375 6.640625 12.859375 C 7.789062 12.859375 8.734375 11.949219 8.777344 10.796875 C 8.785156 9.335938 8.777344 7.851562 8.777344 6.378906 C 8.777344 4.304688 11.109375 7.027344 11.5 7.417969 C 11.5 6.378906 11.5 3.140625 8.777344 3.140625 Z M 8.777344 3.140625 "/>
</g>
</svg>
