<?xml version="1.0" encoding="UTF-8"?>
<svg xmlns="http://www.w3.org/2000/svg" xmlns:xlink="http://www.w3.org/1999/xlink" width="16pt" height="16pt" viewBox="0 0 16 16" version="1.1">
<g id="surface1">
<path style=" stroke:none;fill-rule:evenodd;fill:rgb(52.54902%,19.215686%,41.960784%);fill-opacity:1;" d="M 3.734375 0.949219 L 12.265625 0.949219 C 13.800781 0.949219 15.050781 2.199219 15.050781 3.734375 L 15.050781 12.265625 C 15.050781 13.800781 13.800781 15.050781 12.265625 15.050781 L 3.734375 15.050781 C 2.199219 15.050781 0.949219 13.800781 0.949219 12.265625 L 0.949219 3.734375 C 0.949219 2.199219 2.199219 0.949219 3.734375 0.949219 Z M 3.734375 0.949219 "/>
<path style="fill:none;stroke-width:1;stroke-linecap:butt;stroke-linejoin:miter;stroke:rgb(100%,100%,100%);stroke-opacity:1;stroke-miterlimit:4;" d="M 11.5 11.5 L 19.5 8.5 L 23.5 13.5 L 20.5 22.5 L 13.5 23.5 L 8.5 19.5 Z M 11.5 11.5 " transform="matrix(0.5,0,0,0.5,0,0)"/>
<path style="fill:none;stroke-width:1;stroke-linecap:butt;stroke-linejoin:miter;stroke:rgb(100%,100%,100%);stroke-opacity:1;stroke-miterlimit:4;" d="M 16.5 18.5 L 19.5 8.5 " transform="matrix(0.5,0,0,0.5,0,0)"/>
<path style="fill:none;stroke-width:1;stroke-linecap:butt;stroke-linejoin:miter;stroke:rgb(100%,100%,100%);stroke-opacity:1;stroke-miterlimit:4;" d="M 16.5 18.5 L 11.5 11.5 " transform="matrix(0.5,0,0,0.5,0,0)"/>
<path style="fill:none;stroke-width:1;stroke-linecap:butt;stroke-linejoin:miter;stroke:rgb(100%,100%,100%);stroke-opacity:1;stroke-miterlimit:4;" d="M 16.5 18.5 L 8.5 19.5 " transform="matrix(0.5,0,0,0.5,0,0)"/>
<path style="fill:none;stroke-width:1;stroke-linecap:butt;stroke-linejoin:miter;stroke:rgb(100%,100%,100%);stroke-opacity:1;stroke-miterlimit:4;" d="M 16.5 18.5 L 20.5 22.5 " transform="matrix(0.5,0,0,0.5,0,0)"/>
<path style="fill:none;stroke-width:1;stroke-linecap:butt;stroke-linejoin:miter;stroke:rgb(100%,100%,100%);stroke-opacity:1;stroke-miterlimit:4;" d="M 16.5 18.5 L 13.5 23.5 " transform="matrix(0.5,0,0,0.5,0,0)"/>
<path style="fill:none;stroke-width:1;stroke-linecap:butt;stroke-linejoin:miter;stroke:rgb(100%,100%,100%);stroke-opacity:1;stroke-miterlimit:4;" d="M 16.5 18.5 L 23.5 13.5 " transform="matrix(0.5,0,0,0.5,0,0)"/>
<path style=" stroke:none;fill-rule:nonzero;fill:rgb(100%,100%,100%);fill-opacity:1;" d="M 10.5 4.25 C 10.5 4.664062 10.164062 5 9.75 5 C 9.335938 5 9 4.664062 9 4.25 C 9 3.835938 9.335938 3.5 9.75 3.5 C 10.164062 3.5 10.5 3.835938 10.5 4.25 Z M 10.5 4.25 "/>
<path style=" stroke:none;fill-rule:nonzero;fill:rgb(100%,100%,100%);fill-opacity:1;" d="M 12.5 6.75 C 12.5 7.164062 12.164062 7.5 11.75 7.5 C 11.335938 7.5 11 7.164062 11 6.75 C 11 6.335938 11.335938 6 11.75 6 C 12.164062 6 12.5 6.335938 12.5 6.75 Z M 12.5 6.75 "/>
<path style=" stroke:none;fill-rule:nonzero;fill:rgb(100%,100%,100%);fill-opacity:1;" d="M 11 11.25 C 11 11.664062 10.664062 12 10.25 12 C 9.835938 12 9.5 11.664062 9.5 11.25 C 9.5 10.835938 9.835938 10.5 10.25 10.5 C 10.664062 10.5 11 10.835938 11 11.25 Z M 11 11.25 "/>
<path style=" stroke:none;fill-rule:nonzero;fill:rgb(100%,100%,100%);fill-opacity:1;" d="M 7.5 11.75 C 7.5 12.164062 7.164062 12.5 6.75 12.5 C 6.335938 12.5 6 12.164062 6 11.75 C 6 11.335938 6.335938 11 6.75 11 C 7.164062 11 7.5 11.335938 7.5 11.75 Z M 7.5 11.75 "/>
<path style=" stroke:none;fill-rule:nonzero;fill:rgb(100%,100%,100%);fill-opacity:1;" d="M 5 9.75 C 5 10.164062 4.664062 10.5 4.25 10.5 C 3.835938 10.5 3.5 10.164062 3.5 9.75 C 3.5 9.335938 3.835938 9 4.25 9 C 4.664062 9 5 9.335938 5 9.75 Z M 5 9.75 "/>
<path style=" stroke:none;fill-rule:nonzero;fill:rgb(100%,100%,100%);fill-opacity:1;" d="M 6.5 5.75 C 6.5 6.164062 6.164062 6.5 5.75 6.5 C 5.335938 6.5 5 6.164062 5 5.75 C 5 5.335938 5.335938 5 5.75 5 C 6.164062 5 6.5 5.335938 6.5 5.75 Z M 6.5 5.75 "/>
<path style=" stroke:none;fill-rule:nonzero;fill:rgb(100%,100%,100%);fill-opacity:1;" d="M 9 9.25 C 9 9.664062 8.664062 10 8.25 10 C 7.835938 10 7.5 9.664062 7.5 9.25 C 7.5 8.835938 7.835938 8.5 8.25 8.5 C 8.664062 8.5 9 8.835938 9 9.25 Z M 9 9.25 "/>
</g>
</svg>
