<?xml version="1.0" encoding="UTF-8"?>
<svg xmlns="http://www.w3.org/2000/svg" xmlns:xlink="http://www.w3.org/1999/xlink" width="16pt" height="16pt" viewBox="0 0 16 16" version="1.1">
<g id="surface1">
<path style=" stroke:none;fill-rule:evenodd;fill:rgb(96.078431%,40.784314%,36.470588%);fill-opacity:1;" d="M 3.734375 0.949219 L 12.265625 0.949219 C 13.800781 0.949219 15.050781 2.199219 15.050781 3.734375 L 15.050781 12.265625 C 15.050781 13.800781 13.800781 15.050781 12.265625 15.050781 L 3.734375 15.050781 C 2.199219 15.050781 0.949219 13.800781 0.949219 12.265625 L 0.949219 3.734375 C 0.949219 2.199219 2.199219 0.949219 3.734375 0.949219 Z M 3.734375 0.949219 "/>
<path style=" stroke:none;fill-rule:nonzero;fill:rgb(100%,100%,100%);fill-opacity:1;" d="M 8 4 C 7.167969 4 6.5 4.667969 6.5 5.5 L 6.5 8 C 6.5 8.832031 7.167969 9.5 8 9.5 C 8.832031 9.5 9.5 8.832031 9.5 8 L 9.5 5.5 C 9.5 4.667969 8.832031 4 8 4 Z M 5 7.5 L 5 8 C 5 9.484375 6.082031 10.714844 7.5 10.953125 L 7.5 12 L 8.5 12 L 8.5 10.953125 C 9.917969 10.714844 11 9.484375 11 8 L 11 7.5 L 10 7.5 L 10 8 C 10 9.117188 9.117188 10 8 10 C 6.882812 10 6 9.117188 6 8 L 6 7.5 Z M 5 7.5 "/>
</g>
</svg>
