<?xml version="1.0" encoding="UTF-8"?>
<svg xmlns="http://www.w3.org/2000/svg" xmlns:xlink="http://www.w3.org/1999/xlink" width="16pt" height="16pt" viewBox="0 0 16 16" version="1.1">
<g id="surface1">
<path style=" stroke:none;fill-rule:evenodd;fill:rgb(35.294118%,61.960784%,5.098039%);fill-opacity:1;" d="M 3.734375 0.949219 L 12.265625 0.949219 C 13.800781 0.949219 15.050781 2.199219 15.050781 3.734375 L 15.050781 12.265625 C 15.050781 13.800781 13.800781 15.050781 12.265625 15.050781 L 3.734375 15.050781 C 2.199219 15.050781 0.949219 13.800781 0.949219 12.265625 L 0.949219 3.734375 C 0.949219 2.199219 2.199219 0.949219 3.734375 0.949219 Z M 3.734375 0.949219 "/>
<path style=" stroke:none;fill-rule:nonzero;fill:rgb(68.235294%,94.901961%,37.647059%);fill-opacity:1;" d="M 8 3 C 5.230469 3 3 5.230469 3 8 C 3 10.769531 5.230469 13 8 13 C 10.769531 13 13 10.769531 13 8 L 11.5 8 C 11.5 9.933594 9.933594 11.5 8 11.5 C 6.066406 11.5 4.5 9.933594 4.5 8 C 4.5 6.066406 6.066406 4.5 8 4.5 Z M 8 3 "/>
<path style=" stroke:none;fill-rule:nonzero;fill:rgb(100%,60.392157%,10.588235%);fill-opacity:1;" d="M 8 3 L 8 4.5 C 9.933594 4.5 11.5 6.066406 11.5 8 L 13 8 C 13 5.230469 10.769531 3 8 3 Z M 8 3 "/>
</g>
</svg>
