<?xml version="1.0" encoding="UTF-8"?>
<svg xmlns="http://www.w3.org/2000/svg" xmlns:xlink="http://www.w3.org/1999/xlink" width="16pt" height="16pt" viewBox="0 0 16 16" version="1.1">
<g id="surface1">
<path style=" stroke:none;fill-rule:evenodd;fill:rgb(0%,49.411765%,100%);fill-opacity:1;" d="M 3.734375 0.949219 L 12.265625 0.949219 C 13.800781 0.949219 15.050781 2.199219 15.050781 3.734375 L 15.050781 12.265625 C 15.050781 13.800781 13.800781 15.050781 12.265625 15.050781 L 3.734375 15.050781 C 2.199219 15.050781 0.949219 13.800781 0.949219 12.265625 L 0.949219 3.734375 C 0.949219 2.199219 2.199219 0.949219 3.734375 0.949219 Z M 3.734375 0.949219 "/>
<path style=" stroke:none;fill-rule:nonzero;fill:rgb(41.176471%,41.176471%,41.176471%);fill-opacity:1;" d="M 8 8 C 5.210938 8 2.949219 9.128906 2.949219 10.527344 C 2.949219 11.921875 5.210938 13.050781 8 13.050781 C 10.789062 13.050781 13.050781 11.921875 13.050781 10.527344 C 13.050781 9.128906 10.789062 8 8 8 Z M 8 8 "/>
<path style=" stroke:none;fill-rule:nonzero;fill:rgb(56.862745%,56.862745%,56.862745%);fill-opacity:1;" d="M 8 5.472656 C 5.210938 5.472656 2.949219 6.605469 2.949219 8 C 2.949219 9.394531 5.210938 10.527344 8 10.527344 C 10.789062 10.527344 13.050781 9.394531 13.050781 8 C 13.050781 6.605469 10.789062 5.472656 8 5.472656 Z M 8 5.472656 "/>
<path style=" stroke:none;fill-rule:nonzero;fill:rgb(80%,80%,80%);fill-opacity:1;" d="M 8 2.949219 C 5.210938 2.949219 2.949219 4.078125 2.949219 5.472656 C 2.949219 6.871094 5.210938 8 8 8 C 10.789062 8 13.050781 6.871094 13.050781 5.472656 C 13.050781 4.078125 10.789062 2.949219 8 2.949219 Z M 8 2.949219 "/>
</g>
</svg>
