<?xml version="1.0" encoding="UTF-8"?>
<svg xmlns="http://www.w3.org/2000/svg" xmlns:xlink="http://www.w3.org/1999/xlink" width="16pt" height="16pt" viewBox="0 0 16 16" version="1.1">
<g id="surface1">
<path style=" stroke:none;fill-rule:evenodd;fill:rgb(80%,80%,80%);fill-opacity:1;" d="M 3.734375 0.949219 L 12.265625 0.949219 C 13.800781 0.949219 15.050781 2.199219 15.050781 3.734375 L 15.050781 12.265625 C 15.050781 13.800781 13.800781 15.050781 12.265625 15.050781 L 3.734375 15.050781 C 2.199219 15.050781 0.949219 13.800781 0.949219 12.265625 L 0.949219 3.734375 C 0.949219 2.199219 2.199219 0.949219 3.734375 0.949219 Z M 3.734375 0.949219 "/>
<path style=" stroke:none;fill-rule:nonzero;fill:rgb(100%,36.862745%,25.882353%);fill-opacity:1;" d="M 5.363281 5.515625 C 4.757812 5.515625 4.199219 5.839844 3.894531 6.363281 C 3.59375 6.890625 3.59375 7.535156 3.894531 8.058594 C 4.121094 8.445312 4.488281 8.730469 4.921875 8.84375 C 4.96875 8.859375 5.015625 8.871094 5.0625 8.878906 C 5.09375 8.882812 5.125 8.890625 5.15625 8.894531 C 5.171875 8.894531 5.1875 8.898438 5.203125 8.898438 C 5.5625 8.9375 5.921875 8.863281 6.230469 8.683594 C 6.753906 8.382812 7.078125 7.820312 7.078125 7.21875 L 5.363281 7.21875 Z M 5.363281 5.515625 "/>
<path style=" stroke:none;fill-rule:nonzero;fill:rgb(40%,40%,40%);fill-opacity:1;" d="M 8.304688 5.910156 L 12.003906 5.910156 C 12.1875 5.910156 12.332031 6.054688 12.332031 6.234375 C 12.332031 6.417969 12.1875 6.5625 12.003906 6.5625 L 8.304688 6.5625 C 8.125 6.5625 7.976562 6.417969 7.976562 6.234375 C 7.976562 6.054688 8.125 5.910156 8.304688 5.910156 Z M 8.304688 5.910156 "/>
<path style=" stroke:none;fill-rule:nonzero;fill:rgb(40%,40%,40%);fill-opacity:1;" d="M 8.304688 7.871094 L 12.003906 7.871094 C 12.1875 7.871094 12.332031 8.015625 12.332031 8.195312 C 12.332031 8.375 12.1875 8.523438 12.003906 8.523438 L 8.304688 8.523438 C 8.125 8.523438 7.976562 8.375 7.976562 8.195312 C 7.976562 8.015625 8.125 7.871094 8.304688 7.871094 Z M 8.304688 7.871094 "/>
<path style=" stroke:none;fill-rule:nonzero;fill:rgb(40%,40%,40%);fill-opacity:1;" d="M 4.382812 9.828125 L 10.265625 9.828125 C 10.449219 9.828125 10.59375 9.976562 10.59375 10.15625 C 10.59375 10.335938 10.449219 10.484375 10.265625 10.484375 L 4.382812 10.484375 C 4.203125 10.484375 4.058594 10.335938 4.058594 10.15625 C 4.058594 9.976562 4.203125 9.828125 4.382812 9.828125 Z M 4.382812 9.828125 "/>
</g>
</svg>
