<?xml version="1.0" encoding="UTF-8"?>
<svg xmlns="http://www.w3.org/2000/svg" xmlns:xlink="http://www.w3.org/1999/xlink" width="16pt" height="16pt" viewBox="0 0 16 16" version="1.1">
<g id="surface1">
<path style=" stroke:none;fill-rule:evenodd;fill:rgb(94.901961%,94.901961%,94.901961%);fill-opacity:1;" d="M 3.734375 0.949219 L 12.265625 0.949219 C 13.800781 0.949219 15.050781 2.199219 15.050781 3.734375 L 15.050781 12.265625 C 15.050781 13.800781 13.800781 15.050781 12.265625 15.050781 L 3.734375 15.050781 C 2.199219 15.050781 0.949219 13.800781 0.949219 12.265625 L 0.949219 3.734375 C 0.949219 2.199219 2.199219 0.949219 3.734375 0.949219 Z M 3.734375 0.949219 "/>
<path style=" stroke:none;fill-rule:nonzero;fill:rgb(96.862745%,27.058824%,27.058824%);fill-opacity:1;" d="M 8 2.683594 C 8.496094 2.691406 8.851562 2.988281 9.015625 3.484375 L 9.011719 3.464844 L 9.789062 5.722656 L 12.421875 5.722656 C 12.425781 5.722656 12.429688 5.722656 12.4375 5.722656 C 12.75 5.734375 13.035156 5.917969 13.234375 6.160156 L 8 8 Z M 8 2.683594 "/>
<path style=" stroke:none;fill-rule:nonzero;fill:rgb(43.921569%,43.921569%,43.921569%);fill-opacity:1;" d="M 11.453125 13.039062 C 11.457031 13.035156 11.460938 13.03125 11.460938 13.03125 C 11.769531 12.75 11.886719 12.332031 11.765625 11.929688 C 11.761719 11.925781 11.761719 11.921875 11.761719 11.921875 L 10.957031 9.429688 L 13.027344 7.917969 C 13.574219 7.546875 13.664062 6.65625 13.234375 6.160156 L 8 8 C 8 8 11.460938 13.03125 11.453125 13.039062 Z M 11.453125 13.039062 "/>
<path style=" stroke:none;fill-rule:nonzero;fill:rgb(48.235294%,25.490196%,53.333333%);fill-opacity:1;" d="M 4.539062 13.03125 C 4.539062 13.03125 4.542969 13.035156 4.546875 13.039062 C 4.914062 13.367188 5.4375 13.410156 5.855469 13.136719 C 5.863281 13.132812 5.871094 13.125 5.878906 13.121094 L 8 11.609375 L 10.121094 13.121094 C 10.128906 13.125 10.136719 13.132812 10.144531 13.136719 C 10.5625 13.410156 11.085938 13.367188 11.453125 13.039062 C 11.457031 13.035156 11.460938 13.03125 11.460938 13.03125 L 8 8 Z M 4.539062 13.03125 "/>
<path style=" stroke:none;fill-rule:nonzero;fill:rgb(100%,61.568627%,27.058824%);fill-opacity:1;" d="M 8 2.683594 C 7.503906 2.691406 7.148438 2.988281 6.984375 3.484375 L 6.988281 3.464844 L 6.210938 5.722656 L 3.578125 5.722656 C 3.574219 5.722656 3.570312 5.722656 3.5625 5.722656 C 3.25 5.734375 2.964844 5.917969 2.765625 6.160156 L 8 8 Z M 8 2.683594 "/>
<path style=" stroke:none;fill-rule:nonzero;fill:rgb(100%,85.098039%,27.058824%);fill-opacity:1;" d="M 4.546875 13.039062 C 4.542969 13.035156 4.539062 13.03125 4.539062 13.03125 C 4.230469 12.75 4.113281 12.332031 4.234375 11.929688 C 4.238281 11.925781 4.238281 11.921875 4.238281 11.921875 L 5.042969 9.429688 L 2.972656 7.917969 C 2.425781 7.546875 2.335938 6.65625 2.765625 6.160156 L 8 8 C 8 8 4.539062 13.03125 4.546875 13.039062 Z M 4.546875 13.039062 "/>
</g>
</svg>
