<?xml version="1.0" encoding="UTF-8"?>
<svg xmlns="http://www.w3.org/2000/svg" xmlns:xlink="http://www.w3.org/1999/xlink" width="16pt" height="16pt" viewBox="0 0 16 16" version="1.1">
<g id="surface1">
<path style=" stroke:none;fill-rule:evenodd;fill:rgb(46.666667%,40.392157%,75.294118%);fill-opacity:1;" d="M 3.734375 0.949219 L 12.265625 0.949219 C 13.800781 0.949219 15.050781 2.199219 15.050781 3.734375 L 15.050781 12.265625 C 15.050781 13.800781 13.800781 15.050781 12.265625 15.050781 L 3.734375 15.050781 C 2.199219 15.050781 0.949219 13.800781 0.949219 12.265625 L 0.949219 3.734375 C 0.949219 2.199219 2.199219 0.949219 3.734375 0.949219 Z M 3.734375 0.949219 "/>
<path style=" stroke:none;fill-rule:nonzero;fill:rgb(100%,100%,100%);fill-opacity:1;" d="M 9.363281 2.308594 L 8.617188 3.4375 C 8.476562 3.414062 8.335938 3.40625 8.195312 3.402344 C 7.769531 3.402344 7.34375 3.488281 6.949219 3.652344 L 5.941406 2.757812 L 6.210938 4.082031 C 5.9375 4.296875 5.699219 4.550781 5.503906 4.84375 C 4.285156 4.390625 2.996094 4.15625 1.695312 4.152344 C 1.445312 4.15625 1.195312 4.171875 0.945312 4.191406 L 0.945312 4.710938 C 1.277344 4.675781 1.609375 4.65625 1.945312 4.652344 C 7.6875 4.65625 12.410156 9.171875 12.675781 14.902344 L 12.683594 14.902344 C 12.632812 12.703125 11.921875 10.570312 10.644531 8.777344 C 10.871094 8.519531 11.054688 8.226562 11.1875 7.910156 L 12.550781 7.828125 L 11.414062 7.078125 C 11.433594 6.9375 11.445312 6.796875 11.445312 6.652344 C 11.445312 6.230469 11.363281 5.8125 11.203125 5.421875 L 12.101562 4.40625 L 10.773438 4.679688 C 10.425781 4.226562 9.96875 3.875 9.445312 3.65625 Z M 8.195312 3.902344 C 9.714844 3.902344 10.945312 5.136719 10.945312 6.652344 C 10.945312 7.28125 10.726562 7.890625 10.332031 8.375 C 9.1875 6.914062 7.6875 5.765625 5.972656 5.039062 C 6.492188 4.328125 7.316406 3.90625 8.195312 3.902344 Z M 8.195312 3.902344 "/>
</g>
</svg>
