<?xml version="1.0" encoding="UTF-8"?>
<svg xmlns="http://www.w3.org/2000/svg" xmlns:xlink="http://www.w3.org/1999/xlink" width="16pt" height="16pt" viewBox="0 0 16 16" version="1.1">
<g id="surface1">
<path style=" stroke:none;fill-rule:evenodd;fill:rgb(15.294118%,43.137255%,83.921569%);fill-opacity:1;" d="M 3.734375 0.949219 L 12.265625 0.949219 C 13.800781 0.949219 15.050781 2.199219 15.050781 3.734375 L 15.050781 12.265625 C 15.050781 13.800781 13.800781 15.050781 12.265625 15.050781 L 3.734375 15.050781 C 2.199219 15.050781 0.949219 13.800781 0.949219 12.265625 L 0.949219 3.734375 C 0.949219 2.199219 2.199219 0.949219 3.734375 0.949219 Z M 3.734375 0.949219 "/>
<path style=" stroke:none;fill-rule:nonzero;fill:rgb(100%,78.823529%,27.843137%);fill-opacity:1;" d="M 7.800781 2.625 C 7.316406 2.625 6.851562 2.695312 6.40625 2.816406 C 8.59375 3.421875 10.191406 5.417969 10.191406 7.800781 C 10.191406 10.1875 8.59375 12.179688 6.40625 12.785156 C 6.851562 12.90625 7.316406 12.980469 7.800781 12.980469 C 10.671875 12.980469 12.980469 10.671875 12.980469 7.800781 C 12.980469 4.933594 10.671875 2.625 7.800781 2.625 Z M 7.800781 2.625 "/>
<path style=" stroke:none;fill-rule:nonzero;fill:rgb(27.843137%,54.117647%,100%);fill-opacity:1;" d="M 5.210938 8.597656 L 5.890625 9.90625 L 7.402344 10.117188 L 6.308594 11.140625 L 6.566406 12.578125 L 5.210938 11.898438 L 3.859375 12.578125 L 4.117188 11.140625 L 3.019531 10.117188 L 4.535156 9.90625 Z M 5.210938 8.597656 "/>
<path style=" stroke:none;fill-rule:nonzero;fill:rgb(43.529412%,64.313725%,100%);fill-opacity:1;" d="M 7.203125 6.207031 L 7.757812 7.257812 L 8.996094 7.425781 L 8.097656 8.242188 L 8.3125 9.394531 L 7.203125 8.847656 L 6.09375 9.394531 L 6.308594 8.242188 L 5.410156 7.425781 L 6.648438 7.257812 Z M 7.203125 6.207031 "/>
<path style=" stroke:none;fill-rule:nonzero;fill:rgb(56.470588%,72.54902%,100%);fill-opacity:1;" d="M 5.808594 4.613281 L 6.179688 5.269531 L 7.003906 5.375 L 6.40625 5.886719 L 6.546875 6.605469 L 5.808594 6.265625 L 5.070312 6.605469 L 5.210938 5.886719 L 4.613281 5.375 L 5.441406 5.269531 Z M 5.808594 4.613281 "/>
<path style=" stroke:none;fill-rule:nonzero;fill:rgb(0%,0%,0%);fill-opacity:0.156863;" d="M 7.109375 3.070312 C 6.867188 3.101562 6.636719 3.152344 6.40625 3.214844 C 8.53125 3.804688 10.09375 5.703125 10.183594 8 C 10.183594 7.933594 10.191406 7.867188 10.191406 7.800781 C 10.191406 5.679688 8.925781 3.871094 7.109375 3.070312 Z M 5.019531 5.722656 L 4.613281 5.773438 L 5.144531 6.226562 L 5.210938 5.886719 Z M 6.597656 5.722656 L 6.40625 5.886719 L 6.472656 6.226562 L 7.003906 5.773438 Z M 5.808594 6.265625 L 5.15625 6.566406 L 5.070312 7.003906 L 5.808594 6.664062 L 6.546875 7.003906 L 6.460938 6.566406 Z M 5.792969 7.769531 L 5.410156 7.824219 L 6.246094 8.582031 L 6.308594 8.242188 Z M 8.613281 7.769531 L 8.097656 8.242188 L 8.164062 8.582031 L 8.996094 7.824219 Z M 12.96875 8 C 12.863281 10.773438 10.601562 12.980469 7.800781 12.980469 C 7.566406 12.980469 7.335938 12.960938 7.109375 12.929688 C 6.882812 13.03125 6.648438 13.117188 6.40625 13.183594 C 6.851562 13.304688 7.316406 13.375 7.800781 13.375 C 10.671875 13.375 12.980469 11.066406 12.980469 8.199219 C 12.980469 8.132812 12.96875 8.066406 12.96875 8 Z M 7.203125 8.847656 L 6.175781 9.355469 L 6.09375 9.792969 L 7.203125 9.25 L 8.3125 9.792969 L 8.230469 9.355469 Z M 3.394531 10.464844 L 3.019531 10.515625 L 4.054688 11.480469 L 4.117188 11.140625 Z M 7.03125 10.464844 L 6.308594 11.140625 L 6.367188 11.480469 L 7.402344 10.515625 Z M 5.210938 11.898438 L 3.9375 12.539062 L 3.859375 12.980469 L 5.210938 12.296875 L 6.566406 12.980469 L 6.535156 12.816406 C 6.492188 12.804688 6.449219 12.796875 6.40625 12.785156 C 6.445312 12.773438 6.484375 12.757812 6.523438 12.746094 L 6.484375 12.539062 Z M 5.210938 11.898438 "/>
</g>
</svg>
