<?xml version="1.0" encoding="UTF-8"?>
<svg xmlns="http://www.w3.org/2000/svg" xmlns:xlink="http://www.w3.org/1999/xlink" width="16pt" height="16pt" viewBox="0 0 16 16" version="1.1">
<g id="surface1">
<path style=" stroke:none;fill-rule:evenodd;fill:rgb(1.960784%,1.960784%,1.960784%);fill-opacity:0.2;" d="M 3.734375 0.949219 L 12.265625 0.949219 C 13.800781 0.949219 15.050781 2.199219 15.050781 3.734375 L 15.050781 12.265625 C 15.050781 13.800781 13.800781 15.050781 12.265625 15.050781 L 3.734375 15.050781 C 2.199219 15.050781 0.949219 13.800781 0.949219 12.265625 L 0.949219 3.734375 C 0.949219 2.199219 2.199219 0.949219 3.734375 0.949219 Z M 3.734375 0.949219 "/>
<path style=" stroke:none;fill-rule:nonzero;fill:rgb(40.392157%,25.882353%,55.294118%);fill-opacity:1;" d="M 8 2.589844 C 7.71875 2.589844 7.433594 2.695312 7.21875 2.90625 L 2.90625 7.222656 C 2.484375 7.644531 2.484375 8.355469 2.90625 8.777344 L 7.222656 13.09375 C 7.644531 13.515625 8.355469 13.515625 8.78125 13.09375 L 13.09375 8.777344 C 13.515625 8.355469 13.515625 7.644531 13.09375 7.222656 L 8.78125 2.90625 C 8.566406 2.695312 8.28125 2.589844 8 2.589844 Z M 8 2.589844 "/>
<path style=" stroke:none;fill-rule:nonzero;fill:rgb(54.509804%,57.647059%,100%);fill-opacity:1;" d="M 8.359375 7.851562 L 8.359375 7.875 C 9.296875 7.996094 9.804688 8.441406 9.804688 9.210938 C 9.804688 9.730469 9.625 10.140625 9.265625 10.441406 C 8.90625 10.738281 8.386719 10.886719 7.707031 10.886719 C 7.078125 10.886719 6.574219 10.785156 6.195312 10.582031 L 6.195312 9.929688 C 6.675781 10.175781 7.171875 10.296875 7.691406 10.296875 C 8.613281 10.296875 9.074219 9.929688 9.074219 9.1875 C 9.074219 8.527344 8.578125 8.199219 7.585938 8.199219 L 7.277344 8.199219 L 7.277344 7.640625 L 7.585938 7.640625 C 8.003906 7.640625 8.21875 7.519531 8.445312 7.328125 C 8.675781 7.132812 8.789062 6.875 8.789062 6.554688 C 8.789062 6.292969 8.703125 6.085938 8.523438 5.9375 C 8.347656 5.78125 8.109375 5.707031 7.8125 5.707031 C 7.351562 5.707031 7.011719 5.859375 6.578125 6.171875 L 6.21875 5.691406 C 6.707031 5.304688 7.164062 5.113281 7.8125 5.113281 C 8.347656 5.113281 8.6875 5.242188 8.988281 5.496094 C 9.292969 5.75 9.441406 6.085938 9.441406 6.507812 C 9.441406 6.859375 9.40625 7.15625 9.195312 7.394531 C 8.980469 7.632812 8.753906 7.785156 8.359375 7.851562 Z M 8.359375 7.851562 "/>
</g>
</svg>
