<?xml version="1.0" encoding="UTF-8"?>
<svg xmlns="http://www.w3.org/2000/svg" xmlns:xlink="http://www.w3.org/1999/xlink" width="16pt" height="16pt" viewBox="0 0 16 16" version="1.1">
<g id="surface1">
<path style=" stroke:none;fill-rule:evenodd;fill:rgb(27.843137%,52.156863%,88.627451%);fill-opacity:1;" d="M 8 8 L 0.609375 8 L 0.609375 12.46875 C 0.609375 14.089844 1.910156 15.390625 3.53125 15.390625 L 8 15.390625 Z M 8 8 "/>
<path style=" stroke:none;fill-rule:evenodd;fill:rgb(46.666667%,88.627451%,27.843137%);fill-opacity:1;" d="M 8 8 L 8 15.390625 L 12.46875 15.390625 C 14.089844 15.390625 15.390625 14.089844 15.390625 12.46875 L 15.390625 8 Z M 8 8 "/>
<path style=" stroke:none;fill-rule:evenodd;fill:rgb(94.901961%,68.235294%,21.568627%);fill-opacity:1;" d="M 3.53125 0.609375 C 1.910156 0.609375 0.609375 1.910156 0.609375 3.53125 L 0.609375 8 L 8 8 L 8 0.609375 Z M 3.53125 0.609375 "/>
<path style=" stroke:none;fill-rule:evenodd;fill:rgb(27.843137%,52.156863%,88.627451%);fill-opacity:1;" d="M 8 0.609375 L 8 8 L 15.390625 8 L 15.390625 3.53125 C 15.390625 1.910156 14.089844 0.609375 12.46875 0.609375 Z M 8 0.609375 "/>
<path style=" stroke:none;fill-rule:nonzero;fill:rgb(24.705882%,24.705882%,24.705882%);fill-opacity:1;" d="M 4.558594 2.058594 L 5.328125 3.703125 L 7.058594 3.96875 L 5.808594 5.25 L 6.101562 7.058594 L 4.558594 6.203125 L 3.011719 7.058594 L 3.308594 5.25 L 2.058594 3.96875 L 3.785156 3.703125 Z M 4.558594 2.058594 "/>
<path style=" stroke:none;fill-rule:nonzero;fill:rgb(24.705882%,24.705882%,24.705882%);fill-opacity:1;" d="M 14.058594 4.558594 C 14.058594 5.9375 12.9375 7.058594 11.558594 7.058594 C 10.175781 7.058594 9.058594 5.9375 9.058594 4.558594 C 9.058594 3.175781 10.175781 2.058594 11.558594 2.058594 C 12.9375 2.058594 14.058594 3.175781 14.058594 4.558594 Z M 14.058594 4.558594 "/>
<path style=" stroke:none;fill-rule:nonzero;fill:rgb(24.705882%,24.705882%,24.705882%);fill-opacity:1;" d="M 9.058594 9.058594 L 14.058594 9.058594 L 14.058594 14.058594 L 9.058594 14.058594 Z M 9.058594 9.058594 "/>
<path style=" stroke:none;fill-rule:nonzero;fill:rgb(24.705882%,24.705882%,24.705882%);fill-opacity:1;" d="M 7.058594 11.558594 C 7.058594 12.9375 5.9375 14.058594 4.558594 14.058594 C 3.175781 14.058594 2.058594 12.9375 2.058594 11.558594 C 2.058594 10.175781 3.175781 9.058594 4.558594 9.058594 C 5.9375 9.058594 7.058594 10.175781 7.058594 11.558594 Z M 7.058594 11.558594 "/>
</g>
</svg>
