<?xml version="1.0" encoding="UTF-8"?>
<svg xmlns="http://www.w3.org/2000/svg" xmlns:xlink="http://www.w3.org/1999/xlink" width="16pt" height="16pt" viewBox="0 0 16 16" version="1.1">
<g id="surface1">
<path style=" stroke:none;fill-rule:evenodd;fill:rgb(0%,51.372549%,76.862745%);fill-opacity:1;" d="M 3.734375 0.949219 L 12.265625 0.949219 C 13.800781 0.949219 15.050781 2.199219 15.050781 3.734375 L 15.050781 12.265625 C 15.050781 13.800781 13.800781 15.050781 12.265625 15.050781 L 3.734375 15.050781 C 2.199219 15.050781 0.949219 13.800781 0.949219 12.265625 L 0.949219 3.734375 C 0.949219 2.199219 2.199219 0.949219 3.734375 0.949219 Z M 3.734375 0.949219 "/>
<path style=" stroke:none;fill-rule:nonzero;fill:rgb(10.980392%,64.313725%,83.137255%);fill-opacity:1;" d="M 13.625 8 C 13.625 4.890625 11.109375 2.375 8 2.375 C 4.890625 2.375 2.375 4.890625 2.375 8 C 2.375 11.109375 4.890625 13.625 8 13.625 C 11.109375 13.625 13.625 11.109375 13.625 8 Z M 13.625 8 "/>
<path style=" stroke:none;fill-rule:nonzero;fill:rgb(100%,100%,100%);fill-opacity:1;" d="M 8 3.980469 C 5.78125 3.980469 3.980469 5.78125 3.980469 8 C 3.980469 10.21875 5.78125 12.019531 8 12.019531 C 10.21875 12.019531 12.019531 10.21875 12.019531 8 C 12.015625 7.53125 11.933594 7.066406 11.773438 6.628906 L 11.78125 6.621094 L 11.761719 6.59375 C 11.171875 5.023438 9.675781 3.984375 8 3.980469 Z M 8 4.382812 C 9.351562 4.382812 10.589844 5.136719 11.210938 6.335938 L 8.703125 8.128906 L 4.421875 8.515625 C 4.398438 8.34375 4.382812 8.171875 4.382812 8 C 4.382812 6 6 4.382812 8 4.382812 Z M 11.433594 6.871094 C 11.554688 7.234375 11.617188 7.617188 11.617188 8 C 11.617188 8.953125 11.238281 9.867188 10.570312 10.542969 L 9.1875 8.472656 Z M 8.664062 8.695312 L 10.140625 10.910156 C 9.519531 11.367188 8.769531 11.617188 8 11.617188 C 6.417969 11.617188 5.019531 10.582031 4.546875 9.070312 Z M 8.664062 8.695312 "/>
<path style=" stroke:none;fill-rule:nonzero;fill:rgb(100%,100%,100%);fill-opacity:1;" d="M 5.1875 8.804688 C 5.1875 9.25 4.828125 9.609375 4.382812 9.609375 C 3.9375 9.609375 3.578125 9.25 3.578125 8.804688 C 3.578125 8.359375 3.9375 8 4.382812 8 C 4.828125 8 5.1875 8.359375 5.1875 8.804688 Z M 5.1875 8.804688 "/>
<path style=" stroke:none;fill-rule:nonzero;fill:rgb(100%,100%,100%);fill-opacity:1;" d="M 11.214844 10.8125 C 11.214844 11.257812 10.855469 11.617188 10.410156 11.617188 C 9.96875 11.617188 9.609375 11.257812 9.609375 10.8125 C 9.609375 10.371094 9.96875 10.011719 10.410156 10.011719 C 10.855469 10.011719 11.214844 10.371094 11.214844 10.8125 Z M 11.214844 10.8125 "/>
<path style=" stroke:none;fill-rule:nonzero;fill:rgb(100%,100%,100%);fill-opacity:1;" d="M 12.421875 6.390625 C 12.421875 6.835938 12.0625 7.195312 11.617188 7.195312 C 11.171875 7.195312 10.8125 6.835938 10.8125 6.390625 C 10.8125 5.949219 11.171875 5.589844 11.617188 5.589844 C 12.0625 5.589844 12.421875 5.949219 12.421875 6.390625 Z M 12.421875 6.390625 "/>
<path style=" stroke:none;fill-rule:nonzero;fill:rgb(100%,100%,100%);fill-opacity:1;" d="M 9.609375 8.402344 C 9.609375 8.84375 9.25 9.207031 8.804688 9.207031 C 8.359375 9.207031 8 8.84375 8 8.402344 C 8 7.957031 8.359375 7.597656 8.804688 7.597656 C 9.25 7.597656 9.609375 7.957031 9.609375 8.402344 Z M 9.609375 8.402344 "/>
</g>
</svg>
