<?xml version="1.0" encoding="UTF-8"?>
<svg xmlns="http://www.w3.org/2000/svg" xmlns:xlink="http://www.w3.org/1999/xlink" width="16pt" height="16pt" viewBox="0 0 16 16" version="1.1">
<g id="surface1">
<path style=" stroke:none;fill-rule:evenodd;fill:rgb(9.803922%,38.431373%,37.647059%);fill-opacity:1;" d="M 3.734375 0.949219 L 12.265625 0.949219 C 13.800781 0.949219 15.050781 2.199219 15.050781 3.734375 L 15.050781 12.265625 C 15.050781 13.800781 13.800781 15.050781 12.265625 15.050781 L 3.734375 15.050781 C 2.199219 15.050781 0.949219 13.800781 0.949219 12.265625 L 0.949219 3.734375 C 0.949219 2.199219 2.199219 0.949219 3.734375 0.949219 Z M 3.734375 0.949219 "/>
<path style=" stroke:none;fill-rule:evenodd;fill:rgb(9.803922%,38.431373%,37.647059%);fill-opacity:1;" d="M 7.96875 0.949219 L 6.988281 2.175781 L 8 3.441406 L 8 8 L 12.558594 8 L 13.824219 6.988281 L 15.050781 7.96875 L 15.050781 3.734375 C 15.050781 2.191406 13.808594 0.949219 12.261719 0.949219 Z M 7.96875 0.949219 "/>
<path style=" stroke:none;fill-rule:evenodd;fill:rgb(36.470588%,49.019608%,74.117647%);fill-opacity:1;" d="M 0.949219 8.03125 L 2.175781 9.011719 L 3.441406 8 L 8 8 L 8 3.441406 L 6.988281 2.175781 L 7.96875 0.949219 L 3.734375 0.949219 C 2.191406 0.949219 0.949219 2.191406 0.949219 3.738281 Z M 0.949219 8.03125 "/>
<path style=" stroke:none;fill-rule:evenodd;fill:rgb(24.705882%,58.823529%,72.54902%);fill-opacity:1;" d="M 15.050781 7.96875 L 13.824219 6.988281 L 12.558594 8 L 8 8 L 8 12.558594 L 9.011719 13.824219 L 8.03125 15.050781 L 12.265625 15.050781 C 13.808594 15.050781 15.050781 13.808594 15.050781 12.261719 Z M 15.050781 7.96875 "/>
<path style=" stroke:none;fill-rule:evenodd;fill:rgb(59.215686%,76.470588%,23.921569%);fill-opacity:1;" d="M 8.03125 15.050781 L 9.011719 13.824219 L 8 12.558594 L 8 8 L 3.441406 8 L 2.175781 9.011719 L 0.949219 8.03125 L 0.949219 12.265625 C 0.949219 13.808594 2.191406 15.050781 3.738281 15.050781 Z M 8.03125 15.050781 "/>
<path style=" stroke:none;fill-rule:nonzero;fill:rgb(97.647059%,97.647059%,97.647059%);fill-opacity:1;" d="M 12.5 8 C 12.5 10.484375 10.484375 12.5 8 12.5 C 5.515625 12.5 3.5 10.484375 3.5 8 C 3.5 5.515625 5.515625 3.5 8 3.5 C 10.484375 3.5 12.5 5.515625 12.5 8 Z M 12.5 8 "/>
</g>
</svg>
