<?xml version="1.0" encoding="UTF-8"?>
<svg xmlns="http://www.w3.org/2000/svg" xmlns:xlink="http://www.w3.org/1999/xlink" width="16pt" height="16pt" viewBox="0 0 16 16" version="1.1">
<g id="surface1">
<path style=" stroke:none;fill-rule:evenodd;fill:rgb(5.098039%,41.176471%,73.72549%);fill-opacity:1;" d="M 3.734375 0.949219 L 12.265625 0.949219 C 13.800781 0.949219 15.050781 2.199219 15.050781 3.734375 L 15.050781 12.265625 C 15.050781 13.800781 13.800781 15.050781 12.265625 15.050781 L 3.734375 15.050781 C 2.199219 15.050781 0.949219 13.800781 0.949219 12.265625 L 0.949219 3.734375 C 0.949219 2.199219 2.199219 0.949219 3.734375 0.949219 Z M 3.734375 0.949219 "/>
<path style=" stroke:none;fill-rule:nonzero;fill:rgb(0.784314%,47.058824%,86.27451%);fill-opacity:1;" d="M 8.015625 2.453125 C 7.976562 2.453125 7.9375 2.46875 7.914062 2.492188 C 7.53125 2.863281 7.140625 3.28125 6.785156 3.675781 C 5.914062 4.679688 5.253906 5.710938 4.773438 6.816406 C 4.328125 7.84375 4.066406 8.734375 3.828125 10.03125 C 3.777344 10.3125 3.726562 10.65625 3.6875 10.9375 C 3.671875 11.074219 3.65625 11.195312 3.648438 11.285156 C 3.644531 11.328125 3.640625 11.367188 3.640625 11.394531 C 3.640625 11.410156 3.640625 11.421875 3.644531 11.4375 C 3.644531 11.445312 3.644531 11.453125 3.648438 11.46875 C 3.652344 11.484375 3.648438 11.511719 3.710938 11.546875 C 3.742188 11.566406 3.75 11.5625 3.757812 11.5625 C 3.765625 11.5625 3.769531 11.566406 3.777344 11.566406 C 3.789062 11.570312 3.804688 11.570312 3.820312 11.574219 C 3.851562 11.578125 3.890625 11.578125 3.933594 11.578125 C 4.265625 11.597656 4.761719 11.675781 5.085938 11.765625 C 5.304688 11.824219 5.453125 11.875 5.664062 11.960938 C 5.714844 11.980469 5.761719 12 5.796875 12.015625 C 5.8125 12.019531 5.828125 12.027344 5.835938 12.03125 C 5.839844 12.03125 5.84375 12.03125 5.847656 12.035156 C 5.847656 12.035156 5.851562 12.035156 5.851562 12.035156 C 5.851562 12.035156 5.855469 12.035156 5.859375 12.039062 C 5.855469 12.039062 5.855469 12.035156 5.855469 12.035156 C 5.855469 12.035156 5.855469 12.039062 5.859375 12.039062 C 5.859375 12.039062 5.859375 12.039062 5.863281 12.039062 C 5.867188 12.039062 5.867188 12.042969 5.871094 12.042969 C 5.871094 12.042969 5.867188 12.042969 5.863281 12.042969 C 5.875 12.046875 5.886719 12.050781 5.902344 12.0625 C 5.9375 12.078125 5.988281 12.105469 6.042969 12.132812 C 6.566406 12.40625 6.960938 12.6875 7.589844 13.246094 C 7.671875 13.320312 7.75 13.386719 7.808594 13.4375 C 7.835938 13.460938 7.859375 13.480469 7.878906 13.496094 C 7.890625 13.503906 7.898438 13.507812 7.90625 13.515625 C 7.910156 13.515625 7.914062 13.519531 7.921875 13.527344 C 7.925781 13.527344 7.929688 13.53125 7.9375 13.535156 C 7.949219 13.539062 7.953125 13.546875 7.992188 13.546875 C 8.039062 13.546875 8.046875 13.539062 8.054688 13.535156 C 8.066406 13.53125 8.070312 13.53125 8.074219 13.527344 C 8.082031 13.523438 8.085938 13.519531 8.089844 13.515625 C 8.101562 13.507812 8.109375 13.503906 8.121094 13.496094 C 8.140625 13.480469 8.167969 13.457031 8.199219 13.429688 C 8.261719 13.375 8.34375 13.304688 8.4375 13.226562 C 8.957031 12.769531 9.207031 12.578125 9.570312 12.355469 C 10.359375 11.871094 11.0625 11.65625 12.144531 11.570312 L 12.234375 11.5625 C 12.304688 11.558594 12.359375 11.503906 12.359375 11.4375 L 12.359375 11.390625 C 12.359375 11.289062 12.332031 11.085938 12.296875 10.828125 C 12.265625 10.578125 12.21875 10.285156 12.179688 10.066406 C 11.941406 8.757812 11.671875 7.839844 11.21875 6.796875 C 10.8125 5.859375 10.230469 4.910156 9.535156 4.050781 C 9.53125 4.050781 9.53125 4.046875 9.53125 4.046875 C 9.0625 3.53125 8.605469 2.996094 8.109375 2.496094 C 8.085938 2.46875 8.050781 2.453125 8.015625 2.453125 Z M 8.015625 2.453125 "/>
<path style=" stroke:none;fill-rule:evenodd;fill:rgb(28.235294%,62.745098%,97.254902%);fill-opacity:1;" d="M 8.015625 2.457031 C 7.976562 2.453125 7.9375 2.46875 7.914062 2.496094 C 7.589844 2.808594 7.261719 3.15625 6.953125 3.496094 L 8.003906 9.566406 L 9.042969 3.503906 C 8.738281 3.164062 8.433594 2.824219 8.109375 2.496094 C 8.085938 2.472656 8.050781 2.457031 8.015625 2.457031 Z M 8.003906 9.566406 L 11.191406 6.757812 C 10.972656 6.265625 10.703125 5.773438 10.398438 5.289062 Z M 8.003906 9.566406 L 11.949219 9 C 11.851562 8.597656 11.742188 8.222656 11.617188 7.859375 Z M 8.003906 9.566406 L 12.222656 11.566406 L 12.234375 11.566406 C 12.304688 11.5625 12.359375 11.503906 12.359375 11.441406 L 12.359375 11.398438 C 12.359375 11.300781 12.332031 11.09375 12.296875 10.84375 C 12.28125 10.714844 12.257812 10.589844 12.238281 10.457031 L 12.160156 10.175781 Z M 8.003906 9.566406 L 9.546875 12.351562 L 9.632812 12.320312 C 9.925781 12.144531 10.210938 12.007812 10.507812 11.898438 Z M 8.003906 9.566406 L 7.347656 13.042969 C 7.429688 13.109375 7.5 13.171875 7.589844 13.25 C 7.671875 13.324219 7.75 13.390625 7.808594 13.4375 C 7.835938 13.460938 7.859375 13.484375 7.878906 13.5 C 7.890625 13.503906 7.898438 13.511719 7.90625 13.515625 C 7.910156 13.519531 7.914062 13.523438 7.921875 13.527344 C 7.921875 13.53125 7.925781 13.53125 7.925781 13.53125 L 8.003906 13.542969 L 8.21875 13.414062 C 8.28125 13.363281 8.355469 13.300781 8.4375 13.230469 C 8.515625 13.15625 8.5625 13.125 8.628906 13.066406 Z M 8.003906 9.566406 L 5.523438 11.910156 C 5.570312 11.925781 5.613281 11.941406 5.664062 11.964844 C 5.714844 11.984375 5.761719 12.003906 5.796875 12.015625 C 5.8125 12.023438 5.824219 12.03125 5.835938 12.03125 C 5.839844 12.035156 5.84375 12.035156 5.847656 12.039062 C 5.847656 12.039062 5.851562 12.039062 5.851562 12.039062 C 5.851562 12.039062 5.855469 12.039062 5.855469 12.042969 C 5.855469 12.039062 5.855469 12.039062 5.855469 12.039062 C 5.855469 12.039062 5.855469 12.039062 5.859375 12.039062 C 5.859375 12.042969 5.859375 12.042969 5.863281 12.042969 C 5.867188 12.042969 5.867188 12.046875 5.871094 12.046875 C 5.871094 12.046875 5.867188 12.046875 5.863281 12.046875 C 5.875 12.050781 5.886719 12.054688 5.902344 12.0625 C 5.9375 12.082031 5.988281 12.109375 6.042969 12.136719 C 6.183594 12.207031 6.3125 12.28125 6.441406 12.363281 Z M 8.003906 9.566406 L 3.820312 10.117188 C 3.769531 10.386719 3.722656 10.691406 3.6875 10.945312 C 3.671875 11.082031 3.65625 11.203125 3.648438 11.296875 C 3.644531 11.339844 3.640625 11.375 3.640625 11.402344 C 3.640625 11.40625 3.640625 11.40625 3.640625 11.40625 C 3.640625 11.417969 3.640625 11.429688 3.644531 11.441406 C 3.644531 11.449219 3.644531 11.457031 3.648438 11.472656 C 3.652344 11.484375 3.648438 11.515625 3.710938 11.546875 C 3.742188 11.566406 3.75 11.5625 3.757812 11.566406 C 3.765625 11.566406 3.769531 11.570312 3.777344 11.570312 C 3.789062 11.574219 3.804688 11.574219 3.820312 11.574219 C 3.851562 11.578125 3.890625 11.582031 3.933594 11.582031 C 3.996094 11.585938 4.066406 11.59375 4.136719 11.601562 Z M 8.003906 9.566406 L 4.382812 7.859375 C 4.265625 8.207031 4.160156 8.566406 4.0625 8.953125 Z M 8.003906 9.566406 L 5.617188 5.265625 C 5.328125 5.71875 5.078125 6.183594 4.859375 6.660156 Z M 8.003906 9.566406 "/>
</g>
</svg>
