<?xml version="1.0" encoding="UTF-8"?>
<svg xmlns="http://www.w3.org/2000/svg" xmlns:xlink="http://www.w3.org/1999/xlink" width="16pt" height="16pt" viewBox="0 0 16 16" version="1.1">
<g id="surface1">
<path style=" stroke:none;fill-rule:evenodd;fill:rgb(55.686275%,55.686275%,55.686275%);fill-opacity:1;" d="M 15.050781 6.238281 L 0.949219 6.238281 L 0.949219 12.261719 C 0.949219 13.808594 2.191406 15.050781 3.734375 15.050781 L 12.265625 15.050781 C 13.808594 15.050781 15.050781 13.808594 15.050781 12.261719 Z M 15.050781 6.238281 "/>
<path style=" stroke:none;fill-rule:evenodd;fill:rgb(100%,80.392157%,32.941176%);fill-opacity:1;" d="M 15.050781 4.5 L 0.949219 4.5 L 0.949219 6.238281 L 15.050781 6.238281 Z M 15.050781 4.5 "/>
<path style=" stroke:none;fill-rule:evenodd;fill:rgb(53.72549%,87.843137%,34.509804%);fill-opacity:1;" d="M 14.859375 2.789062 L 1.140625 2.789062 C 1.03125 3.085938 0.949219 3.398438 0.949219 3.734375 L 0.949219 4.5 L 15.050781 4.5 L 15.050781 3.734375 C 15.050781 3.398438 14.96875 3.085938 14.859375 2.789062 Z M 14.859375 2.789062 "/>
<path style=" stroke:none;fill-rule:evenodd;fill:rgb(34.509804%,58.431373%,86.27451%);fill-opacity:1;" d="M 3.734375 0.949219 C 2.53125 0.949219 1.527344 1.71875 1.140625 2.789062 L 14.859375 2.789062 C 14.472656 1.71875 13.46875 0.949219 12.265625 0.949219 Z M 3.734375 0.949219 "/>
<path style=" stroke:none;fill-rule:nonzero;fill:rgb(92.54902%,92.54902%,92.54902%);fill-opacity:1;" d="M 6 9.359375 L 10 9.359375 C 10.277344 9.359375 10.5 9.582031 10.5 9.859375 L 10.5 10.359375 C 10.5 10.636719 10.277344 10.859375 10 10.859375 L 6 10.859375 C 5.722656 10.859375 5.5 10.636719 5.5 10.359375 L 5.5 9.859375 C 5.5 9.582031 5.722656 9.359375 6 9.359375 Z M 6 9.359375 "/>
</g>
</svg>
