<?xml version="1.0" encoding="UTF-8"?>
<svg xmlns="http://www.w3.org/2000/svg" xmlns:xlink="http://www.w3.org/1999/xlink" width="16pt" height="16pt" viewBox="0 0 16 16" version="1.1">
<g id="surface1">
<path style=" stroke:none;fill-rule:evenodd;fill:rgb(91.764706%,53.333333%,16.862745%);fill-opacity:1;" d="M 3.734375 0.949219 L 12.265625 0.949219 C 13.800781 0.949219 15.050781 2.199219 15.050781 3.734375 L 15.050781 12.265625 C 15.050781 13.800781 13.800781 15.050781 12.265625 15.050781 L 3.734375 15.050781 C 2.199219 15.050781 0.949219 13.800781 0.949219 12.265625 L 0.949219 3.734375 C 0.949219 2.199219 2.199219 0.949219 3.734375 0.949219 Z M 3.734375 0.949219 "/>
<path style=" stroke:none;fill-rule:nonzero;fill:rgb(100%,100%,100%);fill-opacity:1;" d="M 8 3.5 C 6.589844 3.5 5.5 4.648438 5.5 6.070312 L 5.5 7 L 4.945312 7 C 4.699219 7 4.5 7.234375 4.5 7.484375 L 4.5 12.050781 C 4.5 12.296875 4.699219 12.5 4.945312 12.5 L 11.054688 12.5 C 11.300781 12.5 11.5 12.296875 11.5 12.050781 L 11.5 7.484375 C 11.5 7.234375 11.300781 6.984375 11.054688 7 L 10.5 7 L 10.5 6.070312 C 10.5 4.648438 9.410156 3.5 8 3.5 Z M 8 4.5 C 8.882812 4.5 9.5 5.179688 9.5 6.070312 L 9.5 7 L 6.5 7 L 6.5 6.070312 C 6.5 5.179688 7.117188 4.5 8 4.5 Z M 8 4.5 "/>
</g>
</svg>
