<?xml version="1.0" encoding="UTF-8"?>
<svg xmlns="http://www.w3.org/2000/svg" xmlns:xlink="http://www.w3.org/1999/xlink" width="16pt" height="16pt" viewBox="0 0 16 16" version="1.1">
<g id="surface1">
<path style=" stroke:none;fill-rule:evenodd;fill:rgb(21.176471%,73.333333%,58.039216%);fill-opacity:1;" d="M 3.734375 0.949219 L 12.265625 0.949219 C 13.800781 0.949219 15.050781 2.199219 15.050781 3.734375 L 15.050781 12.265625 C 15.050781 13.800781 13.800781 15.050781 12.265625 15.050781 L 3.734375 15.050781 C 2.199219 15.050781 0.949219 13.800781 0.949219 12.265625 L 0.949219 3.734375 C 0.949219 2.199219 2.199219 0.949219 3.734375 0.949219 Z M 3.734375 0.949219 "/>
<path style=" stroke:none;fill-rule:evenodd;fill:rgb(100%,100%,100%);fill-opacity:1;" d="M 6.5 4 C 6.167969 4 6 4.207031 6 4.464844 L 6 10 L 4.5 10 L 6.5 12 L 8.5 10 L 7 10 L 7 4.464844 C 7 4.207031 6.832031 4 6.5 4 Z M 9.5 4 L 7.5 6 L 9 6 L 9 11.535156 C 9 11.792969 9.167969 12 9.5 12 C 9.832031 12 10 11.792969 10 11.535156 L 10 6 L 11.5 6 Z M 9.5 4 "/>
</g>
</svg>
