<?xml version="1.0" encoding="UTF-8"?>
<svg xmlns="http://www.w3.org/2000/svg" xmlns:xlink="http://www.w3.org/1999/xlink" width="16pt" height="16pt" viewBox="0 0 16 16" version="1.1">
<g id="surface1">
<path style=" stroke:none;fill-rule:evenodd;fill:rgb(62.352941%,39.607843%,82.745098%);fill-opacity:1;" d="M 3.734375 0.949219 L 12.265625 0.949219 C 13.800781 0.949219 15.050781 2.199219 15.050781 3.734375 L 15.050781 12.265625 C 15.050781 13.800781 13.800781 15.050781 12.265625 15.050781 L 3.734375 15.050781 C 2.199219 15.050781 0.949219 13.800781 0.949219 12.265625 L 0.949219 3.734375 C 0.949219 2.199219 2.199219 0.949219 3.734375 0.949219 Z M 3.734375 0.949219 "/>
<path style=" stroke:none;fill-rule:nonzero;fill:rgb(100%,100%,100%);fill-opacity:1;" d="M 8 3.5 C 5.515625 3.5 3.5 5.515625 3.5 8 C 3.5 10.484375 5.515625 12.5 8 12.5 C 10.484375 12.5 12.5 10.484375 12.5 8 C 12.5 5.515625 10.484375 3.5 8 3.5 Z M 8 4.5 C 9.933594 4.5 11.5 6.066406 11.5 8 C 11.5 9.933594 9.933594 11.5 8 11.5 C 6.066406 11.5 4.5 9.933594 4.5 8 C 4.5 6.066406 6.066406 4.5 8 4.5 Z M 8 7 C 7.449219 7 7 7.449219 7 8 C 7 8.550781 7.449219 9 8 9 C 8.550781 9 9 8.550781 9 8 C 9 7.449219 8.550781 7 8 7 Z M 8 7 "/>
</g>
</svg>
