<?xml version="1.0" encoding="UTF-8"?>
<svg xmlns="http://www.w3.org/2000/svg" xmlns:xlink="http://www.w3.org/1999/xlink" width="16pt" height="16pt" viewBox="0 0 16 16" version="1.1">
<g id="surface1">
<path style=" stroke:none;fill-rule:evenodd;fill:rgb(83.921569%,36.078431%,18.431373%);fill-opacity:1;" d="M 3.734375 0.949219 L 12.265625 0.949219 C 13.800781 0.949219 15.050781 2.199219 15.050781 3.734375 L 15.050781 12.265625 C 15.050781 13.800781 13.800781 15.050781 12.265625 15.050781 L 3.734375 15.050781 C 2.199219 15.050781 0.949219 13.800781 0.949219 12.265625 L 0.949219 3.734375 C 0.949219 2.199219 2.199219 0.949219 3.734375 0.949219 Z M 3.734375 0.949219 "/>
<path style=" stroke:none;fill-rule:nonzero;fill:rgb(100%,100%,100%);fill-opacity:1;" d="M 8.433594 2.519531 C 6.164062 2.34375 4.019531 3.578125 3.039062 5.636719 L 6.046875 6.441406 C 6.4375 5.949219 7.003906 5.625 7.625 5.53125 Z M 10.363281 3.039062 L 9.558594 6.046875 C 10.050781 6.4375 10.375 7.003906 10.46875 7.625 L 13.480469 8.433594 C 13.65625 6.164062 12.421875 4.015625 10.363281 3.039062 Z M 2.519531 7.566406 C 2.34375 9.835938 3.578125 11.980469 5.636719 12.960938 L 6.441406 9.953125 C 5.949219 9.5625 5.625 8.996094 5.53125 8.375 Z M 9.953125 9.558594 C 9.5625 10.050781 8.996094 10.375 8.375 10.46875 L 7.566406 13.480469 C 9.835938 13.65625 11.980469 12.421875 12.960938 10.363281 Z M 9.953125 9.558594 "/>
</g>
</svg>
