<?xml version="1.0" encoding="UTF-8"?>
<svg xmlns="http://www.w3.org/2000/svg" xmlns:xlink="http://www.w3.org/1999/xlink" width="16pt" height="16pt" viewBox="0 0 16 16" version="1.1">
<g id="surface1">
<path style=" stroke:none;fill-rule:evenodd;fill:rgb(49.019608%,7.058824%,16.862745%);fill-opacity:1;" d="M 3.734375 0.949219 L 12.265625 0.949219 C 13.800781 0.949219 15.050781 2.199219 15.050781 3.734375 L 15.050781 12.265625 C 15.050781 13.800781 13.800781 15.050781 12.265625 15.050781 L 3.734375 15.050781 C 2.199219 15.050781 0.949219 13.800781 0.949219 12.265625 L 0.949219 3.734375 C 0.949219 2.199219 2.199219 0.949219 3.734375 0.949219 Z M 3.734375 0.949219 "/>
<path style=" stroke:none;fill-rule:nonzero;fill:rgb(72.941176%,7.058824%,16.862745%);fill-opacity:1;" d="M 8.359375 5.296875 C 6.171875 5.296875 4.398438 7.074219 4.398438 9.261719 C 4.398438 11.449219 6.171875 13.222656 8.359375 13.222656 C 10.546875 13.222656 12.324219 11.449219 12.324219 9.261719 C 12.324219 7.074219 10.546875 5.296875 8.359375 5.296875 Z M 8.359375 5.296875 "/>
<path style=" stroke:none;fill-rule:nonzero;fill:rgb(91.372549%,19.215686%,30.588235%);fill-opacity:1;" d="M 8.359375 2.777344 C 6.570312 2.777344 5.117188 4.226562 5.117188 6.019531 C 5.117188 7.808594 6.570312 9.261719 8.359375 9.261719 C 10.152344 9.261719 11.601562 7.808594 11.601562 6.019531 C 11.601562 4.226562 10.152344 2.777344 8.359375 2.777344 Z M 8.359375 2.777344 "/>
<path style=" stroke:none;fill-rule:nonzero;fill:rgb(93.72549%,43.137255%,50.980392%);fill-opacity:1;" d="M 6.199219 4.578125 C 4.804688 4.578125 3.675781 5.707031 3.675781 7.097656 C 3.675781 8.492188 4.804688 9.621094 6.199219 9.621094 C 7.59375 9.621094 8.71875 8.492188 8.71875 7.097656 C 8.71875 5.707031 7.59375 4.578125 6.199219 4.578125 Z M 6.199219 4.578125 "/>
<path style=" stroke:none;fill-rule:nonzero;fill:rgb(100%,100%,100%);fill-opacity:1;" d="M 8.359375 6.019531 C 6.570312 6.019531 5.117188 7.46875 5.117188 9.261719 C 5.117188 11.050781 6.570312 12.503906 8.359375 12.503906 C 10.152344 12.503906 11.601562 11.050781 11.601562 9.261719 C 11.601562 7.46875 10.152344 6.019531 8.359375 6.019531 Z M 8.359375 6.738281 C 9.753906 6.738281 10.882812 7.867188 10.882812 9.261719 C 10.882812 10.652344 9.753906 11.78125 8.359375 11.78125 C 6.96875 11.78125 5.839844 10.652344 5.839844 9.261719 C 5.839844 7.867188 6.96875 6.738281 8.359375 6.738281 Z M 8.359375 6.738281 "/>
<path style=" stroke:none;fill-rule:nonzero;fill:rgb(100%,100%,100%);fill-opacity:1;" d="M 6.199219 5.296875 C 5.203125 5.296875 4.398438 6.105469 4.398438 7.097656 C 4.398438 8.09375 5.203125 8.902344 6.199219 8.902344 C 7.191406 8.902344 8 8.09375 8 7.097656 C 8 6.105469 7.191406 5.296875 6.199219 5.296875 Z M 6.199219 6.019531 C 6.796875 6.019531 7.28125 6.5 7.28125 7.097656 C 7.28125 7.695312 6.796875 8.179688 6.199219 8.179688 C 5.601562 8.179688 5.117188 7.695312 5.117188 7.097656 C 5.117188 6.5 5.601562 6.019531 6.199219 6.019531 Z M 6.199219 6.019531 "/>
<path style=" stroke:none;fill-rule:nonzero;fill:rgb(100%,100%,100%);fill-opacity:1;" d="M 8.359375 3.496094 C 6.96875 3.496094 5.839844 4.625 5.839844 6.019531 C 5.839844 7.410156 6.96875 8.539062 8.359375 8.539062 C 9.753906 8.539062 10.882812 7.410156 10.882812 6.019531 C 10.882812 4.625 9.753906 3.496094 8.359375 3.496094 Z M 8.359375 4.21875 C 9.355469 4.21875 10.160156 5.023438 10.160156 6.019531 C 10.160156 7.015625 9.355469 7.820312 8.359375 7.820312 C 7.363281 7.820312 6.558594 7.015625 6.558594 6.019531 C 6.558594 5.023438 7.363281 4.21875 8.359375 4.21875 Z M 8.359375 4.21875 "/>
</g>
</svg>
