<?xml version="1.0" encoding="UTF-8"?>
<svg xmlns="http://www.w3.org/2000/svg" xmlns:xlink="http://www.w3.org/1999/xlink" width="16pt" height="16pt" viewBox="0 0 16 16" version="1.1">
<g id="surface1">
<path style=" stroke:none;fill-rule:evenodd;fill:rgb(55.686275%,55.686275%,55.686275%);fill-opacity:1;" d="M 3.734375 0.949219 L 12.265625 0.949219 C 13.800781 0.949219 15.050781 2.199219 15.050781 3.734375 L 15.050781 12.265625 C 15.050781 13.800781 13.800781 15.050781 12.265625 15.050781 L 3.734375 15.050781 C 2.199219 15.050781 0.949219 13.800781 0.949219 12.265625 L 0.949219 3.734375 C 0.949219 2.199219 2.199219 0.949219 3.734375 0.949219 Z M 3.734375 0.949219 "/>
<path style=" stroke:none;fill-rule:nonzero;fill:rgb(25.882353%,81.176471%,34.117647%);fill-opacity:1;" d="M 10.445312 12.402344 L 10.445312 10.933594 C 10.445312 10.664062 10.226562 10.445312 9.953125 10.445312 L 3.597656 10.445312 C 3.328125 10.445312 3.109375 10.664062 3.109375 10.933594 L 3.109375 12.402344 C 3.109375 12.671875 3.328125 12.890625 3.597656 12.890625 L 9.953125 12.890625 C 10.226562 12.890625 10.445312 12.671875 10.445312 12.402344 Z M 10.445312 12.402344 "/>
<path style=" stroke:none;fill-rule:nonzero;fill:rgb(18.039216%,62.745098%,89.019608%);fill-opacity:1;" d="M 12.890625 9.953125 L 12.890625 8.488281 C 12.890625 8.21875 12.671875 8 12.402344 8 L 6.046875 8 C 5.773438 8 5.554688 8.21875 5.554688 8.488281 L 5.554688 9.953125 C 5.554688 10.226562 5.773438 10.445312 6.046875 10.445312 L 12.402344 10.445312 C 12.671875 10.445312 12.890625 10.226562 12.890625 9.953125 Z M 12.890625 9.953125 "/>
<path style=" stroke:none;fill-rule:nonzero;fill:rgb(90.196078%,34.901961%,34.117647%);fill-opacity:1;" d="M 10.445312 7.511719 L 10.445312 6.046875 C 10.445312 5.773438 10.226562 5.554688 9.953125 5.554688 L 3.597656 5.554688 C 3.328125 5.554688 3.109375 5.773438 3.109375 6.046875 L 3.109375 7.511719 C 3.109375 7.78125 3.328125 8 3.597656 8 L 9.953125 8 C 10.226562 8 10.445312 7.78125 10.445312 7.511719 Z M 10.445312 7.511719 "/>
<path style=" stroke:none;fill-rule:nonzero;fill:rgb(100%,90.588235%,40%);fill-opacity:1;" d="M 12.890625 5.066406 L 12.890625 3.597656 C 12.890625 3.328125 12.671875 3.109375 12.402344 3.109375 L 6.046875 3.109375 C 5.773438 3.109375 5.554688 3.328125 5.554688 3.597656 L 5.554688 5.066406 C 5.554688 5.335938 5.773438 5.554688 6.046875 5.554688 L 12.402344 5.554688 C 12.671875 5.554688 12.890625 5.335938 12.890625 5.066406 Z M 12.890625 5.066406 "/>
</g>
</svg>
