<?xml version="1.0" encoding="UTF-8"?>
<svg xmlns="http://www.w3.org/2000/svg" xmlns:xlink="http://www.w3.org/1999/xlink" width="16pt" height="16pt" viewBox="0 0 16 16" version="1.1">
<g id="surface1">
<path style=" stroke:none;fill-rule:evenodd;fill:rgb(55.686275%,55.686275%,55.686275%);fill-opacity:1;" d="M 3.734375 0.949219 L 12.265625 0.949219 C 13.800781 0.949219 15.050781 2.199219 15.050781 3.734375 L 15.050781 12.265625 C 15.050781 13.800781 13.800781 15.050781 12.265625 15.050781 L 3.734375 15.050781 C 2.199219 15.050781 0.949219 13.800781 0.949219 12.265625 L 0.949219 3.734375 C 0.949219 2.199219 2.199219 0.949219 3.734375 0.949219 Z M 3.734375 0.949219 "/>
<path style=" stroke:none;fill-rule:nonzero;fill:rgb(80%,80%,80%);fill-opacity:1;" d="M 9.09375 10.660156 C 9.09375 10.65625 9.089844 10.625 9.089844 10.59375 C 9.089844 10.5 9.078125 10.445312 9.011719 10.292969 C 8.988281 10.242188 8.953125 10.15625 8.933594 10.097656 C 8.878906 9.957031 8.773438 9.71875 8.75 9.679688 C 8.734375 9.664062 8.71875 9.628906 8.707031 9.605469 C 8.699219 9.582031 8.683594 9.550781 8.675781 9.535156 C 8.625 9.4375 8.488281 9.078125 8.417969 8.875 C 8.398438 8.8125 8.359375 8.714844 8.335938 8.65625 C 8.3125 8.601562 8.273438 8.5 8.253906 8.433594 C 8.230469 8.367188 8.1875 8.25 8.15625 8.171875 C 8.082031 7.996094 7.980469 7.683594 7.960938 7.585938 C 7.953125 7.546875 7.945312 7.5 7.941406 7.480469 C 7.9375 7.464844 7.933594 7.421875 7.933594 7.390625 C 7.933594 7.332031 7.953125 7.203125 7.960938 7.1875 C 7.96875 7.171875 7.984375 7.179688 8.015625 7.222656 C 8.101562 7.34375 8.160156 7.367188 8.453125 7.382812 C 8.613281 7.394531 8.703125 7.40625 8.75 7.429688 C 8.828125 7.46875 8.894531 7.5625 8.972656 7.765625 C 9.109375 8.097656 9.152344 8.210938 9.226562 8.433594 C 9.257812 8.523438 9.28125 8.574219 9.289062 8.578125 C 9.316406 8.582031 9.476562 8.335938 9.550781 8.167969 C 9.644531 7.953125 9.804688 7.53125 9.839844 7.40625 C 9.867188 7.3125 9.953125 7.175781 10.101562 7.011719 C 10.144531 6.960938 10.199219 6.910156 10.214844 6.894531 C 10.289062 6.839844 10.480469 6.8125 10.609375 6.84375 C 10.636719 6.847656 10.722656 6.855469 10.796875 6.859375 C 10.898438 6.863281 10.9375 6.867188 10.945312 6.875 C 10.957031 6.886719 10.9375 6.953125 10.902344 7.03125 C 10.890625 7.0625 10.867188 7.113281 10.859375 7.148438 C 10.847656 7.179688 10.839844 7.210938 10.835938 7.214844 C 10.832031 7.21875 10.816406 7.253906 10.804688 7.296875 C 10.789062 7.339844 10.777344 7.375 10.773438 7.378906 C 10.75 7.40625 10.609375 7.839844 10.5625 8.019531 C 10.542969 8.085938 10.519531 8.175781 10.507812 8.21875 C 10.5 8.261719 10.476562 8.347656 10.457031 8.40625 C 10.441406 8.46875 10.421875 8.53125 10.421875 8.546875 C 10.417969 8.5625 10.40625 8.59375 10.394531 8.613281 C 10.332031 8.730469 10.21875 8.988281 10.089844 9.3125 C 9.953125 9.660156 9.921875 9.71875 9.863281 9.828125 C 9.808594 9.925781 9.625 10.210938 9.601562 10.238281 C 9.59375 10.246094 9.578125 10.265625 9.5625 10.285156 C 9.523438 10.347656 9.429688 10.460938 9.375 10.515625 C 9.3125 10.578125 9.273438 10.605469 9.1875 10.640625 C 9.128906 10.664062 9.105469 10.671875 9.09375 10.660156 Z M 7.945312 10.304688 C 7.9375 10.300781 7.925781 10.277344 7.917969 10.253906 C 7.90625 10.230469 7.886719 10.1875 7.871094 10.160156 C 7.855469 10.132812 7.839844 10.109375 7.839844 10.105469 C 7.839844 10.101562 7.828125 10.082031 7.8125 10.058594 C 7.800781 10.039062 7.773438 9.984375 7.753906 9.9375 C 7.660156 9.714844 7.59375 9.5625 7.558594 9.488281 L 7.515625 9.40625 L 7.320312 9.402344 C 7.210938 9.398438 7.101562 9.402344 7.074219 9.40625 C 7 9.410156 6.992188 9.421875 6.953125 9.558594 C 6.9375 9.621094 6.917969 9.691406 6.914062 9.710938 C 6.890625 9.792969 6.8125 9.996094 6.792969 10.03125 C 6.765625 10.078125 6.703125 10.144531 6.65625 10.171875 C 6.605469 10.203125 6.523438 10.222656 6.464844 10.222656 C 6.4375 10.222656 6.363281 10.210938 6.300781 10.199219 C 6.230469 10.183594 6.15625 10.175781 6.121094 10.175781 C 6.058594 10.175781 6.058594 10.175781 6.011719 10.140625 C 5.960938 10.101562 5.953125 10.089844 5.976562 10.070312 C 6.003906 10.046875 6.046875 9.914062 6.070312 9.773438 C 6.078125 9.726562 6.09375 9.65625 6.101562 9.613281 C 6.121094 9.527344 6.125 9.484375 6.109375 9.472656 C 6.101562 9.46875 6.074219 9.460938 6.042969 9.457031 C 6.011719 9.453125 5.980469 9.445312 5.976562 9.441406 C 5.96875 9.4375 5.976562 9.421875 5.996094 9.398438 C 6.015625 9.375 6.019531 9.359375 6.019531 9.335938 C 6.019531 9.308594 6.015625 9.296875 5.984375 9.269531 L 5.945312 9.238281 L 5.980469 9.1875 C 5.996094 9.15625 6.015625 9.125 6.023438 9.113281 C 6.070312 9.03125 6.144531 8.933594 6.167969 8.917969 C 6.1875 8.902344 6.199219 8.902344 6.234375 8.90625 C 6.253906 8.910156 6.28125 8.914062 6.292969 8.914062 C 6.320312 8.914062 6.3125 8.933594 6.390625 8.703125 C 6.40625 8.644531 6.4375 8.558594 6.453125 8.511719 C 6.472656 8.464844 6.5 8.382812 6.515625 8.332031 C 6.53125 8.28125 6.5625 8.175781 6.589844 8.09375 C 6.613281 8.015625 6.640625 7.921875 6.652344 7.890625 C 6.660156 7.859375 6.683594 7.796875 6.699219 7.75 C 6.71875 7.707031 6.757812 7.621094 6.785156 7.554688 C 6.835938 7.433594 6.964844 7.167969 7.019531 7.078125 C 7.050781 7.019531 7.125 6.933594 7.140625 6.933594 C 7.144531 6.933594 7.152344 6.941406 7.15625 6.949219 C 7.171875 6.972656 7.199219 6.96875 7.300781 6.921875 C 7.394531 6.878906 7.503906 6.851562 7.503906 6.867188 C 7.503906 6.871094 7.484375 6.894531 7.464844 6.917969 C 7.40625 6.984375 7.355469 7.0625 7.34375 7.109375 C 7.335938 7.132812 7.328125 7.1875 7.328125 7.230469 L 7.320312 7.308594 L 7.363281 7.425781 C 7.40625 7.558594 7.460938 7.675781 7.574219 7.898438 C 7.664062 8.070312 7.820312 8.390625 7.847656 8.453125 C 7.882812 8.535156 7.980469 8.722656 8.015625 8.789062 C 8.039062 8.824219 8.0625 8.867188 8.074219 8.890625 C 8.097656 8.933594 8.179688 9.015625 8.226562 9.039062 C 8.285156 9.066406 8.300781 9.085938 8.3125 9.125 C 8.332031 9.195312 8.328125 9.210938 8.28125 9.265625 C 8.257812 9.296875 8.238281 9.324219 8.238281 9.332031 C 8.238281 9.34375 8.261719 9.394531 8.289062 9.453125 C 8.429688 9.730469 8.550781 9.976562 8.550781 9.980469 C 8.550781 9.980469 8.515625 9.984375 8.476562 9.988281 C 8.351562 9.996094 8.3125 10.019531 8.125 10.207031 C 8.035156 10.296875 8.023438 10.304688 7.992188 10.308594 C 7.96875 10.3125 7.953125 10.3125 7.945312 10.304688 Z M 7.3125 8.917969 C 7.316406 8.90625 7.285156 8.828125 7.242188 8.742188 C 7.203125 8.671875 7.199219 8.664062 7.183594 8.664062 C 7.164062 8.664062 7.164062 8.667969 7.132812 8.777344 C 7.105469 8.871094 7.097656 8.910156 7.109375 8.921875 C 7.117188 8.929688 7.308594 8.925781 7.3125 8.917969 Z M 11.0625 10.25 C 11.027344 10.242188 10.917969 10.1875 10.878906 10.15625 C 10.828125 10.113281 10.796875 10.101562 10.75 10.097656 C 10.6875 10.09375 10.671875 10.097656 10.628906 10.136719 C 10.589844 10.171875 10.585938 10.171875 10.558594 10.160156 C 10.53125 10.148438 10.527344 10.128906 10.539062 10.039062 C 10.554688 9.875 10.601562 9.742188 10.671875 9.652344 C 10.691406 9.625 10.714844 9.585938 10.722656 9.5625 C 10.765625 9.449219 10.828125 9.132812 10.867188 8.839844 C 10.878906 8.734375 10.898438 8.601562 10.910156 8.539062 C 10.957031 8.242188 10.976562 7.980469 10.949219 7.890625 C 10.9375 7.851562 10.902344 7.808594 10.84375 7.765625 C 10.804688 7.734375 10.804688 7.71875 10.847656 7.671875 C 10.902344 7.613281 10.953125 7.523438 11.050781 7.292969 C 11.054688 7.28125 11.070312 7.234375 11.085938 7.191406 C 11.121094 7.078125 11.15625 6.980469 11.171875 6.976562 C 11.171875 6.976562 11.210938 6.988281 11.25 7.007812 C 11.375 7.070312 11.410156 7.078125 11.671875 7.078125 C 11.90625 7.078125 12.152344 7.058594 12.253906 7.035156 C 12.320312 7.019531 12.605469 7.019531 12.6875 7.039062 C 12.773438 7.058594 12.96875 7.117188 13.023438 7.144531 C 13.070312 7.167969 13.195312 7.28125 13.25 7.351562 C 13.292969 7.40625 13.332031 7.480469 13.328125 7.484375 C 13.328125 7.484375 13.300781 7.472656 13.269531 7.453125 C 13.21875 7.425781 13.214844 7.421875 13.175781 7.425781 C 13.125 7.433594 13.113281 7.4375 13.035156 7.554688 C 12.953125 7.671875 12.847656 7.8125 12.816406 7.847656 C 12.792969 7.875 12.789062 7.875 12.757812 7.871094 C 12.738281 7.867188 12.6875 7.855469 12.640625 7.839844 C 12.53125 7.808594 12.46875 7.804688 12.332031 7.828125 C 12.148438 7.855469 12.046875 7.867188 11.957031 7.867188 C 11.839844 7.867188 11.84375 7.859375 11.8125 8.050781 C 11.796875 8.136719 11.777344 8.234375 11.773438 8.277344 C 11.765625 8.34375 11.765625 8.351562 11.777344 8.363281 C 11.789062 8.375 11.804688 8.375 12.179688 8.394531 C 12.3125 8.402344 12.355469 8.40625 12.421875 8.421875 C 12.460938 8.4375 12.5 8.449219 12.503906 8.453125 C 12.515625 8.457031 12.527344 8.515625 12.535156 8.601562 C 12.546875 8.683594 12.632812 8.804688 12.691406 8.820312 C 12.726562 8.832031 12.722656 8.851562 12.6875 8.867188 C 12.539062 8.921875 12.546875 8.921875 12.367188 8.925781 C 12.222656 8.929688 12 8.953125 11.792969 8.980469 C 11.765625 8.984375 11.734375 8.988281 11.726562 8.988281 C 11.71875 8.988281 11.703125 9 11.6875 9.011719 C 11.667969 9.027344 11.660156 9.046875 11.644531 9.105469 C 11.621094 9.207031 11.605469 9.328125 11.621094 9.34375 C 11.628906 9.351562 11.675781 9.355469 11.796875 9.359375 C 12.140625 9.375 12.339844 9.386719 12.507812 9.394531 C 12.605469 9.402344 12.765625 9.40625 12.863281 9.40625 C 13.03125 9.40625 13.039062 9.410156 13.054688 9.421875 C 13.066406 9.441406 13.066406 9.441406 13.042969 9.460938 C 12.984375 9.5 12.902344 9.59375 12.882812 9.636719 C 12.855469 9.6875 12.835938 9.753906 12.816406 9.84375 C 12.789062 9.988281 12.761719 10.0625 12.71875 10.101562 C 12.65625 10.152344 12.515625 10.199219 12.414062 10.199219 C 12.378906 10.199219 12.304688 10.203125 12.246094 10.207031 C 12.039062 10.222656 11.839844 10.230469 11.519531 10.238281 C 11.339844 10.242188 11.167969 10.25 11.136719 10.25 C 11.105469 10.25 11.074219 10.25 11.0625 10.25 Z M 4.066406 10.199219 C 3.890625 10.171875 3.847656 10.160156 3.703125 10.113281 C 3.542969 10.058594 3.382812 9.988281 3.367188 9.960938 C 3.359375 9.949219 3.351562 9.9375 3.34375 9.9375 C 3.339844 9.9375 3.328125 9.925781 3.320312 9.914062 C 3.308594 9.90625 3.28125 9.878906 3.257812 9.863281 C 3.234375 9.847656 3.171875 9.789062 3.117188 9.738281 C 2.960938 9.582031 2.902344 9.5 2.835938 9.34375 C 2.785156 9.222656 2.769531 9.167969 2.75 9.023438 C 2.746094 8.964844 2.734375 8.875 2.726562 8.828125 C 2.710938 8.707031 2.703125 8.621094 2.6875 8.375 C 2.667969 8 2.667969 7.84375 2.679688 7.746094 C 2.6875 7.703125 2.703125 7.601562 2.714844 7.527344 C 2.722656 7.449219 2.738281 7.355469 2.746094 7.3125 C 2.75 7.269531 2.765625 7.191406 2.773438 7.132812 C 2.796875 6.953125 2.828125 6.824219 2.867188 6.734375 C 2.886719 6.6875 2.917969 6.617188 2.9375 6.574219 C 2.976562 6.476562 3.082031 6.214844 3.191406 6.058594 C 3.257812 5.964844 3.339844 5.878906 3.425781 5.804688 C 3.546875 5.699219 3.726562 5.582031 3.820312 5.535156 C 3.910156 5.488281 4.082031 5.421875 4.222656 5.386719 C 4.371094 5.351562 4.550781 5.332031 4.671875 5.335938 C 4.929688 5.34375 4.957031 5.34375 5.09375 5.371094 C 5.191406 5.390625 5.292969 5.417969 5.378906 5.46875 C 5.519531 5.546875 5.644531 5.652344 5.75 5.769531 C 5.824219 5.855469 5.988281 6.097656 6.035156 6.195312 C 6.054688 6.234375 6.078125 6.289062 6.085938 6.320312 C 6.097656 6.351562 6.113281 6.394531 6.125 6.421875 C 6.132812 6.445312 6.152344 6.519531 6.167969 6.585938 C 6.1875 6.699219 6.191406 6.714844 6.1875 6.8125 C 6.179688 6.941406 6.167969 7.019531 6.132812 7.101562 C 6.109375 7.15625 6.097656 7.171875 6.039062 7.234375 C 5.964844 7.308594 5.886719 7.363281 5.78125 7.425781 C 5.6875 7.476562 5.410156 7.613281 5.398438 7.613281 C 5.390625 7.613281 5.382812 7.617188 5.378906 7.621094 C 5.375 7.628906 5.289062 7.65625 5.242188 7.664062 C 5.210938 7.667969 5.203125 7.667969 5.179688 7.644531 C 5.160156 7.625 5.15625 7.617188 5.160156 7.59375 C 5.167969 7.558594 5.175781 7.554688 5.222656 7.554688 C 5.261719 7.558594 5.265625 7.558594 5.292969 7.523438 C 5.34375 7.457031 5.347656 7.453125 5.34375 7.375 C 5.34375 7.265625 5.324219 7.113281 5.304688 7.066406 C 5.28125 7.011719 5.214844 6.875 5.179688 6.8125 C 5.136719 6.746094 5.109375 6.714844 4.996094 6.625 C 4.945312 6.585938 4.898438 6.546875 4.894531 6.542969 C 4.890625 6.535156 4.859375 6.515625 4.828125 6.5 C 4.726562 6.441406 4.625 6.4375 4.53125 6.484375 C 4.449219 6.53125 4.257812 6.738281 4.171875 6.890625 C 4.046875 7.09375 3.976562 7.3125 3.953125 7.554688 C 3.949219 7.601562 3.945312 7.75 3.945312 7.886719 C 3.945312 8.203125 3.953125 8.25 4.035156 8.394531 C 4.054688 8.429688 4.070312 8.460938 4.070312 8.464844 C 4.070312 8.46875 4.078125 8.480469 4.085938 8.492188 C 4.09375 8.5 4.125 8.546875 4.152344 8.589844 C 4.183594 8.636719 4.226562 8.691406 4.265625 8.730469 C 4.300781 8.761719 4.332031 8.789062 4.332031 8.789062 C 4.335938 8.789062 4.359375 8.8125 4.390625 8.835938 C 4.453125 8.890625 4.523438 8.929688 4.636719 8.964844 C 4.769531 9.003906 4.832031 9.011719 5.070312 9.015625 C 5.257812 9.015625 5.296875 9.015625 5.347656 9 C 5.382812 8.992188 5.429688 8.984375 5.453125 8.980469 C 5.5 8.972656 5.53125 8.964844 5.5625 8.960938 C 5.574219 8.957031 5.59375 8.953125 5.601562 8.953125 C 5.613281 8.953125 5.628906 8.953125 5.636719 8.949219 C 5.640625 8.945312 5.671875 8.9375 5.703125 8.9375 C 5.738281 8.9375 5.78125 8.929688 5.808594 8.929688 C 5.847656 8.921875 5.882812 8.933594 5.882812 8.949219 C 5.882812 8.953125 5.871094 8.972656 5.855469 9 C 5.796875 9.097656 5.679688 9.328125 5.660156 9.382812 C 5.640625 9.4375 5.640625 9.53125 5.664062 9.570312 C 5.6875 9.609375 5.6875 9.621094 5.652344 9.65625 C 5.640625 9.675781 5.625 9.695312 5.625 9.699219 C 5.625 9.703125 5.621094 9.710938 5.617188 9.714844 C 5.609375 9.71875 5.601562 9.726562 5.59375 9.738281 C 5.566406 9.796875 5.347656 10.042969 5.300781 10.070312 C 5.230469 10.113281 4.988281 10.167969 4.714844 10.203125 C 4.648438 10.210938 4.53125 10.214844 4.410156 10.21875 C 4.230469 10.21875 4.203125 10.21875 4.066406 10.199219 Z M 9.402344 7.046875 C 9.398438 7.046875 9.132812 7.015625 8.9375 6.996094 C 8.734375 6.976562 8.609375 6.945312 8.582031 6.914062 C 8.566406 6.894531 8.582031 6.816406 8.667969 6.5 C 8.679688 6.449219 8.699219 6.359375 8.707031 6.296875 C 8.71875 6.234375 8.730469 6.15625 8.738281 6.113281 C 8.75 6.0625 8.753906 6.03125 8.753906 5.984375 C 8.75 5.9375 8.75 5.929688 8.761719 5.929688 C 8.765625 5.929688 8.8125 5.9375 8.863281 5.945312 C 8.914062 5.953125 9.011719 5.964844 9.078125 5.972656 C 9.148438 5.980469 9.226562 5.988281 9.253906 5.992188 C 9.28125 5.996094 9.386719 6.003906 9.484375 6.007812 C 9.582031 6.011719 9.667969 6.019531 9.671875 6.019531 C 9.675781 6.023438 9.699219 6.0625 9.71875 6.113281 C 9.761719 6.191406 9.765625 6.203125 9.75 6.214844 C 9.71875 6.246094 9.425781 6.234375 9.195312 6.195312 C 9.050781 6.167969 9.058594 6.167969 9.046875 6.242188 C 9.023438 6.347656 9.035156 6.359375 9.140625 6.371094 C 9.257812 6.386719 9.328125 6.398438 9.328125 6.40625 C 9.328125 6.410156 9.328125 6.4375 9.328125 6.460938 C 9.324219 6.5 9.328125 6.507812 9.347656 6.53125 C 9.363281 6.546875 9.371094 6.5625 9.367188 6.570312 C 9.363281 6.578125 9.324219 6.578125 9.21875 6.574219 C 9.046875 6.5625 9.011719 6.566406 9 6.578125 C 8.984375 6.59375 8.972656 6.714844 8.984375 6.726562 C 9.003906 6.746094 9.210938 6.78125 9.351562 6.792969 C 9.425781 6.796875 9.527344 6.804688 9.578125 6.8125 C 9.625 6.816406 9.679688 6.824219 9.699219 6.824219 C 9.738281 6.824219 9.746094 6.832031 9.726562 6.859375 C 9.71875 6.867188 9.707031 6.878906 9.707031 6.882812 C 9.707031 6.886719 9.699219 6.90625 9.6875 6.921875 C 9.660156 6.964844 9.65625 6.984375 9.675781 7.015625 C 9.6875 7.03125 9.691406 7.042969 9.6875 7.046875 C 9.683594 7.050781 9.40625 7.054688 9.402344 7.046875 Z M 8.265625 6.84375 C 8.21875 6.808594 8.191406 6.808594 8.117188 6.832031 C 8.039062 6.855469 8.039062 6.855469 8.039062 6.699219 C 8.039062 6.625 8.046875 6.53125 8.054688 6.472656 L 8.066406 6.371094 L 8.042969 6.34375 C 8.003906 6.296875 7.960938 6.269531 7.902344 6.253906 C 7.839844 6.234375 7.828125 6.234375 7.816406 6.25 C 7.8125 6.253906 7.804688 6.300781 7.796875 6.355469 C 7.769531 6.574219 7.765625 6.578125 7.652344 6.617188 C 7.609375 6.628906 7.566406 6.648438 7.554688 6.652344 C 7.457031 6.695312 7.402344 6.710938 7.402344 6.699219 C 7.402344 6.695312 7.417969 6.660156 7.441406 6.621094 C 7.484375 6.535156 7.488281 6.519531 7.507812 6.347656 C 7.519531 6.207031 7.515625 6.164062 7.488281 6.140625 C 7.464844 6.117188 7.394531 6.085938 7.367188 6.085938 C 7.347656 6.085938 7.339844 6.082031 7.339844 6.078125 C 7.339844 6.0625 7.457031 5.984375 7.523438 5.949219 C 7.570312 5.925781 7.566406 5.941406 7.609375 5.710938 C 7.640625 5.53125 7.640625 5.53125 7.652344 5.53125 C 7.65625 5.53125 7.6875 5.5625 7.71875 5.59375 C 7.753906 5.625 7.808594 5.664062 7.839844 5.683594 C 7.867188 5.703125 7.898438 5.71875 7.902344 5.726562 C 7.90625 5.734375 7.90625 5.757812 7.898438 5.804688 C 7.890625 5.839844 7.882812 5.886719 7.882812 5.90625 L 7.875 5.945312 L 7.9375 5.984375 C 7.96875 6.003906 8.019531 6.035156 8.046875 6.054688 C 8.078125 6.070312 8.105469 6.085938 8.109375 6.085938 C 8.132812 6.085938 8.160156 5.996094 8.160156 5.917969 C 8.160156 5.84375 8.164062 5.84375 8.265625 5.886719 C 8.335938 5.914062 8.359375 5.921875 8.402344 5.921875 C 8.425781 5.921875 8.449219 5.921875 8.453125 5.925781 C 8.453125 5.929688 8.449219 5.988281 8.441406 6.054688 C 8.433594 6.125 8.421875 6.246094 8.417969 6.332031 C 8.40625 6.53125 8.40625 6.550781 8.382812 6.621094 C 8.351562 6.707031 8.339844 6.761719 8.335938 6.808594 C 8.328125 6.878906 8.324219 6.882812 8.265625 6.84375 Z M 6.8125 6.761719 C 6.800781 6.757812 6.789062 6.75 6.78125 6.746094 C 6.769531 6.738281 6.75 6.734375 6.726562 6.734375 C 6.691406 6.734375 6.6875 6.734375 6.695312 6.71875 C 6.707031 6.652344 6.734375 6.492188 6.738281 6.449219 C 6.742188 6.421875 6.75 6.3125 6.757812 6.203125 C 6.761719 6.09375 6.769531 5.96875 6.773438 5.925781 C 6.78125 5.832031 6.769531 5.785156 6.742188 5.769531 C 6.730469 5.761719 6.671875 5.757812 6.503906 5.761719 C 6.269531 5.765625 6.257812 5.761719 6.277344 5.726562 C 6.28125 5.71875 6.28125 5.691406 6.28125 5.660156 C 6.277344 5.621094 6.273438 5.605469 6.25 5.566406 C 6.234375 5.546875 6.203125 5.511719 6.1875 5.5 C 6.171875 5.484375 6.15625 5.46875 6.15625 5.460938 C 6.15625 5.445312 6.417969 5.453125 6.546875 5.46875 C 6.664062 5.484375 6.695312 5.484375 6.867188 5.472656 C 6.941406 5.464844 7.019531 5.445312 7.03125 5.429688 C 7.03125 5.425781 7.042969 5.421875 7.046875 5.421875 C 7.0625 5.421875 7.0625 5.429688 7.070312 5.464844 C 7.074219 5.488281 7.078125 5.515625 7.082031 5.519531 C 7.097656 5.539062 7.1875 5.546875 7.351562 5.546875 C 7.511719 5.546875 7.515625 5.550781 7.496094 5.597656 C 7.488281 5.613281 7.46875 5.648438 7.445312 5.675781 C 7.382812 5.75 7.355469 5.765625 7.214844 5.773438 C 7.152344 5.777344 7.097656 5.78125 7.09375 5.785156 C 7.089844 5.789062 7.070312 6.039062 7.0625 6.203125 C 7.058594 6.257812 7.0625 6.34375 7.070312 6.441406 C 7.078125 6.5625 7.082031 6.609375 7.074219 6.640625 C 7.0625 6.695312 7.042969 6.734375 7.007812 6.746094 C 6.980469 6.757812 6.835938 6.769531 6.8125 6.761719 Z M 6.8125 6.761719 "/>
</g>
</svg>
