<?xml version="1.0" encoding="UTF-8"?>
<svg xmlns="http://www.w3.org/2000/svg" xmlns:xlink="http://www.w3.org/1999/xlink" width="16pt" height="16pt" viewBox="0 0 16 16" version="1.1">
<g id="surface1">
<path style=" stroke:none;fill-rule:evenodd;fill:rgb(38.039216%,41.960784%,86.666667%);fill-opacity:1;" d="M 3.734375 0.949219 L 12.265625 0.949219 C 13.800781 0.949219 15.050781 2.199219 15.050781 3.734375 L 15.050781 12.265625 C 15.050781 13.800781 13.800781 15.050781 12.265625 15.050781 L 3.734375 15.050781 C 2.199219 15.050781 0.949219 13.800781 0.949219 12.265625 L 0.949219 3.734375 C 0.949219 2.199219 2.199219 0.949219 3.734375 0.949219 Z M 3.734375 0.949219 "/>
<path style=" stroke:none;fill-rule:nonzero;fill:rgb(0%,0%,0%);fill-opacity:0.501961;" d="M 6.5 10 L 9.5 10 L 9.5 13 L 6.5 13 Z M 6.5 6.5 L 9.5 6.5 L 9.5 9.5 L 6.5 9.5 Z M 6.5 3 L 9.5 3 L 9.5 6 L 6.5 6 Z M 3 3 L 6 3 L 6 6 L 3 6 Z M 10 3 L 13 3 L 13 6 L 10 6 Z M 10 3 "/>
</g>
</svg>
