<?xml version="1.0" encoding="UTF-8"?>
<svg xmlns="http://www.w3.org/2000/svg" xmlns:xlink="http://www.w3.org/1999/xlink" width="16pt" height="16pt" viewBox="0 0 16 16" version="1.1">
<g id="surface1">
<path style=" stroke:none;fill-rule:evenodd;fill:rgb(20%,30.196078%,36.078431%);fill-opacity:1;" d="M 15.050781 7.71875 L 0.949219 7.71875 L 0.949219 12.234375 C 0.949219 13.777344 2.191406 15.019531 3.734375 15.019531 L 12.265625 15.019531 C 13.808594 15.019531 15.050781 13.777344 15.050781 12.234375 Z M 15.050781 7.71875 "/>
<path style=" stroke:none;fill-rule:evenodd;fill:rgb(81.568627%,49.411765%,20.392157%);fill-opacity:1;" d="M 15.050781 5.09375 L 0.949219 5.09375 L 0.949219 7.71875 L 15.050781 7.71875 Z M 15.050781 5.09375 "/>
<path style=" stroke:none;fill-rule:evenodd;fill:rgb(50.196078%,50.196078%,50.196078%);fill-opacity:1;" d="M 3.734375 0.917969 C 2.191406 0.917969 0.949219 2.160156 0.949219 3.703125 L 0.949219 5.09375 L 15.050781 5.09375 L 15.050781 3.703125 C 15.050781 2.160156 13.808594 0.917969 12.265625 0.917969 Z M 3.734375 0.917969 "/>
<path style=" stroke:none;fill-rule:evenodd;fill:rgb(91.764706%,67.843137%,26.27451%);fill-opacity:1;" d="M 15.050781 7.328125 L 0.949219 7.328125 L 0.949219 12.296875 C 0.949219 13.839844 2.191406 15.082031 3.734375 15.082031 L 12.261719 15.082031 C 13.808594 15.082031 15.050781 13.839844 15.050781 12.296875 Z M 15.050781 7.328125 "/>
<path style=" stroke:none;fill-rule:evenodd;fill:rgb(79.607843%,49.803922%,17.254902%);fill-opacity:1;" d="M 4.53125 9 C 4.53125 9.285156 4.300781 9.515625 4.015625 9.515625 C 3.734375 9.515625 3.503906 9.285156 3.503906 9 C 3.503906 8.71875 3.734375 8.488281 4.015625 8.488281 C 4.300781 8.488281 4.53125 8.71875 4.53125 9 Z M 4.53125 9 "/>
<path style=" stroke:none;fill-rule:evenodd;fill:rgb(79.607843%,49.803922%,17.254902%);fill-opacity:1;" d="M 12.738281 9.011719 C 12.738281 9.292969 12.511719 9.523438 12.226562 9.523438 C 11.945312 9.523438 11.714844 9.292969 11.714844 9.011719 C 11.714844 8.726562 11.945312 8.5 12.226562 8.5 C 12.511719 8.5 12.738281 8.726562 12.738281 9.011719 Z M 12.738281 9.011719 "/>
<path style="fill:none;stroke-width:1.290687;stroke-linecap:round;stroke-linejoin:miter;stroke:rgb(100%,100%,100%);stroke-opacity:1;stroke-miterlimit:4;" d="M -37.337791 20.28893 C -36.572166 32.077992 -21.611229 30.960805 -21.033104 20.28893 " transform="matrix(0.5,0,0,0.5,22.711864,-0.949152)"/>
<path style=" stroke:none;fill-rule:evenodd;fill:rgb(0%,69.803922%,0%);fill-opacity:1;" d="M 13.882812 11.125 C 13.882812 12.507812 12.761719 13.625 11.382812 13.625 C 10 13.625 8.882812 12.507812 8.882812 11.125 C 8.882812 9.746094 10 8.625 11.382812 8.625 C 12.761719 8.625 13.882812 9.746094 13.882812 11.125 Z M 13.882812 11.125 "/>
<path style=" stroke:none;fill-rule:nonzero;fill:rgb(100%,100%,100%);fill-opacity:1;" d="M 10.257812 11.261719 C 10.296875 11.277344 10.335938 11.304688 10.371094 11.347656 C 10.410156 11.390625 10.445312 11.453125 10.484375 11.527344 L 10.671875 11.898438 L 10.472656 11.898438 L 10.300781 11.550781 C 10.253906 11.460938 10.210938 11.398438 10.167969 11.371094 C 10.125 11.339844 10.070312 11.324219 10 11.324219 L 9.796875 11.324219 L 9.796875 11.898438 L 9.613281 11.898438 L 9.613281 10.542969 L 10.027344 10.542969 C 10.183594 10.542969 10.296875 10.574219 10.375 10.640625 C 10.453125 10.703125 10.488281 10.800781 10.488281 10.933594 C 10.488281 11.015625 10.46875 11.089844 10.429688 11.144531 C 10.390625 11.203125 10.332031 11.242188 10.257812 11.261719 Z M 9.796875 10.691406 L 9.796875 11.171875 L 10.027344 11.171875 C 10.117188 11.171875 10.183594 11.15625 10.230469 11.113281 C 10.273438 11.074219 10.296875 11.011719 10.296875 10.933594 C 10.296875 10.851562 10.273438 10.792969 10.230469 10.753906 C 10.183594 10.714844 10.117188 10.691406 10.027344 10.691406 Z M 9.796875 10.691406 "/>
<path style=" stroke:none;fill-rule:nonzero;fill:rgb(100%,100%,100%);fill-opacity:1;" d="M 11.09375 10.691406 L 11.09375 11.203125 L 11.324219 11.203125 C 11.40625 11.203125 11.472656 11.179688 11.519531 11.136719 C 11.566406 11.09375 11.589844 11.03125 11.589844 10.945312 C 11.589844 10.867188 11.566406 10.804688 11.519531 10.757812 C 11.472656 10.714844 11.40625 10.691406 11.324219 10.691406 Z M 10.90625 10.542969 L 11.324219 10.542969 C 11.472656 10.542969 11.589844 10.578125 11.667969 10.644531 C 11.746094 10.714844 11.785156 10.8125 11.785156 10.945312 C 11.785156 11.082031 11.746094 11.183594 11.667969 11.25 C 11.589844 11.320312 11.472656 11.351562 11.324219 11.351562 L 11.09375 11.351562 L 11.09375 11.898438 L 10.90625 11.898438 Z M 10.90625 10.542969 "/>
<path style=" stroke:none;fill-rule:nonzero;fill:rgb(100%,100%,100%);fill-opacity:1;" d="M 12.03125 10.542969 L 12.304688 10.542969 L 12.652344 11.464844 L 13 10.542969 L 13.273438 10.542969 L 13.273438 11.898438 L 13.09375 11.898438 L 13.09375 10.707031 L 12.742188 11.636719 L 12.558594 11.636719 L 12.207031 10.707031 L 12.207031 11.898438 L 12.03125 11.898438 Z M 12.03125 10.542969 "/>
</g>
</svg>
