<?xml version="1.0" encoding="UTF-8"?>
<svg xmlns="http://www.w3.org/2000/svg" xmlns:xlink="http://www.w3.org/1999/xlink" width="16pt" height="16pt" viewBox="0 0 16 16" version="1.1">
<g id="surface1">
<path style=" stroke:none;fill-rule:evenodd;fill:rgb(47.843137%,31.372549%,61.960784%);fill-opacity:1;" d="M 3.734375 0.949219 L 12.265625 0.949219 C 13.800781 0.949219 15.050781 2.199219 15.050781 3.734375 L 15.050781 12.265625 C 15.050781 13.800781 13.800781 15.050781 12.265625 15.050781 L 3.734375 15.050781 C 2.199219 15.050781 0.949219 13.800781 0.949219 12.265625 L 0.949219 3.734375 C 0.949219 2.199219 2.199219 0.949219 3.734375 0.949219 Z M 3.734375 0.949219 "/>
<path style=" stroke:none;fill-rule:nonzero;fill:rgb(98.039216%,90.980392%,63.529412%);fill-opacity:1;" d="M 3 8 C 3 10.761719 5.238281 13 8 13 C 10.761719 13 13 10.761719 13 8 C 13 5.238281 10.761719 3 8 3 C 5.238281 3 3 5.238281 3 8 Z M 3 8 "/>
<path style=" stroke:none;fill-rule:nonzero;fill:rgb(78.431373%,72.941176%,50.980392%);fill-opacity:1;" d="M 8.472656 3.027344 C 9.101562 3.085938 9.71875 3.265625 10.28125 3.550781 C 10.257812 3.632812 10.285156 3.722656 10.378906 3.800781 C 10.441406 3.855469 10.492188 3.9375 10.492188 3.988281 C 10.492188 4.140625 10.355469 4.367188 10.25 4.402344 C 10.105469 4.445312 10.152344 4.601562 10.335938 4.6875 C 10.421875 4.722656 10.527344 4.835938 10.570312 4.9375 C 10.613281 5.035156 10.675781 5.132812 10.710938 5.152344 C 10.746094 5.171875 10.773438 5.25 10.773438 5.324219 C 10.773438 5.429688 10.726562 5.480469 10.570312 5.542969 C 10.460938 5.585938 10.328125 5.617188 10.273438 5.613281 C 9.976562 5.585938 9.957031 5.757812 10.21875 6.097656 C 10.355469 6.277344 10.421875 6.324219 10.515625 6.300781 C 10.601562 6.28125 10.652344 6.304688 10.691406 6.390625 C 10.734375 6.484375 10.800781 6.515625 10.988281 6.527344 C 11.171875 6.539062 11.25 6.578125 11.320312 6.675781 C 11.371094 6.75 11.441406 6.808594 11.480469 6.808594 C 11.515625 6.808594 11.609375 6.859375 11.679688 6.917969 C 11.828125 7.039062 11.882812 7.050781 11.933594 6.96875 C 12 6.867188 12.148438 6.917969 12.363281 7.125 C 12.558594 7.3125 12.582031 7.359375 12.550781 7.519531 C 12.5 7.804688 12.34375 8.058594 12.171875 8.144531 C 12.015625 8.222656 12.015625 8.230469 12.105469 8.328125 C 12.160156 8.386719 12.25 8.445312 12.3125 8.464844 C 12.480469 8.515625 12.382812 8.578125 12.082031 8.617188 C 11.773438 8.65625 11.675781 8.769531 11.820312 8.921875 C 11.902344 9.007812 11.898438 9.023438 11.769531 9.105469 C 11.515625 9.261719 11.316406 9.167969 11.550781 9 C 11.703125 8.894531 11.597656 8.847656 11.375 8.925781 C 11.195312 8.988281 11.160156 8.984375 11.054688 8.894531 C 10.839844 8.707031 10.605469 8.984375 10.800781 9.191406 C 10.929688 9.328125 10.890625 9.484375 10.726562 9.507812 C 10.65625 9.519531 10.503906 9.585938 10.394531 9.65625 C 10.28125 9.730469 10.164062 9.789062 10.125 9.789062 C 10.089844 9.789062 9.984375 9.863281 9.898438 9.953125 C 9.714844 10.132812 9.613281 10.15625 9.5625 10.027344 C 9.5 9.875 9.527344 9.796875 9.691406 9.613281 C 9.824219 9.46875 10.039062 9.089844 10.039062 8.996094 C 10.039062 8.9375 9.820312 8.988281 9.699219 9.070312 C 9.625 9.125 9.5 9.191406 9.421875 9.21875 C 9.34375 9.253906 9.261719 9.355469 9.222656 9.464844 C 9.164062 9.640625 9.140625 9.65625 8.933594 9.65625 L 8.707031 9.65625 L 8.671875 10.0625 C 8.632812 10.546875 8.59375 10.648438 8.425781 10.6875 C 8.300781 10.71875 8.171875 10.910156 8.171875 11.058594 C 8.171875 11.097656 8.261719 11.195312 8.367188 11.273438 C 8.503906 11.375 8.5625 11.457031 8.550781 11.539062 C 8.539062 11.640625 8.5625 11.65625 8.707031 11.644531 C 8.800781 11.640625 8.964844 11.671875 9.066406 11.71875 C 9.191406 11.773438 9.324219 11.792969 9.449219 11.769531 C 9.59375 11.742188 9.640625 11.753906 9.640625 11.8125 C 9.640625 11.851562 9.691406 11.929688 9.753906 11.984375 C 9.90625 12.113281 9.84375 12.183594 9.609375 12.140625 C 9.464844 12.117188 9.40625 12.125 9.382812 12.1875 C 9.328125 12.324219 9.464844 12.511719 9.589844 12.480469 C 9.671875 12.460938 9.707031 12.488281 9.734375 12.582031 C 9.742188 12.617188 9.757812 12.644531 9.777344 12.667969 C 9.519531 12.765625 9.253906 12.84375 8.984375 12.902344 C 9.011719 12.855469 9.039062 12.8125 9.066406 12.792969 C 9.195312 12.699219 9.109375 12.464844 8.929688 12.421875 C 8.75 12.375 8.78125 12.261719 8.976562 12.238281 C 9.148438 12.21875 9.332031 12.042969 9.273438 11.953125 C 9.234375 11.894531 9.070312 11.902344 8.734375 11.984375 C 8.585938 12.015625 8.484375 11.945312 8.136719 11.5625 C 7.933594 11.34375 7.777344 11.25 7.609375 11.25 C 7.542969 11.25 7.3125 11.191406 7.09375 11.121094 C 6.679688 10.980469 6.519531 10.984375 6.53125 11.136719 C 6.566406 11.449219 6.363281 11.4375 6.035156 11.109375 C 5.898438 10.972656 5.773438 10.875 5.757812 10.890625 C 5.691406 10.953125 5.808594 11.246094 5.9375 11.363281 C 6.105469 11.515625 6.113281 11.609375 5.96875 11.683594 C 5.886719 11.726562 5.851562 11.808594 5.839844 12 L 5.824219 12.253906 L 5.613281 12.253906 C 5.539062 12.253906 5.480469 12.265625 5.429688 12.28125 C 3.972656 11.40625 3.0625 9.855469 3.007812 8.15625 C 3.085938 7.992188 3.078125 7.894531 3.007812 7.78125 C 3.011719 7.6875 3.019531 7.59375 3.03125 7.503906 C 3.078125 7.5 3.121094 7.5 3.175781 7.5 C 3.425781 7.511719 3.644531 7.410156 3.644531 7.285156 C 3.644531 7.257812 3.734375 7.148438 3.84375 7.042969 C 3.96875 6.917969 4.03125 6.8125 4.011719 6.753906 C 3.996094 6.703125 4.03125 6.621094 4.09375 6.566406 C 4.15625 6.511719 4.210938 6.421875 4.210938 6.371094 C 4.210938 6.289062 4.261719 6.277344 4.648438 6.285156 L 5.085938 6.296875 L 5.078125 6.730469 C 5.066406 7.484375 4.953125 7.683594 4.605469 7.554688 C 4.445312 7.5 4.054688 7.542969 3.945312 7.628906 C 3.902344 7.660156 3.84375 7.777344 3.8125 7.890625 C 3.78125 8 3.667969 8.1875 3.558594 8.3125 C 3.339844 8.558594 3.320312 8.65625 3.449219 8.945312 C 3.558594 9.199219 3.679688 9.171875 3.65625 8.894531 L 3.636719 8.691406 L 3.824219 8.726562 C 3.929688 8.746094 4.058594 8.820312 4.117188 8.898438 C 4.199219 9.003906 4.238281 9.019531 4.300781 8.972656 C 4.34375 8.9375 4.378906 8.863281 4.378906 8.8125 C 4.378906 8.757812 4.433594 8.695312 4.5 8.675781 C 4.5625 8.65625 4.652344 8.558594 4.695312 8.457031 C 4.765625 8.296875 4.765625 8.25 4.683594 8.050781 C 4.597656 7.855469 4.597656 7.820312 4.675781 7.75 C 4.746094 7.679688 4.78125 7.679688 4.875 7.734375 C 4.964844 7.789062 5.011719 7.785156 5.121094 7.710938 C 5.191406 7.660156 5.320312 7.621094 5.40625 7.621094 C 5.574219 7.621094 5.625 7.539062 5.625 7.265625 C 5.625 7.015625 5.773438 6.925781 6.128906 6.957031 C 6.375 6.980469 6.429688 6.964844 6.628906 6.8125 C 6.753906 6.71875 6.949219 6.488281 7.0625 6.304688 C 7.179688 6.121094 7.300781 5.925781 7.339844 5.875 C 7.390625 5.800781 7.375 5.734375 7.277344 5.53125 L 7.148438 5.28125 L 7.417969 5.316406 C 7.902344 5.378906 8 5.441406 7.792969 5.554688 C 7.710938 5.597656 7.707031 5.621094 7.769531 5.691406 C 7.8125 5.738281 7.828125 5.8125 7.8125 5.859375 C 7.792969 5.902344 7.816406 6.007812 7.859375 6.089844 C 7.90625 6.171875 7.945312 6.289062 7.945312 6.347656 C 7.953125 6.535156 8.269531 6.683594 8.625 6.664062 C 9.164062 6.632812 9.207031 6.640625 9.398438 6.820312 C 9.636719 7.042969 9.667969 7.144531 9.558594 7.351562 C 9.449219 7.550781 9.257812 7.628906 8.925781 7.613281 C 8.628906 7.597656 8.597656 7.625 8.664062 7.820312 C 8.722656 7.988281 8.914062 8.050781 9.046875 7.949219 C 9.148438 7.867188 9.496094 7.929688 9.601562 8.046875 C 9.648438 8.09375 9.714844 8.226562 9.75 8.332031 C 9.8125 8.519531 9.832031 8.53125 10.109375 8.558594 C 10.390625 8.585938 10.417969 8.578125 10.617188 8.390625 C 10.84375 8.183594 10.878906 8.027344 10.773438 7.753906 C 10.726562 7.632812 10.6875 7.613281 10.5625 7.636719 C 10.308594 7.683594 10.207031 7.59375 10.207031 7.324219 C 10.207031 7.195312 10.234375 7.070312 10.265625 7.050781 C 10.296875 7.035156 10.320312 6.964844 10.320312 6.898438 C 10.320312 6.832031 10.351562 6.746094 10.390625 6.707031 C 10.449219 6.652344 10.441406 6.625 10.351562 6.558594 C 10.289062 6.515625 10.1875 6.484375 10.125 6.492188 C 10.0625 6.5 9.890625 6.472656 9.742188 6.433594 C 9.527344 6.375 9.464844 6.332031 9.433594 6.21875 C 9.378906 6.003906 9.246094 5.832031 9.132812 5.832031 C 8.953125 5.832031 8.953125 5.414062 9.125 4.808594 C 9.148438 4.71875 9.21875 4.660156 9.34375 4.628906 C 9.445312 4.605469 9.554688 4.535156 9.585938 4.476562 C 9.621094 4.417969 9.679688 4.371094 9.71875 4.371094 C 9.761719 4.371094 9.839844 4.320312 9.898438 4.261719 C 9.953125 4.203125 10.070312 4.15625 10.160156 4.15625 C 10.371094 4.15625 10.375 4.007812 10.164062 3.933594 C 9.945312 3.851562 9.597656 3.957031 9.515625 4.132812 C 9.40625 4.371094 9.277344 4.269531 9.238281 3.910156 C 9.1875 3.46875 9.035156 3.339844 8.554688 3.339844 L 8.207031 3.339844 L 8.359375 3.1875 C 8.40625 3.140625 8.445312 3.082031 8.472656 3.027344 Z M 6.675781 3.183594 C 6.683594 3.191406 6.695312 3.199219 6.703125 3.210938 C 6.820312 3.328125 6.875 3.34375 7.054688 3.316406 C 7.367188 3.269531 7.328125 3.394531 6.980469 3.546875 C 6.792969 3.628906 6.671875 3.722656 6.628906 3.820312 C 6.433594 4.277344 6.296875 4.523438 6.230469 4.546875 C 6.089844 4.597656 6.007812 4.5 5.976562 4.238281 C 5.941406 3.9375 5.84375 3.875 5.660156 4.039062 C 5.589844 4.101562 5.492188 4.15625 5.441406 4.15625 C 5.285156 4.15625 5.171875 4.214844 5.171875 4.300781 C 5.171875 4.34375 5.121094 4.453125 5.054688 4.539062 C 4.960938 4.664062 4.894531 4.695312 4.71875 4.695312 C 4.5 4.695312 4.367188 4.734375 4.09375 4.886719 C 4.09375 4.890625 4.089844 4.890625 4.082031 4.890625 C 4.746094 4.0625 5.652344 3.464844 6.675781 3.183594 Z M 13 7.980469 C 13 7.984375 13 7.992188 13 8 C 13 8.324219 12.964844 8.644531 12.902344 8.960938 C 12.71875 9.035156 12.671875 9.003906 12.652344 8.835938 C 12.640625 8.75 12.597656 8.652344 12.550781 8.617188 C 12.480469 8.5625 12.492188 8.535156 12.640625 8.4375 C 12.734375 8.371094 12.828125 8.257812 12.84375 8.1875 C 12.863281 8.113281 12.925781 8.035156 13 7.980469 Z M 11.425781 9.632812 C 11.472656 9.625 11.527344 9.652344 11.589844 9.710938 C 11.722656 9.839844 11.703125 10.09375 11.554688 10.191406 C 11.382812 10.308594 11.316406 10.273438 11.292969 10.0625 C 11.265625 9.800781 11.324219 9.640625 11.425781 9.632812 Z M 10.578125 10.386719 C 10.628906 10.390625 10.683594 10.425781 10.738281 10.5 C 10.800781 10.582031 10.816406 10.6875 10.792969 10.847656 C 10.765625 11.046875 10.777344 11.085938 10.878906 11.140625 C 11.011719 11.207031 11.039062 11.40625 10.933594 11.511719 C 10.824219 11.613281 10.722656 11.589844 10.6875 11.449219 C 10.632812 11.246094 10.339844 11.222656 10.136719 11.402344 C 10.050781 11.480469 9.984375 11.519531 9.984375 11.488281 C 9.984375 11.460938 10.070312 11.351562 10.179688 11.25 C 10.347656 11.097656 10.378906 11.03125 10.378906 10.832031 C 10.378906 10.550781 10.464844 10.382812 10.578125 10.386719 Z M 11.96875 11.03125 C 11.933594 11.082031 11.894531 11.128906 11.855469 11.179688 C 11.890625 11.125 11.925781 11.078125 11.96875 11.03125 Z M 10.285156 11.800781 C 10.3125 11.808594 10.320312 11.839844 10.320312 11.894531 C 10.320312 11.953125 10.359375 12.011719 10.402344 12.027344 C 10.460938 12.050781 10.472656 12.117188 10.453125 12.28125 C 10.445312 12.308594 10.445312 12.332031 10.445312 12.359375 C 10.375 12.394531 10.304688 12.433594 10.234375 12.464844 C 10.238281 12.378906 10.222656 12.277344 10.179688 12.148438 C 10.101562 11.933594 10.097656 11.878906 10.160156 11.84375 C 10.21875 11.804688 10.261719 11.792969 10.285156 11.800781 Z M 10.285156 11.800781 "/>
</g>
</svg>
