<?xml version="1.0" encoding="UTF-8"?>
<svg xmlns="http://www.w3.org/2000/svg" xmlns:xlink="http://www.w3.org/1999/xlink" width="16pt" height="16pt" viewBox="0 0 16 16" version="1.1">
<g id="surface1">
<path style=" stroke:none;fill-rule:evenodd;fill:rgb(90.588235%,29.803922%,23.529412%);fill-opacity:1;" d="M 3.734375 0.949219 L 12.265625 0.949219 C 13.800781 0.949219 15.050781 2.199219 15.050781 3.734375 L 15.050781 12.265625 C 15.050781 13.800781 13.800781 15.050781 12.265625 15.050781 L 3.734375 15.050781 C 2.199219 15.050781 0.949219 13.800781 0.949219 12.265625 L 0.949219 3.734375 C 0.949219 2.199219 2.199219 0.949219 3.734375 0.949219 Z M 3.734375 0.949219 "/>
<path style=" stroke:none;fill-rule:nonzero;fill:rgb(100%,100%,100%);fill-opacity:1;" d="M 8 3 C 10.761719 3 13 5.238281 13 8 C 13 9.34375 12.457031 10.628906 11.5 11.570312 L 11.5 5.707031 C 11.5 5.316406 11.144531 5 10.699219 5 L 10.300781 5 C 9.855469 5 9.5 5.316406 9.5 5.707031 L 9.5 7.269531 L 7.675781 6.25 L 5.53125 5.046875 C 5.480469 5.015625 5.421875 5 5.363281 5 C 5.265625 5 5.175781 5.03125 5.109375 5.097656 C 5.039062 5.164062 5 5.25 5 5.34375 L 5 10.15625 C 5 10.277344 5.066406 10.390625 5.175781 10.453125 C 5.289062 10.515625 5.421875 10.515625 5.53125 10.453125 L 7.675781 9.25 L 9.5 8.230469 L 9.5 12.765625 C 9.015625 12.917969 8.507812 13 8 13 C 5.238281 13 3 10.761719 3 8 C 3 5.238281 5.238281 3 8 3 Z M 8 3 "/>
</g>
</svg>
