<?xml version="1.0" encoding="UTF-8"?>
<svg xmlns="http://www.w3.org/2000/svg" xmlns:xlink="http://www.w3.org/1999/xlink" width="16pt" height="16pt" viewBox="0 0 16 16" version="1.1">
<g id="surface1">
<path style=" stroke:none;fill-rule:evenodd;fill:rgb(49.019608%,27.45098%,59.607843%);fill-opacity:1;" d="M 3.734375 0.949219 L 12.265625 0.949219 C 13.800781 0.949219 15.050781 2.199219 15.050781 3.734375 L 15.050781 12.265625 C 15.050781 13.800781 13.800781 15.050781 12.265625 15.050781 L 3.734375 15.050781 C 2.199219 15.050781 0.949219 13.800781 0.949219 12.265625 L 0.949219 3.734375 C 0.949219 2.199219 2.199219 0.949219 3.734375 0.949219 Z M 3.734375 0.949219 "/>
<path style=" stroke:none;fill-rule:nonzero;fill:rgb(100%,88.627451%,67.45098%);fill-opacity:1;" d="M 8 2.492188 C 4.957031 2.492188 2.492188 4.957031 2.492188 8 C 2.492188 11.042969 4.957031 13.507812 8 13.507812 Z M 11.101562 3.449219 C 11.140625 3.472656 11.175781 3.503906 11.214844 3.535156 C 11.175781 3.503906 11.140625 3.476562 11.101562 3.449219 Z M 11.53125 3.773438 C 11.578125 3.8125 11.628906 3.863281 11.679688 3.90625 C 11.628906 3.859375 11.578125 3.816406 11.53125 3.773438 Z M 11.921875 4.136719 C 11.972656 4.1875 12.019531 4.242188 12.066406 4.292969 C 12.019531 4.242188 11.972656 4.1875 11.921875 4.136719 Z M 12.285156 4.546875 C 12.332031 4.597656 12.371094 4.65625 12.414062 4.714844 C 12.375 4.65625 12.328125 4.601562 12.285156 4.546875 Z M 12.601562 4.976562 C 12.644531 5.039062 12.679688 5.105469 12.71875 5.167969 C 12.679688 5.105469 12.640625 5.039062 12.601562 4.976562 Z M 12.882812 5.453125 C 12.910156 5.511719 12.9375 5.574219 12.96875 5.632812 C 12.941406 5.574219 12.910156 5.511719 12.882812 5.453125 Z M 13.109375 5.949219 C 13.132812 6.007812 13.15625 6.070312 13.175781 6.132812 C 13.15625 6.070312 13.132812 6.011719 13.109375 5.949219 Z M 13.289062 6.46875 C 13.308594 6.53125 13.324219 6.597656 13.339844 6.664062 C 13.324219 6.597656 13.304688 6.53125 13.289062 6.46875 Z M 13.425781 7.046875 C 13.425781 7.058594 13.429688 7.066406 13.429688 7.078125 C 13.429688 7.066406 13.425781 7.058594 13.425781 7.046875 Z M 13.492188 7.582031 C 13.492188 7.601562 13.496094 7.621094 13.496094 7.640625 C 13.496094 7.621094 13.492188 7.601562 13.492188 7.582031 Z M 12.550781 11.101562 C 12.527344 11.140625 12.496094 11.175781 12.464844 11.214844 C 12.496094 11.175781 12.523438 11.140625 12.550781 11.101562 Z M 12.226562 11.53125 C 12.1875 11.578125 12.136719 11.628906 12.09375 11.679688 C 12.140625 11.628906 12.183594 11.578125 12.226562 11.53125 Z M 11.863281 11.921875 C 11.8125 11.972656 11.757812 12.019531 11.707031 12.066406 C 11.757812 12.019531 11.8125 11.972656 11.863281 11.921875 Z M 11.453125 12.285156 C 11.402344 12.332031 11.34375 12.371094 11.285156 12.414062 C 11.34375 12.375 11.398438 12.328125 11.453125 12.285156 Z M 11.023438 12.601562 C 10.960938 12.644531 10.894531 12.679688 10.832031 12.71875 C 10.894531 12.679688 10.960938 12.640625 11.023438 12.601562 Z M 10.546875 12.882812 C 10.488281 12.910156 10.425781 12.9375 10.367188 12.96875 C 10.425781 12.941406 10.488281 12.910156 10.546875 12.882812 Z M 10.050781 13.109375 C 9.992188 13.132812 9.929688 13.15625 9.867188 13.175781 C 9.929688 13.15625 9.988281 13.132812 10.050781 13.109375 Z M 9.53125 13.289062 C 9.46875 13.308594 9.402344 13.324219 9.335938 13.339844 C 9.402344 13.324219 9.46875 13.304688 9.53125 13.289062 Z M 8.953125 13.425781 C 8.941406 13.425781 8.933594 13.429688 8.921875 13.429688 C 8.933594 13.429688 8.941406 13.425781 8.953125 13.425781 Z M 8.417969 13.492188 C 8.398438 13.492188 8.378906 13.496094 8.359375 13.496094 C 8.378906 13.496094 8.398438 13.492188 8.417969 13.492188 Z M 8.417969 13.492188 "/>
<path style=" stroke:none;fill-rule:nonzero;fill:rgb(80%,70.980392%,54.117647%);fill-opacity:1;" d="M 12.328125 8 C 12.328125 10.390625 10.390625 12.328125 8 12.328125 C 5.609375 12.328125 3.671875 10.390625 3.671875 8 C 3.671875 5.609375 5.609375 3.671875 8 3.671875 C 10.390625 3.671875 12.328125 5.609375 12.328125 8 Z M 12.328125 8 "/>
<path style=" stroke:none;fill-rule:nonzero;fill:rgb(63.921569%,56.862745%,43.137255%);fill-opacity:1;" d="M 11.148438 8 C 11.148438 9.738281 9.738281 11.148438 8 11.148438 C 6.261719 11.148438 4.851562 9.738281 4.851562 8 C 4.851562 6.261719 6.261719 4.851562 8 4.851562 C 9.738281 4.851562 11.148438 6.261719 11.148438 8 Z M 11.148438 8 "/>
<path style=" stroke:none;fill-rule:nonzero;fill:rgb(50.980392%,45.490196%,34.509804%);fill-opacity:1;" d="M 9.96875 8 C 9.96875 9.085938 9.085938 9.96875 8 9.96875 C 6.914062 9.96875 6.03125 9.085938 6.03125 8 C 6.03125 6.914062 6.914062 6.03125 8 6.03125 C 9.085938 6.03125 9.96875 6.914062 9.96875 8 Z M 9.96875 8 "/>
<path style=" stroke:none;fill-rule:nonzero;fill:rgb(49.019608%,27.45098%,59.607843%);fill-opacity:1;" d="M 13.507812 8 C 13.507812 11.042969 11.042969 13.507812 8 13.507812 L 8 2.492188 C 11.042969 2.492188 13.507812 4.957031 13.507812 8 Z M 13.507812 8 "/>
</g>
</svg>
