<?xml version="1.0" encoding="UTF-8"?>
<svg xmlns="http://www.w3.org/2000/svg" xmlns:xlink="http://www.w3.org/1999/xlink" width="16pt" height="16pt" viewBox="0 0 16 16" version="1.1">
<g id="surface1">
<path style=" stroke:none;fill-rule:evenodd;fill:rgb(99.607843%,75.294118%,2.352941%);fill-opacity:1;" d="M 3.734375 0.949219 L 12.265625 0.949219 C 13.800781 0.949219 15.050781 2.199219 15.050781 3.734375 L 15.050781 12.265625 C 15.050781 13.800781 13.800781 15.050781 12.265625 15.050781 L 3.734375 15.050781 C 2.199219 15.050781 0.949219 13.800781 0.949219 12.265625 L 0.949219 3.734375 C 0.949219 2.199219 2.199219 0.949219 3.734375 0.949219 Z M 3.734375 0.949219 "/>
<path style=" stroke:none;fill-rule:nonzero;fill:rgb(100%,100%,100%);fill-opacity:1;" d="M 8 4.28125 L 5.875 7.824219 L 3.042969 4.28125 L 3.394531 11.71875 L 12.601562 11.71875 L 12.957031 4.28125 L 10.125 7.824219 Z M 8 4.28125 "/>
<path style=" stroke:none;fill-rule:nonzero;fill:rgb(90.980392%,17.647059%,17.647059%);fill-opacity:1;" d="M 10.832031 9.238281 L 11.363281 8.53125 L 11.894531 9.238281 L 11.363281 9.949219 Z M 10.832031 9.238281 "/>
<path style=" stroke:none;fill-rule:nonzero;fill:rgb(90.980392%,17.647059%,17.647059%);fill-opacity:1;" d="M 7.292969 9.171875 L 8 8.109375 L 8.707031 9.171875 L 8 10.234375 Z M 7.292969 9.171875 "/>
<path style=" stroke:none;fill-rule:nonzero;fill:rgb(90.980392%,17.647059%,17.647059%);fill-opacity:1;" d="M 4.105469 9.238281 L 4.636719 8.53125 L 5.167969 9.238281 L 4.636719 9.949219 Z M 4.105469 9.238281 "/>
</g>
</svg>
