<?xml version="1.0" encoding="UTF-8"?>
<svg xmlns="http://www.w3.org/2000/svg" xmlns:xlink="http://www.w3.org/1999/xlink" width="16pt" height="16pt" viewBox="0 0 16 16" version="1.1">
<g id="surface1">
<path style=" stroke:none;fill-rule:evenodd;fill:rgb(76.078431%,20.784314%,16.470588%);fill-opacity:1;" d="M 3.734375 0.949219 L 12.265625 0.949219 C 13.800781 0.949219 15.050781 2.199219 15.050781 3.734375 L 15.050781 12.265625 C 15.050781 13.800781 13.800781 15.050781 12.265625 15.050781 L 3.734375 15.050781 C 2.199219 15.050781 0.949219 13.800781 0.949219 12.265625 L 0.949219 3.734375 C 0.949219 2.199219 2.199219 0.949219 3.734375 0.949219 Z M 3.734375 0.949219 "/>
<path style=" stroke:none;fill-rule:nonzero;fill:rgb(92.156863%,92.156863%,92.156863%);fill-opacity:1;" d="M 4 2.75 L 12 2.75 C 12.277344 2.75 12.5 2.972656 12.5 3.25 L 12.5 12.75 C 12.5 13.027344 12.277344 13.25 12 13.25 L 4 13.25 C 3.722656 13.25 3.5 13.027344 3.5 12.75 L 3.5 3.25 C 3.5 2.972656 3.722656 2.75 4 2.75 Z M 4 2.75 "/>
<path style=" stroke:none;fill-rule:evenodd;fill:rgb(24.705882%,24.705882%,24.705882%);fill-opacity:1;" d="M 8 11.75 L 6 9.25 L 7 9.25 L 7 6.75 L 6 6.75 L 8 4.25 L 10 6.75 L 9 6.75 L 9 9.25 L 10 9.25 Z M 8 11.75 "/>
</g>
</svg>
