<?xml version="1.0" encoding="UTF-8"?>
<svg xmlns="http://www.w3.org/2000/svg" xmlns:xlink="http://www.w3.org/1999/xlink" width="16pt" height="16pt" viewBox="0 0 16 16" version="1.1">
<g id="surface1">
<path style=" stroke:none;fill-rule:evenodd;fill:rgb(30.980392%,30.980392%,30.980392%);fill-opacity:1;" d="M 3.734375 0.949219 L 12.265625 0.949219 C 13.800781 0.949219 15.050781 2.199219 15.050781 3.734375 L 15.050781 12.265625 C 15.050781 13.800781 13.800781 15.050781 12.265625 15.050781 L 3.734375 15.050781 C 2.199219 15.050781 0.949219 13.800781 0.949219 12.265625 L 0.949219 3.734375 C 0.949219 2.199219 2.199219 0.949219 3.734375 0.949219 Z M 3.734375 0.949219 "/>
<path style=" stroke:none;fill-rule:nonzero;fill:rgb(50.196078%,50.196078%,50.196078%);fill-opacity:1;" d="M 5 2.25 L 11 2.25 L 11 7.25 L 5 7.25 Z M 5 2.25 "/>
<path style=" stroke:none;fill-rule:nonzero;fill:rgb(100%,100%,100%);fill-opacity:1;" d="M 3 2.25 L 4.5 2.25 L 4.5 3.75 L 3 3.75 Z M 3 2.25 "/>
<path style=" stroke:none;fill-rule:nonzero;fill:rgb(100%,100%,100%);fill-opacity:1;" d="M 3 4.75 L 4.5 4.75 L 4.5 6.25 L 3 6.25 Z M 3 4.75 "/>
<path style=" stroke:none;fill-rule:nonzero;fill:rgb(100%,100%,100%);fill-opacity:1;" d="M 3 7.25 L 4.5 7.25 L 4.5 8.75 L 3 8.75 Z M 3 7.25 "/>
<path style=" stroke:none;fill-rule:nonzero;fill:rgb(100%,100%,100%);fill-opacity:1;" d="M 3 9.75 L 4.5 9.75 L 4.5 11.25 L 3 11.25 Z M 3 9.75 "/>
<path style=" stroke:none;fill-rule:nonzero;fill:rgb(100%,100%,100%);fill-opacity:1;" d="M 3 12.25 L 4.5 12.25 L 4.5 13.75 L 3 13.75 Z M 3 12.25 "/>
<path style=" stroke:none;fill-rule:nonzero;fill:rgb(100%,100%,100%);fill-opacity:1;" d="M 11.5 2.25 L 13 2.25 L 13 3.75 L 11.5 3.75 Z M 11.5 2.25 "/>
<path style=" stroke:none;fill-rule:nonzero;fill:rgb(100%,100%,100%);fill-opacity:1;" d="M 11.5 4.75 L 13 4.75 L 13 6.25 L 11.5 6.25 Z M 11.5 4.75 "/>
<path style=" stroke:none;fill-rule:nonzero;fill:rgb(100%,100%,100%);fill-opacity:1;" d="M 11.5 7.25 L 13 7.25 L 13 8.75 L 11.5 8.75 Z M 11.5 7.25 "/>
<path style=" stroke:none;fill-rule:nonzero;fill:rgb(100%,100%,100%);fill-opacity:1;" d="M 11.5 9.75 L 13 9.75 L 13 11.25 L 11.5 11.25 Z M 11.5 9.75 "/>
<path style=" stroke:none;fill-rule:nonzero;fill:rgb(100%,100%,100%);fill-opacity:1;" d="M 11.5 12.25 L 13 12.25 L 13 13.75 L 11.5 13.75 Z M 11.5 12.25 "/>
<path style=" stroke:none;fill-rule:nonzero;fill:rgb(50.196078%,50.196078%,50.196078%);fill-opacity:1;" d="M 5 8.75 L 11 8.75 L 11 13.75 L 5 13.75 Z M 5 8.75 "/>
<path style=" stroke:none;fill-rule:evenodd;fill:rgb(25.882353%,41.176471%,80.392157%);fill-opacity:1;" d="M 14.28125 11.292969 C 14.28125 12.949219 12.9375 14.292969 11.28125 14.292969 C 9.625 14.292969 8.28125 12.949219 8.28125 11.292969 C 8.28125 9.636719 9.625 8.292969 11.28125 8.292969 C 12.9375 8.292969 14.28125 9.636719 14.28125 11.292969 Z M 14.28125 11.292969 "/>
<path style=" stroke:none;fill-rule:nonzero;fill:rgb(100%,100%,100%);fill-opacity:1;" d="M 11.28125 9.792969 C 10.453125 9.792969 9.78125 10.464844 9.78125 11.292969 C 9.78125 12.121094 10.453125 12.792969 11.28125 12.792969 C 11.960938 12.792969 12.535156 12.34375 12.71875 11.71875 L 12.257812 11.71875 C 12.09375 12.097656 11.71875 12.363281 11.28125 12.363281 C 10.6875 12.363281 10.210938 11.882812 10.210938 11.292969 C 10.210938 10.703125 10.6875 10.21875 11.28125 10.21875 C 11.578125 10.21875 11.84375 10.34375 12.035156 10.539062 L 11.496094 11.078125 L 12.78125 11.078125 L 12.78125 9.792969 L 12.34375 10.234375 C 12.070312 9.960938 11.695312 9.792969 11.28125 9.792969 Z M 11.28125 9.792969 "/>
</g>
</svg>
