<?xml version="1.0" encoding="UTF-8"?>
<svg xmlns="http://www.w3.org/2000/svg" xmlns:xlink="http://www.w3.org/1999/xlink" width="16pt" height="16pt" viewBox="0 0 16 16" version="1.1">
<g id="surface1">
<path style=" stroke:none;fill-rule:evenodd;fill:rgb(0%,50.588235%,80%);fill-opacity:1;" d="M 3.734375 0.949219 L 12.265625 0.949219 C 13.800781 0.949219 15.050781 2.199219 15.050781 3.734375 L 15.050781 12.265625 C 15.050781 13.800781 13.800781 15.050781 12.265625 15.050781 L 3.734375 15.050781 C 2.199219 15.050781 0.949219 13.800781 0.949219 12.265625 L 0.949219 3.734375 C 0.949219 2.199219 2.199219 0.949219 3.734375 0.949219 Z M 3.734375 0.949219 "/>
<path style=" stroke:none;fill-rule:nonzero;fill:rgb(100%,100%,100%);fill-opacity:1;" d="M 3.707031 3.414062 L 6.328125 3.414062 C 6.871094 3.414062 7.3125 3.851562 7.3125 4.394531 L 7.3125 11.605469 C 7.3125 12.148438 6.871094 12.585938 6.328125 12.585938 L 3.707031 12.585938 C 3.164062 12.585938 2.722656 12.148438 2.722656 11.605469 L 2.722656 4.394531 C 2.722656 3.851562 3.164062 3.414062 3.707031 3.414062 Z M 3.707031 3.414062 "/>
<path style=" stroke:none;fill-rule:nonzero;fill:rgb(100%,100%,100%);fill-opacity:1;" d="M 9.671875 3.414062 L 12.292969 3.414062 C 12.835938 3.414062 13.277344 3.796875 13.277344 4.273438 L 13.277344 7.140625 C 13.277344 7.613281 12.835938 8 12.292969 8 L 9.671875 8 C 9.128906 8 8.6875 7.613281 8.6875 7.140625 L 8.6875 4.273438 C 8.6875 3.796875 9.128906 3.414062 9.671875 3.414062 Z M 9.671875 3.414062 "/>
</g>
</svg>
