<?xml version="1.0" encoding="UTF-8"?>
<svg xmlns="http://www.w3.org/2000/svg" xmlns:xlink="http://www.w3.org/1999/xlink" width="16pt" height="16pt" viewBox="0 0 16 16" version="1.1">
<g id="surface1">
<path style=" stroke:none;fill-rule:evenodd;fill:rgb(63.921569%,16.862745%,34.509804%);fill-opacity:1;" d="M 3.734375 0.949219 L 12.265625 0.949219 C 13.800781 0.949219 15.050781 2.199219 15.050781 3.734375 L 15.050781 12.265625 C 15.050781 13.800781 13.800781 15.050781 12.265625 15.050781 L 3.734375 15.050781 C 2.199219 15.050781 0.949219 13.800781 0.949219 12.265625 L 0.949219 3.734375 C 0.949219 2.199219 2.199219 0.949219 3.734375 0.949219 Z M 3.734375 0.949219 "/>
<path style=" stroke:none;fill-rule:nonzero;fill:rgb(95.294118%,67.058824%,43.529412%);fill-opacity:1;" d="M 9.75 7 C 8.09375 7 6.75 8.34375 6.75 10 C 6.75 11.65625 8.09375 13 9.75 13 C 11.40625 13 12.75 11.65625 12.75 10 C 12.75 8.34375 11.40625 7 9.75 7 Z M 10 7.5 C 11.242188 7.5 12.25 8.507812 12.25 9.75 C 12.25 10.992188 11.242188 12 10 12 C 8.757812 12 7.75 10.992188 7.75 9.75 C 7.75 8.507812 8.757812 7.5 10 7.5 Z M 10 7.5 "/>
<path style=" stroke:none;fill-rule:nonzero;fill:rgb(96.862745%,76.470588%,60.392157%);fill-opacity:1;" d="M 12.75 9 C 12.75 9.828125 12.078125 10.5 11.25 10.5 C 10.421875 10.5 9.75 9.828125 9.75 9 C 9.75 8.171875 10.421875 7.5 11.25 7.5 C 12.078125 7.5 12.75 8.171875 12.75 9 Z M 12.75 9 "/>
<path style=" stroke:none;fill-rule:nonzero;fill:rgb(95.294118%,67.058824%,43.529412%);fill-opacity:1;" d="M 6.25 3 C 4.59375 3 3.25 4.34375 3.25 6 C 3.25 7.65625 4.59375 9 6.25 9 C 7.90625 9 9.25 7.65625 9.25 6 C 9.25 4.34375 7.90625 3 6.25 3 Z M 6.5 3.5 C 7.742188 3.5 8.75 4.507812 8.75 5.75 C 8.75 6.992188 7.742188 8 6.5 8 C 5.257812 8 4.25 6.992188 4.25 5.75 C 4.25 4.507812 5.257812 3.5 6.5 3.5 Z M 6.5 3.5 "/>
<path style=" stroke:none;fill-rule:nonzero;fill:rgb(96.862745%,76.470588%,60.392157%);fill-opacity:1;" d="M 9.25 5 C 9.25 5.828125 8.578125 6.5 7.75 6.5 C 6.921875 6.5 6.25 5.828125 6.25 5 C 6.25 4.171875 6.921875 3.5 7.75 3.5 C 8.578125 3.5 9.25 4.171875 9.25 5 Z M 9.25 5 "/>
</g>
</svg>
