<?xml version="1.0" encoding="UTF-8"?>
<svg xmlns="http://www.w3.org/2000/svg" xmlns:xlink="http://www.w3.org/1999/xlink" width="16pt" height="16pt" viewBox="0 0 16 16" version="1.1">
<g id="surface1">
<path style=" stroke:none;fill-rule:evenodd;fill:rgb(60%,60%,60%);fill-opacity:1;" d="M 14.363281 14.046875 C 14.214844 14.082031 14.03125 14.128906 14.03125 14.128906 L 1.953125 14.128906 C 1.898438 14.128906 1.757812 14.082031 1.648438 14.0625 C 2.15625 14.65625 2.890625 15.050781 3.734375 15.050781 L 12.265625 15.050781 C 13.117188 15.050781 13.855469 14.648438 14.363281 14.046875 Z M 14.363281 14.046875 "/>
<path style=" stroke:none;fill-rule:evenodd;fill:rgb(65.098039%,65.098039%,65.098039%);fill-opacity:1;" d="M 15.035156 12.339844 L 15.035156 6.984375 C 15.035156 6.753906 14.925781 6.550781 14.753906 6.421875 L 14.757812 6.421875 L 7.992188 1.453125 C 7.992188 1.453125 1.230469 6.425781 1.269531 6.394531 C 1.253906 6.40625 1.242188 6.414062 1.226562 6.425781 L 1.21875 6.433594 C 1.054688 6.5625 0.949219 6.761719 0.949219 6.984375 L 0.949219 12.265625 C 0.949219 12.960938 1.226562 13.574219 1.648438 14.0625 C 1.757812 14.082031 1.898438 14.128906 1.953125 14.128906 L 14.03125 14.128906 C 14.03125 14.128906 14.214844 14.082031 14.363281 14.046875 C 14.757812 13.578125 15.015625 13 15.035156 12.339844 Z M 15.035156 12.339844 "/>
<path style=" stroke:none;fill-rule:evenodd;fill:rgb(40%,40%,40%);fill-opacity:1;" d="M 3.734375 0.949219 C 2.191406 0.949219 0.949219 2.191406 0.949219 3.738281 L 0.949219 6.984375 C 0.949219 6.761719 1.054688 6.5625 1.21875 6.433594 L 1.226562 6.425781 C 1.242188 6.414062 1.253906 6.40625 1.269531 6.394531 C 1.230469 6.425781 7.992188 1.453125 7.992188 1.453125 L 14.757812 6.421875 L 14.753906 6.421875 C 14.925781 6.550781 15.035156 6.753906 15.035156 6.984375 L 15.035156 12.339844 C 15.035156 12.3125 15.050781 12.292969 15.050781 12.265625 L 15.050781 3.738281 C 15.050781 2.191406 13.808594 0.949219 12.265625 0.949219 Z M 3.734375 0.949219 "/>
<path style=" stroke:none;fill-rule:nonzero;fill:rgb(19.215686%,68.627451%,88.235294%);fill-opacity:1;" d="M 3.214844 2.960938 L 12.773438 2.960938 C 13.1875 2.960938 13.527344 3.296875 13.527344 3.714844 L 13.527344 11.261719 C 13.527344 11.679688 13.1875 12.015625 12.773438 12.015625 L 3.214844 12.015625 C 2.796875 12.015625 2.457031 11.679688 2.457031 11.261719 L 2.457031 3.714844 C 2.457031 3.296875 2.796875 2.960938 3.214844 2.960938 Z M 3.214844 2.960938 "/>
<path style=" stroke:none;fill-rule:nonzero;fill:rgb(100%,100%,100%);fill-opacity:1;" d="M 7.992188 4.46875 C 6.605469 4.46875 5.476562 5.59375 5.476562 6.984375 C 5.476562 8.375 6.605469 9.5 7.992188 9.5 L 9.753906 9.5 C 9.890625 9.5 10.003906 9.390625 10.003906 9.25 C 10.003906 9.109375 9.890625 8.996094 9.753906 8.996094 L 7.992188 8.996094 C 6.882812 8.996094 5.980469 8.09375 5.980469 6.984375 C 5.980469 5.875 6.882812 4.972656 7.992188 4.972656 C 9.105469 4.972656 10.003906 5.875 10.003906 6.984375 L 10.003906 7.738281 C 10.003906 7.878906 9.890625 7.992188 9.753906 7.992188 C 9.613281 7.992188 9.5 7.878906 9.5 7.738281 L 9.5 6.984375 C 9.5 6.152344 8.828125 5.476562 7.992188 5.476562 C 7.160156 5.476562 6.484375 6.152344 6.484375 6.984375 C 6.484375 7.816406 7.160156 8.496094 7.992188 8.496094 C 8.394531 8.492188 8.78125 8.332031 9.0625 8.046875 C 9.183594 8.3125 9.445312 8.496094 9.753906 8.496094 C 10.171875 8.496094 10.507812 8.15625 10.507812 7.738281 L 10.507812 6.984375 C 10.507812 5.59375 9.382812 4.46875 7.992188 4.46875 Z M 7.992188 5.980469 C 8.546875 5.980469 9 6.429688 9 6.984375 C 9 7.539062 8.546875 7.992188 7.992188 7.992188 C 7.4375 7.992188 6.984375 7.539062 6.984375 6.984375 C 6.984375 6.429688 7.4375 5.980469 7.992188 5.980469 Z M 7.992188 5.980469 "/>
<path style=" stroke:none;fill-rule:evenodd;fill:rgb(82.352941%,82.352941%,82.352941%);fill-opacity:1;" d="M 15.035156 12.339844 L 15.035156 6.984375 L 3.464844 14.996094 C 3.558594 15.003906 3.640625 15.050781 3.734375 15.050781 L 12.265625 15.050781 C 13.78125 15.050781 14.992188 13.847656 15.035156 12.339844 Z M 15.035156 12.339844 "/>
<path style=" stroke:none;fill-rule:evenodd;fill:rgb(74.509804%,74.509804%,74.509804%);fill-opacity:1;" d="M 7.992188 11.859375 L 0.949219 6.984375 L 0.949219 12.265625 C 0.949219 13.710938 2.054688 14.855469 3.464844 14.996094 Z M 7.992188 11.859375 "/>
</g>
</svg>
