<?xml version="1.0" encoding="UTF-8"?>
<svg xmlns="http://www.w3.org/2000/svg" xmlns:xlink="http://www.w3.org/1999/xlink" width="16pt" height="16pt" viewBox="0 0 16 16" version="1.1">
<g id="surface1">
<path style=" stroke:none;fill-rule:evenodd;fill:rgb(70.196078%,70.196078%,70.196078%);fill-opacity:1;" d="M 3.734375 0.949219 L 12.265625 0.949219 C 13.800781 0.949219 15.050781 2.199219 15.050781 3.734375 L 15.050781 12.265625 C 15.050781 13.800781 13.800781 15.050781 12.265625 15.050781 L 3.734375 15.050781 C 2.199219 15.050781 0.949219 13.800781 0.949219 12.265625 L 0.949219 3.734375 C 0.949219 2.199219 2.199219 0.949219 3.734375 0.949219 Z M 3.734375 0.949219 "/>
<path style=" stroke:none;fill-rule:nonzero;fill:rgb(30.980392%,30.980392%,30.980392%);fill-opacity:1;" d="M 7.992188 2.347656 C 6.90625 2.347656 5.972656 3.355469 5.972656 4.609375 C 5.972656 7.433594 4.359375 7.71875 4.359375 9.695312 C 4.359375 11.878906 5.984375 13.652344 7.992188 13.652344 C 10 13.652344 11.625 11.878906 11.625 9.695312 C 11.625 7.71875 10.011719 7.433594 10.011719 4.609375 C 10.011719 3.355469 9.074219 2.347656 7.992188 2.347656 Z M 7.992188 2.347656 "/>
<path style=" stroke:none;fill-rule:nonzero;fill:rgb(100%,100%,100%);fill-opacity:1;" d="M 7.992188 5.578125 C 7.269531 5.578125 6.78125 6.1875 6.78125 6.949219 C 6.78125 8.667969 5.570312 8.835938 5.570312 10.039062 C 5.570312 11.363281 6.65625 12.441406 7.992188 12.441406 C 9.328125 12.441406 10.414062 11.363281 10.414062 10.039062 C 10.414062 8.835938 9.203125 8.667969 9.203125 6.949219 C 9.203125 6.1875 8.714844 5.578125 7.992188 5.578125 Z M 7.992188 5.578125 "/>
<path style=" stroke:none;fill-rule:nonzero;fill:rgb(91.764706%,69.411765%,3.137255%);fill-opacity:1;" d="M 6.183594 13.640625 C 6.0625 13.625 5.953125 13.585938 5.71875 13.484375 C 5.367188 13.335938 5.203125 13.285156 4.5625 13.140625 C 4.242188 13.066406 4.121094 13.03125 3.84375 12.941406 C 3.742188 12.910156 3.609375 12.867188 3.542969 12.851562 C 3.371094 12.800781 3.324219 12.78125 3.261719 12.730469 C 3.175781 12.664062 3.136719 12.558594 3.152344 12.441406 C 3.160156 12.367188 3.1875 12.296875 3.257812 12.144531 C 3.355469 11.941406 3.59375 11.871094 3.609375 11.671875 C 3.617188 11.554688 3.609375 11.421875 3.582031 11.148438 C 3.5625 10.988281 3.558594 10.929688 3.558594 10.828125 C 3.558594 10.714844 3.5625 10.792969 3.574219 10.75 C 3.613281 10.589844 3.648438 10.496094 3.800781 10.457031 C 3.84375 10.445312 3.753906 10.441406 3.960938 10.4375 C 4.089844 10.4375 4.164062 10.433594 4.179688 10.429688 C 4.269531 10.40625 4.335938 10.375 4.398438 10.316406 C 4.453125 10.261719 4.496094 9.960938 4.570312 9.828125 C 4.6875 9.621094 4.921875 9.625 5.109375 9.613281 C 5.164062 9.625 5.179688 9.632812 5.238281 9.667969 C 5.296875 9.703125 5.316406 9.714844 5.367188 9.769531 C 5.5 9.90625 5.558594 9.992188 5.851562 10.433594 C 6.078125 10.78125 6.152344 10.894531 6.242188 11.058594 C 6.34375 11.238281 6.527344 11.523438 6.59375 11.609375 C 6.605469 11.625 6.675781 11.714844 6.75 11.808594 C 6.824219 11.902344 6.894531 11.988281 6.902344 12.003906 C 7.042969 12.199219 7.140625 12.421875 7.175781 12.644531 C 7.1875 12.722656 7.1875 12.734375 7.179688 12.828125 C 7.171875 12.9375 7.164062 12.988281 7.152344 13.011719 C 7.148438 13.023438 7.136719 13.050781 7.128906 13.074219 C 7.019531 13.371094 6.753906 13.59375 6.449219 13.644531 C 6.382812 13.65625 6.25 13.65625 6.183594 13.644531 Z M 6.183594 13.640625 "/>
<path style=" stroke:none;fill-rule:nonzero;fill:rgb(91.764706%,69.411765%,3.137255%);fill-opacity:1;" d="M 10.902344 13.507812 C 10.996094 13.441406 11.070312 13.371094 11.222656 13.191406 C 11.453125 12.925781 11.445312 12.820312 11.917969 12.4375 C 12.152344 12.25 12.238281 12.175781 12.433594 11.988281 C 12.5 11.921875 12.59375 11.832031 12.640625 11.792969 C 12.765625 11.683594 12.792969 11.648438 12.828125 11.582031 C 12.871094 11.492188 12.859375 11.390625 12.796875 11.300781 C 12.757812 11.246094 12.707031 11.199219 12.585938 11.105469 C 12.421875 10.980469 12.375 10.875 12.28125 10.71875 C 12.222656 10.628906 12.296875 10.398438 12.207031 10.164062 C 12.15625 10.027344 12.132812 9.976562 12.09375 9.890625 C 12.046875 9.800781 12.035156 9.785156 12.007812 9.757812 C 11.90625 9.644531 11.792969 9.609375 11.648438 9.636719 C 11.609375 9.644531 11.582031 9.65625 11.410156 9.738281 C 11.300781 9.789062 11.203125 9.828125 11.1875 9.832031 C 11.105469 9.855469 11.035156 9.851562 10.964844 9.828125 C 10.890625 9.808594 10.835938 9.957031 10.71875 9.878906 C 10.636719 9.824219 10.546875 9.757812 10.484375 9.742188 C 10.402344 9.71875 10.402344 9.71875 10.320312 9.726562 C 10.242188 9.734375 10.183594 9.757812 10.121094 9.808594 C 10.082031 9.839844 10.070312 9.851562 10.035156 9.90625 C 10 9.957031 9.992188 9.972656 9.972656 10.039062 C 9.921875 10.203125 9.90625 10.296875 9.847656 10.773438 C 9.800781 11.148438 9.789062 11.269531 9.78125 11.4375 C 9.769531 11.625 9.738281 11.929688 9.71875 12.03125 C 9.714844 12.046875 9.691406 12.144531 9.671875 12.253906 C 9.648438 12.359375 9.625 12.457031 9.625 12.472656 C 9.589844 12.6875 9.601562 12.90625 9.667969 13.105469 C 9.6875 13.171875 9.695312 13.183594 9.734375 13.25 C 9.789062 13.339844 9.816406 13.375 9.835938 13.390625 C 9.84375 13.398438 9.863281 13.414062 9.882812 13.429688 C 10.09375 13.625 10.40625 13.699219 10.683594 13.613281 C 10.742188 13.597656 10.847656 13.542969 10.902344 13.507812 Z M 10.902344 13.507812 "/>
<path style=" stroke:none;fill-rule:nonzero;fill:rgb(100%,100%,100%);fill-opacity:1;" d="M 7.992188 4.367188 C 7.992188 4.8125 7.628906 5.171875 7.183594 5.171875 C 6.738281 5.171875 6.375 4.8125 6.375 4.367188 C 6.375 3.921875 6.738281 3.558594 7.183594 3.558594 C 7.628906 3.558594 7.992188 3.921875 7.992188 4.367188 Z M 7.992188 4.367188 "/>
<path style=" stroke:none;fill-rule:nonzero;fill:rgb(19.607843%,19.607843%,19.607843%);fill-opacity:1;" d="M 7.589844 4.367188 C 7.589844 4.589844 7.40625 4.769531 7.183594 4.769531 C 6.960938 4.769531 6.78125 4.589844 6.78125 4.367188 C 6.78125 4.144531 6.960938 3.964844 7.183594 3.964844 C 7.40625 3.964844 7.589844 4.144531 7.589844 4.367188 Z M 7.589844 4.367188 "/>
<path style=" stroke:none;fill-rule:nonzero;fill:rgb(96.862745%,49.019608%,0%);fill-opacity:1;" d="M 9.203125 5.375 C 9.203125 6.15625 8.660156 6.789062 7.992188 6.789062 C 7.324219 6.789062 6.78125 6.15625 6.78125 5.375 Z M 9.203125 5.375 "/>
<path style=" stroke:none;fill-rule:nonzero;fill:rgb(100%,100%,100%);fill-opacity:1;" d="M 9.605469 4.367188 C 9.605469 4.8125 9.246094 5.171875 8.796875 5.171875 C 8.351562 5.171875 7.992188 4.8125 7.992188 4.367188 C 7.992188 3.921875 8.351562 3.558594 8.796875 3.558594 C 9.246094 3.558594 9.605469 3.921875 9.605469 4.367188 Z M 9.605469 4.367188 "/>
<path style=" stroke:none;fill-rule:nonzero;fill:rgb(19.607843%,19.607843%,19.607843%);fill-opacity:1;" d="M 9.203125 4.367188 C 9.203125 4.589844 9.023438 4.769531 8.796875 4.769531 C 8.578125 4.769531 8.394531 4.589844 8.394531 4.367188 C 8.394531 4.144531 8.578125 3.964844 8.796875 3.964844 C 9.023438 3.964844 9.203125 4.144531 9.203125 4.367188 Z M 9.203125 4.367188 "/>
<path style=" stroke:none;fill-rule:nonzero;fill:rgb(91.764706%,69.411765%,3.137255%);fill-opacity:1;" d="M 9.203125 5.441406 C 9.203125 5.578125 8.660156 6.386719 7.992188 6.386719 C 7.324219 6.386719 6.78125 5.578125 6.78125 5.441406 C 6.78125 5.070312 7.324219 4.769531 7.992188 4.769531 C 8.660156 4.769531 9.203125 5.070312 9.203125 5.441406 Z M 9.203125 5.441406 "/>
<path style=" stroke:none;fill-rule:nonzero;fill:rgb(30.980392%,30.980392%,30.980392%);fill-opacity:1;" d="M 11 10.84375 C 10.535156 10.84375 10.53125 10.457031 10.4375 10.003906 C 10.335938 9.496094 10.269531 9.203125 11.078125 9.160156 C 11.78125 8.933594 11.886719 10.816406 11 10.84375 Z M 11 10.84375 "/>
</g>
</svg>
