<?xml version="1.0" encoding="UTF-8"?>
<svg xmlns="http://www.w3.org/2000/svg" xmlns:xlink="http://www.w3.org/1999/xlink" width="16pt" height="16pt" viewBox="0 0 16 16" version="1.1">
<g id="surface1">
<path style=" stroke:none;fill-rule:evenodd;fill:rgb(90.196078%,90.196078%,90.196078%);fill-opacity:1;" d="M 3.734375 0.949219 L 12.265625 0.949219 C 13.800781 0.949219 15.050781 2.199219 15.050781 3.734375 L 15.050781 12.265625 C 15.050781 13.800781 13.800781 15.050781 12.265625 15.050781 L 3.734375 15.050781 C 2.199219 15.050781 0.949219 13.800781 0.949219 12.265625 L 0.949219 3.734375 C 0.949219 2.199219 2.199219 0.949219 3.734375 0.949219 Z M 3.734375 0.949219 "/>
<path style=" stroke:none;fill-rule:nonzero;fill:rgb(31.372549%,58.431373%,67.058824%);fill-opacity:1;" d="M 7.992188 2.777344 C 6.992188 2.777344 6.125 3.710938 6.125 4.867188 C 6.125 7.476562 4.636719 7.738281 4.636719 9.566406 C 4.636719 11.585938 6.140625 13.222656 7.992188 13.222656 C 9.847656 13.222656 11.347656 11.585938 11.347656 9.566406 C 11.347656 7.738281 9.859375 7.476562 9.859375 4.867188 C 9.859375 3.710938 8.992188 2.777344 7.992188 2.777344 Z M 7.992188 2.777344 "/>
<path style=" stroke:none;fill-rule:nonzero;fill:rgb(100%,100%,100%);fill-opacity:1;" d="M 7.992188 5.761719 C 7.324219 5.761719 6.875 6.328125 6.875 7.03125 C 6.875 8.613281 5.753906 8.773438 5.753906 9.882812 C 5.753906 11.109375 6.757812 12.101562 7.992188 12.101562 C 9.230469 12.101562 10.230469 11.109375 10.230469 9.882812 C 10.230469 8.773438 9.109375 8.613281 9.109375 7.03125 C 9.109375 6.328125 8.660156 5.761719 7.992188 5.761719 Z M 7.992188 5.761719 "/>
<path style=" stroke:none;fill-rule:nonzero;fill:rgb(91.764706%,69.411765%,3.137255%);fill-opacity:1;" d="M 6.320312 13.214844 C 6.207031 13.195312 6.109375 13.164062 5.890625 13.070312 C 5.566406 12.929688 5.414062 12.882812 4.824219 12.75 C 4.527344 12.679688 4.414062 12.652344 4.160156 12.566406 C 4.066406 12.539062 3.941406 12.5 3.882812 12.484375 C 3.722656 12.4375 3.679688 12.417969 3.621094 12.371094 C 3.542969 12.308594 3.503906 12.210938 3.519531 12.105469 C 3.527344 12.035156 3.550781 11.96875 3.621094 11.828125 C 3.707031 11.644531 3.929688 11.578125 3.941406 11.390625 C 3.953125 11.285156 3.945312 11.164062 3.917969 10.910156 C 3.902344 10.761719 3.898438 10.707031 3.894531 10.609375 C 3.894531 10.507812 3.898438 10.578125 3.90625 10.539062 C 3.949219 10.390625 3.980469 10.308594 4.121094 10.269531 C 4.160156 10.257812 4.074219 10.257812 4.265625 10.253906 C 4.386719 10.25 4.457031 10.25 4.46875 10.242188 C 4.554688 10.222656 4.613281 10.195312 4.671875 10.140625 C 4.722656 10.089844 4.761719 9.8125 4.828125 9.6875 C 4.9375 9.496094 5.15625 9.5 5.328125 9.492188 C 5.378906 9.5 5.394531 9.507812 5.449219 9.539062 C 5.503906 9.574219 5.519531 9.585938 5.566406 9.636719 C 5.6875 9.765625 5.746094 9.84375 6.015625 10.25 C 6.226562 10.570312 6.292969 10.675781 6.375 10.828125 C 6.46875 10.992188 6.640625 11.253906 6.703125 11.335938 C 6.710938 11.347656 6.777344 11.433594 6.84375 11.519531 C 6.914062 11.605469 6.976562 11.6875 6.984375 11.699219 C 7.113281 11.878906 7.203125 12.085938 7.238281 12.292969 C 7.25 12.363281 7.25 12.375 7.242188 12.460938 C 7.234375 12.5625 7.226562 12.609375 7.21875 12.632812 C 7.210938 12.640625 7.203125 12.667969 7.195312 12.6875 C 7.09375 12.960938 6.851562 13.167969 6.566406 13.214844 C 6.503906 13.226562 6.386719 13.226562 6.320312 13.214844 Z M 6.320312 13.214844 "/>
<path style=" stroke:none;fill-rule:nonzero;fill:rgb(91.764706%,69.411765%,3.137255%);fill-opacity:1;" d="M 10.683594 13.089844 C 10.769531 13.03125 10.835938 12.960938 10.980469 12.796875 C 11.1875 12.550781 11.183594 12.453125 11.621094 12.101562 C 11.835938 11.925781 11.917969 11.859375 12.09375 11.6875 C 12.160156 11.625 12.246094 11.542969 12.289062 11.503906 C 12.402344 11.402344 12.429688 11.371094 12.460938 11.308594 C 12.5 11.226562 12.488281 11.132812 12.433594 11.050781 C 12.398438 11 12.347656 10.953125 12.234375 10.867188 C 12.085938 10.753906 12.042969 10.65625 11.953125 10.511719 C 11.902344 10.429688 11.96875 10.214844 11.890625 10 C 11.839844 9.871094 11.820312 9.828125 11.78125 9.75 C 11.738281 9.664062 11.730469 9.652344 11.703125 9.625 C 11.609375 9.519531 11.503906 9.484375 11.371094 9.511719 C 11.332031 9.519531 11.3125 9.53125 11.152344 9.605469 C 11.050781 9.652344 10.960938 9.691406 10.945312 9.695312 C 10.871094 9.714844 10.808594 9.710938 10.738281 9.691406 C 10.671875 9.671875 10.621094 9.808594 10.511719 9.734375 C 10.4375 9.6875 10.355469 9.625 10.296875 9.609375 C 10.21875 9.589844 10.21875 9.589844 10.144531 9.59375 C 10.070312 9.605469 10.019531 9.625 9.960938 9.671875 C 9.921875 9.699219 9.914062 9.710938 9.878906 9.761719 C 9.847656 9.808594 9.839844 9.824219 9.820312 9.882812 C 9.777344 10.035156 9.761719 10.125 9.707031 10.5625 C 9.664062 10.910156 9.652344 11.019531 9.644531 11.179688 C 9.636719 11.347656 9.605469 11.632812 9.585938 11.722656 C 9.582031 11.738281 9.5625 11.832031 9.542969 11.929688 C 9.523438 12.027344 9.503906 12.121094 9.5 12.132812 C 9.46875 12.332031 9.480469 12.535156 9.539062 12.714844 C 9.5625 12.78125 9.566406 12.789062 9.605469 12.851562 C 9.65625 12.933594 9.679688 12.96875 9.699219 12.984375 C 9.703125 12.988281 9.722656 13.003906 9.738281 13.015625 C 9.933594 13.199219 10.222656 13.265625 10.480469 13.1875 C 10.53125 13.171875 10.632812 13.125 10.683594 13.089844 Z M 10.683594 13.089844 "/>
<path style=" stroke:none;fill-rule:nonzero;fill:rgb(100%,100%,100%);fill-opacity:1;" d="M 7.992188 4.640625 C 7.992188 5.054688 7.65625 5.390625 7.246094 5.390625 C 6.835938 5.390625 6.5 5.054688 6.5 4.640625 C 6.5 4.230469 6.835938 3.894531 7.246094 3.894531 C 7.65625 3.894531 7.992188 4.230469 7.992188 4.640625 Z M 7.992188 4.640625 "/>
<path style=" stroke:none;fill-rule:nonzero;fill:rgb(19.607843%,19.607843%,19.607843%);fill-opacity:1;" d="M 7.621094 4.640625 C 7.621094 4.847656 7.453125 5.015625 7.246094 5.015625 C 7.039062 5.015625 6.875 4.847656 6.875 4.640625 C 6.875 4.4375 7.039062 4.269531 7.246094 4.269531 C 7.453125 4.269531 7.621094 4.4375 7.621094 4.640625 Z M 7.621094 4.640625 "/>
<path style=" stroke:none;fill-rule:nonzero;fill:rgb(96.862745%,49.019608%,0%);fill-opacity:1;" d="M 9.109375 5.574219 C 9.109375 6.296875 8.609375 6.878906 7.992188 6.878906 C 7.375 6.878906 6.875 6.296875 6.875 5.574219 Z M 9.109375 5.574219 "/>
<path style=" stroke:none;fill-rule:nonzero;fill:rgb(100%,100%,100%);fill-opacity:1;" d="M 9.484375 4.640625 C 9.484375 5.054688 9.152344 5.390625 8.738281 5.390625 C 8.328125 5.390625 7.992188 5.054688 7.992188 4.640625 C 7.992188 4.230469 8.328125 3.894531 8.738281 3.894531 C 9.152344 3.894531 9.484375 4.230469 9.484375 4.640625 Z M 9.484375 4.640625 "/>
<path style=" stroke:none;fill-rule:nonzero;fill:rgb(19.607843%,19.607843%,19.607843%);fill-opacity:1;" d="M 9.109375 4.640625 C 9.109375 4.847656 8.945312 5.015625 8.738281 5.015625 C 8.53125 5.015625 8.363281 4.847656 8.363281 4.640625 C 8.363281 4.4375 8.53125 4.269531 8.738281 4.269531 C 8.945312 4.269531 9.109375 4.4375 9.109375 4.640625 Z M 9.109375 4.640625 "/>
<path style=" stroke:none;fill-rule:nonzero;fill:rgb(91.764706%,69.411765%,3.137255%);fill-opacity:1;" d="M 9.109375 5.636719 C 9.109375 5.761719 8.609375 6.507812 7.992188 6.507812 C 7.375 6.507812 6.875 5.761719 6.875 5.636719 C 6.875 5.292969 7.375 5.015625 7.992188 5.015625 C 8.609375 5.015625 9.109375 5.292969 9.109375 5.636719 Z M 9.109375 5.636719 "/>
<path style=" stroke:none;fill-rule:nonzero;fill:rgb(31.372549%,58.431373%,67.058824%);fill-opacity:1;" d="M 10.773438 10.628906 C 10.34375 10.628906 10.339844 10.273438 10.253906 9.851562 C 10.15625 9.382812 10.097656 9.113281 10.84375 9.074219 C 11.492188 8.859375 11.59375 10.605469 10.773438 10.628906 Z M 10.773438 10.628906 "/>
</g>
</svg>
