<?xml version="1.0" encoding="UTF-8"?>
<svg xmlns="http://www.w3.org/2000/svg" xmlns:xlink="http://www.w3.org/1999/xlink" width="16pt" height="16pt" viewBox="0 0 16 16" version="1.1">
<g id="surface1">
<path style=" stroke:none;fill-rule:evenodd;fill:rgb(55.686275%,55.686275%,55.686275%);fill-opacity:1;" d="M 3.734375 0.949219 L 12.265625 0.949219 C 13.800781 0.949219 15.050781 2.199219 15.050781 3.734375 L 15.050781 12.265625 C 15.050781 13.800781 13.800781 15.050781 12.265625 15.050781 L 3.734375 15.050781 C 2.199219 15.050781 0.949219 13.800781 0.949219 12.265625 L 0.949219 3.734375 C 0.949219 2.199219 2.199219 0.949219 3.734375 0.949219 Z M 3.734375 0.949219 "/>
<path style=" stroke:none;fill-rule:nonzero;fill:rgb(27.843137%,27.843137%,27.843137%);fill-opacity:1;" d="M 4.546875 3.867188 C 3.640625 3.867188 2.910156 4.597656 2.910156 5.507812 L 2.910156 9.851562 C 2.910156 10.757812 3.640625 11.488281 4.546875 11.488281 L 5.433594 11.488281 C 5.507812 12.046875 5.976562 12.472656 6.550781 12.472656 L 9.449219 12.472656 C 10.023438 12.472656 10.492188 12.046875 10.566406 11.488281 L 11.453125 11.488281 C 12.359375 11.488281 13.089844 10.757812 13.089844 9.851562 L 13.089844 5.507812 C 13.089844 4.597656 12.359375 3.867188 11.453125 3.867188 Z M 4.546875 3.867188 "/>
<path style=" stroke:none;fill-rule:nonzero;fill:rgb(13.72549%,13.72549%,13.72549%);fill-opacity:1;" d="M 4.609375 4.351562 L 11.390625 4.351562 C 12.078125 4.351562 12.632812 4.882812 12.632812 5.542969 L 12.632812 9.816406 C 12.632812 10.472656 12.078125 11.007812 11.390625 11.007812 L 4.609375 11.007812 C 3.921875 11.007812 3.367188 10.472656 3.367188 9.816406 L 3.367188 5.542969 C 3.367188 4.882812 3.921875 4.351562 4.609375 4.351562 Z M 4.609375 4.351562 "/>
</g>
</svg>
