<?xml version="1.0" encoding="UTF-8"?>
<svg xmlns="http://www.w3.org/2000/svg" xmlns:xlink="http://www.w3.org/1999/xlink" width="16pt" height="16pt" viewBox="0 0 16 16" version="1.1">
<g id="surface1">
<path style=" stroke:none;fill-rule:evenodd;fill:rgb(55.686275%,55.686275%,55.686275%);fill-opacity:1;" d="M 3.734375 0.949219 L 12.265625 0.949219 C 13.800781 0.949219 15.050781 2.199219 15.050781 3.734375 L 15.050781 12.265625 C 15.050781 13.800781 13.800781 15.050781 12.265625 15.050781 L 3.734375 15.050781 C 2.199219 15.050781 0.949219 13.800781 0.949219 12.265625 L 0.949219 3.734375 C 0.949219 2.199219 2.199219 0.949219 3.734375 0.949219 Z M 3.734375 0.949219 "/>
<path style=" stroke:none;fill-rule:nonzero;fill:rgb(30.980392%,30.980392%,30.980392%);fill-opacity:1;" d="M 11 2 C 9.066406 2 7.5 3.566406 7.5 5.5 C 7.5 7.433594 9.066406 9 11 9 C 12.933594 9 14.5 7.433594 14.5 5.5 C 14.5 3.566406 12.933594 2 11 2 Z M 5 7 C 3.066406 7 1.5 8.566406 1.5 10.5 C 1.5 12.433594 3.066406 14 5 14 C 6.933594 14 8.5 12.433594 8.5 10.5 C 8.5 8.566406 6.933594 7 5 7 Z M 5 7 "/>
</g>
</svg>
