<?xml version="1.0" encoding="UTF-8"?>
<svg xmlns="http://www.w3.org/2000/svg" xmlns:xlink="http://www.w3.org/1999/xlink" width="16pt" height="16pt" viewBox="0 0 16 16" version="1.1">
<g id="surface1">
<path style=" stroke:none;fill-rule:evenodd;fill:rgb(54.509804%,76.470588%,29.019608%);fill-opacity:1;" d="M 3.734375 0.949219 L 12.265625 0.949219 C 13.800781 0.949219 15.050781 2.199219 15.050781 3.734375 L 15.050781 12.265625 C 15.050781 13.800781 13.800781 15.050781 12.265625 15.050781 L 3.734375 15.050781 C 2.199219 15.050781 0.949219 13.800781 0.949219 12.265625 L 0.949219 3.734375 C 0.949219 2.199219 2.199219 0.949219 3.734375 0.949219 Z M 3.734375 0.949219 "/>
<path style=" stroke:none;fill-rule:nonzero;fill:rgb(100%,100%,100%);fill-opacity:1;" d="M 12.664062 7 L 10.164062 7 L 10.164062 8.5 L 11.664062 8.5 L 8.914062 11.75 L 6.414062 8.5 L 7.664062 8.5 L 7.664062 5 L 10.164062 5 L 10.164062 6 L 12.664062 6 L 12.664062 5 C 12.664062 5 12.664062 3 10.789062 3 L 7.039062 3 C 7.039062 3 5.164062 3 5.164062 5.125 L 5.164062 9 L 4.164062 9 L 4.164062 5.5 L 2.664062 5.5 L 2.664062 9.25 C 2.664062 10.5 3.914062 10.5 3.914062 10.5 L 5.164062 10.5 L 5.164062 11.125 C 5.164062 13 7.039062 13 7.039062 13 L 10.789062 13 C 12.664062 13 12.664062 11.125 12.664062 11.125 "/>
</g>
</svg>
