<?xml version="1.0" encoding="UTF-8"?>
<svg xmlns="http://www.w3.org/2000/svg" xmlns:xlink="http://www.w3.org/1999/xlink" width="16pt" height="16pt" viewBox="0 0 16 16" version="1.1">
<g id="surface1">
<path style=" stroke:none;fill-rule:evenodd;fill:rgb(29.803922%,34.901961%,41.176471%);fill-opacity:1;" d="M 3.734375 0.949219 L 12.265625 0.949219 C 13.800781 0.949219 15.050781 2.199219 15.050781 3.734375 L 15.050781 12.265625 C 15.050781 13.800781 13.800781 15.050781 12.265625 15.050781 L 3.734375 15.050781 C 2.199219 15.050781 0.949219 13.800781 0.949219 12.265625 L 0.949219 3.734375 C 0.949219 2.199219 2.199219 0.949219 3.734375 0.949219 Z M 3.734375 0.949219 "/>
<path style=" stroke:none;fill-rule:nonzero;fill:rgb(100%,100%,100%);fill-opacity:1;" d="M 8.769531 8 L 10.386719 5.128906 L 11.152344 8 L 10.386719 10.871094 Z M 7.984375 8.632812 L 9.597656 11.335938 L 6.785156 10.59375 L 4.753906 8.632812 Z M 9.597656 4.664062 L 7.984375 7.683594 L 4.753906 7.683594 L 6.785156 5.40625 Z M 11.902344 7 L 10.917969 3.25 L 7.242188 4.261719 L 6.699219 5.246094 L 5.59375 5.238281 L 2.902344 8 L 5.59375 10.761719 L 6.699219 10.753906 L 7.242188 11.738281 L 10.917969 12.75 L 11.902344 9 L 11.402344 8 "/>
</g>
</svg>
