<?xml version="1.0" encoding="UTF-8"?>
<svg xmlns="http://www.w3.org/2000/svg" xmlns:xlink="http://www.w3.org/1999/xlink" width="16pt" height="16pt" viewBox="0 0 16 16" version="1.1">
<g id="surface1">
<path style=" stroke:none;fill-rule:evenodd;fill:rgb(55.686275%,55.686275%,55.686275%);fill-opacity:1;" d="M 3.734375 0.949219 L 12.265625 0.949219 C 13.800781 0.949219 15.050781 2.199219 15.050781 3.734375 L 15.050781 12.265625 C 15.050781 13.800781 13.800781 15.050781 12.265625 15.050781 L 3.734375 15.050781 C 2.199219 15.050781 0.949219 13.800781 0.949219 12.265625 L 0.949219 3.734375 C 0.949219 2.199219 2.199219 0.949219 3.734375 0.949219 Z M 3.734375 0.949219 "/>
<path style=" stroke:none;fill-rule:evenodd;fill:rgb(97.647059%,97.647059%,97.647059%);fill-opacity:1;" d="M 13.566406 8.246094 L 2.433594 8.246094 L 8 2.175781 Z M 13.566406 8.246094 "/>
<path style=" stroke:none;fill-rule:evenodd;fill:rgb(97.647059%,97.647059%,97.647059%);fill-opacity:1;" d="M 5.9375 13.488281 L 5.9375 7.421875 C 5.9375 7.234375 6.175781 7.085938 6.46875 7.085938 L 9.632812 7.085938 C 9.921875 7.085938 10.160156 7.234375 10.160156 7.421875 L 10.160156 13.488281 C 10.160156 13.671875 9.921875 13.824219 9.632812 13.824219 L 6.46875 13.824219 C 6.175781 13.824219 5.9375 13.671875 5.9375 13.488281 Z M 5.9375 13.488281 "/>
</g>
</svg>
