<?xml version="1.0" encoding="UTF-8"?>
<svg xmlns="http://www.w3.org/2000/svg" xmlns:xlink="http://www.w3.org/1999/xlink" width="16pt" height="16pt" viewBox="0 0 16 16" version="1.1">
<g id="surface1">
<path style=" stroke:none;fill-rule:evenodd;fill:rgb(16.470588%,45.490196%,76.078431%);fill-opacity:1;" d="M 3.734375 0.949219 L 12.265625 0.949219 C 13.800781 0.949219 15.050781 2.199219 15.050781 3.734375 L 15.050781 12.265625 C 15.050781 13.800781 13.800781 15.050781 12.265625 15.050781 L 3.734375 15.050781 C 2.199219 15.050781 0.949219 13.800781 0.949219 12.265625 L 0.949219 3.734375 C 0.949219 2.199219 2.199219 0.949219 3.734375 0.949219 Z M 3.734375 0.949219 "/>
<path style=" stroke:none;fill-rule:nonzero;fill:rgb(100%,100%,100%);fill-opacity:1;" d="M 2.097656 6.0625 L 4.363281 5.457031 L 5.578125 9.988281 L 3.3125 10.597656 Z M 2.097656 6.0625 "/>
<path style=" stroke:none;fill-rule:nonzero;fill:rgb(100%,100%,100%);fill-opacity:1;" d="M 3.410156 10.972656 L 5.679688 10.367188 L 5.984375 11.5 L 3.714844 12.109375 Z M 3.410156 10.972656 "/>
<path style=" stroke:none;fill-rule:nonzero;fill:rgb(69.019608%,69.019608%,69.019608%);fill-opacity:1;" d="M 2.574219 6.339844 L 4.085938 5.9375 L 5.097656 9.714844 L 3.585938 10.117188 Z M 2.574219 6.339844 "/>
<path style=" stroke:none;fill-rule:nonzero;fill:rgb(69.019608%,69.019608%,69.019608%);fill-opacity:1;" d="M 3.890625 11.25 L 5.402344 10.84375 L 5.503906 11.222656 L 3.992188 11.628906 Z M 3.890625 11.25 "/>
<path style=" stroke:none;fill-rule:nonzero;fill:rgb(100%,100%,100%);fill-opacity:1;" d="M 8.015625 3.5 L 10.28125 4.109375 L 9.070312 8.640625 L 6.800781 8.035156 Z M 8.015625 3.5 "/>
<path style=" stroke:none;fill-rule:nonzero;fill:rgb(100%,100%,100%);fill-opacity:1;" d="M 6.703125 8.410156 L 8.96875 9.019531 L 8.664062 10.152344 L 6.398438 9.546875 Z M 6.703125 8.410156 "/>
<path style=" stroke:none;fill-rule:nonzero;fill:rgb(69.019608%,69.019608%,69.019608%);fill-opacity:1;" d="M 8.292969 3.980469 L 9.804688 4.386719 L 8.792969 8.164062 L 7.28125 7.757812 Z M 8.292969 3.980469 "/>
<path style=" stroke:none;fill-rule:nonzero;fill:rgb(69.019608%,69.019608%,69.019608%);fill-opacity:1;" d="M 6.976562 8.890625 L 8.488281 9.296875 L 8.386719 9.671875 L 6.875 9.269531 Z M 6.976562 8.890625 "/>
<path style=" stroke:none;fill-rule:nonzero;fill:rgb(100%,100%,100%);fill-opacity:1;" d="M 11.871094 5.90625 L 13.902344 7.078125 L 11.558594 11.144531 L 9.527344 9.96875 Z M 11.871094 5.90625 "/>
<path style=" stroke:none;fill-rule:nonzero;fill:rgb(100%,100%,100%);fill-opacity:1;" d="M 9.328125 10.308594 L 11.363281 11.484375 L 10.777344 12.5 L 8.742188 11.324219 Z M 9.328125 10.308594 "/>
<path style=" stroke:none;fill-rule:nonzero;fill:rgb(69.019608%,69.019608%,69.019608%);fill-opacity:1;" d="M 12.015625 6.441406 L 13.371094 7.222656 L 11.414062 10.609375 L 10.058594 9.828125 Z M 12.015625 6.441406 "/>
<path style=" stroke:none;fill-rule:nonzero;fill:rgb(69.019608%,69.019608%,69.019608%);fill-opacity:1;" d="M 9.472656 10.84375 L 10.828125 11.625 L 10.632812 11.964844 L 9.277344 11.183594 Z M 9.472656 10.84375 "/>
</g>
</svg>
