<?xml version="1.0" encoding="UTF-8"?>
<svg xmlns="http://www.w3.org/2000/svg" xmlns:xlink="http://www.w3.org/1999/xlink" width="16pt" height="16pt" viewBox="0 0 16 16" version="1.1">
<g id="surface1">
<path style=" stroke:none;fill-rule:evenodd;fill:rgb(30.980392%,30.980392%,30.980392%);fill-opacity:1;" d="M 3.734375 0.949219 L 12.265625 0.949219 C 13.800781 0.949219 15.050781 2.199219 15.050781 3.734375 L 15.050781 12.265625 C 15.050781 13.800781 13.800781 15.050781 12.265625 15.050781 L 3.734375 15.050781 C 2.199219 15.050781 0.949219 13.800781 0.949219 12.265625 L 0.949219 3.734375 C 0.949219 2.199219 2.199219 0.949219 3.734375 0.949219 Z M 3.734375 0.949219 "/>
<path style=" stroke:none;fill-rule:nonzero;fill:rgb(34.509804%,100%,0%);fill-opacity:1;" d="M 4.503906 3.328125 L 4.503906 3.828125 L 4.253906 3.828125 C 3.839844 3.828125 3.503906 4.160156 3.503906 4.578125 C 3.503906 4.992188 3.839844 5.328125 4.253906 5.328125 L 4.503906 5.328125 L 4.503906 5.828125 L 3.546875 5.828125 C 3.652344 6.117188 3.925781 6.328125 4.253906 6.328125 L 4.503906 6.328125 L 4.503906 6.828125 L 5.003906 6.828125 L 5.003906 6.328125 L 5.253906 6.328125 C 5.667969 6.328125 6.003906 5.992188 6.003906 5.578125 C 6.003906 5.160156 5.667969 4.828125 5.253906 4.828125 L 5.003906 4.828125 L 5.003906 4.328125 L 5.957031 4.328125 C 5.855469 4.035156 5.578125 3.828125 5.253906 3.828125 L 5.003906 3.828125 L 5.003906 3.328125 Z M 4.253906 4.328125 L 4.503906 4.328125 L 4.503906 4.828125 L 4.253906 4.828125 C 4.113281 4.828125 4.003906 4.714844 4.003906 4.578125 C 4.003906 4.4375 4.113281 4.328125 4.253906 4.328125 Z M 5.003906 5.328125 L 5.253906 5.328125 C 5.390625 5.328125 5.503906 5.4375 5.503906 5.578125 C 5.503906 5.714844 5.390625 5.832031 5.253906 5.828125 L 5.003906 5.828125 Z M 7.003906 6.328125 L 7.003906 6.828125 L 10.003906 6.828125 L 10.003906 6.328125 Z M 7.003906 6.328125 "/>
</g>
</svg>
