<?xml version="1.0" encoding="UTF-8"?>
<svg xmlns="http://www.w3.org/2000/svg" xmlns:xlink="http://www.w3.org/1999/xlink" width="16pt" height="16pt" viewBox="0 0 16 16" version="1.1">
<g id="surface1">
<path style=" stroke:none;fill-rule:evenodd;fill:rgb(91.372549%,29.019608%,38.823529%);fill-opacity:1;" d="M 3.765625 1 L 12.234375 1 C 13.761719 1 15 2.238281 15 3.765625 L 15 12.234375 C 15 13.761719 13.761719 15 12.234375 15 L 3.765625 15 C 2.238281 15 1 13.761719 1 12.234375 L 1 3.765625 C 1 2.238281 2.238281 1 3.765625 1 Z M 3.765625 1 "/>
<path style=" stroke:none;fill-rule:nonzero;fill:rgb(64.313725%,20.392157%,27.058824%);fill-opacity:1;" d="M 4.492188 4.125 C 4.128906 4.125 3.835938 4.414062 3.835938 4.78125 L 3.835938 11.34375 C 3.835938 11.703125 4.128906 12 4.492188 12 C 4.855469 12 5.148438 11.703125 5.148438 11.34375 L 5.148438 4.78125 C 5.148438 4.414062 4.855469 4.125 4.492188 4.125 Z M 4.492188 4.125 "/>
<path style=" stroke:none;fill-rule:nonzero;fill:rgb(100%,100%,100%);fill-opacity:1;" d="M 5.585938 6.53125 C 5.585938 7.132812 5.097656 7.625 4.492188 7.625 C 3.890625 7.625 3.398438 7.132812 3.398438 6.53125 C 3.398438 5.925781 3.890625 5.4375 4.492188 5.4375 C 5.097656 5.4375 5.585938 5.925781 5.585938 6.53125 Z M 5.585938 6.53125 "/>
<path style=" stroke:none;fill-rule:nonzero;fill:rgb(64.313725%,20.392157%,27.058824%);fill-opacity:1;" d="M 11.492188 4.125 C 11.128906 4.125 10.835938 4.414062 10.835938 4.78125 L 10.835938 11.34375 C 10.835938 11.703125 11.128906 12 11.492188 12 C 11.855469 12 12.148438 11.703125 12.148438 11.34375 L 12.148438 4.78125 C 12.148438 4.414062 11.855469 4.125 11.492188 4.125 Z M 11.492188 4.125 "/>
<path style=" stroke:none;fill-rule:nonzero;fill:rgb(100%,100%,100%);fill-opacity:1;" d="M 12.585938 7.84375 C 12.585938 8.445312 12.097656 8.9375 11.492188 8.9375 C 10.890625 8.9375 10.398438 8.445312 10.398438 7.84375 C 10.398438 7.238281 10.890625 6.75 11.492188 6.75 C 12.097656 6.75 12.585938 7.238281 12.585938 7.84375 Z M 12.585938 7.84375 "/>
<path style=" stroke:none;fill-rule:nonzero;fill:rgb(64.313725%,20.392157%,27.058824%);fill-opacity:1;" d="M 7.992188 4.125 C 7.628906 4.125 7.335938 4.414062 7.335938 4.78125 L 7.335938 11.34375 C 7.335938 11.703125 7.628906 12 7.992188 12 C 8.355469 12 8.648438 11.703125 8.648438 11.34375 L 8.648438 4.78125 C 8.648438 4.414062 8.355469 4.125 7.992188 4.125 Z M 7.992188 4.125 "/>
<path style=" stroke:none;fill-rule:nonzero;fill:rgb(100%,100%,100%);fill-opacity:1;" d="M 9.085938 9.59375 C 9.085938 10.195312 8.597656 10.6875 7.992188 10.6875 C 7.390625 10.6875 6.898438 10.195312 6.898438 9.59375 C 6.898438 8.988281 7.390625 8.5 7.992188 8.5 C 8.597656 8.5 9.085938 8.988281 9.085938 9.59375 Z M 9.085938 9.59375 "/>
</g>
</svg>
