<?xml version="1.0" encoding="UTF-8"?>
<svg xmlns="http://www.w3.org/2000/svg" xmlns:xlink="http://www.w3.org/1999/xlink" width="16pt" height="16pt" viewBox="0 0 16 16" version="1.1">
<g id="surface1">
<path style=" stroke:none;fill-rule:evenodd;fill:rgb(30.980392%,30.980392%,30.980392%);fill-opacity:1;" d="M 3.734375 0.949219 L 12.265625 0.949219 C 13.800781 0.949219 15.050781 2.199219 15.050781 3.734375 L 15.050781 12.265625 C 15.050781 13.800781 13.800781 15.050781 12.265625 15.050781 L 3.734375 15.050781 C 2.199219 15.050781 0.949219 13.800781 0.949219 12.265625 L 0.949219 3.734375 C 0.949219 2.199219 2.199219 0.949219 3.734375 0.949219 Z M 3.734375 0.949219 "/>
<path style=" stroke:none;fill-rule:nonzero;fill:rgb(100%,100%,100%);fill-opacity:1;" d="M 8 2.972656 C 6.550781 2.972656 5.582031 3.980469 5.582031 5.449219 L 5.582031 6.992188 L 4.566406 6.992188 C 4.566406 6.992188 4.132812 6.996094 4.132812 7.496094 L 4.132812 12.523438 C 4.132812 13.027344 4.566406 13.027344 4.566406 13.027344 L 11.433594 13.027344 C 11.433594 13.027344 11.867188 13.027344 11.867188 12.523438 L 11.867188 7.496094 C 11.867188 6.996094 11.433594 6.992188 11.433594 6.992188 L 10.417969 6.996094 L 10.414062 5.433594 C 10.417969 3.980469 9.449219 2.972656 8 2.972656 Z M 8 2.972656 "/>
<path style=" stroke:none;fill-rule:nonzero;fill:rgb(30.980392%,30.980392%,30.980392%);fill-opacity:1;" d="M 8 4.132812 C 8.855469 4.132812 9.546875 4.8125 9.546875 5.667969 C 9.546875 6.699219 8.453125 7.984375 8.191406 8 C 8.191406 8 8.300781 7.214844 8 7.214844 C 7.144531 7.214844 6.453125 6.519531 6.453125 5.667969 C 6.453125 4.8125 7.144531 4.132812 8 4.132812 Z M 8 4.132812 "/>
<path style=" stroke:none;fill-rule:nonzero;fill:rgb(30.980392%,30.980392%,30.980392%);fill-opacity:1;" d="M 8 8.773438 C 8.480469 8.773438 8.871094 9.164062 8.871094 9.640625 C 8.871094 10.050781 8.589844 10.390625 8.210938 10.484375 L 8.289062 10.484375 C 8.578125 10.484375 8.757812 10.75 8.929688 10.984375 C 9.09375 11.203125 9.160156 11.503906 9.160156 11.617188 L 9.160156 11.816406 C 9.160156 11.824219 9.160156 11.828125 9.160156 11.835938 C 9.160156 12.066406 8.972656 12.253906 8.738281 12.253906 L 7.261719 12.253906 C 7.027344 12.253906 6.839844 12.066406 6.839844 11.835938 C 6.839844 11.828125 6.84375 11.824219 6.84375 11.816406 C 6.839844 11.816406 6.839844 11.71875 6.839844 11.617188 C 6.839844 11.503906 6.890625 11.195312 7.046875 10.972656 C 7.210938 10.734375 7.421875 10.484375 7.710938 10.484375 L 7.789062 10.484375 C 7.410156 10.390625 7.128906 10.050781 7.128906 9.640625 C 7.128906 9.164062 7.519531 8.773438 8 8.773438 Z M 8 8.773438 "/>
</g>
</svg>
