<?xml version="1.0" encoding="UTF-8"?>
<svg xmlns="http://www.w3.org/2000/svg" xmlns:xlink="http://www.w3.org/1999/xlink" width="16pt" height="16pt" viewBox="0 0 16 16" version="1.1">
<g id="surface1">
<path style=" stroke:none;fill-rule:evenodd;fill:rgb(55.686275%,55.686275%,55.686275%);fill-opacity:1;" d="M 3.734375 0.949219 L 12.265625 0.949219 C 13.800781 0.949219 15.050781 2.199219 15.050781 3.734375 L 15.050781 12.265625 C 15.050781 13.800781 13.800781 15.050781 12.265625 15.050781 L 3.734375 15.050781 C 2.199219 15.050781 0.949219 13.800781 0.949219 12.265625 L 0.949219 3.734375 C 0.949219 2.199219 2.199219 0.949219 3.734375 0.949219 Z M 3.734375 0.949219 "/>
<path style=" stroke:none;fill-rule:nonzero;fill:rgb(27.843137%,27.843137%,27.843137%);fill-opacity:1;" d="M 4.546875 3.699219 C 3.640625 3.699219 2.910156 4.429688 2.910156 5.335938 L 2.910156 9.679688 C 2.910156 10.589844 3.640625 11.320312 4.546875 11.320312 L 5.433594 11.320312 C 5.507812 11.875 5.976562 12.300781 6.550781 12.300781 L 9.449219 12.300781 C 10.023438 12.300781 10.492188 11.875 10.566406 11.320312 L 11.453125 11.320312 C 12.359375 11.320312 13.089844 10.589844 13.089844 9.679688 L 13.089844 5.335938 C 13.089844 4.429688 12.359375 3.699219 11.453125 3.699219 Z M 4.546875 3.699219 "/>
<path style=" stroke:none;fill-rule:nonzero;fill:rgb(13.72549%,13.72549%,13.72549%);fill-opacity:1;" d="M 4.609375 4.179688 L 11.390625 4.179688 C 12.078125 4.179688 12.632812 4.714844 12.632812 5.371094 L 12.632812 9.644531 C 12.632812 10.304688 12.078125 10.835938 11.390625 10.835938 L 4.609375 10.835938 C 3.921875 10.835938 3.367188 10.304688 3.367188 9.644531 L 3.367188 5.371094 C 3.367188 4.714844 3.921875 4.179688 4.609375 4.179688 Z M 4.609375 4.179688 "/>
<path style=" stroke:none;fill-rule:nonzero;fill:rgb(75.294118%,79.215686%,20%);fill-opacity:1;" d="M 9.648438 6.015625 C 9.238281 6.015625 8.90625 6.347656 8.90625 6.761719 C 8.90625 7.171875 9.238281 7.503906 9.648438 7.503906 C 10.0625 7.503906 10.394531 7.171875 10.394531 6.761719 C 10.394531 6.347656 10.0625 6.015625 9.648438 6.015625 Z M 9.648438 6.015625 "/>
<path style=" stroke:none;fill-rule:nonzero;fill:rgb(75.294118%,79.215686%,20%);fill-opacity:1;" d="M 6.367188 8.445312 C 5.546875 8.445312 4.730469 9.039062 4.730469 10.546875 L 4.730469 10.824219 L 11.273438 10.824219 C 11.273438 10.824219 10.730469 9.039062 9.910156 9.039062 C 9.09375 9.039062 9.09375 9.933594 8.546875 9.933594 C 8 9.933594 7.183594 8.445312 6.367188 8.445312 Z M 6.367188 8.445312 "/>
</g>
</svg>
