<?xml version="1.0" encoding="UTF-8"?>
<svg xmlns="http://www.w3.org/2000/svg" xmlns:xlink="http://www.w3.org/1999/xlink" width="16pt" height="16pt" viewBox="0 0 16 16" version="1.1">
<g id="surface1">
<path style=" stroke:none;fill-rule:evenodd;fill:rgb(49.019608%,32.156863%,61.568627%);fill-opacity:1;" d="M 3.734375 0.949219 L 12.265625 0.949219 C 13.800781 0.949219 15.050781 2.199219 15.050781 3.734375 L 15.050781 12.265625 C 15.050781 13.800781 13.800781 15.050781 12.265625 15.050781 L 3.734375 15.050781 C 2.199219 15.050781 0.949219 13.800781 0.949219 12.265625 L 0.949219 3.734375 C 0.949219 2.199219 2.199219 0.949219 3.734375 0.949219 Z M 3.734375 0.949219 "/>
<path style=" stroke:none;fill-rule:nonzero;fill:rgb(100%,100%,100%);fill-opacity:1;" d="M 8.6875 4 C 8.511719 4 8.363281 4.140625 8.363281 4.3125 C 8.363281 4.480469 8.507812 4.625 8.6875 4.625 C 9.449219 4.632812 10.078125 4.875 10.582031 5.347656 C 11.082031 5.820312 11.34375 6.472656 11.351562 7.328125 C 11.351562 7.496094 11.5 7.636719 11.675781 7.636719 C 11.675781 7.636719 11.679688 7.636719 11.679688 7.636719 C 11.855469 7.632812 12 7.492188 12 7.320312 C 11.996094 6.824219 11.914062 6.367188 11.757812 5.964844 C 11.597656 5.558594 11.355469 5.199219 11.035156 4.898438 C 10.410156 4.3125 9.609375 4.007812 8.6875 4 Z M 5.40625 4.734375 C 5.28125 4.714844 5.152344 4.738281 5.015625 4.800781 L 5.007812 4.800781 L 4.992188 4.8125 C 4.746094 4.949219 4.515625 5.140625 4.296875 5.375 L 4.28125 5.390625 L 4.28125 5.410156 C 4.128906 5.597656 4.03125 5.785156 4.007812 5.972656 C 4 6.003906 4 6.035156 4 6.066406 C 4 6.152344 4.011719 6.238281 4.039062 6.324219 L 4.046875 6.347656 L 4.0625 6.359375 C 4.148438 6.652344 4.339844 7.109375 4.765625 7.882812 C 5.050781 8.394531 5.339844 8.824219 5.625 9.1875 C 5.777344 9.375 5.949219 9.574219 6.148438 9.773438 C 6.152344 9.773438 6.160156 9.78125 6.167969 9.792969 C 6.171875 9.796875 6.175781 9.800781 6.1875 9.8125 L 6.207031 9.832031 C 6.214844 9.839844 6.21875 9.84375 6.21875 9.84375 L 6.222656 9.851562 L 6.226562 9.855469 C 6.425781 10.050781 6.625 10.222656 6.816406 10.375 C 7.175781 10.660156 7.605469 10.953125 8.117188 11.234375 C 8.894531 11.664062 9.355469 11.859375 9.648438 11.941406 L 9.65625 11.953125 L 9.675781 11.960938 C 9.757812 11.988281 9.84375 12 9.929688 12 C 9.964844 12 9.996094 12 10.023438 11.992188 C 10.222656 11.96875 10.421875 11.875 10.617188 11.710938 L 10.621094 11.707031 L 10.625 11.707031 C 10.625 11.703125 10.625 11.703125 10.625 11.703125 C 10.625 11.703125 10.628906 11.699219 10.628906 11.699219 C 10.863281 11.484375 11.050781 11.253906 11.191406 11.007812 L 11.199219 10.992188 L 11.199219 10.976562 C 11.328125 10.707031 11.277344 10.433594 11.066406 10.257812 C 11.0625 10.253906 10.960938 10.167969 10.835938 10.066406 C 10.707031 9.960938 10.554688 9.839844 10.453125 9.765625 C 10.257812 9.621094 9.957031 9.433594 9.789062 9.339844 L 9.785156 9.339844 C 9.457031 9.15625 9.113281 9.261719 8.964844 9.457031 L 8.699219 9.789062 C 8.59375 9.921875 8.378906 9.910156 8.375 9.910156 C 6.578125 9.449219 6.09375 7.640625 6.089844 7.628906 C 6.089844 7.625 6.078125 7.410156 6.210938 7.300781 L 6.542969 7.035156 C 6.738281 6.886719 6.847656 6.542969 6.664062 6.214844 C 6.566406 6.042969 6.378906 5.742188 6.238281 5.546875 C 6.160156 5.445312 6.039062 5.292969 5.933594 5.164062 C 5.882812 5.097656 5.835938 5.042969 5.800781 5 C 5.78125 4.976562 5.769531 4.960938 5.757812 4.949219 C 5.753906 4.941406 5.75 4.9375 5.746094 4.9375 C 5.746094 4.933594 5.746094 4.933594 5.742188 4.933594 C 5.652344 4.824219 5.535156 4.757812 5.40625 4.734375 Z M 8.707031 5.453125 C 8.53125 5.441406 8.375 5.574219 8.363281 5.738281 C 8.351562 5.90625 8.484375 6.058594 8.660156 6.070312 C 9.089844 6.097656 9.375 6.226562 9.59375 6.453125 C 9.816406 6.6875 9.917969 6.957031 9.90625 7.320312 L 9.90625 7.324219 C 9.90625 7.492188 10.046875 7.632812 10.21875 7.636719 L 10.226562 7.636719 C 10.398438 7.636719 10.542969 7.5 10.546875 7.335938 C 10.558594 6.832031 10.390625 6.386719 10.0625 6.039062 C 9.734375 5.691406 9.265625 5.496094 8.703125 5.453125 Z M 8.707031 5.453125 "/>
</g>
</svg>
