<?xml version="1.0" encoding="UTF-8"?>
<svg xmlns="http://www.w3.org/2000/svg" xmlns:xlink="http://www.w3.org/1999/xlink" width="16pt" height="16pt" viewBox="0 0 16 16" version="1.1">
<g id="surface1">
<path style=" stroke:none;fill-rule:evenodd;fill:rgb(30.980392%,30.980392%,30.980392%);fill-opacity:1;" d="M 3.734375 0.949219 L 12.265625 0.949219 C 13.800781 0.949219 15.050781 2.199219 15.050781 3.734375 L 15.050781 12.265625 C 15.050781 13.800781 13.800781 15.050781 12.265625 15.050781 L 3.734375 15.050781 C 2.199219 15.050781 0.949219 13.800781 0.949219 12.265625 L 0.949219 3.734375 C 0.949219 2.199219 2.199219 0.949219 3.734375 0.949219 Z M 3.734375 0.949219 "/>
<path style=" stroke:none;fill-rule:nonzero;fill:rgb(41.568627%,14.509804%,21.568627%);fill-opacity:1;" d="M 2.25 6 L 3.863281 10 L 5.011719 10 L 6.601562 6 L 5.511719 6 L 4.425781 8.636719 L 3.351562 6 Z M 2.25 6 "/>
<path style=" stroke:none;fill-rule:nonzero;fill:rgb(65.098039%,66.666667%,67.843137%);fill-opacity:0.941176;" d="M 7.664062 6 C 7.121094 7.339844 6.570312 8.671875 6 10 L 7.148438 10 L 8.226562 7.375 L 9.289062 10 L 10.4375 10 L 11.5 7.300781 L 12.601562 10 L 13.75 10 C 13.179688 8.671875 12.617188 7.339844 12.074219 6 L 10.925781 6 L 9.863281 8.636719 L 8.773438 6 Z M 7.664062 6 "/>
</g>
</svg>
