<?xml version="1.0" encoding="UTF-8"?>
<svg xmlns="http://www.w3.org/2000/svg" xmlns:xlink="http://www.w3.org/1999/xlink" width="16pt" height="16pt" viewBox="0 0 16 16" version="1.1">
<g id="surface1">
<path style=" stroke:none;fill-rule:evenodd;fill:rgb(38.039216%,51.764706%,65.098039%);fill-opacity:1;" d="M 3.734375 0.949219 L 12.265625 0.949219 C 13.800781 0.949219 15.050781 2.199219 15.050781 3.734375 L 15.050781 12.265625 C 15.050781 13.800781 13.800781 15.050781 12.265625 15.050781 L 3.734375 15.050781 C 2.199219 15.050781 0.949219 13.800781 0.949219 12.265625 L 0.949219 3.734375 C 0.949219 2.199219 2.199219 0.949219 3.734375 0.949219 Z M 3.734375 0.949219 "/>
<path style=" stroke:none;fill-rule:evenodd;fill:rgb(100%,100%,100%);fill-opacity:1;" d="M 7.882812 11.222656 L 8.539062 11.222656 C 8.539062 11.222656 8.738281 11.199219 8.839844 11.085938 C 8.933594 10.984375 8.929688 10.789062 8.929688 10.789062 C 8.929688 10.789062 8.917969 9.875 9.328125 9.738281 C 9.730469 9.605469 10.25 10.621094 10.796875 11.015625 C 11.214844 11.308594 11.53125 11.242188 11.53125 11.242188 L 13 11.222656 C 13 11.222656 13.765625 11.171875 13.402344 10.546875 C 13.371094 10.496094 13.1875 10.085938 12.308594 9.238281 C 11.390625 8.355469 11.511719 8.496094 12.621094 6.964844 C 13.296875 6.03125 13.566406 5.460938 13.484375 5.21875 C 13.402344 4.984375 12.90625 5.046875 12.90625 5.046875 L 11.25 5.058594 C 11.25 5.058594 11.128906 5.042969 11.039062 5.097656 C 10.949219 5.152344 10.890625 5.28125 10.890625 5.28125 C 10.890625 5.28125 10.628906 6.003906 10.28125 6.617188 C 9.546875 7.910156 9.25 7.980469 9.128906 7.902344 C 8.847656 7.714844 8.917969 7.148438 8.917969 6.746094 C 8.917969 5.488281 9.101562 4.96875 8.5625 4.832031 C 8.382812 4.785156 8.25 4.757812 7.789062 4.75 C 7.199219 4.746094 6.699219 4.753906 6.417969 4.898438 C 6.230469 4.992188 6.082031 5.203125 6.171875 5.21875 C 6.28125 5.234375 6.53125 5.285156 6.660156 5.472656 C 6.828125 5.710938 6.824219 6.246094 6.824219 6.246094 C 6.824219 6.246094 6.921875 7.722656 6.59375 7.90625 C 6.375 8.035156 6.066406 7.777344 5.410156 6.601562 C 5.074219 6 4.820312 5.335938 4.820312 5.335938 C 4.820312 5.335938 4.769531 5.210938 4.683594 5.144531 C 4.578125 5.0625 4.429688 5.035156 4.429688 5.035156 L 2.859375 5.046875 C 2.859375 5.046875 2.625 5.054688 2.535156 5.160156 C 2.457031 5.253906 2.53125 5.453125 2.53125 5.453125 C 2.53125 5.453125 3.761719 8.433594 5.152344 9.9375 C 6.429688 11.3125 7.882812 11.222656 7.882812 11.222656 "/>
</g>
</svg>
