<?xml version="1.0" encoding="UTF-8"?>
<svg xmlns="http://www.w3.org/2000/svg" xmlns:xlink="http://www.w3.org/1999/xlink" width="16pt" height="16pt" viewBox="0 0 16 16" version="1.1">
<g id="surface1">
<path style=" stroke:none;fill-rule:evenodd;fill:rgb(30.588235%,56.862745%,85.098039%);fill-opacity:1;" d="M 3.734375 0.949219 L 12.265625 0.949219 C 13.800781 0.949219 15.050781 2.199219 15.050781 3.734375 L 15.050781 12.265625 C 15.050781 13.800781 13.800781 15.050781 12.265625 15.050781 L 3.734375 15.050781 C 2.199219 15.050781 0.949219 13.800781 0.949219 12.265625 L 0.949219 3.734375 C 0.949219 2.199219 2.199219 0.949219 3.734375 0.949219 Z M 3.734375 0.949219 "/>
<path style=" stroke:none;fill-rule:nonzero;fill:rgb(100%,67.843137%,32.54902%);fill-opacity:1;" d="M 10.25 13 C 10.664062 13 11 12.664062 11 12.25 L 11 5.75 C 11 5.335938 10.664062 5 10.25 5 L 3.75 5 C 3.335938 5 3 5.335938 3 5.75 L 3 12.25 C 3 12.664062 3.335938 13 3.75 13 Z M 9 11 L 5 11 L 5 7 L 9 7 Z M 9 11 "/>
<path style=" stroke:none;fill-rule:nonzero;fill:rgb(63.921569%,79.215686%,96.470588%);fill-opacity:1;" d="M 12.25 11 C 12.664062 11 13 10.664062 13 10.25 L 13 3.75 C 13 3.335938 12.664062 3 12.25 3 L 5.75 3 C 5.335938 3 5 3.335938 5 3.75 L 5 5 L 11 5 L 11 9 L 7 9 L 7 7 L 5 7 L 5 10.25 C 5 10.664062 5.335938 11 5.75 11 Z M 12.25 11 "/>
</g>
</svg>
