<?xml version="1.0" encoding="UTF-8"?>
<svg xmlns="http://www.w3.org/2000/svg" xmlns:xlink="http://www.w3.org/1999/xlink" width="16pt" height="16pt" viewBox="0 0 16 16" version="1.1">
<g id="surface1">
<path style=" stroke:none;fill-rule:evenodd;fill:rgb(30.588235%,56.862745%,85.098039%);fill-opacity:1;" d="M 3.734375 0.949219 L 12.265625 0.949219 C 13.800781 0.949219 15.050781 2.199219 15.050781 3.734375 L 15.050781 12.265625 C 15.050781 13.800781 13.800781 15.050781 12.265625 15.050781 L 3.734375 15.050781 C 2.199219 15.050781 0.949219 13.800781 0.949219 12.265625 L 0.949219 3.734375 C 0.949219 2.199219 2.199219 0.949219 3.734375 0.949219 Z M 3.734375 0.949219 "/>
<path style=" stroke:none;fill-rule:nonzero;fill:rgb(98.039216%,90.196078%,58.431373%);fill-opacity:1;" d="M 3.714844 3 C 3.320312 3 3 3.320312 3 3.714844 L 3 6.929688 C 3 7.324219 3.320312 7.640625 3.714844 7.640625 C 4.109375 7.640625 4.429688 7.324219 4.429688 6.929688 L 4.429688 5.433594 L 5.5 6.503906 L 5.5 7.640625 L 6.929688 7.640625 L 6.929688 7.285156 C 6.929688 7.089844 7.089844 6.929688 7.285156 6.929688 L 7.640625 6.929688 L 7.640625 5.5 L 6.503906 5.5 L 5.433594 4.429688 L 6.929688 4.429688 C 7.324219 4.429688 7.640625 4.109375 7.640625 3.714844 C 7.640625 3.320312 7.324219 3 6.929688 3 Z M 9.070312 3 C 8.675781 3 8.359375 3.320312 8.359375 3.714844 C 8.359375 4.109375 8.675781 4.429688 9.070312 4.429688 L 10.566406 4.429688 L 9.496094 5.5 L 8.359375 5.5 L 8.359375 6.929688 L 8.714844 6.929688 C 8.910156 6.929688 9.070312 7.089844 9.070312 7.285156 L 9.070312 7.640625 L 10.5 7.640625 L 10.5 6.503906 L 11.570312 5.433594 L 11.570312 6.929688 C 11.570312 7.324219 11.890625 7.640625 12.285156 7.640625 C 12.679688 7.640625 13 7.324219 13 6.929688 L 13 3.714844 C 13 3.320312 12.679688 3 12.285156 3 Z M 5.5 8.359375 L 5.5 9.785156 C 5.5 10.183594 5.816406 10.5 6.214844 10.5 L 7.640625 10.5 L 7.640625 9.070312 L 7.285156 9.070312 C 7.089844 9.070312 6.929688 8.910156 6.929688 8.714844 L 6.929688 8.359375 Z M 9.070312 8.359375 L 9.070312 8.714844 C 9.070312 8.910156 8.910156 9.070312 8.714844 9.070312 L 8.359375 9.070312 L 8.359375 10.5 L 9.496094 10.5 L 10.566406 11.570312 L 9.070312 11.570312 C 8.675781 11.570312 8.359375 11.890625 8.359375 12.285156 C 8.359375 12.679688 8.675781 13 9.070312 13 L 12.285156 13 C 12.679688 13 13 12.683594 13 12.285156 L 13 9.070312 C 13 8.675781 12.679688 8.359375 12.285156 8.359375 C 11.890625 8.359375 11.570312 8.675781 11.570312 9.070312 L 11.570312 10.566406 L 10.5 9.496094 L 10.5 8.359375 Z M 9.070312 8.359375 "/>
</g>
</svg>
