<?xml version="1.0" encoding="UTF-8"?>
<svg xmlns="http://www.w3.org/2000/svg" xmlns:xlink="http://www.w3.org/1999/xlink" width="16pt" height="16pt" viewBox="0 0 16 16" version="1.1">
<g id="surface1">
<path style=" stroke:none;fill-rule:evenodd;fill:rgb(25.490196%,65.098039%,80%);fill-opacity:1;" d="M 3.734375 0.949219 L 12.265625 0.949219 C 13.800781 0.949219 15.050781 2.199219 15.050781 3.734375 L 15.050781 12.265625 C 15.050781 13.800781 13.800781 15.050781 12.265625 15.050781 L 3.734375 15.050781 C 2.199219 15.050781 0.949219 13.800781 0.949219 12.265625 L 0.949219 3.734375 C 0.949219 2.199219 2.199219 0.949219 3.734375 0.949219 Z M 3.734375 0.949219 "/>
<path style=" stroke:none;fill-rule:nonzero;fill:rgb(20.784314%,26.27451%,34.509804%);fill-opacity:1;" d="M 8.148438 3.59375 C 5.726562 3.59375 3.761719 5.558594 3.761719 7.984375 C 3.761719 10.40625 5.726562 12.367188 8.148438 12.367188 C 10.570312 12.367188 12.535156 10.40625 12.535156 7.984375 C 12.535156 5.558594 10.570312 3.59375 8.148438 3.59375 Z M 8.148438 3.59375 "/>
<path style=" stroke:none;fill-rule:nonzero;fill:rgb(100%,100%,100%);fill-opacity:1;" d="M 8.570312 1.832031 C 8.445312 1.832031 8.203125 1.855469 8.078125 1.890625 C 7.660156 2.003906 7.273438 2.546875 7.128906 2.9375 C 7.109375 3 7.082031 3.050781 7.066406 3.058594 C 7.054688 3.066406 7.003906 3.078125 6.957031 3.089844 C 6.46875 3.191406 5.867188 3.417969 5.453125 3.652344 C 4.53125 4.183594 3.820312 4.933594 3.359375 5.875 C 3.097656 6.40625 2.949219 6.890625 2.863281 7.5 C 2.828125 7.757812 2.828125 8.542969 2.863281 8.800781 C 3.027344 9.96875 3.515625 10.96875 4.320312 11.78125 C 5.234375 12.707031 6.410156 13.238281 7.738281 13.320312 C 7.90625 13.328125 8.40625 13.3125 8.597656 13.292969 C 9.140625 13.230469 9.71875 13.0625 10.214844 12.828125 C 11.835938 12.058594 12.9375 10.515625 13.140625 8.734375 C 13.152344 8.648438 13.160156 8.40625 13.160156 8.203125 C 13.191406 7.609375 12.949219 7.023438 12.707031 6.589844 C 12.453125 6.066406 12.40625 5.613281 12.367188 5.058594 C 12.375 5.023438 12.375 4.988281 12.367188 4.980469 C 11.699219 5.1875 11.128906 5.726562 10.777344 6.222656 C 10.539062 6.605469 10.382812 6.992188 10.382812 7.332031 C 10.417969 8.203125 11.160156 8.828125 11.179688 9.613281 C 11.179688 10.449219 10.675781 11.253906 10.078125 11.832031 C 9.957031 11.949219 9.929688 11.96875 9.917969 11.957031 C 9.910156 11.953125 9.929688 11.902344 9.957031 11.84375 C 10.375 10.929688 10.285156 9.835938 9.648438 9.070312 C 9.558594 8.964844 9.207031 8.617188 9.15625 8.585938 C 9.179688 8.707031 9.191406 8.828125 9.191406 8.953125 C 9.191406 10.050781 8.300781 10.9375 7.203125 10.9375 C 6.109375 10.9375 5.21875 10.050781 5.21875 8.953125 C 5.21875 7.855469 6.109375 6.96875 7.203125 6.96875 C 7.332031 6.96875 7.457031 6.980469 7.578125 7.003906 C 7.585938 7.003906 7.59375 7.003906 7.597656 7.003906 C 7.617188 6.988281 7.628906 6.972656 7.628906 6.96875 C 7.628906 6.9375 7.140625 6.449219 7.003906 6.34375 C 6.726562 6.128906 6.414062 5.871094 6.050781 5.777344 C 5.953125 5.753906 5.90625 5.734375 5.90625 5.71875 C 5.90625 5.683594 6.25 5.582031 6.628906 5.503906 C 7.09375 5.410156 7.398438 5.386719 8.296875 5.378906 C 8.675781 5.375 9.046875 5.363281 9.125 5.355469 C 10.09375 5.199219 10.875 4.5625 11.222656 3.855469 C 11.234375 3.820312 11.234375 3.820312 11.082031 3.820312 C 10.765625 3.820312 10.441406 3.753906 10.136719 3.621094 C 9.742188 3.394531 9.390625 3.136719 8.96875 3.042969 C 8.859375 3.019531 8.5625 3.015625 8.398438 2.992188 C 8.359375 2.660156 8.507812 2.175781 8.648438 1.964844 C 8.683594 1.914062 8.710938 1.863281 8.707031 1.855469 C 8.703125 1.839844 8.648438 1.832031 8.570312 1.832031 Z M 8.570312 1.832031 "/>
</g>
</svg>
