<?xml version="1.0" encoding="UTF-8"?>
<svg xmlns="http://www.w3.org/2000/svg" xmlns:xlink="http://www.w3.org/1999/xlink" width="16pt" height="16pt" viewBox="0 0 16 16" version="1.1">
<g id="surface1">
<path style=" stroke:none;fill-rule:evenodd;fill:rgb(95.294118%,71.372549%,8.627451%);fill-opacity:1;" d="M 3.734375 0.949219 L 12.265625 0.949219 C 13.800781 0.949219 15.050781 2.199219 15.050781 3.734375 L 15.050781 12.265625 C 15.050781 13.800781 13.800781 15.050781 12.265625 15.050781 L 3.734375 15.050781 C 2.199219 15.050781 0.949219 13.800781 0.949219 12.265625 L 0.949219 3.734375 C 0.949219 2.199219 2.199219 0.949219 3.734375 0.949219 Z M 3.734375 0.949219 "/>
<path style=" stroke:none;fill-rule:nonzero;fill:rgb(100%,100%,100%);fill-opacity:1;" d="M 12.3125 2.429688 C 12.53125 2.429688 12.652344 2.605469 12.679688 2.949219 L 12.402344 4.578125 L 12.46875 4.578125 L 12.613281 4.457031 L 12.652344 4.457031 L 12.652344 4.496094 C 12.453125 4.648438 12.257812 5.066406 12.070312 5.75 C 12 6.335938 11.878906 6.878906 11.714844 7.378906 C 11.5625 7.894531 11.488281 8.367188 11.488281 8.800781 L 11.207031 9.660156 C 11.207031 9.730469 11.316406 9.804688 11.53125 9.875 C 11.488281 10.046875 11.433594 10.128906 11.355469 10.128906 L 11.355469 10.179688 L 11.421875 10.179688 L 11.421875 10.214844 C 11.421875 10.300781 11.3125 10.347656 11.09375 10.347656 L 11.132812 10.394531 L 11.132812 10.5625 L 11.0625 10.5625 C 11.109375 10.734375 11.203125 10.816406 11.355469 10.816406 L 11.355469 10.902344 L 11.0625 10.902344 L 11.0625 10.949219 C 11.160156 10.949219 11.207031 11.023438 11.207031 11.167969 L 10.800781 11.335938 L 10.839844 11.386719 L 10.839844 11.421875 C 10.839844 11.476562 10.792969 11.503906 10.695312 11.503906 L 10.695312 11.554688 C 10.816406 11.554688 10.878906 11.582031 10.878906 11.640625 C 10.703125 11.710938 10.476562 12.070312 10.191406 12.710938 C 9.902344 13.28125 9.648438 13.570312 9.4375 13.570312 L 9.359375 13.570312 C 9.195312 13.441406 9.0625 13.015625 8.960938 12.289062 C 8.546875 11.1875 8.339844 10.539062 8.339844 10.347656 C 8.339844 9.847656 8.207031 9.40625 7.945312 8.84375 C 7.875 8.59375 7.824219 8.15625 7.796875 7.78125 L 7.625 7.78125 C 7.183594 8.609375 6.953125 9.242188 6.9375 9.707031 C 6.8125 9.980469 6.71875 10.3125 6.644531 10.699219 C 6.910156 10.785156 7.042969 10.871094 7.042969 10.949219 L 7.042969 11 C 6.835938 10.96875 6.691406 10.90625 6.605469 10.816406 C 6.515625 11.035156 6.394531 11.503906 6.25 12.496094 C 6.132812 12.953125 5.984375 13.125 5.8125 13.125 C 5.320312 12.921875 4.910156 12.652344 4.582031 12.191406 C 4.53125 12.191406 4.445312 11.964844 4.328125 11.503906 C 4.257812 11.503906 4.210938 11.277344 4.183594 10.816406 C 3.9375 10.164062 3.769531 9.554688 3.679688 8.71875 L 3.679688 7.464844 L 3.640625 7.464844 L 3.46875 7.511719 L 3.46875 7.464844 C 3.46875 7.40625 3.527344 7.378906 3.640625 7.378906 L 3.601562 6.65625 L 3.601562 6.085938 L 3.320312 4.277344 L 3.320312 3.59375 C 3.445312 3.109375 3.65625 2.871094 3.960938 2.871094 L 4.078125 2.992188 L 3.960938 2.953125 C 4.433594 3.597656 4.710938 4.050781 4.796875 4.496094 L 5.125 4.496094 L 5.125 4.578125 L 4.871094 4.578125 L 4.871094 4.675781 C 4.96875 5.046875 5.039062 5.230469 5.085938 5.230469 L 5.164062 5.230469 L 5.335938 5.183594 L 5.375 5.230469 L 5.414062 5.183594 L 5.453125 5.230469 L 5.453125 5.265625 C 5.324219 5.363281 5.238281 5.496094 5.191406 5.664062 L 5.164062 5.664062 L 5.164062 5.75 L 5.230469 5.75 C 5.320312 7.09375 5.488281 8.289062 5.734375 8.980469 L 5.878906 9.113281 L 5.957031 9.113281 C 6.054688 9.113281 6.257812 8.585938 6.566406 7.644531 C 6.765625 7.21875 6.914062 6.90625 7.003906 6.585938 L 6.964844 6.453125 C 7.164062 6.140625 7.371094 5.996094 7.585938 5.996094 L 7.652344 5.996094 C 7.789062 5.996094 7.886719 6.070312 7.945312 6.246094 C 8.125 6.511719 8.269531 6.847656 8.378906 7.378906 L 8.921875 8.5 C 8.992188 8.589844 9.03125 8.6875 9.03125 8.800781 C 9.230469 9.277344 9.410156 9.851562 9.570312 10.003906 L 9.6875 10.003906 C 9.824219 10.003906 10.003906 9.15625 10.230469 7.984375 C 10.269531 7.984375 10.375 7.667969 10.550781 7.039062 L 10.550781 6.992188 L 10.367188 6.90625 L 10.21875 6.957031 L 10.035156 6.957031 L 10.035156 6.859375 L 10.40625 6.824219 L 10.695312 6.824219 C 10.972656 5.785156 11.226562 4.980469 11.460938 4.410156 C 11.539062 3.234375 11.644531 2.648438 11.78125 2.648438 L 12.3125 2.429688 "/>
</g>
</svg>
