<?xml version="1.0" encoding="UTF-8"?>
<svg xmlns="http://www.w3.org/2000/svg" xmlns:xlink="http://www.w3.org/1999/xlink" width="16pt" height="16pt" viewBox="0 0 16 16" version="1.1">
<g id="surface1">
<path style=" stroke:none;fill-rule:evenodd;fill:rgb(27.843137%,67.843137%,36.470588%);fill-opacity:1;" d="M 3.734375 0.949219 L 12.265625 0.949219 C 13.800781 0.949219 15.050781 2.199219 15.050781 3.734375 L 15.050781 12.265625 C 15.050781 13.800781 13.800781 15.050781 12.265625 15.050781 L 3.734375 15.050781 C 2.199219 15.050781 0.949219 13.800781 0.949219 12.265625 L 0.949219 3.734375 C 0.949219 2.199219 2.199219 0.949219 3.734375 0.949219 Z M 3.734375 0.949219 "/>
<path style=" stroke:none;fill-rule:nonzero;fill:rgb(100%,100%,100%);fill-opacity:1;" d="M 8 3.375 C 7.890625 3.375 7.777344 3.378906 7.667969 3.386719 C 7.65625 3.386719 7.640625 3.390625 7.628906 3.390625 C 5.976562 3.519531 4.574219 4.511719 3.867188 5.917969 C 3.867188 5.917969 3.867188 5.921875 3.867188 5.921875 C 3.820312 6.011719 3.773438 6.101562 3.734375 6.195312 C 3.519531 6.6875 3.402344 7.203125 3.378906 7.75 C 3.378906 7.765625 3.378906 7.78125 3.378906 7.800781 C 3.375 7.851562 3.375 7.90625 3.375 7.957031 C 3.375 7.96875 3.375 7.984375 3.375 8 C 3.375 8.539062 3.46875 9.050781 3.636719 9.53125 C 3.703125 9.746094 3.78125 9.964844 3.875 10.183594 C 4.109375 10.730469 4.136719 10.878906 4.101562 11.339844 C 4.074219 11.65625 3.988281 11.984375 3.878906 12.167969 C 3.78125 12.332031 3.703125 12.503906 3.703125 12.546875 C 3.703125 12.683594 4.484375 12.636719 5.171875 12.457031 C 5.984375 12.25 6.050781 12.25 6.714844 12.460938 C 7.019531 12.554688 7.367188 12.605469 7.757812 12.621094 C 7.773438 12.621094 7.789062 12.621094 7.804688 12.621094 C 7.859375 12.625 7.910156 12.625 7.964844 12.625 C 7.96875 12.625 7.972656 12.625 7.980469 12.625 C 7.984375 12.625 7.992188 12.625 8 12.625 C 8.128906 12.625 8.257812 12.621094 8.382812 12.609375 C 9.527344 12.53125 10.445312 12.105469 11.273438 11.28125 C 11.953125 10.597656 12.375 9.761719 12.542969 8.882812 C 12.558594 8.800781 12.570312 8.71875 12.582031 8.640625 C 12.589844 8.589844 12.59375 8.539062 12.601562 8.488281 C 12.613281 8.378906 12.621094 8.269531 12.625 8.160156 C 12.625 8.132812 12.625 8.105469 12.625 8.078125 C 12.625 8.050781 12.625 8.027344 12.625 8 C 12.625 5.480469 10.632812 3.441406 8.128906 3.375 C 8.109375 3.375 8.089844 3.375 8.070312 3.375 C 8.046875 3.375 8.023438 3.375 8 3.375 Z M 8 3.375 "/>
<path style=" stroke:none;fill-rule:nonzero;fill:rgb(27.843137%,67.843137%,36.470588%);fill-opacity:1;" d="M 8.660156 8 C 8.660156 8.363281 8.363281 8.660156 8 8.660156 C 7.636719 8.660156 7.339844 8.363281 7.339844 8 C 7.339844 7.636719 7.636719 7.339844 8 7.339844 C 8.363281 7.339844 8.660156 7.636719 8.660156 8 Z M 8.660156 8 "/>
<path style=" stroke:none;fill-rule:nonzero;fill:rgb(27.843137%,67.843137%,36.470588%);fill-opacity:1;" d="M 6.015625 8 C 6.015625 8.363281 5.71875 8.660156 5.355469 8.660156 C 4.992188 8.660156 4.695312 8.363281 4.695312 8 C 4.695312 7.636719 4.992188 7.339844 5.355469 7.339844 C 5.71875 7.339844 6.015625 7.636719 6.015625 8 Z M 6.015625 8 "/>
<path style=" stroke:none;fill-rule:nonzero;fill:rgb(27.843137%,67.843137%,36.470588%);fill-opacity:1;" d="M 11.304688 8 C 11.304688 8.363281 11.007812 8.660156 10.644531 8.660156 C 10.28125 8.660156 9.984375 8.363281 9.984375 8 C 9.984375 7.636719 10.28125 7.339844 10.644531 7.339844 C 11.007812 7.339844 11.304688 7.636719 11.304688 8 Z M 11.304688 8 "/>
</g>
</svg>
