<?xml version="1.0" encoding="UTF-8"?>
<svg xmlns="http://www.w3.org/2000/svg" xmlns:xlink="http://www.w3.org/1999/xlink" width="16pt" height="16pt" viewBox="0 0 16 16" version="1.1">
<g id="surface1">
<path style=" stroke:none;fill-rule:evenodd;fill:rgb(60%,60%,60%);fill-opacity:1;" d="M 3.734375 0.949219 L 12.265625 0.949219 C 13.800781 0.949219 15.050781 2.199219 15.050781 3.734375 L 15.050781 12.265625 C 15.050781 13.800781 13.800781 15.050781 12.265625 15.050781 L 3.734375 15.050781 C 2.199219 15.050781 0.949219 13.800781 0.949219 12.265625 L 0.949219 3.734375 C 0.949219 2.199219 2.199219 0.949219 3.734375 0.949219 Z M 3.734375 0.949219 "/>
<path style=" stroke:none;fill-rule:nonzero;fill:rgb(30.980392%,30.980392%,30.980392%);fill-opacity:1;" d="M 8.023438 3.851562 C 5.832031 3.851562 3.863281 4.628906 2.226562 5.835938 L 8.023438 12.148438 L 13.773438 5.8125 C 12.144531 4.621094 10.195312 3.851562 8.023438 3.851562 Z M 8.023438 3.851562 "/>
<path style=" stroke:none;fill-rule:nonzero;fill:rgb(47.45098%,47.45098%,47.45098%);fill-opacity:1;" d="M 8 5.507812 C 6.253906 5.507812 4.636719 6.078125 3.335938 7.046875 L 8.023438 12.148438 L 12.664062 7.046875 C 11.363281 6.082031 9.746094 5.507812 8 5.507812 Z M 8 5.507812 "/>
<path style=" stroke:none;fill-rule:nonzero;fill:rgb(80%,80%,80%);fill-opacity:1;" d="M 8 7.167969 C 6.691406 7.167969 5.476562 7.597656 4.503906 8.324219 L 8.019531 12.148438 L 11.496094 8.324219 C 10.523438 7.597656 9.308594 7.167969 8 7.167969 Z M 8 7.167969 "/>
</g>
</svg>
