<?xml version="1.0" encoding="UTF-8"?>
<svg xmlns="http://www.w3.org/2000/svg" xmlns:xlink="http://www.w3.org/1999/xlink" width="16pt" height="16pt" viewBox="0 0 16 16" version="1.1">
<g id="surface1">
<path style=" stroke:none;fill-rule:evenodd;fill:rgb(62.745098%,0%,18.431373%);fill-opacity:1;" d="M 3.734375 0.949219 L 12.265625 0.949219 C 13.800781 0.949219 15.050781 2.199219 15.050781 3.734375 L 15.050781 12.265625 C 15.050781 13.800781 13.800781 15.050781 12.265625 15.050781 L 3.734375 15.050781 C 2.199219 15.050781 0.949219 13.800781 0.949219 12.265625 L 0.949219 3.734375 C 0.949219 2.199219 2.199219 0.949219 3.734375 0.949219 Z M 3.734375 0.949219 "/>
<path style=" stroke:none;fill-rule:evenodd;fill:rgb(62.745098%,0%,18.431373%);fill-opacity:1;" d="M 4.855469 15.050781 L 8 8 L 0.949219 4.855469 L 0.949219 12.265625 C 0.949219 13.808594 2.191406 15.050781 3.734375 15.050781 Z M 4.855469 15.050781 "/>
<path style=" stroke:none;fill-rule:evenodd;fill:rgb(76.470588%,15.686275%,22.745098%);fill-opacity:1;" d="M 15.050781 11.144531 L 8 8 L 4.855469 15.050781 L 12.265625 15.050781 C 13.808594 15.050781 15.050781 13.808594 15.050781 12.265625 Z M 15.050781 11.144531 "/>
<path style=" stroke:none;fill-rule:evenodd;fill:rgb(62.745098%,0%,18.431373%);fill-opacity:1;" d="M 11.144531 0.949219 L 8 8 L 15.050781 11.144531 L 15.050781 3.734375 C 15.050781 2.191406 13.808594 0.949219 12.265625 0.949219 Z M 11.144531 0.949219 "/>
<path style=" stroke:none;fill-rule:evenodd;fill:rgb(76.470588%,15.686275%,22.745098%);fill-opacity:1;" d="M 0.949219 4.855469 L 8 8 L 11.144531 0.949219 L 3.734375 0.949219 C 2.191406 0.949219 0.949219 2.191406 0.949219 3.734375 Z M 0.949219 4.855469 "/>
<path style=" stroke:none;fill-rule:nonzero;fill:rgb(100%,100%,100%);fill-opacity:1;" d="M 6.164062 13.125 C 6.1875 13.097656 6.257812 13.050781 6.324219 13.015625 C 6.4375 12.957031 6.457031 12.953125 6.722656 12.929688 C 7.0625 12.898438 7.332031 12.847656 7.453125 12.792969 C 7.632812 12.707031 7.742188 12.550781 7.796875 12.292969 C 7.824219 12.175781 7.832031 12.046875 7.835938 11.492188 C 7.84375 10.8125 7.820312 9.855469 7.789062 9.707031 C 7.757812 9.546875 7.734375 9.519531 7.457031 9.3125 C 7.15625 9.089844 6.796875 8.746094 6.636719 8.527344 C 6.347656 8.128906 6.1875 7.726562 6.105469 7.191406 C 6.082031 7.046875 6.074219 6.886719 6.074219 6.59375 C 6.074219 5.9375 6.132812 5.515625 6.414062 4.195312 C 6.515625 3.71875 6.546875 3.613281 6.605469 3.550781 L 6.640625 3.515625 L 9.355469 3.515625 L 9.390625 3.550781 C 9.441406 3.609375 9.46875 3.703125 9.585938 4.246094 C 9.910156 5.738281 9.984375 6.480469 9.886719 7.1875 C 9.761719 8.085938 9.34375 8.722656 8.46875 9.367188 C 8.359375 9.445312 8.261719 9.527344 8.25 9.554688 C 8.203125 9.640625 8.1875 9.792969 8.167969 10.191406 C 8.144531 10.761719 8.144531 11.953125 8.167969 12.128906 C 8.21875 12.53125 8.332031 12.714844 8.59375 12.816406 C 8.707031 12.859375 8.945312 12.902344 9.273438 12.929688 C 9.515625 12.953125 9.546875 12.960938 9.660156 13.015625 C 9.730469 13.046875 9.800781 13.09375 9.828125 13.121094 L 9.867188 13.164062 L 6.125 13.164062 Z M 6.164062 13.125 "/>
<path style=" stroke:none;fill-rule:nonzero;fill:rgb(73.333333%,0%,18.431373%);fill-opacity:1;" d="M 6.328125 6.839844 C 6.238281 9.445312 9.476562 10.105469 9.71875 6.839844 C 8.96875 7.921875 7.148438 5.835938 6.328125 6.839844 Z M 6.328125 6.839844 "/>
<path style=" stroke:none;fill-rule:nonzero;fill:rgb(98.039216%,38.431373%,34.117647%);fill-opacity:1;" d="M 13.734375 11.289062 C 13.734375 12.671875 12.613281 13.789062 11.234375 13.789062 C 9.855469 13.789062 8.734375 12.671875 8.734375 11.289062 C 8.734375 9.910156 9.855469 8.789062 11.234375 8.789062 C 12.613281 8.789062 13.734375 9.910156 13.734375 11.289062 Z M 13.734375 11.289062 "/>
<path style=" stroke:none;fill-rule:nonzero;fill:rgb(100%,100%,100%);fill-opacity:1;" d="M 10.769531 12.5 C 10.769531 12.4375 10.78125 12.382812 10.796875 12.335938 C 10.816406 12.292969 10.84375 12.253906 10.875 12.226562 C 10.910156 12.203125 10.949219 12.179688 10.992188 12.167969 C 11.039062 12.15625 11.085938 12.148438 11.136719 12.148438 C 11.1875 12.148438 11.230469 12.15625 11.273438 12.167969 C 11.316406 12.179688 11.355469 12.203125 11.390625 12.226562 C 11.421875 12.253906 11.449219 12.292969 11.46875 12.335938 C 11.488281 12.382812 11.496094 12.4375 11.496094 12.5 C 11.496094 12.5625 11.488281 12.617188 11.46875 12.660156 C 11.449219 12.703125 11.421875 12.742188 11.390625 12.769531 C 11.355469 12.796875 11.316406 12.820312 11.273438 12.832031 C 11.230469 12.847656 11.1875 12.855469 11.136719 12.855469 C 11.085938 12.855469 11.039062 12.847656 10.992188 12.832031 C 10.949219 12.820312 10.910156 12.796875 10.875 12.769531 C 10.84375 12.742188 10.816406 12.703125 10.796875 12.660156 C 10.78125 12.617188 10.769531 12.5625 10.769531 12.5 M 10.839844 11.792969 L 10.839844 11.640625 C 10.839844 11.570312 10.84375 11.507812 10.859375 11.449219 C 10.875 11.390625 10.898438 11.335938 10.925781 11.285156 C 10.957031 11.234375 10.996094 11.183594 11.042969 11.136719 C 11.089844 11.085938 11.144531 11.035156 11.210938 10.984375 C 11.269531 10.9375 11.316406 10.894531 11.359375 10.859375 C 11.398438 10.824219 11.429688 10.789062 11.453125 10.753906 C 11.480469 10.71875 11.5 10.683594 11.507812 10.644531 C 11.519531 10.605469 11.527344 10.558594 11.527344 10.507812 C 11.527344 10.429688 11.5 10.363281 11.445312 10.3125 C 11.394531 10.265625 11.3125 10.238281 11.203125 10.238281 C 11.109375 10.238281 11.003906 10.257812 10.894531 10.296875 C 10.785156 10.335938 10.671875 10.386719 10.554688 10.445312 L 10.34375 9.988281 C 10.402344 9.953125 10.46875 9.921875 10.539062 9.890625 C 10.609375 9.859375 10.679688 9.828125 10.753906 9.804688 C 10.828125 9.78125 10.90625 9.761719 10.984375 9.75 C 11.0625 9.734375 11.136719 9.730469 11.210938 9.730469 C 11.351562 9.730469 11.480469 9.746094 11.59375 9.78125 C 11.703125 9.8125 11.800781 9.863281 11.878906 9.925781 C 11.957031 9.992188 12.019531 10.070312 12.0625 10.164062 C 12.101562 10.253906 12.125 10.359375 12.125 10.480469 C 12.125 10.566406 12.113281 10.644531 12.09375 10.710938 C 12.078125 10.78125 12.046875 10.84375 12.007812 10.902344 C 11.96875 10.960938 11.921875 11.015625 11.867188 11.074219 C 11.808594 11.125 11.742188 11.183594 11.667969 11.246094 C 11.609375 11.292969 11.5625 11.328125 11.523438 11.363281 C 11.488281 11.398438 11.460938 11.429688 11.4375 11.460938 C 11.417969 11.492188 11.40625 11.523438 11.398438 11.554688 C 11.390625 11.585938 11.386719 11.625 11.386719 11.671875 L 11.386719 11.792969 Z M 10.839844 11.792969 "/>
</g>
</svg>
