<?xml version="1.0" encoding="UTF-8"?>
<svg xmlns="http://www.w3.org/2000/svg" xmlns:xlink="http://www.w3.org/1999/xlink" width="16pt" height="16pt" viewBox="0 0 16 16" version="1.1">
<g id="surface1">
<path style=" stroke:none;fill-rule:evenodd;fill:rgb(76.470588%,15.686275%,22.745098%);fill-opacity:1;" d="M 0.949219 6.847656 L 15.050781 6.847656 L 15.050781 3.734375 C 15.050781 2.191406 13.808594 0.949219 12.265625 0.949219 L 3.738281 0.949219 C 2.191406 0.949219 0.949219 2.191406 0.949219 3.734375 Z M 0.949219 6.847656 "/>
<path style=" stroke:none;fill-rule:evenodd;fill:rgb(62.745098%,0%,18.431373%);fill-opacity:1;" d="M 0.949219 6.847656 L 0.949219 12.261719 C 0.949219 13.808594 2.191406 15.050781 3.738281 15.050781 L 12.265625 15.050781 C 13.808594 15.050781 15.050781 13.808594 15.050781 12.261719 L 15.050781 6.847656 Z M 0.949219 6.847656 "/>
<path style=" stroke:none;fill-rule:nonzero;fill:rgb(70.196078%,70.196078%,70.196078%);fill-opacity:1;" d="M 6 9.960938 L 10 9.960938 C 10.277344 9.960938 10.5 10.1875 10.5 10.460938 L 10.5 10.960938 C 10.5 11.238281 10.277344 11.460938 10 11.460938 L 6 11.460938 C 5.722656 11.460938 5.5 11.238281 5.5 10.960938 L 5.5 10.460938 C 5.5 10.1875 5.722656 9.960938 6 9.960938 Z M 6 9.960938 "/>
</g>
</svg>
