<?xml version="1.0" encoding="UTF-8"?>
<svg xmlns="http://www.w3.org/2000/svg" xmlns:xlink="http://www.w3.org/1999/xlink" width="16pt" height="16pt" viewBox="0 0 16 16" version="1.1">
<g id="surface1">
<path style=" stroke:none;fill-rule:evenodd;fill:rgb(55.686275%,55.686275%,55.686275%);fill-opacity:1;" d="M 3.734375 0.949219 C 2.191406 0.949219 0.949219 2.191406 0.949219 3.734375 L 0.949219 8.195312 L 15.050781 8.195312 L 15.050781 3.734375 C 15.050781 2.191406 13.808594 0.949219 12.265625 0.949219 Z M 3.734375 0.949219 "/>
<path style=" stroke:none;fill-rule:nonzero;fill:rgb(90.196078%,90.196078%,90.196078%);fill-opacity:1;" d="M 3.554688 3.398438 L 12.449219 3.398438 L 12.449219 8.726562 L 3.554688 8.726562 Z M 3.554688 3.398438 "/>
<path style=" stroke:none;fill-rule:nonzero;fill:rgb(40%,40%,40%);fill-opacity:1;" d="M 4.441406 5.53125 L 6.667969 5.53125 L 6.667969 7.128906 L 4.441406 7.128906 Z M 4.441406 5.53125 "/>
<path style=" stroke:none;fill-rule:nonzero;fill:rgb(40%,40%,40%);fill-opacity:1;" d="M 9.335938 5.53125 L 11.558594 5.53125 L 11.558594 7.128906 L 9.335938 7.128906 Z M 9.335938 5.53125 "/>
<path style=" stroke:none;fill-rule:evenodd;fill:rgb(30.196078%,30.196078%,30.196078%);fill-opacity:1;" d="M 15.050781 8.195312 L 0.949219 8.195312 L 0.949219 12.265625 C 0.949219 13.808594 2.191406 15.050781 3.734375 15.050781 L 12.265625 15.050781 C 13.808594 15.050781 15.050781 13.808594 15.050781 12.265625 Z M 15.050781 8.195312 "/>
<path style=" stroke:none;fill-rule:nonzero;fill:rgb(40%,40%,40%);fill-opacity:1;" d="M 4.269531 10.328125 L 11.730469 10.328125 C 12.027344 10.328125 12.265625 10.5625 12.265625 10.859375 C 12.265625 11.152344 12.027344 11.390625 11.730469 11.390625 L 4.269531 11.390625 C 3.976562 11.390625 3.738281 11.152344 3.738281 10.859375 C 3.738281 10.5625 3.976562 10.328125 4.269531 10.328125 Z M 4.269531 10.328125 "/>
<path style=" stroke:none;fill-rule:nonzero;fill:rgb(40%,40%,40%);fill-opacity:1;" d="M 5.335938 12.457031 L 10.664062 12.457031 C 10.960938 12.457031 11.199219 12.695312 11.199219 12.988281 C 11.199219 13.285156 10.960938 13.523438 10.664062 13.523438 L 5.335938 13.523438 C 5.042969 13.523438 4.804688 13.285156 4.804688 12.988281 C 4.804688 12.695312 5.042969 12.457031 5.335938 12.457031 Z M 5.335938 12.457031 "/>
<path style=" stroke:none;fill-rule:nonzero;fill:rgb(28.235294%,68.235294%,100%);fill-opacity:1;" d="M 14.351562 11.347656 C 14.351562 13.003906 13.007812 14.347656 11.351562 14.347656 C 9.695312 14.347656 8.351562 13.003906 8.351562 11.347656 C 8.351562 9.691406 9.695312 8.347656 11.351562 8.347656 C 13.007812 8.347656 14.351562 9.691406 14.351562 11.347656 Z M 14.351562 11.347656 "/>
<path style=" stroke:none;fill-rule:nonzero;fill:rgb(100%,100%,100%);fill-opacity:1;" d="M 9.929688 9.847656 L 10.894531 9.847656 C 10.9375 9.847656 10.976562 9.882812 10.976562 9.929688 L 10.976562 10.890625 C 10.976562 10.9375 10.9375 10.972656 10.894531 10.972656 L 9.929688 10.972656 C 9.886719 10.972656 9.851562 10.9375 9.851562 10.890625 L 9.851562 9.929688 C 9.851562 9.882812 9.886719 9.847656 9.929688 9.847656 Z M 9.929688 9.847656 "/>
<path style=" stroke:none;fill-rule:nonzero;fill:rgb(100%,100%,100%);fill-opacity:1;" d="M 11.804688 9.847656 L 12.769531 9.847656 C 12.8125 9.847656 12.851562 9.882812 12.851562 9.929688 L 12.851562 10.890625 C 12.851562 10.9375 12.8125 10.972656 12.769531 10.972656 L 11.804688 10.972656 C 11.761719 10.972656 11.726562 10.9375 11.726562 10.890625 L 11.726562 9.929688 C 11.726562 9.882812 11.761719 9.847656 11.804688 9.847656 Z M 11.804688 9.847656 "/>
<path style=" stroke:none;fill-rule:nonzero;fill:rgb(100%,100%,100%);fill-opacity:1;" d="M 9.929688 11.722656 L 10.894531 11.722656 C 10.9375 11.722656 10.976562 11.757812 10.976562 11.804688 L 10.976562 12.765625 C 10.976562 12.8125 10.9375 12.847656 10.894531 12.847656 L 9.929688 12.847656 C 9.886719 12.847656 9.851562 12.8125 9.851562 12.765625 L 9.851562 11.804688 C 9.851562 11.757812 9.886719 11.722656 9.929688 11.722656 Z M 9.929688 11.722656 "/>
<path style=" stroke:none;fill-rule:nonzero;fill:rgb(100%,100%,100%);fill-opacity:1;" d="M 11.804688 11.722656 L 12.769531 11.722656 C 12.8125 11.722656 12.851562 11.757812 12.851562 11.804688 L 12.851562 12.765625 C 12.851562 12.8125 12.8125 12.847656 12.769531 12.847656 L 11.804688 12.847656 C 11.761719 12.847656 11.726562 12.8125 11.726562 12.765625 L 11.726562 11.804688 C 11.726562 11.757812 11.761719 11.722656 11.804688 11.722656 Z M 11.804688 11.722656 "/>
</g>
</svg>
