<?xml version="1.0" encoding="UTF-8"?>
<svg xmlns="http://www.w3.org/2000/svg" xmlns:xlink="http://www.w3.org/1999/xlink" width="16pt" height="16pt" viewBox="0 0 16 16" version="1.1">
<g id="surface1">
<path style=" stroke:none;fill-rule:evenodd;fill:rgb(92.54902%,92.54902%,92.54902%);fill-opacity:1;" d="M 7.527344 0.949219 L 7.527344 6.191406 C 7.527344 6.328125 7.414062 6.441406 7.277344 6.441406 L 0.949219 6.441406 L 0.949219 3.738281 C 0.949219 2.191406 2.191406 0.949219 3.734375 0.949219 Z M 7.527344 0.949219 "/>
<path style=" stroke:none;fill-rule:evenodd;fill:rgb(29.019608%,70.196078%,89.411765%);fill-opacity:1;" d="M 3.734375 15.050781 C 2.191406 15.050781 0.949219 13.808594 0.949219 12.265625 L 0.949219 6.441406 L 7.277344 6.441406 C 7.414062 6.441406 7.527344 6.328125 7.527344 6.191406 L 7.527344 0.949219 L 12.265625 0.949219 C 13.808594 0.949219 15.050781 2.191406 15.050781 3.738281 L 15.050781 12.265625 C 15.050781 13.808594 13.808594 15.050781 12.265625 15.050781 Z M 3.734375 15.050781 "/>
</g>
</svg>
