<?xml version="1.0" encoding="UTF-8"?>
<svg xmlns="http://www.w3.org/2000/svg" xmlns:xlink="http://www.w3.org/1999/xlink" width="16pt" height="16pt" viewBox="0 0 16 16" version="1.1">
<g id="surface1">
<path style=" stroke:none;fill-rule:evenodd;fill:rgb(80%,80%,80%);fill-opacity:1;" d="M 3.734375 0.949219 L 12.265625 0.949219 C 13.800781 0.949219 15.050781 2.199219 15.050781 3.734375 L 15.050781 12.265625 C 15.050781 13.800781 13.800781 15.050781 12.265625 15.050781 L 3.734375 15.050781 C 2.199219 15.050781 0.949219 13.800781 0.949219 12.265625 L 0.949219 3.734375 C 0.949219 2.199219 2.199219 0.949219 3.734375 0.949219 Z M 3.734375 0.949219 "/>
<path style=" stroke:none;fill-rule:nonzero;fill:rgb(100%,100%,100%);fill-opacity:1;" d="M 8 2.644531 C 7.277344 2.644531 6.597656 2.988281 6.164062 3.566406 C 5.449219 3.464844 4.726562 3.703125 4.214844 4.214844 C 3.703125 4.726562 3.464844 5.449219 3.566406 6.164062 C 2.988281 6.59375 2.644531 7.277344 2.644531 8 C 2.644531 8.722656 2.988281 9.402344 3.566406 9.835938 C 3.464844 10.550781 3.703125 11.273438 4.214844 11.785156 C 4.726562 12.296875 5.449219 12.535156 6.164062 12.433594 C 6.59375 13.011719 7.277344 13.355469 8 13.355469 C 8.722656 13.355469 9.402344 13.011719 9.835938 12.433594 C 10.550781 12.535156 11.273438 12.296875 11.785156 11.785156 C 12.296875 11.273438 12.535156 10.550781 12.433594 9.835938 C 13.011719 9.40625 13.355469 8.722656 13.355469 8 C 13.355469 7.277344 13.011719 6.597656 12.433594 6.164062 C 12.535156 5.449219 12.296875 4.726562 11.785156 4.214844 C 11.273438 3.703125 10.550781 3.464844 9.835938 3.566406 C 9.40625 2.988281 8.722656 2.644531 8 2.644531 Z M 8 2.644531 "/>
<path style=" stroke:none;fill-rule:nonzero;fill:rgb(81.568627%,61.960784%,45.098039%);fill-opacity:1;" d="M 6.65625 6.84375 C 6.199219 6.386719 5.457031 6.386719 5 6.84375 L 3.34375 8.5 C 2.886719 8.957031 2.886719 9.699219 3.34375 10.15625 C 3.800781 10.613281 4.542969 10.613281 5 10.15625 L 6.65625 8.5 C 7.113281 8.042969 7.113281 7.300781 6.65625 6.84375 Z M 6.65625 6.84375 "/>
<path style=" stroke:none;fill-rule:nonzero;fill:rgb(81.568627%,61.960784%,45.098039%);fill-opacity:1;" d="M 11.003906 8 C 11.003906 9.65625 9.660156 11 8.003906 11 C 6.34375 11 5.003906 9.65625 5.003906 8 C 5.003906 6.34375 6.34375 5 8.003906 5 C 9.660156 5 11.003906 6.34375 11.003906 8 Z M 11.003906 8 "/>
<path style=" stroke:none;fill-rule:nonzero;fill:rgb(81.568627%,61.960784%,45.098039%);fill-opacity:1;" d="M 9.34375 6.84375 C 9.800781 6.386719 10.542969 6.386719 11 6.84375 L 12.65625 8.5 C 13.113281 8.957031 13.113281 9.699219 12.65625 10.15625 C 12.199219 10.613281 11.457031 10.613281 11 10.15625 L 9.34375 8.5 C 8.886719 8.042969 8.886719 7.300781 9.34375 6.84375 Z M 9.34375 6.84375 "/>
<path style=" stroke:none;fill-rule:nonzero;fill:rgb(30.196078%,30.196078%,30.196078%);fill-opacity:1;" d="M 7.503906 7.25 C 7.503906 7.664062 7.167969 8 6.753906 8 C 6.339844 8 6.003906 7.664062 6.003906 7.25 C 6.003906 6.835938 6.339844 6.5 6.753906 6.5 C 7.167969 6.5 7.503906 6.835938 7.503906 7.25 Z M 7.503906 7.25 "/>
<path style=" stroke:none;fill-rule:nonzero;fill:rgb(30.196078%,30.196078%,30.196078%);fill-opacity:1;" d="M 10.003906 7.25 C 10.003906 7.664062 9.667969 8 9.253906 8 C 8.839844 8 8.503906 7.664062 8.503906 7.25 C 8.503906 6.835938 8.839844 6.5 9.253906 6.5 C 9.667969 6.5 10.003906 6.835938 10.003906 7.25 Z M 10.003906 7.25 "/>
</g>
</svg>
