<?xml version="1.0" encoding="UTF-8"?>
<svg xmlns="http://www.w3.org/2000/svg" xmlns:xlink="http://www.w3.org/1999/xlink" width="16pt" height="16pt" viewBox="0 0 16 16" version="1.1">
<g id="surface1">
<path style=" stroke:none;fill-rule:evenodd;fill:rgb(71.764706%,71.764706%,71.764706%);fill-opacity:1;" d="M 3.457031 14.996094 L 3.457031 3.816406 L 0.949219 3.816406 L 0.949219 12.265625 C 0.949219 13.710938 2.050781 14.851562 3.457031 14.996094 Z M 3.457031 14.996094 "/>
<path style=" stroke:none;fill-rule:evenodd;fill:rgb(57.254902%,0%,0%);fill-opacity:1;" d="M 3.734375 0.949219 C 2.191406 0.949219 0.949219 2.191406 0.949219 3.738281 L 0.949219 3.816406 L 3.457031 3.816406 L 3.457031 14.996094 C 3.554688 15.003906 3.636719 15.050781 3.734375 15.050781 L 12.261719 15.050781 C 13.808594 15.050781 15.050781 13.808594 15.050781 12.265625 L 15.050781 3.738281 C 15.050781 2.191406 13.808594 0.949219 12.261719 0.949219 Z M 3.734375 0.949219 "/>
<path style=" stroke:none;fill-rule:nonzero;fill:rgb(97.254902%,76.862745%,30.588235%);fill-opacity:1;" d="M 5.808594 12.667969 L 7 12.667969 L 7 15.050781 L 5.808594 15.050781 Z M 5.808594 12.667969 "/>
<path style=" stroke:none;fill-rule:nonzero;fill:rgb(97.254902%,76.862745%,30.588235%);fill-opacity:1;" d="M 7.59375 12.667969 L 8.785156 12.667969 L 8.785156 15.050781 L 7.59375 15.050781 Z M 7.59375 12.667969 "/>
<path style=" stroke:none;fill-rule:nonzero;fill:rgb(97.254902%,76.862745%,30.588235%);fill-opacity:1;" d="M 9.382812 12.667969 L 10.574219 12.667969 L 10.574219 15.050781 L 9.382812 15.050781 Z M 9.382812 12.667969 "/>
<path style=" stroke:none;fill-rule:nonzero;fill:rgb(97.254902%,76.862745%,30.588235%);fill-opacity:1;" d="M 11.171875 12.667969 L 12.363281 12.667969 L 12.363281 15.050781 L 11.171875 15.050781 Z M 11.171875 12.667969 "/>
<path style=" stroke:none;fill-rule:nonzero;fill:rgb(71.764706%,71.764706%,71.764706%);fill-opacity:1;" d="M 9.3125 2.855469 C 8.734375 2.859375 8.167969 2.882812 8.167969 2.921875 C 8.167969 2.953125 8.242188 3.144531 8.335938 3.34375 C 8.699219 4.113281 8.953125 5.085938 8.953125 5.710938 C 8.953125 5.984375 8.941406 6.007812 8.832031 5.992188 C 8.734375 5.976562 8.679688 5.882812 8.558594 5.523438 C 8.324219 4.824219 7.917969 4.066406 7.457031 3.472656 C 6.996094 2.878906 7.140625 2.84375 6.195312 3.785156 C 5.628906 4.351562 5.382812 4.632812 5.429688 4.664062 C 5.46875 4.6875 5.671875 4.777344 5.890625 4.859375 C 6.109375 4.941406 6.40625 5.082031 6.554688 5.167969 C 6.703125 5.257812 6.835938 5.328125 6.855469 5.328125 C 6.925781 5.328125 7.757812 5.953125 7.9375 6.136719 C 8.089844 6.296875 8.117188 6.355469 8.0625 6.40625 C 7.988281 6.484375 8.007812 6.488281 7.167969 6.121094 C 6.882812 5.992188 6.414062 5.839844 6.128906 5.777344 C 5.5625 5.65625 4.683594 5.546875 4.613281 5.589844 C 4.5625 5.621094 4.554688 7.875 4.605469 7.925781 C 4.625 7.945312 4.761719 7.902344 4.910156 7.828125 C 5.6875 7.433594 6.78125 7.125 7.40625 7.125 C 7.644531 7.125 7.71875 7.144531 7.71875 7.210938 C 7.71875 7.359375 7.695312 7.371094 7.296875 7.507812 C 6.808594 7.671875 6.328125 7.898438 5.824219 8.203125 C 5.34375 8.492188 4.738281 8.96875 4.738281 9.054688 C 4.738281 9.089844 5.101562 9.484375 5.546875 9.929688 L 6.355469 10.734375 L 6.46875 10.480469 C 6.53125 10.339844 6.601562 10.167969 6.625 10.09375 C 6.75 9.6875 7.433594 8.617188 7.855469 8.15625 C 8.039062 7.953125 8.058594 7.949219 8.144531 8.035156 C 8.234375 8.125 8.230469 8.140625 8.109375 8.34375 C 7.742188 8.964844 7.414062 10.105469 7.34375 10.996094 L 7.308594 11.507812 L 8.496094 11.507812 C 9.148438 11.507812 9.683594 11.492188 9.683594 11.46875 C 9.683594 11.453125 9.597656 11.253906 9.492188 11.035156 C 9.152344 10.328125 8.941406 9.574219 8.863281 8.769531 C 8.828125 8.414062 8.839844 8.359375 8.917969 8.359375 C 8.96875 8.359375 9.027344 8.359375 9.046875 8.359375 C 9.066406 8.355469 9.164062 8.578125 9.261719 8.847656 C 9.484375 9.46875 9.730469 9.953125 10.09375 10.496094 C 10.457031 11.042969 10.703125 11.335938 10.796875 11.339844 C 10.890625 11.339844 12.449219 9.773438 12.410156 9.714844 C 12.394531 9.6875 12.261719 9.625 12.113281 9.570312 C 11.378906 9.292969 10.546875 8.804688 9.980469 8.3125 C 9.703125 8.074219 9.691406 8.054688 9.777344 7.957031 C 9.863281 7.859375 9.878906 7.863281 10.183594 8.019531 C 10.953125 8.421875 11.789062 8.65625 12.753906 8.734375 L 13.222656 8.769531 L 13.222656 7.582031 C 13.222656 6.929688 13.210938 6.394531 13.191406 6.394531 C 13.175781 6.394531 13.019531 6.46875 12.84375 6.558594 C 12.125 6.917969 10.941406 7.238281 10.328125 7.238281 C 10.105469 7.238281 10.078125 7.222656 10.078125 7.109375 C 10.078125 7.003906 10.140625 6.964844 10.484375 6.851562 C 11.242188 6.601562 12.085938 6.152344 12.605469 5.722656 C 12.742188 5.609375 12.914062 5.484375 12.984375 5.449219 C 13.054688 5.410156 13.109375 5.351562 13.109375 5.316406 C 13.109375 5.246094 11.542969 3.640625 11.472656 3.640625 C 11.453125 3.640625 11.378906 3.785156 11.3125 3.964844 C 11.042969 4.695312 10.304688 5.894531 9.894531 6.269531 C 9.769531 6.386719 9.75 6.390625 9.683594 6.308594 C 9.617188 6.234375 9.640625 6.15625 9.808594 5.789062 C 10.148438 5.054688 10.1875 4.945312 10.300781 4.410156 C 10.417969 3.875 10.527344 2.972656 10.484375 2.898438 C 10.464844 2.859375 9.886719 2.847656 9.3125 2.855469 Z M 8.898438 6.332031 C 9.363281 6.332031 9.742188 6.710938 9.746094 7.179688 C 9.746094 7.648438 9.363281 8.027344 8.898438 8.027344 C 8.671875 8.027344 8.457031 7.9375 8.296875 7.78125 C 8.140625 7.621094 8.050781 7.40625 8.050781 7.179688 C 8.050781 6.710938 8.429688 6.332031 8.898438 6.332031 Z M 8.898438 6.332031 "/>
</g>
</svg>
