<?xml version="1.0" encoding="UTF-8"?>
<svg xmlns="http://www.w3.org/2000/svg" xmlns:xlink="http://www.w3.org/1999/xlink" width="16pt" height="16pt" viewBox="0 0 16 16" version="1.1">
<g id="surface1">
<path style=" stroke:none;fill-rule:evenodd;fill:rgb(55.686275%,55.686275%,55.686275%);fill-opacity:1;" d="M 3.734375 0.949219 L 12.265625 0.949219 C 13.800781 0.949219 15.050781 2.199219 15.050781 3.734375 L 15.050781 12.265625 C 15.050781 13.800781 13.800781 15.050781 12.265625 15.050781 L 3.734375 15.050781 C 2.199219 15.050781 0.949219 13.800781 0.949219 12.265625 L 0.949219 3.734375 C 0.949219 2.199219 2.199219 0.949219 3.734375 0.949219 Z M 3.734375 0.949219 "/>
<path style=" stroke:none;fill-rule:nonzero;fill:rgb(27.843137%,27.843137%,27.843137%);fill-opacity:1;" d="M 4.546875 3.699219 C 3.640625 3.699219 2.910156 4.429688 2.910156 5.335938 L 2.910156 9.679688 C 2.910156 10.589844 3.640625 11.320312 4.546875 11.320312 L 5.433594 11.320312 C 5.507812 11.875 5.976562 12.300781 6.550781 12.300781 L 9.449219 12.300781 C 10.023438 12.300781 10.492188 11.875 10.566406 11.320312 L 11.453125 11.320312 C 12.359375 11.320312 13.089844 10.589844 13.089844 9.679688 L 13.089844 5.335938 C 13.089844 4.429688 12.359375 3.699219 11.453125 3.699219 Z M 4.546875 3.699219 "/>
<path style=" stroke:none;fill-rule:nonzero;fill:rgb(13.72549%,13.72549%,13.72549%);fill-opacity:1;" d="M 4.609375 4.179688 L 11.390625 4.179688 C 12.078125 4.179688 12.632812 4.714844 12.632812 5.371094 L 12.632812 9.644531 C 12.632812 10.304688 12.078125 10.835938 11.390625 10.835938 L 4.609375 10.835938 C 3.921875 10.835938 3.367188 10.304688 3.367188 9.644531 L 3.367188 5.371094 C 3.367188 4.714844 3.921875 4.179688 4.609375 4.179688 Z M 4.609375 4.179688 "/>
<path style=" stroke:none;fill-rule:evenodd;fill:rgb(95.294118%,52.156863%,18.039216%);fill-opacity:1;" d="M 14.027344 10.949219 C 14.027344 12.605469 12.683594 13.949219 11.027344 13.949219 C 9.371094 13.949219 8.027344 12.605469 8.027344 10.949219 C 8.027344 9.289062 9.371094 7.949219 11.027344 7.949219 C 12.683594 7.949219 14.027344 9.289062 14.027344 10.949219 Z M 14.027344 10.949219 "/>
<path style=" stroke:none;fill-rule:nonzero;fill:rgb(100%,100%,100%);fill-opacity:1;" d="M 10.652344 9.449219 L 10.617188 9.84375 C 10.492188 9.890625 10.375 9.957031 10.273438 10.042969 L 9.914062 9.875 L 9.539062 10.523438 L 9.867188 10.75 C 9.855469 10.8125 9.847656 10.878906 9.847656 10.949219 C 9.847656 11.015625 9.855469 11.082031 9.863281 11.148438 L 9.539062 11.375 L 9.914062 12.023438 L 10.273438 11.855469 C 10.375 11.9375 10.492188 12.003906 10.617188 12.050781 L 10.652344 12.449219 L 11.402344 12.449219 L 11.433594 12.050781 C 11.558594 12.003906 11.675781 11.9375 11.78125 11.851562 L 12.136719 12.023438 L 12.511719 11.375 L 12.1875 11.144531 C 12.199219 11.078125 12.203125 11.015625 12.203125 10.949219 C 12.203125 10.878906 12.199219 10.8125 12.1875 10.75 L 12.511719 10.523438 L 12.136719 9.875 L 11.78125 10.042969 C 11.675781 9.957031 11.5625 9.890625 11.433594 9.84375 L 11.402344 9.449219 Z M 11.027344 10.519531 C 11.265625 10.519531 11.453125 10.710938 11.453125 10.949219 C 11.453125 11.183594 11.265625 11.375 11.027344 11.375 C 10.789062 11.375 10.597656 11.183594 10.597656 10.949219 C 10.597656 10.710938 10.789062 10.519531 11.027344 10.519531 Z M 11.027344 10.519531 "/>
</g>
</svg>
