<?xml version="1.0" encoding="UTF-8"?>
<svg xmlns="http://www.w3.org/2000/svg" xmlns:xlink="http://www.w3.org/1999/xlink" width="16pt" height="16pt" viewBox="0 0 16 16" version="1.1">
<g id="surface1">
<path style=" stroke:none;fill-rule:evenodd;fill:rgb(76.078431%,20.784314%,16.470588%);fill-opacity:1;" d="M 3.734375 0.949219 L 12.265625 0.949219 C 13.800781 0.949219 15.050781 2.199219 15.050781 3.734375 L 15.050781 12.265625 C 15.050781 13.800781 13.800781 15.050781 12.265625 15.050781 L 3.734375 15.050781 C 2.199219 15.050781 0.949219 13.800781 0.949219 12.265625 L 0.949219 3.734375 C 0.949219 2.199219 2.199219 0.949219 3.734375 0.949219 Z M 3.734375 0.949219 "/>
<path style=" stroke:none;fill-rule:nonzero;fill:rgb(100%,100%,100%);fill-opacity:1;" d="M 5.832031 5 C 5.808594 5 5.78125 5 5.75 5.003906 C 5.636719 5.011719 3.453125 5.390625 3.3125 5.429688 C 3.167969 5.46875 3.042969 5.554688 3.011719 5.632812 C 2.957031 5.769531 3.109375 6.210938 3.308594 6.503906 C 3.652344 7.015625 4.152344 7.339844 5.203125 7.734375 C 5.78125 7.953125 5.902344 8.003906 5.980469 8.089844 C 6.078125 8.195312 5.996094 8.25 5.234375 8.5625 C 4.039062 9.058594 3.804688 9.476562 3.578125 10.097656 C 3.507812 10.28125 3.476562 10.765625 3.523438 10.886719 C 3.585938 11.046875 3.625 11.042969 4.777344 10.839844 C 5.933594 10.636719 5.6875 10.625 5.785156 10.539062 C 5.902344 10.28125 5.9375 10.097656 5.992188 9.851562 C 6.0625 9.625 6.234375 9.390625 6.425781 9.265625 C 7.148438 8.789062 8.507812 9.027344 9.242188 9.753906 C 9.519531 10.027344 9.695312 10.167969 9.832031 10.59375 C 9.914062 10.839844 9.996094 10.945312 10.121094 10.96875 C 10.238281 10.992188 10.242188 11.042969 11.714844 10.78125 C 12.53125 10.636719 12.875 10.464844 12.921875 10.429688 C 13.027344 10.355469 13.027344 10.171875 12.921875 9.863281 C 12.746094 9.34375 12.4375 8.910156 11.871094 8.507812 C 11.589844 8.308594 11.234375 8.121094 10.628906 7.851562 C 10.058594 7.597656 10 7.527344 10 7.449219 C 10 7.382812 10.011719 7.351562 10.464844 7.226562 C 11.460938 6.949219 11.996094 6.484375 11.996094 5.761719 C 11.996094 5.445312 11.933594 5.191406 11.832031 5.109375 C 11.703125 4.996094 11.558594 4.992188 11.003906 5.085938 C 9.21875 5.390625 9.121094 5.449219 9.039062 5.578125 C 8.996094 5.640625 8.996094 5.65625 9.078125 5.957031 C 9.125 6.132812 9.160156 6.3125 9.160156 6.363281 C 9.160156 6.46875 9.082031 6.648438 9.011719 6.710938 C 8.832031 6.867188 8.429688 7 8.019531 7 C 7.519531 7 7.144531 6.8125 6.773438 6.441406 C 6.5 6.171875 6.363281 5.949219 6.179688 5.46875 C 6.019531 5.050781 6 5 5.832031 5 Z M 5.832031 5 "/>
</g>
</svg>
