<?xml version="1.0" encoding="UTF-8"?>
<svg xmlns="http://www.w3.org/2000/svg" xmlns:xlink="http://www.w3.org/1999/xlink" width="16pt" height="16pt" viewBox="0 0 16 16" version="1.1">
<g id="surface1">
<path style=" stroke:none;fill-rule:evenodd;fill:rgb(100%,100%,100%);fill-opacity:1;" d="M 7.476562 5.390625 L 5.390625 5.910156 L 3.300781 10.609375 L 8 12.699219 L 11.132812 10.089844 L 10.609375 6.957031 Z M 7.476562 5.390625 "/>
<path style=" stroke:none;fill-rule:evenodd;fill:rgb(76.862745%,74.509804%,63.529412%);fill-opacity:1;" d="M 15.050781 12.140625 C 14.378906 11.738281 11.300781 10.097656 11.132812 10.089844 L 8 12.699219 L 7.988281 12.695312 L 7.988281 15.050781 L 12.265625 15.050781 C 13.808594 15.050781 15.050781 13.808594 15.050781 12.265625 Z M 15.050781 12.140625 "/>
<path style=" stroke:none;fill-rule:evenodd;fill:rgb(91.372549%,90.196078%,86.666667%);fill-opacity:1;" d="M 14.84375 2.714844 C 14.246094 3.441406 11.75 5.867188 10.609375 6.957031 L 11.132812 10.089844 L 15.050781 12.140625 L 15.050781 3.734375 C 15.050781 3.375 14.96875 3.03125 14.84375 2.714844 Z M 14.84375 2.714844 "/>
<path style=" stroke:none;fill-rule:evenodd;fill:rgb(23.921569%,39.607843%,78.431373%);fill-opacity:1;" d="M 7.476562 0.949219 L 7.476562 5.390625 L 10.609375 6.957031 C 12.027344 5.5625 13.351562 4.34375 14.84375 2.714844 C 14.4375 1.683594 13.445312 0.949219 12.265625 0.949219 Z M 7.476562 0.949219 "/>
<path style=" stroke:none;fill-rule:evenodd;fill:rgb(69.019608%,67.058824%,51.764706%);fill-opacity:1;" d="M 0.949219 11.644531 L 0.949219 12.265625 C 0.949219 13.808594 2.191406 15.050781 3.734375 15.050781 L 7.988281 15.050781 L 7.988281 12.695312 L 3.320312 10.617188 Z M 0.949219 11.644531 "/>
<path style=" stroke:none;fill-rule:evenodd;fill:rgb(83.921569%,82.352941%,75.294118%);fill-opacity:1;" d="M 0.949219 11.644531 L 3.320312 10.617188 L 3.300781 10.609375 L 5.386719 5.921875 L 1.03125 3.328125 C 1.011719 3.46875 0.949219 3.59375 0.949219 3.734375 Z M 0.949219 11.644531 "/>
<path style=" stroke:none;fill-rule:evenodd;fill:rgb(86.666667%,33.72549%,22.352941%);fill-opacity:1;" d="M 1.03125 3.328125 L 5.386719 5.921875 L 5.390625 5.910156 L 7.476562 5.390625 L 7.476562 0.949219 L 3.734375 0.949219 C 2.335938 0.949219 1.234375 1.988281 1.03125 3.328125 Z M 1.03125 3.328125 "/>
</g>
</svg>
