<?xml version="1.0" encoding="UTF-8"?>
<svg xmlns="http://www.w3.org/2000/svg" xmlns:xlink="http://www.w3.org/1999/xlink" width="16pt" height="16pt" viewBox="0 0 16 16" version="1.1">
<g id="surface1">
<path style=" stroke:none;fill-rule:evenodd;fill:rgb(45.490196%,69.803922%,92.941176%);fill-opacity:1;" d="M 3.734375 0.949219 L 12.265625 0.949219 C 13.800781 0.949219 15.050781 2.199219 15.050781 3.734375 L 15.050781 12.265625 C 15.050781 13.800781 13.800781 15.050781 12.265625 15.050781 L 3.734375 15.050781 C 2.199219 15.050781 0.949219 13.800781 0.949219 12.265625 L 0.949219 3.734375 C 0.949219 2.199219 2.199219 0.949219 3.734375 0.949219 Z M 3.734375 0.949219 "/>
<path style=" stroke:none;fill-rule:nonzero;fill:rgb(100%,100%,100%);fill-opacity:1;" d="M 5.75 6.25 L 5.75 6.75 L 5.5 6.75 C 5.085938 6.75 4.75 7.085938 4.75 7.5 C 4.75 7.914062 5.085938 8.25 5.5 8.25 L 5.75 8.25 L 5.75 8.75 L 4.796875 8.75 C 4.898438 9.042969 5.171875 9.25 5.5 9.25 L 5.75 9.25 L 5.75 9.75 L 6.25 9.75 L 6.25 9.25 L 6.5 9.25 C 6.914062 9.25 7.25 8.914062 7.25 8.5 C 7.25 8.085938 6.914062 7.75 6.5 7.75 L 6.25 7.75 L 6.25 7.25 L 7.203125 7.25 C 7.101562 6.957031 6.828125 6.75 6.5 6.75 L 6.25 6.75 L 6.25 6.25 Z M 5.5 7.25 L 5.75 7.25 L 5.75 7.75 L 5.5 7.75 C 5.359375 7.75 5.25 7.640625 5.25 7.5 C 5.25 7.359375 5.359375 7.25 5.5 7.25 Z M 6.25 8.25 L 6.5 8.25 C 6.640625 8.25 6.75 8.359375 6.75 8.5 C 6.75 8.640625 6.640625 8.757812 6.5 8.75 L 6.25 8.75 Z M 8.25 9.25 L 8.25 9.75 L 11.25 9.75 L 11.25 9.25 Z M 8.25 9.25 "/>
</g>
</svg>
