<?xml version="1.0" encoding="UTF-8"?>
<svg xmlns="http://www.w3.org/2000/svg" xmlns:xlink="http://www.w3.org/1999/xlink" width="16pt" height="16pt" viewBox="0 0 16 16" version="1.1">
<g id="surface1">
<path style=" stroke:none;fill-rule:evenodd;fill:rgb(37.647059%,37.647059%,37.647059%);fill-opacity:1;" d="M 3.734375 0.949219 L 12.265625 0.949219 C 13.800781 0.949219 15.050781 2.199219 15.050781 3.734375 L 15.050781 12.265625 C 15.050781 13.800781 13.800781 15.050781 12.265625 15.050781 L 3.734375 15.050781 C 2.199219 15.050781 0.949219 13.800781 0.949219 12.265625 L 0.949219 3.734375 C 0.949219 2.199219 2.199219 0.949219 3.734375 0.949219 Z M 3.734375 0.949219 "/>
<path style=" stroke:none;fill-rule:nonzero;fill:rgb(30.980392%,30.980392%,30.980392%);fill-opacity:1;" d="M 7.671875 4.875 C 5.371094 4.875 5.90625 6.90625 4.726562 7.539062 C 3.53125 8.21875 4.191406 8.824219 4.382812 9.480469 C 4.710938 10.570312 5.625 9.800781 8.328125 9.152344 C 11.03125 8.5 11.613281 8.597656 11.285156 7.507812 C 11.09375 6.859375 11.734375 6.257812 10.335938 6.203125 C 9.203125 6.265625 9.3125 4.875 7.671875 4.875 Z M 7.671875 4.875 "/>
<path style=" stroke:none;fill-rule:nonzero;fill:rgb(18.039216%,44.705882%,87.058824%);fill-opacity:1;" d="M 12.894531 7.316406 C 12.570312 6.226562 10.113281 5.867188 7.40625 6.515625 C 4.703125 7.164062 2.777344 8.578125 3.105469 9.667969 C 3.429688 10.761719 5.886719 11.121094 8.59375 10.472656 C 11.296875 9.824219 13.222656 8.410156 12.894531 7.316406 Z M 12.894531 7.316406 "/>
<path style=" stroke:none;fill-rule:nonzero;fill:rgb(100%,100%,100%);fill-opacity:1;" d="M 10.617188 9.425781 C 10.496094 8.867188 9.371094 8.65625 8.105469 8.960938 C 6.839844 9.261719 5.914062 9.960938 6.039062 10.519531 C 6.160156 11.078125 7.285156 11.285156 8.550781 10.984375 C 9.816406 10.683594 10.742188 9.984375 10.617188 9.425781 Z M 10.617188 9.425781 "/>
</g>
</svg>
