<?xml version="1.0" encoding="UTF-8"?>
<svg xmlns="http://www.w3.org/2000/svg" xmlns:xlink="http://www.w3.org/1999/xlink" width="16pt" height="16pt" viewBox="0 0 16 16" version="1.1">
<g id="surface1">
<path style=" stroke:none;fill-rule:evenodd;fill:rgb(98.039216%,74.117647%,49.803922%);fill-opacity:1;" d="M 3.734375 0.949219 L 12.265625 0.949219 C 13.800781 0.949219 15.050781 2.199219 15.050781 3.734375 L 15.050781 12.265625 C 15.050781 13.800781 13.800781 15.050781 12.265625 15.050781 L 3.734375 15.050781 C 2.199219 15.050781 0.949219 13.800781 0.949219 12.265625 L 0.949219 3.734375 C 0.949219 2.199219 2.199219 0.949219 3.734375 0.949219 Z M 3.734375 0.949219 "/>
<path style=" stroke:none;fill-rule:nonzero;fill:rgb(100%,100%,100%);fill-opacity:1;" d="M 6.015625 3.933594 C 5.765625 3.933594 5.5625 4.140625 5.5625 4.394531 L 5.5625 9.03125 L 4.160156 7.597656 C 3.980469 7.414062 3.695312 7.414062 3.515625 7.597656 L 3.195312 7.925781 C 3.015625 8.109375 3.015625 8.398438 3.195312 8.582031 L 5.640625 11.078125 C 5.933594 12.332031 7.03125 13.21875 8.292969 13.21875 C 9.796875 13.21875 11.019531 11.972656 11.019531 10.433594 L 11.019531 4.394531 C 11.019531 4.140625 10.816406 3.933594 10.566406 3.933594 L 10.109375 3.933594 C 9.859375 3.933594 9.65625 4.140625 9.65625 4.394531 L 9.65625 7.015625 C 9.65625 6.851562 9.453125 6.71875 9.203125 6.71875 L 8.746094 6.71875 C 8.496094 6.71875 8.292969 6.851562 8.292969 7.015625 C 8.292969 6.851562 8.089844 6.71875 7.835938 6.71875 L 7.382812 6.71875 C 7.128906 6.71875 6.925781 6.851562 6.925781 7.015625 L 6.925781 4.394531 C 6.925781 4.140625 6.722656 3.933594 6.472656 3.933594 Z M 6.015625 3.933594 "/>
<path style=" stroke:none;fill-rule:nonzero;fill:rgb(98.039216%,80.784314%,63.529412%);fill-opacity:1;" d="M 6.265625 4.082031 C 6.015625 4.082031 5.789062 4.242188 5.789062 4.628906 C 5.789062 5.011719 5.996094 5.324219 6.246094 5.324219 C 6.496094 5.324219 6.699219 5.011719 6.699219 4.628906 C 6.699219 4.242188 6.515625 4.082031 6.265625 4.082031 Z M 10.339844 4.082031 C 10.089844 4.082031 9.882812 4.242188 9.882812 4.628906 C 9.882812 5.011719 10.089844 5.324219 10.339844 5.324219 C 10.589844 5.324219 10.792969 5.011719 10.792969 4.628906 C 10.792969 4.242188 10.589844 4.082031 10.339844 4.082031 Z M 3.6875 7.71875 C 3.625 7.722656 3.558594 7.757812 3.476562 7.804688 C 3.257812 7.933594 3.027344 8.121094 3.214844 8.453125 C 3.40625 8.785156 3.734375 8.953125 3.949219 8.824219 C 4.167969 8.695312 4.191406 8.320312 4.003906 7.988281 C 3.886719 7.78125 3.796875 7.710938 3.6875 7.71875 Z M 3.6875 7.71875 "/>
<path style=" stroke:none;fill-rule:nonzero;fill:rgb(90.980392%,64.705882%,37.647059%);fill-opacity:1;" d="M 6.015625 3.933594 C 5.765625 3.933594 5.5625 4.140625 5.5625 4.394531 L 5.5625 9.03125 L 4.160156 7.597656 C 3.980469 7.414062 3.695312 7.414062 3.515625 7.597656 L 3.195312 7.925781 C 3.015625 8.109375 3.015625 8.398438 3.195312 8.582031 L 5.640625 11.078125 C 5.933594 12.332031 7.03125 13.21875 8.292969 13.21875 C 9.796875 13.21875 11.019531 11.972656 11.019531 10.433594 L 11.019531 4.394531 C 11.019531 4.140625 10.816406 3.933594 10.566406 3.933594 L 10.109375 3.933594 C 9.859375 3.933594 9.65625 4.140625 9.65625 4.394531 L 9.65625 7.015625 C 9.65625 6.851562 9.453125 6.71875 9.203125 6.71875 L 8.746094 6.71875 C 8.496094 6.71875 8.292969 6.851562 8.292969 7.015625 C 8.292969 6.851562 8.089844 6.71875 7.835938 6.71875 L 7.382812 6.71875 C 7.128906 6.71875 6.925781 6.851562 6.925781 7.015625 L 6.925781 4.394531 C 6.925781 4.140625 6.722656 3.933594 6.472656 3.933594 Z M 6.015625 4.28125 L 6.472656 4.28125 C 6.542969 4.28125 6.585938 4.328125 6.585938 4.394531 L 6.585938 8.503906 C 6.59375 8.910156 7.164062 8.953125 7.257812 8.558594 C 7.28125 8.546875 7.320312 7.066406 7.382812 7.066406 L 7.835938 7.066406 C 7.898438 7.066406 7.9375 8.3125 7.960938 8.324219 C 8.046875 8.679688 8.539062 8.679688 8.625 8.324219 C 8.644531 8.3125 8.6875 7.066406 8.746094 7.066406 L 9.203125 7.066406 C 9.261719 7.066406 9.304688 8.617188 9.328125 8.625 C 9.421875 9.023438 9.992188 8.980469 10 8.570312 L 10 4.394531 C 10 4.328125 10.042969 4.28125 10.109375 4.28125 L 10.566406 4.28125 C 10.636719 4.28125 10.679688 4.328125 10.679688 4.394531 L 10.679688 10.433594 C 10.679688 11.78125 9.613281 12.871094 8.292969 12.871094 C 7.1875 12.871094 6.226562 12.09375 5.972656 10.996094 C 5.957031 10.933594 5.925781 10.875 5.878906 10.832031 L 3.4375 8.335938 C 3.386719 8.285156 3.386719 8.21875 3.4375 8.171875 L 3.757812 7.84375 C 3.804688 7.792969 3.871094 7.792969 3.917969 7.84375 L 5.320312 9.277344 C 5.535156 9.496094 5.90625 9.339844 5.90625 9.03125 L 5.90625 4.394531 C 5.90625 4.328125 5.949219 4.28125 6.015625 4.28125 Z M 6.015625 4.28125 "/>
</g>
</svg>
