<?xml version="1.0" encoding="UTF-8"?>
<svg xmlns="http://www.w3.org/2000/svg" xmlns:xlink="http://www.w3.org/1999/xlink" width="16pt" height="16pt" viewBox="0 0 16 16" version="1.1">
<g id="surface1">
<path style=" stroke:none;fill-rule:evenodd;fill:rgb(35.686275%,35.686275%,35.686275%);fill-opacity:1;" d="M 3.734375 0.949219 L 12.265625 0.949219 C 13.800781 0.949219 15.050781 2.199219 15.050781 3.734375 L 15.050781 12.265625 C 15.050781 13.800781 13.800781 15.050781 12.265625 15.050781 L 3.734375 15.050781 C 2.199219 15.050781 0.949219 13.800781 0.949219 12.265625 L 0.949219 3.734375 C 0.949219 2.199219 2.199219 0.949219 3.734375 0.949219 Z M 3.734375 0.949219 "/>
<path style=" stroke:none;fill-rule:nonzero;fill:rgb(55.686275%,55.686275%,55.686275%);fill-opacity:1;" d="M 13.574219 9.714844 L 13.574219 10.144531 L 2.425781 10.144531 L 2.425781 9.714844 Z M 13.574219 9.714844 "/>
<path style=" stroke:none;fill-rule:nonzero;fill:rgb(55.686275%,55.686275%,55.686275%);fill-opacity:1;" d="M 13.574219 11 L 13.574219 11.429688 L 2.425781 11.429688 L 2.425781 11 Z M 13.574219 11 "/>
<path style=" stroke:none;fill-rule:nonzero;fill:rgb(55.686275%,55.686275%,55.686275%);fill-opacity:1;" d="M 13.574219 12.289062 L 13.574219 12.71875 L 2.425781 12.71875 L 2.425781 12.289062 Z M 13.574219 12.289062 "/>
<path style=" stroke:none;fill-rule:nonzero;fill:rgb(55.686275%,55.686275%,55.686275%);fill-opacity:1;" d="M 13.574219 5.855469 L 13.574219 6.285156 L 2.425781 6.285156 L 2.425781 5.855469 Z M 13.574219 5.855469 "/>
<path style=" stroke:none;fill-rule:nonzero;fill:rgb(55.686275%,55.686275%,55.686275%);fill-opacity:1;" d="M 13.574219 7.140625 L 13.574219 7.570312 L 2.425781 7.570312 L 2.425781 7.140625 Z M 13.574219 7.140625 "/>
<path style=" stroke:none;fill-rule:nonzero;fill:rgb(55.686275%,55.686275%,55.686275%);fill-opacity:1;" d="M 13.574219 8.429688 L 13.574219 8.859375 L 2.425781 8.859375 L 2.425781 8.429688 Z M 13.574219 8.429688 "/>
<path style=" stroke:none;fill-rule:nonzero;fill:rgb(55.686275%,55.686275%,55.686275%);fill-opacity:1;" d="M 13.574219 4.570312 L 13.574219 5 L 2.425781 5 L 2.425781 4.570312 Z M 13.574219 4.570312 "/>
<path style=" stroke:none;fill-rule:nonzero;fill:rgb(55.686275%,55.686275%,55.686275%);fill-opacity:1;" d="M 13.574219 3.28125 L 13.574219 3.710938 L 2.425781 3.710938 L 2.425781 3.28125 Z M 13.574219 3.28125 "/>
<path style=" stroke:none;fill-rule:nonzero;fill:rgb(55.686275%,55.686275%,55.686275%);fill-opacity:1;" d="M 6.285156 13.574219 L 5.855469 13.574219 L 5.855469 2.425781 L 6.285156 2.425781 Z M 6.285156 13.574219 "/>
<path style=" stroke:none;fill-rule:nonzero;fill:rgb(55.686275%,55.686275%,55.686275%);fill-opacity:1;" d="M 5 13.574219 L 4.570312 13.574219 L 4.570312 2.425781 L 5 2.425781 Z M 5 13.574219 "/>
<path style=" stroke:none;fill-rule:nonzero;fill:rgb(55.686275%,55.686275%,55.686275%);fill-opacity:1;" d="M 3.710938 13.574219 L 3.28125 13.574219 L 3.28125 2.425781 L 3.710938 2.425781 Z M 3.710938 13.574219 "/>
<path style=" stroke:none;fill-rule:nonzero;fill:rgb(55.686275%,55.686275%,55.686275%);fill-opacity:1;" d="M 10.144531 13.574219 L 9.714844 13.574219 L 9.714844 2.425781 L 10.144531 2.425781 Z M 10.144531 13.574219 "/>
<path style=" stroke:none;fill-rule:nonzero;fill:rgb(55.686275%,55.686275%,55.686275%);fill-opacity:1;" d="M 8.859375 13.574219 L 8.429688 13.574219 L 8.429688 2.425781 L 8.859375 2.425781 Z M 8.859375 13.574219 "/>
<path style=" stroke:none;fill-rule:nonzero;fill:rgb(55.686275%,55.686275%,55.686275%);fill-opacity:1;" d="M 7.570312 13.574219 L 7.140625 13.574219 L 7.140625 2.425781 L 7.570312 2.425781 Z M 7.570312 13.574219 "/>
<path style=" stroke:none;fill-rule:nonzero;fill:rgb(55.686275%,55.686275%,55.686275%);fill-opacity:1;" d="M 11.429688 13.574219 L 11 13.574219 L 11 2.425781 L 11.429688 2.425781 Z M 11.429688 13.574219 "/>
<path style=" stroke:none;fill-rule:nonzero;fill:rgb(55.686275%,55.686275%,55.686275%);fill-opacity:1;" d="M 12.71875 13.574219 L 12.289062 13.574219 L 12.289062 2.425781 L 12.71875 2.425781 Z M 12.71875 13.574219 "/>
<path style=" stroke:none;fill-rule:nonzero;fill:rgb(71.764706%,71.764706%,71.764706%);fill-opacity:1;" d="M 13.144531 12.609375 L 13.144531 3.390625 C 13.144531 3.09375 12.90625 2.855469 12.609375 2.855469 L 3.390625 2.855469 C 3.09375 2.855469 2.855469 3.09375 2.855469 3.390625 L 2.855469 12.609375 C 2.855469 12.90625 3.09375 13.144531 3.390625 13.144531 L 12.609375 13.144531 C 12.90625 13.144531 13.144531 12.90625 13.144531 12.609375 Z M 13.144531 12.609375 "/>
<path style=" stroke:none;fill-rule:nonzero;fill:rgb(40%,40%,40%);fill-opacity:1;" d="M 4.140625 5.855469 L 6.714844 5.855469 L 6.714844 6.285156 L 4.140625 6.285156 Z M 4.140625 5.855469 "/>
<path style=" stroke:none;fill-rule:nonzero;fill:rgb(40%,40%,40%);fill-opacity:1;" d="M 7.140625 5.855469 L 8.429688 5.855469 L 8.429688 6.285156 L 7.140625 6.285156 Z M 7.140625 5.855469 "/>
<path style=" stroke:none;fill-rule:nonzero;fill:rgb(40%,40%,40%);fill-opacity:1;" d="M 8.859375 5.855469 L 11.859375 5.855469 L 11.859375 6.285156 L 8.859375 6.285156 Z M 8.859375 5.855469 "/>
<path style=" stroke:none;fill-rule:nonzero;fill:rgb(40%,40%,40%);fill-opacity:1;" d="M 4.140625 7.570312 L 7.570312 7.570312 L 7.570312 8 L 4.140625 8 Z M 4.140625 7.570312 "/>
<path style=" stroke:none;fill-rule:nonzero;fill:rgb(40%,40%,40%);fill-opacity:1;" d="M 8 7.570312 L 11.429688 7.570312 L 11.429688 8 L 8 8 Z M 8 7.570312 "/>
<path style=" stroke:none;fill-rule:nonzero;fill:rgb(40%,40%,40%);fill-opacity:1;" d="M 4.140625 9.285156 L 5.425781 9.285156 L 5.425781 9.714844 L 4.140625 9.714844 Z M 4.140625 9.285156 "/>
<path style=" stroke:none;fill-rule:nonzero;fill:rgb(40%,40%,40%);fill-opacity:1;" d="M 5.855469 9.285156 L 7.140625 9.285156 L 7.140625 9.714844 L 5.855469 9.714844 Z M 5.855469 9.285156 "/>
<path style=" stroke:none;fill-rule:nonzero;fill:rgb(40%,40%,40%);fill-opacity:1;" d="M 7.570312 9.285156 L 10.144531 9.285156 L 10.144531 9.714844 L 7.570312 9.714844 Z M 7.570312 9.285156 "/>
</g>
</svg>
