<?xml version="1.0" encoding="UTF-8"?>
<svg xmlns="http://www.w3.org/2000/svg" xmlns:xlink="http://www.w3.org/1999/xlink" width="16pt" height="16pt" viewBox="0 0 16 16" version="1.1">
<g id="surface1">
<path style=" stroke:none;fill-rule:evenodd;fill:rgb(60.392157%,79.215686%,23.529412%);fill-opacity:1;" d="M 3.734375 0.949219 L 12.265625 0.949219 C 13.800781 0.949219 15.050781 2.199219 15.050781 3.734375 L 15.050781 12.265625 C 15.050781 13.800781 13.800781 15.050781 12.265625 15.050781 L 3.734375 15.050781 C 2.199219 15.050781 0.949219 13.800781 0.949219 12.265625 L 0.949219 3.734375 C 0.949219 2.199219 2.199219 0.949219 3.734375 0.949219 Z M 3.734375 0.949219 "/>
<path style="fill:none;stroke-width:3;stroke-linecap:round;stroke-linejoin:round;stroke:rgb(100%,100%,100%);stroke-opacity:1;stroke-miterlimit:4;" d="M 12.499841 22.5 L 22.499841 9.5 " transform="matrix(0.5,0,0,0.5,-0.49992,0)"/>
<path style="fill:none;stroke-width:3;stroke-linecap:round;stroke-linejoin:round;stroke:rgb(100%,100%,100%);stroke-opacity:1;stroke-miterlimit:4;" d="M 11.499841 9.5 L 16.702966 16 " transform="matrix(0.5,0,0,0.5,-0.49992,0)"/>
<path style=" stroke:none;fill-rule:nonzero;fill:rgb(30.980392%,30.980392%,30.980392%);fill-opacity:1;" d="M 14.105469 11 C 14.105469 12.65625 12.761719 14 11.105469 14 C 9.449219 14 8.105469 12.65625 8.105469 11 C 8.105469 9.34375 9.449219 8 11.105469 8 C 12.761719 8 14.105469 9.34375 14.105469 11 Z M 14.105469 11 "/>
<path style=" stroke:none;fill-rule:nonzero;fill:rgb(100%,100%,100%);fill-opacity:1;" d="M 10.355469 9.5 C 9.527344 9.5 8.855469 10.171875 8.855469 11 C 8.855469 11.828125 9.527344 12.5 10.355469 12.5 C 11.039062 12.5 11.636719 12.035156 11.804688 11.375 L 12.605469 11.375 L 12.605469 12.125 L 12.980469 12.125 L 12.980469 11.375 L 13.355469 11.375 L 13.355469 10.625 L 11.804688 10.625 C 11.636719 9.964844 11.039062 9.5 10.355469 9.5 Z M 10.355469 10.25 C 10.769531 10.25 11.105469 10.585938 11.105469 11 C 11.105469 11.414062 10.769531 11.75 10.355469 11.75 C 9.941406 11.75 9.605469 11.414062 9.605469 11 C 9.605469 10.585938 9.941406 10.25 10.355469 10.25 Z M 10.355469 10.25 "/>
</g>
</svg>
