<?xml version="1.0" encoding="UTF-8"?>
<svg xmlns="http://www.w3.org/2000/svg" xmlns:xlink="http://www.w3.org/1999/xlink" width="16pt" height="16pt" viewBox="0 0 16 16" version="1.1">
<g id="surface1">
<path style=" stroke:none;fill-rule:evenodd;fill:rgb(17.254902%,66.666667%,77.647059%);fill-opacity:1;" d="M 3.734375 0.949219 L 12.265625 0.949219 C 13.800781 0.949219 15.050781 2.199219 15.050781 3.734375 L 15.050781 12.265625 C 15.050781 13.800781 13.800781 15.050781 12.265625 15.050781 L 3.734375 15.050781 C 2.199219 15.050781 0.949219 13.800781 0.949219 12.265625 L 0.949219 3.734375 C 0.949219 2.199219 2.199219 0.949219 3.734375 0.949219 Z M 3.734375 0.949219 "/>
<path style=" stroke:none;fill-rule:nonzero;fill:rgb(43.137255%,43.137255%,43.137255%);fill-opacity:1;" d="M 3.347656 6.015625 L 3.347656 8 C 3.347656 8.441406 3.3125 9.199219 3.605469 9.550781 C 4.085938 10.359375 5.121094 12.109375 5.515625 12.90625 C 5.644531 13.148438 5.933594 13.210938 6.296875 13.210938 L 9.703125 13.210938 C 10.066406 13.210938 10.355469 13.148438 10.484375 12.90625 C 10.878906 12.109375 11.914062 10.359375 12.394531 9.550781 C 12.6875 9.199219 12.652344 8.441406 12.652344 8 L 12.652344 6.015625 C 12.652344 4.351562 10.582031 2.789062 8 2.789062 C 5.417969 2.789062 3.347656 4.351562 3.347656 6.015625 Z M 3.347656 6.015625 "/>
<path style=" stroke:none;fill-rule:nonzero;fill:rgb(34.509804%,34.509804%,34.509804%);fill-opacity:1;" d="M 4 7.992188 C 3.699219 7.992188 3.394531 8 3.347656 8.003906 L 3.347656 8.261719 C 3.347656 8.703125 3.3125 9.199219 3.605469 9.550781 C 4.085938 10.359375 5.121094 12.109375 5.515625 12.90625 C 5.644531 13.148438 5.933594 13.210938 6.296875 13.210938 L 9.703125 13.210938 C 10.066406 13.210938 10.355469 13.148438 10.484375 12.90625 C 10.878906 12.109375 11.914062 10.359375 12.394531 9.550781 C 12.6875 9.199219 12.652344 8.703125 12.652344 8.261719 L 12.652344 8.003906 C 12.597656 8.003906 11.515625 8 11.46875 8 C 10.417969 7.992188 10.464844 8.367188 10.03125 9.042969 C 9.625 9.742188 9.625 10.617188 9.421875 11.125 C 9.136719 10.140625 9.292969 8.1875 8 8.1875 C 6.707031 8.1875 6.863281 10.140625 6.578125 11.125 C 6.375 10.617188 6.484375 9.742188 6.082031 9.042969 C 5.800781 8.566406 5.335938 8.03125 4.71875 7.992188 C 4.675781 7.988281 4.300781 7.988281 4 7.992188 Z M 4 7.992188 "/>
<path style=" stroke:none;fill-rule:nonzero;fill:rgb(29.411765%,29.411765%,29.411765%);fill-opacity:1;" d="M 6.296875 13.210938 L 9.703125 13.210938 L 9.421875 11.125 C 9.136719 10.140625 9.292969 8.261719 8 8.261719 C 6.707031 8.261719 6.863281 10.140625 6.578125 11.125 Z M 6.296875 13.210938 "/>
<path style=" stroke:none;fill-rule:nonzero;fill:rgb(47.843137%,76.862745%,92.156863%);fill-opacity:1;" d="M 4.464844 7.253906 L 4.464844 8 C 5.234375 7.878906 5.613281 8.5 5.933594 9.042969 C 6.339844 9.742188 6.375 10.65625 6.578125 11.164062 C 6.863281 10.179688 6.707031 8.371094 8 8.371094 C 9.292969 8.371094 9.136719 10.179688 9.421875 11.164062 C 9.625 10.65625 9.660156 9.742188 10.066406 9.042969 C 10.53125 8.320312 10.714844 8 11.535156 8 L 11.535156 7.253906 Z M 4.464844 7.253906 "/>
</g>
</svg>
