<?xml version="1.0" encoding="UTF-8"?>
<svg xmlns="http://www.w3.org/2000/svg" xmlns:xlink="http://www.w3.org/1999/xlink" width="16pt" height="16pt" viewBox="0 0 16 16" version="1.1">
<g id="surface1">
<path style=" stroke:none;fill-rule:evenodd;fill:rgb(76.862745%,25.490196%,10.196078%);fill-opacity:1;" d="M 3.734375 0.949219 L 12.265625 0.949219 C 13.800781 0.949219 15.050781 2.195312 15.050781 3.734375 L 15.050781 12.261719 C 15.050781 13.800781 13.800781 15.050781 12.265625 15.050781 L 3.734375 15.050781 C 2.199219 15.050781 0.949219 13.800781 0.949219 12.261719 L 0.949219 3.734375 C 0.949219 2.195312 2.199219 0.949219 3.734375 0.949219 Z M 3.734375 0.949219 "/>
<path style=" stroke:none;fill-rule:evenodd;fill:rgb(30.980392%,30.980392%,30.980392%);fill-opacity:1;" d="M 4.542969 15.050781 L 4.542969 0.949219 L 3.734375 0.949219 C 2.191406 0.949219 0.949219 2.191406 0.949219 3.734375 L 0.949219 12.265625 C 0.949219 13.808594 2.191406 15.050781 3.734375 15.050781 Z M 4.542969 15.050781 "/>
<path style="fill:none;stroke-width:2;stroke-linecap:round;stroke-linejoin:round;stroke:rgb(100%,100%,100%);stroke-opacity:1;stroke-miterlimit:4;" d="M -31.104442 -5.314294 L -20.104442 -5.314294 L -31.104442 8.685706 L -20.104442 8.685706 " transform="matrix(0.5,0,0,0.5,22.263158,7.262616)"/>
</g>
</svg>
