<?xml version="1.0" encoding="UTF-8"?>
<svg xmlns="http://www.w3.org/2000/svg" xmlns:xlink="http://www.w3.org/1999/xlink" width="16pt" height="16pt" viewBox="0 0 16 16" version="1.1">
<g id="surface1">
<path style=" stroke:none;fill-rule:evenodd;fill:rgb(28.627451%,79.607843%,77.647059%);fill-opacity:1;" d="M 3.734375 0.949219 L 12.265625 0.949219 C 13.800781 0.949219 15.050781 2.199219 15.050781 3.734375 L 15.050781 12.265625 C 15.050781 13.800781 13.800781 15.050781 12.265625 15.050781 L 3.734375 15.050781 C 2.199219 15.050781 0.949219 13.800781 0.949219 12.265625 L 0.949219 3.734375 C 0.949219 2.199219 2.199219 0.949219 3.734375 0.949219 Z M 3.734375 0.949219 "/>
<path style=" stroke:none;fill-rule:nonzero;fill:rgb(18.823529%,18.823529%,18.823529%);fill-opacity:1;" d="M 3.050781 4.703125 L 3.050781 5.527344 L 7.175781 5.527344 L 3.078125 11.296875 L 8.824219 11.296875 L 8.824219 10.472656 L 4.703125 10.472656 L 8.800781 4.703125 Z M 11.304688 7.175781 C 10.683594 7.175781 10.164062 7.355469 9.792969 7.726562 C 9.417969 8.09375 9.234375 8.613281 9.234375 9.238281 C 9.234375 9.859375 9.417969 10.378906 9.789062 10.75 L 9.792969 10.75 C 10.164062 11.117188 10.683594 11.296875 11.304688 11.296875 C 11.589844 11.296875 11.859375 11.261719 12.113281 11.1875 L 12.117188 11.1875 C 12.363281 11.117188 12.632812 11.011719 12.859375 10.859375 L 12.949219 10.796875 L 12.949219 8.824219 L 11.296875 8.824219 L 11.296875 9.648438 L 12.121094 9.648438 L 12.121094 10.371094 C 12.054688 10.398438 11.988281 10.433594 11.90625 10.449219 C 11.808594 10.46875 11.515625 10.488281 11.347656 10.488281 C 10.929688 10.488281 10.527344 10.359375 10.367188 10.1875 C 10.179688 9.988281 10.0625 9.683594 10.0625 9.238281 C 10.089844 8.359375 10.621094 8.015625 11.347656 7.984375 C 11.710938 8 12.949219 8 12.949219 8 L 12.949219 7.175781 Z M 11.304688 7.175781 "/>
</g>
</svg>
