<?xml version="1.0" encoding="UTF-8" standalone="no"?>
<svg
   xmlns:dc="http://purl.org/dc/elements/1.1/"
   xmlns:cc="http://creativecommons.org/ns#"
   xmlns:rdf="http://www.w3.org/1999/02/22-rdf-syntax-ns#"
   xmlns:svg="http://www.w3.org/2000/svg"
   xmlns="http://www.w3.org/2000/svg"
   xmlns:sodipodi="http://sodipodi.sourceforge.net/DTD/sodipodi-0.dtd"
   xmlns:inkscape="http://www.inkscape.org/namespaces/inkscape"
   width="32"
   height="32"
   version="1"
   id="svg20"
   sodipodi:docname="accessories-camera.svg"
   inkscape:version="0.92.1 r">
  <metadata
     id="metadata26">
    <rdf:RDF>
      <cc:Work
         rdf:about="">
        <dc:format>image/svg+xml</dc:format>
        <dc:type
           rdf:resource="http://purl.org/dc/dcmitype/StillImage" />
      </cc:Work>
    </rdf:RDF>
  </metadata>
  <defs
     id="defs24" />
  <sodipodi:namedview
     pagecolor="#ffffff"
     bordercolor="#666666"
     borderopacity="1"
     objecttolerance="10"
     gridtolerance="10"
     guidetolerance="10"
     inkscape:pageopacity="0"
     inkscape:pageshadow="2"
     inkscape:window-width="1680"
     inkscape:window-height="965"
     id="namedview22"
     showgrid="false"
     inkscape:zoom="7.375"
     inkscape:cx="-10.711864"
     inkscape:cy="16"
     inkscape:window-x="0"
     inkscape:window-y="0"
     inkscape:window-maximized="1"
     inkscape:current-layer="svg20" />
  <rect
     style="opacity:1;fill:#5b5b5b;fill-opacity:1;fill-rule:evenodd;stroke:none;stroke-width:1.03534329;stroke-linecap:round;stroke-linejoin:bevel;stroke-miterlimit:4;stroke-dasharray:none;stroke-dashoffset:0;stroke-opacity:1"
     id="rect4497-3"
     width="28.203388"
     height="28.203388"
     x="1.8983059"
     y="1.8983059"
     ry="5.575182" />
  <g
     id="g4515">
    <path
       id="path6"
       d="M 8.681,16.667 A 7.3333,7.2789 0 0 1 8.6667,16.279 7.3333,7.2789 0 0 1 16,9 7.3333,7.2789 0 0 1 23.333,16.279 7.3333,7.2789 0 0 1 23.319,16.553 7.3333,7.2789 0 0 0 16,9.6617 7.3333,7.2789 0 0 0 8.681,16.667 Z"
       inkscape:connector-curvature="0"
       style="opacity:0.2" />
    <circle
       id="circle8"
       r="8"
       cy="16"
       cx="16"
       style="opacity:0.4" />
    <circle
       id="circle10"
       transform="scale(1,-1)"
       r="7"
       cy="-17"
       cx="16"
       style="opacity:0.2" />
    <circle
       id="circle12"
       transform="scale(1,-1)"
       r="7"
       cy="-16"
       cx="16"
       style="fill:#ba174e" />
    <circle
       id="circle14"
       r="4"
       cy="17"
       cx="16"
       style="opacity:0.2" />
    <circle
       id="circle18"
       r="4"
       cy="16"
       cx="16"
       style="fill:#d67495" />
  </g>
</svg>
