<?xml version="1.0" encoding="UTF-8" standalone="no"?>
<svg
   xmlns:dc="http://purl.org/dc/elements/1.1/"
   xmlns:cc="http://creativecommons.org/ns#"
   xmlns:rdf="http://www.w3.org/1999/02/22-rdf-syntax-ns#"
   xmlns:svg="http://www.w3.org/2000/svg"
   xmlns="http://www.w3.org/2000/svg"
   xmlns:sodipodi="http://sodipodi.sourceforge.net/DTD/sodipodi-0.dtd"
   xmlns:inkscape="http://www.inkscape.org/namespaces/inkscape"
   height="32"
   width="32"
   version="1"
   id="svg14"
   sodipodi:docname="cxmenu-cxoffice-0-crossover.svg"
   inkscape:version="0.92.1 r">
  <metadata
     id="metadata20">
    <rdf:RDF>
      <cc:Work
         rdf:about="">
        <dc:format>image/svg+xml</dc:format>
        <dc:type
           rdf:resource="http://purl.org/dc/dcmitype/StillImage" />
      </cc:Work>
    </rdf:RDF>
  </metadata>
  <defs
     id="defs18" />
  <sodipodi:namedview
     pagecolor="#ffffff"
     bordercolor="#666666"
     borderopacity="1"
     objecttolerance="10"
     gridtolerance="10"
     guidetolerance="10"
     inkscape:pageopacity="0"
     inkscape:pageshadow="2"
     inkscape:window-width="640"
     inkscape:window-height="480"
     id="namedview16"
     showgrid="false"
     inkscape:zoom="8.8125"
     inkscape:cx="-5.5602837"
     inkscape:cy="16"
     inkscape:current-layer="svg14" />
  <rect
     style="opacity:1;fill:#cccccc;fill-opacity:1;fill-rule:evenodd;stroke:none;stroke-width:1.03534329;stroke-linecap:round;stroke-linejoin:bevel;stroke-miterlimit:4;stroke-dasharray:none;stroke-dashoffset:0;stroke-opacity:1"
     id="rect4497-3"
     width="28.203388"
     height="28.203388"
     x="1.8983059"
     y="1.8983059"
     ry="5.575182" />
  <g
     id="g4505"
     transform="translate(-1e-4,-0.49995)">
    <path
       id="path8"
       d="M 17.364,6 C 28.657,20.549 25.536,26.279 8,23.188 19.773,22.751 22.895,17.022 17.364,6"
       inkscape:connector-curvature="0"
       style="fill:#f37421" />
    <path
       id="path10"
       d="m 15.656,9.004 c -8.6124,0.15383 -9.9195,4.7766 -4,13.822 0.39768,-0.06632 0.787,-0.13699 1.1562,-0.2207 -2.616,-8.145 1.1,-12.418 11.188,-12.793 -3.288,-0.579 -6.069,-0.8487 -8.344,-0.808 z m -3.3613,14.783 c 0.70347,1.024 1.4643,2.0823 2.3418,3.2129 -0.55062,-1.0973 -0.992,-2.1267 -1.3711,-3.1191 -0.31303,-0.02495 -0.64396,-0.06041 -0.9707,-0.09375 z"
       inkscape:connector-curvature="0"
       style="fill:#2183f3" />
  </g>
</svg>
