<?xml version="1.0" encoding="UTF-8" standalone="no"?>
<svg
   xmlns:dc="http://purl.org/dc/elements/1.1/"
   xmlns:cc="http://creativecommons.org/ns#"
   xmlns:rdf="http://www.w3.org/1999/02/22-rdf-syntax-ns#"
   xmlns:svg="http://www.w3.org/2000/svg"
   xmlns="http://www.w3.org/2000/svg"
   xmlns:sodipodi="http://sodipodi.sourceforge.net/DTD/sodipodi-0.dtd"
   xmlns:inkscape="http://www.inkscape.org/namespaces/inkscape"
   height="32"
   width="32"
   version="1"
   id="svg14"
   sodipodi:docname="x-pdf.svg"
   inkscape:version="0.92.1 r">
  <metadata
     id="metadata20">
    <rdf:RDF>
      <cc:Work
         rdf:about="">
        <dc:format>image/svg+xml</dc:format>
        <dc:type
           rdf:resource="http://purl.org/dc/dcmitype/StillImage" />
        <dc:title />
      </cc:Work>
    </rdf:RDF>
  </metadata>
  <defs
     id="defs18" />
  <sodipodi:namedview
     pagecolor="#ffffff"
     bordercolor="#666666"
     borderopacity="1"
     objecttolerance="10"
     gridtolerance="10"
     guidetolerance="10"
     inkscape:pageopacity="0"
     inkscape:pageshadow="2"
     inkscape:window-width="1680"
     inkscape:window-height="963"
     id="namedview16"
     showgrid="false"
     inkscape:zoom="14.75"
     inkscape:cx="-1.8635697"
     inkscape:cy="14.291039"
     inkscape:window-x="0"
     inkscape:window-y="0"
     inkscape:window-maximized="1"
     inkscape:current-layer="svg14" />
  <rect
     style="opacity:1;fill:#ececec;fill-opacity:1;fill-rule:evenodd;stroke:none;stroke-width:1.03534329;stroke-linecap:round;stroke-linejoin:bevel;stroke-miterlimit:4;stroke-dasharray:none;stroke-dashoffset:0;stroke-opacity:1"
     id="rect4497-3-3"
     width="28.203388"
     height="28.203388"
     x="1.8983059"
     y="1.8983059"
     ry="5.575182" />
  <g
     id="g4514"
     transform="translate(27.409569,-4.4945336)">
    <path
       id="path4517"
       d="m -12.708417,6.3929702 a 9.6472092,15.435535 30 0 0 -0.109375,0.2285156 9.6472092,15.435535 30 0 0 -0.570314,1.4101563 9.6472092,15.435535 30 0 0 -0.46875,1.4199218 9.6472092,15.435535 30 0 0 -0.363281,1.4160161 9.6472092,15.435535 30 0 0 -0.253906,1.398437 9.6472092,15.435535 30 0 0 -0.140625,1.367188 9.6472092,15.435535 30 0 0 -0.0293,1.322266 9.6472092,15.435535 30 0 0 0.08594,1.263671 9.6472092,15.435535 30 0 0 0.197266,1.19336 9.6472092,15.435535 30 0 0 0.308594,1.109375 9.6472092,15.435535 30 0 0 0.416016,1.015625 9.6472092,15.435535 30 0 0 0.519531,0.910156 9.6472092,15.435535 30 0 0 0.61914,0.798828 9.6472092,15.435535 30 0 0 0.710938,0.675781 9.6472092,15.435535 30 0 0 0.794922,0.548828 9.6472092,15.435535 30 0 0 0.609375,0.308593 9.6472092,15.435535 30 0 0 0.9218751,0.316407 9.6472092,15.435535 30 0 0 0.984375,0.177734 9.6472092,15.435535 30 0 0 1.035156,0.03711 9.6472092,15.435535 30 0 0 1.078125,-0.105468 9.6472092,15.435535 30 0 0 1.107422,-0.246094 9.6472092,15.435535 30 0 0 1.128906,-0.384765 9.6472092,15.435535 30 0 0 1.136719,-0.519531 9.6472092,15.435535 30 0 0 1.132812,-0.650391 9.6472092,15.435535 30 0 0 1.11914099,-0.771484 9.6472092,15.435535 30 0 0 1.095703,-0.886719 9.6472092,15.435535 30 0 0 1.05664101,-0.994141 9.6472092,15.435535 30 0 0 1.011719,-1.089843 9.6472092,15.435535 30 0 0 0.265624,-0.326172 v -5.369142 c 2e-6,-3.0886509 -2.48556601,-5.5742188 -5.574218,-5.5742188 z"
       style="opacity:1;fill:#ececec;fill-opacity:1;fill-rule:evenodd;stroke:none;stroke-width:1.03534329;stroke-linecap:round;stroke-linejoin:bevel;stroke-miterlimit:4;stroke-dasharray:none;stroke-dashoffset:0;stroke-opacity:1"
       inkscape:connector-curvature="0" />
    <path
       id="path4611"
       d="m -15.909589,34.596095 c 0.124565,-0.171154 0.304309,-0.337714 0.40625,-0.509766 0.31231,-0.527105 0.51534,-1.054114 0.591797,-1.566406 0.07925,-0.531037 0.06678,-0.694923 -0.101564,-1.267579 -0.200553,-0.682217 -0.566642,-1.259085 -1.080077,-1.714843 -0.513434,-0.455759 -1.175042,-0.791615 -1.966797,-0.990235 -0.81735,-0.205041 -1.669856,-0.299005 -2.666016,-0.28125 -0.99616,0.01776 -2.135214,0.148226 -3.523437,0.392579 -0.278473,0.04902 -0.837491,0.284603 -1.25586,0.392579 0.01667,3.074176 2.490113,5.544922 5.56836,5.544921 z"
       style="opacity:1;fill:#ececec;fill-opacity:1;fill-rule:evenodd;stroke:none;stroke-width:1.03534329;stroke-linecap:round;stroke-linejoin:bevel;stroke-miterlimit:4;stroke-dasharray:none;stroke-dashoffset:0;stroke-opacity:1"
       inkscape:connector-curvature="0" />
    <path
       id="path4609"
       d="m 1.1372851,32.85586 c -0.39068601,0.04275 -0.83880901,0.189142 -1.19726601,0.195313 -1.67980499,0.02895 -3.18631899,-0.20218 -4.42578099,-0.660157 -0.61973,-0.228988 -1.172267,-0.515886 -1.646484,-0.853515 -0.474217,-0.33763 -0.870696,-0.726519 -1.175782,-1.164063 -0.206289,-0.295858 -0.410406,-0.662969 -0.453124,-0.814453 -0.06267,-0.222218 -0.147684,-0.30355 -0.439454,-0.423828 -0.834899,-0.344173 -1.616522,-0.376819 -2.7460931,-0.117187 -1.0413,0.23934 -1.749327,0.56014 -2.335938,1.058593 -0.62026,0.527053 -0.884318,0.944718 -0.794922,1.261719 0.113721,0.403262 0.05765,1.351944 -0.115233,1.929688 -0.13312,0.444853 -0.385494,0.88777 -0.648439,1.328124 h 11.9589851 c 1.592719,10e-7 3.00568099,-0.676473 4.019531,-1.740234 z"
       style="opacity:1;fill:#ececec;fill-opacity:1;fill-rule:evenodd;stroke:none;stroke-width:1.03534329;stroke-linecap:round;stroke-linejoin:bevel;stroke-miterlimit:4;stroke-dasharray:none;stroke-dashoffset:0;stroke-opacity:1"
       inkscape:connector-curvature="0" />
    <path
       id="path4607"
       d="m 1.1470511,21.545314 c 0.501042,-0.149918 0.808208,-0.338327 1.472656,-0.509766 0.02817,-0.0073 0.04426,-0.0065 0.07227,-0.01367 v -0.828125 a 12.637435,20.219896 30 0 1 -0.324218,0.316406 12.637435,20.219896 30 0 1 -1.220703,1.035156 z"
       style="opacity:1;fill:#ececec;fill-opacity:1;fill-rule:evenodd;stroke:none;stroke-width:1.03534329;stroke-linecap:round;stroke-linejoin:bevel;stroke-miterlimit:4;stroke-dasharray:none;stroke-dashoffset:0;stroke-opacity:1"
       inkscape:connector-curvature="0" />
    <path
       id="path4605"
       d="m -5.7963089,25.170313 c -0.144458,0.155811 -0.360545,0.299388 -0.480468,0.458985 -0.396672,0.527899 -0.658171,1.076205 -0.78125,1.638672 -0.123078,0.562466 -0.107642,1.140051 0.05078,1.726562 0.125071,0.463031 0.300178,0.829992 0.574218,1.154297 0.274042,0.324305 0.646254,0.60494 1.16211,0.900391 0.683194,0.391292 1.484551,0.678606 2.363281,0.861328 0.87873,0.182721 1.834586,0.262141 2.82617199,0.238281 0.603104,-0.01451 1.22935101,-0.140127 1.84960901,-0.230469 0.533854,-0.85566 0.923828,-1.809265 0.923828,-2.896484 v -8 c -0.028,0.0072 -0.0441,0.0064 -0.07227,0.01367 -0.664448,0.171437 -0.971614,0.359846 -1.472656,0.509765 a 12.637435,20.219896 30 0 1 -0.20117201,0.169922 12.637435,20.219896 30 0 1 -1.457031,1.054687 12.637435,20.219896 30 0 1 -1.48242199,0.898438 12.637435,20.219896 30 0 1 -1.488282,0.730468 12.637435,20.219896 30 0 1 -1.482422,0.556641 12.637435,20.219896 30 0 1 -0.832031,0.214843 z"
       style="opacity:1;fill:#ececec;fill-opacity:1;fill-rule:evenodd;stroke:none;stroke-width:1.03534329;stroke-linecap:round;stroke-linejoin:bevel;stroke-miterlimit:4;stroke-dasharray:none;stroke-dashoffset:0;stroke-opacity:1"
       inkscape:connector-curvature="0" />
    <path
       id="path4603"
       d="m -7.3998239,25.463282 c -0.439153,0.490123 -0.734431,0.821879 -1.482422,1.226563 -0.822746,0.445142 -1.7912091,0.824984 -2.7871101,1.105468 -0.9959,0.280486 -2.018112,0.460946 -2.949218,0.509766 -1.08187,0.05673 -1.3692,0.01728 -2.394531,-0.337891 -1.102197,-0.381801 -2.158173,-0.578759 -3.396484,-0.59375 -1.238312,-0.01499 -2.658806,0.151735 -4.488282,0.498047 -0.156576,0.02964 -0.434033,0.148289 -0.613281,0.189453 v 0.960938 c 0,0.0104 0.0058,0.01891 0.0059,0.0293 0.418368,-0.107976 0.977386,-0.343562 1.255859,-0.392579 1.388223,-0.244352 2.527278,-0.374822 3.523438,-0.392578 0.99616,-0.01776 1.848665,0.07621 2.666016,0.28125 0.791754,0.198619 1.453362,0.534476 1.966796,0.990235 0.513435,0.455758 0.879524,1.032626 1.080078,1.714843 0.168346,0.572656 0.180813,0.736542 0.101563,1.267579 -0.07646,0.512292 -0.279486,1.039301 -0.591797,1.566406 -0.101941,0.172052 -0.281685,0.338612 -0.40625,0.509765 h 1.068359 c 0.262944,-0.440354 0.515319,-0.883271 0.648438,-1.328124 0.172888,-0.577744 0.228955,-1.526426 0.115234,-1.929688 -0.0894,-0.317001 0.174662,-0.734666 0.794922,-1.261719 0.586611,-0.498453 1.294638,-0.819253 2.335938,-1.058592 1.1295711,-0.259632 1.9111941,-0.226986 2.7460931,0.117187 0.29177,0.120278 0.376783,0.20161 0.439454,0.423828 0.04272,0.151484 0.246835,0.518595 0.453124,0.814453 0.305086,0.437544 0.701565,0.826433 1.175782,1.164063 0.474217,0.337629 1.026754,0.624527 1.646484,0.853515 1.239461,0.457977 2.745976,0.689107 4.42578099,0.660157 0.358456,-0.0062 0.80658,-0.152566 1.19726601,-0.195313 0.260167,-0.272974 0.430171,-0.615837 0.630859,-0.9375 -0.620258,0.09034 -1.24650501,0.215957 -1.84960901,0.230469 -0.99158599,0.02386 -1.94744199,-0.05556 -2.82617199,-0.238281 -0.87873,-0.182722 -1.680087,-0.470036 -2.363281,-0.861328 -0.515856,-0.295451 -0.888068,-0.576086 -1.16211,-0.900391 -0.274042,-0.324309 -0.449149,-0.69127 -0.574219,-1.154301 -0.158423,-0.586511 -0.17386,-1.164096 -0.05078,-1.726562 0.123079,-0.562467 0.384579,-1.110773 0.78125,-1.638672 0.119923,-0.159597 0.336011,-0.303174 0.480469,-0.458985 a 12.637435,20.219896 30 0 1 -0.628906,0.16211 12.637435,20.219896 30 0 1 -0.974609,0.130859 z"
       style="opacity:1;fill:#ececec;fill-opacity:1;fill-rule:evenodd;stroke:none;stroke-width:1.03534329;stroke-linecap:round;stroke-linejoin:bevel;stroke-miterlimit:4;stroke-dasharray:none;stroke-dashoffset:0;stroke-opacity:1"
       inkscape:connector-curvature="0" />
    <path
       id="path4515"
       d="m -19.936933,6.3929702 c -3.088651,0 -5.574219,2.485568 -5.574219,5.5742188 v 16.093749 c 0.179248,-0.04116 0.456705,-0.159814 0.613281,-0.189453 1.829476,-0.346312 3.24997,-0.513037 4.488282,-0.498047 1.238311,0.01499 2.294287,0.211949 3.396484,0.59375 1.025331,0.355173 1.312661,0.394617 2.394532,0.337891 0.931105,-0.04882 1.953318,-0.22928 2.949218,-0.509766 0.9959,-0.280484 1.9643631,-0.660326 2.7871091,-1.105468 0.747991,-0.404684 1.043269,-0.73644 1.482422,-1.226563 a 12.637435,20.219896 30 0 1 -0.451172,0.06055 12.637435,20.219896 30 0 1 -1.373047,0.0078 12.637435,20.219896 30 0 1 -1.3105461,-0.179678 12.637435,20.219896 30 0 1 -1.232422,-0.363281 12.637435,20.219896 30 0 1 -1.142578,-0.542969 12.637435,20.219896 30 0 1 -0.75,-0.490234 12.637435,20.219896 30 0 1 -0.962892,-0.837891 12.637435,20.219896 30 0 1 -0.847656,-0.999999 12.637435,20.219896 30 0 1 -0.718749,-1.152344 12.637435,20.219896 30 0 1 -0.585937,-1.291015 12.637435,20.219896 30 0 1 -0.445313,-1.41797 12.637435,20.219896 30 0 1 -0.302735,-1.533202 12.637435,20.219896 30 0 1 -0.154297,-1.628907 12.637435,20.219896 30 0 1 -0.0059,-1.710937 12.637435,20.219896 30 0 1 0.142578,-1.775391 12.637435,20.219896 30 0 1 0.289063,-1.8242188 12.637435,20.219896 30 0 1 0.433594,-1.8496094 12.637435,20.219896 30 0 1 0.474609,-1.5410156 z"
       style="opacity:1;fill:#ececec;fill-opacity:1;fill-rule:evenodd;stroke:none;stroke-width:1.03534329;stroke-linecap:round;stroke-linejoin:bevel;stroke-miterlimit:4;stroke-dasharray:none;stroke-dashoffset:0;stroke-opacity:1"
       inkscape:connector-curvature="0" />
    <path
       id="rect4497-3"
       d="m -16.343183,6.3929702 a 12.637435,20.219896 30 0 0 -0.474609,1.5410156 12.637435,20.219896 30 0 0 -0.433594,1.8496094 12.637435,20.219896 30 0 0 -0.289063,1.8242188 12.637435,20.219896 30 0 0 -0.142578,1.775391 12.637435,20.219896 30 0 0 0.0059,1.710937 12.637435,20.219896 30 0 0 0.154297,1.628907 12.637435,20.219896 30 0 0 0.302734,1.533203 12.637435,20.219896 30 0 0 0.445313,1.417969 12.637435,20.219896 30 0 0 0.585937,1.291015 12.637435,20.219896 30 0 0 0.71875,1.152344 12.637435,20.219896 30 0 0 0.847656,0.999999 12.637435,20.219896 30 0 0 0.962891,0.837891 12.637435,20.219896 30 0 0 0.75,0.490234 12.637435,20.219896 30 0 0 1.142578,0.542969 12.637435,20.219896 30 0 0 1.232422,0.363281 12.637435,20.219896 30 0 0 1.3105471,0.179687 12.637435,20.219896 30 0 0 1.373047,-0.0078 12.637435,20.219896 30 0 0 1.425781,-0.191407 12.637435,20.219896 30 0 0 1.460937,-0.376953 12.637435,20.219896 30 0 0 1.482422,-0.55664 12.637435,20.219896 30 0 0 1.488282,-0.730469 12.637435,20.219896 30 0 0 1.48242199,-0.898438 12.637435,20.219896 30 0 0 1.457031,-1.054687 12.637435,20.219896 30 0 0 1.42187501,-1.205078 12.637435,20.219896 30 0 0 0.324218,-0.316406 v -2.857422 a 9.6472092,15.435535 30 0 1 -0.265624,0.326172 9.6472092,15.435535 30 0 1 -1.011719,1.089843 9.6472092,15.435535 30 0 1 -1.05664101,0.994141 9.6472092,15.435535 30 0 1 -1.095703,0.886719 9.6472092,15.435535 30 0 1 -1.11914099,0.771484 9.6472092,15.435535 30 0 1 -1.132812,0.650391 9.6472092,15.435535 30 0 1 -1.136719,0.519531 9.6472092,15.435535 30 0 1 -1.128906,0.384765 9.6472092,15.435535 30 0 1 -1.107422,0.246094 9.6472092,15.435535 30 0 1 -1.078125,0.105468 9.6472092,15.435535 30 0 1 -1.035156,-0.03711 9.6472092,15.435535 30 0 1 -0.984375,-0.177734 9.6472092,15.435535 30 0 1 -0.9218751,-0.316406 9.6472092,15.435535 30 0 1 -0.609375,-0.308594 9.6472092,15.435535 30 0 1 -0.794922,-0.548828 9.6472092,15.435535 30 0 1 -0.710938,-0.675781 9.6472092,15.435535 30 0 1 -0.61914,-0.798828 9.6472092,15.435535 30 0 1 -0.519531,-0.910156 9.6472092,15.435535 30 0 1 -0.416016,-1.015625 9.6472092,15.435535 30 0 1 -0.308594,-1.109375 9.6472092,15.435535 30 0 1 -0.197266,-1.19336 9.6472092,15.435535 30 0 1 -0.08594,-1.263671 9.6472092,15.435535 30 0 1 0.0293,-1.322266 9.6472092,15.435535 30 0 1 0.140625,-1.367187 9.6472092,15.435535 30 0 1 0.253906,-1.398437 9.6472092,15.435535 30 0 1 0.363281,-1.4160161 9.6472092,15.435535 30 0 1 0.46875,-1.4199218 9.6472092,15.435535 30 0 1 0.570313,-1.4101563 9.6472092,15.435535 30 0 1 0.109375,-0.2285156 z"
       style="opacity:1;fill:#3191cd;fill-opacity:1;fill-rule:evenodd;stroke:none;stroke-width:1.03534329;stroke-linecap:round;stroke-linejoin:bevel;stroke-miterlimit:4;stroke-dasharray:none;stroke-dashoffset:0;stroke-opacity:1"
       inkscape:connector-curvature="0" />
    <path
       sodipodi:nodetypes="scsccccccccccccsscccsccccccccccccccccccccscsscccccccsccccsccsccccccccccccccccccccccsscccsccccccccccccccccscsccccccccccccccccccscccsccssccccccccsccccccccsscccsscccsccccscccsccccsccscccccccsccccccssccccsscccccccccccssssssccccccssscccsccccccssscscscccsscccccsscccscsccscssccccccccsscssccccccsscccccccccccsccccccccsscssccscccccsscsscccsccscccsccsccsscsscccscsccscccccscscccccccssccsccsccccccssccccsscccccccccccccccsccccccc"
       inkscape:connector-curvature="0"
       id="path4530"
       d="m -4.2333029,23.606894 c -0.516689,-0.01366 -1.064507,0.02618 -1.74618,0.158592 -0.187063,0.03474 -0.651593,0.151043 -0.892225,0.227025 -0.82545,0.260643 -1.928959,0.796971 -2.456897,1.194871 l -0.11153,0.08364 c -0.251594,0.201837 -0.483285,0.42235 -0.6221511,0.729956 l -0.04921,0.101022 c -0.04611,0.09535 -0.05159,0.100489 -0.106059,0.08907 -0.03173,-0.0066 -0.25752,-0.01225 -0.500782,-0.01194 -0.405849,5.11e-4 -0.46172,0.0052 -0.68229,0.05214 -0.560952,0.119475 -1.090522,0.3532 -1.565767,0.691939 l -0.136676,0.09776 -0.09623,-0.07278 c -0.127255,-0.09578 -0.484597,-0.270279 -0.652766,-0.318275 -0.378374,-0.108002 -0.784594,-0.146043 -1.365673,-0.129264 -1.515486,0.04377 -2.764077,0.346477 -3.942844,0.956982 -0.648202,0.335715 -1.314543,0.790991 -1.665268,1.137299 -0.225754,0.222911 -0.317634,0.38852 -0.349892,0.627849 -0.02011,0.149248 -0.02095,0.150955 -0.08857,0.174887 -0.124389,0.04403 -0.610186,0.290904 -0.700877,0.356286 -0.08055,0.05808 -0.08857,0.07178 -0.08857,0.141212 0,0.08429 0.03922,0.195842 0.07763,0.219421 0.01814,0.01113 0.02114,0.0065 0.0098,-0.02064 -0.0371,-0.08906 -0.0512,-0.197506 -0.03062,-0.235713 0.03072,-0.05702 0.355934,-0.241778 0.613404,-0.347598 l 0.223056,-0.09125 0.01421,0.10428 c 0.0076,0.05755 0.03138,0.143777 0.05248,0.191178 0.02786,0.06259 0.03116,0.08824 0.01421,0.09342 -0.01284,0.0039 -0.139316,0.0458 -0.282101,0.09342 -0.142784,0.04762 -0.309047,0.100071 -0.36848,0.116228 -0.115427,0.0314 -0.153836,0.0623 -0.161824,0.13035 -0.0027,0.02342 -0.0072,0.05418 -0.01093,0.06843 -0.0038,0.01456 0.02677,0.04326 0.06998,0.06626 0.127948,0.06811 0.279952,0.05482 0.556546,-0.05105 0.12653,-0.04843 0.236065,-0.08269 0.242738,-0.07495 0.0067,0.0078 0.03227,0.06622 0.05686,0.129264 0.119766,0.307134 0.347415,0.697682 0.534679,0.917877 0.190991,0.224577 0.486077,0.423281 0.763202,0.512708 l 0.09731,0.0315 -0.392534,0.386701 c -0.450963,0.444692 -1.138242,1.168034 -1.138242,1.198127 0,0.02955 0.09223,0.207357 0.155264,0.298718 0.06988,0.101277 0.193333,0.226592 0.322556,0.328046 0.05648,0.04434 0.107647,0.08038 0.113716,0.08038 0.0061,0 0.314471,-0.299473 0.685569,-0.664783 0.371107,-0.365297 0.865108,-0.841422 1.097795,-1.059078 l 0.423157,-0.396485 h 0.23071 c 0.20695,-6.68e-4 0.61827,-0.03264 0.888945,-0.06843 0.25963,0.368632 0.549653,0.922488 0.300688,-0.0402 0.003,-0.0029 0.09177,-0.02313 0.196814,-0.04453 1.59511,-0.325008 2.955559,-1.049274 3.702293,-1.971534 0.276682,-0.34172 0.363908,-0.580046 0.369574,-1.00369 l 0.0034,-0.253095 0.07764,-0.02715 c 0.0423,-0.01498 0.231678,-0.08418 0.422057,-0.154246 0.730898,-0.269003 0.85894,-0.309139 1.192913,-0.370411 0.434392,-0.0797 1.1116711,-0.194567 1.1163741,-0.189006 0.0021,0.0024 0.02777,0.05192 0.05685,0.109706 0.142908,0.283963 0.366832,0.533298 0.593722,0.659351 0.261194,0.14511 0.706069,0.283305 1.137149,0.354116 1.30849,0.214938 2.995812,-0.08851 4.414107,-0.794045 0.111588,-0.05551 0.249291,-0.128543 0.306155,-0.161851 0.08456,-0.04954 0.115463,-0.05798 0.171666,-0.04779 0.157799,0.02859 0.993446,0.225951 1.007032,0.237887 0.146406,0.03332 0.367388,0.102111 0.367388,0.102111 0.01292,-0.01285 0.05852,-0.0022 0.85286099,0.207474 0.361892,0.09551 0.669484,0.168653 0.684476,0.162936 0.02688,-0.0102 0.106626,-0.198767 0.146517,-0.347598 0.02968,-0.110645 0.04717,-0.371177 0.03171,-0.473603 l -0.01313,-0.08799 -0.283193,-0.08907 c -0.309309,-0.09739 -1.13847199,-0.333115 -1.47610499,-0.419282 l -0.213216,-0.05432 -0.02077,-0.07495 c -0.01943,-0.07231 -0.01601,-0.0811 0.07325,-0.211818 0.113636,-0.166397 0.197462,-0.358238 0.253672,-0.580055 0.03715,-0.146598 0.04216,-0.218667 0.04264,-0.577883 3.53e-4,-0.265608 -0.0083,-0.460353 -0.02515,-0.550726 -0.01439,-0.07686 -0.02169,-0.144648 -0.0153,-0.150989 0.0064,-0.0064 0.112918,-0.02833 0.236177,-0.04779 0.314831,-0.04975 0.460527,-0.122051 0.53686499,-0.267217 0.03408,-0.06484 0.03454,-0.07278 -0.0011,-0.07278 -0.01587,0 -0.02952,-0.01159 -0.02952,-0.02606 0,-0.01448 -0.02556,-0.03709 -0.05685,-0.04996 -0.04848,-0.01995 -0.08446,-0.0161 -0.244925,0.02499 -0.166239,0.04256 -0.539343,0.117511 -0.591535,0.1184 -0.01053,1.84e-4 -0.02636,-0.04972 -0.0339,-0.109706 -0.0075,-0.05999 -0.03016,-0.142225 -0.05139,-0.183575 l -0.03936,-0.07495 0.06232,-0.0109 c 0.205274,-0.03606 0.419912,-0.05166 0.6473,-0.0467 l 0.259139,0.0054 0.0328,0.08581 c 0.01818,0.04728 0.03863,0.101764 0.04483,0.121659 0.02029,0.06502 0.03418,0.01602 0.02077,-0.07278 -0.0075,-0.04975 -0.03335,-0.11155 -0.06123,-0.144471 l -0.04921,-0.05757 h -0.214305 c -0.203991,1.1e-5 -0.579586,0.02671 -0.687756,0.04888 -0.0438,0.0089 -0.05806,-0.0014 -0.112619,-0.08581 -0.106036,-0.164166 -0.295515,-0.295715 -0.553267,-0.38453 -0.0079,-0.0028 -0.04203,-0.0078 -0.05358,-0.0109 -0.0038,-4.55e-4 -0.01053,0.0016 -0.01422,0.0011 -0.555864,-0.0821 -1.041424,-0.149276 -1.558113,-0.162937 z m -0.149798,0.04779 c 0.360291,1.42e-4 0.721136,0.01312 0.915186,0.03802 0.584104,0.07493 0.810307,0.127018 1.00922,0.233544 0.06875,0.03681 0.110362,0.06307 0.09184,0.05757 -0.331122,-0.0982 -0.686329,-0.176229 -1.072638,-0.234629 -0.386854,-0.05848 -1.185466,-0.08228 -1.5767,-0.0467 -0.991012,0.0901 -1.912902,0.352707 -2.96096,0.842926 -0.566074,0.293728 -1.15729,0.581444 -1.668548,1.058003 -0.17019,0.176112 -0.253235,0.302399 -0.31381,0.482293 -0.02178,0.06469 -0.04597,0.172318 -0.05468,0.238973 l -0.0164,0.12166 -0.0022,-0.111886 c -0.0021,-0.09446 -0.009,-0.113207 -0.04155,-0.121658 -0.051,-0.01325 -0.04918,-0.02271 0.02733,-0.172714 0.2015542,-0.395059 0.5863222,-0.773617 1.0977872,-1.078642 0.16945,-0.101056 0.512007,-0.284588 0.567481,-0.304147 0.04563,-0.01608 0.04636,-0.01535 0.01099,0.01194 -0.08445,0.06508 0.02584,0.01892 0.358639,-0.149902 0.837603,-0.424908 1.750687,-0.702955 2.71713,-0.827718 0.19166,-0.02474 0.551616,-0.03708 0.911905,-0.03694 z m -0.211028,0.05649 c 0.254537,-0.0057 0.508494,-0.0026 0.664794,0.0109 0.277884,0.02386 0.705817,0.07982 0.694318,0.09125 -0.004,0.0041 -0.09697,-0.0011 -0.206655,-0.01195 -1.041627,-0.103202 -2.037862,-0.03589 -2.943467,0.198782 -0.340841,0.08833 -0.379787,0.09519 -0.207748,0.03802 0.343725,-0.114239 0.879132,-0.230056 1.326309,-0.286767 0.162052,-0.02056 0.417911,-0.03449 0.672449,-0.0402 z m 0.532492,0.101022 c 0.155343,0.0043 0.311877,0.01799 0.467981,0.0315 0.01064,-0.0049 0.02217,-0.01032 0.0328,-0.0152 0.304781,0.03357 0.508152,0.06747 0.671355,0.106448 0.02115,0.0038 0.04228,0.0057 0.06342,0.0097 l -0.01749,0.0054 c 0.103271,0.02755 0.202057,0.05539 0.277727,0.09342 0.198049,0.09954 0.277667,0.190744 0.398002,0.460568 0.0728,0.163246 0.07238,0.165372 0.0317,0.180316 -0.11959,0.04394 -0.722841,0.180858 -1.361299,0.30958 -0.806492,0.162601 -1.08835,0.229756 -1.338337,0.317183 -0.144858,0.05066 -0.329293,0.133839 -0.236176,0.106448 0.455523,-0.133959 1.766632,-0.432435 2.449243,-0.557241 0.09502,-0.01738 0.257499,-0.05178 0.360826,-0.07604 l 0.188067,-0.04346 0.02623,0.08799 0.02515,0.08907 -0.271166,0.0782 c -1.601796,0.46521 -2.273343,0.648956 -2.718224,0.741904 -0.363101,0.07586 -0.369572,0.07411 -0.369572,-0.10428 0,-0.07374 0.0079,-0.09789 0.03827,-0.114054 0.05592,-0.02973 0.04722,-0.07197 -0.02406,-0.116228 -0.04437,-0.02756 -0.08234,-0.03541 -0.130117,-0.02824 -0.175821,0.02636 -2.440929,0.760069 -3.920976,1.269821 -0.247513,0.08525 -0.457301,0.154247 -0.465793,0.154247 -0.01549,0 -0.02627,-0.05387 -0.04265,-0.205301 l 0.103872,-0.325873 -0.07982,0.02606 c 0.288814,-1.116176 2.97018,-2.561212 5.841,-2.482018 z m 0.88785,0.01303 c 0.01388,-0.0054 0.03079,-0.0042 0.03718,0.0022 0.0064,0.0064 -0.0049,0.01067 -0.02515,0.0097 -0.02239,-8.9e-4 -0.02737,-0.0058 -0.01203,-0.01194 z m 0.703065,0.166198 c 0.03667,0 0.279056,0.08666 0.303968,0.108626 0.01747,0.0154 0.03656,0.05905 0.04374,0.09776 0.0072,0.03871 0.08592,0.292178 0.174946,0.562675 0.140569,0.427117 0.234466,0.789227 0.209935,0.813598 -0.0042,0.0042 -0.02724,0.01009 -0.05139,0.01303 -0.02414,0.0029 -0.05748,0.01067 -0.07435,0.01738 -0.02642,0.01055 -0.03252,-0.0138 -0.04265,-0.174886 -0.03256,-0.517995 -0.239817,-1.10724 -0.467982,-1.333909 -0.05755,-0.05716 -0.100645,-0.10428 -0.09622,-0.10428 z m 0.37832,0.213989 c 0.0019,-0.0043 0.0095,0.0023 0.02078,0.02173 0.01122,0.01918 0.01586,0.03856 0.01099,0.04346 -0.005,0.0049 -0.01418,-0.0046 -0.02077,-0.02173 -0.0093,-0.02402 -0.01282,-0.03919 -0.01099,-0.04346 z m 0.06342,0.205301 c -0.002,-0.01568 0.0044,-0.0058 0.01969,0.02064 0.01531,0.02648 0.03415,0.0803 0.04155,0.119485 0.01818,0.0963 0.0017,0.09044 -0.02733,-0.0097 -0.02117,-0.07315 -0.03191,-0.11468 -0.03389,-0.13035 z m 0.699784,0.215076 c 0.0297,-0.002 0.04197,0.0048 0.05577,0.01847 0.02759,0.02741 0.02502,0.03402 -0.02296,0.0782 -0.02899,0.0267 -0.118624,0.07062 -0.199001,0.09667 -0.08038,0.02605 -0.172609,0.05287 -0.205562,0.05975 -0.05719,0.01192 -0.06103,0.0083 -0.07981,-0.06517 -0.02266,-0.08871 -0.05046,-0.0731 0.288662,-0.154247 0.08547,-0.02045 0.133215,-0.03165 0.162918,-0.03367 z m -0.5478,0.129263 c 0.04227,0 0.04947,0.01431 0.07873,0.134694 0.01788,0.07361 0.04631,0.220603 0.06232,0.32696 0.03306,0.2196 0.02833,0.288214 -0.0076,0.115144 -0.01977,-0.09511 -0.119423,-0.417444 -0.168386,-0.544208 -0.0094,-0.02431 -9.51e-4,-0.03258 0.03499,-0.03258 z m -0.142143,0.30632 c 0.04404,0 0.05535,0.05529 0.07981,0.397567 0.01934,0.270437 -0.003,0.633469 -0.05029,0.822288 -0.06483,0.240749 -0.295221,0.611556 -0.295221,0.611556 -0.0094,0.01708 -0.05026,0.06132 -0.09076,0.09885 l -0.07325,0.06843 -0.33677,-0.07278 c -0.934359,-0.201578 -2.083211,-0.356974 -2.932532,-0.397568 -0.385378,-0.01842 -0.563298,-0.01666 -1.048582,0.0097 l -0.162919,0.0087 0.442832,-0.15316 c 1.013858,-0.350016 1.19937,-0.421698 1.24977,-0.481207 0.02625,-0.03098 0.04811,-0.07665 0.04811,-0.102111 0,-0.02546 0.006,-0.04671 0.01422,-0.04671 0.114966,0 0.681002,-0.129884 1.168858,-0.268303 0.870588,-0.24701 1.867741,-0.495327 1.98673,-0.495327 z m -7.248231,0.265043 c -0.01209,0.01612 -0.05742,0.06214 -0.143237,0.146643 -0.203918,0.200788 -0.3456,0.39282 -0.463606,0.630022 -0.06664,0.133944 -0.07285,0.15957 -0.08091,0.354116 -0.0051,0.121183 0.0011,0.257418 0.01422,0.3237 0.02517,0.12709 0.202677,0.663058 0.267886,0.809254 0.02298,0.05154 0.03891,0.09713 0.03499,0.101022 -0.01459,0.0145 -0.135725,-0.280238 -0.217588,-0.529001 -0.137783,-0.418696 -0.1686351,-0.678098 -0.112618,-0.940688 0.0685,-0.321125 0.287956,-0.616337 0.64402,-0.864651 0.04706,-0.03282 0.06894,-0.04654 0.05685,-0.03041 z m 1.867549,0.136866 -0.145424,0.04888 c 0.04857,-0.01607 0.09674,-0.03224 0.145424,-0.04888 z m -3.3545941,0.724528 h 0.157452 l 0.02186,0.06082 c 0.01166,0.03323 0.018,0.06128 0.0153,0.063 -0.0027,0.0017 -0.124386,0.01448 -0.271166,0.02716 -0.480631,0.04152 -1.06269,0.194989 -1.47392,0.389962 -0.100472,0.04764 -0.226475,0.113544 -0.281007,0.145556 -0.106383,0.06245 -0.122462,0.05612 -0.122462,-0.0467 0,-0.04837 0.10939,-0.120635 0.394721,-0.261785 0.468268,-0.23165 1.069992,-0.378014 1.559206,-0.378014 z m 0.738054,0.260699 v 0.117315 c 0,0.155326 0.03877,0.327728 0.1421441,0.639798 0.146678,0.442819 0.318188,0.742926 0.563106,0.984138 0.153898,0.151569 0.420612,0.336422 0.462513,0.320442 0.01445,-0.0054 0.02194,-0.0024 0.0164,0.0065 -0.0133,0.02137 0.208281,0.120685 0.402376,0.180316 0.504757,0.155079 1.533658,0.210069 2.240401,0.119487 0.809444,-0.103746 1.705396,-0.379026 2.459085,-0.75494 0.27108,-0.135205 0.424896,-0.224821 0.798191,-0.467086 0.157157,-0.101994 0.288612,-0.182537 0.293035,-0.178142 0.0044,0.0044 -0.02001,0.03026 -0.05468,0.05649 -1.016785,0.769102 -2.491877,1.304715 -3.92863,1.427326 -0.269946,0.02305 -0.80635,0.02181 -1.06717,-0.0022 -0.421875,-0.03874 -0.885107,-0.14589 -1.226805,-0.284541 -0.41974,-0.170317 -0.641863,-0.389327 -0.859422,-0.846184 -0.190613,-0.400273 -0.4351191,-1.21357 -0.3586391,-1.192697 0.01087,0.0029 0.04171,-0.02465 0.06888,-0.06084 z m -1.431277,0.01738 c 0.02235,-8.34e-4 0.03138,0.0065 0.04264,0.02173 0.01322,0.01787 0.02406,0.03975 0.02406,0.04779 0,0.008 -0.06327,0.03228 -0.139957,0.05432 -0.07668,0.02203 -0.177314,0.05215 -0.224149,0.06735 -0.116383,0.03774 -0.136677,0.03515 -0.136677,-0.01846 0,-0.05177 0.05174,-0.07557 0.308343,-0.14447 0.06761,-0.01816 0.103398,-0.02741 0.125742,-0.02824 z m 0.892224,0.01303 c 0.127781,0.0027 0.23725,0.01568 0.289754,0.03802 0.06679,0.02842 0.06769,0.02967 0.09076,0.197697 0.01283,0.09333 0.01636,0.175916 0.0088,0.182489 -0.0076,0.0066 -0.296164,0.111538 -0.641833,0.233544 l -0.628714,0.221594 -0.630899,0.115144 c -0.3471,0.06336 -0.653709,0.120243 -0.681196,0.126005 -0.04626,0.0097 -0.05247,0.0022 -0.09076,-0.102112 -0.02274,-0.06198 -0.04155,-0.1278 -0.04155,-0.145557 0,-0.05266 0.168583,-0.216273 0.319276,-0.30958 0.37589,-0.232747 1.034802,-0.452725 1.602943,-0.534432 0.12881,-0.01852 0.275689,-0.0255 0.403468,-0.02282 z m -4.276336,0.04128 c 0.391656,0.0097 0.786606,0.06918 1.051863,0.16511 0.201618,0.07292 0.455622,0.207701 0.483288,0.256355 0.01171,0.02059 0.04037,0.05379 0.06342,0.07278 0.02305,0.01899 0.06874,0.0939 0.102785,0.167281 0.03404,0.07338 0.0753,0.143683 0.09076,0.156419 0.04647,0.03831 0.135189,0.253018 0.195721,0.470344 0.199648,0.716781 0.203996,1.268413 0.01087,1.646747 -0.159181,0.311939 -0.700776,0.84964 -1.16995,1.162283 -0.977612,0.651448 -2.220546,1.06924 -3.563432,1.197042 -0.502819,0.04785 -1.213333,0.02568 -1.497975,-0.0467 -0.07377,-0.01876 -0.07191,-0.01917 0.02952,-0.0097 0.05817,0.0054 0.179078,0.01824 0.26898,0.02932 0.246098,0.03035 0.964738,0.02535 1.29788,-0.0097 0.838666,-0.08843 1.632162,-0.297013 2.365052,-0.620246 0.317926,-0.140217 0.70008,-0.347657 0.777416,-0.42255 0.02734,-0.02648 0.136971,-0.109949 0.242738,-0.184661 0.593966,-0.419583 1.052663,-0.932644 1.163391,-1.300235 0.01335,-0.04431 0.0314,-0.07658 0.03936,-0.07169 0.03384,0.02079 0.06448,-0.203089 0.06342,-0.458395 -9.49e-4,-0.227743 -0.01145,-0.322207 -0.07217,-0.631184 -0.100414,-0.510784 -0.119913,-0.574802 -0.215402,-0.727783 -0.101444,-0.16253 -0.203331,-0.260442 -0.385975,-0.368237 -0.443933,-0.262007 -0.998549,-0.375748 -1.881762,-0.386705 l -0.23071,-0.0032 0.1826,-0.02282 0.182599,-0.0239 -0.124649,-0.0054 c -0.09537,-0.0042 -0.06109,-0.0089 0.144331,-0.02282 0.124911,-0.0085 0.255422,-0.0109 0.385975,-0.0077 z m -0.799285,0.08799 c 0,0.0068 -0.128281,0.02809 -0.284286,0.0467 -1.591899,0.189883 -2.797812,0.619135 -3.985489,1.419724 -0.401207,0.270445 -0.67398,0.481325 -0.83318,0.64197 -0.161497,0.162964 -0.193575,0.218445 -0.232897,0.405169 -0.05886,0.279456 0.05586,0.815304 0.294128,1.36867 0.04388,0.101914 0.07982,0.193311 0.07982,0.203128 0,0.0099 -0.01697,0.02268 -0.03827,0.02824 -0.0493,0.01281 -0.124327,-0.09259 -0.240551,-0.336736 -0.08791,-0.184653 -0.194093,-0.514527 -0.168385,-0.523571 0.06199,-0.0218 0.0626,-0.03818 0.01312,-0.145556 -0.03596,-0.07804 -0.05491,-0.164874 -0.06889,-0.307408 -0.02431,-0.247904 -0.0016,-0.338255 0.139957,-0.555071 0.121544,-0.186219 0.281677,-0.344476 0.584975,-0.578968 1.050498,-0.812182 2.231147,-1.334663 3.528442,-1.559848 0.423591,-0.07352 1.211502,-0.142786 1.211502,-0.106448 z m 0.801472,0.06952 c 0.582993,0.02558 0.990995,0.149455 1.375513,0.401911 0.149742,0.09831 0.218766,0.179044 0.310529,0.361719 0.104128,0.207275 0.104093,0.211234 0.0076,0.225939 -0.53744,0.08194 -3.041477,0.595256 -4.23588,0.868996 -0.343096,0.07863 -0.371734,0.113939 -0.308343,0.374754 0.01533,0.06304 0.02805,0.128038 0.02843,0.145558 7.29e-4,0.03503 -0.264263,0.129526 -0.713998,0.254181 -0.553108,0.153307 -2.260192,0.579885 -2.313661,0.577883 -0.03173,-0.0012 -0.07674,0.0048 -0.100594,0.01303 -0.04899,0.01699 -0.06528,-0.007 -0.06998,-0.10428 -0.0036,-0.07427 -0.03277,-0.06165 0.920653,-0.370409 0.911513,-0.295187 1.20956,-0.387167 1.586542,-0.487724 0.351868,-0.09386 0.366282,-0.09858 0.24055,-0.08473 -0.201589,0.02219 -0.524252,0.11301 -1.221341,0.34434 -1.137008,0.377323 -1.522715,0.489197 -1.559187,0.452964 -0.0313,-0.0311 -0.04507,-0.428015 -0.01859,-0.537692 0.05075,-0.210172 0.235124,-0.422569 0.626525,-0.724525 0.9257,-0.714152 1.851772,-1.169426 2.945653,-1.446879 0.572682,-0.145254 1.116435,-0.221788 1.85224,-0.259612 0.238871,-0.01228 0.452969,-0.01396 0.647301,-0.0054 z m 8.3055611,0.797304 c 0.803078,0.005 1.569749,0.09485 2.536717,0.271561 0.253839,0.04639 0.468173,0.08472 0.476727,0.08473 0.04887,1.3e-5 -0.0404,0.05502 -0.290848,0.17923 -0.78563,0.389658 -1.646068,0.645079 -2.522502,0.748423 -0.299929,0.03536 -0.908666,0.04948 -1.16339,0.02715 -0.742177,-0.06504 -1.398976,-0.27661 -1.700257,-0.547466 -0.157321,-0.141434 -0.373607,-0.445698 -0.340051,-0.479033 0.0061,-0.006 0.11756,-0.02659 0.247111,-0.04562 1.113816,-0.163695 1.953414,-0.243996 2.756493,-0.238975 z m -2.176984,1.087331 c 0.0049,-0.0048 0.02651,0.0015 0.04811,0.01303 0.02161,0.01148 0.140967,0.04966 0.265699,0.08581 0.124731,0.03615 0.209222,0.06632 0.188067,0.06626 -0.08023,-2.46e-4 -0.521572,-0.145544 -0.501876,-0.165109 z m -4.1954241,0.09016 c 0.01353,0 0.01719,0.07093 0.0098,0.215076 -0.0186,0.365216 -0.109981,0.579676 -0.389255,0.912447 -0.699834,0.833888 -1.910155,1.482791 -3.328348,1.785787 -0.172171,0.03679 -0.316919,0.06735 -0.322557,0.06735 -0.03109,-0.14092 -0.07797,-0.296755 -0.09731,-0.445361 l -0.05028,-0.122747 -0.02406,-0.156419 0.168385,-0.143385 c 0.858712,-0.661655 1.852803,-1.225546 3.000323,-1.702147 0.483691,-0.20089 1.011163,-0.410599 1.033275,-0.410599 z m 4.7596241,0.08255 c 0.01322,-0.0053 0.03489,-0.0053 0.04811,0 0.01322,0.0053 0.0024,0.0097 -0.02406,0.0097 -0.02644,0 -0.03728,-0.0045 -0.02406,-0.0097 z m 0.115902,0.01956 c 0.01322,-0.0053 0.0349,-0.0053 0.04811,0 0.01322,0.0053 0.0024,0.0097 -0.02406,0.0097 -0.02644,0 -0.03728,-0.0045 -0.02406,-0.0097 z m 0.135584,0.01847 c 0.01388,-0.0054 0.03079,-0.0042 0.03718,0.0022 0.0064,0.0064 -0.0049,0.01067 -0.02515,0.0097 -0.02239,-8.89e-4 -0.02737,-0.0058 -0.01203,-0.01194 z m -7.8867841,0.18574 c 0.0087,1.63e-4 -0.110154,0.06553 -0.263512,0.145557 -0.823471,0.429678 -1.567955,0.951184 -2.634031,1.843358 -0.185091,0.154897 -0.422044,0.359839 -0.527025,0.455137 -0.10498,0.09529 -0.196207,0.172142 -0.202281,0.171626 -0.03821,-0.0032 -0.328266,-0.120497 -0.402376,-0.162937 -0.308406,-0.176616 -0.586643,-0.498794 -0.806935,-0.935257 -0.07787,-0.154281 -0.177133,-0.385175 -0.177133,-0.411687 0,-0.04099 0.972619,-0.321487 1.981263,-0.571365 0.571916,-0.141685 0.709309,-0.181532 1.049676,-0.306322 l 0.115902,-0.04237 0.05029,0.04888 c 0.02744,0.02726 0.07083,0.05558 0.09621,0.06191 0.05082,0.01267 0.341537,-0.03619 1.162298,-0.193352 0.298099,-0.05708 0.549019,-0.103364 0.55764,-0.10319 z m -5.335853,0.933085 c 0.0075,0.007 0.01666,0.04267 0.01968,0.07929 l 0.0055,0.06626 -0.164012,0.04237 c -0.156092,0.03994 -0.289349,0.05227 -0.341144,0.0315 -0.02973,-0.01192 -0.03106,-0.07569 -0.0022,-0.09342 0.04396,-0.02699 0.469033,-0.138146 0.482195,-0.126004 z m 3.821476,1.29589 c 7.29e-4,0.02312 0.01041,0.08598 0.02186,0.13904 0.01786,0.08273 0.02784,0.09558 0.0667,0.09558 0.04569,0 0.05132,0.01609 0.07325,0.209645 0.0024,0.02167 -0.03796,0.03367 -0.170573,0.05106 -0.09519,0.01247 -0.310781,0.02901 -0.480007,0.03585 l -0.308343,0.01194 0.09184,-0.08581 c 0.05037,-0.0472 0.223305,-0.195477 0.383788,-0.329133 z"
       style="fill:#666666;stroke:#666666;stroke-width:0.30000001;stroke-miterlimit:4;stroke-dasharray:none;stroke-opacity:1" />
  </g>
</svg>
