<?xml version="1.0" encoding="UTF-8" standalone="no"?>
<svg
   xmlns:dc="http://purl.org/dc/elements/1.1/"
   xmlns:cc="http://creativecommons.org/ns#"
   xmlns:rdf="http://www.w3.org/1999/02/22-rdf-syntax-ns#"
   xmlns:svg="http://www.w3.org/2000/svg"
   xmlns="http://www.w3.org/2000/svg"
   xmlns:sodipodi="http://sodipodi.sourceforge.net/DTD/sodipodi-0.dtd"
   xmlns:inkscape="http://www.inkscape.org/namespaces/inkscape"
   height="32"
   viewBox="0 0 32 32"
   width="32"
   version="1.1"
   id="svg24"
   sodipodi:docname="eid-viewer.svg"
   inkscape:version="0.92.1 r">
  <metadata
     id="metadata30">
    <rdf:RDF>
      <cc:Work
         rdf:about="">
        <dc:format>image/svg+xml</dc:format>
        <dc:type
           rdf:resource="http://purl.org/dc/dcmitype/StillImage" />
      </cc:Work>
    </rdf:RDF>
  </metadata>
  <defs
     id="defs28" />
  <sodipodi:namedview
     pagecolor="#ffffff"
     bordercolor="#666666"
     borderopacity="1"
     objecttolerance="10"
     gridtolerance="10"
     guidetolerance="10"
     inkscape:pageopacity="0"
     inkscape:pageshadow="2"
     inkscape:window-width="640"
     inkscape:window-height="480"
     id="namedview26"
     showgrid="false"
     inkscape:zoom="8.8125"
     inkscape:cx="-27.120567"
     inkscape:cy="16"
     inkscape:current-layer="svg24" />
  <rect
     style="opacity:1;fill:#000000;fill-opacity:0.2;fill-rule:evenodd;stroke:none;stroke-width:1.03534329;stroke-linecap:round;stroke-linejoin:bevel;stroke-miterlimit:4;stroke-dasharray:none;stroke-dashoffset:0;stroke-opacity:1"
     id="rect4497-3"
     width="28.203388"
     height="28.203388"
     x="1.8983059"
     y="1.8983059"
     ry="5.575182" />
  <g
     id="g4524"
     transform="translate(47.819249,-6.6319757)">
    <path
       style="opacity:0.2;stroke-width:1"
       inkscape:connector-curvature="0"
       id="path4"
       d="m -23.1434,17.375863 c 2.107931,5.01e-4 1.923662,2.254941 1.923662,2.254941 v 1.972542 c 0,0.725824 -0.914888,2.228195 -0.914888,2.228195 v 1.383399 l 1.84361,0.855863 v 1.449802 h -7.378128 v -1.449802 l 1.841765,-0.855863 v -1.383399 c 0,0 -0.917544,-1.501357 -0.912435,-2.228471 v -1.972543 c 0,0 -0.184453,-2.254387 1.923478,-2.25494" />
    <path
       style="fill:#289b36;stroke-width:1"
       inkscape:connector-curvature="0"
       id="path6"
       d="m -41.50295,24.753992 -1.844532,-1.844532 1.844532,-1.844532 z" />
    <path
       style="fill:#ecb64e;stroke-width:1"
       inkscape:connector-curvature="0"
       id="path8"
       d="m -39.773701,20.142662 h 4.841897 c 0.409486,0 0.806982,0.453754 0.806982,0.922266 v 3.689064 c 0,0.468133 -0.397367,0.922266 -0.806982,0.922266 h -4.841897 c -0.409578,0 -0.806983,-0.453755 -0.806983,-0.922266 v -3.689064 c 0,-0.468133 0.397368,-0.922266 0.806983,-0.922266 z" />
    <circle
       transform="rotate(-90)"
       cy="-33.202557"
       cx="-22.92606"
       r="5.533596"
       id="circle12"
       style="fill:#484848;stroke-width:1" />
    <rect
       transform="rotate(-45)"
       rx="1.383399"
       ry="1.3409748"
       height="7.3781281"
       width="2.766798"
       y="-4.0398345"
       x="-41.070206"
       id="rect14"
       style="fill:#484848;stroke-width:1" />
    <path
       d="m -35.158682,20.969934 c -1.08855,1.088551 -1.087259,2.825546 10e-7,3.912806 1.08726,1.087259 2.824255,1.08855 3.912806,1e-6 1.08855,-1.08855 1.087259,-2.825547 0,-3.912806 -1.08726,-1.087259 -2.824255,-1.088551 -3.912806,0 z"
       id="path18"
       inkscape:connector-curvature="0"
       style="fill:#5d99ff;stroke-width:1.55499995" />
  </g>
</svg>
