<?xml version="1.0" encoding="UTF-8" standalone="no"?>
<svg
   xmlns:dc="http://purl.org/dc/elements/1.1/"
   xmlns:cc="http://creativecommons.org/ns#"
   xmlns:rdf="http://www.w3.org/1999/02/22-rdf-syntax-ns#"
   xmlns:svg="http://www.w3.org/2000/svg"
   xmlns="http://www.w3.org/2000/svg"
   xmlns:sodipodi="http://sodipodi.sourceforge.net/DTD/sodipodi-0.dtd"
   xmlns:inkscape="http://www.inkscape.org/namespaces/inkscape"
   height="32"
   width="32"
   version="1"
   id="svg33"
   sodipodi:docname="freeciv-server.svg"
   inkscape:version="0.92.1 r">
  <metadata
     id="metadata37">
    <rdf:RDF>
      <cc:Work
         rdf:about="">
        <dc:format>image/svg+xml</dc:format>
        <dc:type
           rdf:resource="http://purl.org/dc/dcmitype/StillImage" />
      </cc:Work>
    </rdf:RDF>
  </metadata>
  <sodipodi:namedview
     pagecolor="#ffffff"
     bordercolor="#666666"
     borderopacity="1"
     objecttolerance="10"
     gridtolerance="10"
     guidetolerance="10"
     inkscape:pageopacity="0"
     inkscape:pageshadow="2"
     inkscape:window-width="640"
     inkscape:window-height="480"
     id="namedview35"
     showgrid="false"
     inkscape:zoom="8.9375"
     inkscape:cx="-21.333486"
     inkscape:cy="14.584591"
     inkscape:current-layer="svg33" />
  <defs
     id="defs5">
    <clipPath
       id="clipPath4186"
       clipPathUnits="userSpaceOnUse">
      <circle
         cx="286"
         cy="26"
         r="10"
         style="fill:url(#linearGradient4190)"
         id="circle2" />
    </clipPath>
    <clipPath
       id="clipPath4186-3"
       clipPathUnits="userSpaceOnUse">
      <circle
         cx="286"
         cy="26"
         r="10"
         style="fill:url(#linearGradient4190)"
         id="circle2-6" />
    </clipPath>
    <clipPath
       id="clipPath4503"
       clipPathUnits="userSpaceOnUse">
      <circle
         cx="286"
         cy="26"
         r="10"
         style="fill:url(#linearGradient4190)"
         id="circle4501" />
    </clipPath>
  </defs>
  <g
     id="g4557"
     transform="translate(53.930071,7.8321676)">
    <rect
       ry="5.575182"
       y="-5.9338617"
       x="-52.031765"
       height="28.203388"
       width="28.203388"
       id="rect4497-3"
       style="opacity:1;fill:#cba606;fill-opacity:1;fill-rule:evenodd;stroke:none;stroke-width:1.03534329;stroke-linecap:round;stroke-linejoin:bevel;stroke-miterlimit:4;stroke-dasharray:none;stroke-dashoffset:0;stroke-opacity:1" />
    <g
       style="stroke-width:0.77815825"
       transform="matrix(1.2850856,0,0,1.2850856,-58.491444,-12.393538)"
       id="g4520">
      <circle
         style="color:#000000;opacity:0;stroke-width:1.05676711"
         clip-path="url(#clipPath4186-3)"
         r="10"
         transform="matrix(1.0309003,0,0,1.0309003,-278.83748,-10.803408)"
         cy="26"
         cx="286"
         id="circle9-7" />
      <circle
         style="fill:#cba606;stroke-width:1.2608254;stroke-linecap:round;stroke-linejoin:round"
         cx="16"
         cy="16"
         r="10.309003"
         id="circle11-5" />
      <circle
         style="color:#000000;opacity:0;stroke-width:1.05676711"
         clip-path="url(#clipPath4186-3)"
         r="10"
         transform="matrix(1.0309003,0,0,1.0309003,-278.83748,-10.803408)"
         cy="26"
         cx="286"
         id="circle15-3" />
      <circle
         r="8.8362885"
         cy="16"
         cx="16"
         style="fill:#e4d487;stroke-width:1.08070767;stroke-linecap:round;stroke-linejoin:round"
         id="circle17-5" />
      <path
         style="opacity:0.4;stroke-width:0.77815825"
         d="M 15.165413,7.2111623 A 8.8362882,8.8362882 0 0 0 11.96756,8.1387959 c 0.04463,0.1414248 -0.0075,0.300964 -0.170099,0.4418144 -0.110011,0.095344 -0.200142,0.2438374 -0.200142,0.3305214 0,0.2649561 0.239464,0.6717789 0.430769,0.7308936 0.254044,0.078643 0.168774,0.3497403 -0.158169,0.4995157 -0.151101,0.06936 -0.337105,0.269065 -0.413097,0.443581 -0.07643,0.174959 -0.188654,0.347266 -0.249625,0.383053 -0.06053,0.03623 -0.110454,0.17275 -0.110454,0.303969 0,0.183353 0.08394,0.272158 0.359196,0.382169 0.197049,0.07908 0.432978,0.136521 0.524433,0.127685 0.526201,-0.04948 0.562872,0.257136 0.102943,0.856236 -0.244323,0.318107 -0.361846,0.398075 -0.52841,0.35787 -0.155077,-0.03711 -0.239905,0.0066 -0.310595,0.160378 -0.07423,0.16303 -0.196166,0.218257 -0.523551,0.240789 -0.322082,0.02253 -0.466114,0.08792 -0.586729,0.264205 -0.08836,0.128568 -0.2156056,0.232837 -0.2832032,0.232837 -0.067774,0 -0.2269159,0.08659 -0.353805,0.191747 -0.2581964,0.21428 -0.3590184,0.235929 -0.4495462,0.09587 -0.1196433,-0.185562 -0.3777955,-0.0919 -0.7619531,0.276134 -0.3397553,0.325175 -0.3808882,0.412213 -0.3296378,0.694532 0.09119,0.502343 0.3636575,0.948134 0.6747832,1.103652 0.2714949,0.135637 0.2767967,0.150217 0.1121767,0.324292 -0.094681,0.100292 -0.257136,0.207653 -0.3606973,0.239022 -0.2991084,0.09101 -0.1307329,0.205002 0.4029789,0.273041 0.5462594,0.06937 0.7160045,0.267298 0.4608124,0.537246 -0.1423084,0.150659 -0.1343115,0.178935 0.094062,0.322083 0.4462326,0.28011 0.8010984,0.108686 0.3822578,-0.184678 -0.2691975,-0.188655 -0.08094,-0.265531 0.3141306,-0.128568 0.315014,0.109128 0.377309,0.102942 0.563313,-0.05876 0.38217,-0.330919 0.797475,0.158612 0.448,0.527969 -0.222233,0.235487 -0.155077,0.519131 0.132986,0.558453 0.127243,0.01724 0.391448,0.135637 0.587614,0.263321 0.196165,0.127243 0.410003,0.231953 0.474508,0.231953 0.0645,0 0.246533,0.129452 0.404702,0.287621 0.320758,0.320316 0.498809,0.360962 0.589381,0.135195 0.108686,-0.271274 0.06494,-0.411329 -0.227977,-0.730761 -0.232836,-0.254485 -0.611471,-0.930461 -0.611471,-1.092607 0,-0.09985 0.384821,-0.01502 0.600426,0.132103 0.134753,0.09234 0.35301,0.211187 0.485112,0.265088 0.140497,0.05744 0.286296,0.235929 0.35301,0.431211 0.103826,0.306619 0.144915,0.333128 0.512505,0.333128 h 0.3994 l 0.06053,0.717949 c 0.07246,0.863747 0.141822,1.038705 0.438279,1.109838 0.218257,0.05258 0.451093,0.390563 0.451093,0.654768 0,0.07025 -0.156844,0.242557 -0.348592,0.382612 -0.237696,0.173633 -0.340197,0.321199 -0.324291,0.465672 0.01987,0.180702 -0.02121,0.208978 -0.277018,0.18998 -0.164797,-0.01237 -0.451093,0.04551 -0.634887,0.128568 -0.217815,0.09808 -0.453744,0.129452 -0.675093,0.08969 -0.254485,-0.04551 -0.340639,-0.02784 -0.340639,0.07157 0,0.07334 -0.08925,0.210303 -0.197933,0.304852 -0.268623,0.232836 -0.157727,0.356102 0.254927,0.281877 0.256253,-0.04595 0.356103,-0.02562 0.400284,0.08483 0.09411,0.234603 -0.144473,0.570382 -0.365822,0.515155 -0.140497,-0.03534 -0.207653,0.01281 -0.251392,0.178493 -0.01502,0.05877 -0.04285,0.108686 -0.07599,0.151101 a 8.8362882,8.8362882 0 0 0 1.398343,0.413096 c -0.04418,-0.08439 -0.09455,-0.161262 -0.14359,-0.195724 -0.227534,-0.16082 -0.07511,-0.578777 0.238138,-0.653885 0.319432,-0.07688 0.269065,-0.284087 -0.0782,-0.32385 -0.30441,-0.03446 -0.62826,-0.342848 -0.526643,-0.500576 0.06848,-0.105593 0.359637,-0.09013 0.948576,0.04948 0.265972,0.06274 0.447558,-0.06362 1.063889,-0.737831 0.356544,-0.390563 0.630911,-0.553151 0.931787,-0.553151 0.114871,0 0.524433,-0.105594 0.910579,-0.234604 0.728994,-0.244323 1.013964,-0.235487 0.987014,0.03093 -0.05567,0.554036 0.300875,0.535479 0.881861,-0.04506 0.242114,-0.241672 0.463463,-0.416631 0.492181,-0.389238 0.110896,0.106477 -0.0888,0.624725 -0.322082,0.834587 -0.295574,0.265973 -0.310154,0.433862 -0.04992,0.566848 0.142264,0.07334 0.202792,0.221349 0.225325,0.554035 l 0.03004,0.454186 h 0.369357 c 0.129452,0 0.236813,0.01767 0.323408,0.05081 a 8.8362882,8.8362882 0 0 0 4.281182,-7.292588 c -0.135195,-0.288947 -0.125475,-0.463464 0,-0.660071 a 8.8362882,8.8362882 0 0 0 -0.03976,-0.495274 c -0.08041,-0.0039 -0.162588,-0.0075 -0.257136,-0.0035 -0.445349,0.01856 -0.826635,-0.156844 -0.826635,-0.380402 0,-0.04727 -0.15817,-0.242114 -0.351243,-0.432536 -0.219139,-0.215606 -0.33136,-0.406469 -0.298666,-0.505436 0.03004,-0.09013 -0.03446,-0.235488 -0.14845,-0.334012 -0.110895,-0.09632 -0.201909,-0.250951 -0.201909,-0.343732 0,-0.148008 -0.09411,-0.166564 -0.774942,-0.150217 l -0.774943,0.019 0.01326,0.763897 c 0.02297,1.337815 0.222232,1.685081 0.836796,1.461081 0.281436,-0.102942 0.972875,-0.02519 1.169483,0.130777 0.07113,0.05655 0.174075,0.261555 0.228418,0.455953 0.05478,0.193956 0.257136,0.530177 0.450651,0.746224 0.391447,0.43828 0.421932,0.609263 0.197491,1.123535 -0.195724,0.448883 -0.406911,0.397191 -0.364939,-0.08969 l 0.03093,-0.362288 -0.331361,0.06185 c -0.183353,0.0349 -0.413096,0.170099 -0.516039,0.303969 -0.146683,0.190422 -0.215164,0.218256 -0.325176,0.131219 -0.07688,-0.06097 -0.139171,-0.189539 -0.139171,-0.284971 0,-0.09543 -0.09455,-0.201467 -0.20942,-0.23637 -0.115314,-0.03491 -0.273041,-0.208537 -0.350359,-0.386588 -0.12415,-0.284528 -0.121057,-0.371566 0.02341,-0.717065 0.14624,-0.350359 0.147566,-0.408236 0.01281,-0.537688 -0.123708,-0.118406 -0.187771,-0.122383 -0.350358,-0.02474 -0.163472,0.09764 -0.240789,0.09057 -0.435188,-0.03976 -0.129451,-0.08704 -0.356102,-0.159053 -0.502784,-0.159053 -0.298225,0 -0.388355,-0.144915 -0.388355,-0.624726 0,-0.44314 -0.264205,-0.603961 -0.893349,-0.546083 -0.436513,0.04021 -0.532828,0.01149 -0.884954,-0.259787 -0.217815,-0.167447 -0.561546,-0.570382 -0.764781,-0.896441 -0.203235,-0.326059 -0.421933,-0.666698 -0.485996,-0.756828 -0.0919,-0.130336 -0.06937,-0.255369 0.110454,-0.610146 l 0.227092,-0.446232 -0.47981,0.06495 c -0.853585,0.115314 -1.026335,0.225768 -0.659187,0.422817 0.143148,0.07643 0.149333,0.115755 0.03888,0.243439 -0.07246,0.08306 -0.106478,0.215164 -0.07511,0.293365 0.03137,0.07776 -0.0084,0.261554 -0.08792,0.407795 -0.07997,0.146682 -0.146682,0.352126 -0.149333,0.457719 -0.0084,0.329152 -0.57215,0.591148 -1.20041,0.556245 -0.951668,-0.05258 -1.028986,-0.03755 -1.366974,0.276134 -0.422374,0.392331 -0.476718,0.574801 -0.28011,0.938856 0.190422,0.353452 0.528852,0.49439 1.114698,0.465231 0.523992,-0.02607 0.583195,0.02032 0.463463,0.366706 -0.102059,0.294248 -0.444024,0.407353 -0.675976,0.223558 -0.178493,-0.141823 -0.793941,-0.03225 -0.982595,0.1754 -0.07908,0.0866 -0.196608,0.314572 -0.260671,0.505436 -0.110453,0.329593 -0.142706,0.349917 -0.637538,0.397633 -0.493949,0.04815 -0.541665,0.03224 -0.896884,-0.295132 -0.3963,-0.364939 -0.463455,-0.644166 -0.272592,-1.12486 0.08483,-0.212954 0.147566,-0.247858 0.373775,-0.206327 0.448,0.08174 0.624726,-0.07379 0.624726,-0.552268 0,-0.231953 -0.04506,-0.448884 -0.100292,-0.481578 -0.05478,-0.03269 -0.09985,-0.155518 -0.09985,-0.273483 0,-0.117964 -0.05655,-0.269949 -0.125033,-0.336662 -0.100292,-0.0972 -0.08571,-0.149334 0.07423,-0.262438 0.10957,-0.07732 0.28983,-0.129452 0.400283,-0.116197 0.110012,0.01325 0.414422,-0.03446 0.676418,-0.105594 0.378635,-0.102059 0.489972,-0.179377 0.541223,-0.378635 0.0972,-0.378193 0.334453,-0.68172 0.53327,-0.68172 0.31413,0 0.320757,-0.738714 0.01547,-1.813206 -0.04507,-0.158612 -0.169219,-0.259345 -0.388359,-0.313688 C 13.447663,10.000205 13.25459,9.8791459 13.19627,9.7749661 13.13839,9.6707863 13.031915,9.5859579 12.9599,9.5859579 c -0.07202,0 -0.212955,-0.086242 -0.312363,-0.1915707 -0.100292,-0.1060355 -0.307503,-0.1915708 -0.465231,-0.1915708 -0.373333,0 -0.379518,-0.2570477 -0.0093,-0.3925963 0.391006,-0.1433246 0.999826,0.044535 1.14695,0.3537608 0.199258,0.4193261 0.420607,0.2443676 0.49174,-0.3891501 0.08792,-0.7835579 0.358311,-1.0087507 1.210571,-1.0087507 h 0.6128 L 15.366438,7.497679 C 15.282935,7.413911 15.21357,7.3115425 15.165413,7.2111623 Z m 3.176645,0.2778572 c -0.01723,0.015552 -0.03402,0.028276 -0.05081,0.045728 -0.205002,0.2092434 -0.301318,0.2390658 -0.618099,0.1907313 -0.553151,-0.084342 -0.482019,0.1383763 0.130335,0.4073087 0.330919,0.1454012 0.543874,0.3111699 0.616332,0.4788827 0.349033,0.8092273 0.58938,1.2449005 0.709995,1.2890819 0.243882,0.089688 0.389239,-0.090307 0.443582,-0.5504123 0.0623,-0.52788 0.240789,-0.6397916 0.561546,-0.3511984 0.124592,0.112 0.298667,0.2036323 0.386588,0.2036323 0.274366,0 0.477159,0.1101444 0.477159,0.2589033 0,0.078378 0.09278,0.2672535 0.206328,0.4200771 0.167447,0.2248829 0.280994,0.2787849 0.593798,0.2787849 0.383937,0 0.619424,0.07202 1.100118,0.337546 0.0075,0.0039 0.01502,0.0053 0.02253,0.0093 A 8.8362882,8.8362882 0 0 0 18.342058,7.4890195 Z M 7.1654787,15.962136 a 8.8362882,8.8362882 0 0 0 -0.00172,0.038 8.8362882,8.8362882 0 0 0 0.1725728,1.697452 c 0.3201387,0.130335 0.40859,0.07864 0.4418144,-0.21914 C 7.7953294,17.32425 7.875828,17.149734 7.957652,17.089205 8.0840573,16.995982 8.0612597,16.948266 7.8023123,16.771541 7.6346879,16.657111 7.4694935,16.45741 7.4355621,16.327959 7.4026911,16.202484 7.2915306,16.06552 7.165481,15.962136 Z m 2.781266,2.920836 c -0.082619,-0.0084 -0.1821601,0.03578 -0.2926137,0.141822 -0.2336756,0.223558 -0.1983746,0.672883 0.066449,0.850493 0.303482,0.203676 0.420563,0.144473 0.459001,-0.231069 0.04727,-0.463022 -0.05169,-0.742248 -0.2328363,-0.761246 z m 1.4995183,1.336046 c -0.09013,0.003 -0.189538,0.0676 -0.288947,0.203677 -0.105593,0.144031 -0.134311,0.330035 -0.09411,0.612355 0.04992,0.347266 0.02828,0.421491 -0.15331,0.514713 -0.23372,0.119291 -0.283645,0.47451 -0.09234,0.657421 0.18998,0.182027 0.371124,0.134312 0.436513,-0.114872 0.09278,-0.355219 0.612796,-0.396749 0.968014,-0.07776 0.151544,0.136079 0.275251,0.205002 0.275251,0.152868 0,-0.05213 -0.157728,-0.241673 -0.350359,-0.420166 -0.29469,-0.273925 -0.349475,-0.390564 -0.349475,-0.743132 0,-0.497483 -0.152426,-0.791289 -0.351242,-0.785105 z m -2.4626296,1.140765 a 8.8362882,8.8362882 0 0 0 0.2045159,0.25802 C 9.12793,21.52458 9.0591837,21.435333 8.9836334,21.359783 Z m 2.9777846,1.35637 c -0.04463,0.01546 -0.06362,0.07157 -0.06362,0.170099 0,0.09985 -0.06362,0.20456 -0.141381,0.232836 -0.103385,0.038 -0.127243,0.157728 -0.08748,0.443582 0.0075,0.05346 0.0097,0.09632 0.01237,0.140939 a 8.8362882,8.8362882 0 0 0 0.367589,0.188654 c -0.0062,-0.152867 0.02164,-0.332686 0.101617,-0.558011 0.135638,-0.382612 0.140497,-0.478485 0.03004,-0.545641 -0.103385,-0.06274 -0.174075,-0.08792 -0.21914,-0.07246 z"
         id="path19-6"
         inkscape:connector-curvature="0" />
      <path
         style="fill:#cba606;stroke-width:2.33447504"
         d="M 26.291744,15.512451 C 25.749656,15.807229 21.194041,18.209072 16,18.209072 c -5.182102,0 -9.724617,-2.388223 -10.2845536,-2.692307 A 10.309003,10.309003 0 0 0 5.6909971,16 10.309003,10.309003 0 0 0 5.9124795,18.072443 C 7.9174246,18.986329 11.719271,20.418144 16,20.418144 c 4.289158,0 8.097412,-1.437875 10.099026,-2.351453 A 10.309003,10.309003 0 0 0 26.309003,16 10.309003,10.309003 0 0 0 26.291744,15.512451 Z"
         id="path23-2"
         inkscape:connector-curvature="0" />
    </g>
    <g
       style="stroke-width:1.60000002"
       transform="matrix(0.625,0,0,0.625,-45.72028,0.88374126)"
       id="g4544">
      <circle
         style="fill:#4f4f4f;fill-rule:evenodd;stroke-width:1.60000002"
         cx="24"
         cy="23"
         r="8"
         id="circle27" />
      <path
         inkscape:connector-curvature="0"
         d="m 23,19 -0.0882,1.0536 a 3.1429,3.1429 0 0 0 -0.91852,0.53126 l -0.95759,-0.4509 -1,1.7321 0.86941,0.6038 a 3.1429,3.1429 0 0 0 -0.048,0.53013 3.1429,3.1429 0 0 0 0.0457,0.53237 l -0.86719,0.60156 1,1.7321 0.95536,-0.44978 a 3.1429,3.1429 0 0 0 0.92075,0.5279 l 0.0882,1.0558 h 2 l 0.0882,-1.0536 a 3.1429,3.1429 0 0 0 0.91854,-0.53126 l 0.95758,0.4509 1,-1.7321 -0.86942,-0.6038 a 3.1429,3.1429 0 0 0 0.048,-0.53013 3.1429,3.1429 0 0 0 -0.0457,-0.53237 l 0.86719,-0.60156 -1,-1.7321 -0.95536,0.44978 a 3.1429,3.1429 0 0 0 -0.921,-0.528 l -0.088,-1.056 h -2 z m 1,2.8572 a 1.1429,1.1429 0 0 1 1.143,1.143 A 1.1429,1.1429 0 0 1 24,24.1432 1.1429,1.1429 0 0 1 22.857,23.0002 1.1429,1.1429 0 0 1 24,21.8572 Z"
         style="fill:#ffffff;stroke-width:1.60000002"
         id="path29" />
    </g>
  </g>
</svg>
