<?xml version="1.0" encoding="UTF-8" standalone="no"?>
<svg
   xmlns:dc="http://purl.org/dc/elements/1.1/"
   xmlns:cc="http://creativecommons.org/ns#"
   xmlns:rdf="http://www.w3.org/1999/02/22-rdf-syntax-ns#"
   xmlns:svg="http://www.w3.org/2000/svg"
   xmlns="http://www.w3.org/2000/svg"
   xmlns:sodipodi="http://sodipodi.sourceforge.net/DTD/sodipodi-0.dtd"
   xmlns:inkscape="http://www.inkscape.org/namespaces/inkscape"
   height="32"
   width="32"
   version="1"
   id="svg16"
   sodipodi:docname="chrome-ejjicmeblgpmajnghnpcppodonldlgfn-Default.svg"
   inkscape:version="0.92.1 r">
  <metadata
     id="metadata22">
    <rdf:RDF>
      <cc:Work
         rdf:about="">
        <dc:format>image/svg+xml</dc:format>
        <dc:type
           rdf:resource="http://purl.org/dc/dcmitype/StillImage" />
      </cc:Work>
    </rdf:RDF>
  </metadata>
  <defs
     id="defs20" />
  <sodipodi:namedview
     pagecolor="#ffffff"
     bordercolor="#666666"
     borderopacity="1"
     objecttolerance="10"
     gridtolerance="10"
     guidetolerance="10"
     inkscape:pageopacity="0"
     inkscape:pageshadow="2"
     inkscape:window-width="1680"
     inkscape:window-height="963"
     id="namedview18"
     showgrid="false"
     inkscape:zoom="7.375"
     inkscape:cx="-13.423729"
     inkscape:cy="11.254237"
     inkscape:window-x="0"
     inkscape:window-y="0"
     inkscape:window-maximized="1"
     inkscape:current-layer="svg16" />
  <g
     id="g4534"
     transform="translate(62.373046,4.7460936)">
    <g
       id="g4528">
      <path
         style="opacity:1;fill:#4384f1;fill-opacity:1;fill-rule:evenodd;stroke:none;stroke-width:1.03534329;stroke-linecap:round;stroke-linejoin:bevel;stroke-miterlimit:4;stroke-dasharray:none;stroke-dashoffset:0;stroke-opacity:1"
         d="M -60.474609,4.7460938 V 19.78125 c 0,3.088651 2.487521,5.574219 5.576171,5.574219 h 17.052735 c 3.088651,0 5.574219,-2.485568 5.574219,-5.574219 V 4.7460938 Z"
         id="path4524"
         inkscape:connector-curvature="0" />
      <path
         style="opacity:1;fill:#cccccc;fill-opacity:1;fill-rule:evenodd;stroke:none;stroke-width:1.03534329;stroke-linecap:round;stroke-linejoin:bevel;stroke-miterlimit:4;stroke-dasharray:none;stroke-dashoffset:0;stroke-opacity:1"
         d="m -60.474609,4.7460938 h 28.203125 V 2.7285156 c 0,-3.08865078 -2.485568,-5.5761718 -5.574219,-5.5761718 h -17.052735 c -3.08865,0 -5.576171,2.48752102 -5.576171,5.5761718 z"
         id="rect4497-3"
         inkscape:connector-curvature="0" />
    </g>
    <path
       inkscape:connector-curvature="0"
       id="path12"
       style="fill:#ffffff;fill-opacity:1"
       d="m -53.273868,7.4453467 c -0.678976,0.020225 -1.24328,0.080078 -1.556641,0.080078 v 2 c 0.976678,0 2.350131,-0.178561 3.398438,0.03906 0.524151,0.1088146 0.91433,0.2951006 1.164062,0.5585933 0.249732,0.263496 0.4375,0.632665 0.4375,1.402344 0,0.813063 -0.172097,1.243281 -0.357422,1.492188 -0.185324,0.248906 -0.419644,0.385009 -0.791016,0.480468 -0.506183,0.130113 -1.247696,0.05457 -1.943359,0.01953 -0.277419,-0.01152 -0.652546,-0.07205 -0.851562,-0.0625 -0.118328,0.0057 -0.219037,0.01299 -0.316406,0.02539 -0.04868,0.0062 -0.0959,0.01445 -0.15625,0.02734 -0.06036,0.0129 -0.100482,-0.008 -0.326172,0.121094 -0.02821,0.01614 -0.05996,0.03673 -0.09766,0.06445 -0.0377,0.02772 -0.130404,0.112807 -0.13086,0.113281 -4.55e-4,4.74e-4 -0.155992,0.212423 -0.15625,0.212891 -2.57e-4,4.68e-4 -0.11713,0.358914 -0.117187,0.359375 -5.7e-5,4.61e-4 0.04087,0.429234 0.04102,0.429687 1.45e-4,4.54e-4 0.165667,0.312055 0.166016,0.3125 3.48e-4,4.45e-4 0.119254,0.129996 0.169921,0.169922 0.05067,0.03993 0.09331,0.06878 0.13086,0.08984 0.30042,0.168499 0.332099,0.118222 0.398437,0.126953 0.132677,0.01748 0.215806,0.01758 0.337891,0.01758 0.154583,0 0.592773,-0.04184 0.826172,-0.02344 0.2976,0.01328 0.532813,-1.52e-4 0.890625,0.06641 0.628483,0.116902 1.262007,0.345956 1.664062,0.658203 0.402054,0.312258 0.61914,0.624901 0.61914,1.29884 0,0.726295 -0.194809,1.048466 -0.523438,1.333984 -0.328628,0.285519 -0.878039,0.504646 -1.546874,0.621094 -1.337672,0.232896 -2.95301,0.04492 -3.929688,0.04492 v 2 c 0.626722,0 2.511959,0.232466 4.273438,-0.07422 0.880739,-0.153342 1.780331,-0.444892 2.513671,-1.082031 0.733341,-0.637137 1.212891,-1.649204 1.212891,-2.843749 0,-1.246901 -0.606602,-2.268496 -1.392578,-2.878906 -0.0068,-0.0053 -0.01468,-0.0045 -0.02148,-0.0098 0.215783,-0.166096 0.485667,-0.189475 0.660156,-0.423828 0.501636,-0.673683 0.753902,-1.579689 0.753902,-2.687466 0,-1.151161 -0.361591,-2.1181793 -0.986328,-2.7773433 -0.624737,-0.659164 -1.433563,-0.981601 -2.208984,-1.142578 -0.775423,-0.160976 -1.569071,-0.180381 -2.248047,-0.160156 z m 12.433593,0.08008 -2.990234,1 v 1.9999993 l 3,-0.9999993 0.0098,9.9999993 h -3.0098 v 2 h 8 v -2 h -3 V 7.5254267 Z" />
  </g>
</svg>
