<?xml version="1.0" encoding="UTF-8" standalone="no"?>
<svg
   xmlns:dc="http://purl.org/dc/elements/1.1/"
   xmlns:cc="http://creativecommons.org/ns#"
   xmlns:rdf="http://www.w3.org/1999/02/22-rdf-syntax-ns#"
   xmlns:svg="http://www.w3.org/2000/svg"
   xmlns="http://www.w3.org/2000/svg"
   xmlns:sodipodi="http://sodipodi.sourceforge.net/DTD/sodipodi-0.dtd"
   xmlns:inkscape="http://www.inkscape.org/namespaces/inkscape"
   height="32"
   width="32"
   version="1"
   id="svg16"
   sodipodi:docname="grub-customizer.svg"
   inkscape:version="0.92.1 r">
  <metadata
     id="metadata22">
    <rdf:RDF>
      <cc:Work
         rdf:about="">
        <dc:format>image/svg+xml</dc:format>
        <dc:type
           rdf:resource="http://purl.org/dc/dcmitype/StillImage" />
      </cc:Work>
    </rdf:RDF>
  </metadata>
  <defs
     id="defs20" />
  <sodipodi:namedview
     pagecolor="#ffffff"
     bordercolor="#666666"
     borderopacity="1"
     objecttolerance="10"
     gridtolerance="10"
     guidetolerance="10"
     inkscape:pageopacity="0"
     inkscape:pageshadow="2"
     inkscape:window-width="1680"
     inkscape:window-height="963"
     id="namedview18"
     showgrid="false"
     inkscape:zoom="10.429825"
     inkscape:cx="-16.155541"
     inkscape:cy="4.2105806"
     inkscape:window-x="0"
     inkscape:window-y="0"
     inkscape:window-maximized="1"
     inkscape:current-layer="svg16" />
  <rect
     style="opacity:1;fill:#78ac3d;fill-opacity:1;fill-rule:evenodd;stroke:none;stroke-width:1.03534329;stroke-linecap:round;stroke-linejoin:bevel;stroke-miterlimit:4;stroke-dasharray:none;stroke-dashoffset:0;stroke-opacity:1"
     id="rect4497-3"
     width="28.203388"
     height="28.203388"
     x="1.8983059"
     y="1.8983059"
     ry="5.575182" />
  <g
     id="g4519"
     transform="matrix(1.1426388,0,0,1.1426388,52.099974,-2.2239247)">
    <path
       id="path2"
       style="fill:#ffffff;stroke-width:0.59199065;enable-background:new"
       d="m -33.289985,7.6615687 c -0.175708,0.019121 -0.330478,0.1628862 -0.362594,0.3366887 l -0.349636,1.7740776 c -0.627687,0.245475 -1.217606,0.582744 -1.735243,0.997149 l -1.7221,-0.582756 c -0.179018,-0.06169 -0.396042,0.01823 -0.492181,0.181327 l -1.657574,2.874825 c -0.09337,0.165343 -0.05334,0.394165 0.09065,0.517986 l 1.372649,1.204287 c -0.04831,0.322913 -0.0777,0.647815 -0.0777,0.984184 0,0.336381 0.02936,0.661254 0.0777,0.984185 l -1.372649,1.204346 c -0.143966,0.12382 -0.184014,0.352642 -0.09065,0.517985 l 1.657574,2.874825 c 0.09613,0.163035 0.313157,0.242989 0.492086,0.181292 l 1.722278,-0.582732 c 0.517643,0.414375 1.107556,0.75165 1.735243,0.997149 l 0.349636,1.774077 c 0.03546,0.185708 0.2124,0.334114 0.401441,0.336689 h 3.315088 c 0.189041,-0.0024 0.365992,-0.150981 0.401435,-0.336689 l 0.349641,-1.774077 c 0.627688,-0.245475 1.217607,-0.58275 1.735243,-0.997149 l 1.722279,0.582732 c 0.178923,0.0617 0.395953,-0.01823 0.492086,-0.181292 l 1.657574,-2.874825 c 0.09336,-0.165343 0.05334,-0.394165 -0.09065,-0.517985 l -1.372648,-1.204346 c 0.04831,-0.322913 0.07769,-0.647756 0.07769,-0.984185 0,-0.336381 -0.02942,-0.661253 -0.07769,-0.984184 l 1.372648,-1.204287 c 0.143967,-0.123821 0.184009,-0.352643 0.09065,-0.517986 l -1.657574,-2.874825 c -0.0959,-0.163271 -0.313163,-0.243249 -0.491944,-0.181563 l -1.722278,0.582732 c -0.517992,-0.41469 -1.107615,-0.751947 -1.735125,-0.9974454 L -29.534497,7.997701 c -0.03552,-0.1857075 -0.212524,-0.3341196 -0.401369,-0.3366651 h -3.315089 c -0.01296,-3.02e-4 -0.02593,-3.02e-4 -0.03883,0 z"
       inkscape:connector-curvature="0" />
    <path
       id="path6"
       style="fill:#78ac3d;fill-opacity:1;stroke-width:0.59199065;enable-background:new"
       d="m -31.593339,12.397257 c 1.961679,0 3.551944,1.590265 3.551944,3.551944 0,1.96168 -1.590265,3.551944 -3.551944,3.551944 -1.96168,0 -3.551944,-1.590264 -3.551944,-3.551944 0,-1.961679 1.590264,-3.551944 3.551944,-3.551944 z"
       inkscape:connector-curvature="0" />
    <path
       id="path12"
       d="m -31.593339,10.621167 c -2.93882,0 -5.327916,2.389096 -5.327916,5.327916 0,2.938819 2.389096,5.327916 5.327916,5.327916 2.938819,0 5.327916,-2.389097 5.327916,-5.327916 0,-2.93882 -2.389097,-5.327916 -5.327916,-5.327916 z m 0,0.626799 c 2.600082,0 4.701116,2.101035 4.701116,4.701117 0,2.600082 -2.101034,4.701116 -4.701116,4.701116 -2.600023,0 -4.701117,-2.100975 -4.701117,-4.700998 0,-2.600023 2.101094,-4.701116 4.701117,-4.701116 z"
       style="color:#000000;opacity:0.2;stroke-width:0.59199065"
       inkscape:connector-curvature="0" />
    <path
       id="path14"
       d="m -32.140339,10.649286 c -2.682428,0.274702 -4.78068,2.54556 -4.78068,5.299738 0,2.938819 2.389097,5.327915 5.327916,5.327915 0.440903,0 0.866971,-0.05965 1.276865,-0.160985 0.03793,-0.0877 0.104859,-0.236726 0.07592,-0.353833 -0.02673,-0.108139 -0.115125,-0.200223 -0.214253,-0.256463 -0.364809,0.09058 -0.744961,0.144482 -1.13828,0.144482 -2.600023,0 -4.701116,-2.101094 -4.701116,-4.701116 0,-2.479021 1.911182,-4.499248 4.342251,-4.682587 0.09402,-0.101698 0.129747,-0.211205 0.112194,-0.354555 -0.01817,-0.147584 -0.131629,-0.227627 -0.300553,-0.262602 z"
       inkscape:connector-curvature="0"
       style="fill:#ffee57;stroke-width:0.59199065" />
  </g>
</svg>
