<?xml version="1.0" encoding="UTF-8" standalone="no"?>
<svg
   xmlns:dc="http://purl.org/dc/elements/1.1/"
   xmlns:cc="http://creativecommons.org/ns#"
   xmlns:rdf="http://www.w3.org/1999/02/22-rdf-syntax-ns#"
   xmlns:svg="http://www.w3.org/2000/svg"
   xmlns="http://www.w3.org/2000/svg"
   xmlns:sodipodi="http://sodipodi.sourceforge.net/DTD/sodipodi-0.dtd"
   xmlns:inkscape="http://www.inkscape.org/namespaces/inkscape"
   height="32"
   width="32"
   version="1"
   id="svg28"
   sodipodi:docname="kalarm.svg"
   inkscape:version="0.92.1 r">
  <metadata
     id="metadata34">
    <rdf:RDF>
      <cc:Work
         rdf:about="">
        <dc:format>image/svg+xml</dc:format>
        <dc:type
           rdf:resource="http://purl.org/dc/dcmitype/StillImage" />
      </cc:Work>
    </rdf:RDF>
  </metadata>
  <defs
     id="defs32" />
  <sodipodi:namedview
     pagecolor="#ffffff"
     bordercolor="#666666"
     borderopacity="1"
     objecttolerance="10"
     gridtolerance="10"
     guidetolerance="10"
     inkscape:pageopacity="0"
     inkscape:pageshadow="2"
     inkscape:window-width="640"
     inkscape:window-height="480"
     id="namedview30"
     showgrid="false"
     inkscape:zoom="6.3197669"
     inkscape:cx="-15.472229"
     inkscape:cy="26.07944"
     inkscape:current-layer="svg28" />
  <rect
     style="opacity:1;fill:#e74c3c;fill-opacity:1;fill-rule:evenodd;stroke:none;stroke-width:1.03534329;stroke-linecap:round;stroke-linejoin:bevel;stroke-miterlimit:4;stroke-dasharray:none;stroke-dashoffset:0;stroke-opacity:1"
     id="rect4497-3"
     width="28.203388"
     height="28.203388"
     x="1.8983059"
     y="1.8983059"
     ry="5.575182"
     inkscape:export-filename="/home/ramil/3.png"
     inkscape:export-xdpi="71"
     inkscape:export-ydpi="71" />
  <g
     id="g4526"
     transform="translate(38.48951,1.3426073)">
    <path
       style="fill:#800000;stroke-width:1"
       inkscape:connector-curvature="0"
       id="path2"
       d="m -25.488836,18.501532 c -0.474258,-0.02514 -1.018114,0.19243 -1.451603,0.625944 l -1.87782,1.87782 c -0.693645,0.693645 -0.833209,1.670592 -0.312972,2.190842 0.520219,0.520218 1.497197,0.380648 2.190843,-0.312972 l 1.877819,-1.87782 c 0.693646,-0.693645 0.833209,-1.670592 0.312972,-2.190842 -0.195079,-0.195079 -0.454648,-0.297884 -0.739176,-0.312972 z m 5.949074,0 c -0.284553,0.01509 -0.543256,0.117893 -0.738354,0.312972 -0.520218,0.520219 -0.380648,1.497197 0.312972,2.190842 l 1.87782,1.87782 c 0.693645,0.693646 1.670592,0.833209 2.190842,0.312972 0.520218,-0.520218 0.380648,-1.497197 -0.312972,-2.190842 l -1.87782,-1.87782 c -0.433514,-0.433514 -0.978211,-0.651087 -1.452488,-0.625944 z" />
    <path
       inkscape:connector-curvature="0"
       style="fill:#800000;stroke-width:1"
       id="path4"
       d="m -29.445569,5.8041958 a 3.1618447,3.1618447 0 0 0 -3.161844,3.1618448 3.1618447,3.1618447 0 0 0 1.745189,2.8246634 c -0.306253,0.899521 -0.480452,1.860928 -0.480452,2.866657 0,4.904654 3.948512,8.853166 8.853166,8.853166 4.904653,0 8.853165,-3.948512 8.853165,-8.853166 0,-1.006139 -0.17396,-1.968058 -0.480453,-2.867892 a 3.1618447,3.1618447 0 0 0 1.745191,-2.8234284 3.1618447,3.1618447 0 0 0 -3.161845,-3.1618448 3.1618447,3.1618447 0 0 0 -2.487482,1.2128639 c -1.311336,-0.7662218 -2.834148,-1.2128639 -4.468576,-1.2128639 -1.635418,0 -3.15918,0.4470169 -4.471047,1.214099 a 3.1618447,3.1618447 0 0 0 -2.485012,-1.214099 z" />
    <rect
       style="opacity:0.8;fill:#ffffff;stroke-width:1"
       id="rect14"
       x="-22.245789"
       y="14.901083"
       width="15.176855"
       height="15.176855"
       ry="7.5884275"
       rx="7.5884275"
       transform="matrix(0,-1,-1,0,0,0)" />
    <path
       style="opacity:0.8;stroke-width:1"
       inkscape:connector-curvature="0"
       id="path16"
       d="m -23.355223,15.016547 1.377426,2.353298 c 0.252347,0.431124 0.807472,0.57727 1.244944,0.328136 0.43748,-0.249141 0.586731,-0.796406 0.334385,-1.227555 l -1.367625,-2.33654 3.158683,-1.798836 c 0.218737,-0.124571 0.293211,-0.398481 0.166971,-0.614157 -0.12624,-0.215676 -0.403964,-0.289018 -0.622707,-0.164448 l -3.788712,2.157643 c -0.516879,0.253884 -0.712869,0.918137 -0.503365,1.30249 z" />
    <path
       style="opacity:0.8;stroke-width:1"
       inkscape:connector-curvature="0"
       id="path18"
       d="m -22.48951,7.7013027 a 0.63236895,0.63236895 0 0 0 -0.632369,0.6323689 0.63236895,0.63236895 0 0 0 0.632369,0.632369 0.63236895,0.63236895 0 0 0 0.632369,-0.632369 0.63236895,0.63236895 0 0 0 -0.632369,-0.6323689 z" />
    <path
       style="opacity:0.8;stroke-width:1"
       inkscape:connector-curvature="0"
       id="path20"
       d="m -22.48951,20.348682 a 0.63236895,0.63236895 0 0 0 -0.632369,0.632369 0.63236895,0.63236895 0 0 0 0.632369,0.632369 0.63236895,0.63236895 0 0 0 0.632369,-0.632369 0.63236895,0.63236895 0 0 0 -0.632369,-0.632369 z" />
    <path
       style="opacity:0.8;stroke-width:1"
       inkscape:connector-curvature="0"
       id="path22"
       d="m -15.533452,14.657361 a 0.63236895,0.63236895 0 0 0 -0.632369,-0.632369 0.63236895,0.63236895 0 0 0 -0.632369,0.632369 0.63236895,0.63236895 0 0 0 0.632369,0.632369 0.63236895,0.63236895 0 0 0 0.632369,-0.632369 z" />
    <path
       style="opacity:0.8;stroke-width:1"
       inkscape:connector-curvature="0"
       id="path24"
       d="m -28.180831,14.657361 a 0.63236895,0.63236895 0 0 0 -0.632369,-0.632369 0.63236895,0.63236895 0 0 0 -0.632369,0.632369 0.63236895,0.63236895 0 0 0 0.632369,0.632369 0.63236895,0.63236895 0 0 0 0.632369,-0.632369 z" />
  </g>
</svg>
