<?xml version="1.0" encoding="UTF-8" standalone="no"?>
<svg
   xmlns:dc="http://purl.org/dc/elements/1.1/"
   xmlns:cc="http://creativecommons.org/ns#"
   xmlns:rdf="http://www.w3.org/1999/02/22-rdf-syntax-ns#"
   xmlns:svg="http://www.w3.org/2000/svg"
   xmlns="http://www.w3.org/2000/svg"
   xmlns:sodipodi="http://sodipodi.sourceforge.net/DTD/sodipodi-0.dtd"
   xmlns:inkscape="http://www.inkscape.org/namespaces/inkscape"
   width="32"
   version="1.1"
   height="32"
   viewBox="0 0 32 32"
   id="svg24"
   sodipodi:docname="keyring.svg"
   inkscape:version="0.92.1 r">
  <metadata
     id="metadata30">
    <rdf:RDF>
      <cc:Work
         rdf:about="">
        <dc:format>image/svg+xml</dc:format>
        <dc:type
           rdf:resource="http://purl.org/dc/dcmitype/StillImage" />
        <dc:title></dc:title>
      </cc:Work>
    </rdf:RDF>
  </metadata>
  <defs
     id="defs28" />
  <sodipodi:namedview
     pagecolor="#ffffff"
     bordercolor="#666666"
     borderopacity="1"
     objecttolerance="10"
     gridtolerance="10"
     guidetolerance="10"
     inkscape:pageopacity="0"
     inkscape:pageshadow="2"
     inkscape:window-width="1680"
     inkscape:window-height="965"
     id="namedview26"
     showgrid="false"
     inkscape:zoom="10.429825"
     inkscape:cx="-12.411162"
     inkscape:cy="22.81633"
     inkscape:window-x="0"
     inkscape:window-y="0"
     inkscape:window-maximized="1"
     inkscape:current-layer="svg24" />
  <rect
     style="opacity:1;fill:#34b353;fill-opacity:1;fill-rule:evenodd;stroke:none;stroke-width:1.03534329;stroke-linecap:round;stroke-linejoin:bevel;stroke-miterlimit:4;stroke-dasharray:none;stroke-dashoffset:0;stroke-opacity:1"
     id="rect4497-3"
     width="28.203388"
     height="28.203388"
     x="1.8983059"
     y="1.8983059"
     ry="5.575182" />
  <g
     id="g4565"
     transform="translate(0.03100844,-0.23569707)">
    <path
       sodipodi:nodetypes="cccsccccscscsccccccccccsccccccscccccccccccssc"
       inkscape:connector-curvature="0"
       id="path4517-3"
       d="m 25.705002,19.762382 c -0.05143,0.07703 -0.195465,0.136997 -0.946858,0.394222 -0.553943,0.189631 -0.760443,0.24309 -0.870188,0.225281 -0.08294,-0.01347 -1.556457,-0.83027 -3.478994,-1.92851 l -3.335101,-1.905159 -0.121486,0.06972 c -0.114796,0.06588 -0.120363,0.06577 -0.101071,-0.002 0.143069,-0.502545 0.169469,-1.500931 0.05335,-2.017647 -0.387052,-1.722371 -1.595616,-3.018996 -3.254507,-3.491648 -0.656845,-0.187148 -1.512179,-0.231752 -2.057335,-0.107286 -0.08498,0.01941 -0.15452,0.02272 -0.15452,0.0074 0,-0.0547 0.448404,-0.563444 0.624405,-0.708427 0.777502,-0.6404814 1.538009,-0.9358251 2.508987,-0.974371 0.634487,-0.025188 1.005119,0.030983 1.582148,0.2397746 0.902494,0.326561 1.739327,1.0793494 2.181263,1.9621924 0.180045,0.359674 0.341483,0.899464 0.375134,1.25432 0.05845,0.61634 0.05528,0.606382 0.219727,0.690314 0.279673,0.142739 0.30896,0.203775 0.288137,0.600501 l -0.01847,0.35192 0.177053,0.103759 0.177054,0.10376 0.489744,-0.08356 c 0.590275,-0.10071 0.620233,-0.101105 0.738944,-0.0097 0.07794,0.06 0.112567,0.173871 0.207741,0.683261 l 0.114209,0.611272 0.245518,0.13652 0.245517,0.13652 0.407924,-0.159278 c 0.383004,-0.149549 0.415092,-0.155571 0.525287,-0.09859 0.07221,0.03735 0.163441,0.151451 0.237132,0.296605 0.09212,0.181458 0.161236,0.25827 0.299421,0.332768 0.169536,0.0914 0.199049,0.09451 0.524093,0.05521 0.427961,-0.05174 0.541465,0.0015 0.701347,0.329364 0.100423,0.205894 0.134726,0.234799 0.57815,0.487216 l 0.471393,0.268339 0.04958,0.205612 c 0.13557,0.562147 0.346726,1.633334 0.346169,1.756104 -3.3e-4,0.0764 -0.01425,0.159331 -0.0309,0.184266 z m -1.48276,-1.029871 c -0.194492,-0.125599 -5.928836,-3.399486 -5.979501,-3.413852 -0.03566,-0.01011 -0.356099,0.418846 -0.328116,0.439244 0.120597,0.0879 6.177502,3.526484 6.211742,3.526484 0.08931,0 0.250395,-0.215553 0.250395,-0.335075 0,-0.09 -0.03567,-0.140043 -0.15452,-0.216801 z"
       style="fill:#abfb66;fill-opacity:1;stroke-width:0.99999988" />
    <path
       sodipodi:nodetypes="ccccsccccccccsccccscccccsscscccccccccsccccscccccccccsccccccssscccccccccccccccsccscc"
       inkscape:connector-curvature="0"
       id="path4517-6"
       d="m 19.142686,25.494089 c -0.173378,0.525814 -0.339063,0.984738 -0.368187,1.019835 -0.07729,0.09312 -0.294674,0.08035 -1.068501,-0.06278 -0.744028,-0.137613 -0.914187,-0.197567 -1.029329,-0.362659 -0.04152,-0.05953 -0.925231,-1.570635 -1.963808,-3.358019 l -1.88832,-3.249784 -0.196136,0.02323 c -0.107876,0.01277 -0.368788,0.0055 -0.579808,-0.01626 C 10.385139,19.316405 9.058009,18.222323 8.567276,16.617674 8.467052,16.289947 8.456344,16.191685 8.45376,15.575928 8.45156,15.048087 8.46752,14.83129 8.5252,14.606501 c 0.04086,-0.159247 0.08788,-0.311516 0.104474,-0.338375 0.02238,-0.0362 0.11297,-0.02255 0.35007,0.05275 0.382938,0.121605 0.949143,0.224919 1.232649,0.224919 0.16947,0 0.230118,0.02163 0.345993,0.123364 0.270364,0.237385 0.457045,0.307798 0.818097,0.308579 0.289165,6.24e-4 0.356755,-0.0143 0.550455,-0.12159 0.269067,-0.149032 0.474349,-0.380598 0.559854,-0.631537 0.06056,-0.177747 0.08912,-0.544127 0.04241,-0.544127 -0.01189,0 -0.146333,0.06229 -0.298739,0.138426 -0.60951,0.304475 -1.125354,0.417332 -1.884114,0.412209 C 9.866893,14.227919 9.701937,14.209379 9.369544,14.121514 7.755527,13.694886 6.575962,12.448692 6.26093,10.837322 6.17979,10.422279 6.18303,9.6626087 6.26773,9.2534261 6.536712,7.9534275 7.348565,6.9037273 8.533348,6.3240487 9.176376,6.0094347 9.510461,5.9284943 10.26397,5.9047633 c 0.519425,-0.016359 0.67852,-0.0061 0.996752,0.06427 1.084516,0.2398183 2.013953,0.860864 2.616718,1.7484737 0.187156,0.2755987 0.47436,0.8651416 0.511199,1.0493356 l 0.0241,0.1204903 -0.281953,0.047777 c -0.155074,0.026278 -0.319037,0.057635 -0.364364,0.069684 -0.06946,0.018463 -0.09762,-0.017885 -0.179142,-0.2311787 C 13.202642,7.7673043 12.273751,6.9775996 11.162271,6.711997 10.858218,6.63934 10.713038,6.628521 10.263941,6.645054 9.80945,6.661788 9.668952,6.684186 9.336823,6.7928738 7.893964,7.2650415 6.946442,8.5586812 6.947918,10.054421 c 7.34e-4,0.66776 0.145951,1.204028 0.48507,1.790376 0.206379,0.356836 0.860636,0.990316 1.24455,1.205021 0.797585,0.446055 1.701974,0.565601 2.580007,0.341038 0.376498,-0.09629 0.935485,-0.351124 0.913684,-0.416531 -0.009,-0.02683 -0.117247,-0.10606 -0.240682,-0.176072 -0.195678,-0.110991 -0.263999,-0.127294 -0.533461,-0.127294 -0.256003,0 -0.349886,0.02006 -0.547054,0.116876 -0.130909,0.06428 -0.288519,0.180172 -0.350245,0.257532 -0.100994,0.126578 -0.13285,0.140595 -0.318258,0.140049 -0.213676,-6.24e-4 -0.680516,-0.09574 -0.79801,-0.16258 -0.05639,-0.03208 -0.02058,-0.08406 0.221138,-0.32088 0.509047,-0.498736 1.137459,-0.857874 1.833635,-1.047926 0.303399,-0.08282 0.441185,-0.09522 1.030134,-0.09268 0.806815,0.0035 1.104321,0.0685 1.751225,0.382784 0.501002,0.243395 0.836142,0.491344 1.204572,0.891187 0.510061,0.553548 0.883341,1.317987 1.001014,2.049976 0.122991,0.76507 -0.0177,1.68111 -0.366535,2.386465 l -0.156004,0.315446 0.11649,0.22022 c 0.06407,0.121123 0.116495,0.240121 0.1165,0.264439 6e-6,0.02433 -0.08561,0.178042 -0.190258,0.341608 l -0.190269,0.297388 0.09623,0.1814 c 0.09395,0.177102 0.108463,0.185854 0.612623,0.369518 0.719035,0.261943 0.708189,0.236741 0.438329,1.018573 l -0.208647,0.604486 0.09797,0.178412 c 0.165228,0.300901 0.180199,0.309635 0.628912,0.366818 0.394414,0.05026 0.41846,0.05902 0.493092,0.179451 0.06361,0.10265 0.07383,0.173392 0.05401,0.373841 -0.02219,0.224411 -0.01339,0.264458 0.09521,0.433817 0.102644,0.160061 0.162136,0.203252 0.418498,0.303832 0.38743,0.152002 0.471477,0.269962 0.438513,0.615437 -0.02274,0.238344 -0.02039,0.244935 0.257527,0.721092 l 0.280477,0.480553 z m -2.90615,-3.460416 c -0.964372,-1.658033 -1.758783,-3.019986 -1.765357,-3.026562 -0.0066,-0.0066 -0.125241,0.03947 -0.263702,0.102324 l -0.251746,0.114275 1.749717,3.007424 c 0.962344,1.654083 1.777147,3.039873 1.810674,3.07953 0.03352,0.03966 0.09359,0.07204 0.133469,0.07196 0.125796,-2.68e-4 0.340348,-0.157173 0.340348,-0.248899 0,-0.04699 -0.789032,-1.442015 -1.753403,-3.100049 z"
       style="fill:#ffffff;fill-opacity:1;stroke-width:0.99999988" />
  </g>
</svg>
