<?xml version="1.0" encoding="UTF-8" standalone="no"?>
<svg
   xmlns:dc="http://purl.org/dc/elements/1.1/"
   xmlns:cc="http://creativecommons.org/ns#"
   xmlns:rdf="http://www.w3.org/1999/02/22-rdf-syntax-ns#"
   xmlns:svg="http://www.w3.org/2000/svg"
   xmlns="http://www.w3.org/2000/svg"
   xmlns:sodipodi="http://sodipodi.sourceforge.net/DTD/sodipodi-0.dtd"
   xmlns:inkscape="http://www.inkscape.org/namespaces/inkscape"
   height="32"
   width="32"
   version="1"
   id="svg24"
   sodipodi:docname="kfoldersync.svg"
   inkscape:version="0.92.1 r">
  <metadata
     id="metadata30">
    <rdf:RDF>
      <cc:Work
         rdf:about="">
        <dc:format>image/svg+xml</dc:format>
        <dc:type
           rdf:resource="http://purl.org/dc/dcmitype/StillImage" />
      </cc:Work>
    </rdf:RDF>
  </metadata>
  <defs
     id="defs28" />
  <sodipodi:namedview
     pagecolor="#ffffff"
     bordercolor="#666666"
     borderopacity="1"
     objecttolerance="10"
     gridtolerance="10"
     guidetolerance="10"
     inkscape:pageopacity="0"
     inkscape:pageshadow="2"
     inkscape:window-width="1680"
     inkscape:window-height="963"
     id="namedview26"
     showgrid="false"
     inkscape:zoom="7.375"
     inkscape:cx="16"
     inkscape:cy="16"
     inkscape:window-x="0"
     inkscape:window-y="0"
     inkscape:window-maximized="1"
     inkscape:current-layer="svg24" />
  <g
     id="g4546"
     transform="translate(2.5e-7,4.2031248)">
    <path
       inkscape:connector-curvature="0"
       id="path4542"
       d="m 30.101562,9.4746094 c -0.02424,-6.981e-4 -0.03808,-0.025406 -0.0625,-0.025391 L 17.408203,9.4570312 15.34375,6.9433594 C 15.003042,6.5283427 14.612837,6.2139641 14.173828,6.0039062 13.73482,5.7938484 13.247892,5.6875 12.710938,5.6875 H 2.3007815 c -0.15727,0 -0.256111,0.1309899 -0.402344,0.1660156 V 20.322266 c 0,3.08865 2.487521,5.576172 5.576172,5.576172 H 24.527343 c 3.088651,0 5.574219,-2.487522 5.574219,-5.576172 z"
       style="opacity:1;fill:#5294e2;fill-opacity:1;fill-rule:evenodd;stroke:none;stroke-width:1.03534329;stroke-linecap:round;stroke-linejoin:bevel;stroke-miterlimit:4;stroke-dasharray:none;stroke-dashoffset:0;stroke-opacity:1" />
    <path
       inkscape:connector-curvature="0"
       id="rect4497"
       d="m 7.4746095,-2.3046875 c -3.088651,0 -5.576172,2.48556794 -5.576172,5.5742187 V 5.8535156 C 2.0446705,5.8184899 2.1435115,5.6875 2.3007815,5.6875 H 12.710938 c 0.536954,0 1.023882,0.1063484 1.46289,0.3164062 0.439009,0.2100579 0.829214,0.5244365 1.169922,0.9394532 l 2.064453,2.5136718 12.630859,-0.00781 c 0.02442,-1.55e-5 0.03826,0.024692 0.0625,0.025391 v -6.205081 c 0,-3.08865076 -2.485568,-5.5742187 -5.574219,-5.5742187 z"
       style="opacity:1;fill:#84d2fe;fill-opacity:1;fill-rule:evenodd;stroke:none;stroke-width:1.03534329;stroke-linecap:round;stroke-linejoin:bevel;stroke-miterlimit:4;stroke-dasharray:none;stroke-dashoffset:0;stroke-opacity:1" />
  </g>
  <g
     id="g4518"
     transform="matrix(0.625,0,0,0.625,8.0508475,8.2690678)">
    <circle
       id="circle16"
       r="8"
       cx="24"
       cy="23"
       style="fill:#5db41e" />
    <path
       id="path18"
       style="fill:#ffffff"
       d="m 24,18 a 5,5 0 0 0 -5,5 5,5 0 0 0 5,5 5,5 0 0 0 5,-5 5,5 0 0 0 -5,-5 z m 0,1 a 4,4 0 0 1 4,4 4,4 0 0 1 -4,4 4,4 0 0 1 -4,-4 4,4 0 0 1 4,-4 z"
       inkscape:connector-curvature="0" />
    <path
       id="path20"
       style="fill:#ffffff"
       d="M 27,18.5 25,19.75 23,21 v -5 l 2,1.25 z"
       inkscape:connector-curvature="0" />
    <path
       id="path22"
       style="fill:#ffffff"
       d="m 21,27.5 2,1.25 2,1.25 v -5 l -2,1.25 z"
       inkscape:connector-curvature="0" />
  </g>
</svg>
