<?xml version="1.0" encoding="UTF-8" standalone="no"?>
<svg
   xmlns:dc="http://purl.org/dc/elements/1.1/"
   xmlns:cc="http://creativecommons.org/ns#"
   xmlns:rdf="http://www.w3.org/1999/02/22-rdf-syntax-ns#"
   xmlns:svg="http://www.w3.org/2000/svg"
   xmlns="http://www.w3.org/2000/svg"
   xmlns:sodipodi="http://sodipodi.sourceforge.net/DTD/sodipodi-0.dtd"
   xmlns:inkscape="http://www.inkscape.org/namespaces/inkscape"
   height="32"
   width="32"
   version="1"
   id="svg20"
   sodipodi:docname="EasyTAG_icon.svg"
   inkscape:version="0.92.1 r">
  <metadata
     id="metadata26">
    <rdf:RDF>
      <cc:Work
         rdf:about="">
        <dc:format>image/svg+xml</dc:format>
        <dc:type
           rdf:resource="http://purl.org/dc/dcmitype/StillImage" />
      </cc:Work>
    </rdf:RDF>
  </metadata>
  <defs
     id="defs24" />
  <sodipodi:namedview
     pagecolor="#ffffff"
     bordercolor="#666666"
     borderopacity="1"
     objecttolerance="10"
     gridtolerance="10"
     guidetolerance="10"
     inkscape:pageopacity="0"
     inkscape:pageshadow="2"
     inkscape:window-width="640"
     inkscape:window-height="480"
     id="namedview22"
     showgrid="false"
     inkscape:zoom="8.8125"
     inkscape:cx="-5.6737589"
     inkscape:cy="16"
     inkscape:current-layer="svg20" />
  <rect
     style="opacity:1;fill:#600490;fill-opacity:1;fill-rule:evenodd;stroke:none;stroke-width:1.03534329;stroke-linecap:round;stroke-linejoin:bevel;stroke-miterlimit:4;stroke-dasharray:none;stroke-dashoffset:0;stroke-opacity:1"
     id="rect4497-3"
     width="28.203388"
     height="28.203388"
     x="1.8983059"
     y="1.8983059"
     ry="5.575182" />
  <path
     inkscape:connector-curvature="0"
     id="path2"
     d="M 23.835261,6.8060633 13.173805,9.2640625 c -1.502749,0.1894328 -1.445501,1.7282115 -1.445501,1.7282115 v 1.423896 5.136592 c -0.347211,-0.100014 -0.706595,-0.151488 -1.067922,-0.152958 -2.1625878,0 -3.9157128,1.753125 -3.9157128,3.915713 0,2.162589 1.753125,3.915713 3.9157128,3.915713 2.023943,-9.96e-4 3.713642,-1.544177 3.897636,-3.559739 h 0.01808 v -0.355974 -9.498663 l 7.831426,-1.8626424 v 5.4627074 c -0.347211,-0.100014 -0.706595,-0.151489 -1.067921,-0.152958 -2.162589,0 -3.915713,1.753124 -3.915713,3.915713 0,2.162588 1.753124,3.915713 3.915713,3.915713 2.023942,-9.97e-4 3.713641,-1.544178 3.897636,-3.559739 h 0.01808 V 9.3548962 8.1444827 c 0,0 0.01853,-1.6412787 -1.420052,-1.3384194 z"
     style="opacity:1;fill:#ae66e0;fill-opacity:1;stroke-width:1" />
  <g
     id="g4513"
     transform="matrix(0.54610846,0,0,0.54610846,9.8226178,11.102641)"
     style="stroke-width:1.83113801">
    <path
       id="path10"
       d="M 30.628,14.063 C 28.895,11.077 21.852,11.968 20.303,12.826 l -12.608,7.24 c -0.66527,0.38199 -0.89163,1.2222 -0.50754,1.8838 l 4.8532,8.3599 c 0.38409,0.66163 1.2289,0.88675 1.8942,0.50476 l 12.609,-7.2399 c 0.98016,-0.58394 5.8185,-6.5256 4.0852,-9.5113 z m -2.4017,1.379 a 1.3866,1.379 0 0 1 -0.50754,1.8838 1.3866,1.379 0 0 1 -1.8942,-0.50476 1.3866,1.379 0 0 1 0.50754,-1.8838 1.3866,1.379 0 0 1 1.8942,0.50476 z"
       inkscape:connector-curvature="0"
       style="fill:#f6dd79;stroke-width:1.83113801" />
    <path
       id="path14"
       d="m 9.0811,22.454 0.69331,1.1943 1.2008,-0.68952 2.7732,4.7771 1.2008,-0.68952 -2.7732,-4.7771 1.2008,-0.68952 -0.69331,-1.1943 -1.2008,0.68952 -1.2008,0.68952 z m 4.8034,-2.7581 0.69331,1.1943 0.69331,1.1943 0.69331,1.1943 1.3866,2.3886 1.2008,-0.68952 -1.3866,-2.3886 1.2008,-0.68952 1.3866,2.3886 1.2008,-0.68952 -3.4665,-5.9714 -2.4017,1.379 -1.2008,0.68952 z m 4.8034,-2.7581 0.69331,1.1943 2.7732,4.7771 1.2008,-0.68952 2.4017,-1.379 -0.69331,-1.1943 -0.34666,-0.59714 0.60042,-0.34476 -0.69331,-1.1943 -2.4017,1.379 0.69331,1.1943 0.60042,-0.34476 0.34665,0.59714 -1.2008,0.68952 -2.0799,-3.5828 2.4017,-1.379 -0.69331,-1.1943 -3.6025,2.0685 z m -2.9092,3.2628 1.2008,-0.68952 0.69331,1.1943 -1.2008,0.68952 z"
       inkscape:connector-curvature="0"
       style="opacity:0.3;stroke-width:1.83113801" />
  </g>
</svg>
