<?xml version="1.0" encoding="UTF-8" standalone="no"?>
<svg
   xmlns:dc="http://purl.org/dc/elements/1.1/"
   xmlns:cc="http://creativecommons.org/ns#"
   xmlns:rdf="http://www.w3.org/1999/02/22-rdf-syntax-ns#"
   xmlns:svg="http://www.w3.org/2000/svg"
   xmlns="http://www.w3.org/2000/svg"
   xmlns:sodipodi="http://sodipodi.sourceforge.net/DTD/sodipodi-0.dtd"
   xmlns:inkscape="http://www.inkscape.org/namespaces/inkscape"
   height="32"
   width="32"
   version="1"
   id="svg12"
   sodipodi:docname="lookit.svg"
   inkscape:version="0.92.1 r">
  <metadata
     id="metadata18">
    <rdf:RDF>
      <cc:Work
         rdf:about="">
        <dc:format>image/svg+xml</dc:format>
        <dc:type
           rdf:resource="http://purl.org/dc/dcmitype/StillImage" />
      </cc:Work>
    </rdf:RDF>
  </metadata>
  <defs
     id="defs16" />
  <sodipodi:namedview
     pagecolor="#ffffff"
     bordercolor="#666666"
     borderopacity="1"
     objecttolerance="10"
     gridtolerance="10"
     guidetolerance="10"
     inkscape:pageopacity="0"
     inkscape:pageshadow="2"
     inkscape:window-width="640"
     inkscape:window-height="480"
     id="namedview14"
     showgrid="false"
     inkscape:zoom="8.9375"
     inkscape:cx="-5.3706294"
     inkscape:cy="16"
     inkscape:current-layer="svg12" />
  <rect
     style="opacity:1;fill:#cccccc;fill-opacity:1;fill-rule:evenodd;stroke:none;stroke-width:1.03534329;stroke-linecap:round;stroke-linejoin:bevel;stroke-miterlimit:4;stroke-dasharray:none;stroke-dashoffset:0;stroke-opacity:1"
     id="rect4497-3"
     width="28.203388"
     height="28.203388"
     x="1.8983059"
     y="1.8983059"
     ry="5.575182"
     inkscape:export-filename="/home/ramil/3.png"
     inkscape:export-xdpi="71"
     inkscape:export-ydpi="71" />
  <g
     id="g4504"
     transform="translate(55.496503,4.5874126)">
    <path
       inkscape:connector-curvature="0"
       id="path2"
       style="fill:#f9f9f9;stroke-width:1;enable-background:new"
       d="m -39.496503,4.6573427 c -2.623062,0 -4.857089,1.5572865 -5.818495,3.7613202 -2.441818,0.3519483 -4.314372,2.3704151 -4.314372,4.8360791 0,2.713582 2.268343,4.91309 5.066433,4.91309 h 10.766509 c 2.448101,0 4.432792,-1.924569 4.432792,-4.299038 0,-2.206263 -1.711104,-4.0146416 -3.918718,-4.259857 -0.575547,-2.8171397 -3.140513,-4.9515943 -6.214149,-4.9515943 z" />
    <path
       style="opacity:0.5;stroke-width:1"
       inkscape:connector-curvature="0"
       id="path8"
       d="m -39.496503,6.6839161 a 4.7286713,4.7286713 0 0 0 -4.728672,4.7286709 4.7286713,4.7286713 0 0 0 4.728672,4.728671 4.7286713,4.7286713 0 0 0 4.728671,-4.728671 4.7286713,4.7286713 0 0 0 -4.728671,-4.7286709 z m 0,1.3510489 a 3.3776224,3.3776224 0 0 1 3.377622,3.377622 3.3776224,3.3776224 0 0 1 -3.377622,3.377622 3.3776224,3.3776224 0 0 1 -3.377623,-3.377622 3.3776224,3.3776224 0 0 1 3.377623,-3.377622 z" />
    <circle
       style="opacity:0.5;stroke-width:1"
       id="circle10"
       r="2.0265734"
       cx="-39.496502"
       cy="11.412587" />
  </g>
</svg>
