<?xml version="1.0" encoding="UTF-8" standalone="no"?>
<svg
   xmlns:dc="http://purl.org/dc/elements/1.1/"
   xmlns:cc="http://creativecommons.org/ns#"
   xmlns:rdf="http://www.w3.org/1999/02/22-rdf-syntax-ns#"
   xmlns:svg="http://www.w3.org/2000/svg"
   xmlns="http://www.w3.org/2000/svg"
   xmlns:sodipodi="http://sodipodi.sourceforge.net/DTD/sodipodi-0.dtd"
   xmlns:inkscape="http://www.inkscape.org/namespaces/inkscape"
   width="32"
   height="32"
   version="1.1"
   viewBox="0 0 32 32"
   id="svg40"
   sodipodi:docname="rabbitvcs.svg"
   inkscape:version="0.92.1 r">
  <metadata
     id="metadata46">
    <rdf:RDF>
      <cc:Work
         rdf:about="">
        <dc:format>image/svg+xml</dc:format>
        <dc:type
           rdf:resource="http://purl.org/dc/dcmitype/StillImage" />
      </cc:Work>
    </rdf:RDF>
  </metadata>
  <defs
     id="defs44" />
  <sodipodi:namedview
     pagecolor="#ffffff"
     bordercolor="#666666"
     borderopacity="1"
     objecttolerance="10"
     gridtolerance="10"
     guidetolerance="10"
     inkscape:pageopacity="0"
     inkscape:pageshadow="2"
     inkscape:window-width="640"
     inkscape:window-height="480"
     id="namedview42"
     showgrid="false"
     inkscape:zoom="8.9375"
     inkscape:cx="-14.064211"
     inkscape:cy="18.548813"
     inkscape:current-layer="svg40" />
  <rect
     style="opacity:1;fill:#7e572d;fill-opacity:1;fill-rule:evenodd;stroke:none;stroke-width:1.03534329;stroke-linecap:round;stroke-linejoin:bevel;stroke-miterlimit:4;stroke-dasharray:none;stroke-dashoffset:0;stroke-opacity:1"
     id="rect4497-6"
     width="28.203388"
     height="28.203388"
     x="1.8983059"
     y="1.8983059"
     ry="5.575182" />
  <g
     id="g4543"
     transform="matrix(0.88811189,0,0,0.88811189,2.1460671,1.7902097)"
     style="stroke-width:1.12598431">
    <circle
       id="circle4"
       r="4"
       cy="26"
       cx="15.5"
       style="fill:#8f6943;stroke-width:1.12598431" />
    <rect
       id="rect10"
       ry="0.375"
       rx="0.375"
       y="26"
       x="14"
       height="3"
       width="1.5"
       style="fill:#ffffff;stroke-width:1.12598431" />
    <rect
       id="rect14"
       ry="0.375"
       rx="0.375"
       y="26"
       x="15.5"
       height="3"
       width="1.5"
       style="fill:#ffffff;stroke-width:1.12598431" />
    <path
       id="path16"
       d="M 3.9472656,2.0058594 C 3.8420491,1.9970175 3.7474858,2.0001833 3.6621094,2.015625 3.5482742,2.0362138 3.4513323,2.0770389 3.3710938,2.140625 2.714297,2.6611142 2.9196974,4.7286404 4.0566406,9.0292969 4.6941806,11.440886 5.2197757,12.724013 6.125,14.083984 6.7193921,14.976952 7.0065121,15.316914 7.9882812,16.287109 8.8675384,17.255741 9.9772632,18.610203 10,19.75 9.7475168,22.000007 8.0999982,23.17847 8,25.09375 8,27.412688 9.0808171,29 11.400391,29 12.855323,29.145589 14.197394,27.262474 15.5,27 c 1.302606,0.262474 2.644677,2.145589 4.099609,2 C 21.919183,29 23,27.412688 23,25.09375 22.9,23.17847 21.252483,22.000007 21,19.75 c 0.02274,-1.139797 1.132461,-2.494261 2.011719,-3.462891 0.981769,-0.970195 1.268889,-1.310157 1.863281,-2.203125 0.905225,-1.359971 1.430819,-2.643099 2.068359,-5.0546871 1.136943,-4.3006565 1.342344,-6.3681827 0.685547,-6.8886719 -0.08024,-0.063587 -0.17718,-0.104411 -0.291015,-0.125 C 27.252511,2.000185 27.15795,1.997019 27.052734,2.005855 26.737084,2.032381 26.330442,2.1682638 25.822266,2.4160112 24.814479,2.9073425 23.828982,3.6321657 22.71875,4.7011719 21.05278,6.3052696 20.457581,7.2247616 18.496094,11.216797 17.910242,12.406212 17.191359,13.562681 16.3125,14.826172 16.057102,15.001997 15.5,15 15.5,15 c 0,0 -0.557102,0.002 -0.8125,-0.173828 -0.878859,-1.263491 -1.597742,-2.41996 -2.183594,-3.609375 C 10.542419,7.2247616 9.9472205,6.3052696 8.28125,4.7011719 7.1710186,3.6321657 6.1855209,2.9073425 5.1777344,2.4160156 4.6695577,2.1682682 4.2629148,2.0323852 3.9472656,2.0058594 Z"
       style="fill:#b08458;stroke-width:1.12598431"
       inkscape:connector-curvature="0" />
    <path
       id="path18"
       d="m 4.4298602,3.6162122 c 0.00214,0.1507423 -0.016574,0.206077 0.0041,0.4142478 0.096759,0.9742271 0.4165399,2.5254738 0.9761484,4.6428571 0.6203188,2.3470899 1.0626416,3.4100599 1.8812047,4.6401229 h -0.0014 c 0.5695847,0.855934 0.7199719,1.030469 1.6829674,1.982374 l 0.027341,0.02598 0.024612,0.02871 c 0.4119058,0.4539 0.9174301,0.976895 1.3589513,1.591368 0.719436,-0.807007 1.616025,-1.436397 2.619469,-1.838823 -0.706588,-1.141461 -1.28408,-2.308927 -1.755427,-3.266133 v -0.0014 C 9.2984127,7.8669224 8.9042858,7.2471188 7.3104549,5.7120602 6.2701651,4.7101232 5.4062235,4.0844325 4.5638413,3.6736327 4.4475957,3.6169473 4.5228476,3.6498709 4.4298602,3.6162122 Z m 22.3393068,0.00684 c -0.0625,0.027227 -0.06335,0.016142 -0.133981,0.050585 -0.842383,0.4107998 -1.706324,1.0364906 -2.746614,2.0384276 -1.593831,1.5350587 -1.987958,2.1548623 -3.937405,6.1234852 v 0.0014 c -0.471568,0.957653 -1.04975,2.125533 -1.756794,3.2675 1.003936,0.402242 1.90101,1.031644 2.620835,1.838823 0.441669,-0.614869 0.946832,-1.138615 1.358952,-1.592735 l 0.02461,-0.02871 0.02734,-0.02598 c 0.962995,-0.951905 1.113382,-1.126441 1.682967,-1.982374 h -0.0014 c 0.81853,-1.230065 1.260886,-2.293033 1.881205,-4.6401228 0.559609,-2.1173833 0.879389,-3.6686301 0.976148,-4.6428572 0.02036,-0.204736 0.0018,-0.2581524 0.0041,-0.4074121 z"
       style="opacity:0.3;stroke-width:1.12598431"
       inkscape:connector-curvature="0" />
    <path
       id="path20"
       d="M 3.6615193,2.0152741 C 3.5476857,2.0358683 3.4519198,2.0774498 3.3716825,2.1410523 2.7148953,2.6616769 2.9197003,4.7297372 4.0566269,9.0315117 c 0.6375307,2.4122153 1.1632944,3.6967803 2.0685052,5.0571043 0.5943837,0.893201 0.8816771,1.23204 1.8634315,2.202487 0.8792446,0.968884 1.9883484,2.324276 2.0110845,3.464369 0,0.501094 -0.2475987,0.896272 -0.652133,1.703475 -0.6545823,1.306209 -0.6955376,2.039984 -0.7478333,3.424722 -0.086518,2.291046 0.2496602,3.7053 1.4068022,4.514345 0.6471,0.452436 1.186633,0.594214 2.262641,0.593345 1.222902,0.08412 2.194202,-0.468704 3.330388,-0.671273 1.136187,0.202569 2.107487,0.755394 3.330389,0.671273 1.076007,8.4e-4 1.615541,-0.140909 2.262641,-0.593345 1.157142,-0.809045 1.49332,-2.223299 1.406802,-4.514345 -0.0523,-1.384738 -0.09325,-2.118513 -0.747833,-3.424722 -0.404534,-0.807203 -0.652133,-1.202381 -0.652133,-1.703475 0.02274,-1.140093 1.13184,-2.495485 2.011084,-3.464369 0.981755,-0.970447 1.269048,-1.309286 1.863432,-2.202487 0.90521,-1.360324 1.430974,-2.644889 2.068505,-5.0571043 1.136926,-4.3017745 1.341732,-6.3698348 0.684944,-6.8904594 -0.320949,-0.2544102 -0.902598,-0.1657563 -1.806011,0.2747981 -1.007772,0.4914546 -1.993226,1.2179655 -3.103441,2.2872497 -1.665946,1.6045146 -2.261683,2.5227855 -4.22314,6.5158589 -0.585844,1.189724 -1.304501,2.647607 -2.183347,3.911429 -0.255393,0.175888 -0.911892,0.179098 -0.911892,0.179098 0,0 -0.656498,-0.0032 -0.911891,-0.179098 C 13.808776,13.866566 13.090119,12.408683 12.504275,11.218959 10.542818,7.2258856 9.9470808,6.3076147 8.2811348,4.7031001 7.1709195,3.6338159 6.1854657,2.907305 5.1776937,2.4158504 4.5001345,2.0854346 4.0030199,1.9534916 3.6615193,2.0152741 Z"
       style="fill-opacity:0;stroke-width:1.12598431"
       inkscape:connector-curvature="0" />
    <path
       id="path22"
       d="m 18.384729,26.213342 c 0,1.317892 -1.250278,2.386254 -2.792574,2.386254 -1.542296,0 -2.792575,-1.068362 -2.792574,-2.386254 0,-1.317891 1.250278,-6.013544 2.792574,-6.013544 1.542295,0 2.792574,4.695653 2.792574,6.013544 z"
       style="fill-opacity:0;stroke-width:1.12598431"
       inkscape:connector-curvature="0" />
    <path
       id="path24"
       d="m 15.499999,27 c -1.609616,-0.09879 -2.991843,-1.532882 -2.331057,-2.23963 0.705097,-0.557318 1.590057,-0.766906 2.331057,-0.760215 0.741002,-0.0066 1.625962,0.202897 2.331059,0.760215 0.660786,0.706748 -0.721439,2.140845 -2.331059,2.23963 z"
       style="fill:#bf3667;stroke-width:1.12598431"
       inkscape:connector-curvature="0" />
    <path
       id="path26"
       d="m 12.326116,24.000167 c -0.950824,0 -2.324187,-0.671573 -2.324187,-1.5 0,-0.828427 -0.090014,-1.5 0.86081,-1.5 2.443994,0.253368 2.58243,3 1.463377,3 z"
       style="opacity:0.2;stroke-width:1.12598431"
       inkscape:connector-curvature="0" />
    <path
       id="path28"
       d="m 12.326116,22.99973 c -0.950824,0 -2.324187,-0.671573 -2.324187,-1.5 0,-0.828427 -0.090014,-1.5 0.86081,-1.5 2.443994,0.253368 2.58243,3 1.463377,3 z"
       style="fill:#ffffff;stroke-width:1.12598431"
       inkscape:connector-curvature="0" />
    <circle
       id="circle30"
       r="0.5"
       cy="22.5"
       cx="12.5"
       style="fill:#323232;stroke-width:1.12598431" />
    <path
       id="path32"
       d="m 18.673884,24.000167 c 0.950824,0 2.324187,-0.671573 2.324187,-1.5 0,-0.828427 0.09001,-1.5 -0.86081,-1.5 -2.443994,0.253368 -2.58243,3 -1.463377,3 z"
       style="opacity:0.2;stroke-width:1.12598431"
       inkscape:connector-curvature="0" />
    <path
       id="path34"
       d="m 18.673884,22.99973 c 0.950824,0 2.324187,-0.671573 2.324187,-1.5 0,-0.828427 0.09001,-1.5 -0.86081,-1.5 -2.443994,0.253368 -2.58243,3 -1.463377,3 z"
       style="fill:#ffffff;stroke-width:1.12598431"
       inkscape:connector-curvature="0" />
    <circle
       id="circle36"
       transform="scale(-1,1)"
       r="0.5"
       cy="22.5"
       cx="-18.5"
       style="fill:#323232;stroke-width:1.12598431" />
  </g>
</svg>
