<?xml version="1.0" encoding="UTF-8" standalone="no"?>
<svg
   xmlns:dc="http://purl.org/dc/elements/1.1/"
   xmlns:cc="http://creativecommons.org/ns#"
   xmlns:rdf="http://www.w3.org/1999/02/22-rdf-syntax-ns#"
   xmlns:svg="http://www.w3.org/2000/svg"
   xmlns="http://www.w3.org/2000/svg"
   xmlns:sodipodi="http://sodipodi.sourceforge.net/DTD/sodipodi-0.dtd"
   xmlns:inkscape="http://www.inkscape.org/namespaces/inkscape"
   height="32"
   width="32"
   version="1"
   id="svg19"
   sodipodi:docname="marsshooter.svg"
   inkscape:version="0.92.1 r">
  <metadata
     id="metadata23">
    <rdf:RDF>
      <cc:Work
         rdf:about="">
        <dc:format>image/svg+xml</dc:format>
        <dc:type
           rdf:resource="http://purl.org/dc/dcmitype/StillImage" />
      </cc:Work>
    </rdf:RDF>
  </metadata>
  <sodipodi:namedview
     pagecolor="#ffffff"
     bordercolor="#666666"
     borderopacity="1"
     objecttolerance="10"
     gridtolerance="10"
     guidetolerance="10"
     inkscape:pageopacity="0"
     inkscape:pageshadow="2"
     inkscape:window-width="1680"
     inkscape:window-height="963"
     id="namedview21"
     showgrid="false"
     inkscape:zoom="7.375"
     inkscape:cx="16"
     inkscape:cy="-5.6949153"
     inkscape:window-x="0"
     inkscape:window-y="0"
     inkscape:window-maximized="1"
     inkscape:current-layer="svg19" />
  <defs
     id="defs5">
    <clipPath
       id="clipPath4186"
       clipPathUnits="userSpaceOnUse">
      <circle
         cx="286"
         cy="26"
         r="10"
         fill="url(#linearGradient4190)"
         id="circle2" />
    </clipPath>
  </defs>
  <rect
     style="opacity:1;fill:#c23f2c;fill-opacity:1;fill-rule:evenodd;stroke:none;stroke-width:1.03534329;stroke-linecap:round;stroke-linejoin:bevel;stroke-miterlimit:4;stroke-dasharray:none;stroke-dashoffset:0;stroke-opacity:1"
     id="rect4497-3"
     width="28.203388"
     height="28.203388"
     x="1.8983059"
     y="1.8983059"
     ry="5.575182" />
  <path
     d="m 14.936265,4.7893153 a 11.352329,11.352329 0 0 0 -4.108583,1.1917326 c 0.05713,0.1816547 -0.0095,0.3866254 -0.218401,0.5676164 -0.141336,0.1224742 -0.2572,0.3132545 -0.2572,0.4246033 0,0.3403865 0.307814,0.8630739 0.553208,0.9390123 0.326659,0.1010794 0.216733,0.4493339 -0.202875,0.6418956 -0.19395,0.089247 -0.432699,0.3453728 -0.530678,0.5698869 -0.09798,0.2245141 -0.242503,0.4461465 -0.3203975,0.4922545 -0.077912,0.046084 -0.1419041,0.2216149 -0.1419041,0.3902411 0,0.235464 0.1074891,0.349616 0.4611836,0.491119 0.253297,0.101332 0.556326,0.175157 0.674049,0.164076 0.675761,-0.0636 0.723126,0.330047 0.131923,1.099779 -0.313866,0.408649 -0.464764,0.51144 -0.678476,0.460084 -0.199469,-0.04794 -0.3084867,0.0085 -0.3991044,0.206202 -0.095796,0.209014 -0.2523012,0.280201 -0.6729399,0.309307 -0.4134606,0.02862 -0.5987742,0.112606 -0.7538645,0.339243 -0.1130605,0.16522 -0.2765689,0.299325 -0.3636326,0.299325 -0.087064,0 -0.2915627,0.11079 -0.4545385,0.246119 -0.3317587,0.275495 -0.4612975,0.303221 -0.5775977,0.123059 -0.1536931,-0.238399 -0.4853558,-0.117889 -0.9789201,0.354542 -0.4364534,0.41829 -0.4893727,0.530067 -0.4235292,0.892468 0.1171473,0.645441 0.4672182,1.218192 0.8669424,1.417906 0.3488047,0.17431 0.3555899,0.193112 0.1441222,0.41684 -0.121662,0.128727 -0.3303615,0.266657 -0.463402,0.307089 -0.3842589,0.116772 -0.1679796,0.263234 0.5177273,0.350324 0.7017748,0.08912 0.9198879,0.343784 0.5920065,0.690676 -0.1828511,0.193452 -0.1725554,0.229457 0.1208411,0.413522 0.57338,0.360654 1.0292196,0.139721 0.4912066,-0.236653 -0.3458967,-0.241892 -0.1040921,-0.34057 0.4035316,-0.165045 0.4044748,0.140035 0.4844912,0.132071 0.7239293,-0.07539 0.490735,-0.425224 1.0241549,0.203695 0.5753797,0.678476 -0.2856159,0.302173 -0.19905,0.666897 0.1707303,0.717284 0.1633775,0.02227 0.5028469,0.174319 0.7549739,0.338133 0.252117,0.163814 0.526818,0.298217 0.609742,0.298217 0.08292,0 0.316835,0.166181 0.519945,0.369178 0.412125,0.411862 0.640927,0.464162 0.757192,0.174057 0.1398,-0.348822 0.08356,-0.528555 -0.292681,-0.939012 -0.299544,-0.326799 -0.786017,-1.195488 -0.786017,-1.403497 0,-0.128648 0.494725,-0.01957 0.7716,0.169621 0.17328,0.118414 0.453657,0.271094 0.623051,0.340352 0.180825,0.0739 0.367981,0.303194 0.453429,0.554308 0.133923,0.393533 0.186694,0.42793 0.658523,0.42793 h 0.513291 l 0.07761,0.922333 c 0.09339,1.109472 0.182345,1.334161 0.56318,1.425678 0.280543,0.06742 0.579807,0.50179 0.579807,0.841452 0,0.09029 -0.201835,0.311429 -0.447884,0.491119 -0.305482,0.223091 -0.437169,0.412736 -0.41684,0.598661 0.02536,0.232138 -0.02718,0.268317 -0.355869,0.2439 -0.212009,-0.01577 -0.579397,0.05854 -0.815953,0.165186 -0.279529,0.126002 -0.582776,0.166346 -0.866943,0.115296 -0.32699,-0.05875 -0.437903,-0.03594 -0.437903,0.09201 0,0.09408 -0.114204,0.270316 -0.253873,0.391341 -0.345416,0.299308 -0.202691,0.457673 0.327043,0.362523 0.329253,-0.05914 0.4577,-0.03285 0.514401,0.108651 0.120876,0.301605 -0.185506,0.733098 -0.470057,0.661849 -0.180109,-0.04507 -0.266727,0.01632 -0.322607,0.229483 -0.01979,0.07549 -0.05513,0.139442 -0.09756,0.194011 a 11.352329,11.352329 0 0 0 1.795939,0.531027 c -0.05667,-0.108851 -0.121069,-0.207136 -0.18403,-0.251655 -0.292559,-0.206865 -0.09685,-0.743533 0.30598,-0.840334 0.410064,-0.09854 0.345469,-0.364768 -0.100887,-0.415731 -0.39066,-0.04461 -0.807116,-0.440296 -0.676259,-0.643005 0.08774,-0.135922 0.461892,-0.116108 1.218367,0.06319 0.341609,0.08098 0.575424,-0.08146 1.366908,-0.947832 0.458311,-0.501685 0.810478,-0.710629 1.197321,-0.710629 0.147319,0 0.673394,-0.135547 1.16964,-0.301545 0.936829,-0.313394 1.30281,-0.302076 1.268229,0.03991 -0.07178,0.711599 0.386678,0.688109 1.13305,-0.05765 0.311063,-0.310827 0.595011,-0.535324 0.631914,-0.499992 0.142778,0.1367 -0.114003,0.802628 -0.413521,1.07201 -0.379578,0.341425 -0.398406,0.557154 -0.0643,0.728365 0.183052,0.0938 0.260693,0.284358 0.289353,0.711739 l 0.0388,0.583134 h 0.474492 c 0.166452,0 0.304199,0.02283 0.415732,0.06541 a 11.352329,11.352329 0 0 0 5.499854,-9.369165 c -0.173674,-0.37109 -0.161186,-0.595447 0,-0.848097 a 11.352329,11.352329 0 0 0 -0.051,-0.636351 c -0.103515,-0.0047 -0.2089,-0.0095 -0.33037,-0.0045 -0.571913,0.02381 -1.062054,-0.20167 -1.062054,-0.488901 0,-0.06053 -0.202875,-0.310591 -0.451211,-0.555426 -0.281294,-0.277311 -0.42587,-0.522103 -0.383587,-0.64965 0.03834,-0.115689 -0.04448,-0.302339 -0.190684,-0.42904 -0.142341,-0.123338 -0.259418,-0.322118 -0.259418,-0.44123 0,-0.190186 -0.121051,-0.214079 -0.995512,-0.192902 l -0.995512,0.02439 0.01663,0.981103 c 0.02955,1.718743 0.285485,2.164889 1.075327,1.876889 0.361546,-0.1318 1.249804,-0.032 1.502175,0.168513 0.09133,0.07259 0.223633,0.335906 0.29379,0.585352 0.07017,0.249445 0.330335,0.68114 0.578707,0.958922 0.503222,0.562901 0.542292,0.782508 0.253873,1.443405 -0.251629,0.576611 -0.522557,0.510139 -0.468947,-0.115296 l 0.03991,-0.46562 -0.425712,0.07982 c -0.235543,0.04438 -0.530782,0.21861 -0.662959,0.39024 -0.188413,0.244652 -0.276717,0.280735 -0.417949,0.168512 -0.0984,-0.0782 -0.178493,-0.243359 -0.178493,-0.365841 0,-0.122483 -0.12161,-0.258851 -0.2694,-0.303763 -0.147789,-0.04491 -0.350376,-0.268142 -0.450102,-0.496664 -0.159526,-0.365545 -0.155553,-0.477322 0.02993,-0.921285 0.188205,-0.450356 0.190056,-0.524652 0.01663,-0.690676 -0.159037,-0.15227 -0.241018,-0.157186 -0.450102,-0.03215 -0.210202,0.125688 -0.30908,0.116414 -0.558744,-0.051 -0.166871,-0.111908 -0.457613,-0.203984 -0.646332,-0.203984 -0.38315,0 -0.498882,-0.186414 -0.498882,-0.802645 0,-0.569214 -0.339549,-0.776089 -1.147459,-0.701757 -0.56105,0.05162 -0.684703,0.01466 -1.137416,-0.333697 -0.279416,-0.215005 -0.720986,-0.732942 -0.982238,-1.151912 -0.26127,-0.418928 -0.542354,-0.856613 -0.62416,-0.972285 -0.118274,-0.167228 -0.08952,-0.327733 0.141904,-0.783799 l 0.291571,-0.5731618 -0.616396,0.083147 c -1.096897,0.1483398 -1.318704,0.2904978 -0.846989,0.5432268 0.183707,0.09843 0.191732,0.149003 0.04989,0.312634 -0.09291,0.107183 -0.136629,0.276665 -0.09645,0.376932 0.04021,0.100267 -0.01058,0.336213 -0.113078,0.524383 -0.102511,0.188169 -0.18837,0.452241 -0.191793,0.58757 -0.01075,0.423285 -0.735255,0.759593 -1.542083,0.715066 -1.222733,-0.06748 -1.321847,-0.04819 -1.75603,0.35476 -0.542746,0.503668 -0.612886,0.73853 -0.360306,1.206141 0.245079,0.45377 0.679428,0.634866 1.432315,0.597552 0.673315,-0.0334 0.749463,0.02603 0.595333,0.471165 -0.13084,0.377841 -0.570559,0.523526 -0.868051,0.287135 -0.22937,-0.182266 -1.020138,-0.04141 -1.262728,0.225056 -0.1017,0.111707 -0.252607,0.404283 -0.334807,0.64965 -0.141904,0.423582 -0.18327,0.449325 -0.819271,0.511073 -0.634499,0.06162 -0.695453,0.04129 -1.151825,-0.37915 -0.5094662,-0.469323 -0.5957614,-0.827576 -0.350324,-1.445675 0.1086505,-0.273609 0.1896974,-0.318101 0.480038,-0.264964 0.57558,0.10535 0.802644,-0.09476 0.802644,-0.70952 0,-0.298113 -0.05793,-0.576795 -0.128604,-0.618615 -0.07065,-0.04182 -0.128605,-0.199801 -0.128605,-0.351433 0,-0.151632 -0.0724,-0.346613 -0.160749,-0.432367 -0.128753,-0.12498 -0.110143,-0.191845 0.09534,-0.337024 0.140996,-0.09961 0.372715,-0.166679 0.514401,-0.149668 0.141694,0.01702 0.532441,-0.04417 0.86916,-0.135249 0.486526,-0.1316 0.629391,-0.230924 0.695112,-0.486683 0.124858,-0.485915 0.429651,-0.87579 0.68513,-0.87579 0.403707,0 0.411968,-0.949142 0.01995,-2.3292356 C 13.398094,8.6286249 13.239162,8.4987717 12.9571,8.4289112 12.72918,8.3723242 12.481175,8.2167973 12.406075,8.0830145 12.331849,7.9492316 12.194747,7.8402493 12.102182,7.8402493 c -0.09257,0 -0.273408,-0.11079 -0.401322,-0.2461185 -0.128753,-0.1362192 -0.395166,-0.2461185 -0.597552,-0.2461185 -0.479592,0 -0.487547,-0.3302655 -0.01219,-0.5044276 0.502506,-0.1840999 1.284297,0.057217 1.473357,0.4545385 0.256353,0.5387029 0.54045,0.3139093 0.631915,-0.4999915 0.11313,-1.0066896 0.460188,-1.2959994 1.555443,-1.2959994 H 15.53896 L 15.194181,5.1573534 C 15.086771,5.0497682 14.997699,4.9182559 14.935697,4.7892759 Z m 4.080813,0.3569784 c -0.02186,0.019991 -0.0434,0.036283 -0.06541,0.058757 -0.263217,0.2687795 -0.386617,0.307098 -0.793772,0.2450095 -0.71063,-0.1083711 -0.619174,0.1777687 0.167403,0.5232725 0.425363,0.1868418 0.698579,0.3998115 0.791554,0.6152875 0.448601,1.0396113 0.757235,1.5992811 0.912378,1.6563048 0.313569,0.1152086 0.500254,-0.1161955 0.569835,-0.7073025 0.07985,-0.6782144 0.309499,-0.821996 0.721711,-0.4512114 0.159963,0.1438864 0.383324,0.2616362 0.496664,0.2616362 0.352106,0 0.61307,0.1414675 0.61307,0.3325883 0,0.1007301 0.118815,0.3433818 0.264963,0.5398993 0.214882,0.2889342 0.360969,0.3580874 0.762737,0.3580874 0.493075,0 0.795781,0.092251 1.413539,0.4334756 0.0096,0.00528 0.0192,0.00713 0.02883,0.012192 A 11.352329,11.352329 0 0 0 19.018327,5.1461601 Z M 4.6590016,16.031431 a 11.352329,11.352329 0 0 0 -0.00218,0.0489 11.352329,11.352329 0 0 0 0.2217198,2.180521 c 0.4112774,0.16756 0.5249142,0.101158 0.5676164,-0.28159 C 5.4681988,17.781487 5.571636,17.55685 5.6767498,17.47927 5.8390881,17.359634 5.809834,17.298506 5.4772108,17.07146 5.2618658,16.924753 5.0495773,16.668015 5.0060018,16.501223 4.9637358,16.340544 4.8209588,16.164147 4.6589698,16.031412 Z m 3.5731018,3.752731 c -0.105891,-0.01113 -0.2339278,0.04597 -0.3758232,0.181812 -0.3002167,0.287441 -0.254886,0.864934 0.085361,1.093142 0.3896905,0.261348 0.5405455,0.185226 0.5897884,-0.297108 0.060796,-0.595133 -0.066359,-0.953334 -0.299326,-0.977785 z m 1.9267526,1.716123 c -0.115943,0.0038 -0.2436563,0.08702 -0.3713874,0.261636 -0.1355556,0.185296 -0.1727912,0.424254 -0.1208412,0.787127 0.06387,0.445954 0.035996,0.541174 -0.1973384,0.66074 -0.2997888,0.153615 -0.3639208,0.609908 -0.1186231,0.844771 0.2443196,0.233927 0.4770074,0.172808 0.5609622,-0.14745 0.1195749,-0.456136 0.7872139,-0.509955 1.2438659,-0.09978 0.194334,0.174564 0.353651,0.263278 0.353651,0.196229 0,-0.06702 -0.202752,-0.310363 -0.450102,-0.539899 -0.378853,-0.351581 -0.448993,-0.501668 -0.448993,-0.954556 0,-0.639485 -0.196142,-1.016907 -0.451212,-1.008873 z M 6.9948742,22.96587 a 11.352329,11.352329 0 0 0 0.2627453,0.33148 C 7.180249,23.178587 7.0918755,23.063317 6.9948568,22.966385 Z m 3.8259098,1.742757 c -0.05777,0.01982 -0.08203,0.09183 -0.08203,0.218402 0,0.128089 -0.08192,0.262632 -0.181812,0.299326 -0.132639,0.0487 -0.163404,0.202648 -0.111969,0.569834 0.0096,0.0688 0.01216,0.123872 0.01552,0.180703 a 11.352329,11.352329 0 0 0 0.472274,0.242792 c -0.0078,-0.196352 0.02808,-0.427547 0.130814,-0.717284 0.174215,-0.491329 0.180441,-0.614685 0.0388,-0.700649 -0.133276,-0.08089 -0.223816,-0.112938 -0.28159,-0.09312 z"
     id="path9"
     inkscape:connector-curvature="0"
     style="opacity:1;fill:#f24f37;fill-opacity:1;stroke-width:0.87325609" />
</svg>
