<?xml version="1.0" encoding="UTF-8" standalone="no"?>
<svg
   xmlns:dc="http://purl.org/dc/elements/1.1/"
   xmlns:cc="http://creativecommons.org/ns#"
   xmlns:rdf="http://www.w3.org/1999/02/22-rdf-syntax-ns#"
   xmlns:svg="http://www.w3.org/2000/svg"
   xmlns="http://www.w3.org/2000/svg"
   xmlns:sodipodi="http://sodipodi.sourceforge.net/DTD/sodipodi-0.dtd"
   xmlns:inkscape="http://www.inkscape.org/namespaces/inkscape"
   width="32"
   height="32"
   version="1"
   id="svg20"
   sodipodi:docname="mate-inhibit-applet.svg"
   inkscape:version="0.92.1 r">
  <metadata
     id="metadata26">
    <rdf:RDF>
      <cc:Work
         rdf:about="">
        <dc:format>image/svg+xml</dc:format>
        <dc:type
           rdf:resource="http://purl.org/dc/dcmitype/StillImage" />
      </cc:Work>
    </rdf:RDF>
  </metadata>
  <defs
     id="defs24" />
  <sodipodi:namedview
     pagecolor="#ffffff"
     bordercolor="#666666"
     borderopacity="1"
     objecttolerance="10"
     gridtolerance="10"
     guidetolerance="10"
     inkscape:pageopacity="0"
     inkscape:pageshadow="2"
     inkscape:window-width="640"
     inkscape:window-height="480"
     id="namedview22"
     showgrid="false"
     inkscape:zoom="25.279067"
     inkscape:cx="8.0357966"
     inkscape:cy="9.343622"
     inkscape:current-layer="svg20" />
  <rect
     style="opacity:1;fill:#8e8e8e;fill-opacity:1;fill-rule:evenodd;stroke:none;stroke-width:1.03534329;stroke-linecap:round;stroke-linejoin:bevel;stroke-miterlimit:4;stroke-dasharray:none;stroke-dashoffset:0;stroke-opacity:1"
     id="rect4497-3-3"
     width="28.203388"
     height="28.203388"
     x="1.8983059"
     y="1.8983059"
     ry="5.575182" />
  <rect
     style="opacity:1;fill:#474747;fill-opacity:1;fill-rule:nonzero;stroke:none;stroke-width:10.04598427;stroke-linecap:round;stroke-linejoin:bevel;stroke-miterlimit:4;stroke-dasharray:none;stroke-dashoffset:0;stroke-opacity:1"
     id="rect4493"
     width="20.895578"
     height="15.641833"
     x="5.5522108"
     y="8.1790829"
     ry="3.3625257"
     rx="3.3625257" />
  <rect
     style="opacity:1;fill:#232323;fill-opacity:1;fill-rule:nonzero;stroke:none;stroke-width:10.04598427;stroke-linecap:round;stroke-linejoin:bevel;stroke-miterlimit:4;stroke-dasharray:none;stroke-dashoffset:0;stroke-opacity:1"
     id="rect4493-3"
     width="19.017578"
     height="13.662251"
     x="6.4912109"
     y="9.1688747"
     ry="2.4445295"
     rx="2.5471909" />
  <g
     id="g4525"
     transform="matrix(0.75,0,0,0.75,4.3244897,5.0688669)"
     style="stroke-width:1.33333337">
    <circle
       id="circle14"
       r="8"
       cy="23"
       cx="24"
       style="fill:#3593cd;fill-rule:evenodd;stroke-width:1.77777779" />
    <path
       id="path16"
       d="m 24,19.75 c -0.96927,0.0095 -1.945,0.2309 -2.7893,0.70939 -0.33651,0.21919 -0.74047,0.50229 -1.0449,0.78752 -0.479,0.469 -0.889,1.016 -1.166,1.629 0.75934,1.6751 2.4287,2.9028 4.2651,3.0842 1.2046,0.13636 2.4653,-0.07179 3.5242,-0.66786 0.3365,-0.21919 0.74047,-0.50229 1.0449,-0.78752 0.479,-0.47 0.889,-1.017 1.166,-1.629 -0.759,-1.675 -2.429,-2.903 -4.265,-3.084 -0.244,-0.029 -0.49,-0.042 -0.735,-0.042 z m 0,1.2503 c 1.0044,-0.02225 1.8939,0.87633 1.875,1.8754 0.03219,1.1042 -1.0681,2.0572 -2.1558,1.851 -1.0985,-0.12898 -1.8701,-1.3614 -1.5088,-2.4053 0.231,-0.768 0.985,-1.33 1.79,-1.321 z m 0,1.2503 a 0.625,0.62514 0 0 0 -0.625,0.626 0.625,0.62514 0 0 0 0.625,0.625 0.625,0.62514 0 0 0 0.625,-0.625 A 0.625,0.62514 0 0 0 24,22.2526 Z"
       inkscape:connector-curvature="0"
       style="fill:#ffffff;fill-rule:evenodd;stroke-width:1.77777779" />
  </g>
</svg>
