<?xml version="1.0" encoding="UTF-8" standalone="no"?>
<svg
   xmlns:dc="http://purl.org/dc/elements/1.1/"
   xmlns:cc="http://creativecommons.org/ns#"
   xmlns:rdf="http://www.w3.org/1999/02/22-rdf-syntax-ns#"
   xmlns:svg="http://www.w3.org/2000/svg"
   xmlns="http://www.w3.org/2000/svg"
   xmlns:sodipodi="http://sodipodi.sourceforge.net/DTD/sodipodi-0.dtd"
   xmlns:inkscape="http://www.inkscape.org/namespaces/inkscape"
   height="32"
   width="32"
   version="1"
   id="svg16"
   sodipodi:docname="quadrapassel.svg"
   inkscape:version="0.92.1 r">
  <metadata
     id="metadata22">
    <rdf:RDF>
      <cc:Work
         rdf:about="">
        <dc:format>image/svg+xml</dc:format>
        <dc:type
           rdf:resource="http://purl.org/dc/dcmitype/StillImage" />
      </cc:Work>
    </rdf:RDF>
  </metadata>
  <defs
     id="defs20" />
  <sodipodi:namedview
     pagecolor="#ffffff"
     bordercolor="#666666"
     borderopacity="1"
     objecttolerance="10"
     gridtolerance="10"
     guidetolerance="10"
     inkscape:pageopacity="0"
     inkscape:pageshadow="2"
     inkscape:window-width="640"
     inkscape:window-height="480"
     id="namedview18"
     showgrid="false"
     inkscape:zoom="6.7175144"
     inkscape:cx="-18.724595"
     inkscape:cy="34.739638"
     inkscape:current-layer="svg16" />
  <rect
     style="opacity:1;fill:#782946;fill-opacity:1;fill-rule:evenodd;stroke:none;stroke-width:1.03534329;stroke-linecap:round;stroke-linejoin:bevel;stroke-miterlimit:4;stroke-dasharray:none;stroke-dashoffset:0;stroke-opacity:1"
     id="rect4497-3-6"
     width="28.203388"
     height="28.203388"
     x="1.8983059"
     y="1.8983059"
     ry="5.575182"
     inkscape:export-filename="/home/ramil/3.png"
     inkscape:export-xdpi="71"
     inkscape:export-ydpi="71" />
  <polygon
     points="713 603 688.5 578 676.5 569.5 693.5 560.5 693.5 540 732.5 497.5 664 430.5 588 333 517.5 214 500 192 386 355 328 328 304 332.5 299.5 366 318.5 403.5 338 431 309.5 462 275.5 507 300 533 304 551 318.5 569.5 340.5 583 351.5 604.5 373.5 617 395 637.5 452.5 723 488.5 788.5 502 812.5 551.5 721.5 612.5 637 628.5 616 668 619.5 707 615"
     fill="#5a0e00"
     transform="matrix(.063142 0 0 .063142 -131 -24.03)"
     display="none"
     id="polygon2" />
  <g
     id="g4566"
     transform="translate(40.210937,1.6835936)">
    <path
       id="path4547"
       d="m -38.3125,17.574219 c 0,0.30055 0.122013,0.571231 0.318359,0.767578 0.196347,0.196347 0.467028,0.318359 0.767579,0.318359 h 6.509765 c 0.300551,0 0.57172,-0.122012 0.767578,-0.318359 0.195859,-0.196347 0.316407,-0.467028 0.316407,-0.767578 v -6.509766 c 0,-0.30055 -0.120548,-0.571231 -0.316407,-0.767578 -0.195858,-0.196347 -0.467027,-0.3183594 -0.767578,-0.3183594 h -6.509765 c -0.300551,0 -0.571232,0.1220124 -0.767579,0.3183594 -0.196346,0.196347 -0.318359,0.467028 -0.318359,0.767578 z"
       style="opacity:1;fill:#f84e4e;fill-opacity:1;fill-rule:evenodd;stroke:none;stroke-width:1.03534329;stroke-linecap:round;stroke-linejoin:bevel;stroke-miterlimit:4;stroke-dasharray:none;stroke-dashoffset:0;stroke-opacity:1"
       inkscape:connector-curvature="0" />
    <path
       id="path4545"
       d="m -30.703125,28.417969 c 0.294112,-0.0042 0.561556,-0.118197 0.753906,-0.310547 0.195859,-0.195859 0.316407,-0.467028 0.316407,-0.767578 v -6.509766 c 0,-0.30055 -0.120548,-0.571231 -0.316407,-0.767578 -0.195858,-0.196347 -0.467027,-0.318359 -0.767578,-0.318359 h -6.509765 c -0.300551,0 -0.571232,0.122012 -0.767579,0.318359 -0.196346,0.196347 -0.318359,0.467028 -0.318359,0.767578 v 2.011719 c 0,3.088651 2.487521,5.576172 5.576172,5.576172 z"
       style="opacity:1;fill:#f84e4e;fill-opacity:1;fill-rule:evenodd;stroke:none;stroke-width:1.03534329;stroke-linecap:round;stroke-linejoin:bevel;stroke-miterlimit:4;stroke-dasharray:none;stroke-dashoffset:0;stroke-opacity:1"
       inkscape:connector-curvature="0" />
    <path
       id="path4543"
       d="m -20.9375,28.417969 c 0.294112,-0.0042 0.561557,-0.118197 0.753906,-0.310547 0.195859,-0.195859 0.316406,-0.467028 0.316406,-0.767578 v -6.509766 c 0,-0.30055 -0.120547,-0.571231 -0.316406,-0.767578 -0.195858,-0.196347 -0.467027,-0.318359 -0.767578,-0.318359 h -6.511719 c -0.30055,0 -0.571719,0.122012 -0.767578,0.318359 -0.195858,0.196347 -0.316406,0.467028 -0.316406,0.767578 v 6.509766 c 0,0.30055 0.120548,0.571719 0.316406,0.767578 0.19235,0.19235 0.459794,0.306313 0.753907,0.310547 z"
       style="opacity:1;fill:#f84e4e;fill-opacity:1;fill-rule:evenodd;stroke:none;stroke-width:1.03534329;stroke-linecap:round;stroke-linejoin:bevel;stroke-miterlimit:4;stroke-dasharray:none;stroke-dashoffset:0;stroke-opacity:1"
       inkscape:connector-curvature="0" />
    <path
       id="path4541"
       d="m -30.716797,0.21484375 c 0.300551,0 0.57172,0.12054781 0.767578,0.31640625 0.195859,0.19585844 0.316407,0.46702755 0.316407,0.7675781 v 6.5097657 c 0,0.3005505 -0.120548,0.5712314 -0.316407,0.7675781 -0.195858,0.1963467 -0.467027,0.3183593 -0.767578,0.3183593 h -6.509765 c -0.300551,0 -0.571232,-0.1220126 -0.767579,-0.3183593 C -38.190487,8.3798252 -38.3125,8.1091443 -38.3125,7.8085938 v 3.2558592 c 0,-0.30055 0.122013,-0.571231 0.318359,-0.767578 0.196347,-0.196347 0.467028,-0.3183594 0.767579,-0.3183594 h 6.509765 c 0.300551,0 0.57172,0.1220124 0.767578,0.3183594 0.195859,0.196347 0.316407,0.467028 0.316407,0.767578 v 6.509766 c 0,0.30055 -0.120548,0.571231 -0.316407,0.767578 -0.195858,0.196347 -0.467027,0.318359 -0.767578,0.318359 h -6.509765 c -0.300551,0 -0.571232,-0.122012 -0.767579,-0.318359 -0.196346,-0.196347 -0.318359,-0.467028 -0.318359,-0.767578 v 3.255859 c 0,-0.30055 0.122013,-0.571231 0.318359,-0.767578 0.196347,-0.196347 0.467028,-0.318359 0.767579,-0.318359 h 6.509765 c 0.300551,0 0.57172,0.122012 0.767578,0.318359 0.195859,0.196347 0.316407,0.467028 0.316407,0.767578 v 6.509766 c 0,0.30055 -0.120548,0.571719 -0.316407,0.767578 -0.19235,0.19235 -0.459794,0.306313 -0.753906,0.310547 h 3.226563 c -0.294113,-0.0042 -0.561557,-0.118197 -0.753907,-0.310547 -0.195858,-0.195859 -0.316406,-0.467028 -0.316406,-0.767578 v -6.509766 c 0,-0.30055 0.120548,-0.571231 0.316406,-0.767578 0.195859,-0.196347 0.467028,-0.318359 0.767578,-0.318359 h 6.511719 c 0.300551,0 0.57172,0.122012 0.767578,0.318359 0.195859,0.196347 0.316406,0.467028 0.316406,0.767578 v 6.509766 c 0,0.30055 -0.120547,0.571719 -0.316406,0.767578 -0.192349,0.19235 -0.459794,0.306313 -0.753906,0.310547 h 5.253906 c 3.088651,0 5.574219,-2.487521 5.574219,-5.576172 V 5.7890625 c 0,-3.0886508 -2.485568,-5.57421875 -5.574219,-5.57421875 z"
       style="opacity:1;fill:#782946;fill-opacity:1;fill-rule:evenodd;stroke:none;stroke-width:1.03534329;stroke-linecap:round;stroke-linejoin:bevel;stroke-miterlimit:4;stroke-dasharray:none;stroke-dashoffset:0;stroke-opacity:1"
       inkscape:connector-curvature="0" />
    <path
       id="rect4497-3"
       d="m -38.3125,5.7890625 v 2.0195313 c 0,0.3005505 0.122013,0.5712314 0.318359,0.7675781 0.196347,0.1963467 0.467028,0.3183593 0.767579,0.3183593 h 6.509765 c 0.300551,0 0.57172,-0.1220126 0.767578,-0.3183593 0.195859,-0.1963467 0.316407,-0.4670276 0.316407,-0.7675781 V 1.2988281 c 0,-0.30055055 -0.120548,-0.57171966 -0.316407,-0.7675781 -0.195858,-0.19585844 -0.467027,-0.31640625 -0.767578,-0.31640625 h -2.019531 c -3.088651,0 -5.576172,2.48556795 -5.576172,5.57421875 z"
       style="opacity:1;fill:#f84e4e;fill-opacity:1;fill-rule:evenodd;stroke:none;stroke-width:1.03534329;stroke-linecap:round;stroke-linejoin:bevel;stroke-miterlimit:4;stroke-dasharray:none;stroke-dashoffset:0;stroke-opacity:1"
       inkscape:connector-curvature="0" />
  </g>
</svg>
