<?xml version="1.0" encoding="UTF-8" standalone="no"?>
<svg
   xmlns:dc="http://purl.org/dc/elements/1.1/"
   xmlns:cc="http://creativecommons.org/ns#"
   xmlns:rdf="http://www.w3.org/1999/02/22-rdf-syntax-ns#"
   xmlns:svg="http://www.w3.org/2000/svg"
   xmlns="http://www.w3.org/2000/svg"
   xmlns:sodipodi="http://sodipodi.sourceforge.net/DTD/sodipodi-0.dtd"
   xmlns:inkscape="http://www.inkscape.org/namespaces/inkscape"
   height="32"
   width="32"
   version="1"
   id="svg18"
   sodipodi:docname="radeon-profile.svg"
   inkscape:version="0.92.1 r">
  <metadata
     id="metadata24">
    <rdf:RDF>
      <cc:Work
         rdf:about="">
        <dc:format>image/svg+xml</dc:format>
        <dc:type
           rdf:resource="http://purl.org/dc/dcmitype/StillImage" />
      </cc:Work>
    </rdf:RDF>
  </metadata>
  <defs
     id="defs22" />
  <sodipodi:namedview
     pagecolor="#ffffff"
     bordercolor="#666666"
     borderopacity="1"
     objecttolerance="10"
     gridtolerance="10"
     guidetolerance="10"
     inkscape:pageopacity="0"
     inkscape:pageshadow="2"
     inkscape:window-width="640"
     inkscape:window-height="480"
     id="namedview20"
     showgrid="false"
     inkscape:zoom="8.9375"
     inkscape:cx="-5.3706294"
     inkscape:cy="16"
     inkscape:current-layer="svg18" />
  <rect
     style="opacity:1;fill:#c2352a;fill-opacity:1;fill-rule:evenodd;stroke:none;stroke-width:1.03534329;stroke-linecap:round;stroke-linejoin:bevel;stroke-miterlimit:4;stroke-dasharray:none;stroke-dashoffset:0;stroke-opacity:1"
     id="rect4497-6"
     width="28.203388"
     height="28.203388"
     x="1.8983059"
     y="1.8983059"
     ry="5.575182" />
  <path
     d="M 7.0938,7.0313998 12,11.9687 h 8 v 7.9688 l 5,4.9688 V 7.0312998 Z M 12,13.1247 7,17.9997 v 6.969 h 7.375 l 4.937,-5 H 12 Z"
     style="fill:#ffffff;enable-background:new"
     id="path8"
     inkscape:connector-curvature="0" />
  <g
     id="g4513"
     transform="translate(45.515734,0.677134)">
    <circle
       id="circle12"
       r="6"
       cy="21.409897"
       cx="-23.292501"
       style="fill:#8561c5;fill-rule:evenodd;stroke-width:1;enable-background:new" />
    <path
       inkscape:connector-curvature="0"
       id="path14"
       style="fill:#ffffff;stroke-width:1;enable-background:new"
       d="m -24.042501,18.409896 -0.06615,0.7902 a 2.357175,2.357175 0 0 0 -0.68889,0.398445 l -0.718193,-0.338175 -0.75,1.299075 0.652058,0.45285 a 2.357175,2.357175 0 0 0 -0.036,0.397597 2.357175,2.357175 0 0 0 0.03428,0.399278 l -0.650393,0.45117 0.75,1.299075 0.71652,-0.337335 a 2.357175,2.357175 0 0 0 0.690563,0.395925 l 0.06615,0.79185 h 1.5 l 0.06615,-0.7902 a 2.357175,2.357175 0 0 0 0.688905,-0.398445 l 0.718185,0.338175 0.75,-1.299075 -0.652065,-0.45285 a 2.357175,2.357175 0 0 0 0.036,-0.397598 2.357175,2.357175 0 0 0 -0.03428,-0.399277 l 0.650392,-0.45117 -0.75,-1.299075 -0.71652,0.337335 a 2.357175,2.357175 0 0 0 -0.69075,-0.396 l -0.066,-0.792 h -1.5 z m 0.75,2.1429 a 0.857175,0.857175 0 0 1 0.85725,0.85725 0.857175,0.857175 0 0 1 -0.85725,0.85725 0.857175,0.857175 0 0 1 -0.85725,-0.85725 0.857175,0.857175 0 0 1 0.85725,-0.85725 z" />
  </g>
</svg>
