<?xml version="1.0" encoding="UTF-8" standalone="no"?>
<svg
   xmlns:dc="http://purl.org/dc/elements/1.1/"
   xmlns:cc="http://creativecommons.org/ns#"
   xmlns:rdf="http://www.w3.org/1999/02/22-rdf-syntax-ns#"
   xmlns:svg="http://www.w3.org/2000/svg"
   xmlns="http://www.w3.org/2000/svg"
   xmlns:sodipodi="http://sodipodi.sourceforge.net/DTD/sodipodi-0.dtd"
   xmlns:inkscape="http://www.inkscape.org/namespaces/inkscape"
   height="32"
   width="32"
   version="1"
   id="svg21"
   sodipodi:docname="scribus.svg"
   inkscape:version="0.92.1 r">
  <metadata
     id="metadata25">
    <rdf:RDF>
      <cc:Work
         rdf:about="">
        <dc:format>image/svg+xml</dc:format>
        <dc:type
           rdf:resource="http://purl.org/dc/dcmitype/StillImage" />
      </cc:Work>
    </rdf:RDF>
  </metadata>
  <sodipodi:namedview
     pagecolor="#ffffff"
     bordercolor="#666666"
     borderopacity="1"
     objecttolerance="10"
     gridtolerance="10"
     guidetolerance="10"
     inkscape:pageopacity="0"
     inkscape:pageshadow="2"
     inkscape:window-width="640"
     inkscape:window-height="480"
     id="namedview23"
     showgrid="false"
     inkscape:zoom="8.8125"
     inkscape:cx="-13.292458"
     inkscape:cy="28.095745"
     inkscape:current-layer="svg21" />
  <defs
     id="defs5">
    <clipPath
       id="clipPath4186"
       clipPathUnits="userSpaceOnUse">
      <circle
         cx="286"
         cy="26"
         r="10"
         fill="url(#linearGradient4190)"
         id="circle2" />
    </clipPath>
  </defs>
  <path
     inkscape:connector-curvature="0"
     style="opacity:1;fill:#37a0f2;fill-opacity:1;fill-rule:evenodd;stroke:none;stroke-width:1.03534329;stroke-linecap:round;stroke-linejoin:bevel;stroke-miterlimit:4;stroke-dasharray:none;stroke-dashoffset:0;stroke-opacity:1"
     d="m 8.795898,25.046875 c -0.536887,0.01872 -0.183267,0.10371 -1.410156,-0.002 0.877109,-3.422074 1.779979,-6.949486 2.78125,-10.355469 0.945085,-3.181862 2.20119,-6.3781953 3.681641,-9.5742188 0.497551,-1.0741235 1.146266,-2.1433225 1.691406,-3.2167969 H 7.473633 c -3.088651,0 -5.576172,2.4875206 -5.576172,5.5761724 V 24.527297 c 0,3.088651 2.487521,5.574219 5.576172,5.574219 h 17.052734 c 3.088651,0 5.576172,-2.485568 5.576172,-5.574219 V 7.4746097 c 0,-2.4600115 -1.615041,-4.4464915 -3.820313,-5.1835942 0.0022,0.048963 0.04687,0.093599 0.04687,0.1425781 -0.735577,1.1542645 -1.62721,2.9384552 -2.195312,4.2109371 -0.347265,0.765131 -0.586835,1.589887 -0.75,2.451172 -0.163165,0.861286 -0.250902,1.7586613 -0.296875,2.6699223 -0.09195,1.822523 -0.01639,3.698006 -0.04102,5.443359 -1.154264,0.401448 -2.362513,0.914584 -3.574219,1.53125 -1.211705,0.616667 -2.427373,1.337456 -3.591796,2.160157 -1.164424,0.822701 -2.278597,1.746074 -3.291016,2.765625 -1.012419,1.019551 -1.922044,2.136533 -2.677734,3.34375 -1.102873,-0.01045 -0.213474,0.121125 -1.642578,-0.002 0.166043,-0.648007 0.358924,-1.306837 0.527343,-1.960938 z"
     id="path4515" />
  <path
     inkscape:connector-curvature="0"
     style="opacity:1;fill:#b3b3b3;fill-opacity:0.40336135;fill-rule:evenodd;stroke:none;stroke-width:1.03534329;stroke-linecap:round;stroke-linejoin:bevel;stroke-miterlimit:4;stroke-dasharray:none;stroke-dashoffset:0;stroke-opacity:1"
     d="m 8.795898,25.046875 c -0.168419,0.654101 -0.3613,1.312931 -0.527343,1.960938 1.429104,0.123078 0.539705,-0.0085 1.642578,0.002 0.75569,-1.207217 1.665315,-2.324199 2.677734,-3.34375 1.012419,-1.019551 2.126592,-1.942924 3.291016,-2.765625 1.164423,-0.822701 2.380091,-1.54349 3.591796,-2.160157 1.211706,-0.616666 2.419955,-1.129802 3.574219,-1.53125 0.02463,-1.745353 -0.05093,-3.620836 0.04102,-5.443359 0.04597,-0.911261 0.13371,-1.8086363 0.296875,-2.6699223 0.163165,-0.861285 0.402735,-1.686041 0.75,-2.451172 0.568102,-1.2724819 1.459735,-3.0566726 2.195312,-4.2109371 0,-0.048979 -0.04471,-0.093615 -0.04687,-0.1425781 -0.512606,-0.1713364 -1.028103,-0.3445085 -1.595703,-0.3613282 -0.514196,0.9501664 -1.064301,1.9204061 -1.435547,2.7519532 -0.347264,0.765131 -0.586835,1.5898857 -0.75,2.4511722 -0.163164,0.861285 -0.250901,1.758661 -0.296875,2.669921 -0.09195,1.8225243 -0.01638,3.6999603 -0.04102,5.4453133 -1.154265,0.401448 -2.362513,0.91263 -3.574219,1.529297 -1.211706,0.616666 -2.427373,1.337455 -3.591797,2.160156 -1.164424,0.822701 -2.278597,1.746074 -3.291015,2.765625 -1.01242,1.019551 -1.922045,2.136534 -2.677735,3.34375 -0.156054,-0.0015 -0.143932,-0.0031 -0.232422,0 z"
     id="path4512" />
  <path
     inkscape:connector-curvature="0"
     style="opacity:1;fill:#ffffff;fill-opacity:1;fill-rule:evenodd;stroke:none;stroke-width:1.03534329;stroke-linecap:round;stroke-linejoin:bevel;stroke-miterlimit:4;stroke-dasharray:none;stroke-dashoffset:0;stroke-opacity:1"
     d="m 15.540039,1.8984373 c -0.54514,1.0734744 -1.193855,2.1426734 -1.691406,3.2167969 -1.480451,3.1960235 -2.736556,6.3923568 -3.681641,9.5742188 -1.001271,3.405983 -1.904141,6.933395 -2.78125,10.355469 1.429104,0.123078 0.539705,-0.0085 1.642578,0.002 0.75569,-1.207216 1.665316,-2.324199 2.677735,-3.34375 1.012418,-1.019551 2.126591,-1.942924 3.291015,-2.765625 1.164424,-0.822701 2.380091,-1.54349 3.591797,-2.160156 1.211706,-0.616667 2.419954,-1.127849 3.574219,-1.529297 0.02463,-1.745353 -0.05093,-3.62279 0.04102,-5.4453133 0.04597,-0.911261 0.133711,-1.808636 0.296875,-2.669921 0.163165,-0.8612861 0.402736,-1.6860411 0.75,-2.4511722 0.371246,-0.831547 0.921351,-1.8017868 1.435547,-2.7519532 -0.0564,-0.00167 -0.103335,-0.03125 -0.160156,-0.03125 z"
     id="rect4497" />
</svg>
