<?xml version="1.0" encoding="UTF-8" standalone="no"?>
<svg
   xmlns:dc="http://purl.org/dc/elements/1.1/"
   xmlns:cc="http://creativecommons.org/ns#"
   xmlns:rdf="http://www.w3.org/1999/02/22-rdf-syntax-ns#"
   xmlns:svg="http://www.w3.org/2000/svg"
   xmlns="http://www.w3.org/2000/svg"
   xmlns:sodipodi="http://sodipodi.sourceforge.net/DTD/sodipodi-0.dtd"
   xmlns:inkscape="http://www.inkscape.org/namespaces/inkscape"
   height="32"
   width="32"
   version="1"
   id="svg10"
   sodipodi:docname="chrome-hbdpomandigafcibbmofojjchbcdagbl-Default.svg"
   inkscape:version="0.92.1 r">
  <metadata
     id="metadata16">
    <rdf:RDF>
      <cc:Work
         rdf:about="">
        <dc:format>image/svg+xml</dc:format>
        <dc:type
           rdf:resource="http://purl.org/dc/dcmitype/StillImage" />
      </cc:Work>
    </rdf:RDF>
  </metadata>
  <defs
     id="defs14" />
  <sodipodi:namedview
     pagecolor="#ffffff"
     bordercolor="#666666"
     borderopacity="1"
     objecttolerance="10"
     gridtolerance="10"
     guidetolerance="10"
     inkscape:pageopacity="0"
     inkscape:pageshadow="2"
     inkscape:window-width="1680"
     inkscape:window-height="965"
     id="namedview12"
     showgrid="false"
     inkscape:zoom="7.375"
     inkscape:cx="-27.525424"
     inkscape:cy="16"
     inkscape:window-x="0"
     inkscape:window-y="0"
     inkscape:window-maximized="1"
     inkscape:current-layer="svg10" />
  <rect
     style="opacity:1;fill:#54abed;fill-opacity:1;fill-rule:evenodd;stroke:none;stroke-width:1.03534329;stroke-linecap:round;stroke-linejoin:bevel;stroke-miterlimit:4;stroke-dasharray:none;stroke-dashoffset:0;stroke-opacity:1"
     id="rect4497-3"
     width="28.203388"
     height="28.203388"
     x="1.8983059"
     y="1.8983059"
     ry="5.575182" />
  <g
     id="g4501"
     transform="matrix(0.83975347,0,0,0.83975347,2.5639445,2.1047765)">
    <path
       style="fill:#ffffff"
       id="path2"
       d="M 4.3896,7 C 3.6201,7 3.0007,7.6133 3.0007,8.375 v 16.3 C 3.0007,25.43675 3.62014,26 4.3896,26 H 13 l 3,3 3,-3 h 8.6113 c 0.769,0 1.388,-0.563 1.388,-1.325 V 8.375 C 28.9993,7.6133 28.3803,7 27.6103,7 Z"
       inkscape:connector-curvature="0" />
    <path
       id="path6"
       d="m 24,11.536 c -0.5887,0.26108 -1.2213,0.43753 -1.8854,0.51689 0.67777,-0.40628 1.1982,-1.0496 1.4433,-1.8161 -0.63423,0.3762 -1.3368,0.64939 -2.0845,0.79664 -0.59882,-0.63798 -1.4519,-1.0366 -2.3961,-1.0366 -1.8129,0 -3.2827,1.4697 -3.2827,3.2825 0,0.25727 0.02909,0.50782 0.08504,0.74806 -2.7282,-0.13689 -5.1469,-1.4437 -6.766,-3.4297 -0.28256,0.48482 -0.44439,1.0486 -0.44439,1.6503 0,1.1388 0.5795,2.1436 1.4603,2.7322 -0.53808,-0.01703 -1.0442,-0.16469 -1.4868,-0.41055 -2.458e-4,0.0137 -2.926e-4,0.02739 -2.926e-4,0.04126 0,1.5905 1.1315,2.9172 2.6331996,3.2187 -0.27545,0.07501 -0.56547,0.11511 -0.86481,0.11511 -0.21154,0 -0.4171696,-0.02053 -0.6175896,-0.05887 0.4177196,1.3042 1.6299996,2.2532 3.0663996,2.2797 -1.1234,0.88038 -2.5388,1.4052 -4.0767996,1.4052 -0.26496,0 -0.52626,-0.0155 -0.78306,-0.04581 1.4537,0.932 3.1789996,1.475 5.0329996,1.475 6.0379,0 9.3396,-5.0019 9.3396,-9.3397 0,-0.14233 -0.0032,-0.2839 -0.0095,-0.42465 0.64131,-0.46281 1.1979,-1.041 1.638,-1.6993"
       inkscape:connector-curvature="0"
       style="opacity:0.6" />
  </g>
</svg>
