<?xml version="1.0" encoding="UTF-8" standalone="no"?>
<svg
   xmlns:dc="http://purl.org/dc/elements/1.1/"
   xmlns:cc="http://creativecommons.org/ns#"
   xmlns:rdf="http://www.w3.org/1999/02/22-rdf-syntax-ns#"
   xmlns:svg="http://www.w3.org/2000/svg"
   xmlns="http://www.w3.org/2000/svg"
   xmlns:sodipodi="http://sodipodi.sourceforge.net/DTD/sodipodi-0.dtd"
   xmlns:inkscape="http://www.inkscape.org/namespaces/inkscape"
   height="32"
   width="32"
   version="1"
   id="svg42"
   sodipodi:docname="pianoteq.svg"
   inkscape:version="0.92.1 r">
  <metadata
     id="metadata48">
    <rdf:RDF>
      <cc:Work
         rdf:about="">
        <dc:format>image/svg+xml</dc:format>
        <dc:type
           rdf:resource="http://purl.org/dc/dcmitype/StillImage" />
      </cc:Work>
    </rdf:RDF>
  </metadata>
  <defs
     id="defs46" />
  <sodipodi:namedview
     pagecolor="#ffffff"
     bordercolor="#666666"
     borderopacity="1"
     objecttolerance="10"
     gridtolerance="10"
     guidetolerance="10"
     inkscape:pageopacity="0"
     inkscape:pageshadow="2"
     inkscape:window-width="640"
     inkscape:window-height="480"
     id="namedview44"
     showgrid="false"
     inkscape:zoom="9.5"
     inkscape:cx="-24.524151"
     inkscape:cy="18.197885"
     inkscape:current-layer="svg42" />
  <rect
     style="opacity:1;fill:#4f4f4f;fill-opacity:1;fill-rule:evenodd;stroke:none;stroke-width:1.03534329;stroke-linecap:round;stroke-linejoin:bevel;stroke-miterlimit:4;stroke-dasharray:none;stroke-dashoffset:0;stroke-opacity:1"
     id="rect4497-3"
     width="28.203388"
     height="28.203388"
     x="1.8983059"
     y="1.8983059"
     ry="5.575182"
     inkscape:export-filename="/home/ramil/3.png"
     inkscape:export-xdpi="71"
     inkscape:export-ydpi="71" />
  <g
     id="g4540"
     transform="translate(0.5,10e-5)">
    <rect
       id="rect8"
       style="fill:#d8d8d8"
       x="5"
       y="6"
       width="3"
       height="21"
       ry="1" />
    <rect
       id="rect12"
       style="fill:#f0f0f0"
       x="8"
       y="6"
       width="3"
       height="21"
       ry="1" />
    <rect
       id="rect16"
       style="fill:#d8d8d8"
       x="11"
       y="6"
       width="3"
       height="21"
       ry="1" />
    <rect
       id="rect20"
       style="fill:#f0f0f0"
       x="14"
       y="6"
       width="3"
       height="21"
       ry="1" />
    <rect
       id="rect24"
       style="fill:#d8d8d8"
       x="17"
       y="6"
       width="3"
       height="21"
       ry="1" />
    <rect
       id="rect28"
       style="fill:#f0f0f0"
       x="20"
       y="6"
       width="3"
       height="21"
       ry="1" />
    <rect
       id="rect32"
       style="fill:#d8d8d8"
       x="23"
       y="6"
       width="3"
       height="21"
       ry="1" />
    <path
       id="path36"
       style="fill:#4f4f4f"
       d="M 7.4961,5 C 7.2219,5 7,5.3187 7,5.7148 v 10.5697 c 0,0.396 0.2219,0.715 0.4961,0.715 H 8.5059 C 8.7801,16.9995 9,16.6805 9,16.2845 V 5.7148 C 9,5.3185 8.7801,4.9998 8.5059,4.9998 H 7.4961 Z M 10.494,5 C 10.22,5 10,5.3187 10,5.7148 v 10.5697 c 0,0.396 0.22,0.715 0.494,0.715 h 1.0117 c 0.274,0 0.494,-0.319 0.494,-0.715 V 5.7148 c 0,-0.3963 -0.22,-0.715 -0.494,-0.715 H 10.494 Z m 6,0 C 16.22,5 16,5.3187 16,5.7148 v 10.5697 c 0,0.396 0.22,0.715 0.494,0.715 h 1.0117 c 0.274,0 0.494,-0.319 0.494,-0.715 V 5.7148 c 0,-0.3963 -0.22,-0.715 -0.494,-0.715 H 16.494 Z m 3,0 C 19.22,5 19,5.3187 19,5.7148 v 10.5697 c 0,0.396 0.22,0.715 0.494,0.715 h 1.0117 c 0.274,0 0.494,-0.319 0.494,-0.715 V 5.7148 c 0,-0.3963 -0.22,-0.715 -0.494,-0.715 H 19.494 Z m 3,0 C 22.22,5 22,5.3187 22,5.7148 v 10.5697 c 0,0.396 0.22,0.715 0.494,0.715 h 1.0117 c 0.274,0 0.494,-0.319 0.494,-0.715 V 5.7148 c 0,-0.3963 -0.22,-0.715 -0.494,-0.715 H 22.494 Z"
       inkscape:connector-curvature="0" />
  </g>
</svg>
