<?xml version="1.0" encoding="UTF-8"?>
<svg xmlns="http://www.w3.org/2000/svg" xmlns:xlink="http://www.w3.org/1999/xlink" width="48pt" height="48pt" viewBox="0 0 48 48" version="1.1">
<g id="surface1">
<path style=" stroke:none;fill-rule:evenodd;fill:rgb(14.509804%,16.470588%,20.784314%);fill-opacity:1;" d="M 11.207031 2.847656 L 36.792969 2.847656 C 41.40625 2.847656 45.152344 6.59375 45.152344 11.207031 L 45.152344 36.792969 C 45.152344 41.40625 41.40625 45.152344 36.792969 45.152344 L 11.207031 45.152344 C 6.59375 45.152344 2.847656 41.40625 2.847656 36.792969 L 2.847656 11.207031 C 2.847656 6.59375 6.59375 2.847656 11.207031 2.847656 Z M 11.207031 2.847656 "/>
<path style=" stroke:none;fill-rule:evenodd;fill:rgb(100%,100%,100%);fill-opacity:1;" d="M 22.316406 9.089844 C 14.832031 9.925781 9 16.285156 9 23.996094 C 9 32.269531 15.722656 39 24 39 C 32.269531 39 39 32.269531 39 23.996094 C 39 16.394531 33.324219 10.121094 25.996094 9.136719 C 25.996094 9.136719 23.949219 8.863281 22.316406 9.089844 Z M 23 11.113281 L 23 16.167969 C 21.566406 16.113281 20.199219 15.964844 18.933594 15.722656 C 19.125 15.28125 19.324219 14.847656 19.542969 14.457031 C 20.542969 12.65625 21.75 11.53125 23 11.113281 Z M 25.140625 11.199219 C 25.253906 11.21875 25.371094 11.230469 25.484375 11.25 C 26.609375 11.746094 27.691406 12.816406 28.605469 14.457031 C 28.816406 14.84375 29.015625 15.265625 29.203125 15.699219 C 27.941406 15.949219 26.574219 16.105469 25.140625 16.160156 Z M 18.558594 12.050781 C 18.238281 12.484375 17.9375 12.933594 17.667969 13.417969 C 17.355469 13.980469 17.078125 14.582031 16.824219 15.21875 C 16.128906 15.015625 15.488281 14.785156 14.90625 14.535156 C 15.964844 13.515625 17.199219 12.671875 18.558594 12.050781 Z M 29.949219 12.558594 C 31.214844 12.949219 32.183594 13.75 33.09375 14.535156 C 32.546875 14.769531 31.949219 14.988281 31.308594 15.183594 C 31.058594 14.5625 30.78125 13.96875 30.480469 13.417969 C 30.3125 13.121094 30.136719 12.832031 29.949219 12.558594 Z M 13.546875 16.074219 C 13.566406 16.152344 13.511719 15.964844 13.535156 16.046875 C 14.3125 16.40625 15.230469 16.984375 16.136719 17.253906 C 15.667969 18.925781 15.375 20.769531 15.296875 22.714844 L 10.9375 22.714844 C 11.183594 20.230469 12.121094 17.953125 13.546875 16.074219 Z M 34.464844 16.089844 C 35.886719 17.96875 36.816406 20.234375 37.058594 22.714844 L 32.847656 22.714844 C 32.769531 20.753906 32.472656 18.902344 32 17.214844 C 32.855469 16.953125 33.707031 16.453125 34.441406 16.109375 C 34.472656 16.035156 34.4375 16.160156 34.464844 16.089844 Z M 29.921875 17.746094 C 30.347656 19.246094 30.625 20.925781 30.703125 22.714844 L 25.140625 22.714844 L 25.140625 18.308594 C 26.828125 18.246094 28.433594 18.050781 29.921875 17.746094 Z M 18.214844 17.777344 C 19.707031 18.078125 21.316406 18.253906 23 18.308594 L 23 22.714844 L 17.441406 22.714844 C 17.519531 20.9375 17.792969 19.269531 18.214844 17.777344 Z M 10.917969 24.859375 L 15.296875 24.859375 C 15.375 26.855469 15.683594 28.746094 16.171875 30.457031 C 15.207031 30.582031 13.550781 31.558594 13.464844 31.605469 C 11.78125 29.546875 11.097656 27.683594 10.917969 24.855469 Z M 17.441406 24.859375 L 23 24.859375 L 23 29.410156 C 21.332031 29.464844 19.734375 29.640625 18.253906 29.9375 C 17.808594 28.40625 17.527344 26.6875 17.441406 24.855469 Z M 25.140625 24.859375 L 30.703125 24.859375 C 30.621094 26.699219 30.332031 28.433594 29.886719 29.96875 C 28.40625 29.660156 26.8125 29.480469 25.140625 29.417969 Z M 32.847656 24.859375 L 37.078125 24.859375 C 36.910156 27.453125 36.144531 29.6875 34.6875 31.652344 C 34.011719 31.222656 32.765625 30.769531 31.964844 30.496094 C 32.457031 28.777344 32.765625 26.871094 32.847656 24.859375 Z M 23 31.550781 L 23 36.453125 C 21.75 36.035156 20.542969 34.917969 19.542969 33.113281 C 19.34375 32.761719 19.167969 32.378906 18.996094 31.984375 C 20.238281 31.75 21.589844 31.605469 23 31.550781 Z M 25.140625 31.558594 C 26.550781 31.613281 27.902344 31.769531 29.144531 32.011719 C 28.972656 32.394531 28.796875 32.769531 28.605469 33.113281 C 27.605469 34.917969 26.390625 36.042969 25.140625 36.453125 Z M 16.878906 32.484375 C 17.121094 33.066406 17.378906 33.636719 17.667969 34.15625 C 18.078125 34.890625 18.542969 35.558594 19.050781 36.15625 C 17.410156 35.488281 15.933594 34.503906 14.703125 33.269531 C 15.359375 32.980469 16.089844 32.714844 16.878906 32.484375 Z M 31.25 32.527344 C 31.988281 32.746094 32.675781 32.996094 33.292969 33.269531 C 32.121094 34.449219 30.730469 35.402344 29.175781 36.0625 C 29.65625 35.488281 30.089844 34.847656 30.480469 34.15625 C 30.761719 33.644531 31.015625 33.09375 31.25 32.527344 Z M 31.25 32.527344 "/>
</g>
</svg>
