<?xml version="1.0" encoding="UTF-8"?>
<svg xmlns="http://www.w3.org/2000/svg" xmlns:xlink="http://www.w3.org/1999/xlink" width="48pt" height="48pt" viewBox="0 0 48 48" version="1.1">
<g id="surface1">
<path style=" stroke:none;fill-rule:evenodd;fill:rgb(14.509804%,16.470588%,20.784314%);fill-opacity:1;" d="M 11.207031 2.847656 L 36.792969 2.847656 C 41.40625 2.847656 45.152344 6.59375 45.152344 11.207031 L 45.152344 36.792969 C 45.152344 41.40625 41.40625 45.152344 36.792969 45.152344 L 11.207031 45.152344 C 6.59375 45.152344 2.847656 41.40625 2.847656 36.792969 L 2.847656 11.207031 C 2.847656 6.59375 6.59375 2.847656 11.207031 2.847656 Z M 11.207031 2.847656 "/>
<path style=" stroke:none;fill-rule:evenodd;fill:rgb(100%,100%,100%);fill-opacity:1;" d="M 25.5 13.5 L 25.5 18.050781 L 19.140625 18.050781 C 16.050781 18.058594 13.203125 19.582031 11.65625 22.058594 C 10.113281 24.535156 10.113281 28.035156 11.65625 30.515625 C 13.125 32.863281 15.78125 34.363281 18.707031 34.5 C 16.5 34.296875 15 32.574219 15 30.515625 C 15 28.300781 16.753906 26.972656 19.140625 27 L 25.5 27 L 25.5 31.515625 L 37.5 22.5 Z M 25.5 13.5 "/>
</g>
</svg>
