<?xml version="1.0" encoding="UTF-8"?>
<svg xmlns="http://www.w3.org/2000/svg" xmlns:xlink="http://www.w3.org/1999/xlink" width="48pt" height="48pt" viewBox="0 0 48 48" version="1.1">
<g id="surface1">
<path style=" stroke:none;fill-rule:evenodd;fill:rgb(14.509804%,16.470588%,20.784314%);fill-opacity:1;" d="M 11.207031 2.847656 L 36.792969 2.847656 C 41.40625 2.847656 45.152344 6.59375 45.152344 11.207031 L 45.152344 36.792969 C 45.152344 41.40625 41.40625 45.152344 36.792969 45.152344 L 11.207031 45.152344 C 6.59375 45.152344 2.847656 41.40625 2.847656 36.792969 L 2.847656 11.207031 C 2.847656 6.59375 6.59375 2.847656 11.207031 2.847656 Z M 11.207031 2.847656 "/>
<path style=" stroke:none;fill-rule:nonzero;fill:rgb(100%,100%,100%);fill-opacity:1;" d="M 17.25 16.5 C 13.109375 16.5 9.75 19.859375 9.75 24 C 9.75 28.140625 13.109375 31.5 17.25 31.5 C 21.390625 31.5 24.75 28.140625 24.75 24 C 24.75 19.859375 21.390625 16.5 17.25 16.5 Z M 17.25 21 C 18.90625 21 20.25 22.34375 20.25 24 C 20.25 25.65625 18.90625 27 17.25 27 C 15.59375 27 14.25 25.65625 14.25 24 C 14.25 22.34375 15.59375 21 17.25 21 Z M 17.25 21 "/>
<path style=" stroke:none;fill-rule:nonzero;fill:rgb(100%,100%,100%);fill-opacity:1;" d="M 23.25 22.5 L 38.25 22.5 L 38.25 25.5 L 23.25 25.5 Z M 23.25 22.5 "/>
<path style=" stroke:none;fill-rule:nonzero;fill:rgb(100%,100%,100%);fill-opacity:1;" d="M 32.25 25.5 L 35.25 25.5 L 35.25 28.5 L 32.25 28.5 Z M 32.25 25.5 "/>
</g>
</svg>
