<?xml version="1.0" encoding="UTF-8"?>
<svg xmlns="http://www.w3.org/2000/svg" xmlns:xlink="http://www.w3.org/1999/xlink" width="48pt" height="48pt" viewBox="0 0 48 48" version="1.1">
<g id="surface1">
<path style=" stroke:none;fill-rule:evenodd;fill:rgb(14.509804%,16.470588%,20.784314%);fill-opacity:1;" d="M 11.207031 2.847656 L 36.792969 2.847656 C 41.40625 2.847656 45.152344 6.59375 45.152344 11.207031 L 45.152344 36.792969 C 45.152344 41.40625 41.40625 45.152344 36.792969 45.152344 L 11.207031 45.152344 C 6.59375 45.152344 2.847656 41.40625 2.847656 36.792969 L 2.847656 11.207031 C 2.847656 6.59375 6.59375 2.847656 11.207031 2.847656 Z M 11.207031 2.847656 "/>
<path style=" stroke:none;fill-rule:nonzero;fill:rgb(100%,100%,100%);fill-opacity:1;" d="M 16.5 30.75 C 16.5 34.890625 19.859375 38.25 24 38.25 C 28.140625 38.25 31.5 34.890625 31.5 30.75 C 31.5 26.609375 28.140625 23.25 24 23.25 C 19.859375 23.25 16.5 26.609375 16.5 30.75 Z M 21 30.75 C 21 29.09375 22.34375 27.75 24 27.75 C 25.65625 27.75 27 29.09375 27 30.75 C 27 32.40625 25.65625 33.75 24 33.75 C 22.34375 33.75 21 32.40625 21 30.75 Z M 21 30.75 "/>
<path style=" stroke:none;fill-rule:nonzero;fill:rgb(100%,100%,100%);fill-opacity:1;" d="M 22.5 24.75 L 22.5 9.75 L 25.5 9.75 L 25.5 24.75 Z M 22.5 24.75 "/>
<path style=" stroke:none;fill-rule:nonzero;fill:rgb(100%,100%,100%);fill-opacity:1;" d="M 25.5 15.75 L 25.5 12.75 L 28.5 12.75 L 28.5 15.75 Z M 25.5 15.75 "/>
</g>
</svg>
