<?xml version="1.0" encoding="UTF-8"?>
<svg xmlns="http://www.w3.org/2000/svg" xmlns:xlink="http://www.w3.org/1999/xlink" width="48pt" height="48pt" viewBox="0 0 48 48" version="1.1">
<g id="surface1">
<path style=" stroke:none;fill-rule:evenodd;fill:rgb(29.803922%,46.27451%,68.627451%);fill-opacity:1;" d="M 11.207031 2.847656 L 36.792969 2.847656 C 41.40625 2.847656 45.152344 6.59375 45.152344 11.207031 L 45.152344 36.792969 C 45.152344 41.40625 41.40625 45.152344 36.792969 45.152344 L 11.207031 45.152344 C 6.59375 45.152344 2.847656 41.40625 2.847656 36.792969 L 2.847656 11.207031 C 2.847656 6.59375 6.59375 2.847656 11.207031 2.847656 Z M 11.207031 2.847656 "/>
<path style=" stroke:none;fill-rule:nonzero;fill:rgb(100%,100%,100%);fill-opacity:1;" d="M 39 25.5 L 33 25.5 C 33 30.46875 28.96875 34.5 24 34.5 C 19.03125 34.5 15 30.46875 15 25.5 C 15 20.53125 19.03125 16.5 24 16.5 L 24 19.5 L 33 13.5 L 24 7.5 L 24 10.5 C 15.714844 10.5 9 17.214844 9 25.5 C 9 33.785156 15.714844 40.5 24 40.5 C 32.285156 40.5 39 33.785156 39 25.5 Z M 39 25.5 "/>
</g>
</svg>
