<?xml version="1.0" encoding="UTF-8"?>
<svg xmlns="http://www.w3.org/2000/svg" xmlns:xlink="http://www.w3.org/1999/xlink" width="16pt" height="16pt" viewBox="0 0 16 16" version="1.1">
<g id="surface1">
<path style=" stroke:none;fill-rule:evenodd;fill:rgb(14.509804%,16.470588%,20.784314%);fill-opacity:1;" d="M 3.734375 0.949219 L 12.265625 0.949219 C 13.800781 0.949219 15.050781 2.199219 15.050781 3.734375 L 15.050781 12.265625 C 15.050781 13.800781 13.800781 15.050781 12.265625 15.050781 L 3.734375 15.050781 C 2.199219 15.050781 0.949219 13.800781 0.949219 12.265625 L 0.949219 3.734375 C 0.949219 2.199219 2.199219 0.949219 3.734375 0.949219 Z M 3.734375 0.949219 "/>
<path style=" stroke:none;fill-rule:nonzero;fill:rgb(100%,100%,100%);fill-opacity:1;" d="M 5.5 10.25 C 5.5 11.628906 6.621094 12.75 8 12.75 C 9.378906 12.75 10.5 11.628906 10.5 10.25 C 10.5 8.871094 9.378906 7.75 8 7.75 C 6.621094 7.75 5.5 8.871094 5.5 10.25 Z M 7 10.25 C 7 9.699219 7.449219 9.25 8 9.25 C 8.550781 9.25 9 9.699219 9 10.25 C 9 10.800781 8.550781 11.25 8 11.25 C 7.449219 11.25 7 10.800781 7 10.25 Z M 7 10.25 "/>
<path style=" stroke:none;fill-rule:nonzero;fill:rgb(100%,100%,100%);fill-opacity:1;" d="M 7.5 8.25 L 7.5 3.25 L 8.5 3.25 L 8.5 8.25 Z M 7.5 8.25 "/>
<path style=" stroke:none;fill-rule:nonzero;fill:rgb(100%,100%,100%);fill-opacity:1;" d="M 8.5 5.25 L 8.5 4.25 L 9.5 4.25 L 9.5 5.25 Z M 8.5 5.25 "/>
</g>
</svg>
