<?xml version="1.0" encoding="UTF-8"?>
<svg xmlns="http://www.w3.org/2000/svg" xmlns:xlink="http://www.w3.org/1999/xlink" width="16pt" height="16pt" viewBox="0 0 16 16" version="1.1">
<g id="surface1">
<path style=" stroke:none;fill-rule:evenodd;fill:rgb(14.509804%,16.470588%,20.784314%);fill-opacity:1;" d="M 3.734375 0.949219 L 12.265625 0.949219 C 13.800781 0.949219 15.050781 2.199219 15.050781 3.734375 L 15.050781 12.265625 C 15.050781 13.800781 13.800781 15.050781 12.265625 15.050781 L 3.734375 15.050781 C 2.199219 15.050781 0.949219 13.800781 0.949219 12.265625 L 0.949219 3.734375 C 0.949219 2.199219 2.199219 0.949219 3.734375 0.949219 Z M 3.734375 0.949219 "/>
<path style=" stroke:none;fill-rule:nonzero;fill:rgb(100%,100%,100%);fill-opacity:1;" d="M 8.007812 3.5 C 8.957031 3.5 9.917969 3.796875 10.667969 4.382812 C 11.191406 4.988281 10.1875 5.640625 9.734375 5.046875 C 8.375 4.222656 6.453125 4.511719 5.429688 5.746094 C 4.882812 6.355469 4.578125 7.171875 4.578125 7.992188 L 5.480469 7.992188 C 5 8.710938 4.519531 9.433594 4.039062 10.152344 C 3.558594 9.433594 3.078125 8.710938 2.597656 7.992188 L 3.5 7.992188 C 3.46875 6.035156 4.875 4.175781 6.765625 3.667969 C 7.171875 3.558594 7.589844 3.496094 8.007812 3.5 Z M 11.960938 5.839844 C 12.441406 6.5625 12.921875 7.28125 13.402344 8 L 12.5 8 C 12.527344 9.980469 11.082031 11.859375 9.160156 12.34375 C 7.863281 12.703125 6.398438 12.4375 5.332031 11.609375 C 4.789062 10.992188 5.808594 10.347656 6.265625 10.945312 C 7.585938 11.75 9.433594 11.492188 10.472656 10.351562 C 11.078125 9.726562 11.425781 8.867188 11.421875 8 L 10.519531 8 C 11 7.28125 11.480469 6.5625 11.960938 5.839844 Z M 11.960938 5.839844 "/>
</g>
</svg>
