<?xml version="1.0" encoding="UTF-8"?>
<svg xmlns="http://www.w3.org/2000/svg" xmlns:xlink="http://www.w3.org/1999/xlink" width="16pt" height="16pt" viewBox="0 0 16 16" version="1.1">
<g id="surface1">
<path style=" stroke:none;fill-rule:evenodd;fill:rgb(14.509804%,16.470588%,20.784314%);fill-opacity:1;" d="M 3.734375 0.949219 L 12.265625 0.949219 C 13.800781 0.949219 15.050781 2.199219 15.050781 3.734375 L 15.050781 12.265625 C 15.050781 13.800781 13.800781 15.050781 12.265625 15.050781 L 3.734375 15.050781 C 2.199219 15.050781 0.949219 13.800781 0.949219 12.265625 L 0.949219 3.734375 C 0.949219 2.199219 2.199219 0.949219 3.734375 0.949219 Z M 3.734375 0.949219 "/>
<path style=" stroke:none;fill-rule:nonzero;fill:rgb(100%,100%,100%);fill-opacity:1;" d="M 8 4 C 6.699219 4 5.59375 4.578125 5.503906 6 L 6.53125 6 C 6.683594 5.203125 7.378906 5 8 5 C 8.699219 5 9.5 5.238281 9.5 6.332031 L 9.5 7.5 L 5.082031 7.5 C 4.761719 7.5 4.5 7.734375 4.5 8.050781 L 4.5 11.429688 C 4.5 11.746094 4.761719 12 5.082031 12 L 10.917969 12 C 11.238281 12 11.5 11.746094 11.5 11.429688 L 11.5 8.050781 C 11.5 7.734375 11.246094 7.5 10.917969 7.5 L 10.5 7.5 L 10.5 6.332031 C 10.5 4.667969 9.398438 4 8 4 Z M 8 4 "/>
</g>
</svg>
