<?xml version="1.0" encoding="UTF-8"?>
<svg xmlns="http://www.w3.org/2000/svg" xmlns:xlink="http://www.w3.org/1999/xlink" width="16pt" height="16pt" viewBox="0 0 16 16" version="1.1">
<g id="surface1">
<path style=" stroke:none;fill-rule:evenodd;fill:rgb(29.803922%,46.27451%,68.627451%);fill-opacity:1;" d="M 3.734375 0.949219 L 12.265625 0.949219 C 13.800781 0.949219 15.050781 2.199219 15.050781 3.734375 L 15.050781 12.265625 C 15.050781 13.800781 13.800781 15.050781 12.265625 15.050781 L 3.734375 15.050781 C 2.199219 15.050781 0.949219 13.800781 0.949219 12.265625 L 0.949219 3.734375 C 0.949219 2.199219 2.199219 0.949219 3.734375 0.949219 Z M 3.734375 0.949219 "/>
<path style=" stroke:none;fill-rule:nonzero;fill:rgb(100%,100%,100%);fill-opacity:1;" d="M 13 8.5 L 11 8.5 C 11 10.15625 9.65625 11.5 8 11.5 C 6.34375 11.5 5 10.15625 5 8.5 C 5 6.84375 6.34375 5.5 8 5.5 L 8 6.5 L 11 4.5 L 8 2.5 L 8 3.5 C 5.238281 3.5 3 5.738281 3 8.5 C 3 11.261719 5.238281 13.5 8 13.5 C 10.761719 13.5 13 11.261719 13 8.5 Z M 13 8.5 "/>
</g>
</svg>
