<?xml version="1.0" encoding="UTF-8"?>
<svg xmlns="http://www.w3.org/2000/svg" xmlns:xlink="http://www.w3.org/1999/xlink" width="48pt" height="48pt" viewBox="0 0 48 48" version="1.1">
<g id="surface1">
<path style=" stroke:none;fill-rule:evenodd;fill:rgb(100%,83.137255%,32.54902%);fill-opacity:1;" d="M 11.207031 2.847656 L 36.792969 2.847656 C 41.40625 2.847656 45.152344 6.59375 45.152344 11.207031 L 45.152344 36.792969 C 45.152344 41.40625 41.40625 45.152344 36.792969 45.152344 L 11.207031 45.152344 C 6.59375 45.152344 2.847656 41.40625 2.847656 36.792969 L 2.847656 11.207031 C 2.847656 6.59375 6.59375 2.847656 11.207031 2.847656 Z M 11.207031 2.847656 "/>
<path style=" stroke:none;fill-rule:nonzero;fill:rgb(100%,100%,100%);fill-opacity:1;" d="M 24 12.394531 C 23.238281 12.394531 22.480469 12.703125 22.015625 13.300781 C 21.558594 13.902344 21.394531 14.660156 21.394531 15.527344 C 21.394531 16.082031 21.425781 16.703125 21.488281 17.402344 L 21.488281 17.386719 L 22.417969 28.902344 L 25.582031 28.902344 L 26.503906 17.386719 C 26.566406 16.511719 26.605469 15.921875 26.605469 15.527344 C 26.605469 14.675781 26.441406 13.917969 25.984375 13.316406 C 25.527344 12.71875 24.765625 12.394531 24 12.394531 Z M 24 30.269531 C 22.550781 30.269531 21.332031 31.457031 21.332031 32.9375 C 21.332031 34.417969 22.550781 35.605469 24 35.605469 C 25.480469 35.605469 26.667969 34.378906 26.667969 32.9375 C 26.667969 31.472656 25.457031 30.269531 24 30.269531 Z M 24 30.269531 "/>
</g>
</svg>
