<?xml version="1.0" encoding="UTF-8"?>
<svg xmlns="http://www.w3.org/2000/svg" xmlns:xlink="http://www.w3.org/1999/xlink" width="48pt" height="48pt" viewBox="0 0 48 48" version="1.1">
<g id="surface1">
<path style=" stroke:none;fill-rule:evenodd;fill:rgb(85.882353%,23.529412%,18.823529%);fill-opacity:1;" d="M 11.207031 2.847656 L 36.792969 2.847656 C 41.40625 2.847656 45.152344 6.59375 45.152344 11.207031 L 45.152344 36.792969 C 45.152344 41.40625 41.40625 45.152344 36.792969 45.152344 L 11.207031 45.152344 C 6.59375 45.152344 2.847656 41.40625 2.847656 36.792969 L 2.847656 11.207031 C 2.847656 6.59375 6.59375 2.847656 11.207031 2.847656 Z M 11.207031 2.847656 "/>
<path style=" stroke:none;fill-rule:nonzero;fill:rgb(100%,100%,100%);fill-opacity:1;" d="M 24 10.515625 C 23.121094 10.515625 22.234375 10.875 21.699219 11.574219 C 21.160156 12.265625 20.972656 13.152344 20.972656 14.152344 C 20.972656 14.808594 21.011719 15.519531 21.089844 16.332031 L 21.082031 16.316406 L 22.160156 29.691406 L 25.839844 29.691406 L 26.910156 16.3125 C 26.984375 15.296875 27.027344 14.613281 27.027344 14.152344 C 27.027344 13.167969 26.839844 12.285156 26.308594 11.589844 C 25.777344 10.894531 24.890625 10.515625 24 10.515625 Z M 24 31.285156 C 22.316406 31.285156 20.902344 32.667969 20.902344 34.386719 C 20.902344 36.097656 22.316406 37.484375 24 37.484375 C 25.71875 37.484375 27.097656 36.0625 27.097656 34.386719 C 27.097656 32.6875 25.691406 31.285156 24 31.285156 Z M 24 31.285156 "/>
</g>
</svg>
