<?xml version="1.0" encoding="UTF-8"?>
<svg xmlns="http://www.w3.org/2000/svg" xmlns:xlink="http://www.w3.org/1999/xlink" width="48pt" height="48pt" viewBox="0 0 48 48" version="1.1">
<g id="surface1">
<path style=" stroke:none;fill-rule:evenodd;fill:rgb(18.823529%,63.921569%,85.882353%);fill-opacity:1;" d="M 11.207031 2.847656 L 36.792969 2.847656 C 41.40625 2.847656 45.152344 6.59375 45.152344 11.207031 L 45.152344 36.792969 C 45.152344 41.40625 41.40625 45.152344 36.792969 45.152344 L 11.207031 45.152344 C 6.59375 45.152344 2.847656 41.40625 2.847656 36.792969 L 2.847656 11.207031 C 2.847656 6.59375 6.59375 2.847656 11.207031 2.847656 Z M 11.207031 2.847656 "/>
<path style=" stroke:none;fill-rule:evenodd;fill:rgb(18.823529%,63.921569%,85.882353%);fill-opacity:1;" d="M 11.207031 2.847656 L 36.792969 2.847656 C 41.40625 2.847656 45.152344 6.59375 45.152344 11.207031 L 45.152344 36.792969 C 45.152344 41.40625 41.40625 45.152344 36.792969 45.152344 L 11.207031 45.152344 C 6.59375 45.152344 2.847656 41.40625 2.847656 36.792969 L 2.847656 11.207031 C 2.847656 6.59375 6.59375 2.847656 11.207031 2.847656 Z M 11.207031 2.847656 "/>
<path style=" stroke:none;fill-rule:nonzero;fill:rgb(100%,100%,100%);fill-opacity:1;" d="M 23.59375 11.980469 C 22.90625 11.980469 22.21875 12.269531 21.734375 12.765625 L 21.730469 12.765625 L 21.722656 12.769531 C 21.25 13.265625 20.96875 13.941406 20.96875 14.628906 C 20.96875 15.316406 21.25 16.003906 21.734375 16.496094 L 21.734375 16.5 L 21.746094 16.503906 C 22.230469 16.984375 22.910156 17.265625 23.59375 17.265625 C 24.277344 17.265625 24.957031 16.980469 25.441406 16.496094 C 25.921875 16.003906 26.203125 15.316406 26.203125 14.628906 C 26.203125 13.9375 25.910156 13.261719 25.433594 12.769531 C 24.953125 12.277344 24.277344 11.980469 23.59375 11.980469 Z M 19.15625 18.484375 L 19.15625 22.011719 L 21.707031 22.011719 L 21.707031 32.511719 L 19.15625 32.511719 L 19.15625 36.019531 L 28.84375 36.019531 L 28.84375 32.511719 L 26.316406 32.511719 L 26.316406 18.484375 Z M 19.15625 18.484375 "/>
</g>
</svg>
