<?xml version="1.0" encoding="UTF-8"?>
<svg xmlns="http://www.w3.org/2000/svg" xmlns:xlink="http://www.w3.org/1999/xlink" width="48pt" height="48pt" viewBox="0 0 48 48" version="1.1">
<g id="surface1">
<path style=" stroke:none;fill-rule:evenodd;fill:rgb(100%,83.137255%,32.54902%);fill-opacity:1;" d="M 11.207031 2.847656 L 36.792969 2.847656 C 41.40625 2.847656 45.152344 6.59375 45.152344 11.207031 L 45.152344 36.792969 C 45.152344 41.40625 41.40625 45.152344 36.792969 45.152344 L 11.207031 45.152344 C 6.59375 45.152344 2.847656 41.40625 2.847656 36.792969 L 2.847656 11.207031 C 2.847656 6.59375 6.59375 2.847656 11.207031 2.847656 Z M 11.207031 2.847656 "/>
<path style=" stroke:none;fill-rule:nonzero;fill:rgb(30.196078%,30.196078%,30.196078%);fill-opacity:1;" d="M 21 33.175781 C 21 34.90625 22.1875 36.238281 24 36.238281 C 25.847656 36.238281 27 34.941406 27 33.175781 C 27 31.449219 25.847656 30.152344 24 30.152344 C 22.152344 30.152344 21 31.449219 21 33.175781 Z M 22.121094 14.355469 L 22.683594 26.808594 C 22.714844 27.636719 23.238281 28.265625 24 28.265625 C 24.761719 28.265625 25.285156 27.636719 25.316406 26.808594 L 25.878906 14.355469 C 25.878906 14.277344 25.878906 14.234375 25.878906 14.15625 C 25.878906 12.660156 25.15625 11.761719 24 11.761719 C 22.84375 11.761719 22.121094 12.660156 22.121094 14.15625 C 22.121094 14.234375 22.121094 14.277344 22.121094 14.355469 Z M 22.121094 14.355469 "/>
</g>
</svg>
