<?xml version="1.0" encoding="UTF-8"?>
<svg xmlns="http://www.w3.org/2000/svg" xmlns:xlink="http://www.w3.org/1999/xlink" width="48pt" height="48pt" viewBox="0 0 48 48" version="1.1">
<g id="surface1">
<path style=" stroke:none;fill-rule:evenodd;fill:rgb(55.686275%,55.686275%,55.686275%);fill-opacity:1;" d="M 11.207031 2.847656 L 36.792969 2.847656 C 41.40625 2.847656 45.152344 6.59375 45.152344 11.207031 L 45.152344 36.792969 C 45.152344 41.40625 41.40625 45.152344 36.792969 45.152344 L 11.207031 45.152344 C 6.59375 45.152344 2.847656 41.40625 2.847656 36.792969 L 2.847656 11.207031 C 2.847656 6.59375 6.59375 2.847656 11.207031 2.847656 Z M 11.207031 2.847656 "/>
<path style=" stroke:none;fill-rule:nonzero;fill:rgb(30.196078%,30.196078%,30.196078%);fill-opacity:1;" d="M 10.347656 11.316406 L 37.652344 11.316406 C 39.699219 11.316406 41.359375 12.980469 41.359375 15.03125 L 41.359375 32.96875 C 41.359375 35.019531 39.699219 36.683594 37.652344 36.683594 L 10.347656 36.683594 C 8.300781 36.683594 6.640625 35.019531 6.640625 32.96875 L 6.640625 15.03125 C 6.640625 12.980469 8.300781 11.316406 10.347656 11.316406 Z M 10.347656 11.316406 "/>
</g>
</svg>
