<?xml version="1.0" encoding="UTF-8" standalone="no"?>
<svg
   xmlns:dc="http://purl.org/dc/elements/1.1/"
   xmlns:cc="http://creativecommons.org/ns#"
   xmlns:rdf="http://www.w3.org/1999/02/22-rdf-syntax-ns#"
   xmlns:svg="http://www.w3.org/2000/svg"
   xmlns="http://www.w3.org/2000/svg"
   xmlns:sodipodi="http://sodipodi.sourceforge.net/DTD/sodipodi-0.dtd"
   xmlns:inkscape="http://www.inkscape.org/namespaces/inkscape"
   width="22"
   height="22"
   viewBox="0 0 16 16"
   version="1.1"
   id="svg7"
   sodipodi:docname="folder-development.svg"
   inkscape:version="0.92.1 r">
  <metadata
     id="metadata11">
    <rdf:RDF>
      <cc:Work
         rdf:about="">
        <dc:format>image/svg+xml</dc:format>
        <dc:type
           rdf:resource="http://purl.org/dc/dcmitype/StillImage" />
      </cc:Work>
    </rdf:RDF>
  </metadata>
  <sodipodi:namedview
     pagecolor="#ffffff"
     bordercolor="#666666"
     borderopacity="1"
     objecttolerance="10"
     gridtolerance="10"
     guidetolerance="10"
     inkscape:pageopacity="0"
     inkscape:pageshadow="2"
     inkscape:window-width="769"
     inkscape:window-height="480"
     id="namedview9"
     showgrid="false"
     inkscape:zoom="10.727273"
     inkscape:cx="11"
     inkscape:cy="11"
     inkscape:window-x="0"
     inkscape:window-y="0"
     inkscape:window-maximized="0"
     inkscape:current-layer="svg7" />
  <defs
     id="defs3">
    <style
       id="current-color-scheme"
       type="text/css">
   .ColorScheme-Text { color:#d3dae3; } .ColorScheme-Highlight { color:#5294e2; }
  </style>
  </defs>
  <path
     style="color:#d3dae3;fill:currentColor;stroke-width:0.72715741"
     class="ColorScheme-Text"
     d="M 6.7290381,2.9090909 6.6168377,4.2498238 A 3.9993658,3.9993658 0 0 0 5.4480049,4.9258548 L 4.2294345,4.3520839 2.956909,6.5562435 4.063279,7.324558 A 3.9993658,3.9993658 0 0 0 4.002198,7.9991638 3.9993658,3.9993658 0 0 0 4.060443,8.6766131 L 2.956909,9.4420911 4.2294345,11.646251 5.445169,11.073905 a 3.9993658,3.9993658 0 0 0 1.1716687,0.671763 l 0.1090736,1.345241 h 2.545051 l 0.1122004,-1.340733 a 3.9993658,3.9993658 0 0 0 1.1688333,-0.676031 l 1.21857,0.573771 1.272525,-2.2041599 -1.10637,-0.768314 a 3.9993658,3.9993658 0 0 0 0.06108,-0.6746059 3.9993658,3.9993658 0 0 0 -0.05825,-0.6774489 L 13.043091,6.5579087 11.770566,4.3537491 10.554832,4.9260947 A 3.9993658,3.9993658 0 0 0 9.3831627,4.2543321 L 9.2740891,2.9090909 Z M 8.0015636,6.544878 A 1.4543148,1.4543148 0 0 1 9.4558784,7.9991929 1.4543148,1.4543148 0 0 1 8.0015636,9.4535081 1.4543148,1.4543148 0 0 1 6.5472488,7.9991929 1.4543148,1.4543148 0 0 1 8.0015636,6.544878 Z"
     id="path5"
     inkscape:connector-curvature="0" />
</svg>
