<?xml version="1.0" encoding="UTF-8"?>
<svg xmlns="http://www.w3.org/2000/svg" xmlns:xlink="http://www.w3.org/1999/xlink" width="36pt" height="36pt" viewBox="0 0 36 36" version="1.1">
<defs>
<clipPath id="clip1">
  <rect width="36" height="36"/>
</clipPath>
<g id="surface6" clip-path="url(#clip1)">
<path style=" stroke:none;fill-rule:nonzero;fill:rgb(100%,100%,100%);fill-opacity:1;" d="M 18 9 C 13.03125 9 9 13.03125 9 18 C 9 22.972656 13.03125 27 18 27 L 23.625 27 C 23.625 27 24.679688 27 24.75 25.875 C 24.75 24.75 23.625 24.75 23.625 24.75 L 18 24.75 C 14.273438 24.75 11.25 21.726562 11.25 18 C 11.25 14.273438 14.273438 11.25 18 11.25 C 21.726562 11.25 24.75 14.273438 24.75 18 L 24.75 19.125 C 24.75 19.746094 24.246094 20.25 23.625 20.25 C 23.003906 20.25 22.5 19.746094 22.5 19.125 L 22.5 18 C 22.5 15.515625 20.484375 13.5 18 13.5 C 15.515625 13.5 13.5 15.515625 13.5 18 C 13.5 20.484375 15.515625 22.5 18 22.5 C 19.175781 22.5 20.238281 22.039062 21.039062 21.296875 C 21.683594 22.058594 22.628906 22.5 23.625 22.5 C 25.488281 22.5 27 20.988281 27 19.125 L 27 18 C 27 13.03125 22.96875 9 18 9 Z M 18 15.75 C 19.242188 15.75 20.25 16.757812 20.25 18 C 20.25 19.242188 19.242188 20.25 18 20.25 C 16.757812 20.25 15.75 19.242188 15.75 18 C 15.75 16.757812 16.757812 15.75 18 15.75 Z M 18 15.75 "/>
</g>
</defs>
<g id="surface1">
<path style=" stroke:none;fill-rule:evenodd;fill:rgb(14.509804%,16.470588%,20.784314%);fill-opacity:1;" d="M 8.40625 2.136719 L 27.59375 2.136719 C 31.054688 2.136719 33.863281 4.945312 33.863281 8.40625 L 33.863281 27.59375 C 33.863281 31.054688 31.054688 33.863281 27.59375 33.863281 L 8.40625 33.863281 C 4.945312 33.863281 2.136719 31.054688 2.136719 27.59375 L 2.136719 8.40625 C 2.136719 4.945312 4.945312 2.136719 8.40625 2.136719 Z M 8.40625 2.136719 "/>
<use xlink:href="#surface6"/>
</g>
</svg>
