<?xml version="1.0" encoding="UTF-8"?>
<svg xmlns="http://www.w3.org/2000/svg" xmlns:xlink="http://www.w3.org/1999/xlink" width="36pt" height="36pt" viewBox="0 0 36 36" version="1.1">
<defs>
<clipPath id="clip1">
  <rect width="36" height="36"/>
</clipPath>
<g id="surface6" clip-path="url(#clip1)">
<path style=" stroke:none;fill-rule:nonzero;fill:rgb(100%,100%,100%);fill-opacity:1;" d="M 19.125 25.875 L 16.875 25.875 L 16.875 23.625 L 19.125 23.625 Z M 21.453125 17.15625 L 20.441406 18.191406 C 19.632812 19.011719 19.125 19.6875 19.125 21.375 L 16.875 21.375 L 16.875 20.8125 C 16.875 19.574219 17.382812 18.449219 18.191406 17.628906 L 19.585938 16.210938 C 20.003906 15.804688 20.25 15.242188 20.25 14.625 C 20.25 13.386719 19.238281 12.375 18 12.375 C 16.761719 12.375 15.75 13.386719 15.75 14.625 L 13.5 14.625 C 13.5 12.140625 15.515625 10.125 18 10.125 C 20.484375 10.125 22.5 12.140625 22.5 14.625 C 22.5 15.613281 22.09375 16.515625 21.453125 17.15625 Z M 21.453125 17.15625 "/>
</g>
</defs>
<g id="surface1">
<path style=" stroke:none;fill-rule:evenodd;fill:rgb(14.509804%,16.470588%,20.784314%);fill-opacity:1;" d="M 8.40625 2.136719 L 27.59375 2.136719 C 31.054688 2.136719 33.863281 4.945312 33.863281 8.40625 L 33.863281 27.59375 C 33.863281 31.054688 31.054688 33.863281 27.59375 33.863281 L 8.40625 33.863281 C 4.945312 33.863281 2.136719 31.054688 2.136719 27.59375 L 2.136719 8.40625 C 2.136719 4.945312 4.945312 2.136719 8.40625 2.136719 Z M 8.40625 2.136719 "/>
<use xlink:href="#surface6"/>
</g>
</svg>
