<?xml version="1.0" encoding="UTF-8"?>
<svg xmlns="http://www.w3.org/2000/svg" xmlns:xlink="http://www.w3.org/1999/xlink" width="36pt" height="36pt" viewBox="0 0 36 36" version="1.1">
<g id="surface1">
<path style=" stroke:none;fill-rule:evenodd;fill:rgb(14.509804%,16.470588%,20.784314%);fill-opacity:1;" d="M 8.40625 2.136719 L 27.59375 2.136719 C 31.054688 2.136719 33.863281 4.945312 33.863281 8.40625 L 33.863281 27.59375 C 33.863281 31.054688 31.054688 33.863281 27.59375 33.863281 L 8.40625 33.863281 C 4.945312 33.863281 2.136719 31.054688 2.136719 27.59375 L 2.136719 8.40625 C 2.136719 4.945312 4.945312 2.136719 8.40625 2.136719 Z M 8.40625 2.136719 "/>
<path style=" stroke:none;fill-rule:evenodd;fill:rgb(100%,100%,100%);fill-opacity:1;" d="M 19.125 10.125 L 19.125 13.539062 L 14.355469 13.539062 C 12.039062 13.542969 9.902344 14.6875 8.742188 16.542969 C 7.585938 18.402344 7.585938 21.027344 8.742188 22.886719 C 9.84375 24.648438 11.835938 25.773438 14.03125 25.875 C 12.375 25.722656 11.25 24.429688 11.25 22.886719 C 11.25 21.226562 12.566406 20.230469 14.355469 20.25 L 19.125 20.25 L 19.125 23.636719 L 28.125 16.875 Z M 19.125 10.125 "/>
</g>
</svg>
