<?xml version="1.0" encoding="UTF-8"?>
<svg xmlns="http://www.w3.org/2000/svg" xmlns:xlink="http://www.w3.org/1999/xlink" width="36pt" height="36pt" viewBox="0 0 36 36" version="1.1">
<defs>
<clipPath id="clip1">
  <rect width="36" height="36"/>
</clipPath>
<g id="surface6" clip-path="url(#clip1)">
<path style=" stroke:none;fill-rule:nonzero;fill:rgb(100%,100%,100%);fill-opacity:1;" d="M 18.019531 7.875 C 20.152344 7.878906 22.3125 8.542969 24 9.859375 C 25.183594 11.226562 22.925781 12.6875 21.90625 11.355469 C 18.839844 9.5 14.519531 10.152344 12.214844 12.925781 C 10.988281 14.300781 10.296875 16.136719 10.304688 17.980469 L 12.328125 17.980469 C 11.25 19.601562 10.167969 21.222656 9.089844 22.84375 C 8.007812 21.222656 6.929688 19.601562 5.847656 17.984375 L 7.875 17.984375 C 7.808594 13.582031 10.972656 9.394531 15.222656 8.253906 C 16.136719 8.007812 17.074219 7.867188 18.019531 7.875 Z M 26.910156 13.140625 C 27.992188 14.761719 29.070312 16.382812 30.152344 18 L 28.125 18 C 28.183594 22.457031 24.9375 26.6875 20.613281 27.769531 C 17.695312 28.582031 14.398438 27.988281 12 26.125 C 10.777344 24.734375 13.070312 23.285156 14.097656 24.628906 C 17.066406 26.433594 21.222656 25.859375 23.566406 23.289062 C 24.925781 21.886719 25.707031 19.953125 25.695312 18 L 23.671875 18 C 24.75 16.382812 25.832031 14.761719 26.910156 13.140625 Z M 26.910156 13.140625 "/>
</g>
</defs>
<g id="surface1">
<path style=" stroke:none;fill-rule:evenodd;fill:rgb(14.509804%,16.470588%,20.784314%);fill-opacity:1;" d="M 8.40625 2.136719 L 27.59375 2.136719 C 31.054688 2.136719 33.863281 4.945312 33.863281 8.40625 L 33.863281 27.59375 C 33.863281 31.054688 31.054688 33.863281 27.59375 33.863281 L 8.40625 33.863281 C 4.945312 33.863281 2.136719 31.054688 2.136719 27.59375 L 2.136719 8.40625 C 2.136719 4.945312 4.945312 2.136719 8.40625 2.136719 Z M 8.40625 2.136719 "/>
<use xlink:href="#surface6"/>
</g>
</svg>
