<?xml version="1.0" encoding="UTF-8"?>
<svg xmlns="http://www.w3.org/2000/svg" xmlns:xlink="http://www.w3.org/1999/xlink" width="36pt" height="36pt" viewBox="0 0 36 36" version="1.1">
<g id="surface1">
<path style=" stroke:none;fill-rule:evenodd;fill:rgb(14.509804%,16.470588%,20.784314%);fill-opacity:1;" d="M 8.40625 2.136719 L 27.59375 2.136719 C 31.054688 2.136719 33.863281 4.945312 33.863281 8.40625 L 33.863281 27.59375 C 33.863281 31.054688 31.054688 33.863281 27.59375 33.863281 L 8.40625 33.863281 C 4.945312 33.863281 2.136719 31.054688 2.136719 27.59375 L 2.136719 8.40625 C 2.136719 4.945312 4.945312 2.136719 8.40625 2.136719 Z M 8.40625 2.136719 "/>
<path style=" stroke:none;fill-rule:nonzero;fill:rgb(100%,100%,100%);fill-opacity:1;" d="M 15.75 7.875 L 15.75 9.292969 C 14.9375 9.503906 14.160156 9.828125 13.4375 10.253906 L 12.433594 9.25 L 9.25 12.433594 L 10.253906 13.4375 C 9.828125 14.160156 9.507812 14.9375 9.296875 15.75 L 7.875 15.75 L 7.875 20.25 L 9.292969 20.25 C 9.503906 21.0625 9.828125 21.839844 10.253906 22.5625 L 9.25 23.566406 L 12.433594 26.75 L 13.4375 25.746094 C 14.160156 26.171875 14.9375 26.492188 15.75 26.703125 L 15.75 28.125 L 20.25 28.125 L 20.25 26.707031 C 21.0625 26.496094 21.839844 26.171875 22.5625 25.746094 L 23.566406 26.75 L 26.75 23.566406 L 25.746094 22.5625 C 26.171875 21.839844 26.492188 21.0625 26.703125 20.25 L 28.125 20.25 L 28.125 15.75 L 26.707031 15.75 C 26.496094 14.9375 26.171875 14.160156 25.746094 13.4375 L 26.75 12.433594 L 23.566406 9.25 L 22.5625 10.253906 C 21.839844 9.828125 21.0625 9.507812 20.25 9.296875 L 20.25 7.875 Z M 18 13.5 C 20.484375 13.5 22.5 15.515625 22.5 18 C 22.5 20.484375 20.484375 22.5 18 22.5 C 15.515625 22.5 13.5 20.484375 13.5 18 C 13.5 15.515625 15.515625 13.5 18 13.5 Z M 18 13.5 "/>
</g>
</svg>
