<?xml version="1.0" encoding="UTF-8"?>
<svg xmlns="http://www.w3.org/2000/svg" xmlns:xlink="http://www.w3.org/1999/xlink" width="36pt" height="36pt" viewBox="0 0 36 36" version="1.1">
<g id="surface1">
<path style=" stroke:none;fill-rule:evenodd;fill:rgb(14.509804%,16.470588%,20.784314%);fill-opacity:1;" d="M 8.40625 2.136719 L 27.59375 2.136719 C 31.054688 2.136719 33.863281 4.945312 33.863281 8.40625 L 33.863281 27.59375 C 33.863281 31.054688 31.054688 33.863281 27.59375 33.863281 L 8.40625 33.863281 C 4.945312 33.863281 2.136719 31.054688 2.136719 27.59375 L 2.136719 8.40625 C 2.136719 4.945312 4.945312 2.136719 8.40625 2.136719 Z M 8.40625 2.136719 "/>
<path style=" stroke:none;fill-rule:nonzero;fill:rgb(100%,100%,100%);fill-opacity:1;" d="M 21.808594 9 C 20.304688 9 18.949219 10.085938 18 11.25 C 17.050781 10.085938 15.699219 9 14.191406 9 C 11.324219 9 9 11.644531 9 14.910156 C 9 15.785156 9.136719 16.628906 9.375 17.4375 C 9.375 17.4375 9.589844 18.164062 9.78125 18.5625 C 11.972656 23.679688 18 27 18 27 C 18 27 24.027344 23.679688 26.21875 18.5625 C 26.21875 18.5625 26.5 17.882812 26.625 17.4375 C 26.851562 16.625 27 15.785156 27 14.910156 C 27 11.644531 24.675781 9 21.808594 9 Z M 21.808594 9 "/>
</g>
</svg>
