<?xml version="1.0" encoding="UTF-8"?>
<svg xmlns="http://www.w3.org/2000/svg" xmlns:xlink="http://www.w3.org/1999/xlink" width="36pt" height="36pt" viewBox="0 0 36 36" version="1.1">
<defs>
<clipPath id="clip1">
  <rect width="36" height="36"/>
</clipPath>
<g id="surface6" clip-path="url(#clip1)">
<path style=" stroke:none;fill-rule:nonzero;fill:rgb(100%,100%,100%);fill-opacity:1;" d="M 22.5 9 C 20.636719 9 19.125 10.511719 19.125 12.375 C 19.125 12.636719 19.175781 12.871094 19.230469 13.113281 L 15.609375 15.363281 C 15.03125 14.902344 14.296875 14.625 13.5 14.625 C 11.636719 14.625 10.125 16.136719 10.125 18 C 10.125 19.863281 11.636719 21.375 13.5 21.375 C 14.296875 21.375 15.03125 21.097656 15.609375 20.636719 L 19.230469 22.886719 C 19.175781 23.128906 19.125 23.363281 19.125 23.625 C 19.125 25.488281 20.636719 27 22.5 27 C 24.363281 27 25.875 25.488281 25.875 23.625 C 25.875 21.761719 24.363281 20.25 22.5 20.25 C 21.703125 20.25 20.96875 20.527344 20.390625 20.988281 L 16.769531 18.738281 C 16.824219 18.496094 16.875 18.261719 16.875 18 C 16.875 17.738281 16.824219 17.503906 16.769531 17.261719 L 20.390625 15.011719 C 20.96875 15.472656 21.703125 15.75 22.5 15.75 C 24.363281 15.75 25.875 14.238281 25.875 12.375 C 25.875 10.511719 24.363281 9 22.5 9 Z M 22.5 9 "/>
</g>
</defs>
<g id="surface1">
<path style=" stroke:none;fill-rule:evenodd;fill:rgb(14.509804%,16.470588%,20.784314%);fill-opacity:1;" d="M 8.40625 2.136719 L 27.59375 2.136719 C 31.054688 2.136719 33.863281 4.945312 33.863281 8.40625 L 33.863281 27.59375 C 33.863281 31.054688 31.054688 33.863281 27.59375 33.863281 L 8.40625 33.863281 C 4.945312 33.863281 2.136719 31.054688 2.136719 27.59375 L 2.136719 8.40625 C 2.136719 4.945312 4.945312 2.136719 8.40625 2.136719 Z M 8.40625 2.136719 "/>
<use xlink:href="#surface6"/>
</g>
</svg>
