<?xml version="1.0" encoding="UTF-8"?>
<svg xmlns="http://www.w3.org/2000/svg" xmlns:xlink="http://www.w3.org/1999/xlink" width="36pt" height="36pt" viewBox="0 0 36 36" version="1.1">
<g id="surface1">
<path style=" stroke:none;fill-rule:evenodd;fill:rgb(78.431373%,53.72549%,21.568627%);fill-opacity:1;" d="M 8.40625 2.136719 L 27.59375 2.136719 C 31.054688 2.136719 33.863281 4.945312 33.863281 8.40625 L 33.863281 27.59375 C 33.863281 31.054688 31.054688 33.863281 27.59375 33.863281 L 8.40625 33.863281 C 4.945312 33.863281 2.136719 31.054688 2.136719 27.59375 L 2.136719 8.40625 C 2.136719 4.945312 4.945312 2.136719 8.40625 2.136719 Z M 8.40625 2.136719 "/>
<path style=" stroke:none;fill-rule:nonzero;fill:rgb(86.666667%,76.862745%,31.372549%);fill-opacity:1;" d="M 19.125 5.683594 L 19.125 16.875 L 30.3125 16.875 C 29.769531 10.9375 25.066406 6.230469 19.125 5.683594 Z M 16.875 5.6875 C 10.933594 6.230469 6.230469 10.9375 5.683594 16.875 L 16.875 16.875 Z M 5.6875 19.125 C 6.230469 25.066406 10.9375 29.769531 16.875 30.316406 L 16.875 19.125 Z M 19.125 19.125 L 19.125 30.3125 C 25.066406 29.769531 29.769531 25.0625 30.316406 19.125 Z M 19.125 19.125 "/>
</g>
</svg>
