<?xml version="1.0" encoding="UTF-8"?>
<svg xmlns="http://www.w3.org/2000/svg" xmlns:xlink="http://www.w3.org/1999/xlink" width="36pt" height="36pt" viewBox="0 0 36 36" version="1.1">
<defs>
<clipPath id="clip1">
  <rect width="36" height="36"/>
</clipPath>
<g id="surface6" clip-path="url(#clip1)">
<path style=" stroke:none;fill-rule:nonzero;fill:rgb(100%,100%,100%);fill-opacity:1;" d="M 12.769531 24.96875 C 11.710938 24.96875 10.980469 25.085938 10.574219 25.320312 C 10.167969 25.554688 9.964844 25.957031 9.964844 26.523438 C 9.964844 26.972656 10.113281 27.332031 10.417969 27.601562 C 10.726562 27.863281 11.140625 27.996094 11.667969 27.996094 C 12.390625 27.996094 12.972656 27.746094 13.40625 27.25 C 13.847656 26.746094 14.066406 26.082031 14.066406 25.253906 L 14.066406 24.96875 L 12.769531 24.96875 M 15.375 24.445312 L 15.375 28.859375 L 14.070312 28.859375 L 14.070312 27.683594 C 13.769531 28.152344 13.398438 28.5 12.953125 28.726562 C 12.507812 28.949219 11.964844 29.058594 11.320312 29.058594 C 10.507812 29.058594 9.859375 28.839844 9.375 28.394531 C 8.898438 27.949219 8.65625 27.351562 8.65625 26.605469 C 8.65625 25.738281 8.957031 25.082031 9.550781 24.636719 C 10.152344 24.195312 11.046875 23.976562 12.238281 23.976562 L 14.070312 23.976562 L 14.070312 23.851562 C 14.070312 23.265625 13.871094 22.8125 13.472656 22.496094 C 13.078125 22.175781 12.527344 22.011719 11.8125 22.011719 C 11.355469 22.011719 10.914062 22.066406 10.484375 22.171875 C 10.050781 22.277344 9.636719 22.4375 9.238281 22.648438 L 9.238281 21.472656 C 9.71875 21.292969 10.183594 21.160156 10.632812 21.074219 C 11.082031 20.980469 11.519531 20.933594 11.945312 20.933594 C 13.097656 20.933594 13.957031 21.226562 14.523438 21.804688 C 15.089844 22.386719 15.375 23.265625 15.375 24.445312 M 10.972656 17.542969 L 12.976562 20.128906 L 11.890625 20.128906 L 9.574219 17.542969 L 10.972656 17.542969 "/>
</g>
</defs>
<g id="surface1">
<path style=" stroke:none;fill-rule:evenodd;fill:rgb(0%,77.254902%,92.54902%);fill-opacity:1;" d="M 21.109375 33.863281 L 21.109375 17.226562 C 21.109375 16.789062 20.933594 16.398438 20.648438 16.113281 C 20.363281 15.832031 19.972656 15.652344 19.535156 15.652344 L 2.753906 15.652344 C 2.511719 15.652344 2.339844 15.8125 2.136719 15.910156 L 2.136719 27.589844 C 2.136719 31.066406 4.933594 33.863281 8.410156 33.863281 Z M 21.109375 33.863281 "/>
<path style=" stroke:none;fill-rule:evenodd;fill:rgb(76.078431%,76.078431%,76.078431%);fill-opacity:1;" d="M 21.109375 18.972656 L 21.109375 33.863281 L 27.59375 33.863281 C 31.066406 33.863281 33.863281 31.066406 33.863281 27.589844 L 33.863281 18.964844 C 33.859375 18.964844 33.851562 18.972656 33.847656 18.972656 Z M 21.109375 18.972656 "/>
<path style=" stroke:none;fill-rule:evenodd;fill:rgb(76.078431%,76.078431%,76.078431%);fill-opacity:1;" d="M 17.25 2.136719 L 8.410156 2.136719 C 4.933594 2.136719 2.136719 4.933594 2.136719 8.40625 L 2.136719 15.910156 C 2.339844 15.8125 2.511719 15.652344 2.753906 15.652344 L 17.179688 15.652344 L 17.179688 2.304688 C 17.179688 2.238281 17.242188 2.199219 17.25 2.136719 Z M 17.25 2.136719 "/>
<path style=" stroke:none;fill-rule:evenodd;fill:rgb(84.705882%,85.490196%,86.27451%);fill-opacity:1;" d="M 17.25 2.136719 C 17.242188 2.199219 17.179688 2.238281 17.179688 2.304688 L 17.179688 15.652344 L 19.535156 15.652344 C 19.972656 15.652344 20.363281 15.832031 20.648438 16.113281 C 20.933594 16.398438 21.109375 16.789062 21.109375 17.226562 L 21.109375 18.972656 L 33.847656 18.972656 C 33.851562 18.972656 33.859375 18.964844 33.863281 18.964844 L 33.863281 8.40625 C 33.863281 4.933594 31.066406 2.136719 27.59375 2.136719 Z M 17.25 2.136719 "/>
<path style=" stroke:none;fill-rule:nonzero;fill:rgb(61.568627%,61.568627%,61.568627%);fill-opacity:1;" d="M 29.035156 10.667969 L 29.035156 11.257812 L 23.46875 11.257812 C 23.519531 12.09375 23.769531 12.730469 24.21875 13.167969 C 24.671875 13.601562 25.296875 13.820312 26.101562 13.820312 C 26.566406 13.820312 27.015625 13.761719 27.449219 13.648438 C 27.886719 13.535156 28.324219 13.363281 28.753906 13.132812 L 28.753906 14.28125 C 28.320312 14.464844 27.875 14.605469 27.417969 14.699219 C 26.960938 14.796875 26.496094 14.84375 26.027344 14.84375 C 24.851562 14.84375 23.921875 14.503906 23.230469 13.820312 C 22.546875 13.132812 22.207031 12.207031 22.207031 11.042969 C 22.207031 9.835938 22.53125 8.878906 23.179688 8.171875 C 23.832031 7.460938 24.710938 7.105469 25.816406 7.105469 C 26.808594 7.105469 27.59375 7.425781 28.167969 8.066406 C 28.746094 8.703125 29.035156 9.570312 29.035156 10.667969 M 27.824219 10.3125 C 27.816406 9.648438 27.628906 9.121094 27.265625 8.726562 C 26.90625 8.332031 26.425781 8.132812 25.832031 8.132812 C 25.15625 8.132812 24.613281 8.324219 24.207031 8.707031 C 23.800781 9.085938 23.570312 9.625 23.507812 10.316406 L 27.824219 10.3125 M 26.363281 4.441406 L 27.699219 4.441406 L 27.699219 5.769531 L 26.363281 5.769531 L 26.363281 4.441406 M 23.789062 4.441406 L 25.125 4.441406 L 25.125 5.769531 L 23.789062 5.769531 L 23.789062 4.441406 "/>
<use xlink:href="#surface6"/>
</g>
</svg>
