<?xml version="1.0" encoding="UTF-8"?>
<svg xmlns="http://www.w3.org/2000/svg" xmlns:xlink="http://www.w3.org/1999/xlink" width="36pt" height="36pt" viewBox="0 0 36 36" version="1.1">
<defs>
<clipPath id="clip1">
  <rect width="36" height="36"/>
</clipPath>
<g id="surface6" clip-path="url(#clip1)">
<path style=" stroke:none;fill-rule:nonzero;fill:rgb(76.078431%,20.784314%,16.470588%);fill-opacity:1;" d="M 11.578125 2.136719 C 10.679688 2.136719 10.679688 2.90625 10.679688 2.90625 L 10.679688 15.636719 L 12.929688 14.511719 L 15.179688 15.636719 L 15.179688 2.90625 C 15.179688 2.136719 14.277344 2.136719 14.277344 2.136719 Z M 11.578125 2.136719 "/>
</g>
</defs>
<g id="surface1">
<path style=" stroke:none;fill-rule:evenodd;fill:rgb(80%,80%,80%);fill-opacity:1;" d="M 8.332031 2.136719 L 27.515625 2.136719 C 30.980469 2.136719 33.789062 4.945312 33.789062 8.40625 L 33.789062 27.59375 C 33.789062 31.054688 30.980469 33.863281 27.515625 33.863281 L 8.332031 33.863281 C 4.867188 33.863281 2.058594 31.054688 2.058594 27.59375 L 2.058594 8.40625 C 2.058594 4.945312 4.867188 2.136719 8.332031 2.136719 Z M 8.332031 2.136719 "/>
<path style=" stroke:none;fill-rule:nonzero;fill:rgb(70.196078%,70.196078%,70.196078%);fill-opacity:1;" d="M 18.535156 33.863281 L 27.667969 33.863281 C 28.535156 33.863281 29.363281 33.6875 30.113281 33.371094 C 30.863281 33.054688 31.542969 32.597656 32.109375 32.03125 C 32.675781 31.464844 33.132812 30.789062 33.449219 30.035156 C 33.765625 29.285156 33.941406 28.460938 33.941406 27.589844 L 33.941406 8.40625 C 33.941406 7.539062 33.765625 6.710938 33.449219 5.960938 C 33.132812 5.210938 32.675781 4.535156 32.109375 3.96875 C 31.542969 3.402344 30.863281 2.941406 30.113281 2.625 C 29.363281 2.308594 28.535156 2.136719 27.667969 2.136719 L 18.535156 2.136719 Z M 18.535156 33.863281 "/>
<use xlink:href="#surface6"/>
</g>
</svg>
