<?xml version="1.0" encoding="UTF-8"?>
<svg xmlns="http://www.w3.org/2000/svg" xmlns:xlink="http://www.w3.org/1999/xlink" width="36pt" height="36pt" viewBox="0 0 36 36" version="1.1">
<defs>
<clipPath id="clip1">
  <rect width="36" height="36"/>
</clipPath>
<g id="surface6" clip-path="url(#clip1)">
<path style=" stroke:none;fill-rule:nonzero;fill:rgb(72.941176%,13.333333%,100%);fill-opacity:1;" d="M 32.898438 24.527344 C 32.898438 28.683594 29.527344 32.054688 25.371094 32.054688 C 21.214844 32.054688 17.84375 28.683594 17.84375 24.527344 C 17.84375 20.367188 21.214844 17 25.371094 17 C 29.527344 17 32.898438 20.367188 32.898438 24.527344 Z M 32.898438 24.527344 "/>
</g>
</defs>
<g id="surface1">
<path style=" stroke:none;fill-rule:evenodd;fill:rgb(51.764706%,51.764706%,51.764706%);fill-opacity:1;" d="M 8.40625 2.136719 L 27.59375 2.136719 C 31.054688 2.136719 33.863281 4.945312 33.863281 8.40625 L 33.863281 27.59375 C 33.863281 31.054688 31.054688 33.863281 27.59375 33.863281 L 8.40625 33.863281 C 4.945312 33.863281 2.136719 31.054688 2.136719 27.59375 L 2.136719 8.40625 C 2.136719 4.945312 4.945312 2.136719 8.40625 2.136719 Z M 8.40625 2.136719 "/>
<path style=" stroke:none;fill-rule:nonzero;fill:rgb(51.764706%,51.764706%,51.764706%);fill-opacity:1;" d="M 17.84375 10.882812 C 13.945312 10.882812 10.785156 14.042969 10.785156 17.941406 C 10.785156 21.835938 13.945312 24.996094 17.84375 24.996094 C 21.742188 24.996094 24.898438 21.835938 24.898438 17.941406 C 24.898438 14.042969 21.742188 10.882812 17.84375 10.882812 Z M 17.84375 15.117188 C 19.402344 15.117188 20.667969 16.378906 20.667969 17.941406 C 20.667969 19.5 19.402344 20.761719 17.84375 20.761719 C 16.285156 20.761719 15.019531 19.5 15.019531 17.941406 C 15.019531 16.378906 16.285156 15.117188 17.84375 15.117188 Z M 17.84375 15.117188 "/>
<path style=" stroke:none;fill-rule:nonzero;fill:rgb(100%,100%,100%);fill-opacity:1;" d="M 17.84375 4.765625 C 10.546875 4.765625 4.671875 10.640625 4.671875 17.941406 C 4.671875 25.238281 10.546875 31.113281 17.84375 31.113281 C 25.140625 31.113281 31.015625 25.238281 31.015625 17.941406 C 31.015625 10.640625 25.140625 4.765625 17.84375 4.765625 Z M 17.84375 12.292969 C 20.960938 12.292969 23.488281 14.820312 23.488281 17.941406 C 23.488281 21.058594 20.960938 23.585938 17.84375 23.585938 C 14.726562 23.585938 12.199219 21.058594 12.199219 17.941406 C 12.199219 14.820312 14.726562 12.292969 17.84375 12.292969 Z M 17.84375 12.292969 "/>
<use xlink:href="#surface6"/>
<path style=" stroke:none;fill-rule:nonzero;fill:rgb(100%,100%,100%);fill-opacity:1;" d="M 21.605469 24.839844 C 21.605469 26.917969 23.292969 28.605469 25.371094 28.605469 C 27.429688 28.605469 29.097656 26.953125 29.128906 24.902344 C 29.132812 24.882812 29.132812 24.859375 29.132812 24.839844 C 29.132812 24.492188 28.855469 24.210938 28.507812 24.210938 C 28.160156 24.210938 27.878906 24.492188 27.878906 24.839844 C 27.878906 26.226562 26.757812 27.347656 25.371094 27.347656 C 23.984375 27.347656 22.863281 26.226562 22.863281 24.839844 C 22.863281 23.453125 23.984375 22.332031 25.371094 22.332031 L 25.371094 23.585938 L 27.878906 21.703125 L 25.371094 19.820312 L 25.371094 21.074219 C 23.292969 21.074219 21.609375 22.761719 21.609375 24.839844 Z M 21.605469 24.839844 "/>
</g>
</svg>
