<?xml version="1.0" encoding="UTF-8"?>
<svg xmlns="http://www.w3.org/2000/svg" xmlns:xlink="http://www.w3.org/1999/xlink" width="36pt" height="36pt" viewBox="0 0 36 36" version="1.1">
<g id="surface1">
<path style=" stroke:none;fill-rule:evenodd;fill:rgb(26.666667%,30.588235%,51.372549%);fill-opacity:1;" d="M 8.40625 2.136719 L 27.59375 2.136719 C 31.054688 2.136719 33.863281 4.945312 33.863281 8.40625 L 33.863281 27.59375 C 33.863281 31.054688 31.054688 33.863281 27.59375 33.863281 L 8.40625 33.863281 C 4.945312 33.863281 2.136719 31.054688 2.136719 27.59375 L 2.136719 8.40625 C 2.136719 4.945312 4.945312 2.136719 8.40625 2.136719 Z M 8.40625 2.136719 "/>
<path style=" stroke:none;fill-rule:nonzero;fill:rgb(10.980392%,51.372549%,67.058824%);fill-opacity:1;" d="M 7.875 10.191406 C 7.875 10.191406 10.238281 10.125 12.183594 10.125 C 14.886719 10.125 18 11.023438 18 15.75 C 18 20.476562 14.882812 21.375 12.183594 21.359375 C 11.585938 21.382812 11.25 21.390625 11.25 21.390625 L 11.25 25.875 L 7.875 25.875 Z M 11.25 19.117188 C 11.59375 19.152344 11.59375 19.136719 12.101562 19.128906 C 13.796875 19.109375 14.625 17.257812 14.625 15.636719 C 14.625 14.183594 13.980469 12.4375 12.351562 12.375 C 11.703125 12.351562 11.25 12.375 11.25 12.375 Z M 11.25 19.117188 "/>
<path style=" stroke:none;fill-rule:nonzero;fill:rgb(10.980392%,51.372549%,67.058824%);fill-opacity:1;" d="M 20.25 22.5 C 20.867188 22.910156 22.042969 23.625 23.03125 23.625 C 24.042969 23.625 24.75 23 24.75 22.394531 C 24.75 21.789062 24.5625 21.046875 23.308594 20.585938 C 21.085938 19.761719 20.230469 18.777344 20.25 17.398438 C 20.25 15.167969 21.964844 13.5 24.628906 13.5 C 25.875 13.5 27.5625 14.625 27.5625 14.625 L 27.5625 16.875 C 27.078125 16.582031 25.660156 15.75 24.738281 15.75 C 23.921875 15.75 23.113281 16.40625 23.113281 17.007812 C 23.113281 17.789062 23.878906 17.855469 25.199219 18.367188 C 27.246094 19.140625 28.101562 20.277344 28.125 22.019531 C 28.125 24.222656 26.5625 25.976562 23.460938 25.871094 C 22.398438 25.832031 21.0625 25.234375 20.25 24.75 C 20.25 23.871094 20.25 23.378906 20.25 22.5 Z M 20.25 22.5 "/>
</g>
</svg>
