<?xml version="1.0" encoding="UTF-8"?>
<svg xmlns="http://www.w3.org/2000/svg" xmlns:xlink="http://www.w3.org/1999/xlink" width="36pt" height="36pt" viewBox="0 0 36 36" version="1.1">
<g id="surface1">
<path style=" stroke:none;fill-rule:evenodd;fill:rgb(0%,50.196078%,20%);fill-opacity:1;" d="M 8.40625 2.136719 L 27.59375 2.136719 C 31.054688 2.136719 33.863281 4.945312 33.863281 8.40625 L 33.863281 27.59375 C 33.863281 31.054688 31.054688 33.863281 27.59375 33.863281 L 8.40625 33.863281 C 4.945312 33.863281 2.136719 31.054688 2.136719 27.59375 L 2.136719 8.40625 C 2.136719 4.945312 4.945312 2.136719 8.40625 2.136719 Z M 8.40625 2.136719 "/>
<path style=" stroke:none;fill-rule:nonzero;fill:rgb(50.196078%,100%,70.196078%);fill-opacity:1;" d="M 15.089844 20.339844 C 18.339844 22.261719 18.667969 23.738281 18 24.921875 C 17.332031 26.105469 15.925781 26.554688 12.679688 24.628906 C 9.433594 22.703125 5.761719 18.8125 5.460938 17.488281 C 6.726562 17.097656 11.847656 18.414062 15.089844 20.339844 Z M 15.089844 20.339844 "/>
<path style=" stroke:none;fill-rule:nonzero;fill:rgb(16.470588%,100%,50.196078%);fill-opacity:1;" d="M 17.714844 19.460938 C 19.589844 22.792969 19.15625 24.238281 18 24.921875 C 16.84375 25.605469 15.410156 25.269531 13.535156 21.9375 C 11.660156 18.605469 10.375 13.347656 10.761719 12.050781 C 12.046875 12.359375 15.839844 16.128906 17.714844 19.460938 Z M 17.714844 19.460938 "/>
<path style=" stroke:none;fill-rule:nonzero;fill:rgb(0%,83.137255%,33.333333%);fill-opacity:1;" d="M 20.414062 20.042969 C 20.414062 23.894531 19.332031 24.921875 18 24.921875 C 16.667969 24.921875 15.585938 23.894531 15.585938 20.042969 C 15.585938 16.195312 17.035156 10.988281 18 10.058594 C 18.964844 10.988281 20.414062 16.195312 20.414062 20.042969 Z M 20.414062 20.042969 "/>
<path style=" stroke:none;fill-rule:nonzero;fill:rgb(0%,66.666667%,26.666667%);fill-opacity:1;" d="M 22.464844 21.9375 C 20.589844 25.269531 19.15625 25.605469 18 24.921875 C 16.84375 24.238281 16.410156 22.792969 18.285156 19.460938 C 20.160156 16.128906 23.953125 12.359375 25.238281 12.050781 C 25.625 13.347656 24.339844 18.605469 22.464844 21.9375 Z M 22.464844 21.9375 "/>
<path style=" stroke:none;fill-rule:nonzero;fill:rgb(100%,100%,100%);fill-opacity:1;" d="M 23.320312 24.628906 C 20.074219 26.554688 18.667969 26.105469 18 24.921875 C 17.332031 23.738281 17.660156 22.261719 20.910156 20.339844 C 24.15625 18.414062 29.273438 17.097656 30.539062 17.488281 C 30.238281 18.8125 26.566406 22.703125 23.320312 24.628906 Z M 23.320312 24.628906 "/>
</g>
</svg>
