<?xml version="1.0" encoding="UTF-8"?>
<svg xmlns="http://www.w3.org/2000/svg" xmlns:xlink="http://www.w3.org/1999/xlink" width="36pt" height="36pt" viewBox="0 0 36 36" version="1.1">
<g id="surface1">
<path style=" stroke:none;fill-rule:evenodd;fill:rgb(72.941176%,17.647059%,17.647059%);fill-opacity:1;" d="M 8.40625 2.136719 L 27.59375 2.136719 C 31.054688 2.136719 33.863281 4.945312 33.863281 8.40625 L 33.863281 27.59375 C 33.863281 31.054688 31.054688 33.863281 27.59375 33.863281 L 8.40625 33.863281 C 4.945312 33.863281 2.136719 31.054688 2.136719 27.59375 L 2.136719 8.40625 C 2.136719 4.945312 4.945312 2.136719 8.40625 2.136719 Z M 8.40625 2.136719 "/>
<path style=" stroke:none;fill-rule:nonzero;fill:rgb(51.764706%,51.764706%,51.764706%);fill-opacity:1;" d="M 13.355469 7.339844 L 14.449219 7.339844 C 15.050781 7.339844 15.539062 7.847656 15.539062 8.46875 L 15.539062 15.234375 C 15.539062 15.855469 15.050781 16.359375 14.449219 16.359375 L 13.355469 16.359375 C 12.75 16.359375 12.261719 15.855469 12.261719 15.234375 L 12.261719 8.46875 C 12.261719 7.847656 12.75 7.339844 13.355469 7.339844 Z M 13.355469 7.339844 "/>
<path style=" stroke:none;fill-rule:nonzero;fill:rgb(51.764706%,51.764706%,51.764706%);fill-opacity:1;" d="M 21.550781 7.339844 L 22.644531 7.339844 C 23.25 7.339844 23.738281 7.847656 23.738281 8.46875 L 23.738281 15.234375 C 23.738281 15.855469 23.25 16.359375 22.644531 16.359375 L 21.550781 16.359375 C 20.949219 16.359375 20.460938 15.855469 20.460938 15.234375 L 20.460938 8.46875 C 20.460938 7.847656 20.949219 7.339844 21.550781 7.339844 Z M 21.550781 7.339844 "/>
<path style=" stroke:none;fill-rule:nonzero;fill:rgb(100%,100%,100%);fill-opacity:1;" d="M 10.894531 15.539062 L 25.105469 15.539062 C 25.710938 15.539062 26.199219 16.03125 26.199219 16.632812 L 26.199219 27.566406 C 26.199219 28.167969 25.710938 28.660156 25.105469 28.660156 L 10.894531 28.660156 C 10.289062 28.660156 9.800781 28.167969 9.800781 27.566406 L 9.800781 16.632812 C 9.800781 16.03125 10.289062 15.539062 10.894531 15.539062 Z M 10.894531 15.539062 "/>
</g>
</svg>
