<?xml version="1.0" encoding="UTF-8"?>
<svg xmlns="http://www.w3.org/2000/svg" xmlns:xlink="http://www.w3.org/1999/xlink" width="36pt" height="36pt" viewBox="0 0 36 36" version="1.1">
<defs>
<clipPath id="clip1">
  <rect width="36" height="36"/>
</clipPath>
<g id="surface6" clip-path="url(#clip1)">
<path style=" stroke:none;fill-rule:nonzero;fill:rgb(100%,100%,100%);fill-opacity:1;" d="M 7.875 9.5625 C 7.875 10.75 8.378906 11.25 9.5625 11.25 C 17.949219 11.25 24.75 18.050781 24.75 26.4375 C 24.75 27.488281 25.324219 28.125 26.4375 28.125 C 27.585938 28.125 28.125 27.453125 28.125 26.4375 C 28.125 16.183594 19.816406 7.875 9.5625 7.875 C 8.441406 7.875 7.875 8.421875 7.875 9.5625 Z M 7.875 16.3125 C 7.875 17.46875 8.347656 18 9.5625 18 C 14.222656 18 18 21.777344 18 26.4375 C 18 27.429688 18.570312 28.125 19.6875 28.125 C 20.777344 28.125 21.375 27.519531 21.375 26.4375 C 21.375 19.914062 16.085938 14.625 9.5625 14.625 C 8.472656 14.625 7.875 15.105469 7.875 16.3125 Z M 11.25 21.375 C 9.386719 21.375 7.875 22.886719 7.875 24.75 C 7.875 26.613281 9.386719 28.125 11.25 28.125 C 13.113281 28.125 14.625 26.613281 14.625 24.75 C 14.625 22.886719 13.113281 21.375 11.25 21.375 Z M 11.25 21.375 "/>
</g>
</defs>
<g id="surface1">
<path style=" stroke:none;fill-rule:evenodd;fill:rgb(96.078431%,57.647059%,20.784314%);fill-opacity:1;" d="M 8.40625 2.136719 L 27.59375 2.136719 C 31.054688 2.136719 33.863281 4.945312 33.863281 8.40625 L 33.863281 27.59375 C 33.863281 31.054688 31.054688 33.863281 27.59375 33.863281 L 8.40625 33.863281 C 4.945312 33.863281 2.136719 31.054688 2.136719 27.59375 L 2.136719 8.40625 C 2.136719 4.945312 4.945312 2.136719 8.40625 2.136719 Z M 8.40625 2.136719 "/>
<use xlink:href="#surface6"/>
</g>
</svg>
