<?xml version="1.0" encoding="UTF-8"?>
<svg xmlns="http://www.w3.org/2000/svg" xmlns:xlink="http://www.w3.org/1999/xlink" width="36pt" height="36pt" viewBox="0 0 36 36" version="1.1">
<g id="surface1">
<path style=" stroke:none;fill-rule:evenodd;fill:rgb(81.960784%,100%,25.882353%);fill-opacity:1;" d="M 8.40625 2.136719 L 27.59375 2.136719 C 31.054688 2.136719 33.863281 4.945312 33.863281 8.40625 L 33.863281 27.59375 C 33.863281 31.054688 31.054688 33.863281 27.59375 33.863281 L 8.40625 33.863281 C 4.945312 33.863281 2.136719 31.054688 2.136719 27.59375 L 2.136719 8.40625 C 2.136719 4.945312 4.945312 2.136719 8.40625 2.136719 Z M 8.40625 2.136719 "/>
<path style=" stroke:none;fill-rule:nonzero;fill:rgb(30.980392%,30.980392%,30.980392%);fill-opacity:1;" d="M 30.375 20.25 C 28.324219 22.5 26.042969 24.90625 22.847656 24.6875 C 21.527344 24.488281 20.082031 23.011719 19.023438 21.546875 C 17.679688 19.691406 16.550781 17.523438 15.339844 15.515625 C 14.320312 13.988281 13.046875 12.496094 10.578125 14.328125 C 9.738281 14.921875 8.914062 15.988281 8.277344 17.128906 C 7.257812 18.949219 9.03125 21.390625 10.6875 21.375 C 17.515625 21.308594 25.101562 14.40625 29.25 11.25 C 25.496094 15.28125 23.480469 17.59375 15.796875 22.082031 C 13.90625 23.167969 12.242188 23.859375 9.8125 24.453125 C 8.355469 24.808594 6.210938 25.136719 5.742188 23.59375 C 5.253906 21.980469 6.421875 19.5 6.664062 18.960938 C 8.5 14.902344 11.238281 10.6875 16.027344 11.3125 C 20.597656 11.910156 20.8125 19.039062 24.222656 20.914062 C 25.902344 21.835938 27.152344 21.9375 30.375 20.25 Z M 30.375 20.25 "/>
</g>
</svg>
