<?xml version="1.0" encoding="UTF-8"?>
<svg xmlns="http://www.w3.org/2000/svg" xmlns:xlink="http://www.w3.org/1999/xlink" width="36pt" height="36pt" viewBox="0 0 36 36" version="1.1">
<g id="surface1">
<path style=" stroke:none;fill-rule:evenodd;fill:rgb(27.058824%,70.588235%,28.627451%);fill-opacity:1;" d="M 8.40625 2.136719 L 27.59375 2.136719 C 31.054688 2.136719 33.863281 4.945312 33.863281 8.40625 L 33.863281 27.59375 C 33.863281 31.054688 31.054688 33.863281 27.59375 33.863281 L 8.40625 33.863281 C 4.945312 33.863281 2.136719 31.054688 2.136719 27.59375 L 2.136719 8.40625 C 2.136719 4.945312 4.945312 2.136719 8.40625 2.136719 Z M 8.40625 2.136719 "/>
<path style=" stroke:none;fill-rule:nonzero;fill:rgb(22.352941%,22.352941%,22.352941%);fill-opacity:1;" d="M 23.625 23.625 C 23.625 26.730469 21.105469 29.25 18 29.25 C 14.894531 29.25 12.375 26.730469 12.375 23.625 C 12.375 20.519531 14.894531 18 18 18 C 21.105469 18 23.625 20.519531 23.625 23.625 Z M 23.625 23.625 "/>
<path style=" stroke:none;fill-rule:nonzero;fill:rgb(22.352941%,22.352941%,22.352941%);fill-opacity:1;" d="M 28.125 16.875 C 28.125 22.46875 23.59375 27 18 27 C 12.40625 27 7.875 22.46875 7.875 16.875 C 7.875 11.28125 12.40625 6.75 18 6.75 C 23.59375 6.75 28.125 11.28125 28.125 16.875 Z M 28.125 16.875 "/>
<path style=" stroke:none;fill-rule:nonzero;fill:rgb(87.45098%,34.117647%,30.196078%);fill-opacity:1;" d="M 10.242188 16.996094 C 12 16.625 13.902344 17.117188 15.265625 18.484375 C 16.632812 19.847656 17.128906 21.75 16.757812 23.507812 C 15 23.878906 13.097656 23.382812 11.734375 22.015625 C 10.371094 20.652344 9.875 18.75 10.246094 16.992188 Z M 10.242188 16.996094 "/>
<path style=" stroke:none;fill-rule:nonzero;fill:rgb(87.45098%,34.117647%,30.196078%);fill-opacity:1;" d="M 25.753906 16.996094 C 24 16.625 22.097656 17.117188 20.734375 18.484375 C 19.367188 19.847656 18.871094 21.75 19.242188 23.507812 C 21 23.878906 22.902344 23.382812 24.265625 22.015625 C 25.632812 20.652344 26.125 18.75 25.753906 16.996094 Z M 25.753906 16.996094 "/>
</g>
</svg>
