<?xml version="1.0" encoding="UTF-8"?>
<svg xmlns="http://www.w3.org/2000/svg" xmlns:xlink="http://www.w3.org/1999/xlink" width="36pt" height="36pt" viewBox="0 0 36 36" version="1.1">
<g id="surface1">
<path style=" stroke:none;fill-rule:evenodd;fill:rgb(24.705882%,34.901961%,47.45098%);fill-opacity:1;" d="M 8.40625 2.136719 L 27.59375 2.136719 C 31.054688 2.136719 33.863281 4.945312 33.863281 8.40625 L 33.863281 27.59375 C 33.863281 31.054688 31.054688 33.863281 27.59375 33.863281 L 8.40625 33.863281 C 4.945312 33.863281 2.136719 31.054688 2.136719 27.59375 L 2.136719 8.40625 C 2.136719 4.945312 4.945312 2.136719 8.40625 2.136719 Z M 8.40625 2.136719 "/>
<path style=" stroke:none;fill-rule:evenodd;fill:rgb(100%,100%,100%);fill-opacity:1;" d="M 19.289062 16.734375 C 19.289062 17.679688 19.3125 18.464844 18.855469 19.304688 C 18.488281 19.984375 17.902344 20.40625 17.25 20.40625 C 16.363281 20.40625 15.84375 19.699219 15.84375 18.652344 C 15.84375 16.585938 17.613281 16.207031 19.289062 16.207031 L 19.289062 16.734375 M 21.625 22.640625 C 21.472656 22.78125 21.25 22.792969 21.078125 22.699219 C 20.3125 22.03125 20.171875 21.71875 19.746094 21.082031 C 18.476562 22.441406 17.578125 22.84375 15.929688 22.84375 C 13.980469 22.84375 12.460938 21.589844 12.460938 19.070312 C 12.460938 17.105469 13.480469 15.761719 14.929688 15.109375 C 16.183594 14.527344 17.941406 14.425781 19.285156 14.265625 L 19.285156 13.953125 C 19.285156 13.378906 19.328125 12.695312 19.007812 12.199219 C 18.722656 11.75 18.183594 11.566406 17.707031 11.566406 C 16.824219 11.566406 16.035156 12.042969 15.84375 13.023438 C 15.804688 13.242188 15.652344 13.457031 15.441406 13.46875 L 13.195312 13.214844 C 13.003906 13.171875 12.796875 13.011719 12.847656 12.707031 C 13.367188 9.863281 15.828125 9.003906 18.027344 9.003906 C 19.15625 9.003906 20.628906 9.316406 21.519531 10.207031 C 22.644531 11.308594 22.539062 12.777344 22.539062 14.375 L 22.539062 18.152344 C 22.539062 19.289062 22.988281 19.785156 23.410156 20.398438 C 23.558594 20.617188 23.59375 20.878906 23.40625 21.042969 C 22.933594 21.460938 22.09375 22.222656 21.628906 22.652344 L 21.621094 22.644531 "/>
<path style=" stroke:none;fill-rule:evenodd;fill:rgb(100%,60%,0%);fill-opacity:1;" d="M 25.679688 22.839844 C 25.046875 22.851562 24.304688 22.996094 23.742188 23.402344 C 23.566406 23.527344 23.597656 23.699219 23.789062 23.675781 C 24.421875 23.597656 25.839844 23.421875 26.089844 23.753906 C 26.34375 24.082031 25.808594 25.445312 25.574219 26.054688 C 25.5 26.238281 25.65625 26.3125 25.816406 26.171875 C 26.875 25.269531 27.148438 23.371094 26.929688 23.097656 C 26.824219 22.960938 26.308594 22.832031 25.679688 22.839844 Z M 9.132812 23.207031 C 9 23.222656 8.941406 23.386719 9.078125 23.515625 C 11.429688 25.691406 14.535156 26.996094 17.980469 26.996094 C 20.441406 26.996094 23.296875 26.203125 25.269531 24.714844 L 25.269531 24.710938 C 25.597656 24.464844 25.320312 24.09375 24.984375 24.238281 C 22.777344 25.203125 20.371094 25.664062 18.191406 25.664062 C 14.953125 25.664062 11.816406 24.753906 9.28125 23.242188 C 9.226562 23.210938 9.175781 23.203125 9.128906 23.207031 Z M 9.132812 23.207031 "/>
</g>
</svg>
