<?xml version="1.0" encoding="UTF-8"?>
<svg xmlns="http://www.w3.org/2000/svg" xmlns:xlink="http://www.w3.org/1999/xlink" width="36pt" height="36pt" viewBox="0 0 36 36" version="1.1">
<g id="surface1">
<path style=" stroke:none;fill-rule:evenodd;fill:rgb(57.647059%,69.411765%,20%);fill-opacity:1;" d="M 8.40625 2.136719 L 27.59375 2.136719 C 31.054688 2.136719 33.863281 4.945312 33.863281 8.40625 L 33.863281 27.59375 C 33.863281 31.054688 31.054688 33.863281 27.59375 33.863281 L 8.40625 33.863281 C 4.945312 33.863281 2.136719 31.054688 2.136719 27.59375 L 2.136719 8.40625 C 2.136719 4.945312 4.945312 2.136719 8.40625 2.136719 Z M 8.40625 2.136719 "/>
<path style=" stroke:none;fill-rule:nonzero;fill:rgb(100%,100%,100%);fill-opacity:1;" d="M 10.402344 16.613281 C 9.738281 16.613281 9.203125 17.070312 9.203125 17.640625 L 9.203125 22.78125 C 9.203125 23.351562 9.738281 23.808594 10.402344 23.808594 C 11.066406 23.808594 11.601562 23.351562 11.601562 22.78125 L 11.601562 17.640625 C 11.601562 17.070312 11.066406 16.613281 10.402344 16.613281 Z M 10.402344 16.613281 "/>
<path style=" stroke:none;fill-rule:nonzero;fill:rgb(100%,100%,100%);fill-opacity:1;" d="M 14.875 7.394531 C 14.804688 7.386719 14.734375 7.390625 14.664062 7.410156 C 14.378906 7.484375 14.210938 7.777344 14.285156 8.0625 L 14.960938 10.574219 C 11.605469 12.1875 11.601562 16.347656 11.601562 16.347656 L 11.601562 23.136719 C 11.601562 24.394531 12.554688 25.410156 13.734375 25.410156 L 14.800781 25.410156 L 14.800781 27.542969 C 14.800781 28.132812 15.277344 28.609375 15.867188 28.609375 C 16.457031 28.609375 16.933594 28.132812 16.933594 27.542969 L 16.933594 25.410156 L 19.066406 25.410156 L 19.066406 27.542969 C 19.066406 28.132812 19.542969 28.609375 20.132812 28.609375 C 20.722656 28.609375 21.199219 28.132812 21.199219 27.542969 L 21.199219 25.410156 L 22.265625 25.410156 C 23.449219 25.410156 24.398438 24.394531 24.398438 23.136719 L 24.398438 16.347656 C 24.398438 16.347656 24.394531 12.1875 21.039062 10.578125 L 21.714844 8.0625 C 21.789062 7.777344 21.621094 7.484375 21.335938 7.410156 C 21.050781 7.332031 20.761719 7.5 20.683594 7.785156 L 20.035156 10.203125 C 19.441406 10.042969 18.769531 9.949219 18 9.949219 C 17.230469 9.949219 16.558594 10.042969 15.964844 10.203125 L 15.316406 7.785156 C 15.261719 7.570312 15.082031 7.425781 14.875 7.394531 Z M 14.875 7.394531 "/>
<path style=" stroke:none;fill-rule:nonzero;fill:rgb(100%,100%,100%);fill-opacity:1;" d="M 25.597656 16.613281 C 24.933594 16.613281 24.398438 17.070312 24.398438 17.640625 L 24.398438 22.78125 C 24.398438 23.351562 24.933594 23.808594 25.597656 23.808594 C 26.261719 23.808594 26.796875 23.351562 26.796875 22.78125 L 26.796875 17.640625 C 26.796875 17.070312 26.261719 16.613281 25.597656 16.613281 Z M 25.597656 16.613281 "/>
<path style=" stroke:none;fill-rule:nonzero;fill:rgb(57.647059%,69.411765%,20%);fill-opacity:1;" d="M 13.441406 15.8125 L 22.558594 15.8125 C 22.691406 15.8125 22.796875 15.992188 22.796875 16.210938 C 22.796875 16.433594 22.691406 16.613281 22.558594 16.613281 L 13.441406 16.613281 C 13.308594 16.613281 13.203125 16.433594 13.203125 16.210938 C 13.203125 15.992188 13.308594 15.8125 13.441406 15.8125 Z M 13.441406 15.8125 "/>
<path style=" stroke:none;fill-rule:nonzero;fill:rgb(57.647059%,69.411765%,20%);fill-opacity:1;" d="M 15.601562 13.414062 C 15.601562 13.855469 15.242188 14.214844 14.800781 14.214844 C 14.359375 14.214844 14 13.855469 14 13.414062 C 14 12.972656 14.359375 12.613281 14.800781 12.613281 C 15.242188 12.613281 15.601562 12.972656 15.601562 13.414062 Z M 15.601562 13.414062 "/>
<path style=" stroke:none;fill-rule:nonzero;fill:rgb(57.647059%,69.411765%,20%);fill-opacity:1;" d="M 22 13.414062 C 22 13.855469 21.640625 14.214844 21.199219 14.214844 C 20.757812 14.214844 20.398438 13.855469 20.398438 13.414062 C 20.398438 12.972656 20.757812 12.613281 21.199219 12.613281 C 21.640625 12.613281 22 12.972656 22 13.414062 Z M 22 13.414062 "/>
</g>
</svg>
