<?xml version="1.0" encoding="UTF-8"?>
<svg xmlns="http://www.w3.org/2000/svg" xmlns:xlink="http://www.w3.org/1999/xlink" width="36pt" height="36pt" viewBox="0 0 36 36" version="1.1">
<g id="surface1">
<path style=" stroke:none;fill-rule:evenodd;fill:rgb(30.980392%,30.980392%,30.980392%);fill-opacity:1;" d="M 8.40625 2.136719 L 27.59375 2.136719 C 31.054688 2.136719 33.863281 4.945312 33.863281 8.40625 L 33.863281 27.59375 C 33.863281 31.054688 31.054688 33.863281 27.59375 33.863281 L 8.40625 33.863281 C 4.945312 33.863281 2.136719 31.054688 2.136719 27.59375 L 2.136719 8.40625 C 2.136719 4.945312 4.945312 2.136719 8.40625 2.136719 Z M 8.40625 2.136719 "/>
<path style=" stroke:none;fill-rule:nonzero;fill:rgb(100%,38.823529%,38.823529%);fill-opacity:1;" d="M 7.921875 23.042969 L 11.546875 23.042969 C 12.410156 23.042969 13.109375 23.699219 13.109375 24.511719 L 13.109375 28.324219 C 13.109375 29.136719 12.410156 29.792969 11.546875 29.792969 L 7.921875 29.792969 C 7.058594 29.792969 6.359375 29.136719 6.359375 28.324219 L 6.359375 24.511719 C 6.359375 23.699219 7.058594 23.042969 7.921875 23.042969 Z M 7.921875 23.042969 "/>
<path style=" stroke:none;fill-rule:nonzero;fill:rgb(100%,38.823529%,38.823529%);fill-opacity:1;" d="M 7.921875 12.917969 L 11.546875 12.917969 C 12.410156 12.917969 13.109375 13.574219 13.109375 14.386719 L 13.109375 18.199219 C 13.109375 19.011719 12.410156 19.667969 11.546875 19.667969 L 7.921875 19.667969 C 7.058594 19.667969 6.359375 19.011719 6.359375 18.199219 L 6.359375 14.386719 C 6.359375 13.574219 7.058594 12.917969 7.921875 12.917969 Z M 7.921875 12.917969 "/>
<path style=" stroke:none;fill-rule:nonzero;fill:rgb(100%,38.823529%,38.823529%);fill-opacity:1;" d="M 18.046875 23.042969 L 21.671875 23.042969 C 22.535156 23.042969 23.234375 23.699219 23.234375 24.511719 L 23.234375 28.324219 C 23.234375 29.136719 22.535156 29.792969 21.671875 29.792969 L 18.046875 29.792969 C 17.183594 29.792969 16.484375 29.136719 16.484375 28.324219 L 16.484375 24.511719 C 16.484375 23.699219 17.183594 23.042969 18.046875 23.042969 Z M 18.046875 23.042969 "/>
<path style=" stroke:none;fill-rule:nonzero;fill:rgb(100%,38.823529%,38.823529%);fill-opacity:1;" d="M 18.046875 12.917969 L 21.671875 12.917969 C 22.535156 12.917969 23.234375 13.574219 23.234375 14.386719 L 23.234375 18.199219 C 23.234375 19.011719 22.535156 19.667969 21.671875 19.667969 L 18.046875 19.667969 C 17.183594 19.667969 16.484375 19.011719 16.484375 18.199219 L 16.484375 14.386719 C 16.484375 13.574219 17.183594 12.917969 18.046875 12.917969 Z M 18.046875 12.917969 "/>
</g>
</svg>
