<?xml version="1.0" encoding="UTF-8"?>
<svg xmlns="http://www.w3.org/2000/svg" xmlns:xlink="http://www.w3.org/1999/xlink" width="36pt" height="36pt" viewBox="0 0 36 36" version="1.1">
<g id="surface1">
<path style=" stroke:none;fill-rule:evenodd;fill:rgb(80%,80%,80%);fill-opacity:1;" d="M 8.40625 2.136719 L 27.59375 2.136719 C 31.054688 2.136719 33.863281 4.945312 33.863281 8.40625 L 33.863281 27.59375 C 33.863281 31.054688 31.054688 33.863281 27.59375 33.863281 L 8.40625 33.863281 C 4.945312 33.863281 2.136719 31.054688 2.136719 27.59375 L 2.136719 8.40625 C 2.136719 4.945312 4.945312 2.136719 8.40625 2.136719 Z M 8.40625 2.136719 "/>
<path style=" stroke:none;fill-rule:nonzero;fill:rgb(11.764706%,61.176471%,87.843137%);fill-opacity:1;" d="M 15.953125 8.109375 C 15.167969 8.304688 14.566406 8.921875 14.410156 9.691406 L 13.515625 14.058594 L 9.316406 15.820312 C 8.582031 16.128906 8.089844 16.816406 8.050781 17.59375 C 8.007812 18.371094 8.421875 19.101562 9.121094 19.484375 L 13.109375 21.660156 L 13.527344 26.09375 C 13.601562 26.871094 14.121094 27.539062 14.867188 27.816406 C 15.613281 28.097656 16.457031 27.9375 17.046875 27.410156 L 20.40625 24.390625 L 24.863281 25.371094 C 25.644531 25.542969 26.457031 25.265625 26.960938 24.660156 C 27.460938 24.054688 27.570312 23.222656 27.234375 22.515625 L 25.320312 18.472656 L 27.660156 14.644531 C 28.066406 13.976562 28.050781 13.140625 27.613281 12.488281 C 27.179688 11.835938 26.402344 11.476562 25.605469 11.570312 L 21.066406 12.089844 L 18.050781 8.742188 C 17.527344 8.164062 16.71875 7.917969 15.949219 8.109375 Z M 15.953125 8.109375 "/>
</g>
</svg>
