<?xml version="1.0" encoding="UTF-8"?>
<svg xmlns="http://www.w3.org/2000/svg" xmlns:xlink="http://www.w3.org/1999/xlink" width="36pt" height="36pt" viewBox="0 0 36 36" version="1.1">
<g id="surface1">
<path style=" stroke:none;fill-rule:evenodd;fill:rgb(42.745098%,89.803922%,53.333333%);fill-opacity:1;" d="M 8.40625 2.136719 L 27.59375 2.136719 C 31.054688 2.136719 33.863281 4.945312 33.863281 8.40625 L 33.863281 27.59375 C 33.863281 31.054688 31.054688 33.863281 27.59375 33.863281 L 8.40625 33.863281 C 4.945312 33.863281 2.136719 31.054688 2.136719 27.59375 L 2.136719 8.40625 C 2.136719 4.945312 4.945312 2.136719 8.40625 2.136719 Z M 8.40625 2.136719 "/>
<path style=" stroke:none;fill-rule:nonzero;fill:rgb(0%,58.823529%,53.333333%);fill-opacity:1;" d="M 7.4375 8.308594 L 7.4375 26.585938 C 7.4375 28.25 9.097656 28.25 9.097656 28.25 L 30.699219 28.25 Z M 11.589844 17.339844 L 19.46875 24.09375 L 11.589844 24.09375 Z M 11.589844 17.339844 "/>
<path style=" stroke:none;fill-rule:evenodd;fill:rgb(63.529412%,63.529412%,63.529412%);fill-opacity:1;" d="M 17.453125 15.785156 C 17.886719 15.800781 18.285156 16.046875 18.496094 16.425781 L 24.726562 27.644531 L 24.882812 30.742188 L 22.546875 28.855469 L 17.40625 19.601562 L 17.40625 15.792969 C 17.421875 15.792969 17.4375 15.785156 17.453125 15.785156 Z M 17.453125 15.785156 "/>
<path style=" stroke:none;fill-rule:nonzero;fill:rgb(80%,80%,80%);fill-opacity:1;" d="M 17.359375 15.785156 C 16.921875 15.800781 16.527344 16.046875 16.316406 16.425781 L 10.085938 27.644531 L 9.929688 30.742188 L 12.265625 28.855469 L 13.140625 27.28125 C 14.472656 27.914062 15.929688 28.246094 17.40625 28.25 C 22.914062 28.25 27.375 23.785156 27.375 18.277344 L 24.882812 18.277344 C 24.882812 22.410156 21.535156 25.757812 17.40625 25.757812 C 16.355469 25.753906 15.316406 25.527344 14.355469 25.09375 L 17.40625 19.601562 L 17.40625 15.792969 C 17.390625 15.792969 17.375 15.785156 17.359375 15.785156 Z M 17.359375 15.785156 "/>
<path style=" stroke:none;fill-rule:nonzero;fill:rgb(30.980392%,30.980392%,30.980392%);fill-opacity:1;" d="M 15.746094 10.800781 L 15.746094 13.292969 L 14.914062 13.292969 C 13.253906 13.292969 13.253906 14.957031 13.253906 14.957031 L 13.253906 19.109375 C 13.253906 19.109375 15.328125 21.1875 16.160156 22.019531 C 16.90625 22.597656 18.148438 22.644531 18.789062 21.878906 L 21.558594 19.109375 L 21.558594 14.957031 C 21.558594 14.957031 21.558594 13.292969 19.898438 13.292969 L 19.066406 13.292969 L 19.066406 10.800781 Z M 15.746094 10.800781 "/>
<path style=" stroke:none;fill-rule:nonzero;fill:rgb(100%,100%,100%);fill-opacity:1;" d="M 19.066406 16.617188 C 19.066406 17.535156 18.324219 18.277344 17.40625 18.277344 C 16.488281 18.277344 15.746094 17.535156 15.746094 16.617188 C 15.746094 15.699219 16.488281 14.957031 17.40625 14.957031 C 18.324219 14.957031 19.066406 15.699219 19.066406 16.617188 Z M 19.066406 16.617188 "/>
</g>
</svg>
