<?xml version="1.0" encoding="UTF-8"?>
<svg xmlns="http://www.w3.org/2000/svg" xmlns:xlink="http://www.w3.org/1999/xlink" width="36pt" height="36pt" viewBox="0 0 36 36" version="1.1">
<g id="surface1">
<path style=" stroke:none;fill-rule:evenodd;fill:rgb(28.235294%,79.215686%,76.078431%);fill-opacity:1;" d="M 8.40625 2.136719 L 27.59375 2.136719 C 31.054688 2.136719 33.863281 4.945312 33.863281 8.40625 L 33.863281 27.59375 C 33.863281 31.054688 31.054688 33.863281 27.59375 33.863281 L 8.40625 33.863281 C 4.945312 33.863281 2.136719 31.054688 2.136719 27.59375 L 2.136719 8.40625 C 2.136719 4.945312 4.945312 2.136719 8.40625 2.136719 Z M 8.40625 2.136719 "/>
<path style=" stroke:none;fill-rule:nonzero;fill:rgb(100%,100%,100%);fill-opacity:1;" d="M 17.320312 6.1875 C 16.289062 6.1875 15.390625 6.890625 15.140625 7.886719 C 14.015625 8.503906 13.070312 9.574219 12.359375 10.855469 C 11.867188 11.742188 11.472656 12.753906 11.175781 13.847656 C 10.195312 14.417969 9.320312 15.0625 8.59375 15.765625 C 6.910156 17.390625 5.910156 19.445312 6.453125 21.472656 C 6.996094 23.503906 8.890625 24.78125 11.160156 25.347656 C 11.429688 25.417969 11.703125 25.472656 11.984375 25.519531 C 12.101562 25.777344 12.226562 26.027344 12.359375 26.269531 C 13.496094 28.3125 15.222656 29.8125 17.320312 29.8125 C 19.421875 29.8125 21.148438 28.3125 22.28125 26.269531 C 22.773438 25.382812 23.167969 24.371094 23.464844 23.277344 C 24.445312 22.707031 25.324219 22.0625 26.046875 21.359375 C 26.585938 20.839844 27.042969 20.277344 27.410156 19.6875 C 27.421875 19.6875 27.433594 19.6875 27.445312 19.6875 C 28.6875 19.6875 29.695312 18.679688 29.695312 17.4375 C 29.695312 16.429688 29.023438 15.542969 28.050781 15.273438 C 27.378906 13.46875 25.601562 12.308594 23.480469 11.777344 C 23.214844 11.707031 22.9375 11.652344 22.65625 11.605469 C 22.539062 11.347656 22.414062 11.097656 22.28125 10.855469 C 21.570312 9.574219 20.625 8.507812 19.5 7.886719 C 19.25 6.890625 18.351562 6.1875 17.320312 6.1875 Z M 15.828125 10.117188 C 16.238281 10.484375 16.769531 10.6875 17.320312 10.6875 C 17.867188 10.6875 18.390625 10.488281 18.800781 10.125 C 19.207031 10.429688 19.609375 10.84375 19.984375 11.40625 C 18.578125 11.429688 17.089844 11.636719 15.574219 12.042969 C 15.054688 12.183594 14.554688 12.34375 14.0625 12.519531 C 14.152344 12.332031 14.230469 12.121094 14.324219 11.949219 C 14.789062 11.113281 15.300781 10.511719 15.828125 10.117188 Z M 19.824219 13.664062 C 20.253906 13.648438 20.652344 13.675781 21.050781 13.699219 C 21.519531 15.101562 21.820312 16.761719 21.820312 18.5625 C 21.820312 19.695312 21.6875 20.765625 21.488281 21.761719 C 20.578125 22.214844 19.578125 22.617188 18.484375 22.910156 C 16.742188 23.375 15.0625 23.515625 13.589844 23.425781 C 13.117188 22.027344 12.820312 20.367188 12.820312 18.5625 C 12.820312 17.429688 12.949219 16.363281 13.152344 15.363281 C 14.0625 14.914062 15.058594 14.511719 16.15625 14.21875 C 17.421875 13.878906 18.667969 13.699219 19.820312 13.664062 Z M 23.539062 14.136719 C 24.75 14.542969 25.496094 15.160156 25.84375 15.859375 C 25.429688 16.28125 25.195312 16.847656 25.195312 17.4375 C 25.195312 17.824219 25.292969 18.199219 25.484375 18.535156 C 25.230469 18.929688 24.90625 19.335938 24.484375 19.746094 C 24.34375 19.882812 24.15625 20.011719 24 20.144531 C 24.042969 19.625 24.070312 19.101562 24.070312 18.5625 C 24.070312 16.992188 23.882812 15.5 23.539062 14.136719 Z M 17.320312 15.1875 C 15.457031 15.1875 13.945312 16.699219 13.945312 18.5625 C 13.945312 20.425781 15.457031 21.9375 17.320312 21.9375 C 19.183594 21.9375 20.695312 20.425781 20.695312 18.5625 C 20.695312 16.699219 19.183594 15.1875 17.320312 15.1875 Z M 10.640625 16.980469 C 10.597656 17.5 10.570312 18.023438 10.570312 18.5625 C 10.570312 20.132812 10.757812 21.625 11.101562 22.988281 C 9.679688 22.507812 8.855469 21.746094 8.628906 20.890625 C 8.367188 19.917969 8.824219 18.667969 10.15625 17.378906 C 10.296875 17.242188 10.480469 17.113281 10.640625 16.980469 Z M 20.574219 24.605469 C 20.488281 24.792969 20.410156 25.003906 20.316406 25.175781 C 19.414062 26.796875 18.324219 27.5625 17.320312 27.5625 C 16.433594 27.5625 15.484375 26.964844 14.65625 25.71875 C 16.058594 25.695312 17.550781 25.488281 19.066406 25.082031 C 19.585938 24.941406 20.085938 24.78125 20.578125 24.605469 Z M 20.574219 24.605469 "/>
<path style=" stroke:none;fill-rule:nonzero;fill:rgb(29.803922%,29.803922%,29.803922%);fill-opacity:1;" d="M 17.320312 6.1875 C 16.078125 6.1875 15.070312 7.195312 15.070312 8.4375 C 15.070312 9.679688 16.078125 10.6875 17.320312 10.6875 C 18.5625 10.6875 19.570312 9.679688 19.570312 8.4375 C 19.570312 7.195312 18.5625 6.1875 17.320312 6.1875 Z M 17.320312 15.1875 C 15.457031 15.1875 13.945312 16.699219 13.945312 18.5625 C 13.945312 20.425781 15.457031 21.9375 17.320312 21.9375 C 19.183594 21.9375 20.695312 20.425781 20.695312 18.5625 C 20.695312 16.699219 19.183594 15.1875 17.320312 15.1875 Z M 27.445312 15.1875 C 26.203125 15.1875 25.195312 16.195312 25.195312 17.4375 C 25.195312 18.679688 26.203125 19.6875 27.445312 19.6875 C 28.6875 19.6875 29.695312 18.679688 29.695312 17.4375 C 29.695312 16.195312 28.6875 15.1875 27.445312 15.1875 Z M 27.445312 15.1875 "/>
</g>
</svg>
