<?xml version="1.0" encoding="UTF-8"?>
<svg xmlns="http://www.w3.org/2000/svg" xmlns:xlink="http://www.w3.org/1999/xlink" width="36pt" height="36pt" viewBox="0 0 36 36" version="1.1">
<g id="surface1">
<path style=" stroke:none;fill-rule:evenodd;fill:rgb(78.039216%,78.039216%,78.039216%);fill-opacity:1;" d="M 2.203125 8.085938 C 2.195312 8.199219 2.136719 8.292969 2.136719 8.410156 L 2.136719 27.59375 C 2.136719 31.066406 4.933594 33.863281 8.410156 33.863281 L 27.59375 33.863281 C 31.066406 33.863281 33.863281 31.066406 33.863281 27.59375 L 33.863281 8.410156 C 33.863281 8.292969 33.804688 8.199219 33.800781 8.085938 Z M 2.203125 8.085938 "/>
<path style=" stroke:none;fill-rule:evenodd;fill:rgb(32.156863%,58.039216%,88.627451%);fill-opacity:1;" d="M 2.203125 8.085938 L 33.800781 8.085938 C 33.625 4.769531 30.953125 2.136719 27.59375 2.136719 L 8.410156 2.136719 C 5.050781 2.136719 2.378906 4.769531 2.203125 8.085938 Z M 2.203125 8.085938 "/>
<path style=" stroke:none;fill-rule:nonzero;fill:rgb(100%,100%,100%);fill-opacity:1;" d="M 6.804688 24.179688 L 29.195312 24.179688 C 29.847656 24.179688 30.375 24.804688 30.375 25.578125 L 30.375 26.15625 C 30.375 26.929688 29.847656 27.554688 29.195312 27.554688 L 6.804688 27.554688 C 6.152344 27.554688 5.625 26.929688 5.625 26.15625 L 5.625 25.578125 C 5.625 24.804688 6.152344 24.179688 6.804688 24.179688 Z M 6.804688 24.179688 "/>
<path style=" stroke:none;fill-rule:evenodd;fill:rgb(32.156863%,58.039216%,88.627451%);fill-opacity:1;" d="M 27 25.867188 C 27 28.039062 25.234375 29.804688 23.0625 29.804688 C 20.890625 29.804688 19.125 28.039062 19.125 25.867188 C 19.125 23.695312 20.890625 21.929688 23.0625 21.929688 C 25.234375 21.929688 27 23.695312 27 25.867188 Z M 27 25.867188 "/>
<path style=" stroke:none;fill-rule:nonzero;fill:rgb(100%,100%,96.862745%);fill-opacity:1;" d="M 9 13.492188 C 9 14.425781 8.246094 15.179688 7.3125 15.179688 C 6.378906 15.179688 5.625 14.425781 5.625 13.492188 C 5.625 12.558594 6.378906 11.804688 7.3125 11.804688 C 8.246094 11.804688 9 12.558594 9 13.492188 Z M 9 13.492188 "/>
<path style=" stroke:none;fill-rule:nonzero;fill:rgb(32.156863%,58.039216%,88.627451%);fill-opacity:1;" d="M 12.90625 17.429688 L 15.21875 17.429688 C 15.511719 17.429688 15.75 17.6875 15.75 18.011719 L 15.75 20.222656 C 15.75 20.542969 15.511719 20.804688 15.21875 20.804688 L 12.90625 20.804688 C 12.613281 20.804688 12.375 20.542969 12.375 20.222656 L 12.375 18.011719 C 12.375 17.6875 12.613281 17.429688 12.90625 17.429688 Z M 12.90625 17.429688 "/>
<path style=" stroke:none;fill-rule:nonzero;fill:rgb(32.156863%,58.039216%,88.627451%);fill-opacity:1;" d="M 9 19.117188 C 9 20.050781 8.246094 20.804688 7.3125 20.804688 C 6.378906 20.804688 5.625 20.050781 5.625 19.117188 C 5.625 18.183594 6.378906 17.429688 7.3125 17.429688 C 8.246094 17.429688 9 18.183594 9 19.117188 Z M 9 19.117188 "/>
<path style=" stroke:none;fill-rule:nonzero;fill:rgb(100%,100%,100%);fill-opacity:1;" d="M 12.90625 11.804688 L 15.21875 11.804688 C 15.511719 11.804688 15.75 12.0625 15.75 12.386719 L 15.75 14.597656 C 15.75 14.917969 15.511719 15.179688 15.21875 15.179688 L 12.90625 15.179688 C 12.613281 15.179688 12.375 14.917969 12.375 14.597656 L 12.375 12.386719 C 12.375 12.0625 12.613281 11.804688 12.90625 11.804688 Z M 12.90625 11.804688 "/>
</g>
</svg>
