<?xml version="1.0" encoding="UTF-8"?>
<svg xmlns="http://www.w3.org/2000/svg" xmlns:xlink="http://www.w3.org/1999/xlink" width="36pt" height="36pt" viewBox="0 0 36 36" version="1.1">
<g id="surface1">
<path style=" stroke:none;fill-rule:evenodd;fill:rgb(65.098039%,21.176471%,61.960784%);fill-opacity:1;" d="M 8.40625 2.136719 L 27.59375 2.136719 C 31.054688 2.136719 33.863281 4.945312 33.863281 8.40625 L 33.863281 27.59375 C 33.863281 31.054688 31.054688 33.863281 27.59375 33.863281 L 8.40625 33.863281 C 4.945312 33.863281 2.136719 31.054688 2.136719 27.59375 L 2.136719 8.40625 C 2.136719 4.945312 4.945312 2.136719 8.40625 2.136719 Z M 8.40625 2.136719 "/>
<path style=" stroke:none;fill-rule:nonzero;fill:rgb(100%,100%,100%);fill-opacity:1;" d="M 13.855469 11.25 C 13.664062 11.246094 13.484375 11.324219 13.347656 11.464844 C 13.214844 11.605469 13.136719 11.800781 13.136719 12 L 13.136719 24 C 13.136719 24.265625 13.269531 24.515625 13.488281 24.648438 C 13.703125 24.78125 13.972656 24.785156 14.191406 24.652344 L 24.03125 18.652344 C 24.253906 18.519531 24.386719 18.269531 24.386719 18 C 24.386719 17.730469 24.253906 17.480469 24.03125 17.347656 L 14.191406 11.347656 C 14.085938 11.285156 13.972656 11.253906 13.855469 11.25 Z M 13.855469 11.25 "/>
</g>
</svg>
