<?xml version="1.0" encoding="UTF-8"?>
<svg xmlns="http://www.w3.org/2000/svg" xmlns:xlink="http://www.w3.org/1999/xlink" width="36pt" height="36pt" viewBox="0 0 36 36" version="1.1">
<g id="surface1">
<path style=" stroke:none;fill-rule:evenodd;fill:rgb(80%,80%,80%);fill-opacity:1;" d="M 8.40625 2.136719 L 27.59375 2.136719 C 31.054688 2.136719 33.863281 4.945312 33.863281 8.40625 L 33.863281 27.59375 C 33.863281 31.054688 31.054688 33.863281 27.59375 33.863281 L 8.40625 33.863281 C 4.945312 33.863281 2.136719 31.054688 2.136719 27.59375 L 2.136719 8.40625 C 2.136719 4.945312 4.945312 2.136719 8.40625 2.136719 Z M 8.40625 2.136719 "/>
<path style=" stroke:none;fill-rule:nonzero;fill:rgb(54.509804%,50.980392%,64.313725%);fill-opacity:1;" d="M 7.3125 7.875 L 12.9375 18 L 7.3125 28.125 L 10.6875 28.125 L 16.3125 18 L 10.6875 7.875 Z M 22.3125 14.625 L 23.5625 16.875 L 28.6875 16.875 L 28.6875 14.625 Z M 24.8125 19.125 L 26.0625 21.375 L 28.6875 21.375 L 28.6875 19.125 Z M 24.8125 19.125 "/>
<path style=" stroke:none;fill-rule:nonzero;fill:rgb(37.254902%,31.372549%,53.333333%);fill-opacity:1;" d="M 12.9375 7.875 L 18.5625 18 L 12.9375 28.125 L 16.3125 28.125 L 20.25 21.035156 L 24.1875 28.125 L 27.5625 28.125 L 16.3125 7.875 Z M 12.9375 7.875 "/>
</g>
</svg>
