<?xml version="1.0" encoding="UTF-8"?>
<svg xmlns="http://www.w3.org/2000/svg" xmlns:xlink="http://www.w3.org/1999/xlink" width="36pt" height="36pt" viewBox="0 0 36 36" version="1.1">
<g id="surface1">
<path style=" stroke:none;fill-rule:evenodd;fill:rgb(90.196078%,90.196078%,90.196078%);fill-opacity:1;" d="M 8.40625 2.136719 L 27.59375 2.136719 C 31.054688 2.136719 33.863281 4.945312 33.863281 8.40625 L 33.863281 27.59375 C 33.863281 31.054688 31.054688 33.863281 27.59375 33.863281 L 8.40625 33.863281 C 4.945312 33.863281 2.136719 31.054688 2.136719 27.59375 L 2.136719 8.40625 C 2.136719 4.945312 4.945312 2.136719 8.40625 2.136719 Z M 8.40625 2.136719 "/>
<path style=" stroke:none;fill-rule:nonzero;fill:rgb(30.980392%,30.980392%,30.980392%);fill-opacity:1;" d="M 5.847656 26.246094 L 11.921875 26.246094 L 18 14.960938 L 24.078125 26.246094 L 30.152344 26.246094 L 21.039062 9.753906 L 14.960938 9.753906 Z M 5.847656 26.246094 "/>
<path style=" stroke:none;fill-rule:nonzero;fill:rgb(89.019608%,24.313725%,19.215686%);fill-opacity:1;" d="M 8.710938 21.039062 L 11.921875 26.246094 L 5.847656 26.246094 Z M 8.710938 21.039062 "/>
<path style=" stroke:none;fill-rule:nonzero;fill:rgb(89.411765%,74.509804%,12.941176%);fill-opacity:1;" d="M 27.289062 21.039062 L 30.152344 26.246094 L 24.078125 26.246094 Z M 27.289062 21.039062 "/>
<path style=" stroke:none;fill-rule:nonzero;fill:rgb(23.529412%,54.901961%,97.254902%);fill-opacity:1;" d="M 18 14.960938 L 21.039062 9.753906 L 14.960938 9.753906 Z M 18 14.960938 "/>
<path style=" stroke:none;fill-rule:nonzero;fill:rgb(30.980392%,30.980392%,30.980392%);fill-opacity:1;" d="M 16.597656 17.566406 L 13.792969 22.773438 L 18 22.773438 L 18 17.566406 Z M 16.597656 17.566406 "/>
<path style=" stroke:none;fill-rule:nonzero;fill:rgb(30.980392%,30.980392%,30.980392%);fill-opacity:1;" d="M 16.597656 17.566406 L 13.792969 22.773438 L 18 22.773438 L 18 17.566406 Z M 16.597656 17.566406 "/>
</g>
</svg>
