<?xml version="1.0" encoding="UTF-8"?>
<svg xmlns="http://www.w3.org/2000/svg" xmlns:xlink="http://www.w3.org/1999/xlink" width="36pt" height="36pt" viewBox="0 0 36 36" version="1.1">
<g id="surface1">
<path style=" stroke:none;fill-rule:evenodd;fill:rgb(89.019608%,67.45098%,20%);fill-opacity:1;" d="M 8.40625 2.136719 L 27.59375 2.136719 C 31.054688 2.136719 33.863281 4.945312 33.863281 8.40625 L 33.863281 27.59375 C 33.863281 31.054688 31.054688 33.863281 27.59375 33.863281 L 8.40625 33.863281 C 4.945312 33.863281 2.136719 31.054688 2.136719 27.59375 L 2.136719 8.40625 C 2.136719 4.945312 4.945312 2.136719 8.40625 2.136719 Z M 8.40625 2.136719 "/>
<path style=" stroke:none;fill-rule:nonzero;fill:rgb(21.960784%,21.960784%,21.960784%);fill-opacity:1;" d="M 18.289062 6.765625 C 18.179688 7.085938 18.078125 7.371094 17.960938 7.761719 C 17.566406 9.0625 17.191406 10.664062 17.195312 11.566406 C 17.199219 12.433594 17.574219 13.96875 17.96875 15.21875 C 18.066406 15.539062 18.121094 15.660156 18.203125 15.910156 C 18.320312 15.675781 18.371094 15.550781 18.519531 15.265625 C 19.15625 14.050781 19.949219 12.648438 20.839844 11.75 C 21.757812 10.824219 23.199219 9.988281 24.453125 9.316406 C 24.613281 9.230469 24.714844 9.1875 24.867188 9.105469 C 22.980469 7.648438 20.675781 6.828125 18.289062 6.765625 Z M 16.566406 6.855469 C 14.199219 7.15625 11.992188 8.203125 10.257812 9.84375 C 10.40625 10.144531 10.535156 10.414062 10.730469 10.769531 C 11.367188 11.964844 12.230469 13.359375 12.886719 14.023438 C 13.542969 14.683594 14.988281 15.597656 16.226562 16.28125 C 16.417969 16.382812 16.546875 16.445312 16.722656 16.539062 C 16.621094 16.25 16.550781 16.078125 16.433594 15.699219 C 16.023438 14.390625 15.59375 12.835938 15.589844 11.574219 C 15.582031 10.273438 16.011719 8.65625 16.421875 7.296875 C 16.476562 7.121094 16.515625 7.019531 16.566406 6.855469 Z M 26.152344 10.257812 C 25.847656 10.410156 25.574219 10.539062 25.210938 10.734375 C 24.011719 11.375 22.617188 12.238281 21.980469 12.882812 C 21.371094 13.5 20.550781 14.847656 19.945312 16.007812 C 19.789062 16.304688 19.738281 16.429688 19.621094 16.664062 C 19.863281 16.582031 20.023438 16.519531 20.300781 16.433594 C 21.609375 16.023438 23.164062 15.59375 24.425781 15.589844 C 25.726562 15.582031 27.34375 16.011719 28.703125 16.421875 C 28.878906 16.476562 28.980469 16.515625 29.144531 16.566406 C 28.84375 14.199219 27.792969 11.988281 26.152344 10.257812 Z M 9.105469 11.132812 C 7.648438 13.019531 6.828125 15.324219 6.765625 17.710938 C 7.082031 17.816406 7.359375 17.914062 7.746094 18.03125 C 9.042969 18.421875 10.636719 18.800781 11.574219 18.804688 C 12.503906 18.808594 14.171875 18.429688 15.53125 18.035156 C 15.675781 17.992188 15.765625 17.960938 15.902344 17.921875 C 15.742188 17.835938 15.628906 17.78125 15.457031 17.6875 C 14.164062 16.976562 12.675781 16.09375 11.746094 15.15625 C 10.824219 14.222656 9.980469 12.777344 9.308594 11.53125 C 9.226562 11.375 9.183594 11.277344 9.105469 11.132812 Z M 24.433594 17.195312 C 23.566406 17.199219 22.03125 17.574219 20.78125 17.96875 C 20.492188 18.058594 20.332031 18.121094 20.089844 18.203125 C 20.316406 18.316406 20.476562 18.386719 20.734375 18.519531 C 21.949219 19.15625 23.351562 19.949219 24.25 20.839844 C 25.175781 21.757812 26.011719 23.199219 26.683594 24.453125 C 26.769531 24.613281 26.8125 24.714844 26.894531 24.867188 C 28.351562 22.980469 29.171875 20.675781 29.234375 18.289062 C 28.914062 18.179688 28.628906 18.078125 28.238281 17.960938 C 26.9375 17.566406 25.335938 17.191406 24.433594 17.195312 Z M 16.460938 19.429688 C 16.289062 19.480469 16.167969 19.523438 15.980469 19.578125 C 14.5625 19.988281 12.886719 20.417969 11.566406 20.410156 C 10.253906 20.40625 8.636719 19.980469 7.28125 19.570312 C 7.113281 19.519531 7.011719 19.480469 6.855469 19.429688 C 7.15625 21.796875 8.203125 24.007812 9.84375 25.742188 C 10.144531 25.59375 10.414062 25.464844 10.769531 25.269531 C 11.964844 24.632812 13.359375 23.769531 14.023438 23.113281 C 14.683594 22.457031 15.597656 21.011719 16.28125 19.773438 C 16.351562 19.640625 16.394531 19.550781 16.460938 19.429688 Z M 19.476562 19.691406 C 19.511719 19.808594 19.542969 19.890625 19.578125 20.019531 C 19.988281 21.4375 20.417969 23.113281 20.410156 24.433594 C 20.40625 25.746094 19.980469 27.363281 19.570312 28.71875 C 19.519531 28.886719 19.480469 28.988281 19.429688 29.144531 C 21.796875 28.84375 24.011719 27.796875 25.742188 26.152344 C 25.589844 25.847656 25.460938 25.574219 25.265625 25.210938 C 24.625 24.011719 23.761719 22.617188 23.117188 21.980469 C 22.5 21.371094 21.152344 20.550781 19.992188 19.945312 C 19.777344 19.832031 19.664062 19.785156 19.476562 19.691406 Z M 17.921875 20.097656 C 17.839844 20.253906 17.78125 20.371094 17.6875 20.542969 C 16.976562 21.835938 16.09375 23.324219 15.15625 24.253906 C 14.222656 25.175781 12.777344 26.019531 11.53125 26.691406 C 11.375 26.773438 11.277344 26.816406 11.132812 26.894531 C 13.019531 28.351562 15.324219 29.171875 17.710938 29.234375 C 17.816406 28.917969 17.914062 28.640625 18.03125 28.253906 C 18.421875 26.957031 18.800781 25.363281 18.804688 24.425781 C 18.808594 23.496094 18.429688 21.828125 18.035156 20.46875 C 17.992188 20.324219 17.960938 20.230469 17.921875 20.097656 Z M 17.921875 20.097656 "/>
<path style=" stroke:none;fill-rule:nonzero;fill:rgb(80%,80%,80%);fill-opacity:1;" d="M 22.5 18 C 22.5 20.484375 20.484375 22.5 18 22.5 C 15.515625 22.5 13.5 20.484375 13.5 18 C 13.5 15.515625 15.515625 13.5 18 13.5 C 20.484375 13.5 22.5 15.515625 22.5 18 Z M 22.5 18 "/>
</g>
</svg>
