<?xml version="1.0" encoding="UTF-8"?>
<svg xmlns="http://www.w3.org/2000/svg" xmlns:xlink="http://www.w3.org/1999/xlink" width="36pt" height="36pt" viewBox="0 0 36 36" version="1.1">
<g id="surface1">
<path style=" stroke:none;fill-rule:evenodd;fill:rgb(22.745098%,65.882353%,78.431373%);fill-opacity:1;" d="M 8.40625 2.136719 L 27.59375 2.136719 C 31.054688 2.136719 33.863281 4.945312 33.863281 8.40625 L 33.863281 27.59375 C 33.863281 31.054688 31.054688 33.863281 27.59375 33.863281 L 8.40625 33.863281 C 4.945312 33.863281 2.136719 31.054688 2.136719 27.59375 L 2.136719 8.40625 C 2.136719 4.945312 4.945312 2.136719 8.40625 2.136719 Z M 8.40625 2.136719 "/>
<path style=" stroke:none;fill-rule:nonzero;fill:rgb(100%,100%,100%);fill-opacity:1;" d="M 18 10.105469 C 14.933594 10.105469 12.324219 11.925781 11.199219 14.5 C 8.347656 14.914062 6.160156 17.269531 6.160156 20.152344 C 6.160156 23.324219 8.808594 25.894531 12.078125 25.894531 L 24.660156 25.894531 C 27.523438 25.894531 29.839844 23.644531 29.839844 20.871094 C 29.839844 18.292969 27.839844 16.179688 25.261719 15.890625 C 24.589844 12.601562 21.59375 10.105469 18 10.105469 Z M 18 10.105469 "/>
<path style="fill:none;stroke-width:3;stroke-linecap:round;stroke-linejoin:round;stroke:rgb(70.588235%,92.941176%,45.490196%);stroke-opacity:1;stroke-miterlimit:4;" d="M 6.499195 9.497886 L 11.002181 23.501677 L 16 13.50109 L 20.997819 23.501677 L 25.500805 9.497886 " transform="matrix(0.789407,0,0,0.789407,5.369491,5.369491)"/>
</g>
</svg>
