<?xml version="1.0" encoding="UTF-8"?>
<svg xmlns="http://www.w3.org/2000/svg" xmlns:xlink="http://www.w3.org/1999/xlink" width="36pt" height="36pt" viewBox="0 0 36 36" version="1.1">
<g id="surface1">
<path style=" stroke:none;fill-rule:evenodd;fill:rgb(50.196078%,50.196078%,50.196078%);fill-opacity:1;" d="M 8.40625 2.136719 L 27.59375 2.136719 C 31.054688 2.136719 33.863281 4.945312 33.863281 8.40625 L 33.863281 27.59375 C 33.863281 31.054688 31.054688 33.863281 27.59375 33.863281 L 8.40625 33.863281 C 4.945312 33.863281 2.136719 31.054688 2.136719 27.59375 L 2.136719 8.40625 C 2.136719 4.945312 4.945312 2.136719 8.40625 2.136719 Z M 8.40625 2.136719 "/>
<path style=" stroke:none;fill-rule:nonzero;fill:rgb(91.764706%,43.137255%,25.490196%);fill-opacity:1;" d="M 18 18 C 17.347656 18 16.699219 18.128906 16.214844 18.390625 L 8.90625 22.324219 C 7.941406 22.84375 7.941406 23.726562 8.90625 24.246094 L 16.214844 28.183594 C 17.179688 28.703125 18.820312 28.703125 19.785156 28.183594 L 27.09375 24.246094 C 28.058594 23.726562 28.058594 22.84375 27.09375 22.324219 L 19.785156 18.390625 C 19.304688 18.128906 18.652344 18 18 18 Z M 18 18 "/>
<path style=" stroke:none;fill-rule:nonzero;fill:rgb(68.235294%,82.745098%,31.764706%);fill-opacity:1;" d="M 18 12.714844 C 17.347656 12.714844 16.699219 12.84375 16.214844 13.101562 L 8.90625 17.039062 C 7.941406 17.558594 7.941406 18.441406 8.90625 18.960938 L 16.214844 22.898438 C 17.179688 23.414062 18.820312 23.414062 19.785156 22.898438 L 27.09375 18.960938 C 28.058594 18.441406 28.058594 17.558594 27.09375 17.039062 L 19.785156 13.101562 C 19.304688 12.84375 18.652344 12.714844 18 12.714844 Z M 18 12.714844 "/>
<path style=" stroke:none;fill-rule:nonzero;fill:rgb(23.137255%,61.568627%,85.490196%);fill-opacity:1;" d="M 18 7.425781 C 17.347656 7.425781 16.699219 7.558594 16.214844 7.816406 L 8.90625 11.753906 C 7.941406 12.273438 7.941406 13.15625 8.90625 13.675781 L 16.214844 17.609375 C 17.179688 18.128906 18.820312 18.128906 19.785156 17.609375 L 27.09375 13.675781 C 28.058594 13.15625 28.058594 12.273438 27.09375 11.753906 L 19.785156 7.816406 C 19.304688 7.558594 18.652344 7.425781 18 7.425781 Z M 18 7.425781 "/>
</g>
</svg>
