<?xml version="1.0" encoding="UTF-8"?>
<svg xmlns="http://www.w3.org/2000/svg" xmlns:xlink="http://www.w3.org/1999/xlink" width="36pt" height="36pt" viewBox="0 0 36 36" version="1.1">
<g id="surface1">
<path style=" stroke:none;fill-rule:evenodd;fill:rgb(45.882353%,40.392157%,41.568627%);fill-opacity:1;" d="M 8.40625 2.136719 L 27.59375 2.136719 C 31.054688 2.136719 33.863281 4.945312 33.863281 8.40625 L 33.863281 27.59375 C 33.863281 31.054688 31.054688 33.863281 27.59375 33.863281 L 8.40625 33.863281 C 4.945312 33.863281 2.136719 31.054688 2.136719 27.59375 L 2.136719 8.40625 C 2.136719 4.945312 4.945312 2.136719 8.40625 2.136719 Z M 8.40625 2.136719 "/>
<path style=" stroke:none;fill-rule:nonzero;fill:rgb(100%,100%,100%);fill-opacity:1;" d="M 19.71875 18.300781 C 19.71875 19.007812 19.148438 19.582031 18.4375 19.582031 C 17.730469 19.582031 17.160156 19.007812 17.160156 18.300781 C 17.160156 17.59375 17.730469 17.015625 18.4375 17.015625 C 19.148438 17.015625 19.71875 17.59375 19.71875 18.300781 "/>
<path style=" stroke:none;fill-rule:nonzero;fill:rgb(100%,100%,100%);fill-opacity:1;" d="M 21.785156 28.085938 C 20.101562 27.808594 17.910156 25.878906 15.914062 22.910156 C 15.074219 21.667969 14.21875 20.128906 13.65625 18.867188 C 13.546875 18.613281 13.503906 18.554688 13.46875 18.589844 C 13.402344 18.660156 12.914062 19.722656 12.65625 20.355469 C 12.222656 21.421875 11.917969 22.4375 11.746094 23.414062 C 11.632812 24.027344 11.625 25.214844 11.730469 25.585938 C 11.96875 26.441406 12.492188 26.800781 13.3125 26.660156 C 13.902344 26.5625 14.613281 26.242188 15.367188 25.726562 C 15.703125 25.5 15.792969 25.460938 15.921875 25.460938 C 16.121094 25.460938 16.269531 25.566406 16.339844 25.761719 C 16.386719 25.890625 16.386719 25.929688 16.339844 26.054688 C 16.292969 26.179688 16.214844 26.25 15.863281 26.484375 C 15.371094 26.820312 14.53125 27.246094 14.105469 27.382812 C 12.984375 27.742188 12.109375 27.609375 11.488281 26.988281 C 10.921875 26.417969 10.6875 25.496094 10.761719 24.210938 C 10.851562 22.539062 11.59375 20.253906 12.753906 18.011719 L 13.046875 17.449219 L 12.824219 16.851562 C 12.613281 16.28125 12.199219 14.960938 12.199219 14.863281 C 12.199219 14.789062 12.070312 14.804688 11.511719 14.941406 C 10.230469 15.253906 9.28125 15.660156 8.597656 16.167969 C 7.257812 17.175781 7.609375 18.3125 9.621094 19.441406 C 9.941406 19.625 10.011719 19.722656 10.011719 19.960938 C 10.011719 20.085938 9.988281 20.136719 9.886719 20.238281 C 9.667969 20.460938 9.464844 20.414062 8.78125 19.992188 C 7.800781 19.382812 7.179688 18.691406 6.960938 17.957031 C 6.878906 17.691406 6.878906 17.152344 6.960938 16.882812 C 7.074219 16.492188 7.269531 16.183594 7.625 15.828125 C 8.410156 15.035156 9.722656 14.425781 11.519531 14.015625 C 11.886719 13.929688 11.96875 13.902344 11.957031 13.851562 C 11.945312 13.820312 11.902344 13.613281 11.859375 13.386719 C 11.617188 12.078125 11.609375 10.578125 11.839844 9.742188 C 12.113281 8.785156 12.597656 8.210938 13.375 7.945312 C 13.691406 7.839844 14.332031 7.855469 14.765625 7.984375 C 15.203125 8.113281 15.746094 8.382812 16.226562 8.707031 C 16.800781 9.089844 16.96875 9.25 16.992188 9.4375 C 17.046875 9.863281 16.609375 10.09375 16.25 9.824219 C 15.121094 8.984375 14.316406 8.664062 13.667969 8.800781 C 13.199219 8.898438 12.839844 9.378906 12.660156 10.152344 C 12.589844 10.460938 12.578125 10.605469 12.578125 11.371094 C 12.578125 12.242188 12.589844 12.378906 12.746094 13.289062 L 12.828125 13.746094 L 13.015625 13.722656 C 13.878906 13.621094 14.625 13.546875 15.082031 13.519531 L 15.625 13.492188 L 15.714844 13.382812 C 16.632812 12.203125 17.96875 10.820312 18.984375 10.007812 C 20.921875 8.453125 22.582031 7.914062 23.726562 8.464844 C 24.375 8.777344 24.78125 9.417969 24.941406 10.363281 C 25.046875 10.980469 24.960938 12.445312 24.800781 12.859375 C 24.75 13 24.570312 13.105469 24.375 13.105469 C 24.253906 13.105469 24.191406 13.082031 24.097656 12.992188 C 23.984375 12.898438 23.976562 12.867188 23.976562 12.667969 C 23.976562 12.554688 24.007812 12.214844 24.042969 11.917969 C 24.15625 11.066406 24.078125 10.265625 23.847656 9.808594 C 23.730469 9.582031 23.5 9.347656 23.296875 9.25 C 23.148438 9.171875 23.0625 9.164062 22.714844 9.164062 C 22.34375 9.164062 22.269531 9.175781 21.910156 9.304688 C 20.777344 9.691406 19.484375 10.617188 18.089844 12.035156 C 17.820312 12.308594 17.425781 12.734375 17.207031 12.992188 L 16.796875 13.453125 L 17.144531 13.464844 C 22.050781 13.582031 26.183594 14.707031 28.132812 16.457031 C 28.570312 16.851562 28.949219 17.4375 29.054688 17.894531 C 29.113281 18.128906 29.117188 18.578125 29.058594 18.820312 C 28.859375 19.707031 27.882812 20.582031 26.453125 21.148438 C 26.226562 21.238281 26.183594 21.242188 26.054688 21.207031 C 25.859375 21.148438 25.730469 20.980469 25.730469 20.78125 C 25.730469 20.542969 25.839844 20.429688 26.25 20.257812 C 27.132812 19.886719 27.820312 19.367188 28.082031 18.867188 C 28.175781 18.695312 28.183594 18.628906 28.183594 18.351562 C 28.183594 18.066406 28.175781 18.011719 28.0625 17.796875 C 27.902344 17.492188 27.378906 16.96875 26.945312 16.679688 C 24.816406 15.273438 20.804688 14.359375 16.75 14.359375 L 16.082031 14.359375 L 15.828125 14.699219 C 15.453125 15.207031 14.636719 16.453125 14.3125 17.007812 L 14.023438 17.5 L 14.222656 17.953125 C 16.199219 22.492188 19.269531 26.328125 21.535156 27.09375 C 22.027344 27.253906 22.402344 27.257812 22.699219 27.113281 C 23.261719 26.835938 23.5625 26.117188 23.605469 24.921875 C 23.679688 22.917969 22.960938 20.144531 21.613281 17.28125 C 21.476562 16.980469 21.390625 16.753906 21.390625 16.671875 C 21.390625 16.433594 21.589844 16.242188 21.835938 16.246094 C 22.058594 16.246094 22.15625 16.332031 22.324219 16.6875 C 23.414062 18.972656 24.144531 21.261719 24.417969 23.261719 C 24.507812 23.933594 24.507812 25.304688 24.417969 25.792969 C 24.269531 26.578125 24.007812 27.140625 23.617188 27.542969 C 23.132812 28.027344 22.507812 28.210938 21.765625 28.089844 M 13.941406 15.890625 C 14.082031 15.660156 14.351562 15.253906 14.539062 14.980469 C 14.730469 14.699219 14.882812 14.460938 14.882812 14.445312 C 14.882812 14.394531 13.136719 14.574219 13.085938 14.625 C 13.054688 14.660156 13.15625 15.046875 13.390625 15.761719 C 13.550781 16.28125 13.605469 16.390625 13.644531 16.351562 C 13.667969 16.320312 13.804688 16.117188 13.941406 15.894531 "/>
</g>
</svg>
