<?xml version="1.0" encoding="UTF-8"?>
<svg xmlns="http://www.w3.org/2000/svg" xmlns:xlink="http://www.w3.org/1999/xlink" width="36pt" height="36pt" viewBox="0 0 36 36" version="1.1">
<g id="surface1">
<path style=" stroke:none;fill-rule:evenodd;fill:rgb(80%,80%,80%);fill-opacity:1;" d="M 8.40625 2.136719 L 27.59375 2.136719 C 31.054688 2.136719 33.863281 4.945312 33.863281 8.40625 L 33.863281 27.59375 C 33.863281 31.054688 31.054688 33.863281 27.59375 33.863281 L 8.40625 33.863281 C 4.945312 33.863281 2.136719 31.054688 2.136719 27.59375 L 2.136719 8.40625 C 2.136719 4.945312 4.945312 2.136719 8.40625 2.136719 Z M 8.40625 2.136719 "/>
<path style=" stroke:none;fill-rule:nonzero;fill:rgb(23.529412%,54.901961%,97.254902%);fill-opacity:1;" d="M 19.644531 7.875 C 25.3125 7.875 25.3125 14.625 25.3125 16.785156 C 24.503906 15.976562 19.6875 10.304688 19.6875 14.625 C 19.6875 17.621094 19.703125 20.640625 19.6875 23.625 C 19.6875 23.691406 19.6875 23.761719 19.6875 23.828125 C 19.6875 23.855469 19.679688 23.875 19.679688 23.898438 C 19.664062 24.105469 19.636719 24.304688 19.59375 24.507812 C 19.574219 24.617188 19.550781 24.722656 19.523438 24.828125 C 19.515625 24.855469 19.503906 24.875 19.5 24.898438 C 19.457031 25.046875 19.40625 25.1875 19.347656 25.332031 C 19.304688 25.4375 19.261719 25.539062 19.210938 25.640625 C 19.125 25.808594 19.027344 25.972656 18.921875 26.128906 C 18.875 26.199219 18.828125 26.265625 18.777344 26.332031 C 18.644531 26.503906 18.503906 26.667969 18.351562 26.820312 C 18.3125 26.859375 18.269531 26.898438 18.230469 26.933594 C 18.054688 27.097656 17.867188 27.242188 17.667969 27.375 C 17.644531 27.390625 17.617188 27.40625 17.59375 27.421875 C 17.371094 27.5625 17.140625 27.683594 16.898438 27.785156 C 16.890625 27.789062 16.882812 27.789062 16.871094 27.792969 C 16.613281 27.898438 16.339844 27.980469 16.0625 28.039062 C 15.777344 28.09375 15.484375 28.125 15.1875 28.125 C 14.902344 28.125 14.617188 28.09375 14.335938 28.039062 C 14.296875 28.03125 14.257812 28.023438 14.21875 28.011719 C 13.964844 27.957031 13.714844 27.878906 13.472656 27.78125 C 13.457031 27.773438 13.441406 27.769531 13.429688 27.761719 C 11.765625 27.058594 10.6875 25.429688 10.6875 23.625 C 10.6875 21.140625 12.703125 19.125 15.1875 19.125 C 15.566406 19.125 15.945312 19.175781 16.3125 19.273438 L 16.3125 9.496094 C 16.3125 7.875 18.023438 7.875 19.644531 7.875 Z M 19.644531 7.875 "/>
</g>
</svg>
