<?xml version="1.0" encoding="UTF-8"?>
<svg xmlns="http://www.w3.org/2000/svg" xmlns:xlink="http://www.w3.org/1999/xlink" width="36pt" height="36pt" viewBox="0 0 36 36" version="1.1">
<g id="surface1">
<path style=" stroke:none;fill-rule:evenodd;fill:rgb(37.647059%,54.117647%,70.980392%);fill-opacity:1;" d="M 8.40625 2.136719 L 27.59375 2.136719 C 31.054688 2.136719 33.863281 4.945312 33.863281 8.40625 L 33.863281 27.59375 C 33.863281 31.054688 31.054688 33.863281 27.59375 33.863281 L 8.40625 33.863281 C 4.945312 33.863281 2.136719 31.054688 2.136719 27.59375 L 2.136719 8.40625 C 2.136719 4.945312 4.945312 2.136719 8.40625 2.136719 Z M 8.40625 2.136719 "/>
<path style="fill:none;stroke-width:1;stroke-linecap:round;stroke-linejoin:round;stroke:rgb(98.431373%,76.470588%,30.980392%);stroke-opacity:1;stroke-miterlimit:4;" d="M 8.199391 22.497894 L 9.999555 12.501637 L 10.999646 27.498348 L 11.999736 13.501727 L 12.999827 26.498257 L 13.999918 15.501909 L 15.000009 22.497894 L 17.000191 13.501727 L 17.000191 25.498166 L 19.000373 12.501637 L 21.000554 27.498348 L 22.000645 16.502 L 23.698474 21.497803 " transform="matrix(0.839767,0,0,0.839767,4.563637,4.142158)"/>
<path style=" stroke:none;fill-rule:nonzero;fill:rgb(100%,100%,100%);fill-opacity:1;" d="M 18 8.34375 C 15.5625 8.34375 13.339844 9.105469 11.703125 10.382812 C 10.0625 11.660156 9 13.488281 9 15.519531 L 9 16.253906 C 7.371094 17.078125 6.242188 19.242188 6.242188 21.777344 C 6.242188 25.023438 8.089844 27.65625 10.46875 27.65625 L 10.46875 15.519531 C 10.46875 13.996094 11.257812 12.597656 12.609375 11.542969 C 13.960938 10.488281 15.875 9.8125 18 9.8125 C 20.125 9.8125 22.039062 10.488281 23.390625 11.542969 C 24.742188 12.597656 25.53125 13.996094 25.53125 15.519531 L 25.53125 27.65625 C 27.910156 27.65625 29.757812 25.023438 29.757812 21.777344 C 29.757812 19.242188 28.628906 17.078125 27 16.253906 L 27 15.519531 C 27 13.488281 25.9375 11.660156 24.296875 10.382812 C 22.660156 9.105469 20.4375 8.34375 18 8.34375 Z M 11.019531 16.082031 L 11.019531 27.65625 C 11.386719 27.65625 11.753906 27.472656 11.9375 27.105469 L 11.9375 16.449219 C 11.753906 16.265625 11.386719 16.082031 11.019531 16.082031 Z M 24.980469 16.082031 C 24.613281 16.082031 24.246094 16.265625 24.0625 16.449219 L 24.0625 27.105469 C 24.246094 27.472656 24.613281 27.65625 24.980469 27.65625 Z M 24.980469 16.082031 "/>
</g>
</svg>
