<?xml version="1.0" encoding="UTF-8"?>
<svg xmlns="http://www.w3.org/2000/svg" xmlns:xlink="http://www.w3.org/1999/xlink" width="36pt" height="36pt" viewBox="0 0 36 36" version="1.1">
<defs>
<clipPath id="clip1">
  <rect width="36" height="36"/>
</clipPath>
<g id="surface6" clip-path="url(#clip1)">
<path style=" stroke:none;fill-rule:nonzero;fill:rgb(100%,54.509804%,100%);fill-opacity:1;" d="M 16.660156 14.6875 L 20.40625 18.4375 C 20.949219 18.976562 21.824219 18.976562 22.367188 18.4375 C 22.910156 17.894531 22.910156 17.015625 22.367188 16.472656 L 18.621094 12.726562 C 15.941406 10.046875 11.605469 10 8.867188 12.589844 C 8.84375 12.613281 8.816406 12.632812 8.792969 12.65625 C 8.78125 12.667969 8.773438 12.679688 8.761719 12.695312 C 8.75 12.703125 8.734375 12.714844 8.726562 12.726562 C 8.699219 12.75 8.679688 12.773438 8.660156 12.800781 C 6.070312 15.539062 6.113281 19.871094 8.792969 22.554688 L 12.542969 26.300781 C 13.082031 26.84375 13.960938 26.84375 14.503906 26.300781 C 15.042969 25.757812 15.042969 24.878906 14.503906 24.339844 L 10.753906 20.59375 C 9.121094 18.957031 9.109375 16.304688 10.722656 14.65625 C 12.371094 13.042969 15.023438 13.054688 16.660156 14.6875 Z M 16.660156 14.6875 "/>
<path style=" stroke:none;fill-rule:nonzero;fill:rgb(100%,54.509804%,100%);fill-opacity:1;" d="M 21.496094 9.699219 C 20.957031 10.242188 20.957031 11.121094 21.496094 11.660156 L 25.246094 15.40625 C 26.878906 17.042969 26.890625 19.695312 25.277344 21.34375 C 23.628906 22.957031 20.976562 22.945312 19.339844 21.3125 L 15.59375 17.5625 C 15.050781 17.023438 14.171875 17.023438 13.632812 17.5625 C 13.089844 18.105469 13.089844 18.984375 13.632812 19.527344 L 17.378906 23.273438 C 20.058594 25.957031 24.394531 26 27.132812 23.410156 C 27.15625 23.386719 27.183594 23.367188 27.207031 23.34375 C 27.21875 23.332031 27.226562 23.320312 27.238281 23.308594 C 27.25 23.296875 27.261719 23.285156 27.273438 23.273438 C 27.300781 23.25 27.320312 23.226562 27.339844 23.199219 C 29.929688 20.460938 29.886719 16.128906 27.207031 13.445312 L 23.460938 9.699219 C 22.917969 9.15625 22.039062 9.15625 21.496094 9.699219 Z M 21.496094 9.699219 "/>
</g>
</defs>
<g id="surface1">
<path style=" stroke:none;fill-rule:evenodd;fill:rgb(91.372549%,11.764706%,38.823529%);fill-opacity:1;" d="M 8.40625 2.136719 L 27.59375 2.136719 C 31.054688 2.136719 33.863281 4.945312 33.863281 8.40625 L 33.863281 27.59375 C 33.863281 31.054688 31.054688 33.863281 27.59375 33.863281 L 8.40625 33.863281 C 4.945312 33.863281 2.136719 31.054688 2.136719 27.59375 L 2.136719 8.40625 C 2.136719 4.945312 4.945312 2.136719 8.40625 2.136719 Z M 8.40625 2.136719 "/>
<use xlink:href="#surface6"/>
</g>
</svg>
