<?xml version="1.0" encoding="UTF-8"?>
<svg xmlns="http://www.w3.org/2000/svg" xmlns:xlink="http://www.w3.org/1999/xlink" width="36pt" height="36pt" viewBox="0 0 36 36" version="1.1">
<g id="surface1">
<path style=" stroke:none;fill-rule:evenodd;fill:rgb(30.980392%,30.980392%,30.980392%);fill-opacity:1;" d="M 8.40625 2.136719 L 27.59375 2.136719 C 31.054688 2.136719 33.863281 4.945312 33.863281 8.40625 L 33.863281 27.59375 C 33.863281 31.054688 31.054688 33.863281 27.59375 33.863281 L 8.40625 33.863281 C 4.945312 33.863281 2.136719 31.054688 2.136719 27.59375 L 2.136719 8.40625 C 2.136719 4.945312 4.945312 2.136719 8.40625 2.136719 Z M 8.40625 2.136719 "/>
<path style=" stroke:none;fill-rule:evenodd;fill:rgb(100%,100%,100%);fill-opacity:1;" d="M 8.210938 7.527344 C 7.359375 8.394531 7.359375 12.550781 7.359375 15.183594 C 7.359375 24.734375 12.894531 28.640625 18 28.640625 C 23.105469 28.640625 28.640625 24.734375 28.640625 15.183594 C 28.640625 12.578125 28.640625 8.394531 27.789062 7.527344 C 26.9375 6.660156 21.296875 9.355469 19.597656 11.089844 L 16.402344 11.089844 C 14.703125 9.355469 9.0625 6.660156 8.210938 7.527344 Z M 8.210938 7.527344 "/>
<path style=" stroke:none;fill-rule:nonzero;fill:rgb(30.980392%,30.980392%,30.980392%);fill-opacity:1;" d="M 20.28125 23.449219 C 20.28125 24.636719 19.257812 25.601562 18 25.601562 C 16.742188 25.601562 15.71875 24.636719 15.71875 23.449219 C 15.71875 22.261719 20.28125 22.261719 20.28125 23.449219 Z M 20.28125 23.449219 "/>
<path style=" stroke:none;fill-rule:evenodd;fill:rgb(30.980392%,30.980392%,30.980392%);fill-opacity:1;" d="M 13.441406 12.679688 C 11.339844 12.679688 9.640625 14.722656 9.640625 17.238281 C 9.640625 19.757812 11.339844 21.800781 13.441406 21.800781 C 15.539062 21.800781 17.238281 19.757812 17.238281 17.238281 C 17.238281 14.722656 15.539062 12.679688 13.441406 12.679688 Z M 13.441406 14.199219 C 14.699219 14.199219 15.71875 15.5625 15.71875 17.238281 C 15.71875 18.917969 14.699219 20.28125 13.441406 20.28125 C 12.179688 20.28125 11.160156 18.917969 11.160156 17.238281 C 11.160156 15.5625 12.179688 14.199219 13.441406 14.199219 Z M 13.441406 14.199219 "/>
<path style=" stroke:none;fill-rule:evenodd;fill:rgb(30.980392%,30.980392%,30.980392%);fill-opacity:1;" d="M 22.558594 12.679688 C 20.460938 12.679688 18.761719 14.722656 18.761719 17.238281 C 18.761719 19.757812 20.460938 21.800781 22.558594 21.800781 C 24.660156 21.800781 26.359375 19.757812 26.359375 17.238281 C 26.359375 14.722656 24.660156 12.679688 22.558594 12.679688 Z M 22.558594 14.199219 C 23.820312 14.199219 24.839844 15.5625 24.839844 17.238281 C 24.839844 18.917969 23.820312 20.28125 22.558594 20.28125 C 21.300781 20.28125 20.28125 18.917969 20.28125 17.238281 C 20.28125 15.5625 21.300781 14.199219 22.558594 14.199219 Z M 22.558594 14.199219 "/>
</g>
</svg>
