<?xml version="1.0" encoding="UTF-8"?>
<svg xmlns="http://www.w3.org/2000/svg" xmlns:xlink="http://www.w3.org/1999/xlink" width="36pt" height="36pt" viewBox="0 0 36 36" version="1.1">
<g id="surface1">
<path style=" stroke:none;fill-rule:evenodd;fill:rgb(80%,80%,80%);fill-opacity:1;" d="M 8.40625 2.136719 L 27.59375 2.136719 C 31.054688 2.136719 33.863281 4.945312 33.863281 8.40625 L 33.863281 27.59375 C 33.863281 31.054688 31.054688 33.863281 27.59375 33.863281 L 8.40625 33.863281 C 4.945312 33.863281 2.136719 31.054688 2.136719 27.59375 L 2.136719 8.40625 C 2.136719 4.945312 4.945312 2.136719 8.40625 2.136719 Z M 8.40625 2.136719 "/>
<path style=" stroke:none;fill-rule:nonzero;fill:rgb(100%,100%,100%);fill-opacity:1;" d="M 18 11.546875 C 12.640625 11.546875 8.324219 15.863281 8.324219 21.226562 C 8.324219 26.585938 12.640625 30.902344 18 30.902344 C 23.359375 30.902344 27.675781 26.585938 27.675781 21.226562 C 27.675781 15.863281 23.359375 11.546875 18 11.546875 Z M 18 11.546875 "/>
<path style=" stroke:none;fill-rule:nonzero;fill:rgb(23.529412%,54.901961%,97.254902%);fill-opacity:1;" d="M 13.890625 5.097656 C 9.242188 5.097656 9.246094 10.625 9.246094 12.398438 C 9.910156 11.734375 13.851562 7.085938 13.851562 10.628906 C 13.851562 13.082031 13.839844 15.554688 13.851562 18 L 13.851562 18.167969 C 13.855469 18.1875 13.859375 18.207031 13.859375 18.226562 C 13.871094 18.390625 13.894531 18.558594 13.929688 18.722656 C 13.945312 18.8125 13.964844 18.898438 13.988281 18.984375 C 13.992188 19.007812 14.003906 19.023438 14.007812 19.042969 C 14.042969 19.164062 14.082031 19.28125 14.128906 19.398438 C 14.164062 19.484375 14.199219 19.566406 14.242188 19.652344 C 14.3125 19.789062 14.394531 19.921875 14.480469 20.050781 C 14.519531 20.109375 14.558594 20.164062 14.601562 20.21875 C 14.707031 20.359375 14.824219 20.492188 14.949219 20.617188 C 14.980469 20.648438 15.015625 20.679688 15.046875 20.710938 C 15.191406 20.84375 15.34375 20.964844 15.507812 21.074219 C 15.527344 21.085938 15.546875 21.097656 15.566406 21.109375 C 15.75 21.226562 15.941406 21.324219 16.136719 21.40625 C 16.144531 21.410156 16.152344 21.410156 16.160156 21.414062 C 16.371094 21.5 16.59375 21.570312 16.820312 21.613281 C 17.058594 21.660156 17.296875 21.6875 17.539062 21.6875 C 17.773438 21.683594 18.007812 21.660156 18.234375 21.617188 C 18.269531 21.609375 18.300781 21.601562 18.332031 21.59375 C 18.542969 21.546875 18.746094 21.484375 18.945312 21.402344 C 18.957031 21.398438 18.96875 21.394531 18.980469 21.390625 C 20.339844 20.8125 21.222656 19.476562 21.226562 18 C 21.226562 15.964844 19.574219 14.3125 17.539062 14.3125 C 17.226562 14.316406 16.917969 14.355469 16.617188 14.433594 L 16.617188 6.425781 C 16.617188 5.097656 15.214844 5.097656 13.890625 5.097656 Z M 17.539062 16.15625 C 18.558594 16.15625 19.382812 16.980469 19.382812 18 C 19.382812 19.019531 18.558594 19.84375 17.539062 19.84375 C 16.519531 19.84375 15.695312 19.019531 15.695312 18 C 15.695312 16.980469 16.519531 16.15625 17.539062 16.15625 Z M 17.539062 16.15625 "/>
</g>
</svg>
