<?xml version="1.0" encoding="UTF-8"?>
<svg xmlns="http://www.w3.org/2000/svg" xmlns:xlink="http://www.w3.org/1999/xlink" width="36pt" height="36pt" viewBox="0 0 36 36" version="1.1">
<g id="surface1">
<path style=" stroke:none;fill-rule:evenodd;fill:rgb(23.921569%,39.607843%,76.078431%);fill-opacity:1;" d="M 9.609375 33.863281 L 27.59375 33.863281 C 31.066406 33.863281 33.863281 31.066406 33.863281 27.589844 L 33.863281 8.40625 C 33.863281 4.933594 31.066406 2.136719 27.59375 2.136719 L 9.609375 2.136719 Z M 9.609375 33.863281 "/>
<path style=" stroke:none;fill-rule:evenodd;fill:rgb(19.215686%,31.764706%,60.784314%);fill-opacity:1;" d="M 9.609375 33.863281 L 9.609375 2.136719 L 8.410156 2.136719 C 4.933594 2.136719 2.136719 4.933594 2.136719 8.40625 L 2.136719 27.589844 C 2.136719 31.066406 4.933594 33.863281 8.410156 33.863281 Z M 9.609375 33.863281 "/>
<path style=" stroke:none;fill-rule:nonzero;fill:rgb(100%,85.098039%,44.705882%);fill-opacity:1;" d="M 18.890625 6.335938 L 18.890625 7.605469 L 17.375 7.605469 L 17.375 10.585938 L 18.890625 10.585938 L 18.890625 11.609375 L 12.933594 11.609375 L 12.933594 14.734375 L 18.890625 14.734375 L 18.890625 20.085938 L 17.71875 19.570312 L 17.71875 23.039062 L 18.890625 23.554688 L 18.890625 31.191406 L 22.066406 31.191406 L 22.066406 24.953125 L 23.042969 25.382812 L 23.042969 21.914062 L 22.066406 21.484375 L 22.066406 14.734375 L 27.925781 14.734375 L 27.925781 11.609375 L 22.066406 11.609375 L 22.066406 10.585938 L 23.53125 10.585938 L 23.53125 7.605469 L 22.066406 7.605469 L 22.066406 6.335938 Z M 18.890625 6.335938 "/>
</g>
</svg>
