<?xml version="1.0" encoding="UTF-8"?>
<svg xmlns="http://www.w3.org/2000/svg" xmlns:xlink="http://www.w3.org/1999/xlink" width="36pt" height="36pt" viewBox="0 0 36 36" version="1.1">
<g id="surface1">
<path style=" stroke:none;fill-rule:evenodd;fill:rgb(96.862745%,57.647059%,10.196078%);fill-opacity:1;" d="M 8.40625 2.136719 L 27.59375 2.136719 C 31.054688 2.136719 33.863281 4.945312 33.863281 8.40625 L 33.863281 27.59375 C 33.863281 31.054688 31.054688 33.863281 27.59375 33.863281 L 8.40625 33.863281 C 4.945312 33.863281 2.136719 31.054688 2.136719 27.59375 L 2.136719 8.40625 C 2.136719 4.945312 4.945312 2.136719 8.40625 2.136719 Z M 8.40625 2.136719 "/>
<path style=" stroke:none;fill-rule:nonzero;fill:rgb(100%,100%,100%);fill-opacity:1;" d="M 14.632812 7.875 L 14.632812 11.25 L 11.257812 11.25 L 11.257812 13.5 C 11.257812 13.5 12.546875 13.476562 12.527344 13.5 C 13.21875 13.488281 13.4375 13.992188 13.507812 14.324219 L 13.507812 21.75 C 13.484375 21.960938 13.503906 22.484375 13.023438 22.5 C 13.046875 22.519531 11.257812 22.5 11.257812 22.5 L 11.257812 24.75 L 13.699219 24.75 C 14.113281 24.734375 14.234375 24.75 14.632812 24.75 L 14.632812 28.125 L 16.882812 28.125 L 16.882812 24.75 L 17.984375 24.75 L 18.03125 28.125 L 20.257812 28.125 L 20.234375 24.75 C 23.097656 24.542969 24.757812 23.171875 24.742188 20.8125 C 24.757812 18.640625 23.023438 17.445312 21.945312 17.4375 C 23.023438 17.441406 23.632812 16.269531 23.632812 14.625 C 23.632812 12.375 22.082031 11.25 20.257812 11.25 L 20.257812 7.875 L 18.007812 7.875 L 18.007812 11.25 C 17.5625 11.25 17.339844 11.234375 16.882812 11.25 L 16.882812 7.875 Z M 16.882812 13.5 C 19.132812 13.5 20.257812 13.5 20.257812 15.1875 C 20.257812 16.875 19.132812 16.875 16.882812 16.875 Z M 16.882812 19.125 C 19.882812 19.125 21.382812 18.9375 21.382812 20.8125 C 21.382812 22.6875 19.882812 22.5 16.882812 22.5 Z M 16.882812 19.125 "/>
</g>
</svg>
