<?xml version="1.0" encoding="UTF-8"?>
<svg xmlns="http://www.w3.org/2000/svg" xmlns:xlink="http://www.w3.org/1999/xlink" width="36pt" height="36pt" viewBox="0 0 36 36" version="1.1">
<g id="surface1">
<path style=" stroke:none;fill-rule:evenodd;fill:rgb(27.058824%,70.588235%,27.058824%);fill-opacity:1;" d="M 2.132812 10.375 L 2.132812 27.59375 C 2.132812 31.066406 4.933594 33.863281 8.40625 33.863281 L 27.59375 33.863281 C 31.066406 33.863281 33.867188 31.066406 33.867188 27.59375 L 33.867188 10.375 Z M 2.132812 10.375 "/>
<path style=" stroke:none;fill-rule:evenodd;fill:rgb(41.568627%,76.470588%,41.568627%);fill-opacity:1;" d="M 2.132812 10.375 L 33.867188 10.375 L 33.867188 8.410156 C 33.867188 4.933594 31.066406 2.136719 27.59375 2.136719 L 8.40625 2.136719 C 4.933594 2.136719 2.132812 4.933594 2.132812 8.410156 Z M 2.132812 10.375 "/>
<path style=" stroke:none;fill-rule:evenodd;fill:rgb(100%,100%,100%);fill-opacity:1;" d="M 19.574219 22.277344 C 19.574219 23.351562 19.601562 24.25 19.046875 25.203125 C 18.597656 25.976562 17.886719 26.453125 17.089844 26.453125 C 16.007812 26.453125 15.378906 25.648438 15.378906 24.457031 C 15.378906 22.109375 17.535156 21.679688 19.574219 21.679688 L 19.574219 22.277344 M 22.421875 28.996094 C 22.238281 29.160156 21.96875 29.171875 21.757812 29.066406 C 20.820312 28.304688 20.652344 27.949219 20.132812 27.226562 C 18.582031 28.769531 17.488281 29.230469 15.476562 29.230469 C 13.101562 29.230469 11.25 27.800781 11.25 24.9375 C 11.25 22.699219 12.492188 21.171875 14.257812 20.429688 C 15.789062 19.769531 17.933594 19.652344 19.570312 19.472656 L 19.570312 19.113281 C 19.570312 18.457031 19.625 17.683594 19.230469 17.117188 C 18.886719 16.609375 18.226562 16.402344 17.644531 16.402344 C 16.566406 16.402344 15.609375 16.9375 15.375 18.054688 C 15.324219 18.304688 15.140625 18.546875 14.882812 18.5625 L 12.144531 18.273438 C 11.914062 18.222656 11.660156 18.039062 11.722656 17.695312 C 12.355469 14.460938 15.355469 13.480469 18.039062 13.480469 C 19.414062 13.480469 21.210938 13.835938 22.292969 14.851562 C 23.667969 16.105469 23.535156 17.777344 23.535156 19.59375 L 23.535156 23.890625 C 23.535156 25.183594 24.082031 25.75 24.597656 26.445312 C 24.78125 26.695312 24.820312 26.996094 24.59375 27.179688 C 24.015625 27.652344 22.992188 28.519531 22.425781 29.011719 L 22.417969 29 "/>
</g>
</svg>
