<?xml version="1.0" encoding="UTF-8"?>
<svg xmlns="http://www.w3.org/2000/svg" xmlns:xlink="http://www.w3.org/1999/xlink" width="36pt" height="36pt" viewBox="0 0 36 36" version="1.1">
<g id="surface1">
<path style=" stroke:none;fill-rule:evenodd;fill:rgb(20.784314%,72.54902%,96.078431%);fill-opacity:1;" d="M 8.40625 2.136719 L 27.59375 2.136719 C 31.054688 2.136719 33.863281 4.945312 33.863281 8.40625 L 33.863281 27.59375 C 33.863281 31.054688 31.054688 33.863281 27.59375 33.863281 L 8.40625 33.863281 C 4.945312 33.863281 2.136719 31.054688 2.136719 27.59375 L 2.136719 8.40625 C 2.136719 4.945312 4.945312 2.136719 8.40625 2.136719 Z M 8.40625 2.136719 "/>
<path style=" stroke:none;fill-rule:nonzero;fill:rgb(100%,100%,100%);fill-opacity:1;" d="M 15.425781 16.21875 C 15.425781 16.21875 18.300781 16.21875 18.304688 16.21875 C 18.972656 16.21875 19.515625 15.730469 19.527344 15.0625 C 19.539062 14.386719 19 13.785156 18.324219 13.773438 L 15.464844 13.777344 C 14.789062 13.769531 14.234375 14.304688 14.222656 14.976562 C 14.210938 15.652344 14.75 16.207031 15.425781 16.21875 Z M 15.425781 16.21875 "/>
<path style=" stroke:none;fill-rule:nonzero;fill:rgb(100%,100%,100%);fill-opacity:1;" d="M 20.84375 19.375 L 15.121094 19.375 C 14.445312 19.375 13.898438 19.921875 13.898438 20.59375 C 13.898438 21.269531 14.445312 21.816406 15.121094 21.816406 L 20.84375 21.816406 C 21.519531 21.816406 22.066406 21.269531 22.066406 20.59375 C 22.066406 19.921875 21.519531 19.375 20.84375 19.375 Z M 20.84375 19.375 "/>
<path style=" stroke:none;fill-rule:nonzero;fill:rgb(100%,100%,100%);fill-opacity:1;" d="M 18 7.835938 C 12.386719 7.835938 7.835938 12.386719 7.835938 18 C 7.835938 23.613281 12.386719 28.164062 18 28.164062 C 23.613281 28.164062 28.164062 23.613281 28.164062 18 C 28.164062 12.386719 23.613281 7.835938 18 7.835938 Z M 23.800781 23.851562 C 23.015625 24.660156 21.90625 25.09375 20.59375 25.105469 L 15.464844 25.105469 C 15.433594 25.105469 15.402344 25.105469 15.371094 25.105469 C 13.898438 25.105469 12.761719 24.691406 11.996094 23.875 C 11.226562 23.054688 10.980469 21.949219 10.980469 20.410156 C 10.984375 20.304688 10.972656 20.203125 10.980469 20.101562 L 10.980469 14.695312 C 11.042969 13.355469 11.644531 12.527344 12.09375 12.050781 C 12.824219 11.285156 13.851562 10.894531 15.15625 10.894531 L 18.574219 10.894531 C 20.761719 10.957031 22.339844 12.480469 22.355469 14.601562 C 22.414062 15.238281 22.378906 15.828125 22.253906 16.359375 C 22.992188 16.378906 23.898438 16.507812 24.488281 17.269531 C 25.007812 17.941406 25.011719 18.703125 25.015625 19.761719 C 25.015625 19.976562 25.023438 20.527344 25.023438 20.527344 C 25.007812 21.894531 24.585938 23.046875 23.800781 23.851562 Z M 23.800781 23.851562 "/>
</g>
</svg>
