<?xml version="1.0" encoding="UTF-8"?>
<svg xmlns="http://www.w3.org/2000/svg" xmlns:xlink="http://www.w3.org/1999/xlink" width="36pt" height="36pt" viewBox="0 0 36 36" version="1.1">
<g id="surface1">
<path style=" stroke:none;fill-rule:evenodd;fill:rgb(90.196078%,90.196078%,90.196078%);fill-opacity:1;" d="M 8.40625 2.136719 L 27.59375 2.136719 C 31.054688 2.136719 33.863281 4.945312 33.863281 8.40625 L 33.863281 27.59375 C 33.863281 31.054688 31.054688 33.863281 27.59375 33.863281 L 8.40625 33.863281 C 4.945312 33.863281 2.136719 31.054688 2.136719 27.59375 L 2.136719 8.40625 C 2.136719 4.945312 4.945312 2.136719 8.40625 2.136719 Z M 8.40625 2.136719 "/>
<path style=" stroke:none;fill-rule:nonzero;fill:rgb(30.980392%,30.980392%,30.980392%);fill-opacity:1;" d="M 18.683594 13.09375 C 18.558594 13.09375 18.425781 13.105469 18.347656 13.117188 C 17.863281 13.199219 17.476562 13.378906 17.277344 13.621094 C 17.121094 13.8125 17.074219 14.046875 17.15625 14.277344 C 17.164062 14.308594 17.171875 14.335938 17.167969 14.34375 C 17.164062 14.347656 16.6875 14.398438 16.117188 14.457031 C 15.652344 14.507812 15.394531 14.542969 15.261719 14.5625 C 15.242188 14.5625 15.152344 14.574219 15.144531 14.574219 C 15.140625 14.574219 15.066406 14.582031 15.066406 14.582031 C 15.066406 14.582031 15.074219 14.601562 15.074219 14.605469 C 15.074219 14.613281 15.074219 14.617188 15.074219 14.621094 C 15.078125 14.664062 15.097656 14.753906 15.152344 14.933594 C 15.242188 15.257812 15.261719 15.320312 15.25 15.320312 C 15.246094 15.320312 15.195312 15.289062 15.144531 15.25 C 14.929688 15.097656 14.734375 15.023438 14.527344 15.011719 C 14.296875 15 14.148438 15.066406 13.984375 15.226562 C 13.980469 15.230469 13.976562 15.226562 13.972656 15.230469 C 13.890625 15.3125 13.859375 15.351562 13.804688 15.464844 C 13.726562 15.625 13.6875 15.769531 13.675781 15.960938 C 13.664062 16.183594 13.710938 16.464844 13.792969 16.648438 L 13.816406 16.714844 L 13.925781 16.714844 C 14.210938 16.714844 14.4375 16.347656 14.675781 16.238281 C 14.839844 16.195312 15.144531 16.195312 15.351562 16.238281 C 16.09375 16.382812 16.648438 16.886719 16.621094 17.390625 C 16.613281 17.523438 16.566406 17.613281 16.445312 17.730469 C 16.347656 17.832031 16.21875 17.917969 15.996094 18.039062 C 15.917969 18.082031 15.789062 18.15625 15.707031 18.203125 C 15.625 18.246094 15.507812 18.316406 15.449219 18.355469 C 15.332031 18.433594 15.183594 18.5625 15.183594 18.59375 C 15.183594 18.621094 15.257812 18.621094 15.570312 18.589844 C 15.703125 18.574219 15.816406 18.554688 15.929688 18.535156 C 16.492188 18.457031 16.867188 18.347656 17.160156 18.15625 C 17.441406 17.976562 17.648438 17.6875 17.730469 17.382812 C 17.742188 17.335938 17.753906 17.300781 17.761719 17.300781 C 17.769531 17.300781 17.820312 17.324219 17.871094 17.359375 C 18.203125 17.5625 18.472656 17.636719 18.703125 17.589844 C 18.90625 17.546875 19.101562 17.425781 19.460938 17.113281 C 19.558594 17.03125 19.640625 16.957031 19.648438 16.957031 C 19.65625 16.957031 19.730469 17.121094 19.816406 17.320312 C 19.898438 17.515625 19.980469 17.6875 19.988281 17.699219 C 20.007812 17.722656 20.023438 17.726562 20.332031 17.671875 C 20.503906 17.644531 20.652344 17.609375 20.660156 17.601562 C 20.679688 17.585938 20.609375 17.359375 20.550781 17.214844 C 20.453125 16.984375 20.285156 16.773438 20.082031 16.644531 C 19.957031 16.5625 19.773438 16.476562 19.480469 16.367188 C 19.160156 16.242188 18.996094 16.164062 18.84375 16.0625 C 18.691406 15.960938 18.546875 15.828125 18.566406 15.8125 C 18.574219 15.804688 18.625 15.785156 18.683594 15.765625 C 19.136719 15.609375 19.445312 15.3125 19.648438 14.832031 C 19.730469 14.636719 19.800781 14.382812 19.914062 13.886719 C 19.964844 13.660156 20.03125 13.402344 20.054688 13.316406 C 20.078125 13.230469 20.097656 13.152344 20.09375 13.144531 C 20.09375 13.144531 20.078125 13.148438 20.074219 13.152344 C 20.027344 13.160156 19.769531 13.28125 19.140625 13.59375 C 18.621094 13.855469 18.1875 14.066406 18.179688 14.066406 C 18.171875 14.0625 18.339844 13.914062 18.546875 13.730469 C 18.753906 13.546875 18.941406 13.386719 18.960938 13.371094 C 18.96875 13.359375 18.96875 13.351562 18.972656 13.335938 C 18.980469 13.320312 18.984375 13.292969 18.984375 13.234375 C 18.984375 13.128906 18.980469 13.121094 18.945312 13.105469 C 18.917969 13.09375 18.808594 13.089844 18.683594 13.09375 Z M 18.683594 13.09375 "/>
<path style=" stroke:none;fill-rule:nonzero;fill:rgb(46.666667%,40.392157%,75.294118%);fill-opacity:1;" d="M 23.46875 8.980469 C 23.324219 8.992188 23.195312 9.0625 23.082031 9.199219 C 22.953125 9.355469 22.886719 9.5625 22.90625 9.75 C 22.933594 10.023438 23.015625 10.246094 23.34375 10.902344 C 23.527344 11.261719 23.585938 11.40625 23.648438 11.695312 C 23.734375 12.101562 23.769531 12.460938 23.769531 12.933594 C 23.769531 13.367188 23.742188 13.683594 23.671875 14.097656 C 23.613281 14.460938 23.507812 14.898438 23.488281 14.890625 C 23.453125 14.878906 23.414062 14.539062 23.382812 14.046875 C 23.347656 13.464844 23.316406 13.230469 23.265625 13.003906 C 23.132812 12.390625 22.832031 12.132812 22.332031 12.210938 C 22.191406 12.230469 21.96875 12.300781 21.945312 12.324219 C 21.9375 12.335938 21.988281 12.515625 22.125 12.914062 C 22.234375 13.226562 22.328125 13.484375 22.328125 13.492188 C 22.328125 13.511719 22.246094 13.539062 22.230469 13.523438 C 22.222656 13.515625 22.140625 13.40625 22.054688 13.28125 C 21.875 13.015625 21.78125 12.886719 21.65625 12.738281 C 21.320312 12.339844 20.957031 12.148438 20.582031 12.171875 C 20.441406 12.179688 20.234375 12.226562 20.199219 12.253906 C 20.175781 12.277344 20.179688 12.3125 20.652344 14.019531 L 21.132812 15.765625 L 21.023438 16.835938 C 20.964844 17.425781 20.910156 17.921875 20.902344 17.9375 C 20.894531 17.964844 20.890625 17.96875 20.695312 17.96875 C 20.585938 17.96875 20.367188 17.960938 20.207031 17.949219 C 19.855469 17.925781 19.414062 17.921875 19.265625 17.945312 C 19.113281 17.964844 18.894531 18.019531 18.6875 18.09375 C 18.042969 18.3125 17.476562 18.703125 17.003906 19.265625 C 16.570312 19.78125 16.203125 20.4375 15.839844 21.347656 C 15.730469 21.617188 15.496094 22.269531 15.441406 22.449219 C 15.300781 22.886719 15.226562 23.347656 15.214844 23.851562 C 15.203125 24.300781 15.238281 24.667969 15.328125 25.042969 C 15.4375 25.484375 15.601562 25.824219 15.824219 26.113281 C 15.878906 26.183594 15.9375 26.242188 16 26.308594 C 16.003906 26.308594 16.003906 26.3125 16.007812 26.3125 C 16.007812 26.316406 16.011719 26.316406 16.011719 26.320312 C 16.015625 26.320312 16.011719 26.324219 16.011719 26.324219 C 16.300781 26.617188 16.617188 26.785156 17.015625 26.867188 C 17.304688 26.925781 17.804688 26.933594 17.804688 26.878906 C 17.804688 26.871094 17.714844 26.613281 17.609375 26.308594 C 17.503906 26 17.417969 25.746094 17.417969 25.738281 C 17.417969 25.726562 17.46875 25.695312 17.496094 25.695312 C 17.5 25.695312 17.566406 25.789062 17.640625 25.902344 C 17.941406 26.355469 18.171875 26.617188 18.433594 26.796875 C 18.589844 26.902344 18.796875 26.984375 18.957031 27.007812 C 19.058594 27.023438 19.296875 27.023438 19.394531 27.003906 C 19.515625 26.976562 19.636719 26.9375 19.652344 26.917969 L 18.878906 25.648438 C 19.386719 26.042969 20.050781 26.425781 20.523438 26.558594 C 21.113281 26.722656 21.667969 26.644531 22.089844 26.324219 C 22.222656 26.226562 22.359375 26.089844 22.351562 26.070312 C 22.347656 26.058594 21.859375 25.851562 21.261719 25.605469 C 20.667969 25.359375 20.175781 25.148438 20.175781 25.140625 C 20.167969 25.117188 20.636719 25.144531 21.148438 25.199219 C 21.3125 25.214844 21.578125 25.246094 21.738281 25.261719 C 22.265625 25.320312 22.382812 25.328125 22.746094 25.328125 C 23.128906 25.328125 23.296875 25.3125 23.589844 25.25 C 24.042969 25.15625 24.53125 24.925781 24.929688 24.625 C 25.089844 24.503906 25.171875 24.429688 25.160156 24.414062 C 25.15625 24.40625 24.515625 24.40625 23.28125 24.414062 C 22.007812 24.417969 21.425781 24.414062 21.40625 24.40625 C 21.402344 24.40625 21.394531 24.40625 21.394531 24.40625 C 21.382812 24.394531 21.519531 24.019531 21.539062 24 C 21.546875 23.996094 21.59375 24.007812 21.644531 24.039062 C 22.5 24.546875 24.347656 24.417969 25.6875 23.75 C 26.074219 23.558594 26.328125 23.375 26.578125 23.125 C 26.878906 22.824219 27.054688 22.492188 27.082031 22.175781 C 27.089844 22.082031 27.085938 22.082031 27.0625 22.082031 C 27.03125 22.082031 26.566406 22.207031 26.316406 22.285156 C 26.222656 22.316406 25.984375 22.390625 25.785156 22.453125 C 24.488281 22.863281 23.945312 22.976562 23.242188 22.988281 C 22.835938 22.996094 22.476562 22.972656 22.488281 22.9375 C 22.5 22.898438 23.050781 22.710938 23.421875 22.613281 C 23.738281 22.535156 23.90625 22.5 24.644531 22.351562 C 25.738281 22.128906 26.132812 22.027344 26.617188 21.835938 C 27.636719 21.429688 28.214844 20.769531 28.394531 19.804688 C 28.441406 19.554688 28.472656 19.117188 28.441406 19.117188 C 28.433594 19.117188 27.910156 19.410156 27.273438 19.765625 C 26.636719 20.121094 26.109375 20.410156 26.101562 20.40625 C 26.085938 20.394531 26.007812 20.226562 26.019531 20.21875 C 26.023438 20.214844 26.101562 20.171875 26.203125 20.117188 C 26.695312 19.851562 27.066406 19.574219 27.46875 19.175781 C 28.222656 18.425781 28.660156 17.558594 28.769531 16.628906 C 28.796875 16.378906 28.789062 15.925781 28.75 15.695312 C 28.703125 15.425781 28.597656 15.023438 28.5625 15.011719 C 28.554688 15.011719 28.101562 15.667969 27.558594 16.46875 C 26.417969 18.15625 26.355469 18.242188 26.347656 18.234375 C 26.328125 18.214844 26.597656 17.730469 27.054688 16.972656 C 27.253906 16.640625 27.464844 16.285156 27.527344 16.179688 C 27.671875 15.917969 27.878906 15.480469 27.957031 15.277344 C 28.234375 14.558594 28.273438 13.945312 28.078125 13.363281 C 28.023438 13.195312 27.890625 12.917969 27.785156 12.757812 C 27.679688 12.597656 27.523438 12.398438 27.507812 12.402344 C 27.5 12.40625 27.1875 13.144531 26.808594 14.046875 L 26.128906 15.683594 L 25.179688 17.300781 C 24.234375 18.917969 24.191406 18.996094 24.183594 18.988281 C 24.175781 18.980469 24.261719 18.738281 24.351562 18.515625 C 24.570312 17.96875 24.800781 17.53125 25.425781 16.457031 C 25.824219 15.769531 26.003906 15.449219 26.167969 15.128906 C 26.667969 14.132812 26.914062 13.328125 26.972656 12.449219 C 26.984375 12.269531 26.984375 12.183594 26.972656 12.070312 C 26.910156 11.460938 26.695312 10.707031 26.46875 10.285156 C 26.335938 10.039062 26.167969 9.84375 26.019531 9.769531 C 25.949219 9.734375 25.929688 9.730469 25.820312 9.730469 C 25.707031 9.730469 25.6875 9.734375 25.597656 9.773438 C 25.390625 9.871094 25.328125 10.027344 25.328125 10.425781 C 25.328125 10.640625 25.34375 10.804688 25.414062 11.28125 L 25.457031 11.617188 L 25.453125 11.996094 C 25.445312 12.375 25.4375 12.496094 25.398438 12.847656 C 25.3125 13.621094 25.105469 14.511719 24.792969 15.457031 C 24.675781 15.8125 24.503906 16.308594 24.484375 16.339844 C 24.441406 16.410156 24.550781 15.898438 24.773438 14.980469 C 25.140625 13.472656 25.230469 12.9375 25.246094 12.175781 C 25.253906 11.652344 25.21875 11.289062 25.121094 10.863281 C 25.0625 10.609375 25.042969 10.542969 24.957031 10.367188 C 24.714844 9.878906 24.292969 9.359375 23.949219 9.136719 C 23.773438 9.019531 23.613281 8.972656 23.46875 8.980469 Z M 23.46875 8.980469 "/>
<path style=" stroke:none;fill-rule:nonzero;fill:rgb(83.529412%,29.803922%,25.490196%);fill-opacity:1;" d="M 16.441406 17.066406 C 15.90625 17.132812 15.378906 17.261719 14.871094 17.4375 C 14.347656 17.632812 13.820312 17.882812 13.433594 18.296875 C 13.40625 18.347656 13.257812 18.457031 13.316406 18.484375 C 13.886719 18.328125 14.6875 18.105469 15.230469 17.953125 C 15.378906 17.910156 15.488281 17.878906 15.617188 17.839844 C 15.851562 17.777344 16.085938 17.710938 16.320312 17.640625 L 16.484375 17.589844 C 16.539062 17.527344 16.507812 17.34375 16.515625 17.238281 C 16.5 17.179688 16.546875 17.03125 16.441406 17.066406 Z M 16.441406 17.066406 "/>
<path style=" stroke:none;fill-rule:nonzero;fill:rgb(56.862745%,50.980392%,84.313725%);fill-opacity:1;" d="M 9.824219 17.183594 C 9.8125 17.171875 9.5625 17.203125 9.460938 17.230469 C 9.175781 17.300781 9.003906 17.472656 8.902344 17.78125 C 8.882812 17.839844 8.871094 17.890625 8.871094 17.90625 C 8.871094 17.9375 8.878906 17.9375 8.992188 17.90625 C 9.226562 17.839844 9.410156 17.730469 9.558594 17.578125 C 9.679688 17.449219 9.847656 17.207031 9.824219 17.183594 Z M 9.824219 17.183594 "/>
<path style=" stroke:none;fill-rule:nonzero;fill:rgb(30.980392%,30.980392%,30.980392%);fill-opacity:1;" d="M 10.730469 17.285156 C 10.578125 17.296875 10.378906 17.34375 10.253906 17.402344 C 9.898438 17.570312 9.691406 17.878906 9.589844 18.363281 C 9.535156 18.644531 9.523438 18.800781 9.519531 19.554688 C 9.519531 19.949219 9.511719 20.269531 9.507812 20.277344 C 9.503906 20.28125 9.484375 20.269531 9.460938 20.246094 C 9.382812 20.152344 9.277344 19.984375 9.132812 19.695312 C 9.082031 19.589844 9.039062 19.519531 8.992188 19.4375 C 8.96875 19.394531 8.933594 19.316406 8.921875 19.296875 C 8.84375 19.179688 8.699219 19.027344 8.597656 18.960938 C 8.515625 18.90625 8.386719 18.859375 8.304688 18.859375 C 8.058594 18.859375 7.839844 19.085938 7.773438 19.40625 C 7.710938 19.714844 7.832031 19.972656 8.089844 20.070312 C 8.132812 20.085938 8.199219 20.09375 8.320312 20.097656 C 8.417969 20.097656 8.503906 20.101562 8.507812 20.109375 C 8.515625 20.113281 8.535156 20.167969 8.554688 20.226562 C 8.609375 20.390625 8.75 20.664062 8.960938 21.015625 C 9.183594 21.390625 9.324219 21.664062 9.386719 21.828125 C 9.449219 22.007812 9.757812 23.1875 9.796875 23.421875 C 9.832031 23.621094 9.84375 23.808594 9.824219 23.902344 C 9.816406 23.945312 9.773438 24.066406 9.734375 24.167969 C 9.617188 24.445312 9.609375 24.546875 9.6875 24.765625 C 9.84375 25.203125 10.121094 25.496094 10.519531 25.664062 C 10.621094 25.703125 10.636719 25.707031 10.660156 25.648438 C 10.714844 25.523438 10.785156 25.242188 10.808594 25.050781 C 10.847656 24.734375 10.820312 24.511719 10.65625 23.78125 C 10.578125 23.445312 10.519531 23.035156 10.546875 23.035156 C 10.550781 23.035156 10.601562 23.066406 10.65625 23.109375 C 10.707031 23.15625 10.882812 23.296875 11.046875 23.421875 C 11.472656 23.746094 11.527344 23.789062 12.015625 24.269531 C 12.199219 24.453125 12.332031 24.574219 12.445312 24.675781 C 12.671875 24.878906 12.808594 24.964844 13 25.03125 C 13.101562 25.066406 13.144531 25.074219 13.230469 25.078125 C 13.445312 25.078125 13.542969 24.988281 13.554688 24.78125 C 13.5625 24.632812 13.515625 24.464844 13.398438 24.226562 C 13.285156 23.992188 13.191406 23.871094 13.011719 23.699219 C 12.804688 23.496094 12.609375 23.355469 11.988281 22.957031 C 11.457031 22.617188 11.222656 22.441406 11.015625 22.234375 C 10.742188 21.960938 10.628906 21.738281 10.617188 21.441406 C 10.605469 21.199219 10.664062 21.046875 10.820312 20.886719 C 10.984375 20.726562 11.160156 20.636719 11.679688 20.457031 C 12.226562 20.265625 12.433594 20.144531 12.523438 19.960938 C 12.554688 19.894531 12.554688 19.875 12.554688 19.765625 C 12.554688 19.664062 12.554688 19.636719 12.53125 19.585938 C 12.410156 19.359375 12.050781 19.222656 11.464844 19.1875 L 11.316406 19.179688 L 10.820312 19.675781 C 10.550781 19.949219 10.324219 20.164062 10.320312 20.160156 C 10.316406 20.15625 10.433594 19.519531 10.582031 18.742188 C 10.734375 17.964844 10.859375 17.320312 10.859375 17.304688 C 10.859375 17.285156 10.847656 17.28125 10.730469 17.285156 Z M 10.730469 17.285156 "/>
<path style=" stroke:none;fill-rule:nonzero;fill:rgb(56.862745%,50.980392%,84.313725%);fill-opacity:1;" d="M 11.78125 18.195312 L 11.789062 18.242188 C 11.796875 18.328125 11.84375 18.53125 11.878906 18.632812 C 11.992188 18.949219 12.195312 19.144531 12.523438 19.253906 C 12.601562 19.277344 12.636719 19.28125 12.644531 19.265625 C 12.65625 19.242188 12.625 18.941406 12.601562 18.832031 C 12.523438 18.511719 12.332031 18.316406 12 18.234375 C 11.9375 18.21875 11.863281 18.203125 11.832031 18.203125 Z M 11.78125 18.195312 "/>
<path style=" stroke:none;fill-rule:nonzero;fill:rgb(56.862745%,50.980392%,84.313725%);fill-opacity:1;" d="M 7.296875 19.535156 C 7.285156 19.539062 7.28125 19.554688 7.273438 19.574219 C 7.25 19.628906 7.214844 19.84375 7.214844 19.929688 C 7.214844 20.148438 7.3125 20.328125 7.503906 20.457031 C 7.578125 20.507812 7.589844 20.507812 7.585938 20.476562 C 7.585938 20.421875 7.484375 19.558594 7.476562 19.546875 C 7.472656 19.542969 7.429688 19.535156 7.382812 19.535156 C 7.335938 19.535156 7.3125 19.53125 7.296875 19.535156 Z M 7.296875 19.535156 "/>
<path style=" stroke:none;fill-rule:nonzero;fill:rgb(56.862745%,50.980392%,84.313725%);fill-opacity:1;" d="M 14.191406 22.375 C 14.167969 22.375 14.054688 22.496094 14 22.578125 C 13.847656 22.800781 13.726562 23.132812 13.65625 23.542969 C 13.632812 23.6875 13.632812 23.757812 13.632812 24.070312 C 13.628906 24.46875 13.640625 24.558594 13.714844 24.785156 C 13.796875 25.035156 13.9375 25.203125 14.101562 25.261719 C 14.128906 25.273438 14.175781 25.28125 14.210938 25.28125 C 14.417969 25.285156 14.613281 25.054688 14.699219 24.703125 C 14.777344 24.402344 14.71875 24.152344 14.441406 23.570312 C 14.265625 23.195312 14.21875 23.046875 14.191406 22.820312 C 14.179688 22.710938 14.175781 22.605469 14.199219 22.441406 C 14.203125 22.394531 14.199219 22.375 14.191406 22.375 Z M 14.191406 22.375 "/>
<path style=" stroke:none;fill-rule:nonzero;fill:rgb(56.862745%,50.980392%,84.313725%);fill-opacity:1;" d="M 8.984375 24.832031 C 8.96875 24.832031 8.96875 24.867188 9 25.011719 C 9.046875 25.246094 9.132812 25.386719 9.289062 25.46875 C 9.386719 25.519531 9.445312 25.535156 9.589844 25.558594 C 9.644531 25.570312 9.695312 25.578125 9.699219 25.578125 C 9.738281 25.582031 9.707031 25.433594 9.644531 25.296875 C 9.582031 25.167969 9.4375 25.03125 9.289062 24.953125 C 9.179688 24.898438 9.011719 24.832031 8.984375 24.832031 Z M 8.984375 24.832031 "/>
<path style=" stroke:none;fill-rule:nonzero;fill:rgb(83.529412%,29.803922%,25.490196%);fill-opacity:1;" d="M 15.898438 15.273438 C 15.898438 15.273438 16.183594 15.074219 16.445312 15.082031 C 16.746094 15.09375 16.945312 15.363281 16.945312 15.363281 C 16.277344 15.773438 15.898438 15.273438 15.898438 15.273438 Z M 15.898438 15.273438 "/>
<path style=" stroke:none;fill-rule:nonzero;fill:rgb(0%,0%,0%);fill-opacity:1;" d="M 23.324219 8.984375 C 23.253906 8.988281 23.183594 9.007812 23.121094 9.046875 C 23.183594 9.007812 23.253906 8.988281 23.324219 8.984375 Z M 23.324219 8.984375 "/>
<path style=" stroke:none;fill-rule:nonzero;fill:rgb(0%,0%,0%);fill-opacity:1;" d="M 22.519531 12.214844 C 22.550781 12.222656 22.578125 12.242188 22.609375 12.257812 C 22.578125 12.246094 22.550781 12.222656 22.519531 12.214844 Z M 22.519531 12.214844 "/>
<path style=" stroke:none;fill-rule:nonzero;fill:rgb(0%,0%,0%);fill-opacity:1;" d="M 20.0625 12.253906 C 20.046875 12.265625 20.058594 12.339844 20.132812 12.617188 C 20.0625 12.34375 20.046875 12.265625 20.0625 12.253906 Z M 20.0625 12.253906 "/>
<path style=" stroke:none;fill-rule:nonzero;fill:rgb(0%,0%,0%);fill-opacity:1;" d="M 22.742188 12.320312 C 22.785156 12.355469 22.828125 12.394531 22.863281 12.4375 C 22.828125 12.394531 22.789062 12.351562 22.742188 12.320312 Z M 22.742188 12.320312 "/>
<path style=" stroke:none;fill-rule:nonzero;fill:rgb(0%,0%,0%);fill-opacity:1;" d="M 22.914062 12.5 C 23 12.628906 23.070312 12.792969 23.117188 13.003906 C 23.167969 13.230469 23.195312 13.464844 23.230469 14.046875 C 23.261719 14.539062 23.300781 14.878906 23.335938 14.890625 C 23.335938 14.890625 23.339844 14.863281 23.339844 14.863281 C 23.308594 14.820312 23.273438 14.511719 23.242188 14.046875 C 23.207031 13.464844 23.179688 13.230469 23.128906 13.003906 C 23.082031 12.785156 23.003906 12.628906 22.914062 12.5 Z M 22.914062 12.5 "/>
<path style=" stroke:none;fill-rule:nonzero;fill:rgb(0%,0%,0%);fill-opacity:1;" d="M 14.519531 15.015625 C 14.292969 15.003906 14.148438 15.066406 13.984375 15.226562 C 14.148438 15.066406 14.292969 15.003906 14.519531 15.015625 Z M 14.519531 15.015625 "/>
<path style=" stroke:none;fill-rule:nonzero;fill:rgb(0%,0%,0%);fill-opacity:1;" d="M 17.132812 13.921875 C 17.121094 13.964844 17.121094 14.007812 17.121094 14.050781 C 17.121094 14.007812 17.125 13.964844 17.132812 13.921875 Z M 17.132812 13.921875 "/>
<path style=" stroke:none;fill-rule:nonzero;fill:rgb(0%,0%,0%);fill-opacity:1;" d="M 17.121094 14.085938 C 17.121094 14.140625 17.132812 14.191406 17.148438 14.246094 C 17.132812 14.191406 17.125 14.140625 17.121094 14.085938 Z M 17.121094 14.085938 "/>
<path style=" stroke:none;fill-rule:nonzero;fill:rgb(0%,0%,0%);fill-opacity:1;" d="M 16.300781 17.09375 C 16.058594 17.128906 15.820312 17.171875 15.582031 17.230469 C 15.820312 17.171875 16.058594 17.128906 16.300781 17.09375 Z M 16.300781 17.09375 "/>
<path style=" stroke:none;fill-rule:nonzero;fill:rgb(0%,0%,0%);fill-opacity:1;" d="M 11.5 19.191406 C 11.488281 19.191406 11.476562 19.1875 11.464844 19.1875 L 11.453125 19.1875 C 11.46875 19.1875 11.484375 19.191406 11.5 19.191406 Z M 11.5 19.191406 "/>
<path style=" stroke:none;fill-rule:nonzero;fill:rgb(0%,0%,0%);fill-opacity:1;" d="M 9.679688 24.722656 C 9.621094 24.539062 9.625 24.425781 9.734375 24.167969 C 9.625 24.425781 9.621094 24.539062 9.679688 24.722656 Z M 9.679688 24.722656 "/>
<path style=" stroke:none;fill-rule:nonzero;fill:rgb(0%,0%,0%);fill-opacity:1;" d="M 10.726562 17.289062 C 10.648438 17.292969 10.5625 17.308594 10.480469 17.328125 C 10.5625 17.308594 10.648438 17.292969 10.726562 17.289062 Z M 10.726562 17.289062 "/>
<path style=" stroke:none;fill-rule:nonzero;fill:rgb(0%,0%,0%);fill-opacity:1;" d="M 9.269531 17.300781 C 9.210938 17.332031 9.160156 17.371094 9.113281 17.417969 C 9.160156 17.371094 9.210938 17.332031 9.269531 17.300781 Z M 9.269531 17.300781 "/>
<path style=" stroke:none;fill-rule:nonzero;fill:rgb(0%,0%,0%);fill-opacity:1;" d="M 8.300781 18.859375 C 8.300781 18.859375 8.296875 18.859375 8.296875 18.859375 C 8.382812 18.863281 8.503906 18.90625 8.589844 18.960938 C 8.6875 19.027344 8.832031 19.179688 8.910156 19.296875 C 8.921875 19.316406 8.957031 19.394531 8.980469 19.4375 C 9.023438 19.519531 9.066406 19.589844 9.121094 19.695312 C 9.265625 19.984375 9.371094 20.152344 9.449219 20.242188 C 9.472656 20.269531 9.492188 20.28125 9.496094 20.277344 C 9.496094 20.277344 9.496094 20.269531 9.496094 20.269531 C 9.488281 20.265625 9.476562 20.261719 9.460938 20.242188 C 9.382812 20.152344 9.277344 19.984375 9.132812 19.695312 C 9.082031 19.589844 9.035156 19.519531 8.992188 19.4375 C 8.96875 19.394531 8.933594 19.316406 8.921875 19.296875 C 8.84375 19.179688 8.699219 19.027344 8.601562 18.960938 C 8.515625 18.90625 8.386719 18.859375 8.300781 18.859375 Z M 8.300781 18.859375 "/>
<path style=" stroke:none;fill-rule:nonzero;fill:rgb(0%,0%,0%);fill-opacity:1;" d="M 8.296875 18.859375 C 8.234375 18.863281 8.175781 18.875 8.121094 18.902344 C 8.175781 18.875 8.234375 18.863281 8.296875 18.859375 Z M 8.296875 18.859375 "/>
<path style=" stroke:none;fill-rule:nonzero;fill:rgb(0%,0%,0%);fill-opacity:1;" d="M 8.105469 18.917969 C 8.054688 18.941406 8.007812 18.972656 7.96875 19.015625 C 8.007812 18.972656 8.054688 18.941406 8.105469 18.917969 Z M 8.105469 18.917969 "/>
<path style=" stroke:none;fill-rule:nonzero;fill:rgb(0%,0%,0%);fill-opacity:1;" d="M 7.765625 19.585938 C 7.765625 19.640625 7.777344 19.6875 7.792969 19.738281 C 7.777344 19.691406 7.769531 19.640625 7.765625 19.585938 Z M 7.765625 19.585938 "/>
<path style=" stroke:none;fill-rule:nonzero;fill:rgb(0%,0%,0%);fill-opacity:1;" d="M 10.722656 21.855469 C 10.753906 21.917969 10.796875 21.976562 10.839844 22.035156 C 10.792969 21.976562 10.753906 21.917969 10.722656 21.855469 Z M 10.722656 21.855469 "/>
</g>
</svg>
