<?xml version="1.0" encoding="UTF-8"?>
<svg xmlns="http://www.w3.org/2000/svg" xmlns:xlink="http://www.w3.org/1999/xlink" width="36pt" height="36pt" viewBox="0 0 36 36" version="1.1">
<g id="surface1">
<path style=" stroke:none;fill-rule:evenodd;fill:rgb(69.411765%,83.921569%,97.647059%);fill-opacity:1;" d="M 8.40625 2.136719 L 27.59375 2.136719 C 31.054688 2.136719 33.863281 4.945312 33.863281 8.40625 L 33.863281 27.59375 C 33.863281 31.054688 31.054688 33.863281 27.59375 33.863281 L 8.40625 33.863281 C 4.945312 33.863281 2.136719 31.054688 2.136719 27.59375 L 2.136719 8.40625 C 2.136719 4.945312 4.945312 2.136719 8.40625 2.136719 Z M 8.40625 2.136719 "/>
<path style=" stroke:none;fill-rule:nonzero;fill:rgb(45.098039%,65.098039%,85.882353%);fill-opacity:1;" d="M 23.085938 16.226562 C 23.867188 13.261719 25.261719 7.6875 29.003906 8.132812 C 26.804688 10.746094 27.726562 14.226562 27.414062 15.53125 C 25.683594 20.355469 26.824219 22.339844 29.425781 24.269531 C 26.53125 24.417969 25.320312 23.082031 23.203125 21.316406 Z M 23.085938 16.226562 "/>
<path style=" stroke:none;fill-rule:nonzero;fill:rgb(36.470588%,54.901961%,76.078431%);fill-opacity:1;" d="M 7.394531 17.417969 C 8.53125 13.828125 10.5 10.734375 12.828125 9.664062 C 11.160156 9.902344 9.207031 10.1875 7.605469 12.355469 C 6.222656 15.015625 7.265625 15.636719 7.394531 17.417969 Z M 7.394531 17.417969 "/>
<path style=" stroke:none;fill-rule:nonzero;fill:rgb(97.647059%,97.647059%,97.647059%);fill-opacity:1;" d="M 6.910156 14.339844 C 6.800781 15.949219 6.960938 16.453125 7.394531 17.417969 L 8.738281 13.613281 C 8.183594 13.535156 7.664062 13.554688 6.910156 14.339844 Z M 6.910156 14.339844 "/>
<path style=" stroke:none;fill-rule:evenodd;fill:rgb(16.470588%,24.313725%,34.509804%);fill-opacity:1;" d="M 8.898438 15.804688 C 8.898438 15.28125 8.488281 14.855469 7.976562 14.855469 C 7.46875 14.855469 7.054688 15.28125 7.054688 15.804688 C 7.054688 16.328125 7.46875 16.753906 7.976562 16.753906 C 8.488281 16.753906 8.898438 16.328125 8.898438 15.804688 Z M 8.898438 15.804688 "/>
<path style=" stroke:none;fill-rule:nonzero;fill:rgb(16.862745%,38.039216%,64.313725%);fill-opacity:1;" d="M 7.910156 21.867188 C 5.976562 18.15625 8.769531 8.710938 15.1875 9.527344 C 20.925781 10.257812 22.785156 13.75 25.417969 17.308594 C 25.84375 18.078125 25.925781 18.632812 25.734375 19.585938 C 23.769531 24.980469 20.027344 28.175781 16.667969 28.195312 C 13.042969 28.21875 9.84375 25.582031 7.910156 21.867188 Z M 7.910156 21.867188 "/>
<path style=" stroke:none;fill-rule:evenodd;fill:rgb(36.470588%,54.901961%,76.078431%);fill-opacity:1;" d="M 20.371094 15.328125 C 20.371094 16.964844 20.777344 18.320312 20.011719 19.292969 C 19.1875 20.339844 17.902344 20.457031 17.101562 20.421875 C 15.183594 20.339844 13.410156 18.183594 13.410156 15.328125 C 13.410156 12.476562 14.96875 10.160156 16.890625 10.160156 C 18.8125 10.160156 20.371094 12.476562 20.371094 15.328125 Z M 20.371094 15.328125 "/>
<path style=" stroke:none;fill-rule:evenodd;fill:rgb(97.647059%,97.647059%,97.647059%);fill-opacity:1;" d="M 20.316406 16.113281 C 20.316406 17.699219 18.5 19.640625 16.726562 19.640625 C 14.949219 19.640625 13.441406 17.527344 13.441406 15.941406 C 13.441406 15.4375 13.425781 14.171875 13.679688 13.761719 C 14.230469 12.875 15.570312 12.925781 16.761719 13.144531 C 18.484375 13.460938 20.316406 14.523438 20.316406 16.113281 Z M 20.316406 16.113281 "/>
<path style=" stroke:none;fill-rule:evenodd;fill:rgb(16.470588%,24.313725%,34.509804%);fill-opacity:1;" d="M 19 15.277344 C 19 14.75 18.585938 14.328125 18.078125 14.328125 C 17.566406 14.328125 17.152344 14.75 17.152344 15.277344 C 17.152344 15.800781 17.566406 16.226562 18.078125 16.226562 C 18.585938 16.226562 19 15.800781 19 15.277344 Z M 19 15.277344 "/>
<path style=" stroke:none;fill-rule:nonzero;fill:rgb(36.470588%,54.901961%,76.078431%);fill-opacity:1;" d="M 7.910156 21.867188 C 10.242188 25.226562 15.972656 23.46875 17.378906 22.257812 C 16.542969 27.253906 11.773438 27.742188 9.148438 25.875 C 7.890625 24.984375 7.105469 23.386719 7.910156 21.867188 Z M 7.910156 21.867188 "/>
<path style="fill:none;stroke-width:0.4;stroke-linecap:round;stroke-linejoin:miter;stroke:rgb(27.058824%,42.352941%,60.784314%);stroke-opacity:1;stroke-miterlimit:4;" d="M -64.472301 35.425309 C -59.741791 40.735834 -52.066011 39.560739 -48.570857 36.366891 " transform="matrix(0.518575,0,0,0.518575,41.254047,4.992596)"/>
</g>
</svg>
