<?xml version="1.0" encoding="UTF-8"?>
<svg xmlns="http://www.w3.org/2000/svg" xmlns:xlink="http://www.w3.org/1999/xlink" width="36pt" height="36pt" viewBox="0 0 36 36" version="1.1">
<g id="surface1">
<path style=" stroke:none;fill-rule:evenodd;fill:rgb(90.588235%,31.764706%,46.666667%);fill-opacity:1;" d="M 8.40625 2.136719 L 27.59375 2.136719 C 31.054688 2.136719 33.863281 4.945312 33.863281 8.40625 L 33.863281 27.59375 C 33.863281 31.054688 31.054688 33.863281 27.59375 33.863281 L 8.40625 33.863281 C 4.945312 33.863281 2.136719 31.054688 2.136719 27.59375 L 2.136719 8.40625 C 2.136719 4.945312 4.945312 2.136719 8.40625 2.136719 Z M 8.40625 2.136719 "/>
<path style=" stroke:none;fill-rule:nonzero;fill:rgb(100%,100%,100%);fill-opacity:1;" d="M 18 7.875 C 16.847656 7.878906 15.707031 8.078125 14.625 8.464844 L 14.625 21.375 C 14.625 22 14.125 22.5 13.5 22.5 C 12.875 22.5 12.375 22 12.375 21.375 L 12.375 9.589844 C 9.566406 11.46875 7.878906 14.621094 7.875 18 C 7.875 23.59375 12.40625 28.125 18 28.125 C 23.59375 28.125 28.125 23.59375 28.125 18 C 28.125 12.410156 23.59375 7.875 18 7.875 Z M 17.375 13.5 C 17.457031 13.5 17.535156 13.523438 17.609375 13.566406 L 24.5 17.558594 C 24.652344 17.648438 24.75 17.816406 24.75 18 C 24.75 18.183594 24.652344 18.351562 24.5 18.441406 L 17.609375 22.433594 C 17.457031 22.523438 17.269531 22.519531 17.117188 22.429688 C 16.96875 22.339844 16.875 22.171875 16.875 21.992188 L 16.875 14.007812 C 16.875 13.871094 16.925781 13.742188 17.019531 13.644531 C 17.113281 13.550781 17.242188 13.5 17.375 13.5 Z M 17.375 13.5 "/>
</g>
</svg>
