<?xml version="1.0" encoding="UTF-8"?>
<svg xmlns="http://www.w3.org/2000/svg" xmlns:xlink="http://www.w3.org/1999/xlink" width="36pt" height="36pt" viewBox="0 0 36 36" version="1.1">
<g id="surface1">
<path style=" stroke:none;fill-rule:evenodd;fill:rgb(86.27451%,86.27451%,74.509804%);fill-opacity:1;" d="M 8.40625 2.136719 L 27.59375 2.136719 C 31.054688 2.136719 33.863281 4.945312 33.863281 8.40625 L 33.863281 27.59375 C 33.863281 31.054688 31.054688 33.863281 27.59375 33.863281 L 8.40625 33.863281 C 4.945312 33.863281 2.136719 31.054688 2.136719 27.59375 L 2.136719 8.40625 C 2.136719 4.945312 4.945312 2.136719 8.40625 2.136719 Z M 8.40625 2.136719 "/>
<path style=" stroke:none;fill-rule:nonzero;fill:rgb(23.529412%,47.45098%,90.588235%);fill-opacity:1;" d="M 9.011719 6.015625 C 7.359375 6.015625 6.015625 7.359375 6.015625 9.011719 C 6.015625 10.667969 7.359375 12.007812 9.011719 12.007812 C 10.667969 12.007812 12.007812 10.667969 12.007812 9.011719 C 12.007812 7.359375 10.667969 6.015625 9.011719 6.015625 Z M 9.011719 7.515625 C 9.839844 7.515625 10.511719 8.183594 10.511719 9.011719 C 10.511719 9.839844 9.839844 10.511719 9.011719 10.511719 C 8.183594 10.511719 7.515625 9.839844 7.515625 9.011719 C 7.515625 8.183594 8.183594 7.515625 9.011719 7.515625 Z M 9.011719 7.515625 "/>
<path style=" stroke:none;fill-rule:nonzero;fill:rgb(50.196078%,50.196078%,50.196078%);fill-opacity:1;" d="M 13.507812 4.519531 L 13.507812 13.507812 L 4.519531 13.507812 L 4.519531 15.003906 L 13.507812 15.003906 L 13.507812 20.996094 L 4.519531 20.996094 L 4.519531 22.492188 L 13.507812 22.492188 L 13.507812 31.480469 L 15.003906 31.480469 L 15.003906 22.492188 L 20.996094 22.492188 L 20.996094 31.480469 L 22.492188 31.480469 L 22.492188 22.492188 L 31.480469 22.492188 L 31.480469 20.996094 L 22.492188 20.996094 L 22.492188 15.003906 L 31.480469 15.003906 L 31.480469 13.507812 L 22.492188 13.507812 L 22.492188 4.519531 L 20.996094 4.519531 L 20.996094 13.507812 L 15.003906 13.507812 L 15.003906 4.519531 Z M 15.003906 15.003906 L 20.996094 15.003906 L 20.996094 20.996094 L 15.003906 20.996094 Z M 15.003906 15.003906 "/>
<path style=" stroke:none;fill-rule:nonzero;fill:rgb(23.529412%,47.45098%,90.588235%);fill-opacity:1;" d="M 26.988281 23.992188 C 25.332031 23.992188 23.992188 25.332031 23.992188 26.988281 C 23.992188 28.640625 25.332031 29.984375 26.988281 29.984375 C 28.640625 29.984375 29.984375 28.640625 29.984375 26.988281 C 29.984375 25.332031 28.640625 23.992188 26.988281 23.992188 Z M 26.988281 25.488281 C 27.816406 25.488281 28.484375 26.160156 28.484375 26.988281 C 28.484375 27.816406 27.816406 28.484375 26.988281 28.484375 C 26.160156 28.484375 25.488281 27.816406 25.488281 26.988281 C 25.488281 26.160156 26.160156 25.488281 26.988281 25.488281 Z M 26.988281 25.488281 "/>
<path style=" stroke:none;fill-rule:nonzero;fill:rgb(90.588235%,29.803922%,23.529412%);fill-opacity:1;" d="M 19.589844 15.351562 L 18 16.941406 L 16.410156 15.351562 L 15.351562 16.410156 L 16.941406 18 L 15.351562 19.589844 L 16.410156 20.648438 L 18 19.058594 L 19.589844 20.648438 L 20.648438 19.589844 L 19.058594 18 L 20.648438 16.410156 Z M 19.589844 15.351562 "/>
</g>
</svg>
