<?xml version="1.0" encoding="UTF-8"?>
<svg xmlns="http://www.w3.org/2000/svg" xmlns:xlink="http://www.w3.org/1999/xlink" width="36pt" height="36pt" viewBox="0 0 36 36" version="1.1">
<g id="surface1">
<path style=" stroke:none;fill-rule:evenodd;fill:rgb(25.490196%,64.705882%,78.039216%);fill-opacity:1;" d="M 8.40625 2.136719 L 27.59375 2.136719 C 31.054688 2.136719 33.863281 4.945312 33.863281 8.40625 L 33.863281 27.59375 C 33.863281 31.054688 31.054688 33.863281 27.59375 33.863281 L 8.40625 33.863281 C 4.945312 33.863281 2.136719 31.054688 2.136719 27.59375 L 2.136719 8.40625 C 2.136719 4.945312 4.945312 2.136719 8.40625 2.136719 Z M 8.40625 2.136719 "/>
<path style=" stroke:none;fill-rule:nonzero;fill:rgb(100%,100%,100%);fill-opacity:1;" d="M 18.3125 12.914062 C 15.671875 12.914062 13.527344 15.054688 13.527344 17.695312 C 13.527344 20.339844 15.671875 22.480469 18.3125 22.480469 C 20.953125 22.480469 23.09375 20.339844 23.09375 17.695312 C 23.09375 15.054688 20.953125 12.914062 18.3125 12.914062 Z M 18.3125 14.828125 C 19.898438 14.828125 21.183594 16.113281 21.183594 17.695312 C 21.183594 19.28125 19.898438 20.566406 18.3125 20.566406 C 16.726562 20.566406 15.441406 19.28125 15.441406 17.695312 C 15.441406 16.113281 16.726562 14.828125 18.3125 14.828125 Z M 18.3125 14.828125 "/>
<path style=" stroke:none;fill-rule:nonzero;fill:rgb(100%,100%,100%);fill-opacity:1;" d="M 6.832031 16.738281 C 6.300781 16.738281 5.875 17.167969 5.875 17.695312 C 5.808594 20.21875 5.964844 22.882812 5.875 25.351562 C 5.875 27.992188 8.015625 30.132812 10.660156 30.132812 C 13.300781 30.132812 15.441406 27.992188 15.441406 25.351562 C 15.441406 22.707031 13.300781 20.566406 10.660156 20.566406 C 9.625 20.570312 8.617188 20.90625 7.789062 21.53125 L 7.789062 17.695312 C 7.789062 17.167969 7.363281 16.738281 6.832031 16.738281 Z M 10.660156 22.480469 C 12.242188 22.480469 13.527344 23.765625 13.527344 25.351562 C 13.527344 26.933594 12.242188 28.21875 10.660156 28.21875 C 9.074219 28.21875 7.789062 26.933594 7.789062 25.351562 C 7.789062 23.765625 9.074219 22.480469 10.660156 22.480469 Z M 10.660156 22.480469 "/>
<path style=" stroke:none;fill-rule:nonzero;fill:rgb(100%,100%,100%);fill-opacity:1;" d="M 23.09375 5.867188 C 22.851562 5.867188 22.605469 5.960938 22.417969 6.148438 C 22.042969 6.523438 22.042969 7.125 22.417969 7.5 L 24.785156 9.867188 L 22.417969 12.234375 C 22.042969 12.609375 22.042969 13.214844 22.417969 13.589844 C 22.792969 13.964844 23.398438 13.964844 23.773438 13.589844 L 26.140625 11.222656 L 28.507812 13.589844 C 28.882812 13.964844 29.484375 13.964844 29.859375 13.589844 C 30.234375 13.214844 30.234375 12.609375 29.859375 12.234375 L 27.492188 9.867188 L 29.859375 7.5 C 30.234375 7.125 30.234375 6.523438 29.859375 6.148438 C 29.484375 5.773438 28.882812 5.773438 28.507812 6.148438 L 26.140625 8.515625 L 23.773438 6.148438 C 23.585938 5.960938 23.339844 5.867188 23.09375 5.867188 Z M 23.09375 5.867188 "/>
</g>
</svg>
