<?xml version="1.0" encoding="UTF-8"?>
<svg xmlns="http://www.w3.org/2000/svg" xmlns:xlink="http://www.w3.org/1999/xlink" width="36pt" height="36pt" viewBox="0 0 36 36" version="1.1">
<defs>
<filter id="alpha" filterUnits="objectBoundingBox" x="0%" y="0%" width="100%" height="100%">
  <feColorMatrix type="matrix" in="SourceGraphic" values="0 0 0 0 1 0 0 0 0 1 0 0 0 0 1 0 0 0 1 0"/>
</filter>
<mask id="mask0">
  <g filter="url(#alpha)">
<rect x="0" y="0" width="36" height="36" style="fill:rgb(0%,0%,0%);fill-opacity:0.2;stroke:none;"/>
  </g>
</mask>
<clipPath id="clip1">
  <rect width="36" height="36"/>
</clipPath>
<g id="surface6" clip-path="url(#clip1)">
<path style=" stroke:none;fill-rule:nonzero;fill:rgb(100%,100%,100%);fill-opacity:1;" d="M 15.027344 23.675781 L 15.207031 24.488281 L 20.792969 24.488281 L 20.972656 23.675781 Z M 15.390625 25.296875 L 15.570312 26.109375 L 20.429688 26.109375 L 20.609375 25.296875 Z M 15.753906 26.921875 L 15.878906 27.488281 C 15.898438 27.574219 15.929688 27.652344 15.960938 27.730469 L 20.039062 27.730469 C 20.066406 27.652344 20.101562 27.574219 20.121094 27.488281 L 20.246094 26.921875 Z M 15.753906 26.921875 "/>
</g>
</defs>
<g id="surface1">
<path style=" stroke:none;fill-rule:evenodd;fill:rgb(96.078431%,67.058824%,20.784314%);fill-opacity:1;" d="M 8.40625 2.136719 L 27.59375 2.136719 C 31.054688 2.136719 33.863281 4.945312 33.863281 8.40625 L 33.863281 27.59375 C 33.863281 31.054688 31.054688 33.863281 27.59375 33.863281 L 8.40625 33.863281 C 4.945312 33.863281 2.136719 31.054688 2.136719 27.59375 L 2.136719 8.40625 C 2.136719 4.945312 4.945312 2.136719 8.40625 2.136719 Z M 8.40625 2.136719 "/>
<path style=" stroke:none;fill-rule:nonzero;fill:rgb(100%,100%,100%);fill-opacity:1;" d="M 18 7.457031 C 14.195312 7.457031 11.105469 10.550781 11.105469 14.363281 C 11.09375 16.433594 12.917969 18.242188 13.757812 20.210938 C 14.132812 21.085938 14.820312 22.867188 14.820312 22.867188 L 21.179688 22.867188 C 21.179688 22.867188 21.867188 21.085938 22.242188 20.210938 C 23.082031 18.242188 24.855469 16.410156 24.894531 14.363281 C 24.894531 10.550781 21.804688 7.457031 18 7.457031 Z M 18 7.457031 "/>
<path style=" stroke:none;fill-rule:nonzero;fill:rgb(26.27451%,26.27451%,26.27451%);fill-opacity:1;" d="M 21.179688 22.867188 L 20.121094 27.488281 C 19.988281 28.058594 19.648438 28.542969 19.0625 28.542969 L 16.941406 28.542969 C 16.351562 28.542969 16.003906 28.058594 15.878906 27.488281 L 14.820312 22.867188 Z M 21.179688 22.867188 "/>
<use xlink:href="#surface6" mask="url(#mask0)"/>
<path style=" stroke:none;fill-rule:evenodd;fill:rgb(96.078431%,67.058824%,20.784314%);fill-opacity:1;" d="M 19.214844 9.078125 L 15.160156 15.566406 L 17.59375 15.566406 L 17.59375 20.433594 L 21.648438 13.945312 L 19.214844 13.945312 Z M 19.214844 9.078125 "/>
</g>
</svg>
