<?xml version="1.0" encoding="UTF-8"?>
<svg xmlns="http://www.w3.org/2000/svg" xmlns:xlink="http://www.w3.org/1999/xlink" width="36pt" height="36pt" viewBox="0 0 36 36" version="1.1">
<g id="surface1">
<path style=" stroke:none;fill-rule:evenodd;fill:rgb(96.862745%,43.529412%,19.215686%);fill-opacity:1;" d="M 8.40625 2.136719 L 27.59375 2.136719 C 31.054688 2.136719 33.863281 4.945312 33.863281 8.40625 L 33.863281 27.59375 C 33.863281 31.054688 31.054688 33.863281 27.59375 33.863281 L 8.40625 33.863281 C 4.945312 33.863281 2.136719 31.054688 2.136719 27.59375 L 2.136719 8.40625 C 2.136719 4.945312 4.945312 2.136719 8.40625 2.136719 Z M 8.40625 2.136719 "/>
<path style=" stroke:none;fill-rule:nonzero;fill:rgb(100%,100%,100%);fill-opacity:1;" d="M 19.289062 27.273438 C 20.292969 26.421875 20.578125 26.117188 21.824219 25.230469 C 22.523438 24.730469 22.636719 24.601562 22.519531 24.425781 C 22.429688 24.28125 20.28125 23.289062 19.199219 22.855469 C 18.0625 22.398438 17.941406 22.398438 16.839844 22.84375 C 15.851562 23.246094 13.734375 24.230469 13.550781 24.410156 C 13.355469 24.59375 13.453125 24.765625 13.941406 25.09375 C 14.941406 25.765625 15.84375 26.535156 16.75 27.304688 C 18.054688 28.410156 17.953125 28.414062 19.289062 27.277344 Z M 14.042969 23.070312 C 15.402344 22.4375 15.605469 22.304688 16.640625 21.390625 C 17.515625 20.621094 17.675781 20.390625 17.550781 20.097656 C 17.507812 20 16.855469 19.398438 16.09375 18.761719 C 14.300781 17.253906 14.375 17.464844 15.058594 15.832031 C 15.464844 14.859375 15.570312 14.535156 15.570312 14.265625 C 15.566406 13.859375 15.414062 13.550781 15.109375 13.339844 C 14.988281 13.257812 13.902344 12.820312 12.703125 12.375 C 11.5 11.925781 10.523438 11.53125 10.53125 11.496094 C 10.550781 11.414062 11.875 11.269531 12.839844 11.246094 L 13.566406 11.226562 L 14.902344 11.691406 C 16.070312 12.097656 16.253906 12.183594 16.339844 12.347656 C 16.398438 12.449219 16.441406 12.589844 16.441406 12.65625 C 16.4375 12.722656 16.222656 13.691406 15.960938 14.800781 C 15.496094 16.75 15.484375 16.828125 15.605469 16.949219 C 15.796875 17.136719 17.660156 17.488281 18.242188 17.441406 C 18.910156 17.390625 20.269531 17.078125 20.40625 16.941406 C 20.515625 16.832031 20.496094 16.707031 20.042969 14.800781 C 19.777344 13.691406 19.5625 12.722656 19.5625 12.65625 C 19.5625 12.589844 19.605469 12.449219 19.660156 12.347656 C 19.75 12.179688 19.921875 12.101562 20.960938 11.738281 C 22.636719 11.152344 22.601562 11.160156 24.125 11.292969 C 24.835938 11.355469 25.445312 11.433594 25.476562 11.46875 C 25.515625 11.5 25.472656 11.550781 25.375 11.589844 C 25.28125 11.625 24.304688 11.992188 23.199219 12.402344 C 22.09375 12.816406 21.070312 13.230469 20.929688 13.320312 C 20.597656 13.535156 20.433594 13.84375 20.433594 14.261719 C 20.429688 14.53125 20.535156 14.851562 20.929688 15.792969 C 21.207031 16.449219 21.429688 17.046875 21.429688 17.121094 C 21.429688 17.425781 21.203125 17.671875 19.941406 18.726562 C 19.21875 19.335938 18.574219 19.921875 18.511719 20.03125 C 18.449219 20.140625 18.414062 20.304688 18.433594 20.402344 C 18.464844 20.5625 19.335938 21.398438 20.21875 22.117188 C 20.589844 22.421875 22.839844 23.527344 23.199219 23.582031 C 23.5 23.628906 23.824219 23.480469 24.351562 23.042969 C 24.867188 22.617188 25.175781 22.1875 25.386719 21.609375 C 25.582031 21.0625 25.53125 20.695312 25.144531 19.8125 C 24.847656 19.140625 24.769531 18.769531 24.867188 18.519531 C 24.890625 18.460938 25.695312 17.703125 26.652344 16.835938 C 28.738281 14.945312 29.074219 14.605469 29.1875 14.269531 C 29.316406 13.894531 29.226562 13.402344 28.941406 12.90625 C 28.257812 11.71875 25.546875 7.867188 25.304688 7.867188 C 24.066406 8.070312 23.070312 8.628906 21.765625 8.832031 C 21.660156 8.832031 21.226562 8.726562 20.792969 8.597656 C 18.953125 8.039062 18.355469 7.890625 18 7.890625 C 17.644531 7.890625 17.046875 8.039062 15.207031 8.597656 C 14.777344 8.726562 14.335938 8.832031 14.226562 8.832031 C 12.941406 8.640625 11.902344 8.074219 10.574219 7.910156 C 10.363281 8.046875 8.601562 10.652344 7.839844 11.753906 C 6.941406 13.046875 6.851562 13.214844 6.777344 13.707031 C 6.675781 14.398438 6.773438 14.511719 9.453125 16.933594 C 10.355469 17.75 11.113281 18.460938 11.132812 18.519531 C 11.234375 18.773438 11.15625 19.160156 10.863281 19.832031 C 10.460938 20.757812 10.425781 21.015625 10.621094 21.574219 C 10.832031 22.183594 11.1875 22.675781 11.726562 23.097656 C 12.230469 23.492188 12.421875 23.589844 12.71875 23.597656 C 12.824219 23.601562 13.421875 23.363281 14.042969 23.070312 Z M 14.042969 23.070312 "/>
</g>
</svg>
