<?xml version="1.0" encoding="UTF-8"?>
<svg xmlns="http://www.w3.org/2000/svg" xmlns:xlink="http://www.w3.org/1999/xlink" width="36pt" height="36pt" viewBox="0 0 36 36" version="1.1">
<g id="surface1">
<path style=" stroke:none;fill-rule:evenodd;fill:rgb(93.333333%,46.666667%,21.568627%);fill-opacity:1;" d="M 8.40625 2.136719 L 27.59375 2.136719 C 31.054688 2.136719 33.863281 4.945312 33.863281 8.40625 L 33.863281 27.59375 C 33.863281 31.054688 31.054688 33.863281 27.59375 33.863281 L 8.40625 33.863281 C 4.945312 33.863281 2.136719 31.054688 2.136719 27.59375 L 2.136719 8.40625 C 2.136719 4.945312 4.945312 2.136719 8.40625 2.136719 Z M 8.40625 2.136719 "/>
<path style=" stroke:none;fill-rule:nonzero;fill:rgb(100%,100%,100%);fill-opacity:1;" d="M 15.660156 6.5625 C 15.414062 6.585938 15.203125 6.785156 15.15625 7.027344 L 14.675781 9.472656 C 13.808594 9.8125 12.996094 10.277344 12.28125 10.851562 L 9.902344 10.046875 C 9.65625 9.960938 9.355469 10.070312 9.222656 10.296875 L 6.9375 14.265625 C 6.808594 14.492188 6.863281 14.808594 7.0625 14.980469 L 8.957031 16.640625 C 8.890625 17.085938 8.847656 17.535156 8.847656 18 C 8.847656 18.464844 8.890625 18.914062 8.957031 19.359375 L 7.0625 21.019531 C 6.863281 21.191406 6.808594 21.507812 6.9375 21.734375 L 9.222656 25.703125 C 9.355469 25.929688 9.65625 26.039062 9.902344 25.953125 L 12.28125 25.148438 C 12.996094 25.722656 13.808594 26.1875 14.675781 26.527344 L 15.15625 28.976562 C 15.207031 29.230469 15.449219 29.4375 15.710938 29.441406 L 20.289062 29.441406 C 20.550781 29.4375 20.792969 29.230469 20.84375 28.976562 L 21.324219 26.527344 C 22.191406 26.1875 23.003906 25.722656 23.71875 25.148438 L 26.097656 25.953125 C 26.34375 26.039062 26.644531 25.929688 26.777344 25.703125 L 29.0625 21.734375 C 29.191406 21.507812 29.136719 21.191406 28.9375 21.019531 L 27.042969 19.359375 C 27.109375 18.914062 27.152344 18.464844 27.152344 18 C 27.152344 17.535156 27.109375 17.085938 27.042969 16.640625 L 28.9375 14.980469 C 29.136719 14.808594 29.191406 14.492188 29.0625 14.265625 L 26.777344 10.296875 C 26.644531 10.070312 26.34375 9.960938 26.097656 10.046875 L 23.71875 10.851562 C 23.003906 10.277344 22.191406 9.8125 21.324219 9.472656 L 20.84375 7.023438 C 20.792969 6.769531 20.546875 6.5625 20.289062 6.558594 L 15.710938 6.558594 C 15.695312 6.558594 15.675781 6.558594 15.660156 6.558594 Z M 15.660156 6.5625 "/>
<path style=" stroke:none;fill-rule:nonzero;fill:rgb(93.333333%,46.666667%,21.568627%);fill-opacity:1;" d="M 18 13.097656 C 20.707031 13.097656 22.902344 15.292969 22.902344 18 C 22.902344 20.707031 20.707031 22.902344 18 22.902344 C 15.292969 22.902344 13.097656 20.707031 13.097656 18 C 13.097656 15.292969 15.292969 13.097656 18 13.097656 Z M 18 13.097656 "/>
<path style=" stroke:none;fill-rule:nonzero;fill:rgb(60%,60%,60%);fill-opacity:1;" d="M 18 10.644531 C 13.945312 10.644531 10.644531 13.945312 10.644531 18 C 10.644531 22.054688 13.945312 25.355469 18 25.355469 C 22.058594 25.355469 25.355469 22.054688 25.355469 18 C 25.355469 13.945312 22.058594 10.644531 18 10.644531 Z M 18 11.511719 C 21.589844 11.511719 24.488281 14.410156 24.488281 18 C 24.488281 21.589844 21.589844 24.488281 18 24.488281 C 14.410156 24.488281 11.511719 21.589844 11.511719 18 C 11.511719 14.410156 14.410156 11.511719 18 11.511719 Z M 18 11.511719 "/>
<path style=" stroke:none;fill-rule:nonzero;fill:rgb(100%,93.333333%,34.117647%);fill-opacity:1;" d="M 17.246094 10.683594 C 13.542969 11.0625 10.644531 14.199219 10.644531 18 C 10.644531 22.054688 13.945312 25.355469 18 25.355469 C 18.609375 25.355469 19.195312 25.273438 19.761719 25.132812 C 19.816406 25.011719 19.90625 24.804688 19.867188 24.644531 C 19.832031 24.496094 19.707031 24.367188 19.570312 24.289062 C 19.070312 24.414062 18.542969 24.488281 18 24.488281 C 14.410156 24.488281 11.511719 21.589844 11.511719 18 C 11.511719 14.578125 14.148438 11.789062 17.503906 11.535156 C 17.636719 11.394531 17.683594 11.246094 17.660156 11.046875 C 17.636719 10.84375 17.480469 10.734375 17.246094 10.683594 Z M 17.246094 10.683594 "/>
</g>
</svg>
