<?xml version="1.0" encoding="UTF-8"?>
<svg xmlns="http://www.w3.org/2000/svg" xmlns:xlink="http://www.w3.org/1999/xlink" width="36pt" height="36pt" viewBox="0 0 36 36" version="1.1">
<defs>
<clipPath id="clip1">
  <rect width="36" height="36"/>
</clipPath>
<g id="surface6" clip-path="url(#clip1)">
<path style=" stroke:none;fill-rule:nonzero;fill:rgb(100%,100%,100%);fill-opacity:1;" d="M 12.96875 7.5625 C 12.898438 7.542969 12.816406 7.546875 12.75 7.582031 L 10.34375 8.742188 C 10.207031 8.808594 10.128906 8.980469 10.167969 9.128906 L 10.535156 10.550781 C 10.355469 10.742188 10.1875 10.945312 10.035156 11.167969 C 9.882812 11.390625 9.757812 11.621094 9.640625 11.859375 L 8.183594 12.035156 C 8.03125 12.054688 7.898438 12.1875 7.886719 12.339844 L 7.6875 15.003906 C 7.675781 15.15625 7.78125 15.308594 7.929688 15.347656 L 9.339844 15.742188 C 9.496094 16.25 9.734375 16.742188 10.042969 17.191406 L 9.46875 18.53125 C 9.410156 18.667969 9.460938 18.847656 9.585938 18.9375 L 11.789062 20.4375 C 11.914062 20.523438 12.101562 20.503906 12.207031 20.398438 L 13.246094 19.375 C 13.773438 19.496094 14.320312 19.542969 14.851562 19.5 L 15.730469 20.667969 C 15.824219 20.789062 16.003906 20.835938 16.140625 20.769531 L 18.546875 19.609375 C 18.683594 19.542969 18.761719 19.375 18.71875 19.226562 L 18.355469 17.800781 C 18.535156 17.609375 18.699219 17.40625 18.851562 17.183594 C 19.003906 16.957031 19.132812 16.730469 19.25 16.492188 L 20.707031 16.316406 C 20.859375 16.296875 20.988281 16.164062 21 16.011719 L 21.203125 13.347656 C 21.214844 13.195312 21.105469 13.046875 20.957031 13.003906 L 19.550781 12.613281 C 19.394531 12.101562 19.152344 11.609375 18.847656 11.160156 L 19.417969 9.824219 C 19.480469 9.683594 19.429688 9.503906 19.304688 9.417969 L 17.101562 7.914062 C 17.09375 7.910156 17.082031 7.902344 17.074219 7.898438 C 16.949219 7.828125 16.78125 7.855469 16.679688 7.957031 L 15.644531 8.976562 C 15.117188 8.855469 14.570312 8.8125 14.039062 8.851562 L 13.15625 7.683594 C 13.113281 7.621094 13.042969 7.582031 12.96875 7.5625 Z M 14.460938 11.316406 C 15.011719 11.320312 15.566406 11.480469 16.054688 11.816406 C 17.359375 12.703125 17.695312 14.484375 16.808594 15.789062 C 15.917969 17.089844 14.136719 17.429688 12.835938 16.539062 C 11.53125 15.648438 11.191406 13.871094 12.082031 12.566406 C 12.640625 11.75 13.542969 11.3125 14.460938 11.316406 Z M 14.460938 11.316406 "/>
</g>
<clipPath id="clip2">
  <rect width="36" height="36"/>
</clipPath>
<g id="surface9" clip-path="url(#clip2)">
<path style=" stroke:none;fill-rule:nonzero;fill:rgb(100%,100%,100%);fill-opacity:1;" d="M 23.765625 15.789062 C 23.660156 15.785156 23.550781 15.851562 23.515625 15.953125 L 23.128906 16.972656 C 22.734375 17.054688 22.347656 17.195312 22 17.390625 L 21.035156 16.871094 C 20.9375 16.816406 20.796875 16.839844 20.726562 16.925781 L 19.453125 18.46875 C 19.378906 18.558594 19.382812 18.695312 19.453125 18.785156 L 20.148438 19.636719 C 20.085938 19.824219 20.039062 20.015625 20.003906 20.214844 C 19.96875 20.414062 19.953125 20.609375 19.953125 20.804688 L 19.015625 21.382812 C 18.917969 21.441406 18.871094 21.574219 18.910156 21.683594 L 19.605469 23.554688 C 19.644531 23.660156 19.765625 23.730469 19.878906 23.710938 L 20.960938 23.539062 C 21.226562 23.835938 21.542969 24.09375 21.890625 24.304688 L 21.917969 25.394531 C 21.921875 25.507812 22.011719 25.613281 22.125 25.632812 L 24.089844 25.96875 C 24.203125 25.984375 24.324219 25.914062 24.363281 25.808594 L 24.75 24.789062 C 25.148438 24.707031 25.53125 24.566406 25.878906 24.371094 L 26.84375 24.890625 C 26.945312 24.945312 27.082031 24.917969 27.152344 24.832031 L 28.425781 23.289062 C 28.5 23.203125 28.496094 23.0625 28.421875 22.976562 L 27.730469 22.121094 C 27.789062 21.933594 27.839844 21.746094 27.875 21.546875 C 27.910156 21.347656 27.921875 21.148438 27.925781 20.953125 L 28.863281 20.378906 C 28.960938 20.320312 29.007812 20.1875 28.96875 20.078125 L 28.273438 18.203125 C 28.234375 18.097656 28.113281 18.03125 28 18.046875 L 26.917969 18.222656 C 26.652344 17.921875 26.335938 17.664062 25.988281 17.453125 L 25.960938 16.367188 C 25.957031 16.253906 25.867188 16.144531 25.757812 16.125 L 23.789062 15.792969 C 23.78125 15.792969 23.773438 15.789062 23.765625 15.789062 Z M 23.863281 18.742188 C 24.007812 18.738281 24.148438 18.746094 24.296875 18.769531 C 25.460938 18.96875 26.246094 20.070312 26.046875 21.238281 C 25.851562 22.402344 24.746094 23.183594 23.582031 22.988281 C 22.417969 22.789062 21.636719 21.6875 21.832031 20.523438 C 22.003906 19.503906 22.871094 18.777344 23.863281 18.742188 Z M 23.863281 18.742188 "/>
</g>
<clipPath id="clip3">
  <rect width="36" height="36"/>
</clipPath>
<g id="surface12" clip-path="url(#clip3)">
<path style=" stroke:none;fill-rule:nonzero;fill:rgb(100%,100%,100%);fill-opacity:1;" d="M 13.972656 21.132812 C 13.902344 21.125 13.828125 21.175781 13.800781 21.242188 L 13.535156 21.945312 C 13.261719 22.003906 12.996094 22.101562 12.753906 22.234375 L 12.089844 21.875 C 12.019531 21.839844 11.925781 21.859375 11.875 21.917969 L 10.996094 22.980469 C 10.945312 23.042969 10.945312 23.136719 10.996094 23.199219 L 11.476562 23.789062 C 11.433594 23.917969 11.402344 24.046875 11.378906 24.183594 C 11.355469 24.324219 11.34375 24.457031 11.339844 24.59375 L 10.695312 24.992188 C 10.625 25.035156 10.59375 25.125 10.621094 25.199219 L 11.101562 26.492188 C 11.128906 26.566406 11.210938 26.613281 11.289062 26.601562 L 12.035156 26.480469 C 12.21875 26.6875 12.4375 26.867188 12.679688 27.011719 L 12.699219 27.761719 C 12.699219 27.839844 12.761719 27.914062 12.839844 27.929688 L 14.199219 28.15625 C 14.277344 28.171875 14.359375 28.121094 14.386719 28.046875 L 14.652344 27.34375 C 14.929688 27.289062 15.191406 27.191406 15.433594 27.058594 L 16.097656 27.414062 C 16.167969 27.453125 16.265625 27.4375 16.316406 27.375 L 17.195312 26.3125 C 17.242188 26.25 17.242188 26.152344 17.191406 26.09375 L 16.710938 25.503906 C 16.753906 25.375 16.789062 25.242188 16.8125 25.105469 C 16.835938 24.96875 16.847656 24.832031 16.847656 24.695312 L 17.496094 24.296875 C 17.5625 24.257812 17.59375 24.167969 17.566406 24.09375 L 17.089844 22.796875 C 17.058594 22.726562 16.976562 22.679688 16.898438 22.691406 L 16.152344 22.808594 C 15.96875 22.605469 15.75 22.425781 15.511719 22.28125 L 15.492188 21.527344 C 15.488281 21.449219 15.425781 21.378906 15.347656 21.363281 L 13.988281 21.132812 C 13.984375 21.132812 13.980469 21.132812 13.972656 21.132812 Z M 14.042969 23.171875 C 14.140625 23.167969 14.242188 23.171875 14.339844 23.191406 C 15.144531 23.324219 15.6875 24.089844 15.550781 24.894531 C 15.414062 25.695312 14.652344 26.238281 13.847656 26.101562 C 13.042969 25.964844 12.503906 25.203125 12.636719 24.398438 C 12.757812 23.695312 13.355469 23.195312 14.042969 23.171875 Z M 14.042969 23.171875 "/>
</g>
</defs>
<g id="surface1">
<path style=" stroke:none;fill-rule:evenodd;fill:rgb(37.254902%,48.627451%,54.117647%);fill-opacity:1;" d="M 8.40625 2.136719 L 27.59375 2.136719 C 31.054688 2.136719 33.863281 4.945312 33.863281 8.40625 L 33.863281 27.59375 C 33.863281 31.054688 31.054688 33.863281 27.59375 33.863281 L 8.40625 33.863281 C 4.945312 33.863281 2.136719 31.054688 2.136719 27.59375 L 2.136719 8.40625 C 2.136719 4.945312 4.945312 2.136719 8.40625 2.136719 Z M 8.40625 2.136719 "/>
<use xlink:href="#surface6"/>
<use xlink:href="#surface9"/>
<use xlink:href="#surface12"/>
</g>
</svg>
