<?xml version="1.0" encoding="UTF-8"?>
<svg xmlns="http://www.w3.org/2000/svg" xmlns:xlink="http://www.w3.org/1999/xlink" width="36pt" height="36pt" viewBox="0 0 36 36" version="1.1">
<g id="surface1">
<path style=" stroke:none;fill-rule:evenodd;fill:rgb(65.490196%,82.352941%,52.156863%);fill-opacity:1;" d="M 8.40625 2.136719 L 27.59375 2.136719 C 31.054688 2.136719 33.863281 4.945312 33.863281 8.40625 L 33.863281 27.59375 C 33.863281 31.054688 31.054688 33.863281 27.59375 33.863281 L 8.40625 33.863281 C 4.945312 33.863281 2.136719 31.054688 2.136719 27.59375 L 2.136719 8.40625 C 2.136719 4.945312 4.945312 2.136719 8.40625 2.136719 Z M 8.40625 2.136719 "/>
<path style=" stroke:none;fill-rule:nonzero;fill:rgb(100%,100%,100%);fill-opacity:1;" d="M 10.316406 12.710938 C 10.316406 13.488281 10.335938 14.371094 10.375 15.0625 L 8.667969 15.0625 C 7.757812 15.0625 7.023438 15.792969 7.023438 16.707031 L 7.023438 23.644531 C 7.023438 24.558594 7.757812 25.253906 8.667969 25.253906 L 12.121094 25.253906 C 12.890625 25.253906 13.296875 24.46875 13.296875 24.46875 C 15.167969 26.035156 17.894531 26.035156 19.921875 26.035156 C 24.035156 26.035156 28.976562 25.878906 28.976562 12.707031 Z M 9.605469 16.628906 L 10.425781 16.628906 C 10.75 19.878906 11.472656 22.078125 12.425781 23.558594 C 12.289062 23.636719 12.132812 23.683594 11.96875 23.683594 L 9.605469 23.683594 C 9.042969 23.683594 8.589844 23.160156 8.589844 22.507812 L 8.589844 17.804688 C 8.589844 17.152344 9.042969 16.628906 9.605469 16.628906 Z M 9.605469 16.628906 "/>
</g>
</svg>
