<?xml version="1.0" encoding="UTF-8"?>
<svg xmlns="http://www.w3.org/2000/svg" xmlns:xlink="http://www.w3.org/1999/xlink" width="36pt" height="36pt" viewBox="0 0 36 36" version="1.1">
<g id="surface1">
<path style=" stroke:none;fill-rule:evenodd;fill:rgb(23.529412%,54.901961%,97.254902%);fill-opacity:1;" d="M 8.40625 2.136719 L 27.59375 2.136719 C 31.054688 2.136719 33.863281 4.945312 33.863281 8.40625 L 33.863281 27.59375 C 33.863281 31.054688 31.054688 33.863281 27.59375 33.863281 L 8.40625 33.863281 C 4.945312 33.863281 2.136719 31.054688 2.136719 27.59375 L 2.136719 8.40625 C 2.136719 4.945312 4.945312 2.136719 8.40625 2.136719 Z M 8.40625 2.136719 "/>
<path style=" stroke:none;fill-rule:nonzero;fill:rgb(100%,100%,100%);fill-opacity:1;" d="M 19.742188 7.117188 C 18 7.117188 16.257812 7.117188 16.257812 8.855469 L 16.257812 19.492188 C 15.832031 19.371094 15.394531 19.308594 14.953125 19.304688 C 12.308594 19.304688 10.164062 21.449219 10.164062 24.09375 C 10.164062 26.742188 12.308594 28.882812 14.953125 28.882812 C 17.527344 28.882812 19.648438 26.839844 19.742188 24.265625 C 19.761719 20.988281 19.742188 17.664062 19.742188 14.371094 C 19.742188 9.726562 24.964844 15.824219 25.835938 16.695312 C 25.835938 14.371094 25.835938 7.117188 19.742188 7.117188 Z M 19.742188 7.117188 "/>
</g>
</svg>
