<?xml version="1.0" encoding="UTF-8"?>
<svg xmlns="http://www.w3.org/2000/svg" xmlns:xlink="http://www.w3.org/1999/xlink" width="36pt" height="36pt" viewBox="0 0 36 36" version="1.1">
<g id="surface1">
<path style=" stroke:none;fill-rule:evenodd;fill:rgb(30.980392%,30.980392%,30.980392%);fill-opacity:1;" d="M 8.40625 2.136719 L 27.59375 2.136719 C 31.054688 2.136719 33.863281 4.945312 33.863281 8.40625 L 33.863281 27.59375 C 33.863281 31.054688 31.054688 33.863281 27.59375 33.863281 L 8.40625 33.863281 C 4.945312 33.863281 2.136719 31.054688 2.136719 27.59375 L 2.136719 8.40625 C 2.136719 4.945312 4.945312 2.136719 8.40625 2.136719 Z M 8.40625 2.136719 "/>
<path style=" stroke:none;fill-rule:nonzero;fill:rgb(69.019608%,69.019608%,69.019608%);fill-opacity:1;" d="M 7.605469 5.003906 L 7.605469 18.519531 L 13.320312 15.140625 L 19.039062 11.761719 L 13.320312 8.382812 Z M 20.078125 12.28125 L 20.078125 22.679688 L 24.238281 20.078125 L 28.394531 17.480469 L 24.238281 14.882812 Z M 10.722656 18.519531 L 10.722656 30.996094 L 15.921875 27.875 L 21.117188 24.757812 L 15.921875 21.636719 Z M 10.722656 18.519531 "/>
</g>
</svg>
