<?xml version="1.0" encoding="UTF-8"?>
<svg xmlns="http://www.w3.org/2000/svg" xmlns:xlink="http://www.w3.org/1999/xlink" width="36pt" height="36pt" viewBox="0 0 36 36" version="1.1">
<g id="surface1">
<path style=" stroke:none;fill-rule:evenodd;fill:rgb(30.980392%,30.980392%,30.980392%);fill-opacity:1;" d="M 8.40625 2.136719 L 27.59375 2.136719 C 31.054688 2.136719 33.863281 4.945312 33.863281 8.40625 L 33.863281 27.59375 C 33.863281 31.054688 31.054688 33.863281 27.59375 33.863281 L 8.40625 33.863281 C 4.945312 33.863281 2.136719 31.054688 2.136719 27.59375 L 2.136719 8.40625 C 2.136719 4.945312 4.945312 2.136719 8.40625 2.136719 Z M 8.40625 2.136719 "/>
<path style=" stroke:none;fill-rule:nonzero;fill:rgb(100%,38.823529%,38.823529%);fill-opacity:1;" d="M 7.03125 5.625 L 15.46875 5.625 C 16.246094 5.625 16.875 6.230469 16.875 6.976562 L 16.875 11.023438 C 16.875 11.769531 16.246094 12.375 15.46875 12.375 L 7.03125 12.375 C 6.253906 12.375 5.625 11.769531 5.625 11.023438 L 5.625 6.976562 C 5.625 6.230469 6.253906 5.625 7.03125 5.625 Z M 7.03125 5.625 "/>
<path style=" stroke:none;fill-rule:nonzero;fill:rgb(100%,38.823529%,38.823529%);fill-opacity:1;" d="M 20.53125 5.625 L 28.96875 5.625 C 29.746094 5.625 30.375 6.230469 30.375 6.976562 L 30.375 11.023438 C 30.375 11.769531 29.746094 12.375 28.96875 12.375 L 20.53125 12.375 C 19.753906 12.375 19.125 11.769531 19.125 11.023438 L 19.125 6.976562 C 19.125 6.230469 19.753906 5.625 20.53125 5.625 Z M 20.53125 5.625 "/>
<path style=" stroke:none;fill-rule:nonzero;fill:rgb(100%,38.823529%,38.823529%);fill-opacity:1;" d="M 13.78125 14.625 L 22.21875 14.625 C 22.996094 14.625 23.625 15.230469 23.625 15.976562 L 23.625 20.023438 C 23.625 20.769531 22.996094 21.375 22.21875 21.375 L 13.78125 21.375 C 13.003906 21.375 12.375 20.769531 12.375 20.023438 L 12.375 15.976562 C 12.375 15.230469 13.003906 14.625 13.78125 14.625 Z M 13.78125 14.625 "/>
<path style=" stroke:none;fill-rule:nonzero;fill:rgb(100%,38.823529%,38.823529%);fill-opacity:1;" d="M 26.4375 14.625 L 29.8125 14.625 C 30.125 14.625 30.375 14.875 30.375 15.1875 L 30.375 20.8125 C 30.375 21.125 30.125 21.375 29.8125 21.375 L 26.4375 21.375 C 26.125 21.375 25.875 21.125 25.875 20.8125 L 25.875 15.1875 C 25.875 14.875 26.125 14.625 26.4375 14.625 Z M 26.4375 14.625 "/>
<path style=" stroke:none;fill-rule:nonzero;fill:rgb(100%,38.823529%,38.823529%);fill-opacity:1;" d="M 7.03125 23.625 L 15.46875 23.625 C 16.246094 23.625 16.875 24.230469 16.875 24.976562 L 16.875 29.023438 C 16.875 29.769531 16.246094 30.375 15.46875 30.375 L 7.03125 30.375 C 6.253906 30.375 5.625 29.769531 5.625 29.023438 L 5.625 24.976562 C 5.625 24.230469 6.253906 23.625 7.03125 23.625 Z M 7.03125 23.625 "/>
<path style=" stroke:none;fill-rule:nonzero;fill:rgb(100%,38.823529%,38.823529%);fill-opacity:1;" d="M 20.53125 23.625 L 28.96875 23.625 C 29.746094 23.625 30.375 24.230469 30.375 24.976562 L 30.375 29.023438 C 30.375 29.769531 29.746094 30.375 28.96875 30.375 L 20.53125 30.375 C 19.753906 30.375 19.125 29.769531 19.125 29.023438 L 19.125 24.976562 C 19.125 24.230469 19.753906 23.625 20.53125 23.625 Z M 20.53125 23.625 "/>
</g>
</svg>
