<?xml version="1.0" encoding="UTF-8"?>
<svg xmlns="http://www.w3.org/2000/svg" xmlns:xlink="http://www.w3.org/1999/xlink" width="36pt" height="36pt" viewBox="0 0 36 36" version="1.1">
<g id="surface1">
<path style=" stroke:none;fill-rule:evenodd;fill:rgb(40%,40%,40%);fill-opacity:1;" d="M 8.40625 2.136719 L 27.59375 2.136719 C 31.054688 2.136719 33.863281 4.945312 33.863281 8.40625 L 33.863281 27.59375 C 33.863281 31.054688 31.054688 33.863281 27.59375 33.863281 L 8.40625 33.863281 C 4.945312 33.863281 2.136719 31.054688 2.136719 27.59375 L 2.136719 8.40625 C 2.136719 4.945312 4.945312 2.136719 8.40625 2.136719 Z M 8.40625 2.136719 "/>
<path style=" stroke:none;fill-rule:nonzero;fill:rgb(97.647059%,97.647059%,97.647059%);fill-opacity:1;" d="M 18.929688 5.515625 C 18.789062 5.585938 18.628906 5.636719 18.503906 5.734375 C 18.257812 5.921875 18.023438 6.121094 17.804688 6.335938 C 17.566406 6.570312 17.316406 6.703125 16.96875 6.777344 C 16.128906 6.945312 15.632812 7.136719 14.847656 7.464844 C 13.105469 8.199219 11.949219 9.582031 11.125 11.246094 C 10.394531 12.722656 10.382812 14.328125 10.441406 15.9375 C 10.566406 19.257812 12.546875 21.683594 13.605469 24.242188 L 13.878906 24.242188 C 13.464844 24.242188 13.09375 24.519531 13.09375 24.863281 L 13.09375 26.117188 C 13.09375 26.460938 13.464844 26.917969 13.878906 26.917969 L 13.289062 26.917969 C 12.75 26.917969 12.203125 27.332031 12.203125 27.851562 L 12.203125 29.546875 C 12.203125 30.066406 12.75 30.484375 13.289062 30.484375 L 21.898438 30.484375 C 22.441406 30.484375 22.90625 30.066406 22.90625 29.546875 L 22.90625 27.851562 C 22.90625 27.332031 22.441406 26.917969 21.898438 26.917969 L 21.3125 26.917969 C 21.726562 26.917969 22.011719 26.460938 22.011719 26.117188 L 22.011719 24.863281 C 22.011719 24.519531 21.726562 24.242188 21.3125 24.242188 L 21.425781 24.242188 C 21.695312 23.992188 21.683594 23.546875 21.921875 23.292969 C 23.003906 22.148438 23.195312 20.523438 22.4375 19.132812 C 22.066406 18.453125 21.542969 17.902344 20.941406 17.433594 C 20.261719 16.902344 19.5625 16.402344 18.878906 15.878906 C 18.679688 15.730469 18.707031 15.558594 18.445312 15.324219 C 19.089844 15.460938 19.40625 15.628906 19.925781 15.65625 C 20.824219 15.699219 21.597656 16.085938 22.3125 16.609375 C 22.589844 16.808594 22.914062 16.972656 23.238281 17.082031 C 23.660156 17.226562 23.871094 17.125 24.121094 16.742188 C 24.1875 16.640625 24.226562 16.527344 24.289062 16.394531 C 24.789062 16.40625 25.066406 16.023438 25.203125 15.5625 C 25.25 15.402344 25.328125 15.257812 25.386719 15.105469 C 25.773438 14.074219 25.574219 13.164062 24.832031 12.371094 C 24.664062 12.1875 24.464844 12.039062 24.292969 11.863281 C 23.714844 11.285156 23.128906 10.707031 22.566406 10.117188 C 22.152344 9.683594 21.785156 9.214844 21.371094 8.789062 C 21.164062 8.578125 20.992188 8.363281 20.898438 8.082031 C 20.753906 7.660156 20.480469 7.332031 20.089844 7.113281 C 19.949219 7.035156 19.460938 6.941406 19.359375 6.878906 C 19.195312 6.40625 19.582031 5.8125 18.929688 5.515625 Z M 18.929688 5.515625 "/>
</g>
</svg>
