<?xml version="1.0" encoding="UTF-8"?>
<svg xmlns="http://www.w3.org/2000/svg" xmlns:xlink="http://www.w3.org/1999/xlink" width="36pt" height="36pt" viewBox="0 0 36 36" version="1.1">
<g id="surface1">
<path style=" stroke:none;fill-rule:evenodd;fill:rgb(100%,92.54902%,67.45098%);fill-opacity:1;" d="M 8.40625 2.136719 L 27.59375 2.136719 C 31.054688 2.136719 33.863281 4.945312 33.863281 8.40625 L 33.863281 27.59375 C 33.863281 31.054688 31.054688 33.863281 27.59375 33.863281 L 8.40625 33.863281 C 4.945312 33.863281 2.136719 31.054688 2.136719 27.59375 L 2.136719 8.40625 C 2.136719 4.945312 4.945312 2.136719 8.40625 2.136719 Z M 8.40625 2.136719 "/>
<path style=" stroke:none;fill-rule:nonzero;fill:rgb(59.215686%,35.294118%,20.392157%);fill-opacity:1;" d="M 17.015625 6.40625 C 17.078125 6.363281 17.929688 6.910156 18.804688 7.550781 C 20.082031 8.492188 20.894531 9.324219 21.609375 10.425781 C 21.785156 10.695312 21.929688 10.980469 22.0625 11.265625 C 22.136719 11.386719 22.210938 11.507812 22.277344 11.632812 C 23.660156 14.238281 22.910156 17.523438 20.597656 18.972656 C 18.289062 20.425781 15.296875 19.488281 13.914062 16.882812 C 13.847656 16.761719 13.789062 16.640625 13.734375 16.515625 C 13.667969 16.398438 13.59375 16.285156 13.535156 16.164062 C 12.753906 14.503906 12.914062 12.722656 13.777344 11.210938 C 14.234375 10.410156 15.148438 9.59375 15.808594 9.175781 C 16.632812 8.65625 16.910156 7.605469 16.964844 6.691406 C 16.972656 6.546875 16.996094 6.417969 17.015625 6.40625 Z M 17.015625 6.40625 "/>
<path style=" stroke:none;fill-rule:nonzero;fill:rgb(94.509804%,71.372549%,36.078431%);fill-opacity:1;" d="M 13.933594 14.6875 C 13.652344 14.6875 13.386719 14.832031 13.214844 15.074219 C 13.046875 15.320312 12.988281 15.640625 13.0625 15.9375 L 16.222656 28.863281 C 16.328125 29.296875 16.6875 29.597656 17.097656 29.597656 L 18.902344 29.597656 C 19.3125 29.597656 19.671875 29.296875 19.777344 28.863281 L 22.9375 15.9375 C 23.011719 15.640625 22.953125 15.320312 22.785156 15.074219 C 22.613281 14.832031 22.347656 14.6875 22.066406 14.6875 Z M 13.933594 14.6875 "/>
<path style=" stroke:none;fill-rule:nonzero;fill:rgb(100%,81.176471%,53.333333%);fill-opacity:1;" d="M 11.976562 13.859375 L 24.023438 13.859375 C 24.355469 13.859375 24.628906 14.230469 24.628906 14.6875 C 24.628906 15.144531 24.355469 15.515625 24.023438 15.515625 L 11.976562 15.515625 C 11.644531 15.515625 11.371094 15.144531 11.371094 14.6875 C 11.371094 14.230469 11.644531 13.859375 11.976562 13.859375 Z M 11.976562 13.859375 "/>
<path style=" stroke:none;fill-rule:evenodd;fill:rgb(80%,36.862745%,33.333333%);fill-opacity:1;" d="M 31.535156 25.800781 C 31.535156 28.90625 29.015625 31.425781 25.910156 31.425781 C 22.800781 31.425781 20.285156 28.90625 20.285156 25.800781 C 20.285156 22.695312 22.800781 20.175781 25.910156 20.175781 C 29.015625 20.175781 31.535156 22.695312 31.535156 25.800781 Z M 31.535156 25.800781 "/>
<path style=" stroke:none;fill-rule:nonzero;fill:rgb(100%,100%,100%);fill-opacity:1;" d="M 25.207031 22.988281 L 25.144531 23.730469 C 24.910156 23.816406 24.691406 23.941406 24.496094 24.101562 L 23.824219 23.785156 L 23.121094 25.003906 L 23.734375 25.429688 C 23.710938 25.550781 23.699219 25.675781 23.699219 25.800781 C 23.699219 25.925781 23.710938 26.050781 23.730469 26.175781 L 23.121094 26.597656 L 23.824219 27.816406 L 24.496094 27.5 C 24.6875 27.660156 24.90625 27.785156 25.144531 27.871094 L 25.207031 28.613281 L 26.613281 28.613281 L 26.671875 27.871094 C 26.910156 27.785156 27.128906 27.660156 27.320312 27.5 L 27.992188 27.816406 L 28.695312 26.597656 L 28.085938 26.171875 C 28.105469 26.050781 28.117188 25.925781 28.117188 25.800781 C 28.117188 25.675781 28.109375 25.550781 28.085938 25.425781 L 28.695312 25.003906 L 27.992188 23.785156 L 27.320312 24.101562 C 27.128906 23.941406 26.910156 23.816406 26.671875 23.730469 L 26.613281 22.988281 Z M 25.910156 24.996094 C 26.351562 24.996094 26.710938 25.355469 26.710938 25.800781 C 26.710938 26.246094 26.351562 26.605469 25.910156 26.605469 C 25.464844 26.605469 25.105469 26.246094 25.105469 25.800781 C 25.105469 25.355469 25.464844 24.996094 25.910156 24.996094 Z M 25.910156 24.996094 "/>
</g>
</svg>
