<?xml version="1.0" encoding="UTF-8"?>
<svg xmlns="http://www.w3.org/2000/svg" xmlns:xlink="http://www.w3.org/1999/xlink" width="36pt" height="36pt" viewBox="0 0 36 36" version="1.1">
<g id="surface1">
<path style=" stroke:none;fill-rule:evenodd;fill:rgb(20.784314%,72.54902%,96.078431%);fill-opacity:1;" d="M 8.40625 2.136719 L 27.59375 2.136719 C 31.054688 2.136719 33.863281 4.945312 33.863281 8.40625 L 33.863281 27.59375 C 33.863281 31.054688 31.054688 33.863281 27.59375 33.863281 L 8.40625 33.863281 C 4.945312 33.863281 2.136719 31.054688 2.136719 27.59375 L 2.136719 8.40625 C 2.136719 4.945312 4.945312 2.136719 8.40625 2.136719 Z M 8.40625 2.136719 "/>
<path style=" stroke:none;fill-rule:nonzero;fill:rgb(100%,100%,100%);fill-opacity:1;" d="M 28.773438 11.421875 C 27.980469 11.769531 27.128906 12 26.234375 12.105469 C 27.148438 11.570312 27.847656 10.714844 28.179688 9.699219 C 27.324219 10.199219 26.378906 10.558594 25.371094 10.753906 C 24.566406 9.910156 23.414062 9.382812 22.144531 9.382812 C 19.703125 9.382812 17.722656 11.328125 17.722656 13.734375 C 17.722656 14.074219 17.761719 14.40625 17.839844 14.722656 C 14.164062 14.542969 10.90625 12.808594 8.726562 10.179688 C 8.347656 10.820312 8.128906 11.566406 8.128906 12.367188 C 8.128906 13.875 8.910156 15.207031 10.09375 15.988281 C 9.371094 15.964844 8.6875 15.769531 8.09375 15.441406 C 8.09375 15.460938 8.09375 15.480469 8.09375 15.496094 C 8.09375 17.605469 9.617188 19.363281 11.636719 19.765625 C 11.265625 19.863281 10.875 19.917969 10.472656 19.917969 C 10.1875 19.917969 9.910156 19.890625 9.640625 19.839844 C 10.203125 21.566406 11.835938 22.828125 13.769531 22.863281 C 12.257812 24.027344 10.351562 24.722656 8.28125 24.722656 C 7.925781 24.722656 7.574219 24.703125 7.226562 24.664062 C 9.183594 25.898438 11.507812 26.617188 14.003906 26.617188 C 22.132812 26.617188 26.582031 19.988281 26.582031 14.238281 C 26.582031 14.046875 26.574219 13.859375 26.566406 13.675781 C 27.429688 13.0625 28.179688 12.292969 28.773438 11.421875 Z M 28.773438 11.421875 "/>
</g>
</svg>
