<?xml version="1.0" encoding="UTF-8"?>
<svg xmlns="http://www.w3.org/2000/svg" xmlns:xlink="http://www.w3.org/1999/xlink" width="36pt" height="36pt" viewBox="0 0 36 36" version="1.1">
<g id="surface1">
<path style=" stroke:none;fill-rule:evenodd;fill:rgb(100%,100%,100%);fill-opacity:1;" d="M 11.136719 2.136719 L 11.136719 11.136719 L 2.136719 11.136719 L 2.136719 13.421875 L 11.136719 13.421875 L 11.136719 22.5625 L 2.136719 22.5625 L 2.136719 24.847656 L 11.136719 24.847656 L 11.136719 33.863281 L 13.421875 33.863281 L 13.421875 24.847656 L 22.5625 24.847656 L 22.5625 33.863281 L 24.847656 33.863281 L 24.847656 24.847656 L 33.863281 24.847656 L 33.863281 22.5625 L 24.847656 22.5625 L 24.847656 13.421875 L 33.863281 13.421875 L 33.863281 11.136719 L 24.847656 11.136719 L 24.847656 2.136719 L 22.5625 2.136719 L 22.5625 11.136719 L 13.421875 11.136719 L 13.421875 2.136719 Z M 11.136719 2.136719 "/>
<path style=" stroke:none;fill-rule:evenodd;fill:rgb(99.607843%,55.686275%,55.686275%);fill-opacity:1;" d="M 13.371094 13.492188 L 13.371094 22.554688 L 22.511719 22.554688 L 22.511719 13.492188 Z M 13.371094 13.492188 "/>
<path style=" stroke:none;fill-rule:evenodd;fill:rgb(92.156863%,38.431373%,32.54902%);fill-opacity:1;" d="M 13.371094 13.492188 L 22.511719 13.492188 L 22.511719 22.554688 L 13.371094 22.554688 Z M 13.371094 13.492188 "/>
<path style=" stroke:none;fill-rule:evenodd;fill:rgb(29.019608%,60%,89.411765%);fill-opacity:1;" d="M 22.5625 2.136719 L 13.421875 2.136719 L 13.421875 11.136719 L 22.5625 11.136719 Z M 22.5625 2.136719 "/>
<path style=" stroke:none;fill-rule:evenodd;fill:rgb(29.019608%,60%,89.411765%);fill-opacity:1;" d="M 33.863281 11.136719 L 33.863281 8.40625 C 33.863281 4.933594 31.066406 2.136719 27.59375 2.136719 L 24.847656 2.136719 L 24.847656 11.136719 Z M 33.863281 11.136719 "/>
<path style=" stroke:none;fill-rule:evenodd;fill:rgb(29.019608%,60%,89.411765%);fill-opacity:1;" d="M 33.863281 22.5625 L 33.863281 13.421875 L 24.847656 13.421875 L 24.847656 22.5625 Z M 33.863281 22.5625 "/>
<path style=" stroke:none;fill-rule:evenodd;fill:rgb(92.156863%,38.431373%,32.54902%);fill-opacity:1;" d="M 24.847656 33.863281 L 27.59375 33.863281 C 31.066406 33.863281 33.863281 31.066406 33.863281 27.59375 L 33.863281 24.847656 L 24.847656 24.847656 Z M 24.847656 33.863281 "/>
<path style=" stroke:none;fill-rule:evenodd;fill:rgb(36.862745%,68.627451%,24.313725%);fill-opacity:1;" d="M 13.421875 33.863281 L 22.5625 33.863281 L 22.5625 24.847656 L 13.421875 24.847656 Z M 13.421875 33.863281 "/>
<path style=" stroke:none;fill-rule:evenodd;fill:rgb(36.862745%,68.627451%,24.313725%);fill-opacity:1;" d="M 2.136719 24.847656 L 2.136719 27.59375 C 2.136719 31.066406 4.933594 33.863281 8.40625 33.863281 L 11.136719 33.863281 L 11.136719 24.847656 Z M 2.136719 24.847656 "/>
<path style=" stroke:none;fill-rule:evenodd;fill:rgb(36.862745%,68.627451%,24.313725%);fill-opacity:1;" d="M 2.136719 13.421875 L 2.136719 22.5625 L 11.136719 22.5625 L 11.136719 13.421875 Z M 2.136719 13.421875 "/>
<path style=" stroke:none;fill-rule:evenodd;fill:rgb(92.156863%,38.431373%,32.54902%);fill-opacity:1;" d="M 11.136719 2.136719 L 8.40625 2.136719 C 4.933594 2.136719 2.136719 4.933594 2.136719 8.40625 L 2.136719 11.136719 L 11.136719 11.136719 Z M 11.136719 2.136719 "/>
</g>
</svg>
