<?xml version="1.0" encoding="UTF-8"?>
<svg xmlns="http://www.w3.org/2000/svg" xmlns:xlink="http://www.w3.org/1999/xlink" width="36pt" height="36pt" viewBox="0 0 36 36" version="1.1">
<g id="surface1">
<path style=" stroke:none;fill-rule:evenodd;fill:rgb(41.176471%,63.529412%,96.078431%);fill-opacity:1;" d="M 8.40625 2.136719 L 27.59375 2.136719 C 31.054688 2.136719 33.863281 4.945312 33.863281 8.40625 L 33.863281 27.59375 C 33.863281 31.054688 31.054688 33.863281 27.59375 33.863281 L 8.40625 33.863281 C 4.945312 33.863281 2.136719 31.054688 2.136719 27.59375 L 2.136719 8.40625 C 2.136719 4.945312 4.945312 2.136719 8.40625 2.136719 Z M 8.40625 2.136719 "/>
<path style=" stroke:none;fill-rule:nonzero;fill:rgb(100%,100%,100%);fill-opacity:1;" d="M 10.125 10.125 L 14.625 10.125 L 14.625 14.625 L 10.125 14.625 M 10.125 10.125 "/>
<path style=" stroke:none;fill-rule:nonzero;fill:rgb(100%,100%,100%);fill-opacity:1;" d="M 15.75 10.125 L 20.25 10.125 L 20.25 14.625 L 15.75 14.625 M 15.75 10.125 "/>
<path style=" stroke:none;fill-rule:nonzero;fill:rgb(100%,100%,100%);fill-opacity:1;" d="M 21.375 10.125 L 25.875 10.125 L 25.875 14.625 L 21.375 14.625 M 21.375 10.125 "/>
<path style=" stroke:none;fill-rule:nonzero;fill:rgb(100%,100%,100%);fill-opacity:1;" d="M 10.125 15.75 L 14.625 15.75 L 14.625 20.25 L 10.125 20.25 M 10.125 15.75 "/>
<path style=" stroke:none;fill-rule:nonzero;fill:rgb(100%,100%,100%);fill-opacity:1;" d="M 15.75 15.75 L 20.25 15.75 L 20.25 20.25 L 15.75 20.25 M 15.75 15.75 "/>
<path style=" stroke:none;fill-rule:nonzero;fill:rgb(100%,100%,100%);fill-opacity:1;" d="M 21.375 15.75 L 25.875 15.75 L 25.875 20.25 L 21.375 20.25 M 21.375 15.75 "/>
<path style=" stroke:none;fill-rule:nonzero;fill:rgb(100%,100%,100%);fill-opacity:1;" d="M 10.125 21.375 L 14.625 21.375 L 14.625 25.875 L 10.125 25.875 M 10.125 21.375 "/>
<path style=" stroke:none;fill-rule:nonzero;fill:rgb(100%,100%,100%);fill-opacity:1;" d="M 15.75 21.375 L 20.25 21.375 L 20.25 25.875 L 15.75 25.875 M 15.75 21.375 "/>
<path style=" stroke:none;fill-rule:nonzero;fill:rgb(100%,100%,100%);fill-opacity:1;" d="M 21.375 21.375 L 25.875 21.375 L 25.875 25.875 L 21.375 25.875 M 21.375 21.375 "/>
</g>
</svg>
