<?xml version="1.0" encoding="UTF-8"?>
<svg xmlns="http://www.w3.org/2000/svg" xmlns:xlink="http://www.w3.org/1999/xlink" width="36pt" height="36pt" viewBox="0 0 36 36" version="1.1">
<g id="surface1">
<path style=" stroke:none;fill-rule:evenodd;fill:rgb(76.078431%,20.784314%,16.470588%);fill-opacity:1;" d="M 8.40625 2.136719 L 27.59375 2.136719 C 31.054688 2.136719 33.863281 4.945312 33.863281 8.40625 L 33.863281 27.59375 C 33.863281 31.054688 31.054688 33.863281 27.59375 33.863281 L 8.40625 33.863281 C 4.945312 33.863281 2.136719 31.054688 2.136719 27.59375 L 2.136719 8.40625 C 2.136719 4.945312 4.945312 2.136719 8.40625 2.136719 Z M 8.40625 2.136719 "/>
<path style=" stroke:none;fill-rule:evenodd;fill:rgb(100%,100%,100%);fill-opacity:1;" d="M 22.3125 7.292969 C 22.046875 7.308594 21.792969 7.386719 21.5625 7.519531 L 8.253906 14.96875 L 2.136719 12.089844 L 2.136719 15.820312 L 7.605469 18.390625 C 8.097656 18.625 8.671875 18.605469 9.148438 18.339844 L 23.210938 10.460938 C 23.875 10.101562 24.222656 9.339844 24.050781 8.601562 C 23.882812 7.863281 23.242188 7.324219 22.484375 7.292969 C 22.425781 7.289062 22.371094 7.289062 22.3125 7.292969 Z M 22.3125 12.917969 C 22.046875 12.933594 21.792969 13.007812 21.5625 13.144531 L 8.253906 20.59375 L 2.136719 17.714844 L 2.136719 21.445312 L 7.605469 24.015625 C 8.097656 24.25 8.671875 24.230469 9.148438 23.964844 L 23.210938 16.089844 C 23.878906 15.726562 24.222656 14.964844 24.054688 14.226562 C 23.882812 13.484375 23.242188 12.949219 22.484375 12.917969 C 22.425781 12.914062 22.371094 12.914062 22.3125 12.917969 Z M 22.3125 18.542969 C 22.046875 18.558594 21.792969 18.632812 21.5625 18.769531 L 8.253906 26.21875 L 2.136719 23.339844 L 2.136719 27.070312 L 7.605469 29.640625 C 8.097656 29.875 8.671875 29.855469 9.148438 29.589844 L 23.210938 21.714844 C 23.878906 21.351562 24.222656 20.589844 24.054688 19.851562 C 23.882812 19.109375 23.242188 18.574219 22.484375 18.542969 C 22.425781 18.539062 22.371094 18.539062 22.3125 18.542969 Z M 22.3125 18.542969 "/>
</g>
</svg>
