<?xml version="1.0" encoding="UTF-8"?>
<svg xmlns="http://www.w3.org/2000/svg" xmlns:xlink="http://www.w3.org/1999/xlink" width="36pt" height="36pt" viewBox="0 0 36 36" version="1.1">
<g id="surface1">
<path style=" stroke:none;fill-rule:evenodd;fill:rgb(54.901961%,54.901961%,54.901961%);fill-opacity:1;" d="M 8.40625 2.136719 L 27.59375 2.136719 C 31.054688 2.136719 33.863281 4.945312 33.863281 8.40625 L 33.863281 27.59375 C 33.863281 31.054688 31.054688 33.863281 27.59375 33.863281 L 8.40625 33.863281 C 4.945312 33.863281 2.136719 31.054688 2.136719 27.59375 L 2.136719 8.40625 C 2.136719 4.945312 4.945312 2.136719 8.40625 2.136719 Z M 8.40625 2.136719 "/>
<path style=" stroke:none;fill-rule:nonzero;fill:rgb(27.058824%,27.058824%,27.058824%);fill-opacity:1;" d="M 10.027344 9.203125 L 25.972656 9.203125 C 28.058594 9.203125 29.753906 10.894531 29.753906 12.984375 L 29.753906 23.015625 C 29.753906 25.105469 28.058594 26.796875 25.972656 26.796875 L 10.027344 26.796875 C 7.941406 26.796875 6.246094 25.105469 6.246094 23.015625 L 6.246094 12.984375 C 6.246094 10.894531 7.941406 9.203125 10.027344 9.203125 Z M 10.027344 9.203125 "/>
<path style=" stroke:none;fill-rule:nonzero;fill:rgb(12.941176%,12.941176%,12.941176%);fill-opacity:1;" d="M 10.167969 10.316406 L 25.832031 10.316406 C 27.414062 10.316406 28.699219 11.546875 28.699219 13.066406 L 28.699219 22.933594 C 28.699219 24.453125 27.414062 25.683594 25.832031 25.683594 L 10.167969 25.683594 C 8.585938 25.683594 7.300781 24.453125 7.300781 22.933594 L 7.300781 13.066406 C 7.300781 11.546875 8.585938 10.316406 10.167969 10.316406 Z M 10.167969 10.316406 "/>
<path style=" stroke:none;fill-rule:nonzero;fill:rgb(86.666667%,30.196078%,24.313725%);fill-opacity:1;" d="M 22.617188 14.589844 C 22.59375 14.410156 22.578125 14.226562 22.507812 14.066406 C 22.410156 13.835938 22.269531 13.632812 22.097656 13.460938 C 21.921875 13.289062 21.714844 13.148438 21.480469 13.054688 C 21.25 12.957031 20.996094 12.902344 20.730469 12.902344 L 14.820312 12.902344 C 14.554688 12.902344 14.300781 12.957031 14.070312 13.054688 C 13.835938 13.148438 13.628906 13.289062 13.457031 13.460938 C 13.28125 13.632812 13.140625 13.835938 13.042969 14.066406 C 12.945312 14.292969 12.890625 14.542969 12.890625 14.808594 L 12.890625 15.722656 L 14.8125 19.003906 L 14.867188 19.109375 L 14.878906 19.117188 L 15 19.328125 L 16.113281 20.210938 L 16.425781 20.078125 L 16.777344 20.300781 C 16.738281 20.222656 16.695312 20.109375 16.652344 19.980469 L 18.738281 19.105469 L 16.582031 15.417969 C 16.777344 14.96875 17.121094 14.65625 17.726562 14.589844 Z M 22.617188 14.589844 "/>
<path style=" stroke:none;fill-rule:nonzero;fill:rgb(100%,80.784314%,25.490196%);fill-opacity:1;" d="M 18.628906 22.539062 L 20.753906 22.539062 C 21.019531 22.539062 21.269531 22.488281 21.5 22.390625 C 21.726562 22.292969 21.929688 22.15625 22.101562 21.984375 C 22.277344 21.808594 22.414062 21.605469 22.511719 21.378906 C 22.605469 21.148438 22.660156 20.898438 22.660156 20.632812 L 22.660156 14.808594 C 22.660156 14.730469 22.625 14.664062 22.617188 14.589844 L 17.800781 14.589844 C 17.796875 14.589844 18.796875 15.035156 19.21875 15.277344 C 20.300781 15.902344 20.410156 18.128906 20.414062 19.03125 L 20.597656 19.132812 L 20.410156 19.453125 C 20.410156 19.453125 20.410156 19.46875 20.410156 19.46875 L 20.339844 19.574219 Z M 18.628906 22.539062 "/>
<path style=" stroke:none;fill-rule:nonzero;fill:rgb(6.27451%,62.352941%,35.686275%);fill-opacity:1;" d="M 12.894531 15.027344 L 12.894531 20.632812 C 12.894531 20.898438 12.945312 21.148438 13.042969 21.378906 C 13.140625 21.605469 13.277344 21.808594 13.449219 21.984375 C 13.621094 22.15625 13.828125 22.292969 14.054688 22.390625 C 14.28125 22.488281 14.535156 22.539062 14.796875 22.539062 L 18.628906 22.539062 L 20.726562 19.050781 C 20.492188 19.4375 19.5 19.933594 19.078125 20.175781 C 17.726562 20.957031 16.007812 20.453125 15.226562 19.101562 Z M 12.894531 15.027344 "/>
<path style=" stroke:none;fill-rule:nonzero;fill:rgb(100%,100%,100%);fill-opacity:1;" d="M 20.929688 17.722656 C 20.929688 15.992188 19.527344 14.589844 17.796875 14.589844 C 16.066406 14.589844 14.664062 15.992188 14.664062 17.722656 C 14.664062 19.453125 16.066406 20.855469 17.796875 20.855469 C 19.527344 20.855469 20.929688 19.453125 20.929688 17.722656 Z M 20.929688 17.722656 "/>
<path style=" stroke:none;fill-rule:nonzero;fill:rgb(27.058824%,52.941176%,95.294118%);fill-opacity:1;" d="M 20.035156 17.722656 C 20.035156 16.484375 19.03125 15.484375 17.796875 15.484375 C 16.558594 15.484375 15.558594 16.484375 15.558594 17.722656 C 15.558594 18.957031 16.558594 19.957031 17.796875 19.957031 C 19.03125 19.957031 20.035156 18.957031 20.035156 17.722656 Z M 20.035156 17.722656 "/>
</g>
</svg>
