<?xml version="1.0" encoding="UTF-8"?>
<svg xmlns="http://www.w3.org/2000/svg" xmlns:xlink="http://www.w3.org/1999/xlink" width="36pt" height="36pt" viewBox="0 0 36 36" version="1.1">
<g id="surface1">
<path style=" stroke:none;fill-rule:evenodd;fill:rgb(76.078431%,20.784314%,16.470588%);fill-opacity:1;" d="M 25.003906 2.136719 L 11.222656 2.136719 L 18.144531 27.300781 Z M 25.003906 2.136719 "/>
<path style=" stroke:none;fill-rule:evenodd;fill:rgb(76.078431%,20.784314%,16.470588%);fill-opacity:1;" d="M 25.449219 33.863281 L 27.589844 33.863281 C 31.066406 33.863281 33.863281 31.066406 33.863281 27.589844 L 33.863281 8.40625 C 33.863281 7.574219 33.683594 6.792969 33.394531 6.066406 Z M 25.449219 33.863281 "/>
<path style=" stroke:none;fill-rule:evenodd;fill:rgb(99.607843%,80.392157%,21.960784%);fill-opacity:1;" d="M 25.449219 33.863281 L 33.394531 6.066406 C 32.46875 3.761719 30.234375 2.136719 27.589844 2.136719 L 25.003906 2.136719 L 18.144531 27.300781 L 19.949219 33.863281 Z M 25.449219 33.863281 "/>
<path style=" stroke:none;fill-rule:evenodd;fill:rgb(76.078431%,20.784314%,16.470588%);fill-opacity:1;" d="M 2.75 5.777344 C 2.375 6.582031 2.136719 7.457031 2.136719 8.40625 L 2.136719 27.589844 C 2.136719 31.066406 4.933594 33.863281 8.40625 33.863281 L 10.773438 33.863281 Z M 2.75 5.777344 "/>
<path style=" stroke:none;fill-rule:evenodd;fill:rgb(99.607843%,84.313725%,37.647059%);fill-opacity:1;" d="M 2.75 5.777344 L 10.773438 33.863281 L 19.949219 33.863281 L 11.222656 2.136719 L 8.40625 2.136719 C 5.882812 2.136719 3.746094 3.636719 2.75 5.777344 Z M 2.75 5.777344 "/>
</g>
</svg>
