<?xml version="1.0" encoding="UTF-8"?>
<svg xmlns="http://www.w3.org/2000/svg" xmlns:xlink="http://www.w3.org/1999/xlink" width="36pt" height="36pt" viewBox="0 0 36 36" version="1.1">
<g id="surface1">
<path style=" stroke:none;fill-rule:evenodd;fill:rgb(20%,61.176471%,20%);fill-opacity:1;" d="M 31.644531 32.289062 L 12.816406 25.019531 L 4.199219 32.1875 C 5.316406 33.207031 6.769531 33.863281 8.40625 33.863281 L 27.59375 33.863281 C 29.160156 33.863281 30.546875 33.234375 31.644531 32.289062 Z M 31.644531 32.289062 "/>
<path style=" stroke:none;fill-rule:evenodd;fill:rgb(80%,80%,80%);fill-opacity:1;" d="M 33.667969 28.4375 C 33.710938 28.148438 33.863281 27.898438 33.863281 27.589844 L 33.863281 8.40625 C 33.863281 4.933594 31.066406 2.136719 27.59375 2.136719 L 18.886719 2.136719 Z M 33.667969 28.4375 "/>
<path style=" stroke:none;fill-rule:evenodd;fill:rgb(100%,100%,100%);fill-opacity:1;" d="M 12.832031 25.023438 L 22.136719 28.617188 L 20.867188 18.347656 Z M 12.832031 25.023438 "/>
<path style=" stroke:none;fill-rule:evenodd;fill:rgb(80%,80%,80%);fill-opacity:1;" d="M 18.835938 2.136719 L 8.40625 2.136719 C 4.933594 2.136719 2.136719 4.933594 2.136719 8.40625 L 2.136719 27.589844 C 2.136719 28.917969 2.65625 30.050781 3.363281 31.050781 Z M 18.835938 2.136719 "/>
<path style=" stroke:none;fill-rule:evenodd;fill:rgb(29.019608%,52.54902%,84.705882%);fill-opacity:1;" d="M 18.835938 2.136719 L 3.363281 31.050781 C 3.636719 31.4375 3.851562 31.867188 4.199219 32.1875 L 12.816406 25.019531 L 12.832031 25.023438 L 20.867188 18.347656 L 18.867188 2.136719 Z M 18.835938 2.136719 "/>
<path style=" stroke:none;fill-rule:evenodd;fill:rgb(86.666667%,23.529412%,23.921569%);fill-opacity:1;" d="M 18.867188 2.136719 L 22.136719 28.617188 L 31.644531 32.289062 C 32.761719 31.328125 33.4375 29.964844 33.667969 28.4375 L 18.886719 2.136719 Z M 18.867188 2.136719 "/>
</g>
</svg>
