<?xml version="1.0" encoding="UTF-8"?>
<svg xmlns="http://www.w3.org/2000/svg" xmlns:xlink="http://www.w3.org/1999/xlink" width="36pt" height="36pt" viewBox="0 0 36 36" version="1.1">
<g id="surface1">
<path style=" stroke:none;fill-rule:evenodd;fill:rgb(94.509804%,79.215686%,25.882353%);fill-opacity:1;" d="M 8.40625 2.136719 L 27.59375 2.136719 C 31.054688 2.136719 33.863281 4.945312 33.863281 8.40625 L 33.863281 27.59375 C 33.863281 31.054688 31.054688 33.863281 27.59375 33.863281 L 8.40625 33.863281 C 4.945312 33.863281 2.136719 31.054688 2.136719 27.59375 L 2.136719 8.40625 C 2.136719 4.945312 4.945312 2.136719 8.40625 2.136719 Z M 8.40625 2.136719 "/>
<path style=" stroke:none;fill-rule:nonzero;fill:rgb(41.176471%,40.784314%,32.54902%);fill-opacity:1;" d="M 18 4.570312 C 17.296875 4.570312 16.59375 4.835938 16.066406 5.359375 L 5.359375 16.066406 C 4.308594 17.121094 4.308594 18.878906 5.359375 19.929688 L 16.066406 30.640625 C 17.121094 31.691406 18.882812 31.691406 19.933594 30.640625 L 30.640625 19.933594 C 31.691406 18.878906 31.691406 17.121094 30.640625 16.066406 L 19.933594 5.359375 C 19.40625 4.835938 18.703125 4.570312 18 4.570312 Z M 18 4.570312 "/>
<path style=" stroke:none;fill-rule:nonzero;fill:rgb(24.705882%,65.490196%,88.627451%);fill-opacity:1;" d="M 18 7.257812 C 17.765625 7.257812 17.53125 7.34375 17.355469 7.519531 L 13.785156 11.089844 C 13.4375 11.441406 13.4375 12.027344 13.789062 12.378906 L 17.355469 15.945312 C 17.707031 16.296875 18.292969 16.296875 18.644531 15.945312 L 22.214844 12.378906 C 22.5625 12.027344 22.5625 11.441406 22.214844 11.089844 L 18.644531 7.519531 C 18.46875 7.34375 18.234375 7.257812 18 7.257812 Z M 18 7.257812 "/>
<path style=" stroke:none;fill-rule:nonzero;fill:rgb(24.705882%,24.705882%,24.705882%);fill-opacity:1;" d="M 18 19.789062 C 17.765625 19.789062 17.53125 19.878906 17.355469 20.054688 L 13.785156 23.621094 C 13.4375 23.972656 13.4375 24.558594 13.789062 24.910156 L 17.355469 28.480469 C 17.707031 28.828125 18.292969 28.832031 18.644531 28.480469 L 22.214844 24.910156 C 22.5625 24.558594 22.5625 23.972656 22.214844 23.621094 L 18.644531 20.054688 C 18.46875 19.878906 18.234375 19.789062 18 19.789062 Z M 18 19.789062 "/>
<path style=" stroke:none;fill-rule:nonzero;fill:rgb(94.509804%,79.215686%,25.882353%);fill-opacity:1;" d="M 28.742188 18 C 28.742188 17.765625 28.65625 17.53125 28.480469 17.355469 L 24.910156 13.785156 C 24.558594 13.4375 23.972656 13.4375 23.621094 13.785156 L 20.054688 17.355469 C 19.703125 17.707031 19.703125 18.292969 20.054688 18.644531 L 23.621094 22.214844 C 23.972656 22.5625 24.558594 22.5625 24.910156 22.214844 L 28.480469 18.644531 C 28.65625 18.46875 28.742188 18.234375 28.742188 18 Z M 28.742188 18 "/>
<path style=" stroke:none;fill-rule:nonzero;fill:rgb(91.764706%,44.705882%,73.333333%);fill-opacity:1;" d="M 16.210938 18 C 16.210938 17.765625 16.121094 17.53125 15.945312 17.355469 L 12.378906 13.785156 C 12.027344 13.4375 11.441406 13.4375 11.089844 13.785156 L 7.519531 17.355469 C 7.171875 17.707031 7.167969 18.292969 7.519531 18.644531 L 11.089844 22.214844 C 11.441406 22.5625 12.027344 22.5625 12.378906 22.214844 L 15.945312 18.644531 C 16.121094 18.46875 16.210938 18.234375 16.210938 18 Z M 16.210938 18 "/>
</g>
</svg>
