<?xml version="1.0" encoding="UTF-8"?>
<svg xmlns="http://www.w3.org/2000/svg" xmlns:xlink="http://www.w3.org/1999/xlink" width="36pt" height="36pt" viewBox="0 0 36 36" version="1.1">
<defs>
<clipPath id="clip1">
  <rect width="36" height="36"/>
</clipPath>
<g id="surface6" clip-path="url(#clip1)">
<path style=" stroke:none;fill-rule:nonzero;fill:rgb(88.235294%,38.431373%,38.431373%);fill-opacity:1;" d="M 29.925781 21.820312 C 29.925781 25.550781 26.90625 28.570312 23.175781 28.570312 C 19.449219 28.570312 16.425781 25.550781 16.425781 21.820312 C 16.425781 18.09375 19.449219 15.070312 23.175781 15.070312 C 26.90625 15.070312 29.925781 18.09375 29.925781 21.820312 Z M 29.925781 21.820312 "/>
</g>
<clipPath id="clip2">
  <rect width="36" height="36"/>
</clipPath>
<g id="surface9" clip-path="url(#clip2)">
<path style=" stroke:none;fill-rule:nonzero;fill:rgb(100%,100%,100%);fill-opacity:1;" d="M 23.175781 18.445312 C 21.3125 18.445312 19.800781 19.957031 19.800781 21.820312 C 19.800781 23.6875 21.3125 25.195312 23.175781 25.195312 C 24.707031 25.195312 26.003906 24.183594 26.417969 22.785156 L 25.375 22.785156 C 25.003906 23.632812 24.164062 24.234375 23.175781 24.234375 C 21.847656 24.234375 20.765625 23.152344 20.765625 21.820312 C 20.765625 20.492188 21.847656 19.410156 23.175781 19.410156 C 23.84375 19.410156 24.4375 19.6875 24.871094 20.128906 L 23.660156 21.339844 L 26.550781 21.339844 L 26.550781 18.449219 L 25.5625 19.4375 C 24.949219 18.828125 24.109375 18.449219 23.175781 18.449219 Z M 23.175781 18.445312 "/>
</g>
<clipPath id="clip3">
  <rect width="36" height="36"/>
</clipPath>
<g id="surface12" clip-path="url(#clip3)">
<path style=" stroke:none;fill-rule:nonzero;fill:rgb(41.176471%,85.882353%,24.313725%);fill-opacity:1;" d="M 29.902344 21.851562 C 29.902344 25.582031 26.878906 28.601562 23.152344 28.601562 C 19.425781 28.601562 16.402344 25.582031 16.402344 21.851562 C 16.402344 18.125 19.425781 15.101562 23.152344 15.101562 C 26.878906 15.101562 29.902344 18.125 29.902344 21.851562 Z M 29.902344 21.851562 "/>
</g>
</defs>
<g id="surface1">
<path style=" stroke:none;fill-rule:evenodd;fill:rgb(30.980392%,30.980392%,30.980392%);fill-opacity:1;" d="M 8.40625 2.136719 L 27.59375 2.136719 C 31.054688 2.136719 33.863281 4.945312 33.863281 8.40625 L 33.863281 27.59375 C 33.863281 31.054688 31.054688 33.863281 27.59375 33.863281 L 8.40625 33.863281 C 4.945312 33.863281 2.136719 31.054688 2.136719 27.59375 L 2.136719 8.40625 C 2.136719 4.945312 4.945312 2.136719 8.40625 2.136719 Z M 8.40625 2.136719 "/>
<path style=" stroke:none;fill-rule:nonzero;fill:rgb(88.235294%,38.431373%,38.431373%);fill-opacity:1;" d="M 10.578125 14.660156 C 7.980469 15.09375 6.078125 17.335938 6.074219 19.96875 C 6.074219 22.945312 8.484375 25.355469 11.460938 25.355469 C 13.144531 25.355469 14.730469 24.566406 15.746094 23.226562 C 14.835938 22.988281 13.976562 22.570312 13.226562 22 C 12.738281 22.425781 12.109375 22.660156 11.460938 22.664062 C 9.972656 22.664062 8.765625 21.457031 8.765625 19.96875 C 8.765625 18.859375 9.449219 17.863281 10.480469 17.460938 C 10.417969 17.070312 10.386719 16.679688 10.382812 16.289062 C 10.386719 15.738281 10.453125 15.195312 10.578125 14.660156 Z M 10.578125 14.660156 "/>
<path style=" stroke:none;fill-rule:nonzero;fill:rgb(41.176471%,85.882353%,24.313725%);fill-opacity:1;" d="M 15.949219 7.398438 C 12.976562 7.398438 10.5625 9.808594 10.5625 12.785156 C 10.566406 13.382812 10.667969 13.976562 10.867188 14.542969 C 11.550781 13.855469 12.367188 13.316406 13.265625 12.953125 C 13.261719 12.894531 13.257812 12.839844 13.257812 12.785156 C 13.257812 11.296875 14.464844 10.089844 15.949219 10.089844 C 17.4375 10.089844 18.644531 11.296875 18.644531 12.785156 C 18.644531 12.839844 18.640625 12.898438 18.636719 12.953125 C 19.535156 13.316406 20.351562 13.855469 21.039062 14.539062 C 21.234375 13.976562 21.335938 13.382812 21.339844 12.785156 C 21.339844 9.808594 18.925781 7.398438 15.949219 7.398438 Z M 15.949219 7.398438 "/>
<path style=" stroke:none;fill-rule:nonzero;fill:rgb(64.705882%,91.372549%,54.901961%);fill-opacity:1;" d="M 17.746094 12.785156 C 17.746094 13.777344 16.941406 14.582031 15.949219 14.582031 C 14.960938 14.582031 14.15625 13.777344 14.15625 12.785156 C 14.15625 11.792969 14.960938 10.988281 15.949219 10.988281 C 16.941406 10.988281 17.746094 11.792969 17.746094 12.785156 Z M 17.746094 12.785156 "/>
<path style=" stroke:none;fill-rule:nonzero;fill:rgb(92.156863%,58.431373%,58.431373%);fill-opacity:1;" d="M 13.257812 19.96875 C 13.257812 20.960938 12.453125 21.765625 11.460938 21.765625 C 10.46875 21.765625 9.664062 20.960938 9.664062 19.96875 C 9.664062 18.976562 10.46875 18.171875 11.460938 18.171875 C 12.453125 18.171875 13.257812 18.976562 13.257812 19.96875 Z M 13.257812 19.96875 "/>
<use xlink:href="#surface6"/>
<use xlink:href="#surface9"/>
<use xlink:href="#surface12"/>
<path style=" stroke:none;fill-rule:nonzero;fill:rgb(100%,100%,100%);fill-opacity:1;" d="M 18.9375 21.050781 L 20.726562 19.261719 L 24.902344 23.4375 L 23.113281 25.226562 Z M 18.9375 21.050781 "/>
<path style=" stroke:none;fill-rule:nonzero;fill:rgb(100%,100%,100%);fill-opacity:1;" d="M 23.113281 25.226562 L 21.324219 23.4375 L 26.691406 18.066406 L 28.484375 19.859375 Z M 23.113281 25.226562 "/>
</g>
</svg>
