<?xml version="1.0" encoding="UTF-8"?>
<svg xmlns="http://www.w3.org/2000/svg" xmlns:xlink="http://www.w3.org/1999/xlink" width="36pt" height="36pt" viewBox="0 0 36 36" version="1.1">
<defs>
<clipPath id="clip1">
  <rect width="36" height="36"/>
</clipPath>
<g id="surface6" clip-path="url(#clip1)">
<path style=" stroke:none;fill-rule:nonzero;fill:rgb(88.235294%,38.431373%,38.431373%);fill-opacity:1;" d="M 29.925781 21.835938 C 29.925781 25.566406 26.90625 28.585938 23.175781 28.585938 C 19.449219 28.585938 16.425781 25.566406 16.425781 21.835938 C 16.425781 18.109375 19.449219 15.085938 23.175781 15.085938 C 26.90625 15.085938 29.925781 18.109375 29.925781 21.835938 Z M 29.925781 21.835938 "/>
</g>
<clipPath id="clip2">
  <rect width="36" height="36"/>
</clipPath>
<g id="surface9" clip-path="url(#clip2)">
<path style=" stroke:none;fill-rule:nonzero;fill:rgb(100%,100%,100%);fill-opacity:1;" d="M 23.175781 18.460938 C 21.3125 18.460938 19.800781 19.972656 19.800781 21.835938 C 19.800781 23.703125 21.3125 25.210938 23.175781 25.210938 C 24.707031 25.210938 26.003906 24.199219 26.417969 22.800781 L 25.375 22.800781 C 25.003906 23.648438 24.164062 24.25 23.175781 24.25 C 21.847656 24.25 20.765625 23.167969 20.765625 21.835938 C 20.765625 20.507812 21.847656 19.425781 23.175781 19.425781 C 23.84375 19.425781 24.4375 19.703125 24.871094 20.144531 L 23.660156 21.355469 L 26.550781 21.355469 L 26.550781 18.464844 L 25.5625 19.453125 C 24.949219 18.84375 24.109375 18.464844 23.175781 18.464844 Z M 23.175781 18.460938 "/>
</g>
</defs>
<g id="surface1">
<path style=" stroke:none;fill-rule:evenodd;fill:rgb(30.980392%,30.980392%,30.980392%);fill-opacity:1;" d="M 8.40625 2.136719 L 27.59375 2.136719 C 31.054688 2.136719 33.863281 4.945312 33.863281 8.40625 L 33.863281 27.59375 C 33.863281 31.054688 31.054688 33.863281 27.59375 33.863281 L 8.40625 33.863281 C 4.945312 33.863281 2.136719 31.054688 2.136719 27.59375 L 2.136719 8.40625 C 2.136719 4.945312 4.945312 2.136719 8.40625 2.136719 Z M 8.40625 2.136719 "/>
<path style=" stroke:none;fill-rule:nonzero;fill:rgb(88.235294%,38.431373%,38.431373%);fill-opacity:1;" d="M 10.578125 14.675781 C 7.980469 15.109375 6.078125 17.351562 6.074219 19.984375 C 6.074219 22.960938 8.484375 25.371094 11.460938 25.371094 C 13.144531 25.371094 14.730469 24.582031 15.746094 23.242188 C 14.835938 23.003906 13.976562 22.585938 13.226562 22.015625 C 12.738281 22.441406 12.109375 22.675781 11.460938 22.679688 C 9.972656 22.679688 8.765625 21.472656 8.765625 19.984375 C 8.765625 18.875 9.449219 17.878906 10.480469 17.476562 C 10.417969 17.085938 10.386719 16.695312 10.382812 16.304688 C 10.386719 15.753906 10.453125 15.210938 10.578125 14.675781 Z M 10.578125 14.675781 "/>
<path style=" stroke:none;fill-rule:nonzero;fill:rgb(41.176471%,85.882353%,24.313725%);fill-opacity:1;" d="M 15.949219 7.414062 C 12.976562 7.414062 10.5625 9.824219 10.5625 12.800781 C 10.566406 13.398438 10.667969 13.992188 10.867188 14.558594 C 11.550781 13.871094 12.367188 13.332031 13.265625 12.96875 C 13.261719 12.910156 13.257812 12.855469 13.257812 12.800781 C 13.257812 11.3125 14.464844 10.105469 15.949219 10.105469 C 17.4375 10.105469 18.644531 11.3125 18.644531 12.800781 C 18.644531 12.855469 18.640625 12.914062 18.636719 12.96875 C 19.535156 13.332031 20.351562 13.871094 21.039062 14.554688 C 21.234375 13.992188 21.335938 13.398438 21.339844 12.800781 C 21.339844 9.824219 18.925781 7.414062 15.949219 7.414062 Z M 15.949219 7.414062 "/>
<path style=" stroke:none;fill-rule:nonzero;fill:rgb(64.705882%,91.372549%,54.901961%);fill-opacity:1;" d="M 17.746094 12.800781 C 17.746094 13.792969 16.941406 14.597656 15.949219 14.597656 C 14.960938 14.597656 14.15625 13.792969 14.15625 12.800781 C 14.15625 11.808594 14.960938 11.003906 15.949219 11.003906 C 16.941406 11.003906 17.746094 11.808594 17.746094 12.800781 Z M 17.746094 12.800781 "/>
<path style=" stroke:none;fill-rule:nonzero;fill:rgb(92.156863%,58.431373%,58.431373%);fill-opacity:1;" d="M 13.257812 19.984375 C 13.257812 20.976562 12.453125 21.78125 11.460938 21.78125 C 10.46875 21.78125 9.664062 20.976562 9.664062 19.984375 C 9.664062 18.992188 10.46875 18.1875 11.460938 18.1875 C 12.453125 18.1875 13.257812 18.992188 13.257812 19.984375 Z M 13.257812 19.984375 "/>
<path style=" stroke:none;fill-rule:nonzero;fill:rgb(100%,100%,100%);fill-opacity:1;" d="M 26.726562 19.984375 C 26.726562 21.96875 25.121094 23.578125 23.136719 23.578125 C 21.152344 23.578125 19.542969 21.96875 19.542969 19.984375 C 19.542969 18 21.152344 16.394531 23.136719 16.394531 C 25.121094 16.394531 26.726562 18 26.726562 19.984375 Z M 26.726562 19.984375 "/>
<path style=" stroke:none;fill-rule:nonzero;fill:rgb(100%,100%,100%);fill-opacity:1;" d="M 21.339844 20.882812 L 24.929688 20.882812 L 24.929688 24.476562 L 21.339844 24.476562 Z M 21.339844 20.882812 "/>
<path style=" stroke:none;fill-rule:nonzero;fill:rgb(100%,100%,100%);fill-opacity:1;" d="M 21.339844 25.371094 L 24.929688 25.371094 L 24.929688 26.269531 L 21.339844 26.269531 Z M 21.339844 25.371094 "/>
<use xlink:href="#surface6"/>
<use xlink:href="#surface9"/>
</g>
</svg>
