<?xml version="1.0" encoding="UTF-8"?>
<svg xmlns="http://www.w3.org/2000/svg" xmlns:xlink="http://www.w3.org/1999/xlink" width="36pt" height="36pt" viewBox="0 0 36 36" version="1.1">
<g id="surface1">
<path style=" stroke:none;fill-rule:evenodd;fill:rgb(38.431373%,58.823529%,100%);fill-opacity:1;" d="M 8.40625 2.136719 L 27.59375 2.136719 C 31.054688 2.136719 33.863281 4.945312 33.863281 8.40625 L 33.863281 27.59375 C 33.863281 31.054688 31.054688 33.863281 27.59375 33.863281 L 8.40625 33.863281 C 4.945312 33.863281 2.136719 31.054688 2.136719 27.59375 L 2.136719 8.40625 C 2.136719 4.945312 4.945312 2.136719 8.40625 2.136719 Z M 8.40625 2.136719 "/>
<path style=" stroke:none;fill-rule:nonzero;fill:rgb(90.196078%,90.196078%,90.196078%);fill-opacity:1;" d="M 21.898438 12.210938 C 20.859375 11.171875 19.269531 11.089844 18.335938 12.023438 L 10.746094 19.613281 C 10.121094 20.238281 9.636719 20.730469 9.902344 21.582031 L 7.09375 24.390625 C 6.15625 25.328125 6.617188 27.289062 7.65625 28.328125 C 8.691406 29.367188 10.65625 29.824219 11.589844 28.890625 L 14.402344 26.078125 C 15.25 26.347656 15.742188 25.859375 16.367188 25.234375 L 23.957031 17.644531 C 24.894531 16.710938 24.808594 15.125 23.769531 14.085938 Z M 21.898438 12.210938 "/>
<path style=" stroke:none;fill-rule:nonzero;fill:rgb(100%,73.72549%,28.235294%);fill-opacity:1;" d="M 27.519531 7.746094 L 28.269531 8.496094 C 29.925781 10.152344 29.757812 13.007812 27.894531 14.871094 L 24.523438 18.242188 C 22.660156 20.105469 19.804688 20.273438 18.148438 18.617188 L 17.398438 17.867188 C 15.746094 16.210938 15.914062 13.359375 17.773438 11.496094 L 21.148438 8.121094 C 23.011719 6.257812 25.863281 6.09375 27.519531 7.746094 Z M 27.519531 7.746094 "/>
<path style=" stroke:none;fill-rule:nonzero;fill:rgb(100%,73.72549%,28.235294%);fill-opacity:1;" d="M 15.949219 10.792969 L 25.222656 20.070312 C 25.457031 20.300781 25.4375 20.699219 25.179688 20.960938 L 23.304688 22.835938 C 23.042969 23.09375 22.644531 23.113281 22.414062 22.878906 L 13.136719 13.605469 C 12.902344 13.371094 12.925781 12.972656 13.183594 12.714844 L 15.058594 10.839844 C 15.316406 10.582031 15.714844 10.558594 15.949219 10.792969 Z M 15.949219 10.792969 "/>
<path style=" stroke:none;fill-rule:nonzero;fill:rgb(38.431373%,58.823529%,100%);fill-opacity:1;" d="M 15.527344 20.492188 C 16.148438 21.113281 16.273438 21.992188 15.808594 22.460938 L 10.746094 27.519531 C 10.28125 27.984375 9.402344 27.859375 8.78125 27.238281 C 8.160156 26.617188 8.03125 25.734375 8.5 25.269531 L 13.558594 20.210938 C 14.023438 19.746094 14.90625 19.871094 15.527344 20.492188 Z M 15.527344 20.492188 "/>
</g>
</svg>
