<?xml version="1.0" encoding="UTF-8"?>
<svg xmlns="http://www.w3.org/2000/svg" xmlns:xlink="http://www.w3.org/1999/xlink" width="36pt" height="36pt" viewBox="0 0 36 36" version="1.1">
<defs>
<filter id="alpha" filterUnits="objectBoundingBox" x="0%" y="0%" width="100%" height="100%">
  <feColorMatrix type="matrix" in="SourceGraphic" values="0 0 0 0 1 0 0 0 0 1 0 0 0 0 1 0 0 0 1 0"/>
</filter>
<mask id="mask0">
  <g filter="url(#alpha)">
<rect x="0" y="0" width="36" height="36" style="fill:rgb(0%,0%,0%);fill-opacity:0.2;stroke:none;"/>
  </g>
</mask>
<clipPath id="clip1">
  <rect width="36" height="36"/>
</clipPath>
<g id="surface6" clip-path="url(#clip1)">
<path style=" stroke:none;fill-rule:nonzero;fill:rgb(100%,100%,100%);fill-opacity:1;" d="M 18 6.75 C 18 6.75 16.875 6.75 16.875 7.875 C 16.875 9 15.75 9 15.75 9 C 15.75 9 14.625 9 14.625 7.875 L 14.625 23.625 L 21.375 23.625 L 21.375 7.875 C 21.375 9 20.25 9 20.25 9 C 20.25 9 19.125 9 19.125 7.875 C 19.125 6.75 18 6.75 18 6.75 Z M 18 6.75 "/>
</g>
<mask id="mask1">
  <g filter="url(#alpha)">
<rect x="0" y="0" width="36" height="36" style="fill:rgb(0%,0%,0%);fill-opacity:0.501961;stroke:none;"/>
  </g>
</mask>
<clipPath id="clip2">
  <rect width="36" height="36"/>
</clipPath>
<g id="surface9" clip-path="url(#clip2)">
<path style=" stroke:none;fill-rule:nonzero;fill:rgb(100%,100%,100%);fill-opacity:1;" d="M 15.75 11.25 C 15.75 11.25 14.625 11.25 14.625 12.375 L 14.625 19.125 L 21.375 19.125 L 21.375 12.375 C 21.375 11.25 20.25 11.25 20.25 11.25 C 20.25 11.25 19.125 11.25 19.125 12.375 C 19.125 13.5 18 13.5 18 13.5 C 18 13.5 16.875 13.5 16.875 12.375 C 16.875 11.25 15.75 11.25 15.75 11.25 Z M 15.75 11.25 "/>
</g>
</defs>
<g id="surface1">
<path style=" stroke:none;fill-rule:evenodd;fill:rgb(35.294118%,66.27451%,94.117647%);fill-opacity:1;" d="M 8.40625 2.136719 L 27.59375 2.136719 C 31.054688 2.136719 33.863281 4.945312 33.863281 8.40625 L 33.863281 27.59375 C 33.863281 31.054688 31.054688 33.863281 27.59375 33.863281 L 8.40625 33.863281 C 4.945312 33.863281 2.136719 31.054688 2.136719 27.59375 L 2.136719 8.40625 C 2.136719 4.945312 4.945312 2.136719 8.40625 2.136719 Z M 8.40625 2.136719 "/>
<path style=" stroke:none;fill-rule:nonzero;fill:rgb(100%,100%,100%);fill-opacity:1;" d="M 10.125 20.25 L 18 29.25 L 25.875 20.25 L 21.375 20.25 L 21.375 16.875 C 21.375 18 20.25 18 20.25 18 C 20.25 18 19.125 18 19.125 16.875 C 19.125 15.75 18 15.75 18 15.75 C 18 15.75 16.875 15.75 16.875 16.875 C 16.875 18 15.75 18 15.75 18 C 15.75 18 14.625 18 14.625 16.875 L 14.625 20.25 Z M 10.125 20.25 "/>
<use xlink:href="#surface6" mask="url(#mask0)"/>
<use xlink:href="#surface9" mask="url(#mask1)"/>
</g>
</svg>
