<?xml version="1.0" encoding="UTF-8"?>
<svg xmlns="http://www.w3.org/2000/svg" xmlns:xlink="http://www.w3.org/1999/xlink" width="36pt" height="36pt" viewBox="0 0 36 36" version="1.1">
<g id="surface1">
<path style=" stroke:none;fill-rule:evenodd;fill:rgb(27.45098%,73.72549%,91.764706%);fill-opacity:1;" d="M 8.40625 2.136719 L 27.59375 2.136719 C 31.054688 2.136719 33.863281 4.945312 33.863281 8.40625 L 33.863281 27.59375 C 33.863281 31.054688 31.054688 33.863281 27.59375 33.863281 L 8.40625 33.863281 C 4.945312 33.863281 2.136719 31.054688 2.136719 27.59375 L 2.136719 8.40625 C 2.136719 4.945312 4.945312 2.136719 8.40625 2.136719 Z M 8.40625 2.136719 "/>
<path style=" stroke:none;fill-rule:nonzero;fill:rgb(100%,100%,100%);fill-opacity:1;" d="M 19.722656 10.125 C 17.804688 10.125 16.144531 11.210938 15.320312 12.785156 C 14.785156 12.449219 14.15625 12.253906 13.476562 12.253906 C 11.574219 12.253906 10.027344 13.777344 10.027344 15.660156 C 10.027344 15.957031 10.078125 16.246094 10.152344 16.523438 C 8.777344 17.441406 7.875 19 7.875 20.765625 C 7.875 23.597656 10.179688 25.875 13.046875 25.875 L 22.953125 25.875 C 25.820312 25.875 28.125 23.597656 28.125 20.765625 C 28.125 18.507812 26.648438 16.601562 24.597656 15.925781 C 24.652344 15.632812 24.679688 15.328125 24.679688 15.019531 C 24.679688 12.316406 22.460938 10.125 19.722656 10.125 Z M 19.722656 10.125 "/>
</g>
</svg>
