<?xml version="1.0" encoding="UTF-8"?>
<svg xmlns="http://www.w3.org/2000/svg" xmlns:xlink="http://www.w3.org/1999/xlink" width="36pt" height="36pt" viewBox="0 0 36 36" version="1.1">
<g id="surface1">
<path style=" stroke:none;fill-rule:evenodd;fill:rgb(85.490196%,24.313725%,27.058824%);fill-opacity:1;" d="M 8.40625 2.136719 L 27.59375 2.136719 C 31.054688 2.136719 33.863281 4.945312 33.863281 8.40625 L 33.863281 27.59375 C 33.863281 31.054688 31.054688 33.863281 27.59375 33.863281 L 8.40625 33.863281 C 4.945312 33.863281 2.136719 31.054688 2.136719 27.59375 L 2.136719 8.40625 C 2.136719 4.945312 4.945312 2.136719 8.40625 2.136719 Z M 8.40625 2.136719 "/>
<path style=" stroke:none;fill-rule:nonzero;fill:rgb(100%,100%,100%);fill-opacity:1;" d="M 9.222656 6.882812 C 8.710938 6.875 8.21875 7.050781 7.851562 7.378906 C 7.488281 7.707031 7.28125 8.160156 7.28125 8.628906 L 7.28125 27.375 C 7.28125 27.996094 7.644531 28.570312 8.230469 28.882812 C 8.816406 29.195312 9.539062 29.195312 10.125 28.882812 L 18.949219 24.195312 L 27.769531 19.511719 C 28.359375 19.199219 28.71875 18.625 28.71875 18 C 28.71875 17.378906 28.359375 16.800781 27.769531 16.488281 L 18.949219 11.804688 L 10.125 7.117188 C 9.851562 6.972656 9.539062 6.890625 9.222656 6.882812 Z M 9.222656 6.882812 "/>
<path style=" stroke:none;fill-rule:nonzero;fill:rgb(85.490196%,24.313725%,27.058824%);fill-opacity:1;" d="M 14.226562 13.234375 L 15.417969 13.234375 C 15.75 13.234375 16.015625 13.484375 16.015625 13.792969 L 16.015625 18.238281 C 16.015625 18.546875 15.75 18.792969 15.417969 18.792969 L 14.226562 18.792969 C 13.898438 18.792969 13.632812 18.546875 13.632812 18.238281 L 13.632812 13.792969 C 13.632812 13.484375 13.898438 13.234375 14.226562 13.234375 Z M 14.226562 13.234375 "/>
<path style=" stroke:none;fill-rule:nonzero;fill:rgb(85.490196%,24.313725%,27.058824%);fill-opacity:1;" d="M 11.152344 18 C 11.082031 18 11.015625 18.007812 10.945312 18.019531 C 10.746094 18.058594 10.582031 18.152344 10.503906 18.273438 C 10.425781 18.394531 10.445312 18.53125 10.550781 18.644531 L 14.21875 22.550781 C 14.34375 22.683594 14.574219 22.765625 14.824219 22.765625 C 15.074219 22.765625 15.304688 22.683594 15.429688 22.550781 L 19.097656 18.644531 C 19.222656 18.511719 19.222656 18.347656 19.097656 18.214844 C 18.972656 18.082031 18.742188 18 18.496094 18 Z M 11.152344 18 "/>
</g>
</svg>
