<?xml version="1.0" encoding="UTF-8"?>
<svg xmlns="http://www.w3.org/2000/svg" xmlns:xlink="http://www.w3.org/1999/xlink" width="36pt" height="36pt" viewBox="0 0 36 36" version="1.1">
<g id="surface1">
<path style=" stroke:none;fill-rule:evenodd;fill:rgb(51.372549%,26.27451%,40%);fill-opacity:1;" d="M 8.40625 2.136719 L 27.59375 2.136719 C 31.054688 2.136719 33.863281 4.945312 33.863281 8.40625 L 33.863281 27.59375 C 33.863281 31.054688 31.054688 33.863281 27.59375 33.863281 L 8.40625 33.863281 C 4.945312 33.863281 2.136719 31.054688 2.136719 27.59375 L 2.136719 8.40625 C 2.136719 4.945312 4.945312 2.136719 8.40625 2.136719 Z M 8.40625 2.136719 "/>
<path style=" stroke:none;fill-rule:evenodd;fill:rgb(51.372549%,26.27451%,40%);fill-opacity:1;" d="M 8.410156 2.136719 C 4.933594 2.136719 2.136719 4.933594 2.136719 8.40625 L 2.136719 14.410156 C 2.382812 14.640625 2.636719 14.832031 2.859375 15.164062 C 3.210938 15.683594 3.5625 16.289062 4.007812 16.871094 C 4.578125 17.585938 5.308594 17.960938 5.921875 18.433594 C 6.226562 18.667969 6.503906 18.929688 6.710938 19.269531 C 6.921875 19.609375 7.066406 20.03125 7.109375 20.589844 C 7.183594 21.640625 7.347656 22.605469 7.714844 23.367188 C 7.820312 23.582031 7.984375 23.734375 8.125 23.914062 L 33.863281 23.914062 L 33.863281 8.40625 C 33.863281 4.933594 31.066406 2.136719 27.59375 2.136719 Z M 8.410156 2.136719 "/>
<path style=" stroke:none;fill-rule:nonzero;fill:rgb(100%,52.941176%,63.921569%);fill-opacity:1;" d="M 24.113281 21.960938 C 24.113281 27.242188 19.832031 31.523438 14.550781 31.523438 C 9.269531 31.523438 4.988281 27.242188 4.988281 21.960938 C 4.988281 16.679688 9.269531 12.398438 14.550781 12.398438 C 19.832031 12.398438 24.113281 16.679688 24.113281 21.960938 Z M 24.113281 21.960938 "/>
<path style=" stroke:none;fill-rule:evenodd;fill:rgb(85.882353%,29.411765%,45.098039%);fill-opacity:1;" d="M 33.863281 23.914062 L 8.125 23.914062 C 8.230469 24.054688 8.308594 24.226562 8.441406 24.339844 C 8.746094 24.605469 9.117188 24.800781 9.570312 24.917969 C 10.640625 25.199219 11.824219 25.890625 12.921875 26.867188 C 14.019531 27.839844 15.03125 29.09375 15.746094 30.484375 C 16.207031 31.359375 16.863281 31.941406 17.617188 32.316406 C 18.367188 32.691406 19.21875 32.863281 20.066406 32.925781 C 21.769531 33.050781 23.476562 32.738281 24.410156 32.738281 C 27.742188 32.738281 29.289062 32.800781 30.957031 32.878906 C 32.417969 32.03125 33.863281 30.109375 33.863281 27.589844 Z M 33.863281 23.914062 "/>
<path style=" stroke:none;fill-rule:evenodd;fill:rgb(22.745098%,18.039216%,19.215686%);fill-opacity:1;" d="M 30.957031 32.878906 C 29.289062 32.800781 27.742188 32.738281 24.410156 32.738281 C 23.476562 32.738281 21.769531 33.050781 20.066406 32.925781 C 19.21875 32.863281 18.367188 32.691406 17.617188 32.316406 C 16.863281 31.941406 16.207031 31.359375 15.746094 30.484375 C 15.03125 29.09375 14.019531 27.839844 12.921875 26.867188 C 11.824219 25.890625 10.640625 25.199219 9.570312 24.917969 C 9.117188 24.800781 8.746094 24.605469 8.441406 24.339844 C 8.136719 24.078125 7.902344 23.75 7.714844 23.367188 C 7.347656 22.605469 7.183594 21.640625 7.109375 20.589844 C 7.066406 20.03125 6.921875 19.609375 6.710938 19.269531 C 6.503906 18.929688 6.226562 18.667969 5.921875 18.433594 C 5.308594 17.960938 4.578125 17.585938 4.007812 16.871094 C 3.5625 16.289062 3.210938 15.683594 2.859375 15.164062 C 2.636719 14.832031 2.382812 14.640625 2.136719 14.410156 L 2.136719 27.589844 C 2.136719 31.066406 4.933594 33.863281 8.410156 33.863281 L 27.59375 33.863281 C 28.796875 33.863281 30.203125 33.429688 30.957031 32.878906 Z M 30.957031 32.878906 "/>
</g>
</svg>
