<?xml version="1.0" encoding="UTF-8"?>
<svg xmlns="http://www.w3.org/2000/svg" xmlns:xlink="http://www.w3.org/1999/xlink" width="36pt" height="36pt" viewBox="0 0 36 36" version="1.1">
<defs>
<clipPath id="clip1">
  <rect width="36" height="36"/>
</clipPath>
<g id="surface6" clip-path="url(#clip1)">
<path style=" stroke:none;fill-rule:nonzero;fill:rgb(100%,100%,100%);fill-opacity:1;" d="M 15.800781 7.605469 C 15.574219 7.632812 15.375 7.816406 15.332031 8.042969 L 14.878906 10.339844 C 14.066406 10.660156 13.304688 11.097656 12.632812 11.632812 L 10.402344 10.878906 C 10.171875 10.796875 9.890625 10.902344 9.765625 11.113281 L 7.617188 14.835938 C 7.496094 15.050781 7.550781 15.347656 7.734375 15.507812 L 9.511719 17.066406 C 9.449219 17.484375 9.414062 17.90625 9.414062 18.339844 C 9.414062 18.777344 9.449219 19.199219 9.511719 19.617188 L 7.734375 21.175781 C 7.550781 21.335938 7.496094 21.632812 7.617188 21.847656 L 9.765625 25.570312 C 9.890625 25.78125 10.171875 25.886719 10.402344 25.804688 L 12.632812 25.050781 C 13.304688 25.585938 14.066406 26.023438 14.878906 26.34375 L 15.332031 28.640625 C 15.378906 28.878906 15.609375 29.074219 15.851562 29.074219 L 20.148438 29.074219 C 20.390625 29.074219 20.621094 28.878906 20.667969 28.640625 L 21.121094 26.34375 C 21.933594 26.023438 22.695312 25.585938 23.367188 25.050781 L 25.597656 25.804688 C 25.828125 25.886719 26.109375 25.78125 26.234375 25.570312 L 28.382812 21.847656 C 28.503906 21.632812 28.453125 21.335938 28.265625 21.175781 L 26.488281 19.617188 C 26.550781 19.199219 26.585938 18.777344 26.585938 18.339844 C 26.585938 17.90625 26.550781 17.484375 26.488281 17.066406 L 28.265625 15.507812 C 28.449219 15.347656 28.503906 15.050781 28.382812 14.835938 L 26.234375 11.113281 C 26.109375 10.902344 25.828125 10.796875 25.597656 10.878906 L 23.367188 11.632812 C 22.695312 11.09375 21.933594 10.660156 21.121094 10.339844 L 20.667969 8.042969 C 20.621094 7.800781 20.390625 7.609375 20.148438 7.605469 L 15.851562 7.605469 C 15.835938 7.605469 15.820312 7.605469 15.804688 7.605469 Z M 15.800781 7.605469 "/>
</g>
<clipPath id="clip2">
  <rect width="36" height="36"/>
</clipPath>
<g id="surface9" clip-path="url(#clip2)">
<path style=" stroke:none;fill-rule:nonzero;fill:rgb(37.254902%,48.627451%,54.117647%);fill-opacity:1;" d="M 18 13.742188 C 20.539062 13.742188 22.601562 15.800781 22.601562 18.339844 C 22.601562 20.882812 20.539062 22.941406 18 22.941406 C 15.460938 22.941406 13.398438 20.882812 13.398438 18.339844 C 13.398438 15.800781 15.460938 13.742188 18 13.742188 Z M 18 13.742188 "/>
</g>
</defs>
<g id="surface1">
<path style=" stroke:none;fill-rule:evenodd;fill:rgb(37.254902%,48.627451%,54.117647%);fill-opacity:1;" d="M 8.40625 2.136719 L 27.59375 2.136719 C 31.054688 2.136719 33.863281 4.945312 33.863281 8.40625 L 33.863281 27.59375 C 33.863281 31.054688 31.054688 33.863281 27.59375 33.863281 L 8.40625 33.863281 C 4.945312 33.863281 2.136719 31.054688 2.136719 27.59375 L 2.136719 8.40625 C 2.136719 4.945312 4.945312 2.136719 8.40625 2.136719 Z M 8.40625 2.136719 "/>
<use xlink:href="#surface6"/>
<use xlink:href="#surface9"/>
<path style=" stroke:none;fill-rule:nonzero;fill:rgb(94.901961%,94.901961%,94.901961%);fill-opacity:1;" d="M 23.367188 25.050781 L 26.910156 19.046875 C 28.023438 18.378906 30.085938 18.78125 30.074219 20.863281 L 26.550781 27 L 23.519531 28.554688 Z M 23.367188 25.050781 "/>
<path style=" stroke:none;fill-rule:nonzero;fill:rgb(18.823529%,1.960784%,1.176471%);fill-opacity:1;" d="M 23.46875 27.378906 L 23.519531 28.554688 L 24.570312 28.015625 Z M 23.46875 27.378906 "/>
<path style=" stroke:none;fill-rule:nonzero;fill:rgb(80%,80%,80%);fill-opacity:1;" d="M 25.585938 26.34375 L 24.3125 27.867188 L 24.5625 28.011719 L 26.550781 27 L 26.589844 26.929688 Z M 25.585938 26.34375 "/>
<path style=" stroke:none;fill-rule:nonzero;fill:rgb(3.921569%,72.156863%,51.764706%);fill-opacity:1;" d="M 29.652344 21.597656 L 26.480469 19.769531 L 23.367188 25.050781 L 26.589844 26.929688 Z M 29.652344 21.597656 "/>
<path style=" stroke:none;fill-rule:nonzero;fill:rgb(89.019608%,88.627451%,85.882353%);fill-opacity:1;" d="M 30.074219 20.863281 L 26.917969 19.042969 C 26.914062 19.042969 26.914062 19.042969 26.910156 19.046875 L 26.480469 19.769531 L 29.652344 21.59375 Z M 30.074219 20.863281 "/>
<path style=" stroke:none;fill-rule:nonzero;fill:rgb(94.901961%,94.901961%,94.901961%);fill-opacity:1;" d="M 27.875 18.753906 C 27.53125 18.777344 27.195312 18.878906 26.917969 19.042969 L 30.074219 20.863281 C 30.082031 19.300781 28.925781 18.683594 27.875 18.753906 Z M 27.875 18.753906 "/>
<path style=" stroke:none;fill-rule:nonzero;fill:rgb(0%,49.019608%,40.784314%);fill-opacity:1;" d="M 28.617188 21 L 25.585938 26.34375 L 26.589844 26.929688 L 29.652344 21.59375 Z M 28.617188 21 "/>
<path style=" stroke:none;fill-rule:nonzero;fill:rgb(3.921569%,72.156863%,51.764706%);fill-opacity:1;" d="M 27.464844 20.335938 L 24.398438 25.652344 L 25.585938 26.34375 L 28.617188 21 Z M 27.464844 20.335938 "/>
<path style=" stroke:none;fill-rule:nonzero;fill:rgb(80%,80%,80%);fill-opacity:1;" d="M 27.328125 20.257812 L 24.257812 25.570312 L 24.398438 25.652344 L 27.464844 20.335938 Z M 27.328125 20.257812 "/>
</g>
</svg>
