<?xml version="1.0" encoding="UTF-8"?>
<svg xmlns="http://www.w3.org/2000/svg" xmlns:xlink="http://www.w3.org/1999/xlink" width="36pt" height="36pt" viewBox="0 0 36 36" version="1.1">
<g id="surface1">
<path style=" stroke:none;fill-rule:evenodd;fill:rgb(30.980392%,30.980392%,30.980392%);fill-opacity:1;" d="M 33.863281 19.636719 L 24.710938 19.636719 L 21.425781 27.015625 C 21.421875 27.035156 21.414062 27.050781 21.40625 27.066406 C 21.382812 27.117188 21.355469 27.167969 21.324219 27.214844 C 21.292969 27.261719 21.261719 27.308594 21.226562 27.355469 C 21.195312 27.398438 21.15625 27.441406 21.121094 27.484375 C 21.082031 27.523438 21.042969 27.5625 21 27.601562 C 20.957031 27.636719 20.914062 27.671875 20.867188 27.707031 C 20.820312 27.738281 20.773438 27.769531 20.722656 27.796875 C 20.675781 27.824219 20.625 27.851562 20.574219 27.871094 C 20.523438 27.894531 20.46875 27.914062 20.417969 27.933594 C 20.363281 27.953125 20.308594 27.96875 20.253906 27.980469 C 20.199219 27.992188 20.144531 28 20.085938 28.007812 C 20.03125 28.015625 19.976562 28.019531 19.921875 28.019531 C 19.863281 28.019531 19.808594 28.019531 19.75 28.015625 C 19.695312 28.011719 19.640625 28.003906 19.585938 27.992188 C 19.527344 27.984375 19.472656 27.96875 19.417969 27.953125 C 19.363281 27.9375 19.3125 27.917969 19.257812 27.898438 C 19.207031 27.878906 19.15625 27.855469 19.105469 27.832031 C 19.058594 27.804688 19.007812 27.777344 18.960938 27.746094 C 18.914062 27.714844 18.867188 27.679688 18.824219 27.644531 C 18.78125 27.609375 18.738281 27.570312 18.699219 27.53125 C 18.660156 27.492188 18.621094 27.453125 18.585938 27.410156 C 18.546875 27.363281 18.515625 27.320312 18.484375 27.273438 C 18.453125 27.226562 18.425781 27.175781 18.398438 27.128906 C 18.371094 27.078125 18.347656 27.027344 18.324219 26.976562 C 18.304688 26.925781 18.285156 26.871094 18.269531 26.816406 C 18.253906 26.761719 18.238281 26.707031 18.230469 26.652344 L 15.992188 15.144531 L 14.4375 18.636719 C 14.425781 18.660156 14.414062 18.6875 14.402344 18.714844 C 14.375 18.765625 14.347656 18.8125 14.316406 18.863281 C 14.285156 18.910156 14.253906 18.957031 14.21875 19 C 14.183594 19.042969 14.144531 19.085938 14.105469 19.125 C 14.066406 19.164062 14.027344 19.203125 13.984375 19.238281 C 13.941406 19.277344 13.894531 19.308594 13.847656 19.34375 C 13.800781 19.375 13.753906 19.402344 13.703125 19.429688 C 13.65625 19.457031 13.605469 19.480469 13.554688 19.503906 C 13.5 19.523438 13.449219 19.546875 13.394531 19.5625 C 13.339844 19.578125 13.285156 19.59375 13.230469 19.605469 C 13.175781 19.613281 13.121094 19.621094 13.066406 19.628906 C 13.007812 19.632812 12.953125 19.636719 12.894531 19.636719 L 2.175781 19.636719 C 2.164062 19.636719 2.148438 19.636719 2.136719 19.636719 L 2.136719 27.59375 C 2.136719 31.066406 4.933594 33.863281 8.410156 33.863281 L 27.59375 33.863281 C 31.066406 33.863281 33.863281 31.066406 33.863281 27.59375 Z M 33.863281 19.636719 "/>
<path style=" stroke:none;fill-rule:evenodd;fill:rgb(39.607843%,62.352941%,100%);fill-opacity:1;" d="M 33.863281 16.261719 L 23.617188 16.261719 C 23.558594 16.261719 23.503906 16.265625 23.445312 16.269531 C 23.390625 16.277344 23.335938 16.285156 23.28125 16.292969 C 23.226562 16.304688 23.171875 16.320312 23.117188 16.335938 C 23.0625 16.351562 23.011719 16.371094 22.960938 16.394531 C 22.90625 16.417969 22.855469 16.441406 22.808594 16.46875 C 22.757812 16.496094 22.710938 16.523438 22.664062 16.554688 C 22.617188 16.585938 22.570312 16.621094 22.527344 16.65625 C 22.484375 16.695312 22.445312 16.734375 22.40625 16.773438 C 22.367188 16.8125 22.328125 16.855469 22.292969 16.898438 C 22.257812 16.945312 22.226562 16.988281 22.195312 17.039062 C 22.164062 17.085938 22.136719 17.132812 22.109375 17.183594 C 22.097656 17.207031 22.085938 17.234375 22.074219 17.261719 L 20.519531 20.753906 L 18.285156 9.246094 C 18.273438 9.191406 18.261719 9.136719 18.242188 9.082031 C 18.226562 9.027344 18.207031 8.976562 18.1875 8.921875 C 18.164062 8.871094 18.140625 8.820312 18.113281 8.769531 C 18.085938 8.722656 18.058594 8.671875 18.027344 8.625 C 17.996094 8.582031 17.960938 8.535156 17.925781 8.492188 C 17.890625 8.449219 17.851562 8.40625 17.8125 8.367188 C 17.769531 8.328125 17.730469 8.289062 17.6875 8.253906 C 17.640625 8.21875 17.597656 8.1875 17.550781 8.15625 C 17.503906 8.125 17.453125 8.097656 17.40625 8.070312 C 17.355469 8.042969 17.304688 8.019531 17.25 8 C 17.199219 7.980469 17.144531 7.960938 17.089844 7.945312 C 17.035156 7.929688 16.980469 7.917969 16.925781 7.90625 C 16.871094 7.898438 16.816406 7.890625 16.757812 7.886719 C 16.703125 7.882812 16.644531 7.878906 16.589844 7.882812 C 16.53125 7.882812 16.476562 7.886719 16.421875 7.894531 C 16.363281 7.898438 16.308594 7.910156 16.253906 7.921875 C 16.199219 7.933594 16.144531 7.949219 16.09375 7.96875 C 16.039062 7.984375 15.984375 8.003906 15.933594 8.027344 C 15.882812 8.050781 15.832031 8.078125 15.785156 8.105469 C 15.734375 8.132812 15.6875 8.164062 15.640625 8.195312 C 15.597656 8.230469 15.550781 8.265625 15.511719 8.300781 C 15.46875 8.339844 15.429688 8.378906 15.390625 8.421875 C 15.351562 8.460938 15.316406 8.503906 15.28125 8.546875 C 15.246094 8.59375 15.214844 8.640625 15.183594 8.6875 C 15.15625 8.734375 15.128906 8.785156 15.105469 8.835938 C 15.097656 8.851562 15.089844 8.867188 15.085938 8.882812 L 11.800781 16.261719 L 2.175781 16.261719 C 2.160156 16.261719 2.148438 16.261719 2.136719 16.265625 L 2.136719 19.636719 C 2.148438 19.636719 2.164062 19.636719 2.175781 19.636719 L 12.894531 19.636719 C 12.953125 19.636719 13.007812 19.632812 13.066406 19.628906 C 13.121094 19.621094 13.175781 19.613281 13.230469 19.605469 C 13.285156 19.59375 13.339844 19.578125 13.394531 19.5625 C 13.449219 19.546875 13.5 19.527344 13.554688 19.503906 C 13.605469 19.480469 13.65625 19.457031 13.703125 19.429688 C 13.753906 19.402344 13.800781 19.375 13.847656 19.34375 C 13.894531 19.308594 13.941406 19.277344 13.984375 19.238281 C 14.027344 19.203125 14.066406 19.164062 14.105469 19.125 C 14.144531 19.085938 14.183594 19.042969 14.21875 19 C 14.253906 18.957031 14.285156 18.910156 14.316406 18.863281 C 14.347656 18.8125 14.375 18.765625 14.402344 18.714844 C 14.414062 18.6875 14.425781 18.660156 14.4375 18.636719 L 15.992188 15.144531 L 18.230469 26.652344 C 18.238281 26.707031 18.253906 26.761719 18.269531 26.816406 C 18.285156 26.871094 18.304688 26.925781 18.324219 26.976562 C 18.347656 27.027344 18.371094 27.078125 18.398438 27.128906 C 18.425781 27.175781 18.453125 27.226562 18.484375 27.273438 C 18.515625 27.320312 18.546875 27.363281 18.585938 27.410156 C 18.621094 27.453125 18.660156 27.492188 18.699219 27.53125 C 18.738281 27.570312 18.78125 27.609375 18.824219 27.644531 C 18.867188 27.679688 18.914062 27.714844 18.960938 27.746094 C 19.007812 27.777344 19.058594 27.804688 19.105469 27.832031 C 19.15625 27.855469 19.207031 27.878906 19.257812 27.898438 C 19.3125 27.917969 19.363281 27.9375 19.417969 27.953125 C 19.472656 27.96875 19.527344 27.984375 19.585938 27.992188 C 19.640625 28.003906 19.695312 28.011719 19.75 28.015625 C 19.808594 28.019531 19.863281 28.019531 19.921875 28.019531 C 19.976562 28.019531 20.03125 28.015625 20.085938 28.007812 C 20.144531 28 20.199219 27.992188 20.253906 27.980469 C 20.308594 27.96875 20.363281 27.953125 20.417969 27.933594 C 20.46875 27.914062 20.523438 27.894531 20.574219 27.871094 C 20.625 27.851562 20.675781 27.824219 20.722656 27.796875 C 20.773438 27.769531 20.820312 27.738281 20.867188 27.707031 C 20.914062 27.671875 20.957031 27.636719 21 27.601562 C 21.042969 27.5625 21.082031 27.523438 21.121094 27.484375 C 21.15625 27.441406 21.195312 27.398438 21.226562 27.355469 C 21.261719 27.308594 21.292969 27.261719 21.324219 27.214844 C 21.355469 27.167969 21.382812 27.117188 21.40625 27.066406 C 21.414062 27.050781 21.421875 27.035156 21.425781 27.019531 L 24.710938 19.636719 L 33.863281 19.636719 Z M 33.863281 16.261719 "/>
<path style=" stroke:none;fill-rule:evenodd;fill:rgb(30.980392%,30.980392%,30.980392%);fill-opacity:1;" d="M 8.410156 2.136719 C 4.933594 2.136719 2.136719 4.933594 2.136719 8.410156 L 2.136719 16.265625 C 2.148438 16.261719 2.160156 16.261719 2.175781 16.261719 L 11.800781 16.261719 L 15.085938 8.882812 C 15.089844 8.867188 15.097656 8.851562 15.105469 8.835938 C 15.128906 8.785156 15.15625 8.734375 15.183594 8.6875 C 15.214844 8.640625 15.246094 8.59375 15.28125 8.546875 C 15.316406 8.503906 15.351562 8.460938 15.390625 8.417969 C 15.429688 8.378906 15.46875 8.339844 15.511719 8.300781 C 15.550781 8.265625 15.597656 8.230469 15.640625 8.195312 C 15.6875 8.164062 15.734375 8.132812 15.785156 8.105469 C 15.832031 8.078125 15.882812 8.050781 15.933594 8.027344 C 15.984375 8.003906 16.039062 7.984375 16.09375 7.96875 C 16.144531 7.949219 16.199219 7.933594 16.253906 7.921875 C 16.308594 7.910156 16.363281 7.898438 16.421875 7.890625 C 16.476562 7.886719 16.53125 7.882812 16.589844 7.882812 C 16.644531 7.878906 16.703125 7.882812 16.757812 7.886719 C 16.816406 7.890625 16.871094 7.898438 16.925781 7.90625 C 16.980469 7.917969 17.035156 7.929688 17.089844 7.945312 C 17.144531 7.960938 17.199219 7.980469 17.25 8 C 17.304688 8.019531 17.355469 8.042969 17.40625 8.070312 C 17.453125 8.097656 17.503906 8.125 17.550781 8.15625 C 17.597656 8.1875 17.640625 8.21875 17.6875 8.253906 C 17.730469 8.289062 17.769531 8.328125 17.8125 8.367188 C 17.851562 8.40625 17.890625 8.449219 17.925781 8.492188 C 17.960938 8.535156 17.996094 8.578125 18.027344 8.625 C 18.058594 8.671875 18.085938 8.722656 18.113281 8.769531 C 18.140625 8.820312 18.164062 8.871094 18.1875 8.921875 C 18.207031 8.976562 18.226562 9.027344 18.242188 9.082031 C 18.261719 9.136719 18.273438 9.191406 18.285156 9.246094 L 20.519531 20.753906 L 22.074219 17.261719 C 22.085938 17.234375 22.097656 17.207031 22.109375 17.183594 C 22.136719 17.132812 22.164062 17.085938 22.195312 17.039062 C 22.226562 16.988281 22.257812 16.945312 22.292969 16.898438 C 22.328125 16.855469 22.367188 16.8125 22.40625 16.773438 C 22.445312 16.734375 22.484375 16.695312 22.527344 16.65625 C 22.570312 16.621094 22.617188 16.585938 22.664062 16.554688 C 22.710938 16.523438 22.757812 16.496094 22.808594 16.46875 C 22.855469 16.441406 22.90625 16.417969 22.960938 16.394531 C 23.011719 16.371094 23.0625 16.351562 23.117188 16.335938 C 23.171875 16.320312 23.226562 16.304688 23.28125 16.292969 C 23.335938 16.285156 23.390625 16.277344 23.445312 16.269531 C 23.503906 16.265625 23.558594 16.261719 23.617188 16.261719 L 33.863281 16.261719 L 33.863281 8.410156 C 33.863281 4.933594 31.066406 2.136719 27.59375 2.136719 Z M 8.410156 2.136719 "/>
</g>
</svg>
