<?xml version="1.0" encoding="UTF-8"?>
<svg xmlns="http://www.w3.org/2000/svg" xmlns:xlink="http://www.w3.org/1999/xlink" width="36pt" height="36pt" viewBox="0 0 36 36" version="1.1">
<g id="surface1">
<path style=" stroke:none;fill-rule:evenodd;fill:rgb(76.078431%,20.784314%,16.470588%);fill-opacity:1;" d="M 8.40625 2.136719 L 27.59375 2.136719 C 31.054688 2.136719 33.863281 4.945312 33.863281 8.40625 L 33.863281 27.59375 C 33.863281 31.054688 31.054688 33.863281 27.59375 33.863281 L 8.40625 33.863281 C 4.945312 33.863281 2.136719 31.054688 2.136719 27.59375 L 2.136719 8.40625 C 2.136719 4.945312 4.945312 2.136719 8.40625 2.136719 Z M 8.40625 2.136719 "/>
<path style=" stroke:none;fill-rule:nonzero;fill:rgb(99.607843%,82.352941%,29.803922%);fill-opacity:1;" d="M 16.949219 17.289062 L 15.648438 18.792969 L 14.644531 19.78125 L 13.527344 20.539062 L 12.183594 21.257812 L 10.625 21.84375 L 9.652344 22.074219 L 9.609375 22.203125 L 9.664062 22.546875 L 9.890625 23.121094 L 10.371094 24.066406 L 10.839844 24.765625 L 11.746094 25.726562 L 12.152344 26.140625 L 12.523438 26.273438 L 14.191406 26.257812 L 13.199219 26.945312 L 13.1875 27.117188 L 13.78125 27.589844 L 14.585938 28.0625 C 15.628906 28.652344 16.566406 27.488281 16.566406 27.488281 C 16.566406 27.488281 16.0625 28.371094 16.09375 28.679688 L 17.085938 28.679688 L 17.609375 28.59375 L 18.203125 28.292969 L 18.003906 28.609375 L 19.082031 28.621094 C 20.214844 28.59375 20.96875 27.929688 21.640625 27.21875 L 22.347656 26.371094 L 22.898438 25.527344 L 23.308594 24.753906 L 23.960938 23.21875 L 24.453125 21.972656 L 24.695312 21.3125 L 24.460938 21.3125 L 22.671875 21.101562 C 21.238281 20.691406 20.460938 19.617188 19.132812 18.796875 L 18.027344 18.109375 L 17.152344 17.578125 L 17.023438 17.390625 L 17 17.320312 Z M 16.949219 17.289062 "/>
<path style=" stroke:none;fill-rule:nonzero;fill:rgb(100%,100%,100%);fill-opacity:1;" d="M 24.980469 7.878906 L 23.941406 9.863281 L 23.039062 11.890625 L 21.941406 14.101562 L 21.179688 15.917969 L 20.335938 15.558594 L 19.117188 15.027344 L 18.820312 15.027344 L 18.566406 15.097656 L 18.15625 15.644531 L 16.96875 17.234375 L 17.023438 17.390625 L 17.152344 17.578125 L 18.027344 18.109375 L 19.132812 18.796875 C 20.460938 19.617188 21.234375 20.691406 22.671875 21.101562 L 24.460938 21.3125 L 24.761719 21.3125 L 24.78125 21.234375 L 25.039062 19.613281 L 25.253906 18.300781 L 25.273438 18.019531 L 25.121094 17.726562 L 24.070312 17.242188 L 23.464844 16.976562 L 23.09375 16.734375 L 23.050781 16.714844 L 23.101562 16.632812 L 23.722656 15.074219 L 24.28125 13.695312 L 24.980469 11.832031 L 25.523438 10.511719 L 25.980469 9.339844 L 26.359375 8.199219 C 26.585938 7.347656 25.589844 6.890625 24.980469 7.878906 Z M 24.980469 7.878906 "/>
</g>
</svg>
