<?xml version="1.0" encoding="UTF-8"?>
<svg xmlns="http://www.w3.org/2000/svg" xmlns:xlink="http://www.w3.org/1999/xlink" width="36pt" height="36pt" viewBox="0 0 36 36" version="1.1">
<defs>
<filter id="alpha" filterUnits="objectBoundingBox" x="0%" y="0%" width="100%" height="100%">
  <feColorMatrix type="matrix" in="SourceGraphic" values="0 0 0 0 1 0 0 0 0 1 0 0 0 0 1 0 0 0 1 0"/>
</filter>
<mask id="mask0">
  <g filter="url(#alpha)">
<rect x="0" y="0" width="36" height="36" style="fill:rgb(0%,0%,0%);fill-opacity:0.101961;stroke:none;"/>
  </g>
</mask>
<clipPath id="clip1">
  <rect width="36" height="36"/>
</clipPath>
<g id="surface6" clip-path="url(#clip1)">
<path style=" stroke:none;fill-rule:nonzero;fill:rgb(100%,100%,100%);fill-opacity:1;" d="M 15.75 9.820312 L 15.75 10.945312 L 22.601562 14.863281 L 23.625 14.320312 Z M 15.75 12.183594 C 8.355469 12.183594 2.25 18.179688 2.25 25.570312 C 2.25 25.746094 2.273438 25.914062 2.28125 26.089844 C 2.605469 18.980469 8.558594 13.308594 15.75 13.308594 Z M 27.65625 14.570312 C 26.585938 14.566406 25.613281 16.234375 25.972656 17.527344 C 26.183594 16.558594 26.886719 15.691406 27.65625 15.695312 C 27.855469 15.695312 28.054688 15.753906 28.25 15.878906 C 31.453125 18.21875 33.554688 21.949219 33.71875 26.179688 C 33.726562 25.976562 33.75 25.777344 33.75 25.570312 C 33.75 21.128906 31.582031 17.191406 28.25 14.753906 C 28.054688 14.628906 27.855469 14.570312 27.65625 14.570312 Z M 27.65625 14.570312 "/>
</g>
</defs>
<g id="surface1">
<use xlink:href="#surface6" mask="url(#mask0)"/>
<path style=" stroke:none;fill-rule:evenodd;fill:rgb(92.54902%,92.54902%,92.54902%);fill-opacity:1;" d="M 8.40625 2.136719 L 27.59375 2.136719 C 31.054688 2.136719 33.863281 4.945312 33.863281 8.40625 L 33.863281 27.59375 C 33.863281 31.054688 31.054688 33.863281 27.59375 33.863281 L 8.40625 33.863281 C 4.945312 33.863281 2.136719 31.054688 2.136719 27.59375 L 2.136719 8.40625 C 2.136719 4.945312 4.945312 2.136719 8.40625 2.136719 Z M 8.40625 2.136719 "/>
<path style=" stroke:none;fill-rule:nonzero;fill:rgb(61.176471%,80.392157%,26.666667%);fill-opacity:1;" d="M 16.371094 6.589844 L 16.371094 8.300781 C 11.015625 8.300781 6.589844 12.644531 6.589844 18 C 6.589844 21.21875 8.160156 24.070312 10.574219 25.835938 C 11.707031 26.570312 13.0625 24.082031 11.738281 23.113281 C 10.328125 21.859375 9.441406 20.035156 9.441406 18 C 9.441406 14.21875 12.589844 11.15625 16.371094 11.15625 L 16.371094 12.867188 L 22.074219 9.851562 Z M 16.371094 6.589844 "/>
<path style=" stroke:none;fill-rule:nonzero;fill:rgb(36.470588%,70.588235%,24.313725%);fill-opacity:1;" d="M 24.996094 10.03125 C 23.996094 10.027344 23.105469 12.039062 24.261719 12.886719 C 25.671875 14.140625 26.558594 15.964844 26.558594 18 C 26.558594 21.78125 23.410156 24.847656 19.628906 24.847656 L 19.628906 23.132812 L 13.925781 26.148438 L 19.628906 29.410156 L 19.628906 27.699219 C 24.984375 27.699219 29.410156 23.355469 29.410156 18 C 29.410156 14.78125 27.839844 11.929688 25.425781 10.164062 C 25.285156 10.070312 25.140625 10.03125 24.996094 10.03125 Z M 24.996094 10.03125 "/>
</g>
</svg>
