<?xml version="1.0" encoding="UTF-8"?>
<svg xmlns="http://www.w3.org/2000/svg" xmlns:xlink="http://www.w3.org/1999/xlink" width="36pt" height="36pt" viewBox="0 0 36 36" version="1.1">
<g id="surface1">
<path style=" stroke:none;fill-rule:evenodd;fill:rgb(60.784314%,80%,43.137255%);fill-opacity:1;" d="M 8.40625 2.136719 L 27.59375 2.136719 C 31.054688 2.136719 33.863281 4.945312 33.863281 8.40625 L 33.863281 27.59375 C 33.863281 31.054688 31.054688 33.863281 27.59375 33.863281 L 8.40625 33.863281 C 4.945312 33.863281 2.136719 31.054688 2.136719 27.59375 L 2.136719 8.40625 C 2.136719 4.945312 4.945312 2.136719 8.40625 2.136719 Z M 8.40625 2.136719 "/>
<path style=" stroke:none;fill-rule:nonzero;fill:rgb(100%,100%,100%);fill-opacity:1;" d="M 23.734375 8.183594 C 25.296875 8.1875 26.789062 8.824219 27.871094 9.953125 C 27.894531 9.980469 27.921875 10 27.949219 10.027344 C 28.546875 10.628906 28.894531 11.199219 29.046875 11.761719 C 29.320312 12.4375 29.464844 13.160156 29.46875 13.890625 C 29.46875 17.058594 26.902344 19.628906 23.734375 19.628906 C 22.949219 19.625 22.171875 19.460938 21.449219 19.144531 C 21.390625 19.121094 21.332031 19.089844 21.269531 19.0625 C 21.195312 19.027344 21.121094 18.992188 21.050781 18.953125 C 21.019531 18.9375 20.988281 18.929688 20.957031 18.910156 C 15.144531 26.777344 6.527344 27.839844 6.527344 27.839844 L 18.320312 15.804688 C 18.191406 15.503906 18.121094 15.222656 18.101562 14.960938 C 18.035156 14.609375 18 14.253906 18 13.894531 C 18 10.726562 20.566406 8.160156 23.734375 8.160156 Z M 23.734375 8.183594 "/>
<path style=" stroke:none;fill-rule:nonzero;fill:rgb(28.235294%,53.72549%,29.019608%);fill-opacity:1;" d="M 12.265625 8.183594 C 10.703125 8.1875 9.210938 8.824219 8.132812 9.953125 C 8.105469 9.980469 8.078125 10 8.050781 10.027344 C 7.453125 10.628906 7.105469 11.199219 6.953125 11.761719 C 6.679688 12.4375 6.535156 13.160156 6.53125 13.890625 C 6.53125 17.058594 9.097656 19.628906 12.265625 19.628906 C 13.050781 19.625 13.828125 19.460938 14.550781 19.144531 C 14.609375 19.121094 14.667969 19.089844 14.730469 19.0625 C 14.804688 19.027344 14.878906 18.992188 14.949219 18.953125 C 14.980469 18.9375 15.011719 18.929688 15.042969 18.910156 C 20.855469 26.777344 29.472656 27.839844 29.472656 27.839844 L 17.679688 15.804688 C 17.808594 15.503906 17.878906 15.226562 17.898438 14.960938 C 17.964844 14.609375 18 14.253906 18 13.894531 C 18 10.726562 15.433594 8.160156 12.265625 8.160156 Z M 12.265625 8.183594 "/>
<path style=" stroke:none;fill-rule:nonzero;fill:rgb(60.784314%,80%,43.137255%);fill-opacity:1;" d="M 14.722656 13.921875 C 14.722656 15.277344 13.621094 16.378906 12.265625 16.378906 C 10.90625 16.378906 9.808594 15.277344 9.808594 13.921875 C 9.808594 12.5625 10.90625 11.460938 12.265625 11.460938 C 13.621094 11.460938 14.722656 12.5625 14.722656 13.921875 Z M 14.722656 13.921875 "/>
<path style=" stroke:none;fill-rule:nonzero;fill:rgb(97.647059%,97.647059%,97.647059%);fill-opacity:1;" d="M 18.820312 18.835938 C 18.820312 19.289062 18.453125 19.65625 18 19.65625 C 17.546875 19.65625 17.179688 19.289062 17.179688 18.835938 C 17.179688 18.382812 17.546875 18.015625 18 18.015625 C 18.453125 18.015625 18.820312 18.382812 18.820312 18.835938 Z M 18.820312 18.835938 "/>
<path style=" stroke:none;fill-rule:nonzero;fill:rgb(60.784314%,80%,43.137255%);fill-opacity:1;" d="M 26.195312 13.921875 C 26.195312 15.277344 25.09375 16.378906 23.734375 16.378906 C 22.378906 16.378906 21.277344 15.277344 21.277344 13.921875 C 21.277344 12.5625 22.378906 11.460938 23.734375 11.460938 C 25.09375 11.460938 26.195312 12.5625 26.195312 13.921875 Z M 26.195312 13.921875 "/>
</g>
</svg>
