<?xml version="1.0" encoding="UTF-8"?>
<svg xmlns="http://www.w3.org/2000/svg" xmlns:xlink="http://www.w3.org/1999/xlink" width="36pt" height="36pt" viewBox="0 0 36 36" version="1.1">
<g id="surface1">
<path style=" stroke:none;fill-rule:evenodd;fill:rgb(92.54902%,92.54902%,92.54902%);fill-opacity:1;" d="M 8.40625 2.136719 L 27.59375 2.136719 C 31.054688 2.136719 33.863281 4.945312 33.863281 8.40625 L 33.863281 27.59375 C 33.863281 31.054688 31.054688 33.863281 27.59375 33.863281 L 8.40625 33.863281 C 4.945312 33.863281 2.136719 31.054688 2.136719 27.59375 L 2.136719 8.40625 C 2.136719 4.945312 4.945312 2.136719 8.40625 2.136719 Z M 8.40625 2.136719 "/>
<path style=" stroke:none;fill-rule:nonzero;fill:rgb(10.588235%,66.27451%,79.607843%);fill-opacity:1;" d="M 15.003906 27.414062 L 11.582031 16.289062 L 6.019531 17.144531 L 10.296875 13.71875 L 12.863281 14.578125 L 16.289062 23.136719 L 23.5625 18.855469 L 25.703125 19.285156 L 29.980469 27.414062 L 17.144531 26.128906 Z M 21.851562 17.144531 L 27.414062 8.585938 L 24.847656 18.429688 Z M 21.851562 17.144531 "/>
<path style=" stroke:none;fill-rule:nonzero;fill:rgb(90.196078%,34.901961%,0.784314%);fill-opacity:1;" d="M 16.714844 22.277344 L 15.433594 19.285156 L 18.855469 17.144531 L 20.566406 17.144531 L 22.707031 18.855469 Z M 16.714844 22.277344 "/>
</g>
</svg>
