<?xml version="1.0" encoding="UTF-8"?>
<svg xmlns="http://www.w3.org/2000/svg" xmlns:xlink="http://www.w3.org/1999/xlink" width="36pt" height="36pt" viewBox="0 0 36 36" version="1.1">
<defs>
<filter id="alpha" filterUnits="objectBoundingBox" x="0%" y="0%" width="100%" height="100%">
  <feColorMatrix type="matrix" in="SourceGraphic" values="0 0 0 0 1 0 0 0 0 1 0 0 0 0 1 0 0 0 1 0"/>
</filter>
<mask id="mask0">
  <g filter="url(#alpha)">
<rect x="0" y="0" width="36" height="36" style="fill:rgb(0%,0%,0%);fill-opacity:0.501961;stroke:none;"/>
  </g>
</mask>
<clipPath id="clip1">
  <rect width="36" height="36"/>
</clipPath>
<g id="surface6" clip-path="url(#clip1)">
<path style=" stroke:none;fill-rule:nonzero;fill:rgb(50.196078%,50.196078%,50.196078%);fill-opacity:1;" d="M 18 17.691406 C 16.445312 17.691406 15.1875 18.949219 15.1875 20.503906 C 15.1875 22.058594 16.445312 23.316406 18 23.316406 C 19.554688 23.316406 20.8125 22.058594 20.8125 20.503906 C 20.8125 18.949219 19.554688 17.691406 18 17.691406 Z M 18 24.441406 C 12.9375 24.445312 12.9375 28.042969 12.9375 28.042969 L 12.9375 28.941406 L 23.0625 28.941406 L 23.0625 28.042969 C 23.0625 28.042969 23.0625 24.441406 18 24.441406 Z M 18 24.441406 "/>
</g>
</defs>
<g id="surface1">
<path style=" stroke:none;fill-rule:evenodd;fill:rgb(97.647059%,97.647059%,97.647059%);fill-opacity:1;" d="M 33.863281 24.882812 C 33.539062 24.101562 33.089844 23.382812 32.515625 22.765625 C 31.929688 22.132812 31.230469 21.605469 30.445312 21.207031 C 29.660156 20.8125 28.792969 20.546875 27.875 20.445312 C 27.636719 19.269531 27.1875 18.167969 26.574219 17.175781 C 25.957031 16.183594 25.171875 15.300781 24.261719 14.5625 C 23.347656 13.824219 22.304688 13.230469 21.167969 12.824219 C 20.03125 12.417969 18.804688 12.195312 17.523438 12.195312 C 16.433594 12.195312 15.382812 12.359375 14.394531 12.660156 C 13.40625 12.960938 12.480469 13.398438 11.644531 13.953125 C 10.804688 14.507812 10.054688 15.175781 9.410156 15.933594 C 8.769531 16.695312 8.234375 17.542969 7.835938 18.460938 C 6.820312 18.609375 5.863281 18.929688 5 19.390625 C 4.132812 19.851562 3.363281 20.453125 2.71875 21.167969 C 2.472656 21.441406 2.34375 21.800781 2.136719 22.105469 L 2.136719 27.59375 C 2.136719 31.066406 4.933594 33.863281 8.40625 33.863281 L 27.59375 33.863281 C 31.066406 33.863281 33.863281 31.066406 33.863281 27.59375 Z M 33.863281 24.882812 "/>
<path style=" stroke:none;fill-rule:evenodd;fill:rgb(13.72549%,80.392157%,100%);fill-opacity:1;" d="M 8.40625 2.136719 C 4.933594 2.136719 2.136719 4.933594 2.136719 8.410156 L 2.136719 22.105469 C 2.34375 21.800781 2.472656 21.441406 2.71875 21.167969 C 3.363281 20.453125 4.132812 19.851562 5 19.390625 C 5.863281 18.929688 6.820312 18.609375 7.835938 18.460938 C 8.234375 17.542969 8.769531 16.695312 9.410156 15.933594 C 10.054688 15.175781 10.804688 14.507812 11.644531 13.953125 C 12.480469 13.398438 13.40625 12.960938 14.394531 12.660156 C 15.382812 12.359375 16.433594 12.195312 17.527344 12.195312 C 18.804688 12.195312 20.03125 12.417969 21.167969 12.824219 C 22.304688 13.230469 23.347656 13.824219 24.261719 14.5625 C 25.171875 15.300781 25.957031 16.183594 26.574219 17.175781 C 27.1875 18.167969 27.636719 19.269531 27.875 20.441406 C 28.792969 20.546875 29.660156 20.8125 30.445312 21.207031 C 31.230469 21.605469 31.929688 22.132812 32.515625 22.765625 C 33.089844 23.382812 33.539062 24.101562 33.863281 24.882812 L 33.863281 8.410156 C 33.863281 4.933594 31.066406 2.136719 27.59375 2.136719 Z M 8.40625 2.136719 "/>
<use xlink:href="#surface6" mask="url(#mask0)"/>
</g>
</svg>
