<?xml version="1.0" encoding="UTF-8"?>
<svg xmlns="http://www.w3.org/2000/svg" xmlns:xlink="http://www.w3.org/1999/xlink" width="36pt" height="36pt" viewBox="0 0 36 36" version="1.1">
<defs>
<radialGradient id="radial0" gradientUnits="userSpaceOnUse" cx="24.391607" cy="16.559441" fx="24.391607" fy="16.559441" r="14.101694" gradientTransform="matrix(1.749832,0,0,1.749832,-24.807086,-11.102112)">
<stop offset="0" style="stop-color:rgb(33.72549%,34.117647%,16.862745%);stop-opacity:1;"/>
<stop offset="1" style="stop-color:rgb(10.196078%,10.980392%,5.490196%);stop-opacity:1;"/>
</radialGradient>
</defs>
<g id="surface1">
<path style=" stroke:none;fill-rule:evenodd;fill:rgb(33.72549%,34.117647%,16.862745%);fill-opacity:1;" d="M 8.28125 2.007812 L 27.464844 2.007812 C 30.929688 2.007812 33.738281 4.816406 33.738281 8.28125 L 33.738281 27.464844 C 33.738281 30.929688 30.929688 33.738281 27.464844 33.738281 L 8.28125 33.738281 C 4.816406 33.738281 2.007812 30.929688 2.007812 27.464844 L 2.007812 8.28125 C 2.007812 4.816406 4.816406 2.007812 8.28125 2.007812 Z M 8.28125 2.007812 "/>
<path style=" stroke:none;fill-rule:evenodd;fill:rgb(13.333333%,14.509804%,7.843137%);fill-opacity:1;" d="M 20.046875 33.738281 C 19.15625 33.355469 18.023438 33.019531 17.289062 32.601562 C 15.617188 31.648438 14.328125 30.613281 13.316406 29.535156 C 12.300781 28.453125 11.566406 27.328125 10.984375 26.195312 C 10.40625 25.058594 9.992188 23.910156 9.621094 22.785156 C 9.253906 21.65625 8.929688 20.554688 8.546875 19.507812 C 8.160156 18.460938 7.707031 17.46875 7.078125 16.566406 C 6.449219 15.664062 5.644531 14.851562 4.546875 14.164062 C 3.894531 13.753906 2.890625 13.492188 2.011719 13.179688 L 2.011719 27.464844 C 2.011719 30.941406 4.808594 33.738281 8.28125 33.738281 Z M 20.046875 33.738281 "/>
<path style=" stroke:none;fill-rule:evenodd;fill:url(#radial0);" d="M 14.359375 2.011719 L 8.28125 2.011719 C 4.808594 2.011719 2.011719 4.808594 2.011719 8.28125 L 2.011719 13.179688 C 2.890625 13.492188 3.894531 13.753906 4.546875 14.164062 C 5.644531 14.851562 6.449219 15.664062 7.078125 16.566406 C 7.707031 17.46875 8.160156 18.460938 8.546875 19.507812 C 8.929688 20.554688 9.253906 21.65625 9.621094 22.785156 C 9.992188 23.910156 10.40625 25.058594 10.984375 26.195312 C 11.566406 27.328125 12.300781 28.453125 13.316406 29.535156 C 14.328125 30.613281 15.617188 31.648438 17.289062 32.601562 C 18.023438 33.019531 19.15625 33.355469 20.046875 33.738281 L 27.464844 33.738281 C 30.941406 33.738281 33.738281 30.941406 33.738281 27.464844 L 33.738281 23.132812 C 33 22.847656 32.09375 22.628906 31.527344 22.273438 C 30.429688 21.582031 29.621094 20.773438 28.992188 19.871094 C 28.363281 18.96875 27.914062 17.976562 27.527344 16.929688 C 27.140625 15.882812 26.820312 14.78125 26.449219 13.652344 C 26.082031 12.527344 25.664062 11.378906 25.085938 10.242188 C 24.507812 9.105469 23.769531 7.984375 22.753906 6.902344 C 21.742188 5.824219 20.453125 4.789062 18.78125 3.835938 C 17.605469 3.164062 15.957031 2.59375 14.359375 2.011719 Z M 14.359375 2.011719 "/>
<path style=" stroke:none;fill-rule:evenodd;fill:rgb(33.72549%,34.117647%,16.862745%);fill-opacity:1;" d="M 14.359375 2.011719 C 15.957031 2.59375 17.605469 3.164062 18.78125 3.835938 C 20.453125 4.789062 21.742188 5.824219 22.753906 6.902344 C 23.769531 7.984375 24.507812 9.105469 25.085938 10.242188 C 25.664062 11.378906 26.082031 12.527344 26.449219 13.652344 C 26.820312 14.78125 27.140625 15.882812 27.527344 16.929688 C 27.914062 17.976562 28.363281 18.96875 28.992188 19.871094 C 29.621094 20.773438 30.429688 21.582031 31.527344 22.273438 C 32.09375 22.628906 33 22.847656 33.738281 23.132812 L 33.738281 8.28125 C 33.738281 4.808594 30.941406 2.011719 27.464844 2.011719 Z M 14.359375 2.011719 "/>
<path style=" stroke:none;fill-rule:nonzero;fill:rgb(100%,100%,100%);fill-opacity:1;" d="M 20.777344 22.132812 C 20.910156 22.011719 20.878906 21.777344 20.691406 21.515625 C 20.53125 21.285156 20.53125 21.28125 20.414062 20.390625 C 20.300781 19.535156 20.289062 19.484375 20.128906 19.175781 C 20.019531 18.964844 19.902344 18.8125 19.792969 18.734375 C 19.59375 18.585938 19.496094 18.324219 19.578125 18.167969 C 19.625 18.082031 19.609375 18.042969 19.402344 17.78125 C 19.277344 17.621094 19.148438 17.464844 19.121094 17.433594 C 19.089844 17.40625 19.007812 17.292969 18.929688 17.191406 C 18.835938 17.054688 18.773438 17.003906 18.722656 17.023438 C 18.664062 17.039062 18.644531 17.011719 18.628906 16.882812 C 18.617188 16.796875 18.59375 16.6875 18.578125 16.648438 C 18.550781 16.585938 18.566406 16.574219 18.652344 16.574219 C 18.800781 16.574219 18.851562 16.464844 18.851562 16.128906 L 18.851562 15.847656 L 19.183594 15.847656 C 19.363281 15.847656 19.578125 15.828125 19.660156 15.804688 C 19.851562 15.75 20.035156 15.570312 20.132812 15.347656 C 20.21875 15.15625 20.296875 15.121094 20.386719 15.230469 C 20.421875 15.273438 20.496094 15.292969 20.574219 15.285156 C 20.695312 15.273438 20.707031 15.257812 20.71875 15.113281 C 20.726562 15.023438 20.746094 14.953125 20.761719 14.953125 C 20.78125 14.953125 20.878906 15.160156 20.984375 15.410156 C 21.167969 15.847656 21.183594 15.871094 21.300781 15.859375 C 21.367188 15.855469 21.429688 15.839844 21.445312 15.828125 C 21.457031 15.816406 21.394531 15.609375 21.304688 15.367188 C 21.214844 15.128906 21.132812 14.910156 21.125 14.886719 C 21.113281 14.859375 21.191406 14.804688 21.292969 14.761719 C 21.4375 14.703125 21.488281 14.652344 21.519531 14.550781 L 21.558594 14.417969 L 22.050781 14.394531 C 22.320312 14.378906 22.542969 14.363281 22.550781 14.363281 C 22.554688 14.359375 22.5625 14.328125 22.5625 14.292969 C 22.5625 14.257812 22.507812 14.226562 22.421875 14.21875 C 22.285156 14.207031 22.285156 14.203125 22.273438 13.964844 C 22.269531 13.882812 22.125 13.886719 22.050781 13.847656 C 22.050781 13.964844 22.039062 13.972656 21.878906 13.972656 C 21.757812 13.972656 21.707031 13.953125 21.707031 13.90625 C 21.707031 13.835938 21.636719 13.820312 21.617188 13.886719 C 21.609375 13.910156 21.511719 13.941406 21.398438 13.957031 L 21.195312 13.984375 L 21.195312 13.855469 C 21.195312 13.785156 21.171875 13.714844 21.136719 13.703125 C 21.070312 13.675781 20.984375 13.75 20.984375 13.832031 C 20.984375 13.875 20.878906 13.886719 20.558594 13.886719 L 20.128906 13.886719 L 20.128906 13.757812 C 20.128906 13.640625 20.117188 13.632812 19.980469 13.632812 C 19.882812 13.632812 19.832031 13.652344 19.832031 13.691406 C 19.832031 13.761719 19.742188 13.800781 19.574219 13.800781 C 19.496094 13.800781 19.433594 13.832031 19.40625 13.886719 C 19.347656 14 19.082031 14.011719 19.125 13.902344 C 19.386719 13.226562 19.015625 12.585938 18.371094 12.601562 C 17.957031 12.609375 17.703125 12.964844 17.699219 13.53125 C 17.699219 13.832031 17.699219 13.835938 17.5625 13.890625 C 17.113281 14.078125 16.789062 14.792969 16.808594 15.566406 C 16.8125 15.8125 16.789062 16.070312 16.738281 16.273438 C 16.691406 16.488281 16.664062 16.804688 16.65625 17.234375 C 16.648438 17.820312 16.632812 17.917969 16.496094 18.40625 C 16.371094 18.851562 16.289062 19.238281 16.183594 19.839844 C 16.175781 19.886719 16.0625 20 15.929688 20.089844 C 15.675781 20.265625 15.5 20.460938 15.363281 20.730469 L 15.277344 20.902344 L 15.433594 21.308594 C 15.628906 21.8125 15.625 21.804688 15.808594 21.855469 C 15.925781 21.890625 16 21.882812 16.105469 21.839844 L 16.25 21.78125 L 16.25 21.136719 L 16.421875 21.136719 C 16.792969 21.136719 17.078125 20.710938 17.445312 19.59375 C 17.777344 18.589844 17.875 18.320312 17.917969 18.320312 C 17.9375 18.320312 17.957031 18.339844 17.957031 18.363281 C 17.957031 18.390625 18.03125 18.53125 18.125 18.679688 C 18.324219 18.992188 18.652344 19.316406 18.988281 19.53125 C 19.199219 19.664062 19.226562 19.699219 19.253906 19.863281 C 19.269531 19.964844 19.359375 20.277344 19.453125 20.558594 C 19.546875 20.839844 19.652344 21.222656 19.683594 21.402344 C 19.761719 21.832031 19.847656 21.953125 20.183594 22.089844 C 20.496094 22.214844 20.667969 22.230469 20.777344 22.132812 Z M 19.082031 14.855469 C 19.097656 14.757812 19.140625 14.652344 19.179688 14.621094 C 19.328125 14.511719 19.917969 14.589844 19.917969 14.71875 C 19.917969 14.777344 19.789062 14.824219 19.613281 14.824219 C 19.542969 14.824219 19.464844 14.867188 19.414062 14.929688 C 19.355469 15.007812 19.289062 15.039062 19.191406 15.039062 L 19.054688 15.039062 Z M 7.988281 20.226562 C 8.371094 20.039062 8.421875 19.9375 8.441406 19.3125 L 8.453125 18.789062 L 7.160156 18.789062 L 7.175781 19.175781 L 7.1875 19.558594 L 4.566406 19.558594 L 4.566406 17.339844 L 7.1875 17.339844 L 7.175781 17.710938 L 7.160156 18.078125 L 7.453125 18.050781 C 7.824219 18.019531 8.25 17.8125 8.394531 17.597656 C 8.480469 17.476562 8.492188 17.414062 8.472656 17.261719 C 8.433594 16.976562 8.308594 16.808594 8.027344 16.671875 L 7.785156 16.550781 L 4.078125 16.550781 L 3.851562 16.652344 C 3.554688 16.789062 3.34375 17.023438 3.308594 17.261719 C 3.292969 17.363281 3.289062 17.964844 3.296875 18.597656 C 3.3125 19.890625 3.316406 19.917969 3.640625 20.140625 C 3.949219 20.355469 4.0625 20.367188 5.972656 20.355469 L 7.742188 20.347656 Z M 13.449219 20.324219 C 13.695312 20.261719 13.953125 20.074219 14.042969 19.898438 C 14.101562 19.78125 14.117188 19.640625 14.117188 19.226562 C 14.117188 18.605469 14.074219 18.460938 13.824219 18.296875 C 13.511719 18.089844 13.289062 18.066406 11.699219 18.066406 L 10.238281 18.066406 L 10.238281 17.339844 L 12.179688 17.339844 C 14.101562 17.339844 14.117188 17.339844 14.117188 17.253906 C 14.117188 17.121094 14.011719 16.902344 13.898438 16.800781 C 13.84375 16.753906 13.703125 16.675781 13.585938 16.632812 C 13.386719 16.558594 13.230469 16.550781 11.515625 16.550781 L 9.664062 16.550781 L 9.429688 16.667969 C 9.152344 16.800781 8.976562 17.039062 8.933594 17.328125 C 8.886719 17.636719 8.933594 18.242188 9.015625 18.398438 C 9.109375 18.574219 9.414062 18.773438 9.691406 18.832031 C 9.816406 18.859375 10.496094 18.875 11.371094 18.875 L 12.839844 18.875 L 12.839844 19.558594 L 10.875 19.558594 C 9.097656 19.558594 8.910156 19.566406 8.933594 19.625 C 8.945312 19.664062 8.957031 19.71875 8.957031 19.75 C 8.957031 19.925781 9.378906 20.242188 9.714844 20.320312 C 9.953125 20.378906 13.230469 20.378906 13.449219 20.324219 Z M 26.292969 20.21875 C 26.726562 20.003906 26.738281 19.960938 26.738281 18.933594 L 26.738281 18.066406 L 23.414062 18.066406 L 23.414062 18.199219 C 23.414062 18.394531 23.585938 18.59375 23.871094 18.734375 C 24.105469 18.847656 24.152344 18.855469 24.789062 18.871094 L 25.460938 18.882812 L 25.460938 19.558594 L 22.859375 19.558594 L 22.859375 17.339844 L 26.75 17.339844 L 26.726562 17.164062 C 26.699219 16.945312 26.5 16.730469 26.230469 16.628906 C 26.054688 16.558594 25.851562 16.550781 24.203125 16.550781 L 22.367188 16.550781 L 22.089844 16.6875 C 21.90625 16.78125 21.78125 16.878906 21.707031 16.984375 C 21.601562 17.140625 21.601562 17.144531 21.589844 18.347656 C 21.582031 19.09375 21.59375 19.617188 21.621094 19.71875 C 21.699219 20.011719 21.957031 20.222656 22.371094 20.328125 C 22.441406 20.347656 23.292969 20.359375 24.265625 20.355469 L 26.035156 20.347656 Z M 31.855469 20.257812 C 31.960938 20.210938 32.113281 20.097656 32.1875 20.011719 L 32.324219 19.855469 L 32.324219 18.488281 C 32.324219 17.5625 32.3125 17.09375 32.277344 17.027344 C 32.175781 16.828125 32.003906 16.699219 31.738281 16.613281 C 31.484375 16.535156 31.335938 16.53125 29.769531 16.53125 C 27.957031 16.53125 27.816406 16.542969 27.507812 16.753906 C 27.425781 16.808594 27.324219 16.917969 27.277344 17 C 27.191406 17.140625 27.1875 17.214844 27.1875 18.46875 C 27.1875 19.777344 27.1875 19.792969 27.285156 19.929688 C 27.335938 20.003906 27.449219 20.105469 27.53125 20.15625 C 27.859375 20.359375 27.929688 20.363281 29.851562 20.355469 C 31.589844 20.347656 31.671875 20.34375 31.855469 20.257812 Z M 28.445312 18.449219 L 28.445312 17.339844 L 31.066406 17.339844 L 31.042969 19.558594 L 28.445312 19.558594 Z M 28.445312 18.449219 "/>
<path style=" stroke:none;fill-rule:nonzero;fill:rgb(100%,100%,100%);fill-opacity:1;" d="M 18.246094 11.128906 C 15.207031 11.128906 12.660156 13.261719 12.007812 16.105469 L 12.925781 16.105469 C 13.558594 13.746094 15.683594 12.003906 18.246094 12.003906 C 20.808594 12.003906 22.9375 13.746094 23.566406 16.105469 L 24.484375 16.105469 C 23.832031 13.261719 21.285156 11.128906 18.246094 11.128906 Z M 12.710938 20.734375 C 13.820312 22.644531 15.886719 23.929688 18.246094 23.929688 C 20.609375 23.929688 22.671875 22.644531 23.78125 20.734375 L 22.734375 20.734375 C 21.734375 22.136719 20.105469 23.058594 18.246094 23.058594 C 16.390625 23.058594 14.757812 22.136719 13.757812 20.734375 Z M 12.710938 20.734375 "/>
</g>
</svg>
