<?xml version="1.0" encoding="UTF-8"?>
<svg xmlns="http://www.w3.org/2000/svg" xmlns:xlink="http://www.w3.org/1999/xlink" width="36pt" height="36pt" viewBox="0 0 36 36" version="1.1">
<g id="surface1">
<path style=" stroke:none;fill-rule:evenodd;fill:rgb(30.980392%,30.980392%,30.980392%);fill-opacity:1;" d="M 8.40625 2.136719 L 27.59375 2.136719 C 31.054688 2.136719 33.863281 4.945312 33.863281 8.40625 L 33.863281 27.59375 C 33.863281 31.054688 31.054688 33.863281 27.59375 33.863281 L 8.40625 33.863281 C 4.945312 33.863281 2.136719 31.054688 2.136719 27.59375 L 2.136719 8.40625 C 2.136719 4.945312 4.945312 2.136719 8.40625 2.136719 Z M 8.40625 2.136719 "/>
<path style=" stroke:none;fill-rule:nonzero;fill:rgb(100%,100%,100%);fill-opacity:1;" d="M 18 6.75 C 11.785156 6.75 6.75 11.785156 6.75 18 C 6.75 24.214844 11.785156 29.25 18 29.25 C 24.214844 29.25 29.25 24.214844 29.25 18 C 29.25 11.785156 24.214844 6.75 18 6.75 Z M 18.25 10.253906 C 18.839844 10.222656 19.238281 10.558594 19.359375 11.035156 C 19.375 11.128906 19.410156 11.285156 19.480469 11.378906 C 19.675781 11.628906 19.921875 11.820312 19.25 11.839844 C 19.25 12.089844 19.234375 12.285156 19.269531 12.496094 C 19.65625 12.726562 19.691406 11.707031 20.277344 12.207031 L 20.3125 12.207031 C 20.347656 12.1875 20.382812 12.148438 20.417969 12.132812 L 20.417969 12.035156 L 20.753906 12.035156 L 20.753906 12.207031 L 21.371094 12.207031 L 21.371094 12.304688 L 22.203125 12.363281 L 22.203125 12.09375 L 22.414062 12.09375 L 22.414062 12.382812 L 22.980469 12.4375 L 22.980469 12.246094 L 23.191406 12.246094 L 23.191406 12.457031 L 23.738281 12.5 L 23.738281 12.171875 L 23.949219 12.171875 L 23.949219 12.519531 L 24.039062 12.519531 L 24.039062 12.824219 L 24.390625 12.863281 L 24.390625 13.132812 L 23.914062 13.246094 L 22.589844 13.246094 C 22.554688 13.382812 22.519531 13.554688 22.503906 13.59375 C 22.359375 13.574219 22.289062 13.863281 22.167969 13.863281 C 22.132812 13.824219 22.113281 13.785156 22.097656 13.75 C 22.132812 14.324219 22.34375 14.828125 22.679688 15.269531 L 22.324219 15.535156 C 21.96875 15.035156 21.777344 14.519531 21.707031 14.054688 C 21.617188 14.171875 21.617188 14.304688 21.601562 14.476562 C 21.601562 14.59375 21.511719 14.574219 21.40625 14.574219 C 21.140625 14.476562 20.964844 14.574219 20.964844 14.574219 C 20.628906 14.613281 20.488281 15.019531 20.082031 15.25 C 20.027344 15.269531 20.011719 15.382812 19.941406 15.363281 L 19.886719 15.324219 C 19.65625 15.402344 19.128906 15.421875 18.863281 15.324219 C 18.863281 15.574219 18.828125 15.730469 18.757812 15.882812 C 18.6875 16.210938 18.722656 16.019531 18.632812 16.34375 C 18.597656 16.730469 18.476562 16.632812 18.476562 16.808594 C 18.421875 17.039062 18.371094 17.210938 18.386719 17.421875 C 18.6875 17.421875 18.6875 17.441406 18.6875 17.441406 C 18.988281 17.632812 19.394531 18.230469 19.570312 18.539062 C 19.78125 18.847656 19.941406 18.980469 19.941406 19.402344 C 19.851562 19.441406 19.78125 19.519531 19.730469 19.578125 C 20.136719 20.019531 20.613281 20.632812 20.824219 21.078125 C 20.894531 21.230469 20.929688 21.425781 20.964844 21.617188 C 21.054688 22.464844 20.894531 23.558594 20.664062 23.808594 C 20.628906 24.003906 20.878906 24.289062 21.019531 24.40625 C 21.441406 24.730469 22.042969 25.367188 21.757812 25.867188 C 21.140625 26.253906 20.523438 25.730469 20.0625 25.40625 C 19.90625 25.269531 19.871094 25.269531 19.851562 25.097656 L 19.851562 24.984375 C 19.851562 24.886719 19.832031 24.773438 19.871094 24.675781 C 19.921875 24.539062 19.886719 24.40625 19.886719 24.289062 C 19.816406 24.214844 19.90625 23.847656 19.816406 23.808594 C 19.445312 23.597656 19.234375 22.960938 19.128906 21.789062 C 18.703125 20.882812 17.835938 20.269531 17.359375 19.402344 C 17.238281 19.460938 17.253906 19.613281 17.183594 19.671875 C 16.777344 20.519531 16.511719 21.382812 16.320312 22.269531 C 15.894531 23.480469 15.558594 23.808594 14.5 24.039062 C 14.429688 24.789062 15.207031 24.539062 15.03125 25.097656 C 14.714844 25.191406 14.714844 25.191406 13.933594 25.097656 C 13.757812 24.980469 13.601562 24.5 13.527344 24.269531 C 13.527344 24.214844 13.351562 24.308594 13.335938 24.269531 C 13.28125 24.214844 13.160156 23.960938 13.140625 23.867188 C 13.121094 23.769531 13.371094 23.714844 13.335938 23.65625 C 13.476562 23.386719 13.722656 23.25 13.882812 23 C 13.96875 22.867188 13.882812 22.65625 13.933594 22.558594 C 14.128906 22.425781 14.625 21.808594 14.765625 21.519531 C 14.960938 20.25 15.226562 19.460938 15.597656 18.269531 C 15.632812 17.84375 15.472656 17.304688 15.507812 16.84375 C 15.527344 16.324219 15.699219 15.902344 15.789062 15.363281 C 15.878906 14.824219 15.949219 14.210938 15.914062 13.652344 C 16.054688 13.035156 16.355469 12.265625 17.027344 12.226562 C 17.078125 12.226562 17.152344 12.246094 17.1875 12.1875 C 17.132812 11.574219 16.972656 10.667969 17.59375 10.417969 C 17.832031 10.320312 18.050781 10.265625 18.25 10.253906 Z M 19.4375 13.21875 C 19.351562 13.21875 19.234375 13.25 19.09375 13.363281 C 19.023438 13.441406 18.882812 13.515625 18.917969 13.9375 C 19.109375 13.9375 19.25 13.941406 19.375 13.960938 C 19.835938 13.613281 20.257812 13.882812 20.3125 13.246094 C 19.976562 13.265625 19.78125 13.207031 19.570312 13.246094 C 19.570312 13.246094 19.519531 13.21875 19.4375 13.21875 Z M 19.4375 13.21875 "/>
</g>
</svg>
