<?xml version="1.0" encoding="UTF-8"?>
<svg xmlns="http://www.w3.org/2000/svg" xmlns:xlink="http://www.w3.org/1999/xlink" width="36pt" height="36pt" viewBox="0 0 36 36" version="1.1">
<g id="surface1">
<path style=" stroke:none;fill-rule:evenodd;fill:rgb(30.196078%,30.196078%,30.196078%);fill-opacity:1;" d="M 33.863281 23.191406 C 33.425781 23.589844 32.894531 24.035156 32.71875 24.132812 C 32.257812 24.398438 31.777344 24.449219 31.347656 24.589844 C 30.917969 24.730469 30.535156 24.960938 30.265625 25.582031 C 30.164062 25.808594 30.160156 26.160156 30.125 26.464844 C 30.09375 26.769531 30.027344 27.027344 29.804688 27.066406 C 29.027344 27.199219 26.332031 27.113281 25.960938 27.367188 C 24.265625 28.335938 22.183594 28.890625 20.3125 29.421875 C 19.957031 29.527344 19.386719 30.664062 19.015625 30.804688 C 18.582031 30.972656 18.109375 30.984375 17.617188 30.910156 C 17.125 30.835938 16.613281 30.671875 16.097656 30.492188 C 15.070312 30.128906 14.035156 29.683594 13.136719 29.683594 C 11.960938 29.683594 10.332031 30.261719 8.707031 30.640625 C 7.890625 30.828125 7.078125 30.96875 6.320312 30.957031 C 5.5625 30.945312 4.859375 30.789062 4.273438 30.382812 C 3.757812 29.664062 3.238281 29.222656 2.65625 28.9375 C 2.578125 28.902344 2.472656 28.90625 2.394531 28.875 C 3 31.707031 5.386719 33.863281 8.40625 33.863281 L 27.589844 33.863281 C 31.066406 33.863281 33.863281 31.066406 33.863281 27.589844 Z M 33.863281 23.191406 "/>
<path style=" stroke:none;fill-rule:evenodd;fill:rgb(29.019608%,69.411765%,94.509804%);fill-opacity:1;" d="M 8.40625 2.136719 C 4.933594 2.136719 2.136719 4.933594 2.136719 8.40625 L 2.136719 27.589844 C 2.136719 28.046875 2.300781 28.449219 2.394531 28.875 C 2.472656 28.90625 2.578125 28.902344 2.65625 28.9375 C 3.238281 29.222656 3.757812 29.664062 4.273438 30.382812 C 4.859375 30.789062 5.5625 30.945312 6.320312 30.957031 C 7.078125 30.96875 7.890625 30.828125 8.707031 30.640625 C 10.332031 30.261719 11.960938 29.683594 13.136719 29.683594 C 14.035156 29.683594 15.070312 30.128906 16.097656 30.492188 C 16.613281 30.671875 17.125 30.835938 17.617188 30.910156 C 18.109375 30.984375 18.582031 30.972656 19.015625 30.804688 C 19.386719 30.664062 19.957031 29.527344 20.3125 29.421875 C 22.183594 28.890625 24.265625 28.335938 25.960938 27.367188 C 26.332031 27.113281 29.027344 27.199219 29.804688 27.066406 C 30.027344 27.027344 30.09375 26.769531 30.125 26.464844 C 30.160156 26.160156 30.164062 25.808594 30.265625 25.582031 C 30.535156 24.960938 30.917969 24.730469 31.347656 24.589844 C 31.777344 24.449219 32.257812 24.398438 32.71875 24.132812 C 32.894531 24.035156 33.425781 23.589844 33.863281 23.191406 L 33.863281 8.40625 C 33.863281 4.933594 31.066406 2.136719 27.589844 2.136719 Z M 8.40625 2.136719 "/>
<path style=" stroke:none;fill-rule:nonzero;fill:rgb(30.196078%,30.196078%,30.196078%);fill-opacity:1;" d="M 13.609375 30.289062 C 12.914062 29.941406 12.777344 29.375 13.078125 29.1875 C 13.449219 28.960938 13.238281 27.632812 12.59375 26.144531 C 11.960938 24.675781 11.953125 24.632812 12.246094 24.308594 C 12.921875 23.550781 12.886719 23.507812 11.679688 23.625 C 8.324219 23.949219 8.207031 24.503906 7.050781 24.984375 C 5.527344 25.617188 4.152344 25.835938 4.152344 25.660156 C 4.152344 25.585938 4.355469 25.46875 4.601562 25.398438 L 5.046875 25.273438 L 4.574219 25.175781 C 4.101562 25.082031 4.101562 25.078125 5.0625 24.445312 C 7.890625 21.574219 10.476562 18.125 14.175781 16.179688 C 14.640625 15.945312 15.171875 15.59375 15.285156 15.34375 C 15.390625 15.109375 15.480469 13.894531 15.480469 13.0625 C 15.480469 11.289062 15.765625 10.347656 16.835938 10.027344 C 17.667969 9.917969 17.53125 9.867188 18.273438 10.332031 C 18.769531 10.640625 19.402344 11.566406 19.945312 11.632812 C 22.105469 11.902344 24.121094 12.726562 24.460938 13.273438 C 24.519531 13.375 24.359375 13.34375 24.097656 13.210938 C 22.6875 12.480469 19.722656 11.984375 18.679688 12.480469 C 17.824219 12.882812 18.332031 13.253906 18.632812 14.972656 C 19.042969 17.304688 18.753906 19.164062 17.785156 20.433594 C 17.550781 20.738281 16.917969 21.316406 16.378906 21.714844 C 15.835938 22.113281 14.722656 22.625 14.605469 22.847656 C 14.488281 23.074219 14.253906 23.4375 14.078125 23.65625 C 13.808594 24 13.761719 24.34375 13.75 26.117188 C 13.738281 27.414062 13.796875 28.257812 13.914062 28.394531 C 14.011719 28.515625 14.046875 28.796875 13.992188 29.015625 C 13.878906 29.46875 14.550781 30.140625 15.226562 30.140625 C 15.4375 30.140625 15.753906 30.25 15.929688 30.378906 C 16.222656 30.601562 16.183594 30.621094 15.429688 30.625 C 14.921875 30.628906 14.042969 30.5 13.609375 30.289062 Z M 13.226562 25.644531 C 13.21875 25.355469 13.265625 24.804688 13.328125 24.421875 C 13.464844 23.644531 13.257812 23.5 12.917969 24.132812 C 12.664062 24.609375 12.660156 25.371094 12.910156 25.839844 C 13.164062 26.308594 13.246094 26.257812 13.226562 25.644531 Z M 13.226562 25.644531 "/>
</g>
</svg>
