<?xml version="1.0" encoding="UTF-8"?>
<svg xmlns="http://www.w3.org/2000/svg" xmlns:xlink="http://www.w3.org/1999/xlink" width="36pt" height="36pt" viewBox="0 0 36 36" version="1.1">
<g id="surface1">
<path style=" stroke:none;fill-rule:evenodd;fill:rgb(90.196078%,90.196078%,90.196078%);fill-opacity:1;" d="M 8.40625 2.136719 L 27.59375 2.136719 C 31.054688 2.136719 33.863281 4.945312 33.863281 8.40625 L 33.863281 27.59375 C 33.863281 31.054688 31.054688 33.863281 27.59375 33.863281 L 8.40625 33.863281 C 4.945312 33.863281 2.136719 31.054688 2.136719 27.59375 L 2.136719 8.40625 C 2.136719 4.945312 4.945312 2.136719 8.40625 2.136719 Z M 8.40625 2.136719 "/>
<path style=" stroke:none;fill-rule:nonzero;fill:rgb(70.196078%,70.196078%,70.196078%);fill-opacity:1;" d="M 18.476562 6.4375 C 20.976562 11.972656 32.03125 25.613281 5.167969 23.53125 C 24.375 31.945312 39.398438 24.742188 18.476562 6.4375 Z M 18.476562 6.4375 "/>
<path style=" stroke:none;fill-rule:nonzero;fill:rgb(60%,60%,60%);fill-opacity:1;" d="M 16.480469 9.007812 C 7.734375 8.957031 3.773438 14.171875 11.6875 23.683594 C 12.40625 24.546875 13.203125 25.4375 14.121094 26.367188 C 15.128906 27.390625 16.257812 28.453125 17.523438 29.5625 C 17.160156 28.761719 16.617188 27.765625 16.039062 26.695312 C 15.488281 25.683594 14.921875 24.605469 14.425781 23.480469 C 12.335938 18.757812 11.757812 13.585938 21.519531 12.476562 C 21.40625 12.21875 21.296875 11.953125 21.175781 11.699219 C 20.765625 10.84375 20.328125 10.042969 19.90625 9.261719 C 18.703125 9.097656 17.554688 9.011719 16.480469 9.007812 Z M 21.824219 9.59375 C 21.855469 9.628906 21.898438 9.667969 21.929688 9.699219 C 22.449219 10.230469 22.933594 10.746094 23.386719 11.253906 C 23.699219 11.601562 23.972656 11.941406 24.253906 12.277344 C 26.140625 12.21875 28.320312 12.273438 30.832031 12.46875 C 27.660156 11.078125 24.625 10.152344 21.824219 9.59375 Z M 21.824219 9.59375 "/>
<path style=" stroke:none;fill-rule:nonzero;fill:rgb(90.196078%,0%,0%);fill-opacity:1;" d="M 31.132812 24.429688 C 31.132812 28.15625 28.109375 31.179688 24.382812 31.179688 C 20.652344 31.179688 17.632812 28.15625 17.632812 24.429688 C 17.632812 20.699219 20.652344 17.679688 24.382812 17.679688 C 28.109375 17.679688 31.132812 20.699219 31.132812 24.429688 Z M 31.132812 24.429688 "/>
<path style=" stroke:none;fill-rule:nonzero;fill:rgb(100%,100%,100%);fill-opacity:1;" d="M 26.875 20.246094 L 24.449219 22.675781 L 22.019531 20.246094 L 20.171875 22.089844 L 22.601562 24.519531 L 20.175781 26.945312 L 22.011719 28.78125 L 24.4375 26.355469 L 26.867188 28.78125 L 28.710938 26.9375 L 26.285156 24.511719 L 28.710938 22.082031 Z M 26.875 20.246094 "/>
</g>
</svg>
