<?xml version="1.0" encoding="UTF-8"?>
<svg xmlns="http://www.w3.org/2000/svg" xmlns:xlink="http://www.w3.org/1999/xlink" width="36pt" height="36pt" viewBox="0 0 36 36" version="1.1">
<g id="surface1">
<path style=" stroke:none;fill-rule:evenodd;fill:rgb(51.372549%,72.156863%,75.294118%);fill-opacity:1;" d="M 8.40625 2.136719 L 27.59375 2.136719 C 31.054688 2.136719 33.863281 4.945312 33.863281 8.40625 L 33.863281 27.59375 C 33.863281 31.054688 31.054688 33.863281 27.59375 33.863281 L 8.40625 33.863281 C 4.945312 33.863281 2.136719 31.054688 2.136719 27.59375 L 2.136719 8.40625 C 2.136719 4.945312 4.945312 2.136719 8.40625 2.136719 Z M 8.40625 2.136719 "/>
<path style=" stroke:none;fill-rule:nonzero;fill:rgb(62.352941%,85.882353%,37.254902%);fill-opacity:1;" d="M 8.152344 13.480469 C 7.566406 13.636719 7.242188 14.3125 7.421875 14.988281 L 10.921875 28.046875 C 11.101562 28.722656 11.722656 29.144531 12.304688 28.988281 C 15.992188 28 18.070312 23.707031 16.925781 19.441406 C 15.78125 15.171875 11.835938 12.492188 8.152344 13.480469 Z M 8.152344 13.480469 "/>
<path style=" stroke:none;fill-rule:nonzero;fill:rgb(100%,100%,100%);fill-opacity:1;" d="M 17.335938 6.980469 C 16.609375 7.003906 16.03125 7.640625 16.03125 8.417969 L 16.03125 27.582031 C 16.03125 28.378906 16.636719 29.019531 17.382812 29.019531 L 27.277344 29.019531 C 27.753906 29.019531 28.195312 28.753906 28.441406 28.316406 C 28.683594 27.878906 28.691406 27.335938 28.460938 26.890625 L 18.5625 7.722656 C 18.320312 7.25 17.84375 6.960938 17.335938 6.980469 Z M 17.335938 6.980469 "/>
<path style="fill:none;stroke-width:2.099274;stroke-linecap:butt;stroke-linejoin:round;stroke:rgb(51.372549%,72.156863%,75.294118%);stroke-opacity:1;stroke-miterlimit:4;" d="M -30.82227 -5.595457 C -30.82227 -5.595457 -33.968103 -5.526012 -33.968103 -4.543374 C -33.968103 -3.564207 -31.169492 -1.255179 -31.169492 -0.276012 C -31.169492 0.703154 -34.318798 0.703154 -34.318798 0.703154 " transform="matrix(1.125,0,0,1.125,57.003178,25.474577)"/>
<path style=" stroke:none;fill-rule:nonzero;fill:rgb(51.372549%,72.156863%,75.294118%);fill-opacity:1;" d="M 10.289062 15.726562 C 10.214844 15.734375 10.140625 15.746094 10.066406 15.738281 L 12.839844 26.078125 C 14.40625 24.957031 15.339844 22.652344 14.644531 20.050781 C 14 17.65625 12.277344 16.101562 10.507812 15.730469 C 10.433594 15.714844 10.363281 15.71875 10.289062 15.726562 Z M 10.289062 15.726562 "/>
</g>
</svg>
