<?xml version="1.0" encoding="UTF-8"?>
<svg xmlns="http://www.w3.org/2000/svg" xmlns:xlink="http://www.w3.org/1999/xlink" width="36pt" height="36pt" viewBox="0 0 36 36" version="1.1">
<defs>
<filter id="alpha" filterUnits="objectBoundingBox" x="0%" y="0%" width="100%" height="100%">
  <feColorMatrix type="matrix" in="SourceGraphic" values="0 0 0 0 1 0 0 0 0 1 0 0 0 0 1 0 0 0 1 0"/>
</filter>
<mask id="mask0">
  <g filter="url(#alpha)">
<rect x="0" y="0" width="36" height="36" style="fill:rgb(0%,0%,0%);fill-opacity:0.988235;stroke:none;"/>
  </g>
</mask>
<clipPath id="clip1">
  <rect width="36" height="36"/>
</clipPath>
<g id="surface6" clip-path="url(#clip1)">
<path style=" stroke:none;fill-rule:nonzero;fill:rgb(40%,33.333333%,89.411765%);fill-opacity:1;" d="M 28.164062 33.75 C 28.8125 33.6875 29.464844 33.617188 30.039062 33.375 C 30.789062 33.058594 31.464844 32.597656 32.03125 32.03125 C 32.597656 31.464844 33.058594 30.789062 33.375 30.039062 C 33.617188 29.464844 33.6875 28.8125 33.75 28.164062 L 33.75 18 L 18 18 L 18 33.75 Z M 28.164062 33.75 "/>
</g>
</defs>
<g id="surface1">
<path style=" stroke:none;fill-rule:nonzero;fill:rgb(81.176471%,30.980392%,54.901961%);fill-opacity:1;" d="M 33.75 7.839844 C 33.6875 7.1875 33.617188 6.539062 33.371094 5.960938 C 33.054688 5.210938 32.597656 4.535156 32.03125 3.96875 C 31.460938 3.402344 30.789062 2.941406 30.035156 2.625 C 29.460938 2.382812 28.8125 2.3125 28.164062 2.25 L 18 2.25 L 18 18 L 33.75 18 Z M 33.75 7.839844 "/>
<path style=" stroke:none;fill-rule:nonzero;fill:rgb(12.941176%,84.313725%,53.72549%);fill-opacity:1;" d="M 7.835938 2.25 C 7.1875 2.3125 6.535156 2.382812 5.960938 2.625 C 5.210938 2.941406 4.535156 3.402344 3.96875 3.96875 C 3.402344 4.535156 2.941406 5.210938 2.625 5.960938 C 2.382812 6.535156 2.3125 7.1875 2.25 7.835938 L 2.25 18 L 18 18 L 18 2.25 Z M 7.835938 2.25 "/>
<use xlink:href="#surface6" mask="url(#mask0)"/>
<path style=" stroke:none;fill-rule:nonzero;fill:rgb(12.54902%,52.54902%,90.588235%);fill-opacity:1;" d="M 2.25 28.160156 C 2.3125 28.8125 2.386719 29.460938 2.628906 30.039062 C 2.945312 30.789062 3.402344 31.464844 3.96875 32.03125 C 4.539062 32.597656 5.210938 33.058594 5.964844 33.375 C 6.539062 33.617188 7.1875 33.6875 7.835938 33.75 L 18 33.75 L 18 18 L 2.25 18 Z M 2.25 28.160156 "/>
<path style=" stroke:none;fill-rule:evenodd;fill:rgb(24.705882%,24.705882%,24.705882%);fill-opacity:1;" d="M 10.714844 5.949219 L 25.285156 5.949219 C 27.917969 5.949219 30.050781 8.082031 30.050781 10.714844 L 30.050781 25.285156 C 30.050781 27.917969 27.917969 30.050781 25.285156 30.050781 L 10.714844 30.050781 C 8.082031 30.050781 5.949219 27.917969 5.949219 25.285156 L 5.949219 10.714844 C 5.949219 8.082031 8.082031 5.949219 10.714844 5.949219 Z M 10.714844 5.949219 "/>
<path style="fill:none;stroke-width:2;stroke-linecap:round;stroke-linejoin:miter;stroke:rgb(100%,100%,100%);stroke-opacity:1;stroke-miterlimit:4;" d="M -29.645059 21.642036 L -21.644487 21.642036 " transform="matrix(0.953545,0,0,0.953545,40.068681,4.043032)"/>
<path style="fill:none;stroke-width:2;stroke-linecap:round;stroke-linejoin:bevel;stroke:rgb(100%,100%,100%);stroke-opacity:1;stroke-miterlimit:4;" d="M -29.628673 15.648775 C -29.628673 15.648775 -25.585373 16.001079 -25.630435 11.650537 C -25.675497 7.299996 -29.628673 7.652299 -29.628673 7.652299 M -29.645059 15.644679 L -29.645059 7.644106 " transform="matrix(0.953545,0,0,0.953545,40.068681,4.043032)"/>
<path style="fill:none;stroke-width:2;stroke-linecap:round;stroke-linejoin:bevel;stroke:rgb(100%,100%,100%);stroke-opacity:1;stroke-miterlimit:4;" d="M -18.645808 12.641904 L -16.642593 12.641904 M -17.642152 12.641904 C -17.642152 12.641904 -17.154662 15.644679 -19.645368 15.644679 C -21.644487 15.644679 -21.644487 13.64556 -21.644487 11.642344 C -21.644487 9.643225 -21.644487 7.644106 -19.645368 7.644106 C -17.642152 7.644106 -17.650345 8.643666 -17.650345 8.643666 " transform="matrix(0.953545,0,0,0.953545,40.068681,4.043032)"/>
</g>
</svg>
