<?xml version="1.0" encoding="UTF-8"?>
<svg xmlns="http://www.w3.org/2000/svg" xmlns:xlink="http://www.w3.org/1999/xlink" width="36pt" height="36pt" viewBox="0 0 36 36" version="1.1">
<g id="surface1">
<path style=" stroke:none;fill-rule:evenodd;fill:rgb(92.54902%,92.54902%,92.54902%);fill-opacity:1;" d="M 8.40625 2.136719 L 27.59375 2.136719 C 31.054688 2.136719 33.863281 4.945312 33.863281 8.40625 L 33.863281 27.59375 C 33.863281 31.054688 31.054688 33.863281 27.59375 33.863281 L 8.40625 33.863281 C 4.945312 33.863281 2.136719 31.054688 2.136719 27.59375 L 2.136719 8.40625 C 2.136719 4.945312 4.945312 2.136719 8.40625 2.136719 Z M 8.40625 2.136719 "/>
<path style=" stroke:none;fill-rule:nonzero;fill:rgb(70.196078%,70.196078%,70.196078%);fill-opacity:1;" d="M 7.789062 8.171875 L 28.210938 8.171875 L 28.210938 11.917969 L 7.789062 11.917969 Z M 7.789062 8.171875 "/>
<path style=" stroke:none;fill-rule:nonzero;fill:rgb(70.196078%,70.196078%,70.196078%);fill-opacity:1;" d="M 7.789062 13.730469 L 28.210938 13.730469 L 28.210938 17.476562 L 7.789062 17.476562 Z M 7.789062 13.730469 "/>
<path style=" stroke:none;fill-rule:nonzero;fill:rgb(70.196078%,70.196078%,70.196078%);fill-opacity:1;" d="M 7.789062 19.289062 L 28.210938 19.289062 L 28.210938 23.035156 L 7.789062 23.035156 Z M 7.789062 19.289062 "/>
<path style=" stroke:none;fill-rule:nonzero;fill:rgb(70.196078%,70.196078%,70.196078%);fill-opacity:1;" d="M 7.789062 24.847656 L 28.210938 24.847656 L 28.210938 28.597656 L 7.789062 28.597656 Z M 7.789062 24.847656 "/>
<path style=" stroke:none;fill-rule:nonzero;fill:rgb(100%,93.333333%,66.666667%);fill-opacity:1;" d="M 17.582031 23.53125 L 23.929688 12.773438 C 25.925781 11.578125 29.621094 12.296875 29.597656 16.03125 L 23.285156 27.027344 L 17.851562 29.8125 Z M 17.582031 23.53125 "/>
<path style=" stroke:none;fill-rule:nonzero;fill:rgb(18.823529%,1.960784%,1.176471%);fill-opacity:1;" d="M 17.761719 27.707031 L 17.851562 29.8125 L 19.738281 28.847656 Z M 17.761719 27.707031 "/>
<path style=" stroke:none;fill-rule:nonzero;fill:rgb(100%,90.196078%,50.588235%);fill-opacity:1;" d="M 21.558594 25.851562 L 19.277344 28.582031 L 19.726562 28.839844 L 23.285156 27.027344 L 23.355469 26.898438 Z M 21.558594 25.851562 "/>
<path style=" stroke:none;fill-rule:nonzero;fill:rgb(20%,20%,20%);fill-opacity:1;" d="M 28.84375 17.34375 L 23.160156 14.074219 L 17.582031 23.53125 L 23.359375 26.898438 Z M 28.84375 17.34375 "/>
<path style=" stroke:none;fill-rule:nonzero;fill:rgb(89.019608%,88.627451%,85.882353%);fill-opacity:1;" d="M 29.597656 16.027344 L 23.941406 12.765625 C 23.9375 12.769531 23.933594 12.769531 23.929688 12.773438 L 23.160156 14.074219 L 28.84375 17.339844 L 29.597656 16.03125 C 29.597656 16.027344 29.597656 16.027344 29.597656 16.027344 Z M 29.597656 16.027344 "/>
<path style=" stroke:none;fill-rule:nonzero;fill:rgb(100%,0%,0%);fill-opacity:1;" d="M 25.660156 12.253906 C 25.039062 12.292969 24.441406 12.472656 23.941406 12.765625 L 29.597656 16.027344 C 29.613281 13.230469 27.539062 12.125 25.660156 12.253906 Z M 25.660156 12.253906 "/>
<path style=" stroke:none;fill-rule:nonzero;fill:rgb(10.196078%,10.196078%,10.196078%);fill-opacity:1;" d="M 26.992188 16.273438 L 21.558594 25.851562 L 23.359375 26.898438 L 28.84375 17.339844 Z M 26.992188 16.273438 "/>
<path style=" stroke:none;fill-rule:nonzero;fill:rgb(20%,20%,20%);fill-opacity:1;" d="M 24.925781 15.085938 L 19.429688 24.609375 L 21.558594 25.851562 L 26.992188 16.273438 Z M 24.925781 15.085938 "/>
<path style=" stroke:none;fill-rule:nonzero;fill:rgb(80%,80%,80%);fill-opacity:1;" d="M 24.675781 14.941406 L 19.179688 24.464844 L 19.429688 24.609375 L 24.925781 15.085938 Z M 24.675781 14.941406 "/>
</g>
</svg>
