<?xml version="1.0" encoding="UTF-8"?>
<svg xmlns="http://www.w3.org/2000/svg" xmlns:xlink="http://www.w3.org/1999/xlink" width="36pt" height="36pt" viewBox="0 0 36 36" version="1.1">
<g id="surface1">
<path style=" stroke:none;fill-rule:evenodd;fill:rgb(100%,100%,100%);fill-opacity:1;" d="M 8.40625 2.136719 L 27.59375 2.136719 C 31.054688 2.136719 33.863281 4.945312 33.863281 8.40625 L 33.863281 27.59375 C 33.863281 31.054688 31.054688 33.863281 27.59375 33.863281 L 8.40625 33.863281 C 4.945312 33.863281 2.136719 31.054688 2.136719 27.59375 L 2.136719 8.40625 C 2.136719 4.945312 4.945312 2.136719 8.40625 2.136719 Z M 8.40625 2.136719 "/>
<path style=" stroke:none;fill-rule:evenodd;fill:rgb(24.313725%,31.372549%,70.588235%);fill-opacity:1;" d="M 3.167969 5.160156 L 32.941406 30.679688 C 33.476562 29.757812 33.863281 28.742188 33.863281 27.59375 L 33.863281 8.410156 C 33.863281 4.933594 31.066406 2.136719 27.589844 2.136719 L 8.40625 2.136719 C 6.152344 2.136719 4.269531 3.382812 3.167969 5.160156 Z M 17.347656 8.402344 L 30.175781 8.402344 L 30.175781 19.398438 Z M 17.347656 8.402344 "/>
<path style=" stroke:none;fill-rule:evenodd;fill:rgb(0.784314%,65.882353%,95.294118%);fill-opacity:1;" d="M 32.941406 30.679688 L 3.167969 5.160156 C 2.570312 6.121094 2.136719 7.191406 2.136719 8.410156 L 2.136719 27.59375 C 2.136719 31.066406 4.933594 33.863281 8.40625 33.863281 L 27.589844 33.863281 C 29.917969 33.863281 31.859375 32.550781 32.941406 30.679688 Z M 5.824219 16.34375 L 18.652344 27.34375 L 5.824219 27.34375 Z M 5.824219 16.34375 "/>
</g>
</svg>
