<?xml version="1.0" encoding="UTF-8"?>
<svg xmlns="http://www.w3.org/2000/svg" xmlns:xlink="http://www.w3.org/1999/xlink" width="36pt" height="36pt" viewBox="0 0 36 36" version="1.1">
<g id="surface1">
<path style=" stroke:none;fill-rule:evenodd;fill:rgb(29.411765%,29.411765%,29.411765%);fill-opacity:1;" d="M 33.863281 22.410156 L 22.410156 33.863281 L 27.59375 33.863281 C 31.066406 33.863281 33.863281 31.066406 33.863281 27.59375 Z M 33.863281 22.410156 "/>
<path style=" stroke:none;fill-rule:evenodd;fill:rgb(100%,63.529412%,20.392157%);fill-opacity:1;" d="M 8.410156 2.136719 C 4.933594 2.136719 2.136719 4.933594 2.136719 8.410156 L 2.136719 27.59375 C 2.136719 31.066406 4.933594 33.863281 8.410156 33.863281 L 22.410156 33.863281 L 33.863281 22.410156 L 33.863281 8.410156 C 33.863281 4.933594 31.066406 2.136719 27.59375 2.136719 Z M 8.410156 2.136719 "/>
<path style=" stroke:none;fill-rule:nonzero;fill:rgb(29.411765%,29.411765%,29.411765%);fill-opacity:1;" d="M 12.882812 12.339844 C 10.648438 12.339844 8.625 13.664062 7.730469 15.714844 L 12.882812 15.714844 L 12.882812 20.210938 L 7.734375 20.210938 C 8.628906 22.257812 10.648438 23.582031 12.882812 23.585938 C 15.113281 23.582031 17.132812 22.257812 18.027344 20.210938 L 28.625 20.210938 L 28.625 15.714844 L 18.03125 15.714844 C 17.136719 13.664062 15.117188 12.339844 12.882812 12.339844 Z M 12.882812 12.339844 "/>
</g>
</svg>
