<?xml version="1.0" encoding="UTF-8"?>
<svg xmlns="http://www.w3.org/2000/svg" xmlns:xlink="http://www.w3.org/1999/xlink" width="36pt" height="36pt" viewBox="0 0 36 36" version="1.1">
<g id="surface1">
<path style=" stroke:none;fill-rule:evenodd;fill:rgb(9.019608%,53.72549%,72.941176%);fill-opacity:1;" d="M 7.117188 0 L 28.882812 0 C 32.8125 0 36 3.1875 36 7.117188 L 36 28.882812 C 36 32.8125 32.8125 36 28.882812 36 L 7.117188 36 C 3.1875 36 0 32.8125 0 28.882812 L 0 7.117188 C 0 3.1875 3.1875 0 7.117188 0 Z M 7.117188 0 "/>
<path style=" stroke:none;fill-rule:nonzero;fill:rgb(35.686275%,35.686275%,35.686275%);fill-opacity:1;" d="M 18 5.683594 C 11.175781 5.683594 5.683594 11.175781 5.683594 18 C 5.683594 24.824219 11.175781 30.316406 18 30.316406 C 24.824219 30.316406 30.316406 24.824219 30.316406 18 C 30.316406 11.175781 24.824219 5.683594 18 5.683594 Z M 18 5.683594 "/>
<path style=" stroke:none;fill-rule:nonzero;fill:rgb(100%,100%,100%);fill-opacity:1;" d="M 26.980469 18 C 26.980469 13.039062 22.960938 9.019531 18 9.019531 C 13.039062 9.019531 9.019531 13.039062 9.019531 18 C 9.019531 22.960938 13.039062 26.980469 18 26.980469 C 22.960938 26.980469 26.980469 22.960938 26.980469 18 Z M 26.980469 18 "/>
<path style=" stroke:none;fill-rule:nonzero;fill:rgb(9.019608%,53.72549%,72.941176%);fill-opacity:1;" d="M 24.875 18 C 24.875 21.796875 21.796875 24.875 18 24.875 C 14.203125 24.875 11.125 21.796875 11.125 18 C 11.125 14.203125 14.203125 11.125 18 11.125 C 21.796875 11.125 24.875 14.203125 24.875 18 Z M 24.875 18 "/>
</g>
</svg>
