<?xml version="1.0" encoding="UTF-8"?>
<svg xmlns="http://www.w3.org/2000/svg" xmlns:xlink="http://www.w3.org/1999/xlink" width="36pt" height="36pt" viewBox="0 0 36 36" version="1.1">
<g id="surface1">
<path style=" stroke:none;fill-rule:evenodd;fill:rgb(91.372549%,68.235294%,33.333333%);fill-opacity:1;" d="M 8.40625 2.136719 L 27.59375 2.136719 C 31.054688 2.136719 33.863281 4.945312 33.863281 8.40625 L 33.863281 27.59375 C 33.863281 31.054688 31.054688 33.863281 27.59375 33.863281 L 8.40625 33.863281 C 4.945312 33.863281 2.136719 31.054688 2.136719 27.59375 L 2.136719 8.40625 C 2.136719 4.945312 4.945312 2.136719 8.40625 2.136719 Z M 8.40625 2.136719 "/>
<path style=" stroke:none;fill-rule:nonzero;fill:rgb(100%,100%,100%);fill-opacity:1;" d="M 15.949219 10.6875 C 15.949219 10.6875 13.71875 10.640625 11.359375 12.371094 C 9 14.105469 7.875 17.695312 7.875 22.863281 C 7.875 22.863281 10.378906 25.199219 14 25.3125 C 14 25.3125 14.605469 24.597656 15.097656 23.984375 C 13.015625 23.367188 12.226562 21.523438 12.226562 21.523438 C 14.144531 22.597656 15.449219 23.042969 17.4375 23.0625 C 19.425781 23.042969 21.855469 22.597656 23.773438 21.523438 C 23.773438 21.523438 22.984375 23.367188 20.902344 23.984375 C 21.394531 24.597656 22 25.3125 22 25.3125 C 25.621094 25.199219 28.125 22.863281 28.125 22.863281 C 28.125 17.695312 27 14.105469 24.640625 12.371094 C 22.28125 10.640625 20.050781 10.6875 20.050781 10.6875 L 19.886719 10.882812 C 22.835938 11.707031 24.179688 13.550781 24.179688 13.550781 C 24.179688 13.550781 23.820312 13.355469 23.214844 13.097656 C 21.375 12.214844 19.125 11.8125 17.4375 11.8125 C 15.75 11.8125 14.625 12.214844 12.785156 13.097656 C 12.179688 13.355469 11.820312 13.550781 11.820312 13.550781 C 11.820312 13.550781 13.164062 11.707031 16.113281 10.882812 Z M 15.1875 17.4375 C 16.128906 17.4375 16.890625 18.1875 16.875 19.125 C 16.875 20.0625 16.128906 20.8125 15.1875 20.8125 C 14.261719 20.8125 13.5 20.0625 13.5 19.125 C 13.5 18.1875 14.246094 17.4375 15.1875 17.4375 Z M 20.8125 17.4375 C 21.753906 17.4375 22.5 18.1875 22.5 19.125 C 22.5 20.0625 21.738281 20.8125 20.8125 20.8125 C 19.871094 20.8125 19.125 20.0625 19.125 19.125 C 19.109375 18.1875 19.871094 17.4375 20.8125 17.4375 Z M 20.8125 17.4375 "/>
</g>
</svg>
