<?xml version="1.0" encoding="UTF-8"?>
<svg xmlns="http://www.w3.org/2000/svg" xmlns:xlink="http://www.w3.org/1999/xlink" width="36pt" height="36pt" viewBox="0 0 36 36" version="1.1">
<g id="surface1">
<path style=" stroke:none;fill-rule:evenodd;fill:rgb(92.54902%,94.117647%,94.509804%);fill-opacity:1;" d="M 8.40625 2.136719 L 27.59375 2.136719 C 31.054688 2.136719 33.863281 4.945312 33.863281 8.40625 L 33.863281 27.59375 C 33.863281 31.054688 31.054688 33.863281 27.59375 33.863281 L 8.40625 33.863281 C 4.945312 33.863281 2.136719 31.054688 2.136719 27.59375 L 2.136719 8.40625 C 2.136719 4.945312 4.945312 2.136719 8.40625 2.136719 Z M 8.40625 2.136719 "/>
<path style=" stroke:none;fill-rule:nonzero;fill:rgb(0%,35.294118%,69.411765%);fill-opacity:1;" d="M 16.132812 24.332031 C 16.15625 26.300781 14.984375 28.089844 13.167969 28.855469 C 11.355469 29.621094 9.253906 29.207031 7.863281 27.816406 L 11.289062 24.390625 Z M 16.132812 24.332031 "/>
<path style=" stroke:none;fill-rule:nonzero;fill:rgb(0%,74.117647%,61.176471%);fill-opacity:1;" d="M 7.820312 21.003906 C 9.199219 19.597656 11.289062 19.160156 13.117188 19.902344 C 14.941406 20.644531 16.132812 22.417969 16.132812 24.390625 L 11.289062 24.390625 Z M 7.820312 21.003906 "/>
<path style=" stroke:none;fill-rule:nonzero;fill:rgb(95.686275%,80%,12.54902%);fill-opacity:1;" d="M 7.902344 27.855469 C 6.976562 26.953125 6.453125 25.714844 6.445312 24.417969 C 6.4375 23.125 6.945312 21.878906 7.863281 20.964844 L 11.289062 24.390625 Z M 7.902344 27.855469 "/>
<path style=" stroke:none;fill-rule:nonzero;fill:rgb(95.686275%,29.019608%,12.54902%);fill-opacity:1;" d="M 11.347656 29.234375 C 10.042969 29.25 8.785156 28.738281 7.863281 27.816406 L 11.289062 24.390625 Z M 11.347656 29.234375 "/>
<path style=" stroke:none;fill-rule:nonzero;fill:rgb(91.372549%,29.411765%,20.784314%);fill-opacity:1;" d="M 6.859375 9.8125 L 10.015625 9.8125 L 10.015625 16.601562 L 6.859375 16.601562 Z M 6.859375 9.8125 "/>
<path style=" stroke:none;fill-rule:nonzero;fill:rgb(95.686275%,80%,12.54902%);fill-opacity:1;" d="M 10.6875 11.128906 L 13.84375 11.128906 L 13.84375 16.601562 L 10.6875 16.601562 Z M 10.6875 11.128906 "/>
<path style=" stroke:none;fill-rule:nonzero;fill:rgb(16.862745%,24.313725%,31.764706%);fill-opacity:1;" d="M 14.515625 12.40625 L 17.671875 12.40625 L 17.671875 16.601562 L 14.515625 16.601562 Z M 14.515625 12.40625 "/>
<path style=" stroke:none;fill-rule:nonzero;fill:rgb(0%,74.117647%,61.176471%);fill-opacity:1;" d="M 18.34375 6.183594 L 21.496094 6.183594 L 21.496094 16.601562 L 18.34375 16.601562 Z M 18.34375 6.183594 "/>
<path style=" stroke:none;fill-rule:nonzero;fill:rgb(74.117647%,76.470588%,78.039216%);fill-opacity:1;" d="M 6.59375 18.253906 L 29.179688 18.253906 L 29.179688 17.613281 L 6.59375 17.613281 Z M 6.59375 18.253906 "/>
<path style=" stroke:none;fill-rule:nonzero;fill:rgb(0%,30.196078%,61.176471%);fill-opacity:1;" d="M 22.230469 8.335938 L 25.386719 8.335938 L 25.386719 16.636719 L 22.230469 16.636719 Z M 22.230469 8.335938 "/>
<path style=" stroke:none;fill-rule:nonzero;fill:rgb(16.862745%,61.176471%,31.764706%);fill-opacity:1;" d="M 26.007812 11.3125 L 29.164062 11.3125 L 29.164062 16.636719 L 26.007812 16.636719 Z M 26.007812 11.3125 "/>
<path style=" stroke:none;fill-rule:nonzero;fill:rgb(91.372549%,29.411765%,20.784314%);fill-opacity:1;" d="M 20.285156 23.476562 C 20.285156 23.988281 19.871094 24.40625 19.355469 24.40625 C 18.839844 24.40625 18.421875 23.988281 18.421875 23.476562 C 18.421875 22.960938 18.839844 22.542969 19.355469 22.542969 C 19.871094 22.542969 20.285156 22.960938 20.285156 23.476562 Z M 20.285156 23.476562 "/>
<path style=" stroke:none;fill-rule:nonzero;fill:rgb(16.862745%,61.176471%,31.764706%);fill-opacity:1;" d="M 20.285156 25.75 C 20.285156 26.261719 19.871094 26.679688 19.355469 26.679688 C 18.839844 26.679688 18.421875 26.261719 18.421875 25.75 C 18.421875 25.234375 18.839844 24.816406 19.355469 24.816406 C 19.871094 24.816406 20.285156 25.234375 20.285156 25.75 Z M 20.285156 25.75 "/>
<path style=" stroke:none;fill-rule:nonzero;fill:rgb(74.117647%,76.470588%,78.039216%);fill-opacity:1;" d="M 20.90625 21.480469 L 29.214844 21.480469 L 29.214844 20.839844 L 20.90625 20.839844 Z M 20.90625 21.480469 "/>
<path style=" stroke:none;fill-rule:nonzero;fill:rgb(74.117647%,76.470588%,78.039216%);fill-opacity:1;" d="M 20.90625 23.761719 L 26.382812 23.761719 L 26.382812 23.121094 L 20.90625 23.121094 Z M 20.90625 23.761719 "/>
<path style=" stroke:none;fill-rule:nonzero;fill:rgb(74.117647%,76.470588%,78.039216%);fill-opacity:1;" d="M 20.90625 26.042969 L 27.648438 26.042969 L 27.648438 25.402344 L 20.90625 25.402344 Z M 20.90625 26.042969 "/>
<path style=" stroke:none;fill-rule:nonzero;fill:rgb(16.862745%,24.313725%,31.764706%);fill-opacity:1;" d="M 20.285156 28.003906 C 20.285156 28.515625 19.871094 28.933594 19.355469 28.933594 C 18.839844 28.933594 18.421875 28.515625 18.421875 28.003906 C 18.421875 27.488281 18.839844 27.070312 19.355469 27.070312 C 19.871094 27.070312 20.285156 27.488281 20.285156 28.003906 Z M 20.285156 28.003906 "/>
<path style=" stroke:none;fill-rule:nonzero;fill:rgb(74.117647%,76.470588%,78.039216%);fill-opacity:1;" d="M 20.90625 28.324219 L 25.824219 28.324219 L 25.824219 27.683594 L 20.90625 27.683594 Z M 20.90625 28.324219 "/>
<path style=" stroke:none;fill-rule:nonzero;fill:rgb(95.686275%,80%,12.54902%);fill-opacity:1;" d="M 20.25 21.09375 C 20.25 21.609375 19.832031 22.027344 19.316406 22.027344 C 18.800781 22.027344 18.386719 21.609375 18.386719 21.09375 C 18.386719 20.582031 18.800781 20.164062 19.316406 20.164062 C 19.832031 20.164062 20.25 20.582031 20.25 21.09375 Z M 20.25 21.09375 "/>
</g>
</svg>
