<?xml version="1.0" encoding="UTF-8"?>
<svg xmlns="http://www.w3.org/2000/svg" xmlns:xlink="http://www.w3.org/1999/xlink" width="36pt" height="36pt" viewBox="0 0 36 36" version="1.1">
<g id="surface1">
<path style=" stroke:none;fill-rule:evenodd;fill:rgb(55.686275%,55.686275%,55.686275%);fill-opacity:1;" d="M 8.40625 2.136719 L 27.59375 2.136719 C 31.054688 2.136719 33.863281 4.945312 33.863281 8.40625 L 33.863281 27.59375 C 33.863281 31.054688 31.054688 33.863281 27.59375 33.863281 L 8.40625 33.863281 C 4.945312 33.863281 2.136719 31.054688 2.136719 27.59375 L 2.136719 8.40625 C 2.136719 4.945312 4.945312 2.136719 8.40625 2.136719 Z M 8.40625 2.136719 "/>
<path style=" stroke:none;fill-rule:nonzero;fill:rgb(30.196078%,30.196078%,30.196078%);fill-opacity:1;" d="M 18 10.125 C 13.652344 10.125 10.125 13.652344 10.125 18 L 10.125 25.875 L 18 25.875 C 22.347656 25.875 25.875 22.347656 25.875 18 C 25.875 13.652344 22.347656 10.125 18 10.125 Z M 18 13.5 C 20.484375 13.5 22.5 15.515625 22.5 18 C 22.5 20.484375 20.484375 22.5 18 22.5 C 15.515625 22.5 13.5 20.484375 13.5 18 C 13.5 15.515625 15.515625 13.5 18 13.5 Z M 18 13.5 "/>
<path style=" stroke:none;fill-rule:evenodd;fill:rgb(80%,36.862745%,33.333333%);fill-opacity:1;" d="M 31.40625 25.933594 C 31.40625 29.039062 28.886719 31.558594 25.78125 31.558594 C 22.671875 31.558594 20.15625 29.039062 20.15625 25.933594 C 20.15625 22.824219 22.671875 20.308594 25.78125 20.308594 C 28.886719 20.308594 31.40625 22.824219 31.40625 25.933594 Z M 31.40625 25.933594 "/>
<path style=" stroke:none;fill-rule:nonzero;fill:rgb(100%,100%,100%);fill-opacity:1;" d="M 25.078125 23.121094 L 25.015625 23.859375 C 24.78125 23.949219 24.5625 24.074219 24.367188 24.234375 L 23.695312 23.917969 L 22.992188 25.136719 L 23.605469 25.558594 C 23.582031 25.683594 23.570312 25.808594 23.570312 25.933594 C 23.570312 26.058594 23.582031 26.183594 23.601562 26.304688 L 22.992188 26.730469 L 23.695312 27.949219 L 24.367188 27.632812 C 24.558594 27.789062 24.777344 27.917969 25.015625 28.003906 L 25.078125 28.746094 L 26.484375 28.746094 L 26.542969 28.003906 C 26.78125 27.917969 26.996094 27.789062 27.191406 27.628906 L 27.863281 27.949219 L 28.566406 26.730469 L 27.957031 26.304688 C 27.976562 26.183594 27.988281 26.058594 27.988281 25.933594 C 27.988281 25.808594 27.980469 25.679688 27.957031 25.558594 L 28.566406 25.136719 L 27.863281 23.917969 L 27.191406 24.234375 C 27 24.074219 26.78125 23.949219 26.542969 23.863281 L 26.484375 23.121094 Z M 25.78125 25.128906 C 26.222656 25.128906 26.582031 25.488281 26.582031 25.933594 C 26.582031 26.375 26.222656 26.734375 25.78125 26.734375 C 25.335938 26.734375 24.976562 26.375 24.976562 25.933594 C 24.976562 25.488281 25.335938 25.128906 25.78125 25.128906 Z M 25.78125 25.128906 "/>
</g>
</svg>
