<?xml version="1.0" encoding="UTF-8"?>
<svg xmlns="http://www.w3.org/2000/svg" xmlns:xlink="http://www.w3.org/1999/xlink" width="36pt" height="36pt" viewBox="0 0 36 36" version="1.1">
<g id="surface1">
<path style=" stroke:none;fill-rule:evenodd;fill:rgb(90.196078%,19.607843%,0%);fill-opacity:1;" d="M 8.636719 1.90625 C 5.164062 1.90625 2.363281 4.703125 2.363281 8.179688 L 2.363281 27.363281 C 2.363281 28.691406 2.867188 29.855469 3.566406 30.867188 C 4.007812 29.585938 4.339844 28.097656 4.339844 26.011719 C 4.339844 23.835938 4.007812 21.058594 3.152344 17.335938 C 4.09375 17.820312 4.953125 18.425781 5.722656 19.128906 C 6.492188 19.832031 7.171875 20.628906 7.757812 21.5 C 8.34375 22.371094 8.839844 23.3125 9.234375 24.300781 C 9.628906 25.292969 9.925781 26.332031 10.121094 27.394531 C 10.121094 27.394531 10.550781 27.183594 10.835938 26.367188 C 10.980469 25.960938 11.085938 25.402344 11.085938 24.640625 C 11.085938 23.878906 10.980469 22.917969 10.691406 21.707031 C 11.398438 23.277344 12.59375 24.761719 13.648438 25.894531 C 14.707031 27.027344 15.621094 27.808594 15.78125 27.96875 C 16.023438 27.21875 16.421875 26.648438 16.851562 26.167969 C 17.285156 25.691406 17.746094 25.300781 18.121094 24.925781 C 18.496094 24.550781 18.78125 24.179688 18.855469 23.742188 C 18.929688 23.300781 18.792969 22.789062 18.320312 22.121094 C 19.835938 22.46875 20.984375 22.949219 21.863281 23.476562 C 22.742188 24.003906 23.347656 24.582031 23.777344 25.125 C 24.636719 26.214844 24.785156 27.179688 24.964844 27.359375 C 25.386719 25.128906 25.746094 24.519531 25.851562 23.90625 C 25.957031 23.292969 25.808594 22.667969 25.21875 20.398438 C 26.425781 22.59375 27.242188 23.675781 27.757812 23.964844 C 28.011719 24.109375 28.191406 24.058594 28.304688 23.851562 C 28.417969 23.640625 28.464844 23.277344 28.453125 22.792969 C 28.433594 21.828125 28.179688 20.398438 27.78125 18.828125 C 27.378906 17.257812 26.824219 15.542969 26.199219 14.015625 C 27.917969 15.484375 29.265625 16.652344 30.292969 17.65625 C 31.316406 18.664062 32.019531 19.507812 32.449219 20.335938 C 32.878906 21.164062 33.039062 21.96875 32.972656 22.898438 C 32.910156 23.824219 32.625 24.875 32.164062 26.183594 C 33.308594 24.816406 33.558594 24.476562 34.09375 23.738281 L 34.09375 8.179688 C 34.09375 4.703125 31.296875 1.90625 27.820312 1.90625 Z M 8.636719 1.90625 "/>
<path style=" stroke:none;fill-rule:nonzero;fill:rgb(52.156863%,52.156863%,52.156863%);fill-opacity:1;" d="M 18 11.6875 C 14.511719 11.6875 11.6875 14.511719 11.6875 18 C 11.6875 21.488281 14.511719 24.3125 18 24.3125 C 21.488281 24.3125 24.3125 21.488281 24.3125 18 C 24.3125 14.511719 21.488281 11.6875 18 11.6875 Z M 18 15.476562 C 19.394531 15.476562 20.523438 16.605469 20.523438 18 C 20.523438 19.394531 19.394531 20.523438 18 20.523438 C 16.605469 20.523438 15.476562 19.394531 15.476562 18 C 15.476562 16.605469 16.605469 15.476562 18 15.476562 Z M 18 15.476562 "/>
<path style=" stroke:none;fill-rule:nonzero;fill:rgb(90.196078%,90.196078%,90.196078%);fill-opacity:1;" d="M 18 6.214844 C 11.472656 6.214844 6.214844 11.472656 6.214844 18 C 6.214844 24.527344 11.472656 29.785156 18 29.785156 C 24.527344 29.785156 29.785156 24.527344 29.785156 18 C 29.785156 11.472656 24.527344 6.214844 18 6.214844 Z M 18 12.949219 C 20.789062 12.949219 23.050781 15.210938 23.050781 18 C 23.050781 20.789062 20.789062 23.050781 18 23.050781 C 15.210938 23.050781 12.949219 20.789062 12.949219 18 C 12.949219 15.210938 15.210938 12.949219 18 12.949219 Z M 18 12.949219 "/>
<path style=" stroke:none;fill-rule:nonzero;fill:rgb(100%,100%,100%);fill-opacity:1;" d="M 18 14.585938 C 16.113281 14.585938 14.585938 16.113281 14.585938 18 C 14.585938 19.886719 16.113281 21.414062 18 21.414062 C 19.886719 21.414062 21.414062 19.886719 21.414062 18 C 21.414062 16.113281 19.886719 14.585938 18 14.585938 Z M 18 14.585938 "/>
<path style=" stroke:none;fill-rule:evenodd;fill:rgb(100%,71.764706%,0%);fill-opacity:1;" d="M 34.09375 23.738281 C 33.558594 24.476562 33.308594 24.816406 32.164062 26.183594 C 32.625 24.875 32.910156 23.824219 32.972656 22.898438 C 33.039062 21.96875 32.878906 21.164062 32.449219 20.335938 C 32.019531 19.507812 31.316406 18.664062 30.292969 17.65625 C 29.265625 16.652344 27.917969 15.484375 26.199219 14.015625 C 26.824219 15.542969 27.378906 17.257812 27.78125 18.828125 C 28.179688 20.398438 28.433594 21.828125 28.453125 22.792969 C 28.464844 23.277344 28.417969 23.640625 28.304688 23.851562 C 28.191406 24.058594 28.011719 24.109375 27.757812 23.964844 C 27.242188 23.675781 26.425781 22.59375 25.21875 20.398438 C 25.808594 22.667969 25.957031 23.292969 25.851562 23.90625 C 25.746094 24.519531 25.386719 25.128906 24.964844 27.359375 C 24.785156 27.179688 24.636719 26.214844 23.777344 25.125 C 23.347656 24.582031 22.742188 24.003906 21.863281 23.476562 C 20.984375 22.949219 19.835938 22.46875 18.320312 22.121094 C 18.792969 22.789062 18.929688 23.300781 18.855469 23.742188 C 18.78125 24.179688 18.496094 24.550781 18.121094 24.925781 C 17.746094 25.300781 17.285156 25.691406 16.851562 26.167969 C 16.421875 26.648438 16.023438 27.21875 15.78125 27.96875 C 15.621094 27.808594 14.707031 27.027344 13.648438 25.894531 C 12.59375 24.761719 11.398438 23.277344 10.691406 21.707031 C 10.980469 22.917969 11.085938 23.878906 11.085938 24.640625 C 11.085938 25.402344 10.980469 25.960938 10.835938 26.367188 C 10.550781 27.183594 10.121094 27.394531 10.121094 27.394531 C 9.925781 26.332031 9.628906 25.292969 9.234375 24.300781 C 8.839844 23.3125 8.34375 22.371094 7.757812 21.5 C 7.171875 20.628906 6.492188 19.832031 5.722656 19.128906 C 4.953125 18.425781 4.09375 17.820312 3.152344 17.335938 C 4.007812 21.058594 4.339844 23.835938 4.339844 26.011719 C 4.339844 28.097656 4.007812 29.585938 3.566406 30.867188 C 4.695312 32.5 6.492188 33.636719 8.636719 33.636719 L 27.820312 33.636719 C 31.296875 33.636719 34.09375 30.835938 34.09375 27.363281 Z M 34.09375 23.738281 "/>
</g>
</svg>
