<?xml version="1.0" encoding="UTF-8"?>
<svg xmlns="http://www.w3.org/2000/svg" xmlns:xlink="http://www.w3.org/1999/xlink" width="36pt" height="36pt" viewBox="0 0 36 36" version="1.1">
<g id="surface1">
<path style=" stroke:none;fill-rule:evenodd;fill:rgb(55.686275%,55.686275%,55.686275%);fill-opacity:1;" d="M 8.40625 2.136719 C 4.933594 2.136719 2.136719 4.933594 2.136719 8.40625 L 2.136719 18.4375 L 33.863281 18.4375 L 33.863281 8.40625 C 33.863281 4.933594 31.066406 2.136719 27.59375 2.136719 Z M 8.40625 2.136719 "/>
<path style=" stroke:none;fill-rule:nonzero;fill:rgb(90.196078%,90.196078%,90.196078%);fill-opacity:1;" d="M 7.996094 7.644531 L 28.007812 7.644531 L 28.007812 19.636719 L 7.996094 19.636719 Z M 7.996094 7.644531 "/>
<path style=" stroke:none;fill-rule:nonzero;fill:rgb(50.196078%,50.196078%,50.196078%);fill-opacity:1;" d="M 9.996094 12.441406 L 15 12.441406 L 15 16.039062 L 9.996094 16.039062 Z M 9.996094 12.441406 "/>
<path style=" stroke:none;fill-rule:nonzero;fill:rgb(50.196078%,50.196078%,50.196078%);fill-opacity:1;" d="M 21.003906 12.441406 L 26.007812 12.441406 L 26.007812 16.039062 L 21.003906 16.039062 Z M 21.003906 12.441406 "/>
<path style=" stroke:none;fill-rule:evenodd;fill:rgb(30.196078%,30.196078%,30.196078%);fill-opacity:1;" d="M 33.863281 18.4375 L 2.136719 18.4375 L 2.136719 27.59375 C 2.136719 31.066406 4.933594 33.863281 8.40625 33.863281 L 27.59375 33.863281 C 31.066406 33.863281 33.863281 31.066406 33.863281 27.59375 Z M 33.863281 18.4375 "/>
<path style=" stroke:none;fill-rule:nonzero;fill:rgb(50.196078%,50.196078%,50.196078%);fill-opacity:1;" d="M 9.609375 23.234375 L 26.394531 23.234375 C 27.058594 23.234375 27.59375 23.769531 27.59375 24.433594 C 27.59375 25.09375 27.058594 25.628906 26.394531 25.628906 L 9.609375 25.628906 C 8.949219 25.628906 8.410156 25.09375 8.410156 24.433594 C 8.410156 23.769531 8.949219 23.234375 9.609375 23.234375 Z M 9.609375 23.234375 "/>
<path style=" stroke:none;fill-rule:nonzero;fill:rgb(50.196078%,50.196078%,50.196078%);fill-opacity:1;" d="M 12.007812 28.027344 L 23.996094 28.027344 C 24.660156 28.027344 25.195312 28.566406 25.195312 29.226562 C 25.195312 29.890625 24.660156 30.425781 23.996094 30.425781 L 12.007812 30.425781 C 11.347656 30.425781 10.808594 29.890625 10.808594 29.226562 C 10.808594 28.566406 11.347656 28.027344 12.007812 28.027344 Z M 12.007812 28.027344 "/>
<path style=" stroke:none;fill-rule:nonzero;fill:rgb(23.529412%,57.254902%,82.352941%);fill-opacity:1;" d="M 31.898438 24.992188 C 31.898438 28.722656 28.875 31.742188 25.148438 31.742188 C 21.417969 31.742188 18.398438 28.722656 18.398438 24.992188 C 18.398438 21.265625 21.417969 18.242188 25.148438 18.242188 C 28.875 18.242188 31.898438 21.265625 31.898438 24.992188 Z M 31.898438 24.992188 "/>
<path style=" stroke:none;fill-rule:nonzero;fill:rgb(100%,100%,100%);fill-opacity:1;" d="M 21.773438 25.261719 C 21.773438 27.125 23.285156 28.636719 25.148438 28.636719 C 26.992188 28.636719 28.488281 27.15625 28.519531 25.320312 C 28.519531 25.300781 28.523438 25.28125 28.523438 25.261719 C 28.523438 24.953125 28.1875 24.699219 27.875 24.699219 C 27.5625 24.699219 27.257812 24.953125 27.257812 25.261719 C 27.257812 26.503906 26.390625 27.371094 25.148438 27.371094 C 23.90625 27.371094 23.039062 26.503906 23.039062 25.261719 C 23.039062 24.019531 23.90625 23.152344 25.148438 23.152344 L 25.148438 24.417969 L 27.679688 22.449219 L 25.148438 20.621094 L 25.148438 21.886719 C 23.285156 21.886719 21.773438 23.398438 21.773438 25.261719 Z M 21.773438 25.261719 "/>
</g>
</svg>
