<?xml version="1.0" encoding="UTF-8"?>
<svg xmlns="http://www.w3.org/2000/svg" xmlns:xlink="http://www.w3.org/1999/xlink" width="36pt" height="36pt" viewBox="0 0 36 36" version="1.1">
<g id="surface1">
<path style=" stroke:none;fill-rule:evenodd;fill:rgb(38.431373%,69.411765%,60%);fill-opacity:1;" d="M 8.40625 2.136719 L 27.59375 2.136719 C 31.054688 2.136719 33.863281 4.945312 33.863281 8.40625 L 33.863281 27.59375 C 33.863281 31.054688 31.054688 33.863281 27.59375 33.863281 L 8.40625 33.863281 C 4.945312 33.863281 2.136719 31.054688 2.136719 27.59375 L 2.136719 8.40625 C 2.136719 4.945312 4.945312 2.136719 8.40625 2.136719 Z M 8.40625 2.136719 "/>
<path style=" stroke:none;fill-rule:nonzero;fill:rgb(90.196078%,90.196078%,90.196078%);fill-opacity:1;" d="M 9.15625 13.996094 L 8.976562 13.996094 C 7.546875 13.996094 6.394531 15.148438 6.394531 16.582031 L 6.394531 24.730469 C 6.394531 26.160156 7.546875 27.3125 8.976562 27.3125 L 27.023438 27.3125 C 28.453125 27.3125 29.605469 26.160156 29.605469 24.730469 L 29.605469 16.582031 C 29.605469 15.148438 28.453125 13.996094 27.023438 13.996094 L 26.84375 13.996094 L 26.84375 20.257812 C 26.84375 20.820312 26.617188 21.332031 26.25 21.699219 C 25.878906 22.066406 25.371094 22.296875 24.804688 22.296875 L 11.195312 22.296875 C 10.628906 22.296875 10.121094 22.066406 9.75 21.699219 C 9.382812 21.332031 9.15625 20.820312 9.15625 20.257812 Z M 9.15625 13.996094 "/>
<path style=" stroke:none;fill-rule:nonzero;fill:rgb(35.686275%,35.686275%,35.686275%);fill-opacity:1;" d="M 9.15625 13.996094 L 9.15625 20.257812 C 9.15625 20.820312 9.382812 21.332031 9.75 21.699219 C 10.121094 22.066406 10.628906 22.296875 11.195312 22.296875 L 24.804688 22.296875 C 25.371094 22.296875 25.878906 22.066406 26.25 21.699219 C 26.617188 21.332031 26.84375 20.820312 26.84375 20.257812 L 26.84375 13.996094 Z M 9.15625 13.996094 "/>
<path style=" stroke:none;fill-rule:nonzero;fill:rgb(32.156863%,32.156863%,32.156863%);fill-opacity:1;" d="M 10.222656 24.390625 L 25.777344 24.390625 L 25.777344 27.3125 L 10.222656 27.3125 Z M 10.222656 24.390625 "/>
<path style=" stroke:none;fill-rule:nonzero;fill:rgb(80%,80%,80%);fill-opacity:1;" d="M 11.210938 25.464844 L 24.789062 25.464844 L 24.789062 29.492188 L 11.210938 29.492188 Z M 11.210938 25.464844 "/>
<path style=" stroke:none;fill-rule:nonzero;fill:rgb(80%,80%,80%);fill-opacity:1;" d="M 12.226562 25.464844 L 23.773438 25.464844 L 23.773438 28.53125 L 12.226562 28.53125 Z M 12.226562 25.464844 "/>
<path style=" stroke:none;fill-rule:nonzero;fill:rgb(100%,100%,100%);fill-opacity:1;" d="M 28.328125 24.636719 C 28.328125 25.050781 27.996094 25.386719 27.582031 25.386719 C 27.171875 25.386719 26.835938 25.050781 26.835938 24.636719 C 26.835938 24.226562 27.171875 23.890625 27.582031 23.890625 C 27.996094 23.890625 28.328125 24.226562 28.328125 24.636719 Z M 28.328125 24.636719 "/>
<path style=" stroke:none;fill-rule:nonzero;fill:rgb(80%,80%,80%);fill-opacity:1;" d="M 11.089844 6.507812 L 24.664062 6.507812 L 24.664062 15.636719 L 11.089844 15.636719 Z M 11.089844 6.507812 "/>
<path style=" stroke:none;fill-rule:nonzero;fill:rgb(80%,80%,80%);fill-opacity:1;" d="M 12.101562 7.40625 L 23.648438 7.40625 L 23.648438 15.636719 L 12.101562 15.636719 Z M 12.101562 7.40625 "/>
</g>
</svg>
