<?xml version="1.0" encoding="UTF-8"?>
<svg xmlns="http://www.w3.org/2000/svg" xmlns:xlink="http://www.w3.org/1999/xlink" width="36pt" height="36pt" viewBox="0 0 36 36" version="1.1">
<g id="surface1">
<path style=" stroke:none;fill-rule:evenodd;fill:rgb(76.078431%,20.784314%,16.470588%);fill-opacity:1;" d="M 2.136719 18.589844 L 2.136719 27.589844 C 2.136719 31.066406 4.933594 33.863281 8.410156 33.863281 L 27.59375 33.863281 C 31.066406 33.863281 33.863281 31.066406 33.863281 27.589844 L 33.863281 18.589844 Z M 2.136719 18.589844 "/>
<path style=" stroke:none;fill-rule:evenodd;fill:rgb(43.529412%,73.333333%,20.392157%);fill-opacity:1;" d="M 2.136719 18.589844 L 33.863281 18.589844 L 33.863281 8.40625 C 33.863281 4.933594 31.066406 2.136719 27.59375 2.136719 L 8.410156 2.136719 C 4.933594 2.136719 2.136719 4.933594 2.136719 8.40625 Z M 2.136719 18.589844 "/>
<path style=" stroke:none;fill-rule:nonzero;fill:rgb(100%,100%,100%);fill-opacity:1;" d="M 18 4.113281 L 20.25 8.050781 L 24.75 8.667969 L 21.375 11.988281 L 22.171875 16.488281 L 18 14.238281 L 13.828125 16.488281 L 14.625 11.988281 L 11.25 8.667969 L 15.75 8.050781 Z M 18 4.113281 "/>
<path style=" stroke:none;fill-rule:nonzero;fill:rgb(0%,0%,0%);fill-opacity:1;" d="M 16.144531 20.84375 L 17.382812 25.789062 L 12.433594 24.550781 L 12.433594 28.261719 L 17.382812 27.027344 L 16.144531 31.972656 L 19.855469 31.972656 L 18.617188 27.027344 L 23.566406 28.261719 L 23.566406 24.550781 L 18.617188 25.789062 L 19.855469 20.84375 Z M 16.144531 20.84375 "/>
</g>
</svg>
