<?xml version="1.0" encoding="UTF-8"?>
<svg xmlns="http://www.w3.org/2000/svg" xmlns:xlink="http://www.w3.org/1999/xlink" width="36pt" height="36pt" viewBox="0 0 36 36" version="1.1">
<g id="surface1">
<path style=" stroke:none;fill-rule:evenodd;fill:rgb(71.764706%,40.392157%,15.686275%);fill-opacity:1;" d="M 8.40625 2.136719 L 27.59375 2.136719 C 31.054688 2.136719 33.863281 4.945312 33.863281 8.40625 L 33.863281 27.59375 C 33.863281 31.054688 31.054688 33.863281 27.59375 33.863281 L 8.40625 33.863281 C 4.945312 33.863281 2.136719 31.054688 2.136719 27.59375 L 2.136719 8.40625 C 2.136719 4.945312 4.945312 2.136719 8.40625 2.136719 Z M 8.40625 2.136719 "/>
<path style=" stroke:none;fill-rule:nonzero;fill:rgb(30.196078%,30.196078%,30.196078%);fill-opacity:1;" d="M 8.546875 5.683594 L 27.453125 5.683594 C 29.035156 5.683594 30.316406 6.964844 30.316406 8.546875 L 30.316406 27.453125 C 30.316406 29.035156 29.035156 30.316406 27.453125 30.316406 L 8.546875 30.316406 C 6.964844 30.316406 5.683594 29.035156 5.683594 27.453125 L 5.683594 8.546875 C 5.683594 6.964844 6.964844 5.683594 8.546875 5.683594 Z M 8.546875 5.683594 "/>
<path style=" stroke:none;fill-rule:nonzero;fill:rgb(80%,80%,80%);fill-opacity:1;" d="M 7.738281 8.761719 L 7.738281 9.789062 L 8.761719 9.789062 L 8.761719 15.949219 L 7.738281 15.949219 L 7.738281 16.972656 L 12.867188 16.972656 L 12.867188 15.949219 L 13.894531 15.949219 L 13.894531 9.789062 L 12.867188 9.789062 L 12.867188 8.761719 Z M 15.949219 8.761719 L 15.949219 9.789062 L 14.921875 9.789062 L 14.921875 15.949219 L 15.949219 15.949219 L 15.949219 16.972656 L 20.050781 16.972656 L 20.050781 15.949219 L 21.078125 15.949219 L 21.078125 9.789062 L 20.050781 9.789062 L 20.050781 8.761719 Z M 23.132812 8.761719 L 23.132812 9.789062 L 22.105469 9.789062 L 22.105469 11.84375 L 23.132812 11.84375 L 23.132812 12.867188 L 25.183594 12.867188 L 25.183594 13.894531 L 26.210938 13.894531 L 26.210938 15.949219 L 24.15625 15.949219 L 24.15625 13.894531 L 22.105469 13.894531 L 22.105469 15.949219 L 23.132812 15.949219 L 23.132812 16.972656 L 27.238281 16.972656 L 27.238281 15.949219 L 28.261719 15.949219 L 28.261719 13.894531 L 27.238281 13.894531 L 27.238281 12.867188 L 26.210938 12.867188 L 26.210938 11.84375 L 24.15625 11.84375 L 24.15625 9.789062 L 26.210938 9.789062 L 26.210938 11.84375 L 28.261719 11.84375 L 28.261719 9.789062 L 27.238281 9.789062 L 27.238281 8.761719 Z M 10.816406 9.789062 L 11.84375 9.789062 L 11.84375 15.949219 L 10.816406 15.949219 Z M 16.972656 9.789062 L 19.027344 9.789062 L 19.027344 15.949219 L 16.972656 15.949219 Z M 7.738281 19.027344 L 7.738281 20.050781 L 8.761719 20.050781 L 8.761719 26.210938 L 7.738281 26.210938 L 7.738281 27.238281 L 12.867188 27.238281 L 12.867188 26.210938 L 13.894531 26.210938 L 13.894531 23.132812 L 12.867188 23.132812 L 12.867188 22.105469 L 13.894531 22.105469 L 13.894531 20.050781 L 12.867188 20.050781 L 12.867188 19.027344 Z M 15.949219 19.027344 L 15.949219 20.050781 L 14.921875 20.050781 L 14.921875 26.210938 L 15.949219 26.210938 L 15.949219 27.238281 L 20.050781 27.238281 L 20.050781 26.210938 L 21.078125 26.210938 L 21.078125 20.050781 L 20.050781 20.050781 L 20.050781 19.027344 Z M 21.078125 19.027344 L 21.078125 20.050781 L 22.105469 20.050781 L 22.105469 22.105469 L 23.132812 22.105469 L 23.132812 24.15625 L 22.105469 24.15625 L 22.105469 26.210938 L 21.078125 26.210938 L 21.078125 27.238281 L 23.132812 27.238281 L 23.132812 26.210938 L 24.15625 26.210938 L 24.15625 25.183594 L 25.183594 25.183594 L 25.183594 26.210938 L 26.210938 26.210938 L 26.210938 27.238281 L 28.261719 27.238281 L 28.261719 26.210938 L 27.238281 26.210938 L 27.238281 24.15625 L 26.210938 24.15625 L 26.210938 22.105469 L 27.238281 22.105469 L 27.238281 20.050781 L 28.261719 20.050781 L 28.261719 19.027344 L 26.210938 19.027344 L 26.210938 20.050781 L 25.183594 20.050781 L 25.183594 21.078125 L 24.15625 21.078125 L 24.15625 20.050781 L 23.132812 20.050781 L 23.132812 19.027344 Z M 10.816406 20.050781 L 11.84375 20.050781 L 11.84375 22.105469 L 10.816406 22.105469 Z M 16.972656 20.050781 L 19.027344 20.050781 L 19.027344 26.210938 L 16.972656 26.210938 Z M 10.816406 23.132812 L 11.84375 23.132812 L 11.84375 26.210938 L 10.816406 26.210938 Z M 10.816406 23.132812 "/>
</g>
</svg>
