<?xml version="1.0" encoding="UTF-8"?>
<svg xmlns="http://www.w3.org/2000/svg" xmlns:xlink="http://www.w3.org/1999/xlink" width="36pt" height="36pt" viewBox="0 0 36 36" version="1.1">
<defs>
<clipPath id="clip1">
  <rect width="36" height="36"/>
</clipPath>
<g id="surface6" clip-path="url(#clip1)">
<path style=" stroke:none;fill-rule:nonzero;fill:rgb(100%,100%,100%);fill-opacity:1;" d="M 19.921875 5.804688 L 15.734375 5.875 L 14.886719 6.515625 L 14.953125 6.585938 L 12.1875 6.65625 L 12.402344 6.375 L 6.085938 6.230469 L 6.015625 6.65625 L 5.945312 7.296875 L 6.371094 8.082031 L 6.160156 9.71875 L 5.800781 11.140625 L 6.015625 12.492188 L 6.085938 13.558594 L 6.511719 14.980469 L 6.371094 15.695312 L 6.441406 16.476562 L 6.9375 17.046875 L 7.078125 17.96875 L 6.160156 18.324219 L 6.300781 21.171875 L 6.867188 21.601562 L 6.511719 24.089844 L 6.226562 24.230469 L 6.015625 29 L 6.265625 28.964844 L 6.867188 29.089844 C 6.867188 29.089844 7.597656 29.34375 7.746094 29.394531 C 7.898438 29.445312 8.121094 29.167969 8.121094 29.167969 L 8.722656 29.167969 L 9.226562 29.066406 L 9.503906 29.191406 L 9.753906 29.167969 L 10.382812 29.117188 L 10.679688 28.992188 L 10.808594 29.292969 L 10.90625 29.21875 L 11.183594 29.089844 L 11.761719 29.039062 L 11.882812 29.21875 C 11.882812 29.21875 12.585938 29.292969 12.835938 29.292969 C 13.089844 29.292969 13.039062 29.089844 13.039062 29.089844 C 13.039062 29.089844 13.113281 29.066406 13.238281 29.191406 C 13.363281 29.316406 13.542969 29.140625 13.542969 29.140625 L 13.792969 29.015625 L 13.96875 29.191406 L 14.144531 29.316406 L 14.621094 29.21875 L 15.398438 29.21875 L 15.574219 29.167969 L 16.300781 30.199219 L 16.347656 29.671875 L 17.527344 29.671875 C 17.628906 29.671875 17.582031 30.023438 17.582031 30.023438 L 18.355469 29.769531 L 18.757812 30.171875 L 19.585938 29.644531 L 20.039062 29.566406 L 20.917969 29.519531 L 22.171875 29.519531 L 23.601562 29.621094 L 23.976562 29.46875 L 24.25 29.21875 L 25.003906 29.644531 L 25.558594 29.417969 C 25.558594 29.417969 26.160156 29.648438 26.261719 29.671875 C 26.359375 29.699219 27.289062 29.566406 27.289062 29.566406 L 27.863281 29.417969 L 27.488281 29.140625 L 27.738281 29.039062 L 28.792969 29.089844 L 30.199219 29.445312 L 30.171875 20.261719 L 30.171875 19.683594 L 29.824219 19.734375 L 29.371094 19.808594 L 29.371094 19.53125 L 29.621094 19.304688 L 29.824219 19.003906 L 29.871094 17.921875 L 29.796875 17.140625 L 29.46875 16.183594 L 29.171875 15.785156 L 29.121094 15.40625 L 29.195312 15.15625 L 29.21875 15.082031 L 29.546875 14.953125 L 29.597656 14.824219 L 29.347656 14.398438 L 29.574219 14.269531 L 29.925781 14.054688 L 30.066406 12.777344 L 30.140625 11.921875 L 30.140625 8.933594 L 29.925781 8.078125 L 30.066406 7.15625 L 30.140625 6.796875 L 29.5 6.511719 L 27.089844 6.085938 L 26.730469 6.585938 L 26.589844 6.015625 L 21.980469 5.941406 L 21.835938 6.726562 L 20.703125 6.867188 L 20.558594 6.371094 L 19.566406 6.230469 L 19.921875 5.800781 Z M 19.921875 5.804688 "/>
</g>
<clipPath id="clip2">
  <rect width="36" height="36"/>
</clipPath>
<g id="surface9" clip-path="url(#clip2)">
<path style=" stroke:none;fill-rule:nonzero;fill:rgb(76.078431%,20.784314%,16.470588%);fill-opacity:1;" d="M 23.226562 9.722656 L 19.742188 11.464844 L 24.96875 14.949219 L 24.96875 11.464844 Z M 11.03125 10.59375 L 8.417969 11.464844 L 23.226562 26.277344 L 25.839844 26.277344 L 27.582031 21.921875 Z M 9.289062 20.179688 L 8.417969 24.535156 L 10.160156 26.277344 L 11.902344 26.277344 L 14.515625 25.40625 Z M 9.289062 20.179688 "/>
</g>
</defs>
<g id="surface1">
<path style=" stroke:none;fill-rule:evenodd;fill:rgb(76.078431%,20.784314%,16.470588%);fill-opacity:1;" d="M 8.40625 2.136719 L 27.59375 2.136719 C 31.054688 2.136719 33.863281 4.945312 33.863281 8.40625 L 33.863281 27.59375 C 33.863281 31.054688 31.054688 33.863281 27.59375 33.863281 L 8.40625 33.863281 C 4.945312 33.863281 2.136719 31.054688 2.136719 27.59375 L 2.136719 8.40625 C 2.136719 4.945312 4.945312 2.136719 8.40625 2.136719 Z M 8.40625 2.136719 "/>
<use xlink:href="#surface6"/>
<use xlink:href="#surface9"/>
</g>
</svg>
