<?xml version="1.0" encoding="UTF-8"?>
<svg xmlns="http://www.w3.org/2000/svg" xmlns:xlink="http://www.w3.org/1999/xlink" width="36pt" height="36pt" viewBox="0 0 36 36" version="1.1">
<g id="surface1">
<path style=" stroke:none;fill-rule:evenodd;fill:rgb(85.098039%,34.901961%,31.764706%);fill-opacity:1;" d="M 8.40625 2.136719 L 27.59375 2.136719 C 31.054688 2.136719 33.863281 4.945312 33.863281 8.40625 L 33.863281 27.59375 C 33.863281 31.054688 31.054688 33.863281 27.59375 33.863281 L 8.40625 33.863281 C 4.945312 33.863281 2.136719 31.054688 2.136719 27.59375 L 2.136719 8.40625 C 2.136719 4.945312 4.945312 2.136719 8.40625 2.136719 Z M 8.40625 2.136719 "/>
<path style=" stroke:none;fill-rule:nonzero;fill:rgb(100%,100%,100%);fill-opacity:1;" d="M 6.890625 8.742188 L 6.890625 12.445312 L 11.425781 12.445312 C 11.84375 12.445312 12.445312 12.953125 12.445312 13.371094 L 12.445312 22.628906 C 12.445312 23.046875 11.84375 23.578125 11.425781 23.554688 L 6.890625 23.554688 L 6.890625 27.257812 L 14.824219 27.257812 C 15.558594 27.257812 16.148438 26.667969 16.148438 25.933594 L 16.148438 10.066406 C 16.148438 9.332031 15.558594 8.742188 14.824219 8.742188 Z M 6.890625 8.742188 "/>
<path style=" stroke:none;fill-rule:nonzero;fill:rgb(100%,100%,100%);fill-opacity:1;" d="M 29.109375 8.742188 L 29.109375 12.445312 L 24.574219 12.445312 C 24.15625 12.445312 23.554688 12.953125 23.554688 13.371094 L 23.554688 22.628906 C 23.554688 23.046875 24.15625 23.578125 24.574219 23.554688 L 29.109375 23.554688 L 29.109375 27.257812 L 21.175781 27.257812 C 20.441406 27.257812 19.851562 26.667969 19.851562 25.933594 L 19.851562 10.066406 C 19.851562 9.332031 20.441406 8.742188 21.175781 8.742188 Z M 29.109375 8.742188 "/>
</g>
</svg>
