<?xml version="1.0" encoding="UTF-8"?>
<svg xmlns="http://www.w3.org/2000/svg" xmlns:xlink="http://www.w3.org/1999/xlink" width="36pt" height="36pt" viewBox="0 0 36 36" version="1.1">
<g id="surface1">
<path style=" stroke:none;fill-rule:evenodd;fill:rgb(41.176471%,61.568627%,22.352941%);fill-opacity:1;" d="M 8.40625 2.136719 L 27.59375 2.136719 C 31.054688 2.136719 33.863281 4.945312 33.863281 8.40625 L 33.863281 27.59375 C 33.863281 31.054688 31.054688 33.863281 27.59375 33.863281 L 8.40625 33.863281 C 4.945312 33.863281 2.136719 31.054688 2.136719 27.59375 L 2.136719 8.40625 C 2.136719 4.945312 4.945312 2.136719 8.40625 2.136719 Z M 8.40625 2.136719 "/>
<path style=" stroke:none;fill-rule:evenodd;fill:rgb(41.176471%,61.568627%,22.352941%);fill-opacity:1;" d="M 33.863281 16.910156 C 31.5625 16.464844 29.261719 16.035156 26.957031 15.824219 C 23.976562 15.554688 20.996094 15.464844 18.011719 15.519531 C 15.03125 15.574219 12.050781 15.769531 9.066406 16.070312 C 6.757812 16.300781 4.445312 16.632812 2.136719 16.96875 L 2.136719 27.59375 C 2.136719 31.066406 4.933594 33.863281 8.40625 33.863281 L 27.59375 33.863281 C 31.066406 33.863281 33.863281 31.066406 33.863281 27.59375 Z M 33.863281 16.910156 "/>
<path style=" stroke:none;fill-rule:evenodd;fill:rgb(56.470588%,74.509804%,40.392157%);fill-opacity:1;" d="M 8.40625 2.136719 C 4.933594 2.136719 2.136719 4.933594 2.136719 8.40625 L 2.136719 16.96875 C 4.445312 16.632812 6.757812 16.300781 9.066406 16.070312 C 12.050781 15.769531 15.03125 15.574219 18.011719 15.519531 C 20.996094 15.464844 23.976562 15.554688 26.957031 15.824219 C 29.261719 16.035156 31.5625 16.464844 33.863281 16.910156 L 33.863281 8.40625 C 33.863281 4.933594 31.066406 2.136719 27.59375 2.136719 Z M 8.40625 2.136719 "/>
<path style=" stroke:none;fill-rule:nonzero;fill:rgb(100%,100%,100%);fill-opacity:1;" d="M 17.949219 7.859375 C 29.894531 16.625 23.921875 12.242188 17.949219 7.859375 Z M 12.785156 21.117188 C 13.128906 20.972656 13.742188 20.558594 14.144531 20.191406 C 14.808594 19.589844 14.898438 19.554688 15.054688 19.835938 C 15.4375 20.519531 16.304688 21.347656 16.640625 21.347656 C 17.0625 21.347656 19.222656 19.503906 19.222656 19.140625 C 19.222656 19.003906 19.007812 18.5625 18.742188 18.164062 L 18.261719 17.4375 C 18.054688 14.953125 18.445312 9.730469 17.460938 8.128906 C 16.210938 6.417969 14.109375 6.214844 12.835938 6.222656 C 9.484375 6.242188 7.667969 7.367188 7.003906 9.832031 C 6.785156 10.652344 6.917969 10.765625 8.277344 10.917969 C 8.851562 10.980469 9.5 11.078125 9.71875 11.132812 C 10.0625 11.21875 10.167969 11.121094 10.460938 10.4375 C 10.679688 9.929688 10.992188 9.542969 11.328125 9.371094 C 11.941406 9.054688 12.964844 9.015625 13.472656 9.285156 C 13.917969 9.523438 14.324219 10.472656 14.324219 11.265625 L 14.324219 11.871094 L 13.316406 11.988281 C 11.609375 12.1875 9.734375 12.609375 9.082031 12.945312 C 8.273438 13.359375 7.253906 14.390625 6.855469 15.195312 C 6.625 15.660156 6.539062 16.238281 6.535156 17.324219 C 6.535156 18.585938 6.601562 18.925781 6.972656 19.582031 C 7.773438 20.996094 8.992188 21.574219 10.921875 21.453125 C 11.601562 21.414062 12.441406 21.261719 12.785156 21.117188 Z M 11.042969 18.453125 C 10.5 18.074219 10.234375 16.980469 10.472656 16.101562 C 10.773438 14.980469 12.164062 14.191406 13.859375 14.175781 L 14.359375 14.171875 L 14.292969 15.441406 C 14.25 16.195312 14.085938 16.984375 13.890625 17.386719 C 13.324219 18.554688 11.933594 19.078125 11.042969 18.453125 Z M 11.042969 18.453125 "/>
<path style=" stroke:none;fill-rule:evenodd;fill:rgb(100%,100%,100%);fill-opacity:1;" d="M 5.371094 23.726562 L 13 23.726562 C 13.082031 23.726562 13.144531 23.769531 13.144531 23.828125 L 13.144531 25.179688 C 13.144531 25.234375 13.082031 25.277344 13 25.277344 L 5.371094 25.277344 C 5.292969 25.277344 5.226562 25.234375 5.226562 25.179688 L 5.226562 23.828125 C 5.226562 23.769531 5.292969 23.726562 5.371094 23.726562 Z M 5.371094 23.726562 "/>
<path style=" stroke:none;fill-rule:evenodd;fill:rgb(100%,100%,100%);fill-opacity:1;" d="M 5.371094 26.070312 L 13 26.070312 C 13.082031 26.070312 13.144531 26.113281 13.144531 26.167969 L 13.144531 27.519531 C 13.144531 27.578125 13.082031 27.621094 13 27.621094 L 5.371094 27.621094 C 5.292969 27.621094 5.226562 27.578125 5.226562 27.519531 L 5.226562 26.167969 C 5.226562 26.113281 5.292969 26.070312 5.371094 26.070312 Z M 5.371094 26.070312 "/>
<path style=" stroke:none;fill-rule:evenodd;fill:rgb(100%,100%,100%);fill-opacity:1;" d="M 5.371094 28.511719 L 13 28.511719 C 13.082031 28.511719 13.144531 28.554688 13.144531 28.613281 L 13.144531 29.964844 C 13.144531 30.019531 13.082031 30.066406 13 30.066406 L 5.371094 30.066406 C 5.292969 30.066406 5.226562 30.019531 5.226562 29.964844 L 5.226562 28.613281 C 5.226562 28.554688 5.292969 28.511719 5.371094 28.511719 Z M 5.371094 28.511719 "/>
<path style=" stroke:none;fill-rule:evenodd;fill:rgb(100%,100%,100%);fill-opacity:1;" d="M 14.023438 26.070312 L 21.652344 26.070312 C 21.734375 26.070312 21.796875 26.113281 21.796875 26.167969 L 21.796875 27.519531 C 21.796875 27.578125 21.734375 27.621094 21.652344 27.621094 L 14.023438 27.621094 C 13.941406 27.621094 13.878906 27.578125 13.878906 27.519531 L 13.878906 26.167969 C 13.878906 26.113281 13.941406 26.070312 14.023438 26.070312 Z M 14.023438 26.070312 "/>
<path style=" stroke:none;fill-rule:evenodd;fill:rgb(100%,100%,100%);fill-opacity:1;" d="M 14.023438 28.511719 L 21.652344 28.511719 C 21.734375 28.511719 21.796875 28.554688 21.796875 28.613281 L 21.796875 29.964844 C 21.796875 30.019531 21.734375 30.066406 21.652344 30.066406 L 14.023438 30.066406 C 13.941406 30.066406 13.878906 30.019531 13.878906 29.964844 L 13.878906 28.613281 C 13.878906 28.554688 13.941406 28.511719 14.023438 28.511719 Z M 14.023438 28.511719 "/>
<path style=" stroke:none;fill-rule:evenodd;fill:rgb(100%,100%,100%);fill-opacity:1;" d="M 22.746094 23.726562 L 30.375 23.726562 C 30.453125 23.726562 30.519531 23.769531 30.519531 23.828125 L 30.519531 25.179688 C 30.519531 25.234375 30.453125 25.277344 30.375 25.277344 L 22.746094 25.277344 C 22.664062 25.277344 22.601562 25.234375 22.601562 25.179688 L 22.601562 23.828125 C 22.601562 23.769531 22.664062 23.726562 22.746094 23.726562 Z M 22.746094 23.726562 "/>
<path style=" stroke:none;fill-rule:evenodd;fill:rgb(100%,100%,100%);fill-opacity:1;" d="M 22.746094 26.070312 L 30.375 26.070312 C 30.453125 26.070312 30.519531 26.113281 30.519531 26.167969 L 30.519531 27.519531 C 30.519531 27.578125 30.453125 27.621094 30.375 27.621094 L 22.746094 27.621094 C 22.664062 27.621094 22.601562 27.578125 22.601562 27.519531 L 22.601562 26.167969 C 22.601562 26.113281 22.664062 26.070312 22.746094 26.070312 Z M 22.746094 26.070312 "/>
<path style=" stroke:none;fill-rule:evenodd;fill:rgb(100%,100%,100%);fill-opacity:1;" d="M 22.746094 28.511719 L 30.375 28.511719 C 30.453125 28.511719 30.519531 28.554688 30.519531 28.613281 L 30.519531 29.964844 C 30.519531 30.019531 30.453125 30.066406 30.375 30.066406 L 22.746094 30.066406 C 22.664062 30.066406 22.601562 30.019531 22.601562 29.964844 L 22.601562 28.613281 C 22.601562 28.554688 22.664062 28.511719 22.746094 28.511719 Z M 22.746094 28.511719 "/>
<path style=" stroke:none;fill-rule:evenodd;fill:rgb(100%,100%,100%);fill-opacity:1;" d="M 22.746094 21.367188 L 30.375 21.367188 C 30.453125 21.367188 30.519531 21.414062 30.519531 21.46875 L 30.519531 22.820312 C 30.519531 22.878906 30.453125 22.921875 30.375 22.921875 L 22.746094 22.921875 C 22.664062 22.921875 22.601562 22.878906 22.601562 22.820312 L 22.601562 21.46875 C 22.601562 21.414062 22.664062 21.367188 22.746094 21.367188 Z M 22.746094 21.367188 "/>
</g>
</svg>
