<?xml version="1.0" encoding="UTF-8"?>
<svg xmlns="http://www.w3.org/2000/svg" xmlns:xlink="http://www.w3.org/1999/xlink" width="36pt" height="36pt" viewBox="0 0 36 36" version="1.1">
<g id="surface1">
<path style=" stroke:none;fill-rule:evenodd;fill:rgb(49.411765%,76.078431%,25.882353%);fill-opacity:1;" d="M 8.40625 2.136719 L 27.59375 2.136719 C 31.054688 2.136719 33.863281 4.945312 33.863281 8.40625 L 33.863281 27.59375 C 33.863281 31.054688 31.054688 33.863281 27.59375 33.863281 L 8.40625 33.863281 C 4.945312 33.863281 2.136719 31.054688 2.136719 27.59375 L 2.136719 8.40625 C 2.136719 4.945312 4.945312 2.136719 8.40625 2.136719 Z M 8.40625 2.136719 "/>
<path style=" stroke:none;fill-rule:nonzero;fill:rgb(75.294118%,100%,53.333333%);fill-opacity:1;" d="M 25.859375 28.480469 L 25.859375 17.125 L 29.351562 17.125 L 29.351562 7.78125 C 29.351562 7.152344 28.847656 6.648438 28.21875 6.648438 L 7.78125 6.648438 C 7.152344 6.648438 6.648438 7.152344 6.648438 7.78125 L 6.648438 17.125 L 10.140625 17.125 L 10.140625 28.480469 C 10.140625 29.109375 10.386719 29.351562 11.015625 29.351562 L 24.984375 29.351562 C 25.613281 29.351562 25.859375 29.109375 25.859375 28.480469 Z M 25.859375 28.480469 "/>
</g>
</svg>
