<?xml version="1.0" encoding="UTF-8"?>
<svg xmlns="http://www.w3.org/2000/svg" xmlns:xlink="http://www.w3.org/1999/xlink" width="36pt" height="36pt" viewBox="0 0 36 36" version="1.1">
<g id="surface1">
<path style=" stroke:none;fill-rule:evenodd;fill:rgb(41.176471%,77.254902%,38.039216%);fill-opacity:1;" d="M 8.40625 2.136719 L 27.59375 2.136719 C 31.054688 2.136719 33.863281 4.945312 33.863281 8.40625 L 33.863281 27.59375 C 33.863281 31.054688 31.054688 33.863281 27.59375 33.863281 L 8.40625 33.863281 C 4.945312 33.863281 2.136719 31.054688 2.136719 27.59375 L 2.136719 8.40625 C 2.136719 4.945312 4.945312 2.136719 8.40625 2.136719 Z M 8.40625 2.136719 "/>
<path style=" stroke:none;fill-rule:nonzero;fill:rgb(30.980392%,30.980392%,30.980392%);fill-opacity:1;" d="M 26.816406 7.65625 L 14.820312 10.421875 C 13.128906 10.636719 13.195312 12.367188 13.195312 12.367188 L 13.195312 19.746094 C 12.804688 19.632812 12.398438 19.578125 11.992188 19.574219 C 9.558594 19.574219 7.585938 21.546875 7.585938 23.980469 C 7.585938 26.414062 9.558594 28.386719 11.992188 28.386719 C 14.269531 28.382812 16.171875 26.648438 16.378906 24.378906 L 16.398438 24.378906 L 16.398438 13.292969 L 25.207031 11.199219 L 25.207031 17.34375 C 24.816406 17.230469 24.414062 17.171875 24.007812 17.171875 C 21.574219 17.171875 19.601562 19.144531 19.601562 21.578125 C 19.601562 24.011719 21.574219 25.980469 24.007812 25.980469 C 26.285156 25.980469 28.183594 24.246094 28.390625 21.976562 L 28.414062 21.976562 L 28.414062 9.164062 C 28.414062 9.164062 28.433594 7.316406 26.816406 7.65625 Z M 26.816406 7.65625 "/>
<path style=" stroke:none;fill-rule:nonzero;fill:rgb(100%,100%,100%);fill-opacity:1;" d="M 31.589844 25.601562 C 31.589844 28.710938 29.074219 31.226562 25.964844 31.226562 C 22.859375 31.226562 20.339844 28.710938 20.339844 25.601562 C 20.339844 22.496094 22.859375 19.976562 25.964844 19.976562 C 29.074219 19.976562 31.589844 22.496094 31.589844 25.601562 Z M 31.589844 25.601562 "/>
<path style=" stroke:none;fill-rule:nonzero;fill:rgb(41.176471%,77.254902%,38.039216%);fill-opacity:1;" d="M 25.964844 24.195312 L 26.667969 24.195312 L 26.667969 28.414062 L 25.964844 28.414062 Z M 25.964844 24.195312 "/>
<path style=" stroke:none;fill-rule:nonzero;fill:rgb(41.176471%,77.254902%,38.039216%);fill-opacity:1;" d="M 27.371094 22.789062 L 28.074219 22.789062 L 28.074219 28.414062 L 27.371094 28.414062 Z M 27.371094 22.789062 "/>
<path style=" stroke:none;fill-rule:nonzero;fill:rgb(41.176471%,77.254902%,38.039216%);fill-opacity:1;" d="M 24.558594 25.601562 L 25.261719 25.601562 L 25.261719 28.414062 L 24.558594 28.414062 Z M 24.558594 25.601562 "/>
<path style=" stroke:none;fill-rule:nonzero;fill:rgb(41.176471%,77.254902%,38.039216%);fill-opacity:1;" d="M 23.152344 27.007812 L 23.855469 27.007812 L 23.855469 28.414062 L 23.152344 28.414062 Z M 23.152344 27.007812 "/>
</g>
</svg>
