<?xml version="1.0" encoding="UTF-8"?>
<svg xmlns="http://www.w3.org/2000/svg" xmlns:xlink="http://www.w3.org/1999/xlink" width="36pt" height="36pt" viewBox="0 0 36 36" version="1.1">
<g id="surface1">
<path style=" stroke:none;fill-rule:evenodd;fill:rgb(26.27451%,27.843137%,86.27451%);fill-opacity:1;" d="M 8.40625 2.136719 L 27.59375 2.136719 C 31.054688 2.136719 33.863281 4.945312 33.863281 8.40625 L 33.863281 27.59375 C 33.863281 31.054688 31.054688 33.863281 27.59375 33.863281 L 8.40625 33.863281 C 4.945312 33.863281 2.136719 31.054688 2.136719 27.59375 L 2.136719 8.40625 C 2.136719 4.945312 4.945312 2.136719 8.40625 2.136719 Z M 8.40625 2.136719 "/>
<path style="fill:none;stroke-width:2;stroke-linecap:butt;stroke-linejoin:miter;stroke:rgb(50.588235%,100%,52.54902%);stroke-opacity:1;stroke-miterlimit:4;" d="M 10.975694 15.100694 C 18.232639 12.274306 25.506944 15.420139 24.989583 21.017361 C 24.805556 23.020833 21.878472 24.243056 19.795139 23.989583 C 16.25 23.555556 13.0625 19.618056 11.729167 17.131944 C 10.159722 14.211806 10.847222 7.211806 15.274306 7 C 18.388889 7.215278 19.392361 10.350694 19.788194 12.229167 C 21.357639 19.6875 13.017361 27.84375 8.336806 24.045139 C 5.274306 21.5625 7.868056 16.381944 10.975694 15.100694 Z M 10.975694 15.100694 " transform="matrix(1.125,0,0,1.125,0,0)"/>
</g>
</svg>
