<?xml version="1.0" encoding="UTF-8"?>
<svg xmlns="http://www.w3.org/2000/svg" xmlns:xlink="http://www.w3.org/1999/xlink" width="36pt" height="36pt" viewBox="0 0 36 36" version="1.1">
<g id="surface1">
<path style=" stroke:none;fill-rule:evenodd;fill:rgb(69.019608%,90.980392%,98.431373%);fill-opacity:1;" d="M 8.40625 2.136719 L 27.59375 2.136719 C 31.054688 2.136719 33.863281 4.945312 33.863281 8.40625 L 33.863281 27.59375 C 33.863281 31.054688 31.054688 33.863281 27.59375 33.863281 L 8.40625 33.863281 C 4.945312 33.863281 2.136719 31.054688 2.136719 27.59375 L 2.136719 8.40625 C 2.136719 4.945312 4.945312 2.136719 8.40625 2.136719 Z M 8.40625 2.136719 "/>
<path style=" stroke:none;fill-rule:nonzero;fill:rgb(34.901961%,66.666667%,80%);fill-opacity:1;" d="M 11.25 16.3125 C 11.25 18.175781 9.738281 19.6875 7.875 19.6875 C 6.011719 19.6875 4.5 18.175781 4.5 16.3125 C 4.5 14.449219 6.011719 12.9375 7.875 12.9375 C 9.738281 12.9375 11.25 14.449219 11.25 16.3125 Z M 11.25 16.3125 "/>
<path style=" stroke:none;fill-rule:nonzero;fill:rgb(34.901961%,66.666667%,80%);fill-opacity:1;" d="M 31.5 16.3125 C 31.5 18.175781 29.988281 19.6875 28.125 19.6875 C 26.261719 19.6875 24.75 18.175781 24.75 16.3125 C 24.75 14.449219 26.261719 12.9375 28.125 12.9375 C 29.988281 12.9375 31.5 14.449219 31.5 16.3125 Z M 31.5 16.3125 "/>
<path style=" stroke:none;fill-rule:nonzero;fill:rgb(34.901961%,66.666667%,80%);fill-opacity:1;" d="M 23.90625 20.351562 C 23.90625 21.847656 21.261719 23.0625 18 23.0625 C 14.738281 23.0625 12.09375 21.847656 12.09375 20.351562 C 12.09375 18.855469 14.738281 20.351562 18 20.351562 C 21.261719 20.351562 23.90625 18.855469 23.90625 20.351562 Z M 23.90625 20.351562 "/>
<path style=" stroke:none;fill-rule:nonzero;fill:rgb(100%,100%,100%);fill-opacity:1;" d="M 10.40625 15.46875 C 10.40625 15.933594 10.027344 16.3125 9.5625 16.3125 C 9.097656 16.3125 8.71875 15.933594 8.71875 15.46875 C 8.71875 15.003906 9.097656 14.625 9.5625 14.625 C 10.027344 14.625 10.40625 15.003906 10.40625 15.46875 Z M 10.40625 15.46875 "/>
<path style=" stroke:none;fill-rule:nonzero;fill:rgb(100%,100%,100%);fill-opacity:1;" d="M 30.65625 15.46875 C 30.65625 15.933594 30.277344 16.3125 29.8125 16.3125 C 29.347656 16.3125 28.96875 15.933594 28.96875 15.46875 C 28.96875 15.003906 29.347656 14.625 29.8125 14.625 C 30.277344 14.625 30.65625 15.003906 30.65625 15.46875 Z M 30.65625 15.46875 "/>
</g>
</svg>
