<?xml version="1.0" encoding="UTF-8"?>
<svg xmlns="http://www.w3.org/2000/svg" xmlns:xlink="http://www.w3.org/1999/xlink" width="36pt" height="36pt" viewBox="0 0 36 36" version="1.1">
<defs>
<clipPath id="clip1">
  <rect width="36" height="36"/>
</clipPath>
<g id="surface6" clip-path="url(#clip1)">
<path style=" stroke:none;fill-rule:nonzero;fill:rgb(100%,100%,100%);fill-opacity:1;" d="M 11.855469 27.214844 C 11.855469 27.214844 13.0625 27.566406 14.667969 27.765625 C 15.320312 27.847656 17.792969 28.132812 19.691406 28.125 C 19.691406 28.125 22.003906 28.128906 23.28125 27.945312 C 24.617188 27.757812 25.375 27.515625 25.792969 27.03125 C 25.804688 26.917969 25.996094 26.539062 25.476562 26.179688 C 24.152344 25.253906 22.4375 25 19.105469 24.207031 C 15.417969 23.28125 14.316406 22.394531 13.765625 21.753906 C 13.246094 21.109375 13.867188 19.773438 16.835938 19.117188 C 18.335938 18.75 23.9375 18.683594 23.9375 18.683594 C 22.332031 17.410156 19.316406 15.125 18.699219 14.640625 C 18.15625 14.214844 17.285156 13.558594 17.191406 12.976562 C 17.066406 12.40625 17.960938 12.132812 18.433594 12.101562 C 19.960938 11.996094 22.046875 12.175781 23.898438 12.542969 C 24.832031 12.730469 24.996094 12.703125 24.996094 12.703125 C 26.320312 12.765625 27.351562 12.070312 27.300781 10.609375 C 27.289062 9.125 25.804688 7.933594 24.164062 7.882812 C 22.617188 7.832031 18.804688 8.101562 18.804688 8.101562 C 23.246094 9.019531 23.972656 9.25 24.203125 9.785156 C 24.34375 10.101562 23.976562 10.417969 22.753906 10.355469 C 21.417969 10.289062 18.6875 9.964844 18.6875 9.964844 C 16.085938 9.566406 14.277344 9.1875 13.488281 10.21875 C 12.972656 10.890625 13.558594 11.714844 13.792969 12.199219 C 14.824219 13.996094 16.609375 15.234375 17.738281 16.101562 C 18.167969 16.429688 19.464844 17.15625 19.464844 17.15625 C 15.425781 16.050781 12.203125 16.671875 10.160156 17.746094 C 7.8125 19.136719 8.214844 21.480469 11.9375 23.671875 C 14.140625 24.96875 15.234375 25.589844 18.835938 26.03125 C 20.945312 26.367188 21.257812 26.503906 21.242188 26.679688 C 21.21875 26.925781 18.75 27.019531 18.070312 27.066406 C 16.34375 27.1875 11.875 27.214844 11.855469 27.214844 Z M 11.855469 27.214844 "/>
</g>
</defs>
<g id="surface1">
<path style=" stroke:none;fill-rule:evenodd;fill:rgb(45.882353%,44.705882%,72.156863%);fill-opacity:0.992157;" d="M 8.40625 2.136719 L 27.59375 2.136719 C 31.054688 2.136719 33.863281 4.945312 33.863281 8.40625 L 33.863281 27.59375 C 33.863281 31.054688 31.054688 33.863281 27.59375 33.863281 L 8.40625 33.863281 C 4.945312 33.863281 2.136719 31.054688 2.136719 27.59375 L 2.136719 8.40625 C 2.136719 4.945312 4.945312 2.136719 8.40625 2.136719 Z M 8.40625 2.136719 "/>
<use xlink:href="#surface6"/>
</g>
</svg>
