<?xml version="1.0" encoding="UTF-8"?>
<svg xmlns="http://www.w3.org/2000/svg" xmlns:xlink="http://www.w3.org/1999/xlink" width="36pt" height="36pt" viewBox="0 0 36 36" version="1.1">
<g id="surface1">
<path style=" stroke:none;fill-rule:evenodd;fill:rgb(37.254902%,72.54902%,63.137255%);fill-opacity:1;" d="M 8.40625 2.136719 L 27.59375 2.136719 C 31.054688 2.136719 33.863281 4.945312 33.863281 8.40625 L 33.863281 27.59375 C 33.863281 31.054688 31.054688 33.863281 27.59375 33.863281 L 8.40625 33.863281 C 4.945312 33.863281 2.136719 31.054688 2.136719 27.59375 L 2.136719 8.40625 C 2.136719 4.945312 4.945312 2.136719 8.40625 2.136719 Z M 8.40625 2.136719 "/>
<path style=" stroke:none;fill-rule:nonzero;fill:rgb(100%,100%,100%);fill-opacity:1;" d="M 12.511719 10.6875 C 12.179688 10.679688 11.859375 10.800781 11.621094 11.023438 C 11.382812 11.25 11.25 11.554688 11.25 11.875 L 11.25 24.128906 C 11.25 24.550781 11.484375 24.941406 11.867188 25.152344 C 12.246094 25.363281 12.71875 25.363281 13.097656 25.152344 L 18.617188 22.089844 L 24.132812 19.027344 C 24.515625 18.816406 24.75 18.421875 24.75 18 C 24.75 17.578125 24.515625 17.183594 24.132812 16.972656 L 18.617188 13.910156 L 13.097656 10.847656 C 12.921875 10.746094 12.71875 10.691406 12.511719 10.6875 Z M 12.511719 10.6875 "/>
</g>
</svg>
