<?xml version="1.0" encoding="UTF-8"?>
<svg xmlns="http://www.w3.org/2000/svg" xmlns:xlink="http://www.w3.org/1999/xlink" width="36pt" height="36pt" viewBox="0 0 36 36" version="1.1">
<g id="surface1">
<path style=" stroke:none;fill-rule:evenodd;fill:rgb(14.117647%,58.823529%,94.901961%);fill-opacity:1;" d="M 8.40625 2.136719 L 27.59375 2.136719 C 31.054688 2.136719 33.863281 4.945312 33.863281 8.40625 L 33.863281 27.59375 C 33.863281 31.054688 31.054688 33.863281 27.59375 33.863281 L 8.40625 33.863281 C 4.945312 33.863281 2.136719 31.054688 2.136719 27.59375 L 2.136719 8.40625 C 2.136719 4.945312 4.945312 2.136719 8.40625 2.136719 Z M 8.40625 2.136719 "/>
<path style=" stroke:none;fill-rule:nonzero;fill:rgb(100%,100%,100%);fill-opacity:1;" d="M 18 5.625 C 11.164062 5.625 5.625 11.164062 5.625 18 C 5.625 24.835938 11.164062 30.375 18 30.375 C 24.835938 30.375 30.375 24.835938 30.375 18 C 30.375 11.164062 24.835938 5.625 18 5.625 Z M 14.625 9 L 21.375 9 C 23.246094 9 24.75 10.527344 24.75 12.429688 L 24.75 14.144531 C 24.75 16.042969 23.246094 18 21.375 18 L 20.25 18 L 20.25 25.285156 C 20.25 26.234375 19.777344 27 18.84375 27 L 17.15625 27 C 16.222656 27 15.785156 26.234375 15.75 25.285156 L 15.75 18 L 14.625 18 C 12.753906 18 11.25 16.042969 11.25 14.144531 L 11.25 12.425781 C 11.25 10.527344 12.753906 9 14.625 9 Z M 14.625 9 "/>
</g>
</svg>
