<?xml version="1.0" encoding="UTF-8"?>
<svg xmlns="http://www.w3.org/2000/svg" xmlns:xlink="http://www.w3.org/1999/xlink" width="36pt" height="36pt" viewBox="0 0 36 36" version="1.1">
<g id="surface1">
<path style=" stroke:none;fill-rule:evenodd;fill:rgb(90.196078%,90.196078%,90.196078%);fill-opacity:1;" d="M 8.40625 2.136719 L 27.59375 2.136719 C 31.054688 2.136719 33.863281 4.945312 33.863281 8.40625 L 33.863281 27.59375 C 33.863281 31.054688 31.054688 33.863281 27.59375 33.863281 L 8.40625 33.863281 C 4.945312 33.863281 2.136719 31.054688 2.136719 27.59375 L 2.136719 8.40625 C 2.136719 4.945312 4.945312 2.136719 8.40625 2.136719 Z M 8.40625 2.136719 "/>
<path style=" stroke:none;fill-rule:nonzero;fill:rgb(17.254902%,50.196078%,63.529412%);fill-opacity:1;" d="M 30.6875 21.625 C 30.6875 26.628906 26.628906 30.6875 21.625 30.6875 C 16.621094 30.6875 12.5625 26.628906 12.5625 21.625 C 12.5625 16.621094 16.621094 12.5625 21.625 12.5625 C 26.628906 12.5625 30.6875 16.621094 30.6875 21.625 Z M 30.6875 21.625 "/>
<path style=" stroke:none;fill-rule:nonzero;fill:rgb(100%,100%,100%);fill-opacity:1;" d="M 27.0625 21.625 C 27.0625 24.628906 24.628906 27.0625 21.625 27.0625 C 18.621094 27.0625 16.1875 24.628906 16.1875 21.625 C 16.1875 18.621094 18.621094 16.1875 21.625 16.1875 C 24.628906 16.1875 27.0625 18.621094 27.0625 21.625 Z M 27.0625 21.625 "/>
<path style=" stroke:none;fill-rule:nonzero;fill:rgb(21.568627%,67.058824%,78.431373%);fill-opacity:1;" d="M 23.4375 14.375 C 23.4375 19.378906 19.378906 23.4375 14.375 23.4375 C 9.371094 23.4375 5.3125 19.378906 5.3125 14.375 C 5.3125 9.371094 9.371094 5.3125 14.375 5.3125 C 19.378906 5.3125 23.4375 9.371094 23.4375 14.375 Z M 23.4375 14.375 "/>
<path style=" stroke:none;fill-rule:nonzero;fill:rgb(100%,100%,100%);fill-opacity:1;" d="M 19.8125 14.375 C 19.8125 17.378906 17.378906 19.8125 14.375 19.8125 C 11.371094 19.8125 8.9375 17.378906 8.9375 14.375 C 8.9375 11.371094 11.371094 8.9375 14.375 8.9375 C 17.378906 8.9375 19.8125 11.371094 19.8125 14.375 Z M 19.8125 14.375 "/>
<path style="fill:none;stroke-width:1.241509;stroke-linecap:round;stroke-linejoin:miter;stroke:rgb(100%,43.137255%,29.803922%);stroke-opacity:1;stroke-miterlimit:4;" d="M 19.508988 22.49206 C 19.508988 22.49206 18.853747 17.793291 16.508674 15.491326 C 14.15929 13.193671 10.508045 12.491012 10.508045 12.491012 " transform="matrix(0.906155,0,0,0.906155,3.50152,3.50152)"/>
<path style="fill:none;stroke-width:1.241509;stroke-linecap:round;stroke-linejoin:miter;stroke:rgb(100%,43.137255%,29.803922%);stroke-opacity:1;stroke-miterlimit:4;" d="M 12.499633 10.499424 C 12.499633 10.499424 13.154874 15.198192 15.499948 17.500157 C 17.849332 19.797812 21.500577 20.500472 21.500577 20.500472 " transform="matrix(0.906155,0,0,0.906155,3.50152,3.50152)"/>
</g>
</svg>
