<?xml version="1.0" encoding="UTF-8"?>
<svg xmlns="http://www.w3.org/2000/svg" xmlns:xlink="http://www.w3.org/1999/xlink" width="36pt" height="36pt" viewBox="0 0 36 36" version="1.1">
<g id="surface1">
<path style=" stroke:none;fill-rule:evenodd;fill:rgb(100%,72.941176%,22.352941%);fill-opacity:1;" d="M 8.40625 2.136719 L 27.59375 2.136719 C 31.054688 2.136719 33.863281 4.945312 33.863281 8.40625 L 33.863281 27.59375 C 33.863281 31.054688 31.054688 33.863281 27.59375 33.863281 L 8.40625 33.863281 C 4.945312 33.863281 2.136719 31.054688 2.136719 27.59375 L 2.136719 8.40625 C 2.136719 4.945312 4.945312 2.136719 8.40625 2.136719 Z M 8.40625 2.136719 "/>
<path style=" stroke:none;fill-rule:nonzero;fill:rgb(100%,100%,100%);fill-opacity:1;" d="M 16.074219 27.34375 C 14.613281 26.429688 13.417969 25.648438 13.414062 25.605469 C 13.414062 25.46875 18.699219 22.21875 18.808594 22.289062 C 18.871094 22.328125 18.921875 22.703125 18.921875 23.128906 L 18.921875 23.898438 L 19.359375 23.828125 C 20.144531 23.699219 21.441406 22.964844 22.171875 22.238281 C 24.355469 20.054688 24.566406 16.722656 22.667969 14.320312 C 22.421875 14.007812 22.25 13.695312 22.28125 13.625 C 22.421875 13.324219 24.445312 11.667969 24.597656 11.726562 C 24.691406 11.757812 25.003906 12.09375 25.296875 12.464844 C 27.683594 15.507812 27.742188 20.242188 25.433594 23.382812 C 24.835938 24.191406 23.523438 25.40625 22.726562 25.882812 C 21.910156 26.371094 20.671875 26.832031 19.644531 27.035156 L 18.921875 27.175781 L 18.921875 28.035156 C 18.921875 28.503906 18.878906 28.914062 18.828125 28.945312 C 18.777344 28.980469 17.539062 28.257812 16.074219 27.34375 Z M 10.898438 23.835938 C 10.207031 23.035156 9.703125 22.117188 9.300781 20.929688 C 8.980469 19.992188 8.914062 19.609375 8.871094 18.414062 C 8.8125 16.777344 8.996094 15.65625 9.539062 14.378906 C 10.707031 11.636719 13.328125 9.535156 16.253906 8.992188 L 17.046875 8.84375 L 17.046875 7.988281 C 17.046875 7.515625 17.089844 7.101562 17.144531 7.066406 C 17.203125 7.03125 18.058594 7.519531 19.050781 8.144531 C 20.042969 8.773438 21.234375 9.523438 21.703125 9.808594 C 22.167969 10.097656 22.550781 10.367188 22.550781 10.410156 C 22.550781 10.539062 17.253906 13.789062 17.148438 13.722656 C 17.089844 13.6875 17.046875 13.320312 17.046875 12.90625 C 17.046875 12.253906 17.015625 12.152344 16.832031 12.152344 C 16.441406 12.152344 15.472656 12.535156 14.832031 12.941406 C 11.78125 14.878906 11.089844 18.925781 13.332031 21.746094 C 13.558594 22.03125 13.71875 22.320312 13.683594 22.390625 C 13.59375 22.585938 11.574219 24.335938 11.441406 24.335938 C 11.375 24.335938 11.132812 24.109375 10.898438 23.835938 Z M 10.898438 23.835938 "/>
</g>
</svg>
