<?xml version="1.0" encoding="UTF-8"?>
<svg xmlns="http://www.w3.org/2000/svg" xmlns:xlink="http://www.w3.org/1999/xlink" width="36pt" height="36pt" viewBox="0 0 36 36" version="1.1">
<defs>
<filter id="alpha" filterUnits="objectBoundingBox" x="0%" y="0%" width="100%" height="100%">
  <feColorMatrix type="matrix" in="SourceGraphic" values="0 0 0 0 1 0 0 0 0 1 0 0 0 0 1 0 0 0 1 0"/>
</filter>
<mask id="mask0">
  <g filter="url(#alpha)">
<rect x="0" y="0" width="36" height="36" style="fill:rgb(0%,0%,0%);fill-opacity:0.2;stroke:none;"/>
  </g>
</mask>
<clipPath id="clip1">
  <rect width="36" height="36"/>
</clipPath>
<g id="surface6" clip-path="url(#clip1)">
<path style=" stroke:none;fill-rule:nonzero;fill:rgb(0%,0%,0%);fill-opacity:1;" d="M 24.644531 18.832031 L 22.152344 18.832031 C 22.152344 17.914062 22.710938 17.167969 23.398438 17.167969 C 24.089844 17.167969 24.644531 17.914062 24.644531 18.832031 Z M 24.644531 18.832031 "/>
</g>
</defs>
<g id="surface1">
<path style=" stroke:none;fill-rule:evenodd;fill:rgb(49.411765%,76.078431%,25.882353%);fill-opacity:1;" d="M 8.40625 2.136719 L 27.59375 2.136719 C 31.054688 2.136719 33.863281 4.945312 33.863281 8.40625 L 33.863281 27.59375 C 33.863281 31.054688 31.054688 33.863281 27.59375 33.863281 L 8.40625 33.863281 C 4.945312 33.863281 2.136719 31.054688 2.136719 27.59375 L 2.136719 8.40625 C 2.136719 4.945312 4.945312 2.136719 8.40625 2.136719 Z M 8.40625 2.136719 "/>
<path style=" stroke:none;fill-rule:nonzero;fill:rgb(100%,100%,100%);fill-opacity:1;" d="M 16.414062 6.371094 C 15.640625 6.355469 14.96875 6.421875 14.695312 6.5 C 14.261719 6.613281 13.613281 6.859375 13.347656 7.234375 C 13.167969 7.484375 13.015625 7.808594 13.015625 8.253906 C 13.023438 9.097656 13.003906 9.796875 13.015625 10.644531 C 13.015625 11.121094 12.851562 11.34375 12.363281 11.355469 L 10.125 11.355469 C 9.648438 11.355469 9.285156 11.34375 9.007812 11.464844 C 8.726562 11.59375 8.527344 11.753906 8.378906 11.953125 C 8.078125 12.347656 8.03125 13.078125 8.03125 13.570312 C 8.03125 13.570312 8.035156 13.964844 8.132812 14.746094 C 8.21875 15.355469 8.886719 19.570312 9.523438 20.84375 C 9.769531 21.34375 9.933594 21.550781 10.417969 21.769531 C 11.816406 22.09375 16.722656 23.726562 17.253906 22.601562 C 17.691406 21.460938 17.910156 19.578125 18 18.832031 C 18 19.335938 18.078125 21.375 19.453125 21.851562 C 20 22.039062 21.125 22.207031 22.269531 22.335938 C 23.308594 22.453125 23.816406 22.851562 23.816406 25.449219 C 23.816406 27.027344 23.71875 27.136719 21.945312 27.136719 C 20.34375 27.136719 19.660156 27.136719 19.660156 26.308594 C 19.660156 25.476562 20.148438 25.476562 21.324219 25.476562 L 21.324219 23.816406 C 18.976562 23.816406 18 23.816406 18 26.554688 C 18 29.050781 18.949219 29.632812 22.273438 29.632812 C 24.878906 29.632812 25.796875 29.542969 26.875 26.289062 C 27.085938 25.644531 27.605469 23.679688 27.917969 20.382812 C 28.113281 18.300781 27.726562 12.007812 27.421875 10.414062 C 27.246094 9.484375 26.683594 9.027344 26.171875 8.847656 C 25.617188 8.652344 24.5 8.453125 23.097656 8.292969 C 21.964844 8.160156 20.464844 8.003906 19.660156 8.03125 C 19.660156 7.449219 19.273438 6.964844 18.757812 6.757812 C 18.066406 6.492188 17.1875 6.386719 16.414062 6.371094 Z M 16.414062 6.371094 "/>
<use xlink:href="#surface6" mask="url(#mask0)"/>
<path style=" stroke:none;fill-rule:nonzero;fill:rgb(100%,100%,100%);fill-opacity:1;" d="M 24.644531 18 L 22.152344 18 C 22.152344 17.082031 22.710938 16.339844 23.398438 16.339844 C 24.089844 16.339844 24.644531 17.082031 24.644531 18 Z M 24.644531 18 "/>
</g>
</svg>
