<?xml version="1.0" encoding="UTF-8"?>
<svg xmlns="http://www.w3.org/2000/svg" xmlns:xlink="http://www.w3.org/1999/xlink" width="36pt" height="36pt" viewBox="0 0 36 36" version="1.1">
<g id="surface1">
<path style=" stroke:none;fill-rule:evenodd;fill:rgb(30.980392%,30.980392%,30.980392%);fill-opacity:1;" d="M 8.40625 2.136719 L 27.59375 2.136719 C 31.054688 2.136719 33.863281 4.945312 33.863281 8.40625 L 33.863281 27.59375 C 33.863281 31.054688 31.054688 33.863281 27.59375 33.863281 L 8.40625 33.863281 C 4.945312 33.863281 2.136719 31.054688 2.136719 27.59375 L 2.136719 8.40625 C 2.136719 4.945312 4.945312 2.136719 8.40625 2.136719 Z M 8.40625 2.136719 "/>
<path style=" stroke:none;fill-rule:evenodd;fill:rgb(30.980392%,30.980392%,30.980392%);fill-opacity:1;" d="M 2.136719 9.027344 L 2.136719 27.59375 C 2.136719 31.066406 4.933594 33.863281 8.40625 33.863281 L 27.589844 33.863281 C 31.066406 33.863281 33.863281 31.066406 33.863281 27.59375 L 33.863281 9.027344 Z M 2.136719 9.027344 "/>
<path style=" stroke:none;fill-rule:evenodd;fill:rgb(24.705882%,24.705882%,24.705882%);fill-opacity:1;" d="M 33.410156 6.164062 L 30.546875 9.027344 L 33.863281 9.027344 L 33.863281 8.410156 C 33.863281 7.609375 33.679688 6.863281 33.410156 6.164062 Z M 33.410156 6.164062 "/>
<path style=" stroke:none;fill-rule:evenodd;fill:rgb(39.607843%,39.607843%,39.607843%);fill-opacity:1;" d="M 33.070312 5.515625 L 29.375 5.515625 L 25.863281 9.027344 L 30.546875 9.027344 L 33.410156 6.164062 C 33.320312 5.929688 33.1875 5.734375 33.070312 5.515625 Z M 33.070312 5.515625 "/>
<path style=" stroke:none;fill-rule:evenodd;fill:rgb(39.607843%,39.607843%,39.607843%);fill-opacity:1;" d="M 22.347656 9.027344 L 25.863281 5.515625 L 21.175781 5.515625 L 17.664062 9.027344 Z M 22.347656 9.027344 "/>
<path style=" stroke:none;fill-rule:evenodd;fill:rgb(24.705882%,24.705882%,24.705882%);fill-opacity:1;" d="M 22.484375 2.136719 L 25.863281 5.515625 L 22.347656 9.027344 L 25.863281 9.027344 L 29.375 5.515625 L 25.996094 2.136719 Z M 22.484375 2.136719 "/>
<path style=" stroke:none;fill-rule:evenodd;fill:rgb(24.705882%,24.705882%,24.705882%);fill-opacity:1;" d="M 17.664062 5.515625 L 14.148438 9.027344 L 17.664062 9.027344 L 21.175781 5.515625 L 17.796875 2.136719 L 14.285156 2.136719 Z M 17.664062 5.515625 "/>
<path style=" stroke:none;fill-rule:evenodd;fill:rgb(39.607843%,39.607843%,39.607843%);fill-opacity:1;" d="M 12.976562 5.515625 L 9.464844 9.027344 L 14.152344 9.027344 L 17.664062 5.515625 Z M 12.976562 5.515625 "/>
<path style=" stroke:none;fill-rule:evenodd;fill:rgb(24.705882%,24.705882%,24.705882%);fill-opacity:1;" d="M 5.628906 2.851562 L 8.292969 5.515625 L 8.292969 9.027344 L 9.464844 9.027344 L 12.976562 5.515625 L 9.597656 2.136719 L 8.40625 2.136719 C 7.394531 2.136719 6.476562 2.429688 5.628906 2.851562 Z M 5.628906 2.851562 "/>
<path style=" stroke:none;fill-rule:evenodd;fill:rgb(39.607843%,39.607843%,39.607843%);fill-opacity:1;" d="M 2.136719 9.027344 L 8.292969 9.027344 L 8.292969 5.515625 L 5.628906 2.851562 C 3.574219 3.878906 2.136719 5.949219 2.136719 8.410156 Z M 2.136719 9.027344 "/>
<path style=" stroke:none;fill-rule:evenodd;fill:rgb(39.607843%,39.607843%,39.607843%);fill-opacity:1;" d="M 9.597656 2.136719 L 12.976562 5.515625 L 17.664062 5.515625 L 14.285156 2.136719 Z M 9.597656 2.136719 "/>
<path style=" stroke:none;fill-rule:evenodd;fill:rgb(39.607843%,39.607843%,39.607843%);fill-opacity:1;" d="M 17.796875 2.136719 L 21.175781 5.515625 L 25.863281 5.515625 L 22.480469 2.136719 Z M 17.796875 2.136719 "/>
<path style=" stroke:none;fill-rule:evenodd;fill:rgb(39.607843%,39.607843%,39.607843%);fill-opacity:1;" d="M 25.996094 2.136719 L 29.375 5.515625 L 33.070312 5.515625 C 32.019531 3.53125 30.003906 2.136719 27.589844 2.136719 Z M 25.996094 2.136719 "/>
<path style=" stroke:none;fill-rule:nonzero;fill:rgb(72.941176%,72.941176%,72.941176%);fill-opacity:1;" d="M 23.929688 21.316406 L 13.804688 26.941406 L 13.804688 15.691406 Z M 23.929688 21.316406 "/>
</g>
</svg>
