<?xml version="1.0" encoding="UTF-8"?>
<svg xmlns="http://www.w3.org/2000/svg" xmlns:xlink="http://www.w3.org/1999/xlink" width="36pt" height="36pt" viewBox="0 0 36 36" version="1.1">
<g id="surface1">
<path style=" stroke:none;fill-rule:evenodd;fill:rgb(35.686275%,35.686275%,35.686275%);fill-opacity:1;" d="M 8.40625 2.136719 L 27.59375 2.136719 C 31.054688 2.136719 33.863281 4.945312 33.863281 8.40625 L 33.863281 27.59375 C 33.863281 31.054688 31.054688 33.863281 27.59375 33.863281 L 8.40625 33.863281 C 4.945312 33.863281 2.136719 31.054688 2.136719 27.59375 L 2.136719 8.40625 C 2.136719 4.945312 4.945312 2.136719 8.40625 2.136719 Z M 8.40625 2.136719 "/>
<path style=" stroke:none;fill-rule:nonzero;fill:rgb(35.686275%,35.686275%,35.686275%);fill-opacity:1;" d="M 6.863281 9.160156 L 29.136719 9.160156 C 29.820312 9.160156 30.375 9.714844 30.375 10.398438 L 30.375 25.601562 C 30.375 26.285156 29.820312 26.839844 29.136719 26.839844 L 6.863281 26.839844 C 6.179688 26.839844 5.625 26.285156 5.625 25.601562 L 5.625 10.398438 C 5.625 9.714844 6.179688 9.160156 6.863281 9.160156 Z M 6.863281 9.160156 "/>
<path style=" stroke:none;fill-rule:nonzero;fill:rgb(80%,80%,80%);fill-opacity:1;" d="M 10.042969 13.136719 C 10.042969 13.871094 9.449219 14.464844 8.71875 14.464844 C 7.988281 14.464844 7.394531 13.871094 7.394531 13.136719 C 7.394531 12.40625 7.988281 11.8125 8.71875 11.8125 C 9.449219 11.8125 10.042969 12.40625 10.042969 13.136719 Z M 10.042969 13.136719 "/>
<path style=" stroke:none;fill-rule:nonzero;fill:rgb(80%,80%,80%);fill-opacity:1;" d="M 14.464844 13.136719 C 14.464844 13.871094 13.871094 14.464844 13.136719 14.464844 C 12.40625 14.464844 11.8125 13.871094 11.8125 13.136719 C 11.8125 12.40625 12.40625 11.8125 13.136719 11.8125 C 13.871094 11.8125 14.464844 12.40625 14.464844 13.136719 Z M 14.464844 13.136719 "/>
<path style=" stroke:none;fill-rule:nonzero;fill:rgb(80%,80%,80%);fill-opacity:1;" d="M 18.882812 13.136719 C 18.882812 13.871094 18.289062 14.464844 17.558594 14.464844 C 16.824219 14.464844 16.230469 13.871094 16.230469 13.136719 C 16.230469 12.40625 16.824219 11.8125 17.558594 11.8125 C 18.289062 11.8125 18.882812 12.40625 18.882812 13.136719 Z M 18.882812 13.136719 "/>
<path style=" stroke:none;fill-rule:nonzero;fill:rgb(80%,80%,80%);fill-opacity:1;" d="M 23.304688 13.136719 C 23.304688 13.871094 22.710938 14.464844 21.976562 14.464844 C 21.246094 14.464844 20.652344 13.871094 20.652344 13.136719 C 20.652344 12.40625 21.246094 11.8125 21.976562 11.8125 C 22.710938 11.8125 23.304688 12.40625 23.304688 13.136719 Z M 23.304688 13.136719 "/>
<path style=" stroke:none;fill-rule:nonzero;fill:rgb(100%,53.333333%,20.392157%);fill-opacity:1;" d="M 27.722656 13.136719 C 27.722656 13.871094 27.128906 14.464844 26.398438 14.464844 C 25.664062 14.464844 25.070312 13.871094 25.070312 13.136719 C 25.070312 12.40625 25.664062 11.8125 26.398438 11.8125 C 27.128906 11.8125 27.722656 12.40625 27.722656 13.136719 Z M 27.722656 13.136719 "/>
<path style=" stroke:none;fill-rule:nonzero;fill:rgb(80%,80%,80%);fill-opacity:1;" d="M 12.695312 18.441406 C 12.695312 19.175781 12.101562 19.769531 11.371094 19.769531 C 10.636719 19.769531 10.042969 19.175781 10.042969 18.441406 C 10.042969 17.710938 10.636719 17.117188 11.371094 17.117188 C 12.101562 17.117188 12.695312 17.710938 12.695312 18.441406 Z M 12.695312 18.441406 "/>
<path style=" stroke:none;fill-rule:nonzero;fill:rgb(80%,80%,80%);fill-opacity:1;" d="M 17.117188 18.441406 C 17.117188 19.175781 16.523438 19.769531 15.789062 19.769531 C 15.058594 19.769531 14.464844 19.175781 14.464844 18.441406 C 14.464844 17.710938 15.058594 17.117188 15.789062 17.117188 C 16.523438 17.117188 17.117188 17.710938 17.117188 18.441406 Z M 17.117188 18.441406 "/>
<path style=" stroke:none;fill-rule:nonzero;fill:rgb(100%,53.333333%,20.392157%);fill-opacity:1;" d="M 21.535156 18.441406 C 21.535156 19.175781 20.941406 19.769531 20.210938 19.769531 C 19.476562 19.769531 18.882812 19.175781 18.882812 18.441406 C 18.882812 17.710938 19.476562 17.117188 20.210938 17.117188 C 20.941406 17.117188 21.535156 17.710938 21.535156 18.441406 Z M 21.535156 18.441406 "/>
<path style=" stroke:none;fill-rule:nonzero;fill:rgb(80%,80%,80%);fill-opacity:1;" d="M 25.957031 18.441406 C 25.957031 19.175781 25.363281 19.769531 24.628906 19.769531 C 23.898438 19.769531 23.304688 19.175781 23.304688 18.441406 C 23.304688 17.710938 23.898438 17.117188 24.628906 17.117188 C 25.363281 17.117188 25.957031 17.710938 25.957031 18.441406 Z M 25.957031 18.441406 "/>
<path style=" stroke:none;fill-rule:nonzero;fill:rgb(80%,80%,80%);fill-opacity:1;" d="M 9.824219 22.417969 L 26.175781 22.417969 C 26.542969 22.417969 26.839844 22.714844 26.839844 23.082031 L 26.839844 24.410156 C 26.839844 24.773438 26.542969 25.070312 26.175781 25.070312 L 9.824219 25.070312 C 9.457031 25.070312 9.160156 24.773438 9.160156 24.410156 L 9.160156 23.082031 C 9.160156 22.714844 9.457031 22.417969 9.824219 22.417969 Z M 9.824219 22.417969 "/>
<path style=" stroke:none;fill-rule:nonzero;fill:rgb(91.372549%,32.941176%,11.372549%);fill-opacity:1;" d="M 31.167969 24.167969 C 31.167969 27.894531 28.148438 30.917969 24.417969 30.917969 C 20.691406 30.917969 17.667969 27.894531 17.667969 24.167969 C 17.667969 20.441406 20.691406 17.417969 24.417969 17.417969 C 28.148438 17.417969 31.167969 20.441406 31.167969 24.167969 Z M 31.167969 24.167969 "/>
<path style=" stroke:none;fill-rule:nonzero;fill:rgb(100%,100%,100%);fill-opacity:1;" d="M 24.207031 20.792969 C 23.957031 20.796875 23.707031 20.808594 23.542969 20.832031 C 22.808594 20.945312 22.222656 21.203125 21.84375 21.578125 C 21.636719 21.78125 21.515625 22 21.433594 22.28125 C 21.390625 22.453125 21.375 22.847656 21.421875 23 C 21.574219 23.527344 21.941406 23.933594 22.628906 24.34375 C 22.917969 24.515625 23.144531 24.628906 23.796875 24.921875 C 24.574219 25.273438 24.8125 25.414062 24.921875 25.589844 C 24.964844 25.660156 24.984375 25.695312 24.976562 25.78125 C 24.964844 25.917969 24.898438 25.984375 24.738281 26.042969 C 24.632812 26.082031 24.59375 26.09375 24.390625 26.09375 C 24.023438 26.089844 23.699219 26.019531 23.25 25.859375 C 22.933594 25.75 22.621094 25.59375 22.363281 25.425781 C 22.101562 25.253906 22.082031 25.25 22.003906 25.289062 C 21.945312 25.320312 21.523438 25.699219 21.207031 26.003906 C 21.003906 26.203125 21 26.246094 21.140625 26.382812 C 21.28125 26.519531 21.671875 26.808594 21.886719 26.933594 C 22.117188 27.070312 22.273438 27.144531 22.535156 27.242188 C 22.972656 27.40625 23.34375 27.472656 24.035156 27.53125 C 24.191406 27.546875 24.753906 27.546875 24.949219 27.53125 C 26.03125 27.445312 26.914062 27.09375 27.378906 26.574219 C 27.542969 26.390625 27.644531 26.234375 27.722656 26.015625 C 27.796875 25.800781 27.820312 25.378906 27.761719 25.125 C 27.667969 24.710938 27.421875 24.339844 27.019531 24.023438 C 26.617188 23.707031 26.207031 23.496094 25.226562 23.105469 C 24.542969 22.832031 24.285156 22.6875 24.21875 22.535156 C 24.183594 22.453125 24.203125 22.308594 24.261719 22.253906 C 24.367188 22.144531 24.574219 22.105469 24.84375 22.136719 C 25.34375 22.199219 25.988281 22.429688 26.554688 22.746094 C 26.664062 22.808594 26.769531 22.859375 26.792969 22.863281 C 26.886719 22.886719 26.941406 22.851562 27.3125 22.429688 C 27.765625 21.90625 27.761719 21.929688 27.511719 21.75 C 26.765625 21.21875 25.902344 20.90625 24.910156 20.8125 C 24.710938 20.796875 24.457031 20.789062 24.207031 20.792969 Z M 24.207031 20.792969 "/>
</g>
</svg>
