<?xml version="1.0" encoding="UTF-8"?>
<svg xmlns="http://www.w3.org/2000/svg" xmlns:xlink="http://www.w3.org/1999/xlink" width="36pt" height="36pt" viewBox="0 0 36 36" version="1.1">
<g id="surface1">
<path style=" stroke:none;fill-rule:evenodd;fill:rgb(30.980392%,30.980392%,30.980392%);fill-opacity:1;" d="M 8.40625 2.136719 L 27.59375 2.136719 C 31.054688 2.136719 33.863281 4.945312 33.863281 8.40625 L 33.863281 27.59375 C 33.863281 31.054688 31.054688 33.863281 27.59375 33.863281 L 8.40625 33.863281 C 4.945312 33.863281 2.136719 31.054688 2.136719 27.59375 L 2.136719 8.40625 C 2.136719 4.945312 4.945312 2.136719 8.40625 2.136719 Z M 8.40625 2.136719 "/>
<path style=" stroke:none;fill-rule:nonzero;fill:rgb(87.45098%,34.117647%,30.196078%);fill-opacity:1;" d="M 16.847656 28.121094 C 23.742188 26.347656 34.113281 19.441406 23.632812 10.121094 C 28.292969 16.03125 29.289062 17.996094 19.109375 17.996094 C 29.007812 19.984375 20.257812 23.949219 15.71875 24.746094 Z M 16.847656 28.121094 "/>
<path style=" stroke:none;fill-rule:nonzero;fill:rgb(47.45098%,87.058824%,49.019608%);fill-opacity:1;" d="M 19.152344 7.878906 C 12.257812 9.652344 1.886719 16.558594 12.367188 25.878906 C 7.710938 19.96875 6.710938 18.003906 16.890625 18.003906 C 6.992188 16.015625 15.742188 12.050781 20.28125 11.253906 Z M 19.152344 7.878906 "/>
</g>
</svg>
