<?xml version="1.0" encoding="UTF-8"?>
<svg xmlns="http://www.w3.org/2000/svg" xmlns:xlink="http://www.w3.org/1999/xlink" width="36pt" height="36pt" viewBox="0 0 36 36" version="1.1">
<defs>
<clipPath id="clip1">
  <rect width="36" height="36"/>
</clipPath>
<g id="surface6" clip-path="url(#clip1)">
<path style=" stroke:none;fill-rule:nonzero;fill:rgb(100%,100%,100%);fill-opacity:1;" d="M 11.980469 7.875 L 7.875 26.082031 L 11.210938 26.082031 L 13.148438 17.933594 L 22.25 17.933594 L 13.726562 25.566406 L 15.949219 28.125 L 17.085938 27.539062 C 19.238281 26.433594 20.140625 27.078125 21.773438 27.53125 C 23.363281 27.972656 24.859375 28.445312 27.957031 26.660156 L 27.339844 23.507812 C 23.960938 25.910156 22.890625 23.765625 20.480469 23.679688 L 27.378906 17.84375 L 28.125 14.730469 L 13.679688 14.730469 L 14.609375 10.992188 L 24.078125 10.992188 L 24.726562 7.875 Z M 11.980469 7.875 "/>
</g>
</defs>
<g id="surface1">
<path style=" stroke:none;fill-rule:evenodd;fill:rgb(85.098039%,34.901961%,31.764706%);fill-opacity:1;" d="M 8.40625 2.136719 L 27.59375 2.136719 C 31.054688 2.136719 33.863281 4.945312 33.863281 8.40625 L 33.863281 27.59375 C 33.863281 31.054688 31.054688 33.863281 27.59375 33.863281 L 8.40625 33.863281 C 4.945312 33.863281 2.136719 31.054688 2.136719 27.59375 L 2.136719 8.40625 C 2.136719 4.945312 4.945312 2.136719 8.40625 2.136719 Z M 8.40625 2.136719 "/>
<use xlink:href="#surface6"/>
</g>
</svg>
