<?xml version="1.0" encoding="UTF-8"?>
<svg xmlns="http://www.w3.org/2000/svg" xmlns:xlink="http://www.w3.org/1999/xlink" width="36pt" height="36pt" viewBox="0 0 36 36" version="1.1">
<g id="surface1">
<path style=" stroke:none;fill-rule:evenodd;fill:rgb(1.568627%,17.254902%,21.960784%);fill-opacity:1;" d="M 8.40625 2.136719 L 27.59375 2.136719 C 31.054688 2.136719 33.863281 4.945312 33.863281 8.40625 L 33.863281 27.59375 C 33.863281 31.054688 31.054688 33.863281 27.59375 33.863281 L 8.40625 33.863281 C 4.945312 33.863281 2.136719 31.054688 2.136719 27.59375 L 2.136719 8.40625 C 2.136719 4.945312 4.945312 2.136719 8.40625 2.136719 Z M 8.40625 2.136719 "/>
<path style=" stroke:none;fill-rule:evenodd;fill:rgb(1.568627%,17.254902%,21.960784%);fill-opacity:1;" d="M 8.40625 2.136719 C 4.933594 2.136719 2.136719 4.933594 2.136719 8.410156 L 2.136719 14.417969 C 2.367188 13.683594 2.613281 12.972656 2.898438 12.480469 C 3.339844 11.644531 3.949219 10.933594 4.652344 10.355469 C 5.359375 9.777344 6.160156 9.335938 6.984375 9.050781 C 7.804688 8.761719 8.644531 8.628906 9.429688 8.664062 C 10.210938 8.699219 10.9375 8.902344 11.53125 9.289062 C 12.234375 8.476562 13.015625 7.929688 13.835938 7.527344 C 14.65625 7.121094 15.519531 6.855469 16.382812 6.605469 C 15.492188 7.699219 14.863281 8.757812 14.480469 9.78125 C 14.101562 10.804688 13.96875 11.789062 14.078125 12.738281 C 14.191406 13.683594 14.542969 14.59375 15.125 15.460938 C 15.707031 16.332031 16.519531 17.160156 17.554688 17.949219 C 16.214844 17.703125 13.816406 17.617188 11.738281 17.722656 C 11.453125 18.371094 11.285156 19.03125 11.214844 19.6875 C 11.144531 20.34375 11.179688 21 11.296875 21.640625 C 11.53125 22.917969 12.109375 24.136719 12.921875 25.191406 C 13.730469 26.242188 14.769531 27.125 15.925781 27.734375 C 17.082031 28.34375 18.355469 28.679688 19.632812 28.636719 C 20.703125 28.585938 21.601562 28.390625 22.363281 28.066406 C 23.128906 27.746094 23.757812 27.300781 24.285156 26.753906 C 24.8125 26.207031 25.238281 25.558594 25.597656 24.828125 C 25.953125 24.101562 26.246094 23.292969 26.503906 22.429688 C 27.019531 20.703125 27.402344 18.75 27.925781 16.753906 C 28.449219 14.757812 29.109375 12.714844 30.1875 10.8125 C 31.175781 11.554688 31.976562 12.371094 32.621094 13.238281 C 33.15625 13.957031 33.523438 14.734375 33.863281 15.519531 L 33.863281 8.410156 C 33.863281 4.933594 31.066406 2.136719 27.589844 2.136719 Z M 8.40625 2.136719 "/>
<path style=" stroke:none;fill-rule:nonzero;fill:rgb(100%,77.647059%,2.745098%);fill-opacity:1;" d="M 14.75 25.152344 C 25.328125 31.734375 35.15625 13.011719 23.496094 4.003906 C 36.632812 5.714844 30.320312 19.84375 31.726562 29.046875 C 26.804688 28.828125 20.308594 33.496094 15.90625 31.007812 C 14.824219 30.394531 15.238281 26.121094 14.75 25.152344 Z M 14.75 25.152344 "/>
<path style=" stroke:none;fill-rule:nonzero;fill:rgb(81.960784%,29.411765%,0.392157%);fill-opacity:1;" d="M 12.785156 16.914062 C 11.710938 19.003906 12.203125 19.34375 12.539062 19.742188 C 13.679688 20.753906 15.539062 20.1875 18.910156 18.300781 C 19.074219 19.59375 18 21.074219 15.207031 22.472656 C 14.289062 22.933594 13.839844 23.640625 14.75 25.152344 L 18.996094 30.257812 L 13.078125 29.757812 L 8.191406 17.324219 Z M 12.785156 16.914062 "/>
<path style=" stroke:none;fill-rule:nonzero;fill:rgb(96.862745%,56.078431%,1.568627%);fill-opacity:1;" d="M 22.996094 7.988281 C 28.136719 11.316406 26.914062 16.125 28.4375 20.292969 L 29.527344 12.613281 C 27.460938 9.339844 27.132812 8.527344 22.996094 7.988281 Z M 22.996094 7.988281 "/>
<path style=" stroke:none;fill-rule:nonzero;fill:rgb(96.862745%,56.078431%,1.568627%);fill-opacity:1;" d="M 26.15625 15.984375 C 26.640625 20.433594 26.101562 23.492188 26.953125 23.664062 L 28.480469 19.5 C 28.09375 19.15625 27.199219 17.089844 26.15625 15.984375 Z M 26.15625 15.984375 "/>
<path style=" stroke:none;fill-rule:nonzero;fill:rgb(86.27451%,29.019608%,1.568627%);fill-opacity:1;" d="M 5.792969 5.78125 C 4.050781 8.070312 3.5 10.296875 3.960938 12.351562 L 7.304688 9.894531 C 6.535156 9.089844 5.9375 7.917969 5.792969 5.78125 Z M 5.792969 5.78125 "/>
<path style=" stroke:none;fill-rule:nonzero;fill:rgb(100%,100%,100%);fill-opacity:1;" d="M 13.105469 13.445312 C 15.273438 13.445312 17.53125 13.851562 19.441406 12.648438 C 18.449219 14.109375 17.328125 15.136719 15.238281 16.050781 Z M 13.105469 13.445312 "/>
<path style=" stroke:none;fill-rule:nonzero;fill:rgb(94.901961%,34.901961%,0%);fill-opacity:1;" d="M 13.34375 10.277344 C 14.398438 10.941406 14.535156 11.859375 19.351562 11.464844 C 19.707031 11.835938 19.707031 12.234375 19.441406 12.648438 C 17.792969 13.742188 15.253906 13.816406 13.269531 13.382812 Z M 13.34375 10.277344 "/>
<path style=" stroke:none;fill-rule:nonzero;fill:rgb(39.607843%,39.215686%,39.607843%);fill-opacity:1;" d="M 19.351562 11.464844 C 19.714844 12.144531 19.355469 12.472656 19.132812 12.808594 C 20.386719 12.976562 20.597656 11.121094 19.351562 11.464844 Z M 19.351562 11.464844 "/>
<path style=" stroke:none;fill-rule:evenodd;fill:rgb(93.72549%,35.294118%,0%);fill-opacity:1;" d="M 33.863281 15.519531 C 33.523438 14.734375 33.15625 13.957031 32.621094 13.238281 C 31.976562 12.371094 31.175781 11.554688 30.1875 10.8125 C 29.109375 12.714844 28.449219 14.757812 27.925781 16.753906 C 27.402344 18.75 27.019531 20.703125 26.503906 22.429688 C 26.246094 23.292969 25.953125 24.101562 25.597656 24.828125 C 25.238281 25.558594 24.8125 26.207031 24.285156 26.753906 C 23.757812 27.300781 23.128906 27.746094 22.363281 28.066406 C 21.601562 28.390625 20.703125 28.585938 19.632812 28.636719 C 18.355469 28.679688 17.082031 28.34375 15.925781 27.734375 C 14.769531 27.125 13.730469 26.242188 12.917969 25.191406 C 12.109375 24.136719 11.53125 22.917969 11.296875 21.640625 C 11.179688 21 11.144531 20.34375 11.214844 19.6875 C 11.285156 19.03125 11.453125 18.371094 11.738281 17.722656 C 13.816406 17.617188 16.214844 17.703125 17.554688 17.949219 C 16.519531 17.160156 15.707031 16.332031 15.125 15.460938 C 14.542969 14.59375 14.191406 13.683594 14.078125 12.738281 C 13.96875 11.789062 14.101562 10.804688 14.480469 9.78125 C 14.863281 8.757812 15.492188 7.699219 16.382812 6.605469 C 15.519531 6.855469 14.65625 7.121094 13.835938 7.527344 C 13.015625 7.929688 12.234375 8.476562 11.53125 9.289062 C 10.9375 8.902344 10.210938 8.699219 9.429688 8.664062 C 8.644531 8.628906 7.804688 8.761719 6.984375 9.050781 C 6.160156 9.335938 5.359375 9.777344 4.652344 10.355469 C 3.949219 10.933594 3.335938 11.644531 2.898438 12.480469 C 2.613281 12.972656 2.367188 13.683594 2.136719 14.417969 L 2.136719 27.59375 C 2.136719 31.066406 4.933594 33.863281 8.40625 33.863281 L 27.589844 33.863281 C 31.066406 33.863281 33.863281 31.066406 33.863281 27.59375 Z M 33.863281 15.519531 "/>
</g>
</svg>
