<?xml version="1.0" encoding="UTF-8"?>
<svg xmlns="http://www.w3.org/2000/svg" xmlns:xlink="http://www.w3.org/1999/xlink" width="36pt" height="36pt" viewBox="0 0 36 36" version="1.1">
<g id="surface1">
<path style=" stroke:none;fill-rule:evenodd;fill:rgb(80%,80%,80%);fill-opacity:1;" d="M 8.40625 2.136719 L 27.59375 2.136719 C 31.054688 2.136719 33.863281 4.945312 33.863281 8.40625 L 33.863281 27.59375 C 33.863281 31.054688 31.054688 33.863281 27.59375 33.863281 L 8.40625 33.863281 C 4.945312 33.863281 2.136719 31.054688 2.136719 27.59375 L 2.136719 8.40625 C 2.136719 4.945312 4.945312 2.136719 8.40625 2.136719 Z M 8.40625 2.136719 "/>
<path style=" stroke:none;fill-rule:nonzero;fill:rgb(100%,100%,100%);fill-opacity:1;" d="M 17 6.335938 L 19 6.335938 C 20.289062 6.335938 21.332031 7.378906 21.332031 8.667969 L 21.332031 15.667969 C 21.332031 16.957031 20.289062 18 19 18 L 17 18 C 15.710938 18 14.667969 16.957031 14.667969 15.667969 L 14.667969 8.667969 C 14.667969 7.378906 15.710938 6.335938 17 6.335938 Z M 17 6.335938 "/>
<path style=" stroke:none;fill-rule:nonzero;fill:rgb(100%,100%,100%);fill-opacity:1;" d="M 18.1875 14.671875 C 16.710938 14.613281 15.320312 15.234375 14.578125 16.277344 L 8.53125 24.832031 C 7.824219 25.828125 7.824219 27.054688 8.53125 28.054688 C 9.238281 29.050781 10.539062 29.664062 11.949219 29.664062 L 24.050781 29.664062 C 25.460938 29.664062 26.761719 29.050781 27.46875 28.054688 C 28.175781 27.054688 28.175781 25.828125 27.46875 24.832031 L 21.421875 16.277344 C 20.75 15.328125 19.527344 14.722656 18.1875 14.671875 Z M 18.1875 14.671875 "/>
<path style=" stroke:none;fill-rule:nonzero;fill:rgb(34.117647%,54.117647%,100%);fill-opacity:1;" d="M 18.226562 10.140625 C 17.539062 10.140625 16.976562 10.699219 16.976562 11.390625 C 16.976562 12.082031 17.539062 12.640625 18.226562 12.640625 C 18.917969 12.640625 19.476562 12.082031 19.476562 11.390625 C 19.476562 10.699219 18.917969 10.140625 18.226562 10.140625 Z M 18.226562 10.140625 "/>
<path style=" stroke:none;fill-rule:nonzero;fill:rgb(34.117647%,54.117647%,100%);fill-opacity:1;" d="M 16.5625 13.472656 C 15.871094 13.472656 15.3125 14.03125 15.3125 14.722656 C 15.3125 15.414062 15.871094 15.972656 16.5625 15.972656 C 17.25 15.972656 17.8125 15.414062 17.8125 14.722656 C 17.8125 14.03125 17.25 13.472656 16.5625 13.472656 Z M 16.5625 13.472656 "/>
<path style=" stroke:none;fill-rule:nonzero;fill:rgb(34.117647%,54.117647%,100%);fill-opacity:1;" d="M 19.0625 15.972656 C 18.371094 15.972656 17.8125 16.53125 17.8125 17.222656 C 17.8125 17.914062 18.371094 18.472656 19.0625 18.472656 C 19.75 18.472656 20.308594 17.914062 20.308594 17.222656 C 20.308594 16.53125 19.75 15.972656 19.0625 15.972656 Z M 19.0625 15.972656 "/>
<path style=" stroke:none;fill-rule:nonzero;fill:rgb(34.117647%,54.117647%,100%);fill-opacity:1;" d="M 16.5625 19.304688 C 15.871094 19.304688 15.3125 19.867188 15.3125 20.554688 C 15.3125 21.246094 15.871094 21.804688 16.5625 21.804688 C 17.25 21.804688 17.8125 21.246094 17.8125 20.554688 C 17.8125 19.867188 17.25 19.304688 16.5625 19.304688 Z M 16.5625 19.304688 "/>
<path style=" stroke:none;fill-rule:nonzero;fill:rgb(34.117647%,54.117647%,100%);fill-opacity:1;" d="M 13.390625 23.472656 L 12.289062 25.128906 C 11.402344 26.46875 12.511719 27.636719 14.285156 27.636719 L 21.335938 27.636719 C 23.109375 27.636719 24.21875 26.46875 23.332031 25.128906 L 22.230469 23.472656 Z M 13.390625 23.472656 "/>
</g>
</svg>
