<?xml version="1.0" encoding="UTF-8"?>
<svg xmlns="http://www.w3.org/2000/svg" xmlns:xlink="http://www.w3.org/1999/xlink" width="36pt" height="36pt" viewBox="0 0 36 36" version="1.1">
<g id="surface1">
<path style=" stroke:none;fill-rule:evenodd;fill:rgb(83.921569%,83.921569%,83.921569%);fill-opacity:1;" d="M 8.40625 2.136719 L 27.59375 2.136719 C 31.054688 2.136719 33.863281 4.945312 33.863281 8.40625 L 33.863281 27.59375 C 33.863281 31.054688 31.054688 33.863281 27.59375 33.863281 L 8.40625 33.863281 C 4.945312 33.863281 2.136719 31.054688 2.136719 27.59375 L 2.136719 8.40625 C 2.136719 4.945312 4.945312 2.136719 8.40625 2.136719 Z M 8.40625 2.136719 "/>
<path style=" stroke:none;fill-rule:nonzero;fill:rgb(30.980392%,30.980392%,30.980392%);fill-opacity:1;" d="M 12.832031 5.269531 C 11.128906 5.960938 9.597656 6.976562 8.289062 8.285156 C 6.976562 9.597656 5.960938 11.128906 5.269531 12.832031 C 4.601562 14.476562 4.265625 16.214844 4.265625 18 C 4.265625 19.785156 4.601562 21.523438 5.269531 23.167969 C 5.960938 24.871094 6.976562 26.402344 8.289062 27.714844 C 9.597656 29.023438 11.128906 30.039062 12.832031 30.730469 C 14.476562 31.398438 16.214844 31.734375 18 31.734375 C 19.785156 31.734375 21.523438 31.398438 23.167969 30.730469 C 24.871094 30.039062 26.402344 29.023438 27.714844 27.714844 C 29.023438 26.402344 30.039062 24.875 30.730469 23.167969 C 31.398438 21.523438 31.734375 19.785156 31.734375 18 C 31.734375 16.214844 31.398438 14.476562 30.730469 12.832031 C 30.039062 11.128906 29.023438 9.597656 27.714844 8.285156 C 26.402344 6.976562 24.875 5.960938 23.167969 5.269531 C 21.523438 4.601562 19.785156 4.265625 18 4.265625 C 16.214844 4.265625 14.476562 4.601562 12.832031 5.269531 Z M 7.695312 23.78125 C 7.035156 23.367188 6.425781 22.890625 5.886719 22.324219 C 5.0625 20.003906 4.921875 17.492188 5.46875 15.109375 C 5.726562 14.601562 6.015625 14.117188 6.347656 13.648438 C 6.449219 13.507812 6.542969 13.355469 6.652344 13.214844 L 9.753906 15.050781 L 9.753906 15.128906 C 9.746094 16.796875 9.914062 18.449219 10.253906 20.082031 C 10.253906 20.089844 10.253906 20.09375 10.257812 20.101562 L 7.851562 23.871094 C 7.800781 23.84375 7.746094 23.816406 7.695312 23.78125 Z M 16.914062 30.15625 C 17.449219 30.429688 18 30.660156 18.5625 30.847656 C 16.164062 30.949219 13.738281 30.386719 11.59375 29.15625 L 16.789062 30.082031 C 16.832031 30.109375 16.871094 30.132812 16.914062 30.15625 Z M 16.894531 29.21875 L 10.761719 28.125 C 10.046875 27.253906 9.398438 26.332031 8.84375 25.347656 C 8.703125 25.097656 8.546875 24.851562 8.425781 24.589844 L 10.828125 20.824219 C 10.882812 20.839844 10.941406 20.851562 11.007812 20.871094 C 12.511719 21.273438 14.039062 21.558594 15.578125 21.78125 C 15.667969 21.792969 15.746094 21.804688 15.808594 21.8125 L 18.6875 26.789062 C 18.1875 27.492188 17.683594 28.191406 17.167969 28.882812 C 17.082031 28.996094 16.988281 29.109375 16.894531 29.21875 Z M 27.097656 27.097656 C 26.609375 27.585938 26.089844 28.027344 25.546875 28.417969 C 25.457031 27.699219 25.304688 26.996094 25.085938 26.304688 L 28.15625 20.574219 C 29 20.191406 29.816406 19.753906 30.574219 19.210938 C 30.675781 19.140625 30.757812 19.0625 30.820312 18.976562 C 30.597656 21.9375 29.355469 24.835938 27.097656 27.097656 Z M 26.960938 19.664062 C 27.074219 19.882812 27.1875 20.101562 27.300781 20.328125 L 24.332031 25.859375 C 24.316406 25.863281 24.300781 25.867188 24.285156 25.871094 C 22.679688 26.171875 21.0625 26.328125 19.433594 26.335938 L 16.472656 21.21875 C 16.933594 20.363281 17.390625 19.503906 17.84375 18.644531 C 18.148438 18.058594 18.453125 17.472656 18.753906 16.886719 L 24.882812 16.257812 C 25.632812 17.359375 26.34375 18.484375 26.960938 19.664062 Z M 25.71875 13.101562 C 25.425781 13.867188 25.117188 14.628906 24.804688 15.390625 L 18.835938 16.003906 C 18.765625 15.910156 18.691406 15.816406 18.613281 15.726562 C 17.910156 14.929688 17.199219 14.136719 16.492188 13.339844 C 16.496094 13.332031 16.503906 13.324219 16.511719 13.320312 C 16.222656 13.035156 15.9375 12.746094 15.652344 12.460938 L 17.3125 7.457031 C 17.429688 7.425781 17.542969 7.402344 17.660156 7.390625 C 18.5625 7.296875 19.46875 7.195312 20.375 7.140625 C 20.929688 7.109375 21.484375 7.09375 22.050781 7.132812 L 26.160156 11.765625 C 26.019531 12.214844 25.882812 12.664062 25.71875 13.101562 Z M 27.097656 8.902344 C 28.230469 10.039062 29.109375 11.332031 29.730469 12.71875 C 28.960938 12.1875 28.140625 11.753906 27.277344 11.398438 C 27.144531 11.34375 27.003906 11.292969 26.863281 11.246094 L 22.816406 6.683594 C 22.847656 6.488281 22.859375 6.289062 22.867188 6.089844 C 24.40625 6.71875 25.851562 7.65625 27.097656 8.902344 Z M 13.878906 5.851562 C 13.898438 5.863281 13.902344 5.875 13.914062 5.875 C 14.839844 6.195312 15.679688 6.667969 16.472656 7.222656 L 14.921875 11.898438 C 14.914062 11.902344 14.90625 11.90625 14.898438 11.90625 C 14.578125 12.039062 14.257812 12.15625 13.941406 12.300781 C 12.65625 12.886719 11.398438 13.535156 10.214844 14.3125 L 7.152344 12.5 C 7.15625 12.402344 7.171875 12.304688 7.203125 12.21875 C 7.410156 11.671875 7.613281 11.121094 7.84375 10.582031 C 8.023438 10.167969 8.226562 9.769531 8.453125 9.378906 C 8.597656 9.21875 8.75 9.058594 8.902344 8.902344 C 10.359375 7.449219 12.078125 6.414062 13.910156 5.804688 C 13.898438 5.820312 13.890625 5.835938 13.878906 5.851562 Z M 13.878906 5.851562 "/>
</g>
</svg>
