<?xml version="1.0" encoding="UTF-8"?>
<svg xmlns="http://www.w3.org/2000/svg" xmlns:xlink="http://www.w3.org/1999/xlink" width="36pt" height="36pt" viewBox="0 0 36 36" version="1.1">
<defs>
<clipPath id="clip1">
  <rect width="36" height="36"/>
</clipPath>
<g id="surface6" clip-path="url(#clip1)">
<path style=" stroke:none;fill-rule:evenodd;fill:rgb(24.705882%,57.254902%,90.588235%);fill-opacity:1;" d="M 31.15625 25.019531 C 31.15625 28.128906 28.636719 30.644531 25.53125 30.644531 C 22.425781 30.644531 19.90625 28.128906 19.90625 25.019531 C 19.90625 21.914062 22.425781 19.394531 25.53125 19.394531 C 28.636719 19.394531 31.15625 21.914062 31.15625 25.019531 Z M 31.15625 25.019531 "/>
</g>
<clipPath id="clip2">
  <rect width="36" height="36"/>
</clipPath>
<g id="surface9" clip-path="url(#clip2)">
<path style=" stroke:none;fill-rule:nonzero;fill:rgb(100%,100%,100%);fill-opacity:1;" d="M 24.828125 22.207031 L 24.765625 22.949219 C 24.53125 23.035156 24.3125 23.164062 24.121094 23.324219 L 23.449219 23.007812 L 22.746094 24.222656 L 23.355469 24.648438 C 23.335938 24.773438 23.324219 24.894531 23.320312 25.019531 C 23.320312 25.148438 23.332031 25.273438 23.355469 25.394531 L 22.746094 25.820312 L 23.449219 27.035156 L 24.121094 26.71875 C 24.3125 26.878906 24.53125 27.003906 24.765625 27.089844 L 24.828125 27.832031 L 26.234375 27.832031 L 26.296875 27.09375 C 26.53125 27.007812 26.75 26.878906 26.941406 26.71875 L 27.617188 27.035156 L 28.320312 25.820312 L 27.707031 25.394531 C 27.730469 25.269531 27.742188 25.144531 27.742188 25.019531 C 27.742188 24.894531 27.730469 24.769531 27.710938 24.648438 L 28.320312 24.222656 L 27.617188 23.007812 L 26.945312 23.324219 C 26.75 23.164062 26.53125 23.039062 26.296875 22.949219 L 26.234375 22.207031 Z M 25.53125 24.21875 C 25.976562 24.21875 26.335938 24.578125 26.335938 25.019531 C 26.335938 25.464844 25.976562 25.824219 25.53125 25.824219 C 25.089844 25.824219 24.726562 25.464844 24.726562 25.019531 C 24.726562 24.578125 25.089844 24.21875 25.53125 24.21875 Z M 25.53125 24.21875 "/>
</g>
</defs>
<g id="surface1">
<path style=" stroke:none;fill-rule:evenodd;fill:rgb(30.980392%,30.980392%,30.980392%);fill-opacity:1;" d="M 8.40625 2.136719 L 27.59375 2.136719 C 31.054688 2.136719 33.863281 4.945312 33.863281 8.40625 L 33.863281 27.59375 C 33.863281 31.054688 31.054688 33.863281 27.59375 33.863281 L 8.40625 33.863281 C 4.945312 33.863281 2.136719 31.054688 2.136719 27.59375 L 2.136719 8.40625 C 2.136719 4.945312 4.945312 2.136719 8.40625 2.136719 Z M 8.40625 2.136719 "/>
<path style=" stroke:none;fill-rule:nonzero;fill:rgb(100%,38.823529%,38.823529%);fill-opacity:1;" d="M 11.25 7.875 L 24.75 7.875 L 24.75 12.375 L 14.625 12.375 L 14.625 16.875 L 20.25 16.875 L 20.25 20.25 L 14.625 20.25 L 14.625 28.125 L 11.25 28.125 Z M 11.25 7.875 "/>
<use xlink:href="#surface6"/>
<use xlink:href="#surface9"/>
</g>
</svg>
