<?xml version="1.0" encoding="UTF-8"?>
<svg xmlns="http://www.w3.org/2000/svg" xmlns:xlink="http://www.w3.org/1999/xlink" width="36pt" height="36pt" viewBox="0 0 36 36" version="1.1">
<defs>
<clipPath id="clip1">
  <rect width="36" height="36"/>
</clipPath>
<g id="surface6" clip-path="url(#clip1)">
<path style=" stroke:none;fill-rule:nonzero;fill:rgb(100%,100%,100%);fill-opacity:1;" d="M 23.425781 13.394531 L 23.425781 13.398438 L 22.566406 15.210938 C 21.890625 15.207031 21.21875 15.320312 20.582031 15.542969 L 19.179688 14.101562 L 16.25 16.515625 L 17.390625 18.167969 C 17.21875 18.457031 17.074219 18.761719 16.953125 19.078125 C 16.835938 19.394531 16.742188 19.722656 16.679688 20.054688 L 14.738281 20.546875 L 15.363281 24.289062 L 17.359375 24.128906 C 17.699219 24.714844 18.132812 25.238281 18.644531 25.679688 L 18.097656 27.617188 L 21.652344 28.945312 L 22.511719 27.132812 C 23.1875 27.132812 23.859375 27.023438 24.496094 26.800781 L 25.898438 28.238281 L 28.832031 25.828125 L 27.6875 24.175781 C 27.859375 23.882812 28.003906 23.578125 28.125 23.265625 C 28.246094 22.945312 28.335938 22.621094 28.398438 22.285156 L 30.339844 21.792969 L 29.714844 18.050781 L 27.71875 18.214844 C 27.382812 17.628906 26.945312 17.101562 26.433594 16.660156 L 26.980469 14.726562 Z M 22.515625 18.035156 C 24.261719 18.035156 25.679688 19.449219 25.675781 21.195312 C 25.675781 22.9375 24.261719 24.351562 22.515625 24.351562 C 20.773438 24.351562 19.359375 22.9375 19.359375 21.195312 C 19.359375 19.449219 20.773438 18.035156 22.519531 18.035156 Z M 22.515625 18.035156 "/>
</g>
</defs>
<g id="surface1">
<path style=" stroke:none;fill-rule:evenodd;fill:rgb(30.980392%,30.980392%,30.980392%);fill-opacity:1;" d="M 8.40625 2.136719 L 27.59375 2.136719 C 31.054688 2.136719 33.863281 4.945312 33.863281 8.40625 L 33.863281 27.59375 C 33.863281 31.054688 31.054688 33.863281 27.59375 33.863281 L 8.40625 33.863281 C 4.945312 33.863281 2.136719 31.054688 2.136719 27.59375 L 2.136719 8.40625 C 2.136719 4.945312 4.945312 2.136719 8.40625 2.136719 Z M 8.40625 2.136719 "/>
<path style=" stroke:none;fill-rule:nonzero;fill:rgb(100%,12.941176%,2.352941%);fill-opacity:1;" d="M 8.441406 8.683594 L 20.042969 8.683594 L 20.042969 13.171875 L 11.34375 13.171875 L 11.34375 17.039062 L 16.175781 17.039062 L 16.175781 19.9375 L 11.34375 19.9375 L 11.34375 26.703125 L 8.441406 26.703125 Z M 8.441406 8.683594 "/>
<use xlink:href="#surface6"/>
</g>
</svg>
