<?xml version="1.0" encoding="UTF-8"?>
<svg xmlns="http://www.w3.org/2000/svg" xmlns:xlink="http://www.w3.org/1999/xlink" width="36pt" height="36pt" viewBox="0 0 36 36" version="1.1">
<g id="surface1">
<path style=" stroke:none;fill-rule:evenodd;fill:rgb(55.686275%,55.686275%,55.686275%);fill-opacity:1;" d="M 8.40625 2.136719 L 27.59375 2.136719 C 31.054688 2.136719 33.863281 4.945312 33.863281 8.40625 L 33.863281 27.59375 C 33.863281 31.054688 31.054688 33.863281 27.59375 33.863281 L 8.40625 33.863281 C 4.945312 33.863281 2.136719 31.054688 2.136719 27.59375 L 2.136719 8.40625 C 2.136719 4.945312 4.945312 2.136719 8.40625 2.136719 Z M 8.40625 2.136719 "/>
<path style=" stroke:none;fill-rule:nonzero;fill:rgb(27.843137%,27.843137%,27.843137%);fill-opacity:1;" d="M 10.230469 8.703125 C 8.191406 8.703125 6.546875 10.347656 6.546875 12.390625 L 6.546875 22.164062 C 6.546875 24.207031 8.191406 25.851562 10.230469 25.851562 L 12.222656 25.851562 C 12.390625 27.101562 13.445312 28.0625 14.742188 28.0625 L 21.257812 28.0625 C 22.554688 28.0625 23.609375 27.101562 23.777344 25.851562 L 25.769531 25.851562 C 27.808594 25.851562 29.453125 24.207031 29.453125 22.164062 L 29.453125 12.390625 C 29.453125 10.347656 27.808594 8.703125 25.769531 8.703125 Z M 10.230469 8.703125 "/>
<path style=" stroke:none;fill-rule:nonzero;fill:rgb(13.72549%,13.72549%,13.72549%);fill-opacity:1;" d="M 10.367188 9.789062 L 25.632812 9.789062 C 27.171875 9.789062 28.421875 10.988281 28.421875 12.46875 L 28.421875 22.085938 C 28.421875 23.566406 27.171875 24.765625 25.632812 24.765625 L 10.367188 24.765625 C 8.828125 24.765625 7.578125 23.566406 7.578125 22.085938 L 7.578125 12.46875 C 7.578125 10.988281 8.828125 9.789062 10.367188 9.789062 Z M 10.367188 9.789062 "/>
</g>
</svg>
