<?xml version="1.0" encoding="UTF-8"?>
<svg xmlns="http://www.w3.org/2000/svg" xmlns:xlink="http://www.w3.org/1999/xlink" width="36pt" height="36pt" viewBox="0 0 36 36" version="1.1">
<g id="surface1">
<path style=" stroke:none;fill-rule:evenodd;fill:rgb(79.607843%,65.098039%,2.352941%);fill-opacity:1;" d="M 8.40625 2.136719 L 27.59375 2.136719 C 31.054688 2.136719 33.863281 4.945312 33.863281 8.40625 L 33.863281 27.59375 C 33.863281 31.054688 31.054688 33.863281 27.59375 33.863281 L 8.40625 33.863281 C 4.945312 33.863281 2.136719 31.054688 2.136719 27.59375 L 2.136719 8.40625 C 2.136719 4.945312 4.945312 2.136719 8.40625 2.136719 Z M 8.40625 2.136719 "/>
<path style=" stroke:none;fill-rule:nonzero;fill:rgb(79.607843%,65.098039%,2.352941%);fill-opacity:1;" d="M 32.902344 18 C 32.902344 26.230469 26.230469 32.902344 18 32.902344 C 9.769531 32.902344 3.097656 26.230469 3.097656 18 C 3.097656 9.769531 9.769531 3.097656 18 3.097656 C 26.230469 3.097656 32.902344 9.769531 32.902344 18 Z M 32.902344 18 "/>
<path style=" stroke:none;fill-rule:nonzero;fill:rgb(89.411765%,83.137255%,52.941176%);fill-opacity:1;" d="M 30.773438 18 C 30.773438 25.054688 25.054688 30.773438 18 30.773438 C 10.945312 30.773438 5.226562 25.054688 5.226562 18 C 5.226562 10.945312 10.945312 5.226562 18 5.226562 C 25.054688 5.226562 30.773438 10.945312 30.773438 18 Z M 30.773438 18 "/>
<path style=" stroke:none;fill-rule:nonzero;fill:rgb(53.72549%,49.803922%,31.764706%);fill-opacity:1;" d="M 16.792969 5.292969 C 15.179688 5.445312 13.613281 5.898438 12.171875 6.636719 C 12.234375 6.839844 12.160156 7.070312 11.925781 7.273438 C 11.765625 7.410156 11.636719 7.625 11.636719 7.75 C 11.636719 8.132812 11.980469 8.722656 12.257812 8.808594 C 12.625 8.921875 12.5 9.3125 12.027344 9.53125 C 11.8125 9.628906 11.542969 9.917969 11.433594 10.171875 C 11.320312 10.425781 11.160156 10.671875 11.070312 10.726562 C 10.984375 10.777344 10.910156 10.976562 10.910156 11.164062 C 10.910156 11.429688 11.03125 11.558594 11.429688 11.71875 C 11.714844 11.832031 12.054688 11.914062 12.1875 11.902344 C 12.949219 11.832031 13.003906 12.273438 12.335938 13.140625 C 11.984375 13.601562 11.8125 13.714844 11.574219 13.65625 C 11.347656 13.605469 11.226562 13.667969 11.125 13.890625 C 11.015625 14.125 10.839844 14.203125 10.367188 14.238281 C 9.902344 14.269531 9.695312 14.363281 9.519531 14.621094 C 9.390625 14.804688 9.207031 14.957031 9.109375 14.957031 C 9.011719 14.957031 8.78125 15.082031 8.597656 15.234375 C 8.226562 15.542969 8.078125 15.574219 7.949219 15.371094 C 7.777344 15.101562 7.402344 15.238281 6.847656 15.769531 C 6.355469 16.242188 6.296875 16.367188 6.371094 16.773438 C 6.503906 17.5 6.894531 18.144531 7.347656 18.371094 C 7.738281 18.566406 7.746094 18.585938 7.507812 18.839844 C 7.371094 18.984375 7.136719 19.140625 6.988281 19.183594 C 6.554688 19.316406 6.796875 19.480469 7.570312 19.578125 C 8.359375 19.679688 8.605469 19.964844 8.234375 20.355469 C 8.03125 20.574219 8.042969 20.613281 8.371094 20.820312 C 9.015625 21.226562 9.53125 20.980469 8.925781 20.554688 C 8.535156 20.28125 8.808594 20.171875 9.378906 20.367188 C 9.832031 20.527344 9.921875 20.519531 10.191406 20.285156 C 10.746094 19.804688 11.34375 20.511719 10.839844 21.046875 C 10.519531 21.386719 10.617188 21.796875 11.03125 21.855469 C 11.214844 21.878906 11.597656 22.050781 11.882812 22.234375 C 12.164062 22.417969 12.476562 22.570312 12.566406 22.570312 C 12.660156 22.570312 12.925781 22.757812 13.152344 22.988281 C 13.617188 23.449219 13.875 23.507812 14.003906 23.183594 C 14.164062 22.789062 14.097656 22.585938 13.675781 22.125 C 13.339844 21.757812 12.792969 20.78125 12.792969 20.546875 C 12.792969 20.402344 13.347656 20.523438 13.660156 20.738281 C 13.855469 20.871094 14.171875 21.042969 14.359375 21.121094 C 14.5625 21.203125 14.773438 21.460938 14.871094 21.742188 C 15.023438 22.1875 15.082031 22.226562 15.613281 22.226562 L 16.191406 22.226562 L 16.277344 23.261719 C 16.382812 24.511719 16.480469 24.765625 16.910156 24.867188 C 17.226562 24.945312 17.5625 25.433594 17.5625 25.8125 C 17.5625 25.914062 17.335938 26.164062 17.058594 26.367188 C 16.714844 26.617188 16.566406 26.832031 16.589844 27.039062 C 16.617188 27.300781 16.558594 27.34375 16.191406 27.316406 C 15.953125 27.296875 15.539062 27.382812 15.273438 27.5 C 14.957031 27.644531 14.617188 27.6875 14.296875 27.632812 C 13.929688 27.566406 13.804688 27.589844 13.804688 27.734375 C 13.804688 27.839844 13.675781 28.039062 13.515625 28.175781 C 13.128906 28.511719 13.289062 28.691406 13.886719 28.582031 C 14.257812 28.515625 14.402344 28.546875 14.464844 28.707031 C 14.601562 29.042969 14.253906 29.53125 13.9375 29.449219 C 13.734375 29.398438 13.636719 29.46875 13.570312 29.707031 C 13.550781 29.792969 13.511719 29.863281 13.460938 29.925781 C 14.117188 30.179688 14.792969 30.378906 15.484375 30.523438 C 15.421875 30.402344 15.347656 30.289062 15.277344 30.242188 C 14.949219 30.007812 15.167969 29.402344 15.621094 29.296875 C 16.082031 29.183594 16.007812 28.886719 15.507812 28.828125 C 15.066406 28.777344 14.597656 28.332031 14.746094 28.105469 C 14.84375 27.949219 15.265625 27.972656 16.117188 28.175781 C 16.503906 28.265625 16.765625 28.082031 17.65625 27.109375 C 18.171875 26.542969 18.566406 26.308594 19.003906 26.308594 C 19.167969 26.308594 19.761719 26.15625 20.320312 25.96875 C 21.375 25.617188 21.785156 25.628906 21.746094 26.015625 C 21.664062 26.816406 22.179688 26.789062 23.019531 25.949219 C 23.371094 25.601562 23.691406 25.347656 23.734375 25.386719 C 23.894531 25.539062 23.605469 26.289062 23.265625 26.59375 C 22.839844 26.976562 22.820312 27.21875 23.195312 27.414062 C 23.402344 27.519531 23.488281 27.734375 23.519531 28.214844 L 23.5625 28.871094 L 24.097656 28.871094 C 24.285156 28.871094 24.441406 28.894531 24.566406 28.945312 C 28.285156 26.707031 30.617188 22.738281 30.753906 18.402344 C 30.558594 17.984375 30.574219 17.730469 30.753906 17.445312 C 30.742188 17.207031 30.722656 16.96875 30.699219 16.730469 C 30.582031 16.722656 30.460938 16.71875 30.324219 16.726562 C 29.683594 16.75 29.128906 16.5 29.128906 16.175781 C 29.128906 16.105469 28.902344 15.824219 28.621094 15.550781 C 28.304688 15.238281 28.144531 14.960938 28.191406 14.820312 C 28.234375 14.6875 28.140625 14.480469 27.976562 14.335938 C 27.816406 14.195312 27.683594 13.972656 27.683594 13.839844 C 27.683594 13.625 27.546875 13.597656 26.5625 13.621094 L 25.445312 13.648438 L 25.464844 14.753906 C 25.496094 16.6875 25.785156 17.191406 26.671875 16.867188 C 27.078125 16.71875 28.078125 16.828125 28.363281 17.054688 C 28.464844 17.136719 28.617188 17.433594 28.695312 17.714844 C 28.773438 17.996094 29.066406 18.480469 29.34375 18.792969 C 29.910156 19.425781 29.957031 19.675781 29.628906 20.417969 C 29.347656 21.066406 29.042969 20.992188 29.101562 20.289062 L 29.148438 19.765625 L 28.667969 19.855469 C 28.402344 19.902344 28.070312 20.097656 27.921875 20.292969 C 27.710938 20.570312 27.613281 20.609375 27.453125 20.484375 C 27.339844 20.394531 27.25 20.207031 27.25 20.070312 C 27.25 19.933594 27.113281 19.78125 26.949219 19.730469 C 26.78125 19.679688 26.554688 19.425781 26.441406 19.171875 C 26.261719 18.757812 26.265625 18.632812 26.476562 18.132812 C 26.6875 17.628906 26.6875 17.542969 26.496094 17.355469 C 26.316406 17.183594 26.222656 17.179688 25.988281 17.320312 C 25.75 17.460938 25.640625 17.453125 25.359375 17.261719 C 25.171875 17.136719 24.84375 17.03125 24.632812 17.03125 C 24.199219 17.03125 24.070312 16.824219 24.070312 16.128906 C 24.070312 15.488281 23.6875 15.257812 22.777344 15.339844 C 22.148438 15.398438 22.007812 15.355469 21.5 14.964844 C 21.183594 14.722656 20.6875 14.140625 20.394531 13.667969 C 20.101562 13.199219 19.785156 12.703125 19.691406 12.574219 C 19.558594 12.386719 19.589844 12.207031 19.851562 11.691406 L 20.179688 11.046875 L 19.484375 11.140625 C 18.25 11.308594 18 11.46875 18.53125 11.753906 C 18.738281 11.863281 18.75 11.917969 18.589844 12.105469 C 18.484375 12.222656 18.433594 12.414062 18.480469 12.527344 C 18.527344 12.640625 18.46875 12.90625 18.351562 13.117188 C 18.238281 13.332031 18.140625 13.628906 18.136719 13.78125 C 18.125 14.253906 17.308594 14.632812 16.402344 14.585938 C 15.027344 14.507812 14.914062 14.53125 14.425781 14.984375 C 13.816406 15.550781 13.738281 15.8125 14.019531 16.339844 C 14.296875 16.851562 14.785156 17.054688 15.632812 17.011719 C 16.390625 16.976562 16.476562 17.042969 16.300781 17.542969 C 16.15625 17.96875 15.660156 18.132812 15.324219 17.867188 C 15.066406 17.660156 14.175781 17.820312 13.90625 18.121094 C 13.789062 18.246094 13.621094 18.574219 13.527344 18.851562 C 13.367188 19.328125 13.320312 19.355469 12.605469 19.425781 C 11.890625 19.496094 11.824219 19.472656 11.308594 19 C 10.734375 18.472656 10.640625 18.066406 10.914062 17.371094 C 11.039062 17.066406 11.128906 17.015625 11.457031 17.074219 C 12.101562 17.191406 12.359375 16.96875 12.359375 16.277344 C 12.359375 15.941406 12.292969 15.628906 12.214844 15.578125 C 12.132812 15.53125 12.070312 15.355469 12.070312 15.183594 C 12.070312 15.015625 11.988281 14.792969 11.886719 14.699219 C 11.742188 14.558594 11.765625 14.480469 11.996094 14.316406 C 12.152344 14.207031 12.414062 14.132812 12.574219 14.148438 C 12.734375 14.167969 13.171875 14.101562 13.550781 13.996094 C 14.101562 13.851562 14.261719 13.738281 14.335938 13.449219 C 14.476562 12.902344 14.820312 12.464844 15.105469 12.464844 C 15.558594 12.464844 15.570312 11.398438 15.128906 9.84375 C 15.0625 9.613281 14.882812 9.46875 14.566406 9.390625 C 14.308594 9.324219 14.03125 9.152344 13.945312 9 C 13.863281 8.851562 13.707031 8.726562 13.605469 8.726562 C 13.5 8.726562 13.296875 8.601562 13.152344 8.449219 C 13.007812 8.296875 12.707031 8.171875 12.480469 8.171875 C 11.941406 8.171875 11.933594 7.800781 12.46875 7.605469 C 13.03125 7.398438 13.914062 7.671875 14.125 8.117188 C 14.414062 8.722656 14.734375 8.46875 14.835938 7.554688 C 14.964844 6.421875 15.355469 6.097656 16.585938 6.097656 L 17.472656 6.097656 L 17.085938 5.707031 C 16.964844 5.585938 16.863281 5.4375 16.792969 5.292969 Z M 21.386719 5.695312 C 21.359375 5.71875 21.335938 5.738281 21.3125 5.761719 C 21.015625 6.0625 20.875 6.105469 20.417969 6.039062 C 19.621094 5.914062 19.722656 6.238281 20.605469 6.625 C 21.085938 6.835938 21.394531 7.074219 21.5 7.320312 C 22.003906 8.488281 22.351562 9.117188 22.523438 9.183594 C 22.878906 9.3125 23.085938 9.050781 23.167969 8.386719 C 23.257812 7.625 23.515625 7.460938 23.976562 7.878906 C 24.15625 8.039062 24.410156 8.171875 24.535156 8.171875 C 24.933594 8.171875 25.226562 8.332031 25.226562 8.546875 C 25.226562 8.660156 25.359375 8.933594 25.523438 9.15625 C 25.765625 9.480469 25.929688 9.558594 26.382812 9.558594 C 26.9375 9.558594 27.277344 9.660156 27.972656 10.046875 C 27.984375 10.050781 27.996094 10.054688 28.007812 10.058594 C 26.320312 7.9375 24 6.410156 21.386719 5.695312 Z M 5.226562 17.945312 C 5.226562 17.964844 5.226562 17.980469 5.226562 18 C 5.230469 18.824219 5.3125 19.644531 5.476562 20.453125 C 5.9375 20.644531 6.066406 20.566406 6.113281 20.136719 C 6.136719 19.914062 6.253906 19.664062 6.371094 19.574219 C 6.554688 19.441406 6.523438 19.371094 6.148438 19.117188 C 5.90625 18.949219 5.667969 18.660156 5.617188 18.472656 C 5.570312 18.292969 5.410156 18.09375 5.226562 17.945312 Z M 9.25 22.167969 C 9.128906 22.15625 8.984375 22.21875 8.824219 22.371094 C 8.488281 22.695312 8.539062 23.347656 8.921875 23.601562 C 9.359375 23.898438 9.53125 23.8125 9.585938 23.269531 C 9.652344 22.597656 9.511719 22.195312 9.25 22.167969 Z M 11.417969 24.097656 C 11.285156 24.105469 11.140625 24.195312 11 24.394531 C 10.847656 24.601562 10.804688 24.871094 10.863281 25.277344 C 10.933594 25.78125 10.902344 25.886719 10.640625 26.023438 C 10.304688 26.195312 10.230469 26.710938 10.507812 26.972656 C 10.78125 27.238281 11.042969 27.167969 11.140625 26.808594 C 11.273438 26.292969 12.023438 26.234375 12.539062 26.695312 C 12.757812 26.890625 12.9375 26.992188 12.9375 26.917969 C 12.9375 26.839844 12.707031 26.566406 12.429688 26.308594 C 12.003906 25.914062 11.925781 25.746094 11.925781 25.234375 C 11.925781 24.515625 11.703125 24.089844 11.417969 24.097656 Z M 7.855469 25.75 C 7.953125 25.875 8.050781 26 8.152344 26.121094 C 8.066406 25.988281 7.964844 25.859375 7.855469 25.75 Z M 12.160156 27.710938 C 12.097656 27.730469 12.070312 27.8125 12.070312 27.957031 C 12.070312 28.101562 11.976562 28.25 11.863281 28.292969 C 11.714844 28.347656 11.679688 28.519531 11.738281 28.933594 C 11.75 29.011719 11.753906 29.074219 11.757812 29.136719 C 11.929688 29.230469 12.109375 29.324219 12.289062 29.410156 C 12.277344 29.1875 12.320312 28.929688 12.433594 28.601562 C 12.628906 28.050781 12.636719 27.910156 12.476562 27.8125 C 12.328125 27.722656 12.226562 27.6875 12.160156 27.710938 Z M 12.160156 27.710938 "/>
<path style=" stroke:none;fill-rule:nonzero;fill:rgb(79.607843%,65.098039%,2.352941%);fill-opacity:1;" d="M 32.878906 17.296875 C 32.09375 17.722656 25.507812 21.195312 18 21.195312 C 10.507812 21.195312 3.941406 17.742188 3.132812 17.300781 C 3.113281 17.535156 3.101562 17.765625 3.097656 18 C 3.101562 19.007812 3.207031 20.011719 3.417969 20.996094 C 6.316406 22.316406 11.8125 24.386719 18 24.386719 C 24.199219 24.386719 29.707031 22.308594 32.601562 20.988281 C 32.800781 20.003906 32.902344 19.003906 32.902344 18 C 32.902344 17.765625 32.894531 17.53125 32.878906 17.296875 Z M 32.878906 17.296875 "/>
<path style=" stroke:none;fill-rule:evenodd;fill:rgb(30.980392%,30.980392%,30.980392%);fill-opacity:1;" d="M 32.160156 25.570312 C 32.160156 29.296875 29.136719 32.320312 25.410156 32.320312 C 21.679688 32.320312 18.660156 29.296875 18.660156 25.570312 C 18.660156 21.839844 21.679688 18.820312 25.410156 18.820312 C 29.136719 18.820312 32.160156 21.839844 32.160156 25.570312 Z M 32.160156 25.570312 "/>
<path style=" stroke:none;fill-rule:nonzero;fill:rgb(100%,100%,100%);fill-opacity:1;" d="M 24.566406 22.195312 L 24.492188 23.082031 C 24.210938 23.1875 23.949219 23.339844 23.714844 23.53125 L 22.910156 23.148438 L 22.066406 24.613281 L 22.796875 25.121094 C 22.773438 25.269531 22.757812 25.417969 22.757812 25.570312 C 22.757812 25.71875 22.769531 25.871094 22.796875 26.019531 L 22.066406 26.523438 L 22.910156 27.988281 L 23.714844 27.605469 C 23.945312 27.796875 24.207031 27.949219 24.492188 28.050781 L 24.566406 28.945312 L 26.253906 28.945312 L 26.328125 28.054688 C 26.609375 27.949219 26.871094 27.796875 27.101562 27.605469 L 27.910156 27.988281 L 28.753906 26.523438 L 28.019531 26.015625 C 28.046875 25.867188 28.058594 25.71875 28.0625 25.570312 C 28.0625 25.417969 28.046875 25.269531 28.023438 25.121094 L 28.753906 24.613281 L 27.910156 23.148438 L 27.105469 23.53125 C 26.871094 23.339844 26.609375 23.1875 26.328125 23.085938 L 26.253906 22.191406 L 24.566406 22.191406 Z M 25.410156 24.605469 C 25.941406 24.605469 26.375 25.035156 26.375 25.570312 C 26.375 26.101562 25.941406 26.535156 25.410156 26.53125 C 24.875 26.535156 24.445312 26.101562 24.445312 25.570312 C 24.445312 25.035156 24.875 24.605469 25.410156 24.605469 Z M 25.410156 24.605469 "/>
</g>
</svg>
