<?xml version="1.0" encoding="UTF-8"?>
<svg xmlns="http://www.w3.org/2000/svg" xmlns:xlink="http://www.w3.org/1999/xlink" width="36pt" height="36pt" viewBox="0 0 36 36" version="1.1">
<g id="surface1">
<path style=" stroke:none;fill-rule:evenodd;fill:rgb(56.862745%,86.666667%,28.235294%);fill-opacity:1;" d="M 8.40625 2.136719 L 27.59375 2.136719 C 31.054688 2.136719 33.863281 4.945312 33.863281 8.40625 L 33.863281 27.59375 C 33.863281 31.054688 31.054688 33.863281 27.59375 33.863281 L 8.40625 33.863281 C 4.945312 33.863281 2.136719 31.054688 2.136719 27.59375 L 2.136719 8.40625 C 2.136719 4.945312 4.945312 2.136719 8.40625 2.136719 Z M 8.40625 2.136719 "/>
<path style=" stroke:none;fill-rule:nonzero;fill:rgb(100%,100%,100%);fill-opacity:1;" d="M 16.871094 7.5 L 19.128906 7.5 C 21.636719 7.5 23.652344 9.472656 23.652344 11.921875 L 23.652344 24.078125 C 23.652344 26.527344 21.636719 28.5 19.128906 28.5 L 16.871094 28.5 C 14.363281 28.5 12.347656 26.527344 12.347656 24.078125 L 12.347656 11.921875 C 12.347656 9.472656 14.363281 7.5 16.871094 7.5 Z M 16.871094 7.5 "/>
<path style=" stroke:none;fill-rule:nonzero;fill:rgb(100%,100%,100%);fill-opacity:1;" d="M 9.5 6.679688 C 8.835938 6.6875 8.300781 7.238281 8.308594 7.90625 L 8.308594 13.558594 C 8.308594 14.226562 8.851562 14.769531 9.519531 14.769531 L 15.171875 14.769531 C 15.609375 14.773438 16.015625 14.546875 16.238281 14.167969 C 16.457031 13.792969 16.457031 13.324219 16.238281 12.945312 C 16.015625 12.570312 15.609375 12.339844 15.171875 12.347656 L 10.730469 12.347656 L 10.730469 7.90625 C 10.738281 7.578125 10.609375 7.261719 10.375 7.03125 C 10.144531 6.800781 9.828125 6.671875 9.5 6.679688 Z M 9.5 6.679688 "/>
<path style=" stroke:none;fill-rule:nonzero;fill:rgb(100%,100%,100%);fill-opacity:1;" d="M 7.097656 9.117188 C 6.660156 9.109375 6.253906 9.339844 6.035156 9.71875 C 5.816406 10.09375 5.816406 10.5625 6.035156 10.9375 C 6.253906 11.316406 6.660156 11.546875 7.097656 11.539062 L 8.714844 11.539062 C 9.148438 11.546875 9.554688 11.316406 9.777344 10.9375 C 9.996094 10.5625 9.996094 10.09375 9.777344 9.71875 C 9.554688 9.339844 9.148438 9.109375 8.714844 9.117188 Z M 7.097656 9.117188 "/>
<path style=" stroke:none;fill-rule:nonzero;fill:rgb(100%,100%,100%);fill-opacity:1;" d="M 9.519531 21.230469 C 8.851562 21.230469 8.308594 21.773438 8.308594 22.441406 L 8.308594 28.09375 C 8.304688 28.53125 8.53125 28.9375 8.910156 29.15625 C 9.289062 29.378906 9.753906 29.378906 10.132812 29.15625 C 10.507812 28.9375 10.738281 28.53125 10.730469 28.09375 L 10.730469 23.652344 L 15.171875 23.652344 C 15.609375 23.660156 16.015625 23.429688 16.238281 23.050781 C 16.457031 22.675781 16.457031 22.207031 16.238281 21.832031 C 16.015625 21.453125 15.609375 21.222656 15.171875 21.230469 Z M 9.519531 21.230469 "/>
<path style=" stroke:none;fill-rule:nonzero;fill:rgb(100%,100%,100%);fill-opacity:1;" d="M 7.097656 24.460938 C 6.660156 24.453125 6.253906 24.683594 6.035156 25.058594 C 5.816406 25.4375 5.816406 25.90625 6.035156 26.28125 C 6.253906 26.660156 6.660156 26.886719 7.097656 26.882812 L 8.714844 26.882812 C 9.148438 26.886719 9.554688 26.660156 9.777344 26.28125 C 9.996094 25.90625 9.996094 25.4375 9.777344 25.058594 C 9.554688 24.683594 9.148438 24.453125 8.714844 24.460938 Z M 7.097656 24.460938 "/>
<path style=" stroke:none;fill-rule:nonzero;fill:rgb(100%,100%,100%);fill-opacity:1;" d="M 26.460938 6.679688 C 25.792969 6.6875 25.257812 7.238281 25.269531 7.90625 L 25.269531 12.347656 L 20.828125 12.347656 C 20.390625 12.339844 19.984375 12.570312 19.761719 12.945312 C 19.542969 13.324219 19.542969 13.792969 19.761719 14.167969 C 19.984375 14.546875 20.390625 14.773438 20.828125 14.769531 L 26.480469 14.769531 C 27.148438 14.769531 27.691406 14.226562 27.691406 13.558594 L 27.691406 7.90625 C 27.695312 7.578125 27.566406 7.261719 27.335938 7.03125 C 27.101562 6.800781 26.789062 6.671875 26.460938 6.679688 Z M 26.460938 6.679688 "/>
<path style=" stroke:none;fill-rule:nonzero;fill:rgb(100%,100%,100%);fill-opacity:1;" d="M 27.285156 9.117188 C 26.851562 9.109375 26.445312 9.339844 26.222656 9.71875 C 26.003906 10.09375 26.003906 10.5625 26.222656 10.9375 C 26.445312 11.316406 26.851562 11.546875 27.285156 11.539062 L 28.902344 11.539062 C 29.339844 11.546875 29.746094 11.316406 29.964844 10.9375 C 30.183594 10.5625 30.183594 10.09375 29.964844 9.71875 C 29.746094 9.339844 29.339844 9.109375 28.902344 9.117188 Z M 27.285156 9.117188 "/>
<path style=" stroke:none;fill-rule:nonzero;fill:rgb(100%,100%,100%);fill-opacity:1;" d="M 20.828125 21.230469 C 20.390625 21.222656 19.984375 21.453125 19.761719 21.832031 C 19.542969 22.207031 19.542969 22.675781 19.761719 23.050781 C 19.984375 23.429688 20.390625 23.660156 20.828125 23.652344 L 25.269531 23.652344 L 25.269531 28.09375 C 25.261719 28.53125 25.492188 28.9375 25.867188 29.15625 C 26.246094 29.378906 26.710938 29.378906 27.089844 29.15625 C 27.46875 28.9375 27.695312 28.53125 27.691406 28.09375 L 27.691406 22.441406 C 27.691406 21.773438 27.148438 21.230469 26.480469 21.230469 Z M 20.828125 21.230469 "/>
<path style=" stroke:none;fill-rule:nonzero;fill:rgb(100%,100%,100%);fill-opacity:1;" d="M 27.285156 24.460938 C 26.851562 24.453125 26.445312 24.683594 26.222656 25.058594 C 26.003906 25.4375 26.003906 25.90625 26.222656 26.28125 C 26.445312 26.660156 26.851562 26.886719 27.285156 26.882812 L 28.902344 26.882812 C 29.339844 26.886719 29.746094 26.660156 29.964844 26.28125 C 30.183594 25.90625 30.183594 25.4375 29.964844 25.058594 C 29.746094 24.683594 29.339844 24.453125 28.902344 24.460938 Z M 27.285156 24.460938 "/>
<path style=" stroke:none;fill-rule:nonzero;fill:rgb(60.392157%,28.235294%,86.666667%);fill-opacity:1;" d="M 16.386719 9.117188 C 16.386719 10.453125 15.300781 11.539062 13.960938 11.539062 C 12.625 11.539062 11.539062 10.453125 11.539062 9.117188 C 11.539062 7.777344 12.625 6.695312 13.960938 6.695312 C 15.300781 6.695312 16.386719 7.777344 16.386719 9.117188 Z M 16.386719 9.117188 "/>
<path style=" stroke:none;fill-rule:nonzero;fill:rgb(100%,100%,100%);fill-opacity:1;" d="M 15.578125 9.117188 C 15.578125 10.007812 14.855469 10.730469 13.960938 10.730469 C 13.070312 10.730469 12.347656 10.007812 12.347656 9.117188 C 12.347656 8.226562 13.070312 7.503906 13.960938 7.503906 C 14.855469 7.503906 15.578125 8.226562 15.578125 9.117188 Z M 15.578125 9.117188 "/>
<path style=" stroke:none;fill-rule:nonzero;fill:rgb(60.392157%,28.235294%,86.666667%);fill-opacity:1;" d="M 24.460938 9.117188 C 24.460938 10.453125 23.375 11.539062 22.039062 11.539062 C 20.699219 11.539062 19.613281 10.453125 19.613281 9.117188 C 19.613281 7.777344 20.699219 6.695312 22.039062 6.695312 C 23.375 6.695312 24.460938 7.777344 24.460938 9.117188 Z M 24.460938 9.117188 "/>
<path style=" stroke:none;fill-rule:nonzero;fill:rgb(100%,100%,100%);fill-opacity:1;" d="M 23.652344 9.117188 C 23.652344 10.007812 22.929688 10.730469 22.039062 10.730469 C 21.144531 10.730469 20.421875 10.007812 20.421875 9.117188 C 20.421875 8.226562 21.144531 7.503906 22.039062 7.503906 C 22.929688 7.503906 23.652344 8.226562 23.652344 9.117188 Z M 23.652344 9.117188 "/>
</g>
</svg>
