<?xml version="1.0" encoding="UTF-8"?>
<svg xmlns="http://www.w3.org/2000/svg" xmlns:xlink="http://www.w3.org/1999/xlink" width="36pt" height="36pt" viewBox="0 0 36 36" version="1.1">
<g id="surface1">
<path style=" stroke:none;fill-rule:evenodd;fill:rgb(14.117647%,94.117647%,100%);fill-opacity:1;" d="M 33.863281 25.679688 L 25.679688 33.863281 L 27.589844 33.863281 C 31.066406 33.863281 33.863281 31.066406 33.863281 27.59375 Z M 33.863281 25.679688 "/>
<path style=" stroke:none;fill-rule:evenodd;fill:rgb(40%,86.666667%,13.72549%);fill-opacity:1;" d="M 33.863281 20.054688 L 20.054688 33.863281 L 25.679688 33.863281 L 33.863281 25.679688 Z M 33.863281 20.054688 "/>
<path style=" stroke:none;fill-rule:evenodd;fill:rgb(90.196078%,87.45098%,8.235294%);fill-opacity:1;" d="M 33.863281 14.429688 L 14.429688 33.863281 L 20.054688 33.863281 L 33.863281 20.054688 Z M 33.863281 14.429688 "/>
<path style=" stroke:none;fill-rule:evenodd;fill:rgb(94.901961%,29.803922%,23.921569%);fill-opacity:1;" d="M 33.863281 8.804688 L 8.804688 33.863281 L 14.429688 33.863281 L 33.863281 14.429688 Z M 33.863281 8.804688 "/>
<path style=" stroke:none;fill-rule:evenodd;fill:rgb(30.980392%,30.980392%,30.980392%);fill-opacity:1;" d="M 8.40625 2.136719 C 4.933594 2.136719 2.136719 4.933594 2.136719 8.410156 L 2.136719 27.59375 C 2.136719 31.066406 4.933594 33.863281 8.40625 33.863281 L 8.804688 33.863281 L 33.863281 8.804688 L 33.863281 8.410156 C 33.863281 4.933594 31.066406 2.136719 27.589844 2.136719 Z M 8.40625 2.136719 "/>
<path style=" stroke:none;fill-rule:nonzero;fill:rgb(100%,100%,100%);fill-opacity:1;" d="M 15.519531 5.519531 L 18.730469 11.144531 L 15.519531 16.769531 L 18.089844 16.769531 L 20.019531 13.394531 L 21.945312 16.769531 L 24.519531 16.769531 L 21.304688 11.144531 L 24.519531 5.519531 L 21.945312 5.519531 L 20.019531 8.898438 L 18.089844 5.519531 Z M 5.394531 5.519531 L 14.394531 5.519531 L 14.394531 6.925781 L 8.605469 14.660156 L 14.394531 14.660156 L 14.394531 16.769531 L 5.394531 16.769531 L 5.394531 15.363281 L 11.179688 7.628906 L 5.394531 7.628906 Z M 5.394531 5.519531 "/>
</g>
</svg>
