<?xml version="1.0" encoding="UTF-8"?>
<svg xmlns="http://www.w3.org/2000/svg" xmlns:xlink="http://www.w3.org/1999/xlink" width="36pt" height="36pt" viewBox="0 0 36 36" version="1.1">
<g id="surface1">
<path style=" stroke:none;fill-rule:evenodd;fill:rgb(48.235294%,75.686275%,21.176471%);fill-opacity:1;" d="M 8.40625 2.136719 L 27.59375 2.136719 C 31.054688 2.136719 33.863281 4.945312 33.863281 8.40625 L 33.863281 27.59375 C 33.863281 31.054688 31.054688 33.863281 27.59375 33.863281 L 8.40625 33.863281 C 4.945312 33.863281 2.136719 31.054688 2.136719 27.59375 L 2.136719 8.40625 C 2.136719 4.945312 4.945312 2.136719 8.40625 2.136719 Z M 8.40625 2.136719 "/>
<path style=" stroke:none;fill-rule:nonzero;fill:rgb(100%,100%,100%);fill-opacity:1;" d="M 18 14.613281 C 11.457031 14.613281 6.152344 18.546875 6.152344 23.078125 L 11.230469 23.078125 L 11.230469 28.675781 C 11.230469 28.675781 11.3125 29.847656 12.5 29.847656 L 23.5 29.847656 C 24.6875 29.847656 24.769531 28.675781 24.769531 28.675781 L 24.769531 23.078125 L 29.847656 23.078125 C 29.847656 18.546875 24.542969 14.613281 18 14.613281 Z M 18 14.613281 "/>
<path style=" stroke:none;fill-rule:nonzero;fill:rgb(29.803922%,29.803922%,29.803922%);fill-opacity:1;" d="M 14.613281 14.613281 L 21.386719 14.613281 L 20.539062 18 L 15.460938 18 Z M 14.613281 14.613281 "/>
<path style=" stroke:none;fill-rule:nonzero;fill:rgb(99.607843%,80.392157%,21.960784%);fill-opacity:1;" d="M 23.078125 11.230469 C 23.078125 14.035156 20.804688 16.308594 18 16.308594 C 15.195312 16.308594 12.921875 14.035156 12.921875 11.230469 C 12.921875 8.425781 15.195312 6.152344 18 6.152344 C 20.804688 6.152344 23.078125 8.425781 23.078125 11.230469 Z M 23.078125 11.230469 "/>
</g>
</svg>
