<?xml version="1.0" encoding="UTF-8"?>
<svg xmlns="http://www.w3.org/2000/svg" xmlns:xlink="http://www.w3.org/1999/xlink" width="36pt" height="36pt" viewBox="0 0 36 36" version="1.1">
<g id="surface1">
<path style=" stroke:none;fill-rule:evenodd;fill:rgb(20%,59.607843%,76.470588%);fill-opacity:1;" d="M 8.40625 2.136719 L 27.59375 2.136719 C 31.054688 2.136719 33.863281 4.945312 33.863281 8.40625 L 33.863281 27.59375 C 33.863281 31.054688 31.054688 33.863281 27.59375 33.863281 L 8.40625 33.863281 C 4.945312 33.863281 2.136719 31.054688 2.136719 27.59375 L 2.136719 8.40625 C 2.136719 4.945312 4.945312 2.136719 8.40625 2.136719 Z M 8.40625 2.136719 "/>
<path style=" stroke:none;fill-rule:evenodd;fill:rgb(64.705882%,80%,87.45098%);fill-opacity:1;" d="M 23.121094 8.148438 C 20.984375 8.757812 19.648438 12.453125 19.875 12.363281 L 19.910156 13.21875 C 20.242188 13.238281 20.546875 13.28125 20.777344 13.359375 C 21.601562 13.640625 22.644531 13.132812 23.320312 12.699219 C 23.335938 12.53125 23.34375 12.367188 23.34375 12.207031 C 23.707031 11.898438 24.105469 11.507812 24.21875 11.191406 C 24.4375 10.570312 24.632812 9.339844 24.285156 8.851562 C 24.105469 8.605469 23.851562 9.640625 23.847656 9.726562 C 23.832031 9.882812 23.457031 9.566406 23.339844 9.667969 C 23.125 9.855469 23.332031 10.273438 23.246094 10.265625 C 23.132812 10.25 23.097656 10.050781 22.984375 10.070312 C 22.691406 10.316406 22.523438 10.617188 22.394531 10.910156 C 22.3125 10.886719 22.230469 10.863281 22.15625 10.828125 C 22.042969 10.78125 22.054688 10.488281 22.09375 10.371094 C 22.144531 10.226562 22.398438 10.328125 22.46875 10.191406 C 22.542969 10.039062 22.398438 9.78125 22.503906 9.652344 C 22.566406 9.578125 22.679688 9.679688 22.742188 9.605469 C 22.933594 9.359375 23.25 8.109375 23.121094 8.148438 Z M 23.121094 8.148438 "/>
<path style=" stroke:none;fill-rule:evenodd;fill:rgb(100%,100%,100%);fill-opacity:1;" d="M 26.355469 10.777344 C 26.144531 11.519531 25.875 12.007812 25.5625 12.316406 C 25.605469 12.128906 25.605469 11.921875 25.546875 11.691406 L 24.632812 12.679688 C 24.691406 12.511719 24.726562 12.332031 24.6875 12.125 L 23.808594 12.875 C 23.953125 12.691406 24.027344 12.472656 24.007812 12.1875 C 24.019531 12.210938 22.109375 13.816406 20.777344 13.363281 C 19.667969 12.984375 17.03125 13.257812 15.863281 14.667969 C 12.316406 15.023438 9.296875 18.285156 9.574219 20.785156 C 9.859375 23.390625 12.40625 24.988281 13.019531 25.144531 C 13.164062 25.191406 13.300781 25.210938 13.425781 25.21875 C 13.578125 26.238281 14.242188 27.335938 15.058594 27.773438 C 15.769531 28.15625 17.644531 27.03125 17.644531 27.03125 C 16.414062 26.304688 15.636719 25.59375 15.058594 24.867188 C 15.972656 24.808594 17.28125 25.140625 18.503906 25.394531 C 18.664062 25.382812 18.492188 23.667969 16.9375 23.195312 C 16.132812 22.953125 14.617188 22.820312 13.855469 23.566406 C 13.578125 22.914062 13.347656 21.796875 13.914062 21.0625 C 14.5 20.296875 16.394531 19.730469 17.246094 19.65625 C 17.324219 19.691406 17.402344 19.734375 17.484375 19.765625 C 20.296875 20.671875 27.3125 15.300781 26.355469 10.777344 Z M 26.355469 10.777344 "/>
<path style="fill-rule:evenodd;fill:rgb(20%,59.607843%,76.470588%);fill-opacity:1;stroke-width:0.123;stroke-linecap:butt;stroke-linejoin:miter;stroke:rgb(0%,0%,0%);stroke-opacity:1;stroke-miterlimit:4;" d="M -43.663605 17.051667 C -43.677493 17.079444 -44.101105 16.843333 -44.253882 16.787778 C -44.424021 16.72875 -44.660132 17.16625 -44.552493 17.315556 C -44.399716 17.523889 -43.917077 17.575972 -43.944855 17.596806 Z M -43.663605 17.051667 " transform="matrix(1.125,0,0,1.125,67.340305,1.0825)"/>
<path style=" stroke:none;fill-rule:evenodd;fill:rgb(64.705882%,80%,87.45098%);fill-opacity:1;" d="M 18.535156 18 C 18.324219 18.003906 18.074219 18.066406 17.808594 18.21875 C 17.414062 18.441406 16.808594 20.023438 16.605469 20.554688 C 15.78125 21.277344 15.714844 22.945312 16.171875 23.769531 C 17.953125 26.984375 22.835938 28.894531 24.207031 27.25 C 23.914062 26.796875 23.40625 26.730469 22.742188 26.265625 C 22.601562 26.292969 22.476562 26.347656 22.386719 26.453125 L 22.027344 25.835938 C 21.890625 25.859375 21.773438 25.65625 21.636719 25.894531 C 21.382812 25.707031 21.394531 25.636719 21.445312 25.488281 C 21.488281 25.375 21.542969 25.289062 21.597656 25.203125 C 21.984375 25.332031 22.398438 25.476562 22.667969 25.585938 C 22.824219 25.648438 22.699219 25.132812 22.863281 25.121094 C 23.09375 25.101562 23.144531 25.703125 23.375 25.714844 C 23.574219 25.730469 23.660156 25.128906 23.832031 25.226562 C 24.097656 25.375 25.101562 26.238281 25.035156 25.800781 C 24.882812 24.84375 23.691406 23.78125 22.976562 23.367188 C 22.613281 23.160156 21.921875 23.0625 21.367188 23.011719 C 20.738281 22.121094 19.707031 21.066406 18.894531 20.617188 C 18.851562 20.59375 18.808594 20.570312 18.765625 20.550781 C 18.992188 19.894531 19.371094 18.863281 19.082031 18.261719 C 19.003906 18.097656 18.800781 17.996094 18.535156 18 Z M 18.535156 18 "/>
<path style=" stroke:none;fill-rule:evenodd;fill:rgb(20%,59.607843%,76.470588%);fill-opacity:1;" d="M 20.816406 14.832031 C 20.816406 15.414062 20.34375 15.886719 19.757812 15.886719 C 19.175781 15.886719 18.703125 15.414062 18.703125 14.832031 C 18.703125 14.25 19.175781 13.777344 19.757812 13.777344 C 20.34375 13.777344 20.816406 14.25 20.816406 14.832031 Z M 20.816406 14.832031 "/>
</g>
</svg>
