<?xml version="1.0" encoding="UTF-8"?>
<svg xmlns="http://www.w3.org/2000/svg" xmlns:xlink="http://www.w3.org/1999/xlink" width="36pt" height="36pt" viewBox="0 0 36 36" version="1.1">
<g id="surface1">
<path style=" stroke:none;fill-rule:evenodd;fill:rgb(6.666667%,58.039216%,94.117647%);fill-opacity:1;" d="M 8.40625 2.136719 L 27.59375 2.136719 C 31.054688 2.136719 33.863281 4.945312 33.863281 8.40625 L 33.863281 27.59375 C 33.863281 31.054688 31.054688 33.863281 27.59375 33.863281 L 8.40625 33.863281 C 4.945312 33.863281 2.136719 31.054688 2.136719 27.59375 L 2.136719 8.40625 C 2.136719 4.945312 4.945312 2.136719 8.40625 2.136719 Z M 8.40625 2.136719 "/>
<path style=" stroke:none;fill-rule:nonzero;fill:rgb(100%,100%,100%);fill-opacity:1;" d="M 17.4375 7.875 C 14.683594 7.875 11.25 11.011719 11.25 15.226562 C 11.25 19.617188 13.898438 23.625 17.570312 23.625 C 19.382812 23.625 20.167969 22.941406 21.375 21.375 C 20.785156 23.429688 19.789062 24.738281 18.199219 25.117188 C 16.941406 25.421875 15.53125 24.730469 14.625 23.625 L 11.25 23.625 C 12.296875 26.476562 14.921875 28.125 18.082031 28.125 C 20.40625 28.125 22.242188 27.226562 23.449219 25.53125 C 24.355469 24.21875 24.75 22.472656 24.75 19.746094 L 24.75 8.210938 L 21.375 8.210938 L 21.375 10.007812 C 21.375 10.007812 20.191406 7.875 17.4375 7.875 Z M 17.9375 11.25 C 19.980469 11.25 21.375 13.097656 21.375 15.804688 C 21.375 18.480469 20.019531 20.25 17.976562 20.25 C 15.9375 20.25 14.625 18.507812 14.625 15.804688 C 14.625 13.070312 15.9375 11.25 17.9375 11.25 Z M 17.9375 11.25 "/>
</g>
</svg>
