<?xml version="1.0" encoding="UTF-8"?>
<svg xmlns="http://www.w3.org/2000/svg" xmlns:xlink="http://www.w3.org/1999/xlink" width="36pt" height="36pt" viewBox="0 0 36 36" version="1.1">
<g id="surface1">
<path style=" stroke:none;fill-rule:evenodd;fill:rgb(30.196078%,30.196078%,30.196078%);fill-opacity:1;" d="M 8.40625 2.136719 L 27.59375 2.136719 C 31.054688 2.136719 33.863281 4.945312 33.863281 8.40625 L 33.863281 27.59375 C 33.863281 31.054688 31.054688 33.863281 27.59375 33.863281 L 8.40625 33.863281 C 4.945312 33.863281 2.136719 31.054688 2.136719 27.59375 L 2.136719 8.40625 C 2.136719 4.945312 4.945312 2.136719 8.40625 2.136719 Z M 8.40625 2.136719 "/>
<path style=" stroke:none;fill-rule:nonzero;fill:rgb(32.54902%,32.54902%,32.54902%);fill-opacity:1;" d="M 18.804688 7.9375 C 18.804688 8.382812 18.445312 8.742188 18 8.742188 C 17.554688 8.742188 17.195312 8.382812 17.195312 7.9375 C 17.195312 7.492188 17.554688 7.132812 18 7.132812 C 18.445312 7.132812 18.804688 7.492188 18.804688 7.9375 Z M 18.804688 7.9375 "/>
<path style=" stroke:none;fill-rule:nonzero;fill:rgb(99.607843%,67.843137%,0%);fill-opacity:1;" d="M 17.988281 7.9375 C 17.925781 7.9375 17.867188 7.949219 17.808594 7.953125 C 17.734375 7.960938 17.660156 7.964844 17.585938 7.976562 C 17.566406 7.980469 17.550781 7.988281 17.53125 7.992188 C 15.632812 8.402344 14.667969 11.195312 14.785156 13.855469 C 14.78125 13.929688 14.773438 14.015625 14.773438 14.089844 L 6.957031 19.097656 C 6.8125 19.171875 6.738281 19.296875 6.730469 19.476562 L 6.730469 22.011719 C 6.730469 22.15625 6.792969 22.273438 6.917969 22.367188 C 7.046875 22.453125 7.191406 22.476562 7.34375 22.4375 L 14.609375 20.167969 L 15.738281 25.472656 L 12.847656 26.761719 C 12.75 26.855469 12.703125 26.960938 12.703125 27.078125 L 12.921875 28.867188 L 18 28.0625 L 23.078125 28.867188 L 23.296875 27.078125 C 23.296875 26.960938 23.25 26.855469 23.152344 26.761719 L 20.238281 25.472656 L 21.390625 20.167969 L 28.660156 22.4375 C 28.8125 22.476562 28.953125 22.453125 29.085938 22.367188 C 29.207031 22.273438 29.269531 22.15625 29.269531 22.011719 L 29.269531 19.476562 C 29.261719 19.296875 29.1875 19.171875 29.042969 19.101562 L 21.226562 14.089844 C 21.226562 14.015625 21.222656 13.933594 21.21875 13.855469 C 21.335938 11.195312 20.367188 8.402344 18.46875 7.992188 C 18.449219 7.988281 18.433594 7.980469 18.414062 7.976562 C 18.339844 7.964844 18.265625 7.960938 18.191406 7.957031 C 18.132812 7.949219 18.074219 7.9375 18.011719 7.9375 C 18.007812 7.9375 18.003906 7.9375 18 7.9375 C 17.996094 7.9375 17.992188 7.9375 17.988281 7.9375 Z M 17.988281 7.9375 "/>
<path style=" stroke:none;fill-rule:nonzero;fill:rgb(99.607843%,33.72549%,0%);fill-opacity:1;" d="M 12.363281 15.632812 L 10.753906 16.667969 L 10.753906 21.371094 L 12.363281 20.871094 Z M 23.632812 15.632812 L 23.632812 20.867188 L 25.246094 21.371094 L 25.246094 16.667969 Z M 9.949219 17.183594 L 8.339844 18.214844 L 8.339844 22.125 L 9.949219 21.625 Z M 26.050781 17.183594 L 26.050781 21.625 L 27.660156 22.125 L 27.660156 18.214844 Z M 26.050781 17.183594 "/>
<path style=" stroke:none;fill-rule:nonzero;fill:rgb(16.078431%,16.078431%,16.078431%);fill-opacity:1;" d="M 14.476562 7.9375 L 21.523438 7.9375 C 21.800781 7.9375 22.023438 8.117188 22.023438 8.339844 C 22.023438 8.5625 21.800781 8.742188 21.523438 8.742188 L 14.476562 8.742188 C 14.199219 8.742188 13.976562 8.5625 13.976562 8.339844 C 13.976562 8.117188 14.199219 7.9375 14.476562 7.9375 Z M 14.476562 7.9375 "/>
<path style=" stroke:none;fill-rule:nonzero;fill:rgb(16.078431%,16.078431%,16.078431%);fill-opacity:1;" d="M 21.21875 17.058594 C 21.21875 19.136719 19.777344 20.816406 18 20.816406 C 16.222656 20.816406 14.78125 19.136719 14.78125 17.058594 C 14.78125 14.984375 16.222656 14.378906 18 14.378906 C 19.777344 14.378906 21.21875 14.984375 21.21875 17.058594 Z M 21.21875 17.058594 "/>
</g>
</svg>
