<?xml version="1.0" encoding="UTF-8"?>
<svg xmlns="http://www.w3.org/2000/svg" xmlns:xlink="http://www.w3.org/1999/xlink" width="36pt" height="36pt" viewBox="0 0 36 36" version="1.1">
<g id="surface1">
<path style=" stroke:none;fill-rule:evenodd;fill:rgb(35.686275%,73.72549%,25.490196%);fill-opacity:1;" d="M 8.40625 2.136719 L 27.59375 2.136719 C 31.054688 2.136719 33.863281 4.945312 33.863281 8.40625 L 33.863281 27.59375 C 33.863281 31.054688 31.054688 33.863281 27.59375 33.863281 L 8.40625 33.863281 C 4.945312 33.863281 2.136719 31.054688 2.136719 27.59375 L 2.136719 8.40625 C 2.136719 4.945312 4.945312 2.136719 8.40625 2.136719 Z M 8.40625 2.136719 "/>
<path style=" stroke:none;fill-rule:nonzero;fill:rgb(33.72549%,33.72549%,33.72549%);fill-opacity:1;" d="M 19.472656 21.835938 L 26.347656 28.714844 C 27.941406 30.371094 30.390625 27.917969 28.734375 26.328125 L 21.753906 19.347656 C 19.085938 20.234375 20.210938 20.234375 19.472656 21.835938 Z M 19.472656 21.835938 "/>
<path style=" stroke:none;fill-rule:nonzero;fill:rgb(100%,100%,100%);fill-opacity:1;" d="M 15.710938 6.734375 C 10.742188 6.734375 6.710938 10.761719 6.710938 15.734375 C 6.710938 20.703125 10.742188 24.734375 15.710938 24.734375 C 20.683594 24.734375 24.710938 20.703125 24.710938 15.734375 C 24.710938 10.761719 20.683594 6.734375 15.710938 6.734375 Z M 15.710938 10.109375 C 18.820312 10.109375 21.335938 12.628906 21.335938 15.734375 C 21.335938 18.839844 18.820312 21.359375 15.710938 21.359375 C 12.605469 21.359375 10.085938 18.839844 10.085938 15.734375 C 10.085938 12.628906 12.605469 10.109375 15.710938 10.109375 Z M 15.710938 10.109375 "/>
</g>
</svg>
