<?xml version="1.0" encoding="UTF-8"?>
<svg xmlns="http://www.w3.org/2000/svg" xmlns:xlink="http://www.w3.org/1999/xlink" width="36pt" height="36pt" viewBox="0 0 36 36" version="1.1">
<g id="surface1">
<path style=" stroke:none;fill-rule:evenodd;fill:rgb(11.372549%,50.588235%,90.980392%);fill-opacity:1;" d="M 8.40625 2.136719 L 27.59375 2.136719 C 31.054688 2.136719 33.863281 4.945312 33.863281 8.40625 L 33.863281 27.59375 C 33.863281 31.054688 31.054688 33.863281 27.59375 33.863281 L 8.40625 33.863281 C 4.945312 33.863281 2.136719 31.054688 2.136719 27.59375 L 2.136719 8.40625 C 2.136719 4.945312 4.945312 2.136719 8.40625 2.136719 Z M 8.40625 2.136719 "/>
<path style=" stroke:none;fill-rule:nonzero;fill:rgb(100%,75.294118%,35.686275%);fill-opacity:1;" d="M 18 6.75 C 11.785156 6.75 6.75 11.785156 6.75 18 C 6.75 24.214844 11.785156 29.25 18 29.25 C 24.214844 29.25 29.25 24.214844 29.25 18 C 29.25 11.785156 24.214844 6.75 18 6.75 Z M 12.625 14.625 C 13.957031 14.59375 15.207031 15.695312 15.617188 17.265625 C 16.09375 19.082031 15.277344 20.886719 13.800781 21.292969 C 12.320312 21.703125 10.734375 20.554688 10.257812 18.734375 C 9.785156 16.917969 10.597656 15.113281 12.074219 14.707031 C 12.253906 14.65625 12.4375 14.628906 12.625 14.625 Z M 23.375 14.625 C 23.5625 14.628906 23.746094 14.65625 23.925781 14.707031 C 25.402344 15.113281 26.21875 16.917969 25.742188 18.734375 C 25.511719 19.609375 25.011719 20.371094 24.347656 20.851562 C 23.683594 21.332031 22.910156 21.488281 22.199219 21.292969 C 20.722656 20.886719 19.90625 19.082031 20.382812 17.265625 C 20.792969 15.695312 22.042969 14.59375 23.375 14.625 Z M 23.375 14.625 "/>
</g>
</svg>
