<?xml version="1.0" encoding="UTF-8"?>
<svg xmlns="http://www.w3.org/2000/svg" xmlns:xlink="http://www.w3.org/1999/xlink" width="36pt" height="36pt" viewBox="0 0 36 36" version="1.1">
<g id="surface1">
<path style=" stroke:none;fill-rule:evenodd;fill:rgb(94.509804%,34.901961%,56.470588%);fill-opacity:1;" d="M 8.40625 2.136719 L 27.59375 2.136719 C 31.054688 2.136719 33.863281 4.945312 33.863281 8.40625 L 33.863281 27.59375 C 33.863281 31.054688 31.054688 33.863281 27.59375 33.863281 L 8.40625 33.863281 C 4.945312 33.863281 2.136719 31.054688 2.136719 27.59375 L 2.136719 8.40625 C 2.136719 4.945312 4.945312 2.136719 8.40625 2.136719 Z M 8.40625 2.136719 "/>
<path style=" stroke:none;fill-rule:nonzero;fill:rgb(100%,100%,100%);fill-opacity:1;" d="M 24.1875 10.125 C 19.839844 10.125 16.3125 13.652344 16.3125 18 C 16.3125 22.347656 19.839844 25.875 24.1875 25.875 C 28.535156 25.875 32.0625 22.347656 32.0625 18 C 32.0625 13.652344 28.535156 10.125 24.1875 10.125 Z M 9.5625 12.375 C 6.457031 12.375 3.9375 14.894531 3.9375 18 C 3.9375 21.105469 6.457031 23.625 9.5625 23.625 C 12.667969 23.625 15.1875 21.105469 15.1875 18 C 15.1875 14.894531 12.667969 12.375 9.5625 12.375 Z M 24.1875 12.375 C 27.292969 12.375 29.8125 14.894531 29.8125 18 C 29.8125 21.105469 27.292969 23.625 24.1875 23.625 C 21.082031 23.625 18.5625 21.105469 18.5625 18 C 18.5625 14.894531 21.082031 12.375 24.1875 12.375 Z M 9.5625 14.625 C 11.425781 14.625 12.9375 16.136719 12.9375 18 C 12.9375 19.863281 11.425781 21.375 9.5625 21.375 C 7.699219 21.375 6.1875 19.863281 6.1875 18 C 6.1875 16.136719 7.699219 14.625 9.5625 14.625 Z M 9.5625 14.625 "/>
</g>
</svg>
