<?xml version="1.0" encoding="UTF-8"?>
<svg xmlns="http://www.w3.org/2000/svg" xmlns:xlink="http://www.w3.org/1999/xlink" width="36pt" height="36pt" viewBox="0 0 36 36" version="1.1">
<defs>
<clipPath id="clip1">
  <rect width="36" height="36"/>
</clipPath>
<g id="surface6" clip-path="url(#clip1)">
<path style=" stroke:none;fill-rule:evenodd;fill:rgb(75.294118%,21.176471%,18.823529%);fill-opacity:1;" d="M 31.941406 24.574219 C 31.941406 28.300781 28.917969 31.324219 25.191406 31.324219 C 21.464844 31.324219 18.441406 28.300781 18.441406 24.574219 C 18.441406 20.847656 21.464844 17.824219 25.191406 17.824219 C 28.917969 17.824219 31.941406 20.847656 31.941406 24.574219 Z M 31.941406 24.574219 "/>
</g>
</defs>
<g id="surface1">
<path style=" stroke:none;fill-rule:evenodd;fill:rgb(82.352941%,82.352941%,82.352941%);fill-opacity:1;" d="M 8.40625 2.136719 L 27.59375 2.136719 C 31.054688 2.136719 33.863281 4.945312 33.863281 8.40625 L 33.863281 27.59375 C 33.863281 31.054688 31.054688 33.863281 27.59375 33.863281 L 8.40625 33.863281 C 4.945312 33.863281 2.136719 31.054688 2.136719 27.59375 L 2.136719 8.40625 C 2.136719 4.945312 4.945312 2.136719 8.40625 2.136719 Z M 8.40625 2.136719 "/>
<path style=" stroke:none;fill-rule:nonzero;fill:rgb(30.196078%,30.196078%,30.196078%);fill-opacity:1;" d="M 10.101562 7.875 C 9.898438 7.871094 9.710938 7.972656 9.605469 8.140625 C 9.503906 8.3125 9.503906 8.519531 9.605469 8.691406 C 9.703125 8.859375 9.894531 8.964844 10.09375 8.960938 L 13.640625 8.984375 L 15.445312 10.746094 L 15.445312 17.449219 C 15.441406 17.644531 15.550781 17.828125 15.726562 17.925781 C 15.898438 18.023438 16.117188 18.023438 16.292969 17.925781 C 16.46875 17.828125 16.574219 17.644531 16.570312 17.449219 L 16.570312 16.097656 C 16.570312 16.085938 16.570312 16.074219 16.570312 16.0625 L 16.570312 10.519531 C 16.570312 10.375 16.511719 10.238281 16.40625 10.136719 L 14.273438 8.058594 C 14.171875 7.957031 14.027344 7.898438 13.878906 7.898438 Z M 23.582031 7.890625 C 23.269531 7.894531 23.023438 8.140625 23.027344 8.441406 L 23.027344 17.449219 C 23.027344 17.644531 23.132812 17.828125 23.308594 17.925781 C 23.484375 18.023438 23.699219 18.023438 23.875 17.925781 C 24.050781 17.828125 24.15625 17.644531 24.152344 17.449219 L 24.152344 16.097656 C 24.152344 16.085938 24.152344 16.074219 24.152344 16.0625 L 24.152344 8.441406 C 24.15625 8.292969 24.097656 8.152344 23.988281 8.046875 C 23.878906 7.945312 23.734375 7.886719 23.582031 7.890625 Z M 16.84375 7.890625 C 16.613281 7.890625 16.40625 8.023438 16.320312 8.230469 C 16.234375 8.433594 16.285156 8.667969 16.449219 8.824219 L 18.417969 10.746094 L 18.417969 16.0625 C 18.414062 16.078125 18.414062 16.097656 18.417969 16.117188 L 18.417969 17.449219 C 18.414062 17.644531 18.519531 17.828125 18.695312 17.925781 C 18.871094 18.023438 19.085938 18.023438 19.261719 17.925781 C 19.4375 17.828125 19.542969 17.644531 19.542969 17.449219 L 19.542969 10.519531 C 19.542969 10.375 19.484375 10.238281 19.378906 10.136719 L 17.246094 8.058594 C 17.140625 7.953125 16.996094 7.890625 16.84375 7.890625 Z M 19.09375 7.890625 C 18.863281 7.890625 18.65625 8.023438 18.570312 8.230469 C 18.484375 8.433594 18.535156 8.667969 18.699219 8.824219 L 20.664062 10.746094 L 20.664062 17.449219 C 20.660156 17.644531 20.765625 17.828125 20.941406 17.925781 C 21.117188 18.023438 21.335938 18.023438 21.511719 17.925781 C 21.683594 17.828125 21.792969 17.644531 21.789062 17.449219 L 21.789062 16.097656 C 21.789062 16.085938 21.789062 16.074219 21.789062 16.0625 L 21.789062 10.519531 C 21.789062 10.375 21.730469 10.238281 21.625 10.136719 L 19.496094 8.058594 C 19.390625 7.953125 19.246094 7.894531 19.09375 7.890625 Z M 19.09375 7.890625 "/>
<path style=" stroke:none;fill-rule:nonzero;fill:rgb(30.196078%,30.196078%,30.196078%);fill-opacity:1;" d="M 15.777344 21.375 C 15.464844 21.378906 15.21875 21.660156 15.222656 22 L 15.222656 23.527344 C 15.222656 23.542969 15.222656 23.558594 15.222656 23.574219 L 15.222656 25.675781 L 14.128906 26.882812 L 10.101562 26.882812 C 9.898438 26.878906 9.707031 26.996094 9.605469 27.1875 C 9.503906 27.378906 9.503906 27.617188 9.605469 27.8125 C 9.707031 28.003906 9.898438 28.121094 10.101562 28.117188 L 14.363281 28.117188 C 14.511719 28.117188 14.65625 28.050781 14.761719 27.9375 L 16.183594 26.363281 C 16.289062 26.246094 16.347656 26.089844 16.347656 25.925781 L 16.347656 21.996094 C 16.347656 21.832031 16.289062 21.671875 16.183594 21.554688 C 16.074219 21.4375 15.929688 21.371094 15.777344 21.375 Z M 19.082031 21.375 C 18.773438 21.378906 18.523438 21.660156 18.527344 22 L 18.527344 27.5 C 18.527344 27.722656 18.632812 27.929688 18.808594 28.042969 C 18.984375 28.152344 19.199219 28.152344 19.375 28.042969 C 19.550781 27.929688 19.65625 27.722656 19.652344 27.5 L 19.652344 23.617188 C 19.65625 23.601562 19.65625 23.585938 19.652344 23.574219 L 19.652344 22 C 19.65625 21.832031 19.597656 21.671875 19.488281 21.554688 C 19.382812 21.4375 19.234375 21.371094 19.082031 21.375 Z M 21.335938 21.375 C 21.023438 21.378906 20.773438 21.660156 20.777344 22 L 20.777344 23.574219 C 20.777344 23.59375 20.777344 23.613281 20.777344 23.636719 L 20.777344 25.929688 C 20.78125 26.089844 20.839844 26.246094 20.945312 26.363281 L 22.363281 27.9375 C 22.46875 28.050781 22.613281 28.117188 22.761719 28.117188 L 27.027344 28.117188 C 27.230469 28.121094 27.417969 28.003906 27.519531 27.8125 C 27.621094 27.617188 27.621094 27.382812 27.519531 27.1875 C 27.417969 26.996094 27.230469 26.878906 27.027344 26.882812 L 23 26.882812 L 21.90625 25.675781 L 21.90625 22 C 21.90625 21.835938 21.847656 21.675781 21.738281 21.558594 C 21.632812 21.441406 21.488281 21.375 21.335938 21.375 Z M 23.589844 21.375 C 23.28125 21.378906 23.03125 21.660156 23.035156 22 L 23.035156 23.472656 C 23.019531 23.582031 23.03125 23.691406 23.070312 23.792969 C 23.070312 23.800781 23.074219 23.8125 23.078125 23.820312 C 23.117188 23.917969 23.179688 24.007812 23.257812 24.070312 L 24.621094 25.578125 C 24.726562 25.695312 24.871094 25.761719 25.019531 25.761719 L 26.4375 25.761719 C 26.640625 25.761719 26.832031 25.644531 26.933594 25.453125 C 27.035156 25.261719 27.035156 25.023438 26.933594 24.832031 C 26.832031 24.640625 26.640625 24.523438 26.4375 24.527344 L 25.253906 24.527344 L 24.160156 23.316406 L 24.160156 22 C 24.164062 21.832031 24.101562 21.671875 23.996094 21.554688 C 23.886719 21.4375 23.742188 21.371094 23.589844 21.375 Z M 23.589844 21.375 "/>
<path style=" stroke:none;fill-rule:nonzero;fill:rgb(30.196078%,30.196078%,30.196078%);fill-opacity:1;" d="M 8.992188 10.125 C 8.667969 10.125 8.402344 10.371094 8.402344 10.671875 L 8.402344 25.328125 C 8.402344 25.628906 8.667969 25.875 8.992188 25.875 L 12.699219 25.875 C 12.855469 25.875 13.007812 25.816406 13.117188 25.710938 L 13.859375 25.015625 C 13.96875 24.910156 14.027344 24.773438 14.027344 24.628906 L 14.027344 12.066406 C 14.027344 11.925781 13.96875 11.785156 13.859375 11.683594 L 12.375 10.289062 C 12.265625 10.183594 12.117188 10.125 11.960938 10.125 Z M 8.992188 10.125 "/>
<path style="fill:none;stroke-width:1;stroke-linecap:round;stroke-linejoin:round;stroke:rgb(30.196078%,30.196078%,30.196078%);stroke-opacity:1;stroke-miterlimit:4;" d="M 13.790602 13.21897 L 21.311436 13.21897 C 22.026713 13.21897 22.606575 13.798831 22.606575 14.510637 L 22.606575 20.208553 C 22.606575 20.923831 22.026713 21.50022 21.311436 21.50022 L 13.790602 21.50022 C 13.078797 21.50022 12.498936 20.923831 12.498936 20.208553 L 12.498936 14.510637 C 12.498936 13.798831 13.078797 13.21897 13.790602 13.21897 Z M 13.790602 13.21897 " transform="matrix(1.125,0,0,1.125,0.528541,-0.000247316)"/>
<use xlink:href="#surface6"/>
<path style=" stroke:none;fill-rule:evenodd;fill:rgb(100%,100%,100%);fill-opacity:1;" d="M 25.191406 21.832031 C 24.375 21.839844 23.550781 22.027344 22.835938 22.429688 C 22.554688 22.617188 22.210938 22.855469 21.957031 23.09375 C 21.550781 23.492188 21.207031 23.953125 20.972656 24.46875 C 21.613281 25.882812 23.019531 26.917969 24.570312 27.070312 C 25.585938 27.1875 26.652344 27.011719 27.542969 26.507812 C 27.828125 26.324219 28.167969 26.085938 28.425781 25.84375 C 28.832031 25.449219 29.175781 24.984375 29.410156 24.46875 C 28.769531 23.054688 27.359375 22.019531 25.8125 21.867188 C 25.605469 21.84375 25.398438 21.832031 25.191406 21.832031 Z M 25.191406 22.886719 C 26.039062 22.867188 26.789062 23.625 26.773438 24.46875 C 26.800781 25.402344 25.871094 26.207031 24.953125 26.03125 C 24.027344 25.921875 23.375 24.882812 23.679688 24 C 23.875 23.355469 24.511719 22.878906 25.191406 22.886719 Z M 25.191406 23.941406 C 25.050781 23.941406 24.917969 23.996094 24.816406 24.097656 C 24.71875 24.195312 24.664062 24.332031 24.664062 24.46875 C 24.664062 24.761719 24.898438 24.996094 25.191406 24.996094 C 25.480469 24.996094 25.71875 24.761719 25.71875 24.46875 C 25.71875 24.179688 25.480469 23.945312 25.191406 23.945312 Z M 25.191406 23.941406 "/>
</g>
</svg>
