<?xml version="1.0" encoding="UTF-8"?>
<svg xmlns="http://www.w3.org/2000/svg" xmlns:xlink="http://www.w3.org/1999/xlink" width="36pt" height="36pt" viewBox="0 0 36 36" version="1.1">
<defs>
<filter id="alpha" filterUnits="objectBoundingBox" x="0%" y="0%" width="100%" height="100%">
  <feColorMatrix type="matrix" in="SourceGraphic" values="0 0 0 0 1 0 0 0 0 1 0 0 0 0 1 0 0 0 1 0"/>
</filter>
<mask id="mask0">
  <g filter="url(#alpha)">
<rect x="0" y="0" width="36" height="36" style="fill:rgb(0%,0%,0%);fill-opacity:0.101961;stroke:none;"/>
  </g>
</mask>
<clipPath id="clip1">
  <rect width="36" height="36"/>
</clipPath>
<g id="surface6" clip-path="url(#clip1)">
<path style=" stroke:none;fill-rule:evenodd;fill:rgb(0%,0%,0%);fill-opacity:1;" d="M 16.507812 16.222656 C 16.777344 14.652344 16.0625 13.210938 14.902344 13 C 13.746094 12.792969 12.585938 13.898438 12.316406 15.46875 C 12.042969 17.042969 12.761719 18.484375 13.917969 18.691406 C 15.078125 18.902344 16.234375 17.796875 16.507812 16.222656 Z M 16.507812 16.222656 "/>
</g>
<mask id="mask1">
  <g filter="url(#alpha)">
<rect x="0" y="0" width="36" height="36" style="fill:rgb(0%,0%,0%);fill-opacity:0.101961;stroke:none;"/>
  </g>
</mask>
<clipPath id="clip2">
  <rect width="36" height="36"/>
</clipPath>
<g id="surface9" clip-path="url(#clip2)">
<path style=" stroke:none;fill-rule:evenodd;fill:rgb(0%,0%,0%);fill-opacity:1;" d="M 23.683594 15.472656 C 23.410156 13.898438 22.25 12.792969 21.09375 13 C 19.9375 13.207031 19.21875 14.648438 19.492188 16.222656 C 19.765625 17.792969 20.925781 18.902344 22.082031 18.691406 C 23.238281 18.484375 23.957031 17.042969 23.683594 15.472656 Z M 23.683594 15.472656 "/>
</g>
</defs>
<g id="surface1">
<path style=" stroke:none;fill-rule:evenodd;fill:rgb(24.705882%,24.705882%,24.705882%);fill-opacity:1;" d="M 8.40625 2.136719 L 27.59375 2.136719 C 31.054688 2.136719 33.863281 4.945312 33.863281 8.40625 L 33.863281 27.59375 C 33.863281 31.054688 31.054688 33.863281 27.59375 33.863281 L 8.40625 33.863281 C 4.945312 33.863281 2.136719 31.054688 2.136719 27.59375 L 2.136719 8.40625 C 2.136719 4.945312 4.945312 2.136719 8.40625 2.136719 Z M 8.40625 2.136719 "/>
<path style=" stroke:none;fill-rule:nonzero;fill:rgb(80%,80%,80%);fill-opacity:1;" d="M 18.832031 28.007812 C 23.277344 27.773438 26.714844 27.023438 28.046875 26.613281 C 25.835938 25.898438 25.894531 23.023438 26.722656 21.523438 Z M 18.832031 28.007812 "/>
<use xlink:href="#surface6" mask="url(#mask0)"/>
<use xlink:href="#surface9" mask="url(#mask1)"/>
<path style=" stroke:none;fill-rule:evenodd;fill:rgb(80%,80%,80%);fill-opacity:1;" d="M 27.332031 18 C 27.332031 12.449219 23.152344 7.953125 18 7.953125 C 12.847656 7.953125 8.667969 12.449219 8.667969 18 C 8.667969 23.550781 12.847656 28.046875 18 28.046875 C 23.152344 28.046875 27.332031 23.550781 27.332031 18 Z M 27.332031 18 "/>
<path style=" stroke:none;fill-rule:evenodd;fill:rgb(80%,80%,80%);fill-opacity:1;" d="M 28.765625 14.410156 C 28.765625 15.601562 27.800781 16.566406 26.613281 16.566406 C 25.421875 16.566406 24.460938 15.601562 24.460938 14.410156 C 24.460938 13.222656 25.421875 12.257812 26.613281 12.257812 C 27.800781 12.257812 28.765625 13.222656 28.765625 14.410156 Z M 28.765625 14.410156 "/>
<path style=" stroke:none;fill-rule:evenodd;fill:rgb(80%,80%,80%);fill-opacity:1;" d="M 11.539062 14.410156 C 11.539062 15.601562 10.578125 16.566406 9.386719 16.566406 C 8.199219 16.566406 7.234375 15.601562 7.234375 14.410156 C 7.234375 13.222656 8.199219 12.257812 9.386719 12.257812 C 10.578125 12.257812 11.539062 13.222656 11.539062 14.410156 Z M 11.539062 14.410156 "/>
<path style=" stroke:none;fill-rule:evenodd;fill:rgb(24.705882%,24.705882%,24.705882%);fill-opacity:1;" d="M 16.507812 15.507812 C 16.777344 13.933594 16.0625 12.492188 14.902344 12.285156 C 13.746094 12.074219 12.585938 13.179688 12.316406 14.753906 C 12.042969 16.324219 12.761719 17.765625 13.917969 17.976562 C 15.078125 18.183594 16.234375 17.078125 16.507812 15.507812 Z M 16.507812 15.507812 "/>
<path style=" stroke:none;fill-rule:evenodd;fill:rgb(24.705882%,24.705882%,24.705882%);fill-opacity:1;" d="M 23.683594 14.753906 C 23.410156 13.183594 22.25 12.074219 21.09375 12.285156 C 19.9375 12.492188 19.21875 13.933594 19.492188 15.503906 C 19.765625 17.078125 20.925781 18.183594 22.082031 17.976562 C 23.238281 17.769531 23.957031 16.324219 23.683594 14.753906 Z M 23.683594 14.753906 "/>
</g>
</svg>
