<?xml version="1.0" encoding="UTF-8"?>
<svg xmlns="http://www.w3.org/2000/svg" xmlns:xlink="http://www.w3.org/1999/xlink" width="36pt" height="36pt" viewBox="0 0 36 36" version="1.1">
<g id="surface1">
<path style=" stroke:none;fill-rule:evenodd;fill:rgb(100%,85.490196%,0%);fill-opacity:1;" d="M 8.40625 2.136719 L 27.59375 2.136719 C 31.054688 2.136719 33.863281 4.945312 33.863281 8.40625 L 33.863281 27.59375 C 33.863281 31.054688 31.054688 33.863281 27.59375 33.863281 L 8.40625 33.863281 C 4.945312 33.863281 2.136719 31.054688 2.136719 27.59375 L 2.136719 8.40625 C 2.136719 4.945312 4.945312 2.136719 8.40625 2.136719 Z M 8.40625 2.136719 "/>
<path style=" stroke:none;fill-rule:evenodd;fill:rgb(100%,21.568627%,21.568627%);fill-opacity:1;" d="M 21.628906 13.808594 C 21.394531 13.808594 21.15625 13.820312 20.921875 13.84375 C 20.683594 13.867188 20.449219 13.902344 20.21875 13.949219 C 19.988281 13.996094 19.757812 14.054688 19.527344 14.125 C 19.300781 14.195312 19.078125 14.277344 18.859375 14.367188 C 18.644531 14.460938 18.429688 14.5625 18.222656 14.679688 C 18.015625 14.792969 17.8125 14.914062 17.617188 15.050781 C 17.421875 15.183594 17.230469 15.328125 17.050781 15.480469 C 16.871094 15.632812 16.695312 15.792969 16.53125 15.964844 C 16.363281 16.132812 16.210938 16.3125 16.0625 16.496094 C 15.914062 16.683594 15.777344 16.875 15.648438 17.074219 C 15.519531 17.273438 15.402344 17.480469 15.296875 17.691406 C 15.1875 17.902344 15.089844 18.121094 15.003906 18.339844 C 14.917969 18.5625 14.84375 18.785156 14.78125 19.015625 C 14.71875 19.242188 14.664062 19.476562 14.625 19.710938 C 14.585938 19.941406 14.554688 20.179688 14.539062 20.414062 C 14.527344 20.582031 14.523438 20.75 14.523438 20.917969 C 14.523438 21.15625 14.535156 21.390625 14.558594 21.628906 C 14.582031 21.863281 14.617188 22.097656 14.664062 22.328125 C 14.710938 22.5625 14.769531 22.792969 14.839844 23.019531 C 14.910156 23.246094 14.988281 23.46875 15.082031 23.6875 C 15.175781 23.90625 15.277344 24.117188 15.390625 24.324219 C 15.503906 24.535156 15.628906 24.738281 15.761719 24.933594 C 15.898438 25.128906 16.039062 25.316406 16.195312 25.496094 C 16.347656 25.679688 16.507812 25.851562 16.675781 26.019531 C 16.847656 26.183594 17.027344 26.339844 17.210938 26.484375 C 17.398438 26.632812 17.589844 26.769531 17.789062 26.898438 C 17.988281 27.027344 18.195312 27.144531 18.40625 27.253906 C 18.617188 27.359375 18.832031 27.457031 19.054688 27.542969 C 19.277344 27.628906 19.5 27.703125 19.730469 27.765625 C 19.957031 27.832031 20.1875 27.882812 20.421875 27.921875 C 20.65625 27.964844 20.890625 27.992188 21.125 28.007812 C 21.292969 28.019531 21.460938 28.027344 21.628906 28.027344 C 21.867188 28.027344 22.105469 28.015625 22.339844 27.992188 C 22.574219 27.96875 22.808594 27.933594 23.042969 27.886719 C 23.277344 27.839844 23.503906 27.78125 23.734375 27.710938 C 23.957031 27.640625 24.179688 27.558594 24.398438 27.464844 C 24.617188 27.375 24.832031 27.269531 25.039062 27.15625 C 25.246094 27.042969 25.449219 26.917969 25.644531 26.785156 C 25.839844 26.652344 26.03125 26.507812 26.210938 26.355469 C 26.390625 26.203125 26.566406 26.039062 26.730469 25.871094 C 26.894531 25.699219 27.050781 25.523438 27.199219 25.335938 C 27.347656 25.152344 27.484375 24.957031 27.613281 24.757812 C 27.742188 24.558594 27.859375 24.351562 27.964844 24.140625 C 28.074219 23.929688 28.171875 23.714844 28.257812 23.492188 C 28.34375 23.273438 28.417969 23.046875 28.480469 22.820312 C 28.542969 22.589844 28.597656 22.359375 28.636719 22.125 C 28.675781 21.890625 28.707031 21.65625 28.722656 21.417969 C 28.734375 21.253906 28.742188 21.085938 28.738281 20.917969 C 28.742188 20.679688 28.730469 20.441406 28.703125 20.207031 C 28.679688 19.972656 28.644531 19.738281 28.597656 19.503906 C 28.550781 19.273438 28.492188 19.042969 28.421875 18.816406 C 28.351562 18.589844 28.273438 18.367188 28.179688 18.148438 C 28.085938 17.929688 27.984375 17.714844 27.871094 17.507812 C 27.757812 17.300781 27.632812 17.097656 27.5 16.902344 C 27.363281 16.707031 27.222656 16.519531 27.066406 16.335938 C 26.914062 16.15625 26.753906 15.980469 26.585938 15.816406 C 26.414062 15.652344 26.238281 15.496094 26.050781 15.347656 C 25.863281 15.199219 25.671875 15.0625 25.472656 14.933594 C 25.273438 14.808594 25.066406 14.6875 24.855469 14.582031 C 24.644531 14.472656 24.429688 14.375 24.207031 14.289062 C 23.984375 14.207031 23.761719 14.128906 23.53125 14.066406 C 23.304688 14.003906 23.074219 13.953125 22.839844 13.910156 C 22.605469 13.871094 22.371094 13.84375 22.132812 13.824219 C 21.964844 13.8125 21.796875 13.808594 21.628906 13.808594 Z M 21.628906 13.808594 "/>
<path style=" stroke:none;fill-rule:evenodd;fill:rgb(78.039216%,15.686275%,15.686275%);fill-opacity:1;" d="M 2.34375 17.570312 C 2.339844 17.667969 2.335938 17.769531 2.332031 17.871094 C 2.332031 18.105469 2.34375 18.34375 2.367188 18.582031 C 2.390625 18.816406 2.425781 19.050781 2.472656 19.28125 C 2.519531 19.515625 2.578125 19.746094 2.648438 19.972656 C 2.71875 20.199219 2.800781 20.421875 2.894531 20.640625 C 2.984375 20.855469 3.089844 21.070312 3.203125 21.277344 C 3.316406 21.488281 3.441406 21.6875 3.574219 21.882812 C 3.707031 22.078125 3.851562 22.269531 4.003906 22.449219 C 4.15625 22.632812 4.320312 22.804688 4.488281 22.96875 C 4.660156 23.136719 4.835938 23.292969 5.023438 23.4375 C 5.207031 23.585938 5.402344 23.726562 5.601562 23.851562 C 5.800781 23.980469 6.007812 24.097656 6.21875 24.203125 C 6.429688 24.3125 6.644531 24.410156 6.867188 24.496094 C 7.085938 24.582031 7.3125 24.65625 7.539062 24.722656 C 7.769531 24.785156 8 24.835938 8.234375 24.875 C 8.46875 24.914062 8.703125 24.945312 8.941406 24.960938 C 9.109375 24.972656 9.277344 24.980469 9.445312 24.980469 C 9.679688 24.980469 9.917969 24.96875 10.152344 24.945312 C 10.390625 24.917969 10.621094 24.882812 10.855469 24.839844 C 11.085938 24.789062 11.316406 24.730469 11.542969 24.664062 C 11.769531 24.59375 11.992188 24.511719 12.210938 24.417969 C 12.429688 24.324219 12.644531 24.222656 12.851562 24.109375 C 13.058594 23.996094 13.261719 23.871094 13.457031 23.738281 C 13.652344 23.605469 13.839844 23.460938 14.023438 23.308594 C 14.203125 23.15625 14.378906 22.992188 14.542969 22.824219 C 14.609375 22.753906 14.671875 22.679688 14.734375 22.609375 C 14.707031 22.515625 14.683594 22.421875 14.664062 22.328125 C 14.617188 22.097656 14.582031 21.863281 14.558594 21.628906 C 14.535156 21.390625 14.523438 21.15625 14.523438 20.917969 C 14.523438 20.75 14.527344 20.582031 14.539062 20.414062 C 14.554688 20.179688 14.585938 19.941406 14.625 19.710938 C 14.664062 19.476562 14.71875 19.242188 14.78125 19.015625 C 14.84375 18.785156 14.917969 18.5625 15.003906 18.339844 C 15.089844 18.121094 15.1875 17.902344 15.296875 17.691406 C 15.402344 17.480469 15.519531 17.273438 15.648438 17.074219 C 15.777344 16.875 15.914062 16.683594 16.0625 16.496094 C 16.152344 16.386719 16.246094 16.28125 16.339844 16.179688 C 16.308594 16.042969 16.273438 15.90625 16.234375 15.769531 C 16.164062 15.542969 16.085938 15.320312 15.992188 15.101562 C 15.898438 14.882812 15.796875 14.671875 15.683594 14.460938 C 15.566406 14.253906 15.445312 14.050781 15.308594 13.855469 C 15.175781 13.660156 15.03125 13.472656 14.878906 13.289062 C 14.726562 13.109375 14.566406 12.933594 14.394531 12.769531 C 14.226562 12.605469 14.046875 12.449219 13.863281 12.300781 C 13.675781 12.152344 13.484375 12.015625 13.285156 11.886719 C 13.085938 11.757812 12.878906 11.640625 12.667969 11.535156 C 12.457031 11.425781 12.238281 11.328125 12.019531 11.242188 C 11.796875 11.15625 11.574219 11.082031 11.34375 11.019531 C 11.117188 10.957031 10.882812 10.902344 10.648438 10.863281 C 10.46875 10.835938 10.285156 10.8125 10.101562 10.796875 C 9.773438 11.195312 9.558594 11.609375 9.1875 11.996094 C 8.199219 13.019531 7.097656 13.984375 6.0625 14.824219 C 4.070312 16.445312 2.460938 17.492188 2.34375 17.570312 Z M 2.34375 17.570312 "/>
<path style=" stroke:none;fill-rule:evenodd;fill:rgb(100%,85.490196%,0%);fill-opacity:1;" d="M 22.324219 13.847656 C 22.496094 13.863281 22.667969 13.882812 22.839844 13.910156 C 23.074219 13.953125 23.304688 14.003906 23.53125 14.066406 C 23.761719 14.128906 23.984375 14.207031 24.207031 14.292969 C 24.429688 14.375 24.644531 14.472656 24.855469 14.582031 C 25.066406 14.6875 25.273438 14.808594 25.472656 14.933594 C 25.671875 15.0625 25.863281 15.199219 26.050781 15.347656 C 26.238281 15.496094 26.414062 15.652344 26.585938 15.816406 C 26.753906 15.980469 26.914062 16.15625 27.066406 16.335938 C 27.222656 16.519531 27.363281 16.707031 27.5 16.902344 C 27.632812 17.097656 27.757812 17.300781 27.871094 17.507812 C 27.984375 17.714844 28.085938 17.929688 28.179688 18.148438 C 28.273438 18.367188 28.351562 18.589844 28.421875 18.816406 C 28.492188 19.042969 28.550781 19.273438 28.597656 19.503906 C 28.644531 19.738281 28.679688 19.972656 28.703125 20.207031 C 28.730469 20.441406 28.742188 20.679688 28.738281 20.917969 C 28.742188 21.085938 28.734375 21.253906 28.722656 21.417969 C 28.707031 21.65625 28.675781 21.890625 28.636719 22.125 C 28.597656 22.359375 28.542969 22.589844 28.480469 22.820312 C 28.417969 23.046875 28.34375 23.273438 28.257812 23.492188 C 28.171875 23.714844 28.074219 23.929688 27.964844 24.140625 C 27.859375 24.351562 27.742188 24.558594 27.613281 24.757812 C 27.484375 24.957031 27.347656 25.152344 27.199219 25.335938 C 27.050781 25.523438 26.894531 25.699219 26.730469 25.871094 C 26.566406 26.039062 26.390625 26.203125 26.210938 26.355469 C 26.03125 26.507812 25.839844 26.652344 25.644531 26.785156 C 25.449219 26.917969 25.246094 27.042969 25.039062 27.15625 C 24.832031 27.269531 24.617188 27.375 24.398438 27.464844 C 24.179688 27.558594 23.957031 27.640625 23.734375 27.710938 C 23.503906 27.78125 23.277344 27.839844 23.042969 27.886719 C 22.808594 27.933594 22.574219 27.96875 22.339844 27.992188 C 22.105469 28.015625 21.867188 28.027344 21.628906 28.027344 C 21.460938 28.027344 21.292969 28.019531 21.125 28.007812 C 20.890625 27.992188 20.65625 27.964844 20.421875 27.921875 C 20.1875 27.882812 19.957031 27.832031 19.730469 27.765625 C 19.5 27.703125 19.277344 27.628906 19.054688 27.542969 C 18.832031 27.457031 18.617188 27.359375 18.40625 27.253906 C 18.195312 27.144531 17.988281 27.027344 17.789062 26.898438 C 17.589844 26.769531 17.398438 26.632812 17.210938 26.484375 C 17.027344 26.339844 16.847656 26.183594 16.675781 26.019531 C 16.507812 25.851562 16.347656 25.679688 16.195312 25.496094 C 16.039062 25.316406 15.898438 25.128906 15.761719 24.933594 C 15.628906 24.738281 15.503906 24.535156 15.390625 24.324219 C 15.277344 24.117188 15.175781 23.90625 15.082031 23.6875 C 14.988281 23.46875 14.910156 23.246094 14.839844 23.019531 C 14.800781 22.882812 14.765625 22.746094 14.734375 22.609375 C 14.671875 22.679688 14.609375 22.753906 14.542969 22.824219 C 14.378906 22.992188 14.203125 23.15625 14.023438 23.308594 C 13.839844 23.460938 13.652344 23.605469 13.457031 23.738281 C 13.261719 23.871094 13.058594 23.996094 12.851562 24.109375 C 12.644531 24.222656 12.429688 24.324219 12.210938 24.417969 C 11.992188 24.511719 11.769531 24.59375 11.542969 24.664062 C 11.316406 24.730469 11.085938 24.789062 10.855469 24.839844 C 10.621094 24.882812 10.390625 24.917969 10.152344 24.945312 C 9.917969 24.96875 9.679688 24.980469 9.445312 24.980469 C 9.277344 24.980469 9.109375 24.972656 8.941406 24.960938 C 8.703125 24.945312 8.46875 24.914062 8.234375 24.875 C 8 24.835938 7.769531 24.785156 7.539062 24.722656 C 7.3125 24.65625 7.085938 24.582031 6.867188 24.496094 C 6.644531 24.410156 6.429688 24.3125 6.21875 24.207031 C 6.007812 24.097656 5.800781 23.980469 5.601562 23.855469 C 5.402344 23.726562 5.207031 23.585938 5.023438 23.4375 C 4.835938 23.292969 4.660156 23.136719 4.488281 22.96875 C 4.320312 22.804688 4.15625 22.632812 4.003906 22.449219 C 3.851562 22.269531 3.710938 22.078125 3.574219 21.886719 C 3.441406 21.6875 3.316406 21.488281 3.203125 21.277344 C 3.089844 21.070312 2.988281 20.855469 2.894531 20.640625 C 2.800781 20.421875 2.71875 20.199219 2.648438 19.972656 C 2.578125 19.746094 2.519531 19.515625 2.472656 19.285156 C 2.425781 19.050781 2.390625 18.816406 2.367188 18.582031 C 2.34375 18.34375 2.332031 18.105469 2.332031 17.871094 C 2.335938 17.769531 2.339844 17.667969 2.34375 17.570312 C 2.339844 17.570312 2.210938 17.667969 2.210938 17.667969 L 2.136719 17.714844 L 2.136719 27.589844 C 2.136719 31.066406 4.933594 33.863281 8.40625 33.863281 L 27.589844 33.863281 C 31.066406 33.863281 33.863281 31.066406 33.863281 27.589844 L 33.863281 8.40625 C 33.863281 4.933594 31.066406 2.136719 27.589844 2.136719 L 15.367188 2.136719 C 15.378906 2.144531 15.375 2.144531 15.390625 2.152344 C 16.328125 2.871094 17.332031 3.667969 18.242188 4.542969 C 19.15625 5.414062 19.980469 6.363281 20.558594 7.390625 C 21.164062 8.453125 21.574219 9.703125 21.871094 10.992188 C 22.085938 11.949219 22.199219 12.90625 22.324219 13.847656 Z M 22.324219 13.847656 "/>
<path style=" stroke:none;fill-rule:evenodd;fill:rgb(100%,85.490196%,0%);fill-opacity:1;" d="M 14.140625 12.546875 C 14.226562 12.617188 14.3125 12.695312 14.394531 12.769531 C 14.566406 12.933594 14.726562 13.109375 14.878906 13.289062 C 15.03125 13.472656 15.175781 13.660156 15.3125 13.855469 C 15.445312 14.050781 15.566406 14.253906 15.683594 14.460938 C 15.796875 14.671875 15.898438 14.882812 15.992188 15.101562 C 16.085938 15.320312 16.164062 15.542969 16.234375 15.769531 C 16.273438 15.90625 16.308594 16.042969 16.339844 16.179688 C 16.402344 16.105469 16.464844 16.035156 16.53125 15.964844 C 16.695312 15.792969 16.871094 15.632812 17.050781 15.480469 C 17.230469 15.328125 17.421875 15.183594 17.617188 15.050781 C 17.8125 14.914062 18.015625 14.792969 18.222656 14.675781 C 18.429688 14.5625 18.644531 14.460938 18.859375 14.367188 C 18.878906 14.359375 18.898438 14.355469 18.917969 14.347656 C 18.617188 12.3125 18.1875 10.046875 17.625 9.050781 C 17.117188 8.160156 15.539062 6.773438 14.082031 5.566406 C 14.21875 6.109375 14.378906 6.632812 14.480469 7.195312 C 14.675781 8.277344 14.773438 9.375 14.679688 10.410156 C 14.609375 11.132812 14.378906 11.84375 14.140625 12.546875 Z M 14.140625 12.546875 "/>
<path style=" stroke:none;fill-rule:evenodd;fill:rgb(100%,85.490196%,0%);fill-opacity:1;" d="M 11.195312 9.367188 C 10.855469 9.847656 10.496094 10.320312 10.101562 10.796875 C 10.285156 10.8125 10.46875 10.835938 10.648438 10.863281 C 10.769531 10.886719 10.886719 10.914062 11.007812 10.941406 C 11.070312 10.699219 11.300781 10.261719 11.316406 10.097656 C 11.332031 9.949219 11.203125 9.5625 11.195312 9.367188 Z M 11.195312 9.367188 "/>
<path style=" stroke:none;fill-rule:evenodd;fill:rgb(12.156863%,44.313725%,12.156863%);fill-opacity:1;" d="M 11.195312 9.367188 C 11.203125 9.5625 11.332031 9.949219 11.316406 10.097656 C 11.300781 10.261719 11.070312 10.699219 11.007812 10.941406 C 11.121094 10.964844 11.230469 10.992188 11.34375 11.019531 C 11.574219 11.082031 11.796875 11.15625 12.019531 11.242188 C 12.238281 11.328125 12.457031 11.425781 12.667969 11.535156 C 12.878906 11.640625 13.085938 11.757812 13.285156 11.886719 C 13.484375 12.015625 13.675781 12.152344 13.863281 12.300781 C 13.957031 12.378906 14.050781 12.460938 14.140625 12.546875 C 14.378906 11.84375 14.609375 11.132812 14.679688 10.410156 C 14.773438 9.375 14.675781 8.277344 14.480469 7.195312 C 14.378906 6.632812 14.21875 6.109375 14.082031 5.566406 C 13.777344 5.3125 13.640625 5.0625 13.335938 4.832031 C 12.792969 4.414062 12.777344 4.441406 12.316406 4.117188 C 12.378906 4.617188 12.507812 5.070312 12.480469 5.613281 C 12.429688 6.65625 12.183594 7.757812 11.613281 8.828125 C 11.515625 9.007812 11.328125 9.1875 11.195312 9.371094 Z M 11.195312 9.367188 "/>
<path style=" stroke:none;fill-rule:evenodd;fill:rgb(14.117647%,51.764706%,14.117647%);fill-opacity:1;" d="M 12.316406 4.117188 C 12.777344 4.441406 12.792969 4.414062 13.335938 4.832031 C 15.078125 6.164062 17.011719 7.972656 17.625 9.054688 C 18.1875 10.046875 18.617188 12.3125 18.917969 14.347656 C 19.117188 14.265625 19.320312 14.1875 19.527344 14.125 C 19.757812 14.054688 19.988281 13.996094 20.21875 13.949219 C 20.449219 13.902344 20.683594 13.867188 20.921875 13.84375 C 21.15625 13.820312 21.394531 13.808594 21.628906 13.808594 C 21.796875 13.808594 21.964844 13.8125 22.132812 13.824219 C 22.195312 13.832031 22.261719 13.839844 22.324219 13.847656 C 22.199219 12.90625 22.085938 11.949219 21.871094 10.992188 C 21.574219 9.703125 21.164062 8.453125 20.558594 7.390625 C 19.980469 6.363281 19.15625 5.414062 18.242188 4.542969 C 17.332031 3.667969 16.328125 2.871094 15.390625 2.152344 C 15.375 2.144531 15.378906 2.144531 15.367188 2.136719 L 11.929688 2.136719 C 12.03125 2.429688 12.074219 2.371094 12.160156 2.714844 C 12.269531 3.128906 12.257812 3.644531 12.316406 4.117188 Z M 12.316406 4.117188 "/>
<path style=" stroke:none;fill-rule:evenodd;fill:rgb(19.607843%,71.372549%,19.607843%);fill-opacity:1;" d="M 2.136719 17.714844 L 2.210938 17.667969 C 2.210938 17.667969 4 16.503906 6.066406 14.824219 C 7.097656 13.984375 8.199219 13.019531 9.1875 11.996094 C 10.171875 10.972656 11.042969 9.890625 11.613281 8.828125 C 12.183594 7.757812 12.429688 6.65625 12.480469 5.613281 C 12.53125 4.566406 12.382812 3.574219 12.160156 2.714844 C 12.074219 2.371094 12.03125 2.429688 11.929688 2.136719 L 8.40625 2.136719 C 4.933594 2.136719 2.136719 4.933594 2.136719 8.40625 Z M 2.136719 17.714844 "/>
</g>
</svg>
