<?xml version="1.0" encoding="UTF-8"?>
<svg xmlns="http://www.w3.org/2000/svg" xmlns:xlink="http://www.w3.org/1999/xlink" width="36pt" height="36pt" viewBox="0 0 36 36" version="1.1">
<g id="surface1">
<path style=" stroke:none;fill-rule:evenodd;fill:rgb(49.411765%,6.27451%,5.490196%);fill-opacity:1;" d="M 8.40625 2.136719 L 27.59375 2.136719 C 31.054688 2.136719 33.863281 4.945312 33.863281 8.40625 L 33.863281 27.59375 C 33.863281 31.054688 31.054688 33.863281 27.59375 33.863281 L 8.40625 33.863281 C 4.945312 33.863281 2.136719 31.054688 2.136719 27.59375 L 2.136719 8.40625 C 2.136719 4.945312 4.945312 2.136719 8.40625 2.136719 Z M 8.40625 2.136719 "/>
<path style=" stroke:none;fill-rule:nonzero;fill:rgb(76.078431%,20.784314%,16.470588%);fill-opacity:1;" d="M 12.167969 8 L 23.832031 8 L 24.667969 9.667969 L 24.667969 27.167969 L 23.832031 28 L 12.167969 28 L 11.332031 27.167969 L 11.332031 9.667969 Z M 12.167969 8 "/>
<path style=" stroke:none;fill-rule:nonzero;fill:rgb(100%,100%,100%);fill-opacity:1;" d="M 12.167969 7.167969 L 23.832031 7.167969 L 23.832031 8 L 12.167969 8 Z M 12.167969 7.167969 "/>
<path style=" stroke:none;fill-rule:nonzero;fill:rgb(100%,100%,100%);fill-opacity:1;" d="M 11.332031 9.667969 L 24.667969 9.667969 L 24.667969 10.5 L 11.332031 10.5 Z M 11.332031 9.667969 "/>
<path style=" stroke:none;fill-rule:nonzero;fill:rgb(100%,100%,100%);fill-opacity:1;" d="M 11.332031 26.332031 L 24.667969 26.332031 L 24.667969 27.167969 L 11.332031 27.167969 Z M 11.332031 26.332031 "/>
<path style=" stroke:none;fill-rule:nonzero;fill:rgb(100%,100%,100%);fill-opacity:1;" d="M 12.167969 28 L 23.832031 28 L 23.832031 28.832031 L 12.167969 28.832031 Z M 12.167969 28 "/>
<path style="fill:none;stroke-width:1.191641;stroke-linecap:butt;stroke-linejoin:miter;stroke:rgb(100%,100%,100%);stroke-opacity:1;stroke-miterlimit:4;" d="M -34.097236 4.339745 L -26.446733 12.399875 " transform="matrix(0.944076,0,0,0.944076,44.331006,6.000607)"/>
<path style="fill:none;stroke-width:1.191641;stroke-linecap:butt;stroke-linejoin:miter;stroke:rgb(100%,100%,100%);stroke-opacity:1;stroke-miterlimit:4;" d="M -30.096134 8.316021 L -30.096134 15.35829 " transform="matrix(0.944076,0,0,0.944076,44.331006,6.000607)"/>
<path style=" stroke:none;fill-rule:nonzero;fill:rgb(100%,100%,100%);fill-opacity:1;" d="M 22.167969 18.417969 C 22.167969 19.566406 21.234375 20.5 20.082031 20.5 C 18.933594 20.5 18 19.566406 18 18.417969 C 18 17.265625 18.933594 16.332031 20.082031 16.332031 C 21.234375 16.332031 22.167969 17.265625 22.167969 18.417969 Z M 22.167969 18.417969 "/>
<path style=" stroke:none;fill-rule:nonzero;fill:rgb(100%,100%,100%);fill-opacity:1;" d="M 18 21.75 C 18 22.902344 17.066406 23.832031 15.917969 23.832031 C 14.765625 23.832031 13.832031 22.902344 13.832031 21.75 C 13.832031 20.597656 14.765625 19.667969 15.917969 19.667969 C 17.066406 19.667969 18 20.597656 18 21.75 Z M 18 21.75 "/>
<path style=" stroke:none;fill-rule:nonzero;fill:rgb(100%,100%,100%);fill-opacity:1;" d="M 18 14.25 C 18 15.402344 17.066406 16.332031 15.917969 16.332031 C 14.765625 16.332031 13.832031 15.402344 13.832031 14.25 C 13.832031 13.097656 14.765625 12.167969 15.917969 12.167969 C 17.066406 12.167969 18 13.097656 18 14.25 Z M 18 14.25 "/>
</g>
</svg>
