<?xml version="1.0" encoding="UTF-8"?>
<svg xmlns="http://www.w3.org/2000/svg" xmlns:xlink="http://www.w3.org/1999/xlink" width="36pt" height="36pt" viewBox="0 0 36 36" version="1.1">
<defs>
<filter id="alpha" filterUnits="objectBoundingBox" x="0%" y="0%" width="100%" height="100%">
  <feColorMatrix type="matrix" in="SourceGraphic" values="0 0 0 0 1 0 0 0 0 1 0 0 0 0 1 0 0 0 1 0"/>
</filter>
<mask id="mask0">
  <g filter="url(#alpha)">
<rect x="0" y="0" width="36" height="36" style="fill:rgb(0%,0%,0%);fill-opacity:0.980392;stroke:none;"/>
  </g>
</mask>
<clipPath id="clip1">
  <rect width="36" height="36"/>
</clipPath>
<g id="surface6" clip-path="url(#clip1)">
<path style=" stroke:none;fill-rule:evenodd;fill:rgb(30.980392%,30.980392%,30.980392%);fill-opacity:1;" d="M 8.40625 2.136719 L 27.59375 2.136719 C 31.054688 2.136719 33.863281 4.945312 33.863281 8.40625 L 33.863281 27.59375 C 33.863281 31.054688 31.054688 33.863281 27.59375 33.863281 L 8.40625 33.863281 C 4.945312 33.863281 2.136719 31.054688 2.136719 27.59375 L 2.136719 8.40625 C 2.136719 4.945312 4.945312 2.136719 8.40625 2.136719 Z M 8.40625 2.136719 "/>
</g>
</defs>
<g id="surface1">
<use xlink:href="#surface6" mask="url(#mask0)"/>
<path style=" stroke:none;fill-rule:nonzero;fill:rgb(100%,100%,100%);fill-opacity:1;" d="M 26.222656 10.261719 C 25.746094 10.238281 24.394531 10.34375 22.28125 11.8125 C 20.023438 11.128906 17.597656 11.023438 14.882812 11.8125 C 12.773438 10.34375 11.691406 10.238281 11.214844 10.261719 C 11.054688 10.269531 10.976562 10.292969 10.976562 10.292969 C 10.171875 12.375 10.679688 13.917969 10.832031 14.300781 C 9.890625 15.355469 9.3125 16.707031 9.3125 18.359375 C 9.3125 24.15625 12.757812 25.453125 16.03125 25.835938 C 15.609375 26.214844 15.226562 26.882812 15.09375 27.859375 C 14.253906 28.25 12.117188 28.914062 10.804688 26.601562 C 10.804688 26.601562 10.023438 25.148438 8.546875 25.042969 C 8.546875 25.042969 7.105469 25.023438 8.445312 25.960938 C 8.445312 25.960938 9.410156 26.429688 10.082031 28.175781 C 10.082031 28.175781 10.945312 31.121094 15.046875 30.207031 C 15.054688 31.316406 15.0625 32.035156 15.0625 32.472656 C 16.03125 32.660156 17.015625 32.757812 18 32.757812 C 19.484375 32.753906 20.957031 32.542969 22.378906 32.125 C 22.382812 31.417969 22.394531 30.332031 22.394531 28.628906 C 22.394531 27.21875 21.921875 26.292969 21.394531 25.824219 C 24.679688 25.453125 28.125 24.171875 28.125 18.359375 C 28.125 16.707031 27.554688 15.355469 26.609375 14.300781 C 26.757812 13.917969 27.265625 12.375 26.460938 10.292969 C 26.460938 10.292969 26.386719 10.269531 26.226562 10.261719 Z M 26.222656 10.261719 "/>
</g>
</svg>
