<?xml version="1.0" encoding="UTF-8"?>
<svg xmlns="http://www.w3.org/2000/svg" xmlns:xlink="http://www.w3.org/1999/xlink" width="36pt" height="36pt" viewBox="0 0 36 36" version="1.1">
<g id="surface1">
<path style=" stroke:none;fill-rule:evenodd;fill:rgb(60%,60%,60%);fill-opacity:1;" d="M 8.40625 2.136719 L 27.59375 2.136719 C 31.054688 2.136719 33.863281 4.945312 33.863281 8.40625 L 33.863281 27.59375 C 33.863281 31.054688 31.054688 33.863281 27.59375 33.863281 L 8.40625 33.863281 C 4.945312 33.863281 2.136719 31.054688 2.136719 27.59375 L 2.136719 8.40625 C 2.136719 4.945312 4.945312 2.136719 8.40625 2.136719 Z M 8.40625 2.136719 "/>
<path style=" stroke:none;fill-rule:nonzero;fill:rgb(80%,80%,80%);fill-opacity:1;" d="M 18 6.382812 C 12.578125 6.382812 11.976562 11.242188 11.976562 16.710938 L 14.558594 16.710938 C 14.492188 11.242188 15.730469 8.964844 18 8.964844 C 20.269531 8.964844 21.507812 11.242188 21.441406 16.710938 L 24.023438 16.710938 C 24.023438 11.242188 23.421875 6.382812 18 6.382812 Z M 18 6.382812 "/>
<path style=" stroke:none;fill-rule:nonzero;fill:rgb(100%,100%,100%);fill-opacity:1;" d="M 26.605469 21.011719 C 26.605469 16.257812 22.753906 12.40625 18 12.40625 C 13.246094 12.40625 9.394531 16.257812 9.394531 21.011719 C 9.394531 25.765625 13.246094 29.617188 18 29.617188 C 22.753906 29.617188 26.605469 25.765625 26.605469 21.011719 Z M 26.605469 21.011719 "/>
<path style=" stroke:none;fill-rule:nonzero;fill:rgb(30.980392%,30.980392%,30.980392%);fill-opacity:1;" d="M 24.023438 21.011719 C 24.023438 17.683594 21.328125 14.988281 18 14.988281 C 14.671875 14.988281 11.976562 17.683594 11.976562 21.011719 C 11.976562 24.339844 14.671875 27.035156 18 27.035156 C 21.328125 27.035156 24.023438 24.339844 24.023438 21.011719 Z M 24.023438 21.011719 "/>
<path style=" stroke:none;fill-rule:nonzero;fill:rgb(100%,34.901961%,41.176471%);fill-opacity:1;" d="M 21.347656 17.664062 L 19.976562 18.121094 L 18.730469 18.539062 C 17.824219 18.269531 16.84375 18.519531 16.175781 19.1875 C 15.164062 20.195312 15.164062 21.828125 16.175781 22.839844 C 17.183594 23.847656 18.816406 23.847656 19.824219 22.839844 C 20.496094 22.167969 20.742188 21.1875 20.476562 20.28125 L 20.890625 19.035156 Z M 21.347656 17.664062 "/>
</g>
</svg>
