<?xml version="1.0" encoding="UTF-8"?>
<svg xmlns="http://www.w3.org/2000/svg" xmlns:xlink="http://www.w3.org/1999/xlink" width="36pt" height="36pt" viewBox="0 0 36 36" version="1.1">
<defs>
<clipPath id="clip1">
  <rect width="36" height="36"/>
</clipPath>
<g id="surface6" clip-path="url(#clip1)">
<path style=" stroke:none;fill-rule:nonzero;fill:rgb(90.980392%,90.980392%,90.980392%);fill-opacity:1;" d="M 9 5.625 C 7.136719 5.625 5.625 7.136719 5.625 9 C 5.625 10.863281 7.136719 12.375 9 12.375 C 10.863281 12.375 12.375 10.863281 12.375 9 C 12.375 7.136719 10.863281 5.625 9 5.625 Z M 27 5.625 C 25.136719 5.625 23.625 7.136719 23.625 9 C 23.625 10.863281 25.136719 12.375 27 12.375 C 28.863281 12.375 30.375 10.863281 30.375 9 C 30.375 7.136719 28.863281 5.625 27 5.625 Z M 14.0625 12.375 C 13.128906 12.375 12.375 13.128906 12.375 14.0625 C 12.375 14.996094 13.128906 15.75 14.0625 15.75 C 14.996094 15.75 15.75 14.996094 15.75 14.0625 C 15.75 13.128906 14.996094 12.375 14.0625 12.375 Z M 21.9375 12.375 C 21.003906 12.375 20.25 13.128906 20.25 14.0625 C 20.25 14.996094 21.003906 15.75 21.9375 15.75 C 22.871094 15.75 23.625 14.996094 23.625 14.0625 C 23.625 13.128906 22.871094 12.375 21.9375 12.375 Z M 14.0625 20.25 C 13.128906 20.25 12.375 21.003906 12.375 21.9375 C 12.375 22.871094 13.128906 23.625 14.0625 23.625 C 14.996094 23.625 15.75 22.871094 15.75 21.9375 C 15.75 21.003906 14.996094 20.25 14.0625 20.25 Z M 21.9375 20.25 C 21.003906 20.25 20.25 21.003906 20.25 21.9375 C 20.25 22.871094 21.003906 23.625 21.9375 23.625 C 22.871094 23.625 23.625 22.871094 23.625 21.9375 C 23.625 21.003906 22.871094 20.25 21.9375 20.25 Z M 9 23.625 C 7.136719 23.625 5.625 25.136719 5.625 27 C 5.625 28.863281 7.136719 30.375 9 30.375 C 10.863281 30.375 12.375 28.863281 12.375 27 C 12.375 25.136719 10.863281 23.625 9 23.625 Z M 27 23.625 C 25.136719 23.625 23.625 25.136719 23.625 27 C 23.625 28.863281 25.136719 30.375 27 30.375 C 28.863281 30.375 30.375 28.863281 30.375 27 C 30.375 25.136719 28.863281 23.625 27 23.625 Z M 27 23.625 "/>
</g>
</defs>
<g id="surface1">
<path style=" stroke:none;fill-rule:evenodd;fill:rgb(30.980392%,30.980392%,30.980392%);fill-opacity:1;" d="M 8.40625 2.136719 L 27.59375 2.136719 C 31.054688 2.136719 33.863281 4.945312 33.863281 8.40625 L 33.863281 27.59375 C 33.863281 31.054688 31.054688 33.863281 27.59375 33.863281 L 8.40625 33.863281 C 4.945312 33.863281 2.136719 31.054688 2.136719 27.59375 L 2.136719 8.40625 C 2.136719 4.945312 4.945312 2.136719 8.40625 2.136719 Z M 8.40625 2.136719 "/>
<path style=" stroke:none;fill-rule:nonzero;fill:rgb(76.862745%,76.862745%,76.862745%);fill-opacity:1;" d="M 7.875 7.875 L 7.875 28.125 L 28.125 28.125 L 28.125 7.875 Z M 10.921875 10.125 L 25.078125 10.125 L 21.703125 13.5 L 14.296875 13.5 Z M 10.125 10.921875 L 13.5 14.296875 L 13.5 21.707031 L 10.125 25.082031 Z M 25.875 10.921875 L 25.875 25.082031 L 22.5 21.707031 L 22.5 14.300781 L 25.875 10.925781 Z M 14.625 14.625 L 21.375 14.625 L 21.375 21.375 L 14.625 21.375 Z M 14.296875 22.5 L 21.703125 22.5 L 25.078125 25.875 L 10.921875 25.875 Z M 14.296875 22.5 "/>
<use xlink:href="#surface6"/>
</g>
</svg>
