<?xml version="1.0" encoding="UTF-8"?>
<svg xmlns="http://www.w3.org/2000/svg" xmlns:xlink="http://www.w3.org/1999/xlink" width="36pt" height="36pt" viewBox="0 0 36 36" version="1.1">
<defs>
<clipPath id="clip1">
  <rect width="36" height="36"/>
</clipPath>
<g id="surface6" clip-path="url(#clip1)">
<path style=" stroke:none;fill-rule:nonzero;fill:rgb(100%,100%,100%);fill-opacity:1;" d="M 13.605469 6.300781 C 13.433594 6.320312 13.285156 6.460938 13.253906 6.628906 L 12.914062 8.347656 C 12.304688 8.585938 11.734375 8.914062 11.230469 9.316406 L 9.5625 8.75 C 9.386719 8.691406 9.179688 8.769531 9.085938 8.925781 L 7.476562 11.714844 C 7.386719 11.875 7.425781 12.097656 7.566406 12.214844 L 8.894531 13.382812 C 8.847656 13.699219 8.820312 14.011719 8.820312 14.339844 C 8.820312 14.664062 8.847656 14.980469 8.894531 15.292969 L 7.566406 16.460938 C 7.425781 16.582031 7.386719 16.804688 7.476562 16.964844 L 9.085938 19.75 C 9.179688 19.910156 9.386719 19.988281 9.5625 19.929688 L 11.230469 19.363281 C 11.734375 19.765625 12.304688 20.09375 12.914062 20.332031 L 13.253906 22.050781 C 13.289062 22.230469 13.460938 22.375 13.644531 22.378906 L 16.859375 22.378906 C 17.042969 22.375 17.210938 22.230469 17.246094 22.050781 L 17.585938 20.332031 C 18.195312 20.09375 18.765625 19.765625 19.269531 19.363281 L 20.9375 19.929688 C 21.113281 19.988281 21.324219 19.910156 21.417969 19.75 L 23.023438 16.964844 C 23.117188 16.804688 23.074219 16.582031 22.9375 16.460938 L 21.605469 15.292969 C 21.652344 14.980469 21.679688 14.664062 21.679688 14.339844 C 21.679688 14.011719 21.652344 13.699219 21.605469 13.382812 L 22.9375 12.214844 C 23.074219 12.097656 23.117188 11.875 23.023438 11.714844 L 21.417969 8.925781 C 21.324219 8.769531 21.113281 8.691406 20.9375 8.75 L 19.269531 9.316406 C 18.765625 8.914062 18.195312 8.585938 17.585938 8.347656 L 17.246094 6.628906 C 17.210938 6.449219 17.042969 6.304688 16.859375 6.300781 L 13.644531 6.300781 C 13.632812 6.300781 13.617188 6.300781 13.605469 6.300781 Z M 15.25 10.894531 C 17.152344 10.894531 18.695312 12.4375 18.695312 14.339844 C 18.695312 16.242188 17.152344 17.785156 15.25 17.785156 C 13.347656 17.785156 11.804688 16.242188 11.804688 14.339844 C 11.804688 12.4375 13.347656 10.894531 15.25 10.894531 Z M 15.25 10.894531 "/>
</g>
<clipPath id="clip2">
  <rect width="36" height="36"/>
</clipPath>
<g id="surface9" clip-path="url(#clip2)">
<path style=" stroke:none;fill-rule:nonzero;fill:rgb(61.176471%,88.235294%,45.098039%);fill-opacity:1;" d="M 22.765625 18.925781 C 22.652344 18.925781 22.542969 19.007812 22.511719 19.117188 L 22.167969 20.21875 C 21.75 20.332031 21.351562 20.503906 20.992188 20.734375 L 19.941406 20.242188 C 19.828125 20.191406 19.6875 20.226562 19.613281 20.324219 L 18.359375 22.035156 C 18.289062 22.136719 18.300781 22.28125 18.382812 22.371094 L 19.171875 23.234375 C 19.117188 23.433594 19.078125 23.640625 19.054688 23.851562 C 19.03125 24.066406 19.027344 24.277344 19.035156 24.484375 L 18.078125 25.152344 C 17.976562 25.222656 17.9375 25.367188 17.984375 25.476562 L 18.839844 27.417969 C 18.890625 27.53125 19.023438 27.597656 19.140625 27.570312 L 20.273438 27.320312 C 20.574219 27.617188 20.925781 27.875 21.308594 28.074219 L 21.40625 29.222656 C 21.417969 29.34375 21.519531 29.453125 21.640625 29.46875 L 23.746094 29.695312 C 23.867188 29.707031 23.988281 29.625 24.023438 29.511719 L 24.371094 28.40625 C 24.785156 28.296875 25.183594 28.121094 25.542969 27.894531 L 26.597656 28.382812 C 26.707031 28.433594 26.851562 28.398438 26.921875 28.300781 L 28.175781 26.589844 C 28.246094 26.492188 28.238281 26.34375 28.152344 26.253906 L 27.363281 25.394531 C 27.417969 25.191406 27.460938 24.988281 27.484375 24.773438 C 27.507812 24.558594 27.511719 24.351562 27.5 24.140625 L 28.457031 23.472656 C 28.558594 23.402344 28.601562 23.261719 28.550781 23.148438 L 27.699219 21.207031 C 27.648438 21.097656 27.515625 21.03125 27.398438 21.058594 L 26.261719 21.308594 C 25.960938 21.007812 25.609375 20.753906 25.226562 20.554688 L 25.128906 19.402344 C 25.117188 19.28125 25.015625 19.175781 24.898438 19.160156 L 22.789062 18.929688 C 22.78125 18.929688 22.773438 18.929688 22.765625 18.925781 Z M 23.515625 22.054688 C 24.761719 22.191406 25.660156 23.3125 25.527344 24.558594 C 25.390625 25.804688 24.269531 26.707031 23.023438 26.570312 C 21.773438 26.433594 20.875 25.3125 21.011719 24.066406 C 21.148438 22.820312 22.269531 21.917969 23.515625 22.054688 Z M 23.515625 22.054688 "/>
</g>
</defs>
<g id="surface1">
<path style=" stroke:none;fill-rule:evenodd;fill:rgb(36.470588%,70.588235%,24.313725%);fill-opacity:1;" d="M 8.40625 2.136719 L 27.59375 2.136719 C 31.054688 2.136719 33.863281 4.945312 33.863281 8.40625 L 33.863281 27.59375 C 33.863281 31.054688 31.054688 33.863281 27.59375 33.863281 L 8.40625 33.863281 C 4.945312 33.863281 2.136719 31.054688 2.136719 27.59375 L 2.136719 8.40625 C 2.136719 4.945312 4.945312 2.136719 8.40625 2.136719 Z M 8.40625 2.136719 "/>
<use xlink:href="#surface6"/>
<use xlink:href="#surface9"/>
</g>
</svg>
