<?xml version="1.0" encoding="UTF-8"?>
<svg xmlns="http://www.w3.org/2000/svg" xmlns:xlink="http://www.w3.org/1999/xlink" width="36pt" height="36pt" viewBox="0 0 36 36" version="1.1">
<defs>
<filter id="alpha" filterUnits="objectBoundingBox" x="0%" y="0%" width="100%" height="100%">
  <feColorMatrix type="matrix" in="SourceGraphic" values="0 0 0 0 1 0 0 0 0 1 0 0 0 0 1 0 0 0 1 0"/>
</filter>
<mask id="mask0">
  <g filter="url(#alpha)">
<rect x="0" y="0" width="36" height="36" style="fill:rgb(0%,0%,0%);fill-opacity:0.701961;stroke:none;"/>
  </g>
</mask>
<clipPath id="clip1">
  <rect width="36" height="36"/>
</clipPath>
<g id="surface6" clip-path="url(#clip1)">
<path style=" stroke:none;fill-rule:nonzero;fill:rgb(56.470588%,56.470588%,56.470588%);fill-opacity:1;" d="M 16.160156 9.527344 C 15.964844 9.527344 15.804688 9.6875 15.804688 9.882812 C 15.804688 10.074219 15.964844 10.234375 16.160156 10.234375 C 16.355469 10.234375 16.511719 10.074219 16.511719 9.882812 C 16.511719 9.6875 16.355469 9.527344 16.160156 9.527344 Z M 17.570312 9.527344 C 17.375 9.527344 17.21875 9.6875 17.21875 9.882812 C 17.21875 10.074219 17.375 10.234375 17.570312 10.234375 C 17.765625 10.234375 17.921875 10.074219 17.921875 9.882812 C 17.921875 9.6875 17.765625 9.527344 17.570312 9.527344 Z M 18.984375 9.527344 C 18.789062 9.527344 18.628906 9.6875 18.628906 9.882812 C 18.628906 10.074219 18.789062 10.234375 18.984375 10.234375 C 19.175781 10.234375 19.335938 10.074219 19.335938 9.882812 C 19.335938 9.6875 19.175781 9.527344 18.984375 9.527344 Z M 20.394531 9.527344 C 20.199219 9.527344 20.042969 9.6875 20.042969 9.882812 C 20.042969 10.074219 20.199219 10.234375 20.394531 10.234375 C 20.589844 10.234375 20.746094 10.074219 20.746094 9.882812 C 20.746094 9.6875 20.589844 9.527344 20.394531 9.527344 Z M 15.050781 9.699219 C 14.855469 9.832031 14.671875 9.976562 14.5 10.132812 C 14.566406 10.199219 14.65625 10.234375 14.746094 10.234375 C 14.941406 10.234375 15.101562 10.074219 15.101562 9.882812 C 15.101562 9.816406 15.082031 9.753906 15.050781 9.699219 Z M 14.746094 10.941406 C 14.550781 10.941406 14.394531 11.097656 14.394531 11.292969 C 14.394531 11.488281 14.550781 11.644531 14.746094 11.644531 C 14.941406 11.644531 15.101562 11.488281 15.101562 11.292969 C 15.101562 11.097656 14.941406 10.941406 14.746094 10.941406 Z M 16.160156 10.941406 C 15.964844 10.941406 15.804688 11.097656 15.804688 11.292969 C 15.804688 11.488281 15.964844 11.644531 16.160156 11.644531 C 16.355469 11.644531 16.511719 11.488281 16.511719 11.292969 C 16.511719 11.097656 16.355469 10.941406 16.160156 10.941406 Z M 17.570312 10.941406 C 17.375 10.941406 17.21875 11.097656 17.21875 11.292969 C 17.21875 11.488281 17.375 11.644531 17.570312 11.644531 C 17.765625 11.644531 17.921875 11.488281 17.921875 11.292969 C 17.921875 11.097656 17.765625 10.941406 17.570312 10.941406 Z M 18.984375 10.941406 C 18.789062 10.941406 18.628906 11.097656 18.628906 11.292969 C 18.628906 11.488281 18.789062 11.644531 18.984375 11.644531 C 19.175781 11.644531 19.335938 11.488281 19.335938 11.292969 C 19.335938 11.097656 19.175781 10.941406 18.984375 10.941406 Z M 20.394531 10.941406 C 20.199219 10.941406 20.042969 11.097656 20.042969 11.292969 C 20.042969 11.488281 20.199219 11.644531 20.394531 11.644531 C 20.589844 11.644531 20.746094 11.488281 20.746094 11.292969 C 20.746094 11.097656 20.589844 10.941406 20.394531 10.941406 Z M 21.808594 10.941406 C 21.613281 10.941406 21.453125 11.097656 21.453125 11.292969 C 21.453125 11.488281 21.613281 11.644531 21.808594 11.644531 C 22 11.644531 22.160156 11.488281 22.160156 11.292969 C 22.160156 11.097656 22 10.941406 21.808594 10.941406 Z M 13.660156 11.152344 C 13.5625 11.308594 13.472656 11.472656 13.394531 11.640625 C 13.5625 11.609375 13.6875 11.464844 13.6875 11.292969 C 13.6875 11.246094 13.679688 11.195312 13.660156 11.152344 Z M 13.335938 12.351562 C 13.257812 12.351562 13.183594 12.375 13.125 12.421875 C 13.085938 12.574219 13.054688 12.730469 13.03125 12.886719 C 13.097656 12.992188 13.210938 13.058594 13.335938 13.058594 C 13.53125 13.058594 13.6875 12.898438 13.6875 12.703125 C 13.6875 12.511719 13.53125 12.351562 13.335938 12.351562 Z M 14.746094 12.351562 C 14.550781 12.351562 14.394531 12.511719 14.394531 12.703125 C 14.394531 12.898438 14.550781 13.058594 14.746094 13.058594 C 14.941406 13.058594 15.101562 12.898438 15.101562 12.703125 C 15.101562 12.511719 14.941406 12.351562 14.746094 12.351562 Z M 16.160156 12.351562 C 15.964844 12.351562 15.804688 12.511719 15.804688 12.703125 C 15.804688 12.898438 15.964844 13.058594 16.160156 13.058594 C 16.355469 13.058594 16.511719 12.898438 16.511719 12.703125 C 16.511719 12.511719 16.355469 12.351562 16.160156 12.351562 Z M 17.570312 12.351562 C 17.375 12.351562 17.21875 12.511719 17.21875 12.703125 C 17.21875 12.898438 17.375 13.058594 17.570312 13.058594 C 17.765625 13.058594 17.921875 12.898438 17.921875 12.703125 C 17.921875 12.511719 17.765625 12.351562 17.570312 12.351562 Z M 18.984375 12.351562 C 18.789062 12.351562 18.628906 12.511719 18.628906 12.703125 C 18.628906 12.898438 18.789062 13.058594 18.984375 13.058594 C 19.175781 13.058594 19.335938 12.898438 19.335938 12.703125 C 19.335938 12.511719 19.175781 12.351562 18.984375 12.351562 Z M 20.394531 12.351562 C 20.199219 12.351562 20.042969 12.511719 20.042969 12.703125 C 20.042969 12.898438 20.199219 13.058594 20.394531 13.058594 C 20.589844 13.058594 20.746094 12.898438 20.746094 12.703125 C 20.746094 12.511719 20.589844 12.351562 20.394531 12.351562 Z M 21.808594 12.351562 C 21.613281 12.351562 21.453125 12.511719 21.453125 12.703125 C 21.453125 12.898438 21.613281 13.058594 21.808594 13.058594 C 22 13.058594 22.160156 12.898438 22.160156 12.703125 C 22.160156 12.511719 22 12.351562 21.808594 12.351562 Z M 13.335938 13.765625 C 13.140625 13.765625 12.980469 13.921875 12.980469 14.117188 C 12.980469 14.3125 13.140625 14.46875 13.335938 14.46875 C 13.53125 14.46875 13.6875 14.3125 13.6875 14.117188 C 13.6875 13.921875 13.53125 13.765625 13.335938 13.765625 Z M 14.746094 13.765625 C 14.550781 13.765625 14.394531 13.921875 14.394531 14.117188 C 14.394531 14.3125 14.550781 14.46875 14.746094 14.46875 C 14.941406 14.46875 15.101562 14.3125 15.101562 14.117188 C 15.101562 13.921875 14.941406 13.765625 14.746094 13.765625 Z M 16.160156 13.765625 C 15.964844 13.765625 15.804688 13.921875 15.804688 14.117188 C 15.804688 14.3125 15.964844 14.46875 16.160156 14.46875 C 16.355469 14.46875 16.511719 14.3125 16.511719 14.117188 C 16.511719 13.921875 16.355469 13.765625 16.160156 13.765625 Z M 17.570312 13.765625 C 17.375 13.765625 17.21875 13.921875 17.21875 14.117188 C 17.21875 14.3125 17.375 14.46875 17.570312 14.46875 C 17.765625 14.46875 17.921875 14.3125 17.921875 14.117188 C 17.921875 13.921875 17.765625 13.765625 17.570312 13.765625 Z M 18.984375 13.765625 C 18.789062 13.765625 18.628906 13.921875 18.628906 14.117188 C 18.628906 14.3125 18.789062 14.46875 18.984375 14.46875 C 19.175781 14.46875 19.335938 14.3125 19.335938 14.117188 C 19.335938 13.921875 19.175781 13.765625 18.984375 13.765625 Z M 20.394531 13.765625 C 20.199219 13.765625 20.042969 13.921875 20.042969 14.117188 C 20.042969 14.3125 20.199219 14.46875 20.394531 14.46875 C 20.589844 14.46875 20.746094 14.3125 20.746094 14.117188 C 20.746094 13.921875 20.589844 13.765625 20.394531 13.765625 Z M 21.808594 13.765625 C 21.613281 13.765625 21.453125 13.921875 21.453125 14.117188 C 21.453125 14.3125 21.613281 14.46875 21.808594 14.46875 C 22 14.46875 22.160156 14.3125 22.160156 14.117188 C 22.160156 13.921875 22 13.765625 21.808594 13.765625 Z M 13.335938 15.175781 C 13.15625 15.175781 13.007812 15.308594 12.984375 15.484375 C 12.988281 15.527344 12.992188 15.570312 12.992188 15.613281 C 13.03125 15.773438 13.171875 15.882812 13.335938 15.882812 C 13.53125 15.882812 13.6875 15.722656 13.6875 15.527344 C 13.6875 15.335938 13.53125 15.175781 13.335938 15.175781 Z M 14.746094 15.175781 C 14.550781 15.175781 14.394531 15.335938 14.394531 15.527344 C 14.394531 15.722656 14.550781 15.882812 14.746094 15.882812 C 14.941406 15.882812 15.101562 15.722656 15.101562 15.527344 C 15.101562 15.335938 14.941406 15.175781 14.746094 15.175781 Z M 16.160156 15.175781 C 15.964844 15.175781 15.804688 15.335938 15.804688 15.527344 C 15.804688 15.722656 15.964844 15.882812 16.160156 15.882812 C 16.355469 15.882812 16.511719 15.722656 16.511719 15.527344 C 16.511719 15.335938 16.355469 15.175781 16.160156 15.175781 Z M 17.570312 15.175781 C 17.375 15.175781 17.21875 15.335938 17.21875 15.527344 C 17.21875 15.722656 17.375 15.882812 17.570312 15.882812 C 17.765625 15.882812 17.921875 15.722656 17.921875 15.527344 C 17.921875 15.335938 17.765625 15.175781 17.570312 15.175781 Z M 18.984375 15.175781 C 18.789062 15.175781 18.628906 15.335938 18.628906 15.527344 C 18.628906 15.722656 18.789062 15.882812 18.984375 15.882812 C 19.175781 15.882812 19.335938 15.722656 19.335938 15.527344 C 19.335938 15.335938 19.175781 15.175781 18.984375 15.175781 Z M 20.394531 15.175781 C 20.199219 15.175781 20.042969 15.335938 20.042969 15.527344 C 20.042969 15.722656 20.199219 15.882812 20.394531 15.882812 C 20.589844 15.882812 20.746094 15.722656 20.746094 15.527344 C 20.746094 15.335938 20.589844 15.175781 20.394531 15.175781 Z M 21.808594 15.175781 C 21.613281 15.175781 21.453125 15.335938 21.453125 15.527344 C 21.453125 15.722656 21.613281 15.882812 21.808594 15.882812 C 22 15.882812 22.160156 15.722656 22.160156 15.527344 C 22.160156 15.335938 22 15.175781 21.808594 15.175781 Z M 13.335938 16.589844 C 13.273438 16.585938 13.210938 16.605469 13.15625 16.636719 C 13.21875 16.859375 13.292969 17.082031 13.390625 17.289062 C 13.5625 17.261719 13.6875 17.113281 13.6875 16.941406 C 13.6875 16.746094 13.53125 16.589844 13.335938 16.589844 Z M 14.746094 16.589844 C 14.550781 16.589844 14.394531 16.746094 14.394531 16.941406 C 14.394531 17.136719 14.550781 17.292969 14.746094 17.292969 C 14.941406 17.292969 15.101562 17.136719 15.101562 16.941406 C 15.101562 16.746094 14.941406 16.589844 14.746094 16.589844 Z M 16.160156 16.589844 C 15.964844 16.589844 15.804688 16.746094 15.804688 16.941406 C 15.804688 17.136719 15.964844 17.292969 16.160156 17.292969 C 16.355469 17.292969 16.511719 17.136719 16.511719 16.941406 C 16.511719 16.746094 16.355469 16.589844 16.160156 16.589844 Z M 17.570312 16.589844 C 17.375 16.589844 17.21875 16.746094 17.21875 16.941406 C 17.21875 17.136719 17.375 17.292969 17.570312 17.292969 C 17.765625 17.292969 17.921875 17.136719 17.921875 16.941406 C 17.921875 16.746094 17.765625 16.589844 17.570312 16.589844 Z M 18.984375 16.589844 C 18.789062 16.589844 18.628906 16.746094 18.628906 16.941406 C 18.628906 17.136719 18.789062 17.292969 18.984375 17.292969 C 19.175781 17.292969 19.335938 17.136719 19.335938 16.941406 C 19.335938 16.746094 19.175781 16.589844 18.984375 16.589844 Z M 20.394531 16.589844 C 20.199219 16.589844 20.042969 16.746094 20.042969 16.941406 C 20.042969 17.136719 20.199219 17.292969 20.394531 17.292969 C 20.589844 17.292969 20.746094 17.136719 20.746094 16.941406 C 20.746094 16.746094 20.589844 16.589844 20.394531 16.589844 Z M 21.808594 16.589844 C 21.613281 16.589844 21.453125 16.746094 21.453125 16.941406 C 21.453125 17.136719 21.613281 17.292969 21.808594 17.292969 C 22 17.292969 22.160156 17.136719 22.160156 16.941406 C 22.160156 16.746094 22 16.589844 21.808594 16.589844 Z M 14.746094 18 C 14.550781 18 14.394531 18.15625 14.394531 18.351562 C 14.394531 18.546875 14.550781 18.707031 14.746094 18.707031 C 14.941406 18.707031 15.101562 18.546875 15.101562 18.351562 C 15.101562 18.15625 14.941406 18 14.746094 18 Z M 16.160156 18 C 15.964844 18 15.804688 18.15625 15.804688 18.351562 C 15.804688 18.546875 15.964844 18.707031 16.160156 18.707031 C 16.355469 18.707031 16.511719 18.546875 16.511719 18.351562 C 16.511719 18.15625 16.355469 18 16.160156 18 Z M 17.570312 18 C 17.375 18 17.21875 18.15625 17.21875 18.351562 C 17.21875 18.546875 17.375 18.707031 17.570312 18.707031 C 17.765625 18.707031 17.921875 18.546875 17.921875 18.351562 C 17.921875 18.15625 17.765625 18 17.570312 18 Z M 18.984375 18 C 18.789062 18 18.628906 18.15625 18.628906 18.351562 C 18.628906 18.546875 18.789062 18.707031 18.984375 18.707031 C 19.175781 18.707031 19.335938 18.546875 19.335938 18.351562 C 19.335938 18.15625 19.175781 18 18.984375 18 Z M 20.394531 18 C 20.199219 18 20.042969 18.15625 20.042969 18.351562 C 20.042969 18.546875 20.199219 18.707031 20.394531 18.707031 C 20.589844 18.707031 20.746094 18.546875 20.746094 18.351562 C 20.746094 18.15625 20.589844 18 20.394531 18 Z M 21.808594 18 C 21.613281 18 21.453125 18.15625 21.453125 18.351562 C 21.453125 18.445312 21.492188 18.535156 21.554688 18.601562 C 21.71875 18.433594 21.875 18.253906 22.011719 18.066406 C 21.949219 18.023438 21.878906 18 21.808594 18 Z M 16.160156 19.410156 C 16 19.414062 15.863281 19.515625 15.820312 19.667969 C 16.03125 19.761719 16.25 19.847656 16.480469 19.914062 C 16.5 19.867188 16.511719 19.816406 16.511719 19.765625 C 16.511719 19.570312 16.355469 19.410156 16.160156 19.410156 Z M 17.570312 19.410156 C 17.375 19.410156 17.21875 19.570312 17.21875 19.765625 C 17.21875 19.910156 17.304688 20.042969 17.441406 20.09375 C 17.515625 20.101562 17.589844 20.101562 17.664062 20.105469 C 17.816406 20.0625 17.921875 19.921875 17.921875 19.765625 C 17.921875 19.570312 17.765625 19.410156 17.570312 19.410156 Z M 18.984375 19.410156 C 18.789062 19.410156 18.628906 19.570312 18.628906 19.765625 C 18.628906 19.875 18.679688 19.976562 18.765625 20.042969 C 18.945312 20.015625 19.121094 19.976562 19.292969 19.929688 C 19.320312 19.878906 19.335938 19.824219 19.335938 19.765625 C 19.335938 19.570312 19.175781 19.410156 18.984375 19.410156 Z M 20.394531 19.410156 C 20.242188 19.410156 20.105469 19.511719 20.058594 19.65625 C 20.210938 19.585938 20.355469 19.507812 20.496094 19.425781 C 20.464844 19.417969 20.429688 19.410156 20.394531 19.410156 Z M 20.394531 19.410156 "/>
</g>
</defs>
<g id="surface1">
<path style=" stroke:none;fill-rule:evenodd;fill:rgb(56.470588%,56.470588%,56.470588%);fill-opacity:1;" d="M 8.40625 2.136719 L 27.59375 2.136719 C 31.054688 2.136719 33.863281 4.945312 33.863281 8.40625 L 33.863281 27.59375 C 33.863281 31.054688 31.054688 33.863281 27.59375 33.863281 L 8.40625 33.863281 C 4.945312 33.863281 2.136719 31.054688 2.136719 27.59375 L 2.136719 8.40625 C 2.136719 4.945312 4.945312 2.136719 8.40625 2.136719 Z M 8.40625 2.136719 "/>
<path style=" stroke:none;fill-rule:nonzero;fill:rgb(30.980392%,30.980392%,30.980392%);fill-opacity:1;" d="M 23.648438 27.179688 L 23.648438 25.765625 L 12.351562 25.765625 L 12.351562 27.179688 Z M 23.648438 27.179688 "/>
<path style=" stroke:none;fill-rule:nonzero;fill:rgb(30.980392%,30.980392%,30.980392%);fill-opacity:1;" d="M 17.292969 25.765625 L 18.707031 25.765625 L 18.707031 22.234375 L 17.292969 22.234375 Z M 17.292969 25.765625 "/>
<path style=" stroke:none;fill-rule:nonzero;fill:rgb(30.980392%,30.980392%,30.980392%);fill-opacity:1;" d="M 10.941406 15.882812 L 10.941406 17.058594 C 10.941406 20.316406 14.089844 22.941406 18 22.941406 C 21.910156 22.941406 25.058594 20.316406 25.058594 17.058594 L 25.058594 15.882812 L 23.648438 15.882812 L 23.648438 16.824219 C 23.648438 19.429688 21.128906 21.53125 18 21.53125 C 14.871094 21.53125 12.351562 19.429688 12.351562 16.824219 L 12.351562 15.882812 Z M 10.941406 15.882812 "/>
<path style=" stroke:none;fill-rule:nonzero;fill:rgb(100%,100%,100%);fill-opacity:1;" d="M 22.941406 15.410156 L 22.941406 13.527344 C 22.941406 10.929688 20.730469 8.820312 18 8.820312 C 15.269531 8.820312 13.058594 10.929688 13.058594 13.527344 L 13.058594 15.410156 C 13.058594 18.011719 15.269531 20.117188 18 20.117188 C 20.730469 20.117188 22.941406 18.011719 22.941406 15.410156 Z M 22.941406 15.410156 "/>
<use xlink:href="#surface6" mask="url(#mask0)"/>
</g>
</svg>
