<?xml version="1.0" encoding="UTF-8"?>
<svg xmlns="http://www.w3.org/2000/svg" xmlns:xlink="http://www.w3.org/1999/xlink" width="36pt" height="36pt" viewBox="0 0 36 36" version="1.1">
<g id="surface1">
<path style=" stroke:none;fill-rule:evenodd;fill:rgb(20.392157%,39.607843%,64.313725%);fill-opacity:1;" d="M 8.40625 2.136719 L 27.59375 2.136719 C 31.054688 2.136719 33.863281 4.945312 33.863281 8.40625 L 33.863281 27.59375 C 33.863281 31.054688 31.054688 33.863281 27.59375 33.863281 L 8.40625 33.863281 C 4.945312 33.863281 2.136719 31.054688 2.136719 27.59375 L 2.136719 8.40625 C 2.136719 4.945312 4.945312 2.136719 8.40625 2.136719 Z M 8.40625 2.136719 "/>
<path style=" stroke:none;fill-rule:evenodd;fill:rgb(100%,100%,100%);fill-opacity:1;" d="M 9.5625 14.0625 C 9.5625 14.0625 9.023438 14.050781 8.46875 14.332031 C 7.910156 14.609375 7.3125 15.28125 7.3125 16.3125 L 8.4375 16.3125 C 8.4375 15.1875 9.5625 15.1875 9.5625 15.1875 C 9.5625 15.1875 10.6875 15.1875 10.6875 16.3125 C 10.6875 16.734375 10.542969 17.050781 10.28125 17.390625 C 10.015625 17.726562 9.625 18.058594 9.203125 18.410156 C 8.78125 18.761719 8.328125 19.132812 7.960938 19.605469 C 7.589844 20.074219 7.3125 20.671875 7.3125 21.375 L 7.3125 21.9375 L 11.8125 21.9375 L 11.8125 20.8125 L 8.539062 20.8125 C 8.609375 20.636719 8.710938 20.46875 8.84375 20.296875 C 9.109375 19.960938 9.5 19.628906 9.921875 19.277344 C 10.34375 18.925781 10.796875 18.554688 11.164062 18.082031 C 11.535156 17.613281 11.8125 17.015625 11.8125 16.3125 C 11.8125 15.28125 11.214844 14.609375 10.65625 14.332031 C 10.101562 14.054688 9.5625 14.0625 9.5625 14.0625 Z M 9.5625 14.0625 "/>
<path style=" stroke:none;fill-rule:nonzero;fill:rgb(100%,100%,100%);fill-opacity:1;" d="M 15.1875 14.0625 C 13.949219 14.0625 12.9375 15.074219 12.9375 16.3125 L 12.9375 19.6875 C 12.9375 20.925781 13.949219 21.9375 15.1875 21.9375 C 16.425781 21.9375 17.4375 20.925781 17.4375 19.6875 L 17.4375 16.3125 C 17.4375 15.074219 16.425781 14.0625 15.1875 14.0625 Z M 15.1875 15.1875 C 15.820312 15.1875 16.3125 15.679688 16.3125 16.3125 L 16.3125 19.6875 C 16.3125 20.320312 15.820312 20.8125 15.1875 20.8125 C 14.554688 20.8125 14.0625 20.320312 14.0625 19.6875 L 14.0625 16.3125 C 14.0625 15.679688 14.554688 15.1875 15.1875 15.1875 Z M 15.1875 15.1875 "/>
<path style=" stroke:none;fill-rule:evenodd;fill:rgb(100%,100%,100%);fill-opacity:1;" d="M 19.6875 14.0625 L 19.6875 17.4375 L 21.9375 17.4375 L 21.9375 14.0625 L 23.0625 14.0625 L 23.0625 21.9375 L 21.9375 21.9375 L 21.9375 18.5625 L 18.5625 18.5625 L 18.5625 14.0625 L 19.6875 14.0625 "/>
<path style=" stroke:none;fill-rule:nonzero;fill:rgb(100%,100%,100%);fill-opacity:1;" d="M 26.4375 14.0625 C 25.199219 14.0625 24.1875 15.074219 24.1875 16.3125 C 24.1875 16.988281 24.496094 17.585938 24.96875 18 C 24.496094 18.414062 24.1875 19.011719 24.1875 19.6875 C 24.1875 20.925781 25.199219 21.9375 26.4375 21.9375 C 27.675781 21.9375 28.6875 20.925781 28.6875 19.6875 C 28.6875 19.011719 28.378906 18.414062 27.90625 18 C 28.378906 17.585938 28.6875 16.988281 28.6875 16.3125 C 28.6875 15.074219 27.675781 14.0625 26.4375 14.0625 Z M 26.4375 15.1875 C 27.070312 15.1875 27.5625 15.679688 27.5625 16.3125 C 27.5625 16.945312 27.070312 17.4375 26.4375 17.4375 C 25.804688 17.4375 25.3125 16.945312 25.3125 16.3125 C 25.3125 15.679688 25.804688 15.1875 26.4375 15.1875 Z M 26.4375 18.5625 C 27.070312 18.5625 27.5625 19.054688 27.5625 19.6875 C 27.5625 20.320312 27.070312 20.8125 26.4375 20.8125 C 25.804688 20.8125 25.3125 20.320312 25.3125 19.6875 C 25.3125 19.054688 25.804688 18.5625 26.4375 18.5625 Z M 26.4375 18.5625 "/>
</g>
</svg>
