<?xml version="1.0" encoding="UTF-8"?>
<svg xmlns="http://www.w3.org/2000/svg" xmlns:xlink="http://www.w3.org/1999/xlink" width="36pt" height="36pt" viewBox="0 0 36 36" version="1.1">
<g id="surface1">
<path style=" stroke:none;fill-rule:evenodd;fill:rgb(100%,49.019608%,0%);fill-opacity:1;" d="M 8.40625 2.136719 L 27.59375 2.136719 C 31.054688 2.136719 33.863281 4.945312 33.863281 8.40625 L 33.863281 27.59375 C 33.863281 31.054688 31.054688 33.863281 27.59375 33.863281 L 8.40625 33.863281 C 4.945312 33.863281 2.136719 31.054688 2.136719 27.59375 L 2.136719 8.40625 C 2.136719 4.945312 4.945312 2.136719 8.40625 2.136719 Z M 8.40625 2.136719 "/>
<path style=" stroke:none;fill-rule:evenodd;fill:rgb(100%,49.019608%,0%);fill-opacity:1;" d="M 32.03125 3.96875 C 30.898438 2.835938 29.332031 2.136719 27.59375 2.136719 L 8.410156 2.136719 C 4.933594 2.136719 2.136719 4.933594 2.136719 8.40625 L 2.136719 27.589844 C 2.136719 31.066406 4.933594 33.863281 8.410156 33.863281 L 18 33.863281 L 18 18 Z M 32.03125 3.96875 "/>
<path style=" stroke:none;fill-rule:evenodd;fill:rgb(100%,56.470588%,14.509804%);fill-opacity:1;" d="M 32.03125 3.96875 L 18 18 L 18 33.863281 L 27.59375 33.863281 C 31.066406 33.863281 33.863281 31.066406 33.863281 27.589844 L 33.863281 8.40625 C 33.863281 6.667969 33.164062 5.101562 32.03125 3.96875 Z M 32.03125 3.96875 "/>
<path style=" stroke:none;fill-rule:nonzero;fill:rgb(36.862745%,36.862745%,36.862745%);fill-opacity:1;" d="M 26.507812 8.9375 L 17.445312 17.445312 L 18.554688 18.558594 L 27.0625 9.492188 Z M 26.507812 8.9375 "/>
<path style=" stroke:none;fill-rule:nonzero;fill:rgb(100%,100%,100%);fill-opacity:1;" d="M 17.613281 18 L 17.613281 30.375 L 18.386719 30.375 L 18.386719 18 Z M 17.613281 18 "/>
<path style=" stroke:none;fill-rule:nonzero;fill:rgb(24.705882%,24.705882%,24.705882%);fill-opacity:1;" d="M 12.097656 11.53125 L 11.539062 12.085938 L 17.445312 18.558594 L 18.558594 17.445312 Z M 12.097656 11.53125 "/>
<path style=" stroke:none;fill-rule:nonzero;fill:rgb(24.705882%,24.705882%,24.705882%);fill-opacity:1;" d="M 18.773438 18 C 18.773438 18.429688 18.429688 18.773438 18 18.773438 C 17.574219 18.773438 17.226562 18.429688 17.226562 18 C 17.226562 17.574219 17.574219 17.226562 18 17.226562 C 18.429688 17.226562 18.773438 17.574219 18.773438 18 Z M 18.773438 18 "/>
</g>
</svg>
