<?xml version="1.0" encoding="UTF-8"?>
<svg xmlns="http://www.w3.org/2000/svg" xmlns:xlink="http://www.w3.org/1999/xlink" width="36pt" height="36pt" viewBox="0 0 36 36" version="1.1">
<g id="surface1">
<path style=" stroke:none;fill-rule:evenodd;fill:rgb(48.235294%,35.294118%,71.764706%);fill-opacity:1;" d="M 8.40625 2.136719 L 27.59375 2.136719 C 31.054688 2.136719 33.863281 4.945312 33.863281 8.40625 L 33.863281 27.59375 C 33.863281 31.054688 31.054688 33.863281 27.59375 33.863281 L 8.40625 33.863281 C 4.945312 33.863281 2.136719 31.054688 2.136719 27.59375 L 2.136719 8.40625 C 2.136719 4.945312 4.945312 2.136719 8.40625 2.136719 Z M 8.40625 2.136719 "/>
<path style=" stroke:none;fill-rule:evenodd;fill:rgb(100%,100%,100%);fill-opacity:1;" d="M 9 6.1875 L 7.875 10.6875 L 7.875 27.5625 L 12.375 27.5625 L 12.375 29.8125 L 14.625 29.8125 L 16.875 27.5625 L 20.25 27.5625 L 28.125 19.6875 L 28.125 6.1875 Z M 11.25 7.3125 L 27 7.3125 L 27 19.125 L 24.1875 21.9375 L 18 21.9375 L 14.625 25.3125 L 14.625 21.9375 L 11.25 21.9375 Z M 15.75 10.6875 L 15.75 17.4375 L 18 17.4375 L 18 10.6875 Z M 21.375 10.6875 L 21.375 17.4375 L 23.625 17.4375 L 23.625 10.6875 Z M 21.375 10.6875 "/>
</g>
</svg>
