<?xml version="1.0" encoding="UTF-8"?>
<svg xmlns="http://www.w3.org/2000/svg" xmlns:xlink="http://www.w3.org/1999/xlink" width="36pt" height="36pt" viewBox="0 0 36 36" version="1.1">
<g id="surface1">
<path style=" stroke:none;fill-rule:evenodd;fill:rgb(29.411765%,68.235294%,30.980392%);fill-opacity:1;" d="M 8.40625 2.136719 L 27.59375 2.136719 C 31.054688 2.136719 33.863281 4.945312 33.863281 8.40625 L 33.863281 27.59375 C 33.863281 31.054688 31.054688 33.863281 27.59375 33.863281 L 8.40625 33.863281 C 4.945312 33.863281 2.136719 31.054688 2.136719 27.59375 L 2.136719 8.40625 C 2.136719 4.945312 4.945312 2.136719 8.40625 2.136719 Z M 8.40625 2.136719 "/>
<path style=" stroke:none;fill-rule:nonzero;fill:rgb(69.803922%,100%,63.921569%);fill-opacity:1;" d="M 9.5625 10.96875 L 9.5625 25.03125 L 26.4375 25.03125 L 26.4375 10.96875 Z M 10.96875 12.375 L 16.59375 12.375 L 16.59375 15.1875 L 10.96875 15.1875 Z M 17.996094 12.375 L 24.996094 12.375 L 24.996094 15.1875 L 17.996094 15.1875 Z M 10.972656 16.59375 L 16.597656 16.59375 L 16.597656 19.40625 L 10.972656 19.40625 Z M 18 16.59375 L 25 16.59375 L 25 19.40625 L 18 19.40625 Z M 10.972656 20.8125 L 16.597656 20.8125 L 16.597656 23.625 L 10.972656 23.625 Z M 18 20.8125 L 25 20.8125 L 25 23.625 L 18 23.625 Z M 18 20.8125 "/>
</g>
</svg>
