<?xml version="1.0" encoding="UTF-8"?>
<svg xmlns="http://www.w3.org/2000/svg" xmlns:xlink="http://www.w3.org/1999/xlink" width="36pt" height="36pt" viewBox="0 0 36 36" version="1.1">
<g id="surface1">
<path style=" stroke:none;fill-rule:evenodd;fill:rgb(27.843137%,54.901961%,74.901961%);fill-opacity:1;" d="M 8.40625 2.136719 L 27.59375 2.136719 C 31.054688 2.136719 33.863281 4.945312 33.863281 8.40625 L 33.863281 27.59375 C 33.863281 31.054688 31.054688 33.863281 27.59375 33.863281 L 8.40625 33.863281 C 4.945312 33.863281 2.136719 31.054688 2.136719 27.59375 L 2.136719 8.40625 C 2.136719 4.945312 4.945312 2.136719 8.40625 2.136719 Z M 8.40625 2.136719 "/>
<path style=" stroke:none;fill-rule:nonzero;fill:rgb(100%,100%,100%);fill-opacity:1;" d="M 15.609375 6.898438 L 15.511719 6.957031 L 12.621094 8.179688 L 13.21875 11.167969 L 10.464844 12.425781 L 9.035156 11.167969 L 6.046875 14.15625 L 7.753906 16.007812 L 7.753906 22.203125 L 6.046875 21.726562 L 6.046875 23.71875 C 8.453125 27.394531 12.621094 29.101562 18 29.101562 C 23.378906 29.101562 27.546875 27.394531 29.953125 23.71875 L 29.953125 21.726562 L 28.246094 22.203125 L 28.246094 16.007812 L 29.953125 14.15625 L 26.964844 11.167969 L 25.535156 12.425781 L 22.78125 11.167969 L 23.378906 8.179688 L 20.390625 6.898438 L 19.367188 8.605469 L 16.628906 8.605469 Z M 15.609375 6.898438 "/>
<path style=" stroke:none;fill-rule:nonzero;fill:rgb(27.843137%,54.901961%,74.901961%);fill-opacity:1;" d="M 12.023438 15.4375 C 13.4375 15.4375 14.585938 16.585938 14.585938 18 C 14.585938 19.414062 13.4375 20.5625 12.023438 20.5625 C 10.609375 20.5625 9.460938 19.414062 9.460938 18 C 9.460938 16.585938 10.609375 15.4375 12.023438 15.4375 Z M 12.023438 15.4375 "/>
<path style=" stroke:none;fill-rule:nonzero;fill:rgb(20.784314%,20.784314%,20.784314%);fill-opacity:1;" d="M 13.730469 18 C 13.730469 18.941406 12.964844 19.707031 12.023438 19.707031 C 11.078125 19.707031 10.316406 18.941406 10.316406 18 C 10.316406 17.054688 11.078125 16.292969 12.023438 16.292969 C 12.964844 16.292969 13.730469 17.054688 13.730469 18 Z M 13.730469 18 "/>
<path style=" stroke:none;fill-rule:nonzero;fill:rgb(27.843137%,54.901961%,74.901961%);fill-opacity:1;" d="M 18 17.144531 C 18.472656 17.144531 18.855469 17.527344 18.855469 18 L 18.855469 19.707031 C 18.855469 20.179688 18.472656 20.5625 18 20.5625 C 17.527344 20.5625 17.144531 20.179688 17.144531 19.707031 L 17.144531 18 C 17.144531 17.527344 17.527344 17.144531 18 17.144531 Z M 18 17.144531 "/>
<path style=" stroke:none;fill-rule:nonzero;fill:rgb(27.843137%,54.901961%,74.901961%);fill-opacity:1;" d="M 23.976562 15.4375 C 25.390625 15.4375 26.539062 16.585938 26.539062 18 C 26.539062 19.414062 25.390625 20.5625 23.976562 20.5625 C 22.5625 20.5625 21.414062 19.414062 21.414062 18 C 21.414062 16.585938 22.5625 15.4375 23.976562 15.4375 Z M 23.976562 15.4375 "/>
<path style=" stroke:none;fill-rule:nonzero;fill:rgb(20.784314%,20.784314%,20.784314%);fill-opacity:1;" d="M 25.683594 18 C 25.683594 18.945312 24.921875 19.707031 23.976562 19.707031 C 23.035156 19.707031 22.269531 18.945312 22.269531 18 C 22.269531 17.058594 23.035156 16.292969 23.976562 16.292969 C 24.921875 16.292969 25.683594 17.058594 25.683594 18 Z M 25.683594 18 "/>
<path style=" stroke:none;fill-rule:nonzero;fill:rgb(27.843137%,54.901961%,74.901961%);fill-opacity:1;" d="M 6.367188 20.300781 L 6.175781 21.132812 L 7.753906 21.496094 L 7.753906 23.054688 L 10.316406 24.242188 L 10.316406 22.414062 L 12.023438 22.703125 L 12.023438 24.335938 L 16.292969 24.988281 L 16.292969 23.125 L 19.707031 23.125 L 19.707031 24.988281 L 23.976562 24.335938 L 23.976562 22.703125 L 25.683594 22.414062 L 25.683594 24.242188 L 28.246094 23.054688 L 28.246094 21.496094 L 29.824219 21.132812 L 29.632812 20.300781 L 27.394531 20.8125 L 27.394531 22.507812 L 26.539062 22.90625 L 26.539062 21.402344 L 23.125 21.984375 L 23.125 23.605469 L 20.5625 23.992188 L 20.5625 22.269531 L 15.4375 22.269531 L 15.4375 23.992188 L 12.875 23.605469 L 12.875 21.984375 L 9.460938 21.402344 L 9.460938 22.90625 L 8.605469 22.507812 L 8.605469 20.8125 Z M 6.367188 20.300781 "/>
</g>
</svg>
