<?xml version="1.0" encoding="UTF-8"?>
<svg xmlns="http://www.w3.org/2000/svg" xmlns:xlink="http://www.w3.org/1999/xlink" width="36pt" height="36pt" viewBox="0 0 36 36" version="1.1">
<g id="surface1">
<path style=" stroke:none;fill-rule:nonzero;fill:rgb(86.666667%,30.196078%,24.313725%);fill-opacity:1;" d="M 33.9375 7.6875 C 33.867188 7.09375 33.8125 6.492188 33.585938 5.964844 C 33.265625 5.210938 32.800781 4.539062 32.226562 3.96875 C 31.652344 3.402344 30.964844 2.945312 30.203125 2.628906 C 29.445312 2.3125 28.605469 2.136719 27.726562 2.136719 L 8.273438 2.136719 C 7.394531 2.136719 6.554688 2.3125 5.796875 2.628906 C 5.035156 2.945312 4.347656 3.402344 3.773438 3.96875 C 3.199219 4.539062 2.734375 5.210938 2.414062 5.964844 C 2.09375 6.714844 1.917969 7.539062 1.917969 8.410156 L 1.917969 11.414062 L 8.242188 22.222656 L 8.417969 22.574219 L 8.464844 22.601562 L 8.863281 23.285156 L 12.53125 26.195312 L 13.550781 25.761719 L 14.71875 26.492188 C 14.578125 26.238281 14.441406 25.863281 14.304688 25.445312 L 21.167969 22.554688 L 14.066406 10.417969 C 14.714844 8.941406 15.851562 7.90625 17.84375 7.6875 Z M 33.9375 7.6875 "/>
<path style=" stroke:none;fill-rule:nonzero;fill:rgb(100%,80.784314%,25.490196%);fill-opacity:1;" d="M 20.8125 33.863281 L 27.8125 33.863281 C 28.679688 33.863281 29.507812 33.691406 30.257812 33.375 C 31.007812 33.058594 31.683594 32.597656 32.25 32.03125 C 32.816406 31.464844 33.277344 30.789062 33.59375 30.039062 C 33.910156 29.289062 34.082031 28.460938 34.082031 27.59375 L 34.082031 8.410156 C 34.082031 8.152344 33.96875 7.933594 33.9375 7.6875 L 18.089844 7.6875 C 18.066406 7.6875 21.367188 9.15625 22.757812 9.957031 C 26.3125 12.011719 26.679688 19.339844 26.691406 22.308594 L 27.289062 22.652344 L 26.679688 23.707031 C 26.679688 23.707031 26.679688 23.753906 26.679688 23.753906 L 26.449219 24.101562 Z M 20.8125 33.863281 "/>
<path style=" stroke:none;fill-rule:nonzero;fill:rgb(6.27451%,62.352941%,35.686275%);fill-opacity:1;" d="M 1.925781 9.125 L 1.925781 27.59375 C 1.925781 28.460938 2.101562 29.289062 2.417969 30.039062 C 2.734375 30.789062 3.191406 31.464844 3.757812 32.03125 C 4.324219 32.597656 5 33.058594 5.75 33.375 C 6.5 33.691406 7.328125 33.863281 8.199219 33.863281 L 20.8125 33.863281 L 27.722656 22.375 C 26.941406 23.648438 23.679688 25.28125 22.289062 26.085938 C 17.835938 28.65625 12.183594 26.992188 9.613281 22.542969 Z M 1.925781 9.125 "/>
<path style=" stroke:none;fill-rule:nonzero;fill:rgb(100%,100%,100%);fill-opacity:1;" d="M 28.382812 18 C 28.382812 12.300781 23.765625 7.683594 18.070312 7.683594 C 12.371094 7.683594 7.753906 12.300781 7.753906 18 C 7.753906 23.695312 12.371094 28.316406 18.070312 28.316406 C 23.765625 28.316406 28.382812 23.695312 28.382812 18 Z M 28.382812 18 "/>
<path style=" stroke:none;fill-rule:nonzero;fill:rgb(27.058824%,52.941176%,95.294118%);fill-opacity:1;" d="M 25.4375 18 C 25.4375 13.929688 22.136719 10.632812 18.070312 10.632812 C 14 10.632812 10.699219 13.929688 10.699219 18 C 10.699219 22.070312 14 25.367188 18.070312 25.367188 C 22.136719 25.367188 25.4375 22.070312 25.4375 18 Z M 25.4375 18 "/>
</g>
</svg>
