<?xml version="1.0" encoding="UTF-8"?>
<svg xmlns="http://www.w3.org/2000/svg" xmlns:xlink="http://www.w3.org/1999/xlink" width="36pt" height="36pt" viewBox="0 0 36 36" version="1.1">
<defs>
<clipPath id="clip1">
  <rect width="36" height="36"/>
</clipPath>
<g id="surface6" clip-path="url(#clip1)">
<path style=" stroke:none;fill-rule:nonzero;fill:rgb(32.156863%,56.078431%,96.078431%);fill-opacity:1;" d="M 13.273438 17.605469 L 13.273438 18.394531 L 21.9375 18.394531 L 21.9375 17.605469 Z M 13.273438 19.96875 L 13.273438 20.757812 L 21.9375 20.757812 L 21.9375 19.96875 Z M 13.273438 22.332031 L 13.273438 23.117188 L 21.9375 23.117188 L 21.9375 22.332031 Z M 13.273438 24.695312 L 13.273438 25.480469 L 19.574219 25.480469 L 19.574219 24.695312 Z M 13.273438 24.695312 "/>
</g>
</defs>
<g id="surface1">
<path style=" stroke:none;fill-rule:evenodd;fill:rgb(32.156863%,56.078431%,96.078431%);fill-opacity:1;" d="M 8.40625 2.136719 L 27.59375 2.136719 C 31.054688 2.136719 33.863281 4.945312 33.863281 8.40625 L 33.863281 27.59375 C 33.863281 31.054688 31.054688 33.863281 27.59375 33.863281 L 8.40625 33.863281 C 4.945312 33.863281 2.136719 31.054688 2.136719 27.59375 L 2.136719 8.40625 C 2.136719 4.945312 4.945312 2.136719 8.40625 2.136719 Z M 8.40625 2.136719 "/>
<path style=" stroke:none;fill-rule:nonzero;fill:rgb(100%,100%,100%);fill-opacity:1;" d="M 11.109375 8.15625 C 10.5625 8.15625 10.125 8.59375 10.125 9.140625 L 10.125 26.859375 C 10.125 27.40625 10.5625 27.84375 11.109375 27.84375 L 24.890625 27.84375 C 25.4375 27.84375 25.875 27.40625 25.875 26.859375 L 25.875 14.457031 L 20.460938 13.570312 L 19.574219 8.15625 Z M 11.109375 8.15625 "/>
<path style=" stroke:none;fill-rule:nonzero;fill:rgb(64.705882%,77.254902%,97.647059%);fill-opacity:1;" d="M 19.574219 8.15625 L 19.574219 13.40625 C 19.574219 13.984375 20.046875 14.457031 20.625 14.457031 L 25.875 14.457031 Z M 19.574219 8.15625 "/>
<use xlink:href="#surface6"/>
</g>
</svg>
