<?xml version="1.0" encoding="UTF-8"?>
<svg xmlns="http://www.w3.org/2000/svg" xmlns:xlink="http://www.w3.org/1999/xlink" width="36pt" height="36pt" viewBox="0 0 36 36" version="1.1">
<g id="surface1">
<path style=" stroke:none;fill-rule:evenodd;fill:rgb(92.156863%,30.196078%,15.294118%);fill-opacity:1;" d="M 8.40625 2.136719 L 27.59375 2.136719 C 31.054688 2.136719 33.863281 4.945312 33.863281 8.40625 L 33.863281 27.59375 C 33.863281 31.054688 31.054688 33.863281 27.59375 33.863281 L 8.40625 33.863281 C 4.945312 33.863281 2.136719 31.054688 2.136719 27.59375 L 2.136719 8.40625 C 2.136719 4.945312 4.945312 2.136719 8.40625 2.136719 Z M 8.40625 2.136719 "/>
<path style=" stroke:none;fill-rule:nonzero;fill:rgb(100%,100%,100%);fill-opacity:1;" d="M 27.5625 16.675781 L 9.785156 6.519531 C 9.023438 6.09375 8.34375 6.132812 7.933594 6.535156 C 7.636719 6.816406 7.480469 7.269531 7.480469 7.859375 L 7.480469 28.128906 C 7.480469 28.71875 7.652344 29.175781 7.933594 29.457031 C 8.359375 29.871094 9.023438 29.910156 9.785156 29.46875 L 27.5625 19.3125 C 28.839844 18.589844 28.839844 17.414062 27.5625 16.675781 Z M 27.5625 16.675781 "/>
<path style=" stroke:none;fill-rule:nonzero;fill:rgb(100%,84.313725%,22.352941%);fill-opacity:1;" d="M 18 8.742188 C 16.855469 8.742188 15.761719 8.964844 14.757812 9.363281 L 14.753906 9.359375 C 14.746094 9.367188 14.734375 9.371094 14.726562 9.375 C 14.496094 9.464844 14.269531 9.570312 14.046875 9.683594 C 14.007812 9.703125 13.964844 9.722656 13.921875 9.742188 C 13.707031 9.855469 13.496094 9.980469 13.289062 10.109375 C 13.246094 10.136719 13.203125 10.160156 13.164062 10.1875 C 12.96875 10.3125 12.78125 10.453125 12.597656 10.59375 C 12.546875 10.632812 12.496094 10.671875 12.445312 10.710938 C 12.28125 10.84375 12.125 10.988281 11.96875 11.132812 C 11.90625 11.1875 11.847656 11.242188 11.789062 11.296875 C 11.597656 11.484375 11.414062 11.683594 11.238281 11.890625 C 11.230469 11.902344 11.21875 11.914062 11.207031 11.925781 C 10.460938 12.820312 9.890625 13.867188 9.546875 15.007812 C 9.542969 15.023438 9.539062 15.039062 9.535156 15.050781 C 9.453125 15.320312 9.386719 15.589844 9.332031 15.867188 C 9.324219 15.898438 9.320312 15.933594 9.316406 15.96875 C 9.269531 16.214844 9.230469 16.460938 9.207031 16.714844 C 9.175781 17.003906 9.164062 17.289062 9.160156 17.578125 C 9.160156 17.855469 9.179688 18.132812 9.203125 18.402344 C 9.210938 18.457031 9.214844 18.515625 9.222656 18.570312 C 9.25 18.804688 9.285156 19.039062 9.328125 19.269531 C 9.335938 19.304688 9.34375 19.34375 9.351562 19.382812 C 9.53125 20.246094 9.835938 21.0625 10.25 21.816406 C 10.53125 22.335938 10.867188 22.820312 11.246094 23.269531 C 12.179688 24.378906 13.378906 25.257812 14.75 25.800781 C 14.765625 25.804688 14.773438 25.796875 14.789062 25.800781 C 15.082031 25.914062 15.378906 26.015625 15.683594 26.097656 L 26.515625 19.914062 C 26.726562 19.152344 26.835938 18.367188 26.839844 17.578125 C 26.839844 17.199219 26.804688 16.824219 26.757812 16.457031 C 26.75 16.371094 26.738281 16.28125 26.722656 16.195312 L 26.71875 16.195312 C 26.050781 11.972656 22.40625 8.742188 18 8.742188 Z M 18 8.742188 "/>
<path style=" stroke:none;fill-rule:nonzero;fill:rgb(100%,54.901961%,0%);fill-opacity:1;" d="M 23.472656 17.578125 C 23.472656 20.601562 21.023438 23.050781 18 23.050781 C 14.976562 23.050781 12.527344 20.601562 12.527344 17.578125 C 12.527344 14.558594 14.976562 12.109375 18 12.109375 C 21.023438 12.109375 23.472656 14.558594 23.472656 17.578125 Z M 23.472656 17.578125 "/>
</g>
</svg>
