<?xml version="1.0" encoding="UTF-8"?>
<svg xmlns="http://www.w3.org/2000/svg" xmlns:xlink="http://www.w3.org/1999/xlink" width="36pt" height="36pt" viewBox="0 0 36 36" version="1.1">
<defs>
<clipPath id="clip1">
  <rect width="36" height="36"/>
</clipPath>
<g id="surface6" clip-path="url(#clip1)">
<path style=" stroke:none;fill-rule:evenodd;fill:rgb(100%,66.27451%,24.313725%);fill-opacity:1;" d="M 31.421875 25.175781 C 31.421875 28.902344 28.398438 31.925781 24.671875 31.925781 C 20.945312 31.925781 17.921875 28.902344 17.921875 25.175781 C 17.921875 21.445312 20.945312 18.425781 24.671875 18.425781 C 28.398438 18.425781 31.421875 21.445312 31.421875 25.175781 Z M 31.421875 25.175781 "/>
</g>
<clipPath id="clip2">
  <rect width="36" height="36"/>
</clipPath>
<g id="surface9" clip-path="url(#clip2)">
<path style=" stroke:none;fill-rule:nonzero;fill:rgb(100%,100%,100%);fill-opacity:1;" d="M 21.296875 27.046875 L 21.296875 28.550781 L 22.800781 28.550781 L 26.597656 24.753906 L 25.09375 23.25 Z M 27.925781 23.425781 C 28.085938 23.269531 28.085938 23.019531 27.925781 22.859375 L 26.988281 21.917969 C 26.828125 21.761719 26.578125 21.761719 26.417969 21.917969 L 25.632812 22.710938 L 27.136719 24.214844 Z M 27.925781 23.425781 "/>
</g>
</defs>
<g id="surface1">
<path style=" stroke:none;fill-rule:evenodd;fill:rgb(90.196078%,90.196078%,90.196078%);fill-opacity:1;" d="M 8.40625 2.136719 L 27.59375 2.136719 C 31.054688 2.136719 33.863281 4.945312 33.863281 8.40625 L 33.863281 27.59375 C 33.863281 31.054688 31.054688 33.863281 27.59375 33.863281 L 8.40625 33.863281 C 4.945312 33.863281 2.136719 31.054688 2.136719 27.59375 L 2.136719 8.40625 C 2.136719 4.945312 4.945312 2.136719 8.40625 2.136719 Z M 8.40625 2.136719 "/>
<path style=" stroke:none;fill-rule:nonzero;fill:rgb(40%,62.745098%,17.254902%);fill-opacity:1;" d="M 28.800781 25.203125 L 28.800781 6.296875 C 28.800781 5.800781 28.378906 5.398438 27.855469 5.398438 L 11.746094 5.398438 C 11.222656 5.398438 10.796875 5.800781 10.796875 6.296875 L 10.796875 25.203125 C 10.796875 25.699219 11.222656 26.101562 11.746094 26.101562 L 27.855469 26.101562 C 28.378906 26.101562 28.800781 25.699219 28.800781 25.203125 Z M 28.800781 25.203125 "/>
<path style=" stroke:none;fill-rule:nonzero;fill:rgb(49.411765%,73.72549%,18.039216%);fill-opacity:1;" d="M 25.203125 29.703125 L 25.203125 10.796875 C 25.203125 10.300781 24.777344 9.898438 24.253906 9.898438 L 8.144531 9.898438 C 7.621094 9.898438 7.199219 10.300781 7.199219 10.796875 L 7.199219 29.703125 C 7.199219 30.199219 7.621094 30.601562 8.144531 30.601562 L 24.253906 30.601562 C 24.777344 30.601562 25.203125 30.199219 25.203125 29.703125 Z M 25.203125 29.703125 "/>
<path style="fill-rule:nonzero;fill:rgb(100%,100%,100%);fill-opacity:1;stroke-width:0.5;stroke-linecap:butt;stroke-linejoin:miter;stroke:rgb(100%,100%,100%);stroke-opacity:1;stroke-miterlimit:4;" d="M 13.8125 13.309028 C 13.59375 13.309028 13.385417 13.416667 13.336806 13.59375 C 13.149306 14.28125 13.357639 15.340278 13.704861 16.663194 L 13.600694 16.920139 C 13.333333 17.565972 13 18.211806 12.708333 18.784722 C 11.503472 21.145833 10.5625 22.420139 9.9375 22.510417 L 9.934028 22.482639 C 9.920139 22.1875 10.465278 21.430556 11.201389 20.826389 C 11.277778 20.763889 11.607639 20.447917 11.607639 20.447917 C 11.607639 20.447917 11.163194 20.680556 11.065972 20.739583 C 10.142361 21.291667 9.680556 21.84375 9.607639 22.211806 C 9.583333 22.319444 9.600694 22.451389 9.694444 22.506944 L 9.930556 22.625 C 10.572917 22.947917 11.364583 22.100694 12.413194 20.260417 C 13.482639 19.909722 14.815972 19.579861 16.03125 19.402778 C 17.118056 20.024306 18.364583 20.319444 18.84375 20.190972 C 18.9375 20.166667 19.03125 20.09375 19.079861 20.027778 C 19.118056 19.96875 19.173611 19.725694 19.173611 19.725694 C 19.173611 19.725694 19.083333 19.847222 19.006944 19.885417 C 18.704861 20.027778 17.746528 19.788194 16.767361 19.309028 C 17.614583 19.21875 18.322917 19.215278 18.701389 19.336806 C 19.180556 19.489583 19.180556 19.645833 19.173611 19.677083 C 19.180556 19.652778 19.201389 19.545139 19.201389 19.5 C 19.190972 19.385417 19.152778 19.284722 19.065972 19.197917 C 18.888889 19.024306 18.451389 18.934028 17.850694 18.927083 C 17.402778 18.923611 16.861111 18.961806 16.274306 19.045139 C 16.003472 18.892361 15.722222 18.722222 15.496528 18.510417 C 14.927083 17.979167 14.447917 17.239583 14.152778 16.409722 C 14.170139 16.329861 14.190972 16.253472 14.208333 16.173611 C 14.291667 15.802083 14.350694 14.576389 14.350694 14.576389 C 14.350694 14.576389 14.114583 15.5 14.079861 15.638889 C 14.055556 15.725694 14.024306 15.819444 13.993056 15.916667 C 13.8125 15.284722 13.71875 14.670139 13.71875 14.204861 C 13.71875 14.076389 13.732639 13.819444 13.767361 13.618056 C 13.788194 13.472222 13.840278 13.399306 13.892361 13.361111 C 14 13.388889 14.121528 13.552083 14.246528 13.826389 C 14.354167 14.065972 14.347222 14.340278 14.347222 14.510417 C 14.347222 14.510417 14.461806 14.090278 14.4375 13.840278 C 14.420139 13.690972 14.277778 13.305556 13.972222 13.309028 L 13.947917 13.309028 L 13.8125 13.305556 Z M 13.916667 17.138889 C 14.229167 17.770833 14.663194 18.368056 15.232639 18.847222 C 15.357639 18.954861 15.493056 19.059028 15.631944 19.152778 C 14.600694 19.34375 13.517361 19.614583 12.510417 20.034722 C 12.694444 19.711806 12.888889 19.361111 13.090278 18.982639 C 13.482639 18.243056 13.71875 17.673611 13.916667 17.138889 Z M 13.916667 17.138889 " transform="matrix(1.125,0,0,1.125,0,0)"/>
<use xlink:href="#surface6"/>
<use xlink:href="#surface9"/>
</g>
</svg>
