<?xml version="1.0" encoding="UTF-8" standalone="no"?>
<svg
   xmlns:dc="http://purl.org/dc/elements/1.1/"
   xmlns:cc="http://creativecommons.org/ns#"
   xmlns:rdf="http://www.w3.org/1999/02/22-rdf-syntax-ns#"
   xmlns:svg="http://www.w3.org/2000/svg"
   xmlns="http://www.w3.org/2000/svg"
   xmlns:sodipodi="http://sodipodi.sourceforge.net/DTD/sodipodi-0.dtd"
   xmlns:inkscape="http://www.inkscape.org/namespaces/inkscape"
   width="32"
   version="1.1"
   height="32"
   viewBox="0 0 32 32"
   id="svg24"
   sodipodi:docname="gputest.svg"
   inkscape:version="0.92.1 r">
  <metadata
     id="metadata30">
    <rdf:RDF>
      <cc:Work
         rdf:about="">
        <dc:format>image/svg+xml</dc:format>
        <dc:type
           rdf:resource="http://purl.org/dc/dcmitype/StillImage" />
        <dc:title />
      </cc:Work>
    </rdf:RDF>
  </metadata>
  <defs
     id="defs28" />
  <sodipodi:namedview
     pagecolor="#ffffff"
     bordercolor="#666666"
     borderopacity="1"
     objecttolerance="10"
     gridtolerance="10"
     guidetolerance="10"
     inkscape:pageopacity="0"
     inkscape:pageshadow="2"
     inkscape:window-width="1680"
     inkscape:window-height="965"
     id="namedview26"
     showgrid="false"
     inkscape:zoom="14.75"
     inkscape:cx="-10.818241"
     inkscape:cy="6.2932588"
     inkscape:window-x="0"
     inkscape:window-y="0"
     inkscape:window-maximized="1"
     inkscape:current-layer="svg24" />
  <rect
     style="opacity:1;fill:#4d4d4d;fill-opacity:1;fill-rule:evenodd;stroke:none;stroke-width:1.03534329;stroke-linecap:round;stroke-linejoin:bevel;stroke-miterlimit:4;stroke-dasharray:none;stroke-dashoffset:0;stroke-opacity:1"
     id="rect4497-3"
     width="28.203388"
     height="28.203388"
     x="1.8983059"
     y="1.8983059"
     ry="5.575182" />
  <path
     style="fill:#636363;fill-opacity:1;stroke-width:0.99999988"
     d="m 5.1931719,27.102677 c -0.090047,-0.03883 -0.227808,-0.165899 -0.2736138,-0.252364 -0.027806,-0.05249 -0.037943,-0.76439 -0.037943,-2.66467 v -2.593039 h -0.279418 c -0.241382,0 -0.2970565,-0.01107 -0.4090153,-0.08181 -0.2365755,-0.149345 -0.2298539,-0.09657 -0.2298539,-1.803956 0,-1.683215 -0.00503,-1.639605 0.2056118,-1.800232 0.093469,-0.0713 0.1462767,-0.08309 0.4099857,-0.09154 l 0.3026897,-0.0096 V 16.927757 16.050134 H 4.6012227 c -0.3269649,0 -0.4335565,-0.04247 -0.5549642,-0.221141 l -0.08293,-0.122037 v -2.469689 c 0,-2.288975 0.00417,-2.476147 0.056964,-2.558668 0.1329932,-0.20786 0.273342,-0.269412 0.6142964,-0.269412 H 4.8816112 V 8.7775877 c 0,-1.8232827 0.00359,-1.793336 -0.2289942,-1.9157822 C 4.5544177,6.8100963 4.4575627,6.8016149 3.9639019,6.8015057 3.3219473,6.8013741 3.2415087,6.778996 3.1105183,6.5641573 3.0515124,6.4673714 3.0453444,6.3980668 3.0452294,5.8307985 c 0,-0.5958849 0.00345,-0.6317501 0.073671,-0.7345764 0.1489956,-0.218279 0.2050957,-0.2295546 1.1421026,-0.2295546 0.9038981,0 1.1518679,0.033383 1.4789191,0.1991206 0.4298111,0.2178088 0.8236895,0.6821098 0.9439499,1.112717 0.022674,0.08117 0.054434,0.1814821 0.070594,0.2229159 0.01616,0.041432 0.029388,0.3402118 0.029388,0.663952 v 0.5886176 l 10.180326,1.323e-4 c 9.106261,9.77e-5 10.202248,0.00546 10.388118,0.051213 0.665587,0.1636549 1.269267,0.728416 1.50548,1.4084139 l 0.07974,0.2295708 0.0086,6.1492414 0.0086,6.149241 -0.08408,0.262368 c -0.216427,0.675333 -0.72009,1.19333 -1.392708,1.432335 -0.199892,0.07103 -0.27533,0.07679 -1.210887,0.0924 l -0.997712,0.01666 -0.0079,0.767191 c -0.0086,0.844549 -0.01078,0.853914 -0.230737,1.003788 -0.09377,0.06391 -0.147818,0.06552 -2.105431,0.06282 -1.958027,-0.0027 -2.011438,-0.0045 -2.098061,-0.06861 -0.04888,-0.0362 -0.122095,-0.114633 -0.162673,-0.174258 -0.07121,-0.104627 -0.0738,-0.134647 -0.0738,-0.85788 V 23.42916 h -0.901806 -0.90189 v 0.752432 c 0,0.840395 -0.01409,0.902475 -0.235435,1.033194 -0.104195,0.06155 -0.212096,0.06325 -3.954906,0.06234 -3.796689,-9.34e-4 -3.848974,-0.0017 -3.93642,-0.06657 -0.04874,-0.0361 -0.121836,-0.114432 -0.162416,-0.174065 -0.07121,-0.104626 -0.0738,-0.134661 -0.0738,-0.857879 V 23.429177 H 8.6039247 6.7837463 v 1.659931 c 0,1.62996 -0.00122,1.662159 -0.069444,1.783512 -0.038201,0.06796 -0.1250711,0.15484 -0.19304,0.193042 -0.1131665,0.06361 -0.1715857,0.06929 -0.6930471,0.06737 -0.3132084,-0.0011 -0.5989827,-0.01479 -0.6350577,-0.03036 z m 7.1003271,-3.247151 v -0.426347 h -0.442747 -0.442745 v 0.426347 0.426349 h 0.442745 0.442747 z m 1.836571,0 v -0.426347 h -0.442745 -0.442744 v 0.426347 0.426349 h 0.442744 0.442745 z m 1.836573,0 V 23.429179 H 15.54497 15.123294 l -0.02106,0.201587 c -0.01165,0.110866 -0.02108,0.302729 -0.02108,0.426346 v 0.224763 h 0.442745 0.442747 z m 1.86937,0 V 23.429179 H 17.39327 16.950524 v 0.426347 0.426349 h 0.442746 0.442743 z m 4.62423,0 v -0.426347 h -0.442746 -0.442744 v 0.426347 0.426349 h 0.442744 0.442746 z m 1.836572,0 v -0.426347 h -0.442744 -0.442745 v 0.426347 0.426349 h 0.442745 0.442744 z m -1.967756,-4.271198 c 0.09921,-0.02923 0.291064,-0.08545 0.426347,-0.124928 1.040814,-0.303739 2.053085,-1.248327 2.40935,-2.248252 0.03152,-0.08842 0.06898,-0.190297 0.08329,-0.226373 0.07935,-0.200176 0.164778,-0.563998 0.19933,-0.848926 0.05024,-0.414204 0.02315,-1.200631 -0.05262,-1.52878 -0.199317,-0.863077 -0.60726,-1.593818 -1.192715,-2.136497 -0.302977,-0.280838 -0.528417,-0.437972 -0.910254,-0.634451 -0.301449,-0.155113 -0.320189,-0.161994 -0.831542,-0.305342 l -0.311562,-0.08734 -5.675861,-0.0096 -5.67586,-0.0096 -0.112635,0.07581 c -0.225435,0.151759 -0.210943,-0.126207 -0.210756,4.041678 3.28e-4,4.167044 -0.01423,3.890201 0.210884,4.041763 l 0.11275,0.0759 5.675736,-0.01093 c 5.116121,-0.0099 5.693519,-0.01622 5.856111,-0.06411 z m -1.607001,-0.878137 c -0.25434,-0.03452 -0.659121,-0.128061 -0.705113,-0.162967 -0.01803,-0.01366 -0.08714,-0.04239 -0.153557,-0.06377 -0.181974,-0.05859 -0.625004,-0.335146 -0.852999,-0.532478 -0.505925,-0.437884 -0.821619,-0.966547 -1.034808,-1.732907 -0.06162,-0.221505 -0.07189,-1.137427 -0.01469,-1.311838 0.251125,-0.765955 0.371047,-1.007196 0.69682,-1.401763 0.386372,-0.467965 0.866111,-0.788031 1.505232,-1.004247 l 0.378747,-0.128133 0.541135,-5.76e-4 c 0.583085,-6.18e-4 0.664163,0.01524 1.232768,0.241196 0.913676,0.363075 1.657791,1.278408 1.877835,2.309918 0.287181,1.346228 -0.43363,2.84427 -1.663131,3.456453 -0.206657,0.102901 -0.592221,0.237523 -0.840747,0.293559 -0.233522,0.05265 -0.717678,0.07146 -0.967481,0.03754 z m 0.715186,-1.776241 c 0.327869,-0.08185 0.653389,-0.317361 0.854066,-0.617878 0.629572,-0.94279 -0.06243,-2.196945 -1.212205,-2.196945 -0.634193,0 -1.171635,0.383993 -1.372667,0.980747 -0.107674,0.319637 -0.07961,0.746185 0.07057,1.071922 0.08434,0.182943 0.362097,0.487752 0.538873,0.591349 0.320674,0.187928 0.775382,0.257188 1.121365,0.170805 z m -9.150168,-0.395851 c -0.0055,-0.23915 -0.0053,-0.467386 3.28e-4,-0.507195 l 0.01035,-0.07238 1.829978,-0.002 c 1.533484,-0.0017 1.836176,0.0055 1.868225,0.04408 0.02613,0.03147 0.03534,0.190254 0.02909,0.50072 l -0.0092,0.454637 -1.859394,0.0083 -1.85939,0.0083 z m 0.01064,-1.473674 c -0.01136,-0.03024 -0.01602,-0.255303 -0.01064,-0.50014 l 0.0099,-0.445158 h 1.847687 c 1.654599,0 1.84977,0.0055 1.867595,0.05188 0.04009,0.104454 0.02203,0.893967 -0.02109,0.921867 -0.02254,0.01459 -0.858221,0.02653 -1.857058,0.02653 -1.669206,0 -1.817717,-0.0045 -1.836571,-0.05498 z"
     id="path4517-3"
     inkscape:connector-curvature="0"
     sodipodi:nodetypes="ccscscscccccsccscscscccccscccsccccccccccccccccscccsccccscccsccccccccccccccccccccccccccccscccccccccccccccccccccccccccccccccccccccscccccccccccccccccccscscccccssccccccccccccccccccsccscc" />
  <g
     id="g4502"
     transform="translate(9.6857548e-8,0.29856853)">
    <text
       id="text4490"
       y="25.598633"
       x="6.6580777"
       style="font-style:normal;font-weight:normal;font-size:10.89536285px;line-height:1.25;font-family:sans-serif;letter-spacing:0px;word-spacing:0px;fill:#ffffff;fill-opacity:1;stroke:none;stroke-width:1"
       xml:space="preserve"><tspan
         style="font-style:normal;font-variant:normal;font-weight:normal;font-stretch:normal;font-family:Impact;-inkscape-font-specification:Impact;fill:#ffffff;fill-opacity:1;stroke-width:1"
         y="25.598633"
         x="6.6580777"
         id="tspan4488"
         sodipodi:role="line"><tspan
           id="tspan4492"
           style="fill:#ffffff;fill-opacity:1;stroke-width:1">Test</tspan></tspan></text>
    <text
       id="text4490-2"
       y="14.470512"
       x="7.3257375"
       style="font-style:normal;font-weight:normal;font-size:10.89536285px;line-height:1.25;font-family:sans-serif;letter-spacing:0px;word-spacing:0px;fill:#ff3f42;fill-opacity:1;stroke:none;stroke-width:1"
       xml:space="preserve"><tspan
         style="font-style:normal;font-variant:normal;font-weight:normal;font-stretch:normal;font-family:Impact;-inkscape-font-specification:Impact;fill:#ff3f42;fill-opacity:1;stroke-width:1"
         y="14.470512"
         x="7.3257375"
         id="tspan4488-0"
         sodipodi:role="line">Gpu<tspan
   id="tspan4492-2"
   style="fill:#ffffff;stroke-width:1" /></tspan></text>
  </g>
</svg>
