<?xml version="1.0" encoding="UTF-8"?>
<svg xmlns="http://www.w3.org/2000/svg" xmlns:xlink="http://www.w3.org/1999/xlink" width="36pt" height="36pt" viewBox="0 0 36 36" version="1.1">
<g id="surface1">
<path style=" stroke:none;fill-rule:evenodd;fill:rgb(67.45098%,54.117647%,47.058824%);fill-opacity:1;" d="M 8.40625 2.136719 L 27.59375 2.136719 C 31.054688 2.136719 33.863281 4.945312 33.863281 8.40625 L 33.863281 27.59375 C 33.863281 31.054688 31.054688 33.863281 27.59375 33.863281 L 8.40625 33.863281 C 4.945312 33.863281 2.136719 31.054688 2.136719 27.59375 L 2.136719 8.40625 C 2.136719 4.945312 4.945312 2.136719 8.40625 2.136719 Z M 8.40625 2.136719 "/>
<path style="fill:none;stroke-width:1;stroke-linecap:butt;stroke-linejoin:miter;stroke:rgb(28.627451%,28.627451%,28.627451%);stroke-opacity:1;stroke-miterlimit:4;" d="M 10.5 15 L 10.5 9.5 L 22.5 9.5 L 22.5 15 " transform="matrix(1.125,0,0,1.125,-0.5625,0.5625)"/>
<path style="fill:none;stroke-width:1;stroke-linecap:butt;stroke-linejoin:miter;stroke:rgb(28.627451%,28.627451%,28.627451%);stroke-opacity:1;stroke-miterlimit:4;" d="M 13.5 22 L 13.5 15.5 L 25.5 15.5 L 25.5 22 " transform="matrix(1.125,0,0,1.125,-0.5625,0.5625)"/>
<path style="fill:none;stroke-width:1;stroke-linecap:butt;stroke-linejoin:miter;stroke:rgb(28.627451%,28.627451%,28.627451%);stroke-opacity:1;stroke-miterlimit:4;" d="M 7.5 22 L 7.5 15.5 L 19.5 15.5 L 19.5 22 " transform="matrix(1.125,0,0,1.125,-0.5625,0.5625)"/>
<path style=" stroke:none;fill-rule:nonzero;fill:rgb(100%,100%,100%);fill-opacity:1;" d="M 6.1875 23.0625 L 9.5625 23.0625 L 9.5625 27.5625 L 6.1875 27.5625 Z M 6.1875 23.0625 "/>
<path style=" stroke:none;fill-rule:nonzero;fill:rgb(100%,100%,100%);fill-opacity:1;" d="M 12.9375 23.0625 L 16.3125 23.0625 L 16.3125 27.5625 L 12.9375 27.5625 Z M 12.9375 23.0625 "/>
<path style=" stroke:none;fill-rule:nonzero;fill:rgb(100%,100%,100%);fill-opacity:1;" d="M 19.6875 23.0625 L 23.0625 23.0625 L 23.0625 27.5625 L 19.6875 27.5625 Z M 19.6875 23.0625 "/>
<path style=" stroke:none;fill-rule:nonzero;fill:rgb(100%,100%,100%);fill-opacity:1;" d="M 16.3125 8.4375 L 19.6875 8.4375 L 19.6875 12.9375 L 16.3125 12.9375 Z M 16.3125 8.4375 "/>
<path style=" stroke:none;fill-rule:nonzero;fill:rgb(100%,100%,100%);fill-opacity:1;" d="M 9.5625 15.1875 L 12.9375 15.1875 L 12.9375 19.6875 L 9.5625 19.6875 Z M 9.5625 15.1875 "/>
<path style=" stroke:none;fill-rule:nonzero;fill:rgb(100%,100%,100%);fill-opacity:1;" d="M 23.0625 15.1875 L 26.4375 15.1875 L 26.4375 19.6875 L 23.0625 19.6875 Z M 23.0625 15.1875 "/>
<path style=" stroke:none;fill-rule:nonzero;fill:rgb(100%,100%,100%);fill-opacity:1;" d="M 26.4375 23.0625 L 29.8125 23.0625 L 29.8125 27.5625 L 26.4375 27.5625 Z M 26.4375 23.0625 "/>
</g>
</svg>
