<?xml version="1.0" encoding="UTF-8"?>
<svg xmlns="http://www.w3.org/2000/svg" xmlns:xlink="http://www.w3.org/1999/xlink" width="36pt" height="36pt" viewBox="0 0 36 36" version="1.1">
<g id="surface1">
<path style=" stroke:none;fill-rule:evenodd;fill:rgb(47.45098%,87.058824%,49.019608%);fill-opacity:1;" d="M 8.40625 2.136719 L 27.59375 2.136719 C 31.054688 2.136719 33.863281 4.945312 33.863281 8.40625 L 33.863281 27.59375 C 33.863281 31.054688 31.054688 33.863281 27.59375 33.863281 L 8.40625 33.863281 C 4.945312 33.863281 2.136719 31.054688 2.136719 27.59375 L 2.136719 8.40625 C 2.136719 4.945312 4.945312 2.136719 8.40625 2.136719 Z M 8.40625 2.136719 "/>
<path style=" stroke:none;fill-rule:nonzero;fill:rgb(24.705882%,56.862745%,25.882353%);fill-opacity:1;" d="M 28.964844 18 C 28.964844 24.058594 24.058594 28.964844 18 28.964844 C 11.941406 28.964844 7.035156 24.058594 7.035156 18 C 7.035156 11.941406 11.941406 7.035156 18 7.035156 C 24.058594 7.035156 28.964844 11.941406 28.964844 18 Z M 28.964844 18 "/>
<path style=" stroke:none;fill-rule:nonzero;fill:rgb(47.45098%,87.058824%,49.019608%);fill-opacity:1;" d="M 27.398438 18 C 27.398438 23.191406 23.191406 27.398438 18 27.398438 C 12.808594 27.398438 8.601562 23.191406 8.601562 18 C 8.601562 12.808594 12.808594 8.601562 18 8.601562 C 23.191406 8.601562 27.398438 12.808594 27.398438 18 Z M 27.398438 18 "/>
<path style=" stroke:none;fill-rule:nonzero;fill:rgb(24.705882%,56.862745%,25.882353%);fill-opacity:1;" d="M 23.484375 19.019531 C 23.484375 20.746094 23.050781 22.054688 22.1875 22.941406 C 21.324219 23.824219 20.03125 24.265625 18.3125 24.265625 C 17.101562 24.265625 16.054688 24 15.175781 23.46875 C 14.300781 22.933594 13.636719 22.191406 13.191406 21.242188 C 12.742188 20.285156 12.515625 19.175781 12.515625 17.910156 C 12.515625 16.714844 12.753906 15.652344 13.222656 14.71875 C 13.695312 13.785156 14.375 13.054688 15.257812 12.53125 C 16.144531 12 17.171875 11.734375 18.335938 11.734375 C 19.621094 11.734375 20.671875 12.058594 21.492188 12.714844 C 22.316406 13.367188 22.984375 14.542969 23.304688 15.648438 L 21.132812 15.648438 C 20.925781 15.136719 20.484375 14.417969 19.996094 14.082031 C 19.507812 13.746094 18.945312 13.578125 18.304688 13.578125 C 17.273438 13.578125 16.386719 13.988281 15.648438 14.808594 C 14.90625 15.625 14.535156 16.65625 14.535156 17.902344 C 14.535156 18.742188 14.683594 19.5 14.980469 20.183594 C 15.285156 20.859375 15.722656 21.402344 16.292969 21.808594 C 16.871094 22.21875 17.535156 22.421875 18.285156 22.421875 C 18.875 22.421875 19.398438 22.347656 19.851562 22.203125 C 20.3125 22.054688 20.6875 21.8125 20.976562 21.484375 C 21.273438 21.148438 21.433594 20.824219 21.449219 20.351562 L 18.785156 20.351562 L 18.785156 18.785156 L 23.484375 18.785156 "/>
</g>
</svg>
