<?xml version="1.0" encoding="UTF-8"?>
<svg xmlns="http://www.w3.org/2000/svg" xmlns:xlink="http://www.w3.org/1999/xlink" width="36pt" height="36pt" viewBox="0 0 36 36" version="1.1">
<defs>
<clipPath id="clip1">
  <rect width="36" height="36"/>
</clipPath>
<g id="surface6" clip-path="url(#clip1)">
<path style=" stroke:none;fill-rule:nonzero;fill:rgb(100%,100%,100%);fill-opacity:1;" d="M 15.820312 7.347656 C 15.59375 7.371094 15.394531 7.554688 15.351562 7.78125 L 14.902344 10.058594 C 14.097656 10.375 13.339844 10.808594 12.671875 11.34375 L 10.460938 10.59375 C 10.230469 10.511719 9.949219 10.617188 9.828125 10.824219 L 7.695312 14.519531 C 7.574219 14.734375 7.628906 15.027344 7.8125 15.1875 L 9.578125 16.734375 C 9.515625 17.152344 9.476562 17.566406 9.476562 18 C 9.476562 18.433594 9.515625 18.851562 9.578125 19.265625 L 7.8125 20.8125 C 7.628906 20.972656 7.574219 21.265625 7.695312 21.480469 L 9.828125 25.175781 C 9.949219 25.382812 10.230469 25.488281 10.460938 25.40625 L 12.671875 24.660156 C 13.339844 25.191406 14.097656 25.625 14.902344 25.941406 L 15.351562 28.222656 C 15.398438 28.460938 15.625 28.652344 15.871094 28.652344 L 20.128906 28.652344 C 20.375 28.652344 20.601562 28.460938 20.648438 28.222656 L 21.097656 25.941406 C 21.902344 25.625 22.660156 25.191406 23.328125 24.660156 L 25.539062 25.40625 C 25.769531 25.488281 26.050781 25.382812 26.171875 25.175781 L 28.304688 21.480469 C 28.425781 21.265625 28.371094 20.972656 28.1875 20.8125 L 26.421875 19.265625 C 26.484375 18.851562 26.523438 18.433594 26.523438 18 C 26.523438 17.566406 26.484375 17.152344 26.421875 16.734375 L 28.1875 15.1875 C 28.371094 15.027344 28.425781 14.734375 28.304688 14.519531 L 26.171875 10.824219 C 26.050781 10.617188 25.769531 10.511719 25.539062 10.59375 L 23.328125 11.339844 C 22.660156 10.808594 21.902344 10.375 21.097656 10.058594 L 20.648438 7.777344 C 20.601562 7.539062 20.375 7.347656 20.128906 7.347656 L 15.871094 7.347656 C 15.851562 7.347656 15.835938 7.347656 15.820312 7.347656 Z M 15.820312 7.347656 "/>
</g>
<clipPath id="clip2">
  <rect width="36" height="36"/>
</clipPath>
<g id="surface9" clip-path="url(#clip2)">
<path style=" stroke:none;fill-rule:nonzero;fill:rgb(47.058824%,67.45098%,23.921569%);fill-opacity:1;" d="M 18 13.433594 C 20.523438 13.433594 22.566406 15.480469 22.566406 18 C 22.566406 20.523438 20.523438 22.566406 18 22.566406 C 15.480469 22.566406 13.433594 20.523438 13.433594 18 C 13.433594 15.480469 15.480469 13.433594 18 13.433594 Z M 18 13.433594 "/>
</g>
<filter id="alpha" filterUnits="objectBoundingBox" x="0%" y="0%" width="100%" height="100%">
  <feColorMatrix type="matrix" in="SourceGraphic" values="0 0 0 0 1 0 0 0 0 1 0 0 0 0 1 0 0 0 1 0"/>
</filter>
<mask id="mask0">
  <g filter="url(#alpha)">
<rect x="0" y="0" width="36" height="36" style="fill:rgb(0%,0%,0%);fill-opacity:0.2;stroke:none;"/>
  </g>
</mask>
<clipPath id="clip3">
  <rect width="36" height="36"/>
</clipPath>
<g id="surface12" clip-path="url(#clip3)">
<path style=" stroke:none;fill-rule:nonzero;fill:rgb(0%,0%,0%);fill-opacity:1;" d="M 18 11.152344 C 14.222656 11.152344 11.152344 14.222656 11.152344 18 C 11.152344 21.777344 14.222656 24.847656 18 24.847656 C 21.777344 24.847656 24.847656 21.777344 24.847656 18 C 24.847656 14.222656 21.777344 11.152344 18 11.152344 Z M 18 11.957031 C 21.34375 11.957031 24.042969 14.65625 24.042969 18 C 24.042969 21.34375 21.34375 24.042969 18 24.042969 C 14.65625 24.042969 11.957031 21.34375 11.957031 18 C 11.957031 14.65625 14.65625 11.957031 18 11.957031 Z M 18 11.957031 "/>
</g>
</defs>
<g id="surface1">
<path style=" stroke:none;fill-rule:evenodd;fill:rgb(47.058824%,67.45098%,23.921569%);fill-opacity:1;" d="M 8.40625 2.136719 L 27.59375 2.136719 C 31.054688 2.136719 33.863281 4.945312 33.863281 8.40625 L 33.863281 27.59375 C 33.863281 31.054688 31.054688 33.863281 27.59375 33.863281 L 8.40625 33.863281 C 4.945312 33.863281 2.136719 31.054688 2.136719 27.59375 L 2.136719 8.40625 C 2.136719 4.945312 4.945312 2.136719 8.40625 2.136719 Z M 8.40625 2.136719 "/>
<use xlink:href="#surface6"/>
<use xlink:href="#surface9"/>
<use xlink:href="#surface12" mask="url(#mask0)"/>
<path style=" stroke:none;fill-rule:nonzero;fill:rgb(100%,93.333333%,34.117647%);fill-opacity:1;" d="M 17.296875 11.1875 C 13.847656 11.539062 11.152344 14.460938 11.152344 18 C 11.152344 21.777344 14.222656 24.847656 18 24.847656 C 18.566406 24.847656 19.113281 24.773438 19.640625 24.640625 C 19.691406 24.527344 19.777344 24.335938 19.738281 24.1875 C 19.707031 24.046875 19.589844 23.929688 19.464844 23.859375 C 18.996094 23.972656 18.507812 24.042969 18 24.042969 C 14.660156 24.042969 11.957031 21.34375 11.957031 18 C 11.957031 14.8125 14.414062 12.214844 17.539062 11.980469 C 17.660156 11.851562 17.707031 11.710938 17.683594 11.523438 C 17.660156 11.335938 17.515625 11.230469 17.296875 11.1875 Z M 17.296875 11.1875 "/>
<path style=" stroke:none;fill-rule:evenodd;fill:rgb(47.058824%,67.45098%,23.921569%);fill-opacity:1;" d="M -24.261719 5.25 L -5.078125 5.25 C -1.613281 5.25 1.195312 8.058594 1.195312 11.523438 L 1.195312 30.707031 C 1.195312 34.171875 -1.613281 36.980469 -5.078125 36.980469 L -24.261719 36.980469 C -27.726562 36.980469 -30.535156 34.171875 -30.535156 30.707031 L -30.535156 11.523438 C -30.535156 8.058594 -27.726562 5.25 -24.261719 5.25 Z M -24.261719 5.25 "/>
</g>
</svg>
