<?xml version="1.0" encoding="UTF-8"?>
<svg xmlns="http://www.w3.org/2000/svg" xmlns:xlink="http://www.w3.org/1999/xlink" width="36pt" height="36pt" viewBox="0 0 36 36" version="1.1">
<g id="surface1">
<path style=" stroke:none;fill-rule:evenodd;fill:rgb(45.490196%,81.960784%,34.901961%);fill-opacity:1;" d="M 8.40625 2.136719 L 27.59375 2.136719 C 31.054688 2.136719 33.863281 4.945312 33.863281 8.40625 L 33.863281 27.59375 C 33.863281 31.054688 31.054688 33.863281 27.59375 33.863281 L 8.40625 33.863281 C 4.945312 33.863281 2.136719 31.054688 2.136719 27.59375 L 2.136719 8.40625 C 2.136719 4.945312 4.945312 2.136719 8.40625 2.136719 Z M 8.40625 2.136719 "/>
<path style=" stroke:none;fill-rule:nonzero;fill:rgb(100%,100%,100%);fill-opacity:1;" d="M 9.039062 6.808594 L 9.039062 7.933594 L 8.476562 7.933594 C 7.539062 7.933594 6.789062 8.683594 6.789062 9.621094 C 6.789062 10.554688 7.539062 11.308594 8.476562 11.308594 L 9.039062 11.308594 L 9.039062 12.433594 L 6.890625 12.433594 C 7.125 13.085938 7.738281 13.558594 8.476562 13.558594 L 9.039062 13.558594 L 9.039062 14.683594 L 10.164062 14.683594 L 10.164062 13.558594 L 10.726562 13.558594 C 11.660156 13.558594 12.414062 12.804688 12.414062 11.871094 C 12.414062 10.933594 11.660156 10.183594 10.726562 10.183594 L 10.164062 10.183594 L 10.164062 9.058594 L 12.308594 9.058594 C 12.078125 8.402344 11.460938 7.933594 10.726562 7.933594 L 10.164062 7.933594 L 10.164062 6.808594 Z M 8.476562 9.058594 L 9.039062 9.058594 L 9.039062 10.183594 L 8.476562 10.183594 C 8.164062 10.183594 7.914062 9.929688 7.914062 9.621094 C 7.914062 9.308594 8.164062 9.058594 8.476562 9.058594 Z M 10.164062 11.308594 L 10.726562 11.308594 C 11.039062 11.308594 11.289062 11.558594 11.289062 11.871094 C 11.289062 12.179688 11.035156 12.445312 10.726562 12.433594 L 10.164062 12.433594 Z M 14.664062 13.558594 L 14.664062 14.683594 L 21.414062 14.683594 L 21.414062 13.558594 Z M 14.664062 13.558594 "/>
<path style=" stroke:none;fill-rule:nonzero;fill:rgb(52.156863%,38.039216%,77.254902%);fill-opacity:1;" d="M 31.195312 24.921875 C 31.195312 28.648438 28.171875 31.671875 24.445312 31.671875 C 20.71875 31.671875 17.695312 28.648438 17.695312 24.921875 C 17.695312 21.195312 20.71875 18.171875 24.445312 18.171875 C 28.171875 18.171875 31.195312 21.195312 31.195312 24.921875 Z M 31.195312 24.921875 "/>
<path style=" stroke:none;fill-rule:nonzero;fill:rgb(100%,100%,100%);fill-opacity:1;" d="M 23.601562 21.546875 L 23.527344 22.4375 C 23.246094 22.539062 22.984375 22.691406 22.75 22.882812 L 21.945312 22.503906 L 21.101562 23.964844 L 21.832031 24.472656 C 21.808594 24.621094 21.792969 24.773438 21.792969 24.921875 C 21.792969 25.070312 21.804688 25.222656 21.832031 25.371094 L 21.101562 25.878906 L 21.945312 27.339844 L 22.75 26.960938 C 22.980469 27.152344 23.246094 27.300781 23.527344 27.40625 L 23.601562 28.296875 L 25.289062 28.296875 L 25.363281 27.40625 C 25.644531 27.304688 25.90625 27.152344 26.136719 26.960938 L 26.945312 27.339844 L 27.789062 25.878906 L 27.054688 25.367188 C 27.082031 25.222656 27.097656 25.070312 27.097656 24.921875 C 27.097656 24.769531 27.082031 24.621094 27.058594 24.472656 L 27.789062 23.964844 L 26.945312 22.503906 L 26.140625 22.882812 C 25.90625 22.691406 25.644531 22.539062 25.363281 22.4375 L 25.289062 21.546875 Z M 24.445312 23.957031 C 24.976562 23.957031 25.410156 24.390625 25.410156 24.921875 C 25.410156 25.453125 24.976562 25.886719 24.445312 25.886719 C 23.914062 25.886719 23.480469 25.453125 23.480469 24.921875 C 23.480469 24.390625 23.914062 23.957031 24.445312 23.957031 Z M 24.445312 23.957031 "/>
</g>
</svg>
