<?xml version="1.0" encoding="UTF-8"?>
<svg xmlns="http://www.w3.org/2000/svg" xmlns:xlink="http://www.w3.org/1999/xlink" width="36pt" height="36pt" viewBox="0 0 36 36" version="1.1">
<g id="surface1">
<path style=" stroke:none;fill-rule:evenodd;fill:rgb(35.686275%,35.686275%,35.686275%);fill-opacity:1;" d="M 2.136719 12.714844 L 2.136719 27.59375 C 2.136719 31.066406 4.933594 33.863281 8.40625 33.863281 L 27.589844 33.863281 C 31.066406 33.863281 33.863281 31.066406 33.863281 27.59375 L 33.863281 12.714844 Z M 2.136719 12.714844 "/>
<path style=" stroke:none;fill-rule:evenodd;fill:rgb(38.823529%,64.705882%,20.784314%);fill-opacity:1;" d="M 2.136719 12.714844 L 33.863281 12.714844 L 33.863281 8.410156 C 33.863281 4.933594 31.066406 2.136719 27.589844 2.136719 L 8.40625 2.136719 C 4.933594 2.136719 2.136719 4.933594 2.136719 8.410156 Z M 2.136719 12.714844 "/>
<path style=" stroke:none;fill-rule:nonzero;fill:rgb(80%,80%,81.176471%);fill-opacity:0.941176;" d="M 18 23.285156 C 18 27.015625 14.976562 30.035156 11.25 30.035156 C 7.523438 30.035156 4.5 27.015625 4.5 23.285156 C 4.5 19.558594 7.523438 16.535156 11.25 16.535156 C 14.976562 16.535156 18 19.558594 18 23.285156 Z M 18 23.285156 "/>
<path style=" stroke:none;fill-rule:nonzero;fill:rgb(35.686275%,35.686275%,35.686275%);fill-opacity:1;" d="M 14.625 23.285156 C 14.625 25.152344 13.113281 26.660156 11.25 26.660156 C 9.386719 26.660156 7.875 25.152344 7.875 23.285156 C 7.875 21.421875 9.386719 19.910156 11.25 19.910156 C 13.113281 19.910156 14.625 21.421875 14.625 23.285156 Z M 14.625 23.285156 "/>
<path style=" stroke:none;fill-rule:nonzero;fill:rgb(80%,80%,81.176471%);fill-opacity:0.941176;" d="M 31.5 23.285156 C 31.5 27.015625 28.476562 30.035156 24.75 30.035156 C 21.023438 30.035156 18 27.015625 18 23.285156 C 18 19.558594 21.023438 16.535156 24.75 16.535156 C 28.476562 16.535156 31.5 19.558594 31.5 23.285156 Z M 31.5 23.285156 "/>
<path style=" stroke:none;fill-rule:nonzero;fill:rgb(35.686275%,35.686275%,35.686275%);fill-opacity:1;" d="M 28.125 23.285156 C 28.125 25.152344 26.613281 26.660156 24.75 26.660156 C 22.886719 26.660156 21.375 25.152344 21.375 23.285156 C 21.375 21.421875 22.886719 19.910156 24.75 19.910156 C 26.613281 19.910156 28.125 21.421875 28.125 23.285156 Z M 28.125 23.285156 "/>
<path style=" stroke:none;fill-rule:nonzero;fill:rgb(35.686275%,35.686275%,35.686275%);fill-opacity:1;" d="M 10.125 7.550781 C 10.125 8.484375 9.371094 9.238281 8.4375 9.238281 C 7.503906 9.238281 6.75 8.484375 6.75 7.550781 C 6.75 6.621094 7.503906 5.863281 8.4375 5.863281 C 9.371094 5.863281 10.125 6.621094 10.125 7.550781 Z M 10.125 7.550781 "/>
<path style=" stroke:none;fill-rule:nonzero;fill:rgb(59.607843%,22.745098%,5.490196%);fill-opacity:1;" d="M 25.875 5.863281 L 29.25 5.863281 L 29.25 9.238281 L 25.875 9.238281 Z M 25.875 5.863281 "/>
<path style=" stroke:none;fill-rule:nonzero;fill:rgb(96.862745%,74.901961%,19.607843%);fill-opacity:1;" d="M 27 6.988281 L 28.125 6.988281 L 28.125 8.113281 L 27 8.113281 Z M 27 6.988281 "/>
<path style=" stroke:none;fill-rule:nonzero;fill:rgb(35.686275%,35.686275%,35.686275%);fill-opacity:1;" d="M 14.625 7.550781 C 14.625 8.484375 13.871094 9.238281 12.9375 9.238281 C 12.003906 9.238281 11.25 8.484375 11.25 7.550781 C 11.25 6.621094 12.003906 5.863281 12.9375 5.863281 C 13.871094 5.863281 14.625 6.621094 14.625 7.550781 Z M 14.625 7.550781 "/>
<path style=" stroke:none;fill-rule:nonzero;fill:rgb(35.686275%,35.686275%,35.686275%);fill-opacity:1;" d="M 19.125 7.550781 C 19.125 8.484375 18.371094 9.238281 17.4375 9.238281 C 16.503906 9.238281 15.75 8.484375 15.75 7.550781 C 15.75 6.621094 16.503906 5.863281 17.4375 5.863281 C 18.371094 5.863281 19.125 6.621094 19.125 7.550781 Z M 19.125 7.550781 "/>
</g>
</svg>
