<?xml version="1.0" encoding="UTF-8"?>
<svg xmlns="http://www.w3.org/2000/svg" xmlns:xlink="http://www.w3.org/1999/xlink" width="36pt" height="36pt" viewBox="0 0 36 36" version="1.1">
<defs>
<clipPath id="clip1">
  <rect width="36" height="36"/>
</clipPath>
<g id="surface6" clip-path="url(#clip1)">
<path style=" stroke:none;fill-rule:nonzero;fill:rgb(100%,100%,100%);fill-opacity:1;" d="M 33.035156 25.878906 C 33.035156 29.605469 30.011719 32.628906 26.285156 32.628906 C 22.558594 32.628906 19.535156 29.605469 19.535156 25.878906 C 19.535156 22.148438 22.558594 19.128906 26.285156 19.128906 C 30.011719 19.128906 33.035156 22.148438 33.035156 25.878906 Z M 33.035156 25.878906 "/>
</g>
</defs>
<g id="surface1">
<path style=" stroke:none;fill-rule:evenodd;fill:rgb(95.294118%,48.235294%,12.941176%);fill-opacity:1;" d="M 8.40625 2.136719 L 27.59375 2.136719 C 31.054688 2.136719 33.863281 4.945312 33.863281 8.40625 L 33.863281 27.59375 C 33.863281 31.054688 31.054688 33.863281 27.59375 33.863281 L 8.40625 33.863281 C 4.945312 33.863281 2.136719 31.054688 2.136719 27.59375 L 2.136719 8.40625 C 2.136719 4.945312 4.945312 2.136719 8.40625 2.136719 Z M 8.40625 2.136719 "/>
<path style=" stroke:none;fill-rule:nonzero;fill:rgb(100%,100%,100%);fill-opacity:1;" d="M 18 6.75 C 11.785156 6.75 6.75 11.785156 6.75 18 C 6.75 24.214844 11.785156 29.25 18 29.25 C 24.214844 29.25 29.25 24.214844 29.25 18 C 29.25 11.785156 24.214844 6.75 18 6.75 Z M 13.488281 10.0625 L 17.796875 10.0625 L 22.746094 22.648438 L 24.925781 21.941406 L 25.648438 24.378906 L 20.957031 25.734375 L 17.796875 17.730469 L 13.167969 25.027344 L 10.265625 25.027344 L 16.730469 14.585938 L 16.007812 12.523438 L 13.488281 12.523438 Z M 13.488281 10.0625 "/>
<use xlink:href="#surface6"/>
<path style=" stroke:none;fill-rule:nonzero;fill:rgb(95.294118%,48.235294%,12.941176%);fill-opacity:1;" d="M 28.773438 29.035156 L 24.570312 29.035156 L 24.570312 28.179688 L 26.042969 26.703125 C 26.230469 26.515625 26.398438 26.347656 26.546875 26.1875 C 26.699219 26.03125 26.828125 25.878906 26.9375 25.730469 C 27.046875 25.582031 27.132812 25.429688 27.191406 25.277344 C 27.25 25.125 27.28125 24.957031 27.28125 24.78125 C 27.28125 24.582031 27.21875 24.429688 27.089844 24.320312 C 26.960938 24.210938 26.792969 24.160156 26.578125 24.160156 C 26.351562 24.160156 26.136719 24.210938 25.925781 24.3125 C 25.71875 24.417969 25.5 24.566406 25.273438 24.753906 L 24.554688 23.964844 C 24.683594 23.855469 24.816406 23.75 24.957031 23.652344 C 25.097656 23.550781 25.25 23.464844 25.417969 23.386719 C 25.585938 23.308594 25.773438 23.246094 25.976562 23.203125 C 26.179688 23.15625 26.40625 23.132812 26.65625 23.132812 C 26.957031 23.132812 27.226562 23.167969 27.460938 23.246094 C 27.703125 23.324219 27.90625 23.433594 28.074219 23.578125 C 28.242188 23.71875 28.371094 23.890625 28.460938 24.089844 C 28.550781 24.292969 28.597656 24.519531 28.597656 24.773438 C 28.597656 25 28.554688 25.21875 28.46875 25.429688 C 28.382812 25.636719 28.265625 25.839844 28.117188 26.042969 C 27.96875 26.242188 27.796875 26.441406 27.597656 26.640625 C 27.40625 26.835938 27.195312 27.035156 26.972656 27.242188 L 26.21875 27.945312 L 26.21875 28 L 28.773438 28 L 28.773438 29.039062 Z M 28.773438 29.035156 "/>
</g>
</svg>
