<?xml version="1.0" encoding="UTF-8"?>
<svg xmlns="http://www.w3.org/2000/svg" xmlns:xlink="http://www.w3.org/1999/xlink" width="36pt" height="36pt" viewBox="0 0 36 36" version="1.1">
<g id="surface1">
<path style=" stroke:none;fill-rule:evenodd;fill:rgb(100%,74.117647%,0%);fill-opacity:1;" d="M 8.40625 2.136719 L 27.59375 2.136719 C 31.054688 2.136719 33.863281 4.945312 33.863281 8.40625 L 33.863281 27.59375 C 33.863281 31.054688 31.054688 33.863281 27.59375 33.863281 L 8.40625 33.863281 C 4.945312 33.863281 2.136719 31.054688 2.136719 27.59375 L 2.136719 8.40625 C 2.136719 4.945312 4.945312 2.136719 8.40625 2.136719 Z M 8.40625 2.136719 "/>
<path style=" stroke:none;fill-rule:nonzero;fill:rgb(20%,20%,20%);fill-opacity:1;" d="M 29.351562 18 C 29.351562 24.269531 24.269531 29.351562 18 29.351562 C 11.730469 29.351562 6.648438 24.269531 6.648438 18 C 6.648438 11.730469 11.730469 6.648438 18 6.648438 C 24.269531 6.648438 29.351562 11.730469 29.351562 18 Z M 29.351562 18 "/>
<path style=" stroke:none;fill-rule:nonzero;fill:rgb(100%,100%,100%);fill-opacity:1;" d="M 28.222656 18 C 28.222656 23.644531 23.644531 28.222656 18 28.222656 C 12.355469 28.222656 7.777344 23.644531 7.777344 18 C 7.777344 12.355469 12.355469 7.777344 18 7.777344 C 23.644531 7.777344 28.222656 12.355469 28.222656 18 Z M 28.222656 18 "/>
<path style=" stroke:none;fill-rule:nonzero;fill:rgb(100%,42.745098%,0%);fill-opacity:1;" d="M 13.574219 10.402344 L 14.09375 12.59375 L 15.9375 12.558594 L 16.910156 13.984375 L 12.703125 25.597656 L 16.425781 24.453125 L 18.824219 17.042969 L 22.683594 23.058594 L 25.640625 20.589844 L 24.355469 18.714844 L 23.3125 19.546875 L 17.328125 10.4375 Z M 13.574219 10.402344 "/>
</g>
</svg>
