<?xml version="1.0" encoding="UTF-8"?>
<svg xmlns="http://www.w3.org/2000/svg" xmlns:xlink="http://www.w3.org/1999/xlink" width="36pt" height="36pt" viewBox="0 0 36 36" version="1.1">
<g id="surface1">
<path style=" stroke:none;fill-rule:evenodd;fill:rgb(100%,42.352941%,53.72549%);fill-opacity:1;" d="M 8.40625 2.136719 L 27.59375 2.136719 C 31.054688 2.136719 33.863281 4.945312 33.863281 8.40625 L 33.863281 27.59375 C 33.863281 31.054688 31.054688 33.863281 27.59375 33.863281 L 8.40625 33.863281 C 4.945312 33.863281 2.136719 31.054688 2.136719 27.59375 L 2.136719 8.40625 C 2.136719 4.945312 4.945312 2.136719 8.40625 2.136719 Z M 8.40625 2.136719 "/>
<path style=" stroke:none;fill-rule:nonzero;fill:rgb(100%,100%,100%);fill-opacity:1;" d="M 10.132812 27.160156 C 10.191406 26.570312 10.542969 25.300781 11.414062 22.515625 C 12.886719 17.804688 13.8125 12.453125 13.417969 10.894531 C 13.324219 10.507812 13.3125 10.308594 13.382812 10.222656 C 13.605469 9.941406 14.5 9.640625 15.238281 9.59375 C 16.757812 9.5625 16.683594 10.125 16.632812 11.351562 C 16.589844 12.449219 16.296875 14.511719 16.027344 15.898438 C 15.945312 16.328125 15.898438 16.742188 15.929688 16.820312 C 15.972656 16.941406 16.382812 16.964844 18.324219 16.960938 C 19.613281 16.960938 20.71875 16.925781 20.785156 16.886719 C 20.980469 16.757812 21.09375 16.320312 21.929688 12.53125 C 22.375 10.503906 22.820312 8.710938 22.910156 8.546875 C 23.125 8.171875 23.648438 7.875 24.101562 7.875 C 24.5625 7.875 25.371094 8.132812 25.652344 8.363281 L 25.875 8.550781 L 25.660156 9.1875 C 25.171875 10.640625 23.808594 17.128906 23.277344 20.558594 C 23.136719 21.464844 22.9375 22.644531 22.832031 23.175781 C 22.609375 24.328125 22.605469 24.769531 22.804688 25.304688 C 23.121094 26.148438 23.105469 26.230469 22.59375 26.464844 C 22.335938 26.582031 21.753906 26.742188 21.292969 26.824219 C 19.742188 27.09375 19.269531 26.75 19.269531 25.347656 C 19.269531 24.402344 19.355469 23.898438 19.953125 21.421875 C 20.214844 20.332031 20.425781 19.351562 20.425781 19.246094 C 20.425781 19.0625 20.382812 19.054688 19.757812 19.117188 C 19.390625 19.15625 18.265625 19.191406 17.257812 19.199219 C 16.25 19.207031 15.394531 19.242188 15.359375 19.277344 C 15.324219 19.316406 15.125 20.101562 14.917969 21.027344 C 14.710938 21.949219 14.335938 23.46875 14.089844 24.40625 C 13.839844 25.339844 13.617188 26.378906 13.59375 26.722656 C 13.566406 27.125 13.5 27.390625 13.394531 27.484375 C 13.160156 27.699219 12 28.042969 11.269531 28.109375 C 10.382812 28.203125 10.066406 27.8125 10.132812 27.160156 Z M 10.132812 27.160156 "/>
</g>
</svg>
