<?xml version="1.0" encoding="UTF-8"?>
<svg xmlns="http://www.w3.org/2000/svg" xmlns:xlink="http://www.w3.org/1999/xlink" width="36pt" height="36pt" viewBox="0 0 36 36" version="1.1">
<defs>
<filter id="alpha" filterUnits="objectBoundingBox" x="0%" y="0%" width="100%" height="100%">
  <feColorMatrix type="matrix" in="SourceGraphic" values="0 0 0 0 1 0 0 0 0 1 0 0 0 0 1 0 0 0 1 0"/>
</filter>
<mask id="mask0">
  <g filter="url(#alpha)">
<rect x="0" y="0" width="36" height="36" style="fill:rgb(0%,0%,0%);fill-opacity:0.6;stroke:none;"/>
  </g>
</mask>
<clipPath id="clip1">
  <rect width="36" height="36"/>
</clipPath>
<g id="surface6" clip-path="url(#clip1)">
<path style=" stroke:none;fill-rule:evenodd;fill:rgb(0%,0%,0%);fill-opacity:1;" d="M 25.925781 19.703125 C 24.996094 19.929688 24.421875 20.679688 23.503906 20.882812 C 22.839844 21.011719 21.972656 20.464844 21.351562 20.769531 C 21.003906 20.941406 20.105469 21.390625 20.832031 21.679688 C 20.832031 21.679688 21.257812 21.855469 21.796875 22.007812 C 22.335938 22.164062 22.960938 22.335938 23.621094 22.226562 C 24.367188 22.101562 24.96875 21.667969 25.476562 21.289062 C 25.988281 20.90625 26.363281 20.550781 26.363281 20.550781 C 26.714844 20.226562 26.445312 19.707031 25.925781 19.703125 Z M 25.925781 19.703125 "/>
</g>
</defs>
<g id="surface1">
<path style=" stroke:none;fill-rule:evenodd;fill:rgb(11.372549%,26.666667%,59.607843%);fill-opacity:1;" d="M 8.40625 2.136719 L 27.59375 2.136719 C 31.054688 2.136719 33.863281 4.945312 33.863281 8.40625 L 33.863281 27.59375 C 33.863281 31.054688 31.054688 33.863281 27.59375 33.863281 L 8.40625 33.863281 C 4.945312 33.863281 2.136719 31.054688 2.136719 27.59375 L 2.136719 8.40625 C 2.136719 4.945312 4.945312 2.136719 8.40625 2.136719 Z M 8.40625 2.136719 "/>
<path style=" stroke:none;fill-rule:nonzero;fill:rgb(87.45098%,50.980392%,85.098039%);fill-opacity:1;" d="M 27.375 24.390625 C 27.375 22.746094 26.039062 21.410156 24.390625 21.410156 C 22.746094 21.410156 21.410156 22.746094 21.410156 24.390625 C 21.410156 26.039062 22.746094 27.375 24.390625 27.375 C 26.039062 27.375 27.375 26.039062 27.375 24.390625 Z M 27.375 24.390625 "/>
<path style=" stroke:none;fill-rule:nonzero;fill:rgb(44.705882%,67.45098%,93.72549%);fill-opacity:1;" d="M 7.773438 20.558594 L 11.363281 15.117188 L 14.28125 20.167969 Z M 7.773438 20.558594 "/>
<path style=" stroke:none;fill-rule:nonzero;fill:rgb(29.803922%,58.431373%,92.156863%);fill-opacity:1;" d="M 6.921875 15.871094 L 12.886719 12.886719 L 12.886719 18.851562 Z M 6.921875 15.871094 "/>
<path style=" stroke:none;fill-rule:nonzero;fill:rgb(22.745098%,54.117647%,91.372549%);fill-opacity:1;" d="M 7.773438 11.96875 L 14.160156 10.664062 L 12.652344 16.296875 Z M 7.773438 11.96875 "/>
<path style=" stroke:none;fill-rule:nonzero;fill:rgb(18.823529%,45.490196%,76.470588%);fill-opacity:1;" d="M 10.328125 8.296875 L 16.835938 8.6875 L 13.921875 13.738281 Z M 10.328125 8.296875 "/>
<path style=" stroke:none;fill-rule:nonzero;fill:rgb(84.313725%,38.039216%,81.176471%);fill-opacity:1;" d="M 29.078125 16.296875 C 29.078125 11.589844 25.265625 7.773438 20.558594 7.773438 C 15.851562 7.773438 12.035156 11.589844 12.035156 16.296875 C 12.035156 21.003906 15.851562 24.816406 20.558594 24.816406 C 25.265625 24.816406 29.078125 21.003906 29.078125 16.296875 Z M 29.078125 16.296875 "/>
<path style=" stroke:none;fill-rule:nonzero;fill:rgb(87.45098%,50.980392%,85.098039%);fill-opacity:1;" d="M 19.703125 25.246094 C 19.703125 23.597656 18.367188 22.261719 16.722656 22.261719 C 15.074219 22.261719 13.738281 23.597656 13.738281 25.246094 C 13.738281 26.890625 15.074219 28.226562 16.722656 28.226562 C 18.367188 28.226562 19.703125 26.890625 19.703125 25.246094 Z M 19.703125 25.246094 "/>
<path style=" stroke:none;fill-rule:nonzero;fill:rgb(100%,100%,100%);fill-opacity:1;" d="M 25.101562 15.289062 C 25.101562 13.789062 24.085938 12.578125 22.828125 12.578125 C 21.574219 12.578125 20.558594 13.789062 20.558594 15.289062 C 20.558594 16.785156 21.574219 18 22.828125 18 C 24.085938 18 25.101562 16.785156 25.101562 15.289062 Z M 25.101562 15.289062 "/>
<path style=" stroke:none;fill-rule:nonzero;fill:rgb(100%,100%,100%);fill-opacity:1;" d="M 27.375 14.746094 C 27.375 13.25 26.359375 12.035156 25.101562 12.035156 C 23.847656 12.035156 22.828125 13.25 22.828125 14.746094 C 22.828125 16.242188 23.847656 17.457031 25.101562 17.457031 C 26.359375 17.457031 27.375 16.242188 27.375 14.746094 Z M 27.375 14.746094 "/>
<path style=" stroke:none;fill-rule:nonzero;fill:rgb(10.588235%,10.588235%,10.588235%);fill-opacity:1;" d="M 24.390625 15.441406 C 24.390625 14.972656 24.105469 14.589844 23.753906 14.589844 C 23.398438 14.589844 23.113281 14.972656 23.113281 15.441406 C 23.113281 15.914062 23.398438 16.296875 23.753906 16.296875 C 24.105469 16.296875 24.390625 15.914062 24.390625 15.441406 Z M 24.390625 15.441406 "/>
<use xlink:href="#surface6" mask="url(#mask0)"/>
<path style=" stroke:none;fill-rule:nonzero;fill:rgb(10.588235%,10.588235%,10.588235%);fill-opacity:1;" d="M 26.949219 14.589844 C 26.949219 14.121094 26.664062 13.738281 26.308594 13.738281 C 25.957031 13.738281 25.671875 14.121094 25.671875 14.589844 C 25.671875 15.0625 25.957031 15.441406 26.308594 15.441406 C 26.664062 15.441406 26.949219 15.0625 26.949219 14.589844 Z M 26.949219 14.589844 "/>
</g>
</svg>
