<?xml version="1.0" encoding="UTF-8"?>
<svg xmlns="http://www.w3.org/2000/svg" xmlns:xlink="http://www.w3.org/1999/xlink" width="36pt" height="36pt" viewBox="0 0 36 36" version="1.1">
<g id="surface1">
<path style=" stroke:none;fill-rule:evenodd;fill:rgb(99.607843%,80.392157%,21.960784%);fill-opacity:1;" d="M 8.40625 2.136719 L 27.59375 2.136719 C 31.054688 2.136719 33.863281 4.945312 33.863281 8.40625 L 33.863281 27.59375 C 33.863281 31.054688 31.054688 33.863281 27.59375 33.863281 L 8.40625 33.863281 C 4.945312 33.863281 2.136719 31.054688 2.136719 27.59375 L 2.136719 8.40625 C 2.136719 4.945312 4.945312 2.136719 8.40625 2.136719 Z M 8.40625 2.136719 "/>
<path style=" stroke:none;fill-rule:nonzero;fill:rgb(19.215686%,69.019608%,23.137255%);fill-opacity:1;" d="M 31.5 18 C 31.5 25.457031 25.457031 31.5 18 31.5 C 10.542969 31.5 4.5 25.457031 4.5 18 C 4.5 10.542969 10.542969 4.5 18 4.5 C 25.457031 4.5 31.5 10.542969 31.5 18 Z M 31.5 18 "/>
<path style=" stroke:none;fill-rule:nonzero;fill:rgb(100%,100%,100%);fill-opacity:1;" d="M 6.75 11.8125 L 9 11.8125 L 9 23.0625 L 6.75 23.0625 Z M 6.75 11.8125 "/>
<path style=" stroke:none;fill-rule:nonzero;fill:rgb(100%,100%,100%);fill-opacity:1;" d="M 10.125 11.8125 L 12.375 11.8125 L 12.375 20.8125 L 10.125 20.8125 Z M 10.125 11.8125 "/>
<path style=" stroke:none;fill-rule:nonzero;fill:rgb(100%,100%,100%);fill-opacity:1;" d="M 29.25 11.8125 L 27 11.8125 L 27 23.0625 L 29.25 23.0625 Z M 29.25 11.8125 "/>
<path style=" stroke:none;fill-rule:nonzero;fill:rgb(100%,100%,100%);fill-opacity:1;" d="M 25.875 11.8125 L 23.625 11.8125 L 23.625 20.8125 L 25.875 20.8125 Z M 25.875 11.8125 "/>
<path style=" stroke:none;fill-rule:nonzero;fill:rgb(100%,100%,100%);fill-opacity:1;" d="M 18 11.8125 C 15.515625 11.8125 13.5 13.828125 13.5 16.3125 C 13.5 18.796875 15.515625 20.8125 18 20.8125 C 20.484375 20.8125 22.5 18.796875 22.5 16.3125 C 22.5 13.828125 20.484375 11.8125 18 11.8125 Z M 18 14.0625 C 19.242188 14.0625 20.25 15.070312 20.25 16.3125 C 20.25 17.554688 19.242188 18.5625 18 18.5625 C 16.757812 18.5625 15.75 17.554688 15.75 16.3125 C 15.75 15.070312 16.757812 14.0625 18 14.0625 Z M 18 14.0625 "/>
<path style=" stroke:none;fill-rule:nonzero;fill:rgb(100%,100%,100%);fill-opacity:1;" d="M 6.75 14.398438 L 11.25 14.398438 L 11.25 16.648438 L 6.75 16.648438 Z M 6.75 14.398438 "/>
<path style=" stroke:none;fill-rule:nonzero;fill:rgb(100%,100%,100%);fill-opacity:1;" d="M 25.875 11.8125 L 28.929688 16.972656 L 29.046875 18.195312 L 28.644531 18.804688 L 29.019531 21.597656 L 28.832031 21.101562 L 27.59375 18.957031 L 24.074219 12.859375 Z M 25.875 11.8125 "/>
<path style=" stroke:none;fill-rule:nonzero;fill:rgb(100%,100%,100%);fill-opacity:1;" d="M 13.5 21.9375 L 22.5 21.9375 L 22.5 24.1875 L 13.5 24.1875 Z M 13.5 21.9375 "/>
</g>
</svg>
