<?xml version="1.0" encoding="UTF-8"?>
<svg xmlns="http://www.w3.org/2000/svg" xmlns:xlink="http://www.w3.org/1999/xlink" width="36pt" height="36pt" viewBox="0 0 36 36" version="1.1">
<defs>
<clipPath id="clip1">
  <rect width="36" height="36"/>
</clipPath>
<g id="surface6" clip-path="url(#clip1)">
<path style=" stroke:none;fill-rule:nonzero;fill:rgb(100%,100%,100%);fill-opacity:1;" d="M 18 8.4375 C 16.757812 8.4375 15.75 9.445312 15.75 10.6875 C 15.75 11.929688 16.757812 12.9375 18 12.9375 C 19.242188 12.9375 20.25 11.929688 20.25 10.6875 C 20.25 9.445312 19.242188 8.4375 18 8.4375 Z M 13.5 15.1875 L 13.5 17.4375 L 15.75 17.4375 L 15.75 25.3125 L 13.5 25.3125 L 13.5 27.5625 L 22.5 27.5625 L 22.5 25.3125 L 20.25 25.3125 L 20.25 15.1875 Z M 13.5 15.1875 "/>
</g>
</defs>
<g id="surface1">
<path style=" stroke:none;fill-rule:evenodd;fill:rgb(12.54902%,58.431373%,94.901961%);fill-opacity:1;" d="M 8.40625 2.136719 L 27.59375 2.136719 C 31.054688 2.136719 33.863281 4.945312 33.863281 8.40625 L 33.863281 27.59375 C 33.863281 31.054688 31.054688 33.863281 27.59375 33.863281 L 8.40625 33.863281 C 4.945312 33.863281 2.136719 31.054688 2.136719 27.59375 L 2.136719 8.40625 C 2.136719 4.945312 4.945312 2.136719 8.40625 2.136719 Z M 8.40625 2.136719 "/>
<use xlink:href="#surface6"/>
</g>
</svg>
