<?xml version="1.0" encoding="UTF-8"?>
<svg xmlns="http://www.w3.org/2000/svg" xmlns:xlink="http://www.w3.org/1999/xlink" width="36pt" height="36pt" viewBox="0 0 36 36" version="1.1">
<g id="surface1">
<path style=" stroke:none;fill-rule:evenodd;fill:rgb(78.039216%,29.019608%,70.588235%);fill-opacity:1;" d="M 8.40625 2.136719 L 27.59375 2.136719 C 31.054688 2.136719 33.863281 4.945312 33.863281 8.410156 L 33.863281 27.59375 C 33.863281 31.058594 31.054688 33.867188 27.59375 33.867188 L 8.40625 33.867188 C 4.945312 33.867188 2.136719 31.058594 2.136719 27.59375 L 2.136719 8.410156 C 2.136719 4.945312 4.945312 2.136719 8.40625 2.136719 Z M 8.40625 2.136719 "/>
<path style=" stroke:none;fill-rule:evenodd;fill:rgb(50.196078%,50.196078%,50.196078%);fill-opacity:1;" d="M 10.21875 33.867188 L 27.589844 33.867188 C 31.066406 33.867188 33.863281 31.066406 33.863281 27.59375 L 33.863281 8.410156 C 33.863281 4.933594 31.066406 2.136719 27.589844 2.136719 L 10.21875 2.136719 Z M 10.21875 33.867188 "/>
<path style=" stroke:none;fill-rule:evenodd;fill:rgb(30.196078%,30.196078%,30.196078%);fill-opacity:1;" d="M 10.21875 33.867188 L 10.21875 2.136719 L 8.40625 2.136719 C 4.933594 2.136719 2.136719 4.933594 2.136719 8.410156 L 2.136719 27.59375 C 2.136719 31.066406 4.933594 33.867188 8.40625 33.867188 Z M 10.21875 33.867188 "/>
<path style=" stroke:none;fill-rule:nonzero;fill:rgb(39.607843%,84.313725%,49.019608%);fill-opacity:1;" d="M 15.144531 22.21875 L 15.144531 25.40625 L 18.328125 25.40625 L 26.375 17.359375 L 23.1875 14.175781 Z M 29.191406 14.550781 C 29.527344 14.214844 29.527344 13.683594 29.191406 13.347656 L 27.199219 11.355469 C 26.863281 11.019531 26.332031 11.019531 25.996094 11.355469 L 24.332031 13.03125 L 27.515625 16.214844 Z M 29.191406 14.550781 "/>
</g>
</svg>
