<?xml version="1.0" encoding="UTF-8"?>
<svg xmlns="http://www.w3.org/2000/svg" xmlns:xlink="http://www.w3.org/1999/xlink" width="36pt" height="36pt" viewBox="0 0 36 36" version="1.1">
<g id="surface1">
<path style=" stroke:none;fill-rule:evenodd;fill:rgb(25.882353%,41.960784%,39.607843%);fill-opacity:1;" d="M 8.40625 2.136719 L 27.59375 2.136719 C 31.054688 2.136719 33.863281 4.945312 33.863281 8.40625 L 33.863281 27.59375 C 33.863281 31.054688 31.054688 33.863281 27.59375 33.863281 L 8.40625 33.863281 C 4.945312 33.863281 2.136719 31.054688 2.136719 27.59375 L 2.136719 8.40625 C 2.136719 4.945312 4.945312 2.136719 8.40625 2.136719 Z M 8.40625 2.136719 "/>
<path style=" stroke:none;fill-rule:nonzero;fill:rgb(34.509804%,50.196078%,48.627451%);fill-opacity:1;" d="M 8.496094 6.027344 C 7.800781 6.183594 7.253906 6.613281 7.3125 7.40625 L 8.242188 22.296875 C 8.277344 22.769531 8.503906 23.199219 8.859375 23.464844 L 17.226562 29.710938 C 17.695312 30.0625 18.304688 30.0625 18.773438 29.710938 L 27.140625 23.464844 C 27.496094 23.199219 27.722656 22.769531 27.757812 22.296875 L 28.6875 7.40625 C 28.746094 6.613281 28.199219 6.183594 27.503906 6.027344 Z M 8.496094 6.027344 "/>
<path style=" stroke:none;fill-rule:evenodd;fill:rgb(92.54902%,92.54902%,92.54902%);fill-opacity:1;" d="M 18.59375 12.613281 L 16.8125 14.40625 L 18.59375 14.40625 L 19.1875 15.007812 L 20.375 13.210938 L 19.78125 12.613281 Z M 20.96875 13.210938 L 19.78125 15.007812 L 20.375 16.800781 L 22.15625 15.007812 L 22.15625 15.605469 L 20.375 17.402344 L 20.96875 18.597656 L 23.34375 16.203125 L 23.34375 16.800781 L 20.96875 19.195312 L 23.34375 19.195312 L 24.535156 18 L 24.535156 16.800781 L 23.9375 16.203125 L 23.9375 15.007812 L 22.75 14.40625 L 22.15625 13.210938 Z M 15.625 15.007812 L 15.03125 15.605469 L 16.21875 19.796875 L 11.308594 25.292969 L 14.984375 28.039062 L 19.78125 21.59375 L 20.96875 21.59375 L 21.5625 20.992188 L 22.75 20.394531 L 23.34375 19.796875 L 20.375 19.796875 L 19.78125 18 L 19.1875 18 L 18.59375 19.796875 L 17.40625 19.796875 L 18 18 L 16.8125 16.800781 L 17.40625 16.203125 L 18.59375 17.402344 L 19.78125 17.402344 L 19.78125 16.800781 L 18.59375 15.007812 Z M 14.4375 16.203125 L 15.03125 19.195312 L 15.03125 19.796875 L 10.023438 24.335938 L 10.351562 24.578125 C 11.074219 23.921875 13.859375 21.378906 15.625 19.796875 Z M 18.59375 21.59375 L 19.1875 21.59375 L 16.21875 25.183594 Z M 18.59375 21.59375 "/>
</g>
</svg>
