<?xml version="1.0" encoding="UTF-8"?>
<svg xmlns="http://www.w3.org/2000/svg" xmlns:xlink="http://www.w3.org/1999/xlink" width="36pt" height="36pt" viewBox="0 0 36 36" version="1.1">
<g id="surface1">
<path style=" stroke:none;fill-rule:evenodd;fill:rgb(80%,80%,80%);fill-opacity:1;" d="M 8.40625 2.136719 L 27.59375 2.136719 C 31.054688 2.136719 33.863281 4.945312 33.863281 8.40625 L 33.863281 27.59375 C 33.863281 31.054688 31.054688 33.863281 27.59375 33.863281 L 8.40625 33.863281 C 4.945312 33.863281 2.136719 31.054688 2.136719 27.59375 L 2.136719 8.40625 C 2.136719 4.945312 4.945312 2.136719 8.40625 2.136719 Z M 8.40625 2.136719 "/>
<path style=" stroke:none;fill-rule:nonzero;fill:rgb(26.666667%,43.529412%,49.019608%);fill-opacity:1;" d="M 15.75 12.917969 C 14.738281 12.921875 13.621094 13.101562 13.113281 13.410156 C 12.609375 13.71875 12.375 14.195312 12.375 14.851562 L 12.375 16.292969 C 12.375 16.6875 12.191406 16.945312 11.882812 17.136719 C 11.578125 17.328125 10.753906 17.457031 10.125 17.453125 L 10.125 18.578125 C 11.363281 18.582031 12.375 18.992188 12.375 19.773438 L 12.375 21.007812 C 12.375 21.726562 12.609375 22.265625 13.078125 22.585938 C 13.554688 22.914062 14.671875 23.070312 15.75 23.078125 L 15.75 21.921875 C 15.214844 21.910156 14.089844 21.816406 13.851562 21.640625 C 13.613281 21.460938 13.5 21.210938 13.5 20.867188 L 13.5 19.53125 C 13.5 19.183594 13.371094 18.167969 12.304688 18.019531 L 12.304688 17.949219 C 13.371094 17.78125 13.5 16.964844 13.5 16.46875 L 13.5 15.132812 C 13.5 14.789062 13.613281 14.570312 13.851562 14.394531 C 14.09375 14.21875 15.21875 14.101562 15.75 14.078125 Z M 20.25 12.917969 L 20.25 14.078125 C 20.78125 14.101562 21.90625 14.21875 22.148438 14.394531 C 22.386719 14.570312 22.5 14.789062 22.5 15.132812 L 22.5 16.46875 C 22.5 16.964844 22.628906 17.78125 23.695312 17.945312 L 23.695312 18.015625 C 22.628906 18.167969 22.5 19.183594 22.5 19.53125 L 22.5 20.867188 C 22.5 21.210938 22.386719 21.460938 22.148438 21.640625 C 21.910156 21.816406 20.785156 21.910156 20.25 21.921875 L 20.25 23.082031 C 21.328125 23.070312 22.445312 22.914062 22.921875 22.589844 C 23.390625 22.265625 23.625 21.726562 23.625 21.007812 L 23.625 19.777344 C 23.625 18.992188 24.636719 18.582031 25.875 18.582031 L 25.875 17.457031 C 25.246094 17.457031 24.421875 17.328125 24.117188 17.140625 C 23.808594 16.945312 23.625 16.6875 23.625 16.292969 L 23.625 14.851562 C 23.625 14.195312 23.390625 13.71875 22.886719 13.410156 C 22.378906 13.101562 21.261719 12.921875 20.25 12.917969 Z M 20.25 12.917969 "/>
</g>
</svg>
