<?xml version="1.0" encoding="UTF-8"?>
<svg xmlns="http://www.w3.org/2000/svg" xmlns:xlink="http://www.w3.org/1999/xlink" width="36pt" height="36pt" viewBox="0 0 36 36" version="1.1">
<g id="surface1">
<path style=" stroke:none;fill-rule:evenodd;fill:rgb(80%,94.117647%,74.509804%);fill-opacity:1;" d="M 8.40625 2.136719 L 27.59375 2.136719 C 31.054688 2.136719 33.863281 4.945312 33.863281 8.40625 L 33.863281 27.59375 C 33.863281 31.054688 31.054688 33.863281 27.59375 33.863281 L 8.40625 33.863281 C 4.945312 33.863281 2.136719 31.054688 2.136719 27.59375 L 2.136719 8.40625 C 2.136719 4.945312 4.945312 2.136719 8.40625 2.136719 Z M 8.40625 2.136719 "/>
<path style=" stroke:none;fill-rule:nonzero;fill:rgb(29.411765%,68.235294%,30.980392%);fill-opacity:1;" d="M 14.058594 6.609375 C 13.328125 6.609375 12.742188 7.195312 12.742188 7.925781 L 12.742188 20.191406 C 12.742188 20.917969 13.328125 21.503906 14.058594 21.503906 L 26.324219 21.503906 C 27.050781 21.503906 27.636719 20.917969 27.636719 20.191406 L 27.636719 9.238281 L 30.265625 6.609375 Z M 14.058594 6.609375 "/>
<path style=" stroke:none;fill-rule:nonzero;fill:rgb(54.117647%,76.078431%,28.627451%);fill-opacity:1;" d="M 5.734375 14.496094 L 8.363281 17.125 L 8.363281 28.074219 C 8.363281 28.804688 8.949219 29.390625 9.675781 29.390625 L 21.941406 29.390625 C 22.671875 29.390625 23.257812 28.804688 23.257812 28.074219 L 23.257812 15.808594 C 23.257812 15.082031 22.671875 14.496094 21.941406 14.496094 Z M 5.734375 14.496094 "/>
<path style=" stroke:none;fill-rule:evenodd;fill:rgb(100%,100%,100%);fill-opacity:1;" d="M 14.660156 17.640625 L 14.1875 20.179688 L 11.554688 20.179688 L 11.554688 21.027344 L 14.027344 21.027344 L 13.554688 23.566406 L 11.554688 23.566406 L 11.554688 24.414062 L 13.394531 24.414062 L 12.921875 26.953125 L 13.816406 26.953125 L 14.292969 24.414062 L 16.53125 24.414062 L 16.054688 26.953125 L 16.949219 26.953125 L 17.425781 24.414062 L 20.503906 24.414062 L 20.503906 23.566406 L 17.582031 23.566406 L 18.058594 21.027344 L 20.503906 21.027344 L 20.503906 20.179688 L 18.214844 20.179688 L 18.6875 17.640625 L 17.792969 17.640625 L 17.320312 20.179688 L 15.082031 20.179688 L 15.554688 17.640625 Z M 14.925781 21.027344 L 17.164062 21.027344 L 16.6875 23.566406 L 14.449219 23.566406 Z M 14.925781 21.027344 "/>
</g>
</svg>
