<?xml version="1.0" encoding="UTF-8"?>
<svg xmlns="http://www.w3.org/2000/svg" xmlns:xlink="http://www.w3.org/1999/xlink" width="36pt" height="36pt" viewBox="0 0 36 36" version="1.1">
<g id="surface1">
<path style=" stroke:none;fill-rule:evenodd;fill:rgb(98.039216%,36.078431%,36.078431%);fill-opacity:1;" d="M 8.40625 2.136719 L 27.59375 2.136719 C 31.054688 2.136719 33.863281 4.945312 33.863281 8.40625 L 33.863281 27.59375 C 33.863281 31.054688 31.054688 33.863281 27.59375 33.863281 L 8.40625 33.863281 C 4.945312 33.863281 2.136719 31.054688 2.136719 27.59375 L 2.136719 8.40625 C 2.136719 4.945312 4.945312 2.136719 8.40625 2.136719 Z M 8.40625 2.136719 "/>
<path style=" stroke:none;fill-rule:nonzero;fill:rgb(100%,75.294118%,100%);fill-opacity:1;" d="M 12.214844 9.003906 C 12.09375 9 11.96875 9 11.84375 9.007812 C 9.246094 9.171875 6.402344 12.464844 5.109375 16.804688 C 3.644531 21.734375 4.671875 26.261719 7.410156 26.921875 C 9.148438 27.335938 11.246094 26.085938 12.9375 23.625 L 23.0625 23.625 C 24.753906 26.085938 26.847656 27.335938 28.585938 26.921875 C 31.324219 26.265625 32.355469 21.734375 30.890625 16.804688 C 29.421875 11.878906 26.011719 8.417969 23.273438 9.078125 C 22 9.390625 21.042969 10.570312 20.59375 12.375 L 15.40625 12.375 C 14.957031 10.570312 13.996094 9.390625 12.722656 9.078125 C 12.558594 9.039062 12.390625 9.015625 12.214844 9.003906 Z M 15.691406 14.625 L 20.191406 14.625 L 20.191406 18 L 21.316406 18 L 17.941406 21.375 L 14.566406 18 L 15.691406 18 Z M 15.691406 14.625 "/>
</g>
</svg>
