<?xml version="1.0" encoding="UTF-8"?>
<svg xmlns="http://www.w3.org/2000/svg" xmlns:xlink="http://www.w3.org/1999/xlink" width="36pt" height="36pt" viewBox="0 0 36 36" version="1.1">
<g id="surface1">
<path style=" stroke:none;fill-rule:evenodd;fill:rgb(33.333333%,39.215686%,56.078431%);fill-opacity:1;" d="M 8.40625 2.136719 L 27.59375 2.136719 C 31.054688 2.136719 33.863281 4.945312 33.863281 8.40625 L 33.863281 27.59375 C 33.863281 31.054688 31.054688 33.863281 27.59375 33.863281 L 8.40625 33.863281 C 4.945312 33.863281 2.136719 31.054688 2.136719 27.59375 L 2.136719 8.40625 C 2.136719 4.945312 4.945312 2.136719 8.40625 2.136719 Z M 8.40625 2.136719 "/>
<path style=" stroke:none;fill-rule:evenodd;fill:rgb(100%,100%,100%);fill-opacity:1;" d="M 8.128906 7.875 C 12.503906 12.859375 13.082031 18 12.851562 21.375 C 12.648438 24.332031 10.828125 25.441406 10.480469 25.582031 C 9.757812 25.871094 8.054688 26.308594 5.625 24.75 C 5.625 26.566406 7.1875 28.125 9.902344 28.125 C 12.621094 28.125 14.84375 25.945312 15.296875 23.488281 C 16.863281 10.800781 13.878906 9.019531 13.878906 9.019531 C 13.878906 9.019531 11.148438 7.875 8.128906 7.875 Z M 16.875 7.875 C 17.667969 11.242188 23.625 12.566406 23.625 14.164062 C 23.625 15.765625 19.058594 16.042969 19.125 18.636719 C 19.191406 22.222656 24.949219 26.964844 30.375 28.125 C 27.992188 25.367188 21.972656 19.351562 23.957031 17.804688 C 31.105469 12.949219 24.550781 8.980469 16.875 7.875 Z M 16.875 7.875 "/>
</g>
</svg>
