<?xml version="1.0" encoding="UTF-8"?>
<svg xmlns="http://www.w3.org/2000/svg" xmlns:xlink="http://www.w3.org/1999/xlink" width="36pt" height="36pt" viewBox="0 0 36 36" version="1.1">
<defs>
<clipPath id="clip1">
  <rect width="36" height="36"/>
</clipPath>
<g id="surface6" clip-path="url(#clip1)">
<path style=" stroke:none;fill-rule:nonzero;fill:rgb(100%,78.823529%,12.941176%);fill-opacity:1;" d="M 31.554688 25.050781 C 31.554688 28.777344 28.53125 31.800781 24.804688 31.800781 C 21.074219 31.800781 18.054688 28.777344 18.054688 25.050781 C 18.054688 21.320312 21.074219 18.300781 24.804688 18.300781 C 28.53125 18.300781 31.554688 21.320312 31.554688 25.050781 Z M 31.554688 25.050781 "/>
</g>
</defs>
<g id="surface1">
<path style=" stroke:none;fill-rule:evenodd;fill:rgb(21.568627%,62.745098%,94.901961%);fill-opacity:1;" d="M 8.40625 2.136719 L 27.59375 2.136719 C 31.054688 2.136719 33.863281 4.945312 33.863281 8.40625 L 33.863281 27.59375 C 33.863281 31.054688 31.054688 33.863281 27.59375 33.863281 L 8.40625 33.863281 C 4.945312 33.863281 2.136719 31.054688 2.136719 27.59375 L 2.136719 8.40625 C 2.136719 4.945312 4.945312 2.136719 8.40625 2.136719 Z M 8.40625 2.136719 "/>
<path style=" stroke:none;fill-rule:nonzero;fill:rgb(63.529412%,95.686275%,41.568627%);fill-opacity:1;" d="M 12.21875 6.117188 C 11.882812 6.28125 11.550781 6.457031 11.230469 6.648438 L 11.359375 6.648438 L 11.425781 6.859375 L 11.242188 7.03125 L 12.035156 7.054688 L 12.15625 7.339844 L 11.261719 7.304688 L 11.21875 7.085938 L 10.699219 6.972656 C 10.515625 7.09375 10.339844 7.222656 10.164062 7.355469 L 10.476562 7.355469 L 10.476562 7.5625 L 10.339844 7.746094 L 9.6875 7.746094 L 9.6875 7.71875 C 7.882812 9.191406 6.523438 11.136719 5.757812 13.339844 L 5.828125 13.371094 L 5.828125 14.425781 L 6.355469 15.328125 L 6.785156 15.394531 L 6.839844 15.085938 L 6.332031 14.300781 L 6.234375 13.539062 L 6.53125 13.539062 L 6.65625 14.324219 L 7.390625 15.394531 L 7.203125 15.742188 L 7.667969 16.457031 L 8.824219 16.742188 L 8.824219 16.554688 L 9.289062 16.621094 L 9.246094 16.953125 L 9.609375 17.019531 L 10.171875 17.171875 L 10.964844 18.078125 L 11.980469 18.15625 L 12.078125 18.984375 L 11.382812 19.472656 L 11.351562 20.210938 L 11.25 20.664062 L 12.253906 21.921875 L 12.332031 22.355469 C 12.332031 22.355469 12.695312 22.453125 12.742188 22.453125 C 12.785156 22.453125 13.554688 23.039062 13.554688 23.039062 L 13.554688 25.316406 L 13.832031 25.394531 L 13.644531 26.441406 L 14.105469 27.0625 L 14.023438 28.101562 L 14.632812 29.179688 L 15.414062 29.859375 C 15.425781 29.863281 15.441406 29.867188 15.457031 29.867188 L 16.210938 29.882812 L 16.285156 29.628906 L 15.707031 29.136719 L 15.738281 28.894531 L 15.84375 28.597656 L 15.863281 28.292969 L 15.472656 28.28125 L 15.273438 28.03125 L 15.601562 27.714844 L 15.644531 27.480469 L 15.28125 27.375 L 15.300781 27.15625 L 15.820312 27.078125 L 16.609375 26.695312 L 16.875 26.210938 L 17.699219 25.152344 L 17.511719 24.320312 L 17.765625 23.878906 L 18.527344 23.902344 L 19.039062 23.496094 L 19.203125 21.894531 L 19.773438 21.171875 L 19.871094 20.707031 L 19.355469 20.542969 L 19.011719 19.980469 L 17.84375 19.96875 L 16.917969 19.613281 L 16.875 18.953125 L 16.5625 18.410156 L 15.726562 18.398438 L 15.242188 17.636719 L 14.8125 17.425781 L 14.789062 17.660156 L 14.007812 17.707031 L 13.71875 17.304688 L 12.90625 17.140625 L 12.230469 17.917969 L 11.175781 17.738281 L 11.097656 16.542969 L 10.324219 16.414062 L 10.636719 15.828125 L 10.546875 15.488281 L 9.53125 16.167969 L 8.894531 16.089844 L 8.667969 15.589844 L 8.804688 15.074219 L 9.15625 14.425781 L 9.96875 14.015625 L 11.53125 14.015625 L 11.527344 14.492188 L 12.089844 14.753906 L 12.046875 13.9375 L 12.453125 13.527344 L 13.269531 12.992188 L 13.328125 12.613281 L 14.140625 11.761719 L 15.007812 11.28125 L 14.933594 11.214844 L 15.519531 10.660156 L 15.734375 10.71875 L 15.835938 10.84375 L 16.058594 10.59375 L 16.109375 10.570312 L 15.867188 10.535156 L 15.621094 10.453125 L 15.621094 10.214844 L 15.75 10.105469 L 16.039062 10.105469 L 16.171875 10.164062 L 16.289062 10.398438 L 16.429688 10.375 L 16.429688 10.355469 L 16.46875 10.367188 L 16.875 10.308594 L 16.933594 10.109375 L 17.164062 10.167969 L 17.164062 10.382812 L 16.949219 10.53125 L 16.980469 10.765625 L 17.71875 10.992188 C 17.71875 10.992188 17.71875 10.996094 17.71875 11.003906 L 17.890625 10.988281 L 17.902344 10.667969 L 17.316406 10.402344 L 17.285156 10.25 L 17.769531 10.082031 L 17.789062 9.617188 L 17.285156 9.308594 L 17.25 8.527344 L 16.554688 8.867188 L 16.300781 8.867188 L 16.367188 8.273438 L 15.421875 8.046875 L 15.03125 8.34375 L 15.03125 9.246094 L 14.328125 9.472656 L 14.046875 10.058594 L 13.742188 10.109375 L 13.742188 9.355469 L 13.078125 9.265625 L 12.75 9.050781 L 12.617188 8.5625 L 13.796875 7.867188 L 14.375 7.691406 L 14.433594 8.078125 L 14.757812 8.0625 L 14.78125 7.867188 L 15.117188 7.820312 L 15.125 7.75 L 14.980469 7.691406 L 14.945312 7.484375 L 15.363281 7.449219 L 15.609375 7.1875 L 15.625 7.167969 L 15.628906 7.167969 L 15.703125 7.089844 L 16.574219 6.980469 L 16.960938 7.308594 L 15.949219 7.847656 L 17.234375 8.152344 L 17.402344 7.71875 L 17.964844 7.71875 L 18.164062 7.34375 L 17.765625 7.246094 L 17.765625 6.769531 L 16.519531 6.21875 L 15.660156 6.316406 L 15.175781 6.570312 L 15.210938 7.191406 L 14.699219 7.113281 L 14.625 6.769531 L 15.109375 6.328125 L 14.226562 6.285156 L 13.972656 6.359375 L 13.863281 6.660156 L 14.195312 6.714844 L 14.128906 7.046875 L 13.566406 7.078125 L 13.480469 7.300781 L 12.664062 7.324219 C 12.664062 7.324219 12.640625 6.859375 12.609375 6.859375 C 12.574219 6.859375 13.246094 6.847656 13.246094 6.847656 L 13.734375 6.371094 L 13.46875 6.238281 L 13.117188 6.582031 L 12.53125 6.550781 L 12.21875 6.121094 Z M 25.875 7.945312 L 25.472656 8.101562 L 25.214844 8.382812 L 25.273438 8.710938 L 25.589844 8.753906 L 25.78125 9.230469 L 26.324219 9.011719 L 26.414062 9.648438 L 26.25 9.648438 L 25.804688 9.582031 L 25.308594 9.667969 L 24.828125 10.34375 L 24.140625 10.453125 L 24.042969 11.042969 L 24.332031 11.109375 L 24.25 11.488281 L 23.566406 11.351562 L 22.941406 11.488281 L 22.808594 11.835938 L 22.917969 12.570312 L 23.285156 12.742188 L 23.898438 12.738281 L 24.316406 12.699219 L 24.441406 12.367188 L 25.089844 11.523438 L 25.519531 11.609375 L 25.941406 11.230469 L 26.019531 11.527344 L 27.054688 12.230469 L 26.925781 12.398438 L 26.460938 12.375 L 26.640625 12.628906 L 26.925781 12.691406 L 27.261719 12.550781 L 27.257812 12.144531 L 27.40625 12.070312 L 27.285156 11.941406 L 26.59375 11.554688 L 26.414062 11.042969 L 26.988281 11.042969 L 27.171875 11.226562 L 27.664062 11.652344 L 27.6875 12.167969 L 28.199219 12.714844 L 28.390625 11.964844 L 28.746094 11.773438 L 28.8125 12.382812 L 29.15625 12.765625 L 29.320312 12.761719 C 28.855469 11.613281 28.226562 10.539062 27.449219 9.574219 L 26.613281 9.566406 L 26.554688 9.378906 L 27.054688 9.125 C 26.6875 8.707031 26.292969 8.3125 25.871094 7.945312 Z M 10.464844 8.074219 C 10.492188 8.074219 10.464844 8.363281 10.464844 8.363281 L 9.8125 8.40625 L 9.6875 8.257812 L 10.152344 8.125 C 10.152344 8.125 10.441406 8.074219 10.464844 8.074219 Z M 11.261719 9.484375 L 11.574219 9.558594 L 11.464844 9.980469 L 11.125 10.089844 L 10.910156 9.648438 Z M 12.121094 10.484375 L 12.640625 10.484375 L 12.640625 10.644531 L 12.753906 10.644531 L 12.753906 10.917969 L 11.960938 10.917969 L 11.664062 10.835938 L 11.738281 10.644531 Z M 12.894531 10.601562 L 13.167969 10.851562 L 12.894531 10.917969 Z M 13.496094 10.984375 L 13.699219 11.109375 L 13.535156 11.246094 L 13.375 11.109375 Z M 11.972656 11.027344 L 12.410156 11.027344 L 11.847656 11.8125 L 11.617188 11.6875 L 11.664062 11.355469 Z M 12.675781 11.027344 L 13.121094 11.027344 L 13.121094 11.289062 L 12.921875 11.417969 L 12.675781 11.464844 Z M 13.226562 11.316406 L 13.261719 11.316406 L 13.765625 11.464844 L 13.765625 11.722656 L 13.34375 11.722656 L 13.226562 11.554688 Z M 13.019531 11.554688 L 13.019531 11.8125 L 12.832031 12.003906 L 12.410156 12.003906 L 12.476562 11.714844 L 12.675781 11.695312 L 12.714844 11.597656 Z M 26.132812 12.648438 L 24.644531 12.765625 L 24.183594 13.011719 L 23.59375 13.011719 L 23.304688 12.984375 L 22.585938 13.382812 L 22.585938 14.136719 L 21.117188 15.195312 L 21.242188 15.648438 L 21.539062 15.648438 L 21.460938 16.078125 L 21.25 16.15625 L 21.238281 17.285156 L 22.507812 18.730469 L 23.058594 18.730469 L 23.09375 18.644531 L 24.085938 18.644531 L 24.371094 18.375 L 24.933594 18.375 L 25.242188 18.6875 L 26.078125 18.773438 L 25.96875 19.890625 L 26.898438 21.539062 L 26.410156 22.476562 L 26.441406 22.917969 L 26.828125 23.304688 L 26.828125 24.367188 L 27.335938 25.050781 L 27.335938 25.515625 C 29.210938 23.253906 30.238281 20.410156 30.242188 17.472656 C 30.238281 16.253906 30.058594 15.042969 29.707031 13.875 L 29.078125 13.875 L 28.433594 13.394531 L 27.757812 13.460938 L 27.757812 13.875 L 27.542969 13.875 L 27.308594 13.710938 L 26.132812 13.410156 Z M 26.132812 12.648438 "/>
<use xlink:href="#surface6"/>
<path style=" stroke:none;fill-rule:nonzero;fill:rgb(18.039216%,18.039216%,18.039216%);fill-opacity:1;" d="M 24.789062 28.425781 L 22.273438 25.050781 L 23.960938 25.050781 L 23.960938 21.675781 L 25.648438 21.675781 L 25.648438 25.050781 L 27.335938 25.050781 Z M 24.789062 28.425781 "/>
</g>
</svg>
