<?xml version="1.0" encoding="UTF-8"?>
<svg xmlns="http://www.w3.org/2000/svg" xmlns:xlink="http://www.w3.org/1999/xlink" width="36pt" height="36pt" viewBox="0 0 36 36" version="1.1">
<defs>
<clipPath id="clip1">
  <path d="M 14 13 L 26 13 L 26 22 L 14 22 Z M 14 13 "/>
</clipPath>
<clipPath id="clip2">
  <path d="M 34.46875 17.96875 C 34.46875 27.070312 27.09375 34.4375 18.003906 34.4375 C 8.914062 34.4375 1.539062 27.070312 1.539062 17.96875 C 1.539062 8.871094 8.914062 1.503906 18.003906 1.503906 C 27.09375 1.503906 34.46875 8.871094 34.46875 17.96875 Z M 34.46875 17.96875 "/>
</clipPath>
<clipPath id="clip3">
  <path d="M 18 8 L 23 8 L 23 13 L 18 13 Z M 18 8 "/>
</clipPath>
<clipPath id="clip4">
  <path d="M 34.46875 17.96875 C 34.46875 27.070312 27.09375 34.4375 18.003906 34.4375 C 8.914062 34.4375 1.539062 27.070312 1.539062 17.96875 C 1.539062 8.871094 8.914062 1.503906 18.003906 1.503906 C 27.09375 1.503906 34.46875 8.871094 34.46875 17.96875 Z M 34.46875 17.96875 "/>
</clipPath>
<clipPath id="clip5">
  <path d="M 10 22 L 14 22 L 14 29 L 10 29 Z M 10 22 "/>
</clipPath>
<clipPath id="clip6">
  <path d="M 34.46875 17.96875 C 34.46875 27.070312 27.09375 34.4375 18.003906 34.4375 C 8.914062 34.4375 1.539062 27.070312 1.539062 17.96875 C 1.539062 8.871094 8.914062 1.503906 18.003906 1.503906 C 27.09375 1.503906 34.46875 8.871094 34.46875 17.96875 Z M 34.46875 17.96875 "/>
</clipPath>
<clipPath id="clip7">
  <path d="M 22 13 L 26 13 L 26 24 L 22 24 Z M 22 13 "/>
</clipPath>
<clipPath id="clip8">
  <path d="M 34.46875 17.96875 C 34.46875 27.070312 27.09375 34.4375 18.003906 34.4375 C 8.914062 34.4375 1.539062 27.070312 1.539062 17.96875 C 1.539062 8.871094 8.914062 1.503906 18.003906 1.503906 C 27.09375 1.503906 34.46875 8.871094 34.46875 17.96875 Z M 34.46875 17.96875 "/>
</clipPath>
<clipPath id="clip9">
  <path d="M 15 18 L 25 18 L 25 21 L 15 21 Z M 15 18 "/>
</clipPath>
<clipPath id="clip10">
  <path d="M 34.46875 17.96875 C 34.46875 27.070312 27.09375 34.4375 18.003906 34.4375 C 8.914062 34.4375 1.539062 27.070312 1.539062 17.96875 C 1.539062 8.871094 8.914062 1.503906 18.003906 1.503906 C 27.09375 1.503906 34.46875 8.871094 34.46875 17.96875 Z M 34.46875 17.96875 "/>
</clipPath>
<clipPath id="clip11">
  <path d="M 18 12 L 23 12 L 23 16 L 18 16 Z M 18 12 "/>
</clipPath>
<clipPath id="clip12">
  <path d="M 34.46875 17.96875 C 34.46875 27.070312 27.09375 34.4375 18.003906 34.4375 C 8.914062 34.4375 1.539062 27.070312 1.539062 17.96875 C 1.539062 8.871094 8.914062 1.503906 18.003906 1.503906 C 27.09375 1.503906 34.46875 8.871094 34.46875 17.96875 Z M 34.46875 17.96875 "/>
</clipPath>
<clipPath id="clip13">
  <path d="M 21 11 L 23 11 L 23 14 L 21 14 Z M 21 11 "/>
</clipPath>
<clipPath id="clip14">
  <path d="M 34.46875 17.96875 C 34.46875 27.070312 27.09375 34.4375 18.003906 34.4375 C 8.914062 34.4375 1.539062 27.070312 1.539062 17.96875 C 1.539062 8.871094 8.914062 1.503906 18.003906 1.503906 C 27.09375 1.503906 34.46875 8.871094 34.46875 17.96875 Z M 34.46875 17.96875 "/>
</clipPath>
<clipPath id="clip15">
  <path d="M 21 7 L 24 7 L 24 12 L 21 12 Z M 21 7 "/>
</clipPath>
<clipPath id="clip16">
  <path d="M 34.46875 17.96875 C 34.46875 27.070312 27.09375 34.4375 18.003906 34.4375 C 8.914062 34.4375 1.539062 27.070312 1.539062 17.96875 C 1.539062 8.871094 8.914062 1.503906 18.003906 1.503906 C 27.09375 1.503906 34.46875 8.871094 34.46875 17.96875 Z M 34.46875 17.96875 "/>
</clipPath>
<clipPath id="clip17">
  <path d="M 12 22 L 16 22 L 16 25 L 12 25 Z M 12 22 "/>
</clipPath>
<clipPath id="clip18">
  <path d="M 34.46875 17.96875 C 34.46875 27.070312 27.09375 34.4375 18.003906 34.4375 C 8.914062 34.4375 1.539062 27.070312 1.539062 17.96875 C 1.539062 8.871094 8.914062 1.503906 18.003906 1.503906 C 27.09375 1.503906 34.46875 8.871094 34.46875 17.96875 Z M 34.46875 17.96875 "/>
</clipPath>
<clipPath id="clip19">
  <path d="M 13 20 L 23 20 L 23 27 L 13 27 Z M 13 20 "/>
</clipPath>
<clipPath id="clip20">
  <path d="M 34.46875 17.96875 C 34.46875 27.070312 27.09375 34.4375 18.003906 34.4375 C 8.914062 34.4375 1.539062 27.070312 1.539062 17.96875 C 1.539062 8.871094 8.914062 1.503906 18.003906 1.503906 C 27.09375 1.503906 34.46875 8.871094 34.46875 17.96875 Z M 34.46875 17.96875 "/>
</clipPath>
</defs>
<g id="surface1">
<path style=" stroke:none;fill-rule:evenodd;fill:rgb(21.568627%,62.745098%,94.901961%);fill-opacity:1;" d="M 8.40625 2.136719 L 27.59375 2.136719 C 31.054688 2.136719 33.863281 4.945312 33.863281 8.40625 L 33.863281 27.59375 C 33.863281 31.054688 31.054688 33.863281 27.59375 33.863281 L 8.40625 33.863281 C 4.945312 33.863281 2.136719 31.054688 2.136719 27.59375 L 2.136719 8.40625 C 2.136719 4.945312 4.945312 2.136719 8.40625 2.136719 Z M 8.40625 2.136719 "/>
<g clip-path="url(#clip1)" clip-rule="nonzero">
<g clip-path="url(#clip2)" clip-rule="nonzero">
<path style=" stroke:none;fill-rule:nonzero;fill:rgb(96.078431%,100%,44.313725%);fill-opacity:1;" d="M 23.683594 13.925781 C 23.222656 14.035156 22.789062 14.253906 22.410156 14.527344 C 21.785156 15.382812 20.921875 16.070312 19.769531 16.339844 C 19.335938 16.023438 18.804688 15.652344 18.441406 15.234375 C 16.777344 15.421875 14.484375 15.792969 14.089844 17.394531 C 13.679688 19.058594 14.769531 21.234375 15.65625 21.359375 C 16.5 21.476562 19.207031 20.722656 20.515625 20.371094 C 19.417969 19.515625 18.15625 19.140625 17.46875 19.097656 C 16.660156 19.03125 15.960938 19.175781 15.234375 19.363281 C 16.296875 18.679688 17.257812 18.167969 18.207031 17.976562 C 18.921875 17.84375 20.027344 17.835938 21.359375 18.335938 C 23.011719 18.953125 23.402344 19.835938 24.5625 20.230469 C 25.328125 20.109375 24.9375 19.261719 24.78125 18.671875 C 24.675781 18.347656 24.589844 18.105469 24.554688 18 C 24.496094 17.820312 23.671875 15.703125 23.550781 15.15625 C 23.46875 14.785156 23.539062 14.300781 23.683594 13.921875 "/>
</g>
</g>
<g clip-path="url(#clip3)" clip-rule="nonzero">
<g clip-path="url(#clip4)" clip-rule="nonzero">
<path style=" stroke:none;fill-rule:nonzero;fill:rgb(96.078431%,100%,44.313725%);fill-opacity:1;" d="M 19.6875 10.59375 C 18.53125 11.078125 18.492188 12 18.429688 12.996094 C 18.914062 12.558594 20.433594 12.238281 20.84375 11.882812 C 22.058594 10.828125 22.527344 8.65625 22.273438 8.976562 C 21.449219 10.019531 20.113281 10.355469 19.6875 10.59375 "/>
</g>
</g>
<g clip-path="url(#clip5)" clip-rule="nonzero">
<g clip-path="url(#clip6)" clip-rule="nonzero">
<path style=" stroke:none;fill-rule:nonzero;fill:rgb(96.078431%,100%,44.313725%);fill-opacity:1;" d="M 13.328125 25.195312 C 13.328125 25.195312 12.183594 24.433594 12.203125 24.191406 C 12.957031 20.109375 10.363281 23.011719 10.164062 24.839844 C 9.957031 26.59375 10.605469 28.617188 10.699219 28.738281 C 10.855469 27.308594 10.992188 26.511719 13.328125 25.191406 M 13.328125 25.195312 "/>
</g>
</g>
<g clip-path="url(#clip7)" clip-rule="nonzero">
<g clip-path="url(#clip8)" clip-rule="nonzero">
<path style=" stroke:none;fill-rule:nonzero;fill:rgb(96.078431%,100%,44.313725%);fill-opacity:1;" d="M 25.863281 16.203125 C 25.804688 14.683594 24.851562 13.636719 24.203125 13.882812 C 23.925781 13.984375 23.746094 14.695312 23.839844 15.132812 C 24.160156 16.691406 25.46875 18.496094 25.144531 20.039062 C 24.902344 20.777344 22.75 21.238281 22.75 21.238281 C 22.75 21.238281 22.707031 21.871094 22.625 22.300781 C 22.527344 22.824219 22.328125 23.238281 22.328125 23.238281 C 22.328125 23.238281 22.839844 23.695312 22.859375 23.695312 C 22.882812 23.695312 26.082031 22.035156 25.863281 16.203125 "/>
</g>
</g>
<g clip-path="url(#clip9)" clip-rule="nonzero">
<g clip-path="url(#clip10)" clip-rule="nonzero">
<path style=" stroke:none;fill-rule:nonzero;fill:rgb(96.078431%,100%,44.313725%);fill-opacity:1;" d="M 24.441406 20.386719 C 23.910156 20.167969 23.726562 20.078125 23.03125 19.5625 C 19.199219 16.699219 15.667969 19.179688 15.738281 19.15625 C 16.375 18.953125 17.09375 18.773438 18.023438 18.832031 C 18.773438 18.878906 19.777344 19.355469 21.011719 20.382812 C 21.84375 21.113281 23.101562 21.203125 24.4375 20.386719 M 24.441406 20.386719 "/>
</g>
</g>
<g clip-path="url(#clip11)" clip-rule="nonzero">
<g clip-path="url(#clip12)" clip-rule="nonzero">
<path style=" stroke:none;fill-rule:nonzero;fill:rgb(96.078431%,100%,44.313725%);fill-opacity:1;" d="M 20.84375 12.199219 C 19.425781 12.65625 18.660156 13.046875 18.429688 13.230469 C 17.960938 14.429688 18.90625 15.328125 19.773438 15.960938 C 20.90625 15.691406 21.851562 14.851562 22.273438 13.925781 C 22.054688 13.957031 21.820312 13.914062 21.558594 13.769531 C 21.050781 13.484375 20.746094 12.796875 20.84375 12.199219 "/>
</g>
</g>
<g clip-path="url(#clip13)" clip-rule="nonzero">
<g clip-path="url(#clip14)" clip-rule="nonzero">
<path style=" stroke:none;fill-rule:nonzero;fill:rgb(96.078431%,100%,44.313725%);fill-opacity:1;" d="M 22.90625 11.976562 C 22.8125 11.609375 22.515625 11.144531 22.4375 11.144531 C 22.363281 11.144531 21.574219 11.730469 21.371094 11.933594 C 20.910156 12.394531 21.132812 13.238281 21.644531 13.523438 C 22.511719 14.007812 23.152344 12.941406 22.90625 11.976562 "/>
</g>
</g>
<g clip-path="url(#clip15)" clip-rule="nonzero">
<g clip-path="url(#clip16)" clip-rule="nonzero">
<path style=" stroke:none;fill-rule:nonzero;fill:rgb(96.078431%,100%,44.313725%);fill-opacity:1;" d="M 22.234375 10.742188 C 22.578125 10.410156 23.039062 9.867188 23.160156 9.035156 C 23.230469 8.289062 23.050781 7.832031 22.824219 7.261719 C 22.714844 8.375 22.554688 9.613281 21.796875 10.929688 C 21.558594 11.339844 21.6875 11.265625 22.230469 10.742188 "/>
</g>
</g>
<g clip-path="url(#clip17)" clip-rule="nonzero">
<g clip-path="url(#clip18)" clip-rule="nonzero">
<path style=" stroke:none;fill-rule:nonzero;fill:rgb(96.078431%,100%,44.313725%);fill-opacity:1;" d="M 12.507812 22.273438 C 12.625 22.574219 12.617188 23.148438 12.4375 24.128906 C 12.4375 24.140625 12.4375 24.144531 12.4375 24.152344 C 12.566406 24.328125 12.824219 24.542969 13.085938 24.734375 C 13.980469 24.316406 15.101562 23.539062 15.03125 23.527344 C 14.554688 23.445312 13.074219 23.085938 12.507812 22.273438 "/>
</g>
</g>
<g clip-path="url(#clip19)" clip-rule="nonzero">
<g clip-path="url(#clip20)" clip-rule="nonzero">
<path style=" stroke:none;fill-rule:nonzero;fill:rgb(96.078431%,100%,44.313725%);fill-opacity:1;" d="M 20.6875 20.523438 C 20.648438 20.523438 20.617188 20.523438 20.527344 20.546875 C 19.417969 20.859375 16.574219 21.585938 16.128906 22.070312 C 15.953125 22.4375 15.785156 23.910156 13.285156 24.847656 C 13.214844 24.871094 15.382812 26.273438 15.5 26.277344 C 22.578125 26.574219 22.566406 21.496094 22.476562 21.265625 C 21.789062 21.277344 21.203125 21.035156 20.753906 20.59375 C 20.730469 20.570312 20.710938 20.550781 20.6875 20.527344 "/>
</g>
</g>
</g>
</svg>
