<?xml version="1.0" encoding="UTF-8"?>
<svg xmlns="http://www.w3.org/2000/svg" xmlns:xlink="http://www.w3.org/1999/xlink" width="36pt" height="36pt" viewBox="0 0 36 36" version="1.1">
<g id="surface1">
<path style=" stroke:none;fill-rule:evenodd;fill:rgb(30.980392%,23.137255%,12.941176%);fill-opacity:1;" d="M 8.40625 2.136719 L 27.59375 2.136719 C 31.054688 2.136719 33.863281 4.945312 33.863281 8.40625 L 33.863281 27.59375 C 33.863281 31.054688 31.054688 33.863281 27.59375 33.863281 L 8.40625 33.863281 C 4.945312 33.863281 2.136719 31.054688 2.136719 27.59375 L 2.136719 8.40625 C 2.136719 4.945312 4.945312 2.136719 8.40625 2.136719 Z M 8.40625 2.136719 "/>
<path style=" stroke:none;fill-rule:nonzero;fill:rgb(47.843137%,38.039216%,26.27451%);fill-opacity:1;" d="M 21.554688 7.308594 C 17.800781 7.367188 9.6875 7.941406 8.203125 10.316406 C 7.945312 11 7.480469 13.402344 7.257812 15.242188 C 7.203125 15.664062 7.152344 16.207031 7.101562 16.703125 C 6.175781 17.652344 5.65625 18.925781 5.65625 20.253906 C 5.65625 21.289062 5.976562 22.304688 6.566406 23.152344 C 6.558594 23.296875 6.515625 23.910156 6.515625 23.910156 C 6.445312 26.261719 6.5 26.347656 8.734375 27.277344 C 10.519531 28.019531 12.453125 28.40625 15.386719 28.609375 C 17.898438 28.78125 20.4375 28.703125 22.375 28.390625 C 25.78125 27.84375 28.734375 26.730469 29.0625 25.867188 C 29.152344 25.632812 29.289062 24.664062 29.363281 23.71875 C 29.378906 23.527344 29.386719 23.367188 29.402344 23.1875 C 30.011719 22.332031 30.339844 21.304688 30.34375 20.253906 C 30.34375 18.996094 29.875 17.789062 29.035156 16.859375 C 28.886719 15.898438 28.707031 14.808594 28.46875 13.386719 C 28.050781 11.179688 27.546875 9.0625 27.355469 8.6875 C 26.796875 7.585938 26.109375 7.375 22.863281 7.308594 C 22.535156 7.300781 22.089844 7.300781 21.554688 7.308594 Z M 21.554688 7.308594 "/>
<path style=" stroke:none;fill-rule:nonzero;fill:rgb(21.568627%,17.254902%,11.764706%);fill-opacity:1;" d="M 20.039062 26.742188 C 20.796875 26.402344 21.121094 25.9375 20.675781 25.824219 C 20.527344 25.785156 20.136719 25.90625 19.808594 26.085938 C 19.074219 26.496094 18.058594 26.523438 17.160156 26.164062 C 16.035156 25.710938 15.496094 25.960938 16.394531 26.515625 C 17.386719 27.132812 18.957031 27.230469 20.039062 26.742188 Z M 20.039062 26.742188 "/>
<path style=" stroke:none;fill-rule:nonzero;fill:rgb(21.568627%,65.098039%,26.27451%);fill-opacity:1;" d="M 15.53125 20.058594 C 15.53125 22.558594 13.503906 24.582031 11.003906 24.582031 C 8.503906 24.582031 6.480469 22.558594 6.480469 20.058594 C 6.480469 17.558594 8.503906 15.53125 11.003906 15.53125 C 13.503906 15.53125 15.53125 17.558594 15.53125 20.058594 Z M 15.53125 20.058594 "/>
<path style=" stroke:none;fill-rule:nonzero;fill:rgb(21.568627%,17.254902%,11.764706%);fill-opacity:1;" d="M 11.417969 19.644531 C 11.417969 20.101562 11.046875 20.46875 10.59375 20.46875 C 10.140625 20.46875 9.769531 20.101562 9.769531 19.644531 C 9.769531 19.191406 10.140625 18.824219 10.59375 18.824219 C 11.046875 18.824219 11.417969 19.191406 11.417969 19.644531 Z M 11.417969 19.644531 "/>
<path style=" stroke:none;fill-rule:nonzero;fill:rgb(21.568627%,65.098039%,26.27451%);fill-opacity:1;" d="M 29.519531 20.058594 C 29.519531 22.558594 27.492188 24.582031 24.996094 24.582031 C 22.496094 24.582031 20.46875 22.558594 20.46875 20.058594 C 20.46875 17.558594 22.496094 15.53125 24.996094 15.53125 C 27.492188 15.53125 29.519531 17.558594 29.519531 20.058594 Z M 29.519531 20.058594 "/>
<path style=" stroke:none;fill-rule:nonzero;fill:rgb(21.568627%,17.254902%,11.764706%);fill-opacity:1;" d="M 26.230469 19.644531 C 26.230469 20.101562 25.859375 20.46875 25.40625 20.46875 C 24.953125 20.46875 24.582031 20.101562 24.582031 19.644531 C 24.582031 19.191406 24.953125 18.824219 25.40625 18.824219 C 25.859375 18.824219 26.230469 19.191406 26.230469 19.644531 Z M 26.230469 19.644531 "/>
<path style=" stroke:none;fill-rule:nonzero;fill:rgb(21.568627%,17.254902%,11.764706%);fill-opacity:1;" d="M 26.183594 9.824219 C 26.21875 9.910156 23.761719 10.910156 21.675781 11.839844 C 19.589844 12.769531 18.664062 13.273438 18.628906 13.1875 C 18.605469 13.136719 19.890625 12.320312 20.761719 11.902344 C 22.441406 11.175781 24.132812 10.398438 26.183594 9.824219 Z M 26.183594 9.824219 "/>
<path style=" stroke:none;fill-rule:nonzero;fill:rgb(21.568627%,17.254902%,11.764706%);fill-opacity:1;" d="M 24.414062 14.140625 C 24.324219 14.164062 23.300781 13.179688 22.320312 11.871094 C 21.34375 10.558594 20.78125 9.417969 20.871094 9.394531 C 20.960938 9.371094 21.585938 10.414062 22.566406 11.726562 C 23.542969 13.035156 24.503906 14.117188 24.414062 14.140625 Z M 24.414062 14.140625 "/>
</g>
</svg>
