<?xml version="1.0" encoding="UTF-8"?>
<svg xmlns="http://www.w3.org/2000/svg" xmlns:xlink="http://www.w3.org/1999/xlink" width="36pt" height="36pt" viewBox="0 0 36 36" version="1.1">
<g id="surface1">
<path style=" stroke:none;fill-rule:evenodd;fill:rgb(50.588235%,38.039216%,18.823529%);fill-opacity:1;" d="M 8.40625 2.136719 L 27.59375 2.136719 C 31.054688 2.136719 33.863281 4.945312 33.863281 8.40625 L 33.863281 27.59375 C 33.863281 31.054688 31.054688 33.863281 27.59375 33.863281 L 8.40625 33.863281 C 4.945312 33.863281 2.136719 31.054688 2.136719 27.59375 L 2.136719 8.40625 C 2.136719 4.945312 4.945312 2.136719 8.40625 2.136719 Z M 8.40625 2.136719 "/>
<path style=" stroke:none;fill-rule:nonzero;fill:rgb(100%,100%,100%);fill-opacity:1;" d="M 13.5 10.875 C 15.363281 10.875 16.875 12.386719 16.875 14.25 C 16.875 16.113281 15.363281 17.625 13.5 17.625 C 11.636719 17.625 10.125 16.113281 10.125 14.25 C 10.125 12.386719 11.636719 10.875 13.5 10.875 Z M 13.5 10.875 "/>
<path style=" stroke:none;fill-rule:nonzero;fill:rgb(100%,100%,100%);fill-opacity:1;" d="M 13.5 19.5 C 20.25 19.496094 20.25 24 20.25 24 L 20.25 25.125 L 6.75 25.125 L 6.75 24 C 6.75 24 6.75 19.503906 13.5 19.5 Z M 13.5 19.5 "/>
<path style=" stroke:none;fill-rule:nonzero;fill:rgb(100%,100%,100%);fill-opacity:1;" d="M 24.75 10.875 C 25.992188 10.875 27 11.882812 27 13.125 C 27 14.367188 25.992188 15.375 24.75 15.375 C 23.507812 15.375 22.5 14.367188 22.5 13.125 C 22.5 11.882812 23.507812 10.875 24.75 10.875 Z M 24.75 10.875 "/>
<path style=" stroke:none;fill-rule:nonzero;fill:rgb(100%,100%,100%);fill-opacity:1;" d="M 24.75 16.5 C 29.25 16.496094 29.25 20.101562 29.25 20.101562 L 29.25 21 L 20.25 21 L 20.25 20.101562 C 20.25 20.101562 20.25 16.503906 24.75 16.5 Z M 24.75 16.5 "/>
</g>
</svg>
