<?xml version="1.0" encoding="UTF-8"?>
<svg xmlns="http://www.w3.org/2000/svg" xmlns:xlink="http://www.w3.org/1999/xlink" width="36pt" height="36pt" viewBox="0 0 36 36" version="1.1">
<g id="surface1">
<path style=" stroke:none;fill-rule:evenodd;fill:rgb(56.862745%,23.137255%,23.137255%);fill-opacity:1;" d="M 8.40625 2.136719 L 27.59375 2.136719 C 31.054688 2.136719 33.863281 4.945312 33.863281 8.40625 L 33.863281 27.59375 C 33.863281 31.054688 31.054688 33.863281 27.59375 33.863281 L 8.40625 33.863281 C 4.945312 33.863281 2.136719 31.054688 2.136719 27.59375 L 2.136719 8.40625 C 2.136719 4.945312 4.945312 2.136719 8.40625 2.136719 Z M 8.40625 2.136719 "/>
<path style=" stroke:none;fill-rule:nonzero;fill:rgb(99.607843%,75.294118%,2.352941%);fill-opacity:1;" d="M 18 5.421875 L 14.316406 9.105469 L 9.105469 9.105469 L 9.105469 14.316406 L 5.421875 18 L 9.105469 21.683594 L 9.105469 26.894531 L 14.316406 26.894531 L 18 30.578125 L 21.683594 26.894531 L 26.894531 26.894531 L 26.894531 21.683594 L 30.578125 18 L 26.894531 14.316406 L 26.894531 9.105469 L 21.683594 9.105469 Z M 18 5.421875 "/>
<path style=" stroke:none;fill-rule:nonzero;fill:rgb(99.607843%,80.392157%,21.960784%);fill-opacity:1;" d="M 13.1875 6.378906 L 11.191406 11.191406 L 6.378906 13.1875 L 8.371094 18 L 6.378906 22.8125 L 11.191406 24.808594 L 13.1875 29.621094 L 18 27.628906 L 22.8125 29.621094 L 24.808594 24.808594 L 29.621094 22.8125 L 27.628906 18 L 29.621094 13.183594 L 24.808594 11.191406 L 22.8125 6.378906 L 18 8.371094 Z M 13.1875 6.378906 "/>
<path style=" stroke:none;fill-rule:nonzero;fill:rgb(99.607843%,85.098039%,41.568627%);fill-opacity:1;" d="M 27.675781 18 C 27.675781 12.65625 23.34375 8.324219 18 8.324219 C 12.65625 8.324219 8.324219 12.65625 8.324219 18 C 8.324219 23.34375 12.65625 27.675781 18 27.675781 C 23.34375 27.675781 27.675781 23.34375 27.675781 18 Z M 27.675781 18 "/>
<path style=" stroke:none;fill-rule:nonzero;fill:rgb(24.705882%,24.705882%,24.705882%);fill-opacity:1;" d="M 15.097656 15.097656 C 15.097656 16.164062 14.230469 17.03125 13.160156 17.03125 C 12.09375 17.03125 11.226562 16.164062 11.226562 15.097656 C 11.226562 14.027344 12.09375 13.160156 13.160156 13.160156 C 14.230469 13.160156 15.097656 14.027344 15.097656 15.097656 Z M 15.097656 15.097656 "/>
<path style=" stroke:none;fill-rule:nonzero;fill:rgb(24.705882%,24.705882%,24.705882%);fill-opacity:1;" d="M 24.773438 15.097656 C 24.773438 16.164062 23.90625 17.03125 22.835938 17.03125 C 21.769531 17.03125 20.902344 16.164062 20.902344 15.097656 C 20.902344 14.027344 21.769531 13.160156 22.835938 13.160156 C 23.90625 13.160156 24.773438 14.027344 24.773438 15.097656 Z M 24.773438 15.097656 "/>
<path style=" stroke:none;fill-rule:nonzero;fill:rgb(56.862745%,23.137255%,23.137255%);fill-opacity:1;" d="M 12.847656 20.902344 C 13.910156 23.113281 15.875 24.769531 18 24.773438 C 20.125 24.769531 22.085938 23.109375 23.148438 20.902344 L 18 20.902344 C 16.066406 20.902344 12.847656 20.902344 12.847656 20.902344 Z M 12.847656 20.902344 "/>
</g>
</svg>
