<?xml version="1.0" encoding="UTF-8"?>
<svg xmlns="http://www.w3.org/2000/svg" xmlns:xlink="http://www.w3.org/1999/xlink" width="36pt" height="36pt" viewBox="0 0 36 36" version="1.1">
<g id="surface1">
<path style=" stroke:none;fill-rule:evenodd;fill:rgb(82.352941%,82.352941%,82.352941%);fill-opacity:1;" d="M 33.136719 5.613281 L 32.421875 5.613281 L 28.164062 9.871094 L 33.839844 9.871094 L 33.863281 9.847656 L 33.863281 8.410156 C 33.863281 7.386719 33.566406 6.464844 33.136719 5.613281 Z M 33.136719 5.613281 "/>
<path style=" stroke:none;fill-rule:evenodd;fill:rgb(32.156863%,25.490196%,38.431373%);fill-opacity:1;" d="M 9.074219 2.136719 L 8.40625 2.136719 C 6.996094 2.136719 5.765625 2.683594 4.722656 3.460938 L 6.875 5.613281 L 6.875 9.871094 L 2.136719 9.871094 L 2.136719 27.59375 C 2.136719 31.066406 4.933594 33.863281 8.40625 33.863281 L 27.589844 33.863281 C 31.066406 33.863281 33.863281 31.066406 33.863281 27.59375 L 33.863281 9.847656 L 33.839844 9.871094 L 28.164062 9.871094 L 32.421875 5.613281 L 29.503906 2.699219 C 28.875 2.476562 28.300781 2.136719 27.589844 2.136719 L 24.683594 2.136719 L 28.164062 5.613281 L 22.488281 5.613281 L 19.007812 2.136719 L 14.746094 2.136719 L 18.226562 5.613281 L 12.550781 5.613281 Z M 9.074219 2.136719 "/>
<path style=" stroke:none;fill-rule:evenodd;fill:rgb(74.509804%,74.509804%,74.509804%);fill-opacity:1;" d="M 9.074219 2.136719 L 12.550781 5.613281 L 18.226562 5.613281 L 14.75 2.136719 Z M 9.074219 2.136719 "/>
<path style=" stroke:none;fill-rule:evenodd;fill:rgb(74.509804%,74.509804%,74.509804%);fill-opacity:1;" d="M 19.007812 2.136719 L 22.488281 5.613281 L 28.164062 5.613281 L 24.683594 2.136719 Z M 19.007812 2.136719 "/>
<path style=" stroke:none;fill-rule:evenodd;fill:rgb(74.509804%,74.509804%,74.509804%);fill-opacity:1;" d="M 29.503906 2.699219 L 32.421875 5.613281 L 33.136719 5.613281 C 32.402344 4.160156 31.050781 3.238281 29.503906 2.699219 Z M 29.503906 2.699219 "/>
<path style=" stroke:none;fill-rule:evenodd;fill:rgb(82.352941%,82.352941%,82.352941%);fill-opacity:1;" d="M 2.136719 9.871094 L 6.875 9.871094 L 6.875 5.613281 L 4.722656 3.460938 C 3.191406 4.601562 2.136719 6.34375 2.136719 8.410156 Z M 2.136719 9.871094 "/>
<path style=" stroke:none;fill-rule:nonzero;fill:rgb(82.352941%,82.352941%,82.352941%);fill-opacity:1;" d="M 13.273438 14.128906 C 13.085938 14.125 12.898438 14.207031 12.765625 14.355469 C 12.628906 14.503906 12.550781 14.707031 12.550781 14.917969 L 12.550781 27.53125 C 12.550781 27.8125 12.6875 28.074219 12.90625 28.214844 C 13.125 28.355469 13.394531 28.359375 13.613281 28.21875 L 23.546875 21.910156 C 23.769531 21.769531 23.90625 21.511719 23.90625 21.226562 C 23.90625 20.941406 23.769531 20.679688 23.546875 20.542969 L 13.613281 14.234375 C 13.511719 14.167969 13.394531 14.132812 13.273438 14.128906 Z M 13.273438 14.128906 "/>
<path style=" stroke:none;fill-rule:evenodd;fill:rgb(82.352941%,82.352941%,82.352941%);fill-opacity:1;" d="M 12.550781 5.613281 L 8.292969 9.871094 L 13.972656 9.871094 L 18.226562 5.613281 Z M 12.550781 5.613281 "/>
<path style=" stroke:none;fill-rule:evenodd;fill:rgb(82.352941%,82.352941%,82.352941%);fill-opacity:1;" d="M 22.484375 5.613281 L 18.226562 9.871094 L 23.90625 9.871094 L 28.164062 5.613281 Z M 22.484375 5.613281 "/>
</g>
</svg>
