<?xml version="1.0" encoding="UTF-8"?>
<svg xmlns="http://www.w3.org/2000/svg" xmlns:xlink="http://www.w3.org/1999/xlink" width="36pt" height="36pt" viewBox="0 0 36 36" version="1.1">
<g id="surface1">
<path style=" stroke:none;fill-rule:evenodd;fill:rgb(90.588235%,29.803922%,23.529412%);fill-opacity:1;" d="M 8.40625 2.136719 L 27.59375 2.136719 C 31.054688 2.136719 33.863281 4.945312 33.863281 8.40625 L 33.863281 27.59375 C 33.863281 31.054688 31.054688 33.863281 27.59375 33.863281 L 8.40625 33.863281 C 4.945312 33.863281 2.136719 31.054688 2.136719 27.59375 L 2.136719 8.40625 C 2.136719 4.945312 4.945312 2.136719 8.40625 2.136719 Z M 8.40625 2.136719 "/>
<path style=" stroke:none;fill-rule:nonzero;fill:rgb(50.196078%,0%,0%);fill-opacity:1;" d="M 14.625 22.324219 C 14.09375 22.296875 13.480469 22.542969 12.992188 23.027344 L 10.878906 25.140625 C 10.101562 25.921875 9.941406 27.019531 10.527344 27.605469 C 11.113281 28.191406 12.210938 28.035156 12.992188 27.253906 L 15.105469 25.140625 C 15.886719 24.359375 16.042969 23.261719 15.457031 22.675781 C 15.238281 22.457031 14.945312 22.339844 14.625 22.324219 Z M 21.320312 22.324219 C 21 22.339844 20.707031 22.457031 20.488281 22.675781 C 19.902344 23.261719 20.058594 24.359375 20.839844 25.140625 L 22.953125 27.253906 C 23.734375 28.035156 24.832031 28.191406 25.417969 27.605469 C 26.003906 27.019531 25.84375 25.921875 25.066406 25.140625 L 22.953125 23.027344 C 22.464844 22.542969 21.851562 22.296875 21.320312 22.324219 Z M 21.320312 22.324219 "/>
<path style=" stroke:none;fill-rule:nonzero;fill:rgb(50.196078%,0%,0%);fill-opacity:1;" d="M 10.175781 8.039062 C 8.210938 8.039062 6.617188 9.632812 6.617188 11.597656 C 6.617188 12.941406 7.378906 14.171875 8.582031 14.773438 C 8.234375 15.785156 8.039062 16.867188 8.039062 18 C 8.039062 23.519531 12.480469 27.960938 18 27.960938 C 23.519531 27.960938 27.960938 23.519531 27.960938 18 C 27.960938 16.867188 27.765625 15.785156 27.417969 14.773438 C 28.621094 14.171875 29.382812 12.941406 29.382812 11.597656 C 29.382812 9.632812 27.789062 8.039062 25.824219 8.039062 C 24.734375 8.039062 23.699219 8.542969 23.027344 9.40625 C 21.550781 8.542969 19.839844 8.039062 18 8.039062 C 16.160156 8.039062 14.445312 8.542969 12.96875 9.40625 C 12.296875 8.546875 11.265625 8.042969 10.175781 8.039062 Z M 10.175781 8.039062 "/>
<path style=" stroke:none;fill-rule:nonzero;fill:rgb(100%,100%,100%);fill-opacity:0.921569;" d="M 26.535156 18 C 26.535156 13.285156 22.714844 9.464844 18 9.464844 C 13.285156 9.464844 9.464844 13.285156 9.464844 18 C 9.464844 22.714844 13.285156 26.535156 18 26.535156 C 22.714844 26.535156 26.535156 22.714844 26.535156 18 Z M 26.535156 18 "/>
<path style=" stroke:none;fill-rule:nonzero;fill:rgb(61.176471%,23.529412%,23.529412%);fill-opacity:1;" d="M 17.027344 18.402344 L 18.574219 21.050781 C 18.859375 21.535156 19.484375 21.699219 19.976562 21.421875 C 20.46875 21.140625 20.636719 20.523438 20.351562 20.039062 L 18.8125 17.410156 L 22.367188 15.386719 C 22.613281 15.246094 22.695312 14.9375 22.554688 14.695312 C 22.414062 14.453125 22.101562 14.371094 21.855469 14.511719 L 17.59375 16.9375 C 17.011719 17.222656 16.789062 17.972656 17.027344 18.402344 Z M 17.027344 18.402344 "/>
<path style=" stroke:none;fill-rule:nonzero;fill:rgb(61.176471%,23.529412%,23.529412%);fill-opacity:1;" d="M 18 10.175781 C 17.605469 10.175781 17.289062 10.492188 17.289062 10.886719 C 17.289062 11.277344 17.605469 11.597656 18 11.597656 C 18.394531 11.597656 18.710938 11.277344 18.710938 10.886719 C 18.710938 10.492188 18.394531 10.175781 18 10.175781 Z M 18 10.175781 "/>
<path style=" stroke:none;fill-rule:nonzero;fill:rgb(61.176471%,23.529412%,23.529412%);fill-opacity:1;" d="M 18 24.402344 C 17.605469 24.402344 17.289062 24.722656 17.289062 25.113281 C 17.289062 25.507812 17.605469 25.824219 18 25.824219 C 18.394531 25.824219 18.710938 25.507812 18.710938 25.113281 C 18.710938 24.722656 18.394531 24.402344 18 24.402344 Z M 18 24.402344 "/>
<path style=" stroke:none;fill-rule:nonzero;fill:rgb(61.176471%,23.529412%,23.529412%);fill-opacity:1;" d="M 25.824219 18 C 25.824219 17.605469 25.507812 17.289062 25.113281 17.289062 C 24.722656 17.289062 24.402344 17.605469 24.402344 18 C 24.402344 18.394531 24.722656 18.710938 25.113281 18.710938 C 25.507812 18.710938 25.824219 18.394531 25.824219 18 Z M 25.824219 18 "/>
<path style=" stroke:none;fill-rule:nonzero;fill:rgb(61.176471%,23.529412%,23.529412%);fill-opacity:1;" d="M 11.597656 18 C 11.597656 17.605469 11.277344 17.289062 10.886719 17.289062 C 10.492188 17.289062 10.175781 17.605469 10.175781 18 C 10.175781 18.394531 10.492188 18.710938 10.886719 18.710938 C 11.277344 18.710938 11.597656 18.394531 11.597656 18 Z M 11.597656 18 "/>
</g>
</svg>
