<?xml version="1.0" encoding="UTF-8"?>
<svg xmlns="http://www.w3.org/2000/svg" xmlns:xlink="http://www.w3.org/1999/xlink" width="36pt" height="36pt" viewBox="0 0 36 36" version="1.1">
<defs>
<clipPath id="clip1">
  <rect width="36" height="36"/>
</clipPath>
<g id="surface6" clip-path="url(#clip1)">
<path style=" stroke:none;fill-rule:nonzero;fill:rgb(100%,71.372549%,40.784314%);fill-opacity:1;" d="M 9 9 C 7.136719 9 5.625 10.511719 5.625 12.375 C 5.625 14.238281 7.136719 15.75 9 15.75 C 9.796875 15.75 10.53125 15.476562 11.109375 15.011719 L 13.714844 16.628906 C 13.574219 17.074219 13.5 17.535156 13.5 18 C 13.503906 18.464844 13.578125 18.925781 13.71875 19.367188 L 11.109375 20.988281 C 10.53125 20.527344 9.796875 20.25 9 20.25 C 7.136719 20.25 5.625 21.761719 5.625 23.625 C 5.625 25.488281 7.136719 27 9 27 C 10.863281 27 12.375 25.488281 12.375 23.625 C 12.375 23.363281 12.324219 23.128906 12.269531 22.886719 L 14.898438 21.253906 C 15.734375 22.050781 16.84375 22.496094 18 22.5 C 19.15625 22.5 20.269531 22.054688 21.105469 21.253906 L 23.730469 22.886719 C 23.675781 23.128906 23.625 23.363281 23.625 23.625 C 23.625 25.488281 25.136719 27 27 27 C 28.863281 27 30.375 25.488281 30.375 23.625 C 30.375 21.761719 28.863281 20.25 27 20.25 C 26.203125 20.25 25.46875 20.527344 24.890625 20.988281 L 22.285156 19.371094 C 22.425781 18.925781 22.5 18.464844 22.5 18 C 22.5 17.535156 22.425781 17.074219 22.28125 16.632812 L 24.890625 15.011719 C 25.46875 15.472656 26.203125 15.75 27 15.75 C 28.863281 15.75 30.375 14.238281 30.375 12.375 C 30.375 10.511719 28.863281 9 27 9 C 25.136719 9 23.625 10.511719 23.625 12.375 C 23.625 12.636719 23.675781 12.871094 23.730469 13.113281 L 21.101562 14.75 C 20.265625 13.949219 19.15625 13.503906 18 13.5 C 16.84375 13.5 15.730469 13.945312 14.894531 14.746094 L 12.269531 13.113281 C 12.324219 12.871094 12.375 12.636719 12.375 12.375 C 12.375 10.511719 10.863281 9 9 9 Z M 9 9 "/>
</g>
</defs>
<g id="surface1">
<path style=" stroke:none;fill-rule:evenodd;fill:rgb(87.058824%,33.333333%,29.803922%);fill-opacity:1;" d="M 8.40625 2.136719 L 27.59375 2.136719 C 31.054688 2.136719 33.863281 4.945312 33.863281 8.40625 L 33.863281 27.59375 C 33.863281 31.054688 31.054688 33.863281 27.59375 33.863281 L 8.40625 33.863281 C 4.945312 33.863281 2.136719 31.054688 2.136719 27.59375 L 2.136719 8.40625 C 2.136719 4.945312 4.945312 2.136719 8.40625 2.136719 Z M 8.40625 2.136719 "/>
<use xlink:href="#surface6"/>
</g>
</svg>
