<?xml version="1.0" encoding="UTF-8"?>
<svg xmlns="http://www.w3.org/2000/svg" xmlns:xlink="http://www.w3.org/1999/xlink" width="36pt" height="36pt" viewBox="0 0 36 36" version="1.1">
<g id="surface1">
<path style=" stroke:none;fill-rule:evenodd;fill:rgb(52.156863%,52.156863%,52.156863%);fill-opacity:1;" d="M 8.40625 2.136719 L 27.59375 2.136719 C 31.054688 2.136719 33.863281 4.945312 33.863281 8.40625 L 33.863281 27.59375 C 33.863281 31.054688 31.054688 33.863281 27.59375 33.863281 L 8.40625 33.863281 C 4.945312 33.863281 2.136719 31.054688 2.136719 27.59375 L 2.136719 8.40625 C 2.136719 4.945312 4.945312 2.136719 8.40625 2.136719 Z M 8.40625 2.136719 "/>
<path style=" stroke:none;fill-rule:evenodd;fill:rgb(40%,40%,40%);fill-opacity:1;" d="M 33.863281 15.03125 C 33.753906 14.996094 33.671875 14.902344 33.546875 14.902344 L 15.722656 14.902344 C 15.722656 14.375 15.296875 13.949219 14.769531 13.949219 L 12.871094 13.949219 C 12.34375 13.949219 11.917969 14.375 11.917969 14.902344 L 11.207031 14.902344 C 10.875 14.902344 10.578125 15.035156 10.363281 15.25 C 10.148438 15.464844 10.015625 15.761719 10.015625 16.089844 L 10.015625 32.726562 C 10.015625 33.058594 10.148438 33.355469 10.363281 33.570312 C 10.546875 33.753906 10.808594 33.832031 11.078125 33.863281 L 27.59375 33.863281 C 31.066406 33.863281 33.863281 31.066406 33.863281 27.589844 Z M 33.863281 15.03125 "/>
<path style=" stroke:none;fill-rule:evenodd;fill:rgb(52.156863%,52.156863%,52.156863%);fill-opacity:1;" d="M 8.410156 2.136719 C 4.933594 2.136719 2.136719 4.933594 2.136719 8.40625 L 2.136719 27.589844 C 2.136719 31.066406 4.933594 33.863281 8.410156 33.863281 L 11.078125 33.863281 C 10.808594 33.832031 10.546875 33.753906 10.363281 33.570312 C 10.148438 33.355469 10.015625 33.058594 10.015625 32.726562 L 10.015625 16.089844 C 10.015625 15.761719 10.148438 15.464844 10.363281 15.25 C 10.578125 15.035156 10.875 14.902344 11.207031 14.902344 L 11.917969 14.902344 C 11.917969 14.375 12.34375 13.949219 12.871094 13.949219 L 14.769531 13.949219 C 15.296875 13.949219 15.722656 14.375 15.722656 14.902344 L 33.546875 14.902344 C 33.671875 14.902344 33.753906 14.996094 33.863281 15.03125 L 33.863281 8.40625 C 33.863281 4.933594 31.066406 2.136719 27.59375 2.136719 Z M 8.410156 2.136719 "/>
<path style=" stroke:none;fill-rule:nonzero;fill:rgb(20%,20%,20%);fill-opacity:1;" d="M 32.835938 17.753906 C 32.835938 18.277344 32.410156 18.703125 31.882812 18.703125 C 31.359375 18.703125 30.933594 18.277344 30.933594 17.753906 C 30.933594 17.226562 31.359375 16.800781 31.882812 16.800781 C 32.410156 16.800781 32.835938 17.226562 32.835938 17.753906 Z M 32.835938 17.753906 "/>
<path style=" stroke:none;fill-rule:nonzero;fill:rgb(30.196078%,30.196078%,30.196078%);fill-opacity:1;" d="M 29.984375 24.410156 C 29.984375 28.609375 26.578125 32.015625 22.375 32.015625 C 18.175781 32.015625 14.769531 28.609375 14.769531 24.410156 C 14.769531 20.207031 18.175781 16.800781 22.375 16.800781 C 26.578125 16.800781 29.984375 20.207031 29.984375 24.410156 Z M 29.984375 24.410156 "/>
<path style=" stroke:none;fill-rule:nonzero;fill:rgb(0%,58.431373%,52.941176%);fill-opacity:1;" d="M 28.082031 24.410156 C 28.082031 21.257812 25.527344 18.703125 22.375 18.703125 C 19.226562 18.703125 16.671875 21.257812 16.671875 24.410156 C 16.671875 27.558594 19.226562 30.113281 22.375 30.113281 C 25.527344 30.113281 28.082031 27.558594 28.082031 24.410156 Z M 28.082031 24.410156 "/>
<path style=" stroke:none;fill-rule:nonzero;fill:rgb(40%,74.901961%,71.764706%);fill-opacity:1;" d="M 26.179688 24.410156 C 26.179688 26.507812 24.476562 28.210938 22.375 28.210938 C 20.277344 28.210938 18.574219 26.507812 18.574219 24.410156 C 18.574219 22.308594 20.277344 20.605469 22.375 20.605469 C 24.476562 20.605469 26.179688 22.308594 26.179688 24.410156 Z M 26.179688 24.410156 "/>
</g>
</svg>
