<?xml version="1.0" encoding="UTF-8"?>
<svg xmlns="http://www.w3.org/2000/svg" xmlns:xlink="http://www.w3.org/1999/xlink" width="36pt" height="36pt" viewBox="0 0 36 36" version="1.1">
<g id="surface1">
<path style=" stroke:none;fill-rule:evenodd;fill:rgb(40%,40%,40%);fill-opacity:1;" d="M 8.40625 2.136719 L 27.59375 2.136719 C 31.054688 2.136719 33.863281 4.945312 33.863281 8.40625 L 33.863281 27.59375 C 33.863281 31.054688 31.054688 33.863281 27.59375 33.863281 L 8.40625 33.863281 C 4.945312 33.863281 2.136719 31.054688 2.136719 27.59375 L 2.136719 8.40625 C 2.136719 4.945312 4.945312 2.136719 8.40625 2.136719 Z M 8.40625 2.136719 "/>
<path style="fill:none;stroke-width:1.129536;stroke-linecap:round;stroke-linejoin:round;stroke:rgb(100%,50.196078%,100%);stroke-opacity:1;stroke-miterlimit:4;" d="M 4.998788 9.001025 C 4.998788 9.001025 12.831023 9.601091 14.99989 12.001355 C 16.66674 13.840773 13.39187 17.1078 14.99989 18.998204 C 17.13738 21.520051 25.000992 22.998645 25.000992 22.998645 " transform="matrix(0.995984,0,0,0.995984,2.064256,0.57028)"/>
<path style=" stroke:none;fill-rule:nonzero;fill:rgb(100%,100%,100%);fill-opacity:1;" d="M 8.039062 9.535156 C 8.039062 10.085938 7.59375 10.53125 7.042969 10.53125 C 6.492188 10.53125 6.046875 10.085938 6.046875 9.535156 C 6.046875 8.984375 6.492188 8.539062 7.042969 8.539062 C 7.59375 8.539062 8.039062 8.984375 8.039062 9.535156 Z M 8.039062 9.535156 "/>
<path style=" stroke:none;fill-rule:nonzero;fill:rgb(100%,100%,100%);fill-opacity:1;" d="M 29.953125 23.476562 C 29.953125 25.679688 28.167969 27.460938 25.96875 27.460938 C 23.769531 27.460938 21.984375 25.679688 21.984375 23.476562 C 21.984375 21.277344 23.769531 19.492188 25.96875 19.492188 C 28.167969 19.492188 29.953125 21.277344 29.953125 23.476562 Z M 29.953125 23.476562 "/>
<path style=" stroke:none;fill-rule:nonzero;fill:rgb(100%,100%,100%);fill-opacity:1;" d="M 19.992188 19.492188 C 19.992188 21.144531 18.652344 22.480469 17.003906 22.480469 C 15.355469 22.480469 14.015625 21.144531 14.015625 19.492188 C 14.015625 17.84375 15.355469 16.507812 17.003906 16.507812 C 18.652344 16.507812 19.992188 17.84375 19.992188 19.492188 Z M 19.992188 19.492188 "/>
<path style=" stroke:none;fill-rule:nonzero;fill:rgb(100%,100%,100%);fill-opacity:1;" d="M 18.996094 12.523438 C 18.996094 13.621094 18.105469 14.515625 17.003906 14.515625 C 15.902344 14.515625 15.011719 13.621094 15.011719 12.523438 C 15.011719 11.421875 15.902344 10.53125 17.003906 10.53125 C 18.105469 10.53125 18.996094 11.421875 18.996094 12.523438 Z M 18.996094 12.523438 "/>
</g>
</svg>
