<?xml version="1.0" encoding="UTF-8"?>
<svg xmlns="http://www.w3.org/2000/svg" xmlns:xlink="http://www.w3.org/1999/xlink" width="36pt" height="36pt" viewBox="0 0 36 36" version="1.1">
<g id="surface1">
<path style=" stroke:none;fill-rule:evenodd;fill:rgb(52.156863%,52.156863%,52.156863%);fill-opacity:1;" d="M 8.40625 2.136719 L 27.59375 2.136719 C 31.054688 2.136719 33.863281 4.945312 33.863281 8.40625 L 33.863281 27.59375 C 33.863281 31.054688 31.054688 33.863281 27.59375 33.863281 L 8.40625 33.863281 C 4.945312 33.863281 2.136719 31.054688 2.136719 27.59375 L 2.136719 8.40625 C 2.136719 4.945312 4.945312 2.136719 8.40625 2.136719 Z M 8.40625 2.136719 "/>
<path style=" stroke:none;fill-rule:nonzero;fill:rgb(30.980392%,30.980392%,30.980392%);fill-opacity:1;" d="M 15.746094 9.585938 C 18.691406 11.289062 19.699219 15.054688 18 18 C 16.300781 20.945312 12.53125 21.953125 9.585938 20.253906 C 6.640625 18.554688 5.632812 14.785156 7.332031 11.839844 C 9.035156 8.894531 12.800781 7.886719 15.746094 9.585938 Z M 15.746094 9.585938 "/>
<path style=" stroke:none;fill-rule:nonzero;fill:rgb(80%,80%,80%);fill-opacity:1;" d="M 26.414062 15.746094 C 24.710938 18.691406 20.945312 19.699219 18 18 C 15.054688 16.300781 14.046875 12.53125 15.746094 9.585938 C 17.445312 6.640625 21.210938 5.632812 24.15625 7.332031 C 27.105469 9.035156 28.113281 12.800781 26.414062 15.746094 Z M 26.414062 15.746094 "/>
<path style=" stroke:none;fill-rule:nonzero;fill:rgb(30.980392%,30.980392%,30.980392%);fill-opacity:1;" d="M 26.414062 15.746094 C 29.359375 17.445312 30.367188 21.210938 28.667969 24.15625 C 26.964844 27.101562 23.199219 28.113281 20.253906 26.410156 C 17.308594 24.710938 16.300781 20.945312 18 18 C 19.699219 15.054688 23.46875 14.042969 26.414062 15.746094 Z M 26.414062 15.746094 "/>
<path style=" stroke:none;fill-rule:nonzero;fill:rgb(80%,80%,80%);fill-opacity:1;" d="M 20.253906 26.414062 C 18.554688 29.359375 14.785156 30.367188 11.839844 28.667969 C 8.894531 26.964844 7.886719 23.199219 9.585938 20.253906 C 11.289062 17.308594 15.054688 16.300781 18 18 C 20.945312 19.699219 21.953125 23.46875 20.253906 26.414062 Z M 20.253906 26.414062 "/>
</g>
</svg>
