<?xml version="1.0" encoding="UTF-8"?>
<svg xmlns="http://www.w3.org/2000/svg" xmlns:xlink="http://www.w3.org/1999/xlink" width="36pt" height="36pt" viewBox="0 0 36 36" version="1.1">
<defs>
<clipPath id="clip1">
  <rect width="36" height="36"/>
</clipPath>
<g id="surface6" clip-path="url(#clip1)">
<path style=" stroke:none;fill-rule:nonzero;fill:rgb(71.764706%,71.764706%,71.764706%);fill-opacity:1;" d="M 14.664062 26.714844 C 14.664062 26.25 14.730469 25.855469 14.863281 25.53125 C 14.996094 25.207031 15.183594 24.949219 15.421875 24.75 C 15.660156 24.550781 15.941406 24.40625 16.265625 24.316406 C 16.585938 24.226562 16.929688 24.183594 17.300781 24.183594 C 17.648438 24.183594 17.976562 24.226562 18.289062 24.316406 C 18.601562 24.40625 18.878906 24.550781 19.117188 24.75 C 19.355469 24.949219 19.542969 25.207031 19.683594 25.53125 C 19.820312 25.855469 19.890625 26.25 19.890625 26.714844 C 19.890625 27.164062 19.820312 27.546875 19.683594 27.863281 C 19.542969 28.179688 19.355469 28.445312 19.117188 28.652344 C 18.878906 28.863281 18.601562 29.011719 18.289062 29.109375 C 17.976562 29.203125 17.648438 29.25 17.300781 29.25 C 16.929688 29.25 16.585938 29.203125 16.265625 29.109375 C 15.941406 29.015625 15.660156 28.863281 15.421875 28.65625 C 15.183594 28.445312 14.996094 28.179688 14.863281 27.863281 C 14.730469 27.546875 14.664062 27.164062 14.664062 26.714844 M 15.152344 21.621094 L 15.152344 20.519531 C 15.152344 20.011719 15.207031 19.550781 15.3125 19.140625 C 15.414062 18.726562 15.574219 18.335938 15.789062 17.964844 C 16 17.589844 16.277344 17.226562 16.613281 16.875 C 16.953125 16.523438 17.359375 16.15625 17.835938 15.78125 C 18.253906 15.453125 18.605469 15.160156 18.894531 14.902344 C 19.183594 14.644531 19.414062 14.386719 19.59375 14.132812 C 19.773438 13.878906 19.902344 13.613281 19.980469 13.335938 C 20.0625 13.058594 20.101562 12.734375 20.101562 12.367188 C 20.101562 11.800781 19.910156 11.335938 19.527344 10.96875 C 19.144531 10.601562 18.558594 10.417969 17.777344 10.417969 C 17.089844 10.417969 16.351562 10.558594 15.5625 10.847656 C 14.773438 11.136719 13.957031 11.488281 13.113281 11.90625 L 11.59375 8.613281 C 12.019531 8.363281 12.484375 8.128906 12.984375 7.90625 C 13.488281 7.683594 14.011719 7.484375 14.550781 7.308594 C 15.09375 7.136719 15.640625 7 16.195312 6.898438 C 16.753906 6.800781 17.300781 6.75 17.835938 6.75 C 18.847656 6.75 19.761719 6.871094 20.578125 7.117188 C 21.390625 7.359375 22.082031 7.714844 22.648438 8.179688 C 23.214844 8.648438 23.648438 9.214844 23.953125 9.878906 C 24.253906 10.546875 24.40625 11.304688 24.40625 12.160156 C 24.40625 12.785156 24.335938 13.34375 24.199219 13.835938 C 24.058594 14.328125 23.851562 14.785156 23.582031 15.207031 C 23.304688 15.628906 22.964844 16.035156 22.550781 16.429688 C 22.140625 16.820312 21.660156 17.234375 21.113281 17.671875 C 20.695312 18 20.355469 18.285156 20.09375 18.527344 C 19.828125 18.773438 19.625 19.003906 19.476562 19.222656 C 19.324219 19.441406 19.222656 19.667969 19.167969 19.898438 C 19.113281 20.132812 19.085938 20.40625 19.085938 20.726562 L 19.085938 21.621094 Z M 15.152344 21.621094 "/>
</g>
</defs>
<g id="surface1">
<path style=" stroke:none;fill-rule:evenodd;fill:rgb(30.980392%,30.980392%,30.980392%);fill-opacity:1;" d="M 8.40625 2.136719 L 27.59375 2.136719 C 31.054688 2.136719 33.863281 4.945312 33.863281 8.40625 L 33.863281 27.59375 C 33.863281 31.054688 31.054688 33.863281 27.59375 33.863281 L 8.40625 33.863281 C 4.945312 33.863281 2.136719 31.054688 2.136719 27.59375 L 2.136719 8.40625 C 2.136719 4.945312 4.945312 2.136719 8.40625 2.136719 Z M 8.40625 2.136719 "/>
<use xlink:href="#surface6"/>
</g>
</svg>
