<?xml version="1.0" encoding="UTF-8"?>
<svg xmlns="http://www.w3.org/2000/svg" xmlns:xlink="http://www.w3.org/1999/xlink" width="36pt" height="36pt" viewBox="0 0 36 36" version="1.1">
<g id="surface1">
<path style=" stroke:none;fill-rule:evenodd;fill:rgb(46.27451%,54.901961%,35.294118%);fill-opacity:1;" d="M 8.40625 2.136719 L 27.59375 2.136719 C 31.054688 2.136719 33.863281 4.945312 33.863281 8.40625 L 33.863281 27.59375 C 33.863281 31.054688 31.054688 33.863281 27.59375 33.863281 L 8.40625 33.863281 C 4.945312 33.863281 2.136719 31.054688 2.136719 27.59375 L 2.136719 8.40625 C 2.136719 4.945312 4.945312 2.136719 8.40625 2.136719 Z M 8.40625 2.136719 "/>
<path style=" stroke:none;fill-rule:nonzero;fill:rgb(100%,100%,50.196078%);fill-opacity:1;" d="M 11.25 27 L 24.75 27 L 24.75 30.375 L 11.25 30.375 Z M 11.25 27 "/>
<path style=" stroke:none;fill-rule:nonzero;fill:rgb(100%,100%,50.196078%);fill-opacity:1;" d="M 22.5 22.5 C 22.5 23.742188 21.492188 24.75 20.25 24.75 C 19.007812 24.75 18 23.742188 18 22.5 C 18 21.257812 19.007812 20.25 20.25 20.25 C 21.492188 20.25 22.5 21.257812 22.5 22.5 Z M 22.5 22.5 "/>
<path style=" stroke:none;fill-rule:nonzero;fill:rgb(100%,100%,50.196078%);fill-opacity:1;" d="M 15.75 5.625 L 20.25 5.625 L 20.25 10.125 L 15.75 10.125 Z M 15.75 5.625 "/>
<path style=" stroke:none;fill-rule:nonzero;fill:rgb(100%,100%,50.196078%);fill-opacity:1;" d="M 21.375 5.625 L 25.875 5.625 L 25.875 10.125 L 21.375 10.125 Z M 21.375 5.625 "/>
<path style=" stroke:none;fill-rule:nonzero;fill:rgb(100%,100%,50.196078%);fill-opacity:1;" d="M 27 5.625 L 31.5 5.625 L 31.5 10.125 L 27 10.125 Z M 27 5.625 "/>
<path style=" stroke:none;fill-rule:nonzero;fill:rgb(100%,100%,50.196078%);fill-opacity:1;" d="M 4.5 11.25 L 9 11.25 L 9 15.75 L 4.5 15.75 Z M 4.5 11.25 "/>
<path style=" stroke:none;fill-rule:nonzero;fill:rgb(100%,100%,50.196078%);fill-opacity:1;" d="M 15.75 11.25 L 20.25 11.25 L 20.25 15.75 L 15.75 15.75 Z M 15.75 11.25 "/>
<path style=" stroke:none;fill-rule:nonzero;fill:rgb(100%,100%,50.196078%);fill-opacity:1;" d="M 21.375 11.25 L 25.875 11.25 L 25.875 15.75 L 21.375 15.75 Z M 21.375 11.25 "/>
</g>
</svg>
