<?xml version="1.0" encoding="UTF-8"?>
<svg xmlns="http://www.w3.org/2000/svg" xmlns:xlink="http://www.w3.org/1999/xlink" width="36pt" height="36pt" viewBox="0 0 36 36" version="1.1">
<g id="surface1">
<path style=" stroke:none;fill-rule:evenodd;fill:rgb(36.470588%,70.588235%,24.313725%);fill-opacity:1;" d="M 8.40625 2.136719 L 27.59375 2.136719 C 31.054688 2.136719 33.863281 4.945312 33.863281 8.40625 L 33.863281 27.59375 C 33.863281 31.054688 31.054688 33.863281 27.59375 33.863281 L 8.40625 33.863281 C 4.945312 33.863281 2.136719 31.054688 2.136719 27.59375 L 2.136719 8.40625 C 2.136719 4.945312 4.945312 2.136719 8.40625 2.136719 Z M 8.40625 2.136719 "/>
<path style=" stroke:none;fill-rule:nonzero;fill:rgb(100%,100%,100%);fill-opacity:1;" d="M 16.875 7.3125 L 16.875 8.4375 L 18 8.4375 L 18 16.3125 L 19.125 16.3125 L 19.125 7.3125 Z M 16.875 7.3125 "/>
<path style=" stroke:none;fill-rule:nonzero;fill:rgb(100%,100%,100%);fill-opacity:1;" d="M 11.25 17.4375 L 11.25 18.5625 L 24.75 18.5625 L 24.75 17.4375 Z M 11.25 17.4375 "/>
<path style=" stroke:none;fill-rule:nonzero;fill:rgb(100%,100%,100%);fill-opacity:1;" d="M 15.75 19.6875 L 15.75 25.3125 L 19.125 25.3125 L 19.125 28.6875 L 20.25 28.6875 L 20.25 19.6875 L 19.125 19.6875 L 19.125 24.1875 L 16.875 24.1875 L 16.875 19.6875 Z M 15.75 19.6875 "/>
</g>
</svg>
