<?xml version="1.0" encoding="UTF-8"?>
<svg xmlns="http://www.w3.org/2000/svg" xmlns:xlink="http://www.w3.org/1999/xlink" width="36pt" height="36pt" viewBox="0 0 36 36" version="1.1">
<g id="surface1">
<path style=" stroke:none;fill-rule:evenodd;fill:rgb(40%,40%,40%);fill-opacity:1;" d="M 33.863281 17.234375 L 2.136719 17.234375 L 2.136719 27.589844 C 2.136719 31.066406 4.933594 33.863281 8.410156 33.863281 L 27.59375 33.863281 C 31.066406 33.863281 33.863281 31.066406 33.863281 27.589844 Z M 33.863281 17.234375 "/>
<path style=" stroke:none;fill-rule:evenodd;fill:rgb(80%,80%,80%);fill-opacity:1;" d="M 8.410156 2.136719 C 4.933594 2.136719 2.136719 4.933594 2.136719 8.40625 L 2.136719 17.234375 L 33.863281 17.234375 L 33.863281 8.40625 C 33.863281 4.933594 31.066406 2.136719 27.59375 2.136719 Z M 8.410156 2.136719 "/>
<path style=" stroke:none;fill-rule:nonzero;fill:rgb(29.803922%,29.803922%,29.803922%);fill-opacity:1;" d="M 10.125 6.75 L 25.875 6.75 L 25.875 7.875 L 10.125 7.875 Z M 10.125 6.75 "/>
<path style=" stroke:none;fill-rule:nonzero;fill:rgb(29.803922%,29.803922%,29.803922%);fill-opacity:1;" d="M 10.125 10.125 L 25.875 10.125 L 25.875 11.25 L 10.125 11.25 Z M 10.125 10.125 "/>
<path style=" stroke:none;fill-rule:nonzero;fill:rgb(29.803922%,29.803922%,29.803922%);fill-opacity:1;" d="M 10.125 13.5 L 25.875 13.5 L 25.875 14.625 L 10.125 14.625 Z M 10.125 13.5 "/>
<path style=" stroke:none;fill-rule:nonzero;fill:rgb(80%,80%,80%);fill-opacity:1;" d="M 10.125 21.375 L 25.875 21.375 L 25.875 22.5 L 10.125 22.5 Z M 10.125 21.375 "/>
<path style=" stroke:none;fill-rule:nonzero;fill:rgb(80%,80%,80%);fill-opacity:1;" d="M 10.125 24.75 L 25.875 24.75 L 25.875 25.875 L 10.125 25.875 Z M 10.125 24.75 "/>
<path style=" stroke:none;fill-rule:nonzero;fill:rgb(80%,80%,80%);fill-opacity:1;" d="M 10.125 28.125 L 25.875 28.125 L 25.875 29.25 L 10.125 29.25 Z M 10.125 28.125 "/>
</g>
</svg>
