<?xml version="1.0" encoding="UTF-8"?>
<svg xmlns="http://www.w3.org/2000/svg" xmlns:xlink="http://www.w3.org/1999/xlink" width="36pt" height="36pt" viewBox="0 0 36 36" version="1.1">
<g id="surface1">
<path style=" stroke:none;fill-rule:evenodd;fill:rgb(30.588235%,65.490196%,11.764706%);fill-opacity:1;" d="M 8.40625 2.136719 L 27.59375 2.136719 C 31.054688 2.136719 33.863281 4.945312 33.863281 8.40625 L 33.863281 27.59375 C 33.863281 31.054688 31.054688 33.863281 27.59375 33.863281 L 8.40625 33.863281 C 4.945312 33.863281 2.136719 31.054688 2.136719 27.59375 L 2.136719 8.40625 C 2.136719 4.945312 4.945312 2.136719 8.40625 2.136719 Z M 8.40625 2.136719 "/>
<path style=" stroke:none;fill-rule:nonzero;fill:rgb(100%,100%,100%);fill-opacity:1;" d="M 18 8.589844 C 15.164062 8.589844 12.867188 10.890625 12.867188 13.722656 C 12.867188 16.558594 15.164062 18.855469 18 18.855469 C 20.835938 18.855469 23.132812 16.558594 23.132812 13.722656 C 23.132812 10.890625 20.835938 8.589844 18 8.589844 Z M 18 9.445312 C 19.417969 9.445312 20.566406 10.59375 20.566406 12.011719 C 20.566406 13.429688 19.417969 14.578125 18 14.578125 C 16.582031 14.578125 15.433594 13.429688 15.433594 12.011719 C 15.433594 10.59375 16.582031 9.445312 18 9.445312 Z M 18 9.445312 "/>
<path style=" stroke:none;fill-rule:nonzero;fill:rgb(100%,100%,100%);fill-opacity:1;" d="M 15.433594 17.144531 L 15.433594 25.640625 L 18 27.410156 L 20.566406 25.640625 L 20.566406 24.898438 L 21.421875 24.042969 L 20.566406 23.1875 L 20.566406 22.277344 L 22.277344 20.992188 L 20.566406 19.710938 L 20.566406 17.144531 Z M 16.289062 19.710938 L 17.144531 19.710938 L 17.144531 24.84375 L 16.289062 24.84375 Z M 16.289062 19.710938 "/>
</g>
</svg>
