<?xml version="1.0" encoding="UTF-8"?>
<svg xmlns="http://www.w3.org/2000/svg" xmlns:xlink="http://www.w3.org/1999/xlink" width="36pt" height="36pt" viewBox="0 0 36 36" version="1.1">
<g id="surface1">
<path style=" stroke:none;fill-rule:evenodd;fill:rgb(95.686275%,70.588235%,0%);fill-opacity:1;" d="M 8.40625 2.136719 L 27.59375 2.136719 C 31.054688 2.136719 33.863281 4.945312 33.863281 8.40625 L 33.863281 27.59375 C 33.863281 31.054688 31.054688 33.863281 27.59375 33.863281 L 8.40625 33.863281 C 4.945312 33.863281 2.136719 31.054688 2.136719 27.59375 L 2.136719 8.40625 C 2.136719 4.945312 4.945312 2.136719 8.40625 2.136719 Z M 8.40625 2.136719 "/>
<path style=" stroke:none;fill-rule:nonzero;fill:rgb(100%,100%,100%);fill-opacity:1;" d="M 18 6.75 C 13.652344 6.75 10.125 10.277344 10.125 14.625 C 10.125 16.832031 11.039062 18.820312 12.5 20.25 L 12.375 20.25 L 12.375 28.125 L 14.625 28.125 L 14.625 29.25 L 21.375 29.25 L 21.375 28.125 L 23.625 28.125 L 23.625 20.25 L 23.496094 20.25 C 24.960938 18.820312 25.875 16.832031 25.875 14.625 C 25.875 10.277344 22.347656 6.75 18 6.75 Z M 18 9 C 21.105469 9 23.625 11.519531 23.625 14.625 C 23.625 16.335938 22.863281 17.867188 21.660156 18.898438 C 20.675781 19.742188 19.398438 20.25 18 20.25 C 16.632812 20.25 15.378906 19.761719 14.402344 18.949219 C 13.164062 17.917969 12.375 16.363281 12.375 14.625 C 12.375 11.519531 14.894531 9 18 9 Z M 14.625 22.5 L 21.375 22.5 L 21.375 23.625 L 14.625 23.625 Z M 14.625 25.875 L 21.375 25.875 L 21.375 27 L 14.625 27 Z M 14.625 25.875 "/>
</g>
</svg>
