<?xml version="1.0" encoding="UTF-8"?>
<svg xmlns="http://www.w3.org/2000/svg" xmlns:xlink="http://www.w3.org/1999/xlink" width="36pt" height="36pt" viewBox="0 0 36 36" version="1.1">
<g id="surface1">
<path style=" stroke:none;fill-rule:evenodd;fill:rgb(34.117647%,54.901961%,100%);fill-opacity:1;" d="M 8.40625 2.136719 L 27.59375 2.136719 C 31.054688 2.136719 33.863281 4.945312 33.863281 8.40625 L 33.863281 27.59375 C 33.863281 31.054688 31.054688 33.863281 27.59375 33.863281 L 8.40625 33.863281 C 4.945312 33.863281 2.136719 31.054688 2.136719 27.59375 L 2.136719 8.40625 C 2.136719 4.945312 4.945312 2.136719 8.40625 2.136719 Z M 8.40625 2.136719 "/>
<path style=" stroke:none;fill-rule:nonzero;fill:rgb(100%,100%,43.921569%);fill-opacity:1;" d="M 20.113281 9 C 16.445312 9 13.148438 11.226562 11.773438 14.625 L 9.988281 14.625 L 8.863281 16.875 L 11.195312 16.875 C 11.144531 17.246094 11.117188 17.625 11.113281 18 L 9.988281 20.25 L 11.410156 20.25 C 12.4375 24.21875 16.011719 26.992188 20.113281 27 C 22.84375 27 25.429688 25.757812 27.136719 23.625 L 23.835938 23.625 C 22.734375 24.359375 21.4375 24.75 20.113281 24.75 C 17.253906 24.746094 14.710938 22.945312 13.757812 20.25 L 21.238281 20.25 L 22.363281 18 L 13.363281 18 C 13.363281 17.621094 13.398438 17.246094 13.464844 16.875 L 22.363281 16.875 L 23.488281 14.625 L 14.273438 14.625 C 15.480469 12.539062 17.703125 11.253906 20.113281 11.25 C 21.4375 11.25 22.730469 11.644531 23.835938 12.375 L 27.128906 12.375 C 25.421875 10.246094 22.84375 9.003906 20.113281 9 Z M 20.113281 9 "/>
</g>
</svg>
