<?xml version="1.0" encoding="UTF-8"?>
<svg xmlns="http://www.w3.org/2000/svg" xmlns:xlink="http://www.w3.org/1999/xlink" width="36pt" height="36pt" viewBox="0 0 36 36" version="1.1">
<g id="surface1">
<path style=" stroke:none;fill-rule:evenodd;fill:rgb(41.176471%,76.078431%,46.27451%);fill-opacity:1;" d="M 8.40625 2.136719 L 27.59375 2.136719 C 31.054688 2.136719 33.863281 4.945312 33.863281 8.40625 L 33.863281 27.59375 C 33.863281 31.054688 31.054688 33.863281 27.59375 33.863281 L 8.40625 33.863281 C 4.945312 33.863281 2.136719 31.054688 2.136719 27.59375 L 2.136719 8.40625 C 2.136719 4.945312 4.945312 2.136719 8.40625 2.136719 Z M 8.40625 2.136719 "/>
<path style=" stroke:none;fill-rule:nonzero;fill:rgb(100%,100%,100%);fill-opacity:1;" d="M 18 9.652344 C 15.082031 9.652344 12.585938 10.613281 11.554688 11.96875 C 11.46875 12.085938 11.390625 12.199219 11.324219 12.320312 C 11.261719 12.433594 11.210938 12.546875 11.167969 12.667969 C 11.15625 12.703125 11.148438 12.738281 11.136719 12.773438 C 11.113281 12.855469 11.089844 12.933594 11.074219 13.015625 C 11.054688 13.132812 11.042969 13.246094 11.042969 13.363281 C 11.042969 13.484375 11.054688 13.601562 11.078125 13.722656 C 11.097656 13.839844 11.128906 13.957031 11.171875 14.070312 C 11.214844 14.1875 11.269531 14.304688 11.332031 14.417969 C 11.394531 14.53125 11.46875 14.644531 11.554688 14.753906 C 12.617188 16.15625 15.167969 17.074219 18 17.074219 C 20.832031 17.074219 23.382812 16.15625 24.445312 14.753906 C 24.445312 14.753906 24.445312 14.75 24.449219 14.75 C 24.519531 14.65625 24.582031 14.5625 24.636719 14.464844 C 24.648438 14.445312 24.660156 14.425781 24.671875 14.40625 C 24.714844 14.328125 24.753906 14.246094 24.785156 14.160156 C 24.800781 14.121094 24.824219 14.085938 24.835938 14.046875 C 24.859375 13.976562 24.878906 13.90625 24.890625 13.839844 C 24.90625 13.785156 24.921875 13.730469 24.929688 13.675781 C 24.949219 13.570312 24.957031 13.46875 24.957031 13.363281 C 24.957031 13.238281 24.945312 13.117188 24.921875 12.992188 C 24.859375 12.628906 24.691406 12.289062 24.449219 11.96875 C 23.414062 10.609375 20.921875 9.648438 18.003906 9.648438 Z M 11.554688 16.609375 C 11.21875 17.050781 11.042969 17.523438 11.042969 18 C 11.042969 20.050781 14.15625 21.710938 18 21.710938 C 21.84375 21.710938 24.957031 20.050781 24.957031 18 C 24.957031 17.523438 24.78125 17.050781 24.445312 16.609375 C 23.382812 18.011719 20.832031 18.929688 18 18.929688 C 15.164062 18.929688 12.617188 18.011719 11.554688 16.609375 Z M 11.554688 21.25 C 11.21875 21.691406 11.042969 22.164062 11.042969 22.640625 C 11.042969 24.691406 14.15625 26.351562 18 26.351562 C 21.84375 26.351562 24.957031 24.691406 24.957031 22.640625 C 24.957031 22.164062 24.78125 21.691406 24.445312 21.25 C 23.382812 22.648438 20.832031 23.566406 18 23.570312 C 15.164062 23.566406 12.617188 22.648438 11.554688 21.25 Z M 11.554688 21.25 "/>
</g>
</svg>
