<?xml version="1.0" encoding="UTF-8"?>
<svg xmlns="http://www.w3.org/2000/svg" xmlns:xlink="http://www.w3.org/1999/xlink" width="36pt" height="36pt" viewBox="0 0 36 36" version="1.1">
<g id="surface1">
<path style=" stroke:none;fill-rule:evenodd;fill:rgb(35.686275%,35.686275%,35.686275%);fill-opacity:1;" d="M 8.40625 2.136719 L 27.59375 2.136719 C 31.054688 2.136719 33.863281 4.945312 33.863281 8.40625 L 33.863281 27.59375 C 33.863281 31.054688 31.054688 33.863281 27.59375 33.863281 L 8.40625 33.863281 C 4.945312 33.863281 2.136719 31.054688 2.136719 27.59375 L 2.136719 8.40625 C 2.136719 4.945312 4.945312 2.136719 8.40625 2.136719 Z M 8.40625 2.136719 "/>
<path style=" stroke:none;fill-rule:nonzero;fill:rgb(80%,80%,80%);fill-opacity:1;" d="M 10.488281 12.695312 C 10.488281 13.429688 9.894531 14.023438 9.160156 14.023438 C 8.429688 14.023438 7.835938 13.429688 7.835938 12.695312 C 7.835938 11.964844 8.429688 11.371094 9.160156 11.371094 C 9.894531 11.371094 10.488281 11.964844 10.488281 12.695312 Z M 10.488281 12.695312 "/>
<path style=" stroke:none;fill-rule:nonzero;fill:rgb(80%,80%,80%);fill-opacity:1;" d="M 14.90625 12.695312 C 14.90625 13.429688 14.3125 14.023438 13.582031 14.023438 C 12.847656 14.023438 12.253906 13.429688 12.253906 12.695312 C 12.253906 11.964844 12.847656 11.371094 13.582031 11.371094 C 14.3125 11.371094 14.90625 11.964844 14.90625 12.695312 Z M 14.90625 12.695312 "/>
<path style=" stroke:none;fill-rule:nonzero;fill:rgb(80%,80%,80%);fill-opacity:1;" d="M 19.324219 12.695312 C 19.324219 13.429688 18.730469 14.023438 18 14.023438 C 17.269531 14.023438 16.675781 13.429688 16.675781 12.695312 C 16.675781 11.964844 17.269531 11.371094 18 11.371094 C 18.730469 11.371094 19.324219 11.964844 19.324219 12.695312 Z M 19.324219 12.695312 "/>
<path style=" stroke:none;fill-rule:nonzero;fill:rgb(80%,80%,80%);fill-opacity:1;" d="M 23.746094 12.695312 C 23.746094 13.429688 23.152344 14.023438 22.417969 14.023438 C 21.6875 14.023438 21.09375 13.429688 21.09375 12.695312 C 21.09375 11.964844 21.6875 11.371094 22.417969 11.371094 C 23.152344 11.371094 23.746094 11.964844 23.746094 12.695312 Z M 23.746094 12.695312 "/>
<path style=" stroke:none;fill-rule:nonzero;fill:rgb(80%,80%,80%);fill-opacity:1;" d="M 28.164062 12.695312 C 28.164062 13.429688 27.570312 14.023438 26.839844 14.023438 C 26.105469 14.023438 25.511719 13.429688 25.511719 12.695312 C 25.511719 11.964844 26.105469 11.371094 26.839844 11.371094 C 27.570312 11.371094 28.164062 11.964844 28.164062 12.695312 Z M 28.164062 12.695312 "/>
<path style=" stroke:none;fill-rule:nonzero;fill:rgb(80%,80%,80%);fill-opacity:1;" d="M 13.136719 18 C 13.136719 18.730469 12.542969 19.324219 11.8125 19.324219 C 11.082031 19.324219 10.488281 18.730469 10.488281 18 C 10.488281 17.269531 11.082031 16.675781 11.8125 16.675781 C 12.542969 16.675781 13.136719 17.269531 13.136719 18 Z M 13.136719 18 "/>
<path style=" stroke:none;fill-rule:nonzero;fill:rgb(80%,80%,80%);fill-opacity:1;" d="M 17.558594 18 C 17.558594 18.730469 16.964844 19.324219 16.230469 19.324219 C 15.5 19.324219 14.90625 18.730469 14.90625 18 C 14.90625 17.269531 15.5 16.675781 16.230469 16.675781 C 16.964844 16.675781 17.558594 17.269531 17.558594 18 Z M 17.558594 18 "/>
<path style=" stroke:none;fill-rule:nonzero;fill:rgb(80%,80%,80%);fill-opacity:1;" d="M 21.976562 18 C 21.976562 18.730469 21.382812 19.324219 20.652344 19.324219 C 19.917969 19.324219 19.324219 18.730469 19.324219 18 C 19.324219 17.269531 19.917969 16.675781 20.652344 16.675781 C 21.382812 16.675781 21.976562 17.269531 21.976562 18 Z M 21.976562 18 "/>
<path style=" stroke:none;fill-rule:nonzero;fill:rgb(80%,80%,80%);fill-opacity:1;" d="M 26.398438 18 C 26.398438 18.730469 25.804688 19.324219 25.070312 19.324219 C 24.339844 19.324219 23.746094 18.730469 23.746094 18 C 23.746094 17.269531 24.339844 16.675781 25.070312 16.675781 C 25.804688 16.675781 26.398438 17.269531 26.398438 18 Z M 26.398438 18 "/>
<path style=" stroke:none;fill-rule:nonzero;fill:rgb(80%,80%,80%);fill-opacity:1;" d="M 10.265625 21.976562 L 26.617188 21.976562 C 26.984375 21.976562 27.28125 22.273438 27.28125 22.640625 L 27.28125 23.964844 C 27.28125 24.332031 26.984375 24.628906 26.617188 24.628906 L 10.265625 24.628906 C 9.898438 24.628906 9.601562 24.332031 9.601562 23.964844 L 9.601562 22.640625 C 9.601562 22.273438 9.898438 21.976562 10.265625 21.976562 Z M 10.265625 21.976562 "/>
<path style=" stroke:none;fill-rule:nonzero;fill:rgb(96.078431%,49.803922%,9.019608%);fill-opacity:1;" d="M 31.800781 24.671875 C 31.800781 28.398438 28.777344 31.421875 25.050781 31.421875 C 21.320312 31.421875 18.300781 28.398438 18.300781 24.671875 C 18.300781 20.945312 21.320312 17.921875 25.050781 17.921875 C 28.777344 17.921875 31.800781 20.945312 31.800781 24.671875 Z M 31.800781 24.671875 "/>
<path style=" stroke:none;fill-rule:nonzero;fill:rgb(100%,100%,100%);fill-opacity:1;" d="M 25.050781 24.039062 C 24.699219 24.039062 24.414062 24.320312 24.417969 24.671875 C 24.417969 25.019531 24.699219 25.304688 25.050781 25.304688 C 25.398438 25.304688 25.683594 25.019531 25.683594 24.671875 C 25.679688 24.324219 25.398438 24.039062 25.050781 24.039062 Z M 25.050781 22.984375 C 25.972656 22.984375 26.734375 23.75 26.738281 24.667969 L 26.738281 24.671875 C 26.734375 25.59375 25.972656 26.359375 25.050781 26.359375 C 24.128906 26.359375 23.363281 25.59375 23.363281 24.671875 C 23.359375 23.75 24.128906 22.984375 25.050781 22.984375 Z M 25.050781 22.140625 C 23.363281 22.140625 21.675781 22.984375 20.832031 24.671875 C 21.675781 26.359375 23.363281 27.203125 25.050781 27.203125 C 26.738281 27.203125 28.425781 26.359375 29.269531 24.671875 C 28.425781 22.984375 26.738281 22.140625 25.050781 22.140625 Z M 25.050781 22.140625 "/>
</g>
</svg>
