<?xml version="1.0" encoding="UTF-8"?>
<svg xmlns="http://www.w3.org/2000/svg" xmlns:xlink="http://www.w3.org/1999/xlink" width="36pt" height="36pt" viewBox="0 0 36 36" version="1.1">
<g id="surface1">
<path style=" stroke:none;fill-rule:evenodd;fill:rgb(20.392157%,70.196078%,32.54902%);fill-opacity:1;" d="M 8.40625 2.136719 L 27.59375 2.136719 C 31.054688 2.136719 33.863281 4.945312 33.863281 8.40625 L 33.863281 27.59375 C 33.863281 31.054688 31.054688 33.863281 27.59375 33.863281 L 8.40625 33.863281 C 4.945312 33.863281 2.136719 31.054688 2.136719 27.59375 L 2.136719 8.40625 C 2.136719 4.945312 4.945312 2.136719 8.40625 2.136719 Z M 8.40625 2.136719 "/>
<path style=" stroke:none;fill-rule:nonzero;fill:rgb(67.058824%,98.431373%,40%);fill-opacity:1;" d="M 28.953125 21.96875 C 28.894531 22.054688 28.734375 22.121094 27.886719 22.410156 C 27.265625 22.625 27.03125 22.683594 26.910156 22.664062 C 26.816406 22.648438 25.15625 21.730469 22.996094 20.496094 L 19.242188 18.351562 L 19.105469 18.429688 C 18.976562 18.503906 18.972656 18.503906 18.992188 18.429688 C 19.152344 17.863281 19.183594 16.738281 19.050781 16.15625 C 18.617188 14.21875 17.257812 12.761719 15.390625 12.230469 C 14.652344 12.019531 13.691406 11.96875 13.078125 12.109375 C 12.980469 12.132812 12.902344 12.132812 12.902344 12.117188 C 12.902344 12.054688 13.40625 11.484375 13.605469 11.320312 C 14.480469 10.601562 15.335938 10.269531 16.429688 10.222656 C 17.140625 10.195312 17.558594 10.257812 18.207031 10.492188 C 19.222656 10.863281 20.164062 11.707031 20.660156 12.703125 C 20.863281 13.105469 21.046875 13.714844 21.082031 14.113281 C 21.148438 14.804688 21.144531 14.792969 21.332031 14.890625 C 21.644531 15.050781 21.679688 15.117188 21.65625 15.566406 L 21.632812 15.960938 L 22.03125 16.195312 L 22.582031 16.101562 C 23.246094 15.988281 23.28125 15.988281 23.414062 16.089844 C 23.503906 16.15625 23.542969 16.285156 23.648438 16.859375 L 23.777344 17.546875 L 24.054688 17.699219 L 24.328125 17.851562 L 24.789062 17.671875 C 25.21875 17.503906 25.253906 17.5 25.378906 17.5625 C 25.460938 17.605469 25.5625 17.734375 25.644531 17.894531 C 25.75 18.101562 25.828125 18.1875 25.984375 18.269531 C 26.175781 18.375 26.207031 18.378906 26.574219 18.332031 C 27.054688 18.273438 27.183594 18.335938 27.363281 18.703125 C 27.476562 18.933594 27.511719 18.96875 28.011719 19.25 L 28.542969 19.554688 L 28.597656 19.785156 C 28.75 20.417969 28.988281 21.621094 28.988281 21.761719 C 28.988281 21.847656 28.972656 21.941406 28.953125 21.96875 Z M 27.285156 20.808594 C 27.066406 20.667969 20.613281 16.984375 20.558594 16.96875 C 20.519531 16.957031 20.15625 17.441406 20.1875 17.460938 C 20.324219 17.5625 27.136719 21.429688 27.175781 21.429688 C 27.277344 21.429688 27.457031 21.1875 27.457031 21.054688 C 27.457031 20.953125 27.417969 20.894531 27.285156 20.808594 Z M 27.285156 20.808594 "/>
<path style=" stroke:none;fill-rule:nonzero;fill:rgb(100%,100%,100%);fill-opacity:1;" d="M 21.570312 28.414062 C 21.375 29.007812 21.1875 29.523438 21.15625 29.5625 C 21.070312 29.667969 20.824219 29.652344 19.953125 29.492188 C 19.117188 29.335938 18.925781 29.269531 18.796875 29.085938 C 18.75 29.015625 17.753906 27.316406 16.585938 25.304688 L 14.460938 21.652344 L 14.242188 21.675781 C 14.121094 21.691406 13.828125 21.683594 13.589844 21.660156 C 11.71875 21.464844 10.226562 20.234375 9.671875 18.429688 C 9.558594 18.0625 9.546875 17.949219 9.546875 17.257812 C 9.542969 16.664062 9.5625 16.421875 9.625 16.167969 C 9.671875 15.988281 9.722656 15.816406 9.742188 15.785156 C 9.769531 15.746094 9.871094 15.761719 10.136719 15.847656 C 10.566406 15.984375 11.203125 16.097656 11.523438 16.097656 C 11.714844 16.097656 11.78125 16.125 11.914062 16.238281 C 12.21875 16.503906 12.425781 16.582031 12.832031 16.585938 C 13.160156 16.585938 13.234375 16.570312 13.453125 16.449219 C 13.753906 16.28125 13.988281 16.019531 14.082031 15.738281 C 14.152344 15.539062 14.183594 15.125 14.128906 15.125 C 14.117188 15.125 13.964844 15.195312 13.792969 15.28125 C 13.109375 15.625 12.527344 15.75 11.675781 15.746094 C 11.136719 15.742188 10.949219 15.71875 10.574219 15.621094 C 8.761719 15.140625 7.433594 13.738281 7.078125 11.925781 C 6.988281 11.460938 6.992188 10.605469 7.085938 10.144531 C 7.390625 8.683594 8.300781 7.5 9.636719 6.847656 C 10.359375 6.496094 10.734375 6.40625 11.582031 6.378906 C 12.167969 6.359375 12.34375 6.371094 12.703125 6.449219 C 13.921875 6.71875 14.96875 7.417969 15.648438 8.417969 C 15.859375 8.726562 16.179688 9.390625 16.222656 9.597656 L 16.25 9.734375 L 15.933594 9.785156 C 15.757812 9.816406 15.574219 9.851562 15.523438 9.863281 C 15.445312 9.886719 15.414062 9.84375 15.320312 9.605469 C 14.886719 8.472656 13.84375 7.585938 12.59375 7.285156 C 12.25 7.203125 12.085938 7.191406 11.582031 7.210938 C 11.070312 7.230469 10.914062 7.253906 10.539062 7.375 C 8.914062 7.90625 7.851562 9.363281 7.851562 11.046875 C 7.851562 11.796875 8.015625 12.402344 8.398438 13.058594 C 8.628906 13.460938 9.363281 14.175781 9.796875 14.414062 C 10.695312 14.917969 11.710938 15.050781 12.699219 14.800781 C 13.125 14.691406 13.753906 14.40625 13.726562 14.332031 C 13.71875 14.300781 13.59375 14.210938 13.457031 14.132812 C 13.238281 14.007812 13.160156 13.988281 12.855469 13.988281 C 12.570312 13.988281 12.464844 14.011719 12.242188 14.121094 C 12.09375 14.195312 11.917969 14.324219 11.847656 14.410156 C 11.734375 14.554688 11.699219 14.570312 11.488281 14.570312 C 11.25 14.566406 10.722656 14.460938 10.589844 14.386719 C 10.527344 14.347656 10.566406 14.289062 10.839844 14.023438 C 11.414062 13.464844 12.121094 13.058594 12.902344 12.84375 C 13.246094 12.753906 13.398438 12.738281 14.0625 12.742188 C 14.96875 12.746094 15.304688 12.820312 16.03125 13.171875 C 16.59375 13.445312 16.972656 13.726562 17.386719 14.175781 C 17.960938 14.796875 18.382812 15.65625 18.511719 16.480469 C 18.652344 17.339844 18.492188 18.371094 18.101562 19.164062 L 17.925781 19.519531 L 18.054688 19.769531 C 18.128906 19.90625 18.1875 20.039062 18.1875 20.066406 C 18.1875 20.09375 18.089844 20.265625 17.972656 20.449219 L 17.757812 20.785156 L 17.867188 20.988281 C 17.972656 21.1875 17.988281 21.199219 18.558594 21.40625 C 19.367188 21.699219 19.355469 21.671875 19.050781 22.550781 L 18.816406 23.230469 L 18.925781 23.429688 C 19.113281 23.769531 19.128906 23.78125 19.632812 23.84375 C 20.078125 23.898438 20.105469 23.910156 20.1875 24.046875 C 20.257812 24.160156 20.269531 24.242188 20.25 24.464844 C 20.222656 24.71875 20.234375 24.761719 20.355469 24.953125 C 20.472656 25.132812 20.539062 25.183594 20.828125 25.296875 C 21.261719 25.46875 21.355469 25.601562 21.320312 25.988281 C 21.292969 26.257812 21.296875 26.265625 21.609375 26.800781 L 21.925781 27.339844 Z M 18.300781 24.523438 C 17.214844 22.65625 16.324219 21.125 16.316406 21.117188 C 16.308594 21.109375 16.175781 21.164062 16.019531 21.234375 L 15.734375 21.363281 L 17.703125 24.746094 C 18.785156 26.605469 19.703125 28.164062 19.742188 28.210938 C 19.777344 28.253906 19.847656 28.289062 19.890625 28.289062 C 20.03125 28.289062 20.273438 28.113281 20.273438 28.011719 C 20.273438 27.957031 19.386719 26.386719 18.300781 24.523438 Z M 18.300781 24.523438 "/>
</g>
</svg>
