<?xml version="1.0" encoding="UTF-8"?>
<svg xmlns="http://www.w3.org/2000/svg" xmlns:xlink="http://www.w3.org/1999/xlink" width="36pt" height="36pt" viewBox="0 0 36 36" version="1.1">
<g id="surface1">
<path style=" stroke:none;fill-rule:evenodd;fill:rgb(90.196078%,90.196078%,90.196078%);fill-opacity:1;" d="M 8.40625 2.136719 L 27.59375 2.136719 C 31.054688 2.136719 33.863281 4.945312 33.863281 8.40625 L 33.863281 27.59375 C 33.863281 31.054688 31.054688 33.863281 27.59375 33.863281 L 8.40625 33.863281 C 4.945312 33.863281 2.136719 31.054688 2.136719 27.59375 L 2.136719 8.40625 C 2.136719 4.945312 4.945312 2.136719 8.40625 2.136719 Z M 8.40625 2.136719 "/>
<path style=" stroke:none;fill-rule:nonzero;fill:rgb(51.764706%,0%,100%);fill-opacity:1;" d="M 9.675781 21.167969 C 9.25 21.078125 8.871094 20.878906 8.566406 20.582031 C 8.261719 20.289062 8.050781 19.925781 7.964844 19.539062 L 7.914062 19.324219 L 7.921875 14.167969 L 7.929688 9.007812 L 8.007812 8.785156 C 8.148438 8.371094 8.378906 8.042969 8.703125 7.785156 C 9.070312 7.488281 9.484375 7.328125 9.976562 7.28125 C 10.160156 7.265625 11.597656 7.261719 14.285156 7.265625 C 18.664062 7.277344 18.378906 7.265625 18.761719 7.402344 C 19.46875 7.644531 19.996094 8.210938 20.183594 8.929688 C 20.238281 9.125 20.238281 9.140625 20.246094 11.417969 L 20.253906 13.707031 L 18 13.707031 L 18 9.417969 L 10.144531 9.417969 L 10.144531 19.078125 L 14.625 19.078125 L 14.625 21.210938 L 12.25 21.210938 C 10.050781 21.210938 9.859375 21.207031 9.675781 21.167969 Z M 9.675781 21.167969 "/>
<path style=" stroke:none;fill-rule:nonzero;fill:rgb(0%,70.588235%,44.313725%);fill-opacity:1;" d="M 17.773438 28.714844 C 16.824219 28.621094 16.042969 27.960938 15.8125 27.058594 L 15.761719 26.851562 L 15.761719 21.75 C 15.761719 16.992188 15.761719 16.640625 15.800781 16.492188 C 15.910156 16.066406 16.097656 15.734375 16.382812 15.449219 C 16.660156 15.171875 16.957031 15 17.382812 14.863281 L 17.589844 14.800781 L 21.839844 14.792969 C 25.9375 14.785156 26.097656 14.789062 26.308594 14.832031 C 26.78125 14.929688 27.183594 15.152344 27.511719 15.496094 C 27.714844 15.714844 27.8125 15.863281 27.929688 16.140625 C 28.09375 16.519531 28.082031 16.140625 28.082031 21.761719 C 28.082031 26.117188 28.078125 26.859375 28.050781 27 C 27.851562 27.945312 27.050781 28.625 26.035156 28.714844 C 25.722656 28.742188 18.058594 28.742188 17.773438 28.714844 Z M 25.855469 21.75 L 25.855469 16.921875 L 18 16.921875 L 18 26.582031 L 25.855469 26.582031 Z M 25.855469 21.75 "/>
<path style=" stroke:none;fill-rule:nonzero;fill:rgb(0%,70.588235%,44.313725%);fill-opacity:1;" d="M 10.882812 27.730469 C 9.878906 26.765625 9.046875 25.972656 9.035156 25.972656 C 9.027344 25.972656 9.019531 26.59375 9.019531 27.355469 L 9.019531 28.738281 L 6.792969 28.738281 L 6.792969 22.292969 L 13.523438 22.292969 L 13.515625 23.363281 L 13.507812 24.4375 L 10.632812 24.460938 L 12.457031 26.207031 C 13.460938 27.164062 14.285156 27.957031 14.289062 27.964844 C 14.296875 27.980469 12.867188 29.363281 12.761719 29.445312 C 12.714844 29.480469 12.648438 29.421875 10.882812 27.730469 Z M 10.882812 27.730469 "/>
<path style=" stroke:none;fill-rule:nonzero;fill:rgb(51.764706%,0%,100%);fill-opacity:1;" d="M 25.117188 8.269531 C 26.121094 9.234375 26.953125 10.027344 26.964844 10.027344 C 26.972656 10.027344 26.980469 9.40625 26.980469 8.644531 L 26.980469 7.261719 L 29.207031 7.261719 L 29.207031 13.707031 L 22.476562 13.707031 L 22.484375 12.636719 L 22.492188 11.5625 L 25.367188 11.539062 L 23.542969 9.792969 C 22.539062 8.835938 21.714844 8.042969 21.710938 8.035156 C 21.703125 8.019531 23.132812 6.636719 23.238281 6.554688 C 23.285156 6.519531 23.351562 6.578125 25.117188 8.269531 Z M 25.117188 8.269531 "/>
</g>
</svg>
