<?xml version="1.0" encoding="UTF-8"?>
<svg xmlns="http://www.w3.org/2000/svg" xmlns:xlink="http://www.w3.org/1999/xlink" width="36pt" height="36pt" viewBox="0 0 36 36" version="1.1">
<g id="surface1">
<path style=" stroke:none;fill-rule:evenodd;fill:rgb(23.137255%,43.921569%,62.352941%);fill-opacity:1;" d="M 8.40625 2.136719 L 27.59375 2.136719 C 31.054688 2.136719 33.863281 4.945312 33.863281 8.40625 L 33.863281 27.59375 C 33.863281 31.054688 31.054688 33.863281 27.59375 33.863281 L 8.40625 33.863281 C 4.945312 33.863281 2.136719 31.054688 2.136719 27.59375 L 2.136719 8.40625 C 2.136719 4.945312 4.945312 2.136719 8.40625 2.136719 Z M 8.40625 2.136719 "/>
<path style=" stroke:none;fill-rule:nonzero;fill:rgb(100%,100%,100%);fill-opacity:1;" d="M 16.875 10.125 C 16.875 13.230469 14.355469 15.75 11.25 15.75 C 8.144531 15.75 5.625 13.230469 5.625 10.125 C 5.625 7.019531 8.144531 4.5 11.25 4.5 C 14.355469 4.5 16.875 7.019531 16.875 10.125 Z M 16.875 10.125 "/>
<path style=" stroke:none;fill-rule:nonzero;fill:rgb(100%,40.392157%,33.72549%);fill-opacity:1;" d="M 30.375 10.125 C 30.375 13.230469 27.855469 15.75 24.75 15.75 C 21.644531 15.75 19.125 13.230469 19.125 10.125 C 19.125 7.019531 21.644531 4.5 24.75 4.5 C 27.855469 4.5 30.375 7.019531 30.375 10.125 Z M 30.375 10.125 "/>
<path style=" stroke:none;fill-rule:nonzero;fill:rgb(30.196078%,30.196078%,30.196078%);fill-opacity:1;" d="M 16.875 25.875 C 16.875 28.980469 14.355469 31.5 11.25 31.5 C 8.144531 31.5 5.625 28.980469 5.625 25.875 C 5.625 22.769531 8.144531 20.25 11.25 20.25 C 14.355469 20.25 16.875 22.769531 16.875 25.875 Z M 16.875 25.875 "/>
<path style=" stroke:none;fill-rule:nonzero;fill:rgb(100%,40.392157%,33.72549%);fill-opacity:1;" d="M 30.375 25.875 C 30.375 28.980469 27.855469 31.5 24.75 31.5 C 21.644531 31.5 19.125 28.980469 19.125 25.875 C 19.125 22.769531 21.644531 20.25 24.75 20.25 C 27.855469 20.25 30.375 22.769531 30.375 25.875 Z M 30.375 25.875 "/>
</g>
</svg>
