<?xml version="1.0" encoding="UTF-8"?>
<svg xmlns="http://www.w3.org/2000/svg" xmlns:xlink="http://www.w3.org/1999/xlink" width="36pt" height="36pt" viewBox="0 0 36 36" version="1.1">
<g id="surface1">
<path style=" stroke:none;fill-rule:evenodd;fill:rgb(56.470588%,79.215686%,97.647059%);fill-opacity:1;" d="M 8.40625 2.136719 L 27.59375 2.136719 C 31.054688 2.136719 33.863281 4.945312 33.863281 8.40625 L 33.863281 27.59375 C 33.863281 31.054688 31.054688 33.863281 27.59375 33.863281 L 8.40625 33.863281 C 4.945312 33.863281 2.136719 31.054688 2.136719 27.59375 L 2.136719 8.40625 C 2.136719 4.945312 4.945312 2.136719 8.40625 2.136719 Z M 8.40625 2.136719 "/>
<path style=" stroke:none;fill-rule:nonzero;fill:rgb(12.54902%,58.431373%,94.901961%);fill-opacity:1;" d="M 18 5.695312 C 24.792969 5.695312 30.304688 11.207031 30.304688 18 C 30.304688 24.792969 24.792969 30.304688 18 30.304688 C 11.207031 30.304688 5.695312 24.792969 5.695312 18 C 5.695312 11.207031 11.207031 5.695312 18 5.695312 Z M 18 5.695312 "/>
<path style=" stroke:none;fill-rule:nonzero;fill:rgb(74.509804%,89.803922%,89.411765%);fill-opacity:1;" d="M 18 5.695312 C 16.449219 5.695312 14.972656 5.992188 13.605469 6.511719 C 13.507812 6.605469 13.378906 6.675781 13.277344 6.664062 C 13.261719 6.664062 13.246094 6.65625 13.234375 6.648438 C 12.5625 6.929688 11.921875 7.277344 11.316406 7.667969 C 11.394531 7.792969 11.417969 7.9375 11.257812 8.007812 C 11.230469 8.019531 10.886719 8.050781 10.769531 8.050781 C 9.046875 9.300781 7.667969 10.980469 6.785156 12.945312 C 6.796875 12.945312 6.808594 12.9375 6.824219 12.9375 C 6.957031 12.933594 7.152344 12.972656 7.28125 13 C 7.398438 13.023438 7.496094 13.101562 7.597656 13.109375 C 7.890625 13.132812 7.960938 12.90625 8.195312 12.78125 C 8.441406 12.8125 8.605469 12.738281 8.828125 12.761719 C 8.980469 12.78125 9.089844 12.941406 9.207031 12.949219 C 9.304688 12.960938 9.394531 12.859375 9.488281 12.871094 C 9.582031 12.886719 9.742188 13.089844 9.757812 13.203125 C 9.777344 13.34375 9.652344 13.472656 9.695312 13.628906 C 9.84375 13.78125 10.113281 13.8125 10.324219 13.898438 C 10.464844 13.785156 10.34375 13.574219 10.324219 13.40625 C 10.324219 13.335938 10.335938 13.269531 10.324219 13.203125 C 10.3125 13.089844 10.261719 12.988281 10.261719 12.890625 C 10.261719 12.441406 10.625 12.230469 10.925781 12.054688 C 11.054688 11.976562 11.15625 11.839844 11.269531 11.785156 C 11.429688 11.703125 11.550781 11.683594 11.683594 11.609375 C 11.921875 11.476562 12.125 11.367188 12.3125 11.214844 C 12.398438 11.011719 12.320312 10.738281 12.328125 10.539062 C 12.414062 10.484375 12.488281 10.5625 12.582031 10.554688 C 12.726562 10.523438 12.738281 10.320312 12.820312 10.238281 C 12.867188 10.191406 12.996094 10.160156 13.054688 10.113281 C 13.199219 10 13.246094 9.832031 13.371094 9.78125 C 13.417969 9.765625 13.519531 9.769531 13.589844 9.75 C 13.683594 9.726562 13.816406 9.613281 13.96875 9.5625 C 14.070312 9.527344 14.296875 9.519531 14.332031 9.484375 C 14.378906 9.433594 14.332031 9.300781 14.347656 9.230469 C 14.425781 8.875 14.960938 8.800781 15.28125 8.679688 C 15.5 8.59375 15.730469 8.441406 15.972656 8.488281 C 15.925781 8.65625 15.699219 8.597656 15.738281 8.804688 C 15.789062 9.089844 16.171875 8.722656 16.273438 8.679688 C 16.464844 8.597656 16.796875 8.546875 17.046875 8.457031 C 17.269531 8.375 17.667969 8.253906 17.457031 8 C 17.285156 7.988281 17.199219 8.203125 17.046875 8.269531 C 16.941406 8.285156 16.964844 8.179688 16.875 8.171875 C 16.789062 8.160156 16.742188 8.25 16.652344 8.234375 C 16.566406 8.222656 16.445312 8.085938 16.429688 7.984375 C 16.398438 7.71875 16.652344 7.613281 16.761719 7.414062 C 16.691406 7.175781 16.363281 7.367188 16.164062 7.273438 C 16.179688 7.132812 16.328125 7.035156 16.492188 7.007812 C 16.628906 6.984375 16.933594 6.996094 17.015625 7.066406 C 17.0625 7.109375 17.019531 7.207031 17.09375 7.273438 C 17.175781 7.347656 17.273438 7.339844 17.378906 7.320312 C 17.414062 7.140625 17.144531 7.1875 17.175781 7.066406 C 17.386719 6.929688 17.734375 7.042969 17.996094 7.003906 C 18.144531 6.980469 18.300781 6.875 18.4375 6.800781 C 18.5625 6.730469 18.726562 6.605469 18.859375 6.722656 C 18.898438 6.851562 18.742188 6.894531 18.671875 6.957031 C 18.429688 7.171875 18.183594 7.417969 17.996094 7.667969 C 18.109375 7.78125 18.320312 7.722656 18.515625 7.746094 C 18.589844 7.757812 18.683594 7.78125 18.765625 7.792969 C 18.859375 7.808594 18.960938 7.804688 19.035156 7.824219 C 19.167969 7.859375 19.203125 8 19.332031 8 C 19.550781 8 19.550781 7.765625 19.429688 7.621094 C 19.46875 7.46875 19.527344 7.394531 19.476562 7.289062 C 19.378906 7.09375 19.023438 7.277344 19.003906 7.035156 C 18.992188 6.878906 19.136719 6.886719 19.191406 6.769531 C 19.167969 6.464844 19.441406 6.441406 19.414062 6.171875 C 19.398438 6.054688 19.304688 6.054688 19.222656 5.949219 C 19.183594 5.894531 19.164062 5.796875 19.117188 5.75 C 18.75 5.71875 18.375 5.695312 18 5.695312 Z M 11.652344 8.179688 C 11.726562 8.191406 11.8125 8.269531 11.902344 8.273438 C 11.988281 8.277344 12.058594 8.230469 12.109375 8.242188 C 12.242188 8.277344 12.296875 8.476562 12.171875 8.574219 C 12.070312 8.585938 12.027344 8.53125 11.953125 8.542969 C 11.738281 8.578125 11.65625 9 11.496094 8.984375 C 11.34375 8.972656 11.261719 8.605469 11.414062 8.496094 C 11.425781 8.398438 11.347656 8.382812 11.351562 8.289062 C 11.394531 8.230469 11.527344 8.167969 11.652344 8.179688 Z M 10.941406 8.226562 C 10.984375 8.230469 11.019531 8.242188 11.035156 8.257812 C 11.015625 8.425781 10.882812 8.417969 10.753906 8.496094 C 10.527344 8.628906 10.398438 8.835938 10.328125 9.125 C 10.308594 9.210938 10.085938 9.433594 9.980469 9.410156 C 9.730469 9.359375 10.046875 8.898438 10.105469 8.828125 C 10.167969 8.75 10.253906 8.679688 10.328125 8.589844 C 10.398438 8.503906 10.445312 8.386719 10.515625 8.339844 C 10.59375 8.285156 10.808594 8.222656 10.941406 8.226562 Z M 12.808594 8.796875 C 12.886719 8.796875 12.960938 8.808594 12.992188 8.84375 C 12.941406 9.050781 12.492188 8.996094 12.328125 8.921875 C 12.339844 8.84375 12.460938 8.820312 12.566406 8.808594 C 12.636719 8.808594 12.726562 8.792969 12.808594 8.796875 Z M 11.789062 9.179688 C 11.839844 9.179688 11.894531 9.191406 11.949219 9.207031 C 11.804688 9.328125 11.648438 9.394531 11.398438 9.472656 C 11.28125 9.511719 11.074219 9.558594 11.050781 9.425781 C 11.027344 9.261719 11.226562 9.300781 11.335938 9.285156 C 11.476562 9.265625 11.625 9.183594 11.789062 9.179688 Z M 27.453125 10.113281 C 27.4375 10.160156 27.421875 10.203125 27.425781 10.246094 C 27.433594 10.324219 27.515625 10.394531 27.535156 10.5 C 27.546875 10.554688 27.511719 10.671875 27.535156 10.722656 C 27.613281 10.867188 27.8125 10.761719 27.953125 10.769531 C 27.792969 10.546875 27.628906 10.324219 27.453125 10.113281 Z M 28.261719 11.199219 C 28.238281 11.308594 28.164062 11.449219 28.105469 11.539062 C 27.96875 11.75 27.78125 11.761719 27.582031 11.871094 C 27.417969 11.964844 27.347656 12.121094 27.25 12.28125 C 27.148438 12.457031 27.082031 12.5625 27.125 12.816406 C 26.984375 13.097656 26.769531 13.269531 26.480469 13.402344 C 26.390625 13.441406 26.273438 13.453125 26.195312 13.511719 C 26.132812 13.558594 26.097656 13.679688 26.007812 13.777344 C 25.894531 13.902344 25.78125 13.953125 25.722656 14.046875 C 25.675781 14.121094 25.660156 14.265625 25.609375 14.363281 C 25.542969 14.496094 25.402344 14.5625 25.3125 14.695312 C 25.273438 14.757812 25.246094 14.882812 25.199219 14.964844 C 25.101562 15.144531 24.929688 15.277344 24.949219 15.4375 C 24.964844 15.589844 25.140625 15.617188 25.152344 15.753906 C 25.15625 15.828125 25.101562 15.875 25.105469 15.957031 C 25.109375 16.078125 25.191406 16.164062 25.199219 16.257812 C 25.222656 16.492188 25.121094 16.585938 25.078125 16.746094 C 25.054688 16.820312 25.066406 16.90625 25.042969 16.964844 C 25.003906 17.085938 24.84375 17.191406 24.839844 17.328125 C 24.839844 17.425781 24.941406 17.507812 24.949219 17.644531 C 24.949219 17.738281 24.902344 17.839844 24.917969 17.929688 C 24.953125 18.101562 25.257812 18.300781 25.390625 18.433594 C 25.570312 18.613281 25.804688 18.75 25.878906 18.9375 C 25.945312 19.097656 25.945312 19.304688 26.070312 19.425781 C 26.160156 19.515625 26.3125 19.570312 26.433594 19.664062 C 26.542969 19.75 26.660156 19.824219 26.777344 19.914062 C 26.972656 20.066406 27.261719 20.363281 27.566406 20.339844 C 27.726562 20.328125 27.890625 20.199219 28.070312 20.167969 C 28.257812 20.132812 28.5 20.117188 28.6875 20.136719 C 28.832031 20.152344 28.980469 20.238281 29.128906 20.230469 C 29.289062 20.21875 29.46875 20.101562 29.648438 20.023438 C 29.792969 19.960938 29.972656 19.890625 30.167969 19.839844 C 30.253906 19.242188 30.304688 18.625 30.304688 18 C 30.304688 15.480469 29.550781 13.144531 28.261719 11.199219 Z M 7.910156 15.332031 C 7.648438 15.347656 7.476562 15.359375 7.328125 15.425781 C 6.988281 15.582031 7.054688 16.042969 6.714844 16.152344 C 6.59375 16.191406 6.433594 16.191406 6.304688 16.21875 C 6.191406 16.238281 6.054688 16.300781 5.9375 16.296875 C 5.90625 16.296875 5.863281 16.273438 5.820312 16.257812 C 5.789062 16.476562 5.765625 16.695312 5.746094 16.914062 C 6.070312 16.976562 6.238281 17.40625 6.527344 17.546875 C 6.605469 17.585938 6.707031 17.589844 6.808594 17.613281 C 6.890625 17.628906 6.953125 17.664062 7.03125 17.691406 C 7.195312 17.746094 7.402344 17.742188 7.535156 17.800781 C 7.734375 17.890625 7.882812 18.269531 8.054688 18.367188 C 8.066406 18.472656 8.035156 18.609375 8.070312 18.683594 C 8.152344 18.792969 8.269531 18.769531 8.402344 18.84375 C 8.5625 18.929688 8.613281 19.152344 8.765625 19.222656 C 8.820312 19.246094 8.949219 19.242188 9.035156 19.265625 C 9.242188 19.332031 9.3125 19.574219 9.492188 19.519531 C 9.609375 19.484375 9.597656 19.363281 9.617188 19.253906 C 9.695312 19.167969 9.78125 19.035156 9.902344 19.03125 C 10.097656 19.023438 10.113281 19.234375 10.1875 19.425781 C 10.226562 19.53125 10.332031 19.625 10.359375 19.738281 C 10.410156 19.9375 10.382812 20.523438 10.34375 20.640625 C 10.292969 20.785156 10.097656 20.84375 9.980469 21.003906 C 9.921875 21.078125 9.894531 21.1875 9.851562 21.242188 C 9.773438 21.335938 9.660156 21.359375 9.601562 21.445312 C 9.570312 21.496094 9.539062 21.601562 9.507812 21.664062 C 9.410156 21.867188 9.285156 22.007812 9.363281 22.25 C 9.398438 22.347656 9.554688 22.414062 9.554688 22.53125 C 9.554688 22.667969 9.261719 22.792969 9.238281 22.941406 C 9.222656 23.054688 9.328125 23.253906 9.363281 23.402344 C 9.390625 23.511719 9.597656 23.578125 9.664062 23.652344 C 9.773438 23.777344 9.863281 23.953125 9.964844 24.109375 C 10.164062 24.417969 10.320312 24.792969 10.515625 25.089844 C 10.617188 25.246094 10.761719 25.386719 10.832031 25.546875 C 10.867188 25.628906 10.863281 25.726562 10.894531 25.800781 C 11.007812 26.054688 11.503906 26.320312 11.761719 26.445312 C 11.882812 26.503906 12.015625 26.523438 12.125 26.585938 C 12.292969 26.679688 12.625 26.929688 12.707031 27.074219 C 12.785156 27.207031 12.832031 27.527344 12.867188 27.738281 C 12.914062 28.015625 12.867188 28.226562 12.882812 28.527344 C 12.894531 28.691406 12.945312 28.851562 12.945312 29.015625 C 12.945312 29.070312 12.917969 29.113281 12.914062 29.171875 C 12.914062 29.183594 12.917969 29.191406 12.917969 29.203125 C 14.464844 29.902344 16.183594 30.304688 18 30.304688 C 18.328125 30.304688 18.652344 30.285156 18.972656 30.261719 C 18.988281 30.238281 19 30.210938 19.019531 30.1875 C 19.09375 30.09375 19.160156 30.007812 19.207031 29.921875 C 19.253906 29.632812 19.09375 29.433594 19.160156 29.179688 C 19.234375 28.898438 19.628906 28.722656 19.902344 28.597656 C 19.996094 28.550781 20.09375 28.480469 20.167969 28.453125 C 20.359375 28.386719 20.597656 28.421875 20.769531 28.359375 C 21.066406 28.253906 21.097656 27.933594 21.242188 27.664062 C 21.3125 27.539062 21.402344 27.410156 21.414062 27.320312 C 21.425781 27.238281 21.386719 27.160156 21.398438 27.066406 C 21.414062 26.96875 21.5 26.886719 21.523438 26.78125 C 21.558594 26.644531 21.574219 26.445312 21.574219 26.292969 C 21.574219 26.167969 21.515625 26.058594 21.511719 25.945312 C 21.492188 25.539062 21.660156 25.492188 21.808594 25.269531 C 21.886719 25.160156 21.914062 25.03125 21.96875 24.953125 C 22.222656 24.574219 22.664062 24.390625 22.628906 23.816406 C 22.621094 23.628906 22.5 23.199219 22.363281 23.140625 C 22.28125 23.105469 22.097656 23.136719 21.984375 23.09375 C 21.609375 22.953125 21.390625 22.492188 21.003906 22.460938 C 20.921875 22.449219 20.847656 22.496094 20.753906 22.492188 C 20.601562 22.484375 20.371094 22.386719 20.199219 22.367188 C 20.09375 22.355469 19.949219 22.398438 19.886719 22.367188 C 19.785156 22.320312 19.777344 22.136719 19.695312 22.082031 C 19.632812 22.039062 19.507812 22.023438 19.414062 21.988281 C 19.257812 21.929688 19.132812 21.859375 18.957031 21.847656 C 18.898438 21.84375 18.832031 21.871094 18.765625 21.863281 C 18.667969 21.847656 18.589844 21.730469 18.496094 21.671875 C 18.382812 21.601562 18.277344 21.570312 18.230469 21.46875 C 18.332031 21.128906 18.046875 21.035156 17.976562 20.839844 C 17.945312 20.746094 17.960938 20.636719 17.929688 20.554688 C 17.890625 20.4375 17.773438 20.367188 17.644531 20.269531 C 17.417969 20.09375 17.214844 19.929688 16.886719 19.890625 C 16.746094 19.871094 16.601562 19.933594 16.429688 19.921875 C 16.246094 19.910156 16.015625 19.75 15.878906 19.59375 C 15.746094 19.441406 15.679688 19.300781 15.5625 19.230469 C 15.453125 19.160156 15.308594 19.160156 15.230469 19.089844 C 15.199219 19.058594 15.203125 19.003906 15.167969 18.929688 C 15.113281 18.816406 15.019531 18.75 15.089844 18.613281 C 14.964844 18.550781 14.960938 18.734375 14.820312 18.710938 C 14.699219 18.535156 14.597656 18.453125 14.316406 18.503906 C 14.191406 18.527344 14.117188 18.6875 13.96875 18.691406 C 13.847656 18.703125 13.753906 18.558594 13.59375 18.535156 C 13.46875 18.519531 13.332031 18.566406 13.246094 18.550781 C 13.109375 18.523438 13.070312 18.414062 12.945312 18.332031 C 12.855469 18.273438 12.679688 18.171875 12.628906 18.171875 C 12.472656 18.183594 12.359375 18.511719 12.140625 18.394531 C 12.035156 18.257812 12.3125 18.1875 12.1875 18.0625 C 12.089844 17.964844 12.011719 18.105469 11.933594 18.160156 C 11.847656 18.21875 11.765625 18.277344 11.667969 18.316406 C 11.453125 18.394531 11.316406 18.351562 11.148438 18.441406 C 10.988281 18.523438 10.984375 18.65625 10.894531 18.820312 C 10.820312 18.953125 10.65625 19.144531 10.546875 19.152344 C 10.414062 19.164062 10.289062 18.96875 10.167969 18.917969 C 9.808594 18.761719 9.632812 19.054688 9.332031 19.058594 C 9.054688 19.070312 8.65625 18.609375 8.671875 18.347656 C 8.671875 18.1875 8.761719 17.945312 8.78125 17.75 C 8.796875 17.589844 8.90625 17.496094 8.90625 17.351562 C 8.910156 17.160156 8.652344 17.015625 8.527344 16.992188 C 8.234375 16.9375 7.824219 17.109375 7.488281 16.976562 C 7.421875 16.867188 7.5625 16.792969 7.597656 16.691406 C 7.621094 16.628906 7.609375 16.550781 7.628906 16.488281 C 7.667969 16.386719 7.773438 16.308594 7.820312 16.203125 C 7.855469 16.121094 7.863281 16.003906 7.898438 15.902344 C 7.9375 15.789062 8.015625 15.714844 8.023438 15.632812 C 8.035156 15.527344 7.996094 15.40625 7.914062 15.335938 Z M 12.128906 18.671875 C 12.234375 18.683594 12.25 18.902344 12.140625 18.921875 C 12.023438 18.941406 11.960938 18.738281 12.078125 18.683594 C 12.09375 18.671875 12.113281 18.671875 12.128906 18.675781 Z M 12.128906 18.671875 "/>
</g>
</svg>
