<?xml version="1.0" encoding="UTF-8"?>
<svg xmlns="http://www.w3.org/2000/svg" xmlns:xlink="http://www.w3.org/1999/xlink" width="36pt" height="36pt" viewBox="0 0 36 36" version="1.1">
<g id="surface1">
<path style=" stroke:none;fill-rule:evenodd;fill:rgb(30.588235%,56.862745%,85.098039%);fill-opacity:1;" d="M 8.40625 2.136719 L 27.59375 2.136719 C 31.054688 2.136719 33.863281 4.945312 33.863281 8.40625 L 33.863281 27.59375 C 33.863281 31.054688 31.054688 33.863281 27.59375 33.863281 L 8.40625 33.863281 C 4.945312 33.863281 2.136719 31.054688 2.136719 27.59375 L 2.136719 8.40625 C 2.136719 4.945312 4.945312 2.136719 8.40625 2.136719 Z M 8.40625 2.136719 "/>
<path style=" stroke:none;fill-rule:nonzero;fill:rgb(100%,100%,100%);fill-opacity:1;" d="M 6.75 21.375 L 11.25 21.375 L 11.25 22.5 L 6.75 22.5 Z M 6.75 21.375 "/>
<path style=" stroke:none;fill-rule:nonzero;fill:rgb(100%,92.156863%,36.470588%);fill-opacity:1;" d="M 24.1875 7.875 L 24.5625 8.851562 L 25.539062 8.542969 L 25.03125 9.453125 L 25.875 10.046875 L 24.863281 10.203125 L 24.9375 11.25 L 24.1875 10.539062 L 23.4375 11.25 L 23.511719 10.203125 L 22.5 10.046875 L 23.34375 9.453125 L 22.832031 8.542969 L 23.8125 8.851562 Z M 24.1875 7.875 "/>
<path style=" stroke:none;fill-rule:nonzero;fill:rgb(45.490196%,14.117647%,14.117647%);fill-opacity:1;" d="M 25.875 27 L 21.375 27 L 21.375 25.875 L 25.875 25.875 Z M 25.875 27 "/>
<path style=" stroke:none;fill-rule:nonzero;fill:rgb(67.843137%,19.215686%,19.215686%);fill-opacity:1;" d="M 21.375 27 L 16.875 27 L 16.875 25.875 L 21.375 25.875 Z M 21.375 27 "/>
<path style=" stroke:none;fill-rule:nonzero;fill:rgb(45.490196%,14.117647%,14.117647%);fill-opacity:1;" d="M 16.875 27 L 12.375 27 L 12.375 25.875 L 16.875 25.875 Z M 16.875 27 "/>
<path style=" stroke:none;fill-rule:nonzero;fill:rgb(67.843137%,19.215686%,19.215686%);fill-opacity:1;" d="M 12.375 27 L 7.875 27 L 7.875 25.875 L 12.375 25.875 Z M 12.375 27 "/>
<path style=" stroke:none;fill-rule:nonzero;fill:rgb(45.490196%,14.117647%,14.117647%);fill-opacity:1;" d="M 7.875 27 L 3.375 27 L 3.375 25.875 L 7.875 25.875 Z M 7.875 27 "/>
<path style=" stroke:none;fill-rule:nonzero;fill:rgb(45.490196%,14.117647%,14.117647%);fill-opacity:1;" d="M 32.625 27 L 30.375 27 L 30.375 25.875 L 32.625 25.875 Z M 32.625 27 "/>
<path style=" stroke:none;fill-rule:nonzero;fill:rgb(67.843137%,19.215686%,19.215686%);fill-opacity:1;" d="M 23.625 28.125 L 19.125 28.125 L 19.125 27 L 23.625 27 Z M 23.625 28.125 "/>
<path style=" stroke:none;fill-rule:nonzero;fill:rgb(45.490196%,14.117647%,14.117647%);fill-opacity:1;" d="M 19.125 28.125 L 14.625 28.125 L 14.625 27 L 19.125 27 Z M 19.125 28.125 "/>
<path style=" stroke:none;fill-rule:nonzero;fill:rgb(67.843137%,19.215686%,19.215686%);fill-opacity:1;" d="M 14.625 28.125 L 10.125 28.125 L 10.125 27 L 14.625 27 Z M 14.625 28.125 "/>
<path style=" stroke:none;fill-rule:nonzero;fill:rgb(45.490196%,14.117647%,14.117647%);fill-opacity:1;" d="M 10.125 28.125 L 5.625 28.125 L 5.625 27 L 10.125 27 Z M 10.125 28.125 "/>
<path style=" stroke:none;fill-rule:nonzero;fill:rgb(67.843137%,19.215686%,19.215686%);fill-opacity:1;" d="M 5.625 28.125 L 3.375 28.125 L 3.375 27 L 5.625 27 Z M 5.625 28.125 "/>
<path style=" stroke:none;fill-rule:nonzero;fill:rgb(67.843137%,19.215686%,19.215686%);fill-opacity:1;" d="M 30.375 27 L 25.875 27 L 25.875 25.875 L 30.375 25.875 Z M 30.375 27 "/>
<path style=" stroke:none;fill-rule:nonzero;fill:rgb(67.843137%,19.215686%,19.215686%);fill-opacity:1;" d="M 32.625 28.125 L 28.125 28.125 L 28.125 27 L 32.625 27 Z M 32.625 28.125 "/>
<path style=" stroke:none;fill-rule:nonzero;fill:rgb(45.490196%,14.117647%,14.117647%);fill-opacity:1;" d="M 28.125 28.125 L 23.625 28.125 L 23.625 27 L 28.125 27 Z M 28.125 28.125 "/>
<path style=" stroke:none;fill-rule:nonzero;fill:rgb(45.490196%,14.117647%,14.117647%);fill-opacity:1;" d="M 12.375 13.5 L 14.625 13.5 L 14.625 14.625 L 12.375 14.625 Z M 12.375 13.5 "/>
<path style=" stroke:none;fill-rule:nonzero;fill:rgb(67.843137%,19.215686%,19.215686%);fill-opacity:1;" d="M 14.625 13.5 L 19.125 13.5 L 19.125 14.625 L 14.625 14.625 Z M 14.625 13.5 "/>
<path style=" stroke:none;fill-rule:nonzero;fill:rgb(45.490196%,14.117647%,14.117647%);fill-opacity:1;" d="M 19.125 13.5 L 23.625 13.5 L 23.625 14.625 L 19.125 14.625 Z M 19.125 13.5 "/>
<path style=" stroke:none;fill-rule:nonzero;fill:rgb(67.843137%,19.215686%,19.215686%);fill-opacity:1;" d="M 23.625 13.5 L 28.125 13.5 L 28.125 14.625 L 23.625 14.625 Z M 23.625 13.5 "/>
<path style=" stroke:none;fill-rule:nonzero;fill:rgb(45.490196%,14.117647%,14.117647%);fill-opacity:1;" d="M 28.125 13.5 L 32.625 13.5 L 32.625 14.625 L 28.125 14.625 Z M 28.125 13.5 "/>
<path style=" stroke:none;fill-rule:nonzero;fill:rgb(45.490196%,14.117647%,14.117647%);fill-opacity:1;" d="M 3.375 13.5 L 5.625 13.5 L 5.625 14.625 L 3.375 14.625 Z M 3.375 13.5 "/>
<path style=" stroke:none;fill-rule:nonzero;fill:rgb(67.843137%,19.215686%,19.215686%);fill-opacity:1;" d="M 12.375 12.375 L 16.875 12.375 L 16.875 13.5 L 12.375 13.5 Z M 12.375 12.375 "/>
<path style=" stroke:none;fill-rule:nonzero;fill:rgb(45.490196%,14.117647%,14.117647%);fill-opacity:1;" d="M 16.875 12.375 L 21.375 12.375 L 21.375 13.5 L 16.875 13.5 Z M 16.875 12.375 "/>
<path style=" stroke:none;fill-rule:nonzero;fill:rgb(67.843137%,19.215686%,19.215686%);fill-opacity:1;" d="M 21.375 12.375 L 25.875 12.375 L 25.875 13.5 L 21.375 13.5 Z M 21.375 12.375 "/>
<path style=" stroke:none;fill-rule:nonzero;fill:rgb(45.490196%,14.117647%,14.117647%);fill-opacity:1;" d="M 25.875 12.375 L 30.375 12.375 L 30.375 13.5 L 25.875 13.5 Z M 25.875 12.375 "/>
<path style=" stroke:none;fill-rule:nonzero;fill:rgb(67.843137%,19.215686%,19.215686%);fill-opacity:1;" d="M 30.375 12.375 L 32.625 12.375 L 32.625 13.5 L 30.375 13.5 Z M 30.375 12.375 "/>
<path style=" stroke:none;fill-rule:nonzero;fill:rgb(67.843137%,19.215686%,19.215686%);fill-opacity:1;" d="M 3.375 12.375 L 5.625 12.375 L 5.625 13.5 L 3.375 13.5 Z M 3.375 12.375 "/>
<path style=" stroke:none;fill-rule:nonzero;fill:rgb(100%,100%,100%);fill-opacity:1;" d="M 6.75 11.25 L 7.875 11.25 L 7.875 24.75 L 6.75 24.75 Z M 6.75 11.25 "/>
<path style=" stroke:none;fill-rule:nonzero;fill:rgb(100%,100%,100%);fill-opacity:1;" d="M 10.125 11.25 L 11.25 11.25 L 11.25 24.75 L 10.125 24.75 Z M 10.125 11.25 "/>
<path style=" stroke:none;fill-rule:nonzero;fill:rgb(100%,100%,100%);fill-opacity:1;" d="M 6.75 16.875 L 11.25 16.875 L 11.25 18 L 6.75 18 Z M 6.75 16.875 "/>
<path style=" stroke:none;fill-rule:nonzero;fill:rgb(100%,100%,100%);fill-opacity:1;" d="M 6.75 12.375 L 11.25 12.375 L 11.25 13.5 L 6.75 13.5 Z M 6.75 12.375 "/>
</g>
</svg>
