<?xml version="1.0" encoding="UTF-8"?>
<svg xmlns="http://www.w3.org/2000/svg" xmlns:xlink="http://www.w3.org/1999/xlink" width="36pt" height="36pt" viewBox="0 0 36 36" version="1.1">
<g id="surface1">
<path style=" stroke:none;fill-rule:evenodd;fill:rgb(46.666667%,40.392157%,75.294118%);fill-opacity:1;" d="M 8.40625 2.136719 L 27.59375 2.136719 C 31.054688 2.136719 33.863281 4.945312 33.863281 8.40625 L 33.863281 27.59375 C 33.863281 31.054688 31.054688 33.863281 27.59375 33.863281 L 8.40625 33.863281 C 4.945312 33.863281 2.136719 31.054688 2.136719 27.59375 L 2.136719 8.40625 C 2.136719 4.945312 4.945312 2.136719 8.40625 2.136719 Z M 8.40625 2.136719 "/>
<path style=" stroke:none;fill-rule:nonzero;fill:rgb(49.803922%,100%,100%);fill-opacity:1;" d="M 10.125 6.75 L 10.125 29.25 L 13.5 29.25 L 13.5 16.214844 L 19.59375 10.125 L 21.375 10.125 L 21.375 15.949219 C 20.027344 16.425781 19.128906 17.695312 19.125 19.125 C 19.125 20.988281 20.636719 22.5 22.5 22.5 C 24.363281 22.5 25.875 20.988281 25.875 19.125 C 25.875 17.695312 24.972656 16.421875 23.625 15.945312 L 23.625 10.125 L 25.875 10.125 L 25.875 6.75 Z M 13.5 10.125 L 16.40625 10.125 L 13.5 13.03125 Z M 22.5 18 C 23.121094 18 23.625 18.503906 23.625 19.125 C 23.625 19.746094 23.121094 20.25 22.5 20.25 C 21.878906 20.25 21.375 19.746094 21.375 19.125 C 21.375 18.503906 21.878906 18 22.5 18 Z M 22.5 18 "/>
</g>
</svg>
