<?xml version="1.0" encoding="UTF-8"?>
<svg xmlns="http://www.w3.org/2000/svg" xmlns:xlink="http://www.w3.org/1999/xlink" width="36pt" height="36pt" viewBox="0 0 36 36" version="1.1">
<g id="surface1">
<path style=" stroke:none;fill-rule:evenodd;fill:rgb(26.666667%,34.117647%,61.568627%);fill-opacity:1;" d="M 8.40625 2.136719 L 27.59375 2.136719 C 31.054688 2.136719 33.863281 4.945312 33.863281 8.40625 L 33.863281 27.59375 C 33.863281 31.054688 31.054688 33.863281 27.59375 33.863281 L 8.40625 33.863281 C 4.945312 33.863281 2.136719 31.054688 2.136719 27.59375 L 2.136719 8.40625 C 2.136719 4.945312 4.945312 2.136719 8.40625 2.136719 Z M 8.40625 2.136719 "/>
<path style=" stroke:none;fill-rule:nonzero;fill:rgb(100%,100%,100%);fill-opacity:1;" d="M 6.867188 9.363281 L 6.867188 26.652344 L 10.394531 26.652344 L 10.394531 22.8125 L 13.265625 19.414062 L 17.570312 26.652344 L 21.941406 26.652344 L 15.417969 16.730469 L 21.472656 9.363281 L 17.507812 9.363281 L 10.394531 18.664062 L 10.394531 9.363281 Z M 24.640625 15.269531 L 24.640625 26.722656 L 28.753906 26.722656 L 28.753906 15.269531 Z M 24.640625 15.269531 "/>
<path style=" stroke:none;fill-rule:nonzero;fill:rgb(100%,54.509804%,0%);fill-opacity:1;" d="M 26.832031 13.84375 C 26.199219 13.84375 25.652344 13.625 25.183594 13.183594 C 24.746094 12.746094 24.527344 12.210938 24.527344 11.582031 C 24.527344 10.925781 24.746094 10.375 25.183594 9.9375 C 25.625 9.5 26.171875 9.277344 26.832031 9.277344 C 27.488281 9.277344 28.035156 9.5 28.476562 9.9375 C 28.914062 10.375 29.132812 10.925781 29.132812 11.582031 C 29.132812 12.210938 28.898438 12.746094 28.433594 13.183594 C 27.996094 13.625 27.460938 13.84375 26.832031 13.84375 Z M 26.832031 13.84375 "/>
</g>
</svg>
