<?xml version="1.0" encoding="UTF-8"?>
<svg xmlns="http://www.w3.org/2000/svg" xmlns:xlink="http://www.w3.org/1999/xlink" width="36pt" height="36pt" viewBox="0 0 36 36" version="1.1">
<g id="surface1">
<path style=" stroke:none;fill-rule:evenodd;fill:rgb(37.647059%,1.568627%,56.470588%);fill-opacity:1;" d="M 8.40625 2.136719 L 27.59375 2.136719 C 31.054688 2.136719 33.863281 4.945312 33.863281 8.40625 L 33.863281 27.59375 C 33.863281 31.054688 31.054688 33.863281 27.59375 33.863281 L 8.40625 33.863281 C 4.945312 33.863281 2.136719 31.054688 2.136719 27.59375 L 2.136719 8.40625 C 2.136719 4.945312 4.945312 2.136719 8.40625 2.136719 Z M 8.40625 2.136719 "/>
<path style=" stroke:none;fill-rule:nonzero;fill:rgb(68.235294%,40%,87.843137%);fill-opacity:1;" d="M 26.816406 7.65625 L 14.820312 10.421875 C 13.128906 10.636719 13.195312 12.367188 13.195312 12.367188 L 13.195312 19.746094 C 12.804688 19.632812 12.398438 19.578125 11.992188 19.574219 C 9.558594 19.574219 7.585938 21.546875 7.585938 23.980469 C 7.585938 26.414062 9.558594 28.386719 11.992188 28.386719 C 14.269531 28.382812 16.171875 26.648438 16.378906 24.378906 L 16.398438 24.378906 L 16.398438 13.292969 L 25.207031 11.199219 L 25.207031 17.34375 C 24.816406 17.230469 24.414062 17.171875 24.007812 17.171875 C 21.574219 17.171875 19.601562 19.144531 19.601562 21.578125 C 19.601562 24.011719 21.574219 25.980469 24.007812 25.980469 C 26.285156 25.980469 28.183594 24.246094 28.390625 21.976562 L 28.414062 21.976562 L 28.414062 9.164062 C 28.414062 9.164062 28.433594 7.316406 26.816406 7.65625 Z M 26.816406 7.65625 "/>
<path style=" stroke:none;fill-rule:nonzero;fill:rgb(96.470588%,86.666667%,47.45098%);fill-opacity:1;" d="M 29.867188 21.128906 C 28.800781 19.296875 24.476562 19.84375 23.523438 20.371094 L 15.777344 24.820312 C 15.371094 25.054688 15.230469 25.570312 15.464844 25.976562 L 18.449219 31.113281 C 18.683594 31.519531 19.203125 31.65625 19.613281 31.421875 L 27.359375 26.972656 C 27.960938 26.617188 30.933594 22.964844 29.867188 21.128906 Z M 28.390625 21.976562 C 28.628906 22.382812 28.488281 22.902344 28.078125 23.136719 C 27.671875 23.367188 27.152344 23.230469 26.917969 22.824219 C 26.679688 22.417969 26.820312 21.902344 27.226562 21.667969 C 27.636719 21.433594 28.15625 21.574219 28.390625 21.976562 Z M 28.390625 21.976562 "/>
<path style=" stroke:none;fill-rule:nonzero;fill:rgb(0%,0%,0%);fill-opacity:0.290196;" d="M 16.628906 26.285156 L 17.054688 27.019531 L 17.792969 26.597656 L 19.496094 29.53125 L 20.234375 29.105469 L 18.53125 26.171875 L 19.269531 25.75 L 18.84375 25.015625 L 18.105469 25.4375 L 17.367188 25.863281 Z M 19.582031 24.589844 L 21.710938 28.261719 L 22.449219 27.835938 L 21.597656 26.367188 L 22.335938 25.945312 L 23.1875 27.414062 L 23.921875 26.988281 L 21.792969 23.320312 L 20.320312 24.167969 Z M 22.53125 22.898438 L 22.957031 23.628906 L 24.660156 26.566406 L 25.398438 26.140625 L 26.875 25.292969 L 26.449219 24.5625 L 26.234375 24.195312 L 26.605469 23.980469 L 26.179688 23.25 L 24.703125 24.09375 L 25.128906 24.828125 L 25.5 24.617188 L 25.710938 24.984375 L 24.972656 25.40625 L 23.695312 23.207031 L 25.171875 22.359375 L 24.746094 21.625 Z M 20.746094 24.902344 L 21.480469 24.476562 L 21.90625 25.210938 L 21.171875 25.636719 Z M 20.746094 24.902344 "/>
</g>
</svg>
