<?xml version="1.0" encoding="UTF-8"?>
<svg xmlns="http://www.w3.org/2000/svg" xmlns:xlink="http://www.w3.org/1999/xlink" width="36pt" height="36pt" viewBox="0 0 36 36" version="1.1">
<g id="surface1">
<path style=" stroke:none;fill-rule:evenodd;fill:rgb(85.098039%,59.215686%,30.588235%);fill-opacity:1;" d="M 8.40625 2.136719 L 27.59375 2.136719 C 31.054688 2.136719 33.863281 4.945312 33.863281 8.40625 L 33.863281 27.59375 C 33.863281 31.054688 31.054688 33.863281 27.59375 33.863281 L 8.40625 33.863281 C 4.945312 33.863281 2.136719 31.054688 2.136719 27.59375 L 2.136719 8.40625 C 2.136719 4.945312 4.945312 2.136719 8.40625 2.136719 Z M 8.40625 2.136719 "/>
<path style=" stroke:none;fill-rule:nonzero;fill:rgb(30.196078%,30.196078%,30.196078%);fill-opacity:1;" d="M 14.625 6.75 C 10.277344 6.75 6.75 10.277344 6.75 14.625 C 6.753906 18.535156 9.628906 21.851562 13.5 22.414062 L 13.5 29.25 L 29.25 29.25 L 29.25 13.5 L 22.410156 13.5 C 21.851562 9.628906 18.535156 6.753906 14.625 6.75 Z M 14.625 7.875 C 17.917969 7.875 20.730469 10.253906 21.277344 13.5 L 13.5 13.5 L 13.5 21.273438 C 10.253906 20.726562 7.878906 17.917969 7.875 14.625 C 7.875 10.898438 10.898438 7.875 14.625 7.875 Z M 14.625 14.625 L 21.375 14.625 C 21.375 18.351562 18.351562 21.375 14.625 21.375 Z M 22.5 14.625 L 28.125 14.625 L 28.125 28.125 L 14.625 28.125 L 14.625 22.5 C 18.972656 22.5 22.5 18.972656 22.5 14.625 Z M 22.5 14.625 "/>
</g>
</svg>
