<?xml version="1.0" encoding="UTF-8"?>
<svg xmlns="http://www.w3.org/2000/svg" xmlns:xlink="http://www.w3.org/1999/xlink" width="36pt" height="36pt" viewBox="0 0 36 36" version="1.1">
<g id="surface1">
<path style=" stroke:none;fill-rule:evenodd;fill:rgb(20%,20%,20%);fill-opacity:1;" d="M 8.40625 2.136719 L 27.59375 2.136719 C 31.054688 2.136719 33.863281 4.945312 33.863281 8.40625 L 33.863281 27.59375 C 33.863281 31.054688 31.054688 33.863281 27.59375 33.863281 L 8.40625 33.863281 C 4.945312 33.863281 2.136719 31.054688 2.136719 27.59375 L 2.136719 8.40625 C 2.136719 4.945312 4.945312 2.136719 8.40625 2.136719 Z M 8.40625 2.136719 "/>
<path style=" stroke:none;fill-rule:evenodd;fill:rgb(68.627451%,81.176471%,25.490196%);fill-opacity:1;" d="M 10.011719 15.386719 L 9.847656 15.910156 C 8.800781 19.296875 8.855469 22.160156 9.902344 24.292969 C 10.949219 26.425781 13.011719 27.730469 15.59375 27.972656 L 15.601562 27.972656 C 18.222656 28.195312 20.574219 26.960938 22.429688 24.875 C 24.285156 22.789062 25.707031 19.84375 26.652344 16.433594 L 26.910156 15.507812 L 25.949219 15.503906 Z M 11.128906 16.867188 L 24.9375 16.964844 C 24.042969 19.804688 22.8125 22.230469 21.332031 23.898438 C 19.6875 25.746094 17.828125 26.683594 15.730469 26.507812 C 13.546875 26.304688 12.046875 25.320312 11.222656 23.644531 C 10.445312 22.066406 10.332031 19.757812 11.128906 16.867188 Z M 11.128906 16.867188 "/>
<path style=" stroke:none;fill-rule:nonzero;fill:rgb(68.627451%,81.176471%,25.490196%);fill-opacity:1;" d="M 12.71875 8.054688 C 12.042969 8.054688 11.484375 8.617188 11.484375 9.292969 C 11.484375 9.96875 12.042969 10.527344 12.71875 10.527344 C 13.394531 10.527344 13.953125 9.96875 13.953125 9.292969 C 13.953125 8.617188 13.394531 8.054688 12.71875 8.054688 Z M 12.71875 8.054688 "/>
<path style=" stroke:none;fill-rule:nonzero;fill:rgb(68.627451%,81.176471%,25.490196%);fill-opacity:1;" d="M 21.445312 8 C 20.769531 8 20.207031 8.558594 20.207031 9.234375 C 20.207031 9.910156 20.769531 10.472656 21.445312 10.472656 C 22.121094 10.472656 22.679688 9.910156 22.679688 9.234375 C 22.679688 8.558594 22.121094 8 21.445312 8 Z M 21.445312 8 "/>
</g>
</svg>
