<?xml version="1.0" encoding="UTF-8"?>
<svg xmlns="http://www.w3.org/2000/svg" xmlns:xlink="http://www.w3.org/1999/xlink" width="36pt" height="36pt" viewBox="0 0 36 36" version="1.1">
<defs>
<linearGradient id="linear0" gradientUnits="userSpaceOnUse" x1="457.59909" y1="631.21771" x2="457.59909" y2="614.22644" gradientTransform="matrix(0.142835,0,0,0.142839,-41.838914,-79.055028)">
<stop offset="0" style="stop-color:rgb(50.196078%,50.196078%,50.196078%);stop-opacity:0.929412;"/>
<stop offset="1" style="stop-color:rgb(50.196078%,50.196078%,50.196078%);stop-opacity:0;"/>
</linearGradient>
<linearGradient id="linear1" gradientUnits="userSpaceOnUse" x1="457.59909" y1="631.21771" x2="457.59909" y2="614.22644" gradientTransform="matrix(0.142835,0,0,0.142839,-31.520832,-79.055028)">
<stop offset="0" style="stop-color:rgb(50.196078%,50.196078%,50.196078%);stop-opacity:0.929412;"/>
<stop offset="1" style="stop-color:rgb(50.196078%,50.196078%,50.196078%);stop-opacity:0;"/>
</linearGradient>
<linearGradient id="linear2" gradientUnits="userSpaceOnUse" x1="457.26172" y1="601.77271" x2="458.41364" y2="645.99402" gradientTransform="matrix(0.339299,0,0,0.33931,-122.996554,-197.254721)">
<stop offset="0" style="stop-color:rgb(100%,100%,100%);stop-opacity:1;"/>
<stop offset="1" style="stop-color:rgb(100%,100%,100%);stop-opacity:0;"/>
</linearGradient>
</defs>
<g id="surface1">
<path style=" stroke:none;fill-rule:evenodd;fill:rgb(92.54902%,92.54902%,92.54902%);fill-opacity:1;" d="M 8.40625 2.136719 L 27.59375 2.136719 C 31.054688 2.136719 33.863281 4.945312 33.863281 8.40625 L 33.863281 27.59375 C 33.863281 31.054688 31.054688 33.863281 27.59375 33.863281 L 8.40625 33.863281 C 4.945312 33.863281 2.136719 31.054688 2.136719 27.59375 L 2.136719 8.40625 C 2.136719 4.945312 4.945312 2.136719 8.40625 2.136719 Z M 8.40625 2.136719 "/>
<path style="fill-rule:nonzero;fill:rgb(100%,100%,100%);fill-opacity:1;stroke-width:0.2;stroke-linecap:round;stroke-linejoin:round;stroke:rgb(50.196078%,50.196078%,50.196078%);stroke-opacity:0.929412;stroke-miterlimit:4;" d="M 27.118056 16 C 27.121528 22.142361 22.142361 27.121528 16 27.121528 C 9.857639 27.121528 4.878472 22.142361 4.881944 16 C 4.878472 9.857639 9.857639 4.878472 16 4.878472 C 22.142361 4.878472 27.121528 9.857639 27.118056 16 Z M 27.118056 16 " transform="matrix(1.125,0,0,1.125,0,0)"/>
<path style="fill-rule:nonzero;fill:rgb(0%,40%,100%);fill-opacity:1;stroke-width:0.132;stroke-linecap:round;stroke-linejoin:round;stroke:url(#linear0);stroke-miterlimit:4;" d="M 15.458333 16 C 15.458333 18.552083 13.392361 20.618056 10.840278 20.618056 C 8.291667 20.618056 6.222222 18.552083 6.222222 16 C 6.222222 13.447917 8.291667 11.381944 10.840278 11.381944 C 13.392361 11.381944 15.458333 13.447917 15.458333 16 Z M 15.458333 16 " transform="matrix(1.125,0,0,1.125,0,0)"/>
<path style="fill-rule:nonzero;fill:rgb(100%,16.470588%,49.803922%);fill-opacity:1;stroke-width:0.132;stroke-linecap:round;stroke-linejoin:round;stroke:url(#linear1);stroke-miterlimit:4;" d="M 25.777778 16 C 25.777778 18.552083 23.708333 20.618056 21.159722 20.618056 C 18.607639 20.618056 16.541667 18.552083 16.541667 16 C 16.541667 13.447917 18.607639 11.381944 21.159722 11.381944 C 23.708333 11.381944 25.777778 13.447917 25.777778 16 Z M 25.777778 16 " transform="matrix(1.125,0,0,1.125,0,0)"/>
<path style=" stroke:none;fill-rule:nonzero;fill:url(#linear2);" d="M 28.96875 17.902344 C 28.96875 23.957031 23.859375 14.40625 17.804688 14.40625 C 11.75 14.40625 7.03125 23.957031 7.03125 17.902344 C 7.03125 11.847656 11.945312 6.933594 18 6.933594 C 24.054688 6.933594 28.96875 11.847656 28.96875 17.902344 Z M 28.96875 17.902344 "/>
</g>
</svg>
