<?xml version="1.0" encoding="UTF-8"?>
<svg xmlns="http://www.w3.org/2000/svg" xmlns:xlink="http://www.w3.org/1999/xlink" width="36pt" height="36pt" viewBox="0 0 36 36" version="1.1">
<g id="surface1">
<path style=" stroke:none;fill-rule:evenodd;fill:rgb(10.196078%,10.196078%,10.196078%);fill-opacity:1;" d="M 8.40625 2.136719 L 27.59375 2.136719 C 31.054688 2.136719 33.863281 4.945312 33.863281 8.40625 L 33.863281 27.59375 C 33.863281 31.054688 31.054688 33.863281 27.59375 33.863281 L 8.40625 33.863281 C 4.945312 33.863281 2.136719 31.054688 2.136719 27.59375 L 2.136719 8.40625 C 2.136719 4.945312 4.945312 2.136719 8.40625 2.136719 Z M 8.40625 2.136719 "/>
<path style=" stroke:none;fill-rule:nonzero;fill:rgb(100%,100%,100%);fill-opacity:1;" d="M 17.945312 13.710938 C 15.863281 13.742188 14.199219 15.453125 14.230469 17.535156 L 14.230469 27.5625 C 14.230469 29.644531 15.917969 31.332031 18 31.332031 C 20.082031 31.332031 21.769531 29.644531 21.769531 27.5625 L 21.769531 17.535156 C 21.785156 16.515625 21.386719 15.535156 20.664062 14.816406 C 19.945312 14.09375 18.960938 13.695312 17.945312 13.710938 Z M 17.945312 13.710938 "/>
<path style=" stroke:none;fill-rule:nonzero;fill:rgb(53.72549%,77.647059%,14.117647%);fill-opacity:1;" d="M 21.722656 8.390625 C 21.722656 10.445312 20.054688 12.113281 18 12.113281 C 15.945312 12.113281 14.277344 10.445312 14.277344 8.390625 C 14.277344 6.335938 15.945312 4.667969 18 4.667969 C 20.054688 4.667969 21.722656 6.335938 21.722656 8.390625 Z M 21.722656 8.390625 "/>
</g>
</svg>
