<?xml version="1.0" encoding="UTF-8"?>
<svg xmlns="http://www.w3.org/2000/svg" xmlns:xlink="http://www.w3.org/1999/xlink" width="36pt" height="36pt" viewBox="0 0 36 36" version="1.1">
<defs>
<filter id="alpha" filterUnits="objectBoundingBox" x="0%" y="0%" width="100%" height="100%">
  <feColorMatrix type="matrix" in="SourceGraphic" values="0 0 0 0 1 0 0 0 0 1 0 0 0 0 1 0 0 0 1 0"/>
</filter>
<mask id="mask0">
  <g filter="url(#alpha)">
<rect x="0" y="0" width="36" height="36" style="fill:rgb(0%,0%,0%);fill-opacity:0.976471;stroke:none;"/>
  </g>
</mask>
<clipPath id="clip1">
  <rect width="36" height="36"/>
</clipPath>
<g id="surface6" clip-path="url(#clip1)">
<path style=" stroke:none;fill-rule:evenodd;fill:rgb(58.823529%,77.254902%,1.176471%);fill-opacity:1;" d="M 33.832031 28.492188 L 33.015625 26.410156 C 33.015625 26.410156 30.417969 29.113281 30.417969 28.847656 C 30.417969 28.585938 29.855469 26.410156 29.855469 26.410156 L 27.71875 29.046875 L 26.699219 27.464844 L 24.105469 29.179688 L 23.136719 27.003906 L 21.457031 29.511719 L 19.164062 27.003906 L 17.535156 29.640625 L 16.210938 26.871094 L 14.890625 29.574219 L 12.851562 26.804688 L 11.9375 29.90625 L 10.460938 27.070312 L 9.390625 28.847656 L 6.894531 26.542969 C 6.894531 26.542969 6.230469 28.851562 6.128906 29.707031 C 6.078125 30.136719 5.59375 29.078125 5.125 27.917969 C 4.652344 26.753906 4.195312 25.488281 4.195312 25.488281 C 4.195312 25.488281 3.257812 27.6875 2.613281 29.203125 C 3.339844 31.863281 5.664062 33.851562 8.5625 33.851562 L 27.746094 33.851562 C 30.894531 33.851562 33.375 31.511719 33.832031 28.492188 Z M 33.832031 28.492188 "/>
</g>
<mask id="mask1">
  <g filter="url(#alpha)">
<rect x="0" y="0" width="36" height="36" style="fill:rgb(0%,0%,0%);fill-opacity:0.976471;stroke:none;"/>
  </g>
</mask>
<clipPath id="clip2">
  <rect width="36" height="36"/>
</clipPath>
<g id="surface9" clip-path="url(#clip2)">
<path style=" stroke:none;fill-rule:evenodd;fill:rgb(67.843137%,85.882353%,12.156863%);fill-opacity:1;" d="M 33.882812 26.488281 C 33.167969 27.625 32.59375 28.988281 32.140625 30.539062 C 32.261719 28.050781 32.542969 25.632812 32.804688 23.210938 C 32.257812 25.308594 31.742188 27.402344 31.296875 29.484375 C 31.175781 28.871094 31.03125 28.316406 30.890625 27.753906 C 31.015625 26.496094 31.207031 25.441406 31.503906 24.757812 C 31.28125 25.136719 31.085938 25.558594 30.898438 26 C 30.96875 25.355469 31.027344 24.707031 31.097656 24.066406 C 30.894531 24.832031 30.707031 25.59375 30.515625 26.359375 C 30.320312 25.75 30.109375 25.167969 29.867188 24.667969 C 30.078125 25.25 30.210938 26.136719 30.316406 27.144531 C 30.125 27.945312 29.945312 28.742188 29.769531 29.539062 C 29.605469 28.910156 29.421875 28.285156 29.246094 27.65625 C 29.386719 26.050781 29.5625 24.457031 29.734375 22.867188 C 29.433594 24.019531 29.148438 25.167969 28.871094 26.316406 C 28.578125 25.3125 28.273438 24.308594 27.957031 23.300781 C 28.070312 24.15625 28.1875 25.011719 28.296875 25.867188 C 28.25 25.757812 28.203125 25.632812 28.152344 25.523438 C 28.238281 25.757812 28.296875 26.101562 28.363281 26.410156 C 28.421875 26.882812 28.472656 27.359375 28.527344 27.832031 C 28.503906 27.929688 28.480469 28.027344 28.460938 28.125 C 28.265625 27.632812 28.058594 27.160156 27.824219 26.742188 C 28.035156 27.25 28.183594 27.972656 28.304688 28.796875 C 28.28125 28.910156 28.25 29.027344 28.226562 29.136719 C 27.859375 27.285156 27.421875 25.601562 26.796875 24.324219 C 27.265625 25.617188 27.433594 28.117188 27.453125 31.21875 C 27.25 30.460938 27.035156 29.722656 26.777344 29.066406 C 26.628906 28.570312 26.5 28.074219 26.347656 27.578125 C 26.523438 27.101562 26.695312 26.632812 26.917969 26.148438 C 26.703125 26.515625 26.46875 26.867188 26.238281 27.214844 C 26.113281 26.8125 26.011719 26.414062 25.882812 26.011719 C 25.949219 26.5 26.011719 26.988281 26.078125 27.476562 C 25.90625 27.734375 25.738281 27.996094 25.574219 28.261719 C 25.332031 27.582031 25.0625 26.949219 24.753906 26.394531 C 24.992188 26.972656 25.160156 27.785156 25.285156 28.761719 C 25.175781 28.953125 25.0625 29.144531 24.957031 29.34375 C 24.6875 29.585938 24.453125 29.902344 24.226562 30.242188 C 24.066406 30.101562 23.902344 29.96875 23.726562 29.851562 C 23.699219 29.867188 23.675781 29.894531 23.648438 29.910156 C 23.625 29.882812 23.601562 29.851562 23.578125 29.820312 C 23.730469 28.753906 23.910156 27.753906 24.171875 26.96875 C 23.789062 27.632812 23.457031 28.410156 23.164062 29.269531 C 22.929688 28.824219 22.679688 28.398438 22.414062 27.996094 C 22.429688 27.945312 22.441406 27.875 22.457031 27.824219 C 22.433594 27.867188 22.410156 27.917969 22.386719 27.960938 C 21.929688 27.273438 21.4375 26.632812 20.867188 26.082031 C 20.960938 26.242188 21 26.484375 21.082031 26.65625 C 21.089844 26.648438 21.09375 26.636719 21.101562 26.625 C 21.097656 26.636719 21.09375 26.65625 21.089844 26.671875 C 21.410156 27.347656 21.707031 28.0625 21.925781 28.894531 C 21.90625 28.933594 21.890625 28.976562 21.871094 29.015625 C 21.777344 29.101562 21.6875 29.207031 21.597656 29.308594 C 21.375 28.648438 21.140625 28.019531 20.914062 27.371094 C 20.972656 27.140625 21.023438 26.882812 21.089844 26.671875 C 21.085938 26.667969 21.085938 26.664062 21.082031 26.65625 C 20.996094 26.8125 20.921875 26.984375 20.839844 27.148438 C 20.824219 27.109375 20.8125 27.078125 20.800781 27.039062 C 20.808594 27.082031 20.816406 27.125 20.828125 27.167969 C 20.652344 27.519531 20.492188 27.890625 20.335938 28.285156 C 20.320312 27.199219 20.324219 26.210938 20.519531 25.5625 C 20.039062 26.546875 19.886719 28.144531 19.675781 29.558594 C 19.476562 29.007812 19.273438 28.464844 19.085938 27.894531 C 19.261719 28.578125 19.414062 29.257812 19.539062 29.925781 C 19.355469 30.1875 19.183594 30.480469 19.035156 30.804688 C 18.914062 30.253906 18.777344 29.734375 18.625 29.257812 C 18.605469 28.121094 18.605469 27.089844 18.808594 26.414062 C 18.566406 26.90625 18.40625 27.558594 18.28125 28.261719 C 18.097656 27.746094 17.90625 27.230469 17.730469 26.691406 C 17.914062 27.414062 18.070312 28.125 18.199219 28.828125 C 18.113281 29.382812 18.03125 29.9375 17.949219 30.480469 C 17.769531 30.09375 17.554688 29.726562 17.289062 29.261719 C 17.265625 27.609375 17.179688 26.121094 17.449219 25.214844 C 17.121094 25.886719 16.957031 26.855469 16.8125 27.847656 C 16.710938 27.320312 16.601562 26.804688 16.445312 26.351562 C 16.484375 26.265625 16.519531 26.167969 16.558594 26.082031 C 16.507812 26.144531 16.464844 26.21875 16.414062 26.28125 C 16.324219 26.019531 16.222656 25.773438 16.097656 25.5625 C 16.191406 25.816406 16.25 26.121094 16.285156 26.457031 C 16.089844 26.707031 15.890625 26.953125 15.710938 27.230469 C 15.730469 27.167969 15.742188 27.105469 15.761719 27.039062 C 15.707031 27.179688 15.648438 27.3125 15.589844 27.449219 C 15.203125 28.078125 14.859375 28.769531 14.550781 29.507812 C 14.441406 29.324219 14.3125 29.082031 14.175781 28.835938 C 14.363281 28.136719 14.578125 27.488281 14.847656 26.9375 C 14.496094 27.347656 14.183594 27.8125 13.882812 28.300781 C 13.867188 28.273438 13.859375 28.265625 13.847656 28.238281 C 13.859375 28.265625 13.863281 28.285156 13.875 28.316406 C 13.644531 28.6875 13.421875 29.078125 13.21875 29.496094 C 13.050781 29.078125 12.855469 28.707031 12.664062 28.328125 C 12.882812 27.363281 13.136719 26.457031 13.492188 25.738281 C 13.035156 26.265625 12.640625 26.886719 12.269531 27.542969 C 12.257812 27.523438 12.25 27.496094 12.238281 27.476562 C 12.292969 26.988281 12.347656 26.5 12.402344 26.011719 C 12.296875 26.414062 12.207031 26.8125 12.101562 27.214844 C 11.910156 26.867188 11.71875 26.515625 11.539062 26.148438 C 11.699219 26.566406 11.824219 26.976562 11.949219 27.386719 C 11.867188 27.25 11.789062 27.097656 11.699219 26.96875 C 11.800781 27.21875 11.867188 27.539062 11.953125 27.824219 C 11.902344 28.019531 11.863281 28.210938 11.816406 28.40625 C 11.613281 28.839844 11.417969 29.285156 11.238281 29.757812 C 11.011719 29.269531 10.777344 28.789062 10.527344 28.328125 C 10.582031 27.84375 10.636719 27.351562 10.6875 26.863281 C 10.582031 27.265625 10.496094 27.667969 10.394531 28.070312 C 10.335938 27.964844 10.28125 27.855469 10.222656 27.746094 C 10.363281 26.261719 10.519531 24.777344 10.679688 23.300781 C 10.277344 24.835938 9.902344 26.367188 9.550781 27.898438 C 9.421875 27.644531 9.304688 27.375 9.171875 27.128906 C 9.226562 26.644531 9.277344 26.152344 9.332031 25.664062 C 9.226562 26.066406 9.136719 26.46875 9.035156 26.871094 C 8.9375 26.691406 8.839844 26.503906 8.742188 26.320312 C 8.820312 25.601562 8.886719 24.875 8.964844 24.15625 C 8.8125 24.742188 8.671875 25.324219 8.523438 25.910156 C 8.507812 25.875 8.488281 25.839844 8.46875 25.804688 C 8.488281 25.851562 8.5 25.898438 8.515625 25.945312 C 8.472656 26.113281 8.429688 26.28125 8.386719 26.453125 C 8.191406 25.839844 7.980469 25.261719 7.734375 24.757812 C 7.949219 25.34375 8.082031 26.230469 8.1875 27.242188 C 7.929688 28.308594 7.683594 29.367188 7.457031 30.425781 C 7.332031 29.792969 7.183594 29.222656 7.035156 28.636719 C 7.078125 28.101562 7.136719 27.574219 7.1875 27.042969 C 7.226562 26.953125 7.253906 26.824219 7.296875 26.742188 C 7.265625 26.789062 7.238281 26.847656 7.203125 26.898438 C 7.332031 25.582031 7.464844 24.265625 7.609375 22.957031 C 7.25 24.328125 6.914062 25.695312 6.59375 27.0625 C 6.417969 26.542969 6.234375 26.046875 6.023438 25.613281 C 6.210938 26.125 6.339844 26.882812 6.441406 27.730469 C 6.429688 27.785156 6.417969 27.835938 6.40625 27.886719 C 6.179688 27.28125 5.941406 26.707031 5.660156 26.203125 C 5.910156 26.8125 6.074219 27.738281 6.199219 28.792969 C 6.191406 28.835938 6.179688 28.882812 6.167969 28.925781 C 6.140625 29 6.113281 29.082031 6.082031 29.15625 C 5.75 27.484375 5.347656 25.964844 4.808594 24.753906 C 4.820312 24.726562 4.828125 24.695312 4.839844 24.667969 C 4.828125 24.691406 4.816406 24.714844 4.804688 24.738281 C 4.757812 24.632812 4.714844 24.515625 4.667969 24.414062 C 4.707031 24.523438 4.726562 24.699219 4.761719 24.820312 C 4.253906 25.71875 3.867188 26.84375 3.523438 28.042969 C 3.253906 27.238281 2.945312 26.496094 2.589844 25.855469 C 2.898438 26.597656 3.085938 27.753906 3.210938 29.140625 C 3.183594 29.261719 3.144531 29.363281 3.117188 29.484375 C 2.832031 28.382812 2.476562 27.273438 2.152344 26.164062 C 1.652344 31.441406 5 34.035156 9.152344 33.847656 C 11.625 33.914062 18.640625 33.851562 21.523438 33.851562 C 21.578125 33.261719 21.617188 32.636719 21.679688 32.074219 C 21.746094 32.671875 21.777344 33.261719 21.824219 33.851562 L 25.140625 33.851562 L 25.375 33.667969 C 25.40625 33.730469 25.433594 33.789062 25.464844 33.851562 L 27.609375 33.851562 C 30.085938 33.851562 32.246094 32.523438 33.269531 30.300781 C 33.292969 29.988281 33.238281 29.550781 33.269531 29.265625 C 33.394531 28.179688 33.621094 27.398438 33.882812 26.71875 Z M 8.722656 26.558594 C 8.792969 26.78125 8.875 27.007812 8.945312 27.230469 C 8.886719 27.460938 8.835938 27.6875 8.78125 27.917969 C 8.734375 27.722656 8.691406 27.515625 8.640625 27.328125 C 8.667969 27.070312 8.691406 26.8125 8.722656 26.558594 Z M 16.296875 26.714844 C 16.371094 27.800781 16.277344 29.195312 16.304688 30.695312 C 16.261719 30.851562 16.214844 31.007812 16.160156 31.144531 C 15.976562 30.785156 15.738281 30.414062 15.460938 29.90625 C 15.671875 28.714844 15.9375 27.632812 16.296875 26.714844 Z M 20.894531 27.464844 C 21.070312 28.191406 21.214844 28.90625 21.335938 29.617188 C 21.039062 30.023438 20.765625 30.488281 20.492188 30.945312 C 20.800781 30.679688 21.105469 30.355469 21.414062 30.082031 C 21.417969 30.117188 21.425781 30.148438 21.429688 30.183594 C 21.117188 31.109375 20.851562 32.132812 20.621094 33.246094 C 20.546875 32.65625 20.4375 32.128906 20.320312 31.640625 C 20.339844 31.257812 20.351562 30.882812 20.351562 30.507812 C 20.488281 29.367188 20.671875 28.359375 20.894531 27.464844 Z M 9.105469 27.71875 C 9.203125 28.058594 9.28125 28.394531 9.363281 28.734375 C 9.300781 29.015625 9.230469 29.292969 9.171875 29.574219 C 9.121094 29.320312 9.054688 29.097656 9.003906 28.851562 C 9.042969 28.476562 9.0625 28.09375 9.105469 27.71875 Z M 26.15625 28.0625 C 26.234375 28.648438 26.304688 29.238281 26.375 29.828125 C 26.226562 29.664062 26.074219 29.507812 25.914062 29.363281 C 25.886719 29.277344 25.863281 29.1875 25.835938 29.105469 C 25.9375 28.757812 26.035156 28.414062 26.15625 28.0625 Z M 10.1875 28.085938 C 10.222656 28.199219 10.265625 28.316406 10.300781 28.429688 C 10.253906 28.621094 10.210938 28.8125 10.164062 29.003906 C 10.148438 29.015625 10.128906 29.03125 10.113281 29.039062 C 10.109375 29.03125 10.105469 29.023438 10.101562 29.019531 C 10.125 28.707031 10.160156 28.398438 10.1875 28.085938 Z M 10.460938 28.917969 C 10.492188 29.019531 10.511719 29.117188 10.539062 29.21875 C 10.507812 29.199219 10.472656 29.175781 10.4375 29.160156 C 10.449219 29.078125 10.453125 28.996094 10.460938 28.917969 Z M 14.117188 29.09375 C 14.203125 29.367188 14.3125 29.667969 14.375 29.910156 C 14.175781 30.421875 13.996094 30.949219 13.824219 31.503906 C 13.792969 31.335938 13.746094 31.195312 13.707031 31.035156 C 13.820312 30.351562 13.960938 29.707031 14.117188 29.09375 Z M 12.382812 29.613281 C 12.460938 30.042969 12.542969 30.460938 12.609375 30.921875 C 12.433594 31.386719 12.265625 31.859375 12.113281 32.359375 C 12.089844 32.246094 12.054688 32.148438 12.03125 32.039062 C 12.074219 31.710938 12.121094 31.402344 12.167969 31.082031 C 12.253906 31.152344 12.34375 31.230469 12.433594 31.292969 C 12.351562 31.183594 12.265625 31.078125 12.183594 30.964844 C 12.246094 30.511719 12.304688 30.046875 12.382812 29.613281 Z M 22.117188 29.628906 C 22.117188 29.628906 22.117188 29.632812 22.121094 29.636719 C 22.238281 30.148438 22.339844 30.6875 22.433594 31.234375 C 22.351562 31.359375 22.273438 31.484375 22.191406 31.613281 C 22.109375 31.167969 22.019531 30.738281 21.910156 30.347656 C 21.945312 30.132812 21.972656 29.890625 22.011719 29.683594 C 22.046875 29.667969 22.082031 29.640625 22.117188 29.628906 Z M 17.289062 29.769531 C 17.476562 30.40625 17.609375 30.992188 17.671875 31.519531 C 17.515625 31.183594 17.382812 30.789062 17.28125 30.34375 C 17.285156 30.152344 17.289062 29.957031 17.289062 29.769531 Z M 10.480469 29.972656 C 10.574219 30 10.667969 30.050781 10.761719 30.09375 C 10.808594 30.304688 10.859375 30.515625 10.902344 30.726562 C 10.855469 30.871094 10.800781 31.007812 10.753906 31.15625 C 10.675781 30.738281 10.574219 30.351562 10.460938 29.988281 C 10.46875 29.984375 10.472656 29.976562 10.480469 29.972656 Z M 15.425781 30.132812 C 15.617188 30.714844 15.769531 31.257812 15.859375 31.730469 C 15.738281 31.882812 15.605469 32 15.445312 32.0625 C 15.378906 31.722656 15.320312 31.523438 15.261719 31.277344 C 15.3125 30.894531 15.363281 30.503906 15.425781 30.132812 Z M 24.496094 30.410156 C 24.488281 30.433594 24.480469 30.464844 24.472656 30.488281 C 24.464844 30.476562 24.453125 30.46875 24.441406 30.457031 C 24.460938 30.441406 24.480469 30.425781 24.496094 30.410156 Z M 25.457031 30.59375 C 25.476562 30.960938 25.488281 31.367188 25.503906 31.765625 C 25.429688 31.65625 25.351562 31.5625 25.273438 31.457031 C 25.328125 31.171875 25.390625 30.882812 25.457031 30.59375 Z M 22.488281 31.539062 C 22.492188 31.574219 22.496094 31.609375 22.503906 31.648438 C 22.445312 31.898438 22.382812 32.132812 22.332031 32.390625 C 22.304688 32.171875 22.257812 31.996094 22.222656 31.792969 C 22.3125 31.707031 22.398438 31.625 22.488281 31.539062 Z M 26.511719 31.683594 C 26.53125 31.726562 26.558594 31.761719 26.582031 31.804688 C 26.597656 31.949219 26.609375 32.085938 26.621094 32.226562 C 26.585938 32.046875 26.550781 31.863281 26.511719 31.683594 Z M 18.632812 31.953125 C 18.632812 31.964844 18.632812 31.976562 18.636719 31.988281 C 18.632812 31.992188 18.632812 31.996094 18.632812 32 C 18.632812 31.984375 18.632812 31.96875 18.632812 31.953125 Z M 18.632812 31.953125 "/>
</g>
<mask id="mask2">
  <g filter="url(#alpha)">
<rect x="0" y="0" width="36" height="36" style="fill:rgb(0%,0%,0%);fill-opacity:0.976471;stroke:none;"/>
  </g>
</mask>
<clipPath id="clip3">
  <rect width="36" height="36"/>
</clipPath>
<g id="surface12" clip-path="url(#clip3)">
<path style=" stroke:none;fill-rule:evenodd;fill:rgb(45.098039%,62.745098%,4.705882%);fill-opacity:1;" d="M 4.003906 23.644531 C 4.320312 26.589844 4.582031 29.5625 4.625 32.640625 C 5.136719 32.988281 5.667969 33.28125 6.277344 33.472656 C 6.261719 31.667969 6.277344 29.972656 6.367188 28.589844 C 6.464844 27.082031 6.640625 25.882812 6.921875 25.105469 C 6.300781 26.386719 5.863281 28.078125 5.5 29.933594 C 5.058594 27.847656 4.546875 25.75 4.003906 23.644531 Z M 25.953125 23.734375 C 26.308594 27.050781 26.699219 30.351562 26.65625 33.851562 L 27.6875 33.851562 C 27.875 33.851562 28.0625 33.839844 28.246094 33.824219 C 28.230469 31.921875 28.222656 30.09375 28.320312 28.648438 C 28.421875 27.15625 28.59375 25.96875 28.871094 25.195312 C 28.253906 26.476562 27.8125 28.167969 27.449219 30.023438 C 27.007812 27.9375 26.496094 25.839844 25.953125 23.734375 Z M 16.191406 26 C 16.425781 26.796875 16.398438 28.007812 16.375 29.40625 C 16.351562 30.78125 16.34375 32.339844 16.589844 33.851562 L 18.875 33.851562 C 18.902344 33.113281 18.929688 32.429688 19.042969 31.683594 C 19.160156 30.914062 19.371094 30.074219 19.765625 29.03125 C 19.355469 29.875 19.066406 30.257812 18.828125 30.722656 C 18.585938 31.183594 18.394531 31.722656 18.179688 32.867188 C 17.835938 32.730469 17.601562 32.355469 17.421875 31.839844 C 17.246094 31.324219 17.128906 30.667969 17.023438 29.964844 C 16.816406 28.558594 16.660156 26.976562 16.191406 26 Z M 24.246094 26.453125 C 24.296875 26.941406 24.351562 27.433594 24.40625 27.921875 C 23.773438 29.097656 23.148438 30.289062 22.835938 31.960938 C 22.503906 30.871094 22.121094 29.859375 21.671875 28.945312 C 21.222656 28.03125 20.710938 27.21875 20.117188 26.523438 C 20.554688 27.425781 20.867188 28.558594 21.109375 29.828125 C 21.351562 31.074219 21.519531 32.449219 21.679688 33.851562 L 25.964844 33.851562 C 25.578125 31.917969 25.121094 29.972656 24.628906 28.023438 C 24.773438 27.546875 24.914062 27.074219 25.097656 26.589844 C 24.917969 26.957031 24.730469 27.308594 24.539062 27.660156 C 24.4375 27.257812 24.351562 26.855469 24.246094 26.453125 Z M 30.933594 26.644531 C 30.425781 27.5625 30.019531 28.675781 29.675781 29.910156 C 29.351562 31.054688 29.105469 32.4375 28.863281 33.738281 C 29.308594 33.652344 29.769531 33.527344 30.179688 33.359375 C 30.199219 31.96875 30.238281 30.644531 30.34375 29.566406 C 30.464844 28.324219 30.65625 27.324219 30.933594 26.644531 Z M 8.945312 27.183594 C 8.472656 28.042969 8.089844 29.074219 7.761719 30.21875 C 7.457031 31.265625 7.167969 32.480469 6.9375 33.667969 C 7.34375 33.75 7.765625 33.851562 8.199219 33.851562 L 9.386719 33.851562 C 9.703125 33.203125 10.003906 32.527344 10.339844 31.925781 C 10.691406 31.304688 11.078125 30.765625 11.5625 30.425781 C 12.128906 30.601562 12.640625 31.285156 13.171875 31.75 C 12.621094 30.820312 12.089844 29.835938 11.3125 29.449219 C 10.644531 29.902344 10.105469 30.550781 9.609375 31.269531 C 9.113281 31.988281 8.660156 32.773438 8.167969 33.496094 C 8.222656 30.660156 8.441406 28.417969 8.945312 27.183594 Z M 12.570312 27.414062 C 13.089844 29.015625 13.347656 31.355469 13.546875 33.851562 L 14.921875 33.851562 C 15.085938 31.785156 15.355469 29.683594 15.914062 27.480469 C 15.363281 29.167969 14.683594 30.5625 14.394531 32.851562 C 13.949219 30.671875 13.367188 28.804688 12.570312 27.414062 Z M 12.570312 27.414062 "/>
</g>
<mask id="mask3">
  <g filter="url(#alpha)">
<rect x="0" y="0" width="36" height="36" style="fill:rgb(0%,0%,0%);fill-opacity:0.976471;stroke:none;"/>
  </g>
</mask>
<clipPath id="clip4">
  <rect width="36" height="36"/>
</clipPath>
<g id="surface15" clip-path="url(#clip4)">
<path style=" stroke:none;fill-rule:evenodd;fill:rgb(30.196078%,51.372549%,1.568627%);fill-opacity:1;" d="M 8.246094 25.753906 C 7.640625 27.441406 7.070312 29.128906 6.578125 30.804688 C 6.175781 29.3125 5.6875 27.957031 4.996094 26.929688 C 5.304688 27.546875 5.5 28.5 5.609375 29.695312 C 5.703125 30.671875 5.65625 31.980469 5.65625 33.230469 C 6.199219 33.503906 6.855469 33.671875 7.476562 33.773438 C 7.457031 31.046875 7.859375 28.34375 8.246094 25.753906 Z M 29.425781 26.855469 C 29.734375 27.480469 29.929688 28.441406 30.039062 29.652344 C 30.136719 30.695312 30.1875 32.007812 30.179688 33.359375 C 30.652344 33.15625 31.066406 32.886719 31.472656 32.578125 C 31.285156 31.738281 31.039062 30.785156 30.808594 30.019531 C 30.445312 28.808594 30.003906 27.71875 29.425781 26.855469 Z M 19.109375 27.570312 C 18.585938 28.355469 18.414062 29.628906 18.183594 30.757812 C 18.066406 31.320312 17.9375 31.847656 17.738281 32.261719 C 17.542969 32.679688 17.277344 32.980469 16.894531 33.085938 C 16.65625 32.167969 16.445312 31.738281 16.175781 31.367188 C 15.910156 30.996094 15.589844 30.6875 15.132812 30.007812 C 15.582031 30.863281 15.8125 31.523438 15.941406 32.128906 C 16.0625 32.710938 16.089844 33.246094 16.121094 33.851562 L 18.667969 33.851562 C 18.9375 32.644531 18.929688 31.402344 18.90625 30.300781 C 18.878906 29.179688 18.847656 28.210938 19.109375 27.570312 Z M 10.144531 27.9375 C 10.027344 28.261719 9.929688 28.582031 9.816406 28.90625 C 9.605469 28.625 9.394531 28.34375 9.195312 28.050781 C 9.398438 28.4375 9.558594 28.816406 9.71875 29.199219 C 9.179688 30.742188 8.636719 32.308594 8.207031 33.839844 C 8.285156 33.839844 8.394531 33.851562 8.472656 33.851562 L 13.007812 33.851562 C 13.183594 32.734375 13.371094 31.632812 13.636719 30.640625 C 13.90625 29.625 14.253906 28.714844 14.738281 27.992188 C 14.082031 28.550781 13.511719 29.203125 13.011719 29.9375 C 12.511719 30.671875 12.085938 31.484375 11.714844 32.359375 C 11.367188 31.019531 10.671875 30.0625 9.96875 29.117188 C 10.027344 28.722656 10.085938 28.332031 10.144531 27.9375 Z M 2.707031 28.089844 C 3.015625 28.636719 3.222656 29.4375 3.359375 30.429688 C 3.386719 30.613281 3.390625 31.273438 3.414062 31.46875 C 3.765625 31.980469 4.140625 32.253906 4.625 32.640625 C 4.453125 32.0625 4.308594 31.234375 4.101562 30.707031 C 3.71875 29.71875 3.265625 28.828125 2.707031 28.089844 Z M 27.171875 28.527344 C 27.453125 29.019531 27.652344 29.71875 27.789062 30.574219 C 27.929688 31.433594 28.003906 32.457031 28.035156 33.59375 C 27.488281 33.011719 26.984375 32.382812 26.433594 31.804688 C 25.878906 31.230469 25.28125 30.710938 24.539062 30.34375 C 23.671875 30.65625 23.082031 31.445312 22.464844 32.191406 C 23.058594 31.816406 23.632812 31.269531 24.257812 31.128906 C 24.796875 31.398438 25.226562 31.828125 25.613281 32.324219 C 25.980469 32.800781 26.3125 33.339844 26.65625 33.851562 L 27.65625 33.851562 C 28.242188 33.851562 28.847656 33.785156 29.386719 33.636719 C 29.140625 32.742188 28.804688 31.746094 28.488281 30.953125 C 28.125 30.039062 27.695312 29.214844 27.171875 28.527344 Z M 23.136719 28.707031 C 22.253906 29.824219 21.601562 31.324219 21.109375 33.074219 C 20.785156 31.234375 20.03125 30.117188 19.414062 28.761719 C 20.035156 30.519531 20.335938 32.203125 20.519531 33.851562 L 22.050781 33.851562 C 22.277344 31.859375 22.5625 29.988281 23.136719 28.707031 Z M 23.136719 28.707031 "/>
</g>
<clipPath id="clip5">
  <rect width="36" height="36"/>
</clipPath>
<g id="surface18" clip-path="url(#clip5)">
<path style=" stroke:none;fill-rule:evenodd;fill:rgb(100%,100%,100%);fill-opacity:1;" d="M 25.226562 6.605469 C 27.695312 6.605469 29.699219 8.609375 29.699219 11.078125 C 29.699219 13.550781 27.695312 15.550781 25.226562 15.550781 C 22.757812 15.550781 20.753906 13.550781 20.753906 11.078125 C 20.753906 8.609375 22.757812 6.605469 25.226562 6.605469 Z M 25.226562 6.605469 "/>
</g>
</defs>
<g id="surface1">
<path style=" stroke:none;fill-rule:evenodd;fill:rgb(63.921569%,85.490196%,100%);fill-opacity:1;" d="M 8.441406 2.121094 L 27.625 2.121094 C 31.089844 2.121094 33.894531 4.929688 33.894531 8.394531 L 33.894531 27.578125 C 33.894531 31.042969 31.089844 33.851562 27.625 33.851562 L 8.441406 33.851562 C 4.976562 33.851562 2.167969 31.042969 2.167969 27.578125 L 2.167969 8.394531 C 2.167969 4.929688 4.976562 2.121094 8.441406 2.121094 Z M 8.441406 2.121094 "/>
<use xlink:href="#surface6" mask="url(#mask0)"/>
<use xlink:href="#surface9" mask="url(#mask1)"/>
<use xlink:href="#surface12" mask="url(#mask2)"/>
<use xlink:href="#surface15" mask="url(#mask3)"/>
<path style=" stroke:none;fill-rule:nonzero;fill:rgb(45.098039%,62.745098%,4.705882%);fill-opacity:1;" d="M 8.417969 27.347656 C 8.933594 28.964844 9.1875 31.328125 9.386719 33.851562 L 10.71875 33.851562 C 10.878906 31.765625 11.152344 29.640625 11.707031 27.417969 C 11.164062 29.101562 10.496094 30.496094 10.210938 32.785156 C 9.773438 30.605469 9.199219 28.738281 8.417969 27.347656 Z M 8.417969 27.347656 "/>
<use xlink:href="#surface18"/>
</g>
</svg>
