<?xml version="1.0" encoding="UTF-8"?>
<svg xmlns="http://www.w3.org/2000/svg" xmlns:xlink="http://www.w3.org/1999/xlink" width="36pt" height="36pt" viewBox="0 0 36 36" version="1.1">
<g id="surface1">
<path style=" stroke:none;fill-rule:evenodd;fill:rgb(36.862745%,36.862745%,36.862745%);fill-opacity:1;" d="M 8.40625 2.136719 L 27.59375 2.136719 C 31.054688 2.136719 33.863281 4.945312 33.863281 8.40625 L 33.863281 27.59375 C 33.863281 31.054688 31.054688 33.863281 27.59375 33.863281 L 8.40625 33.863281 C 4.945312 33.863281 2.136719 31.054688 2.136719 27.59375 L 2.136719 8.40625 C 2.136719 4.945312 4.945312 2.136719 8.40625 2.136719 Z M 8.40625 2.136719 "/>
<path style=" stroke:none;fill-rule:nonzero;fill:rgb(30.980392%,30.980392%,30.980392%);fill-opacity:1;" d="M 18 6.75 C 11.785156 6.75 6.75 11.785156 6.75 18 C 6.75 24.214844 11.785156 29.25 18 29.25 C 24.214844 29.25 29.25 24.214844 29.25 18 C 29.25 11.785156 24.214844 6.75 18 6.75 Z M 18 6.75 "/>
<path style=" stroke:none;fill-rule:nonzero;fill:rgb(99.607843%,75.294118%,2.352941%);fill-opacity:1;" d="M 18 9 C 13.03125 9 9 13.03125 9 18 C 9 22.96875 13.03125 27 18 27 C 22.96875 27 27 22.96875 27 18 C 27 13.03125 22.96875 9 18 9 Z M 18 9 "/>
<path style=" stroke:none;fill-rule:nonzero;fill:rgb(30.980392%,30.980392%,30.980392%);fill-opacity:1;" d="M 18 13.5 C 15.515625 13.5 13.5 15.515625 13.5 18 C 13.5 20.484375 15.515625 22.5 18 22.5 C 20.484375 22.5 22.5 20.484375 22.5 18 C 22.5 15.515625 20.484375 13.5 18 13.5 Z M 18 13.5 "/>
</g>
</svg>
