<?xml version="1.0" encoding="UTF-8"?>
<svg xmlns="http://www.w3.org/2000/svg" xmlns:xlink="http://www.w3.org/1999/xlink" width="36pt" height="36pt" viewBox="0 0 36 36" version="1.1">
<defs>
<filter id="alpha" filterUnits="objectBoundingBox" x="0%" y="0%" width="100%" height="100%">
  <feColorMatrix type="matrix" in="SourceGraphic" values="0 0 0 0 1 0 0 0 0 1 0 0 0 0 1 0 0 0 1 0"/>
</filter>
<mask id="mask0">
  <g filter="url(#alpha)">
<rect x="0" y="0" width="36" height="36" style="fill:rgb(0%,0%,0%);fill-opacity:0.101961;stroke:none;"/>
  </g>
</mask>
<clipPath id="clip1">
  <rect width="36" height="36"/>
</clipPath>
<g id="surface6" clip-path="url(#clip1)">
<path style=" stroke:none;fill-rule:nonzero;fill:rgb(100%,100%,100%);fill-opacity:1;" d="M 18 2.25 C 9.273438 2.25 2.25 9.273438 2.25 18 C 2.25 18.191406 2.273438 18.375 2.277344 18.5625 C 2.574219 10.101562 9.464844 3.375 18 3.375 C 26.535156 3.375 33.425781 10.101562 33.722656 18.5625 C 33.730469 18.375 33.75 18.191406 33.75 18 C 33.75 9.273438 26.726562 2.25 18 2.25 Z M 18 2.25 "/>
</g>
</defs>
<g id="surface1">
<use xlink:href="#surface6" mask="url(#mask0)"/>
<path style=" stroke:none;fill-rule:evenodd;fill:rgb(99.607843%,30.196078%,21.960784%);fill-opacity:1;" d="M 8.40625 2.136719 L 27.59375 2.136719 C 31.054688 2.136719 33.863281 4.945312 33.863281 8.40625 L 33.863281 27.59375 C 33.863281 31.054688 31.054688 33.863281 27.59375 33.863281 L 8.40625 33.863281 C 4.945312 33.863281 2.136719 31.054688 2.136719 27.59375 L 2.136719 8.40625 C 2.136719 4.945312 4.945312 2.136719 8.40625 2.136719 Z M 8.40625 2.136719 "/>
<path style=" stroke:none;fill-rule:nonzero;fill:rgb(100%,100%,100%);fill-opacity:1;" d="M 30.175781 18 C 30.175781 11.277344 24.722656 5.824219 18 5.824219 C 11.277344 5.824219 5.824219 11.277344 5.824219 18 C 5.824219 24.722656 11.277344 30.175781 18 30.175781 C 24.722656 30.175781 30.175781 24.722656 30.175781 18 Z M 30.175781 18 "/>
<path style=" stroke:none;fill-rule:nonzero;fill:rgb(24.705882%,24.705882%,24.705882%);fill-opacity:1;" d="M 11.285156 21.480469 C 12.671875 24.167969 15.230469 25.824219 18.003906 25.828125 C 20.773438 25.824219 23.332031 24.164062 24.714844 21.480469 C 25.960938 19.066406 22.199219 18.871094 18 18.871094 C 13.800781 18.871094 10.039062 19.066406 11.285156 21.480469 Z M 11.285156 21.480469 "/>
<path style=" stroke:none;fill-rule:nonzero;fill:rgb(24.705882%,24.705882%,24.705882%);fill-opacity:1;" d="M 15.390625 13.214844 C 15.390625 12.015625 14.613281 11.042969 13.652344 11.042969 C 12.691406 11.042969 11.914062 12.015625 11.914062 13.214844 C 11.914062 14.417969 12.691406 15.390625 13.652344 15.390625 C 14.613281 15.390625 15.390625 14.417969 15.390625 13.214844 Z M 15.390625 13.214844 "/>
<path style=" stroke:none;fill-rule:nonzero;fill:rgb(24.705882%,24.705882%,24.705882%);fill-opacity:1;" d="M 24.085938 13.214844 C 24.085938 12.015625 23.308594 11.042969 22.347656 11.042969 C 21.386719 11.042969 20.609375 12.015625 20.609375 13.214844 C 20.609375 14.417969 21.386719 15.390625 22.347656 15.390625 C 23.308594 15.390625 24.085938 14.417969 24.085938 13.214844 Z M 24.085938 13.214844 "/>
</g>
</svg>
