<?xml version="1.0" encoding="UTF-8"?>
<svg xmlns="http://www.w3.org/2000/svg" xmlns:xlink="http://www.w3.org/1999/xlink" width="36pt" height="36pt" viewBox="0 0 36 36" version="1.1">
<g id="surface1">
<path style=" stroke:none;fill-rule:evenodd;fill:rgb(0%,40%,76.862745%);fill-opacity:1;" d="M 8.789062 1.464844 L 27.210938 1.464844 C 30.824219 1.464844 33.75 4.390625 33.75 8 L 33.75 28 C 33.75 31.609375 30.824219 34.535156 27.210938 34.535156 L 8.789062 34.535156 C 5.175781 34.535156 2.25 31.609375 2.25 28 L 2.25 8 C 2.25 4.390625 5.175781 1.464844 8.789062 1.464844 Z M 8.789062 1.464844 "/>
<path style=" stroke:none;fill-rule:nonzero;fill:rgb(32.156863%,65.882353%,91.764706%);fill-opacity:1;" d="M 16.230469 29.972656 C 12.621094 28.003906 15.105469 27.820312 13.691406 26.992188 L 13.488281 26.570312 L 13.894531 25.289062 L 14.300781 25.078125 L 14.710938 24.863281 L 14.710938 23.574219 L 15.121094 23.359375 L 15.535156 23.140625 L 15.535156 22.277344 L 16.347656 21.847656 L 16.753906 20.558594 L 16.347656 19.699219 L 15.925781 19.472656 C 15.511719 19.253906 15.5 19.246094 15.308594 19.042969 L 15.113281 18.835938 L 14.710938 18.835938 L 14.507812 18.410156 L 14.300781 17.984375 L 13.496094 17.5625 L 12.660156 17.5625 L 12.460938 17.769531 L 12.261719 17.980469 L 12.058594 17.554688 L 11.859375 17.128906 L 11.03125 17.128906 L 10.828125 17.34375 L 10.621094 17.5625 L 9.808594 17.5625 L 9.808594 17.117188 L 9.394531 16.6875 L 9.394531 16.261719 L 8.992188 16.261719 L 8.800781 16.46875 C 8.691406 16.582031 8.597656 16.671875 8.59375 16.671875 C 8.585938 16.671875 8.492188 16.488281 8.386719 16.261719 L 8.191406 15.851562 L 8.398438 15.636719 L 8.601562 15.421875 L 9.785156 15.421875 L 10.203125 15.640625 L 10.617188 15.855469 L 11.453125 14.980469 L 11.652344 14.136719 L 11.851562 13.289062 L 12.265625 12.851562 L 12.683594 12.414062 L 13.886719 12.414062 L 13.886719 11.992188 C 13.886719 11.761719 13.890625 11.570312 13.890625 11.570312 C 13.894531 11.570312 14.171875 11.667969 14.507812 11.785156 L 15.117188 12 L 15.527344 11.570312 L 15.9375 11.136719 L 15.535156 11.136719 L 15.320312 10.6875 C 15.109375 10.25 15.101562 10.234375 14.910156 10.039062 L 14.71875 9.835938 L 14.300781 10.054688 L 13.886719 10.273438 L 12.246094 10.273438 L 12.046875 10.699219 L 11.84375 11.121094 L 11.445312 10.707031 L 11.042969 10.707031 L 11.042969 9.851562 L 12.246094 9.429688 L 12.445312 9.636719 C 12.550781 9.746094 12.65625 9.839844 12.671875 9.839844 C 12.691406 9.839844 12.96875 9.746094 13.289062 9.636719 L 13.875 9.429688 L 14.292969 9.429688 C 14.523438 9.429688 14.710938 9.425781 14.710938 9.417969 C 14.710938 9.414062 14.621094 9.21875 14.511719 8.992188 C 14.320312 8.585938 14.3125 8.570312 14.105469 8.355469 L 13.898438 8.132812 L 13.070312 8.132812 L 12.871094 8.34375 C 12.675781 8.550781 12.664062 8.558594 12.257812 8.769531 L 11.847656 8.984375 L 11.636719 8.765625 C 11.429688 8.554688 11.410156 8.539062 11.042969 8.34375 L 10.664062 8.144531 L 10.457031 8.132812 L 10.253906 8.121094 L 10.449219 7.984375 C 12.035156 6.878906 13.839844 6.222656 15.796875 6.035156 C 16.183594 5.996094 17.246094 5.996094 17.640625 6.03125 C 19.652344 6.21875 21.472656 6.878906 23.0625 8 L 23.269531 8.144531 L 23.273438 8.78125 L 23.28125 9.417969 L 23.480469 9.632812 C 23.679688 9.839844 23.691406 9.847656 24.09375 10.058594 L 24.5 10.277344 L 24.09375 10.707031 L 23.269531 10.707031 L 23.070312 10.917969 L 22.867188 11.128906 L 22.867188 11.96875 L 22.667969 11.757812 L 22.464844 11.546875 L 21.640625 11.546875 L 21.4375 11.980469 L 21.230469 12.414062 L 21.4375 12.847656 L 21.640625 13.28125 L 22.46875 13.28125 L 22.664062 13.074219 C 22.851562 12.871094 22.867188 12.859375 23.28125 12.640625 C 23.695312 12.421875 23.707031 12.414062 23.898438 12.210938 L 24.09375 12.003906 L 24.292969 12.417969 L 24.492188 12.835938 L 24.496094 13.050781 L 24.496094 13.265625 L 24.703125 13.488281 L 24.914062 13.710938 L 25.328125 13.492188 L 25.738281 13.277344 L 25.335938 12.851562 L 24.929688 12.425781 L 25.128906 12.214844 L 25.332031 12.003906 L 25.738281 12.429688 L 26.144531 12.859375 L 26.144531 13.28125 L 26.546875 13.28125 L 26.75 13.496094 L 26.957031 13.710938 L 27.421875 13.710938 L 27.46875 13.84375 C 27.554688 14.078125 27.640625 14.355469 27.71875 14.636719 C 27.761719 14.785156 27.800781 14.925781 27.804688 14.949219 C 27.816406 14.984375 27.789062 14.988281 27.394531 14.988281 L 26.96875 14.988281 L 26.554688 14.773438 L 26.144531 14.554688 L 25.726562 14.773438 C 25.320312 14.984375 25.304688 14.996094 25.109375 15.199219 L 24.90625 15.410156 L 24.515625 15.203125 C 24.132812 15.003906 24.125 14.996094 23.914062 14.777344 L 23.703125 14.554688 L 22.457031 14.554688 L 22.042969 14.769531 L 21.632812 14.988281 L 20.816406 14.988281 L 20.417969 15.410156 L 20.417969 16.707031 L 20.210938 16.925781 L 20.003906 17.140625 L 20.003906 18.414062 L 20.210938 19.066406 L 20.417969 19.714844 L 20.816406 19.925781 L 21.21875 20.136719 L 22.066406 20.136719 L 22.476562 19.917969 L 22.890625 19.703125 L 23.671875 19.703125 L 24.082031 19.917969 L 24.496094 20.136719 L 24.496094 20.980469 L 24.703125 21.414062 L 24.910156 21.851562 L 24.503906 22.28125 L 24.09375 22.710938 L 24.5 23.5625 L 24.90625 24.417969 L 24.90625 25.269531 L 25.160156 25.539062 L 25.414062 25.804688 L 25.359375 25.871094 C 24.847656 26.460938 24.507812 26.8125 24.054688 27.207031 C 22.308594 28.730469 20.199219 29.664062 17.945312 29.917969 C 17.65625 29.949219 16.792969 30 16.664062 29.992188 C 16.632812 29.992188 16.4375 29.984375 16.230469 29.972656 Z M 14.515625 13.496094 L 14.722656 13.277344 L 14.503906 13.058594 L 14.289062 12.835938 L 14.492188 13.058594 L 14.699219 13.28125 L 14.5 13.488281 L 14.296875 13.699219 L 13.875 13.269531 L 14.082031 13.488281 C 14.195312 13.613281 14.292969 13.710938 14.296875 13.710938 C 14.304688 13.710938 14.402344 13.613281 14.515625 13.496094 Z M 15.335938 13.066406 L 15.535156 12.855469 L 15.53125 12.628906 L 15.523438 12.402344 L 15.519531 12.628906 L 15.511719 12.859375 L 15.121094 13.265625 L 14.917969 13.050781 L 14.710938 12.835938 L 14.707031 12.621094 L 14.699219 12.402344 L 14.695312 12.617188 L 14.6875 12.832031 L 14.898438 13.054688 C 15.015625 13.179688 15.117188 13.28125 15.121094 13.28125 C 15.128906 13.28125 15.226562 13.183594 15.335938 13.066406 Z M 21.046875 10.921875 L 21.25 10.707031 L 21.035156 10.484375 L 20.816406 10.261719 L 21.230469 10.707031 L 21.027344 10.917969 L 20.828125 11.125 L 20.4375 10.71875 L 20.433594 10.488281 L 20.429688 10.261719 L 20.414062 10.714844 L 20.617188 10.925781 C 20.726562 11.042969 20.820312 11.136719 20.828125 11.136719 C 20.835938 11.136719 20.933594 11.039062 21.046875 10.921875 Z M 22.097656 11 C 22.117188 10.964844 22.125 10.933594 22.121094 10.933594 C 22.113281 10.933594 22.09375 10.964844 22.078125 11 C 22.058594 11.039062 22.046875 11.070312 22.054688 11.070312 C 22.058594 11.070312 22.078125 11.039062 22.097656 11 Z M 22.226562 10.75 C 22.246094 10.714844 22.257812 10.683594 22.25 10.683594 C 22.246094 10.683594 22.226562 10.714844 22.207031 10.75 C 22.1875 10.789062 22.175781 10.820312 22.183594 10.820312 C 22.191406 10.820312 22.210938 10.789062 22.226562 10.75 Z M 21.457031 10.488281 L 21.253906 10.273438 L 21.644531 9.859375 L 22.039062 10.066406 C 22.257812 10.179688 22.441406 10.273438 22.449219 10.273438 C 22.460938 10.269531 22.28125 10.171875 22.054688 10.054688 L 21.644531 9.835938 L 21.230469 10.273438 L 21.4375 10.488281 C 21.550781 10.609375 21.644531 10.707031 21.652344 10.707031 C 21.660156 10.707031 21.570312 10.609375 21.457031 10.488281 Z M 22.347656 10.523438 C 22.371094 10.472656 22.386719 10.433594 22.378906 10.433594 C 22.375 10.433594 22.351562 10.472656 22.324219 10.523438 C 22.300781 10.574219 22.285156 10.613281 22.292969 10.613281 C 22.296875 10.613281 22.324219 10.574219 22.347656 10.523438 Z M 22.453125 10.304688 C 22.445312 10.300781 22.433594 10.3125 22.425781 10.335938 C 22.414062 10.367188 22.414062 10.371094 22.4375 10.347656 C 22.453125 10.332031 22.457031 10.3125 22.453125 10.304688 Z M 22.453125 10.304688 "/>
<path style="fill:none;stroke-width:0.856;stroke-linecap:round;stroke-linejoin:bevel;stroke:rgb(32.156863%,65.882353%,91.764706%);stroke-opacity:1;stroke-miterlimit:4;" d="M -15.604024 -14.36068 C -11.680281 -11.474236 -10.239121 -6.276372 -12.119462 -1.782816 C -14.001073 2.715483 -18.714506 5.336683 -23.525591 4.566284 C -28.336676 3.795884 -31.995126 -0.165869 -32.378329 -5.024374 C -32.761533 -9.88288 -29.771738 -14.371516 -25.138276 -15.888092 " transform="matrix(-0.974255,-0.56254,0.56246,-0.974302,0,0)"/>
<path style=" stroke:none;fill-rule:nonzero;fill:rgb(100%,100%,100%);fill-opacity:1;" d="M 16.347656 12.574219 L 13.121094 13.089844 L 13.121094 25.34375 L 16.347656 24.433594 L 16.347656 19.699219 L 19.574219 25.277344 L 22.800781 24.007812 L 18.769531 18.925781 L 22.804688 13.425781 L 19.671875 12.574219 L 16.347656 18.128906 Z M 9.777344 15.898438 C 9.703125 15.898438 9.625 15.929688 9.566406 15.992188 L 8.300781 17.324219 C 8.183594 17.445312 8.210938 17.621094 8.300781 17.769531 L 9.613281 19.929688 C 9.515625 20.144531 9.429688 20.363281 9.359375 20.585938 C 9.355469 20.59375 9.351562 20.601562 9.347656 20.613281 L 6.96875 21.167969 C 6.804688 21.207031 6.667969 21.308594 6.667969 21.484375 L 6.667969 23.148438 C 6.667969 23.320312 6.804688 23.421875 6.96875 23.460938 L 9.347656 24.015625 C 9.355469 24.035156 9.363281 24.046875 9.367188 24.066406 C 9.4375 24.28125 9.519531 24.492188 9.613281 24.699219 L 8.300781 26.863281 C 8.210938 27.007812 8.183594 27.183594 8.300781 27.308594 L 9.566406 28.636719 C 9.683594 28.761719 9.871094 28.761719 9.988281 28.636719 L 12.046875 27.261719 C 12.25 27.367188 12.457031 27.453125 12.671875 27.53125 C 12.683594 27.535156 12.699219 27.542969 12.710938 27.546875 L 13.238281 30.046875 C 13.238281 30.21875 13.375 30.359375 13.539062 30.359375 L 15.332031 30.359375 C 15.496094 30.359375 15.59375 30.214844 15.628906 30.046875 L 16.15625 27.472656 C 16.398438 27.375 16.636719 27.261719 16.863281 27.128906 L 18.871094 28.636719 C 18.988281 28.761719 19.175781 28.761719 19.292969 28.636719 L 20.5625 27.308594 C 20.679688 27.183594 20.648438 27.007812 20.5625 26.863281 L 19.796875 25.644531 L 19.71875 25.675781 C 19.535156 25.746094 19.332031 25.671875 19.230469 25.5 L 18.425781 24.109375 C 17.757812 25.789062 16.175781 26.972656 14.332031 26.972656 C 11.882812 26.972656 9.894531 24.886719 9.894531 22.316406 C 9.894531 20.339844 11.066406 18.65625 12.71875 17.980469 L 12.71875 17.050781 L 12.710938 17.082031 C 12.695312 17.085938 12.679688 17.097656 12.660156 17.105469 C 12.449219 17.179688 12.242188 17.265625 12.042969 17.367188 L 9.988281 15.992188 C 9.929688 15.929688 9.855469 15.898438 9.777344 15.898438 Z M 9.777344 15.898438 "/>
</g>
</svg>
