<?xml version="1.0" encoding="UTF-8"?>
<svg xmlns="http://www.w3.org/2000/svg" xmlns:xlink="http://www.w3.org/1999/xlink" width="36pt" height="36pt" viewBox="0 0 36 36" version="1.1">
<g id="surface1">
<path style=" stroke:none;fill-rule:evenodd;fill:rgb(35.686275%,35.686275%,35.686275%);fill-opacity:1;" d="M 8.40625 2.136719 L 27.59375 2.136719 C 31.054688 2.136719 33.863281 4.945312 33.863281 8.40625 L 33.863281 27.59375 C 33.863281 31.054688 31.054688 33.863281 27.59375 33.863281 L 8.40625 33.863281 C 4.945312 33.863281 2.136719 31.054688 2.136719 27.59375 L 2.136719 8.40625 C 2.136719 4.945312 4.945312 2.136719 8.40625 2.136719 Z M 8.40625 2.136719 "/>
<path style=" stroke:none;fill-rule:nonzero;fill:rgb(43.529412%,43.529412%,43.529412%);fill-opacity:1;" d="M 15.105469 18.808594 L 20.894531 18.808594 C 21.53125 18.808594 22.050781 19.292969 22.050781 19.890625 L 22.050781 27.453125 C 22.050781 28.050781 21.53125 28.535156 20.894531 28.535156 L 15.105469 28.535156 C 14.46875 28.535156 13.949219 28.050781 13.949219 27.453125 L 13.949219 19.890625 C 13.949219 19.292969 14.46875 18.808594 15.105469 18.808594 Z M 15.105469 18.808594 "/>
<path style=" stroke:none;fill-rule:nonzero;fill:rgb(43.529412%,43.529412%,43.529412%);fill-opacity:1;" d="M 16.378906 11.515625 C 16.378906 14.203125 14.203125 16.378906 11.515625 16.378906 C 8.832031 16.378906 6.65625 14.203125 6.65625 11.515625 C 6.65625 8.832031 8.832031 6.65625 11.515625 6.65625 C 14.203125 6.65625 16.378906 8.832031 16.378906 11.515625 Z M 16.378906 11.515625 "/>
<path style=" stroke:none;fill-rule:nonzero;fill:rgb(43.529412%,43.529412%,43.529412%);fill-opacity:1;" d="M 29.34375 11.515625 C 29.34375 14.203125 27.167969 16.378906 24.484375 16.378906 C 21.796875 16.378906 19.621094 14.203125 19.621094 11.515625 C 19.621094 8.832031 21.796875 6.65625 24.484375 6.65625 C 27.167969 6.65625 29.34375 8.832031 29.34375 11.515625 Z M 29.34375 11.515625 "/>
<path style=" stroke:none;fill-rule:nonzero;fill:rgb(62.745098%,63.921569%,64.313725%);fill-opacity:1;" d="M 13.949219 23.265625 L 13.949219 20.429688 C 13.949219 20.429688 13.230469 20.464844 12.882812 20.5625 C 11.449219 20.964844 10.402344 22.503906 10.789062 24.011719 C 11.171875 25.519531 12.640625 26.410156 14.078125 26.003906 C 15.515625 25.601562 14.332031 24.773438 13.949219 23.265625 Z M 13.949219 23.265625 "/>
<path style=" stroke:none;fill-rule:nonzero;fill:rgb(62.745098%,63.921569%,64.313725%);fill-opacity:1;" d="M 22.050781 23.265625 L 22.050781 20.429688 C 22.050781 20.429688 22.78125 20.464844 23.128906 20.5625 C 24.566406 20.964844 25.609375 22.503906 25.222656 24.011719 C 24.839844 25.519531 23.371094 26.410156 21.933594 26.003906 C 20.496094 25.601562 21.667969 24.773438 22.050781 23.265625 Z M 22.050781 23.265625 "/>
<path style=" stroke:none;fill-rule:nonzero;fill:rgb(62.745098%,63.921569%,64.313725%);fill-opacity:1;" d="M 23.671875 29.34375 L 18.808594 29.34375 C 18.808594 28 19.898438 26.914062 21.242188 26.914062 C 22.582031 26.914062 23.671875 28 23.671875 29.34375 Z M 23.671875 29.34375 "/>
<path style=" stroke:none;fill-rule:nonzero;fill:rgb(62.745098%,63.921569%,64.313725%);fill-opacity:1;" d="M 17.191406 29.34375 L 12.328125 29.34375 C 12.328125 28 13.417969 26.914062 14.757812 26.914062 C 16.101562 26.914062 17.191406 28 17.191406 29.34375 Z M 17.191406 29.34375 "/>
<path style=" stroke:none;fill-rule:nonzero;fill:rgb(62.745098%,63.921569%,64.313725%);fill-opacity:1;" d="M 15.789062 20.429688 L 20.210938 20.429688 C 23.894531 20.429688 26.101562 18.863281 26.101562 14.15625 C 26.101562 11.019531 23.15625 8.300781 18 8.277344 C 12.84375 8.273438 9.894531 11.019531 9.894531 14.15625 C 9.894531 18.863281 12.105469 20.429688 15.789062 20.429688 Z M 15.789062 20.429688 "/>
<path style=" stroke:none;fill-rule:nonzero;fill:rgb(45.490196%,72.156863%,100%);fill-opacity:1;" d="M 14.757812 14.355469 C 14.757812 15.472656 13.851562 16.378906 12.734375 16.378906 C 11.613281 16.378906 10.707031 15.472656 10.707031 14.355469 C 10.707031 13.234375 11.613281 12.328125 12.734375 12.328125 C 13.851562 12.328125 14.757812 13.234375 14.757812 14.355469 Z M 14.757812 14.355469 "/>
<path style=" stroke:none;fill-rule:nonzero;fill:rgb(30.196078%,30.196078%,30.196078%);fill-opacity:1;" d="M 13.949219 14.355469 C 13.949219 15.023438 13.402344 15.570312 12.734375 15.570312 C 12.0625 15.570312 11.515625 15.023438 11.515625 14.355469 C 11.515625 13.683594 12.0625 13.136719 12.734375 13.136719 C 13.402344 13.136719 13.949219 13.683594 13.949219 14.355469 Z M 13.949219 14.355469 "/>
<path style=" stroke:none;fill-rule:nonzero;fill:rgb(30.196078%,30.196078%,30.196078%);fill-opacity:1;" d="M 15.898438 18 C 15.683594 18.164062 15.570312 18.351562 15.570312 18.539062 C 15.570312 19.136719 16.65625 19.621094 18 19.621094 C 19.34375 19.621094 20.429688 19.136719 20.429688 18.539062 C 20.429688 18.351562 20.316406 18.164062 20.101562 18 C 19.667969 18.332031 18.867188 18.539062 18 18.539062 C 17.132812 18.539062 16.332031 18.332031 15.898438 18 Z M 15.898438 18 "/>
<path style=" stroke:none;fill-rule:nonzero;fill:rgb(30.196078%,30.196078%,30.196078%);fill-opacity:1;" d="M 15.570312 14.191406 C 15.585938 17.433594 17.074219 17.433594 18 17.433594 C 18.925781 17.433594 20.417969 17.433594 20.429688 14.191406 C 20.433594 11.597656 18.867188 9.328125 18 9.328125 C 17.132812 9.328125 15.566406 11.597656 15.570312 14.191406 Z M 15.570312 14.191406 "/>
<path style=" stroke:none;fill-rule:nonzero;fill:rgb(20.392157%,20.392157%,20.392157%);fill-opacity:1;" d="M 16.378906 16.351562 C 16.238281 16.351562 16.101562 16.378906 15.980469 16.425781 C 16.230469 16.917969 16.570312 17.164062 16.925781 17.292969 C 17.09375 17.1875 17.191406 17.042969 17.191406 16.890625 C 17.191406 16.59375 16.828125 16.351562 16.378906 16.351562 Z M 19.621094 16.351562 C 19.171875 16.351562 18.8125 16.59375 18.8125 16.890625 C 18.8125 17.042969 18.90625 17.1875 19.074219 17.292969 C 19.429688 17.164062 19.769531 16.917969 20.023438 16.425781 C 19.898438 16.378906 19.761719 16.351562 19.621094 16.351562 Z M 19.621094 16.351562 "/>
<path style=" stroke:none;fill-rule:nonzero;fill:rgb(45.490196%,72.156863%,100%);fill-opacity:1;" d="M 25.292969 14.355469 C 25.292969 15.472656 24.386719 16.378906 23.265625 16.378906 C 22.148438 16.378906 21.242188 15.472656 21.242188 14.355469 C 21.242188 13.234375 22.148438 12.328125 23.265625 12.328125 C 24.386719 12.328125 25.292969 13.234375 25.292969 14.355469 Z M 25.292969 14.355469 "/>
<path style=" stroke:none;fill-rule:nonzero;fill:rgb(30.196078%,30.196078%,30.196078%);fill-opacity:1;" d="M 24.484375 14.355469 C 24.484375 15.023438 23.9375 15.570312 23.265625 15.570312 C 22.597656 15.570312 22.050781 15.023438 22.050781 14.355469 C 22.050781 13.683594 22.597656 13.136719 23.265625 13.136719 C 23.9375 13.136719 24.484375 13.683594 24.484375 14.355469 Z M 24.484375 14.355469 "/>
</g>
</svg>
