<?xml version="1.0" encoding="UTF-8"?>
<svg xmlns="http://www.w3.org/2000/svg" xmlns:xlink="http://www.w3.org/1999/xlink" width="36pt" height="36pt" viewBox="0 0 36 36" version="1.1">
<g id="surface1">
<path style=" stroke:none;fill-rule:evenodd;fill:rgb(60%,60%,60%);fill-opacity:1;" d="M 8.40625 2.136719 L 27.59375 2.136719 C 31.054688 2.136719 33.863281 4.945312 33.863281 8.40625 L 33.863281 27.59375 C 33.863281 31.054688 31.054688 33.863281 27.59375 33.863281 L 8.40625 33.863281 C 4.945312 33.863281 2.136719 31.054688 2.136719 27.59375 L 2.136719 8.40625 C 2.136719 4.945312 4.945312 2.136719 8.40625 2.136719 Z M 8.40625 2.136719 "/>
<path style=" stroke:none;fill-rule:nonzero;fill:rgb(94.901961%,21.568627%,21.568627%);fill-opacity:1;" d="M 24.75 4.5 C 20.402344 4.5 16.875 8.027344 16.875 12.375 C 16.875 16.722656 20.402344 20.25 24.75 20.25 C 29.097656 20.25 32.625 16.722656 32.625 12.375 C 32.625 8.027344 29.097656 4.5 24.75 4.5 Z M 24.75 4.5 "/>
<path style=" stroke:none;fill-rule:nonzero;fill:rgb(21.568627%,62.745098%,94.901961%);fill-opacity:1;" d="M 11.25 15.75 C 6.902344 15.75 3.375 19.277344 3.375 23.625 C 3.375 27.972656 6.902344 31.5 11.25 31.5 C 15.597656 31.5 19.125 27.972656 19.125 23.625 C 19.125 19.277344 15.597656 15.75 11.25 15.75 Z M 11.25 15.75 "/>
</g>
</svg>
