<?xml version="1.0" encoding="UTF-8"?>
<svg xmlns="http://www.w3.org/2000/svg" xmlns:xlink="http://www.w3.org/1999/xlink" width="36pt" height="36pt" viewBox="0 0 36 36" version="1.1">
<g id="surface1">
<path style=" stroke:none;fill-rule:evenodd;fill:rgb(80%,80%,80%);fill-opacity:1;" d="M 8.40625 2.136719 L 27.59375 2.136719 C 31.054688 2.136719 33.863281 4.945312 33.863281 8.40625 L 33.863281 27.59375 C 33.863281 31.054688 31.054688 33.863281 27.59375 33.863281 L 8.40625 33.863281 C 4.945312 33.863281 2.136719 31.054688 2.136719 27.59375 L 2.136719 8.40625 C 2.136719 4.945312 4.945312 2.136719 8.40625 2.136719 Z M 8.40625 2.136719 "/>
<path style=" stroke:none;fill-rule:nonzero;fill:rgb(97.647059%,97.647059%,97.647059%);fill-opacity:1;" d="M 18 6.070312 C 11.390625 6.070312 6.070312 11.390625 6.070312 18 C 6.070312 24.609375 11.390625 29.929688 18 29.929688 C 24.609375 29.929688 29.929688 24.609375 29.929688 18 C 29.929688 11.390625 24.609375 6.070312 18 6.070312 Z M 18 6.070312 "/>
<path style=" stroke:none;fill-rule:nonzero;fill:rgb(9.019608%,58.431373%,4.313725%);fill-opacity:1;" d="M 18 9.480469 C 13.28125 9.480469 9.480469 13.28125 9.480469 18 C 9.480469 22.71875 13.28125 26.519531 18 26.519531 C 22.71875 26.519531 26.519531 22.71875 26.519531 18 C 26.519531 13.28125 22.71875 9.480469 18 9.480469 Z M 18 9.480469 "/>
<path style=" stroke:none;fill-rule:nonzero;fill:rgb(100%,100%,13.333333%);fill-opacity:1;" d="M 18 12.035156 C 14.695312 12.035156 12.035156 14.695312 12.035156 18 C 12.035156 21.304688 14.695312 23.964844 18 23.964844 C 21.304688 23.964844 23.964844 21.304688 23.964844 18 C 23.964844 14.695312 21.304688 12.035156 18 12.035156 Z M 18 12.035156 "/>
<path style=" stroke:none;fill-rule:nonzero;fill:rgb(81.960784%,39.607843%,100%);fill-opacity:1;" d="M 18 14.589844 C 16.113281 14.589844 14.589844 16.113281 14.589844 18 C 14.589844 19.886719 16.113281 21.410156 18 21.410156 C 19.886719 21.410156 21.410156 19.886719 21.410156 18 C 21.410156 16.113281 19.886719 14.589844 18 14.589844 Z M 18 14.589844 "/>
</g>
</svg>
