<?xml version="1.0" encoding="UTF-8"?>
<svg xmlns="http://www.w3.org/2000/svg" xmlns:xlink="http://www.w3.org/1999/xlink" width="36pt" height="36pt" viewBox="0 0 36 36" version="1.1">
<g id="surface1">
<path style=" stroke:none;fill-rule:evenodd;fill:rgb(99.607843%,80.392157%,21.960784%);fill-opacity:1;" d="M 8.40625 2.136719 L 27.59375 2.136719 C 31.054688 2.136719 33.863281 4.945312 33.863281 8.40625 L 33.863281 27.59375 C 33.863281 31.054688 31.054688 33.863281 27.59375 33.863281 L 8.40625 33.863281 C 4.945312 33.863281 2.136719 31.054688 2.136719 27.59375 L 2.136719 8.40625 C 2.136719 4.945312 4.945312 2.136719 8.40625 2.136719 Z M 8.40625 2.136719 "/>
<path style=" stroke:none;fill-rule:nonzero;fill:rgb(100%,100%,100%);fill-opacity:1;" d="M 18.027344 5.1875 C 17.8125 5.179688 17.601562 5.238281 17.414062 5.347656 L 7.601562 11.152344 C 7.238281 11.367188 7.015625 11.765625 7.015625 12.195312 L 7.015625 23.808594 C 7.015625 24.234375 7.238281 24.632812 7.601562 24.847656 L 17.414062 30.652344 C 17.777344 30.867188 18.222656 30.867188 18.585938 30.652344 L 28.398438 24.847656 C 28.757812 24.632812 28.984375 24.234375 28.984375 23.808594 L 28.984375 12.191406 C 28.984375 11.765625 28.757812 11.367188 28.398438 11.152344 L 18.585938 5.347656 C 18.414062 5.246094 18.222656 5.191406 18.027344 5.1875 Z M 18.027344 5.1875 "/>
<path style=" stroke:none;fill-rule:nonzero;fill:rgb(24.705882%,24.705882%,24.705882%);fill-opacity:1;" d="M 13.835938 26.03125 C 13.796875 25.992188 13.761719 25.84375 13.761719 25.699219 C 13.761719 25.386719 13.589844 25.367188 13.429688 25.664062 C 13.242188 26.015625 13.085938 25.921875 13.121094 25.472656 C 13.148438 25.148438 13.117188 25.066406 12.988281 25.101562 C 12.25 25.289062 12.246094 25.285156 12.738281 24.746094 C 13.269531 24.171875 13.363281 23.824219 12.960938 23.953125 C 12.824219 23.996094 12.425781 24.054688 12.078125 24.085938 C 11 24.1875 9.894531 23.488281 9.894531 22.710938 C 9.894531 22.382812 10.464844 21.925781 11.289062 21.59375 C 11.707031 21.421875 12.0625 21.214844 12.078125 21.128906 C 12.09375 21.046875 11.929688 20.863281 11.714844 20.722656 C 11.222656 20.40625 10.945312 19.960938 10.652344 19.015625 C 10.316406 17.925781 10.390625 16.039062 10.820312 14.796875 C 12.304688 10.492188 16.621094 8.707031 20.691406 10.714844 C 23.296875 11.996094 25.179688 14.03125 25.589844 16.003906 C 25.703125 16.535156 25.691406 16.652344 25.492188 17.039062 C 25.230469 17.550781 24.648438 18.164062 24.425781 18.164062 C 24.339844 18.164062 24.132812 18 23.964844 17.804688 C 23.53125 17.289062 21.5625 15.34375 20.746094 14.621094 L 20.046875 14.003906 L 20.121094 13.382812 C 20.195312 12.789062 20.1875 12.757812 19.914062 12.632812 C 19.496094 12.445312 18.914062 12.628906 18.867188 12.96875 C 18.839844 13.160156 18.980469 13.382812 19.417969 13.820312 L 20.003906 14.410156 L 19.34375 14.414062 C 18.144531 14.417969 17.914062 14.605469 18.503906 15.101562 C 18.941406 15.464844 19.089844 15.789062 19.054688 16.265625 L 19.019531 16.671875 L 19.542969 16.648438 C 19.945312 16.625 20.066406 16.65625 20.066406 16.785156 C 20.066406 16.875 20.015625 16.949219 19.953125 16.949219 C 19.769531 16.949219 19.832031 17.261719 20.039062 17.382812 C 20.1875 17.472656 20.199219 17.519531 20.089844 17.589844 C 20.011719 17.640625 19.980469 17.765625 20.019531 17.867188 C 20.125 18.144531 19.90625 18.097656 19.050781 17.648438 C 18.34375 17.277344 18.253906 17.191406 18.003906 16.628906 C 17.566406 15.640625 17.191406 15.375 17.191406 16.054688 C 17.191406 16.222656 17.085938 16.753906 16.957031 17.234375 C 16.550781 18.761719 16.503906 18.605469 17.371094 18.605469 C 18.242188 18.605469 18.871094 18.75 19.078125 19 C 19.230469 19.183594 19.25 19.6875 19.128906 20.335938 C 19.058594 20.714844 19.066406 20.726562 19.335938 20.65625 C 19.601562 20.589844 19.613281 20.605469 19.550781 20.917969 C 19.488281 21.238281 19.5 21.25 19.886719 21.25 C 20.105469 21.25 20.285156 21.300781 20.285156 21.363281 C 20.285156 21.421875 20.246094 21.472656 20.195312 21.472656 C 20.148438 21.472656 20.011719 21.542969 19.894531 21.628906 C 19.683594 21.78125 19.683594 21.789062 19.890625 22.015625 C 20.128906 22.277344 20.101562 22.289062 19.234375 22.246094 C 18.582031 22.21875 18.445312 22.125 18.347656 21.65625 C 18.234375 21.109375 17.980469 20.769531 17.800781 20.917969 C 17.460938 21.203125 18.121094 22.367188 18.941406 22.933594 C 20.105469 23.730469 21.433594 23.917969 22.652344 23.457031 C 23.480469 23.140625 24.6875 21.976562 25.351562 20.84375 C 26.09375 19.582031 26.253906 19.601562 25.984375 20.929688 C 25.535156 23.136719 24.015625 24.796875 21.789062 25.511719 C 21.070312 25.742188 20.675781 25.800781 19.789062 25.800781 C 17.941406 25.804688 16.886719 25.289062 15.175781 23.542969 C 14.101562 22.445312 13.78125 22.359375 14.332031 23.320312 L 14.683594 23.933594 L 14.328125 25.019531 C 14.132812 25.617188 13.957031 26.105469 13.941406 26.105469 C 13.925781 26.105469 13.878906 26.074219 13.839844 26.035156 Z M 14.328125 20.082031 C 13.367188 18.167969 13.15625 17.398438 13.15625 15.84375 C 13.15625 14.683594 13.179688 14.53125 13.453125 14.015625 C 14.273438 12.457031 16.035156 11.550781 18.230469 11.542969 C 19.261719 11.542969 20.425781 11.722656 20.894531 11.957031 C 21.46875 12.246094 22.289062 12.996094 23.125 14 C 24.105469 15.175781 24.183594 15.398438 23.46875 14.964844 C 23.269531 14.84375 22.996094 14.742188 22.863281 14.742188 C 22.441406 14.742188 22.285156 14.617188 22.210938 14.230469 C 22.15625 13.953125 22.003906 13.746094 21.632812 13.464844 C 20.796875 12.828125 20.476562 13.113281 21.054688 13.984375 C 21.542969 14.71875 24.230469 17.300781 24.464844 17.257812 C 24.800781 17.195312 25.058594 16.519531 25.003906 15.84375 C 24.910156 14.699219 24.101562 13.507812 22.839844 12.65625 C 21.6875 11.875 19.5 10.882812 18.515625 10.6875 C 15.375 10.070312 12.308594 12.023438 11.859375 14.929688 C 11.589844 16.667969 12.550781 18.96875 14.359375 20.894531 C 14.65625 21.214844 14.921875 21.457031 14.945312 21.433594 C 14.964844 21.410156 14.6875 20.800781 14.328125 20.082031 Z M 14.328125 20.082031 "/>
</g>
</svg>
