<?xml version="1.0" encoding="UTF-8"?>
<svg xmlns="http://www.w3.org/2000/svg" xmlns:xlink="http://www.w3.org/1999/xlink" width="36pt" height="36pt" viewBox="0 0 36 36" version="1.1">
<g id="surface1">
<path style=" stroke:none;fill-rule:evenodd;fill:rgb(69.803922%,54.117647%,38.823529%);fill-opacity:1;" d="M 8.40625 2.136719 L 27.59375 2.136719 C 31.054688 2.136719 33.863281 4.945312 33.863281 8.40625 L 33.863281 27.59375 C 33.863281 31.054688 31.054688 33.863281 27.59375 33.863281 L 8.40625 33.863281 C 4.945312 33.863281 2.136719 31.054688 2.136719 27.59375 L 2.136719 8.40625 C 2.136719 4.945312 4.945312 2.136719 8.40625 2.136719 Z M 8.40625 2.136719 "/>
<path style=" stroke:none;fill-rule:nonzero;fill:rgb(100%,100%,100%);fill-opacity:1;" d="M 27 18 C 27 22.96875 22.972656 27 18 27 C 13.03125 27 9 22.96875 9 18 C 9 13.03125 13.03125 9 18 9 C 22.972656 9 27 13.03125 27 18 Z M 27 18 "/>
<path style=" stroke:none;fill-rule:nonzero;fill:rgb(99.607843%,87.058824%,48.235294%);fill-opacity:1;" d="M 9.566406 10.800781 C 8.03125 10.78125 6.980469 11.167969 6.535156 11.921875 C 5.242188 14.128906 9.332031 18.839844 15.667969 22.445312 C 21.996094 26.046875 28.175781 27.179688 29.46875 24.976562 C 30.179688 23.746094 29.230469 21.660156 26.890625 19.320312 C 26.863281 19.515625 26.835938 19.710938 26.796875 19.898438 C 27.695312 21.207031 27.945312 22.332031 27.507812 23.09375 C 26.402344 24.984375 21.398438 24.179688 16.332031 21.300781 C 11.261719 18.417969 8.046875 14.550781 9.15625 12.660156 C 9.539062 12.019531 10.402344 11.671875 11.640625 11.652344 C 11.8125 11.480469 11.988281 11.3125 12.175781 11.152344 C 11.214844 10.9375 10.335938 10.816406 9.566406 10.800781 Z M 9.566406 10.800781 "/>
</g>
</svg>
