<?xml version="1.0" encoding="UTF-8"?>
<svg xmlns="http://www.w3.org/2000/svg" xmlns:xlink="http://www.w3.org/1999/xlink" width="36pt" height="36pt" viewBox="0 0 36 36" version="1.1">
<g id="surface1">
<path style=" stroke:none;fill-rule:evenodd;fill:rgb(94.509804%,23.529412%,23.529412%);fill-opacity:1;" d="M 8.40625 2.136719 L 27.59375 2.136719 C 31.054688 2.136719 33.863281 4.945312 33.863281 8.40625 L 33.863281 27.59375 C 33.863281 31.054688 31.054688 33.863281 27.59375 33.863281 L 8.40625 33.863281 C 4.945312 33.863281 2.136719 31.054688 2.136719 27.59375 L 2.136719 8.40625 C 2.136719 4.945312 4.945312 2.136719 8.40625 2.136719 Z M 8.40625 2.136719 "/>
<path style=" stroke:none;fill-rule:nonzero;fill:rgb(100%,100%,100%);fill-opacity:1;" d="M 13.605469 12.355469 L 27.410156 12.355469 C 28.101562 12.355469 28.664062 12.917969 28.664062 13.613281 C 28.664062 14.304688 28.101562 14.867188 27.410156 14.867188 L 13.605469 14.867188 C 12.914062 14.867188 12.351562 14.304688 12.351562 13.613281 C 12.351562 12.917969 12.914062 12.355469 13.605469 12.355469 Z M 13.605469 12.355469 "/>
<path style=" stroke:none;fill-rule:evenodd;fill:rgb(100%,100%,100%);fill-opacity:1;" d="M 11.714844 9.839844 C 11.511719 9.84375 11.320312 9.953125 11.207031 10.125 C 10.566406 11.082031 9.898438 12.367188 9.253906 13.539062 L 8.523438 12.078125 C 8.371094 11.765625 7.992188 11.640625 7.683594 11.796875 C 7.371094 11.949219 7.246094 12.328125 7.402344 12.636719 L 8.65625 15.148438 C 8.757812 15.355469 8.96875 15.488281 9.199219 15.496094 C 9.429688 15.5 9.648438 15.378906 9.761719 15.179688 C 10.578125 13.769531 11.5 11.941406 12.25 10.824219 C 12.382812 10.628906 12.398438 10.375 12.285156 10.167969 C 12.171875 9.960938 11.953125 9.832031 11.714844 9.839844 Z M 11.714844 9.839844 "/>
<path style=" stroke:none;fill-rule:nonzero;fill:rgb(100%,100%,100%);fill-opacity:1;" d="M 13.605469 18.003906 L 27.410156 18.003906 C 28.101562 18.003906 28.664062 18.566406 28.664062 19.257812 C 28.664062 19.953125 28.101562 20.515625 27.410156 20.515625 L 13.605469 20.515625 C 12.914062 20.515625 12.351562 19.953125 12.351562 19.257812 C 12.351562 18.566406 12.914062 18.003906 13.605469 18.003906 Z M 13.605469 18.003906 "/>
<path style=" stroke:none;fill-rule:nonzero;fill:rgb(100%,100%,100%);fill-opacity:1;" d="M 10.46875 19.257812 C 10.46875 19.953125 9.90625 20.515625 9.214844 20.515625 C 8.523438 20.515625 7.960938 19.953125 7.960938 19.257812 C 7.960938 18.566406 8.523438 18.003906 9.214844 18.003906 C 9.90625 18.003906 10.46875 18.566406 10.46875 19.257812 Z M 10.46875 19.257812 "/>
<path style=" stroke:none;fill-rule:nonzero;fill:rgb(100%,100%,100%);fill-opacity:1;" d="M 13.605469 23.652344 L 27.410156 23.652344 C 28.101562 23.652344 28.664062 24.210938 28.664062 24.90625 C 28.664062 25.597656 28.101562 26.160156 27.410156 26.160156 L 13.605469 26.160156 C 12.914062 26.160156 12.351562 25.597656 12.351562 24.90625 C 12.351562 24.210938 12.914062 23.652344 13.605469 23.652344 Z M 13.605469 23.652344 "/>
<path style=" stroke:none;fill-rule:nonzero;fill:rgb(100%,100%,100%);fill-opacity:1;" d="M 10.46875 24.90625 C 10.46875 25.597656 9.90625 26.160156 9.214844 26.160156 C 8.523438 26.160156 7.960938 25.597656 7.960938 24.90625 C 7.960938 24.210938 8.523438 23.652344 9.214844 23.652344 C 9.90625 23.652344 10.46875 24.210938 10.46875 24.90625 Z M 10.46875 24.90625 "/>
</g>
</svg>
