<?xml version="1.0" encoding="UTF-8"?>
<svg xmlns="http://www.w3.org/2000/svg" xmlns:xlink="http://www.w3.org/1999/xlink" width="36pt" height="36pt" viewBox="0 0 36 36" version="1.1">
<g id="surface1">
<path style=" stroke:none;fill-rule:evenodd;fill:rgb(17.254902%,50.196078%,76.078431%);fill-opacity:1;" d="M 8.40625 2.136719 L 27.59375 2.136719 C 31.054688 2.136719 33.863281 4.945312 33.863281 8.40625 L 33.863281 27.59375 C 33.863281 31.054688 31.054688 33.863281 27.59375 33.863281 L 8.40625 33.863281 C 4.945312 33.863281 2.136719 31.054688 2.136719 27.59375 L 2.136719 8.40625 C 2.136719 4.945312 4.945312 2.136719 8.40625 2.136719 Z M 8.40625 2.136719 "/>
<path style=" stroke:none;fill-rule:nonzero;fill:rgb(21.568627%,62.745098%,94.901961%);fill-opacity:1;" d="M 29.816406 18 C 29.816406 24.527344 24.527344 29.816406 18 29.816406 C 11.472656 29.816406 6.183594 24.527344 6.183594 18 C 6.183594 11.472656 11.472656 6.183594 18 6.183594 C 24.527344 6.183594 29.816406 11.472656 29.816406 18 Z M 29.816406 18 "/>
<path style=" stroke:none;fill-rule:nonzero;fill:rgb(17.254902%,50.196078%,76.078431%);fill-opacity:1;" d="M 16.882812 6.246094 C 15.390625 6.386719 13.941406 6.808594 12.605469 7.488281 C 12.667969 7.675781 12.597656 7.890625 12.378906 8.078125 C 12.234375 8.207031 12.113281 8.40625 12.113281 8.519531 C 12.113281 8.875 12.433594 9.417969 12.6875 9.496094 C 13.027344 9.601562 12.914062 9.964844 12.476562 10.164062 C 12.273438 10.257812 12.027344 10.523438 11.925781 10.757812 C 11.824219 10.992188 11.671875 11.222656 11.589844 11.269531 C 11.511719 11.320312 11.441406 11.503906 11.441406 11.675781 C 11.441406 11.921875 11.554688 12.042969 11.921875 12.1875 C 12.1875 12.292969 12.503906 12.371094 12.625 12.359375 C 13.328125 12.292969 13.378906 12.703125 12.761719 13.503906 C 12.433594 13.929688 12.277344 14.035156 12.054688 13.984375 C 11.847656 13.933594 11.734375 13.992188 11.640625 14.199219 C 11.539062 14.414062 11.378906 14.488281 10.941406 14.519531 C 10.511719 14.550781 10.316406 14.636719 10.15625 14.871094 C 10.039062 15.042969 9.867188 15.183594 9.777344 15.183594 C 9.6875 15.183594 9.472656 15.300781 9.304688 15.441406 C 8.957031 15.726562 8.824219 15.757812 8.703125 15.570312 C 8.542969 15.320312 8.199219 15.445312 7.683594 15.9375 C 7.230469 16.375 7.175781 16.488281 7.242188 16.867188 C 7.363281 17.539062 7.730469 18.132812 8.144531 18.34375 C 8.507812 18.523438 8.515625 18.542969 8.296875 18.777344 C 8.167969 18.910156 7.953125 19.054688 7.8125 19.097656 C 7.414062 19.21875 7.636719 19.371094 8.351562 19.460938 C 9.082031 19.554688 9.308594 19.820312 8.96875 20.179688 C 8.777344 20.382812 8.789062 20.417969 9.09375 20.609375 C 9.691406 20.984375 10.164062 20.753906 9.605469 20.363281 C 9.246094 20.113281 9.496094 20.007812 10.023438 20.191406 C 10.445312 20.335938 10.53125 20.328125 10.777344 20.113281 C 11.289062 19.671875 11.84375 20.324219 11.378906 20.820312 C 11.082031 21.132812 11.171875 21.515625 11.554688 21.566406 C 11.726562 21.589844 12.078125 21.746094 12.339844 21.917969 C 12.601562 22.089844 12.890625 22.230469 12.976562 22.230469 C 13.0625 22.230469 13.304688 22.402344 13.515625 22.613281 C 13.945312 23.042969 14.183594 23.097656 14.304688 22.792969 C 14.449219 22.429688 14.390625 22.242188 14 21.816406 C 13.6875 21.476562 13.183594 20.574219 13.183594 20.355469 C 13.183594 20.222656 13.695312 20.335938 13.984375 20.53125 C 14.164062 20.65625 14.457031 20.816406 14.632812 20.886719 C 14.820312 20.964844 15.015625 21.203125 15.105469 21.464844 C 15.246094 21.875 15.300781 21.910156 15.792969 21.910156 L 16.324219 21.910156 L 16.40625 22.867188 C 16.503906 24.023438 16.597656 24.257812 16.992188 24.351562 C 17.285156 24.421875 17.597656 24.875 17.597656 25.230469 C 17.597656 25.324219 17.386719 25.554688 17.128906 25.738281 C 16.8125 25.972656 16.675781 26.167969 16.695312 26.363281 C 16.722656 26.605469 16.667969 26.640625 16.324219 26.617188 C 16.105469 26.601562 15.722656 26.679688 15.476562 26.789062 C 15.183594 26.921875 14.871094 26.960938 14.574219 26.910156 C 14.234375 26.847656 14.117188 26.871094 14.117188 27.003906 C 14.117188 27.101562 14 27.285156 13.855469 27.414062 C 13.496094 27.722656 13.644531 27.886719 14.195312 27.789062 C 14.535156 27.726562 14.671875 27.753906 14.730469 27.902344 C 14.855469 28.214844 14.535156 28.664062 14.242188 28.589844 C 14.054688 28.542969 13.960938 28.609375 13.90625 28.832031 C 13.882812 28.910156 13.847656 28.976562 13.804688 29.03125 C 14.410156 29.269531 15.035156 29.453125 15.671875 29.585938 C 15.613281 29.472656 15.546875 29.371094 15.480469 29.324219 C 15.175781 29.109375 15.378906 28.550781 15.800781 28.449219 C 16.226562 28.347656 16.160156 28.070312 15.695312 28.015625 C 15.289062 27.96875 14.855469 27.558594 14.992188 27.347656 C 15.082031 27.203125 15.472656 27.226562 16.257812 27.414062 C 16.613281 27.496094 16.859375 27.328125 17.679688 26.425781 C 18.160156 25.902344 18.523438 25.6875 18.929688 25.6875 C 19.082031 25.6875 19.628906 25.542969 20.144531 25.371094 C 21.121094 25.046875 21.5 25.058594 21.464844 25.414062 C 21.390625 26.152344 21.867188 26.128906 22.644531 25.355469 C 22.96875 25.03125 23.265625 24.796875 23.300781 24.832031 C 23.449219 24.976562 23.183594 25.667969 22.871094 25.949219 C 22.476562 26.304688 22.457031 26.527344 22.804688 26.707031 C 22.996094 26.804688 23.078125 27.003906 23.105469 27.449219 L 23.148438 28.054688 L 23.640625 28.054688 C 23.8125 28.054688 23.957031 28.078125 24.074219 28.121094 C 27.515625 26.054688 29.671875 22.382812 29.796875 18.371094 C 29.617188 17.984375 29.628906 17.75 29.796875 17.488281 C 29.785156 17.265625 29.769531 17.046875 29.746094 16.824219 C 29.636719 16.820312 29.527344 16.816406 29.402344 16.820312 C 28.804688 16.847656 28.296875 16.609375 28.296875 16.3125 C 28.296875 16.25 28.085938 15.988281 27.824219 15.734375 C 27.53125 15.445312 27.382812 15.191406 27.425781 15.058594 C 27.464844 14.9375 27.378906 14.742188 27.226562 14.609375 C 27.078125 14.484375 26.957031 14.277344 26.957031 14.152344 C 26.957031 13.953125 26.832031 13.929688 25.921875 13.949219 L 24.886719 13.976562 L 24.902344 14.996094 C 24.933594 16.785156 25.199219 17.25 26.023438 16.953125 C 26.398438 16.8125 27.324219 16.917969 27.585938 17.125 C 27.679688 17.203125 27.820312 17.476562 27.890625 17.734375 C 27.964844 17.996094 28.234375 18.445312 28.492188 18.734375 C 29.019531 19.320312 29.058594 19.546875 28.757812 20.238281 C 28.496094 20.835938 28.214844 20.769531 28.269531 20.117188 L 28.3125 19.632812 L 27.867188 19.714844 C 27.625 19.761719 27.316406 19.941406 27.179688 20.121094 C 26.980469 20.375 26.890625 20.414062 26.742188 20.296875 C 26.640625 20.214844 26.558594 20.042969 26.558594 19.914062 C 26.558594 19.789062 26.429688 19.644531 26.277344 19.601562 C 26.125 19.554688 25.914062 19.320312 25.808594 19.082031 C 25.644531 18.703125 25.648438 18.585938 25.839844 18.125 C 26.035156 17.65625 26.039062 17.578125 25.855469 17.40625 C 25.691406 17.246094 25.605469 17.242188 25.390625 17.371094 C 25.171875 17.503906 25.066406 17.492188 24.808594 17.316406 C 24.632812 17.203125 24.332031 17.105469 24.132812 17.105469 C 23.734375 17.105469 23.613281 16.910156 23.613281 16.269531 C 23.613281 15.679688 23.261719 15.460938 22.421875 15.539062 C 21.835938 15.59375 21.707031 15.554688 21.238281 15.191406 C 20.945312 14.96875 20.488281 14.429688 20.214844 13.992188 C 19.941406 13.558594 19.648438 13.101562 19.566406 12.980469 C 19.441406 12.808594 19.472656 12.640625 19.710938 12.164062 L 20.015625 11.570312 L 19.375 11.65625 C 18.234375 11.808594 18 11.957031 18.492188 12.222656 C 18.683594 12.324219 18.691406 12.375 18.542969 12.546875 C 18.449219 12.65625 18.402344 12.835938 18.445312 12.9375 C 18.484375 13.042969 18.433594 13.289062 18.328125 13.484375 C 18.21875 13.679688 18.128906 13.957031 18.125 14.097656 C 18.117188 14.535156 17.363281 14.886719 16.523438 14.839844 C 15.25 14.769531 15.144531 14.789062 14.695312 15.210938 C 14.128906 15.734375 14.054688 15.980469 14.320312 16.464844 C 14.574219 16.9375 15.027344 17.125 15.808594 17.085938 C 16.511719 17.050781 16.589844 17.113281 16.429688 17.578125 C 16.292969 17.972656 15.835938 18.121094 15.527344 17.875 C 15.289062 17.6875 14.464844 17.832031 14.210938 18.109375 C 14.105469 18.226562 13.949219 18.53125 13.863281 18.789062 C 13.714844 19.226562 13.671875 19.253906 13.011719 19.320312 C 12.351562 19.382812 12.285156 19.363281 11.8125 18.925781 C 11.28125 18.4375 11.191406 18.0625 11.445312 17.417969 C 11.558594 17.136719 11.644531 17.089844 11.945312 17.144531 C 12.546875 17.253906 12.78125 17.046875 12.78125 16.40625 C 12.78125 16.09375 12.722656 15.804688 12.648438 15.761719 C 12.574219 15.71875 12.515625 15.554688 12.515625 15.394531 C 12.515625 15.238281 12.4375 15.035156 12.347656 14.945312 C 12.210938 14.816406 12.230469 14.746094 12.445312 14.59375 C 12.59375 14.492188 12.835938 14.421875 12.980469 14.4375 C 13.128906 14.457031 13.535156 14.394531 13.886719 14.296875 C 14.394531 14.160156 14.542969 14.058594 14.609375 13.792969 C 14.738281 13.285156 15.058594 12.878906 15.324219 12.878906 C 15.742188 12.878906 15.75 11.890625 15.34375 10.457031 C 15.28125 10.242188 15.117188 10.109375 14.824219 10.035156 C 14.585938 9.976562 14.328125 9.816406 14.25 9.675781 C 14.171875 9.535156 14.03125 9.421875 13.933594 9.421875 C 13.835938 9.421875 13.648438 9.308594 13.515625 9.167969 C 13.382812 9.023438 13.105469 8.910156 12.894531 8.910156 C 12.394531 8.910156 12.386719 8.566406 12.882812 8.386719 C 13.40625 8.195312 14.21875 8.445312 14.414062 8.859375 C 14.683594 9.417969 14.976562 9.183594 15.074219 8.339844 C 15.191406 7.289062 15.550781 6.988281 16.691406 6.988281 L 17.511719 6.988281 L 17.152344 6.628906 C 17.039062 6.519531 16.949219 6.382812 16.882812 6.246094 Z M 21.132812 6.617188 C 21.109375 6.640625 21.085938 6.65625 21.0625 6.679688 C 20.789062 6.960938 20.660156 7 20.238281 6.933594 C 19.496094 6.820312 19.59375 7.121094 20.410156 7.480469 C 20.855469 7.675781 21.136719 7.894531 21.234375 8.121094 C 21.703125 9.203125 22.023438 9.785156 22.183594 9.84375 C 22.511719 9.964844 22.707031 9.722656 22.777344 9.109375 C 22.859375 8.402344 23.101562 8.253906 23.53125 8.636719 C 23.695312 8.789062 23.929688 8.910156 24.046875 8.910156 C 24.414062 8.910156 24.683594 9.058594 24.683594 9.257812 C 24.683594 9.363281 24.808594 9.613281 24.960938 9.820312 C 25.183594 10.121094 25.335938 10.191406 25.753906 10.191406 C 26.265625 10.191406 26.582031 10.289062 27.226562 10.640625 C 27.234375 10.648438 27.246094 10.648438 27.253906 10.65625 C 25.695312 8.695312 23.550781 7.28125 21.132812 6.617188 Z M 6.1875 17.949219 C 6.183594 17.964844 6.183594 17.984375 6.183594 18 C 6.1875 18.761719 6.265625 19.523438 6.414062 20.269531 C 6.84375 20.445312 6.960938 20.375 7.003906 19.976562 C 7.027344 19.769531 7.136719 19.535156 7.246094 19.457031 C 7.414062 19.332031 7.382812 19.269531 7.039062 19.03125 C 6.8125 18.878906 6.59375 18.613281 6.546875 18.4375 C 6.503906 18.269531 6.355469 18.085938 6.1875 17.949219 Z M 9.90625 21.855469 C 9.796875 21.84375 9.660156 21.902344 9.515625 22.042969 C 9.203125 22.34375 9.25 22.945312 9.601562 23.183594 C 10.007812 23.453125 10.164062 23.375 10.21875 22.871094 C 10.28125 22.253906 10.148438 21.878906 9.90625 21.855469 Z M 11.910156 23.640625 C 11.789062 23.644531 11.65625 23.730469 11.523438 23.914062 C 11.382812 24.105469 11.34375 24.355469 11.398438 24.734375 C 11.464844 25.195312 11.4375 25.296875 11.191406 25.421875 C 10.882812 25.582031 10.816406 26.054688 11.070312 26.300781 C 11.324219 26.542969 11.566406 26.480469 11.652344 26.144531 C 11.777344 25.671875 12.472656 25.617188 12.949219 26.042969 C 13.152344 26.222656 13.316406 26.316406 13.316406 26.246094 C 13.316406 26.175781 13.105469 25.921875 12.847656 25.683594 C 12.453125 25.320312 12.378906 25.164062 12.378906 24.691406 C 12.378906 24.027344 12.175781 23.632812 11.910156 23.640625 Z M 8.617188 25.167969 C 8.707031 25.285156 8.796875 25.398438 8.890625 25.511719 C 8.8125 25.386719 8.71875 25.269531 8.617188 25.167969 Z M 12.601562 26.980469 C 12.539062 27 12.515625 27.078125 12.515625 27.207031 C 12.515625 27.339844 12.429688 27.480469 12.324219 27.519531 C 12.1875 27.570312 12.15625 27.730469 12.207031 28.113281 C 12.21875 28.183594 12.222656 28.242188 12.226562 28.300781 C 12.386719 28.390625 12.550781 28.472656 12.714844 28.554688 C 12.707031 28.347656 12.746094 28.109375 12.851562 27.808594 C 13.035156 27.296875 13.039062 27.167969 12.894531 27.078125 C 12.753906 26.992188 12.660156 26.960938 12.601562 26.980469 Z M 12.601562 26.980469 "/>
<path style=" stroke:none;fill-rule:nonzero;fill:rgb(71.764706%,71.764706%,71.764706%);fill-opacity:1;" d="M 27.921875 31.265625 L 18.96875 31.265625 L 18.96875 26.789062 L 27.921875 26.789062 Z M 27.921875 31.265625 "/>
<path style=" stroke:none;fill-rule:nonzero;fill:rgb(60%,60%,60%);fill-opacity:1;" d="M 29.085938 27.234375 L 17.804688 27.234375 C 17.457031 27.234375 17.179688 26.949219 17.179688 26.601562 L 17.179688 20.257812 C 17.179688 19.90625 17.457031 19.625 17.804688 19.625 L 29.085938 19.625 C 29.433594 19.625 29.714844 19.90625 29.714844 20.257812 L 29.714844 26.601562 C 29.714844 26.949219 29.433594 27.234375 29.085938 27.234375 Z M 29.085938 27.234375 "/>
<path style=" stroke:none;fill-rule:nonzero;fill:rgb(50.196078%,50.196078%,50.196078%);fill-opacity:1;" d="M 27.027344 25.445312 L 19.863281 25.445312 L 19.863281 24.550781 L 27.027344 24.550781 Z M 27.027344 25.445312 "/>
<path style=" stroke:none;fill-rule:nonzero;fill:rgb(50.196078%,50.196078%,50.196078%);fill-opacity:1;" d="M 26.132812 23.652344 L 20.761719 23.652344 L 20.761719 22.757812 L 26.132812 22.757812 Z M 26.132812 23.652344 "/>
<path style=" stroke:none;fill-rule:nonzero;fill:rgb(50.196078%,50.196078%,50.196078%);fill-opacity:1;" d="M 25.238281 21.863281 L 21.65625 21.863281 L 21.65625 20.96875 L 25.238281 20.96875 Z M 25.238281 21.863281 "/>
<path style=" stroke:none;fill-rule:nonzero;fill:rgb(50.196078%,50.196078%,50.196078%);fill-opacity:1;" d="M 27.027344 30.367188 L 24.789062 30.367188 L 24.789062 29.027344 L 27.027344 29.027344 Z M 27.027344 30.367188 "/>
<path style=" stroke:none;fill-rule:nonzero;fill:rgb(50.196078%,50.196078%,50.196078%);fill-opacity:1;" d="M 22.101562 30.367188 L 19.863281 30.367188 L 19.863281 29.027344 L 22.101562 29.027344 Z M 22.101562 30.367188 "/>
</g>
</svg>
