<?xml version="1.0" encoding="UTF-8"?>
<svg xmlns="http://www.w3.org/2000/svg" xmlns:xlink="http://www.w3.org/1999/xlink" width="36pt" height="36pt" viewBox="0 0 36 36" version="1.1">
<defs>
<clipPath id="clip1">
  <rect width="36" height="36"/>
</clipPath>
<g id="surface6" clip-path="url(#clip1)">
<path style=" stroke:none;fill-rule:evenodd;fill:rgb(28.235294%,80.392157%,25.882353%);fill-opacity:1;" d="M 31.515625 24.636719 C 31.515625 28.367188 28.492188 31.386719 24.765625 31.386719 C 21.039062 31.386719 18.015625 28.367188 18.015625 24.636719 C 18.015625 20.910156 21.039062 17.886719 24.765625 17.886719 C 28.492188 17.886719 31.515625 20.910156 31.515625 24.636719 Z M 31.515625 24.636719 "/>
</g>
<clipPath id="clip2">
  <rect width="36" height="36"/>
</clipPath>
<g id="surface9" clip-path="url(#clip2)">
<path style=" stroke:none;fill-rule:nonzero;fill:rgb(100%,100%,100%);fill-opacity:1;" d="M 21.390625 21.265625 L 21.957031 21.265625 C 25.375 21.265625 28.140625 24.03125 28.140625 27.445312 L 28.140625 28.015625 L 27.574219 28.015625 C 27.269531 28.015625 27.023438 27.757812 27.023438 27.445312 C 27.023438 24.652344 24.753906 22.382812 21.960938 22.382812 C 21.65625 22.382812 21.394531 22.140625 21.394531 21.832031 L 21.394531 21.265625 Z M 21.390625 21.265625 "/>
<path style=" stroke:none;fill-rule:nonzero;fill:rgb(100%,100%,100%);fill-opacity:1;" d="M 21.390625 23.519531 L 21.957031 23.519531 C 24.132812 23.519531 25.886719 25.273438 25.886719 27.449219 L 25.886719 28.015625 L 25.332031 28.015625 C 25.027344 28.015625 24.765625 27.757812 24.765625 27.445312 C 24.765625 25.894531 23.511719 24.640625 21.957031 24.640625 C 21.652344 24.640625 21.390625 24.382812 21.390625 24.070312 Z M 21.390625 23.519531 "/>
<path style=" stroke:none;fill-rule:nonzero;fill:rgb(100%,100%,100%);fill-opacity:1;" d="M 22.511719 25.757812 C 23.132812 25.757812 23.648438 26.273438 23.648438 26.894531 C 23.648438 27.515625 23.132812 28.015625 22.515625 28.015625 C 21.890625 28.015625 21.394531 27.515625 21.394531 26.894531 C 21.394531 26.273438 21.894531 25.757812 22.515625 25.757812 Z M 22.511719 25.757812 "/>
</g>
</defs>
<g id="surface1">
<path style=" stroke:none;fill-rule:evenodd;fill:rgb(55.686275%,55.686275%,55.686275%);fill-opacity:1;" d="M 8.40625 2.136719 L 27.59375 2.136719 C 31.054688 2.136719 33.863281 4.945312 33.863281 8.40625 L 33.863281 27.59375 C 33.863281 31.054688 31.054688 33.863281 27.59375 33.863281 L 8.40625 33.863281 C 4.945312 33.863281 2.136719 31.054688 2.136719 27.59375 L 2.136719 8.40625 C 2.136719 4.945312 4.945312 2.136719 8.40625 2.136719 Z M 8.40625 2.136719 "/>
<path style=" stroke:none;fill-rule:nonzero;fill:rgb(27.843137%,27.843137%,27.843137%);fill-opacity:1;" d="M 10.027344 9.203125 L 25.972656 9.203125 C 28.058594 9.203125 29.753906 10.894531 29.753906 12.984375 L 29.753906 23.015625 C 29.753906 25.105469 28.058594 26.796875 25.972656 26.796875 L 10.027344 26.796875 C 7.941406 26.796875 6.246094 25.105469 6.246094 23.015625 L 6.246094 12.984375 C 6.246094 10.894531 7.941406 9.203125 10.027344 9.203125 Z M 10.027344 9.203125 "/>
<path style=" stroke:none;fill-rule:nonzero;fill:rgb(13.72549%,13.72549%,13.72549%);fill-opacity:1;" d="M 10.167969 10.316406 L 25.832031 10.316406 C 27.414062 10.316406 28.699219 11.546875 28.699219 13.066406 L 28.699219 22.933594 C 28.699219 24.453125 27.414062 25.683594 25.832031 25.683594 L 10.167969 25.683594 C 8.585938 25.683594 7.300781 24.453125 7.300781 22.933594 L 7.300781 13.066406 C 7.300781 11.546875 8.585938 10.316406 10.167969 10.316406 Z M 10.167969 10.316406 "/>
<use xlink:href="#surface6"/>
<use xlink:href="#surface9"/>
</g>
</svg>
