<?xml version="1.0" encoding="UTF-8"?>
<svg xmlns="http://www.w3.org/2000/svg" xmlns:xlink="http://www.w3.org/1999/xlink" width="36pt" height="36pt" viewBox="0 0 36 36" version="1.1">
<g id="surface1">
<path style=" stroke:none;fill-rule:evenodd;fill:rgb(90.588235%,29.803922%,23.529412%);fill-opacity:1;" d="M 2.136719 23.996094 L 13.269531 19.753906 C 13.210938 19.601562 13.160156 19.445312 13.117188 19.289062 C 13.074219 19.128906 13.039062 18.96875 13.011719 18.804688 C 12.984375 18.644531 12.964844 18.480469 12.953125 18.316406 C 12.945312 18.210938 12.941406 18.105469 12.941406 18 C 12.941406 17.835938 12.953125 17.671875 12.96875 17.507812 C 12.988281 17.34375 13.011719 17.179688 13.046875 17.019531 C 13.078125 16.859375 13.121094 16.699219 13.167969 16.542969 C 13.199219 16.441406 13.234375 16.34375 13.273438 16.246094 L 2.136719 12 Z M 2.136719 23.996094 "/>
<path style=" stroke:none;fill-rule:evenodd;fill:rgb(90.588235%,29.803922%,23.529412%);fill-opacity:1;" d="M 23.914062 33.863281 L 19.628906 22.605469 C 19.476562 22.664062 19.320312 22.714844 19.160156 22.757812 C 19 22.800781 18.839844 22.835938 18.679688 22.863281 C 18.515625 22.890625 18.351562 22.910156 18.1875 22.921875 C 18.085938 22.929688 17.980469 22.933594 17.875 22.933594 C 17.710938 22.933594 17.546875 22.921875 17.382812 22.90625 C 17.21875 22.890625 17.054688 22.863281 16.894531 22.828125 C 16.734375 22.796875 16.574219 22.753906 16.417969 22.707031 C 16.316406 22.675781 16.21875 22.640625 16.121094 22.601562 L 11.832031 33.863281 Z M 23.914062 33.863281 "/>
<path style=" stroke:none;fill-rule:evenodd;fill:rgb(90.588235%,29.803922%,23.529412%);fill-opacity:1;" d="M 33.863281 11.90625 L 22.480469 16.246094 C 22.539062 16.398438 22.589844 16.554688 22.632812 16.710938 C 22.675781 16.871094 22.710938 17.03125 22.738281 17.195312 C 22.765625 17.355469 22.785156 17.519531 22.792969 17.683594 C 22.800781 17.789062 22.804688 17.894531 22.804688 18 C 22.804688 18.164062 22.796875 18.328125 22.777344 18.492188 C 22.761719 18.65625 22.738281 18.820312 22.703125 18.980469 C 22.671875 19.140625 22.628906 19.300781 22.578125 19.457031 C 22.546875 19.554688 22.515625 19.652344 22.476562 19.75 L 33.863281 24.09375 Z M 33.863281 11.90625 "/>
<path style=" stroke:none;fill-rule:evenodd;fill:rgb(82.352941%,82.352941%,82.352941%);fill-opacity:1;" d="M 11.832031 2.136719 L 8.40625 2.136719 C 4.933594 2.136719 2.136719 4.933594 2.136719 8.410156 L 2.136719 12 L 13.273438 16.246094 C 13.234375 16.34375 13.199219 16.441406 13.167969 16.542969 C 13.121094 16.699219 13.078125 16.859375 13.046875 17.019531 C 13.011719 17.179688 12.988281 17.34375 12.96875 17.507812 C 12.953125 17.671875 12.941406 17.835938 12.941406 18 C 12.941406 18.105469 12.945312 18.210938 12.953125 18.316406 C 12.964844 18.480469 12.984375 18.644531 13.011719 18.804688 C 13.039062 18.96875 13.074219 19.128906 13.117188 19.289062 C 13.160156 19.445312 13.210938 19.601562 13.269531 19.753906 L 2.136719 23.996094 L 2.136719 27.59375 C 2.136719 31.066406 4.933594 33.863281 8.40625 33.863281 L 11.832031 33.863281 L 16.121094 22.601562 C 16.21875 22.640625 16.316406 22.675781 16.417969 22.707031 C 16.574219 22.753906 16.734375 22.796875 16.894531 22.828125 C 17.054688 22.863281 17.21875 22.890625 17.382812 22.90625 C 17.546875 22.921875 17.710938 22.933594 17.875 22.933594 C 17.980469 22.933594 18.085938 22.929688 18.1875 22.921875 C 18.351562 22.910156 18.515625 22.890625 18.679688 22.863281 C 18.839844 22.835938 19 22.800781 19.160156 22.757812 C 19.320312 22.714844 19.476562 22.664062 19.628906 22.605469 L 23.914062 33.863281 L 27.59375 33.863281 C 31.066406 33.863281 33.863281 31.066406 33.863281 27.59375 L 33.863281 24.09375 L 22.476562 19.75 C 22.515625 19.652344 22.546875 19.554688 22.578125 19.457031 C 22.628906 19.300781 22.671875 19.140625 22.703125 18.980469 C 22.738281 18.820312 22.761719 18.65625 22.777344 18.492188 C 22.796875 18.328125 22.804688 18.164062 22.804688 18 C 22.804688 17.894531 22.800781 17.789062 22.792969 17.683594 C 22.785156 17.519531 22.765625 17.355469 22.738281 17.195312 C 22.710938 17.03125 22.675781 16.871094 22.632812 16.710938 C 22.589844 16.554688 22.539062 16.398438 22.480469 16.246094 L 33.863281 11.90625 L 33.863281 8.410156 C 33.863281 4.933594 31.066406 2.136719 27.59375 2.136719 L 23.914062 2.136719 L 19.628906 13.398438 C 19.53125 13.359375 19.429688 13.324219 19.332031 13.292969 C 19.175781 13.246094 19.015625 13.203125 18.851562 13.171875 C 18.691406 13.136719 18.53125 13.113281 18.367188 13.097656 C 18.203125 13.078125 18.039062 13.070312 17.875 13.070312 C 17.769531 13.070312 17.664062 13.074219 17.558594 13.082031 C 17.394531 13.089844 17.234375 13.109375 17.070312 13.136719 C 16.910156 13.164062 16.746094 13.199219 16.589844 13.242188 C 16.429688 13.285156 16.273438 13.335938 16.121094 13.394531 Z M 11.832031 2.136719 "/>
<path style=" stroke:none;fill-rule:evenodd;fill:rgb(90.588235%,29.803922%,23.529412%);fill-opacity:1;" d="M 11.832031 2.136719 L 16.121094 13.394531 C 16.273438 13.335938 16.429688 13.285156 16.589844 13.242188 C 16.746094 13.199219 16.910156 13.164062 17.070312 13.136719 C 17.234375 13.109375 17.394531 13.089844 17.558594 13.082031 C 17.664062 13.074219 17.769531 13.070312 17.875 13.070312 C 18.039062 13.070312 18.203125 13.078125 18.367188 13.09375 C 18.53125 13.113281 18.691406 13.136719 18.851562 13.171875 C 19.015625 13.203125 19.175781 13.246094 19.332031 13.292969 C 19.429688 13.324219 19.53125 13.359375 19.628906 13.398438 L 23.914062 2.136719 Z M 11.832031 2.136719 "/>
</g>
</svg>
