<?xml version="1.0" encoding="UTF-8"?>
<svg xmlns="http://www.w3.org/2000/svg" xmlns:xlink="http://www.w3.org/1999/xlink" width="36pt" height="36pt" viewBox="0 0 36 36" version="1.1">
<defs>
<linearGradient id="linear0" gradientUnits="userSpaceOnUse" x1="0" y1="24" x2="0" y2="19" gradientTransform="matrix(1.03266,0,0,1.125,-5.641875,-9.5625)">
<stop offset="0" style="stop-color:rgb(28.235294%,28.235294%,28.235294%);stop-opacity:1;"/>
<stop offset="0.494" style="stop-color:rgb(31.372549%,31.372549%,31.372549%);stop-opacity:1;"/>
<stop offset="1" style="stop-color:rgb(28.235294%,28.235294%,28.235294%);stop-opacity:1;"/>
</linearGradient>
</defs>
<g id="surface1">
<path style=" stroke:none;fill-rule:evenodd;fill:rgb(80%,80%,80%);fill-opacity:1;" d="M 8.40625 2.136719 L 27.59375 2.136719 C 31.054688 2.136719 33.863281 4.945312 33.863281 8.40625 L 33.863281 27.59375 C 33.863281 31.054688 31.054688 33.863281 27.59375 33.863281 L 8.40625 33.863281 C 4.945312 33.863281 2.136719 31.054688 2.136719 27.59375 L 2.136719 8.40625 C 2.136719 4.945312 4.945312 2.136719 8.40625 2.136719 Z M 8.40625 2.136719 "/>
<path style=" stroke:none;fill-rule:evenodd;fill:url(#linear0);" d="M 7.300781 11.8125 C 6.996094 11.8125 6.75 12.0625 6.75 12.375 L 6.75 16.875 C 6.75 17.1875 6.996094 17.4375 7.300781 17.4375 L 25.335938 17.4375 C 26.433594 17.4375 27.316406 16.570312 27.386719 15.464844 C 27.800781 15.445312 28.125 15.074219 28.125 14.625 C 28.125 14.175781 27.800781 13.804688 27.390625 13.785156 C 27.320312 12.679688 26.4375 11.8125 25.339844 11.8125 Z M 7.300781 11.8125 "/>
<path style=" stroke:none;fill-rule:nonzero;fill:rgb(55.294118%,41.568627%,24.313725%);fill-opacity:1;" d="M 13.5 17.4375 L 13.5 19.6875 L 24.75 19.6875 L 29.25 24.1875 L 29.25 23.0625 L 24.75 17.4375 Z M 13.5 17.4375 "/>
<path style=" stroke:none;fill-rule:nonzero;fill:rgb(70.980392%,54.117647%,33.333333%);fill-opacity:1;" d="M 15.75 17.4375 C 13.886719 17.4375 12.375 18.949219 12.375 20.8125 C 12.375 22.675781 13.886719 24.1875 15.75 24.1875 C 17.613281 24.1875 19.125 22.675781 19.125 20.8125 C 19.125 18.949219 17.613281 17.4375 15.75 17.4375 Z M 16.085938 18.136719 C 16.566406 18.195312 17.019531 18.386719 17.402344 18.683594 L 16.085938 19.996094 L 16.085938 18.136719 M 15.414062 18.136719 L 15.414062 19.996094 L 14.09375 18.679688 C 14.476562 18.386719 14.933594 18.199219 15.414062 18.136719 M 17.882812 19.15625 C 18.179688 19.539062 18.367188 19.996094 18.425781 20.476562 L 16.566406 20.476562 Z M 13.621094 19.160156 L 14.9375 20.476562 L 13.074219 20.476562 C 13.136719 19.996094 13.324219 19.539062 13.621094 19.160156 M 13.074219 21.148438 L 14.9375 21.148438 L 13.617188 22.46875 C 13.324219 22.085938 13.136719 21.628906 13.074219 21.152344 M 16.566406 21.152344 L 18.425781 21.152344 C 18.367188 21.628906 18.175781 22.085938 17.882812 22.46875 L 16.566406 21.152344 M 15.414062 21.628906 L 15.414062 23.492188 C 14.933594 23.429688 14.476562 23.242188 14.097656 22.945312 L 15.414062 21.628906 M 16.085938 21.628906 L 17.40625 22.945312 C 17.023438 23.242188 16.566406 23.429688 16.085938 23.488281 Z M 16.085938 21.628906 "/>
</g>
</svg>
