<?xml version="1.0" encoding="UTF-8"?>
<svg xmlns="http://www.w3.org/2000/svg" xmlns:xlink="http://www.w3.org/1999/xlink" width="36pt" height="36pt" viewBox="0 0 36 36" version="1.1">
<defs>
<filter id="alpha" filterUnits="objectBoundingBox" x="0%" y="0%" width="100%" height="100%">
  <feColorMatrix type="matrix" in="SourceGraphic" values="0 0 0 0 1 0 0 0 0 1 0 0 0 0 1 0 0 0 1 0"/>
</filter>
<mask id="mask0">
  <g filter="url(#alpha)">
<rect x="0" y="0" width="36" height="36" style="fill:rgb(0%,0%,0%);fill-opacity:0.2;stroke:none;"/>
  </g>
</mask>
<clipPath id="clip1">
  <rect width="36" height="36"/>
</clipPath>
<g id="surface6" clip-path="url(#clip1)">
<path style=" stroke:none;fill-rule:nonzero;fill:rgb(100%,100%,100%);fill-opacity:1;" d="M 12.875 2.25 C 12.199219 2.25 11.335938 2.960938 11.25 3.839844 L 11.25 4.964844 C 11.335938 4.085938 12.199219 3.375 12.875 3.375 L 23.125 3.375 C 23.800781 3.375 24.75 4.082031 24.75 4.964844 L 24.75 3.839844 C 24.75 2.957031 23.800781 2.25 23.125 2.25 Z M 4.5 15.75 L 5.625 16.875 L 11.25 16.875 L 11.25 15.75 Z M 24.75 15.75 L 24.75 16.875 L 30.375 16.875 L 31.5 15.75 Z M 3.824219 30.375 C 2.953125 30.375 2.25 31.128906 2.25 32.0625 C 2.25 32.261719 2.289062 32.449219 2.347656 32.625 C 2.5625 31.96875 3.136719 31.5 3.824219 31.5 L 32.175781 31.5 C 32.859375 31.5 33.4375 31.96875 33.652344 32.625 C 33.710938 32.449219 33.75 32.261719 33.75 32.0625 C 33.75 31.128906 33.046875 30.375 32.175781 30.375 Z M 3.824219 30.375 "/>
</g>
</defs>
<g id="surface1">
<use xlink:href="#surface6" mask="url(#mask0)"/>
<path style=" stroke:none;fill-rule:evenodd;fill:rgb(32.156863%,59.607843%,87.45098%);fill-opacity:1;" d="M 8.40625 2.136719 L 27.59375 2.136719 C 31.054688 2.136719 33.863281 4.945312 33.863281 8.40625 L 33.863281 27.59375 C 33.863281 31.054688 31.054688 33.863281 27.59375 33.863281 L 8.40625 33.863281 C 4.945312 33.863281 2.136719 31.054688 2.136719 27.59375 L 2.136719 8.40625 C 2.136719 4.945312 4.945312 2.136719 8.40625 2.136719 Z M 8.40625 2.136719 "/>
<path style=" stroke:none;fill-rule:nonzero;fill:rgb(100%,100%,100%);fill-opacity:1;" d="M 14.957031 8.65625 C 14.558594 8.65625 14.046875 9.078125 13.996094 9.597656 L 13.996094 16.664062 L 9.992188 16.664062 L 18 24.671875 L 26.007812 16.664062 L 22.003906 16.664062 L 22.003906 9.597656 C 22.003906 9.078125 21.441406 8.65625 21.042969 8.65625 Z M 9.589844 25.339844 C 9.074219 25.339844 8.65625 25.789062 8.65625 26.34375 C 8.65625 26.898438 9.074219 27.34375 9.589844 27.34375 L 26.410156 27.34375 C 26.925781 27.34375 27.34375 26.898438 27.34375 26.34375 C 27.34375 25.789062 26.925781 25.339844 26.410156 25.339844 Z M 9.589844 25.339844 "/>
</g>
</svg>
