<?xml version="1.0" encoding="UTF-8"?>
<svg xmlns="http://www.w3.org/2000/svg" xmlns:xlink="http://www.w3.org/1999/xlink" width="36pt" height="36pt" viewBox="0 0 36 36" version="1.1">
<g id="surface1">
<path style=" stroke:none;fill-rule:evenodd;fill:rgb(32.156863%,59.607843%,87.45098%);fill-opacity:1;" d="M 8.40625 2.136719 L 27.59375 2.136719 C 31.054688 2.136719 33.863281 4.945312 33.863281 8.40625 L 33.863281 27.59375 C 33.863281 31.054688 31.054688 33.863281 27.59375 33.863281 L 8.40625 33.863281 C 4.945312 33.863281 2.136719 31.054688 2.136719 27.59375 L 2.136719 8.40625 C 2.136719 4.945312 4.945312 2.136719 8.40625 2.136719 Z M 8.40625 2.136719 "/>
<path style=" stroke:none;fill-rule:nonzero;fill:rgb(100%,100%,100%);fill-opacity:1;" d="M 14.957031 8.65625 C 14.558594 8.65625 14.046875 9.078125 13.996094 9.597656 L 13.996094 16.664062 L 9.992188 16.664062 L 18 24.671875 L 26.007812 16.664062 L 22.003906 16.664062 L 22.003906 9.597656 C 22.003906 9.078125 21.441406 8.65625 21.042969 8.65625 Z M 9.589844 25.339844 C 9.074219 25.339844 8.65625 25.789062 8.65625 26.34375 C 8.65625 26.898438 9.074219 27.34375 9.589844 27.34375 L 26.410156 27.34375 C 26.925781 27.34375 27.34375 26.898438 27.34375 26.34375 C 27.34375 25.789062 26.925781 25.339844 26.410156 25.339844 Z M 9.589844 25.339844 "/>
</g>
</svg>
