<?xml version="1.0" encoding="UTF-8"?>
<svg xmlns="http://www.w3.org/2000/svg" xmlns:xlink="http://www.w3.org/1999/xlink" width="36pt" height="36pt" viewBox="0 0 36 36" version="1.1">
<g id="surface1">
<path style=" stroke:none;fill-rule:evenodd;fill:rgb(35.686275%,35.686275%,35.686275%);fill-opacity:1;" d="M 8.40625 2.136719 L 27.59375 2.136719 C 31.054688 2.136719 33.863281 4.945312 33.863281 8.40625 L 33.863281 27.59375 C 33.863281 31.054688 31.054688 33.863281 27.59375 33.863281 L 8.40625 33.863281 C 4.945312 33.863281 2.136719 31.054688 2.136719 27.59375 L 2.136719 8.40625 C 2.136719 4.945312 4.945312 2.136719 8.40625 2.136719 Z M 8.40625 2.136719 "/>
<path style=" stroke:none;fill-rule:nonzero;fill:rgb(35.686275%,35.686275%,35.686275%);fill-opacity:1;" d="M 6.863281 9.160156 L 29.136719 9.160156 C 29.820312 9.160156 30.375 9.714844 30.375 10.398438 L 30.375 25.601562 C 30.375 26.285156 29.820312 26.839844 29.136719 26.839844 L 6.863281 26.839844 C 6.179688 26.839844 5.625 26.285156 5.625 25.601562 L 5.625 10.398438 C 5.625 9.714844 6.179688 9.160156 6.863281 9.160156 Z M 6.863281 9.160156 "/>
<path style=" stroke:none;fill-rule:nonzero;fill:rgb(80%,80%,80%);fill-opacity:1;" d="M 10.042969 13.136719 C 10.042969 13.871094 9.449219 14.464844 8.71875 14.464844 C 7.988281 14.464844 7.394531 13.871094 7.394531 13.136719 C 7.394531 12.40625 7.988281 11.8125 8.71875 11.8125 C 9.449219 11.8125 10.042969 12.40625 10.042969 13.136719 Z M 10.042969 13.136719 "/>
<path style=" stroke:none;fill-rule:nonzero;fill:rgb(80%,80%,80%);fill-opacity:1;" d="M 14.464844 13.136719 C 14.464844 13.871094 13.871094 14.464844 13.136719 14.464844 C 12.40625 14.464844 11.8125 13.871094 11.8125 13.136719 C 11.8125 12.40625 12.40625 11.8125 13.136719 11.8125 C 13.871094 11.8125 14.464844 12.40625 14.464844 13.136719 Z M 14.464844 13.136719 "/>
<path style=" stroke:none;fill-rule:nonzero;fill:rgb(80%,80%,80%);fill-opacity:1;" d="M 18.882812 13.136719 C 18.882812 13.871094 18.289062 14.464844 17.558594 14.464844 C 16.824219 14.464844 16.230469 13.871094 16.230469 13.136719 C 16.230469 12.40625 16.824219 11.8125 17.558594 11.8125 C 18.289062 11.8125 18.882812 12.40625 18.882812 13.136719 Z M 18.882812 13.136719 "/>
<path style=" stroke:none;fill-rule:nonzero;fill:rgb(80%,80%,80%);fill-opacity:1;" d="M 23.304688 13.136719 C 23.304688 13.871094 22.710938 14.464844 21.976562 14.464844 C 21.246094 14.464844 20.652344 13.871094 20.652344 13.136719 C 20.652344 12.40625 21.246094 11.8125 21.976562 11.8125 C 22.710938 11.8125 23.304688 12.40625 23.304688 13.136719 Z M 23.304688 13.136719 "/>
<path style=" stroke:none;fill-rule:nonzero;fill:rgb(100%,53.333333%,20.392157%);fill-opacity:1;" d="M 27.722656 13.136719 C 27.722656 13.871094 27.128906 14.464844 26.398438 14.464844 C 25.664062 14.464844 25.070312 13.871094 25.070312 13.136719 C 25.070312 12.40625 25.664062 11.8125 26.398438 11.8125 C 27.128906 11.8125 27.722656 12.40625 27.722656 13.136719 Z M 27.722656 13.136719 "/>
<path style=" stroke:none;fill-rule:nonzero;fill:rgb(80%,80%,80%);fill-opacity:1;" d="M 12.695312 18.441406 C 12.695312 19.175781 12.101562 19.769531 11.371094 19.769531 C 10.636719 19.769531 10.042969 19.175781 10.042969 18.441406 C 10.042969 17.710938 10.636719 17.117188 11.371094 17.117188 C 12.101562 17.117188 12.695312 17.710938 12.695312 18.441406 Z M 12.695312 18.441406 "/>
<path style=" stroke:none;fill-rule:nonzero;fill:rgb(80%,80%,80%);fill-opacity:1;" d="M 17.117188 18.441406 C 17.117188 19.175781 16.523438 19.769531 15.789062 19.769531 C 15.058594 19.769531 14.464844 19.175781 14.464844 18.441406 C 14.464844 17.710938 15.058594 17.117188 15.789062 17.117188 C 16.523438 17.117188 17.117188 17.710938 17.117188 18.441406 Z M 17.117188 18.441406 "/>
<path style=" stroke:none;fill-rule:nonzero;fill:rgb(100%,53.333333%,20.392157%);fill-opacity:1;" d="M 21.535156 18.441406 C 21.535156 19.175781 20.941406 19.769531 20.210938 19.769531 C 19.476562 19.769531 18.882812 19.175781 18.882812 18.441406 C 18.882812 17.710938 19.476562 17.117188 20.210938 17.117188 C 20.941406 17.117188 21.535156 17.710938 21.535156 18.441406 Z M 21.535156 18.441406 "/>
<path style=" stroke:none;fill-rule:nonzero;fill:rgb(80%,80%,80%);fill-opacity:1;" d="M 25.957031 18.441406 C 25.957031 19.175781 25.363281 19.769531 24.628906 19.769531 C 23.898438 19.769531 23.304688 19.175781 23.304688 18.441406 C 23.304688 17.710938 23.898438 17.117188 24.628906 17.117188 C 25.363281 17.117188 25.957031 17.710938 25.957031 18.441406 Z M 25.957031 18.441406 "/>
<path style=" stroke:none;fill-rule:nonzero;fill:rgb(80%,80%,80%);fill-opacity:1;" d="M 9.824219 22.417969 L 26.175781 22.417969 C 26.542969 22.417969 26.839844 22.714844 26.839844 23.082031 L 26.839844 24.410156 C 26.839844 24.773438 26.542969 25.070312 26.175781 25.070312 L 9.824219 25.070312 C 9.457031 25.070312 9.160156 24.773438 9.160156 24.410156 L 9.160156 23.082031 C 9.160156 22.714844 9.457031 22.417969 9.824219 22.417969 Z M 9.824219 22.417969 "/>
</g>
</svg>
