<?xml version="1.0" encoding="UTF-8"?>
<svg xmlns="http://www.w3.org/2000/svg" xmlns:xlink="http://www.w3.org/1999/xlink" width="36pt" height="36pt" viewBox="0 0 36 36" version="1.1">
<g id="surface1">
<path style=" stroke:none;fill-rule:evenodd;fill:rgb(100%,74.117647%,55.686275%);fill-opacity:1;" d="M 8.40625 2.136719 L 27.59375 2.136719 C 31.054688 2.136719 33.863281 4.945312 33.863281 8.40625 L 33.863281 27.59375 C 33.863281 31.054688 31.054688 33.863281 27.59375 33.863281 L 8.40625 33.863281 C 4.945312 33.863281 2.136719 31.054688 2.136719 27.59375 L 2.136719 8.40625 C 2.136719 4.945312 4.945312 2.136719 8.40625 2.136719 Z M 8.40625 2.136719 "/>
<path style=" stroke:none;fill-rule:nonzero;fill:rgb(30.196078%,30.196078%,30.196078%);fill-opacity:1;" d="M 14.625 12.375 C 14.625 13.617188 13.617188 14.625 12.375 14.625 C 11.132812 14.625 10.125 13.617188 10.125 12.375 C 10.125 11.132812 11.132812 10.125 12.375 10.125 C 13.617188 10.125 14.625 11.132812 14.625 12.375 Z M 14.625 12.375 "/>
<path style=" stroke:none;fill-rule:nonzero;fill:rgb(30.196078%,30.196078%,30.196078%);fill-opacity:1;" d="M 25.875 12.375 C 25.875 13.617188 24.867188 14.625 23.625 14.625 C 22.382812 14.625 21.375 13.617188 21.375 12.375 C 21.375 11.132812 22.382812 10.125 23.625 10.125 C 24.867188 10.125 25.875 11.132812 25.875 12.375 Z M 25.875 12.375 "/>
<path style=" stroke:none;fill-rule:nonzero;fill:rgb(30.196078%,30.196078%,30.196078%);fill-opacity:1;" d="M 12.007812 21.71875 C 13.242188 24.289062 15.527344 25.871094 18 25.875 C 20.472656 25.871094 22.753906 24.285156 23.988281 21.71875 L 23.144531 21.71875 C 21.835938 23.476562 19.964844 24.484375 18 24.488281 C 16.035156 24.484375 14.164062 23.476562 12.851562 21.71875 Z M 12.007812 21.71875 "/>
<path style=" stroke:none;fill-rule:nonzero;fill:rgb(30.196078%,30.196078%,30.196078%);fill-opacity:1;" d="M 18 15.75 C 15.515625 15.75 13.5 17.261719 13.5 19.125 C 13.5 20.988281 15.515625 22.5 18 22.5 C 20.484375 22.5 22.5 20.988281 22.5 19.125 C 22.5 17.261719 20.484375 15.75 18 15.75 Z M 15.75 18 C 16.371094 18 16.875 18.503906 16.875 19.125 C 16.875 19.746094 16.371094 20.25 15.75 20.25 C 15.128906 20.25 14.625 19.746094 14.625 19.125 C 14.625 18.503906 15.128906 18 15.75 18 Z M 20.25 18 C 20.871094 18 21.375 18.503906 21.375 19.125 C 21.375 19.746094 20.871094 20.25 20.25 20.25 C 19.628906 20.25 19.125 19.746094 19.125 19.125 C 19.125 18.503906 19.628906 18 20.25 18 Z M 20.25 18 "/>
</g>
</svg>
