<?xml version="1.0" encoding="UTF-8"?>
<svg xmlns="http://www.w3.org/2000/svg" xmlns:xlink="http://www.w3.org/1999/xlink" width="36pt" height="36pt" viewBox="0 0 36 36" version="1.1">
<g id="surface1">
<path style=" stroke:none;fill-rule:evenodd;fill:rgb(66.27451%,28.627451%,7.058824%);fill-opacity:1;" d="M 8.40625 2.136719 L 27.59375 2.136719 C 31.054688 2.136719 33.863281 4.945312 33.863281 8.40625 L 33.863281 27.59375 C 33.863281 31.054688 31.054688 33.863281 27.59375 33.863281 L 8.40625 33.863281 C 4.945312 33.863281 2.136719 31.054688 2.136719 27.59375 L 2.136719 8.40625 C 2.136719 4.945312 4.945312 2.136719 8.40625 2.136719 Z M 8.40625 2.136719 "/>
<path style=" stroke:none;fill-rule:nonzero;fill:rgb(92.941176%,64.313725%,34.509804%);fill-opacity:1;" d="M 15.75 18.5625 L 20.25 18.5625 L 19.125 29.8125 L 16.875 29.8125 Z M 15.75 18.5625 "/>
<path style=" stroke:none;fill-rule:nonzero;fill:rgb(92.941176%,64.313725%,34.509804%);fill-opacity:1;" d="M 18 6.1875 C 14.273438 6.1875 11.25 9.210938 11.25 12.9375 C 11.25 16.664062 14.273438 19.6875 18 19.6875 C 21.726562 19.6875 24.75 16.664062 24.75 12.9375 C 24.75 9.210938 21.726562 6.1875 18 6.1875 Z M 18 7.3125 C 20.484375 7.3125 22.5 9.328125 22.5 11.8125 C 22.5 14.296875 20.484375 16.3125 18 16.3125 C 15.515625 16.3125 13.5 14.296875 13.5 11.8125 C 13.5 9.328125 15.515625 7.3125 18 7.3125 Z M 18 7.3125 "/>
<path style=" stroke:none;fill-rule:nonzero;fill:rgb(96.078431%,38.039216%,38.039216%);fill-opacity:1;" d="M 22.5 19.6875 L 22.5 21.9375 L 13.5 21.9375 L 13.5 19.6875 Z M 22.5 19.6875 "/>
</g>
</svg>
