<?xml version="1.0" encoding="UTF-8"?>
<svg xmlns="http://www.w3.org/2000/svg" xmlns:xlink="http://www.w3.org/1999/xlink" width="36pt" height="36pt" viewBox="0 0 36 36" version="1.1">
<g id="surface1">
<path style=" stroke:none;fill-rule:evenodd;fill:rgb(100%,100%,100%);fill-opacity:1;" d="M 8.40625 2.136719 L 27.59375 2.136719 C 31.054688 2.136719 33.863281 4.945312 33.863281 8.40625 L 33.863281 27.59375 C 33.863281 31.054688 31.054688 33.863281 27.59375 33.863281 L 8.40625 33.863281 C 4.945312 33.863281 2.136719 31.054688 2.136719 27.59375 L 2.136719 8.40625 C 2.136719 4.945312 4.945312 2.136719 8.40625 2.136719 Z M 8.40625 2.136719 "/>
<path style=" stroke:none;fill-rule:evenodd;fill:rgb(76.862745%,60.392157%,42.352941%);fill-opacity:1;" d="M 8.40625 2.136719 C 4.933594 2.136719 2.136719 4.933594 2.136719 8.40625 L 2.136719 27.589844 C 2.136719 28.339844 2.273438 29.050781 2.511719 29.714844 L 3.972656 29.714844 L 3.972656 30.429688 L 2.816406 30.429688 C 3.851562 32.46875 5.957031 33.863281 8.40625 33.863281 L 27.59375 33.863281 C 31.066406 33.863281 33.863281 31.066406 33.863281 27.589844 L 33.863281 8.40625 C 33.863281 4.933594 31.066406 2.136719 27.59375 2.136719 Z M 3.34375 5.570312 L 6.199219 5.570312 L 6.199219 6.285156 L 3.34375 6.285156 Z M 7.628906 5.570312 L 10.484375 5.570312 L 10.484375 6.285156 L 7.628906 6.285156 Z M 11.914062 5.570312 L 14.773438 5.570312 L 14.773438 6.285156 L 11.914062 6.285156 Z M 16.199219 5.570312 L 19.058594 5.570312 L 19.058594 6.285156 L 16.199219 6.285156 Z M 20.488281 5.570312 L 23.34375 5.570312 L 23.34375 6.285156 L 20.488281 6.285156 Z M 24.773438 5.570312 L 25.335938 5.570312 L 26.300781 5.667969 L 26.371094 5.683594 L 27.265625 5.957031 L 27.332031 5.984375 L 27.703125 6.1875 L 27.363281 6.816406 L 27.027344 6.632812 L 26.199219 6.375 L 25.285156 6.285156 L 24.773438 6.285156 Z M 28.960938 7.105469 L 29.535156 7.800781 L 29.574219 7.855469 L 30.011719 8.667969 L 30.039062 8.730469 L 30.316406 9.628906 L 30.332031 9.699219 L 30.34375 9.796875 L 29.628906 9.867188 L 29.625 9.8125 L 29.367188 8.972656 L 28.964844 8.234375 L 28.410156 7.558594 Z M 29.714844 11.253906 L 30.429688 11.253906 L 30.429688 14.113281 L 29.714844 14.113281 Z M 29.714844 15.542969 L 30.429688 15.542969 L 30.429688 18.398438 L 29.714844 18.398438 Z M 29.714844 19.828125 L 30.429688 19.828125 L 30.429688 22.683594 L 29.714844 22.683594 Z M 29.714844 24.113281 L 30.429688 24.113281 L 30.429688 25.300781 L 30.425781 25.335938 L 30.332031 26.300781 L 30.316406 26.371094 L 30.109375 27.039062 L 29.429688 26.828125 L 29.625 26.1875 L 29.714844 25.285156 Z M 28.8125 27.953125 L 29.363281 28.40625 L 28.953125 28.90625 L 28.90625 28.953125 L 28.199219 29.535156 L 28.140625 29.574219 L 27.332031 30.011719 L 27.265625 30.039062 L 26.90625 30.152344 L 26.695312 29.46875 L 27.019531 29.367188 L 27.777344 28.960938 L 28.421875 28.425781 Z M 25.367188 29.707031 L 25.4375 30.417969 L 25.335938 30.429688 L 22.546875 30.429688 L 22.546875 29.714844 L 25.285156 29.714844 Z M 5.402344 29.714844 L 8.257812 29.714844 L 8.257812 30.429688 L 5.402344 30.429688 Z M 9.6875 29.714844 L 12.542969 29.714844 L 12.542969 30.429688 L 9.6875 30.429688 Z M 13.972656 29.714844 L 16.832031 29.714844 L 16.832031 30.429688 L 13.972656 30.429688 Z M 18.257812 29.714844 L 21.117188 29.714844 L 21.117188 30.429688 L 18.257812 30.429688 Z M 18.257812 29.714844 "/>
<path style=" stroke:none;fill-rule:nonzero;fill:rgb(60.784314%,43.137255%,24.313725%);fill-opacity:1;" d="M 27.5625 13.5 L 33.863281 13.5 L 33.863281 22.5 L 27.5625 22.5 C 26.691406 22.5 25.988281 21.832031 25.988281 21 L 25.988281 15 C 25.988281 14.167969 26.691406 13.5 27.5625 13.5 Z M 27.5625 13.5 "/>
<path style=" stroke:none;fill-rule:nonzero;fill:rgb(100%,100%,100%);fill-opacity:1;" d="M 28.019531 14.0625 L 28.019531 14.25 L 28 14.0625 L 27.925781 14.070312 L 27.96875 14.441406 L 28.019531 14.4375 L 28.816406 14.4375 L 28.816406 14.0625 Z M 29.210938 14.0625 L 29.210938 14.4375 L 30.007812 14.4375 L 30.007812 14.0625 Z M 30.402344 14.0625 L 30.402344 14.4375 L 31.199219 14.4375 L 31.199219 14.0625 Z M 31.59375 14.0625 L 31.59375 14.4375 L 32.390625 14.4375 L 32.390625 14.0625 Z M 32.785156 14.0625 L 32.785156 14.4375 L 33.300781 14.4375 L 33.300781 14.0625 Z M 27.5 14.160156 L 27.464844 14.167969 L 27.445312 14.175781 L 27.429688 14.183594 L 27.214844 14.300781 L 27.195312 14.308594 L 27.179688 14.320312 L 26.992188 14.472656 L 26.980469 14.484375 L 26.964844 14.496094 L 26.8125 14.683594 L 26.800781 14.695312 L 26.792969 14.714844 L 26.785156 14.722656 L 27.011719 14.832031 L 27.121094 14.914062 L 27.269531 14.742188 L 27.421875 14.617188 L 27.605469 14.519531 L 27.621094 14.511719 L 27.625 14.507812 L 27.617188 14.496094 L 27.5 14.15625 Z M 26.617188 15.097656 L 26.585938 15.195312 L 26.582031 15.210938 L 26.578125 15.230469 L 26.554688 15.480469 L 26.550781 15.488281 L 26.550781 15.898438 L 26.949219 15.898438 L 26.949219 15.5 L 26.972656 15.28125 L 26.996094 15.207031 Z M 26.550781 16.273438 L 26.550781 17.023438 L 26.949219 17.023438 L 26.949219 16.273438 Z M 26.550781 17.398438 L 26.550781 18.148438 L 26.949219 18.148438 L 26.949219 17.398438 Z M 26.550781 18.523438 L 26.550781 19.273438 L 26.949219 19.273438 L 26.949219 18.523438 Z M 26.550781 19.648438 L 26.550781 20.398438 L 26.949219 20.398438 L 26.949219 19.648438 Z M 26.972656 20.714844 L 26.59375 20.824219 L 26.660156 21.039062 L 26.664062 21.058594 L 26.675781 21.074219 L 26.792969 21.285156 L 26.800781 21.300781 L 26.8125 21.316406 L 26.964844 21.5 L 26.992188 21.527344 L 27.03125 21.558594 L 27.289062 21.273438 L 27.269531 21.253906 L 27.136719 21.097656 L 27.035156 20.914062 Z M 27.582031 21.464844 L 27.386719 21.792969 L 27.429688 21.816406 L 27.445312 21.824219 L 27.464844 21.828125 L 27.703125 21.902344 L 27.722656 21.910156 L 27.742188 21.910156 L 28 21.9375 L 28.261719 21.9375 L 28.261719 21.5625 L 28.019531 21.5625 L 27.800781 21.539062 L 27.601562 21.476562 Z M 28.65625 21.5625 L 28.65625 21.9375 L 29.449219 21.9375 L 29.449219 21.5625 Z M 29.847656 21.5625 L 29.847656 21.9375 L 30.640625 21.9375 L 30.640625 21.5625 Z M 31.039062 21.5625 L 31.039062 21.9375 L 31.832031 21.9375 L 31.832031 21.5625 Z M 32.230469 21.5625 L 32.230469 21.9375 L 33.023438 21.9375 L 33.023438 21.5625 Z M 32.230469 21.5625 "/>
<path style=" stroke:none;fill-rule:nonzero;fill:rgb(100%,100%,100%);fill-opacity:1;" d="M 30.636719 18.074219 C 30.636719 18.660156 30.164062 19.136719 29.578125 19.136719 C 28.996094 19.136719 28.519531 18.660156 28.519531 18.074219 C 28.519531 17.488281 28.996094 17.011719 29.578125 17.011719 C 30.164062 17.011719 30.636719 17.488281 30.636719 18.074219 Z M 30.636719 18.074219 "/>
<path style=" stroke:none;fill-rule:nonzero;fill:rgb(0%,0%,0%);fill-opacity:0.494118;" d="M 12.097656 17.226562 L 10.121094 17.40625 L 10.121094 25.109375 L 12.078125 24.828125 L 12.078125 21.542969 L 14.710938 25.1875 L 16.769531 24.566406 L 14.074219 21.066406 L 16.792969 17.761719 L 14.6875 17.304688 L 12.078125 20.609375 Z M 7.617188 19.101562 C 7.597656 19.105469 7.570312 19.109375 7.554688 19.128906 L 6.777344 19.863281 C 6.746094 19.894531 6.742188 19.941406 6.765625 19.980469 L 7.671875 21.398438 C 7.511719 21.652344 7.382812 21.929688 7.289062 22.21875 L 5.621094 22.546875 C 5.574219 22.554688 5.539062 22.597656 5.539062 22.640625 L 5.539062 23.679688 C 5.539062 23.726562 5.574219 23.761719 5.621094 23.773438 L 7.238281 24.144531 C 7.324219 24.480469 7.457031 24.804688 7.636719 25.097656 L 6.699219 26.449219 C 6.671875 26.488281 6.675781 26.539062 6.710938 26.570312 L 7.488281 27.304688 C 7.519531 27.335938 7.570312 27.339844 7.609375 27.316406 L 9.078125 26.472656 C 9.367188 26.632812 9.679688 26.757812 10.007812 26.839844 L 10.351562 28.398438 C 10.359375 28.445312 10.402344 28.476562 10.449219 28.476562 L 11.546875 28.476562 C 11.59375 28.476562 11.632812 28.445312 11.644531 28.402344 L 12.046875 26.835938 C 12.386719 26.75 12.707031 26.621094 13.003906 26.457031 L 14.453125 27.355469 C 14.492188 27.378906 14.542969 27.375 14.578125 27.34375 L 15.351562 26.609375 C 15.382812 26.578125 15.390625 26.53125 15.367188 26.492188 L 14.839844 25.671875 L 14.667969 25.722656 C 14.640625 25.730469 14.613281 25.71875 14.597656 25.699219 C 14.597656 25.699219 14.265625 25.234375 13.832031 24.632812 C 13.308594 25.59375 12.25 26.253906 11.027344 26.253906 C 9.289062 26.253906 7.878906 24.921875 7.878906 23.277344 C 7.878906 22.070312 8.644531 21.03125 9.738281 20.566406 L 9.738281 19.796875 C 9.539062 19.863281 9.347656 19.941406 9.164062 20.039062 C 9.164062 20.039062 9.164062 20.03125 9.164062 20.03125 L 7.683594 19.113281 C 7.660156 19.101562 7.640625 19.101562 7.617188 19.101562 Z M 7.617188 19.101562 "/>
</g>
</svg>
