<?xml version="1.0" encoding="UTF-8"?>
<svg xmlns="http://www.w3.org/2000/svg" xmlns:xlink="http://www.w3.org/1999/xlink" width="36pt" height="36pt" viewBox="0 0 36 36" version="1.1">
<g id="surface1">
<path style=" stroke:none;fill-rule:evenodd;fill:rgb(28.627451%,56.078431%,71.764706%);fill-opacity:1;" d="M 8.40625 2.136719 L 27.59375 2.136719 C 31.054688 2.136719 33.863281 4.945312 33.863281 8.40625 L 33.863281 27.59375 C 33.863281 31.054688 31.054688 33.863281 27.59375 33.863281 L 8.40625 33.863281 C 4.945312 33.863281 2.136719 31.054688 2.136719 27.59375 L 2.136719 8.40625 C 2.136719 4.945312 4.945312 2.136719 8.40625 2.136719 Z M 8.40625 2.136719 "/>
<path style="fill:none;stroke-width:1;stroke-linecap:round;stroke-linejoin:round;stroke:rgb(64.705882%,74.509804%,86.27451%);stroke-opacity:1;stroke-miterlimit:4;" d="M 8 18.5 L 10 8.5 L 11 23.5 L 12 9.5 L 13 22.5 L 14 11.5 L 15 18.5 L 17 9.5 L 17 21.5 L 19 8.5 L 21 23.5 L 22 12.5 L 24 17.5 " transform="matrix(1.125,0,0,1.125,0,0)"/>
</g>
</svg>
