<?xml version="1.0" encoding="UTF-8"?>
<svg xmlns="http://www.w3.org/2000/svg" xmlns:xlink="http://www.w3.org/1999/xlink" width="36pt" height="36pt" viewBox="0 0 36 36" version="1.1">
<g id="surface1">
<path style=" stroke:none;fill-rule:evenodd;fill:rgb(80%,80%,80%);fill-opacity:1;" d="M 8.40625 2.136719 L 27.59375 2.136719 C 31.054688 2.136719 33.863281 4.945312 33.863281 8.40625 L 33.863281 27.59375 C 33.863281 31.054688 31.054688 33.863281 27.59375 33.863281 L 8.40625 33.863281 C 4.945312 33.863281 2.136719 31.054688 2.136719 27.59375 L 2.136719 8.40625 C 2.136719 4.945312 4.945312 2.136719 8.40625 2.136719 Z M 8.40625 2.136719 "/>
<path style=" stroke:none;fill-rule:nonzero;fill:rgb(40%,40%,40%);fill-opacity:1;" d="M 7.09375 8.515625 L 7.09375 9.640625 L 16.09375 9.640625 L 16.09375 8.515625 Z M 7.09375 10.765625 L 7.09375 11.890625 L 11.59375 11.890625 L 11.59375 10.765625 Z M 7.09375 13.015625 L 7.09375 14.140625 L 12.71875 14.140625 L 12.71875 13.015625 Z M 7.09375 15.265625 L 7.09375 16.390625 L 9.34375 16.390625 L 9.34375 15.265625 Z M 7.09375 17.515625 L 7.09375 18.640625 L 12.71875 18.640625 L 12.71875 17.515625 Z M 7.09375 17.515625 "/>
</g>
</svg>
