<?xml version="1.0" encoding="UTF-8"?>
<svg xmlns="http://www.w3.org/2000/svg" xmlns:xlink="http://www.w3.org/1999/xlink" width="36pt" height="36pt" viewBox="0 0 36 36" version="1.1">
<g id="surface1">
<path style=" stroke:none;fill-rule:evenodd;fill:rgb(35.294118%,63.921569%,19.215686%);fill-opacity:1;" d="M 8.40625 2.136719 L 27.59375 2.136719 C 31.054688 2.136719 33.863281 4.945312 33.863281 8.40625 L 33.863281 27.59375 C 33.863281 31.054688 31.054688 33.863281 27.59375 33.863281 L 8.40625 33.863281 C 4.945312 33.863281 2.136719 31.054688 2.136719 27.59375 L 2.136719 8.40625 C 2.136719 4.945312 4.945312 2.136719 8.40625 2.136719 Z M 8.40625 2.136719 "/>
<path style=" stroke:none;fill-rule:nonzero;fill:rgb(93.72549%,93.72549%,93.72549%);fill-opacity:1;" d="M 29.25 18 C 29.25 24.214844 24.214844 29.25 18 29.25 C 11.785156 29.25 6.75 24.214844 6.75 18 C 6.75 11.785156 11.785156 6.75 18 6.75 C 24.214844 6.75 29.25 11.785156 29.25 18 Z M 29.25 18 "/>
<path style=" stroke:none;fill-rule:nonzero;fill:rgb(100%,20.784314%,18.039216%);fill-opacity:1;" d="M 14.160156 26.886719 C 14.097656 26.855469 13.992188 26.765625 13.929688 26.683594 C 13.863281 26.601562 13.699219 26.421875 13.558594 26.289062 C 13.347656 26.082031 13.285156 26.042969 13.175781 26.035156 C 13.105469 26.035156 12.992188 25.984375 12.921875 25.933594 C 12.785156 25.839844 12.542969 25.558594 12.542969 25.496094 C 12.542969 25.445312 12.390625 25.394531 12.242188 25.394531 C 11.976562 25.394531 11.78125 25.265625 11.71875 25.050781 C 11.699219 24.976562 11.648438 24.832031 11.609375 24.726562 C 11.542969 24.5625 11.511719 24.527344 11.40625 24.484375 C 10.8125 24.253906 10.800781 24.242188 10.703125 24.015625 C 10.667969 23.933594 10.609375 23.824219 10.570312 23.773438 C 10.515625 23.699219 10.503906 23.648438 10.523438 23.519531 C 10.542969 23.390625 10.53125 23.332031 10.472656 23.226562 C 10.40625 23.105469 10.40625 23.085938 10.453125 22.984375 C 10.480469 22.921875 10.519531 22.863281 10.542969 22.847656 C 10.5625 22.835938 10.605469 22.78125 10.636719 22.726562 C 10.691406 22.628906 10.691406 22.628906 10.539062 22.5 C 10.453125 22.429688 10.316406 22.332031 10.230469 22.28125 C 10.109375 22.207031 10.070312 22.160156 10.027344 22.027344 C 9.933594 21.742188 9.953125 21.664062 10.152344 21.472656 C 10.25 21.382812 10.332031 21.277344 10.332031 21.246094 C 10.332031 21.214844 10.269531 21.125 10.195312 21.046875 C 10.121094 20.972656 10 20.835938 9.929688 20.746094 C 9.75 20.515625 9.65625 20.441406 9.453125 20.367188 C 9.15625 20.265625 8.816406 20.136719 8.757812 20.109375 C 8.730469 20.09375 8.664062 20.011719 8.613281 19.925781 C 8.46875 19.683594 8.398438 19.636719 8.171875 19.617188 C 7.847656 19.59375 7.820312 19.496094 7.9375 18.773438 C 7.984375 18.460938 8.039062 18.339844 8.203125 18.15625 C 8.410156 17.921875 8.585938 17.839844 8.925781 17.816406 C 9.1875 17.800781 9.222656 17.804688 9.472656 17.910156 C 9.621094 17.96875 9.765625 18.035156 9.796875 18.050781 C 9.925781 18.125 10.453125 18.835938 10.492188 18.988281 C 10.503906 19.03125 10.554688 19.128906 10.609375 19.199219 C 10.695312 19.3125 10.746094 19.339844 11.058594 19.4375 C 11.25 19.496094 11.457031 19.582031 11.515625 19.625 C 11.652344 19.730469 11.683594 19.730469 11.847656 19.609375 C 12.089844 19.4375 12.199219 19.390625 12.4375 19.363281 C 12.816406 19.324219 12.832031 19.316406 12.832031 19.097656 C 12.832031 18.957031 12.851562 18.875 12.921875 18.769531 C 13.050781 18.566406 13.132812 18.574219 13.371094 18.820312 C 13.472656 18.925781 13.628906 19.050781 13.71875 19.09375 C 13.882812 19.175781 13.886719 19.175781 14.027344 19.117188 C 14.179688 19.058594 14.359375 18.875 14.433594 18.703125 C 14.496094 18.558594 14.453125 18.347656 14.332031 18.21875 C 14.109375 17.984375 13.828125 17.558594 13.828125 17.457031 C 13.828125 17.3125 14.078125 16.972656 14.253906 16.871094 C 14.425781 16.769531 14.480469 16.695312 14.5625 16.457031 C 14.660156 16.179688 14.726562 16.0625 14.855469 15.972656 C 14.988281 15.878906 14.996094 15.835938 14.917969 15.632812 C 14.78125 15.285156 14.882812 15.078125 15.265625 14.914062 C 15.53125 14.800781 15.578125 14.71875 15.4375 14.601562 C 15.328125 14.507812 15.347656 14.386719 15.488281 14.28125 C 15.65625 14.15625 15.742188 13.917969 15.683594 13.722656 C 15.664062 13.644531 15.613281 13.527344 15.574219 13.460938 C 15.445312 13.222656 15.496094 13.09375 15.765625 12.992188 C 15.90625 12.9375 16.042969 12.800781 16.042969 12.714844 C 16.042969 12.683594 15.972656 12.59375 15.886719 12.515625 C 15.714844 12.359375 15.660156 12.230469 15.722656 12.121094 C 15.777344 12.023438 15.921875 12.035156 16.035156 12.148438 C 16.089844 12.199219 16.175781 12.253906 16.222656 12.261719 C 16.359375 12.292969 16.652344 12.152344 16.789062 11.996094 C 16.875 11.894531 16.933594 11.859375 17.046875 11.839844 C 17.125 11.828125 17.257812 11.769531 17.339844 11.710938 C 17.476562 11.617188 17.488281 11.59375 17.488281 11.460938 C 17.488281 11.320312 17.492188 11.316406 17.621094 11.296875 C 17.777344 11.273438 17.914062 11.195312 17.992188 11.085938 C 18.046875 11.011719 18.046875 10.996094 17.976562 10.894531 C 17.933594 10.832031 17.902344 10.75 17.902344 10.710938 C 17.902344 10.671875 17.882812 10.578125 17.859375 10.5 C 17.835938 10.421875 17.828125 10.304688 17.84375 10.234375 C 17.886719 10.015625 18.136719 9.992188 18.335938 10.1875 C 18.453125 10.304688 18.460938 10.382812 18.367188 10.523438 C 18.308594 10.609375 18.304688 10.632812 18.347656 10.6875 C 18.394531 10.746094 18.40625 10.746094 18.574219 10.699219 C 18.820312 10.625 18.964844 10.628906 19.171875 10.726562 C 19.269531 10.773438 19.410156 10.808594 19.488281 10.808594 C 19.695312 10.808594 19.804688 10.871094 19.832031 11 C 19.886719 11.238281 20.035156 11.25 20.1875 11.023438 C 20.28125 10.882812 20.371094 10.855469 20.5625 10.917969 C 20.683594 10.957031 20.722656 10.960938 20.796875 10.917969 C 20.921875 10.855469 21.019531 10.859375 21.273438 10.953125 C 21.40625 11.003906 21.527344 11.027344 21.566406 11.015625 C 21.601562 11.003906 21.738281 10.890625 21.863281 10.769531 C 22.066406 10.574219 22.113281 10.542969 22.222656 10.542969 C 22.378906 10.542969 22.558594 10.644531 22.628906 10.765625 C 22.65625 10.820312 22.734375 10.898438 22.804688 10.945312 C 22.890625 11.011719 22.929688 11.066406 22.949219 11.160156 C 22.960938 11.230469 23.023438 11.359375 23.09375 11.445312 C 23.191406 11.570312 23.222656 11.648438 23.242188 11.816406 C 23.261719 12 23.277344 12.03125 23.367188 12.074219 C 23.523438 12.148438 23.667969 12.132812 23.800781 12.027344 C 23.863281 11.976562 23.976562 11.894531 24.054688 11.84375 C 24.136719 11.789062 24.226562 11.683594 24.285156 11.566406 C 24.375 11.394531 24.394531 11.378906 24.523438 11.359375 C 24.683594 11.335938 24.871094 11.398438 24.949219 11.503906 C 25.03125 11.605469 24.980469 11.941406 24.855469 12.144531 C 24.765625 12.292969 24.753906 12.339844 24.773438 12.453125 C 24.800781 12.589844 24.832031 12.628906 25.054688 12.785156 C 25.125 12.835938 25.21875 12.9375 25.257812 13.007812 C 25.351562 13.179688 25.617188 13.328125 25.734375 13.277344 C 25.800781 13.25 25.820312 13.207031 25.835938 13.089844 C 25.847656 13.003906 25.875 12.917969 25.898438 12.898438 C 25.949219 12.851562 26.402344 12.859375 26.503906 12.910156 C 26.554688 12.933594 26.578125 12.976562 26.578125 13.054688 C 26.578125 13.117188 26.605469 13.222656 26.636719 13.292969 C 26.679688 13.382812 26.691406 13.503906 26.6875 13.722656 C 26.679688 14.070312 26.691406 14.09375 26.949219 14.371094 C 27.21875 14.660156 27.304688 14.773438 27.464844 15.054688 C 27.667969 15.402344 27.75 15.609375 27.777344 15.847656 C 27.792969 15.988281 27.832031 16.089844 27.902344 16.183594 C 28.148438 16.511719 28.167969 16.722656 28.070312 17.792969 C 28.03125 18.203125 28.019531 18.460938 28.042969 18.546875 C 28.0625 18.632812 28.054688 18.839844 28.023438 19.144531 C 27.96875 19.636719 27.917969 19.808594 27.667969 20.332031 C 27.566406 20.539062 27.53125 20.65625 27.523438 20.824219 C 27.464844 21.941406 27.210938 22.4375 26.691406 22.4375 C 26.582031 22.4375 26.480469 22.480469 26.234375 22.625 C 25.734375 22.917969 25.648438 22.957031 25.355469 23.023438 C 25.003906 23.105469 24.863281 23.183594 24.78125 23.335938 C 24.703125 23.480469 24.71875 23.519531 24.953125 23.683594 C 25.195312 23.851562 25.207031 23.878906 25.136719 24.082031 C 25.027344 24.394531 24.898438 24.417969 24.558594 24.179688 C 24.417969 24.082031 24.289062 24.015625 24.230469 24.015625 C 24.183594 24.015625 24.019531 24.074219 23.867188 24.144531 C 23.402344 24.363281 23.285156 24.382812 23.027344 24.277344 C 22.839844 24.199219 22.820312 24.207031 22.5625 24.414062 C 22.460938 24.496094 22.433594 24.539062 22.433594 24.636719 C 22.433594 24.785156 22.382812 24.835938 22.242188 24.835938 C 22.183594 24.835938 22.105469 24.863281 22.066406 24.894531 C 22.03125 24.925781 21.941406 24.953125 21.871094 24.953125 C 21.75 24.953125 21.742188 24.964844 21.695312 25.101562 C 21.648438 25.261719 21.507812 25.394531 21.398438 25.394531 C 21.359375 25.394531 21.25 25.433594 21.15625 25.476562 C 20.789062 25.644531 20.527344 25.628906 20.164062 25.410156 C 19.84375 25.214844 19.800781 25.175781 19.703125 25 C 19.589844 24.796875 19.511719 24.742188 19.257812 24.6875 C 19.132812 24.660156 18.929688 24.601562 18.800781 24.554688 C 18.597656 24.476562 18.539062 24.46875 18.296875 24.488281 C 18.148438 24.5 18.007812 24.507812 17.988281 24.507812 C 17.96875 24.507812 17.828125 24.507812 17.675781 24.5 C 17.425781 24.488281 17.386719 24.480469 17.316406 24.410156 C 17.222656 24.304688 16.992188 24.179688 16.902344 24.179688 C 16.820312 24.179688 16.65625 24.324219 16.5625 24.484375 C 16.5 24.589844 16.496094 24.621094 16.535156 24.753906 C 16.601562 24.980469 16.589844 25.027344 16.464844 25.101562 C 16.363281 25.15625 16.308594 25.164062 16.097656 25.144531 C 15.878906 25.128906 15.828125 25.136719 15.695312 25.203125 C 15.609375 25.246094 15.445312 25.367188 15.324219 25.476562 C 15.125 25.660156 15.109375 25.679688 15.128906 25.789062 C 15.171875 26.039062 15.0625 26.121094 14.875 25.984375 C 14.761719 25.90625 14.710938 25.90625 14.515625 25.984375 C 14.332031 26.0625 14.324219 26.109375 14.5 26.132812 C 14.574219 26.144531 14.710938 26.175781 14.800781 26.203125 C 14.957031 26.25 14.984375 26.25 15.132812 26.203125 C 15.289062 26.148438 15.292969 26.148438 15.460938 26.222656 C 15.664062 26.316406 15.714844 26.425781 15.652344 26.640625 C 15.601562 26.816406 15.53125 26.847656 15.132812 26.882812 C 14.347656 26.945312 14.28125 26.949219 14.160156 26.894531 Z M 23.511719 23.796875 C 23.550781 23.761719 23.617188 23.675781 23.660156 23.605469 C 23.738281 23.460938 23.738281 23.476562 23.726562 22.238281 C 23.71875 21.472656 23.738281 21.378906 23.964844 21.132812 C 24.070312 21.019531 24.164062 20.960938 24.394531 20.875 C 24.902344 20.683594 25.191406 20.496094 25.296875 20.285156 C 25.382812 20.113281 25.378906 19.980469 25.292969 19.75 C 25.203125 19.515625 25.148438 19.460938 25.050781 19.507812 C 24.953125 19.554688 24.875 19.527344 24.847656 19.429688 C 24.832031 19.359375 24.808594 19.351562 24.652344 19.351562 C 24.503906 19.355469 24.472656 19.367188 24.441406 19.433594 C 24.390625 19.535156 24.300781 19.53125 24.253906 19.421875 C 24.226562 19.347656 24.203125 19.339844 24.113281 19.355469 C 24.027344 19.371094 24.007812 19.367188 24.007812 19.316406 C 24.007812 19.28125 24.042969 19.214844 24.082031 19.164062 C 24.15625 19.078125 24.15625 19.078125 24.085938 19.058594 C 24.046875 19.046875 23.964844 18.980469 23.90625 18.90625 C 23.804688 18.777344 23.800781 18.75 23.792969 18.40625 C 23.777344 17.785156 23.785156 17.714844 23.875 17.613281 C 23.941406 17.539062 23.964844 17.464844 23.984375 17.257812 C 23.996094 17.113281 24.023438 16.832031 24.042969 16.636719 C 24.082031 16.25 24.050781 16 23.933594 15.8125 C 23.859375 15.691406 23.792969 15.207031 23.804688 14.882812 C 23.8125 14.671875 23.804688 14.632812 23.742188 14.59375 C 23.679688 14.550781 23.660156 14.554688 23.578125 14.628906 C 23.464844 14.730469 23.449219 14.730469 23.425781 14.644531 C 23.414062 14.605469 23.375 14.582031 23.332031 14.582031 C 23.222656 14.582031 23.238281 14.511719 23.367188 14.414062 C 23.460938 14.34375 23.472656 14.316406 23.441406 14.265625 C 23.367188 14.132812 23.523438 14.074219 23.808594 14.125 C 23.859375 14.136719 23.878906 14.125 23.871094 14.089844 C 23.863281 14.066406 23.878906 14 23.902344 13.949219 C 23.953125 13.835938 23.898438 13.757812 23.769531 13.757812 C 23.675781 13.757812 23.613281 13.671875 23.613281 13.546875 C 23.613281 13.5 23.582031 13.445312 23.542969 13.421875 C 23.457031 13.375 23.453125 13.335938 23.527344 13.285156 C 23.578125 13.25 23.578125 13.234375 23.503906 13.125 C 23.414062 12.980469 23.269531 12.902344 23.042969 12.867188 C 22.953125 12.855469 22.769531 12.828125 22.632812 12.808594 C 22.496094 12.789062 22.253906 12.746094 22.097656 12.71875 C 21.542969 12.617188 21.203125 12.601562 20.925781 12.65625 C 20.347656 12.777344 19.9375 12.992188 19.8125 13.246094 C 19.710938 13.4375 19.597656 13.613281 19.449219 13.796875 C 19.367188 13.898438 19.28125 14.039062 19.261719 14.109375 C 19.222656 14.230469 19.171875 14.3125 18.894531 14.683594 C 18.820312 14.78125 18.527344 15.085938 18.242188 15.359375 C 17.824219 15.761719 17.699219 15.90625 17.59375 16.101562 C 17.523438 16.230469 17.453125 16.382812 17.4375 16.4375 C 17.421875 16.492188 17.375 16.609375 17.335938 16.699219 C 17.292969 16.789062 17.222656 16.957031 17.179688 17.070312 C 17.105469 17.25 17.054688 17.3125 16.757812 17.566406 C 16.34375 17.921875 16.183594 18.167969 16.257812 18.351562 C 16.292969 18.449219 16.289062 18.476562 16.175781 18.667969 C 16.054688 18.875 16.050781 18.882812 16.117188 18.9375 C 16.183594 18.992188 16.179688 18.996094 16.097656 19.109375 C 16.039062 19.1875 16.019531 19.25 16.03125 19.316406 C 16.046875 19.382812 16.035156 19.414062 15.976562 19.441406 C 15.933594 19.460938 15.902344 19.5 15.902344 19.523438 C 15.902344 19.550781 15.863281 19.597656 15.8125 19.628906 C 15.730469 19.6875 15.730469 19.699219 15.765625 19.847656 C 15.800781 19.980469 15.796875 20.011719 15.746094 20.0625 C 15.710938 20.097656 15.683594 20.195312 15.675781 20.316406 C 15.664062 20.503906 15.667969 20.515625 15.773438 20.578125 C 15.832031 20.613281 15.898438 20.691406 15.921875 20.753906 C 15.996094 20.960938 16.109375 21.027344 16.476562 21.074219 C 16.660156 21.097656 16.894531 21.117188 16.996094 21.117188 C 17.09375 21.117188 17.230469 21.140625 17.296875 21.164062 C 17.363281 21.191406 17.601562 21.226562 17.828125 21.25 C 18.050781 21.269531 18.25 21.292969 18.269531 21.304688 C 18.355469 21.355469 18.597656 21.386719 18.988281 21.398438 C 19.527344 21.414062 19.863281 21.433594 20.105469 21.464844 C 20.277344 21.484375 20.304688 21.480469 20.386719 21.410156 C 20.476562 21.335938 20.476562 21.332031 20.527344 21.394531 C 20.554688 21.429688 20.578125 21.492188 20.578125 21.535156 C 20.578125 21.582031 20.628906 21.644531 20.703125 21.699219 C 20.878906 21.828125 20.972656 21.984375 20.972656 22.148438 C 20.972656 22.222656 20.976562 22.394531 20.980469 22.53125 C 20.988281 22.757812 20.996094 22.777344 21.066406 22.789062 C 21.164062 22.800781 21.203125 22.941406 21.152344 23.070312 C 21.109375 23.171875 21.152344 23.253906 21.25 23.253906 C 21.304688 23.253906 21.300781 23.292969 21.234375 23.558594 C 21.203125 23.6875 21.320312 23.679688 21.375 23.546875 C 21.425781 23.425781 21.542969 23.410156 21.542969 23.527344 C 21.542969 23.679688 21.703125 23.660156 21.769531 23.5 C 21.800781 23.421875 21.917969 23.582031 21.917969 23.703125 C 21.917969 23.808594 21.929688 23.824219 21.988281 23.816406 C 22.175781 23.792969 22.675781 23.816406 22.714844 23.859375 C 22.726562 23.871094 22.894531 23.875 23.085938 23.867188 C 23.363281 23.855469 23.453125 23.839844 23.511719 23.792969 Z M 19.539062 19.019531 C 19.324219 18.988281 19.078125 18.882812 18.992188 18.792969 C 18.929688 18.726562 18.925781 18.707031 18.96875 18.582031 C 18.992188 18.507812 19.023438 18.382812 19.039062 18.308594 C 19.054688 18.230469 19.109375 18.113281 19.15625 18.042969 C 19.292969 17.855469 19.4375 17.585938 19.4375 17.519531 C 19.4375 17.351562 19.726562 17.03125 20.078125 16.808594 C 20.128906 16.777344 20.226562 16.714844 20.300781 16.667969 C 20.386719 16.609375 20.449219 16.59375 20.484375 16.609375 C 20.589844 16.664062 20.847656 17.007812 20.894531 17.152344 C 20.945312 17.304688 20.996094 17.429688 21.105469 17.691406 C 21.144531 17.78125 21.1875 17.890625 21.199219 17.9375 C 21.21875 18.019531 21.441406 18.164062 21.550781 18.164062 C 21.625 18.164062 21.71875 18.269531 21.753906 18.390625 C 21.792969 18.507812 21.753906 18.632812 21.621094 18.828125 C 21.488281 19.027344 21.34375 19.054688 20.457031 19.050781 C 20.042969 19.050781 19.628906 19.035156 19.539062 19.019531 Z M 23.898438 14.375 C 23.898438 14.347656 23.859375 14.304688 23.808594 14.273438 C 23.726562 14.222656 23.71875 14.222656 23.71875 14.285156 C 23.71875 14.355469 23.785156 14.425781 23.851562 14.425781 C 23.878906 14.425781 23.898438 14.40625 23.898438 14.378906 Z M 21.390625 26.078125 C 21.347656 25.96875 21.550781 25.78125 21.648438 25.839844 C 21.707031 25.871094 21.691406 26.003906 21.621094 26.0625 C 21.542969 26.128906 21.414062 26.136719 21.390625 26.078125 Z M 23.308594 25.847656 C 23.25 25.808594 23.191406 25.761719 23.179688 25.742188 C 23.144531 25.695312 23.203125 25.613281 23.308594 25.558594 C 23.386719 25.519531 23.417969 25.523438 23.523438 25.570312 C 23.667969 25.632812 23.671875 25.648438 23.589844 25.808594 C 23.519531 25.941406 23.460938 25.949219 23.308594 25.847656 Z M 21.835938 25.695312 C 21.75 25.636719 21.71875 25.476562 21.773438 25.394531 C 21.804688 25.347656 22.0625 25.375 22.140625 25.433594 C 22.234375 25.507812 22.101562 25.757812 21.972656 25.753906 C 21.941406 25.753906 21.878906 25.730469 21.835938 25.695312 Z M 21.835938 25.695312 "/>
</g>
</svg>
