<?xml version="1.0" encoding="UTF-8"?>
<svg xmlns="http://www.w3.org/2000/svg" xmlns:xlink="http://www.w3.org/1999/xlink" width="36pt" height="36pt" viewBox="0 0 36 36" version="1.1">
<defs>
<filter id="alpha" filterUnits="objectBoundingBox" x="0%" y="0%" width="100%" height="100%">
  <feColorMatrix type="matrix" in="SourceGraphic" values="0 0 0 0 1 0 0 0 0 1 0 0 0 0 1 0 0 0 1 0"/>
</filter>
<mask id="mask0">
  <g filter="url(#alpha)">
<rect x="0" y="0" width="36" height="36" style="fill:rgb(0%,0%,0%);fill-opacity:0.2;stroke:none;"/>
  </g>
</mask>
<clipPath id="clip1">
  <rect width="36" height="36"/>
</clipPath>
<g id="surface6" clip-path="url(#clip1)">
<path style=" stroke:none;fill-rule:nonzero;fill:rgb(0%,0%,0%);fill-opacity:1;" d="M 21.375 11.8125 C 21.375 14.609375 19.109375 16.875 16.3125 16.875 C 13.515625 16.875 11.25 14.609375 11.25 11.8125 C 11.25 9.015625 13.515625 6.75 16.3125 6.75 C 19.109375 6.75 21.375 9.015625 21.375 11.8125 Z M 21.375 11.8125 "/>
</g>
<mask id="mask1">
  <g filter="url(#alpha)">
<rect x="0" y="0" width="36" height="36" style="fill:rgb(0%,0%,0%);fill-opacity:0.2;stroke:none;"/>
  </g>
</mask>
<clipPath id="clip2">
  <rect width="36" height="36"/>
</clipPath>
<g id="surface9" clip-path="url(#clip2)">
<path style=" stroke:none;fill-rule:nonzero;fill:rgb(1.568627%,7.058824%,9.411765%);fill-opacity:1;" d="M 19.125 11.8125 C 19.125 13.367188 17.867188 14.625 16.3125 14.625 C 14.757812 14.625 13.5 13.367188 13.5 11.8125 C 13.5 10.257812 14.757812 9 16.3125 9 C 17.867188 9 19.125 10.257812 19.125 11.8125 Z M 19.125 11.8125 "/>
</g>
</defs>
<g id="surface1">
<path style=" stroke:none;fill-rule:evenodd;fill:rgb(29.019608%,70.196078%,89.411765%);fill-opacity:1;" d="M 8.40625 2.136719 L 27.59375 2.136719 C 31.054688 2.136719 33.863281 4.945312 33.863281 8.40625 L 33.863281 27.59375 C 33.863281 31.054688 31.054688 33.863281 27.59375 33.863281 L 8.40625 33.863281 C 4.945312 33.863281 2.136719 31.054688 2.136719 27.59375 L 2.136719 8.40625 C 2.136719 4.945312 4.945312 2.136719 8.40625 2.136719 Z M 8.40625 2.136719 "/>
<use xlink:href="#surface6" mask="url(#mask0)"/>
<use xlink:href="#surface9" mask="url(#mask1)"/>
<path style=" stroke:none;fill-rule:nonzero;fill:rgb(92.156863%,92.156863%,92.156863%);fill-opacity:1;" d="M 16.289062 11.25 C 14.601562 11.25 14.597656 12.375 14.597656 13.5 C 14.585938 14.195312 14.585938 15.648438 14.601562 17.785156 C 14.621094 21.207031 14.613281 22.28125 14.574219 22.429688 C 13.40625 22.308594 11.644531 21.835938 10.855469 21.210938 C 10.339844 20.800781 9.824219 20.425781 9.71875 20.378906 C 9.265625 20.175781 8.621094 20.304688 8.253906 20.667969 C 8 20.921875 7.902344 21.144531 7.882812 21.550781 C 7.863281 21.859375 7.875 21.929688 7.96875 22.136719 C 8.03125 22.265625 8.136719 22.4375 8.210938 22.519531 C 8.28125 22.601562 9.261719 23.875 10.390625 25.351562 C 12.484375 28.085938 14.5625 29.101562 14.921875 29.203125 C 15.140625 29.265625 26.441406 29.265625 26.667969 29.203125 C 26.769531 29.175781 26.917969 29.082031 27.023438 28.976562 C 27.171875 28.828125 27.230469 28.71875 27.34375 28.363281 C 27.675781 27.339844 28.007812 25.785156 28.101562 24.917969 C 28.144531 23.914062 28.121094 23.875 28.101562 23.0625 C 28.101562 23.046875 28.097656 23.035156 28.097656 23.019531 C 28.097656 22.296875 28.105469 21.683594 28.097656 21.375 C 28.101562 20.25 28.101562 19.125 26.417969 19.125 C 24.898438 19.125 24.757812 20.046875 24.738281 21.050781 C 24.734375 21.078125 24.726562 21.105469 24.726562 21.132812 C 24.726562 20.863281 24.730469 20.417969 24.726562 20.25 C 24.730469 19.125 24.730469 18 23.046875 18 C 21.535156 18 21.386719 18.910156 21.367188 19.90625 C 21.363281 19.910156 21.359375 19.910156 21.351562 19.914062 C 21.351562 19.910156 21.351562 19.855469 21.351562 19.839844 C 21.351562 19.640625 21.355469 19.261719 21.351562 19.125 C 21.355469 18 21.355469 16.875 19.667969 16.875 C 18.386719 16.875 18.082031 17.527344 18.003906 18.332031 C 18.003906 18.332031 17.976562 18.339844 17.976562 18.339844 C 17.953125 18.347656 17.972656 16.972656 17.972656 15.492188 C 17.972656 14.476562 17.980469 13.875 17.972656 13.5 C 17.976562 12.375 17.976562 11.25 16.289062 11.25 Z M 16.289062 11.25 "/>
</g>
</svg>
