<?xml version="1.0" encoding="UTF-8"?>
<svg xmlns="http://www.w3.org/2000/svg" xmlns:xlink="http://www.w3.org/1999/xlink" width="36pt" height="36pt" viewBox="0 0 36 36" version="1.1">
<defs>
<clipPath id="clip1">
  <rect width="36" height="36"/>
</clipPath>
<g id="surface6" clip-path="url(#clip1)">
<path style=" stroke:none;fill-rule:nonzero;fill:rgb(100%,100%,100%);fill-opacity:0.709804;" d="M 9.699219 28.335938 L 9.699219 26.941406 L 20.765625 26.941406 L 20.765625 28.335938 Z M 9.699219 24.15625 L 9.699219 22.761719 L 26.300781 22.761719 L 26.300781 24.15625 Z M 9.699219 19.972656 L 9.699219 18.578125 L 26.300781 18.578125 L 26.300781 19.972656 Z M 9.699219 15.792969 L 9.699219 14.398438 L 26.300781 14.398438 L 26.300781 15.792969 Z M 9.699219 15.792969 "/>
</g>
</defs>
<g id="surface1">
<path style=" stroke:none;fill-rule:evenodd;fill:rgb(24.313725%,31.372549%,70.588235%);fill-opacity:1;" d="M 33.863281 13.75 L 33.863281 8.40625 C 33.863281 4.933594 31.066406 2.136719 27.59375 2.136719 L 22.25 2.136719 Z M 33.863281 13.75 "/>
<path style=" stroke:none;fill-rule:evenodd;fill:rgb(24.313725%,31.372549%,70.588235%);fill-opacity:1;" d="M 20.375 2.136719 L 8.410156 2.136719 C 4.933594 2.136719 2.136719 4.933594 2.136719 8.40625 L 2.136719 27.589844 C 2.136719 31.066406 4.933594 33.863281 8.410156 33.863281 L 27.59375 33.863281 C 31.066406 33.863281 33.863281 31.066406 33.863281 27.589844 L 33.863281 15.625 Z M 20.375 2.136719 "/>
<path style=" stroke:none;fill-rule:evenodd;fill:rgb(100%,100%,100%);fill-opacity:1;" d="M 20.375 2.136719 L 33.863281 15.625 L 33.863281 13.75 L 22.25 2.136719 Z M 20.375 2.136719 "/>
<use xlink:href="#surface6"/>
</g>
</svg>
