<?xml version="1.0" encoding="UTF-8"?>
<svg xmlns="http://www.w3.org/2000/svg" xmlns:xlink="http://www.w3.org/1999/xlink" width="36pt" height="36pt" viewBox="0 0 36 36" version="1.1">
<g id="surface1">
<path style=" stroke:none;fill-rule:evenodd;fill:rgb(100%,34.117647%,13.333333%);fill-opacity:1;" d="M 33.863281 13.75 L 33.863281 8.40625 C 33.863281 4.933594 31.066406 2.136719 27.59375 2.136719 L 22.25 2.136719 Z M 33.863281 13.75 "/>
<path style=" stroke:none;fill-rule:evenodd;fill:rgb(100%,34.117647%,13.333333%);fill-opacity:1;" d="M 20.375 2.136719 L 8.410156 2.136719 C 4.933594 2.136719 2.136719 4.933594 2.136719 8.40625 L 2.136719 27.589844 C 2.136719 31.066406 4.933594 33.863281 8.410156 33.863281 L 27.59375 33.863281 C 31.066406 33.863281 33.863281 31.066406 33.863281 27.589844 L 33.863281 15.625 Z M 20.375 2.136719 "/>
<path style=" stroke:none;fill-rule:evenodd;fill:rgb(100%,100%,100%);fill-opacity:1;" d="M 20.375 2.136719 L 33.863281 15.625 L 33.863281 13.75 L 22.25 2.136719 Z M 20.375 2.136719 "/>
<path style=" stroke:none;fill-rule:nonzero;fill:rgb(100%,100%,100%);fill-opacity:1;" d="M 12.066406 14.472656 C 10.703125 14.472656 9.441406 15.199219 8.761719 16.378906 C 8.082031 17.558594 8.082031 19.011719 8.761719 20.191406 C 9.265625 21.0625 10.09375 21.699219 11.070312 21.964844 C 11.171875 21.992188 11.28125 22.015625 11.386719 22.035156 C 11.460938 22.050781 11.53125 22.0625 11.605469 22.070312 C 11.640625 22.074219 11.671875 22.078125 11.707031 22.082031 C 12.507812 22.171875 13.316406 22 14.015625 21.597656 C 15.195312 20.917969 15.925781 19.660156 15.925781 18.296875 L 12.066406 18.296875 Z M 12.066406 14.472656 "/>
<path style=" stroke:none;fill-rule:nonzero;fill:rgb(100%,100%,100%);fill-opacity:1;" d="M 18.679688 15.355469 L 27.011719 15.355469 C 27.417969 15.355469 27.746094 15.683594 27.746094 16.089844 C 27.746094 16.496094 27.417969 16.828125 27.011719 16.828125 L 18.679688 16.828125 C 18.273438 16.828125 17.945312 16.496094 17.945312 16.089844 C 17.945312 15.683594 18.273438 15.355469 18.679688 15.355469 Z M 18.679688 15.355469 "/>
<path style=" stroke:none;fill-rule:nonzero;fill:rgb(100%,100%,100%);fill-opacity:1;" d="M 18.679688 19.765625 L 27.011719 19.765625 C 27.417969 19.765625 27.746094 20.09375 27.746094 20.5 C 27.746094 20.90625 27.417969 21.234375 27.011719 21.234375 L 18.679688 21.234375 C 18.273438 21.234375 17.945312 20.90625 17.945312 20.5 C 17.945312 20.09375 18.273438 19.765625 18.679688 19.765625 Z M 18.679688 19.765625 "/>
<path style=" stroke:none;fill-rule:nonzero;fill:rgb(100%,100%,100%);fill-opacity:1;" d="M 9.863281 24.175781 L 23.097656 24.175781 C 23.503906 24.175781 23.832031 24.503906 23.832031 24.910156 C 23.832031 25.316406 23.503906 25.644531 23.097656 25.644531 L 9.863281 25.644531 C 9.457031 25.644531 9.125 25.316406 9.125 24.910156 C 9.125 24.503906 9.457031 24.175781 9.863281 24.175781 Z M 9.863281 24.175781 "/>
</g>
</svg>
