<?xml version="1.0" encoding="UTF-8"?>
<svg xmlns="http://www.w3.org/2000/svg" xmlns:xlink="http://www.w3.org/1999/xlink" width="36pt" height="36pt" viewBox="0 0 36 36" version="1.1">
<g id="surface1">
<path style=" stroke:none;fill-rule:evenodd;fill:rgb(100%,69.019608%,38.823529%);fill-opacity:1;" d="M 18.238281 33.867188 L 27.59375 33.867188 C 31.066406 33.867188 33.863281 31.066406 33.863281 27.59375 L 33.863281 8.40625 C 33.863281 4.933594 31.066406 2.132812 27.59375 2.132812 L 18.238281 2.132812 Z M 18.238281 33.867188 "/>
<path style=" stroke:none;fill-rule:evenodd;fill:rgb(90.196078%,56.078431%,28.235294%);fill-opacity:1;" d="M 18.238281 33.867188 L 18.238281 2.132812 L 8.410156 2.132812 C 4.933594 2.132812 2.136719 4.933594 2.136719 8.40625 L 2.136719 27.59375 C 2.136719 31.066406 4.933594 33.867188 8.410156 33.867188 Z M 18.238281 33.867188 "/>
<path style=" stroke:none;fill-rule:nonzero;fill:rgb(100%,87.45098%,59.607843%);fill-opacity:1;" d="M 10.300781 8.4375 C 7.195312 8.4375 4.675781 10.957031 4.675781 14.0625 C 4.675781 17.167969 7.195312 19.6875 10.300781 19.6875 C 13.410156 19.6875 15.925781 17.167969 15.925781 14.0625 C 15.925781 10.957031 13.410156 8.4375 10.300781 8.4375 Z M 10.300781 11.8125 C 11.546875 11.8125 12.550781 12.820312 12.550781 14.0625 C 12.550781 15.304688 11.546875 16.3125 10.300781 16.3125 C 9.058594 16.3125 8.050781 15.304688 8.050781 14.0625 C 8.050781 12.820312 9.058594 11.8125 10.300781 11.8125 Z M 10.300781 11.8125 "/>
<path style=" stroke:none;fill-rule:nonzero;fill:rgb(100%,87.45098%,59.607843%);fill-opacity:1;" d="M 9.175781 27.5625 L 11.425781 27.5625 L 11.425781 16.3125 L 9.175781 16.3125 Z M 9.175781 27.5625 "/>
<path style=" stroke:none;fill-rule:nonzero;fill:rgb(100%,87.45098%,59.607843%);fill-opacity:1;" d="M 11.425781 25.3125 L 13.675781 25.3125 L 13.675781 23.0625 L 11.425781 23.0625 Z M 11.425781 25.3125 "/>
</g>
</svg>
