<?xml version="1.0" encoding="UTF-8"?>
<svg xmlns="http://www.w3.org/2000/svg" xmlns:xlink="http://www.w3.org/1999/xlink" width="36pt" height="36pt" viewBox="0 0 36 36" version="1.1">
<g id="surface1">
<path style=" stroke:none;fill-rule:evenodd;fill:rgb(30.980392%,30.980392%,30.980392%);fill-opacity:1;" d="M 8.40625 2.136719 L 27.59375 2.136719 C 31.054688 2.136719 33.863281 4.945312 33.863281 8.40625 L 33.863281 27.59375 C 33.863281 31.054688 31.054688 33.863281 27.59375 33.863281 L 8.40625 33.863281 C 4.945312 33.863281 2.136719 31.054688 2.136719 27.59375 L 2.136719 8.40625 C 2.136719 4.945312 4.945312 2.136719 8.40625 2.136719 Z M 8.40625 2.136719 "/>
<path style=" stroke:none;fill-rule:nonzero;fill:rgb(100%,100%,100%);fill-opacity:1;" d="M 15.589844 29.148438 C 15.761719 28.578125 16.628906 27.148438 17.09375 26.660156 C 17.378906 26.359375 17.613281 26.089844 17.613281 26.054688 C 17.613281 25.816406 16.90625 25.296875 13.753906 23.21875 C 12.066406 22.109375 11.152344 21.3125 10.308594 20.226562 L 9.597656 19.308594 L 9.300781 17.914062 C 9.078125 16.863281 9.027344 16.445312 9.09375 16.203125 C 9.160156 15.964844 9.148438 15.859375 9.046875 15.773438 C 8.855469 15.617188 8.863281 14.917969 9.054688 14.84375 C 9.164062 14.804688 9.203125 14.660156 9.191406 14.339844 C 9.175781 13.734375 9.273438 13.53125 10.152344 12.28125 C 10.667969 11.546875 11.039062 11.128906 11.316406 10.957031 C 11.542969 10.820312 11.984375 10.46875 12.296875 10.175781 C 12.816406 9.699219 12.902344 9.652344 13.199219 9.707031 C 13.433594 9.75 13.59375 9.71875 13.761719 9.589844 C 14.144531 9.308594 14.742188 8.988281 14.894531 8.988281 C 15.054688 8.988281 15.992188 8.464844 16.277344 8.210938 C 16.605469 7.925781 17.875 7.316406 18.070312 7.355469 C 18.171875 7.371094 18.269531 7.484375 18.289062 7.605469 C 18.304688 7.726562 18.347656 7.824219 18.386719 7.824219 C 18.421875 7.824219 18.765625 7.675781 19.144531 7.492188 C 19.527344 7.3125 20.335938 7.027344 20.941406 6.859375 C 22.128906 6.535156 22.441406 6.550781 22.65625 6.945312 C 22.753906 7.121094 22.859375 7.144531 23.65625 7.144531 C 24.574219 7.144531 25.050781 7.28125 25.167969 7.574219 C 25.199219 7.65625 25.515625 7.859375 25.871094 8.023438 C 26.398438 8.265625 26.519531 8.363281 26.519531 8.550781 C 26.519531 8.695312 26.628906 8.859375 26.820312 8.992188 C 27.261719 9.296875 27.179688 9.550781 26.519531 9.929688 C 26.21875 10.101562 25.90625 10.285156 25.824219 10.332031 C 25.703125 10.40625 25.726562 10.445312 25.949219 10.546875 C 26.097656 10.613281 26.222656 10.734375 26.222656 10.8125 C 26.222656 11.023438 25.371094 12.148438 25.035156 12.386719 C 24.675781 12.632812 24.671875 12.742188 24.96875 13.605469 C 25.097656 13.972656 25.304688 14.714844 25.425781 15.246094 C 25.546875 15.78125 25.734375 16.5 25.835938 16.847656 C 25.9375 17.195312 26.09375 17.894531 26.183594 18.402344 C 26.460938 20.007812 26.226562 21.035156 25.335938 22.132812 C 24.734375 22.867188 23.308594 24.21875 22.472656 24.839844 L 21.84375 25.3125 L 21.902344 25.796875 C 21.945312 26.167969 22.039062 26.367188 22.316406 26.667969 C 22.75 27.136719 23.550781 28.714844 23.550781 29.09375 L 23.550781 29.367188 L 15.523438 29.367188 Z M 20.636719 18.355469 C 20.769531 18.226562 20.878906 18.003906 20.878906 17.867188 C 20.878906 17.730469 20.769531 17.507812 20.636719 17.378906 C 19.949219 16.707031 18.945312 17.675781 19.609375 18.371094 C 19.894531 18.667969 20.324219 18.664062 20.636719 18.355469 Z M 25.050781 16.589844 C 25.113281 16.285156 24.835938 15.878906 24.527344 15.8125 C 24.234375 15.75 23.828125 15.996094 23.765625 16.285156 C 23.699219 16.597656 23.984375 17.023438 24.300781 17.085938 C 24.597656 17.144531 24.992188 16.878906 25.050781 16.589844 Z M 25.050781 16.589844 "/>
</g>
</svg>
