<?xml version="1.0" encoding="UTF-8"?>
<svg xmlns="http://www.w3.org/2000/svg" xmlns:xlink="http://www.w3.org/1999/xlink" width="36pt" height="36pt" viewBox="0 0 36 36" version="1.1">
<g id="surface1">
<path style=" stroke:none;fill-rule:evenodd;fill:rgb(80%,80%,80%);fill-opacity:1;" d="M 8.40625 2.136719 L 27.59375 2.136719 C 31.054688 2.136719 33.863281 4.945312 33.863281 8.40625 L 33.863281 27.59375 C 33.863281 31.054688 31.054688 33.863281 27.59375 33.863281 L 8.40625 33.863281 C 4.945312 33.863281 2.136719 31.054688 2.136719 27.59375 L 2.136719 8.40625 C 2.136719 4.945312 4.945312 2.136719 8.40625 2.136719 Z M 8.40625 2.136719 "/>
<path style=" stroke:none;fill-rule:nonzero;fill:rgb(93.333333%,59.215686%,21.176471%);fill-opacity:1;" d="M 21.375 22.5 C 21.375 19.394531 18.855469 16.875 15.75 16.875 C 12.644531 16.875 10.125 19.394531 10.125 22.5 C 10.125 25.605469 12.644531 28.125 15.75 28.125 C 18.855469 28.125 21.375 25.605469 21.375 22.5 Z M 21.375 22.5 "/>
<path style=" stroke:none;fill-rule:nonzero;fill:rgb(100%,69.803922%,44.313725%);fill-opacity:1;" d="M 19.125 13.5 C 19.125 10.394531 16.605469 7.875 13.5 7.875 C 10.394531 7.875 7.875 10.394531 7.875 13.5 C 7.875 16.605469 10.394531 19.125 13.5 19.125 C 16.605469 19.125 19.125 16.605469 19.125 13.5 Z M 19.125 13.5 "/>
<path style=" stroke:none;fill-rule:nonzero;fill:rgb(32.54902%,32.54902%,32.54902%);fill-opacity:1;" d="M 28.125 18 C 28.125 14.894531 25.605469 12.375 22.5 12.375 C 19.394531 12.375 16.875 14.894531 16.875 18 C 16.875 21.105469 19.394531 23.625 22.5 23.625 C 25.605469 23.625 28.125 21.105469 28.125 18 Z M 28.125 18 "/>
</g>
</svg>
