<?xml version="1.0" encoding="UTF-8"?>
<svg xmlns="http://www.w3.org/2000/svg" xmlns:xlink="http://www.w3.org/1999/xlink" width="36pt" height="36pt" viewBox="0 0 36 36" version="1.1">
<g id="surface1">
<path style=" stroke:none;fill-rule:evenodd;fill:rgb(30.980392%,30.980392%,30.980392%);fill-opacity:1;" d="M 8.40625 2.136719 L 27.59375 2.136719 C 31.054688 2.136719 33.863281 4.945312 33.863281 8.40625 L 33.863281 27.59375 C 33.863281 31.054688 31.054688 33.863281 27.59375 33.863281 L 8.40625 33.863281 C 4.945312 33.863281 2.136719 31.054688 2.136719 27.59375 L 2.136719 8.40625 C 2.136719 4.945312 4.945312 2.136719 8.40625 2.136719 Z M 8.40625 2.136719 "/>
<path style=" stroke:none;fill-rule:nonzero;fill:rgb(100%,100%,100%);fill-opacity:1;" d="M 18 6.75 C 24.214844 6.75 29.25 11.785156 29.25 18 C 29.25 24.214844 24.214844 29.25 18 29.25 C 11.785156 29.25 6.75 24.214844 6.75 18 C 6.75 11.785156 11.785156 6.75 18 6.75 Z M 18 6.75 "/>
<path style=" stroke:none;fill-rule:nonzero;fill:rgb(30.980392%,30.980392%,30.980392%);fill-opacity:1;" d="M 15.1875 10.125 L 12.984375 16.828125 L 11.25 17.4375 L 10.125 21.9375 L 11.703125 21.386719 L 10.125 25.875 L 24.75 25.875 L 25.875 21.375 L 18.296875 21.375 L 19.191406 18.765625 L 21.375 18 L 22.5 13.5 L 20.472656 14.210938 L 21.9375 10.125 Z M 15.1875 10.125 "/>
</g>
</svg>
