<?xml version="1.0" encoding="UTF-8"?>
<svg xmlns="http://www.w3.org/2000/svg" xmlns:xlink="http://www.w3.org/1999/xlink" width="36pt" height="36pt" viewBox="0 0 36 36" version="1.1">
<defs>
<clipPath id="clip1">
  <rect width="36" height="36"/>
</clipPath>
<g id="surface6" clip-path="url(#clip1)">
<path style=" stroke:none;fill-rule:nonzero;fill:rgb(100%,100%,100%);fill-opacity:1;" d="M 21.511719 8.984375 C 21.300781 8.890625 21.035156 8.949219 20.886719 9.121094 L 19.335938 10.878906 C 18.472656 10.742188 17.59375 10.734375 16.742188 10.863281 L 15.199219 9.085938 C 15.039062 8.898438 14.742188 8.847656 14.53125 8.96875 L 10.796875 11.101562 C 10.585938 11.226562 10.480469 11.507812 10.5625 11.738281 L 11.3125 13.984375 C 11.046875 14.3125 10.800781 14.65625 10.582031 15.035156 C 10.363281 15.410156 10.183594 15.792969 10.027344 16.183594 L 7.703125 16.636719 C 7.464844 16.679688 7.269531 16.914062 7.265625 17.15625 L 7.242188 21.453125 C 7.246094 21.699219 7.433594 21.929688 7.675781 21.980469 L 9.984375 22.449219 C 10.292969 23.25 10.730469 24.015625 11.273438 24.699219 L 10.507812 26.914062 C 10.425781 27.144531 10.527344 27.425781 10.738281 27.550781 L 14.445312 29.714844 C 14.65625 29.835938 14.953125 29.785156 15.113281 29.601562 L 16.664062 27.84375 C 17.527344 27.980469 18.40625 27.984375 19.257812 27.859375 L 20.800781 29.636719 C 20.960938 29.824219 21.257812 29.875 21.46875 29.753906 L 25.199219 27.621094 C 25.414062 27.5 25.519531 27.214844 25.4375 26.984375 L 24.6875 24.738281 C 24.953125 24.410156 25.195312 24.066406 25.417969 23.6875 C 25.636719 23.3125 25.816406 22.929688 25.972656 22.535156 L 28.296875 22.085938 C 28.535156 22.042969 28.730469 21.8125 28.734375 21.566406 L 28.757812 17.265625 C 28.753906 17.023438 28.566406 16.789062 28.324219 16.742188 L 26.015625 16.273438 C 25.707031 15.46875 25.269531 14.707031 24.726562 14.023438 L 25.492188 11.808594 C 25.574219 11.578125 25.472656 11.296875 25.261719 11.171875 L 21.554688 9.007812 C 21.539062 9 21.527344 8.992188 21.511719 8.984375 Z M 21.433594 13.476562 C 24.683594 15.375 25.78125 19.542969 23.882812 22.792969 C 21.988281 26.042969 17.816406 27.140625 14.566406 25.246094 C 11.316406 23.347656 10.21875 19.179688 12.117188 15.929688 C 14.011719 12.679688 18.183594 11.582031 21.433594 13.476562 Z M 21.433594 13.476562 "/>
</g>
</defs>
<g id="surface1">
<path style=" stroke:none;fill-rule:evenodd;fill:rgb(25.882353%,72.941176%,30.980392%);fill-opacity:1;" d="M 8.40625 2.136719 L 27.59375 2.136719 C 31.054688 2.136719 33.863281 4.945312 33.863281 8.40625 L 33.863281 27.59375 C 33.863281 31.054688 31.054688 33.863281 27.59375 33.863281 L 8.40625 33.863281 C 4.945312 33.863281 2.136719 31.054688 2.136719 27.59375 L 2.136719 8.40625 C 2.136719 4.945312 4.945312 2.136719 8.40625 2.136719 Z M 8.40625 2.136719 "/>
<use xlink:href="#surface6"/>
<path style=" stroke:none;fill-rule:evenodd;fill:rgb(100%,100%,100%);fill-opacity:1;" d="M 19.984375 7.25 C 19.984375 8.34375 19.09375 9.230469 18 9.230469 C 16.90625 9.230469 16.015625 8.34375 16.015625 7.25 C 16.015625 6.152344 16.90625 5.265625 18 5.265625 C 19.09375 5.265625 19.984375 6.152344 19.984375 7.25 Z M 19.984375 7.25 "/>
<path style="fill:none;stroke-width:3.2;stroke-linecap:round;stroke-linejoin:miter;stroke:rgb(100%,100%,100%);stroke-opacity:1;stroke-miterlimit:4;" d="M 16 13.440814 L 16 20.381786 " transform="matrix(1.125,0,0,1.125,-0.0000001125,0.336116)"/>
</g>
</svg>
