<?xml version="1.0" encoding="UTF-8"?>
<svg xmlns="http://www.w3.org/2000/svg" xmlns:xlink="http://www.w3.org/1999/xlink" width="36pt" height="36pt" viewBox="0 0 36 36" version="1.1">
<defs>
<clipPath id="clip1">
  <rect width="36" height="36"/>
</clipPath>
<g id="surface6" clip-path="url(#clip1)">
<path style=" stroke:none;fill-rule:nonzero;fill:rgb(97.647059%,97.647059%,97.647059%);fill-opacity:1;" d="M 18 10.398438 C 15.050781 10.398438 12.535156 12.152344 11.453125 14.632812 C 8.707031 15.027344 6.601562 17.296875 6.601562 20.074219 C 6.601562 23.125 9.152344 25.601562 12.300781 25.601562 L 24.414062 25.601562 C 27.167969 25.601562 29.398438 23.433594 29.398438 20.761719 C 29.398438 18.28125 27.472656 16.246094 24.992188 15.972656 C 24.34375 12.800781 21.457031 10.398438 18 10.398438 Z M 18 10.398438 "/>
</g>
</defs>
<g id="surface1">
<path style=" stroke:none;fill-rule:evenodd;fill:rgb(80%,80%,80%);fill-opacity:1;" d="M 8.40625 2.136719 L 27.59375 2.136719 C 31.054688 2.136719 33.863281 4.945312 33.863281 8.40625 L 33.863281 27.59375 C 33.863281 31.054688 31.054688 33.863281 27.59375 33.863281 L 8.40625 33.863281 C 4.945312 33.863281 2.136719 31.054688 2.136719 27.59375 L 2.136719 8.40625 C 2.136719 4.945312 4.945312 2.136719 8.40625 2.136719 Z M 8.40625 2.136719 "/>
<use xlink:href="#surface6"/>
<path style=" stroke:none;fill-rule:nonzero;fill:rgb(40%,40%,40%);fill-opacity:1;" d="M 18 12.679688 C 15.0625 12.679688 12.679688 15.0625 12.679688 18 C 12.679688 20.9375 15.0625 23.320312 18 23.320312 C 20.9375 23.320312 23.320312 20.9375 23.320312 18 C 23.320312 15.0625 20.9375 12.679688 18 12.679688 Z M 18 14.199219 C 20.097656 14.199219 21.800781 15.902344 21.800781 18 C 21.800781 20.097656 20.097656 21.800781 18 21.800781 C 15.902344 21.800781 14.199219 20.097656 14.199219 18 C 14.199219 15.902344 15.902344 14.199219 18 14.199219 Z M 18 14.199219 "/>
<path style=" stroke:none;fill-rule:nonzero;fill:rgb(40%,40%,40%);fill-opacity:1;" d="M 20.28125 18 C 20.28125 19.257812 19.257812 20.28125 18 20.28125 C 16.742188 20.28125 15.71875 19.257812 15.71875 18 C 15.71875 16.742188 16.742188 15.71875 18 15.71875 C 19.257812 15.71875 20.28125 16.742188 20.28125 18 Z M 20.28125 18 "/>
</g>
</svg>
