<?xml version="1.0" encoding="UTF-8"?>
<svg xmlns="http://www.w3.org/2000/svg" xmlns:xlink="http://www.w3.org/1999/xlink" width="36pt" height="36pt" viewBox="0 0 36 36" version="1.1">
<g id="surface1">
<path style=" stroke:none;fill-rule:evenodd;fill:rgb(80%,80%,80%);fill-opacity:1;" d="M 8.40625 2.136719 L 27.59375 2.136719 C 31.054688 2.136719 33.863281 4.945312 33.863281 8.40625 L 33.863281 27.59375 C 33.863281 31.054688 31.054688 33.863281 27.59375 33.863281 L 8.40625 33.863281 C 4.945312 33.863281 2.136719 31.054688 2.136719 27.59375 L 2.136719 8.40625 C 2.136719 4.945312 4.945312 2.136719 8.40625 2.136719 Z M 8.40625 2.136719 "/>
<path style=" stroke:none;fill-rule:nonzero;fill:rgb(90.588235%,29.803922%,23.529412%);fill-opacity:1;" d="M 17.996094 12.378906 L 22.496094 18.003906 L 17.996094 23.628906 L 13.496094 18.003906 Z M 17.996094 12.378906 "/>
<path style=" stroke:none;fill-rule:nonzero;fill:rgb(90.588235%,29.803922%,23.529412%);fill-opacity:1;" d="M 11.140625 9.304688 L 9.328125 9.304688 L 9.039062 10.125 L 7.875 10.125 L 9.539062 5.625 L 10.925781 5.625 L 12.589844 10.125 L 11.425781 10.125 Z M 9.617188 8.46875 L 10.847656 8.46875 L 10.234375 6.679688 Z M 9.617188 8.46875 "/>
<path style=" stroke:none;fill-rule:nonzero;fill:rgb(90.588235%,29.803922%,23.529412%);fill-opacity:1;" d="M 10.125 10.128906 L 12.375 12.941406 L 10.125 15.753906 L 7.875 12.941406 Z M 10.125 10.128906 "/>
<path style=" stroke:none;fill-rule:nonzero;fill:rgb(90.588235%,29.803922%,23.529412%);fill-opacity:1;" d="M 24.855469 26.695312 L 26.671875 26.695312 L 26.957031 25.875 L 28.125 25.875 L 26.457031 30.375 L 25.074219 30.375 L 23.40625 25.875 L 24.574219 25.875 Z M 26.382812 27.53125 L 25.148438 27.53125 L 25.765625 29.320312 Z M 26.382812 27.53125 "/>
<path style=" stroke:none;fill-rule:nonzero;fill:rgb(90.588235%,29.803922%,23.529412%);fill-opacity:1;" d="M 25.875 25.878906 L 23.625 23.066406 L 25.875 20.253906 L 28.125 23.066406 Z M 25.875 25.878906 "/>
</g>
</svg>
