<?xml version="1.0" encoding="UTF-8"?>
<svg xmlns="http://www.w3.org/2000/svg" xmlns:xlink="http://www.w3.org/1999/xlink" width="36pt" height="36pt" viewBox="0 0 36 36" version="1.1">
<defs>
<clipPath id="clip1">
  <rect width="36" height="36"/>
</clipPath>
<g id="surface6" clip-path="url(#clip1)">
<path style=" stroke:none;fill-rule:nonzero;fill:rgb(100%,100%,100%);fill-opacity:1;" d="M 18.5625 9 C 16.699219 9 15.1875 10.511719 15.1875 12.375 C 15.1875 12.636719 15.238281 12.871094 15.292969 13.113281 L 11.671875 15.363281 C 11.09375 14.902344 10.359375 14.625 9.5625 14.625 C 7.699219 14.625 6.1875 16.136719 6.1875 18 C 6.1875 19.863281 7.699219 21.375 9.5625 21.375 C 10.359375 21.375 11.09375 21.101562 11.671875 20.636719 L 15.292969 22.886719 C 15.238281 23.128906 15.1875 23.363281 15.1875 23.625 C 15.1875 25.488281 16.699219 27 18.5625 27 C 20.425781 27 21.9375 25.488281 21.9375 23.625 C 21.9375 21.761719 20.425781 20.25 18.5625 20.25 C 17.765625 20.25 17.03125 20.527344 16.453125 20.988281 L 12.832031 18.738281 C 12.886719 18.496094 12.9375 18.261719 12.9375 18 C 12.9375 17.742188 12.886719 17.503906 12.832031 17.261719 L 16.453125 15.011719 C 17.03125 15.476562 17.765625 15.75 18.5625 15.75 C 20.425781 15.75 21.9375 14.238281 21.9375 12.375 C 21.9375 10.511719 20.425781 9 18.5625 9 Z M 26.4375 9 C 24.574219 9 23.0625 10.511719 23.0625 12.375 C 23.0625 14.238281 24.574219 15.75 26.4375 15.75 C 28.300781 15.75 29.8125 14.238281 29.8125 12.375 C 29.8125 10.511719 28.300781 9 26.4375 9 Z M 26.4375 20.25 C 24.574219 20.25 23.0625 21.761719 23.0625 23.625 C 23.0625 25.488281 24.574219 27 26.4375 27 C 28.300781 27 29.8125 25.488281 29.8125 23.625 C 29.8125 21.761719 28.300781 20.25 26.4375 20.25 Z M 26.4375 20.25 "/>
</g>
</defs>
<g id="surface1">
<path style=" stroke:none;fill-rule:evenodd;fill:rgb(96.078431%,51.764706%,6.666667%);fill-opacity:1;" d="M 8.40625 2.136719 L 27.59375 2.136719 C 31.054688 2.136719 33.863281 4.945312 33.863281 8.40625 L 33.863281 27.59375 C 33.863281 31.054688 31.054688 33.863281 27.59375 33.863281 L 8.40625 33.863281 C 4.945312 33.863281 2.136719 31.054688 2.136719 27.59375 L 2.136719 8.40625 C 2.136719 4.945312 4.945312 2.136719 8.40625 2.136719 Z M 8.40625 2.136719 "/>
<use xlink:href="#surface6"/>
</g>
</svg>
