<?xml version="1.0" encoding="UTF-8"?>
<svg xmlns="http://www.w3.org/2000/svg" xmlns:xlink="http://www.w3.org/1999/xlink" width="36pt" height="36pt" viewBox="0 0 36 36" version="1.1">
<defs>
<filter id="alpha" filterUnits="objectBoundingBox" x="0%" y="0%" width="100%" height="100%">
  <feColorMatrix type="matrix" in="SourceGraphic" values="0 0 0 0 1 0 0 0 0 1 0 0 0 0 1 0 0 0 1 0"/>
</filter>
<mask id="mask0">
  <g filter="url(#alpha)">
<rect x="0" y="0" width="36" height="36" style="fill:rgb(0%,0%,0%);fill-opacity:0.2;stroke:none;"/>
  </g>
</mask>
<clipPath id="clip1">
  <rect width="36" height="36"/>
</clipPath>
<g id="surface6" clip-path="url(#clip1)">
<path style=" stroke:none;fill-rule:nonzero;fill:rgb(0%,0%,0%);fill-opacity:1;" d="M 14.730469 25.992188 C 13.78125 25.992188 12.40625 25.320312 12.40625 24.496094 C 12.40625 23.667969 12.316406 22.996094 13.265625 22.996094 C 15.710938 23.25 15.847656 25.992188 14.730469 25.992188 Z M 14.730469 25.992188 "/>
</g>
<mask id="mask1">
  <g filter="url(#alpha)">
<rect x="0" y="0" width="36" height="36" style="fill:rgb(0%,0%,0%);fill-opacity:0.2;stroke:none;"/>
  </g>
</mask>
<clipPath id="clip2">
  <rect width="36" height="36"/>
</clipPath>
<g id="surface9" clip-path="url(#clip2)">
<path style=" stroke:none;fill-rule:nonzero;fill:rgb(0%,0%,0%);fill-opacity:1;" d="M 21.070312 25.992188 C 22.023438 25.992188 23.394531 25.320312 23.394531 24.496094 C 23.394531 23.667969 23.484375 22.996094 22.535156 22.996094 C 20.09375 23.25 19.953125 25.992188 21.070312 25.992188 Z M 21.070312 25.992188 "/>
</g>
</defs>
<g id="surface1">
<path style=" stroke:none;fill-rule:evenodd;fill:rgb(49.411765%,34.117647%,17.647059%);fill-opacity:1;" d="M 8.40625 2.136719 L 27.59375 2.136719 C 31.054688 2.136719 33.863281 4.945312 33.863281 8.40625 L 33.863281 27.59375 C 33.863281 31.054688 31.054688 33.863281 27.59375 33.863281 L 8.40625 33.863281 C 4.945312 33.863281 2.136719 31.054688 2.136719 27.59375 L 2.136719 8.40625 C 2.136719 4.945312 4.945312 2.136719 8.40625 2.136719 Z M 8.40625 2.136719 "/>
<path style=" stroke:none;fill-rule:nonzero;fill:rgb(56.078431%,41.176471%,26.27451%);fill-opacity:1;" d="M 21.898438 27.992188 C 21.898438 30.199219 20.109375 31.988281 17.902344 31.988281 C 15.695312 31.988281 13.902344 30.199219 13.902344 27.992188 C 13.902344 25.785156 15.695312 23.996094 17.902344 23.996094 C 20.109375 23.996094 21.898438 25.785156 21.898438 27.992188 Z M 21.898438 27.992188 "/>
<path style=" stroke:none;fill-rule:nonzero;fill:rgb(100%,100%,100%);fill-opacity:1;" d="M 16.777344 27.992188 L 17.527344 27.992188 C 17.734375 27.992188 17.902344 28.160156 17.902344 28.367188 L 17.902344 30.613281 C 17.902344 30.820312 17.734375 30.988281 17.527344 30.988281 L 16.777344 30.988281 C 16.570312 30.988281 16.402344 30.820312 16.402344 30.613281 L 16.402344 28.367188 C 16.402344 28.160156 16.570312 27.992188 16.777344 27.992188 Z M 16.777344 27.992188 "/>
<path style=" stroke:none;fill-rule:nonzero;fill:rgb(100%,100%,100%);fill-opacity:1;" d="M 18.277344 27.992188 L 19.023438 27.992188 C 19.230469 27.992188 19.398438 28.160156 19.398438 28.367188 L 19.398438 30.613281 C 19.398438 30.820312 19.230469 30.988281 19.023438 30.988281 L 18.277344 30.988281 C 18.070312 30.988281 17.902344 30.820312 17.902344 30.613281 L 17.902344 28.367188 C 17.902344 28.160156 18.070312 27.992188 18.277344 27.992188 Z M 18.277344 27.992188 "/>
<path style=" stroke:none;fill-rule:nonzero;fill:rgb(69.019608%,51.764706%,34.509804%);fill-opacity:1;" d="M 6.359375 4.019531 C 6.253906 4.007812 6.160156 4.011719 6.074219 4.027344 C 5.960938 4.046875 5.863281 4.089844 5.78125 4.152344 C 5.125 4.671875 5.332031 6.738281 6.46875 11.035156 C 7.105469 13.445312 7.628906 14.726562 8.535156 16.085938 C 9.128906 16.976562 9.414062 17.316406 10.394531 18.285156 C 11.273438 19.253906 12.382812 20.609375 12.40625 21.746094 C 12.152344 23.996094 10.507812 25.171875 10.40625 27.085938 C 10.40625 29.402344 11.488281 30.988281 13.804688 30.988281 C 15.257812 31.132812 16.597656 29.253906 17.902344 28.992188 C 19.203125 29.253906 20.542969 31.132812 21.996094 30.988281 C 24.3125 30.988281 25.394531 29.402344 25.394531 27.085938 C 25.292969 25.171875 23.648438 23.996094 23.394531 21.746094 C 23.417969 20.609375 24.527344 19.253906 25.40625 18.285156 C 26.386719 17.316406 26.671875 16.976562 27.269531 16.085938 C 28.171875 14.726562 28.695312 13.445312 29.335938 11.035156 C 30.46875 6.738281 30.675781 4.671875 30.019531 4.152344 C 29.9375 4.089844 29.84375 4.046875 29.726562 4.027344 C 29.644531 4.011719 29.546875 4.007812 29.445312 4.019531 C 29.128906 4.042969 28.722656 4.179688 28.214844 4.429688 C 27.207031 4.917969 26.222656 5.644531 25.113281 6.710938 C 23.449219 8.3125 22.855469 9.234375 20.894531 13.222656 C 20.308594 14.410156 19.589844 15.566406 18.710938 16.828125 C 18.457031 17.003906 17.902344 17 17.902344 17 C 17.902344 17 17.34375 17.003906 17.089844 16.828125 C 16.210938 15.566406 15.492188 14.410156 14.90625 13.222656 C 12.949219 9.234375 12.351562 8.3125 10.6875 6.710938 C 9.578125 5.644531 8.59375 4.917969 7.585938 4.429688 C 7.078125 4.179688 6.671875 4.042969 6.359375 4.019531 Z M 6.359375 4.019531 "/>
<path style=" stroke:none;fill-rule:nonzero;fill:rgb(48.627451%,36.470588%,24.313725%);fill-opacity:1;" d="M 6.839844 5.628906 C 6.84375 5.777344 6.824219 5.832031 6.84375 6.039062 C 6.941406 7.015625 7.261719 8.5625 7.820312 10.679688 C 8.441406 13.023438 8.882812 14.085938 9.699219 15.316406 C 10.265625 16.171875 10.417969 16.34375 11.378906 17.296875 L 11.40625 17.324219 L 11.429688 17.351562 C 11.84375 17.804688 12.347656 18.328125 12.789062 18.941406 C 13.507812 18.132812 14.402344 17.507812 15.40625 17.105469 C 14.699219 15.964844 14.125 14.796875 13.652344 13.839844 C 11.703125 9.875 11.3125 9.253906 9.71875 7.722656 C 8.679688 6.71875 7.816406 6.09375 6.972656 5.683594 C 6.859375 5.628906 6.933594 5.660156 6.839844 5.628906 Z M 29.160156 5.632812 C 29.097656 5.660156 29.097656 5.648438 29.027344 5.683594 C 28.183594 6.09375 27.320312 6.71875 26.28125 7.722656 C 24.691406 9.253906 24.296875 9.875 22.347656 13.839844 C 21.875 14.796875 21.300781 15.964844 20.59375 17.105469 C 21.597656 17.507812 22.492188 18.136719 23.210938 18.941406 C 23.652344 18.328125 24.15625 17.804688 24.570312 17.351562 L 24.59375 17.324219 L 24.621094 17.296875 C 25.582031 16.34375 25.734375 16.171875 26.300781 15.316406 C 27.117188 14.085938 27.5625 13.023438 28.179688 10.679688 C 28.738281 8.5625 29.058594 7.015625 29.15625 6.039062 C 29.175781 5.835938 29.15625 5.78125 29.160156 5.632812 Z M 29.160156 5.632812 "/>
<path style=" stroke:none;fill-rule:nonzero;fill:rgb(74.901961%,21.176471%,40.392157%);fill-opacity:1;" d="M 17.902344 28.992188 C 16.292969 28.890625 14.910156 27.457031 15.570312 26.753906 C 16.277344 26.195312 17.160156 25.988281 17.902344 25.992188 C 18.640625 25.988281 19.523438 26.195312 20.230469 26.753906 C 20.890625 27.457031 19.507812 28.890625 17.902344 28.992188 Z M 17.902344 28.992188 "/>
<use xlink:href="#surface6" mask="url(#mask0)"/>
<path style=" stroke:none;fill-rule:nonzero;fill:rgb(100%,100%,100%);fill-opacity:1;" d="M 14.730469 24.992188 C 13.78125 24.992188 12.40625 24.324219 12.40625 23.496094 C 12.40625 22.667969 12.316406 21.996094 13.265625 21.996094 C 15.710938 22.25 15.847656 24.992188 14.730469 24.992188 Z M 14.730469 24.992188 "/>
<path style=" stroke:none;fill-rule:nonzero;fill:rgb(19.607843%,19.607843%,19.607843%);fill-opacity:1;" d="M 15.402344 24.496094 C 15.402344 24.769531 15.179688 24.992188 14.902344 24.992188 C 14.628906 24.992188 14.402344 24.769531 14.402344 24.496094 C 14.402344 24.21875 14.628906 23.996094 14.902344 23.996094 C 15.179688 23.996094 15.402344 24.21875 15.402344 24.496094 Z M 15.402344 24.496094 "/>
<use xlink:href="#surface9" mask="url(#mask1)"/>
<path style=" stroke:none;fill-rule:nonzero;fill:rgb(100%,100%,100%);fill-opacity:1;" d="M 21.070312 24.992188 C 22.023438 24.992188 23.394531 24.324219 23.394531 23.496094 C 23.394531 22.667969 23.484375 21.996094 22.535156 21.996094 C 20.09375 22.25 19.953125 24.992188 21.070312 24.992188 Z M 21.070312 24.992188 "/>
<path style=" stroke:none;fill-rule:nonzero;fill:rgb(19.607843%,19.607843%,19.607843%);fill-opacity:1;" d="M 20.398438 24.496094 C 20.398438 24.769531 20.621094 24.992188 20.898438 24.992188 C 21.175781 24.992188 21.398438 24.769531 21.398438 24.496094 C 21.398438 24.21875 21.175781 23.996094 20.898438 23.996094 C 20.621094 23.996094 20.398438 24.21875 20.398438 24.496094 Z M 20.398438 24.496094 "/>
</g>
</svg>
