<?xml version="1.0" encoding="UTF-8"?>
<svg xmlns="http://www.w3.org/2000/svg" xmlns:xlink="http://www.w3.org/1999/xlink" width="36pt" height="36pt" viewBox="0 0 36 36" version="1.1">
<defs>
<clipPath id="clip1">
  <rect width="36" height="36"/>
</clipPath>
<g id="surface6" clip-path="url(#clip1)">
<path style=" stroke:none;fill-rule:evenodd;fill:rgb(27.058824%,52.941176%,81.176471%);fill-opacity:1;" d="M 11.074219 22.019531 L 7.875 14.613281 L 10.527344 13.386719 L 12.589844 18.355469 L 15.082031 17.089844 L 16.203125 19.480469 Z M 11.074219 22.019531 "/>
<path style=" stroke:none;fill-rule:evenodd;fill:rgb(87.058824%,32.54902%,15.686275%);fill-opacity:1;" d="M 20.390625 12.027344 L 23.203125 12.566406 L 23.808594 14.390625 L 25.042969 12.980469 L 28.125 13.628906 L 25.359375 16.710938 L 26.917969 21.300781 L 23.605469 20.980469 L 23.015625 18.492188 L 21.515625 20.539062 L 18.9375 19.734375 L 21.53125 16.066406 Z M 20.390625 12.027344 "/>
<path style=" stroke:none;fill-rule:evenodd;fill:rgb(87.45098%,65.490196%,13.333333%);fill-opacity:1;" d="M 13.292969 14.550781 L 16.511719 14.988281 L 17.46875 16.984375 L 18.671875 15.257812 L 21.914062 15.671875 L 18.941406 19.917969 L 18.214844 23.972656 L 15.207031 23.496094 L 15.722656 19.855469 Z M 13.292969 14.550781 "/>
</g>
</defs>
<g id="surface1">
<path style=" stroke:none;fill-rule:evenodd;fill:rgb(94.901961%,94.901961%,94.901961%);fill-opacity:1;" d="M 8.40625 2.136719 L 27.59375 2.136719 C 31.054688 2.136719 33.863281 4.945312 33.863281 8.40625 L 33.863281 27.59375 C 33.863281 31.054688 31.054688 33.863281 27.59375 33.863281 L 8.40625 33.863281 C 4.945312 33.863281 2.136719 31.054688 2.136719 27.59375 L 2.136719 8.40625 C 2.136719 4.945312 4.945312 2.136719 8.40625 2.136719 Z M 8.40625 2.136719 "/>
<use xlink:href="#surface6"/>
</g>
</svg>
