<?xml version="1.0" encoding="UTF-8"?>
<svg xmlns="http://www.w3.org/2000/svg" xmlns:xlink="http://www.w3.org/1999/xlink" width="36pt" height="36pt" viewBox="0 0 36 36" version="1.1">
<g id="surface1">
<path style=" stroke:none;fill-rule:evenodd;fill:rgb(11.372549%,65.098039%,90.980392%);fill-opacity:1;" d="M 8.40625 2.136719 L 27.59375 2.136719 C 31.054688 2.136719 33.863281 4.945312 33.863281 8.40625 L 33.863281 27.59375 C 33.863281 31.054688 31.054688 33.863281 27.59375 33.863281 L 8.40625 33.863281 C 4.945312 33.863281 2.136719 31.054688 2.136719 27.59375 L 2.136719 8.40625 C 2.136719 4.945312 4.945312 2.136719 8.40625 2.136719 Z M 8.40625 2.136719 "/>
<path style=" stroke:none;fill-rule:nonzero;fill:rgb(100%,88.235294%,45.490196%);fill-opacity:1;" d="M 14.625 21.375 C 14.625 23.550781 12.863281 25.3125 10.6875 25.3125 C 8.511719 25.3125 6.75 23.550781 6.75 21.375 C 6.75 19.199219 8.511719 17.4375 10.6875 17.4375 C 12.863281 17.4375 14.625 19.199219 14.625 21.375 Z M 14.625 21.375 "/>
<path style=" stroke:none;fill-rule:nonzero;fill:rgb(100%,82.745098%,21.960784%);fill-opacity:1;" d="M 15.75 16.3125 C 15.75 18.175781 14.238281 19.6875 12.375 19.6875 C 10.511719 19.6875 9 18.175781 9 16.3125 C 9 14.449219 10.511719 12.9375 12.375 12.9375 C 14.238281 12.9375 15.75 14.449219 15.75 16.3125 Z M 15.75 16.3125 "/>
<path style=" stroke:none;fill-rule:nonzero;fill:rgb(100%,72.156863%,13.333333%);fill-opacity:1;" d="M 23.625 15.75 C 23.625 18.546875 21.359375 20.8125 18.5625 20.8125 C 15.765625 20.8125 13.5 18.546875 13.5 15.75 C 13.5 12.953125 15.765625 10.6875 18.5625 10.6875 C 21.359375 10.6875 23.625 12.953125 23.625 15.75 Z M 23.625 15.75 "/>
<path style=" stroke:none;fill-rule:nonzero;fill:rgb(100%,48.627451%,17.647059%);fill-opacity:1;" d="M 29.25 20.25 C 29.25 23.046875 26.984375 25.3125 24.1875 25.3125 C 21.390625 25.3125 19.125 23.046875 19.125 20.25 C 19.125 17.453125 21.390625 15.1875 24.1875 15.1875 C 26.984375 15.1875 29.25 17.453125 29.25 20.25 Z M 29.25 20.25 "/>
<path style=" stroke:none;fill-rule:nonzero;fill:rgb(100%,59.215686%,17.647059%);fill-opacity:1;" d="M 23.625 19.6875 C 23.625 22.792969 21.105469 25.3125 18 25.3125 C 14.894531 25.3125 12.375 22.792969 12.375 19.6875 C 12.375 16.582031 14.894531 14.0625 18 14.0625 C 21.105469 14.0625 23.625 16.582031 23.625 19.6875 Z M 23.625 19.6875 "/>
</g>
</svg>
