<?xml version="1.0" encoding="UTF-8"?>
<svg xmlns="http://www.w3.org/2000/svg" xmlns:xlink="http://www.w3.org/1999/xlink" width="36pt" height="36pt" viewBox="0 0 36 36" version="1.1">
<g id="surface1">
<path style=" stroke:none;fill-rule:evenodd;fill:rgb(0.784314%,52.54902%,76.078431%);fill-opacity:1;" d="M 8.40625 2.136719 L 27.59375 2.136719 C 31.054688 2.136719 33.863281 4.945312 33.863281 8.40625 L 33.863281 27.59375 C 33.863281 31.054688 31.054688 33.863281 27.59375 33.863281 L 8.40625 33.863281 C 4.945312 33.863281 2.136719 31.054688 2.136719 27.59375 L 2.136719 8.40625 C 2.136719 4.945312 4.945312 2.136719 8.40625 2.136719 Z M 8.40625 2.136719 "/>
<path style=" stroke:none;fill-rule:nonzero;fill:rgb(51.764706%,51.764706%,51.764706%);fill-opacity:1;" d="M 18 11.320312 C 14.3125 11.320312 11.320312 14.3125 11.320312 18 C 11.320312 21.6875 14.3125 24.679688 18 24.679688 C 21.6875 24.679688 24.679688 21.6875 24.679688 18 C 24.679688 14.3125 21.6875 11.320312 18 11.320312 Z M 18 15.328125 C 19.476562 15.328125 20.671875 16.523438 20.671875 18 C 20.671875 19.476562 19.476562 20.671875 18 20.671875 C 16.523438 20.671875 15.328125 19.476562 15.328125 18 C 15.328125 16.523438 16.523438 15.328125 18 15.328125 Z M 18 15.328125 "/>
<path style=" stroke:none;fill-rule:nonzero;fill:rgb(80%,80%,80%);fill-opacity:1;" d="M 18 5.53125 C 11.09375 5.53125 5.53125 11.09375 5.53125 18 C 5.53125 24.90625 11.09375 30.46875 18 30.46875 C 24.90625 30.46875 30.46875 24.90625 30.46875 18 C 30.46875 11.09375 24.90625 5.53125 18 5.53125 Z M 18 12.65625 C 20.953125 12.65625 23.34375 15.046875 23.34375 18 C 23.34375 20.953125 20.953125 23.34375 18 23.34375 C 15.046875 23.34375 12.65625 20.953125 12.65625 18 C 12.65625 15.046875 15.046875 12.65625 18 12.65625 Z M 18 12.65625 "/>
<path style=" stroke:none;fill-rule:nonzero;fill:rgb(39.215686%,80.392157%,29.019608%);fill-opacity:1;" d="M 10.367188 21.5625 L 25.632812 21.5625 C 26.335938 21.5625 26.90625 22.132812 26.90625 22.835938 L 26.90625 29.195312 C 26.90625 29.898438 26.335938 30.46875 25.632812 30.46875 L 10.367188 30.46875 C 9.664062 30.46875 9.09375 29.898438 9.09375 29.195312 L 9.09375 22.835938 C 9.09375 22.132812 9.664062 21.5625 10.367188 21.5625 Z M 10.367188 21.5625 "/>
<path style="fill:none;stroke-width:0.999897;stroke-linecap:round;stroke-linejoin:round;stroke:rgb(100%,100%,100%);stroke-opacity:1;stroke-miterlimit:4;" d="M -31.977103 18.152443 L -31.977103 14.207999 M -35.136825 14.207999 L -33.556964 16.180221 L -31.977103 14.207999 M -35.136825 18.152443 L -35.136825 14.207999 " transform="matrix(1.125,0,0,1.125,50.853147,7.812876)"/>
<path style="fill:none;stroke-width:0.999663;stroke-linecap:round;stroke-linejoin:miter;stroke:rgb(100%,100%,100%);stroke-opacity:1;stroke-miterlimit:4;" d="M -27.227103 18.152443 L -29.595158 15.687165 M -27.227103 14.207999 L -29.595158 16.673277 M -29.595158 18.152443 L -29.595158 14.207999 " transform="matrix(1.125,0,0,1.125,50.853147,7.812876)"/>
<path style="fill:none;stroke-width:0.999599;stroke-linecap:round;stroke-linejoin:round;stroke:rgb(100%,100%,100%);stroke-opacity:1;stroke-miterlimit:4;" d="M -23.265297 14.204527 L -24.452797 18.159388 L -25.640297 14.204527 " transform="matrix(1.125,0,0,1.125,50.853147,7.812876)"/>
</g>
</svg>
