<?xml version="1.0" encoding="UTF-8"?>
<svg xmlns="http://www.w3.org/2000/svg" xmlns:xlink="http://www.w3.org/1999/xlink" width="36pt" height="36pt" viewBox="0 0 36 36" version="1.1">
<g id="surface1">
<path style=" stroke:none;fill-rule:evenodd;fill:rgb(55.686275%,55.686275%,55.686275%);fill-opacity:1;" d="M 8.40625 2.136719 L 27.59375 2.136719 C 31.054688 2.136719 33.863281 4.945312 33.863281 8.40625 L 33.863281 27.59375 C 33.863281 31.054688 31.054688 33.863281 27.59375 33.863281 L 8.40625 33.863281 C 4.945312 33.863281 2.136719 31.054688 2.136719 27.59375 L 2.136719 8.40625 C 2.136719 4.945312 4.945312 2.136719 8.40625 2.136719 Z M 8.40625 2.136719 "/>
<path style=" stroke:none;fill-rule:nonzero;fill:rgb(27.843137%,27.843137%,27.843137%);fill-opacity:1;" d="M 10.027344 9.203125 L 25.972656 9.203125 C 28.058594 9.203125 29.753906 10.894531 29.753906 12.984375 L 29.753906 23.015625 C 29.753906 25.105469 28.058594 26.796875 25.972656 26.796875 L 10.027344 26.796875 C 7.941406 26.796875 6.246094 25.105469 6.246094 23.015625 L 6.246094 12.984375 C 6.246094 10.894531 7.941406 9.203125 10.027344 9.203125 Z M 10.027344 9.203125 "/>
<path style=" stroke:none;fill-rule:nonzero;fill:rgb(13.72549%,13.72549%,13.72549%);fill-opacity:1;" d="M 10.167969 10.316406 L 25.832031 10.316406 C 27.414062 10.316406 28.699219 11.546875 28.699219 13.066406 L 28.699219 22.933594 C 28.699219 24.453125 27.414062 25.683594 25.832031 25.683594 L 10.167969 25.683594 C 8.585938 25.683594 7.300781 24.453125 7.300781 22.933594 L 7.300781 13.066406 C 7.300781 11.546875 8.585938 10.316406 10.167969 10.316406 Z M 10.167969 10.316406 "/>
<path style=" stroke:none;fill-rule:evenodd;fill:rgb(20.784314%,57.647059%,80.392157%);fill-opacity:1;" d="M 31.863281 25.109375 C 31.863281 28.835938 28.84375 31.859375 25.113281 31.859375 C 21.386719 31.859375 18.363281 28.835938 18.363281 25.109375 C 18.363281 21.378906 21.386719 18.359375 25.113281 18.359375 C 28.84375 18.359375 31.863281 21.378906 31.863281 25.109375 Z M 31.863281 25.109375 "/>
<path style=" stroke:none;fill-rule:evenodd;fill:rgb(100%,100%,100%);fill-opacity:1;" d="M 25.113281 22.367188 C 24.296875 22.375 23.472656 22.5625 22.761719 22.964844 C 22.476562 23.148438 22.136719 23.390625 21.878906 23.628906 C 21.476562 24.023438 21.128906 24.488281 20.894531 25.003906 C 21.535156 26.417969 22.945312 27.453125 24.496094 27.605469 C 25.511719 27.722656 26.574219 27.546875 27.46875 27.042969 C 27.753906 26.859375 28.09375 26.617188 28.351562 26.378906 C 28.753906 25.980469 29.101562 25.519531 29.332031 25.003906 C 28.695312 23.589844 27.285156 22.554688 25.734375 22.402344 C 25.53125 22.378906 25.320312 22.367188 25.113281 22.367188 Z M 25.113281 23.421875 C 25.960938 23.402344 26.714844 24.160156 26.695312 25.003906 C 26.722656 25.933594 25.796875 26.738281 24.878906 26.566406 C 23.953125 26.457031 23.300781 25.417969 23.605469 24.535156 C 23.800781 23.886719 24.4375 23.414062 25.117188 23.421875 Z M 25.113281 24.476562 C 24.976562 24.476562 24.839844 24.53125 24.742188 24.632812 C 24.644531 24.730469 24.585938 24.863281 24.585938 25.003906 C 24.585938 25.296875 24.824219 25.53125 25.113281 25.53125 C 25.40625 25.53125 25.640625 25.296875 25.640625 25.003906 C 25.640625 24.714844 25.40625 24.476562 25.113281 24.476562 Z M 25.113281 24.476562 "/>
</g>
</svg>
