<?xml version="1.0" encoding="UTF-8"?>
<svg xmlns="http://www.w3.org/2000/svg" xmlns:xlink="http://www.w3.org/1999/xlink" width="36pt" height="36pt" viewBox="0 0 36 36" version="1.1">
<g id="surface1">
<path style=" stroke:none;fill-rule:evenodd;fill:rgb(89.019608%,68.627451%,29.019608%);fill-opacity:1;" d="M 8.40625 2.136719 L 27.59375 2.136719 C 31.054688 2.136719 33.863281 4.945312 33.863281 8.40625 L 33.863281 27.59375 C 33.863281 31.054688 31.054688 33.863281 27.59375 33.863281 L 8.40625 33.863281 C 4.945312 33.863281 2.136719 31.054688 2.136719 27.59375 L 2.136719 8.40625 C 2.136719 4.945312 4.945312 2.136719 8.40625 2.136719 Z M 8.40625 2.136719 "/>
<path style=" stroke:none;fill-rule:nonzero;fill:rgb(98.039216%,100%,51.764706%);fill-opacity:1;" d="M 8.269531 9 L 27.730469 9 C 28.570312 9 29.25 9.734375 29.25 10.636719 L 29.25 25.363281 C 29.25 26.265625 28.570312 27 27.730469 27 L 8.269531 27 C 7.429688 27 6.75 26.265625 6.75 25.363281 L 6.75 10.636719 C 6.75 9.734375 7.429688 9 8.269531 9 Z M 8.269531 9 "/>
<path style=" stroke:none;fill-rule:nonzero;fill:rgb(30.588235%,30.588235%,30.588235%);fill-opacity:1;" d="M 14.988281 15.75 L 21.011719 15.75 C 21.835938 15.75 22.5 16.4375 22.5 17.289062 L 22.5 17.585938 C 22.5 18.4375 21.835938 19.125 21.011719 19.125 L 14.988281 19.125 C 14.164062 19.125 13.5 18.4375 13.5 17.585938 L 13.5 17.289062 C 13.5 16.4375 14.164062 15.75 14.988281 15.75 Z M 14.988281 15.75 "/>
</g>
</svg>
