<?xml version="1.0" encoding="UTF-8"?>
<svg xmlns="http://www.w3.org/2000/svg" xmlns:xlink="http://www.w3.org/1999/xlink" width="36pt" height="36pt" viewBox="0 0 36 36" version="1.1">
<g id="surface1">
<path style=" stroke:none;fill-rule:evenodd;fill:rgb(20%,30.196078%,36.078431%);fill-opacity:1;" d="M 33.988281 17.371094 L 2.027344 17.371094 L 2.027344 27.601562 C 2.027344 31.101562 4.847656 33.917969 8.34375 33.917969 L 27.671875 33.917969 C 31.171875 33.917969 33.988281 31.101562 33.988281 27.601562 Z M 33.988281 17.371094 "/>
<path style=" stroke:none;fill-rule:evenodd;fill:rgb(81.568627%,49.411765%,20.392157%);fill-opacity:1;" d="M 33.988281 11.421875 L 2.027344 11.421875 L 2.027344 17.371094 L 33.988281 17.371094 Z M 33.988281 11.421875 "/>
<path style=" stroke:none;fill-rule:evenodd;fill:rgb(50.196078%,50.196078%,50.196078%);fill-opacity:1;" d="M 8.34375 1.957031 C 4.847656 1.957031 2.027344 4.773438 2.027344 8.273438 L 2.027344 11.421875 L 33.988281 11.421875 L 33.988281 8.273438 C 33.988281 4.773438 31.171875 1.957031 27.671875 1.957031 Z M 8.34375 1.957031 "/>
<path style=" stroke:none;fill-rule:evenodd;fill:rgb(91.764706%,67.843137%,26.27451%);fill-opacity:1;" d="M 33.988281 16.488281 L 2.027344 16.488281 L 2.027344 27.742188 C 2.027344 31.242188 4.847656 34.058594 8.34375 34.058594 L 27.667969 34.058594 C 31.167969 34.058594 33.988281 31.242188 33.988281 27.742188 Z M 33.988281 16.488281 "/>
<path style=" stroke:none;fill-rule:evenodd;fill:rgb(79.607843%,49.803922%,17.254902%);fill-opacity:1;" d="M 10.144531 20.28125 C 10.144531 20.921875 9.625 21.441406 8.984375 21.441406 C 8.339844 21.441406 7.820312 20.921875 7.820312 20.28125 C 7.820312 19.636719 8.339844 19.117188 8.984375 19.117188 C 9.625 19.117188 10.144531 19.636719 10.144531 20.28125 Z M 10.144531 20.28125 "/>
<path style=" stroke:none;fill-rule:evenodd;fill:rgb(79.607843%,49.803922%,17.254902%);fill-opacity:1;" d="M 28.75 20.296875 C 28.75 20.941406 28.230469 21.460938 27.589844 21.460938 C 26.945312 21.460938 26.425781 20.941406 26.425781 20.296875 C 26.425781 19.65625 26.945312 19.136719 27.589844 19.136719 C 28.230469 19.136719 28.75 19.65625 28.75 20.296875 Z M 28.75 20.296875 "/>
<path style=" stroke:none;fill-rule:nonzero;fill:rgb(100%,100%,100%);fill-opacity:1;" d="M 9.054688 20.015625 C 8.859375 20.011719 8.671875 20.089844 8.535156 20.234375 C 8.402344 20.375 8.335938 20.566406 8.351562 20.761719 C 8.804688 27.734375 13.625 31.121094 18.382812 30.949219 C 23.140625 30.78125 27.863281 27.121094 28.203125 20.753906 C 28.222656 20.503906 28.105469 20.261719 27.894531 20.121094 C 27.6875 19.984375 27.417969 19.96875 27.195312 20.085938 C 26.972656 20.203125 26.828125 20.429688 26.824219 20.679688 C 26.515625 26.40625 22.433594 29.421875 18.335938 29.570312 C 14.234375 29.714844 10.144531 27.058594 9.730469 20.671875 C 9.710938 20.3125 9.417969 20.023438 9.054688 20.015625 Z M 9.054688 20.015625 "/>
</g>
</svg>
