<?xml version="1.0" encoding="UTF-8"?>
<svg xmlns="http://www.w3.org/2000/svg" xmlns:xlink="http://www.w3.org/1999/xlink" width="36pt" height="36pt" viewBox="0 0 36 36" version="1.1">
<g id="surface1">
<path style=" stroke:none;fill-rule:evenodd;fill:rgb(55.686275%,55.686275%,55.686275%);fill-opacity:1;" d="M 8.40625 2.136719 L 27.59375 2.136719 C 31.054688 2.136719 33.863281 4.945312 33.863281 8.40625 L 33.863281 27.59375 C 33.863281 31.054688 31.054688 33.863281 27.59375 33.863281 L 8.40625 33.863281 C 4.945312 33.863281 2.136719 31.054688 2.136719 27.59375 L 2.136719 8.40625 C 2.136719 4.945312 4.945312 2.136719 8.40625 2.136719 Z M 8.40625 2.136719 "/>
<path style=" stroke:none;fill-rule:nonzero;fill:rgb(71.764706%,71.764706%,71.764706%);fill-opacity:1;" d="M 8.132812 30.558594 L 27.867188 30.558594 L 27.867188 21.589844 L 8.132812 21.589844 Z M 8.132812 30.558594 "/>
<path style=" stroke:none;fill-rule:nonzero;fill:rgb(40%,40%,40%);fill-opacity:1;" d="M 10.824219 28.765625 L 14.410156 28.765625 L 14.410156 26.074219 L 10.824219 26.074219 Z M 10.824219 28.765625 "/>
<path style=" stroke:none;fill-rule:nonzero;fill:rgb(40%,40%,40%);fill-opacity:1;" d="M 21.589844 28.765625 L 25.175781 28.765625 L 25.175781 26.074219 L 21.589844 26.074219 Z M 21.589844 28.765625 "/>
<path style=" stroke:none;fill-rule:nonzero;fill:rgb(31.764706%,38.039216%,63.529412%);fill-opacity:1;" d="M 18 5.441406 C 11.0625 5.441406 5.441406 11.0625 5.441406 18 C 5.445312 19.863281 5.863281 21.703125 6.667969 23.382812 L 29.332031 23.382812 C 30.132812 21.703125 30.554688 19.863281 30.558594 18 C 30.558594 11.0625 24.9375 5.441406 18 5.441406 Z M 18 5.441406 "/>
<path style=" stroke:none;fill-rule:nonzero;fill:rgb(100%,100%,100%);fill-opacity:0.454902;" d="M 21.140625 8.132812 C 18.910156 8.132812 17.101562 9.941406 17.101562 12.167969 L 17.101562 14.410156 L 14.859375 14.410156 C 12.632812 14.410156 10.824219 16.21875 10.824219 18.449219 C 10.824219 20.679688 12.632812 22.484375 14.859375 22.484375 C 17.089844 22.484375 18.898438 20.679688 18.898438 18.449219 L 18.898438 16.207031 L 21.140625 16.207031 C 23.367188 16.207031 25.175781 14.398438 25.175781 12.167969 C 25.175781 9.941406 23.367188 8.132812 21.140625 8.132812 Z M 21.140625 9.925781 C 22.378906 9.925781 23.382812 10.929688 23.382812 12.167969 C 23.382812 13.40625 22.378906 14.410156 21.140625 14.410156 L 19.355469 14.410156 C 19.148438 14.410156 18.898438 14.414062 18.898438 13.917969 L 18.898438 12.167969 C 18.898438 10.929688 19.902344 9.925781 21.140625 9.925781 Z M 14.859375 16.207031 L 16.644531 16.207031 C 16.851562 16.207031 17.101562 16.207031 17.101562 16.699219 L 17.101562 18.449219 C 17.101562 19.6875 16.097656 20.691406 14.859375 20.691406 C 13.621094 20.691406 12.617188 19.6875 12.617188 18.449219 C 12.617188 17.210938 13.621094 16.207031 14.859375 16.207031 Z M 14.859375 16.207031 "/>
<path style=" stroke:none;fill-rule:nonzero;fill:rgb(100%,100%,100%);fill-opacity:1;" d="M 21.140625 8.132812 C 18.910156 8.132812 17.101562 9.941406 17.101562 12.167969 L 17.101562 14.410156 L 14.859375 14.410156 C 14.832031 14.410156 14.800781 14.414062 14.769531 14.417969 C 14.3125 14.464844 13.964844 14.847656 13.964844 15.308594 C 13.964844 15.804688 14.363281 16.207031 14.859375 16.207031 L 16.644531 16.207031 C 16.851562 16.207031 17.101562 16.207031 17.101562 16.699219 L 17.101562 18.449219 C 17.101562 19.6875 16.097656 20.691406 14.859375 20.691406 C 14.515625 20.691406 14.195312 20.605469 13.902344 20.46875 C 13.78125 20.410156 13.648438 20.378906 13.515625 20.378906 C 13.019531 20.378906 12.617188 20.777344 12.617188 21.273438 C 12.617188 21.613281 12.808594 21.921875 13.113281 22.074219 C 13.113281 22.078125 13.113281 22.082031 13.113281 22.082031 C 13.640625 22.339844 14.234375 22.484375 14.859375 22.484375 C 17.089844 22.484375 18.898438 20.679688 18.898438 18.449219 L 18.898438 16.207031 L 20.691406 16.207031 C 21.1875 16.207031 21.589844 15.804688 21.589844 15.308594 C 21.589844 14.8125 21.1875 14.410156 20.691406 14.410156 L 19.355469 14.410156 C 19.148438 14.410156 18.898438 14.414062 18.898438 13.917969 L 18.898438 12.167969 C 18.898438 10.929688 19.902344 9.925781 21.140625 9.925781 C 21.367188 9.925781 21.578125 9.96875 21.785156 10.03125 C 21.785156 10.03125 21.785156 10.027344 21.785156 10.023438 C 21.867188 10.050781 21.953125 10.0625 22.035156 10.0625 C 22.53125 10.0625 22.933594 9.660156 22.933594 9.164062 C 22.933594 9.082031 22.921875 8.996094 22.898438 8.917969 C 22.898438 8.902344 22.902344 8.890625 22.902344 8.875 C 22.894531 8.863281 22.878906 8.851562 22.871094 8.839844 C 22.761719 8.550781 22.507812 8.34375 22.207031 8.285156 C 22.199219 8.28125 22.195312 8.277344 22.1875 8.273438 C 21.851562 8.183594 21.503906 8.132812 21.140625 8.132812 Z M 21.140625 8.132812 "/>
</g>
</svg>
