<?xml version="1.0" encoding="UTF-8"?>
<svg xmlns="http://www.w3.org/2000/svg" xmlns:xlink="http://www.w3.org/1999/xlink" width="36pt" height="36pt" viewBox="0 0 36 36" version="1.1">
<g id="surface1">
<path style=" stroke:none;fill-rule:evenodd;fill:rgb(89.411765%,37.254902%,3.921569%);fill-opacity:1;" d="M 8.40625 2.136719 L 27.59375 2.136719 C 31.054688 2.136719 33.863281 4.945312 33.863281 8.40625 L 33.863281 27.59375 C 33.863281 31.054688 31.054688 33.863281 27.59375 33.863281 L 8.40625 33.863281 C 4.945312 33.863281 2.136719 31.054688 2.136719 27.59375 L 2.136719 8.40625 C 2.136719 4.945312 4.945312 2.136719 8.40625 2.136719 Z M 8.40625 2.136719 "/>
<path style=" stroke:none;fill-rule:evenodd;fill:rgb(58.039216%,76.470588%,89.411765%);fill-opacity:1;" d="M 33.726562 7.714844 C 33.367188 4.585938 30.820312 2.136719 27.59375 2.136719 L 12.738281 2.136719 C 11.921875 2.804688 11.113281 3.5 10.421875 4.316406 C 9.570312 5.320312 8.828125 6.425781 8.230469 7.59375 C 7.628906 8.761719 7.175781 9.992188 6.898438 11.257812 C 6.621094 12.519531 6.519531 13.8125 6.628906 15.101562 C 6.730469 16.308594 7.066406 17.546875 7.585938 18.707031 C 8.109375 19.867188 8.816406 20.953125 9.671875 21.863281 C 10.527344 22.773438 11.515625 23.5 12.609375 23.96875 C 13.703125 24.433594 14.898438 24.636719 16.167969 24.496094 C 16.914062 24.417969 17.597656 24.214844 18.199219 23.902344 C 18.804688 23.59375 19.324219 23.179688 19.742188 22.671875 C 20.15625 22.167969 20.464844 21.574219 20.644531 20.90625 C 20.824219 20.238281 20.871094 19.5 20.765625 18.703125 C 20.761719 18.695312 20.769531 18.679688 20.765625 18.671875 C 20.683594 18.453125 20.535156 18.304688 20.328125 18.175781 C 20.101562 18.035156 19.785156 17.957031 19.449219 17.910156 C 19.3125 17.894531 19.179688 17.886719 19.039062 17.882812 L 18.863281 18.496094 C 18.675781 19.207031 18.089844 19.933594 17.222656 20.402344 C 16.792969 20.636719 16.277344 20.796875 15.722656 20.828125 C 15.167969 20.859375 14.574219 20.761719 13.976562 20.488281 L 13.945312 20.457031 C 13.214844 20.039062 12.546875 19.386719 11.996094 18.578125 C 11.445312 17.773438 11.011719 16.808594 10.753906 15.773438 C 10.5 14.738281 10.433594 13.628906 10.625 12.523438 C 10.820312 11.421875 11.277344 10.328125 12.070312 9.335938 C 12.820312 8.402344 13.617188 7.601562 14.453125 6.929688 C 15.285156 6.257812 16.152344 5.710938 17.046875 5.277344 C 17.941406 4.84375 18.863281 4.527344 19.792969 4.316406 C 20.722656 4.101562 21.667969 3.996094 22.609375 3.980469 C 24.496094 3.953125 26.378906 4.285156 28.183594 4.886719 C 29.992188 5.488281 31.71875 6.355469 33.292969 7.40625 C 33.441406 7.503906 33.582031 7.613281 33.726562 7.714844 Z M 33.726562 7.714844 "/>
<path style=" stroke:none;fill-rule:evenodd;fill:rgb(58.039216%,76.470588%,89.411765%);fill-opacity:1;" d="M 2.28125 28.320312 C 2.65625 31.433594 5.191406 33.863281 8.40625 33.863281 L 23.28125 33.863281 C 24.09375 33.195312 24.894531 32.5 25.582031 31.6875 C 26.433594 30.679688 27.175781 29.582031 27.773438 28.414062 C 28.371094 27.25 28.824219 26.019531 29.101562 24.761719 C 29.378906 23.503906 29.480469 22.210938 29.371094 20.925781 C 29.265625 19.71875 28.933594 18.484375 28.414062 17.324219 C 27.890625 16.160156 27.183594 15.074219 26.328125 14.164062 C 25.472656 13.257812 24.484375 12.523438 23.390625 12.050781 C 22.296875 11.578125 21.101562 11.363281 19.832031 11.503906 C 19.082031 11.585938 18.394531 11.792969 17.792969 12.101562 C 17.1875 12.414062 16.667969 12.824219 16.257812 13.316406 C 15.851562 13.804688 15.546875 14.367188 15.367188 15.007812 C 15.1875 15.648438 15.132812 16.363281 15.234375 17.152344 C 15.386719 17.664062 15.882812 17.941406 16.550781 18.058594 C 16.679688 18.082031 16.828125 18.109375 16.960938 18.117188 L 17.136719 17.53125 C 17.324219 16.820312 17.910156 16.097656 18.777344 15.628906 C 19.207031 15.394531 19.722656 15.234375 20.277344 15.203125 C 20.832031 15.171875 21.429688 15.265625 22.023438 15.542969 L 22.054688 15.542969 C 22.785156 15.960938 23.453125 16.621094 24.003906 17.433594 C 24.554688 18.25 24.988281 19.21875 25.246094 20.253906 C 25.5 21.289062 25.566406 22.402344 25.375 23.507812 C 25.179688 24.609375 24.722656 25.703125 23.929688 26.695312 C 23.179688 27.628906 22.382812 28.425781 21.546875 29.101562 C 20.714844 29.773438 19.847656 30.320312 18.953125 30.753906 C 18.058594 31.183594 17.136719 31.503906 16.207031 31.714844 C 15.277344 31.929688 14.332031 32.039062 13.390625 32.050781 C 11.503906 32.078125 9.621094 31.746094 7.816406 31.144531 C 6.007812 30.546875 4.28125 29.675781 2.707031 28.625 C 2.5625 28.527344 2.425781 28.421875 2.28125 28.320312 Z M 2.28125 28.320312 "/>
<path style=" stroke:none;fill-rule:evenodd;fill:rgb(89.411765%,37.254902%,3.921569%);fill-opacity:1;" d="M 2.28125 28.320312 C 2.425781 28.421875 2.5625 28.527344 2.707031 28.625 C 4.28125 29.675781 6.007812 30.546875 7.816406 31.144531 C 9.621094 31.746094 11.503906 32.078125 13.390625 32.050781 C 14.332031 32.039062 15.277344 31.929688 16.207031 31.714844 C 17.136719 31.503906 18.058594 31.183594 18.953125 30.753906 C 19.847656 30.320312 20.714844 29.773438 21.546875 29.101562 C 22.382812 28.425781 23.179688 27.628906 23.929688 26.695312 C 24.722656 25.703125 25.179688 24.609375 25.375 23.507812 C 25.566406 22.402344 25.5 21.289062 25.246094 20.253906 C 24.988281 19.21875 24.554688 18.25 24.003906 17.433594 C 23.453125 16.621094 22.785156 15.960938 22.054688 15.542969 L 22.023438 15.542969 C 21.429688 15.265625 20.832031 15.171875 20.277344 15.203125 C 19.722656 15.234375 19.207031 15.394531 18.777344 15.628906 C 17.910156 16.097656 17.324219 16.820312 17.136719 17.53125 L 16.960938 18.117188 C 16.828125 18.109375 16.679688 18.082031 16.550781 18.058594 C 15.882812 17.941406 15.386719 17.664062 15.234375 17.152344 C 15.132812 16.363281 15.1875 15.648438 15.367188 15.007812 C 15.546875 14.367188 15.851562 13.804688 16.257812 13.316406 C 16.667969 12.824219 17.1875 12.414062 17.792969 12.101562 C 18.394531 11.792969 19.082031 11.585938 19.832031 11.503906 C 21.101562 11.363281 22.296875 11.578125 23.390625 12.050781 C 24.484375 12.523438 25.472656 13.257812 26.328125 14.164062 C 27.183594 15.074219 27.890625 16.160156 28.414062 17.324219 C 28.933594 18.484375 29.265625 19.71875 29.371094 20.925781 C 29.480469 22.210938 29.378906 23.503906 29.101562 24.761719 C 28.824219 26.019531 28.371094 27.25 27.773438 28.414062 C 27.175781 29.582031 26.433594 30.679688 25.582031 31.6875 C 24.894531 32.5 24.09375 33.195312 23.28125 33.863281 L 27.59375 33.863281 C 31.066406 33.863281 33.863281 31.066406 33.863281 27.59375 L 33.863281 8.40625 C 33.863281 8.160156 33.753906 7.953125 33.726562 7.714844 C 33.582031 7.613281 33.441406 7.503906 33.292969 7.40625 C 31.71875 6.355469 29.992188 5.488281 28.183594 4.886719 C 26.378906 4.285156 24.496094 3.953125 22.609375 3.980469 C 21.667969 3.996094 20.722656 4.101562 19.792969 4.316406 C 18.863281 4.527344 17.941406 4.84375 17.046875 5.277344 C 16.152344 5.710938 15.285156 6.257812 14.453125 6.929688 C 13.617188 7.601562 12.820312 8.402344 12.070312 9.335938 C 11.277344 10.328125 10.820312 11.421875 10.625 12.523438 C 10.433594 13.628906 10.5 14.738281 10.753906 15.773438 C 11.011719 16.808594 11.445312 17.773438 11.996094 18.578125 C 12.546875 19.386719 13.214844 20.039062 13.945312 20.457031 L 13.976562 20.488281 C 14.574219 20.761719 15.167969 20.859375 15.722656 20.828125 C 16.277344 20.796875 16.792969 20.636719 17.222656 20.402344 C 18.089844 19.933594 18.675781 19.207031 18.863281 18.496094 L 19.039062 17.882812 C 19.179688 17.886719 19.3125 17.894531 19.449219 17.910156 C 19.785156 17.957031 20.101562 18.035156 20.328125 18.175781 C 20.535156 18.304688 20.683594 18.453125 20.765625 18.671875 C 20.769531 18.679688 20.761719 18.695312 20.765625 18.703125 C 20.871094 19.5 20.824219 20.238281 20.644531 20.90625 C 20.464844 21.574219 20.15625 22.167969 19.742188 22.671875 C 19.324219 23.179688 18.804688 23.59375 18.199219 23.902344 C 17.597656 24.214844 16.914062 24.417969 16.167969 24.496094 C 14.898438 24.636719 13.703125 24.433594 12.609375 23.96875 C 11.515625 23.5 10.527344 22.773438 9.671875 21.863281 C 8.816406 20.953125 8.109375 19.867188 7.585938 18.707031 C 7.066406 17.546875 6.730469 16.308594 6.628906 15.101562 C 6.519531 13.8125 6.621094 12.519531 6.898438 11.257812 C 7.175781 9.992188 7.628906 8.761719 8.230469 7.59375 C 8.828125 6.425781 9.570312 5.320312 10.421875 4.316406 C 11.113281 3.5 11.921875 2.804688 12.738281 2.136719 L 8.40625 2.136719 C 4.933594 2.136719 2.136719 4.933594 2.136719 8.40625 L 2.136719 27.59375 C 2.136719 27.851562 2.253906 28.070312 2.28125 28.320312 Z M 2.28125 28.320312 "/>
</g>
</svg>
