<?xml version="1.0" encoding="UTF-8"?>
<svg xmlns="http://www.w3.org/2000/svg" xmlns:xlink="http://www.w3.org/1999/xlink" width="36pt" height="36pt" viewBox="0 0 36 36" version="1.1">
<g id="surface1">
<path style=" stroke:none;fill-rule:evenodd;fill:rgb(74.509804%,12.941176%,18.039216%);fill-opacity:1;" d="M 8.40625 2.136719 L 27.59375 2.136719 C 31.054688 2.136719 33.863281 4.945312 33.863281 8.40625 L 33.863281 27.59375 C 33.863281 31.054688 31.054688 33.863281 27.59375 33.863281 L 8.40625 33.863281 C 4.945312 33.863281 2.136719 31.054688 2.136719 27.59375 L 2.136719 8.40625 C 2.136719 4.945312 4.945312 2.136719 8.40625 2.136719 Z M 8.40625 2.136719 "/>
<path style=" stroke:none;fill-rule:nonzero;fill:rgb(100%,100%,100%);fill-opacity:1;" d="M 11.640625 9.566406 C 10.660156 9.59375 9.714844 10.046875 8.992188 10.734375 C 8.253906 11.429688 7.726562 12.386719 7.621094 13.417969 C 7.566406 13.929688 7.617188 14.457031 7.78125 14.945312 C 7.945312 15.433594 8.226562 15.882812 8.59375 16.230469 C 9.027344 16.640625 9.574219 16.898438 10.074219 17.21875 C 10.320312 17.378906 10.5625 17.558594 10.769531 17.777344 C 10.976562 17.992188 11.148438 18.25 11.242188 18.539062 C 11.328125 18.796875 11.347656 19.070312 11.308594 19.339844 C 11.269531 19.609375 11.175781 19.867188 11.035156 20.097656 C 10.757812 20.558594 10.308594 20.890625 9.816406 21.070312 C 9.242188 21.277344 8.613281 21.285156 8.0625 21.546875 C 7.625 21.753906 7.257812 22.113281 7.027344 22.550781 C 6.800781 22.992188 6.710938 23.503906 6.765625 24 C 6.832031 24.582031 7.101562 25.132812 7.5 25.546875 C 7.902344 25.957031 8.433594 26.222656 8.992188 26.3125 C 9.808594 26.441406 10.679688 26.171875 11.273438 25.574219 C 11.570312 25.273438 11.796875 24.902344 11.921875 24.492188 C 12.046875 24.082031 12.074219 23.640625 11.992188 23.222656 C 11.929688 22.898438 11.808594 22.59375 11.695312 22.289062 C 11.578125 21.984375 11.46875 21.671875 11.445312 21.34375 C 11.394531 20.765625 11.605469 20.179688 11.976562 19.746094 C 12.34375 19.3125 12.859375 19.027344 13.402344 18.902344 C 13.753906 18.820312 14.117188 18.800781 14.472656 18.863281 C 14.828125 18.925781 15.171875 19.070312 15.457031 19.296875 C 15.746094 19.519531 15.972656 19.824219 16.101562 20.175781 C 16.230469 20.523438 16.25 20.917969 16.148438 21.277344 C 16.046875 21.640625 15.824219 21.957031 15.597656 22.261719 C 15.371094 22.5625 15.132812 22.863281 14.996094 23.222656 C 14.847656 23.613281 14.832031 24.054688 14.933594 24.464844 C 15.035156 24.871094 15.25 25.246094 15.53125 25.550781 C 15.84375 25.886719 16.238281 26.136719 16.667969 26.273438 C 17.097656 26.414062 17.535156 26.4375 17.984375 26.4375 C 18.433594 26.4375 18.902344 26.414062 19.332031 26.273438 C 19.761719 26.136719 20.15625 25.886719 20.46875 25.550781 C 20.75 25.246094 20.964844 24.871094 21.066406 24.464844 C 21.167969 24.054688 21.152344 23.613281 21.003906 23.222656 C 20.867188 22.863281 20.628906 22.5625 20.402344 22.261719 C 20.175781 21.957031 19.953125 21.640625 19.851562 21.277344 C 19.75 20.917969 19.769531 20.523438 19.898438 20.175781 C 20.027344 19.824219 20.253906 19.519531 20.542969 19.296875 C 20.828125 19.070312 21.171875 18.925781 21.527344 18.863281 C 21.882812 18.800781 22.246094 18.820312 22.597656 18.902344 C 23.140625 19.027344 23.65625 19.3125 24.023438 19.746094 C 24.394531 20.179688 24.605469 20.765625 24.554688 21.34375 C 24.53125 21.671875 24.421875 21.984375 24.304688 22.289062 C 24.191406 22.59375 24.070312 22.898438 24.007812 23.222656 C 23.925781 23.640625 23.953125 24.082031 24.078125 24.492188 C 24.203125 24.902344 24.429688 25.273438 24.726562 25.574219 C 25.320312 26.171875 26.191406 26.441406 27.007812 26.3125 C 27.566406 26.222656 28.097656 25.957031 28.5 25.546875 C 28.898438 25.132812 29.167969 24.582031 29.234375 24 C 29.289062 23.503906 29.199219 22.992188 28.972656 22.550781 C 28.742188 22.113281 28.375 21.753906 27.9375 21.546875 C 27.386719 21.285156 26.757812 21.277344 26.183594 21.070312 C 25.691406 20.890625 25.242188 20.558594 24.960938 20.097656 C 24.824219 19.867188 24.730469 19.609375 24.691406 19.339844 C 24.652344 19.070312 24.671875 18.796875 24.757812 18.539062 C 24.851562 18.25 25.023438 17.992188 25.230469 17.777344 C 25.4375 17.558594 25.679688 17.378906 25.929688 17.21875 C 26.425781 16.898438 26.972656 16.640625 27.40625 16.230469 C 27.773438 15.882812 28.054688 15.433594 28.21875 14.945312 C 28.382812 14.457031 28.433594 13.929688 28.378906 13.417969 C 28.273438 12.386719 27.746094 11.429688 27.007812 10.734375 C 26.285156 10.046875 25.339844 9.59375 24.359375 9.566406 C 23.871094 9.550781 23.378906 9.636719 22.925781 9.835938 C 22.476562 10.03125 22.066406 10.339844 21.753906 10.734375 C 21.394531 11.183594 21.171875 11.730469 20.964844 12.269531 C 20.757812 12.816406 20.5625 13.371094 20.253906 13.855469 C 19.738281 14.65625 18.925781 15.414062 18 15.414062 C 17.074219 15.414062 16.261719 14.65625 15.746094 13.855469 C 15.4375 13.371094 15.242188 12.816406 15.035156 12.269531 C 14.828125 11.730469 14.605469 11.183594 14.246094 10.734375 C 13.933594 10.339844 13.523438 10.03125 13.074219 9.835938 C 12.621094 9.636719 12.132812 9.550781 11.640625 9.566406 Z M 18 16.3125 C 18.621094 16.3125 19.125 16.816406 19.125 17.4375 C 19.125 18.058594 18.621094 18.5625 18 18.5625 C 17.378906 18.5625 16.875 18.058594 16.875 17.4375 C 16.875 16.816406 17.378906 16.3125 18 16.3125 Z M 18 16.3125 "/>
</g>
</svg>
