<?xml version="1.0" encoding="UTF-8"?>
<svg xmlns="http://www.w3.org/2000/svg" xmlns:xlink="http://www.w3.org/1999/xlink" width="36pt" height="36pt" viewBox="0 0 36 36" version="1.1">
<defs>
<clipPath id="clip1">
  <rect width="36" height="36"/>
</clipPath>
<g id="surface6" clip-path="url(#clip1)">
<path style=" stroke:none;fill-rule:nonzero;fill:rgb(100%,100%,100%);fill-opacity:1;" d="M 15.800781 7.265625 C 15.574219 7.292969 15.375 7.476562 15.332031 7.703125 L 14.878906 10 C 14.066406 10.316406 13.300781 10.753906 12.632812 11.292969 L 10.402344 10.535156 C 10.171875 10.457031 9.890625 10.558594 9.765625 10.769531 L 7.617188 14.496094 C 7.496094 14.710938 7.546875 15.003906 7.734375 15.164062 L 9.515625 16.726562 C 9.453125 17.144531 9.414062 17.5625 9.414062 18 C 9.414062 18.4375 9.453125 18.855469 9.515625 19.273438 L 7.734375 20.835938 C 7.546875 20.996094 7.496094 21.292969 7.617188 21.507812 L 9.765625 25.230469 C 9.890625 25.441406 10.171875 25.542969 10.402344 25.464844 L 12.632812 24.707031 C 13.300781 25.246094 14.066406 25.683594 14.878906 26 L 15.332031 28.296875 C 15.378906 28.539062 15.609375 28.730469 15.851562 28.734375 L 20.148438 28.734375 C 20.390625 28.730469 20.621094 28.539062 20.667969 28.296875 L 21.121094 26 C 21.933594 25.683594 22.699219 25.246094 23.367188 24.707031 L 25.597656 25.464844 C 25.828125 25.542969 26.109375 25.441406 26.234375 25.230469 L 28.382812 21.507812 C 28.503906 21.292969 28.453125 20.996094 28.265625 20.835938 L 26.484375 19.273438 C 26.546875 18.855469 26.585938 18.4375 26.585938 18 C 26.585938 17.5625 26.546875 17.144531 26.484375 16.726562 L 28.265625 15.164062 C 28.453125 15.003906 28.503906 14.710938 28.382812 14.496094 L 26.234375 10.769531 C 26.109375 10.558594 25.828125 10.457031 25.597656 10.535156 L 23.367188 11.292969 C 22.695312 10.753906 21.933594 10.316406 21.121094 10 L 20.667969 7.703125 C 20.621094 7.460938 20.390625 7.269531 20.148438 7.265625 L 15.851562 7.265625 C 15.835938 7.265625 15.820312 7.265625 15.800781 7.265625 Z M 18 13.398438 C 20.539062 13.398438 22.601562 15.460938 22.601562 18 C 22.601562 20.539062 20.539062 22.601562 18 22.601562 C 15.460938 22.601562 13.398438 20.539062 13.398438 18 C 13.398438 15.460938 15.460938 13.398438 18 13.398438 Z M 18 13.398438 "/>
</g>
</defs>
<g id="surface1">
<path style=" stroke:none;fill-rule:evenodd;fill:rgb(50.196078%,0%,0%);fill-opacity:1;" d="M 8.40625 2.136719 L 27.59375 2.136719 C 31.054688 2.136719 33.863281 4.945312 33.863281 8.40625 L 33.863281 27.59375 C 33.863281 31.054688 31.054688 33.863281 27.59375 33.863281 L 8.40625 33.863281 C 4.945312 33.863281 2.136719 31.054688 2.136719 27.59375 L 2.136719 8.40625 C 2.136719 4.945312 4.945312 2.136719 8.40625 2.136719 Z M 8.40625 2.136719 "/>
<use xlink:href="#surface6"/>
</g>
</svg>
