<?xml version="1.0" encoding="UTF-8"?>
<svg xmlns="http://www.w3.org/2000/svg" xmlns:xlink="http://www.w3.org/1999/xlink" width="36pt" height="36pt" viewBox="0 0 36 36" version="1.1">
<g id="surface1">
<path style=" stroke:none;fill-rule:evenodd;fill:rgb(55.686275%,55.686275%,55.686275%);fill-opacity:1;" d="M 8.40625 2.136719 L 27.59375 2.136719 C 31.054688 2.136719 33.863281 4.945312 33.863281 8.40625 L 33.863281 27.59375 C 33.863281 31.054688 31.054688 33.863281 27.59375 33.863281 L 8.40625 33.863281 C 4.945312 33.863281 2.136719 31.054688 2.136719 27.59375 L 2.136719 8.40625 C 2.136719 4.945312 4.945312 2.136719 8.40625 2.136719 Z M 8.40625 2.136719 "/>
<path style=" stroke:none;fill-rule:evenodd;fill:rgb(55.686275%,55.686275%,55.686275%);fill-opacity:1;" d="M 33.386719 29.96875 C 33.683594 29.238281 33.863281 28.4375 33.863281 27.59375 L 33.863281 8.40625 C 33.863281 4.933594 31.066406 2.136719 27.59375 2.136719 L 25.007812 2.136719 C 25.164062 2.21875 25.367188 2.222656 25.484375 2.355469 C 25.746094 2.652344 25.925781 3.054688 26.042969 3.484375 Z M 33.386719 29.96875 "/>
<path style=" stroke:none;fill-rule:evenodd;fill:rgb(55.686275%,55.686275%,55.686275%);fill-opacity:1;" d="M 10.992188 2.136719 L 8.40625 2.136719 C 4.933594 2.136719 2.136719 4.933594 2.136719 8.40625 L 2.136719 27.59375 C 2.136719 28.4375 2.316406 29.238281 2.613281 29.96875 L 9.957031 3.484375 C 10.074219 3.054688 10.253906 2.652344 10.515625 2.355469 C 10.632812 2.222656 10.835938 2.21875 10.992188 2.136719 Z M 10.992188 2.136719 "/>
<path style=" stroke:none;fill-rule:evenodd;fill:rgb(23.529412%,69.803922%,83.137255%);fill-opacity:1;" d="M 14.703125 2.136719 L 10.992188 2.136719 C 10.835938 2.21875 10.632812 2.222656 10.515625 2.355469 C 10.253906 2.652344 10.074219 3.054688 9.957031 3.484375 L 2.613281 29.96875 C 3.550781 32.257812 5.777344 33.863281 8.40625 33.863281 L 27.59375 33.863281 C 30.222656 33.863281 32.449219 32.257812 33.386719 29.96875 L 26.042969 3.484375 C 25.925781 3.054688 25.746094 2.652344 25.484375 2.355469 C 25.367188 2.222656 25.164062 2.21875 25.007812 2.136719 L 21.296875 2.136719 L 18 7.632812 Z M 14.703125 2.136719 "/>
<path style=" stroke:none;fill-rule:evenodd;fill:rgb(100%,100%,100%);fill-opacity:1;" d="M 14.703125 2.136719 L 18 7.632812 L 21.296875 2.136719 Z M 14.703125 2.136719 "/>
<path style=" stroke:none;fill-rule:nonzero;fill:rgb(100%,100%,100%);fill-opacity:1;" d="M 22.609375 27.214844 C 22.609375 29.761719 20.542969 31.824219 18 31.824219 C 15.453125 31.824219 13.390625 29.761719 13.390625 27.214844 C 13.390625 24.671875 15.453125 22.609375 18 22.609375 C 20.542969 22.609375 22.609375 24.671875 22.609375 27.214844 Z M 22.609375 27.214844 "/>
<path style=" stroke:none;fill-rule:nonzero;fill:rgb(99.607843%,74.509804%,26.27451%);fill-opacity:1;" d="M 29.152344 7.679688 L 29.265625 7.746094 C 30.0625 8.207031 30.285156 9.304688 29.765625 10.207031 L 19.550781 27.902344 C 19.03125 28.800781 17.964844 29.15625 17.171875 28.699219 L 17.058594 28.632812 C 16.261719 28.171875 16.039062 27.070312 16.558594 26.171875 L 26.773438 8.476562 C 27.292969 7.578125 28.359375 7.222656 29.152344 7.679688 Z M 29.152344 7.679688 "/>
</g>
</svg>
