<?xml version="1.0" encoding="UTF-8"?>
<svg xmlns="http://www.w3.org/2000/svg" xmlns:xlink="http://www.w3.org/1999/xlink" width="36pt" height="36pt" viewBox="0 0 36 36" version="1.1">
<g id="surface1">
<path style=" stroke:none;fill-rule:evenodd;fill:rgb(80%,80%,80%);fill-opacity:1;" d="M 8.40625 2.136719 L 27.59375 2.136719 C 31.054688 2.136719 33.863281 4.945312 33.863281 8.40625 L 33.863281 27.59375 C 33.863281 31.054688 31.054688 33.863281 27.59375 33.863281 L 8.40625 33.863281 C 4.945312 33.863281 2.136719 31.054688 2.136719 27.59375 L 2.136719 8.40625 C 2.136719 4.945312 4.945312 2.136719 8.40625 2.136719 Z M 8.40625 2.136719 "/>
<path style=" stroke:none;fill-rule:evenodd;fill:rgb(30.196078%,30.196078%,30.196078%);fill-opacity:1;" d="M 10.125 7.3125 L 25.875 7.3125 L 25.875 16.3125 L 10.125 16.3125 Z M 10.125 7.3125 "/>
<path style=" stroke:none;fill-rule:nonzero;fill:rgb(30.980392%,30.980392%,30.980392%);fill-opacity:1;" d="M 11.023438 20.8125 C 10.589844 20.8125 10.238281 21.164062 10.238281 21.601562 L 10.238281 23.175781 L 8.664062 23.175781 C 8.226562 23.175781 7.875 23.527344 7.875 23.960938 L 7.875 25.539062 C 7.875 25.972656 8.226562 26.324219 8.664062 26.324219 L 10.238281 26.324219 L 10.238281 27.898438 C 10.238281 28.335938 10.589844 28.6875 11.023438 28.6875 L 12.601562 28.6875 C 13.035156 28.6875 13.386719 28.335938 13.386719 27.898438 L 13.386719 26.324219 L 14.960938 26.324219 C 15.398438 26.324219 15.75 25.972656 15.75 25.539062 L 15.75 23.960938 C 15.75 23.527344 15.398438 23.175781 14.960938 23.175781 L 13.386719 23.175781 L 13.386719 21.601562 C 13.386719 21.164062 13.035156 20.8125 12.601562 20.8125 Z M 11.023438 20.8125 "/>
<path style=" stroke:none;fill-rule:nonzero;fill:rgb(93.72549%,33.72549%,27.45098%);fill-opacity:1;" d="M 28.125 22.5 C 28.125 23.433594 27.371094 24.1875 26.4375 24.1875 C 25.503906 24.1875 24.75 23.433594 24.75 22.5 C 24.75 21.566406 25.503906 20.8125 26.4375 20.8125 C 27.371094 20.8125 28.125 21.566406 28.125 22.5 Z M 28.125 22.5 "/>
<path style=" stroke:none;fill-rule:nonzero;fill:rgb(93.72549%,33.72549%,27.45098%);fill-opacity:1;" d="M 23.625 22.5 C 23.625 23.433594 22.871094 24.1875 21.9375 24.1875 C 21.003906 24.1875 20.25 23.433594 20.25 22.5 C 20.25 21.566406 21.003906 20.8125 21.9375 20.8125 C 22.871094 20.8125 23.625 21.566406 23.625 22.5 Z M 23.625 22.5 "/>
<path style=" stroke:none;fill-rule:nonzero;fill:rgb(92.156863%,57.254902%,0%);fill-opacity:1;" d="M 28.125 27 C 28.125 27.933594 27.371094 28.6875 26.4375 28.6875 C 25.503906 28.6875 24.75 27.933594 24.75 27 C 24.75 26.066406 25.503906 25.3125 26.4375 25.3125 C 27.371094 25.3125 28.125 26.066406 28.125 27 Z M 28.125 27 "/>
<path style=" stroke:none;fill-rule:nonzero;fill:rgb(92.156863%,57.254902%,0%);fill-opacity:1;" d="M 23.625 27 C 23.625 27.933594 22.871094 28.6875 21.9375 28.6875 C 21.003906 28.6875 20.25 27.933594 20.25 27 C 20.25 26.066406 21.003906 25.3125 21.9375 25.3125 C 22.871094 25.3125 23.625 26.066406 23.625 27 Z M 23.625 27 "/>
</g>
</svg>
