<?xml version="1.0" encoding="UTF-8"?>
<svg xmlns="http://www.w3.org/2000/svg" xmlns:xlink="http://www.w3.org/1999/xlink" width="36pt" height="36pt" viewBox="0 0 36 36" version="1.1">
<g id="surface1">
<path style=" stroke:none;fill-rule:evenodd;fill:rgb(100%,100%,100%);fill-opacity:1;" d="M 8.40625 2.136719 L 27.59375 2.136719 C 31.054688 2.136719 33.863281 4.945312 33.863281 8.40625 L 33.863281 27.59375 C 33.863281 31.054688 31.054688 33.863281 27.59375 33.863281 L 8.40625 33.863281 C 4.945312 33.863281 2.136719 31.054688 2.136719 27.59375 L 2.136719 8.40625 C 2.136719 4.945312 4.945312 2.136719 8.40625 2.136719 Z M 8.40625 2.136719 "/>
<path style=" stroke:none;fill-rule:evenodd;fill:rgb(48.627451%,68.627451%,25.882353%);fill-opacity:1;" d="M 32.03125 3.96875 L 3.96875 32.03125 C 5.101562 33.164062 6.667969 33.863281 8.40625 33.863281 L 27.59375 33.863281 C 31.066406 33.863281 33.863281 31.066406 33.863281 27.59375 L 33.863281 8.40625 C 33.863281 6.671875 33.164062 5.105469 32.03125 3.96875 Z M 32.03125 3.96875 "/>
<path style=" stroke:none;fill-rule:evenodd;fill:rgb(63.137255%,80.784314%,42.745098%);fill-opacity:1;" d="M 32.03125 3.96875 C 30.898438 2.835938 29.332031 2.136719 27.59375 2.136719 L 8.40625 2.136719 C 4.933594 2.136719 2.136719 4.933594 2.136719 8.40625 L 2.136719 27.59375 C 2.136719 29.332031 2.835938 30.898438 3.96875 32.03125 Z M 32.03125 3.96875 "/>
<path style=" stroke:none;fill-rule:nonzero;fill:rgb(94.901961%,94.901961%,94.901961%);fill-opacity:1;" d="M 9.257812 26.742188 L 16.910156 16.90625 L 17.945312 17.941406 L 19.09375 19.09375 Z M 9.257812 26.742188 "/>
<path style=" stroke:none;fill-rule:nonzero;fill:rgb(95.294118%,25.882353%,20.784314%);fill-opacity:1;" d="M 26.742188 9.257812 L 16.910156 16.90625 L 19.09375 19.09375 Z M 26.742188 9.257812 "/>
</g>
</svg>
