<?xml version="1.0" encoding="UTF-8"?>
<svg xmlns="http://www.w3.org/2000/svg" xmlns:xlink="http://www.w3.org/1999/xlink" width="36pt" height="36pt" viewBox="0 0 36 36" version="1.1">
<g id="surface1">
<path style=" stroke:none;fill-rule:evenodd;fill:rgb(0.784314%,52.54902%,30.980392%);fill-opacity:1;" d="M 8.40625 2.136719 L 27.59375 2.136719 C 31.054688 2.136719 33.863281 4.945312 33.863281 8.40625 L 33.863281 27.59375 C 33.863281 31.054688 31.054688 33.863281 27.59375 33.863281 L 8.40625 33.863281 C 4.945312 33.863281 2.136719 31.054688 2.136719 27.59375 L 2.136719 8.40625 C 2.136719 4.945312 4.945312 2.136719 8.40625 2.136719 Z M 8.40625 2.136719 "/>
<path style=" stroke:none;fill-rule:nonzero;fill:rgb(100%,100%,100%);fill-opacity:1;" d="M 17.945312 15.597656 C 17.574219 15.605469 17.230469 15.660156 16.820312 15.886719 L 7.664062 21 C 7.257812 21.230469 6.832031 21.660156 6.785156 22.304688 C 6.738281 22.949219 7.214844 23.5625 7.660156 23.808594 L 16.828125 28.929688 C 17.273438 29.179688 17.679688 29.226562 18.054688 29.21875 C 18.425781 29.210938 18.769531 29.15625 19.179688 28.925781 L 28.335938 23.8125 C 28.742188 23.585938 29.167969 23.15625 29.214844 22.507812 C 29.261719 21.863281 28.785156 21.253906 28.339844 21.003906 L 19.171875 15.886719 C 18.726562 15.636719 18.320312 15.589844 17.949219 15.597656 Z M 17.945312 15.597656 "/>
<path style=" stroke:none;fill-rule:nonzero;fill:rgb(62.745098%,44.705882%,18.039216%);fill-opacity:1;" d="M 13.191406 17.199219 L 16.398438 17.199219 L 16.398438 21.605469 L 14.792969 22.808594 L 13.191406 21.605469 Z M 13.191406 17.199219 "/>
<path style=" stroke:none;fill-rule:nonzero;fill:rgb(45.490196%,72.941176%,18.431373%);fill-opacity:1;" d="M 14.828125 6.78125 C 14.566406 6.777344 14.308594 6.839844 14.082031 6.964844 L 9.898438 9.285156 C 9.457031 9.53125 9.183594 9.980469 9.183594 10.46875 L 9.183594 15.113281 C 9.183594 15.601562 9.457031 16.050781 9.898438 16.296875 L 14.082031 18.617188 C 14.523438 18.863281 15.066406 18.863281 15.507812 18.617188 L 19.691406 16.296875 C 20.132812 16.050781 20.402344 15.601562 20.402344 15.113281 L 20.402344 10.46875 C 20.402344 9.980469 20.132812 9.53125 19.691406 9.285156 L 15.507812 6.964844 C 15.300781 6.851562 15.066406 6.785156 14.828125 6.78125 Z M 14.828125 6.78125 "/>
</g>
</svg>
