<?xml version="1.0" encoding="UTF-8"?>
<svg xmlns="http://www.w3.org/2000/svg" xmlns:xlink="http://www.w3.org/1999/xlink" width="36pt" height="36pt" viewBox="0 0 36 36" version="1.1">
<g id="surface1">
<path style=" stroke:none;fill-rule:evenodd;fill:rgb(41.960784%,41.960784%,41.960784%);fill-opacity:1;" d="M 8.40625 2.136719 L 27.59375 2.136719 C 31.054688 2.136719 33.863281 4.945312 33.863281 8.40625 L 33.863281 27.59375 C 33.863281 31.054688 31.054688 33.863281 27.59375 33.863281 L 8.40625 33.863281 C 4.945312 33.863281 2.136719 31.054688 2.136719 27.59375 L 2.136719 8.40625 C 2.136719 4.945312 4.945312 2.136719 8.40625 2.136719 Z M 8.40625 2.136719 "/>
<path style=" stroke:none;fill-rule:evenodd;fill:rgb(47.058824%,32.941176%,22.352941%);fill-opacity:1;" d="M 9.960938 33.863281 L 9.960938 26.039062 L 2.136719 26.039062 L 2.136719 27.59375 C 2.136719 31.066406 4.933594 33.863281 8.40625 33.863281 Z M 9.960938 33.863281 "/>
<path style=" stroke:none;fill-rule:evenodd;fill:rgb(34.509804%,23.529412%,15.686275%);fill-opacity:1;" d="M 18 33.863281 L 18 26.039062 L 9.960938 26.039062 L 9.960938 33.863281 Z M 18 33.863281 "/>
<path style=" stroke:none;fill-rule:evenodd;fill:rgb(72.156863%,51.764706%,35.686275%);fill-opacity:1;" d="M 26.039062 33.863281 L 26.039062 26.039062 L 18 26.039062 L 18 33.863281 Z M 26.039062 33.863281 "/>
<path style=" stroke:none;fill-rule:evenodd;fill:rgb(58.431373%,41.960784%,28.627451%);fill-opacity:1;" d="M 33.863281 26.039062 L 26.039062 26.039062 L 26.039062 33.863281 L 27.59375 33.863281 C 31.066406 33.863281 33.863281 31.066406 33.863281 27.59375 Z M 33.863281 26.039062 "/>
<path style=" stroke:none;fill-rule:evenodd;fill:rgb(47.058824%,32.941176%,22.352941%);fill-opacity:1;" d="M 9.960938 26.039062 L 9.960938 18 L 2.136719 18 L 2.136719 26.039062 Z M 9.960938 26.039062 "/>
<path style=" stroke:none;fill-rule:evenodd;fill:rgb(41.960784%,41.960784%,41.960784%);fill-opacity:1;" d="M 26.039062 26.039062 L 26.039062 18 L 18 18 L 18 26.039062 Z M 26.039062 26.039062 "/>
<path style=" stroke:none;fill-rule:evenodd;fill:rgb(60.784314%,79.215686%,41.960784%);fill-opacity:1;" d="M 33.863281 18 L 26.039062 18 L 26.039062 26.039062 L 33.863281 26.039062 Z M 33.863281 18 "/>
<path style=" stroke:none;fill-rule:evenodd;fill:rgb(44.705882%,69.803922%,28.235294%);fill-opacity:1;" d="M 33.863281 9.960938 L 26.039062 9.960938 L 26.039062 18 L 33.863281 18 Z M 33.863281 9.960938 "/>
<path style=" stroke:none;fill-rule:evenodd;fill:rgb(58.431373%,41.960784%,28.627451%);fill-opacity:1;" d="M 26.039062 9.960938 L 18 9.960938 L 18 18 L 26.039062 18 Z M 26.039062 9.960938 "/>
<path style=" stroke:none;fill-rule:evenodd;fill:rgb(58.431373%,41.960784%,28.627451%);fill-opacity:1;" d="M 18 18 L 9.960938 18 L 9.960938 26.039062 L 18 26.039062 Z M 18 18 "/>
<path style=" stroke:none;fill-rule:evenodd;fill:rgb(60.784314%,79.215686%,41.960784%);fill-opacity:1;" d="M 18 9.960938 L 9.960938 9.960938 L 9.960938 18 L 18 18 Z M 18 9.960938 "/>
<path style=" stroke:none;fill-rule:evenodd;fill:rgb(37.647059%,62.745098%,21.176471%);fill-opacity:1;" d="M 26.039062 2.136719 L 26.039062 9.960938 L 33.863281 9.960938 L 33.863281 8.40625 C 33.863281 4.933594 31.066406 2.136719 27.59375 2.136719 Z M 26.039062 2.136719 "/>
<path style=" stroke:none;fill-rule:evenodd;fill:rgb(44.705882%,69.803922%,28.235294%);fill-opacity:1;" d="M 18 2.136719 L 9.960938 2.136719 L 9.960938 9.960938 L 18 9.960938 Z M 18 2.136719 "/>
<path style=" stroke:none;fill-rule:evenodd;fill:rgb(33.72549%,58.823529%,17.254902%);fill-opacity:1;" d="M 18 2.136719 L 18 9.960938 L 26.039062 9.960938 L 26.039062 2.136719 Z M 18 2.136719 "/>
<path style=" stroke:none;fill-rule:evenodd;fill:rgb(34.509804%,23.529412%,15.686275%);fill-opacity:1;" d="M 2.136719 9.960938 L 2.136719 18 L 9.960938 18 L 9.960938 9.960938 Z M 2.136719 9.960938 "/>
<path style=" stroke:none;fill-rule:evenodd;fill:rgb(33.72549%,58.823529%,17.254902%);fill-opacity:1;" d="M 2.136719 9.960938 L 9.960938 9.960938 L 9.960938 2.136719 L 8.40625 2.136719 C 4.933594 2.136719 2.136719 4.933594 2.136719 8.40625 Z M 2.136719 9.960938 "/>
</g>
</svg>
