<?xml version="1.0" encoding="UTF-8"?>
<svg xmlns="http://www.w3.org/2000/svg" xmlns:xlink="http://www.w3.org/1999/xlink" width="36pt" height="36pt" viewBox="0 0 36 36" version="1.1">
<g id="surface1">
<path style=" stroke:none;fill-rule:evenodd;fill:rgb(15.686275%,40.392157%,67.058824%);fill-opacity:1;" d="M 18 2.136719 L 8.410156 2.136719 C 4.933594 2.136719 2.136719 4.933594 2.136719 8.40625 L 2.136719 27.589844 C 2.136719 31.066406 4.933594 33.863281 8.410156 33.863281 L 18 33.863281 Z M 18 2.136719 "/>
<path style=" stroke:none;fill-rule:evenodd;fill:rgb(46.666667%,69.411765%,89.019608%);fill-opacity:1;" d="M 18 2.136719 L 18 33.863281 L 27.59375 33.863281 C 31.066406 33.863281 33.863281 31.066406 33.863281 27.589844 L 33.863281 8.40625 C 33.863281 4.933594 31.066406 2.136719 27.59375 2.136719 Z M 18 2.136719 "/>
<path style=" stroke:none;fill-rule:nonzero;fill:rgb(75.294118%,75.294118%,75.294118%);fill-opacity:1;" d="M 11.148438 8.730469 C 4.5625 18.023438 11.796875 25.839844 17.808594 27.34375 C 26.75 24.960938 29.34375 15.09375 24.472656 8.730469 C 21.851562 10.101562 19.710938 9.949219 17.957031 8.65625 C 15.644531 10.339844 13.394531 9.632812 11.148438 8.730469 Z M 11.148438 8.730469 "/>
<path style=" stroke:none;fill-rule:nonzero;fill:rgb(11.764706%,19.215686%,31.764706%);fill-opacity:1;" d="M 17.90625 13.761719 C 16.488281 13.761719 15.339844 14.910156 15.339844 16.328125 C 15.34375 17.238281 15.828125 18.082031 16.617188 18.539062 L 16.617188 20.945312 C 16.617188 21.660156 17.191406 22.238281 17.90625 22.238281 C 18.621094 22.238281 19.195312 21.660156 19.195312 20.945312 L 19.195312 18.539062 C 19.984375 18.082031 20.46875 17.238281 20.46875 16.328125 C 20.46875 14.910156 19.320312 13.761719 17.90625 13.761719 Z M 17.90625 13.761719 "/>
</g>
</svg>
