<?xml version="1.0" encoding="UTF-8"?>
<svg xmlns="http://www.w3.org/2000/svg" xmlns:xlink="http://www.w3.org/1999/xlink" width="36pt" height="36pt" viewBox="0 0 36 36" version="1.1">
<g id="surface1">
<path style=" stroke:none;fill-rule:evenodd;fill:rgb(55.686275%,55.686275%,55.686275%);fill-opacity:1;" d="M 8.40625 2.136719 L 27.59375 2.136719 C 31.054688 2.136719 33.863281 4.945312 33.863281 8.40625 L 33.863281 27.59375 C 33.863281 31.054688 31.054688 33.863281 27.59375 33.863281 L 8.40625 33.863281 C 4.945312 33.863281 2.136719 31.054688 2.136719 27.59375 L 2.136719 8.40625 C 2.136719 4.945312 4.945312 2.136719 8.40625 2.136719 Z M 8.40625 2.136719 "/>
<path style=" stroke:none;fill-rule:evenodd;fill:rgb(30.980392%,30.980392%,30.980392%);fill-opacity:1;" d="M 27.9375 2.203125 L 27.9375 18.503906 C 27.9375 19.203125 28.273438 19.769531 28.691406 19.769531 L 30.238281 19.769531 C 30.65625 19.769531 30.992188 19.203125 30.992188 18.503906 L 30.992188 3.269531 C 30.09375 2.675781 29.082031 2.269531 27.9375 2.203125 Z M 27.9375 2.203125 "/>
<path style=" stroke:none;fill-rule:evenodd;fill:rgb(30.980392%,30.980392%,30.980392%);fill-opacity:1;" d="M 23.351562 2.136719 L 23.351562 18.503906 C 23.351562 19.203125 23.6875 19.769531 24.105469 19.769531 L 25.652344 19.769531 C 26.070312 19.769531 26.40625 19.203125 26.40625 18.503906 L 26.40625 2.136719 Z M 23.351562 2.136719 "/>
<path style=" stroke:none;fill-rule:evenodd;fill:rgb(30.980392%,30.980392%,30.980392%);fill-opacity:1;" d="M 18.765625 2.136719 L 18.765625 18.503906 C 18.765625 19.203125 19.101562 19.769531 19.519531 19.769531 L 21.066406 19.769531 C 21.484375 19.769531 21.820312 19.203125 21.820312 18.503906 L 21.820312 2.136719 Z M 18.765625 2.136719 "/>
<path style=" stroke:none;fill-rule:evenodd;fill:rgb(30.980392%,30.980392%,30.980392%);fill-opacity:1;" d="M 9.589844 2.136719 L 9.589844 18.503906 C 9.589844 19.203125 9.929688 19.769531 10.347656 19.769531 L 11.894531 19.769531 C 12.3125 19.769531 12.648438 19.203125 12.648438 18.503906 L 12.648438 2.136719 Z M 9.589844 2.136719 "/>
<path style=" stroke:none;fill-rule:evenodd;fill:rgb(65.882353%,37.647059%,63.529412%);fill-opacity:1;" d="M 29.464844 19.769531 L 29.464844 33.488281 C 32.003906 32.6875 33.863281 30.402344 33.863281 27.59375 L 33.863281 8.40625 C 33.863281 6.214844 32.683594 4.390625 30.992188 3.269531 L 30.992188 18.503906 C 30.992188 19.203125 30.65625 19.769531 30.238281 19.769531 Z M 29.464844 19.769531 "/>
<path style=" stroke:none;fill-rule:evenodd;fill:rgb(27.843137%,43.137255%,72.54902%);fill-opacity:1;" d="M 24.878906 19.769531 L 24.878906 33.863281 L 27.59375 33.863281 C 28.257812 33.863281 28.863281 33.679688 29.464844 33.488281 L 29.464844 19.769531 L 28.691406 19.769531 C 28.273438 19.769531 27.9375 19.203125 27.9375 18.503906 L 27.9375 2.203125 C 27.816406 2.195312 27.714844 2.136719 27.59375 2.136719 L 26.40625 2.136719 L 26.40625 18.503906 C 26.40625 19.203125 26.070312 19.769531 25.652344 19.769531 Z M 24.878906 19.769531 "/>
<path style=" stroke:none;fill-rule:evenodd;fill:rgb(29.803922%,69.019608%,58.039216%);fill-opacity:1;" d="M 20.292969 19.769531 L 20.292969 33.863281 L 24.878906 33.863281 L 24.878906 19.769531 L 24.105469 19.769531 C 23.6875 19.769531 23.351562 19.203125 23.351562 18.503906 L 23.351562 2.136719 L 21.820312 2.136719 L 21.820312 18.503906 C 21.820312 19.203125 21.484375 19.769531 21.066406 19.769531 Z M 20.292969 19.769531 "/>
<path style=" stroke:none;fill-rule:evenodd;fill:rgb(25.098039%,66.27451%,36.470588%);fill-opacity:1;" d="M 15.707031 2.136719 L 15.707031 33.863281 L 20.292969 33.863281 L 20.292969 19.769531 L 19.519531 19.769531 C 19.101562 19.769531 18.765625 19.203125 18.765625 18.503906 L 18.765625 2.136719 Z M 15.707031 2.136719 "/>
<path style=" stroke:none;fill-rule:evenodd;fill:rgb(92.54902%,70.980392%,32.941176%);fill-opacity:1;" d="M 11.121094 19.769531 L 11.121094 33.863281 L 15.707031 33.863281 L 15.707031 2.136719 L 12.648438 2.136719 L 12.648438 18.503906 C 12.648438 19.203125 12.3125 19.769531 11.894531 19.769531 Z M 11.121094 19.769531 "/>
<path style=" stroke:none;fill-rule:evenodd;fill:rgb(92.156863%,52.54902%,26.666667%);fill-opacity:1;" d="M 6.535156 19.769531 L 6.535156 33.488281 C 7.136719 33.679688 7.742188 33.863281 8.40625 33.863281 L 11.121094 33.863281 L 11.121094 19.769531 L 10.347656 19.769531 C 9.929688 19.769531 9.589844 19.203125 9.589844 18.503906 L 9.589844 2.136719 L 8.40625 2.136719 C 8.285156 2.136719 8.183594 2.195312 8.0625 2.203125 L 8.0625 18.503906 C 8.0625 19.203125 7.726562 19.769531 7.308594 19.769531 Z M 6.535156 19.769531 "/>
<path style=" stroke:none;fill-rule:evenodd;fill:rgb(85.490196%,38.039216%,33.72549%);fill-opacity:1;" d="M 6.535156 33.488281 L 6.535156 19.769531 L 5.761719 19.769531 C 5.34375 19.769531 5.003906 19.203125 5.003906 18.503906 L 5.003906 3.273438 C 3.316406 4.394531 2.136719 6.21875 2.136719 8.40625 L 2.136719 27.59375 C 2.136719 30.402344 3.996094 32.6875 6.535156 33.488281 Z M 6.535156 33.488281 "/>
<path style=" stroke:none;fill-rule:evenodd;fill:rgb(30.980392%,30.980392%,30.980392%);fill-opacity:1;" d="M 5.003906 3.273438 L 5.003906 18.503906 C 5.003906 19.203125 5.34375 19.769531 5.761719 19.769531 L 7.308594 19.769531 C 7.726562 19.769531 8.0625 19.203125 8.0625 18.503906 L 8.0625 2.203125 C 6.917969 2.269531 5.902344 2.675781 5.003906 3.273438 Z M 5.003906 3.273438 "/>
</g>
</svg>
