<?xml version="1.0" encoding="UTF-8"?>
<svg xmlns="http://www.w3.org/2000/svg" xmlns:xlink="http://www.w3.org/1999/xlink" width="36pt" height="36pt" viewBox="0 0 36 36" version="1.1">
<g id="surface1">
<path style=" stroke:none;fill-rule:evenodd;fill:rgb(13.72549%,27.843137%,50.196078%);fill-opacity:1;" d="M 8.40625 2.136719 L 27.59375 2.136719 C 31.054688 2.136719 33.863281 4.945312 33.863281 8.40625 L 33.863281 27.59375 C 33.863281 31.054688 31.054688 33.863281 27.59375 33.863281 L 8.40625 33.863281 C 4.945312 33.863281 2.136719 31.054688 2.136719 27.59375 L 2.136719 8.40625 C 2.136719 4.945312 4.945312 2.136719 8.40625 2.136719 Z M 8.40625 2.136719 "/>
<path style=" stroke:none;fill-rule:nonzero;fill:rgb(38.823529%,74.901961%,84.313725%);fill-opacity:1;" d="M 18 5.898438 C 11.316406 5.898438 5.898438 11.316406 5.898438 18 C 5.898438 24.683594 11.316406 30.101562 18 30.101562 C 24.683594 30.101562 30.101562 24.683594 30.101562 18 C 30.101562 11.316406 24.683594 5.898438 18 5.898438 Z M 18 5.898438 "/>
<path style=" stroke:none;fill-rule:nonzero;fill:rgb(100%,100%,100%);fill-opacity:1;" d="M 18 8.710938 L 24.050781 18.214844 L 18 21.671875 L 11.949219 18.214844 Z M 18 8.710938 "/>
<path style=" stroke:none;fill-rule:nonzero;fill:rgb(100%,100%,100%);fill-opacity:1;" d="M 18 27.289062 L 24.050781 19.511719 L 18 22.96875 L 11.949219 19.511719 Z M 18 27.289062 "/>
</g>
</svg>
