<?xml version="1.0" encoding="UTF-8"?>
<svg xmlns="http://www.w3.org/2000/svg" xmlns:xlink="http://www.w3.org/1999/xlink" width="36pt" height="36pt" viewBox="0 0 36 36" version="1.1">
<defs>
<clipPath id="clip1">
  <rect width="36" height="36"/>
</clipPath>
<g id="surface6" clip-path="url(#clip1)">
<path style=" stroke:none;fill-rule:nonzero;fill:rgb(100%,100%,100%);fill-opacity:1;" d="M 18 10.15625 C 15.046875 10.15625 12.53125 11.964844 11.449219 14.523438 C 8.699219 14.933594 6.589844 17.277344 6.589844 20.140625 C 6.589844 23.289062 9.144531 25.84375 12.296875 25.84375 L 24.417969 25.84375 C 27.175781 25.84375 29.410156 23.609375 29.410156 20.851562 C 29.410156 18.289062 27.480469 16.191406 24.996094 15.90625 C 24.347656 12.636719 21.460938 10.15625 18 10.15625 Z M 18 10.15625 "/>
</g>
</defs>
<g id="surface1">
<path style=" stroke:none;fill-rule:evenodd;fill:rgb(80%,80%,80%);fill-opacity:1;" d="M 8.40625 2.136719 L 27.59375 2.136719 C 31.054688 2.136719 33.863281 4.945312 33.863281 8.40625 L 33.863281 27.59375 C 33.863281 31.054688 31.054688 33.863281 27.59375 33.863281 L 8.40625 33.863281 C 4.945312 33.863281 2.136719 31.054688 2.136719 27.59375 L 2.136719 8.40625 C 2.136719 4.945312 4.945312 2.136719 8.40625 2.136719 Z M 8.40625 2.136719 "/>
<use xlink:href="#surface6"/>
<path style=" stroke:none;fill-rule:nonzero;fill:rgb(50.196078%,50.196078%,50.196078%);fill-opacity:1;" d="M 19.046875 13.683594 C 18.574219 13.707031 18.167969 14.039062 18.058594 14.503906 C 17.945312 14.964844 18.152344 15.445312 18.5625 15.679688 C 18.5625 15.679688 20.097656 16.457031 20.097656 19.097656 C 20.097656 20.414062 19.675781 21.214844 19.273438 21.730469 C 18.871094 22.25 18.558594 22.40625 18.558594 22.40625 C 18.214844 22.585938 17.992188 22.933594 17.976562 23.324219 C 17.964844 23.710938 18.160156 24.078125 18.496094 24.277344 C 18.828125 24.476562 19.242188 24.480469 19.578125 24.289062 C 19.578125 24.289062 20.316406 23.878906 20.960938 23.046875 C 21.609375 22.214844 22.238281 20.894531 22.238281 19.097656 C 22.238281 15.515625 19.660156 13.84375 19.660156 13.84375 C 19.476562 13.730469 19.261719 13.675781 19.046875 13.683594 Z M 19.046875 13.683594 "/>
<path style=" stroke:none;fill-rule:nonzero;fill:rgb(50.196078%,50.196078%,50.196078%);fill-opacity:1;" d="M 14.761719 15.140625 C 14.25 15.148438 13.8125 15.519531 13.722656 16.027344 C 13.636719 16.535156 13.917969 17.03125 14.402344 17.214844 C 14.402344 17.214844 15.859375 17.789062 15.859375 19.128906 C 15.859375 20.46875 14.449219 20.90625 14.449219 20.90625 C 13.890625 21.097656 13.589844 21.703125 13.777344 22.261719 C 13.964844 22.824219 14.574219 23.125 15.132812 22.9375 C 15.132812 22.9375 18 21.9375 18 19.128906 C 18 16.320312 15.179688 15.222656 15.179688 15.222656 C 15.046875 15.167969 14.90625 15.140625 14.761719 15.140625 Z M 14.761719 15.140625 "/>
</g>
</svg>
