<?xml version="1.0" encoding="UTF-8"?>
<svg xmlns="http://www.w3.org/2000/svg" xmlns:xlink="http://www.w3.org/1999/xlink" width="36pt" height="36pt" viewBox="0 0 36 36" version="1.1">
<defs>
<clipPath id="clip1">
  <rect width="36" height="36"/>
</clipPath>
<g id="surface6" clip-path="url(#clip1)">
<path style=" stroke:none;fill-rule:evenodd;fill:rgb(0%,58.431373%,27.058824%);fill-opacity:1;" d="M 31.421875 25.050781 C 31.421875 28.777344 28.398438 31.800781 24.671875 31.800781 C 20.945312 31.800781 17.921875 28.777344 17.921875 25.050781 C 17.921875 21.320312 20.945312 18.300781 24.671875 18.300781 C 28.398438 18.300781 31.421875 21.320312 31.421875 25.050781 Z M 31.421875 25.050781 "/>
</g>
</defs>
<g id="surface1">
<path style=" stroke:none;fill-rule:evenodd;fill:rgb(80%,80%,80%);fill-opacity:1;" d="M 8.40625 2.136719 L 27.59375 2.136719 C 31.054688 2.136719 33.863281 4.945312 33.863281 8.40625 L 33.863281 27.59375 C 33.863281 31.054688 31.054688 33.863281 27.59375 33.863281 L 8.40625 33.863281 C 4.945312 33.863281 2.136719 31.054688 2.136719 27.59375 L 2.136719 8.40625 C 2.136719 4.945312 4.945312 2.136719 8.40625 2.136719 Z M 8.40625 2.136719 "/>
<path style="fill:none;stroke-width:0.715;stroke-linecap:butt;stroke-linejoin:miter;stroke:rgb(27.843137%,27.843137%,27.843137%);stroke-opacity:1;stroke-miterlimit:4;" d="M 22.812693 12.715278 C 25.243249 16.78125 24.771027 21.53125 21.76061 23.34375 C 18.750193 25.152778 14.333527 23.336806 11.88561 19.284722 C 9.455054 15.21875 9.927277 10.46875 12.937693 8.65625 C 15.94811 6.847222 20.364777 8.663194 22.812693 12.715278 Z M 22.812693 12.715278 " transform="matrix(1.125,0,0,1.125,-0.000217524,0)"/>
<path style=" stroke:none;fill-rule:nonzero;fill:rgb(16.470588%,34.509804%,68.235294%);fill-opacity:1;" d="M 19.125 13.5 C 16.015625 13.5 13.5 16.015625 13.5 19.125 C 13.5 22.234375 16.015625 24.75 19.125 24.75 C 22.234375 24.75 24.75 22.234375 24.75 19.125 C 24.75 16.015625 22.234375 13.5 19.125 13.5 Z M 18.117188 16.472656 C 20.230469 16.472656 21.960938 18.179688 21.960938 20.292969 C 21.960938 22.40625 20.230469 24.132812 18.117188 24.132812 C 16.003906 24.132812 14.300781 22.402344 14.300781 20.292969 C 14.300781 18.179688 16.003906 16.472656 18.117188 16.472656 Z M 18.117188 16.472656 "/>
<path style=" stroke:none;fill-rule:nonzero;fill:rgb(27.843137%,27.843137%,27.843137%);fill-opacity:1;" d="M 7.71875 18.558594 C 7.71875 18.558594 5.457031 20.714844 5.632812 22.0625 C 5.878906 23.921875 8.210938 24.21875 10.054688 24.195312 C 14.519531 24.144531 30.425781 18.925781 30.375 12.664062 C 30.359375 10.640625 26.71875 10.460938 26.71875 10.582031 C 26.71875 10.582031 29.417969 11.261719 29.359375 12.5625 C 29.140625 17.421875 15.851562 22.878906 9.953125 23.027344 C 8.714844 23.058594 6.992188 22.792969 6.496094 21.65625 C 6.054688 20.636719 7.71875 18.558594 7.71875 18.558594 Z M 7.71875 18.558594 "/>
<path style=" stroke:none;fill-rule:nonzero;fill:rgb(82.352941%,27.45098%,27.45098%);fill-opacity:1;" d="M 25.875 12.9375 C 25.875 14.492188 24.617188 15.75 23.0625 15.75 C 21.507812 15.75 20.25 14.492188 20.25 12.9375 C 20.25 11.382812 21.507812 10.125 23.0625 10.125 C 24.617188 10.125 25.875 11.382812 25.875 12.9375 Z M 25.875 12.9375 "/>
<path style=" stroke:none;fill-rule:nonzero;fill:rgb(37.647059%,37.647059%,37.647059%);fill-opacity:1;" d="M 18 21.9375 C 18 22.871094 17.246094 23.625 16.3125 23.625 C 15.378906 23.625 14.625 22.871094 14.625 21.9375 C 14.625 21.007812 15.378906 20.25 16.3125 20.25 C 17.246094 20.25 18 21.007812 18 21.9375 Z M 18 21.9375 "/>
<use xlink:href="#surface6"/>
<path style=" stroke:none;fill-rule:nonzero;fill:rgb(100%,100%,100%);fill-opacity:1;" d="M 23.828125 24.207031 L 25.515625 24.207031 L 25.515625 29.269531 L 23.828125 29.269531 Z M 23.828125 24.207031 "/>
<path style=" stroke:none;fill-rule:nonzero;fill:rgb(100%,100%,100%);fill-opacity:1;" d="M 23.828125 20.832031 L 25.515625 20.832031 L 25.515625 22.519531 L 23.828125 22.519531 Z M 23.828125 20.832031 "/>
</g>
</svg>
