<?xml version="1.0" encoding="UTF-8"?>
<svg xmlns="http://www.w3.org/2000/svg" xmlns:xlink="http://www.w3.org/1999/xlink" width="36pt" height="36pt" viewBox="0 0 36 36" version="1.1">
<g id="surface1">
<path style=" stroke:none;fill-rule:evenodd;fill:rgb(84.313725%,34.901961%,3.137255%);fill-opacity:1;" d="M 8.40625 2.136719 L 27.59375 2.136719 C 31.054688 2.136719 33.863281 4.945312 33.863281 8.40625 L 33.863281 27.59375 C 33.863281 31.054688 31.054688 33.863281 27.59375 33.863281 L 8.40625 33.863281 C 4.945312 33.863281 2.136719 31.054688 2.136719 27.59375 L 2.136719 8.40625 C 2.136719 4.945312 4.945312 2.136719 8.40625 2.136719 Z M 8.40625 2.136719 "/>
<path style=" stroke:none;fill-rule:nonzero;fill:rgb(99.607843%,78.431373%,64.313725%);fill-opacity:1;" d="M 15 19.050781 C 18.347656 21.035156 18.6875 22.554688 18 23.777344 C 17.3125 25 15.859375 25.457031 12.515625 23.472656 C 9.167969 21.492188 5.382812 17.480469 5.074219 16.117188 C 6.378906 15.710938 11.65625 17.066406 15 19.050781 Z M 15 19.050781 "/>
<path style=" stroke:none;fill-rule:nonzero;fill:rgb(98.431373%,65.098039%,43.529412%);fill-opacity:1;" d="M 17.707031 18.144531 C 19.636719 21.582031 19.191406 23.070312 18 23.777344 C 16.808594 24.480469 15.328125 24.132812 13.394531 20.699219 C 11.464844 17.265625 10.140625 11.847656 10.535156 10.507812 C 11.863281 10.824219 15.773438 14.710938 17.707031 18.144531 Z M 17.707031 18.144531 "/>
<path style=" stroke:none;fill-rule:nonzero;fill:rgb(97.254902%,52.54902%,23.137255%);fill-opacity:1;" d="M 20.488281 18.75 C 20.488281 22.714844 19.375 23.777344 18 23.777344 C 16.625 23.777344 15.511719 22.714844 15.511719 18.75 C 15.511719 14.78125 17.003906 9.410156 18 8.453125 C 18.996094 9.410156 20.488281 14.78125 20.488281 18.75 Z M 20.488281 18.75 "/>
<path style=" stroke:none;fill-rule:nonzero;fill:rgb(96.862745%,42.745098%,7.058824%);fill-opacity:1;" d="M 22.605469 20.699219 C 20.671875 24.132812 19.191406 24.480469 18 23.777344 C 16.808594 23.070312 16.363281 21.582031 18.292969 18.144531 C 20.226562 14.710938 24.136719 10.824219 25.464844 10.507812 C 25.859375 11.847656 24.535156 17.265625 22.605469 20.699219 Z M 22.605469 20.699219 "/>
<path style=" stroke:none;fill-rule:nonzero;fill:rgb(100%,100%,100%);fill-opacity:1;" d="M 23.484375 23.472656 C 20.140625 25.457031 18.6875 25 18 23.777344 C 17.3125 22.554688 17.652344 21.035156 21 19.050781 C 24.34375 17.066406 29.621094 15.710938 30.925781 16.117188 C 30.617188 17.480469 26.832031 21.492188 23.484375 23.476562 Z M 23.484375 23.472656 "/>
<path style="fill:none;stroke-width:1;stroke-linecap:round;stroke-linejoin:bevel;stroke:rgb(22.745098%,62.745098%,23.921569%);stroke-opacity:1;stroke-miterlimit:4;" d="M -59.142531 28.072937 C -60.229336 27.986131 -59.916836 26.555575 -59.906419 25.774325 " transform="matrix(1.125,0,0,1.125,84.965034,-4.597679)"/>
</g>
</svg>
