<?xml version="1.0" encoding="UTF-8"?>
<svg xmlns="http://www.w3.org/2000/svg" xmlns:xlink="http://www.w3.org/1999/xlink" width="36pt" height="36pt" viewBox="0 0 36 36" version="1.1">
<g id="surface1">
<path style=" stroke:none;fill-rule:evenodd;fill:rgb(100%,48.627451%,25.098039%);fill-opacity:1;" d="M 8.40625 2.136719 L 27.59375 2.136719 C 31.054688 2.136719 33.863281 4.945312 33.863281 8.40625 L 33.863281 27.59375 C 33.863281 31.054688 31.054688 33.863281 27.59375 33.863281 L 8.40625 33.863281 C 4.945312 33.863281 2.136719 31.054688 2.136719 27.59375 L 2.136719 8.40625 C 2.136719 4.945312 4.945312 2.136719 8.40625 2.136719 Z M 8.40625 2.136719 "/>
<path style=" stroke:none;fill-rule:nonzero;fill:rgb(84.313725%,36.862745%,19.607843%);fill-opacity:1;" d="M 21.375 9 C 17.648438 9 14.625 10.007812 14.625 11.25 C 14.625 12.492188 17.648438 13.5 21.375 13.5 C 25.101562 13.5 28.125 12.492188 28.125 11.25 C 28.125 10.007812 25.101562 9 21.375 9 Z M 27.902344 12.933594 C 27.136719 13.929688 24.453125 14.625 21.375 14.625 C 18.300781 14.625 15.617188 13.929688 14.847656 12.941406 C 14.703125 13.121094 14.628906 13.3125 14.625 13.5 C 14.625 14.742188 17.648438 15.75 21.375 15.75 C 25.101562 15.75 28.125 14.742188 28.125 13.5 C 28.125 13.308594 28.046875 13.121094 27.902344 12.933594 Z M 27.902344 15.183594 C 27.136719 16.179688 24.453125 16.875 21.375 16.875 C 18.300781 16.875 15.617188 16.179688 14.847656 15.191406 C 14.703125 15.371094 14.628906 15.5625 14.625 15.75 C 14.628906 16.160156 14.964844 16.558594 15.597656 16.90625 C 17.644531 17.007812 19.378906 17.40625 20.398438 17.972656 C 20.722656 17.992188 21.046875 18 21.375 18 C 25.101562 18 28.125 16.992188 28.125 15.75 C 28.125 15.558594 28.046875 15.371094 27.902344 15.183594 Z M 27.902344 17.433594 C 27.136719 18.429688 24.453125 19.125 21.375 19.125 C 21.375 19.125 21.375 19.945312 21.375 20.25 C 25.101562 20.25 28.125 19.242188 28.125 18 C 28.125 17.808594 28.046875 17.621094 27.902344 17.433594 Z M 27.902344 19.683594 C 27.136719 20.679688 24.453125 21.375 21.375 21.375 C 21.375 21.863281 21.375 21.945312 21.375 22.5 C 25.101562 22.5 28.125 21.492188 28.125 20.25 C 28.125 20.058594 28.046875 19.871094 27.902344 19.683594 Z M 27.902344 21.933594 C 27.136719 22.929688 24.453125 23.625 21.375 23.625 C 21.375 24.125 21.375 24.425781 21.375 24.75 C 25.101562 24.75 28.125 23.742188 28.125 22.5 C 28.125 22.308594 28.046875 22.121094 27.902344 21.933594 Z M 27.902344 24.183594 C 27.136719 25.179688 24.453125 25.875 21.375 25.875 C 21.375 26.277344 21.03125 26.648438 20.476562 26.976562 C 20.777344 26.992188 21.074219 27 21.375 27 C 25.101562 27 28.125 25.992188 28.125 24.75 C 28.125 24.558594 28.046875 24.371094 27.902344 24.183594 Z M 27.902344 24.183594 "/>
<path style=" stroke:none;fill-rule:nonzero;fill:rgb(100%,84.705882%,77.647059%);fill-opacity:1;" d="M 21.375 7.875 C 17.648438 7.875 14.625 8.882812 14.625 10.125 C 14.625 11.367188 17.648438 12.375 21.375 12.375 C 25.101562 12.375 28.125 11.367188 28.125 10.125 C 28.125 8.882812 25.101562 7.875 21.375 7.875 Z M 27.902344 11.808594 C 27.136719 12.804688 24.453125 13.5 21.375 13.5 C 18.300781 13.5 15.617188 12.804688 14.847656 11.816406 C 14.703125 11.996094 14.628906 12.1875 14.625 12.375 C 14.625 13.617188 17.648438 14.625 21.375 14.625 C 25.101562 14.625 28.125 13.617188 28.125 12.375 C 28.125 12.183594 28.046875 11.996094 27.902344 11.808594 Z M 27.902344 14.058594 C 27.136719 15.054688 24.453125 15.75 21.375 15.75 C 18.300781 15.75 15.617188 15.054688 14.847656 14.066406 C 14.703125 14.246094 14.628906 14.4375 14.625 14.625 C 14.628906 15.035156 14.964844 15.433594 15.597656 15.78125 C 17.644531 15.882812 19.378906 16.28125 20.398438 16.847656 C 20.722656 16.867188 21.046875 16.875 21.375 16.875 C 25.101562 16.875 28.125 15.867188 28.125 14.625 C 28.125 14.433594 28.046875 14.246094 27.902344 14.058594 Z M 27.902344 16.308594 C 27.136719 17.304688 24.453125 18 21.375 18 C 21.375 18 21.375 18.820312 21.375 19.125 C 25.101562 19.125 28.125 18.117188 28.125 16.875 C 28.125 16.683594 28.046875 16.496094 27.902344 16.308594 Z M 27.902344 18.558594 C 27.136719 19.554688 24.453125 20.25 21.375 20.25 C 21.375 20.738281 21.375 20.820312 21.375 21.375 C 25.101562 21.375 28.125 20.367188 28.125 19.125 C 28.125 18.933594 28.046875 18.746094 27.902344 18.558594 Z M 27.902344 20.808594 C 27.136719 21.804688 24.453125 22.5 21.375 22.5 C 21.375 23 21.375 23.300781 21.375 23.625 C 25.101562 23.625 28.125 22.617188 28.125 21.375 C 28.125 21.183594 28.046875 20.996094 27.902344 20.808594 Z M 27.902344 23.058594 C 27.136719 24.054688 24.453125 24.75 21.375 24.75 C 21.375 25.152344 21.03125 25.523438 20.476562 25.851562 C 20.777344 25.867188 21.074219 25.875 21.375 25.875 C 25.101562 25.875 28.125 24.867188 28.125 23.625 C 28.125 23.433594 28.046875 23.246094 27.902344 23.058594 Z M 27.902344 23.058594 "/>
<path style=" stroke:none;fill-rule:nonzero;fill:rgb(84.313725%,36.862745%,19.607843%);fill-opacity:1;" d="M 14.625 16.875 C 10.898438 16.875 7.875 17.882812 7.875 19.125 C 7.875 20.367188 10.898438 21.375 14.625 21.375 C 18.351562 21.375 21.375 20.367188 21.375 19.125 C 21.375 17.882812 18.351562 16.875 14.625 16.875 Z M 21.152344 20.808594 C 20.386719 21.804688 17.703125 22.5 14.625 22.5 C 11.550781 22.5 8.867188 21.804688 8.097656 20.816406 C 7.953125 20.996094 7.878906 21.1875 7.875 21.375 C 7.875 22.617188 10.898438 23.625 14.625 23.625 C 18.351562 23.625 21.375 22.617188 21.375 21.375 C 21.375 21.183594 21.296875 20.996094 21.152344 20.808594 Z M 21.152344 23.058594 C 20.386719 24.054688 17.703125 24.75 14.625 24.75 C 11.550781 24.75 8.867188 24.054688 8.097656 23.066406 C 7.953125 23.246094 7.878906 23.4375 7.875 23.625 C 7.875 24.867188 10.898438 25.875 14.625 25.875 C 18.351562 25.875 21.375 24.867188 21.375 23.625 C 21.375 23.433594 21.296875 23.246094 21.152344 23.058594 Z M 21.152344 25.308594 C 20.386719 26.304688 17.703125 27 14.625 27 C 11.550781 27 8.867188 26.304688 8.097656 25.316406 C 7.953125 25.496094 7.878906 25.6875 7.875 25.875 C 7.875 27.117188 10.898438 28.125 14.625 28.125 C 18.351562 28.125 21.375 27.117188 21.375 25.875 C 21.375 25.683594 21.296875 25.496094 21.152344 25.308594 Z M 21.152344 25.308594 "/>
<path style=" stroke:none;fill-rule:nonzero;fill:rgb(100%,100%,100%);fill-opacity:1;" d="M 14.625 15.75 C 10.898438 15.75 7.875 16.757812 7.875 18 C 7.875 19.242188 10.898438 20.25 14.625 20.25 C 18.351562 20.25 21.375 19.242188 21.375 18 C 21.375 16.757812 18.351562 15.75 14.625 15.75 Z M 21.152344 19.683594 C 20.386719 20.679688 17.703125 21.375 14.625 21.375 C 11.550781 21.375 8.867188 20.679688 8.097656 19.691406 C 7.953125 19.871094 7.878906 20.0625 7.875 20.25 C 7.875 21.492188 10.898438 22.5 14.625 22.5 C 18.351562 22.5 21.375 21.492188 21.375 20.25 C 21.375 20.058594 21.296875 19.871094 21.152344 19.683594 Z M 21.152344 21.933594 C 20.386719 22.929688 17.703125 23.625 14.625 23.625 C 11.550781 23.625 8.867188 22.929688 8.097656 21.941406 C 7.953125 22.121094 7.878906 22.3125 7.875 22.5 C 7.875 23.742188 10.898438 24.75 14.625 24.75 C 18.351562 24.75 21.375 23.742188 21.375 22.5 C 21.375 22.308594 21.296875 22.121094 21.152344 21.933594 Z M 21.152344 24.183594 C 20.386719 25.179688 17.703125 25.875 14.625 25.875 C 11.550781 25.875 8.867188 25.179688 8.097656 24.191406 C 7.953125 24.371094 7.878906 24.5625 7.875 24.75 C 7.875 25.992188 10.898438 27 14.625 27 C 18.351562 27 21.375 25.992188 21.375 24.75 C 21.375 24.558594 21.296875 24.371094 21.152344 24.183594 Z M 21.152344 24.183594 "/>
</g>
</svg>
