<?xml version="1.0" encoding="UTF-8"?>
<svg xmlns="http://www.w3.org/2000/svg" xmlns:xlink="http://www.w3.org/1999/xlink" width="36pt" height="36pt" viewBox="0 0 36 36" version="1.1">
<defs>
<clipPath id="clip1">
  <path d="M 9 9 L 27 9 L 27 27 L 9 27 Z M 9 9 "/>
</clipPath>
<clipPath id="clip2">
  <path d="M 35.246094 17.988281 C 35.246094 27.523438 27.519531 35.25 18 35.25 C 8.480469 35.25 0.753906 27.523438 0.753906 17.988281 C 0.753906 8.453125 8.480469 0.726562 18 0.726562 C 27.519531 0.726562 35.246094 8.453125 35.246094 17.988281 Z M 35.246094 17.988281 "/>
</clipPath>
</defs>
<g id="surface1">
<path style=" stroke:none;fill-rule:evenodd;fill:rgb(36.862745%,40.784314%,51.764706%);fill-opacity:1;" d="M 8.40625 2.136719 L 27.59375 2.136719 C 31.054688 2.136719 33.863281 4.945312 33.863281 8.40625 L 33.863281 27.59375 C 33.863281 31.054688 31.054688 33.863281 27.59375 33.863281 L 8.40625 33.863281 C 4.945312 33.863281 2.136719 31.054688 2.136719 27.59375 L 2.136719 8.40625 C 2.136719 4.945312 4.945312 2.136719 8.40625 2.136719 Z M 8.40625 2.136719 "/>
<g clip-path="url(#clip1)" clip-rule="nonzero">
<g clip-path="url(#clip2)" clip-rule="nonzero">
<path style=" stroke:none;fill-rule:nonzero;fill:rgb(100%,100%,100%);fill-opacity:1;" d="M 10.527344 26.96875 C 10.527344 26.855469 14.28125 22.335938 14.363281 22.355469 C 14.40625 22.367188 16.089844 23.078125 18.09375 23.941406 C 21.519531 25.410156 21.746094 25.5 21.839844 25.375 C 21.980469 25.183594 22.460938 24.175781 22.71875 23.539062 L 22.933594 22.996094 L 22.570312 22.796875 C 22.050781 22.515625 21.292969 21.882812 20.820312 21.339844 C 20.386719 20.847656 19.605469 19.652344 19.605469 19.484375 C 19.605469 19.429688 19.851562 19.683594 20.15625 20.046875 C 21.007812 21.058594 22.976562 22.65625 23.097656 22.429688 C 23.242188 22.160156 23.339844 21.367188 23.335938 20.445312 C 23.328125 19.324219 23.183594 18.449219 22.796875 17.246094 L 22.578125 16.570312 L 21.511719 16.234375 C 20.925781 16.046875 20.335938 15.867188 20.203125 15.820312 C 19.742188 15.675781 20.03125 15.683594 20.703125 15.835938 C 21.511719 16.019531 22.335938 16.167969 22.84375 16.230469 C 23.292969 16.289062 23.390625 16.199219 23.4375 15.703125 C 23.5 15.066406 23.09375 13.308594 22.675781 12.4375 C 22.511719 12.089844 22.4375 12.011719 22.105469 11.859375 C 21.003906 11.347656 17.558594 10.878906 16.097656 11.03125 C 15.464844 11.09375 14.816406 11.25 14.613281 11.378906 C 14.558594 11.425781 14.964844 11.523438 15.664062 11.652344 C 16.292969 11.769531 16.753906 11.871094 16.6875 11.890625 C 16.609375 11.902344 15.625 11.792969 14.480469 11.644531 C 12.476562 11.386719 12.40625 11.382812 12.257812 11.511719 C 11.964844 11.773438 11.550781 12.492188 11.460938 12.878906 C 11.378906 13.253906 11.382812 13.296875 11.570312 13.675781 C 11.886719 14.324219 12.476562 14.792969 13.816406 15.472656 C 14.449219 15.800781 14.953125 16.070312 14.933594 16.089844 C 14.914062 16.109375 14.371094 15.90625 13.734375 15.640625 L 12.566406 15.15625 L 10.851562 15.636719 C 9.910156 15.898438 9.109375 16.113281 9.070312 16.113281 C 9.023438 16.113281 9 14.976562 9 13.046875 C 9 10.09375 9.007812 9.972656 9.152344 9.671875 C 9.238281 9.484375 9.414062 9.289062 9.570312 9.195312 L 9.835938 9.027344 L 17.683594 9.003906 C 21.992188 8.992188 25.703125 9.003906 25.914062 9.027344 C 26.394531 9.085938 26.828125 9.4375 26.941406 9.863281 C 26.992188 10.046875 27.007812 12.839844 26.996094 18.15625 L 26.976562 26.160156 L 26.808594 26.429688 C 26.710938 26.585938 26.515625 26.757812 26.335938 26.847656 C 26.027344 26.996094 25.964844 27 18.28125 27 C 14.023438 27 10.535156 26.972656 10.535156 26.945312 M 10.519531 26.960938 "/>
</g>
</g>
</g>
</svg>
