<?xml version="1.0" encoding="UTF-8"?>
<svg xmlns="http://www.w3.org/2000/svg" xmlns:xlink="http://www.w3.org/1999/xlink" width="36pt" height="36pt" viewBox="0 0 36 36" version="1.1">
<g id="surface1">
<path style=" stroke:none;fill-rule:evenodd;fill:rgb(92.156863%,92.156863%,92.156863%);fill-opacity:1;" d="M 7.941406 9.808594 C 7.832031 9.929688 7.667969 10.019531 7.5625 10.140625 C 7.078125 10.707031 6.613281 11.367188 6.253906 12.085938 C 5.894531 12.800781 5.636719 13.574219 5.570312 14.355469 C 5.5 15.136719 5.558594 15.90625 5.742188 16.640625 C 5.925781 17.378906 6.230469 18.082031 6.648438 18.742188 C 5.765625 18.285156 5.070312 18.027344 4.5625 17.222656 C 4.425781 17.125 4.472656 17.535156 4.496094 17.910156 C 4.679688 19.59375 4.976562 21.246094 5.480469 22.839844 L 5.460938 22.832031 C 5.480469 22.859375 5.519531 23.269531 5.746094 23.941406 C 5.96875 24.613281 6.378906 25.539062 7.132812 26.601562 C 7.664062 27.367188 8.28125 28.109375 8.949219 28.769531 C 9.617188 29.433594 10.335938 30.007812 11.070312 30.4375 C 11.507812 30.695312 11.863281 31.167969 12.332031 31.242188 C 11.414062 31.25 10.476562 30.996094 9.5625 30.554688 C 8.652344 30.109375 7.761719 29.472656 6.9375 28.726562 C 6.113281 27.976562 5.351562 27.113281 4.699219 26.214844 C 4.046875 25.3125 3.496094 24.375 3.097656 23.472656 C 2.699219 22.476562 2.359375 21.460938 2.136719 20.414062 L 2.136719 27.59375 C 2.136719 31.066406 4.929688 33.863281 8.40625 33.863281 L 27.59375 33.863281 C 31.066406 33.863281 33.863281 31.066406 33.863281 27.59375 L 33.863281 18.152344 C 33.886719 19.730469 33.648438 21.378906 33.09375 22.988281 C 32.523438 24.65625 31.644531 26.277344 30.464844 27.71875 C 30.449219 27.742188 30.429688 27.761719 30.414062 27.78125 C 30.320312 27.902344 30.234375 28.023438 30.136719 28.144531 C 29.984375 28.339844 29.726562 28.574219 29.578125 28.746094 C 28.453125 30.023438 27.382812 30.609375 27.382812 30.609375 C 26.71875 31.09375 26.039062 31.386719 25.257812 31.632812 C 24.480469 31.882812 23.605469 32.082031 22.554688 32.375 C 23.699219 31.691406 25.296875 29.4375 24.828125 30.101562 C 24.828125 30.101562 24.210938 30.726562 23.191406 31.320312 C 22.683594 31.617188 22.074219 31.910156 21.390625 32.113281 C 20.707031 32.316406 19.949219 32.429688 19.148438 32.375 C 19.75 32.117188 20.488281 31.667969 21.269531 31.03125 C 22.054688 30.394531 22.882812 29.566406 23.667969 28.535156 C 24.449219 27.503906 25.1875 26.273438 25.789062 24.832031 C 26.394531 23.394531 26.859375 21.742188 27.101562 19.875 C 26.425781 20.519531 25.582031 20.804688 24.902344 20.929688 C 24.222656 21.054688 23.707031 21.015625 23.695312 21.015625 C 23.695312 21.015625 23.6875 21.015625 23.6875 21.015625 C 23.6875 21.015625 23.695312 21.011719 23.695312 21.011719 C 24.261719 20.289062 24.59375 19.449219 24.753906 18.554688 C 24.914062 17.65625 24.90625 16.703125 24.792969 15.746094 C 24.609375 14.28125 24.050781 12.792969 23.25 11.511719 L 23.253906 11.511719 C 22.976562 11.070312 22.335938 10.46875 21.980469 10.097656 C 21.210938 10.445312 20.414062 10.84375 19.617188 11.152344 C 18.820312 11.464844 18.019531 11.691406 17.242188 11.691406 C 16.429688 11.691406 15.71875 11.421875 15.054688 11.246094 C 14.386719 11.070312 13.761719 10.980469 13.128906 11.34375 C 12.167969 11.785156 11.382812 12.425781 10.414062 12.847656 C 9.984375 13.058594 9.5 13.28125 9.089844 13.578125 C 8.683594 13.875 8.359375 14.246094 8.246094 14.746094 C 7.898438 14.359375 7.792969 13.882812 7.8125 13.390625 C 7.828125 12.898438 7.972656 12.394531 8.117188 11.953125 C 8.261719 11.890625 8.078125 11.253906 8.09375 10.953125 C 8.046875 10.582031 7.992188 10.191406 7.941406 9.808594 Z M 7.941406 9.808594 "/>
<path style=" stroke:none;fill-rule:nonzero;fill:rgb(21.568627%,32.54902%,53.72549%);fill-opacity:1;" d="M 7.132812 26.601562 C 8.511719 28.585938 10.296875 30.925781 12.328125 31.238281 C 11.535156 30.78125 9.542969 28.976562 8.921875 25.558594 C 9.582031 26.855469 12.570312 28.574219 13.464844 28.96875 C 13.019531 28.550781 11.3125 26.058594 11.195312 24.59375 L 5.460938 22.832031 C 5.496094 22.882812 5.625 24.480469 7.132812 26.601562 Z M 7.132812 26.601562 "/>
<path style=" stroke:none;fill-rule:nonzero;fill:rgb(73.72549%,73.72549%,73.72549%);fill-opacity:1;" d="M 27.542969 13.621094 L 17.207031 9.996094 L 6.132812 10.734375 L 3.304688 14.261719 C 3.808594 17.523438 3.496094 21.050781 5.25 23.902344 L 24.828125 30.101562 L 27.527344 22.578125 Z M 27.542969 13.621094 "/>
<path style=" stroke:none;fill-rule:nonzero;fill:rgb(92.156863%,92.156863%,92.156863%);fill-opacity:1;" d="M 27.542969 12.484375 L 17.207031 8.859375 L 6.132812 9.597656 L 3.304688 13.125 C 3.808594 16.386719 3.496094 19.914062 5.25 22.765625 L 24.828125 28.96875 L 27.527344 21.441406 Z M 27.542969 12.484375 "/>
<path style=" stroke:none;fill-rule:nonzero;fill:rgb(73.72549%,73.72549%,73.72549%);fill-opacity:1;" d="M 26.703125 15.609375 L 25.167969 10.570312 L 6.414062 10.382812 L 6.308594 10.515625 L 6.132812 10.734375 L 13.234375 20.773438 Z M 26.703125 15.609375 "/>
<path style=" stroke:none;fill-rule:nonzero;fill:rgb(96.862745%,96.862745%,96.862745%);fill-opacity:1;" d="M 26.703125 14.472656 L 25.167969 9.433594 L 6.414062 9.246094 L 6.308594 9.378906 L 6.132812 9.597656 L 13.234375 19.640625 Z M 26.703125 14.472656 "/>
<path style=" stroke:none;fill-rule:evenodd;fill:rgb(34.901961%,58.823529%,82.352941%);fill-opacity:1;" d="M 11.515625 2.136719 C 11.46875 2.1875 11.402344 2.214844 11.355469 2.269531 C 10.507812 3.230469 9.867188 4.453125 9.335938 5.515625 C 8.957031 6.195312 8.558594 6.996094 8.222656 7.636719 C 7.902344 8.140625 7.839844 8.695312 7.871094 9.257812 C 7.898438 9.824219 8.027344 10.402344 8.09375 10.953125 C 8.078125 11.253906 8.261719 11.890625 8.117188 11.953125 C 7.972656 12.394531 7.828125 12.898438 7.8125 13.390625 C 7.792969 13.882812 7.898438 14.359375 8.246094 14.746094 C 8.359375 14.246094 8.683594 13.875 9.089844 13.578125 C 9.5 13.28125 9.984375 13.058594 10.414062 12.847656 C 11.382812 12.425781 12.167969 11.785156 13.128906 11.34375 C 13.761719 10.980469 14.386719 11.070312 15.054688 11.246094 C 15.71875 11.421875 16.429688 11.6875 17.242188 11.6875 C 18.019531 11.6875 18.820312 11.464844 19.617188 11.152344 C 20.414062 10.84375 21.210938 10.445312 21.980469 10.097656 C 22.335938 10.46875 22.976562 11.070312 23.253906 11.511719 L 23.25 11.511719 C 24.050781 12.792969 24.609375 14.28125 24.792969 15.746094 C 24.90625 16.703125 24.914062 17.65625 24.753906 18.554688 C 24.59375 19.449219 24.261719 20.289062 23.695312 21.011719 C 23.695312 21.011719 23.6875 21.015625 23.6875 21.015625 C 23.6875 21.015625 23.695312 21.015625 23.695312 21.015625 C 23.707031 21.015625 24.222656 21.054688 24.902344 20.929688 C 25.582031 20.804688 26.425781 20.519531 27.101562 19.875 C 26.859375 21.742188 26.394531 23.394531 25.789062 24.832031 C 25.1875 26.273438 24.449219 27.503906 23.667969 28.535156 C 22.882812 29.566406 22.054688 30.394531 21.269531 31.03125 C 20.488281 31.667969 19.75 32.117188 19.148438 32.375 C 19.949219 32.429688 20.707031 32.316406 21.390625 32.113281 C 22.074219 31.910156 22.683594 31.617188 23.191406 31.320312 C 24.210938 30.726562 24.828125 30.101562 24.828125 30.101562 C 25.296875 29.4375 23.699219 31.691406 22.554688 32.375 C 23.605469 32.082031 24.480469 31.882812 25.257812 31.632812 C 26.039062 31.386719 26.71875 31.09375 27.382812 30.609375 C 27.382812 30.609375 28.453125 30.023438 29.578125 28.746094 C 29.726562 28.574219 29.984375 28.339844 30.136719 28.144531 C 30.234375 28.023438 30.320312 27.902344 30.414062 27.78125 C 30.429688 27.761719 30.449219 27.742188 30.464844 27.722656 C 31.644531 26.277344 32.523438 24.65625 33.09375 22.988281 C 33.648438 21.378906 33.886719 19.730469 33.863281 18.152344 L 33.863281 8.40625 C 33.863281 4.933594 31.066406 2.136719 27.59375 2.136719 Z M 11.515625 2.136719 "/>
<path style=" stroke:none;fill-rule:nonzero;fill:rgb(25.882353%,44.313725%,63.921569%);fill-opacity:1;" d="M 9.273438 11.921875 C 13.0625 11.8125 10.683594 9.464844 15.738281 5.105469 C 11.621094 7.238281 7.699219 7.234375 9.277344 11.921875 Z M 9.273438 11.921875 "/>
<path style=" stroke:none;fill-rule:evenodd;fill:rgb(25.882353%,44.313725%,63.921569%);fill-opacity:1;" d="M 8.40625 2.136719 C 4.929688 2.136719 2.136719 4.933594 2.136719 8.40625 L 2.136719 20.414062 C 2.359375 21.460938 2.699219 22.476562 3.097656 23.472656 C 3.496094 24.375 4.046875 25.3125 4.699219 26.214844 C 5.351562 27.113281 6.113281 27.976562 6.9375 28.726562 C 7.761719 29.472656 8.652344 30.109375 9.5625 30.554688 C 10.476562 30.996094 11.414062 31.253906 12.332031 31.242188 C 11.863281 31.167969 11.507812 30.695312 11.070312 30.4375 C 10.335938 30.007812 9.617188 29.433594 8.949219 28.769531 C 8.28125 28.109375 7.664062 27.367188 7.132812 26.601562 C 6.378906 25.539062 5.96875 24.613281 5.746094 23.941406 C 5.519531 23.269531 5.480469 22.859375 5.460938 22.832031 L 5.480469 22.839844 C 4.976562 21.246094 4.679688 19.59375 4.496094 17.910156 C 4.472656 17.535156 4.425781 17.125 4.5625 17.222656 C 5.070312 18.027344 5.765625 18.285156 6.648438 18.742188 C 6.230469 18.082031 5.925781 17.378906 5.742188 16.640625 C 5.558594 15.90625 5.5 15.136719 5.570312 14.355469 C 5.636719 13.574219 5.894531 12.800781 6.253906 12.085938 C 6.613281 11.367188 7.078125 10.707031 7.5625 10.140625 C 7.667969 10.019531 7.832031 9.929688 7.941406 9.808594 C 7.917969 9.625 7.878906 9.441406 7.871094 9.257812 C 7.839844 8.695312 7.902344 8.140625 8.222656 7.636719 C 8.558594 6.996094 8.957031 6.195312 9.335938 5.515625 C 9.40625 5.378906 9.53125 5.234375 9.605469 5.089844 C 10.089844 4.136719 10.621094 3.105469 11.355469 2.265625 C 11.402344 2.214844 11.46875 2.1875 11.515625 2.136719 Z M 8.40625 2.136719 "/>
<path style=" stroke:none;fill-rule:nonzero;fill:rgb(100%,100%,100%);fill-opacity:1;" d="M 12.109375 10.011719 C 11.746094 10.675781 10.898438 10.945312 10.429688 10.695312 C 9.949219 10.445312 9.953125 9.609375 10.324219 8.945312 C 10.683594 8.28125 12.265625 8.582031 12.273438 8.582031 C 12.28125 8.582031 12.472656 9.351562 12.109375 10.011719 Z M 12.109375 10.011719 "/>
<path style=" stroke:none;fill-rule:nonzero;fill:rgb(36.078431%,37.254902%,37.647059%);fill-opacity:1;" d="M 9.957031 13.039062 C 9.957031 13.039062 10.160156 12.84375 10.054688 12.484375 C 8.78125 12.90625 8.15625 11.6875 8.160156 11.6875 C 8.167969 11.6875 7.210938 14.195312 8.351562 15.332031 C 8.449219 14.394531 9.910156 13.089844 9.914062 13.089844 "/>
</g>
</svg>
