<?xml version="1.0" encoding="UTF-8"?>
<svg xmlns="http://www.w3.org/2000/svg" xmlns:xlink="http://www.w3.org/1999/xlink" width="36pt" height="36pt" viewBox="0 0 36 36" version="1.1">
<g id="surface1">
<path style=" stroke:none;fill-rule:nonzero;fill:rgb(12.941176%,84.313725%,53.72549%);fill-opacity:1;" d="M 33.75 7.839844 C 33.6875 7.1875 33.617188 6.539062 33.371094 5.960938 C 33.054688 5.210938 32.597656 4.535156 32.03125 3.96875 C 31.460938 3.402344 30.789062 2.941406 30.035156 2.625 C 29.460938 2.382812 28.8125 2.3125 28.164062 2.25 L 18 2.25 L 18 18 L 33.75 18 Z M 33.75 7.839844 "/>
<path style=" stroke:none;fill-rule:nonzero;fill:rgb(96.862745%,78.039216%,23.529412%);fill-opacity:1;" d="M 7.835938 2.25 C 7.1875 2.3125 6.535156 2.382812 5.960938 2.625 C 5.210938 2.941406 4.535156 3.402344 3.96875 3.96875 C 3.402344 4.535156 2.941406 5.210938 2.625 5.960938 C 2.382812 6.535156 2.3125 7.1875 2.25 7.835938 L 2.25 18 L 18 18 L 18 2.25 Z M 7.835938 2.25 "/>
<path style=" stroke:none;fill-rule:nonzero;fill:rgb(12.54902%,52.54902%,90.588235%);fill-opacity:1;" d="M 28.164062 33.75 C 28.8125 33.6875 29.464844 33.617188 30.039062 33.375 C 30.789062 33.058594 31.464844 32.597656 32.03125 32.03125 C 32.597656 31.464844 33.058594 30.789062 33.375 30.039062 C 33.617188 29.464844 33.6875 28.8125 33.75 28.164062 L 33.75 18 L 18 18 L 18 33.75 Z M 28.164062 33.75 "/>
<path style=" stroke:none;fill-rule:nonzero;fill:rgb(12.941176%,84.313725%,53.72549%);fill-opacity:1;" d="M 2.25 28.160156 C 2.3125 28.8125 2.386719 29.460938 2.628906 30.039062 C 2.945312 30.789062 3.402344 31.464844 3.96875 32.03125 C 4.539062 32.597656 5.210938 33.058594 5.964844 33.375 C 6.539062 33.617188 7.1875 33.6875 7.835938 33.75 L 18 33.75 L 18 18 L 2.25 18 Z M 2.25 28.160156 "/>
<path style=" stroke:none;fill-rule:evenodd;fill:rgb(24.705882%,24.705882%,24.705882%);fill-opacity:1;" d="M 10.714844 5.949219 L 25.285156 5.949219 C 27.917969 5.949219 30.050781 8.082031 30.050781 10.714844 L 30.050781 25.285156 C 30.050781 27.917969 27.917969 30.050781 25.285156 30.050781 L 10.714844 30.050781 C 8.082031 30.050781 5.949219 27.917969 5.949219 25.285156 L 5.949219 10.714844 C 5.949219 8.082031 8.082031 5.949219 10.714844 5.949219 Z M 10.714844 5.949219 "/>
<path style="fill:none;stroke-width:1;stroke-linecap:round;stroke-linejoin:miter;stroke:rgb(100%,100%,100%);stroke-opacity:1;stroke-miterlimit:4;" d="M 12.929573 -15.602135 L 20.932875 -15.602135 " transform="matrix(0.901483,0,0,0.901483,-1.315951,38.381472)"/>
<path style="fill:none;stroke-width:1;stroke-linecap:round;stroke-linejoin:round;stroke:rgb(100%,100%,100%);stroke-opacity:1;stroke-miterlimit:4;" d="M 17.925678 -21.607861 L 17.925678 -29.60683 M 12.929573 -29.60683 L 15.425459 -25.607346 L 17.925678 -29.60683 M 12.929573 -21.607861 L 12.929573 -29.60683 " transform="matrix(0.901483,0,0,0.901483,-1.315951,38.381472)"/>
<path style="fill:none;stroke-width:1;stroke-linecap:round;stroke-linejoin:bevel;stroke:rgb(100%,100%,100%);stroke-opacity:1;stroke-miterlimit:4;" d="M 19.93192 -25.577014 C 19.93192 -25.577014 23.931405 -25.113368 23.931405 -27.57459 C 23.931405 -30.040144 19.93192 -29.576498 19.93192 -29.576498 M 19.93192 -21.57753 L 19.93192 -29.576498 " transform="matrix(0.901483,0,0,0.901483,-1.315951,38.381472)"/>
<path style="fill:none;stroke-width:1;stroke-linecap:round;stroke-linejoin:round;stroke:rgb(100%,100%,100%);stroke-opacity:1;stroke-miterlimit:4;" d="M 25.92898 -22.60015 C 25.92898 -22.60015 26.431624 -21.599195 27.926556 -21.603528 C 29.421488 -21.603528 29.928465 -22.60015 29.928465 -23.601104 C 29.928465 -27.817245 25.92898 -23.393113 25.937646 -27.591922 C 25.92898 -28.601543 26.409958 -29.602497 27.926556 -29.602497 C 29.443153 -29.602497 29.928465 -28.601543 29.928465 -28.601543 " transform="matrix(0.901483,0,0,0.901483,-1.315951,38.381472)"/>
</g>
</svg>
