<?xml version="1.0" encoding="UTF-8"?>
<svg xmlns="http://www.w3.org/2000/svg" xmlns:xlink="http://www.w3.org/1999/xlink" width="36pt" height="36pt" viewBox="0 0 36 36" version="1.1">
<g id="surface1">
<path style=" stroke:none;fill-rule:evenodd;fill:rgb(49.411765%,76.078431%,25.882353%);fill-opacity:1;" d="M 8.40625 2.136719 L 27.59375 2.136719 C 31.054688 2.136719 33.863281 4.945312 33.863281 8.40625 L 33.863281 27.59375 C 33.863281 31.054688 31.054688 33.863281 27.59375 33.863281 L 8.40625 33.863281 C 4.945312 33.863281 2.136719 31.054688 2.136719 27.59375 L 2.136719 8.40625 C 2.136719 4.945312 4.945312 2.136719 8.40625 2.136719 Z M 8.40625 2.136719 "/>
<path style=" stroke:none;fill-rule:nonzero;fill:rgb(100%,100%,100%);fill-opacity:1;" d="M 10.109375 8.417969 C 9.421875 8.417969 8.804688 8.832031 8.546875 9.46875 C 8.285156 10.105469 8.441406 10.835938 8.933594 11.316406 L 15.617188 17.996094 L 8.933594 24.679688 C 8.496094 25.101562 8.316406 25.730469 8.472656 26.320312 C 8.625 26.914062 9.085938 27.375 9.679688 27.53125 C 10.269531 27.683594 10.898438 27.507812 11.320312 27.066406 L 18.003906 20.382812 L 24.683594 27.066406 C 25.109375 27.492188 25.730469 27.660156 26.3125 27.503906 C 26.898438 27.347656 27.351562 26.894531 27.507812 26.3125 C 27.664062 25.726562 27.5 25.105469 27.070312 24.679688 L 20.390625 17.996094 L 27.070312 11.316406 C 27.570312 10.828125 27.722656 10.085938 27.449219 9.445312 C 27.179688 8.804688 26.542969 8.394531 25.84375 8.417969 C 25.40625 8.429688 24.992188 8.613281 24.683594 8.929688 L 18.003906 15.609375 L 11.320312 8.929688 C 11.003906 8.601562 10.566406 8.417969 10.109375 8.417969 Z M 10.109375 8.417969 "/>
</g>
</svg>
