<?xml version="1.0" encoding="UTF-8"?>
<svg xmlns="http://www.w3.org/2000/svg" xmlns:xlink="http://www.w3.org/1999/xlink" width="36pt" height="36pt" viewBox="0 0 36 36" version="1.1">
<defs>
<filter id="alpha" filterUnits="objectBoundingBox" x="0%" y="0%" width="100%" height="100%">
  <feColorMatrix type="matrix" in="SourceGraphic" values="0 0 0 0 1 0 0 0 0 1 0 0 0 0 1 0 0 0 1 0"/>
</filter>
<mask id="mask0">
  <g filter="url(#alpha)">
<rect x="0" y="0" width="36" height="36" style="fill:rgb(0%,0%,0%);fill-opacity:0.2;stroke:none;"/>
  </g>
</mask>
<clipPath id="clip1">
  <rect width="36" height="36"/>
</clipPath>
<g id="surface6" clip-path="url(#clip1)">
<path style=" stroke:none;fill-rule:nonzero;fill:rgb(0%,0%,0%);fill-opacity:1;" d="M 16.484375 22.871094 C 15.84375 22.65625 15.019531 22.074219 14.382812 21.386719 C 14.023438 21 13.988281 20.90625 14.164062 20.824219 C 14.296875 20.761719 14.691406 20.957031 15.214844 21.34375 C 16.160156 22.039062 17.054688 22.457031 17.652344 22.480469 C 17.871094 22.488281 18.191406 22.546875 18.363281 22.609375 C 18.660156 22.71875 18.648438 22.734375 18.175781 22.902344 C 17.5625 23.125 17.214844 23.117188 16.484375 22.871094 Z M 16.484375 22.871094 "/>
</g>
</defs>
<g id="surface1">
<path style=" stroke:none;fill-rule:evenodd;fill:rgb(30.588235%,38.431373%,45.882353%);fill-opacity:1;" d="M 8.40625 2.136719 L 27.59375 2.136719 C 31.054688 2.136719 33.863281 4.945312 33.863281 8.40625 L 33.863281 27.59375 C 33.863281 31.054688 31.054688 33.863281 27.59375 33.863281 L 8.40625 33.863281 C 4.945312 33.863281 2.136719 31.054688 2.136719 27.59375 L 2.136719 8.40625 C 2.136719 4.945312 4.945312 2.136719 8.40625 2.136719 Z M 8.40625 2.136719 "/>
<path style=" stroke:none;fill-rule:nonzero;fill:rgb(82.352941%,58.039216%,23.137255%);fill-opacity:1;" d="M 17.796875 27.304688 C 18.367188 27.15625 19.449219 26.855469 19.910156 26.632812 C 20.851562 26.179688 21.9375 25.617188 21.9375 25.3125 C 21.339844 24.277344 20.578125 23.050781 19.6875 22.5 C 20.347656 22.074219 20.949219 21.691406 20.8125 20.925781 C 20.8125 20.925781 20.589844 20.75 21.070312 20.378906 C 23.039062 18.402344 25.949219 15.996094 27 13.648438 C 27 13.042969 26.65625 12.914062 25.75 12.9375 C 25.308594 12.949219 23.839844 12.921875 22.488281 12.9375 C 20.042969 12.964844 19.132812 12.9375 19.132812 12.9375 C 19.132812 12.9375 16.574219 12.890625 15.792969 13.507812 C 13.824219 15.066406 12.9375 14.96875 11.285156 15.519531 C 9.75 16.03125 9.675781 15.300781 9.675781 18.957031 C 9.339844 21.027344 9.941406 23.089844 8.53125 24.929688 C 8.359375 25.15625 8.402344 25.261719 8.851562 25.75 C 9.746094 26.714844 11.292969 27.089844 13.011719 27.425781 C 14.175781 27.652344 16.707031 27.589844 17.796875 27.304688 Z M 17.796875 27.304688 "/>
<path style=" stroke:none;fill-rule:nonzero;fill:rgb(100%,83.529412%,28.235294%);fill-opacity:1;" d="M 12.375 8.4375 C 9.5625 8.4375 7.3125 11.011719 7.3125 13.835938 C 7.3125 15.054688 7.738281 16.617188 8.449219 17.496094 C 8.605469 17.898438 8.441406 18.226562 8.4375 18.316406 C 8.421875 18.617188 9.082031 18.75 10.84375 18.179688 C 12.878906 17.523438 13.746094 16.941406 15.863281 15.238281 C 16.65625 14.601562 17.402344 13.773438 18.289062 13.367188 C 19.054688 13.015625 19.6875 12.957031 19.6875 12.878906 C 19.6875 12.09375 18.675781 11.941406 18.113281 11.867188 L 17.480469 11.867188 C 16.707031 10.023438 15.1875 8.4375 12.375 8.4375 Z M 12.375 8.4375 "/>
<path style=" stroke:none;fill-rule:nonzero;fill:rgb(93.72549%,76.078431%,52.54902%);fill-opacity:1;" d="M 28.6875 13.5 C 28.6875 14.433594 27.933594 15.1875 27 15.1875 C 26.066406 15.1875 25.3125 14.433594 25.3125 13.5 C 25.3125 12.566406 26.066406 11.8125 27 11.8125 C 27.933594 11.8125 28.6875 12.566406 28.6875 13.5 Z M 28.6875 13.5 "/>
<use xlink:href="#surface6" mask="url(#mask0)"/>
</g>
</svg>
