<?xml version="1.0" encoding="UTF-8"?>
<svg xmlns="http://www.w3.org/2000/svg" xmlns:xlink="http://www.w3.org/1999/xlink" width="36pt" height="36pt" viewBox="0 0 36 36" version="1.1">
<defs>
<filter id="alpha" filterUnits="objectBoundingBox" x="0%" y="0%" width="100%" height="100%">
  <feColorMatrix type="matrix" in="SourceGraphic" values="0 0 0 0 1 0 0 0 0 1 0 0 0 0 1 0 0 0 1 0"/>
</filter>
<mask id="mask0">
  <g filter="url(#alpha)">
<rect x="0" y="0" width="36" height="36" style="fill:rgb(0%,0%,0%);fill-opacity:0.988235;stroke:none;"/>
  </g>
</mask>
<clipPath id="clip1">
  <rect width="36" height="36"/>
</clipPath>
<g id="surface6" clip-path="url(#clip1)">
<path style=" stroke:none;fill-rule:nonzero;fill:rgb(0%,49.411765%,100%);fill-opacity:1;" d="M 5.625 27.875 L 21.375 27.875 C 21.996094 27.875 22.5 28.378906 22.5 29 C 22.5 29.621094 21.996094 30.125 21.375 30.125 L 5.625 30.125 C 5.003906 30.125 4.5 29.621094 4.5 29 C 4.5 28.378906 5.003906 27.875 5.625 27.875 Z M 5.625 27.875 "/>
</g>
</defs>
<g id="surface1">
<path style=" stroke:none;fill-rule:evenodd;fill:rgb(80%,80%,80%);fill-opacity:1;" d="M 33.863281 24.710938 L 2.136719 24.710938 L 2.136719 27.59375 C 2.136719 31.066406 4.933594 33.863281 8.410156 33.863281 L 27.59375 33.863281 C 31.066406 33.863281 33.863281 31.066406 33.863281 27.59375 Z M 33.863281 24.710938 "/>
<path style=" stroke:none;fill-rule:evenodd;fill:rgb(0%,49.411765%,100%);fill-opacity:1;" d="M 8.410156 2.136719 C 4.933594 2.136719 2.136719 4.933594 2.136719 8.410156 L 2.136719 24.710938 L 33.863281 24.710938 L 33.863281 8.410156 C 33.863281 4.933594 31.066406 2.136719 27.59375 2.136719 Z M 8.410156 2.136719 "/>
<path style=" stroke:none;fill-rule:nonzero;fill:rgb(100%,100%,100%);fill-opacity:1;" d="M 14.378906 9.246094 C 14.105469 9.246094 13.878906 9.472656 13.878906 9.746094 L 13.878906 19.996094 C 13.878906 20.375 14.285156 20.617188 14.621094 20.433594 L 23.996094 15.308594 C 24.34375 15.121094 24.34375 14.621094 23.996094 14.433594 L 15.554688 9.820312 L 14.617188 9.308594 C 14.546875 9.269531 14.464844 9.246094 14.378906 9.246094 Z M 14.378906 9.246094 "/>
<path style=" stroke:none;fill-rule:nonzero;fill:rgb(60%,60%,60%);fill-opacity:1;" d="M 23.625 27.875 L 30.375 27.875 C 30.996094 27.875 31.5 28.378906 31.5 29 C 31.5 29.621094 30.996094 30.125 30.375 30.125 L 23.625 30.125 C 23.003906 30.125 22.5 29.621094 22.5 29 C 22.5 28.378906 23.003906 27.875 23.625 27.875 Z M 23.625 27.875 "/>
<use xlink:href="#surface6" mask="url(#mask0)"/>
<path style=" stroke:none;fill-rule:nonzero;fill:rgb(100%,100%,100%);fill-opacity:1;" d="M 24.75 29.003906 C 24.75 30.246094 23.742188 31.253906 22.5 31.253906 C 21.257812 31.253906 20.25 30.246094 20.25 29.003906 C 20.25 27.757812 21.257812 26.753906 22.5 26.753906 C 23.742188 26.753906 24.75 27.757812 24.75 29.003906 Z M 24.75 29.003906 "/>
</g>
</svg>
