<?xml version="1.0" encoding="UTF-8"?>
<svg xmlns="http://www.w3.org/2000/svg" xmlns:xlink="http://www.w3.org/1999/xlink" width="36pt" height="36pt" viewBox="0 0 36 36" version="1.1">
<defs>
<clipPath id="clip1">
  <rect width="36" height="36"/>
</clipPath>
<g id="surface6" clip-path="url(#clip1)">
<path style=" stroke:none;fill-rule:nonzero;fill:rgb(100%,100%,100%);fill-opacity:1;" d="M 11.25 8.4375 L 14.625 8.4375 L 14.625 27.5625 L 11.25 27.5625 Z M 11.25 8.4375 "/>
<path style=" stroke:none;fill-rule:nonzero;fill:rgb(100%,100%,100%);fill-opacity:1;" d="M 21.375 8.4375 L 24.75 8.4375 L 24.75 23.0625 L 21.375 23.0625 Z M 21.375 8.4375 "/>
<path style=" stroke:none;fill-rule:nonzero;fill:rgb(100%,100%,100%);fill-opacity:1;" d="M 11.25 14.066406 L 11.25 16.316406 C 11.25 20.027344 14.289062 23.066406 18 23.066406 C 21.710938 23.066406 24.75 20.027344 24.75 16.316406 L 24.75 14.0625 L 21.375 14.0625 L 21.375 16.3125 C 21.375 18.210938 19.898438 19.6875 18 19.6875 C 16.101562 19.6875 14.625 18.210938 14.625 16.3125 L 14.625 14.058594 Z M 11.25 14.066406 "/>
</g>
</defs>
<g id="surface1">
<path style=" stroke:none;fill-rule:evenodd;fill:rgb(0.784314%,46.666667%,74.117647%);fill-opacity:1;" d="M 8.40625 2.136719 L 27.59375 2.136719 C 31.054688 2.136719 33.863281 4.945312 33.863281 8.40625 L 33.863281 27.59375 C 33.863281 31.054688 31.054688 33.863281 27.59375 33.863281 L 8.40625 33.863281 C 4.945312 33.863281 2.136719 31.054688 2.136719 27.59375 L 2.136719 8.40625 C 2.136719 4.945312 4.945312 2.136719 8.40625 2.136719 Z M 8.40625 2.136719 "/>
<use xlink:href="#surface6"/>
</g>
</svg>
