<?xml version="1.0" encoding="UTF-8"?>
<svg xmlns="http://www.w3.org/2000/svg" xmlns:xlink="http://www.w3.org/1999/xlink" width="36pt" height="36pt" viewBox="0 0 36 36" version="1.1">
<g id="surface1">
<path style=" stroke:none;fill-rule:evenodd;fill:rgb(24.313725%,31.372549%,70.588235%);fill-opacity:1;" d="M 8.40625 2.136719 L 27.59375 2.136719 C 31.054688 2.136719 33.863281 4.945312 33.863281 8.40625 L 33.863281 27.59375 C 33.863281 31.054688 31.054688 33.863281 27.59375 33.863281 L 8.40625 33.863281 C 4.945312 33.863281 2.136719 31.054688 2.136719 27.59375 L 2.136719 8.40625 C 2.136719 4.945312 4.945312 2.136719 8.40625 2.136719 Z M 8.40625 2.136719 "/>
<path style=" stroke:none;fill-rule:nonzero;fill:rgb(57.254902%,68.235294%,100%);fill-opacity:1;" d="M 27.5625 10.6875 C 27.5625 12.863281 25.800781 14.625 23.625 14.625 C 21.449219 14.625 19.6875 12.863281 19.6875 10.6875 C 19.6875 8.511719 21.449219 6.75 23.625 6.75 C 25.800781 6.75 27.5625 8.511719 27.5625 10.6875 Z M 27.5625 10.6875 "/>
<path style=" stroke:none;fill-rule:nonzero;fill:rgb(57.254902%,68.235294%,100%);fill-opacity:1;" d="M 23.625 16.875 C 21.449219 16.875 19.6875 18.605469 19.6875 20.742188 C 19.6875 20.769531 19.6875 20.800781 19.691406 20.828125 L 19.6875 20.832031 L 19.6875 29.25 L 27.5625 29.25 L 27.5625 20.785156 C 27.5625 20.769531 27.5625 20.757812 27.5625 20.742188 C 27.5625 18.605469 25.800781 16.875 23.625 16.875 Z M 23.625 16.875 "/>
<path style=" stroke:none;fill-rule:nonzero;fill:rgb(57.254902%,68.235294%,100%);fill-opacity:1;" d="M 19.6875 10.6875 C 19.6875 12.550781 18.175781 14.0625 16.3125 14.0625 C 14.449219 14.0625 12.9375 12.550781 12.9375 10.6875 C 12.9375 8.824219 14.449219 7.3125 16.3125 7.3125 C 18.175781 7.3125 19.6875 8.824219 19.6875 10.6875 Z M 19.6875 10.6875 "/>
<path style=" stroke:none;fill-rule:nonzero;fill:rgb(57.254902%,68.235294%,100%);fill-opacity:1;" d="M 16.3125 15.75 C 14.449219 15.75 12.9375 17.324219 12.9375 19.265625 C 12.9375 19.292969 12.9375 19.316406 12.941406 19.34375 L 12.9375 19.347656 L 12.9375 27 L 19.6875 27 L 19.6875 19.304688 C 19.6875 19.289062 19.6875 19.277344 19.6875 19.265625 C 19.6875 17.324219 18.175781 15.75 16.3125 15.75 Z M 16.3125 15.75 "/>
<path style=" stroke:none;fill-rule:nonzero;fill:rgb(57.254902%,68.235294%,100%);fill-opacity:1;" d="M 12.9375 10.6875 C 12.9375 11.929688 11.929688 12.9375 10.6875 12.9375 C 9.445312 12.9375 8.4375 11.929688 8.4375 10.6875 C 8.4375 9.445312 9.445312 8.4375 10.6875 8.4375 C 11.929688 8.4375 12.9375 9.445312 12.9375 10.6875 Z M 12.9375 10.6875 "/>
<path style=" stroke:none;fill-rule:nonzero;fill:rgb(57.254902%,68.235294%,100%);fill-opacity:1;" d="M 10.6875 14.625 C 9.445312 14.625 8.4375 15.726562 8.4375 17.085938 C 8.4375 17.105469 8.4375 17.121094 8.4375 17.140625 L 8.4375 22.5 L 12.9375 22.5 L 12.9375 17.113281 C 12.9375 17.105469 12.9375 17.097656 12.9375 17.085938 C 12.9375 15.726562 11.929688 14.625 10.6875 14.625 Z M 10.6875 14.625 "/>
</g>
</svg>
