<?xml version="1.0" encoding="UTF-8"?>
<svg xmlns="http://www.w3.org/2000/svg" xmlns:xlink="http://www.w3.org/1999/xlink" width="36pt" height="36pt" viewBox="0 0 36 36" version="1.1">
<g id="surface1">
<path style=" stroke:none;fill-rule:evenodd;fill:rgb(14.901961%,33.333333%,48.627451%);fill-opacity:1;" d="M 8.40625 2.136719 L 27.59375 2.136719 C 31.054688 2.136719 33.863281 4.945312 33.863281 8.40625 L 33.863281 27.59375 C 33.863281 31.054688 31.054688 33.863281 27.59375 33.863281 L 8.40625 33.863281 C 4.945312 33.863281 2.136719 31.054688 2.136719 27.59375 L 2.136719 8.40625 C 2.136719 4.945312 4.945312 2.136719 8.40625 2.136719 Z M 8.40625 2.136719 "/>
<path style=" stroke:none;fill-rule:nonzero;fill:rgb(100%,100%,100%);fill-opacity:1;" d="M 8.464844 7.875 C 7.585938 7.855469 7.171875 8.464844 7.355469 9.515625 C 7.414062 9.851562 7.707031 10.335938 8.347656 11.136719 C 9.058594 12.023438 9.34375 12.511719 9.652344 13.351562 C 10.140625 14.679688 10.367188 15.125 10.761719 15.539062 C 11.070312 15.863281 11.070312 15.863281 10.863281 16.519531 C 10.542969 17.539062 10.476562 19.578125 10.734375 20.539062 C 11.117188 21.976562 11.59375 22.628906 12.253906 22.628906 C 12.726562 22.628906 13.113281 22.234375 13.25 21.613281 C 13.300781 21.398438 13.390625 21.089844 13.453125 20.925781 C 13.558594 20.648438 13.585938 20.667969 14.007812 21.355469 C 14.25 21.753906 14.714844 22.34375 15.039062 22.667969 C 15.785156 23.421875 16.808594 24.269531 16.882812 24.195312 C 16.914062 24.167969 16.617188 23.722656 16.21875 23.207031 C 15.824219 22.695312 15.078125 21.5 14.558594 20.554688 C 13.957031 19.449219 13.550781 18.832031 13.421875 18.832031 C 13.003906 18.832031 12.617188 19.484375 12.390625 20.574219 C 12.128906 21.828125 11.671875 21.617188 11.300781 20.074219 C 11.089844 19.183594 11.199219 17.984375 11.597656 16.863281 C 11.78125 16.351562 11.929688 15.878906 11.929688 15.8125 C 11.929688 15.75 11.640625 15.203125 11.285156 14.597656 C 10.929688 13.996094 10.515625 13.140625 10.359375 12.699219 C 9.984375 11.625 9.808594 11.3125 9.058594 10.398438 C 8.28125 9.460938 8.210938 9.027344 8.824219 9.03125 C 9.304688 9.035156 10.078125 9.355469 10.855469 9.878906 C 11.347656 10.210938 11.511719 10.253906 12.300781 10.253906 C 13.292969 10.253906 13.507812 10.335938 14.882812 11.242188 C 16.28125 12.164062 17.324219 13.019531 18.046875 13.84375 C 18.6875 14.574219 19.039062 15.210938 20.929688 19.082031 C 21.652344 20.566406 22.296875 21.285156 23.183594 21.59375 C 24.554688 22.066406 25.019531 22.28125 25.621094 22.714844 L 26.257812 23.171875 L 25.832031 23.257812 C 25.59375 23.300781 25.078125 23.375 24.683594 23.421875 C 23.867188 23.515625 23.332031 23.855469 23.332031 24.28125 C 23.332031 24.757812 24.964844 26.128906 26.601562 27.027344 C 27.390625 27.457031 28.144531 27.882812 28.285156 27.96875 C 28.648438 28.203125 28.75 28.175781 28.65625 27.867188 C 28.457031 27.214844 27.785156 26.582031 25.921875 25.285156 C 24.828125 24.523438 24.816406 24.550781 26.277344 24.40625 C 27.316406 24.300781 27.84375 24.125 27.84375 23.875 C 27.84375 23.757812 27.316406 23.148438 26.667969 22.519531 C 25.65625 21.535156 25.3125 21.289062 24.199219 20.746094 C 22.679688 20.007812 22.125 19.421875 21.777344 18.179688 C 21.253906 16.320312 19.851562 14.140625 17.984375 12.292969 C 16.058594 10.386719 14.21875 9.332031 12.535156 9.164062 C 11.847656 9.097656 11.492188 8.992188 11.140625 8.753906 C 10.539062 8.347656 9.144531 7.890625 8.464844 7.875 Z M 11.796875 11.253906 C 11.660156 11.242188 11.539062 11.261719 11.457031 11.320312 C 11.152344 11.527344 11.1875 11.785156 11.550781 11.945312 C 11.71875 12.019531 11.960938 12.285156 12.085938 12.53125 C 12.507812 13.363281 13.152344 12.804688 12.863281 11.859375 C 12.773438 11.5625 12.210938 11.28125 11.796875 11.253906 Z M 11.796875 11.253906 "/>
</g>
</svg>
