<?xml version="1.0" encoding="UTF-8"?>
<svg xmlns="http://www.w3.org/2000/svg" xmlns:xlink="http://www.w3.org/1999/xlink" width="36pt" height="36pt" viewBox="0 0 36 36" version="1.1">
<g id="surface1">
<path style=" stroke:none;fill-rule:evenodd;fill:rgb(6.27451%,62.745098%,69.019608%);fill-opacity:1;" d="M 8.40625 2.136719 L 27.59375 2.136719 C 31.054688 2.136719 33.863281 4.945312 33.863281 8.40625 L 33.863281 27.59375 C 33.863281 31.054688 31.054688 33.863281 27.59375 33.863281 L 8.40625 33.863281 C 4.945312 33.863281 2.136719 31.054688 2.136719 27.59375 L 2.136719 8.40625 C 2.136719 4.945312 4.945312 2.136719 8.40625 2.136719 Z M 8.40625 2.136719 "/>
<path style=" stroke:none;fill-rule:nonzero;fill:rgb(100%,100%,100%);fill-opacity:1;" d="M 18.691406 15.34375 C 16.5625 15.234375 14.128906 15.582031 12.527344 16.867188 C 9.933594 18.945312 8.714844 22.058594 10.078125 25.671875 C 10.476562 26.726562 11.960938 27.660156 13.351562 28.417969 C 19.125 30.582031 24.804688 28.121094 27.945312 24.335938 C 29.023438 23.007812 28.355469 21.480469 27.710938 20.597656 C 25.769531 17.933594 23.28125 15.585938 18.691406 15.34375 Z M 17.765625 6.773438 C 14.199219 6.738281 10.574219 8.738281 8.773438 11.101562 C 7.289062 13.039062 6.15625 14.996094 5.910156 17.351562 C 5.972656 18.6875 6.65625 19.578125 8.207031 19.644531 C 8.625 19.664062 9.046875 19.671875 9.46875 19.679688 C 9.976562 18.371094 10.804688 17.113281 12.019531 16.28125 C 13.90625 14.992188 16.386719 14.53125 18.644531 14.625 C 19.023438 14.640625 19.394531 14.671875 19.753906 14.714844 C 20.003906 12.871094 20.347656 11.015625 20.269531 9.140625 C 20.207031 7.636719 18.878906 6.804688 17.765625 6.773438 Z M 24.894531 9.488281 C 23.882812 11.496094 22.765625 13.3125 21.675781 15.136719 C 24.28125 15.949219 26.609375 17.789062 28.234375 20.3125 C 28.382812 20.542969 28.503906 20.765625 28.605469 20.984375 C 29.339844 20.878906 29.75 20.195312 29.863281 19.4375 C 30.675781 14.132812 29.1875 11.460938 27.257812 9.28125 C 26.359375 8.273438 25.570312 8.183594 24.894531 9.488281 Z M 24.894531 9.488281 "/>
</g>
</svg>
