<?xml version="1.0" encoding="UTF-8"?>
<svg xmlns="http://www.w3.org/2000/svg" xmlns:xlink="http://www.w3.org/1999/xlink" width="36pt" height="36pt" viewBox="0 0 36 36" version="1.1">
<g id="surface1">
<path style=" stroke:none;fill-rule:evenodd;fill:rgb(100%,39.215686%,39.215686%);fill-opacity:1;" d="M 8.40625 2.136719 L 27.59375 2.136719 C 31.054688 2.136719 33.863281 4.945312 33.863281 8.40625 L 33.863281 27.59375 C 33.863281 31.054688 31.054688 33.863281 27.59375 33.863281 L 8.40625 33.863281 C 4.945312 33.863281 2.136719 31.054688 2.136719 27.59375 L 2.136719 8.40625 C 2.136719 4.945312 4.945312 2.136719 8.40625 2.136719 Z M 8.40625 2.136719 "/>
<path style=" stroke:none;fill-rule:nonzero;fill:rgb(100%,100%,100%);fill-opacity:1;" d="M 9.5625 7.3125 L 9.5625 20.8125 L 12.9375 20.8125 L 12.9375 11.8125 C 15.175781 11.8125 17.078125 11.925781 18.085938 12.4375 C 19.09375 12.949219 19.695312 13.625 19.6875 16.308594 L 21.375 16.3125 L 19.6875 16.3125 L 19.6875 21.9375 L 16.3125 21.9375 L 21.375 28.6875 L 26.4375 21.9375 L 23.0625 21.9375 L 23.0625 16.316406 C 23.0625 16.316406 23.0625 16.3125 23.0625 16.3125 C 23.070312 12.902344 21.699219 10.484375 19.609375 9.429688 C 17.519531 8.371094 15.195312 8.4375 12.9375 8.4375 L 12.9375 7.3125 Z M 9.5625 7.3125 "/>
</g>
</svg>
