<?xml version="1.0" encoding="UTF-8"?>
<svg xmlns="http://www.w3.org/2000/svg" xmlns:xlink="http://www.w3.org/1999/xlink" width="36pt" height="36pt" viewBox="0 0 36 36" version="1.1">
<g id="surface1">
<path style=" stroke:none;fill-rule:evenodd;fill:rgb(89.019608%,18.039216%,18.039216%);fill-opacity:1;" d="M 8.40625 2.136719 L 27.59375 2.136719 C 31.054688 2.136719 33.863281 4.945312 33.863281 8.40625 L 33.863281 27.59375 C 33.863281 31.054688 31.054688 33.863281 27.59375 33.863281 L 8.40625 33.863281 C 4.945312 33.863281 2.136719 31.054688 2.136719 27.59375 L 2.136719 8.40625 C 2.136719 4.945312 4.945312 2.136719 8.40625 2.136719 Z M 8.40625 2.136719 "/>
<path style="fill:none;stroke-width:3;stroke-linecap:round;stroke-linejoin:round;stroke:rgb(100%,100%,100%);stroke-opacity:1;stroke-miterlimit:4;" d="M 13.170139 8.458333 C 8.229167 10.746528 6.909722 14.486111 7.784722 18.322917 C 9.774306 27.0625 16.541667 25.40625 17.71875 25.208333 C 19.666667 24.881944 23.5625 23.951389 24.347222 19.090278 C 25.149306 14.121528 21.90625 12.15625 19.954861 11.722222 C 17.496528 11.180556 15.486111 11.524306 14.371528 13.256944 C 13.333333 14.861111 13.25 16.847222 13.902778 18.177083 C 14.5 19.392361 15.052083 19.4375 15.975694 19.458333 C 19.159722 19.53125 19.590278 18.072917 19.243056 16.208333 C 18.4375 12.243056 16.583333 11.121528 17.222222 8.059028 C 17.875 5.993056 20.020833 6.28125 21.46875 7.458333 " transform="matrix(1.125,0,0,1.125,0,0)"/>
</g>
</svg>
