<?xml version="1.0" encoding="UTF-8"?>
<svg xmlns="http://www.w3.org/2000/svg" xmlns:xlink="http://www.w3.org/1999/xlink" width="36pt" height="36pt" viewBox="0 0 36 36" version="1.1">
<g id="surface1">
<path style=" stroke:none;fill-rule:evenodd;fill:rgb(30.980392%,30.980392%,30.980392%);fill-opacity:1;" d="M 8.40625 2.136719 L 27.59375 2.136719 C 31.054688 2.136719 33.863281 4.945312 33.863281 8.40625 L 33.863281 27.59375 C 33.863281 31.054688 31.054688 33.863281 27.59375 33.863281 L 8.40625 33.863281 C 4.945312 33.863281 2.136719 31.054688 2.136719 27.59375 L 2.136719 8.40625 C 2.136719 4.945312 4.945312 2.136719 8.40625 2.136719 Z M 8.40625 2.136719 "/>
<path style=" stroke:none;fill-rule:nonzero;fill:rgb(71.764706%,71.764706%,71.764706%);fill-opacity:1;" d="M 14.757812 6.75 C 14.691406 6.753906 14.625 6.773438 14.558594 6.820312 C 14.492188 6.867188 14.4375 6.953125 14.425781 7.023438 C 14.398438 7.171875 14.433594 7.242188 14.492188 7.367188 C 14.769531 7.886719 15.046875 8.289062 15.152344 8.597656 C 15.339844 9.023438 15.335938 9.421875 15.285156 9.691406 L 14.957031 11.332031 C 13.285156 11.734375 11.671875 12.136719 10.058594 12.699219 C 9.746094 12.804688 9.507812 12.910156 9.265625 13.042969 C 9.242188 13.039062 9.222656 13.039062 9.199219 13.042969 C 9.113281 13.09375 9.109375 13.171875 9.066406 13.246094 C 9.046875 13.285156 9.007812 13.332031 9 13.382812 C 8.996094 13.4375 9.019531 13.527344 9.066406 13.589844 C 9.207031 13.789062 9.398438 13.875 9.664062 14 C 9.925781 14.125 10.230469 14.257812 10.457031 14.339844 C 11.578125 14.765625 13.023438 15.105469 14.160156 15.230469 C 13.855469 16.660156 13.558594 18.074219 13.101562 19.46875 C 12.992188 19.808594 12.851562 20.164062 12.707031 20.496094 C 12.289062 21.453125 11.761719 22.324219 11.25 23.164062 C 10.710938 23.945312 10.253906 24.710938 9.664062 25.417969 C 9.550781 25.539062 9.375 25.644531 9.265625 25.761719 C 9.210938 25.820312 9.171875 25.914062 9.132812 25.964844 C 9.113281 25.992188 9.082031 26.003906 9.066406 26.035156 C 9.050781 26.066406 9.0625 26.082031 9.066406 26.171875 C 9.0625 26.195312 9.0625 26.21875 9.066406 26.238281 C 9.082031 26.265625 9.105469 26.289062 9.132812 26.308594 C 9.148438 26.335938 9.171875 26.359375 9.199219 26.375 C 9.222656 26.378906 9.242188 26.378906 9.265625 26.375 C 9.382812 26.394531 9.480469 26.34375 9.597656 26.308594 C 9.710938 26.269531 9.789062 26.238281 9.925781 26.171875 C 10.203125 26.039062 10.554688 25.886719 10.851562 25.691406 C 11.28125 25.414062 11.597656 25.128906 11.847656 24.941406 C 12.28125 24.613281 13.261719 23.667969 13.765625 23.027344 C 14.339844 22.347656 14.953125 21.621094 15.417969 20.699219 C 15.425781 20.683594 15.410156 20.648438 15.417969 20.632812 C 15.449219 20.578125 15.632812 20.214844 15.683594 20.085938 C 15.78125 19.828125 15.847656 19.574219 15.882812 19.46875 L 17.335938 14.886719 L 22.433594 13.65625 C 22.304688 14.761719 22.164062 15.832031 22.035156 16.941406 C 21.9375 17.851562 21.871094 18.21875 21.769531 19.195312 C 21.765625 19.226562 21.773438 19.234375 21.769531 19.265625 C 21.714844 19.566406 21.550781 20.410156 21.503906 20.632812 C 21.167969 22.332031 20.804688 23.871094 20.050781 25.214844 C 19.871094 25.476562 19.660156 25.75 19.453125 25.964844 C 19.246094 25.863281 18.953125 25.714844 18.527344 25.691406 C 18.519531 25.691406 18.484375 25.695312 18.460938 25.691406 C 18.441406 25.6875 18.417969 25.6875 18.394531 25.691406 C 18.394531 25.691406 18.332031 25.761719 18.328125 25.761719 C 18.304688 25.777344 18.28125 25.800781 18.265625 25.828125 C 18.234375 25.984375 18.285156 26.105469 18.328125 26.238281 C 18.375 26.375 18.410156 26.527344 18.460938 26.648438 C 18.84375 27.546875 19.292969 28.316406 19.71875 29.113281 C 19.734375 29.140625 19.757812 29.164062 19.785156 29.179688 C 19.800781 29.207031 19.824219 29.230469 19.851562 29.25 C 19.875 29.253906 19.894531 29.253906 19.917969 29.25 C 19.941406 29.253906 19.960938 29.253906 19.984375 29.25 C 20.011719 29.230469 20.035156 29.207031 20.050781 29.179688 C 20.6875 28.558594 21.433594 27.554688 21.96875 26.71875 C 23.023438 25.082031 23.917969 23.253906 24.550781 21.179688 C 24.644531 20.855469 24.71875 20.53125 24.8125 20.152344 L 26.796875 12.289062 C 26.882812 11.941406 26.980469 11.554688 26.996094 11.265625 C 27 11.242188 27 11.21875 26.996094 11.195312 C 26.957031 11.09375 26.867188 11.042969 26.796875 10.992188 C 26.730469 10.941406 26.6875 10.898438 26.601562 10.855469 C 26.429688 10.761719 26.207031 10.65625 26.007812 10.578125 C 25.054688 10.246094 24.019531 9.949219 22.898438 9.6875 C 22.777344 9.636719 22.695312 9.613281 22.566406 9.621094 C 22.4375 9.628906 22.246094 9.660156 22.101562 9.6875 C 21.816406 9.746094 21.519531 9.847656 21.308594 9.894531 L 18.660156 10.507812 C 18.773438 10.144531 18.957031 9.609375 18.792969 8.9375 C 18.566406 8.171875 17.984375 7.726562 17.339844 7.5 C 16.789062 7.308594 16.25 7.136719 15.683594 6.953125 C 15.59375 6.925781 15.175781 6.773438 14.757812 6.75 Z M 14.757812 6.75 "/>
</g>
</svg>
