<?xml version="1.0" encoding="UTF-8"?>
<svg xmlns="http://www.w3.org/2000/svg" xmlns:xlink="http://www.w3.org/1999/xlink" width="36pt" height="36pt" viewBox="0 0 36 36" version="1.1">
<g id="surface1">
<path style=" stroke:none;fill-rule:evenodd;fill:rgb(94.901961%,67.843137%,9.803922%);fill-opacity:1;" d="M 8.40625 2.136719 L 27.59375 2.136719 C 31.054688 2.136719 33.863281 4.945312 33.863281 8.40625 L 33.863281 27.59375 C 33.863281 31.054688 31.054688 33.863281 27.59375 33.863281 L 8.40625 33.863281 C 4.945312 33.863281 2.136719 31.054688 2.136719 27.59375 L 2.136719 8.40625 C 2.136719 4.945312 4.945312 2.136719 8.40625 2.136719 Z M 8.40625 2.136719 "/>
<path style=" stroke:none;fill-rule:nonzero;fill:rgb(100%,87.058824%,74.509804%);fill-opacity:1;" d="M 5.0625 7.875 L 9.5625 7.875 L 9.5625 28.125 L 5.0625 28.125 Z M 5.0625 7.875 "/>
<path style="fill:none;stroke-width:4;stroke-linecap:butt;stroke-linejoin:miter;stroke:rgb(100%,87.058824%,74.509804%);stroke-opacity:1;stroke-miterlimit:4;" d="M 7 8.999187 C 14 8.999187 14 8.999187 14 24.999187 " transform="matrix(1.125,0,0,1.125,-0.5625,0.000914811)"/>
<path style=" stroke:none;fill-rule:nonzero;fill:rgb(100%,87.058824%,74.509804%);fill-opacity:1;" d="M 21.9375 14.625 L 21.9375 19.125 L 17.4375 19.125 L 17.4375 23.625 L 21.9375 23.625 L 21.9375 28.125 L 26.4375 28.125 L 26.4375 23.625 L 30.9375 23.625 L 30.9375 19.125 L 26.4375 19.125 L 26.4375 14.625 Z M 21.9375 14.625 "/>
</g>
</svg>
