<?xml version="1.0" encoding="UTF-8"?>
<svg xmlns="http://www.w3.org/2000/svg" xmlns:xlink="http://www.w3.org/1999/xlink" width="36pt" height="36pt" viewBox="0 0 36 36" version="1.1">
<g id="surface1">
<path style=" stroke:none;fill-rule:evenodd;fill:rgb(80%,80%,80%);fill-opacity:1;" d="M 8.40625 2.136719 L 27.59375 2.136719 C 31.054688 2.136719 33.863281 4.945312 33.863281 8.40625 L 33.863281 27.59375 C 33.863281 31.054688 31.054688 33.863281 27.59375 33.863281 L 8.40625 33.863281 C 4.945312 33.863281 2.136719 31.054688 2.136719 27.59375 L 2.136719 8.40625 C 2.136719 4.945312 4.945312 2.136719 8.40625 2.136719 Z M 8.40625 2.136719 "/>
<path style=" stroke:none;fill-rule:nonzero;fill:rgb(29.019608%,38.039216%,80%);fill-opacity:1;" d="M 5.597656 11.351562 C 5.113281 11.359375 4.671875 11.628906 4.449219 12.058594 C 4.222656 12.488281 4.25 13.003906 4.519531 13.40625 C 4.789062 13.808594 5.253906 14.035156 5.738281 13.992188 C 9.996094 13.761719 11.921875 15.257812 13.527344 17.316406 C 15.128906 19.371094 16.09375 22.109375 18.125 24.003906 C 19.761719 25.527344 22.117188 26.46875 24.414062 27.121094 C 26.714844 27.777344 28.90625 28.105469 30.363281 28.105469 C 30.839844 28.109375 31.28125 27.859375 31.523438 27.449219 C 31.761719 27.035156 31.761719 26.527344 31.523438 26.113281 C 31.28125 25.703125 30.839844 25.449219 30.363281 25.457031 C 29.347656 25.457031 27.21875 25.167969 25.140625 24.578125 C 23.0625 23.984375 20.984375 23.054688 19.929688 22.066406 C 18.628906 20.855469 17.542969 18.160156 15.613281 15.6875 C 13.6875 13.214844 10.597656 11.082031 5.597656 11.351562 Z M 5.597656 11.351562 "/>
<path style=" stroke:none;fill-rule:nonzero;fill:rgb(90.980392%,26.27451%,26.27451%);fill-opacity:1;" d="M 22.074219 7.914062 C 20.765625 7.777344 19.765625 8.46875 19.164062 9.046875 C 18.863281 9.335938 18.636719 9.617188 18.480469 9.832031 C 18.402344 9.941406 18.339844 10.035156 18.292969 10.109375 C 18.285156 10.121094 18.28125 10.132812 18.273438 10.144531 L 17.402344 11.234375 C 17.148438 11.542969 17.046875 11.945312 17.125 12.335938 C 17.207031 12.726562 17.457031 13.0625 17.808594 13.246094 C 17.640625 13.480469 17.46875 13.707031 17.378906 14.101562 C 16.988281 15.800781 17.785156 17.308594 18.753906 18.339844 C 19.453125 19.089844 20.308594 19.441406 21.089844 19.722656 C 21.480469 19.863281 21.851562 19.972656 22.175781 20.046875 C 22.5 20.121094 22.664062 20.191406 23.144531 20.15625 C 24.546875 20.054688 25.667969 19.621094 26.480469 18.957031 C 27.296875 18.292969 27.769531 17.464844 28.128906 16.730469 C 28.859375 15.222656 28.414062 13.730469 28.078125 12.660156 C 28.070312 12.636719 28.0625 12.609375 28.054688 12.585938 C 26.957031 9.703125 24.316406 8.175781 22.089844 7.917969 C 22.085938 7.914062 22.078125 7.914062 22.074219 7.914062 Z M 21.796875 10.550781 C 22.957031 10.691406 24.875 11.753906 25.558594 13.488281 C 25.828125 14.375 25.914062 15.230469 25.75 15.570312 C 25.453125 16.175781 25.179688 16.605469 24.8125 16.90625 C 24.445312 17.203125 23.945312 17.445312 22.949219 17.519531 C 23.226562 17.5 22.976562 17.515625 22.769531 17.464844 C 22.558594 17.417969 22.277344 17.335938 21.988281 17.234375 C 21.414062 17.027344 20.808594 16.664062 20.683594 16.53125 C 20.1875 16 19.867188 15.085938 19.957031 14.695312 C 19.875 15.050781 20.042969 14.640625 20.328125 14.414062 C 20.613281 14.1875 20.890625 14.019531 20.890625 14.019531 C 21.371094 13.746094 21.628906 13.207031 21.542969 12.660156 C 21.453125 12.117188 21.039062 11.6875 20.5 11.574219 C 20.535156 11.519531 20.5625 11.460938 20.589844 11.398438 C 20.585938 11.410156 20.578125 11.425781 20.578125 11.429688 C 20.554688 11.480469 20.546875 11.492188 20.542969 11.503906 C 20.535156 11.515625 20.535156 11.515625 20.535156 11.519531 C 20.550781 11.492188 20.582031 11.445312 20.625 11.386719 C 20.710938 11.265625 20.84375 11.101562 20.996094 10.957031 C 21.296875 10.667969 21.585938 10.53125 21.796875 10.550781 Z M 20.6875 10.941406 C 20.6875 10.941406 20.691406 10.941406 20.691406 10.941406 C 20.691406 10.941406 20.691406 10.957031 20.6875 10.957031 C 20.6875 10.953125 20.6875 10.945312 20.6875 10.941406 Z M 20.636719 11.265625 C 20.636719 11.269531 20.632812 11.277344 20.632812 11.277344 C 20.632812 11.277344 20.625 11.308594 20.617188 11.324219 C 20.625 11.304688 20.628906 11.285156 20.636719 11.265625 Z M 20.636719 11.265625 "/>
</g>
</svg>
