<?xml version="1.0" encoding="UTF-8"?>
<svg xmlns="http://www.w3.org/2000/svg" xmlns:xlink="http://www.w3.org/1999/xlink" width="36pt" height="36pt" viewBox="0 0 36 36" version="1.1">
<defs>
<clipPath id="clip1">
  <rect width="36" height="36"/>
</clipPath>
<g id="surface6" clip-path="url(#clip1)">
<path style=" stroke:none;fill-rule:nonzero;fill:rgb(95.294118%,25.882353%,20.784314%);fill-opacity:1;" d="M 31.625 25.339844 C 31.625 29.066406 28.601562 32.089844 24.875 32.089844 C 21.148438 32.089844 18.125 29.066406 18.125 25.339844 C 18.125 21.609375 21.148438 18.589844 24.875 18.589844 C 28.601562 18.589844 31.625 21.609375 31.625 25.339844 Z M 31.625 25.339844 "/>
</g>
</defs>
<g id="surface1">
<path style=" stroke:none;fill-rule:evenodd;fill:rgb(50.588235%,83.529412%,27.843137%);fill-opacity:1;" d="M 8.40625 2.136719 L 27.59375 2.136719 C 31.054688 2.136719 33.863281 4.945312 33.863281 8.40625 L 33.863281 27.59375 C 33.863281 31.054688 31.054688 33.863281 27.59375 33.863281 L 8.40625 33.863281 C 4.945312 33.863281 2.136719 31.054688 2.136719 27.59375 L 2.136719 8.40625 C 2.136719 4.945312 4.945312 2.136719 8.40625 2.136719 Z M 8.40625 2.136719 "/>
<path style=" stroke:none;fill-rule:nonzero;fill:rgb(99.607843%,100%,36.862745%);fill-opacity:1;" d="M 18 6.75 C 11.785156 6.75 6.75 11.785156 6.75 18 C 6.757812 23.773438 11.132812 28.605469 16.875 29.183594 L 16.875 29.25 L 18 29.25 C 24.214844 29.25 29.25 24.214844 29.25 18 C 29.25 11.785156 24.214844 6.75 18 6.75 Z M 19.125 9.078125 C 19.40625 9.113281 19.6875 9.164062 19.964844 9.226562 C 20.132812 9.511719 20.855469 10.792969 21.527344 12.734375 C 20.820312 12.816406 20.015625 12.878906 19.125 12.910156 Z M 16.875 9.082031 L 16.875 12.910156 C 15.984375 12.878906 15.179688 12.816406 14.472656 12.734375 C 15.144531 10.796875 15.863281 9.515625 16.035156 9.230469 C 16.3125 9.167969 16.59375 9.117188 16.875 9.082031 Z M 23.152344 10.625 C 23.757812 11.050781 24.304688 11.546875 24.789062 12.105469 C 24.535156 12.179688 24.199219 12.265625 23.796875 12.359375 C 23.59375 11.71875 23.371094 11.152344 23.152344 10.625 Z M 12.839844 10.636719 C 12.625 11.160156 12.40625 11.726562 12.203125 12.359375 C 11.796875 12.265625 11.457031 12.179688 11.207031 12.105469 C 11.6875 11.550781 12.238281 11.058594 12.839844 10.636719 Z M 9.921875 14.054688 C 10.132812 14.128906 10.679688 14.300781 11.640625 14.519531 C 11.449219 15.445312 11.304688 16.980469 11.265625 18 L 9.027344 18 C 9.101562 16.824219 9.40625 15.113281 9.921875 14.054688 Z M 26.082031 14.054688 C 26.601562 15.113281 26.90625 16.824219 26.980469 18 L 24.730469 18 C 24.695312 16.980469 24.550781 15.445312 24.359375 14.519531 C 25.324219 14.300781 25.871094 14.128906 26.082031 14.054688 Z M 13.863281 14.914062 C 14.742188 15.03125 15.75 15.117188 16.875 15.15625 L 16.875 18 L 13.515625 18 C 13.554688 17.128906 13.6875 15.722656 13.863281 14.914062 Z M 22.136719 14.914062 C 22.3125 15.722656 22.445312 17.128906 22.484375 18 L 19.125 18 L 19.125 15.15625 C 20.25 15.117188 21.257812 15.03125 22.136719 14.914062 Z M 9.167969 20.25 L 11.347656 20.25 C 11.464844 21.363281 11.695312 21.839844 11.96875 22.808594 C 11.472656 22.960938 11.050781 23.113281 10.703125 23.25 C 9.9375 22.1875 9.414062 21.535156 9.167969 20.25 Z M 13.613281 20.25 L 16.875 20.25 L 16.875 21.984375 C 15.882812 22.035156 14.972656 22.132812 14.167969 22.28125 C 13.933594 21.464844 13.726562 21.164062 13.613281 20.25 Z M 19.125 20.25 L 22.386719 20.25 C 22.273438 21.164062 22.066406 21.464844 21.832031 22.28125 C 21.027344 22.132812 20.117188 22.035156 19.125 21.984375 Z M 24.652344 20.25 L 26.835938 20.25 C 26.589844 21.535156 26.0625 22.1875 25.300781 23.25 C 24.953125 23.113281 24.527344 22.960938 24.03125 22.808594 C 24.304688 21.839844 24.535156 21.363281 24.652344 20.25 Z M 16.875 24.230469 L 16.875 26.921875 C 16.59375 26.886719 16.3125 26.835938 16.035156 26.773438 C 15.902344 26.550781 15.449219 25.75 14.902344 24.417969 C 15.492188 24.328125 16.164062 24.269531 16.875 24.230469 Z M 19.125 24.230469 C 19.835938 24.269531 20.507812 24.328125 21.097656 24.417969 C 20.550781 25.75 20.101562 26.546875 19.964844 26.769531 C 19.6875 26.832031 19.40625 26.882812 19.125 26.917969 Z M 12.664062 24.917969 C 12.726562 25.078125 12.785156 25.226562 12.847656 25.375 C 12.683594 25.261719 12.527344 25.140625 12.371094 25.011719 C 12.46875 24.980469 12.558594 24.949219 12.664062 24.917969 Z M 23.335938 24.917969 C 23.441406 24.953125 23.539062 24.984375 23.636719 25.015625 C 23.480469 25.136719 23.320312 25.253906 23.160156 25.363281 C 23.21875 25.21875 23.273438 25.074219 23.335938 24.917969 Z M 23.335938 24.917969 "/>
<use xlink:href="#surface6"/>
<path style=" stroke:none;fill-rule:nonzero;fill:rgb(100%,100%,100%);fill-opacity:1;" d="M 24.03125 22.808594 L 25.71875 22.808594 L 25.71875 29.558594 L 24.03125 29.558594 Z M 24.03125 22.808594 "/>
<path style=" stroke:none;fill-rule:nonzero;fill:rgb(100%,100%,100%);fill-opacity:1;" d="M 24.03125 20.277344 L 25.71875 20.277344 L 25.71875 21.964844 L 24.03125 21.964844 Z M 24.03125 20.277344 "/>
</g>
</svg>
