<?xml version="1.0" encoding="UTF-8"?>
<svg xmlns="http://www.w3.org/2000/svg" xmlns:xlink="http://www.w3.org/1999/xlink" width="36pt" height="36pt" viewBox="0 0 36 36" version="1.1">
<g id="surface1">
<path style=" stroke:none;fill-rule:evenodd;fill:rgb(80%,80%,80%);fill-opacity:1;" d="M 8.40625 2.136719 L 27.59375 2.136719 C 31.054688 2.136719 33.863281 4.945312 33.863281 8.40625 L 33.863281 27.59375 C 33.863281 31.054688 31.054688 33.863281 27.59375 33.863281 L 8.40625 33.863281 C 4.945312 33.863281 2.136719 31.054688 2.136719 27.59375 L 2.136719 8.40625 C 2.136719 4.945312 4.945312 2.136719 8.40625 2.136719 Z M 8.40625 2.136719 "/>
<path style=" stroke:none;fill-rule:nonzero;fill:rgb(23.529412%,54.901961%,97.254902%);fill-opacity:1;" d="M 18.5625 5.625 C 11.726562 5.625 6.1875 11.164062 6.1875 18 C 6.1875 24.835938 11.726562 30.375 18.5625 30.375 C 25.398438 30.375 30.9375 24.835938 30.9375 18 C 30.9375 11.164062 25.398438 5.625 18.5625 5.625 Z M 19.96875 8.4375 C 25.09375 8.4375 29.25 12.59375 29.25 17.71875 C 29.25 22.84375 25.09375 27 19.96875 27 C 14.84375 27 10.6875 22.84375 10.6875 17.71875 C 10.6875 12.59375 14.84375 8.4375 19.96875 8.4375 Z M 19.96875 8.4375 "/>
<path style=" stroke:none;fill-rule:nonzero;fill:rgb(98.823529%,57.254902%,30.196078%);fill-opacity:1;" d="M 6.863281 13.5 L 12.261719 13.5 C 13.257812 13.5 14.0625 14.304688 14.0625 15.300781 L 14.0625 20.699219 C 14.0625 21.695312 13.257812 22.5 12.261719 22.5 L 6.863281 22.5 C 5.867188 22.5 5.0625 21.695312 5.0625 20.699219 L 5.0625 15.300781 C 5.0625 14.304688 5.867188 13.5 6.863281 13.5 Z M 6.863281 13.5 "/>
<path style=" stroke:none;fill-rule:nonzero;fill:rgb(98.823529%,57.254902%,30.196078%);fill-opacity:1;" d="M 26.4375 20.25 L 29.8125 20.25 C 30.433594 20.25 30.9375 20.753906 30.9375 21.375 L 30.9375 24.75 C 30.9375 25.371094 30.433594 25.875 29.8125 25.875 L 26.4375 25.875 C 25.816406 25.875 25.3125 25.371094 25.3125 24.75 L 25.3125 21.375 C 25.3125 20.753906 25.816406 20.25 26.4375 20.25 Z M 26.4375 20.25 "/>
<path style=" stroke:none;fill-rule:nonzero;fill:rgb(98.823529%,57.254902%,30.196078%);fill-opacity:1;" d="M 23.960938 6.75 L 26.664062 6.75 C 27.160156 6.75 27.5625 7.152344 27.5625 7.648438 L 27.5625 10.351562 C 27.5625 10.847656 27.160156 11.25 26.664062 11.25 L 23.960938 11.25 C 23.464844 11.25 23.0625 10.847656 23.0625 10.351562 L 23.0625 7.648438 C 23.0625 7.152344 23.464844 6.75 23.960938 6.75 Z M 23.960938 6.75 "/>
</g>
</svg>
