<?xml version="1.0" encoding="UTF-8"?>
<svg xmlns="http://www.w3.org/2000/svg" xmlns:xlink="http://www.w3.org/1999/xlink" width="36pt" height="36pt" viewBox="0 0 36 36" version="1.1">
<g id="surface1">
<path style=" stroke:none;fill-rule:evenodd;fill:rgb(92.54902%,92.54902%,92.54902%);fill-opacity:1;" d="M 16.539062 2.136719 C 16.496094 2.222656 16.457031 2.308594 16.414062 2.394531 C 16.183594 2.917969 15.96875 3.449219 15.773438 3.980469 C 15.578125 4.511719 15.402344 5.042969 15.246094 5.578125 C 15.089844 6.109375 14.953125 6.640625 14.839844 7.167969 C 14.722656 7.699219 14.625 8.222656 14.550781 8.742188 C 14.480469 9.261719 14.425781 9.777344 14.394531 10.28125 C 14.363281 10.785156 14.351562 11.28125 14.359375 11.769531 C 14.371094 12.253906 14.40625 12.730469 14.457031 13.191406 C 14.511719 13.652344 14.585938 14.101562 14.679688 14.53125 C 14.773438 14.964844 14.890625 15.382812 15.027344 15.78125 C 15.164062 16.179688 15.320312 16.5625 15.496094 16.921875 C 15.671875 17.285156 15.867188 17.625 16.078125 17.945312 C 16.292969 18.269531 16.527344 18.570312 16.777344 18.847656 C 17.027344 19.121094 17.292969 19.375 17.574219 19.605469 C 17.859375 19.835938 18.15625 20.042969 18.46875 20.222656 C 18.691406 20.351562 18.921875 20.46875 19.15625 20.570312 C 19.488281 20.714844 19.835938 20.835938 20.191406 20.925781 C 20.550781 21.019531 20.921875 21.085938 21.300781 21.125 C 21.679688 21.167969 22.066406 21.179688 22.464844 21.167969 C 22.863281 21.15625 23.265625 21.117188 23.679688 21.050781 C 24.089844 20.984375 24.503906 20.890625 24.921875 20.773438 C 25.34375 20.65625 25.769531 20.511719 26.195312 20.339844 C 26.617188 20.171875 27.046875 19.976562 27.472656 19.753906 C 27.898438 19.535156 28.324219 19.292969 28.746094 19.023438 C 29.171875 18.757812 29.589844 18.46875 30.007812 18.15625 C 30.421875 17.84375 30.832031 17.511719 31.238281 17.160156 C 31.640625 16.804688 32.039062 16.429688 32.425781 16.039062 C 32.816406 15.648438 33.195312 15.238281 33.566406 14.8125 C 33.664062 14.691406 33.765625 14.570312 33.863281 14.445312 L 33.863281 8.40625 C 33.863281 4.933594 31.066406 2.136719 27.59375 2.136719 Z M 16.539062 2.136719 "/>
<path style=" stroke:none;fill-rule:evenodd;fill:rgb(92.54902%,92.54902%,92.54902%);fill-opacity:1;" d="M 12.9375 33.863281 C 13.078125 33.671875 13.28125 33.484375 13.394531 33.289062 C 13.746094 32.699219 13.972656 32.105469 14.058594 31.527344 C 14.148438 30.929688 14.136719 30.746094 13.945312 30.101562 C 13.71875 29.335938 13.308594 28.6875 12.730469 28.171875 C 12.152344 27.660156 11.410156 27.28125 10.519531 27.058594 C 9.597656 26.828125 8.640625 26.722656 7.519531 26.742188 C 6.398438 26.761719 5.117188 26.910156 3.554688 27.183594 C 3.242188 27.238281 2.613281 27.503906 2.140625 27.625 C 2.160156 31.085938 4.945312 33.863281 8.40625 33.863281 Z M 12.9375 33.863281 "/>
<path style=" stroke:none;fill-rule:evenodd;fill:rgb(92.54902%,92.54902%,92.54902%);fill-opacity:1;" d="M 32.117188 31.90625 C 31.675781 31.953125 31.171875 32.121094 30.769531 32.125 C 28.878906 32.160156 27.183594 31.898438 25.789062 31.382812 C 25.09375 31.125 24.46875 30.804688 23.9375 30.421875 C 23.402344 30.042969 22.957031 29.605469 22.613281 29.113281 C 22.382812 28.78125 22.152344 28.367188 22.105469 28.199219 C 22.035156 27.949219 21.9375 27.855469 21.609375 27.71875 C 20.671875 27.332031 19.792969 27.296875 18.519531 27.589844 C 17.347656 27.859375 16.554688 28.21875 15.894531 28.78125 C 15.195312 29.371094 14.898438 29.84375 15 30.199219 C 15.125 30.652344 15.0625 31.71875 14.867188 32.371094 C 14.71875 32.871094 14.433594 33.367188 14.140625 33.863281 L 27.59375 33.863281 C 29.386719 33.863281 30.976562 33.101562 32.117188 31.90625 Z M 32.117188 31.90625 "/>
<path style=" stroke:none;fill-rule:evenodd;fill:rgb(92.54902%,92.54902%,92.54902%);fill-opacity:1;" d="M 32.125 19.183594 C 32.691406 19.011719 33.035156 18.800781 33.78125 18.609375 C 33.816406 18.601562 33.832031 18.601562 33.863281 18.59375 L 33.863281 17.660156 C 33.742188 17.78125 33.621094 17.898438 33.5 18.015625 C 33.046875 18.425781 32.589844 18.8125 32.125 19.183594 Z M 32.125 19.183594 "/>
<path style=" stroke:none;fill-rule:evenodd;fill:rgb(92.54902%,92.54902%,92.54902%);fill-opacity:1;" d="M 24.316406 23.261719 C 24.152344 23.433594 23.910156 23.597656 23.773438 23.777344 C 23.328125 24.371094 23.035156 24.988281 22.894531 25.621094 C 22.757812 26.253906 22.773438 26.902344 22.953125 27.5625 C 23.09375 28.082031 23.289062 28.496094 23.597656 28.859375 C 23.90625 29.226562 24.324219 29.542969 24.90625 29.875 C 25.675781 30.3125 26.574219 30.636719 27.566406 30.84375 C 28.554688 31.046875 29.628906 31.136719 30.742188 31.109375 C 31.421875 31.09375 32.128906 30.953125 32.824219 30.851562 C 33.425781 29.890625 33.863281 28.816406 33.863281 27.59375 L 33.863281 18.59375 C 33.832031 18.601562 33.816406 18.601562 33.78125 18.609375 C 33.035156 18.800781 32.691406 19.011719 32.125 19.183594 C 32.050781 19.246094 31.976562 19.308594 31.898438 19.375 C 31.359375 19.796875 30.8125 20.191406 30.261719 20.558594 C 29.707031 20.925781 29.152344 21.265625 28.59375 21.570312 C 28.035156 21.875 27.476562 22.152344 26.917969 22.390625 C 26.359375 22.632812 25.804688 22.84375 25.25 23.019531 C 24.9375 23.109375 24.625 23.191406 24.316406 23.261719 Z M 24.316406 23.261719 "/>
<path style=" stroke:none;fill-rule:evenodd;fill:rgb(92.54902%,92.54902%,92.54902%);fill-opacity:1;" d="M 22.511719 23.589844 C 22.015625 24.140625 21.683594 24.515625 20.84375 24.96875 C 19.917969 25.46875 18.828125 25.898438 17.707031 26.214844 C 16.585938 26.527344 15.4375 26.730469 14.390625 26.785156 C 13.171875 26.851562 12.847656 26.804688 11.695312 26.40625 C 10.457031 25.976562 9.269531 25.753906 7.875 25.738281 C 6.480469 25.722656 4.882812 25.910156 2.824219 26.300781 C 2.648438 26.332031 2.335938 26.464844 2.136719 26.511719 L 2.136719 27.59375 C 2.136719 27.605469 2.140625 27.613281 2.140625 27.625 C 2.613281 27.503906 3.242188 27.238281 3.554688 27.183594 C 5.117188 26.910156 6.398438 26.761719 7.519531 26.742188 C 8.640625 26.722656 9.597656 26.828125 10.519531 27.058594 C 11.410156 27.28125 12.152344 27.660156 12.730469 28.171875 C 13.308594 28.6875 13.71875 29.335938 13.945312 30.101562 C 14.136719 30.746094 14.148438 30.929688 14.058594 31.527344 C 13.972656 32.105469 13.746094 32.699219 13.394531 33.289062 C 13.28125 33.484375 13.078125 33.671875 12.9375 33.863281 L 14.140625 33.863281 C 14.433594 33.367188 14.71875 32.871094 14.867188 32.371094 C 15.0625 31.71875 15.125 30.652344 15 30.199219 C 14.898438 29.84375 15.195312 29.371094 15.894531 28.78125 C 16.554688 28.21875 17.347656 27.859375 18.519531 27.589844 C 19.792969 27.296875 20.671875 27.332031 21.609375 27.71875 C 21.9375 27.855469 22.035156 27.949219 22.105469 28.199219 C 22.152344 28.367188 22.382812 28.78125 22.613281 29.113281 C 22.957031 29.605469 23.402344 30.042969 23.9375 30.421875 C 24.46875 30.804688 25.09375 31.125 25.789062 31.382812 C 27.183594 31.898438 28.878906 32.160156 30.769531 32.125 C 31.171875 32.121094 31.675781 31.953125 32.117188 31.90625 C 32.40625 31.597656 32.597656 31.214844 32.824219 30.851562 C 32.128906 30.953125 31.421875 31.09375 30.742188 31.109375 C 29.628906 31.136719 28.554688 31.046875 27.566406 30.84375 C 26.574219 30.636719 25.675781 30.3125 24.90625 29.875 C 24.324219 29.542969 23.90625 29.226562 23.597656 28.859375 C 23.289062 28.496094 23.09375 28.082031 22.953125 27.5625 C 22.773438 26.902344 22.757812 26.253906 22.894531 25.621094 C 23.035156 24.988281 23.328125 24.371094 23.773438 23.777344 C 23.910156 23.597656 24.152344 23.433594 24.316406 23.261719 C 24.078125 23.328125 23.84375 23.386719 23.605469 23.441406 C 23.238281 23.507812 22.871094 23.558594 22.511719 23.589844 Z M 22.511719 23.589844 "/>
<path style=" stroke:none;fill-rule:evenodd;fill:rgb(92.54902%,92.54902%,92.54902%);fill-opacity:1;" d="M 8.40625 2.136719 C 4.933594 2.136719 2.136719 4.933594 2.136719 8.40625 L 2.136719 26.511719 C 2.335938 26.464844 2.648438 26.332031 2.824219 26.300781 C 4.882812 25.910156 6.480469 25.722656 7.875 25.738281 C 9.269531 25.753906 10.457031 25.976562 11.695312 26.40625 C 12.847656 26.804688 13.171875 26.851562 14.390625 26.785156 C 15.4375 26.730469 16.585938 26.527344 17.707031 26.214844 C 18.828125 25.898438 19.917969 25.46875 20.84375 24.96875 C 21.683594 24.515625 22.015625 24.140625 22.511719 23.589844 C 22.339844 23.617188 22.171875 23.640625 22.003906 23.65625 C 21.476562 23.695312 20.960938 23.699219 20.457031 23.667969 C 19.953125 23.632812 19.460938 23.566406 18.984375 23.464844 C 18.507812 23.363281 18.042969 23.226562 17.597656 23.054688 C 17.152344 22.886719 16.722656 22.683594 16.3125 22.445312 C 16.019531 22.277344 15.738281 22.09375 15.46875 21.894531 C 15.085938 21.609375 14.726562 21.296875 14.386719 20.949219 C 14.042969 20.605469 13.726562 20.230469 13.433594 19.824219 C 13.136719 19.421875 12.867188 18.988281 12.625 18.53125 C 12.378906 18.070312 12.15625 17.585938 11.964844 17.078125 C 11.769531 16.566406 11.601562 16.035156 11.464844 15.480469 C 11.324219 14.925781 11.207031 14.351562 11.121094 13.757812 C 11.035156 13.164062 10.980469 12.550781 10.949219 11.925781 C 10.917969 11.296875 10.917969 10.65625 10.941406 10 C 10.96875 9.34375 11.023438 8.679688 11.101562 8.003906 C 11.183594 7.324219 11.292969 6.640625 11.429688 5.949219 C 11.5625 5.261719 11.726562 4.566406 11.914062 3.871094 C 12.074219 3.292969 12.253906 2.714844 12.449219 2.136719 Z M 8.40625 2.136719 "/>
<path style=" stroke:none;fill-rule:evenodd;fill:rgb(19.215686%,56.862745%,80.392157%);fill-opacity:1;" d="M 12.449219 2.136719 C 12.253906 2.714844 12.074219 3.292969 11.914062 3.871094 C 11.726562 4.566406 11.5625 5.261719 11.429688 5.949219 C 11.292969 6.640625 11.183594 7.324219 11.101562 8.003906 C 11.023438 8.679688 10.96875 9.34375 10.941406 10 C 10.917969 10.65625 10.917969 11.296875 10.949219 11.925781 C 10.980469 12.550781 11.035156 13.164062 11.121094 13.757812 C 11.207031 14.351562 11.324219 14.925781 11.464844 15.480469 C 11.601562 16.035156 11.769531 16.566406 11.964844 17.078125 C 12.15625 17.585938 12.378906 18.070312 12.625 18.53125 C 12.867188 18.988281 13.136719 19.421875 13.433594 19.824219 C 13.726562 20.230469 14.042969 20.605469 14.386719 20.949219 C 14.726562 21.296875 15.085938 21.609375 15.46875 21.894531 C 15.738281 22.09375 16.019531 22.277344 16.3125 22.445312 C 16.722656 22.683594 17.152344 22.886719 17.597656 23.054688 C 18.042969 23.226562 18.507812 23.363281 18.984375 23.464844 C 19.460938 23.566406 19.953125 23.632812 20.457031 23.667969 C 20.960938 23.699219 21.476562 23.695312 22.003906 23.65625 C 22.53125 23.621094 23.066406 23.550781 23.605469 23.441406 C 24.148438 23.335938 24.699219 23.195312 25.25 23.019531 C 25.804688 22.84375 26.359375 22.632812 26.917969 22.390625 C 27.476562 22.152344 28.035156 21.875 28.59375 21.570312 C 29.152344 21.265625 29.707031 20.925781 30.261719 20.558594 C 30.8125 20.191406 31.359375 19.796875 31.898438 19.375 C 32.441406 18.949219 32.976562 18.496094 33.5 18.019531 C 33.621094 17.898438 33.742188 17.78125 33.863281 17.660156 L 33.863281 14.445312 C 33.765625 14.570312 33.664062 14.691406 33.566406 14.8125 C 33.195312 15.238281 32.816406 15.648438 32.425781 16.039062 C 32.039062 16.429688 31.640625 16.804688 31.238281 17.160156 C 30.832031 17.511719 30.421875 17.84375 30.007812 18.15625 C 29.589844 18.46875 29.171875 18.757812 28.746094 19.023438 C 28.324219 19.292969 27.898438 19.535156 27.472656 19.753906 C 27.046875 19.976562 26.617188 20.171875 26.195312 20.339844 C 25.769531 20.511719 25.34375 20.65625 24.921875 20.773438 C 24.503906 20.890625 24.089844 20.984375 23.679688 21.050781 C 23.265625 21.117188 22.863281 21.15625 22.464844 21.167969 C 22.066406 21.179688 21.679688 21.167969 21.300781 21.125 C 20.921875 21.085938 20.550781 21.019531 20.191406 20.925781 C 19.835938 20.835938 19.488281 20.714844 19.15625 20.570312 C 18.921875 20.46875 18.691406 20.351562 18.46875 20.222656 C 18.15625 20.042969 17.859375 19.835938 17.574219 19.605469 C 17.292969 19.375 17.027344 19.121094 16.777344 18.847656 C 16.527344 18.570312 16.292969 18.269531 16.078125 17.949219 C 15.867188 17.625 15.671875 17.285156 15.496094 16.921875 C 15.320312 16.5625 15.164062 16.179688 15.027344 15.78125 C 14.890625 15.382812 14.773438 14.964844 14.679688 14.53125 C 14.585938 14.101562 14.511719 13.652344 14.457031 13.191406 C 14.40625 12.730469 14.371094 12.253906 14.359375 11.769531 C 14.351562 11.28125 14.363281 10.785156 14.394531 10.28125 C 14.425781 9.777344 14.480469 9.261719 14.550781 8.742188 C 14.625 8.222656 14.722656 7.699219 14.839844 7.167969 C 14.953125 6.640625 15.089844 6.109375 15.246094 5.578125 C 15.402344 5.042969 15.578125 4.511719 15.773438 3.980469 C 15.96875 3.449219 16.183594 2.917969 16.414062 2.394531 C 16.457031 2.308594 16.496094 2.222656 16.539062 2.136719 Z M 12.449219 2.136719 "/>
<path style="fill-rule:nonzero;fill:rgb(40%,40%,40%);fill-opacity:1;stroke-width:0.3;stroke-linecap:butt;stroke-linejoin:miter;stroke:rgb(40%,40%,40%);stroke-opacity:1;stroke-miterlimit:4;" d="M 23.177083 19.111111 C 22.659722 19.097222 22.111111 19.138889 21.430556 19.270833 C 21.243056 19.305556 20.777778 19.423611 20.538194 19.496528 C 19.711806 19.756944 18.607639 20.295139 18.079861 20.694444 L 17.96875 20.777778 C 17.71875 20.979167 17.486111 21.197917 17.347222 21.506944 L 17.298611 21.607639 C 17.253472 21.701389 17.246528 21.708333 17.190972 21.697917 C 17.159722 21.690972 16.934028 21.684028 16.690972 21.684028 C 16.284722 21.684028 16.229167 21.690972 16.010417 21.736111 C 15.447917 21.857639 14.920139 22.090278 14.444444 22.427083 L 14.305556 22.527778 L 14.211806 22.454861 C 14.083333 22.357639 13.725694 22.184028 13.559028 22.135417 C 13.180556 22.027778 12.774306 21.989583 12.190972 22.006944 C 10.677083 22.048611 9.427083 22.354167 8.25 22.961806 C 7.600694 23.298611 6.934028 23.753472 6.583333 24.100694 C 6.357639 24.322917 6.267361 24.489583 6.232639 24.729167 C 6.215278 24.878472 6.211806 24.878472 6.145833 24.902778 C 6.020833 24.947917 5.534722 25.194444 5.444444 25.260417 C 5.364583 25.315972 5.354167 25.329861 5.354167 25.399306 C 5.354167 25.486111 5.395833 25.597222 5.434028 25.621528 C 5.451389 25.631944 5.454861 25.625 5.444444 25.600694 C 5.40625 25.510417 5.392361 25.402778 5.413194 25.364583 C 5.444444 25.305556 5.767361 25.121528 6.027778 25.017361 L 6.25 24.923611 L 6.263889 25.027778 C 6.270833 25.086806 6.295139 25.173611 6.315972 25.21875 C 6.34375 25.28125 6.347222 25.309028 6.329861 25.3125 C 6.315972 25.315972 6.190972 25.361111 6.048611 25.40625 C 5.90625 25.454861 5.739583 25.506944 5.680556 25.524306 C 5.5625 25.555556 5.524306 25.586806 5.517361 25.652778 C 5.513889 25.677083 5.510417 25.708333 5.506944 25.722222 C 5.503472 25.736111 5.534722 25.763889 5.576389 25.788194 C 5.704861 25.857639 5.857639 25.84375 6.131944 25.736111 C 6.260417 25.6875 6.368056 25.65625 6.375 25.663194 C 6.381944 25.670139 6.409722 25.729167 6.434028 25.791667 C 6.552083 26.097222 6.78125 26.489583 6.96875 26.708333 C 7.159722 26.934028 7.454861 27.131944 7.729167 27.222222 L 7.826389 27.253472 L 7.434028 27.638889 C 6.986111 28.086806 6.298611 28.809028 6.298611 28.840278 C 6.298611 28.868056 6.388889 29.045139 6.451389 29.138889 C 6.520833 29.239583 6.645833 29.364583 6.774306 29.465278 C 6.829861 29.510417 6.881944 29.545139 6.888889 29.545139 C 6.895833 29.545139 7.204861 29.246528 7.572917 28.881944 C 7.944444 28.517361 8.440972 28.038194 8.673611 27.822917 L 9.09375 27.427083 L 9.326389 27.427083 C 9.53125 27.423611 9.944444 27.392361 10.215278 27.357639 C 10.475694 27.725694 10.763889 28.277778 10.517361 27.315972 C 10.517361 27.3125 10.607639 27.295139 10.711806 27.270833 C 12.309028 26.947917 13.666667 26.222222 14.413194 25.302083 C 14.690972 24.958333 14.777778 24.722222 14.784722 24.298611 L 14.788194 24.045139 L 14.864583 24.017361 C 14.90625 24.003472 15.097222 23.934028 15.288194 23.861111 C 16.017361 23.59375 16.145833 23.552083 16.479167 23.493056 C 16.913194 23.413194 17.59375 23.298611 17.597222 23.302083 C 17.597222 23.305556 17.625 23.354167 17.652778 23.413194 C 17.795139 23.697917 18.020833 23.944444 18.246528 24.072917 C 18.506944 24.21875 18.954861 24.354167 19.385417 24.427083 C 20.694444 24.642361 22.381944 24.336806 23.798611 23.631944 C 23.909722 23.576389 24.048611 23.503472 24.104167 23.46875 C 24.190972 23.420139 24.21875 23.413194 24.277778 23.423611 C 24.434028 23.451389 25.270833 23.649306 25.284722 23.659722 C 25.430556 23.694444 25.649306 23.763889 25.649306 23.763889 C 25.663194 23.75 25.708333 23.760417 26.503472 23.96875 C 26.864583 24.065972 27.173611 24.138889 27.1875 24.131944 C 27.215278 24.121528 27.295139 23.934028 27.333333 23.784722 C 27.364583 23.673611 27.381944 23.413194 27.368056 23.3125 L 27.354167 23.222222 L 27.069444 23.135417 C 26.760417 23.038194 25.930556 22.802083 25.59375 22.715278 L 25.381944 22.659722 L 25.361111 22.586806 C 25.340278 22.513889 25.34375 22.503472 25.434028 22.375 C 25.545139 22.208333 25.631944 22.017361 25.6875 21.795139 C 25.725694 21.649306 25.729167 21.576389 25.729167 21.215278 C 25.729167 20.951389 25.722222 20.756944 25.704861 20.666667 C 25.690972 20.590278 25.684028 20.520833 25.6875 20.513889 C 25.694444 20.506944 25.802083 20.486111 25.923611 20.465278 C 26.239583 20.416667 26.385417 20.34375 26.461806 20.201389 C 26.496528 20.135417 26.496528 20.128472 26.461806 20.128472 C 26.444444 20.128472 26.430556 20.114583 26.430556 20.100694 C 26.430556 20.086806 26.40625 20.0625 26.375 20.052083 C 26.326389 20.03125 26.291667 20.034722 26.128472 20.076389 C 25.961806 20.118056 25.590278 20.194444 25.538194 20.194444 C 25.527778 20.194444 25.510417 20.145833 25.503472 20.083333 C 25.496528 20.024306 25.475694 19.940972 25.451389 19.899306 L 25.413194 19.826389 L 25.475694 19.815972 C 25.680556 19.777778 25.895833 19.763889 26.121528 19.767361 L 26.381944 19.774306 L 26.416667 19.861111 C 26.434028 19.90625 26.454861 19.961806 26.458333 19.982639 C 26.479167 20.045139 26.493056 19.996528 26.479167 19.909722 C 26.472222 19.857639 26.447917 19.798611 26.420139 19.763889 L 26.371528 19.704861 L 26.15625 19.704861 C 25.951389 19.704861 25.576389 19.732639 25.46875 19.756944 C 25.423611 19.763889 25.409722 19.753472 25.354167 19.670139 C 25.25 19.506944 25.059028 19.375 24.802083 19.284722 C 24.795139 19.28125 24.760417 19.277778 24.75 19.274306 C 24.746528 19.274306 24.739583 19.274306 24.736111 19.274306 C 24.177083 19.194444 23.694444 19.125 23.177083 19.111111 Z M 23.027778 19.159722 C 23.385417 19.159722 23.746528 19.173611 23.940972 19.197917 C 24.524306 19.274306 24.753472 19.326389 24.951389 19.430556 C 25.020833 19.46875 25.0625 19.493056 25.041667 19.489583 C 24.711806 19.392361 24.357639 19.3125 23.96875 19.253472 C 23.583333 19.194444 22.784722 19.173611 22.392361 19.208333 C 21.402778 19.298611 20.479167 19.559028 19.434028 20.052083 C 18.868056 20.34375 18.274306 20.631944 17.763889 21.107639 C 17.59375 21.284722 17.510417 21.409722 17.451389 21.590278 C 17.427083 21.65625 17.402778 21.763889 17.395833 21.829861 L 17.378472 21.951389 L 17.378472 21.840278 C 17.375 21.746528 17.368056 21.725694 17.336806 21.71875 C 17.284722 21.704861 17.284722 21.694444 17.361111 21.545139 C 17.5625 21.149306 17.947917 20.770833 18.461806 20.465278 C 18.628472 20.364583 18.972222 20.184028 19.027778 20.163194 C 19.072917 20.145833 19.072917 20.145833 19.038194 20.173611 C 18.954861 20.239583 19.065972 20.194444 19.395833 20.024306 C 20.236111 19.600694 21.149306 19.322917 22.114583 19.197917 C 22.305556 19.173611 22.666667 19.159722 23.027778 19.159722 Z M 22.815972 19.215278 C 23.069444 19.211806 23.322917 19.215278 23.479167 19.229167 C 23.756944 19.25 24.1875 19.309028 24.173611 19.319444 C 24.170139 19.322917 24.076389 19.315972 23.96875 19.305556 C 22.927083 19.204861 21.930556 19.270833 21.024306 19.506944 C 20.684028 19.59375 20.645833 19.600694 20.815972 19.545139 C 21.159722 19.430556 21.694444 19.3125 22.142361 19.256944 C 22.305556 19.236111 22.5625 19.222222 22.815972 19.215278 Z M 23.347222 19.315972 C 23.503472 19.322917 23.659722 19.336806 23.815972 19.350694 C 23.826389 19.34375 23.836806 19.340278 23.847222 19.333333 C 24.152778 19.368056 24.357639 19.402778 24.520833 19.440972 C 24.541667 19.444444 24.5625 19.444444 24.583333 19.451389 L 24.565972 19.454861 C 24.670139 19.482639 24.767361 19.510417 24.84375 19.548611 C 25.041667 19.649306 25.121528 19.739583 25.243056 20.010417 C 25.315972 20.173611 25.3125 20.173611 25.274306 20.190972 C 25.152778 20.232639 24.552083 20.371528 23.913194 20.5 C 23.104167 20.663194 22.822917 20.729167 22.572917 20.815972 C 22.430556 20.868056 22.243056 20.951389 22.336806 20.923611 C 22.791667 20.788194 24.104167 20.489583 24.788194 20.364583 C 24.881944 20.347222 25.045139 20.3125 25.149306 20.288194 L 25.336806 20.246528 L 25.361111 20.333333 L 25.385417 20.423611 L 25.114583 20.5 C 23.513889 20.965278 22.84375 21.149306 22.399306 21.243056 C 22.034722 21.319444 22.027778 21.315972 22.027778 21.138889 C 22.027778 21.065972 22.034722 21.041667 22.065972 21.024306 C 22.121528 20.996528 22.114583 20.954861 22.041667 20.909722 C 21.996528 20.881944 21.958333 20.875 21.913194 20.881944 C 21.736111 20.90625 19.472222 21.642361 17.989583 22.149306 C 17.743056 22.236111 17.534722 22.305556 17.524306 22.305556 C 17.510417 22.305556 17.5 22.25 17.482639 22.100694 L 17.586806 21.774306 L 17.506944 21.798611 C 17.795139 20.684028 20.475694 19.239583 23.347222 19.315972 Z M 24.236111 19.329861 C 24.25 19.326389 24.267361 19.326389 24.274306 19.333333 C 24.277778 19.340278 24.267361 19.34375 24.246528 19.34375 C 24.225694 19.340278 24.21875 19.336806 24.236111 19.329861 Z M 24.9375 19.496528 C 24.975694 19.496528 25.21875 19.583333 25.243056 19.604167 C 25.260417 19.621528 25.277778 19.663194 25.288194 19.704861 C 25.295139 19.743056 25.371528 19.996528 25.461806 20.267361 C 25.600694 20.694444 25.694444 21.055556 25.670139 21.079861 C 25.666667 21.083333 25.645833 21.090278 25.621528 21.09375 C 25.597222 21.09375 25.5625 21.104167 25.545139 21.111111 C 25.520833 21.121528 25.513889 21.097222 25.503472 20.934028 C 25.472222 20.416667 25.263889 19.826389 25.034722 19.600694 C 24.979167 19.545139 24.934028 19.496528 24.9375 19.496528 Z M 25.315972 19.711806 C 25.319444 19.704861 25.326389 19.711806 25.336806 19.732639 C 25.350694 19.753472 25.354167 19.770833 25.347222 19.777778 C 25.34375 19.78125 25.333333 19.770833 25.329861 19.753472 C 25.319444 19.729167 25.315972 19.715278 25.315972 19.711806 Z M 25.381944 19.916667 C 25.378472 19.899306 25.385417 19.909722 25.399306 19.9375 C 25.416667 19.961806 25.434028 20.017361 25.440972 20.055556 C 25.458333 20.152778 25.444444 20.145833 25.413194 20.045139 C 25.392361 19.972222 25.381944 19.930556 25.381944 19.916667 Z M 26.079861 20.131944 C 26.111111 20.128472 26.121528 20.135417 26.135417 20.149306 C 26.163194 20.177083 26.159722 20.184028 26.114583 20.229167 C 26.083333 20.253472 25.993056 20.298611 25.913194 20.322917 C 25.833333 20.350694 25.743056 20.378472 25.708333 20.385417 C 25.652778 20.395833 25.649306 20.392361 25.628472 20.319444 C 25.607639 20.229167 25.579861 20.246528 25.916667 20.163194 C 26.003472 20.145833 26.052083 20.131944 26.079861 20.131944 Z M 25.53125 20.260417 C 25.576389 20.260417 25.583333 20.274306 25.611111 20.395833 C 25.628472 20.46875 25.65625 20.614583 25.673611 20.722222 C 25.708333 20.940972 25.701389 21.010417 25.666667 20.836806 C 25.645833 20.743056 25.545139 20.420139 25.496528 20.291667 C 25.489583 20.267361 25.496528 20.260417 25.53125 20.260417 Z M 25.388889 20.565972 C 25.434028 20.565972 25.444444 20.621528 25.46875 20.965278 C 25.489583 21.236111 25.46875 21.597222 25.420139 21.788194 C 25.354167 22.027778 25.125 22.399306 25.125 22.399306 C 25.114583 22.416667 25.072917 22.458333 25.034722 22.496528 L 24.961806 22.565972 L 24.625 22.493056 C 23.690972 22.291667 22.541667 22.135417 21.690972 22.09375 C 21.305556 22.076389 21.128472 22.079861 20.642361 22.104167 L 20.479167 22.114583 L 20.923611 21.961806 C 21.9375 21.611111 22.121528 21.538194 22.173611 21.479167 C 22.197917 21.447917 22.222222 21.402778 22.222222 21.378472 C 22.222222 21.350694 22.225694 21.329861 22.236111 21.329861 C 22.350694 21.329861 22.916667 21.201389 23.402778 21.0625 C 24.274306 20.815972 25.270833 20.565972 25.388889 20.565972 Z M 18.142361 20.833333 C 18.128472 20.847222 18.083333 20.892361 18 20.979167 C 17.795139 21.180556 17.652778 21.371528 17.534722 21.607639 C 17.46875 21.743056 17.461806 21.767361 17.454861 21.961806 C 17.447917 22.083333 17.454861 22.21875 17.46875 22.284722 C 17.493056 22.413194 17.670139 22.947917 17.736111 23.097222 C 17.760417 23.145833 17.774306 23.194444 17.770833 23.197917 C 17.756944 23.211806 17.635417 22.916667 17.555556 22.666667 C 17.416667 22.25 17.385417 21.989583 17.440972 21.725694 C 17.510417 21.40625 17.729167 21.111111 18.086806 20.861111 C 18.131944 20.829861 18.152778 20.815972 18.142361 20.833333 Z M 20.010417 20.96875 L 19.864583 21.017361 C 19.913194 21 19.961806 20.986111 20.010417 20.96875 Z M 16.65625 21.694444 L 16.8125 21.694444 L 16.833333 21.753472 C 16.847222 21.788194 16.854167 21.815972 16.850694 21.815972 C 16.847222 21.819444 16.725694 21.829861 16.579861 21.84375 C 16.097222 21.885417 15.517361 22.038194 15.104167 22.232639 C 15.003472 22.28125 14.878472 22.347222 14.822917 22.378472 C 14.71875 22.440972 14.701389 22.4375 14.701389 22.333333 C 14.701389 22.284722 14.809028 22.211806 15.097222 22.072917 C 15.5625 21.840278 16.166667 21.694444 16.65625 21.694444 Z M 17.392361 21.954861 L 17.392361 22.072917 C 17.392361 22.225694 17.430556 22.399306 17.534722 22.711806 C 17.680556 23.152778 17.854167 23.454861 18.097222 23.694444 C 18.253472 23.847222 18.517361 24.03125 18.5625 24.017361 C 18.576389 24.010417 18.583333 24.013889 18.576389 24.020833 C 18.5625 24.045139 18.784722 24.142361 18.979167 24.201389 C 19.486111 24.357639 20.513889 24.413194 21.21875 24.322917 C 22.03125 24.21875 22.927083 23.944444 23.680556 23.565972 C 23.951389 23.430556 24.104167 23.34375 24.479167 23.100694 C 24.635417 22.996528 24.767361 22.916667 24.770833 22.920139 C 24.774306 22.927083 24.75 22.951389 24.715278 22.979167 C 23.697917 23.746528 22.222222 24.284722 20.788194 24.40625 C 20.517361 24.427083 19.979167 24.427083 19.71875 24.402778 C 19.298611 24.364583 18.833333 24.256944 18.493056 24.118056 C 18.072917 23.947917 17.850694 23.729167 17.635417 23.274306 C 17.444444 22.871528 17.197917 22.059028 17.274306 22.079861 C 17.284722 22.083333 17.315972 22.055556 17.34375 22.020833 Z M 15.961806 21.972222 C 15.982639 21.972222 15.993056 21.979167 16.003472 21.993056 C 16.017361 22.010417 16.027778 22.03125 16.027778 22.041667 C 16.027778 22.048611 15.965278 22.072917 15.888889 22.09375 C 15.8125 22.118056 15.711806 22.145833 15.663194 22.163194 C 15.548611 22.201389 15.527778 22.197917 15.527778 22.142361 C 15.527778 22.09375 15.579861 22.069444 15.836806 22 C 15.902778 21.982639 15.940972 21.972222 15.961806 21.972222 Z M 16.854167 21.986111 C 16.982639 21.986111 17.090278 22 17.142361 22.020833 C 17.211806 22.052083 17.211806 22.052083 17.236111 22.21875 C 17.246528 22.3125 17.25 22.395833 17.243056 22.402778 C 17.236111 22.409722 16.947917 22.513889 16.600694 22.635417 L 15.972222 22.857639 L 15.34375 22.972222 C 14.996528 23.034722 14.6875 23.09375 14.659722 23.097222 C 14.614583 23.107639 14.607639 23.100694 14.569444 22.996528 C 14.548611 22.934028 14.527778 22.868056 14.527778 22.850694 C 14.527778 22.798611 14.697917 22.635417 14.847222 22.541667 C 15.222222 22.309028 15.881944 22.090278 16.451389 22.006944 C 16.579861 21.989583 16.725694 21.982639 16.854167 21.986111 Z M 12.576389 22.024306 C 12.96875 22.034722 13.364583 22.09375 13.628472 22.190972 C 13.829861 22.263889 14.086806 22.399306 14.114583 22.447917 C 14.125 22.46875 14.152778 22.5 14.177083 22.520833 C 14.197917 22.538194 14.246528 22.614583 14.277778 22.6875 C 14.3125 22.760417 14.354167 22.829861 14.371528 22.84375 C 14.416667 22.881944 14.503472 23.097222 14.565972 23.3125 C 14.763889 24.03125 14.770833 24.583333 14.576389 24.961806 C 14.416667 25.274306 13.875 25.809028 13.40625 26.121528 C 12.430556 26.774306 11.1875 27.190972 9.84375 27.319444 C 9.340278 27.368056 8.628472 27.347222 8.34375 27.274306 C 8.270833 27.253472 8.274306 27.253472 8.375 27.263889 C 8.434028 27.267361 8.552083 27.28125 8.642361 27.291667 C 8.888889 27.322917 9.607639 27.319444 9.940972 27.284722 C 10.78125 27.194444 11.572917 26.986111 12.305556 26.663194 C 12.625 26.524306 13.006944 26.315972 13.083333 26.239583 C 13.111111 26.215278 13.222222 26.131944 13.326389 26.055556 C 13.920139 25.635417 14.378472 25.121528 14.489583 24.756944 C 14.503472 24.711806 14.520833 24.680556 14.53125 24.684028 C 14.5625 24.704861 14.59375 24.479167 14.59375 24.225694 C 14.590278 23.996528 14.579861 23.902778 14.520833 23.59375 C 14.420139 23.083333 14.399306 23.020833 14.305556 22.868056 C 14.204861 22.704861 14.100694 22.607639 13.920139 22.5 C 13.475694 22.236111 12.920139 22.121528 12.038194 22.111111 L 11.805556 22.107639 L 11.989583 22.086806 L 12.173611 22.0625 L 12.048611 22.055556 C 11.951389 22.052083 11.986111 22.048611 12.190972 22.034722 C 12.315972 22.024306 12.447917 22.020833 12.576389 22.024306 Z M 11.777778 22.114583 C 11.777778 22.121528 11.649306 22.142361 11.493056 22.159722 C 9.902778 22.350694 8.697917 22.777778 7.510417 23.579861 C 7.107639 23.850694 6.833333 24.0625 6.677083 24.222222 C 6.513889 24.385417 6.482639 24.440972 6.440972 24.628472 C 6.385417 24.90625 6.5 25.440972 6.736111 25.996528 C 6.78125 26.097222 6.815972 26.1875 6.815972 26.197917 C 6.815972 26.208333 6.798611 26.222222 6.777778 26.225694 C 6.729167 26.239583 6.652778 26.135417 6.538194 25.888889 C 6.451389 25.704861 6.34375 25.375 6.368056 25.368056 C 6.430556 25.34375 6.430556 25.329861 6.381944 25.222222 C 6.347222 25.142361 6.326389 25.055556 6.3125 24.913194 C 6.288194 24.666667 6.3125 24.576389 6.454861 24.357639 C 6.576389 24.173611 6.736111 24.013889 7.038194 23.78125 C 8.090278 22.96875 9.270833 22.444444 10.565972 22.21875 C 10.989583 22.145833 11.777778 22.076389 11.777778 22.114583 Z M 12.579861 22.184028 C 13.163194 22.208333 13.569444 22.333333 13.954861 22.586806 C 14.104167 22.684028 14.173611 22.763889 14.267361 22.947917 C 14.371528 23.152778 14.371528 23.159722 14.274306 23.173611 C 13.736111 23.253472 11.232639 23.767361 10.038194 24.041667 C 9.694444 24.121528 9.666667 24.15625 9.729167 24.416667 C 9.743056 24.479167 9.756944 24.545139 9.756944 24.5625 C 9.756944 24.597222 9.493056 24.690972 9.045139 24.815972 C 8.489583 24.96875 6.784722 25.395833 6.729167 25.395833 C 6.697917 25.392361 6.652778 25.399306 6.628472 25.40625 C 6.579861 25.423611 6.565972 25.399306 6.559028 25.302083 C 6.555556 25.229167 6.527778 25.239583 7.479167 24.934028 C 8.392361 24.638889 8.690972 24.545139 9.065972 24.444444 C 9.420139 24.350694 9.434028 24.347222 9.309028 24.361111 C 9.104167 24.381944 8.784722 24.472222 8.086806 24.704861 C 6.947917 25.083333 6.5625 25.194444 6.527778 25.15625 C 6.496528 25.125 6.482639 24.729167 6.506944 24.618056 C 6.559028 24.409722 6.743056 24.197917 7.135417 23.895833 C 8.059028 23.180556 8.986111 22.725694 10.079861 22.447917 C 10.652778 22.302083 11.197917 22.225694 11.934028 22.1875 C 12.170139 22.177083 12.385417 22.173611 12.579861 22.184028 Z M 20.885417 22.979167 C 21.6875 22.986111 22.454861 23.076389 23.423611 23.253472 C 23.677083 23.298611 23.888889 23.336806 23.899306 23.336806 C 23.947917 23.336806 23.857639 23.392361 23.607639 23.517361 C 22.822917 23.90625 21.961806 24.159722 21.086806 24.263889 C 20.784722 24.298611 20.177083 24.3125 19.923611 24.291667 C 19.180556 24.225694 18.524306 24.013889 18.222222 23.743056 C 18.065972 23.604167 17.847222 23.298611 17.881944 23.263889 C 17.888889 23.260417 18 23.239583 18.128472 23.21875 C 19.243056 23.055556 20.083333 22.975694 20.885417 22.979167 Z M 18.708333 24.069444 C 18.711806 24.0625 18.736111 24.069444 18.756944 24.079861 C 18.777778 24.09375 18.899306 24.131944 19.020833 24.166667 C 19.145833 24.201389 19.232639 24.232639 19.211806 24.232639 C 19.131944 24.232639 18.6875 24.086806 18.708333 24.069444 Z M 14.513889 24.15625 C 14.527778 24.15625 14.53125 24.229167 14.524306 24.371528 C 14.503472 24.739583 14.413194 24.951389 14.135417 25.284722 C 13.434028 26.118056 12.222222 26.767361 10.805556 27.072917 C 10.631944 27.107639 10.489583 27.138889 10.482639 27.138889 C 10.451389 26.996528 10.40625 26.840278 10.385417 26.694444 L 10.336806 26.569444 L 10.3125 26.413194 L 10.479167 26.270833 C 11.336806 25.607639 12.333333 25.045139 13.479167 24.569444 C 13.965278 24.368056 14.489583 24.15625 14.513889 24.15625 Z M 19.274306 24.239583 C 19.284722 24.236111 19.309028 24.236111 19.319444 24.239583 C 19.333333 24.246528 19.322917 24.25 19.295139 24.25 C 19.270833 24.25 19.260417 24.246528 19.274306 24.239583 Z M 19.388889 24.260417 C 19.402778 24.253472 19.423611 24.253472 19.4375 24.260417 C 19.451389 24.263889 19.4375 24.270833 19.413194 24.270833 C 19.385417 24.270833 19.375 24.263889 19.388889 24.260417 Z M 19.524306 24.277778 C 19.538194 24.274306 19.555556 24.274306 19.5625 24.28125 C 19.569444 24.288194 19.555556 24.291667 19.534722 24.291667 C 19.513889 24.288194 19.510417 24.284722 19.524306 24.277778 Z M 11.638889 24.465278 C 11.645833 24.465278 11.527778 24.53125 11.375 24.611111 C 10.552083 25.038194 9.805556 25.5625 8.739583 26.454861 C 8.555556 26.607639 8.319444 26.8125 8.211806 26.909722 C 8.107639 27.003472 8.017361 27.079861 8.010417 27.079861 C 7.972222 27.076389 7.684028 26.958333 7.607639 26.916667 C 7.298611 26.739583 7.020833 26.416667 6.802083 25.982639 C 6.722222 25.826389 6.625 25.597222 6.625 25.569444 C 6.625 25.527778 7.597222 25.25 8.604167 25 C 9.177083 24.857639 9.315972 24.815972 9.65625 24.690972 L 9.770833 24.649306 L 9.822917 24.697917 C 9.847222 24.725694 9.892361 24.753472 9.916667 24.760417 C 9.96875 24.774306 10.260417 24.725694 11.079861 24.565972 C 11.378472 24.510417 11.628472 24.465278 11.638889 24.465278 Z M 6.302083 25.395833 C 6.309028 25.402778 6.319444 25.440972 6.322917 25.475694 L 6.326389 25.541667 L 6.163194 25.586806 C 6.006944 25.625 5.875 25.638889 5.822917 25.618056 C 5.791667 25.604167 5.791667 25.541667 5.819444 25.524306 C 5.864583 25.496528 6.288194 25.385417 6.302083 25.395833 Z M 10.121528 26.694444 C 10.125 26.715278 10.131944 26.777778 10.145833 26.833333 C 10.163194 26.916667 10.173611 26.927083 10.211806 26.927083 C 10.256944 26.927083 10.263889 26.944444 10.284722 27.138889 C 10.288194 27.159722 10.246528 27.170139 10.114583 27.1875 C 10.020833 27.201389 9.802083 27.21875 9.635417 27.225694 L 9.326389 27.236111 L 9.416667 27.149306 C 9.46875 27.104167 9.642361 26.954861 9.802083 26.822917 Z M 10.121528 26.694444 " transform="matrix(1.125,0,0,1.125,0,0)"/>
</g>
</svg>
