<?xml version="1.0" encoding="UTF-8"?>
<svg xmlns="http://www.w3.org/2000/svg" xmlns:xlink="http://www.w3.org/1999/xlink" width="36pt" height="36pt" viewBox="0 0 36 36" version="1.1">
<g id="surface1">
<path style=" stroke:none;fill-rule:evenodd;fill:rgb(0.784314%,69.019608%,58.039216%);fill-opacity:1;" d="M 2.136719 18.152344 L 2.136719 27.59375 C 2.136719 31.066406 4.933594 33.863281 8.40625 33.863281 L 27.589844 33.863281 C 31.066406 33.863281 33.863281 31.066406 33.863281 27.59375 L 33.863281 18.152344 Z M 2.136719 18.152344 "/>
<path style=" stroke:none;fill-rule:evenodd;fill:rgb(0.784314%,52.156863%,49.019608%);fill-opacity:1;" d="M 2.136719 18.152344 L 33.863281 18.152344 L 33.863281 8.40625 C 33.863281 4.933594 31.066406 2.136719 27.589844 2.136719 L 8.40625 2.136719 C 4.933594 2.136719 2.136719 4.933594 2.136719 8.40625 Z M 2.136719 18.152344 "/>
<path style=" stroke:none;fill-rule:nonzero;fill:rgb(100%,100%,100%);fill-opacity:1;" d="M 10.769531 20.730469 C 10.792969 21.320312 10.917969 21.78125 11.148438 22.117188 C 11.375 22.441406 11.625 22.683594 11.902344 22.851562 C 12.191406 23.007812 12.460938 23.105469 12.710938 23.140625 C 12.976562 23.175781 13.15625 23.195312 13.25 23.195312 C 13.621094 23.195312 13.957031 23.121094 14.257812 22.980469 C 14.554688 22.824219 14.808594 22.632812 15.011719 22.402344 C 15.214844 22.164062 15.371094 21.902344 15.480469 21.613281 C 15.585938 21.324219 15.640625 21.039062 15.640625 20.75 C 15.640625 20.390625 15.570312 20.0625 15.425781 19.761719 C 15.292969 19.460938 15.113281 19.210938 14.886719 19.007812 C 14.660156 18.804688 14.394531 18.648438 14.09375 18.539062 C 13.796875 18.417969 13.484375 18.359375 13.160156 18.359375 L 12.476562 18.359375 L 12.476562 16.488281 L 13.125 16.488281 C 13.605469 16.488281 13.976562 16.398438 14.238281 16.21875 C 14.503906 16.027344 14.695312 15.820312 14.8125 15.589844 C 14.945312 15.363281 15.019531 15.152344 15.03125 14.960938 C 15.054688 14.769531 15.066406 14.664062 15.066406 14.640625 C 15.066406 14.398438 15.023438 14.171875 14.941406 13.957031 C 14.855469 13.726562 14.734375 13.53125 14.582031 13.363281 C 14.425781 13.195312 14.234375 13.0625 14.003906 12.96875 C 13.789062 12.859375 13.550781 12.804688 13.285156 12.804688 C 13.191406 12.804688 13.050781 12.824219 12.871094 12.859375 C 12.703125 12.882812 12.523438 12.957031 12.332031 13.074219 C 12.140625 13.195312 11.96875 13.378906 11.8125 13.632812 C 11.65625 13.882812 11.554688 14.230469 11.507812 14.675781 L 9.636719 14.675781 C 9.683594 13.917969 9.859375 13.308594 10.160156 12.839844 C 10.457031 12.375 10.804688 12.015625 11.199219 11.761719 C 11.597656 11.5 11.992188 11.324219 12.386719 11.242188 C 12.78125 11.144531 13.101562 11.097656 13.339844 11.097656 C 13.867188 11.097656 14.347656 11.195312 14.777344 11.386719 C 15.222656 11.566406 15.597656 11.824219 15.910156 12.160156 C 16.234375 12.480469 16.484375 12.871094 16.664062 13.328125 C 16.84375 13.769531 16.933594 14.253906 16.933594 14.78125 C 16.933594 15.140625 16.898438 15.453125 16.828125 15.71875 C 16.753906 15.980469 16.660156 16.214844 16.539062 16.417969 C 16.433594 16.609375 16.304688 16.785156 16.164062 16.941406 C 16.019531 17.082031 15.867188 17.226562 15.710938 17.371094 C 16.097656 17.609375 16.402344 17.878906 16.628906 18.179688 C 16.867188 18.480469 17.054688 18.777344 17.1875 19.078125 C 17.320312 19.378906 17.402344 19.671875 17.4375 19.960938 C 17.484375 20.234375 17.511719 20.472656 17.511719 20.679688 C 17.511719 21.347656 17.390625 21.949219 17.152344 22.476562 C 16.921875 22.992188 16.613281 23.429688 16.214844 23.789062 C 15.820312 24.148438 15.359375 24.421875 14.832031 24.613281 C 14.316406 24.804688 13.773438 24.902344 13.195312 24.902344 C 12.632812 24.902344 12.09375 24.800781 11.578125 24.597656 C 11.0625 24.394531 10.609375 24.105469 10.210938 23.734375 C 9.816406 23.363281 9.5 22.925781 9.261719 22.421875 C 9.019531 21.90625 8.902344 21.34375 8.902344 20.730469 Z M 10.769531 20.730469 "/>
<path style=" stroke:none;fill-rule:nonzero;fill:rgb(100%,100%,100%);fill-opacity:1;" d="M 24.964844 24.652344 L 23.09375 24.652344 L 23.09375 13.058594 L 21.136719 13.058594 L 21.136719 11.347656 L 24.964844 11.347656 Z M 24.964844 24.652344 "/>
</g>
</svg>
