<?xml version="1.0" encoding="UTF-8"?>
<svg xmlns="http://www.w3.org/2000/svg" xmlns:xlink="http://www.w3.org/1999/xlink" width="36pt" height="36pt" viewBox="0 0 36 36" version="1.1">
<defs>
<filter id="alpha" filterUnits="objectBoundingBox" x="0%" y="0%" width="100%" height="100%">
  <feColorMatrix type="matrix" in="SourceGraphic" values="0 0 0 0 1 0 0 0 0 1 0 0 0 0 1 0 0 0 1 0"/>
</filter>
<mask id="mask0">
  <g filter="url(#alpha)">
<rect x="0" y="0" width="36" height="36" style="fill:rgb(0%,0%,0%);fill-opacity:0.501961;stroke:none;"/>
  </g>
</mask>
<clipPath id="clip1">
  <rect width="36" height="36"/>
</clipPath>
<g id="surface6" clip-path="url(#clip1)">
<path style=" stroke:none;fill-rule:nonzero;fill:rgb(100%,100%,100%);fill-opacity:1;" d="M 8.265625 5.625 C 8.050781 5.625 7.875 5.796875 7.875 6.011719 L 7.875 9.878906 C 7.875 10.09375 8.050781 10.265625 8.265625 10.265625 L 10.601562 10.265625 C 10.816406 10.265625 10.992188 10.09375 10.992188 9.878906 L 10.992188 6.011719 C 10.992188 5.796875 10.816406 5.625 10.601562 5.625 Z M 8.652344 6.398438 L 10.210938 6.398438 L 10.210938 9.492188 L 8.652344 9.492188 Z M 8.652344 6.398438 "/>
<path style=" stroke:none;fill-rule:evenodd;fill:rgb(100%,100%,100%);fill-opacity:1;" d="M 13.710938 5.625 C 13.496094 5.628906 13.324219 5.804688 13.328125 6.015625 L 13.328125 9.875 C 13.324219 10.011719 13.398438 10.144531 13.519531 10.214844 C 13.640625 10.28125 13.792969 10.28125 13.914062 10.214844 C 14.035156 10.144531 14.109375 10.011719 14.105469 9.875 L 14.105469 6.015625 C 14.105469 5.914062 14.066406 5.8125 13.992188 5.738281 C 13.917969 5.664062 13.816406 5.625 13.710938 5.625 Z M 13.710938 5.625 "/>
<path style=" stroke:none;fill-rule:evenodd;fill:rgb(100%,100%,100%);fill-opacity:1;" d="M 16.824219 5.625 C 16.609375 5.628906 16.4375 5.804688 16.441406 6.015625 L 16.441406 9.875 C 16.441406 10.011719 16.515625 10.144531 16.636719 10.214844 C 16.757812 10.28125 16.90625 10.28125 17.027344 10.214844 C 17.148438 10.144531 17.222656 10.011719 17.222656 9.875 L 17.222656 6.015625 C 17.222656 5.914062 17.179688 5.8125 17.105469 5.738281 C 17.03125 5.664062 16.929688 5.625 16.824219 5.625 Z M 16.824219 5.625 "/>
<path style=" stroke:none;fill-rule:nonzero;fill:rgb(100%,100%,100%);fill-opacity:1;" d="M 19.945312 5.625 C 19.730469 5.625 19.558594 5.796875 19.558594 6.011719 L 19.558594 9.878906 C 19.558594 10.09375 19.730469 10.265625 19.945312 10.265625 L 22.285156 10.265625 C 22.5 10.265625 22.671875 10.09375 22.671875 9.878906 L 22.671875 6.011719 C 22.671875 5.796875 22.5 5.625 22.285156 5.625 Z M 20.335938 6.398438 L 21.894531 6.398438 L 21.894531 9.492188 L 20.335938 9.492188 Z M 20.335938 6.398438 "/>
<path style=" stroke:none;fill-rule:nonzero;fill:rgb(100%,100%,100%);fill-opacity:1;" d="M 25.398438 5.625 C 25.183594 5.625 25.007812 5.796875 25.007812 6.011719 L 25.007812 9.878906 C 25.007812 10.09375 25.183594 10.265625 25.398438 10.265625 L 27.734375 10.265625 C 27.949219 10.265625 28.125 10.09375 28.125 9.878906 L 28.125 6.011719 C 28.125 5.796875 27.949219 5.625 27.734375 5.625 Z M 25.789062 6.398438 L 27.347656 6.398438 L 27.347656 9.492188 L 25.789062 9.492188 Z M 25.789062 6.398438 "/>
<path style=" stroke:none;fill-rule:nonzero;fill:rgb(100%,100%,100%);fill-opacity:1;" d="M 27.734375 12.585938 C 27.949219 12.585938 28.125 12.757812 28.125 12.972656 L 28.125 16.839844 C 28.125 17.054688 27.949219 17.226562 27.734375 17.226562 L 25.398438 17.226562 C 25.183594 17.226562 25.007812 17.054688 25.007812 16.839844 L 25.007812 12.972656 C 25.007812 12.757812 25.183594 12.585938 25.398438 12.585938 Z M 27.347656 13.359375 L 25.789062 13.359375 L 25.789062 16.453125 L 27.347656 16.453125 Z M 27.347656 13.359375 "/>
<path style=" stroke:none;fill-rule:evenodd;fill:rgb(100%,100%,100%);fill-opacity:1;" d="M 22.289062 12.585938 C 22.503906 12.589844 22.675781 12.765625 22.671875 12.976562 L 22.671875 16.835938 C 22.675781 16.972656 22.601562 17.105469 22.480469 17.175781 C 22.359375 17.242188 22.207031 17.242188 22.085938 17.175781 C 21.964844 17.105469 21.890625 16.972656 21.894531 16.835938 L 21.894531 12.976562 C 21.894531 12.875 21.933594 12.773438 22.007812 12.699219 C 22.082031 12.625 22.183594 12.585938 22.289062 12.585938 Z M 22.289062 12.585938 "/>
<path style=" stroke:none;fill-rule:evenodd;fill:rgb(100%,100%,100%);fill-opacity:1;" d="M 19.175781 12.585938 C 19.390625 12.589844 19.5625 12.765625 19.558594 12.976562 L 19.558594 16.835938 C 19.558594 16.972656 19.484375 17.105469 19.363281 17.175781 C 19.242188 17.242188 19.09375 17.242188 18.972656 17.175781 C 18.851562 17.105469 18.777344 16.972656 18.777344 16.835938 L 18.777344 12.976562 C 18.777344 12.875 18.820312 12.773438 18.894531 12.699219 C 18.96875 12.625 19.070312 12.585938 19.175781 12.585938 Z M 19.175781 12.585938 "/>
<path style=" stroke:none;fill-rule:nonzero;fill:rgb(100%,100%,100%);fill-opacity:1;" d="M 16.054688 12.585938 C 16.269531 12.585938 16.441406 12.757812 16.441406 12.972656 L 16.441406 16.839844 C 16.441406 17.054688 16.269531 17.226562 16.054688 17.226562 L 13.714844 17.226562 C 13.5 17.226562 13.328125 17.054688 13.328125 16.839844 L 13.328125 12.972656 C 13.328125 12.757812 13.5 12.585938 13.714844 12.585938 Z M 15.664062 13.359375 L 14.105469 13.359375 L 14.105469 16.453125 L 15.664062 16.453125 Z M 15.664062 13.359375 "/>
<path style=" stroke:none;fill-rule:evenodd;fill:rgb(100%,100%,100%);fill-opacity:1;" d="M 9.828125 12.585938 C 10.042969 12.589844 10.214844 12.765625 10.210938 12.976562 L 10.210938 16.835938 C 10.214844 16.972656 10.140625 17.105469 10.019531 17.175781 C 9.898438 17.242188 9.746094 17.242188 9.625 17.175781 C 9.503906 17.105469 9.429688 16.972656 9.433594 16.835938 L 9.433594 12.976562 C 9.429688 12.875 9.472656 12.773438 9.546875 12.699219 C 9.621094 12.625 9.722656 12.585938 9.828125 12.585938 Z M 9.828125 12.585938 "/>
<path style=" stroke:none;fill-rule:nonzero;fill:rgb(100%,100%,100%);fill-opacity:1;" d="M 27.734375 18.773438 C 27.949219 18.773438 28.125 18.945312 28.125 19.160156 L 28.125 23.027344 C 28.125 23.242188 27.949219 23.414062 27.734375 23.414062 L 25.398438 23.414062 C 25.183594 23.414062 25.007812 23.242188 25.007812 23.027344 L 25.007812 19.160156 C 25.007812 18.945312 25.183594 18.773438 25.398438 18.773438 Z M 27.347656 19.546875 L 25.789062 19.546875 L 25.789062 22.640625 L 27.347656 22.640625 Z M 27.347656 19.546875 "/>
<path style=" stroke:none;fill-rule:evenodd;fill:rgb(100%,100%,100%);fill-opacity:1;" d="M 22.289062 18.773438 C 22.503906 18.777344 22.675781 18.953125 22.671875 19.164062 L 22.671875 23.023438 C 22.675781 23.160156 22.601562 23.292969 22.480469 23.363281 C 22.359375 23.429688 22.207031 23.429688 22.085938 23.363281 C 21.964844 23.292969 21.890625 23.160156 21.894531 23.023438 L 21.894531 19.164062 C 21.894531 19.0625 21.933594 18.960938 22.007812 18.886719 C 22.082031 18.8125 22.183594 18.773438 22.289062 18.773438 Z M 22.289062 18.773438 "/>
<path style=" stroke:none;fill-rule:evenodd;fill:rgb(100%,100%,100%);fill-opacity:1;" d="M 19.175781 18.773438 C 19.390625 18.777344 19.5625 18.953125 19.558594 19.164062 L 19.558594 23.023438 C 19.558594 23.160156 19.484375 23.292969 19.363281 23.363281 C 19.242188 23.429688 19.09375 23.429688 18.972656 23.363281 C 18.851562 23.292969 18.777344 23.160156 18.777344 23.023438 L 18.777344 19.164062 C 18.777344 19.0625 18.820312 18.960938 18.894531 18.886719 C 18.96875 18.8125 19.070312 18.773438 19.175781 18.773438 Z M 19.175781 18.773438 "/>
<path style=" stroke:none;fill-rule:nonzero;fill:rgb(100%,100%,100%);fill-opacity:1;" d="M 16.054688 18.773438 C 16.269531 18.773438 16.441406 18.945312 16.441406 19.160156 L 16.441406 23.027344 C 16.441406 23.242188 16.269531 23.414062 16.054688 23.414062 L 13.714844 23.414062 C 13.5 23.414062 13.328125 23.242188 13.328125 23.027344 L 13.328125 19.160156 C 13.328125 18.945312 13.5 18.773438 13.714844 18.773438 Z M 15.664062 19.546875 L 14.105469 19.546875 L 14.105469 22.640625 L 15.664062 22.640625 Z M 15.664062 19.546875 "/>
<path style=" stroke:none;fill-rule:nonzero;fill:rgb(100%,100%,100%);fill-opacity:1;" d="M 10.601562 18.773438 C 10.816406 18.773438 10.992188 18.945312 10.992188 19.160156 L 10.992188 23.027344 C 10.992188 23.242188 10.816406 23.414062 10.601562 23.414062 L 8.265625 23.414062 C 8.050781 23.414062 7.875 23.242188 7.875 23.027344 L 7.875 19.160156 C 7.875 18.945312 8.050781 18.773438 8.265625 18.773438 Z M 10.210938 19.546875 L 8.652344 19.546875 L 8.652344 22.640625 L 10.210938 22.640625 Z M 10.210938 19.546875 "/>
<path style=" stroke:none;fill-rule:nonzero;fill:rgb(100%,100%,100%);fill-opacity:1;" d="M 8.265625 25.734375 C 8.050781 25.734375 7.875 25.90625 7.875 26.121094 L 7.875 29.988281 C 7.875 30.203125 8.050781 30.375 8.265625 30.375 L 10.601562 30.375 C 10.816406 30.375 10.992188 30.203125 10.992188 29.988281 L 10.992188 26.121094 C 10.992188 25.90625 10.816406 25.734375 10.601562 25.734375 Z M 8.652344 26.507812 L 10.210938 26.507812 L 10.210938 29.601562 L 8.652344 29.601562 Z M 8.652344 26.507812 "/>
<path style=" stroke:none;fill-rule:evenodd;fill:rgb(100%,100%,100%);fill-opacity:1;" d="M 13.710938 25.734375 C 13.496094 25.738281 13.324219 25.914062 13.328125 26.125 L 13.328125 29.984375 C 13.324219 30.121094 13.398438 30.253906 13.519531 30.324219 C 13.640625 30.390625 13.792969 30.390625 13.914062 30.324219 C 14.035156 30.253906 14.109375 30.121094 14.105469 29.984375 L 14.105469 26.125 C 14.105469 26.023438 14.066406 25.921875 13.992188 25.847656 C 13.917969 25.773438 13.816406 25.734375 13.710938 25.734375 Z M 13.710938 25.734375 "/>
<path style=" stroke:none;fill-rule:evenodd;fill:rgb(100%,100%,100%);fill-opacity:1;" d="M 16.824219 25.734375 C 16.609375 25.738281 16.4375 25.914062 16.441406 26.125 L 16.441406 29.984375 C 16.441406 30.121094 16.515625 30.253906 16.636719 30.324219 C 16.757812 30.390625 16.90625 30.390625 17.027344 30.324219 C 17.148438 30.253906 17.222656 30.121094 17.222656 29.984375 L 17.222656 26.125 C 17.222656 26.023438 17.179688 25.921875 17.105469 25.847656 C 17.03125 25.773438 16.929688 25.734375 16.824219 25.734375 Z M 16.824219 25.734375 "/>
<path style=" stroke:none;fill-rule:nonzero;fill:rgb(100%,100%,100%);fill-opacity:1;" d="M 19.945312 25.734375 C 19.730469 25.734375 19.558594 25.90625 19.558594 26.121094 L 19.558594 29.988281 C 19.558594 30.203125 19.730469 30.375 19.945312 30.375 L 22.285156 30.375 C 22.5 30.375 22.671875 30.203125 22.671875 29.988281 L 22.671875 26.121094 C 22.671875 25.90625 22.5 25.734375 22.285156 25.734375 Z M 20.335938 26.507812 L 21.894531 26.507812 L 21.894531 29.601562 L 20.335938 29.601562 Z M 20.335938 26.507812 "/>
<path style=" stroke:none;fill-rule:evenodd;fill:rgb(100%,100%,100%);fill-opacity:1;" d="M 26.171875 25.734375 C 25.957031 25.738281 25.785156 25.914062 25.789062 26.125 L 25.789062 29.984375 C 25.785156 30.121094 25.859375 30.253906 25.980469 30.324219 C 26.101562 30.390625 26.253906 30.390625 26.375 30.324219 C 26.496094 30.253906 26.570312 30.121094 26.566406 29.984375 L 26.566406 26.125 C 26.570312 26.023438 26.527344 25.921875 26.453125 25.847656 C 26.378906 25.773438 26.277344 25.734375 26.171875 25.734375 Z M 26.171875 25.734375 "/>
</g>
<clipPath id="clip2">
  <rect width="36" height="36"/>
</clipPath>
<g id="surface9" clip-path="url(#clip2)">
<path style=" stroke:none;fill-rule:evenodd;fill:rgb(95.294118%,25.882353%,20.784314%);fill-opacity:1;" d="M 31.378906 24.792969 C 31.378906 28.519531 28.359375 31.542969 24.628906 31.542969 C 20.902344 31.542969 17.878906 28.519531 17.878906 24.792969 C 17.878906 21.066406 20.902344 18.042969 24.628906 18.042969 C 28.359375 18.042969 31.378906 21.066406 31.378906 24.792969 Z M 31.378906 24.792969 "/>
</g>
<clipPath id="clip3">
  <rect width="36" height="36"/>
</clipPath>
<g id="surface12" clip-path="url(#clip3)">
<path style=" stroke:none;fill-rule:nonzero;fill:rgb(100%,100%,100%);fill-opacity:1;" d="M 21.253906 26.664062 L 21.253906 28.167969 L 22.757812 28.167969 L 26.554688 24.371094 L 25.050781 22.867188 Z M 27.886719 23.046875 C 28.042969 22.886719 28.042969 22.636719 27.886719 22.476562 L 26.945312 21.535156 C 26.785156 21.378906 26.535156 21.378906 26.378906 21.535156 L 25.589844 22.328125 L 27.09375 23.832031 Z M 27.886719 23.046875 "/>
</g>
</defs>
<g id="surface1">
<path style=" stroke:none;fill-rule:evenodd;fill:rgb(30.980392%,30.980392%,30.980392%);fill-opacity:1;" d="M 8.40625 2.136719 L 27.59375 2.136719 C 31.054688 2.136719 33.863281 4.945312 33.863281 8.40625 L 33.863281 27.59375 C 33.863281 31.054688 31.054688 33.863281 27.59375 33.863281 L 8.40625 33.863281 C 4.945312 33.863281 2.136719 31.054688 2.136719 27.59375 L 2.136719 8.40625 C 2.136719 4.945312 4.945312 2.136719 8.40625 2.136719 Z M 8.40625 2.136719 "/>
<use xlink:href="#surface6" mask="url(#mask0)"/>
<use xlink:href="#surface9"/>
<use xlink:href="#surface12"/>
</g>
</svg>
