<?xml version="1.0" encoding="UTF-8"?>
<svg xmlns="http://www.w3.org/2000/svg" xmlns:xlink="http://www.w3.org/1999/xlink" width="36pt" height="36pt" viewBox="0 0 36 36" version="1.1">
<g id="surface1">
<path style=" stroke:none;fill-rule:evenodd;fill:rgb(92.54902%,92.54902%,92.54902%);fill-opacity:1;" d="M 8.40625 2.136719 L 27.59375 2.136719 C 31.054688 2.136719 33.863281 4.945312 33.863281 8.40625 L 33.863281 27.59375 C 33.863281 31.054688 31.054688 33.863281 27.59375 33.863281 L 8.40625 33.863281 C 4.945312 33.863281 2.136719 31.054688 2.136719 27.59375 L 2.136719 8.40625 C 2.136719 4.945312 4.945312 2.136719 8.40625 2.136719 Z M 8.40625 2.136719 "/>
<path style=" stroke:none;fill-rule:evenodd;fill:rgb(92.54902%,92.54902%,92.54902%);fill-opacity:1;" d="M 8.40625 2.136719 C 4.933594 2.136719 2.136719 4.933594 2.136719 8.40625 L 2.136719 26.511719 C 2.335938 26.464844 2.648438 26.332031 2.824219 26.300781 C 4.882812 25.910156 6.480469 25.722656 7.875 25.738281 C 9.269531 25.753906 10.457031 25.976562 11.695312 26.40625 C 12.847656 26.804688 13.171875 26.851562 14.390625 26.785156 C 15.4375 26.730469 16.585938 26.527344 17.707031 26.214844 C 18.828125 25.898438 19.917969 25.46875 20.84375 24.96875 C 21.683594 24.515625 22.015625 24.140625 22.511719 23.589844 C 22.339844 23.617188 22.171875 23.640625 22.003906 23.65625 C 21.476562 23.695312 20.960938 23.699219 20.457031 23.667969 C 19.953125 23.632812 19.460938 23.566406 18.984375 23.464844 C 18.507812 23.363281 18.042969 23.226562 17.597656 23.054688 C 17.152344 22.886719 16.722656 22.683594 16.3125 22.445312 C 16.019531 22.277344 15.738281 22.09375 15.46875 21.894531 C 15.085938 21.609375 14.726562 21.296875 14.386719 20.949219 C 14.042969 20.605469 13.726562 20.230469 13.433594 19.824219 C 13.136719 19.421875 12.867188 18.988281 12.625 18.53125 C 12.378906 18.070312 12.15625 17.585938 11.964844 17.078125 C 11.769531 16.566406 11.601562 16.035156 11.464844 15.480469 C 11.324219 14.925781 11.207031 14.351562 11.121094 13.757812 C 11.035156 13.164062 10.980469 12.550781 10.949219 11.925781 C 10.917969 11.296875 10.917969 10.65625 10.941406 10 C 10.96875 9.34375 11.023438 8.679688 11.101562 8.003906 C 11.183594 7.324219 11.292969 6.640625 11.429688 5.949219 C 11.5625 5.261719 11.726562 4.566406 11.914062 3.871094 C 12.074219 3.292969 12.253906 2.714844 12.449219 2.136719 Z M 8.40625 2.136719 "/>
<path style=" stroke:none;fill-rule:evenodd;fill:rgb(19.215686%,56.862745%,80.392157%);fill-opacity:1;" d="M 12.449219 2.136719 C 12.253906 2.714844 12.074219 3.292969 11.914062 3.871094 C 11.726562 4.566406 11.5625 5.261719 11.429688 5.949219 C 11.292969 6.640625 11.183594 7.324219 11.101562 8.003906 C 11.023438 8.679688 10.96875 9.34375 10.941406 10 C 10.917969 10.65625 10.917969 11.296875 10.949219 11.925781 C 10.980469 12.550781 11.035156 13.164062 11.121094 13.757812 C 11.207031 14.351562 11.324219 14.925781 11.464844 15.480469 C 11.601562 16.035156 11.769531 16.566406 11.964844 17.078125 C 12.15625 17.585938 12.378906 18.070312 12.625 18.53125 C 12.867188 18.988281 13.136719 19.421875 13.433594 19.824219 C 13.726562 20.230469 14.042969 20.605469 14.386719 20.949219 C 14.726562 21.296875 15.085938 21.609375 15.46875 21.894531 C 15.738281 22.09375 16.019531 22.277344 16.3125 22.445312 C 16.722656 22.683594 17.152344 22.886719 17.597656 23.054688 C 18.042969 23.226562 18.507812 23.363281 18.984375 23.464844 C 19.460938 23.566406 19.953125 23.632812 20.457031 23.667969 C 20.960938 23.699219 21.476562 23.695312 22.003906 23.65625 C 22.53125 23.621094 23.066406 23.550781 23.605469 23.441406 C 24.148438 23.335938 24.699219 23.195312 25.25 23.019531 C 25.804688 22.84375 26.359375 22.632812 26.917969 22.390625 C 27.476562 22.152344 28.035156 21.875 28.59375 21.570312 C 29.152344 21.265625 29.707031 20.925781 30.261719 20.558594 C 30.8125 20.191406 31.359375 19.796875 31.898438 19.375 C 32.441406 18.949219 32.976562 18.496094 33.5 18.019531 C 33.621094 17.898438 33.742188 17.78125 33.863281 17.660156 L 33.863281 14.445312 C 33.765625 14.570312 33.664062 14.691406 33.566406 14.8125 C 33.195312 15.238281 32.816406 15.648438 32.425781 16.039062 C 32.039062 16.429688 31.640625 16.804688 31.238281 17.160156 C 30.832031 17.511719 30.421875 17.84375 30.007812 18.15625 C 29.589844 18.46875 29.171875 18.757812 28.746094 19.023438 C 28.324219 19.292969 27.898438 19.535156 27.472656 19.753906 C 27.046875 19.976562 26.617188 20.171875 26.195312 20.339844 C 25.769531 20.511719 25.34375 20.65625 24.921875 20.773438 C 24.503906 20.890625 24.089844 20.984375 23.679688 21.050781 C 23.265625 21.117188 22.863281 21.15625 22.464844 21.167969 C 22.066406 21.179688 21.679688 21.167969 21.300781 21.125 C 20.921875 21.085938 20.550781 21.019531 20.191406 20.925781 C 19.835938 20.835938 19.488281 20.714844 19.15625 20.570312 C 18.921875 20.46875 18.691406 20.351562 18.46875 20.222656 C 18.15625 20.042969 17.859375 19.835938 17.574219 19.605469 C 17.292969 19.375 17.027344 19.121094 16.777344 18.847656 C 16.527344 18.570312 16.292969 18.269531 16.078125 17.949219 C 15.867188 17.625 15.671875 17.285156 15.496094 16.921875 C 15.320312 16.5625 15.164062 16.179688 15.027344 15.78125 C 14.890625 15.382812 14.773438 14.964844 14.679688 14.53125 C 14.585938 14.101562 14.511719 13.652344 14.457031 13.191406 C 14.40625 12.730469 14.371094 12.253906 14.359375 11.769531 C 14.351562 11.28125 14.363281 10.785156 14.394531 10.28125 C 14.425781 9.777344 14.480469 9.261719 14.550781 8.742188 C 14.625 8.222656 14.722656 7.699219 14.839844 7.167969 C 14.953125 6.640625 15.089844 6.109375 15.246094 5.578125 C 15.402344 5.042969 15.578125 4.511719 15.773438 3.980469 C 15.96875 3.449219 16.183594 2.917969 16.414062 2.394531 C 16.457031 2.308594 16.496094 2.222656 16.539062 2.136719 Z M 12.449219 2.136719 "/>
<path style="fill-rule:nonzero;fill:rgb(40%,40%,40%);fill-opacity:1;stroke-width:0.3;stroke-linecap:butt;stroke-linejoin:miter;stroke:rgb(40%,40%,40%);stroke-opacity:1;stroke-miterlimit:4;" d="M 23.079861 17.96875 C 22.5625 17.954861 22.013889 17.993056 21.333333 18.125 C 21.145833 18.159722 20.680556 18.277778 20.440972 18.354167 C 19.614583 18.614583 18.510417 19.149306 17.982639 19.548611 L 17.871528 19.631944 C 17.621528 19.833333 17.388889 20.055556 17.25 20.361111 L 17.201389 20.461806 C 17.15625 20.559028 17.149306 20.5625 17.09375 20.552083 C 17.0625 20.545139 16.836806 20.538194 16.59375 20.538194 C 16.1875 20.541667 16.131944 20.545139 15.913194 20.590278 C 15.350694 20.711806 14.819444 20.944444 14.347222 21.284722 L 14.208333 21.381944 L 14.114583 21.309028 C 13.986111 21.211806 13.628472 21.038194 13.461806 20.989583 C 13.083333 20.881944 12.677083 20.84375 12.09375 20.861111 C 10.579861 20.90625 9.329861 21.208333 8.152778 21.819444 C 7.503472 22.152778 6.836806 22.607639 6.486111 22.954861 C 6.260417 23.177083 6.170139 23.34375 6.135417 23.583333 C 6.118056 23.732639 6.114583 23.732639 6.048611 23.756944 C 5.923611 23.802083 5.4375 24.048611 5.347222 24.114583 C 5.267361 24.173611 5.256944 24.1875 5.256944 24.256944 C 5.256944 24.340278 5.298611 24.451389 5.336806 24.475694 C 5.354167 24.486111 5.357639 24.482639 5.347222 24.454861 C 5.309028 24.364583 5.295139 24.256944 5.315972 24.21875 C 5.347222 24.163194 5.670139 23.975694 5.927083 23.871528 L 6.152778 23.78125 L 6.166667 23.885417 C 6.173611 23.940972 6.197917 24.027778 6.21875 24.076389 C 6.246528 24.138889 6.25 24.163194 6.232639 24.170139 C 6.21875 24.173611 6.09375 24.215278 5.951389 24.263889 C 5.809028 24.309028 5.642361 24.361111 5.583333 24.378472 C 5.465278 24.409722 5.427083 24.440972 5.420139 24.510417 C 5.416667 24.53125 5.413194 24.5625 5.409722 24.576389 C 5.40625 24.590278 5.4375 24.621528 5.479167 24.642361 C 5.607639 24.711806 5.760417 24.697917 6.034722 24.59375 C 6.163194 24.545139 6.270833 24.510417 6.277778 24.517361 C 6.284722 24.524306 6.3125 24.583333 6.336806 24.645833 C 6.454861 24.954861 6.684028 25.34375 6.871528 25.565972 C 7.0625 25.788194 7.357639 25.989583 7.631944 26.076389 L 7.729167 26.107639 L 7.336806 26.496528 C 6.888889 26.940972 6.201389 27.663194 6.201389 27.694444 C 6.201389 27.722222 6.291667 27.902778 6.354167 27.993056 C 6.423611 28.09375 6.548611 28.21875 6.677083 28.319444 C 6.732639 28.364583 6.784722 28.399306 6.791667 28.399306 C 6.798611 28.399306 7.107639 28.100694 7.475694 27.736111 C 7.847222 27.371528 8.34375 26.895833 8.576389 26.677083 L 8.996528 26.28125 L 9.229167 26.28125 C 9.434028 26.28125 9.847222 26.246528 10.118056 26.211806 C 10.378472 26.579861 10.666667 27.135417 10.416667 26.173611 C 10.420139 26.170139 10.510417 26.149306 10.614583 26.128472 C 12.211806 25.802083 13.569444 25.079861 14.315972 24.15625 C 14.59375 23.8125 14.680556 23.576389 14.6875 23.152778 L 14.690972 22.899306 L 14.767361 22.871528 C 14.809028 22.857639 15 22.788194 15.190972 22.71875 C 15.920139 22.447917 16.048611 22.409722 16.381944 22.347222 C 16.815972 22.267361 17.493056 22.152778 17.5 22.159722 C 17.5 22.159722 17.527778 22.211806 17.555556 22.267361 C 17.697917 22.552083 17.923611 22.802083 18.149306 22.927083 C 18.409722 23.072917 18.857639 23.211806 19.288194 23.28125 C 20.597222 23.496528 22.28125 23.194444 23.701389 22.486111 C 23.8125 22.430556 23.951389 22.357639 24.006944 22.326389 C 24.090278 22.274306 24.121528 22.267361 24.180556 22.277778 C 24.336806 22.305556 25.173611 22.503472 25.1875 22.517361 C 25.333333 22.548611 25.552083 22.618056 25.552083 22.618056 C 25.565972 22.604167 25.611111 22.614583 26.40625 22.826389 C 26.767361 22.920139 27.076389 22.993056 27.090278 22.989583 C 27.118056 22.979167 27.197917 22.788194 27.236111 22.638889 C 27.267361 22.53125 27.284722 22.270833 27.267361 22.166667 L 27.256944 22.079861 L 26.972222 21.989583 C 26.663194 21.892361 25.833333 21.65625 25.496528 21.569444 L 25.284722 21.517361 L 25.263889 21.440972 C 25.243056 21.368056 25.246528 21.361111 25.336806 21.229167 C 25.447917 21.0625 25.534722 20.871528 25.590278 20.649306 C 25.625 20.503472 25.631944 20.430556 25.631944 20.072917 C 25.631944 19.805556 25.625 19.611111 25.607639 19.520833 C 25.59375 19.444444 25.586806 19.375 25.590278 19.371528 C 25.597222 19.364583 25.704861 19.340278 25.826389 19.322917 C 26.142361 19.270833 26.288194 19.201389 26.364583 19.055556 C 26.399306 18.989583 26.399306 18.982639 26.364583 18.982639 C 26.347222 18.982639 26.333333 18.972222 26.333333 18.954861 C 26.333333 18.940972 26.309028 18.920139 26.277778 18.90625 C 26.229167 18.885417 26.194444 18.888889 26.03125 18.930556 C 25.864583 18.972222 25.493056 19.048611 25.440972 19.048611 C 25.430556 19.048611 25.413194 19 25.40625 18.940972 C 25.399306 18.878472 25.378472 18.798611 25.354167 18.756944 L 25.315972 18.680556 L 25.378472 18.670139 C 25.583333 18.635417 25.798611 18.618056 26.024306 18.625 L 26.284722 18.628472 L 26.319444 18.715278 C 26.336806 18.760417 26.357639 18.815972 26.361111 18.836806 C 26.381944 18.902778 26.395833 18.854167 26.381944 18.763889 C 26.375 18.715278 26.350694 18.652778 26.322917 18.618056 L 26.274306 18.5625 L 26.059028 18.5625 C 25.854167 18.5625 25.479167 18.586806 25.371528 18.611111 C 25.326389 18.618056 25.3125 18.607639 25.256944 18.524306 C 25.152778 18.361111 24.961806 18.229167 24.704861 18.138889 C 24.697917 18.138889 24.663194 18.131944 24.652778 18.128472 C 24.645833 18.128472 24.642361 18.131944 24.635417 18.131944 C 24.079861 18.048611 23.597222 17.982639 23.079861 17.96875 Z M 22.930556 18.013889 C 23.288194 18.013889 23.649306 18.027778 23.84375 18.052083 C 24.427083 18.128472 24.65625 18.180556 24.854167 18.288194 C 24.923611 18.322917 24.965278 18.350694 24.944444 18.34375 C 24.614583 18.246528 24.260417 18.166667 23.871528 18.111111 C 23.486111 18.052083 22.6875 18.027778 22.295139 18.0625 C 21.305556 18.152778 20.381944 18.416667 19.336806 18.90625 C 18.767361 19.201389 18.177083 19.486111 17.666667 19.965278 C 17.496528 20.138889 17.413194 20.267361 17.354167 20.447917 C 17.329861 20.510417 17.305556 20.618056 17.298611 20.684028 L 17.28125 20.805556 L 17.28125 20.694444 C 17.277778 20.600694 17.270833 20.583333 17.239583 20.572917 C 17.1875 20.559028 17.1875 20.552083 17.263889 20.399306 C 17.465278 20.006944 17.850694 19.628472 18.364583 19.322917 C 18.53125 19.222222 18.875 19.038194 18.930556 19.017361 C 18.975694 19.003472 18.975694 19.003472 18.940972 19.03125 C 18.857639 19.09375 18.96875 19.048611 19.298611 18.878472 C 20.138889 18.454861 21.052083 18.177083 22.017361 18.052083 C 22.208333 18.027778 22.569444 18.013889 22.930556 18.013889 Z M 22.71875 18.072917 C 22.972222 18.065972 23.225694 18.069444 23.381944 18.083333 C 23.659722 18.107639 24.090278 18.163194 24.076389 18.173611 C 24.072917 18.177083 23.979167 18.173611 23.871528 18.163194 C 22.829861 18.059028 21.833333 18.125 20.927083 18.361111 C 20.586806 18.447917 20.548611 18.454861 20.71875 18.399306 C 21.0625 18.284722 21.597222 18.170139 22.045139 18.111111 C 22.208333 18.090278 22.465278 18.076389 22.71875 18.072917 Z M 23.25 18.173611 C 23.40625 18.177083 23.5625 18.190972 23.71875 18.204861 C 23.729167 18.197917 23.739583 18.194444 23.75 18.1875 C 24.055556 18.222222 24.260417 18.256944 24.423611 18.295139 C 24.444444 18.298611 24.465278 18.302083 24.486111 18.305556 L 24.46875 18.309028 C 24.572917 18.336806 24.670139 18.364583 24.746528 18.402778 C 24.944444 18.503472 25.024306 18.59375 25.145833 18.864583 C 25.21875 19.027778 25.215278 19.03125 25.177083 19.045139 C 25.055556 19.090278 24.454861 19.225694 23.815972 19.354167 C 23.006944 19.517361 22.725694 19.583333 22.475694 19.670139 C 22.333333 19.722222 22.145833 19.805556 22.239583 19.777778 C 22.694444 19.645833 24.006944 19.347222 24.690972 19.222222 C 24.784722 19.204861 24.947917 19.170139 25.052083 19.145833 L 25.239583 19.100694 L 25.263889 19.190972 L 25.288194 19.277778 L 25.017361 19.357639 C 23.416667 19.822917 22.746528 20.006944 22.302083 20.097222 C 21.9375 20.173611 21.930556 20.173611 21.930556 19.993056 C 21.930556 19.920139 21.9375 19.895833 21.96875 19.881944 C 22.024306 19.850694 22.017361 19.809028 21.944444 19.763889 C 21.899306 19.736111 21.861111 19.729167 21.815972 19.736111 C 21.638889 19.763889 19.375 20.496528 17.892361 21.006944 C 17.645833 21.090278 17.4375 21.159722 17.427083 21.159722 C 17.413194 21.159722 17.402778 21.107639 17.385417 20.954861 L 17.489583 20.628472 L 17.409722 20.65625 C 17.697917 19.538194 20.378472 18.09375 23.25 18.173611 Z M 24.138889 18.1875 C 24.152778 18.180556 24.170139 18.180556 24.177083 18.1875 C 24.180556 18.194444 24.170139 18.197917 24.149306 18.197917 C 24.128472 18.197917 24.121528 18.190972 24.138889 18.1875 Z M 24.840278 18.350694 C 24.878472 18.350694 25.121528 18.4375 25.145833 18.461806 C 25.163194 18.475694 25.180556 18.520833 25.190972 18.559028 C 25.197917 18.597222 25.274306 18.850694 25.364583 19.121528 C 25.503472 19.548611 25.597222 19.909722 25.572917 19.934028 C 25.569444 19.9375 25.548611 19.944444 25.524306 19.947917 C 25.5 19.951389 25.465278 19.958333 25.447917 19.965278 C 25.423611 19.975694 25.416667 19.951389 25.40625 19.791667 C 25.371528 19.270833 25.166667 18.684028 24.9375 18.454861 C 24.881944 18.399306 24.836806 18.350694 24.840278 18.350694 Z M 25.21875 18.565972 C 25.222222 18.5625 25.229167 18.569444 25.239583 18.586806 C 25.253472 18.607639 25.256944 18.625 25.25 18.631944 C 25.246528 18.635417 25.236111 18.625 25.232639 18.611111 C 25.222222 18.586806 25.21875 18.569444 25.21875 18.565972 Z M 25.284722 18.770833 C 25.28125 18.756944 25.288194 18.763889 25.302083 18.791667 C 25.319444 18.819444 25.336806 18.871528 25.34375 18.913194 C 25.361111 19.006944 25.347222 19.003472 25.315972 18.902778 C 25.295139 18.829861 25.284722 18.788194 25.284722 18.770833 Z M 25.982639 18.986111 C 26.013889 18.986111 26.024306 18.989583 26.038194 19.003472 C 26.065972 19.03125 26.0625 19.038194 26.017361 19.083333 C 25.986111 19.111111 25.895833 19.152778 25.815972 19.180556 C 25.736111 19.204861 25.645833 19.232639 25.611111 19.239583 C 25.555556 19.25 25.548611 19.246528 25.53125 19.173611 C 25.510417 19.086806 25.482639 19.100694 25.819444 19.020833 C 25.90625 19 25.954861 18.989583 25.982639 18.986111 Z M 25.434028 19.114583 C 25.479167 19.114583 25.486111 19.128472 25.513889 19.25 C 25.53125 19.322917 25.559028 19.472222 25.576389 19.576389 C 25.611111 19.798611 25.604167 19.864583 25.569444 19.690972 C 25.548611 19.597222 25.447917 19.274306 25.399306 19.149306 C 25.392361 19.125 25.399306 19.114583 25.434028 19.114583 Z M 25.291667 19.423611 C 25.336806 19.423611 25.347222 19.475694 25.371528 19.819444 C 25.392361 20.090278 25.371528 20.451389 25.322917 20.642361 C 25.256944 20.881944 25.027778 21.253472 25.027778 21.253472 C 25.017361 21.270833 24.975694 21.315972 24.9375 21.350694 L 24.864583 21.420139 L 24.527778 21.347222 C 23.59375 21.145833 22.444444 20.989583 21.59375 20.951389 C 21.208333 20.930556 21.03125 20.934028 20.545139 20.958333 L 20.381944 20.96875 L 20.826389 20.815972 C 21.840278 20.465278 22.024306 20.392361 22.076389 20.333333 C 22.100694 20.302083 22.125 20.256944 22.125 20.232639 C 22.125 20.208333 22.128472 20.184028 22.138889 20.184028 C 22.253472 20.184028 22.819444 20.055556 23.305556 19.916667 C 24.177083 19.670139 25.173611 19.423611 25.291667 19.423611 Z M 18.045139 19.6875 C 18.03125 19.704861 17.986111 19.75 17.902778 19.833333 C 17.697917 20.034722 17.555556 20.225694 17.4375 20.465278 C 17.371528 20.597222 17.364583 20.625 17.357639 20.819444 C 17.350694 20.9375 17.357639 21.076389 17.371528 21.142361 C 17.395833 21.267361 17.572917 21.805556 17.638889 21.951389 C 17.663194 22.003472 17.677083 22.048611 17.673611 22.052083 C 17.659722 22.065972 17.538194 21.770833 17.458333 21.524306 C 17.319444 21.104167 17.288194 20.84375 17.34375 20.583333 C 17.413194 20.260417 17.631944 19.965278 17.989583 19.71875 C 18.034722 19.684028 18.055556 19.670139 18.045139 19.6875 Z M 19.913194 19.822917 L 19.767361 19.871528 C 19.815972 19.857639 19.864583 19.840278 19.913194 19.822917 Z M 16.559028 20.548611 L 16.715278 20.548611 L 16.736111 20.607639 C 16.75 20.642361 16.753472 20.670139 16.753472 20.673611 C 16.75 20.673611 16.628472 20.6875 16.482639 20.697917 C 16 20.739583 15.420139 20.895833 15.006944 21.090278 C 14.90625 21.135417 14.78125 21.201389 14.725694 21.236111 C 14.621528 21.298611 14.604167 21.291667 14.604167 21.1875 C 14.604167 21.138889 14.711806 21.065972 15 20.927083 C 15.465278 20.694444 16.069444 20.548611 16.559028 20.548611 Z M 17.295139 20.809028 L 17.295139 20.927083 C 17.295139 21.083333 17.333333 21.253472 17.4375 21.565972 C 17.583333 22.010417 17.756944 22.309028 18 22.552083 C 18.15625 22.701389 18.420139 22.885417 18.465278 22.871528 C 18.479167 22.864583 18.486111 22.868056 18.479167 22.878472 C 18.465278 22.899306 18.6875 22.996528 18.881944 23.059028 C 19.388889 23.211806 20.416667 23.267361 21.121528 23.177083 C 21.934028 23.072917 22.829861 22.798611 23.583333 22.423611 C 23.854167 22.288194 24.006944 22.197917 24.378472 21.954861 C 24.538194 21.854167 24.670139 21.774306 24.673611 21.777778 C 24.677083 21.78125 24.652778 21.805556 24.618056 21.833333 C 23.600694 22.604167 22.125 23.138889 20.690972 23.260417 C 20.420139 23.284722 19.881944 23.28125 19.621528 23.256944 C 19.201389 23.21875 18.736111 23.111111 18.395833 22.975694 C 17.975694 22.802083 17.753472 22.583333 17.538194 22.128472 C 17.347222 21.729167 17.100694 20.913194 17.177083 20.934028 C 17.1875 20.9375 17.21875 20.909722 17.246528 20.875 Z M 15.864583 20.826389 C 15.885417 20.826389 15.895833 20.833333 15.90625 20.847222 C 15.920139 20.864583 15.930556 20.888889 15.930556 20.895833 C 15.930556 20.902778 15.868056 20.927083 15.791667 20.951389 C 15.715278 20.972222 15.614583 21.003472 15.565972 21.017361 C 15.451389 21.055556 15.430556 21.052083 15.430556 21 C 15.430556 20.947917 15.482639 20.923611 15.739583 20.854167 C 15.805556 20.836806 15.84375 20.826389 15.864583 20.826389 Z M 16.756944 20.840278 C 16.885417 20.84375 16.993056 20.854167 17.045139 20.878472 C 17.114583 20.90625 17.114583 20.90625 17.138889 21.076389 C 17.149306 21.170139 17.152778 21.25 17.145833 21.256944 C 17.138889 21.263889 16.850694 21.368056 16.503472 21.489583 L 15.875 21.711806 L 15.243056 21.826389 C 14.899306 21.892361 14.590278 21.947917 14.5625 21.954861 C 14.517361 21.965278 14.510417 21.954861 14.472222 21.850694 C 14.451389 21.791667 14.430556 21.725694 14.430556 21.704861 C 14.430556 21.652778 14.600694 21.489583 14.75 21.395833 C 15.125 21.163194 15.784722 20.944444 16.354167 20.861111 C 16.482639 20.84375 16.628472 20.836806 16.756944 20.840278 Z M 12.479167 20.881944 C 12.871528 20.888889 13.267361 20.951389 13.53125 21.045139 C 13.732639 21.118056 13.989583 21.253472 14.017361 21.302083 C 14.027778 21.322917 14.055556 21.357639 14.079861 21.375 C 14.100694 21.392361 14.149306 21.46875 14.180556 21.541667 C 14.215278 21.614583 14.256944 21.6875 14.274306 21.697917 C 14.319444 21.736111 14.40625 21.951389 14.46875 22.170139 C 14.666667 22.885417 14.673611 23.4375 14.479167 23.815972 C 14.319444 24.128472 13.777778 24.666667 13.309028 24.979167 C 12.333333 25.628472 11.090278 26.048611 9.746528 26.173611 C 9.243056 26.222222 8.53125 26.201389 8.246528 26.128472 C 8.173611 26.111111 8.177083 26.107639 8.277778 26.118056 C 8.336806 26.125 8.454861 26.135417 8.545139 26.149306 C 8.791667 26.177083 9.510417 26.173611 9.84375 26.138889 C 10.684028 26.048611 11.475694 25.840278 12.208333 25.517361 C 12.527778 25.378472 12.909722 25.170139 12.986111 25.097222 C 13.013889 25.069444 13.125 24.986111 13.229167 24.909722 C 13.822917 24.493056 14.28125 23.979167 14.392361 23.611111 C 14.40625 23.565972 14.423611 23.534722 14.430556 23.538194 C 14.465278 23.559028 14.496528 23.336806 14.496528 23.079861 C 14.493056 22.854167 14.482639 22.756944 14.423611 22.447917 C 14.322917 21.9375 14.302083 21.875 14.208333 21.722222 C 14.107639 21.559028 14.003472 21.461806 13.822917 21.354167 C 13.378472 21.090278 12.822917 20.979167 11.940972 20.965278 L 11.708333 20.961806 L 11.892361 20.940972 L 12.076389 20.916667 L 11.951389 20.909722 C 11.854167 20.90625 11.888889 20.902778 12.09375 20.888889 C 12.21875 20.878472 12.350694 20.878472 12.479167 20.881944 Z M 11.680556 20.96875 C 11.680556 20.975694 11.552083 20.996528 11.395833 21.013889 C 9.805556 21.204861 8.600694 21.635417 7.413194 22.434028 C 7.010417 22.704861 6.736111 22.916667 6.579861 23.076389 C 6.416667 23.239583 6.385417 23.295139 6.34375 23.482639 C 6.288194 23.760417 6.402778 24.298611 6.638889 24.850694 C 6.684028 24.951389 6.71875 25.045139 6.71875 25.055556 C 6.71875 25.0625 6.701389 25.076389 6.680556 25.083333 C 6.631944 25.09375 6.555556 24.989583 6.440972 24.746528 C 6.354167 24.5625 6.246528 24.232639 6.270833 24.222222 C 6.333333 24.201389 6.333333 24.184028 6.284722 24.076389 C 6.25 24 6.229167 23.913194 6.215278 23.770833 C 6.190972 23.520833 6.215278 23.430556 6.357639 23.215278 C 6.479167 23.027778 6.638889 22.868056 6.940972 22.635417 C 7.993056 21.822917 9.173611 21.302083 10.46875 21.076389 C 10.892361 21.003472 11.680556 20.934028 11.680556 20.96875 Z M 12.482639 21.038194 C 13.065972 21.0625 13.472222 21.1875 13.857639 21.440972 C 14.006944 21.538194 14.076389 21.618056 14.170139 21.802083 C 14.274306 22.010417 14.274306 22.013889 14.177083 22.027778 C 13.638889 22.111111 11.135417 22.621528 9.940972 22.895833 C 9.597222 22.975694 9.569444 23.010417 9.631944 23.270833 C 9.645833 23.333333 9.659722 23.399306 9.659722 23.416667 C 9.659722 23.451389 9.395833 23.545139 8.947917 23.670139 C 8.392361 23.826389 6.6875 24.25 6.631944 24.25 C 6.600694 24.246528 6.555556 24.253472 6.53125 24.263889 C 6.482639 24.277778 6.46875 24.256944 6.461806 24.159722 C 6.458333 24.083333 6.430556 24.097222 7.381944 23.788194 C 8.295139 23.493056 8.59375 23.399306 8.96875 23.298611 C 9.322917 23.204861 9.336806 23.201389 9.211806 23.215278 C 9.006944 23.236111 8.6875 23.329861 7.989583 23.559028 C 6.850694 23.9375 6.465278 24.048611 6.430556 24.013889 C 6.399306 23.982639 6.385417 23.583333 6.409722 23.475694 C 6.461806 23.263889 6.645833 23.052083 7.038194 22.75 C 7.961806 22.034722 8.888889 21.579861 9.982639 21.302083 C 10.555556 21.159722 11.100694 21.079861 11.836806 21.045139 C 12.072917 21.03125 12.288194 21.03125 12.482639 21.038194 Z M 20.788194 21.836806 C 21.590278 21.840278 22.357639 21.930556 23.326389 22.107639 C 23.579861 22.152778 23.791667 22.190972 23.802083 22.190972 C 23.850694 22.190972 23.760417 22.246528 23.510417 22.371528 C 22.725694 22.760417 21.864583 23.017361 20.989583 23.118056 C 20.6875 23.15625 20.079861 23.170139 19.826389 23.145833 C 19.083333 23.083333 18.427083 22.871528 18.125 22.600694 C 17.96875 22.458333 17.75 22.152778 17.784722 22.121528 C 17.791667 22.114583 17.902778 22.09375 18.03125 22.072917 C 19.145833 21.909722 19.986111 21.829861 20.788194 21.836806 Z M 18.611111 22.923611 C 18.614583 22.916667 18.638889 22.923611 18.659722 22.9375 C 18.680556 22.947917 18.802083 22.986111 18.923611 23.020833 C 19.048611 23.059028 19.135417 23.086806 19.114583 23.086806 C 19.03125 23.086806 18.590278 22.940972 18.611111 22.923611 Z M 14.416667 23.013889 C 14.430556 23.013889 14.434028 23.083333 14.427083 23.229167 C 14.40625 23.59375 14.315972 23.809028 14.034722 24.142361 C 13.336806 24.975694 12.125 25.625 10.708333 25.927083 C 10.534722 25.961806 10.392361 25.993056 10.385417 25.993056 C 10.354167 25.854167 10.309028 25.697917 10.288194 25.548611 L 10.239583 25.427083 L 10.215278 25.270833 L 10.381944 25.125 C 11.239583 24.465278 12.236111 23.899306 13.381944 23.423611 C 13.864583 23.222222 14.392361 23.013889 14.416667 23.013889 Z M 19.177083 23.097222 C 19.1875 23.090278 19.211806 23.090278 19.222222 23.097222 C 19.236111 23.100694 19.225694 23.104167 19.197917 23.104167 C 19.173611 23.104167 19.163194 23.100694 19.177083 23.097222 Z M 19.291667 23.114583 C 19.305556 23.111111 19.326389 23.111111 19.340278 23.114583 C 19.354167 23.121528 19.340278 23.125 19.315972 23.125 C 19.288194 23.125 19.277778 23.121528 19.291667 23.114583 Z M 19.427083 23.135417 C 19.440972 23.128472 19.458333 23.128472 19.465278 23.135417 C 19.472222 23.142361 19.458333 23.145833 19.4375 23.145833 C 19.416667 23.145833 19.413194 23.138889 19.427083 23.131944 Z M 11.541667 23.319444 C 11.548611 23.319444 11.430556 23.385417 11.277778 23.465278 C 10.454861 23.895833 9.708333 24.416667 8.642361 25.309028 C 8.458333 25.461806 8.222222 25.666667 8.114583 25.763889 C 8.010417 25.857639 7.920139 25.934028 7.913194 25.934028 C 7.875 25.930556 7.586806 25.815972 7.510417 25.770833 C 7.201389 25.597222 6.923611 25.274306 6.704861 24.836806 C 6.625 24.684028 6.527778 24.451389 6.527778 24.423611 C 6.527778 24.385417 7.5 24.104167 8.506944 23.854167 C 9.079861 23.711806 9.21875 23.673611 9.559028 23.548611 L 9.673611 23.503472 L 9.725694 23.555556 C 9.75 23.579861 9.795139 23.611111 9.819444 23.614583 C 9.871528 23.628472 10.163194 23.579861 10.982639 23.423611 C 11.28125 23.364583 11.53125 23.319444 11.541667 23.319444 Z M 6.204861 24.253472 C 6.211806 24.260417 6.222222 24.295139 6.225694 24.333333 L 6.229167 24.399306 L 6.065972 24.440972 C 5.909722 24.479167 5.777778 24.493056 5.725694 24.472222 C 5.694444 24.458333 5.694444 24.395833 5.722222 24.378472 C 5.767361 24.350694 6.190972 24.239583 6.204861 24.253472 Z M 10.024306 25.548611 C 10.027778 25.572917 10.034722 25.635417 10.048611 25.6875 C 10.065972 25.770833 10.076389 25.784722 10.114583 25.784722 C 10.159722 25.784722 10.166667 25.798611 10.1875 25.993056 C 10.190972 26.013889 10.149306 26.027778 10.017361 26.045139 C 9.923611 26.055556 9.704861 26.072917 9.538194 26.079861 L 9.229167 26.090278 L 9.319444 26.006944 C 9.371528 25.958333 9.545139 25.809028 9.704861 25.677083 Z M 10.024306 25.548611 " transform="matrix(1.125,0,0,1.125,0,0)"/>
</g>
</svg>
