<?xml version="1.0" encoding="UTF-8"?>
<svg xmlns="http://www.w3.org/2000/svg" xmlns:xlink="http://www.w3.org/1999/xlink" width="36pt" height="36pt" viewBox="0 0 36 36" version="1.1">
<g id="surface1">
<path style=" stroke:none;fill-rule:evenodd;fill:rgb(14.509804%,47.058824%,20%);fill-opacity:1;" d="M 8.40625 2.136719 L 27.59375 2.136719 C 31.054688 2.136719 33.863281 4.945312 33.863281 8.40625 L 33.863281 27.59375 C 33.863281 31.054688 31.054688 33.863281 27.59375 33.863281 L 8.40625 33.863281 C 4.945312 33.863281 2.136719 31.054688 2.136719 27.59375 L 2.136719 8.40625 C 2.136719 4.945312 4.945312 2.136719 8.40625 2.136719 Z M 8.40625 2.136719 "/>
<path style=" stroke:none;fill-rule:nonzero;fill:rgb(29.411765%,68.235294%,30.980392%);fill-opacity:1;" d="M 5.929688 21.167969 L 14.832031 30.070312 C 15.128906 30.367188 15.605469 30.367188 15.902344 30.070312 L 24.804688 21.167969 C 25.101562 20.871094 25.101562 20.394531 24.804688 20.097656 L 15.902344 11.195312 C 15.605469 10.898438 15.128906 10.898438 14.832031 11.195312 L 5.929688 20.097656 C 5.632812 20.394531 5.632812 20.871094 5.929688 21.167969 Z M 5.929688 21.167969 "/>
<path style=" stroke:none;fill-rule:nonzero;fill:rgb(29.411765%,68.235294%,30.980392%);fill-opacity:1;" d="M 11.195312 21.167969 L 20.097656 30.070312 C 20.394531 30.367188 20.871094 30.367188 21.167969 30.070312 L 30.070312 21.167969 C 30.367188 20.871094 30.367188 20.394531 30.070312 20.097656 L 21.167969 11.195312 C 20.871094 10.898438 20.394531 10.898438 20.097656 11.195312 L 11.195312 20.097656 C 10.898438 20.394531 10.898438 20.871094 11.195312 21.167969 Z M 11.195312 21.167969 "/>
<path style=" stroke:none;fill-rule:nonzero;fill:rgb(96.078431%,51.764706%,6.666667%);fill-opacity:1;" d="M 5.988281 18.679688 L 17.320312 30.011719 C 17.695312 30.386719 18.304688 30.386719 18.679688 30.011719 L 30.011719 18.679688 C 30.386719 18.304688 30.386719 17.695312 30.011719 17.320312 L 18.679688 5.988281 C 18.304688 5.613281 17.695312 5.613281 17.320312 5.988281 L 5.988281 17.320312 C 5.613281 17.695312 5.613281 18.304688 5.988281 18.679688 Z M 5.988281 18.679688 "/>
<path style=" stroke:none;fill-rule:nonzero;fill:rgb(100%,100%,100%);fill-opacity:1;" d="M 18.878906 22.828125 C 19.566406 22.773438 19.664062 22.597656 20.023438 22.285156 C 20.390625 21.972656 20.4375 21.609375 20.4375 21.070312 C 20.4375 20.585938 20.46875 20.03125 20.109375 19.691406 C 19.75 19.347656 19.574219 19.050781 18.878906 18.875 Z M 17.121094 13.167969 C 16.492188 13.207031 16.300781 13.445312 15.953125 13.746094 C 15.605469 14.042969 15.558594 14.425781 15.558594 14.925781 C 15.558594 15.378906 15.589844 15.769531 15.910156 16.070312 C 16.230469 16.371094 16.4375 16.492188 17.121094 16.679688 Z M 13.609375 22.828125 L 13.609375 20.632812 L 14.582031 20.632812 C 14.609375 21.410156 14.828125 21.742188 15.292969 22.140625 C 15.757812 22.539062 16.203125 22.8125 17.121094 22.828125 L 17.121094 18.875 C 15.714844 18.511719 15.03125 17.855469 14.460938 17.382812 C 13.894531 16.90625 13.609375 16.277344 13.609375 15.492188 C 13.609375 14.585938 13.945312 13.855469 14.617188 13.304688 C 15.289062 12.753906 15.925781 12.359375 17.121094 12.289062 L 17.121094 10.09375 L 18.878906 10.09375 L 18.878906 12.289062 C 19.492188 12.488281 19.699219 12.535156 20.113281 12.65625 C 20.710938 12.839844 21.359375 12.980469 21.902344 13.210938 L 21.902344 15.363281 L 20.925781 15.363281 C 20.851562 14.707031 20.582031 14.207031 20.164062 13.828125 C 19.742188 13.445312 19.597656 13.21875 18.878906 13.167969 L 18.878906 17.121094 C 20.378906 17.5 20.886719 17.902344 21.484375 18.394531 C 22.089844 18.882812 22.390625 19.371094 22.390625 20.195312 C 22.390625 21.136719 21.996094 22.007812 21.328125 22.625 C 20.699219 23.214844 20.164062 23.621094 18.878906 23.707031 L 18.878906 25.902344 L 17.121094 25.902344 L 17.121094 23.707031 C 16.554688 23.582031 16.226562 23.515625 15.597656 23.367188 C 14.96875 23.226562 14.292969 23.113281 13.609375 22.828125 Z M 13.609375 22.828125 "/>
</g>
</svg>
