<?xml version="1.0" encoding="UTF-8"?>
<svg xmlns="http://www.w3.org/2000/svg" xmlns:xlink="http://www.w3.org/1999/xlink" width="36pt" height="36pt" viewBox="0 0 36 36" version="1.1">
<g id="surface1">
<path style=" stroke:none;fill-rule:evenodd;fill:rgb(18.823529%,21.960784%,46.666667%);fill-opacity:1;" d="M 8.40625 2.136719 L 27.59375 2.136719 C 31.054688 2.136719 33.863281 4.945312 33.863281 8.40625 L 33.863281 27.59375 C 33.863281 31.054688 31.054688 33.863281 27.59375 33.863281 L 8.40625 33.863281 C 4.945312 33.863281 2.136719 31.054688 2.136719 27.59375 L 2.136719 8.40625 C 2.136719 4.945312 4.945312 2.136719 8.40625 2.136719 Z M 8.40625 2.136719 "/>
<path style=" stroke:none;fill-rule:nonzero;fill:rgb(61.176471%,61.176471%,61.176471%);fill-opacity:1;" d="M 18 10.125 C 15.527344 10.128906 13.058594 10.734375 11.175781 11.929688 C 7.035156 14.558594 6.75 19.113281 10.554688 21.90625 C 10.902344 22.160156 11.222656 22.394531 11.261719 22.425781 L 10.207031 24.296875 L 12.375 25.875 L 18 16.515625 L 23.625 25.875 L 25.792969 24.296875 L 24.738281 22.425781 C 24.777344 22.394531 25.097656 22.160156 25.445312 21.90625 C 29.25 19.113281 28.964844 14.558594 24.824219 11.929688 C 22.941406 10.734375 20.472656 10.128906 18 10.125 Z M 17.429688 11.25 L 12.367188 20.25 C 6.742188 15.75 12.929688 11.25 17.429688 11.25 Z M 18.5625 11.25 C 23.0625 11.25 29.25 15.75 23.625 20.25 Z M 18 19.125 L 15.75 22.496094 L 18 25.875 L 20.25 22.496094 Z M 18 19.125 "/>
</g>
</svg>
