<?xml version="1.0" encoding="UTF-8"?>
<svg xmlns="http://www.w3.org/2000/svg" xmlns:xlink="http://www.w3.org/1999/xlink" width="36pt" height="36pt" viewBox="0 0 36 36" version="1.1">
<g id="surface1">
<path style=" stroke:none;fill-rule:evenodd;fill:rgb(100%,100%,74.901961%);fill-opacity:1;" d="M 2.136719 14.667969 L 2.136719 27.59375 C 2.136719 31.066406 4.933594 33.863281 8.40625 33.863281 L 27.589844 33.863281 C 31.066406 33.863281 33.863281 31.066406 33.863281 27.59375 L 33.863281 14.667969 Z M 2.136719 14.667969 "/>
<path style=" stroke:none;fill-rule:evenodd;fill:rgb(40.392157%,39.607843%,96.470588%);fill-opacity:1;" d="M 2.136719 14.667969 L 33.863281 14.667969 L 33.863281 8.410156 C 33.863281 4.933594 31.066406 2.136719 27.589844 2.136719 L 8.40625 2.136719 C 4.933594 2.136719 2.136719 4.933594 2.136719 8.410156 Z M 2.136719 14.667969 "/>
<path style=" stroke:none;fill-rule:nonzero;fill:rgb(24.705882%,24.705882%,24.705882%);fill-opacity:1;" d="M 8.09375 14.667969 L 14.824219 14.667969 L 14.824219 21.402344 L 8.09375 21.402344 Z M 8.09375 14.667969 "/>
<path style=" stroke:none;fill-rule:nonzero;fill:rgb(24.705882%,24.705882%,24.705882%);fill-opacity:1;" d="M 21.558594 14.667969 L 28.292969 14.667969 L 28.292969 21.402344 L 21.558594 21.402344 Z M 21.558594 14.667969 "/>
</g>
</svg>
