<?xml version="1.0" encoding="UTF-8"?>
<svg xmlns="http://www.w3.org/2000/svg" xmlns:xlink="http://www.w3.org/1999/xlink" width="36pt" height="36pt" viewBox="0 0 36 36" version="1.1">
<g id="surface1">
<path style=" stroke:none;fill-rule:evenodd;fill:rgb(100%,100%,100%);fill-opacity:1;" d="M 8.40625 2.136719 L 27.59375 2.136719 C 31.054688 2.136719 33.863281 4.945312 33.863281 8.40625 L 33.863281 27.59375 C 33.863281 31.054688 31.054688 33.863281 27.59375 33.863281 L 8.40625 33.863281 C 4.945312 33.863281 2.136719 31.054688 2.136719 27.59375 L 2.136719 8.40625 C 2.136719 4.945312 4.945312 2.136719 8.40625 2.136719 Z M 8.40625 2.136719 "/>
<path style=" stroke:none;fill-rule:nonzero;fill:rgb(80%,80%,80%);fill-opacity:1;" d="M 18 4.386719 L 18 10.21875 C 21.222656 10.21875 23.835938 13.703125 23.835938 18 C 23.835938 22.296875 21.222656 25.78125 18 25.78125 C 16.390625 25.78125 15.082031 27.085938 15.082031 28.695312 C 15.082031 30.308594 16.390625 31.613281 18 31.613281 C 18.082031 31.613281 18.167969 31.609375 18.25 31.601562 C 25.675781 31.46875 31.613281 25.457031 31.613281 18 C 31.613281 10.457031 25.542969 4.386719 18 4.386719 Z M 18 4.386719 "/>
<path style=" stroke:none;fill-rule:nonzero;fill:rgb(90.588235%,29.803922%,23.529412%);fill-opacity:1;" d="M 18 4.386719 C 17.917969 4.386719 17.832031 4.390625 17.75 4.398438 C 10.324219 4.53125 4.386719 10.542969 4.386719 18 C 4.386719 25.445312 10.304688 31.445312 17.710938 31.597656 C 16.21875 31.449219 15.082031 30.195312 15.082031 28.695312 C 15.082031 27.085938 16.390625 25.78125 18 25.78125 C 14.777344 25.78125 12.164062 22.296875 12.164062 18 C 12.164062 13.703125 14.777344 10.21875 18 10.21875 C 19.609375 10.21875 20.917969 8.914062 20.917969 7.304688 C 20.917969 5.691406 19.609375 4.386719 18 4.386719 Z M 18 4.386719 "/>
</g>
</svg>
