<?xml version="1.0" encoding="UTF-8"?>
<svg xmlns="http://www.w3.org/2000/svg" xmlns:xlink="http://www.w3.org/1999/xlink" width="36pt" height="36pt" viewBox="0 0 36 36" version="1.1">
<g id="surface1">
<path style=" stroke:none;fill-rule:evenodd;fill:rgb(38.823529%,65.882353%,82.745098%);fill-opacity:1;" d="M 4.890625 32.652344 L 25.480469 12.738281 C 24.890625 11.273438 24.304688 10.023438 23.753906 9.113281 C 23.207031 8.203125 22.699219 7.628906 22.253906 7.511719 C 22.148438 7.480469 22.027344 7.472656 21.886719 7.484375 C 21.351562 7.527344 20.589844 7.867188 19.667969 8.429688 C 18.742188 8.992188 17.65625 9.777344 16.476562 10.71875 C 14.117188 12.609375 11.382812 15.125 8.808594 17.734375 C 6.246094 20.332031 3.847656 23.019531 2.132812 25.269531 L 2.132812 27.59375 C 2.132812 29.734375 3.265625 31.519531 4.890625 32.652344 Z M 4.890625 32.652344 "/>
<path style=" stroke:none;fill-rule:evenodd;fill:rgb(80.392157%,89.411765%,99.215686%);fill-opacity:1;" d="M 30.796875 32.863281 C 30.773438 32.699219 30.785156 32.601562 30.761719 32.433594 C 30.332031 29.363281 29.484375 25.519531 28.457031 21.773438 L 15.960938 33.863281 L 27.59375 33.863281 C 28.789062 33.863281 29.84375 33.441406 30.796875 32.863281 Z M 30.796875 32.863281 "/>
<path style=" stroke:none;fill-rule:evenodd;fill:rgb(61.176471%,78.039216%,95.686275%);fill-opacity:1;" d="M 28.417969 21.8125 C 28.429688 21.78125 28.449219 21.761719 28.460938 21.730469 C 27.550781 18.425781 26.511719 15.210938 25.480469 12.660156 C 25.46875 12.664062 25.460938 12.671875 25.453125 12.675781 C 25.460938 12.699219 25.46875 12.710938 25.480469 12.738281 L 4.890625 32.652344 C 5.90625 33.355469 7.074219 33.863281 8.40625 33.863281 L 15.960938 33.863281 Z M 28.417969 21.8125 "/>
<path style=" stroke:none;fill-rule:evenodd;fill:rgb(0%,49.411765%,100%);fill-opacity:1;" d="M 8.40625 2.136719 C 4.933594 2.136719 2.132812 4.933594 2.132812 8.40625 L 2.132812 25.269531 C 3.847656 23.019531 6.246094 20.332031 8.808594 17.734375 C 11.382812 15.125 14.117188 12.609375 16.476562 10.71875 C 17.65625 9.777344 18.742188 8.992188 19.667969 8.429688 C 20.589844 7.867188 21.351562 7.527344 21.886719 7.484375 C 22.027344 7.472656 22.148438 7.480469 22.253906 7.511719 C 22.699219 7.628906 23.207031 8.203125 23.753906 9.113281 C 24.292969 10.007812 24.871094 11.242188 25.453125 12.675781 C 25.460938 12.671875 25.46875 12.664062 25.480469 12.660156 C 26.511719 15.210938 27.550781 18.425781 28.460938 21.730469 C 28.449219 21.761719 28.429688 21.78125 28.417969 21.8125 L 28.457031 21.773438 C 28.457031 21.773438 28.457031 21.773438 28.457031 21.769531 L 28.460938 21.769531 L 28.457031 21.773438 C 29.484375 25.519531 30.332031 29.363281 30.761719 32.433594 C 30.785156 32.601562 30.773438 32.699219 30.796875 32.863281 C 32.601562 31.765625 33.867188 29.871094 33.867188 27.59375 L 33.867188 8.40625 C 33.867188 4.933594 31.066406 2.136719 27.59375 2.136719 Z M 8.40625 2.136719 "/>
</g>
</svg>
