<?xml version="1.0" encoding="UTF-8"?>
<svg xmlns="http://www.w3.org/2000/svg" xmlns:xlink="http://www.w3.org/1999/xlink" width="36pt" height="36pt" viewBox="0 0 36 36" version="1.1">
<defs>
<linearGradient id="linear0" gradientUnits="userSpaceOnUse" x1="18.033899" y1="-8.271187" x2="17.634579" y2="6.68057" gradientTransform="matrix(1.125,0,0,1.125,-1.677967,12.88983)">
<stop offset="0" style="stop-color:rgb(100%,62.745098%,0.392157%);stop-opacity:1;"/>
<stop offset="1" style="stop-color:rgb(100%,49.803922%,0.392157%);stop-opacity:0;"/>
</linearGradient>
<linearGradient id="linear1" gradientUnits="userSpaceOnUse" x1="14.169707" y1="35.254238" x2="14.447506" y2="26.193838" gradientTransform="matrix(1.125,0,0,1.125,-0.43193,-6.073224)">
<stop offset="0" style="stop-color:rgb(97.254902%,69.803922%,28.627451%);stop-opacity:1;"/>
<stop offset="1" style="stop-color:rgb(97.254902%,69.803922%,28.627451%);stop-opacity:0;"/>
</linearGradient>
</defs>
<g id="surface1">
<path style=" stroke:none;fill-rule:evenodd;fill:rgb(26.666667%,22.352941%,9.803922%);fill-opacity:1;" d="M 8.40625 2.136719 L 27.59375 2.136719 C 31.054688 2.136719 33.863281 4.945312 33.863281 8.40625 L 33.863281 27.59375 C 33.863281 31.054688 31.054688 33.863281 27.59375 33.863281 L 8.40625 33.863281 C 4.945312 33.863281 2.136719 31.054688 2.136719 27.59375 L 2.136719 8.40625 C 2.136719 4.945312 4.945312 2.136719 8.40625 2.136719 Z M 8.40625 2.136719 "/>
<path style=" stroke:none;fill-rule:evenodd;fill:rgb(100%,85.882353%,37.647059%);fill-opacity:1;" d="M 8.40625 2.136719 L 27.59375 2.136719 C 31.054688 2.136719 33.863281 4.945312 33.863281 8.40625 L 33.863281 27.59375 C 33.863281 31.054688 31.054688 33.863281 27.59375 33.863281 L 8.40625 33.863281 C 4.945312 33.863281 2.136719 31.054688 2.136719 27.59375 L 2.136719 8.40625 C 2.136719 4.945312 4.945312 2.136719 8.40625 2.136719 Z M 8.40625 2.136719 "/>
<path style=" stroke:none;fill-rule:evenodd;fill:url(#linear0);" d="M 8.40625 2.136719 L 27.59375 2.136719 C 31.054688 2.136719 33.863281 4.945312 33.863281 8.40625 L 33.863281 27.59375 C 33.863281 31.054688 31.054688 33.863281 27.59375 33.863281 L 8.40625 33.863281 C 4.945312 33.863281 2.136719 31.054688 2.136719 27.59375 L 2.136719 8.40625 C 2.136719 4.945312 4.945312 2.136719 8.40625 2.136719 Z M 8.40625 2.136719 "/>
<path style=" stroke:none;fill-rule:nonzero;fill:rgb(44.313725%,38.823529%,0%);fill-opacity:1;" d="M 19.519531 9.605469 C 17.3125 9.605469 15.527344 11.355469 15.527344 13.515625 C 15.527344 14.496094 15.90625 15.4375 16.585938 16.160156 C 16.210938 16.726562 16.011719 17.40625 16.011719 18.101562 C 16.011719 19.960938 17.410156 21.472656 19.140625 21.46875 C 20.003906 21.46875 20.832031 21.082031 21.421875 20.398438 C 21.640625 20.535156 21.882812 20.605469 22.132812 20.605469 C 22.886719 20.605469 23.53125 19.960938 23.648438 19.085938 C 24.136719 19.304688 24.667969 19.417969 25.207031 19.421875 C 27.304688 19.421875 29.007812 17.71875 29.011719 15.617188 C 29.011719 13.519531 27.308594 11.816406 25.207031 11.816406 C 24.542969 11.816406 23.890625 11.996094 23.316406 12.328125 C 22.789062 10.707031 21.253906 9.609375 19.519531 9.605469 Z M 19.519531 9.605469 "/>
<path style=" stroke:none;fill-rule:nonzero;fill:rgb(30.196078%,22.745098%,0.784314%);fill-opacity:1;" d="M 23.984375 22.304688 C 23.957031 22.183594 23.757812 21.511719 23.757812 21.511719 C 23.230469 20.488281 22.496094 19.761719 21.71875 19.097656 C 18.871094 19.535156 18.613281 20.265625 18.160156 20.40625 L 17.917969 20.3125 C 18.609375 19.519531 19.632812 19.34375 20.535156 18.9375 L 18.808594 18.289062 L 18.863281 18.03125 L 21.34375 18.828125 C 21.25 18.441406 20.769531 18.054688 20.332031 17.667969 L 20.5625 17.453125 C 20.941406 17.824219 21.34375 18.269531 21.695312 18.542969 C 22.332031 19.382812 22.96875 19.660156 23.609375 20.214844 L 23.648438 19.085938 C 22.355469 17.832031 21.246094 17.3125 20.238281 17.210938 L 20.144531 16.953125 C 21.023438 17.175781 21.761719 17.171875 23.042969 18.03125 C 22.675781 17.550781 22.363281 16.964844 22.136719 16.199219 L 22.394531 16.144531 C 22.6875 17.316406 23.152344 17.714844 23.539062 18.316406 C 23.558594 16.402344 23.898438 15.332031 24.269531 14.339844 L 24.566406 14.609375 C 23.304688 17.371094 24.296875 20.226562 25.039062 21.742188 Z M 23.984375 22.304688 "/>
<path style=" stroke:none;fill-rule:evenodd;fill:rgb(100%,98.431373%,62.745098%);fill-opacity:1;" d="M 23.777344 33.84375 L 27.863281 25.457031 L 20.351562 24.121094 L 12.761719 22.941406 L 12.839844 22.671875 L 9.3125 22.652344 L 15.46875 24.082031 L 9.558594 24.691406 L 9.140625 25.914062 L 13.90625 27.097656 L 3.304688 29.613281 L 5.355469 32.261719 C 5.488281 32.269531 7.785156 33.816406 7.917969 33.816406 Z M 23.777344 33.84375 "/>
<path style=" stroke:none;fill-rule:evenodd;fill:url(#linear1);" d="M 23.777344 33.84375 L 27.863281 25.457031 L 20.351562 24.121094 L 12.761719 22.941406 L 12.839844 22.671875 L 9.3125 22.652344 L 15.46875 24.082031 L 9.558594 24.691406 L 9.140625 25.914062 L 13.90625 27.097656 L 3.304688 29.613281 L 5.355469 32.261719 C 5.488281 32.269531 7.757812 33.84375 7.890625 33.84375 C 11.863281 33.890625 18.480469 33.84375 23.777344 33.84375 Z M 23.777344 33.84375 "/>
<path style=" stroke:none;fill-rule:nonzero;fill:rgb(99.607843%,69.803922%,0.784314%);fill-opacity:1;" d="M 9.621094 22.925781 L 23.894531 23.171875 L 23.859375 22.046875 L 19.851562 21.855469 L 19.253906 21.34375 L 18.65625 21.835938 L 17.636719 21.660156 L 16.441406 22.328125 L 14.140625 21.433594 L 13.648438 21.679688 L 13.3125 21.960938 L 12.066406 22.03125 Z M 9.621094 22.925781 "/>
<path style=" stroke:none;fill-rule:evenodd;fill:rgb(86.27451%,72.941176%,26.666667%);fill-opacity:1;" d="M 10.191406 25.679688 L 11.367188 26.054688 C 11.367188 26.054688 10.671875 25.5 10.640625 25.316406 C 10.609375 25.132812 10.652344 24.898438 10.9375 24.703125 C 11.507812 24.308594 16.386719 24.464844 16.347656 24.285156 C 16.304688 24.105469 9.582031 22.742188 8.007812 22.191406 C 7.722656 21.976562 5.976562 21.675781 4.796875 21.550781 C 4.214844 21.339844 2.816406 20.886719 2.125 20.917969 L 2.125 25.007812 C 3.492188 24.992188 4.75 24.957031 6.734375 25.046875 C 7.886719 25.1875 9.039062 25.480469 10.191406 25.679688 Z M 10.191406 25.679688 "/>
<path style=" stroke:none;fill-rule:evenodd;fill:rgb(76.078431%,64.705882%,14.509804%);fill-opacity:1;" d="M 3.304688 29.613281 C 7.386719 28.65625 10.28125 28.15625 14.472656 27.257812 C 14.351562 27.015625 14.09375 26.628906 13.070312 26.410156 C 10.878906 25.714844 8.929688 25.351562 6.734375 25.046875 C 4.859375 24.949219 3.421875 24.992188 2.125 25.007812 C 2.140625 26.335938 2.042969 28 2.246094 28.746094 Z M 3.304688 29.613281 "/>
<path style=" stroke:none;fill-rule:evenodd;fill:rgb(24.705882%,20%,1.176471%);fill-opacity:1;" d="M 8.019531 33.851562 L 8.523438 33.324219 C 8.804688 33.089844 8.902344 32.867188 8.898438 32.652344 C 8.894531 32.433594 8.78125 32.222656 8.636719 32.011719 C 6.628906 30.832031 4.667969 29.835938 2.742188 28.957031 C 2.554688 28.871094 2.433594 28.824219 2.246094 28.746094 C 2.753906 31.554688 5.054688 33.761719 8.019531 33.851562 Z M 8.019531 33.851562 "/>
<path style=" stroke:none;fill-rule:nonzero;fill:rgb(86.27451%,72.941176%,26.666667%);fill-opacity:1;" d="M 18.230469 24.140625 C 20.085938 24.722656 22.007812 25.085938 24.109375 24.882812 L 25.972656 22.644531 C 21.96875 22.558594 19.613281 23.148438 18.230469 24.140625 Z M 18.230469 24.140625 "/>
<path style=" stroke:none;fill-rule:evenodd;fill:rgb(26.666667%,22.352941%,9.803922%);fill-opacity:1;" d="M 33.863281 21.214844 L 33.425781 21.398438 C 32.976562 21.128906 32.566406 21.300781 31.984375 21.375 C 31.542969 21.144531 30.082031 20.789062 29 20.59375 C 28.285156 20.074219 27.296875 20.097656 26.351562 20.042969 C 25.480469 20.460938 23.964844 21.164062 23.730469 21.578125 L 22.65625 22.644531 C 22.367188 23.183594 22.378906 23.335938 22.714844 23.902344 C 22.425781 24.101562 21.976562 24.476562 21.628906 24.882812 C 21.277344 25.289062 21.023438 25.726562 21.117188 26.066406 L 21.613281 26.507812 C 20.378906 27.53125 19.785156 28.414062 18.980469 29.824219 C 18.980469 29.824219 18.765625 30.046875 18.875 30.320312 C 18.941406 30.488281 19.433594 30.917969 19.574219 31.109375 C 19.78125 31.390625 19.65625 31.429688 19.773438 31.617188 L 21.351562 33.855469 L 27.589844 33.855469 C 31.066406 33.855469 33.863281 31.0625 33.863281 27.585938 Z M 33.863281 21.214844 "/>
<path style=" stroke:none;fill-rule:evenodd;fill:rgb(17.254902%,10.980392%,5.098039%);fill-opacity:1;" d="M 29.457031 33.535156 C 27.703125 32.683594 24.1875 30.492188 24.441406 30.648438 C 24.726562 30.820312 25.738281 33.753906 25.738281 33.753906 C 25.738281 33.753906 22.726562 30.359375 22.078125 29.75 C 21.429688 29.140625 21.90625 29.292969 20.914062 29.160156 C 20.417969 29.09375 20.261719 29.230469 20.171875 29.449219 C 20.085938 29.667969 20.066406 29.96875 19.847656 30.226562 C 19.628906 30.484375 19.628906 30.484375 19.488281 30.4375 C 19.464844 30.429688 19.335938 30.433594 19.308594 30.425781 C 19.457031 30.625 19.78125 30.933594 19.902344 31.097656 C 20.109375 31.378906 19.984375 31.417969 20.101562 31.601562 L 21.574219 33.699219 L 21.71875 33.84375 L 27.917969 33.84375 C 28.464844 33.84375 28.953125 33.667969 29.457031 33.535156 Z M 29.457031 33.535156 "/>
<path style=" stroke:none;fill-rule:evenodd;fill:rgb(17.254902%,10.980392%,5.098039%);fill-opacity:1;" d="M 21.480469 26.535156 L 21.542969 26.617188 C 21.542969 26.617188 22.246094 25.957031 22.824219 25.726562 C 23.40625 25.5 24.175781 25.765625 24.175781 25.765625 C 24.175781 25.765625 24.28125 25.589844 25.546875 25.671875 C 26.816406 25.753906 30.011719 26.871094 30.011719 26.871094 C 30.011719 26.871094 28.351562 25.484375 26.921875 24.835938 C 26.207031 24.515625 25.546875 24.417969 25.066406 24.40625 C 24.582031 24.390625 24.28125 24.460938 24.28125 24.460938 L 21.410156 25.273438 C 21.304688 25.484375 21.09375 25.714844 21.144531 25.890625 L 21.636719 26.332031 C 21.5625 26.394531 21.550781 26.472656 21.480469 26.535156 Z M 21.480469 26.535156 "/>
<path style=" stroke:none;fill-rule:nonzero;fill:rgb(26.666667%,22.352941%,9.803922%);fill-opacity:1;" d="M 14.878906 33.582031 C 15.324219 33.714844 15.769531 33.859375 16.261719 33.859375 L 25.554688 33.859375 L 20.074219 31.230469 C 18.992188 31.324219 17.90625 31.15625 16.824219 31.582031 C 15.707031 32.089844 15.4375 32.46875 14.875 32.894531 C 14.679688 33.210938 14.769531 33.398438 14.878906 33.582031 Z M 14.878906 33.582031 "/>
<path style=" stroke:none;fill-rule:evenodd;fill:rgb(31.764706%,29.411765%,0.392157%);fill-opacity:1;" d="M 21.480469 2.136719 C 21.460938 2.152344 21.445312 2.171875 21.425781 2.1875 C 21.3125 2.304688 21.203125 2.429688 21.101562 2.554688 C 21 2.683594 20.90625 2.816406 20.816406 2.953125 C 20.753906 3.046875 20.695312 3.148438 20.640625 3.25 C 20.5625 3.390625 20.492188 3.539062 20.429688 3.691406 C 20.367188 3.839844 20.3125 3.992188 20.265625 4.148438 C 20.21875 4.304688 20.175781 4.464844 20.144531 4.625 C 20.113281 4.785156 20.09375 4.945312 20.078125 5.109375 C 20.0625 5.273438 20.054688 5.4375 20.058594 5.597656 C 20.058594 5.765625 20.070312 5.929688 20.089844 6.089844 C 20.105469 6.253906 20.132812 6.417969 20.167969 6.578125 C 20.183594 6.648438 20.199219 6.714844 20.214844 6.785156 C 20.09375 6.851562 19.976562 6.921875 19.863281 7 C 19.746094 7.074219 19.636719 7.15625 19.527344 7.246094 C 19.421875 7.332031 19.316406 7.425781 19.21875 7.523438 C 19.117188 7.621094 19.023438 7.726562 18.933594 7.832031 C 18.84375 7.9375 18.757812 8.050781 18.679688 8.164062 C 18.597656 8.28125 18.523438 8.402344 18.453125 8.523438 C 18.445312 8.539062 18.433594 8.558594 18.425781 8.574219 C 18.359375 8.699219 18.296875 8.824219 18.242188 8.953125 C 18.1875 9.082031 18.136719 9.214844 18.09375 9.347656 C 18.050781 9.480469 18.015625 9.617188 17.984375 9.753906 C 17.953125 9.886719 17.929688 10.027344 17.914062 10.164062 C 17.894531 10.300781 17.886719 10.441406 17.878906 10.578125 C 17.875 10.714844 17.878906 10.855469 17.890625 10.992188 C 17.898438 11.128906 17.914062 11.265625 17.933594 11.398438 C 17.957031 11.535156 17.988281 11.667969 18.023438 11.796875 C 18.058594 11.929688 18.101562 12.058594 18.148438 12.183594 C 18.195312 12.308594 18.25 12.429688 18.308594 12.550781 C 18.371094 12.667969 18.433594 12.785156 18.507812 12.898438 C 18.578125 13.007812 18.65625 13.113281 18.738281 13.21875 C 18.820312 13.320312 18.910156 13.417969 19 13.511719 C 19.09375 13.605469 19.191406 13.691406 19.292969 13.777344 C 19.394531 13.859375 19.5 13.933594 19.609375 14.007812 C 19.6875 14.054688 19.765625 14.101562 19.84375 14.148438 C 19.960938 14.207031 20.078125 14.265625 20.199219 14.3125 C 20.320312 14.363281 20.445312 14.40625 20.570312 14.445312 C 20.695312 14.480469 20.824219 14.511719 20.953125 14.535156 C 21.082031 14.554688 21.210938 14.574219 21.34375 14.582031 C 21.476562 14.589844 21.609375 14.59375 21.742188 14.589844 C 21.875 14.582031 22.007812 14.570312 22.140625 14.554688 C 22.273438 14.535156 22.402344 14.507812 22.535156 14.476562 C 22.664062 14.445312 22.796875 14.40625 22.921875 14.363281 C 22.945312 14.355469 22.96875 14.34375 22.992188 14.335938 C 23.023438 14.394531 23.058594 14.449219 23.097656 14.503906 C 23.136719 14.554688 23.179688 14.605469 23.222656 14.65625 C 23.269531 14.703125 23.3125 14.75 23.363281 14.789062 C 23.410156 14.832031 23.460938 14.871094 23.515625 14.910156 C 23.558594 14.9375 23.601562 14.964844 23.648438 14.992188 C 23.707031 15.019531 23.765625 15.046875 23.824219 15.070312 C 23.882812 15.097656 23.945312 15.117188 24.007812 15.132812 C 24.070312 15.148438 24.132812 15.164062 24.199219 15.171875 C 24.261719 15.183594 24.328125 15.1875 24.394531 15.191406 C 24.457031 15.195312 24.523438 15.191406 24.589844 15.1875 C 24.65625 15.183594 24.722656 15.175781 24.792969 15.160156 C 24.859375 15.148438 24.925781 15.132812 24.992188 15.117188 C 25.058594 15.097656 25.125 15.074219 25.1875 15.046875 C 25.253906 15.019531 25.320312 14.992188 25.382812 14.957031 C 25.445312 14.925781 25.507812 14.890625 25.566406 14.851562 C 25.628906 14.8125 25.6875 14.769531 25.746094 14.726562 C 25.800781 14.679688 25.859375 14.628906 25.910156 14.578125 C 25.964844 14.53125 26.019531 14.476562 26.066406 14.421875 C 26.117188 14.367188 26.164062 14.308594 26.210938 14.246094 C 26.214844 14.238281 26.222656 14.230469 26.226562 14.222656 C 26.320312 14.351562 26.421875 14.472656 26.53125 14.589844 C 26.640625 14.703125 26.753906 14.816406 26.871094 14.921875 C 26.992188 15.023438 27.113281 15.125 27.242188 15.21875 C 27.371094 15.308594 27.503906 15.394531 27.644531 15.472656 C 27.671875 15.492188 27.703125 15.507812 27.734375 15.527344 C 27.875 15.601562 28.019531 15.671875 28.164062 15.734375 C 28.308594 15.792969 28.460938 15.847656 28.613281 15.894531 C 28.761719 15.941406 28.917969 15.980469 29.070312 16.011719 C 29.226562 16.042969 29.382812 16.066406 29.542969 16.082031 C 29.699219 16.097656 29.859375 16.105469 30.015625 16.105469 C 30.175781 16.105469 30.332031 16.097656 30.492188 16.082031 C 30.648438 16.066406 30.804688 16.042969 30.960938 16.011719 C 31.117188 15.980469 31.269531 15.941406 31.421875 15.894531 C 31.574219 15.847656 31.722656 15.792969 31.867188 15.730469 C 32.015625 15.667969 32.15625 15.597656 32.296875 15.523438 C 32.4375 15.445312 32.570312 15.363281 32.699219 15.273438 C 32.832031 15.183594 32.957031 15.089844 33.078125 14.984375 C 33.199219 14.882812 33.316406 14.773438 33.425781 14.660156 C 33.535156 14.546875 33.640625 14.425781 33.742188 14.304688 C 33.785156 14.246094 33.824219 14.1875 33.867188 14.128906 L 33.867188 8.410156 C 33.867188 4.933594 31.066406 2.136719 27.59375 2.136719 Z M 21.480469 2.136719 "/>
<path style=" stroke:none;fill-rule:nonzero;fill:rgb(30.196078%,22.745098%,0.784314%);fill-opacity:1;" d="M 27.660156 21.453125 C 26.753906 22.871094 27.277344 19.765625 27.277344 19.765625 C 27.664062 18.597656 26.136719 15.128906 26.035156 14.832031 C 23.445312 14.019531 24.8125 14.128906 24.375 14.0625 L 24.210938 13.878906 C 24.914062 13.964844 25.542969 14.339844 26.226562 14.222656 C 26.308594 13.859375 26.0625 13.332031 25.851562 12.824219 L 26.136719 12.738281 C 26.300781 13.210938 26.460938 13.75 26.640625 14.128906 C 27.667969 16.429688 27.484375 15.8125 27.792969 16.546875 C 27.691406 14.457031 28.027344 13.246094 28.972656 11.667969 L 30.277344 11.558594 C 27.855469 13.296875 28.34375 19.671875 28.785156 21.410156 Z M 27.660156 21.453125 "/>
</g>
</svg>
