<?xml version="1.0" encoding="UTF-8"?>
<svg xmlns="http://www.w3.org/2000/svg" xmlns:xlink="http://www.w3.org/1999/xlink" width="36pt" height="36pt" viewBox="0 0 36 36" version="1.1">
<g id="surface1">
<path style=" stroke:none;fill-rule:evenodd;fill:rgb(23.137255%,58.039216%,96.862745%);fill-opacity:1;" d="M 8.40625 2.136719 L 27.59375 2.136719 C 31.054688 2.136719 33.863281 4.945312 33.863281 8.40625 L 33.863281 27.59375 C 33.863281 31.054688 31.054688 33.863281 27.59375 33.863281 L 8.40625 33.863281 C 4.945312 33.863281 2.136719 31.054688 2.136719 27.59375 L 2.136719 8.40625 C 2.136719 4.945312 4.945312 2.136719 8.40625 2.136719 Z M 8.40625 2.136719 "/>
<path style=" stroke:none;fill-rule:nonzero;fill:rgb(23.137255%,58.039216%,96.862745%);fill-opacity:1;" d="M 27.542969 18 C 27.542969 23.269531 23.269531 27.542969 18 27.542969 C 12.730469 27.542969 8.457031 23.269531 8.457031 18 C 8.457031 12.730469 12.730469 8.457031 18 8.457031 C 23.269531 8.457031 27.542969 12.730469 27.542969 18 Z M 27.542969 18 "/>
<path style=" stroke:none;fill-rule:nonzero;fill:rgb(100%,100%,100%);fill-opacity:1;" d="M 18 6.867188 C 11.832031 6.867188 6.867188 11.832031 6.867188 18 C 6.867188 24.167969 11.832031 29.132812 18 29.132812 C 24.167969 29.132812 29.132812 24.167969 29.132812 18 C 29.132812 11.832031 24.167969 6.867188 18 6.867188 Z M 18 11.640625 C 20.636719 11.640625 22.769531 14.488281 22.769531 18 C 22.769531 21.511719 20.636719 24.359375 18 24.359375 C 15.363281 24.359375 13.230469 21.511719 13.230469 18 C 13.230469 14.488281 15.363281 11.640625 18 11.640625 Z M 18 11.640625 "/>
</g>
</svg>
