<?xml version="1.0" encoding="UTF-8"?>
<svg xmlns="http://www.w3.org/2000/svg" xmlns:xlink="http://www.w3.org/1999/xlink" width="36pt" height="36pt" viewBox="0 0 36 36" version="1.1">
<g id="surface1">
<path style=" stroke:none;fill-rule:evenodd;fill:rgb(29.411765%,68.235294%,30.980392%);fill-opacity:1;" d="M 8.40625 2.136719 L 27.59375 2.136719 C 31.054688 2.136719 33.863281 4.945312 33.863281 8.40625 L 33.863281 27.59375 C 33.863281 31.054688 31.054688 33.863281 27.59375 33.863281 L 8.40625 33.863281 C 4.945312 33.863281 2.136719 31.054688 2.136719 27.59375 L 2.136719 8.40625 C 2.136719 4.945312 4.945312 2.136719 8.40625 2.136719 Z M 8.40625 2.136719 "/>
<path style=" stroke:none;fill-rule:nonzero;fill:rgb(100%,100%,100%);fill-opacity:1;" d="M 13.800781 28.589844 C 13.710938 28.542969 13.148438 28.015625 12.558594 27.421875 L 11.480469 26.339844 L 11.121094 26.691406 C 10.921875 26.886719 10.640625 27.105469 10.496094 27.179688 C 10.257812 27.304688 10.1875 27.320312 9.753906 27.320312 C 9.304688 27.320312 9.25 27.308594 8.953125 27.164062 C 8.566406 26.972656 8.242188 26.625 8.089844 26.242188 C 7.945312 25.871094 7.949219 25.316406 8.097656 24.925781 C 8.203125 24.648438 8.394531 24.449219 12.640625 20.199219 L 17.074219 15.757812 L 16.902344 15.359375 C 16.136719 13.566406 16.332031 11.507812 17.429688 9.863281 C 17.765625 9.355469 18.441406 8.671875 18.941406 8.332031 C 21.566406 6.539062 25.183594 7.191406 26.96875 9.777344 C 29.097656 12.859375 27.855469 17.039062 24.390625 18.464844 C 23.027344 19.027344 21.308594 19.011719 19.945312 18.417969 L 19.5625 18.253906 L 15.863281 21.953125 L 16.945312 23.03125 C 17.625 23.710938 18.0625 24.179688 18.117188 24.300781 C 18.226562 24.535156 18.234375 24.796875 18.136719 25.035156 C 18.042969 25.253906 14.871094 28.457031 14.605469 28.59375 C 14.378906 28.710938 14.023438 28.710938 13.800781 28.589844 Z M 22.785156 15.253906 C 23.53125 15.054688 24.09375 14.523438 24.34375 13.78125 C 24.429688 13.527344 24.445312 13.390625 24.429688 12.992188 C 24.414062 12.546875 24.398438 12.476562 24.234375 12.144531 C 23.605469 10.875 22.0625 10.480469 20.917969 11.300781 C 20.039062 11.929688 19.746094 13.183594 20.253906 14.132812 C 20.527344 14.644531 21.101562 15.101562 21.660156 15.253906 C 21.949219 15.332031 22.492188 15.332031 22.785156 15.253906 Z M 22.785156 15.253906 "/>
</g>
</svg>
