<?xml version="1.0" encoding="UTF-8"?>
<svg xmlns="http://www.w3.org/2000/svg" xmlns:xlink="http://www.w3.org/1999/xlink" width="36pt" height="36pt" viewBox="0 0 36 36" version="1.1">
<defs>
<clipPath id="clip1">
  <rect width="36" height="36"/>
</clipPath>
<g id="surface6" clip-path="url(#clip1)">
<path style=" stroke:none;fill-rule:evenodd;fill:rgb(29.411765%,29.411765%,29.411765%);fill-opacity:1;" d="M 32.980469 25.640625 C 32.980469 29.566406 29.800781 32.746094 25.875 32.746094 C 21.949219 32.746094 18.769531 29.566406 18.769531 25.640625 C 18.769531 21.714844 21.949219 18.535156 25.875 18.535156 C 29.800781 18.535156 32.980469 21.714844 32.980469 25.640625 Z M 32.980469 25.640625 "/>
</g>
<clipPath id="clip2">
  <rect width="36" height="36"/>
</clipPath>
<g id="surface9" clip-path="url(#clip2)">
<path style=" stroke:none;fill-rule:nonzero;fill:rgb(92.156863%,92.156863%,92.156863%);fill-opacity:1;" d="M 22.53125 23.664062 L 22.53125 24.796875 L 29.332031 24.796875 L 29.332031 23.664062 Z M 22.53125 27.0625 L 22.53125 28.199219 L 29.332031 28.199219 L 29.332031 27.0625 Z M 22.53125 27.0625 "/>
</g>
<clipPath id="clip3">
  <rect width="36" height="36"/>
</clipPath>
<g id="surface12" clip-path="url(#clip3)">
<path style=" stroke:none;fill-rule:nonzero;fill:rgb(100%,100%,100%);fill-opacity:1;" d="M 10.070312 6.667969 L 10.070312 10.066406 L 6.667969 10.066406 L 6.667969 11.203125 L 10.070312 11.203125 L 10.070312 14.601562 L 11.203125 14.601562 L 11.203125 11.203125 L 14.601562 11.203125 L 14.601562 10.066406 L 11.203125 10.066406 L 11.203125 6.667969 Z M 10.070312 6.667969 "/>
</g>
<clipPath id="clip4">
  <rect width="36" height="36"/>
</clipPath>
<g id="surface15" clip-path="url(#clip4)">
<path style=" stroke:none;fill-rule:nonzero;fill:rgb(92.156863%,92.156863%,92.156863%);fill-opacity:1;" d="M 22.53125 10.066406 L 22.53125 11.199219 L 29.332031 11.199219 L 29.332031 10.066406 Z M 22.53125 10.066406 "/>
</g>
</defs>
<g id="surface1">
<path style=" stroke:none;fill-rule:nonzero;fill:rgb(21.176471%,52.54902%,17.254902%);fill-opacity:1;" d="M 33.863281 18 L 33.863281 8.40625 C 33.863281 7.539062 33.6875 6.710938 33.371094 5.960938 C 33.054688 5.210938 32.597656 4.535156 32.03125 3.96875 C 31.460938 3.402344 30.789062 2.941406 30.035156 2.625 C 29.285156 2.308594 28.460938 2.136719 27.589844 2.136719 L 18 2.136719 L 18 18 Z M 33.863281 18 "/>
<path style=" stroke:none;fill-rule:nonzero;fill:rgb(29.803922%,57.254902%,16.862745%);fill-opacity:1;" d="M 18 33.863281 L 27.59375 33.863281 C 28.460938 33.863281 29.289062 33.6875 30.039062 33.371094 C 30.789062 33.054688 31.464844 32.597656 32.03125 32.03125 C 32.597656 31.460938 33.054688 30.789062 33.371094 30.035156 C 33.6875 29.285156 33.863281 28.460938 33.863281 27.589844 L 33.863281 18 L 18 18 Z M 18 33.863281 "/>
<use xlink:href="#surface6"/>
<use xlink:href="#surface9"/>
<path style=" stroke:none;fill-rule:nonzero;fill:rgb(52.54902%,83.137255%,47.058824%);fill-opacity:1;" d="M 8.410156 2.136719 C 7.539062 2.136719 6.710938 2.3125 5.960938 2.628906 C 5.210938 2.945312 4.535156 3.402344 3.96875 3.96875 C 3.402344 4.535156 2.945312 5.210938 2.628906 5.960938 C 2.3125 6.710938 2.136719 7.539062 2.136719 8.410156 L 2.136719 18 L 18 18 L 18 2.136719 Z M 8.410156 2.136719 "/>
<use xlink:href="#surface12"/>
<use xlink:href="#surface15"/>
<path style=" stroke:none;fill-rule:nonzero;fill:rgb(44.313725%,76.862745%,32.941176%);fill-opacity:1;" d="M 2.136719 18 L 2.136719 27.589844 C 2.136719 28.460938 2.3125 29.285156 2.628906 30.035156 C 2.945312 30.789062 3.402344 31.460938 3.96875 32.03125 C 4.535156 32.597656 5.210938 33.054688 5.960938 33.371094 C 6.710938 33.6875 7.539062 33.863281 8.40625 33.863281 L 18 33.863281 L 18 18 Z M 2.136719 18 "/>
<path style=" stroke:none;fill-rule:evenodd;fill:rgb(92.156863%,92.156863%,92.156863%);fill-opacity:1;" d="M 7.070312 22.132812 L 6.269531 22.933594 L 9.265625 25.933594 L 6.269531 28.929688 L 7.070312 29.734375 L 10.066406 26.734375 L 13.066406 29.734375 L 13.867188 28.929688 L 10.867188 25.933594 L 13.867188 22.933594 L 13.066406 22.132812 L 10.066406 25.132812 Z M 7.070312 22.132812 "/>
</g>
</svg>
