<?xml version="1.0" encoding="UTF-8"?>
<svg xmlns="http://www.w3.org/2000/svg" xmlns:xlink="http://www.w3.org/1999/xlink" width="36pt" height="36pt" viewBox="0 0 36 36" version="1.1">
<g id="surface1">
<path style=" stroke:none;fill-rule:evenodd;fill:rgb(92.54902%,92.54902%,92.54902%);fill-opacity:1;" d="M 24.878906 11.039062 L 30.773438 11.039062 C 31.679688 11.039062 32.5 11.40625 33.089844 11.996094 C 33.570312 12.476562 33.753906 13.171875 33.863281 13.875 L 33.863281 8.40625 C 33.863281 4.933594 31.066406 2.136719 27.59375 2.136719 L 22.046875 2.136719 C 22.746094 2.246094 23.441406 2.433594 23.917969 2.910156 C 24.511719 3.503906 24.878906 4.320312 24.878906 5.226562 Z M 24.878906 11.039062 "/>
<path style=" stroke:none;fill-rule:evenodd;fill:rgb(92.54902%,92.54902%,92.54902%);fill-opacity:1;" d="M 2.136719 22.046875 L 2.136719 27.589844 C 2.136719 31.066406 4.933594 33.863281 8.410156 33.863281 L 14.160156 33.863281 C 13.363281 33.796875 12.609375 33.539062 12.082031 33.007812 C 11.488281 32.414062 11.121094 31.597656 11.121094 30.6875 L 11.121094 24.878906 L 5.226562 24.878906 C 4.320312 24.878906 3.503906 24.511719 2.910156 23.917969 C 2.433594 23.441406 2.246094 22.746094 2.136719 22.046875 Z M 2.136719 22.046875 "/>
<path style=" stroke:none;fill-rule:evenodd;fill:rgb(18.039216%,44.705882%,74.509804%);fill-opacity:1;" d="M 2.136719 22.046875 C 2.246094 22.746094 2.433594 23.441406 2.910156 23.917969 C 3.503906 24.511719 4.320312 24.878906 5.226562 24.878906 L 11.121094 24.878906 L 11.121094 14.316406 C 11.121094 13.40625 11.488281 12.589844 12.082031 11.996094 C 12.671875 11.40625 13.492188 11.039062 14.398438 11.039062 L 24.878906 11.039062 L 24.878906 5.226562 C 24.878906 4.320312 24.511719 3.503906 23.917969 2.910156 C 23.441406 2.433594 22.746094 2.246094 22.046875 2.136719 L 8.410156 2.136719 C 4.933594 2.136719 2.136719 4.933594 2.136719 8.40625 Z M 2.136719 22.046875 "/>
<path style=" stroke:none;fill-rule:nonzero;fill:rgb(27.058824%,61.568627%,96.862745%);fill-opacity:1;" d="M 29.460938 26.1875 L 29.460938 9.8125 C 29.460938 8.003906 27.996094 6.539062 26.1875 6.539062 L 9.8125 6.539062 C 8.003906 6.539062 6.539062 8.003906 6.539062 9.8125 L 6.539062 26.1875 C 6.539062 27.996094 8.003906 29.460938 9.8125 29.460938 L 26.1875 29.460938 C 27.996094 29.460938 29.460938 27.996094 29.460938 26.1875 Z M 29.460938 26.1875 "/>
<path style=" stroke:none;fill-rule:evenodd;fill:rgb(56.470588%,76.078431%,98.039216%);fill-opacity:1;" d="M 33.863281 13.875 C 33.753906 13.171875 33.570312 12.476562 33.089844 11.996094 C 32.5 11.40625 31.679688 11.039062 30.773438 11.039062 L 14.398438 11.039062 C 13.492188 11.039062 12.671875 11.40625 12.082031 11.996094 C 11.488281 12.589844 11.121094 13.40625 11.121094 14.316406 L 11.121094 30.6875 C 11.121094 31.597656 11.488281 32.414062 12.082031 33.007812 C 12.609375 33.539062 13.363281 33.796875 14.160156 33.863281 L 27.59375 33.863281 C 31.066406 33.863281 33.863281 31.066406 33.863281 27.589844 Z M 33.863281 13.875 "/>
<path style=" stroke:none;fill-rule:nonzero;fill:rgb(95.294118%,30.588235%,31.764706%);fill-opacity:1;" d="M 21.585938 17.941406 C 19.925781 17.96875 18.644531 18.675781 18.035156 19.894531 C 16.785156 22.386719 18.621094 26.300781 22.132812 28.640625 C 25.648438 30.980469 29.507812 30.855469 30.753906 28.363281 C 32.003906 25.871094 30.167969 21.957031 26.65625 19.617188 C 25 18.515625 23.179688 17.914062 21.585938 17.941406 Z M 21.585938 17.941406 "/>
<path style=" stroke:none;fill-rule:nonzero;fill:rgb(100%,100%,100%);fill-opacity:1;" d="M 22.980469 20.191406 C 23.652344 20.171875 24.371094 20.300781 25.070312 20.5625 C 27.527344 21.484375 29.21875 23.824219 28.84375 25.796875 C 28.46875 27.765625 26.175781 28.617188 23.71875 27.695312 C 21.261719 26.773438 19.574219 24.433594 19.945312 22.460938 C 20.199219 21.121094 21.371094 20.242188 22.980469 20.191406 Z M 22.980469 20.191406 "/>
<path style="fill:none;stroke-width:2;stroke-linecap:round;stroke-linejoin:round;stroke:rgb(95.294118%,30.588235%,31.764706%);stroke-opacity:1;stroke-miterlimit:4;" d="M -27.684393 10.632127 L -21.684393 15.632127 " transform="matrix(1.125,0,0,1.125,46.539473,4.855263)"/>
</g>
</svg>
