<?xml version="1.0" encoding="UTF-8"?>
<svg xmlns="http://www.w3.org/2000/svg" xmlns:xlink="http://www.w3.org/1999/xlink" width="36pt" height="36pt" viewBox="0 0 36 36" version="1.1">
<g id="surface1">
<path style=" stroke:none;fill-rule:evenodd;fill:rgb(80%,80%,80%);fill-opacity:1;" d="M 8.40625 2.136719 L 27.59375 2.136719 C 31.054688 2.136719 33.863281 4.945312 33.863281 8.40625 L 33.863281 27.59375 C 33.863281 31.054688 31.054688 33.863281 27.59375 33.863281 L 8.40625 33.863281 C 4.945312 33.863281 2.136719 31.054688 2.136719 27.59375 L 2.136719 8.40625 C 2.136719 4.945312 4.945312 2.136719 8.40625 2.136719 Z M 8.40625 2.136719 "/>
<path style=" stroke:none;fill-rule:evenodd;fill:rgb(99.607843%,63.921569%,19.607843%);fill-opacity:1;" d="M 28.714844 33.636719 L 28.714844 18.871094 L 21.964844 15.160156 L 15.214844 18.871094 L 15.214844 33.863281 L 27.589844 33.863281 C 27.992188 33.863281 28.339844 33.71875 28.714844 33.636719 Z M 28.714844 33.636719 "/>
<path style=" stroke:none;fill-rule:evenodd;fill:rgb(30.588235%,30.588235%,30.588235%);fill-opacity:1;" d="M 21.964844 14.035156 L 14.089844 18.082031 L 14.089844 33.863281 L 15.214844 33.863281 L 15.214844 18.871094 L 21.964844 15.160156 L 28.714844 18.871094 L 28.714844 33.636719 C 29.089844 33.558594 29.492188 33.550781 29.839844 33.414062 L 29.839844 18.082031 Z M 21.964844 14.035156 "/>
<path style=" stroke:none;fill-rule:evenodd;fill:rgb(80%,80%,80%);fill-opacity:1;" d="M 8.40625 2.136719 C 4.933594 2.136719 2.136719 4.933594 2.136719 8.410156 L 2.136719 27.59375 C 2.136719 31.066406 4.933594 33.863281 8.40625 33.863281 L 14.089844 33.863281 L 14.089844 18.082031 L 21.964844 14.035156 L 29.839844 18.082031 L 29.839844 33.414062 C 32.191406 32.507812 33.863281 30.269531 33.863281 27.59375 L 33.863281 8.410156 C 33.863281 4.933594 31.066406 2.136719 27.589844 2.136719 Z M 8.40625 2.136719 "/>
<path style=" stroke:none;fill-rule:nonzero;fill:rgb(30.588235%,30.588235%,30.588235%);fill-opacity:1;" d="M 24.214844 18.535156 C 24.214844 18.9375 23.789062 19.308594 23.089844 19.507812 C 22.394531 19.707031 21.539062 19.707031 20.839844 19.507812 C 20.144531 19.308594 19.714844 18.9375 19.714844 18.535156 "/>
</g>
</svg>
