<?xml version="1.0" encoding="UTF-8"?>
<svg xmlns="http://www.w3.org/2000/svg" xmlns:xlink="http://www.w3.org/1999/xlink" width="36pt" height="36pt" viewBox="0 0 36 36" version="1.1">
<g id="surface1">
<path style=" stroke:none;fill-rule:evenodd;fill:rgb(100%,100%,100%);fill-opacity:1;" d="M 8.40625 2.136719 L 27.59375 2.136719 C 31.054688 2.136719 33.863281 4.945312 33.863281 8.40625 L 33.863281 27.59375 C 33.863281 31.054688 31.054688 33.863281 27.59375 33.863281 L 8.40625 33.863281 C 4.945312 33.863281 2.136719 31.054688 2.136719 27.59375 L 2.136719 8.40625 C 2.136719 4.945312 4.945312 2.136719 8.40625 2.136719 Z M 8.40625 2.136719 "/>
<path style=" stroke:none;fill-rule:evenodd;fill:rgb(37.254902%,70.196078%,9.803922%);fill-opacity:1;" d="M 33.863281 11.136719 L 33.863281 8.40625 C 33.863281 4.933594 31.066406 2.136719 27.59375 2.136719 L 22.578125 2.136719 L 22.578125 11.136719 Z M 33.863281 11.136719 "/>
<path style=" stroke:none;fill-rule:evenodd;fill:rgb(90.588235%,29.411765%,29.411765%);fill-opacity:1;" d="M 16.855469 33.863281 L 27.59375 33.863281 C 31.066406 33.863281 33.863281 31.066406 33.863281 27.59375 L 33.863281 14.566406 L 16.855469 14.566406 Z M 16.855469 33.863281 "/>
<path style=" stroke:none;fill-rule:evenodd;fill:rgb(20.784314%,67.058824%,89.411765%);fill-opacity:1;" d="M 2.136719 14.566406 L 2.136719 27.59375 C 2.136719 31.066406 4.933594 33.863281 8.40625 33.863281 L 13.421875 33.863281 L 13.421875 14.566406 Z M 2.136719 14.566406 "/>
<path style=" stroke:none;fill-rule:evenodd;fill:rgb(100%,75.686275%,16.078431%);fill-opacity:1;" d="M 19.144531 2.136719 L 8.40625 2.136719 C 4.933594 2.136719 2.136719 4.933594 2.136719 8.40625 L 2.136719 11.136719 L 19.144531 11.136719 Z M 19.144531 2.136719 "/>
<path style=" stroke:none;fill-rule:evenodd;fill:rgb(100%,100%,100%);fill-opacity:1;" d="M 19.144531 2.136719 L 19.144531 11.136719 L 2.136719 11.136719 L 2.136719 14.566406 L 13.421875 14.566406 L 13.421875 33.863281 L 16.855469 33.863281 L 16.855469 14.566406 L 33.863281 14.566406 L 33.863281 11.136719 L 22.578125 11.136719 L 22.578125 2.136719 Z M 19.144531 2.136719 "/>
</g>
</svg>
