<?xml version="1.0" encoding="UTF-8"?>
<svg xmlns="http://www.w3.org/2000/svg" xmlns:xlink="http://www.w3.org/1999/xlink" width="36pt" height="36pt" viewBox="0 0 36 36" version="1.1">
<g id="surface1">
<path style=" stroke:none;fill-rule:evenodd;fill:rgb(21.960784%,43.921569%,40.784314%);fill-opacity:1;" d="M 8.40625 2.136719 L 27.59375 2.136719 C 31.054688 2.136719 33.863281 4.945312 33.863281 8.40625 L 33.863281 27.59375 C 33.863281 31.054688 31.054688 33.863281 27.59375 33.863281 L 8.40625 33.863281 C 4.945312 33.863281 2.136719 31.054688 2.136719 27.59375 L 2.136719 8.40625 C 2.136719 4.945312 4.945312 2.136719 8.40625 2.136719 Z M 8.40625 2.136719 "/>
<path style=" stroke:none;fill-rule:nonzero;fill:rgb(100%,80.392157%,34.901961%);fill-opacity:1;" d="M 18.402344 21.941406 C 15.980469 21.917969 13.746094 22.019531 11.804688 22.238281 C 8.324219 22.628906 6.898438 22.804688 6.804688 22.851562 C 6.636719 22.9375 6.832031 23.027344 7.621094 23.21875 C 8.097656 23.335938 8.410156 23.464844 8.5 23.582031 C 8.609375 23.726562 8.667969 23.746094 8.785156 23.664062 C 9.015625 23.507812 9.5625 23.699219 10.046875 24.101562 C 10.484375 24.464844 10.582031 24.503906 10.691406 24.359375 C 10.726562 24.3125 10.933594 24.273438 11.148438 24.273438 C 11.363281 24.269531 11.609375 24.234375 11.695312 24.1875 C 11.804688 24.132812 11.960938 24.160156 12.203125 24.277344 C 12.398438 24.371094 12.714844 24.445312 12.90625 24.445312 C 13.097656 24.445312 13.535156 24.566406 13.878906 24.707031 C 14.222656 24.851562 14.925781 25.128906 15.445312 25.328125 C 15.964844 25.523438 16.753906 25.855469 17.195312 26.0625 C 17.636719 26.265625 18.046875 26.4375 18.105469 26.4375 C 18.164062 26.4375 18.375 26.355469 18.578125 26.253906 C 19.433594 25.820312 22.285156 24.707031 22.535156 24.707031 C 22.683594 24.707031 22.835938 24.664062 22.875 24.613281 C 22.914062 24.558594 23.0625 24.542969 23.207031 24.574219 C 23.402344 24.613281 23.558594 24.5625 23.832031 24.363281 C 24.285156 24.039062 24.910156 23.996094 25.121094 24.273438 C 25.304688 24.511719 25.421875 24.492188 25.8125 24.152344 C 26.273438 23.753906 26.78125 23.554688 27.164062 23.625 C 27.394531 23.664062 27.558594 23.628906 27.816406 23.472656 C 28.007812 23.355469 28.378906 23.210938 28.640625 23.144531 C 29.253906 22.996094 29.3125 22.96875 29.207031 22.882812 C 29.089844 22.785156 27.230469 22.480469 26.101562 22.371094 C 23.425781 22.105469 20.820312 21.964844 18.402344 21.941406 Z M 16.683594 22.535156 C 16.914062 22.527344 17.097656 22.578125 17.097656 22.6875 C 17.097656 22.9375 15.835938 23.824219 15.214844 24.015625 C 14.523438 24.226562 14.5 24.226562 14.238281 24.011719 C 13.824219 23.675781 14.039062 23.4375 15.070312 23.109375 C 15.425781 22.992188 15.847656 22.820312 16 22.71875 C 16.179688 22.605469 16.453125 22.539062 16.683594 22.535156 Z M 19.476562 22.539062 C 19.863281 22.542969 20.992188 22.925781 21.421875 23.226562 C 21.636719 23.378906 21.65625 23.449219 21.59375 23.792969 C 21.554688 24.007812 21.46875 24.183594 21.402344 24.183594 C 21.234375 24.175781 20.402344 23.761719 19.929688 23.449219 C 19.5625 23.207031 19.222656 22.679688 19.359375 22.566406 C 19.382812 22.546875 19.421875 22.539062 19.476562 22.539062 Z M 14.273438 22.601562 C 14.417969 22.671875 14.023438 22.960938 13.707031 23.015625 C 13.542969 23.046875 13.347656 23.128906 13.273438 23.199219 C 13.203125 23.273438 13.019531 23.382812 12.871094 23.441406 C 12.445312 23.617188 12.097656 23.652344 11.722656 23.554688 C 11.421875 23.480469 11.230469 23.234375 11.472656 23.234375 C 11.519531 23.234375 11.746094 23.128906 11.972656 23 C 12.277344 22.832031 12.625 22.742188 13.285156 22.664062 C 13.78125 22.609375 14.226562 22.582031 14.273438 22.601562 Z M 22.253906 22.640625 C 22.367188 22.632812 22.53125 22.640625 22.730469 22.65625 C 23.214844 22.699219 23.460938 22.769531 23.660156 22.921875 C 23.808594 23.035156 24.09375 23.195312 24.292969 23.277344 C 24.636719 23.417969 24.648438 23.433594 24.457031 23.546875 C 24.222656 23.6875 24.277344 23.691406 23.617188 23.480469 C 22.996094 23.277344 22.074219 22.804688 22.074219 22.6875 C 22.074219 22.660156 22.140625 22.644531 22.253906 22.640625 Z M 18.175781 22.667969 L 18.433594 22.929688 C 18.574219 23.074219 18.769531 23.335938 18.867188 23.515625 C 18.964844 23.691406 19.078125 23.839844 19.113281 23.839844 C 19.28125 23.839844 20.378906 24.496094 20.378906 24.59375 C 20.378906 24.714844 19.847656 24.964844 19.585938 24.964844 C 19.496094 24.964844 19.171875 25.101562 18.867188 25.269531 C 18.214844 25.628906 18.027344 25.636719 17.46875 25.332031 C 17.234375 25.203125 16.804688 25 16.515625 24.878906 C 16.222656 24.761719 15.988281 24.605469 15.988281 24.535156 C 15.988281 24.464844 16.261719 24.261719 16.59375 24.078125 C 16.96875 23.875 17.277344 23.625 17.402344 23.425781 C 17.515625 23.246094 17.734375 23.007812 17.890625 22.886719 Z M 10.855469 22.824219 C 11.082031 22.847656 11.050781 22.980469 10.722656 23.144531 C 10.53125 23.238281 10.324219 23.316406 10.265625 23.3125 C 10.042969 23.296875 9.578125 23.128906 9.578125 23.058594 C 9.578125 22.988281 9.746094 22.949219 10.546875 22.835938 C 10.675781 22.820312 10.78125 22.816406 10.855469 22.824219 Z M 25.832031 22.894531 C 26.042969 22.890625 26.308594 22.914062 26.523438 22.964844 L 26.785156 23.027344 L 26.449219 23.171875 C 26.261719 23.253906 26.046875 23.316406 25.972656 23.316406 C 25.78125 23.3125 25.464844 23.105469 25.464844 22.984375 C 25.464844 22.929688 25.621094 22.898438 25.832031 22.894531 Z M 22.292969 23.675781 C 22.464844 23.679688 22.613281 23.753906 22.550781 23.839844 C 22.464844 23.953125 22.105469 23.953125 22.023438 23.839844 C 21.984375 23.789062 22.03125 23.726562 22.121094 23.699219 C 22.175781 23.683594 22.234375 23.675781 22.292969 23.675781 Z M 13.601562 23.710938 C 13.679688 23.710938 13.765625 23.757812 13.789062 23.816406 C 13.8125 23.882812 13.738281 23.925781 13.601562 23.925781 C 13.464844 23.925781 13.390625 23.882812 13.417969 23.816406 C 13.441406 23.757812 13.527344 23.710938 13.601562 23.710938 Z M 13.601562 23.710938 "/>
<path style=" stroke:none;fill-rule:nonzero;fill:rgb(100%,80.392157%,34.901961%);fill-opacity:1;" d="M 28.578125 21.660156 C 26.882812 21.300781 26.863281 21.28125 27.121094 20.230469 C 27.320312 19.40625 27.722656 18.5625 27.914062 18.5625 C 28.222656 18.5625 28.613281 18.832031 28.792969 19.167969 C 28.90625 19.378906 29.09375 19.628906 29.214844 19.722656 C 29.371094 19.839844 29.433594 20.027344 29.433594 20.378906 C 29.433594 20.945312 29.652344 21.355469 30.074219 21.589844 C 30.238281 21.683594 30.375 21.800781 30.375 21.855469 C 30.375 22.003906 29.976562 21.960938 28.578125 21.660156 Z M 28.578125 21.660156 "/>
<path style=" stroke:none;fill-rule:nonzero;fill:rgb(100%,80.392157%,34.901961%);fill-opacity:1;" d="M 11.097656 14.0625 L 10.558594 14.316406 C 9.859375 14.640625 9.535156 15.058594 9.351562 15.871094 C 9.269531 16.234375 9.109375 16.625 9 16.742188 C 8.886719 16.859375 8.65625 17.394531 8.488281 17.933594 C 8.320312 18.472656 8.121094 18.992188 8.046875 19.085938 C 7.921875 19.238281 7.890625 19.222656 7.726562 18.933594 C 7.628906 18.757812 7.5 18.613281 7.441406 18.613281 C 7.242188 18.613281 6.746094 19.46875 6.542969 20.160156 C 6.3125 20.945312 6.09375 21.382812 5.765625 21.710938 C 5.601562 21.875 5.582031 21.9375 5.699219 21.9375 C 5.832031 21.9375 9.101562 21.484375 10.609375 21.253906 C 11.074219 21.183594 11.09375 21.167969 11.273438 20.625 C 11.375 20.316406 11.625 19.78125 11.828125 19.433594 L 12.195312 18.796875 L 12.183594 17.035156 C 12.164062 15.125 12.191406 15.210938 11.464844 14.449219 Z M 12.097656 19.871094 C 12.050781 19.878906 12.003906 19.914062 11.960938 19.992188 C 11.761719 20.34375 11.59375 20.925781 11.664062 21.027344 C 11.75 21.15625 11.894531 21.15625 12.164062 21.027344 C 12.324219 20.945312 12.375 20.8125 12.375 20.484375 C 12.375 20.105469 12.238281 19.847656 12.097656 19.867188 Z M 12.097656 19.871094 "/>
<path style=" stroke:none;fill-rule:nonzero;fill:rgb(100%,80.392157%,34.901961%);fill-opacity:1;" d="M 24.398438 20.65625 C 21.449219 20.167969 18.085938 20.03125 15.40625 20.289062 C 14.496094 20.375 13.910156 20.390625 13.855469 20.332031 C 13.804688 20.277344 13.695312 19.796875 13.609375 19.269531 C 13.460938 18.359375 13.460938 18.25 13.625 17.277344 C 13.871094 15.820312 13.988281 15.4375 14.34375 14.949219 C 14.664062 14.507812 14.992188 14.390625 15.171875 14.648438 C 15.382812 14.957031 15.769531 16.5625 15.769531 17.121094 C 15.769531 18.039062 15.957031 17.65625 16.066406 16.503906 C 16.175781 15.375 16.207031 15.222656 16.65625 13.554688 C 16.839844 12.882812 17.019531 11.996094 17.058594 11.585938 C 17.097656 11.144531 17.191406 10.742188 17.289062 10.601562 C 17.378906 10.472656 17.507812 10.214844 17.574219 10.027344 C 17.789062 9.445312 17.863281 9.433594 18.714844 9.859375 L 19.492188 10.25 L 19.722656 11.042969 C 19.847656 11.480469 20.039062 12.085938 20.148438 12.386719 C 20.253906 12.691406 20.511719 13.65625 20.71875 14.535156 C 20.949219 15.515625 21.152344 16.183594 21.25 16.261719 C 21.425781 16.402344 21.816406 17.519531 21.917969 18.167969 C 21.953125 18.402344 22.046875 18.683594 22.125 18.789062 C 22.25 18.964844 22.257812 18.921875 22.207031 18.351562 C 22.171875 18.007812 22.105469 17.542969 22.054688 17.324219 C 21.9375 16.835938 22.070312 15.960938 22.335938 15.453125 C 22.4375 15.257812 22.617188 14.714844 22.730469 14.253906 C 23 13.175781 23.082031 13.074219 23.507812 13.3125 C 24.324219 13.773438 24.488281 14.015625 24.820312 15.207031 C 24.992188 15.824219 25.214844 16.480469 25.316406 16.667969 C 25.527344 17.0625 25.875 18.6875 25.875 19.300781 C 25.878906 20.035156 25.574219 20.863281 25.324219 20.808594 C 25.289062 20.800781 24.871094 20.734375 24.398438 20.65625 Z M 24.398438 20.65625 "/>
</g>
</svg>
