<?xml version="1.0" encoding="UTF-8"?>
<svg xmlns="http://www.w3.org/2000/svg" xmlns:xlink="http://www.w3.org/1999/xlink" width="36pt" height="36pt" viewBox="0 0 36 36" version="1.1">
<g id="surface1">
<path style=" stroke:none;fill-rule:evenodd;fill:rgb(25.490196%,64.705882%,78.039216%);fill-opacity:1;" d="M 8.40625 2.136719 L 27.59375 2.136719 C 31.054688 2.136719 33.863281 4.945312 33.863281 8.40625 L 33.863281 27.59375 C 33.863281 31.054688 31.054688 33.863281 27.59375 33.863281 L 8.40625 33.863281 C 4.945312 33.863281 2.136719 31.054688 2.136719 27.59375 L 2.136719 8.40625 C 2.136719 4.945312 4.945312 2.136719 8.40625 2.136719 Z M 8.40625 2.136719 "/>
<path style=" stroke:none;fill-rule:nonzero;fill:rgb(100%,100%,100%);fill-opacity:1;" d="M 18 7.3125 C 16.136719 7.3125 14.625 8.824219 14.625 10.6875 C 14.628906 12.117188 15.527344 13.386719 16.875 13.863281 L 16.875 15.1875 L 13.78125 15.1875 L 13.78125 17.4375 L 16.875 17.4375 L 16.875 23.625 C 16.875 24.46875 15.992188 24.261719 15.4375 24.1875 C 12.949219 23.859375 11.316406 24.195312 10.152344 23.117188 L 11.46875 23.039062 L 10.015625 21.683594 L 8.558594 20.328125 C 8.007812 21.570312 7.945312 22.804688 7.875 24.132812 L 8.777344 23.246094 C 9.210938 25.03125 15.125 26.15625 15.960938 26.890625 L 18 28.6875 L 20.039062 26.890625 C 20.878906 26.15625 26.789062 25.027344 27.21875 23.238281 L 28.125 24.132812 C 28.125 22.78125 27.832031 21.597656 27.441406 20.328125 L 25.984375 21.683594 L 24.75 23.039062 L 25.851562 23.117188 C 24.691406 24.191406 23.066406 23.859375 20.585938 24.1875 C 20.019531 24.261719 19.125 24.46875 19.125 23.625 L 19.125 17.4375 L 22.21875 17.4375 L 22.21875 15.1875 L 19.125 15.1875 L 19.125 13.867188 C 20.472656 13.390625 21.371094 12.117188 21.375 10.6875 C 21.375 8.824219 19.863281 7.3125 18 7.3125 Z M 18 9.5625 C 18.621094 9.5625 19.125 10.066406 19.125 10.6875 C 19.125 11.308594 18.621094 11.8125 18 11.8125 C 17.378906 11.8125 16.875 11.308594 16.875 10.6875 C 16.875 10.066406 17.378906 9.5625 18 9.5625 Z M 18 9.5625 "/>
</g>
</svg>
