<?xml version="1.0" encoding="UTF-8"?>
<svg xmlns="http://www.w3.org/2000/svg" xmlns:xlink="http://www.w3.org/1999/xlink" width="36pt" height="36pt" viewBox="0 0 36 36" version="1.1">
<g id="surface1">
<path style=" stroke:none;fill-rule:evenodd;fill:rgb(94.901961%,94.901961%,94.901961%);fill-opacity:1;" d="M 8.40625 2.136719 L 27.59375 2.136719 C 31.054688 2.136719 33.863281 4.945312 33.863281 8.40625 L 33.863281 27.59375 C 33.863281 31.054688 31.054688 33.863281 27.59375 33.863281 L 8.40625 33.863281 C 4.945312 33.863281 2.136719 31.054688 2.136719 27.59375 L 2.136719 8.40625 C 2.136719 4.945312 4.945312 2.136719 8.40625 2.136719 Z M 8.40625 2.136719 "/>
<path style=" stroke:none;fill-rule:nonzero;fill:rgb(21.568627%,62.745098%,94.901961%);fill-opacity:1;" d="M 18.152344 18.046875 C 21.105469 23.425781 19.742188 33.648438 14.585938 30.671875 C 13.078125 29.796875 12.492188 28.882812 12.390625 28.023438 C 11.601562 28.367188 10.511719 28.316406 9 27.449219 C 3.273438 24.140625 12.019531 18.179688 18.148438 18.050781 "/>
<path style=" stroke:none;fill-rule:nonzero;fill:rgb(90.588235%,29.803922%,23.529412%);fill-opacity:1;" d="M 18.152344 18.046875 C 18.359375 18.042969 18.566406 18.03125 18.78125 18.015625 C 24.820312 17.496094 32.285156 11.527344 27.300781 8.652344 C 25.792969 7.78125 24.703125 7.730469 23.910156 8.070312 C 23.8125 7.214844 23.226562 6.296875 21.714844 5.425781 C 16.242188 2.265625 15.277344 11.761719 17.78125 17.300781 C 17.894531 17.558594 17.847656 17.835938 17.976562 18.074219 "/>
<path style=" stroke:none;fill-rule:nonzero;fill:rgb(99.607843%,80.392157%,21.960784%);fill-opacity:1;" d="M 17.953125 18.101562 C 18.082031 24.234375 24.375 32.410156 27.347656 27.25 C 28.21875 25.742188 28.269531 24.652344 27.929688 23.863281 C 28.785156 23.761719 29.703125 23.175781 30.574219 21.667969 C 33.882812 15.941406 23.328125 15.148438 17.957031 18.101562 "/>
<path style=" stroke:none;fill-rule:nonzero;fill:rgb(64.313725%,77.647059%,22.352941%);fill-opacity:1;" d="M 17.953125 18.101562 C 12.578125 21.054688 2.351562 19.695312 5.328125 14.539062 C 6.203125 13.03125 7.117188 12.441406 7.976562 12.34375 C 7.632812 11.550781 7.683594 10.464844 8.554688 8.953125 C 11.859375 3.226562 17.820312 11.96875 17.949219 18.097656 "/>
</g>
</svg>
