<?xml version="1.0" encoding="UTF-8"?>
<svg xmlns="http://www.w3.org/2000/svg" xmlns:xlink="http://www.w3.org/1999/xlink" width="36pt" height="36pt" viewBox="0 0 36 36" version="1.1">
<g id="surface1">
<path style=" stroke:none;fill-rule:evenodd;fill:rgb(75.686275%,17.647059%,14.509804%);fill-opacity:1;" d="M 8.40625 2.136719 L 27.59375 2.136719 C 31.054688 2.136719 33.863281 4.945312 33.863281 8.40625 L 33.863281 27.59375 C 33.863281 31.054688 31.054688 33.863281 27.59375 33.863281 L 8.40625 33.863281 C 4.945312 33.863281 2.136719 31.054688 2.136719 27.59375 L 2.136719 8.40625 C 2.136719 4.945312 4.945312 2.136719 8.40625 2.136719 Z M 8.40625 2.136719 "/>
<path style=" stroke:none;fill-rule:nonzero;fill:rgb(75.686275%,17.647059%,14.509804%);fill-opacity:1;" d="M 31.617188 18 C 31.617188 10.480469 25.519531 4.382812 18 4.382812 C 10.480469 4.382812 4.382812 10.480469 4.382812 18 C 4.382812 25.519531 10.480469 31.617188 18 31.617188 C 25.519531 31.617188 31.617188 25.519531 31.617188 18 Z M 31.617188 18 "/>
<path style=" stroke:none;fill-rule:nonzero;fill:rgb(100%,100%,100%);fill-opacity:1;" d="M 18 4.382812 C 16.996094 4.382812 16.023438 4.496094 15.082031 4.699219 L 15.082031 10.957031 L 10.660156 6.53125 C 9 7.589844 7.589844 9 6.53125 10.660156 L 10.957031 15.082031 L 4.699219 15.082031 C 4.496094 16.023438 4.382812 16.996094 4.382812 18 C 4.382812 19.003906 4.496094 19.976562 4.699219 20.917969 L 10.957031 20.917969 L 6.53125 25.339844 C 7.589844 27 9 28.410156 10.660156 29.46875 L 15.082031 25.042969 L 15.082031 31.300781 C 16.023438 31.503906 16.996094 31.617188 18 31.617188 C 19.003906 31.617188 19.976562 31.503906 20.917969 31.300781 L 20.917969 25.042969 L 25.339844 29.46875 C 27 28.410156 28.410156 27 29.46875 25.339844 L 25.042969 20.917969 L 31.300781 20.917969 C 31.503906 19.976562 31.617188 19.003906 31.617188 18 C 31.617188 16.996094 31.503906 16.023438 31.300781 15.082031 L 25.042969 15.082031 L 29.46875 10.660156 C 28.410156 9 27 7.589844 25.339844 6.53125 L 20.917969 10.957031 L 20.917969 4.699219 C 19.976562 4.496094 19.003906 4.382812 18 4.382812 Z M 18 4.382812 "/>
<path style=" stroke:none;fill-rule:nonzero;fill:rgb(100%,79.607843%,1.960784%);fill-opacity:1;" d="M 29.671875 18 C 29.671875 11.554688 24.445312 6.328125 18 6.328125 C 11.554688 6.328125 6.328125 11.554688 6.328125 18 C 6.328125 24.445312 11.554688 29.671875 18 29.671875 C 24.445312 29.671875 29.671875 24.445312 29.671875 18 Z M 29.671875 18 "/>
<path style=" stroke:none;fill-rule:nonzero;fill:rgb(75.686275%,17.647059%,14.509804%);fill-opacity:1;" d="M 27.726562 18 C 27.726562 12.628906 23.371094 8.273438 18 8.273438 C 12.628906 8.273438 8.273438 12.628906 8.273438 18 C 8.273438 23.371094 12.628906 27.726562 18 27.726562 C 23.371094 27.726562 27.726562 23.371094 27.726562 18 Z M 27.726562 18 "/>
<path style=" stroke:none;fill-rule:nonzero;fill:rgb(100%,98.823529%,96.862745%);fill-opacity:1;" d="M 13.136719 13.136719 L 15.082031 13.136719 L 15.082031 22.863281 L 13.136719 22.863281 Z M 13.136719 13.136719 "/>
<path style=" stroke:none;fill-rule:nonzero;fill:rgb(100%,98.823529%,96.862745%);fill-opacity:1;" d="M 17.027344 13.136719 L 17.027344 15.082031 L 11.191406 15.082031 L 11.191406 13.136719 Z M 17.027344 13.136719 "/>
<path style=" stroke:none;fill-rule:nonzero;fill:rgb(100%,98.823529%,96.862745%);fill-opacity:1;" d="M 18 13.136719 L 19.945312 13.136719 L 19.945312 22.863281 L 18 22.863281 Z M 18 13.136719 "/>
<path style=" stroke:none;fill-rule:nonzero;fill:rgb(100%,98.823529%,96.862745%);fill-opacity:1;" d="M 23.835938 17.027344 L 23.835938 18.972656 L 18 18.972656 L 18 17.027344 Z M 23.835938 17.027344 "/>
<path style=" stroke:none;fill-rule:nonzero;fill:rgb(100%,98.823529%,96.862745%);fill-opacity:1;" d="M 21.890625 13.136719 L 23.835938 13.136719 L 23.835938 22.863281 L 21.890625 22.863281 Z M 21.890625 13.136719 "/>
</g>
</svg>
