<?xml version="1.0" encoding="UTF-8"?>
<svg xmlns="http://www.w3.org/2000/svg" xmlns:xlink="http://www.w3.org/1999/xlink" width="36pt" height="36pt" viewBox="0 0 36 36" version="1.1">
<g id="surface1">
<path style=" stroke:none;fill-rule:evenodd;fill:rgb(100%,22.352941%,22.352941%);fill-opacity:1;" d="M 8.40625 2.136719 L 27.59375 2.136719 C 31.054688 2.136719 33.863281 4.945312 33.863281 8.40625 L 33.863281 27.59375 C 33.863281 31.054688 31.054688 33.863281 27.59375 33.863281 L 8.40625 33.863281 C 4.945312 33.863281 2.136719 31.054688 2.136719 27.59375 L 2.136719 8.40625 C 2.136719 4.945312 4.945312 2.136719 8.40625 2.136719 Z M 8.40625 2.136719 "/>
<path style=" stroke:none;fill-rule:nonzero;fill:rgb(100%,91.372549%,70.980392%);fill-opacity:1;" d="M 20.28125 18.839844 C 24.214844 18.707031 26.601562 18.296875 26.8125 17.714844 C 26.855469 17.59375 26.84375 17.566406 26.714844 17.457031 L 26.566406 17.335938 L 26.691406 17.257812 C 26.757812 17.214844 26.917969 17.082031 27.050781 16.964844 C 27.921875 16.179688 27.722656 14.761719 26.648438 14.089844 C 26.503906 14 26.398438 13.898438 26.410156 13.867188 C 26.890625 12.785156 26.988281 12.390625 27.019531 11.382812 C 27.046875 10.511719 26.992188 10.070312 26.761719 9.390625 C 26.121094 7.476562 24.390625 5.847656 22.320312 5.210938 C 21.539062 4.96875 21.152344 4.914062 20.28125 4.914062 C 19.554688 4.914062 19.414062 4.929688 18.96875 5.042969 C 17.058594 5.539062 15.734375 6.652344 14.617188 8.703125 C 14.472656 8.960938 14.351562 9.171875 14.34375 9.171875 C 14.335938 9.171875 14.121094 8.96875 13.867188 8.726562 C 13.160156 8.042969 12.539062 7.738281 11.757812 7.691406 C 11.21875 7.660156 10.871094 7.734375 10.363281 7.980469 C 9.621094 8.34375 9.015625 9.101562 8.820312 9.921875 C 8.605469 10.816406 8.878906 11.824219 9.554688 12.625 L 9.742188 12.847656 L 9.605469 12.941406 C 9.257812 13.175781 8.761719 13.722656 8.601562 14.054688 C 8.273438 14.71875 8.359375 15.523438 8.816406 16.132812 C 9.0625 16.457031 9.421875 16.710938 9.695312 16.753906 C 9.800781 16.769531 9.894531 16.796875 9.902344 16.8125 C 9.914062 16.828125 9.898438 16.988281 9.875 17.167969 C 9.816406 17.582031 9.886719 17.726562 10.242188 17.925781 C 11.445312 18.605469 15.699219 18.992188 20.28125 18.839844 Z M 20.28125 18.839844 "/>
<path style=" stroke:none;fill-rule:nonzero;fill:rgb(100%,100%,100%);fill-opacity:1;" d="M 20.019531 30.984375 C 21.667969 30.769531 23.128906 30.3125 24.199219 29.671875 C 24.574219 29.445312 25.265625 28.910156 25.328125 28.792969 C 25.351562 28.742188 25.6875 26.203125 26.074219 23.144531 C 26.796875 17.390625 26.816406 17.164062 26.613281 17.128906 C 26.570312 17.121094 26.507812 17.164062 26.472656 17.226562 C 26.21875 17.695312 24.761719 18.046875 22.125 18.273438 C 20.929688 18.378906 16.976562 18.421875 15.476562 18.347656 C 12.320312 18.191406 10.289062 17.867188 9.546875 17.402344 C 9.414062 17.320312 9.292969 17.265625 9.277344 17.28125 C 9.261719 17.300781 9.5625 19.882812 9.953125 23.019531 L 10.660156 28.726562 L 10.84375 28.914062 C 11.078125 29.15625 11.804688 29.636719 12.316406 29.890625 C 13.5 30.480469 15.199219 30.910156 16.917969 31.058594 C 17.628906 31.117188 19.296875 31.078125 20.023438 30.984375 Z M 20.019531 30.984375 "/>
<path style=" stroke:none;fill-rule:nonzero;fill:rgb(10.588235%,10.588235%,10.588235%);fill-opacity:1;" d="M 24.105469 12.328125 C 24.105469 13.050781 23.519531 13.636719 22.796875 13.636719 C 22.074219 13.636719 21.488281 13.050781 21.488281 12.328125 C 21.488281 11.605469 22.074219 11.019531 22.796875 11.019531 C 23.519531 11.019531 24.105469 11.605469 24.105469 12.328125 Z M 24.105469 12.328125 "/>
<path style=" stroke:none;fill-rule:nonzero;fill:rgb(58.431373%,14.509804%,14.509804%);fill-opacity:1;" d="M 20.617188 15.382812 C 20.617188 16.347656 19.445312 17.128906 18 17.128906 C 16.554688 17.128906 15.382812 16.347656 15.382812 15.382812 C 18.070312 15.660156 20.617188 15.382812 20.617188 15.382812 Z M 20.617188 15.382812 "/>
<path style=" stroke:none;fill-rule:nonzero;fill:rgb(10.588235%,10.588235%,10.588235%);fill-opacity:1;" d="M 14.511719 12.328125 C 14.511719 13.050781 13.925781 13.636719 13.203125 13.636719 C 12.480469 13.636719 11.894531 13.050781 11.894531 12.328125 C 11.894531 11.605469 12.480469 11.019531 13.203125 11.019531 C 13.925781 11.019531 14.511719 11.605469 14.511719 12.328125 Z M 14.511719 12.328125 "/>
<path style=" stroke:none;fill-rule:nonzero;fill:rgb(100%,22.352941%,22.352941%);fill-opacity:1;" d="M 24.921875 18.9375 C 24.15625 19.15625 23.261719 19.335938 22.269531 19.472656 L 21.625 29.800781 C 22.609375 29.554688 23.496094 29.222656 24.199219 28.800781 C 24.230469 28.78125 24.277344 28.742188 24.308594 28.722656 Z M 11.078125 18.941406 L 11.6875 28.652344 C 11.902344 28.785156 12.125 28.925781 12.316406 29.019531 C 12.898438 29.308594 13.605469 29.558594 14.375 29.753906 L 13.730469 19.46875 C 12.742188 19.335938 11.84375 19.15625 11.078125 18.941406 Z M 16.253906 19.699219 L 16.253906 30.101562 C 16.476562 30.128906 16.695312 30.167969 16.917969 30.1875 C 17.566406 30.242188 18.945312 30.207031 19.746094 30.132812 L 19.746094 19.703125 C 19.167969 19.730469 18.585938 19.746094 18 19.746094 C 17.414062 19.746094 16.832031 19.730469 16.253906 19.699219 Z M 16.253906 19.699219 "/>
</g>
</svg>
