<?xml version="1.0" encoding="UTF-8"?>
<svg xmlns="http://www.w3.org/2000/svg" xmlns:xlink="http://www.w3.org/1999/xlink" width="36pt" height="36pt" viewBox="0 0 36 36" version="1.1">
<g id="surface1">
<path style=" stroke:none;fill-rule:evenodd;fill:rgb(94.901961%,94.901961%,94.901961%);fill-opacity:1;" d="M 8.40625 2.136719 L 27.59375 2.136719 C 31.054688 2.136719 33.863281 4.945312 33.863281 8.40625 L 33.863281 27.59375 C 33.863281 31.054688 31.054688 33.863281 27.59375 33.863281 L 8.40625 33.863281 C 4.945312 33.863281 2.136719 31.054688 2.136719 27.59375 L 2.136719 8.40625 C 2.136719 4.945312 4.945312 2.136719 8.40625 2.136719 Z M 8.40625 2.136719 "/>
<path style=" stroke:none;fill-rule:nonzero;fill:rgb(33.72549%,66.666667%,83.137255%);fill-opacity:1;" d="M 33.867188 18 C 33.867188 26.765625 26.765625 33.867188 18 33.867188 C 9.234375 33.867188 2.132812 26.765625 2.132812 18 C 2.132812 9.234375 9.234375 2.132812 18 2.132812 C 26.765625 2.132812 33.867188 9.234375 33.867188 18 Z M 33.867188 18 "/>
<path style=" stroke:none;fill-rule:evenodd;fill:rgb(33.72549%,66.666667%,83.137255%);fill-opacity:1;" d="M 26.195312 2.136719 L 15.65625 2.136719 L 24.761719 11.238281 L 24.757812 11.242188 C 24.863281 11.34375 24.964844 11.453125 25.0625 11.558594 C 25.277344 11.796875 25.476562 12.042969 25.667969 12.300781 C 25.855469 12.554688 26.03125 12.820312 26.195312 13.09375 Z M 26.195312 2.136719 "/>
<path style=" stroke:none;fill-rule:evenodd;fill:rgb(33.72549%,66.666667%,83.137255%);fill-opacity:1;" d="M 33.863281 13.726562 L 33.863281 8.40625 C 33.863281 4.933594 31.066406 2.136719 27.59375 2.136719 L 27.5625 2.136719 L 27.5625 18 C 27.5625 18.148438 27.558594 18.292969 27.550781 18.4375 C 27.535156 18.757812 27.503906 19.074219 27.453125 19.390625 C 27.40625 19.707031 27.34375 20.019531 27.265625 20.328125 Z M 31.617188 4.582031 C 31.792969 4.765625 31.964844 4.957031 32.136719 5.148438 C 31.960938 4.960938 31.796875 4.761719 31.617188 4.582031 Z M 32.804688 5.910156 C 32.984375 6.132812 33.15625 6.363281 33.324219 6.59375 C 33.152344 6.363281 32.984375 6.132812 32.804688 5.910156 Z M 33.875 7.355469 C 34.035156 7.597656 34.1875 7.847656 34.339844 8.097656 C 34.1875 7.847656 34.035156 7.601562 33.875 7.355469 Z M 34.808594 8.910156 C 34.945312 9.167969 35.082031 9.425781 35.210938 9.691406 C 35.082031 9.429688 34.945312 9.167969 34.808594 8.910156 Z M 34.808594 8.910156 "/>
<path style=" stroke:none;fill-rule:evenodd;fill:rgb(33.72549%,66.666667%,83.137255%);fill-opacity:1;" d="M 33.863281 26.195312 L 33.863281 15.65625 L 24.761719 24.761719 L 24.757812 24.757812 C 24.65625 24.863281 24.546875 24.964844 24.441406 25.0625 C 24.203125 25.277344 23.957031 25.476562 23.699219 25.667969 C 23.445312 25.855469 23.179688 26.03125 22.90625 26.195312 Z M 33.863281 26.195312 "/>
<path style=" stroke:none;fill-rule:evenodd;fill:rgb(33.72549%,66.666667%,83.137255%);fill-opacity:1;" d="M 22.273438 33.863281 L 27.59375 33.863281 C 31.066406 33.863281 33.863281 31.066406 33.863281 27.59375 L 33.863281 27.5625 L 18 27.5625 C 17.851562 27.5625 17.707031 27.558594 17.5625 27.550781 C 17.242188 27.535156 16.925781 27.503906 16.613281 27.453125 C 16.296875 27.40625 15.984375 27.34375 15.671875 27.265625 Z M 31.417969 31.617188 C 31.242188 31.78125 31.066406 31.941406 30.890625 32.101562 C 31.066406 31.9375 31.246094 31.785156 31.417969 31.617188 Z M 30.078125 32.820312 C 29.871094 32.980469 29.660156 33.140625 29.449219 33.296875 C 29.65625 33.136719 29.871094 32.984375 30.078125 32.820312 Z M 30.078125 32.820312 "/>
<path style=" stroke:none;fill-rule:evenodd;fill:rgb(33.72549%,66.666667%,83.137255%);fill-opacity:1;" d="M 9.804688 33.863281 L 20.34375 33.863281 L 11.238281 24.761719 L 11.242188 24.757812 C 11.136719 24.65625 11.039062 24.546875 10.941406 24.441406 C 10.726562 24.203125 10.523438 23.957031 10.332031 23.699219 C 10.144531 23.445312 9.96875 23.179688 9.804688 22.90625 Z M 9.804688 33.863281 "/>
<path style=" stroke:none;fill-rule:evenodd;fill:rgb(33.72549%,66.666667%,83.137255%);fill-opacity:1;" d="M 2.136719 22.273438 L 2.136719 27.59375 C 2.136719 31.066406 4.933594 33.863281 8.40625 33.863281 L 8.4375 33.863281 L 8.4375 18 C 8.4375 17.851562 8.441406 17.707031 8.449219 17.5625 C 8.464844 17.242188 8.496094 16.925781 8.546875 16.613281 C 8.59375 16.296875 8.65625 15.984375 8.734375 15.671875 Z M 2.648438 29.371094 C 2.828125 29.617188 3.007812 29.859375 3.199219 30.097656 C 3.007812 29.859375 2.824219 29.617188 2.648438 29.371094 Z M 3.863281 30.851562 C 4.035156 31.042969 4.203125 31.234375 4.382812 31.417969 C 4.203125 31.230469 4.03125 31.042969 3.863281 30.851562 Z M 3.863281 30.851562 "/>
<path style=" stroke:none;fill-rule:evenodd;fill:rgb(33.72549%,66.666667%,83.137255%);fill-opacity:1;" d="M 2.136719 9.804688 L 2.136719 20.34375 L 11.238281 11.238281 L 11.242188 11.242188 C 11.347656 11.136719 11.453125 11.035156 11.5625 10.9375 C 11.796875 10.722656 12.042969 10.523438 12.300781 10.332031 C 12.554688 10.144531 12.820312 9.96875 13.09375 9.804688 Z M 2.136719 9.804688 "/>
<path style=" stroke:none;fill-rule:evenodd;fill:rgb(33.72549%,66.666667%,83.137255%);fill-opacity:1;" d="M 13.726562 2.136719 L 8.40625 2.136719 C 4.933594 2.136719 2.136719 4.933594 2.136719 8.40625 L 2.136719 8.4375 L 18 8.4375 C 18.148438 8.4375 18.292969 8.441406 18.4375 8.449219 C 18.757812 8.464844 19.074219 8.496094 19.390625 8.546875 C 19.707031 8.59375 20.019531 8.65625 20.328125 8.734375 Z M 6.59375 2.675781 C 6.363281 2.84375 6.132812 3.015625 5.910156 3.195312 C 6.132812 3.015625 6.363281 2.84375 6.59375 2.675781 Z M 5.148438 3.863281 C 4.960938 4.035156 4.761719 4.203125 4.582031 4.382812 C 4.765625 4.207031 4.957031 4.035156 5.148438 3.863281 Z M 5.148438 3.863281 "/>
<path style=" stroke:none;fill-rule:evenodd;fill:rgb(94.901961%,94.901961%,94.901961%);fill-opacity:1;" d="M 13.726562 2.136719 L 20.328125 8.734375 C 20.019531 8.65625 19.707031 8.59375 19.390625 8.546875 C 19.074219 8.496094 18.757812 8.464844 18.441406 8.449219 C 18.292969 8.441406 18.148438 8.4375 18 8.4375 L 2.136719 8.4375 L 2.136719 9.804688 L 13.09375 9.804688 C 12.820312 9.96875 12.554688 10.144531 12.300781 10.332031 C 12.042969 10.523438 11.796875 10.722656 11.5625 10.9375 C 11.453125 11.035156 11.347656 11.136719 11.242188 11.242188 L 11.238281 11.238281 L 2.136719 20.34375 L 2.136719 22.273438 L 8.734375 15.671875 C 8.65625 15.984375 8.59375 16.296875 8.546875 16.609375 C 8.496094 16.925781 8.464844 17.242188 8.449219 17.558594 C 8.441406 17.707031 8.4375 17.851562 8.4375 18 L 8.4375 33.863281 L 9.804688 33.863281 L 9.804688 22.90625 C 9.96875 23.179688 10.144531 23.445312 10.332031 23.699219 C 10.523438 23.957031 10.726562 24.203125 10.941406 24.441406 C 11.039062 24.546875 11.136719 24.65625 11.242188 24.757812 L 11.238281 24.761719 L 20.34375 33.863281 L 22.273438 33.863281 L 15.671875 27.265625 C 15.984375 27.34375 16.296875 27.40625 16.609375 27.453125 C 16.925781 27.503906 17.242188 27.535156 17.558594 27.550781 C 17.707031 27.558594 17.851562 27.5625 18 27.5625 L 33.863281 27.5625 L 33.863281 26.195312 L 22.90625 26.195312 C 23.179688 26.03125 23.445312 25.855469 23.699219 25.667969 C 23.957031 25.476562 24.203125 25.277344 24.441406 25.0625 C 24.546875 24.964844 24.65625 24.863281 24.757812 24.757812 L 24.761719 24.761719 L 33.863281 15.65625 L 33.863281 13.726562 L 27.265625 20.328125 C 27.34375 20.019531 27.40625 19.707031 27.453125 19.390625 C 27.503906 19.074219 27.535156 18.757812 27.550781 18.441406 C 27.558594 18.292969 27.5625 18.148438 27.5625 18 L 27.5625 2.136719 L 26.195312 2.136719 L 26.195312 13.09375 C 26.03125 12.820312 25.855469 12.554688 25.667969 12.300781 C 25.476562 12.042969 25.277344 11.796875 25.0625 11.558594 C 24.964844 11.453125 24.863281 11.34375 24.757812 11.242188 L 24.761719 11.238281 L 15.65625 2.136719 Z M 13.726562 2.136719 "/>
</g>
</svg>
