<?xml version="1.0" encoding="UTF-8"?>
<svg xmlns="http://www.w3.org/2000/svg" xmlns:xlink="http://www.w3.org/1999/xlink" width="36pt" height="36pt" viewBox="0 0 36 36" version="1.1">
<defs>
<clipPath id="clip1">
  <rect width="36" height="36"/>
</clipPath>
<g id="surface6" clip-path="url(#clip1)">
<path style=" stroke:none;fill-rule:nonzero;fill:rgb(72.941176%,13.333333%,100%);fill-opacity:1;" d="M 31.804688 25.664062 C 31.804688 29.394531 28.785156 32.414062 25.054688 32.414062 C 21.328125 32.414062 18.304688 29.394531 18.304688 25.664062 C 18.304688 21.9375 21.328125 18.914062 25.054688 18.914062 C 28.785156 18.914062 31.804688 21.9375 31.804688 25.664062 Z M 31.804688 25.664062 "/>
</g>
</defs>
<g id="surface1">
<path style=" stroke:none;fill-rule:evenodd;fill:rgb(94.901961%,94.901961%,94.901961%);fill-opacity:1;" d="M 7.738281 2.136719 L 26.921875 2.136719 C 30.386719 2.136719 33.195312 4.945312 33.195312 8.40625 L 33.195312 27.59375 C 33.195312 31.054688 30.386719 33.863281 26.921875 33.863281 L 7.738281 33.863281 C 4.273438 33.863281 1.464844 31.054688 1.464844 27.59375 L 1.464844 8.40625 C 1.464844 4.945312 4.273438 2.136719 7.738281 2.136719 Z M 7.738281 2.136719 "/>
<path style=" stroke:none;fill-rule:nonzero;fill:rgb(33.72549%,66.666667%,83.137255%);fill-opacity:1;" d="M 33.199219 18 C 33.199219 26.765625 26.09375 33.867188 17.328125 33.867188 C 8.566406 33.867188 1.460938 26.765625 1.460938 18 C 1.460938 9.234375 8.566406 2.132812 17.328125 2.132812 C 26.09375 2.132812 33.199219 9.234375 33.199219 18 Z M 33.199219 18 "/>
<path style=" stroke:none;fill-rule:evenodd;fill:rgb(33.72549%,66.666667%,83.137255%);fill-opacity:1;" d="M 25.527344 2.136719 L 14.988281 2.136719 L 24.089844 11.238281 L 24.089844 11.242188 C 24.191406 11.34375 24.292969 11.453125 24.390625 11.558594 C 24.605469 11.796875 24.808594 12.042969 24.996094 12.300781 C 25.1875 12.554688 25.363281 12.820312 25.527344 13.09375 Z M 25.527344 2.136719 "/>
<path style=" stroke:none;fill-rule:evenodd;fill:rgb(33.72549%,66.666667%,83.137255%);fill-opacity:1;" d="M 33.195312 13.726562 L 33.195312 8.40625 C 33.195312 4.933594 30.398438 2.136719 26.921875 2.136719 L 26.890625 2.136719 L 26.890625 18 C 26.890625 18.148438 26.886719 18.292969 26.878906 18.4375 C 26.863281 18.757812 26.832031 19.074219 26.785156 19.390625 C 26.738281 19.707031 26.671875 20.019531 26.59375 20.328125 Z M 30.949219 4.582031 C 31.125 4.765625 31.296875 4.957031 31.464844 5.148438 C 31.292969 4.960938 31.128906 4.761719 30.949219 4.582031 Z M 32.132812 5.910156 C 32.3125 6.132812 32.488281 6.363281 32.65625 6.59375 C 32.484375 6.363281 32.3125 6.132812 32.132812 5.910156 Z M 33.203125 7.355469 C 33.367188 7.597656 33.515625 7.847656 33.667969 8.097656 C 33.519531 7.847656 33.363281 7.601562 33.203125 7.355469 Z M 34.136719 8.910156 C 34.277344 9.167969 34.410156 9.425781 34.539062 9.691406 C 34.410156 9.429688 34.277344 9.167969 34.136719 8.910156 Z M 34.136719 8.910156 "/>
<path style=" stroke:none;fill-rule:evenodd;fill:rgb(33.72549%,66.666667%,83.137255%);fill-opacity:1;" d="M 33.195312 26.195312 L 33.195312 15.65625 L 24.089844 24.761719 L 24.089844 24.757812 C 23.984375 24.863281 23.878906 24.964844 23.769531 25.0625 C 23.535156 25.277344 23.285156 25.476562 23.03125 25.667969 C 22.773438 25.855469 22.507812 26.03125 22.234375 26.195312 Z M 33.195312 26.195312 "/>
<path style=" stroke:none;fill-rule:evenodd;fill:rgb(33.72549%,66.666667%,83.137255%);fill-opacity:1;" d="M 21.601562 33.863281 L 26.921875 33.863281 C 30.398438 33.863281 33.195312 31.066406 33.195312 27.59375 L 33.195312 27.5625 L 17.328125 27.5625 C 17.183594 27.5625 17.035156 27.558594 16.890625 27.550781 C 16.574219 27.535156 16.253906 27.503906 15.941406 27.453125 C 15.625 27.40625 15.3125 27.34375 15.003906 27.265625 Z M 30.746094 31.617188 C 30.574219 31.78125 30.398438 31.941406 30.21875 32.101562 C 30.394531 31.9375 30.578125 31.785156 30.746094 31.617188 Z M 29.40625 32.820312 C 29.199219 32.980469 28.988281 33.140625 28.777344 33.296875 C 28.988281 33.136719 29.203125 32.984375 29.40625 32.820312 Z M 29.40625 32.820312 "/>
<path style=" stroke:none;fill-rule:evenodd;fill:rgb(33.72549%,66.666667%,83.137255%);fill-opacity:1;" d="M 9.132812 33.863281 L 19.671875 33.863281 L 10.570312 24.761719 L 10.570312 24.757812 C 10.46875 24.65625 10.367188 24.546875 10.269531 24.441406 C 10.054688 24.203125 9.851562 23.957031 9.664062 23.699219 C 9.472656 23.445312 9.296875 23.179688 9.132812 22.90625 Z M 9.132812 33.863281 "/>
<path style=" stroke:none;fill-rule:evenodd;fill:rgb(33.72549%,66.666667%,83.137255%);fill-opacity:1;" d="M 1.464844 22.273438 L 1.464844 27.59375 C 1.464844 31.066406 4.261719 33.863281 7.738281 33.863281 L 7.765625 33.863281 L 7.765625 18 C 7.769531 17.851562 7.773438 17.707031 7.78125 17.5625 C 7.796875 17.242188 7.828125 16.925781 7.875 16.613281 C 7.921875 16.296875 7.988281 15.984375 8.066406 15.671875 Z M 1.976562 29.371094 C 2.160156 29.617188 2.335938 29.859375 2.527344 30.097656 C 2.339844 29.859375 2.15625 29.617188 1.976562 29.371094 Z M 3.191406 30.851562 C 3.363281 31.042969 3.53125 31.234375 3.710938 31.417969 C 3.535156 31.230469 3.363281 31.042969 3.191406 30.851562 Z M 3.191406 30.851562 "/>
<path style=" stroke:none;fill-rule:evenodd;fill:rgb(33.72549%,66.666667%,83.137255%);fill-opacity:1;" d="M 1.464844 9.804688 L 1.464844 20.34375 L 10.570312 11.238281 L 10.570312 11.242188 C 10.675781 11.136719 10.78125 11.035156 10.890625 10.9375 C 11.128906 10.722656 11.375 10.523438 11.628906 10.332031 C 11.886719 10.144531 12.152344 9.96875 12.425781 9.804688 Z M 1.464844 9.804688 "/>
<path style=" stroke:none;fill-rule:evenodd;fill:rgb(33.72549%,66.666667%,83.137255%);fill-opacity:1;" d="M 13.058594 2.136719 L 7.738281 2.136719 C 4.261719 2.136719 1.464844 4.933594 1.464844 8.40625 L 1.464844 8.4375 L 17.328125 8.4375 C 17.476562 8.4375 17.621094 8.441406 17.769531 8.449219 C 18.085938 8.464844 18.40625 8.496094 18.71875 8.546875 C 19.035156 8.59375 19.347656 8.65625 19.65625 8.734375 Z M 5.921875 2.675781 C 5.691406 2.84375 5.460938 3.015625 5.238281 3.195312 C 5.460938 3.015625 5.691406 2.84375 5.921875 2.675781 Z M 4.476562 3.863281 C 4.289062 4.035156 4.09375 4.203125 3.910156 4.382812 C 4.097656 4.207031 4.285156 4.035156 4.476562 3.863281 Z M 4.476562 3.863281 "/>
<path style=" stroke:none;fill-rule:evenodd;fill:rgb(94.901961%,94.901961%,94.901961%);fill-opacity:1;" d="M 13.058594 2.136719 L 19.65625 8.734375 C 19.347656 8.65625 19.035156 8.59375 18.71875 8.546875 C 18.40625 8.496094 18.085938 8.464844 17.769531 8.449219 C 17.621094 8.441406 17.476562 8.4375 17.328125 8.4375 L 1.464844 8.4375 L 1.464844 9.804688 L 12.425781 9.804688 C 12.152344 9.96875 11.886719 10.144531 11.628906 10.332031 C 11.375 10.523438 11.128906 10.722656 10.890625 10.9375 C 10.78125 11.035156 10.675781 11.136719 10.570312 11.242188 L 10.570312 11.238281 L 1.464844 20.34375 L 1.464844 22.273438 L 8.066406 15.671875 C 7.988281 15.984375 7.921875 16.296875 7.875 16.609375 C 7.828125 16.925781 7.796875 17.242188 7.78125 17.558594 C 7.773438 17.707031 7.769531 17.851562 7.765625 18 L 7.765625 33.863281 L 9.132812 33.863281 L 9.132812 22.90625 C 9.296875 23.179688 9.472656 23.445312 9.664062 23.699219 C 9.851562 23.957031 10.054688 24.203125 10.269531 24.441406 C 10.367188 24.546875 10.46875 24.65625 10.570312 24.757812 L 10.570312 24.761719 L 19.671875 33.863281 L 21.601562 33.863281 L 15.003906 27.265625 C 15.3125 27.34375 15.625 27.40625 15.941406 27.453125 C 16.253906 27.503906 16.574219 27.535156 16.890625 27.550781 C 17.035156 27.558594 17.183594 27.5625 17.328125 27.5625 L 33.195312 27.5625 L 33.195312 26.195312 L 22.234375 26.195312 C 22.507812 26.03125 22.773438 25.855469 23.03125 25.667969 C 23.285156 25.476562 23.535156 25.277344 23.769531 25.0625 C 23.878906 24.964844 23.984375 24.863281 24.089844 24.757812 L 24.089844 24.761719 L 33.195312 15.65625 L 33.195312 13.730469 L 26.59375 20.328125 C 26.671875 20.019531 26.738281 19.707031 26.785156 19.390625 C 26.832031 19.074219 26.863281 18.757812 26.878906 18.441406 C 26.886719 18.292969 26.890625 18.148438 26.890625 18 L 26.890625 2.136719 L 25.527344 2.136719 L 25.527344 13.09375 C 25.363281 12.820312 25.1875 12.554688 24.996094 12.300781 C 24.808594 12.042969 24.605469 11.796875 24.390625 11.558594 C 24.292969 11.453125 24.191406 11.34375 24.089844 11.242188 L 24.089844 11.238281 L 14.988281 2.136719 Z M 13.058594 2.136719 "/>
<use xlink:href="#surface6"/>
<path style=" stroke:none;fill-rule:nonzero;fill:rgb(100%,100%,100%);fill-opacity:1;" d="M 27.585938 29.039062 L 23.386719 29.039062 L 23.386719 28.183594 L 24.859375 26.707031 C 25.046875 26.519531 25.214844 26.347656 25.363281 26.191406 C 25.515625 26.035156 25.644531 25.882812 25.753906 25.734375 C 25.863281 25.585938 25.949219 25.433594 26.007812 25.28125 C 26.066406 25.125 26.097656 24.960938 26.097656 24.78125 C 26.097656 24.585938 26.03125 24.433594 25.90625 24.324219 C 25.777344 24.214844 25.609375 24.160156 25.394531 24.160156 C 25.167969 24.160156 24.953125 24.214844 24.742188 24.316406 C 24.535156 24.421875 24.316406 24.566406 24.089844 24.757812 L 23.367188 23.964844 C 23.496094 23.859375 23.632812 23.753906 23.769531 23.65625 C 23.910156 23.554688 24.066406 23.464844 24.234375 23.390625 C 24.402344 23.3125 24.585938 23.25 24.789062 23.207031 C 24.992188 23.160156 25.21875 23.132812 25.472656 23.132812 C 25.769531 23.132812 26.039062 23.171875 26.277344 23.25 C 26.515625 23.328125 26.71875 23.4375 26.890625 23.582031 C 27.058594 23.722656 27.1875 23.890625 27.273438 24.09375 C 27.367188 24.296875 27.410156 24.523438 27.410156 24.773438 C 27.410156 25.003906 27.367188 25.222656 27.28125 25.433594 C 27.199219 25.640625 27.082031 25.84375 26.933594 26.046875 C 26.785156 26.246094 26.609375 26.445312 26.414062 26.644531 C 26.21875 26.839844 26.011719 27.039062 25.789062 27.246094 L 25.035156 27.949219 L 25.035156 28.003906 L 27.585938 28.003906 Z M 27.585938 29.039062 "/>
</g>
</svg>
