<?xml version="1.0" encoding="UTF-8"?>
<svg xmlns="http://www.w3.org/2000/svg" xmlns:xlink="http://www.w3.org/1999/xlink" width="36pt" height="36pt" viewBox="0 0 36 36" version="1.1">
<g id="surface1">
<path style=" stroke:none;fill-rule:evenodd;fill:rgb(23.529412%,43.137255%,70.588235%);fill-opacity:1;" d="M 8.40625 2.136719 L 27.59375 2.136719 C 31.054688 2.136719 33.863281 4.945312 33.863281 8.40625 L 33.863281 27.59375 C 33.863281 31.054688 31.054688 33.863281 27.59375 33.863281 L 8.40625 33.863281 C 4.945312 33.863281 2.136719 31.054688 2.136719 27.59375 L 2.136719 8.40625 C 2.136719 4.945312 4.945312 2.136719 8.40625 2.136719 Z M 8.40625 2.136719 "/>
<path style=" stroke:none;fill-rule:nonzero;fill:rgb(100%,100%,100%);fill-opacity:1;" d="M 22.507812 7.875 C 22.394531 7.867188 22.214844 7.941406 21.886719 8.085938 C 21.496094 8.253906 20.609375 8.394531 19.914062 8.394531 C 17.453125 8.445312 15.484375 9.285156 13.890625 10.875 C 11.726562 13.042969 11.042969 15.773438 12.03125 18.308594 C 12.257812 18.894531 12.398438 19.488281 12.339844 19.628906 C 12.28125 19.773438 11.863281 20.167969 11.417969 20.507812 C 10.445312 21.246094 9.773438 22.4375 9.605469 23.71875 C 9.503906 24.488281 9.574219 24.855469 10 25.773438 C 10.921875 27.738281 13.011719 28.582031 15.238281 27.882812 C 16.53125 27.480469 17.820312 26.046875 18.851562 23.875 C 19.746094 21.996094 19.78125 21.949219 20.738281 21.613281 C 22.355469 21.042969 23.371094 20.414062 24.382812 19.359375 C 26.175781 17.488281 26.839844 15.0625 26.199219 12.746094 C 25.910156 11.707031 25.664062 11.347656 24.359375 10.023438 C 23.53125 9.183594 22.796875 8.332031 22.726562 8.132812 C 22.667969 7.96875 22.621094 7.882812 22.507812 7.875 Z M 18.15625 10.125 C 18.925781 10.128906 19.515625 10.359375 19.679688 10.820312 C 19.730469 10.96875 19.507812 11.683594 19.179688 12.398438 C 18.335938 14.246094 18.066406 15.257812 17.554688 18.511719 C 16.921875 22.546875 16.230469 24.292969 14.847656 25.339844 C 13.972656 26 12.902344 26.054688 12.328125 25.472656 C 11.832031 24.96875 11.6875 24.335938 11.917969 23.675781 C 12.101562 23.152344 12.277344 23.066406 13.609375 22.871094 C 14.535156 22.734375 15.1875 22.09375 15.1875 21.253906 C 15.1875 20.726562 14.976562 20.421875 14.253906 19.660156 C 13.144531 18.484375 12.65625 17.355469 12.652344 15.929688 C 12.644531 13.699219 13.734375 11.800781 15.601562 10.804688 C 16.453125 10.347656 17.390625 10.121094 18.15625 10.125 Z M 21.007812 11.253906 C 21.238281 11.21875 21.527344 11.488281 21.941406 12.046875 C 23.570312 14.265625 23.402344 17.617188 21.566406 19.546875 C 20.785156 20.367188 20.601562 20.414062 20.058594 19.972656 C 19.746094 19.71875 19.683594 19.484375 19.6875 18.550781 C 19.691406 17.117188 20.117188 13.605469 20.449219 12.269531 C 20.609375 11.625 20.777344 11.285156 21.007812 11.253906 Z M 21.007812 11.253906 "/>
</g>
</svg>
