<?xml version="1.0" encoding="UTF-8"?>
<svg xmlns="http://www.w3.org/2000/svg" xmlns:xlink="http://www.w3.org/1999/xlink" width="36pt" height="36pt" viewBox="0 0 36 36" version="1.1">
<g id="surface1">
<path style=" stroke:none;fill-rule:evenodd;fill:rgb(87.45098%,74.509804%,34.117647%);fill-opacity:1;" d="M 30.628906 3.023438 C 30.507812 3.335938 30.375 3.640625 30.234375 3.941406 C 30.003906 4.414062 29.75 4.875 29.472656 5.320312 C 29.199219 5.765625 28.898438 6.195312 28.578125 6.613281 C 28.257812 7.03125 27.917969 7.429688 27.558594 7.8125 C 27.199219 8.195312 26.820312 8.558594 26.421875 8.90625 C 26.027344 9.25 25.613281 9.574219 25.183594 9.875 C 24.753906 10.179688 24.3125 10.460938 23.851562 10.722656 C 23.394531 10.980469 22.925781 11.214844 22.445312 11.429688 C 21.964844 11.640625 21.472656 11.832031 20.972656 11.992188 C 20.472656 12.15625 19.964844 12.296875 19.449219 12.410156 C 19.097656 12.488281 18.746094 12.554688 18.390625 12.605469 C 18.472656 13.125 18.535156 13.644531 18.566406 14.167969 C 18.585938 14.476562 18.597656 14.789062 18.601562 15.101562 C 18.597656 15.625 18.570312 16.152344 18.519531 16.671875 C 18.464844 17.191406 18.386719 17.710938 18.285156 18.226562 C 18.179688 18.738281 18.046875 19.246094 17.890625 19.746094 C 17.734375 20.25 17.554688 20.742188 17.347656 21.222656 C 17.144531 21.707031 16.917969 22.179688 16.664062 22.640625 C 16.410156 23.097656 16.136719 23.546875 15.835938 23.976562 C 15.539062 24.410156 15.222656 24.828125 14.882812 25.226562 C 14.542969 25.628906 14.183594 26.011719 13.804688 26.378906 C 13.425781 26.742188 13.03125 27.089844 12.617188 27.414062 C 12.207031 27.738281 11.777344 28.042969 11.335938 28.324219 C 10.894531 28.609375 10.4375 28.871094 9.964844 29.109375 C 9.496094 29.347656 9.015625 29.558594 8.523438 29.75 C 8.035156 29.9375 7.535156 30.105469 7.027344 30.246094 C 6.519531 30.382812 6.003906 30.5 5.488281 30.585938 C 4.96875 30.675781 4.445312 30.738281 3.917969 30.777344 C 3.664062 30.792969 3.40625 30.804688 3.144531 30.808594 C 4.246094 32.605469 6.136719 33.867188 8.410156 33.867188 L 27.59375 33.867188 C 31.066406 33.867188 33.863281 31.066406 33.863281 27.59375 L 33.863281 8.40625 C 33.863281 6.058594 32.53125 4.097656 30.628906 3.023438 Z M 30.628906 3.023438 "/>
<path style=" stroke:none;fill-rule:evenodd;fill:rgb(52.156863%,52.156863%,52.156863%);fill-opacity:1;" d="M 8.410156 2.132812 C 4.933594 2.132812 2.136719 4.933594 2.136719 8.40625 L 2.136719 27.59375 C 2.136719 28.796875 2.5625 29.855469 3.144531 30.808594 C 3.40625 30.804688 3.664062 30.792969 3.917969 30.777344 C 4.445312 30.738281 4.96875 30.675781 5.488281 30.585938 C 6.003906 30.5 6.519531 30.382812 7.027344 30.246094 C 7.535156 30.105469 8.035156 29.941406 8.523438 29.75 C 9.015625 29.558594 9.496094 29.347656 9.964844 29.109375 C 10.4375 28.871094 10.894531 28.609375 11.335938 28.324219 C 11.777344 28.042969 12.207031 27.738281 12.617188 27.414062 C 13.03125 27.089844 13.425781 26.742188 13.804688 26.378906 C 14.183594 26.011719 14.542969 25.628906 14.882812 25.226562 C 15.222656 24.828125 15.539062 24.410156 15.835938 23.976562 C 16.136719 23.546875 16.410156 23.097656 16.664062 22.640625 C 16.917969 22.179688 17.144531 21.707031 17.347656 21.222656 C 17.554688 20.742188 17.734375 20.25 17.890625 19.746094 C 18.046875 19.246094 18.179688 18.738281 18.285156 18.226562 C 18.386719 17.710938 18.464844 17.191406 18.519531 16.671875 C 18.570312 16.152344 18.597656 15.625 18.601562 15.101562 C 18.597656 14.789062 18.585938 14.476562 18.566406 14.167969 C 18.535156 13.644531 18.472656 13.125 18.390625 12.605469 C 18.746094 12.554688 19.097656 12.488281 19.449219 12.410156 C 19.964844 12.296875 20.472656 12.15625 20.972656 11.992188 C 21.472656 11.832031 21.964844 11.640625 22.445312 11.429688 C 22.925781 11.214844 23.394531 10.980469 23.855469 10.722656 C 24.3125 10.460938 24.753906 10.179688 25.183594 9.875 C 25.613281 9.574219 26.027344 9.25 26.421875 8.90625 C 26.820312 8.558594 27.199219 8.195312 27.558594 7.8125 C 27.917969 7.429688 28.257812 7.03125 28.578125 6.613281 C 28.898438 6.195312 29.199219 5.765625 29.472656 5.320312 C 29.75 4.875 30.003906 4.414062 30.234375 3.941406 C 30.375 3.640625 30.507812 3.335938 30.628906 3.023438 C 29.714844 2.507812 28.71875 2.132812 27.59375 2.132812 Z M 8.410156 2.132812 "/>
</g>
</svg>
