<?xml version="1.0" encoding="UTF-8"?>
<svg xmlns="http://www.w3.org/2000/svg" xmlns:xlink="http://www.w3.org/1999/xlink" width="36pt" height="36pt" viewBox="0 0 36 36" version="1.1">
<defs>
<clipPath id="clip1">
  <rect width="36" height="36"/>
</clipPath>
<g id="surface8" clip-path="url(#clip1)">
<path style=" stroke:none;fill-rule:nonzero;fill:rgb(100%,78.823529%,12.941176%);fill-opacity:1;" d="M 31.328125 22.027344 C 31.328125 27.175781 27.15625 31.347656 22.007812 31.347656 C 16.859375 31.347656 12.6875 27.175781 12.6875 22.027344 C 12.6875 16.878906 16.859375 12.707031 22.007812 12.707031 C 27.15625 12.707031 31.328125 16.878906 31.328125 22.027344 Z M 31.328125 22.027344 "/>
</g>
</defs>
<g id="surface1">
<path style=" stroke:none;fill-rule:evenodd;fill:rgb(21.960784%,46.666667%,100%);fill-opacity:1;" d="M 8.40625 2.136719 L 27.59375 2.136719 C 31.054688 2.136719 33.863281 4.945312 33.863281 8.40625 L 33.863281 27.59375 C 33.863281 31.054688 31.054688 33.863281 27.59375 33.863281 L 8.40625 33.863281 C 4.945312 33.863281 2.136719 31.054688 2.136719 27.59375 L 2.136719 8.40625 C 2.136719 4.945312 4.945312 2.136719 8.40625 2.136719 Z M 8.40625 2.136719 "/>
<path style=" stroke:none;fill-rule:nonzero;fill:rgb(100%,100%,100%);fill-opacity:1;" d="M 29.539062 17.9375 C 29.539062 24.4375 24.265625 29.710938 17.765625 29.710938 C 11.261719 29.710938 5.992188 24.4375 5.992188 17.9375 C 5.992188 11.433594 11.261719 6.164062 17.765625 6.164062 C 24.265625 6.164062 29.539062 11.433594 29.539062 17.9375 Z M 29.539062 17.9375 "/>
<path style=" stroke:none;fill-rule:nonzero;fill:rgb(21.960784%,46.666667%,100%);fill-opacity:1;" d="M 12.46875 6.710938 C 12.144531 6.871094 11.824219 7.042969 11.511719 7.226562 L 11.636719 7.226562 L 11.699219 7.433594 L 11.519531 7.601562 L 12.292969 7.621094 L 12.410156 7.902344 L 11.539062 7.867188 L 11.496094 7.65625 L 10.992188 7.542969 C 10.816406 7.664062 10.644531 7.789062 10.472656 7.914062 L 10.777344 7.914062 L 10.777344 8.117188 L 10.644531 8.296875 L 10.007812 8.296875 L 10.007812 8.269531 C 8.253906 9.703125 6.929688 11.597656 6.183594 13.738281 L 6.253906 13.773438 L 6.253906 14.796875 L 6.765625 15.675781 L 7.183594 15.738281 L 7.238281 15.4375 L 6.742188 14.675781 L 6.648438 13.933594 L 6.9375 13.933594 L 7.058594 14.699219 L 7.773438 15.738281 L 7.589844 16.078125 L 8.042969 16.773438 L 9.167969 17.050781 L 9.167969 16.867188 L 9.621094 16.933594 L 9.578125 17.253906 L 9.929688 17.320312 L 10.476562 17.46875 L 11.25 18.351562 L 12.238281 18.425781 L 12.332031 19.234375 L 11.660156 19.707031 L 11.628906 20.425781 L 11.53125 20.867188 L 12.507812 22.09375 L 12.582031 22.511719 C 12.582031 22.511719 12.933594 22.609375 12.980469 22.609375 C 13.023438 22.609375 13.773438 23.179688 13.773438 23.179688 L 13.773438 25.394531 L 14.039062 25.46875 L 13.859375 26.492188 L 14.308594 27.09375 L 14.226562 28.105469 L 14.820312 29.152344 L 15.578125 29.816406 C 15.59375 29.820312 15.605469 29.820312 15.621094 29.824219 L 16.355469 29.835938 L 16.429688 29.589844 L 15.863281 29.113281 L 15.898438 28.875 L 15.996094 28.585938 L 16.019531 28.289062 L 15.636719 28.277344 L 15.445312 28.035156 L 15.761719 27.730469 L 15.804688 27.5 L 15.449219 27.398438 L 15.472656 27.183594 L 15.976562 27.109375 L 16.742188 26.738281 L 17 26.265625 L 17.804688 25.234375 L 17.625 24.425781 L 17.871094 23.996094 L 18.609375 24.019531 L 19.109375 23.625 L 19.269531 22.066406 L 19.820312 21.363281 L 19.917969 20.910156 L 19.414062 20.75 L 19.082031 20.203125 L 17.945312 20.191406 L 17.042969 19.847656 L 17 19.203125 L 16.699219 18.675781 L 15.882812 18.664062 L 15.414062 17.921875 L 14.996094 17.71875 L 14.972656 17.941406 L 14.210938 17.988281 L 13.933594 17.597656 L 13.140625 17.4375 L 12.484375 18.195312 L 11.457031 18.023438 L 11.382812 16.859375 L 10.628906 16.730469 L 10.929688 16.160156 L 10.84375 15.832031 L 9.855469 16.492188 L 9.234375 16.417969 L 9.015625 15.929688 L 9.148438 15.429688 L 9.492188 14.796875 L 10.28125 14.398438 L 11.804688 14.394531 L 11.800781 14.863281 L 12.347656 15.117188 L 12.304688 14.320312 L 12.699219 13.921875 L 13.492188 13.398438 L 13.550781 13.03125 L 14.34375 12.203125 L 15.1875 11.734375 L 15.113281 11.671875 L 15.683594 11.132812 L 15.894531 11.1875 L 15.988281 11.308594 L 16.207031 11.070312 L 16.257812 11.046875 L 16.023438 11.011719 L 15.78125 10.929688 L 15.78125 10.699219 L 15.910156 10.59375 L 16.191406 10.59375 L 16.320312 10.652344 L 16.429688 10.875 L 16.566406 10.855469 L 16.566406 10.835938 L 16.605469 10.847656 L 17.003906 10.789062 L 17.058594 10.59375 L 17.285156 10.652344 L 17.285156 10.863281 L 17.074219 11.007812 L 17.105469 11.234375 L 17.824219 11.457031 C 17.824219 11.457031 17.824219 11.460938 17.824219 11.46875 L 17.992188 11.453125 L 18 11.140625 L 17.433594 10.882812 L 17.398438 10.734375 L 17.871094 10.570312 L 17.890625 10.117188 L 17.398438 9.820312 L 17.367188 9.054688 L 16.691406 9.386719 L 16.445312 9.386719 L 16.507812 8.808594 L 15.589844 8.589844 L 15.210938 8.878906 L 15.210938 9.757812 L 14.523438 9.976562 L 14.25 10.546875 L 13.953125 10.597656 L 13.953125 9.863281 L 13.308594 9.773438 L 12.988281 9.5625 L 12.859375 9.089844 L 14.007812 8.414062 L 14.570312 8.242188 L 14.628906 8.621094 L 14.941406 8.605469 L 14.964844 8.414062 L 15.292969 8.367188 L 15.300781 8.300781 L 15.160156 8.242188 L 15.125 8.039062 L 15.53125 8.007812 L 15.773438 7.753906 L 15.785156 7.734375 L 15.789062 7.734375 L 15.863281 7.660156 L 16.710938 7.550781 L 17.085938 7.871094 L 16.101562 8.394531 L 17.355469 8.691406 L 17.515625 8.273438 L 18.0625 8.273438 L 18.253906 7.90625 L 17.871094 7.808594 L 17.871094 7.347656 L 16.65625 6.808594 L 15.820312 6.90625 L 15.347656 7.152344 L 15.382812 7.753906 L 14.886719 7.679688 L 14.8125 7.347656 L 15.285156 6.917969 L 14.425781 6.875 L 14.179688 6.949219 L 14.074219 7.238281 L 14.394531 7.292969 L 14.332031 7.617188 L 13.78125 7.648438 L 13.699219 7.863281 L 12.90625 7.886719 C 12.90625 7.886719 12.882812 7.433594 12.851562 7.433594 C 12.820312 7.433594 13.472656 7.421875 13.472656 7.421875 L 13.945312 6.960938 L 13.6875 6.832031 L 13.34375 7.164062 L 12.777344 7.132812 L 12.472656 6.714844 Z M 25.757812 8.492188 L 25.367188 8.644531 L 25.117188 8.917969 L 25.175781 9.234375 L 25.484375 9.277344 L 25.667969 9.742188 L 26.199219 9.527344 L 26.285156 10.148438 L 26.125 10.148438 L 25.691406 10.082031 L 25.207031 10.164062 L 24.742188 10.824219 L 24.074219 10.929688 L 23.976562 11.503906 L 24.257812 11.570312 L 24.175781 11.9375 L 23.515625 11.804688 L 22.90625 11.9375 L 22.777344 12.277344 L 22.882812 12.988281 L 23.238281 13.15625 L 23.835938 13.152344 L 24.242188 13.117188 L 24.367188 12.796875 L 24.996094 11.972656 L 25.414062 12.058594 L 25.824219 11.6875 L 25.898438 11.976562 L 26.910156 12.660156 L 26.785156 12.824219 L 26.328125 12.800781 L 26.503906 13.046875 L 26.785156 13.109375 L 27.113281 12.972656 L 27.105469 12.578125 L 27.25 12.503906 L 27.132812 12.378906 L 26.460938 12.003906 L 26.285156 11.503906 L 26.84375 11.503906 L 27.023438 11.683594 L 27.503906 12.097656 L 27.523438 12.601562 L 28.023438 13.132812 L 28.207031 12.402344 L 28.554688 12.214844 L 28.617188 12.8125 L 28.957031 13.183594 L 29.113281 13.179688 C 28.660156 12.0625 28.046875 11.015625 27.292969 10.074219 L 26.480469 10.066406 L 26.425781 9.882812 L 26.90625 9.636719 C 26.550781 9.230469 26.167969 8.847656 25.757812 8.492188 Z M 10.765625 8.617188 C 10.789062 8.617188 10.765625 8.898438 10.765625 8.898438 L 10.128906 8.9375 L 10.007812 8.792969 L 10.457031 8.664062 C 10.457031 8.664062 10.742188 8.617188 10.765625 8.617188 Z M 11.539062 9.988281 L 11.84375 10.0625 L 11.738281 10.472656 L 11.40625 10.578125 L 11.199219 10.148438 Z M 12.375 10.960938 L 12.882812 10.960938 L 12.882812 11.117188 L 12.992188 11.117188 L 12.992188 11.382812 L 12.222656 11.382812 L 11.933594 11.300781 L 12.003906 11.117188 Z M 13.128906 11.074219 L 13.394531 11.316406 L 13.128906 11.382812 Z M 13.714844 11.445312 L 13.910156 11.570312 L 13.753906 11.699219 L 13.597656 11.570312 Z M 12.230469 11.488281 L 12.65625 11.488281 L 12.109375 12.253906 L 11.886719 12.132812 L 11.933594 11.808594 Z M 12.914062 11.488281 L 13.347656 11.488281 L 13.347656 11.746094 L 13.15625 11.871094 L 12.914062 11.914062 Z M 13.453125 11.769531 L 13.484375 11.769531 L 13.976562 11.914062 L 13.976562 12.164062 L 13.566406 12.164062 L 13.453125 12.003906 Z M 13.25 12.003906 L 13.25 12.253906 L 13.066406 12.441406 L 12.65625 12.441406 L 12.722656 12.15625 L 12.914062 12.140625 L 12.953125 12.042969 Z M 26.011719 13.066406 L 24.5625 13.179688 L 24.113281 13.421875 L 23.539062 13.421875 L 23.257812 13.394531 L 22.558594 13.78125 L 22.558594 14.515625 L 21.132812 15.546875 L 21.25 15.988281 L 21.539062 15.988281 L 21.464844 16.40625 L 21.261719 16.480469 L 21.25 17.578125 L 22.484375 18.984375 L 23.019531 18.984375 L 23.054688 18.898438 L 24.019531 18.898438 L 24.296875 18.640625 L 24.84375 18.640625 L 25.144531 18.945312 L 25.960938 19.027344 L 25.851562 20.117188 L 26.757812 21.71875 L 26.28125 22.628906 L 26.3125 23.058594 L 26.6875 23.4375 L 26.6875 24.46875 L 27.179688 25.136719 L 27.179688 25.585938 C 29.007812 23.390625 30.007812 20.621094 30.007812 17.761719 C 30.007812 16.578125 29.832031 15.398438 29.488281 14.261719 L 28.878906 14.261719 L 28.25 13.792969 L 27.59375 13.859375 L 27.59375 14.261719 L 27.382812 14.261719 L 27.15625 14.101562 L 26.011719 13.808594 Z M 26.011719 13.066406 "/>
<use xlink:href="#surface8"/>
<path style=" stroke:none;fill-rule:nonzero;fill:rgb(100%,100%,100%);fill-opacity:1;" d="M 22.117188 14.882812 C 20.007812 14.882812 18.378906 16.597656 18.378906 18.726562 L 18.378906 20.113281 L 17.550781 20.113281 C 17.179688 20.113281 16.882812 20.46875 16.882812 20.839844 L 16.882812 27.664062 C 16.882812 28.035156 17.179688 28.335938 17.550781 28.335938 L 26.679688 28.335938 C 27.050781 28.335938 27.347656 28.035156 27.347656 27.664062 L 27.347656 20.839844 C 27.347656 20.46875 27.046875 20.089844 26.679688 20.117188 L 25.851562 20.117188 L 25.851562 18.726562 C 25.851562 16.597656 24.222656 14.882812 22.117188 14.882812 Z M 22.117188 16.378906 C 23.433594 16.378906 24.359375 17.394531 24.359375 18.726562 L 24.359375 20.113281 L 19.875 20.113281 L 19.875 18.726562 C 19.875 17.394531 20.796875 16.378906 22.117188 16.378906 Z M 22.117188 16.378906 "/>
</g>
</svg>
