<?xml version="1.0" encoding="UTF-8"?>
<svg xmlns="http://www.w3.org/2000/svg" xmlns:xlink="http://www.w3.org/1999/xlink" width="36pt" height="36pt" viewBox="0 0 36 36" version="1.1">
<g id="surface1">
<path style=" stroke:none;fill-rule:evenodd;fill:rgb(36.470588%,70.588235%,24.313725%);fill-opacity:1;" d="M 8.40625 2.136719 L 27.59375 2.136719 C 31.054688 2.136719 33.863281 4.945312 33.863281 8.40625 L 33.863281 27.59375 C 33.863281 31.054688 31.054688 33.863281 27.59375 33.863281 L 8.40625 33.863281 C 4.945312 33.863281 2.136719 31.054688 2.136719 27.59375 L 2.136719 8.40625 C 2.136719 4.945312 4.945312 2.136719 8.40625 2.136719 Z M 8.40625 2.136719 "/>
<path style=" stroke:none;fill-rule:nonzero;fill:rgb(100%,100%,100%);fill-opacity:1;" d="M 24.226562 7.875 C 20.226562 7.875 19.476562 13.886719 21.726562 13.886719 C 23.976562 13.886719 28.226562 7.875 24.226562 7.875 Z M 18.066406 8.800781 C 18.003906 8.800781 17.933594 8.804688 17.863281 8.8125 C 15.597656 9.09375 16.394531 12.890625 17.601562 12.960938 C 18.769531 13.027344 20.046875 8.804688 18.066406 8.800781 Z M 14.136719 10.199219 C 13.996094 10.191406 13.84375 10.21875 13.671875 10.285156 C 11.851562 11.027344 13.394531 14.082031 14.414062 13.875 C 15.339844 13.6875 15.472656 10.285156 14.136719 10.199219 Z M 11.164062 12.695312 C 11.003906 12.691406 10.832031 12.746094 10.648438 12.878906 C 9.191406 13.957031 11.140625 16.558594 12 16.152344 C 12.75 15.800781 12.269531 12.734375 11.160156 12.695312 Z M 19.773438 15.179688 C 16.613281 15.125 12.445312 16.710938 11.734375 19.894531 C 10.96875 23.34375 14.90625 28.125 19.015625 28.125 C 21.035156 28.125 23.367188 26.296875 23.804688 23.984375 C 24.136719 22.21875 19.882812 22.925781 20.035156 24.09375 C 20.21875 25.492188 19.011719 26.183594 17.828125 25.285156 C 14.054688 22.410156 24.070312 20.976562 23.40625 17.054688 C 23.203125 15.832031 21.671875 15.210938 19.773438 15.179688 Z M 19.773438 15.179688 "/>
</g>
</svg>
