<?xml version="1.0" encoding="UTF-8"?>
<svg xmlns="http://www.w3.org/2000/svg" xmlns:xlink="http://www.w3.org/1999/xlink" width="36pt" height="36pt" viewBox="0 0 36 36" version="1.1">
<g id="surface1">
<path style=" stroke:none;fill-rule:evenodd;fill:rgb(37.254902%,48.627451%,54.117647%);fill-opacity:1;" d="M 8.40625 2.136719 L 27.59375 2.136719 C 31.054688 2.136719 33.863281 4.945312 33.863281 8.40625 L 33.863281 27.59375 C 33.863281 31.054688 31.054688 33.863281 27.59375 33.863281 L 8.40625 33.863281 C 4.945312 33.863281 2.136719 31.054688 2.136719 27.59375 L 2.136719 8.40625 C 2.136719 4.945312 4.945312 2.136719 8.40625 2.136719 Z M 8.40625 2.136719 "/>
<path style=" stroke:none;fill-rule:nonzero;fill:rgb(100%,100%,100%);fill-opacity:1;" d="M 18 6.957031 C 16.878906 8.058594 15.808594 9.316406 14.675781 10.417969 L 10.417969 10.417969 L 10.417969 14.679688 C 9.316406 15.808594 8.058594 16.882812 6.957031 18 C 8.058594 19.121094 9.316406 20.234375 10.417969 21.367188 L 10.417969 25.582031 L 14.675781 25.582031 C 15.808594 26.683594 16.882812 27.941406 18 29.042969 C 19.117188 27.941406 20.234375 26.683594 21.367188 25.582031 L 25.582031 25.582031 L 25.582031 21.367188 C 26.683594 20.230469 27.941406 19.117188 29.042969 18 C 27.941406 16.882812 26.683594 15.808594 25.582031 14.679688 L 25.582031 10.417969 L 21.367188 10.417969 C 20.234375 9.316406 19.121094 8.058594 18 6.957031 Z M 18 13.449219 C 15.488281 13.449219 13.449219 15.488281 13.449219 18 C 13.449219 20.511719 15.488281 22.550781 18 22.550781 Z M 18 13.449219 "/>
<path style=" stroke:none;fill-rule:nonzero;fill:rgb(37.254902%,48.627451%,54.117647%);fill-opacity:1;" d="M 18 11.601562 C 14.648438 11.601562 11.933594 14.316406 11.933594 17.667969 C 11.933594 21.019531 14.648438 23.734375 18 23.734375 Z M 18 11.601562 "/>
</g>
</svg>
