<?xml version="1.0" encoding="UTF-8"?>
<svg xmlns="http://www.w3.org/2000/svg" xmlns:xlink="http://www.w3.org/1999/xlink" width="36pt" height="36pt" viewBox="0 0 36 36" version="1.1">
<g id="surface1">
<path style=" stroke:none;fill-rule:evenodd;fill:rgb(71.764706%,71.764706%,71.764706%);fill-opacity:1;" d="M 8.40625 2.136719 L 27.59375 2.136719 C 31.054688 2.136719 33.863281 4.945312 33.863281 8.40625 L 33.863281 27.59375 C 33.863281 31.054688 31.054688 33.863281 27.59375 33.863281 L 8.40625 33.863281 C 4.945312 33.863281 2.136719 31.054688 2.136719 27.59375 L 2.136719 8.40625 C 2.136719 4.945312 4.945312 2.136719 8.40625 2.136719 Z M 8.40625 2.136719 "/>
<path style=" stroke:none;fill-rule:nonzero;fill:rgb(11.372549%,20.392157%,30.980392%);fill-opacity:1;" d="M 17.449219 24.792969 L 17.449219 26.183594 L 15.601562 26.199219 C 13.636719 26.21875 13.695312 26.210938 13.289062 26.433594 C 13.109375 26.53125 12.839844 26.769531 12.75 26.90625 L 12.671875 27.023438 L 10.742188 27.042969 L 8.808594 27.066406 L 8.621094 27.195312 C 8.078125 27.5625 8.132812 28.359375 8.722656 28.628906 C 8.882812 28.699219 9.042969 28.707031 10.78125 28.707031 L 12.667969 28.707031 L 12.734375 28.832031 C 12.871094 29.101562 13.386719 29.4375 13.78125 29.515625 C 13.886719 29.535156 15.960938 29.550781 18.40625 29.546875 L 22.84375 29.539062 L 23.078125 29.441406 C 23.40625 29.308594 23.628906 29.144531 23.804688 28.910156 L 23.953125 28.707031 L 25.785156 28.707031 C 26.917969 28.707031 27.679688 28.691406 27.777344 28.664062 C 28.109375 28.570312 28.367188 28.226562 28.363281 27.875 C 28.363281 27.515625 28.101562 27.191406 27.730469 27.085938 C 27.640625 27.0625 26.847656 27.042969 25.765625 27.042969 L 23.953125 27.042969 L 23.78125 26.828125 C 23.589844 26.589844 23.332031 26.410156 23.015625 26.292969 C 22.824219 26.222656 22.609375 26.214844 20.976562 26.199219 L 19.152344 26.183594 L 19.152344 24.792969 Z M 17.449219 24.792969 "/>
<path style=" stroke:none;fill-rule:nonzero;fill:rgb(32.156863%,58.039216%,88.627451%);fill-opacity:1;" d="M 26.777344 8.878906 C 27.640625 8.878906 28.335938 9.574219 28.335938 10.4375 L 28.335938 23.445312 C 28.335938 24.308594 27.640625 25.003906 26.777344 25.003906 L 9.195312 25.003906 C 8.332031 25.003906 7.636719 24.308594 7.636719 23.445312 L 7.636719 7.703125 C 7.636719 7.011719 8.195312 6.453125 8.886719 6.453125 L 15.601562 6.453125 C 16.292969 6.453125 16.859375 6.726562 17.300781 7.265625 L 18.632812 8.886719 Z M 26.777344 8.878906 "/>
<path style=" stroke:none;fill-rule:nonzero;fill:rgb(11.372549%,20.392157%,30.980392%);fill-opacity:1;" d="M 17.246094 12.59375 C 18.261719 12.59375 19.085938 13.417969 19.085938 14.433594 C 19.085938 15.449219 18.261719 16.273438 17.246094 16.273438 C 16.230469 16.273438 15.40625 15.449219 15.40625 14.433594 C 15.40625 13.417969 16.230469 12.59375 17.246094 12.59375 Z M 17.246094 12.59375 "/>
<path style=" stroke:none;fill-rule:nonzero;fill:rgb(11.372549%,20.392157%,30.980392%);fill-opacity:1;" d="M 17.246094 17.292969 C 20.921875 17.292969 20.921875 19.746094 20.921875 19.746094 L 20.921875 20.359375 L 13.570312 20.359375 L 13.570312 19.746094 C 13.570312 19.746094 13.570312 17.296875 17.246094 17.292969 Z M 17.246094 17.292969 "/>
<path style=" stroke:none;fill-rule:nonzero;fill:rgb(11.372549%,20.392157%,30.980392%);fill-opacity:1;" d="M 20.890625 14.289062 C 21.441406 14.289062 21.890625 14.738281 21.890625 15.289062 C 21.890625 15.84375 21.441406 16.289062 20.890625 16.289062 C 20.335938 16.289062 19.890625 15.84375 19.890625 15.289062 C 19.890625 14.738281 20.335938 14.289062 20.890625 14.289062 Z M 20.890625 14.289062 "/>
<path style=" stroke:none;fill-rule:nonzero;fill:rgb(11.372549%,20.392157%,30.980392%);fill-opacity:1;" d="M 20.890625 16.789062 C 22.886719 16.789062 22.886719 18.390625 22.886719 18.390625 L 22.886719 18.789062 L 18.890625 18.789062 L 18.890625 18.390625 C 18.890625 18.390625 18.890625 16.789062 20.890625 16.789062 Z M 20.890625 16.789062 "/>
</g>
</svg>
