<?xml version="1.0" encoding="UTF-8"?>
<svg xmlns="http://www.w3.org/2000/svg" xmlns:xlink="http://www.w3.org/1999/xlink" width="36pt" height="36pt" viewBox="0 0 36 36" version="1.1">
<g id="surface1">
<path style=" stroke:none;fill-rule:evenodd;fill:rgb(55.686275%,55.686275%,55.686275%);fill-opacity:1;" d="M 8.40625 2.136719 L 27.59375 2.136719 C 31.054688 2.136719 33.863281 4.945312 33.863281 8.40625 L 33.863281 27.59375 C 33.863281 31.054688 31.054688 33.863281 27.59375 33.863281 L 8.40625 33.863281 C 4.945312 33.863281 2.136719 31.054688 2.136719 27.59375 L 2.136719 8.40625 C 2.136719 4.945312 4.945312 2.136719 8.40625 2.136719 Z M 8.40625 2.136719 "/>
<path style=" stroke:none;fill-rule:nonzero;fill:rgb(27.843137%,27.843137%,27.843137%);fill-opacity:1;" d="M 10.027344 9.203125 L 25.972656 9.203125 C 28.058594 9.203125 29.753906 10.894531 29.753906 12.984375 L 29.753906 23.015625 C 29.753906 25.105469 28.058594 26.796875 25.972656 26.796875 L 10.027344 26.796875 C 7.941406 26.796875 6.246094 25.105469 6.246094 23.015625 L 6.246094 12.984375 C 6.246094 10.894531 7.941406 9.203125 10.027344 9.203125 Z M 10.027344 9.203125 "/>
<path style=" stroke:none;fill-rule:nonzero;fill:rgb(1.960784%,70.588235%,94.901961%);fill-opacity:1;" d="M 10.167969 10.316406 L 25.832031 10.316406 C 27.414062 10.316406 28.699219 11.546875 28.699219 13.066406 L 28.699219 22.933594 C 28.699219 24.453125 27.414062 25.683594 25.832031 25.683594 L 10.167969 25.683594 C 8.585938 25.683594 7.300781 24.453125 7.300781 22.933594 L 7.300781 13.066406 C 7.300781 11.546875 8.585938 10.316406 10.167969 10.316406 Z M 10.167969 10.316406 "/>
<path style=" stroke:none;fill-rule:nonzero;fill:rgb(100%,100%,100%);fill-opacity:1;" d="M 13.164062 23.460938 C 13.164062 23.136719 13.199219 23.027344 13.347656 22.929688 C 13.433594 22.875 13.457031 22.871094 13.738281 22.863281 L 14.035156 22.855469 L 14.035156 22.585938 C 14.035156 22.351562 14.042969 22.300781 14.085938 22.214844 C 14.148438 22.078125 14.289062 21.992188 14.472656 21.972656 L 14.609375 21.960938 L 14.636719 21.609375 C 14.707031 20.640625 14.949219 19.90625 15.394531 19.300781 C 15.546875 19.097656 15.835938 18.804688 16.207031 18.480469 C 16.695312 18.050781 16.691406 17.941406 16.164062 17.484375 C 15.800781 17.175781 15.460938 16.820312 15.308594 16.589844 C 14.90625 15.984375 14.683594 15.230469 14.628906 14.300781 L 14.613281 14.039062 L 14.472656 14.027344 C 14.289062 14.007812 14.148438 13.921875 14.085938 13.785156 C 14.042969 13.699219 14.035156 13.648438 14.035156 13.414062 L 14.035156 13.140625 L 13.761719 13.140625 C 13.4375 13.140625 13.332031 13.101562 13.234375 12.953125 C 13.179688 12.871094 13.171875 12.847656 13.167969 12.566406 L 13.160156 12.265625 L 22.839844 12.265625 L 22.832031 12.566406 C 22.828125 12.847656 22.820312 12.871094 22.765625 12.953125 C 22.667969 13.101562 22.5625 13.140625 22.238281 13.140625 L 21.964844 13.140625 L 21.964844 13.414062 C 21.964844 13.648438 21.957031 13.699219 21.914062 13.785156 C 21.851562 13.921875 21.710938 14.007812 21.527344 14.027344 L 21.386719 14.039062 L 21.371094 14.289062 C 21.328125 15.007812 21.191406 15.605469 20.964844 16.089844 C 20.714844 16.628906 20.421875 16.988281 19.8125 17.496094 C 19.503906 17.753906 19.410156 17.867188 19.410156 17.996094 C 19.410156 18.136719 19.480469 18.230469 19.816406 18.519531 C 20.214844 18.863281 20.382812 19.027344 20.550781 19.238281 C 21.039062 19.859375 21.3125 20.671875 21.371094 21.699219 L 21.386719 21.960938 L 21.527344 21.972656 C 21.710938 21.992188 21.851562 22.078125 21.914062 22.214844 C 21.957031 22.300781 21.964844 22.351562 21.964844 22.585938 L 21.964844 22.855469 L 22.261719 22.863281 C 22.542969 22.871094 22.566406 22.875 22.652344 22.929688 C 22.800781 23.027344 22.835938 23.136719 22.835938 23.460938 L 22.835938 23.734375 L 13.164062 23.734375 Z M 16.261719 21.8125 C 16.300781 21.390625 16.417969 21.007812 16.613281 20.6875 C 16.753906 20.449219 16.851562 20.320312 17.179688 19.949219 C 17.808594 19.230469 17.890625 19.046875 17.84375 18.46875 C 17.8125 18.144531 17.734375 17.84375 17.609375 17.585938 C 17.492188 17.355469 17.378906 17.199219 17.054688 16.828125 C 16.816406 16.5625 16.734375 16.429688 16.71875 16.308594 L 16.710938 16.242188 L 18.019531 16.238281 L 19.328125 16.230469 L 19.316406 16.320312 C 19.292969 16.480469 19.195312 16.636719 18.949219 16.914062 C 18.628906 17.277344 18.53125 17.40625 18.414062 17.625 C 18.167969 18.09375 18.085938 18.726562 18.230469 19.097656 C 18.324219 19.34375 18.421875 19.476562 18.960938 20.105469 C 19.472656 20.695312 19.667969 21.132812 19.738281 21.835938 L 19.75 21.964844 L 20.683594 21.964844 L 20.671875 21.8125 C 20.605469 20.777344 20.390625 20.140625 19.917969 19.585938 C 19.847656 19.5 19.632812 19.296875 19.441406 19.128906 C 18.988281 18.730469 18.910156 18.644531 18.816406 18.460938 C 18.679688 18.183594 18.675781 17.828125 18.804688 17.558594 C 18.894531 17.378906 19.019531 17.246094 19.386719 16.925781 C 19.917969 16.464844 20.097656 16.25 20.308594 15.824219 C 20.523438 15.382812 20.644531 14.835938 20.671875 14.175781 L 20.675781 14.035156 L 15.320312 14.035156 L 15.328125 14.199219 C 15.363281 14.859375 15.464844 15.324219 15.664062 15.765625 C 15.851562 16.1875 16.066406 16.460938 16.519531 16.855469 C 16.9375 17.222656 17.082031 17.378906 17.175781 17.570312 C 17.246094 17.714844 17.25 17.730469 17.25 18 C 17.25 18.269531 17.246094 18.285156 17.175781 18.429688 C 17.074219 18.636719 16.957031 18.769531 16.621094 19.0625 C 16.132812 19.488281 15.902344 19.761719 15.714844 20.128906 C 15.527344 20.5 15.378906 21.078125 15.347656 21.5625 C 15.339844 21.664062 15.328125 21.796875 15.324219 21.855469 L 15.3125 21.964844 L 16.25 21.964844 Z M 16.261719 21.8125 "/>
</g>
</svg>
