<?xml version="1.0" encoding="UTF-8"?>
<svg xmlns="http://www.w3.org/2000/svg" xmlns:xlink="http://www.w3.org/1999/xlink" width="36pt" height="36pt" viewBox="0 0 36 36" version="1.1">
<g id="surface1">
<path style=" stroke:none;fill-rule:evenodd;fill:rgb(36.470588%,70.588235%,24.313725%);fill-opacity:1;" d="M 8.40625 2.136719 L 27.59375 2.136719 C 31.054688 2.136719 33.863281 4.945312 33.863281 8.40625 L 33.863281 27.59375 C 33.863281 31.054688 31.054688 33.863281 27.59375 33.863281 L 8.40625 33.863281 C 4.945312 33.863281 2.136719 31.054688 2.136719 27.59375 L 2.136719 8.40625 C 2.136719 4.945312 4.945312 2.136719 8.40625 2.136719 Z M 8.40625 2.136719 "/>
<path style=" stroke:none;fill-rule:evenodd;fill:rgb(44.705882%,81.176471%,37.647059%);fill-opacity:1;" d="M 33.863281 11.179688 C 23.535156 8.0625 20.757812 29.597656 2.136719 20.496094 L 2.136719 27.59375 C 2.136719 31.066406 4.933594 33.863281 8.40625 33.863281 L 27.59375 33.863281 C 31.066406 33.863281 33.863281 31.066406 33.863281 27.59375 Z M 33.863281 11.179688 "/>
<path style=" stroke:none;fill-rule:nonzero;fill:rgb(97.647059%,97.647059%,97.647059%);fill-opacity:1;" d="M 11.707031 18.867188 L 24.292969 18.867188 C 26.484375 18.867188 28.257812 20.644531 28.257812 22.832031 C 28.257812 25.023438 26.484375 26.800781 24.292969 26.800781 L 11.707031 26.800781 C 9.515625 26.800781 7.742188 25.023438 7.742188 22.832031 C 7.742188 20.644531 9.515625 18.867188 11.707031 18.867188 Z M 11.707031 18.867188 "/>
<path style=" stroke:none;fill-rule:nonzero;fill:rgb(60%,60%,60%);fill-opacity:1;" d="M 14.777344 22.886719 C 14.777344 24.4375 13.523438 25.691406 11.972656 25.691406 C 10.425781 25.691406 9.167969 24.4375 9.167969 22.886719 C 9.167969 21.339844 10.425781 20.082031 11.972656 20.082031 C 13.523438 20.082031 14.777344 21.339844 14.777344 22.886719 Z M 14.777344 22.886719 "/>
<path style=" stroke:none;fill-rule:nonzero;fill:rgb(60%,60%,60%);fill-opacity:1;" d="M 20.898438 22.886719 C 20.898438 24.4375 19.644531 25.691406 18.09375 25.691406 C 16.546875 25.691406 15.289062 24.4375 15.289062 22.886719 C 15.289062 21.339844 16.546875 20.082031 18.09375 20.082031 C 19.644531 20.082031 20.898438 21.339844 20.898438 22.886719 Z M 20.898438 22.886719 "/>
<path style=" stroke:none;fill-rule:nonzero;fill:rgb(97.647059%,97.647059%,97.647059%);fill-opacity:1;" d="M 11.707031 9.199219 L 24.292969 9.199219 C 26.484375 9.199219 28.257812 10.976562 28.257812 13.167969 C 28.257812 15.355469 26.484375 17.132812 24.292969 17.132812 L 11.707031 17.132812 C 9.515625 17.132812 7.742188 15.355469 7.742188 13.167969 C 7.742188 10.976562 9.515625 9.199219 11.707031 9.199219 Z M 11.707031 9.199219 "/>
</g>
</svg>
