<?xml version="1.0" encoding="UTF-8"?>
<svg xmlns="http://www.w3.org/2000/svg" xmlns:xlink="http://www.w3.org/1999/xlink" width="36pt" height="36pt" viewBox="0 0 36 36" version="1.1">
<defs>
<linearGradient id="linear0" gradientUnits="userSpaceOnUse" x1="18.033899" y1="-8.271187" x2="17.634579" y2="6.68057" gradientTransform="matrix(1.125,0,0,1.125,-1.667929,12.889644)">
<stop offset="0" style="stop-color:rgb(100%,62.745098%,0.392157%);stop-opacity:1;"/>
<stop offset="1" style="stop-color:rgb(100%,49.803922%,0.392157%);stop-opacity:0;"/>
</linearGradient>
<linearGradient id="linear1" gradientUnits="userSpaceOnUse" x1="14.169707" y1="35.254238" x2="14.447506" y2="26.193838" gradientTransform="matrix(1.125,0,0,1.125,-0.421893,-6.07341)">
<stop offset="0" style="stop-color:rgb(97.254902%,69.803922%,28.627451%);stop-opacity:1;"/>
<stop offset="1" style="stop-color:rgb(97.254902%,69.803922%,28.627451%);stop-opacity:0;"/>
</linearGradient>
</defs>
<g id="surface1">
<path style=" stroke:none;fill-rule:evenodd;fill:rgb(26.666667%,22.352941%,9.803922%);fill-opacity:1;" d="M 8.417969 2.136719 L 27.601562 2.136719 C 31.066406 2.136719 33.875 4.945312 33.875 8.40625 L 33.875 27.59375 C 33.875 31.054688 31.066406 33.863281 27.601562 33.863281 L 8.417969 33.863281 C 4.953125 33.863281 2.144531 31.054688 2.144531 27.59375 L 2.144531 8.40625 C 2.144531 4.945312 4.953125 2.136719 8.417969 2.136719 Z M 8.417969 2.136719 "/>
<path style=" stroke:none;fill-rule:evenodd;fill:rgb(100%,85.882353%,37.647059%);fill-opacity:1;" d="M 8.417969 2.136719 L 27.601562 2.136719 C 31.066406 2.136719 33.875 4.945312 33.875 8.40625 L 33.875 27.59375 C 33.875 31.054688 31.066406 33.863281 27.601562 33.863281 L 8.417969 33.863281 C 4.953125 33.863281 2.144531 31.054688 2.144531 27.59375 L 2.144531 8.40625 C 2.144531 4.945312 4.953125 2.136719 8.417969 2.136719 Z M 8.417969 2.136719 "/>
<path style=" stroke:none;fill-rule:evenodd;fill:url(#linear0);" d="M 8.417969 2.136719 L 27.601562 2.136719 C 31.066406 2.136719 33.875 4.945312 33.875 8.40625 L 33.875 27.59375 C 33.875 31.054688 31.066406 33.863281 27.601562 33.863281 L 8.417969 33.863281 C 4.953125 33.863281 2.144531 31.054688 2.144531 27.59375 L 2.144531 8.40625 C 2.144531 4.945312 4.953125 2.136719 8.417969 2.136719 Z M 8.417969 2.136719 "/>
<path style=" stroke:none;fill-rule:nonzero;fill:rgb(44.313725%,38.823529%,0%);fill-opacity:1;" d="M 19.527344 9.605469 C 17.324219 9.605469 15.539062 11.355469 15.539062 13.515625 C 15.539062 14.496094 15.914062 15.4375 16.59375 16.160156 C 16.222656 16.726562 16.023438 17.40625 16.019531 18.097656 C 16.019531 19.960938 17.421875 21.46875 19.148438 21.46875 C 20.015625 21.46875 20.839844 21.082031 21.429688 20.398438 C 21.648438 20.535156 21.894531 20.605469 22.140625 20.605469 C 22.898438 20.605469 23.539062 19.960938 23.660156 19.082031 C 24.148438 19.304688 24.679688 19.417969 25.214844 19.421875 C 27.316406 19.421875 29.019531 17.71875 29.019531 15.617188 C 29.019531 13.519531 27.316406 11.816406 25.214844 11.816406 C 24.550781 11.816406 23.898438 11.996094 23.324219 12.328125 C 22.796875 10.707031 21.261719 9.605469 19.527344 9.605469 Z M 19.527344 9.605469 "/>
<path style=" stroke:none;fill-rule:nonzero;fill:rgb(30.196078%,22.745098%,0.784314%);fill-opacity:1;" d="M 23.996094 22.304688 C 23.96875 22.183594 23.765625 21.511719 23.765625 21.511719 C 23.238281 20.488281 22.507812 19.761719 21.730469 19.097656 C 18.878906 19.535156 18.621094 20.265625 18.171875 20.40625 L 17.929688 20.3125 C 18.621094 19.519531 19.644531 19.34375 20.542969 18.9375 L 18.816406 18.289062 L 18.871094 18.03125 L 21.351562 18.828125 C 21.261719 18.441406 20.78125 18.054688 20.339844 17.667969 L 20.570312 17.453125 C 20.953125 17.824219 21.355469 18.269531 21.703125 18.542969 C 22.339844 19.382812 22.980469 19.660156 23.617188 20.214844 L 23.660156 19.082031 C 22.363281 17.832031 21.253906 17.3125 20.246094 17.210938 L 20.152344 16.953125 C 21.03125 17.175781 21.769531 17.171875 23.050781 18.03125 C 22.683594 17.550781 22.371094 16.964844 22.148438 16.199219 L 22.40625 16.144531 C 22.699219 17.3125 23.160156 17.714844 23.550781 18.316406 C 23.566406 16.402344 23.910156 15.332031 24.277344 14.339844 L 24.574219 14.609375 C 23.3125 17.371094 24.304688 20.226562 25.046875 21.738281 Z M 23.996094 22.304688 "/>
<path style=" stroke:none;fill-rule:evenodd;fill:rgb(100%,98.431373%,62.745098%);fill-opacity:1;" d="M 23.789062 33.84375 L 27.875 25.457031 L 20.363281 24.121094 L 12.773438 22.941406 L 12.847656 22.671875 L 9.320312 22.652344 L 15.480469 24.082031 L 9.570312 24.691406 L 9.148438 25.914062 L 13.917969 27.097656 L 3.316406 29.613281 L 5.367188 32.261719 C 5.5 32.269531 7.792969 33.816406 7.925781 33.816406 Z M 23.789062 33.84375 "/>
<path style=" stroke:none;fill-rule:evenodd;fill:url(#linear1);" d="M 23.789062 33.84375 L 27.875 25.457031 L 20.363281 24.121094 L 12.773438 22.941406 L 12.847656 22.671875 L 9.320312 22.652344 L 15.480469 24.082031 L 9.570312 24.691406 L 9.148438 25.914062 L 13.917969 27.097656 L 3.316406 29.613281 L 5.367188 32.261719 C 5.5 32.269531 7.765625 33.84375 7.902344 33.84375 C 11.871094 33.890625 18.492188 33.84375 23.789062 33.84375 Z M 23.789062 33.84375 "/>
<path style=" stroke:none;fill-rule:nonzero;fill:rgb(99.607843%,69.803922%,0.784314%);fill-opacity:1;" d="M 9.632812 22.925781 L 23.90625 23.171875 L 23.871094 22.046875 L 19.863281 21.855469 L 19.265625 21.34375 L 18.667969 21.835938 L 17.648438 21.660156 L 16.453125 22.328125 L 14.152344 21.433594 L 13.660156 21.679688 L 13.324219 21.960938 L 12.078125 22.03125 Z M 9.632812 22.925781 "/>
<path style=" stroke:none;fill-rule:evenodd;fill:rgb(86.27451%,72.941176%,26.666667%);fill-opacity:1;" d="M 10.203125 25.679688 L 11.375 26.054688 C 11.375 26.054688 10.683594 25.5 10.652344 25.316406 C 10.621094 25.132812 10.664062 24.898438 10.945312 24.703125 C 11.515625 24.308594 16.398438 24.464844 16.355469 24.285156 C 16.316406 24.105469 9.59375 22.742188 8.019531 22.191406 C 7.734375 21.976562 5.988281 21.675781 4.808594 21.550781 C 4.226562 21.339844 2.824219 20.886719 2.132812 20.917969 L 2.132812 25.007812 C 3.503906 24.992188 4.761719 24.957031 6.742188 25.046875 C 7.894531 25.1875 9.050781 25.480469 10.203125 25.679688 Z M 10.203125 25.679688 "/>
<path style=" stroke:none;fill-rule:evenodd;fill:rgb(76.078431%,64.705882%,14.509804%);fill-opacity:1;" d="M 3.316406 29.613281 C 7.394531 28.65625 10.289062 28.15625 14.484375 27.257812 C 14.359375 27.015625 14.105469 26.628906 13.082031 26.410156 C 10.886719 25.714844 8.9375 25.347656 6.742188 25.046875 C 4.867188 24.949219 3.429688 24.992188 2.132812 25.007812 C 2.148438 26.335938 2.054688 28 2.257812 28.746094 Z M 3.316406 29.613281 "/>
<path style=" stroke:none;fill-rule:evenodd;fill:rgb(24.705882%,20%,1.176471%);fill-opacity:1;" d="M 8.03125 33.851562 L 8.535156 33.324219 C 8.8125 33.089844 8.914062 32.867188 8.910156 32.652344 C 8.902344 32.433594 8.792969 32.222656 8.644531 32.011719 C 6.640625 30.832031 4.679688 29.835938 2.753906 28.957031 C 2.566406 28.871094 2.445312 28.824219 2.257812 28.746094 C 2.761719 31.554688 5.0625 33.761719 8.03125 33.851562 Z M 8.03125 33.851562 "/>
<path style=" stroke:none;fill-rule:nonzero;fill:rgb(86.27451%,72.941176%,26.666667%);fill-opacity:1;" d="M 18.242188 24.140625 C 20.09375 24.722656 22.019531 25.085938 24.121094 24.882812 L 25.980469 22.644531 C 21.976562 22.558594 19.625 23.148438 18.242188 24.140625 Z M 18.242188 24.140625 "/>
<path style=" stroke:none;fill-rule:evenodd;fill:rgb(26.666667%,22.352941%,9.803922%);fill-opacity:1;" d="M 33.875 21.214844 L 33.433594 21.394531 C 32.984375 21.128906 32.578125 21.300781 31.992188 21.375 C 31.554688 21.144531 30.089844 20.789062 29.007812 20.59375 C 28.292969 20.074219 27.308594 20.097656 26.363281 20.042969 C 25.492188 20.460938 23.976562 21.164062 23.738281 21.578125 L 22.664062 22.644531 C 22.375 23.183594 22.390625 23.335938 22.726562 23.902344 C 22.4375 24.101562 21.988281 24.476562 21.636719 24.882812 C 21.285156 25.289062 21.03125 25.726562 21.128906 26.066406 L 21.621094 26.507812 C 20.390625 27.53125 19.796875 28.414062 18.992188 29.824219 C 18.992188 29.824219 18.777344 30.046875 18.882812 30.320312 C 18.949219 30.488281 19.445312 30.917969 19.585938 31.109375 C 19.792969 31.390625 19.667969 31.429688 19.785156 31.617188 L 21.359375 33.855469 L 27.601562 33.855469 C 31.074219 33.855469 33.875 31.0625 33.875 27.585938 Z M 33.875 21.214844 "/>
<path style=" stroke:none;fill-rule:evenodd;fill:rgb(17.254902%,10.980392%,5.098039%);fill-opacity:1;" d="M 29.464844 33.535156 C 27.714844 32.683594 24.195312 30.492188 24.453125 30.648438 C 24.738281 30.820312 25.75 33.753906 25.75 33.753906 C 25.75 33.753906 22.734375 30.359375 22.085938 29.75 C 21.4375 29.140625 21.917969 29.292969 20.925781 29.160156 C 20.429688 29.09375 20.269531 29.230469 20.183594 29.449219 C 20.09375 29.667969 20.078125 29.96875 19.859375 30.226562 C 19.636719 30.484375 19.636719 30.484375 19.496094 30.4375 C 19.476562 30.429688 19.34375 30.433594 19.316406 30.425781 C 19.46875 30.625 19.792969 30.933594 19.914062 31.097656 C 20.121094 31.378906 19.992188 31.417969 20.113281 31.601562 L 21.585938 33.699219 L 21.730469 33.84375 L 27.929688 33.84375 C 28.472656 33.84375 28.960938 33.667969 29.464844 33.535156 Z M 29.464844 33.535156 "/>
<path style=" stroke:none;fill-rule:evenodd;fill:rgb(17.254902%,10.980392%,5.098039%);fill-opacity:1;" d="M 21.488281 26.535156 L 21.554688 26.617188 C 21.554688 26.617188 22.253906 25.957031 22.835938 25.726562 C 23.414062 25.496094 24.183594 25.765625 24.183594 25.765625 C 24.183594 25.765625 24.289062 25.589844 25.558594 25.671875 C 26.824219 25.753906 30.023438 26.871094 30.023438 26.871094 C 30.023438 26.871094 28.363281 25.484375 26.933594 24.835938 C 26.21875 24.515625 25.558594 24.417969 25.074219 24.40625 C 24.59375 24.390625 24.292969 24.460938 24.292969 24.460938 L 21.417969 25.273438 C 21.316406 25.484375 21.105469 25.714844 21.152344 25.890625 L 21.648438 26.332031 C 21.574219 26.394531 21.558594 26.472656 21.488281 26.535156 Z M 21.488281 26.535156 "/>
<path style=" stroke:none;fill-rule:nonzero;fill:rgb(26.666667%,22.352941%,9.803922%);fill-opacity:1;" d="M 14.886719 33.582031 C 15.335938 33.714844 15.78125 33.859375 16.273438 33.859375 L 25.566406 33.859375 L 20.085938 31.230469 C 19 31.324219 17.917969 31.15625 16.835938 31.582031 C 15.714844 32.089844 15.449219 32.46875 14.886719 32.894531 C 14.691406 33.210938 14.777344 33.398438 14.886719 33.582031 Z M 14.886719 33.582031 "/>
<path style=" stroke:none;fill-rule:evenodd;fill:rgb(31.764706%,29.411765%,0.392157%);fill-opacity:1;" d="M 21.492188 2.136719 C 21.472656 2.152344 21.453125 2.171875 21.433594 2.1875 C 21.320312 2.304688 21.214844 2.429688 21.113281 2.554688 C 21.011719 2.683594 20.914062 2.816406 20.828125 2.953125 C 20.765625 3.046875 20.707031 3.148438 20.652344 3.25 C 20.574219 3.390625 20.503906 3.539062 20.441406 3.691406 C 20.375 3.839844 20.320312 3.992188 20.273438 4.148438 C 20.226562 4.304688 20.1875 4.464844 20.15625 4.625 C 20.125 4.785156 20.101562 4.945312 20.089844 5.109375 C 20.074219 5.273438 20.066406 5.433594 20.066406 5.597656 C 20.070312 5.761719 20.082031 5.929688 20.097656 6.089844 C 20.117188 6.253906 20.144531 6.417969 20.179688 6.578125 C 20.191406 6.648438 20.207031 6.714844 20.226562 6.785156 C 20.105469 6.851562 19.988281 6.921875 19.871094 7 C 19.757812 7.074219 19.644531 7.15625 19.539062 7.246094 C 19.429688 7.332031 19.328125 7.425781 19.230469 7.523438 C 19.128906 7.621094 19.035156 7.722656 18.941406 7.832031 C 18.851562 7.9375 18.769531 8.050781 18.6875 8.164062 C 18.609375 8.28125 18.535156 8.402344 18.464844 8.523438 C 18.453125 8.539062 18.445312 8.558594 18.4375 8.574219 C 18.367188 8.699219 18.308594 8.824219 18.253906 8.953125 C 18.199219 9.082031 18.148438 9.214844 18.105469 9.347656 C 18.0625 9.480469 18.023438 9.617188 17.992188 9.753906 C 17.964844 9.886719 17.941406 10.023438 17.921875 10.164062 C 17.90625 10.300781 17.894531 10.441406 17.890625 10.578125 C 17.886719 10.714844 17.890625 10.855469 17.898438 10.992188 C 17.90625 11.128906 17.921875 11.265625 17.945312 11.398438 C 17.96875 11.535156 17.996094 11.667969 18.035156 11.796875 C 18.070312 11.929688 18.109375 12.058594 18.160156 12.183594 C 18.207031 12.308594 18.257812 12.429688 18.320312 12.550781 C 18.378906 12.667969 18.445312 12.785156 18.515625 12.894531 C 18.589844 13.007812 18.667969 13.113281 18.75 13.21875 C 18.832031 13.320312 18.917969 13.417969 19.011719 13.511719 C 19.101562 13.605469 19.199219 13.691406 19.300781 13.773438 C 19.402344 13.859375 19.507812 13.933594 19.621094 14.007812 C 19.695312 14.054688 19.773438 14.101562 19.855469 14.148438 C 19.96875 14.207031 20.085938 14.265625 20.207031 14.3125 C 20.328125 14.363281 20.453125 14.40625 20.582031 14.441406 C 20.707031 14.480469 20.832031 14.511719 20.960938 14.535156 C 21.089844 14.554688 21.222656 14.574219 21.355469 14.582031 C 21.484375 14.589844 21.617188 14.59375 21.75 14.589844 C 21.882812 14.582031 22.015625 14.570312 22.148438 14.554688 C 22.28125 14.535156 22.414062 14.507812 22.542969 14.476562 C 22.675781 14.445312 22.804688 14.40625 22.933594 14.363281 C 22.957031 14.351562 22.980469 14.34375 23 14.335938 C 23.035156 14.394531 23.070312 14.449219 23.109375 14.503906 C 23.148438 14.554688 23.191406 14.605469 23.234375 14.652344 C 23.277344 14.703125 23.324219 14.746094 23.371094 14.789062 C 23.421875 14.832031 23.472656 14.871094 23.523438 14.910156 C 23.566406 14.9375 23.613281 14.964844 23.660156 14.992188 C 23.714844 15.019531 23.773438 15.046875 23.835938 15.070312 C 23.894531 15.09375 23.953125 15.117188 24.015625 15.132812 C 24.078125 15.148438 24.144531 15.164062 24.207031 15.171875 C 24.273438 15.183594 24.335938 15.1875 24.402344 15.191406 C 24.46875 15.191406 24.535156 15.191406 24.601562 15.1875 C 24.667969 15.183594 24.734375 15.175781 24.800781 15.160156 C 24.867188 15.148438 24.933594 15.132812 25 15.117188 C 25.066406 15.097656 25.132812 15.074219 25.199219 15.046875 C 25.265625 15.019531 25.328125 14.992188 25.390625 14.957031 C 25.453125 14.925781 25.515625 14.890625 25.578125 14.851562 C 25.636719 14.8125 25.695312 14.769531 25.753906 14.722656 C 25.8125 14.679688 25.867188 14.628906 25.921875 14.578125 C 25.976562 14.527344 26.027344 14.476562 26.078125 14.421875 C 26.128906 14.367188 26.175781 14.308594 26.21875 14.246094 C 26.226562 14.238281 26.230469 14.230469 26.234375 14.222656 C 26.332031 14.351562 26.433594 14.472656 26.542969 14.589844 C 26.648438 14.703125 26.761719 14.816406 26.882812 14.921875 C 27 15.023438 27.125 15.125 27.253906 15.214844 C 27.382812 15.308594 27.515625 15.394531 27.652344 15.472656 C 27.683594 15.492188 27.714844 15.507812 27.746094 15.527344 C 27.882812 15.601562 28.027344 15.671875 28.175781 15.734375 C 28.320312 15.792969 28.46875 15.847656 28.621094 15.894531 C 28.773438 15.941406 28.925781 15.980469 29.082031 16.011719 C 29.238281 16.042969 29.394531 16.066406 29.550781 16.082031 C 29.710938 16.097656 29.867188 16.105469 30.027344 16.105469 C 30.183594 16.105469 30.34375 16.097656 30.5 16.082031 C 30.660156 16.066406 30.816406 16.042969 30.972656 16.011719 C 31.125 15.980469 31.28125 15.941406 31.433594 15.894531 C 31.582031 15.847656 31.734375 15.789062 31.878906 15.730469 C 32.023438 15.667969 32.167969 15.597656 32.308594 15.523438 C 32.445312 15.445312 32.582031 15.363281 32.710938 15.273438 C 32.84375 15.183594 32.96875 15.089844 33.089844 14.984375 C 33.210938 14.882812 33.324219 14.773438 33.4375 14.660156 C 33.546875 14.546875 33.652344 14.425781 33.75 14.300781 C 33.792969 14.246094 33.835938 14.1875 33.875 14.125 L 33.875 8.410156 C 33.875 4.933594 31.078125 2.136719 27.601562 2.136719 Z M 21.492188 2.136719 "/>
<path style=" stroke:none;fill-rule:nonzero;fill:rgb(30.196078%,22.745098%,0.784314%);fill-opacity:1;" d="M 27.671875 21.453125 C 26.761719 22.871094 27.285156 19.765625 27.285156 19.765625 C 27.671875 18.597656 26.144531 15.128906 26.046875 14.832031 C 23.453125 14.019531 24.824219 14.128906 24.386719 14.0625 L 24.21875 13.878906 C 24.925781 13.964844 25.550781 14.339844 26.234375 14.222656 C 26.316406 13.859375 26.074219 13.332031 25.863281 12.824219 L 26.144531 12.738281 C 26.3125 13.210938 26.46875 13.75 26.648438 14.128906 C 27.679688 16.429688 27.496094 15.8125 27.804688 16.546875 C 27.699219 14.457031 28.039062 13.246094 28.980469 11.667969 L 30.289062 11.558594 C 27.863281 13.296875 28.351562 19.671875 28.796875 21.410156 Z M 27.671875 21.453125 "/>
</g>
</svg>
