<?xml version="1.0" encoding="UTF-8"?>
<svg xmlns="http://www.w3.org/2000/svg" xmlns:xlink="http://www.w3.org/1999/xlink" width="36pt" height="36pt" viewBox="0 0 36 36" version="1.1">
<g id="surface1">
<path style=" stroke:none;fill-rule:evenodd;fill:rgb(55.686275%,55.686275%,55.686275%);fill-opacity:1;" d="M 8.40625 2.136719 L 27.59375 2.136719 C 31.054688 2.136719 33.863281 4.945312 33.863281 8.40625 L 33.863281 27.59375 C 33.863281 31.054688 31.054688 33.863281 27.59375 33.863281 L 8.40625 33.863281 C 4.945312 33.863281 2.136719 31.054688 2.136719 27.59375 L 2.136719 8.40625 C 2.136719 4.945312 4.945312 2.136719 8.40625 2.136719 Z M 8.40625 2.136719 "/>
<path style=" stroke:none;fill-rule:evenodd;fill:rgb(80%,80%,80%);fill-opacity:1;" d="M 12.3125 9.429688 L 12.3125 20.027344 C 12.3125 22.082031 13.96875 23.738281 16.027344 23.738281 L 27.382812 23.738281 C 29.441406 23.738281 31.097656 22.082031 31.097656 20.027344 L 31.097656 9.429688 Z M 12.3125 9.429688 "/>
<path style=" stroke:none;fill-rule:evenodd;fill:rgb(38.823529%,43.137255%,45.098039%);fill-opacity:1;" d="M 12.3125 9.429688 L 31.097656 9.429688 L 31.097656 8.667969 C 31.097656 6.609375 29.441406 4.953125 27.382812 4.953125 L 16.027344 4.953125 C 13.96875 4.953125 12.3125 6.609375 12.3125 8.667969 Z M 12.3125 9.429688 "/>
<path style=" stroke:none;fill-rule:evenodd;fill:rgb(92.54902%,92.54902%,92.54902%);fill-opacity:1;" d="M 4.902344 16.734375 L 4.902344 27.332031 C 4.902344 29.386719 6.558594 31.046875 8.613281 31.046875 L 19.972656 31.046875 C 22.03125 31.046875 23.6875 29.386719 23.6875 27.332031 L 23.6875 16.734375 Z M 4.902344 16.734375 "/>
<path style=" stroke:none;fill-rule:evenodd;fill:rgb(38.823529%,43.137255%,45.098039%);fill-opacity:1;" d="M 4.902344 16.734375 L 23.6875 16.734375 L 23.6875 15.972656 C 23.6875 13.917969 22.03125 12.261719 19.972656 12.261719 L 8.613281 12.261719 C 6.558594 12.261719 4.902344 13.917969 4.902344 15.972656 Z M 4.902344 16.734375 "/>
</g>
</svg>
