<?xml version="1.0" encoding="UTF-8"?>
<svg xmlns="http://www.w3.org/2000/svg" xmlns:xlink="http://www.w3.org/1999/xlink" width="36pt" height="36pt" viewBox="0 0 36 36" version="1.1">
<g id="surface1">
<path style=" stroke:none;fill-rule:evenodd;fill:rgb(92.156863%,92.156863%,92.156863%);fill-opacity:1;" d="M 32.03125 3.96875 C 30.898438 2.835938 29.332031 2.136719 27.59375 2.136719 L 8.410156 2.136719 C 4.933594 2.136719 2.136719 4.933594 2.136719 8.40625 L 2.136719 27.589844 C 2.136719 31.066406 4.933594 33.863281 8.410156 33.863281 L 18 33.863281 L 18 18 Z M 32.03125 3.96875 "/>
<path style=" stroke:none;fill-rule:evenodd;fill:rgb(76.862745%,76.862745%,76.862745%);fill-opacity:1;" d="M 32.03125 3.96875 L 18 18 L 18 33.863281 L 27.59375 33.863281 C 31.066406 33.863281 33.863281 31.066406 33.863281 27.589844 L 33.863281 8.40625 C 33.863281 6.667969 33.164062 5.101562 32.03125 3.96875 Z M 32.03125 3.96875 "/>
<path style=" stroke:none;fill-rule:nonzero;fill:rgb(92.156863%,92.156863%,92.156863%);fill-opacity:1;" d="M 18 5.625 C 14.574219 5.625 11.488281 7.015625 9.25 9.253906 C 7.011719 11.488281 5.625 14.574219 5.625 18 C 5.625 24.855469 11.144531 30.375 18 30.375 L 18 18 L 26.75 9.25 C 24.515625 7.011719 21.429688 5.621094 18 5.621094 Z M 18 5.625 "/>
<path style=" stroke:none;fill-rule:nonzero;fill:rgb(36.862745%,36.862745%,36.862745%);fill-opacity:1;" d="M 26.507812 8.9375 L 17.445312 17.445312 L 18.554688 18.558594 L 27.0625 9.492188 Z M 26.507812 8.9375 "/>
<path style="fill:none;stroke-width:0.6875;stroke-linecap:butt;stroke-linejoin:miter;stroke:rgb(95.294118%,25.882353%,20.784314%);stroke-opacity:1;stroke-miterlimit:4;" d="M -53.695312 13.695312 L -53.695312 24.695312 " transform="matrix(1.125,0,0,1.125,78.407226,2.592773)"/>
<path style=" stroke:none;fill-rule:nonzero;fill:rgb(24.705882%,24.705882%,24.705882%);fill-opacity:1;" d="M 12.097656 11.53125 L 11.539062 12.085938 L 17.445312 18.558594 L 18.558594 17.445312 Z M 12.097656 11.53125 "/>
<path style=" stroke:none;fill-rule:nonzero;fill:rgb(24.705882%,24.705882%,24.705882%);fill-opacity:1;" d="M 18.773438 18 C 18.773438 18.429688 18.429688 18.773438 18 18.773438 C 17.574219 18.773438 17.226562 18.429688 17.226562 18 C 17.226562 17.574219 17.574219 17.226562 18 17.226562 C 18.429688 17.226562 18.773438 17.574219 18.773438 18 Z M 18.773438 18 "/>
</g>
</svg>
