<?xml version="1.0" encoding="UTF-8"?>
<svg xmlns="http://www.w3.org/2000/svg" xmlns:xlink="http://www.w3.org/1999/xlink" width="36pt" height="36pt" viewBox="0 0 36 36" version="1.1">
<g id="surface1">
<path style=" stroke:none;fill-rule:evenodd;fill:rgb(67.843137%,24.705882%,21.176471%);fill-opacity:1;" d="M 8.40625 2.136719 L 27.59375 2.136719 C 31.054688 2.136719 33.863281 4.945312 33.863281 8.40625 L 33.863281 27.59375 C 33.863281 31.054688 31.054688 33.863281 27.59375 33.863281 L 8.40625 33.863281 C 4.945312 33.863281 2.136719 31.054688 2.136719 27.59375 L 2.136719 8.40625 C 2.136719 4.945312 4.945312 2.136719 8.40625 2.136719 Z M 8.40625 2.136719 "/>
<path style=" stroke:none;fill-rule:nonzero;fill:rgb(97.647059%,97.647059%,97.647059%);fill-opacity:1;" d="M 28.277344 18.417969 C 28.277344 24.199219 23.589844 28.886719 17.808594 28.886719 C 12.027344 28.886719 7.34375 24.199219 7.34375 18.417969 C 7.34375 12.636719 12.027344 7.949219 17.808594 7.949219 C 23.589844 7.949219 28.277344 12.636719 28.277344 18.417969 Z M 28.277344 18.417969 "/>
<path style=" stroke:none;fill-rule:nonzero;fill:rgb(23.137255%,54.117647%,87.843137%);fill-opacity:1;" d="M 27.109375 26.875 L 18.226562 17.996094 L 27.109375 9.113281 C 32.015625 14.019531 32.015625 21.972656 27.109375 26.875 Z M 27.109375 26.875 "/>
<path style=" stroke:none;fill-rule:nonzero;fill:rgb(49.019608%,77.254902%,39.215686%);fill-opacity:1;" d="M 18.226562 7.113281 L 18.226562 18 L 25.925781 10.300781 C 23.957031 8.332031 21.234375 7.113281 18.226562 7.113281 Z M 18.226562 7.113281 "/>
</g>
</svg>
