<?xml version="1.0" encoding="UTF-8"?>
<svg xmlns="http://www.w3.org/2000/svg" xmlns:xlink="http://www.w3.org/1999/xlink" width="36pt" height="36pt" viewBox="0 0 36 36" version="1.1">
<defs>
<clipPath id="clip1">
  <rect width="36" height="36"/>
</clipPath>
<g id="surface6" clip-path="url(#clip1)">
<path style=" stroke:none;fill-rule:nonzero;fill:rgb(100%,100%,100%);fill-opacity:1;" d="M 18 9.238281 C 14.597656 9.238281 11.699219 11.257812 10.453125 14.117188 C 7.285156 14.574219 4.855469 17.191406 4.855469 20.390625 C 4.855469 23.910156 7.796875 26.761719 11.425781 26.761719 L 25.394531 26.761719 C 28.570312 26.761719 31.144531 24.265625 31.144531 21.1875 C 31.144531 18.324219 28.925781 15.976562 26.0625 15.660156 C 25.316406 12.003906 21.988281 9.238281 18 9.238281 Z M 18 9.238281 "/>
</g>
</defs>
<g id="surface1">
<path style=" stroke:none;fill-rule:evenodd;fill:rgb(92.54902%,38.431373%,58.431373%);fill-opacity:1;" d="M 8.40625 2.136719 L 27.59375 2.136719 C 31.054688 2.136719 33.863281 4.945312 33.863281 8.40625 L 33.863281 27.59375 C 33.863281 31.054688 31.054688 33.863281 27.59375 33.863281 L 8.40625 33.863281 C 4.945312 33.863281 2.136719 31.054688 2.136719 27.59375 L 2.136719 8.40625 C 2.136719 4.945312 4.945312 2.136719 8.40625 2.136719 Z M 8.40625 2.136719 "/>
<use xlink:href="#surface6"/>
<path style=" stroke:none;fill-rule:nonzero;fill:rgb(92.54902%,38.431373%,58.431373%);fill-opacity:1;" d="M 21.503906 13.617188 L 16.246094 14.496094 L 16.246094 19.113281 C 15.980469 18.957031 15.679688 18.875 15.371094 18.875 C 14.402344 18.875 13.617188 19.660156 13.617188 20.628906 C 13.617188 21.597656 14.402344 22.382812 15.371094 22.382812 C 16.339844 22.382812 17.125 21.597656 17.125 20.628906 L 17.125 16.101562 L 20.628906 15.515625 L 20.628906 18.234375 C 20.363281 18.082031 20.058594 18 19.753906 18 C 18.785156 18 18 18.785156 18 19.75 C 18 20.71875 18.785156 21.503906 19.753906 21.503906 C 20.71875 21.503906 21.503906 20.71875 21.503906 19.75 Z M 21.503906 13.617188 "/>
</g>
</svg>
