<?xml version="1.0" encoding="UTF-8"?>
<svg xmlns="http://www.w3.org/2000/svg" xmlns:xlink="http://www.w3.org/1999/xlink" width="36pt" height="36pt" viewBox="0 0 36 36" version="1.1">
<g id="surface1">
<path style=" stroke:none;fill-rule:evenodd;fill:rgb(100%,54.117647%,0%);fill-opacity:1;" d="M 8.40625 2.136719 L 27.59375 2.136719 C 31.054688 2.136719 33.863281 4.945312 33.863281 8.40625 L 33.863281 27.59375 C 33.863281 31.054688 31.054688 33.863281 27.59375 33.863281 L 8.40625 33.863281 C 4.945312 33.863281 2.136719 31.054688 2.136719 27.59375 L 2.136719 8.40625 C 2.136719 4.945312 4.945312 2.136719 8.40625 2.136719 Z M 8.40625 2.136719 "/>
<path style=" stroke:none;fill-rule:evenodd;fill:rgb(100%,100%,100%);fill-opacity:1;" d="M 27.5 27.5 L 21.742188 26.265625 L 18.988281 31.46875 L 15.371094 26.824219 L 9.917969 29.039062 L 10.132812 23.15625 L 4.53125 21.347656 L 8.480469 16.976562 L 5.347656 11.988281 L 11.183594 11.183594 L 11.988281 5.347656 L 16.976562 8.480469 L 21.347656 4.53125 L 23.15625 10.132812 L 29.039062 9.917969 L 26.824219 15.371094 L 31.46875 18.988281 L 26.265625 21.742188 Z M 27.5 27.5 "/>
<path style=" stroke:none;fill-rule:evenodd;fill:rgb(100%,54.117647%,0%);fill-opacity:1;" d="M 22.757812 21.667969 L 17.980469 21.671875 L 13.242188 21.667969 L 15.625 17.65625 L 18 13.679688 L 20.394531 17.6875 Z M 22.757812 21.667969 "/>
</g>
</svg>
