<?xml version="1.0" encoding="UTF-8"?>
<svg xmlns="http://www.w3.org/2000/svg" xmlns:xlink="http://www.w3.org/1999/xlink" width="36pt" height="36pt" viewBox="0 0 36 36" version="1.1">
<g id="surface1">
<path style=" stroke:none;fill-rule:evenodd;fill:rgb(55.686275%,55.686275%,55.686275%);fill-opacity:1;" d="M 8.40625 2.136719 L 27.59375 2.136719 C 31.054688 2.136719 33.863281 4.945312 33.863281 8.40625 L 33.863281 27.59375 C 33.863281 31.054688 31.054688 33.863281 27.59375 33.863281 L 8.40625 33.863281 C 4.945312 33.863281 2.136719 31.054688 2.136719 27.59375 L 2.136719 8.40625 C 2.136719 4.945312 4.945312 2.136719 8.40625 2.136719 Z M 8.40625 2.136719 "/>
<path style=" stroke:none;fill-rule:nonzero;fill:rgb(27.843137%,27.843137%,27.843137%);fill-opacity:1;" d="M 14.488281 5.933594 C 12.730469 5.933594 11.3125 7.351562 11.3125 9.109375 L 11.3125 17.53125 C 11.3125 19.292969 12.730469 20.707031 14.488281 20.707031 L 16.203125 20.707031 C 16.347656 21.785156 17.257812 22.613281 18.375 22.613281 L 23.988281 22.613281 C 25.105469 22.613281 26.015625 21.785156 26.160156 20.707031 L 27.875 20.707031 C 29.632812 20.707031 31.050781 19.292969 31.050781 17.53125 L 31.050781 9.109375 C 31.050781 7.351562 29.632812 5.933594 27.875 5.933594 Z M 14.488281 5.933594 "/>
<path style=" stroke:none;fill-rule:nonzero;fill:rgb(14.901961%,41.568627%,84.313725%);fill-opacity:1;" d="M 14.605469 6.871094 L 27.757812 6.871094 C 29.085938 6.871094 30.164062 7.902344 30.164062 9.179688 L 30.164062 17.464844 C 30.164062 18.738281 29.085938 19.773438 27.757812 19.773438 L 14.605469 19.773438 C 13.277344 19.773438 12.199219 18.738281 12.199219 17.464844 L 12.199219 9.179688 C 12.199219 7.902344 13.277344 6.871094 14.605469 6.871094 Z M 14.605469 6.871094 "/>
<path style=" stroke:none;fill-rule:nonzero;fill:rgb(27.843137%,27.843137%,27.843137%);fill-opacity:1;" d="M 8.125 13.386719 C 6.367188 13.386719 4.949219 14.804688 4.949219 16.5625 L 4.949219 24.984375 C 4.949219 26.742188 6.367188 28.160156 8.125 28.160156 L 9.839844 28.160156 C 9.984375 29.238281 10.894531 30.066406 12.011719 30.066406 L 17.625 30.066406 C 18.742188 30.066406 19.652344 29.238281 19.796875 28.160156 L 21.511719 28.160156 C 23.269531 28.160156 24.6875 26.742188 24.6875 24.984375 L 24.6875 16.5625 C 24.6875 14.804688 23.269531 13.386719 21.511719 13.386719 Z M 8.125 13.386719 "/>
<path style=" stroke:none;fill-rule:nonzero;fill:rgb(100%,74.509804%,27.843137%);fill-opacity:1;" d="M 8.242188 14.320312 L 21.394531 14.320312 C 22.722656 14.320312 23.796875 15.355469 23.796875 16.628906 L 23.796875 24.917969 C 23.796875 26.191406 22.722656 27.226562 21.394531 27.226562 L 8.242188 27.226562 C 6.914062 27.226562 5.835938 26.191406 5.835938 24.917969 L 5.835938 16.628906 C 5.835938 15.355469 6.914062 14.320312 8.242188 14.320312 Z M 8.242188 14.320312 "/>
</g>
</svg>
