<?xml version="1.0" encoding="UTF-8"?>
<svg xmlns="http://www.w3.org/2000/svg" xmlns:xlink="http://www.w3.org/1999/xlink" width="36pt" height="36pt" viewBox="0 0 36 36" version="1.1">
<g id="surface1">
<path style=" stroke:none;fill-rule:evenodd;fill:rgb(30.980392%,30.980392%,30.980392%);fill-opacity:1;" d="M 24.75 24.75 L 24.75 33.1875 C 24.75 33.453125 24.578125 33.640625 24.472656 33.863281 L 27.59375 33.863281 C 31.066406 33.863281 33.863281 31.066406 33.863281 27.59375 L 33.863281 24.472656 C 33.640625 24.578125 33.453125 24.75 33.1875 24.75 Z M 24.75 24.75 "/>
<path style=" stroke:none;fill-rule:evenodd;fill:rgb(13.333333%,59.215686%,99.215686%);fill-opacity:1;" d="M 11.25 11.25 L 2.8125 11.25 C 2.546875 11.25 2.359375 11.421875 2.136719 11.527344 L 2.136719 27.59375 C 2.136719 31.066406 4.933594 33.863281 8.40625 33.863281 L 24.472656 33.863281 C 24.578125 33.640625 24.75 33.453125 24.75 33.1875 L 24.75 24.75 L 12.9375 24.75 C 12.46875 24.75 12.046875 24.5625 11.742188 24.257812 C 11.4375 23.953125 11.25 23.53125 11.25 23.0625 Z M 11.25 11.25 "/>
<path style=" stroke:none;fill-rule:evenodd;fill:rgb(30.980392%,30.980392%,30.980392%);fill-opacity:1;" d="M 8.40625 2.136719 C 4.933594 2.136719 2.136719 4.933594 2.136719 8.40625 L 2.136719 11.527344 C 2.359375 11.421875 2.546875 11.25 2.8125 11.25 L 11.25 11.25 L 11.25 2.8125 C 11.25 2.546875 11.421875 2.359375 11.527344 2.136719 Z M 8.40625 2.136719 "/>
<path style=" stroke:none;fill-rule:nonzero;fill:rgb(100%,100%,100%);fill-opacity:1;" d="M 14.976562 27.914062 L 9.78125 27.914062 L 8.964844 30.375 L 5.625 30.375 L 10.394531 16.875 L 14.355469 16.875 L 19.125 30.375 L 15.785156 30.375 Z M 10.609375 25.410156 L 14.140625 25.410156 L 12.378906 20.039062 Z M 10.609375 25.410156 "/>
<path style=" stroke:none;fill-rule:evenodd;fill:rgb(95.294118%,68.627451%,24.705882%);fill-opacity:1;" d="M 11.527344 2.136719 C 11.421875 2.359375 11.25 2.546875 11.25 2.8125 L 11.25 23.0625 C 11.25 23.53125 11.4375 23.953125 11.742188 24.257812 C 12.046875 24.5625 12.46875 24.75 12.9375 24.75 L 33.1875 24.75 C 33.453125 24.75 33.640625 24.578125 33.863281 24.472656 L 33.863281 8.40625 C 33.863281 4.933594 31.066406 2.136719 27.59375 2.136719 Z M 11.527344 2.136719 "/>
<path style=" stroke:none;fill-rule:nonzero;fill:rgb(100%,100%,100%);fill-opacity:1;" d="M 23.472656 11.976562 C 24.03125 11.976562 24.449219 11.855469 24.738281 11.613281 C 25.023438 11.375 25.167969 11.019531 25.167969 10.546875 C 25.167969 10.082031 25.023438 9.730469 24.738281 9.488281 C 24.449219 9.242188 24.03125 9.121094 23.472656 9.121094 L 21.523438 9.121094 L 21.523438 11.976562 Z M 23.59375 17.882812 C 24.300781 17.882812 24.832031 17.734375 25.1875 17.4375 C 25.546875 17.144531 25.726562 16.695312 25.726562 16.101562 C 25.726562 15.515625 25.550781 15.078125 25.195312 14.789062 C 24.839844 14.492188 24.308594 14.347656 23.59375 14.347656 L 21.523438 14.347656 L 21.523438 17.882812 Z M 26.871094 13.027344 C 27.628906 13.242188 28.210938 13.644531 28.628906 14.226562 C 29.042969 14.8125 29.25 15.53125 29.25 16.378906 C 29.25 17.683594 28.804688 18.652344 27.914062 19.292969 C 27.023438 19.929688 25.667969 20.25 23.847656 20.25 L 18 20.25 L 18 6.75 L 23.292969 6.75 C 25.1875 6.75 26.5625 7.035156 27.410156 7.601562 C 28.265625 8.167969 28.691406 9.074219 28.691406 10.320312 C 28.691406 10.980469 28.535156 11.539062 28.226562 12.003906 C 27.914062 12.460938 27.460938 12.804688 26.871094 13.027344 Z M 26.871094 13.027344 "/>
</g>
</svg>
