<?xml version="1.0" encoding="UTF-8"?>
<svg xmlns="http://www.w3.org/2000/svg" xmlns:xlink="http://www.w3.org/1999/xlink" width="36pt" height="36pt" viewBox="0 0 36 36" version="1.1">
<g id="surface1">
<path style=" stroke:none;fill-rule:evenodd;fill:rgb(55.686275%,55.686275%,55.686275%);fill-opacity:1;" d="M 8.40625 2.136719 L 27.59375 2.136719 C 31.054688 2.136719 33.863281 4.945312 33.863281 8.40625 L 33.863281 27.59375 C 33.863281 31.054688 31.054688 33.863281 27.59375 33.863281 L 8.40625 33.863281 C 4.945312 33.863281 2.136719 31.054688 2.136719 27.59375 L 2.136719 8.40625 C 2.136719 4.945312 4.945312 2.136719 8.40625 2.136719 Z M 8.40625 2.136719 "/>
<path style=" stroke:none;fill-rule:nonzero;fill:rgb(80%,80%,80%);fill-opacity:1;" d="M 12.351562 29.003906 C 12.074219 28.933594 11.890625 28.703125 11.890625 28.417969 C 11.890625 28.226562 11.96875 28.085938 12.207031 27.835938 C 12.671875 27.359375 13.292969 26.617188 13.820312 25.910156 C 14.132812 25.488281 14.855469 24.425781 14.839844 24.410156 C 14.835938 24.40625 14.753906 24.421875 14.664062 24.449219 C 14.152344 24.605469 13.613281 24.667969 13.007812 24.648438 C 11.910156 24.613281 10.960938 24.308594 10.042969 23.699219 C 9.691406 23.464844 9.550781 23.351562 9.199219 23.007812 C 8.460938 22.277344 7.941406 21.363281 7.6875 20.339844 C 7.550781 19.792969 7.5 19.085938 7.554688 18.507812 C 7.78125 16.042969 9.546875 14.050781 11.992188 13.503906 C 12.210938 13.453125 12.246094 13.4375 12.242188 13.398438 C 12.15625 12.453125 12.1875 11.953125 12.375 11.222656 C 12.484375 10.804688 12.566406 10.578125 12.738281 10.214844 C 13.28125 9.0625 14.195312 8.136719 15.351562 7.566406 C 16.90625 6.796875 18.726562 6.785156 20.289062 7.539062 C 21.441406 8.09375 22.355469 8.996094 22.910156 10.132812 C 23.371094 11.070312 23.550781 12.023438 23.480469 13.097656 L 23.46875 13.289062 L 23.753906 13.335938 C 24.898438 13.53125 25.910156 14.042969 26.75 14.859375 C 27.410156 15.5 27.894531 16.269531 28.175781 17.121094 C 28.648438 18.554688 28.546875 20.070312 27.882812 21.40625 C 27.269531 22.652344 26.265625 23.59375 24.992188 24.128906 C 24.335938 24.40625 23.734375 24.527344 22.96875 24.546875 C 22.265625 24.5625 21.789062 24.503906 21.195312 24.320312 C 21.058594 24.277344 20.9375 24.246094 20.929688 24.253906 C 20.910156 24.269531 21.417969 25.074219 21.738281 25.535156 C 22.289062 26.332031 22.9375 27.140625 23.519531 27.761719 C 23.6875 27.9375 23.84375 28.125 23.863281 28.171875 C 23.960938 28.398438 23.890625 28.707031 23.707031 28.859375 C 23.511719 29.027344 23.996094 29.011719 17.933594 29.019531 C 14.90625 29.019531 12.394531 29.011719 12.351562 29.003906 Z M 12.351562 29.003906 "/>
<path style=" stroke:none;fill-rule:nonzero;fill:rgb(20%,20%,20%);fill-opacity:1;" d="M 12.351562 29.003906 C 12.074219 28.933594 11.890625 28.703125 11.890625 28.417969 C 11.890625 28.226562 11.96875 28.085938 12.207031 27.835938 C 12.671875 27.359375 13.292969 26.617188 13.820312 25.910156 C 14.132812 25.488281 14.855469 24.425781 14.839844 24.410156 C 14.835938 24.40625 14.753906 24.421875 14.664062 24.449219 C 14.152344 24.605469 13.613281 24.667969 13.007812 24.648438 C 11.910156 24.613281 10.960938 24.308594 10.042969 23.699219 C 9.691406 23.464844 9.550781 23.351562 9.199219 23.007812 C 8.460938 22.277344 7.941406 21.363281 7.6875 20.339844 C 7.550781 19.792969 7.5 19.085938 7.554688 18.507812 C 7.78125 16.042969 9.546875 14.050781 11.992188 13.503906 C 12.210938 13.453125 12.246094 13.4375 12.242188 13.398438 C 12.15625 12.453125 12.1875 11.953125 12.375 11.222656 C 12.484375 10.804688 12.566406 10.578125 12.738281 10.214844 C 13.28125 9.0625 14.195312 8.136719 15.351562 7.566406 C 16.90625 6.796875 18.726562 6.785156 20.289062 7.539062 C 21.441406 8.09375 22.355469 8.996094 22.910156 10.132812 C 23.371094 11.070312 23.550781 12.023438 23.480469 13.097656 L 23.46875 13.289062 L 23.753906 13.335938 C 24.898438 13.53125 25.910156 14.042969 26.75 14.859375 C 27.410156 15.5 27.894531 16.269531 28.175781 17.121094 C 28.648438 18.554688 28.546875 20.070312 27.882812 21.40625 C 27.269531 22.652344 26.265625 23.59375 24.992188 24.128906 C 24.335938 24.40625 23.734375 24.527344 22.96875 24.546875 C 22.265625 24.5625 21.789062 24.503906 21.195312 24.320312 C 21.058594 24.277344 20.9375 24.246094 20.929688 24.253906 C 20.910156 24.269531 21.417969 25.074219 21.738281 25.535156 C 22.289062 26.332031 22.9375 27.140625 23.519531 27.761719 C 23.6875 27.9375 23.84375 28.125 23.863281 28.171875 C 23.960938 28.398438 23.890625 28.707031 23.707031 28.859375 C 23.511719 29.027344 23.996094 29.011719 17.933594 29.019531 C 14.90625 29.019531 12.394531 29.011719 12.351562 29.003906 Z M 21.910156 27.78125 C 21.898438 27.761719 21.8125 27.652344 21.71875 27.539062 C 21.148438 26.839844 20.324219 25.652344 19.878906 24.882812 C 19.390625 24.046875 18.832031 22.933594 18.777344 22.691406 C 18.695312 22.316406 18.984375 21.96875 19.378906 21.96875 C 19.558594 21.96875 19.691406 22.027344 19.863281 22.1875 C 20.027344 22.339844 20.433594 22.636719 20.652344 22.765625 C 21.042969 22.992188 21.554688 23.183594 22.019531 23.277344 C 22.382812 23.351562 23.320312 23.34375 23.683594 23.265625 C 24.300781 23.132812 24.898438 22.875 25.367188 22.542969 C 25.726562 22.292969 26.246094 21.761719 26.476562 21.414062 C 27.210938 20.3125 27.429688 19.058594 27.113281 17.796875 C 26.71875 16.238281 25.464844 15 23.882812 14.601562 C 23.574219 14.527344 23.324219 14.492188 22.945312 14.480469 C 22.5625 14.46875 22.460938 14.441406 22.320312 14.308594 C 22.132812 14.128906 22.101562 13.949219 22.1875 13.535156 C 22.492188 12.101562 22.0625 10.617188 21.039062 9.5625 C 20.441406 8.941406 19.789062 8.558594 18.976562 8.34375 C 18.578125 8.238281 18.285156 8.203125 17.84375 8.203125 C 17.390625 8.203125 17.078125 8.242188 16.664062 8.355469 C 14.859375 8.851562 13.558594 10.445312 13.421875 12.328125 C 13.390625 12.792969 13.433594 13.242188 13.558594 13.734375 C 13.632812 14.03125 13.597656 14.21875 13.425781 14.402344 C 13.308594 14.53125 13.1875 14.574219 12.875 14.601562 C 11.707031 14.703125 10.753906 15.15625 9.953125 15.992188 C 9.203125 16.773438 8.792969 17.75 8.753906 18.839844 C 8.722656 19.632812 8.863281 20.285156 9.222656 21 C 9.816406 22.183594 10.902344 23.035156 12.207031 23.335938 C 12.738281 23.460938 13.496094 23.472656 13.988281 23.367188 C 14.6875 23.21875 15.320312 22.914062 15.921875 22.429688 C 16.167969 22.238281 16.25 22.199219 16.4375 22.199219 C 16.898438 22.199219 17.167969 22.636719 16.984375 23.078125 C 16.949219 23.160156 16.800781 23.449219 16.652344 23.726562 C 15.964844 24.996094 15.195312 26.152344 14.269531 27.3125 C 14.0625 27.574219 13.890625 27.796875 13.890625 27.800781 C 13.890625 27.808594 15.699219 27.8125 17.914062 27.8125 C 21.128906 27.8125 21.929688 27.804688 21.910156 27.78125 Z M 21.910156 27.78125 "/>
</g>
</svg>
