<?xml version="1.0" encoding="UTF-8"?>
<svg xmlns="http://www.w3.org/2000/svg" xmlns:xlink="http://www.w3.org/1999/xlink" width="36pt" height="36pt" viewBox="0 0 36 36" version="1.1">
<g id="surface1">
<path style=" stroke:none;fill-rule:evenodd;fill:rgb(92.54902%,38.431373%,58.431373%);fill-opacity:1;" d="M 8.40625 2.136719 L 27.59375 2.136719 C 31.054688 2.136719 33.863281 4.945312 33.863281 8.40625 L 33.863281 27.59375 C 33.863281 31.054688 31.054688 33.863281 27.59375 33.863281 L 8.40625 33.863281 C 4.945312 33.863281 2.136719 31.054688 2.136719 27.59375 L 2.136719 8.40625 C 2.136719 4.945312 4.945312 2.136719 8.40625 2.136719 Z M 8.40625 2.136719 "/>
<path style=" stroke:none;fill-rule:nonzero;fill:rgb(96.078431%,96.078431%,96.078431%);fill-opacity:1;" d="M 23.625 6.75 L 23.625 23.625 L 27 23.625 L 27 6.75 Z M 23.625 25.875 L 23.625 29.25 L 27 29.25 L 27 25.875 Z M 23.625 25.875 "/>
<path style=" stroke:none;fill-rule:nonzero;fill:rgb(96.078431%,96.078431%,96.078431%);fill-opacity:1;" d="M 18.5625 6.75 C 13.28125 6.75 9 10.527344 9 15.1875 C 9 19.847656 13.28125 23.625 18.5625 23.625 C 19.515625 23.625 20.464844 23.496094 21.375 23.25 L 21.375 20.699219 C 20.503906 21.140625 19.539062 21.375 18.5625 21.375 C 15.144531 21.375 12.375 18.605469 12.375 15.1875 C 12.375 11.769531 15.144531 9 18.5625 9 C 19.539062 9.003906 20.503906 9.238281 21.375 9.683594 L 21.375 7.132812 C 20.464844 6.882812 19.515625 6.753906 18.5625 6.75 Z M 18.5625 6.75 "/>
</g>
</svg>
