<?xml version="1.0" encoding="UTF-8"?>
<svg xmlns="http://www.w3.org/2000/svg" xmlns:xlink="http://www.w3.org/1999/xlink" width="36pt" height="36pt" viewBox="0 0 36 36" version="1.1">
<g id="surface1">
<path style=" stroke:none;fill-rule:evenodd;fill:rgb(18.431373%,40.392157%,72.941176%);fill-opacity:1;" d="M 8.40625 2.136719 L 27.59375 2.136719 C 31.054688 2.136719 33.863281 4.945312 33.863281 8.40625 L 33.863281 27.59375 C 33.863281 31.054688 31.054688 33.863281 27.59375 33.863281 L 8.40625 33.863281 C 4.945312 33.863281 2.136719 31.054688 2.136719 27.59375 L 2.136719 8.40625 C 2.136719 4.945312 4.945312 2.136719 8.40625 2.136719 Z M 8.40625 2.136719 "/>
<path style=" stroke:none;fill-rule:nonzero;fill:rgb(49.803922%,75.686275%,87.058824%);fill-opacity:1;" d="M 10.6875 11.8125 C 7.269531 11.8125 4.5 14.582031 4.5 18 C 4.5 21.417969 7.269531 24.1875 10.6875 24.1875 C 11.664062 24.183594 12.628906 23.953125 13.5 23.503906 L 13.5 29.8125 L 16.875 29.8125 L 16.875 11.8125 L 13.5 11.8125 L 13.5 12.488281 C 12.628906 12.046875 11.664062 11.8125 10.6875 11.8125 Z M 10.6875 15.1875 C 12.242188 15.1875 13.5 16.445312 13.5 18 C 13.5 19.554688 12.242188 20.8125 10.6875 20.8125 C 9.132812 20.8125 7.875 19.554688 7.875 18 C 7.875 16.445312 9.132812 15.1875 10.6875 15.1875 Z M 10.6875 15.1875 "/>
<path style=" stroke:none;fill-rule:nonzero;fill:rgb(100%,100%,100%);fill-opacity:1;" d="M 25.3125 24.1875 C 28.730469 24.1875 31.5 21.417969 31.5 18 C 31.5 14.582031 28.730469 11.8125 25.3125 11.8125 C 24.335938 11.816406 23.371094 12.046875 22.5 12.496094 L 22.5 6.1875 L 19.125 6.1875 L 19.125 24.1875 L 22.5 24.1875 L 22.5 23.511719 C 23.371094 23.957031 24.335938 24.1875 25.3125 24.1875 Z M 25.3125 20.8125 C 23.757812 20.8125 22.5 19.554688 22.5 18 C 22.5 16.445312 23.757812 15.1875 25.3125 15.1875 C 26.867188 15.1875 28.125 16.445312 28.125 18 C 28.125 19.554688 26.867188 20.8125 25.3125 20.8125 Z M 25.3125 20.8125 "/>
</g>
</svg>
