<?xml version="1.0" encoding="UTF-8"?>
<svg xmlns="http://www.w3.org/2000/svg" xmlns:xlink="http://www.w3.org/1999/xlink" width="36pt" height="36pt" viewBox="0 0 36 36" version="1.1">
<g id="surface1">
<path style=" stroke:none;fill-rule:evenodd;fill:rgb(80%,80%,80%);fill-opacity:1;" d="M 8.40625 2.136719 L 27.59375 2.136719 C 31.054688 2.136719 33.863281 4.945312 33.863281 8.40625 L 33.863281 27.59375 C 33.863281 31.054688 31.054688 33.863281 27.59375 33.863281 L 8.40625 33.863281 C 4.945312 33.863281 2.136719 31.054688 2.136719 27.59375 L 2.136719 8.40625 C 2.136719 4.945312 4.945312 2.136719 8.40625 2.136719 Z M 8.40625 2.136719 "/>
<path style=" stroke:none;fill-rule:nonzero;fill:rgb(27.843137%,27.843137%,27.843137%);fill-opacity:1;" d="M 18 6.1875 C 16.414062 6.1875 14.847656 6.808594 13.640625 8.015625 C 12.574219 9.082031 11.972656 10.417969 11.847656 11.8125 L 6.75 11.8125 L 6.75 26.4375 L 16.875 26.4375 L 16.875 28.125 L 18 28.125 L 18 23.625 L 16.875 23.625 L 16.875 25.3125 L 7.875 25.3125 L 7.875 12.9375 L 11.847656 12.9375 C 11.972656 14.332031 12.574219 15.667969 13.640625 16.734375 C 16.058594 19.152344 19.941406 19.152344 22.359375 16.734375 C 23.425781 15.667969 24.027344 14.332031 24.152344 12.9375 L 28.125 12.9375 L 28.125 25.3125 L 20.25 25.3125 L 20.25 21.9375 L 19.125 21.9375 L 19.125 29.8125 L 20.25 29.8125 L 20.25 26.4375 L 29.25 26.4375 L 29.25 11.8125 L 24.152344 11.8125 C 24.027344 10.417969 23.425781 9.082031 22.359375 8.015625 C 21.152344 6.808594 19.585938 6.1875 18 6.1875 Z M 18 7.347656 C 19.105469 7.347656 20.207031 7.703125 21.128906 8.4375 L 18 11.566406 L 14.871094 8.4375 C 15.792969 7.703125 16.894531 7.347656 18 7.347656 Z M 14.0625 9.246094 L 17.191406 12.375 L 14.0625 15.503906 C 12.59375 13.664062 12.59375 11.085938 14.0625 9.246094 Z M 21.9375 9.246094 C 23.40625 11.085938 23.40625 13.664062 21.9375 15.503906 L 18.808594 12.375 Z M 18 13.183594 L 21.128906 16.3125 C 19.289062 17.78125 16.710938 17.78125 14.871094 16.3125 Z M 18 13.183594 "/>
</g>
</svg>
