<?xml version="1.0" encoding="UTF-8"?>
<svg xmlns="http://www.w3.org/2000/svg" xmlns:xlink="http://www.w3.org/1999/xlink" width="36pt" height="36pt" viewBox="0 0 36 36" version="1.1">
<g id="surface1">
<path style=" stroke:none;fill-rule:evenodd;fill:rgb(90.588235%,31.764706%,46.666667%);fill-opacity:1;" d="M 8.40625 2.136719 L 27.59375 2.136719 C 31.054688 2.136719 33.863281 4.945312 33.863281 8.40625 L 33.863281 27.59375 C 33.863281 31.054688 31.054688 33.863281 27.59375 33.863281 L 8.40625 33.863281 C 4.945312 33.863281 2.136719 31.054688 2.136719 27.59375 L 2.136719 8.40625 C 2.136719 4.945312 4.945312 2.136719 8.40625 2.136719 Z M 8.40625 2.136719 "/>
<path style=" stroke:none;fill-rule:nonzero;fill:rgb(30.980392%,30.980392%,30.980392%);fill-opacity:1;" d="M 14.691406 7.269531 C 14.445312 7.269531 14.242188 7.484375 14.242188 7.746094 C 14.242188 7.960938 14.378906 8.144531 14.5625 8.203125 C 14.839844 9.210938 15.496094 10.160156 16.398438 10.847656 C 16.21875 11.226562 16.121094 11.664062 16.121094 12.109375 C 16.121094 12.796875 16.351562 13.449219 16.75 13.910156 L 16.75 26.019531 C 16.75 27.070312 17.246094 27.835938 18 27.835938 C 18.753906 27.835938 19.25 27.039062 19.253906 26.023438 L 19.253906 13.90625 C 19.648438 13.449219 19.878906 12.796875 19.878906 12.109375 C 19.878906 11.664062 19.78125 11.226562 19.601562 10.847656 C 20.503906 10.160156 21.160156 9.210938 21.4375 8.203125 C 21.621094 8.144531 21.757812 7.960938 21.757812 7.746094 C 21.757812 7.484375 21.554688 7.269531 21.308594 7.269531 C 21.058594 7.269531 20.855469 7.484375 20.855469 7.746094 C 20.855469 7.890625 20.917969 8.019531 21.015625 8.109375 C 20.761719 8.996094 20.175781 9.835938 19.371094 10.457031 C 19.015625 9.96875 18.519531 9.6875 18 9.6875 C 17.480469 9.691406 16.984375 9.96875 16.628906 10.457031 C 15.824219 9.835938 15.238281 8.996094 14.984375 8.109375 C 15.082031 8.019531 15.144531 7.890625 15.144531 7.746094 C 15.144531 7.484375 14.941406 7.269531 14.691406 7.269531 Z M 14.691406 7.269531 "/>
<path style=" stroke:none;fill-rule:nonzero;fill:rgb(100%,100%,100%);fill-opacity:1;" d="M 11.113281 9.953125 C 8.003906 9.953125 5.480469 12.933594 5.480469 16.613281 C 5.484375 19.472656 7.023438 22.007812 9.3125 22.921875 C 9.261719 23.238281 9.234375 23.5625 9.234375 23.882812 C 9.234375 26.5625 10.917969 28.730469 12.992188 28.730469 C 15.066406 28.730469 16.75 26.5625 16.75 23.882812 L 16.75 16.613281 C 16.75 12.933594 14.226562 9.953125 11.113281 9.953125 Z M 24.886719 9.953125 C 21.773438 9.953125 19.25 12.933594 19.25 16.613281 L 19.25 23.882812 C 19.25 26.5625 20.933594 28.730469 23.007812 28.730469 C 25.082031 28.730469 26.765625 26.5625 26.765625 23.882812 C 26.765625 23.5625 26.738281 23.238281 26.6875 22.921875 C 28.976562 22.007812 30.515625 19.472656 30.519531 16.613281 C 30.519531 12.933594 27.996094 9.953125 24.886719 9.953125 Z M 24.886719 9.953125 "/>
<path style=" stroke:none;fill-rule:nonzero;fill:rgb(100%,52.156863%,66.666667%);fill-opacity:1;" d="M 14.167969 16.367188 C 13.488281 13.929688 11.648438 12.289062 10.058594 12.695312 C 8.472656 13.101562 7.734375 15.410156 8.417969 17.84375 C 9.097656 20.28125 10.9375 21.921875 12.527344 21.515625 C 14.113281 21.109375 14.851562 18.804688 14.167969 16.367188 Z M 14.167969 16.367188 "/>
<path style=" stroke:none;fill-rule:nonzero;fill:rgb(100%,52.156863%,66.666667%);fill-opacity:1;" d="M 21.832031 16.367188 C 22.511719 13.929688 24.351562 12.289062 25.941406 12.695312 C 27.527344 13.101562 28.265625 15.410156 27.582031 17.84375 C 26.902344 20.28125 25.0625 21.921875 23.472656 21.515625 C 21.886719 21.109375 21.148438 18.804688 21.832031 16.367188 Z M 21.832031 16.367188 "/>
<path style=" stroke:none;fill-rule:nonzero;fill:rgb(100%,52.156863%,66.666667%);fill-opacity:1;" d="M 14.320312 24.265625 C 14.652344 25.476562 14.167969 26.65625 13.234375 26.898438 C 12.304688 27.140625 11.28125 26.359375 10.949219 25.148438 C 10.617188 23.9375 11.101562 22.757812 12.03125 22.515625 C 12.960938 22.273438 13.984375 23.054688 14.320312 24.265625 Z M 14.320312 24.265625 "/>
<path style=" stroke:none;fill-rule:nonzero;fill:rgb(100%,52.156863%,66.666667%);fill-opacity:1;" d="M 21.679688 24.265625 C 21.347656 25.476562 21.832031 26.65625 22.761719 26.898438 C 23.695312 27.140625 24.71875 26.359375 25.050781 25.148438 C 25.382812 23.9375 24.898438 22.757812 23.96875 22.515625 C 23.035156 22.273438 22.011719 23.054688 21.679688 24.265625 Z M 21.679688 24.265625 "/>
<path style=" stroke:none;fill-rule:nonzero;fill:rgb(100%,52.156863%,66.666667%);fill-opacity:1;" d="M 10.65625 12.636719 C 10.453125 12.625 10.25 12.644531 10.058594 12.695312 C 8.472656 13.101562 7.734375 15.410156 8.417969 17.84375 C 9.097656 20.28125 10.9375 21.921875 12.527344 21.515625 C 14.113281 21.109375 14.851562 18.804688 14.167969 16.367188 C 13.582031 14.269531 12.113281 12.707031 10.65625 12.636719 Z M 25.34375 12.636719 C 23.886719 12.707031 22.417969 14.269531 21.828125 16.367188 C 21.148438 18.804688 21.882812 21.109375 23.472656 21.515625 C 25.0625 21.921875 26.902344 20.28125 27.582031 17.84375 C 28.265625 15.410156 27.527344 13.101562 25.941406 12.695312 C 25.746094 12.644531 25.546875 12.625 25.34375 12.636719 Z M 12.378906 22.472656 C 12.261719 22.472656 12.144531 22.484375 12.035156 22.515625 C 11.101562 22.757812 10.617188 23.9375 10.949219 25.148438 C 11.28125 26.355469 12.304688 27.140625 13.234375 26.898438 C 14.164062 26.65625 14.648438 25.476562 14.316406 24.265625 C 14.03125 23.222656 13.222656 22.472656 12.378906 22.472656 Z M 23.621094 22.472656 C 22.777344 22.472656 21.96875 23.222656 21.679688 24.265625 C 21.347656 25.476562 21.835938 26.65625 22.765625 26.898438 C 23.695312 27.140625 24.71875 26.355469 25.050781 25.148438 C 25.382812 23.9375 24.894531 22.757812 23.964844 22.515625 C 23.855469 22.484375 23.738281 22.472656 23.621094 22.472656 Z M 23.621094 22.472656 "/>
</g>
</svg>
