<?xml version="1.0" encoding="UTF-8"?>
<svg xmlns="http://www.w3.org/2000/svg" xmlns:xlink="http://www.w3.org/1999/xlink" width="36pt" height="36pt" viewBox="0 0 36 36" version="1.1">
<g id="surface1">
<path style=" stroke:none;fill-rule:evenodd;fill:rgb(76.078431%,20.784314%,16.470588%);fill-opacity:1;" d="M 8.40625 2.136719 L 27.59375 2.136719 C 31.054688 2.136719 33.863281 4.945312 33.863281 8.40625 L 33.863281 27.59375 C 33.863281 31.054688 31.054688 33.863281 27.59375 33.863281 L 8.40625 33.863281 C 4.945312 33.863281 2.136719 31.054688 2.136719 27.59375 L 2.136719 8.40625 C 2.136719 4.945312 4.945312 2.136719 8.40625 2.136719 Z M 8.40625 2.136719 "/>
<path style=" stroke:none;fill-rule:nonzero;fill:rgb(99.607843%,96.862745%,75.294118%);fill-opacity:1;" d="M 6.261719 6.261719 L 6.261719 14.085938 L 14.085938 14.085938 L 14.085938 6.261719 Z M 16.042969 6.261719 L 16.042969 10.175781 L 18 10.175781 L 18 8.21875 L 19.957031 8.21875 L 19.957031 6.261719 Z M 18 10.175781 L 18 14.085938 L 19.957031 14.085938 L 19.957031 10.175781 Z M 18 14.085938 L 16.042969 14.085938 L 16.042969 16.042969 L 18 16.042969 Z M 18 16.042969 L 18 18 L 19.957031 18 L 19.957031 16.042969 Z M 19.957031 18 L 19.957031 19.957031 L 23.867188 19.957031 L 23.867188 16.042969 L 21.914062 16.042969 L 21.914062 18 Z M 23.867188 19.957031 L 23.867188 21.914062 L 25.824219 21.914062 L 25.824219 23.867188 L 27.78125 23.867188 L 27.78125 19.957031 Z M 27.78125 19.957031 L 29.738281 19.957031 L 29.738281 16.042969 L 25.824219 16.042969 L 25.824219 18 L 27.78125 18 Z M 23.867188 21.914062 L 21.914062 21.914062 L 21.914062 23.867188 L 23.867188 23.867188 Z M 21.914062 23.867188 L 19.957031 23.867188 L 19.957031 25.824219 L 21.914062 25.824219 Z M 21.914062 25.824219 L 21.914062 27.78125 L 23.867188 27.78125 L 23.867188 25.824219 Z M 23.867188 27.78125 L 23.867188 29.738281 L 25.824219 29.738281 L 25.824219 27.78125 Z M 25.824219 27.78125 L 29.738281 27.78125 L 29.738281 25.824219 L 25.824219 25.824219 Z M 19.957031 25.824219 L 16.042969 25.824219 L 16.042969 27.78125 L 18 27.78125 L 18 29.738281 L 19.957031 29.738281 Z M 19.957031 23.867188 L 19.957031 19.957031 L 16.042969 19.957031 L 16.042969 21.914062 L 18 21.914062 L 18 23.867188 Z M 16.042969 19.957031 L 16.042969 16.042969 L 14.085938 16.042969 L 14.085938 18 L 12.132812 18 L 12.132812 19.957031 Z M 12.132812 18 L 12.132812 16.042969 L 6.261719 16.042969 L 6.261719 19.957031 L 10.175781 19.957031 L 10.175781 18 Z M 21.914062 6.261719 L 21.914062 14.085938 L 29.738281 14.085938 L 29.738281 6.261719 Z M 8.21875 8.21875 L 12.132812 8.21875 L 12.132812 12.132812 L 8.21875 12.132812 Z M 23.867188 8.21875 L 27.78125 8.21875 L 27.78125 12.132812 L 23.867188 12.132812 Z M 9.195312 9.195312 L 9.195312 11.152344 L 11.152344 11.152344 L 11.152344 9.195312 Z M 24.847656 9.195312 L 24.847656 11.152344 L 26.804688 11.152344 L 26.804688 9.195312 Z M 6.261719 21.914062 L 6.261719 29.738281 L 14.085938 29.738281 L 14.085938 21.914062 Z M 8.21875 23.867188 L 12.132812 23.867188 L 12.132812 27.78125 L 8.21875 27.78125 Z M 9.195312 24.847656 L 9.195312 26.804688 L 11.152344 26.804688 L 11.152344 24.847656 Z M 9.195312 24.847656 "/>
</g>
</svg>
