<?xml version="1.0" encoding="UTF-8"?>
<svg xmlns="http://www.w3.org/2000/svg" xmlns:xlink="http://www.w3.org/1999/xlink" width="36pt" height="36pt" viewBox="0 0 36 36" version="1.1">
<g id="surface1">
<path style=" stroke:none;fill-rule:evenodd;fill:rgb(15.686275%,15.686275%,48.235294%);fill-opacity:1;" d="M 8.40625 2.136719 L 27.59375 2.136719 C 31.054688 2.136719 33.863281 4.945312 33.863281 8.40625 L 33.863281 27.59375 C 33.863281 31.054688 31.054688 33.863281 27.59375 33.863281 L 8.40625 33.863281 C 4.945312 33.863281 2.136719 31.054688 2.136719 27.59375 L 2.136719 8.40625 C 2.136719 4.945312 4.945312 2.136719 8.40625 2.136719 Z M 8.40625 2.136719 "/>
<path style=" stroke:none;fill-rule:nonzero;fill:rgb(59.607843%,40.784314%,100%);fill-opacity:1;" d="M 18.6875 7.3125 C 18.285156 7.3125 17.867188 7.328125 17.441406 7.367188 C 13.660156 7.683594 10.953125 9.59375 8.761719 11.855469 C 7.21875 13.453125 6.070312 15.695312 5.746094 17.941406 C 5.277344 21.199219 6.160156 24.109375 8.382812 26.203125 C 10.265625 27.980469 13.25 28.609375 16.378906 28.679688 C 18.574219 28.730469 20.636719 28.546875 22.480469 28.121094 C 23.402344 27.910156 24.308594 27.636719 24.886719 27.289062 C 25.46875 26.941406 25.863281 26.492188 25.875 25.941406 L 25.875 25.9375 C 25.875 25.042969 25.359375 24.308594 24.605469 23.707031 C 22.429688 22.171875 20.648438 21.285156 18.230469 20.066406 C 17.566406 19.75 16.964844 19.335938 16.875 18.679688 C 16.761719 17.835938 18.046875 17.582031 18.671875 17.511719 C 19.546875 17.433594 20.28125 17.46875 21.171875 17.554688 C 22.058594 17.644531 23.050781 18.441406 23.355469 18.558594 L 23.378906 18.570312 L 23.40625 18.574219 C 23.464844 18.582031 23.554688 18.546875 23.59375 18.503906 C 23.636719 18.460938 23.640625 18.425781 23.648438 18.402344 C 23.660156 18.351562 23.65625 18.332031 23.652344 18.308594 C 23.648438 18.257812 23.640625 18.214844 23.628906 18.15625 C 23.601562 18.039062 23.558594 17.886719 23.5 17.699219 C 23.300781 16.546875 22.617188 14.886719 22.140625 13.894531 C 22.027344 13.691406 21.914062 13.515625 21.796875 13.375 C 21.679688 13.238281 21.566406 13.125 21.398438 13.078125 C 21.175781 13.019531 20.855469 13.003906 20.425781 13.007812 C 19.996094 13.015625 19.390625 13.046875 18.800781 13.105469 C 17.617188 13.222656 16.339844 13.441406 14.984375 13.765625 C 13.628906 14.089844 12.351562 14.515625 11.460938 15.066406 C 11.011719 15.339844 10.546875 15.644531 10.335938 16.003906 C 10.125 16.359375 10.070312 17.234375 10.234375 17.652344 C 10.582031 18.558594 11.570312 19.238281 12.648438 19.824219 C 14.90625 21.054688 16.898438 21.835938 19.03125 23.152344 C 19.816406 23.578125 20.34375 24.214844 20.226562 24.855469 C 20.101562 25.53125 19.289062 25.867188 18.585938 26.101562 C 17.324219 26.519531 16.054688 26.476562 14.9375 26.4375 C 12.34375 26.324219 9.917969 25.78125 8.136719 23.765625 C 7.03125 22.511719 6.882812 21.226562 6.761719 19.382812 C 6.644531 17.578125 7.347656 15.5625 8.359375 14.0625 C 10.609375 10.730469 13.539062 8.800781 17.417969 8.285156 C 22 7.699219 25.128906 9.34375 27.132812 11.113281 C 28.132812 11.996094 28.851562 13.066406 29.3125 13.753906 C 29.542969 14.097656 29.710938 14.378906 29.820312 14.574219 C 29.875 14.671875 29.917969 14.746094 29.941406 14.792969 C 29.957031 14.816406 29.964844 14.835938 29.976562 14.851562 C 29.980469 14.863281 29.972656 14.859375 30.011719 14.902344 C 30.023438 14.910156 30.082031 14.949219 30.082031 14.949219 C 30.085938 14.949219 30.34375 14.863281 30.34375 14.863281 C 30.347656 14.863281 30.375 14.761719 30.375 14.746094 C 30.375 14.726562 30.371094 14.71875 30.371094 14.710938 C 30.359375 14.652344 30.355469 14.65625 30.34375 14.632812 C 30.335938 14.609375 30.320312 14.578125 30.304688 14.546875 C 30.273438 14.476562 30.226562 14.382812 30.164062 14.269531 C 30.039062 14.039062 29.851562 13.726562 29.601562 13.355469 C 29.105469 12.621094 28.351562 11.511719 27.308594 10.582031 C 25.488281 8.957031 22.785156 7.421875 19.089844 7.320312 C 18.957031 7.316406 18.824219 7.3125 18.6875 7.3125 Z M 18.6875 7.3125 "/>
</g>
</svg>
