<?xml version="1.0" encoding="UTF-8"?>
<svg xmlns="http://www.w3.org/2000/svg" xmlns:xlink="http://www.w3.org/1999/xlink" width="36pt" height="36pt" viewBox="0 0 36 36" version="1.1">
<defs>
<clipPath id="clip1">
  <rect width="36" height="36"/>
</clipPath>
<g id="surface6" clip-path="url(#clip1)">
<path style=" stroke:none;fill-rule:nonzero;fill:rgb(100%,100%,100%);fill-opacity:1;" d="M 23.425781 15.53125 L 22.441406 15.53125 L 22.441406 13.558594 L 23.425781 13.558594 L 23.425781 10.597656 L 26.386719 10.597656 L 26.386719 13.558594 L 28.359375 13.558594 L 28.363281 15.53125 L 26.390625 15.53125 L 26.386719 20.355469 C 26.386719 20.859375 26.484375 21.453125 27.867188 21.453125 L 28.359375 21.453125 L 28.363281 24.414062 C 28.363281 24.414062 25.203125 24.417969 25.203125 24.414062 C 23.957031 24.414062 23.425781 23.230469 23.425781 22.621094 C 23.425781 21.191406 23.425781 15.53125 23.425781 15.53125 Z M 23.425781 15.53125 "/>
</g>
<clipPath id="clip2">
  <rect width="36" height="36"/>
</clipPath>
<g id="surface9" clip-path="url(#clip2)">
<path style=" stroke:none;fill-rule:nonzero;fill:rgb(100%,100%,100%);fill-opacity:1;" d="M 10.488281 7.636719 C 9.0625 7.636719 7.636719 9.019531 7.636719 10.402344 L 7.636719 21.652344 C 7.636719 23.035156 9.0625 24.414062 10.488281 24.414062 L 13.402344 24.414062 C 13.449219 24.421875 13.511719 24.390625 13.558594 24.46875 L 13.558594 26.960938 C 13.558594 27.652344 14.421875 28.359375 14.984375 28.359375 C 14.984375 28.367188 18.496094 28.359375 18.496094 28.359375 L 18.492188 25.402344 L 17.832031 25.402344 C 16.410156 25.402344 16.527344 24.953125 16.527344 24.445312 C 16.527344 24.417969 16.515625 24.445312 16.511719 24.417969 C 16.515625 24.417969 16.519531 24.414062 16.527344 24.414062 L 17.613281 24.414062 C 19.039062 24.414062 20.464844 23.035156 20.464844 21.652344 L 20.464844 10.402344 C 20.464844 9.019531 19.039062 7.636719 17.613281 7.636719 Z M 12.667969 10.597656 L 15.433594 10.597656 C 16.582031 10.597656 17.503906 11.503906 17.503906 12.632812 L 17.503906 19.417969 C 17.503906 20.546875 16.582031 21.453125 15.433594 21.453125 L 12.667969 21.453125 C 11.519531 21.453125 10.597656 20.546875 10.597656 19.417969 L 10.597656 12.632812 C 10.597656 11.503906 11.519531 10.597656 12.667969 10.597656 Z M 12.667969 10.597656 "/>
</g>
</defs>
<g id="surface1">
<path style=" stroke:none;fill-rule:evenodd;fill:rgb(49.411765%,76.078431%,25.882353%);fill-opacity:1;" d="M 8.40625 2.136719 L 27.59375 2.136719 C 31.054688 2.136719 33.863281 4.945312 33.863281 8.40625 L 33.863281 27.59375 C 33.863281 31.054688 31.054688 33.863281 27.59375 33.863281 L 8.40625 33.863281 C 4.945312 33.863281 2.136719 31.054688 2.136719 27.59375 L 2.136719 8.40625 C 2.136719 4.945312 4.945312 2.136719 8.40625 2.136719 Z M 8.40625 2.136719 "/>
<use xlink:href="#surface6"/>
<use xlink:href="#surface9"/>
</g>
</svg>
