<?xml version="1.0" encoding="UTF-8"?>
<svg xmlns="http://www.w3.org/2000/svg" xmlns:xlink="http://www.w3.org/1999/xlink" width="36pt" height="36pt" viewBox="0 0 36 36" version="1.1">
<defs>
<filter id="alpha" filterUnits="objectBoundingBox" x="0%" y="0%" width="100%" height="100%">
  <feColorMatrix type="matrix" in="SourceGraphic" values="0 0 0 0 1 0 0 0 0 1 0 0 0 0 1 0 0 0 1 0"/>
</filter>
<mask id="mask0">
  <g filter="url(#alpha)">
<rect x="0" y="0" width="36" height="36" style="fill:rgb(0%,0%,0%);fill-opacity:0.501961;stroke:none;"/>
  </g>
</mask>
<clipPath id="clip1">
  <rect width="36" height="36"/>
</clipPath>
<g id="surface6" clip-path="url(#clip1)">
<path style=" stroke:none;fill-rule:nonzero;fill:rgb(0%,0%,0%);fill-opacity:1;" d="M 5.382812 5.382812 L 5.382812 13.792969 L 13.792969 13.792969 L 13.792969 5.382812 Z M 15.898438 5.382812 L 15.898438 9.585938 L 18 9.585938 L 18 7.484375 L 20.101562 7.484375 L 20.101562 5.382812 Z M 18 9.585938 L 18 13.792969 L 20.101562 13.792969 L 20.101562 9.585938 Z M 18 13.792969 L 15.898438 13.792969 L 15.898438 15.898438 L 18 15.898438 Z M 18 15.898438 L 18 18 L 20.101562 18 L 20.101562 15.898438 Z M 20.101562 18 L 20.101562 20.101562 L 24.308594 20.101562 L 24.308594 15.898438 L 22.207031 15.898438 L 22.207031 18 Z M 24.308594 20.101562 L 24.308594 22.207031 L 26.414062 22.207031 L 26.414062 24.308594 L 28.515625 24.308594 L 28.515625 20.101562 Z M 28.515625 20.101562 L 30.617188 20.101562 L 30.617188 15.898438 L 26.414062 15.898438 L 26.414062 18 L 28.515625 18 Z M 24.308594 22.207031 L 22.207031 22.207031 L 22.207031 24.308594 L 24.308594 24.308594 Z M 22.207031 24.308594 L 20.101562 24.308594 L 20.101562 26.414062 L 22.207031 26.414062 Z M 22.207031 26.414062 L 22.207031 28.515625 L 24.308594 28.515625 L 24.308594 26.414062 Z M 24.308594 28.515625 L 24.308594 30.617188 L 26.414062 30.617188 L 26.414062 28.515625 Z M 26.414062 28.515625 L 30.617188 28.515625 L 30.617188 26.414062 L 26.414062 26.414062 Z M 20.101562 26.414062 L 15.898438 26.414062 L 15.898438 28.515625 L 18 28.515625 L 18 30.617188 L 20.101562 30.617188 Z M 20.101562 24.308594 L 20.101562 20.101562 L 15.898438 20.101562 L 15.898438 22.207031 L 18 22.207031 L 18 24.308594 Z M 15.898438 20.101562 L 15.898438 15.898438 L 13.792969 15.898438 L 13.792969 18 L 11.691406 18 L 11.691406 20.101562 Z M 11.691406 18 L 11.691406 15.898438 L 5.382812 15.898438 L 5.382812 20.101562 L 9.585938 20.101562 L 9.585938 18 Z M 22.207031 5.382812 L 22.207031 13.792969 L 30.617188 13.792969 L 30.617188 5.382812 Z M 7.484375 7.484375 L 11.691406 7.484375 L 11.691406 11.691406 L 7.484375 11.691406 Z M 24.308594 7.484375 L 28.515625 7.484375 L 28.515625 11.691406 L 24.308594 11.691406 Z M 8.535156 8.535156 L 8.535156 10.640625 L 10.640625 10.640625 L 10.640625 8.535156 Z M 25.359375 8.535156 L 25.359375 10.640625 L 27.464844 10.640625 L 27.464844 8.535156 Z M 5.382812 22.207031 L 5.382812 30.617188 L 13.792969 30.617188 L 13.792969 22.207031 Z M 7.484375 24.308594 L 11.691406 24.308594 L 11.691406 28.515625 L 7.484375 28.515625 Z M 8.535156 25.359375 L 8.535156 27.464844 L 10.640625 27.464844 L 10.640625 25.359375 Z M 8.535156 25.359375 "/>
</g>
</defs>
<g id="surface1">
<path style=" stroke:none;fill-rule:evenodd;fill:rgb(76.078431%,20.784314%,16.470588%);fill-opacity:1;" d="M 8.40625 2.136719 L 27.59375 2.136719 C 31.054688 2.136719 33.863281 4.945312 33.863281 8.40625 L 33.863281 27.59375 C 33.863281 31.054688 31.054688 33.863281 27.59375 33.863281 L 8.40625 33.863281 C 4.945312 33.863281 2.136719 31.054688 2.136719 27.59375 L 2.136719 8.40625 C 2.136719 4.945312 4.945312 2.136719 8.40625 2.136719 Z M 8.40625 2.136719 "/>
<use xlink:href="#surface6" mask="url(#mask0)"/>
</g>
</svg>
