<?xml version="1.0" encoding="UTF-8"?>
<svg xmlns="http://www.w3.org/2000/svg" xmlns:xlink="http://www.w3.org/1999/xlink" width="36pt" height="36pt" viewBox="0 0 36 36" version="1.1">
<g id="surface1">
<path style=" stroke:none;fill-rule:evenodd;fill:rgb(94.901961%,94.901961%,94.901961%);fill-opacity:1;" d="M 2.089844 27.609375 L 2.089844 8.421875 C 2.089844 4.960938 4.898438 2.152344 8.359375 2.152344 L 27.546875 2.152344 C 31.011719 2.152344 33.816406 4.960938 33.816406 8.421875 L 33.816406 27.609375 C 33.816406 31.070312 31.011719 33.878906 27.546875 33.878906 L 8.359375 33.878906 C 4.898438 33.878906 2.089844 31.070312 2.089844 27.609375 Z M 2.089844 27.609375 "/>
<path style=" stroke:none;fill-rule:evenodd;fill:rgb(99.607843%,80.392157%,21.960784%);fill-opacity:1;" d="M 16.347656 2.152344 L 15.132812 2.605469 L 11.371094 4.019531 L 12.78125 7.78125 L 16.542969 6.371094 L 20.304688 4.957031 L 24.070312 3.546875 L 27.6875 2.191406 C 27.617188 2.1875 27.5625 2.152344 27.492188 2.152344 Z M 16.347656 2.152344 "/>
<path style=" stroke:none;fill-rule:evenodd;fill:rgb(55.686275%,73.72549%,82.745098%);fill-opacity:1;" d="M 15.277344 14.097656 L 19.082031 15.386719 L 22.890625 16.675781 L 26.699219 17.960938 L 27.984375 14.15625 L 24.179688 12.867188 L 25.464844 9.058594 L 21.65625 7.769531 L 20.371094 11.578125 L 16.5625 10.292969 Z M 15.277344 14.097656 "/>
<path style=" stroke:none;fill-rule:evenodd;fill:rgb(80.784314%,30.588235%,30.980392%);fill-opacity:1;" d="M 4.441406 7.3125 L 9.378906 13.65625 L 12.546875 11.1875 L 10.082031 8.015625 L 7.609375 4.84375 Z M 4.441406 7.3125 "/>
<path style=" stroke:none;fill-rule:evenodd;fill:rgb(80.784314%,30.588235%,30.980392%);fill-opacity:1;" d="M 13.992188 33.976562 L 13.992188 30.035156 L 5.957031 30.035156 L 5.957031 33.425781 C 6.707031 33.746094 7.503906 33.976562 8.375 33.976562 Z M 13.992188 33.976562 "/>
<path style=" stroke:none;fill-rule:evenodd;fill:rgb(18.823529%,64.313725%,27.45098%);fill-opacity:1;" d="M 18.011719 33.976562 L 18.011719 26.015625 L 9.976562 26.015625 L 9.976562 30.035156 L 13.992188 30.035156 L 13.992188 33.976562 Z M 18.011719 33.976562 "/>
<path style=" stroke:none;fill-rule:evenodd;fill:rgb(100%,70.588235%,14.901961%);fill-opacity:1;" d="M 22.03125 33.976562 L 22.03125 21.996094 L 18.011719 21.996094 L 18.011719 33.976562 Z M 22.03125 33.976562 "/>
<path style=" stroke:none;fill-rule:evenodd;fill:rgb(80.784314%,13.333333%,30.980392%);fill-opacity:1;" d="M 30.070312 33.441406 L 30.070312 26.015625 L 22.03125 26.015625 L 22.03125 33.976562 L 27.5625 33.976562 C 28.457031 33.976562 29.300781 33.777344 30.070312 33.441406 Z M 30.070312 33.441406 "/>
<path style=" stroke:none;fill-rule:evenodd;fill:rgb(99.607843%,80.392157%,21.960784%);fill-opacity:1;" d="M 33.832031 26.015625 L 30.070312 26.015625 L 30.070312 33.4375 C 32.285156 32.472656 33.832031 30.28125 33.832031 27.703125 Z M 33.832031 26.015625 "/>
<path style=" stroke:none;fill-rule:evenodd;fill:rgb(3.137255%,56.470588%,83.529412%);fill-opacity:1;" d="M 33.832031 17.972656 L 30.070312 17.972656 L 30.070312 21.996094 L 22.03125 21.996094 L 22.03125 26.015625 L 33.832031 26.015625 Z M 33.832031 17.972656 "/>
<path style=" stroke:none;fill-rule:evenodd;fill:rgb(18.823529%,64.313725%,93.333333%);fill-opacity:1;" d="M 5.957031 33.425781 L 5.957031 30.035156 L 2.574219 30.035156 C 3.195312 31.582031 4.429688 32.773438 5.957031 33.425781 Z M 5.957031 33.425781 "/>
<path style=" stroke:none;fill-rule:evenodd;fill:rgb(80.784314%,30.588235%,30.980392%);fill-opacity:1;" d="M 2.574219 30.035156 L 9.976562 30.035156 L 9.976562 26.015625 L 5.957031 26.015625 L 5.957031 21.996094 L 2.105469 21.996094 L 2.105469 27.703125 C 2.105469 28.53125 2.285156 29.3125 2.574219 30.035156 Z M 2.574219 30.035156 "/>
</g>
</svg>
