<?xml version="1.0" encoding="UTF-8"?>
<svg xmlns="http://www.w3.org/2000/svg" xmlns:xlink="http://www.w3.org/1999/xlink" width="36pt" height="36pt" viewBox="0 0 36 36" version="1.1">
<g id="surface1">
<path style=" stroke:none;fill-rule:evenodd;fill:rgb(100%,100%,100%);fill-opacity:1;" d="M 2.136719 26.351562 C 3.882812 24.40625 5.648438 22.6875 7.429688 21.289062 C 9.34375 19.785156 11.28125 18.578125 13.242188 17.636719 C 15.199219 16.699219 17.183594 16.023438 19.195312 15.582031 C 21.207031 15.144531 23.242188 14.941406 25.308594 14.941406 C 26.441406 14.941406 27.875 15.449219 29.027344 15.5625 C 27.183594 14.75 23.859375 12.890625 20.019531 11.234375 C 18.101562 10.40625 16.054688 9.628906 14 9.058594 C 11.949219 8.484375 9.890625 8.121094 7.949219 8.121094 C 6.863281 8.121094 5.828125 8.15625 4.804688 8.328125 C 3.914062 8.480469 3.027344 8.804688 2.136719 9.234375 Z M 2.136719 26.351562 "/>
<path style=" stroke:none;fill-rule:evenodd;fill:rgb(49.411765%,81.960784%,95.294118%);fill-opacity:1;" d="M 15.386719 19.28125 C 14.441406 19.347656 13.53125 19.554688 12.652344 19.875 C 11.773438 20.191406 10.925781 20.621094 10.105469 21.128906 C 8.464844 22.144531 6.929688 23.476562 5.46875 24.859375 C 7.222656 24.164062 8.867188 23.730469 10.421875 23.578125 C 11.976562 23.425781 13.433594 23.558594 14.804688 23.992188 C 15.28125 24.140625 16.699219 24.777344 17.957031 25.402344 C 19.550781 26.195312 20.742188 26.730469 21.8125 27.097656 C 22.886719 27.46875 23.832031 27.675781 24.941406 27.816406 C 26.269531 27.953125 27.566406 27.855469 28.859375 27.632812 C 30.15625 27.410156 31.441406 27.070312 32.746094 26.71875 L 29.75 25.65625 C 28.355469 25.0625 26.660156 24.15625 24.242188 22.757812 C 22.605469 21.875 21.183594 20.949219 19.773438 20.273438 C 19.070312 19.9375 18.367188 19.660156 17.644531 19.484375 C 16.921875 19.304688 16.179688 19.226562 15.386719 19.28125 Z M 15.386719 19.28125 "/>
<path style=" stroke:none;fill-rule:evenodd;fill:rgb(0.784314%,52.54902%,76.078431%);fill-opacity:1;" d="M 8.40625 2.136719 C 4.933594 2.136719 2.136719 4.933594 2.136719 8.410156 L 2.136719 9.234375 C 3.027344 8.804688 3.914062 8.480469 4.804688 8.328125 C 5.828125 8.15625 6.863281 8.121094 7.949219 8.121094 C 9.890625 8.121094 11.949219 8.484375 14 9.058594 C 16.054688 9.628906 18.101562 10.40625 20.019531 11.234375 C 23.859375 12.890625 27.183594 14.75 29.027344 15.5625 C 27.875 15.449219 26.441406 14.941406 25.308594 14.941406 C 23.242188 14.941406 21.207031 15.144531 19.195312 15.582031 C 17.183594 16.023438 15.199219 16.699219 13.242188 17.636719 C 11.28125 18.578125 9.34375 19.785156 7.429688 21.289062 C 5.648438 22.6875 3.882812 24.40625 2.136719 26.351562 L 2.136719 27.59375 C 2.136719 31.066406 4.933594 33.863281 8.40625 33.863281 L 27.589844 33.863281 C 31.066406 33.863281 33.863281 31.066406 33.863281 27.59375 L 33.863281 8.410156 C 33.863281 4.933594 31.066406 2.136719 27.589844 2.136719 Z M 15.386719 19.28125 C 16.179688 19.226562 16.921875 19.304688 17.644531 19.484375 C 18.367188 19.660156 19.070312 19.9375 19.777344 20.273438 C 21.183594 20.949219 22.605469 21.875 24.242188 22.757812 C 26.660156 24.15625 28.355469 25.0625 29.75 25.65625 L 32.746094 26.71875 C 31.441406 27.070312 30.15625 27.410156 28.859375 27.632812 C 27.566406 27.855469 26.269531 27.953125 24.945312 27.816406 C 23.832031 27.675781 22.886719 27.46875 21.816406 27.097656 C 20.742188 26.730469 19.550781 26.195312 17.957031 25.402344 C 16.699219 24.777344 15.28125 24.140625 14.804688 23.992188 C 13.433594 23.558594 11.976562 23.425781 10.421875 23.578125 C 8.867188 23.730469 7.222656 24.164062 5.46875 24.859375 C 6.929688 23.476562 8.464844 22.144531 10.105469 21.128906 C 10.925781 20.621094 11.773438 20.191406 12.652344 19.875 C 13.53125 19.554688 14.441406 19.347656 15.386719 19.28125 Z M 15.386719 19.28125 "/>
</g>
</svg>
