<?xml version="1.0" encoding="UTF-8"?>
<svg xmlns="http://www.w3.org/2000/svg" xmlns:xlink="http://www.w3.org/1999/xlink" width="36pt" height="36pt" viewBox="0 0 36 36" version="1.1">
<defs>
<clipPath id="clip1">
  <rect width="36" height="36"/>
</clipPath>
<g id="surface6" clip-path="url(#clip1)">
<path style=" stroke:none;fill-rule:nonzero;fill:rgb(33.333333%,80%,59.607843%);fill-opacity:1;" d="M 32.050781 24.921875 C 32.050781 28.652344 29.027344 31.671875 25.300781 31.671875 C 21.574219 31.671875 18.550781 28.652344 18.550781 24.921875 C 18.550781 21.195312 21.574219 18.171875 25.300781 18.171875 C 29.027344 18.171875 32.050781 21.195312 32.050781 24.921875 Z M 32.050781 24.921875 "/>
</g>
<clipPath id="clip2">
  <rect width="36" height="36"/>
</clipPath>
<g id="surface9" clip-path="url(#clip2)">
<path style=" stroke:none;fill-rule:nonzero;fill:rgb(100%,100%,100%);fill-opacity:1;" d="M 24.449219 21.546875 L 24.375 22.4375 C 24.089844 22.542969 23.824219 22.691406 23.59375 22.886719 L 22.777344 22.503906 L 21.925781 23.964844 L 22.664062 24.476562 C 22.640625 24.625 22.625 24.773438 22.625 24.921875 C 22.625 25.074219 22.636719 25.222656 22.664062 25.371094 L 21.925781 25.878906 L 22.777344 27.339844 L 23.589844 26.960938 C 23.824219 27.152344 24.089844 27.304688 24.375 27.40625 L 24.449219 28.296875 L 26.152344 28.296875 L 26.226562 27.410156 C 26.511719 27.304688 26.777344 27.152344 27.007812 26.960938 L 27.824219 27.339844 L 28.675781 25.878906 L 27.933594 25.371094 C 27.960938 25.222656 27.976562 25.074219 27.976562 24.921875 C 27.976562 24.773438 27.964844 24.621094 27.9375 24.472656 L 28.675781 23.964844 L 27.824219 22.503906 L 27.011719 22.882812 C 26.777344 22.691406 26.511719 22.542969 26.226562 22.4375 L 26.152344 21.546875 Z M 25.300781 23.957031 C 25.839844 23.957031 26.273438 24.390625 26.273438 24.921875 C 26.273438 25.457031 25.839844 25.886719 25.300781 25.886719 C 24.761719 25.886719 24.328125 25.457031 24.328125 24.921875 C 24.328125 24.390625 24.761719 23.957031 25.300781 23.957031 Z M 25.300781 23.957031 "/>
</g>
</defs>
<g id="surface1">
<path style=" stroke:none;fill-rule:evenodd;fill:rgb(76.862745%,76.862745%,76.862745%);fill-opacity:1;" d="M 8.40625 2.136719 L 27.59375 2.136719 C 31.054688 2.136719 33.863281 4.945312 33.863281 8.40625 L 33.863281 27.59375 C 33.863281 31.054688 31.054688 33.863281 27.59375 33.863281 L 8.40625 33.863281 C 4.945312 33.863281 2.136719 31.054688 2.136719 27.59375 L 2.136719 8.40625 C 2.136719 4.945312 4.945312 2.136719 8.40625 2.136719 Z M 8.40625 2.136719 "/>
<path style=" stroke:none;fill-rule:nonzero;fill:rgb(24.705882%,24.705882%,24.705882%);fill-opacity:1;" d="M 28.125 18 C 28.125 23.59375 23.59375 28.125 18 28.125 C 12.40625 28.125 7.875 23.59375 7.875 18 C 7.875 12.40625 12.40625 7.875 18 7.875 C 23.59375 7.875 28.125 12.40625 28.125 18 Z M 28.125 18 "/>
<path style=" stroke:none;fill-rule:nonzero;fill:rgb(72.941176%,9.019608%,30.588235%);fill-opacity:1;" d="M 25.875 18 C 25.875 13.652344 22.347656 10.125 18 10.125 C 13.652344 10.125 10.125 13.652344 10.125 18 C 10.125 22.347656 13.652344 25.875 18 25.875 C 22.347656 25.875 25.875 22.347656 25.875 18 Z M 25.875 18 "/>
<path style=" stroke:none;fill-rule:nonzero;fill:rgb(83.921569%,45.490196%,58.431373%);fill-opacity:1;" d="M 22.5 18 C 22.5 20.484375 20.484375 22.5 18 22.5 C 15.515625 22.5 13.5 20.484375 13.5 18 C 13.5 15.515625 15.515625 13.5 18 13.5 C 20.484375 13.5 22.5 15.515625 22.5 18 Z M 22.5 18 "/>
<use xlink:href="#surface6"/>
<use xlink:href="#surface9"/>
</g>
</svg>
