<?xml version="1.0" encoding="UTF-8"?>
<svg xmlns="http://www.w3.org/2000/svg" xmlns:xlink="http://www.w3.org/1999/xlink" width="36pt" height="36pt" viewBox="0 0 36 36" version="1.1">
<g id="surface1">
<path style=" stroke:none;fill-rule:evenodd;fill:rgb(29.803922%,38.823529%,41.960784%);fill-opacity:1;" d="M 8.40625 2.136719 L 27.59375 2.136719 C 31.054688 2.136719 33.863281 4.945312 33.863281 8.40625 L 33.863281 27.59375 C 33.863281 31.054688 31.054688 33.863281 27.59375 33.863281 L 8.40625 33.863281 C 4.945312 33.863281 2.136719 31.054688 2.136719 27.59375 L 2.136719 8.40625 C 2.136719 4.945312 4.945312 2.136719 8.40625 2.136719 Z M 8.40625 2.136719 "/>
<path style=" stroke:none;fill-rule:nonzero;fill:rgb(23.921569%,30.980392%,33.72549%);fill-opacity:1;" d="M 20.25 16.875 C 20.25 21.222656 16.722656 24.75 12.375 24.75 C 8.027344 24.75 4.5 21.222656 4.5 16.875 C 4.5 12.527344 8.027344 9 12.375 9 C 16.722656 9 20.25 12.527344 20.25 16.875 Z M 20.25 16.875 "/>
<path style=" stroke:none;fill-rule:nonzero;fill:rgb(93.333333%,34.509804%,34.509804%);fill-opacity:1;" d="M 6.804688 11.304688 C 6.542969 11.574219 6.296875 11.859375 6.074219 12.164062 L 8.5 14.59375 C 7.460938 16.359375 7.746094 18.605469 9.191406 20.058594 C 10.644531 21.503906 12.890625 21.789062 14.65625 20.746094 L 17.085938 23.175781 C 17.386719 22.953125 17.675781 22.707031 17.945312 22.441406 C 18.207031 22.175781 18.453125 21.886719 18.675781 21.585938 L 16.246094 19.15625 C 17.289062 17.390625 17.003906 15.144531 15.554688 13.695312 C 14.105469 12.246094 11.859375 11.960938 10.09375 13.003906 L 7.664062 10.574219 C 7.363281 10.796875 7.074219 11.042969 6.804688 11.308594 Z M 6.804688 11.304688 "/>
<path style=" stroke:none;fill-rule:nonzero;fill:rgb(95.294118%,76.862745%,76.862745%);fill-opacity:1;" d="M 14.625 16.875 C 14.625 18.117188 13.617188 19.125 12.375 19.125 C 11.132812 19.125 10.125 18.117188 10.125 16.875 C 10.125 15.632812 11.132812 14.625 12.375 14.625 C 13.617188 14.625 14.625 15.632812 14.625 16.875 Z M 14.625 16.875 "/>
<path style=" stroke:none;fill-rule:nonzero;fill:rgb(23.921569%,30.980392%,33.72549%);fill-opacity:1;" d="M 23.625 10.125 L 30.375 10.125 C 30.996094 10.125 31.5 10.628906 31.5 11.25 C 31.5 11.871094 30.996094 12.375 30.375 12.375 L 23.625 12.375 C 23.003906 12.375 22.5 11.871094 22.5 11.25 C 22.5 10.628906 23.003906 10.125 23.625 10.125 Z M 23.625 10.125 "/>
<path style=" stroke:none;fill-rule:nonzero;fill:rgb(34.509804%,76.862745%,93.333333%);fill-opacity:1;" d="M 31.5 25.3125 C 31.5 26.246094 30.746094 27 29.8125 27 C 28.878906 27 28.125 26.246094 28.125 25.3125 C 28.125 24.378906 28.878906 23.625 29.8125 23.625 C 30.746094 23.625 31.5 24.378906 31.5 25.3125 Z M 31.5 25.3125 "/>
<path style=" stroke:none;fill-rule:nonzero;fill:rgb(34.509804%,76.862745%,93.333333%);fill-opacity:1;" d="M 27 25.3125 C 27 26.246094 26.246094 27 25.3125 27 C 24.378906 27 23.625 26.246094 23.625 25.3125 C 23.625 24.378906 24.378906 23.625 25.3125 23.625 C 26.246094 23.625 27 24.378906 27 25.3125 Z M 27 25.3125 "/>
<path style=" stroke:none;fill-rule:nonzero;fill:rgb(23.921569%,30.980392%,33.72549%);fill-opacity:1;" d="M 23.625 13.5 L 30.375 13.5 C 30.996094 13.5 31.5 14.003906 31.5 14.625 C 31.5 15.246094 30.996094 15.75 30.375 15.75 L 23.625 15.75 C 23.003906 15.75 22.5 15.246094 22.5 14.625 C 22.5 14.003906 23.003906 13.5 23.625 13.5 Z M 23.625 13.5 "/>
<path style=" stroke:none;fill-rule:nonzero;fill:rgb(23.921569%,30.980392%,33.72549%);fill-opacity:1;" d="M 23.625 16.875 L 30.375 16.875 C 30.996094 16.875 31.5 17.378906 31.5 18 C 31.5 18.621094 30.996094 19.125 30.375 19.125 L 23.625 19.125 C 23.003906 19.125 22.5 18.621094 22.5 18 C 22.5 17.378906 23.003906 16.875 23.625 16.875 Z M 23.625 16.875 "/>
<path style=" stroke:none;fill-rule:nonzero;fill:rgb(23.921569%,30.980392%,33.72549%);fill-opacity:1;" d="M 23.625 20.25 L 30.375 20.25 C 30.996094 20.25 31.5 20.753906 31.5 21.375 C 31.5 21.996094 30.996094 22.5 30.375 22.5 L 23.625 22.5 C 23.003906 22.5 22.5 21.996094 22.5 21.375 C 22.5 20.753906 23.003906 20.25 23.625 20.25 Z M 23.625 20.25 "/>
</g>
</svg>
