<?xml version="1.0" encoding="UTF-8"?>
<svg xmlns="http://www.w3.org/2000/svg" xmlns:xlink="http://www.w3.org/1999/xlink" width="36pt" height="36pt" viewBox="0 0 36 36" version="1.1">
<g id="surface1">
<path style=" stroke:none;fill-rule:evenodd;fill:rgb(12.54902%,58.431373%,94.901961%);fill-opacity:1;" d="M 8.40625 2.136719 L 27.59375 2.136719 C 31.054688 2.136719 33.863281 4.945312 33.863281 8.40625 L 33.863281 27.59375 C 33.863281 31.054688 31.054688 33.863281 27.59375 33.863281 L 8.40625 33.863281 C 4.945312 33.863281 2.136719 31.054688 2.136719 27.59375 L 2.136719 8.40625 C 2.136719 4.945312 4.945312 2.136719 8.40625 2.136719 Z M 8.40625 2.136719 "/>
<path style=" stroke:none;fill-rule:nonzero;fill:rgb(100%,100%,100%);fill-opacity:1;" d="M 11.148438 29.699219 C 7.835938 28.601562 6.777344 25.578125 9.179688 24.085938 C 9.988281 23.582031 11.683594 23.589844 12.78125 24.09375 C 13.226562 24.300781 13.65625 24.402344 13.734375 24.320312 C 13.933594 24.117188 14.300781 22.09375 15.175781 16.410156 C 15.925781 11.507812 16.042969 9.824219 15.699219 8.820312 C 15.546875 8.375 15.554688 8.164062 15.722656 7.957031 C 16.285156 7.265625 21.210938 6.183594 23.789062 6.1875 C 25.910156 6.1875 27.066406 6.792969 27.816406 8.292969 C 29.09375 10.847656 26.304688 15.234375 21.523438 18.191406 L 21.019531 18.503906 L 21.410156 19.289062 C 22.167969 20.824219 23.71875 23.085938 24.648438 24.019531 C 25.167969 24.542969 25.59375 25.0625 25.59375 25.179688 C 25.59375 25.308594 25.246094 25.390625 24.707031 25.390625 C 22.972656 25.390625 21.183594 24.09375 18.789062 21.105469 C 18.421875 20.644531 18.078125 20.3125 18.027344 20.367188 C 17.976562 20.417969 17.683594 21.761719 17.375 23.347656 C 16.671875 27.007812 16.050781 28.390625 14.742188 29.207031 C 14.054688 29.632812 13.597656 29.769531 12.730469 29.804688 C 12.113281 29.832031 11.398438 29.785156 11.148438 29.699219 Z M 20.929688 14.664062 C 22.339844 13.644531 23.542969 12.453125 24.296875 11.339844 C 24.777344 10.628906 24.964844 10.480469 25.289062 10.566406 C 25.5625 10.640625 25.515625 10.574219 25.136719 10.347656 C 24.195312 9.78125 20.097656 10.066406 19.585938 10.734375 C 19.390625 10.988281 18.648438 15.730469 18.773438 15.9375 C 18.871094 16.101562 19.261719 15.871094 20.929688 14.664062 Z M 20.929688 14.664062 "/>
</g>
</svg>
