<?xml version="1.0" encoding="UTF-8"?>
<svg xmlns="http://www.w3.org/2000/svg" xmlns:xlink="http://www.w3.org/1999/xlink" width="36pt" height="36pt" viewBox="0 0 36 36" version="1.1">
<g id="surface1">
<path style=" stroke:none;fill-rule:evenodd;fill:rgb(80.392157%,52.54902%,32.156863%);fill-opacity:1;" d="M 8.40625 2.136719 L 27.59375 2.136719 C 31.054688 2.136719 33.863281 4.945312 33.863281 8.40625 L 33.863281 27.59375 C 33.863281 31.054688 31.054688 33.863281 27.59375 33.863281 L 8.40625 33.863281 C 4.945312 33.863281 2.136719 31.054688 2.136719 27.59375 L 2.136719 8.40625 C 2.136719 4.945312 4.945312 2.136719 8.40625 2.136719 Z M 8.40625 2.136719 "/>
<path style=" stroke:none;fill-rule:nonzero;fill:rgb(100%,100%,100%);fill-opacity:1;" d="M 25 12.1875 C 25.414062 11.820312 25.972656 11.730469 26.394531 11.941406 L 26.472656 11.863281 C 26.726562 11.261719 27.179688 10.59375 27.8125 9.980469 C 28.445312 9.367188 29.128906 8.921875 29.746094 8.675781 C 29.746094 8.675781 29.867188 8.558594 30.019531 8.414062 C 30.171875 8.265625 30.078125 7.941406 29.816406 7.683594 L 28.269531 6.179688 C 28.003906 5.921875 27.671875 5.832031 27.523438 5.976562 L 27.253906 6.238281 C 27.003906 6.84375 26.546875 7.511719 25.910156 8.128906 C 25.277344 8.746094 24.585938 9.191406 23.964844 9.4375 L 23.910156 9.492188 C 24.175781 9.902344 24.09375 10.492188 23.695312 10.917969 L 19.539062 14.9375 C 19.359375 14.925781 19.070312 14.785156 18.683594 14.203125 C 17.992188 13.160156 16.378906 12.566406 15.050781 14.808594 C 13.722656 17.054688 14.824219 17.425781 11.039062 17.851562 C 9.703125 17.925781 8.4375 18.421875 7.46875 19.363281 C 5.179688 21.589844 5.4375 25.460938 8.050781 28.003906 C 10.667969 30.546875 14.644531 30.800781 16.933594 28.570312 C 16.976562 28.53125 17.015625 28.488281 17.054688 28.449219 C 17.054688 28.449219 17.070312 28.433594 17.09375 28.40625 C 17.277344 28.210938 17.445312 28.003906 17.589844 27.789062 C 18.179688 26.976562 19.023438 25.511719 18.832031 23.980469 C 18.550781 21.671875 20.773438 21.777344 21.695312 21.195312 C 22.617188 20.617188 22.941406 20.113281 22.96875 19.535156 C 22.96875 19.535156 21.871094 20.285156 20.867188 19.308594 C 20.0625 18.523438 20.417969 17.1875 20.765625 16.480469 Z M 25 12.1875 "/>
</g>
</svg>
