<?xml version="1.0" encoding="UTF-8"?>
<svg xmlns="http://www.w3.org/2000/svg" xmlns:xlink="http://www.w3.org/1999/xlink" width="36pt" height="36pt" viewBox="0 0 36 36" version="1.1">
<defs>
<filter id="alpha" filterUnits="objectBoundingBox" x="0%" y="0%" width="100%" height="100%">
  <feColorMatrix type="matrix" in="SourceGraphic" values="0 0 0 0 1 0 0 0 0 1 0 0 0 0 1 0 0 0 1 0"/>
</filter>
<mask id="mask0">
  <g filter="url(#alpha)">
<rect x="0" y="0" width="36" height="36" style="fill:rgb(0%,0%,0%);fill-opacity:0.2;stroke:none;"/>
  </g>
</mask>
<clipPath id="clip1">
  <rect width="36" height="36"/>
</clipPath>
<g id="surface6" clip-path="url(#clip1)">
<path style=" stroke:none;fill-rule:nonzero;fill:rgb(0%,0%,0%);fill-opacity:1;" d="M 18 26.734375 C 22.347656 26.734375 25.875 23.207031 25.875 18.859375 C 25.875 14.507812 22.347656 10.984375 18 10.984375 C 13.652344 10.984375 10.125 14.507812 10.125 18.859375 C 10.125 23.207031 13.652344 26.734375 18 26.734375 Z M 18 26.734375 "/>
</g>
</defs>
<g id="surface1">
<path style=" stroke:none;fill-rule:evenodd;fill:rgb(80%,80%,80%);fill-opacity:1;" d="M 8.40625 2.136719 L 27.59375 2.136719 C 31.054688 2.136719 33.863281 4.945312 33.863281 8.40625 L 33.863281 27.59375 C 33.863281 31.054688 31.054688 33.863281 27.59375 33.863281 L 8.40625 33.863281 C 4.945312 33.863281 2.136719 31.054688 2.136719 27.59375 L 2.136719 8.40625 C 2.136719 4.945312 4.945312 2.136719 8.40625 2.136719 Z M 8.40625 2.136719 "/>
<path style=" stroke:none;fill-rule:nonzero;fill:rgb(24.705882%,24.705882%,24.705882%);fill-opacity:1;" d="M 18 29.546875 C 12.40625 29.546875 7.875 25.011719 7.875 19.421875 C 7.875 13.828125 12.40625 9.296875 18 9.296875 C 23.59375 9.296875 28.125 13.828125 28.125 19.421875 C 28.125 25.011719 23.59375 29.546875 18 29.546875 Z M 18 29.546875 "/>
<use xlink:href="#surface6" mask="url(#mask0)"/>
<path style=" stroke:none;fill-rule:nonzero;fill:rgb(99.607843%,75.294118%,2.352941%);fill-opacity:1;" d="M 18 27.296875 C 22.347656 27.296875 25.875 23.769531 25.875 19.421875 C 25.875 15.070312 22.347656 11.546875 18 11.546875 C 13.652344 11.546875 10.125 15.070312 10.125 19.421875 C 10.125 23.769531 13.652344 27.296875 18 27.296875 Z M 18 27.296875 "/>
<path style=" stroke:none;fill-rule:nonzero;fill:rgb(24.705882%,24.705882%,24.705882%);fill-opacity:1;" d="M 18 22.796875 C 19.863281 22.796875 21.375 21.285156 21.375 19.421875 C 21.375 17.558594 19.863281 16.046875 18 16.046875 C 16.136719 16.046875 14.625 17.558594 14.625 19.421875 C 14.625 21.285156 16.136719 22.796875 18 22.796875 Z M 18 22.796875 "/>
<path style=" stroke:none;fill-rule:nonzero;fill:rgb(24.705882%,24.705882%,24.705882%);fill-opacity:1;" d="M 27.828125 7.074219 C 28.761719 7.074219 29.515625 7.832031 29.515625 8.761719 C 29.515625 9.695312 28.761719 10.449219 27.828125 10.449219 C 26.898438 10.449219 26.140625 9.695312 26.140625 8.761719 C 26.140625 7.832031 26.898438 7.074219 27.828125 7.074219 Z M 27.828125 7.074219 "/>
<path style=" stroke:none;fill-rule:nonzero;fill:rgb(24.705882%,24.705882%,24.705882%);fill-opacity:1;" d="M 8.527344 7.074219 C 9.457031 7.074219 10.214844 7.832031 10.214844 8.761719 C 10.214844 9.695312 9.457031 10.449219 8.527344 10.449219 C 7.59375 10.449219 6.839844 9.695312 6.839844 8.761719 C 6.839844 7.832031 7.59375 7.074219 8.527344 7.074219 Z M 8.527344 7.074219 "/>
</g>
</svg>
