<?xml version="1.0" encoding="UTF-8"?>
<svg xmlns="http://www.w3.org/2000/svg" xmlns:xlink="http://www.w3.org/1999/xlink" width="36pt" height="36pt" viewBox="0 0 36 36" version="1.1">
<g id="surface1">
<path style=" stroke:none;fill-rule:nonzero;fill:rgb(12.54902%,52.54902%,90.588235%);fill-opacity:1;" d="M 33.75 7.839844 C 33.6875 7.1875 33.617188 6.539062 33.371094 5.960938 C 33.054688 5.210938 32.597656 4.535156 32.03125 3.96875 C 31.460938 3.402344 30.789062 2.941406 30.035156 2.625 C 29.460938 2.382812 28.8125 2.3125 28.164062 2.25 L 18 2.25 L 18 18 L 33.75 18 Z M 33.75 7.839844 "/>
<path style=" stroke:none;fill-rule:nonzero;fill:rgb(78.039216%,14.509804%,40%);fill-opacity:1;" d="M 7.835938 2.25 C 7.1875 2.3125 6.535156 2.382812 5.960938 2.625 C 5.210938 2.941406 4.535156 3.402344 3.96875 3.96875 C 3.402344 4.535156 2.941406 5.210938 2.625 5.960938 C 2.382812 6.535156 2.3125 7.1875 2.25 7.835938 L 2.25 18 L 18 18 L 18 2.25 Z M 7.835938 2.25 "/>
<path style=" stroke:none;fill-rule:nonzero;fill:rgb(78.039216%,14.509804%,40%);fill-opacity:1;" d="M 28.164062 33.75 C 28.8125 33.6875 29.464844 33.617188 30.039062 33.375 C 30.789062 33.058594 31.464844 32.597656 32.03125 32.03125 C 32.597656 31.464844 33.058594 30.789062 33.375 30.039062 C 33.617188 29.464844 33.6875 28.8125 33.75 28.164062 L 33.75 18 L 18 18 L 18 33.75 Z M 28.164062 33.75 "/>
<path style=" stroke:none;fill-rule:nonzero;fill:rgb(100%,54.901961%,16.470588%);fill-opacity:1;" d="M 2.25 28.160156 C 2.3125 28.8125 2.386719 29.460938 2.628906 30.039062 C 2.945312 30.789062 3.402344 31.464844 3.96875 32.03125 C 4.539062 32.597656 5.210938 33.058594 5.964844 33.375 C 6.539062 33.617188 7.1875 33.6875 7.835938 33.75 L 18 33.75 L 18 18 L 2.25 18 Z M 2.25 28.160156 "/>
<path style=" stroke:none;fill-rule:evenodd;fill:rgb(24.705882%,24.705882%,24.705882%);fill-opacity:1;" d="M 10.714844 5.949219 L 25.285156 5.949219 C 27.917969 5.949219 30.050781 8.082031 30.050781 10.714844 L 30.050781 25.285156 C 30.050781 27.917969 27.917969 30.050781 25.285156 30.050781 L 10.714844 30.050781 C 8.082031 30.050781 5.949219 27.917969 5.949219 25.285156 L 5.949219 10.714844 C 5.949219 8.082031 8.082031 5.949219 10.714844 5.949219 Z M 10.714844 5.949219 "/>
<path style="fill:none;stroke-width:2;stroke-linecap:round;stroke-linejoin:miter;stroke:rgb(100%,100%,100%);stroke-opacity:1;stroke-miterlimit:4;" d="M 56.457137 -11.03476 L 64.456225 -11.03476 " transform="matrix(1.010857,0,0,1.010857,-45.128711,36.248319)"/>
<path style="fill:none;stroke-width:2;stroke-linecap:round;stroke-linejoin:bevel;stroke:rgb(100%,100%,100%);stroke-opacity:1;stroke-miterlimit:4;" d="M 64.456225 -17.032143 C 64.456225 -17.032143 68.502141 -16.684357 68.455769 -21.035552 C 68.413262 -25.382882 64.456225 -25.035096 64.456225 -25.035096 M 64.444632 -17.032143 L 64.444632 -25.035096 " transform="matrix(1.010857,0,0,1.010857,-45.128711,36.248319)"/>
<path style="fill:none;stroke-width:2;stroke-linecap:round;stroke-linejoin:miter;stroke:rgb(100%,100%,100%);stroke-opacity:1;stroke-miterlimit:4;" d="M 60.456681 -17.032143 L 58.458841 -20.0347 M 56.457137 -21.035552 C 56.457137 -21.035552 60.456681 -20.567972 60.456681 -23.033391 C 60.456681 -25.498811 56.457137 -25.035096 56.457137 -25.035096 M 56.457137 -17.032143 L 56.457137 -25.035096 " transform="matrix(1.010857,0,0,1.010857,-45.128711,36.248319)"/>
</g>
</svg>
