<?xml version="1.0" encoding="UTF-8"?>
<svg xmlns="http://www.w3.org/2000/svg" xmlns:xlink="http://www.w3.org/1999/xlink" width="36pt" height="36pt" viewBox="0 0 36 36" version="1.1">
<g id="surface1">
<path style=" stroke:none;fill-rule:evenodd;fill:rgb(19.215686%,63.921569%,70.196078%);fill-opacity:1;" d="M 8.40625 2.136719 L 27.59375 2.136719 C 31.054688 2.136719 33.863281 4.945312 33.863281 8.40625 L 33.863281 27.59375 C 33.863281 31.054688 31.054688 33.863281 27.59375 33.863281 L 8.40625 33.863281 C 4.945312 33.863281 2.136719 31.054688 2.136719 27.59375 L 2.136719 8.40625 C 2.136719 4.945312 4.945312 2.136719 8.40625 2.136719 Z M 8.40625 2.136719 "/>
<path style=" stroke:none;fill-rule:nonzero;fill:rgb(100%,100%,100%);fill-opacity:1;" d="M 9.878906 6.429688 L 12.046875 5.179688 C 13.246094 4.488281 14.847656 5.019531 15.625 6.367188 L 26.886719 25.875 C 27.667969 27.222656 27.324219 28.875 26.128906 29.566406 L 23.960938 30.816406 C 22.765625 31.507812 21.164062 30.976562 20.386719 29.628906 L 9.121094 10.121094 C 8.34375 8.773438 8.683594 7.121094 9.878906 6.429688 Z M 9.878906 6.429688 "/>
<path style=" stroke:none;fill-rule:nonzero;fill:rgb(40.392157%,73.72549%,78.431373%);fill-opacity:1;" d="M 26.125 6.433594 L 23.957031 5.183594 C 22.761719 4.492188 21.160156 5.023438 20.382812 6.371094 L 9.117188 25.878906 C 8.339844 27.226562 8.679688 28.878906 9.878906 29.570312 L 12.042969 30.820312 C 13.242188 31.511719 14.84375 30.980469 15.621094 29.632812 L 26.886719 10.125 C 27.664062 8.777344 27.324219 7.125 26.125 6.433594 Z M 26.125 6.433594 "/>
<path style=" stroke:none;fill-rule:nonzero;fill:rgb(58.039216%,83.137255%,87.058824%);fill-opacity:1;" d="M 32.082031 19.25 L 32.082031 16.746094 C 32.082031 15.363281 30.820312 14.242188 29.265625 14.242188 L 6.734375 14.242188 C 5.179688 14.242188 3.917969 15.363281 3.917969 16.746094 L 3.917969 19.25 C 3.917969 20.632812 5.179688 21.75 6.734375 21.75 L 29.265625 21.75 C 30.820312 21.75 32.082031 20.632812 32.082031 19.25 Z M 32.082031 19.25 "/>
</g>
</svg>
