<?xml version="1.0" encoding="UTF-8"?>
<svg xmlns="http://www.w3.org/2000/svg" xmlns:xlink="http://www.w3.org/1999/xlink" width="36pt" height="36pt" viewBox="0 0 36 36" version="1.1">
<g id="surface1">
<path style=" stroke:none;fill-rule:evenodd;fill:rgb(48.235294%,78.823529%,64.313725%);fill-opacity:1;" d="M 8.730469 2.667969 L 27.269531 2.667969 C 30.617188 2.667969 33.332031 5.382812 33.332031 8.730469 L 33.332031 27.269531 C 33.332031 30.617188 30.617188 33.332031 27.269531 33.332031 L 8.730469 33.332031 C 5.382812 33.332031 2.667969 30.617188 2.667969 27.269531 L 2.667969 8.730469 C 2.667969 5.382812 5.382812 2.667969 8.730469 2.667969 Z M 8.730469 2.667969 "/>
<path style=" stroke:none;fill-rule:evenodd;fill:rgb(48.235294%,78.823529%,64.313725%);fill-opacity:1;" d="M 16.777344 2.132812 C 17.933594 2.195312 19.066406 2.363281 20.085938 2.777344 C 21.261719 3.253906 22.320312 3.945312 23.210938 4.800781 C 24.101562 5.65625 24.820312 6.675781 25.320312 7.804688 C 25.816406 8.9375 26.09375 10.179688 26.09375 11.484375 C 26.09375 12.703125 25.671875 14.074219 24.929688 15.386719 C 24.183594 16.699219 23.121094 17.949219 21.828125 18.933594 L 18.78125 14.75 C 18.332031 14.0625 17.714844 13.507812 16.996094 13.128906 C 16.277344 12.746094 15.460938 12.535156 14.617188 12.535156 C 13.941406 12.535156 13.296875 12.667969 12.707031 12.90625 C 12.121094 13.148438 11.589844 13.496094 11.144531 13.925781 C 10.699219 14.355469 10.335938 14.863281 10.085938 15.429688 C 9.835938 15.992188 9.699219 16.613281 9.699219 17.261719 L 9.699219 17.265625 C 9.699219 18.238281 10.015625 19.1875 10.601562 19.984375 L 10.605469 19.984375 L 10.605469 19.988281 L 11.292969 20.9375 L 9.699219 20.9375 L 9.699219 28.289062 C 9.699219 28.777344 9.585938 29.21875 9.386719 29.605469 C 9.1875 29.992188 8.898438 30.324219 8.546875 30.597656 C 7.84375 31.140625 6.890625 31.441406 5.875 31.441406 C 4.855469 31.441406 3.898438 31.140625 3.195312 30.597656 C 2.945312 30.402344 2.773438 30.140625 2.597656 29.886719 C 3.511719 32.214844 5.75 33.867188 8.410156 33.867188 L 27.59375 33.867188 C 31.066406 33.867188 33.863281 31.066406 33.863281 27.59375 L 33.863281 8.40625 C 33.863281 4.933594 31.066406 2.132812 27.59375 2.132812 Z M 14.617188 13.585938 C 15.238281 13.585938 15.84375 13.734375 16.378906 14.003906 C 16.917969 14.269531 17.390625 14.664062 17.746094 15.15625 L 25.398438 25.65625 C 25.847656 26.273438 26.089844 27.007812 26.09375 27.761719 C 26.09375 28.269531 25.984375 28.753906 25.792969 29.195312 C 25.597656 29.632812 25.316406 30.03125 24.972656 30.363281 C 24.625 30.695312 24.214844 30.964844 23.757812 31.148438 C 23.300781 31.335938 22.796875 31.441406 22.265625 31.441406 C 21.644531 31.4375 21.039062 31.292969 20.503906 31.023438 C 19.964844 30.753906 19.496094 30.363281 19.136719 29.871094 L 11.488281 19.367188 C 11.035156 18.75 10.792969 18.015625 10.789062 17.261719 C 10.789062 16.753906 10.898438 16.269531 11.089844 15.832031 C 11.285156 15.390625 11.566406 14.992188 11.910156 14.660156 C 12.257812 14.328125 12.671875 14.0625 13.128906 13.875 C 13.585938 13.6875 14.089844 13.585938 14.617188 13.585938 Z M 14.617188 13.585938 "/>
<path style=" stroke:none;fill-rule:evenodd;fill:rgb(70.588235%,48.235294%,70.980392%);fill-opacity:1;" d="M 14.617188 13.585938 C 14.089844 13.585938 13.585938 13.6875 13.128906 13.875 C 12.671875 14.0625 12.257812 14.328125 11.910156 14.660156 C 11.566406 14.992188 11.285156 15.390625 11.089844 15.832031 C 10.898438 16.269531 10.789062 16.753906 10.789062 17.261719 C 10.792969 18.015625 11.035156 18.75 11.488281 19.367188 L 19.136719 29.871094 C 19.496094 30.363281 19.964844 30.753906 20.503906 31.023438 C 21.039062 31.292969 21.644531 31.4375 22.265625 31.441406 C 22.796875 31.441406 23.300781 31.335938 23.757812 31.148438 C 24.214844 30.964844 24.625 30.695312 24.972656 30.363281 C 25.316406 30.03125 25.597656 29.632812 25.792969 29.195312 C 25.984375 28.753906 26.09375 28.269531 26.09375 27.761719 C 26.089844 27.007812 25.847656 26.273438 25.398438 25.65625 L 17.746094 15.15625 C 17.390625 14.664062 16.917969 14.269531 16.378906 14.003906 C 15.84375 13.734375 15.238281 13.585938 14.617188 13.585938 Z M 14.617188 13.585938 "/>
<path style=" stroke:none;fill-rule:evenodd;fill:rgb(100%,100%,100%);fill-opacity:1;" d="M 9.003906 2.132812 C 9.523438 2.554688 9.972656 3.054688 10.277344 3.636719 C 10.605469 4.261719 10.789062 4.964844 10.789062 5.710938 C 10.789062 6.359375 10.652344 6.980469 10.402344 7.542969 C 10.152344 8.109375 9.789062 8.617188 9.34375 9.046875 C 8.898438 9.476562 8.371094 9.820312 7.78125 10.0625 C 7.195312 10.300781 6.550781 10.4375 5.875 10.4375 C 5.097656 10.4375 4.367188 10.257812 3.71875 9.945312 C 3.101562 9.644531 2.574219 9.210938 2.136719 8.703125 L 2.136719 27.59375 C 2.136719 28.40625 2.316406 29.171875 2.597656 29.886719 C 2.773438 30.140625 2.945312 30.402344 3.195312 30.597656 C 3.898438 31.140625 4.855469 31.441406 5.875 31.441406 C 6.890625 31.441406 7.84375 31.140625 8.546875 30.597656 C 8.898438 30.324219 9.1875 29.992188 9.386719 29.605469 C 9.585938 29.21875 9.699219 28.777344 9.699219 28.289062 L 9.699219 20.9375 L 11.292969 20.9375 L 10.605469 19.988281 L 10.605469 19.984375 L 10.601562 19.984375 C 10.015625 19.1875 9.699219 18.238281 9.699219 17.265625 L 9.699219 17.261719 C 9.699219 16.613281 9.835938 15.992188 10.085938 15.429688 C 10.335938 14.863281 10.699219 14.355469 11.144531 13.925781 C 11.589844 13.496094 12.121094 13.148438 12.707031 12.90625 C 13.296875 12.667969 13.941406 12.535156 14.617188 12.535156 C 15.460938 12.535156 16.277344 12.746094 16.996094 13.128906 C 17.714844 13.507812 18.332031 14.0625 18.78125 14.75 L 21.828125 18.933594 C 23.121094 17.949219 24.183594 16.699219 24.929688 15.386719 C 25.671875 14.074219 26.09375 12.703125 26.09375 11.484375 C 26.09375 10.179688 25.816406 8.9375 25.320312 7.804688 C 24.820312 6.675781 24.101562 5.65625 23.210938 4.800781 C 22.320312 3.945312 21.261719 3.253906 20.085938 2.777344 C 19.066406 2.363281 17.933594 2.195312 16.777344 2.132812 Z M 9.003906 2.132812 "/>
<path style=" stroke:none;fill-rule:evenodd;fill:rgb(48.235294%,78.823529%,64.313725%);fill-opacity:1;" d="M 2.378906 7.199219 C 2.296875 7.605469 2.136719 7.980469 2.136719 8.40625 L 2.136719 8.703125 C 2.574219 9.210938 3.101562 9.644531 3.71875 9.945312 C 4.367188 10.257812 5.097656 10.4375 5.875 10.4375 C 6.550781 10.4375 7.195312 10.300781 7.78125 10.0625 C 8.371094 9.820312 8.898438 9.476562 9.34375 9.046875 C 9.789062 8.617188 10.152344 8.109375 10.402344 7.542969 C 10.652344 6.980469 10.789062 6.359375 10.789062 5.710938 C 10.789062 4.964844 10.605469 4.261719 10.277344 3.636719 C 9.972656 3.054688 9.523438 2.554688 9.003906 2.132812 L 8.410156 2.132812 C 8.046875 2.132812 7.734375 2.28125 7.390625 2.339844 C 7.464844 2.367188 7.535156 2.398438 7.605469 2.433594 C 7.71875 2.488281 7.832031 2.550781 7.9375 2.617188 C 8.046875 2.683594 8.152344 2.753906 8.25 2.828125 C 8.351562 2.90625 8.445312 2.988281 8.539062 3.074219 C 8.628906 3.15625 8.714844 3.246094 8.796875 3.339844 C 8.878906 3.433594 8.957031 3.53125 9.03125 3.632812 C 9.101562 3.734375 9.167969 3.839844 9.230469 3.949219 C 9.292969 4.054688 9.347656 4.164062 9.394531 4.277344 C 9.445312 4.390625 9.488281 4.503906 9.527344 4.621094 C 9.566406 4.738281 9.597656 4.859375 9.621094 4.976562 C 9.648438 5.097656 9.667969 5.21875 9.679688 5.34375 C 9.691406 5.464844 9.699219 5.585938 9.699219 5.710938 C 9.699219 5.796875 9.695312 5.882812 9.691406 5.96875 C 9.679688 6.089844 9.664062 6.210938 9.644531 6.332031 C 9.621094 6.453125 9.59375 6.574219 9.558594 6.691406 C 9.523438 6.808594 9.484375 6.925781 9.441406 7.042969 C 9.394531 7.15625 9.339844 7.269531 9.28125 7.378906 C 9.222656 7.488281 9.160156 7.59375 9.09375 7.695312 C 9.023438 7.800781 8.949219 7.898438 8.871094 7.996094 C 8.789062 8.089844 8.707031 8.183594 8.617188 8.269531 C 8.527344 8.355469 8.433594 8.441406 8.335938 8.519531 C 8.238281 8.597656 8.136719 8.675781 8.035156 8.742188 C 7.925781 8.8125 7.816406 8.875 7.707031 8.933594 C 7.59375 8.992188 7.480469 9.046875 7.363281 9.09375 C 7.246094 9.144531 7.125 9.183594 7.003906 9.222656 C 6.882812 9.257812 6.757812 9.285156 6.632812 9.3125 C 6.507812 9.335938 6.382812 9.355469 6.253906 9.367188 C 6.128906 9.378906 6 9.386719 5.875 9.386719 C 5.78125 9.386719 5.691406 9.382812 5.601562 9.375 C 5.472656 9.367188 5.347656 9.351562 5.222656 9.332031 C 5.09375 9.308594 4.972656 9.285156 4.847656 9.25 C 4.726562 9.21875 4.605469 9.179688 4.484375 9.136719 C 4.367188 9.089844 4.25 9.042969 4.136719 8.984375 C 4.023438 8.929688 3.914062 8.867188 3.804688 8.800781 C 3.699219 8.734375 3.59375 8.664062 3.492188 8.589844 C 3.394531 8.511719 3.296875 8.429688 3.207031 8.347656 C 3.113281 8.261719 3.027344 8.171875 2.945312 8.074219 C 2.863281 7.984375 2.785156 7.886719 2.714844 7.785156 C 2.640625 7.683594 2.578125 7.578125 2.515625 7.472656 C 2.464844 7.382812 2.421875 7.292969 2.378906 7.199219 Z M 2.378906 7.199219 "/>
<path style=" stroke:none;fill-rule:evenodd;fill:rgb(70.588235%,48.235294%,70.980392%);fill-opacity:1;" d="M 2.378906 7.199219 C 2.421875 7.292969 2.464844 7.382812 2.515625 7.472656 C 2.578125 7.578125 2.640625 7.683594 2.714844 7.785156 C 2.785156 7.886719 2.863281 7.984375 2.945312 8.074219 C 3.027344 8.171875 3.113281 8.261719 3.207031 8.347656 C 3.296875 8.429688 3.394531 8.511719 3.492188 8.589844 C 3.59375 8.664062 3.699219 8.734375 3.804688 8.800781 C 3.914062 8.867188 4.023438 8.929688 4.136719 8.984375 C 4.25 9.042969 4.367188 9.089844 4.484375 9.136719 C 4.605469 9.179688 4.726562 9.21875 4.847656 9.25 C 4.972656 9.285156 5.09375 9.308594 5.222656 9.332031 C 5.347656 9.351562 5.472656 9.367188 5.601562 9.375 C 5.691406 9.382812 5.78125 9.386719 5.875 9.386719 C 6 9.386719 6.128906 9.378906 6.253906 9.367188 C 6.382812 9.355469 6.507812 9.335938 6.632812 9.3125 C 6.757812 9.285156 6.882812 9.257812 7.003906 9.222656 C 7.125 9.183594 7.246094 9.144531 7.363281 9.09375 C 7.480469 9.046875 7.59375 8.992188 7.707031 8.933594 C 7.816406 8.875 7.925781 8.8125 8.035156 8.742188 C 8.136719 8.675781 8.238281 8.597656 8.335938 8.519531 C 8.433594 8.441406 8.527344 8.355469 8.617188 8.269531 C 8.707031 8.183594 8.789062 8.089844 8.871094 7.996094 C 8.949219 7.898438 9.023438 7.800781 9.09375 7.695312 C 9.160156 7.59375 9.222656 7.488281 9.28125 7.378906 C 9.339844 7.269531 9.394531 7.15625 9.441406 7.042969 C 9.484375 6.925781 9.523438 6.808594 9.558594 6.691406 C 9.59375 6.574219 9.621094 6.453125 9.644531 6.332031 C 9.664062 6.210938 9.679688 6.089844 9.691406 5.96875 C 9.695312 5.882812 9.699219 5.796875 9.699219 5.710938 C 9.699219 5.585938 9.691406 5.464844 9.679688 5.34375 C 9.667969 5.21875 9.648438 5.097656 9.621094 4.976562 C 9.597656 4.859375 9.566406 4.738281 9.527344 4.621094 C 9.488281 4.503906 9.445312 4.390625 9.394531 4.277344 C 9.347656 4.164062 9.292969 4.054688 9.230469 3.949219 C 9.167969 3.839844 9.101562 3.734375 9.03125 3.632812 C 8.957031 3.53125 8.878906 3.433594 8.796875 3.339844 C 8.714844 3.246094 8.628906 3.15625 8.539062 3.074219 C 8.445312 2.988281 8.351562 2.90625 8.25 2.828125 C 8.152344 2.753906 8.046875 2.683594 7.9375 2.617188 C 7.832031 2.550781 7.71875 2.488281 7.605469 2.433594 C 7.535156 2.398438 7.464844 2.367188 7.390625 2.339844 C 4.832031 2.769531 2.886719 4.671875 2.378906 7.199219 Z M 2.378906 7.199219 "/>
</g>
</svg>
