<?xml version="1.0" encoding="UTF-8"?>
<svg xmlns="http://www.w3.org/2000/svg" xmlns:xlink="http://www.w3.org/1999/xlink" width="36pt" height="36pt" viewBox="0 0 36 36" version="1.1">
<g id="surface1">
<path style=" stroke:none;fill-rule:evenodd;fill:rgb(0%,49.411765%,100%);fill-opacity:1;" d="M 8.40625 2.136719 L 27.59375 2.136719 C 31.054688 2.136719 33.863281 4.945312 33.863281 8.40625 L 33.863281 27.59375 C 33.863281 31.054688 31.054688 33.863281 27.59375 33.863281 L 8.40625 33.863281 C 4.945312 33.863281 2.136719 31.054688 2.136719 27.59375 L 2.136719 8.40625 C 2.136719 4.945312 4.945312 2.136719 8.40625 2.136719 Z M 8.40625 2.136719 "/>
<path style=" stroke:none;fill-rule:nonzero;fill:rgb(94.901961%,94.901961%,94.901961%);fill-opacity:1;" d="M 17.757812 8.113281 C 16.71875 8.113281 15.679688 8.175781 14.703125 8.308594 C 13.261719 8.503906 11.921875 8.839844 10.707031 9.363281 C 9.316406 9.9375 8.316406 10.753906 7.972656 11.628906 C 7.777344 12.144531 7.828125 12.148438 7.816406 12.230469 C 7.804688 12.3125 7.800781 12.359375 7.792969 12.402344 C 7.742188 12.785156 7.761719 13.164062 7.773438 13.527344 C 8.453125 17.179688 9.957031 21.425781 11.996094 23.972656 C 12.605469 24.707031 13.074219 25.195312 13.894531 25.839844 C 14.703125 26.472656 15.496094 26.960938 16.488281 27.4375 C 16.59375 27.488281 16.695312 27.535156 16.78125 27.574219 C 16.824219 27.59375 16.859375 27.613281 16.910156 27.636719 C 16.9375 27.644531 16.960938 27.65625 17.019531 27.679688 C 17.046875 27.691406 17.082031 27.707031 17.164062 27.734375 C 17.207031 27.75 17.253906 27.765625 17.359375 27.792969 C 17.410156 27.804688 17.574219 27.839844 17.574219 27.839844 C 17.574219 27.839844 18.078125 27.886719 18.078125 27.886719 C 18.078125 27.886719 18.59375 27.839844 18.707031 27.816406 C 18.820312 27.789062 18.886719 27.769531 18.941406 27.753906 C 19.046875 27.71875 19.09375 27.699219 19.136719 27.683594 C 19.222656 27.648438 19.261719 27.628906 19.300781 27.613281 C 19.378906 27.578125 19.4375 27.546875 19.503906 27.515625 C 19.632812 27.453125 19.78125 27.378906 19.9375 27.296875 C 20.992188 26.839844 21.929688 26.03125 22.78125 25.394531 C 23.003906 25.199219 23.171875 25.027344 23.417969 24.777344 L 23.421875 24.773438 C 26.386719 21.738281 27.691406 17.78125 28.214844 13.527344 C 28.308594 12.792969 28.117188 12.011719 28.011719 11.628906 C 27.714844 10.707031 27.054688 10.320312 26.335938 9.882812 C 26.011719 9.703125 25.660156 9.527344 25.28125 9.363281 C 24.066406 8.839844 22.726562 8.503906 21.28125 8.308594 C 20.226562 8.164062 19.089844 8.105469 17.964844 8.117188 C 17.898438 8.113281 17.828125 8.113281 17.757812 8.113281 Z M 17.757812 8.113281 "/>
<path style=" stroke:none;fill-rule:nonzero;fill:rgb(0%,52.941176%,85.882353%);fill-opacity:1;" d="M 17.765625 10.9375 C 16.839844 10.9375 15.90625 10.996094 15.089844 11.105469 C 13.855469 11.273438 12.746094 11.5625 11.832031 11.957031 C 11.3125 12.179688 10.65625 12.546875 10.621094 12.636719 C 10.613281 12.664062 10.59375 12.910156 10.585938 13.179688 C 10.65625 13.75 10.738281 14.304688 10.835938 14.84375 C 10.882812 15.179688 11.019531 15.851562 11.152344 16.375 C 11.339844 17.113281 11.460938 17.367188 11.769531 17.671875 C 11.957031 17.859375 12.097656 17.957031 12.378906 18.097656 C 12.785156 18.296875 13.261719 18.429688 14.125 18.578125 C 14.660156 18.671875 15.164062 18.792969 15.585938 18.929688 C 18.261719 19.789062 20.621094 21.722656 20.738281 23.160156 C 20.746094 23.257812 20.753906 23.351562 20.761719 23.367188 C 20.777344 23.417969 20.945312 23.269531 21.40625 22.796875 C 23.8125 20.335938 24.933594 17.097656 25.414062 13.179688 C 25.40625 12.910156 25.386719 12.664062 25.378906 12.636719 C 25.34375 12.546875 24.6875 12.179688 24.167969 11.957031 C 23.253906 11.5625 22.144531 11.273438 20.910156 11.105469 C 20.023438 10.984375 19 10.929688 18 10.941406 C 17.921875 10.9375 17.84375 10.9375 17.765625 10.9375 Z M 13.269531 19.492188 C 13.105469 19.492188 12.976562 19.5 12.90625 19.519531 C 12.847656 19.539062 12.757812 19.589844 12.710938 19.636719 C 12.582031 19.769531 12.601562 19.882812 12.820312 20.246094 C 13.21875 20.910156 13.707031 21.601562 14.175781 22.167969 C 14.46875 22.519531 15.332031 23.371094 15.648438 23.617188 C 16.34375 24.164062 16.828125 24.464844 17.722656 24.894531 C 17.914062 24.984375 18.078125 25.0625 18.085938 25.0625 C 18.125 25.0625 19.128906 24.546875 19.382812 24.394531 C 19.824219 24.132812 20.164062 23.898438 20.25 23.800781 C 20.296875 23.75 20.359375 23.648438 20.394531 23.574219 C 20.519531 23.304688 20.464844 22.945312 20.25 22.578125 C 19.503906 21.320312 17.125 20.066406 14.679688 19.636719 C 14.167969 19.546875 13.628906 19.496094 13.269531 19.492188 Z M 13.269531 19.492188 "/>
<path style=" stroke:none;fill-rule:nonzero;fill:rgb(90.196078%,90.196078%,90.196078%);fill-opacity:1;" d="M 14.941406 10.949219 C 14.941406 13.363281 12.984375 15.316406 10.574219 15.316406 C 8.160156 15.316406 6.207031 13.363281 6.207031 10.949219 C 6.207031 8.539062 8.160156 6.585938 10.574219 6.585938 C 12.984375 6.585938 14.941406 8.539062 14.941406 10.949219 Z M 14.941406 10.949219 "/>
<path style=" stroke:none;fill-rule:nonzero;fill:rgb(30.980392%,30.980392%,30.980392%);fill-opacity:1;" d="M 13.191406 10.949219 C 13.191406 12.398438 12.019531 13.570312 10.574219 13.570312 C 9.125 13.570312 7.953125 12.398438 7.953125 10.949219 C 7.953125 9.503906 9.125 8.332031 10.574219 8.332031 C 12.019531 8.332031 13.191406 9.503906 13.191406 10.949219 Z M 13.191406 10.949219 "/>
</g>
</svg>
