<?xml version="1.0" encoding="UTF-8"?>
<svg xmlns="http://www.w3.org/2000/svg" xmlns:xlink="http://www.w3.org/1999/xlink" width="36pt" height="36pt" viewBox="0 0 36 36" version="1.1">
<g id="surface1">
<path style=" stroke:none;fill-rule:evenodd;fill:rgb(21.568627%,62.745098%,94.901961%);fill-opacity:1;" d="M 8.40625 2.136719 L 27.59375 2.136719 C 31.054688 2.136719 33.863281 4.945312 33.863281 8.40625 L 33.863281 27.59375 C 33.863281 31.054688 31.054688 33.863281 27.59375 33.863281 L 8.40625 33.863281 C 4.945312 33.863281 2.136719 31.054688 2.136719 27.59375 L 2.136719 8.40625 C 2.136719 4.945312 4.945312 2.136719 8.40625 2.136719 Z M 8.40625 2.136719 "/>
<path style=" stroke:none;fill-rule:evenodd;fill:rgb(100%,100%,100%);fill-opacity:1;" d="M 17.824219 7.3125 C 17.246094 7.3125 16.773438 7.78125 16.773438 8.363281 C 16.773438 8.648438 16.890625 8.917969 17.09375 9.117188 L 15.820312 11.871094 C 15.789062 11.871094 15.753906 11.867188 15.722656 11.867188 C 15.40625 11.867188 15.109375 12.011719 14.910156 12.257812 L 11.9375 11.195312 C 11.925781 10.929688 11.816406 10.679688 11.632812 10.496094 C 11.21875 10.082031 10.554688 10.082031 10.144531 10.496094 C 9.734375 10.90625 9.734375 11.570312 10.144531 11.980469 C 10.332031 12.167969 10.582031 12.277344 10.84375 12.289062 L 11.90625 15.257812 C 11.660156 15.457031 11.519531 15.757812 11.515625 16.070312 L 10.816406 16.070312 L 10.03125 16.167969 L 7.3125 16.492188 L 7.3125 19.859375 L 10.027344 20.183594 C 10.214844 20.914062 10.507812 21.617188 10.890625 22.269531 L 9.203125 24.421875 L 11.582031 26.796875 L 13.730469 25.109375 C 14.382812 25.492188 15.085938 25.78125 15.816406 25.972656 L 16.140625 28.6875 L 19.507812 28.6875 L 19.832031 25.972656 C 20.566406 25.785156 21.265625 25.492188 21.917969 25.109375 L 24.070312 26.796875 L 26.445312 24.417969 L 24.757812 22.265625 L 24.269531 21.644531 L 23.730469 21.105469 C 23.984375 20.90625 24.132812 20.601562 24.132812 20.277344 C 24.132812 20.246094 24.128906 20.210938 24.125 20.179688 L 26.882812 18.90625 C 27.078125 19.109375 27.351562 19.226562 27.636719 19.226562 C 28.21875 19.226562 28.6875 18.753906 28.6875 18.175781 C 28.6875 17.59375 28.21875 17.125 27.636719 17.125 C 27.351562 17.125 27.082031 17.238281 26.882812 17.441406 L 24.125 16.171875 C 24.128906 16.136719 24.132812 16.105469 24.132812 16.070312 C 24.132812 15.757812 23.988281 15.457031 23.746094 15.257812 L 24.804688 12.285156 C 25.070312 12.277344 25.320312 12.167969 25.503906 11.980469 C 25.914062 11.570312 25.914062 10.90625 25.503906 10.496094 C 25.09375 10.082031 24.429688 10.082031 24.019531 10.496094 C 23.832031 10.679688 23.722656 10.929688 23.710938 11.195312 L 20.742188 12.253906 C 20.542969 12.011719 20.242188 11.867188 19.925781 11.867188 C 19.894531 11.867188 19.863281 11.871094 19.832031 11.871094 L 18.558594 9.117188 C 18.761719 8.917969 18.875 8.648438 18.875 8.363281 C 18.875 7.78125 18.40625 7.3125 17.824219 7.3125 Z M 17.921875 9.410156 L 19.195312 12.164062 C 19.078125 12.277344 18.992188 12.414062 18.9375 12.566406 L 16.710938 12.566406 C 16.65625 12.414062 16.570312 12.277344 16.453125 12.164062 L 17.726562 9.410156 C 17.757812 9.414062 17.792969 9.414062 17.824219 9.414062 C 17.855469 9.414062 17.890625 9.414062 17.921875 9.410156 Z M 11.730469 11.863281 L 14.671875 12.914062 C 14.671875 12.917969 14.671875 12.917969 14.671875 12.917969 C 14.671875 13.074219 14.707031 13.230469 14.773438 13.371094 L 13.019531 15.125 C 12.878906 15.058594 12.726562 15.019531 12.570312 15.019531 C 12.566406 15.019531 12.566406 15.019531 12.566406 15.019531 L 11.515625 12.078125 C 11.554688 12.050781 11.59375 12.015625 11.632812 11.980469 C 11.667969 11.945312 11.699219 11.90625 11.730469 11.863281 Z M 23.921875 11.863281 C 23.949219 11.90625 23.984375 11.945312 24.019531 11.980469 C 24.054688 12.015625 24.09375 12.050781 24.136719 12.082031 L 23.082031 15.019531 C 22.925781 15.019531 22.769531 15.058594 22.628906 15.125 L 20.875 13.371094 C 20.941406 13.230469 20.976562 13.074219 20.980469 12.917969 C 20.980469 12.917969 20.980469 12.917969 20.980469 12.914062 Z M 16.710938 13.269531 L 18.9375 13.269531 C 19.085938 13.6875 19.480469 13.96875 19.925781 13.96875 C 20.085938 13.96875 20.238281 13.933594 20.378906 13.867188 L 22.132812 15.621094 C 22.066406 15.761719 22.03125 15.914062 22.03125 16.070312 C 22.03125 16.515625 22.3125 16.914062 22.730469 17.0625 L 22.730469 19.289062 C 22.3125 19.4375 22.03125 19.832031 22.03125 20.277344 C 22.03125 20.523438 22.117188 20.765625 22.277344 20.953125 C 21.320312 22.492188 19.636719 23.425781 17.824219 23.429688 C 14.921875 23.429688 12.570312 21.078125 12.570312 18.175781 C 12.570312 17.820312 12.605469 17.464844 12.679688 17.117188 C 13.214844 17.058594 13.621094 16.609375 13.621094 16.070312 C 13.621094 15.914062 13.585938 15.761719 13.515625 15.617188 L 15.269531 13.867188 C 15.410156 13.933594 15.566406 13.96875 15.722656 13.96875 C 16.167969 13.96875 16.5625 13.6875 16.710938 13.269531 Z M 23.832031 16.804688 L 26.589844 18.078125 C 26.585938 18.109375 26.585938 18.140625 26.585938 18.175781 C 26.585938 18.207031 26.585938 18.238281 26.589844 18.273438 L 23.835938 19.542969 C 23.722656 19.429688 23.582031 19.339844 23.429688 19.289062 L 23.429688 17.0625 C 23.582031 17.007812 23.71875 16.917969 23.832031 16.804688 Z M 23.832031 16.804688 "/>
</g>
</svg>
