<?xml version="1.0" encoding="UTF-8"?>
<svg xmlns="http://www.w3.org/2000/svg" xmlns:xlink="http://www.w3.org/1999/xlink" width="36pt" height="36pt" viewBox="0 0 36 36" version="1.1">
<g id="surface1">
<path style=" stroke:none;fill-rule:evenodd;fill:rgb(0%,49.411765%,100%);fill-opacity:1;" d="M 8.40625 2.136719 L 27.59375 2.136719 C 31.054688 2.136719 33.863281 4.945312 33.863281 8.40625 L 33.863281 27.59375 C 33.863281 31.054688 31.054688 33.863281 27.59375 33.863281 L 8.40625 33.863281 C 4.945312 33.863281 2.136719 31.054688 2.136719 27.59375 L 2.136719 8.40625 C 2.136719 4.945312 4.945312 2.136719 8.40625 2.136719 Z M 8.40625 2.136719 "/>
<path style=" stroke:none;fill-rule:nonzero;fill:rgb(60%,60%,60%);fill-opacity:1;" d="M 13.71875 21.886719 L 22.714844 21.886719 L 22.714844 28.964844 L 13.71875 28.964844 Z M 13.71875 21.886719 "/>
<path style=" stroke:none;fill-rule:nonzero;fill:rgb(30.196078%,30.196078%,30.196078%);fill-opacity:1;" d="M 13.523438 8.511719 L 22.90625 8.511719 C 24.019531 8.511719 24.925781 9.414062 24.925781 10.53125 L 24.925781 21.296875 C 24.925781 22.414062 24.019531 23.316406 22.90625 23.316406 L 13.523438 23.316406 C 12.410156 23.316406 11.507812 22.414062 11.507812 21.296875 L 11.507812 10.53125 C 11.507812 9.414062 12.410156 8.511719 13.523438 8.511719 Z M 13.523438 8.511719 "/>
<path style=" stroke:none;fill-rule:nonzero;fill:rgb(30.196078%,30.196078%,30.196078%);fill-opacity:1;" d="M 15.140625 26.3125 L 17.539062 26.3125 L 17.539062 27.675781 L 15.140625 27.675781 Z M 15.140625 26.3125 "/>
<path style=" stroke:none;fill-rule:nonzero;fill:rgb(30.196078%,30.196078%,30.196078%);fill-opacity:1;" d="M 18.894531 26.3125 L 21.289062 26.3125 L 21.289062 27.675781 L 18.894531 27.675781 Z M 18.894531 26.3125 "/>
</g>
</svg>
