<?xml version="1.0" encoding="UTF-8"?>
<svg xmlns="http://www.w3.org/2000/svg" xmlns:xlink="http://www.w3.org/1999/xlink" width="36pt" height="36pt" viewBox="0 0 36 36" version="1.1">
<g id="surface1">
<path style=" stroke:none;fill-rule:evenodd;fill:rgb(0%,49.411765%,100%);fill-opacity:1;" d="M 8.40625 2.136719 L 27.59375 2.136719 C 31.054688 2.136719 33.863281 4.945312 33.863281 8.40625 L 33.863281 27.59375 C 33.863281 31.054688 31.054688 33.863281 27.59375 33.863281 L 8.40625 33.863281 C 4.945312 33.863281 2.136719 31.054688 2.136719 27.59375 L 2.136719 8.40625 C 2.136719 4.945312 4.945312 2.136719 8.40625 2.136719 Z M 8.40625 2.136719 "/>
<path style=" stroke:none;fill-rule:nonzero;fill:rgb(100%,100%,100%);fill-opacity:1;" d="M 17.675781 30.578125 C 17.503906 30.457031 17.28125 30.296875 17.175781 30.222656 L 16.980469 30.085938 L 16.980469 28.421875 C 16.980469 27.507812 16.964844 26.75 16.945312 26.738281 C 16.910156 26.714844 16.917969 26.710938 15.875 27.339844 L 15.136719 27.78125 L 14.710938 27.5 L 14.28125 27.222656 L 14.28125 25.996094 L 14.71875 25.746094 C 14.960938 25.609375 15.34375 25.390625 15.566406 25.261719 C 16.089844 24.960938 16.144531 24.929688 16.601562 24.667969 L 16.980469 24.453125 L 16.980469 23.355469 C 16.980469 22.585938 16.964844 22.253906 16.933594 22.253906 C 16.910156 22.253906 16.675781 22.386719 16.414062 22.546875 C 16.152344 22.707031 15.863281 22.882812 15.773438 22.9375 C 15.683594 22.992188 15.441406 23.136719 15.242188 23.257812 L 14.871094 23.476562 L 14.863281 22.367188 C 14.855469 21.753906 14.832031 21.238281 14.8125 21.21875 C 14.789062 21.195312 14.722656 21.214844 14.640625 21.261719 C 14.566406 21.308594 14.09375 21.550781 13.59375 21.804688 L 12.683594 22.265625 L 12.671875 23.882812 L 12.664062 25.5 L 12.253906 25.796875 C 12.027344 25.960938 11.832031 26.097656 11.8125 26.097656 C 11.796875 26.097656 11.628906 25.976562 11.4375 25.824219 L 11.089844 25.550781 L 11.089844 24.496094 C 11.089844 23.84375 11.074219 23.441406 11.046875 23.441406 C 11.027344 23.441406 10.839844 23.539062 10.628906 23.660156 C 10.421875 23.777344 9.925781 24.058594 9.535156 24.277344 C 8.589844 24.808594 8.523438 24.847656 8.3125 24.964844 L 8.132812 25.066406 L 7.921875 24.992188 C 7.808594 24.953125 7.511719 24.835938 7.265625 24.738281 L 6.8125 24.554688 L 6.800781 23.898438 L 6.792969 23.242188 L 6.90625 23.164062 C 6.96875 23.117188 7.121094 23.027344 7.242188 22.960938 C 7.367188 22.890625 7.671875 22.722656 7.917969 22.582031 C 8.164062 22.4375 8.441406 22.28125 8.53125 22.230469 C 8.675781 22.152344 9.300781 21.796875 9.632812 21.601562 C 9.699219 21.566406 9.757812 21.515625 9.765625 21.496094 C 9.773438 21.472656 9.425781 21.289062 8.992188 21.089844 C 8.5625 20.886719 8.132812 20.679688 8.042969 20.632812 L 7.878906 20.542969 L 7.878906 19.296875 L 8.425781 18.996094 C 8.742188 18.816406 9 18.703125 9.035156 18.714844 C 9.09375 18.738281 9.824219 19.167969 10.984375 19.859375 C 11.253906 20.023438 11.550781 20.195312 11.644531 20.246094 L 11.808594 20.339844 L 12.738281 19.792969 C 13.246094 19.492188 13.664062 19.234375 13.664062 19.21875 C 13.664062 19.191406 12.921875 18.746094 12.121094 18.289062 C 11.914062 18.171875 11.742188 18.0625 11.742188 18.046875 C 11.742188 18.035156 11.875 17.941406 12.039062 17.84375 C 12.203125 17.746094 12.492188 17.570312 12.683594 17.449219 C 12.875 17.328125 13.148438 17.160156 13.292969 17.070312 C 13.4375 16.980469 13.5625 16.890625 13.570312 16.871094 C 13.585938 16.828125 13.441406 16.738281 12.515625 16.222656 C 12.183594 16.035156 11.875 15.855469 11.820312 15.820312 C 11.71875 15.75 11.675781 15.765625 11.085938 16.117188 C 10.988281 16.179688 10.730469 16.328125 10.515625 16.453125 C 10.300781 16.578125 9.871094 16.832031 9.558594 17.011719 C 9.25 17.195312 8.96875 17.347656 8.941406 17.347656 C 8.910156 17.347656 8.65625 17.234375 8.371094 17.097656 L 7.855469 16.851562 L 7.878906 15.65625 L 8.066406 15.542969 C 8.171875 15.480469 8.335938 15.386719 8.433594 15.332031 C 9.449219 14.765625 9.738281 14.589844 9.730469 14.558594 C 9.722656 14.535156 9.550781 14.429688 9.347656 14.324219 C 9.148438 14.214844 8.851562 14.058594 8.695312 13.972656 C 8.539062 13.886719 8.261719 13.738281 8.082031 13.640625 C 7.902344 13.546875 7.542969 13.351562 7.285156 13.207031 L 6.8125 12.949219 L 6.8125 11.605469 L 8.0625 11.035156 L 8.277344 11.152344 C 8.394531 11.214844 8.90625 11.496094 9.410156 11.777344 C 10.640625 12.457031 10.988281 12.644531 11.042969 12.644531 C 11.074219 12.644531 11.085938 12.332031 11.085938 11.605469 L 11.085938 10.570312 L 11.199219 10.46875 C 11.261719 10.410156 11.4375 10.269531 11.589844 10.152344 L 11.867188 9.9375 L 12.019531 10.027344 C 12.101562 10.078125 12.335938 10.222656 12.535156 10.34375 L 12.898438 10.570312 L 12.867188 12.210938 L 12.839844 13.847656 L 12.996094 13.933594 C 13.230469 14.0625 13.960938 14.480469 14.402344 14.738281 C 14.613281 14.863281 14.804688 14.957031 14.820312 14.945312 C 14.835938 14.9375 14.851562 14.421875 14.851562 13.800781 C 14.851562 12.746094 14.855469 12.675781 14.921875 12.703125 C 14.960938 12.71875 15.34375 12.917969 15.769531 13.152344 C 16.6875 13.648438 16.878906 13.746094 16.933594 13.746094 C 16.964844 13.746094 16.976562 13.382812 16.976562 12.648438 L 16.976562 11.546875 L 16.597656 11.332031 C 16.390625 11.214844 16.164062 11.085938 16.097656 11.046875 C 16.03125 11.007812 15.78125 10.863281 15.546875 10.726562 C 15.308594 10.589844 14.929688 10.371094 14.699219 10.242188 L 14.277344 10.003906 L 14.277344 8.777344 L 15.136719 8.222656 L 15.871094 8.664062 C 16.917969 9.289062 16.910156 9.285156 16.945312 9.261719 C 16.960938 9.253906 16.976562 8.496094 16.980469 7.578125 L 16.980469 5.914062 L 17.175781 5.78125 C 17.28125 5.707031 17.507812 5.546875 17.683594 5.421875 L 18 5.199219 L 18.511719 5.558594 L 19.019531 5.914062 L 19.023438 7.578125 C 19.023438 8.496094 19.039062 9.253906 19.058594 9.265625 C 19.078125 9.277344 19.195312 9.234375 19.3125 9.171875 C 19.433594 9.109375 19.753906 8.941406 20.023438 8.800781 C 20.292969 8.65625 20.648438 8.46875 20.8125 8.378906 L 21.109375 8.21875 L 22.234375 8.828125 L 22.257812 9.9375 L 20.640625 10.746094 L 19.023438 11.550781 L 19.023438 12.648438 C 19.023438 13.429688 19.035156 13.746094 19.066406 13.746094 C 19.09375 13.746094 19.363281 13.605469 19.671875 13.433594 C 19.976562 13.261719 20.332031 13.066406 20.453125 12.996094 C 20.578125 12.929688 20.78125 12.8125 20.902344 12.742188 L 21.128906 12.609375 L 21.140625 13.742188 C 21.144531 14.363281 21.160156 14.894531 21.167969 14.925781 C 21.183594 14.964844 21.503906 14.820312 22.253906 14.433594 L 23.316406 13.890625 L 23.316406 10.402344 L 23.699219 10.171875 L 24.082031 9.945312 L 24.910156 10.398438 L 24.910156 11.5 C 24.910156 12.269531 24.925781 12.601562 24.957031 12.601562 C 24.996094 12.601562 25.980469 12.097656 26.078125 12.03125 C 26.101562 12.011719 26.292969 11.90625 26.507812 11.792969 C 26.722656 11.683594 27.0625 11.503906 27.265625 11.394531 C 27.464844 11.289062 27.71875 11.152344 27.828125 11.09375 L 28.023438 10.984375 L 28.238281 11.105469 C 28.355469 11.167969 28.621094 11.320312 28.828125 11.445312 L 29.207031 11.667969 L 29.199219 12.28125 L 29.1875 12.898438 L 28.898438 13.0625 C 28.742188 13.152344 28.558594 13.257812 28.492188 13.296875 C 28.421875 13.335938 28.164062 13.480469 27.917969 13.625 C 27.671875 13.765625 27.375 13.933594 27.265625 13.996094 C 27.152344 14.0625 26.890625 14.210938 26.679688 14.328125 C 26.472656 14.441406 26.304688 14.550781 26.304688 14.5625 C 26.304688 14.574219 26.535156 14.714844 26.820312 14.871094 C 27.101562 15.027344 27.457031 15.226562 27.605469 15.3125 C 27.753906 15.398438 27.9375 15.496094 28.011719 15.527344 L 28.144531 15.589844 L 28.144531 16.808594 L 27.726562 17.019531 C 27.496094 17.136719 27.273438 17.253906 27.234375 17.28125 C 27.175781 17.316406 27.136719 17.308594 27.046875 17.257812 C 26.988281 17.21875 26.78125 17.097656 26.589844 16.988281 C 26.398438 16.878906 25.964844 16.625 25.628906 16.425781 C 24.277344 15.636719 24.316406 15.65625 24.207031 15.714844 C 24.117188 15.761719 23.390625 16.234375 22.714844 16.683594 C 22.320312 16.945312 22.277344 16.867188 23.070312 17.363281 C 24.058594 17.988281 24.21875 18.09375 24.1875 18.125 C 24.171875 18.144531 23.84375 18.335938 23.460938 18.554688 C 22.441406 19.132812 22.285156 19.234375 22.320312 19.269531 C 22.339844 19.289062 22.792969 19.527344 23.328125 19.800781 L 24.296875 20.296875 L 24.777344 20.035156 C 25.042969 19.890625 25.527344 19.625 25.851562 19.445312 C 26.179688 19.265625 26.605469 19.03125 26.804688 18.925781 L 27.160156 18.734375 L 28.144531 19.359375 L 28.144531 20.492188 L 27.96875 20.589844 C 27.875 20.644531 27.488281 20.859375 27.109375 21.074219 C 26.734375 21.285156 26.433594 21.476562 26.441406 21.496094 C 26.453125 21.535156 27.214844 22.015625 28.246094 22.628906 C 28.515625 22.789062 28.84375 22.992188 28.972656 23.082031 L 29.207031 23.238281 L 29.207031 24.492188 L 28.890625 24.628906 C 28.714844 24.703125 28.425781 24.824219 28.246094 24.902344 C 28.066406 24.980469 27.890625 25.042969 27.859375 25.046875 C 27.808594 25.050781 25.546875 23.832031 25.101562 23.558594 C 25.03125 23.515625 24.960938 23.480469 24.941406 23.480469 C 24.925781 23.480469 24.910156 23.957031 24.910156 24.539062 L 24.910156 25.59375 L 24.539062 25.871094 C 24.113281 26.191406 24.175781 26.195312 23.65625 25.835938 L 23.316406 25.601562 L 23.308594 23.980469 L 23.296875 22.359375 L 23.195312 22.308594 C 23.136719 22.277344 22.808594 22.101562 22.457031 21.914062 C 21.324219 21.300781 21.199219 21.238281 21.171875 21.261719 C 21.160156 21.273438 21.148438 21.761719 21.148438 22.347656 L 21.148438 23.410156 L 21.050781 23.34375 C 20.996094 23.308594 20.855469 23.226562 20.734375 23.160156 C 20.613281 23.09375 20.441406 23 20.351562 22.949219 C 19.636719 22.542969 19.105469 22.253906 19.066406 22.253906 C 19.035156 22.253906 19.023438 22.574219 19.023438 23.355469 L 19.023438 24.453125 L 19.402344 24.667969 C 19.847656 24.921875 19.902344 24.953125 20.421875 25.253906 C 20.644531 25.382812 21 25.589844 21.222656 25.714844 C 21.441406 25.839844 21.644531 25.960938 21.671875 25.984375 C 21.710938 26.019531 21.722656 26.191406 21.710938 26.683594 L 21.703125 27.335938 L 20.859375 27.78125 L 19.972656 27.25 C 19.484375 26.957031 19.074219 26.726562 19.054688 26.738281 C 19.035156 26.75 19.023438 27.507812 19.023438 28.421875 L 19.019531 30.085938 L 18.828125 30.222656 C 18.136719 30.707031 17.996094 30.800781 17.988281 30.800781 C 17.984375 30.796875 17.839844 30.695312 17.671875 30.578125 Z M 19.261719 19.207031 C 19.371094 19.003906 19.550781 18.664062 19.667969 18.449219 L 19.878906 18.058594 L 19.53125 17.40625 C 19.34375 17.046875 19.148438 16.675781 19.097656 16.582031 L 19.007812 16.410156 L 18.121094 16.398438 C 17.636719 16.390625 17.207031 16.390625 17.167969 16.398438 C 17.132812 16.40625 17.058594 16.488281 17.003906 16.582031 C 16.949219 16.675781 16.75 17.03125 16.554688 17.371094 C 16.359375 17.710938 16.203125 18.011719 16.203125 18.042969 C 16.203125 18.085938 16.65625 18.828125 17.058594 19.441406 L 17.15625 19.597656 L 19.070312 19.574219 Z M 19.261719 19.207031 "/>
</g>
</svg>
