<?xml version="1.0" encoding="UTF-8"?>
<svg xmlns="http://www.w3.org/2000/svg" xmlns:xlink="http://www.w3.org/1999/xlink" width="36pt" height="36pt" viewBox="0 0 36 36" version="1.1">
<g id="surface1">
<path style=" stroke:none;fill-rule:evenodd;fill:rgb(45.882353%,66.666667%,85.882353%);fill-opacity:1;" d="M 8.40625 2.136719 L 27.59375 2.136719 C 31.054688 2.136719 33.863281 4.945312 33.863281 8.40625 L 33.863281 27.59375 C 33.863281 31.054688 31.054688 33.863281 27.59375 33.863281 L 8.40625 33.863281 C 4.945312 33.863281 2.136719 31.054688 2.136719 27.59375 L 2.136719 8.40625 C 2.136719 4.945312 4.945312 2.136719 8.40625 2.136719 Z M 8.40625 2.136719 "/>
<path style=" stroke:none;fill-rule:nonzero;fill:rgb(100%,100%,100%);fill-opacity:1;" d="M 14.0625 19.125 L 17.382812 19.125 C 18.515625 19.53125 21.003906 23.253906 22.355469 25.875 L 24.148438 25.875 C 25.3125 25.875 26.4375 25.875 26.4375 24.75 C 26.4375 23.625 25.3125 23.625 24.148438 23.625 L 23.800781 23.625 C 22.664062 21.816406 21.664062 20.121094 20.394531 19.011719 C 22.367188 17.933594 23.0625 16.890625 23.0625 15.1875 C 23.0625 12.351562 20.882812 10.125 17.371094 10.125 L 11.347656 10.125 C 10.6875 10.125 9.5625 10.125 9.5625 11.25 C 9.5625 12.375 10.6875 12.375 11.8125 12.375 L 11.8125 23.621094 L 11.347656 23.621094 C 10.6875 23.625 9.5625 23.625 9.5625 24.75 C 9.566406 25.875 10.6875 25.875 11.347656 25.875 L 15.398438 25.875 C 16.3125 25.875 17.4375 25.875 17.4375 24.75 C 17.4375 23.625 16.3125 23.625 15.398438 23.625 L 14.0625 23.625 Z M 14.0625 16.875 L 14.0625 12.375 L 17.476562 12.375 C 19.6875 12.375 20.8125 13.5 20.8125 14.851562 C 20.8125 16.875 19.074219 16.875 16.503906 16.875 Z M 14.0625 16.875 "/>
</g>
</svg>
