<?xml version="1.0" encoding="UTF-8"?>
<svg xmlns="http://www.w3.org/2000/svg" xmlns:xlink="http://www.w3.org/1999/xlink" width="36pt" height="36pt" viewBox="0 0 36 36" version="1.1">
<g id="surface1">
<path style=" stroke:none;fill-rule:evenodd;fill:rgb(21.960784%,45.098039%,56.078431%);fill-opacity:1;" d="M 8.40625 2.136719 L 27.59375 2.136719 C 31.054688 2.136719 33.863281 4.945312 33.863281 8.40625 L 33.863281 27.59375 C 33.863281 31.054688 31.054688 33.863281 27.59375 33.863281 L 8.40625 33.863281 C 4.945312 33.863281 2.136719 31.054688 2.136719 27.59375 L 2.136719 8.40625 C 2.136719 4.945312 4.945312 2.136719 8.40625 2.136719 Z M 8.40625 2.136719 "/>
<path style=" stroke:none;fill-rule:nonzero;fill:rgb(100%,100%,100%);fill-opacity:1;" d="M 18 6.207031 C 11.488281 6.207031 6.207031 11.488281 6.207031 18 C 6.207031 24.511719 11.488281 29.792969 18 29.792969 C 24.511719 29.792969 29.792969 24.511719 29.792969 18 C 29.792969 11.488281 24.511719 6.207031 18 6.207031 Z M 18 6.207031 "/>
<path style=" stroke:none;fill-rule:nonzero;fill:rgb(21.960784%,45.098039%,56.078431%);fill-opacity:1;" d="M 14.261719 14.417969 L 16.792969 14.417969 L 16.792969 25.640625 L 15.527344 27.078125 L 14.261719 25.640625 Z M 14.261719 14.417969 "/>
<path style=" stroke:none;fill-rule:nonzero;fill:rgb(21.960784%,45.098039%,56.078431%);fill-opacity:1;" d="M 14.726562 13.574219 L 14.726562 13.578125 C 14.246094 13.582031 13.871094 13.589844 13.429688 13.691406 C 12.976562 13.796875 12.574219 13.882812 12.574219 14.445312 L 13.164062 14.726562 C 13.164062 14.726562 13.472656 14.496094 13.753906 14.445312 C 14.078125 14.390625 14.441406 14.574219 14.726562 14.753906 L 14.726562 15.007812 L 15.949219 15.007812 C 15.949219 15.007812 16.757812 14.355469 17.300781 14.445312 C 17.582031 14.496094 17.890625 14.726562 17.890625 14.726562 L 18.480469 14.445312 C 18.480469 13.882812 18.078125 13.796875 17.625 13.691406 C 17.066406 13.5625 16.675781 13.582031 15.949219 13.574219 Z M 14.726562 13.574219 "/>
<path style=" stroke:none;fill-rule:nonzero;fill:rgb(21.960784%,45.098039%,56.078431%);fill-opacity:1;" d="M 15.949219 10.703125 L 15.949219 14.078125 L 15.105469 14.078125 L 15.105469 10.703125 Z M 15.949219 10.703125 "/>
<path style=" stroke:none;fill-rule:nonzero;fill:rgb(21.960784%,45.098039%,56.078431%);fill-opacity:1;" d="M 16.792969 10.195312 C 16.792969 10.664062 16.226562 11.039062 15.527344 11.039062 C 14.828125 11.039062 14.261719 10.664062 14.261719 10.195312 Z M 16.792969 10.195312 "/>
<path style=" stroke:none;fill-rule:nonzero;fill:rgb(21.960784%,45.098039%,56.078431%);fill-opacity:1;" d="M 14.261719 18.222656 L 15.527344 19.488281 L 14.261719 20.753906 L 12.996094 19.488281 Z M 14.261719 18.222656 "/>
<path style=" stroke:none;fill-rule:nonzero;fill:rgb(21.960784%,45.098039%,56.078431%);fill-opacity:1;" d="M 19.039062 13.574219 C 19.207031 13.828125 19.324219 14.144531 19.324219 14.445312 C 19.324219 14.675781 19.234375 14.894531 19.066406 15.054688 C 19.761719 15.539062 20.171875 16.410156 20.171875 17.273438 C 20.171875 18.871094 19.28125 19.011719 17.636719 19.484375 C 18.625 21.890625 20.585938 24.023438 22.53125 25.125 C 24.1875 26.128906 25.707031 26.832031 27.765625 27.078125 C 25.488281 24.300781 21.945312 23.074219 20.171875 20.328125 C 21.355469 19.707031 22.703125 19.167969 22.703125 17.113281 C 22.703125 15.449219 21.183594 13.574219 20.054688 13.574219 Z M 19.039062 13.574219 "/>
</g>
</svg>
