<?xml version="1.0" encoding="UTF-8"?>
<svg xmlns="http://www.w3.org/2000/svg" xmlns:xlink="http://www.w3.org/1999/xlink" width="36pt" height="36pt" viewBox="0 0 36 36" version="1.1">
<defs>
<clipPath id="clip1">
  <rect width="36" height="36"/>
</clipPath>
<g id="surface6" clip-path="url(#clip1)">
<path style=" stroke:none;fill-rule:nonzero;fill:rgb(100%,100%,100%);fill-opacity:1;" d="M 4.5 18.414062 C 4.5 11.589844 8.027344 8.074219 10.089844 8.074219 C 12.15625 8.074219 12.492188 9.09375 12.492188 10.765625 C 12.492188 14.015625 8.667969 12.683594 8.667969 18.78125 C 8.667969 20.800781 9.550781 23.300781 11.855469 23.300781 C 13.703125 23.300781 14.382812 21.097656 15.320312 17.152344 C 16.875 11.226562 18.449219 6.75 23.761719 6.75 C 28.921875 6.75 31.5 11.089844 31.5 17.914062 C 31.5 24.734375 27.503906 29.078125 25.441406 29.078125 C 23.378906 29.078125 22.847656 28.253906 22.847656 26.578125 C 22.847656 23.328125 27.183594 23.796875 27.183594 17.695312 C 27.183594 15.675781 26.300781 12.699219 23.996094 12.699219 C 22.148438 12.699219 21.492188 12.832031 20.359375 17.152344 C 19.742188 21.769531 18.277344 29.25 12.664062 29.25 C 7.503906 29.25 4.5 25.234375 4.5 18.414062 Z M 4.5 18.414062 "/>
</g>
</defs>
<g id="surface1">
<path style=" stroke:none;fill-rule:evenodd;fill:rgb(90.588235%,29.803922%,23.529412%);fill-opacity:1;" d="M 8.40625 2.136719 L 27.59375 2.136719 C 31.054688 2.136719 33.863281 4.945312 33.863281 8.40625 L 33.863281 27.59375 C 33.863281 31.054688 31.054688 33.863281 27.59375 33.863281 L 8.40625 33.863281 C 4.945312 33.863281 2.136719 31.054688 2.136719 27.59375 L 2.136719 8.40625 C 2.136719 4.945312 4.945312 2.136719 8.40625 2.136719 Z M 8.40625 2.136719 "/>
<use xlink:href="#surface6"/>
</g>
</svg>
