<?xml version="1.0" encoding="UTF-8"?>
<svg xmlns="http://www.w3.org/2000/svg" xmlns:xlink="http://www.w3.org/1999/xlink" width="36pt" height="36pt" viewBox="0 0 36 36" version="1.1">
<defs>
<linearGradient id="linear0" gradientUnits="userSpaceOnUse" x1="-45.121761" y1="-6.136109" x2="-37.529903" y2="-3.40798" gradientTransform="matrix(1.125,0,0,1.125,66.765957,20.181475)">
<stop offset="0" style="stop-color:rgb(100%,100%,100%);stop-opacity:1;"/>
<stop offset="1" style="stop-color:rgb(80%,80%,80%);stop-opacity:1;"/>
</linearGradient>
</defs>
<g id="surface1">
<path style=" stroke:none;fill-rule:evenodd;fill:rgb(21.568627%,62.745098%,94.901961%);fill-opacity:1;" d="M 8.40625 2.148438 L 27.59375 2.148438 C 31.054688 2.148438 33.863281 4.953125 33.863281 8.417969 L 33.863281 27.605469 C 33.863281 31.066406 31.054688 33.875 27.59375 33.875 L 8.40625 33.875 C 4.945312 33.875 2.136719 31.066406 2.136719 27.605469 L 2.136719 8.417969 C 2.136719 4.953125 4.945312 2.148438 8.40625 2.148438 Z M 8.40625 2.148438 "/>
<path style=" stroke:none;fill-rule:evenodd;fill:url(#linear0);" d="M 17.777344 2.125 C 17.164062 3.332031 16.433594 4.535156 15.871094 5.742188 C 14.207031 9.339844 12.792969 12.933594 11.730469 16.515625 C 10.605469 20.347656 9.589844 24.3125 8.601562 28.164062 C 10.210938 28.300781 9.210938 28.15625 10.449219 28.167969 C 11.300781 26.808594 12.324219 25.550781 13.460938 24.40625 C 14.601562 23.257812 15.855469 22.21875 17.164062 21.292969 C 18.476562 20.367188 19.84375 19.558594 21.207031 18.863281 C 22.570312 18.167969 23.929688 17.59375 25.226562 17.144531 C 25.253906 15.179688 25.167969 13.066406 25.273438 11.015625 C 25.324219 9.992188 25.421875 8.980469 25.605469 8.011719 C 25.789062 7.042969 26.058594 6.117188 26.449219 5.253906 C 26.867188 4.320312 27.488281 3.226562 28.066406 2.160156 C 28 2.15625 27.949219 2.125 27.886719 2.125 Z M 17.777344 2.125 "/>
<path style="fill:none;stroke-width:0.4;stroke-linecap:round;stroke-linejoin:miter;stroke:rgb(38.823529%,49.803922%,45.882353%);stroke-opacity:0.403922;stroke-miterlimit:4;" d="M -50.413489 6.98105 C -49.302378 1.994939 -47.330156 -3.508533 -45.503767 -7.720339 " transform="matrix(1.125,0,0,1.125,66.765957,20.181475)"/>
<path style=" stroke:none;fill-rule:nonzero;fill:rgb(75.294118%,79.607843%,78.039216%);fill-opacity:1;" d="M 14.527344 15.980469 C 14.710938 15.359375 14.539062 14.761719 14.148438 14.644531 C 13.757812 14.53125 13.292969 14.941406 13.109375 15.5625 C 12.929688 16.1875 13.097656 16.785156 13.488281 16.898438 C 13.878906 17.011719 14.34375 16.601562 14.527344 15.980469 Z M 14.527344 15.980469 "/>
</g>
</svg>
