<?xml version="1.0" encoding="UTF-8"?>
<svg xmlns="http://www.w3.org/2000/svg" xmlns:xlink="http://www.w3.org/1999/xlink" width="36pt" height="36pt" viewBox="0 0 36 36" version="1.1">
<defs>
<clipPath id="clip1">
  <rect width="36" height="36"/>
</clipPath>
<g id="surface6" clip-path="url(#clip1)">
<path style=" stroke:none;fill-rule:nonzero;fill:rgb(100%,100%,100%);fill-opacity:1;" d="M 21.847656 21.613281 L 22.414062 21.613281 C 25.832031 21.613281 28.601562 24.378906 28.601562 27.796875 L 28.601562 28.363281 L 28.035156 28.363281 C 27.726562 28.363281 27.480469 28.105469 27.480469 27.796875 C 27.480469 25 25.214844 22.734375 22.417969 22.734375 C 22.113281 22.734375 21.851562 22.488281 21.851562 22.179688 L 21.851562 21.613281 Z M 21.847656 21.613281 "/>
<path style=" stroke:none;fill-rule:nonzero;fill:rgb(100%,100%,100%);fill-opacity:1;" d="M 21.847656 23.867188 L 22.414062 23.867188 C 24.589844 23.867188 26.34375 25.621094 26.34375 27.796875 L 26.34375 28.363281 L 25.789062 28.363281 C 25.488281 28.363281 25.226562 28.105469 25.226562 27.796875 C 25.226562 26.242188 23.96875 24.988281 22.414062 24.988281 C 22.113281 24.988281 21.851562 24.730469 21.851562 24.421875 L 21.851562 23.867188 Z M 21.847656 23.867188 "/>
<path style=" stroke:none;fill-rule:nonzero;fill:rgb(100%,100%,100%);fill-opacity:1;" d="M 22.972656 26.109375 C 23.59375 26.109375 24.105469 26.621094 24.105469 27.242188 C 24.105469 27.863281 23.589844 28.363281 22.972656 28.363281 C 22.351562 28.363281 21.851562 27.863281 21.851562 27.242188 C 21.851562 26.621094 22.351562 26.109375 22.972656 26.109375 Z M 22.972656 26.109375 "/>
</g>
</defs>
<g id="surface1">
<path style=" stroke:none;fill-rule:evenodd;fill:rgb(30.980392%,30.980392%,30.980392%);fill-opacity:1;" d="M 8.40625 2.136719 L 27.59375 2.136719 C 31.054688 2.136719 33.863281 4.945312 33.863281 8.40625 L 33.863281 27.59375 C 33.863281 31.054688 31.054688 33.863281 27.59375 33.863281 L 8.40625 33.863281 C 4.945312 33.863281 2.136719 31.054688 2.136719 27.59375 L 2.136719 8.40625 C 2.136719 4.945312 4.945312 2.136719 8.40625 2.136719 Z M 8.40625 2.136719 "/>
<path style=" stroke:none;fill-rule:nonzero;fill:rgb(100%,100%,100%);fill-opacity:1;" d="M 8.675781 6.71875 L 8.675781 7.84375 L 8.113281 7.84375 C 7.175781 7.84375 6.425781 8.597656 6.425781 9.53125 C 6.425781 10.46875 7.175781 11.21875 8.113281 11.21875 L 8.675781 11.21875 L 8.675781 12.34375 L 6.527344 12.34375 C 6.757812 13 7.375 13.46875 8.113281 13.46875 L 8.675781 13.46875 L 8.675781 14.59375 L 9.800781 14.59375 L 9.800781 13.46875 L 10.363281 13.46875 C 11.296875 13.46875 12.050781 12.71875 12.050781 11.78125 C 12.050781 10.847656 11.296875 10.09375 10.363281 10.09375 L 9.800781 10.09375 L 9.800781 8.96875 L 11.945312 8.96875 C 11.714844 8.316406 11.097656 7.84375 10.363281 7.84375 L 9.800781 7.84375 L 9.800781 6.71875 Z M 8.113281 8.96875 L 8.675781 8.96875 L 8.675781 10.09375 L 8.113281 10.09375 C 7.800781 10.09375 7.550781 9.84375 7.550781 9.53125 C 7.550781 9.222656 7.800781 8.96875 8.113281 8.96875 Z M 9.800781 11.21875 L 10.363281 11.21875 C 10.671875 11.21875 10.925781 11.472656 10.925781 11.78125 C 10.925781 12.09375 10.671875 12.359375 10.363281 12.34375 L 9.800781 12.34375 Z M 14.300781 13.46875 L 14.300781 14.59375 L 21.050781 14.59375 L 21.050781 13.46875 Z M 14.300781 13.46875 "/>
<path style=" stroke:none;fill-rule:evenodd;fill:rgb(73.333333%,27.45098%,85.490196%);fill-opacity:1;" d="M 31.972656 24.988281 C 31.972656 28.714844 28.953125 31.738281 25.222656 31.738281 C 21.496094 31.738281 18.472656 28.714844 18.472656 24.988281 C 18.472656 21.257812 21.496094 18.238281 25.222656 18.238281 C 28.953125 18.238281 31.972656 21.257812 31.972656 24.988281 Z M 31.972656 24.988281 "/>
<use xlink:href="#surface6"/>
</g>
</svg>
