<?xml version="1.0" encoding="UTF-8"?>
<svg xmlns="http://www.w3.org/2000/svg" xmlns:xlink="http://www.w3.org/1999/xlink" width="36pt" height="36pt" viewBox="0 0 36 36" version="1.1">
<defs>
<clipPath id="clip1">
  <rect width="36" height="36"/>
</clipPath>
<g id="surface6" clip-path="url(#clip1)">
<path style=" stroke:none;fill-rule:nonzero;fill:rgb(100%,66.27451%,17.254902%);fill-opacity:1;" d="M 12.9375 11.8125 L 12.9375 12.9375 L 16.3125 12.9375 L 16.3125 14.0625 L 11.8125 14.0625 L 11.8125 17.4375 L 10.6875 17.4375 L 10.6875 14.0625 L 9.5625 14.0625 L 9.5625 21.9375 L 10.6875 21.9375 L 10.6875 18.5625 L 11.8125 18.5625 L 11.8125 21.9375 L 14.0625 24.1875 L 21.375 24.1875 L 22.5 23.0625 L 24.1875 23.0625 L 24.1875 24.1875 L 25.3125 24.1875 L 26.4375 23.0625 L 26.4375 16.3125 L 25.3125 15.1875 L 24.1875 15.1875 L 24.1875 16.3125 L 23.203125 16.3125 L 20.953125 14.0625 L 17.4375 14.0625 L 17.4375 12.9375 L 20.8125 12.9375 L 20.8125 11.8125 Z M 12.9375 15.1875 L 20.25 15.1875 L 22.5 17.4375 L 25.3125 17.4375 L 25.3125 21.9375 L 21.9375 21.9375 L 20.8125 23.0625 L 14.765625 23.0625 L 12.9375 21.148438 Z M 12.9375 15.1875 "/>
</g>
<clipPath id="clip2">
  <rect width="36" height="36"/>
</clipPath>
<g id="surface9" clip-path="url(#clip2)">
<path style=" stroke:none;fill-rule:evenodd;fill:rgb(24.705882%,57.254902%,90.588235%);fill-opacity:1;" d="M 32.269531 25.546875 C 32.269531 29.273438 29.246094 32.296875 25.519531 32.296875 C 21.792969 32.296875 18.769531 29.273438 18.769531 25.546875 C 18.769531 21.820312 21.792969 18.796875 25.519531 18.796875 C 29.246094 18.796875 32.269531 21.820312 32.269531 25.546875 Z M 32.269531 25.546875 "/>
</g>
<clipPath id="clip3">
  <rect width="36" height="36"/>
</clipPath>
<g id="surface12" clip-path="url(#clip3)">
<path style=" stroke:none;fill-rule:nonzero;fill:rgb(100%,100%,100%);fill-opacity:1;" d="M 24.675781 22.171875 L 24.601562 23.0625 C 24.320312 23.164062 24.058594 23.316406 23.828125 23.507812 L 23.019531 23.128906 L 22.175781 24.589844 L 22.910156 25.101562 C 22.882812 25.246094 22.867188 25.398438 22.867188 25.546875 C 22.867188 25.699219 22.878906 25.847656 22.90625 25.996094 L 22.175781 26.503906 L 23.019531 27.964844 L 23.824219 27.585938 C 24.054688 27.777344 24.320312 27.929688 24.601562 28.03125 L 24.675781 28.921875 L 26.363281 28.921875 L 26.4375 28.03125 C 26.71875 27.929688 26.980469 27.777344 27.210938 27.585938 L 28.019531 27.964844 L 28.863281 26.503906 L 28.128906 25.996094 C 28.15625 25.847656 28.171875 25.695312 28.171875 25.546875 C 28.171875 25.394531 28.160156 25.246094 28.132812 25.097656 L 28.863281 24.589844 L 28.019531 23.128906 L 27.214844 23.507812 C 26.984375 23.316406 26.71875 23.167969 26.4375 23.0625 L 26.363281 22.171875 Z M 25.519531 24.582031 C 26.050781 24.582031 26.484375 25.015625 26.484375 25.546875 C 26.484375 26.078125 26.050781 26.511719 25.519531 26.511719 C 24.988281 26.511719 24.554688 26.078125 24.554688 25.546875 C 24.554688 25.015625 24.988281 24.582031 25.519531 24.582031 Z M 25.519531 24.582031 "/>
</g>
</defs>
<g id="surface1">
<path style=" stroke:none;fill-rule:evenodd;fill:rgb(30.980392%,30.980392%,30.980392%);fill-opacity:1;" d="M 8.40625 2.136719 L 27.59375 2.136719 C 31.054688 2.136719 33.863281 4.945312 33.863281 8.40625 L 33.863281 27.59375 C 33.863281 31.054688 31.054688 33.863281 27.59375 33.863281 L 8.40625 33.863281 C 4.945312 33.863281 2.136719 31.054688 2.136719 27.59375 L 2.136719 8.40625 C 2.136719 4.945312 4.945312 2.136719 8.40625 2.136719 Z M 8.40625 2.136719 "/>
<use xlink:href="#surface6"/>
<use xlink:href="#surface9"/>
<use xlink:href="#surface12"/>
</g>
</svg>
