<?xml version="1.0" encoding="UTF-8"?>
<svg xmlns="http://www.w3.org/2000/svg" xmlns:xlink="http://www.w3.org/1999/xlink" width="36pt" height="36pt" viewBox="0 0 36 36" version="1.1">
<g id="surface1">
<path style=" stroke:none;fill-rule:evenodd;fill:rgb(0%,52.54902%,100%);fill-opacity:1;" d="M 8.40625 2.136719 L 27.59375 2.136719 C 31.054688 2.136719 33.863281 4.945312 33.863281 8.40625 L 33.863281 27.59375 C 33.863281 31.054688 31.054688 33.863281 27.59375 33.863281 L 8.40625 33.863281 C 4.945312 33.863281 2.136719 31.054688 2.136719 27.59375 L 2.136719 8.40625 C 2.136719 4.945312 4.945312 2.136719 8.40625 2.136719 Z M 8.40625 2.136719 "/>
<path style=" stroke:none;fill-rule:nonzero;fill:rgb(100%,100%,100%);fill-opacity:1;" d="M 14.746094 28.105469 C 15.433594 27.625 15.117188 26.871094 13.613281 25.410156 C 12.414062 24.242188 12.003906 23.476562 12 22.386719 C 12 21.703125 12.0625 21.546875 12.5 21.128906 C 13.175781 20.488281 13.835938 20.175781 15.0625 19.914062 C 16.566406 19.59375 16.480469 19.535156 16.480469 20.878906 C 16.480469 21.886719 16.53125 22.121094 16.816406 22.425781 C 17.46875 23.121094 17.96875 22.945312 20.308594 21.207031 C 27.445312 15.910156 27.144531 16.171875 27.144531 15.214844 C 27.144531 14.472656 26.992188 14.320312 24.082031 12.15625 C 17.535156 7.296875 17.9375 7.558594 17.351562 7.78125 C 16.613281 8.058594 16.480469 8.347656 16.480469 9.652344 L 16.480469 10.878906 L 15.878906 10.878906 C 15.546875 10.878906 14.800781 11.027344 14.222656 11.207031 C 10.808594 12.261719 8.867188 15.242188 8.851562 19.457031 C 8.847656 21.351562 9.132812 22.527344 10.058594 24.414062 C 10.875 26.078125 11.917969 27.199219 13.277344 27.878906 C 14.367188 28.425781 14.304688 28.414062 14.746094 28.105469 Z M 14.746094 28.105469 "/>
</g>
</svg>
