<?xml version="1.0" encoding="UTF-8"?>
<svg xmlns="http://www.w3.org/2000/svg" xmlns:xlink="http://www.w3.org/1999/xlink" width="36pt" height="36pt" viewBox="0 0 36 36" version="1.1">
<g id="surface1">
<path style=" stroke:none;fill-rule:evenodd;fill:rgb(3.137255%,39.215686%,82.352941%);fill-opacity:1;" d="M 8.40625 2.136719 L 27.59375 2.136719 C 31.054688 2.136719 33.863281 4.945312 33.863281 8.40625 L 33.863281 27.59375 C 33.863281 31.054688 31.054688 33.863281 27.59375 33.863281 L 8.40625 33.863281 C 4.945312 33.863281 2.136719 31.054688 2.136719 27.59375 L 2.136719 8.40625 C 2.136719 4.945312 4.945312 2.136719 8.40625 2.136719 Z M 8.40625 2.136719 "/>
<path style=" stroke:none;fill-rule:nonzero;fill:rgb(100%,100%,100%);fill-opacity:1;" d="M 15.9375 28.632812 C 15.820312 28.585938 15.679688 28.511719 15.632812 28.46875 C 15.582031 28.421875 15.515625 28.386719 15.480469 28.386719 C 15.449219 28.386719 15.414062 28.363281 15.402344 28.339844 C 15.394531 28.3125 15.039062 28.011719 14.617188 27.671875 C 14.195312 27.332031 13.839844 27.039062 13.824219 27.019531 C 13.808594 27.003906 13.707031 26.921875 13.597656 26.839844 C 13.484375 26.757812 13.363281 26.660156 13.320312 26.621094 C 13.28125 26.582031 13.074219 26.414062 12.863281 26.246094 C 10.242188 24.148438 7.484375 21.867188 7.359375 21.691406 C 7.105469 21.34375 7.058594 21.136719 7.058594 20.386719 C 7.058594 19.726562 7.066406 19.691406 7.230469 19.367188 C 7.40625 19.03125 7.667969 18.757812 7.953125 18.609375 C 8.097656 18.535156 10.035156 17.9375 11.796875 17.421875 C 12.203125 17.300781 12.84375 17.109375 13.222656 16.992188 C 14.292969 16.664062 15.960938 16.160156 16.234375 16.085938 C 16.371094 16.046875 16.898438 15.890625 17.414062 15.734375 C 17.925781 15.578125 18.558594 15.386719 18.824219 15.308594 C 19.085938 15.226562 19.304688 15.140625 19.304688 15.113281 C 19.304688 15.089844 19.207031 14.964844 19.089844 14.835938 C 18.972656 14.710938 18.535156 14.222656 18.117188 13.753906 C 16.511719 11.953125 15.132812 10.414062 14.296875 9.488281 C 13.363281 8.453125 13.1875 8.179688 13.25 7.847656 C 13.335938 7.378906 13.773438 7.027344 14.199219 7.089844 C 14.308594 7.105469 15.386719 7.484375 16.589844 7.9375 C 17.796875 8.386719 19.523438 9.03125 20.425781 9.367188 C 21.332031 9.707031 22.121094 10.023438 22.183594 10.078125 C 22.246094 10.128906 23.792969 12.164062 25.621094 14.59375 C 27.449219 17.027344 29.066406 19.175781 29.21875 19.371094 C 29.367188 19.566406 29.542969 19.804688 29.601562 19.90625 C 29.722656 20.101562 29.75 20.492188 29.65625 20.667969 C 29.613281 20.746094 29.628906 20.851562 29.71875 21.097656 C 29.816406 21.375 29.832031 21.511719 29.816406 22.015625 C 29.796875 22.527344 29.773438 22.648438 29.640625 22.917969 C 29.34375 23.523438 29.152344 23.628906 25.769531 25.027344 C 25.511719 25.132812 25.230469 25.253906 25.136719 25.292969 C 25.046875 25.332031 24.40625 25.601562 23.714844 25.894531 C 21.417969 26.859375 21.140625 26.976562 20.78125 27.128906 C 20.585938 27.210938 19.894531 27.503906 19.25 27.773438 C 18.601562 28.042969 17.859375 28.359375 17.605469 28.46875 C 17.203125 28.644531 17.070312 28.675781 16.644531 28.695312 C 16.296875 28.707031 16.089844 28.691406 15.9375 28.632812 Z M 14.878906 26.398438 C 15.074219 26.152344 15.140625 25.664062 15.023438 25.3125 C 14.839844 24.769531 14.375 24.726562 14.148438 25.226562 C 14.015625 25.515625 14.015625 25.886719 14.148438 26.175781 C 14.332031 26.578125 14.65625 26.679688 14.878906 26.398438 Z M 19.148438 23.699219 C 20.390625 23.230469 21.4375 22.828125 21.480469 22.804688 C 21.539062 22.773438 21.390625 22.652344 20.964844 22.375 C 20.417969 22.019531 18.949219 21.066406 15.632812 18.910156 L 14.34375 18.074219 L 12.128906 18.765625 C 10.910156 19.148438 9.902344 19.472656 9.886719 19.484375 C 9.871094 19.5 9.871094 19.519531 9.882812 19.527344 C 9.894531 19.539062 10.644531 20.085938 11.550781 20.742188 C 14.195312 22.667969 15.058594 23.300781 15.933594 23.941406 C 16.386719 24.273438 16.785156 24.546875 16.824219 24.550781 C 16.863281 24.550781 17.910156 24.167969 19.148438 23.699219 Z M 24.800781 21.566406 C 25.996094 21.117188 26.972656 20.730469 26.972656 20.710938 C 26.972656 20.691406 26.808594 20.574219 26.605469 20.457031 C 26.402344 20.335938 25.148438 19.601562 23.824219 18.824219 C 22.496094 18.046875 21.027344 17.183594 20.554688 16.90625 L 19.695312 16.398438 L 17.597656 17.054688 C 16.441406 17.414062 15.484375 17.722656 15.472656 17.734375 C 15.441406 17.765625 14.9375 17.433594 20.277344 20.890625 C 20.523438 21.050781 21.140625 21.457031 21.644531 21.792969 C 22.148438 22.125 22.578125 22.398438 22.59375 22.394531 C 22.613281 22.390625 23.605469 22.019531 24.800781 21.566406 Z M 24.800781 21.566406 "/>
</g>
</svg>
