<?xml version="1.0" encoding="UTF-8"?>
<svg xmlns="http://www.w3.org/2000/svg" xmlns:xlink="http://www.w3.org/1999/xlink" width="36pt" height="36pt" viewBox="0 0 36 36" version="1.1">
<g id="surface1">
<path style=" stroke:none;fill-rule:evenodd;fill:rgb(18.823529%,23.137255%,70.980392%);fill-opacity:1;" d="M 8.40625 2.136719 L 27.59375 2.136719 C 31.054688 2.136719 33.863281 4.945312 33.863281 8.40625 L 33.863281 27.59375 C 33.863281 31.054688 31.054688 33.863281 27.59375 33.863281 L 8.40625 33.863281 C 4.945312 33.863281 2.136719 31.054688 2.136719 27.59375 L 2.136719 8.40625 C 2.136719 4.945312 4.945312 2.136719 8.40625 2.136719 Z M 8.40625 2.136719 "/>
<path style=" stroke:none;fill-rule:nonzero;fill:rgb(100%,100%,100%);fill-opacity:1;" d="M 9.511719 18.289062 C 10.902344 17.058594 12.628906 16.199219 14.710938 15.722656 C 13.429688 14.789062 12.660156 13.964844 11.871094 12.867188 C 11.507812 12.371094 11.898438 12.09375 12.398438 11.703125 C 15.394531 10.554688 20.652344 9.90625 23.316406 11.871094 C 24.023438 12.445312 22.457031 13.402344 21.695312 13.699219 C 24.488281 14.195312 26.648438 14.992188 27.875 16.878906 C 29.796875 14.027344 29.03125 9.882812 26.847656 8.53125 C 24.664062 7.179688 17.167969 4.332031 8.804688 8.277344 C 5.027344 10.097656 6.621094 14.421875 9.511719 18.289062 Z M 9.511719 18.289062 "/>
<path style=" stroke:none;fill-rule:nonzero;fill:rgb(100%,100%,100%);fill-opacity:1;" d="M 10.683594 19.324219 C 14.601562 18.355469 18.570312 17.382812 24.03125 19.324219 C 21.554688 14.316406 15.066406 16.257812 10.683594 19.324219 Z M 10.683594 19.324219 "/>
<path style=" stroke:none;fill-rule:nonzero;fill:rgb(100%,100%,100%);fill-opacity:1;" d="M 20.761719 15.875 C 26.335938 18.113281 28.660156 23.902344 21.058594 26.222656 C 17.25 27.476562 10.957031 26.472656 9.265625 25.203125 C 7.9375 24.183594 9.472656 22.554688 11.34375 21.890625 C 9.050781 21.894531 7.820312 22.460938 7.070312 23.738281 C 6.675781 24.628906 6.78125 25.199219 6.878906 25.566406 C 9.539062 32 28.863281 30.886719 29.410156 22.886719 C 29.5625 18.582031 24.523438 16.03125 20.761719 15.875 Z M 20.761719 15.875 "/>
<path style=" stroke:none;fill-rule:evenodd;fill:rgb(76.470588%,71.372549%,58.039216%);fill-opacity:1;" d="M 21.761719 22.5 C 21.761719 24.644531 20.023438 26.382812 17.878906 26.382812 C 15.738281 26.382812 14 24.644531 14 22.5 C 14 20.359375 15.738281 18.621094 17.878906 18.621094 C 20.023438 18.621094 21.761719 20.359375 21.761719 22.5 Z M 21.761719 22.5 "/>
<path style=" stroke:none;fill-rule:evenodd;fill:rgb(3.137255%,14.509804%,52.156863%);fill-opacity:1;" d="M 21.011719 22.523438 C 21.011719 24.242188 19.621094 25.632812 17.902344 25.632812 C 16.1875 25.632812 14.792969 24.242188 14.792969 22.523438 C 14.792969 20.808594 16.1875 19.414062 17.902344 19.414062 C 19.621094 19.414062 21.011719 20.808594 21.011719 22.523438 Z M 21.011719 22.523438 "/>
<path style=" stroke:none;fill-rule:evenodd;fill:rgb(100%,100%,100%);fill-opacity:1;" d="M 18.554688 24.996094 L 17.949219 23.820312 L 17.4375 25.039062 L 17.402344 23.71875 L 16.410156 24.59375 L 16.953125 23.386719 L 15.679688 23.746094 L 16.695312 22.894531 L 15.390625 22.664062 L 16.671875 22.335938 L 15.597656 21.566406 L 16.894531 21.828125 L 16.261719 20.664062 L 17.316406 21.464844 L 17.253906 20.140625 L 17.855469 21.320312 L 18.371094 20.101562 L 18.402344 21.421875 L 19.394531 20.546875 L 18.851562 21.753906 L 20.125 21.394531 L 19.113281 22.246094 L 20.414062 22.476562 L 19.132812 22.800781 L 20.207031 23.574219 L 18.910156 23.3125 L 19.542969 24.476562 L 18.488281 23.675781 Z M 18.554688 24.996094 "/>
</g>
</svg>
