<?xml version="1.0" encoding="UTF-8"?>
<svg xmlns="http://www.w3.org/2000/svg" xmlns:xlink="http://www.w3.org/1999/xlink" width="36pt" height="36pt" viewBox="0 0 36 36" version="1.1">
<g id="surface1">
<path style=" stroke:none;fill-rule:evenodd;fill:rgb(32.941176%,50.588235%,77.254902%);fill-opacity:1;" d="M 8.40625 2.136719 L 27.59375 2.136719 C 31.054688 2.136719 33.863281 4.945312 33.863281 8.40625 L 33.863281 27.59375 C 33.863281 31.054688 31.054688 33.863281 27.59375 33.863281 L 8.40625 33.863281 C 4.945312 33.863281 2.136719 31.054688 2.136719 27.59375 L 2.136719 8.40625 C 2.136719 4.945312 4.945312 2.136719 8.40625 2.136719 Z M 8.40625 2.136719 "/>
<path style=" stroke:none;fill-rule:nonzero;fill:rgb(63.137255%,74.117647%,90.980392%);fill-opacity:1;" d="M 15.207031 7.757812 C 12.554688 7.757812 10.296875 9.367188 9.324219 11.644531 C 6.855469 12.007812 4.964844 14.097656 4.964844 16.644531 C 4.964844 19.449219 7.257812 21.726562 10.085938 21.726562 L 20.96875 21.726562 C 23.441406 21.726562 25.449219 19.734375 25.449219 17.28125 C 25.449219 15 23.71875 13.128906 21.488281 12.875 C 20.90625 9.964844 18.3125 7.757812 15.207031 7.757812 Z M 15.207031 7.757812 "/>
<path style=" stroke:none;fill-rule:nonzero;fill:rgb(92.54902%,92.54902%,92.54902%);fill-opacity:1;" d="M 20.792969 14.273438 C 18.140625 14.273438 15.882812 15.886719 14.910156 18.164062 C 12.441406 18.527344 10.550781 20.613281 10.550781 23.164062 C 10.550781 25.96875 12.84375 28.242188 15.671875 28.242188 L 26.554688 28.242188 C 29.03125 28.242188 31.035156 26.253906 31.035156 23.796875 C 31.035156 21.515625 29.308594 19.648438 27.074219 19.394531 C 26.492188 16.480469 23.902344 14.273438 20.792969 14.273438 Z M 20.792969 14.273438 "/>
</g>
</svg>
