<?xml version="1.0" encoding="UTF-8"?>
<svg xmlns="http://www.w3.org/2000/svg" xmlns:xlink="http://www.w3.org/1999/xlink" width="36pt" height="36pt" viewBox="0 0 36 36" version="1.1">
<defs>
<clipPath id="clip1">
  <rect width="36" height="36"/>
</clipPath>
<g id="surface6" clip-path="url(#clip1)">
<path style=" stroke:none;fill-rule:nonzero;fill:rgb(35.294118%,21.960784%,33.72549%);fill-opacity:1;" d="M 22.210938 20.269531 C 22.210938 21.351562 21.851562 22.183594 21.140625 22.757812 C 20.433594 23.335938 19.386719 23.625 18.003906 23.625 C 17.046875 23.625 16.214844 23.464844 15.507812 23.148438 C 14.804688 22.832031 14.234375 22.320312 13.789062 21.613281 L 15.484375 20.316406 C 15.734375 20.671875 15.96875 20.9375 16.195312 21.113281 C 16.417969 21.289062 16.683594 21.425781 16.988281 21.527344 C 17.296875 21.625 17.648438 21.675781 18.050781 21.675781 C 18.648438 21.675781 19.113281 21.574219 19.445312 21.371094 C 19.785156 21.164062 19.953125 20.847656 19.953125 20.425781 C 19.953125 20.1875 19.894531 19.988281 19.773438 19.824219 C 19.660156 19.664062 19.484375 19.527344 19.253906 19.410156 C 19.019531 19.292969 18.613281 19.15625 18.035156 19.007812 C 17.472656 18.855469 16.941406 18.703125 16.445312 18.554688 C 15.949219 18.398438 15.519531 18.199219 15.15625 17.953125 C 14.796875 17.707031 14.515625 17.402344 14.304688 17.03125 C 14.097656 16.664062 13.992188 16.199219 13.992188 15.636719 C 13.992188 14.613281 14.339844 13.8125 15.03125 13.242188 C 15.722656 12.664062 16.714844 12.375 18.003906 12.375 C 19.871094 12.375 21.191406 13.015625 21.96875 14.292969 L 20.289062 15.605469 C 19.992188 15.148438 19.660156 14.820312 19.292969 14.621094 C 18.921875 14.425781 18.484375 14.324219 17.972656 14.324219 C 17.464844 14.324219 17.046875 14.417969 16.722656 14.605469 C 16.40625 14.789062 16.25 15.078125 16.25 15.472656 C 16.25 15.820312 16.414062 16.089844 16.746094 16.277344 C 17.082031 16.457031 17.660156 16.640625 18.488281 16.828125 C 18.945312 16.949219 19.398438 17.078125 19.84375 17.21875 C 20.292969 17.355469 20.691406 17.546875 21.039062 17.789062 C 21.390625 18.035156 21.675781 18.355469 21.890625 18.75 C 22.101562 19.144531 22.207031 19.652344 22.207031 20.269531 "/>
</g>
</defs>
<g id="surface1">
<path style=" stroke:none;fill-rule:evenodd;fill:rgb(83.529412%,6.27451%,5.098039%);fill-opacity:1;" d="M 33.863281 21.714844 L 28.816406 23.164062 L 31.46875 32.410156 C 32.894531 31.265625 33.863281 29.578125 33.863281 27.59375 Z M 33.863281 21.714844 "/>
<path style=" stroke:none;fill-rule:evenodd;fill:rgb(22.352941%,5.882353%,22.352941%);fill-opacity:1;" d="M 13.691406 33.863281 L 12.003906 27.988281 L 2.984375 30.570312 C 4.050781 32.507812 6.03125 33.863281 8.40625 33.863281 Z M 13.691406 33.863281 "/>
<path style=" stroke:none;fill-rule:evenodd;fill:rgb(28.235294%,76.470588%,61.960784%);fill-opacity:1;" d="M 11.992188 27.992188 L 7.183594 11.222656 C 7.175781 11.21875 7.167969 11.21875 7.160156 11.21875 L 2.136719 12.660156 L 2.136719 27.59375 C 2.136719 28.695312 2.492188 29.671875 2.984375 30.570312 Z M 11.992188 27.992188 "/>
<path style=" stroke:none;fill-rule:evenodd;fill:rgb(84.705882%,9.019608%,40.784314%);fill-opacity:1;" d="M 28.800781 23.121094 L 12.003906 27.941406 C 12 27.957031 12.003906 27.972656 12 27.988281 L 12.003906 27.988281 L 13.691406 33.863281 L 27.59375 33.863281 C 29.085938 33.863281 30.394531 33.273438 31.46875 32.410156 L 28.820312 23.171875 C 28.820312 23.171875 28.816406 23.171875 28.816406 23.171875 Z M 28.800781 23.121094 "/>
<path style=" stroke:none;fill-rule:evenodd;fill:rgb(100%,100%,100%);fill-opacity:1;" d="M 24.003906 6.390625 L 23.992188 6.390625 L 7.183594 11.210938 L 7.160156 11.21875 C 7.167969 11.21875 7.175781 11.21875 7.183594 11.222656 L 11.992188 27.992188 L 12 27.988281 C 12.003906 27.972656 12 27.957031 12.003906 27.941406 L 28.800781 23.121094 Z M 24.003906 6.390625 "/>
<path style=" stroke:none;fill-rule:evenodd;fill:rgb(92.54902%,70.980392%,14.117647%);fill-opacity:1;" d="M 24.003906 6.390625 L 28.816406 23.171875 C 28.816406 23.171875 28.820312 23.171875 28.820312 23.171875 L 28.816406 23.164062 L 33.863281 21.714844 L 33.863281 8.40625 C 33.863281 6.714844 33.183594 5.195312 32.101562 4.070312 Z M 24.003906 6.390625 "/>
<path style=" stroke:none;fill-rule:evenodd;fill:rgb(50.588235%,82.352941%,87.843137%);fill-opacity:1;" d="M 7.183594 11.210938 L 23.992188 6.390625 L 22.773438 2.136719 L 8.40625 2.136719 C 7.085938 2.136719 5.933594 2.632812 4.925781 3.328125 Z M 7.183594 11.210938 "/>
<path style=" stroke:none;fill-rule:evenodd;fill:rgb(46.666667%,59.215686%,12.156863%);fill-opacity:1;" d="M 22.773438 2.136719 L 23.992188 6.390625 L 32.101562 4.070312 C 30.960938 2.882812 29.375 2.136719 27.59375 2.136719 Z M 22.773438 2.136719 "/>
<path style=" stroke:none;fill-rule:evenodd;fill:rgb(12.54902%,64.313725%,55.686275%);fill-opacity:1;" d="M 2.136719 12.660156 L 7.183594 11.210938 L 4.925781 3.328125 C 3.28125 4.457031 2.136719 6.253906 2.136719 8.40625 Z M 2.136719 12.660156 "/>
<use xlink:href="#surface6"/>
</g>
</svg>
