<?xml version="1.0" encoding="UTF-8"?>
<svg xmlns="http://www.w3.org/2000/svg" xmlns:xlink="http://www.w3.org/1999/xlink" width="36pt" height="36pt" viewBox="0 0 36 36" version="1.1">
<g id="surface1">
<path style=" stroke:none;fill-rule:evenodd;fill:rgb(80%,80%,80%);fill-opacity:1;" d="M 8.40625 2.136719 L 27.59375 2.136719 C 31.054688 2.136719 33.863281 4.945312 33.863281 8.40625 L 33.863281 27.59375 C 33.863281 31.054688 31.054688 33.863281 27.59375 33.863281 L 8.40625 33.863281 C 4.945312 33.863281 2.136719 31.054688 2.136719 27.59375 L 2.136719 8.40625 C 2.136719 4.945312 4.945312 2.136719 8.40625 2.136719 Z M 8.40625 2.136719 "/>
<path style=" stroke:none;fill-rule:nonzero;fill:rgb(28.235294%,23.529412%,56.078431%);fill-opacity:1;" d="M 17.90625 10.289062 L 6.75 18.097656 L 15.253906 24.050781 L 15.921875 20.578125 L 12.375 18.097656 L 17.027344 14.839844 Z M 17.90625 10.289062 "/>
<path style=" stroke:none;fill-rule:nonzero;fill:rgb(29.411765%,54.117647%,87.45098%);fill-opacity:1;" d="M 20.957031 12.292969 L 20.289062 15.761719 L 23.625 18.097656 L 19.246094 21.160156 L 18.367188 25.710938 L 29.25 18.097656 Z M 20.957031 12.292969 "/>
</g>
</svg>
