<?xml version="1.0" encoding="UTF-8"?>
<svg xmlns="http://www.w3.org/2000/svg" xmlns:xlink="http://www.w3.org/1999/xlink" width="36pt" height="36pt" viewBox="0 0 36 36" version="1.1">
<g id="surface1">
<path style=" stroke:none;fill-rule:evenodd;fill:rgb(43.921569%,29.411765%,56.862745%);fill-opacity:1;" d="M 8.40625 2.136719 L 27.59375 2.136719 C 31.054688 2.136719 33.863281 4.945312 33.863281 8.40625 L 33.863281 27.59375 C 33.863281 31.054688 31.054688 33.863281 27.59375 33.863281 L 8.40625 33.863281 C 4.945312 33.863281 2.136719 31.054688 2.136719 27.59375 L 2.136719 8.40625 C 2.136719 4.945312 4.945312 2.136719 8.40625 2.136719 Z M 8.40625 2.136719 "/>
<path style=" stroke:none;fill-rule:nonzero;fill:rgb(29.803922%,54.117647%,29.803922%);fill-opacity:1;" d="M 7.875 18 L 11.25 18 L 11.25 21.375 L 7.875 21.375 Z M 7.875 18 "/>
<path style=" stroke:none;fill-rule:nonzero;fill:rgb(89.411765%,36.862745%,36.862745%);fill-opacity:1;" d="M 11.25 18 L 14.625 18 L 14.625 21.375 L 11.25 21.375 Z M 11.25 18 "/>
<path style=" stroke:none;fill-rule:nonzero;fill:rgb(43.921569%,47.45098%,100%);fill-opacity:1;" d="M 14.625 18 L 18 18 L 18 21.375 L 14.625 21.375 Z M 14.625 18 "/>
<path style=" stroke:none;fill-rule:nonzero;fill:rgb(80.392157%,80.392157%,80.392157%);fill-opacity:1;" d="M 18 18 L 21.375 18 L 21.375 21.375 L 18 21.375 Z M 18 18 "/>
<path style=" stroke:none;fill-rule:nonzero;fill:rgb(100%,74.117647%,10.196078%);fill-opacity:1;" d="M 21.375 18 L 24.75 18 L 24.75 21.375 L 21.375 21.375 Z M 21.375 18 "/>
<path style=" stroke:none;fill-rule:nonzero;fill:rgb(95.294118%,95.294118%,95.294118%);fill-opacity:1;" d="M 24.75 18 L 28.125 18 L 28.125 21.375 L 24.75 21.375 Z M 24.75 18 "/>
<path style=" stroke:none;fill-rule:nonzero;fill:rgb(43.921569%,47.45098%,100%);fill-opacity:1;" d="M 7.875 14.625 L 11.25 14.625 L 11.25 18 L 7.875 18 Z M 7.875 14.625 "/>
<path style=" stroke:none;fill-rule:nonzero;fill:rgb(95.294118%,95.294118%,95.294118%);fill-opacity:1;" d="M 11.25 14.625 L 14.625 14.625 L 14.625 18 L 11.25 18 Z M 11.25 14.625 "/>
<path style=" stroke:none;fill-rule:nonzero;fill:rgb(29.803922%,54.117647%,29.803922%);fill-opacity:1;" d="M 14.625 14.625 L 18 14.625 L 18 18 L 14.625 18 Z M 14.625 14.625 "/>
<path style=" stroke:none;fill-rule:nonzero;fill:rgb(95.294118%,95.294118%,95.294118%);fill-opacity:1;" d="M 18 14.625 L 21.375 14.625 L 21.375 18 L 18 18 Z M 18 14.625 "/>
<path style=" stroke:none;fill-rule:nonzero;fill:rgb(80.392157%,80.392157%,80.392157%);fill-opacity:1;" d="M 21.375 14.625 L 24.75 14.625 L 24.75 18 L 21.375 18 Z M 21.375 14.625 "/>
<path style=" stroke:none;fill-rule:nonzero;fill:rgb(43.921569%,47.45098%,100%);fill-opacity:1;" d="M 24.75 14.625 L 28.125 14.625 L 28.125 18 L 24.75 18 Z M 24.75 14.625 "/>
<path style=" stroke:none;fill-rule:nonzero;fill:rgb(95.294118%,95.294118%,95.294118%);fill-opacity:1;" d="M 7.875 11.25 L 11.25 11.25 L 11.25 14.625 L 7.875 14.625 Z M 7.875 11.25 "/>
<path style=" stroke:none;fill-rule:nonzero;fill:rgb(100%,93.333333%,20.784314%);fill-opacity:1;" d="M 11.25 11.25 L 14.625 11.25 L 14.625 14.625 L 11.25 14.625 Z M 11.25 11.25 "/>
<path style=" stroke:none;fill-rule:nonzero;fill:rgb(100%,74.117647%,10.196078%);fill-opacity:1;" d="M 14.625 11.25 L 18 11.25 L 18 14.625 L 14.625 14.625 Z M 14.625 11.25 "/>
<path style=" stroke:none;fill-rule:nonzero;fill:rgb(85.882353%,37.254902%,90.980392%);fill-opacity:1;" d="M 18 11.25 L 21.375 11.25 L 21.375 14.625 L 18 14.625 Z M 18 11.25 "/>
<path style=" stroke:none;fill-rule:nonzero;fill:rgb(100%,93.333333%,20.784314%);fill-opacity:1;" d="M 21.375 11.25 L 24.75 11.25 L 24.75 14.625 L 21.375 14.625 Z M 21.375 11.25 "/>
<path style=" stroke:none;fill-rule:nonzero;fill:rgb(100%,74.117647%,10.196078%);fill-opacity:1;" d="M 11.25 21.375 L 14.625 21.375 L 14.625 24.75 L 11.25 24.75 Z M 11.25 21.375 "/>
<path style=" stroke:none;fill-rule:nonzero;fill:rgb(85.882353%,37.254902%,90.980392%);fill-opacity:1;" d="M 14.625 21.375 L 18 21.375 L 18 24.75 L 14.625 24.75 Z M 14.625 21.375 "/>
<path style=" stroke:none;fill-rule:nonzero;fill:rgb(89.411765%,36.862745%,36.862745%);fill-opacity:1;" d="M 18 21.375 L 21.375 21.375 L 21.375 24.75 L 18 24.75 Z M 18 21.375 "/>
<path style=" stroke:none;fill-rule:nonzero;fill:rgb(100%,93.333333%,20.784314%);fill-opacity:1;" d="M 21.375 21.375 L 24.75 21.375 L 24.75 24.75 L 21.375 24.75 Z M 21.375 21.375 "/>
<path style=" stroke:none;fill-rule:nonzero;fill:rgb(89.411765%,36.862745%,36.862745%);fill-opacity:1;" d="M 24.75 21.375 L 28.125 21.375 L 28.125 24.75 L 24.75 24.75 Z M 24.75 21.375 "/>
<path style=" stroke:none;fill-rule:nonzero;fill:rgb(43.921569%,47.45098%,100%);fill-opacity:1;" d="M 14.625 24.75 L 18 24.75 L 18 28.125 L 14.625 28.125 Z M 14.625 24.75 "/>
<path style=" stroke:none;fill-rule:nonzero;fill:rgb(95.294118%,95.294118%,95.294118%);fill-opacity:1;" d="M 18 24.75 L 21.375 24.75 L 21.375 28.125 L 18 28.125 Z M 18 24.75 "/>
<path style=" stroke:none;fill-rule:nonzero;fill:rgb(29.803922%,54.117647%,29.803922%);fill-opacity:1;" d="M 21.375 24.75 L 24.75 24.75 L 24.75 28.125 L 21.375 28.125 Z M 21.375 24.75 "/>
<path style=" stroke:none;fill-rule:nonzero;fill:rgb(85.882353%,37.254902%,90.980392%);fill-opacity:1;" d="M 24.75 24.75 L 28.125 24.75 L 28.125 28.125 L 24.75 28.125 Z M 24.75 24.75 "/>
<path style=" stroke:none;fill-rule:nonzero;fill:rgb(100%,74.117647%,10.196078%);fill-opacity:1;" d="M 7.875 7.875 L 11.25 7.875 L 11.25 11.25 L 7.875 11.25 Z M 7.875 7.875 "/>
<path style=" stroke:none;fill-rule:nonzero;fill:rgb(89.411765%,36.862745%,36.862745%);fill-opacity:1;" d="M 11.25 7.875 L 14.625 7.875 L 14.625 11.25 L 11.25 11.25 Z M 11.25 7.875 "/>
<path style=" stroke:none;fill-rule:nonzero;fill:rgb(100%,93.333333%,20.784314%);fill-opacity:1;" d="M 14.625 7.875 L 18 7.875 L 18 11.25 L 14.625 11.25 Z M 14.625 7.875 "/>
<path style=" stroke:none;fill-rule:nonzero;fill:rgb(43.921569%,47.45098%,100%);fill-opacity:1;" d="M 18 7.875 L 21.375 7.875 L 21.375 11.25 L 18 11.25 Z M 18 7.875 "/>
</g>
</svg>
