<?xml version="1.0" encoding="UTF-8"?>
<svg xmlns="http://www.w3.org/2000/svg" xmlns:xlink="http://www.w3.org/1999/xlink" width="36pt" height="36pt" viewBox="0 0 36 36" version="1.1">
<g id="surface1">
<path style=" stroke:none;fill-rule:evenodd;fill:rgb(55.686275%,55.686275%,55.686275%);fill-opacity:1;" d="M 8.40625 2.136719 L 27.59375 2.136719 C 31.054688 2.136719 33.863281 4.945312 33.863281 8.40625 L 33.863281 27.59375 C 33.863281 31.054688 31.054688 33.863281 27.59375 33.863281 L 8.40625 33.863281 C 4.945312 33.863281 2.136719 31.054688 2.136719 27.59375 L 2.136719 8.40625 C 2.136719 4.945312 4.945312 2.136719 8.40625 2.136719 Z M 8.40625 2.136719 "/>
<path style=" stroke:none;fill-rule:nonzero;fill:rgb(30.980392%,30.980392%,30.980392%);fill-opacity:1;" d="M 25.828125 18 C 25.828125 22.324219 22.324219 25.828125 18 25.828125 C 13.675781 25.828125 10.171875 22.324219 10.171875 18 C 10.171875 13.675781 13.675781 10.171875 18 10.171875 C 22.324219 10.171875 25.828125 13.675781 25.828125 18 Z M 25.828125 18 "/>
<path style=" stroke:none;fill-rule:nonzero;fill:rgb(80%,80%,80%);fill-opacity:1;" d="M 18 5.824219 C 11.253906 5.824219 5.824219 11.253906 5.824219 18 C 5.824219 24.746094 11.253906 30.175781 18 30.175781 C 24.746094 30.175781 30.175781 24.746094 30.175781 18 C 30.175781 11.253906 24.746094 5.824219 18 5.824219 Z M 18 8.433594 C 19.921875 8.433594 21.480469 9.992188 21.480469 11.914062 C 21.480469 13.832031 19.921875 15.390625 18 15.390625 C 16.078125 15.390625 14.519531 13.832031 14.519531 11.914062 C 14.519531 9.992188 16.078125 8.433594 18 8.433594 Z M 11.914062 14.519531 C 13.832031 14.519531 15.390625 16.078125 15.390625 18 C 15.390625 19.921875 13.832031 21.480469 11.914062 21.480469 C 9.992188 21.480469 8.433594 19.921875 8.433594 18 C 8.433594 16.078125 9.992188 14.519531 11.914062 14.519531 Z M 24.085938 14.519531 C 26.007812 14.519531 27.566406 16.078125 27.566406 18 C 27.566406 19.921875 26.007812 21.480469 24.085938 21.480469 C 22.167969 21.480469 20.609375 19.921875 20.609375 18 C 20.609375 16.078125 22.167969 14.519531 24.085938 14.519531 Z M 18 20.609375 C 19.921875 20.609375 21.480469 22.167969 21.480469 24.085938 C 21.480469 26.007812 19.921875 27.566406 18 27.566406 C 16.078125 27.566406 14.519531 26.007812 14.519531 24.085938 C 14.519531 22.167969 16.078125 20.609375 18 20.609375 Z M 18 20.609375 "/>
<path style=" stroke:none;fill-rule:nonzero;fill:rgb(30.980392%,30.980392%,30.980392%);fill-opacity:1;" d="M 19.507812 17.128906 C 19.386719 16.921875 19.121094 16.851562 18.914062 16.972656 C 18.703125 17.089844 18.632812 17.355469 18.753906 17.566406 C 18.875 17.773438 19.140625 17.84375 19.347656 17.722656 C 19.554688 17.605469 19.625 17.339844 19.507812 17.128906 Z M 17.722656 16.652344 C 17.605469 16.445312 17.339844 16.375 17.128906 16.492188 C 16.921875 16.613281 16.851562 16.878906 16.972656 17.085938 C 17.089844 17.296875 17.355469 17.367188 17.566406 17.246094 C 17.773438 17.125 17.84375 16.859375 17.722656 16.652344 Z M 19.027344 18.914062 C 18.910156 18.703125 18.644531 18.632812 18.433594 18.753906 C 18.226562 18.875 18.15625 19.140625 18.277344 19.347656 C 18.394531 19.554688 18.660156 19.625 18.871094 19.507812 C 19.078125 19.386719 19.148438 19.121094 19.027344 18.914062 Z M 17.246094 18.433594 C 17.125 18.226562 16.859375 18.15625 16.652344 18.277344 C 16.445312 18.394531 16.375 18.660156 16.492188 18.871094 C 16.613281 19.078125 16.878906 19.148438 17.085938 19.027344 C 17.296875 18.910156 17.367188 18.644531 17.246094 18.433594 Z M 17.246094 18.433594 "/>
</g>
</svg>
