<?xml version="1.0" encoding="UTF-8"?>
<svg xmlns="http://www.w3.org/2000/svg" xmlns:xlink="http://www.w3.org/1999/xlink" width="36pt" height="36pt" viewBox="0 0 36 36" version="1.1">
<defs>
<clipPath id="clip1">
  <rect width="36" height="36"/>
</clipPath>
<g id="surface6" clip-path="url(#clip1)">
<path style=" stroke:none;fill-rule:nonzero;fill:rgb(100%,100%,100%);fill-opacity:1;" d="M 18.023438 6.101562 C 20.390625 6.109375 22.789062 6.886719 24.664062 8.433594 C 25.984375 10.039062 23.472656 11.757812 22.339844 10.191406 C 18.9375 8.011719 14.132812 8.78125 11.574219 12.039062 C 10.210938 13.65625 9.441406 15.8125 9.449219 17.980469 L 11.699219 17.980469 C 10.5 19.882812 9.300781 21.785156 8.101562 23.691406 L 4.5 17.980469 L 6.75 17.980469 C 6.679688 12.808594 10.195312 7.886719 14.914062 6.546875 C 15.929688 6.253906 16.972656 6.089844 18.023438 6.101562 Z M 27.902344 12.289062 C 29.097656 14.195312 30.300781 16.097656 31.5 18.003906 L 29.25 18.003906 C 29.3125 23.234375 25.707031 28.210938 20.90625 29.480469 C 17.664062 30.4375 14 29.738281 11.335938 27.546875 C 9.976562 25.914062 12.523438 24.210938 13.664062 25.792969 C 16.960938 27.910156 21.582031 27.238281 24.183594 24.214844 C 25.695312 22.570312 26.5625 20.292969 26.550781 18.003906 L 24.300781 18.003906 L 27.898438 12.289062 Z M 27.902344 12.289062 "/>
</g>
<clipPath id="clip2">
  <rect width="36" height="36"/>
</clipPath>
<g id="surface9" clip-path="url(#clip2)">
<path style=" stroke:none;fill-rule:nonzero;fill:rgb(100%,100%,100%);fill-opacity:1;" d="M 16.589844 12.351562 L 16.464844 13.839844 C 15.992188 14.015625 15.554688 14.269531 15.167969 14.589844 L 13.8125 13.953125 L 12.402344 16.398438 L 13.628906 17.25 C 13.585938 17.5 13.5625 17.75 13.5625 18 C 13.5625 18.253906 13.582031 18.503906 13.625 18.753906 L 12.402344 19.601562 L 13.8125 22.046875 L 15.164062 21.414062 C 15.550781 21.734375 15.992188 21.984375 16.464844 22.15625 L 16.585938 23.648438 L 19.410156 23.648438 L 19.535156 22.160156 C 20.007812 21.984375 20.445312 21.734375 20.832031 21.410156 L 22.1875 22.046875 L 23.597656 19.601562 L 22.371094 18.75 C 22.414062 18.5 22.4375 18.25 22.4375 18 C 22.4375 17.75 22.417969 17.496094 22.375 17.25 L 23.597656 16.398438 L 22.1875 13.953125 L 20.835938 14.589844 C 20.449219 14.265625 20.007812 14.015625 19.535156 13.84375 L 19.414062 12.351562 L 16.585938 12.351562 Z M 18 16.386719 C 18.890625 16.386719 19.613281 17.109375 19.613281 18 C 19.613281 18.890625 18.890625 19.613281 18 19.613281 C 17.109375 19.613281 16.386719 18.890625 16.386719 18 C 16.386719 17.109375 17.109375 16.386719 18 16.386719 Z M 18 16.386719 "/>
</g>
</defs>
<g id="surface1">
<path style=" stroke:none;fill-rule:evenodd;fill:rgb(36.470588%,70.588235%,24.313725%);fill-opacity:1;" d="M 8.40625 2.136719 L 27.59375 2.136719 C 31.054688 2.136719 33.863281 4.945312 33.863281 8.40625 L 33.863281 27.59375 C 33.863281 31.054688 31.054688 33.863281 27.59375 33.863281 L 8.40625 33.863281 C 4.945312 33.863281 2.136719 31.054688 2.136719 27.59375 L 2.136719 8.40625 C 2.136719 4.945312 4.945312 2.136719 8.40625 2.136719 Z M 8.40625 2.136719 "/>
<use xlink:href="#surface6"/>
<use xlink:href="#surface9"/>
</g>
</svg>
