<?xml version="1.0" encoding="UTF-8"?>
<svg xmlns="http://www.w3.org/2000/svg" xmlns:xlink="http://www.w3.org/1999/xlink" width="36pt" height="36pt" viewBox="0 0 36 36" version="1.1">
<g id="surface1">
<path style=" stroke:none;fill-rule:evenodd;fill:rgb(94.901961%,94.901961%,94.901961%);fill-opacity:1;" d="M 8.40625 2.136719 L 27.59375 2.136719 C 31.054688 2.136719 33.863281 4.945312 33.863281 8.40625 L 33.863281 27.59375 C 33.863281 31.054688 31.054688 33.863281 27.59375 33.863281 L 8.40625 33.863281 C 4.945312 33.863281 2.136719 31.054688 2.136719 27.59375 L 2.136719 8.40625 C 2.136719 4.945312 4.945312 2.136719 8.40625 2.136719 Z M 8.40625 2.136719 "/>
<path style=" stroke:none;fill-rule:nonzero;fill:rgb(50.196078%,37.254902%,83.921569%);fill-opacity:1;" d="M 19.75 7.0625 C 18 7.0625 16.25 7.0625 16.25 8.8125 L 16.25 19.5 C 15.824219 19.378906 15.382812 19.3125 14.9375 19.3125 C 12.28125 19.3125 10.125 21.464844 10.125 24.125 C 10.125 26.785156 12.28125 28.9375 14.9375 28.9375 C 17.527344 28.933594 19.65625 26.882812 19.75 24.296875 C 19.769531 21.003906 19.75 17.664062 19.75 14.355469 C 19.75 9.6875 25 15.8125 25.875 16.6875 C 25.875 14.355469 25.875 7.0625 19.75 7.0625 Z M 19.75 7.0625 "/>
</g>
</svg>
