<?xml version="1.0" encoding="UTF-8"?>
<svg xmlns="http://www.w3.org/2000/svg" xmlns:xlink="http://www.w3.org/1999/xlink" width="36pt" height="36pt" viewBox="0 0 36 36" version="1.1">
<g id="surface1">
<path style=" stroke:none;fill-rule:evenodd;fill:rgb(90.588235%,23.529412%,30.980392%);fill-opacity:1;" d="M 8.40625 2.136719 L 27.59375 2.136719 C 31.054688 2.136719 33.863281 4.945312 33.863281 8.40625 L 33.863281 27.59375 C 33.863281 31.054688 31.054688 33.863281 27.59375 33.863281 L 8.40625 33.863281 C 4.945312 33.863281 2.136719 31.054688 2.136719 27.59375 L 2.136719 8.40625 C 2.136719 4.945312 4.945312 2.136719 8.40625 2.136719 Z M 8.40625 2.136719 "/>
<path style=" stroke:none;fill-rule:nonzero;fill:rgb(100%,100%,100%);fill-opacity:1;" d="M 18.902344 2.160156 L 18.910156 13.394531 L 18.925781 25.753906 L 22.335938 25.753906 L 22.34375 22.503906 C 22.351562 19.933594 22.359375 19.257812 22.386719 19.269531 C 22.410156 19.277344 22.960938 20.261719 23.621094 21.457031 C 24.277344 22.652344 24.902344 23.765625 25.003906 23.929688 C 25.214844 24.273438 25.625 24.75 25.890625 24.953125 C 26.453125 25.378906 27.035156 25.601562 27.9375 25.722656 C 28.417969 25.789062 30.046875 25.808594 30.097656 25.753906 C 30.121094 25.726562 30.128906 25.140625 30.121094 23.890625 L 30.113281 22.0625 L 29.511719 22.042969 C 28.828125 22.015625 28.679688 21.984375 28.292969 21.765625 C 27.988281 21.59375 27.640625 21.222656 27.378906 20.804688 C 27.289062 20.65625 26.820312 19.816406 26.34375 18.9375 C 25.503906 17.394531 25.480469 17.34375 25.527344 17.261719 C 25.550781 17.21875 26.597656 15.53125 27.851562 13.515625 C 29.105469 11.5 30.140625 9.832031 30.152344 9.804688 C 30.164062 9.765625 29.84375 9.757812 28.132812 9.757812 L 26.09375 9.757812 L 24.257812 12.707031 C 23.246094 14.328125 22.40625 15.660156 22.386719 15.667969 C 22.351562 15.679688 22.351562 6.277344 22.371094 2.175781 C 22.261719 2.175781 22.15625 2.164062 22.046875 2.164062 L 18.902344 2.164062 Z M 11.316406 10.035156 C 10.894531 10.039062 10.484375 10.058594 10.289062 10.097656 C 8.667969 10.40625 7.519531 11.277344 6.898438 12.671875 C 6.699219 13.117188 6.578125 13.542969 6.503906 14.0625 C 6.453125 14.410156 6.449219 14.558594 6.460938 15.125 C 6.472656 15.582031 6.492188 15.875 6.53125 16.097656 C 6.804688 17.632812 7.582031 18.609375 8.9375 19.117188 C 9.375 19.28125 9.648438 19.34375 10.820312 19.539062 C 11.46875 19.644531 11.964844 19.742188 12.070312 19.785156 C 12.515625 19.96875 12.726562 20.300781 12.761719 20.878906 C 12.8125 21.59375 12.464844 22.082031 11.761719 22.285156 C 11.480469 22.367188 10.964844 22.414062 10.605469 22.390625 C 9.414062 22.3125 8.636719 22.019531 7.964844 21.390625 L 7.886719 21.316406 L 6.867188 22.507812 C 6.308594 23.164062 5.847656 23.726562 5.847656 23.757812 C 5.847656 23.839844 6.320312 24.308594 6.679688 24.59375 C 7.589844 25.308594 8.554688 25.644531 10.085938 25.777344 C 10.40625 25.804688 11.59375 25.761719 11.867188 25.714844 C 13.925781 25.355469 15.347656 24.121094 15.8125 22.289062 C 16.03125 21.4375 16.023438 20.152344 15.800781 19.195312 C 15.640625 18.496094 15.425781 18.054688 15.015625 17.570312 C 14.582031 17.0625 14.210938 16.800781 13.558594 16.542969 C 13.121094 16.371094 12.75 16.289062 11.578125 16.097656 C 10.324219 15.890625 10.175781 15.839844 9.890625 15.527344 C 9.566406 15.175781 9.511719 14.707031 9.730469 14.191406 C 9.882812 13.828125 10.195312 13.5625 10.644531 13.417969 C 10.878906 13.34375 11.820312 13.335938 12.195312 13.40625 C 12.699219 13.5 13.175781 13.730469 13.511719 14.046875 C 13.609375 14.140625 13.707031 14.21875 13.726562 14.21875 C 13.78125 14.21875 15.730469 11.925781 15.730469 11.859375 C 15.730469 11.785156 15.355469 11.410156 14.988281 11.125 C 14.285156 10.570312 13.445312 10.230469 12.398438 10.078125 C 12.164062 10.046875 11.738281 10.03125 11.316406 10.035156 Z M 11.316406 10.035156 "/>
</g>
</svg>
