<?xml version="1.0" encoding="UTF-8"?>
<svg xmlns="http://www.w3.org/2000/svg" xmlns:xlink="http://www.w3.org/1999/xlink" width="36pt" height="36pt" viewBox="0 0 36 36" version="1.1">
<g id="surface1">
<path style=" stroke:none;fill-rule:evenodd;fill:rgb(0%,49.411765%,100%);fill-opacity:1;" d="M 8.40625 2.136719 L 27.59375 2.136719 C 31.054688 2.136719 33.863281 4.945312 33.863281 8.40625 L 33.863281 27.59375 C 33.863281 31.054688 31.054688 33.863281 27.59375 33.863281 L 8.40625 33.863281 C 4.945312 33.863281 2.136719 31.054688 2.136719 27.59375 L 2.136719 8.40625 C 2.136719 4.945312 4.945312 2.136719 8.40625 2.136719 Z M 8.40625 2.136719 "/>
<path style=" stroke:none;fill-rule:nonzero;fill:rgb(52.156863%,52.156863%,52.156863%);fill-opacity:1;" d="M 18 11.988281 C 14.679688 11.988281 11.988281 14.679688 11.988281 18 C 11.988281 21.320312 14.679688 24.011719 18 24.011719 C 21.320312 24.011719 24.011719 21.320312 24.011719 18 C 24.011719 14.679688 21.320312 11.988281 18 11.988281 Z M 18 15.597656 C 19.328125 15.597656 20.402344 16.671875 20.402344 18 C 20.402344 19.328125 19.328125 20.402344 18 20.402344 C 16.671875 20.402344 15.597656 19.328125 15.597656 18 C 15.597656 16.671875 16.671875 15.597656 18 15.597656 Z M 18 15.597656 "/>
<path style=" stroke:none;fill-rule:nonzero;fill:rgb(80%,80%,80%);fill-opacity:1;" d="M 18 5.980469 C 11.339844 5.980469 5.980469 11.339844 5.980469 18 C 5.980469 24.660156 11.339844 30.019531 18 30.019531 C 24.660156 30.019531 30.019531 24.660156 30.019531 18 C 30.019531 11.339844 24.660156 5.980469 18 5.980469 Z M 18 13.191406 C 20.65625 13.191406 22.808594 15.34375 22.808594 18 C 22.808594 20.65625 20.65625 22.808594 18 22.808594 C 15.34375 22.808594 13.191406 20.65625 13.191406 18 C 13.191406 15.34375 15.34375 13.191406 18 13.191406 Z M 18 13.191406 "/>
<path style=" stroke:none;fill-rule:nonzero;fill:rgb(100%,62.352941%,14.901961%);fill-opacity:1;" d="M 26.566406 17.984375 C 25.136719 19.988281 20.273438 25.636719 22.34375 28.90625 C 23.945312 31.433594 29.394531 31.445312 30.976562 28.90625 C 33.039062 25.601562 27.785156 19.988281 26.566406 17.984375 Z M 26.566406 17.984375 "/>
<path style=" stroke:none;fill-rule:nonzero;fill:rgb(100%,100%,100%);fill-opacity:1;" d="M 20.664062 18 C 20.664062 19.472656 19.472656 20.664062 18 20.664062 C 16.527344 20.664062 15.335938 19.472656 15.335938 18 C 15.335938 16.527344 16.527344 15.335938 18 15.335938 C 19.472656 15.335938 20.664062 16.527344 20.664062 18 Z M 20.664062 18 "/>
</g>
</svg>
