<?xml version="1.0" encoding="UTF-8"?>
<svg xmlns="http://www.w3.org/2000/svg" xmlns:xlink="http://www.w3.org/1999/xlink" width="36pt" height="36pt" viewBox="0 0 36 36" version="1.1">
<defs>
<clipPath id="clip1">
  <rect width="36" height="36"/>
</clipPath>
<g id="surface6" clip-path="url(#clip1)">
<path style=" stroke:none;fill-rule:nonzero;fill:rgb(100%,100%,100%);fill-opacity:1;" d="M 5.90625 19.101562 C 5.855469 19.101562 5.8125 19.144531 5.804688 19.203125 L 5.625 20.644531 L 5.804688 22.058594 C 5.8125 22.117188 5.855469 22.15625 5.90625 22.15625 C 5.957031 22.15625 5.996094 22.117188 6.003906 22.058594 L 6.21875 20.644531 L 6.003906 19.203125 C 5.996094 19.144531 5.957031 19.101562 5.90625 19.101562 Z M 6.921875 18.316406 C 6.914062 18.253906 6.871094 18.210938 6.820312 18.210938 C 6.765625 18.210938 6.722656 18.253906 6.71875 18.316406 C 6.71875 18.316406 6.472656 20.644531 6.472656 20.644531 L 6.71875 22.917969 C 6.722656 22.980469 6.765625 23.023438 6.820312 23.023438 C 6.871094 23.023438 6.914062 22.980469 6.921875 22.917969 L 7.199219 20.644531 Z M 10.757812 16.171875 C 10.65625 16.171875 10.574219 16.253906 10.570312 16.363281 L 10.375 20.644531 L 10.570312 23.410156 C 10.574219 23.519531 10.65625 23.605469 10.757812 23.605469 C 10.855469 23.605469 10.9375 23.519531 10.945312 23.410156 L 11.164062 20.644531 L 10.945312 16.363281 C 10.9375 16.253906 10.855469 16.171875 10.757812 16.171875 Z M 8.773438 17.660156 C 8.695312 17.660156 8.632812 17.722656 8.628906 17.808594 L 8.410156 20.644531 L 8.628906 23.386719 C 8.632812 23.472656 8.695312 23.539062 8.773438 23.539062 C 8.847656 23.539062 8.910156 23.472656 8.917969 23.386719 L 9.164062 20.644531 L 8.917969 17.808594 C 8.910156 17.722656 8.847656 17.65625 8.773438 17.65625 Z M 12.773438 23.605469 C 12.898438 23.605469 12.996094 23.5 13.003906 23.367188 L 13.191406 20.648438 L 13.003906 14.949219 C 13 14.816406 12.898438 14.710938 12.773438 14.710938 C 12.648438 14.710938 12.546875 14.816406 12.542969 14.949219 C 12.542969 14.949219 12.375 20.648438 12.375 20.648438 L 12.542969 23.367188 C 12.546875 23.5 12.648438 23.605469 12.773438 23.605469 Z M 16.902344 23.617188 C 17.074219 23.617188 17.210938 23.46875 17.214844 23.289062 L 17.214844 23.292969 L 17.214844 23.289062 L 17.347656 20.648438 L 17.214844 14.066406 C 17.210938 13.886719 17.074219 13.738281 16.902344 13.738281 C 16.730469 13.738281 16.589844 13.886719 16.585938 14.066406 L 16.46875 20.644531 C 16.46875 20.648438 16.585938 23.292969 16.585938 23.292969 C 16.589844 23.46875 16.730469 23.617188 16.902344 23.617188 Z M 14.820312 23.605469 C 14.96875 23.605469 15.089844 23.480469 15.09375 23.324219 L 15.253906 20.648438 L 15.09375 14.90625 C 15.089844 14.75 14.96875 14.625 14.820312 14.625 C 14.671875 14.625 14.554688 14.75 14.550781 14.90625 L 14.40625 20.648438 L 14.550781 23.324219 C 14.554688 23.480469 14.671875 23.605469 14.820312 23.605469 Z M 9.761719 23.582031 C 9.847656 23.582031 9.921875 23.507812 9.925781 23.410156 L 10.160156 20.644531 L 9.925781 18.011719 C 9.921875 17.914062 9.847656 17.839844 9.761719 17.839844 C 9.671875 17.839844 9.601562 17.914062 9.59375 18.011719 L 9.390625 20.644531 L 9.59375 23.410156 C 9.601562 23.507812 9.671875 23.582031 9.761719 23.582031 Z M 7.792969 23.429688 C 7.855469 23.429688 7.910156 23.375 7.917969 23.304688 L 8.179688 20.644531 L 7.917969 17.882812 C 7.910156 17.808594 7.855469 17.757812 7.792969 17.757812 C 7.726562 17.757812 7.675781 17.808594 7.667969 17.882812 C 7.667969 17.882812 7.4375 20.644531 7.4375 20.644531 L 7.667969 23.304688 C 7.675781 23.378906 7.726562 23.429688 7.792969 23.429688 Z M 15.859375 14.8125 C 15.695312 14.8125 15.566406 14.945312 15.566406 15.117188 L 15.433594 20.648438 L 15.566406 23.308594 C 15.566406 23.476562 15.695312 23.613281 15.859375 23.613281 C 16.019531 23.613281 16.148438 23.476562 16.152344 23.304688 L 16.152344 23.308594 L 16.296875 20.648438 L 16.152344 15.117188 C 16.148438 14.945312 16.019531 14.8125 15.859375 14.8125 Z M 11.761719 23.609375 C 11.875 23.609375 11.964844 23.515625 11.96875 23.394531 L 12.175781 20.644531 L 11.96875 15.386719 C 11.964844 15.265625 11.875 15.171875 11.761719 15.171875 C 11.648438 15.171875 11.558594 15.265625 11.554688 15.386719 C 11.554688 15.386719 11.371094 20.644531 11.371094 20.644531 L 11.554688 23.394531 C 11.558594 23.515625 11.648438 23.609375 11.761719 23.609375 Z M 14.042969 23.351562 L 14.042969 23.347656 L 14.21875 20.648438 L 14.042969 14.757812 C 14.039062 14.609375 13.929688 14.496094 13.792969 14.496094 C 13.65625 14.496094 13.546875 14.609375 13.542969 14.757812 L 13.386719 20.648438 L 13.542969 23.351562 C 13.546875 23.496094 13.65625 23.609375 13.792969 23.609375 C 13.929688 23.609375 14.039062 23.496094 14.042969 23.347656 Z M 27.332031 17.25 C 26.914062 17.25 26.515625 17.339844 26.152344 17.5 C 25.910156 14.628906 23.609375 12.375 20.804688 12.375 C 20.117188 12.375 19.449219 12.515625 18.855469 12.753906 C 18.628906 12.847656 18.566406 12.945312 18.5625 13.128906 L 18.5625 23.242188 C 18.566406 23.4375 18.710938 23.601562 18.890625 23.621094 C 18.898438 23.621094 27.277344 23.625 27.332031 23.625 C 29.011719 23.625 30.375 22.199219 30.375 20.4375 C 30.375 18.679688 29.011719 17.25 27.332031 17.25 Z M 17.941406 13.121094 C 17.757812 13.121094 17.609375 13.277344 17.605469 13.472656 L 17.46875 20.648438 L 17.605469 23.253906 C 17.609375 23.445312 17.757812 23.601562 17.941406 23.601562 C 18.125 23.601562 18.273438 23.445312 18.277344 23.25 L 18.277344 23.253906 L 18.425781 20.648438 L 18.277344 13.472656 C 18.273438 13.277344 18.125 13.121094 17.941406 13.121094 Z M 17.941406 13.121094 "/>
</g>
</defs>
<g id="surface1">
<path style=" stroke:none;fill-rule:evenodd;fill:rgb(100%,53.333333%,20%);fill-opacity:1;" d="M 8.40625 2.136719 L 27.59375 2.136719 C 31.054688 2.136719 33.863281 4.945312 33.863281 8.40625 L 33.863281 27.59375 C 33.863281 31.054688 31.054688 33.863281 27.59375 33.863281 L 8.40625 33.863281 C 4.945312 33.863281 2.136719 31.054688 2.136719 27.59375 L 2.136719 8.40625 C 2.136719 4.945312 4.945312 2.136719 8.40625 2.136719 Z M 8.40625 2.136719 "/>
<use xlink:href="#surface6"/>
</g>
</svg>
