<?xml version="1.0" encoding="UTF-8"?>
<svg xmlns="http://www.w3.org/2000/svg" xmlns:xlink="http://www.w3.org/1999/xlink" width="36pt" height="36pt" viewBox="0 0 36 36" version="1.1">
<defs>
<clipPath id="clip1">
  <rect width="36" height="36"/>
</clipPath>
<g id="surface6" clip-path="url(#clip1)">
<path style=" stroke:none;fill-rule:nonzero;fill:rgb(49.803922%,58.823529%,63.137255%);fill-opacity:1;" d="M 30.375 18 C 30.375 11.164062 24.835938 5.625 18 5.625 C 11.164062 5.625 5.625 11.164062 5.625 18 C 5.625 24.835938 11.164062 30.375 18 30.375 C 24.835938 30.375 30.375 24.835938 30.375 18 Z M 30.375 18 "/>
</g>
</defs>
<g id="surface1">
<path style=" stroke:none;fill-rule:evenodd;fill:rgb(37.254902%,48.627451%,54.117647%);fill-opacity:1;" d="M 8.40625 2.136719 L 27.59375 2.136719 C 31.054688 2.136719 33.863281 4.945312 33.863281 8.40625 L 33.863281 27.59375 C 33.863281 31.054688 31.054688 33.863281 27.59375 33.863281 L 8.40625 33.863281 C 4.945312 33.863281 2.136719 31.054688 2.136719 27.59375 L 2.136719 8.40625 C 2.136719 4.945312 4.945312 2.136719 8.40625 2.136719 Z M 8.40625 2.136719 "/>
<use xlink:href="#surface6"/>
<path style=" stroke:none;fill-rule:nonzero;fill:rgb(87.45098%,89.803922%,90.980392%);fill-opacity:1;" d="M 18 8.71875 L 15.496094 11.726562 C 13.003906 12.71875 11.25 15.15625 11.25 18 C 11.25 21.726562 14.273438 24.75 18 24.75 C 21.726562 24.75 24.75 21.726562 24.75 18 C 24.75 15.15625 22.996094 12.71875 20.503906 11.722656 Z M 18 8.71875 "/>
</g>
</svg>
