<?xml version="1.0" encoding="UTF-8"?>
<svg xmlns="http://www.w3.org/2000/svg" xmlns:xlink="http://www.w3.org/1999/xlink" width="36pt" height="36pt" viewBox="0 0 36 36" version="1.1">
<g id="surface1">
<path style=" stroke:none;fill-rule:evenodd;fill:rgb(23.529412%,34.117647%,44.313725%);fill-opacity:1;" d="M 8.40625 2.136719 L 27.59375 2.136719 C 31.054688 2.136719 33.863281 4.945312 33.863281 8.40625 L 33.863281 27.59375 C 33.863281 31.054688 31.054688 33.863281 27.59375 33.863281 L 8.40625 33.863281 C 4.945312 33.863281 2.136719 31.054688 2.136719 27.59375 L 2.136719 8.40625 C 2.136719 4.945312 4.945312 2.136719 8.40625 2.136719 Z M 8.40625 2.136719 "/>
<path style=" stroke:none;fill-rule:nonzero;fill:rgb(39.215686%,87.058824%,86.27451%);fill-opacity:1;" d="M 18 4.972656 C 17.066406 4.972656 16.3125 5.730469 16.3125 6.660156 C 16.3125 7.59375 17.066406 8.347656 18 8.347656 C 18.933594 8.347656 19.6875 7.59375 19.6875 6.660156 C 19.6875 5.730469 18.933594 4.972656 18 4.972656 Z M 11.210938 7.222656 C 10.929688 7.230469 10.652344 7.304688 10.40625 7.449219 C 10.019531 7.671875 9.734375 8.039062 9.621094 8.472656 C 9.503906 8.90625 9.5625 9.367188 9.789062 9.753906 C 10.253906 10.5625 11.285156 10.839844 12.09375 10.371094 C 12.902344 9.90625 13.175781 8.875 12.710938 8.066406 C 12.402344 7.53125 11.828125 7.210938 11.210938 7.222656 Z M 24.789062 7.222656 C 24.171875 7.210938 23.597656 7.53125 23.289062 8.066406 C 22.824219 8.875 23.097656 9.90625 23.90625 10.371094 C 24.714844 10.839844 25.746094 10.5625 26.210938 9.753906 C 26.4375 9.367188 26.496094 8.90625 26.378906 8.472656 C 26.265625 8.039062 25.980469 7.671875 25.59375 7.449219 C 25.347656 7.304688 25.070312 7.230469 24.789062 7.222656 Z M 6.792969 11.722656 C 6.75 11.722656 6.710938 11.722656 6.671875 11.726562 C 6.097656 11.753906 5.578125 12.070312 5.289062 12.566406 C 4.824219 13.375 5.101562 14.40625 5.910156 14.871094 C 6.714844 15.339844 7.746094 15.0625 8.214844 14.253906 C 8.679688 13.449219 8.402344 12.414062 7.597656 11.949219 C 7.351562 11.808594 7.074219 11.730469 6.792969 11.722656 Z M 29.207031 11.722656 C 28.925781 11.730469 28.648438 11.808594 28.402344 11.949219 C 27.597656 12.414062 27.320312 13.449219 27.785156 14.253906 C 28.253906 15.0625 29.285156 15.339844 30.089844 14.871094 C 30.898438 14.40625 31.175781 13.375 30.710938 12.566406 C 30.421875 12.070312 29.902344 11.753906 29.328125 11.726562 C 29.289062 11.722656 29.25 11.722656 29.207031 11.722656 Z M 5.625 18.472656 C 4.691406 18.472656 3.9375 19.230469 3.9375 20.160156 C 3.9375 21.09375 4.691406 21.847656 5.625 21.847656 C 6.558594 21.847656 7.3125 21.09375 7.3125 20.160156 C 7.3125 19.230469 6.558594 18.472656 5.625 18.472656 Z M 30.375 18.472656 C 29.441406 18.472656 28.6875 19.230469 28.6875 20.160156 C 28.6875 21.09375 29.441406 21.847656 30.375 21.847656 C 31.308594 21.847656 32.0625 21.09375 32.0625 20.160156 C 32.0625 19.230469 31.308594 18.472656 30.375 18.472656 Z M 7.835938 24.097656 C 7.554688 24.105469 7.277344 24.183594 7.035156 24.324219 C 6.226562 24.789062 5.949219 25.820312 6.414062 26.628906 C 6.636719 27.019531 7.007812 27.300781 7.4375 27.417969 C 7.871094 27.53125 8.332031 27.472656 8.722656 27.246094 C 9.527344 26.78125 9.804688 25.75 9.339844 24.941406 C 9.03125 24.40625 8.453125 24.082031 7.835938 24.097656 Z M 28.042969 24.097656 C 27.46875 24.125 26.949219 24.445312 26.660156 24.941406 C 26.195312 25.75 26.472656 26.78125 27.277344 27.246094 C 27.667969 27.472656 28.128906 27.53125 28.5625 27.417969 C 28.992188 27.300781 29.363281 27.019531 29.585938 26.628906 C 30.050781 25.820312 29.773438 24.789062 28.964844 24.324219 C 28.722656 24.183594 28.445312 24.105469 28.164062 24.097656 C 28.125 24.097656 28.082031 24.097656 28.042969 24.097656 Z M 28.042969 24.097656 "/>
<path style=" stroke:none;fill-rule:nonzero;fill:rgb(94.117647%,94.901961%,96.862745%);fill-opacity:1;" d="M 27.78125 21.65625 L 18.648438 20.957031 L 19.523438 17.695312 Z M 27.78125 21.65625 "/>
<path style=" stroke:none;fill-rule:nonzero;fill:rgb(14.117647%,18.823529%,24.313725%);fill-opacity:1;" d="M 17.273438 21.753906 C 15.769531 21.351562 14.882812 19.808594 15.28125 18.308594 C 15.683594 16.808594 17.226562 15.917969 18.726562 16.320312 C 20.226562 16.71875 21.117188 18.261719 20.714844 19.761719 C 20.3125 21.261719 18.773438 22.152344 17.273438 21.753906 Z M 17.273438 21.753906 "/>
</g>
</svg>
