<?xml version="1.0" encoding="UTF-8"?>
<svg xmlns="http://www.w3.org/2000/svg" xmlns:xlink="http://www.w3.org/1999/xlink" width="36pt" height="36pt" viewBox="0 0 36 36" version="1.1">
<g id="surface1">
<path style=" stroke:none;fill-rule:evenodd;fill:rgb(19.607843%,29.411765%,42.352941%);fill-opacity:1;" d="M 8.40625 2.136719 L 27.59375 2.136719 C 31.054688 2.136719 33.863281 4.945312 33.863281 8.40625 L 33.863281 27.59375 C 33.863281 31.054688 31.054688 33.863281 27.59375 33.863281 L 8.40625 33.863281 C 4.945312 33.863281 2.136719 31.054688 2.136719 27.59375 L 2.136719 8.40625 C 2.136719 4.945312 4.945312 2.136719 8.40625 2.136719 Z M 8.40625 2.136719 "/>
<path style=" stroke:none;fill-rule:nonzero;fill:rgb(100%,100%,100%);fill-opacity:1;" d="M 16.875 19.125 C 15.011719 19.125 13.5 20.636719 13.5 22.5 C 13.5 24.363281 15.011719 25.875 16.875 25.875 C 18.738281 25.875 20.25 24.363281 20.25 22.5 C 20.25 20.636719 18.738281 19.125 16.875 19.125 Z M 16.875 20.25 C 18.117188 20.25 19.125 21.257812 19.125 22.5 C 19.125 23.742188 18.117188 24.75 16.875 24.75 C 15.632812 24.75 14.625 23.742188 14.625 22.5 C 14.625 21.257812 15.632812 20.25 16.875 20.25 Z M 16.875 20.25 "/>
<path style=" stroke:none;fill-rule:nonzero;fill:rgb(100%,100%,100%);fill-opacity:1;" d="M 24.75 10.125 C 22.265625 10.125 20.25 12.140625 20.25 14.625 C 20.25 17.109375 22.265625 19.125 24.75 19.125 C 27.234375 19.125 29.25 17.109375 29.25 14.625 C 29.25 12.140625 27.234375 10.125 24.75 10.125 Z M 24.75 11.25 C 26.613281 11.25 28.125 12.761719 28.125 14.625 C 28.125 16.488281 26.613281 18 24.75 18 C 22.886719 18 21.375 16.488281 21.375 14.625 C 21.375 12.761719 22.886719 11.25 24.75 11.25 Z M 24.75 11.25 "/>
<path style=" stroke:none;fill-rule:nonzero;fill:rgb(100%,100%,100%);fill-opacity:1;" d="M 16.835938 19.351562 L 20.773438 13.953125 L 21.789062 17.164062 L 25.351562 18.402344 L 19.871094 22.453125 L 18.609375 20.625 Z M 16.835938 19.351562 "/>
<path style=" stroke:none;fill-rule:nonzero;fill:rgb(100%,100%,100%);fill-opacity:1;" d="M 6.855469 16.222656 C 6.789062 16.808594 6.75 17.398438 6.75 18 C 6.75 18.636719 6.796875 19.261719 6.871094 19.875 L 15.707031 23.496094 C 16.570312 23.851562 17.554688 23.441406 17.90625 22.578125 C 18.261719 21.710938 17.851562 20.730469 16.988281 20.375 Z M 6.855469 16.222656 "/>
<path style=" stroke:none;fill-rule:nonzero;fill:rgb(100%,100%,100%);fill-opacity:1;" d="M 27 14.625 C 27 15.867188 25.992188 16.875 24.75 16.875 C 23.507812 16.875 22.5 15.867188 22.5 14.625 C 22.5 13.382812 23.507812 12.375 24.75 12.375 C 25.992188 12.375 27 13.382812 27 14.625 Z M 27 14.625 "/>
</g>
</svg>
