<?xml version="1.0" encoding="UTF-8"?>
<svg xmlns="http://www.w3.org/2000/svg" xmlns:xlink="http://www.w3.org/1999/xlink" width="36pt" height="36pt" viewBox="0 0 36 36" version="1.1">
<g id="surface1">
<path style=" stroke:none;fill-rule:evenodd;fill:rgb(57.254902%,57.254902%,57.254902%);fill-opacity:1;" d="M 8.40625 2.136719 L 27.59375 2.136719 C 31.054688 2.136719 33.863281 4.945312 33.863281 8.40625 L 33.863281 27.59375 C 33.863281 31.054688 31.054688 33.863281 27.59375 33.863281 L 8.40625 33.863281 C 4.945312 33.863281 2.136719 31.054688 2.136719 27.59375 L 2.136719 8.40625 C 2.136719 4.945312 4.945312 2.136719 8.40625 2.136719 Z M 8.40625 2.136719 "/>
<path style=" stroke:none;fill-rule:nonzero;fill:rgb(30.980392%,30.980392%,30.980392%);fill-opacity:1;" d="M 29.988281 21.671875 L 29.988281 14.328125 C 29.988281 11.628906 27.839844 9.4375 25.191406 9.4375 L 10.808594 9.4375 C 8.160156 9.4375 6.011719 11.628906 6.011719 14.328125 L 6.011719 21.671875 C 6.011719 24.371094 8.160156 26.5625 10.808594 26.5625 L 25.191406 26.5625 C 27.839844 26.5625 29.988281 24.371094 29.988281 21.671875 Z M 29.988281 21.671875 "/>
<path style=" stroke:none;fill-rule:nonzero;fill:rgb(28.235294%,66.666667%,83.529412%);fill-opacity:1;" d="M 26.5625 20.203125 L 26.5625 15.796875 C 26.5625 14.171875 25.035156 12.863281 23.136719 12.863281 L 12.863281 12.863281 C 10.964844 12.863281 9.4375 14.171875 9.4375 15.796875 L 9.4375 20.203125 C 9.4375 21.828125 10.964844 23.136719 12.863281 23.136719 L 15.003906 23.136719 L 18 21.425781 L 20.996094 23.136719 L 23.136719 23.136719 C 25.035156 23.136719 26.5625 21.828125 26.5625 20.203125 Z M 26.5625 20.203125 "/>
<path style=" stroke:none;fill-rule:nonzero;fill:rgb(57.254902%,57.254902%,57.254902%);fill-opacity:1;" d="M 7.722656 15.964844 L 7.722656 19.175781 C 7.722656 19.472656 7.4375 19.710938 7.082031 19.710938 L 5.796875 19.710938 C 5.441406 19.710938 5.15625 19.472656 5.15625 19.175781 L 5.15625 15.964844 C 5.15625 15.671875 5.441406 15.429688 5.796875 15.429688 L 7.082031 15.429688 C 7.4375 15.429688 7.722656 15.671875 7.722656 15.964844 Z M 7.722656 15.964844 "/>
<path style=" stroke:none;fill-rule:nonzero;fill:rgb(57.254902%,57.254902%,57.254902%);fill-opacity:1;" d="M 30.84375 15.964844 L 30.84375 19.175781 C 30.84375 19.472656 30.558594 19.710938 30.203125 19.710938 L 28.917969 19.710938 C 28.5625 19.710938 28.277344 19.472656 28.277344 19.175781 L 28.277344 15.964844 C 28.277344 15.671875 28.5625 15.429688 28.917969 15.429688 L 30.203125 15.429688 C 30.558594 15.429688 30.84375 15.671875 30.84375 15.964844 Z M 30.84375 15.964844 "/>
</g>
</svg>
