<?xml version="1.0" encoding="UTF-8"?>
<svg xmlns="http://www.w3.org/2000/svg" xmlns:xlink="http://www.w3.org/1999/xlink" width="36pt" height="36pt" viewBox="0 0 36 36" version="1.1">
<g id="surface1">
<path style=" stroke:none;fill-rule:evenodd;fill:rgb(15.294118%,43.137255%,83.921569%);fill-opacity:1;" d="M 8.40625 2.136719 L 27.59375 2.136719 C 31.054688 2.136719 33.863281 4.945312 33.863281 8.40625 L 33.863281 27.59375 C 33.863281 31.054688 31.054688 33.863281 27.59375 33.863281 L 8.40625 33.863281 C 4.945312 33.863281 2.136719 31.054688 2.136719 27.59375 L 2.136719 8.40625 C 2.136719 4.945312 4.945312 2.136719 8.40625 2.136719 Z M 8.40625 2.136719 "/>
<path style=" stroke:none;fill-rule:nonzero;fill:rgb(100%,78.823529%,27.843137%);fill-opacity:1;" d="M 17.550781 5.902344 C 16.464844 5.902344 15.414062 6.0625 14.414062 6.335938 C 19.335938 7.703125 22.929688 12.1875 22.929688 17.550781 C 22.929688 22.917969 19.335938 27.402344 14.414062 28.765625 C 15.414062 29.042969 16.464844 29.203125 17.550781 29.203125 C 24.007812 29.203125 29.203125 24.007812 29.203125 17.550781 C 29.203125 11.097656 24.007812 5.902344 17.550781 5.902344 Z M 17.550781 5.902344 "/>
<path style=" stroke:none;fill-rule:nonzero;fill:rgb(27.843137%,54.117647%,100%);fill-opacity:1;" d="M 11.726562 19.34375 L 13.25 22.292969 L 16.65625 22.765625 L 14.191406 25.0625 L 14.773438 28.304688 L 11.726562 26.773438 L 8.679688 28.304688 L 9.261719 25.0625 L 6.796875 22.765625 L 10.203125 22.292969 Z M 11.726562 19.34375 "/>
<path style=" stroke:none;fill-rule:nonzero;fill:rgb(43.529412%,64.313725%,100%);fill-opacity:1;" d="M 16.207031 13.96875 L 17.453125 16.328125 L 20.238281 16.707031 L 18.222656 18.542969 L 18.699219 21.136719 L 16.207031 19.910156 L 13.714844 21.136719 L 14.191406 18.542969 L 12.175781 16.707031 L 14.960938 16.328125 Z M 16.207031 13.96875 "/>
<path style=" stroke:none;fill-rule:nonzero;fill:rgb(56.470588%,72.54902%,100%);fill-opacity:1;" d="M 13.070312 10.382812 L 13.902344 11.859375 L 15.757812 12.09375 L 14.414062 13.242188 L 14.734375 14.863281 L 13.070312 14.097656 L 11.410156 14.863281 L 11.726562 13.242188 L 10.382812 12.09375 L 12.242188 11.859375 Z M 13.070312 10.382812 "/>
<path style=" stroke:none;fill-rule:nonzero;fill:rgb(0%,0%,0%);fill-opacity:0.156863;" d="M 15.992188 6.90625 C 15.453125 6.980469 14.929688 7.09375 14.414062 7.234375 C 19.195312 8.558594 22.714844 12.835938 22.910156 18 C 22.914062 17.851562 22.929688 17.703125 22.929688 17.550781 C 22.929688 12.78125 20.082031 8.710938 15.992188 6.90625 Z M 11.296875 12.875 L 10.382812 12.992188 L 11.578125 14.011719 L 11.726562 13.242188 Z M 14.84375 12.875 L 14.414062 13.242188 L 14.566406 14.011719 L 15.757812 12.992188 Z M 13.070312 14.097656 L 11.601562 14.773438 L 11.410156 15.757812 L 13.070312 14.996094 L 14.734375 15.757812 L 14.539062 14.773438 Z M 13.03125 17.484375 L 12.175781 17.601562 L 14.050781 19.3125 L 14.191406 18.542969 Z M 19.382812 17.484375 L 18.222656 18.542969 L 18.367188 19.3125 L 20.242188 17.601562 Z M 29.179688 18 C 28.941406 24.242188 23.855469 29.203125 17.550781 29.203125 C 17.023438 29.203125 16.503906 29.164062 15.992188 29.09375 C 15.484375 29.316406 14.960938 29.511719 14.414062 29.664062 C 15.414062 29.9375 16.464844 30.097656 17.550781 30.097656 C 24.007812 30.097656 29.203125 24.902344 29.203125 18.449219 C 29.203125 18.296875 29.183594 18.148438 29.179688 18 Z M 16.207031 19.910156 L 13.894531 21.046875 L 13.714844 22.03125 L 16.207031 20.808594 L 18.699219 22.03125 L 18.519531 21.046875 Z M 7.636719 23.546875 L 6.796875 23.664062 L 9.125 25.832031 L 9.261719 25.0625 Z M 15.820312 23.546875 L 14.191406 25.0625 L 14.328125 25.832031 L 16.65625 23.664062 Z M 11.726562 26.773438 L 8.859375 28.214844 L 8.679688 29.203125 L 11.726562 27.671875 L 14.773438 29.203125 L 14.707031 28.839844 C 14.609375 28.8125 14.511719 28.792969 14.414062 28.765625 C 14.503906 28.742188 14.589844 28.707031 14.679688 28.679688 L 14.59375 28.214844 Z M 11.726562 26.773438 "/>
</g>
</svg>
