<?xml version="1.0" encoding="UTF-8"?>
<svg xmlns="http://www.w3.org/2000/svg" xmlns:xlink="http://www.w3.org/1999/xlink" width="36pt" height="36pt" viewBox="0 0 36 36" version="1.1">
<defs>
<clipPath id="clip1">
  <rect width="36" height="36"/>
</clipPath>
<g id="surface6" clip-path="url(#clip1)">
<path style=" stroke:none;fill-rule:nonzero;fill:rgb(100%,75.294118%,29.411765%);fill-opacity:1;" d="M 12.863281 12.433594 L 12.863281 11.578125 L 23.136719 11.578125 L 23.136719 12.433594 Z M 12.863281 12.433594 "/>
</g>
<clipPath id="clip2">
  <rect width="36" height="36"/>
</clipPath>
<g id="surface9" clip-path="url(#clip2)">
<path style=" stroke:none;fill-rule:nonzero;fill:rgb(100%,75.294118%,29.411765%);fill-opacity:1;" d="M 12.863281 15.003906 L 12.863281 14.144531 L 23.136719 14.144531 L 23.136719 15.003906 Z M 12.863281 15.003906 "/>
</g>
<clipPath id="clip3">
  <rect width="36" height="36"/>
</clipPath>
<g id="surface12" clip-path="url(#clip3)">
<path style=" stroke:none;fill-rule:nonzero;fill:rgb(100%,75.294118%,29.411765%);fill-opacity:1;" d="M 12.863281 17.570312 L 12.863281 16.714844 L 23.136719 16.714844 L 23.136719 17.570312 Z M 12.863281 17.570312 "/>
</g>
<clipPath id="clip4">
  <rect width="36" height="36"/>
</clipPath>
<g id="surface15" clip-path="url(#clip4)">
<path style=" stroke:none;fill-rule:nonzero;fill:rgb(100%,75.294118%,29.411765%);fill-opacity:1;" d="M 12.863281 20.140625 L 12.863281 19.285156 L 19.710938 19.285156 L 19.710938 20.140625 Z M 12.863281 20.140625 "/>
</g>
</defs>
<g id="surface1">
<path style=" stroke:none;fill-rule:evenodd;fill:rgb(100%,75.294118%,29.411765%);fill-opacity:1;" d="M 8.40625 2.136719 L 27.59375 2.136719 C 31.054688 2.136719 33.863281 4.945312 33.863281 8.40625 L 33.863281 27.59375 C 33.863281 31.054688 31.054688 33.863281 27.59375 33.863281 L 8.40625 33.863281 C 4.945312 33.863281 2.136719 31.054688 2.136719 27.59375 L 2.136719 8.40625 C 2.136719 4.945312 4.945312 2.136719 8.40625 2.136719 Z M 8.40625 2.136719 "/>
<path style=" stroke:none;fill-rule:nonzero;fill:rgb(30.980392%,30.980392%,30.980392%);fill-opacity:1;" d="M 7.34375 7.296875 C 6.605469 7.296875 6.011719 8.054688 6.011719 8.792969 L 6.011719 23.78125 C 6.011719 24.519531 6.605469 25.25 7.34375 25.277344 L 18.429688 25.277344 L 21.425781 28.703125 L 24.421875 25.277344 L 28.65625 25.277344 C 29.394531 25.277344 29.988281 24.519531 29.988281 23.78125 L 29.988281 8.792969 C 29.988281 8.054688 29.394531 7.296875 28.65625 7.296875 Z M 7.34375 7.296875 "/>
<use xlink:href="#surface6"/>
<use xlink:href="#surface9"/>
<use xlink:href="#surface12"/>
<use xlink:href="#surface15"/>
</g>
</svg>
