<?xml version="1.0" encoding="UTF-8"?>
<svg xmlns="http://www.w3.org/2000/svg" xmlns:xlink="http://www.w3.org/1999/xlink" width="36pt" height="36pt" viewBox="0 0 36 36" version="1.1">
<g id="surface1">
<path style=" stroke:none;fill-rule:evenodd;fill:rgb(85.098039%,59.607843%,0%);fill-opacity:1;" d="M 8.40625 2.136719 L 27.59375 2.136719 C 31.054688 2.136719 33.863281 4.945312 33.863281 8.40625 L 33.863281 27.59375 C 33.863281 31.054688 31.054688 33.863281 27.59375 33.863281 L 8.40625 33.863281 C 4.945312 33.863281 2.136719 31.054688 2.136719 27.59375 L 2.136719 8.40625 C 2.136719 4.945312 4.945312 2.136719 8.40625 2.136719 Z M 8.40625 2.136719 "/>
<path style=" stroke:none;fill-rule:nonzero;fill:rgb(99.607843%,75.294118%,2.352941%);fill-opacity:1;" d="M 18 5.652344 L 14.382812 9.269531 L 9.269531 9.269531 L 9.269531 14.382812 L 5.652344 18 L 9.269531 21.617188 L 9.269531 26.730469 L 14.382812 26.730469 L 18 30.347656 L 21.617188 26.730469 L 26.730469 26.730469 L 26.730469 21.617188 L 30.347656 18 L 26.730469 14.382812 L 26.730469 9.269531 L 21.617188 9.269531 L 18 5.65625 Z M 18 5.652344 "/>
<path style=" stroke:none;fill-rule:nonzero;fill:rgb(99.607843%,80.392157%,21.960784%);fill-opacity:1;" d="M 13.273438 6.59375 L 11.316406 11.316406 L 6.59375 13.277344 L 8.550781 18 L 6.59375 22.722656 L 11.316406 24.683594 L 13.273438 29.40625 L 18 27.449219 L 22.722656 29.40625 L 24.679688 24.683594 L 29.40625 22.722656 L 27.449219 18 L 29.40625 13.273438 L 24.679688 11.316406 L 22.722656 6.59375 L 18 8.546875 Z M 13.273438 6.59375 "/>
<path style=" stroke:none;fill-rule:nonzero;fill:rgb(30.196078%,30.196078%,30.196078%);fill-opacity:1;" d="M 27.496094 18 C 27.496094 12.753906 23.246094 8.503906 18 8.503906 C 12.753906 8.503906 8.503906 12.753906 8.503906 18 C 8.503906 23.246094 12.753906 27.496094 18 27.496094 C 23.246094 27.496094 27.496094 23.246094 27.496094 18 Z M 27.496094 18 "/>
</g>
</svg>
