<?xml version="1.0" encoding="UTF-8"?>
<svg xmlns="http://www.w3.org/2000/svg" xmlns:xlink="http://www.w3.org/1999/xlink" width="36pt" height="36pt" viewBox="0 0 36 36" version="1.1">
<g id="surface1">
<path style=" stroke:none;fill-rule:evenodd;fill:rgb(99.607843%,80.392157%,21.960784%);fill-opacity:1;" d="M 8.410156 2.136719 C 4.933594 2.136719 2.136719 4.933594 2.136719 8.40625 L 2.136719 27.589844 C 2.136719 27.785156 2.226562 27.949219 2.246094 28.140625 C 2.28125 27.777344 2.398438 27.433594 2.644531 27.191406 C 2.921875 26.917969 3.304688 26.75 3.730469 26.75 L 5.195312 26.75 C 5.617188 26.75 6.003906 26.917969 6.28125 27.191406 C 6.558594 27.46875 6.726562 27.84375 6.726562 28.261719 L 6.726562 30.152344 C 6.726562 29.367188 7.054688 28.621094 7.636719 27.945312 C 8.222656 27.265625 9.0625 26.65625 10.097656 26.144531 C 11.128906 25.628906 12.355469 25.214844 13.703125 24.929688 C 15.054688 24.640625 16.53125 24.484375 18.0625 24.484375 C 19.597656 24.484375 21.074219 24.640625 22.421875 24.929688 C 23.773438 25.214844 24.996094 25.628906 26.03125 26.144531 C 27.0625 26.65625 27.90625 27.265625 28.488281 27.945312 C 29.070312 28.621094 29.394531 29.367188 29.398438 30.144531 L 29.398438 28.261719 C 29.398438 27.84375 29.570312 27.46875 29.84375 27.191406 C 30.121094 26.921875 30.503906 26.75 30.929688 26.75 L 32.398438 26.75 C 32.820312 26.75 33.203125 26.917969 33.480469 27.191406 C 33.675781 27.382812 33.726562 27.667969 33.792969 27.9375 C 33.800781 27.816406 33.863281 27.714844 33.863281 27.589844 L 33.863281 8.40625 C 33.863281 4.933594 31.066406 2.136719 27.59375 2.136719 Z M 8.410156 2.136719 "/>
<path style=" stroke:none;fill-rule:nonzero;fill:rgb(30.980392%,30.980392%,30.980392%);fill-opacity:1;" d="M 18.066406 4.082031 C 12.207031 4.082031 7.457031 8.710938 7.457031 14.421875 C 7.457031 15.425781 7.609375 16.394531 7.882812 17.3125 C 7.882812 17.3125 6.261719 23.09375 6.785156 25.945312 C 6.9375 26.777344 7.25 27.578125 7.664062 28.332031 C 9.277344 26.15625 13.425781 24.710938 18.0625 24.710938 C 22.699219 24.710938 26.847656 26.152344 28.464844 28.324219 C 28.878906 27.574219 29.191406 26.773438 29.34375 25.945312 C 29.867188 23.09375 28.246094 17.3125 28.246094 17.3125 C 28.519531 16.394531 28.671875 15.425781 28.671875 14.417969 C 28.671875 8.710938 23.925781 4.082031 18.066406 4.082031 Z M 18.066406 4.082031 "/>
<path style=" stroke:none;fill-rule:nonzero;fill:rgb(100%,100%,100%);fill-opacity:1;" d="M 14.664062 12.015625 C 14.664062 13.265625 13.648438 14.28125 12.394531 14.28125 C 11.144531 14.28125 10.128906 13.265625 10.128906 12.015625 C 10.128906 10.761719 11.144531 9.75 12.394531 9.75 C 13.648438 9.75 14.664062 10.761719 14.664062 12.015625 Z M 14.664062 12.015625 "/>
<path style=" stroke:none;fill-rule:nonzero;fill:rgb(100%,100%,100%);fill-opacity:1;" d="M 25.996094 12.015625 C 25.996094 13.265625 24.984375 14.28125 23.730469 14.28125 C 22.480469 14.28125 21.464844 13.265625 21.464844 12.015625 C 21.464844 10.761719 22.480469 9.75 23.730469 9.75 C 24.984375 9.75 25.996094 10.761719 25.996094 12.015625 Z M 25.996094 12.015625 "/>
<path style=" stroke:none;fill-rule:nonzero;fill:rgb(100%,100%,100%);fill-opacity:1;" d="M 25.996094 23.917969 C 25.996094 19.097656 22.445312 15.1875 18.0625 15.1875 C 13.683594 15.1875 10.128906 19.097656 10.128906 23.917969 C 10.128906 28.738281 13.683594 32.644531 18.0625 32.644531 C 22.445312 32.644531 25.996094 28.738281 25.996094 23.917969 Z M 25.996094 23.917969 "/>
<path style=" stroke:none;fill-rule:nonzero;fill:rgb(18.823529%,18.823529%,18.823529%);fill-opacity:1;" d="M 13.53125 12.015625 C 13.53125 12.640625 13.023438 13.148438 12.394531 13.148438 C 11.769531 13.148438 11.261719 12.640625 11.261719 12.015625 C 11.261719 11.390625 11.769531 10.882812 12.394531 10.882812 C 13.023438 10.882812 13.53125 11.390625 13.53125 12.015625 Z M 13.53125 12.015625 "/>
<path style=" stroke:none;fill-rule:nonzero;fill:rgb(18.823529%,18.823529%,18.823529%);fill-opacity:1;" d="M 24.863281 12.015625 C 24.863281 12.640625 24.355469 13.148438 23.730469 13.148438 C 23.105469 13.148438 22.597656 12.640625 22.597656 12.015625 C 22.597656 11.390625 23.105469 10.882812 23.730469 10.882812 C 24.355469 10.882812 24.863281 11.390625 24.863281 12.015625 Z M 24.863281 12.015625 "/>
<path style=" stroke:none;fill-rule:nonzero;fill:rgb(80.392157%,32.156863%,32.156863%);fill-opacity:1;" d="M 15.796875 13.148438 L 20.332031 13.148438 C 19.96875 16.640625 18.0625 19.949219 18.0625 19.949219 C 18.0625 19.949219 15.796875 16.023438 15.796875 13.148438 Z M 15.796875 13.148438 "/>
<path style=" stroke:none;fill-rule:nonzero;fill:rgb(18.823529%,18.823529%,18.823529%);fill-opacity:1;" d="M 18.0625 19.949219 C 15.558594 19.949219 13.53125 21.980469 13.53125 24.484375 C 13.53125 26.988281 15.558594 29.015625 18.0625 29.015625 C 20.566406 29.015625 22.597656 26.988281 22.597656 24.484375 C 22.597656 21.980469 20.566406 19.949219 18.0625 19.949219 Z M 18.0625 21.761719 C 18.710938 21.761719 19.339844 21.996094 19.832031 22.417969 L 18.0625 23.4375 L 16.296875 22.417969 C 16.789062 21.996094 17.417969 21.765625 18.0625 21.761719 Z M 20.738281 23.984375 C 20.769531 24.148438 20.785156 24.316406 20.785156 24.484375 C 20.785156 25.636719 20.058594 26.660156 18.972656 27.046875 L 18.972656 25.003906 Z M 15.390625 23.988281 L 17.15625 25.003906 L 17.15625 27.042969 C 16.070312 26.660156 15.34375 25.636719 15.34375 24.484375 C 15.34375 24.316406 15.359375 24.152344 15.390625 23.988281 Z M 15.390625 23.988281 "/>
<path style=" stroke:none;fill-rule:nonzero;fill:rgb(30.980392%,30.980392%,30.980392%);fill-opacity:1;" d="M 14.484375 17.941406 C 12.09375 16.585938 9.269531 16.382812 8.179688 17.492188 C 7.085938 18.597656 8.140625 20.597656 10.53125 21.957031 C 12.925781 23.3125 15.75 23.515625 16.839844 22.410156 C 17.933594 21.300781 16.878906 19.300781 14.484375 17.941406 Z M 14.484375 17.941406 "/>
<path style=" stroke:none;fill-rule:nonzero;fill:rgb(30.980392%,30.980392%,30.980392%);fill-opacity:1;" d="M 21.640625 17.941406 C 24.035156 16.585938 26.859375 16.382812 27.949219 17.492188 C 29.042969 18.597656 27.988281 20.597656 25.59375 21.957031 C 23.203125 23.3125 20.378906 23.515625 19.289062 22.410156 C 18.195312 21.300781 19.25 19.300781 21.640625 17.941406 Z M 21.640625 17.941406 "/>
<path style=" stroke:none;fill-rule:evenodd;fill:rgb(96.078431%,26.27451%,16.470588%);fill-opacity:1;" d="M 29.398438 30.144531 C 29.394531 29.367188 29.070312 28.621094 28.488281 27.945312 C 27.90625 27.265625 27.0625 26.65625 26.03125 26.144531 C 24.996094 25.628906 23.773438 25.214844 22.421875 24.929688 C 21.074219 24.640625 19.597656 24.484375 18.0625 24.484375 C 16.53125 24.484375 15.054688 24.640625 13.703125 24.929688 C 12.355469 25.214844 11.128906 25.628906 10.097656 26.144531 C 9.0625 26.65625 8.222656 27.265625 7.636719 27.945312 C 7.054688 28.621094 6.726562 29.367188 6.726562 30.152344 C 6.726562 31.292969 6.726562 32.339844 6.726562 33.527344 C 7.273438 33.679688 7.8125 33.863281 8.410156 33.863281 L 27.59375 33.863281 C 28.234375 33.863281 28.816406 33.679688 29.398438 33.5 L 29.398438 31.285156 C 29.398438 31.285156 29.390625 30.703125 29.398438 30.15625 Z M 29.398438 30.144531 "/>
<path style=" stroke:none;fill-rule:evenodd;fill:rgb(100%,100%,100%);fill-opacity:1;" d="M 19.953125 28.640625 C 19.742188 28.640625 19.574219 28.976562 19.574219 29.394531 L 19.574219 30.90625 C 19.574219 31.324219 19.742188 31.660156 19.953125 31.660156 C 20.164062 31.660156 20.332031 31.324219 20.332031 30.90625 L 20.332031 29.394531 C 20.332031 28.976562 20.164062 28.640625 19.953125 28.640625 Z M 19.953125 28.640625 "/>
<path style=" stroke:none;fill-rule:evenodd;fill:rgb(100%,100%,100%);fill-opacity:1;" d="M 19.953125 28.640625 C 20.164062 28.640625 20.332031 28.976562 20.332031 29.394531 L 20.332031 30.90625 C 20.332031 31.324219 20.164062 31.660156 19.953125 31.660156 C 19.742188 31.660156 19.574219 31.324219 19.574219 30.90625 L 19.574219 29.394531 C 19.574219 28.976562 19.742188 28.640625 19.953125 28.640625 Z M 19.953125 28.640625 "/>
<path style=" stroke:none;fill-rule:evenodd;fill:rgb(100%,100%,100%);fill-opacity:1;" d="M 16.175781 28.640625 C 15.964844 28.640625 15.796875 28.976562 15.796875 29.394531 L 15.796875 30.90625 C 15.796875 31.324219 15.964844 31.660156 16.175781 31.660156 C 16.382812 31.660156 16.550781 31.324219 16.550781 30.90625 L 16.550781 29.394531 C 16.550781 28.976562 16.382812 28.640625 16.175781 28.640625 Z M 16.175781 28.640625 "/>
<path style=" stroke:none;fill-rule:evenodd;fill:rgb(100%,100%,100%);fill-opacity:1;" d="M 16.175781 28.640625 C 16.382812 28.640625 16.550781 28.976562 16.550781 29.394531 L 16.550781 30.90625 C 16.550781 31.324219 16.382812 31.660156 16.175781 31.660156 C 15.964844 31.660156 15.796875 31.324219 15.796875 30.90625 L 15.796875 29.394531 C 15.796875 28.976562 15.964844 28.640625 16.175781 28.640625 Z M 16.175781 28.640625 "/>
<path style=" stroke:none;fill-rule:evenodd;fill:rgb(100%,100%,100%);fill-opacity:1;" d="M 17.6875 27.882812 C 17.476562 27.882812 17.308594 28.390625 17.308594 29.015625 L 17.308594 31.285156 C 17.308594 31.914062 17.476562 32.417969 17.6875 32.417969 C 17.894531 32.417969 18.0625 31.914062 18.0625 31.285156 C 18.0625 31.914062 18.234375 32.417969 18.441406 32.417969 C 18.652344 32.417969 18.820312 31.914062 18.820312 31.285156 L 18.820312 29.015625 C 18.820312 28.390625 18.652344 27.882812 18.441406 27.882812 C 18.230469 27.882812 18.0625 28.390625 18.0625 29.015625 C 18.0625 28.390625 17.894531 27.882812 17.6875 27.882812 Z M 17.6875 27.882812 "/>
<path style=" stroke:none;fill-rule:evenodd;fill:rgb(100%,100%,100%);fill-opacity:1;" d="M 17.6875 27.882812 C 17.894531 27.882812 18.0625 28.390625 18.0625 29.015625 C 18.0625 28.390625 18.230469 27.882812 18.441406 27.882812 C 18.652344 27.882812 18.820312 28.390625 18.820312 29.015625 L 18.820312 31.285156 C 18.820312 31.914062 18.652344 32.417969 18.441406 32.417969 C 18.234375 32.417969 18.0625 31.914062 18.0625 31.285156 C 18.0625 31.914062 17.894531 32.417969 17.6875 32.417969 C 17.476562 32.417969 17.308594 31.914062 17.308594 31.285156 L 17.308594 29.015625 C 17.308594 28.390625 17.476562 27.882812 17.6875 27.882812 Z M 17.6875 27.882812 "/>
<path style=" stroke:none;fill-rule:evenodd;fill:rgb(100%,100%,100%);fill-opacity:1;" d="M 24.296875 28.109375 C 24.257812 28.109375 24.214844 28.109375 24.175781 28.113281 C 24.121094 28.117188 24.066406 28.125 24.007812 28.132812 C 23.953125 28.144531 23.898438 28.15625 23.84375 28.167969 C 23.789062 28.183594 23.734375 28.199219 23.683594 28.21875 C 23.628906 28.238281 23.578125 28.257812 23.527344 28.28125 C 23.476562 28.308594 23.425781 28.332031 23.378906 28.363281 C 23.332031 28.390625 23.285156 28.421875 23.242188 28.453125 C 23.195312 28.488281 23.152344 28.523438 23.113281 28.558594 C 23.070312 28.597656 23.035156 28.632812 22.996094 28.675781 C 22.960938 28.714844 22.925781 28.757812 22.894531 28.800781 C 22.863281 28.84375 22.832031 28.890625 22.804688 28.9375 C 22.777344 28.980469 22.753906 29.03125 22.730469 29.078125 C 22.710938 29.128906 22.691406 29.175781 22.671875 29.226562 C 22.65625 29.277344 22.644531 29.328125 22.632812 29.382812 C 22.621094 29.433594 22.613281 29.484375 22.605469 29.539062 C 22.601562 29.589844 22.597656 29.644531 22.597656 29.699219 C 22.597656 29.734375 22.597656 29.773438 22.601562 29.808594 C 22.605469 29.863281 22.613281 29.914062 22.625 29.964844 C 22.632812 30.019531 22.644531 30.070312 22.660156 30.121094 C 22.675781 30.171875 22.691406 30.222656 22.714844 30.273438 C 22.734375 30.320312 22.757812 30.371094 22.785156 30.417969 C 22.808594 30.464844 22.835938 30.511719 22.867188 30.554688 C 22.898438 30.601562 22.929688 30.644531 22.964844 30.683594 C 23 30.726562 23.039062 30.765625 23.078125 30.804688 C 23.117188 30.839844 23.160156 30.878906 23.203125 30.910156 C 23.246094 30.945312 23.289062 30.976562 23.335938 31.007812 C 23.382812 31.039062 23.433594 31.0625 23.480469 31.089844 C 23.53125 31.113281 23.582031 31.136719 23.636719 31.160156 C 23.6875 31.179688 23.742188 31.199219 23.792969 31.214844 C 23.847656 31.230469 23.902344 31.242188 23.957031 31.25 C 24.015625 31.261719 24.070312 31.269531 24.128906 31.277344 C 24.183594 31.28125 24.242188 31.285156 24.296875 31.285156 C 24.335938 31.285156 24.378906 31.28125 24.417969 31.28125 C 24.476562 31.277344 24.53125 31.269531 24.585938 31.261719 C 24.644531 31.25 24.699219 31.238281 24.753906 31.226562 C 24.808594 31.210938 24.863281 31.195312 24.914062 31.175781 C 24.96875 31.15625 25.019531 31.136719 25.070312 31.109375 C 25.117188 31.085938 25.167969 31.0625 25.214844 31.03125 C 25.261719 31.003906 25.308594 30.972656 25.355469 30.941406 C 25.398438 30.90625 25.441406 30.871094 25.480469 30.835938 C 25.523438 30.800781 25.5625 30.761719 25.597656 30.71875 C 25.636719 30.679688 25.667969 30.636719 25.703125 30.59375 C 25.734375 30.550781 25.761719 30.503906 25.789062 30.457031 C 25.816406 30.410156 25.839844 30.363281 25.863281 30.316406 C 25.886719 30.265625 25.90625 30.21875 25.921875 30.167969 C 25.9375 30.117188 25.953125 30.0625 25.964844 30.011719 C 25.972656 29.960938 25.984375 29.910156 25.988281 29.855469 C 25.996094 29.804688 25.996094 29.75 25.996094 29.699219 C 25.996094 29.660156 25.996094 29.625 25.992188 29.585938 C 25.988281 29.53125 25.984375 29.480469 25.972656 29.429688 C 25.964844 29.375 25.953125 29.324219 25.9375 29.273438 C 25.921875 29.222656 25.902344 29.171875 25.882812 29.121094 C 25.863281 29.074219 25.839844 29.023438 25.8125 28.976562 C 25.789062 28.929688 25.757812 28.882812 25.726562 28.839844 C 25.695312 28.796875 25.664062 28.753906 25.628906 28.710938 C 25.59375 28.667969 25.554688 28.628906 25.515625 28.589844 C 25.476562 28.554688 25.4375 28.515625 25.394531 28.484375 C 25.351562 28.449219 25.304688 28.417969 25.257812 28.386719 C 25.210938 28.359375 25.164062 28.332031 25.113281 28.304688 C 25.0625 28.28125 25.011719 28.257812 24.957031 28.234375 C 24.90625 28.214844 24.855469 28.195312 24.800781 28.183594 C 24.746094 28.167969 24.691406 28.152344 24.636719 28.140625 C 24.578125 28.132812 24.523438 28.125 24.464844 28.117188 C 24.410156 28.113281 24.355469 28.109375 24.296875 28.109375 Z M 24.296875 28.109375 "/>
<path style=" stroke:none;fill-rule:evenodd;fill:rgb(100%,100%,100%);fill-opacity:1;" d="M 24.296875 28.109375 C 24.355469 28.109375 24.410156 28.113281 24.464844 28.117188 C 24.523438 28.125 24.578125 28.132812 24.636719 28.140625 C 24.691406 28.152344 24.746094 28.167969 24.800781 28.183594 C 24.855469 28.195312 24.90625 28.214844 24.957031 28.234375 C 25.011719 28.253906 25.0625 28.28125 25.113281 28.304688 C 25.164062 28.332031 25.210938 28.359375 25.257812 28.386719 C 25.304688 28.417969 25.351562 28.449219 25.394531 28.484375 C 25.4375 28.515625 25.476562 28.554688 25.515625 28.589844 C 25.554688 28.628906 25.59375 28.667969 25.628906 28.710938 C 25.664062 28.753906 25.695312 28.796875 25.726562 28.839844 C 25.757812 28.882812 25.789062 28.929688 25.8125 28.976562 C 25.839844 29.023438 25.863281 29.074219 25.882812 29.121094 C 25.902344 29.171875 25.921875 29.222656 25.9375 29.273438 C 25.953125 29.324219 25.964844 29.375 25.972656 29.429688 C 25.984375 29.480469 25.988281 29.53125 25.992188 29.585938 C 25.996094 29.625 25.996094 29.660156 25.996094 29.699219 C 25.996094 29.75 25.996094 29.804688 25.988281 29.855469 C 25.984375 29.910156 25.972656 29.960938 25.964844 30.011719 C 25.953125 30.0625 25.9375 30.117188 25.921875 30.167969 C 25.90625 30.21875 25.886719 30.265625 25.863281 30.316406 C 25.839844 30.363281 25.816406 30.410156 25.789062 30.457031 C 25.761719 30.503906 25.734375 30.550781 25.703125 30.59375 C 25.667969 30.636719 25.636719 30.679688 25.597656 30.71875 C 25.5625 30.761719 25.523438 30.800781 25.480469 30.835938 C 25.441406 30.871094 25.398438 30.90625 25.355469 30.941406 C 25.308594 30.972656 25.261719 31.003906 25.214844 31.03125 C 25.167969 31.0625 25.117188 31.085938 25.070312 31.109375 C 25.019531 31.136719 24.96875 31.15625 24.914062 31.175781 C 24.863281 31.195312 24.808594 31.210938 24.753906 31.226562 C 24.699219 31.238281 24.644531 31.25 24.585938 31.261719 C 24.53125 31.269531 24.476562 31.277344 24.417969 31.28125 C 24.378906 31.28125 24.335938 31.285156 24.296875 31.285156 C 24.242188 31.285156 24.183594 31.28125 24.128906 31.277344 C 24.070312 31.269531 24.015625 31.261719 23.957031 31.25 C 23.902344 31.242188 23.847656 31.230469 23.792969 31.214844 C 23.742188 31.199219 23.6875 31.179688 23.636719 31.160156 C 23.582031 31.136719 23.53125 31.113281 23.480469 31.089844 C 23.433594 31.0625 23.382812 31.039062 23.335938 31.007812 C 23.289062 30.976562 23.246094 30.945312 23.203125 30.910156 C 23.160156 30.878906 23.117188 30.839844 23.078125 30.804688 C 23.039062 30.765625 23 30.726562 22.964844 30.683594 C 22.929688 30.644531 22.898438 30.601562 22.867188 30.554688 C 22.835938 30.511719 22.808594 30.464844 22.785156 30.417969 C 22.757812 30.371094 22.734375 30.320312 22.714844 30.273438 C 22.691406 30.222656 22.675781 30.171875 22.660156 30.121094 C 22.644531 30.070312 22.632812 30.019531 22.625 29.964844 C 22.613281 29.914062 22.605469 29.863281 22.601562 29.808594 C 22.597656 29.773438 22.597656 29.734375 22.597656 29.699219 C 22.597656 29.644531 22.601562 29.589844 22.605469 29.539062 C 22.613281 29.484375 22.621094 29.433594 22.632812 29.382812 C 22.644531 29.328125 22.65625 29.277344 22.671875 29.226562 C 22.691406 29.175781 22.710938 29.128906 22.730469 29.078125 C 22.753906 29.03125 22.777344 28.980469 22.804688 28.9375 C 22.832031 28.890625 22.863281 28.84375 22.894531 28.800781 C 22.925781 28.757812 22.960938 28.714844 22.996094 28.675781 C 23.035156 28.632812 23.070312 28.597656 23.113281 28.558594 C 23.152344 28.523438 23.195312 28.488281 23.242188 28.453125 C 23.285156 28.421875 23.332031 28.390625 23.378906 28.363281 C 23.425781 28.332031 23.476562 28.308594 23.527344 28.28125 C 23.578125 28.257812 23.628906 28.238281 23.683594 28.21875 C 23.734375 28.199219 23.789062 28.183594 23.84375 28.167969 C 23.898438 28.15625 23.953125 28.144531 24.007812 28.132812 C 24.066406 28.125 24.121094 28.117188 24.175781 28.113281 C 24.214844 28.109375 24.257812 28.109375 24.296875 28.109375 Z M 24.296875 28.109375 "/>
<path style=" stroke:none;fill-rule:evenodd;fill:rgb(100%,100%,100%);fill-opacity:1;" d="M 11.730469 28.375 C 11.785156 28.378906 11.839844 28.378906 11.898438 28.386719 C 11.953125 28.390625 12.011719 28.398438 12.066406 28.410156 C 12.121094 28.421875 12.175781 28.433594 12.230469 28.449219 C 12.285156 28.464844 12.339844 28.480469 12.390625 28.503906 C 12.441406 28.523438 12.492188 28.546875 12.542969 28.574219 C 12.59375 28.597656 12.640625 28.625 12.6875 28.65625 C 12.734375 28.683594 12.78125 28.714844 12.824219 28.75 C 12.867188 28.785156 12.910156 28.820312 12.949219 28.859375 C 12.988281 28.894531 13.023438 28.9375 13.058594 28.980469 C 13.09375 29.019531 13.128906 29.0625 13.160156 29.105469 C 13.191406 29.152344 13.21875 29.195312 13.246094 29.246094 C 13.269531 29.292969 13.292969 29.339844 13.3125 29.390625 C 13.332031 29.4375 13.351562 29.488281 13.367188 29.539062 C 13.382812 29.589844 13.394531 29.640625 13.40625 29.695312 C 13.414062 29.746094 13.421875 29.800781 13.425781 29.851562 C 13.429688 29.890625 13.429688 29.929688 13.429688 29.964844 C 13.429688 30.019531 13.425781 30.070312 13.421875 30.125 C 13.414062 30.175781 13.40625 30.226562 13.394531 30.28125 C 13.382812 30.332031 13.367188 30.382812 13.351562 30.433594 C 13.335938 30.484375 13.316406 30.535156 13.296875 30.582031 C 13.273438 30.632812 13.246094 30.679688 13.21875 30.726562 C 13.195312 30.773438 13.164062 30.816406 13.132812 30.859375 C 13.101562 30.902344 13.066406 30.945312 13.03125 30.988281 C 12.992188 31.027344 12.953125 31.066406 12.914062 31.105469 C 12.871094 31.140625 12.828125 31.175781 12.785156 31.207031 C 12.742188 31.238281 12.695312 31.269531 12.648438 31.300781 C 12.597656 31.328125 12.550781 31.355469 12.5 31.378906 C 12.449219 31.402344 12.398438 31.425781 12.347656 31.445312 C 12.292969 31.460938 12.238281 31.480469 12.183594 31.492188 C 12.128906 31.507812 12.074219 31.519531 12.019531 31.527344 C 11.960938 31.535156 11.90625 31.542969 11.847656 31.546875 C 11.808594 31.550781 11.769531 31.550781 11.730469 31.550781 C 11.671875 31.550781 11.617188 31.546875 11.558594 31.542969 C 11.503906 31.539062 11.445312 31.53125 11.390625 31.519531 C 11.335938 31.507812 11.28125 31.496094 11.226562 31.480469 C 11.171875 31.464844 11.117188 31.449219 11.066406 31.425781 C 11.015625 31.40625 10.964844 31.382812 10.914062 31.355469 C 10.863281 31.332031 10.816406 31.304688 10.769531 31.273438 C 10.722656 31.246094 10.675781 31.210938 10.632812 31.179688 C 10.589844 31.144531 10.550781 31.109375 10.507812 31.070312 C 10.46875 31.03125 10.433594 30.992188 10.398438 30.953125 C 10.363281 30.910156 10.328125 30.867188 10.296875 30.824219 C 10.269531 30.777344 10.238281 30.730469 10.214844 30.683594 C 10.1875 30.636719 10.164062 30.589844 10.144531 30.539062 C 10.125 30.488281 10.105469 30.441406 10.089844 30.390625 C 10.078125 30.339844 10.0625 30.285156 10.054688 30.234375 C 10.042969 30.183594 10.035156 30.128906 10.03125 30.078125 C 10.03125 30.039062 10.027344 30.003906 10.027344 29.964844 C 10.027344 29.910156 10.03125 29.859375 10.035156 29.804688 C 10.042969 29.753906 10.050781 29.699219 10.0625 29.648438 C 10.074219 29.597656 10.089844 29.546875 10.105469 29.496094 C 10.121094 29.445312 10.140625 29.394531 10.160156 29.347656 C 10.183594 29.296875 10.210938 29.25 10.238281 29.203125 C 10.265625 29.15625 10.292969 29.113281 10.328125 29.070312 C 10.359375 29.023438 10.390625 28.980469 10.429688 28.941406 C 10.464844 28.902344 10.503906 28.863281 10.542969 28.828125 C 10.585938 28.789062 10.628906 28.753906 10.671875 28.722656 C 10.714844 28.6875 10.761719 28.65625 10.808594 28.628906 C 10.859375 28.601562 10.90625 28.574219 10.957031 28.550781 C 11.007812 28.527344 11.058594 28.503906 11.113281 28.484375 C 11.164062 28.464844 11.21875 28.449219 11.273438 28.4375 C 11.328125 28.421875 11.382812 28.410156 11.441406 28.402344 C 11.496094 28.390625 11.550781 28.386719 11.609375 28.382812 C 11.648438 28.378906 11.6875 28.375 11.730469 28.375 Z M 11.730469 28.375 "/>
<path style=" stroke:none;fill-rule:evenodd;fill:rgb(18.823529%,18.823529%,18.823529%);fill-opacity:1;" d="M 33.792969 27.9375 C 33.726562 27.667969 33.675781 27.382812 33.480469 27.191406 C 33.203125 26.917969 32.820312 26.75 32.398438 26.75 L 30.929688 26.75 C 30.503906 26.75 30.121094 26.921875 29.84375 27.191406 C 29.570312 27.46875 29.398438 27.84375 29.398438 28.261719 L 29.398438 33.5 C 31.859375 32.753906 33.640625 30.609375 33.792969 27.9375 Z M 33.792969 27.9375 "/>
<path style=" stroke:none;fill-rule:evenodd;fill:rgb(18.823529%,18.823529%,18.823529%);fill-opacity:1;" d="M 6.726562 33.527344 L 6.726562 28.261719 C 6.726562 27.84375 6.558594 27.46875 6.28125 27.191406 C 6.003906 26.917969 5.617188 26.75 5.195312 26.75 L 3.730469 26.75 C 3.304688 26.75 2.921875 26.917969 2.644531 27.191406 C 2.398438 27.433594 2.28125 27.777344 2.246094 28.140625 C 2.484375 30.761719 4.273438 32.832031 6.726562 33.527344 Z M 6.726562 33.527344 "/>
</g>
</svg>
