<?xml version="1.0" encoding="UTF-8"?>
<svg xmlns="http://www.w3.org/2000/svg" xmlns:xlink="http://www.w3.org/1999/xlink" width="36pt" height="36pt" viewBox="0 0 36 36" version="1.1">
<g id="surface1">
<path style=" stroke:none;fill-rule:evenodd;fill:rgb(92.54902%,92.54902%,92.54902%);fill-opacity:1;" d="M 8.40625 2.136719 L 27.59375 2.136719 C 31.054688 2.136719 33.863281 4.945312 33.863281 8.40625 L 33.863281 27.59375 C 33.863281 31.054688 31.054688 33.863281 27.59375 33.863281 L 8.40625 33.863281 C 4.945312 33.863281 2.136719 31.054688 2.136719 27.59375 L 2.136719 8.40625 C 2.136719 4.945312 4.945312 2.136719 8.40625 2.136719 Z M 8.40625 2.136719 "/>
<path style=" stroke:none;fill-rule:nonzero;fill:rgb(30.980392%,30.980392%,30.980392%);fill-opacity:1;" d="M 25.503906 16.023438 C 25.707031 15.332031 25.816406 14.605469 25.816406 13.855469 C 25.816406 9.570312 22.320312 6.097656 18 6.097656 C 13.683594 6.097656 10.183594 9.570312 10.183594 13.855469 C 10.183594 14.605469 10.296875 15.332031 10.5 16.023438 C 9.515625 16.808594 5.695312 20.207031 7.265625 24.613281 C 7.265625 24.613281 8.597656 24.5 9.6875 22.496094 C 10.019531 23.78125 10.636719 24.945312 11.480469 25.917969 C 10.246094 26.277344 9.410156 26.976562 9.410156 27.78125 C 9.410156 28.953125 11.191406 29.902344 13.386719 29.902344 C 14.878906 29.902344 16.179688 29.464844 16.859375 28.816406 C 17.234375 28.867188 17.613281 28.898438 18 28.898438 C 18.386719 28.898438 18.765625 28.867188 19.140625 28.816406 C 19.824219 29.464844 21.121094 29.902344 22.613281 29.902344 C 24.808594 29.902344 26.59375 28.949219 26.59375 27.78125 C 26.59375 26.980469 25.753906 26.277344 24.519531 25.917969 C 25.363281 24.945312 25.980469 23.78125 26.3125 22.496094 C 27.402344 24.5 28.730469 24.613281 28.730469 24.613281 C 30.304688 20.207031 26.484375 16.804688 25.503906 16.023438 Z M 25.503906 16.023438 "/>
<path style=" stroke:none;fill-rule:nonzero;fill:rgb(100%,100%,100%);fill-opacity:1;" d="M 15.621094 11.652344 C 15.621094 12.527344 14.910156 13.238281 14.03125 13.238281 C 13.15625 13.238281 12.445312 12.527344 12.445312 11.652344 C 12.445312 10.777344 13.15625 10.066406 14.03125 10.066406 C 14.910156 10.066406 15.621094 10.777344 15.621094 11.652344 Z M 15.621094 11.652344 "/>
<path style=" stroke:none;fill-rule:nonzero;fill:rgb(100%,100%,100%);fill-opacity:1;" d="M 23.554688 11.652344 C 23.554688 12.527344 22.84375 13.238281 21.96875 13.238281 C 21.089844 13.238281 20.378906 12.527344 20.378906 11.652344 C 20.378906 10.777344 21.089844 10.066406 21.96875 10.066406 C 22.84375 10.066406 23.554688 10.777344 23.554688 11.652344 Z M 23.554688 11.652344 "/>
<path style=" stroke:none;fill-rule:nonzero;fill:rgb(100%,100%,100%);fill-opacity:1;" d="M 23.554688 20.378906 C 23.554688 16.875 21.066406 14.03125 18 14.03125 C 14.933594 14.03125 12.445312 16.875 12.445312 20.378906 C 12.445312 23.886719 14.933594 26.726562 18 26.726562 C 21.066406 26.726562 23.554688 23.886719 23.554688 20.378906 Z M 23.554688 20.378906 "/>
<path style=" stroke:none;fill-rule:nonzero;fill:rgb(18.823529%,18.823529%,18.823529%);fill-opacity:1;" d="M 15.621094 12.445312 C 15.621094 12.882812 15.265625 13.238281 14.828125 13.238281 C 14.386719 13.238281 14.03125 12.882812 14.03125 12.445312 C 14.03125 12.007812 14.386719 11.652344 14.828125 11.652344 C 15.265625 11.652344 15.621094 12.007812 15.621094 12.445312 Z M 15.621094 12.445312 "/>
<path style=" stroke:none;fill-rule:nonzero;fill:rgb(18.823529%,18.823529%,18.823529%);fill-opacity:1;" d="M 23.554688 12.445312 C 23.554688 12.882812 23.199219 13.238281 22.761719 13.238281 C 22.324219 13.238281 21.96875 12.882812 21.96875 12.445312 C 21.96875 12.007812 22.324219 11.652344 22.761719 11.652344 C 23.199219 11.652344 23.554688 12.007812 23.554688 12.445312 Z M 23.554688 12.445312 "/>
<path style=" stroke:none;fill-rule:nonzero;fill:rgb(80.392157%,32.156863%,32.156863%);fill-opacity:1;" d="M 16.414062 12.445312 L 19.585938 12.445312 C 19.332031 14.890625 18 17.207031 18 17.207031 C 18 17.207031 16.414062 14.457031 16.414062 12.445312 Z M 16.414062 12.445312 "/>
</g>
</svg>
