<?xml version="1.0" encoding="UTF-8"?>
<svg xmlns="http://www.w3.org/2000/svg" xmlns:xlink="http://www.w3.org/1999/xlink" width="36pt" height="36pt" viewBox="0 0 36 36" version="1.1">
<g id="surface1">
<path style=" stroke:none;fill-rule:evenodd;fill:rgb(80%,80%,80%);fill-opacity:1;" d="M 13.394531 7.347656 C 13.855469 6.644531 14.414062 6.027344 15.09375 5.613281 C 15.867188 5.148438 16.742188 4.878906 17.644531 4.824219 C 18.730469 4.757812 19.847656 5.003906 20.871094 5.59375 C 21.550781 5.984375 22.121094 6.492188 22.566406 7.074219 C 23.015625 7.65625 23.34375 8.316406 23.535156 9.007812 C 23.726562 9.699219 23.785156 10.425781 23.703125 11.144531 C 23.628906 11.75 23.398438 12.34375 23.113281 12.914062 C 24.019531 12.472656 24.980469 12.203125 25.933594 12.277344 C 26.828125 12.347656 27.699219 12.636719 28.472656 13.121094 C 29.246094 13.601562 29.917969 14.28125 30.40625 15.128906 C 30.800781 15.8125 31.039062 16.535156 31.136719 17.265625 C 31.230469 17.992188 31.1875 18.722656 31.007812 19.417969 C 30.828125 20.113281 30.519531 20.773438 30.085938 21.351562 C 29.714844 21.847656 29.210938 22.25 28.667969 22.609375 C 29.304688 22.648438 29.933594 22.742188 30.492188 22.984375 C 31.160156 23.269531 31.757812 23.683594 32.261719 24.195312 C 32.761719 24.707031 33.167969 25.320312 33.449219 26 C 33.683594 26.566406 33.773438 27.203125 33.8125 27.847656 C 33.816406 27.757812 33.863281 27.683594 33.863281 27.59375 L 33.863281 8.40625 C 33.863281 4.933594 31.066406 2.136719 27.59375 2.136719 L 8.40625 2.136719 C 8.316406 2.136719 8.242188 2.183594 8.152344 2.1875 C 8.796875 2.226562 9.433594 2.316406 10 2.550781 C 10.679688 2.832031 11.292969 3.238281 11.804688 3.738281 C 12.316406 4.242188 12.730469 4.839844 13.015625 5.507812 C 13.257812 6.070312 13.355469 6.703125 13.394531 7.347656 Z M 13.394531 7.347656 "/>
<path style=" stroke:none;fill-rule:evenodd;fill:rgb(80%,80%,80%);fill-opacity:1;" d="M 8.40625 2.136719 L 27.59375 2.136719 C 31.054688 2.136719 33.863281 4.945312 33.863281 8.40625 L 33.863281 27.59375 C 33.863281 31.054688 31.054688 33.863281 27.59375 33.863281 L 8.40625 33.863281 C 4.945312 33.863281 2.136719 31.054688 2.136719 27.59375 L 2.136719 8.40625 C 2.136719 4.945312 4.945312 2.136719 8.40625 2.136719 Z M 8.40625 2.136719 "/>
<path style=" stroke:none;fill-rule:evenodd;fill:rgb(100%,100%,100%);fill-opacity:1;" d="M 7.789062 25.6875 C 7.730469 25.6875 7.671875 25.691406 7.609375 25.695312 C 7.527344 25.703125 7.441406 25.714844 7.359375 25.726562 C 7.277344 25.742188 7.195312 25.761719 7.113281 25.78125 C 7.03125 25.804688 6.953125 25.832031 6.875 25.863281 C 6.796875 25.894531 6.71875 25.925781 6.644531 25.964844 C 6.570312 26.003906 6.496094 26.042969 6.425781 26.089844 C 6.355469 26.136719 6.289062 26.183594 6.222656 26.234375 C 6.15625 26.289062 6.09375 26.34375 6.03125 26.402344 C 5.972656 26.460938 5.914062 26.523438 5.859375 26.585938 C 5.804688 26.652344 5.753906 26.71875 5.707031 26.789062 C 5.660156 26.855469 5.617188 26.929688 5.574219 27.003906 C 5.535156 27.078125 5.5 27.152344 5.464844 27.230469 C 5.433594 27.308594 5.40625 27.386719 5.378906 27.464844 C 5.355469 27.546875 5.335938 27.628906 5.320312 27.710938 C 5.300781 27.792969 5.289062 27.875 5.28125 27.960938 C 5.273438 28.042969 5.265625 28.125 5.269531 28.210938 C 5.269531 28.269531 5.269531 28.328125 5.273438 28.390625 C 5.28125 28.472656 5.289062 28.558594 5.304688 28.640625 C 5.320312 28.722656 5.335938 28.804688 5.359375 28.882812 C 5.382812 28.964844 5.410156 29.046875 5.4375 29.125 C 5.46875 29.203125 5.503906 29.28125 5.542969 29.355469 C 5.578125 29.429688 5.621094 29.503906 5.667969 29.574219 C 5.714844 29.644531 5.761719 29.710938 5.816406 29.777344 C 5.867188 29.84375 5.921875 29.90625 5.980469 29.96875 C 6.039062 30.027344 6.101562 30.085938 6.164062 30.140625 C 6.226562 30.195312 6.296875 30.246094 6.367188 30.292969 C 6.4375 30.339844 6.507812 30.382812 6.582031 30.425781 C 6.65625 30.464844 6.730469 30.5 6.808594 30.53125 C 6.886719 30.566406 6.964844 30.59375 7.042969 30.621094 C 7.125 30.644531 7.207031 30.664062 7.289062 30.679688 C 7.371094 30.699219 7.453125 30.710938 7.539062 30.71875 C 7.621094 30.730469 7.707031 30.734375 7.789062 30.734375 C 7.847656 30.730469 7.910156 30.730469 7.96875 30.726562 C 8.050781 30.71875 8.132812 30.710938 8.214844 30.695312 C 8.300781 30.679688 8.382812 30.664062 8.464844 30.640625 C 8.542969 30.617188 8.625 30.589844 8.703125 30.5625 C 8.78125 30.53125 8.855469 30.496094 8.933594 30.460938 C 9.007812 30.421875 9.082031 30.378906 9.152344 30.332031 C 9.222656 30.285156 9.289062 30.238281 9.355469 30.1875 C 9.421875 30.132812 9.484375 30.078125 9.542969 30.019531 C 9.605469 29.960938 9.664062 29.902344 9.71875 29.835938 C 9.773438 29.773438 9.824219 29.703125 9.871094 29.632812 C 9.917969 29.566406 9.960938 29.492188 10 29.417969 C 10.042969 29.34375 10.078125 29.269531 10.109375 29.191406 C 10.144531 29.113281 10.171875 29.035156 10.195312 28.957031 C 10.222656 28.875 10.242188 28.792969 10.261719 28.710938 C 10.277344 28.628906 10.289062 28.546875 10.296875 28.460938 C 10.304688 28.378906 10.308594 28.292969 10.308594 28.210938 C 10.308594 28.152344 10.308594 28.09375 10.304688 28.03125 C 10.296875 27.949219 10.285156 27.867188 10.273438 27.785156 C 10.257812 27.699219 10.242188 27.617188 10.21875 27.535156 C 10.195312 27.457031 10.167969 27.375 10.136719 27.296875 C 10.109375 27.21875 10.074219 27.144531 10.035156 27.066406 C 9.996094 26.992188 9.957031 26.917969 9.910156 26.847656 C 9.867188 26.777344 9.816406 26.710938 9.765625 26.644531 C 9.710938 26.578125 9.65625 26.515625 9.597656 26.457031 C 9.539062 26.394531 9.476562 26.335938 9.414062 26.28125 C 9.347656 26.226562 9.28125 26.179688 9.210938 26.128906 C 9.144531 26.082031 9.070312 26.039062 8.996094 26 C 8.925781 25.957031 8.847656 25.921875 8.769531 25.890625 C 8.691406 25.855469 8.613281 25.828125 8.535156 25.804688 C 8.453125 25.777344 8.371094 25.757812 8.289062 25.738281 C 8.207031 25.722656 8.125 25.710938 8.039062 25.703125 C 7.957031 25.695312 7.875 25.691406 7.789062 25.6875 Z M 7.789062 25.6875 "/>
<path style=" stroke:none;fill-rule:evenodd;fill:rgb(55.686275%,55.686275%,55.686275%);fill-opacity:1;" d="M 3.160156 25.074219 C 3.070312 25.207031 2.898438 25.28125 2.824219 25.421875 C 2.78125 25.5 2.800781 25.601562 2.757812 25.679688 C 2.867188 25.460938 3.023438 25.277344 3.160156 25.074219 Z M 3.160156 25.074219 "/>
<path style=" stroke:none;fill-rule:evenodd;fill:rgb(90.588235%,28.627451%,28.627451%);fill-opacity:1;" d="M 28.667969 22.609375 C 29.210938 22.25 29.714844 21.847656 30.085938 21.351562 C 30.519531 20.773438 30.828125 20.113281 31.007812 19.417969 C 31.1875 18.722656 31.230469 17.992188 31.136719 17.265625 C 31.039062 16.535156 30.800781 15.8125 30.40625 15.128906 C 29.917969 14.28125 29.246094 13.601562 28.472656 13.121094 C 27.699219 12.636719 26.828125 12.347656 25.933594 12.277344 C 24.859375 12.191406 23.753906 12.417969 22.753906 12.996094 L 4.871094 23.320312 C 4.742188 23.394531 4.695312 23.539062 4.578125 23.621094 C 4.886719 23.402344 5.15625 23.132812 5.507812 22.984375 C 6.171875 22.695312 6.90625 22.539062 7.675781 22.539062 L 28.324219 22.539062 C 28.445312 22.539062 28.546875 22.601562 28.667969 22.609375 Z M 28.667969 22.609375 "/>
<path style=" stroke:none;fill-rule:evenodd;fill:rgb(30.196078%,30.588235%,60%);fill-opacity:1;" d="M 23.113281 12.914062 C 23.398438 12.34375 23.628906 11.75 23.703125 11.144531 C 23.785156 10.425781 23.726562 9.699219 23.535156 9.007812 C 23.34375 8.316406 23.015625 7.65625 22.566406 7.074219 C 22.121094 6.492188 21.550781 5.984375 20.871094 5.59375 C 19.847656 5.003906 18.730469 4.757812 17.644531 4.824219 C 16.742188 4.878906 15.867188 5.148438 15.09375 5.613281 C 14.324219 6.078125 13.660156 6.738281 13.175781 7.570312 L 2.945312 25.296875 C 3.023438 25.226562 3.101562 25.160156 3.160156 25.074219 C 3.355469 24.78125 3.496094 24.445312 3.738281 24.195312 C 3.976562 23.953125 4.296875 23.816406 4.578125 23.621094 C 4.695312 23.539062 4.742188 23.394531 4.871094 23.320312 L 22.753906 12.996094 C 22.867188 12.933594 22.996094 12.972656 23.113281 12.914062 Z M 23.113281 12.914062 "/>
<path style=" stroke:none;fill-rule:evenodd;fill:rgb(30.980392%,30.980392%,30.980392%);fill-opacity:1;" d="M 13.394531 7.347656 C 13.355469 6.703125 13.257812 6.070312 13.015625 5.507812 C 12.730469 4.839844 12.316406 4.242188 11.804688 3.738281 C 11.292969 3.238281 10.679688 2.832031 10 2.550781 C 9.433594 2.316406 8.796875 2.226562 8.152344 2.1875 C 4.804688 2.328125 2.136719 5.023438 2.136719 8.40625 L 2.136719 27.59375 C 2.136719 27.683594 2.183594 27.757812 2.1875 27.847656 C 2.226562 27.203125 2.316406 26.566406 2.550781 26 C 2.601562 25.878906 2.703125 25.796875 2.757812 25.679688 C 2.800781 25.601562 2.78125 25.5 2.824219 25.421875 C 2.851562 25.371094 2.902344 25.335938 2.945312 25.296875 L 13.175781 7.570312 C 13.230469 7.476562 13.335938 7.4375 13.394531 7.347656 Z M 13.394531 7.347656 "/>
<path style=" stroke:none;fill-rule:evenodd;fill:rgb(100%,76.078431%,33.333333%);fill-opacity:1;" d="M 33.882812 27.847656 C 33.839844 27.199219 33.75 26.558594 33.515625 25.988281 C 33.234375 25.308594 32.824219 24.695312 32.320312 24.183594 C 31.816406 23.667969 31.214844 23.25 30.546875 22.964844 C 29.878906 22.675781 29.144531 22.515625 28.371094 22.515625 L 7.648438 22.515625 C 6.875 22.515625 6.140625 22.675781 5.472656 22.964844 C 4.804688 23.25 4.203125 23.667969 3.699219 24.183594 C 3.195312 24.695312 2.785156 25.308594 2.503906 25.988281 C 2.269531 26.558594 2.179688 27.199219 2.140625 27.847656 C 2.28125 31.207031 4.984375 33.882812 8.382812 33.882812 L 27.636719 33.882812 C 31.035156 33.882812 33.738281 31.207031 33.882812 27.847656 Z M 7.761719 25.933594 C 7.839844 25.933594 7.914062 25.9375 7.988281 25.945312 C 8.066406 25.953125 8.140625 25.964844 8.214844 25.980469 C 8.289062 25.996094 8.363281 26.011719 8.433594 26.035156 C 8.507812 26.058594 8.578125 26.085938 8.648438 26.113281 C 8.71875 26.144531 8.789062 26.175781 8.855469 26.210938 C 8.921875 26.25 8.984375 26.289062 9.046875 26.332031 C 9.109375 26.375 9.171875 26.421875 9.230469 26.46875 C 9.289062 26.519531 9.34375 26.570312 9.398438 26.625 C 9.449219 26.679688 9.5 26.734375 9.546875 26.796875 C 9.59375 26.855469 9.636719 26.917969 9.679688 26.980469 C 9.71875 27.042969 9.757812 27.109375 9.792969 27.179688 C 9.824219 27.246094 9.855469 27.316406 9.882812 27.386719 C 9.910156 27.457031 9.9375 27.527344 9.957031 27.601562 C 9.976562 27.675781 9.992188 27.75 10.003906 27.824219 C 10.019531 27.898438 10.027344 27.972656 10.035156 28.050781 C 10.039062 28.101562 10.039062 28.15625 10.039062 28.210938 C 10.039062 28.285156 10.035156 28.363281 10.027344 28.4375 C 10.019531 28.511719 10.007812 28.589844 9.992188 28.664062 C 9.980469 28.738281 9.960938 28.8125 9.9375 28.882812 C 9.914062 28.957031 9.890625 29.027344 9.859375 29.097656 C 9.828125 29.167969 9.796875 29.234375 9.761719 29.300781 C 9.722656 29.367188 9.683594 29.433594 9.640625 29.496094 C 9.597656 29.558594 9.554688 29.621094 9.503906 29.679688 C 9.457031 29.738281 9.402344 29.792969 9.347656 29.84375 C 9.292969 29.898438 9.238281 29.949219 9.179688 29.996094 C 9.117188 30.042969 9.058594 30.085938 8.992188 30.128906 C 8.929688 30.167969 8.863281 30.207031 8.792969 30.242188 C 8.726562 30.277344 8.65625 30.308594 8.585938 30.335938 C 8.515625 30.363281 8.445312 30.386719 8.371094 30.40625 C 8.296875 30.425781 8.222656 30.441406 8.148438 30.457031 C 8.074219 30.46875 8 30.476562 7.921875 30.480469 C 7.871094 30.484375 7.816406 30.488281 7.761719 30.488281 C 7.6875 30.488281 7.609375 30.484375 7.535156 30.476562 C 7.460938 30.46875 7.382812 30.457031 7.308594 30.441406 C 7.234375 30.425781 7.164062 30.410156 7.089844 30.386719 C 7.015625 30.363281 6.945312 30.339844 6.875 30.308594 C 6.804688 30.277344 6.738281 30.246094 6.671875 30.210938 C 6.605469 30.175781 6.539062 30.132812 6.476562 30.089844 C 6.414062 30.046875 6.351562 30.003906 6.292969 29.953125 C 6.234375 29.902344 6.179688 29.851562 6.128906 29.796875 C 6.074219 29.742188 6.027344 29.6875 5.976562 29.625 C 5.929688 29.566406 5.886719 29.503906 5.847656 29.441406 C 5.804688 29.378906 5.765625 29.3125 5.730469 29.246094 C 5.695312 29.175781 5.667969 29.105469 5.640625 29.035156 C 5.613281 28.964844 5.589844 28.890625 5.566406 28.820312 C 5.546875 28.746094 5.53125 28.671875 5.515625 28.597656 C 5.503906 28.523438 5.496094 28.449219 5.492188 28.371094 C 5.488281 28.316406 5.484375 28.265625 5.484375 28.210938 C 5.484375 28.136719 5.488281 28.058594 5.496094 27.984375 C 5.503906 27.90625 5.515625 27.832031 5.53125 27.757812 C 5.546875 27.683594 5.5625 27.609375 5.585938 27.539062 C 5.609375 27.464844 5.632812 27.394531 5.664062 27.324219 C 5.691406 27.253906 5.726562 27.1875 5.761719 27.121094 C 5.796875 27.050781 5.839844 26.988281 5.882812 26.925781 C 5.925781 26.863281 5.972656 26.800781 6.019531 26.746094 C 6.070312 26.6875 6.121094 26.628906 6.175781 26.578125 C 6.230469 26.523438 6.285156 26.472656 6.347656 26.425781 C 6.40625 26.378906 6.46875 26.335938 6.53125 26.292969 C 6.59375 26.253906 6.660156 26.214844 6.726562 26.183594 C 6.796875 26.148438 6.863281 26.117188 6.933594 26.089844 C 7.007812 26.0625 7.078125 26.039062 7.152344 26.015625 C 7.226562 25.996094 7.300781 25.980469 7.375 25.96875 C 7.449219 25.953125 7.523438 25.945312 7.601562 25.9375 C 7.65625 25.933594 7.707031 25.933594 7.761719 25.933594 Z M 7.761719 25.933594 "/>
</g>
</svg>
