<?xml version="1.0" encoding="UTF-8"?>
<svg xmlns="http://www.w3.org/2000/svg" xmlns:xlink="http://www.w3.org/1999/xlink" width="36pt" height="36pt" viewBox="0 0 36 36" version="1.1">
<g id="surface1">
<path style=" stroke:none;fill-rule:evenodd;fill:rgb(2.352941%,59.607843%,49.411765%);fill-opacity:1;" d="M 8.40625 2.136719 L 27.59375 2.136719 C 31.054688 2.136719 33.863281 4.945312 33.863281 8.40625 L 33.863281 27.59375 C 33.863281 31.054688 31.054688 33.863281 27.59375 33.863281 L 8.40625 33.863281 C 4.945312 33.863281 2.136719 31.054688 2.136719 27.59375 L 2.136719 8.40625 C 2.136719 4.945312 4.945312 2.136719 8.40625 2.136719 Z M 8.40625 2.136719 "/>
<path style=" stroke:none;fill-rule:nonzero;fill:rgb(12.54902%,69.803922%,57.647059%);fill-opacity:1;" d="M 29.585938 18 C 29.585938 11.601562 24.398438 6.414062 18 6.414062 C 11.601562 6.414062 6.414062 11.601562 6.414062 18 C 6.414062 24.398438 11.601562 29.585938 18 29.585938 C 24.398438 29.585938 29.585938 24.398438 29.585938 18 Z M 29.585938 18 "/>
<path style=" stroke:none;fill-rule:nonzero;fill:rgb(100%,100%,100%);fill-opacity:1;" d="M 17.253906 10.550781 L 17.253906 12.226562 C 14.800781 12.523438 12.8125 14.265625 12.207031 16.546875 L 13.757812 16.546875 C 14.394531 14.898438 16.078125 13.613281 17.917969 13.628906 L 18.050781 13.628906 C 18.722656 13.636719 19.378906 13.792969 19.972656 14.082031 C 21.046875 14.550781 21.839844 15.476562 22.230469 16.546875 L 23.792969 16.546875 C 23.1875 14.265625 21.199219 12.527344 18.746094 12.230469 L 18.746094 10.554688 L 17.253906 10.554688 Z M 18 14.832031 C 16.179688 14.832031 14.707031 16.261719 14.707031 18.035156 C 14.707031 18.035156 14.683594 18.335938 14.78125 18.675781 L 19.835938 18.675781 C 19.699219 19.046875 19.453125 19.378906 19.121094 19.601562 C 18.355469 20.191406 17.199219 19.976562 16.546875 19.316406 L 14.980469 19.316406 C 15.488281 20.449219 16.648438 21.238281 18 21.238281 C 19.820312 21.238281 21.292969 19.804688 21.292969 18.035156 C 21.292969 18.035156 21.292969 17.707031 21.226562 17.394531 L 16.167969 17.394531 C 16.453125 16.695312 17.132812 16.128906 17.921875 16.121094 L 18.039062 16.121094 C 18.570312 16.132812 19.082031 16.378906 19.441406 16.757812 L 21.019531 16.757812 C 20.507812 15.628906 19.347656 14.835938 18 14.835938 Z M 12.207031 19.453125 C 12.8125 21.734375 14.800781 23.476562 17.253906 23.773438 L 17.253906 25.449219 L 18.746094 25.449219 L 18.746094 23.773438 C 21.199219 23.472656 23.1875 21.734375 23.792969 19.453125 L 22.25 19.453125 C 21.648438 21.183594 19.777344 22.4375 17.890625 22.371094 C 16.050781 22.378906 14.386719 21.101562 13.761719 19.453125 Z M 12.207031 19.453125 "/>
</g>
</svg>
