<?xml version="1.0" encoding="UTF-8"?>
<svg xmlns="http://www.w3.org/2000/svg" xmlns:xlink="http://www.w3.org/1999/xlink" width="36pt" height="36pt" viewBox="0 0 36 36" version="1.1">
<g id="surface1">
<path style=" stroke:none;fill-rule:evenodd;fill:rgb(28.235294%,68.235294%,100%);fill-opacity:1;" d="M 8.40625 2.136719 L 27.59375 2.136719 C 31.054688 2.136719 33.863281 4.945312 33.863281 8.40625 L 33.863281 27.59375 C 33.863281 31.054688 31.054688 33.863281 27.59375 33.863281 L 8.40625 33.863281 C 4.945312 33.863281 2.136719 31.054688 2.136719 27.59375 L 2.136719 8.40625 C 2.136719 4.945312 4.945312 2.136719 8.40625 2.136719 Z M 8.40625 2.136719 "/>
<path style=" stroke:none;fill-rule:nonzero;fill:rgb(100%,100%,100%);fill-opacity:1;" d="M 12.875 11.25 L 13 11.25 C 13.898438 11.25 14.625 11.976562 14.625 12.875 L 14.625 24.25 C 14.625 25.148438 13.898438 25.875 13 25.875 L 12.875 25.875 C 11.976562 25.875 11.25 25.148438 11.25 24.25 L 11.25 12.875 C 11.25 11.976562 11.976562 11.25 12.875 11.25 Z M 12.875 11.25 "/>
<path style=" stroke:none;fill-rule:nonzero;fill:rgb(100%,100%,100%);fill-opacity:1;" d="M 12.878906 10.125 C 12.5 10.140625 12.15625 10.296875 11.964844 10.542969 L 8.027344 15.621094 C 7.824219 15.878906 7.824219 16.199219 8.023438 16.457031 C 8.226562 16.714844 8.597656 16.875 8.996094 16.875 L 16.878906 16.875 C 17.277344 16.875 17.648438 16.714844 17.851562 16.457031 C 18.050781 16.199219 18.050781 15.878906 17.847656 15.621094 L 13.910156 10.542969 C 13.699219 10.269531 13.300781 10.109375 12.878906 10.125 Z M 12.878906 10.125 "/>
<path style=" stroke:none;fill-rule:nonzero;fill:rgb(100%,100%,100%);fill-opacity:1;" d="M 23 24.75 L 23.125 24.75 C 24.023438 24.75 24.75 24.023438 24.75 23.125 L 24.75 11.75 C 24.75 10.851562 24.023438 10.125 23.125 10.125 L 23 10.125 C 22.101562 10.125 21.375 10.851562 21.375 11.75 L 21.375 23.125 C 21.375 24.023438 22.101562 24.75 23 24.75 Z M 23 24.75 "/>
<path style=" stroke:none;fill-rule:nonzero;fill:rgb(100%,100%,100%);fill-opacity:1;" d="M 23.003906 25.875 C 22.625 25.859375 22.28125 25.703125 22.089844 25.457031 L 18.152344 20.378906 C 17.949219 20.121094 17.949219 19.800781 18.148438 19.542969 C 18.351562 19.285156 18.722656 19.125 19.121094 19.125 L 27.003906 19.125 C 27.402344 19.125 27.773438 19.285156 27.976562 19.542969 C 28.175781 19.800781 28.175781 20.121094 27.972656 20.378906 L 24.035156 25.457031 C 23.824219 25.730469 23.425781 25.890625 23.003906 25.875 Z M 23.003906 25.875 "/>
</g>
</svg>
