<?xml version="1.0" encoding="UTF-8"?>
<svg xmlns="http://www.w3.org/2000/svg" xmlns:xlink="http://www.w3.org/1999/xlink" width="36pt" height="36pt" viewBox="0 0 36 36" version="1.1">
<g id="surface1">
<path style=" stroke:none;fill-rule:evenodd;fill:rgb(55.686275%,55.686275%,55.686275%);fill-opacity:1;" d="M 33.867188 14.035156 L 2.132812 14.035156 L 2.132812 27.589844 C 2.132812 31.066406 4.933594 33.863281 8.40625 33.863281 L 27.59375 33.863281 C 31.066406 33.863281 33.867188 31.066406 33.867188 27.589844 Z M 33.867188 14.035156 "/>
<path style=" stroke:none;fill-rule:evenodd;fill:rgb(100%,80.392157%,32.941176%);fill-opacity:1;" d="M 33.867188 10.128906 L 2.132812 10.128906 L 2.132812 14.035156 L 33.867188 14.035156 Z M 33.867188 10.128906 "/>
<path style=" stroke:none;fill-rule:evenodd;fill:rgb(53.72549%,87.843137%,34.509804%);fill-opacity:1;" d="M 33.4375 6.277344 L 2.5625 6.277344 C 2.320312 6.945312 2.132812 7.648438 2.132812 8.40625 L 2.132812 10.128906 L 33.867188 10.128906 L 33.867188 8.40625 C 33.867188 7.648438 33.679688 6.945312 33.4375 6.277344 Z M 33.4375 6.277344 "/>
<path style=" stroke:none;fill-rule:evenodd;fill:rgb(34.509804%,58.431373%,86.27451%);fill-opacity:1;" d="M 8.40625 2.136719 C 5.691406 2.136719 3.4375 3.867188 2.5625 6.277344 L 33.4375 6.277344 C 32.5625 3.867188 30.308594 2.136719 27.59375 2.136719 Z M 8.40625 2.136719 "/>
<path style=" stroke:none;fill-rule:nonzero;fill:rgb(92.54902%,92.54902%,92.54902%);fill-opacity:1;" d="M 13.5 21.058594 L 22.5 21.058594 C 23.121094 21.058594 23.625 21.5625 23.625 22.183594 L 23.625 23.308594 C 23.625 23.929688 23.121094 24.433594 22.5 24.433594 L 13.5 24.433594 C 12.878906 24.433594 12.375 23.929688 12.375 23.308594 L 12.375 22.183594 C 12.375 21.5625 12.878906 21.058594 13.5 21.058594 Z M 13.5 21.058594 "/>
</g>
</svg>
