<?xml version="1.0" encoding="UTF-8"?>
<svg xmlns="http://www.w3.org/2000/svg" xmlns:xlink="http://www.w3.org/1999/xlink" width="36pt" height="36pt" viewBox="0 0 36 36" version="1.1">
<g id="surface1">
<path style=" stroke:none;fill-rule:evenodd;fill:rgb(91.764706%,75.294118%,27.45098%);fill-opacity:1;" d="M 8.40625 2.136719 L 27.59375 2.136719 C 31.054688 2.136719 33.863281 4.945312 33.863281 8.40625 L 33.863281 27.59375 C 33.863281 31.054688 31.054688 33.863281 27.59375 33.863281 L 8.40625 33.863281 C 4.945312 33.863281 2.136719 31.054688 2.136719 27.59375 L 2.136719 8.40625 C 2.136719 4.945312 4.945312 2.136719 8.40625 2.136719 Z M 8.40625 2.136719 "/>
<path style=" stroke:none;fill-rule:nonzero;fill:rgb(100%,100%,100%);fill-opacity:1;" d="M 16.136719 6.511719 L 16.136719 9.75 C 12.039062 10.683594 9.128906 14.328125 9.125 18.53125 C 9.125 23.511719 13.160156 27.546875 18.140625 27.546875 C 22.726562 27.542969 26.578125 24.09375 27.089844 19.535156 C 27.089844 19.535156 27.15625 18.53125 26.15625 18.53125 C 25.152344 18.53125 25.074219 19.535156 25.074219 19.535156 C 24.574219 22.980469 21.625 25.539062 18.140625 25.542969 C 14.269531 25.542969 11.128906 22.40625 11.128906 18.53125 C 11.132812 15.433594 13.167969 12.703125 16.136719 11.820312 L 16.136719 14.523438 L 20.144531 10.519531 Z M 16.136719 6.511719 "/>
</g>
</svg>
