<?xml version="1.0" encoding="UTF-8"?>
<svg xmlns="http://www.w3.org/2000/svg" xmlns:xlink="http://www.w3.org/1999/xlink" width="36pt" height="36pt" viewBox="0 0 36 36" version="1.1">
<g id="surface1">
<path style=" stroke:none;fill-rule:evenodd;fill:rgb(62.352941%,39.607843%,82.745098%);fill-opacity:1;" d="M 8.40625 2.136719 L 27.59375 2.136719 C 31.054688 2.136719 33.863281 4.945312 33.863281 8.40625 L 33.863281 27.59375 C 33.863281 31.054688 31.054688 33.863281 27.59375 33.863281 L 8.40625 33.863281 C 4.945312 33.863281 2.136719 31.054688 2.136719 27.59375 L 2.136719 8.40625 C 2.136719 4.945312 4.945312 2.136719 8.40625 2.136719 Z M 8.40625 2.136719 "/>
<path style=" stroke:none;fill-rule:nonzero;fill:rgb(100%,100%,100%);fill-opacity:1;" d="M 18 7.875 C 12.40625 7.875 7.875 12.40625 7.875 18 C 7.875 23.59375 12.40625 28.125 18 28.125 C 23.59375 28.125 28.125 23.59375 28.125 18 C 28.125 12.40625 23.59375 7.875 18 7.875 Z M 18 10.125 C 22.347656 10.125 25.875 13.652344 25.875 18 C 25.875 22.347656 22.347656 25.875 18 25.875 C 13.652344 25.875 10.125 22.347656 10.125 18 C 10.125 13.652344 13.652344 10.125 18 10.125 Z M 18 15.75 C 16.757812 15.75 15.75 16.757812 15.75 18 C 15.75 19.242188 16.757812 20.25 18 20.25 C 19.242188 20.25 20.25 19.242188 20.25 18 C 20.25 16.757812 19.242188 15.75 18 15.75 Z M 18 15.75 "/>
</g>
</svg>
