<?xml version="1.0" encoding="UTF-8"?>
<svg xmlns="http://www.w3.org/2000/svg" xmlns:xlink="http://www.w3.org/1999/xlink" width="36pt" height="36pt" viewBox="0 0 36 36" version="1.1">
<g id="surface1">
<path style=" stroke:none;fill-rule:evenodd;fill:rgb(91.764706%,53.333333%,16.862745%);fill-opacity:1;" d="M 8.40625 2.136719 L 27.59375 2.136719 C 31.054688 2.136719 33.863281 4.945312 33.863281 8.40625 L 33.863281 27.59375 C 33.863281 31.054688 31.054688 33.863281 27.59375 33.863281 L 8.40625 33.863281 C 4.945312 33.863281 2.136719 31.054688 2.136719 27.59375 L 2.136719 8.40625 C 2.136719 4.945312 4.945312 2.136719 8.40625 2.136719 Z M 8.40625 2.136719 "/>
<path style=" stroke:none;fill-rule:nonzero;fill:rgb(100%,100%,100%);fill-opacity:1;" d="M 18 7.875 C 14.828125 7.875 12.375 10.457031 12.375 13.660156 L 12.375 15.75 L 11.128906 15.75 C 10.574219 15.75 10.125 16.28125 10.125 16.84375 L 10.125 27.113281 C 10.125 27.671875 10.574219 28.125 11.128906 28.125 L 24.871094 28.125 C 25.425781 28.125 25.875 27.671875 25.875 27.113281 L 25.875 16.84375 C 25.875 16.28125 25.425781 15.714844 24.871094 15.75 L 23.625 15.75 L 23.625 13.660156 C 23.625 10.457031 21.171875 7.875 18 7.875 Z M 18 10.125 C 19.984375 10.125 21.375 11.65625 21.375 13.660156 L 21.375 15.75 L 14.625 15.75 L 14.625 13.660156 C 14.625 11.65625 16.015625 10.125 18 10.125 Z M 18 10.125 "/>
</g>
</svg>
