<?xml version="1.0" encoding="UTF-8"?>
<svg xmlns="http://www.w3.org/2000/svg" xmlns:xlink="http://www.w3.org/1999/xlink" width="36pt" height="36pt" viewBox="0 0 36 36" version="1.1">
<g id="surface1">
<path style=" stroke:none;fill-rule:evenodd;fill:rgb(24.313725%,56.862745%,22.745098%);fill-opacity:1;" d="M 8.40625 2.136719 L 27.59375 2.136719 C 31.054688 2.136719 33.863281 4.945312 33.863281 8.40625 L 33.863281 27.59375 C 33.863281 31.054688 31.054688 33.863281 27.59375 33.863281 L 8.40625 33.863281 C 4.945312 33.863281 2.136719 31.054688 2.136719 27.59375 L 2.136719 8.40625 C 2.136719 4.945312 4.945312 2.136719 8.40625 2.136719 Z M 8.40625 2.136719 "/>
<path style=" stroke:none;fill-rule:nonzero;fill:rgb(100%,100%,100%);fill-opacity:1;" d="M 21.597656 26.945312 C 23.339844 26.269531 24.734375 25.046875 25.519531 23.5 C 25.9375 22.679688 26.167969 21.878906 26.261719 20.910156 C 26.289062 20.652344 26.289062 19.875 26.261719 19.605469 C 26.132812 18.238281 25.726562 16.910156 25.035156 15.609375 L 24.882812 15.316406 L 12.09375 15.316406 L 11.941406 15.609375 C 11.25 16.910156 10.84375 18.238281 10.714844 19.605469 C 10.6875 19.875 10.6875 20.652344 10.710938 20.910156 C 10.808594 21.878906 11.039062 22.679688 11.457031 23.5 C 12.242188 25.046875 13.648438 26.28125 15.378906 26.945312 L 15.578125 27.019531 L 21.40625 27.019531 Z M 27.039062 22.945312 C 27.90625 22.507812 28.640625 21.960938 29.140625 21.378906 C 29.429688 21.039062 29.597656 20.800781 29.765625 20.464844 C 29.96875 20.066406 30.082031 19.699219 30.15625 19.214844 C 30.1875 18.996094 30.195312 18.5 30.164062 18.332031 C 30.058594 17.746094 29.785156 17.21875 29.359375 16.777344 C 28.855469 16.253906 28.257812 15.953125 27.511719 15.839844 C 27.292969 15.804688 26.734375 15.800781 26.464844 15.832031 C 26.367188 15.84375 26.273438 15.851562 26.265625 15.855469 C 26.253906 15.859375 26.285156 15.957031 26.359375 16.125 C 26.417969 16.269531 26.5 16.480469 26.542969 16.585938 L 26.617188 16.785156 L 26.9375 16.785156 C 27.28125 16.785156 27.421875 16.800781 27.65625 16.863281 C 28.320312 17.039062 28.851562 17.511719 29.101562 18.148438 C 29.210938 18.417969 29.234375 18.628906 29.203125 18.960938 C 29.128906 19.691406 28.820312 20.320312 28.25 20.90625 C 27.953125 21.210938 27.582031 21.507812 27.230469 21.722656 C 27.167969 21.765625 27.113281 21.808594 27.113281 21.820312 C 27.113281 21.863281 27.003906 22.328125 26.953125 22.515625 C 26.921875 22.617188 26.871094 22.78125 26.835938 22.878906 C 26.804688 22.980469 26.777344 23.0625 26.78125 23.066406 C 26.785156 23.066406 26.898438 23.015625 27.039062 22.945312 Z M 10.136719 22.882812 C 10.136719 22.882812 10.125 22.847656 10.113281 22.816406 C 10.019531 22.546875 9.890625 22.011719 9.824219 21.628906 C 9.605469 20.335938 9.707031 18.9375 10.125 17.511719 L 10.167969 17.351562 L 10.0625 17.246094 C 9.910156 17.085938 9.84375 17 9.734375 16.816406 C 9.578125 16.558594 9.496094 16.351562 9.34375 15.828125 C 9.207031 15.371094 9.144531 15.191406 9.0625 15.011719 C 8.898438 14.664062 8.671875 14.457031 8.367188 14.375 C 8.277344 14.351562 8.175781 14.347656 7.226562 14.347656 L 6.183594 14.347656 L 6.097656 14.386719 C 5.917969 14.472656 5.816406 14.628906 5.816406 14.828125 C 5.816406 14.929688 5.820312 14.957031 5.871094 15.050781 C 5.914062 15.136719 5.941406 15.167969 6.035156 15.238281 C 6.160156 15.335938 6.210938 15.402344 6.308594 15.601562 C 6.449219 15.902344 6.539062 16.230469 6.914062 17.765625 C 7.246094 19.144531 7.59375 20.074219 8.089844 20.898438 C 8.535156 21.636719 9.074219 22.210938 9.742188 22.652344 C 9.925781 22.773438 10.136719 22.898438 10.136719 22.882812 Z M 24.277344 14.3125 C 24.097656 14.078125 23.699219 13.679688 23.433594 13.46875 C 22.738281 12.910156 21.945312 12.507812 21.035156 12.246094 C 20.769531 12.167969 20.34375 12.070312 20.175781 12.046875 C 20.136719 12.039062 20.105469 12.03125 20.105469 12.03125 C 20.105469 12.027344 20.136719 11.964844 20.179688 11.890625 C 20.472656 11.378906 20.515625 10.738281 20.289062 10.183594 C 20.089844 9.699219 19.671875 9.289062 19.179688 9.105469 C 18.722656 8.933594 18.199219 8.9375 17.746094 9.125 C 17.261719 9.324219 16.851562 9.742188 16.667969 10.234375 C 16.460938 10.777344 16.511719 11.390625 16.796875 11.894531 C 16.839844 11.964844 16.871094 12.027344 16.871094 12.03125 C 16.867188 12.03125 16.78125 12.050781 16.675781 12.070312 C 15.574219 12.269531 14.488281 12.738281 13.65625 13.378906 C 13.320312 13.636719 12.90625 14.039062 12.699219 14.3125 C 12.679688 14.339844 12.957031 14.339844 18.488281 14.339844 C 24.019531 14.339844 24.296875 14.339844 24.277344 14.3125 Z M 18.28125 11.878906 C 18.109375 11.84375 17.9375 11.746094 17.800781 11.613281 C 17.417969 11.226562 17.417969 10.625 17.800781 10.238281 C 18.1875 9.855469 18.789062 9.855469 19.175781 10.238281 C 19.558594 10.625 19.558594 11.226562 19.175781 11.613281 C 18.9375 11.851562 18.613281 11.945312 18.28125 11.878906 Z M 18.28125 11.878906 "/>
</g>
</svg>
