<?xml version="1.0" encoding="UTF-8"?>
<svg xmlns="http://www.w3.org/2000/svg" xmlns:xlink="http://www.w3.org/1999/xlink" width="36pt" height="36pt" viewBox="0 0 36 36" version="1.1">
<g id="surface1">
<path style=" stroke:none;fill-rule:evenodd;fill:rgb(23.921569%,37.647059%,50.196078%);fill-opacity:1;" d="M 8.40625 2.136719 L 27.59375 2.136719 C 31.054688 2.136719 33.863281 4.945312 33.863281 8.40625 L 33.863281 27.59375 C 33.863281 31.054688 31.054688 33.863281 27.59375 33.863281 L 8.40625 33.863281 C 4.945312 33.863281 2.136719 31.054688 2.136719 27.59375 L 2.136719 8.40625 C 2.136719 4.945312 4.945312 2.136719 8.40625 2.136719 Z M 8.40625 2.136719 "/>
<path style=" stroke:none;fill-rule:evenodd;fill:rgb(47.843137%,60.784314%,73.333333%);fill-opacity:1;" d="M 16.589844 33.863281 L 16.589844 31.5625 L 19.730469 31.523438 C 20.414062 31.523438 21.070312 31.238281 21.558594 30.785156 C 22.046875 30.328125 22.367188 29.703125 22.367188 29.023438 L 22.367188 25.773438 L 23.75 25.75 C 24.402344 25.742188 24.871094 25.558594 25.101562 25.230469 C 25.332031 24.90625 25.324219 24.433594 25.019531 23.855469 L 22.382812 19.691406 L 22.367188 18.890625 L 22.367188 16.734375 C 22.367188 16.699219 22.363281 16.664062 22.363281 16.625 C 22.375 16.445312 22.375 16.257812 22.378906 16.078125 C 22.378906 16.007812 22.367188 15.941406 22.363281 15.867188 C 22.367188 15.792969 22.371094 15.71875 22.371094 15.644531 C 22.371094 14.046875 22.046875 12.527344 21.460938 11.140625 C 20.878906 9.757812 20.03125 8.511719 18.984375 7.464844 C 17.9375 6.417969 16.691406 5.574219 15.308594 4.988281 C 13.925781 4.402344 12.402344 4.078125 10.804688 4.078125 C 9.988281 4.082031 8.160156 4.0625 6.351562 4.125 C 5.21875 4.167969 4.5 4.335938 3.632812 4.46875 C 2.738281 5.550781 2.136719 6.890625 2.136719 8.410156 L 2.136719 27.59375 C 2.136719 31.066406 4.933594 33.863281 8.410156 33.863281 Z M 16.589844 33.863281 "/>
<path style=" stroke:none;fill-rule:evenodd;fill:rgb(23.921569%,37.647059%,50.196078%);fill-opacity:1;" d="M 8.410156 2.136719 C 6.453125 2.136719 4.78125 3.074219 3.632812 4.46875 C 4.5 4.335938 5.21875 4.167969 6.351562 4.125 C 8.160156 4.0625 9.988281 4.082031 10.804688 4.078125 C 12.402344 4.078125 13.925781 4.402344 15.308594 4.988281 C 16.691406 5.574219 17.9375 6.417969 18.984375 7.464844 C 20.03125 8.511719 20.878906 9.757812 21.460938 11.140625 C 22.046875 12.527344 22.371094 14.046875 22.371094 15.644531 C 22.371094 15.71875 22.367188 15.792969 22.363281 15.867188 C 22.367188 15.941406 22.378906 16.007812 22.378906 16.078125 C 22.375 16.257812 22.375 16.445312 22.363281 16.625 C 22.363281 16.664062 22.367188 16.699219 22.367188 16.734375 L 22.367188 18.890625 L 22.382812 19.691406 L 25.019531 23.855469 C 25.324219 24.433594 25.332031 24.90625 25.101562 25.230469 C 24.871094 25.558594 24.402344 25.742188 23.75 25.75 L 22.367188 25.773438 L 22.367188 29.023438 C 22.367188 29.703125 22.046875 30.328125 21.558594 30.785156 C 21.070312 31.238281 20.414062 31.523438 19.730469 31.523438 L 16.589844 31.5625 L 16.589844 33.863281 L 27.59375 33.863281 C 31.066406 33.863281 33.863281 31.066406 33.863281 27.59375 L 33.863281 8.410156 C 33.863281 4.933594 31.066406 2.136719 27.59375 2.136719 Z M 8.410156 2.136719 "/>
<path style=" stroke:none;fill-rule:nonzero;fill:rgb(29.803922%,29.803922%,29.803922%);fill-opacity:1;" d="M 8.640625 4.078125 C 9.835938 4.078125 10.808594 5.050781 10.808594 6.246094 L 10.808594 10.585938 C 10.808594 11.78125 9.835938 12.753906 8.640625 12.753906 C 7.441406 12.753906 6.46875 11.78125 6.46875 10.585938 L 6.46875 6.246094 C 6.46875 5.050781 7.441406 4.078125 8.640625 4.078125 Z M 8.640625 4.078125 "/>
<path style=" stroke:none;fill-rule:nonzero;fill:rgb(29.803922%,29.803922%,29.803922%);fill-opacity:1;" d="M 23.816406 27.929688 C 23.816406 29.128906 22.847656 30.097656 21.648438 30.097656 C 20.453125 30.097656 19.480469 29.128906 19.480469 27.929688 C 19.480469 26.734375 20.453125 25.761719 21.648438 25.761719 C 22.847656 25.761719 23.816406 26.734375 23.816406 27.929688 Z M 23.816406 27.929688 "/>
<path style="fill:none;stroke-width:1;stroke-linecap:butt;stroke-linejoin:miter;stroke:rgb(29.803922%,29.803922%,29.803922%);stroke-opacity:1;stroke-miterlimit:4;" d="M -35.782334 15.741971 L -24.219834 26.019748 " transform="matrix(1.125,0,0,1.125,48.895751,-1.342529)"/>
<path style=" stroke:none;fill-rule:nonzero;fill:rgb(29.803922%,100%,51.372549%);fill-opacity:1;" d="M 13.699219 16.367188 C 13.699219 19.160156 11.433594 21.425781 8.640625 21.425781 C 5.84375 21.425781 3.578125 19.160156 3.578125 16.367188 C 3.578125 13.570312 5.84375 11.308594 8.640625 11.308594 C 11.433594 11.308594 13.699219 13.570312 13.699219 16.367188 Z M 13.699219 16.367188 "/>
</g>
</svg>
