<?xml version="1.0" encoding="UTF-8"?>
<svg xmlns="http://www.w3.org/2000/svg" xmlns:xlink="http://www.w3.org/1999/xlink" width="36pt" height="36pt" viewBox="0 0 36 36" version="1.1">
<g id="surface1">
<path style=" stroke:none;fill-rule:evenodd;fill:rgb(49.019608%,7.058824%,16.862745%);fill-opacity:1;" d="M 8.40625 2.136719 L 27.59375 2.136719 C 31.054688 2.136719 33.863281 4.945312 33.863281 8.40625 L 33.863281 27.59375 C 33.863281 31.054688 31.054688 33.863281 27.59375 33.863281 L 8.40625 33.863281 C 4.945312 33.863281 2.136719 31.054688 2.136719 27.59375 L 2.136719 8.40625 C 2.136719 4.945312 4.945312 2.136719 8.40625 2.136719 Z M 8.40625 2.136719 "/>
<path style=" stroke:none;fill-rule:nonzero;fill:rgb(72.941176%,7.058824%,16.862745%);fill-opacity:1;" d="M 18.8125 11.921875 C 13.886719 11.921875 9.894531 15.914062 9.894531 20.835938 C 9.894531 25.761719 13.886719 29.753906 18.8125 29.753906 C 23.734375 29.753906 27.726562 25.761719 27.726562 20.835938 C 27.726562 15.914062 23.734375 11.921875 18.8125 11.921875 Z M 18.8125 11.921875 "/>
<path style=" stroke:none;fill-rule:nonzero;fill:rgb(91.372549%,19.215686%,30.588235%);fill-opacity:1;" d="M 18.8125 6.246094 C 14.78125 6.246094 11.515625 9.511719 11.515625 13.542969 C 11.515625 17.570312 14.78125 20.835938 18.8125 20.835938 C 22.839844 20.835938 26.105469 17.570312 26.105469 13.542969 C 26.105469 9.511719 22.839844 6.246094 18.8125 6.246094 Z M 18.8125 6.246094 "/>
<path style=" stroke:none;fill-rule:nonzero;fill:rgb(93.72549%,43.137255%,50.980392%);fill-opacity:1;" d="M 13.945312 10.300781 C 10.8125 10.300781 8.273438 12.839844 8.273438 15.972656 C 8.273438 19.105469 10.8125 21.648438 13.945312 21.648438 C 17.082031 21.648438 19.621094 19.105469 19.621094 15.972656 C 19.621094 12.839844 17.082031 10.300781 13.945312 10.300781 Z M 13.945312 10.300781 "/>
<path style=" stroke:none;fill-rule:nonzero;fill:rgb(100%,100%,100%);fill-opacity:1;" d="M 18.8125 13.542969 C 14.78125 13.542969 11.515625 16.808594 11.515625 20.835938 C 11.515625 24.867188 14.78125 28.132812 18.8125 28.132812 C 22.839844 28.132812 26.105469 24.867188 26.105469 20.835938 C 26.105469 16.808594 22.839844 13.542969 18.8125 13.542969 Z M 18.8125 15.164062 C 21.945312 15.164062 24.484375 17.703125 24.484375 20.835938 C 24.484375 23.96875 21.945312 26.511719 18.8125 26.511719 C 15.675781 26.511719 13.136719 23.96875 13.136719 20.835938 C 13.136719 17.703125 15.675781 15.164062 18.8125 15.164062 Z M 18.8125 15.164062 "/>
<path style=" stroke:none;fill-rule:nonzero;fill:rgb(100%,100%,100%);fill-opacity:1;" d="M 13.945312 11.921875 C 11.707031 11.921875 9.894531 13.734375 9.894531 15.972656 C 9.894531 18.210938 11.707031 20.027344 13.945312 20.027344 C 16.183594 20.027344 18 18.210938 18 15.972656 C 18 13.734375 16.183594 11.921875 13.945312 11.921875 Z M 13.945312 13.542969 C 15.289062 13.542969 16.378906 14.628906 16.378906 15.972656 C 16.378906 17.316406 15.289062 18.40625 13.945312 18.40625 C 12.605469 18.40625 11.515625 17.316406 11.515625 15.972656 C 11.515625 14.628906 12.605469 13.542969 13.945312 13.542969 Z M 13.945312 13.542969 "/>
<path style=" stroke:none;fill-rule:nonzero;fill:rgb(100%,100%,100%);fill-opacity:1;" d="M 18.8125 7.867188 C 15.675781 7.867188 13.136719 10.410156 13.136719 13.542969 C 13.136719 16.675781 15.675781 19.214844 18.8125 19.214844 C 21.945312 19.214844 24.484375 16.675781 24.484375 13.542969 C 24.484375 10.410156 21.945312 7.867188 18.8125 7.867188 Z M 18.8125 9.488281 C 21.050781 9.488281 22.863281 11.304688 22.863281 13.542969 C 22.863281 15.78125 21.050781 17.59375 18.8125 17.59375 C 16.570312 17.59375 14.757812 15.78125 14.757812 13.542969 C 14.757812 11.304688 16.570312 9.488281 18.8125 9.488281 Z M 18.8125 9.488281 "/>
</g>
</svg>
