<?xml version="1.0" encoding="UTF-8"?>
<svg xmlns="http://www.w3.org/2000/svg" xmlns:xlink="http://www.w3.org/1999/xlink" width="36pt" height="36pt" viewBox="0 0 36 36" version="1.1">
<defs>
<filter id="alpha" filterUnits="objectBoundingBox" x="0%" y="0%" width="100%" height="100%">
  <feColorMatrix type="matrix" in="SourceGraphic" values="0 0 0 0 1 0 0 0 0 1 0 0 0 0 1 0 0 0 1 0"/>
</filter>
<mask id="mask0">
  <g filter="url(#alpha)">
<rect x="0" y="0" width="36" height="36" style="fill:rgb(0%,0%,0%);fill-opacity:0.501961;stroke:none;"/>
  </g>
</mask>
<clipPath id="clip1">
  <rect width="36" height="36"/>
</clipPath>
<g id="surface6" clip-path="url(#clip1)">
<path style=" stroke:none;fill-rule:nonzero;fill:rgb(100%,74.509804%,13.72549%);fill-opacity:1;" d="M 14.019531 7.480469 L 19.644531 7.480469 L 19.644531 15.355469 L 14.019531 15.355469 Z M 14.019531 7.480469 "/>
</g>
</defs>
<g id="surface1">
<path style=" stroke:none;fill-rule:evenodd;fill:rgb(36.470588%,33.333333%,26.666667%);fill-opacity:1;" d="M 8.40625 2.136719 L 27.59375 2.136719 C 31.054688 2.136719 33.863281 4.945312 33.863281 8.40625 L 33.863281 27.59375 C 33.863281 31.054688 31.054688 33.863281 27.59375 33.863281 L 8.40625 33.863281 C 4.945312 33.863281 2.136719 31.054688 2.136719 27.59375 L 2.136719 8.40625 C 2.136719 4.945312 4.945312 2.136719 8.40625 2.136719 Z M 8.40625 2.136719 "/>
<path style=" stroke:none;fill-rule:nonzero;fill:rgb(100%,74.509804%,13.72549%);fill-opacity:1;" d="M 8.394531 7.480469 L 8.394531 8.605469 L 7.832031 8.605469 C 6.898438 8.605469 6.144531 9.359375 6.144531 10.292969 C 6.144531 11.226562 6.898438 11.980469 7.832031 11.980469 L 8.394531 11.980469 L 8.394531 13.105469 L 6.25 13.105469 C 6.480469 13.761719 7.097656 14.230469 7.832031 14.230469 L 8.394531 14.230469 L 8.394531 15.355469 L 9.519531 15.355469 L 9.519531 14.230469 L 10.082031 14.230469 C 11.019531 14.230469 11.769531 13.476562 11.769531 12.542969 C 11.769531 11.609375 11.019531 10.855469 10.082031 10.855469 L 9.519531 10.855469 L 9.519531 9.730469 L 11.667969 9.730469 C 11.433594 9.074219 10.820312 8.605469 10.082031 8.605469 L 9.519531 8.605469 L 9.519531 7.480469 Z M 7.832031 9.730469 L 8.394531 9.730469 L 8.394531 10.855469 L 7.832031 10.855469 C 7.519531 10.855469 7.269531 10.605469 7.269531 10.292969 C 7.269531 9.980469 7.519531 9.730469 7.832031 9.730469 Z M 9.519531 11.980469 L 10.082031 11.980469 C 10.394531 11.980469 10.644531 12.230469 10.644531 12.542969 C 10.644531 12.855469 10.394531 13.121094 10.082031 13.105469 L 9.519531 13.105469 Z M 9.519531 11.980469 "/>
<use xlink:href="#surface6" mask="url(#mask0)"/>
</g>
</svg>
