<?xml version="1.0" encoding="UTF-8"?>
<svg xmlns="http://www.w3.org/2000/svg" xmlns:xlink="http://www.w3.org/1999/xlink" width="36pt" height="36pt" viewBox="0 0 36 36" version="1.1">
<g id="surface1">
<path style=" stroke:none;fill-rule:evenodd;fill:rgb(51.764706%,37.647059%,21.568627%);fill-opacity:1;" d="M 8.40625 2.136719 L 27.59375 2.136719 C 31.054688 2.136719 33.863281 4.945312 33.863281 8.40625 L 33.863281 27.59375 C 33.863281 31.054688 31.054688 33.863281 27.59375 33.863281 L 8.40625 33.863281 C 4.945312 33.863281 2.136719 31.054688 2.136719 27.59375 L 2.136719 8.40625 C 2.136719 4.945312 4.945312 2.136719 8.40625 2.136719 Z M 8.40625 2.136719 "/>
<path style=" stroke:none;fill-rule:nonzero;fill:rgb(64.705882%,47.45098%,34.901961%);fill-opacity:1;" d="M 17.695312 16.851562 C 17.324219 17.0625 16.90625 17.171875 16.476562 17.171875 C 16.433594 17.171875 16.390625 17.164062 16.347656 17.160156 L 16.347656 21.769531 L 15.296875 20.597656 C 15.085938 20.871094 14.761719 21.03125 14.417969 21.03125 C 14.417969 21.109375 14.410156 21.1875 14.390625 21.265625 L 16.347656 23.40625 L 16.347656 26.902344 C 14.988281 27.335938 14.695312 28.367188 14.695312 29.570312 L 21.304688 29.570312 C 21.304688 28.367188 21.011719 27.335938 19.652344 26.902344 L 19.652344 25.761719 L 21.648438 23.832031 C 21.605469 23.703125 21.582031 23.570312 21.582031 23.429688 C 21.582031 23.222656 21.632812 23.019531 21.730469 22.839844 C 21.726562 22.835938 21.726562 22.832031 21.722656 22.828125 C 21.675781 22.835938 21.628906 22.839844 21.582031 22.839844 C 21.421875 22.839844 21.261719 22.804688 21.117188 22.730469 L 19.652344 24.125 L 19.652344 17.050781 C 19.414062 17.125 19.171875 17.171875 18.914062 17.171875 C 18.484375 17.171875 18.066406 17.0625 17.695312 16.851562 Z M 17.695312 16.851562 "/>
<path style=" stroke:none;fill-rule:nonzero;fill:rgb(10.980392%,55.294118%,26.27451%);fill-opacity:1;" d="M 17.695312 6.429688 C 17.046875 6.429688 16.429688 6.683594 15.972656 7.132812 C 15.742188 7.0625 15.5 7.027344 15.257812 7.027344 C 13.914062 7.027344 12.824219 8.09375 12.824219 9.414062 C 12.824219 9.976562 13.027344 10.519531 13.398438 10.949219 C 12.664062 11.382812 12.214844 12.15625 12.214844 12.996094 C 12.214844 14.109375 13 15.070312 14.105469 15.320312 C 14.359375 16.402344 15.34375 17.171875 16.476562 17.171875 C 16.90625 17.171875 17.324219 17.0625 17.695312 16.851562 C 18.066406 17.0625 18.484375 17.171875 18.914062 17.171875 C 19.792969 17.171875 20.601562 16.710938 21.03125 15.960938 C 22.253906 15.816406 23.175781 14.796875 23.175781 13.589844 C 23.175781 13.523438 23.171875 13.457031 23.164062 13.386719 C 23.5625 12.953125 23.785156 12.386719 23.785156 11.800781 C 23.785156 10.6875 23 9.726562 21.894531 9.476562 C 21.664062 8.496094 20.832031 7.761719 19.8125 7.640625 C 19.382812 6.894531 18.570312 6.429688 17.695312 6.429688 Z M 13.316406 18.828125 C 13.023438 18.828125 12.746094 18.941406 12.539062 19.148438 C 12.332031 19.355469 12.214844 19.636719 12.214844 19.929688 C 12.214844 20.121094 12.265625 20.3125 12.363281 20.480469 C 12.265625 20.648438 12.214844 20.835938 12.214844 21.03125 C 12.214844 21.324219 12.332031 21.601562 12.539062 21.808594 C 12.746094 22.015625 13.023438 22.132812 13.316406 22.132812 C 13.925781 22.132812 14.417969 21.636719 14.417969 21.03125 C 15.027344 21.03125 15.519531 20.539062 15.519531 19.929688 C 15.519531 19.636719 15.40625 19.355469 15.199219 19.148438 C 14.992188 18.941406 14.710938 18.828125 14.417969 18.828125 C 14.226562 18.828125 14.035156 18.878906 13.867188 18.976562 C 13.699219 18.878906 13.511719 18.828125 13.316406 18.828125 Z M 21.582031 20.480469 C 20.972656 20.480469 20.480469 21.007812 20.480469 21.660156 C 20.480469 22.3125 20.972656 22.839844 21.582031 22.839844 C 21.628906 22.839844 21.675781 22.835938 21.722656 22.828125 C 21.726562 22.832031 21.726562 22.835938 21.730469 22.839844 C 21.632812 23.019531 21.582031 23.222656 21.582031 23.429688 C 21.582031 24.082031 22.074219 24.609375 22.683594 24.613281 C 23.292969 24.613281 23.785156 24.082031 23.785156 23.429688 C 23.785156 23.222656 23.734375 23.019531 23.636719 22.839844 C 23.734375 22.660156 23.785156 22.457031 23.785156 22.25 C 23.785156 21.597656 23.292969 21.070312 22.683594 21.070312 C 22.636719 21.070312 22.585938 21.074219 22.539062 21.082031 C 22.347656 20.710938 21.980469 20.480469 21.582031 20.480469 Z M 21.582031 20.480469 "/>
</g>
</svg>
