<?xml version="1.0" encoding="UTF-8"?>
<svg xmlns="http://www.w3.org/2000/svg" xmlns:xlink="http://www.w3.org/1999/xlink" width="36pt" height="36pt" viewBox="0 0 36 36" version="1.1">
<g id="surface1">
<path style=" stroke:none;fill-rule:evenodd;fill:rgb(55.686275%,55.686275%,55.686275%);fill-opacity:1;" d="M 18.765625 33.863281 L 27.59375 33.863281 C 31.066406 33.863281 33.863281 31.066406 33.863281 27.589844 L 33.863281 8.40625 C 33.863281 4.933594 31.066406 2.136719 27.59375 2.136719 L 18.765625 2.136719 Z M 18.765625 33.863281 "/>
<path style=" stroke:none;fill-rule:evenodd;fill:rgb(30.980392%,30.980392%,30.980392%);fill-opacity:1;" d="M 18.765625 33.863281 L 18.765625 2.136719 L 8.410156 2.136719 C 4.933594 2.136719 2.136719 4.933594 2.136719 8.40625 L 2.136719 27.589844 C 2.136719 31.066406 4.933594 33.863281 8.410156 33.863281 Z M 18.765625 33.863281 "/>
<path style=" stroke:none;fill-rule:nonzero;fill:rgb(100%,100%,100%);fill-opacity:1;" d="M 8.992188 9.023438 L 8.992188 10.039062 L 8.484375 10.039062 C 7.640625 10.039062 6.960938 10.71875 6.960938 11.5625 C 6.960938 12.40625 7.640625 13.085938 8.484375 13.085938 L 8.992188 13.085938 L 8.992188 14.101562 L 7.054688 14.101562 C 7.265625 14.691406 7.820312 15.117188 8.484375 15.117188 L 8.992188 15.117188 L 8.992188 16.132812 L 10.007812 16.132812 L 10.007812 15.117188 L 10.515625 15.117188 C 11.359375 15.117188 12.039062 14.4375 12.039062 13.59375 C 12.039062 12.75 11.359375 12.070312 10.515625 12.070312 L 10.007812 12.070312 L 10.007812 11.054688 L 11.949219 11.054688 C 11.738281 10.464844 11.179688 10.039062 10.515625 10.039062 L 10.007812 10.039062 L 10.007812 9.023438 Z M 8.484375 11.054688 L 8.992188 11.054688 L 8.992188 12.070312 L 8.484375 12.070312 C 8.203125 12.070312 7.976562 11.84375 7.976562 11.5625 C 7.976562 11.28125 8.203125 11.054688 8.484375 11.054688 Z M 10.007812 13.085938 L 10.515625 13.085938 C 10.796875 13.085938 11.023438 13.3125 11.023438 13.59375 C 11.023438 13.875 10.796875 14.113281 10.515625 14.101562 L 10.007812 14.101562 Z M 14.070312 15.117188 L 14.070312 16.132812 L 16.101562 16.132812 L 16.101562 15.117188 Z M 14.070312 15.117188 "/>
<path style=" stroke:none;fill-rule:nonzero;fill:rgb(100%,100%,100%);fill-opacity:1;" d="M 22.195312 9.023438 L 22.195312 10.039062 L 20.671875 10.039062 L 20.671875 11.054688 L 22.195312 11.054688 L 22.195312 14.101562 L 20.671875 14.101562 L 20.671875 15.117188 L 22.195312 15.117188 L 22.195312 16.132812 L 23.210938 16.132812 L 23.210938 15.117188 L 25.242188 15.117188 L 25.242188 16.132812 L 26.257812 16.132812 L 26.257812 15.117188 L 27.78125 15.117188 L 27.78125 14.101562 L 26.257812 14.101562 L 26.257812 11.054688 L 27.78125 11.054688 L 27.78125 10.039062 L 26.257812 10.039062 L 26.257812 9.023438 L 25.242188 9.023438 L 25.242188 10.039062 L 23.210938 10.039062 L 23.210938 9.023438 Z M 23.210938 11.054688 L 25.242188 11.054688 L 25.242188 14.101562 L 23.210938 14.101562 Z M 29.304688 15.117188 L 29.304688 16.132812 L 31.335938 16.132812 L 31.335938 15.117188 Z M 29.304688 15.117188 "/>
</g>
</svg>
