<?xml version="1.0" encoding="UTF-8"?>
<svg xmlns="http://www.w3.org/2000/svg" xmlns:xlink="http://www.w3.org/1999/xlink" width="36pt" height="36pt" viewBox="0 0 36 36" version="1.1">
<g id="surface1">
<path style=" stroke:none;fill-rule:evenodd;fill:rgb(20%,30.196078%,36.078431%);fill-opacity:1;" d="M 33.863281 17.367188 L 2.136719 17.367188 L 2.136719 27.523438 C 2.136719 30.996094 4.933594 33.792969 8.40625 33.792969 L 27.59375 33.792969 C 31.066406 33.792969 33.863281 30.996094 33.863281 27.523438 Z M 33.863281 17.367188 "/>
<path style=" stroke:none;fill-rule:evenodd;fill:rgb(81.568627%,49.411765%,20.392157%);fill-opacity:1;" d="M 33.863281 11.460938 L 2.136719 11.460938 L 2.136719 17.367188 L 33.863281 17.367188 Z M 33.863281 11.460938 "/>
<path style=" stroke:none;fill-rule:evenodd;fill:rgb(50.196078%,50.196078%,50.196078%);fill-opacity:1;" d="M 8.40625 2.066406 C 4.933594 2.066406 2.136719 4.863281 2.136719 8.335938 L 2.136719 11.460938 L 33.863281 11.460938 L 33.863281 8.335938 C 33.863281 4.863281 31.066406 2.066406 27.59375 2.066406 Z M 8.40625 2.066406 "/>
<path style=" stroke:none;fill-rule:evenodd;fill:rgb(91.764706%,67.843137%,26.27451%);fill-opacity:1;" d="M 33.863281 16.492188 L 2.136719 16.492188 L 2.136719 27.664062 C 2.136719 31.136719 4.933594 33.933594 8.40625 33.933594 L 27.589844 33.933594 C 31.066406 33.933594 33.863281 31.136719 33.863281 27.664062 Z M 33.863281 16.492188 "/>
<path style=" stroke:none;fill-rule:evenodd;fill:rgb(79.607843%,49.803922%,17.254902%);fill-opacity:1;" d="M 10.191406 20.253906 C 10.191406 20.890625 9.675781 21.40625 9.039062 21.40625 C 8.402344 21.40625 7.886719 20.890625 7.886719 20.253906 C 7.886719 19.617188 8.402344 19.101562 9.039062 19.101562 C 9.675781 19.101562 10.191406 19.617188 10.191406 20.253906 Z M 10.191406 20.253906 "/>
<path style=" stroke:none;fill-rule:evenodd;fill:rgb(79.607843%,49.803922%,17.254902%);fill-opacity:1;" d="M 28.664062 20.273438 C 28.664062 20.910156 28.148438 21.425781 27.511719 21.425781 C 26.875 21.425781 26.359375 20.910156 26.359375 20.273438 C 26.359375 19.636719 26.875 19.121094 27.511719 19.121094 C 28.148438 19.121094 28.664062 19.636719 28.664062 20.273438 Z M 28.664062 20.273438 "/>
<path style="fill:none;stroke-width:1.290687;stroke-linecap:round;stroke-linejoin:miter;stroke:rgb(100%,100%,100%);stroke-opacity:1;stroke-miterlimit:4;" d="M -37.336923 20.290666 C -36.573035 32.075389 -21.607757 30.957333 -21.03484 20.290666 " transform="matrix(1.125,0,0,1.125,51.101695,-2.135593)"/>
<path style=" stroke:none;fill-rule:evenodd;fill:rgb(0%,69.803922%,0%);fill-opacity:1;" d="M 31.234375 25.035156 C 31.234375 28.144531 28.714844 30.660156 25.609375 30.660156 C 22.5 30.660156 19.984375 28.144531 19.984375 25.035156 C 19.984375 21.929688 22.5 19.410156 25.609375 19.410156 C 28.714844 19.410156 31.234375 21.929688 31.234375 25.035156 Z M 31.234375 25.035156 "/>
<path style=" stroke:none;fill-rule:nonzero;fill:rgb(100%,100%,100%);fill-opacity:1;" d="M 23.078125 25.339844 C 23.167969 25.371094 23.253906 25.433594 23.335938 25.53125 C 23.421875 25.628906 23.503906 25.765625 23.589844 25.9375 L 24.007812 26.769531 L 23.566406 26.769531 L 23.175781 25.988281 C 23.074219 25.785156 22.976562 25.648438 22.878906 25.582031 C 22.785156 25.515625 22.65625 25.480469 22.496094 25.480469 L 22.042969 25.480469 L 22.042969 26.769531 L 21.632812 26.769531 L 21.632812 23.71875 L 22.5625 23.71875 C 22.914062 23.71875 23.171875 23.792969 23.34375 23.9375 C 23.515625 24.082031 23.601562 24.304688 23.601562 24.597656 C 23.601562 24.789062 23.558594 24.949219 23.46875 25.078125 C 23.378906 25.203125 23.25 25.292969 23.078125 25.339844 Z M 22.042969 24.058594 L 22.042969 25.140625 L 22.5625 25.140625 C 22.761719 25.140625 22.914062 25.097656 23.015625 25.003906 C 23.117188 24.914062 23.167969 24.777344 23.167969 24.597656 C 23.167969 24.417969 23.117188 24.285156 23.015625 24.195312 C 22.914062 24.105469 22.761719 24.058594 22.5625 24.058594 Z M 22.042969 24.058594 "/>
<path style=" stroke:none;fill-rule:nonzero;fill:rgb(100%,100%,100%);fill-opacity:1;" d="M 24.957031 24.058594 L 24.957031 25.207031 L 25.476562 25.207031 C 25.667969 25.207031 25.816406 25.15625 25.921875 25.054688 C 26.027344 24.957031 26.078125 24.816406 26.078125 24.628906 C 26.078125 24.449219 26.027344 24.308594 25.921875 24.207031 C 25.816406 24.109375 25.667969 24.058594 25.476562 24.058594 Z M 24.542969 23.71875 L 25.476562 23.71875 C 25.816406 23.71875 26.074219 23.796875 26.25 23.953125 C 26.425781 24.105469 26.515625 24.332031 26.515625 24.628906 C 26.515625 24.933594 26.425781 25.160156 26.25 25.3125 C 26.074219 25.46875 25.816406 25.542969 25.476562 25.542969 L 24.957031 25.542969 L 24.957031 26.769531 L 24.542969 26.769531 Z M 24.542969 23.71875 "/>
<path style=" stroke:none;fill-rule:nonzero;fill:rgb(100%,100%,100%);fill-opacity:1;" d="M 27.070312 23.71875 L 27.683594 23.71875 L 28.464844 25.796875 L 29.246094 23.71875 L 29.863281 23.71875 L 29.863281 26.769531 L 29.460938 26.769531 L 29.460938 24.089844 L 28.671875 26.183594 L 28.257812 26.183594 L 27.46875 24.089844 L 27.46875 26.769531 L 27.070312 26.769531 Z M 27.070312 23.71875 "/>
</g>
</svg>
