<?xml version="1.0" encoding="UTF-8"?>
<svg xmlns="http://www.w3.org/2000/svg" xmlns:xlink="http://www.w3.org/1999/xlink" width="36pt" height="36pt" viewBox="0 0 36 36" version="1.1">
<g id="surface1">
<path style=" stroke:none;fill-rule:evenodd;fill:rgb(40%,40%,40%);fill-opacity:1;" d="M 8.40625 2.136719 L 27.59375 2.136719 C 31.054688 2.136719 33.863281 4.945312 33.863281 8.40625 L 33.863281 27.59375 C 33.863281 31.054688 31.054688 33.863281 27.59375 33.863281 L 8.40625 33.863281 C 4.945312 33.863281 2.136719 31.054688 2.136719 27.59375 L 2.136719 8.40625 C 2.136719 4.945312 4.945312 2.136719 8.40625 2.136719 Z M 8.40625 2.136719 "/>
<path style=" stroke:none;fill-rule:nonzero;fill:rgb(92.941176%,31.372549%,31.372549%);fill-opacity:1;" d="M 16.355469 5.339844 L 5.339844 29.265625 L 5.339844 29.304688 C 5.339844 30.054688 5.941406 30.65625 6.6875 30.660156 L 18 6.09375 L 29.3125 30.660156 C 30.058594 30.65625 30.660156 30.054688 30.660156 29.304688 L 30.660156 29.265625 L 19.644531 5.339844 Z M 16.355469 5.339844 "/>
<path style=" stroke:none;fill-rule:nonzero;fill:rgb(43.921569%,92.941176%,31.372549%);fill-opacity:1;" d="M 6.625 5.347656 C 5.929688 5.382812 5.382812 5.929688 5.347656 6.625 L 16.722656 18 L 5.347656 29.375 C 5.382812 30.066406 5.933594 30.617188 6.625 30.652344 L 18 19.277344 L 29.375 30.652344 C 30.066406 30.617188 30.617188 30.066406 30.652344 29.375 L 19.277344 18 L 30.652344 6.625 C 30.617188 5.929688 30.066406 5.382812 29.375 5.347656 L 18 16.722656 Z M 6.625 5.347656 "/>
<path style=" stroke:none;fill-rule:nonzero;fill:rgb(31.372549%,57.647059%,92.941176%);fill-opacity:1;" d="M 6.695312 5.339844 C 5.945312 5.339844 5.339844 5.945312 5.339844 6.695312 L 5.339844 7.148438 L 17.097656 7.148438 L 17.097656 30.660156 L 18.90625 30.660156 L 18.90625 7.148438 L 30.660156 7.148438 L 30.660156 6.695312 C 30.660156 5.945312 30.054688 5.339844 29.304688 5.339844 Z M 6.695312 5.339844 "/>
</g>
</svg>
