<?xml version="1.0" encoding="UTF-8"?>
<svg xmlns="http://www.w3.org/2000/svg" xmlns:xlink="http://www.w3.org/1999/xlink" width="36pt" height="36pt" viewBox="0 0 36 36" version="1.1">
<g id="surface1">
<path style=" stroke:none;fill-rule:evenodd;fill:rgb(72.941176%,83.921569%,19.607843%);fill-opacity:1;" d="M 8.40625 2.136719 L 27.59375 2.136719 C 31.054688 2.136719 33.863281 4.945312 33.863281 8.40625 L 33.863281 27.59375 C 33.863281 31.054688 31.054688 33.863281 27.59375 33.863281 L 8.40625 33.863281 C 4.945312 33.863281 2.136719 31.054688 2.136719 27.59375 L 2.136719 8.40625 C 2.136719 4.945312 4.945312 2.136719 8.40625 2.136719 Z M 8.40625 2.136719 "/>
<path style=" stroke:none;fill-rule:nonzero;fill:rgb(100%,100%,100%);fill-opacity:1;" d="M 18 6.078125 C 11.414062 6.078125 6.078125 11.035156 6.078125 17.148438 C 6.078125 20.421875 7.636719 23.523438 10.335938 25.628906 L 10.335938 29.921875 L 13.503906 27.394531 C 14.929688 27.9375 16.457031 28.21875 18 28.21875 C 24.585938 28.21875 29.921875 23.261719 29.921875 17.148438 C 29.921875 11.035156 24.585938 6.078125 18 6.078125 Z M 18 6.078125 "/>
<path style=" stroke:none;fill-rule:nonzero;fill:rgb(34.117647%,51.764706%,9.411765%);fill-opacity:1;" d="M 18 9.484375 C 13.765625 9.484375 10.335938 12.914062 10.335938 17.148438 C 10.335938 21.382812 13.765625 24.8125 18 24.8125 C 18.285156 24.808594 18.570312 24.792969 18.851562 24.757812 L 18.851562 28.179688 C 19.71875 28.125 20.574219 27.980469 21.40625 27.753906 L 21.40625 24.011719 C 24.015625 22.71875 25.664062 20.058594 25.664062 17.148438 C 25.664062 12.914062 22.234375 9.484375 18 9.484375 Z M 18 9.484375 "/>
<path style=" stroke:none;fill-rule:nonzero;fill:rgb(14.509804%,16.078431%,12.54902%);fill-opacity:1;" d="M 18 12.890625 C 15.648438 12.890625 13.742188 14.796875 13.742188 17.148438 L 13.742188 23.515625 C 14.519531 24.03125 15.386719 24.40625 16.296875 24.613281 L 16.296875 21.050781 C 16.832031 21.285156 17.414062 21.40625 18 21.40625 C 20.351562 21.40625 22.257812 19.5 22.257812 17.148438 C 22.257812 14.796875 20.351562 12.890625 18 12.890625 Z M 18 12.890625 "/>
</g>
</svg>
