<?xml version="1.0" encoding="UTF-8"?>
<svg xmlns="http://www.w3.org/2000/svg" xmlns:xlink="http://www.w3.org/1999/xlink" width="36pt" height="36pt" viewBox="0 0 36 36" version="1.1">
<g id="surface1">
<path style=" stroke:none;fill-rule:evenodd;fill:rgb(55.686275%,55.686275%,55.686275%);fill-opacity:1;" d="M 8.40625 2.136719 L 27.59375 2.136719 C 31.054688 2.136719 33.863281 4.945312 33.863281 8.40625 L 33.863281 27.59375 C 33.863281 31.054688 31.054688 33.863281 27.59375 33.863281 L 8.40625 33.863281 C 4.945312 33.863281 2.136719 31.054688 2.136719 27.59375 L 2.136719 8.40625 C 2.136719 4.945312 4.945312 2.136719 8.40625 2.136719 Z M 8.40625 2.136719 "/>
<path style=" stroke:none;fill-rule:nonzero;fill:rgb(30.196078%,30.196078%,30.196078%);fill-opacity:1;" d="M 6.691406 22.734375 L 15.632812 22.734375 C 16.359375 22.734375 16.949219 23.324219 16.949219 24.050781 L 16.949219 27.730469 C 16.949219 28.457031 16.359375 29.046875 15.632812 29.046875 L 6.691406 29.046875 C 5.964844 29.046875 5.375 28.457031 5.375 27.730469 L 5.375 24.050781 C 5.375 23.324219 5.964844 22.734375 6.691406 22.734375 Z M 6.691406 22.734375 "/>
<path style=" stroke:none;fill-rule:nonzero;fill:rgb(30.196078%,30.196078%,30.196078%);fill-opacity:1;" d="M 20.367188 22.734375 L 29.308594 22.734375 C 30.035156 22.734375 30.625 23.324219 30.625 24.050781 L 30.625 27.730469 C 30.625 28.457031 30.035156 29.046875 29.308594 29.046875 L 20.367188 29.046875 C 19.640625 29.046875 19.050781 28.457031 19.050781 27.730469 L 19.050781 24.050781 C 19.050781 23.324219 19.640625 22.734375 20.367188 22.734375 Z M 20.367188 22.734375 "/>
<path style=" stroke:none;fill-rule:nonzero;fill:rgb(30.196078%,30.196078%,30.196078%);fill-opacity:1;" d="M 26.417969 6.953125 L 30.625 6.953125 L 30.625 8.003906 L 26.417969 8.003906 Z M 26.417969 6.953125 "/>
<path style=" stroke:none;fill-rule:nonzero;fill:rgb(30.196078%,30.196078%,30.196078%);fill-opacity:1;" d="M 26.417969 9.058594 L 30.625 9.058594 L 30.625 10.109375 L 26.417969 10.109375 Z M 26.417969 9.058594 "/>
<path style=" stroke:none;fill-rule:nonzero;fill:rgb(30.196078%,30.196078%,30.196078%);fill-opacity:1;" d="M 26.417969 11.160156 L 30.625 11.160156 L 30.625 12.214844 L 26.417969 12.214844 Z M 26.417969 11.160156 "/>
<path style=" stroke:none;fill-rule:nonzero;fill:rgb(30.196078%,30.196078%,30.196078%);fill-opacity:1;" d="M 26.417969 13.265625 L 30.625 13.265625 L 30.625 14.316406 L 26.417969 14.316406 Z M 26.417969 13.265625 "/>
<path style=" stroke:none;fill-rule:nonzero;fill:rgb(30.196078%,30.196078%,30.196078%);fill-opacity:1;" d="M 26.417969 15.371094 L 30.625 15.371094 L 30.625 16.421875 L 26.417969 16.421875 Z M 26.417969 15.371094 "/>
<path style=" stroke:none;fill-rule:nonzero;fill:rgb(30.196078%,30.196078%,30.196078%);fill-opacity:1;" d="M 26.417969 17.472656 L 30.625 17.472656 L 30.625 18.527344 L 26.417969 18.527344 Z M 26.417969 17.472656 "/>
</g>
</svg>
