<?xml version="1.0" encoding="UTF-8"?>
<svg xmlns="http://www.w3.org/2000/svg" xmlns:xlink="http://www.w3.org/1999/xlink" width="36pt" height="36pt" viewBox="0 0 36 36" version="1.1">
<defs>
<clipPath id="clip1">
  <rect width="36" height="36"/>
</clipPath>
<g id="surface6" clip-path="url(#clip1)">
<path style=" stroke:none;fill-rule:nonzero;fill:rgb(100%,100%,100%);fill-opacity:1;" d="M 15.519531 5.878906 C 15.261719 5.90625 15.035156 6.117188 14.988281 6.371094 L 14.476562 8.964844 C 13.558594 9.324219 12.695312 9.816406 11.9375 10.421875 L 9.417969 9.570312 C 9.15625 9.480469 8.839844 9.597656 8.699219 9.835938 L 6.273438 14.042969 C 6.136719 14.285156 6.195312 14.617188 6.40625 14.800781 L 8.414062 16.5625 C 8.34375 17.03125 8.300781 17.507812 8.300781 18 C 8.300781 18.492188 8.34375 18.96875 8.414062 19.441406 L 6.40625 21.203125 C 6.195312 21.382812 6.136719 21.71875 6.273438 21.960938 L 8.699219 26.164062 C 8.839844 26.402344 9.15625 26.519531 9.417969 26.429688 L 11.9375 25.578125 C 12.695312 26.183594 13.558594 26.675781 14.476562 27.035156 L 14.988281 29.632812 C 15.039062 29.902344 15.300781 30.121094 15.574219 30.125 L 20.425781 30.125 C 20.699219 30.121094 20.960938 29.902344 21.011719 29.632812 L 21.523438 27.035156 C 22.441406 26.675781 23.304688 26.183594 24.0625 25.578125 L 26.582031 26.429688 C 26.84375 26.519531 27.160156 26.402344 27.300781 26.164062 L 29.726562 21.960938 C 29.863281 21.71875 29.804688 21.382812 29.59375 21.203125 L 27.585938 19.441406 C 27.65625 18.96875 27.699219 18.492188 27.699219 18 C 27.699219 17.507812 27.65625 17.03125 27.585938 16.5625 L 29.59375 14.800781 C 29.804688 14.617188 29.863281 14.285156 29.726562 14.042969 L 27.300781 9.835938 C 27.160156 9.597656 26.84375 9.480469 26.582031 9.570312 L 24.0625 10.421875 C 23.304688 9.816406 22.441406 9.324219 21.523438 8.964844 L 21.011719 6.371094 C 20.960938 6.097656 20.699219 5.878906 20.425781 5.875 L 15.574219 5.875 C 15.554688 5.875 15.535156 5.875 15.519531 5.875 Z M 15.519531 5.878906 "/>
</g>
</defs>
<g id="surface1">
<path style=" stroke:none;fill-rule:evenodd;fill:rgb(37.254902%,48.627451%,54.117647%);fill-opacity:1;" d="M 8.40625 2.136719 L 27.59375 2.136719 C 31.054688 2.136719 33.863281 4.945312 33.863281 8.40625 L 33.863281 27.59375 C 33.863281 31.054688 31.054688 33.863281 27.59375 33.863281 L 8.40625 33.863281 C 4.945312 33.863281 2.136719 31.054688 2.136719 27.59375 L 2.136719 8.40625 C 2.136719 4.945312 4.945312 2.136719 8.40625 2.136719 Z M 8.40625 2.136719 "/>
<use xlink:href="#surface6"/>
<path style=" stroke:none;fill-rule:nonzero;fill:rgb(37.254902%,48.627451%,54.117647%);fill-opacity:1;" d="M 12.804688 13.609375 L 12.804688 17.074219 L 16.269531 17.074219 L 16.269531 24 L 19.730469 24 L 19.730469 17.074219 L 23.195312 17.074219 L 23.195312 13.609375 Z M 12.804688 13.609375 "/>
</g>
</svg>
