<?xml version="1.0" encoding="UTF-8"?>
<svg xmlns="http://www.w3.org/2000/svg" xmlns:xlink="http://www.w3.org/1999/xlink" width="36pt" height="36pt" viewBox="0 0 36 36" version="1.1">
<g id="surface1">
<path style=" stroke:none;fill-rule:evenodd;fill:rgb(76.078431%,20.784314%,16.470588%);fill-opacity:1;" d="M 8.40625 2.136719 L 27.59375 2.136719 C 31.054688 2.136719 33.863281 4.945312 33.863281 8.40625 L 33.863281 27.59375 C 33.863281 31.054688 31.054688 33.863281 27.59375 33.863281 L 8.40625 33.863281 C 4.945312 33.863281 2.136719 31.054688 2.136719 27.59375 L 2.136719 8.40625 C 2.136719 4.945312 4.945312 2.136719 8.40625 2.136719 Z M 8.40625 2.136719 "/>
<path style=" stroke:none;fill-rule:nonzero;fill:rgb(92.156863%,92.156863%,92.156863%);fill-opacity:1;" d="M 9 6.1875 L 27 6.1875 C 27.625 6.1875 28.125 6.6875 28.125 7.3125 L 28.125 28.6875 C 28.125 29.3125 27.625 29.8125 27 29.8125 L 9 29.8125 C 8.375 29.8125 7.875 29.3125 7.875 28.6875 L 7.875 7.3125 C 7.875 6.6875 8.375 6.1875 9 6.1875 Z M 9 6.1875 "/>
<path style=" stroke:none;fill-rule:evenodd;fill:rgb(24.705882%,24.705882%,24.705882%);fill-opacity:1;" d="M 18 26.4375 L 13.5 20.8125 L 15.75 20.8125 L 15.75 15.1875 L 13.5 15.1875 L 18 9.5625 L 22.5 15.1875 L 20.25 15.1875 L 20.25 20.8125 L 22.5 20.8125 Z M 18 26.4375 "/>
</g>
</svg>
