<?xml version="1.0" encoding="UTF-8"?>
<svg xmlns="http://www.w3.org/2000/svg" xmlns:xlink="http://www.w3.org/1999/xlink" width="36pt" height="36pt" viewBox="0 0 36 36" version="1.1">
<g id="surface1">
<path style=" stroke:none;fill-rule:evenodd;fill:rgb(31.764706%,50.588235%,25.098039%);fill-opacity:1;" d="M 8.40625 2.136719 L 27.59375 2.136719 C 31.054688 2.136719 33.863281 4.945312 33.863281 8.40625 L 33.863281 27.59375 C 33.863281 31.054688 31.054688 33.863281 27.59375 33.863281 L 8.40625 33.863281 C 4.945312 33.863281 2.136719 31.054688 2.136719 27.59375 L 2.136719 8.40625 C 2.136719 4.945312 4.945312 2.136719 8.40625 2.136719 Z M 8.40625 2.136719 "/>
<path style=" stroke:none;fill-rule:nonzero;fill:rgb(38.431373%,61.176471%,30.196078%);fill-opacity:1;" d="M 14.691406 6.414062 L 21.308594 6.414062 L 21.308594 8.898438 L 14.691406 8.898438 Z M 14.691406 6.414062 "/>
<path style=" stroke:none;fill-rule:nonzero;fill:rgb(63.529412%,83.137255%,44.313725%);fill-opacity:1;" d="M 10.109375 8.070312 L 25.890625 8.070312 C 26.558594 8.070312 27.101562 8.636719 27.101562 9.335938 L 27.101562 28.320312 C 27.101562 29.019531 26.558594 29.585938 25.890625 29.585938 L 10.109375 29.585938 C 9.441406 29.585938 8.898438 29.019531 8.898438 28.320312 L 8.898438 9.335938 C 8.898438 8.636719 9.441406 8.070312 10.109375 8.070312 Z M 10.109375 8.070312 "/>
<path style=" stroke:none;fill-rule:nonzero;fill:rgb(54.117647%,72.941176%,32.156863%);fill-opacity:1;" d="M 8.4375 7.242188 L 27.5625 7.242188 C 28.222656 7.242188 28.757812 7.796875 28.757812 8.484375 L 28.757812 10.964844 C 28.757812 11.652344 28.222656 12.207031 27.5625 12.207031 L 8.4375 12.207031 C 7.777344 12.207031 7.242188 11.652344 7.242188 10.964844 L 7.242188 8.484375 C 7.242188 7.796875 7.777344 7.242188 8.4375 7.242188 Z M 8.4375 7.242188 "/>
<path style=" stroke:none;fill-rule:nonzero;fill:rgb(54.117647%,72.941176%,32.156863%);fill-opacity:1;" d="M 17.171875 15.515625 L 18.828125 15.515625 C 19.285156 15.515625 19.65625 15.777344 19.65625 16.097656 L 19.65625 26.523438 C 19.65625 26.84375 19.285156 27.101562 18.828125 27.101562 L 17.171875 27.101562 C 16.714844 27.101562 16.34375 26.84375 16.34375 26.523438 L 16.34375 16.097656 C 16.34375 15.777344 16.714844 15.515625 17.171875 15.515625 Z M 17.171875 15.515625 "/>
<path style=" stroke:none;fill-rule:nonzero;fill:rgb(54.117647%,72.941176%,32.156863%);fill-opacity:1;" d="M 12.207031 15.515625 L 13.863281 15.515625 C 14.320312 15.515625 14.691406 15.777344 14.691406 16.097656 L 14.691406 26.523438 C 14.691406 26.84375 14.320312 27.101562 13.863281 27.101562 L 12.207031 27.101562 C 11.75 27.101562 11.378906 26.84375 11.378906 26.523438 L 11.378906 16.097656 C 11.378906 15.777344 11.75 15.515625 12.207031 15.515625 Z M 12.207031 15.515625 "/>
<path style=" stroke:none;fill-rule:nonzero;fill:rgb(54.117647%,72.941176%,32.156863%);fill-opacity:1;" d="M 22.136719 15.515625 L 23.792969 15.515625 C 24.25 15.515625 24.621094 15.777344 24.621094 16.097656 L 24.621094 26.523438 C 24.621094 26.84375 24.25 27.101562 23.792969 27.101562 L 22.136719 27.101562 C 21.679688 27.101562 21.308594 26.84375 21.308594 26.523438 L 21.308594 16.097656 C 21.308594 15.777344 21.679688 15.515625 22.136719 15.515625 Z M 22.136719 15.515625 "/>
<path style=" stroke:none;fill-rule:nonzero;fill:rgb(54.117647%,72.941176%,32.156863%);fill-opacity:1;" d="M 14.691406 6.414062 L 21.308594 6.414062 L 21.308594 7.242188 L 14.691406 7.242188 Z M 14.691406 6.414062 "/>
</g>
</svg>
