<?xml version="1.0" encoding="UTF-8"?>
<svg xmlns="http://www.w3.org/2000/svg" xmlns:xlink="http://www.w3.org/1999/xlink" width="36pt" height="36pt" viewBox="0 0 36 36" version="1.1">
<g id="surface1">
<path style=" stroke:none;fill-rule:evenodd;fill:rgb(63.921569%,16.862745%,34.509804%);fill-opacity:1;" d="M 8.40625 2.136719 L 27.59375 2.136719 C 31.054688 2.136719 33.863281 4.945312 33.863281 8.40625 L 33.863281 27.59375 C 33.863281 31.054688 31.054688 33.863281 27.59375 33.863281 L 8.40625 33.863281 C 4.945312 33.863281 2.136719 31.054688 2.136719 27.59375 L 2.136719 8.40625 C 2.136719 4.945312 4.945312 2.136719 8.40625 2.136719 Z M 8.40625 2.136719 "/>
<path style=" stroke:none;fill-rule:nonzero;fill:rgb(95.294118%,67.058824%,43.529412%);fill-opacity:1;" d="M 21.9375 15.75 C 18.210938 15.75 15.1875 18.773438 15.1875 22.5 C 15.1875 26.226562 18.210938 29.25 21.9375 29.25 C 25.664062 29.25 28.6875 26.226562 28.6875 22.5 C 28.6875 18.773438 25.664062 15.75 21.9375 15.75 Z M 22.5 16.875 C 25.296875 16.875 27.5625 19.140625 27.5625 21.9375 C 27.5625 24.734375 25.296875 27 22.5 27 C 19.703125 27 17.4375 24.734375 17.4375 21.9375 C 17.4375 19.140625 19.703125 16.875 22.5 16.875 Z M 22.5 16.875 "/>
<path style=" stroke:none;fill-rule:nonzero;fill:rgb(96.862745%,76.470588%,60.392157%);fill-opacity:1;" d="M 28.6875 20.25 C 28.6875 22.113281 27.175781 23.625 25.3125 23.625 C 23.449219 23.625 21.9375 22.113281 21.9375 20.25 C 21.9375 18.386719 23.449219 16.875 25.3125 16.875 C 27.175781 16.875 28.6875 18.386719 28.6875 20.25 Z M 28.6875 20.25 "/>
<path style=" stroke:none;fill-rule:nonzero;fill:rgb(95.294118%,67.058824%,43.529412%);fill-opacity:1;" d="M 14.0625 6.75 C 10.335938 6.75 7.3125 9.773438 7.3125 13.5 C 7.3125 17.226562 10.335938 20.25 14.0625 20.25 C 17.789062 20.25 20.8125 17.226562 20.8125 13.5 C 20.8125 9.773438 17.789062 6.75 14.0625 6.75 Z M 14.625 7.875 C 17.421875 7.875 19.6875 10.140625 19.6875 12.9375 C 19.6875 15.734375 17.421875 18 14.625 18 C 11.828125 18 9.5625 15.734375 9.5625 12.9375 C 9.5625 10.140625 11.828125 7.875 14.625 7.875 Z M 14.625 7.875 "/>
<path style=" stroke:none;fill-rule:nonzero;fill:rgb(96.862745%,76.470588%,60.392157%);fill-opacity:1;" d="M 20.8125 11.25 C 20.8125 13.113281 19.300781 14.625 17.4375 14.625 C 15.574219 14.625 14.0625 13.113281 14.0625 11.25 C 14.0625 9.386719 15.574219 7.875 17.4375 7.875 C 19.300781 7.875 20.8125 9.386719 20.8125 11.25 Z M 20.8125 11.25 "/>
</g>
</svg>
