<?xml version="1.0" encoding="UTF-8"?>
<svg xmlns="http://www.w3.org/2000/svg" xmlns:xlink="http://www.w3.org/1999/xlink" width="36pt" height="36pt" viewBox="0 0 36 36" version="1.1">
<g id="surface1">
<path style=" stroke:none;fill-rule:evenodd;fill:rgb(99.607843%,80.392157%,21.960784%);fill-opacity:1;" d="M 8.40625 2.136719 L 27.59375 2.136719 C 31.054688 2.136719 33.863281 4.945312 33.863281 8.40625 L 33.863281 27.59375 C 33.863281 31.054688 31.054688 33.863281 27.59375 33.863281 L 8.40625 33.863281 C 4.945312 33.863281 2.136719 31.054688 2.136719 27.59375 L 2.136719 8.40625 C 2.136719 4.945312 4.945312 2.136719 8.40625 2.136719 Z M 8.40625 2.136719 "/>
<path style=" stroke:none;fill-rule:nonzero;fill:rgb(100%,100%,100%);fill-opacity:1;" d="M 7.304688 6.011719 C 8.160156 7.195312 8.597656 8.453125 7.304688 10.292969 C 7.167969 11.898438 7.730469 12.835938 9.652344 12.800781 C 10.109375 12.769531 10.832031 12.679688 11.210938 12.320312 C 11.8125 11.585938 11.578125 11.199219 11.332031 11.148438 C 11.074219 11.070312 10.449219 11.457031 11.050781 11.742188 C 11.175781 12.257812 9.738281 12.207031 9.472656 11.769531 C 8.472656 9.984375 11.128906 8.699219 14.15625 9.863281 C 14.773438 14.746094 15.476562 20.960938 14.71875 26.769531 C 14.222656 27.925781 13.6875 28.617188 12.441406 29.132812 L 12.441406 29.988281 C 14.15625 29.132812 18.4375 29.132812 21.003906 29.132812 L 21.003906 28.277344 C 19.898438 28.078125 19.019531 27.046875 18.886719 26.011719 C 18.457031 20.253906 18.144531 16.039062 19.292969 10.292969 L 23.546875 10.292969 C 24.078125 10.304688 24.296875 10.746094 24.429688 12.003906 L 26.144531 12.003906 C 25.546875 10.578125 25.289062 9.4375 25.289062 7.722656 C 18.890625 8.710938 14.222656 7.835938 7.304688 6.011719 Z M 24.976562 19.710938 C 24.65625 19.714844 24.335938 19.746094 24.023438 19.800781 C 23.417969 19.910156 22.65625 20.242188 22.503906 20.835938 C 22.363281 21.378906 22.328125 22.125 23.257812 22.339844 L 23.574219 22.28125 L 23.574219 21.425781 C 24.09375 20.367188 25.285156 20.300781 26 21.09375 C 26.886719 22.699219 25.746094 24.570312 24.921875 25.773438 C 24.109375 27.109375 22.972656 27.347656 21.863281 28.277344 L 21.863281 29.132812 C 21.863281 29.132812 25.664062 29.367188 27 29.988281 C 27.1875 29.210938 29.042969 27.710938 28.664062 26.964844 C 28.160156 26.320312 27 26.5625 27 27.417969 L 27.75 27.402344 C 27.886719 27.113281 27.8125 27.058594 27.992188 27.234375 C 28.097656 27.753906 27.550781 28.015625 27.191406 28.179688 C 26.144531 28.277344 24.429688 28.277344 24.425781 28.230469 C 26.742188 25.921875 29.757812 23.089844 27.71875 20.714844 C 26.925781 19.980469 25.945312 19.707031 24.976562 19.710938 Z M 24.976562 19.710938 "/>
</g>
</svg>
