<?xml version="1.0" encoding="UTF-8"?>
<svg xmlns="http://www.w3.org/2000/svg" xmlns:xlink="http://www.w3.org/1999/xlink" width="36pt" height="36pt" viewBox="0 0 36 36" version="1.1">
<g id="surface1">
<path style=" stroke:none;fill-rule:evenodd;fill:rgb(60%,60%,60%);fill-opacity:1;" d="M 32.320312 31.601562 C 31.984375 31.683594 31.566406 31.789062 31.566406 31.789062 L 4.398438 31.789062 C 4.273438 31.789062 3.957031 31.683594 3.707031 31.640625 C 4.855469 32.976562 6.5 33.863281 8.40625 33.863281 L 27.59375 33.863281 C 29.515625 33.863281 31.171875 32.957031 32.320312 31.601562 Z M 32.320312 31.601562 "/>
<path style=" stroke:none;fill-rule:evenodd;fill:rgb(65.098039%,65.098039%,65.098039%);fill-opacity:1;" d="M 33.832031 27.765625 L 33.832031 15.71875 C 33.832031 15.199219 33.582031 14.742188 33.199219 14.453125 L 33.203125 14.445312 L 17.984375 3.265625 C 17.984375 3.265625 2.765625 14.460938 2.859375 14.390625 L 2.859375 14.386719 C 2.824219 14.410156 2.792969 14.433594 2.761719 14.457031 L 2.746094 14.472656 C 2.375 14.761719 2.136719 15.210938 2.136719 15.71875 L 2.136719 27.59375 C 2.136719 29.160156 2.761719 30.542969 3.707031 31.640625 C 3.957031 31.683594 4.273438 31.789062 4.398438 31.789062 L 31.566406 31.789062 C 31.566406 31.789062 31.984375 31.683594 32.320312 31.601562 C 33.207031 30.550781 33.789062 29.246094 33.832031 27.765625 Z M 33.832031 27.765625 "/>
<path style=" stroke:none;fill-rule:evenodd;fill:rgb(40%,40%,40%);fill-opacity:1;" d="M 8.40625 2.136719 C 4.933594 2.136719 2.132812 4.933594 2.132812 8.410156 L 2.132812 15.71875 C 2.132812 15.210938 2.375 14.761719 2.746094 14.472656 L 2.761719 14.457031 C 2.792969 14.433594 2.824219 14.410156 2.859375 14.386719 L 2.859375 14.390625 C 2.765625 14.460938 17.984375 3.265625 17.984375 3.265625 L 33.203125 14.445312 L 33.199219 14.453125 C 33.582031 14.742188 33.832031 15.199219 33.832031 15.71875 L 33.832031 27.765625 C 33.832031 27.707031 33.863281 27.65625 33.863281 27.59375 L 33.863281 8.410156 C 33.863281 4.933594 31.066406 2.136719 27.59375 2.136719 Z M 8.40625 2.136719 "/>
<path style=" stroke:none;fill-rule:nonzero;fill:rgb(19.215686%,68.627451%,88.235294%);fill-opacity:1;" d="M 7.230469 6.660156 L 28.738281 6.660156 C 29.675781 6.660156 30.433594 7.417969 30.433594 8.355469 L 30.433594 25.339844 C 30.433594 26.277344 29.675781 27.035156 28.738281 27.035156 L 7.230469 27.035156 C 6.292969 27.035156 5.53125 26.277344 5.53125 25.339844 L 5.53125 8.355469 C 5.53125 7.417969 6.292969 6.660156 7.230469 6.660156 Z M 7.230469 6.660156 "/>
<path style=" stroke:none;fill-rule:nonzero;fill:rgb(100%,100%,100%);fill-opacity:1;" d="M 17.984375 10.054688 C 14.859375 10.054688 12.324219 12.589844 12.324219 15.714844 C 12.324219 18.839844 14.859375 21.375 17.984375 21.375 L 21.945312 21.375 C 22.257812 21.375 22.511719 21.125 22.511719 20.808594 C 22.511719 20.496094 22.257812 20.242188 21.945312 20.242188 L 17.984375 20.242188 C 15.484375 20.242188 13.457031 18.214844 13.457031 15.714844 C 13.457031 13.214844 15.484375 11.1875 17.984375 11.1875 C 20.484375 11.1875 22.511719 13.214844 22.511719 15.714844 L 22.511719 17.414062 C 22.511719 17.726562 22.257812 17.980469 21.945312 17.980469 C 21.632812 17.980469 21.378906 17.726562 21.378906 17.414062 L 21.378906 15.714844 C 21.378906 13.839844 19.859375 12.320312 17.984375 12.320312 C 16.109375 12.320312 14.585938 13.839844 14.585938 15.714844 C 14.585938 17.589844 16.109375 19.113281 17.984375 19.113281 C 18.890625 19.109375 19.757812 18.75 20.394531 18.105469 C 20.660156 18.699219 21.25 19.113281 21.945312 19.113281 C 22.886719 19.113281 23.644531 18.355469 23.644531 17.414062 L 23.644531 15.714844 C 23.644531 12.589844 21.109375 10.054688 17.984375 10.054688 Z M 17.984375 13.453125 C 19.234375 13.453125 20.246094 14.464844 20.246094 15.714844 C 20.246094 16.964844 19.234375 17.980469 17.984375 17.980469 C 16.734375 17.980469 15.71875 16.964844 15.71875 15.714844 C 15.71875 14.464844 16.734375 13.453125 17.984375 13.453125 Z M 17.984375 13.453125 "/>
<path style=" stroke:none;fill-rule:evenodd;fill:rgb(82.352941%,82.352941%,82.352941%);fill-opacity:1;" d="M 33.832031 27.765625 L 33.832031 15.71875 L 7.792969 33.742188 C 8.007812 33.761719 8.191406 33.863281 8.40625 33.863281 L 27.59375 33.863281 C 31.003906 33.863281 33.734375 31.15625 33.832031 27.765625 Z M 33.832031 27.765625 "/>
<path style=" stroke:none;fill-rule:evenodd;fill:rgb(74.509804%,74.509804%,74.509804%);fill-opacity:1;" d="M 17.984375 26.6875 L 2.136719 15.71875 L 2.136719 27.59375 C 2.136719 30.851562 4.625 33.421875 7.792969 33.742188 Z M 17.984375 26.6875 "/>
</g>
</svg>
