<?xml version="1.0" encoding="UTF-8"?>
<svg xmlns="http://www.w3.org/2000/svg" xmlns:xlink="http://www.w3.org/1999/xlink" width="36pt" height="36pt" viewBox="0 0 36 36" version="1.1">
<g id="surface1">
<path style=" stroke:none;fill-rule:evenodd;fill:rgb(70.196078%,70.196078%,70.196078%);fill-opacity:1;" d="M 8.40625 2.136719 L 27.59375 2.136719 C 31.054688 2.136719 33.863281 4.945312 33.863281 8.40625 L 33.863281 27.59375 C 33.863281 31.054688 31.054688 33.863281 27.59375 33.863281 L 8.40625 33.863281 C 4.945312 33.863281 2.136719 31.054688 2.136719 27.59375 L 2.136719 8.40625 C 2.136719 4.945312 4.945312 2.136719 8.40625 2.136719 Z M 8.40625 2.136719 "/>
<path style=" stroke:none;fill-rule:nonzero;fill:rgb(30.980392%,30.980392%,30.980392%);fill-opacity:1;" d="M 17.980469 5.285156 C 15.542969 5.285156 13.441406 7.550781 13.441406 10.371094 C 13.441406 16.726562 9.808594 17.363281 9.808594 21.816406 C 9.808594 26.730469 13.464844 30.714844 17.980469 30.714844 C 22.496094 30.714844 26.15625 26.730469 26.15625 21.816406 C 26.15625 17.363281 22.523438 16.726562 22.523438 10.371094 C 22.523438 7.550781 20.417969 5.285156 17.980469 5.285156 Z M 17.980469 5.285156 "/>
<path style=" stroke:none;fill-rule:nonzero;fill:rgb(100%,100%,100%);fill-opacity:1;" d="M 17.980469 12.550781 C 16.355469 12.550781 15.257812 13.925781 15.257812 15.636719 C 15.257812 19.5 12.53125 19.882812 12.53125 22.585938 C 12.53125 25.570312 14.972656 27.992188 17.980469 27.992188 C 20.992188 27.992188 23.429688 25.570312 23.429688 22.585938 C 23.429688 19.882812 20.707031 19.5 20.707031 15.636719 C 20.707031 13.925781 19.605469 12.550781 17.980469 12.550781 Z M 17.980469 12.550781 "/>
<path style=" stroke:none;fill-rule:nonzero;fill:rgb(91.764706%,69.411765%,3.137255%);fill-opacity:1;" d="M 13.910156 30.695312 C 13.636719 30.652344 13.394531 30.570312 12.863281 30.34375 C 12.074219 30.003906 11.707031 29.890625 10.261719 29.5625 C 9.542969 29.398438 9.273438 29.324219 8.648438 29.121094 C 8.417969 29.046875 8.117188 28.953125 7.972656 28.914062 C 7.585938 28.800781 7.480469 28.757812 7.339844 28.644531 C 7.144531 28.492188 7.054688 28.257812 7.089844 27.996094 C 7.113281 27.824219 7.171875 27.664062 7.332031 27.324219 C 7.550781 26.871094 8.089844 26.707031 8.121094 26.261719 C 8.140625 26 8.125 25.703125 8.058594 25.085938 C 8.019531 24.722656 8.007812 24.589844 8.007812 24.359375 C 8.007812 24.105469 8.011719 24.28125 8.039062 24.183594 C 8.132812 23.824219 8.207031 23.617188 8.550781 23.527344 C 8.652344 23.5 8.445312 23.496094 8.910156 23.488281 C 9.203125 23.480469 9.371094 23.472656 9.40625 23.464844 C 9.609375 23.417969 9.757812 23.339844 9.894531 23.210938 C 10.023438 23.085938 10.113281 22.414062 10.28125 22.113281 C 10.546875 21.644531 11.070312 21.652344 11.496094 21.632812 C 11.617188 21.660156 11.65625 21.675781 11.789062 21.75 C 11.921875 21.828125 11.960938 21.859375 12.078125 21.980469 C 12.371094 22.292969 12.507812 22.484375 13.164062 23.476562 C 13.679688 24.261719 13.839844 24.511719 14.046875 24.882812 C 14.277344 25.285156 14.6875 25.925781 14.839844 26.121094 C 14.863281 26.15625 15.023438 26.355469 15.191406 26.566406 C 15.355469 26.78125 15.511719 26.976562 15.53125 27.007812 C 15.84375 27.445312 16.0625 27.949219 16.144531 28.453125 C 16.167969 28.628906 16.171875 28.65625 16.15625 28.859375 C 16.136719 29.113281 16.121094 29.222656 16.09375 29.277344 C 16.082031 29.300781 16.058594 29.363281 16.039062 29.414062 C 15.796875 30.082031 15.199219 30.582031 14.507812 30.699219 C 14.359375 30.722656 14.066406 30.722656 13.910156 30.699219 Z M 13.910156 30.695312 "/>
<path style=" stroke:none;fill-rule:nonzero;fill:rgb(91.764706%,69.411765%,3.137255%);fill-opacity:1;" d="M 24.53125 30.394531 C 24.742188 30.246094 24.90625 30.082031 25.253906 29.679688 C 25.765625 29.085938 25.753906 28.84375 26.8125 27.988281 C 27.34375 27.5625 27.535156 27.394531 27.972656 26.976562 C 28.128906 26.824219 28.339844 26.625 28.441406 26.53125 C 28.71875 26.285156 28.785156 26.207031 28.859375 26.058594 C 28.957031 25.855469 28.933594 25.625 28.796875 25.429688 C 28.707031 25.300781 28.589844 25.195312 28.316406 24.984375 C 27.949219 24.707031 27.84375 24.464844 27.628906 24.117188 C 27.503906 23.914062 27.667969 23.394531 27.46875 22.871094 C 27.347656 22.558594 27.300781 22.445312 27.207031 22.257812 C 27.101562 22.054688 27.082031 22.019531 27.019531 21.953125 C 26.789062 21.699219 26.535156 21.617188 26.210938 21.683594 C 26.117188 21.703125 26.0625 21.726562 25.671875 21.910156 C 25.425781 22.023438 25.207031 22.117188 25.171875 22.125 C 24.988281 22.171875 24.832031 22.167969 24.667969 22.117188 C 24.507812 22.070312 24.378906 22.402344 24.113281 22.226562 C 23.929688 22.105469 23.734375 21.957031 23.59375 21.917969 C 23.402344 21.867188 23.402344 21.867188 23.21875 21.886719 C 23.042969 21.90625 22.914062 21.957031 22.773438 22.070312 C 22.683594 22.140625 22.65625 22.167969 22.578125 22.285156 C 22.5 22.402344 22.480469 22.441406 22.4375 22.589844 C 22.324219 22.957031 22.285156 23.171875 22.15625 24.238281 C 22.050781 25.085938 22.023438 25.355469 22.003906 25.738281 C 21.980469 26.15625 21.910156 26.84375 21.863281 27.066406 C 21.855469 27.101562 21.808594 27.328125 21.757812 27.570312 C 21.707031 27.808594 21.660156 28.03125 21.65625 28.0625 C 21.578125 28.546875 21.605469 29.042969 21.75 29.484375 C 21.800781 29.636719 21.8125 29.660156 21.90625 29.816406 C 22.027344 30.015625 22.085938 30.097656 22.132812 30.128906 C 22.152344 30.144531 22.195312 30.183594 22.234375 30.21875 C 22.710938 30.660156 23.414062 30.824219 24.039062 30.632812 C 24.167969 30.59375 24.410156 30.472656 24.53125 30.390625 Z M 24.53125 30.394531 "/>
<path style=" stroke:none;fill-rule:nonzero;fill:rgb(100%,100%,100%);fill-opacity:1;" d="M 17.980469 9.824219 C 17.980469 10.828125 17.167969 11.640625 16.164062 11.640625 C 15.160156 11.640625 14.347656 10.828125 14.347656 9.824219 C 14.347656 8.820312 15.160156 8.007812 16.164062 8.007812 C 17.167969 8.007812 17.980469 8.820312 17.980469 9.824219 Z M 17.980469 9.824219 "/>
<path style=" stroke:none;fill-rule:nonzero;fill:rgb(19.607843%,19.607843%,19.607843%);fill-opacity:1;" d="M 17.074219 9.824219 C 17.074219 10.328125 16.667969 10.734375 16.164062 10.734375 C 15.664062 10.734375 15.257812 10.328125 15.257812 9.824219 C 15.257812 9.324219 15.664062 8.917969 16.164062 8.917969 C 16.667969 8.917969 17.074219 9.324219 17.074219 9.824219 Z M 17.074219 9.824219 "/>
<path style=" stroke:none;fill-rule:nonzero;fill:rgb(96.862745%,49.019608%,0%);fill-opacity:1;" d="M 20.707031 12.097656 C 20.707031 13.851562 19.484375 15.273438 17.980469 15.273438 C 16.476562 15.273438 15.257812 13.851562 15.257812 12.097656 Z M 20.707031 12.097656 "/>
<path style=" stroke:none;fill-rule:nonzero;fill:rgb(100%,100%,100%);fill-opacity:1;" d="M 21.613281 9.824219 C 21.613281 10.828125 20.800781 11.640625 19.796875 11.640625 C 18.792969 11.640625 17.980469 10.828125 17.980469 9.824219 C 17.980469 8.820312 18.792969 8.007812 19.796875 8.007812 C 20.800781 8.007812 21.613281 8.820312 21.613281 9.824219 Z M 21.613281 9.824219 "/>
<path style=" stroke:none;fill-rule:nonzero;fill:rgb(19.607843%,19.607843%,19.607843%);fill-opacity:1;" d="M 20.707031 9.824219 C 20.707031 10.328125 20.300781 10.734375 19.796875 10.734375 C 19.296875 10.734375 18.890625 10.328125 18.890625 9.824219 C 18.890625 9.324219 19.296875 8.917969 19.796875 8.917969 C 20.300781 8.917969 20.707031 9.324219 20.707031 9.824219 Z M 20.707031 9.824219 "/>
<path style=" stroke:none;fill-rule:nonzero;fill:rgb(91.764706%,69.411765%,3.137255%);fill-opacity:1;" d="M 20.707031 12.246094 C 20.707031 12.550781 19.484375 14.367188 17.980469 14.367188 C 16.476562 14.367188 15.257812 12.550781 15.257812 12.246094 C 15.257812 11.410156 16.476562 10.734375 17.980469 10.734375 C 19.484375 10.734375 20.707031 11.410156 20.707031 12.246094 Z M 20.707031 12.246094 "/>
<path style=" stroke:none;fill-rule:nonzero;fill:rgb(30.980392%,30.980392%,30.980392%);fill-opacity:1;" d="M 24.75 24.402344 C 23.703125 24.402344 23.695312 23.53125 23.484375 22.507812 C 23.253906 21.367188 23.105469 20.707031 24.925781 20.613281 C 26.503906 20.097656 26.746094 24.339844 24.75 24.402344 Z M 24.75 24.402344 "/>
</g>
</svg>
