<?xml version="1.0" encoding="UTF-8"?>
<svg xmlns="http://www.w3.org/2000/svg" xmlns:xlink="http://www.w3.org/1999/xlink" width="36pt" height="36pt" viewBox="0 0 36 36" version="1.1">
<defs>
<filter id="alpha" filterUnits="objectBoundingBox" x="0%" y="0%" width="100%" height="100%">
  <feColorMatrix type="matrix" in="SourceGraphic" values="0 0 0 0 1 0 0 0 0 1 0 0 0 0 1 0 0 0 1 0"/>
</filter>
<mask id="mask0">
  <g filter="url(#alpha)">
<rect x="0" y="0" width="36" height="36" style="fill:rgb(0%,0%,0%);fill-opacity:0.501961;stroke:none;"/>
  </g>
</mask>
<clipPath id="clip1">
  <rect width="36" height="36"/>
</clipPath>
<g id="surface6" clip-path="url(#clip1)">
<path style=" stroke:none;fill-rule:nonzero;fill:rgb(100%,100%,100%);fill-opacity:1;" d="M 16.503906 15.003906 L 19.496094 15.003906 C 20.996094 15.003906 20.996094 16.503906 20.996094 16.503906 L 20.996094 22.492188 L 19.496094 22.492188 L 19.496094 20.246094 L 16.503906 20.246094 L 16.503906 22.492188 L 15.003906 22.492188 L 15.003906 16.503906 C 15.003906 15.003906 16.503906 15.003906 16.503906 15.003906 Z M 16.503906 16.503906 L 16.503906 18.75 L 19.496094 18.75 L 19.496094 16.503906 Z M 16.503906 16.503906 "/>
</g>
</defs>
<g id="surface1">
<path style=" stroke:none;fill-rule:evenodd;fill:rgb(80%,80%,80%);fill-opacity:1;" d="M 8.40625 2.136719 L 27.59375 2.136719 C 31.054688 2.136719 33.863281 4.945312 33.863281 8.40625 L 33.863281 27.59375 C 33.863281 31.054688 31.054688 33.863281 27.59375 33.863281 L 8.40625 33.863281 C 4.945312 33.863281 2.136719 31.054688 2.136719 27.59375 L 2.136719 8.40625 C 2.136719 4.945312 4.945312 2.136719 8.40625 2.136719 Z M 8.40625 2.136719 "/>
<path style=" stroke:none;fill-rule:nonzero;fill:rgb(40%,40%,40%);fill-opacity:1;" d="M 18 10.511719 C 15.09375 10.511719 12.617188 12.238281 11.550781 14.679688 C 8.84375 15.070312 6.765625 17.308594 6.765625 20.042969 C 6.765625 23.050781 9.28125 25.488281 12.382812 25.488281 L 24.320312 25.488281 C 27.03125 25.488281 29.234375 23.355469 29.234375 20.722656 C 29.234375 18.277344 27.335938 16.273438 24.890625 16 C 24.25 12.878906 21.40625 10.511719 18 10.511719 Z M 18 10.511719 "/>
<use xlink:href="#surface6" mask="url(#mask0)"/>
</g>
</svg>
