<?xml version="1.0" encoding="UTF-8"?>
<svg xmlns="http://www.w3.org/2000/svg" xmlns:xlink="http://www.w3.org/1999/xlink" width="36pt" height="36pt" viewBox="0 0 36 36" version="1.1">
<g id="surface1">
<path style=" stroke:none;fill-rule:evenodd;fill:rgb(80%,80%,80%);fill-opacity:1;" d="M 8.40625 2.136719 L 27.59375 2.136719 C 31.054688 2.136719 33.863281 4.945312 33.863281 8.40625 L 33.863281 27.59375 C 33.863281 31.054688 31.054688 33.863281 27.59375 33.863281 L 8.40625 33.863281 C 4.945312 33.863281 2.136719 31.054688 2.136719 27.59375 L 2.136719 8.40625 C 2.136719 4.945312 4.945312 2.136719 8.40625 2.136719 Z M 8.40625 2.136719 "/>
<path style=" stroke:none;fill-rule:nonzero;fill:rgb(30.196078%,30.196078%,30.196078%);fill-opacity:1;" d="M 27 6.75 L 9 6.75 L 8.4375 15.75 L 10.125 15.75 C 10.351562 14.191406 10.589844 12.671875 10.945312 11.675781 C 11.78125 9.398438 12.4375 9.050781 14.625 9.050781 C 15.6875 9.050781 16.3125 9.394531 16.3125 10.171875 L 16.3125 25.597656 C 16.3125 26.90625 16.3125 27 13.878906 27 L 12.9375 27 L 12.9375 29.25 L 23.0625 29.25 L 23.0625 27 L 22.121094 27 C 19.546875 27 19.6875 26.90625 19.6875 25.597656 L 19.6875 10.171875 C 19.6875 9.394531 20.3125 9.050781 21.375 9.050781 C 23.339844 9.050781 24.058594 9.273438 24.863281 11.144531 C 25.347656 12.296875 25.617188 13.972656 25.875 15.75 L 27.5625 15.75 Z M 27 6.75 "/>
</g>
</svg>
