<?xml version="1.0" encoding="UTF-8"?>
<svg xmlns="http://www.w3.org/2000/svg" xmlns:xlink="http://www.w3.org/1999/xlink" width="36pt" height="36pt" viewBox="0 0 36 36" version="1.1">
<defs>
<clipPath id="clip1">
  <rect width="36" height="36"/>
</clipPath>
<g id="surface6" clip-path="url(#clip1)">
<path style=" stroke:none;fill-rule:nonzero;fill:rgb(25.882353%,63.137255%,80.392157%);fill-opacity:1;" d="M 32.003906 26.347656 C 32.003906 29.453125 29.484375 31.972656 26.378906 31.972656 C 23.273438 31.972656 20.753906 29.453125 20.753906 26.347656 C 20.753906 23.238281 23.273438 20.722656 26.378906 20.722656 C 29.484375 20.722656 32.003906 23.238281 32.003906 26.347656 Z M 32.003906 26.347656 "/>
</g>
</defs>
<g id="surface1">
<path style=" stroke:none;fill-rule:evenodd;fill:rgb(52.156863%,52.156863%,52.156863%);fill-opacity:1;" d="M 8.40625 2.136719 L 27.59375 2.136719 C 31.054688 2.136719 33.863281 4.945312 33.863281 8.40625 L 33.863281 27.59375 C 33.863281 31.054688 31.054688 33.863281 27.59375 33.863281 L 8.40625 33.863281 C 4.945312 33.863281 2.136719 31.054688 2.136719 27.59375 L 2.136719 8.40625 C 2.136719 4.945312 4.945312 2.136719 8.40625 2.136719 Z M 8.40625 2.136719 "/>
<path style=" stroke:none;fill-rule:nonzero;fill:rgb(52.156863%,52.156863%,52.156863%);fill-opacity:1;" d="M 18 11.6875 C 14.511719 11.6875 11.6875 14.511719 11.6875 18 C 11.6875 21.488281 14.511719 24.3125 18 24.3125 C 21.488281 24.3125 24.3125 21.488281 24.3125 18 C 24.3125 14.511719 21.488281 11.6875 18 11.6875 Z M 18 15.476562 C 19.394531 15.476562 20.523438 16.605469 20.523438 18 C 20.523438 19.394531 19.394531 20.523438 18 20.523438 C 16.605469 20.523438 15.476562 19.394531 15.476562 18 C 15.476562 16.605469 16.605469 15.476562 18 15.476562 Z M 18 15.476562 "/>
<path style=" stroke:none;fill-rule:nonzero;fill:rgb(80%,80%,80%);fill-opacity:1;" d="M 18 6.214844 C 11.472656 6.214844 6.214844 11.472656 6.214844 18 C 6.214844 24.527344 11.472656 29.785156 18 29.785156 C 24.527344 29.785156 29.785156 24.527344 29.785156 18 C 29.785156 11.472656 24.527344 6.214844 18 6.214844 Z M 18 12.949219 C 20.789062 12.949219 23.050781 15.210938 23.050781 18 C 23.050781 20.789062 20.789062 23.050781 18 23.050781 C 15.210938 23.050781 12.949219 20.789062 12.949219 18 C 12.949219 15.210938 15.210938 12.949219 18 12.949219 Z M 18 12.949219 "/>
<path style=" stroke:none;fill-rule:nonzero;fill:rgb(100%,100%,100%);fill-opacity:1;" d="M 18 14.585938 C 16.113281 14.585938 14.585938 16.113281 14.585938 18 C 14.585938 19.886719 16.113281 21.414062 18 21.414062 C 19.886719 21.414062 21.414062 19.886719 21.414062 18 C 21.414062 16.113281 19.886719 14.585938 18 14.585938 Z M 18 14.585938 "/>
<use xlink:href="#surface6"/>
<path style=" stroke:none;fill-rule:nonzero;fill:rgb(100%,100%,100%);fill-opacity:1;" d="M 26.367188 29.160156 L 24.269531 26.347656 L 25.675781 26.347656 L 25.675781 23.535156 L 27.082031 23.535156 L 27.082031 26.347656 L 28.488281 26.347656 Z M 26.367188 29.160156 "/>
</g>
</svg>
