<?xml version="1.0" encoding="UTF-8"?>
<svg xmlns="http://www.w3.org/2000/svg" xmlns:xlink="http://www.w3.org/1999/xlink" width="36pt" height="36pt" viewBox="0 0 36 36" version="1.1">
<g id="surface1">
<path style=" stroke:none;fill-rule:evenodd;fill:rgb(60%,60%,60%);fill-opacity:1;" d="M 8.40625 2.136719 L 27.59375 2.136719 C 31.054688 2.136719 33.863281 4.945312 33.863281 8.40625 L 33.863281 27.59375 C 33.863281 31.054688 31.054688 33.863281 27.59375 33.863281 L 8.40625 33.863281 C 4.945312 33.863281 2.136719 31.054688 2.136719 27.59375 L 2.136719 8.40625 C 2.136719 4.945312 4.945312 2.136719 8.40625 2.136719 Z M 8.40625 2.136719 "/>
<path style=" stroke:none;fill-rule:nonzero;fill:rgb(100%,100%,100%);fill-opacity:1;" d="M 17.28125 26.511719 C 16.246094 26.371094 15.546875 26.214844 15.492188 26.113281 C 15.398438 25.9375 15.019531 23.90625 14.847656 22.660156 C 14.753906 21.972656 14.617188 20.585938 14.640625 20.5625 C 14.648438 20.554688 14.878906 20.683594 15.148438 20.851562 C 17.460938 22.289062 20.113281 23.523438 22.695312 24.367188 C 23.015625 24.472656 23.308594 24.570312 23.34375 24.582031 C 23.421875 24.609375 23.363281 24.660156 22.742188 25.078125 C 21.644531 25.824219 20.367188 26.296875 18.972656 26.476562 C 18.507812 26.535156 17.605469 26.554688 17.28125 26.511719 Z M 14.621094 25.835938 C 12.722656 25.011719 11.207031 23.554688 10.3125 21.699219 C 10.070312 21.195312 9.804688 20.472656 9.71875 20.082031 L 9.675781 19.898438 L 10.207031 19.425781 C 11.347656 18.40625 12.859375 17.203125 13.78125 16.578125 L 14.09375 16.367188 L 14.09375 17.929688 C 14.097656 20.675781 14.34375 23.082031 14.871094 25.457031 C 14.929688 25.726562 14.972656 25.953125 14.964844 25.960938 C 14.957031 25.96875 14.800781 25.914062 14.621094 25.835938 Z M 22.78125 23.914062 C 21.730469 23.5625 20.476562 23.082031 19.65625 22.710938 C 18.660156 22.265625 18.554688 22.214844 18.554688 22.183594 C 18.554688 22.164062 18.761719 22.039062 19.019531 21.902344 C 19.40625 21.699219 20.230469 21.226562 20.882812 20.835938 C 22.367188 19.945312 24.535156 18.316406 25.960938 17.019531 C 26.175781 16.824219 26.371094 16.660156 26.394531 16.660156 C 26.449219 16.660156 26.535156 17.488281 26.535156 18.019531 C 26.535156 18.925781 26.285156 20.234375 25.949219 21.078125 C 25.503906 22.191406 24.835938 23.230469 24.089844 23.960938 L 23.796875 24.25 Z M 21.894531 18.054688 C 21.890625 16.027344 21.796875 14.730469 21.527344 12.84375 C 21.417969 12.085938 21.140625 10.554688 21.03125 10.128906 L 21.003906 10.015625 L 21.222656 10.101562 C 21.640625 10.265625 22.308594 10.621094 22.726562 10.90625 C 24.441406 12.066406 25.699219 13.800781 26.210938 15.710938 L 26.3125 16.097656 L 25.773438 16.582031 C 25.476562 16.847656 24.96875 17.289062 24.644531 17.558594 C 23.84375 18.230469 22.015625 19.59375 21.917969 19.59375 C 21.90625 19.59375 21.894531 18.902344 21.894531 18.054688 Z M 9.566406 19.304688 C 9.554688 19.285156 9.519531 19 9.492188 18.667969 C 9.363281 17.179688 9.679688 15.5625 10.367188 14.183594 C 10.753906 13.410156 11.382812 12.535156 11.9375 11.992188 L 12.191406 11.746094 L 13.269531 12.109375 C 13.863281 12.308594 14.707031 12.613281 15.144531 12.789062 C 16.117188 13.179688 17.433594 13.773438 17.433594 13.820312 C 17.433594 13.839844 17.296875 13.925781 17.128906 14.007812 C 16.644531 14.253906 15.460938 14.941406 14.769531 15.378906 C 13.019531 16.496094 11.472656 17.667969 10.027344 18.980469 C 9.628906 19.34375 9.601562 19.363281 9.566406 19.304688 Z M 21.226562 15.394531 C 21.125 15.300781 19.933594 14.59375 19.136719 14.15625 C 17.421875 13.214844 15.351562 12.316406 13.441406 11.683594 C 13.039062 11.546875 12.679688 11.429688 12.644531 11.414062 C 12.566406 11.386719 12.625 11.339844 13.226562 10.929688 C 14.476562 10.085938 15.8125 9.625 17.402344 9.492188 C 18.316406 9.414062 19.089844 9.492188 20.359375 9.789062 C 20.414062 9.800781 20.476562 9.855469 20.496094 9.90625 C 20.605469 10.164062 20.921875 11.828125 21.097656 13.082031 C 21.199219 13.777344 21.359375 15.222656 21.359375 15.417969 C 21.359375 15.472656 21.296875 15.460938 21.226562 15.394531 Z M 21.226562 15.394531 "/>
<path style=" stroke:none;fill-rule:evenodd;fill:rgb(28.235294%,47.843137%,68.235294%);fill-opacity:1;" d="M 18 7.332031 C 12.117188 7.332031 7.332031 12.117188 7.332031 18 C 7.332031 23.882812 12.117188 28.667969 18 28.667969 C 23.882812 28.667969 28.667969 23.882812 28.667969 18 C 28.667969 12.117188 23.882812 7.332031 18 7.332031 Z M 18 8.636719 C 23.179688 8.636719 27.363281 12.820312 27.363281 18 C 27.363281 23.179688 23.179688 27.363281 18 27.363281 C 12.820312 27.363281 8.636719 23.179688 8.636719 18 C 8.636719 12.820312 12.820312 8.636719 18 8.636719 Z M 18 8.636719 "/>
</g>
</svg>
