<?xml version="1.0" encoding="UTF-8"?>
<svg xmlns="http://www.w3.org/2000/svg" xmlns:xlink="http://www.w3.org/1999/xlink" width="36pt" height="36pt" viewBox="0 0 36 36" version="1.1">
<g id="surface1">
<path style=" stroke:none;fill-rule:evenodd;fill:rgb(16.470588%,45.490196%,76.078431%);fill-opacity:1;" d="M 8.40625 2.136719 L 27.59375 2.136719 C 31.054688 2.136719 33.863281 4.945312 33.863281 8.40625 L 33.863281 27.59375 C 33.863281 31.054688 31.054688 33.863281 27.59375 33.863281 L 8.40625 33.863281 C 4.945312 33.863281 2.136719 31.054688 2.136719 27.59375 L 2.136719 8.40625 C 2.136719 4.945312 4.945312 2.136719 8.40625 2.136719 Z M 8.40625 2.136719 "/>
<path style=" stroke:none;fill-rule:nonzero;fill:rgb(100%,100%,100%);fill-opacity:1;" d="M 4.71875 13.644531 L 9.816406 12.277344 L 12.546875 22.476562 L 7.449219 23.84375 Z M 4.71875 13.644531 "/>
<path style=" stroke:none;fill-rule:nonzero;fill:rgb(100%,100%,100%);fill-opacity:1;" d="M 7.675781 24.691406 L 12.777344 23.324219 L 13.460938 25.875 L 8.359375 27.242188 Z M 7.675781 24.691406 "/>
<path style=" stroke:none;fill-rule:nonzero;fill:rgb(69.019608%,69.019608%,69.019608%);fill-opacity:1;" d="M 5.792969 14.265625 L 9.195312 13.355469 L 11.472656 21.855469 L 8.070312 22.765625 Z M 5.792969 14.265625 "/>
<path style=" stroke:none;fill-rule:nonzero;fill:rgb(69.019608%,69.019608%,69.019608%);fill-opacity:1;" d="M 8.753906 25.3125 L 12.152344 24.402344 L 12.382812 25.253906 L 8.980469 26.164062 Z M 8.753906 25.3125 "/>
<path style=" stroke:none;fill-rule:nonzero;fill:rgb(100%,100%,100%);fill-opacity:1;" d="M 18.039062 7.878906 L 23.136719 9.246094 L 20.40625 19.441406 L 15.304688 18.078125 Z M 18.039062 7.878906 "/>
<path style=" stroke:none;fill-rule:nonzero;fill:rgb(100%,100%,100%);fill-opacity:1;" d="M 15.078125 18.925781 L 20.175781 20.292969 L 19.492188 22.84375 L 14.394531 21.476562 Z M 15.078125 18.925781 "/>
<path style=" stroke:none;fill-rule:nonzero;fill:rgb(69.019608%,69.019608%,69.019608%);fill-opacity:1;" d="M 18.660156 8.957031 L 22.058594 9.867188 L 19.78125 18.367188 L 16.382812 17.453125 Z M 18.660156 8.957031 "/>
<path style=" stroke:none;fill-rule:nonzero;fill:rgb(69.019608%,69.019608%,69.019608%);fill-opacity:1;" d="M 15.699219 20.003906 L 19.097656 20.914062 L 18.871094 21.765625 L 15.472656 20.855469 Z M 15.699219 20.003906 "/>
<path style=" stroke:none;fill-rule:nonzero;fill:rgb(100%,100%,100%);fill-opacity:1;" d="M 26.710938 13.289062 L 31.28125 15.929688 L 26.003906 25.074219 L 21.433594 22.433594 Z M 26.710938 13.289062 "/>
<path style=" stroke:none;fill-rule:nonzero;fill:rgb(100%,100%,100%);fill-opacity:1;" d="M 20.992188 23.195312 L 25.566406 25.835938 L 24.246094 28.121094 L 19.671875 25.480469 Z M 20.992188 23.195312 "/>
<path style=" stroke:none;fill-rule:nonzero;fill:rgb(69.019608%,69.019608%,69.019608%);fill-opacity:1;" d="M 27.035156 14.492188 L 30.082031 16.253906 L 25.683594 23.871094 L 22.632812 22.113281 Z M 27.035156 14.492188 "/>
<path style=" stroke:none;fill-rule:nonzero;fill:rgb(69.019608%,69.019608%,69.019608%);fill-opacity:1;" d="M 21.316406 24.398438 L 24.363281 26.15625 L 23.921875 26.917969 L 20.875 25.160156 Z M 21.316406 24.398438 "/>
</g>
</svg>
