<?xml version="1.0" encoding="UTF-8"?>
<svg xmlns="http://www.w3.org/2000/svg" xmlns:xlink="http://www.w3.org/1999/xlink" width="36pt" height="36pt" viewBox="0 0 36 36" version="1.1">
<defs>
<clipPath id="clip1">
  <rect width="36" height="36"/>
</clipPath>
<g id="surface6" clip-path="url(#clip1)">
<path style=" stroke:none;fill-rule:nonzero;fill:rgb(100%,100%,100%);fill-opacity:1;" d="M 10.6875 7.875 C 9.566406 7.875 9 8.421875 9 9.5625 C 9 10.75 9.503906 11.25 10.6875 11.25 C 19.074219 11.25 24.75 16.925781 24.75 25.3125 C 24.75 26.363281 25.324219 27 26.4375 27 C 27.585938 27 28.125 26.328125 28.125 25.3125 C 28.125 15.058594 20.941406 7.875 10.6875 7.875 Z M 23.625 7.875 L 28.125 12.375 L 28.125 10.125 C 28.125 8.878906 27.121094 7.875 25.875 7.875 Z M 10.6875 14.625 C 9.597656 14.625 9 15.105469 9 16.3125 C 9 17.46875 9.472656 18 10.6875 18 C 15.347656 18 18 20.652344 18 25.3125 C 18 26.304688 18.570312 27 19.6875 27 C 20.777344 27 21.375 26.394531 21.375 25.3125 C 21.375 18.789062 17.210938 14.625 10.6875 14.625 Z M 11.25 21.375 C 9.386719 21.375 7.875 22.886719 7.875 24.75 C 7.875 26.613281 9.386719 28.125 11.25 28.125 C 13.113281 28.125 14.625 26.613281 14.625 24.75 C 14.625 22.886719 13.113281 21.375 11.25 21.375 Z M 11.25 21.375 "/>
</g>
</defs>
<g id="surface1">
<path style=" stroke:none;fill-rule:evenodd;fill:rgb(36.470588%,70.588235%,24.313725%);fill-opacity:1;" d="M 8.40625 2.136719 L 27.59375 2.136719 C 31.054688 2.136719 33.863281 4.945312 33.863281 8.40625 L 33.863281 27.59375 C 33.863281 31.054688 31.054688 33.863281 27.59375 33.863281 L 8.40625 33.863281 C 4.945312 33.863281 2.136719 31.054688 2.136719 27.59375 L 2.136719 8.40625 C 2.136719 4.945312 4.945312 2.136719 8.40625 2.136719 Z M 8.40625 2.136719 "/>
<use xlink:href="#surface6"/>
</g>
</svg>
