<?xml version="1.0" encoding="UTF-8"?>
<svg xmlns="http://www.w3.org/2000/svg" xmlns:xlink="http://www.w3.org/1999/xlink" width="36pt" height="36pt" viewBox="0 0 36 36" version="1.1">
<g id="surface1">
<path style=" stroke:none;fill-rule:evenodd;fill:rgb(14.509804%,43.137255%,83.529412%);fill-opacity:1;" d="M 8.40625 2.136719 L 27.59375 2.136719 C 31.054688 2.136719 33.863281 4.945312 33.863281 8.40625 L 33.863281 27.59375 C 33.863281 31.054688 31.054688 33.863281 27.59375 33.863281 L 8.40625 33.863281 C 4.945312 33.863281 2.136719 31.054688 2.136719 27.59375 L 2.136719 8.40625 C 2.136719 4.945312 4.945312 2.136719 8.40625 2.136719 Z M 8.40625 2.136719 "/>
<path style=" stroke:none;fill-rule:nonzero;fill:rgb(100%,100%,100%);fill-opacity:1;" d="M 12 12.621094 C 16.667969 12.5625 18.902344 11.445312 21.152344 10.332031 C 23.960938 12.160156 27.066406 12.496094 30.191406 12.734375 C 31.894531 26.863281 25.699219 29.429688 21.265625 31.386719 C 13.414062 28.703125 10.359375 22.421875 12 12.621094 Z M 12 12.621094 "/>
<path style=" stroke:none;fill-rule:nonzero;fill:rgb(78.039216%,20.392157%,22.352941%);fill-opacity:1;" d="M 13.964844 14.414062 C 17.617188 14.371094 19.363281 13.496094 21.125 12.625 C 23.320312 14.054688 25.75 14.316406 28.195312 14.503906 C 29.527344 25.554688 24.679688 27.5625 21.214844 29.09375 C 15.070312 26.996094 12.683594 22.082031 13.964844 14.414062 Z M 13.964844 14.414062 "/>
<path style=" stroke:none;fill-rule:nonzero;fill:rgb(100%,100%,100%);fill-opacity:1;" d="M 10.210938 4.613281 C 9.128906 4.613281 8.234375 5.507812 8.234375 6.589844 C 8.234375 7.683594 9.144531 8.566406 10.210938 8.566406 C 11.28125 8.566406 12.1875 7.6875 12.1875 6.589844 C 12.1875 5.503906 11.300781 4.613281 10.210938 4.613281 Z M 9.660156 9.902344 L 9.589844 9.917969 L 5.519531 10.796875 L 5.519531 12.542969 L 7.328125 12.882812 L 6.058594 19.296875 L 6.054688 19.304688 C 5.953125 19.851562 5.902344 20.300781 5.902344 20.664062 C 5.902344 21.296875 6.058594 21.894531 6.472656 22.324219 C 6.886719 22.75 7.484375 22.925781 8.113281 22.925781 C 9.164062 22.925781 10.378906 22.609375 11.738281 22.039062 L 12.164062 21.863281 L 12.164062 19.71875 L 11.261719 20.007812 C 10.558594 20.234375 10.042969 20.335938 9.710938 20.335938 C 9.4375 20.335938 9.316406 20.269531 9.292969 20.253906 C 9.269531 20.234375 9.257812 20.253906 9.257812 20.09375 C 9.257812 20.03125 9.273438 19.867188 9.316406 19.628906 L 9.316406 19.621094 L 11.1875 9.902344 Z M 9.660156 9.902344 "/>
<path style=" stroke:none;fill-rule:nonzero;fill:rgb(100%,100%,100%);fill-opacity:1;" d="M 18.8125 16.707031 L 16.871094 18.648438 L 19.082031 20.859375 L 16.871094 23.070312 L 18.8125 25.011719 L 21.027344 22.800781 L 23.238281 25.011719 L 25.179688 23.070312 L 22.964844 20.859375 L 25.179688 18.648438 L 23.238281 16.707031 L 21.027344 18.917969 Z M 18.8125 16.707031 "/>
</g>
</svg>
