<?xml version="1.0" encoding="UTF-8"?>
<svg xmlns="http://www.w3.org/2000/svg" xmlns:xlink="http://www.w3.org/1999/xlink" width="36pt" height="36pt" viewBox="0 0 36 36" version="1.1">
<g id="surface1">
<path style=" stroke:none;fill-rule:evenodd;fill:rgb(60%,60%,60%);fill-opacity:1;" d="M 8.40625 2.136719 L 27.59375 2.136719 C 31.054688 2.136719 33.863281 4.945312 33.863281 8.40625 L 33.863281 27.59375 C 33.863281 31.054688 31.054688 33.863281 27.59375 33.863281 L 8.40625 33.863281 C 4.945312 33.863281 2.136719 31.054688 2.136719 27.59375 L 2.136719 8.40625 C 2.136719 4.945312 4.945312 2.136719 8.40625 2.136719 Z M 8.40625 2.136719 "/>
<path style=" stroke:none;fill-rule:nonzero;fill:rgb(100%,100%,100%);fill-opacity:1;" d="M 10.132812 7.484375 L 10.132812 8.609375 L 9.570312 8.609375 C 8.636719 8.609375 7.882812 9.359375 7.882812 10.296875 C 7.882812 11.230469 8.636719 11.984375 9.570312 11.984375 L 10.132812 11.984375 L 10.132812 13.109375 L 7.984375 13.109375 C 8.21875 13.761719 8.835938 14.234375 9.570312 14.234375 L 10.132812 14.234375 L 10.132812 15.359375 L 11.257812 15.359375 L 11.257812 14.234375 L 11.820312 14.234375 C 12.753906 14.234375 13.507812 13.480469 13.507812 12.546875 C 13.507812 11.609375 12.753906 10.859375 11.820312 10.859375 L 11.257812 10.859375 L 11.257812 9.734375 L 13.40625 9.734375 C 13.171875 9.078125 12.554688 8.609375 11.820312 8.609375 L 11.257812 8.609375 L 11.257812 7.484375 Z M 9.570312 9.734375 L 10.132812 9.734375 L 10.132812 10.859375 L 9.570312 10.859375 C 9.257812 10.859375 9.007812 10.605469 9.007812 10.296875 C 9.007812 9.984375 9.257812 9.734375 9.570312 9.734375 Z M 11.257812 11.984375 L 11.820312 11.984375 C 12.132812 11.984375 12.382812 12.234375 12.382812 12.546875 C 12.382812 12.855469 12.132812 13.121094 11.820312 13.109375 L 11.257812 13.109375 Z M 15.757812 14.234375 L 15.757812 15.359375 L 22.507812 15.359375 L 22.507812 14.234375 Z M 15.757812 14.234375 "/>
</g>
</svg>
