<?xml version="1.0" encoding="UTF-8"?>
<svg xmlns="http://www.w3.org/2000/svg" xmlns:xlink="http://www.w3.org/1999/xlink" width="36pt" height="36pt" viewBox="0 0 36 36" version="1.1">
<g id="surface1">
<path style=" stroke:none;fill-rule:evenodd;fill:rgb(91.372549%,29.019608%,38.823529%);fill-opacity:1;" d="M 8.476562 2.25 L 27.523438 2.25 C 30.960938 2.25 33.75 5.039062 33.75 8.476562 L 33.75 27.523438 C 33.75 30.960938 30.960938 33.75 27.523438 33.75 L 8.476562 33.75 C 5.039062 33.75 2.25 30.960938 2.25 27.523438 L 2.25 8.476562 C 2.25 5.039062 5.039062 2.25 8.476562 2.25 Z M 8.476562 2.25 "/>
<path style=" stroke:none;fill-rule:nonzero;fill:rgb(64.313725%,20.392157%,27.058824%);fill-opacity:1;" d="M 10.109375 9.277344 C 9.289062 9.277344 8.632812 9.933594 8.632812 10.753906 L 8.632812 25.519531 C 8.632812 26.335938 9.289062 26.996094 10.109375 26.996094 C 10.925781 26.996094 11.585938 26.335938 11.585938 25.519531 L 11.585938 10.753906 C 11.585938 9.933594 10.925781 9.277344 10.109375 9.277344 Z M 10.109375 9.277344 "/>
<path style=" stroke:none;fill-rule:nonzero;fill:rgb(100%,100%,100%);fill-opacity:1;" d="M 12.570312 14.691406 C 12.570312 16.050781 11.46875 17.152344 10.109375 17.152344 C 8.75 17.152344 7.648438 16.050781 7.648438 14.691406 C 7.648438 13.332031 8.75 12.230469 10.109375 12.230469 C 11.46875 12.230469 12.570312 13.332031 12.570312 14.691406 Z M 12.570312 14.691406 "/>
<path style=" stroke:none;fill-rule:nonzero;fill:rgb(64.313725%,20.392157%,27.058824%);fill-opacity:1;" d="M 25.859375 9.277344 C 25.039062 9.277344 24.382812 9.933594 24.382812 10.753906 L 24.382812 25.519531 C 24.382812 26.335938 25.039062 26.996094 25.859375 26.996094 C 26.675781 26.996094 27.335938 26.335938 27.335938 25.519531 L 27.335938 10.753906 C 27.335938 9.933594 26.675781 9.277344 25.859375 9.277344 Z M 25.859375 9.277344 "/>
<path style=" stroke:none;fill-rule:nonzero;fill:rgb(100%,100%,100%);fill-opacity:1;" d="M 28.320312 17.644531 C 28.320312 19.003906 27.21875 20.105469 25.859375 20.105469 C 24.5 20.105469 23.398438 19.003906 23.398438 17.644531 C 23.398438 16.285156 24.5 15.183594 25.859375 15.183594 C 27.21875 15.183594 28.320312 16.285156 28.320312 17.644531 Z M 28.320312 17.644531 "/>
<path style=" stroke:none;fill-rule:nonzero;fill:rgb(64.313725%,20.392157%,27.058824%);fill-opacity:1;" d="M 17.984375 9.277344 C 17.164062 9.277344 16.507812 9.933594 16.507812 10.753906 L 16.507812 25.519531 C 16.507812 26.335938 17.164062 26.996094 17.984375 26.996094 C 18.800781 26.996094 19.460938 26.335938 19.460938 25.519531 L 19.460938 10.753906 C 19.460938 9.933594 18.800781 9.277344 17.984375 9.277344 Z M 17.984375 9.277344 "/>
<path style=" stroke:none;fill-rule:nonzero;fill:rgb(100%,100%,100%);fill-opacity:1;" d="M 20.445312 21.582031 C 20.445312 22.941406 19.34375 24.042969 17.984375 24.042969 C 16.625 24.042969 15.523438 22.941406 15.523438 21.582031 C 15.523438 20.222656 16.625 19.121094 17.984375 19.121094 C 19.34375 19.121094 20.445312 20.222656 20.445312 21.582031 Z M 20.445312 21.582031 "/>
</g>
</svg>
