<?xml version="1.0" encoding="UTF-8"?>
<svg xmlns="http://www.w3.org/2000/svg" xmlns:xlink="http://www.w3.org/1999/xlink" width="36pt" height="36pt" viewBox="0 0 36 36" version="1.1">
<defs>
<clipPath id="clip1">
  <rect width="36" height="36"/>
</clipPath>
<g id="surface6" clip-path="url(#clip1)">
<path style=" stroke:none;fill-rule:evenodd;fill:rgb(80%,36.862745%,33.333333%);fill-opacity:1;" d="M 31.429688 24.410156 C 31.429688 28.136719 28.40625 31.160156 24.679688 31.160156 C 20.953125 31.160156 17.929688 28.136719 17.929688 24.410156 C 17.929688 20.679688 20.953125 17.660156 24.679688 17.660156 C 28.40625 17.660156 31.429688 20.679688 31.429688 24.410156 Z M 31.429688 24.410156 "/>
</g>
</defs>
<g id="surface1">
<path style=" stroke:none;fill-rule:evenodd;fill:rgb(55.686275%,55.686275%,55.686275%);fill-opacity:1;" d="M 8.40625 2.136719 L 27.59375 2.136719 C 31.054688 2.136719 33.863281 4.945312 33.863281 8.40625 L 33.863281 27.59375 C 33.863281 31.054688 31.054688 33.863281 27.59375 33.863281 L 8.40625 33.863281 C 4.945312 33.863281 2.136719 31.054688 2.136719 27.59375 L 2.136719 8.40625 C 2.136719 4.945312 4.945312 2.136719 8.40625 2.136719 Z M 8.40625 2.136719 "/>
<path style=" stroke:none;fill-rule:nonzero;fill:rgb(27.843137%,27.843137%,27.843137%);fill-opacity:1;" d="M 10.027344 9.203125 L 25.972656 9.203125 C 28.058594 9.203125 29.753906 10.894531 29.753906 12.984375 L 29.753906 23.015625 C 29.753906 25.105469 28.058594 26.796875 25.972656 26.796875 L 10.027344 26.796875 C 7.941406 26.796875 6.246094 25.105469 6.246094 23.015625 L 6.246094 12.984375 C 6.246094 10.894531 7.941406 9.203125 10.027344 9.203125 Z M 10.027344 9.203125 "/>
<path style=" stroke:none;fill-rule:nonzero;fill:rgb(13.72549%,13.72549%,13.72549%);fill-opacity:1;" d="M 10.167969 10.316406 L 25.832031 10.316406 C 27.414062 10.316406 28.699219 11.546875 28.699219 13.066406 L 28.699219 22.933594 C 28.699219 24.453125 27.414062 25.683594 25.832031 25.683594 L 10.167969 25.683594 C 8.585938 25.683594 7.300781 24.453125 7.300781 22.933594 L 7.300781 13.066406 C 7.300781 11.546875 8.585938 10.316406 10.167969 10.316406 Z M 10.167969 10.316406 "/>
<use xlink:href="#surface6"/>
<path style=" stroke:none;fill-rule:nonzero;fill:rgb(100%,100%,100%);fill-opacity:1;" d="M 23.835938 20.269531 L 25.523438 20.269531 L 25.523438 25.332031 L 23.835938 25.332031 Z M 23.835938 20.269531 "/>
<path style=" stroke:none;fill-rule:nonzero;fill:rgb(100%,100%,100%);fill-opacity:1;" d="M 23.835938 27.019531 L 25.523438 27.019531 L 25.523438 28.707031 L 23.835938 28.707031 Z M 23.835938 27.019531 "/>
</g>
</svg>
