<?xml version="1.0" encoding="UTF-8"?>
<svg xmlns="http://www.w3.org/2000/svg" xmlns:xlink="http://www.w3.org/1999/xlink" width="36pt" height="36pt" viewBox="0 0 36 36" version="1.1">
<g id="surface1">
<path style=" stroke:none;fill-rule:evenodd;fill:rgb(30.980392%,30.980392%,30.980392%);fill-opacity:1;" d="M 8.40625 2.136719 L 27.59375 2.136719 C 31.054688 2.136719 33.863281 4.945312 33.863281 8.40625 L 33.863281 27.59375 C 33.863281 31.054688 31.054688 33.863281 27.59375 33.863281 L 8.40625 33.863281 C 4.945312 33.863281 2.136719 31.054688 2.136719 27.59375 L 2.136719 8.40625 C 2.136719 4.945312 4.945312 2.136719 8.40625 2.136719 Z M 8.40625 2.136719 "/>
<path style=" stroke:none;fill-rule:nonzero;fill:rgb(100%,100%,100%);fill-opacity:1;" d="M 18 6.691406 C 14.738281 6.691406 12.5625 8.953125 12.5625 12.261719 L 12.5625 15.734375 L 10.277344 15.734375 C 10.277344 15.734375 9.300781 15.738281 9.300781 16.867188 L 9.300781 28.179688 C 9.300781 29.308594 10.277344 29.308594 10.277344 29.308594 L 25.722656 29.308594 C 25.722656 29.308594 26.699219 29.308594 26.699219 28.179688 L 26.699219 16.867188 C 26.699219 15.738281 25.722656 15.734375 25.722656 15.734375 L 23.441406 15.742188 L 23.433594 12.226562 C 23.4375 8.953125 21.261719 6.691406 18 6.691406 Z M 18 6.691406 "/>
<path style=" stroke:none;fill-rule:nonzero;fill:rgb(30.980392%,30.980392%,30.980392%);fill-opacity:1;" d="M 18 9.300781 C 19.921875 9.300781 21.480469 10.828125 21.480469 12.75 C 21.480469 15.070312 19.015625 17.96875 18.433594 18 C 18.433594 18 18.679688 16.230469 18 16.230469 C 16.078125 16.230469 14.519531 14.671875 14.519531 12.75 C 14.519531 10.828125 16.078125 9.300781 18 9.300781 Z M 18 9.300781 "/>
<path style=" stroke:none;fill-rule:nonzero;fill:rgb(30.980392%,30.980392%,30.980392%);fill-opacity:1;" d="M 18 19.738281 C 19.082031 19.738281 19.957031 20.617188 19.957031 21.695312 C 19.957031 22.613281 19.328125 23.375 18.476562 23.589844 L 18.652344 23.589844 C 19.304688 23.589844 19.703125 24.183594 20.09375 24.710938 C 20.460938 25.203125 20.609375 25.886719 20.609375 26.136719 L 20.609375 26.585938 C 20.609375 26.601562 20.609375 26.613281 20.609375 26.628906 C 20.609375 27.148438 20.1875 27.570312 19.664062 27.570312 L 16.335938 27.570312 C 15.8125 27.570312 15.390625 27.148438 15.390625 26.628906 C 15.390625 26.613281 15.394531 26.601562 15.394531 26.585938 C 15.390625 26.585938 15.390625 26.363281 15.390625 26.136719 C 15.390625 25.886719 15.503906 25.191406 15.855469 24.6875 C 16.222656 24.15625 16.695312 23.589844 17.347656 23.589844 L 17.523438 23.589844 C 16.675781 23.375 16.042969 22.613281 16.042969 21.695312 C 16.042969 20.617188 16.917969 19.738281 18 19.738281 Z M 18 19.738281 "/>
</g>
</svg>
