<?xml version="1.0" encoding="UTF-8"?>
<svg xmlns="http://www.w3.org/2000/svg" xmlns:xlink="http://www.w3.org/1999/xlink" width="36pt" height="36pt" viewBox="0 0 36 36" version="1.1">
<g id="surface1">
<path style=" stroke:none;fill-rule:evenodd;fill:rgb(55.686275%,55.686275%,55.686275%);fill-opacity:1;" d="M 8.40625 2.136719 L 27.59375 2.136719 C 31.054688 2.136719 33.863281 4.945312 33.863281 8.40625 L 33.863281 27.59375 C 33.863281 31.054688 31.054688 33.863281 27.59375 33.863281 L 8.40625 33.863281 C 4.945312 33.863281 2.136719 31.054688 2.136719 27.59375 L 2.136719 8.40625 C 2.136719 4.945312 4.945312 2.136719 8.40625 2.136719 Z M 8.40625 2.136719 "/>
<path style=" stroke:none;fill-rule:nonzero;fill:rgb(27.843137%,27.843137%,27.843137%);fill-opacity:1;" d="M 10.230469 8.320312 C 8.191406 8.320312 6.546875 9.964844 6.546875 12.007812 L 6.546875 21.78125 C 6.546875 23.824219 8.191406 25.46875 10.230469 25.46875 L 12.222656 25.46875 C 12.390625 26.71875 13.445312 27.679688 14.742188 27.679688 L 21.257812 27.679688 C 22.554688 27.679688 23.609375 26.71875 23.777344 25.46875 L 25.769531 25.46875 C 27.808594 25.46875 29.453125 23.824219 29.453125 21.78125 L 29.453125 12.007812 C 29.453125 9.964844 27.808594 8.320312 25.769531 8.320312 Z M 10.230469 8.320312 "/>
<path style=" stroke:none;fill-rule:nonzero;fill:rgb(13.72549%,13.72549%,13.72549%);fill-opacity:1;" d="M 10.367188 9.40625 L 25.632812 9.40625 C 27.171875 9.40625 28.421875 10.605469 28.421875 12.085938 L 28.421875 21.703125 C 28.421875 23.183594 27.171875 24.382812 25.632812 24.382812 L 10.367188 24.382812 C 8.828125 24.382812 7.578125 23.183594 7.578125 21.703125 L 7.578125 12.085938 C 7.578125 10.605469 8.828125 9.40625 10.367188 9.40625 Z M 10.367188 9.40625 "/>
<path style=" stroke:none;fill-rule:nonzero;fill:rgb(75.294118%,79.215686%,20%);fill-opacity:1;" d="M 21.710938 13.535156 C 20.789062 13.535156 20.039062 14.285156 20.039062 15.210938 C 20.039062 16.132812 20.789062 16.882812 21.710938 16.882812 C 22.636719 16.882812 23.386719 16.132812 23.386719 15.210938 C 23.386719 14.285156 22.636719 13.535156 21.710938 13.535156 Z M 21.710938 13.535156 "/>
<path style=" stroke:none;fill-rule:nonzero;fill:rgb(75.294118%,79.215686%,20%);fill-opacity:1;" d="M 14.324219 19.003906 C 12.484375 19.003906 10.644531 20.339844 10.644531 23.726562 L 10.644531 24.355469 L 25.367188 24.355469 C 25.367188 24.355469 24.140625 20.339844 22.300781 20.339844 C 20.457031 20.339844 20.457031 22.347656 19.230469 22.347656 C 18.003906 22.347656 16.164062 19.003906 14.324219 19.003906 Z M 14.324219 19.003906 "/>
</g>
</svg>
