<?xml version="1.0" encoding="UTF-8"?>
<svg xmlns="http://www.w3.org/2000/svg" xmlns:xlink="http://www.w3.org/1999/xlink" width="36pt" height="36pt" viewBox="0 0 36 36" version="1.1">
<g id="surface1">
<path style=" stroke:none;fill-rule:evenodd;fill:rgb(19.607843%,26.27451%,30.196078%);fill-opacity:1;" d="M 8.40625 2.136719 L 27.59375 2.136719 C 31.054688 2.136719 33.863281 4.945312 33.863281 8.40625 L 33.863281 27.59375 C 33.863281 31.054688 31.054688 33.863281 27.59375 33.863281 L 8.40625 33.863281 C 4.945312 33.863281 2.136719 31.054688 2.136719 27.59375 L 2.136719 8.40625 C 2.136719 4.945312 4.945312 2.136719 8.40625 2.136719 Z M 8.40625 2.136719 "/>
<path style=" stroke:none;fill-rule:nonzero;fill:rgb(100%,100%,100%);fill-opacity:1;" d="M 18 6.753906 C 11.785156 6.753906 6.75 11.792969 6.75 18.003906 C 6.753906 22.6875 9.660156 26.875 14.042969 28.523438 C 14.039062 28.363281 14.039062 28.15625 14.027344 28.039062 C 13.996094 27.664062 14.085938 26 14.167969 25.492188 C 14.195312 25.316406 14.296875 24.972656 14.394531 24.726562 C 14.585938 24.238281 14.800781 23.507812 14.878906 23.078125 C 14.90625 22.929688 14.972656 22.640625 15.03125 22.4375 C 15.121094 22.132812 15.132812 22 15.101562 21.589844 C 15.074219 21.214844 15.085938 21.050781 15.144531 20.863281 C 15.246094 20.542969 15.242188 20.433594 15.125 20.148438 C 15.0625 20 15.023438 19.785156 15.023438 19.582031 L 15.019531 19.253906 L 14.921875 19.378906 C 14.867188 19.445312 14.789062 19.644531 14.746094 19.816406 C 14.554688 20.570312 14.257812 21.007812 13.402344 21.820312 C 13.089844 22.113281 12.820312 22.402344 12.792969 22.46875 C 12.460938 23.359375 12.429688 23.484375 12.453125 23.828125 C 12.46875 24.015625 12.496094 24.222656 12.515625 24.285156 C 12.5625 24.441406 12.40625 24.503906 12.28125 24.382812 C 12.230469 24.332031 12.152344 24.3125 12.105469 24.328125 C 12.039062 24.359375 12.027344 24.417969 12.046875 24.636719 C 12.078125 24.964844 12.089844 24.984375 12.304688 24.980469 C 12.445312 24.980469 12.480469 25 12.527344 25.132812 C 12.558594 25.222656 12.5625 25.289062 12.539062 25.289062 C 12.511719 25.289062 12.488281 25.363281 12.488281 25.453125 C 12.488281 25.613281 12.480469 25.617188 12.265625 25.617188 C 12.074219 25.617188 12.039062 25.632812 12.023438 25.738281 C 12.015625 25.816406 11.96875 25.871094 11.898438 25.878906 C 11.746094 25.902344 11.335938 25.460938 11.179688 25.109375 C 11.019531 24.75 11.046875 24.199219 11.261719 23.515625 C 11.347656 23.242188 11.441406 22.875 11.476562 22.695312 C 11.558594 22.269531 11.652344 22.074219 11.804688 22.035156 C 11.898438 22.011719 11.984375 21.871094 12.175781 21.445312 C 12.3125 21.140625 12.480469 20.730469 12.542969 20.535156 C 12.683594 20.113281 12.835938 19.859375 13.242188 19.378906 C 13.40625 19.179688 13.570312 18.925781 13.605469 18.808594 C 13.640625 18.691406 13.773438 18.351562 13.902344 18.050781 L 14.132812 17.503906 L 14.164062 16.523438 C 14.183594 15.980469 14.222656 15.449219 14.253906 15.34375 C 14.285156 15.238281 14.4375 14.988281 14.589844 14.785156 C 14.757812 14.570312 14.871094 14.367188 14.871094 14.289062 C 14.871094 14.136719 15.105469 13.769531 15.289062 13.640625 C 15.359375 13.589844 15.480469 13.53125 15.5625 13.511719 C 15.847656 13.445312 15.882812 13.421875 15.9375 13.320312 C 15.976562 13.230469 15.957031 13.140625 15.828125 12.875 C 15.742188 12.6875 15.640625 12.488281 15.601562 12.429688 C 15.539062 12.332031 15.542969 12.3125 15.632812 12.246094 C 15.6875 12.203125 15.875 12.136719 16.046875 12.101562 C 16.34375 12.035156 16.363281 12.023438 16.378906 11.871094 C 16.394531 11.726562 16.363281 11.691406 16.074219 11.511719 C 15.410156 11.089844 15.171875 10.816406 15.175781 10.484375 C 15.179688 10.113281 15.378906 9.898438 15.949219 9.660156 C 16.238281 9.539062 16.316406 9.484375 16.328125 9.382812 C 16.339844 9.3125 16.367188 9.230469 16.394531 9.203125 C 16.417969 9.171875 16.441406 9.046875 16.441406 8.925781 C 16.441406 8.550781 16.546875 8.058594 16.660156 7.921875 C 16.871094 7.671875 17.039062 7.617188 17.578125 7.621094 C 18.003906 7.621094 18.121094 7.640625 18.304688 7.742188 C 18.550781 7.882812 18.601562 7.980469 18.769531 8.679688 C 18.832031 8.933594 18.921875 9.183594 18.972656 9.230469 C 19.023438 9.28125 19.078125 9.378906 19.097656 9.453125 C 19.121094 9.550781 19.203125 9.617188 19.429688 9.714844 C 20.023438 9.96875 20.339844 10.414062 20.230469 10.839844 C 20.132812 11.210938 19.652344 11.628906 19.320312 11.628906 C 19.265625 11.628906 19.222656 11.667969 19.222656 11.710938 C 19.222656 11.757812 19.253906 11.792969 19.292969 11.792969 C 19.339844 11.792969 19.371094 11.910156 19.394531 12.199219 C 19.410156 12.421875 19.449219 12.667969 19.484375 12.746094 C 19.542969 12.882812 19.558594 12.886719 19.980469 12.886719 C 20.351562 12.886719 20.472656 12.910156 20.816406 13.058594 C 21.039062 13.15625 21.242188 13.265625 21.265625 13.304688 C 21.285156 13.347656 21.410156 13.4375 21.542969 13.511719 C 21.875 13.695312 22.347656 14.238281 22.710938 14.851562 C 22.878906 15.136719 23.066406 15.429688 23.121094 15.5 C 23.179688 15.570312 23.222656 15.664062 23.222656 15.710938 C 23.222656 15.753906 23.273438 15.871094 23.335938 15.964844 C 23.402344 16.058594 23.453125 16.226562 23.460938 16.34375 C 23.46875 16.609375 23.667969 17.058594 24.171875 17.949219 C 24.484375 18.503906 24.589844 18.738281 24.617188 18.953125 C 24.636719 19.109375 24.664062 19.882812 24.683594 20.671875 C 24.714844 22.054688 24.722656 22.117188 24.828125 22.238281 C 24.941406 22.367188 24.941406 22.367188 24.894531 23.707031 C 24.871094 24.441406 24.828125 25.109375 24.796875 25.191406 C 24.769531 25.269531 24.679688 25.375 24.59375 25.417969 C 24.511719 25.464844 24.433594 25.546875 24.417969 25.605469 C 24.398438 25.660156 24.25 25.777344 24.078125 25.863281 C 23.910156 25.949219 23.761719 26.039062 23.75 26.0625 C 23.734375 26.085938 23.820312 26.304688 23.9375 26.554688 C 24.058594 26.8125 24.203125 27.023438 24.386719 27.25 C 27.425781 25.152344 29.246094 21.695312 29.25 18.003906 C 29.25 11.789062 24.214844 6.753906 18 6.753906 Z M 21.035156 17.425781 C 21.011719 17.425781 21.003906 17.554688 21.007812 17.710938 C 21.019531 17.941406 20.996094 18.035156 20.894531 18.183594 C 20.824219 18.289062 20.664062 18.59375 20.535156 18.867188 L 20.300781 19.363281 L 21.265625 21.410156 C 22.328125 23.667969 22.429688 23.871094 22.539062 23.871094 C 22.578125 23.871094 22.699219 23.730469 22.808594 23.558594 C 22.917969 23.382812 23.089844 23.136719 23.1875 23.007812 C 23.308594 22.851562 23.386719 22.675781 23.429688 22.464844 C 23.464844 22.289062 23.507812 22.125 23.527344 22.09375 C 23.652344 21.90625 23.628906 21.683594 23.417969 21.101562 C 23.175781 20.4375 23.078125 19.929688 23.074219 19.355469 L 23.070312 18.960938 L 22.710938 18.808594 C 22.425781 18.683594 22.261719 18.5625 21.90625 18.203125 C 21.664062 17.957031 21.425781 17.753906 21.382812 17.753906 C 21.339844 17.753906 21.277344 17.699219 21.242188 17.632812 C 21.183594 17.507812 21.101562 17.429688 21.035156 17.425781 Z M 20.894531 22.601562 C 20.824219 22.542969 20.835938 22.761719 20.84375 23.183594 C 20.851562 23.664062 21.011719 24.429688 21.109375 24.464844 C 21.144531 24.476562 21.230469 24.550781 21.300781 24.628906 L 21.429688 24.769531 L 21.496094 26.894531 C 21.523438 27.804688 21.554688 28.304688 21.582031 28.65625 C 22.378906 28.386719 23.144531 28.03125 23.863281 27.59375 C 23.242188 27.238281 22.683594 26.53125 22.269531 25.527344 C 22.136719 25.203125 21.757812 24.367188 21.4375 23.675781 C 21.117188 22.996094 20.964844 22.664062 20.894531 22.601562 Z M 23.273438 24.074219 C 23.238281 24.0625 23.207031 24.0625 23.164062 24.089844 C 22.9375 24.222656 22.941406 24.367188 23.199219 24.957031 C 23.363281 25.328125 23.457031 25.488281 23.484375 25.441406 C 23.507812 25.402344 23.523438 25.144531 23.523438 24.871094 C 23.527344 24.410156 23.515625 24.355469 23.398438 24.203125 C 23.34375 24.132812 23.304688 24.09375 23.273438 24.074219 Z M 17.421875 26.820312 C 17.371094 26.820312 17.351562 26.882812 17.351562 27.023438 C 17.351562 27.226562 17.191406 28.183594 17.09375 28.582031 C 17.078125 28.640625 17.027344 28.96875 16.988281 29.203125 C 17.277344 29.230469 17.566406 29.242188 17.855469 29.246094 C 17.851562 28.878906 17.742188 28.21875 17.628906 27.933594 C 17.570312 27.789062 17.550781 27.601562 17.558594 27.339844 C 17.574219 26.9375 17.542969 26.820312 17.421875 26.820312 Z M 17.421875 26.820312 "/>
</g>
</svg>
