<?xml version="1.0" encoding="UTF-8"?>
<svg xmlns="http://www.w3.org/2000/svg" xmlns:xlink="http://www.w3.org/1999/xlink" width="36pt" height="36pt" viewBox="0 0 36 36" version="1.1">
<g id="surface1">
<path style=" stroke:none;fill-rule:evenodd;fill:rgb(26.27451%,76.078431%,16.470588%);fill-opacity:1;" d="M 8.40625 2.136719 L 27.59375 2.136719 C 31.054688 2.136719 33.863281 4.945312 33.863281 8.40625 L 33.863281 27.59375 C 33.863281 31.054688 31.054688 33.863281 27.59375 33.863281 L 8.40625 33.863281 C 4.945312 33.863281 2.136719 31.054688 2.136719 27.59375 L 2.136719 8.40625 C 2.136719 4.945312 4.945312 2.136719 8.40625 2.136719 Z M 8.40625 2.136719 "/>
<path style=" stroke:none;fill-rule:nonzero;fill:rgb(100%,100%,100%);fill-opacity:1;" d="M 18.699219 31.265625 L 31.265625 18.699219 C 31.652344 18.3125 31.652344 17.6875 31.265625 17.300781 L 18.699219 4.734375 C 18.3125 4.347656 17.6875 4.347656 17.300781 4.734375 L 4.734375 17.300781 C 4.347656 17.6875 4.347656 18.3125 4.734375 18.699219 L 17.300781 31.265625 C 17.6875 31.652344 18.3125 31.652344 18.699219 31.265625 Z M 18.699219 31.265625 "/>
<path style=" stroke:none;fill-rule:nonzero;fill:rgb(26.27451%,76.078431%,16.470588%);fill-opacity:1;" d="M 12.265625 11.222656 L 12.265625 12.265625 L 13.308594 12.265625 L 13.308594 24.777344 L 14.871094 24.777344 L 21.648438 12.265625 L 22.691406 12.265625 L 22.691406 11.222656 L 18.519531 11.222656 L 18.519531 12.265625 L 19.5625 12.265625 L 15.394531 19.5625 L 15.394531 12.265625 L 16.4375 12.265625 L 16.4375 11.222656 Z M 12.265625 11.222656 "/>
<path style=" stroke:none;fill-rule:nonzero;fill:rgb(26.27451%,76.078431%,16.470588%);fill-opacity:1;" d="M 17.480469 21.648438 L 18.519531 21.648438 L 18.519531 24.777344 L 17.480469 24.777344 Z M 17.480469 21.648438 "/>
<path style=" stroke:none;fill-rule:nonzero;fill:rgb(26.27451%,76.078431%,16.470588%);fill-opacity:1;" d="M 17.480469 19.5625 L 18.519531 19.5625 L 18.519531 20.605469 L 17.480469 20.605469 Z M 17.480469 19.5625 "/>
<path style=" stroke:none;fill-rule:nonzero;fill:rgb(26.27451%,76.078431%,16.470588%);fill-opacity:1;" d="M 19.5625 21.648438 L 19.5625 24.777344 L 20.605469 24.777344 L 20.605469 23.492188 L 21.648438 24.257812 L 22.691406 23.476562 L 22.691406 24.777344 L 23.734375 24.777344 L 23.734375 21.648438 L 22.691406 21.648438 L 21.648438 22.691406 L 20.605469 21.648438 Z M 19.5625 21.648438 "/>
</g>
</svg>
