<?xml version="1.0" encoding="UTF-8"?>
<svg xmlns="http://www.w3.org/2000/svg" xmlns:xlink="http://www.w3.org/1999/xlink" width="36pt" height="36pt" viewBox="0 0 36 36" version="1.1">
<defs>
<filter id="alpha" filterUnits="objectBoundingBox" x="0%" y="0%" width="100%" height="100%">
  <feColorMatrix type="matrix" in="SourceGraphic" values="0 0 0 0 1 0 0 0 0 1 0 0 0 0 1 0 0 0 1 0"/>
</filter>
<mask id="mask0">
  <g filter="url(#alpha)">
<rect x="0" y="0" width="36" height="36" style="fill:rgb(0%,0%,0%);fill-opacity:0.2;stroke:none;"/>
  </g>
</mask>
<clipPath id="clip1">
  <rect width="36" height="36"/>
</clipPath>
<g id="surface6" clip-path="url(#clip1)">
<path style=" stroke:none;fill-rule:nonzero;fill:rgb(100%,100%,100%);fill-opacity:1;" d="M 17.921875 7.890625 C 16.851562 7.890625 16.136719 8.21875 16.136719 8.648438 C 16.136719 8.769531 16.214844 8.890625 16.339844 9.007812 C 16.621094 8.769531 17.183594 8.613281 17.921875 8.613281 C 18.664062 8.613281 19.34375 8.8125 19.699219 9.078125 C 19.847656 8.957031 19.957031 8.839844 19.957031 8.738281 C 19.957031 8.304688 18.996094 7.890625 17.921875 7.890625 Z M 17.921875 7.890625 "/>
</g>
</defs>
<g id="surface1">
<path style=" stroke:none;fill-rule:evenodd;fill:rgb(100%,100%,100%);fill-opacity:1;" d="M 8.40625 2.136719 L 27.59375 2.136719 C 31.054688 2.136719 33.863281 4.945312 33.863281 8.40625 L 33.863281 27.59375 C 33.863281 31.054688 31.054688 33.863281 27.59375 33.863281 L 8.40625 33.863281 C 4.945312 33.863281 2.136719 31.054688 2.136719 27.59375 L 2.136719 8.40625 C 2.136719 4.945312 4.945312 2.136719 8.40625 2.136719 Z M 8.40625 2.136719 "/>
<path style=" stroke:none;fill-rule:evenodd;fill:rgb(100%,53.333333%,0%);fill-opacity:1;" d="M 11.429688 20.160156 C 11.023438 20.160156 10.65625 20.40625 10.496094 20.785156 L 7.96875 26.710938 C 7.691406 27.378906 8.183594 28.113281 8.902344 28.113281 L 27.097656 28.113281 C 27.816406 28.113281 28.308594 27.378906 28.03125 26.710938 L 25.503906 20.785156 C 25.34375 20.40625 24.976562 20.160156 24.570312 20.160156 Z M 11.429688 20.160156 "/>
<path style=" stroke:none;fill-rule:evenodd;fill:rgb(100%,53.333333%,0%);fill-opacity:1;" d="M 18 7.886719 C 17.542969 7.882812 17.074219 7.960938 16.613281 8.144531 C 16.324219 8.261719 16.105469 8.5 16.019531 8.796875 L 15.089844 11.941406 C 16.558594 15.101562 19.515625 12.976562 20.910156 11.941406 L 19.980469 8.796875 C 19.886719 8.484375 19.648438 8.234375 19.339844 8.128906 C 18.910156 7.980469 18.460938 7.894531 18 7.886719 Z M 13.894531 15.984375 L 12.773438 19.773438 C 13.136719 22.992188 18.789062 22.320312 23.191406 19.644531 L 22.105469 15.984375 C 19.328125 17.089844 18.199219 13.863281 13.894531 15.984375 Z M 13.894531 15.984375 "/>
<path style=" stroke:none;fill-rule:evenodd;fill:rgb(100%,100%,100%);fill-opacity:1;" d="M 15.089844 11.941406 L 12.773438 19.773438 L 13.894531 15.984375 C 16.988281 17.375 19.328125 17.089844 22.105469 15.984375 L 23.191406 19.644531 C 18.789062 22.308594 13.859375 20.410156 12.773438 19.773438 L 11.976562 22.460938 C 11.855469 22.875 12.011719 23.324219 12.367188 23.574219 C 13.925781 24.660156 15.949219 25.097656 17.960938 25.078125 C 19.976562 25.058594 21.996094 24.582031 23.582031 23.605469 C 23.972656 23.367188 24.152344 22.898438 24.023438 22.460938 L 20.910156 11.941406 C 19.515625 12.953125 16.484375 12.953125 15.089844 11.941406 Z M 15.089844 11.941406 "/>
<use xlink:href="#surface6" mask="url(#mask0)"/>
</g>
</svg>
