<?xml version="1.0" encoding="UTF-8"?>
<svg xmlns="http://www.w3.org/2000/svg" xmlns:xlink="http://www.w3.org/1999/xlink" width="36pt" height="36pt" viewBox="0 0 36 36" version="1.1">
<g id="surface1">
<path style=" stroke:none;fill-rule:evenodd;fill:rgb(30.588235%,56.862745%,85.098039%);fill-opacity:1;" d="M 8.40625 2.136719 L 27.59375 2.136719 C 31.054688 2.136719 33.863281 4.945312 33.863281 8.40625 L 33.863281 27.59375 C 33.863281 31.054688 31.054688 33.863281 27.59375 33.863281 L 8.40625 33.863281 C 4.945312 33.863281 2.136719 31.054688 2.136719 27.59375 L 2.136719 8.40625 C 2.136719 4.945312 4.945312 2.136719 8.40625 2.136719 Z M 8.40625 2.136719 "/>
<path style=" stroke:none;fill-rule:nonzero;fill:rgb(100%,67.843137%,32.54902%);fill-opacity:1;" d="M 23.0625 29.25 C 23.996094 29.25 24.75 28.496094 24.75 27.5625 L 24.75 12.9375 C 24.75 12.003906 23.996094 11.25 23.0625 11.25 L 8.4375 11.25 C 7.503906 11.25 6.75 12.003906 6.75 12.9375 L 6.75 27.5625 C 6.75 28.496094 7.503906 29.25 8.4375 29.25 Z M 20.25 24.75 L 11.25 24.75 L 11.25 15.75 L 20.25 15.75 Z M 20.25 24.75 "/>
<path style=" stroke:none;fill-rule:nonzero;fill:rgb(63.921569%,79.215686%,96.470588%);fill-opacity:1;" d="M 27.5625 24.75 C 28.496094 24.75 29.25 23.996094 29.25 23.0625 L 29.25 8.4375 C 29.25 7.503906 28.496094 6.75 27.5625 6.75 L 12.9375 6.75 C 12.003906 6.75 11.25 7.503906 11.25 8.4375 L 11.25 11.25 L 24.75 11.25 L 24.75 20.25 L 15.75 20.25 L 15.75 15.75 L 11.25 15.75 L 11.25 23.0625 C 11.25 23.996094 12.003906 24.75 12.9375 24.75 Z M 27.5625 24.75 "/>
</g>
</svg>
