<?xml version="1.0" encoding="UTF-8"?>
<svg xmlns="http://www.w3.org/2000/svg" xmlns:xlink="http://www.w3.org/1999/xlink" width="36pt" height="36pt" viewBox="0 0 36 36" version="1.1">
<g id="surface1">
<path style=" stroke:none;fill-rule:evenodd;fill:rgb(30.980392%,30.980392%,30.980392%);fill-opacity:1;" d="M 8.40625 2.136719 L 27.59375 2.136719 C 31.054688 2.136719 33.863281 4.945312 33.863281 8.40625 L 33.863281 27.59375 C 33.863281 31.054688 31.054688 33.863281 27.59375 33.863281 L 8.40625 33.863281 C 4.945312 33.863281 2.136719 31.054688 2.136719 27.59375 L 2.136719 8.40625 C 2.136719 4.945312 4.945312 2.136719 8.40625 2.136719 Z M 8.40625 2.136719 "/>
<path style=" stroke:none;fill-rule:nonzero;fill:rgb(100%,82.745098%,55.294118%);fill-opacity:1;" d="M 24.402344 6.988281 L 25.445312 7.59375 C 25.546875 7.652344 25.582031 7.785156 25.523438 7.890625 L 23.289062 11.757812 C 23.226562 11.863281 23.09375 11.898438 22.992188 11.839844 L 21.949219 11.238281 C 21.847656 11.179688 21.8125 11.046875 21.871094 10.941406 L 24.105469 7.070312 C 24.167969 6.96875 24.296875 6.929688 24.402344 6.988281 Z M 24.402344 6.988281 "/>
<path style=" stroke:none;fill-rule:nonzero;fill:rgb(100%,100%,100%);fill-opacity:1;" d="M 21.835938 8.230469 C 21.574219 8.078125 21.242188 8.167969 21.09375 8.429688 L 20.351562 9.710938 C 16.113281 8.664062 11.691406 10.546875 9.507812 14.324219 C 6.796875 19.015625 8.40625 25.015625 13.097656 27.726562 C 17.789062 30.433594 23.789062 28.824219 26.496094 24.132812 C 28.675781 20.351562 28.09375 15.585938 25.070312 12.4375 L 25.8125 11.152344 C 25.960938 10.894531 25.875 10.5625 25.613281 10.410156 Z M 21.835938 8.230469 "/>
<path style=" stroke:none;fill-rule:nonzero;fill:rgb(30.980392%,30.980392%,30.980392%);fill-opacity:1;" d="M 16.765625 11.875 C 16.621094 11.871094 16.488281 11.878906 16.375 11.886719 C 15.289062 11.984375 13.878906 12.949219 12.679688 14.410156 C 11.523438 15.828125 11.1875 16.957031 11.683594 17.789062 C 12.238281 18.726562 12.882812 19.257812 13.78125 19.527344 C 14.550781 19.757812 14.777344 19.894531 15.4375 20.53125 C 16.5 21.5625 16.863281 21.675781 19.097656 21.683594 C 20.039062 21.683594 21.175781 21.648438 21.621094 21.597656 C 22.28125 21.527344 22.558594 21.441406 23.101562 21.144531 C 24.542969 20.355469 24.777344 19.820312 24.351562 18.277344 C 24.21875 17.792969 24.003906 16.777344 23.871094 16.011719 C 23.738281 15.25 23.574219 14.507812 23.503906 14.363281 C 23.183594 13.722656 22.15625 13.105469 20.386719 12.488281 C 19.414062 12.152344 17.777344 11.878906 16.765625 11.875 Z M 16.136719 15.144531 C 16.996094 15.179688 17.1875 15.929688 17.183594 16.574219 C 17.183594 17.484375 17.054688 17.835938 16.585938 18.183594 C 16.234375 18.441406 15.375 18.496094 15.121094 18.273438 C 14.851562 18.042969 14.734375 17.609375 14.734375 16.871094 C 14.734375 15.761719 15.234375 15.144531 16.136719 15.144531 Z M 20.492188 15.144531 C 20.703125 15.140625 20.929688 15.207031 21.203125 15.34375 C 21.480469 15.484375 21.796875 15.710938 21.902344 15.847656 C 22.148438 16.171875 22.152344 16.90625 21.90625 17.71875 C 21.535156 18.949219 20.792969 19.445312 19.777344 19.144531 C 19.382812 19.027344 18.921875 18.476562 18.839844 18.023438 C 18.703125 17.292969 19.304688 15.742188 19.867188 15.363281 C 20.082031 15.21875 20.28125 15.148438 20.492188 15.144531 Z M 13.324219 20.046875 C 12.980469 20.046875 12.613281 20.160156 12.261719 20.390625 C 11.832031 20.675781 10.992188 21.667969 10.769531 22.15625 C 10.347656 23.078125 11.046875 24.507812 12.101562 24.863281 C 12.46875 24.988281 12.476562 24.988281 12.808594 24.824219 C 13.207031 24.632812 13.402344 24.375 14.09375 23.128906 C 14.558594 22.285156 14.683594 21.96875 14.71875 21.539062 C 14.757812 21.054688 14.730469 20.96875 14.460938 20.617188 C 14.167969 20.242188 13.765625 20.050781 13.324219 20.046875 Z M 16.722656 22.5 C 15.929688 22.5 15.367188 23 15 24.019531 C 14.679688 24.90625 14.644531 25.660156 14.90625 25.925781 C 15.367188 26.382812 17.066406 26.753906 17.582031 26.507812 C 17.800781 26.40625 17.867188 26.253906 17.96875 25.628906 C 18.070312 25.035156 17.933594 23.703125 17.71875 23.191406 C 17.53125 22.730469 17.195312 22.5 16.722656 22.5 Z M 20.445312 22.5 C 20.375 22.5 20.292969 22.503906 20.195312 22.511719 C 19.605469 22.554688 19.289062 22.753906 19.003906 23.257812 C 18.816406 23.597656 18.796875 23.71875 18.835938 24.398438 C 18.886719 25.25 19.015625 25.683594 19.246094 25.746094 C 19.492188 25.816406 20.597656 25.714844 21.085938 25.582031 C 21.683594 25.414062 22.089844 25.089844 22.089844 24.78125 C 22.089844 24.449219 21.230469 22.878906 20.925781 22.65625 C 20.773438 22.542969 20.660156 22.5 20.445312 22.5 Z M 20.445312 22.5 "/>
</g>
</svg>
