<?xml version="1.0" encoding="UTF-8"?>
<svg xmlns="http://www.w3.org/2000/svg" xmlns:xlink="http://www.w3.org/1999/xlink" width="36pt" height="36pt" viewBox="0 0 36 36" version="1.1">
<g id="surface1">
<path style=" stroke:none;fill-rule:evenodd;fill:rgb(26.27451%,33.72549%,44.705882%);fill-opacity:1;" d="M 8.40625 2.136719 L 27.59375 2.136719 C 31.054688 2.136719 33.863281 4.945312 33.863281 8.40625 L 33.863281 27.59375 C 33.863281 31.054688 31.054688 33.863281 27.59375 33.863281 L 8.40625 33.863281 C 4.945312 33.863281 2.136719 31.054688 2.136719 27.59375 L 2.136719 8.40625 C 2.136719 4.945312 4.945312 2.136719 8.40625 2.136719 Z M 8.40625 2.136719 "/>
<path style=" stroke:none;fill-rule:nonzero;fill:rgb(60%,74.117647%,87.843137%);fill-opacity:1;" d="M 2.164062 11.082031 L 33.820312 11.082031 L 33.820312 10.390625 L 2.164062 10.390625 Z M 2.164062 11.082031 "/>
<path style=" stroke:none;fill-rule:nonzero;fill:rgb(60%,74.117647%,87.843137%);fill-opacity:1;" d="M 2.164062 22.273438 L 5.21875 22.273438 L 8.253906 27.265625 L 27.910156 27.265625 L 30.785156 22.191406 L 33.820312 22.191406 L 33.820312 21.5 L 30.699219 21.5 L 27.539062 19.046875 L 8.496094 19.046875 L 5.292969 21.585938 L 2.320312 21.585938 L 2.164062 21.410156 Z M 8.734375 19.734375 L 27.300781 19.734375 L 30.132812 21.9375 L 27.507812 26.578125 L 8.644531 26.578125 L 5.867188 22.007812 Z M 8.734375 19.734375 "/>
<path style=" stroke:none;fill-rule:nonzero;fill:rgb(86.27451%,90.588235%,96.078431%);fill-opacity:1;" d="M 22.507812 12.261719 C 22.191406 12.261719 21.914062 12.3125 21.679688 12.414062 C 21.441406 12.519531 21.253906 12.664062 21.117188 12.859375 C 20.976562 13.050781 20.894531 13.265625 20.867188 13.5 C 20.84375 13.730469 20.828125 14.125 20.828125 14.6875 L 20.828125 15.640625 C 20.828125 16.214844 20.84375 16.617188 20.871094 16.847656 C 20.898438 17.074219 20.984375 17.289062 21.128906 17.484375 C 21.273438 17.679688 21.464844 17.824219 21.699219 17.921875 C 21.9375 18.019531 22.207031 18.066406 22.507812 18.066406 C 22.820312 18.066406 23.097656 18.015625 23.332031 17.910156 C 23.570312 17.808594 23.753906 17.660156 23.894531 17.46875 C 24.03125 17.277344 24.117188 17.0625 24.140625 16.832031 C 24.167969 16.597656 24.183594 16.199219 24.183594 15.640625 L 24.183594 14.6875 C 24.183594 14.113281 24.167969 13.710938 24.140625 13.480469 C 24.113281 13.253906 24.027344 13.039062 23.882812 12.84375 C 23.738281 12.648438 23.546875 12.503906 23.308594 12.40625 C 23.070312 12.308594 22.804688 12.261719 22.507812 12.261719 Z M 4.71875 12.378906 L 5.363281 17.953125 L 7.164062 17.953125 C 7.375 16.472656 7.511719 15.496094 7.566406 15.03125 C 7.695312 16.121094 7.839844 17.09375 8.003906 17.953125 L 9.816406 17.953125 L 10.457031 12.378906 L 9.050781 12.378906 C 8.863281 13.667969 8.730469 14.984375 8.648438 16.332031 L 8.492188 14.214844 C 8.40625 13.152344 8.351562 12.539062 8.332031 12.378906 L 6.824219 12.378906 C 6.609375 13.953125 6.476562 15.226562 6.425781 16.199219 L 6.273438 14.320312 L 6.125 12.378906 Z M 11.09375 12.378906 L 10.355469 17.953125 L 11.855469 17.953125 L 11.945312 16.949219 L 12.460938 16.949219 L 12.535156 17.953125 L 14.019531 17.953125 L 13.191406 12.378906 Z M 14.273438 12.378906 L 14.273438 17.953125 L 15.722656 17.953125 L 15.722656 15.4375 C 15.921875 15.4375 16.046875 15.472656 16.09375 15.542969 C 16.140625 15.613281 16.164062 15.800781 16.164062 16.097656 L 16.164062 17.953125 L 17.511719 17.953125 L 17.511719 16.480469 C 17.511719 16.03125 17.496094 15.757812 17.472656 15.65625 C 17.449219 15.558594 17.390625 15.449219 17.289062 15.328125 C 17.191406 15.207031 17 15.113281 16.710938 15.042969 C 17.027344 15.011719 17.238281 14.921875 17.347656 14.773438 C 17.457031 14.621094 17.511719 14.332031 17.511719 13.898438 C 17.511719 13.425781 17.433594 13.078125 17.28125 12.863281 C 17.128906 12.644531 16.929688 12.507812 16.6875 12.457031 C 16.445312 12.402344 15.984375 12.378906 15.300781 12.378906 Z M 17.957031 12.378906 L 17.957031 13.492188 L 18.941406 13.492188 L 17.828125 17.140625 L 17.828125 17.953125 L 20.5 17.953125 L 20.5 16.835938 L 19.417969 16.835938 L 20.5 13.492188 L 20.5 12.378906 Z M 24.726562 12.378906 L 24.726562 17.953125 L 25.9375 17.953125 L 25.9375 15.414062 L 26.691406 17.953125 L 27.960938 17.953125 L 27.960938 12.378906 L 26.75 12.378906 L 26.75 14.886719 L 25.9375 12.378906 Z M 28.539062 12.378906 L 28.539062 17.953125 L 31.054688 17.953125 L 31.054688 16.835938 L 29.992188 16.835938 L 29.992188 15.609375 L 30.894531 15.609375 L 30.894531 14.550781 L 29.992188 14.550781 L 29.992188 13.492188 L 30.957031 13.492188 L 30.957031 12.378906 Z M 22.511719 13.203125 C 22.601562 13.203125 22.660156 13.238281 22.6875 13.3125 C 22.71875 13.382812 22.734375 13.550781 22.734375 13.808594 L 22.734375 16.371094 C 22.734375 16.699219 22.71875 16.90625 22.691406 16.992188 C 22.664062 17.082031 22.601562 17.125 22.503906 17.125 C 22.40625 17.125 22.34375 17.085938 22.316406 17.011719 C 22.289062 16.933594 22.277344 16.734375 22.277344 16.410156 L 22.277344 13.808594 C 22.277344 13.523438 22.296875 13.351562 22.335938 13.292969 C 22.378906 13.234375 22.4375 13.203125 22.511719 13.203125 Z M 15.722656 13.332031 C 15.890625 13.332031 16.007812 13.359375 16.070312 13.414062 C 16.132812 13.46875 16.164062 13.585938 16.164062 13.761719 L 16.164062 14.066406 C 16.164062 14.3125 16.128906 14.457031 16.0625 14.503906 C 16 14.546875 15.886719 14.570312 15.722656 14.570312 Z M 12.203125 13.621094 C 12.273438 14.550781 12.347656 15.328125 12.421875 15.960938 L 11.925781 15.960938 C 11.964844 15.46875 12.054688 14.6875 12.203125 13.621094 Z M 13.707031 20.996094 C 13.496094 20.996094 13.3125 21.027344 13.160156 21.097656 C 13.007812 21.164062 12.882812 21.265625 12.785156 21.398438 C 12.691406 21.527344 12.628906 21.664062 12.605469 21.800781 C 12.582031 21.9375 12.566406 22.121094 12.566406 22.359375 L 12.566406 22.511719 L 13.511719 22.511719 L 13.511719 22.109375 C 13.511719 21.925781 13.53125 21.800781 13.570312 21.738281 C 13.609375 21.675781 13.671875 21.644531 13.75 21.644531 C 13.832031 21.644531 13.890625 21.671875 13.929688 21.730469 C 13.96875 21.785156 13.988281 21.871094 13.988281 21.984375 C 13.988281 22.136719 13.921875 22.34375 13.792969 22.613281 C 13.664062 22.878906 13.253906 23.570312 12.566406 24.695312 L 12.566406 25.296875 L 14.886719 25.296875 L 14.886719 24.578125 L 13.734375 24.578125 C 14.324219 23.703125 14.679688 23.132812 14.796875 22.863281 C 14.921875 22.59375 14.980469 22.335938 14.980469 22.09375 C 14.980469 21.777344 14.875 21.515625 14.65625 21.308594 C 14.445312 21.097656 14.128906 20.996094 13.707031 20.996094 Z M 18.554688 20.996094 C 18.273438 20.996094 18.03125 21.050781 17.832031 21.167969 C 17.632812 21.285156 17.5 21.441406 17.429688 21.632812 C 17.363281 21.828125 17.332031 22.117188 17.332031 22.503906 L 17.332031 23.980469 C 17.332031 24.277344 17.351562 24.492188 17.394531 24.628906 C 17.433594 24.765625 17.503906 24.894531 17.605469 25.019531 C 17.703125 25.140625 17.835938 25.234375 18.003906 25.292969 C 18.171875 25.351562 18.378906 25.378906 18.632812 25.378906 C 18.824219 25.378906 18.996094 25.351562 19.152344 25.296875 C 19.304688 25.238281 19.441406 25.148438 19.550781 25.019531 C 19.660156 24.894531 19.730469 24.757812 19.765625 24.613281 C 19.800781 24.464844 19.816406 24.234375 19.816406 23.914062 L 19.816406 22.503906 C 19.816406 22.183594 19.800781 21.953125 19.765625 21.804688 C 19.734375 21.660156 19.675781 21.527344 19.585938 21.414062 C 19.492188 21.296875 19.359375 21.199219 19.175781 21.117188 C 18.992188 21.035156 18.789062 20.996094 18.554688 20.996094 Z M 21.421875 20.996094 C 21.140625 20.996094 20.898438 21.050781 20.699219 21.167969 C 20.5 21.285156 20.367188 21.441406 20.300781 21.632812 C 20.234375 21.828125 20.199219 22.117188 20.199219 22.503906 L 20.199219 23.980469 C 20.199219 24.277344 20.222656 24.492188 20.261719 24.628906 C 20.304688 24.765625 20.375 24.894531 20.472656 25.019531 C 20.574219 25.140625 20.707031 25.234375 20.875 25.292969 C 21.039062 25.351562 21.25 25.378906 21.503906 25.378906 C 21.695312 25.378906 21.867188 25.351562 22.019531 25.296875 C 22.175781 25.238281 22.308594 25.148438 22.417969 25.019531 C 22.527344 24.894531 22.597656 24.757812 22.632812 24.613281 C 22.667969 24.464844 22.6875 24.234375 22.6875 23.914062 L 22.6875 22.503906 C 22.6875 22.183594 22.667969 21.953125 22.636719 21.804688 C 22.605469 21.660156 22.542969 21.527344 22.453125 21.414062 C 22.363281 21.296875 22.226562 21.199219 22.046875 21.117188 C 21.863281 21.035156 21.65625 20.996094 21.421875 20.996094 Z M 16.300781 21.078125 C 16.039062 21.417969 15.652344 21.640625 15.140625 21.75 L 15.140625 22.242188 L 15.246094 22.242188 C 15.488281 22.242188 15.644531 22.261719 15.714844 22.296875 C 15.785156 22.328125 15.828125 22.378906 15.84375 22.445312 C 15.859375 22.511719 15.867188 22.707031 15.867188 23.035156 L 15.867188 25.296875 L 16.921875 25.296875 L 16.921875 21.078125 Z M 18.578125 21.644531 C 18.65625 21.644531 18.707031 21.671875 18.730469 21.730469 C 18.753906 21.785156 18.761719 21.925781 18.761719 22.152344 L 18.761719 24.242188 C 18.761719 24.449219 18.75 24.582031 18.726562 24.640625 C 18.703125 24.699219 18.652344 24.730469 18.574219 24.730469 C 18.496094 24.730469 18.445312 24.703125 18.417969 24.652344 C 18.398438 24.601562 18.382812 24.453125 18.382812 24.210938 L 18.382812 22.152344 C 18.382812 21.933594 18.398438 21.792969 18.421875 21.734375 C 18.449219 21.675781 18.5 21.644531 18.578125 21.644531 Z M 21.449219 21.644531 C 21.527344 21.644531 21.578125 21.671875 21.597656 21.730469 C 21.621094 21.785156 21.632812 21.925781 21.632812 22.152344 L 21.632812 24.242188 C 21.632812 24.449219 21.621094 24.582031 21.597656 24.640625 C 21.574219 24.699219 21.519531 24.730469 21.441406 24.730469 C 21.363281 24.730469 21.3125 24.703125 21.289062 24.652344 C 21.265625 24.601562 21.253906 24.453125 21.253906 24.210938 L 21.253906 22.152344 C 21.253906 21.933594 21.265625 21.792969 21.292969 21.734375 C 21.316406 21.675781 21.371094 21.644531 21.449219 21.644531 Z M 21.449219 21.644531 "/>
</g>
</svg>
