<?xml version="1.0" encoding="UTF-8"?>
<svg xmlns="http://www.w3.org/2000/svg" xmlns:xlink="http://www.w3.org/1999/xlink" width="36pt" height="36pt" viewBox="0 0 36 36" version="1.1">
<g id="surface1">
<path style=" stroke:none;fill-rule:evenodd;fill:rgb(25.490196%,65.098039%,80%);fill-opacity:1;" d="M 8.40625 2.136719 L 27.59375 2.136719 C 31.054688 2.136719 33.863281 4.945312 33.863281 8.40625 L 33.863281 27.59375 C 33.863281 31.054688 31.054688 33.863281 27.59375 33.863281 L 8.40625 33.863281 C 4.945312 33.863281 2.136719 31.054688 2.136719 27.59375 L 2.136719 8.40625 C 2.136719 4.945312 4.945312 2.136719 8.40625 2.136719 Z M 8.40625 2.136719 "/>
<path style=" stroke:none;fill-rule:nonzero;fill:rgb(20.784314%,26.27451%,34.509804%);fill-opacity:1;" d="M 18.335938 8.089844 C 12.882812 8.089844 8.464844 12.507812 8.464844 17.960938 C 8.464844 23.410156 12.882812 27.828125 18.335938 27.828125 C 23.785156 27.828125 28.203125 23.410156 28.203125 17.960938 C 28.203125 12.507812 23.785156 8.089844 18.335938 8.089844 Z M 18.335938 8.089844 "/>
<path style=" stroke:none;fill-rule:nonzero;fill:rgb(100%,100%,100%);fill-opacity:1;" d="M 19.285156 4.125 C 19 4.125 18.453125 4.175781 18.171875 4.253906 C 17.238281 4.511719 16.367188 5.726562 16.042969 6.613281 C 15.996094 6.746094 15.933594 6.867188 15.902344 6.882812 C 15.875 6.898438 15.761719 6.925781 15.65625 6.949219 C 14.550781 7.179688 13.199219 7.6875 12.273438 8.214844 C 10.191406 9.410156 8.59375 11.101562 7.554688 13.214844 C 6.96875 14.410156 6.632812 15.503906 6.441406 16.875 C 6.359375 17.457031 6.359375 19.21875 6.441406 19.804688 C 6.8125 22.425781 7.910156 24.675781 9.71875 26.507812 C 11.777344 28.59375 14.421875 29.785156 17.414062 29.96875 C 17.785156 29.992188 18.910156 29.953125 19.347656 29.90625 C 20.570312 29.765625 21.867188 29.394531 22.984375 28.863281 C 26.628906 27.128906 29.113281 23.65625 29.570312 19.65625 C 29.59375 19.457031 29.613281 18.917969 29.613281 18.453125 C 29.683594 17.121094 29.136719 15.800781 28.589844 14.824219 C 28.019531 13.652344 27.914062 12.632812 27.828125 11.382812 C 27.839844 11.304688 27.839844 11.226562 27.828125 11.207031 C 26.324219 11.667969 25.039062 12.882812 24.25 14.003906 C 23.714844 14.859375 23.363281 15.730469 23.363281 16.496094 C 23.4375 18.453125 25.113281 19.863281 25.152344 21.632812 C 25.152344 23.507812 24.019531 25.324219 22.675781 26.621094 C 22.40625 26.882812 22.34375 26.929688 22.3125 26.902344 C 22.300781 26.890625 22.34375 26.777344 22.40625 26.644531 C 23.339844 24.59375 23.144531 22.132812 21.707031 20.410156 C 21.507812 20.171875 20.714844 19.390625 20.601562 19.320312 C 20.65625 19.59375 20.679688 19.867188 20.683594 20.144531 C 20.683594 22.613281 18.679688 24.613281 16.210938 24.613281 C 13.746094 24.613281 11.742188 22.613281 11.742188 20.144531 C 11.742188 17.675781 13.746094 15.675781 16.210938 15.675781 C 16.496094 15.675781 16.777344 15.703125 17.050781 15.757812 C 17.066406 15.757812 17.082031 15.757812 17.097656 15.757812 C 17.136719 15.722656 17.164062 15.691406 17.164062 15.679688 C 17.164062 15.609375 16.0625 14.507812 15.757812 14.273438 C 15.136719 13.792969 14.433594 13.210938 13.617188 13 C 13.398438 12.945312 13.285156 12.898438 13.285156 12.871094 C 13.285156 12.789062 14.058594 12.558594 14.917969 12.382812 C 15.964844 12.171875 16.644531 12.121094 18.667969 12.101562 C 19.519531 12.09375 20.355469 12.070312 20.53125 12.050781 C 22.714844 11.699219 24.472656 10.269531 25.253906 8.671875 C 25.277344 8.597656 25.273438 8.597656 24.9375 8.597656 C 24.21875 8.597656 23.496094 8.449219 22.808594 8.144531 C 21.917969 7.640625 21.132812 7.054688 20.179688 6.847656 C 19.933594 6.796875 19.265625 6.789062 18.894531 6.734375 C 18.808594 5.988281 19.140625 4.898438 19.460938 4.417969 C 19.539062 4.304688 19.597656 4.191406 19.59375 4.175781 C 19.582031 4.136719 19.460938 4.125 19.285156 4.125 Z M 19.285156 4.125 "/>
</g>
</svg>
