<?xml version="1.0" encoding="UTF-8"?>
<svg xmlns="http://www.w3.org/2000/svg" xmlns:xlink="http://www.w3.org/1999/xlink" width="36pt" height="36pt" viewBox="0 0 36 36" version="1.1">
<g id="surface1">
<path style=" stroke:none;fill-rule:evenodd;fill:rgb(95.294118%,71.372549%,8.627451%);fill-opacity:1;" d="M 8.40625 2.136719 L 27.59375 2.136719 C 31.054688 2.136719 33.863281 4.945312 33.863281 8.40625 L 33.863281 27.59375 C 33.863281 31.054688 31.054688 33.863281 27.59375 33.863281 L 8.40625 33.863281 C 4.945312 33.863281 2.136719 31.054688 2.136719 27.59375 L 2.136719 8.40625 C 2.136719 4.945312 4.945312 2.136719 8.40625 2.136719 Z M 8.40625 2.136719 "/>
<path style=" stroke:none;fill-rule:nonzero;fill:rgb(100%,100%,100%);fill-opacity:1;" d="M 27.699219 5.46875 C 28.191406 5.46875 28.46875 5.859375 28.527344 6.636719 L 27.902344 10.300781 L 28.054688 10.300781 L 28.382812 10.03125 L 28.46875 10.03125 L 28.46875 10.113281 C 28.019531 10.457031 27.582031 11.398438 27.160156 12.9375 C 27 14.257812 26.730469 15.480469 26.355469 16.601562 C 26.019531 17.761719 25.851562 18.828125 25.851562 19.804688 L 25.21875 21.734375 C 25.21875 21.894531 25.460938 22.058594 25.941406 22.222656 C 25.851562 22.601562 25.722656 22.792969 25.546875 22.792969 L 25.546875 22.902344 L 25.699219 22.902344 L 25.699219 22.980469 C 25.699219 23.179688 25.453125 23.28125 24.957031 23.28125 L 25.046875 23.390625 L 25.046875 23.769531 L 24.894531 23.769531 C 24.996094 24.148438 25.210938 24.339844 25.546875 24.339844 L 25.546875 24.53125 L 24.894531 24.53125 L 24.894531 24.636719 C 25.109375 24.636719 25.21875 24.800781 25.21875 25.128906 L 24.304688 25.507812 L 24.390625 25.617188 L 24.390625 25.699219 C 24.390625 25.824219 24.28125 25.886719 24.066406 25.886719 L 24.066406 25.996094 C 24.339844 25.996094 24.480469 26.058594 24.480469 26.1875 C 24.085938 26.347656 23.570312 27.15625 22.929688 28.601562 C 22.277344 29.886719 21.710938 30.53125 21.230469 30.53125 L 21.054688 30.53125 C 20.691406 30.242188 20.394531 29.28125 20.164062 27.652344 C 19.230469 25.171875 18.765625 23.714844 18.765625 23.28125 C 18.765625 22.160156 18.46875 21.164062 17.875 19.898438 C 17.714844 19.335938 17.605469 18.355469 17.546875 17.503906 L 17.152344 17.503906 C 16.164062 19.367188 15.648438 20.792969 15.605469 21.84375 C 15.328125 22.457031 15.113281 23.199219 14.953125 24.070312 C 15.546875 24.265625 15.847656 24.457031 15.847656 24.636719 L 15.847656 24.746094 C 15.378906 24.675781 15.054688 24.539062 14.863281 24.339844 C 14.660156 24.828125 14.390625 25.886719 14.058594 28.113281 C 13.796875 29.144531 13.46875 29.527344 13.078125 29.527344 C 11.972656 29.074219 11.050781 28.464844 10.308594 27.433594 C 10.191406 27.433594 10.003906 26.917969 9.742188 25.886719 C 9.582031 25.886719 9.472656 25.371094 9.414062 24.339844 C 8.863281 22.871094 8.484375 21.5 8.28125 19.617188 L 8.28125 16.792969 L 8.195312 16.792969 L 7.800781 16.898438 L 7.800781 16.792969 C 7.800781 16.664062 7.933594 16.601562 8.195312 16.601562 L 8.105469 14.972656 L 8.105469 13.695312 L 7.472656 9.625 L 7.472656 8.085938 C 7.75 7 8.230469 6.457031 8.914062 6.457031 L 9.175781 6.730469 L 8.914062 6.648438 C 9.972656 8.09375 10.597656 9.117188 10.789062 10.113281 L 11.527344 10.113281 L 11.527344 10.300781 L 10.960938 10.300781 L 10.960938 10.519531 C 11.179688 11.351562 11.339844 11.769531 11.441406 11.769531 L 11.617188 11.769531 L 12.007812 11.660156 L 12.097656 11.769531 L 12.183594 11.660156 L 12.269531 11.769531 L 12.269531 11.851562 C 11.980469 12.066406 11.785156 12.367188 11.683594 12.746094 L 11.617188 12.746094 L 11.617188 12.9375 L 11.769531 12.9375 C 11.972656 15.960938 12.351562 18.648438 12.902344 20.207031 L 13.230469 20.507812 L 13.402344 20.507812 C 13.621094 20.507812 14.078125 19.320312 14.777344 17.203125 C 15.226562 16.242188 15.554688 15.539062 15.757812 14.816406 L 15.671875 14.515625 C 16.121094 13.8125 16.585938 13.488281 17.066406 13.488281 L 17.21875 13.488281 C 17.523438 13.488281 17.742188 13.65625 17.875 14.054688 C 18.28125 14.652344 18.605469 15.410156 18.855469 16.605469 L 20.074219 19.125 C 20.234375 19.324219 20.316406 19.550781 20.316406 19.804688 C 20.765625 20.875 21.171875 22.167969 21.535156 22.511719 L 21.796875 22.511719 C 22.101562 22.511719 22.507812 20.601562 23.019531 17.960938 C 23.105469 17.960938 23.34375 17.253906 23.738281 15.839844 L 23.738281 15.734375 L 23.324219 15.542969 L 22.996094 15.652344 L 22.582031 15.652344 L 22.582031 15.433594 L 23.410156 15.351562 L 24.066406 15.351562 C 24.691406 13.019531 25.261719 11.207031 25.785156 9.921875 C 25.960938 7.28125 26.199219 5.957031 26.507812 5.957031 L 27.699219 5.46875 "/>
</g>
</svg>
