<?xml version="1.0" encoding="UTF-8"?>
<svg xmlns="http://www.w3.org/2000/svg" xmlns:xlink="http://www.w3.org/1999/xlink" width="36pt" height="36pt" viewBox="0 0 36 36" version="1.1">
<defs>
<filter id="alpha" filterUnits="objectBoundingBox" x="0%" y="0%" width="100%" height="100%">
  <feColorMatrix type="matrix" in="SourceGraphic" values="0 0 0 0 1 0 0 0 0 1 0 0 0 0 1 0 0 0 1 0"/>
</filter>
<mask id="mask0">
  <g filter="url(#alpha)">
<rect x="0" y="0" width="36" height="36" style="fill:rgb(0%,0%,0%);fill-opacity:0.101961;stroke:none;"/>
  </g>
</mask>
<clipPath id="clip1">
  <rect width="36" height="36"/>
</clipPath>
<g id="surface6" clip-path="url(#clip1)">
<path style=" stroke:none;fill-rule:nonzero;fill:rgb(0%,0%,0%);fill-opacity:1;" d="M 23.769531 15.113281 C 23.769531 15.910156 23.125 16.558594 22.328125 16.558594 C 21.53125 16.558594 20.886719 15.910156 20.886719 15.113281 C 20.886719 14.316406 21.53125 13.671875 22.328125 13.671875 C 23.125 13.671875 23.769531 14.316406 23.769531 15.113281 Z M 23.769531 15.113281 "/>
</g>
</defs>
<g id="surface1">
<path style=" stroke:none;fill-rule:evenodd;fill:rgb(100%,100%,100%);fill-opacity:1;" d="M 8.40625 2.136719 L 27.59375 2.136719 C 31.054688 2.136719 33.863281 4.945312 33.863281 8.40625 L 33.863281 27.59375 C 33.863281 31.054688 31.054688 33.863281 27.59375 33.863281 L 8.40625 33.863281 C 4.945312 33.863281 2.136719 31.054688 2.136719 27.59375 L 2.136719 8.40625 C 2.136719 4.945312 4.945312 2.136719 8.40625 2.136719 Z M 8.40625 2.136719 "/>
<path style=" stroke:none;fill-rule:nonzero;fill:rgb(31.372549%,73.72549%,100%);fill-opacity:1;" d="M 17.277344 7.179688 C 11.699219 7.179688 7.179688 11.378906 7.179688 16.558594 C 7.179688 19.328125 8.5 21.957031 10.785156 23.742188 L 10.785156 27.378906 L 13.46875 25.238281 C 14.679688 25.695312 15.972656 25.933594 17.277344 25.933594 C 22.855469 25.933594 27.378906 21.738281 27.378906 16.558594 C 27.378906 11.378906 22.855469 7.179688 17.277344 7.179688 Z M 17.277344 7.179688 "/>
<path style=" stroke:none;fill-rule:nonzero;fill:rgb(24.705882%,24.705882%,24.705882%);fill-opacity:1;" d="M 13.671875 14.394531 C 13.671875 15.191406 13.027344 15.835938 12.230469 15.835938 C 11.433594 15.835938 10.785156 15.191406 10.785156 14.394531 C 10.785156 13.597656 11.433594 12.949219 12.230469 12.949219 C 13.027344 12.949219 13.671875 13.597656 13.671875 14.394531 Z M 13.671875 14.394531 "/>
<use xlink:href="#surface6" mask="url(#mask0)"/>
<path style=" stroke:none;fill-rule:nonzero;fill:rgb(24.705882%,24.705882%,24.705882%);fill-opacity:1;" d="M 23.769531 14.394531 C 23.769531 15.191406 23.125 15.835938 22.328125 15.835938 C 21.53125 15.835938 20.886719 15.191406 20.886719 14.394531 C 20.886719 13.597656 21.53125 12.949219 22.328125 12.949219 C 23.125 12.949219 23.769531 13.597656 23.769531 14.394531 Z M 23.769531 14.394531 "/>
<path style=" stroke:none;fill-rule:nonzero;fill:rgb(80%,80%,80%);fill-opacity:1;" d="M 21.609375 14.394531 C 21.816406 14.394531 22.019531 14.402344 22.222656 14.421875 C 22.375 14.433594 22.519531 14.453125 22.664062 14.472656 C 22.742188 14.484375 22.820312 14.492188 22.894531 14.507812 C 23.101562 14.542969 23.308594 14.585938 23.507812 14.636719 C 23.519531 14.640625 23.535156 14.644531 23.546875 14.648438 C 26.59375 15.441406 28.820312 18.046875 28.820312 21.136719 C 28.820312 21.160156 28.820312 21.183594 28.820312 21.203125 C 28.820312 21.21875 28.820312 21.234375 28.820312 21.246094 C 28.816406 23.371094 27.777344 25.371094 26.007812 26.667969 L 26.007812 28.820312 L 24.023438 27.695312 C 23.246094 27.960938 22.429688 28.097656 21.605469 28.097656 C 17.769531 28.09375 14.605469 25.238281 14.410156 21.597656 C 14.40625 21.515625 14.402344 21.4375 14.398438 21.355469 C 14.394531 21.320312 14.394531 21.28125 14.394531 21.246094 C 14.394531 21.230469 14.394531 21.214844 14.394531 21.203125 C 14.394531 21.179688 14.394531 21.160156 14.394531 21.136719 C 14.394531 17.644531 17.234375 14.765625 20.886719 14.425781 C 21.085938 14.410156 21.289062 14.398438 21.488281 14.398438 C 21.527344 14.398438 21.566406 14.394531 21.609375 14.394531 Z M 21.609375 14.394531 "/>
<path style=" stroke:none;fill-rule:nonzero;fill:rgb(24.705882%,24.705882%,24.705882%);fill-opacity:1;" d="M 19.441406 20.164062 C 19.441406 20.960938 18.796875 21.605469 18 21.605469 C 17.203125 21.605469 16.558594 20.960938 16.558594 20.164062 C 16.558594 19.367188 17.203125 18.722656 18 18.722656 C 18.796875 18.722656 19.441406 19.367188 19.441406 20.164062 Z M 19.441406 20.164062 "/>
<path style=" stroke:none;fill-rule:nonzero;fill:rgb(24.705882%,24.705882%,24.705882%);fill-opacity:1;" d="M 26.65625 20.164062 C 26.65625 20.960938 26.011719 21.605469 25.214844 21.605469 C 24.417969 21.605469 23.769531 20.960938 23.769531 20.164062 C 23.769531 19.367188 24.417969 18.722656 25.214844 18.722656 C 26.011719 18.722656 26.65625 19.367188 26.65625 20.164062 Z M 26.65625 20.164062 "/>
</g>
</svg>
