<?xml version="1.0" encoding="UTF-8"?>
<svg xmlns="http://www.w3.org/2000/svg" xmlns:xlink="http://www.w3.org/1999/xlink" width="36pt" height="36pt" viewBox="0 0 36 36" version="1.1">
<defs>
<clipPath id="clip1">
  <rect width="36" height="36"/>
</clipPath>
<g id="surface6" clip-path="url(#clip1)">
<path style=" stroke:none;fill-rule:nonzero;fill:rgb(30.196078%,30.196078%,30.196078%);fill-opacity:1;" d="M 21.503906 10.6875 C 20.703125 10.6875 19.757812 10.691406 19.175781 10.695312 L 19.117188 10.734375 L 19.117188 11.152344 C 19.117188 11.203125 19.136719 11.238281 19.179688 11.269531 C 19.222656 11.304688 19.265625 11.324219 19.3125 11.324219 L 19.5 11.34375 C 19.976562 11.363281 20.199219 11.492188 20.265625 11.570312 C 20.378906 11.714844 20.433594 11.871094 20.15625 12.488281 L 18.511719 15.855469 L 17.023438 12.730469 C 16.535156 11.734375 16.417969 11.421875 17.152344 11.363281 L 17.445312 11.324219 C 17.585938 11.324219 17.65625 11.273438 17.65625 11.171875 L 17.65625 10.734375 L 17.546875 10.695312 C 17.546875 10.695312 14.777344 10.699219 13.53125 10.699219 L 13.476562 10.738281 L 13.476562 11.179688 C 13.476562 11.277344 13.578125 11.304688 13.769531 11.328125 C 14.457031 11.421875 14.441406 11.496094 15.121094 12.882812 C 15.222656 13.089844 15.523438 13.714844 15.523438 13.714844 L 17.074219 16.847656 C 17.074219 16.847656 17.410156 17.605469 17.527344 17.875 L 15.273438 22.488281 L 15.148438 22.457031 C 15.148438 22.457031 11.648438 14.878906 10.636719 12.34375 C 10.53125 12.082031 10.484375 11.886719 10.484375 11.769531 C 10.484375 11.511719 10.707031 11.375 11.160156 11.355469 L 11.6875 11.328125 C 11.828125 11.328125 11.898438 11.273438 11.898438 11.160156 L 11.898438 10.746094 L 11.847656 10.699219 C 11.847656 10.699219 7.660156 10.695312 6.792969 10.699219 L 6.75 10.746094 L 6.75 11.179688 C 6.75 11.257812 6.84375 11.308594 7.039062 11.332031 C 7.570312 11.359375 7.921875 11.449219 8.089844 11.59375 C 8.257812 11.738281 8.433594 12.109375 8.671875 12.6875 C 9.941406 15.824219 12.644531 21.425781 13.960938 24.613281 C 14.339844 25.480469 14.8125 25.617188 15.390625 24.585938 C 16.011719 23.398438 17.105469 21.105469 17.988281 19.230469 C 18 19.050781 18 19.402344 18.160156 19.292969 C 18.984375 21.15625 19.980469 23.402344 20.535156 24.574219 C 20.960938 25.480469 21.449219 25.566406 21.945312 24.597656 C 23.238281 21.640625 27.03125 12.746094 27.03125 12.746094 C 27.195312 12.308594 27.417969 11.972656 27.710938 11.730469 C 28.003906 11.488281 28.457031 11.351562 29.066406 11.324219 C 29.1875 11.324219 29.25 11.265625 29.25 11.152344 L 29.25 10.734375 L 29.207031 10.6875 L 24.554688 10.6875 L 24.496094 10.734375 L 24.496094 11.152344 C 24.496094 11.203125 24.515625 11.242188 24.558594 11.269531 C 24.601562 11.304688 24.644531 11.324219 24.695312 11.324219 L 25.082031 11.34375 C 25.558594 11.363281 25.691406 11.460938 25.875 11.625 C 26.058594 11.792969 26.082031 12.078125 25.9375 12.484375 L 21.824219 22.515625 L 21.664062 22.46875 L 19.046875 16.984375 C 19.046875 16.980469 19.109375 16.855469 19.109375 16.855469 L 21.246094 12.746094 C 21.496094 12.3125 21.738281 11.921875 21.859375 11.742188 C 22.082031 11.414062 22.207031 11.351562 22.816406 11.324219 C 22.941406 11.324219 23.003906 11.269531 23.003906 11.152344 L 23.003906 10.742188 L 22.957031 10.695312 C 22.957031 10.695312 22.304688 10.6875 21.503906 10.6875 Z M 21.503906 10.6875 "/>
</g>
</defs>
<g id="surface1">
<path style=" stroke:none;fill-rule:evenodd;fill:rgb(80%,80%,80%);fill-opacity:1;" d="M 8.40625 2.136719 L 27.59375 2.136719 C 31.054688 2.136719 33.863281 4.945312 33.863281 8.40625 L 33.863281 27.59375 C 33.863281 31.054688 31.054688 33.863281 27.59375 33.863281 L 8.40625 33.863281 C 4.945312 33.863281 2.136719 31.054688 2.136719 27.59375 L 2.136719 8.40625 C 2.136719 4.945312 4.945312 2.136719 8.40625 2.136719 Z M 8.40625 2.136719 "/>
<use xlink:href="#surface6"/>
</g>
</svg>
