<?xml version="1.0" encoding="UTF-8"?>
<svg xmlns="http://www.w3.org/2000/svg" xmlns:xlink="http://www.w3.org/1999/xlink" width="36pt" height="36pt" viewBox="0 0 36 36" version="1.1">
<g id="surface1">
<path style=" stroke:none;fill-rule:evenodd;fill:rgb(62.745098%,0%,18.431373%);fill-opacity:1;" d="M 8.40625 2.136719 L 27.59375 2.136719 C 31.054688 2.136719 33.863281 4.945312 33.863281 8.40625 L 33.863281 27.59375 C 33.863281 31.054688 31.054688 33.863281 27.59375 33.863281 L 8.40625 33.863281 C 4.945312 33.863281 2.136719 31.054688 2.136719 27.59375 L 2.136719 8.40625 C 2.136719 4.945312 4.945312 2.136719 8.40625 2.136719 Z M 8.40625 2.136719 "/>
<path style=" stroke:none;fill-rule:evenodd;fill:rgb(62.745098%,0%,18.431373%);fill-opacity:1;" d="M 10.921875 33.863281 L 18 18 L 2.136719 10.921875 L 2.136719 27.59375 C 2.136719 31.066406 4.933594 33.863281 8.40625 33.863281 Z M 10.921875 33.863281 "/>
<path style=" stroke:none;fill-rule:evenodd;fill:rgb(76.470588%,15.686275%,22.745098%);fill-opacity:1;" d="M 33.863281 25.078125 L 18 18 L 10.921875 33.863281 L 27.59375 33.863281 C 31.066406 33.863281 33.863281 31.066406 33.863281 27.59375 Z M 33.863281 25.078125 "/>
<path style=" stroke:none;fill-rule:evenodd;fill:rgb(62.745098%,0%,18.431373%);fill-opacity:1;" d="M 25.078125 2.136719 L 18 18 L 33.863281 25.078125 L 33.863281 8.40625 C 33.863281 4.933594 31.066406 2.136719 27.59375 2.136719 Z M 25.078125 2.136719 "/>
<path style=" stroke:none;fill-rule:evenodd;fill:rgb(76.470588%,15.686275%,22.745098%);fill-opacity:1;" d="M 2.136719 10.921875 L 18 18 L 25.078125 2.136719 L 8.40625 2.136719 C 4.933594 2.136719 2.136719 4.933594 2.136719 8.40625 Z M 2.136719 10.921875 "/>
<path style=" stroke:none;fill-rule:nonzero;fill:rgb(100%,100%,100%);fill-opacity:1;" d="M 13.871094 29.527344 C 13.921875 29.472656 14.082031 29.367188 14.230469 29.289062 C 14.488281 29.152344 14.53125 29.144531 15.128906 29.09375 C 15.894531 29.023438 16.496094 28.910156 16.769531 28.785156 C 17.175781 28.589844 17.417969 28.242188 17.546875 27.660156 C 17.605469 27.398438 17.621094 27.105469 17.632812 25.855469 C 17.648438 24.324219 17.59375 22.171875 17.527344 21.839844 C 17.457031 21.484375 17.398438 21.417969 16.777344 20.953125 C 16.101562 20.453125 15.292969 19.675781 14.933594 19.183594 C 14.28125 18.292969 13.917969 17.382812 13.734375 16.179688 C 13.683594 15.851562 13.664062 15.496094 13.664062 14.839844 C 13.664062 13.363281 13.800781 12.414062 14.433594 9.441406 C 14.664062 8.363281 14.730469 8.132812 14.859375 7.992188 L 14.9375 7.90625 L 21.046875 7.90625 L 21.128906 7.992188 C 21.246094 8.117188 21.304688 8.332031 21.570312 9.554688 C 22.296875 12.910156 22.464844 14.578125 22.246094 16.175781 C 21.964844 18.191406 21.027344 19.625 19.050781 21.074219 C 18.808594 21.25 18.589844 21.4375 18.558594 21.496094 C 18.457031 21.691406 18.417969 22.03125 18.378906 22.929688 C 18.328125 24.214844 18.324219 26.890625 18.378906 27.292969 C 18.492188 28.195312 18.75 28.605469 19.335938 28.835938 C 19.589844 28.933594 20.128906 29.027344 20.863281 29.09375 C 21.414062 29.144531 21.484375 29.160156 21.738281 29.285156 C 21.890625 29.359375 22.054688 29.464844 22.109375 29.519531 L 22.203125 29.621094 L 13.785156 29.621094 Z M 13.871094 29.527344 "/>
<path style=" stroke:none;fill-rule:nonzero;fill:rgb(73.333333%,0%,18.431373%);fill-opacity:1;" d="M 14.242188 15.390625 C 14.035156 21.25 21.320312 22.734375 21.863281 15.390625 C 20.175781 17.824219 16.082031 13.132812 14.242188 15.390625 Z M 14.242188 15.390625 "/>
</g>
</svg>
