<?xml version="1.0" encoding="UTF-8"?>
<svg xmlns="http://www.w3.org/2000/svg" xmlns:xlink="http://www.w3.org/1999/xlink" width="36pt" height="36pt" viewBox="0 0 36 36" version="1.1">
<g id="surface1">
<path style=" stroke:none;fill-rule:evenodd;fill:rgb(76.470588%,15.686275%,22.745098%);fill-opacity:1;" d="M 2.136719 15.410156 L 33.863281 15.410156 L 33.863281 8.40625 C 33.863281 4.933594 31.066406 2.136719 27.59375 2.136719 L 8.410156 2.136719 C 4.933594 2.136719 2.136719 4.933594 2.136719 8.40625 Z M 2.136719 15.410156 "/>
<path style=" stroke:none;fill-rule:evenodd;fill:rgb(62.745098%,0%,18.431373%);fill-opacity:1;" d="M 2.136719 15.410156 L 2.136719 27.589844 C 2.136719 31.066406 4.933594 33.863281 8.410156 33.863281 L 27.59375 33.863281 C 31.066406 33.863281 33.863281 31.066406 33.863281 27.589844 L 33.863281 15.410156 Z M 2.136719 15.410156 "/>
<path style=" stroke:none;fill-rule:nonzero;fill:rgb(70.196078%,70.196078%,70.196078%);fill-opacity:1;" d="M 13.5 22.414062 L 22.5 22.414062 C 23.121094 22.414062 23.625 22.917969 23.625 23.539062 L 23.625 24.664062 C 23.625 25.285156 23.121094 25.789062 22.5 25.789062 L 13.5 25.789062 C 12.878906 25.789062 12.375 25.285156 12.375 24.664062 L 12.375 23.539062 C 12.375 22.917969 12.878906 22.414062 13.5 22.414062 Z M 13.5 22.414062 "/>
</g>
</svg>
