<?xml version="1.0" encoding="UTF-8"?>
<svg xmlns="http://www.w3.org/2000/svg" xmlns:xlink="http://www.w3.org/1999/xlink" width="36pt" height="36pt" viewBox="0 0 36 36" version="1.1">
<g id="surface1">
<path style=" stroke:none;fill-rule:evenodd;fill:rgb(14.117647%,54.117647%,99.215686%);fill-opacity:1;" d="M 8.40625 2.136719 L 27.59375 2.136719 C 31.054688 2.136719 33.863281 4.945312 33.863281 8.40625 L 33.863281 27.59375 C 33.863281 31.054688 31.054688 33.863281 27.59375 33.863281 L 8.40625 33.863281 C 4.945312 33.863281 2.136719 31.054688 2.136719 27.59375 L 2.136719 8.40625 C 2.136719 4.945312 4.945312 2.136719 8.40625 2.136719 Z M 8.40625 2.136719 "/>
<path style=" stroke:none;fill-rule:nonzero;fill:rgb(100%,100%,100%);fill-opacity:1;" d="M 18 6.179688 C 11.480469 6.179688 6.179688 11.480469 6.179688 18 C 6.179688 24.519531 11.480469 29.820312 18 29.820312 C 24.519531 29.820312 29.820312 24.519531 29.820312 18 C 29.820312 11.480469 24.519531 6.179688 18 6.179688 Z M 18 7.085938 C 20.839844 7.085938 23.527344 8.371094 25.46875 10.148438 C 25.421875 10.144531 25.375 10.140625 25.328125 10.140625 C 24.253906 10.140625 22.902344 11.171875 22.902344 12.175781 C 22.925781 15.042969 25.324219 15.832031 25.367188 17.449219 C 25.367188 18.382812 25.007812 19.46875 24.539062 20.976562 L 23.449219 24.613281 L 19.503906 13.082031 C 20.160156 13.046875 20.558594 12.976562 20.558594 12.976562 C 21.144531 12.90625 21.074219 12.042969 20.488281 12.078125 C 20.488281 12.078125 18.914062 12.214844 17.773438 12.214844 C 16.703125 12.214844 14.507812 12.078125 14.507812 12.078125 C 13.917969 12.042969 13.847656 12.941406 14.4375 12.976562 C 14.4375 12.976562 15.390625 13.046875 15.976562 13.082031 L 17.675781 17.539062 L 15.289062 24.703125 L 11.3125 13.082031 C 11.972656 13.046875 12.660156 12.976562 12.660156 12.976562 C 13.25 12.90625 13.179688 12.042969 12.589844 12.078125 C 12.589844 12.078125 10.726562 12.214844 9.585938 12.214844 C 9.378906 12.214844 9.039062 12.210938 8.785156 12.203125 C 10.734375 9.242188 14.1875 7.085938 18 7.085938 Z M 27.574219 12.761719 C 28.429688 14.316406 28.914062 16.101562 28.914062 18 C 28.914062 22.027344 26.730469 25.539062 23.484375 27.433594 L 26.820312 17.796875 C 27.441406 16.238281 27.648438 14.992188 27.648438 13.886719 C 27.648438 13.484375 27.621094 13.109375 27.574219 12.761719 Z M 8.03125 13.558594 L 13.238281 27.820312 C 9.597656 26.050781 7.085938 22.320312 7.085938 18 C 7.085938 16.417969 7.425781 14.914062 8.03125 13.558594 Z M 18.191406 18.953125 L 21.546875 28.144531 C 21.570312 28.195312 21.59375 28.246094 21.625 28.292969 C 20.488281 28.691406 19.269531 28.914062 18 28.914062 C 16.929688 28.914062 15.894531 28.753906 14.917969 28.46875 Z M 18.191406 18.953125 "/>
</g>
</svg>
