<?xml version="1.0" encoding="UTF-8"?>
<svg xmlns="http://www.w3.org/2000/svg" xmlns:xlink="http://www.w3.org/1999/xlink" width="36pt" height="36pt" viewBox="0 0 36 36" version="1.1">
<g id="surface1">
<path style=" stroke:none;fill-rule:evenodd;fill:rgb(25.882353%,41.176471%,69.019608%);fill-opacity:1;" d="M 13.917969 11.980469 C 13 11.917969 12.699219 11.988281 12.699219 12.261719 C 12.699219 12.371094 12.625 12.597656 12.539062 12.769531 C 12.382812 13.066406 12.386719 13.078125 12.617188 13.117188 C 12.867188 13.152344 13.003906 13.207031 13.070312 13.375 C 13.136719 13.546875 13.128906 13.828125 13.089844 14.324219 C 13.050781 14.832031 12.996094 15.832031 12.964844 16.550781 C 12.9375 17.265625 12.886719 18.070312 12.855469 18.339844 C 12.824219 18.609375 12.75 19.683594 12.695312 20.726562 C 12.640625 21.769531 12.5625 22.832031 12.523438 23.085938 C 12.457031 23.535156 12.460938 23.546875 12.769531 23.546875 C 12.941406 23.546875 13.242188 23.59375 13.4375 23.648438 C 13.730469 23.734375 13.832031 23.714844 13.980469 23.558594 C 14.1875 23.335938 14.128906 23.421875 15.695312 21.160156 C 16.335938 20.234375 17.058594 19.199219 17.300781 18.859375 C 17.542969 18.519531 17.984375 17.898438 18.277344 17.476562 C 18.570312 17.058594 18.84375 16.710938 18.886719 16.710938 C 18.929688 16.710938 18.960938 18.410156 18.953125 20.484375 L 18.9375 24.25 L 19.480469 24.316406 C 19.777344 24.351562 20.101562 24.386719 20.199219 24.394531 C 20.3125 24.40625 20.679688 23.96875 21.230469 23.160156 C 21.699219 22.46875 22.195312 21.746094 22.335938 21.558594 C 22.625 21.160156 24.175781 18.9375 25.328125 17.261719 C 27.472656 14.144531 27.320312 14.328125 27.734375 14.328125 C 27.941406 14.328125 28.128906 14.265625 28.148438 14.191406 C 28.171875 14.117188 28.25 13.84375 28.328125 13.585938 C 28.4375 13.214844 28.441406 13.097656 28.335938 13.035156 C 28.1875 12.941406 24.632812 12.6875 24.515625 12.757812 C 24.433594 12.808594 24.089844 13.808594 24.089844 13.996094 C 24.089844 14.058594 24.320312 14.109375 24.632812 14.109375 C 24.929688 14.109375 25.175781 14.140625 25.175781 14.183594 C 25.175781 14.222656 24.996094 14.53125 24.78125 14.863281 C 24.566406 15.195312 23.832031 16.320312 23.15625 17.363281 C 22.480469 18.40625 21.875 19.324219 21.808594 19.398438 C 21.601562 19.644531 21.457031 19.550781 21.523438 19.214844 C 21.558594 19.035156 21.617188 18.390625 21.652344 17.777344 C 21.6875 17.160156 21.730469 16.390625 21.753906 16.0625 C 21.921875 13.421875 21.941406 12.617188 21.839844 12.554688 C 21.78125 12.515625 21.3125 12.453125 20.804688 12.414062 L 19.878906 12.34375 L 19.078125 13.578125 C 18.636719 14.257812 17.667969 15.777344 16.925781 16.953125 C 16.183594 18.128906 15.507812 19.089844 15.425781 19.09375 C 15.300781 19.097656 15.285156 18.914062 15.339844 18.097656 C 15.378906 17.542969 15.433594 16.433594 15.46875 15.628906 C 15.515625 14.492188 15.53125 13.953125 15.621094 13.695312 C 15.714844 13.4375 15.886719 13.457031 16.25 13.4375 L 16.867188 13.40625 L 17.0625 12.863281 C 17.167969 12.566406 17.253906 12.289062 17.253906 12.253906 C 17.253906 12.21875 16.683594 12.152344 15.980469 12.113281 C 15.28125 12.070312 14.351562 12.007812 13.917969 11.980469 Z M 13.917969 11.980469 "/>
<path style=" stroke:none;fill-rule:evenodd;fill:rgb(25.882353%,41.176471%,69.019608%);fill-opacity:1;" d="M 28.136719 33.753906 C 27.410156 33.664062 26.871094 33.597656 24.46875 33.3125 C 20.433594 32.832031 19.878906 32.765625 18.992188 32.65625 C 16.921875 32.402344 14.082031 32.070312 12.917969 31.949219 C 12.589844 31.917969 12.027344 31.847656 11.667969 31.796875 C 11.3125 31.746094 10.988281 31.734375 10.945312 31.773438 C 10.90625 31.8125 10.820312 32.210938 10.761719 32.65625 C 10.699219 33.105469 10.613281 33.628906 10.574219 33.824219 C 10.566406 33.863281 10.605469 33.835938 10.601562 33.863281 L 27.59375 33.863281 C 27.785156 33.863281 27.949219 33.769531 28.136719 33.753906 Z M 28.136719 33.753906 "/>
<path style=" stroke:none;fill-rule:evenodd;fill:rgb(25.882353%,41.176471%,69.019608%);fill-opacity:1;" d="M 33.617188 28.835938 C 33.359375 28.808594 33.144531 28.78125 32.875 28.753906 C 32.25 28.6875 31.371094 28.589844 30.925781 28.535156 C 30.476562 28.484375 29.597656 28.386719 28.972656 28.324219 C 28.34375 28.257812 27.171875 28.132812 26.367188 28.042969 C 25.5625 27.953125 24.222656 27.8125 23.386719 27.722656 C 20.929688 27.460938 20.800781 27.445312 20.402344 27.394531 C 20.191406 27.367188 19.730469 27.320312 19.371094 27.285156 C 19.011719 27.253906 18.304688 27.179688 17.796875 27.121094 C 17.289062 27.066406 16.386719 26.972656 15.792969 26.910156 C 15.195312 26.851562 14.464844 26.777344 14.164062 26.742188 C 12.390625 26.550781 11.820312 26.523438 11.734375 26.632812 C 11.683594 26.695312 11.613281 27.015625 11.578125 27.34375 C 11.542969 27.671875 11.472656 28.164062 11.421875 28.441406 L 11.328125 28.941406 L 11.933594 29.011719 C 12.265625 29.050781 13.050781 29.152344 13.675781 29.242188 C 14.300781 29.332031 15.230469 29.457031 15.738281 29.515625 C 16.242188 29.578125 17.050781 29.675781 17.527344 29.734375 C 18.003906 29.792969 18.808594 29.882812 19.316406 29.941406 C 19.824219 29.996094 21.238281 30.167969 22.460938 30.320312 C 23.6875 30.476562 25.492188 30.699219 26.476562 30.820312 C 29.726562 31.210938 30.101562 31.257812 30.871094 31.359375 C 31.207031 31.402344 31.832031 31.476562 32.367188 31.535156 C 33.003906 30.765625 33.40625 29.851562 33.617188 28.835938 Z M 33.617188 28.835938 "/>
<path style=" stroke:none;fill-rule:evenodd;fill:rgb(25.882353%,41.176471%,69.019608%);fill-opacity:1;" d="M 33.863281 23.691406 C 33.757812 23.679688 33.652344 23.667969 33.527344 23.652344 C 28.78125 23.179688 28.851562 23.183594 28.753906 23.546875 C 28.714844 23.695312 28.648438 24.214844 28.609375 24.695312 L 28.535156 25.574219 L 29.324219 25.648438 C 29.753906 25.6875 30.28125 25.742188 30.488281 25.765625 C 30.699219 25.789062 31.382812 25.863281 32.007812 25.933594 C 32.632812 26 33.414062 26.09375 33.742188 26.144531 C 33.777344 26.148438 33.828125 26.148438 33.863281 26.152344 Z M 33.863281 23.691406 "/>
<path style=" stroke:none;fill-rule:evenodd;fill:rgb(25.882353%,41.176471%,69.019608%);fill-opacity:1;" d="M 33.863281 18.523438 C 33.574219 18.5 33.289062 18.476562 32.984375 18.449219 C 30.863281 18.257812 29.46875 18.160156 29.394531 18.191406 C 29.304688 18.234375 29.03125 20.390625 29.105469 20.464844 C 29.140625 20.5 29.648438 20.574219 30.238281 20.628906 C 30.824219 20.683594 31.839844 20.777344 32.496094 20.84375 C 32.910156 20.882812 33.402344 20.925781 33.863281 20.96875 Z M 33.863281 18.523438 "/>
<path style=" stroke:none;fill-rule:evenodd;fill:rgb(25.882353%,41.176471%,69.019608%);fill-opacity:1;" d="M 33.863281 13.367188 C 33.246094 13.328125 32.601562 13.285156 32.039062 13.25 C 31.074219 13.1875 30.246094 13.128906 30.195312 13.121094 C 29.914062 13.074219 29.851562 13.1875 29.789062 13.863281 C 29.75 14.265625 29.695312 14.773438 29.664062 14.988281 C 29.628906 15.234375 29.617188 15.359375 29.792969 15.433594 C 29.972656 15.507812 30.335938 15.53125 31.050781 15.574219 C 31.667969 15.609375 32.527344 15.683594 32.964844 15.742188 C 33.222656 15.773438 33.550781 15.785156 33.863281 15.804688 Z M 33.863281 13.367188 "/>
<path style=" stroke:none;fill-rule:evenodd;fill:rgb(94.901961%,96.862745%,98.039216%);fill-opacity:1;" d="M 33.863281 9.234375 L 10.050781 7.667969 L 5.675781 33.183594 C 6.507812 33.589844 7.414062 33.863281 8.410156 33.863281 L 10.601562 33.863281 C 10.605469 33.835938 10.566406 33.863281 10.574219 33.824219 C 10.613281 33.628906 10.699219 33.105469 10.761719 32.65625 C 10.820312 32.210938 10.90625 31.8125 10.945312 31.773438 C 10.988281 31.734375 11.3125 31.746094 11.667969 31.796875 C 12.027344 31.847656 12.589844 31.917969 12.917969 31.949219 C 14.082031 32.070312 16.921875 32.402344 18.992188 32.65625 C 19.878906 32.765625 20.433594 32.832031 24.46875 33.3125 C 26.871094 33.597656 27.410156 33.664062 28.136719 33.753906 C 29.855469 33.601562 31.332031 32.789062 32.367188 31.535156 C 31.832031 31.476562 31.207031 31.402344 30.871094 31.359375 C 30.101562 31.257812 29.726562 31.210938 26.476562 30.820312 C 25.492188 30.699219 23.6875 30.476562 22.460938 30.320312 C 21.238281 30.167969 19.824219 29.996094 19.316406 29.941406 C 18.808594 29.882812 18.003906 29.792969 17.527344 29.734375 C 17.050781 29.675781 16.242188 29.578125 15.738281 29.515625 C 15.230469 29.457031 14.300781 29.332031 13.675781 29.242188 C 13.050781 29.152344 12.265625 29.050781 11.933594 29.011719 L 11.328125 28.941406 L 11.421875 28.441406 C 11.472656 28.164062 11.542969 27.671875 11.578125 27.34375 C 11.613281 27.015625 11.683594 26.695312 11.734375 26.632812 C 11.820312 26.523438 12.390625 26.550781 14.164062 26.742188 C 14.464844 26.777344 15.195312 26.851562 15.792969 26.910156 C 16.386719 26.972656 17.289062 27.066406 17.796875 27.121094 C 18.304688 27.179688 19.011719 27.253906 19.371094 27.285156 C 19.730469 27.320312 20.191406 27.367188 20.402344 27.394531 C 20.800781 27.445312 20.929688 27.460938 23.386719 27.722656 C 24.222656 27.8125 25.5625 27.953125 26.367188 28.042969 C 27.171875 28.132812 28.34375 28.257812 28.972656 28.324219 C 29.597656 28.386719 30.476562 28.484375 30.925781 28.535156 C 31.371094 28.589844 32.25 28.6875 32.875 28.753906 C 33.144531 28.78125 33.359375 28.808594 33.617188 28.835938 C 33.703125 28.421875 33.863281 28.035156 33.863281 27.59375 L 33.863281 26.152344 C 33.828125 26.148438 33.777344 26.148438 33.742188 26.144531 C 33.414062 26.09375 32.632812 26 32.007812 25.933594 C 31.382812 25.863281 30.699219 25.789062 30.488281 25.765625 C 30.28125 25.742188 29.753906 25.6875 29.324219 25.648438 L 28.535156 25.574219 L 28.609375 24.695312 C 28.648438 24.214844 28.714844 23.695312 28.753906 23.546875 C 28.851562 23.183594 28.78125 23.179688 33.527344 23.652344 C 33.652344 23.667969 33.757812 23.679688 33.863281 23.691406 L 33.863281 20.96875 C 33.402344 20.925781 32.910156 20.882812 32.496094 20.84375 C 31.839844 20.777344 30.824219 20.683594 30.238281 20.628906 C 29.648438 20.574219 29.140625 20.5 29.105469 20.464844 C 29.03125 20.390625 29.304688 18.234375 29.394531 18.191406 C 29.46875 18.160156 30.863281 18.257812 32.984375 18.449219 C 33.289062 18.476562 33.574219 18.5 33.863281 18.523438 L 33.863281 15.804688 C 33.550781 15.785156 33.222656 15.773438 32.964844 15.742188 C 32.527344 15.683594 31.667969 15.609375 31.050781 15.574219 C 30.335938 15.53125 29.972656 15.507812 29.792969 15.433594 C 29.617188 15.359375 29.628906 15.234375 29.664062 14.988281 C 29.695312 14.773438 29.75 14.265625 29.789062 13.863281 C 29.851562 13.1875 29.914062 13.074219 30.195312 13.121094 C 30.246094 13.128906 31.074219 13.1875 32.039062 13.25 C 32.601562 13.285156 33.246094 13.328125 33.863281 13.367188 Z M 13.917969 11.980469 C 14.351562 12.007812 15.28125 12.070312 15.980469 12.109375 C 16.683594 12.152344 17.253906 12.21875 17.253906 12.253906 C 17.253906 12.289062 17.167969 12.566406 17.0625 12.863281 L 16.867188 13.40625 L 16.25 13.4375 C 15.886719 13.457031 15.714844 13.4375 15.621094 13.695312 C 15.53125 13.953125 15.515625 14.492188 15.46875 15.628906 C 15.433594 16.433594 15.378906 17.542969 15.339844 18.097656 C 15.285156 18.914062 15.300781 19.097656 15.425781 19.09375 C 15.507812 19.089844 16.183594 18.128906 16.925781 16.953125 C 17.667969 15.777344 18.636719 14.257812 19.078125 13.578125 L 19.878906 12.34375 L 20.804688 12.414062 C 21.3125 12.453125 21.78125 12.515625 21.839844 12.554688 C 21.941406 12.617188 21.921875 13.421875 21.753906 16.0625 C 21.730469 16.390625 21.6875 17.160156 21.652344 17.777344 C 21.617188 18.390625 21.558594 19.035156 21.523438 19.210938 C 21.457031 19.550781 21.601562 19.644531 21.808594 19.398438 C 21.875 19.324219 22.480469 18.40625 23.15625 17.363281 C 23.835938 16.320312 24.566406 15.195312 24.78125 14.863281 C 24.996094 14.53125 25.175781 14.222656 25.175781 14.183594 C 25.175781 14.140625 24.929688 14.109375 24.632812 14.109375 C 24.320312 14.109375 24.089844 14.058594 24.089844 13.996094 C 24.089844 13.808594 24.433594 12.808594 24.515625 12.757812 C 24.632812 12.6875 28.1875 12.941406 28.335938 13.035156 C 28.441406 13.097656 28.4375 13.214844 28.328125 13.585938 C 28.25 13.84375 28.171875 14.117188 28.148438 14.191406 C 28.128906 14.265625 27.941406 14.324219 27.734375 14.324219 C 27.320312 14.324219 27.472656 14.144531 25.328125 17.261719 C 24.175781 18.9375 22.625 21.160156 22.335938 21.558594 C 22.195312 21.746094 21.699219 22.46875 21.230469 23.160156 C 20.679688 23.96875 20.3125 24.40625 20.199219 24.394531 C 20.101562 24.386719 19.777344 24.351562 19.480469 24.316406 L 18.9375 24.25 L 18.953125 20.484375 C 18.960938 18.410156 18.929688 16.710938 18.886719 16.710938 C 18.84375 16.710938 18.570312 17.058594 18.277344 17.476562 C 17.984375 17.898438 17.542969 18.519531 17.300781 18.859375 C 17.058594 19.199219 16.335938 20.234375 15.695312 21.160156 C 14.128906 23.421875 14.1875 23.335938 13.980469 23.558594 C 13.832031 23.714844 13.730469 23.734375 13.4375 23.648438 C 13.242188 23.59375 12.941406 23.546875 12.769531 23.546875 C 12.460938 23.546875 12.457031 23.535156 12.523438 23.085938 C 12.5625 22.832031 12.640625 21.769531 12.695312 20.726562 C 12.75 19.683594 12.824219 18.609375 12.855469 18.339844 C 12.886719 18.070312 12.9375 17.265625 12.964844 16.550781 C 12.996094 15.832031 13.050781 14.832031 13.089844 14.324219 C 13.128906 13.828125 13.136719 13.546875 13.070312 13.375 C 13.003906 13.207031 12.867188 13.152344 12.617188 13.117188 C 12.386719 13.078125 12.382812 13.066406 12.539062 12.769531 C 12.625 12.597656 12.699219 12.371094 12.699219 12.261719 C 12.699219 11.988281 13 11.917969 13.917969 11.980469 Z M 13.917969 11.980469 "/>
<path style=" stroke:none;fill-rule:evenodd;fill:rgb(25.882353%,41.176471%,69.019608%);fill-opacity:1;" d="M 8.410156 2.136719 C 4.933594 2.136719 2.136719 4.933594 2.136719 8.410156 L 2.136719 27.59375 C 2.136719 30.074219 3.59375 32.164062 5.675781 33.183594 L 10.050781 7.667969 L 33.863281 9.234375 L 33.863281 8.410156 C 33.863281 4.933594 31.066406 2.136719 27.59375 2.136719 Z M 8.410156 2.136719 "/>
</g>
</svg>
