<?xml version="1.0" encoding="UTF-8"?>
<svg xmlns="http://www.w3.org/2000/svg" xmlns:xlink="http://www.w3.org/1999/xlink" width="36pt" height="36pt" viewBox="0 0 36 36" version="1.1">
<defs>
<filter id="alpha" filterUnits="objectBoundingBox" x="0%" y="0%" width="100%" height="100%">
  <feColorMatrix type="matrix" in="SourceGraphic" values="0 0 0 0 1 0 0 0 0 1 0 0 0 0 1 0 0 0 1 0"/>
</filter>
<mask id="mask0">
  <g filter="url(#alpha)">
<rect x="0" y="0" width="36" height="36" style="fill:rgb(0%,0%,0%);fill-opacity:0.988235;stroke:none;"/>
  </g>
</mask>
<clipPath id="clip1">
  <rect width="36" height="36"/>
</clipPath>
<g id="surface6" clip-path="url(#clip1)">
<path style="fill:none;stroke-width:3;stroke-linecap:round;stroke-linejoin:round;stroke:rgb(100%,100%,100%);stroke-opacity:1;stroke-miterlimit:4;" d="M 7 9.010417 L 11 23.010417 L 16 13.010417 L 21 23.010417 L 25 9.010417 " transform="matrix(1.125,0,0,1.125,0,0)"/>
</g>
<clipPath id="clip2">
  <rect width="36" height="36"/>
</clipPath>
<g id="surface9" clip-path="url(#clip2)">
<path style=" stroke:none;fill-rule:evenodd;fill:rgb(75.294118%,21.176471%,18.823529%);fill-opacity:1;" d="M 31.554688 25.300781 C 31.554688 29.027344 28.535156 32.050781 24.804688 32.050781 C 21.078125 32.050781 18.054688 29.027344 18.054688 25.300781 C 18.054688 21.574219 21.078125 18.550781 24.804688 18.550781 C 28.535156 18.550781 31.554688 21.574219 31.554688 25.300781 Z M 31.554688 25.300781 "/>
</g>
</defs>
<g id="surface1">
<path style=" stroke:none;fill-rule:evenodd;fill:rgb(21.568627%,62.745098%,94.901961%);fill-opacity:1;" d="M 8.40625 2.136719 L 27.59375 2.136719 C 31.054688 2.136719 33.863281 4.945312 33.863281 8.40625 L 33.863281 27.59375 C 33.863281 31.054688 31.054688 33.863281 27.59375 33.863281 L 8.40625 33.863281 C 4.945312 33.863281 2.136719 31.054688 2.136719 27.59375 L 2.136719 8.40625 C 2.136719 4.945312 4.945312 2.136719 8.40625 2.136719 Z M 8.40625 2.136719 "/>
<use xlink:href="#surface6" mask="url(#mask0)"/>
<use xlink:href="#surface9"/>
<path style=" stroke:none;fill-rule:evenodd;fill:rgb(100%,100%,100%);fill-opacity:1;" d="M 24.804688 22.558594 C 23.988281 22.566406 23.164062 22.753906 22.453125 23.15625 C 22.167969 23.34375 21.828125 23.582031 21.570312 23.820312 C 21.167969 24.21875 20.820312 24.679688 20.585938 25.195312 C 21.226562 26.609375 22.636719 27.644531 24.1875 27.796875 C 25.203125 27.914062 26.265625 27.738281 27.160156 27.234375 C 27.441406 27.050781 27.785156 26.8125 28.039062 26.570312 C 28.445312 26.171875 28.789062 25.710938 29.023438 25.195312 C 28.382812 23.78125 26.976562 22.746094 25.425781 22.59375 C 25.21875 22.570312 25.011719 22.558594 24.804688 22.558594 Z M 24.804688 23.613281 C 25.652344 23.59375 26.402344 24.351562 26.386719 25.195312 C 26.414062 26.128906 25.488281 26.929688 24.570312 26.757812 C 23.640625 26.648438 22.992188 25.609375 23.296875 24.726562 C 23.492188 24.078125 24.128906 23.605469 24.804688 23.613281 Z M 24.804688 24.667969 C 24.664062 24.667969 24.53125 24.722656 24.433594 24.824219 C 24.332031 24.921875 24.277344 25.054688 24.277344 25.195312 C 24.277344 25.488281 24.515625 25.722656 24.804688 25.722656 C 25.097656 25.722656 25.332031 25.488281 25.332031 25.195312 C 25.332031 24.90625 25.097656 24.671875 24.804688 24.671875 Z M 24.804688 24.667969 "/>
</g>
</svg>
