<?xml version="1.0" encoding="UTF-8"?>
<svg xmlns="http://www.w3.org/2000/svg" xmlns:xlink="http://www.w3.org/1999/xlink" width="36pt" height="36pt" viewBox="0 0 36 36" version="1.1">
<g id="surface1">
<path style=" stroke:none;fill-rule:evenodd;fill:rgb(92.54902%,92.54902%,92.54902%);fill-opacity:1;" d="M 16.933594 33.863281 L 16.933594 22.070312 C 16.933594 21.757812 16.679688 21.507812 16.371094 21.507812 L 2.136719 21.507812 L 2.136719 27.589844 C 2.136719 31.066406 4.933594 33.863281 8.40625 33.863281 Z M 16.933594 33.863281 "/>
<path style=" stroke:none;fill-rule:evenodd;fill:rgb(29.019608%,70.196078%,89.411765%);fill-opacity:1;" d="M 8.40625 2.136719 C 4.933594 2.136719 2.136719 4.933594 2.136719 8.40625 L 2.136719 21.507812 L 16.371094 21.507812 C 16.679688 21.507812 16.933594 21.757812 16.933594 22.070312 L 16.933594 33.863281 L 27.59375 33.863281 C 31.066406 33.863281 33.863281 31.066406 33.863281 27.589844 L 33.863281 8.40625 C 33.863281 4.933594 31.066406 2.136719 27.59375 2.136719 Z M 8.40625 2.136719 "/>
</g>
</svg>
