<?xml version="1.0" encoding="UTF-8"?>
<svg xmlns="http://www.w3.org/2000/svg" xmlns:xlink="http://www.w3.org/1999/xlink" width="36pt" height="36pt" viewBox="0 0 36 36" version="1.1">
<g id="surface1">
<path style=" stroke:none;fill-rule:evenodd;fill:rgb(97.254902%,49.411765%,23.529412%);fill-opacity:1;" d="M 8.40625 2.136719 L 27.59375 2.136719 C 31.054688 2.136719 33.863281 4.945312 33.863281 8.40625 L 33.863281 27.59375 C 33.863281 31.054688 31.054688 33.863281 27.59375 33.863281 L 8.40625 33.863281 C 4.945312 33.863281 2.136719 31.054688 2.136719 27.59375 L 2.136719 8.40625 C 2.136719 4.945312 4.945312 2.136719 8.40625 2.136719 Z M 8.40625 2.136719 "/>
<path style=" stroke:none;fill-rule:nonzero;fill:rgb(100%,100%,100%);fill-opacity:1;" d="M 9.03125 6.75 C 8.21875 6.738281 7.464844 7.164062 7.058594 7.867188 C 6.648438 8.566406 6.648438 9.433594 7.058594 10.132812 C 7.464844 10.835938 8.21875 11.261719 9.03125 11.25 L 21.609375 11.25 C 21.609375 11.25 22.582031 11.28125 23.4375 11.636719 C 24.292969 11.996094 24.75 12.144531 24.75 13.492188 C 24.75 14.835938 24.292969 14.988281 23.4375 15.34375 C 22.582031 15.703125 21.609375 15.734375 21.609375 15.734375 L 9.03125 15.734375 C 7.789062 15.734375 6.78125 16.742188 6.78125 17.984375 L 6.78125 26.96875 C 6.769531 27.78125 7.195312 28.535156 7.898438 28.941406 C 8.597656 29.351562 9.464844 29.351562 10.167969 28.941406 C 10.867188 28.535156 11.292969 27.78125 11.28125 26.96875 L 11.28125 20.234375 L 21.609375 20.234375 C 21.609375 20.234375 23.332031 20.265625 25.171875 19.5 C 27.007812 18.734375 29.25 16.636719 29.25 13.492188 C 29.25 10.34375 27.007812 8.25 25.171875 7.484375 C 23.332031 6.71875 21.609375 6.75 21.609375 6.75 Z M 9.03125 6.75 "/>
</g>
</svg>
