<?xml version="1.0" encoding="UTF-8"?>
<svg xmlns="http://www.w3.org/2000/svg" xmlns:xlink="http://www.w3.org/1999/xlink" width="36pt" height="36pt" viewBox="0 0 36 36" version="1.1">
<g id="surface1">
<path style=" stroke:none;fill-rule:evenodd;fill:rgb(55.686275%,55.686275%,55.686275%);fill-opacity:1;" d="M 8.40625 2.136719 L 27.59375 2.136719 C 31.054688 2.136719 33.863281 4.945312 33.863281 8.40625 L 33.863281 27.59375 C 33.863281 31.054688 31.054688 33.863281 27.59375 33.863281 L 8.40625 33.863281 C 4.945312 33.863281 2.136719 31.054688 2.136719 27.59375 L 2.136719 8.40625 C 2.136719 4.945312 4.945312 2.136719 8.40625 2.136719 Z M 8.40625 2.136719 "/>
<path style=" stroke:none;fill-rule:nonzero;fill:rgb(30.980392%,30.980392%,30.980392%);fill-opacity:1;" d="M 18.046875 8.988281 C 13.292969 8.988281 9.011719 10.679688 5.460938 13.300781 L 18.046875 27.011719 L 30.539062 13.25 C 27 10.660156 22.769531 8.988281 18.046875 8.988281 Z M 18.046875 8.988281 "/>
<path style=" stroke:none;fill-rule:nonzero;fill:rgb(47.45098%,47.45098%,47.45098%);fill-opacity:1;" d="M 18 12.589844 C 14.210938 12.589844 10.695312 13.832031 7.871094 15.929688 L 18.054688 27.011719 L 28.128906 15.929688 C 25.304688 13.832031 21.789062 12.589844 18 12.589844 Z M 18 12.589844 "/>
<path style=" stroke:none;fill-rule:nonzero;fill:rgb(80%,80%,80%);fill-opacity:1;" d="M 18 16.195312 C 15.160156 16.195312 12.523438 17.125 10.40625 18.699219 L 18.039062 27.011719 L 25.59375 18.699219 C 23.476562 17.125 20.839844 16.195312 18 16.195312 Z M 18 16.195312 "/>
<path style=" stroke:none;fill-rule:nonzero;fill:rgb(33.333333%,39.607843%,80%);fill-opacity:1;" d="M 31.199219 23.910156 C 31.199219 27.859375 27.996094 31.0625 24.042969 31.0625 C 20.09375 31.0625 16.890625 27.859375 16.890625 23.910156 C 16.890625 19.960938 20.09375 16.757812 24.042969 16.757812 C 27.996094 16.757812 31.199219 19.960938 31.199219 23.910156 Z M 31.199219 23.910156 "/>
<path style=" stroke:none;fill-rule:nonzero;fill:rgb(100%,100%,100%);fill-opacity:1;" d="M 22.257812 20.335938 C 20.28125 20.335938 18.679688 21.933594 18.679688 23.910156 C 18.679688 25.886719 20.28125 27.488281 22.257812 27.488281 C 24.230469 27.488281 25.832031 25.886719 25.832031 23.910156 C 25.832031 21.933594 24.230469 20.335938 22.257812 20.335938 Z M 22.257812 22.121094 C 23.246094 22.121094 24.042969 22.921875 24.042969 23.910156 C 24.042969 24.898438 23.246094 25.699219 22.257812 25.699219 C 21.269531 25.699219 20.46875 24.898438 20.46875 23.910156 C 20.46875 22.921875 21.269531 22.121094 22.257812 22.121094 Z M 22.257812 22.121094 "/>
<path style=" stroke:none;fill-rule:nonzero;fill:rgb(100%,100%,100%);fill-opacity:1;" d="M 24.9375 23.015625 L 30.304688 23.015625 L 30.304688 24.804688 L 24.9375 24.804688 Z M 24.9375 23.015625 "/>
<path style=" stroke:none;fill-rule:nonzero;fill:rgb(100%,100%,100%);fill-opacity:1;" d="M 29.410156 24.804688 L 29.410156 26.59375 L 28.515625 26.59375 L 28.515625 24.804688 Z M 29.410156 24.804688 "/>
</g>
</svg>
