<?xml version="1.0" encoding="UTF-8"?>
<svg xmlns="http://www.w3.org/2000/svg" xmlns:xlink="http://www.w3.org/1999/xlink" width="36pt" height="36pt" viewBox="0 0 36 36" version="1.1">
<g id="surface1">
<path style=" stroke:none;fill-rule:evenodd;fill:rgb(90.196078%,90.196078%,90.196078%);fill-opacity:1;" d="M 8.40625 2.136719 L 27.59375 2.136719 C 31.054688 2.136719 33.863281 4.945312 33.863281 8.40625 L 33.863281 27.59375 C 33.863281 31.054688 31.054688 33.863281 27.59375 33.863281 L 8.40625 33.863281 C 4.945312 33.863281 2.136719 31.054688 2.136719 27.59375 L 2.136719 8.40625 C 2.136719 4.945312 4.945312 2.136719 8.40625 2.136719 Z M 8.40625 2.136719 "/>
<path style=" stroke:none;fill-rule:nonzero;fill:rgb(90.980392%,25.882353%,15.686275%);fill-opacity:1;" d="M 8.390625 2.25 L 8.390625 33.75 L 18 28.273438 L 27.609375 33.75 L 27.609375 2.25 Z M 18 12.339844 L 19.6875 16.277344 L 23.625 16.839844 L 20.8125 19.652344 L 21.375 23.589844 L 18 21.902344 L 14.625 23.589844 L 15.1875 19.652344 L 12.375 16.839844 L 16.3125 16.277344 Z M 18 12.339844 "/>
</g>
</svg>
