<?xml version="1.0" encoding="UTF-8"?>
<svg xmlns="http://www.w3.org/2000/svg" xmlns:xlink="http://www.w3.org/1999/xlink" width="36pt" height="36pt" viewBox="0 0 36 36" version="1.1">
<g id="surface1">
<path style=" stroke:none;fill-rule:evenodd;fill:rgb(98.431373%,47.843137%,14.117647%);fill-opacity:1;" d="M 8.40625 2.136719 L 27.59375 2.136719 C 31.054688 2.136719 33.863281 4.945312 33.863281 8.40625 L 33.863281 27.59375 C 33.863281 31.054688 31.054688 33.863281 27.59375 33.863281 L 8.40625 33.863281 C 4.945312 33.863281 2.136719 31.054688 2.136719 27.59375 L 2.136719 8.40625 C 2.136719 4.945312 4.945312 2.136719 8.40625 2.136719 Z M 8.40625 2.136719 "/>
<path style=" stroke:none;fill-rule:nonzero;fill:rgb(100%,100%,100%);fill-opacity:1;" d="M 12.375 6.75 C 9.269531 6.75 6.75 9.269531 6.75 12.375 C 6.75 15.480469 9.269531 18 12.375 18 C 9.269531 18 6.75 20.519531 6.75 23.625 C 6.75 26.730469 9.269531 29.25 12.375 29.25 C 15.480469 29.25 18 26.730469 18 23.625 C 17.996094 23.496094 17.992188 23.367188 17.980469 23.242188 C 17.988281 23.242188 17.992188 23.242188 18 23.242188 C 18.003906 23.242188 18.007812 23.242188 18.011719 23.242188 C 18.003906 23.371094 18 23.496094 18 23.625 C 18 26.730469 20.519531 29.25 23.625 29.25 C 26.730469 29.25 29.25 26.730469 29.25 23.625 C 29.25 20.519531 26.730469 18 23.625 18 C 23.617188 18 23.613281 18 23.605469 18.003906 C 23.605469 18 23.605469 18 23.605469 18 C 23.613281 18 23.617188 18 23.625 18 C 26.730469 18 29.25 15.480469 29.25 12.375 C 29.25 9.269531 26.730469 6.75 23.625 6.75 C 20.667969 6.75 18.214844 9.042969 18.011719 11.992188 C 18.007812 11.992188 18.003906 11.992188 18 11.992188 C 17.992188 11.992188 17.988281 11.992188 17.980469 11.992188 C 17.777344 9.042969 15.332031 6.753906 12.375 6.75 Z M 23.613281 10.097656 C 24.378906 10.089844 25.097656 10.472656 25.515625 11.109375 C 25.9375 11.75 26.003906 12.5625 25.691406 13.261719 C 25.035156 14.796875 24.464844 16.359375 23.324219 17.773438 C 22.191406 19.1875 20.242188 20.25 18 20.25 C 16.65625 20.25 16.667969 20.308594 16.304688 20.738281 C 15.941406 21.164062 15.34375 22.453125 14.4375 24.527344 C 14.128906 25.285156 13.433594 25.816406 12.621094 25.914062 C 11.808594 26.011719 11.007812 25.664062 10.527344 25 C 10.046875 24.335938 9.964844 23.464844 10.3125 22.722656 C 11.195312 20.710938 11.71875 19.1875 12.875 17.824219 C 14.035156 16.460938 15.96875 15.75 18 15.75 C 19.132812 15.75 19.324219 15.570312 19.820312 14.953125 C 20.316406 14.335938 20.871094 13.085938 21.558594 11.488281 C 21.902344 10.65625 22.710938 10.105469 23.613281 10.097656 Z M 12.375 10.125 C 13.617188 10.125 14.625 11.132812 14.625 12.375 C 14.625 13.617188 13.617188 14.625 12.375 14.625 C 11.132812 14.625 10.125 13.617188 10.125 12.375 C 10.125 11.132812 11.132812 10.125 12.375 10.125 Z M 23.625 21.375 C 24.867188 21.375 25.875 22.382812 25.875 23.625 C 25.875 24.867188 24.867188 25.875 23.625 25.875 C 22.382812 25.875 21.375 24.867188 21.375 23.625 C 21.375 22.382812 22.382812 21.375 23.625 21.375 Z M 23.625 21.375 "/>
</g>
</svg>
