<?xml version="1.0" encoding="UTF-8"?>
<svg xmlns="http://www.w3.org/2000/svg" xmlns:xlink="http://www.w3.org/1999/xlink" width="36pt" height="36pt" viewBox="0 0 36 36" version="1.1">
<defs>
<filter id="alpha" filterUnits="objectBoundingBox" x="0%" y="0%" width="100%" height="100%">
  <feColorMatrix type="matrix" in="SourceGraphic" values="0 0 0 0 1 0 0 0 0 1 0 0 0 0 1 0 0 0 1 0"/>
</filter>
<mask id="mask0">
  <g filter="url(#alpha)">
<rect x="0" y="0" width="36" height="36" style="fill:rgb(0%,0%,0%);fill-opacity:0.101961;stroke:none;"/>
  </g>
</mask>
<clipPath id="clip1">
  <rect width="36" height="36"/>
</clipPath>
<g id="surface6" clip-path="url(#clip1)">
<path style=" stroke:none;fill-rule:nonzero;fill:rgb(100%,100%,100%);fill-opacity:1;" d="M 21.785156 14.613281 C 22.488281 14.613281 23.054688 15.179688 23.054688 15.882812 L 23.054688 16.730469 C 23.054688 16.027344 22.488281 15.460938 21.785156 15.460938 L 6.964844 15.460938 L 6.117188 14.613281 Z M 21.785156 14.613281 "/>
</g>
</defs>
<g id="surface1">
<path style=" stroke:none;fill-rule:evenodd;fill:rgb(99.607843%,59.215686%,0%);fill-opacity:1;" d="M 8.40625 2.136719 L 27.59375 2.136719 C 31.054688 2.136719 33.863281 4.945312 33.863281 8.40625 L 33.863281 27.59375 C 33.863281 31.054688 31.054688 33.863281 27.59375 33.863281 L 8.40625 33.863281 C 4.945312 33.863281 2.136719 31.054688 2.136719 27.59375 L 2.136719 8.40625 C 2.136719 4.945312 4.945312 2.136719 8.40625 2.136719 Z M 8.40625 2.136719 "/>
<path style=" stroke:none;fill-rule:nonzero;fill:rgb(99.607843%,91.764706%,22.745098%);fill-opacity:1;" d="M 14.214844 6.992188 C 13.511719 6.992188 12.945312 7.558594 12.945312 8.261719 L 12.945312 20.117188 C 12.945312 20.820312 13.511719 21.386719 14.214844 21.386719 L 26.070312 21.386719 C 26.777344 21.386719 27.34375 20.820312 27.34375 20.117188 L 27.34375 9.53125 L 29.882812 6.992188 Z M 14.214844 6.992188 "/>
<path style=" stroke:none;fill-rule:nonzero;fill:rgb(100%,100%,100%);fill-opacity:1;" d="M 6.171875 14.613281 L 8.710938 17.152344 L 8.710938 27.738281 C 8.710938 28.441406 9.277344 29.007812 9.980469 29.007812 L 21.835938 29.007812 C 22.542969 29.007812 23.109375 28.441406 23.109375 27.738281 L 23.109375 15.882812 C 23.109375 15.179688 22.542969 14.613281 21.835938 14.613281 Z M 6.171875 14.613281 "/>
<use xlink:href="#surface6" mask="url(#mask0)"/>
<path style=" stroke:none;fill-rule:evenodd;fill:rgb(99.607843%,59.215686%,0%);fill-opacity:1;" d="M 14.191406 17.152344 L 13.742188 19.695312 L 11.25 19.695312 L 11.25 20.539062 L 13.59375 20.539062 L 13.144531 23.082031 L 11.25 23.082031 L 11.25 23.929688 L 12.996094 23.929688 L 12.546875 26.46875 L 13.394531 26.46875 L 13.839844 23.929688 L 15.957031 23.929688 L 15.511719 26.46875 L 16.359375 26.46875 L 16.804688 23.929688 L 19.71875 23.929688 L 19.71875 23.082031 L 16.953125 23.082031 L 17.40625 20.539062 L 19.71875 20.539062 L 19.71875 19.695312 L 17.554688 19.695312 L 18 17.152344 L 17.15625 17.152344 L 16.707031 19.695312 L 14.589844 19.695312 L 15.039062 17.152344 Z M 14.441406 20.539062 L 16.558594 20.539062 L 16.109375 23.082031 L 13.992188 23.082031 Z M 14.441406 20.539062 "/>
</g>
</svg>
