<?xml version="1.0" encoding="UTF-8"?>
<svg xmlns="http://www.w3.org/2000/svg" xmlns:xlink="http://www.w3.org/1999/xlink" width="36pt" height="36pt" viewBox="0 0 36 36" version="1.1">
<g id="surface1">
<path style=" stroke:none;fill-rule:evenodd;fill:rgb(71.764706%,71.764706%,71.764706%);fill-opacity:1;" d="M 7.78125 33.738281 L 7.78125 8.585938 L 2.136719 8.585938 L 2.136719 27.59375 C 2.136719 30.847656 4.617188 33.414062 7.78125 33.738281 Z M 7.78125 33.738281 "/>
<path style=" stroke:none;fill-rule:evenodd;fill:rgb(57.254902%,0%,0%);fill-opacity:1;" d="M 8.40625 2.136719 C 4.933594 2.136719 2.136719 4.933594 2.136719 8.410156 L 2.136719 8.585938 L 7.78125 8.585938 L 7.78125 33.738281 C 8 33.761719 8.183594 33.863281 8.40625 33.863281 L 27.589844 33.863281 C 31.066406 33.863281 33.863281 31.066406 33.863281 27.59375 L 33.863281 8.410156 C 33.863281 4.933594 31.066406 2.136719 27.589844 2.136719 Z M 8.40625 2.136719 "/>
<path style=" stroke:none;fill-rule:nonzero;fill:rgb(97.254902%,76.862745%,30.588235%);fill-opacity:1;" d="M 13.066406 28.5 L 15.75 28.5 L 15.75 33.863281 L 13.066406 33.863281 Z M 13.066406 28.5 "/>
<path style=" stroke:none;fill-rule:nonzero;fill:rgb(97.254902%,76.862745%,30.588235%);fill-opacity:1;" d="M 17.089844 28.5 L 19.769531 28.5 L 19.769531 33.863281 L 17.089844 33.863281 Z M 17.089844 28.5 "/>
<path style=" stroke:none;fill-rule:nonzero;fill:rgb(97.254902%,76.862745%,30.588235%);fill-opacity:1;" d="M 21.109375 28.5 L 23.792969 28.5 L 23.792969 33.863281 L 21.109375 33.863281 Z M 21.109375 28.5 "/>
<path style=" stroke:none;fill-rule:nonzero;fill:rgb(97.254902%,76.862745%,30.588235%);fill-opacity:1;" d="M 25.132812 28.5 L 27.816406 28.5 L 27.816406 33.863281 L 25.132812 33.863281 Z M 25.132812 28.5 "/>
<path style=" stroke:none;fill-rule:nonzero;fill:rgb(71.764706%,71.764706%,71.764706%);fill-opacity:1;" d="M 20.949219 6.421875 C 19.65625 6.433594 18.375 6.488281 18.375 6.570312 C 18.375 6.648438 18.546875 7.078125 18.757812 7.523438 C 19.574219 9.253906 20.144531 11.445312 20.144531 12.847656 C 20.144531 13.46875 20.121094 13.515625 19.871094 13.480469 C 19.652344 13.449219 19.527344 13.238281 19.257812 12.429688 C 18.726562 10.855469 17.8125 9.152344 16.777344 7.816406 C 15.738281 6.480469 16.066406 6.394531 13.9375 8.519531 C 12.667969 9.789062 12.109375 10.425781 12.214844 10.492188 C 12.300781 10.546875 12.765625 10.746094 13.253906 10.933594 C 13.742188 11.121094 14.414062 11.433594 14.746094 11.628906 C 15.078125 11.828125 15.382812 11.984375 15.421875 11.984375 C 15.582031 11.984375 17.457031 13.390625 17.863281 13.808594 C 18.203125 14.164062 18.265625 14.296875 18.144531 14.417969 C 17.972656 14.585938 18.015625 14.601562 16.128906 13.769531 C 15.484375 13.484375 14.433594 13.140625 13.789062 13 C 12.515625 12.726562 10.535156 12.480469 10.382812 12.574219 C 10.265625 12.644531 10.246094 17.722656 10.363281 17.835938 C 10.40625 17.878906 10.714844 17.777344 11.050781 17.609375 C 12.792969 16.726562 15.261719 16.03125 16.667969 16.03125 C 17.203125 16.03125 17.363281 16.078125 17.363281 16.222656 C 17.363281 16.554688 17.316406 16.585938 16.414062 16.890625 C 15.320312 17.257812 14.234375 17.769531 13.105469 18.453125 C 12.023438 19.105469 10.664062 20.175781 10.664062 20.375 C 10.664062 20.453125 11.480469 21.339844 12.484375 22.339844 L 14.300781 24.15625 L 14.558594 23.582031 C 14.695312 23.265625 14.851562 22.875 14.902344 22.710938 C 15.191406 21.796875 16.722656 19.386719 17.671875 18.355469 C 18.085938 17.898438 18.128906 17.882812 18.324219 18.078125 C 18.523438 18.277344 18.519531 18.320312 18.25 18.769531 C 17.421875 20.167969 16.679688 22.734375 16.527344 24.742188 L 16.441406 25.890625 L 19.113281 25.890625 C 20.585938 25.890625 21.789062 25.855469 21.789062 25.808594 C 21.789062 25.765625 21.59375 25.324219 21.359375 24.832031 C 20.59375 23.234375 20.121094 21.539062 19.945312 19.730469 C 19.867188 18.929688 19.886719 18.8125 20.066406 18.8125 C 20.179688 18.8125 20.308594 18.808594 20.355469 18.804688 C 20.402344 18.800781 20.621094 19.300781 20.839844 19.910156 C 21.34375 21.304688 21.894531 22.398438 22.707031 23.617188 C 23.53125 24.84375 24.085938 25.507812 24.289062 25.511719 C 24.503906 25.511719 28.007812 21.992188 27.925781 21.859375 C 27.890625 21.800781 27.589844 21.65625 27.257812 21.53125 C 25.605469 20.910156 23.734375 19.8125 22.453125 18.707031 C 21.828125 18.167969 21.804688 18.121094 21.996094 17.90625 C 22.195312 17.6875 22.230469 17.695312 22.910156 18.046875 C 24.648438 18.953125 26.527344 19.472656 28.695312 19.648438 L 29.75 19.730469 L 29.75 17.058594 C 29.75 15.589844 29.722656 14.386719 29.683594 14.386719 C 29.648438 14.386719 29.292969 14.550781 28.894531 14.753906 C 27.28125 15.5625 24.617188 16.285156 23.234375 16.285156 C 22.734375 16.285156 22.671875 16.253906 22.675781 16 C 22.679688 15.761719 22.820312 15.667969 23.59375 15.414062 C 25.296875 14.851562 27.191406 13.84375 28.359375 12.878906 C 28.671875 12.621094 29.058594 12.339844 29.214844 12.257812 C 29.371094 12.171875 29.5 12.039062 29.5 11.960938 C 29.5 11.804688 25.96875 8.195312 25.816406 8.195312 C 25.765625 8.195312 25.605469 8.519531 25.457031 8.921875 C 24.84375 10.5625 23.183594 13.265625 22.265625 14.109375 C 21.984375 14.371094 21.933594 14.378906 21.785156 14.195312 C 21.640625 14.027344 21.6875 13.847656 22.066406 13.023438 C 22.832031 11.375 22.917969 11.128906 23.179688 9.925781 C 23.4375 8.722656 23.6875 6.6875 23.59375 6.519531 C 23.546875 6.4375 22.246094 6.40625 20.949219 6.421875 Z M 20.019531 14.25 C 21.070312 14.25 21.921875 15.101562 21.925781 16.15625 C 21.925781 17.207031 21.070312 18.0625 20.019531 18.0625 C 19.511719 18.0625 19.027344 17.859375 18.671875 17.503906 C 18.3125 17.144531 18.113281 16.660156 18.113281 16.15625 C 18.113281 15.101562 18.964844 14.25 20.019531 14.25 Z M 20.019531 14.25 "/>
</g>
</svg>
