<?xml version="1.0" encoding="UTF-8"?>
<svg xmlns="http://www.w3.org/2000/svg" xmlns:xlink="http://www.w3.org/1999/xlink" width="36pt" height="36pt" viewBox="0 0 36 36" version="1.1">
<g id="surface1">
<path style=" stroke:none;fill-rule:evenodd;fill:rgb(92.54902%,92.54902%,92.54902%);fill-opacity:1;" d="M 8.40625 2.136719 L 27.59375 2.136719 C 31.054688 2.136719 33.863281 4.945312 33.863281 8.40625 L 33.863281 27.59375 C 33.863281 31.054688 31.054688 33.863281 27.59375 33.863281 L 8.40625 33.863281 C 4.945312 33.863281 2.136719 31.054688 2.136719 27.59375 L 2.136719 8.40625 C 2.136719 4.945312 4.945312 2.136719 8.40625 2.136719 Z M 8.40625 2.136719 "/>
<path style=" stroke:none;fill-rule:nonzero;fill:rgb(83.921569%,67.45098%,7.058824%);fill-opacity:1;" d="M 12.117188 21.355469 L 12.117188 14.644531 L 17.867188 11.292969 L 23.617188 14.644531 L 23.617188 21.355469 L 17.867188 24.707031 Z M 12.117188 21.355469 "/>
<path style=" stroke:none;fill-rule:nonzero;fill:rgb(56.078431%,71.372549%,20.784314%);fill-opacity:1;" d="M 18.824219 4.582031 L 18.824219 10.085938 L 24.574219 13.207031 L 29.367188 10.332031 Z M 18.824219 4.582031 "/>
<path style=" stroke:none;fill-rule:nonzero;fill:rgb(21.960784%,58.431373%,74.117647%);fill-opacity:1;" d="M 16.90625 4.582031 L 16.90625 10.085938 L 11.15625 13.207031 L 6.367188 10.332031 Z M 16.90625 4.582031 "/>
<path style=" stroke:none;fill-rule:nonzero;fill:rgb(81.960784%,54.901961%,23.137255%);fill-opacity:1;" d="M 30.300781 11.746094 L 25.535156 14.5 L 25.707031 21.039062 L 30.589844 23.75 Z M 30.300781 11.746094 "/>
<path style=" stroke:none;fill-rule:nonzero;fill:rgb(22.352941%,25.490196%,74.901961%);fill-opacity:1;" d="M 5.699219 11.746094 L 10.464844 14.5 L 10.292969 21.039062 L 5.410156 23.75 Z M 5.699219 11.746094 "/>
<path style=" stroke:none;fill-rule:nonzero;fill:rgb(62.745098%,17.254902%,20.784314%);fill-opacity:1;" d="M 18.824219 31.417969 L 18.824219 25.914062 L 24.574219 22.792969 L 29.367188 25.667969 Z M 18.824219 31.417969 "/>
<path style=" stroke:none;fill-rule:nonzero;fill:rgb(73.333333%,22.745098%,51.764706%);fill-opacity:1;" d="M 16.90625 31.417969 L 16.90625 25.914062 L 11.15625 22.792969 L 6.367188 25.667969 Z M 16.90625 31.417969 "/>
</g>
</svg>
