<?xml version="1.0" encoding="UTF-8"?>
<svg xmlns="http://www.w3.org/2000/svg" xmlns:xlink="http://www.w3.org/1999/xlink" width="36pt" height="36pt" viewBox="0 0 36 36" version="1.1">
<g id="surface1">
<path style=" stroke:none;fill-rule:evenodd;fill:rgb(45.490196%,69.803922%,92.941176%);fill-opacity:1;" d="M 8.40625 2.136719 L 27.59375 2.136719 C 31.054688 2.136719 33.863281 4.945312 33.863281 8.40625 L 33.863281 27.59375 C 33.863281 31.054688 31.054688 33.863281 27.59375 33.863281 L 8.40625 33.863281 C 4.945312 33.863281 2.136719 31.054688 2.136719 27.59375 L 2.136719 8.40625 C 2.136719 4.945312 4.945312 2.136719 8.40625 2.136719 Z M 8.40625 2.136719 "/>
<path style=" stroke:none;fill-rule:nonzero;fill:rgb(100%,100%,100%);fill-opacity:1;" d="M 12.9375 14.0625 L 12.9375 15.1875 L 12.375 15.1875 C 11.441406 15.1875 10.6875 15.941406 10.6875 16.875 C 10.6875 17.808594 11.441406 18.5625 12.375 18.5625 L 12.9375 18.5625 L 12.9375 19.6875 L 10.789062 19.6875 C 11.023438 20.34375 11.640625 20.8125 12.375 20.8125 L 12.9375 20.8125 L 12.9375 21.9375 L 14.0625 21.9375 L 14.0625 20.8125 L 14.625 20.8125 C 15.558594 20.8125 16.3125 20.058594 16.3125 19.125 C 16.3125 18.191406 15.558594 17.4375 14.625 17.4375 L 14.0625 17.4375 L 14.0625 16.3125 L 16.210938 16.3125 C 15.976562 15.65625 15.359375 15.1875 14.625 15.1875 L 14.0625 15.1875 L 14.0625 14.0625 Z M 12.375 16.3125 L 12.9375 16.3125 L 12.9375 17.4375 L 12.375 17.4375 C 12.0625 17.4375 11.8125 17.1875 11.8125 16.875 C 11.8125 16.5625 12.0625 16.3125 12.375 16.3125 Z M 14.0625 18.5625 L 14.625 18.5625 C 14.9375 18.5625 15.1875 18.8125 15.1875 19.125 C 15.1875 19.4375 14.9375 19.703125 14.625 19.6875 L 14.0625 19.6875 Z M 18.5625 20.8125 L 18.5625 21.9375 L 25.3125 21.9375 L 25.3125 20.8125 Z M 18.5625 20.8125 "/>
</g>
</svg>
