<?xml version="1.0" encoding="UTF-8"?>
<svg xmlns="http://www.w3.org/2000/svg" xmlns:xlink="http://www.w3.org/1999/xlink" width="36pt" height="36pt" viewBox="0 0 36 36" version="1.1">
<defs>
<clipPath id="clip1">
  <rect width="36" height="36"/>
</clipPath>
<g id="surface6" clip-path="url(#clip1)">
<path style=" stroke:none;fill-rule:nonzero;fill:rgb(100%,100%,100%);fill-opacity:1;" d="M 18.019531 8.085938 C 19.992188 8.089844 21.992188 8.738281 23.554688 10.027344 C 24.652344 11.363281 22.558594 12.796875 21.617188 11.492188 C 18.78125 9.675781 14.777344 10.316406 12.644531 13.03125 C 11.507812 14.378906 10.867188 16.175781 10.875 17.980469 L 12.75 17.980469 C 11.75 19.570312 10.75 21.15625 9.75 22.742188 L 6.75 17.980469 L 8.625 17.980469 C 8.566406 13.671875 11.496094 9.574219 15.429688 8.457031 C 16.273438 8.210938 17.144531 8.074219 18.019531 8.085938 Z M 26.25 13.242188 C 27.25 14.828125 28.25 16.414062 29.25 18.003906 L 27.375 18.003906 C 27.429688 22.363281 24.421875 26.507812 20.421875 27.566406 C 17.71875 28.363281 14.664062 27.78125 12.445312 25.957031 C 11.3125 24.597656 13.433594 23.175781 14.386719 24.492188 C 17.136719 26.257812 20.984375 25.699219 23.15625 23.179688 C 24.410156 21.808594 25.132812 19.910156 25.125 18.003906 L 23.25 18.003906 Z M 26.25 13.242188 "/>
</g>
</defs>
<g id="surface1">
<path style=" stroke:none;fill-rule:evenodd;fill:rgb(36.470588%,70.588235%,24.313725%);fill-opacity:1;" d="M 8.40625 2.136719 L 27.59375 2.136719 C 31.054688 2.136719 33.863281 4.945312 33.863281 8.40625 L 33.863281 27.59375 C 33.863281 31.054688 31.054688 33.863281 27.59375 33.863281 L 8.40625 33.863281 C 4.945312 33.863281 2.136719 31.054688 2.136719 27.59375 L 2.136719 8.40625 C 2.136719 4.945312 4.945312 2.136719 8.40625 2.136719 Z M 8.40625 2.136719 "/>
<use xlink:href="#surface6"/>
</g>
</svg>
