<?xml version="1.0" encoding="UTF-8"?>
<svg xmlns="http://www.w3.org/2000/svg" xmlns:xlink="http://www.w3.org/1999/xlink" width="36pt" height="36pt" viewBox="0 0 36 36" version="1.1">
<g id="surface1">
<path style=" stroke:none;fill-rule:evenodd;fill:rgb(35.686275%,35.686275%,35.686275%);fill-opacity:1;" d="M 8.40625 2.136719 L 27.59375 2.136719 C 31.054688 2.136719 33.863281 4.945312 33.863281 8.40625 L 33.863281 27.59375 C 33.863281 31.054688 31.054688 33.863281 27.59375 33.863281 L 8.40625 33.863281 C 4.945312 33.863281 2.136719 31.054688 2.136719 27.59375 L 2.136719 8.40625 C 2.136719 4.945312 4.945312 2.136719 8.40625 2.136719 Z M 8.40625 2.136719 "/>
<path style=" stroke:none;fill-rule:nonzero;fill:rgb(20%,20%,20%);fill-opacity:0.603922;" d="M 18 9.5625 C 23.59375 9.5625 28.125 14.09375 28.125 19.6875 C 28.125 25.28125 23.59375 29.8125 18 29.8125 C 12.40625 29.8125 7.875 25.28125 7.875 19.6875 C 7.875 14.09375 12.40625 9.5625 18 9.5625 Z M 18 9.5625 "/>
<path style=" stroke:none;fill-rule:nonzero;fill:rgb(99.607843%,75.294118%,2.352941%);fill-opacity:1;" d="M 18 11.8125 C 13.652344 11.8125 10.125 15.339844 10.125 19.6875 C 10.125 24.035156 13.652344 27.5625 18 27.5625 C 22.347656 27.5625 25.875 24.035156 25.875 19.6875 C 25.875 15.339844 22.347656 11.8125 18 11.8125 Z M 18 11.8125 "/>
<path style=" stroke:none;fill-rule:nonzero;fill:rgb(24.705882%,24.705882%,24.705882%);fill-opacity:1;" d="M 18 16.3125 C 16.136719 16.3125 14.625 17.824219 14.625 19.6875 C 14.625 21.550781 16.136719 23.0625 18 23.0625 C 19.863281 23.0625 21.375 21.550781 21.375 19.6875 C 21.375 17.824219 19.863281 16.3125 18 16.3125 Z M 18 16.3125 "/>
<path style=" stroke:none;fill-rule:nonzero;fill:rgb(20%,20%,20%);fill-opacity:0.603922;" d="M 11.25 8.4375 C 10.628906 8.4375 10.125 7.933594 10.125 7.3125 C 10.125 6.691406 10.628906 6.1875 11.25 6.1875 C 11.871094 6.1875 12.375 6.691406 12.375 7.3125 C 12.375 7.933594 11.871094 8.4375 11.25 8.4375 Z M 11.25 8.4375 "/>
<path style=" stroke:none;fill-rule:nonzero;fill:rgb(20%,20%,20%);fill-opacity:0.603922;" d="M 24.75 8.4375 C 24.128906 8.4375 23.625 7.933594 23.625 7.3125 C 23.625 6.691406 24.128906 6.1875 24.75 6.1875 C 25.371094 6.1875 25.875 6.691406 25.875 7.3125 C 25.875 7.933594 25.371094 8.4375 24.75 8.4375 Z M 24.75 8.4375 "/>
</g>
</svg>
