<?xml version="1.0" encoding="UTF-8"?>
<svg xmlns="http://www.w3.org/2000/svg" xmlns:xlink="http://www.w3.org/1999/xlink" width="36pt" height="36pt" viewBox="0 0 36 36" version="1.1">
<g id="surface1">
<path style=" stroke:none;fill-rule:evenodd;fill:rgb(91.372549%,65.882353%,29.019608%);fill-opacity:1;" d="M 8.40625 2.136719 L 27.59375 2.136719 C 31.054688 2.136719 33.863281 4.945312 33.863281 8.40625 L 33.863281 27.59375 C 33.863281 31.054688 31.054688 33.863281 27.59375 33.863281 L 8.40625 33.863281 C 4.945312 33.863281 2.136719 31.054688 2.136719 27.59375 L 2.136719 8.40625 C 2.136719 4.945312 4.945312 2.136719 8.40625 2.136719 Z M 8.40625 2.136719 "/>
<path style=" stroke:none;fill-rule:nonzero;fill:rgb(64.313725%,46.27451%,20.392157%);fill-opacity:1;" d="M 9 7.875 C 8.066406 7.875 7.3125 8.628906 7.3125 9.5625 L 7.3125 26.4375 C 7.3125 27.371094 8.066406 28.125 9 28.125 C 9.933594 28.125 10.6875 27.371094 10.6875 26.4375 L 10.6875 9.5625 C 10.6875 8.628906 9.933594 7.875 9 7.875 Z M 9 7.875 "/>
<path style=" stroke:none;fill-rule:nonzero;fill:rgb(100%,100%,100%);fill-opacity:1;" d="M 11.8125 14.0625 C 11.8125 15.617188 10.554688 16.875 9 16.875 C 7.445312 16.875 6.1875 15.617188 6.1875 14.0625 C 6.1875 12.507812 7.445312 11.25 9 11.25 C 10.554688 11.25 11.8125 12.507812 11.8125 14.0625 Z M 11.8125 14.0625 "/>
<path style=" stroke:none;fill-rule:nonzero;fill:rgb(64.313725%,46.27451%,20.392157%);fill-opacity:1;" d="M 27 7.875 C 26.066406 7.875 25.3125 8.628906 25.3125 9.5625 L 25.3125 26.4375 C 25.3125 27.371094 26.066406 28.125 27 28.125 C 27.933594 28.125 28.6875 27.371094 28.6875 26.4375 L 28.6875 9.5625 C 28.6875 8.628906 27.933594 7.875 27 7.875 Z M 27 7.875 "/>
<path style=" stroke:none;fill-rule:nonzero;fill:rgb(100%,100%,100%);fill-opacity:1;" d="M 29.8125 17.4375 C 29.8125 18.992188 28.554688 20.25 27 20.25 C 25.445312 20.25 24.1875 18.992188 24.1875 17.4375 C 24.1875 15.882812 25.445312 14.625 27 14.625 C 28.554688 14.625 29.8125 15.882812 29.8125 17.4375 Z M 29.8125 17.4375 "/>
<path style=" stroke:none;fill-rule:nonzero;fill:rgb(64.313725%,46.27451%,20.392157%);fill-opacity:1;" d="M 18 7.875 C 17.066406 7.875 16.3125 8.628906 16.3125 9.5625 L 16.3125 26.4375 C 16.3125 27.371094 17.066406 28.125 18 28.125 C 18.933594 28.125 19.6875 27.371094 19.6875 26.4375 L 19.6875 9.5625 C 19.6875 8.628906 18.933594 7.875 18 7.875 Z M 18 7.875 "/>
<path style=" stroke:none;fill-rule:nonzero;fill:rgb(100%,100%,100%);fill-opacity:1;" d="M 20.8125 21.9375 C 20.8125 23.492188 19.554688 24.75 18 24.75 C 16.445312 24.75 15.1875 23.492188 15.1875 21.9375 C 15.1875 20.382812 16.445312 19.125 18 19.125 C 19.554688 19.125 20.8125 20.382812 20.8125 21.9375 Z M 20.8125 21.9375 "/>
</g>
</svg>
