<?xml version="1.0" encoding="UTF-8"?>
<svg xmlns="http://www.w3.org/2000/svg" xmlns:xlink="http://www.w3.org/1999/xlink" width="36pt" height="36pt" viewBox="0 0 36 36" version="1.1">
<g id="surface1">
<path style=" stroke:none;fill-rule:evenodd;fill:rgb(60.392157%,79.215686%,23.529412%);fill-opacity:1;" d="M 8.40625 2.136719 L 27.59375 2.136719 C 31.054688 2.136719 33.863281 4.945312 33.863281 8.40625 L 33.863281 27.59375 C 33.863281 31.054688 31.054688 33.863281 27.59375 33.863281 L 8.40625 33.863281 C 4.945312 33.863281 2.136719 31.054688 2.136719 27.59375 L 2.136719 8.40625 C 2.136719 4.945312 4.945312 2.136719 8.40625 2.136719 Z M 8.40625 2.136719 "/>
<path style="fill:none;stroke-width:3;stroke-linecap:round;stroke-linejoin:round;stroke:rgb(100%,100%,100%);stroke-opacity:1;stroke-miterlimit:4;" d="M 12.499841 22.5 L 22.499841 9.5 " transform="matrix(1.125,0,0,1.125,-1.124821,0)"/>
<path style="fill:none;stroke-width:3;stroke-linecap:round;stroke-linejoin:round;stroke:rgb(100%,100%,100%);stroke-opacity:1;stroke-miterlimit:4;" d="M 11.499841 9.5 L 16.70123 16 " transform="matrix(1.125,0,0,1.125,-1.124821,0)"/>
<path style=" stroke:none;fill-rule:nonzero;fill:rgb(85.098039%,22.352941%,63.137255%);fill-opacity:1;" d="M 31.617188 24.75 C 31.617188 28.476562 28.597656 31.5 24.867188 31.5 C 21.140625 31.5 18.117188 28.476562 18.117188 24.75 C 18.117188 21.023438 21.140625 18 24.867188 18 C 28.597656 18 31.617188 21.023438 31.617188 24.75 Z M 31.617188 24.75 "/>
<path style=" stroke:none;fill-rule:nonzero;fill:rgb(100%,100%,100%);fill-opacity:1;" d="M 23.996094 21.375 L 23.921875 22.265625 C 23.636719 22.367188 23.375 22.519531 23.144531 22.710938 L 22.335938 22.332031 L 21.492188 23.792969 L 22.226562 24.304688 C 22.199219 24.449219 22.1875 24.601562 22.1875 24.75 C 22.1875 24.902344 22.199219 25.050781 22.226562 25.199219 L 21.492188 25.707031 L 22.335938 27.167969 L 23.144531 26.789062 C 23.375 26.980469 23.636719 27.128906 23.921875 27.234375 L 23.996094 28.125 L 25.683594 28.125 L 25.757812 27.234375 C 26.039062 27.132812 26.300781 26.980469 26.53125 26.789062 L 27.339844 27.167969 L 28.183594 25.707031 L 27.449219 25.199219 C 27.476562 25.050781 27.488281 24.898438 27.488281 24.75 C 27.488281 24.597656 27.476562 24.449219 27.453125 24.300781 L 28.183594 23.792969 L 27.339844 22.332031 L 26.535156 22.710938 C 26.300781 22.519531 26.039062 22.371094 25.757812 22.265625 L 25.683594 21.375 Z M 24.839844 23.785156 C 25.371094 23.785156 25.804688 24.21875 25.804688 24.75 C 25.804688 25.28125 25.371094 25.714844 24.839844 25.714844 C 24.304688 25.714844 23.875 25.28125 23.875 24.75 C 23.875 24.21875 24.304688 23.785156 24.839844 23.785156 Z M 24.839844 23.785156 "/>
</g>
</svg>
