<?xml version="1.0" encoding="UTF-8"?>
<svg xmlns="http://www.w3.org/2000/svg" xmlns:xlink="http://www.w3.org/1999/xlink" width="36pt" height="36pt" viewBox="0 0 36 36" version="1.1">
<g id="surface1">
<path style=" stroke:none;fill-rule:evenodd;fill:rgb(76.862745%,25.490196%,10.196078%);fill-opacity:1;" d="M 8.40625 2.132812 L 27.59375 2.132812 C 31.054688 2.132812 33.863281 4.941406 33.863281 8.40625 L 33.863281 27.589844 C 33.863281 31.054688 31.054688 33.863281 27.59375 33.863281 L 8.40625 33.863281 C 4.945312 33.863281 2.136719 31.054688 2.136719 27.589844 L 2.136719 8.40625 C 2.136719 4.941406 4.945312 2.132812 8.40625 2.132812 Z M 8.40625 2.132812 "/>
<path style=" stroke:none;fill-rule:evenodd;fill:rgb(30.980392%,30.980392%,30.980392%);fill-opacity:1;" d="M 10.21875 33.867188 L 10.21875 2.136719 L 8.40625 2.136719 C 4.933594 2.136719 2.136719 4.933594 2.136719 8.40625 L 2.136719 27.59375 C 2.136719 31.066406 4.933594 33.867188 8.40625 33.867188 Z M 10.21875 33.867188 "/>
<path style="fill:none;stroke-width:2;stroke-linecap:round;stroke-linejoin:round;stroke:rgb(100%,100%,100%);stroke-opacity:1;stroke-miterlimit:4;" d="M -31.106177 -5.316899 L -20.106177 -5.316899 L -31.106177 8.683101 L -20.106177 8.683101 " transform="matrix(1.125,0,0,1.125,50.092106,16.340886)"/>
</g>
</svg>
