<?xml version="1.0" encoding="UTF-8" standalone="no"?>
<svg
   xmlns:dc="http://purl.org/dc/elements/1.1/"
   xmlns:cc="http://creativecommons.org/ns#"
   xmlns:rdf="http://www.w3.org/1999/02/22-rdf-syntax-ns#"
   xmlns:svg="http://www.w3.org/2000/svg"
   xmlns="http://www.w3.org/2000/svg"
   xmlns:sodipodi="http://sodipodi.sourceforge.net/DTD/sodipodi-0.dtd"
   xmlns:inkscape="http://www.inkscape.org/namespaces/inkscape"
   width="32"
   height="32"
   version="1"
   id="svg16"
   sodipodi:docname="application-vnd.flatpak.svg"
   inkscape:version="0.92.1 r">
  <metadata
     id="metadata22">
    <rdf:RDF>
      <cc:Work
         rdf:about="">
        <dc:format>image/svg+xml</dc:format>
        <dc:type
           rdf:resource="http://purl.org/dc/dcmitype/StillImage" />
      </cc:Work>
    </rdf:RDF>
  </metadata>
  <defs
     id="defs20" />
  <sodipodi:namedview
     pagecolor="#ffffff"
     bordercolor="#666666"
     borderopacity="1"
     objecttolerance="10"
     gridtolerance="10"
     guidetolerance="10"
     inkscape:pageopacity="0"
     inkscape:pageshadow="2"
     inkscape:window-width="1680"
     inkscape:window-height="978"
     id="namedview18"
     showgrid="false"
     inkscape:zoom="5.2149125"
     inkscape:cx="-66.344606"
     inkscape:cy="34.596977"
     inkscape:window-x="0"
     inkscape:window-y="0"
     inkscape:window-maximized="1"
     inkscape:current-layer="svg16" />
  <rect
     style="opacity:1;fill:#ac8e5c;fill-opacity:1;fill-rule:evenodd;stroke:none;stroke-width:1.03534329;stroke-linecap:round;stroke-linejoin:bevel;stroke-miterlimit:4;stroke-dasharray:none;stroke-dashoffset:0;stroke-opacity:1"
     id="rect4497-3"
     width="28.203388"
     height="28.203388"
     x="1.8983059"
     y="1.8983059"
     ry="5.575182" />
  <g
     id="g4518"
     style="fill:#de564c;fill-opacity:1"
     transform="matrix(0.59997288,0,0,0.59997288,6.400437,6.400434)">
    <path
       inkscape:connector-curvature="0"
       id="path4508"
       d="M 21.186981,1.9999999 H 7.536011 C 4.469605,1.9999999 2,4.4676662 2,7.534072 V 24.463989 C 2,27.530395 4.469605,30 7.536011,30 H 24.465928 C 27.532334,30 30,27.530395 30,24.463989 v -13.65097 z"
       style="opacity:1;fill:#de564c;fill-opacity:1;fill-rule:evenodd;stroke:none;stroke-width:1.02788651;stroke-linecap:round;stroke-linejoin:bevel;stroke-miterlimit:4;stroke-dasharray:none;stroke-dashoffset:0;stroke-opacity:1" />
  </g>
  <path
     style="fill:#e4ba75;stroke-width:0.85704601"
     d="m 5.291578,11.167611 c -0.0027,0.04565 -0.0042,0.09136 -0.0046,0.137093 v 9.330652 c 2.79e-4,0.974581 0.518262,1.875013 1.358896,2.362226 l 7.995283,4.635397 c 0.840864,0.487554 1.876927,0.487554 2.717791,0 l 7.995282,-4.635397 c 0.840992,-0.487423 1.359031,-1.388397 1.358893,-2.363397 v -9.329481 c -0.0013,-0.03441 -0.0032,-0.06878 -0.0058,-0.103113 0.0058,-0.0011 -21.415674,-0.03398 -21.415674,-0.03398 z"
     id="path4"
     inkscape:connector-curvature="0" />
  <path
     style="fill:#b89863;stroke-width:0.85704601"
     d="m 16.063987,4.001356 v 0.0012 A 2.7194229,2.7608971 0 0 0 14.640075,4.370114 L 6.638714,9.0606841 a 2.7194229,2.7608971 0 0 0 -1.351786,2.2136739 2.7194229,2.7608971 0 0 0 1.351786,2.236203 l 8.001361,4.69057 a 2.7194229,2.7608971 0 0 0 2.719857,0 l 8.001362,-4.69057 A 2.7194229,2.7608971 0 0 0 26.713079,11.296887 2.7194229,2.7608971 0 0 0 25.361294,9.0606841 L 17.359932,4.370114 A 2.7194229,2.7608971 0 0 0 16.063987,4.001366 Z"
     id="path6"
     inkscape:connector-curvature="0" />
  <path
     style="opacity:1;stroke-width:0.85704601;fill:#ac8e5c;fill-opacity:1"
     d="m 16.063613,4.001356 v 0.0017 a 2.7194229,2.7608971 0 0 0 -0.492132,0.03388 v 14.495895 a 2.7194229,2.7608971 0 0 0 1.787744,-0.331992 l 8.001328,-4.690247 A 2.7194229,2.7608971 0 0 0 26.713079,11.29674 2.7194229,2.7608971 0 0 0 25.360553,9.0608691 L 17.359225,4.370622 A 2.7194229,2.7608971 0 0 0 16.063613,4.001364 Z"
     id="path8"
     inkscape:connector-curvature="0" />
  <path
     style="opacity:1;stroke-width:0.85704601;fill:#cea86a;fill-opacity:1"
     d="m 5.290276,11.219291 c -4.91e-4,0.01226 -0.0011,0.02454 -0.0017,0.03683 a 2.7194229,2.7608971 0 0 1 0.0033,-0.02511 2.7194229,2.7284223 0 0 1 -0.0017,-0.01172 z m -0.0017,0.06361 c -2.45e-4,0.0073 -0.0016,0.0145 -0.0017,0.02176 v 9.330419 c 2.79e-4,0.974582 0.518587,1.874687 1.359221,2.361898 l 7.994638,4.636754 c 0.291978,0.169296 0.607892,0.276363 0.930699,0.328087 v -9.42918 A 2.7194229,2.7608971 0 0 1 14.640722,18.201202 L 6.639394,13.510884 A 2.7194229,2.7608971 0 0 1 5.288542,11.2829 Z"
     id="path10"
     inkscape:connector-curvature="0" />
  <path
     style="opacity:1;stroke-width:0.85704601;fill:#9b8053;fill-opacity:1"
     d="m 5.348863,10.854377 a 2.7194229,2.7608971 0 0 0 -0.06194,0.420153 2.7194229,2.7608971 0 0 0 1.352526,2.236354 l 8.001328,4.690318 a 2.7194229,2.7608971 0 0 0 2.718443,0 l 8.001328,-4.690318 a 2.7194229,2.7608971 0 0 0 1.352526,-2.214593 2.7194229,2.7608971 0 0 0 -0.06194,-0.436893 2.7194229,2.7608971 0 0 1 -1.29059,1.794441 l -8.001328,4.690318 a 2.7194229,2.7608971 0 0 1 -2.718444,0 L 6.639449,12.653839 A 2.7194229,2.7608971 0 0 1 5.348858,10.854377 Z"
     id="path14"
     inkscape:connector-curvature="0" />
</svg>
