<?xml version="1.0" encoding="UTF-8" standalone="no"?>
<svg
   xmlns:dc="http://purl.org/dc/elements/1.1/"
   xmlns:cc="http://creativecommons.org/ns#"
   xmlns:rdf="http://www.w3.org/1999/02/22-rdf-syntax-ns#"
   xmlns:svg="http://www.w3.org/2000/svg"
   xmlns="http://www.w3.org/2000/svg"
   xmlns:sodipodi="http://sodipodi.sourceforge.net/DTD/sodipodi-0.dtd"
   xmlns:inkscape="http://www.inkscape.org/namespaces/inkscape"
   width="32"
   height="32"
   version="1"
   id="svg24"
   sodipodi:docname="application-x-bittorrent.svg"
   inkscape:version="0.92.1 r">
  <metadata
     id="metadata30">
    <rdf:RDF>
      <cc:Work
         rdf:about="">
        <dc:format>image/svg+xml</dc:format>
        <dc:type
           rdf:resource="http://purl.org/dc/dcmitype/StillImage" />
      </cc:Work>
    </rdf:RDF>
  </metadata>
  <defs
     id="defs28" />
  <sodipodi:namedview
     pagecolor="#ffffff"
     bordercolor="#666666"
     borderopacity="1"
     objecttolerance="10"
     gridtolerance="10"
     guidetolerance="10"
     inkscape:pageopacity="0"
     inkscape:pageshadow="2"
     inkscape:window-width="1680"
     inkscape:window-height="978"
     id="namedview26"
     showgrid="false"
     inkscape:zoom="5.6568543"
     inkscape:cx="-68.184847"
     inkscape:cy="16.252954"
     inkscape:window-x="0"
     inkscape:window-y="0"
     inkscape:window-maximized="1"
     inkscape:current-layer="svg24" />
  <g
     id="g4529"
     transform="translate(54.237288,18.305085)">
    <path
       inkscape:connector-curvature="0"
       id="path4508"
       d="m -33.050307,-16.305085 h -13.65097 c -3.066406,0 -5.536011,2.467667 -5.536011,5.534072 V 6.1589043 c 0,3.066406 2.469605,5.5360107 5.536011,5.5360107 h 16.929917 c 3.066406,0 5.534071,-2.4696047 5.534071,-5.5360107 V -7.4920659 Z"
       style="opacity:1;fill:#9264c3;fill-opacity:1;fill-rule:evenodd;stroke:none;stroke-width:1.02788651;stroke-linecap:round;stroke-linejoin:bevel;stroke-miterlimit:4;stroke-dasharray:none;stroke-dashoffset:0;stroke-opacity:1" />
    <path
       inkscape:connector-curvature="0"
       id="rect4497-3"
       d="m -24.237289,-7.4920659 -8.813018,-8.8130191 v 3.278948 c 0,3.0664053 2.467666,5.5340711 5.534072,5.5340711 z"
       style="opacity:0.17600002;fill:#000000;fill-opacity:1;fill-rule:evenodd;stroke:none;stroke-width:1.02788651;stroke-linecap:round;stroke-linejoin:bevel;stroke-miterlimit:4;stroke-dasharray:none;stroke-dashoffset:0;stroke-opacity:1" />
    <g
       transform="matrix(1.2130751,0,0,1.2130751,-58.976285,-24.203341)"
       id="g4521">
      <path
         sodipodi:nodetypes="cssccsscc"
         inkscape:connector-curvature="0"
         style="fill:#ffffff"
         d="m 18,13 c -3.865993,0 -7,3.134007 -7,7 0,3.865993 3.134007,7 7,7 h 10.194876 c 0.209575,-0.25882 0.326021,-0.592144 0.349302,-1 H 18 c -3.313708,0 -6,-2.686292 -6,-6 0,-3.313708 2.686292,-6 6,-6 z"
         id="path18" />
      <path
         sodipodi:nodetypes="cssccsscccc"
         inkscape:connector-curvature="0"
         style="fill:#d7bdfb"
         d="m 18,15 c -2.761424,0 -5,2.238576 -5,5 0,2.761424 2.238576,5 5,5 H 28.632651 V 24 H 18 c -2.209139,0 -4,-1.790861 -4,-4 0,-2.209139 1.790861,-4 4,-4 0.337602,0.0019 0.673607,0.04652 1,0.132812 V 15.105469 C 18.671058,15.036799 18.336031,15.001464 18,15 Z"
         id="path20" />
      <path
         sodipodi:nodetypes="cssccssscc"
         inkscape:connector-curvature="0"
         style="fill:#c090f9"
         d="m 18,17 c -1.656854,0 -3,1.343146 -3,3 0,1.656854 1.343146,3 3,3 H 28.62801 V 22 H 18 c -1.104569,0 -2,-0.895431 -2,-2 0,-1.104569 0.895431,-2 2,-2 h 2.232422 C 19.664145,17.364645 18.852416,17.001037 18,17 Z"
         id="path22" />
    </g>
  </g>
</svg>
