<?xml version="1.0" encoding="UTF-8" standalone="no"?>
<svg
   xmlns:dc="http://purl.org/dc/elements/1.1/"
   xmlns:cc="http://creativecommons.org/ns#"
   xmlns:rdf="http://www.w3.org/1999/02/22-rdf-syntax-ns#"
   xmlns:svg="http://www.w3.org/2000/svg"
   xmlns="http://www.w3.org/2000/svg"
   xmlns:sodipodi="http://sodipodi.sourceforge.net/DTD/sodipodi-0.dtd"
   xmlns:inkscape="http://www.inkscape.org/namespaces/inkscape"
   width="32"
   height="32"
   version="1"
   id="svg16"
   sodipodi:docname="application-pdf.svg"
   inkscape:version="0.92.1 r">
  <metadata
     id="metadata22">
    <rdf:RDF>
      <cc:Work
         rdf:about="">
        <dc:format>image/svg+xml</dc:format>
        <dc:type
           rdf:resource="http://purl.org/dc/dcmitype/StillImage" />
      </cc:Work>
    </rdf:RDF>
  </metadata>
  <defs
     id="defs20" />
  <sodipodi:namedview
     pagecolor="#ffffff"
     bordercolor="#666666"
     borderopacity="1"
     objecttolerance="10"
     gridtolerance="10"
     guidetolerance="10"
     inkscape:pageopacity="0"
     inkscape:pageshadow="2"
     inkscape:window-width="1680"
     inkscape:window-height="978"
     id="namedview18"
     showgrid="false"
     inkscape:zoom="7.375"
     inkscape:cx="-8.6779661"
     inkscape:cy="16"
     inkscape:window-x="0"
     inkscape:window-y="0"
     inkscape:window-maximized="1"
     inkscape:current-layer="svg16" />
  <g
     id="g4512"
     transform="translate(47.322034,12.745763)">
    <path
       inkscape:connector-curvature="0"
       id="path4508"
       d="m -26.135053,-10.745763 h -13.65097 c -3.066406,0 -5.536011,2.4676666 -5.536011,5.5340724 V 11.718226 c 0,3.066406 2.469605,5.536011 5.536011,5.536011 h 16.929917 c 3.066406,0 5.534072,-2.469605 5.534072,-5.536011 V -1.9327436 Z"
       style="opacity:1;fill:#c03630;fill-opacity:1;fill-rule:evenodd;stroke:none;stroke-width:1.02788651;stroke-linecap:round;stroke-linejoin:bevel;stroke-miterlimit:4;stroke-dasharray:none;stroke-dashoffset:0;stroke-opacity:1" />
    <path
       inkscape:connector-curvature="0"
       id="rect4497-3"
       d="m -17.322034,-1.9327436 -8.813019,-8.8130194 v 3.2789477 c 0,3.0664056 2.467666,5.5340717 5.534072,5.5340717 z"
       style="opacity:0.17600002;fill:#000000;fill-opacity:1;fill-rule:evenodd;stroke:none;stroke-width:1.02788651;stroke-linecap:round;stroke-linejoin:bevel;stroke-miterlimit:4;stroke-dasharray:none;stroke-dashoffset:0;stroke-opacity:1" />
    <path
       style="fill:#ffffff;stroke-width:1.33291316"
       inkscape:connector-curvature="0"
       id="path12"
       d="m -31.545357,-3.7613729 c -0.384266,0 -0.743606,0.1880874 -0.830539,0.4985229 -0.322831,1.1901315 0.03848,3.03064454 0.641105,5.3237883 l -0.181783,0.44398 c -0.461414,1.1247255 -1.038179,2.2448923 -1.545379,3.2388457 -2.093873,4.0971079 -3.72296,6.307612 -4.809018,6.462497 l -0.0041,-0.04499 c -0.02358,-0.511052 0.919551,-1.828624 2.197841,-2.8762941 0.133331,-0.1078326 0.702312,-0.6582991 0.702312,-0.6582991 0,0 -0.768011,0.4054322 -0.94053,0.5099859 -1.601895,0.9561123 -2.398977,1.9140643 -2.528936,2.5499973 -0.03858,0.188873 -0.01382,0.42128 0.153071,0.516703 l 0.409538,0.205722 c 1.114982,0.558118 2.486016,-0.90938 4.308642,-4.1039068 1.854748,-0.6084482 4.168952,-1.1812943 6.275888,-1.4916631 1.886072,1.0776602 4.049523,1.5906985 4.880861,1.3691683 0.158177,-0.041827 0.324564,-0.1659743 0.409538,-0.2803383 0.06664,-0.1052201 0.159803,-0.5262607 0.159803,-0.5262607 0,0 -0.156391,0.2128262 -0.285164,0.2755664 -0.526101,0.2483484 -2.187044,-0.1659743 -3.89144,-0.9998448 1.473669,-0.1568572 2.701415,-0.1628953 3.357475,0.046825 0.833324,0.2659961 0.833991,0.5386568 0.822887,0.5941993 0.0112,-0.045732 0.04856,-0.228408 0.04399,-0.3061835 -0.0189,-0.1999902 -0.08056,-0.3785739 -0.231554,-0.5262607 -0.308463,-0.3038909 -1.070076,-0.4570426 -2.107869,-0.4707583 -0.78226,-0.00853 -1.720258,0.059981 -2.73847,0.2057218 -0.466626,-0.2679422 -0.959031,-0.5625026 -1.349175,-0.927201 -0.989434,-0.924122 -1.81876,-2.2071709 -2.333797,-3.6455174 0.03515,-0.1379032 0.06881,-0.2726341 0.0995,-0.4085779 0.143141,-0.6437171 0.245896,-2.7719261 0.245896,-2.7719261 0,0 -0.407659,1.59882925 -0.471705,1.83995324 -0.04115,0.15292516 -0.09236,0.31615366 -0.151179,0.48607346 -0.312408,-1.09790725 -0.470758,-2.1619851 -0.470758,-2.969064 0,-0.2280881 0.01958,-0.6719215 0.08419,-1.0228509 0.03148,-0.2502944 0.122135,-0.3802668 0.216266,-0.4430203 0.186248,0.045159 0.394729,0.3308024 0.61238,0.8085318 0.186901,0.4130431 0.175091,0.8913856 0.175091,1.1874656 0,0 0.200444,-0.7330889 0.154058,-1.166379 -0.02824,-0.2601046 -0.275713,-0.9292937 -0.801813,-0.9214562 h -0.04307 l -0.234419,-0.00253 z m 0.17893,6.6471045 c 0.544415,1.0946549 1.295258,2.1342605 2.280214,2.968131 0.219571,0.1855948 0.453191,0.3621791 0.693688,0.5281668 -1.788636,0.3326552 -3.667244,0.800601 -5.412827,1.5319171 0.315661,-0.5607299 0.656967,-1.1716307 1.006603,-1.8303563 0.677067,-1.2802631 1.087324,-2.2678184 1.432348,-3.1977919 z" />
  </g>
</svg>
