<?xml version="1.0" encoding="UTF-8" standalone="no"?>
<svg
   xmlns:dc="http://purl.org/dc/elements/1.1/"
   xmlns:cc="http://creativecommons.org/ns#"
   xmlns:rdf="http://www.w3.org/1999/02/22-rdf-syntax-ns#"
   xmlns:svg="http://www.w3.org/2000/svg"
   xmlns="http://www.w3.org/2000/svg"
   xmlns:sodipodi="http://sodipodi.sourceforge.net/DTD/sodipodi-0.dtd"
   xmlns:inkscape="http://www.inkscape.org/namespaces/inkscape"
   width="32"
   height="32"
   version="1.1"
   id="svg16"
   sodipodi:docname="application-x-kmymoney.svg"
   inkscape:version="0.92.1 r">
  <metadata
     id="metadata22">
    <rdf:RDF>
      <cc:Work
         rdf:about="">
        <dc:format>image/svg+xml</dc:format>
        <dc:type
           rdf:resource="http://purl.org/dc/dcmitype/StillImage" />
      </cc:Work>
    </rdf:RDF>
  </metadata>
  <defs
     id="defs20" />
  <sodipodi:namedview
     pagecolor="#ffffff"
     bordercolor="#666666"
     borderopacity="1"
     objecttolerance="10"
     gridtolerance="10"
     guidetolerance="10"
     inkscape:pageopacity="0"
     inkscape:pageshadow="2"
     inkscape:window-width="1680"
     inkscape:window-height="978"
     id="namedview18"
     showgrid="false"
     inkscape:zoom="7.375"
     inkscape:cx="-8.6779661"
     inkscape:cy="16"
     inkscape:window-x="0"
     inkscape:window-y="0"
     inkscape:window-maximized="1"
     inkscape:current-layer="svg16" />
  <g
     id="g4511"
     transform="translate(31.457627,-1.7627119)">
    <path
       inkscape:connector-curvature="0"
       id="path4508"
       d="m -10.270646,3.7627119 h -13.65097 c -3.066406,0 -5.536011,2.4676663 -5.536011,5.5340721 v 16.929917 c 0,3.066406 2.469605,5.536011 5.536011,5.536011 h 16.9299174 c 3.066406,0 5.534071,-2.469605 5.534071,-5.536011 v -13.65097 z"
       style="opacity:1;fill:#b38d32;fill-opacity:1;fill-rule:evenodd;stroke:none;stroke-width:1.02788651;stroke-linecap:round;stroke-linejoin:bevel;stroke-miterlimit:4;stroke-dasharray:none;stroke-dashoffset:0;stroke-opacity:1" />
    <path
       inkscape:connector-curvature="0"
       id="rect4497-3"
       d="M -1.4576276,12.575731 -10.270646,3.762712 v 3.2789473 c 0,3.0664057 2.4676664,5.5340717 5.5340724,5.5340717 z"
       style="opacity:0.17600002;fill:#000000;fill-opacity:1;fill-rule:evenodd;stroke:none;stroke-width:1.02788651;stroke-linecap:round;stroke-linejoin:bevel;stroke-miterlimit:4;stroke-dasharray:none;stroke-dashoffset:0;stroke-opacity:1" />
  </g>
  <path
     style="fill:#ffc947;stroke-width:1.20338929"
     d="m 13.602602,9.9999831 c -0.666678,0 -1.203389,0.5367119 -1.203389,1.2033889 v 12.033893 c 0,0.666677 0.536711,1.203389 1.203389,1.203389 0.666678,0 1.203389,-0.536712 1.203389,-1.203389 v -3.389233 l 0.122219,-0.212709 2.426757,4.202461 c 0.333339,0.577359 1.06555,0.774033 1.642908,0.440694 0.57736,-0.333339 0.774033,-1.066724 0.440694,-1.644084 l -3.121291,-5.404673 3.121291,-5.405851 c 0.333339,-0.57736 0.136666,-1.310745 -0.440694,-1.644084 -0.577358,-0.3333389 -1.309569,-0.136665 -1.642908,0.440695 l -2.426757,4.202461 -0.122219,-0.211534 v -3.408036 c 0,-0.666677 -0.536711,-1.2033889 -1.203389,-1.2033889 z"
     id="path14"
     inkscape:connector-curvature="0" />
</svg>
