<?xml version="1.0" encoding="UTF-8" standalone="no"?>
<svg
   xmlns:dc="http://purl.org/dc/elements/1.1/"
   xmlns:cc="http://creativecommons.org/ns#"
   xmlns:rdf="http://www.w3.org/1999/02/22-rdf-syntax-ns#"
   xmlns:svg="http://www.w3.org/2000/svg"
   xmlns="http://www.w3.org/2000/svg"
   xmlns:sodipodi="http://sodipodi.sourceforge.net/DTD/sodipodi-0.dtd"
   xmlns:inkscape="http://www.inkscape.org/namespaces/inkscape"
   width="32"
   height="32"
   version="1"
   id="svg12"
   sodipodi:docname="application-vnd.stardivision.draw.svg"
   inkscape:version="0.92.1 r">
  <metadata
     id="metadata18">
    <rdf:RDF>
      <cc:Work
         rdf:about="">
        <dc:format>image/svg+xml</dc:format>
        <dc:type
           rdf:resource="http://purl.org/dc/dcmitype/StillImage" />
      </cc:Work>
    </rdf:RDF>
  </metadata>
  <defs
     id="defs16" />
  <sodipodi:namedview
     pagecolor="#ffffff"
     bordercolor="#666666"
     borderopacity="1"
     objecttolerance="10"
     gridtolerance="10"
     guidetolerance="10"
     inkscape:pageopacity="0"
     inkscape:pageshadow="2"
     inkscape:window-width="1680"
     inkscape:window-height="965"
     id="namedview14"
     showgrid="false"
     inkscape:zoom="7.375"
     inkscape:cx="-7.4576271"
     inkscape:cy="14.779661"
     inkscape:window-x="0"
     inkscape:window-y="0"
     inkscape:window-maximized="1"
     inkscape:current-layer="svg12" />
  <rect
     style="opacity:1;fill:#bf9a66;fill-opacity:1;fill-rule:evenodd;stroke:none;stroke-width:1.03534329;stroke-linecap:round;stroke-linejoin:bevel;stroke-miterlimit:4;stroke-dasharray:none;stroke-dashoffset:0;stroke-opacity:1"
     id="rect4497-3"
     width="28.203388"
     height="28.203388"
     x="1.8983059"
     y="1.8983059"
     ry="5.575182" />
  <path
     style="fill:#ffffff"
     d="M 8.5,10.5 A 2.5,2.5 0 0 0 6,13 2.5,2.5 0 0 0 8.5,15.5 2.5,2.5 0 0 0 9.666015,15.210938 l 2.496094,2.912109 A 2.5,2.5 0 0 0 12,19 a 2.5,2.5 0 0 0 2.5,2.5 2.5,2.5 0 0 0 2.460938,-2.083984 L 21.076172,18.59375 A 2.5,2.5 0 0 0 23.5,20.5 2.5,2.5 0 0 0 26,18 2.5,2.5 0 0 0 23.5,15.5 2.5,2.5 0 0 0 21.039062,17.582031 L 16.925781,18.40625 A 2.5,2.5 0 0 0 14.5,16.5 2.5,2.5 0 0 0 12.724609,17.244141 L 10.4375,14.576172 A 2.5,2.5 0 0 0 11,13 2.5,2.5 0 0 0 8.5,10.5 Z"
     id="path8"
     inkscape:connector-curvature="0" />
</svg>
