<?xml version="1.0" encoding="UTF-8" standalone="no"?>
<svg
   xmlns:dc="http://purl.org/dc/elements/1.1/"
   xmlns:cc="http://creativecommons.org/ns#"
   xmlns:rdf="http://www.w3.org/1999/02/22-rdf-syntax-ns#"
   xmlns:svg="http://www.w3.org/2000/svg"
   xmlns="http://www.w3.org/2000/svg"
   xmlns:sodipodi="http://sodipodi.sourceforge.net/DTD/sodipodi-0.dtd"
   xmlns:inkscape="http://www.inkscape.org/namespaces/inkscape"
   width="32"
   height="32"
   version="1"
   id="svg14"
   sodipodi:docname="application-x-rpm.svg"
   inkscape:version="0.92.1 r">
  <metadata
     id="metadata20">
    <rdf:RDF>
      <cc:Work
         rdf:about="">
        <dc:format>image/svg+xml</dc:format>
        <dc:type
           rdf:resource="http://purl.org/dc/dcmitype/StillImage" />
      </cc:Work>
    </rdf:RDF>
  </metadata>
  <defs
     id="defs18" />
  <sodipodi:namedview
     pagecolor="#ffffff"
     bordercolor="#666666"
     borderopacity="1"
     objecttolerance="10"
     gridtolerance="10"
     guidetolerance="10"
     inkscape:pageopacity="0"
     inkscape:pageshadow="2"
     inkscape:window-width="1680"
     inkscape:window-height="978"
     id="namedview16"
     showgrid="false"
     inkscape:zoom="7.375"
     inkscape:cx="-35.525424"
     inkscape:cy="10.576271"
     inkscape:window-x="0"
     inkscape:window-y="0"
     inkscape:window-maximized="1"
     inkscape:current-layer="svg14" />
  <g
     id="g4500"
     transform="translate(55.457627)">
    <path
       inkscape:connector-curvature="0"
       id="path4508"
       d="m -34.270646,2 h -13.65097 c -3.066406,0 -5.536011,2.4676663 -5.536011,5.5340721 V 24.463989 c 0,3.066406 2.469605,5.536011 5.536011,5.536011 h 16.929917 c 3.066406,0 5.534072,-2.469605 5.534072,-5.536011 v -13.65097 z"
       style="opacity:1;fill:#ac93ff;fill-opacity:1;fill-rule:evenodd;stroke:none;stroke-width:1.02788651;stroke-linecap:round;stroke-linejoin:bevel;stroke-miterlimit:4;stroke-dasharray:none;stroke-dashoffset:0;stroke-opacity:1" />
    <path
       inkscape:connector-curvature="0"
       id="rect4497-3-3"
       d="m -25.457627,10.813019 -8.813019,-8.8130189 v 3.2789473 c 0,3.0664056 2.467666,5.5340716 5.534072,5.5340716 z"
       style="opacity:1;fill:#817bb9;fill-opacity:1;fill-rule:evenodd;stroke:none;stroke-width:1.02788651;stroke-linecap:round;stroke-linejoin:bevel;stroke-miterlimit:4;stroke-dasharray:none;stroke-dashoffset:0;stroke-opacity:1" />
    <g
       style="fill:#ffffff;stroke-width:1.18337691"
       transform="matrix(0.84503927,0,0,0.84503927,-53.053922,3.4885353)"
       id="g4506">
      <path
         inkscape:connector-curvature="0"
         d="m 12,11 v 10.5 h 2.5 v -4 h 4 V 11 h -5.1 z m 2.7,2.6998 H 16 v 1.3 h -1.3 z"
         id="path6"
         style="fill:#ffffff;fill-opacity:1;stroke-width:1.18337691" />
      <path
         inkscape:connector-curvature="0"
         d="M 5,11 V 21.5 H 7.5 V 19 L 9,21.5 h 2.5 l -1.25,-4 H 11.5 V 11.0002 H 5 Z m 2.6,2.6998 h 1.3 v 1.3 H 7.6 Z"
         id="path8"
         style="fill:#ffffff;fill-opacity:1;stroke-width:1.18337691" />
      <path
         inkscape:connector-curvature="0"
         d="m 19,11 v 10.5 h 2.5 V 17 l 1.75,2 1.75,-2 v 4.4998 h 2.5 v -10.5 H 25 l -1.75,4 -1.75,-4 z"
         id="path10"
         style="fill:#ffffff;fill-opacity:1;stroke-width:1.18337691" />
    </g>
  </g>
</svg>
