<?xml version="1.0" encoding="UTF-8" standalone="no"?>
<svg
   xmlns:dc="http://purl.org/dc/elements/1.1/"
   xmlns:cc="http://creativecommons.org/ns#"
   xmlns:rdf="http://www.w3.org/1999/02/22-rdf-syntax-ns#"
   xmlns:svg="http://www.w3.org/2000/svg"
   xmlns="http://www.w3.org/2000/svg"
   xmlns:sodipodi="http://sodipodi.sourceforge.net/DTD/sodipodi-0.dtd"
   xmlns:inkscape="http://www.inkscape.org/namespaces/inkscape"
   width="32"
   height="32"
   version="1"
   id="svg16"
   sodipodi:docname="text-x-python.svg"
   inkscape:version="0.92.1 r">
  <metadata
     id="metadata22">
    <rdf:RDF>
      <cc:Work
         rdf:about="">
        <dc:format>image/svg+xml</dc:format>
        <dc:type
           rdf:resource="http://purl.org/dc/dcmitype/StillImage" />
      </cc:Work>
    </rdf:RDF>
  </metadata>
  <defs
     id="defs20" />
  <sodipodi:namedview
     pagecolor="#ffffff"
     bordercolor="#666666"
     borderopacity="1"
     objecttolerance="10"
     gridtolerance="10"
     guidetolerance="10"
     inkscape:pageopacity="0"
     inkscape:pageshadow="2"
     inkscape:window-width="1680"
     inkscape:window-height="978"
     id="namedview18"
     showgrid="false"
     inkscape:zoom="7.375"
     inkscape:cx="-8.6779661"
     inkscape:cy="16"
     inkscape:window-x="0"
     inkscape:window-y="0"
     inkscape:window-maximized="1"
     inkscape:current-layer="svg16" />
  <g
     id="g4515"
     transform="translate(60.338983,-0.40677985)">
    <path
       inkscape:connector-curvature="0"
       id="path4508"
       d="m -39.152002,2.4067797 h -13.65097 c -3.066406,0 -5.536011,2.4676663 -5.536011,5.5340721 V 24.870769 c 0,3.066406 2.469605,5.536011 5.536011,5.536011 h 16.929917 c 3.066406,0 5.534072,-2.469605 5.534072,-5.536011 v -13.65097 z"
       style="opacity:1;fill:#cccccc;fill-opacity:1;fill-rule:evenodd;stroke:none;stroke-width:1.02788651;stroke-linecap:round;stroke-linejoin:bevel;stroke-miterlimit:4;stroke-dasharray:none;stroke-dashoffset:0;stroke-opacity:1" />
    <path
       inkscape:connector-curvature="0"
       id="rect4497-3"
       d="m -30.338983,11.219799 -8.813019,-8.8130192 v 3.2789473 c 0,3.0664056 2.467666,5.5340719 5.534072,5.5340719 z"
       style="opacity:0.17600002;fill:#000000;fill-opacity:1;fill-rule:evenodd;stroke:none;stroke-width:1.02788651;stroke-linecap:round;stroke-linejoin:bevel;stroke-miterlimit:4;stroke-dasharray:none;stroke-dashoffset:0;stroke-opacity:1" />
  </g>
  <g
     id="g4511"
     transform="matrix(1.1251649,0,0,1.1251649,65.535862,-4.119775)">
    <path
       style="opacity:0.5"
       inkscape:connector-curvature="0"
       id="path10"
       d="m -44.357424,13.050847 c -1.5947,0 -3.1096,1.0531 -3.0099,2.1875 v 1.4967 h -1.102 c -1.1389,-0.001 -2.056,1.02 -2.056,2.614 v 0.82237 c 0,1.595 0.9171,2.879 2.056,2.879 h 0.944 v -1.645 c 0,-0.91118 1.023,-1.5132 1.9342,-1.5132 h 3.2895 c 0,0 1.7763,-0.13158 1.7763,-1.7763 v -2.878 c 0,-1.139 -1.415,-2.188 -3.01,-2.188 z m -1.168,1.579 c 0.43602,0 0.78947,0.35346 0.78947,0.78947 0,0.43601 -0.35346,0.78947 -0.78947,0.78947 -0.43602,0 -0.78947,-0.35346 -0.78947,-0.78947 0,-0.43602 0.35346,-0.78947 0.78947,-0.78947 z" />
    <path
       style="opacity:0.3"
       inkscape:connector-curvature="0"
       id="path14"
       d="m -43.693424,27.050847 c 1.5947,0 3.1096,-1.0531 3.0099,-2.1875 v -1.4967 h 1.102 c 1.139,0.001 2.056,-1.02 2.056,-2.614 v -0.82237 c 0,-1.595 -0.917,-2.879 -2.056,-2.879 h -0.944 v 1.6447 c 0,0.91118 -1.023,1.5132 -1.9342,1.5132 h -3.2895 c 0,0 -1.776,0.197 -1.776,1.842 v 2.8125 c 0,1.139 1.415,2.188 3.01,2.188 z m 1.168,-1.579 c -0.43602,0 -0.78947,-0.35346 -0.78947,-0.78947 0,-0.43601 0.35346,-0.78947 0.78947,-0.78947 0.43602,0 0.78947,0.35346 0.78947,0.78947 0,0.43602 -0.35346,0.78947 -0.78947,0.78947 z" />
  </g>
</svg>
