<?xml version="1.0" encoding="UTF-8" standalone="no"?>
<svg
   xmlns:dc="http://purl.org/dc/elements/1.1/"
   xmlns:cc="http://creativecommons.org/ns#"
   xmlns:rdf="http://www.w3.org/1999/02/22-rdf-syntax-ns#"
   xmlns:svg="http://www.w3.org/2000/svg"
   xmlns="http://www.w3.org/2000/svg"
   xmlns:sodipodi="http://sodipodi.sourceforge.net/DTD/sodipodi-0.dtd"
   xmlns:inkscape="http://www.inkscape.org/namespaces/inkscape"
   width="32"
   height="32"
   version="1"
   id="svg14"
   sodipodi:docname="text-x-r-source.svg"
   inkscape:version="0.92.1 r">
  <metadata
     id="metadata20">
    <rdf:RDF>
      <cc:Work
         rdf:about="">
        <dc:format>image/svg+xml</dc:format>
        <dc:type
           rdf:resource="http://purl.org/dc/dcmitype/StillImage" />
      </cc:Work>
    </rdf:RDF>
  </metadata>
  <defs
     id="defs18" />
  <sodipodi:namedview
     pagecolor="#ffffff"
     bordercolor="#666666"
     borderopacity="1"
     objecttolerance="10"
     gridtolerance="10"
     guidetolerance="10"
     inkscape:pageopacity="0"
     inkscape:pageshadow="2"
     inkscape:window-width="1680"
     inkscape:window-height="978"
     id="namedview16"
     showgrid="false"
     inkscape:zoom="7.375"
     inkscape:cx="-8.6779661"
     inkscape:cy="16"
     inkscape:window-x="0"
     inkscape:window-y="0"
     inkscape:window-maximized="1"
     inkscape:current-layer="svg14" />
  <g
     id="g4509"
     transform="translate(44.474576,-4.2033899)">
    <path
       inkscape:connector-curvature="0"
       id="path4508"
       d="m -23.287595,6.2033898 h -13.65097 c -3.066406,0 -5.536011,2.4676663 -5.536011,5.5340722 v 16.929917 c 0,3.066406 2.469605,5.536011 5.536011,5.536011 h 16.929917 c 3.066406,0 5.534072,-2.469605 5.534072,-5.536011 v -13.65097 z"
       style="opacity:1;fill:#cccccc;fill-opacity:1;fill-rule:evenodd;stroke:none;stroke-width:1.02788651;stroke-linecap:round;stroke-linejoin:bevel;stroke-miterlimit:4;stroke-dasharray:none;stroke-dashoffset:0;stroke-opacity:1" />
    <path
       inkscape:connector-curvature="0"
       id="rect4497-3"
       d="m -14.474576,15.016409 -8.813019,-8.8130191 v 3.2789473 c 0,3.0664058 2.467666,5.5340718 5.534072,5.5340718 z"
       style="opacity:0.17600002;fill:#000000;fill-opacity:1;fill-rule:evenodd;stroke:none;stroke-width:1.02788651;stroke-linecap:round;stroke-linejoin:bevel;stroke-miterlimit:4;stroke-dasharray:none;stroke-dashoffset:0;stroke-opacity:1" />
  </g>
  <path
     d="m 18.599957,18.584996 c 0,0 0.38714,-0.111 0.77325,0.086 0.13398,0.068 0.36578,0.2053 0.53299,0.3847 0.16379,0.1758 0.24365,0.3539 0.24365,0.3539 l 2.35,4.675 h -5 c 0,0 -1.117,-3.266 -2.163,-4.664 -0.208,-0.17 -0.382,-0.352 -0.587,-0.336 h -1.2503 l 6.06e-4,4.9973 h -4 v -13.997 h 7.5785 c 0.8215,0 4.3,0.5 4.4215,4 -0.1215,3.5 -2.9,4.5 -2.9,4.5 z m -5.0997,-5.5009 v 3.0009 h 3 c 0,0 1,0.036 1,-1.5 0,-1.6134 -1,-1.4991 -1,-1.4991 z"
     id="path12"
     inkscape:connector-curvature="0"
     style="opacity:0.5;fill-rule:evenodd" />
</svg>
