<?xml version="1.0" encoding="UTF-8" standalone="no"?>
<svg
   xmlns:dc="http://purl.org/dc/elements/1.1/"
   xmlns:cc="http://creativecommons.org/ns#"
   xmlns:rdf="http://www.w3.org/1999/02/22-rdf-syntax-ns#"
   xmlns:svg="http://www.w3.org/2000/svg"
   xmlns="http://www.w3.org/2000/svg"
   xmlns:sodipodi="http://sodipodi.sourceforge.net/DTD/sodipodi-0.dtd"
   xmlns:inkscape="http://www.inkscape.org/namespaces/inkscape"
   width="32"
   height="32"
   version="1.1"
   id="svg14"
   sodipodi:docname="application-vnd.tcpdump.pcap.svg"
   inkscape:version="0.92.1 r">
  <metadata
     id="metadata20">
    <rdf:RDF>
      <cc:Work
         rdf:about="">
        <dc:format>image/svg+xml</dc:format>
        <dc:type
           rdf:resource="http://purl.org/dc/dcmitype/StillImage" />
      </cc:Work>
    </rdf:RDF>
  </metadata>
  <defs
     id="defs18" />
  <sodipodi:namedview
     pagecolor="#ffffff"
     bordercolor="#666666"
     borderopacity="1"
     objecttolerance="10"
     gridtolerance="10"
     guidetolerance="10"
     inkscape:pageopacity="0"
     inkscape:pageshadow="2"
     inkscape:window-width="1680"
     inkscape:window-height="978"
     id="namedview16"
     showgrid="false"
     inkscape:zoom="7.375"
     inkscape:cx="-9.7627119"
     inkscape:cy="16"
     inkscape:window-x="0"
     inkscape:window-y="0"
     inkscape:window-maximized="1"
     inkscape:current-layer="svg14" />
  <g
     id="g4509"
     transform="translate(40.813559,14.915254)">
    <path
       inkscape:connector-curvature="0"
       id="path4508"
       d="m -19.626578,-12.915254 h -13.65097 c -3.066406,0 -5.536011,2.467666 -5.536011,5.5340719 V 9.5487348 c 0,3.0664062 2.469605,5.5360112 5.536011,5.5360112 h 16.929917 c 3.066406,0 5.534072,-2.469605 5.534072,-5.5360112 V -4.1022351 Z"
       style="opacity:1;fill:#cccccc;fill-opacity:1;fill-rule:evenodd;stroke:none;stroke-width:1.02788651;stroke-linecap:round;stroke-linejoin:bevel;stroke-miterlimit:4;stroke-dasharray:none;stroke-dashoffset:0;stroke-opacity:1" />
    <path
       inkscape:connector-curvature="0"
       id="rect4497-3"
       d="m -10.813559,-4.1022351 -8.813019,-8.8130189 v 3.2789472 c 0,3.0664056 2.467666,5.5340717 5.534072,5.5340717 z"
       style="opacity:0.17600002;fill:#000000;fill-opacity:1;fill-rule:evenodd;stroke:none;stroke-width:1.02788651;stroke-linecap:round;stroke-linejoin:bevel;stroke-miterlimit:4;stroke-dasharray:none;stroke-dashoffset:0;stroke-opacity:1" />
  </g>
  <path
     style="opacity:1;fill:#808080;stroke-width:1"
     d="m 8.7421307,6.8559323 c -0.2609031,0 -0.4709443,0.2100413 -0.4709443,0.4709443 v 2.8256654 c 0,0.260903 0.2100412,0.470945 0.4709443,0.470945 h 1.8837773 c 0.260903,0 0.470944,-0.210042 0.470944,-0.470945 V 7.3268766 c 0,-0.260903 -0.210041,-0.4709443 -0.470944,-0.4709443 z m 4.4739703,0 c -0.130922,0 -0.235472,0.1050206 -0.235472,0.2354722 v 3.2966105 c 0,0.130451 0.10455,0.235472 0.235472,0.235472 h 0.470945 c 0.130922,0 0.235472,-0.105021 0.235472,-0.235472 V 7.0914045 c 0,-0.1304516 -0.10455,-0.2354722 -0.235472,-0.2354722 z m 1.883777,0 c -0.130922,0 -0.235472,0.1050206 -0.235472,0.2354722 v 3.2966105 c 0,0.130451 0.10455,0.235472 0.235472,0.235472 h 0.470945 c 0.130922,0 0.235472,-0.105021 0.235472,-0.235472 V 7.0914045 c 0,-0.1304516 -0.10455,-0.2354722 -0.235472,-0.2354722 z m 2.11925,0 c -0.260903,0 -0.470944,0.2100413 -0.470944,0.4709443 v 2.8256654 c 0,0.260903 0.210041,0.470945 0.470944,0.470945 h 1.883777 c 0.260903,0 0.470944,-0.210042 0.470944,-0.470945 V 7.3268766 c 0,-0.260903 -0.210041,-0.4709443 -0.470944,-0.4709443 z M 9.213075,7.7978209 h 0.941889 V 9.6815983 H 9.213075 Z m 8.476997,0 h 0.941889 V 9.6815983 H 17.690072 Z M 9.4485472,12.507264 c -0.1304516,0 -0.2354722,0.104549 -0.2354722,0.235472 v 3.29661 c 0,0.130923 0.1050206,0.235472 0.2354722,0.235472 h 0.4709443 c 0.1304515,0 0.2354725,-0.104549 0.2354725,-0.235472 v -3.29661 c 0,-0.130923 -0.105021,-0.235472 -0.2354725,-0.235472 z m 3.0611378,0 c -0.260903,0 -0.470945,0.210041 -0.470945,0.470944 v 2.825666 c 0,0.260903 0.210042,0.470944 0.470945,0.470944 h 1.883777 c 0.260903,0 0.470944,-0.210041 0.470944,-0.470944 v -2.825666 c 0,-0.260903 -0.210041,-0.470944 -0.470944,-0.470944 z m 4.473971,0 c -0.130923,0 -0.235472,0.104549 -0.235472,0.235472 v 3.29661 c 0,0.130923 0.104549,0.235472 0.235472,0.235472 H 17.4546 c 0.130923,0 0.235472,-0.104549 0.235472,-0.235472 v -3.29661 c 0,-0.130923 -0.104549,-0.235472 -0.235472,-0.235472 z m 1.883777,0 c -0.130923,0 -0.235472,0.104549 -0.235472,0.235472 v 3.29661 c 0,0.130923 0.104549,0.235472 0.235472,0.235472 h 0.470944 c 0.130923,0 0.235472,-0.104549 0.235472,-0.235472 v -3.29661 c 0,-0.130923 -0.104549,-0.235472 -0.235472,-0.235472 z m 2.119249,0 c -0.260903,0 -0.470944,0.210041 -0.470944,0.470944 v 2.825666 c 0,0.260903 0.210041,0.470944 0.470944,0.470944 h 1.883778 c 0.260903,0 0.470944,-0.210041 0.470944,-0.470944 v -2.825666 c 0,-0.260903 -0.210041,-0.470944 -0.470944,-0.470944 z m -8.006053,0.941888 h 0.941889 v 1.883778 h -0.941889 z m 8.476998,0 h 0.941888 V 15.33293 H 21.457627 Z M 8.7421307,17.216707 c -0.2609031,0 -0.4709443,0.210041 -0.4709443,0.470944 v 2.825666 c 0,0.260903 0.2100412,0.470944 0.4709443,0.470944 h 1.8837773 c 0.260903,0 0.470944,-0.210041 0.470944,-0.470944 v -2.825666 c 0,-0.260903 -0.210041,-0.470944 -0.470944,-0.470944 z m 3.7675543,0 c -0.260903,0 -0.470945,0.210041 -0.470945,0.470944 v 2.825666 c 0,0.260903 0.210042,0.470944 0.470945,0.470944 h 1.883777 c 0.260903,0 0.470944,-0.210041 0.470944,-0.470944 v -2.825666 c 0,-0.260903 -0.210041,-0.470944 -0.470944,-0.470944 z m 4.473971,0 c -0.130923,0 -0.235472,0.104549 -0.235472,0.235472 v 3.29661 c 0,0.130923 0.104549,0.235472 0.235472,0.235472 H 17.4546 c 0.130923,0 0.235472,-0.104549 0.235472,-0.235472 v -3.29661 c 0,-0.130923 -0.104549,-0.235472 -0.235472,-0.235472 z m 1.883777,0 c -0.130923,0 -0.235472,0.104549 -0.235472,0.235472 v 3.29661 c 0,0.130923 0.104549,0.235472 0.235472,0.235472 h 0.470944 c 0.130923,0 0.235472,-0.104549 0.235472,-0.235472 v -3.29661 c 0,-0.130923 -0.104549,-0.235472 -0.235472,-0.235472 z m 2.119249,0 c -0.260903,0 -0.470944,0.210041 -0.470944,0.470944 v 2.825666 c 0,0.260903 0.210041,0.470944 0.470944,0.470944 h 1.883778 c 0.260903,0 0.470944,-0.210041 0.470944,-0.470944 v -2.825666 c 0,-0.260903 -0.210041,-0.470944 -0.470944,-0.470944 z M 9.213075,18.158595 h 0.941889 v 1.883778 H 9.213075 Z m 3.767554,0 h 0.941889 v 1.883778 h -0.941889 z m 8.476998,0 h 0.941888 v 1.883778 H 21.457627 Z M 8.7421307,22.868039 c -0.2609031,0 -0.4709443,0.210041 -0.4709443,0.470944 v 2.825666 c 0,0.260903 0.2100412,0.470944 0.4709443,0.470944 h 1.8837773 c 0.260903,0 0.470944,-0.210041 0.470944,-0.470944 v -2.825666 c 0,-0.260903 -0.210041,-0.470944 -0.470944,-0.470944 z m 4.4739703,0 c -0.130922,0 -0.235472,0.104549 -0.235472,0.235472 v 3.29661 c 0,0.129981 0.10455,0.235472 0.235472,0.235472 h 0.470945 c 0.130922,0 0.235472,-0.10455 0.235472,-0.235472 v -3.29661 c 0,-0.129981 -0.10455,-0.235472 -0.235472,-0.235472 z m 1.883777,0 c -0.130922,0 -0.235472,0.104549 -0.235472,0.235472 v 3.29661 c 0,0.129981 0.10455,0.235472 0.235472,0.235472 h 0.470945 c 0.130922,0 0.235472,-0.10455 0.235472,-0.235472 v -3.29661 c 0,-0.129981 -0.10455,-0.235472 -0.235472,-0.235472 z m 2.11925,0 c -0.260903,0 -0.470944,0.210041 -0.470944,0.470944 v 2.825666 c 0,0.260903 0.210041,0.470944 0.470944,0.470944 h 1.883777 c 0.260903,0 0.470944,-0.210041 0.470944,-0.470944 v -2.825666 c 0,-0.260903 -0.210041,-0.470944 -0.470944,-0.470944 z m 4.473971,0 c -0.129981,0 -0.235472,0.104549 -0.235472,0.235472 v 3.29661 c 0,0.129981 0.104549,0.235472 0.235472,0.235472 h 0.470944 c 0.129981,0 0.235472,-0.10455 0.235472,-0.235472 v -3.29661 c 0,-0.129981 -0.104549,-0.235472 -0.235472,-0.235472 z M 9.213075,23.809927 h 0.941889 v 1.883777 H 9.213075 Z m 8.476997,0 h 0.941889 v 1.883777 h -0.941889 z"
     id="path8"
     inkscape:connector-curvature="0" />
</svg>
