<?xml version="1.0" encoding="UTF-8"?>
<svg xmlns="http://www.w3.org/2000/svg" xmlns:xlink="http://www.w3.org/1999/xlink" width="36pt" height="36pt" viewBox="0 0 36 36" version="1.1">
<g id="surface1">
<path style=" stroke:none;fill-rule:nonzero;fill:rgb(60.392157%,60.392157%,60.392157%);fill-opacity:1;" d="M 31.390625 7.566406 C 32.707031 7.566406 33.765625 8.625 33.765625 9.941406 L 33.765625 29.753906 C 33.765625 31.066406 32.707031 32.125 31.390625 32.125 L 4.609375 32.125 C 3.292969 32.125 2.234375 31.066406 2.234375 29.753906 L 2.234375 11.476562 L 2.238281 5.777344 C 2.238281 4.722656 3.085938 3.875 4.140625 3.875 L 14.367188 3.875 C 15.421875 3.875 16.285156 4.292969 16.957031 5.105469 L 18.984375 7.574219 Z M 31.390625 7.566406 "/>
<path style=" stroke:none;fill-rule:nonzero;fill:rgb(21.176471%,21.176471%,21.176471%);fill-opacity:1;" d="M 18 14.054688 C 17.148438 14.054688 16.449219 14.375 15.957031 14.839844 C 15.511719 15.265625 15.242188 15.789062 15.050781 16.304688 L 16.273438 16.304688 C 16.402344 16.058594 16.546875 15.828125 16.730469 15.65625 C 17.039062 15.363281 17.410156 15.179688 18 15.179688 C 18.589844 15.179688 18.960938 15.363281 19.269531 15.65625 C 19.574219 15.949219 19.804688 16.371094 19.957031 16.820312 C 20.234375 17.640625 20.242188 18.40625 20.242188 18.554688 L 14.0625 18.554688 C 13.75 18.554688 13.5 18.804688 13.5 19.117188 L 13.5 24.742188 C 13.5 25.050781 13.75 25.304688 14.0625 25.304688 L 21.9375 25.304688 C 22.25 25.304688 22.5 25.050781 22.5 24.742188 L 22.5 19.117188 C 22.5 18.804688 22.25 18.554688 21.9375 18.554688 L 21.367188 18.554688 C 21.371094 18.382812 21.367188 17.488281 21.023438 16.460938 C 20.832031 15.898438 20.535156 15.308594 20.042969 14.839844 C 19.550781 14.375 18.851562 14.054688 18 14.054688 Z M 18 14.054688 "/>
</g>
</svg>
