<?xml version="1.0" encoding="UTF-8"?>
<svg xmlns="http://www.w3.org/2000/svg" xmlns:xlink="http://www.w3.org/1999/xlink" width="36pt" height="36pt" viewBox="0 0 36 36" version="1.1">
<g id="surface1">
<path style=" stroke:none;fill-rule:nonzero;fill:rgb(32.156863%,58.039216%,88.627451%);fill-opacity:1;" d="M 31.390625 7.566406 C 32.707031 7.566406 33.765625 8.625 33.765625 9.941406 L 33.765625 29.753906 C 33.765625 31.066406 32.707031 32.125 31.390625 32.125 L 4.609375 32.125 C 3.292969 32.125 2.234375 31.066406 2.234375 29.753906 L 2.234375 11.476562 L 2.238281 5.777344 C 2.238281 4.722656 3.085938 3.875 4.140625 3.875 L 14.367188 3.875 C 15.421875 3.875 16.285156 4.292969 16.957031 5.105469 L 18.984375 7.574219 Z M 31.390625 7.566406 "/>
<path style=" stroke:none;fill-rule:nonzero;fill:rgb(11.372549%,20.392157%,30.980392%);fill-opacity:1;" d="M 18 13.03125 C 16.132812 13.03125 14.625 14.496094 14.625 16.40625 L 15.75 16.40625 C 15.75 15.171875 16.75 14.15625 18 14.15625 C 19.25 14.15625 20.25 15.171875 20.25 16.40625 L 20.25 18.65625 L 14.0625 18.65625 C 13.75 18.65625 13.5 18.910156 13.5 19.21875 L 13.5 24.84375 C 13.5 25.15625 13.75 25.40625 14.0625 25.40625 L 21.9375 25.40625 C 22.25 25.40625 22.5 25.15625 22.5 24.84375 L 22.5 19.21875 C 22.5 18.910156 22.25 18.65625 21.9375 18.65625 L 21.375 18.65625 L 21.375 16.40625 C 21.375 14.496094 19.867188 13.03125 18 13.03125 Z M 18 13.03125 "/>
</g>
</svg>
