<?xml version="1.0" encoding="UTF-8"?>
<svg xmlns="http://www.w3.org/2000/svg" xmlns:xlink="http://www.w3.org/1999/xlink" width="36pt" height="36pt" viewBox="0 0 36 36" version="1.1">
<g id="surface1">
<path style=" stroke:none;fill-rule:nonzero;fill:rgb(52.156863%,41.960784%,20.784314%);fill-opacity:1;" d="M 31.390625 7.566406 C 32.707031 7.566406 33.765625 8.625 33.765625 9.941406 L 33.765625 29.753906 C 33.765625 31.066406 32.707031 32.125 31.390625 32.125 L 4.609375 32.125 C 3.292969 32.125 2.234375 31.066406 2.234375 29.753906 L 2.234375 11.476562 L 2.238281 5.777344 C 2.238281 4.722656 3.085938 3.875 4.140625 3.875 L 14.367188 3.875 C 15.421875 3.875 16.285156 4.292969 16.957031 5.105469 L 18.984375 7.574219 Z M 31.390625 7.566406 "/>
<path style=" stroke:none;fill-rule:nonzero;fill:rgb(18.039216%,14.509804%,7.058824%);fill-opacity:1;" d="M 18 13.574219 C 17.148438 13.574219 16.449219 13.898438 15.957031 14.363281 C 15.511719 14.789062 15.242188 15.3125 15.050781 15.824219 L 16.273438 15.824219 C 16.402344 15.582031 16.546875 15.351562 16.730469 15.175781 C 17.039062 14.886719 17.410156 14.699219 18 14.699219 C 18.589844 14.699219 18.960938 14.886719 19.269531 15.175781 C 19.574219 15.46875 19.804688 15.894531 19.957031 16.34375 C 20.234375 17.164062 20.242188 17.929688 20.242188 18.074219 L 14.0625 18.074219 C 13.75 18.074219 13.5 18.328125 13.5 18.636719 L 13.5 24.261719 C 13.5 24.574219 13.75 24.824219 14.0625 24.824219 L 21.9375 24.824219 C 22.25 24.824219 22.5 24.574219 22.5 24.261719 L 22.5 18.636719 C 22.5 18.328125 22.25 18.074219 21.9375 18.074219 L 21.367188 18.074219 C 21.371094 17.90625 21.367188 17.007812 21.023438 15.984375 C 20.832031 15.421875 20.535156 14.832031 20.042969 14.363281 C 19.550781 13.898438 18.851562 13.574219 18 13.574219 Z M 18 13.574219 "/>
</g>
</svg>
