<?xml version="1.0" encoding="UTF-8"?>
<svg xmlns="http://www.w3.org/2000/svg" xmlns:xlink="http://www.w3.org/1999/xlink" width="36pt" height="36pt" viewBox="0 0 36 36" version="1.1">
<g id="surface1">
<path style=" stroke:none;fill-rule:nonzero;fill:rgb(88.627451%,32.156863%,32.156863%);fill-opacity:1;" d="M 31.390625 7.566406 C 32.707031 7.566406 33.765625 8.625 33.765625 9.941406 L 33.765625 29.753906 C 33.765625 31.066406 32.707031 32.125 31.390625 32.125 L 4.609375 32.125 C 3.292969 32.125 2.234375 31.066406 2.234375 29.753906 L 2.234375 11.476562 L 2.238281 5.777344 C 2.238281 4.722656 3.085938 3.875 4.140625 3.875 L 14.367188 3.875 C 15.421875 3.875 16.285156 4.292969 16.957031 5.105469 L 18.984375 7.574219 Z M 31.390625 7.566406 "/>
<path style=" stroke:none;fill-rule:nonzero;fill:rgb(0%,0%,0%);fill-opacity:0.65098;" d="M 18 14.054688 C 14.894531 14.054688 12.375 16.570312 12.375 19.679688 C 12.375 22.785156 14.894531 25.304688 18 25.304688 C 21.105469 25.304688 23.625 22.785156 23.625 19.679688 C 23.625 16.570312 21.105469 14.054688 18 14.054688 Z M 16.875 16.304688 L 19.125 16.304688 L 19.125 20.804688 L 16.875 20.804688 Z M 18 21.929688 C 18.621094 21.929688 19.125 22.433594 19.125 23.054688 C 19.125 23.675781 18.621094 24.179688 18 24.179688 C 17.378906 24.179688 16.875 23.675781 16.875 23.054688 C 16.875 22.433594 17.378906 21.929688 18 21.929688 Z M 18 21.929688 "/>
</g>
</svg>
