<?xml version="1.0" encoding="UTF-8"?>
<svg xmlns="http://www.w3.org/2000/svg" xmlns:xlink="http://www.w3.org/1999/xlink" width="36pt" height="36pt" viewBox="0 0 36 36" version="1.1">
<defs>
<clipPath id="clip1">
  <rect width="36" height="36"/>
</clipPath>
<g id="surface6" clip-path="url(#clip1)">
<path style=" stroke:none;fill-rule:nonzero;fill:rgb(0%,0%,0%);fill-opacity:0.65098;" d="M 18 14.96875 C 14.894531 14.96875 12.375 17.488281 12.375 20.59375 C 12.375 23.699219 14.894531 26.21875 18 26.21875 C 21.105469 26.21875 23.625 23.699219 23.625 20.59375 C 23.625 17.488281 21.105469 14.96875 18 14.96875 Z M 17.597656 16.523438 C 17.652344 16.519531 17.71875 16.527344 17.773438 16.523438 C 17.78125 16.550781 17.734375 16.640625 17.671875 16.777344 C 17.28125 17.628906 17.261719 18.628906 17.625 19.160156 C 17.6875 19.257812 17.75 19.351562 17.75 19.363281 C 17.75 19.375 17.679688 19.386719 17.597656 19.386719 C 17.410156 19.386719 17.234375 19.273438 16.871094 18.984375 C 16.707031 18.859375 16.5 18.75 16.417969 18.734375 C 16.289062 18.710938 16.257812 18.71875 16.089844 18.886719 C 15.9375 19.039062 15.890625 19.121094 15.890625 19.261719 C 15.890625 19.796875 16.523438 20.21875 17.699219 20.46875 C 19.296875 20.804688 19.6875 21.109375 19.734375 21.949219 C 19.789062 23 19.226562 23.796875 18 24.410156 C 17.851562 24.484375 17.761719 24.511719 17.699219 24.535156 C 17.671875 24.535156 17.652344 24.539062 17.625 24.535156 C 17.613281 24.503906 17.597656 24.425781 17.597656 24.285156 C 17.597656 23.726562 17.378906 23.148438 17.046875 22.828125 C 16.957031 22.742188 16.707031 22.558594 16.492188 22.425781 C 16.28125 22.292969 16.0625 22.140625 16.015625 22.074219 C 15.9375 21.964844 15.929688 21.898438 15.992188 21.699219 C 16.101562 21.332031 16.234375 21.125 16.492188 20.894531 C 16.628906 20.773438 16.765625 20.671875 16.792969 20.667969 C 16.824219 20.667969 16.621094 20.605469 16.316406 20.542969 C 16.011719 20.480469 15.570312 20.351562 15.339844 20.265625 C 14.917969 20.113281 14.347656 19.796875 14.132812 19.5625 C 14.125 19.554688 14.117188 19.546875 14.109375 19.539062 C 14.417969 18.300781 15.289062 17.289062 16.441406 16.800781 C 16.683594 16.699219 16.933594 16.628906 17.195312 16.574219 C 17.328125 16.546875 17.464844 16.539062 17.597656 16.523438 Z M 21.363281 18.410156 C 21.460938 18.46875 21.816406 19.238281 21.917969 19.613281 C 22.046875 20.097656 22.039062 20.941406 21.917969 21.421875 C 21.871094 21.605469 21.8125 21.777344 21.792969 21.796875 C 21.773438 21.820312 21.699219 21.695312 21.617188 21.546875 C 21.53125 21.398438 21.261719 21.082031 21.039062 20.84375 C 20.390625 20.164062 20.289062 19.804688 20.5625 19.261719 C 20.699219 18.988281 21.292969 18.363281 21.363281 18.410156 Z M 21.363281 18.410156 "/>
</g>
</defs>
<g id="surface1">
<path style=" stroke:none;fill-rule:nonzero;fill:rgb(36.078431%,64.705882%,26.27451%);fill-opacity:1;" d="M 31.390625 7.566406 C 32.707031 7.566406 33.765625 8.625 33.765625 9.941406 L 33.765625 29.753906 C 33.765625 31.066406 32.707031 32.125 31.390625 32.125 L 4.609375 32.125 C 3.292969 32.125 2.234375 31.066406 2.234375 29.753906 L 2.234375 11.476562 L 2.238281 5.777344 C 2.238281 4.722656 3.085938 3.875 4.140625 3.875 L 14.367188 3.875 C 15.421875 3.875 16.285156 4.292969 16.957031 5.105469 L 18.984375 7.574219 Z M 31.390625 7.566406 "/>
<use xlink:href="#surface6"/>
</g>
</svg>
