<?xml version="1.0" encoding="UTF-8"?>
<svg xmlns="http://www.w3.org/2000/svg" xmlns:xlink="http://www.w3.org/1999/xlink" width="36pt" height="36pt" viewBox="0 0 36 36" version="1.1">
<g id="surface1">
<path style=" stroke:none;fill-rule:nonzero;fill:rgb(30.980392%,30.980392%,30.980392%);fill-opacity:1;" d="M 31.390625 7.566406 C 32.707031 7.566406 33.765625 8.625 33.765625 9.941406 L 33.765625 29.753906 C 33.765625 31.066406 32.707031 32.125 31.390625 32.125 L 4.609375 32.125 C 3.292969 32.125 2.234375 31.066406 2.234375 29.753906 L 2.234375 11.476562 L 2.238281 5.777344 C 2.238281 4.722656 3.085938 3.875 4.140625 3.875 L 14.367188 3.875 C 15.421875 3.875 16.285156 4.292969 16.957031 5.105469 L 18.984375 7.574219 Z M 31.390625 7.566406 "/>
<path style=" stroke:none;fill-rule:nonzero;fill:rgb(0%,0%,0%);fill-opacity:0.65098;" d="M 14.625 14.664062 L 14.625 16.914062 L 21.375 16.914062 L 21.375 14.664062 Z M 13.179688 18.039062 C 12.777344 18.039062 12.375 18.429688 12.375 18.824219 L 12.375 21.75 C 12.375 22.144531 12.777344 22.539062 13.179688 22.539062 L 14.625 22.539062 L 14.625 25.914062 L 21.375 25.914062 L 21.375 22.539062 L 22.820312 22.539062 C 23.222656 22.539062 23.625 22.144531 23.625 21.75 L 23.625 18.824219 C 23.625 18.429688 23.222656 18.039062 22.820312 18.039062 Z M 14.625 20.289062 L 21.375 20.289062 L 21.375 21.414062 L 14.625 21.414062 Z M 14.625 20.289062 "/>
</g>
</svg>
