<?xml version="1.0" encoding="UTF-8"?>
<svg xmlns="http://www.w3.org/2000/svg" xmlns:xlink="http://www.w3.org/1999/xlink" width="36pt" height="36pt" viewBox="0 0 36 36" version="1.1">
<defs>
<filter id="alpha" filterUnits="objectBoundingBox" x="0%" y="0%" width="100%" height="100%">
  <feColorMatrix type="matrix" in="SourceGraphic" values="0 0 0 0 1 0 0 0 0 1 0 0 0 0 1 0 0 0 1 0"/>
</filter>
<mask id="mask0">
  <g filter="url(#alpha)">
<rect x="0" y="0" width="36" height="36" style="fill:rgb(0%,0%,0%);fill-opacity:0.65098;stroke:none;"/>
  </g>
</mask>
<clipPath id="clip1">
  <rect width="36" height="36"/>
</clipPath>
<g id="surface6" clip-path="url(#clip1)">
<path style=" stroke:none;fill-rule:nonzero;fill:rgb(0%,0%,0%);fill-opacity:0.65098;" d="M 16.875 8.09375 L 18 8.09375 Z M 18 8.09375 L 18 9.21875 L 19.125 9.21875 L 19.125 8.09375 Z M 18 9.21875 L 16.875 9.21875 L 16.875 10.34375 L 18 10.34375 Z M 18 10.34375 L 18 11.46875 L 19.125 11.46875 L 19.125 10.34375 Z M 18 11.46875 L 16.875 11.46875 L 16.875 12.59375 L 18 12.59375 Z M 18 12.59375 L 18 13.71875 C 18.621094 13.71875 19.125 13.15625 19.125 12.59375 Z M 18 12.59375 "/>
</g>
<mask id="mask1">
  <g filter="url(#alpha)">
<rect x="0" y="0" width="36" height="36" style="fill:rgb(0%,0%,0%);fill-opacity:0.65098;stroke:none;"/>
  </g>
</mask>
<clipPath id="clip2">
  <rect width="36" height="36"/>
</clipPath>
<g id="surface9" clip-path="url(#clip2)">
<path style=" stroke:none;fill-rule:nonzero;fill:rgb(0%,0%,0%);fill-opacity:0.65098;" d="M 18 13.71875 C 16.757812 13.71875 15.75 14.730469 15.75 15.96875 L 15.75 20.46875 C 15.75 21.707031 16.757812 22.71875 18 22.71875 C 19.242188 22.71875 20.25 21.707031 20.25 20.46875 L 20.25 15.96875 C 20.25 14.730469 19.242188 13.71875 18 13.71875 Z M 18 14.84375 C 18.621094 14.84375 19.125 15.292969 19.125 15.96875 C 19.125 16.53125 18.621094 17.09375 18 17.09375 C 17.378906 17.09375 16.875 16.53125 16.875 15.96875 C 16.875 15.292969 17.378906 14.84375 18 14.84375 Z M 18 18.21875 C 18.621094 18.21875 19.125 18.667969 19.125 19.34375 L 19.125 20.46875 C 19.125 21.03125 18.621094 21.59375 18 21.59375 C 17.378906 21.59375 16.875 21.03125 16.875 20.46875 L 16.875 19.34375 C 16.875 18.667969 17.378906 18.21875 18 18.21875 Z M 18 18.21875 "/>
</g>
</defs>
<g id="surface1">
<path style=" stroke:none;fill-rule:nonzero;fill:rgb(15.686275%,61.960784%,63.137255%);fill-opacity:1;" d="M 31.390625 7.566406 C 32.707031 7.566406 33.765625 8.625 33.765625 9.941406 L 33.765625 29.753906 C 33.765625 31.066406 32.707031 32.125 31.390625 32.125 L 4.609375 32.125 C 3.292969 32.125 2.234375 31.066406 2.234375 29.753906 L 2.234375 11.476562 L 2.238281 5.777344 C 2.238281 4.722656 3.085938 3.875 4.140625 3.875 L 14.367188 3.875 C 15.421875 3.875 16.285156 4.292969 16.957031 5.105469 L 18.984375 7.574219 Z M 31.390625 7.566406 "/>
<use xlink:href="#surface6" mask="url(#mask0)"/>
<use xlink:href="#surface9" mask="url(#mask1)"/>
</g>
</svg>
