<?xml version="1.0" encoding="UTF-8"?>
<svg xmlns="http://www.w3.org/2000/svg" xmlns:xlink="http://www.w3.org/1999/xlink" width="36pt" height="36pt" viewBox="0 0 36 36" version="1.1">
<defs>
<clipPath id="clip1">
  <rect width="36" height="36"/>
</clipPath>
<g id="surface6" clip-path="url(#clip1)">
<path style=" stroke:none;fill-rule:nonzero;fill:rgb(0%,0%,0%);fill-opacity:0.65098;" d="M 16.3125 15.226562 L 16.3125 21.152344 C 15.96875 20.957031 15.582031 20.851562 15.1875 20.851562 C 13.945312 20.851562 12.9375 21.859375 12.9375 23.101562 C 12.9375 24.34375 13.945312 25.351562 15.1875 25.351562 C 16.429688 25.351562 17.4375 24.34375 17.4375 23.101562 L 17.4375 17.476562 L 21.9375 17.476562 L 21.9375 21.152344 C 21.59375 20.957031 21.207031 20.851562 20.8125 20.851562 C 19.570312 20.851562 18.5625 21.859375 18.5625 23.101562 C 18.5625 24.34375 19.570312 25.351562 20.8125 25.351562 C 22.054688 25.351562 23.0625 24.34375 23.0625 23.101562 L 23.0625 15.226562 Z M 16.3125 15.226562 "/>
</g>
</defs>
<g id="surface1">
<path style=" stroke:none;fill-rule:nonzero;fill:rgb(52.156863%,41.960784%,20.784314%);fill-opacity:1;" d="M 31.390625 7.566406 C 32.707031 7.566406 33.765625 8.625 33.765625 9.941406 L 33.765625 29.753906 C 33.765625 31.066406 32.707031 32.125 31.390625 32.125 L 4.609375 32.125 C 3.292969 32.125 2.234375 31.066406 2.234375 29.753906 L 2.234375 11.476562 L 2.238281 5.777344 C 2.238281 4.722656 3.085938 3.875 4.140625 3.875 L 14.367188 3.875 C 15.421875 3.875 16.285156 4.292969 16.957031 5.105469 L 18.984375 7.574219 Z M 31.390625 7.566406 "/>
<use xlink:href="#surface6"/>
</g>
</svg>
