<?xml version="1.0" encoding="UTF-8"?>
<svg xmlns="http://www.w3.org/2000/svg" xmlns:xlink="http://www.w3.org/1999/xlink" width="36pt" height="36pt" viewBox="0 0 36 36" version="1.1">
<defs>
<clipPath id="clip1">
  <rect width="36" height="36"/>
</clipPath>
<g id="surface6" clip-path="url(#clip1)">
<path style=" stroke:none;fill-rule:nonzero;fill:rgb(0%,0%,0%);fill-opacity:0.65098;" d="M 18 12.777344 C 14.273438 12.777344 11.25 15.796875 11.25 19.527344 C 11.25 23.253906 14.273438 26.277344 18 26.277344 L 22.21875 26.277344 C 22.21875 26.277344 23.011719 25.9375 23.0625 25.09375 C 23.0625 24.25 22.21875 24.027344 22.21875 24.027344 L 18 24.027344 C 17.78125 24.023438 17.5625 24.007812 17.34375 23.972656 C 16.558594 23.882812 15.933594 23.636719 15.460938 23.238281 L 15.453125 23.234375 C 14.230469 22.394531 13.5 21.007812 13.5 19.527344 C 13.5 17.039062 15.515625 15.027344 18 15.027344 C 20.484375 15.027344 22.5 17.039062 22.5 19.527344 C 22.5 20.035156 22.394531 20.363281 22.230469 20.652344 C 22.226562 20.652344 22.222656 20.652344 22.21875 20.652344 L 21.167969 20.652344 C 21.292969 20.296875 21.375 19.921875 21.375 19.527344 C 21.375 17.660156 19.863281 16.152344 18 16.152344 C 16.136719 16.152344 14.625 17.660156 14.625 19.527344 C 14.625 21.390625 16.136719 22.902344 18 22.902344 L 22.21875 22.902344 C 22.828125 22.84375 23.257812 22.484375 23.648438 22.253906 C 24.503906 21.640625 24.75 20.777344 24.75 19.523438 C 24.75 15.796875 21.726562 12.773438 18 12.773438 Z M 18 18.402344 C 18.621094 18.402344 19.125 18.902344 19.125 19.527344 C 19.125 20.148438 18.621094 20.652344 18 20.652344 C 17.378906 20.652344 16.875 20.148438 16.875 19.527344 C 16.875 18.902344 17.378906 18.402344 18 18.402344 Z M 18 18.402344 "/>
</g>
</defs>
<g id="surface1">
<path style=" stroke:none;fill-rule:nonzero;fill:rgb(88.627451%,32.156863%,32.156863%);fill-opacity:1;" d="M 31.390625 7.566406 C 32.707031 7.566406 33.765625 8.625 33.765625 9.941406 L 33.765625 29.753906 C 33.765625 31.066406 32.707031 32.125 31.390625 32.125 L 4.609375 32.125 C 3.292969 32.125 2.234375 31.066406 2.234375 29.753906 L 2.234375 11.476562 L 2.238281 5.777344 C 2.238281 4.722656 3.085938 3.875 4.140625 3.875 L 14.367188 3.875 C 15.421875 3.875 16.285156 4.292969 16.957031 5.105469 L 18.984375 7.574219 Z M 31.390625 7.566406 "/>
<use xlink:href="#surface6"/>
</g>
</svg>
