<?xml version="1.0" encoding="UTF-8"?>
<svg xmlns="http://www.w3.org/2000/svg" xmlns:xlink="http://www.w3.org/1999/xlink" width="36pt" height="36pt" viewBox="0 0 36 36" version="1.1">
<g id="surface1">
<path style=" stroke:none;fill-rule:nonzero;fill:rgb(52.156863%,41.960784%,20.784314%);fill-opacity:1;" d="M 31.390625 7.566406 C 32.707031 7.566406 33.765625 8.625 33.765625 9.941406 L 33.765625 29.753906 C 33.765625 31.066406 32.707031 32.125 31.390625 32.125 L 4.609375 32.125 C 3.292969 32.125 2.234375 31.066406 2.234375 29.753906 L 2.234375 11.476562 L 2.238281 5.777344 C 2.238281 4.722656 3.085938 3.875 4.140625 3.875 L 14.367188 3.875 C 15.421875 3.875 16.285156 4.292969 16.957031 5.105469 L 18.984375 7.574219 Z M 31.390625 7.566406 "/>
<path style=" stroke:none;fill-rule:nonzero;fill:rgb(0%,0%,0%);fill-opacity:0.65098;" d="M 17.996094 14.308594 C 16.417969 14.308594 15.132812 15.460938 15.085938 16.898438 C 15.046875 16.90625 15.007812 16.921875 14.972656 16.9375 C 14.609375 17.109375 14.515625 17.640625 14.761719 18.132812 C 14.964844 18.527344 15.316406 18.773438 15.640625 18.765625 C 15.882812 20.078125 16.847656 21.058594 17.996094 21.058594 L 18.003906 21.058594 C 19.152344 21.058594 20.117188 20.078125 20.359375 18.765625 C 20.683594 18.773438 21.035156 18.527344 21.238281 18.132812 C 21.484375 17.640625 21.390625 17.109375 21.027344 16.9375 C 20.992188 16.921875 20.953125 16.90625 20.914062 16.898438 C 20.867188 15.460938 19.582031 14.308594 18.003906 14.308594 Z M 19.765625 21.304688 C 19.625 21.496094 19.441406 21.671875 19.195312 21.804688 L 19.191406 21.804688 C 18.839844 22.046875 18.433594 22.183594 18.003906 22.183594 L 17.996094 22.183594 C 17.339844 22.183594 16.746094 21.859375 16.3125 21.339844 C 14.476562 21.609375 12.515625 22.003906 12.394531 22.449219 C 12.390625 22.457031 12.394531 22.464844 12.394531 22.472656 C 12.386719 22.492188 12.386719 22.515625 12.382812 22.535156 C 12.382812 22.546875 12.375 22.554688 12.375 22.566406 L 12.375 24.132812 C 12.375 24.300781 12.5 24.433594 12.65625 24.433594 L 23.34375 24.433594 C 23.5 24.433594 23.625 24.300781 23.625 24.132812 L 23.625 22.554688 C 23.625 22.519531 23.609375 22.488281 23.597656 22.449219 C 23.46875 21.984375 21.566406 21.578125 19.765625 21.304688 Z M 19.765625 21.304688 "/>
</g>
</svg>
