<?xml version="1.0" encoding="UTF-8"?>
<svg xmlns="http://www.w3.org/2000/svg" xmlns:xlink="http://www.w3.org/1999/xlink" width="36pt" height="36pt" viewBox="0 0 36 36" version="1.1">
<g id="surface1">
<path style=" stroke:none;fill-rule:nonzero;fill:rgb(60.392157%,60.392157%,60.392157%);fill-opacity:1;" d="M 31.390625 7.566406 C 32.707031 7.566406 33.765625 8.625 33.765625 9.941406 L 33.765625 29.753906 C 33.765625 31.066406 32.707031 32.125 31.390625 32.125 L 4.609375 32.125 C 3.292969 32.125 2.234375 31.066406 2.234375 29.753906 L 2.234375 11.476562 L 2.238281 5.777344 C 2.238281 4.722656 3.085938 3.875 4.140625 3.875 L 14.367188 3.875 C 15.421875 3.875 16.285156 4.292969 16.957031 5.105469 L 18.984375 7.574219 Z M 31.390625 7.566406 "/>
<path style=" stroke:none;fill-rule:nonzero;fill:rgb(0%,0%,0%);fill-opacity:0.65098;" d="M 14.292969 13.792969 L 13.496094 14.589844 L 14.792969 15.886719 C 14.683594 16.113281 14.628906 16.359375 14.628906 16.609375 C 14.628906 17.324219 15.078125 17.960938 15.753906 18.199219 L 15.753906 22.898438 C 15.078125 23.136719 14.628906 23.769531 14.628906 24.484375 C 14.628906 25.417969 15.382812 26.171875 16.316406 26.171875 C 17.246094 26.171875 18.003906 25.417969 18.003906 24.484375 C 18 23.769531 17.550781 23.136719 16.878906 22.898438 L 16.878906 18.199219 C 16.933594 18.179688 16.988281 18.15625 17.039062 18.132812 L 19.292969 20.382812 C 19.183594 20.609375 19.128906 20.859375 19.128906 21.109375 C 19.128906 22.042969 19.882812 22.796875 20.816406 22.796875 C 21.746094 22.796875 22.503906 22.042969 22.503906 21.109375 C 22.503906 20.179688 21.746094 19.421875 20.816406 19.421875 C 20.5625 19.425781 20.316406 19.480469 20.089844 19.589844 L 17.835938 17.335938 C 17.945312 17.109375 18 16.863281 18.003906 16.609375 C 18.003906 15.679688 17.246094 14.921875 16.316406 14.921875 C 16.0625 14.925781 15.816406 14.980469 15.589844 15.089844 Z M 14.292969 13.792969 "/>
</g>
</svg>
