<?xml version="1.0" encoding="UTF-8"?>
<svg xmlns="http://www.w3.org/2000/svg" xmlns:xlink="http://www.w3.org/1999/xlink" width="36pt" height="36pt" viewBox="0 0 36 36" version="1.1">
<g id="surface1">
<path style=" stroke:none;fill-rule:nonzero;fill:rgb(36.078431%,64.705882%,26.27451%);fill-opacity:1;" d="M 31.390625 7.566406 C 32.707031 7.566406 33.765625 8.625 33.765625 9.941406 L 33.765625 29.753906 C 33.765625 31.066406 32.707031 32.125 31.390625 32.125 L 4.609375 32.125 C 3.292969 32.125 2.234375 31.066406 2.234375 29.753906 L 2.234375 11.476562 L 2.238281 5.777344 C 2.238281 4.722656 3.085938 3.875 4.140625 3.875 L 14.367188 3.875 C 15.421875 3.875 16.285156 4.292969 16.957031 5.105469 L 18.984375 7.574219 Z M 31.390625 7.566406 "/>
<path style=" stroke:none;fill-rule:nonzero;fill:rgb(0%,0%,0%);fill-opacity:0.65098;" d="M 18.613281 22.453125 C 17.710938 22.871094 16.875 22.867188 16.3125 22.828125 C 15.640625 22.777344 15.101562 22.59375 14.863281 22.433594 C 14.71875 22.335938 14.519531 22.375 14.421875 22.519531 C 14.320312 22.667969 14.359375 22.867188 14.507812 22.964844 C 14.886719 23.222656 15.5625 23.414062 16.265625 23.464844 C 16.386719 23.472656 16.515625 23.480469 16.65625 23.480469 C 17.269531 23.480469 18.046875 23.421875 18.882812 23.035156 C 19.039062 22.957031 19.109375 22.769531 19.035156 22.609375 C 18.960938 22.449219 18.769531 22.378906 18.613281 22.453125 Z M 22.164062 21.980469 C 22.195312 19.203125 22.480469 13.957031 17.164062 14.382812 C 11.917969 14.804688 13.308594 20.347656 13.230469 22.203125 C 13.160156 23.1875 12.835938 24.386719 12.375 25.609375 L 13.792969 25.609375 C 13.9375 25.089844 14.046875 24.578125 14.09375 24.089844 C 14.179688 24.148438 14.269531 24.207031 14.367188 24.261719 C 14.527344 24.355469 14.664062 24.480469 14.808594 24.613281 C 15.144531 24.921875 15.527344 25.269531 16.277344 25.3125 C 16.328125 25.316406 16.375 25.316406 16.425781 25.316406 C 17.183594 25.316406 17.699219 24.984375 18.117188 24.71875 C 18.316406 24.59375 18.488281 24.480469 18.648438 24.429688 C 19.109375 24.285156 19.511719 24.050781 19.8125 23.757812 C 19.859375 23.710938 19.902344 23.664062 19.945312 23.613281 C 20.113281 24.226562 20.34375 24.917969 20.597656 25.609375 L 23.625 25.609375 C 22.898438 24.484375 22.148438 23.382812 22.164062 21.980469 Z M 13.738281 20.46875 C 13.6875 19.5625 14.121094 18.800781 14.707031 18.769531 C 15.292969 18.734375 15.8125 19.441406 15.863281 20.347656 C 15.867188 20.394531 15.867188 20.445312 15.867188 20.492188 C 15.683594 20.539062 15.515625 20.605469 15.363281 20.683594 C 15.363281 20.679688 15.363281 20.671875 15.363281 20.664062 C 15.3125 20.152344 15.039062 19.761719 14.75 19.796875 C 14.460938 19.832031 14.265625 20.277344 14.316406 20.792969 C 14.339844 21.015625 14.402344 21.21875 14.492188 21.367188 C 14.46875 21.386719 14.40625 21.433594 14.335938 21.484375 C 14.28125 21.527344 14.214844 21.574219 14.132812 21.632812 C 13.914062 21.347656 13.765625 20.933594 13.738281 20.46875 Z M 19.683594 22.710938 C 19.664062 23.1875 19.035156 23.640625 18.457031 23.820312 L 18.453125 23.820312 C 18.214844 23.898438 18 24.035156 17.773438 24.179688 C 17.390625 24.425781 16.996094 24.679688 16.425781 24.679688 C 16.390625 24.679688 16.351562 24.675781 16.3125 24.675781 C 15.789062 24.644531 15.546875 24.421875 15.238281 24.140625 C 15.074219 23.992188 14.90625 23.835938 14.6875 23.710938 L 14.683594 23.707031 C 14.214844 23.441406 13.921875 23.113281 13.90625 22.828125 C 13.894531 22.683594 13.960938 22.558594 14.09375 22.460938 C 14.386719 22.238281 14.582031 22.097656 14.710938 22 C 14.855469 21.894531 14.898438 21.863281 14.933594 21.835938 C 14.953125 21.8125 14.980469 21.789062 15.007812 21.761719 C 15.273438 21.5 15.722656 21.0625 16.414062 21.0625 C 16.835938 21.0625 17.304688 21.226562 17.800781 21.546875 C 18.035156 21.699219 18.238281 21.769531 18.496094 21.859375 C 18.675781 21.917969 18.875 21.988281 19.144531 22.105469 L 19.148438 22.105469 C 19.402344 22.210938 19.699219 22.398438 19.683594 22.710938 Z M 19.546875 21.585938 C 19.496094 21.558594 19.445312 21.539062 19.394531 21.515625 C 19.152344 21.410156 18.957031 21.339844 18.796875 21.285156 C 18.882812 21.109375 18.941406 20.890625 18.945312 20.65625 C 18.957031 20.082031 18.667969 19.613281 18.296875 19.613281 C 17.925781 19.613281 17.617188 20.078125 17.605469 20.652344 C 17.601562 20.671875 17.601562 20.691406 17.601562 20.710938 C 17.375 20.605469 17.152344 20.527344 16.929688 20.480469 C 16.929688 20.460938 16.929688 20.4375 16.929688 20.414062 C 16.90625 19.367188 17.550781 18.5 18.363281 18.476562 C 19.179688 18.457031 19.859375 19.285156 19.878906 20.335938 C 19.886719 20.808594 19.761719 21.246094 19.546875 21.585938 Z M 19.546875 21.585938 "/>
</g>
</svg>
