<?xml version="1.0" encoding="UTF-8"?>
<svg xmlns="http://www.w3.org/2000/svg" xmlns:xlink="http://www.w3.org/1999/xlink" width="36pt" height="36pt" viewBox="0 0 36 36" version="1.1">
<g id="surface1">
<path style=" stroke:none;fill-rule:nonzero;fill:rgb(95.686275%,60%,25.098039%);fill-opacity:1;" d="M 31.390625 7.566406 C 32.707031 7.566406 33.765625 8.625 33.765625 9.941406 L 33.765625 29.753906 C 33.765625 31.066406 32.707031 32.125 31.390625 32.125 L 4.609375 32.125 C 3.292969 32.125 2.234375 31.066406 2.234375 29.753906 L 2.234375 11.476562 L 2.238281 5.777344 C 2.238281 4.722656 3.085938 3.875 4.140625 3.875 L 14.367188 3.875 C 15.421875 3.875 16.285156 4.292969 16.957031 5.105469 L 18.984375 7.574219 Z M 31.390625 7.566406 "/>
<path style=" stroke:none;fill-rule:nonzero;fill:rgb(0%,0%,0%);fill-opacity:0.65098;" d="M 15.75 15.484375 L 14.625 16.609375 L 14.0625 16.609375 C 13.128906 16.609375 12.375 17.234375 12.375 18.015625 L 12.375 23.078125 C 12.375 23.855469 13.128906 24.484375 14.0625 24.484375 L 21.9375 24.484375 C 22.871094 24.484375 23.625 23.855469 23.625 23.078125 L 23.625 18.015625 C 23.625 17.234375 22.871094 16.609375 21.9375 16.609375 L 21.375 16.609375 L 20.25 15.484375 Z M 18 17.734375 C 19.242188 17.734375 20.25 18.742188 20.25 19.984375 C 20.25 21.226562 19.242188 22.234375 18 22.234375 C 16.757812 22.234375 15.75 21.226562 15.75 19.984375 C 15.75 18.742188 16.757812 17.734375 18 17.734375 Z M 18 17.734375 "/>
</g>
</svg>
