<?xml version="1.0" encoding="UTF-8"?>
<svg xmlns="http://www.w3.org/2000/svg" xmlns:xlink="http://www.w3.org/1999/xlink" width="36pt" height="36pt" viewBox="0 0 36 36" version="1.1">
<g id="surface1">
<path style=" stroke:none;fill-rule:nonzero;fill:rgb(95.686275%,60%,25.098039%);fill-opacity:1;" d="M 31.390625 7.566406 C 32.707031 7.566406 33.765625 8.625 33.765625 9.941406 L 33.765625 29.753906 C 33.765625 31.066406 32.707031 32.125 31.390625 32.125 L 4.609375 32.125 C 3.292969 32.125 2.234375 31.066406 2.234375 29.753906 L 2.234375 11.476562 L 2.238281 5.777344 C 2.238281 4.722656 3.085938 3.875 4.140625 3.875 L 14.367188 3.875 C 15.421875 3.875 16.285156 4.292969 16.957031 5.105469 L 18.984375 7.574219 Z M 31.390625 7.566406 "/>
<path style="fill-rule:nonzero;fill:rgb(30.980392%,18.823529%,11.372549%);fill-opacity:1;stroke-width:0.5;stroke-linecap:round;stroke-linejoin:round;stroke:rgb(95.686275%,60%,25.098039%);stroke-opacity:1;stroke-miterlimit:4;" d="M 19.75 18.001354 C 19.75 19.240937 18.743056 20.251354 17.5 20.251354 C 16.256944 20.251354 15.25 19.240937 15.25 18.001354 C 15.25 16.758298 16.256944 15.751354 17.5 15.751354 C 18.743056 15.751354 19.75 16.758298 19.75 18.001354 Z M 19.75 18.001354 " transform="matrix(1.125,0,0,1.125,0.5625,-1.263242)"/>
<path style="fill-rule:nonzero;fill:rgb(30.980392%,18.823529%,11.372549%);fill-opacity:1;stroke-width:0.5;stroke-linecap:round;stroke-linejoin:round;stroke:rgb(95.686275%,60%,25.098039%);stroke-opacity:1;stroke-miterlimit:4;" d="M 23.25 22.001354 C 23.25 22.688854 22.690972 23.251354 22 23.251354 C 21.309028 23.251354 20.75 22.688854 20.75 22.001354 C 20.75 21.310381 21.309028 20.751354 22 20.751354 C 22.690972 20.751354 23.25 21.310381 23.25 22.001354 Z M 23.25 22.001354 " transform="matrix(1.125,0,0,1.125,0.5625,-1.263242)"/>
<path style="fill-rule:nonzero;fill:rgb(30.980392%,18.823529%,11.372549%);fill-opacity:1;stroke-width:0.5;stroke-linecap:round;stroke-linejoin:round;stroke:rgb(95.686275%,60%,25.098039%);stroke-opacity:1;stroke-miterlimit:4;" d="M 21.75 20.751354 C 21.75 22.129826 20.631944 23.251354 19.25 23.251354 C 17.868056 23.251354 16.75 22.129826 16.75 20.751354 C 16.75 19.369409 17.868056 18.251354 19.25 18.251354 C 20.631944 18.251354 21.75 19.369409 21.75 20.751354 Z M 21.75 20.751354 " transform="matrix(1.125,0,0,1.125,0.5625,-1.263242)"/>
<path style="fill-rule:nonzero;fill:rgb(30.980392%,18.823529%,11.372549%);fill-opacity:1;stroke-width:0.5;stroke-linecap:round;stroke-linejoin:round;stroke:rgb(95.686275%,60%,25.098039%);stroke-opacity:1;stroke-miterlimit:4;" d="M 12.25 21.001354 C 12.25 22.240937 11.243056 23.251354 10 23.251354 C 8.756944 23.251354 7.75 22.240937 7.75 21.001354 C 7.75 19.758298 8.756944 18.751354 10 18.751354 C 11.243056 18.751354 12.25 19.758298 12.25 21.001354 Z M 12.25 21.001354 " transform="matrix(1.125,0,0,1.125,0.5625,-1.263242)"/>
<path style="fill-rule:nonzero;fill:rgb(30.980392%,18.823529%,11.372549%);fill-opacity:1;stroke-width:0.5;stroke-linecap:round;stroke-linejoin:round;stroke:rgb(95.686275%,60%,25.098039%);stroke-opacity:1;stroke-miterlimit:4;" d="M 13.75 16.251354 C 13.75 17.077743 13.079861 17.751354 12.25 17.751354 C 11.420139 17.751354 10.75 17.077743 10.75 16.251354 C 10.75 15.421493 11.420139 14.751354 12.25 14.751354 C 13.079861 14.751354 13.75 15.421493 13.75 16.251354 Z M 13.75 16.251354 " transform="matrix(1.125,0,0,1.125,0.5625,-1.263242)"/>
<path style="fill-rule:nonzero;fill:rgb(30.980392%,18.823529%,11.372549%);fill-opacity:1;stroke-width:0.5;stroke-linecap:round;stroke-linejoin:round;stroke:rgb(95.686275%,60%,25.098039%);stroke-opacity:1;stroke-miterlimit:4;" d="M 15.25 19.001354 C 15.25 20.518715 14.017361 21.751354 12.5 21.751354 C 10.982639 21.751354 9.75 20.518715 9.75 19.001354 C 9.75 17.48052 10.982639 16.251354 12.5 16.251354 C 14.017361 16.251354 15.25 17.48052 15.25 19.001354 Z M 15.25 19.001354 " transform="matrix(1.125,0,0,1.125,0.5625,-1.263242)"/>
<path style="fill-rule:nonzero;fill:rgb(30.980392%,18.823529%,11.372549%);fill-opacity:1;stroke-width:0.5;stroke-linecap:round;stroke-linejoin:round;stroke:rgb(95.686275%,60%,25.098039%);stroke-opacity:1;stroke-miterlimit:4;" d="M 13.5 22.001354 C 13.5 22.688854 12.940972 23.251354 12.25 23.251354 C 11.559028 23.251354 11 22.688854 11 22.001354 C 11 21.310381 11.559028 20.751354 12.25 20.751354 C 12.940972 20.751354 13.5 21.310381 13.5 22.001354 Z M 13.5 22.001354 " transform="matrix(1.125,0,0,1.125,0.5625,-1.263242)"/>
<path style="fill-rule:nonzero;fill:rgb(30.980392%,18.823529%,11.372549%);fill-opacity:1;stroke-width:0.5;stroke-linecap:round;stroke-linejoin:round;stroke:rgb(95.686275%,60%,25.098039%);stroke-opacity:1;stroke-miterlimit:4;" d="M 17.25 16.751354 C 17.25 18.129826 16.131944 19.251354 14.75 19.251354 C 13.368056 19.251354 12.25 18.129826 12.25 16.751354 C 12.25 15.369409 13.368056 14.251354 14.75 14.251354 C 16.131944 14.251354 17.25 15.369409 17.25 16.751354 Z M 17.25 16.751354 " transform="matrix(1.125,0,0,1.125,0.5625,-1.263242)"/>
<path style="fill-rule:nonzero;fill:rgb(30.980392%,18.823529%,11.372549%);fill-opacity:1;stroke-width:0.5;stroke-linecap:round;stroke-linejoin:round;stroke:rgb(95.686275%,60%,25.098039%);stroke-opacity:1;stroke-miterlimit:4;" d="M 18.746528 20.001354 C 18.746528 21.796493 17.291667 23.251354 15.5 23.251354 C 13.704861 23.251354 12.25 21.796493 12.25 20.001354 C 12.25 18.206215 13.704861 16.751354 15.5 16.751354 C 17.291667 16.751354 18.746528 18.206215 18.746528 20.001354 Z M 18.746528 20.001354 " transform="matrix(1.125,0,0,1.125,0.5625,-1.263242)"/>
</g>
</svg>
