<?xml version="1.0" encoding="UTF-8"?>
<svg xmlns="http://www.w3.org/2000/svg" xmlns:xlink="http://www.w3.org/1999/xlink" width="36pt" height="36pt" viewBox="0 0 36 36" version="1.1">
<g id="surface1">
<path style=" stroke:none;fill-rule:nonzero;fill:rgb(15.686275%,61.960784%,63.137255%);fill-opacity:1;" d="M 31.390625 7.566406 C 32.707031 7.566406 33.765625 8.625 33.765625 9.941406 L 33.765625 29.753906 C 33.765625 31.066406 32.707031 32.125 31.390625 32.125 L 4.609375 32.125 C 3.292969 32.125 2.234375 31.066406 2.234375 29.753906 L 2.234375 11.476562 L 2.238281 5.777344 C 2.238281 4.722656 3.085938 3.875 4.140625 3.875 L 14.367188 3.875 C 15.421875 3.875 16.285156 4.292969 16.957031 5.105469 L 18.984375 7.574219 Z M 31.390625 7.566406 "/>
<path style=" stroke:none;fill-rule:nonzero;fill:rgb(0%,0%,0%);fill-opacity:0.65098;" d="M 17.4375 15.332031 C 15.550781 15.691406 14.445312 16.945312 14.0625 18.707031 L 11.8125 18.707031 L 11.8125 20.957031 L 14.0625 20.957031 C 14.449219 22.714844 15.554688 23.96875 17.4375 24.332031 Z M 18.5625 15.332031 L 18.5625 24.332031 C 20.445312 23.96875 21.550781 22.714844 21.9375 20.957031 L 24.1875 20.957031 L 24.1875 18.707031 L 21.9375 18.707031 C 21.554688 16.945312 20.449219 15.691406 18.5625 15.332031 Z M 18.5625 15.332031 "/>
</g>
</svg>
