<?xml version="1.0" encoding="UTF-8"?>
<svg xmlns="http://www.w3.org/2000/svg" xmlns:xlink="http://www.w3.org/1999/xlink" width="36pt" height="36pt" viewBox="0 0 36 36" version="1.1">
<g id="surface1">
<path style=" stroke:none;fill-rule:nonzero;fill:rgb(30.980392%,30.980392%,30.980392%);fill-opacity:1;" d="M 31.390625 7.566406 C 32.707031 7.566406 33.765625 8.625 33.765625 9.941406 L 33.765625 29.753906 C 33.765625 31.066406 32.707031 32.125 31.390625 32.125 L 4.609375 32.125 C 3.292969 32.125 2.234375 31.066406 2.234375 29.753906 L 2.234375 11.476562 L 2.238281 5.777344 C 2.238281 4.722656 3.085938 3.875 4.140625 3.875 L 14.367188 3.875 C 15.421875 3.875 16.285156 4.292969 16.957031 5.105469 L 18.984375 7.574219 Z M 31.390625 7.566406 "/>
<path style=" stroke:none;fill-rule:nonzero;fill:rgb(0%,0%,0%);fill-opacity:0.65098;" d="M 13.691406 23.75 C 13.652344 23.726562 13.582031 23.707031 13.535156 23.707031 C 13.351562 23.703125 12.777344 23.378906 12.503906 23.121094 C 12.351562 22.976562 12.226562 22.835938 12.226562 22.804688 C 12.226562 22.777344 12.195312 22.730469 12.15625 22.699219 C 12.011719 22.578125 11.8125 22.074219 11.746094 21.667969 C 11.621094 20.902344 11.65625 20.515625 11.917969 19.839844 C 12.082031 19.414062 12.0625 19.441406 12.480469 19.011719 C 12.714844 18.773438 12.886719 18.640625 13.109375 18.539062 L 13.414062 18.394531 L 13.414062 18.195312 C 13.414062 17.550781 14 16.644531 14.582031 16.382812 C 15.066406 16.164062 15.1875 16.140625 15.652344 16.164062 C 15.898438 16.179688 16.140625 16.210938 16.1875 16.234375 C 16.238281 16.257812 16.367188 16.328125 16.480469 16.386719 C 16.59375 16.445312 16.714844 16.519531 16.75 16.550781 C 16.839844 16.640625 16.867188 16.628906 17.035156 16.394531 C 17.347656 15.957031 17.828125 15.539062 18.128906 15.445312 C 18.179688 15.429688 18.222656 15.398438 18.222656 15.382812 C 18.222656 15.347656 18.507812 15.25 18.890625 15.148438 C 19.160156 15.078125 19.859375 15.089844 20.199219 15.167969 C 20.496094 15.238281 21.136719 15.535156 21.242188 15.652344 C 21.253906 15.664062 21.34375 15.734375 21.4375 15.808594 C 21.652344 15.964844 22.105469 16.539062 22.183594 16.75 C 22.199219 16.785156 22.238281 16.871094 22.277344 16.9375 C 22.3125 17.003906 22.339844 17.101562 22.339844 17.152344 C 22.339844 17.203125 22.363281 17.25 22.386719 17.257812 C 22.414062 17.269531 22.464844 17.519531 22.5 17.820312 C 22.539062 18.121094 22.574219 18.371094 22.582031 18.375 C 22.585938 18.378906 22.746094 18.457031 22.9375 18.546875 C 23.167969 18.65625 23.367188 18.792969 23.554688 18.980469 C 23.878906 19.300781 23.898438 19.324219 24.035156 19.589844 C 24.21875 19.945312 24.234375 19.972656 24.28125 20.15625 C 24.34375 20.40625 24.339844 21.664062 24.273438 21.921875 C 24.179688 22.300781 23.90625 22.777344 23.609375 23.074219 C 23.449219 23.238281 22.96875 23.566406 22.894531 23.566406 C 22.851562 23.566406 22.796875 23.585938 22.773438 23.609375 C 22.75 23.632812 22.601562 23.683594 22.449219 23.722656 C 22.203125 23.789062 21.644531 23.796875 17.964844 23.796875 C 15.328125 23.796875 13.734375 23.777344 13.691406 23.75 Z M 13.691406 23.75 "/>
</g>
</svg>
