<?xml version="1.0" encoding="UTF-8"?>
<svg xmlns="http://www.w3.org/2000/svg" xmlns:xlink="http://www.w3.org/1999/xlink" width="36pt" height="36pt" viewBox="0 0 36 36" version="1.1">
<g id="surface1">
<path style=" stroke:none;fill-rule:nonzero;fill:rgb(52.156863%,41.960784%,20.784314%);fill-opacity:1;" d="M 31.390625 7.566406 C 32.707031 7.566406 33.765625 8.625 33.765625 9.941406 L 33.765625 29.753906 C 33.765625 31.066406 32.707031 32.125 31.390625 32.125 L 4.609375 32.125 C 3.292969 32.125 2.234375 31.066406 2.234375 29.753906 L 2.234375 11.476562 L 2.238281 5.777344 C 2.238281 4.722656 3.085938 3.875 4.140625 3.875 L 14.367188 3.875 C 15.421875 3.875 16.285156 4.292969 16.957031 5.105469 L 18.984375 7.574219 Z M 31.390625 7.566406 "/>
<path style=" stroke:none;fill-rule:nonzero;fill:rgb(0%,0%,0%);fill-opacity:0.65098;" d="M 23.0625 12.367188 C 20.886719 12.367188 19.125 14.128906 19.125 16.304688 C 19.125 16.3125 19.125 16.324219 19.128906 16.332031 L 16.511719 20.332031 C 16.261719 20.273438 16.007812 20.242188 15.75 20.242188 C 15.242188 20.242188 14.738281 20.359375 14.28125 20.582031 L 9.300781 17.707031 C 9.105469 18.539062 9.003906 19.386719 9 20.242188 C 9.003906 20.652344 9.03125 21.066406 9.082031 21.476562 L 12.382812 23.382812 C 12.378906 23.460938 12.375 23.539062 12.375 23.617188 C 12.375 25.480469 13.886719 26.992188 15.75 26.992188 C 17.613281 26.992188 19.125 25.480469 19.125 23.617188 C 19.121094 23.460938 19.109375 23.308594 19.085938 23.15625 L 23.179688 20.234375 C 25.308594 20.167969 26.996094 18.429688 27 16.304688 C 27 14.128906 25.238281 12.367188 23.0625 12.367188 Z M 23.0625 13.492188 C 24.617188 13.492188 25.875 14.75 25.875 16.304688 C 25.875 17.855469 24.617188 19.117188 23.0625 19.117188 C 21.507812 19.117188 20.25 17.855469 20.25 16.304688 C 20.25 14.75 21.507812 13.492188 23.0625 13.492188 Z M 23.0625 14.617188 C 22.128906 14.617188 21.375 15.371094 21.375 16.304688 C 21.375 17.234375 22.128906 17.992188 23.0625 17.992188 C 23.996094 17.992188 24.75 17.234375 24.75 16.304688 C 24.75 15.371094 23.996094 14.617188 23.0625 14.617188 Z M 15.75 21.367188 C 16.992188 21.367188 18 22.371094 18 23.617188 C 18 24.859375 16.992188 25.867188 15.75 25.867188 C 14.675781 25.863281 13.753906 25.105469 13.546875 24.050781 L 14.339844 24.511719 C 15.148438 24.980469 16.175781 24.703125 16.644531 23.894531 C 17.113281 23.085938 16.835938 22.058594 16.027344 21.589844 L 15.648438 21.371094 C 15.679688 21.367188 15.714844 21.367188 15.75 21.367188 Z M 15.75 21.367188 "/>
</g>
</svg>
