<?xml version="1.0" encoding="UTF-8"?>
<svg xmlns="http://www.w3.org/2000/svg" xmlns:xlink="http://www.w3.org/1999/xlink" width="36pt" height="36pt" viewBox="0 0 36 36" version="1.1">
<defs>
<clipPath id="clip1">
  <rect width="36" height="36"/>
</clipPath>
<g id="surface6" clip-path="url(#clip1)">
<path style=" stroke:none;fill-rule:nonzero;fill:rgb(0%,0%,0%);fill-opacity:0.65098;" d="M 18 14.054688 C 14.894531 14.054688 12.375 16.570312 12.375 19.679688 C 12.375 22.785156 14.894531 25.304688 18 25.304688 C 21.105469 25.304688 23.625 22.785156 23.625 19.679688 C 23.625 16.570312 21.105469 14.054688 18 14.054688 Z M 17.597656 15.609375 C 17.652344 15.605469 17.71875 15.613281 17.773438 15.609375 C 17.78125 15.636719 17.734375 15.726562 17.671875 15.859375 C 17.28125 16.714844 17.261719 17.710938 17.625 18.246094 C 17.6875 18.34375 17.75 18.4375 17.75 18.449219 C 17.75 18.460938 17.679688 18.472656 17.597656 18.472656 C 17.410156 18.472656 17.234375 18.359375 16.871094 18.070312 C 16.707031 17.941406 16.5 17.835938 16.417969 17.820312 C 16.289062 17.792969 16.257812 17.804688 16.089844 17.96875 C 15.9375 18.125 15.890625 18.207031 15.890625 18.347656 C 15.890625 18.878906 16.523438 19.304688 17.699219 19.550781 C 19.296875 19.890625 19.6875 20.195312 19.734375 21.035156 C 19.789062 22.085938 19.226562 22.878906 18 23.496094 C 17.851562 23.566406 17.761719 23.597656 17.699219 23.621094 C 17.671875 23.617188 17.652344 23.621094 17.625 23.621094 C 17.613281 23.589844 17.597656 23.511719 17.597656 23.371094 C 17.597656 22.808594 17.378906 22.234375 17.046875 21.914062 C 16.957031 21.828125 16.707031 21.644531 16.492188 21.511719 C 16.28125 21.378906 16.0625 21.226562 16.015625 21.160156 C 15.9375 21.050781 15.929688 20.984375 15.992188 20.78125 C 16.101562 20.414062 16.234375 20.210938 16.492188 19.980469 C 16.628906 19.859375 16.765625 19.753906 16.792969 19.753906 C 16.824219 19.75 16.621094 19.691406 16.316406 19.628906 C 16.011719 19.566406 15.570312 19.433594 15.339844 19.351562 C 14.917969 19.199219 14.347656 18.878906 14.132812 18.648438 C 14.125 18.636719 14.117188 18.632812 14.109375 18.625 C 14.417969 17.386719 15.289062 16.375 16.441406 15.886719 C 16.683594 15.785156 16.933594 15.714844 17.195312 15.660156 C 17.328125 15.632812 17.464844 15.625 17.597656 15.609375 Z M 21.363281 17.492188 C 21.460938 17.550781 21.816406 18.324219 21.917969 18.699219 C 22.046875 19.183594 22.039062 20.023438 21.917969 20.507812 C 21.871094 20.691406 21.8125 20.863281 21.792969 20.882812 C 21.773438 20.90625 21.699219 20.78125 21.617188 20.632812 C 21.53125 20.484375 21.261719 20.164062 21.039062 19.929688 C 20.390625 19.246094 20.289062 18.890625 20.5625 18.347656 C 20.699219 18.074219 21.292969 17.449219 21.363281 17.492188 Z M 21.363281 17.492188 "/>
</g>
</defs>
<g id="surface1">
<path style=" stroke:none;fill-rule:nonzero;fill:rgb(60.392157%,60.392157%,60.392157%);fill-opacity:1;" d="M 31.390625 7.566406 C 32.707031 7.566406 33.765625 8.625 33.765625 9.941406 L 33.765625 29.753906 C 33.765625 31.066406 32.707031 32.125 31.390625 32.125 L 4.609375 32.125 C 3.292969 32.125 2.234375 31.066406 2.234375 29.753906 L 2.234375 11.476562 L 2.238281 5.777344 C 2.238281 4.722656 3.085938 3.875 4.140625 3.875 L 14.367188 3.875 C 15.421875 3.875 16.285156 4.292969 16.957031 5.105469 L 18.984375 7.574219 Z M 31.390625 7.566406 "/>
<use xlink:href="#surface6"/>
</g>
</svg>
