<?xml version="1.0" encoding="UTF-8"?>
<svg xmlns="http://www.w3.org/2000/svg" xmlns:xlink="http://www.w3.org/1999/xlink" width="36pt" height="36pt" viewBox="0 0 36 36" version="1.1">
<g id="surface1">
<path style=" stroke:none;fill-rule:nonzero;fill:rgb(60.392157%,60.392157%,60.392157%);fill-opacity:1;" d="M 31.390625 7.566406 C 32.707031 7.566406 33.765625 8.625 33.765625 9.941406 L 33.765625 29.753906 C 33.765625 31.066406 32.707031 32.125 31.390625 32.125 L 4.609375 32.125 C 3.292969 32.125 2.234375 31.066406 2.234375 29.753906 L 2.234375 11.476562 L 2.238281 5.777344 C 2.238281 4.722656 3.085938 3.875 4.140625 3.875 L 14.367188 3.875 C 15.421875 3.875 16.285156 4.292969 16.957031 5.105469 L 18.984375 7.574219 Z M 31.390625 7.566406 "/>
<path style=" stroke:none;fill-rule:nonzero;fill:rgb(0%,0%,0%);fill-opacity:0.65098;" d="M 17.234375 14.789062 C 14.234375 14.789062 14.933594 17.304688 13.394531 18.128906 C 13.34375 18.160156 13.3125 18.1875 13.265625 18.214844 C 14.277344 17.613281 15.527344 17.109375 16.851562 16.765625 C 17.976562 16.480469 19.113281 16.316406 20.164062 16.296875 C 20.191406 16.296875 20.21875 16.296875 20.246094 16.296875 C 19.234375 16.007812 19.121094 14.789062 17.234375 14.789062 Z M 20.503906 17.054688 C 19.453125 17.078125 18.3125 17.238281 17.191406 17.527344 C 13.488281 18.480469 10.851562 20.550781 11.300781 22.152344 C 11.558594 23.070312 12.800781 23.898438 14.648438 24.007812 C 14.648438 24 14.648438 23.996094 14.644531 23.988281 C 14.546875 23.121094 15.097656 22.367188 15.742188 21.855469 C 16.386719 21.347656 17.214844 20.976562 18.144531 20.777344 C 19.074219 20.582031 19.949219 20.589844 20.675781 20.808594 C 21.363281 21.015625 22.007812 21.464844 22.164062 22.238281 C 24.019531 21.199219 24.980469 19.71875 24.703125 18.707031 C 24.40625 17.644531 22.796875 17.011719 20.503906 17.054688 Z M 19.402344 21.496094 C 19.03125 21.492188 18.636719 21.535156 18.242188 21.617188 C 16.613281 21.964844 15.375 22.945312 15.472656 23.8125 C 15.574219 24.675781 16.976562 25.097656 18.601562 24.753906 C 20.230469 24.40625 21.46875 23.425781 21.367188 22.558594 C 21.296875 21.929688 20.519531 21.511719 19.402344 21.496094 Z M 19.402344 21.496094 "/>
</g>
</svg>
