<?xml version="1.0" encoding="UTF-8"?>
<svg xmlns="http://www.w3.org/2000/svg" xmlns:xlink="http://www.w3.org/1999/xlink" width="36pt" height="36pt" viewBox="0 0 36 36" version="1.1">
<g id="surface1">
<path style=" stroke:none;fill-rule:nonzero;fill:rgb(30.980392%,30.980392%,30.980392%);fill-opacity:1;" d="M 31.390625 7.566406 C 32.707031 7.566406 33.765625 8.625 33.765625 9.941406 L 33.765625 29.753906 C 33.765625 31.066406 32.707031 32.125 31.390625 32.125 L 4.609375 32.125 C 3.292969 32.125 2.234375 31.066406 2.234375 29.753906 L 2.234375 11.476562 L 2.238281 5.777344 C 2.238281 4.722656 3.085938 3.875 4.140625 3.875 L 14.367188 3.875 C 15.421875 3.875 16.285156 4.292969 16.957031 5.105469 L 18.984375 7.574219 Z M 31.390625 7.566406 "/>
<path style=" stroke:none;fill-rule:nonzero;fill:rgb(0%,0%,0%);fill-opacity:0.65098;" d="M 14.34375 14.378906 C 13.875 14.378906 13.5 14.753906 13.5 15.222656 L 13.5 22.253906 L 14.625 22.253906 L 14.625 23.378906 L 15.75 23.378906 L 15.75 16.628906 L 19.125 16.628906 L 19.125 18.878906 L 20.25 18.878906 L 20.25 24.503906 L 21.375 24.503906 L 21.375 23.378906 L 22.5 23.378906 L 22.5 17.191406 L 19.6875 14.378906 Z M 21.375 24.503906 L 21.375 25.628906 L 22.5 25.628906 L 22.5 24.503906 Z M 20.25 24.503906 L 19.125 24.503906 L 19.125 25.628906 L 20.25 25.628906 Z M 19.125 24.503906 L 19.125 23.378906 L 18 23.378906 L 18 24.503906 Z M 18 24.503906 L 16.875 24.503906 L 16.875 25.628906 L 18 25.628906 Z M 16.875 24.503906 L 16.875 23.378906 L 15.75 23.378906 L 15.75 24.503906 Z M 15.75 24.503906 L 14.625 24.503906 L 14.625 25.628906 L 15.75 25.628906 Z M 14.625 24.503906 L 14.625 23.378906 L 13.5 23.378906 L 13.5 24.503906 Z M 14.625 24.503906 "/>
</g>
</svg>
