<?xml version="1.0" encoding="UTF-8"?>
<svg xmlns="http://www.w3.org/2000/svg" xmlns:xlink="http://www.w3.org/1999/xlink" width="36pt" height="36pt" viewBox="0 0 36 36" version="1.1">
<g id="surface1">
<path style=" stroke:none;fill-rule:nonzero;fill:rgb(95.686275%,60%,25.098039%);fill-opacity:1;" d="M 31.390625 7.566406 C 32.707031 7.566406 33.765625 8.625 33.765625 9.941406 L 33.765625 29.753906 C 33.765625 31.066406 32.707031 32.125 31.390625 32.125 L 4.609375 32.125 C 3.292969 32.125 2.234375 31.066406 2.234375 29.753906 L 2.234375 11.476562 L 2.238281 5.777344 C 2.238281 4.722656 3.085938 3.875 4.140625 3.875 L 14.367188 3.875 C 15.421875 3.875 16.285156 4.292969 16.957031 5.105469 L 18.984375 7.574219 Z M 31.390625 7.566406 "/>
<path style=" stroke:none;fill-rule:nonzero;fill:rgb(0%,0%,0%);fill-opacity:0.65098;" d="M 18 13.234375 C 14.273438 13.234375 11.25 16.253906 11.25 19.984375 C 11.25 23.710938 14.273438 26.734375 18 26.734375 C 21.726562 26.734375 24.75 23.710938 24.75 19.984375 C 24.75 16.253906 21.726562 13.234375 18 13.234375 Z M 18 15.484375 C 20.484375 15.484375 22.5 17.496094 22.5 19.984375 C 22.5 22.46875 20.484375 24.484375 18 24.484375 C 15.515625 24.484375 13.5 22.46875 13.5 19.984375 C 13.5 17.496094 15.515625 15.484375 18 15.484375 Z M 16.875 16.609375 L 16.875 21.109375 L 21.375 21.109375 L 21.375 18.859375 L 19.125 18.859375 L 19.125 16.609375 Z M 16.875 16.609375 "/>
</g>
</svg>
