<?xml version="1.0" encoding="UTF-8"?>
<svg xmlns="http://www.w3.org/2000/svg" xmlns:xlink="http://www.w3.org/1999/xlink" width="36pt" height="36pt" viewBox="0 0 36 36" version="1.1">
<g id="surface1">
<path style=" stroke:none;fill-rule:nonzero;fill:rgb(88.627451%,32.156863%,32.156863%);fill-opacity:1;" d="M 31.390625 7.566406 C 32.707031 7.566406 33.765625 8.625 33.765625 9.941406 L 33.765625 29.753906 C 33.765625 31.066406 32.707031 32.125 31.390625 32.125 L 4.609375 32.125 C 3.292969 32.125 2.234375 31.066406 2.234375 29.753906 L 2.234375 11.476562 L 2.238281 5.777344 C 2.238281 4.722656 3.085938 3.875 4.140625 3.875 L 14.367188 3.875 C 15.421875 3.875 16.285156 4.292969 16.957031 5.105469 L 18.984375 7.574219 Z M 31.390625 7.566406 "/>
<path style=" stroke:none;fill-rule:nonzero;fill:rgb(0%,0%,0%);fill-opacity:0.65098;" d="M 18 12.929688 C 14.273438 12.929688 11.25 15.949219 11.25 19.679688 C 11.25 23.40625 14.273438 26.429688 18 26.429688 C 21.726562 26.429688 24.75 23.40625 24.75 19.679688 C 24.75 15.949219 21.726562 12.929688 18 12.929688 Z M 14.625 16.304688 L 16.875 16.304688 L 16.875 16.308594 L 18 17.429688 L 19.125 16.304688 L 21.375 16.304688 L 21.375 23.054688 L 19.125 23.054688 L 19.125 19.679688 L 18 20.804688 L 16.875 19.679688 L 16.875 23.054688 L 14.625 23.054688 Z M 14.625 16.304688 "/>
</g>
</svg>
