<?xml version="1.0" encoding="UTF-8"?>
<svg xmlns="http://www.w3.org/2000/svg" xmlns:xlink="http://www.w3.org/1999/xlink" width="36pt" height="36pt" viewBox="0 0 36 36" version="1.1">
<g id="surface1">
<path style=" stroke:none;fill-rule:nonzero;fill:rgb(15.686275%,61.960784%,63.137255%);fill-opacity:1;" d="M 31.390625 7.566406 C 32.707031 7.566406 33.765625 8.625 33.765625 9.941406 L 33.765625 29.753906 C 33.765625 31.066406 32.707031 32.125 31.390625 32.125 L 4.609375 32.125 C 3.292969 32.125 2.234375 31.066406 2.234375 29.753906 L 2.234375 11.476562 L 2.238281 5.777344 C 2.238281 4.722656 3.085938 3.875 4.140625 3.875 L 14.367188 3.875 C 15.421875 3.875 16.285156 4.292969 16.957031 5.105469 L 18.984375 7.574219 Z M 31.390625 7.566406 "/>
<path style=" stroke:none;fill-rule:nonzero;fill:rgb(0%,0%,0%);fill-opacity:0.65098;" d="M 14.625 14.207031 L 14.625 16.457031 L 21.375 16.457031 L 21.375 14.207031 Z M 13.179688 17.582031 C 12.777344 17.582031 12.375 17.972656 12.375 18.367188 L 12.375 21.292969 C 12.375 21.6875 12.777344 22.082031 13.179688 22.082031 L 14.625 22.082031 L 14.625 25.457031 L 21.375 25.457031 L 21.375 22.082031 L 22.820312 22.082031 C 23.222656 22.082031 23.625 21.6875 23.625 21.292969 L 23.625 18.367188 C 23.625 17.972656 23.222656 17.582031 22.820312 17.582031 Z M 14.625 19.832031 L 21.375 19.832031 L 21.375 20.957031 L 14.625 20.957031 Z M 14.625 19.832031 "/>
</g>
</svg>
