<?xml version="1.0" encoding="UTF-8"?>
<svg xmlns="http://www.w3.org/2000/svg" xmlns:xlink="http://www.w3.org/1999/xlink" width="36pt" height="36pt" viewBox="0 0 36 36" version="1.1">
<g id="surface1">
<path style=" stroke:none;fill-rule:nonzero;fill:rgb(15.686275%,61.960784%,63.137255%);fill-opacity:1;" d="M 31.390625 7.566406 C 32.707031 7.566406 33.765625 8.625 33.765625 9.941406 L 33.765625 29.753906 C 33.765625 31.066406 32.707031 32.125 31.390625 32.125 L 4.609375 32.125 C 3.292969 32.125 2.234375 31.066406 2.234375 29.753906 L 2.234375 11.476562 L 2.238281 5.777344 C 2.238281 4.722656 3.085938 3.875 4.140625 3.875 L 14.367188 3.875 C 15.421875 3.875 16.285156 4.292969 16.957031 5.105469 L 18.984375 7.574219 Z M 31.390625 7.566406 "/>
<path style=" stroke:none;fill-rule:nonzero;fill:rgb(0%,0%,0%);fill-opacity:0.65098;" d="M 18 14.511719 C 14.894531 14.511719 12.375 17.03125 12.375 20.136719 C 12.375 23.242188 14.894531 25.761719 18 25.761719 C 21.105469 25.761719 23.625 23.242188 23.625 20.136719 C 23.625 17.03125 21.105469 14.511719 18 14.511719 Z M 16.875 16.761719 L 19.125 16.761719 L 19.125 21.261719 L 16.875 21.261719 Z M 18 22.386719 C 18.621094 22.386719 19.125 22.890625 19.125 23.511719 C 19.125 24.132812 18.621094 24.636719 18 24.636719 C 17.378906 24.636719 16.875 24.132812 16.875 23.511719 C 16.875 22.890625 17.378906 22.386719 18 22.386719 Z M 18 22.386719 "/>
</g>
</svg>
