<?xml version="1.0" encoding="UTF-8"?>
<svg xmlns="http://www.w3.org/2000/svg" xmlns:xlink="http://www.w3.org/1999/xlink" width="36pt" height="36pt" viewBox="0 0 36 36" version="1.1">
<defs>
<filter id="alpha" filterUnits="objectBoundingBox" x="0%" y="0%" width="100%" height="100%">
  <feColorMatrix type="matrix" in="SourceGraphic" values="0 0 0 0 1 0 0 0 0 1 0 0 0 0 1 0 0 0 1 0"/>
</filter>
<mask id="mask0">
  <g filter="url(#alpha)">
<rect x="0" y="0" width="36" height="36" style="fill:rgb(0%,0%,0%);fill-opacity:0.65098;stroke:none;"/>
  </g>
</mask>
<clipPath id="clip1">
  <rect width="36" height="36"/>
</clipPath>
<g id="surface6" clip-path="url(#clip1)">
<path style=" stroke:none;fill-rule:nonzero;fill:rgb(0%,0%,0%);fill-opacity:1;" d="M 14.996094 14.496094 L 11.25 16.746094 L 14.253906 18.996094 L 11.238281 21.246094 L 14.996094 23.496094 L 18 21.246094 L 14.253906 18.996094 L 18 16.746094 L 21.746094 18.996094 L 18 21.246094 L 21.003906 23.496094 L 24.761719 21.246094 L 21.746094 18.996094 L 24.75 16.746094 L 21.003906 14.496094 L 18 16.746094 Z M 18 21.921875 L 14.996094 24.171875 L 14.253906 23.722656 L 14.253906 24.171875 L 18 26.421875 L 21.746094 24.171875 L 21.746094 23.722656 L 21.003906 24.171875 Z M 18 21.921875 "/>
</g>
</defs>
<g id="surface1">
<path style=" stroke:none;fill-rule:nonzero;fill:rgb(32.156863%,58.039216%,88.627451%);fill-opacity:1;" d="M 31.390625 7.566406 C 32.707031 7.566406 33.765625 8.625 33.765625 9.941406 L 33.765625 29.753906 C 33.765625 31.066406 32.707031 32.125 31.390625 32.125 L 4.609375 32.125 C 3.292969 32.125 2.234375 31.066406 2.234375 29.753906 L 2.234375 11.476562 L 2.238281 5.777344 C 2.238281 4.722656 3.085938 3.875 4.140625 3.875 L 14.367188 3.875 C 15.421875 3.875 16.285156 4.292969 16.957031 5.105469 L 18.984375 7.574219 Z M 31.390625 7.566406 "/>
<use xlink:href="#surface6" mask="url(#mask0)"/>
</g>
</svg>
