<?xml version="1.0" encoding="UTF-8"?>
<svg xmlns="http://www.w3.org/2000/svg" xmlns:xlink="http://www.w3.org/1999/xlink" width="36pt" height="36pt" viewBox="0 0 36 36" version="1.1">
<g id="surface1">
<path style=" stroke:none;fill-rule:nonzero;fill:rgb(95.686275%,60%,25.098039%);fill-opacity:1;" d="M 31.390625 7.566406 C 32.707031 7.566406 33.765625 8.625 33.765625 9.941406 L 33.765625 29.753906 C 33.765625 31.066406 32.707031 32.125 31.390625 32.125 L 4.609375 32.125 C 3.292969 32.125 2.234375 31.066406 2.234375 29.753906 L 2.234375 11.476562 L 2.238281 5.777344 C 2.238281 4.722656 3.085938 3.875 4.140625 3.875 L 14.367188 3.875 C 15.421875 3.875 16.285156 4.292969 16.957031 5.105469 L 18.984375 7.574219 Z M 31.390625 7.566406 "/>
<path style=" stroke:none;fill-rule:nonzero;fill:rgb(0%,0%,0%);fill-opacity:0.65098;" d="M 19.347656 15.179688 C 17.996094 15.179688 16.757812 15.9375 16.144531 17.144531 C 15.878906 17.035156 15.589844 16.976562 15.300781 16.976562 C 14.175781 16.976562 13.222656 17.8125 13.074219 18.925781 C 11.984375 19.300781 11.25 20.324219 11.25 21.476562 C 11.25 22.96875 12.460938 24.179688 13.949219 24.179688 L 22.050781 24.179688 C 23.539062 24.179688 24.75 22.96875 24.75 21.476562 C 24.75 20.332031 24.027344 19.3125 22.945312 18.933594 C 22.949219 18.882812 22.949219 18.828125 22.949219 18.777344 C 22.949219 16.789062 21.335938 15.179688 19.347656 15.179688 Z M 19.347656 17.429688 C 20.121094 17.429688 20.695312 18.003906 20.699219 18.773438 L 20.699219 18.777344 C 20.628906 19.789062 21.242188 20.722656 22.199219 21.054688 C 22.386719 21.121094 22.5 21.28125 22.5 21.476562 C 22.5 21.753906 22.324219 21.929688 22.050781 21.929688 L 13.949219 21.929688 C 13.675781 21.929688 13.5 21.753906 13.5 21.480469 L 13.5 21.476562 C 13.5 21.277344 13.613281 21.121094 13.804688 21.054688 C 14.609375 20.78125 15.1875 20.074219 15.300781 19.230469 C 16.382812 19.667969 17.621094 19.207031 18.152344 18.164062 C 18.382812 17.710938 18.839844 17.429688 19.347656 17.429688 Z M 19.347656 17.429688 "/>
</g>
</svg>
