<?xml version="1.0" encoding="UTF-8"?>
<svg xmlns="http://www.w3.org/2000/svg" xmlns:xlink="http://www.w3.org/1999/xlink" width="36pt" height="36pt" viewBox="0 0 36 36" version="1.1">
<defs>
<clipPath id="clip1">
  <rect width="36" height="36"/>
</clipPath>
<g id="surface6" clip-path="url(#clip1)">
<path style=" stroke:none;fill-rule:evenodd;fill:rgb(0%,0%,0%);fill-opacity:0.65098;" d="M 14.109375 13.746094 C 14.089844 13.746094 14.078125 13.765625 14.0625 13.773438 C 14.003906 13.785156 13.945312 13.804688 13.875 13.84375 C 13.800781 13.882812 13.726562 13.929688 13.664062 14.003906 C 13.65625 14.011719 13.648438 14.019531 13.640625 14.027344 C 13.597656 14.085938 13.570312 14.160156 13.546875 14.238281 C 13.539062 14.261719 13.527344 14.285156 13.523438 14.308594 C 13.507812 14.371094 13.5 14.433594 13.5 14.496094 L 13.5 21.621094 L 14.625 21.621094 L 14.625 22.746094 L 15.75 22.746094 L 15.75 15.996094 L 19.125 15.996094 L 19.125 18.246094 L 20.25 18.246094 L 20.25 23.871094 L 21.375 23.871094 L 21.375 24.996094 L 22.5 24.996094 L 22.5 23.871094 L 21.382812 23.871094 L 21.375 22.746094 C 21.375 22.746094 22.5 22.746094 22.5 22.746094 L 22.5 22 C 22.5 21.730469 22.5 21.566406 22.5 21.246094 L 22.5 18.996094 C 22.5 17.183594 22.5 17.238281 22.5 17.167969 L 22.5 16.558594 L 19.6875 13.746094 Z M 20.25 23.871094 L 19.125 23.871094 L 19.125 24.996094 L 20.25 24.996094 Z M 19.125 23.871094 L 19.125 22.746094 L 18 22.746094 L 18 23.871094 Z M 18 23.871094 L 16.875 23.871094 L 16.875 24.996094 L 18 24.996094 Z M 16.875 23.871094 L 16.875 22.746094 L 15.75 22.746094 L 15.75 23.871094 Z M 15.75 23.871094 L 14.625 23.871094 L 14.625 24.996094 L 15.75 24.996094 Z M 14.625 23.871094 L 14.625 22.746094 L 13.5 22.746094 L 13.5 23.871094 Z M 14.625 23.871094 "/>
</g>
</defs>
<g id="surface1">
<path style=" stroke:none;fill-rule:nonzero;fill:rgb(95.686275%,60%,25.098039%);fill-opacity:1;" d="M 31.390625 7.566406 C 32.707031 7.566406 33.765625 8.625 33.765625 9.941406 L 33.765625 29.753906 C 33.765625 31.066406 32.707031 32.125 31.390625 32.125 L 4.609375 32.125 C 3.292969 32.125 2.234375 31.066406 2.234375 29.753906 L 2.234375 11.476562 L 2.238281 5.777344 C 2.238281 4.722656 3.085938 3.875 4.140625 3.875 L 14.367188 3.875 C 15.421875 3.875 16.285156 4.292969 16.957031 5.105469 L 18.984375 7.574219 Z M 31.390625 7.566406 "/>
<use xlink:href="#surface6"/>
</g>
</svg>
