<?xml version="1.0" encoding="UTF-8"?>
<svg xmlns="http://www.w3.org/2000/svg" xmlns:xlink="http://www.w3.org/1999/xlink" width="36pt" height="36pt" viewBox="0 0 36 36" version="1.1">
<g id="surface1">
<path style=" stroke:none;fill-rule:nonzero;fill:rgb(96.078431%,80.784314%,27.45098%);fill-opacity:1;" d="M 31.390625 7.566406 C 32.707031 7.566406 33.765625 8.625 33.765625 9.941406 L 33.765625 29.753906 C 33.765625 31.066406 32.707031 32.125 31.390625 32.125 L 4.609375 32.125 C 3.292969 32.125 2.234375 31.066406 2.234375 29.753906 L 2.234375 11.476562 L 2.238281 5.777344 C 2.238281 4.722656 3.085938 3.875 4.140625 3.875 L 14.367188 3.875 C 15.421875 3.875 16.285156 4.292969 16.957031 5.105469 L 18.984375 7.574219 Z M 31.390625 7.566406 "/>
<path style=" stroke:none;fill-rule:nonzero;fill:rgb(0%,0%,0%);fill-opacity:0.65098;" d="M 20.238281 13.289062 C 19.679688 13.308594 19.003906 13.617188 18.605469 14.027344 C 18.246094 14.394531 17.929688 14.976562 18.011719 15.535156 C 18.636719 15.578125 19.273438 15.257812 19.660156 14.847656 C 20.046875 14.433594 20.308594 13.863281 20.238281 13.289062 Z M 19.871094 15.546875 C 19.128906 15.605469 18.453125 16.089844 18.070312 16.089844 C 17.636719 16.089844 16.964844 15.5625 16.25 15.578125 C 15.3125 15.59375 14.445312 16.160156 13.964844 17.0625 C 12.988281 18.878906 13.710938 21.566406 14.660156 23.035156 C 15.125 23.757812 15.683594 24.570312 16.410156 24.539062 C 17.109375 24.507812 17.375 24.050781 18.21875 24.050781 C 19.066406 24.050781 19.300781 24.539062 20.042969 24.523438 C 20.796875 24.507812 21.273438 23.789062 21.734375 23.066406 C 22.265625 22.234375 22.484375 21.421875 22.5 21.378906 C 22.484375 21.371094 21.03125 20.777344 21.015625 18.984375 C 21.003906 17.480469 22.160156 16.757812 22.210938 16.722656 C 21.5625 15.707031 20.550781 15.566406 20.191406 15.550781 C 20.082031 15.535156 19.976562 15.539062 19.871094 15.546875 Z M 19.871094 15.546875 "/>
</g>
</svg>
