<?xml version="1.0" encoding="UTF-8"?>
<svg xmlns="http://www.w3.org/2000/svg" xmlns:xlink="http://www.w3.org/1999/xlink" width="36pt" height="36pt" viewBox="0 0 36 36" version="1.1">
<g id="surface1">
<path style=" stroke:none;fill-rule:nonzero;fill:rgb(95.686275%,60%,25.098039%);fill-opacity:1;" d="M 31.390625 7.566406 C 32.707031 7.566406 33.765625 8.625 33.765625 9.941406 L 33.765625 29.753906 C 33.765625 31.066406 32.707031 32.125 31.390625 32.125 L 4.609375 32.125 C 3.292969 32.125 2.234375 31.066406 2.234375 29.753906 L 2.234375 11.476562 L 2.238281 5.777344 C 2.238281 4.722656 3.085938 3.875 4.140625 3.875 L 14.367188 3.875 C 15.421875 3.875 16.285156 4.292969 16.957031 5.105469 L 18.984375 7.574219 Z M 31.390625 7.566406 "/>
<path style=" stroke:none;fill-rule:nonzero;fill:rgb(0%,0%,0%);fill-opacity:0.65098;" d="M 17.996094 15.074219 C 16.417969 15.074219 15.132812 16.222656 15.085938 17.660156 C 15.046875 17.667969 15.007812 17.683594 14.972656 17.699219 C 14.609375 17.871094 14.515625 18.402344 14.761719 18.894531 C 14.964844 19.289062 15.316406 19.535156 15.640625 19.527344 C 15.882812 20.84375 16.847656 21.824219 17.996094 21.824219 L 18.003906 21.824219 C 19.152344 21.824219 20.117188 20.84375 20.359375 19.527344 C 20.683594 19.535156 21.035156 19.289062 21.238281 18.894531 C 21.484375 18.402344 21.390625 17.871094 21.027344 17.699219 C 20.992188 17.683594 20.953125 17.667969 20.914062 17.660156 C 20.867188 16.222656 19.582031 15.074219 18.003906 15.074219 Z M 19.765625 22.066406 C 19.625 22.261719 19.441406 22.433594 19.195312 22.566406 L 19.191406 22.566406 C 18.839844 22.808594 18.433594 22.949219 18.003906 22.949219 L 17.996094 22.949219 C 17.339844 22.949219 16.746094 22.621094 16.3125 22.101562 C 14.476562 22.375 12.515625 22.765625 12.394531 23.214844 C 12.390625 23.21875 12.394531 23.226562 12.394531 23.234375 C 12.386719 23.257812 12.386719 23.277344 12.382812 23.300781 C 12.382812 23.308594 12.375 23.316406 12.375 23.328125 L 12.375 24.898438 C 12.375 25.0625 12.5 25.199219 12.65625 25.199219 L 23.34375 25.199219 C 23.5 25.199219 23.625 25.0625 23.625 24.898438 L 23.625 23.316406 C 23.625 23.28125 23.609375 23.25 23.597656 23.214844 C 23.46875 22.746094 21.566406 22.339844 19.765625 22.066406 Z M 19.765625 22.066406 "/>
</g>
</svg>
