<?xml version="1.0" encoding="UTF-8"?>
<svg xmlns="http://www.w3.org/2000/svg" xmlns:xlink="http://www.w3.org/1999/xlink" width="36pt" height="36pt" viewBox="0 0 36 36" version="1.1">
<g id="surface1">
<path style=" stroke:none;fill-rule:nonzero;fill:rgb(15.686275%,61.960784%,63.137255%);fill-opacity:1;" d="M 31.390625 7.566406 C 32.707031 7.566406 33.765625 8.625 33.765625 9.941406 L 33.765625 29.753906 C 33.765625 31.066406 32.707031 32.125 31.390625 32.125 L 4.609375 32.125 C 3.292969 32.125 2.234375 31.066406 2.234375 29.753906 L 2.234375 11.476562 L 2.238281 5.777344 C 2.238281 4.722656 3.085938 3.875 4.140625 3.875 L 14.367188 3.875 C 15.421875 3.875 16.285156 4.292969 16.957031 5.105469 L 18.984375 7.574219 Z M 31.390625 7.566406 "/>
<path style=" stroke:none;fill-rule:nonzero;fill:rgb(0%,0%,0%);fill-opacity:0.65098;" d="M 11.25 12.777344 L 11.25 26.277344 L 24.75 26.277344 L 24.75 12.777344 Z M 14.625 13.902344 L 15.75 13.902344 L 15.75 15.027344 L 16.3125 15.027344 C 17.042969 15.027344 17.664062 15.496094 17.898438 16.152344 L 15.75 16.152344 L 15.75 17.277344 L 16.3125 17.277344 C 17.246094 17.277344 18 18.027344 18 18.964844 C 18 19.898438 17.246094 20.652344 16.3125 20.652344 L 15.75 20.652344 L 15.75 21.777344 L 14.625 21.777344 L 14.625 20.652344 L 14.0625 20.652344 C 13.332031 20.652344 12.710938 20.179688 12.476562 19.527344 L 14.625 19.527344 L 14.625 18.402344 L 14.0625 18.402344 C 13.128906 18.402344 12.375 17.648438 12.375 16.714844 C 12.375 15.777344 13.128906 15.027344 14.0625 15.027344 L 14.625 15.027344 Z M 14.0625 16.152344 C 13.746094 16.152344 13.5 16.398438 13.5 16.714844 C 13.5 17.027344 13.746094 17.277344 14.0625 17.277344 L 14.625 17.277344 L 14.625 16.152344 Z M 15.75 18.402344 L 15.75 19.527344 L 16.3125 19.527344 C 16.628906 19.535156 16.875 19.277344 16.875 18.964844 C 16.875 18.648438 16.628906 18.402344 16.3125 18.402344 Z M 19.125 20.652344 L 23.625 20.652344 L 23.625 21.777344 L 19.125 21.777344 Z M 19.125 20.652344 "/>
</g>
</svg>
