<?xml version="1.0" encoding="UTF-8"?>
<svg xmlns="http://www.w3.org/2000/svg" xmlns:xlink="http://www.w3.org/1999/xlink" width="36pt" height="36pt" viewBox="0 0 36 36" version="1.1">
<g id="surface1">
<path style=" stroke:none;fill-rule:nonzero;fill:rgb(88.627451%,32.156863%,32.156863%);fill-opacity:1;" d="M 31.390625 7.566406 C 32.707031 7.566406 33.765625 8.625 33.765625 9.941406 L 33.765625 29.753906 C 33.765625 31.066406 32.707031 32.125 31.390625 32.125 L 4.609375 32.125 C 3.292969 32.125 2.234375 31.066406 2.234375 29.753906 L 2.234375 11.476562 L 2.238281 5.777344 C 2.238281 4.722656 3.085938 3.875 4.140625 3.875 L 14.367188 3.875 C 15.421875 3.875 16.285156 4.292969 16.957031 5.105469 L 18.984375 7.574219 Z M 31.390625 7.566406 "/>
<path style=" stroke:none;fill-rule:nonzero;fill:rgb(0%,0%,0%);fill-opacity:0.65098;" d="M 17.691406 15.398438 C 14.691406 15.398438 15.390625 17.914062 13.851562 18.738281 C 13.800781 18.769531 13.769531 18.796875 13.722656 18.828125 C 14.734375 18.222656 15.984375 17.71875 17.3125 17.378906 C 18.433594 17.089844 19.574219 16.925781 20.625 16.90625 C 20.648438 16.90625 20.675781 16.90625 20.703125 16.90625 C 19.691406 16.617188 19.582031 15.398438 17.691406 15.398438 Z M 20.960938 17.667969 C 19.910156 17.6875 18.773438 17.847656 17.648438 18.136719 C 13.949219 19.089844 11.308594 21.160156 11.757812 22.761719 C 12.015625 23.679688 13.257812 24.507812 15.109375 24.617188 C 15.105469 24.609375 15.105469 24.605469 15.105469 24.597656 C 15.003906 23.730469 15.554688 22.976562 16.199219 22.46875 C 16.84375 21.957031 17.671875 21.585938 18.601562 21.386719 C 19.535156 21.191406 20.40625 21.199219 21.132812 21.417969 C 21.820312 21.625 22.464844 22.074219 22.621094 22.847656 C 24.476562 21.808594 25.4375 20.328125 25.160156 19.316406 C 24.863281 18.253906 23.253906 17.621094 20.960938 17.667969 Z M 19.859375 22.109375 C 19.488281 22.105469 19.09375 22.144531 18.699219 22.226562 C 17.070312 22.574219 15.832031 23.554688 15.929688 24.421875 C 16.03125 25.289062 17.433594 25.707031 19.0625 25.363281 C 20.6875 25.015625 21.925781 24.035156 21.828125 23.167969 C 21.753906 22.539062 20.980469 22.121094 19.859375 22.109375 Z M 19.859375 22.109375 "/>
</g>
</svg>
