<?xml version="1.0" encoding="UTF-8"?>
<svg xmlns="http://www.w3.org/2000/svg" xmlns:xlink="http://www.w3.org/1999/xlink" width="36pt" height="36pt" viewBox="0 0 36 36" version="1.1">
<g id="surface1">
<path style=" stroke:none;fill-rule:nonzero;fill:rgb(60.392157%,60.392157%,60.392157%);fill-opacity:1;" d="M 31.390625 7.566406 C 32.707031 7.566406 33.765625 8.625 33.765625 9.941406 L 33.765625 29.753906 C 33.765625 31.066406 32.707031 32.125 31.390625 32.125 L 4.609375 32.125 C 3.292969 32.125 2.234375 31.066406 2.234375 29.753906 L 2.234375 11.476562 L 2.238281 5.777344 C 2.238281 4.722656 3.085938 3.875 4.140625 3.875 L 14.367188 3.875 C 15.421875 3.875 16.285156 4.292969 16.957031 5.105469 L 18.984375 7.574219 Z M 31.390625 7.566406 "/>
<path style=" stroke:none;fill-rule:nonzero;fill:rgb(0%,0%,0%);fill-opacity:0.65098;" d="M 17.996094 14.769531 C 16.417969 14.769531 15.132812 15.917969 15.085938 17.355469 C 15.046875 17.363281 15.007812 17.378906 14.972656 17.394531 C 14.609375 17.566406 14.515625 18.097656 14.761719 18.589844 C 14.964844 18.984375 15.316406 19.230469 15.640625 19.222656 C 15.882812 20.535156 16.847656 21.519531 17.996094 21.519531 L 18.003906 21.519531 C 19.152344 21.519531 20.117188 20.535156 20.359375 19.222656 C 20.683594 19.230469 21.035156 18.984375 21.238281 18.589844 C 21.484375 18.097656 21.390625 17.566406 21.027344 17.394531 C 20.992188 17.378906 20.953125 17.363281 20.914062 17.355469 C 20.867188 15.917969 19.582031 14.769531 18.003906 14.769531 Z M 19.765625 21.761719 C 19.625 21.957031 19.441406 22.128906 19.195312 22.261719 L 19.191406 22.261719 C 18.839844 22.503906 18.433594 22.644531 18.003906 22.644531 L 17.996094 22.644531 C 17.339844 22.644531 16.746094 22.316406 16.3125 21.796875 C 14.476562 22.066406 12.515625 22.460938 12.394531 22.910156 C 12.390625 22.914062 12.394531 22.921875 12.394531 22.929688 C 12.386719 22.953125 12.386719 22.972656 12.382812 22.992188 C 12.382812 23.003906 12.375 23.011719 12.375 23.023438 L 12.375 24.589844 C 12.375 24.757812 12.5 24.894531 12.65625 24.894531 L 23.34375 24.894531 C 23.5 24.894531 23.625 24.757812 23.625 24.589844 L 23.625 23.011719 C 23.625 22.976562 23.609375 22.945312 23.597656 22.910156 C 23.46875 22.441406 21.566406 22.035156 19.765625 21.761719 Z M 19.765625 21.761719 "/>
</g>
</svg>
