<?xml version="1.0" encoding="UTF-8"?>
<svg xmlns="http://www.w3.org/2000/svg" xmlns:xlink="http://www.w3.org/1999/xlink" width="36pt" height="36pt" viewBox="0 0 36 36" version="1.1">
<g id="surface1">
<path style=" stroke:none;fill-rule:nonzero;fill:rgb(60.392157%,60.392157%,60.392157%);fill-opacity:1;" d="M 31.390625 7.566406 C 32.707031 7.566406 33.765625 8.625 33.765625 9.941406 L 33.765625 29.753906 C 33.765625 31.066406 32.707031 32.125 31.390625 32.125 L 4.609375 32.125 C 3.292969 32.125 2.234375 31.066406 2.234375 29.753906 L 2.234375 11.476562 L 2.238281 5.777344 C 2.238281 4.722656 3.085938 3.875 4.140625 3.875 L 14.367188 3.875 C 15.421875 3.875 16.285156 4.292969 16.957031 5.105469 L 18.984375 7.574219 Z M 31.390625 7.566406 "/>
<path style=" stroke:none;fill-rule:nonzero;fill:rgb(0%,0%,0%);fill-opacity:0.65098;" d="M 18 13.902344 C 17.148438 13.902344 16.449219 14.222656 15.957031 14.6875 C 15.464844 15.15625 15.167969 15.746094 14.976562 16.308594 C 14.632812 17.332031 14.628906 18.230469 14.632812 18.402344 L 14.0625 18.402344 C 13.75 18.402344 13.5 18.652344 13.5 18.964844 L 13.5 24.589844 C 13.5 24.898438 13.75 25.152344 14.0625 25.152344 L 21.9375 25.152344 C 22.25 25.152344 22.5 24.898438 22.5 24.589844 L 22.5 18.964844 C 22.5 18.652344 22.25 18.402344 21.9375 18.402344 L 21.367188 18.402344 C 21.371094 18.230469 21.367188 17.332031 21.023438 16.308594 C 20.832031 15.746094 20.535156 15.15625 20.042969 14.6875 C 19.550781 14.222656 18.851562 13.902344 18 13.902344 Z M 18 15.027344 C 18.589844 15.027344 18.960938 15.210938 19.269531 15.503906 C 19.574219 15.796875 19.804688 16.21875 19.957031 16.667969 C 20.234375 17.488281 20.242188 18.253906 20.242188 18.402344 L 15.757812 18.402344 C 15.757812 18.253906 15.765625 17.488281 16.042969 16.667969 C 16.195312 16.21875 16.425781 15.796875 16.730469 15.503906 C 17.039062 15.210938 17.410156 15.027344 18 15.027344 Z M 18 15.027344 "/>
</g>
</svg>
