<?xml version="1.0" encoding="UTF-8"?>
<svg xmlns="http://www.w3.org/2000/svg" xmlns:xlink="http://www.w3.org/1999/xlink" width="36pt" height="36pt" viewBox="0 0 36 36" version="1.1">
<g id="surface1">
<path style=" stroke:none;fill-rule:nonzero;fill:rgb(95.686275%,60%,25.098039%);fill-opacity:1;" d="M 31.390625 7.566406 C 32.707031 7.566406 33.765625 8.625 33.765625 9.941406 L 33.765625 29.753906 C 33.765625 31.066406 32.707031 32.125 31.390625 32.125 L 4.609375 32.125 C 3.292969 32.125 2.234375 31.066406 2.234375 29.753906 L 2.234375 11.476562 L 2.238281 5.777344 C 2.238281 4.722656 3.085938 3.875 4.140625 3.875 L 14.367188 3.875 C 15.421875 3.875 16.285156 4.292969 16.957031 5.105469 L 18.984375 7.574219 Z M 31.390625 7.566406 "/>
<path style=" stroke:none;fill-rule:nonzero;fill:rgb(0%,0%,0%);fill-opacity:0.65098;" d="M 17.847656 13.234375 C 14.121094 13.234375 11.097656 16.253906 11.097656 19.984375 C 11.097656 23.710938 14.121094 26.734375 17.847656 26.734375 C 21.574219 26.734375 24.597656 23.710938 24.597656 19.984375 C 24.597656 16.253906 21.574219 13.234375 17.847656 13.234375 Z M 14.472656 16.609375 L 16.722656 16.609375 L 16.722656 16.613281 L 17.847656 17.734375 L 18.972656 16.609375 L 21.222656 16.609375 L 21.222656 23.359375 L 18.972656 23.359375 L 18.972656 19.984375 L 17.847656 21.109375 L 16.722656 19.984375 L 16.722656 23.359375 L 14.472656 23.359375 Z M 14.472656 16.609375 "/>
</g>
</svg>
