<?xml version="1.0" encoding="UTF-8"?>
<svg xmlns="http://www.w3.org/2000/svg" xmlns:xlink="http://www.w3.org/1999/xlink" width="36pt" height="36pt" viewBox="0 0 36 36" version="1.1">
<g id="surface1">
<path style=" stroke:none;fill-rule:nonzero;fill:rgb(60.392157%,60.392157%,60.392157%);fill-opacity:1;" d="M 31.390625 7.566406 C 32.707031 7.566406 33.765625 8.625 33.765625 9.941406 L 33.765625 29.753906 C 33.765625 31.066406 32.707031 32.125 31.390625 32.125 L 4.609375 32.125 C 3.292969 32.125 2.234375 31.066406 2.234375 29.753906 L 2.234375 11.476562 L 2.238281 5.777344 C 2.238281 4.722656 3.085938 3.875 4.140625 3.875 L 14.367188 3.875 C 15.421875 3.875 16.285156 4.292969 16.957031 5.105469 L 18.984375 7.574219 Z M 31.390625 7.566406 "/>
<path style=" stroke:none;fill-rule:nonzero;fill:rgb(0%,0%,0%);fill-opacity:0.65098;" d="M 15.75 15.636719 L 14.625 16.761719 L 14.0625 16.761719 C 13.128906 16.761719 12.375 17.386719 12.375 18.167969 L 12.375 23.230469 C 12.375 24.007812 13.128906 24.636719 14.0625 24.636719 L 21.9375 24.636719 C 22.871094 24.636719 23.625 24.007812 23.625 23.230469 L 23.625 18.167969 C 23.625 17.386719 22.871094 16.761719 21.9375 16.761719 L 21.375 16.761719 L 20.25 15.636719 Z M 18 17.886719 C 19.242188 17.886719 20.25 18.894531 20.25 20.136719 C 20.25 21.378906 19.242188 22.386719 18 22.386719 C 16.757812 22.386719 15.75 21.378906 15.75 20.136719 C 15.75 18.894531 16.757812 17.886719 18 17.886719 Z M 18 17.886719 "/>
</g>
</svg>
