<?xml version="1.0" encoding="UTF-8"?>
<svg xmlns="http://www.w3.org/2000/svg" xmlns:xlink="http://www.w3.org/1999/xlink" width="36pt" height="36pt" viewBox="0 0 36 36" version="1.1">
<g id="surface1">
<path style=" stroke:none;fill-rule:nonzero;fill:rgb(30.980392%,30.980392%,30.980392%);fill-opacity:1;" d="M 31.390625 7.566406 C 32.707031 7.566406 33.765625 8.625 33.765625 9.941406 L 33.765625 29.753906 C 33.765625 31.066406 32.707031 32.125 31.390625 32.125 L 4.609375 32.125 C 3.292969 32.125 2.234375 31.066406 2.234375 29.753906 L 2.234375 11.476562 L 2.238281 5.777344 C 2.238281 4.722656 3.085938 3.875 4.140625 3.875 L 14.367188 3.875 C 15.421875 3.875 16.285156 4.292969 16.957031 5.105469 L 18.984375 7.574219 Z M 31.390625 7.566406 "/>
<path style=" stroke:none;fill-rule:nonzero;fill:rgb(0%,0%,0%);fill-opacity:0.65098;" d="M 18 14.359375 C 14.894531 14.359375 12.375 16.875 12.375 19.984375 C 12.375 23.089844 14.894531 25.609375 18 25.609375 C 21.105469 25.609375 23.625 23.089844 23.625 19.984375 C 23.625 16.875 21.105469 14.359375 18 14.359375 Z M 17.597656 15.914062 C 17.652344 15.910156 17.71875 15.917969 17.773438 15.914062 C 17.78125 15.941406 17.734375 16.03125 17.671875 16.164062 C 17.285156 17.019531 17.261719 18.019531 17.625 18.550781 C 17.6875 18.648438 17.75 18.742188 17.75 18.753906 C 17.75 18.765625 17.679688 18.777344 17.597656 18.777344 C 17.410156 18.777344 17.234375 18.664062 16.871094 18.375 C 16.707031 18.25 16.5 18.140625 16.417969 18.125 C 16.289062 18.101562 16.257812 18.109375 16.09375 18.273438 C 15.9375 18.429688 15.890625 18.511719 15.890625 18.652344 C 15.890625 19.183594 16.523438 19.609375 17.699219 19.855469 C 19.292969 20.195312 19.6875 20.5 19.734375 21.339844 C 19.789062 22.390625 19.226562 23.1875 18 23.800781 C 17.855469 23.875 17.761719 23.902344 17.699219 23.925781 C 17.671875 23.921875 17.648438 23.929688 17.625 23.925781 C 17.613281 23.894531 17.597656 23.816406 17.597656 23.675781 C 17.597656 23.113281 17.378906 22.539062 17.046875 22.21875 C 16.957031 22.132812 16.707031 21.949219 16.492188 21.816406 C 16.28125 21.683594 16.0625 21.53125 16.015625 21.464844 C 15.9375 21.355469 15.929688 21.289062 15.992188 21.085938 C 16.101562 20.722656 16.234375 20.515625 16.492188 20.285156 C 16.628906 20.164062 16.765625 20.0625 16.796875 20.058594 C 16.824219 20.054688 16.621094 19.996094 16.316406 19.933594 C 16.011719 19.871094 15.570312 19.738281 15.339844 19.65625 C 14.917969 19.503906 14.347656 19.183594 14.132812 18.953125 C 14.125 18.945312 14.117188 18.9375 14.109375 18.929688 C 14.417969 17.691406 15.289062 16.679688 16.441406 16.191406 C 16.683594 16.089844 16.933594 16.019531 17.195312 15.964844 C 17.328125 15.9375 17.464844 15.929688 17.597656 15.914062 Z M 21.363281 17.796875 C 21.460938 17.855469 21.816406 18.628906 21.917969 19.003906 C 22.050781 19.488281 22.039062 20.328125 21.917969 20.8125 C 21.871094 20.996094 21.8125 21.167969 21.792969 21.1875 C 21.773438 21.210938 21.699219 21.085938 21.617188 20.9375 C 21.53125 20.789062 21.261719 20.46875 21.039062 20.234375 C 20.390625 19.550781 20.289062 19.195312 20.5625 18.652344 C 20.699219 18.378906 21.292969 17.753906 21.363281 17.796875 Z M 21.363281 17.796875 "/>
</g>
</svg>
