<?xml version="1.0" encoding="UTF-8"?>
<svg xmlns="http://www.w3.org/2000/svg" xmlns:xlink="http://www.w3.org/1999/xlink" width="36pt" height="36pt" viewBox="0 0 36 36" version="1.1">
<defs>
<clipPath id="clip1">
  <rect width="36" height="36"/>
</clipPath>
<g id="surface6" clip-path="url(#clip1)">
<path style=" stroke:none;fill-rule:nonzero;fill:rgb(0%,0%,0%);fill-opacity:0.65098;" d="M 16.582031 13.902344 L 16.457031 15.382812 C 15.980469 15.558594 15.542969 15.808594 15.152344 16.128906 L 13.792969 15.496094 L 12.375 17.933594 L 13.609375 18.78125 C 13.566406 19.027344 13.542969 19.277344 13.539062 19.527344 C 13.539062 19.777344 13.5625 20.03125 13.605469 20.277344 L 12.375 21.121094 L 13.792969 23.558594 L 15.148438 22.921875 C 15.539062 23.242188 15.980469 23.496094 16.457031 23.667969 L 16.582031 25.152344 L 19.417969 25.152344 L 19.542969 23.671875 C 20.019531 23.496094 20.457031 23.242188 20.847656 22.921875 L 22.207031 23.554688 L 23.625 21.121094 L 22.390625 20.273438 C 22.433594 20.027344 22.457031 19.777344 22.457031 19.527344 C 22.457031 19.273438 22.433594 19.023438 22.390625 18.777344 L 23.621094 17.929688 L 22.207031 15.496094 L 20.847656 16.128906 C 20.457031 15.808594 20.015625 15.558594 19.542969 15.386719 L 19.417969 13.902344 Z M 18 17.277344 C 19.242188 17.277344 20.25 18.28125 20.25 19.527344 C 20.25 20.769531 19.242188 21.777344 18 21.777344 C 16.757812 21.777344 15.75 20.769531 15.75 19.527344 C 15.75 18.28125 16.757812 17.277344 18 17.277344 Z M 18 17.277344 "/>
</g>
</defs>
<g id="surface1">
<path style=" stroke:none;fill-rule:nonzero;fill:rgb(95.686275%,60%,25.098039%);fill-opacity:1;" d="M 31.390625 7.566406 C 32.707031 7.566406 33.765625 8.625 33.765625 9.941406 L 33.765625 29.753906 C 33.765625 31.066406 32.707031 32.125 31.390625 32.125 L 4.609375 32.125 C 3.292969 32.125 2.234375 31.066406 2.234375 29.753906 L 2.234375 11.476562 L 2.238281 5.777344 C 2.238281 4.722656 3.085938 3.875 4.140625 3.875 L 14.367188 3.875 C 15.421875 3.875 16.285156 4.292969 16.957031 5.105469 L 18.984375 7.574219 Z M 31.390625 7.566406 "/>
<use xlink:href="#surface6"/>
</g>
</svg>
