<?xml version="1.0" encoding="UTF-8"?>
<svg xmlns="http://www.w3.org/2000/svg" xmlns:xlink="http://www.w3.org/1999/xlink" width="36pt" height="36pt" viewBox="0 0 36 36" version="1.1">
<g id="surface1">
<path style=" stroke:none;fill-rule:nonzero;fill:rgb(32.156863%,58.039216%,88.627451%);fill-opacity:1;" d="M 31.390625 7.566406 C 32.707031 7.566406 33.765625 8.625 33.765625 9.941406 L 33.765625 29.753906 C 33.765625 31.066406 32.707031 32.125 31.390625 32.125 L 4.609375 32.125 C 3.292969 32.125 2.234375 31.066406 2.234375 29.753906 L 2.234375 11.476562 L 2.238281 5.777344 C 2.238281 4.722656 3.085938 3.875 4.140625 3.875 L 14.367188 3.875 C 15.421875 3.875 16.285156 4.292969 16.957031 5.105469 L 18.984375 7.574219 Z M 31.390625 7.566406 "/>
<path style=" stroke:none;fill-rule:nonzero;fill:rgb(0%,0%,0%);fill-opacity:0.65098;" d="M 17.234375 15.09375 C 14.234375 15.09375 14.933594 17.609375 13.394531 18.433594 C 13.34375 18.464844 13.3125 18.492188 13.265625 18.519531 C 14.277344 17.917969 15.527344 17.414062 16.851562 17.074219 C 17.976562 16.785156 19.113281 16.621094 20.164062 16.601562 C 20.191406 16.601562 20.21875 16.601562 20.246094 16.601562 C 19.234375 16.3125 19.121094 15.09375 17.234375 15.09375 Z M 20.503906 17.359375 C 19.453125 17.378906 18.3125 17.542969 17.191406 17.832031 C 13.488281 18.785156 10.851562 20.855469 11.300781 22.457031 C 11.558594 23.375 12.800781 24.203125 14.648438 24.3125 C 14.648438 24.304688 14.648438 24.300781 14.644531 24.292969 C 14.546875 23.425781 15.097656 22.671875 15.742188 22.160156 C 16.386719 21.652344 17.214844 21.28125 18.144531 21.082031 C 19.078125 20.886719 19.945312 20.894531 20.675781 21.113281 C 21.363281 21.320312 22.007812 21.769531 22.164062 22.542969 C 24.019531 21.503906 24.980469 20.023438 24.703125 19.011719 C 24.40625 17.949219 22.796875 17.316406 20.503906 17.359375 Z M 19.402344 21.804688 C 19.03125 21.796875 18.632812 21.839844 18.242188 21.921875 C 16.613281 22.269531 15.375 23.25 15.472656 24.117188 C 15.574219 24.984375 16.976562 25.402344 18.601562 25.058594 C 20.230469 24.710938 21.46875 23.730469 21.367188 22.863281 C 21.296875 22.234375 20.519531 21.816406 19.402344 21.804688 Z M 19.402344 21.804688 "/>
</g>
</svg>
