<?xml version="1.0" encoding="UTF-8"?>
<svg xmlns="http://www.w3.org/2000/svg" xmlns:xlink="http://www.w3.org/1999/xlink" width="36pt" height="36pt" viewBox="0 0 36 36" version="1.1">
<g id="surface1">
<path style=" stroke:none;fill-rule:nonzero;fill:rgb(52.156863%,41.960784%,20.784314%);fill-opacity:1;" d="M 31.390625 7.566406 C 32.707031 7.566406 33.765625 8.625 33.765625 9.941406 L 33.765625 29.753906 C 33.765625 31.066406 32.707031 32.125 31.390625 32.125 L 4.609375 32.125 C 3.292969 32.125 2.234375 31.066406 2.234375 29.753906 L 2.234375 11.476562 L 2.238281 5.777344 C 2.238281 4.722656 3.085938 3.875 4.140625 3.875 L 14.367188 3.875 C 15.421875 3.875 16.285156 4.292969 16.957031 5.105469 L 18.984375 7.574219 Z M 31.390625 7.566406 "/>
<path style=" stroke:none;fill-rule:nonzero;fill:rgb(0%,0%,0%);fill-opacity:0.65098;" d="M 18 12.777344 C 14.273438 12.777344 11.25 15.796875 11.25 19.527344 C 11.25 23.253906 14.273438 26.277344 18 26.277344 C 21.726562 26.277344 24.75 23.253906 24.75 19.527344 C 24.75 15.796875 21.726562 12.777344 18 12.777344 Z M 14.625 16.152344 L 16.875 16.152344 L 16.875 16.15625 L 18 17.277344 L 19.125 16.152344 L 21.375 16.152344 L 21.375 22.902344 L 19.125 22.902344 L 19.125 19.527344 L 18 20.652344 L 16.875 19.527344 L 16.875 22.902344 L 14.625 22.902344 Z M 14.625 16.152344 "/>
</g>
</svg>
