<?xml version="1.0" encoding="UTF-8"?>
<svg xmlns="http://www.w3.org/2000/svg" xmlns:xlink="http://www.w3.org/1999/xlink" width="36pt" height="36pt" viewBox="0 0 36 36" version="1.1">
<g id="surface1">
<path style=" stroke:none;fill-rule:nonzero;fill:rgb(52.156863%,41.960784%,20.784314%);fill-opacity:1;" d="M 31.390625 7.566406 C 32.707031 7.566406 33.765625 8.625 33.765625 9.941406 L 33.765625 29.753906 C 33.765625 31.066406 32.707031 32.125 31.390625 32.125 L 4.609375 32.125 C 3.292969 32.125 2.234375 31.066406 2.234375 29.753906 L 2.234375 11.476562 L 2.238281 5.777344 C 2.238281 4.722656 3.085938 3.875 4.140625 3.875 L 14.367188 3.875 C 15.421875 3.875 16.285156 4.292969 16.957031 5.105469 L 18.984375 7.574219 Z M 31.390625 7.566406 "/>
<path style=" stroke:none;fill-rule:nonzero;fill:rgb(0%,0%,0%);fill-opacity:0.65098;" d="M 18.613281 21.539062 C 17.710938 21.957031 16.875 21.953125 16.3125 21.914062 C 15.640625 21.863281 15.101562 21.679688 14.863281 21.519531 C 14.71875 21.421875 14.519531 21.460938 14.421875 21.605469 C 14.320312 21.75 14.359375 21.949219 14.507812 22.050781 C 14.886719 22.308594 15.5625 22.5 16.265625 22.550781 C 16.386719 22.558594 16.515625 22.5625 16.65625 22.5625 C 17.269531 22.5625 18.046875 22.503906 18.882812 22.117188 C 19.039062 22.042969 19.109375 21.855469 19.035156 21.695312 C 18.960938 21.535156 18.769531 21.464844 18.613281 21.539062 Z M 22.164062 21.066406 C 22.195312 18.289062 22.480469 13.042969 17.164062 13.46875 C 11.917969 13.890625 13.308594 19.433594 13.230469 21.289062 C 13.160156 22.269531 12.835938 23.472656 12.375 24.691406 L 13.792969 24.691406 C 13.9375 24.175781 14.046875 23.664062 14.09375 23.175781 C 14.179688 23.234375 14.269531 23.292969 14.367188 23.347656 C 14.527344 23.441406 14.664062 23.566406 14.808594 23.699219 C 15.144531 24.003906 15.527344 24.355469 16.277344 24.398438 C 16.328125 24.402344 16.375 24.402344 16.425781 24.402344 C 17.183594 24.402344 17.699219 24.070312 18.117188 23.804688 C 18.316406 23.675781 18.488281 23.566406 18.648438 23.515625 C 19.109375 23.371094 19.511719 23.136719 19.8125 22.839844 C 19.859375 22.792969 19.902344 22.746094 19.945312 22.699219 C 20.113281 23.3125 20.34375 24.003906 20.597656 24.691406 L 23.625 24.691406 C 22.898438 23.570312 22.148438 22.46875 22.164062 21.066406 Z M 13.738281 19.554688 C 13.6875 18.648438 14.121094 17.886719 14.707031 17.851562 C 15.292969 17.816406 15.8125 18.523438 15.863281 19.429688 C 15.867188 19.480469 15.867188 19.527344 15.867188 19.578125 C 15.683594 19.625 15.515625 19.691406 15.363281 19.769531 C 15.363281 19.761719 15.363281 19.757812 15.363281 19.75 C 15.3125 19.234375 15.039062 18.847656 14.75 18.882812 C 14.460938 18.917969 14.265625 19.363281 14.316406 19.878906 C 14.339844 20.101562 14.402344 20.300781 14.492188 20.453125 C 14.46875 20.472656 14.40625 20.515625 14.335938 20.570312 C 14.28125 20.609375 14.214844 20.660156 14.132812 20.71875 C 13.914062 20.429688 13.765625 20.019531 13.738281 19.554688 Z M 19.683594 21.792969 C 19.664062 22.273438 19.035156 22.722656 18.457031 22.902344 L 18.453125 22.90625 C 18.214844 22.984375 18 23.121094 17.773438 23.265625 C 17.390625 23.511719 16.996094 23.761719 16.425781 23.761719 C 16.390625 23.761719 16.351562 23.761719 16.3125 23.757812 C 15.789062 23.730469 15.546875 23.507812 15.238281 23.226562 C 15.074219 23.074219 14.90625 22.921875 14.6875 22.792969 L 14.683594 22.792969 C 14.214844 22.527344 13.921875 22.199219 13.90625 21.910156 C 13.894531 21.769531 13.960938 21.644531 14.09375 21.542969 C 14.386719 21.324219 14.582031 21.179688 14.710938 21.085938 C 14.855469 20.980469 14.898438 20.949219 14.933594 20.917969 C 14.953125 20.898438 14.980469 20.871094 15.007812 20.847656 C 15.273438 20.585938 15.722656 20.148438 16.414062 20.148438 C 16.835938 20.148438 17.304688 20.3125 17.800781 20.628906 C 18.035156 20.78125 18.238281 20.855469 18.496094 20.941406 C 18.675781 21.003906 18.875 21.074219 19.144531 21.1875 L 19.148438 21.191406 C 19.402344 21.292969 19.699219 21.480469 19.683594 21.792969 Z M 19.546875 20.667969 C 19.496094 20.644531 19.445312 20.621094 19.394531 20.601562 C 19.152344 20.496094 18.957031 20.425781 18.796875 20.371094 C 18.882812 20.195312 18.941406 19.976562 18.945312 19.742188 C 18.957031 19.164062 18.667969 18.699219 18.296875 18.695312 C 17.925781 18.695312 17.617188 19.160156 17.605469 19.738281 C 17.601562 19.757812 17.601562 19.773438 17.601562 19.792969 C 17.375 19.6875 17.152344 19.613281 16.929688 19.566406 C 16.929688 19.542969 16.929688 19.523438 16.929688 19.5 C 16.90625 18.453125 17.550781 17.585938 18.363281 17.5625 C 19.179688 17.539062 19.859375 18.371094 19.878906 19.421875 C 19.886719 19.894531 19.761719 20.332031 19.546875 20.667969 Z M 19.546875 20.667969 "/>
</g>
</svg>
