<?xml version="1.0" encoding="UTF-8"?>
<svg xmlns="http://www.w3.org/2000/svg" xmlns:xlink="http://www.w3.org/1999/xlink" width="36pt" height="36pt" viewBox="0 0 36 36" version="1.1">
<g id="surface1">
<path style=" stroke:none;fill-rule:nonzero;fill:rgb(60.392157%,60.392157%,60.392157%);fill-opacity:1;" d="M 31.390625 7.566406 C 32.707031 7.566406 33.765625 8.625 33.765625 9.941406 L 33.765625 29.753906 C 33.765625 31.066406 32.707031 32.125 31.390625 32.125 L 4.609375 32.125 C 3.292969 32.125 2.234375 31.066406 2.234375 29.753906 L 2.234375 11.476562 L 2.238281 5.777344 C 2.238281 4.722656 3.085938 3.875 4.140625 3.875 L 14.367188 3.875 C 15.421875 3.875 16.285156 4.292969 16.957031 5.105469 L 18.984375 7.574219 Z M 31.390625 7.566406 "/>
<path style=" stroke:none;fill-rule:nonzero;fill:rgb(0%,0%,0%);fill-opacity:0.65098;" d="M 18.613281 22.300781 C 17.710938 22.71875 16.875 22.714844 16.3125 22.675781 C 15.640625 22.625 15.101562 22.441406 14.863281 22.28125 C 14.71875 22.183594 14.519531 22.222656 14.421875 22.367188 C 14.320312 22.515625 14.359375 22.714844 14.507812 22.8125 C 14.886719 23.070312 15.5625 23.261719 16.265625 23.3125 C 16.386719 23.320312 16.515625 23.328125 16.65625 23.328125 C 17.269531 23.328125 18.046875 23.269531 18.882812 22.882812 C 19.039062 22.804688 19.109375 22.617188 19.035156 22.457031 C 18.960938 22.296875 18.769531 22.226562 18.613281 22.300781 Z M 22.164062 21.828125 C 22.195312 19.050781 22.480469 13.804688 17.164062 14.230469 C 11.917969 14.652344 13.308594 20.195312 13.230469 22.050781 C 13.160156 23.035156 12.835938 24.234375 12.375 25.457031 L 13.792969 25.457031 C 13.9375 24.9375 14.046875 24.425781 14.09375 23.9375 C 14.179688 23.996094 14.269531 24.054688 14.367188 24.109375 C 14.527344 24.203125 14.664062 24.328125 14.808594 24.460938 C 15.144531 24.769531 15.527344 25.117188 16.277344 25.160156 C 16.328125 25.164062 16.375 25.164062 16.425781 25.164062 C 17.183594 25.164062 17.699219 24.832031 18.117188 24.566406 C 18.316406 24.441406 18.488281 24.328125 18.648438 24.277344 C 19.109375 24.132812 19.511719 23.898438 19.8125 23.605469 C 19.859375 23.558594 19.902344 23.511719 19.945312 23.460938 C 20.113281 24.074219 20.34375 24.765625 20.597656 25.457031 L 23.625 25.457031 C 22.898438 24.332031 22.148438 23.230469 22.164062 21.828125 Z M 13.738281 20.316406 C 13.6875 19.410156 14.121094 18.648438 14.707031 18.613281 C 15.292969 18.582031 15.8125 19.289062 15.863281 20.195312 C 15.867188 20.242188 15.867188 20.292969 15.867188 20.339844 C 15.683594 20.386719 15.515625 20.453125 15.363281 20.53125 C 15.363281 20.527344 15.363281 20.519531 15.363281 20.511719 C 15.3125 20 15.039062 19.609375 14.75 19.644531 C 14.460938 19.679688 14.265625 20.125 14.316406 20.640625 C 14.339844 20.863281 14.402344 21.066406 14.492188 21.214844 C 14.46875 21.234375 14.40625 21.28125 14.335938 21.332031 C 14.28125 21.375 14.214844 21.421875 14.132812 21.480469 C 13.914062 21.195312 13.765625 20.78125 13.738281 20.316406 Z M 19.683594 22.558594 C 19.664062 23.035156 19.035156 23.484375 18.457031 23.667969 L 18.453125 23.667969 C 18.214844 23.746094 18 23.882812 17.773438 24.027344 C 17.390625 24.273438 16.996094 24.523438 16.425781 24.523438 C 16.390625 24.523438 16.351562 24.523438 16.3125 24.523438 C 15.789062 24.492188 15.546875 24.269531 15.238281 23.988281 C 15.074219 23.839844 14.90625 23.683594 14.6875 23.558594 L 14.683594 23.554688 C 14.214844 23.289062 13.921875 22.960938 13.90625 22.671875 C 13.894531 22.53125 13.960938 22.40625 14.09375 22.308594 C 14.386719 22.085938 14.582031 21.945312 14.710938 21.847656 C 14.855469 21.742188 14.898438 21.710938 14.933594 21.679688 C 14.953125 21.660156 14.980469 21.636719 15.007812 21.609375 C 15.273438 21.347656 15.722656 20.910156 16.414062 20.910156 C 16.835938 20.910156 17.304688 21.074219 17.800781 21.394531 C 18.035156 21.546875 18.238281 21.617188 18.496094 21.707031 C 18.675781 21.765625 18.875 21.835938 19.144531 21.953125 L 19.148438 21.953125 C 19.402344 22.054688 19.699219 22.246094 19.683594 22.558594 Z M 19.546875 21.433594 C 19.496094 21.40625 19.445312 21.382812 19.394531 21.363281 C 19.152344 21.257812 18.957031 21.1875 18.796875 21.132812 C 18.882812 20.957031 18.941406 20.738281 18.945312 20.503906 C 18.957031 19.929688 18.667969 19.460938 18.296875 19.460938 C 17.925781 19.457031 17.617188 19.925781 17.605469 20.5 C 17.601562 20.519531 17.601562 20.539062 17.601562 20.554688 C 17.375 20.453125 17.152344 20.375 16.929688 20.328125 C 16.929688 20.308594 16.929688 20.285156 16.929688 20.261719 C 16.90625 19.214844 17.550781 18.347656 18.363281 18.324219 C 19.179688 18.300781 19.859375 19.132812 19.878906 20.183594 C 19.886719 20.65625 19.761719 21.09375 19.546875 21.433594 Z M 19.546875 21.433594 "/>
</g>
</svg>
