<?xml version="1.0" encoding="UTF-8"?>
<svg xmlns="http://www.w3.org/2000/svg" xmlns:xlink="http://www.w3.org/1999/xlink" width="36pt" height="36pt" viewBox="0 0 36 36" version="1.1">
<g id="surface1">
<path style=" stroke:none;fill-rule:nonzero;fill:rgb(36.078431%,64.705882%,26.27451%);fill-opacity:1;" d="M 31.390625 7.566406 C 32.707031 7.566406 33.765625 8.625 33.765625 9.941406 L 33.765625 29.753906 C 33.765625 31.066406 32.707031 32.125 31.390625 32.125 L 4.609375 32.125 C 3.292969 32.125 2.234375 31.066406 2.234375 29.753906 L 2.234375 11.476562 L 2.238281 5.777344 C 2.238281 4.722656 3.085938 3.875 4.140625 3.875 L 14.367188 3.875 C 15.421875 3.875 16.285156 4.292969 16.957031 5.105469 L 18.984375 7.574219 Z M 31.390625 7.566406 "/>
<path style=" stroke:none;fill-rule:nonzero;fill:rgb(0%,0%,0%);fill-opacity:0.65098;" d="M 17.449219 14.664062 C 16.90625 14.660156 16.433594 15.046875 16.332031 15.582031 L 15.496094 20.035156 L 15.140625 18.839844 C 14.996094 18.367188 14.558594 18.039062 14.0625 18.039062 L 11.25 18.039062 L 11.25 20.289062 L 13.226562 20.289062 L 14.671875 25.113281 C 14.824219 25.609375 15.292969 25.9375 15.808594 25.910156 C 16.324219 25.882812 16.757812 25.507812 16.855469 25 L 17.800781 19.957031 L 18.074219 20.683594 C 18.230469 21.101562 18.621094 21.390625 19.066406 21.414062 C 19.511719 21.4375 19.929688 21.191406 20.132812 20.792969 L 20.664062 19.726562 L 21.449219 21.808594 C 21.613281 22.25 22.03125 22.539062 22.5 22.539062 L 24.75 22.539062 L 24.75 20.289062 L 23.28125 20.289062 L 21.863281 16.519531 C 21.707031 16.101562 21.316406 15.816406 20.871094 15.792969 C 20.425781 15.769531 20.007812 16.011719 19.804688 16.410156 L 19.273438 17.480469 L 18.488281 15.394531 C 18.328125 14.960938 17.914062 14.671875 17.449219 14.664062 Z M 17.449219 14.664062 "/>
</g>
</svg>
