<?xml version="1.0" encoding="UTF-8"?>
<svg xmlns="http://www.w3.org/2000/svg" xmlns:xlink="http://www.w3.org/1999/xlink" width="36pt" height="36pt" viewBox="0 0 36 36" version="1.1">
<g id="surface1">
<path style=" stroke:none;fill-rule:nonzero;fill:rgb(95.686275%,60%,25.098039%);fill-opacity:1;" d="M 31.390625 7.566406 C 32.707031 7.566406 33.765625 8.625 33.765625 9.941406 L 33.765625 29.753906 C 33.765625 31.066406 32.707031 32.125 31.390625 32.125 L 4.609375 32.125 C 3.292969 32.125 2.234375 31.066406 2.234375 29.753906 L 2.234375 11.476562 L 2.238281 5.777344 C 2.238281 4.722656 3.085938 3.875 4.140625 3.875 L 14.367188 3.875 C 15.421875 3.875 16.285156 4.292969 16.957031 5.105469 L 18.984375 7.574219 Z M 31.390625 7.566406 "/>
<path style=" stroke:none;fill-rule:nonzero;fill:rgb(0%,0%,0%);fill-opacity:0.65098;" d="M 17.4375 15.484375 C 15.550781 15.84375 14.445312 17.097656 14.0625 18.859375 L 11.8125 18.859375 L 11.8125 21.109375 L 14.0625 21.109375 C 14.449219 22.867188 15.554688 24.125 17.4375 24.484375 Z M 18.5625 15.484375 L 18.5625 24.484375 C 20.445312 24.125 21.550781 22.867188 21.9375 21.109375 L 24.1875 21.109375 L 24.1875 18.859375 L 21.9375 18.859375 C 21.554688 17.097656 20.449219 15.84375 18.5625 15.484375 Z M 18.5625 15.484375 "/>
</g>
</svg>
