<?xml version="1.0" encoding="UTF-8"?>
<svg xmlns="http://www.w3.org/2000/svg" xmlns:xlink="http://www.w3.org/1999/xlink" width="36pt" height="36pt" viewBox="0 0 36 36" version="1.1">
<g id="surface1">
<path style=" stroke:none;fill-rule:nonzero;fill:rgb(88.627451%,32.156863%,32.156863%);fill-opacity:1;" d="M 31.390625 7.566406 C 32.707031 7.566406 33.765625 8.625 33.765625 9.941406 L 33.765625 29.753906 C 33.765625 31.066406 32.707031 32.125 31.390625 32.125 L 4.609375 32.125 C 3.292969 32.125 2.234375 31.066406 2.234375 29.753906 L 2.234375 11.476562 L 2.238281 5.777344 C 2.238281 4.722656 3.085938 3.875 4.140625 3.875 L 14.367188 3.875 C 15.421875 3.875 16.285156 4.292969 16.957031 5.105469 L 18.984375 7.574219 Z M 31.390625 7.566406 "/>
<path style="fill-rule:nonzero;fill:rgb(30.980392%,11.372549%,11.372549%);fill-opacity:1;stroke-width:0.5;stroke-linecap:round;stroke-linejoin:round;stroke:rgb(88.627451%,32.156863%,32.156863%);stroke-opacity:1;stroke-miterlimit:4;" d="M 19.75 18.00153 C 19.75 19.241113 18.743056 20.25153 17.5 20.25153 C 16.256944 20.25153 15.25 19.241113 15.25 18.00153 C 15.25 16.758475 16.256944 15.75153 17.5 15.75153 C 18.743056 15.75153 19.75 16.758475 19.75 18.00153 Z M 19.75 18.00153 " transform="matrix(1.125,0,0,1.125,0.5625,-1.415784)"/>
<path style="fill-rule:nonzero;fill:rgb(30.980392%,11.372549%,11.372549%);fill-opacity:1;stroke-width:0.5;stroke-linecap:round;stroke-linejoin:round;stroke:rgb(88.627451%,32.156863%,32.156863%);stroke-opacity:1;stroke-miterlimit:4;" d="M 23.25 22.00153 C 23.25 22.68903 22.690972 23.25153 22 23.25153 C 21.309028 23.25153 20.75 22.68903 20.75 22.00153 C 20.75 21.310558 21.309028 20.75153 22 20.75153 C 22.690972 20.75153 23.25 21.310558 23.25 22.00153 Z M 23.25 22.00153 " transform="matrix(1.125,0,0,1.125,0.5625,-1.415784)"/>
<path style="fill-rule:nonzero;fill:rgb(30.980392%,11.372549%,11.372549%);fill-opacity:1;stroke-width:0.5;stroke-linecap:round;stroke-linejoin:round;stroke:rgb(88.627451%,32.156863%,32.156863%);stroke-opacity:1;stroke-miterlimit:4;" d="M 21.75 20.75153 C 21.75 22.130002 20.631944 23.25153 19.25 23.25153 C 17.868056 23.25153 16.75 22.130002 16.75 20.75153 C 16.75 19.369586 17.868056 18.25153 19.25 18.25153 C 20.631944 18.25153 21.75 19.369586 21.75 20.75153 Z M 21.75 20.75153 " transform="matrix(1.125,0,0,1.125,0.5625,-1.415784)"/>
<path style="fill-rule:nonzero;fill:rgb(30.980392%,11.372549%,11.372549%);fill-opacity:1;stroke-width:0.5;stroke-linecap:round;stroke-linejoin:round;stroke:rgb(88.627451%,32.156863%,32.156863%);stroke-opacity:1;stroke-miterlimit:4;" d="M 12.25 21.00153 C 12.25 22.241113 11.243056 23.25153 10 23.25153 C 8.756944 23.25153 7.75 22.241113 7.75 21.00153 C 7.75 19.758475 8.756944 18.75153 10 18.75153 C 11.243056 18.75153 12.25 19.758475 12.25 21.00153 Z M 12.25 21.00153 " transform="matrix(1.125,0,0,1.125,0.5625,-1.415784)"/>
<path style="fill-rule:nonzero;fill:rgb(30.980392%,11.372549%,11.372549%);fill-opacity:1;stroke-width:0.5;stroke-linecap:round;stroke-linejoin:round;stroke:rgb(88.627451%,32.156863%,32.156863%);stroke-opacity:1;stroke-miterlimit:4;" d="M 13.75 16.25153 C 13.75 17.077919 13.079861 17.75153 12.25 17.75153 C 11.420139 17.75153 10.75 17.077919 10.75 16.25153 C 10.75 15.421669 11.420139 14.75153 12.25 14.75153 C 13.079861 14.75153 13.75 15.421669 13.75 16.25153 Z M 13.75 16.25153 " transform="matrix(1.125,0,0,1.125,0.5625,-1.415784)"/>
<path style="fill-rule:nonzero;fill:rgb(30.980392%,11.372549%,11.372549%);fill-opacity:1;stroke-width:0.5;stroke-linecap:round;stroke-linejoin:round;stroke:rgb(88.627451%,32.156863%,32.156863%);stroke-opacity:1;stroke-miterlimit:4;" d="M 15.25 19.00153 C 15.25 20.518891 14.017361 21.75153 12.5 21.75153 C 10.982639 21.75153 9.75 20.518891 9.75 19.00153 C 9.75 17.480697 10.982639 16.25153 12.5 16.25153 C 14.017361 16.25153 15.25 17.480697 15.25 19.00153 Z M 15.25 19.00153 " transform="matrix(1.125,0,0,1.125,0.5625,-1.415784)"/>
<path style="fill-rule:nonzero;fill:rgb(30.980392%,11.372549%,11.372549%);fill-opacity:1;stroke-width:0.5;stroke-linecap:round;stroke-linejoin:round;stroke:rgb(88.627451%,32.156863%,32.156863%);stroke-opacity:1;stroke-miterlimit:4;" d="M 13.5 22.00153 C 13.5 22.68903 12.940972 23.25153 12.25 23.25153 C 11.559028 23.25153 11 22.68903 11 22.00153 C 11 21.310558 11.559028 20.75153 12.25 20.75153 C 12.940972 20.75153 13.5 21.310558 13.5 22.00153 Z M 13.5 22.00153 " transform="matrix(1.125,0,0,1.125,0.5625,-1.415784)"/>
<path style="fill-rule:nonzero;fill:rgb(30.980392%,11.372549%,11.372549%);fill-opacity:1;stroke-width:0.5;stroke-linecap:round;stroke-linejoin:round;stroke:rgb(88.627451%,32.156863%,32.156863%);stroke-opacity:1;stroke-miterlimit:4;" d="M 17.25 16.75153 C 17.25 18.130002 16.131944 19.25153 14.75 19.25153 C 13.368056 19.25153 12.25 18.130002 12.25 16.75153 C 12.25 15.369586 13.368056 14.25153 14.75 14.25153 C 16.131944 14.25153 17.25 15.369586 17.25 16.75153 Z M 17.25 16.75153 " transform="matrix(1.125,0,0,1.125,0.5625,-1.415784)"/>
<path style="fill-rule:nonzero;fill:rgb(30.980392%,11.372549%,11.372549%);fill-opacity:1;stroke-width:0.5;stroke-linecap:round;stroke-linejoin:round;stroke:rgb(88.627451%,32.156863%,32.156863%);stroke-opacity:1;stroke-miterlimit:4;" d="M 18.746528 20.00153 C 18.746528 21.796669 17.291667 23.25153 15.5 23.25153 C 13.704861 23.25153 12.25 21.796669 12.25 20.00153 C 12.25 18.206391 13.704861 16.75153 15.5 16.75153 C 17.291667 16.75153 18.746528 18.206391 18.746528 20.00153 Z M 18.746528 20.00153 " transform="matrix(1.125,0,0,1.125,0.5625,-1.415784)"/>
</g>
</svg>
