<?xml version="1.0" encoding="UTF-8"?>
<svg xmlns="http://www.w3.org/2000/svg" xmlns:xlink="http://www.w3.org/1999/xlink" width="36pt" height="36pt" viewBox="0 0 36 36" version="1.1">
<defs>
<clipPath id="clip1">
  <rect width="36" height="36"/>
</clipPath>
<g id="surface6" clip-path="url(#clip1)">
<path style=" stroke:none;fill-rule:nonzero;fill:rgb(0%,0%,0%);fill-opacity:0.65098;" d="M 16.582031 14.054688 L 16.457031 15.535156 C 15.980469 15.710938 15.542969 15.960938 15.152344 16.28125 L 13.792969 15.648438 L 12.375 18.085938 L 13.609375 18.933594 C 13.566406 19.179688 13.542969 19.429688 13.539062 19.679688 C 13.539062 19.929688 13.5625 20.183594 13.605469 20.429688 L 12.375 21.273438 L 13.792969 23.710938 L 15.148438 23.074219 C 15.539062 23.394531 15.980469 23.648438 16.457031 23.820312 L 16.582031 25.304688 L 19.417969 25.304688 L 19.542969 23.824219 C 20.019531 23.648438 20.457031 23.394531 20.847656 23.074219 L 22.207031 23.707031 L 23.625 21.273438 L 22.390625 20.425781 C 22.433594 20.179688 22.457031 19.929688 22.457031 19.679688 C 22.457031 19.425781 22.433594 19.175781 22.390625 18.929688 L 23.621094 18.082031 L 22.207031 15.648438 L 20.847656 16.28125 C 20.457031 15.960938 20.015625 15.710938 19.542969 15.539062 L 19.417969 14.054688 Z M 18 17.429688 C 19.242188 17.429688 20.25 18.433594 20.25 19.679688 C 20.25 20.921875 19.242188 21.929688 18 21.929688 C 16.757812 21.929688 15.75 20.921875 15.75 19.679688 C 15.75 18.433594 16.757812 17.429688 18 17.429688 Z M 18 17.429688 "/>
</g>
</defs>
<g id="surface1">
<path style=" stroke:none;fill-rule:nonzero;fill:rgb(52.156863%,41.960784%,20.784314%);fill-opacity:1;" d="M 31.390625 7.566406 C 32.707031 7.566406 33.765625 8.625 33.765625 9.941406 L 33.765625 29.753906 C 33.765625 31.066406 32.707031 32.125 31.390625 32.125 L 4.609375 32.125 C 3.292969 32.125 2.234375 31.066406 2.234375 29.753906 L 2.234375 11.476562 L 2.238281 5.777344 C 2.238281 4.722656 3.085938 3.875 4.140625 3.875 L 14.367188 3.875 C 15.421875 3.875 16.285156 4.292969 16.957031 5.105469 L 18.984375 7.574219 Z M 31.390625 7.566406 "/>
<use xlink:href="#surface6"/>
</g>
</svg>
