<?xml version="1.0" encoding="UTF-8"?>
<svg xmlns="http://www.w3.org/2000/svg" xmlns:xlink="http://www.w3.org/1999/xlink" width="36pt" height="36pt" viewBox="0 0 36 36" version="1.1">
<g id="surface1">
<path style=" stroke:none;fill-rule:nonzero;fill:rgb(36.078431%,64.705882%,26.27451%);fill-opacity:1;" d="M 31.390625 7.566406 C 32.707031 7.566406 33.765625 8.625 33.765625 9.941406 L 33.765625 29.753906 C 33.765625 31.066406 32.707031 32.125 31.390625 32.125 L 4.609375 32.125 C 3.292969 32.125 2.234375 31.066406 2.234375 29.753906 L 2.234375 11.476562 L 2.238281 5.777344 C 2.238281 4.722656 3.085938 3.875 4.140625 3.875 L 14.367188 3.875 C 15.421875 3.875 16.285156 4.292969 16.957031 5.105469 L 18.984375 7.574219 Z M 31.390625 7.566406 "/>
<path style="fill-rule:nonzero;fill:rgb(16.862745%,23.529412%,9.019608%);fill-opacity:1;stroke-width:0.5;stroke-linecap:round;stroke-linejoin:round;stroke:rgb(36.078431%,64.705882%,26.27451%);stroke-opacity:1;stroke-miterlimit:4;" d="M -28.65678 15.831509 C -28.65678 17.074565 -29.663724 18.081509 -30.90678 18.081509 C -32.149836 18.081509 -33.15678 17.074565 -33.15678 15.831509 C -33.15678 14.588454 -32.149836 13.581509 -30.90678 13.581509 C -29.663724 13.581509 -28.65678 14.588454 -28.65678 15.831509 Z M -28.65678 15.831509 " transform="matrix(1.125,0,0,1.125,55.020128,1.482521)"/>
<path style="fill-rule:nonzero;fill:rgb(16.862745%,23.529412%,9.019608%);fill-opacity:1;stroke-width:0.5;stroke-linecap:round;stroke-linejoin:round;stroke:rgb(36.078431%,64.705882%,26.27451%);stroke-opacity:1;stroke-miterlimit:4;" d="M -25.15678 19.831509 C -25.15678 20.522481 -25.715808 21.081509 -26.40678 21.081509 C -27.097752 21.081509 -27.65678 20.522481 -27.65678 19.831509 C -27.65678 19.140537 -27.097752 18.581509 -26.40678 18.581509 C -25.715808 18.581509 -25.15678 19.140537 -25.15678 19.831509 Z M -25.15678 19.831509 " transform="matrix(1.125,0,0,1.125,55.020128,1.482521)"/>
<path style="fill-rule:nonzero;fill:rgb(16.862745%,23.529412%,9.019608%);fill-opacity:1;stroke-width:0.5;stroke-linecap:round;stroke-linejoin:round;stroke:rgb(36.078431%,64.705882%,26.27451%);stroke-opacity:1;stroke-miterlimit:4;" d="M -26.65678 18.581509 C -26.65678 19.959981 -27.774836 21.081509 -29.15678 21.081509 C -30.538724 21.081509 -31.65678 19.959981 -31.65678 18.581509 C -31.65678 17.199565 -30.538724 16.081509 -29.15678 16.081509 C -27.774836 16.081509 -26.65678 17.199565 -26.65678 18.581509 Z M -26.65678 18.581509 " transform="matrix(1.125,0,0,1.125,55.020128,1.482521)"/>
<path style="fill-rule:nonzero;fill:rgb(16.862745%,23.529412%,9.019608%);fill-opacity:1;stroke-width:0.5;stroke-linecap:round;stroke-linejoin:round;stroke:rgb(36.078431%,64.705882%,26.27451%);stroke-opacity:1;stroke-miterlimit:4;" d="M -36.15678 18.831509 C -36.15678 20.074565 -37.163724 21.081509 -38.40678 21.081509 C -39.649836 21.081509 -40.65678 20.074565 -40.65678 18.831509 C -40.65678 17.588454 -39.649836 16.581509 -38.40678 16.581509 C -37.163724 16.581509 -36.15678 17.588454 -36.15678 18.831509 Z M -36.15678 18.831509 " transform="matrix(1.125,0,0,1.125,55.020128,1.482521)"/>
<path style="fill-rule:nonzero;fill:rgb(16.862745%,23.529412%,9.019608%);fill-opacity:1;stroke-width:0.5;stroke-linecap:round;stroke-linejoin:round;stroke:rgb(36.078431%,64.705882%,26.27451%);stroke-opacity:1;stroke-miterlimit:4;" d="M -34.65678 14.081509 C -34.65678 14.907898 -35.326919 15.581509 -36.15678 15.581509 C -36.986641 15.581509 -37.65678 14.907898 -37.65678 14.081509 C -37.65678 13.251648 -36.986641 12.581509 -36.15678 12.581509 C -35.326919 12.581509 -34.65678 13.251648 -34.65678 14.081509 Z M -34.65678 14.081509 " transform="matrix(1.125,0,0,1.125,55.020128,1.482521)"/>
<path style="fill-rule:nonzero;fill:rgb(16.862745%,23.529412%,9.019608%);fill-opacity:1;stroke-width:0.5;stroke-linecap:round;stroke-linejoin:round;stroke:rgb(36.078431%,64.705882%,26.27451%);stroke-opacity:1;stroke-miterlimit:4;" d="M -33.15678 16.831509 C -33.15678 18.34887 -34.389419 19.581509 -35.90678 19.581509 C -37.424141 19.581509 -38.65678 18.34887 -38.65678 16.831509 C -38.65678 15.310676 -37.424141 14.081509 -35.90678 14.081509 C -34.389419 14.081509 -33.15678 15.310676 -33.15678 16.831509 Z M -33.15678 16.831509 " transform="matrix(1.125,0,0,1.125,55.020128,1.482521)"/>
<path style="fill-rule:nonzero;fill:rgb(16.862745%,23.529412%,9.019608%);fill-opacity:1;stroke-width:0.5;stroke-linecap:round;stroke-linejoin:round;stroke:rgb(36.078431%,64.705882%,26.27451%);stroke-opacity:1;stroke-miterlimit:4;" d="M -34.90678 19.831509 C -34.90678 20.522481 -35.465808 21.081509 -36.15678 21.081509 C -36.847752 21.081509 -37.40678 20.522481 -37.40678 19.831509 C -37.40678 19.140537 -36.847752 18.581509 -36.15678 18.581509 C -35.465808 18.581509 -34.90678 19.140537 -34.90678 19.831509 Z M -34.90678 19.831509 " transform="matrix(1.125,0,0,1.125,55.020128,1.482521)"/>
<path style="fill-rule:nonzero;fill:rgb(16.862745%,23.529412%,9.019608%);fill-opacity:1;stroke-width:0.5;stroke-linecap:round;stroke-linejoin:round;stroke:rgb(36.078431%,64.705882%,26.27451%);stroke-opacity:1;stroke-miterlimit:4;" d="M -31.15678 14.581509 C -31.15678 15.959981 -32.274836 17.081509 -33.65678 17.081509 C -35.038724 17.081509 -36.15678 15.959981 -36.15678 14.581509 C -36.15678 13.199565 -35.038724 12.081509 -33.65678 12.081509 C -32.274836 12.081509 -31.15678 13.199565 -31.15678 14.581509 Z M -31.15678 14.581509 " transform="matrix(1.125,0,0,1.125,55.020128,1.482521)"/>
<path style="fill-rule:nonzero;fill:rgb(16.862745%,23.529412%,9.019608%);fill-opacity:1;stroke-width:0.5;stroke-linecap:round;stroke-linejoin:round;stroke:rgb(36.078431%,64.705882%,26.27451%);stroke-opacity:1;stroke-miterlimit:4;" d="M -29.660252 17.831509 C -29.660252 19.626648 -31.115113 21.081509 -32.90678 21.081509 C -34.701919 21.081509 -36.15678 19.626648 -36.15678 17.831509 C -36.15678 16.03637 -34.701919 14.581509 -32.90678 14.581509 C -31.115113 14.581509 -29.660252 16.03637 -29.660252 17.831509 Z M -29.660252 17.831509 " transform="matrix(1.125,0,0,1.125,55.020128,1.482521)"/>
</g>
</svg>
