<?xml version="1.0" encoding="UTF-8"?>
<svg xmlns="http://www.w3.org/2000/svg" xmlns:xlink="http://www.w3.org/1999/xlink" width="36pt" height="36pt" viewBox="0 0 36 36" version="1.1">
<g id="surface1">
<path style=" stroke:none;fill-rule:nonzero;fill:rgb(95.686275%,60%,25.098039%);fill-opacity:1;" d="M 31.390625 7.566406 C 32.707031 7.566406 33.765625 8.625 33.765625 9.941406 L 33.765625 29.753906 C 33.765625 31.066406 32.707031 32.125 31.390625 32.125 L 4.609375 32.125 C 3.292969 32.125 2.234375 31.066406 2.234375 29.753906 L 2.234375 11.476562 L 2.238281 5.777344 C 2.238281 4.722656 3.085938 3.875 4.140625 3.875 L 14.367188 3.875 C 15.421875 3.875 16.285156 4.292969 16.957031 5.105469 L 18.984375 7.574219 Z M 31.390625 7.566406 "/>
<path style=" stroke:none;fill-rule:nonzero;fill:rgb(0%,0%,0%);fill-opacity:0.65098;" d="M 16.882812 11.964844 C 16.882812 11.964844 17.53125 12.363281 17.074219 13.40625 C 16.382812 14.980469 17.714844 15.339844 17.714844 15.339844 C 17.714844 15.339844 17.292969 14.972656 17.855469 13.671875 C 18.476562 12.234375 16.882812 11.964844 16.882812 11.964844 Z M 18.675781 14.132812 C 18.675781 14.132812 17.496094 14.65625 18.253906 16.089844 C 18.757812 17.039062 18.199219 17.507812 18.199219 17.507812 C 18.199219 17.507812 19.625 17.039062 18.9375 15.730469 C 18.320312 14.542969 18.675781 14.132812 18.675781 14.132812 Z M 15.003906 14.214844 C 15.003906 14.214844 14.15625 15.113281 14.992188 16.21875 C 15.546875 16.953125 15.183594 17.589844 15.183594 17.589844 C 15.183594 17.589844 16.234375 16.660156 15.476562 15.644531 C 14.792969 14.730469 15.003906 14.214844 15.003906 14.214844 Z M 15.183594 17.589844 L 12.375 17.589844 L 14.0625 24.339844 L 20.25 24.339844 L 20.632812 23.234375 C 20.820312 23.277344 21.011719 23.3125 21.214844 23.3125 C 22.546875 23.3125 23.625 22.457031 23.625 21.125 C 23.625 19.996094 22.84375 19.054688 21.796875 18.792969 L 22.019531 17.589844 Z M 21.601562 19.570312 C 21.613281 19.570312 21.621094 19.574219 21.628906 19.574219 C 22.058594 19.691406 22.21875 20.476562 21.992188 21.335938 C 21.765625 22.167969 21.25 22.765625 20.824219 22.683594 Z M 21.601562 19.570312 "/>
</g>
</svg>
