<?xml version="1.0" encoding="UTF-8"?>
<svg xmlns="http://www.w3.org/2000/svg" xmlns:xlink="http://www.w3.org/1999/xlink" width="36pt" height="36pt" viewBox="0 0 36 36" version="1.1">
<g id="surface1">
<path style=" stroke:none;fill-rule:nonzero;fill:rgb(60.392157%,60.392157%,60.392157%);fill-opacity:1;" d="M 31.390625 7.566406 C 32.707031 7.566406 33.765625 8.625 33.765625 9.941406 L 33.765625 29.753906 C 33.765625 31.066406 32.707031 32.125 31.390625 32.125 L 4.609375 32.125 C 3.292969 32.125 2.234375 31.066406 2.234375 29.753906 L 2.234375 11.476562 L 2.238281 5.777344 C 2.238281 4.722656 3.085938 3.875 4.140625 3.875 L 14.367188 3.875 C 15.421875 3.875 16.285156 4.292969 16.957031 5.105469 L 18.984375 7.574219 Z M 31.390625 7.566406 "/>
<path style=" stroke:none;fill-rule:nonzero;fill:rgb(21.176471%,21.176471%,21.176471%);fill-opacity:1;" d="M 13.5 18.578125 C 12.566406 18.578125 11.8125 19.332031 11.8125 20.265625 C 11.8125 21.199219 12.566406 21.953125 13.5 21.953125 C 14.433594 21.953125 15.1875 21.199219 15.1875 20.265625 C 15.1875 19.332031 14.433594 18.578125 13.5 18.578125 Z M 18 18.578125 C 17.066406 18.578125 16.3125 19.332031 16.3125 20.265625 C 16.3125 21.199219 17.066406 21.953125 18 21.953125 C 18.933594 21.953125 19.6875 21.199219 19.6875 20.265625 C 19.6875 19.332031 18.933594 18.578125 18 18.578125 Z M 22.5 18.578125 C 21.566406 18.578125 20.8125 19.332031 20.8125 20.265625 C 20.8125 21.199219 21.566406 21.953125 22.5 21.953125 C 23.433594 21.953125 24.1875 21.199219 24.1875 20.265625 C 24.1875 19.332031 23.433594 18.578125 22.5 18.578125 Z M 22.5 18.578125 "/>
</g>
</svg>
