<?xml version="1.0" encoding="UTF-8"?>
<svg xmlns="http://www.w3.org/2000/svg" xmlns:xlink="http://www.w3.org/1999/xlink" width="36pt" height="36pt" viewBox="0 0 36 36" version="1.1">
<defs>
<filter id="alpha" filterUnits="objectBoundingBox" x="0%" y="0%" width="100%" height="100%">
  <feColorMatrix type="matrix" in="SourceGraphic" values="0 0 0 0 1 0 0 0 0 1 0 0 0 0 1 0 0 0 1 0"/>
</filter>
<mask id="mask0">
  <g filter="url(#alpha)">
<rect x="0" y="0" width="36" height="36" style="fill:rgb(0%,0%,0%);fill-opacity:0.65098;stroke:none;"/>
  </g>
</mask>
<clipPath id="clip1">
  <rect width="36" height="36"/>
</clipPath>
<g id="surface6" clip-path="url(#clip1)">
<path style=" stroke:none;fill-rule:nonzero;fill:rgb(0%,0%,0%);fill-opacity:0.65098;" d="M 16.875 7.597656 L 18 7.597656 Z M 18 7.597656 L 18 8.722656 L 19.125 8.722656 L 19.125 7.597656 Z M 18 8.722656 L 16.875 8.722656 L 16.875 9.847656 L 18 9.847656 Z M 18 9.847656 L 18 10.972656 L 19.125 10.972656 L 19.125 9.847656 Z M 18 10.972656 L 16.875 10.972656 L 16.875 12.097656 L 18 12.097656 Z M 18 12.097656 L 18 13.222656 C 18.621094 13.222656 19.125 12.660156 19.125 12.097656 Z M 18 12.097656 "/>
</g>
<mask id="mask1">
  <g filter="url(#alpha)">
<rect x="0" y="0" width="36" height="36" style="fill:rgb(0%,0%,0%);fill-opacity:0.65098;stroke:none;"/>
  </g>
</mask>
<clipPath id="clip2">
  <rect width="36" height="36"/>
</clipPath>
<g id="surface9" clip-path="url(#clip2)">
<path style=" stroke:none;fill-rule:nonzero;fill:rgb(0%,0%,0%);fill-opacity:0.65098;" d="M 18 13.222656 C 16.757812 13.222656 15.75 14.234375 15.75 15.472656 L 15.75 19.972656 C 15.75 21.210938 16.757812 22.222656 18 22.222656 C 19.242188 22.222656 20.25 21.210938 20.25 19.972656 L 20.25 15.472656 C 20.25 14.234375 19.242188 13.222656 18 13.222656 Z M 18 14.347656 C 18.621094 14.347656 19.125 14.796875 19.125 15.472656 C 19.125 16.035156 18.621094 16.597656 18 16.597656 C 17.378906 16.597656 16.875 16.035156 16.875 15.472656 C 16.875 14.796875 17.378906 14.347656 18 14.347656 Z M 18 17.722656 C 18.621094 17.722656 19.125 18.171875 19.125 18.847656 L 19.125 19.972656 C 19.125 20.535156 18.621094 21.097656 18 21.097656 C 17.378906 21.097656 16.875 20.535156 16.875 19.972656 L 16.875 18.847656 C 16.875 18.171875 17.378906 17.722656 18 17.722656 Z M 18 17.722656 "/>
</g>
</defs>
<g id="surface1">
<path style=" stroke:none;fill-rule:nonzero;fill:rgb(95.686275%,60%,25.098039%);fill-opacity:1;" d="M 31.390625 7.566406 C 32.707031 7.566406 33.765625 8.625 33.765625 9.941406 L 33.765625 29.753906 C 33.765625 31.066406 32.707031 32.125 31.390625 32.125 L 4.609375 32.125 C 3.292969 32.125 2.234375 31.066406 2.234375 29.753906 L 2.234375 11.476562 L 2.238281 5.777344 C 2.238281 4.722656 3.085938 3.875 4.140625 3.875 L 14.367188 3.875 C 15.421875 3.875 16.285156 4.292969 16.957031 5.105469 L 18.984375 7.574219 Z M 31.390625 7.566406 "/>
<use xlink:href="#surface6" mask="url(#mask0)"/>
<use xlink:href="#surface9" mask="url(#mask1)"/>
</g>
</svg>
