<?xml version="1.0" encoding="UTF-8"?>
<svg xmlns="http://www.w3.org/2000/svg" xmlns:xlink="http://www.w3.org/1999/xlink" width="36pt" height="36pt" viewBox="0 0 36 36" version="1.1">
<defs>
<clipPath id="clip1">
  <rect width="36" height="36"/>
</clipPath>
<g id="surface6" clip-path="url(#clip1)">
<path style=" stroke:none;fill-rule:nonzero;fill:rgb(0%,0%,0%);fill-opacity:0.65098;" d="M 16.3125 14.769531 L 16.3125 20.695312 C 15.96875 20.5 15.582031 20.394531 15.1875 20.394531 C 13.945312 20.394531 12.9375 21.398438 12.9375 22.644531 C 12.9375 23.886719 13.945312 24.894531 15.1875 24.894531 C 16.429688 24.894531 17.4375 23.886719 17.4375 22.644531 L 17.4375 17.019531 L 21.9375 17.019531 L 21.9375 20.695312 C 21.59375 20.5 21.207031 20.394531 20.8125 20.394531 C 19.570312 20.394531 18.5625 21.398438 18.5625 22.644531 C 18.5625 23.886719 19.570312 24.894531 20.8125 24.894531 C 22.054688 24.894531 23.0625 23.886719 23.0625 22.644531 L 23.0625 14.769531 Z M 16.3125 14.769531 "/>
</g>
</defs>
<g id="surface1">
<path style=" stroke:none;fill-rule:nonzero;fill:rgb(88.627451%,32.156863%,32.156863%);fill-opacity:1;" d="M 31.390625 7.566406 C 32.707031 7.566406 33.765625 8.625 33.765625 9.941406 L 33.765625 29.753906 C 33.765625 31.066406 32.707031 32.125 31.390625 32.125 L 4.609375 32.125 C 3.292969 32.125 2.234375 31.066406 2.234375 29.753906 L 2.234375 11.476562 L 2.238281 5.777344 C 2.238281 4.722656 3.085938 3.875 4.140625 3.875 L 14.367188 3.875 C 15.421875 3.875 16.285156 4.292969 16.957031 5.105469 L 18.984375 7.574219 Z M 31.390625 7.566406 "/>
<use xlink:href="#surface6"/>
</g>
</svg>
