<?xml version="1.0" encoding="UTF-8"?>
<svg xmlns="http://www.w3.org/2000/svg" xmlns:xlink="http://www.w3.org/1999/xlink" width="36pt" height="36pt" viewBox="0 0 36 36" version="1.1">
<g id="surface1">
<path style=" stroke:none;fill-rule:nonzero;fill:rgb(36.078431%,64.705882%,26.27451%);fill-opacity:1;" d="M 31.390625 7.566406 C 32.707031 7.566406 33.765625 8.625 33.765625 9.941406 L 33.765625 29.753906 C 33.765625 31.066406 32.707031 32.125 31.390625 32.125 L 4.609375 32.125 C 3.292969 32.125 2.234375 31.066406 2.234375 29.753906 L 2.234375 11.476562 L 2.238281 5.777344 C 2.238281 4.722656 3.085938 3.875 4.140625 3.875 L 14.367188 3.875 C 15.421875 3.875 16.285156 4.292969 16.957031 5.105469 L 18.984375 7.574219 Z M 31.390625 7.566406 "/>
<path style=" stroke:none;fill-rule:nonzero;fill:rgb(0%,0%,0%);fill-opacity:0.65098;" d="M 11.25 12.929688 L 11.25 26.429688 L 24.75 26.429688 L 24.75 12.929688 Z M 14.625 14.054688 L 15.75 14.054688 L 15.75 15.179688 L 16.3125 15.179688 C 17.042969 15.179688 17.664062 15.652344 17.898438 16.304688 L 15.75 16.304688 L 15.75 17.429688 L 16.3125 17.429688 C 17.246094 17.429688 18 18.183594 18 19.117188 C 18 20.050781 17.246094 20.804688 16.3125 20.804688 L 15.75 20.804688 L 15.75 21.929688 L 14.625 21.929688 L 14.625 20.804688 L 14.0625 20.804688 C 13.332031 20.804688 12.710938 20.332031 12.476562 19.679688 L 14.625 19.679688 L 14.625 18.554688 L 14.0625 18.554688 C 13.128906 18.554688 12.375 17.800781 12.375 16.867188 C 12.375 15.933594 13.128906 15.179688 14.0625 15.179688 L 14.625 15.179688 Z M 14.0625 16.304688 C 13.746094 16.304688 13.5 16.550781 13.5 16.867188 C 13.5 17.179688 13.746094 17.429688 14.0625 17.429688 L 14.625 17.429688 L 14.625 16.304688 Z M 15.75 18.554688 L 15.75 19.679688 L 16.3125 19.679688 C 16.628906 19.6875 16.875 19.429688 16.875 19.117188 C 16.875 18.800781 16.628906 18.554688 16.3125 18.554688 Z M 19.125 20.804688 L 23.625 20.804688 L 23.625 21.929688 L 19.125 21.929688 Z M 19.125 20.804688 "/>
</g>
</svg>
