<?xml version="1.0" encoding="UTF-8"?>
<svg xmlns="http://www.w3.org/2000/svg" xmlns:xlink="http://www.w3.org/1999/xlink" width="36pt" height="36pt" viewBox="0 0 36 36" version="1.1">
<g id="surface1">
<path style=" stroke:none;fill-rule:nonzero;fill:rgb(15.686275%,61.960784%,63.137255%);fill-opacity:1;" d="M 31.390625 7.566406 C 32.707031 7.566406 33.765625 8.625 33.765625 9.941406 L 33.765625 29.753906 C 33.765625 31.066406 32.707031 32.125 31.390625 32.125 L 4.609375 32.125 C 3.292969 32.125 2.234375 31.066406 2.234375 29.753906 L 2.234375 11.476562 L 2.238281 5.777344 C 2.238281 4.722656 3.085938 3.875 4.140625 3.875 L 14.367188 3.875 C 15.421875 3.875 16.285156 4.292969 16.957031 5.105469 L 18.984375 7.574219 Z M 31.390625 7.566406 "/>
<path style=" stroke:none;fill-rule:nonzero;fill:rgb(0%,0%,0%);fill-opacity:0.65098;" d="M 18 13.082031 C 14.273438 13.082031 11.25 16.101562 11.25 19.832031 C 11.25 23.558594 14.273438 26.582031 18 26.582031 C 21.726562 26.582031 24.75 23.558594 24.75 19.832031 C 24.75 16.101562 21.726562 13.082031 18 13.082031 Z M 14.625 16.457031 L 16.875 16.457031 L 16.875 16.460938 L 18 17.582031 L 19.125 16.457031 L 21.375 16.457031 L 21.375 23.207031 L 19.125 23.207031 L 19.125 19.832031 L 18 20.957031 L 16.875 19.832031 L 16.875 23.207031 L 14.625 23.207031 Z M 14.625 16.457031 "/>
</g>
</svg>
