<?xml version="1.0" encoding="UTF-8"?>
<svg xmlns="http://www.w3.org/2000/svg" xmlns:xlink="http://www.w3.org/1999/xlink" width="36pt" height="36pt" viewBox="0 0 36 36" version="1.1">
<g id="surface1">
<path style=" stroke:none;fill-rule:nonzero;fill:rgb(15.686275%,61.960784%,63.137255%);fill-opacity:1;" d="M 31.390625 7.566406 C 32.707031 7.566406 33.765625 8.625 33.765625 9.941406 L 33.765625 29.753906 C 33.765625 31.066406 32.707031 32.125 31.390625 32.125 L 4.609375 32.125 C 3.292969 32.125 2.234375 31.066406 2.234375 29.753906 L 2.234375 11.476562 L 2.238281 5.777344 C 2.238281 4.722656 3.085938 3.875 4.140625 3.875 L 14.367188 3.875 C 15.421875 3.875 16.285156 4.292969 16.957031 5.105469 L 18.984375 7.574219 Z M 31.390625 7.566406 "/>
<path style=" stroke:none;fill-rule:nonzero;fill:rgb(0%,0%,0%);fill-opacity:0.65098;" d="M 16.882812 12.878906 C 16.882812 12.878906 17.53125 13.277344 17.074219 14.320312 C 16.382812 15.894531 17.714844 16.253906 17.714844 16.253906 C 17.714844 16.253906 17.292969 15.886719 17.855469 14.589844 C 18.476562 13.148438 16.882812 12.878906 16.882812 12.878906 Z M 18.675781 15.050781 C 18.675781 15.050781 17.496094 15.574219 18.253906 17.003906 C 18.757812 17.953125 18.199219 18.425781 18.199219 18.425781 C 18.199219 18.425781 19.625 17.953125 18.9375 16.644531 C 18.320312 15.460938 18.675781 15.050781 18.675781 15.050781 Z M 15.003906 15.128906 C 15.003906 15.128906 14.15625 16.027344 14.992188 17.132812 C 15.546875 17.871094 15.183594 18.503906 15.183594 18.503906 C 15.183594 18.503906 16.234375 17.578125 15.476562 16.558594 C 14.792969 15.644531 15.003906 15.128906 15.003906 15.128906 Z M 15.183594 18.503906 L 12.375 18.503906 L 14.0625 25.253906 L 20.25 25.253906 L 20.632812 24.148438 C 20.820312 24.195312 21.011719 24.226562 21.214844 24.226562 C 22.546875 24.226562 23.625 23.371094 23.625 22.042969 C 23.625 20.910156 22.84375 19.972656 21.796875 19.710938 L 22.019531 18.503906 Z M 21.601562 20.484375 C 21.613281 20.488281 21.621094 20.488281 21.628906 20.488281 C 22.058594 20.605469 22.21875 21.390625 21.992188 22.25 C 21.765625 23.085938 21.25 23.679688 20.824219 23.597656 Z M 21.601562 20.484375 "/>
</g>
</svg>
