<?xml version="1.0" encoding="UTF-8"?>
<svg xmlns="http://www.w3.org/2000/svg" xmlns:xlink="http://www.w3.org/1999/xlink" width="36pt" height="36pt" viewBox="0 0 36 36" version="1.1">
<g id="surface1">
<path style=" stroke:none;fill-rule:nonzero;fill:rgb(52.156863%,41.960784%,20.784314%);fill-opacity:1;" d="M 31.390625 7.566406 C 32.707031 7.566406 33.765625 8.625 33.765625 9.941406 L 33.765625 29.753906 C 33.765625 31.066406 32.707031 32.125 31.390625 32.125 L 4.609375 32.125 C 3.292969 32.125 2.234375 31.066406 2.234375 29.753906 L 2.234375 11.476562 L 2.238281 5.777344 C 2.238281 4.722656 3.085938 3.875 4.140625 3.875 L 14.367188 3.875 C 15.421875 3.875 16.285156 4.292969 16.957031 5.105469 L 18.984375 7.574219 Z M 31.390625 7.566406 "/>
<path style=" stroke:none;fill-rule:evenodd;fill:rgb(0%,0%,0%);fill-opacity:0.65098;" d="M 14.109375 14.511719 C 14.089844 14.511719 14.078125 14.53125 14.0625 14.535156 C 14.003906 14.550781 13.945312 14.570312 13.875 14.605469 C 13.800781 14.644531 13.726562 14.691406 13.664062 14.769531 C 13.65625 14.777344 13.648438 14.785156 13.640625 14.792969 C 13.597656 14.847656 13.570312 14.921875 13.546875 15.003906 C 13.539062 15.027344 13.527344 15.046875 13.523438 15.074219 C 13.507812 15.132812 13.5 15.195312 13.5 15.261719 L 13.5 22.386719 L 14.625 22.386719 L 14.625 23.511719 L 15.75 23.511719 L 15.75 16.761719 L 19.125 16.761719 L 19.125 19.011719 L 20.25 19.011719 L 20.25 24.636719 L 21.375 24.636719 L 21.375 25.761719 L 22.5 25.761719 L 22.5 24.636719 L 21.382812 24.636719 L 21.375 23.511719 C 21.375 23.511719 22.5 23.511719 22.5 23.511719 L 22.5 22.761719 C 22.5 22.496094 22.5 22.328125 22.5 22.011719 L 22.5 19.761719 C 22.5 17.945312 22.5 18 22.5 17.933594 L 22.5 17.324219 L 19.6875 14.511719 Z M 20.25 24.636719 L 19.125 24.636719 L 19.125 25.761719 L 20.25 25.761719 Z M 19.125 24.636719 L 19.125 23.511719 L 18 23.511719 L 18 24.636719 Z M 18 24.636719 L 16.875 24.636719 L 16.875 25.761719 L 18 25.761719 Z M 16.875 24.636719 L 16.875 23.511719 L 15.75 23.511719 L 15.75 24.636719 Z M 15.75 24.636719 L 14.625 24.636719 L 14.625 25.761719 L 15.75 25.761719 Z M 14.625 24.636719 L 14.625 23.511719 L 13.5 23.511719 L 13.5 24.636719 Z M 14.625 24.636719 "/>
</g>
</svg>
