<?xml version="1.0" encoding="UTF-8"?>
<svg xmlns="http://www.w3.org/2000/svg" xmlns:xlink="http://www.w3.org/1999/xlink" width="36pt" height="36pt" viewBox="0 0 36 36" version="1.1">
<g id="surface1">
<path style=" stroke:none;fill-rule:nonzero;fill:rgb(30.980392%,30.980392%,30.980392%);fill-opacity:1;" d="M 31.390625 7.566406 C 32.707031 7.566406 33.765625 8.625 33.765625 9.941406 L 33.765625 29.753906 C 33.765625 31.066406 32.707031 32.125 31.390625 32.125 L 4.609375 32.125 C 3.292969 32.125 2.234375 31.066406 2.234375 29.753906 L 2.234375 11.476562 L 2.238281 5.777344 C 2.238281 4.722656 3.085938 3.875 4.140625 3.875 L 14.367188 3.875 C 15.421875 3.875 16.285156 4.292969 16.957031 5.105469 L 18.984375 7.574219 Z M 31.390625 7.566406 "/>
<path style=" stroke:none;fill-rule:nonzero;fill:rgb(0%,0%,0%);fill-opacity:0.65098;" d="M 9 21.886719 L 12.382812 23.839844 C 12.378906 23.917969 12.375 23.996094 12.375 24.074219 C 12.375 25.9375 13.886719 27.449219 15.75 27.449219 C 17.613281 27.449219 19.125 25.9375 19.125 24.074219 C 19.121094 23.917969 19.109375 23.765625 19.085938 23.613281 L 23.179688 20.691406 C 25.308594 20.628906 26.996094 18.886719 27 16.761719 C 27 14.585938 25.238281 12.824219 23.0625 12.824219 C 20.886719 12.824219 19.125 14.585938 19.125 16.777344 L 16.511719 20.789062 C 16.261719 20.730469 16.007812 20.699219 15.75 20.699219 C 15.242188 20.699219 14.738281 20.816406 14.28125 21.039062 L 9 17.992188 M 23.0625 13.949219 C 24.617188 13.949219 25.875 15.207031 25.875 16.761719 C 25.875 18.3125 24.617188 19.574219 23.0625 19.574219 C 21.507812 19.574219 20.25 18.3125 20.25 16.761719 C 20.25 15.207031 21.507812 13.949219 23.0625 13.949219 Z M 23.0625 15.074219 C 22.132812 15.074219 21.375 15.828125 21.375 16.761719 C 21.375 17.691406 22.132812 18.449219 23.0625 18.449219 C 23.992188 18.449219 24.75 17.691406 24.75 16.761719 C 24.75 15.828125 23.992188 15.074219 23.0625 15.074219 Z M 15.75 21.824219 C 16.992188 21.824219 18 22.828125 18 24.074219 C 18 25.316406 16.992188 26.324219 15.75 26.324219 C 14.675781 26.320312 13.753906 25.5625 13.546875 24.511719 L 14.339844 24.96875 C 15.148438 25.4375 16.175781 25.160156 16.644531 24.351562 C 17.109375 23.542969 16.835938 22.515625 16.027344 22.046875 L 15.648438 21.828125 C 15.679688 21.824219 15.714844 21.824219 15.75 21.824219 Z M 15.75 21.824219 "/>
</g>
</svg>
