<?xml version="1.0" encoding="UTF-8"?>
<svg xmlns="http://www.w3.org/2000/svg" xmlns:xlink="http://www.w3.org/1999/xlink" width="36pt" height="36pt" viewBox="0 0 36 36" version="1.1">
<g id="surface1">
<path style=" stroke:none;fill-rule:nonzero;fill:rgb(88.627451%,32.156863%,32.156863%);fill-opacity:1;" d="M 31.390625 7.566406 C 32.707031 7.566406 33.765625 8.625 33.765625 9.941406 L 33.765625 29.753906 C 33.765625 31.066406 32.707031 32.125 31.390625 32.125 L 4.609375 32.125 C 3.292969 32.125 2.234375 31.066406 2.234375 29.753906 L 2.234375 11.476562 L 2.238281 5.777344 C 2.238281 4.722656 3.085938 3.875 4.140625 3.875 L 14.367188 3.875 C 15.421875 3.875 16.285156 4.292969 16.957031 5.105469 L 18.984375 7.574219 Z M 31.390625 7.566406 "/>
<path style=" stroke:none;fill-rule:nonzero;fill:rgb(0%,0%,0%);fill-opacity:0.65098;" d="M 11.25 13.082031 L 11.25 26.582031 L 24.75 26.582031 L 24.75 13.082031 Z M 14.625 14.207031 L 15.75 14.207031 L 15.75 15.332031 L 16.3125 15.332031 C 17.042969 15.332031 17.664062 15.804688 17.898438 16.457031 L 15.75 16.457031 L 15.75 17.582031 L 16.3125 17.582031 C 17.246094 17.582031 18 18.335938 18 19.269531 C 18 20.203125 17.246094 20.957031 16.3125 20.957031 L 15.75 20.957031 L 15.75 22.082031 L 14.625 22.082031 L 14.625 20.957031 L 14.0625 20.957031 C 13.332031 20.957031 12.710938 20.484375 12.476562 19.832031 L 14.625 19.832031 L 14.625 18.707031 L 14.0625 18.707031 C 13.128906 18.707031 12.375 17.953125 12.375 17.019531 C 12.375 16.085938 13.128906 15.332031 14.0625 15.332031 L 14.625 15.332031 Z M 14.0625 16.457031 C 13.746094 16.457031 13.5 16.703125 13.5 17.019531 C 13.5 17.332031 13.746094 17.582031 14.0625 17.582031 L 14.625 17.582031 L 14.625 16.457031 Z M 15.75 18.707031 L 15.75 19.832031 L 16.3125 19.832031 C 16.628906 19.839844 16.875 19.582031 16.875 19.269531 C 16.875 18.953125 16.628906 18.707031 16.3125 18.707031 Z M 19.125 20.957031 L 23.625 20.957031 L 23.625 22.082031 L 19.125 22.082031 Z M 19.125 20.957031 "/>
</g>
</svg>
