<?xml version="1.0" encoding="UTF-8"?>
<svg xmlns="http://www.w3.org/2000/svg" xmlns:xlink="http://www.w3.org/1999/xlink" width="36pt" height="36pt" viewBox="0 0 36 36" version="1.1">
<g id="surface1">
<path style=" stroke:none;fill-rule:nonzero;fill:rgb(15.686275%,61.960784%,63.137255%);fill-opacity:1;" d="M 31.390625 7.566406 C 32.707031 7.566406 33.765625 8.625 33.765625 9.941406 L 33.765625 29.753906 C 33.765625 31.066406 32.707031 32.125 31.390625 32.125 L 4.609375 32.125 C 3.292969 32.125 2.234375 31.066406 2.234375 29.753906 L 2.234375 11.476562 L 2.238281 5.777344 C 2.238281 4.722656 3.085938 3.875 4.140625 3.875 L 14.367188 3.875 C 15.421875 3.875 16.285156 4.292969 16.957031 5.105469 L 18.984375 7.574219 Z M 31.390625 7.566406 "/>
<path style=" stroke:none;fill-rule:nonzero;fill:rgb(0%,0%,0%);fill-opacity:0.65098;" d="M 17.449219 14.816406 C 16.90625 14.8125 16.433594 15.199219 16.332031 15.734375 L 15.496094 20.1875 L 15.140625 18.992188 C 14.996094 18.519531 14.558594 18.191406 14.0625 18.191406 L 11.25 18.191406 L 11.25 20.441406 L 13.226562 20.441406 L 14.671875 25.265625 C 14.824219 25.761719 15.292969 26.089844 15.808594 26.0625 C 16.324219 26.035156 16.757812 25.660156 16.855469 25.152344 L 17.800781 20.109375 L 18.074219 20.835938 C 18.230469 21.257812 18.621094 21.542969 19.066406 21.566406 C 19.511719 21.589844 19.929688 21.34375 20.132812 20.945312 L 20.664062 19.878906 L 21.449219 21.960938 C 21.613281 22.402344 22.03125 22.691406 22.5 22.691406 L 24.75 22.691406 L 24.75 20.441406 L 23.28125 20.441406 L 21.863281 16.671875 C 21.707031 16.253906 21.316406 15.96875 20.871094 15.945312 C 20.425781 15.921875 20.007812 16.164062 19.804688 16.5625 L 19.273438 17.632812 L 18.488281 15.546875 C 18.328125 15.113281 17.914062 14.824219 17.449219 14.816406 Z M 17.449219 14.816406 "/>
</g>
</svg>
