<?xml version="1.0" encoding="UTF-8"?>
<svg xmlns="http://www.w3.org/2000/svg" xmlns:xlink="http://www.w3.org/1999/xlink" width="36pt" height="36pt" viewBox="0 0 36 36" version="1.1">
<defs>
<filter id="alpha" filterUnits="objectBoundingBox" x="0%" y="0%" width="100%" height="100%">
  <feColorMatrix type="matrix" in="SourceGraphic" values="0 0 0 0 1 0 0 0 0 1 0 0 0 0 1 0 0 0 1 0"/>
</filter>
<mask id="mask0">
  <g filter="url(#alpha)">
<rect x="0" y="0" width="36" height="36" style="fill:rgb(0%,0%,0%);fill-opacity:0.65098;stroke:none;"/>
  </g>
</mask>
<clipPath id="clip1">
  <rect width="36" height="36"/>
</clipPath>
<g id="surface6" clip-path="url(#clip1)">
<path style=" stroke:none;fill-rule:nonzero;fill:rgb(0%,0%,0%);fill-opacity:0.65098;" d="M 18 7.484375 L 18 8.609375 L 19.125 8.609375 L 19.125 7.484375 Z M 18 8.609375 L 16.875 8.609375 L 16.875 9.734375 L 18 9.734375 Z M 18 9.734375 L 18 10.859375 L 19.125 10.859375 L 19.125 9.734375 Z M 18 10.859375 L 16.875 10.859375 L 16.875 11.984375 L 18 11.984375 Z M 18 11.984375 L 18 13.109375 C 18.621094 13.109375 19.125 12.546875 19.125 11.984375 Z M 18 11.984375 "/>
</g>
<mask id="mask1">
  <g filter="url(#alpha)">
<rect x="0" y="0" width="36" height="36" style="fill:rgb(0%,0%,0%);fill-opacity:0.65098;stroke:none;"/>
  </g>
</mask>
<clipPath id="clip2">
  <rect width="36" height="36"/>
</clipPath>
<g id="surface9" clip-path="url(#clip2)">
<path style=" stroke:none;fill-rule:nonzero;fill:rgb(0%,0%,0%);fill-opacity:0.65098;" d="M 18 13.109375 C 16.757812 13.109375 15.75 14.121094 15.75 15.359375 L 15.75 19.859375 C 15.75 21.097656 16.757812 22.109375 18 22.109375 C 19.242188 22.109375 20.25 21.097656 20.25 19.859375 L 20.25 15.359375 C 20.25 14.121094 19.242188 13.109375 18 13.109375 Z M 18 14.234375 C 18.621094 14.234375 19.125 14.683594 19.125 15.359375 C 19.125 15.921875 18.621094 16.484375 18 16.484375 C 17.378906 16.484375 16.875 15.921875 16.875 15.359375 C 16.875 14.683594 17.378906 14.234375 18 14.234375 Z M 18 17.609375 C 18.621094 17.609375 19.125 18.058594 19.125 18.734375 L 19.125 19.859375 C 19.125 20.421875 18.621094 20.984375 18 20.984375 C 17.378906 20.984375 16.875 20.421875 16.875 19.859375 L 16.875 18.734375 C 16.875 18.058594 17.378906 17.609375 18 17.609375 Z M 18 17.609375 "/>
</g>
</defs>
<g id="surface1">
<path style=" stroke:none;fill-rule:nonzero;fill:rgb(30.980392%,30.980392%,30.980392%);fill-opacity:1;" d="M 31.390625 7.566406 C 32.707031 7.566406 33.765625 8.625 33.765625 9.941406 L 33.765625 29.753906 C 33.765625 31.066406 32.707031 32.125 31.390625 32.125 L 4.609375 32.125 C 3.292969 32.125 2.234375 31.066406 2.234375 29.753906 L 2.234375 11.476562 L 2.238281 5.777344 C 2.238281 4.722656 3.085938 3.875 4.140625 3.875 L 14.367188 3.875 C 15.421875 3.875 16.285156 4.292969 16.957031 5.105469 L 18.984375 7.574219 Z M 31.390625 7.566406 "/>
<use xlink:href="#surface6" mask="url(#mask0)"/>
<use xlink:href="#surface9" mask="url(#mask1)"/>
</g>
</svg>
