<?xml version="1.0" encoding="UTF-8"?>
<svg xmlns="http://www.w3.org/2000/svg" xmlns:xlink="http://www.w3.org/1999/xlink" width="36pt" height="36pt" viewBox="0 0 36 36" version="1.1">
<defs>
<clipPath id="clip1">
  <rect width="36" height="36"/>
</clipPath>
<g id="surface6" clip-path="url(#clip1)">
<path style=" stroke:none;fill-rule:evenodd;fill:rgb(0%,0%,0%);fill-opacity:0.65098;" d="M 14.109375 13.59375 C 14.089844 13.59375 14.078125 13.613281 14.0625 13.621094 C 14.003906 13.632812 13.945312 13.652344 13.875 13.691406 C 13.800781 13.730469 13.726562 13.777344 13.664062 13.851562 C 13.65625 13.859375 13.648438 13.867188 13.640625 13.875 C 13.597656 13.933594 13.570312 14.007812 13.546875 14.085938 C 13.539062 14.109375 13.527344 14.132812 13.523438 14.15625 C 13.507812 14.21875 13.5 14.28125 13.5 14.34375 L 13.5 21.46875 L 14.625 21.46875 L 14.625 22.59375 L 15.75 22.59375 L 15.75 15.84375 L 19.125 15.84375 L 19.125 18.09375 L 20.25 18.09375 L 20.25 23.71875 L 21.375 23.71875 L 21.375 24.84375 L 22.5 24.84375 L 22.5 23.71875 L 21.382812 23.71875 L 21.375 22.59375 C 21.375 22.59375 22.5 22.59375 22.5 22.59375 L 22.5 21.847656 C 22.5 21.578125 22.5 21.414062 22.5 21.09375 L 22.5 18.84375 C 22.5 17.03125 22.5 17.085938 22.5 17.015625 L 22.5 16.40625 L 19.6875 13.59375 Z M 20.25 23.71875 L 19.125 23.71875 L 19.125 24.84375 L 20.25 24.84375 Z M 19.125 23.71875 L 19.125 22.59375 L 18 22.59375 L 18 23.71875 Z M 18 23.71875 L 16.875 23.71875 L 16.875 24.84375 L 18 24.84375 Z M 16.875 23.71875 L 16.875 22.59375 L 15.75 22.59375 L 15.75 23.71875 Z M 15.75 23.71875 L 14.625 23.71875 L 14.625 24.84375 L 15.75 24.84375 Z M 14.625 23.71875 L 14.625 22.59375 L 13.5 22.59375 L 13.5 23.71875 Z M 14.625 23.71875 "/>
</g>
</defs>
<g id="surface1">
<path style=" stroke:none;fill-rule:nonzero;fill:rgb(88.627451%,32.156863%,32.156863%);fill-opacity:1;" d="M 31.390625 7.566406 C 32.707031 7.566406 33.765625 8.625 33.765625 9.941406 L 33.765625 29.753906 C 33.765625 31.066406 32.707031 32.125 31.390625 32.125 L 4.609375 32.125 C 3.292969 32.125 2.234375 31.066406 2.234375 29.753906 L 2.234375 11.476562 L 2.238281 5.777344 C 2.238281 4.722656 3.085938 3.875 4.140625 3.875 L 14.367188 3.875 C 15.421875 3.875 16.285156 4.292969 16.957031 5.105469 L 18.984375 7.574219 Z M 31.390625 7.566406 "/>
<use xlink:href="#surface6"/>
</g>
</svg>
