<?xml version="1.0" encoding="UTF-8"?>
<svg xmlns="http://www.w3.org/2000/svg" xmlns:xlink="http://www.w3.org/1999/xlink" width="48pt" height="48pt" viewBox="0 0 48 48" version="1.1">
<g id="surface1">
<path style=" stroke:none;fill-rule:evenodd;fill:rgb(32.156863%,58.039216%,88.627451%);fill-opacity:1;" d="M 11.207031 2.847656 L 36.792969 2.847656 C 41.40625 2.847656 45.152344 6.59375 45.152344 11.207031 L 45.152344 36.792969 C 45.152344 41.40625 41.40625 45.152344 36.792969 45.152344 L 11.207031 45.152344 C 6.59375 45.152344 2.847656 41.40625 2.847656 36.792969 L 2.847656 11.207031 C 2.847656 6.59375 6.59375 2.847656 11.207031 2.847656 Z M 11.207031 2.847656 "/>
<path style=" stroke:none;fill-rule:nonzero;fill:rgb(100%,100%,100%);fill-opacity:1;" d="M 24 11.035156 C 16.839844 11.035156 11.035156 16.839844 11.035156 24 C 11.035156 31.160156 16.839844 36.964844 24 36.964844 C 31.160156 36.964844 36.964844 31.160156 36.964844 24 C 36.964844 16.839844 31.160156 11.035156 24 11.035156 Z M 22.785156 13.621094 C 22.925781 13.605469 23.105469 13.628906 23.25 13.621094 C 23.265625 13.6875 23.144531 13.925781 22.988281 14.28125 C 21.964844 16.519531 21.902344 19.140625 22.855469 20.542969 C 23.027344 20.796875 23.183594 21.035156 23.183594 21.066406 C 23.183594 21.097656 22.996094 21.136719 22.785156 21.136719 C 22.296875 21.136719 21.828125 20.832031 20.875 20.078125 C 20.453125 19.746094 19.902344 19.464844 19.6875 19.421875 C 19.355469 19.355469 19.265625 19.386719 18.832031 19.816406 C 18.433594 20.21875 18.308594 20.4375 18.308594 20.808594 C 18.308594 22.203125 19.96875 23.3125 23.050781 23.96875 C 27.246094 24.855469 28.269531 25.652344 28.390625 27.855469 C 28.53125 30.613281 27.0625 32.699219 23.84375 34.3125 C 23.457031 34.503906 23.214844 34.582031 23.050781 34.644531 C 22.980469 34.636719 22.921875 34.652344 22.855469 34.644531 C 22.824219 34.558594 22.785156 34.359375 22.785156 33.984375 C 22.785156 32.515625 22.207031 31.003906 21.339844 30.160156 C 21.105469 29.933594 20.453125 29.453125 19.890625 29.109375 C 19.328125 28.761719 18.761719 28.359375 18.636719 28.1875 C 18.425781 27.902344 18.410156 27.722656 18.574219 27.199219 C 18.863281 26.234375 19.214844 25.691406 19.890625 25.089844 C 20.246094 24.765625 20.597656 24.503906 20.683594 24.496094 C 20.761719 24.488281 20.230469 24.328125 19.425781 24.167969 C 18.628906 24 17.457031 23.660156 16.855469 23.441406 C 15.75 23.042969 14.261719 22.203125 13.691406 21.59375 C 13.667969 21.566406 13.644531 21.550781 13.625 21.527344 C 14.441406 18.285156 16.722656 15.625 19.753906 14.34375 C 20.390625 14.078125 21.042969 13.894531 21.734375 13.753906 C 22.078125 13.683594 22.433594 13.65625 22.785156 13.621094 Z M 32.671875 18.5625 C 32.921875 18.714844 33.859375 20.738281 34.125 21.730469 C 34.46875 23 34.441406 25.207031 34.125 26.472656 C 34.003906 26.953125 33.84375 27.402344 33.792969 27.457031 C 33.738281 27.515625 33.550781 27.199219 33.328125 26.800781 C 33.109375 26.410156 32.40625 25.578125 31.816406 24.957031 C 30.121094 23.167969 29.855469 22.234375 30.5625 20.808594 C 30.921875 20.089844 32.484375 18.441406 32.671875 18.5625 Z M 32.671875 18.5625 "/>
</g>
</svg>
