<?xml version="1.0" encoding="UTF-8" standalone="no"?>
<svg
   xmlns:dc="http://purl.org/dc/elements/1.1/"
   xmlns:cc="http://creativecommons.org/ns#"
   xmlns:rdf="http://www.w3.org/1999/02/22-rdf-syntax-ns#"
   xmlns:svg="http://www.w3.org/2000/svg"
   xmlns="http://www.w3.org/2000/svg"
   xmlns:sodipodi="http://sodipodi.sourceforge.net/DTD/sodipodi-0.dtd"
   xmlns:inkscape="http://www.inkscape.org/namespaces/inkscape"
   width="32"
   height="32"
   version="1.1"
   id="svg14"
   sodipodi:docname="start-here-kde.svg"
   inkscape:version="0.92.1 r">
  <metadata
     id="metadata20">
    <rdf:RDF>
      <cc:Work
         rdf:about="">
        <dc:format>image/svg+xml</dc:format>
        <dc:type
           rdf:resource="http://purl.org/dc/dcmitype/StillImage" />
      </cc:Work>
    </rdf:RDF>
  </metadata>
  <defs
     id="defs18" />
  <sodipodi:namedview
     pagecolor="#ffffff"
     bordercolor="#666666"
     borderopacity="1"
     objecttolerance="10"
     gridtolerance="10"
     guidetolerance="10"
     inkscape:pageopacity="0"
     inkscape:pageshadow="2"
     inkscape:window-width="1680"
     inkscape:window-height="965"
     id="namedview16"
     showgrid="false"
     inkscape:zoom="5.2149125"
     inkscape:cx="-32.660845"
     inkscape:cy="32.681952"
     inkscape:window-x="0"
     inkscape:window-y="0"
     inkscape:window-maximized="1"
     inkscape:current-layer="svg14" />
  <rect
     style="opacity:0"
     width="48"
     height="48"
     x="0"
     y="-16"
     id="rect6" />
  <rect
     style="opacity:1;fill:#2c9bff;fill-opacity:1;fill-rule:evenodd;stroke:none;stroke-width:1.03534329;stroke-linecap:round;stroke-linejoin:bevel;stroke-miterlimit:4;stroke-dasharray:none;stroke-dashoffset:0;stroke-opacity:1"
     id="rect4497-3"
     width="28.203388"
     height="28.203388"
     x="1.8983059"
     y="1.8983059"
     ry="5.575182" />
  <path
     style="fill:#ffffff"
     d="m 17.999023,5.4999974 -4,0.6054687 V 20.574217 l 4,-1.074219 v -5.589845 l 4,6.589845 4,-1.5 -5,-6.000001 5.001953,-6.4980466 -3.880859,-1.001953 -4.121094,6.5585936 z M 9.8544915,9.4238255 c -0.09459,0 -0.189185,0.036841 -0.261719,0.109375 l -1.572265,1.5722655 c -0.145068,0.145067 -0.110144,0.352307 0,0.52539 l 1.626953,2.554688 c -0.120543,0.250221 -0.224923,0.50791 -0.3125,0.771484 -0.0038,0.01134 -0.0099,0.02184 -0.01367,0.0332 l -2.951172,0.65625 c -0.20027,0.04451 -0.371094,0.165939 -0.371094,0.371094 v 0.982423 0.982422 c 0,0.205155 0.170824,0.32659 0.371094,0.371094 l 2.951172,0.65625 c 0.0065,0.0194 0.01679,0.03731 0.02344,0.05664 0.08525,0.256042 0.186352,0.506527 0.302735,0.75 l -1.626953,2.552735 c -0.110144,0.173083 -0.145068,0.380323 0,0.52539 l 1.572265,1.572266 c 0.145068,0.145067 0.378368,0.145067 0.5234375,0 l 2.550781,-1.625 c 0.250759,0.121949 0.509105,0.227636 0.773437,0.316406 0.01735,0.0061 0.03339,0.01554 0.05078,0.02149 l 0.654296,2.949218 c 0,0.205156 0.16594,0.371094 0.371094,0.371094 h 2.220703 c 0.205155,0 0.32659,-0.170824 0.371094,-0.371094 l 0.654297,-3.039062 c 0.300604,-0.113013 0.592418,-0.248149 0.873047,-0.404297 l 2.490234,1.78125 c 0.145068,0.145067 0.378371,0.145067 0.523438,0 l 1.572265,-1.572266 c 0.145068,-0.145067 0.110144,-0.352307 0,-0.52539 l -0.947265,-1.4375 -0.09961,0.03711 c -0.225251,0.08461 -0.478825,-0.0032 -0.603515,-0.208984 l -0.996094,-1.640625 c -0.829936,1.985195 -2.789933,3.380859 -5.076172,3.380859 -3.037566,0 -5.4999995,-2.462434 -5.4999995,-5.5 0,-2.330921 1.4527985,-4.318351 3.4999995,-5.119142 v -1.095703 l -0.0078,0.03516 c -0.02208,0.0075 -0.04245,0.01957 -0.06445,0.02734 -0.260825,0.08662 -0.515895,0.189688 -0.763672,0.308594 L 10.116229,9.5332065 C 10.043689,9.4606725 9.9491025,9.4238315 9.8545105,9.4238315 Z"
     id="path10"
     inkscape:connector-curvature="0" />
</svg>
