<?xml version="1.0" encoding="UTF-8" standalone="no"?>
<svg
   xmlns:dc="http://purl.org/dc/elements/1.1/"
   xmlns:cc="http://creativecommons.org/ns#"
   xmlns:rdf="http://www.w3.org/1999/02/22-rdf-syntax-ns#"
   xmlns:svg="http://www.w3.org/2000/svg"
   xmlns="http://www.w3.org/2000/svg"
   xmlns:sodipodi="http://sodipodi.sourceforge.net/DTD/sodipodi-0.dtd"
   xmlns:inkscape="http://www.inkscape.org/namespaces/inkscape"
   height="32"
   width="32"
   version="1"
   id="svg18"
   sodipodi:docname="stock_lock.svg"
   inkscape:version="0.92.1 r">
  <metadata
     id="metadata24">
    <rdf:RDF>
      <cc:Work
         rdf:about="">
        <dc:format>image/svg+xml</dc:format>
        <dc:type
           rdf:resource="http://purl.org/dc/dcmitype/StillImage" />
      </cc:Work>
    </rdf:RDF>
  </metadata>
  <defs
     id="defs22" />
  <sodipodi:namedview
     pagecolor="#ffffff"
     bordercolor="#666666"
     borderopacity="1"
     objecttolerance="10"
     gridtolerance="10"
     guidetolerance="10"
     inkscape:pageopacity="0"
     inkscape:pageshadow="2"
     inkscape:window-width="1680"
     inkscape:window-height="965"
     id="namedview20"
     showgrid="false"
     inkscape:zoom="7.375"
     inkscape:cx="-8.9491525"
     inkscape:cy="-9.220339"
     inkscape:window-x="0"
     inkscape:window-y="0"
     inkscape:window-maximized="1"
     inkscape:current-layer="svg18" />
  <rect
     style="opacity:1;fill:#fecd38;fill-opacity:1;fill-rule:evenodd;stroke:none;stroke-width:1.03534329;stroke-linecap:round;stroke-linejoin:bevel;stroke-miterlimit:4;stroke-dasharray:none;stroke-dashoffset:0;stroke-opacity:1"
     id="rect4497-3"
     width="28.203388"
     height="28.203388"
     x="1.8983059"
     y="1.8983059"
     ry="5.575182" />
  <path
     style="fill:#666666;fill-opacity:1;stroke-width:0.64253449"
     d="m 15.999998,7.0053262 c -2.847713,0 -5.139808,2.2920957 -5.139808,5.1398088 v 1.926537 H 9.8318718 c -0.4983499,0 -0.9000012,0.402037 -0.9000012,0.900001 v 0.643367 0.384951 6.424761 0.386733 0.641585 0.643367 c 0,0.124491 0.025864,0.241633 0.071287,0.349307 0,0 0,0.0018 0,0.0018 0.1365966,0.322286 0.4554852,0.54713 0.828714,0.54713 H 22.168125 c 0.372939,0 0.692099,-0.226626 0.828714,-0.548912 0.04543,-0.107674 0.07129,-0.224816 0.07129,-0.349307 V 23.45307 22.811485 22.424752 15.999991 15.61504 14.971673 c 0,-0.497964 -0.402037,-0.900001 -0.900001,-0.900001 h -1.028322 v -1.926537 c 0,-2.8477131 -2.292095,-5.1398088 -5.139808,-5.1398088 z m 0,1.926537 c 1.779821,0 3.213271,1.4334508 3.213271,3.2132718 v 1.926537 h -6.426542 v -1.926537 c 0,-1.779821 1.43345,-3.2132717 3.213271,-3.2132718 z"
     id="path2"
     inkscape:connector-curvature="0" />
</svg>
