<?xml version="1.0" encoding="UTF-8" standalone="no"?>
<svg
   xmlns:dc="http://purl.org/dc/elements/1.1/"
   xmlns:cc="http://creativecommons.org/ns#"
   xmlns:rdf="http://www.w3.org/1999/02/22-rdf-syntax-ns#"
   xmlns:svg="http://www.w3.org/2000/svg"
   xmlns="http://www.w3.org/2000/svg"
   xmlns:sodipodi="http://sodipodi.sourceforge.net/DTD/sodipodi-0.dtd"
   xmlns:inkscape="http://www.inkscape.org/namespaces/inkscape"
   height="32"
   width="32"
   version="1"
   id="svg12"
   sodipodi:docname="dialog-warning.svg"
   inkscape:version="0.92.1 r">
  <metadata
     id="metadata18">
    <rdf:RDF>
      <cc:Work
         rdf:about="">
        <dc:format>image/svg+xml</dc:format>
        <dc:type
           rdf:resource="http://purl.org/dc/dcmitype/StillImage" />
      </cc:Work>
    </rdf:RDF>
  </metadata>
  <defs
     id="defs16" />
  <sodipodi:namedview
     pagecolor="#ffffff"
     bordercolor="#666666"
     borderopacity="1"
     objecttolerance="10"
     gridtolerance="10"
     guidetolerance="10"
     inkscape:pageopacity="0"
     inkscape:pageshadow="2"
     inkscape:window-width="1680"
     inkscape:window-height="965"
     id="namedview14"
     showgrid="false"
     inkscape:zoom="10.429825"
     inkscape:cx="-10.416529"
     inkscape:cy="16.182605"
     inkscape:window-x="0"
     inkscape:window-y="0"
     inkscape:window-maximized="1"
     inkscape:current-layer="svg12" />
  <rect
     style="opacity:1;fill:#ffd453;fill-opacity:1;fill-rule:evenodd;stroke:none;stroke-width:1.03534329;stroke-linecap:round;stroke-linejoin:bevel;stroke-miterlimit:4;stroke-dasharray:none;stroke-dashoffset:0;stroke-opacity:1"
     id="rect4497-3"
     width="28.203388"
     height="28.203388"
     x="1.8983059"
     y="1.8983059"
     ry="5.575182" />
  <g
     aria-label="!"
     transform="scale(0.91603511,1.0916612)"
     style="font-style:normal;font-weight:normal;font-size:23.99675369px;line-height:1.25;font-family:sans-serif;letter-spacing:0px;word-spacing:0px;fill:#4d4d4d;fill-opacity:1;stroke:none;stroke-width:1"
     id="text4486">
    <path
       d="m 15.282875,20.259804 c 0,1.055857 0.863883,1.871746 2.183705,1.871746 1.343818,0 2.183704,-0.791892 2.183704,-1.871746 0,-1.055858 -0.839886,-1.84775 -2.183704,-1.84775 -1.343818,0 -2.183705,0.791892 -2.183705,1.84775 z M 16.098765,8.7653586 16.50671,16.37233 c 0.024,0.503931 0.407945,0.887879 0.95987,0.887879 0.551925,0 0.935873,-0.383948 0.95987,-0.887879 l 0.407945,-7.6069714 c 0,-0.047994 0,-0.07199 0,-0.1199837 0,-0.9118767 -0.527929,-1.463802 -1.367815,-1.463802 -0.839887,0 -1.367815,0.5519253 -1.367815,1.463802 0,0.047994 0,0.07199 0,0.1199837 z"
       style="font-style:normal;font-variant:normal;font-weight:normal;font-stretch:normal;font-family:'Courier 10 Pitch';-inkscape-font-specification:'Courier 10 Pitch';fill:#4d4d4d;stroke-width:1"
       id="path4484" />
  </g>
</svg>
