<?xml version="1.0" encoding="UTF-8" standalone="no"?>
<svg
   xmlns:dc="http://purl.org/dc/elements/1.1/"
   xmlns:cc="http://creativecommons.org/ns#"
   xmlns:rdf="http://www.w3.org/1999/02/22-rdf-syntax-ns#"
   xmlns:svg="http://www.w3.org/2000/svg"
   xmlns="http://www.w3.org/2000/svg"
   xmlns:sodipodi="http://sodipodi.sourceforge.net/DTD/sodipodi-0.dtd"
   xmlns:inkscape="http://www.inkscape.org/namespaces/inkscape"
   height="32"
   width="32"
   version="1"
   id="svg14"
   sodipodi:docname="dialog-question.svg"
   inkscape:version="0.92.1 r">
  <metadata
     id="metadata20">
    <rdf:RDF>
      <cc:Work
         rdf:about="">
        <dc:format>image/svg+xml</dc:format>
        <dc:type
           rdf:resource="http://purl.org/dc/dcmitype/StillImage" />
      </cc:Work>
    </rdf:RDF>
  </metadata>
  <defs
     id="defs18" />
  <sodipodi:namedview
     pagecolor="#ffffff"
     bordercolor="#666666"
     borderopacity="1"
     objecttolerance="10"
     gridtolerance="10"
     guidetolerance="10"
     inkscape:pageopacity="0"
     inkscape:pageshadow="2"
     inkscape:window-width="1680"
     inkscape:window-height="965"
     id="namedview16"
     showgrid="false"
     inkscape:zoom="7.375"
     inkscape:cx="-28.725654"
     inkscape:cy="18.711864"
     inkscape:window-x="0"
     inkscape:window-y="0"
     inkscape:window-maximized="1"
     inkscape:current-layer="svg14" />
  <rect
     style="opacity:1;fill:#64db2d;fill-opacity:1;fill-rule:evenodd;stroke:none;stroke-width:1.03534329;stroke-linecap:round;stroke-linejoin:bevel;stroke-miterlimit:4;stroke-dasharray:none;stroke-dashoffset:0;stroke-opacity:1"
     id="rect4497-3-3"
     width="28.203388"
     height="28.203388"
     x="1.8983059"
     y="1.8983059"
     ry="5.575182" />
  <g
     aria-label="?"
     transform="scale(0.91094941,1.0977558)"
     style="font-style:normal;font-weight:normal;font-size:23.8635273px;line-height:1.25;font-family:sans-serif;letter-spacing:0px;word-spacing:0px;fill:#ffffff;fill-opacity:1;stroke:none;stroke-width:1"
     id="text4486">
    <path
       d="m 15.881715,15.780298 v 0.692043 c 0,0.524997 0.310226,0.835223 0.859087,0.835223 0.548861,0 0.88295,-0.357953 0.88295,-0.859087 v -0.930678 c 2.911351,-1.073858 4.295435,-2.243171 4.295435,-4.271571 0,-2.3624891 -1.742037,-4.0567995 -4.510206,-4.0567995 -2.243172,0 -4.199981,0.6920423 -4.199981,1.5272657 v 1.1454493 c 0,0.6443155 0.381816,1.0261315 0.859087,1.0261315 1.002268,0 0.763633,-1.1693126 0.906814,-1.3840844 0.167044,-0.2863623 1.145449,-0.6920423 2.243171,-0.6920423 1.813628,0 2.83976,1.0022682 2.83976,2.4102167 0,1.765901 -1.646583,2.09999 -3.221576,2.935213 -0.739769,0.381817 -0.954541,0.835224 -0.954541,1.62272 z m -1.288631,4.414753 c 0,0.978404 0.835224,1.765901 2.147718,1.765901 1.336357,0 2.171581,-0.763633 2.171581,-1.765901 0,-1.002268 -0.835224,-1.742038 -2.171581,-1.742038 -1.336358,0 -2.147718,0.73977 -2.147718,1.742038 z"
       style="font-style:normal;font-variant:normal;font-weight:normal;font-stretch:normal;font-family:'Courier 10 Pitch';-inkscape-font-specification:'Courier 10 Pitch';fill:#ffffff;fill-opacity:1;stroke-width:1"
       id="path4484" />
  </g>
</svg>
