<?xml version="1.0" encoding="UTF-8" standalone="no"?>
<svg
   xmlns:dc="http://purl.org/dc/elements/1.1/"
   xmlns:cc="http://creativecommons.org/ns#"
   xmlns:rdf="http://www.w3.org/1999/02/22-rdf-syntax-ns#"
   xmlns:svg="http://www.w3.org/2000/svg"
   xmlns="http://www.w3.org/2000/svg"
   xmlns:sodipodi="http://sodipodi.sourceforge.net/DTD/sodipodi-0.dtd"
   xmlns:inkscape="http://www.inkscape.org/namespaces/inkscape"
   width="32"
   height="32"
   version="1"
   id="svg16"
   sodipodi:docname="smartphone-connected.svg"
   inkscape:version="0.92.1 r">
  <metadata
     id="metadata22">
    <rdf:RDF>
      <cc:Work
         rdf:about="">
        <dc:format>image/svg+xml</dc:format>
        <dc:type
           rdf:resource="http://purl.org/dc/dcmitype/StillImage" />
      </cc:Work>
    </rdf:RDF>
  </metadata>
  <defs
     id="defs20" />
  <sodipodi:namedview
     pagecolor="#ffffff"
     bordercolor="#666666"
     borderopacity="1"
     objecttolerance="10"
     gridtolerance="10"
     guidetolerance="10"
     inkscape:pageopacity="0"
     inkscape:pageshadow="2"
     inkscape:window-width="640"
     inkscape:window-height="480"
     id="namedview18"
     showgrid="false"
     inkscape:zoom="8.8125"
     inkscape:cx="-27.347518"
     inkscape:cy="16"
     inkscape:current-layer="svg16" />
  <rect
     style="opacity:1;fill:#8e8e8e;fill-opacity:1;fill-rule:evenodd;stroke:none;stroke-width:1.03534329;stroke-linecap:round;stroke-linejoin:bevel;stroke-miterlimit:4;stroke-dasharray:none;stroke-dashoffset:0;stroke-opacity:1"
     id="rect4497-3"
     width="28.203388"
     height="28.203388"
     x="1.8983059"
     y="1.8983059"
     ry="5.575182" />
  <g
     id="g4513"
     transform="matrix(0.96595745,0,0,0.96595745,0.54419782,1.0276595)"
     style="stroke-width:1.03524232">
    <path
       id="path6"
       d="m 7.5385,3.9997 h 16.924 c 0.852,0 1.538,0.7548 1.538,1.6923 v 18.616 c 0,0.937 -0.686,1.692 -1.538,1.692 H 7.5385 C 6.6867,26 6.0005,25.24542 6.0005,24.3082 V 5.6932 C 6.0015,4.7558 6.6877,4.001 7.54,4.001 Z"
       style="opacity:0.5;stroke-width:1.03524232"
       inkscape:connector-curvature="0" />
    <path
       id="path10"
       d="M 12.865,4.902 12,5.402 13.197,7.4763 C 11.009,8.5334 11,11 11,11 h 9 C 20,11 19.99,8.5335 17.803,7.4766 L 19,5.402 l -0.86523,-0.5 -1.2949,2.2422 c -0.397,-0.0888 -0.83489,-0.14453 -1.3379,-0.14453 -0.504,0 -0.9438,0.055531 -1.3418,0.14453 l -1.295,-2.2422 z m 0.637,4.0977 c 0.277,0 0.498,0.223 0.498,0.498 0,0.275 -0.224,0.502 -0.498,0.502 -0.277,0 -0.502,-0.224 -0.502,-0.502 0,-0.275 0.225,-0.498 0.502,-0.498 z m 4,0 c 0.277,0 0.498,0.223 0.498,0.498 0,0.275 -0.224,0.502 -0.498,0.502 -0.277,0 -0.502,-0.224 -0.502,-0.502 0,-0.275 0.225,-0.498 0.502,-0.498 z m -8.4571,3 C 8.4696,11.9997 8,12.5307 8,13.1837 v 4.6309 c 0,0.652 0.4696,1.185 1.0449,1.185 0.5753,0 0.9551,-0.533 0.9551,-1.186 v -4.6309 c 0,-0.653 -0.3791,-1.183 -0.9551,-1.183 z m 1.9551,0 v 8.5 c -7e-6,0.23573 0.26427,0.5 0.5,0.5 H 13 v 1.875 c 0,0.622 0.396,1.125 1,1.125 0.60019,0 1.0199,-0.50369 1,-1.125 v -1.875 h 1 v 1.875 c 0,0.622 0.396,1.125 1,1.125 0.60019,0 1,-0.51183 1,-1.125 v -1.875 h 1.5 c 0.236,0 0.5,-0.264 0.5,-0.5 v -8.5 z m 11.045,0 c -0.575,0 -1.045,0.531 -1.045,1.184 v 4.6309 c 0,0.652 0.47,1.185 1.045,1.185 0.575,0 0.955,-0.533 0.955,-1.186 v -4.6309 c 0,-0.653 -0.379,-1.183 -0.955,-1.183 z"
       inkscape:connector-curvature="0"
       style="fill:#a4ca39;stroke-width:1.03524232" />
    <rect
       id="rect12"
       ry="0.5"
       rx="0.5"
       y="2"
       x="12"
       height="1"
       width="8"
       style="opacity:0.5;stroke-width:1.03524232" />
    <circle
       id="circle14"
       r="1"
       cy="28"
       cx="16"
       style="opacity:0.5;stroke-width:1.03524232" />
  </g>
</svg>
