<?xml version="1.0" encoding="UTF-8"?>
<svg xmlns="http://www.w3.org/2000/svg" xmlns:xlink="http://www.w3.org/1999/xlink" width="16pt" height="16pt" viewBox="0 0 16 16" version="1.1">
<g id="surface1">
<path style=" stroke:none;fill-rule:evenodd;fill:rgb(35.686275%,35.686275%,35.686275%);fill-opacity:1;" d="M 3.734375 0.949219 L 12.265625 0.949219 C 13.800781 0.949219 15.050781 2.199219 15.050781 3.734375 L 15.050781 12.265625 C 15.050781 13.800781 13.800781 15.050781 12.265625 15.050781 L 3.734375 15.050781 C 2.199219 15.050781 0.949219 13.800781 0.949219 12.265625 L 0.949219 3.734375 C 0.949219 2.199219 2.199219 0.949219 3.734375 0.949219 Z M 3.734375 0.949219 "/>
<path style=" stroke:none;fill-rule:nonzero;fill:rgb(35.686275%,35.686275%,35.686275%);fill-opacity:1;" d="M 12.214844 1.738281 L 3.785156 1.738281 C 3.453125 1.738281 3.183594 2.015625 3.183594 2.363281 L 3.183594 13.636719 C 3.183594 13.984375 3.453125 14.261719 3.785156 14.261719 L 12.214844 14.261719 C 12.546875 14.261719 12.816406 13.984375 12.816406 13.636719 L 12.816406 2.363281 C 12.816406 2.015625 12.546875 1.738281 12.214844 1.738281 Z M 12.214844 1.738281 "/>
<path style=" stroke:none;fill-rule:nonzero;fill:rgb(24.313725%,24.313725%,24.313725%);fill-opacity:1;" d="M 8 4.628906 C 10.394531 4.628906 12.335938 6.570312 12.335938 8.964844 C 12.335938 11.359375 10.394531 13.296875 8 13.296875 C 5.605469 13.296875 3.664062 11.359375 3.664062 8.964844 C 3.664062 6.570312 5.605469 4.628906 8 4.628906 Z M 8 4.628906 "/>
<path style=" stroke:none;fill-rule:nonzero;fill:rgb(99.607843%,75.294118%,2.352941%);fill-opacity:1;" d="M 8 5.59375 C 6.136719 5.59375 4.628906 7.101562 4.628906 8.964844 C 4.628906 10.828125 6.136719 12.335938 8 12.335938 C 9.863281 12.335938 11.371094 10.828125 11.371094 8.964844 C 11.371094 7.101562 9.863281 5.59375 8 5.59375 Z M 8 5.59375 "/>
<path style=" stroke:none;fill-rule:nonzero;fill:rgb(24.705882%,24.705882%,24.705882%);fill-opacity:1;" d="M 8 7.519531 C 7.203125 7.519531 6.554688 8.164062 6.554688 8.964844 C 6.554688 9.761719 7.203125 10.40625 8 10.40625 C 8.796875 10.40625 9.445312 9.761719 9.445312 8.964844 C 9.445312 8.164062 8.796875 7.519531 8 7.519531 Z M 8 7.519531 "/>
<path style=" stroke:none;fill-rule:nonzero;fill:rgb(24.313725%,24.313725%,24.313725%);fill-opacity:1;" d="M 5.109375 4.144531 C 4.84375 4.144531 4.628906 3.929688 4.628906 3.664062 C 4.628906 3.398438 4.84375 3.183594 5.109375 3.183594 C 5.375 3.183594 5.59375 3.398438 5.59375 3.664062 C 5.59375 3.929688 5.375 4.144531 5.109375 4.144531 Z M 5.109375 4.144531 "/>
<path style=" stroke:none;fill-rule:nonzero;fill:rgb(24.313725%,24.313725%,24.313725%);fill-opacity:1;" d="M 10.890625 4.144531 C 10.625 4.144531 10.40625 3.929688 10.40625 3.664062 C 10.40625 3.398438 10.625 3.183594 10.890625 3.183594 C 11.15625 3.183594 11.371094 3.398438 11.371094 3.664062 C 11.371094 3.929688 11.15625 4.144531 10.890625 4.144531 Z M 10.890625 4.144531 "/>
</g>
</svg>
