<?xml version="1.0" encoding="UTF-8"?>
<svg xmlns="http://www.w3.org/2000/svg" xmlns:xlink="http://www.w3.org/1999/xlink" width="16pt" height="16pt" viewBox="0 0 16 16" version="1.1">
<g id="surface1">
<path style=" stroke:none;fill-rule:evenodd;fill:rgb(55.686275%,55.686275%,55.686275%);fill-opacity:1;" d="M 3.734375 0.949219 L 12.265625 0.949219 C 13.800781 0.949219 15.050781 2.199219 15.050781 3.734375 L 15.050781 12.265625 C 15.050781 13.800781 13.800781 15.050781 12.265625 15.050781 L 3.734375 15.050781 C 2.199219 15.050781 0.949219 13.800781 0.949219 12.265625 L 0.949219 3.734375 C 0.949219 2.199219 2.199219 0.949219 3.734375 0.949219 Z M 3.734375 0.949219 "/>
<path style=" stroke:none;fill-rule:nonzero;fill:rgb(90.196078%,90.196078%,90.196078%);fill-opacity:1;" d="M 8 3.695312 C 5.78125 3.695312 3.984375 5.496094 3.984375 7.714844 L 3.984375 10.296875 C 3.984375 11.320312 4.710938 11.597656 5.128906 11.675781 L 5.128906 7.714844 C 5.128906 6.125 6.410156 4.84375 8 4.84375 C 9.589844 4.84375 10.871094 6.125 10.871094 7.714844 L 10.871094 11.675781 C 11.289062 11.597656 12.015625 11.320312 12.015625 10.296875 L 12.015625 7.714844 C 12.015625 5.496094 10.21875 3.695312 8 3.695312 Z M 8 3.695312 "/>
<path style=" stroke:none;fill-rule:nonzero;fill:rgb(30.196078%,30.196078%,30.196078%);fill-opacity:1;" d="M 5.128906 8.285156 L 5.128906 12.304688 L 6.566406 12.304688 L 6.566406 8.285156 Z M 9.433594 8.285156 L 9.433594 12.304688 L 10.871094 12.304688 L 10.871094 8.285156 Z M 9.433594 8.285156 "/>
</g>
</svg>
