<?xml version="1.0" encoding="UTF-8"?>
<svg xmlns="http://www.w3.org/2000/svg" xmlns:xlink="http://www.w3.org/1999/xlink" width="16pt" height="16pt" viewBox="0 0 16 16" version="1.1">
<g id="surface1">
<path style=" stroke:none;fill-rule:evenodd;fill:rgb(55.686275%,55.686275%,55.686275%);fill-opacity:1;" d="M 3.734375 0.949219 L 12.265625 0.949219 C 13.800781 0.949219 15.050781 2.199219 15.050781 3.734375 L 15.050781 12.265625 C 15.050781 13.800781 13.800781 15.050781 12.265625 15.050781 L 3.734375 15.050781 C 2.199219 15.050781 0.949219 13.800781 0.949219 12.265625 L 0.949219 3.734375 C 0.949219 2.199219 2.199219 0.949219 3.734375 0.949219 Z M 3.734375 0.949219 "/>
<path style=" stroke:none;fill-rule:nonzero;fill:rgb(90.196078%,90.196078%,90.196078%);fill-opacity:1;" d="M 10.726562 5.90625 C 10.324219 7.414062 8.773438 8.308594 7.269531 7.90625 C 5.765625 7.5 4.871094 5.953125 5.273438 4.449219 C 5.675781 2.941406 7.226562 2.046875 8.730469 2.453125 C 10.234375 2.855469 11.128906 4.402344 10.726562 5.90625 Z M 10.726562 5.90625 "/>
<path style=" stroke:none;fill-rule:nonzero;fill:rgb(30.196078%,30.196078%,30.196078%);fill-opacity:1;" d="M 6.5625 7.195312 L 9.4375 7.195312 C 9.757812 7.195312 10.046875 7.4375 10.015625 7.730469 L 9.4375 13.109375 C 9.40625 13.402344 9.183594 13.644531 8.863281 13.644531 L 7.136719 13.644531 C 6.816406 13.644531 6.59375 13.402344 6.5625 13.105469 L 5.988281 7.730469 C 5.953125 7.433594 6.242188 7.195312 6.5625 7.195312 Z M 6.5625 7.195312 "/>
<path style=" stroke:none;fill-rule:nonzero;fill:rgb(24.705882%,24.705882%,24.705882%);fill-opacity:1;" d="M 5.882812 6.789062 L 10.117188 6.789062 C 10.28125 6.789062 10.417969 6.910156 10.417969 7.058594 L 10.417969 7.328125 C 10.417969 7.476562 10.28125 7.597656 10.117188 7.597656 L 5.882812 7.597656 C 5.71875 7.597656 5.582031 7.476562 5.582031 7.328125 L 5.582031 7.058594 C 5.582031 6.910156 5.71875 6.789062 5.882812 6.789062 Z M 5.882812 6.789062 "/>
</g>
</svg>
