<?xml version="1.0" encoding="UTF-8"?>
<svg xmlns="http://www.w3.org/2000/svg" xmlns:xlink="http://www.w3.org/1999/xlink" width="16pt" height="16pt" viewBox="0 0 16 16" version="1.1">
<g id="surface1">
<path style=" stroke:none;fill-rule:evenodd;fill:rgb(55.686275%,55.686275%,55.686275%);fill-opacity:1;" d="M 3.734375 0.949219 L 12.265625 0.949219 C 13.800781 0.949219 15.050781 2.199219 15.050781 3.734375 L 15.050781 12.265625 C 15.050781 13.800781 13.800781 15.050781 12.265625 15.050781 L 3.734375 15.050781 C 2.199219 15.050781 0.949219 13.800781 0.949219 12.265625 L 0.949219 3.734375 C 0.949219 2.199219 2.199219 0.949219 3.734375 0.949219 Z M 3.734375 0.949219 "/>
<path style=" stroke:none;fill-rule:nonzero;fill:rgb(24.705882%,24.705882%,24.705882%);fill-opacity:1;" d="M 5.714844 4.804688 C 4.574219 4.804688 3.71875 5.707031 3.65625 6.824219 L 3.429688 11.082031 C 3.285156 11.914062 4.109375 12.441406 4.800781 11.53125 L 6 9.765625 C 6.050781 9.769531 6.105469 9.777344 6.15625 9.777344 L 9.816406 9.777344 L 11.1875 11.585938 C 11.875 12.492188 12.648438 11.75 12.5625 11.132812 L 12.335938 6.890625 C 12.339844 6.867188 12.339844 6.84375 12.339844 6.824219 C 12.339844 5.703125 11.421875 4.804688 10.28125 4.804688 Z M 5.714844 4.804688 "/>
<path style=" stroke:none;fill-rule:nonzero;fill:rgb(90.196078%,90.196078%,90.196078%);fill-opacity:1;" d="M 5.375 5.789062 L 5.375 6.441406 L 4.722656 6.441406 L 4.722656 7.097656 L 5.375 7.097656 L 5.375 7.75 L 6.03125 7.75 L 6.03125 7.097656 L 6.6875 7.097656 L 6.6875 6.441406 L 6.03125 6.441406 L 6.03125 5.789062 Z M 5.375 5.789062 "/>
<path style=" stroke:none;fill-rule:nonzero;fill:rgb(93.333333%,32.54902%,32.54902%);fill-opacity:1;" d="M 10.289062 5.789062 C 10.109375 5.789062 9.960938 5.933594 9.960938 6.113281 C 9.960938 6.296875 10.109375 6.441406 10.289062 6.441406 C 10.46875 6.441406 10.617188 6.296875 10.617188 6.113281 C 10.617188 5.933594 10.46875 5.789062 10.289062 5.789062 Z M 10.289062 5.789062 "/>
<path style=" stroke:none;fill-rule:nonzero;fill:rgb(93.333333%,32.54902%,32.54902%);fill-opacity:1;" d="M 9.632812 6.441406 C 9.453125 6.441406 9.308594 6.589844 9.308594 6.769531 C 9.308594 6.953125 9.453125 7.097656 9.632812 7.097656 C 9.8125 7.097656 9.960938 6.953125 9.960938 6.769531 C 9.960938 6.589844 9.8125 6.441406 9.632812 6.441406 Z M 9.632812 6.441406 "/>
<path style=" stroke:none;fill-rule:nonzero;fill:rgb(100%,79.215686%,34.509804%);fill-opacity:1;" d="M 10.945312 6.441406 C 10.761719 6.441406 10.617188 6.589844 10.617188 6.769531 C 10.617188 6.953125 10.761719 7.097656 10.945312 7.097656 C 11.125 7.097656 11.269531 6.953125 11.269531 6.769531 C 11.269531 6.589844 11.125 6.441406 10.945312 6.441406 Z M 10.945312 6.441406 "/>
<path style=" stroke:none;fill-rule:nonzero;fill:rgb(100%,79.215686%,34.509804%);fill-opacity:1;" d="M 10.289062 7.097656 C 10.109375 7.097656 9.960938 7.242188 9.960938 7.425781 C 9.960938 7.605469 10.109375 7.75 10.289062 7.75 C 10.46875 7.75 10.617188 7.605469 10.617188 7.425781 C 10.617188 7.242188 10.46875 7.097656 10.289062 7.097656 Z M 10.289062 7.097656 "/>
</g>
</svg>
