<?xml version="1.0" encoding="UTF-8"?>
<svg xmlns="http://www.w3.org/2000/svg" xmlns:xlink="http://www.w3.org/1999/xlink" width="16pt" height="16pt" viewBox="0 0 16 16" version="1.1">
<g id="surface1">
<path style=" stroke:none;fill-rule:evenodd;fill:rgb(55.686275%,55.686275%,55.686275%);fill-opacity:1;" d="M 3.734375 0.949219 L 12.265625 0.949219 C 13.800781 0.949219 15.050781 2.199219 15.050781 3.734375 L 15.050781 12.265625 C 15.050781 13.800781 13.800781 15.050781 12.265625 15.050781 L 3.734375 15.050781 C 2.199219 15.050781 0.949219 13.800781 0.949219 12.265625 L 0.949219 3.734375 C 0.949219 2.199219 2.199219 0.949219 3.734375 0.949219 Z M 3.734375 0.949219 "/>
<path style=" stroke:none;fill-rule:nonzero;fill:rgb(30.196078%,30.196078%,30.196078%);fill-opacity:1;" d="M 6.5625 12.679688 L 6.203125 12.679688 L 6.203125 3.320312 L 6.5625 3.320312 Z M 6.5625 12.679688 "/>
<path style=" stroke:none;fill-rule:nonzero;fill:rgb(30.196078%,30.196078%,30.196078%);fill-opacity:1;" d="M 5.480469 12.679688 L 5.121094 12.679688 L 5.121094 3.320312 L 5.480469 3.320312 Z M 5.480469 12.679688 "/>
<path style=" stroke:none;fill-rule:nonzero;fill:rgb(30.196078%,30.196078%,30.196078%);fill-opacity:1;" d="M 9.796875 12.679688 L 9.4375 12.679688 L 9.4375 3.320312 L 9.796875 3.320312 Z M 9.796875 12.679688 "/>
<path style=" stroke:none;fill-rule:nonzero;fill:rgb(30.196078%,30.196078%,30.196078%);fill-opacity:1;" d="M 8.71875 12.679688 L 8.359375 12.679688 L 8.359375 3.320312 L 8.71875 3.320312 Z M 8.71875 12.679688 "/>
<path style=" stroke:none;fill-rule:nonzero;fill:rgb(30.196078%,30.196078%,30.196078%);fill-opacity:1;" d="M 7.640625 12.679688 L 7.28125 12.679688 L 7.28125 3.320312 L 7.640625 3.320312 Z M 7.640625 12.679688 "/>
<path style=" stroke:none;fill-rule:nonzero;fill:rgb(30.196078%,30.196078%,30.196078%);fill-opacity:1;" d="M 10.878906 12.679688 L 10.519531 12.679688 L 10.519531 3.320312 L 10.878906 3.320312 Z M 10.878906 12.679688 "/>
<path style=" stroke:none;fill-rule:nonzero;fill:rgb(30.196078%,30.196078%,30.196078%);fill-opacity:1;" d="M 4.402344 6.5625 L 4.402344 6.203125 L 11.597656 6.203125 L 11.597656 6.5625 Z M 4.402344 6.5625 "/>
<path style=" stroke:none;fill-rule:nonzero;fill:rgb(30.196078%,30.196078%,30.196078%);fill-opacity:1;" d="M 4.402344 5.480469 L 4.402344 5.121094 L 11.597656 5.121094 L 11.597656 5.480469 Z M 4.402344 5.480469 "/>
<path style=" stroke:none;fill-rule:nonzero;fill:rgb(30.196078%,30.196078%,30.196078%);fill-opacity:1;" d="M 4.402344 4.402344 L 4.402344 4.042969 L 11.597656 4.042969 L 11.597656 4.402344 Z M 4.402344 4.402344 "/>
<path style=" stroke:none;fill-rule:nonzero;fill:rgb(30.196078%,30.196078%,30.196078%);fill-opacity:1;" d="M 4.402344 9.796875 L 4.402344 9.4375 L 11.597656 9.4375 L 11.597656 9.796875 Z M 4.402344 9.796875 "/>
<path style=" stroke:none;fill-rule:nonzero;fill:rgb(30.196078%,30.196078%,30.196078%);fill-opacity:1;" d="M 4.402344 8.71875 L 4.402344 8.359375 L 11.597656 8.359375 L 11.597656 8.71875 Z M 4.402344 8.71875 "/>
<path style=" stroke:none;fill-rule:nonzero;fill:rgb(30.196078%,30.196078%,30.196078%);fill-opacity:1;" d="M 4.402344 7.640625 L 4.402344 7.28125 L 11.597656 7.28125 L 11.597656 7.640625 Z M 4.402344 7.640625 "/>
<path style=" stroke:none;fill-rule:nonzero;fill:rgb(30.196078%,30.196078%,30.196078%);fill-opacity:1;" d="M 4.402344 10.878906 L 4.402344 10.519531 L 11.597656 10.519531 L 11.597656 10.878906 Z M 4.402344 10.878906 "/>
<path style=" stroke:none;fill-rule:nonzero;fill:rgb(30.196078%,30.196078%,30.196078%);fill-opacity:1;" d="M 4.402344 11.957031 L 4.402344 11.597656 L 11.597656 11.597656 L 11.597656 11.957031 Z M 4.402344 11.957031 "/>
<path style=" stroke:none;fill-rule:nonzero;fill:rgb(30.196078%,30.196078%,30.196078%);fill-opacity:1;" d="M 11.238281 11.867188 L 11.238281 4.132812 C 11.238281 3.882812 11.039062 3.683594 10.789062 3.683594 L 5.210938 3.683594 C 4.960938 3.683594 4.761719 3.882812 4.761719 4.132812 L 4.761719 11.867188 C 4.761719 12.117188 4.960938 12.316406 5.210938 12.316406 L 10.789062 12.316406 C 11.039062 12.316406 11.238281 12.117188 11.238281 11.867188 Z M 11.238281 11.867188 "/>
<path style=" stroke:none;fill-rule:nonzero;fill:rgb(90.196078%,90.196078%,90.196078%);fill-opacity:1;" d="M 8.359375 4.761719 L 8.359375 7.640625 L 8 7.640625 L 8 4.761719 Z M 8.359375 4.761719 "/>
<path style=" stroke:none;fill-rule:nonzero;fill:rgb(90.196078%,90.196078%,90.196078%);fill-opacity:1;" d="M 8.359375 8 L 8.359375 10.878906 L 8 10.878906 L 8 8 Z M 8.359375 8 "/>
<path style=" stroke:none;fill-rule:nonzero;fill:rgb(90.196078%,90.196078%,90.196078%);fill-opacity:1;" d="M 6.921875 4.761719 L 6.921875 5.839844 L 6.5625 5.839844 L 6.5625 4.761719 Z M 6.921875 4.761719 "/>
<path style=" stroke:none;fill-rule:nonzero;fill:rgb(90.196078%,90.196078%,90.196078%);fill-opacity:1;" d="M 6.921875 6.203125 L 6.921875 7.28125 L 6.5625 7.28125 L 6.5625 6.203125 Z M 6.921875 6.203125 "/>
<path style=" stroke:none;fill-rule:nonzero;fill:rgb(90.196078%,90.196078%,90.196078%);fill-opacity:1;" d="M 6.921875 7.640625 L 6.921875 9.796875 L 6.5625 9.796875 L 6.5625 7.640625 Z M 6.921875 7.640625 "/>
<path style=" stroke:none;fill-rule:nonzero;fill:rgb(90.196078%,90.196078%,90.196078%);fill-opacity:1;" d="M 9.796875 4.761719 L 9.796875 6.921875 L 9.4375 6.921875 L 9.4375 4.761719 Z M 9.796875 4.761719 "/>
<path style=" stroke:none;fill-rule:nonzero;fill:rgb(90.196078%,90.196078%,90.196078%);fill-opacity:1;" d="M 9.796875 7.28125 L 9.796875 8.359375 L 9.4375 8.359375 L 9.4375 7.28125 Z M 9.796875 7.28125 "/>
<path style=" stroke:none;fill-rule:nonzero;fill:rgb(90.196078%,90.196078%,90.196078%);fill-opacity:1;" d="M 9.796875 8.71875 L 9.796875 11.238281 L 9.4375 11.238281 L 9.4375 8.71875 Z M 9.796875 8.71875 "/>
</g>
</svg>
