<?xml version="1.0" encoding="UTF-8"?>
<svg xmlns="http://www.w3.org/2000/svg" xmlns:xlink="http://www.w3.org/1999/xlink" width="16pt" height="16pt" viewBox="0 0 16 16" version="1.1">
<g id="surface1">
<path style=" stroke:none;fill-rule:evenodd;fill:rgb(55.686275%,55.686275%,55.686275%);fill-opacity:1;" d="M 3.734375 0.949219 L 12.265625 0.949219 C 13.800781 0.949219 15.050781 2.199219 15.050781 3.734375 L 15.050781 12.265625 C 15.050781 13.800781 13.800781 15.050781 12.265625 15.050781 L 3.734375 15.050781 C 2.199219 15.050781 0.949219 13.800781 0.949219 12.265625 L 0.949219 3.734375 C 0.949219 2.199219 2.199219 0.949219 3.734375 0.949219 Z M 3.734375 0.949219 "/>
<path style=" stroke:none;fill-rule:nonzero;fill:rgb(30.196078%,30.196078%,30.196078%);fill-opacity:1;" d="M 4.140625 13.296875 L 11.859375 13.296875 C 12.25 13.296875 12.570312 12.980469 12.570312 12.585938 L 12.570312 8.296875 C 12.570312 7.90625 12.25 7.585938 11.859375 7.585938 L 4.140625 7.585938 C 3.75 7.585938 3.429688 7.90625 3.429688 8.296875 L 3.429688 12.585938 C 3.429688 12.980469 3.75 13.296875 4.140625 13.296875 Z M 4.140625 13.296875 "/>
<path style=" stroke:none;fill-rule:nonzero;fill:rgb(97.254902%,76.862745%,30.588235%);fill-opacity:1;" d="M 11.96875 2.996094 L 12.496094 2.996094 L 12.496094 5.109375 L 11.96875 5.109375 Z M 11.96875 2.996094 "/>
<path style=" stroke:none;fill-rule:nonzero;fill:rgb(97.254902%,76.862745%,30.588235%);fill-opacity:1;" d="M 10.910156 2.996094 L 11.4375 2.996094 L 11.4375 5.109375 L 10.910156 5.109375 Z M 10.910156 2.996094 "/>
<path style=" stroke:none;fill-rule:nonzero;fill:rgb(97.254902%,76.862745%,30.588235%);fill-opacity:1;" d="M 9.851562 2.996094 L 10.378906 2.996094 L 10.378906 5.109375 L 9.851562 5.109375 Z M 9.851562 2.996094 "/>
<path style=" stroke:none;fill-rule:nonzero;fill:rgb(97.254902%,76.862745%,30.588235%);fill-opacity:1;" d="M 8.792969 2.996094 L 9.324219 2.996094 L 9.324219 5.109375 L 8.792969 5.109375 Z M 8.792969 2.996094 "/>
<path style=" stroke:none;fill-rule:nonzero;fill:rgb(97.254902%,76.862745%,30.588235%);fill-opacity:1;" d="M 7.734375 2.996094 L 8.265625 2.996094 L 8.265625 5.109375 L 7.734375 5.109375 Z M 7.734375 2.996094 "/>
<path style=" stroke:none;fill-rule:nonzero;fill:rgb(97.254902%,76.862745%,30.588235%);fill-opacity:1;" d="M 6.675781 2.996094 L 7.207031 2.996094 L 7.207031 5.109375 L 6.675781 5.109375 Z M 6.675781 2.996094 "/>
<path style=" stroke:none;fill-rule:nonzero;fill:rgb(97.254902%,76.862745%,30.588235%);fill-opacity:1;" d="M 5.621094 2.996094 L 6.148438 2.996094 L 6.148438 5.109375 L 5.621094 5.109375 Z M 5.621094 2.996094 "/>
<path style=" stroke:none;fill-rule:nonzero;fill:rgb(97.254902%,76.862745%,30.588235%);fill-opacity:1;" d="M 4.5625 2.996094 L 5.089844 2.996094 L 5.089844 5.109375 L 4.5625 5.109375 Z M 4.5625 2.996094 "/>
<path style=" stroke:none;fill-rule:nonzero;fill:rgb(97.254902%,76.862745%,30.588235%);fill-opacity:1;" d="M 3.503906 4.050781 L 4.03125 4.050781 L 4.03125 5.109375 L 3.503906 5.109375 Z M 3.503906 4.050781 "/>
</g>
</svg>
