<?xml version="1.0" encoding="UTF-8"?>
<svg xmlns="http://www.w3.org/2000/svg" xmlns:xlink="http://www.w3.org/1999/xlink" width="16pt" height="16pt" viewBox="0 0 16 16" version="1.1">
<g id="surface1">
<path style=" stroke:none;fill-rule:evenodd;fill:rgb(55.686275%,55.686275%,55.686275%);fill-opacity:1;" d="M 3.734375 0.949219 L 12.265625 0.949219 C 13.800781 0.949219 15.050781 2.199219 15.050781 3.734375 L 15.050781 12.265625 C 15.050781 13.800781 13.800781 15.050781 12.265625 15.050781 L 3.734375 15.050781 C 2.199219 15.050781 0.949219 13.800781 0.949219 12.265625 L 0.949219 3.734375 C 0.949219 2.199219 2.199219 0.949219 3.734375 0.949219 Z M 3.734375 0.949219 "/>
<path style=" stroke:none;fill-rule:nonzero;fill:rgb(51.764706%,51.764706%,51.764706%);fill-opacity:1;" d="M 8 4.996094 C 6.339844 4.996094 4.996094 6.339844 4.996094 8 C 4.996094 9.660156 6.339844 11.003906 8 11.003906 C 9.660156 11.003906 11.003906 9.660156 11.003906 8 C 11.003906 6.339844 9.660156 4.996094 8 4.996094 Z M 8 6.796875 C 8.664062 6.796875 9.203125 7.335938 9.203125 8 C 9.203125 8.664062 8.664062 9.203125 8 9.203125 C 7.335938 9.203125 6.796875 8.664062 6.796875 8 C 6.796875 7.335938 7.335938 6.796875 8 6.796875 Z M 8 6.796875 "/>
<path style=" stroke:none;fill-rule:nonzero;fill:rgb(90.196078%,90.196078%,90.196078%);fill-opacity:1;" d="M 8 2.390625 C 4.890625 2.390625 2.390625 4.890625 2.390625 8 C 2.390625 11.109375 4.890625 13.609375 8 13.609375 C 11.109375 13.609375 13.609375 11.109375 13.609375 8 C 13.609375 4.890625 11.109375 2.390625 8 2.390625 Z M 8 5.59375 C 9.328125 5.59375 10.40625 6.671875 10.40625 8 C 10.40625 9.328125 9.328125 10.40625 8 10.40625 C 6.671875 10.40625 5.59375 9.328125 5.59375 8 C 5.59375 6.671875 6.671875 5.59375 8 5.59375 Z M 8 5.59375 "/>
</g>
</svg>
