<?xml version="1.0" encoding="UTF-8"?>
<svg xmlns="http://www.w3.org/2000/svg" xmlns:xlink="http://www.w3.org/1999/xlink" width="16pt" height="16pt" viewBox="0 0 16 16" version="1.1">
<g id="surface1">
<path style=" stroke:none;fill-rule:evenodd;fill:rgb(30.196078%,30.196078%,30.196078%);fill-opacity:1;" d="M 3.734375 0.949219 L 12.265625 0.949219 C 13.800781 0.949219 15.050781 2.199219 15.050781 3.734375 L 15.050781 12.265625 C 15.050781 13.800781 13.800781 15.050781 12.265625 15.050781 L 3.734375 15.050781 C 2.199219 15.050781 0.949219 13.800781 0.949219 12.265625 L 0.949219 3.734375 C 0.949219 2.199219 2.199219 0.949219 3.734375 0.949219 Z M 3.734375 0.949219 "/>
<path style=" stroke:none;fill-rule:nonzero;fill:rgb(30.196078%,30.196078%,30.196078%);fill-opacity:1;" d="M 13.03125 12.402344 L 13.03125 10.066406 C 13.03125 9.816406 12.828125 9.617188 12.582031 9.617188 L 3.417969 9.617188 C 3.171875 9.617188 2.96875 9.816406 2.96875 10.066406 L 2.96875 12.402344 C 2.96875 12.652344 3.171875 12.851562 3.417969 12.851562 L 12.582031 12.851562 C 12.828125 12.851562 13.03125 12.652344 13.03125 12.402344 Z M 13.03125 12.402344 "/>
<path style="fill-rule:nonzero;fill:rgb(90.196078%,90.196078%,90.196078%);fill-opacity:1;stroke-width:1.436964;stroke-linecap:round;stroke-linejoin:miter;stroke:rgb(90.196078%,90.196078%,90.196078%);stroke-opacity:1;stroke-miterlimit:4;" d="M 13.125 21.390625 L 11.6875 23.546875 " transform="matrix(0.5,0,0,0.5,0,0)"/>
<path style="fill-rule:nonzero;fill:rgb(90.196078%,90.196078%,90.196078%);fill-opacity:1;stroke-width:1.436964;stroke-linecap:round;stroke-linejoin:miter;stroke:rgb(90.196078%,90.196078%,90.196078%);stroke-opacity:1;stroke-miterlimit:4;" d="M 10.96875 21.390625 L 9.53125 23.546875 " transform="matrix(0.5,0,0,0.5,0,0)"/>
<path style="fill-rule:nonzero;fill:rgb(90.196078%,90.196078%,90.196078%);fill-opacity:1;stroke-width:1.436964;stroke-linecap:round;stroke-linejoin:miter;stroke:rgb(90.196078%,90.196078%,90.196078%);stroke-opacity:1;stroke-miterlimit:4;" d="M 8.8125 21.390625 L 7.375 23.546875 " transform="matrix(0.5,0,0,0.5,0,0)"/>
<path style="fill-rule:nonzero;fill:rgb(90.196078%,90.196078%,90.196078%);fill-opacity:1;stroke-width:1.436964;stroke-linecap:round;stroke-linejoin:miter;stroke:rgb(90.196078%,90.196078%,90.196078%);stroke-opacity:1;stroke-miterlimit:4;" d="M 15.28125 21.390625 L 13.84375 23.546875 " transform="matrix(0.5,0,0,0.5,0,0)"/>
<path style=" stroke:none;fill-rule:nonzero;fill:rgb(46.27451%,100%,1.176471%);fill-opacity:1;" d="M 9.796875 11.328125 C 9.796875 11.625 9.554688 11.867188 9.257812 11.867188 C 8.960938 11.867188 8.71875 11.625 8.71875 11.328125 C 8.71875 11.03125 8.960938 10.789062 9.257812 10.789062 C 9.554688 10.789062 9.796875 11.03125 9.796875 11.328125 Z M 9.796875 11.328125 "/>
<path style=" stroke:none;fill-rule:nonzero;fill:rgb(100%,100%,0%);fill-opacity:1;" d="M 11.234375 11.328125 C 11.234375 11.625 10.992188 11.867188 10.695312 11.867188 C 10.398438 11.867188 10.15625 11.625 10.15625 11.328125 C 10.15625 11.03125 10.398438 10.789062 10.695312 10.789062 C 10.992188 10.789062 11.234375 11.03125 11.234375 11.328125 Z M 11.234375 11.328125 "/>
<path style=" stroke:none;fill-rule:nonzero;fill:rgb(100%,80.392157%,25.098039%);fill-opacity:1;" d="M 12.671875 11.328125 C 12.671875 11.625 12.429688 11.867188 12.132812 11.867188 C 11.835938 11.867188 11.59375 11.625 11.59375 11.328125 C 11.59375 11.03125 11.835938 10.789062 12.132812 10.789062 C 12.429688 10.789062 12.671875 11.03125 12.671875 11.328125 Z M 12.671875 11.328125 "/>
<path style=" stroke:none;fill-rule:nonzero;fill:rgb(30.196078%,30.196078%,30.196078%);fill-opacity:1;" d="M 13.03125 9.167969 L 13.03125 6.832031 C 13.03125 6.582031 12.828125 6.382812 12.582031 6.382812 L 3.417969 6.382812 C 3.171875 6.382812 2.96875 6.582031 2.96875 6.832031 L 2.96875 9.167969 C 2.96875 9.417969 3.171875 9.617188 3.417969 9.617188 L 12.582031 9.617188 C 12.828125 9.617188 13.03125 9.417969 13.03125 9.167969 Z M 13.03125 9.167969 "/>
<path style="fill-rule:nonzero;fill:rgb(90.196078%,90.196078%,90.196078%);fill-opacity:1;stroke-width:1.436964;stroke-linecap:round;stroke-linejoin:miter;stroke:rgb(90.196078%,90.196078%,90.196078%);stroke-opacity:1;stroke-miterlimit:4;" d="M 13.125 14.921875 L 11.6875 17.078125 " transform="matrix(0.5,0,0,0.5,0,0)"/>
<path style="fill-rule:nonzero;fill:rgb(90.196078%,90.196078%,90.196078%);fill-opacity:1;stroke-width:1.436964;stroke-linecap:round;stroke-linejoin:miter;stroke:rgb(90.196078%,90.196078%,90.196078%);stroke-opacity:1;stroke-miterlimit:4;" d="M 10.96875 14.921875 L 9.53125 17.078125 " transform="matrix(0.5,0,0,0.5,0,0)"/>
<path style="fill-rule:nonzero;fill:rgb(90.196078%,90.196078%,90.196078%);fill-opacity:1;stroke-width:1.436964;stroke-linecap:round;stroke-linejoin:miter;stroke:rgb(90.196078%,90.196078%,90.196078%);stroke-opacity:1;stroke-miterlimit:4;" d="M 8.8125 14.921875 L 7.375 17.078125 " transform="matrix(0.5,0,0,0.5,0,0)"/>
<path style="fill-rule:nonzero;fill:rgb(90.196078%,90.196078%,90.196078%);fill-opacity:1;stroke-width:1.436964;stroke-linecap:round;stroke-linejoin:miter;stroke:rgb(90.196078%,90.196078%,90.196078%);stroke-opacity:1;stroke-miterlimit:4;" d="M 15.28125 14.921875 L 13.84375 17.078125 " transform="matrix(0.5,0,0,0.5,0,0)"/>
<path style=" stroke:none;fill-rule:nonzero;fill:rgb(46.27451%,100%,1.176471%);fill-opacity:1;" d="M 9.796875 8.09375 C 9.796875 8.390625 9.554688 8.632812 9.257812 8.632812 C 8.960938 8.632812 8.71875 8.390625 8.71875 8.09375 C 8.71875 7.796875 8.960938 7.554688 9.257812 7.554688 C 9.554688 7.554688 9.796875 7.796875 9.796875 8.09375 Z M 9.796875 8.09375 "/>
<path style=" stroke:none;fill-rule:nonzero;fill:rgb(100%,100%,0%);fill-opacity:1;" d="M 11.234375 8.09375 C 11.234375 8.390625 10.992188 8.632812 10.695312 8.632812 C 10.398438 8.632812 10.15625 8.390625 10.15625 8.09375 C 10.15625 7.796875 10.398438 7.554688 10.695312 7.554688 C 10.992188 7.554688 11.234375 7.796875 11.234375 8.09375 Z M 11.234375 8.09375 "/>
<path style=" stroke:none;fill-rule:nonzero;fill:rgb(100%,80.392157%,25.098039%);fill-opacity:1;" d="M 12.671875 8.09375 C 12.671875 8.390625 12.429688 8.632812 12.132812 8.632812 C 11.835938 8.632812 11.59375 8.390625 11.59375 8.09375 C 11.59375 7.796875 11.835938 7.554688 12.132812 7.554688 C 12.429688 7.554688 12.671875 7.796875 12.671875 8.09375 Z M 12.671875 8.09375 "/>
<path style=" stroke:none;fill-rule:nonzero;fill:rgb(30.196078%,30.196078%,30.196078%);fill-opacity:1;" d="M 13.03125 5.933594 L 13.03125 3.597656 C 13.03125 3.347656 12.828125 3.148438 12.582031 3.148438 L 3.417969 3.148438 C 3.171875 3.148438 2.96875 3.347656 2.96875 3.597656 L 2.96875 5.933594 C 2.96875 6.183594 3.171875 6.382812 3.417969 6.382812 L 12.582031 6.382812 C 12.828125 6.382812 13.03125 6.183594 13.03125 5.933594 Z M 13.03125 5.933594 "/>
<path style="fill-rule:nonzero;fill:rgb(90.196078%,90.196078%,90.196078%);fill-opacity:1;stroke-width:1.436964;stroke-linecap:round;stroke-linejoin:miter;stroke:rgb(90.196078%,90.196078%,90.196078%);stroke-opacity:1;stroke-miterlimit:4;" d="M 13.125 8.453125 L 11.6875 10.609375 " transform="matrix(0.5,0,0,0.5,0,0)"/>
<path style="fill-rule:nonzero;fill:rgb(90.196078%,90.196078%,90.196078%);fill-opacity:1;stroke-width:1.436964;stroke-linecap:round;stroke-linejoin:miter;stroke:rgb(90.196078%,90.196078%,90.196078%);stroke-opacity:1;stroke-miterlimit:4;" d="M 10.96875 8.453125 L 9.53125 10.609375 " transform="matrix(0.5,0,0,0.5,0,0)"/>
<path style="fill-rule:nonzero;fill:rgb(90.196078%,90.196078%,90.196078%);fill-opacity:1;stroke-width:1.436964;stroke-linecap:round;stroke-linejoin:miter;stroke:rgb(90.196078%,90.196078%,90.196078%);stroke-opacity:1;stroke-miterlimit:4;" d="M 8.8125 8.453125 L 7.375 10.609375 " transform="matrix(0.5,0,0,0.5,0,0)"/>
<path style="fill-rule:nonzero;fill:rgb(90.196078%,90.196078%,90.196078%);fill-opacity:1;stroke-width:1.436964;stroke-linecap:round;stroke-linejoin:miter;stroke:rgb(90.196078%,90.196078%,90.196078%);stroke-opacity:1;stroke-miterlimit:4;" d="M 15.28125 8.453125 L 13.84375 10.609375 " transform="matrix(0.5,0,0,0.5,0,0)"/>
<path style=" stroke:none;fill-rule:nonzero;fill:rgb(46.27451%,100%,1.176471%);fill-opacity:1;" d="M 9.796875 4.859375 C 9.796875 5.15625 9.554688 5.398438 9.257812 5.398438 C 8.960938 5.398438 8.71875 5.15625 8.71875 4.859375 C 8.71875 4.5625 8.960938 4.320312 9.257812 4.320312 C 9.554688 4.320312 9.796875 4.5625 9.796875 4.859375 Z M 9.796875 4.859375 "/>
<path style=" stroke:none;fill-rule:nonzero;fill:rgb(100%,100%,0%);fill-opacity:1;" d="M 11.234375 4.859375 C 11.234375 5.15625 10.992188 5.398438 10.695312 5.398438 C 10.398438 5.398438 10.15625 5.15625 10.15625 4.859375 C 10.15625 4.5625 10.398438 4.320312 10.695312 4.320312 C 10.992188 4.320312 11.234375 4.5625 11.234375 4.859375 Z M 11.234375 4.859375 "/>
<path style=" stroke:none;fill-rule:nonzero;fill:rgb(100%,80.392157%,25.098039%);fill-opacity:1;" d="M 12.671875 4.859375 C 12.671875 5.15625 12.429688 5.398438 12.132812 5.398438 C 11.835938 5.398438 11.59375 5.15625 11.59375 4.859375 C 11.59375 4.5625 11.835938 4.320312 12.132812 4.320312 C 12.429688 4.320312 12.671875 4.5625 12.671875 4.859375 Z M 12.671875 4.859375 "/>
</g>
</svg>
