<?xml version="1.0" encoding="UTF-8"?>
<svg xmlns="http://www.w3.org/2000/svg" xmlns:xlink="http://www.w3.org/1999/xlink" width="16pt" height="16pt" viewBox="0 0 16 16" version="1.1">
<g id="surface1">
<path style=" stroke:none;fill-rule:evenodd;fill:rgb(55.686275%,55.686275%,55.686275%);fill-opacity:1;" d="M 3.734375 0.949219 C 2.191406 0.949219 0.949219 2.191406 0.949219 3.734375 L 0.949219 8.089844 L 15.050781 8.089844 L 15.050781 3.734375 C 15.050781 2.191406 13.808594 0.949219 12.265625 0.949219 Z M 3.734375 0.949219 "/>
<path style=" stroke:none;fill-rule:nonzero;fill:rgb(90.196078%,90.196078%,90.196078%);fill-opacity:1;" d="M 5.363281 3.292969 L 5.363281 8.5625 C 5.363281 8.875 5.109375 9.128906 4.796875 9.128906 C 4.484375 9.128906 4.234375 8.875 4.234375 8.5625 L 4.234375 3.292969 C 4.234375 2.980469 4.484375 2.726562 4.796875 2.726562 C 5.109375 2.726562 5.363281 2.980469 5.363281 3.292969 Z M 5.363281 3.292969 "/>
<path style=" stroke:none;fill-rule:evenodd;fill:rgb(30.196078%,30.196078%,30.196078%);fill-opacity:1;" d="M 15.050781 8.089844 L 0.949219 8.089844 L 0.949219 12.265625 C 0.949219 13.808594 2.191406 15.050781 3.734375 15.050781 L 12.265625 15.050781 C 13.808594 15.050781 15.050781 13.808594 15.050781 12.265625 Z M 15.050781 8.089844 "/>
<path style=" stroke:none;fill-rule:nonzero;fill:rgb(75.294118%,97.647059%,34.117647%);fill-opacity:1;" d="M 12.144531 10.636719 C 12.144531 11.261719 11.636719 11.765625 11.015625 11.765625 C 10.390625 11.765625 9.882812 11.261719 9.882812 10.636719 C 9.882812 10.011719 10.390625 9.507812 11.015625 9.507812 C 11.636719 9.507812 12.144531 10.011719 12.144531 10.636719 Z M 12.144531 10.636719 "/>
<path style=" stroke:none;fill-rule:nonzero;fill:rgb(56.862745%,68.627451%,35.686275%);fill-opacity:1;" d="M 9.128906 10.636719 C 9.128906 11.261719 8.625 11.765625 8 11.765625 C 7.375 11.765625 6.871094 11.261719 6.871094 10.636719 C 6.871094 10.011719 7.375 9.507812 8 9.507812 C 8.625 9.507812 9.128906 10.011719 9.128906 10.636719 Z M 9.128906 10.636719 "/>
</g>
</svg>
