<?xml version="1.0" encoding="UTF-8"?>
<svg xmlns="http://www.w3.org/2000/svg" xmlns:xlink="http://www.w3.org/1999/xlink" width="16pt" height="16pt" viewBox="0 0 16 16" version="1.1">
<g id="surface1">
<path style=" stroke:none;fill-rule:evenodd;fill:rgb(55.686275%,55.686275%,55.686275%);fill-opacity:1;" d="M 3.734375 0.949219 L 12.265625 0.949219 C 13.800781 0.949219 15.050781 2.199219 15.050781 3.734375 L 15.050781 12.265625 C 15.050781 13.800781 13.800781 15.050781 12.265625 15.050781 L 3.734375 15.050781 C 2.199219 15.050781 0.949219 13.800781 0.949219 12.265625 L 0.949219 3.734375 C 0.949219 2.199219 2.199219 0.949219 3.734375 0.949219 Z M 3.734375 0.949219 "/>
<path style=" stroke:none;fill-rule:nonzero;fill:rgb(27.843137%,27.843137%,27.843137%);fill-opacity:1;" d="M 5.882812 12.613281 L 4.828125 11.558594 L 2.710938 11.558594 L 2.710938 4.152344 L 13.289062 4.152344 L 13.289062 11.558594 L 11.171875 11.558594 L 10.117188 12.613281 Z M 5.882812 12.613281 "/>
<path style=" stroke:none;fill-rule:nonzero;fill:rgb(97.254902%,76.862745%,30.588235%);fill-opacity:1;" d="M 4.296875 5.210938 L 5.355469 5.210938 L 5.355469 4.152344 L 4.296875 4.152344 Z M 4.296875 5.210938 "/>
<path style=" stroke:none;fill-rule:nonzero;fill:rgb(97.254902%,76.862745%,30.588235%);fill-opacity:1;" d="M 5.882812 5.210938 L 6.941406 5.210938 L 6.941406 4.152344 L 5.882812 4.152344 Z M 5.882812 5.210938 "/>
<path style=" stroke:none;fill-rule:nonzero;fill:rgb(97.254902%,76.862745%,30.588235%);fill-opacity:1;" d="M 7.46875 5.210938 L 8.53125 5.210938 L 8.53125 4.152344 L 7.46875 4.152344 Z M 7.46875 5.210938 "/>
<path style=" stroke:none;fill-rule:nonzero;fill:rgb(97.254902%,76.862745%,30.588235%);fill-opacity:1;" d="M 9.058594 5.210938 L 10.117188 5.210938 L 10.117188 4.152344 L 9.058594 4.152344 Z M 9.058594 5.210938 "/>
<path style=" stroke:none;fill-rule:nonzero;fill:rgb(97.254902%,76.862745%,30.588235%);fill-opacity:1;" d="M 10.644531 5.210938 L 11.703125 5.210938 L 11.703125 4.152344 L 10.644531 4.152344 Z M 10.644531 5.210938 "/>
</g>
</svg>
