<?xml version="1.0" encoding="UTF-8"?>
<svg xmlns="http://www.w3.org/2000/svg" xmlns:xlink="http://www.w3.org/1999/xlink" width="16pt" height="16pt" viewBox="0 0 16 16" version="1.1">
<g id="surface1">
<path style=" stroke:none;fill-rule:evenodd;fill:rgb(55.686275%,55.686275%,55.686275%);fill-opacity:1;" d="M 3.734375 0.949219 L 12.265625 0.949219 C 13.800781 0.949219 15.050781 2.199219 15.050781 3.734375 L 15.050781 12.265625 C 15.050781 13.800781 13.800781 15.050781 12.265625 15.050781 L 3.734375 15.050781 C 2.199219 15.050781 0.949219 13.800781 0.949219 12.265625 L 0.949219 3.734375 C 0.949219 2.199219 2.199219 0.949219 3.734375 0.949219 Z M 3.734375 0.949219 "/>
<path style=" stroke:none;fill-rule:nonzero;fill:rgb(30.196078%,30.196078%,30.196078%);fill-opacity:1;" d="M 3.914062 2.558594 L 12.085938 2.558594 C 12.5 2.558594 12.828125 2.929688 12.828125 3.386719 L 12.828125 12.5 C 12.828125 12.957031 12.5 13.328125 12.085938 13.328125 L 3.914062 13.328125 C 3.5 13.328125 3.171875 12.957031 3.171875 12.5 L 3.171875 3.386719 C 3.171875 2.929688 3.5 2.558594 3.914062 2.558594 Z M 3.914062 2.558594 "/>
<path style=" stroke:none;fill-rule:nonzero;fill:rgb(30.196078%,30.196078%,30.196078%);fill-opacity:1;" d="M 6.339844 1.621094 L 9.71875 1.621094 C 9.851562 1.621094 9.960938 1.730469 9.960938 1.863281 C 9.960938 1.996094 9.851562 2.105469 9.71875 2.105469 L 6.339844 2.105469 C 6.203125 2.105469 6.09375 1.996094 6.09375 1.863281 C 6.09375 1.730469 6.203125 1.621094 6.339844 1.621094 Z M 6.339844 1.621094 "/>
<path style=" stroke:none;fill-rule:nonzero;fill:rgb(30.196078%,30.196078%,30.196078%);fill-opacity:1;" d="M 8.484375 14.09375 C 8.484375 14.359375 8.265625 14.578125 8 14.578125 C 7.734375 14.578125 7.515625 14.359375 7.515625 14.09375 C 7.515625 13.828125 7.734375 13.609375 8 13.609375 C 8.265625 13.609375 8.484375 13.828125 8.484375 14.09375 Z M 8.484375 14.09375 "/>
</g>
</svg>
