<?xml version="1.0" encoding="UTF-8"?>
<svg xmlns="http://www.w3.org/2000/svg" xmlns:xlink="http://www.w3.org/1999/xlink" width="36pt" height="36pt" viewBox="0 0 36 36" version="1.1">
<g id="surface1">
<path style=" stroke:none;fill-rule:evenodd;fill:rgb(32.156863%,58.039216%,88.627451%);fill-opacity:1;" d="M 8.40625 2.136719 L 27.59375 2.136719 C 31.054688 2.136719 33.863281 4.945312 33.863281 8.40625 L 33.863281 27.59375 C 33.863281 31.054688 31.054688 33.863281 27.59375 33.863281 L 8.40625 33.863281 C 4.945312 33.863281 2.136719 31.054688 2.136719 27.59375 L 2.136719 8.40625 C 2.136719 4.945312 4.945312 2.136719 8.40625 2.136719 Z M 8.40625 2.136719 "/>
<path style=" stroke:none;fill-rule:nonzero;fill:rgb(100%,100%,100%);fill-opacity:1;" d="M 18 7.890625 C 20.519531 7.890625 22.5625 10.035156 22.5625 12.679688 C 22.5625 15.324219 20.519531 17.46875 18 17.46875 C 15.480469 17.46875 13.4375 15.324219 13.4375 12.679688 C 13.4375 10.035156 15.480469 7.890625 18 7.890625 Z M 18 7.890625 "/>
<path style=" stroke:none;fill-rule:nonzero;fill:rgb(100%,100%,100%);fill-opacity:1;" d="M 18 20.128906 C 27.121094 20.125 27.121094 26.511719 27.121094 26.511719 L 27.121094 28.109375 L 8.878906 28.109375 L 8.878906 26.511719 C 8.878906 26.511719 8.878906 20.132812 18 20.128906 Z M 18 20.128906 "/>
</g>
</svg>
