<?xml version="1.0" encoding="UTF-8"?>
<svg xmlns="http://www.w3.org/2000/svg" xmlns:xlink="http://www.w3.org/1999/xlink" width="36pt" height="36pt" viewBox="0 0 36 36" version="1.1">
<g id="surface1">
<path style=" stroke:none;fill-rule:evenodd;fill:rgb(100%,83.137255%,32.54902%);fill-opacity:1;" d="M 8.40625 2.136719 L 27.59375 2.136719 C 31.054688 2.136719 33.863281 4.945312 33.863281 8.40625 L 33.863281 27.59375 C 33.863281 31.054688 31.054688 33.863281 27.59375 33.863281 L 8.40625 33.863281 C 4.945312 33.863281 2.136719 31.054688 2.136719 27.59375 L 2.136719 8.40625 C 2.136719 4.945312 4.945312 2.136719 8.40625 2.136719 Z M 8.40625 2.136719 "/>
<path style=" stroke:none;fill-rule:nonzero;fill:rgb(100%,100%,100%);fill-opacity:1;" d="M 18 9.296875 C 17.429688 9.296875 16.859375 9.527344 16.511719 9.976562 C 16.167969 10.425781 16.046875 10.996094 16.046875 11.644531 C 16.046875 12.0625 16.070312 12.527344 16.117188 13.050781 L 16.117188 13.039062 L 16.8125 21.675781 L 19.1875 21.675781 L 19.878906 13.039062 C 19.925781 12.382812 19.953125 11.941406 19.953125 11.644531 C 19.953125 11.007812 19.832031 10.4375 19.488281 9.988281 C 19.144531 9.539062 18.574219 9.296875 18 9.296875 Z M 18 22.703125 C 16.914062 22.703125 16 23.59375 16 24.703125 C 16 25.8125 16.914062 26.703125 18 26.703125 C 19.109375 26.703125 20 25.785156 20 24.703125 C 20 23.605469 19.09375 22.703125 18 22.703125 Z M 18 22.703125 "/>
</g>
</svg>
