<?xml version="1.0" encoding="UTF-8"?>
<svg xmlns="http://www.w3.org/2000/svg" xmlns:xlink="http://www.w3.org/1999/xlink" width="36pt" height="36pt" viewBox="0 0 36 36" version="1.1">
<g id="surface1">
<path style=" stroke:none;fill-rule:evenodd;fill:rgb(85.882353%,23.529412%,18.823529%);fill-opacity:1;" d="M 8.40625 2.136719 L 27.59375 2.136719 C 31.054688 2.136719 33.863281 4.945312 33.863281 8.40625 L 33.863281 27.59375 C 33.863281 31.054688 31.054688 33.863281 27.59375 33.863281 L 8.40625 33.863281 C 4.945312 33.863281 2.136719 31.054688 2.136719 27.59375 L 2.136719 8.40625 C 2.136719 4.945312 4.945312 2.136719 8.40625 2.136719 Z M 8.40625 2.136719 "/>
<path style=" stroke:none;fill-rule:nonzero;fill:rgb(100%,100%,100%);fill-opacity:1;" d="M 19.503906 12.253906 C 19.5625 11.507812 19.59375 11.003906 19.59375 10.710938 C 19.59375 9.460938 19.042969 8.796875 18 8.796875 C 16.957031 8.796875 16.40625 9.433594 16.40625 10.710938 C 16.40625 11.164062 16.4375 11.667969 16.496094 12.253906 L 17.304688 22.417969 L 18.695312 22.417969 Z M 18 24.171875 C 17.101562 24.171875 16.351562 24.835938 16.351562 25.6875 C 16.351562 26.539062 17.101562 27.203125 18 27.203125 C 18.925781 27.203125 19.648438 26.511719 19.648438 25.6875 C 19.648438 24.835938 18.925781 24.171875 18 24.171875 Z M 18 24.171875 "/>
</g>
</svg>
