<?xml version="1.0" encoding="UTF-8"?>
<svg xmlns="http://www.w3.org/2000/svg" xmlns:xlink="http://www.w3.org/1999/xlink" width="36pt" height="36pt" viewBox="0 0 36 36" version="1.1">
<g id="surface1">
<path style=" stroke:none;fill-rule:evenodd;fill:rgb(55.686275%,55.686275%,55.686275%);fill-opacity:1;" d="M 8.40625 2.136719 L 27.59375 2.136719 C 31.054688 2.136719 33.863281 4.945312 33.863281 8.40625 L 33.863281 27.59375 C 33.863281 31.054688 31.054688 33.863281 27.59375 33.863281 L 8.40625 33.863281 C 4.945312 33.863281 2.136719 31.054688 2.136719 27.59375 L 2.136719 8.40625 C 2.136719 4.945312 4.945312 2.136719 8.40625 2.136719 Z M 8.40625 2.136719 "/>
<path style=" stroke:none;fill-rule:nonzero;fill:rgb(30.196078%,30.196078%,30.196078%);fill-opacity:1;" d="M 7.761719 8.488281 L 28.238281 8.488281 C 29.773438 8.488281 31.019531 9.734375 31.019531 11.273438 L 31.019531 24.726562 C 31.019531 26.265625 29.773438 27.511719 28.238281 27.511719 L 7.761719 27.511719 C 6.226562 27.511719 4.980469 26.265625 4.980469 24.726562 L 4.980469 11.273438 C 4.980469 9.734375 6.226562 8.488281 7.761719 8.488281 Z M 7.761719 8.488281 "/>
<path style=" stroke:none;fill-rule:nonzero;fill:rgb(85.882353%,23.529412%,18.823529%);fill-opacity:1;" d="M 31.796875 25.914062 C 31.796875 29.023438 29.277344 31.539062 26.171875 31.539062 C 23.0625 31.539062 20.546875 29.023438 20.546875 25.914062 C 20.546875 22.808594 23.0625 20.289062 26.171875 20.289062 C 29.277344 20.289062 31.796875 22.808594 31.796875 25.914062 Z M 31.796875 25.914062 "/>
<path style=" stroke:none;fill-rule:nonzero;fill:rgb(100%,100%,100%);fill-opacity:1;" d="M 23.328125 27.621094 L 27.875 23.074219 L 29.011719 24.210938 L 24.464844 28.757812 Z M 23.328125 27.621094 "/>
<path style=" stroke:none;fill-rule:nonzero;fill:rgb(100%,100%,100%);fill-opacity:1;" d="M 24.464844 23.074219 L 29.011719 27.621094 L 27.875 28.757812 L 23.328125 24.210938 Z M 24.464844 23.074219 "/>
</g>
</svg>
