<?xml version="1.0" encoding="UTF-8"?>
<svg xmlns="http://www.w3.org/2000/svg" xmlns:xlink="http://www.w3.org/1999/xlink" width="36pt" height="36pt" viewBox="0 0 36 36" version="1.1">
<g id="surface1">
<path style=" stroke:none;fill-rule:evenodd;fill:rgb(72.941176%,25.882353%,25.882353%);fill-opacity:1;" d="M 8.40625 2.136719 L 27.59375 2.136719 C 31.054688 2.136719 33.863281 4.945312 33.863281 8.40625 L 33.863281 27.59375 C 33.863281 31.054688 31.054688 33.863281 27.59375 33.863281 L 8.40625 33.863281 C 4.945312 33.863281 2.136719 31.054688 2.136719 27.59375 L 2.136719 8.40625 C 2.136719 4.945312 4.945312 2.136719 8.40625 2.136719 Z M 8.40625 2.136719 "/>
<path style=" stroke:none;fill-rule:nonzero;fill:rgb(100%,100%,100%);fill-opacity:1;" d="M 14.859375 7.015625 L 14.859375 7.796875 L 8.929688 7.796875 C 8.304688 7.796875 7.796875 8.324219 7.796875 8.976562 L 7.796875 11.328125 C 7.796875 11.980469 8.304688 12.507812 8.929688 12.507812 L 9.367188 12.507812 L 9.367188 27.785156 C 9.367188 28.449219 9.882812 28.984375 10.519531 28.984375 L 25.480469 28.984375 C 26.117188 28.984375 26.632812 28.449219 26.632812 27.785156 L 26.632812 12.507812 L 27.070312 12.507812 C 27.695312 12.507812 28.203125 11.980469 28.203125 11.328125 L 28.203125 8.976562 C 28.203125 8.324219 27.695312 7.796875 27.070312 7.796875 L 21.140625 7.796875 L 21.140625 7.015625 Z M 12.507812 15.644531 L 14.078125 15.644531 C 14.511719 15.644531 14.859375 15.890625 14.859375 16.195312 L 14.859375 26.082031 C 14.859375 26.386719 14.511719 26.632812 14.078125 26.632812 L 12.507812 26.632812 C 12.074219 26.632812 11.722656 26.386719 11.722656 26.082031 L 11.722656 16.195312 C 11.722656 15.890625 12.074219 15.644531 12.507812 15.644531 Z M 17.214844 15.644531 L 18.785156 15.644531 C 19.21875 15.644531 19.570312 15.890625 19.570312 16.195312 L 19.570312 26.082031 C 19.570312 26.386719 19.21875 26.632812 18.785156 26.632812 L 17.214844 26.632812 C 16.78125 26.632812 16.429688 26.386719 16.429688 26.082031 L 16.429688 16.195312 C 16.429688 15.890625 16.78125 15.644531 17.214844 15.644531 Z M 21.921875 15.644531 L 23.492188 15.644531 C 23.925781 15.644531 24.277344 15.890625 24.277344 16.195312 L 24.277344 26.082031 C 24.277344 26.386719 23.925781 26.632812 23.492188 26.632812 L 21.921875 26.632812 C 21.488281 26.632812 21.140625 26.386719 21.140625 26.082031 L 21.140625 16.195312 C 21.140625 15.890625 21.488281 15.644531 21.921875 15.644531 Z M 21.921875 15.644531 "/>
</g>
</svg>
