<svg xmlns="http://www.w3.org/2000/svg" viewBox="0 0 32 32"><defs><linearGradient gradientTransform="matrix(-2.65552 0 0 2.58531 193.77-277.73)" id="0" x1="67.894" y1="108.69" x2="67.854" y2="113.11" gradientUnits="userSpaceOnUse"><stop stop-color="#f9f9f9"/><stop offset="1" stop-color="#999"/></linearGradient></defs><g transform="translate(54.37-1.085)"><rect y="2.983" x="-52.47" height="28.2" width="28.2" fill="#666" fill-rule="evenodd" rx="5.575"/><g transform="translate(3.525-1.991)"><g transform="matrix(.3975 0 0 .3975-107.28-85.17)"><g transform="translate(0 76)"><path d="m156 165.03l-4.97 4.97h-7.03v7.03l-4.97 4.97 4.97 4.97v7.03h7.03l4.97 4.97 4.97-4.97h7.03v-7.03l4.97-4.97-4.97-4.97v-7.03h-7.03z" fill="#fec006"/><path d="m149.51 166.32l-2.691 6.494-6.494 2.691 2.69 6.494-2.69 6.494 6.494 2.691 2.691 6.494 6.494-2.69 6.494 2.69 2.691-6.494 6.494-2.691-2.69-6.494 2.69-6.494-6.494-2.691-2.691-6.494-6.494 2.69z" fill="#fecd38"/></g><rect x="-268" y="-168" width="24" height="24" rx="12" transform="matrix(0-1.1667-1.1667 0-26-40.667)" fill="#fed96a"/></g><path d="m-41.898 14.02c-2.619 0-4.85 1.555-5.81 3.756-2.438.351-4.308 2.367-4.308 4.829 0 2.71 2.265 4.906 5.059 4.906h10.752c2.445 0 4.427-1.922 4.427-4.293 0-2.203-1.709-4.01-3.913-4.254-.575-2.813-3.136-4.945-6.206-4.945" fill="#d8d8d8" stroke-width=".675"/></g></g>

   xmlns:dc="http://purl.org/dc/elements/1.1/"
   xmlns:cc="http://creativecommons.org/ns#"
   xmlns:rdf="http://www.w3.org/1999/02/22-rdf-syntax-ns#"
   xmlns:svg="http://www.w3.org/2000/svg"
   xmlns="http://www.w3.org/2000/svg"
   xmlns:xlink="http://www.w3.org/1999/xlink"
   xmlns:sodipodi="http://sodipodi.sourceforge.net/DTD/sodipodi-0.dtd"
   xmlns:inkscape="http://www.inkscape.org/namespaces/inkscape"
   version="1"
   width="32"
   height="32"
   id="svg12"
   sodipodi:docname="snow-top-3.svg"
   inkscape:version="0.92.1 r"&gt;
  <path d="m24.627.009c8.36-.339 9.455 9.523 4.064 9.505-.686.003-1.62-.197-3-1.471-14.665-10.216-14.549 2.967-17.708.875-1.727-1.822-1.743 4.653-4.139 5.127-2.122.613-3.699-1.385-3.824-4.503-.366-8.627 4.086-9.427 7.187-9.524 5.974.133 11.562-.045 17.419-.01" fill="url(#0)"/></svg>