<?xml version="1.0" encoding="UTF-8"?>
<svg xmlns="http://www.w3.org/2000/svg" xmlns:xlink="http://www.w3.org/1999/xlink" width="16pt" height="16pt" viewBox="0 0 16 16" version="1.1">
<g id="surface1">
<path style=" stroke:none;fill-rule:evenodd;fill:rgb(18.823529%,63.921569%,85.882353%);fill-opacity:1;" d="M 3.734375 0.949219 L 12.265625 0.949219 C 13.800781 0.949219 15.050781 2.199219 15.050781 3.734375 L 15.050781 12.265625 C 15.050781 13.800781 13.800781 15.050781 12.265625 15.050781 L 3.734375 15.050781 C 2.199219 15.050781 0.949219 13.800781 0.949219 12.265625 L 0.949219 3.734375 C 0.949219 2.199219 2.199219 0.949219 3.734375 0.949219 Z M 3.734375 0.949219 "/>
<path style=" stroke:none;fill-rule:nonzero;fill:rgb(100%,100%,100%);fill-opacity:1;" d="M 6.597656 6.570312 L 6.597656 6.871094 L 7.050781 6.925781 C 7.363281 6.972656 7.4375 7.035156 7.4375 7.464844 L 7.4375 11.246094 C 7.4375 11.855469 7.40625 11.875 6.535156 11.9375 L 6.535156 12.285156 L 9.460938 12.285156 L 9.460938 11.9375 C 8.613281 11.875 8.5625 11.855469 8.5625 11.246094 L 8.5625 6.339844 L 8.480469 6.273438 Z M 7.988281 3.714844 C 7.558594 3.714844 7.257812 4.027344 7.257812 4.460938 C 7.257812 4.875 7.558594 5.175781 7.988281 5.175781 C 8.433594 5.175781 8.710938 4.875 8.71875 4.460938 C 8.71875 4.027344 8.433594 3.714844 7.988281 3.714844 Z M 7.988281 3.714844 "/>
<path style=" stroke:none;fill-rule:evenodd;fill:rgb(18.823529%,63.921569%,85.882353%);fill-opacity:1;" d="M 3.734375 0.949219 L 12.265625 0.949219 C 13.800781 0.949219 15.050781 2.199219 15.050781 3.734375 L 15.050781 12.265625 C 15.050781 13.800781 13.800781 15.050781 12.265625 15.050781 L 3.734375 15.050781 C 2.199219 15.050781 0.949219 13.800781 0.949219 12.265625 L 0.949219 3.734375 C 0.949219 2.199219 2.199219 0.949219 3.734375 0.949219 Z M 3.734375 0.949219 "/>
<path style=" stroke:none;fill-rule:nonzero;fill:rgb(100%,100%,100%);fill-opacity:1;" d="M 6.597656 6.566406 L 6.597656 6.867188 L 7.054688 6.925781 C 7.363281 6.976562 7.4375 7.035156 7.4375 7.46875 L 7.4375 11.242188 C 7.4375 11.855469 7.402344 11.878906 6.539062 11.9375 L 6.539062 12.285156 L 9.460938 12.285156 L 9.460938 11.9375 C 8.609375 11.878906 8.5625 11.855469 8.5625 11.242188 L 8.5625 6.339844 L 8.480469 6.265625 Z M 7.988281 3.714844 C 7.558594 3.714844 7.257812 4.027344 7.257812 4.457031 C 7.257812 4.875 7.558594 5.175781 7.988281 5.175781 C 8.433594 5.175781 8.707031 4.875 8.71875 4.457031 C 8.71875 4.027344 8.433594 3.714844 7.988281 3.714844 Z M 7.988281 3.714844 "/>
</g>
</svg>
