<?xml version="1.0" encoding="UTF-8"?>
<svg xmlns="http://www.w3.org/2000/svg" xmlns:xlink="http://www.w3.org/1999/xlink" width="16pt" height="16pt" viewBox="0 0 16 16" version="1.1">
<g id="surface1">
<path style=" stroke:none;fill-rule:evenodd;fill:rgb(55.686275%,55.686275%,55.686275%);fill-opacity:1;" d="M 3.734375 0.949219 L 12.265625 0.949219 C 13.800781 0.949219 15.050781 2.199219 15.050781 3.734375 L 15.050781 12.265625 C 15.050781 13.800781 13.800781 15.050781 12.265625 15.050781 L 3.734375 15.050781 C 2.199219 15.050781 0.949219 13.800781 0.949219 12.265625 L 0.949219 3.734375 C 0.949219 2.199219 2.199219 0.949219 3.734375 0.949219 Z M 3.734375 0.949219 "/>
<path style=" stroke:none;fill-rule:nonzero;fill:rgb(40%,40%,40%);fill-opacity:1;" d="M 3.351562 3.871094 L 12.648438 3.871094 C 13.277344 3.871094 13.785156 4.378906 13.785156 5.007812 L 13.785156 10.511719 C 13.785156 11.140625 13.277344 11.652344 12.648438 11.652344 L 3.351562 11.652344 C 2.722656 11.652344 2.214844 11.140625 2.214844 10.511719 L 2.214844 5.007812 C 2.214844 4.378906 2.722656 3.871094 3.351562 3.871094 Z M 3.351562 3.871094 "/>
<path style=" stroke:none;fill-rule:nonzero;fill:rgb(40%,40%,40%);fill-opacity:1;" d="M 2.742188 11.96875 L 13.257812 11.96875 C 13.550781 11.96875 13.785156 12.203125 13.785156 12.496094 C 13.785156 12.789062 13.550781 13.027344 13.257812 13.027344 L 2.742188 13.027344 C 2.449219 13.027344 2.214844 12.789062 2.214844 12.496094 C 2.214844 12.203125 2.449219 11.96875 2.742188 11.96875 Z M 2.742188 11.96875 "/>
<path style=" stroke:none;fill-rule:nonzero;fill:rgb(64.313725%,79.215686%,22.352941%);fill-opacity:1;" d="M 7.035156 4.9375 C 7.023438 4.933594 7.011719 4.9375 7 4.945312 C 6.976562 4.957031 6.972656 4.992188 6.988281 5.015625 L 7.273438 5.417969 C 6.824219 5.625 6.507812 6.105469 6.464844 6.558594 L 9.535156 6.558594 C 9.492188 6.105469 9.179688 5.625 8.730469 5.417969 L 9.011719 5.015625 C 9.03125 4.992188 9.023438 4.960938 9 4.945312 C 8.980469 4.929688 8.949219 4.9375 8.933594 4.960938 L 8.636719 5.378906 C 8.441406 5.304688 8.226562 5.261719 8 5.261719 C 7.773438 5.261719 7.558594 5.304688 7.363281 5.378906 L 7.070312 4.960938 C 7.0625 4.949219 7.046875 4.941406 7.035156 4.9375 Z M 7.355469 5.8125 C 7.449219 5.8125 7.523438 5.886719 7.523438 5.976562 C 7.523438 6.066406 7.445312 6.140625 7.355469 6.140625 C 7.257812 6.140625 7.183594 6.070312 7.183594 5.976562 C 7.183594 5.886719 7.261719 5.8125 7.355469 5.8125 Z M 8.667969 5.8125 C 8.761719 5.8125 8.839844 5.886719 8.839844 5.976562 C 8.839844 6.066406 8.761719 6.140625 8.667969 6.140625 C 8.574219 6.140625 8.5 6.070312 8.5 5.976562 C 8.5 5.886719 8.574219 5.8125 8.667969 5.8125 Z M 6.46875 7 L 6.46875 9.101562 C 6.46875 9.25 6.535156 9.40625 6.6875 9.40625 L 7.34375 9.40625 L 7.34375 10.148438 C 7.34375 10.34375 7.34375 10.503906 7.5625 10.503906 C 7.78125 10.503906 7.78125 10.34375 7.78125 10.148438 L 7.78125 9.40625 L 8.21875 9.40625 L 8.21875 10.148438 C 8.21875 10.34375 8.203125 10.503906 8.4375 10.503906 C 8.65625 10.503906 8.65625 10.394531 8.65625 10.148438 L 8.65625 9.40625 L 9.316406 9.40625 C 9.464844 9.40625 9.535156 9.25 9.535156 9.101562 L 9.535156 7 Z M 5.816406 7 C 5.589844 7 5.589844 7.164062 5.589844 7.367188 L 5.589844 8.378906 C 5.589844 8.585938 5.589844 8.75 5.816406 8.75 C 6.027344 8.75 6.027344 8.585938 6.027344 8.378906 L 6.027344 7.367188 C 6.027344 7.164062 6.027344 7 5.816406 7 Z M 10.183594 7 C 9.972656 7 9.972656 7.164062 9.972656 7.367188 L 9.972656 8.378906 C 9.972656 8.585938 9.972656 8.75 10.183594 8.75 C 10.410156 8.75 10.410156 8.585938 10.410156 8.378906 L 10.410156 7.367188 C 10.410156 7.164062 10.410156 7 10.183594 7 Z M 10.183594 7 "/>
</g>
</svg>
