<?xml version="1.0" encoding="UTF-8"?>
<svg xmlns="http://www.w3.org/2000/svg" xmlns:xlink="http://www.w3.org/1999/xlink" width="16pt" height="16pt" viewBox="0 0 16 16" version="1.1">
<g id="surface1">
<path style=" stroke:none;fill-rule:evenodd;fill:rgb(55.686275%,55.686275%,55.686275%);fill-opacity:1;" d="M 3.734375 0.949219 L 12.265625 0.949219 C 13.800781 0.949219 15.050781 2.199219 15.050781 3.734375 L 15.050781 12.265625 C 15.050781 13.800781 13.800781 15.050781 12.265625 15.050781 L 3.734375 15.050781 C 2.199219 15.050781 0.949219 13.800781 0.949219 12.265625 L 0.949219 3.734375 C 0.949219 2.199219 2.199219 0.949219 3.734375 0.949219 Z M 3.734375 0.949219 "/>
<path style=" stroke:none;fill-rule:nonzero;fill:rgb(40%,40%,40%);fill-opacity:1;" d="M 3.351562 3.703125 L 12.648438 3.703125 C 13.277344 3.703125 13.785156 4.210938 13.785156 4.839844 L 13.785156 10.34375 C 13.785156 10.972656 13.277344 11.484375 12.648438 11.484375 L 3.351562 11.484375 C 2.722656 11.484375 2.214844 10.972656 2.214844 10.34375 L 2.214844 4.839844 C 2.214844 4.210938 2.722656 3.703125 3.351562 3.703125 Z M 3.351562 3.703125 "/>
<path style=" stroke:none;fill-rule:nonzero;fill:rgb(40%,40%,40%);fill-opacity:1;" d="M 2.742188 11.800781 L 13.257812 11.800781 C 13.550781 11.800781 13.785156 12.035156 13.785156 12.328125 C 13.785156 12.621094 13.550781 12.859375 13.257812 12.859375 L 2.742188 12.859375 C 2.449219 12.859375 2.214844 12.621094 2.214844 12.328125 C 2.214844 12.035156 2.449219 11.800781 2.742188 11.800781 Z M 2.742188 11.800781 "/>
<path style=" stroke:none;fill-rule:nonzero;fill:rgb(85.882353%,23.529412%,18.823529%);fill-opacity:1;" d="M 14.078125 11.078125 C 14.078125 12.734375 12.734375 14.078125 11.078125 14.078125 C 9.421875 14.078125 8.078125 12.734375 8.078125 11.078125 C 8.078125 9.421875 9.421875 8.078125 11.078125 8.078125 C 12.734375 8.078125 14.078125 9.421875 14.078125 11.078125 Z M 14.078125 11.078125 "/>
<path style=" stroke:none;fill-rule:nonzero;fill:rgb(100%,100%,100%);fill-opacity:1;" d="M 9.5625 11.984375 L 11.984375 9.5625 L 12.59375 10.167969 L 10.167969 12.59375 Z M 9.5625 11.984375 "/>
<path style=" stroke:none;fill-rule:nonzero;fill:rgb(100%,100%,100%);fill-opacity:1;" d="M 10.167969 9.5625 L 12.59375 11.984375 L 11.984375 12.59375 L 9.5625 10.167969 Z M 10.167969 9.5625 "/>
</g>
</svg>
