<?xml version="1.0" encoding="UTF-8"?>
<svg xmlns="http://www.w3.org/2000/svg" xmlns:xlink="http://www.w3.org/1999/xlink" width="16pt" height="16pt" viewBox="0 0 16 16" version="1.1">
<g id="surface1">
<path style=" stroke:none;fill-rule:evenodd;fill:rgb(72.941176%,25.882353%,25.882353%);fill-opacity:1;" d="M 3.734375 0.949219 L 12.265625 0.949219 C 13.800781 0.949219 15.050781 2.199219 15.050781 3.734375 L 15.050781 12.265625 C 15.050781 13.800781 13.800781 15.050781 12.265625 15.050781 L 3.734375 15.050781 C 2.199219 15.050781 0.949219 13.800781 0.949219 12.265625 L 0.949219 3.734375 C 0.949219 2.199219 2.199219 0.949219 3.734375 0.949219 Z M 3.734375 0.949219 "/>
<path style=" stroke:none;fill-rule:nonzero;fill:rgb(100%,100%,100%);fill-opacity:1;" d="M 6.605469 3.117188 L 6.605469 3.464844 L 3.96875 3.464844 C 3.691406 3.464844 3.464844 3.699219 3.464844 3.988281 L 3.464844 5.035156 C 3.464844 5.324219 3.691406 5.558594 3.96875 5.558594 L 4.164062 5.558594 L 4.164062 12.347656 C 4.164062 12.644531 4.390625 12.882812 4.675781 12.882812 L 11.324219 12.882812 C 11.609375 12.882812 11.835938 12.644531 11.835938 12.347656 L 11.835938 5.558594 L 12.03125 5.558594 C 12.308594 5.558594 12.535156 5.324219 12.535156 5.035156 L 12.535156 3.988281 C 12.535156 3.699219 12.308594 3.464844 12.03125 3.464844 L 9.394531 3.464844 L 9.394531 3.117188 Z M 5.558594 6.953125 L 6.257812 6.953125 C 6.449219 6.953125 6.605469 7.0625 6.605469 7.199219 L 6.605469 11.59375 C 6.605469 11.726562 6.449219 11.835938 6.257812 11.835938 L 5.558594 11.835938 C 5.367188 11.835938 5.210938 11.726562 5.210938 11.59375 L 5.210938 7.199219 C 5.210938 7.0625 5.367188 6.953125 5.558594 6.953125 Z M 7.652344 6.953125 L 8.347656 6.953125 C 8.542969 6.953125 8.699219 7.0625 8.699219 7.199219 L 8.699219 11.59375 C 8.699219 11.726562 8.542969 11.835938 8.347656 11.835938 L 7.652344 11.835938 C 7.457031 11.835938 7.300781 11.726562 7.300781 11.59375 L 7.300781 7.199219 C 7.300781 7.0625 7.457031 6.953125 7.652344 6.953125 Z M 9.742188 6.953125 L 10.441406 6.953125 C 10.632812 6.953125 10.789062 7.0625 10.789062 7.199219 L 10.789062 11.59375 C 10.789062 11.726562 10.632812 11.835938 10.441406 11.835938 L 9.742188 11.835938 C 9.550781 11.835938 9.394531 11.726562 9.394531 11.59375 L 9.394531 7.199219 C 9.394531 7.0625 9.550781 6.953125 9.742188 6.953125 Z M 9.742188 6.953125 "/>
</g>
</svg>
