<?xml version="1.0" encoding="UTF-8" standalone="no"?>
<svg
   xmlns:dc="http://purl.org/dc/elements/1.1/"
   xmlns:cc="http://creativecommons.org/ns#"
   xmlns:rdf="http://www.w3.org/1999/02/22-rdf-syntax-ns#"
   xmlns:svg="http://www.w3.org/2000/svg"
   xmlns="http://www.w3.org/2000/svg"
   xmlns:sodipodi="http://sodipodi.sourceforge.net/DTD/sodipodi-0.dtd"
   xmlns:inkscape="http://www.inkscape.org/namespaces/inkscape"
   height="32"
   width="32"
   version="1"
   id="svg16"
   sodipodi:docname="folder-visiting-green.svg"
   inkscape:version="0.92.1 r">
  <metadata
     id="metadata22">
    <rdf:RDF>
      <cc:Work
         rdf:about="">
        <dc:format>image/svg+xml</dc:format>
        <dc:type
           rdf:resource="http://purl.org/dc/dcmitype/StillImage" />
        <dc:title></dc:title>
      </cc:Work>
    </rdf:RDF>
  </metadata>
  <defs
     id="defs20" />
  <sodipodi:namedview
     pagecolor="#ffffff"
     bordercolor="#666666"
     borderopacity="1"
     objecttolerance="10"
     gridtolerance="10"
     guidetolerance="10"
     inkscape:pageopacity="0"
     inkscape:pageshadow="2"
     inkscape:window-width="1680"
     inkscape:window-height="971"
     id="namedview18"
     showgrid="false"
     inkscape:zoom="7.375"
     inkscape:cx="-1.6271186"
     inkscape:cy="16"
     inkscape:window-x="0"
     inkscape:window-y="0"
     inkscape:window-maximized="1"
     inkscape:current-layer="svg16" />
  <path
     style="fill:#5ca543;fill-opacity:1;stroke:none;stroke-width:0.14515875;stroke-miterlimit:4;stroke-dasharray:none;stroke-opacity:1"
     d="m 27.90368,6.7271308 c 1.168734,-7.39e-4 2.109629,0.9408943 2.109629,2.1096293 V 26.447279 c 0,1.168735 -0.940895,2.109629 -2.109629,2.109629 H 4.0963212 c -1.168735,0 -2.109682,-0.940894 -2.10963,-2.109629 l 7.32e-4,-16.244506 7.31e-4,-5.0669083 c 0,-0.9377959 0.754977,-1.6927729 1.692773,-1.6927729 h 9.0908198 c 0.937797,0 1.704839,0.371321 2.299888,1.096152 L 16.8735,6.7341037 Z"
     id="rect4549"
     inkscape:connector-curvature="0"
     sodipodi:nodetypes="sssssscsssscs" />
  <path
     style="opacity:0.65"
     d="m 4.7499999,10.853502 c -1.25,0 -1.25,1.197266 -1.25,1.197266 v 1.486328 L 26.552734,26.847643 H 27.25 c 0.692,0 1.25,-0.556047 1.25,-1.248047 v -0.002 -1.089844 L 4.8515629,10.853502 Z m 6.0996091,0 L 28.5,21.044909 V 17.580065 L 16.847656,10.853502 H 15 Z m 12.001953,0 L 28.5,14.115221 v -2.011719 c 0,-0.69222 -0.56175,-1.32647 -1.25,-1.25 z M 3.4999999,17.003893 v 3.462891 l 11.0507811,6.380859 h 6 z m 0,6.925781 v 1.667969 0.002 c 0,0.692 0.5575,1.248047 1.25,1.248047 h 3.802735 z"
     id="path14"
     inkscape:connector-curvature="0" />
</svg>
