<?xml version="1.0" encoding="UTF-8"?>
<svg xmlns="http://www.w3.org/2000/svg" xmlns:xlink="http://www.w3.org/1999/xlink" width="48pt" height="48pt" viewBox="0 0 48 48" version="1.1">
<g id="surface1">
<path style=" stroke:none;fill-rule:nonzero;fill:rgb(95.686275%,60%,25.098039%);fill-opacity:1;" d="M 41.855469 10.089844 C 43.609375 10.089844 45.019531 11.5 45.019531 13.253906 L 45.019531 39.671875 C 45.019531 41.421875 43.609375 42.832031 41.855469 42.832031 L 6.144531 42.832031 C 4.390625 42.832031 2.980469 41.421875 2.980469 39.671875 L 2.980469 15.300781 L 2.984375 7.703125 C 2.984375 6.296875 4.113281 5.167969 5.519531 5.167969 L 19.15625 5.167969 C 20.5625 5.167969 21.714844 5.722656 22.609375 6.808594 L 25.3125 10.097656 Z M 41.855469 10.089844 "/>
<path style=" stroke:none;fill-rule:nonzero;fill:rgb(33.333333%,20.784314%,8.627451%);fill-opacity:1;" d="M 24 18.125 C 22.863281 18.125 21.933594 18.558594 21.277344 19.175781 C 20.683594 19.746094 20.324219 20.441406 20.066406 21.125 L 21.699219 21.125 C 21.871094 20.800781 22.0625 20.496094 22.308594 20.265625 C 22.71875 19.875 23.214844 19.625 24 19.625 C 24.785156 19.625 25.28125 19.875 25.691406 20.265625 C 26.097656 20.652344 26.40625 21.21875 26.609375 21.816406 C 26.980469 22.910156 26.988281 23.933594 26.988281 24.125 L 18.75 24.125 C 18.332031 24.125 18 24.464844 18 24.875 L 18 32.375 C 18 32.792969 18.332031 33.125 18.75 33.125 L 29.25 33.125 C 29.667969 33.125 30 32.792969 30 32.375 L 30 24.875 C 30 24.464844 29.667969 24.125 29.25 24.125 L 28.488281 24.125 C 28.496094 23.902344 28.488281 22.703125 28.03125 21.339844 C 27.777344 20.589844 27.378906 19.800781 26.722656 19.175781 C 26.066406 18.558594 25.136719 18.125 24 18.125 Z M 24 18.125 "/>
</g>
</svg>
