<?xml version="1.0" encoding="UTF-8"?>
<svg xmlns="http://www.w3.org/2000/svg" xmlns:xlink="http://www.w3.org/1999/xlink" width="48pt" height="48pt" viewBox="0 0 48 48" version="1.1">
<g id="surface1">
<path style=" stroke:none;fill-rule:nonzero;fill:rgb(36.078431%,64.705882%,26.27451%);fill-opacity:1;" d="M 41.855469 10.089844 C 43.609375 10.089844 45.019531 11.5 45.019531 13.253906 L 45.019531 39.671875 C 45.019531 41.421875 43.609375 42.832031 41.855469 42.832031 L 6.144531 42.832031 C 4.390625 42.832031 2.980469 41.421875 2.980469 39.671875 L 2.980469 15.300781 L 2.984375 7.703125 C 2.984375 6.296875 4.113281 5.167969 5.519531 5.167969 L 19.15625 5.167969 C 20.5625 5.167969 21.714844 5.722656 22.609375 6.808594 L 25.3125 10.097656 Z M 41.855469 10.089844 "/>
<path style=" stroke:none;fill-rule:nonzero;fill:rgb(0%,0%,0%);fill-opacity:0.65098;" d="M 19.058594 18.59375 L 17.996094 19.65625 L 19.722656 21.386719 C 19.578125 21.6875 19.503906 22.015625 19.503906 22.347656 C 19.503906 23.300781 20.105469 24.152344 21.003906 24.46875 L 21.003906 30.734375 C 20.105469 31.050781 19.503906 31.894531 19.503906 32.847656 C 19.503906 34.09375 20.511719 35.097656 21.753906 35.097656 C 22.996094 35.097656 24.003906 34.09375 24.003906 32.847656 C 24 31.894531 23.402344 31.050781 22.503906 30.734375 L 22.503906 24.46875 C 22.578125 24.441406 22.652344 24.410156 22.71875 24.378906 L 25.722656 27.386719 C 25.578125 27.6875 25.503906 28.015625 25.503906 28.347656 C 25.503906 29.59375 26.511719 30.597656 27.753906 30.597656 C 28.996094 30.597656 30.003906 29.59375 30.003906 28.347656 C 30.003906 27.109375 28.996094 26.097656 27.753906 26.097656 C 27.417969 26.105469 27.089844 26.175781 26.785156 26.324219 L 23.78125 23.316406 C 23.925781 23.015625 24 22.6875 24.003906 22.347656 C 24.003906 21.109375 22.996094 20.097656 21.753906 20.097656 C 21.417969 20.105469 21.089844 20.175781 20.785156 20.324219 Z M 19.058594 18.59375 "/>
</g>
</svg>
