<?xml version="1.0" encoding="UTF-8"?>
<svg xmlns="http://www.w3.org/2000/svg" xmlns:xlink="http://www.w3.org/1999/xlink" width="48pt" height="48pt" viewBox="0 0 48 48" version="1.1">
<g id="surface1">
<path style=" stroke:none;fill-rule:nonzero;fill:rgb(15.686275%,61.960784%,63.137255%);fill-opacity:1;" d="M 41.855469 10.089844 C 43.609375 10.089844 45.019531 11.5 45.019531 13.253906 L 45.019531 39.671875 C 45.019531 41.421875 43.609375 42.832031 41.855469 42.832031 L 6.144531 42.832031 C 4.390625 42.832031 2.980469 41.421875 2.980469 39.671875 L 2.980469 15.300781 L 2.984375 7.703125 C 2.984375 6.296875 4.113281 5.167969 5.519531 5.167969 L 19.15625 5.167969 C 20.5625 5.167969 21.714844 5.722656 22.609375 6.808594 L 25.3125 10.097656 Z M 41.855469 10.089844 "/>
<path style=" stroke:none;fill-rule:evenodd;fill:rgb(0%,0%,0%);fill-opacity:0.65098;" d="M 18.8125 19.347656 C 18.785156 19.347656 18.769531 19.375 18.75 19.378906 C 18.671875 19.402344 18.59375 19.425781 18.5 19.472656 C 18.402344 19.527344 18.300781 19.589844 18.21875 19.691406 C 18.207031 19.703125 18.199219 19.714844 18.1875 19.722656 C 18.128906 19.796875 18.09375 19.894531 18.0625 20.003906 C 18.050781 20.035156 18.035156 20.0625 18.03125 20.097656 C 18.011719 20.175781 18 20.261719 18 20.347656 L 18 29.847656 L 19.5 29.847656 L 19.5 31.347656 L 21 31.347656 L 21 22.347656 L 25.5 22.347656 L 25.5 25.347656 L 27 25.347656 L 27 32.847656 L 28.5 32.847656 L 28.5 34.347656 L 30 34.347656 L 30 32.847656 L 28.511719 32.847656 L 28.5 31.347656 C 28.5 31.347656 30 31.347656 30 31.347656 L 30 30.347656 C 30 29.996094 30 29.769531 30 29.347656 L 30 26.347656 C 30 23.925781 30 24 30 23.910156 L 30 23.097656 L 26.25 19.347656 Z M 27 32.847656 L 25.5 32.847656 L 25.5 34.347656 L 27 34.347656 Z M 25.5 32.847656 L 25.5 31.347656 L 24 31.347656 L 24 32.847656 Z M 24 32.847656 L 22.5 32.847656 L 22.5 34.347656 L 24 34.347656 Z M 22.5 32.847656 L 22.5 31.347656 L 21 31.347656 L 21 32.847656 Z M 21 32.847656 L 19.5 32.847656 L 19.5 34.347656 L 21 34.347656 Z M 19.5 32.847656 L 19.5 31.347656 L 18 31.347656 L 18 32.847656 Z M 19.5 32.847656 "/>
</g>
</svg>
