<?xml version="1.0" encoding="UTF-8"?>
<svg xmlns="http://www.w3.org/2000/svg" xmlns:xlink="http://www.w3.org/1999/xlink" width="48pt" height="48pt" viewBox="0 0 48 48" version="1.1">
<g id="surface1">
<path style=" stroke:none;fill-rule:nonzero;fill:rgb(30.980392%,30.980392%,30.980392%);fill-opacity:1;" d="M 41.855469 10.089844 C 43.609375 10.089844 45.019531 11.5 45.019531 13.253906 L 45.019531 39.671875 C 45.019531 41.421875 43.609375 42.832031 41.855469 42.832031 L 6.144531 42.832031 C 4.390625 42.832031 2.980469 41.421875 2.980469 39.671875 L 2.980469 15.300781 L 2.984375 7.703125 C 2.984375 6.296875 4.113281 5.167969 5.519531 5.167969 L 19.15625 5.167969 C 20.5625 5.167969 21.714844 5.722656 22.609375 6.808594 L 25.3125 10.097656 Z M 41.855469 10.089844 "/>
<path style=" stroke:none;fill-rule:nonzero;fill:rgb(0%,0%,0%);fill-opacity:0.65098;" d="M 23.265625 19.957031 C 22.542969 19.949219 21.910156 20.464844 21.777344 21.183594 L 20.660156 27.113281 L 20.1875 25.527344 C 19.996094 24.890625 19.410156 24.457031 18.75 24.457031 L 15 24.457031 L 15 27.457031 L 17.636719 27.457031 L 19.5625 33.886719 C 19.765625 34.546875 20.390625 34.988281 21.078125 34.953125 C 21.765625 34.917969 22.34375 34.410156 22.472656 33.734375 L 23.734375 27.015625 L 24.097656 27.984375 C 24.308594 28.542969 24.828125 28.921875 25.421875 28.953125 C 26.015625 28.984375 26.574219 28.660156 26.84375 28.128906 L 27.550781 26.703125 L 28.597656 29.484375 C 28.816406 30.066406 29.375 30.457031 30 30.457031 L 33 30.457031 L 33 27.457031 L 31.042969 27.457031 L 29.152344 22.433594 C 28.941406 21.871094 28.421875 21.488281 27.828125 21.457031 C 27.234375 21.425781 26.675781 21.753906 26.40625 22.285156 L 25.699219 23.707031 L 24.652344 20.933594 C 24.4375 20.347656 23.886719 19.964844 23.265625 19.957031 Z M 23.265625 19.957031 "/>
</g>
</svg>
