<?xml version="1.0" encoding="UTF-8"?>
<svg xmlns="http://www.w3.org/2000/svg" xmlns:xlink="http://www.w3.org/1999/xlink" width="48pt" height="48pt" viewBox="0 0 48 48" version="1.1">
<g id="surface1">
<path style=" stroke:none;fill-rule:nonzero;fill:rgb(15.686275%,61.960784%,63.137255%);fill-opacity:1;" d="M 41.855469 10.089844 C 43.609375 10.089844 45.019531 11.5 45.019531 13.253906 L 45.019531 39.671875 C 45.019531 41.421875 43.609375 42.832031 41.855469 42.832031 L 6.144531 42.832031 C 4.390625 42.832031 2.980469 41.421875 2.980469 39.671875 L 2.980469 15.300781 L 2.984375 7.703125 C 2.984375 6.296875 4.113281 5.167969 5.519531 5.167969 L 19.15625 5.167969 C 20.5625 5.167969 21.714844 5.722656 22.609375 6.808594 L 25.3125 10.097656 Z M 41.855469 10.089844 "/>
<path style=" stroke:none;fill-rule:nonzero;fill:rgb(0%,0%,0%);fill-opacity:0.65098;" d="M 30.75 19.488281 L 27.375 25.113281 L 29.625 26.238281 Z M 18.375 22.863281 L 15 25.269531 L 19.5 25.113281 L 21.75 32.988281 L 22.875 31.863281 L 33 32.988281 L 29.625 27.363281 L 28.175781 26.558594 L 22.714844 29.769531 L 20.140625 23.34375 Z M 24.640625 25.269531 L 22.074219 26.878906 L 23.035156 29.128906 L 27.535156 26.558594 L 25.925781 25.269531 Z M 24.640625 25.269531 "/>
</g>
</svg>
