<?xml version="1.0" encoding="UTF-8"?>
<svg xmlns="http://www.w3.org/2000/svg" xmlns:xlink="http://www.w3.org/1999/xlink" width="48pt" height="48pt" viewBox="0 0 48 48" version="1.1">
<g id="surface1">
<path style=" stroke:none;fill-rule:nonzero;fill:rgb(36.078431%,64.705882%,26.27451%);fill-opacity:1;" d="M 41.855469 10.089844 C 43.609375 10.089844 45.019531 11.5 45.019531 13.253906 L 45.019531 39.671875 C 45.019531 41.421875 43.609375 42.832031 41.855469 42.832031 L 6.144531 42.832031 C 4.390625 42.832031 2.980469 41.421875 2.980469 39.671875 L 2.980469 15.300781 L 2.984375 7.703125 C 2.984375 6.296875 4.113281 5.167969 5.519531 5.167969 L 19.15625 5.167969 C 20.5625 5.167969 21.714844 5.722656 22.609375 6.808594 L 25.3125 10.097656 Z M 41.855469 10.089844 "/>
<path style=" stroke:none;fill-rule:nonzero;fill:rgb(0%,0%,0%);fill-opacity:0.65098;" d="M 27.96875 20.644531 C 27.746094 20.644531 27.535156 20.722656 27.34375 20.871094 C 26.847656 21.246094 25.816406 22.140625 24 22.144531 C 22.183594 22.144531 21.152344 21.246094 20.65625 20.871094 C 20.464844 20.722656 20.277344 20.652344 20.046875 20.652344 C 19.824219 20.652344 19.558594 20.71875 19.292969 20.871094 C 18.316406 21.417969 17.425781 23.214844 16.9375 25.535156 C 16.527344 27.511719 16.375 30.207031 16.621094 31.296875 C 16.839844 32.230469 17.207031 32.644531 17.871094 32.644531 C 19.988281 32.644531 20.078125 31.003906 20.863281 29.4375 C 21.425781 28.566406 22.738281 28.171875 24 28.214844 C 25.261719 28.167969 26.574219 28.566406 27.136719 29.4375 C 27.921875 31.003906 28.011719 32.644531 30.128906 32.644531 C 30.792969 32.644531 31.160156 32.230469 31.378906 31.296875 C 31.625 30.207031 31.472656 27.511719 31.0625 25.535156 C 30.574219 23.214844 29.683594 21.417969 28.707031 20.871094 C 28.441406 20.71875 28.199219 20.640625 27.96875 20.644531 Z M 19.5 22.144531 L 21 22.144531 L 21 23.644531 L 22.5 23.644531 L 22.5 25.144531 L 21 25.144531 L 21 26.644531 L 19.5 26.644531 L 19.5 25.144531 L 18 25.144531 L 18 23.644531 L 19.5 23.644531 Z M 27 22.144531 L 28.5 22.144531 L 28.5 23.644531 L 27 23.644531 Z M 28.5 25.144531 L 30 25.144531 L 30 26.644531 L 28.5 26.644531 Z M 28.5 25.144531 "/>
</g>
</svg>
