<?xml version="1.0" encoding="UTF-8"?>
<svg xmlns="http://www.w3.org/2000/svg" xmlns:xlink="http://www.w3.org/1999/xlink" width="48pt" height="48pt" viewBox="0 0 48 48" version="1.1">
<g id="surface1">
<path style=" stroke:none;fill-rule:nonzero;fill:rgb(60.392157%,60.392157%,60.392157%);fill-opacity:1;" d="M 41.855469 10.089844 C 43.609375 10.089844 45.019531 11.5 45.019531 13.253906 L 45.019531 39.671875 C 45.019531 41.421875 43.609375 42.832031 41.855469 42.832031 L 6.144531 42.832031 C 4.390625 42.832031 2.980469 41.421875 2.980469 39.671875 L 2.980469 15.300781 L 2.984375 7.703125 C 2.984375 6.296875 4.113281 5.167969 5.519531 5.167969 L 19.15625 5.167969 C 20.5625 5.167969 21.714844 5.722656 22.609375 6.808594 L 25.3125 10.097656 Z M 41.855469 10.089844 "/>
<path style=" stroke:none;fill-rule:nonzero;fill:rgb(0%,0%,0%);fill-opacity:0.65098;" d="M 17.574219 20.644531 C 16.5 20.644531 16.5 21.640625 16.5 21.640625 L 16.5 31.644531 C 16.5 32.644531 17.574219 32.644531 17.574219 32.644531 L 30.425781 32.644531 C 30.425781 32.644531 31.5 32.644531 31.5 31.644531 L 31.5 21.640625 C 31.5 20.640625 30.425781 20.644531 30.425781 20.644531 Z M 21 25.144531 L 25.5 29.644531 L 27.75 26.644531 L 30 29.644531 L 30 31.144531 L 18 31.144531 L 18 28.144531 Z M 21 25.144531 "/>
</g>
</svg>
