<?xml version="1.0" encoding="UTF-8"?>
<svg xmlns="http://www.w3.org/2000/svg" xmlns:xlink="http://www.w3.org/1999/xlink" width="48pt" height="48pt" viewBox="0 0 48 48" version="1.1">
<g id="surface1">
<path style=" stroke:none;fill-rule:nonzero;fill:rgb(60.392157%,60.392157%,60.392157%);fill-opacity:1;" d="M 41.855469 10.089844 C 43.609375 10.089844 45.019531 11.5 45.019531 13.253906 L 45.019531 39.671875 C 45.019531 41.421875 43.609375 42.832031 41.855469 42.832031 L 6.144531 42.832031 C 4.390625 42.832031 2.980469 41.421875 2.980469 39.671875 L 2.980469 15.300781 L 2.984375 7.703125 C 2.984375 6.296875 4.113281 5.167969 5.519531 5.167969 L 19.15625 5.167969 C 20.5625 5.167969 21.714844 5.722656 22.609375 6.808594 L 25.3125 10.097656 Z M 41.855469 10.089844 "/>
<path style=" stroke:none;fill-rule:nonzero;fill:rgb(0%,0%,0%);fill-opacity:0.65098;" d="M 24 18.535156 C 22.863281 18.535156 21.933594 18.964844 21.277344 19.582031 C 20.621094 20.207031 20.222656 20.996094 19.96875 21.746094 C 19.511719 23.109375 19.503906 24.308594 19.511719 24.535156 L 18.75 24.535156 C 18.332031 24.535156 18 24.871094 18 25.285156 L 18 32.785156 C 18 33.199219 18.332031 33.535156 18.75 33.535156 L 29.25 33.535156 C 29.667969 33.535156 30 33.199219 30 32.785156 L 30 25.285156 C 30 24.871094 29.667969 24.535156 29.25 24.535156 L 28.488281 24.535156 C 28.496094 24.308594 28.488281 23.109375 28.03125 21.746094 C 27.777344 20.996094 27.378906 20.207031 26.722656 19.582031 C 26.066406 18.964844 25.136719 18.535156 24 18.535156 Z M 24 20.035156 C 24.785156 20.035156 25.28125 20.28125 25.691406 20.671875 C 26.097656 21.0625 26.40625 21.625 26.609375 22.222656 C 26.980469 23.316406 26.988281 24.339844 26.988281 24.535156 L 21.011719 24.535156 C 21.011719 24.339844 21.019531 23.316406 21.390625 22.222656 C 21.59375 21.625 21.902344 21.0625 22.308594 20.671875 C 22.71875 20.28125 23.214844 20.035156 24 20.035156 Z M 24 20.035156 "/>
</g>
</svg>
