<?xml version="1.0" encoding="UTF-8"?>
<svg xmlns="http://www.w3.org/2000/svg" xmlns:xlink="http://www.w3.org/1999/xlink" width="48pt" height="48pt" viewBox="0 0 48 48" version="1.1">
<g id="surface1">
<path style=" stroke:none;fill-rule:nonzero;fill:rgb(30.980392%,30.980392%,30.980392%);fill-opacity:1;" d="M 41.855469 10.089844 C 43.609375 10.089844 45.019531 11.5 45.019531 13.253906 L 45.019531 39.671875 C 45.019531 41.421875 43.609375 42.832031 41.855469 42.832031 L 6.144531 42.832031 C 4.390625 42.832031 2.980469 41.421875 2.980469 39.671875 L 2.980469 15.300781 L 2.984375 7.703125 C 2.984375 6.296875 4.113281 5.167969 5.519531 5.167969 L 19.15625 5.167969 C 20.5625 5.167969 21.714844 5.722656 22.609375 6.808594 L 25.3125 10.097656 Z M 41.855469 10.089844 "/>
<path style=" stroke:none;fill-rule:nonzero;fill:rgb(0%,0%,0%);fill-opacity:0.65098;" d="M 25.800781 20.441406 C 23.996094 20.441406 22.34375 21.453125 21.527344 23.0625 C 21.171875 22.917969 20.785156 22.839844 20.402344 22.839844 C 18.902344 22.839844 17.628906 23.953125 17.433594 25.4375 C 15.980469 25.9375 15 27.300781 15 28.839844 C 15 30.828125 16.613281 32.441406 18.597656 32.441406 L 29.402344 32.441406 C 31.386719 32.441406 33 30.828125 33 28.839844 C 33 27.3125 32.035156 25.953125 30.59375 25.449219 C 30.597656 25.378906 30.597656 25.308594 30.597656 25.238281 C 30.597656 22.589844 28.449219 20.441406 25.800781 20.441406 Z M 25.796875 23.441406 C 26.828125 23.441406 27.59375 24.207031 27.597656 25.234375 L 27.597656 25.238281 C 27.503906 26.589844 28.324219 27.832031 29.597656 28.277344 C 29.847656 28.363281 30 28.578125 30 28.839844 C 30 29.207031 29.765625 29.441406 29.402344 29.441406 L 18.597656 29.441406 C 18.234375 29.441406 18 29.207031 18 28.84375 L 18 28.839844 C 18 28.574219 18.152344 28.363281 18.40625 28.277344 C 19.480469 27.910156 20.25 26.96875 20.402344 25.84375 C 21.84375 26.425781 23.496094 25.8125 24.203125 24.425781 C 24.511719 23.816406 25.121094 23.441406 25.796875 23.441406 Z M 25.796875 23.441406 "/>
</g>
</svg>
