<?xml version="1.0" encoding="UTF-8"?>
<svg xmlns="http://www.w3.org/2000/svg" xmlns:xlink="http://www.w3.org/1999/xlink" width="48pt" height="48pt" viewBox="0 0 48 48" version="1.1">
<g id="surface1">
<path style=" stroke:none;fill-rule:nonzero;fill:rgb(95.686275%,60%,25.098039%);fill-opacity:1;" d="M 41.855469 10.089844 C 43.609375 10.089844 45.019531 11.5 45.019531 13.253906 L 45.019531 39.671875 C 45.019531 41.421875 43.609375 42.832031 41.855469 42.832031 L 6.144531 42.832031 C 4.390625 42.832031 2.980469 41.421875 2.980469 39.671875 L 2.980469 15.300781 L 2.984375 7.703125 C 2.984375 6.296875 4.113281 5.167969 5.519531 5.167969 L 19.15625 5.167969 C 20.5625 5.167969 21.714844 5.722656 22.609375 6.808594 L 25.3125 10.097656 Z M 41.855469 10.089844 "/>
<path style=" stroke:none;fill-rule:nonzero;fill:rgb(0%,0%,0%);fill-opacity:0.65098;" d="M 27.96875 20.238281 C 27.746094 20.238281 27.535156 20.316406 27.34375 20.464844 C 26.847656 20.839844 25.816406 21.734375 24 21.738281 C 22.183594 21.738281 21.152344 20.839844 20.65625 20.464844 C 20.464844 20.316406 20.277344 20.238281 20.046875 20.246094 C 19.824219 20.246094 19.558594 20.3125 19.292969 20.464844 C 18.316406 21.011719 17.425781 22.808594 16.9375 25.128906 C 16.527344 27.105469 16.375 29.800781 16.621094 30.890625 C 16.839844 31.824219 17.207031 32.238281 17.871094 32.238281 C 19.988281 32.238281 20.078125 30.597656 20.863281 29.03125 C 21.425781 28.160156 22.738281 27.765625 24 27.808594 C 25.261719 27.761719 26.574219 28.160156 27.136719 29.03125 C 27.921875 30.597656 28.011719 32.238281 30.128906 32.238281 C 30.792969 32.238281 31.160156 31.824219 31.378906 30.890625 C 31.625 29.800781 31.472656 27.105469 31.0625 25.128906 C 30.574219 22.808594 29.683594 21.011719 28.707031 20.464844 C 28.441406 20.3125 28.199219 20.234375 27.96875 20.238281 Z M 19.5 21.738281 L 21 21.738281 L 21 23.238281 L 22.5 23.238281 L 22.5 24.738281 L 21 24.738281 L 21 26.238281 L 19.5 26.238281 L 19.5 24.738281 L 18 24.738281 L 18 23.238281 L 19.5 23.238281 Z M 27 21.738281 L 28.5 21.738281 L 28.5 23.238281 L 27 23.238281 Z M 28.5 24.738281 L 30 24.738281 L 30 26.238281 L 28.5 26.238281 Z M 28.5 24.738281 "/>
</g>
</svg>
