<?xml version="1.0" encoding="UTF-8"?>
<svg xmlns="http://www.w3.org/2000/svg" xmlns:xlink="http://www.w3.org/1999/xlink" width="48pt" height="48pt" viewBox="0 0 48 48" version="1.1">
<g id="surface1">
<path style=" stroke:none;fill-rule:nonzero;fill:rgb(52.156863%,41.960784%,20.784314%);fill-opacity:1;" d="M 41.855469 10.089844 C 43.609375 10.089844 45.019531 11.5 45.019531 13.253906 L 45.019531 39.671875 C 45.019531 41.421875 43.609375 42.832031 41.855469 42.832031 L 6.144531 42.832031 C 4.390625 42.832031 2.980469 41.421875 2.980469 39.671875 L 2.980469 15.300781 L 2.984375 7.703125 C 2.984375 6.296875 4.113281 5.167969 5.519531 5.167969 L 19.15625 5.167969 C 20.5625 5.167969 21.714844 5.722656 22.609375 6.808594 L 25.3125 10.097656 Z M 41.855469 10.089844 "/>
<path style=" stroke:none;fill-rule:nonzero;fill:rgb(0%,0%,0%);fill-opacity:0.65098;" d="M 23.25 20.644531 C 20.734375 21.125 19.261719 22.796875 18.75 25.144531 L 15.75 25.144531 L 15.75 28.144531 L 18.75 28.144531 C 19.265625 30.488281 20.738281 32.167969 23.25 32.644531 Z M 24.75 20.644531 L 24.75 32.644531 C 27.261719 32.167969 28.734375 30.488281 29.25 28.144531 L 32.25 28.144531 L 32.25 25.144531 L 29.25 25.144531 C 28.738281 22.796875 27.265625 21.125 24.75 20.644531 Z M 24.75 20.644531 "/>
</g>
</svg>
