<?xml version="1.0" encoding="UTF-8"?>
<svg xmlns="http://www.w3.org/2000/svg" xmlns:xlink="http://www.w3.org/1999/xlink" width="48pt" height="48pt" viewBox="0 0 48 48" version="1.1">
<g id="surface1">
<path style=" stroke:none;fill-rule:nonzero;fill:rgb(15.686275%,61.960784%,63.137255%);fill-opacity:1;" d="M 41.855469 10.089844 C 43.609375 10.089844 45.019531 11.5 45.019531 13.253906 L 45.019531 39.671875 C 45.019531 41.421875 43.609375 42.832031 41.855469 42.832031 L 6.144531 42.832031 C 4.390625 42.832031 2.980469 41.421875 2.980469 39.671875 L 2.980469 15.300781 L 2.984375 7.703125 C 2.984375 6.296875 4.113281 5.167969 5.519531 5.167969 L 19.15625 5.167969 C 20.5625 5.167969 21.714844 5.722656 22.609375 6.808594 L 25.3125 10.097656 Z M 41.855469 10.089844 "/>
<path style=" stroke:none;fill-rule:nonzero;fill:rgb(0%,0%,0%);fill-opacity:0.65098;" d="M 18.253906 32.378906 C 18.203125 32.347656 18.109375 32.324219 18.046875 32.316406 C 17.800781 32.316406 17.035156 31.886719 16.671875 31.542969 C 16.46875 31.347656 16.300781 31.15625 16.300781 31.121094 C 16.300781 31.082031 16.261719 31.015625 16.207031 30.972656 C 16.015625 30.816406 15.75 30.144531 15.660156 29.605469 C 15.496094 28.582031 15.542969 28.066406 15.890625 27.167969 C 16.109375 26.597656 16.082031 26.636719 16.640625 26.0625 C 16.953125 25.738281 17.183594 25.566406 17.480469 25.425781 L 17.886719 25.238281 L 17.886719 24.972656 C 17.886719 24.113281 18.667969 22.90625 19.441406 22.550781 C 20.089844 22.261719 20.25 22.230469 20.871094 22.265625 C 21.199219 22.28125 21.519531 22.324219 21.582031 22.359375 C 21.652344 22.390625 21.824219 22.480469 21.972656 22.558594 C 22.125 22.636719 22.285156 22.734375 22.332031 22.78125 C 22.453125 22.902344 22.488281 22.878906 22.714844 22.566406 C 23.128906 21.988281 23.769531 21.433594 24.171875 21.300781 C 24.238281 21.28125 24.296875 21.246094 24.296875 21.21875 C 24.296875 21.175781 24.675781 21.046875 25.1875 20.910156 C 25.546875 20.816406 26.480469 20.828125 26.933594 20.9375 C 27.328125 21.027344 28.183594 21.421875 28.324219 21.582031 C 28.339844 21.597656 28.457031 21.691406 28.582031 21.785156 C 28.871094 22 29.472656 22.765625 29.578125 23.042969 C 29.597656 23.09375 29.652344 23.207031 29.703125 23.296875 C 29.75 23.386719 29.785156 23.515625 29.785156 23.582031 C 29.785156 23.652344 29.816406 23.714844 29.847656 23.722656 C 29.886719 23.734375 29.953125 24.074219 30 24.472656 C 30.050781 24.871094 30.097656 25.203125 30.109375 25.214844 C 30.113281 25.21875 30.328125 25.324219 30.582031 25.4375 C 30.890625 25.582031 31.15625 25.769531 31.40625 26.015625 C 31.839844 26.449219 31.863281 26.480469 32.046875 26.828125 C 32.292969 27.300781 32.3125 27.339844 32.375 27.589844 C 32.457031 27.921875 32.453125 29.597656 32.363281 29.9375 C 32.238281 30.449219 31.875 31.082031 31.480469 31.480469 C 31.265625 31.699219 30.625 32.136719 30.527344 32.136719 C 30.46875 32.136719 30.394531 32.160156 30.363281 32.191406 C 30.332031 32.222656 30.136719 32.292969 29.933594 32.34375 C 29.605469 32.425781 28.859375 32.441406 23.953125 32.4375 C 20.4375 32.4375 18.3125 32.417969 18.253906 32.378906 Z M 18.253906 32.378906 "/>
</g>
</svg>
