<?xml version="1.0" encoding="UTF-8"?>
<svg xmlns="http://www.w3.org/2000/svg" xmlns:xlink="http://www.w3.org/1999/xlink" width="48pt" height="48pt" viewBox="0 0 48 48" version="1.1">
<g id="surface1">
<path style=" stroke:none;fill-rule:nonzero;fill:rgb(60.392157%,60.392157%,60.392157%);fill-opacity:1;" d="M 41.855469 10.089844 C 43.609375 10.089844 45.019531 11.5 45.019531 13.253906 L 45.019531 39.671875 C 45.019531 41.421875 43.609375 42.832031 41.855469 42.832031 L 6.144531 42.832031 C 4.390625 42.832031 2.980469 41.421875 2.980469 39.671875 L 2.980469 15.300781 L 2.984375 7.703125 C 2.984375 6.296875 4.113281 5.167969 5.519531 5.167969 L 19.15625 5.167969 C 20.5625 5.167969 21.714844 5.722656 22.609375 6.808594 L 25.3125 10.097656 Z M 41.855469 10.089844 "/>
<path style=" stroke:none;fill-rule:nonzero;fill:rgb(0%,0%,0%);fill-opacity:0.65098;" d="M 20.25 21.738281 C 17.765625 21.738281 15.75 23.75 15.75 26.238281 C 15.75 28.722656 17.765625 30.738281 20.25 30.738281 C 22.15625 30.734375 23.847656 29.53125 24.484375 27.738281 L 27.75 27.734375 L 27.75 29.238281 L 30.75 29.238281 L 30.75 27.730469 L 32.25 27.734375 L 32.25 24.734375 L 24.484375 24.738281 C 23.855469 22.941406 22.15625 21.738281 20.25 21.738281 Z M 20.25 24.738281 C 21.078125 24.738281 21.75 25.40625 21.75 26.238281 C 21.75 27.066406 21.078125 27.738281 20.25 27.738281 C 19.421875 27.738281 18.75 27.066406 18.75 26.238281 C 18.75 25.40625 19.421875 24.738281 20.25 24.738281 Z M 20.25 24.738281 "/>
</g>
</svg>
