<?xml version="1.0" encoding="UTF-8"?>
<svg xmlns="http://www.w3.org/2000/svg" xmlns:xlink="http://www.w3.org/1999/xlink" width="48pt" height="48pt" viewBox="0 0 48 48" version="1.1">
<g id="surface1">
<path style=" stroke:none;fill-rule:nonzero;fill:rgb(15.686275%,61.960784%,63.137255%);fill-opacity:1;" d="M 41.855469 10.089844 C 43.609375 10.089844 45.019531 11.5 45.019531 13.253906 L 45.019531 39.671875 C 45.019531 41.421875 43.609375 42.832031 41.855469 42.832031 L 6.144531 42.832031 C 4.390625 42.832031 2.980469 41.421875 2.980469 39.671875 L 2.980469 15.300781 L 2.984375 7.703125 C 2.984375 6.296875 4.113281 5.167969 5.519531 5.167969 L 19.15625 5.167969 C 20.5625 5.167969 21.714844 5.722656 22.609375 6.808594 L 25.3125 10.097656 Z M 41.855469 10.089844 "/>
<path style=" stroke:none;fill-rule:nonzero;fill:rgb(0%,0%,0%);fill-opacity:0.65098;" d="M 30.75 16.894531 C 27.847656 16.894531 25.5 19.246094 25.5 22.144531 C 25.5 22.15625 25.5 22.171875 25.503906 22.1875 L 22.015625 27.515625 C 21.683594 27.4375 21.34375 27.394531 21 27.394531 C 20.324219 27.394531 19.652344 27.550781 19.042969 27.847656 L 12.402344 24.015625 C 12.140625 25.125 12.003906 26.253906 12 27.394531 C 12.003906 27.949219 12.042969 28.496094 12.109375 29.042969 L 16.511719 31.582031 C 16.503906 31.6875 16.5 31.792969 16.5 31.894531 C 16.5 34.378906 18.515625 36.394531 21 36.394531 C 23.484375 36.394531 25.5 34.378906 25.5 31.894531 C 25.496094 31.6875 25.480469 31.484375 25.449219 31.28125 L 30.90625 27.386719 C 33.746094 27.300781 35.996094 24.980469 36 22.144531 C 36 19.246094 33.652344 16.894531 30.75 16.894531 Z M 30.75 18.394531 C 32.824219 18.394531 34.5 20.074219 34.5 22.144531 C 34.5 24.214844 32.824219 25.894531 30.75 25.894531 C 28.675781 25.894531 27 24.214844 27 22.144531 C 27 20.074219 28.675781 18.394531 30.75 18.394531 Z M 30.75 19.894531 C 29.503906 19.894531 28.5 20.902344 28.5 22.144531 C 28.5 23.386719 29.503906 24.394531 30.75 24.394531 C 31.996094 24.394531 33 23.386719 33 22.144531 C 33 20.902344 31.996094 19.894531 30.75 19.894531 Z M 21 28.894531 C 22.65625 28.894531 24 30.238281 24 31.894531 C 24 33.550781 22.65625 34.894531 21 34.894531 C 19.566406 34.890625 18.339844 33.878906 18.0625 32.480469 L 19.121094 33.089844 C 20.199219 33.714844 21.566406 33.34375 22.191406 32.265625 C 22.816406 31.1875 22.449219 29.816406 21.371094 29.191406 L 20.863281 28.902344 C 20.90625 28.894531 20.953125 28.894531 21 28.894531 Z M 21 28.894531 "/>
</g>
</svg>
