<?xml version="1.0" encoding="UTF-8"?>
<svg xmlns="http://www.w3.org/2000/svg" xmlns:xlink="http://www.w3.org/1999/xlink" width="48pt" height="48pt" viewBox="0 0 48 48" version="1.1">
<g id="surface1">
<path style=" stroke:none;fill-rule:nonzero;fill:rgb(32.156863%,58.039216%,88.627451%);fill-opacity:1;" d="M 41.855469 10.089844 C 43.609375 10.089844 45.019531 11.5 45.019531 13.253906 L 45.019531 39.671875 C 45.019531 41.421875 43.609375 42.832031 41.855469 42.832031 L 6.144531 42.832031 C 4.390625 42.832031 2.980469 41.421875 2.980469 39.671875 L 2.980469 15.300781 L 2.984375 7.703125 C 2.984375 6.296875 4.113281 5.167969 5.519531 5.167969 L 19.15625 5.167969 C 20.5625 5.167969 21.714844 5.722656 22.609375 6.808594 L 25.3125 10.097656 Z M 41.855469 10.089844 "/>
<path style=" stroke:none;fill-rule:nonzero;fill:rgb(0%,0%,0%);fill-opacity:0.65098;" d="M 12 29.183594 L 16.511719 31.785156 C 16.503906 31.890625 16.5 31.996094 16.5 32.097656 C 16.5 34.582031 18.515625 36.597656 21 36.597656 C 23.484375 36.597656 25.5 34.582031 25.5 32.097656 C 25.496094 31.890625 25.480469 31.6875 25.449219 31.484375 L 30.90625 27.589844 C 33.746094 27.503906 35.996094 25.183594 36 22.347656 C 36 19.449219 33.652344 17.097656 30.75 17.097656 C 27.847656 17.097656 25.5 19.449219 25.5 22.371094 L 22.015625 27.71875 C 21.683594 27.640625 21.34375 27.597656 21 27.597656 C 20.324219 27.597656 19.652344 27.753906 19.042969 28.050781 L 12 23.988281 M 30.75 18.597656 C 32.824219 18.597656 34.5 20.277344 34.5 22.347656 C 34.5 24.417969 32.824219 26.097656 30.75 26.097656 C 28.675781 26.097656 27 24.417969 27 22.347656 C 27 20.277344 28.675781 18.597656 30.75 18.597656 Z M 30.75 20.097656 C 29.511719 20.097656 28.5 21.105469 28.5 22.347656 C 28.5 23.589844 29.511719 24.597656 30.75 24.597656 C 31.988281 24.597656 33 23.589844 33 22.347656 C 33 21.105469 31.988281 20.097656 30.75 20.097656 Z M 21 29.097656 C 22.65625 29.097656 24 30.4375 24 32.097656 C 24 33.753906 22.65625 35.097656 21 35.097656 C 19.566406 35.09375 18.339844 34.082031 18.0625 32.683594 L 19.121094 33.292969 C 20.199219 33.917969 21.566406 33.546875 22.191406 32.46875 C 22.8125 31.390625 22.449219 30.019531 21.371094 29.394531 L 20.863281 29.105469 C 20.90625 29.097656 20.953125 29.097656 21 29.097656 Z M 21 29.097656 "/>
</g>
</svg>
