<?xml version="1.0" encoding="UTF-8"?>
<svg xmlns="http://www.w3.org/2000/svg" xmlns:xlink="http://www.w3.org/1999/xlink" width="48pt" height="48pt" viewBox="0 0 48 48" version="1.1">
<g id="surface1">
<path style=" stroke:none;fill-rule:nonzero;fill:rgb(52.156863%,41.960784%,20.784314%);fill-opacity:1;" d="M 41.855469 10.089844 C 43.609375 10.089844 45.019531 11.5 45.019531 13.253906 L 45.019531 39.671875 C 45.019531 41.421875 43.609375 42.832031 41.855469 42.832031 L 6.144531 42.832031 C 4.390625 42.832031 2.980469 41.421875 2.980469 39.671875 L 2.980469 15.300781 L 2.984375 7.703125 C 2.984375 6.296875 4.113281 5.167969 5.519531 5.167969 L 19.15625 5.167969 C 20.5625 5.167969 21.714844 5.722656 22.609375 6.808594 L 25.3125 10.097656 Z M 41.855469 10.089844 "/>
<path style=" stroke:none;fill-rule:nonzero;fill:rgb(0%,0%,0%);fill-opacity:0.65098;" d="M 21 20.847656 L 19.5 22.347656 L 18.75 22.347656 C 17.503906 22.347656 16.5 23.183594 16.5 24.222656 L 16.5 30.972656 C 16.5 32.011719 17.503906 32.847656 18.75 32.847656 L 29.25 32.847656 C 30.496094 32.847656 31.5 32.011719 31.5 30.972656 L 31.5 24.222656 C 31.5 23.183594 30.496094 22.347656 29.25 22.347656 L 28.5 22.347656 L 27 20.847656 Z M 24 23.847656 C 25.65625 23.847656 27 25.191406 27 26.847656 C 27 28.503906 25.65625 29.847656 24 29.847656 C 22.34375 29.847656 21 28.503906 21 26.847656 C 21 25.191406 22.34375 23.847656 24 23.847656 Z M 24 23.847656 "/>
</g>
</svg>
