<?xml version="1.0" encoding="UTF-8"?>
<svg xmlns="http://www.w3.org/2000/svg" xmlns:xlink="http://www.w3.org/1999/xlink" width="48pt" height="48pt" viewBox="0 0 48 48" version="1.1">
<g id="surface1">
<path style=" stroke:none;fill-rule:nonzero;fill:rgb(15.686275%,61.960784%,63.137255%);fill-opacity:1;" d="M 41.855469 10.089844 C 43.609375 10.089844 45.019531 11.5 45.019531 13.253906 L 45.019531 39.671875 C 45.019531 41.421875 43.609375 42.832031 41.855469 42.832031 L 6.144531 42.832031 C 4.390625 42.832031 2.980469 41.421875 2.980469 39.671875 L 2.980469 15.300781 L 2.984375 7.703125 C 2.984375 6.296875 4.113281 5.167969 5.519531 5.167969 L 19.15625 5.167969 C 20.5625 5.167969 21.714844 5.722656 22.609375 6.808594 L 25.3125 10.097656 Z M 41.855469 10.089844 "/>
<path style=" stroke:none;fill-rule:nonzero;fill:rgb(0%,0%,0%);fill-opacity:0.65098;" d="M 19.058594 18.1875 L 17.996094 19.25 L 19.722656 20.972656 C 19.578125 21.277344 19.503906 21.609375 19.503906 21.941406 C 19.503906 22.894531 20.105469 23.746094 21.003906 24.0625 L 21.003906 30.328125 C 20.105469 30.644531 19.503906 31.488281 19.503906 32.441406 C 19.503906 33.6875 20.511719 34.691406 21.753906 34.691406 C 22.996094 34.691406 24.003906 33.6875 24.003906 32.441406 C 24 31.488281 23.402344 30.644531 22.503906 30.328125 L 22.503906 24.0625 C 22.578125 24.035156 22.652344 24.003906 22.71875 23.96875 L 25.722656 26.972656 C 25.578125 27.277344 25.503906 27.609375 25.503906 27.941406 C 25.503906 29.1875 26.511719 30.191406 27.753906 30.191406 C 28.996094 30.191406 30.003906 29.1875 30.003906 27.941406 C 30.003906 26.703125 28.996094 25.691406 27.753906 25.691406 C 27.417969 25.691406 27.089844 25.769531 26.785156 25.917969 L 23.78125 22.910156 C 23.925781 22.609375 24 22.28125 24.003906 21.941406 C 24.003906 20.703125 22.996094 19.691406 21.753906 19.691406 C 21.417969 19.699219 21.089844 19.769531 20.785156 19.917969 Z M 19.058594 18.1875 "/>
</g>
</svg>
