<?xml version="1.0" encoding="UTF-8"?>
<svg xmlns="http://www.w3.org/2000/svg" xmlns:xlink="http://www.w3.org/1999/xlink" width="48pt" height="48pt" viewBox="0 0 48 48" version="1.1">
<g id="surface1">
<path style=" stroke:none;fill-rule:nonzero;fill:rgb(95.686275%,60%,25.098039%);fill-opacity:1;" d="M 41.855469 10.089844 C 43.609375 10.089844 45.019531 11.5 45.019531 13.253906 L 45.019531 39.671875 C 45.019531 41.421875 43.609375 42.832031 41.855469 42.832031 L 6.144531 42.832031 C 4.390625 42.832031 2.980469 41.421875 2.980469 39.671875 L 2.980469 15.300781 L 2.984375 7.703125 C 2.984375 6.296875 4.113281 5.167969 5.519531 5.167969 L 19.15625 5.167969 C 20.5625 5.167969 21.714844 5.722656 22.609375 6.808594 L 25.3125 10.097656 Z M 41.855469 10.089844 "/>
<path style=" stroke:none;fill-rule:nonzero;fill:rgb(0%,0%,0%);fill-opacity:0.65098;" d="M 18.253906 32.175781 C 18.203125 32.144531 18.109375 32.113281 18.046875 32.113281 C 17.800781 32.113281 17.035156 31.683594 16.671875 31.339844 C 16.46875 31.144531 16.300781 30.953125 16.300781 30.917969 C 16.300781 30.878906 16.261719 30.8125 16.207031 30.769531 C 16.015625 30.613281 15.75 29.941406 15.660156 29.402344 C 15.496094 28.378906 15.542969 27.863281 15.890625 26.957031 C 16.109375 26.394531 16.082031 26.433594 16.640625 25.859375 C 16.953125 25.535156 17.183594 25.363281 17.480469 25.222656 L 17.886719 25.035156 L 17.886719 24.769531 C 17.886719 23.90625 18.667969 22.703125 19.441406 22.347656 C 20.089844 22.058594 20.25 22.027344 20.871094 22.0625 C 21.199219 22.078125 21.519531 22.121094 21.582031 22.15625 C 21.652344 22.1875 21.824219 22.277344 21.972656 22.355469 C 22.125 22.433594 22.285156 22.53125 22.332031 22.578125 C 22.453125 22.699219 22.488281 22.675781 22.714844 22.363281 C 23.128906 21.785156 23.769531 21.230469 24.171875 21.097656 C 24.238281 21.078125 24.296875 21.042969 24.296875 21.015625 C 24.296875 20.972656 24.675781 20.84375 25.1875 20.707031 C 25.546875 20.613281 26.480469 20.625 26.933594 20.734375 C 27.328125 20.824219 28.183594 21.21875 28.324219 21.378906 C 28.339844 21.394531 28.457031 21.488281 28.582031 21.582031 C 28.871094 21.796875 29.472656 22.5625 29.578125 22.839844 C 29.597656 22.890625 29.652344 23.003906 29.703125 23.09375 C 29.75 23.183594 29.785156 23.3125 29.785156 23.375 C 29.785156 23.441406 29.816406 23.511719 29.847656 23.519531 C 29.886719 23.53125 29.953125 23.871094 30 24.269531 C 30.050781 24.667969 30.097656 25 30.109375 25.011719 C 30.113281 25.015625 30.328125 25.121094 30.582031 25.234375 C 30.890625 25.378906 31.15625 25.566406 31.40625 25.8125 C 31.839844 26.246094 31.863281 26.277344 32.046875 26.625 C 32.292969 27.097656 32.3125 27.136719 32.375 27.386719 C 32.457031 27.71875 32.453125 29.394531 32.363281 29.734375 C 32.238281 30.246094 31.875 30.878906 31.480469 31.277344 C 31.265625 31.496094 30.625 31.933594 30.527344 31.933594 C 30.46875 31.933594 30.394531 31.957031 30.363281 31.988281 C 30.332031 32.019531 30.136719 32.089844 29.933594 32.140625 C 29.605469 32.222656 28.859375 32.238281 23.953125 32.234375 C 20.4375 32.234375 18.3125 32.214844 18.253906 32.175781 Z M 18.253906 32.175781 "/>
</g>
</svg>
