<?xml version="1.0" encoding="UTF-8"?>
<svg xmlns="http://www.w3.org/2000/svg" xmlns:xlink="http://www.w3.org/1999/xlink" width="48pt" height="48pt" viewBox="0 0 48 48" version="1.1">
<g id="surface1">
<path style=" stroke:none;fill-rule:nonzero;fill:rgb(32.156863%,58.039216%,88.627451%);fill-opacity:1;" d="M 41.855469 10.089844 C 43.609375 10.089844 45.019531 11.5 45.019531 13.253906 L 45.019531 39.671875 C 45.019531 41.421875 43.609375 42.832031 41.855469 42.832031 L 6.144531 42.832031 C 4.390625 42.832031 2.980469 41.421875 2.980469 39.671875 L 2.980469 15.300781 L 2.984375 7.703125 C 2.984375 6.296875 4.113281 5.167969 5.519531 5.167969 L 19.15625 5.167969 C 20.5625 5.167969 21.714844 5.722656 22.609375 6.808594 L 25.3125 10.097656 Z M 41.855469 10.089844 "/>
<path style=" stroke:none;fill-rule:nonzero;fill:rgb(0%,0%,0%);fill-opacity:0.65098;" d="M 27.96875 21.050781 C 27.746094 21.050781 27.542969 21.128906 27.34375 21.277344 C 26.847656 21.65625 25.816406 22.546875 24 22.550781 C 22.183594 22.550781 21.152344 21.65625 20.65625 21.277344 C 20.464844 21.128906 20.277344 21.058594 20.046875 21.058594 C 19.816406 21.058594 19.558594 21.125 19.292969 21.277344 C 18.316406 21.824219 17.425781 23.621094 16.941406 25.941406 C 16.527344 27.917969 16.371094 30.613281 16.621094 31.703125 C 16.832031 32.636719 17.203125 33.050781 17.863281 33.050781 C 19.984375 33.050781 20.078125 31.410156 20.859375 29.84375 C 21.425781 28.972656 22.734375 28.578125 24 28.625 C 25.261719 28.578125 26.574219 28.972656 27.140625 29.84375 C 27.921875 31.410156 28.015625 33.050781 30.136719 33.050781 C 30.796875 33.050781 31.167969 32.636719 31.378906 31.703125 C 31.628906 30.613281 31.472656 27.917969 31.058594 25.941406 C 30.574219 23.621094 29.683594 21.824219 28.707031 21.277344 C 28.441406 21.125 28.199219 21.046875 27.96875 21.050781 Z M 19.5 22.550781 L 21 22.550781 L 21 24.050781 L 22.5 24.050781 L 22.5 25.550781 L 21 25.550781 L 21 27.050781 L 19.5 27.050781 L 19.5 25.550781 L 18 25.550781 L 18 24.050781 L 19.5 24.050781 Z M 27.75 22.550781 C 28.167969 22.550781 28.5 22.886719 28.5 23.300781 C 28.5 23.714844 28.167969 24.050781 27.75 24.050781 C 27.339844 24.050781 27 23.714844 27 23.300781 C 27 22.886719 27.339844 22.550781 27.75 22.550781 Z M 26.25 24.050781 C 26.667969 24.050781 27 24.386719 27 24.800781 C 27 25.214844 26.667969 25.550781 26.25 25.550781 C 25.839844 25.550781 25.5 25.214844 25.5 24.800781 C 25.5 24.386719 25.839844 24.050781 26.25 24.050781 Z M 29.25 24.050781 C 29.667969 24.050781 30 24.386719 30 24.800781 C 30 25.214844 29.667969 25.550781 29.25 25.550781 C 28.839844 25.550781 28.5 25.214844 28.5 24.800781 C 28.5 24.386719 28.839844 24.050781 29.25 24.050781 Z M 27.75 25.550781 C 28.167969 25.550781 28.5 25.886719 28.5 26.300781 C 28.5 26.714844 28.167969 27.050781 27.75 27.050781 C 27.339844 27.050781 27 26.714844 27 26.300781 C 27 25.886719 27.339844 25.550781 27.75 25.550781 Z M 27.75 25.550781 "/>
</g>
</svg>
