<?xml version="1.0" encoding="UTF-8"?>
<svg xmlns="http://www.w3.org/2000/svg" xmlns:xlink="http://www.w3.org/1999/xlink" width="48pt" height="48pt" viewBox="0 0 48 48" version="1.1">
<g id="surface1">
<path style=" stroke:none;fill-rule:nonzero;fill:rgb(60.392157%,60.392157%,60.392157%);fill-opacity:1;" d="M 41.855469 10.089844 C 43.609375 10.089844 45.019531 11.5 45.019531 13.253906 L 45.019531 39.671875 C 45.019531 41.421875 43.609375 42.832031 41.855469 42.832031 L 6.144531 42.832031 C 4.390625 42.832031 2.980469 41.421875 2.980469 39.671875 L 2.980469 15.300781 L 2.984375 7.703125 C 2.984375 6.296875 4.113281 5.167969 5.519531 5.167969 L 19.15625 5.167969 C 20.5625 5.167969 21.714844 5.722656 22.609375 6.808594 L 25.3125 10.097656 Z M 41.855469 10.089844 "/>
<path style=" stroke:none;fill-rule:nonzero;fill:rgb(0%,0%,0%);fill-opacity:0.65098;" d="M 30.75 16.488281 C 27.847656 16.488281 25.5 18.839844 25.5 21.738281 C 25.5 21.75 25.5 21.765625 25.503906 21.777344 L 22.015625 27.109375 C 21.683594 27.03125 21.34375 26.988281 21 26.988281 C 20.324219 26.988281 19.652344 27.144531 19.042969 27.441406 L 12.402344 23.609375 C 12.140625 24.71875 12.003906 25.847656 12 26.988281 C 12.003906 27.535156 12.042969 28.089844 12.109375 28.636719 L 16.511719 31.175781 C 16.503906 31.28125 16.5 31.386719 16.5 31.488281 C 16.5 33.972656 18.515625 35.988281 21 35.988281 C 23.484375 35.988281 25.5 33.972656 25.5 31.488281 C 25.496094 31.28125 25.480469 31.078125 25.449219 30.875 L 30.90625 26.980469 C 33.746094 26.890625 35.996094 24.574219 36 21.738281 C 36 18.839844 33.652344 16.488281 30.75 16.488281 Z M 30.75 17.988281 C 32.824219 17.988281 34.5 19.667969 34.5 21.738281 C 34.5 23.808594 32.824219 25.488281 30.75 25.488281 C 28.675781 25.488281 27 23.808594 27 21.738281 C 27 19.667969 28.675781 17.988281 30.75 17.988281 Z M 30.75 19.488281 C 29.503906 19.488281 28.5 20.496094 28.5 21.738281 C 28.5 22.980469 29.503906 23.988281 30.75 23.988281 C 31.996094 23.988281 33 22.980469 33 21.738281 C 33 20.496094 31.996094 19.488281 30.75 19.488281 Z M 21 28.488281 C 22.65625 28.488281 24 29.828125 24 31.488281 C 24 33.144531 22.65625 34.488281 21 34.488281 C 19.566406 34.484375 18.339844 33.472656 18.0625 32.066406 L 19.121094 32.683594 C 20.199219 33.308594 21.566406 32.9375 22.191406 31.859375 C 22.816406 30.78125 22.449219 29.410156 21.371094 28.785156 L 20.863281 28.496094 C 20.90625 28.488281 20.953125 28.488281 21 28.488281 Z M 21 28.488281 "/>
</g>
</svg>
