<?xml version="1.0" encoding="UTF-8"?>
<svg xmlns="http://www.w3.org/2000/svg" xmlns:xlink="http://www.w3.org/1999/xlink" width="48pt" height="48pt" viewBox="0 0 48 48" version="1.1">
<g id="surface1">
<path style=" stroke:none;fill-rule:nonzero;fill:rgb(36.078431%,64.705882%,26.27451%);fill-opacity:1;" d="M 41.855469 10.089844 C 43.609375 10.089844 45.019531 11.5 45.019531 13.253906 L 45.019531 39.671875 C 45.019531 41.421875 43.609375 42.832031 41.855469 42.832031 L 6.144531 42.832031 C 4.390625 42.832031 2.980469 41.421875 2.980469 39.671875 L 2.980469 15.300781 L 2.984375 7.703125 C 2.984375 6.296875 4.113281 5.167969 5.519531 5.167969 L 19.15625 5.167969 C 20.5625 5.167969 21.714844 5.722656 22.609375 6.808594 L 25.3125 10.097656 Z M 41.855469 10.089844 "/>
<path style=" stroke:none;fill-rule:nonzero;fill:rgb(0%,0%,0%);fill-opacity:0.65098;" d="M 26.984375 18.734375 C 26.238281 18.765625 25.339844 19.171875 24.808594 19.71875 C 24.328125 20.207031 23.90625 20.984375 24.015625 21.730469 C 24.847656 21.785156 25.699219 21.359375 26.214844 20.8125 C 26.730469 20.261719 27.078125 19.5 26.984375 18.734375 Z M 26.496094 21.746094 C 25.503906 21.824219 24.605469 22.472656 24.09375 22.472656 C 23.515625 22.472656 22.621094 21.769531 21.667969 21.785156 C 20.417969 21.808594 19.261719 22.5625 18.621094 23.765625 C 17.316406 26.1875 18.28125 29.769531 19.546875 31.734375 C 20.167969 32.691406 20.910156 33.777344 21.878906 33.734375 C 22.8125 33.699219 23.167969 33.082031 24.292969 33.082031 C 25.421875 33.082031 25.734375 33.734375 26.722656 33.714844 C 27.730469 33.699219 28.363281 32.738281 28.980469 31.769531 C 29.6875 30.660156 29.980469 29.578125 30 29.519531 C 29.980469 29.511719 28.042969 28.71875 28.019531 26.328125 C 28.003906 24.328125 29.546875 23.363281 29.613281 23.316406 C 28.75 21.957031 27.402344 21.769531 26.921875 21.75 C 26.777344 21.734375 26.636719 21.734375 26.496094 21.746094 Z M 26.496094 21.746094 "/>
</g>
</svg>
