<?xml version="1.0" encoding="UTF-8"?>
<svg xmlns="http://www.w3.org/2000/svg" xmlns:xlink="http://www.w3.org/1999/xlink" width="48pt" height="48pt" viewBox="0 0 48 48" version="1.1">
<g id="surface1">
<path style=" stroke:none;fill-rule:nonzero;fill:rgb(30.980392%,30.980392%,30.980392%);fill-opacity:1;" d="M 41.855469 10.089844 C 43.609375 10.089844 45.019531 11.5 45.019531 13.253906 L 45.019531 39.671875 C 45.019531 41.421875 43.609375 42.832031 41.855469 42.832031 L 6.144531 42.832031 C 4.390625 42.832031 2.980469 41.421875 2.980469 39.671875 L 2.980469 15.300781 L 2.984375 7.703125 C 2.984375 6.296875 4.113281 5.167969 5.519531 5.167969 L 19.15625 5.167969 C 20.5625 5.167969 21.714844 5.722656 22.609375 6.808594 L 25.3125 10.097656 Z M 41.855469 10.089844 "/>
<path style=" stroke:none;fill-rule:nonzero;fill:rgb(10.980392%,10.980392%,10.980392%);fill-opacity:1;" d="M 26.984375 17.949219 C 26.238281 17.972656 25.339844 18.386719 24.800781 18.933594 C 24.328125 19.421875 23.90625 20.199219 24.015625 20.941406 C 24.84375 21 25.699219 20.574219 26.214844 20.027344 C 26.730469 19.472656 27.078125 18.714844 26.984375 17.949219 Z M 26.488281 20.957031 C 25.503906 21.035156 24.605469 21.683594 24.09375 21.683594 C 23.515625 21.683594 22.621094 20.980469 21.667969 21 C 20.417969 21.019531 19.261719 21.777344 18.613281 22.980469 C 17.316406 25.402344 18.28125 28.984375 19.546875 30.941406 C 20.167969 31.90625 21 32.949219 21.878906 32.949219 C 22.753906 32.949219 23.160156 32.296875 24.292969 32.296875 C 25.421875 32.296875 25.722656 32.925781 26.722656 32.925781 C 27.722656 32.925781 28.363281 31.949219 28.972656 30.984375 C 29.6875 29.875 29.984375 28.792969 30 28.734375 C 29.980469 28.722656 28.042969 27.933594 28.019531 25.542969 C 28 23.535156 29.546875 22.574219 29.613281 22.53125 C 28.75 21.171875 27.402344 20.984375 26.921875 20.964844 C 26.777344 20.941406 26.636719 20.949219 26.488281 20.957031 Z M 26.488281 20.957031 "/>
</g>
</svg>
