<?xml version="1.0" encoding="UTF-8"?>
<svg xmlns="http://www.w3.org/2000/svg" xmlns:xlink="http://www.w3.org/1999/xlink" width="48pt" height="48pt" viewBox="0 0 48 48" version="1.1">
<g id="surface1">
<path style=" stroke:none;fill-rule:nonzero;fill:rgb(32.156863%,58.039216%,88.627451%);fill-opacity:1;" d="M 41.855469 10.089844 C 43.609375 10.089844 45.019531 11.5 45.019531 13.253906 L 45.019531 39.671875 C 45.019531 41.421875 43.609375 42.832031 41.855469 42.832031 L 6.144531 42.832031 C 4.390625 42.832031 2.980469 41.421875 2.980469 39.671875 L 2.980469 15.300781 L 2.984375 7.703125 C 2.984375 6.296875 4.113281 5.167969 5.519531 5.167969 L 19.15625 5.167969 C 20.5625 5.167969 21.714844 5.722656 22.609375 6.808594 L 25.3125 10.097656 Z M 41.855469 10.089844 "/>
<path style="fill-rule:nonzero;fill:rgb(14.509804%,22.352941%,31.764706%);fill-opacity:1;stroke-width:0.5;stroke-linecap:round;stroke-linejoin:round;stroke:rgb(32.156863%,58.039216%,88.627451%);stroke-opacity:1;stroke-miterlimit:4;" d="M 19.75 17.999779 C 19.75 19.244571 18.742188 20.249779 17.5 20.249779 C 16.257812 20.249779 15.25 19.244571 15.25 17.999779 C 15.25 16.757592 16.257812 15.749779 17.5 15.749779 C 18.742188 15.749779 19.75 16.757592 19.75 17.999779 Z M 19.75 17.999779 " transform="matrix(1.5,0,0,1.5,0.75,-0.870763)"/>
<path style="fill-rule:nonzero;fill:rgb(14.509804%,22.352941%,31.764706%);fill-opacity:1;stroke-width:0.5;stroke-linecap:round;stroke-linejoin:round;stroke:rgb(32.156863%,58.039216%,88.627451%);stroke-opacity:1;stroke-miterlimit:4;" d="M 23.25 21.999779 C 23.25 22.692488 22.690104 23.249779 22 23.249779 C 21.309896 23.249779 20.75 22.692488 20.75 21.999779 C 20.75 21.309675 21.309896 20.749779 22 20.749779 C 22.690104 20.749779 23.25 21.309675 23.25 21.999779 Z M 23.25 21.999779 " transform="matrix(1.5,0,0,1.5,0.75,-0.870763)"/>
<path style="fill-rule:nonzero;fill:rgb(14.509804%,22.352941%,31.764706%);fill-opacity:1;stroke-width:0.5;stroke-linecap:round;stroke-linejoin:round;stroke:rgb(32.156863%,58.039216%,88.627451%);stroke-opacity:1;stroke-miterlimit:4;" d="M 21.75 20.749779 C 21.75 22.129988 20.632812 23.249779 19.25 23.249779 C 17.867188 23.249779 16.75 22.129988 16.75 20.749779 C 16.75 19.369571 17.867188 18.249779 19.25 18.249779 C 20.632812 18.249779 21.75 19.369571 21.75 20.749779 Z M 21.75 20.749779 " transform="matrix(1.5,0,0,1.5,0.75,-0.870763)"/>
<path style="fill-rule:nonzero;fill:rgb(14.509804%,22.352941%,31.764706%);fill-opacity:1;stroke-width:0.5;stroke-linecap:round;stroke-linejoin:round;stroke:rgb(32.156863%,58.039216%,88.627451%);stroke-opacity:1;stroke-miterlimit:4;" d="M 12.25 20.999779 C 12.25 22.244571 11.242188 23.249779 10 23.249779 C 8.757812 23.249779 7.75 22.244571 7.75 20.999779 C 7.75 19.757592 8.757812 18.749779 10 18.749779 C 11.242188 18.749779 12.25 19.757592 12.25 20.999779 Z M 12.25 20.999779 " transform="matrix(1.5,0,0,1.5,0.75,-0.870763)"/>
<path style="fill-rule:nonzero;fill:rgb(14.509804%,22.352941%,31.764706%);fill-opacity:1;stroke-width:0.5;stroke-linecap:round;stroke-linejoin:round;stroke:rgb(32.156863%,58.039216%,88.627451%);stroke-opacity:1;stroke-miterlimit:4;" d="M 13.75 16.249779 C 13.75 17.077904 13.080729 17.749779 12.25 17.749779 C 11.419271 17.749779 10.75 17.077904 10.75 16.249779 C 10.75 15.421654 11.419271 14.749779 12.25 14.749779 C 13.080729 14.749779 13.75 15.421654 13.75 16.249779 Z M 13.75 16.249779 " transform="matrix(1.5,0,0,1.5,0.75,-0.870763)"/>
<path style="fill-rule:nonzero;fill:rgb(14.509804%,22.352941%,31.764706%);fill-opacity:1;stroke-width:0.5;stroke-linecap:round;stroke-linejoin:round;stroke:rgb(32.156863%,58.039216%,88.627451%);stroke-opacity:1;stroke-miterlimit:4;" d="M 15.25 18.999779 C 15.25 20.518008 14.018229 21.749779 12.5 21.749779 C 10.981771 21.749779 9.75 20.518008 9.75 18.999779 C 9.75 17.478946 10.981771 16.249779 12.5 16.249779 C 14.018229 16.249779 15.25 17.478946 15.25 18.999779 Z M 15.25 18.999779 " transform="matrix(1.5,0,0,1.5,0.75,-0.870763)"/>
<path style="fill-rule:nonzero;fill:rgb(14.509804%,22.352941%,31.764706%);fill-opacity:1;stroke-width:0.5;stroke-linecap:round;stroke-linejoin:round;stroke:rgb(32.156863%,58.039216%,88.627451%);stroke-opacity:1;stroke-miterlimit:4;" d="M 13.5 21.999779 C 13.5 22.692488 12.940104 23.249779 12.25 23.249779 C 11.559896 23.249779 11 22.692488 11 21.999779 C 11 21.309675 11.559896 20.749779 12.25 20.749779 C 12.940104 20.749779 13.5 21.309675 13.5 21.999779 Z M 13.5 21.999779 " transform="matrix(1.5,0,0,1.5,0.75,-0.870763)"/>
<path style="fill-rule:nonzero;fill:rgb(14.509804%,22.352941%,31.764706%);fill-opacity:1;stroke-width:0.5;stroke-linecap:round;stroke-linejoin:round;stroke:rgb(32.156863%,58.039216%,88.627451%);stroke-opacity:1;stroke-miterlimit:4;" d="M 17.25 16.749779 C 17.25 18.129988 16.132812 19.249779 14.75 19.249779 C 13.367188 19.249779 12.25 18.129988 12.25 16.749779 C 12.25 15.369571 13.367188 14.249779 14.75 14.249779 C 16.132812 14.249779 17.25 15.369571 17.25 16.749779 Z M 17.25 16.749779 " transform="matrix(1.5,0,0,1.5,0.75,-0.870763)"/>
<path style="fill-rule:nonzero;fill:rgb(14.509804%,22.352941%,31.764706%);fill-opacity:1;stroke-width:0.5;stroke-linecap:round;stroke-linejoin:round;stroke:rgb(32.156863%,58.039216%,88.627451%);stroke-opacity:1;stroke-miterlimit:4;" d="M 18.75 19.999779 C 18.75 21.796654 17.294271 23.249779 15.5 23.249779 C 13.705729 23.249779 12.25 21.796654 12.25 19.999779 C 12.25 18.205508 13.705729 16.749779 15.5 16.749779 C 17.294271 16.749779 18.75 18.205508 18.75 19.999779 Z M 18.75 19.999779 " transform="matrix(1.5,0,0,1.5,0.75,-0.870763)"/>
</g>
</svg>
