<?xml version="1.0" encoding="UTF-8"?>
<svg xmlns="http://www.w3.org/2000/svg" xmlns:xlink="http://www.w3.org/1999/xlink" width="48pt" height="48pt" viewBox="0 0 48 48" version="1.1">
<g id="surface1">
<path style=" stroke:none;fill-rule:nonzero;fill:rgb(32.156863%,58.039216%,88.627451%);fill-opacity:1;" d="M 41.855469 10.089844 C 43.609375 10.089844 45.019531 11.5 45.019531 13.253906 L 45.019531 39.671875 C 45.019531 41.421875 43.609375 42.832031 41.855469 42.832031 L 6.144531 42.832031 C 4.390625 42.832031 2.980469 41.421875 2.980469 39.671875 L 2.980469 15.300781 L 2.984375 7.703125 C 2.984375 6.296875 4.113281 5.167969 5.519531 5.167969 L 19.15625 5.167969 C 20.5625 5.167969 21.714844 5.722656 22.609375 6.808594 L 25.3125 10.097656 Z M 41.855469 10.089844 "/>
<path style=" stroke:none;fill-rule:nonzero;fill:rgb(0%,0%,0%);fill-opacity:0.65098;" d="M 24 17.644531 C 19.03125 17.644531 15 21.671875 15 26.644531 C 15 31.613281 19.03125 35.644531 24 35.644531 C 28.96875 35.644531 33 31.613281 33 26.644531 C 33 21.671875 28.96875 17.644531 24 17.644531 Z M 19.5 22.144531 L 22.5 22.144531 L 24 23.644531 L 25.5 22.144531 L 28.5 22.144531 L 28.5 31.144531 L 25.5 31.144531 L 25.5 26.644531 L 24 28.144531 L 22.5 26.644531 L 22.5 31.144531 L 19.5 31.144531 Z M 19.5 22.144531 "/>
</g>
</svg>
