<?xml version="1.0" encoding="UTF-8"?>
<svg xmlns="http://www.w3.org/2000/svg" xmlns:xlink="http://www.w3.org/1999/xlink" width="48pt" height="48pt" viewBox="0 0 48 48" version="1.1">
<g id="surface1">
<path style=" stroke:none;fill-rule:nonzero;fill:rgb(36.078431%,64.705882%,26.27451%);fill-opacity:1;" d="M 41.855469 10.089844 C 43.609375 10.089844 45.019531 11.5 45.019531 13.253906 L 45.019531 39.671875 C 45.019531 41.421875 43.609375 42.832031 41.855469 42.832031 L 6.144531 42.832031 C 4.390625 42.832031 2.980469 41.421875 2.980469 39.671875 L 2.980469 15.300781 L 2.984375 7.703125 C 2.984375 6.296875 4.113281 5.167969 5.519531 5.167969 L 19.15625 5.167969 C 20.5625 5.167969 21.714844 5.722656 22.609375 6.808594 L 25.3125 10.097656 Z M 41.855469 10.089844 "/>
<path style=" stroke:none;fill-rule:nonzero;fill:rgb(0%,0%,0%);fill-opacity:0.65098;" d="M 22.511719 16.765625 C 22.511719 16.765625 23.375 17.296875 22.765625 18.6875 C 21.84375 20.785156 23.621094 21.265625 23.621094 21.265625 C 23.621094 21.265625 23.058594 20.777344 23.808594 19.042969 C 24.636719 17.125 22.511719 16.765625 22.511719 16.765625 Z M 24.902344 19.660156 C 24.902344 19.660156 23.328125 20.355469 24.339844 22.265625 C 25.011719 23.53125 24.265625 24.160156 24.265625 24.160156 C 24.265625 24.160156 26.167969 23.53125 25.25 21.785156 C 24.425781 20.207031 24.902344 19.660156 24.902344 19.660156 Z M 20.003906 19.765625 C 20.003906 19.765625 18.875 20.964844 19.988281 22.4375 C 20.730469 23.421875 20.246094 24.265625 20.246094 24.265625 C 20.246094 24.265625 21.644531 23.03125 20.636719 21.671875 C 19.722656 20.453125 20.003906 19.765625 20.003906 19.765625 Z M 20.246094 24.265625 L 16.5 24.265625 L 18.75 33.265625 L 27 33.265625 L 27.511719 31.792969 C 27.761719 31.855469 28.015625 31.894531 28.285156 31.894531 C 30.0625 31.894531 31.5 30.753906 31.5 28.980469 C 31.5 27.472656 30.457031 26.222656 29.0625 25.871094 L 29.359375 24.265625 Z M 28.800781 26.90625 C 28.816406 26.90625 28.828125 26.910156 28.839844 26.910156 C 29.410156 27.066406 29.625 28.113281 29.324219 29.261719 C 29.019531 30.375 28.332031 31.167969 27.765625 31.058594 Z M 28.800781 26.90625 "/>
</g>
</svg>
