<?xml version="1.0" encoding="UTF-8"?>
<svg xmlns="http://www.w3.org/2000/svg" xmlns:xlink="http://www.w3.org/1999/xlink" width="48pt" height="48pt" viewBox="0 0 48 48" version="1.1">
<g id="surface1">
<path style=" stroke:none;fill-rule:nonzero;fill:rgb(32.156863%,58.039216%,88.627451%);fill-opacity:1;" d="M 41.855469 10.089844 C 43.609375 10.089844 45.019531 11.5 45.019531 13.253906 L 45.019531 39.671875 C 45.019531 41.421875 43.609375 42.832031 41.855469 42.832031 L 6.144531 42.832031 C 4.390625 42.832031 2.980469 41.421875 2.980469 39.671875 L 2.980469 15.300781 L 2.984375 7.703125 C 2.984375 6.296875 4.113281 5.167969 5.519531 5.167969 L 19.15625 5.167969 C 20.5625 5.167969 21.714844 5.722656 22.609375 6.808594 L 25.3125 10.097656 Z M 41.855469 10.089844 "/>
<path style=" stroke:none;fill-rule:nonzero;fill:rgb(0%,0%,0%);fill-opacity:0.65098;" d="M 20.25 22.347656 C 17.765625 22.347656 15.75 24.359375 15.75 26.847656 C 15.75 29.332031 17.765625 31.347656 20.25 31.347656 C 22.15625 31.347656 23.847656 30.140625 24.484375 28.347656 L 27.75 28.347656 L 27.75 29.847656 L 30.75 29.847656 L 30.75 28.347656 L 32.25 28.347656 L 32.25 25.347656 L 24.484375 25.347656 C 23.847656 23.550781 22.15625 22.347656 20.25 22.347656 Z M 20.25 25.347656 C 21.078125 25.347656 21.75 26.019531 21.75 26.847656 C 21.75 27.675781 21.078125 28.347656 20.25 28.347656 C 19.421875 28.347656 18.75 27.675781 18.75 26.847656 C 18.75 26.019531 19.421875 25.347656 20.25 25.347656 Z M 20.25 25.347656 "/>
</g>
</svg>
