<?xml version="1.0" encoding="UTF-8"?>
<svg xmlns="http://www.w3.org/2000/svg" xmlns:xlink="http://www.w3.org/1999/xlink" width="48pt" height="48pt" viewBox="0 0 48 48" version="1.1">
<g id="surface1">
<path style=" stroke:none;fill-rule:nonzero;fill:rgb(52.156863%,41.960784%,20.784314%);fill-opacity:1;" d="M 41.855469 10.089844 C 43.609375 10.089844 45.019531 11.5 45.019531 13.253906 L 45.019531 39.671875 C 45.019531 41.421875 43.609375 42.832031 41.855469 42.832031 L 6.144531 42.832031 C 4.390625 42.832031 2.980469 41.421875 2.980469 39.671875 L 2.980469 15.300781 L 2.984375 7.703125 C 2.984375 6.296875 4.113281 5.167969 5.519531 5.167969 L 19.15625 5.167969 C 20.5625 5.167969 21.714844 5.722656 22.609375 6.808594 L 25.3125 10.097656 Z M 41.855469 10.089844 "/>
<path style=" stroke:none;fill-rule:nonzero;fill:rgb(0%,0%,0%);fill-opacity:0.65098;" d="M 22.109375 18.738281 L 21.941406 20.714844 C 21.308594 20.949219 20.722656 21.28125 20.203125 21.707031 L 18.390625 20.863281 L 16.5 24.113281 L 18.144531 25.246094 C 18.089844 25.574219 18.058594 25.90625 18.050781 26.238281 C 18.050781 26.574219 18.082031 26.910156 18.140625 27.238281 L 16.5 28.363281 L 18.390625 31.613281 L 20.199219 30.765625 C 20.71875 31.191406 21.308594 31.53125 21.941406 31.761719 L 22.109375 33.738281 L 25.890625 33.738281 L 26.058594 31.765625 C 26.691406 31.53125 27.277344 31.191406 27.796875 30.765625 L 29.609375 31.609375 L 31.5 28.363281 L 29.855469 27.234375 C 29.910156 26.90625 29.941406 26.574219 29.941406 26.238281 C 29.941406 25.902344 29.910156 25.566406 29.855469 25.238281 L 31.496094 24.109375 L 29.609375 20.863281 L 27.796875 21.707031 C 27.277344 21.28125 26.6875 20.949219 26.058594 20.71875 L 25.890625 18.738281 Z M 24 23.238281 C 25.65625 23.238281 27 24.578125 27 26.238281 C 27 27.894531 25.65625 29.238281 24 29.238281 C 22.34375 29.238281 21 27.894531 21 26.238281 C 21 24.578125 22.34375 23.238281 24 23.238281 Z M 24 23.238281 "/>
</g>
</svg>
