<?xml version="1.0" encoding="UTF-8"?>
<svg xmlns="http://www.w3.org/2000/svg" xmlns:xlink="http://www.w3.org/1999/xlink" width="48pt" height="48pt" viewBox="0 0 48 48" version="1.1">
<g id="surface1">
<path style=" stroke:none;fill-rule:nonzero;fill:rgb(60.392157%,60.392157%,60.392157%);fill-opacity:1;" d="M 41.855469 10.089844 C 43.609375 10.089844 45.019531 11.5 45.019531 13.253906 L 45.019531 39.671875 C 45.019531 41.421875 43.609375 42.832031 41.855469 42.832031 L 6.144531 42.832031 C 4.390625 42.832031 2.980469 41.421875 2.980469 39.671875 L 2.980469 15.300781 L 2.984375 7.703125 C 2.984375 6.296875 4.113281 5.167969 5.519531 5.167969 L 19.15625 5.167969 C 20.5625 5.167969 21.714844 5.722656 22.609375 6.808594 L 25.3125 10.097656 Z M 41.855469 10.089844 "/>
<path style=" stroke:none;fill-rule:nonzero;fill:rgb(0%,0%,0%);fill-opacity:0.65098;" d="M 19.5 18.738281 L 19.5 21.738281 L 28.5 21.738281 L 28.5 18.738281 Z M 17.574219 23.238281 C 17.035156 23.238281 16.5 23.761719 16.5 24.285156 L 16.5 28.1875 C 16.5 28.714844 17.035156 29.238281 17.574219 29.238281 L 19.5 29.238281 L 19.5 33.738281 L 28.5 33.738281 L 28.5 29.238281 L 30.425781 29.238281 C 30.964844 29.238281 31.5 28.714844 31.5 28.1875 L 31.5 24.285156 C 31.5 23.761719 30.964844 23.238281 30.425781 23.238281 Z M 19.5 26.238281 L 28.5 26.238281 L 28.5 27.738281 L 19.5 27.738281 Z M 19.5 26.238281 "/>
</g>
</svg>
