<?xml version="1.0" encoding="UTF-8"?>
<svg xmlns="http://www.w3.org/2000/svg" xmlns:xlink="http://www.w3.org/1999/xlink" width="48pt" height="48pt" viewBox="0 0 48 48" version="1.1">
<g id="surface1">
<path style=" stroke:none;fill-rule:nonzero;fill:rgb(88.627451%,32.156863%,32.156863%);fill-opacity:1;" d="M 41.855469 10.089844 C 43.609375 10.089844 45.019531 11.5 45.019531 13.253906 L 45.019531 39.671875 C 45.019531 41.421875 43.609375 42.832031 41.855469 42.832031 L 6.144531 42.832031 C 4.390625 42.832031 2.980469 41.421875 2.980469 39.671875 L 2.980469 15.300781 L 2.984375 7.703125 C 2.984375 6.296875 4.113281 5.167969 5.519531 5.167969 L 19.15625 5.167969 C 20.5625 5.167969 21.714844 5.722656 22.609375 6.808594 L 25.3125 10.097656 Z M 41.855469 10.089844 "/>
<path style="fill-rule:nonzero;fill:rgb(30.980392%,11.372549%,11.372549%);fill-opacity:1;stroke-width:0.5;stroke-linecap:round;stroke-linejoin:round;stroke:rgb(88.627451%,32.156863%,32.156863%);stroke-opacity:1;stroke-miterlimit:4;" d="M 19.75 18.000662 C 19.75 19.240246 18.742188 20.250662 17.5 20.250662 C 16.257812 20.250662 15.25 19.240246 15.25 18.000662 C 15.25 16.758475 16.257812 15.750662 17.5 15.750662 C 18.742188 15.750662 19.75 16.758475 19.75 18.000662 Z M 19.75 18.000662 " transform="matrix(1.5,0,0,1.5,0.75,-1.887712)"/>
<path style="fill-rule:nonzero;fill:rgb(30.980392%,11.372549%,11.372549%);fill-opacity:1;stroke-width:0.5;stroke-linecap:round;stroke-linejoin:round;stroke:rgb(88.627451%,32.156863%,32.156863%);stroke-opacity:1;stroke-miterlimit:4;" d="M 23.25 22.000662 C 23.25 22.688162 22.690104 23.250662 22 23.250662 C 21.309896 23.250662 20.75 22.688162 20.75 22.000662 C 20.75 21.310558 21.309896 20.750662 22 20.750662 C 22.690104 20.750662 23.25 21.310558 23.25 22.000662 Z M 23.25 22.000662 " transform="matrix(1.5,0,0,1.5,0.75,-1.887712)"/>
<path style="fill-rule:nonzero;fill:rgb(30.980392%,11.372549%,11.372549%);fill-opacity:1;stroke-width:0.5;stroke-linecap:round;stroke-linejoin:round;stroke:rgb(88.627451%,32.156863%,32.156863%);stroke-opacity:1;stroke-miterlimit:4;" d="M 21.75 20.750662 C 21.75 22.130871 20.632812 23.250662 19.25 23.250662 C 17.867188 23.250662 16.75 22.130871 16.75 20.750662 C 16.75 19.370454 17.867188 18.250662 19.25 18.250662 C 20.632812 18.250662 21.75 19.370454 21.75 20.750662 Z M 21.75 20.750662 " transform="matrix(1.5,0,0,1.5,0.75,-1.887712)"/>
<path style="fill-rule:nonzero;fill:rgb(30.980392%,11.372549%,11.372549%);fill-opacity:1;stroke-width:0.5;stroke-linecap:round;stroke-linejoin:round;stroke:rgb(88.627451%,32.156863%,32.156863%);stroke-opacity:1;stroke-miterlimit:4;" d="M 12.25 21.000662 C 12.25 22.240246 11.242188 23.250662 10 23.250662 C 8.757812 23.250662 7.75 22.240246 7.75 21.000662 C 7.75 19.758475 8.757812 18.750662 10 18.750662 C 11.242188 18.750662 12.25 19.758475 12.25 21.000662 Z M 12.25 21.000662 " transform="matrix(1.5,0,0,1.5,0.75,-1.887712)"/>
<path style="fill-rule:nonzero;fill:rgb(30.980392%,11.372549%,11.372549%);fill-opacity:1;stroke-width:0.5;stroke-linecap:round;stroke-linejoin:round;stroke:rgb(88.627451%,32.156863%,32.156863%);stroke-opacity:1;stroke-miterlimit:4;" d="M 13.75 16.250662 C 13.75 17.078787 13.080729 17.750662 12.25 17.750662 C 11.419271 17.750662 10.75 17.078787 10.75 16.250662 C 10.75 15.422537 11.419271 14.750662 12.25 14.750662 C 13.080729 14.750662 13.75 15.422537 13.75 16.250662 Z M 13.75 16.250662 " transform="matrix(1.5,0,0,1.5,0.75,-1.887712)"/>
<path style="fill-rule:nonzero;fill:rgb(30.980392%,11.372549%,11.372549%);fill-opacity:1;stroke-width:0.5;stroke-linecap:round;stroke-linejoin:round;stroke:rgb(88.627451%,32.156863%,32.156863%);stroke-opacity:1;stroke-miterlimit:4;" d="M 15.25 19.000662 C 15.25 20.518891 14.018229 21.750662 12.5 21.750662 C 10.981771 21.750662 9.75 20.518891 9.75 19.000662 C 9.75 17.479829 10.981771 16.250662 12.5 16.250662 C 14.018229 16.250662 15.25 17.479829 15.25 19.000662 Z M 15.25 19.000662 " transform="matrix(1.5,0,0,1.5,0.75,-1.887712)"/>
<path style="fill-rule:nonzero;fill:rgb(30.980392%,11.372549%,11.372549%);fill-opacity:1;stroke-width:0.5;stroke-linecap:round;stroke-linejoin:round;stroke:rgb(88.627451%,32.156863%,32.156863%);stroke-opacity:1;stroke-miterlimit:4;" d="M 13.5 22.000662 C 13.5 22.688162 12.940104 23.250662 12.25 23.250662 C 11.559896 23.250662 11 22.688162 11 22.000662 C 11 21.310558 11.559896 20.750662 12.25 20.750662 C 12.940104 20.750662 13.5 21.310558 13.5 22.000662 Z M 13.5 22.000662 " transform="matrix(1.5,0,0,1.5,0.75,-1.887712)"/>
<path style="fill-rule:nonzero;fill:rgb(30.980392%,11.372549%,11.372549%);fill-opacity:1;stroke-width:0.5;stroke-linecap:round;stroke-linejoin:round;stroke:rgb(88.627451%,32.156863%,32.156863%);stroke-opacity:1;stroke-miterlimit:4;" d="M 17.25 16.750662 C 17.25 18.130871 16.132812 19.250662 14.75 19.250662 C 13.367188 19.250662 12.25 18.130871 12.25 16.750662 C 12.25 15.370454 13.367188 14.250662 14.75 14.250662 C 16.132812 14.250662 17.25 15.370454 17.25 16.750662 Z M 17.25 16.750662 " transform="matrix(1.5,0,0,1.5,0.75,-1.887712)"/>
<path style="fill-rule:nonzero;fill:rgb(30.980392%,11.372549%,11.372549%);fill-opacity:1;stroke-width:0.5;stroke-linecap:round;stroke-linejoin:round;stroke:rgb(88.627451%,32.156863%,32.156863%);stroke-opacity:1;stroke-miterlimit:4;" d="M 18.747396 20.000662 C 18.747396 21.797537 17.291667 23.250662 15.5 23.250662 C 13.705729 23.250662 12.25 21.797537 12.25 20.000662 C 12.25 18.206391 13.705729 16.750662 15.5 16.750662 C 17.291667 16.750662 18.747396 18.206391 18.747396 20.000662 Z M 18.747396 20.000662 " transform="matrix(1.5,0,0,1.5,0.75,-1.887712)"/>
</g>
</svg>
