<?xml version="1.0" encoding="UTF-8"?>
<svg xmlns="http://www.w3.org/2000/svg" xmlns:xlink="http://www.w3.org/1999/xlink" width="48pt" height="48pt" viewBox="0 0 48 48" version="1.1">
<g id="surface1">
<path style=" stroke:none;fill-rule:nonzero;fill:rgb(32.156863%,58.039216%,88.627451%);fill-opacity:1;" d="M 41.855469 10.089844 C 43.609375 10.089844 45.019531 11.5 45.019531 13.253906 L 45.019531 39.671875 C 45.019531 41.421875 43.609375 42.832031 41.855469 42.832031 L 6.144531 42.832031 C 4.390625 42.832031 2.980469 41.421875 2.980469 39.671875 L 2.980469 15.300781 L 2.984375 7.703125 C 2.984375 6.296875 4.113281 5.167969 5.519531 5.167969 L 19.15625 5.167969 C 20.5625 5.167969 21.714844 5.722656 22.609375 6.808594 L 25.3125 10.097656 Z M 41.855469 10.089844 "/>
<path style=" stroke:none;fill-rule:nonzero;fill:rgb(0%,0%,0%);fill-opacity:0.65098;" d="M 24.8125 30.140625 C 23.613281 30.703125 22.5 30.691406 21.75 30.640625 C 20.855469 30.578125 20.136719 30.332031 19.816406 30.121094 C 19.625 29.984375 19.359375 30.035156 19.230469 30.234375 C 19.09375 30.425781 19.144531 30.691406 19.339844 30.824219 C 19.847656 31.167969 20.75 31.421875 21.6875 31.488281 C 21.84375 31.5 22.019531 31.511719 22.207031 31.511719 C 23.027344 31.511719 24.0625 31.433594 25.175781 30.917969 C 25.386719 30.816406 25.480469 30.5625 25.378906 30.347656 C 25.28125 30.136719 25.03125 30.042969 24.8125 30.140625 Z M 29.550781 29.511719 C 29.59375 25.808594 29.972656 18.816406 22.886719 19.378906 C 15.890625 19.941406 17.746094 27.332031 17.640625 29.808594 C 17.546875 31.121094 17.113281 32.71875 16.5 34.347656 L 18.390625 34.347656 C 18.582031 33.65625 18.730469 32.972656 18.792969 32.324219 C 18.90625 32.40625 19.027344 32.480469 19.15625 32.550781 C 19.371094 32.675781 19.550781 32.84375 19.746094 33.019531 C 20.191406 33.433594 20.703125 33.894531 21.703125 33.953125 C 21.765625 33.957031 21.832031 33.957031 21.902344 33.957031 C 22.910156 33.957031 23.597656 33.519531 24.15625 33.167969 C 24.421875 32.996094 24.652344 32.84375 24.863281 32.777344 C 25.480469 32.582031 26.015625 32.269531 26.417969 31.878906 C 26.480469 31.816406 26.542969 31.753906 26.59375 31.6875 C 26.816406 32.503906 27.125 33.425781 27.464844 34.347656 L 31.5 34.347656 C 30.53125 32.847656 29.53125 31.386719 29.550781 29.511719 Z M 18.316406 27.496094 C 18.25 26.285156 18.828125 25.269531 19.609375 25.230469 C 20.390625 25.183594 21.082031 26.125 21.152344 27.332031 C 21.15625 27.394531 21.15625 27.464844 21.15625 27.527344 C 20.90625 27.589844 20.6875 27.675781 20.484375 27.78125 C 20.484375 27.777344 20.484375 27.765625 20.484375 27.761719 L 20.484375 27.753906 C 20.417969 27.074219 20.050781 26.550781 19.667969 26.597656 C 19.28125 26.644531 19.019531 27.238281 19.089844 27.925781 C 19.121094 28.222656 19.203125 28.496094 19.324219 28.699219 C 19.296875 28.71875 19.207031 28.78125 19.113281 28.855469 C 19.042969 28.90625 18.953125 28.96875 18.84375 29.046875 C 18.550781 28.667969 18.355469 28.113281 18.316406 27.496094 Z M 26.246094 30.484375 C 26.21875 31.121094 25.378906 31.722656 24.609375 31.964844 L 24.605469 31.964844 C 24.285156 32.066406 24 32.25 23.699219 32.449219 C 23.1875 32.769531 22.660156 33.109375 21.902344 33.109375 C 21.855469 33.109375 21.800781 33.105469 21.75 33.105469 C 21.050781 33.0625 20.730469 32.765625 20.316406 32.390625 C 20.097656 32.191406 19.875 31.984375 19.582031 31.816406 L 19.578125 31.8125 C 18.953125 31.457031 18.5625 31.019531 18.542969 30.640625 C 18.527344 30.449219 18.613281 30.285156 18.792969 30.152344 C 19.183594 29.859375 19.441406 29.667969 19.613281 29.535156 C 19.808594 29.402344 19.863281 29.359375 19.910156 29.316406 C 19.9375 29.285156 19.972656 29.253906 20.011719 29.21875 C 20.363281 28.871094 20.964844 28.292969 21.886719 28.292969 C 22.449219 28.292969 23.074219 28.503906 23.734375 28.933594 C 24.046875 29.136719 24.316406 29.230469 24.660156 29.347656 C 24.902344 29.425781 25.167969 29.519531 25.527344 29.675781 L 25.53125 29.675781 C 25.871094 29.816406 26.265625 30.066406 26.246094 30.484375 Z M 26.0625 28.984375 C 25.996094 28.953125 25.925781 28.921875 25.859375 28.890625 C 25.535156 28.753906 25.277344 28.65625 25.0625 28.582031 C 25.175781 28.347656 25.25 28.058594 25.261719 27.746094 C 25.277344 26.980469 24.890625 26.355469 24.394531 26.355469 C 23.902344 26.355469 23.488281 26.972656 23.472656 27.738281 C 23.46875 27.765625 23.46875 27.792969 23.46875 27.816406 C 23.167969 27.675781 22.871094 27.574219 22.574219 27.511719 C 22.574219 27.484375 22.574219 27.453125 22.574219 27.425781 L 22.574219 27.421875 C 22.542969 26.027344 23.402344 24.871094 24.488281 24.839844 C 25.574219 24.8125 26.472656 25.921875 26.503906 27.316406 C 26.519531 27.949219 26.347656 28.53125 26.058594 28.984375 Z M 26.0625 28.984375 "/>
</g>
</svg>
