<?xml version="1.0" encoding="UTF-8"?>
<svg xmlns="http://www.w3.org/2000/svg" xmlns:xlink="http://www.w3.org/1999/xlink" width="48pt" height="48pt" viewBox="0 0 48 48" version="1.1">
<g id="surface1">
<path style=" stroke:none;fill-rule:nonzero;fill:rgb(30.980392%,30.980392%,30.980392%);fill-opacity:1;" d="M 41.855469 10.089844 C 43.609375 10.089844 45.019531 11.5 45.019531 13.253906 L 45.019531 39.671875 C 45.019531 41.421875 43.609375 42.832031 41.855469 42.832031 L 6.144531 42.832031 C 4.390625 42.832031 2.980469 41.421875 2.980469 39.671875 L 2.980469 15.300781 L 2.984375 7.703125 C 2.984375 6.296875 4.113281 5.167969 5.519531 5.167969 L 19.15625 5.167969 C 20.5625 5.167969 21.714844 5.722656 22.609375 6.808594 L 25.3125 10.097656 Z M 41.855469 10.089844 "/>
<path style=" stroke:none;fill-rule:nonzero;fill:rgb(0%,0%,0%);fill-opacity:0.65098;" d="M 20.316406 24.160156 C 20.265625 24.171875 20.214844 24.1875 20.167969 24.214844 C 19.683594 24.4375 19.558594 25.144531 19.886719 25.800781 C 20.15625 26.328125 20.625 26.65625 21.058594 26.644531 C 21.378906 28.402344 22.667969 29.707031 24.203125 29.707031 C 25.738281 29.707031 27.027344 28.402344 27.347656 26.644531 C 27.78125 26.65625 28.25 26.328125 28.519531 25.800781 C 28.847656 25.144531 28.722656 24.4375 28.238281 24.214844 C 28.191406 24.1875 28.140625 24.171875 28.089844 24.160156 C 28.027344 22.238281 26.3125 20.707031 24.203125 20.707031 C 22.09375 20.707031 20.378906 22.238281 20.316406 24.160156 Z M 24.199219 31.207031 C 23.324219 31.207031 22.535156 30.769531 21.953125 30.078125 C 19.503906 30.441406 16.890625 30.964844 16.730469 31.5625 C 16.722656 31.574219 16.730469 31.582031 16.730469 31.589844 C 16.71875 31.621094 16.71875 31.644531 16.714844 31.675781 C 16.714844 31.691406 16.703125 31.699219 16.703125 31.714844 L 16.703125 33.808594 C 16.703125 34.03125 16.871094 34.207031 17.078125 34.207031 L 31.328125 34.207031 C 31.535156 34.207031 31.703125 34.03125 31.703125 33.808594 L 31.703125 31.699219 C 31.703125 31.652344 31.683594 31.609375 31.667969 31.5625 C 31.496094 30.941406 28.957031 30.394531 26.558594 30.03125 C 26.371094 30.292969 26.125 30.527344 25.796875 30.699219 L 25.792969 30.703125 C 25.324219 31.019531 24.78125 31.207031 24.207031 31.207031 "/>
</g>
</svg>
