<?xml version="1.0" encoding="UTF-8"?>
<svg xmlns="http://www.w3.org/2000/svg" xmlns:xlink="http://www.w3.org/1999/xlink" width="48pt" height="48pt" viewBox="0 0 48 48" version="1.1">
<g id="surface1">
<path style=" stroke:none;fill-rule:nonzero;fill:rgb(52.156863%,41.960784%,20.784314%);fill-opacity:1;" d="M 41.855469 10.089844 C 43.609375 10.089844 45.019531 11.5 45.019531 13.253906 L 45.019531 39.671875 C 45.019531 41.421875 43.609375 42.832031 41.855469 42.832031 L 6.144531 42.832031 C 4.390625 42.832031 2.980469 41.421875 2.980469 39.671875 L 2.980469 15.300781 L 2.984375 7.703125 C 2.984375 6.296875 4.113281 5.167969 5.519531 5.167969 L 19.15625 5.167969 C 20.5625 5.167969 21.714844 5.722656 22.609375 6.808594 L 25.3125 10.097656 Z M 41.855469 10.089844 "/>
<path style=" stroke:none;fill-rule:nonzero;fill:rgb(0%,0%,0%);fill-opacity:0.65098;" d="M 24 17.847656 C 19.03125 17.847656 15 21.875 15 26.847656 C 15 31.816406 19.03125 35.847656 24 35.847656 C 28.96875 35.847656 33 31.816406 33 26.847656 C 33 21.875 28.96875 17.847656 24 17.847656 Z M 24 20.847656 C 27.3125 20.847656 30 23.53125 30 26.847656 C 30 30.160156 27.3125 32.847656 24 32.847656 C 20.6875 32.847656 18 30.160156 18 26.847656 C 18 23.53125 20.6875 20.847656 24 20.847656 Z M 22.5 22.347656 L 22.5 28.347656 L 28.5 28.347656 L 28.5 25.347656 L 25.5 25.347656 L 25.5 22.347656 Z M 22.5 22.347656 "/>
</g>
</svg>
