<?xml version="1.0" encoding="UTF-8"?>
<svg xmlns="http://www.w3.org/2000/svg" xmlns:xlink="http://www.w3.org/1999/xlink" width="48pt" height="48pt" viewBox="0 0 48 48" version="1.1">
<g id="surface1">
<path style=" stroke:none;fill-rule:nonzero;fill:rgb(52.156863%,41.960784%,20.784314%);fill-opacity:1;" d="M 41.855469 10.089844 C 43.609375 10.089844 45.019531 11.5 45.019531 13.253906 L 45.019531 39.671875 C 45.019531 41.421875 43.609375 42.832031 41.855469 42.832031 L 6.144531 42.832031 C 4.390625 42.832031 2.980469 41.421875 2.980469 39.671875 L 2.980469 15.300781 L 2.984375 7.703125 C 2.984375 6.296875 4.113281 5.167969 5.519531 5.167969 L 19.15625 5.167969 C 20.5625 5.167969 21.714844 5.722656 22.609375 6.808594 L 25.3125 10.097656 Z M 41.855469 10.089844 "/>
<path style=" stroke:none;fill-rule:nonzero;fill:rgb(0%,0%,0%);fill-opacity:0.65098;" d="M 23.996094 19.078125 C 21.890625 19.078125 20.175781 20.613281 20.113281 22.53125 C 20.0625 22.542969 20.011719 22.5625 19.964844 22.582031 C 19.480469 22.8125 19.355469 23.519531 19.683594 24.175781 C 19.953125 24.703125 20.421875 25.03125 20.855469 25.019531 C 21.175781 26.769531 22.464844 28.078125 23.996094 28.078125 L 24.003906 28.078125 C 25.535156 28.078125 26.824219 26.769531 27.144531 25.019531 C 27.578125 25.03125 28.046875 24.703125 28.316406 24.175781 C 28.644531 23.519531 28.519531 22.8125 28.035156 22.582031 C 27.988281 22.5625 27.9375 22.542969 27.886719 22.53125 C 27.824219 20.613281 26.109375 19.078125 24.003906 19.078125 Z M 26.355469 28.40625 C 26.167969 28.660156 25.921875 28.894531 25.59375 29.074219 L 25.589844 29.074219 C 25.121094 29.394531 24.578125 29.578125 24.003906 29.578125 L 23.996094 29.578125 C 23.121094 29.578125 22.328125 29.144531 21.75 28.453125 C 19.300781 28.8125 16.6875 29.339844 16.527344 29.933594 C 16.519531 29.941406 16.527344 29.953125 16.527344 29.964844 C 16.515625 29.988281 16.515625 30.019531 16.511719 30.046875 C 16.511719 30.0625 16.5 30.074219 16.5 30.089844 L 16.5 32.175781 C 16.5 32.402344 16.667969 32.578125 16.875 32.578125 L 31.125 32.578125 C 31.332031 32.578125 31.5 32.402344 31.5 32.175781 L 31.5 30.074219 C 31.5 30.027344 31.480469 29.984375 31.464844 29.933594 C 31.292969 29.3125 28.753906 28.769531 26.355469 28.40625 Z M 26.355469 28.40625 "/>
</g>
</svg>
