<?xml version="1.0" encoding="UTF-8"?>
<svg xmlns="http://www.w3.org/2000/svg" xmlns:xlink="http://www.w3.org/1999/xlink" width="48pt" height="48pt" viewBox="0 0 48 48" version="1.1">
<g id="surface1">
<path style=" stroke:none;fill-rule:nonzero;fill:rgb(95.686275%,60%,25.098039%);fill-opacity:1;" d="M 41.855469 10.089844 C 43.609375 10.089844 45.019531 11.5 45.019531 13.253906 L 45.019531 39.671875 C 45.019531 41.421875 43.609375 42.832031 41.855469 42.832031 L 6.144531 42.832031 C 4.390625 42.832031 2.980469 41.421875 2.980469 39.671875 L 2.980469 15.300781 L 2.984375 7.703125 C 2.984375 6.296875 4.113281 5.167969 5.519531 5.167969 L 19.15625 5.167969 C 20.5625 5.167969 21.714844 5.722656 22.609375 6.808594 L 25.3125 10.097656 Z M 41.855469 10.089844 "/>
<path style=" stroke:none;fill-rule:nonzero;fill:rgb(0%,0%,0%);fill-opacity:0.65098;" d="M 18.25 19.894531 C 17.699219 19.894531 17.25 20.339844 17.25 20.890625 L 17.25 24.894531 C 17.25 25.449219 17.699219 25.894531 18.25 25.894531 L 22.25 25.894531 C 22.800781 25.894531 23.25 25.449219 23.25 24.894531 L 23.25 20.890625 C 23.25 20.339844 22.808594 19.894531 22.25 19.894531 Z M 25.75 19.894531 C 25.199219 19.894531 24.75 20.339844 24.75 20.890625 L 24.75 24.894531 C 24.75 25.449219 25.199219 25.894531 25.75 25.894531 L 29.75 25.894531 C 30.300781 25.894531 30.75 25.449219 30.75 24.894531 L 30.75 20.890625 C 30.75 20.339844 30.308594 19.894531 29.75 19.894531 Z M 18.25 27.394531 C 17.699219 27.394531 17.25 27.839844 17.25 28.390625 L 17.25 32.394531 C 17.25 32.949219 17.699219 33.394531 18.25 33.394531 L 22.25 33.394531 C 22.800781 33.394531 23.25 32.949219 23.25 32.394531 L 23.25 28.390625 C 23.25 27.839844 22.808594 27.394531 22.25 27.394531 Z M 25.75 27.394531 C 25.199219 27.394531 24.75 27.839844 24.75 28.390625 L 24.75 32.394531 C 24.75 32.949219 25.199219 33.394531 25.75 33.394531 L 29.75 33.394531 C 30.300781 33.394531 30.75 32.949219 30.75 32.394531 L 30.75 28.390625 C 30.75 27.839844 30.308594 27.394531 29.75 27.394531 Z M 25.75 27.394531 "/>
</g>
</svg>
