<?xml version="1.0" encoding="UTF-8" standalone="no"?>
<svg
   xmlns:dc="http://purl.org/dc/elements/1.1/"
   xmlns:cc="http://creativecommons.org/ns#"
   xmlns:rdf="http://www.w3.org/1999/02/22-rdf-syntax-ns#"
   xmlns:svg="http://www.w3.org/2000/svg"
   xmlns="http://www.w3.org/2000/svg"
   xmlns:sodipodi="http://sodipodi.sourceforge.net/DTD/sodipodi-0.dtd"
   xmlns:inkscape="http://www.inkscape.org/namespaces/inkscape"
   width="22"
   height="22"
   viewBox="0 0 16 16"
   version="1.1"
   id="svg7"
   sodipodi:docname="camera-web.svg"
   inkscape:version="0.92.1 r">
  <metadata
     id="metadata11">
    <rdf:RDF>
      <cc:Work
         rdf:about="">
        <dc:format>image/svg+xml</dc:format>
        <dc:type
           rdf:resource="http://purl.org/dc/dcmitype/StillImage" />
      </cc:Work>
    </rdf:RDF>
  </metadata>
  <sodipodi:namedview
     pagecolor="#ffffff"
     bordercolor="#666666"
     borderopacity="1"
     objecttolerance="10"
     gridtolerance="10"
     guidetolerance="10"
     inkscape:pageopacity="0"
     inkscape:pageshadow="2"
     inkscape:window-width="749"
     inkscape:window-height="480"
     id="namedview9"
     showgrid="false"
     inkscape:zoom="10.727273"
     inkscape:cx="11"
     inkscape:cy="11"
     inkscape:window-x="0"
     inkscape:window-y="0"
     inkscape:window-maximized="0"
     inkscape:current-layer="svg7" />
  <defs
     id="defs3">
    <style
       id="current-color-scheme"
       type="text/css">
   .ColorScheme-Text { color:#5c616c; } .ColorScheme-Highlight { color:#5294e2; }
  </style>
  </defs>
  <path
     style="color:#5c616c;fill:currentColor;stroke-width:0.72727275"
     class="ColorScheme-Text"
     d="m 7.9999999,2.9090909 c -2.4099637,0 -4.3636364,1.9536727 -4.3636364,4.3636364 0,1.5178178 0.7787636,2.8546177 1.9545455,3.6363637 h -0.5 c -1.4545455,0 -1.4545455,1.454545 -1.4545455,1.454545 v 0.727273 h 8.7272735 v -0.727273 c 0,0 0,-1.454545 -1.454546,-1.454545 h -0.5 c 1.175782,-0.781746 1.954546,-2.1185459 1.954546,-3.6363637 0,-2.4099637 -1.953673,-4.3636364 -4.3636371,-4.3636364 z m 0,2.9119318 A 1.4545455,1.4545455 0 0 1 9.4545453,7.2755682 1.4545455,1.4545455 0 0 1 7.9999999,8.7301141 1.4545455,1.4545455 0 0 1 6.5454544,7.2755682 1.4545455,1.4545455 0 0 1 7.9999999,5.8210227 Z"
     id="path5"
     inkscape:connector-curvature="0" />
</svg>
