<?xml version="1.0" encoding="UTF-8" standalone="no"?>
<svg
   xmlns:dc="http://purl.org/dc/elements/1.1/"
   xmlns:cc="http://creativecommons.org/ns#"
   xmlns:rdf="http://www.w3.org/1999/02/22-rdf-syntax-ns#"
   xmlns:svg="http://www.w3.org/2000/svg"
   xmlns="http://www.w3.org/2000/svg"
   xmlns:sodipodi="http://sodipodi.sourceforge.net/DTD/sodipodi-0.dtd"
   xmlns:inkscape="http://www.inkscape.org/namespaces/inkscape"
   width="22"
   height="22"
   version="1.1"
   id="svg4"
   sodipodi:docname="drive-harddisk-usb-symbolic.svg"
   inkscape:version="0.92.1 r">
  <metadata
     id="metadata10">
    <rdf:RDF>
      <cc:Work
         rdf:about="">
        <dc:format>image/svg+xml</dc:format>
        <dc:type
           rdf:resource="http://purl.org/dc/dcmitype/StillImage" />
      </cc:Work>
    </rdf:RDF>
  </metadata>
  <defs
     id="defs8" />
  <sodipodi:namedview
     pagecolor="#ffffff"
     bordercolor="#666666"
     borderopacity="1"
     objecttolerance="10"
     gridtolerance="10"
     guidetolerance="10"
     inkscape:pageopacity="0"
     inkscape:pageshadow="2"
     inkscape:window-width="769"
     inkscape:window-height="480"
     id="namedview6"
     showgrid="false"
     inkscape:zoom="10.727273"
     inkscape:cx="11"
     inkscape:cy="11"
     inkscape:window-x="0"
     inkscape:window-y="0"
     inkscape:window-maximized="0"
     inkscape:current-layer="svg4" />
  <path
     style="fill:#5c616c;stroke-width:0.875"
     d="M 11,4 8.8125,7.5 h 1.3125 v 4.375 H 7.5 V 10.764188 C 8.0425,10.449188 8.375,9.87125 8.375,9.25 8.375,8.2875 7.5875,7.5 6.625,7.5 c -0.9625,0 -1.75,0.7875 -1.75,1.75 0,0.62125 0.3325,1.199188 0.875,1.514188 V 11.875 c 0,1.75 1.75,1.75 1.75,1.75 h 2.625 v 1.11125 C 9.5825,15.05125 9.25,15.62875 9.25,16.25 9.25,17.2125 10.0375,18 11,18 c 0.9625,0 1.75,-0.7875 1.75,-1.75 0,-0.62125 -0.3325,-1.19875 -0.875,-1.51375 V 13.625 H 14.5 c 0,0 1.75,0 1.75,-1.75 V 11 c 0.48475,0 0.875,-0.39025 0.875,-0.875 V 8.375 C 17.125,7.89025 16.73475,7.5 16.25,7.5 H 14.5 c -0.48475,0 -0.875,0.39025 -0.875,0.875 v 1.75 c 0,0.48475 0.39025,0.875 0.875,0.875 v 0.875 H 11.875 V 7.5 h 1.3125 z"
     id="path2"
     inkscape:connector-curvature="0" />
</svg>
