<?xml version="1.0" encoding="UTF-8" standalone="no"?>
<svg
   xmlns:dc="http://purl.org/dc/elements/1.1/"
   xmlns:cc="http://creativecommons.org/ns#"
   xmlns:rdf="http://www.w3.org/1999/02/22-rdf-syntax-ns#"
   xmlns:svg="http://www.w3.org/2000/svg"
   xmlns="http://www.w3.org/2000/svg"
   xmlns:sodipodi="http://sodipodi.sourceforge.net/DTD/sodipodi-0.dtd"
   xmlns:inkscape="http://www.inkscape.org/namespaces/inkscape"
   width="22"
   height="22"
   viewBox="0 0 16 16"
   version="1.1"
   id="svg7"
   sodipodi:docname="network-vpn.svg"
   inkscape:version="0.92.1 r">
  <metadata
     id="metadata11">
    <rdf:RDF>
      <cc:Work
         rdf:about="">
        <dc:format>image/svg+xml</dc:format>
        <dc:type
           rdf:resource="http://purl.org/dc/dcmitype/StillImage" />
      </cc:Work>
    </rdf:RDF>
  </metadata>
  <sodipodi:namedview
     pagecolor="#ffffff"
     bordercolor="#666666"
     borderopacity="1"
     objecttolerance="10"
     gridtolerance="10"
     guidetolerance="10"
     inkscape:pageopacity="0"
     inkscape:pageshadow="2"
     inkscape:window-width="749"
     inkscape:window-height="480"
     id="namedview9"
     showgrid="false"
     inkscape:zoom="10.727273"
     inkscape:cx="-2.6101695"
     inkscape:cy="11"
     inkscape:window-x="0"
     inkscape:window-y="0"
     inkscape:window-maximized="0"
     inkscape:current-layer="svg7" />
  <defs
     id="defs3">
    <style
       id="current-color-scheme"
       type="text/css">
   .ColorScheme-Text { color:#5c616c; } .ColorScheme-Highlight { color:#5294e2; }
  </style>
  </defs>
  <path
     style="color:#5c616c;fill:currentColor;stroke-width:0.72727275"
     class="ColorScheme-Text"
     d="m 7.9999999,2.9090909 c -1.6116364,0 -2.9090909,1.3248 -2.9090909,2.9545455 V 7.2727273 H 4.3636362 C 3.9607271,7.2727273 3.6363635,7.5970909 3.6363635,8 v 4.363636 c 0,0.402909 0.3243636,0.727273 0.7272727,0.727273 h 7.2727278 c 0.402908,0 0.727273,-0.324364 0.727273,-0.727273 V 8 c 0,-0.4029091 -0.324365,-0.7272727 -0.727273,-0.7272727 H 10.909091 V 5.8636364 c 0,-1.6290909 -1.2974548,-2.9545455 -2.9090911,-2.9545455 z m 0,1.4545455 c 0.8058181,0 1.4545454,0.6487272 1.4545454,1.4545454 V 7.2727273 H 6.5454544 V 5.8181818 c 0,-0.8058182 0.6487273,-1.4545454 1.4545455,-1.4545454 z"
     id="path5"
     inkscape:connector-curvature="0" />
</svg>
