<?xml version="1.0" encoding="UTF-8"?>
<svg xmlns="http://www.w3.org/2000/svg" xmlns:xlink="http://www.w3.org/1999/xlink" width="48pt" height="48pt" viewBox="0 0 48 48" version="1.1">
<g id="surface1">
<path style=" stroke:none;fill-rule:evenodd;fill:rgb(35.686275%,35.686275%,35.686275%);fill-opacity:1;" d="M 11.207031 2.847656 L 36.792969 2.847656 C 41.40625 2.847656 45.152344 6.59375 45.152344 11.207031 L 45.152344 36.792969 C 45.152344 41.40625 41.40625 45.152344 36.792969 45.152344 L 11.207031 45.152344 C 6.59375 45.152344 2.847656 41.40625 2.847656 36.792969 L 2.847656 11.207031 C 2.847656 6.59375 6.59375 2.847656 11.207031 2.847656 Z M 11.207031 2.847656 "/>
<path style=" stroke:none;fill-rule:nonzero;fill:rgb(35.686275%,35.686275%,35.686275%);fill-opacity:1;" d="M 36.644531 5.214844 L 11.355469 5.214844 C 10.355469 5.214844 9.546875 6.050781 9.546875 7.089844 L 9.546875 40.910156 C 9.546875 41.949219 10.355469 42.785156 11.355469 42.785156 L 36.644531 42.785156 C 37.644531 42.785156 38.453125 41.949219 38.453125 40.910156 L 38.453125 7.089844 C 38.453125 6.050781 37.644531 5.214844 36.644531 5.214844 Z M 36.644531 5.214844 "/>
<path style=" stroke:none;fill-rule:nonzero;fill:rgb(24.313725%,24.313725%,24.313725%);fill-opacity:1;" d="M 24 13.886719 C 31.183594 13.886719 37.003906 19.707031 37.003906 26.890625 C 37.003906 34.074219 31.183594 39.894531 24 39.894531 C 16.816406 39.894531 10.996094 34.074219 10.996094 26.890625 C 10.996094 19.707031 16.816406 13.886719 24 13.886719 Z M 24 13.886719 "/>
<path style=" stroke:none;fill-rule:nonzero;fill:rgb(99.607843%,75.294118%,2.352941%);fill-opacity:1;" d="M 24 16.777344 C 18.410156 16.777344 13.886719 21.300781 13.886719 26.890625 C 13.886719 32.480469 18.410156 37.003906 24 37.003906 C 29.589844 37.003906 34.113281 32.480469 34.113281 26.890625 C 34.113281 21.300781 29.589844 16.777344 24 16.777344 Z M 24 16.777344 "/>
<path style=" stroke:none;fill-rule:nonzero;fill:rgb(24.705882%,24.705882%,24.705882%);fill-opacity:1;" d="M 24 22.558594 C 21.605469 22.558594 19.667969 24.496094 19.667969 26.890625 C 19.667969 29.285156 21.605469 31.222656 24 31.222656 C 26.394531 31.222656 28.332031 29.285156 28.332031 26.890625 C 28.332031 24.496094 26.394531 22.558594 24 22.558594 Z M 24 22.558594 "/>
<path style=" stroke:none;fill-rule:nonzero;fill:rgb(24.313725%,24.313725%,24.313725%);fill-opacity:1;" d="M 15.328125 12.4375 C 14.53125 12.4375 13.886719 11.792969 13.886719 10.996094 C 13.886719 10.191406 14.53125 9.546875 15.328125 9.546875 C 16.125 9.546875 16.777344 10.191406 16.777344 10.996094 C 16.777344 11.792969 16.125 12.4375 15.328125 12.4375 Z M 15.328125 12.4375 "/>
<path style=" stroke:none;fill-rule:nonzero;fill:rgb(24.313725%,24.313725%,24.313725%);fill-opacity:1;" d="M 32.671875 12.4375 C 31.875 12.4375 31.222656 11.792969 31.222656 10.996094 C 31.222656 10.191406 31.875 9.546875 32.671875 9.546875 C 33.46875 9.546875 34.113281 10.191406 34.113281 10.996094 C 34.113281 11.792969 33.46875 12.4375 32.671875 12.4375 Z M 32.671875 12.4375 "/>
</g>
</svg>
