<?xml version="1.0" encoding="UTF-8"?>
<svg xmlns="http://www.w3.org/2000/svg" xmlns:xlink="http://www.w3.org/1999/xlink" width="48pt" height="48pt" viewBox="0 0 48 48" version="1.1">
<g id="surface1">
<path style=" stroke:none;fill-rule:evenodd;fill:rgb(35.686275%,35.686275%,35.686275%);fill-opacity:1;" d="M 11.214844 2.847656 L 36.785156 2.847656 C 41.417969 2.847656 45.152344 6.582031 45.152344 11.214844 L 45.152344 36.785156 C 45.152344 41.417969 41.417969 45.152344 36.785156 45.152344 L 11.214844 45.152344 C 6.582031 45.152344 2.847656 41.417969 2.847656 36.785156 L 2.847656 11.214844 C 2.847656 6.582031 6.582031 2.847656 11.214844 2.847656 Z M 11.214844 2.847656 "/>
<path style=" stroke:none;fill-rule:nonzero;fill:rgb(35.686275%,35.686275%,35.686275%);fill-opacity:1;" d="M 36.644531 5.214844 L 11.355469 5.214844 C 10.359375 5.214844 9.550781 6.058594 9.550781 7.089844 L 9.550781 40.910156 C 9.550781 41.941406 10.359375 42.785156 11.355469 42.785156 L 36.644531 42.785156 C 37.640625 42.785156 38.449219 41.941406 38.449219 40.910156 L 38.449219 7.089844 C 38.449219 6.058594 37.640625 5.214844 36.644531 5.214844 Z M 36.644531 5.214844 "/>
<path style=" stroke:none;fill-rule:nonzero;fill:rgb(24.313725%,24.313725%,24.313725%);fill-opacity:1;" d="M 24 13.886719 C 31.183594 13.886719 37.011719 19.707031 37.011719 26.894531 C 37.011719 34.078125 31.183594 39.902344 24 39.902344 C 16.816406 39.902344 10.988281 34.078125 10.988281 26.894531 C 10.988281 19.707031 16.816406 13.886719 24 13.886719 Z M 24 13.886719 "/>
<path style=" stroke:none;fill-rule:nonzero;fill:rgb(99.607843%,75.294118%,2.352941%);fill-opacity:1;" d="M 24 16.769531 C 18.410156 16.769531 13.886719 21.300781 13.886719 26.894531 C 13.886719 32.472656 18.410156 37.011719 24 37.011719 C 29.589844 37.011719 34.113281 32.472656 34.113281 26.894531 C 34.113281 21.300781 29.589844 16.769531 24 16.769531 Z M 24 16.769531 "/>
<path style=" stroke:none;fill-rule:nonzero;fill:rgb(24.705882%,24.705882%,24.705882%);fill-opacity:1;" d="M 24 22.558594 C 21.609375 22.558594 19.667969 24.488281 19.667969 26.894531 C 19.667969 29.285156 21.609375 31.230469 24 31.230469 C 26.390625 31.230469 28.332031 29.285156 28.332031 26.894531 C 28.332031 24.488281 26.390625 22.558594 24 22.558594 Z M 24 22.558594 "/>
<path style=" stroke:none;fill-rule:nonzero;fill:rgb(24.313725%,24.313725%,24.313725%);fill-opacity:1;" d="M 15.328125 12.433594 C 14.53125 12.433594 13.886719 11.792969 13.886719 10.988281 C 13.886719 10.199219 14.53125 9.550781 15.328125 9.550781 C 16.125 9.550781 16.769531 10.199219 16.769531 10.988281 C 16.769531 11.792969 16.125 12.433594 15.328125 12.433594 Z M 15.328125 12.433594 "/>
<path style=" stroke:none;fill-rule:nonzero;fill:rgb(24.313725%,24.313725%,24.313725%);fill-opacity:1;" d="M 32.671875 12.433594 C 31.875 12.433594 31.230469 11.792969 31.230469 10.988281 C 31.230469 10.199219 31.875 9.550781 32.671875 9.550781 C 33.46875 9.550781 34.113281 10.199219 34.113281 10.988281 C 34.113281 11.792969 33.46875 12.433594 32.671875 12.433594 Z M 32.671875 12.433594 "/>
</g>
</svg>
