<?xml version="1.0" encoding="UTF-8"?>
<svg xmlns="http://www.w3.org/2000/svg" xmlns:xlink="http://www.w3.org/1999/xlink" width="48pt" height="48pt" viewBox="0 0 48 48" version="1.1">
<g id="surface1">
<path style=" stroke:none;fill-rule:evenodd;fill:rgb(55.686275%,55.686275%,55.686275%);fill-opacity:1;" d="M 11.214844 2.847656 L 36.785156 2.847656 C 41.417969 2.847656 45.152344 6.582031 45.152344 11.214844 L 45.152344 36.785156 C 45.152344 41.417969 41.417969 45.152344 36.785156 45.152344 L 11.214844 45.152344 C 6.582031 45.152344 2.847656 41.417969 2.847656 36.785156 L 2.847656 11.214844 C 2.847656 6.582031 6.582031 2.847656 11.214844 2.847656 Z M 11.214844 2.847656 "/>
<path style=" stroke:none;fill-rule:nonzero;fill:rgb(40%,40%,40%);fill-opacity:1;" d="M 36 24 C 36 30.636719 30.636719 36 24 36 C 17.363281 36 12 30.636719 12 24 C 12 17.363281 17.363281 12 24 12 C 30.636719 12 36 17.363281 36 24 Z M 36 24 "/>
<path style=" stroke:none;fill-rule:nonzero;fill:rgb(72.941176%,9.019608%,30.588235%);fill-opacity:1;" d="M 34.5 24 C 34.5 18.199219 29.800781 13.5 24 13.5 C 18.199219 13.5 13.5 18.199219 13.5 24 C 13.5 29.800781 18.199219 34.5 24 34.5 C 29.800781 34.5 34.5 29.800781 34.5 24 Z M 34.5 24 "/>
<path style=" stroke:none;fill-rule:nonzero;fill:rgb(83.921569%,45.490196%,58.431373%);fill-opacity:1;" d="M 30 24 C 30 27.316406 27.316406 30 24 30 C 20.683594 30 18 27.316406 18 24 C 18 20.683594 20.683594 18 24 18 C 27.316406 18 30 20.683594 30 24 Z M 30 24 "/>
</g>
</svg>
