<?xml version="1.0" encoding="UTF-8"?>
<svg xmlns="http://www.w3.org/2000/svg" xmlns:xlink="http://www.w3.org/1999/xlink" width="48pt" height="48pt" viewBox="0 0 48 48" version="1.1">
<g id="surface1">
<path style=" stroke:none;fill-rule:evenodd;fill:rgb(35.686275%,35.686275%,35.686275%);fill-opacity:1;" d="M 11.214844 2.847656 L 36.785156 2.847656 C 41.417969 2.847656 45.152344 6.582031 45.152344 11.214844 L 45.152344 36.785156 C 45.152344 41.417969 41.417969 45.152344 36.785156 45.152344 L 11.214844 45.152344 C 6.582031 45.152344 2.847656 41.417969 2.847656 36.785156 L 2.847656 11.214844 C 2.847656 6.582031 6.582031 2.847656 11.214844 2.847656 Z M 11.214844 2.847656 "/>
<path style=" stroke:none;fill-rule:evenodd;fill:rgb(35.686275%,35.686275%,35.686275%);fill-opacity:1;" d="M 10.910156 2.90625 C 6.421875 3.082031 2.847656 6.675781 2.847656 11.214844 L 2.847656 36.785156 C 2.847656 41.425781 6.574219 45.152344 11.214844 45.152344 L 36.785156 45.152344 C 41.425781 45.152344 45.152344 41.425781 45.152344 36.785156 L 45.152344 11.214844 C 45.152344 6.574219 41.425781 2.847656 36.785156 2.847656 L 16.910156 2.847656 L 16.910156 5.191406 C 16.910156 5.605469 16.734375 5.980469 16.464844 6.261719 C 16.199219 6.527344 15.824219 6.691406 15.410156 6.691406 L 12.410156 6.691406 C 11.988281 6.691406 11.613281 6.527344 11.34375 6.261719 C 11.074219 5.980469 10.910156 5.605469 10.910156 5.191406 Z M 10.910156 2.90625 "/>
<path style=" stroke:none;fill-rule:evenodd;fill:rgb(21.568627%,21.568627%,21.568627%);fill-opacity:1;" d="M 10.910156 2.90625 L 10.910156 5.191406 C 10.910156 5.605469 11.074219 5.980469 11.34375 6.261719 C 11.613281 6.527344 11.988281 6.691406 12.410156 6.691406 L 15.410156 6.691406 C 15.824219 6.691406 16.199219 6.527344 16.464844 6.261719 C 16.734375 5.980469 16.910156 5.605469 16.910156 5.191406 L 16.910156 2.847656 L 11.214844 2.847656 C 11.097656 2.847656 11.015625 2.90625 10.910156 2.90625 Z M 10.910156 2.90625 "/>
<path style=" stroke:none;fill-rule:nonzero;fill:rgb(21.568627%,21.568627%,21.568627%);fill-opacity:1;" d="M 40.292969 10.949219 C 40.292969 11.777344 39.621094 12.449219 38.792969 12.449219 C 37.96875 12.449219 37.292969 11.777344 37.292969 10.949219 C 37.292969 10.113281 37.96875 9.449219 38.792969 9.449219 C 39.621094 9.449219 40.292969 10.113281 40.292969 10.949219 Z M 40.292969 10.949219 "/>
<path style=" stroke:none;fill-rule:nonzero;fill:rgb(21.568627%,21.568627%,21.568627%);fill-opacity:1;" d="M 36 24 C 36 30.636719 30.636719 36 24 36 C 17.363281 36 12 30.636719 12 24 C 12 17.363281 17.363281 12 24 12 C 30.636719 12 36 17.363281 36 24 Z M 36 24 "/>
<path style=" stroke:none;fill-rule:nonzero;fill:rgb(0%,58.431373%,52.941176%);fill-opacity:1;" d="M 33 24 C 33 19.03125 28.96875 15 24 15 C 19.03125 15 15 19.03125 15 24 C 15 28.96875 19.03125 33 24 33 C 28.96875 33 33 28.96875 33 24 Z M 33 24 "/>
<path style=" stroke:none;fill-rule:nonzero;fill:rgb(40%,74.901961%,71.764706%);fill-opacity:1;" d="M 30 24 C 30 27.316406 27.316406 30 24 30 C 20.683594 30 18 27.316406 18 24 C 18 20.683594 20.683594 18 24 18 C 27.316406 18 30 20.683594 30 24 Z M 30 24 "/>
</g>
</svg>
