<?xml version="1.0" encoding="UTF-8"?>
<svg xmlns="http://www.w3.org/2000/svg" xmlns:xlink="http://www.w3.org/1999/xlink" width="48pt" height="48pt" viewBox="0 0 48 48" version="1.1">
<g id="surface1">
<path style=" stroke:none;fill-rule:evenodd;fill:rgb(55.686275%,55.686275%,55.686275%);fill-opacity:1;" d="M 11.214844 2.847656 L 36.785156 2.847656 C 41.417969 2.847656 45.152344 6.582031 45.152344 11.214844 L 45.152344 36.785156 C 45.152344 41.417969 41.417969 45.152344 36.785156 45.152344 L 11.214844 45.152344 C 6.582031 45.152344 2.847656 41.417969 2.847656 36.785156 L 2.847656 11.214844 C 2.847656 6.582031 6.582031 2.847656 11.214844 2.847656 Z M 11.214844 2.847656 "/>
<path style=" stroke:none;fill-rule:nonzero;fill:rgb(30.196078%,30.196078%,30.196078%);fill-opacity:1;" d="M 10.050781 11.269531 L 37.949219 11.269531 C 39.832031 11.269531 41.363281 12.796875 41.363281 14.683594 L 41.363281 31.207031 C 41.363281 33.09375 39.832031 34.613281 37.949219 34.613281 L 10.050781 34.613281 C 8.167969 34.613281 6.636719 33.09375 6.636719 31.207031 L 6.636719 14.683594 C 6.636719 12.796875 8.167969 11.269531 10.050781 11.269531 Z M 10.050781 11.269531 "/>
<path style=" stroke:none;fill-rule:nonzero;fill:rgb(40%,40%,40%);fill-opacity:1;" d="M 8.230469 35.566406 L 39.769531 35.566406 C 40.652344 35.566406 41.363281 36.28125 41.363281 37.160156 C 41.363281 38.027344 40.652344 38.738281 39.769531 38.738281 L 8.230469 38.738281 C 7.347656 38.738281 6.636719 38.027344 6.636719 37.160156 C 6.636719 36.28125 7.347656 35.566406 8.230469 35.566406 Z M 8.230469 35.566406 "/>
</g>
</svg>
