<?xml version="1.0" encoding="UTF-8"?>
<svg xmlns="http://www.w3.org/2000/svg" xmlns:xlink="http://www.w3.org/1999/xlink" width="48pt" height="48pt" viewBox="0 0 48 48" version="1.1">
<g id="surface1">
<path style=" stroke:none;fill-rule:evenodd;fill:rgb(55.686275%,55.686275%,55.686275%);fill-opacity:1;" d="M 11.207031 2.847656 L 36.792969 2.847656 C 41.40625 2.847656 45.152344 6.59375 45.152344 11.207031 L 45.152344 36.792969 C 45.152344 41.40625 41.40625 45.152344 36.792969 45.152344 L 11.207031 45.152344 C 6.59375 45.152344 2.847656 41.40625 2.847656 36.792969 L 2.847656 11.207031 C 2.847656 6.59375 6.59375 2.847656 11.207031 2.847656 Z M 11.207031 2.847656 "/>
<path style=" stroke:none;fill-rule:nonzero;fill:rgb(46.27451%,100%,1.176471%);fill-opacity:1;" d="M 36.113281 15.777344 C 36.113281 16.886719 35.214844 17.785156 34.105469 17.785156 C 32.996094 17.785156 32.097656 16.886719 32.097656 15.777344 C 32.097656 14.667969 32.996094 13.765625 34.105469 13.765625 C 35.214844 13.765625 36.113281 14.667969 36.113281 15.777344 Z M 36.113281 15.777344 "/>
<path style=" stroke:none;fill-rule:nonzero;fill:rgb(46.27451%,100%,1.176471%);fill-opacity:1;" d="M 36.113281 31.84375 C 36.113281 32.953125 35.214844 33.855469 34.105469 33.855469 C 32.996094 33.855469 32.097656 32.953125 32.097656 31.84375 C 32.097656 30.734375 32.996094 29.839844 34.105469 29.839844 C 35.214844 29.839844 36.113281 30.734375 36.113281 31.84375 Z M 36.113281 31.84375 "/>
</g>
</svg>
