<?xml version="1.0" encoding="UTF-8"?>
<svg xmlns="http://www.w3.org/2000/svg" xmlns:xlink="http://www.w3.org/1999/xlink" width="48pt" height="48pt" viewBox="0 0 48 48" version="1.1">
<g id="surface1">
<path style=" stroke:none;fill-rule:evenodd;fill:rgb(55.686275%,55.686275%,55.686275%);fill-opacity:1;" d="M 11.214844 2.847656 L 36.785156 2.847656 C 41.417969 2.847656 45.152344 6.582031 45.152344 11.214844 L 45.152344 36.785156 C 45.152344 41.417969 41.417969 45.152344 36.785156 45.152344 L 11.214844 45.152344 C 6.582031 45.152344 2.847656 41.417969 2.847656 36.785156 L 2.847656 11.214844 C 2.847656 6.582031 6.582031 2.847656 11.214844 2.847656 Z M 11.214844 2.847656 "/>
<path style=" stroke:none;fill-rule:nonzero;fill:rgb(30.196078%,30.196078%,30.196078%);fill-opacity:1;" d="M 21.019531 29.953125 L 27.019531 29.953125 L 27.019531 32.203125 L 21.019531 32.203125 Z M 21.019531 29.953125 "/>
<path style=" stroke:none;fill-rule:nonzero;fill:rgb(30.196078%,30.196078%,30.196078%);fill-opacity:1;" d="M 21.019531 33.703125 L 27.019531 33.703125 L 27.019531 35.953125 L 21.019531 35.953125 Z M 21.019531 33.703125 "/>
<path style=" stroke:none;fill-rule:nonzero;fill:rgb(30.196078%,30.196078%,30.196078%);fill-opacity:1;" d="M 24.019531 17.953125 C 21.128906 17.953125 18.769531 20.308594 18.769531 23.203125 C 18.769531 26.109375 21.128906 28.453125 24.019531 28.453125 C 26.925781 28.453125 29.269531 26.109375 29.269531 23.203125 C 29.269531 20.308594 26.925781 17.953125 24.019531 17.953125 Z M 24.019531 20.953125 C 25.277344 20.953125 26.269531 21.957031 26.269531 23.203125 C 26.269531 24.449219 25.277344 25.453125 24.019531 25.453125 C 22.78125 25.453125 21.769531 24.449219 21.769531 23.203125 C 21.769531 21.957031 22.78125 20.953125 24.019531 20.953125 Z M 24.019531 20.953125 "/>
<path style=" stroke:none;fill-rule:nonzero;fill:rgb(30.196078%,30.196078%,30.196078%);fill-opacity:1;" d="M 30.890625 20.53125 L 26.644531 16.292969 L 30.890625 12.046875 L 35.136719 16.292969 Z M 30.890625 20.53125 "/>
<path style=" stroke:none;fill-rule:nonzero;fill:rgb(30.196078%,30.196078%,30.196078%);fill-opacity:1;" d="M 21.355469 16.292969 L 17.109375 20.53125 L 15.515625 18.9375 L 19.761719 14.699219 Z M 21.355469 16.292969 "/>
<path style=" stroke:none;fill-rule:nonzero;fill:rgb(30.196078%,30.196078%,30.196078%);fill-opacity:1;" d="M 18.691406 13.640625 L 14.449219 17.886719 L 12.863281 16.292969 L 17.109375 12.046875 Z M 18.691406 13.640625 "/>
</g>
</svg>
