<?xml version="1.0" encoding="UTF-8"?>
<svg xmlns="http://www.w3.org/2000/svg" xmlns:xlink="http://www.w3.org/1999/xlink" width="48pt" height="48pt" viewBox="0 0 48 48" version="1.1">
<g id="surface1">
<path style=" stroke:none;fill-rule:evenodd;fill:rgb(35.686275%,35.686275%,35.686275%);fill-opacity:1;" d="M 12.8125 45.152344 L 36.792969 45.152344 C 41.421875 45.152344 45.152344 41.421875 45.152344 36.792969 L 45.152344 11.207031 C 45.152344 6.578125 41.421875 2.847656 36.792969 2.847656 L 12.8125 2.847656 Z M 12.8125 45.152344 "/>
<path style=" stroke:none;fill-rule:evenodd;fill:rgb(90.196078%,90.196078%,90.196078%);fill-opacity:1;" d="M 12.8125 45.152344 L 12.8125 2.847656 L 11.207031 2.847656 C 6.578125 2.847656 2.847656 6.578125 2.847656 11.207031 L 2.847656 36.792969 C 2.847656 41.421875 6.578125 45.152344 11.207031 45.152344 Z M 12.8125 45.152344 "/>
<path style=" stroke:none;fill-rule:evenodd;fill:rgb(11.764706%,63.921569%,38.431373%);fill-opacity:1;" d="M 42.503906 36.402344 C 42.503906 39.714844 39.816406 42.402344 36.503906 42.402344 C 33.1875 42.402344 30.503906 39.714844 30.503906 36.402344 C 30.503906 33.089844 33.1875 30.402344 36.503906 30.402344 C 39.816406 30.402344 42.503906 33.089844 42.503906 36.402344 Z M 42.503906 36.402344 "/>
<path style=" stroke:none;fill-rule:nonzero;fill:rgb(100%,100%,100%);fill-opacity:1;" d="M 33.503906 38.0625 L 33.503906 39.402344 L 34.839844 39.402344 L 38.214844 36.027344 L 36.878906 34.6875 Z M 39.394531 34.847656 C 39.535156 34.707031 39.535156 34.484375 39.394531 34.34375 L 38.5625 33.503906 C 38.421875 33.363281 38.199219 33.363281 38.058594 33.503906 L 37.359375 34.207031 L 38.691406 35.546875 Z M 39.394531 34.847656 "/>
</g>
</svg>
