<?xml version="1.0" encoding="UTF-8"?>
<svg xmlns="http://www.w3.org/2000/svg" xmlns:xlink="http://www.w3.org/1999/xlink" width="48pt" height="48pt" viewBox="0 0 48 48" version="1.1">
<g id="surface1">
<path style=" stroke:none;fill-rule:evenodd;fill:rgb(55.686275%,55.686275%,55.686275%);fill-opacity:1;" d="M 11.207031 2.847656 L 36.792969 2.847656 C 41.40625 2.847656 45.152344 6.59375 45.152344 11.207031 L 45.152344 36.792969 C 45.152344 41.40625 41.40625 45.152344 36.792969 45.152344 L 11.207031 45.152344 C 6.59375 45.152344 2.847656 41.40625 2.847656 36.792969 L 2.847656 11.207031 C 2.847656 6.59375 6.59375 2.847656 11.207031 2.847656 Z M 11.207031 2.847656 "/>
<path style=" stroke:none;fill-rule:nonzero;fill:rgb(24.705882%,24.705882%,24.705882%);fill-opacity:1;" d="M 17.144531 14.417969 C 13.722656 14.417969 11.152344 17.121094 10.972656 20.46875 L 10.285156 33.25 C 9.855469 35.746094 12.328125 37.324219 14.402344 34.59375 L 17.996094 29.300781 C 18.15625 29.3125 18.3125 29.328125 18.472656 29.328125 L 29.453125 29.328125 L 33.566406 34.761719 C 35.628906 37.480469 37.949219 35.246094 37.6875 33.402344 L 37.011719 20.671875 C 37.015625 20.605469 37.019531 20.535156 37.019531 20.46875 C 37.019531 17.113281 34.269531 14.417969 30.847656 14.417969 L 17.140625 14.417969 Z M 17.144531 14.417969 "/>
<path style=" stroke:none;fill-rule:nonzero;fill:rgb(90.196078%,90.196078%,90.196078%);fill-opacity:1;" d="M 16.128906 17.363281 L 16.128906 19.328125 L 14.167969 19.328125 L 14.167969 21.292969 L 16.128906 21.292969 L 16.128906 23.253906 L 18.097656 23.253906 L 18.097656 21.292969 L 20.0625 21.292969 L 20.0625 19.328125 L 18.097656 19.328125 L 18.097656 17.363281 Z M 16.128906 17.363281 "/>
<path style=" stroke:none;fill-rule:nonzero;fill:rgb(93.333333%,32.54902%,32.54902%);fill-opacity:1;" d="M 30.863281 17.363281 C 30.324219 17.363281 29.886719 17.800781 29.886719 18.34375 C 29.886719 18.886719 30.324219 19.328125 30.863281 19.328125 C 31.410156 19.328125 31.847656 18.886719 31.847656 18.34375 C 31.847656 17.800781 31.410156 17.363281 30.863281 17.363281 Z M 30.863281 17.363281 "/>
<path style=" stroke:none;fill-rule:nonzero;fill:rgb(93.333333%,32.54902%,32.54902%);fill-opacity:1;" d="M 28.902344 19.328125 C 28.359375 19.328125 27.921875 19.765625 27.921875 20.308594 C 27.921875 20.855469 28.359375 21.292969 28.902344 21.292969 C 29.441406 21.292969 29.886719 20.855469 29.886719 20.308594 C 29.886719 19.765625 29.441406 19.328125 28.902344 19.328125 Z M 28.902344 19.328125 "/>
<path style=" stroke:none;fill-rule:nonzero;fill:rgb(100%,79.215686%,34.509804%);fill-opacity:1;" d="M 32.832031 19.328125 C 32.285156 19.328125 31.847656 19.765625 31.847656 20.308594 C 31.847656 20.855469 32.285156 21.292969 32.832031 21.292969 C 33.375 21.292969 33.8125 20.855469 33.8125 20.308594 C 33.8125 19.765625 33.375 19.328125 32.832031 19.328125 Z M 32.832031 19.328125 "/>
<path style=" stroke:none;fill-rule:nonzero;fill:rgb(100%,79.215686%,34.509804%);fill-opacity:1;" d="M 30.863281 21.292969 C 30.324219 21.292969 29.886719 21.730469 29.886719 22.277344 C 29.886719 22.816406 30.324219 23.253906 30.863281 23.253906 C 31.410156 23.253906 31.847656 22.816406 31.847656 22.277344 C 31.847656 21.730469 31.410156 21.292969 30.863281 21.292969 Z M 30.863281 21.292969 "/>
</g>
</svg>
