<?xml version="1.0" encoding="UTF-8"?>
<svg xmlns="http://www.w3.org/2000/svg" xmlns:xlink="http://www.w3.org/1999/xlink" width="48pt" height="48pt" viewBox="0 0 48 48" version="1.1">
<g id="surface1">
<path style=" stroke:none;fill-rule:evenodd;fill:rgb(55.686275%,55.686275%,55.686275%);fill-opacity:1;" d="M 11.214844 2.847656 L 36.785156 2.847656 C 41.417969 2.847656 45.152344 6.582031 45.152344 11.214844 L 45.152344 36.785156 C 45.152344 41.417969 41.417969 45.152344 36.785156 45.152344 L 11.214844 45.152344 C 6.582031 45.152344 2.847656 41.417969 2.847656 36.785156 L 2.847656 11.214844 C 2.847656 6.582031 6.582031 2.847656 11.214844 2.847656 Z M 11.214844 2.847656 "/>
<path style=" stroke:none;fill-rule:nonzero;fill:rgb(24.705882%,24.705882%,24.705882%);fill-opacity:1;" d="M 17.144531 14.417969 C 13.722656 14.417969 11.15625 17.121094 10.96875 20.472656 L 10.292969 33.246094 C 9.855469 35.738281 12.328125 37.324219 14.402344 34.59375 L 18 29.296875 C 18.152344 29.308594 18.316406 29.332031 18.480469 29.332031 L 29.449219 29.332031 L 33.574219 34.761719 C 35.625 37.480469 37.949219 35.238281 37.6875 33.394531 L 37.011719 20.671875 C 37.019531 20.605469 37.019531 20.542969 37.019531 20.472656 C 37.019531 17.109375 34.265625 14.417969 30.855469 14.417969 Z M 17.144531 14.417969 "/>
<path style=" stroke:none;fill-rule:nonzero;fill:rgb(90.196078%,90.196078%,90.196078%);fill-opacity:1;" d="M 16.136719 17.363281 L 16.136719 19.324219 L 14.167969 19.324219 L 14.167969 21.292969 L 16.136719 21.292969 L 16.136719 23.261719 L 18.09375 23.261719 L 18.09375 21.292969 L 20.0625 21.292969 L 20.0625 19.324219 L 18.09375 19.324219 L 18.09375 17.363281 Z M 16.136719 17.363281 "/>
<path style=" stroke:none;fill-rule:nonzero;fill:rgb(93.333333%,32.54902%,32.54902%);fill-opacity:1;" d="M 30.863281 17.363281 C 30.328125 17.363281 29.886719 17.800781 29.886719 18.339844 C 29.886719 18.890625 30.328125 19.324219 30.863281 19.324219 C 31.40625 19.324219 31.855469 18.890625 31.855469 18.339844 C 31.855469 17.800781 31.40625 17.363281 30.863281 17.363281 Z M 30.863281 17.363281 "/>
<path style=" stroke:none;fill-rule:nonzero;fill:rgb(93.333333%,32.54902%,32.54902%);fill-opacity:1;" d="M 28.894531 19.324219 C 28.359375 19.324219 27.917969 19.769531 27.917969 20.308594 C 27.917969 20.847656 28.359375 21.292969 28.894531 21.292969 C 29.449219 21.292969 29.886719 20.847656 29.886719 20.308594 C 29.886719 19.769531 29.449219 19.324219 28.894531 19.324219 Z M 28.894531 19.324219 "/>
<path style=" stroke:none;fill-rule:nonzero;fill:rgb(100%,79.215686%,34.509804%);fill-opacity:1;" d="M 32.832031 19.324219 C 32.285156 19.324219 31.855469 19.769531 31.855469 20.308594 C 31.855469 20.847656 32.285156 21.292969 32.832031 21.292969 C 33.375 21.292969 33.808594 20.847656 33.808594 20.308594 C 33.808594 19.769531 33.375 19.324219 32.832031 19.324219 Z M 32.832031 19.324219 "/>
<path style=" stroke:none;fill-rule:nonzero;fill:rgb(100%,79.215686%,34.509804%);fill-opacity:1;" d="M 30.863281 21.292969 C 30.328125 21.292969 29.886719 21.730469 29.886719 22.277344 C 29.886719 22.816406 30.328125 23.261719 30.863281 23.261719 C 31.40625 23.261719 31.855469 22.816406 31.855469 22.277344 C 31.855469 21.730469 31.40625 21.292969 30.863281 21.292969 Z M 30.863281 21.292969 "/>
</g>
</svg>
