<?xml version="1.0" encoding="UTF-8"?>
<svg xmlns="http://www.w3.org/2000/svg" xmlns:xlink="http://www.w3.org/1999/xlink" width="48pt" height="48pt" viewBox="0 0 48 48" version="1.1">
<g id="surface1">
<path style=" stroke:none;fill-rule:evenodd;fill:rgb(35.686275%,35.686275%,35.686275%);fill-opacity:1;" d="M 12.824219 45.152344 L 36.796875 45.152344 C 41.425781 45.152344 45.152344 41.425781 45.152344 36.796875 L 45.152344 11.203125 C 45.152344 6.574219 41.425781 2.847656 36.796875 2.847656 L 12.824219 2.847656 Z M 12.824219 45.152344 "/>
<path style=" stroke:none;fill-rule:evenodd;fill:rgb(90.196078%,90.196078%,90.196078%);fill-opacity:1;" d="M 12.824219 45.152344 L 12.824219 2.847656 L 11.203125 2.847656 C 6.574219 2.847656 2.847656 6.574219 2.847656 11.203125 L 2.847656 36.796875 C 2.847656 41.425781 6.574219 45.152344 11.203125 45.152344 Z M 12.824219 45.152344 "/>
<path style=" stroke:none;fill-rule:evenodd;fill:rgb(11.764706%,63.921569%,38.431373%);fill-opacity:1;" d="M 42.503906 36.394531 C 42.503906 39.714844 39.824219 42.394531 36.503906 42.394531 C 33.1875 42.394531 30.503906 39.714844 30.503906 36.394531 C 30.503906 33.082031 33.1875 30.394531 36.503906 30.394531 C 39.824219 30.394531 42.503906 33.082031 42.503906 36.394531 Z M 42.503906 36.394531 "/>
<path style=" stroke:none;fill-rule:nonzero;fill:rgb(100%,100%,100%);fill-opacity:1;" d="M 33.503906 38.0625 L 33.503906 39.394531 L 34.839844 39.394531 L 38.214844 36.019531 L 36.878906 34.6875 Z M 39.394531 34.855469 C 39.542969 34.707031 39.542969 34.488281 39.394531 34.347656 L 38.566406 33.503906 C 38.425781 33.363281 38.203125 33.363281 38.0625 33.503906 L 37.359375 34.207031 L 38.699219 35.542969 Z M 39.394531 34.855469 "/>
</g>
</svg>
