<?xml version="1.0" encoding="UTF-8"?>
<svg xmlns="http://www.w3.org/2000/svg" xmlns:xlink="http://www.w3.org/1999/xlink" width="48pt" height="48pt" viewBox="0 0 48 48" version="1.1">
<g id="surface1">
<path style=" stroke:none;fill-rule:evenodd;fill:rgb(55.686275%,55.686275%,55.686275%);fill-opacity:1;" d="M 11.214844 2.847656 L 36.785156 2.847656 C 41.417969 2.847656 45.152344 6.582031 45.152344 11.214844 L 45.152344 36.785156 C 45.152344 41.417969 41.417969 45.152344 36.785156 45.152344 L 11.214844 45.152344 C 6.582031 45.152344 2.847656 41.417969 2.847656 36.785156 L 2.847656 11.214844 C 2.847656 6.582031 6.582031 2.847656 11.214844 2.847656 Z M 11.214844 2.847656 "/>
<path style=" stroke:none;fill-rule:nonzero;fill:rgb(30.196078%,30.196078%,30.196078%);fill-opacity:1;" d="M 12.433594 39.902344 L 35.566406 39.902344 C 36.75 39.902344 37.707031 38.941406 37.707031 37.761719 L 37.707031 24.902344 C 37.707031 23.71875 36.75 22.761719 35.566406 22.761719 L 12.433594 22.761719 C 11.25 22.761719 10.292969 23.71875 10.292969 24.902344 L 10.292969 37.761719 C 10.292969 38.941406 11.25 39.902344 12.433594 39.902344 Z M 12.433594 39.902344 "/>
<path style=" stroke:none;fill-rule:nonzero;fill:rgb(97.254902%,76.862745%,30.588235%);fill-opacity:1;" d="M 35.90625 8.980469 L 37.488281 8.980469 L 37.488281 15.328125 L 35.90625 15.328125 Z M 35.90625 8.980469 "/>
<path style=" stroke:none;fill-rule:nonzero;fill:rgb(97.254902%,76.862745%,30.588235%);fill-opacity:1;" d="M 32.730469 8.980469 L 34.3125 8.980469 L 34.3125 15.328125 L 32.730469 15.328125 Z M 32.730469 8.980469 "/>
<path style=" stroke:none;fill-rule:nonzero;fill:rgb(97.254902%,76.862745%,30.588235%);fill-opacity:1;" d="M 29.550781 8.980469 L 31.136719 8.980469 L 31.136719 15.328125 L 29.550781 15.328125 Z M 29.550781 8.980469 "/>
<path style=" stroke:none;fill-rule:nonzero;fill:rgb(97.254902%,76.862745%,30.588235%);fill-opacity:1;" d="M 26.378906 8.980469 L 27.972656 8.980469 L 27.972656 15.328125 L 26.378906 15.328125 Z M 26.378906 8.980469 "/>
<path style=" stroke:none;fill-rule:nonzero;fill:rgb(97.254902%,76.862745%,30.588235%);fill-opacity:1;" d="M 23.203125 8.980469 L 24.796875 8.980469 L 24.796875 15.328125 L 23.203125 15.328125 Z M 23.203125 8.980469 "/>
<path style=" stroke:none;fill-rule:nonzero;fill:rgb(97.254902%,76.862745%,30.588235%);fill-opacity:1;" d="M 20.027344 8.980469 L 21.621094 8.980469 L 21.621094 15.328125 L 20.027344 15.328125 Z M 20.027344 8.980469 "/>
<path style=" stroke:none;fill-rule:nonzero;fill:rgb(97.254902%,76.862745%,30.588235%);fill-opacity:1;" d="M 16.863281 8.980469 L 18.449219 8.980469 L 18.449219 15.328125 L 16.863281 15.328125 Z M 16.863281 8.980469 "/>
<path style=" stroke:none;fill-rule:nonzero;fill:rgb(97.254902%,76.862745%,30.588235%);fill-opacity:1;" d="M 13.6875 8.980469 L 15.269531 8.980469 L 15.269531 15.328125 L 13.6875 15.328125 Z M 13.6875 8.980469 "/>
<path style=" stroke:none;fill-rule:nonzero;fill:rgb(97.254902%,76.862745%,30.588235%);fill-opacity:1;" d="M 10.511719 12.152344 L 12.09375 12.152344 L 12.09375 15.328125 L 10.511719 15.328125 Z M 10.511719 12.152344 "/>
</g>
</svg>
