<?xml version="1.0" encoding="UTF-8"?>
<svg xmlns="http://www.w3.org/2000/svg" xmlns:xlink="http://www.w3.org/1999/xlink" width="48pt" height="48pt" viewBox="0 0 48 48" version="1.1">
<g id="surface1">
<path style=" stroke:none;fill-rule:evenodd;fill:rgb(55.686275%,55.686275%,55.686275%);fill-opacity:1;" d="M 11.214844 2.847656 L 36.785156 2.847656 C 41.417969 2.847656 45.152344 6.582031 45.152344 11.214844 L 45.152344 36.785156 C 45.152344 41.417969 41.417969 45.152344 36.785156 45.152344 L 11.214844 45.152344 C 6.582031 45.152344 2.847656 41.417969 2.847656 36.785156 L 2.847656 11.214844 C 2.847656 6.582031 6.582031 2.847656 11.214844 2.847656 Z M 11.214844 2.847656 "/>
<path style=" stroke:none;fill-rule:nonzero;fill:rgb(90.196078%,90.196078%,90.196078%);fill-opacity:1;" d="M 11.613281 2.847656 L 11.613281 17.050781 C 11.613281 18.167969 12.515625 19.078125 13.640625 19.078125 L 35.550781 19.078125 C 36.667969 19.078125 37.582031 18.167969 37.582031 17.050781 L 37.582031 2.847656 Z M 27.84375 6.09375 L 32.707031 6.09375 C 33.609375 6.09375 34.332031 6.824219 34.332031 7.707031 L 34.332031 14.203125 C 34.332031 15.105469 33.609375 15.832031 32.707031 15.832031 L 27.84375 15.832031 C 26.941406 15.832031 26.214844 15.105469 26.214844 14.203125 L 26.214844 7.707031 C 26.214844 6.824219 26.941406 6.09375 27.84375 6.09375 Z M 27.84375 6.09375 "/>
<path style=" stroke:none;fill-rule:nonzero;fill:rgb(100%,100%,100%);fill-opacity:1;" d="M 9.796875 22.300781 L 38.203125 22.300781 C 39.316406 22.300781 40.230469 23.203125 40.230469 24.328125 L 40.230469 39.738281 C 40.230469 40.863281 39.316406 41.765625 38.203125 41.765625 L 9.796875 41.765625 C 8.683594 41.765625 7.769531 40.863281 7.769531 39.738281 L 7.769531 24.328125 C 7.769531 23.203125 8.683594 22.300781 9.796875 22.300781 Z M 9.796875 22.300781 "/>
<path style=" stroke:none;fill-rule:nonzero;fill:rgb(100%,68.235294%,24.705882%);fill-opacity:1;" d="M 7.769531 36.902344 L 7.769531 39.738281 C 7.769531 40.863281 8.683594 41.765625 9.796875 41.765625 L 38.203125 41.765625 C 39.316406 41.765625 40.230469 40.863281 40.230469 39.738281 L 40.230469 36.902344 Z M 7.769531 36.902344 "/>
</g>
</svg>
