<?xml version="1.0" encoding="UTF-8"?>
<svg xmlns="http://www.w3.org/2000/svg" xmlns:xlink="http://www.w3.org/1999/xlink" width="48pt" height="48pt" viewBox="0 0 48 48" version="1.1">
<g id="surface1">
<path style=" stroke:none;fill-rule:evenodd;fill:rgb(55.686275%,55.686275%,55.686275%);fill-opacity:1;" d="M 11.214844 2.847656 L 36.785156 2.847656 C 41.417969 2.847656 45.152344 6.582031 45.152344 11.214844 L 45.152344 36.785156 C 45.152344 41.417969 41.417969 45.152344 36.785156 45.152344 L 11.214844 45.152344 C 6.582031 45.152344 2.847656 41.417969 2.847656 36.785156 L 2.847656 11.214844 C 2.847656 6.582031 6.582031 2.847656 11.214844 2.847656 Z M 11.214844 2.847656 "/>
<path style=" stroke:none;fill-rule:nonzero;fill:rgb(35.686275%,35.686275%,35.686275%);fill-opacity:1;" d="M 24.058594 13.605469 C 18.574219 13.605469 13.628906 15.550781 9.527344 18.574219 L 24.058594 34.394531 L 38.472656 18.515625 C 34.386719 15.527344 29.511719 13.605469 24.058594 13.605469 Z M 24.058594 13.605469 "/>
<path style=" stroke:none;fill-rule:nonzero;fill:rgb(47.45098%,47.45098%,47.45098%);fill-opacity:1;" d="M 24 17.753906 C 19.628906 17.753906 15.574219 19.183594 12.316406 21.609375 L 24.058594 34.394531 L 35.683594 21.609375 C 32.425781 19.199219 28.371094 17.753906 24 17.753906 Z M 24 17.753906 "/>
<path style=" stroke:none;fill-rule:nonzero;fill:rgb(90.196078%,90.196078%,90.196078%);fill-opacity:1;" d="M 24 21.917969 C 20.71875 21.917969 17.683594 22.988281 15.234375 24.808594 L 24.046875 34.394531 L 32.765625 24.808594 C 30.316406 22.988281 27.28125 21.917969 24 21.917969 Z M 24 21.917969 "/>
</g>
</svg>
