<?xml version="1.0" encoding="UTF-8"?>
<svg xmlns="http://www.w3.org/2000/svg" xmlns:xlink="http://www.w3.org/1999/xlink" width="48pt" height="48pt" viewBox="0 0 48 48" version="1.1">
<g id="surface1">
<path style=" stroke:none;fill-rule:evenodd;fill:rgb(55.686275%,55.686275%,55.686275%);fill-opacity:1;" d="M 11.207031 2.847656 L 36.792969 2.847656 C 41.40625 2.847656 45.152344 6.59375 45.152344 11.207031 L 45.152344 36.792969 C 45.152344 41.40625 41.40625 45.152344 36.792969 45.152344 L 11.207031 45.152344 C 6.59375 45.152344 2.847656 41.40625 2.847656 36.792969 L 2.847656 11.207031 C 2.847656 6.59375 6.59375 2.847656 11.207031 2.847656 Z M 11.207031 2.847656 "/>
<path style=" stroke:none;fill-rule:nonzero;fill:rgb(35.686275%,35.686275%,35.686275%);fill-opacity:1;" d="M 24.058594 13.597656 C 18.566406 13.597656 13.628906 15.550781 9.53125 18.574219 L 24.058594 34.402344 L 38.46875 18.515625 C 34.386719 15.527344 29.5 13.597656 24.058594 13.597656 Z M 24.058594 13.597656 "/>
<path style=" stroke:none;fill-rule:nonzero;fill:rgb(47.45098%,47.45098%,47.45098%);fill-opacity:1;" d="M 24 17.753906 C 19.628906 17.753906 15.574219 19.1875 12.3125 21.609375 L 24.0625 34.402344 L 35.6875 21.609375 C 32.425781 19.1875 28.371094 17.753906 24 17.753906 Z M 24 17.753906 "/>
<path style=" stroke:none;fill-rule:nonzero;fill:rgb(90.196078%,90.196078%,90.196078%);fill-opacity:1;" d="M 24 21.917969 C 20.722656 21.917969 17.675781 22.988281 15.234375 24.808594 L 24.046875 34.402344 L 32.765625 24.808594 C 30.324219 22.988281 27.277344 21.917969 24 21.917969 Z M 24 21.917969 "/>
</g>
</svg>
