<?xml version="1.0" encoding="UTF-8"?>
<svg xmlns="http://www.w3.org/2000/svg" xmlns:xlink="http://www.w3.org/1999/xlink" width="48pt" height="48pt" viewBox="0 0 48 48" version="1.1">
<g id="surface1">
<path style=" stroke:none;fill-rule:evenodd;fill:rgb(71.764706%,71.764706%,71.764706%);fill-opacity:1;" d="M 10.375 44.984375 L 10.375 11.449219 L 2.847656 11.449219 L 2.847656 36.792969 C 2.847656 41.128906 6.15625 44.550781 10.375 44.984375 Z M 10.375 44.984375 "/>
<path style=" stroke:none;fill-rule:evenodd;fill:rgb(23.921569%,65.490196%,83.921569%);fill-opacity:1;" d="M 11.207031 2.847656 C 6.578125 2.847656 2.847656 6.578125 2.847656 11.214844 L 2.847656 11.449219 L 10.375 11.449219 L 10.375 44.984375 C 10.667969 45.015625 10.910156 45.152344 11.207031 45.152344 L 36.785156 45.152344 C 41.421875 45.152344 45.152344 41.421875 45.152344 36.792969 L 45.152344 11.214844 C 45.152344 6.578125 41.421875 2.847656 36.785156 2.847656 Z M 11.207031 2.847656 "/>
<path style=" stroke:none;fill-rule:nonzero;fill:rgb(97.254902%,76.862745%,30.588235%);fill-opacity:1;" d="M 17.421875 38 L 21 38 L 21 45.152344 L 17.421875 45.152344 Z M 17.421875 38 "/>
<path style=" stroke:none;fill-rule:nonzero;fill:rgb(97.254902%,76.862745%,30.588235%);fill-opacity:1;" d="M 22.785156 38 L 26.359375 38 L 26.359375 45.152344 L 22.785156 45.152344 Z M 22.785156 38 "/>
<path style=" stroke:none;fill-rule:nonzero;fill:rgb(97.254902%,76.862745%,30.588235%);fill-opacity:1;" d="M 28.144531 38 L 31.722656 38 L 31.722656 45.152344 L 28.144531 45.152344 Z M 28.144531 38 "/>
<path style=" stroke:none;fill-rule:nonzero;fill:rgb(97.254902%,76.862745%,30.588235%);fill-opacity:1;" d="M 33.511719 38 L 37.089844 38 L 37.089844 45.152344 L 33.511719 45.152344 Z M 33.511719 38 "/>
<path style=" stroke:none;fill-rule:nonzero;fill:rgb(71.764706%,71.764706%,71.764706%);fill-opacity:1;" d="M 23.066406 15.0625 L 24.855469 15.0625 L 24.855469 18.636719 L 23.066406 18.636719 Z M 23.066406 15.0625 "/>
<path style=" stroke:none;fill-rule:nonzero;fill:rgb(71.764706%,71.764706%,71.764706%);fill-opacity:1;" d="M 28.433594 15.0625 L 30.21875 15.0625 L 30.21875 18.636719 L 28.433594 18.636719 Z M 28.433594 15.0625 "/>
<path style=" stroke:none;fill-rule:nonzero;fill:rgb(71.764706%,71.764706%,71.764706%);fill-opacity:1;" d="M 23.066406 29.363281 L 24.855469 29.363281 L 24.855469 32.9375 L 23.066406 32.9375 Z M 23.066406 29.363281 "/>
<path style=" stroke:none;fill-rule:nonzero;fill:rgb(71.764706%,71.764706%,71.764706%);fill-opacity:1;" d="M 28.433594 29.363281 L 30.21875 29.363281 L 30.21875 32.9375 L 28.433594 32.9375 Z M 28.433594 29.363281 "/>
<path style=" stroke:none;fill-rule:nonzero;fill:rgb(71.764706%,71.764706%,71.764706%);fill-opacity:1;" d="M 35.582031 20.425781 L 35.582031 22.214844 L 32.003906 22.214844 L 32.003906 20.425781 Z M 35.582031 20.425781 "/>
<path style=" stroke:none;fill-rule:nonzero;fill:rgb(71.764706%,71.764706%,71.764706%);fill-opacity:1;" d="M 35.582031 25.785156 L 35.582031 27.574219 L 32.003906 27.574219 L 32.003906 25.785156 Z M 35.582031 25.785156 "/>
<path style=" stroke:none;fill-rule:nonzero;fill:rgb(71.764706%,71.764706%,71.764706%);fill-opacity:1;" d="M 21.28125 20.425781 L 21.28125 22.214844 L 17.707031 22.214844 L 17.707031 20.425781 Z M 21.28125 20.425781 "/>
<path style=" stroke:none;fill-rule:nonzero;fill:rgb(71.764706%,71.764706%,71.764706%);fill-opacity:1;" d="M 21.28125 25.785156 L 21.28125 27.574219 L 17.707031 27.574219 L 17.707031 25.785156 Z M 21.28125 25.785156 "/>
<path style=" stroke:none;fill-rule:nonzero;fill:rgb(30.588235%,30.588235%,30.588235%);fill-opacity:1;" d="M 23.425781 18.636719 L 29.859375 18.636719 C 31.046875 18.636719 32.003906 19.597656 32.003906 20.78125 L 32.003906 27.21875 C 32.003906 28.402344 31.046875 29.363281 29.859375 29.363281 L 23.425781 29.363281 C 22.238281 29.363281 21.28125 28.402344 21.28125 27.21875 L 21.28125 20.78125 C 21.28125 19.597656 22.238281 18.636719 23.425781 18.636719 Z M 23.425781 18.636719 "/>
</g>
</svg>
