<?xml version="1.0" encoding="UTF-8"?>
<svg xmlns="http://www.w3.org/2000/svg" xmlns:xlink="http://www.w3.org/1999/xlink" width="48pt" height="48pt" viewBox="0 0 48 48" version="1.1">
<g id="surface1">
<path style=" stroke:none;fill-rule:evenodd;fill:rgb(55.686275%,55.686275%,55.686275%);fill-opacity:1;" d="M 11.207031 2.847656 L 36.792969 2.847656 C 41.40625 2.847656 45.152344 6.59375 45.152344 11.207031 L 45.152344 36.792969 C 45.152344 41.40625 41.40625 45.152344 36.792969 45.152344 L 11.207031 45.152344 C 6.59375 45.152344 2.847656 41.40625 2.847656 36.792969 L 2.847656 11.207031 C 2.847656 6.59375 6.59375 2.847656 11.207031 2.847656 Z M 11.207031 2.847656 "/>
<path style=" stroke:none;fill-rule:nonzero;fill:rgb(90.196078%,90.196078%,90.196078%);fill-opacity:1;" d="M 24 7.402344 C 18.746094 7.402344 14.515625 11.628906 14.515625 16.886719 L 14.515625 20.441406 L 18.074219 20.441406 L 18.074219 16.886719 C 18.074219 13.605469 20.714844 10.957031 24 10.957031 C 27.285156 10.957031 29.925781 13.605469 29.925781 16.886719 L 29.925781 20.441406 L 33.484375 20.441406 L 33.484375 16.886719 C 33.484375 11.628906 29.253906 7.402344 24 7.402344 Z M 24 7.402344 "/>
<path style=" stroke:none;fill-rule:nonzero;fill:rgb(99.607843%,80.392157%,21.960784%);fill-opacity:1;" d="M 37.042969 38.9375 L 37.042969 22.105469 C 37.042969 21.1875 36.296875 20.441406 35.378906 20.441406 L 12.621094 20.441406 C 11.703125 20.441406 10.957031 21.1875 10.957031 22.105469 L 10.957031 38.9375 C 10.957031 39.855469 11.703125 40.597656 12.621094 40.597656 L 35.378906 40.597656 C 36.296875 40.597656 37.042969 39.855469 37.042969 38.9375 Z M 37.042969 38.9375 "/>
</g>
</svg>
