<?xml version="1.0" encoding="UTF-8"?>
<svg xmlns="http://www.w3.org/2000/svg" xmlns:xlink="http://www.w3.org/1999/xlink" width="48pt" height="48pt" viewBox="0 0 48 48" version="1.1">
<g id="surface1">
<path style=" stroke:none;fill-rule:evenodd;fill:rgb(55.686275%,55.686275%,55.686275%);fill-opacity:1;" d="M 11.203125 2.847656 C 6.574219 2.847656 2.847656 6.574219 2.847656 11.203125 L 2.847656 24.269531 L 45.152344 24.269531 L 45.152344 11.203125 C 45.152344 6.574219 41.425781 2.847656 36.796875 2.847656 Z M 11.203125 2.847656 "/>
<path style=" stroke:none;fill-rule:nonzero;fill:rgb(90.196078%,90.196078%,90.196078%);fill-opacity:1;" d="M 16.089844 9.863281 L 16.089844 25.699219 C 16.089844 26.636719 15.328125 27.386719 14.390625 27.386719 C 13.453125 27.386719 12.703125 26.636719 12.703125 25.699219 L 12.703125 9.863281 C 12.703125 8.941406 13.453125 8.175781 14.390625 8.175781 C 15.328125 8.175781 16.089844 8.941406 16.089844 9.863281 Z M 16.089844 9.863281 "/>
<path style=" stroke:none;fill-rule:evenodd;fill:rgb(30.196078%,30.196078%,30.196078%);fill-opacity:1;" d="M 45.152344 24.269531 L 2.847656 24.269531 L 2.847656 36.796875 C 2.847656 41.425781 6.574219 45.152344 11.203125 45.152344 L 36.796875 45.152344 C 41.425781 45.152344 45.152344 41.425781 45.152344 36.796875 Z M 45.152344 24.269531 "/>
<path style=" stroke:none;fill-rule:nonzero;fill:rgb(75.294118%,97.647059%,34.117647%);fill-opacity:1;" d="M 36.433594 31.910156 C 36.433594 33.785156 34.910156 35.296875 33.046875 35.296875 C 31.171875 35.296875 29.644531 33.785156 29.644531 31.910156 C 29.644531 30.035156 31.171875 28.519531 33.046875 28.519531 C 34.910156 28.519531 36.433594 30.035156 36.433594 31.910156 Z M 36.433594 31.910156 "/>
<path style=" stroke:none;fill-rule:nonzero;fill:rgb(56.862745%,68.627451%,35.686275%);fill-opacity:1;" d="M 27.386719 31.910156 C 27.386719 33.785156 25.875 35.296875 24 35.296875 C 22.125 35.296875 20.613281 33.785156 20.613281 31.910156 C 20.613281 30.035156 22.125 28.519531 24 28.519531 C 25.875 28.519531 27.386719 30.035156 27.386719 31.910156 Z M 27.386719 31.910156 "/>
</g>
</svg>
