<?xml version="1.0" encoding="UTF-8"?>
<svg xmlns="http://www.w3.org/2000/svg" xmlns:xlink="http://www.w3.org/1999/xlink" width="48pt" height="48pt" viewBox="0 0 48 48" version="1.1">
<g id="surface1">
<path style=" stroke:none;fill-rule:evenodd;fill:rgb(55.686275%,55.686275%,55.686275%);fill-opacity:1;" d="M 11.214844 2.847656 L 36.785156 2.847656 C 41.417969 2.847656 45.152344 6.582031 45.152344 11.214844 L 45.152344 36.785156 C 45.152344 41.417969 41.417969 45.152344 36.785156 45.152344 L 11.214844 45.152344 C 6.582031 45.152344 2.847656 41.417969 2.847656 36.785156 L 2.847656 11.214844 C 2.847656 6.582031 6.582031 2.847656 11.214844 2.847656 Z M 11.214844 2.847656 "/>
<path style=" stroke:none;fill-rule:nonzero;fill:rgb(30.980392%,60.392157%,23.529412%);fill-opacity:1;" d="M 24.058594 13.675781 C 18.609375 13.675781 13.699219 15.609375 9.636719 18.609375 L 24.058594 34.324219 L 38.363281 18.5625 C 34.3125 15.582031 29.457031 13.675781 24.058594 13.675781 Z M 24.058594 13.675781 "/>
<path style=" stroke:none;fill-rule:nonzero;fill:rgb(61.176471%,85.490196%,44.705882%);fill-opacity:1;" d="M 24 17.800781 C 19.667969 17.800781 15.636719 19.21875 12.394531 21.636719 L 24.058594 34.324219 L 35.605469 21.636719 C 32.363281 19.230469 28.332031 17.800781 24 17.800781 Z M 24 17.800781 "/>
<path style=" stroke:none;fill-rule:nonzero;fill:rgb(90.196078%,90.196078%,90.196078%);fill-opacity:1;" d="M 24 21.925781 C 20.738281 21.925781 17.71875 23.003906 15.292969 24.796875 L 24.046875 34.324219 L 32.707031 24.796875 C 30.269531 23.003906 27.261719 21.9375 24 21.9375 Z M 24 21.925781 "/>
</g>
</svg>
