<?xml version="1.0" encoding="UTF-8"?>
<svg xmlns="http://www.w3.org/2000/svg" xmlns:xlink="http://www.w3.org/1999/xlink" width="48pt" height="48pt" viewBox="0 0 48 48" version="1.1">
<g id="surface1">
<path style=" stroke:none;fill-rule:evenodd;fill:rgb(55.686275%,55.686275%,55.686275%);fill-opacity:1;" d="M 11.214844 2.847656 L 36.785156 2.847656 C 41.417969 2.847656 45.152344 6.582031 45.152344 11.214844 L 45.152344 36.785156 C 45.152344 41.417969 41.417969 45.152344 36.785156 45.152344 L 11.214844 45.152344 C 6.582031 45.152344 2.847656 41.417969 2.847656 36.785156 L 2.847656 11.214844 C 2.847656 6.582031 6.582031 2.847656 11.214844 2.847656 Z M 11.214844 2.847656 "/>
<path style=" stroke:none;fill-rule:nonzero;fill:rgb(90.196078%,90.196078%,90.196078%);fill-opacity:1;" d="M 24 7.40625 C 18.75 7.40625 14.519531 11.636719 14.519531 16.886719 L 14.519531 20.4375 L 18.074219 20.4375 L 18.074219 16.886719 C 18.074219 13.605469 20.71875 10.957031 24 10.957031 C 27.28125 10.957031 29.925781 13.605469 29.925781 16.886719 L 29.925781 20.4375 L 33.480469 20.4375 L 33.480469 16.886719 C 33.480469 11.636719 29.25 7.40625 24 7.40625 Z M 24 7.40625 "/>
<path style=" stroke:none;fill-rule:nonzero;fill:rgb(99.607843%,80.392157%,21.960784%);fill-opacity:1;" d="M 37.042969 38.941406 L 37.042969 22.105469 C 37.042969 21.1875 36.300781 20.4375 35.378906 20.4375 L 12.621094 20.4375 C 11.699219 20.4375 10.957031 21.1875 10.957031 22.105469 L 10.957031 38.941406 C 10.957031 39.855469 11.699219 40.59375 12.621094 40.59375 L 35.378906 40.59375 C 36.300781 40.59375 37.042969 39.855469 37.042969 38.941406 Z M 37.042969 38.941406 "/>
</g>
</svg>
