<?xml version="1.0" encoding="UTF-8"?>
<svg xmlns="http://www.w3.org/2000/svg" xmlns:xlink="http://www.w3.org/1999/xlink" width="48pt" height="48pt" viewBox="0 0 48 48" version="1.1">
<g id="surface1">
<path style=" stroke:none;fill-rule:evenodd;fill:rgb(55.686275%,55.686275%,55.686275%);fill-opacity:1;" d="M 11.207031 2.847656 C 6.578125 2.847656 2.847656 6.578125 2.847656 11.207031 L 2.847656 24.269531 L 45.152344 24.269531 L 45.152344 11.207031 C 45.152344 6.578125 41.421875 2.847656 36.792969 2.847656 Z M 11.207031 2.847656 "/>
<path style=" stroke:none;fill-rule:nonzero;fill:rgb(90.196078%,90.196078%,90.196078%);fill-opacity:1;" d="M 16.089844 9.875 L 16.089844 25.691406 C 16.089844 26.628906 15.328125 27.390625 14.394531 27.390625 C 13.457031 27.390625 12.699219 26.628906 12.699219 25.691406 L 12.699219 9.875 C 12.699219 8.9375 13.457031 8.175781 14.394531 8.175781 C 15.328125 8.175781 16.089844 8.9375 16.089844 9.875 Z M 16.089844 9.875 "/>
<path style=" stroke:none;fill-rule:evenodd;fill:rgb(30.196078%,30.196078%,30.196078%);fill-opacity:1;" d="M 45.152344 24.269531 L 2.847656 24.269531 L 2.847656 36.792969 C 2.847656 41.421875 6.578125 45.152344 11.207031 45.152344 L 36.792969 45.152344 C 41.421875 45.152344 45.152344 41.421875 45.152344 36.792969 Z M 45.152344 24.269531 "/>
<path style=" stroke:none;fill-rule:nonzero;fill:rgb(75.294118%,97.647059%,34.117647%);fill-opacity:1;" d="M 36.433594 31.910156 C 36.433594 33.78125 34.910156 35.300781 33.042969 35.300781 C 31.167969 35.300781 29.652344 33.78125 29.652344 31.910156 C 29.652344 30.035156 31.167969 28.519531 33.042969 28.519531 C 34.910156 28.519531 36.433594 30.035156 36.433594 31.910156 Z M 36.433594 31.910156 "/>
<path style=" stroke:none;fill-rule:nonzero;fill:rgb(56.862745%,68.627451%,35.686275%);fill-opacity:1;" d="M 27.390625 31.910156 C 27.390625 33.78125 25.875 35.300781 24 35.300781 C 22.125 35.300781 20.609375 33.78125 20.609375 31.910156 C 20.609375 30.035156 22.125 28.519531 24 28.519531 C 25.875 28.519531 27.390625 30.035156 27.390625 31.910156 Z M 27.390625 31.910156 "/>
</g>
</svg>
