<?xml version="1.0" encoding="UTF-8"?>
<svg xmlns="http://www.w3.org/2000/svg" xmlns:xlink="http://www.w3.org/1999/xlink" width="48pt" height="48pt" viewBox="0 0 48 48" version="1.1">
<g id="surface1">
<path style=" stroke:none;fill-rule:evenodd;fill:rgb(55.686275%,55.686275%,55.686275%);fill-opacity:1;" d="M 33.261719 45.152344 L 36.796875 45.152344 C 41.425781 45.152344 45.152344 41.425781 45.152344 36.796875 L 45.152344 11.203125 C 45.152344 6.574219 41.425781 2.847656 36.796875 2.847656 L 33.261719 2.847656 Z M 33.261719 45.152344 "/>
<path style=" stroke:none;fill-rule:evenodd;fill:rgb(55.686275%,55.686275%,55.686275%);fill-opacity:1;" d="M 14.738281 2.847656 L 11.203125 2.847656 C 6.574219 2.847656 2.847656 6.574219 2.847656 11.203125 L 2.847656 36.796875 C 2.847656 41.425781 6.574219 45.152344 11.203125 45.152344 L 14.738281 45.152344 Z M 14.738281 2.847656 "/>
<path style=" stroke:none;fill-rule:evenodd;fill:rgb(90.196078%,90.196078%,90.196078%);fill-opacity:1;" d="M 14.738281 2.847656 L 14.738281 45.152344 L 33.261719 45.152344 L 33.261719 2.847656 Z M 14.738281 2.847656 "/>
<path style=" stroke:none;fill-rule:nonzero;fill:rgb(90.196078%,90.196078%,90.196078%);fill-opacity:1;" d="M 32.121094 8.25 L 32.121094 39.75 C 32.121094 40.707031 31.394531 41.496094 30.503906 41.496094 L 17.496094 41.496094 C 16.605469 41.496094 15.878906 40.707031 15.878906 39.75 L 15.878906 8.25 C 15.878906 7.292969 16.605469 6.503906 17.496094 6.503906 L 30.503906 6.503906 C 31.394531 6.503906 32.121094 7.292969 32.121094 8.25 Z M 32.121094 8.25 "/>
<path style=" stroke:none;fill-rule:nonzero;fill:rgb(35.686275%,35.686275%,35.686275%);fill-opacity:1;" d="M 28.371094 13.761719 C 28.371094 13.265625 27.984375 12.878906 27.503906 12.878906 L 25.746094 12.878906 L 25.746094 11.136719 C 25.746094 10.640625 25.359375 10.253906 24.878906 10.253906 L 23.121094 10.253906 C 22.640625 10.253906 22.253906 10.640625 22.253906 11.136719 L 22.253906 12.878906 L 20.496094 12.878906 C 20.015625 12.878906 19.628906 13.265625 19.628906 13.761719 L 19.628906 15.503906 C 19.628906 15.984375 20.015625 16.386719 20.496094 16.386719 L 22.253906 16.386719 L 22.253906 18.128906 C 22.253906 18.609375 22.640625 18.996094 23.121094 18.996094 L 24.878906 18.996094 C 25.359375 18.996094 25.746094 18.609375 25.746094 18.128906 L 25.746094 16.371094 L 27.488281 16.371094 C 27.984375 16.371094 28.371094 15.984375 28.371094 15.503906 Z M 28.371094 13.761719 "/>
<path style=" stroke:none;fill-rule:nonzero;fill:rgb(35.686275%,35.686275%,35.686275%);fill-opacity:1;" d="M 26.496094 37.746094 C 25.464844 37.746094 24.621094 36.902344 24.621094 35.871094 C 24.621094 34.839844 25.464844 33.996094 26.496094 33.996094 C 27.542969 33.996094 28.371094 34.839844 28.371094 35.871094 C 28.371094 36.902344 27.542969 37.746094 26.496094 37.746094 Z M 26.496094 37.746094 "/>
<path style=" stroke:none;fill-rule:nonzero;fill:rgb(35.686275%,35.686275%,35.686275%);fill-opacity:1;" d="M 26.496094 32.738281 C 25.464844 32.738281 24.621094 31.910156 24.621094 30.878906 C 24.621094 29.832031 25.464844 29.003906 26.496094 29.003906 C 27.542969 29.003906 28.371094 29.832031 28.371094 30.878906 C 28.371094 31.910156 27.542969 32.738281 26.496094 32.738281 Z M 26.496094 32.738281 "/>
<path style=" stroke:none;fill-rule:nonzero;fill:rgb(35.686275%,35.686275%,35.686275%);fill-opacity:1;" d="M 21.503906 37.746094 C 20.457031 37.746094 19.628906 36.902344 19.628906 35.871094 C 19.628906 34.839844 20.457031 33.996094 21.503906 33.996094 C 22.535156 33.996094 23.378906 34.839844 23.378906 35.871094 C 23.378906 36.902344 22.535156 37.746094 21.503906 37.746094 Z M 21.503906 37.746094 "/>
<path style=" stroke:none;fill-rule:nonzero;fill:rgb(35.686275%,35.686275%,35.686275%);fill-opacity:1;" d="M 21.503906 32.738281 C 20.457031 32.738281 19.628906 31.910156 19.628906 30.878906 C 19.628906 29.832031 20.457031 29.003906 21.503906 29.003906 C 22.535156 29.003906 23.378906 29.832031 23.378906 30.878906 C 23.378906 31.910156 22.535156 32.738281 21.503906 32.738281 Z M 21.503906 32.738281 "/>
</g>
</svg>
