<?xml version="1.0" encoding="UTF-8"?>
<svg xmlns="http://www.w3.org/2000/svg" xmlns:xlink="http://www.w3.org/1999/xlink" width="36pt" height="36pt" viewBox="0 0 36 36" version="1.1">
<defs>
<linearGradient id="linear0" gradientUnits="userSpaceOnUse" x1="0" y1="392.36" x2="0" y2="365.36" gradientTransform="matrix(1.125,0,0,1.125,-65.25225,-409.90725)">
<stop offset="0" style="stop-color:rgb(100%,100%,100%);stop-opacity:0;"/>
<stop offset="1" style="stop-color:rgb(100%,100%,100%);stop-opacity:0.2;"/>
</linearGradient>
<filter id="alpha" filterUnits="objectBoundingBox" x="0%" y="0%" width="100%" height="100%">
  <feColorMatrix type="matrix" in="SourceGraphic" values="0 0 0 0 1 0 0 0 0 1 0 0 0 0 1 0 0 0 1 0"/>
</filter>
<mask id="mask0">
  <g filter="url(#alpha)">
<rect x="0" y="0" width="36" height="36" style="fill:rgb(0%,0%,0%);fill-opacity:0.901961;stroke:none;"/>
  </g>
</mask>
<clipPath id="clip1">
  <rect width="36" height="36"/>
</clipPath>
<g id="surface6" clip-path="url(#clip1)">
<path style=" stroke:none;fill-rule:evenodd;fill:rgb(67.058824%,89.411765%,94.509804%);fill-opacity:1;" d="M 13.5 12.324219 L 13.5 15.699219 L 14.625 15.699219 L 14.625 17.558594 C 13.953125 17.796875 13.5 18.429688 13.5 19.144531 C 13.5 19.859375 13.953125 20.496094 14.625 20.734375 L 14.625 22.449219 L 13.5 22.449219 L 13.5 25.824219 L 16.875 25.824219 L 16.875 23.789062 C 18.355469 25.089844 20.382812 25.820312 22.5 25.824219 L 22.5 24.699219 C 19.484375 24.699219 16.835938 23.03125 16.007812 20.613281 C 16.542969 20.316406 16.875 19.753906 16.875 19.144531 C 16.875 18.519531 16.527344 17.949219 15.976562 17.65625 C 16.75 15.183594 19.429688 13.453125 22.5 13.449219 L 22.5 12.324219 C 20.382812 12.324219 18.355469 13.054688 16.875 14.351562 L 16.875 12.324219 Z M 14.625 13.449219 L 15.75 13.449219 L 15.75 14.574219 L 14.625 14.574219 Z M 14.625 23.574219 L 15.75 23.574219 L 15.75 24.699219 L 14.625 24.699219 Z M 14.625 23.574219 "/>
</g>
</defs>
<g id="surface1">
<path style=" stroke:none;fill-rule:nonzero;fill:url(#linear0);" d="M 24.746094 32.621094 L 24.746094 1.121094 L 41.621094 1.121094 L 49.496094 8.996094 L 49.496094 32.621094 Z M 24.746094 32.621094 "/>
<path style=" stroke:none;fill-rule:evenodd;fill:rgb(29.019608%,77.254902%,87.843137%);fill-opacity:1;" d="M 23.835938 2.25 L 8.476562 2.25 C 5.027344 2.25 2.25 5.027344 2.25 8.476562 L 2.25 27.523438 C 2.25 30.972656 5.027344 33.75 8.476562 33.75 L 27.523438 33.75 C 30.972656 33.75 33.75 30.972656 33.75 27.523438 L 33.75 12.164062 Z M 23.835938 2.25 "/>
<path style=" stroke:none;fill-rule:evenodd;fill:rgb(67.058824%,89.411765%,94.509804%);fill-opacity:1;" d="M 33.75 12.164062 L 23.835938 2.25 L 23.835938 5.9375 C 23.835938 9.386719 26.613281 12.164062 30.0625 12.164062 Z M 33.75 12.164062 "/>
<use xlink:href="#surface6" mask="url(#mask0)"/>
</g>
</svg>
