<?xml version="1.0" encoding="UTF-8"?>
<svg xmlns="http://www.w3.org/2000/svg" xmlns:xlink="http://www.w3.org/1999/xlink" width="36pt" height="36pt" viewBox="0 0 36 36" version="1.1">
<g id="surface1">
<path style=" stroke:none;fill-rule:evenodd;fill:rgb(52.156863%,25.882353%,76.078431%);fill-opacity:1;" d="M 23.835938 2.25 L 8.476562 2.25 C 5.027344 2.25 2.25 5.027344 2.25 8.476562 L 2.25 27.523438 C 2.25 30.972656 5.027344 33.75 8.476562 33.75 L 27.523438 33.75 C 30.972656 33.75 33.75 30.972656 33.75 27.523438 L 33.75 12.164062 Z M 23.835938 2.25 "/>
<path style=" stroke:none;fill-rule:evenodd;fill:rgb(80%,69.019608%,90.196078%);fill-opacity:1;" d="M 33.75 12.164062 L 23.835938 2.25 L 23.835938 5.9375 C 23.835938 9.386719 26.613281 12.164062 30.0625 12.164062 Z M 33.75 12.164062 "/>
<path style=" stroke:none;fill-rule:nonzero;fill:rgb(76.078431%,63.137255%,88.235294%);fill-opacity:1;" d="M 20.8125 10.503906 L 18 13.878906 L 19.125 13.878906 L 19.125 15.003906 L 13.5 15.003906 L 13.5 24.003906 L 12.375 24.003906 L 15.1875 27.378906 L 18 24.003906 L 16.875 24.003906 L 16.875 22.878906 L 22.5 22.878906 L 22.5 13.878906 L 23.625 13.878906 Z M 20.8125 12.191406 L 21.375 12.753906 L 21.375 21.753906 L 16.875 21.753906 L 16.875 20.628906 L 20.25 20.628906 L 20.25 12.753906 Z M 14.625 16.128906 L 19.125 16.128906 L 19.125 17.253906 L 15.75 17.253906 L 15.75 25.128906 L 15.1875 25.691406 L 14.625 25.128906 Z M 16.875 18.378906 L 19.125 18.378906 L 19.125 19.503906 L 16.875 19.503906 Z M 16.875 18.378906 "/>
</g>
</svg>
