<?xml version="1.0" encoding="UTF-8"?>
<svg xmlns="http://www.w3.org/2000/svg" xmlns:xlink="http://www.w3.org/1999/xlink" width="36pt" height="36pt" viewBox="0 0 36 36" version="1.1">
<defs>
<filter id="alpha" filterUnits="objectBoundingBox" x="0%" y="0%" width="100%" height="100%">
  <feColorMatrix type="matrix" in="SourceGraphic" values="0 0 0 0 1 0 0 0 0 1 0 0 0 0 1 0 0 0 1 0"/>
</filter>
<mask id="mask0">
  <g filter="url(#alpha)">
<rect x="0" y="0" width="36" height="36" style="fill:rgb(0%,0%,0%);fill-opacity:0.4;stroke:none;"/>
  </g>
</mask>
<clipPath id="clip1">
  <rect width="36" height="36"/>
</clipPath>
<g id="surface6" clip-path="url(#clip1)">
<path style=" stroke:none;fill-rule:nonzero;fill:rgb(0%,0%,0%);fill-opacity:1;" d="M 17.304688 11.761719 C 17.15625 11.761719 17.019531 11.820312 16.914062 11.925781 C 16.695312 12.144531 16.695312 12.5 16.914062 12.71875 L 20.519531 16.324219 C 20.429688 16.320312 20.339844 16.316406 20.25 16.316406 L 11.8125 16.316406 C 11.5 16.316406 11.25 16.570312 11.25 16.878906 C 11.25 17.191406 11.5 17.441406 11.8125 17.441406 L 17.203125 17.441406 L 11.414062 23.230469 C 11.195312 23.449219 11.195312 23.808594 11.414062 24.027344 C 11.636719 24.246094 11.992188 24.246094 12.210938 24.027344 L 15.769531 20.46875 C 15.757812 20.582031 15.753906 20.699219 15.75 20.816406 C 15.75 23.300781 17.765625 25.316406 20.25 25.316406 C 22.734375 25.316406 24.75 23.300781 24.75 20.816406 C 24.75 19.746094 24.367188 18.710938 23.667969 17.894531 L 23.675781 17.890625 L 23.523438 17.738281 C 23.449219 17.660156 23.375 17.582031 23.296875 17.507812 L 17.710938 11.921875 C 17.601562 11.816406 17.457031 11.757812 17.304688 11.757812 M 20.25 17.441406 C 21.078125 17.441406 21.878906 17.746094 22.496094 18.300781 L 22.75 18.554688 C 23.3125 19.175781 23.625 19.980469 23.625 20.816406 C 23.625 22.679688 22.113281 24.191406 20.25 24.191406 C 18.386719 24.191406 16.875 22.679688 16.875 20.816406 C 16.875 18.953125 18.386719 17.441406 20.25 17.441406 M 20.25 19.691406 C 19.628906 19.691406 19.125 20.195312 19.125 20.816406 C 19.125 21.4375 19.628906 21.941406 20.25 21.941406 C 20.871094 21.941406 21.375 21.4375 21.375 20.816406 C 21.375 20.195312 20.871094 19.691406 20.25 19.691406 "/>
</g>
</defs>
<g id="surface1">
<path style=" stroke:none;fill-rule:evenodd;fill:rgb(100%,58.823529%,22.352941%);fill-opacity:1;" d="M 23.835938 2.25 L 8.476562 2.25 C 5.027344 2.25 2.25 5.027344 2.25 8.476562 L 2.25 27.523438 C 2.25 30.972656 5.027344 33.75 8.476562 33.75 L 27.523438 33.75 C 30.972656 33.75 33.75 30.972656 33.75 27.523438 L 33.75 12.164062 Z M 23.835938 2.25 "/>
<path style=" stroke:none;fill-rule:evenodd;fill:rgb(66.27451%,43.137255%,22.745098%);fill-opacity:1;" d="M 33.75 12.164062 L 23.835938 2.25 L 23.835938 5.9375 C 23.835938 9.386719 26.613281 12.164062 30.0625 12.164062 Z M 33.75 12.164062 "/>
<use xlink:href="#surface6" mask="url(#mask0)"/>
</g>
</svg>
