<?xml version="1.0" encoding="UTF-8"?>
<svg xmlns="http://www.w3.org/2000/svg" xmlns:xlink="http://www.w3.org/1999/xlink" width="36pt" height="36pt" viewBox="0 0 36 36" version="1.1">
<g id="surface1">
<path style=" stroke:none;fill-rule:evenodd;fill:rgb(100%,54.509804%,13.72549%);fill-opacity:1;" d="M 23.835938 2.25 L 8.476562 2.25 C 5.027344 2.25 2.25 5.027344 2.25 8.476562 L 2.25 27.523438 C 2.25 30.972656 5.027344 33.75 8.476562 33.75 L 27.523438 33.75 C 30.972656 33.75 33.75 30.972656 33.75 27.523438 L 33.75 12.164062 Z M 23.835938 2.25 "/>
<path style=" stroke:none;fill-rule:evenodd;fill:rgb(40%,21.960784%,5.490196%);fill-opacity:1;" d="M 33.75 12.164062 L 23.835938 2.25 L 23.835938 5.9375 C 23.835938 9.386719 26.613281 12.164062 30.0625 12.164062 Z M 33.75 12.164062 "/>
<path style=" stroke:none;fill-rule:nonzero;fill:rgb(40%,21.960784%,5.490196%);fill-opacity:1;" d="M 16.875 2.25 L 16.875 3.375 L 18 3.375 L 18 2.25 Z M 18 3.375 L 18 4.5 L 19.125 4.5 L 19.125 3.375 Z M 18 4.5 L 16.875 4.5 L 16.875 5.625 L 18 5.625 Z M 18 5.625 L 18 6.75 L 19.125 6.75 L 19.125 5.625 Z M 18 6.75 L 16.875 6.75 L 16.875 7.875 L 18 7.875 Z M 18 7.875 L 18 9 L 19.125 9 L 19.125 7.875 Z M 18 9 L 16.875 9 L 16.875 11.25 L 19.125 11.25 L 19.125 10.125 L 18 10.125 Z M 18 9 "/>
<path style=" stroke:none;fill-rule:nonzero;fill:rgb(40%,21.960784%,5.490196%);fill-opacity:1;" d="M 17.589844 12.59375 L 17.589844 16.640625 L 18.941406 16.640625 L 18.941406 12.59375 Z M 14.894531 13.941406 L 14.894531 16.640625 L 16.242188 16.640625 L 16.242188 13.941406 Z M 20.289062 13.941406 L 20.289062 16.640625 L 21.636719 16.640625 L 21.636719 13.941406 Z M 12.195312 15.292969 L 12.195312 16.640625 L 13.542969 16.640625 L 13.542969 15.292969 Z M 10.847656 17.988281 L 10.847656 23.382812 C 10.847656 25.828125 12.203125 27.429688 14.894531 27.429688 L 12.195312 27.429688 L 12.195312 28.78125 L 22.988281 28.78125 L 22.988281 27.429688 L 20.289062 27.429688 C 22.410156 27.429688 23.671875 26.449219 24.335938 24.734375 L 25.683594 24.734375 C 27.035156 24.734375 27.035156 24.730469 27.035156 23.257812 L 27.035156 21.78125 C 27.035156 19.328125 27.035156 19.335938 25.683594 19.335938 L 24.335938 19.335938 L 24.335938 17.988281 Z M 12.195312 19.335938 L 22.988281 19.335938 L 22.988281 23.382812 C 22.988281 25.421875 21.183594 26.082031 18.941406 26.082031 L 16.242188 26.082031 C 14 26.082031 12.195312 25.421875 12.195312 23.382812 Z M 24.335938 20.6875 L 25.683594 20.6875 L 25.683594 23.382812 L 24.335938 23.382812 Z M 24.335938 20.6875 "/>
</g>
</svg>
