<?xml version="1.0" encoding="UTF-8"?>
<svg xmlns="http://www.w3.org/2000/svg" xmlns:xlink="http://www.w3.org/1999/xlink" width="36pt" height="36pt" viewBox="0 0 36 36" version="1.1">
<g id="surface1">
<path style=" stroke:none;fill-rule:evenodd;fill:rgb(54.509804%,58.823529%,82.352941%);fill-opacity:1;" d="M 23.835938 2.25 L 8.476562 2.25 C 5.027344 2.25 2.25 5.027344 2.25 8.476562 L 2.25 27.523438 C 2.25 30.972656 5.027344 33.75 8.476562 33.75 L 27.523438 33.75 C 30.972656 33.75 33.75 30.972656 33.75 27.523438 L 33.75 12.164062 Z M 23.835938 2.25 "/>
<path style=" stroke:none;fill-rule:evenodd;fill:rgb(45.098039%,53.72549%,75.294118%);fill-opacity:1;" d="M 33.75 12.164062 L 23.835938 2.25 L 23.835938 5.9375 C 23.835938 9.386719 26.613281 12.164062 30.0625 12.164062 Z M 33.75 12.164062 "/>
<path style=" stroke:none;fill-rule:nonzero;fill:rgb(74.117647%,78.823529%,100%);fill-opacity:1;" d="M 9.828125 12.097656 L 9.828125 13.582031 L 26.171875 13.582031 L 26.171875 12.097656 Z M 9.828125 16.554688 L 9.828125 18.039062 L 26.171875 18.039062 L 26.171875 16.554688 Z M 9.828125 21.011719 L 9.828125 22.496094 L 26.171875 22.496094 L 26.171875 21.011719 Z M 9.828125 25.46875 L 9.828125 26.953125 L 21.714844 26.953125 L 21.714844 25.46875 Z M 9.828125 25.46875 "/>
</g>
</svg>
