<?xml version="1.0" encoding="UTF-8"?>
<svg xmlns="http://www.w3.org/2000/svg" xmlns:xlink="http://www.w3.org/1999/xlink" width="36pt" height="36pt" viewBox="0 0 36 36" version="1.1">
<defs>
<filter id="alpha" filterUnits="objectBoundingBox" x="0%" y="0%" width="100%" height="100%">
  <feColorMatrix type="matrix" in="SourceGraphic" values="0 0 0 0 1 0 0 0 0 1 0 0 0 0 1 0 0 0 1 0"/>
</filter>
<mask id="mask0">
  <g filter="url(#alpha)">
<rect x="0" y="0" width="36" height="36" style="fill:rgb(0%,0%,0%);fill-opacity:0.282353;stroke:none;"/>
  </g>
</mask>
<clipPath id="clip1">
  <rect width="36" height="36"/>
</clipPath>
<g id="surface6" clip-path="url(#clip1)">
<path style=" stroke:none;fill-rule:evenodd;fill:rgb(60%,60%,60%);fill-opacity:1;" d="M 33.75 12.164062 L 23.835938 2.25 L 23.835938 5.9375 C 23.835938 9.386719 26.613281 12.164062 30.0625 12.164062 Z M 33.75 12.164062 "/>
</g>
</defs>
<g id="surface1">
<path style=" stroke:none;fill-rule:evenodd;fill:rgb(80%,80%,80%);fill-opacity:1;" d="M 23.835938 2.25 L 8.476562 2.25 C 5.027344 2.25 2.25 5.027344 2.25 8.476562 L 2.25 27.523438 C 2.25 30.972656 5.027344 33.75 8.476562 33.75 L 27.523438 33.75 C 30.972656 33.75 33.75 30.972656 33.75 27.523438 L 33.75 12.164062 Z M 23.835938 2.25 "/>
<use xlink:href="#surface6" mask="url(#mask0)"/>
<path style=" stroke:none;fill-rule:nonzero;fill:rgb(65.882353%,65.882353%,65.882353%);fill-opacity:1;" d="M 18 12.375 C 14.71875 12.375 11.914062 13.132812 10.75 14.199219 C 10.652344 14.289062 10.570312 14.378906 10.496094 14.476562 C 10.425781 14.5625 10.363281 14.65625 10.316406 14.75 C 10.304688 14.777344 10.292969 14.804688 10.285156 14.835938 C 10.257812 14.898438 10.230469 14.957031 10.214844 15.023438 C 10.1875 15.113281 10.175781 15.203125 10.175781 15.296875 C 10.175781 15.390625 10.191406 15.488281 10.214844 15.582031 C 10.238281 15.671875 10.277344 15.765625 10.324219 15.855469 C 10.371094 15.945312 10.433594 16.035156 10.503906 16.125 C 10.574219 16.214844 10.65625 16.304688 10.75 16.390625 C 11.945312 17.496094 14.8125 18.214844 18 18.21875 C 21.1875 18.214844 24.054688 17.496094 25.25 16.390625 C 25.25 16.390625 25.25 16.390625 25.253906 16.390625 C 25.332031 16.316406 25.398438 16.238281 25.460938 16.164062 C 25.476562 16.148438 25.492188 16.132812 25.503906 16.117188 C 25.550781 16.054688 25.59375 15.988281 25.628906 15.925781 C 25.648438 15.894531 25.671875 15.863281 25.6875 15.832031 C 25.714844 15.78125 25.734375 15.726562 25.753906 15.671875 C 25.769531 15.628906 25.785156 15.585938 25.792969 15.542969 C 25.8125 15.460938 25.824219 15.378906 25.824219 15.296875 C 25.824219 15.199219 25.8125 15.101562 25.785156 15.003906 C 25.707031 14.722656 25.523438 14.453125 25.25 14.199219 C 24.085938 13.132812 21.28125 12.375 18 12.375 Z M 10.75 18.21875 C 10.371094 18.597656 10.175781 19.003906 10.175781 19.414062 C 10.175781 21.171875 13.679688 22.597656 18 22.597656 C 22.320312 22.597656 25.824219 21.171875 25.824219 19.414062 C 25.824219 19.003906 25.628906 18.597656 25.25 18.21875 C 24.054688 19.421875 21.1875 20.40625 18 20.410156 C 14.8125 20.40625 11.945312 19.421875 10.75 18.21875 Z M 10.75 22.597656 C 10.371094 22.980469 10.175781 23.386719 10.175781 23.792969 C 10.175781 25.554688 13.679688 26.980469 18 26.980469 C 22.320312 26.980469 25.824219 25.554688 25.824219 23.792969 C 25.824219 23.386719 25.628906 22.980469 25.25 22.597656 C 24.054688 23.800781 21.1875 24.789062 18 24.789062 C 14.8125 24.789062 11.945312 23.800781 10.75 22.597656 Z M 10.75 22.597656 "/>
</g>
</svg>
