<?xml version="1.0" encoding="UTF-8"?>
<svg xmlns="http://www.w3.org/2000/svg" xmlns:xlink="http://www.w3.org/1999/xlink" width="36pt" height="36pt" viewBox="0 0 36 36" version="1.1">
<g id="surface1">
<path style=" stroke:none;fill-rule:evenodd;fill:rgb(98.039216%,85.098039%,40.392157%);fill-opacity:1;" d="M 23.835938 2.25 L 8.476562 2.25 C 5.027344 2.25 2.25 5.027344 2.25 8.476562 L 2.25 27.523438 C 2.25 30.972656 5.027344 33.75 8.476562 33.75 L 27.523438 33.75 C 30.972656 33.75 33.75 30.972656 33.75 27.523438 L 33.75 12.164062 Z M 23.835938 2.25 "/>
<path style=" stroke:none;fill-rule:evenodd;fill:rgb(98.823529%,92.941176%,70.588235%);fill-opacity:1;" d="M 33.75 12.164062 L 23.835938 2.25 L 23.835938 5.9375 C 23.835938 9.386719 26.613281 12.164062 30.0625 12.164062 Z M 33.75 12.164062 "/>
<path style=" stroke:none;fill-rule:nonzero;fill:rgb(98.823529%,92.941176%,70.588235%);fill-opacity:1;" d="M 18 9.371094 C 16.339844 15.289062 11.796875 18.785156 11.796875 22.054688 C 11.796875 25.324219 14.574219 27.972656 18 27.972656 C 21.425781 27.972656 24.203125 25.324219 24.203125 22.054688 C 24.203125 18.785156 19.660156 15.289062 18 9.371094 M 22.261719 19.035156 C 22.945312 19.90625 23.3125 20.964844 23.316406 22.054688 C 23.316406 24.855469 20.9375 27.128906 18 27.128906 C 16.863281 27.125 15.753906 26.773438 14.839844 26.128906 C 15.296875 26.230469 15.761719 26.28125 16.226562 26.28125 C 19.652344 26.28125 22.429688 23.632812 22.429688 20.363281 C 22.425781 19.914062 22.371094 19.46875 22.261719 19.035156 "/>
</g>
</svg>
