<?xml version="1.0" encoding="UTF-8"?>
<svg xmlns="http://www.w3.org/2000/svg" xmlns:xlink="http://www.w3.org/1999/xlink" width="36pt" height="36pt" viewBox="0 0 36 36" version="1.1">
<g id="surface1">
<path style=" stroke:none;fill-rule:evenodd;fill:rgb(87.45098%,26.666667%,25.098039%);fill-opacity:1;" d="M 23.835938 2.25 L 8.476562 2.25 C 5.027344 2.25 2.25 5.027344 2.25 8.476562 L 2.25 27.523438 C 2.25 30.972656 5.027344 33.75 8.476562 33.75 L 27.523438 33.75 C 30.972656 33.75 33.75 30.972656 33.75 27.523438 L 33.75 12.164062 Z M 23.835938 2.25 "/>
<path style=" stroke:none;fill-rule:evenodd;fill:rgb(96.862745%,81.568627%,81.176471%);fill-opacity:1;" d="M 33.75 12.164062 L 23.835938 2.25 L 23.835938 5.9375 C 23.835938 9.386719 26.613281 12.164062 30.0625 12.164062 Z M 33.75 12.164062 "/>
<path style=" stroke:none;fill-rule:nonzero;fill:rgb(96.862745%,81.568627%,81.176471%);fill-opacity:1;" d="M 18 13.515625 C 16.757812 13.515625 15.75 14.527344 15.75 15.765625 L 15.75 20.265625 C 15.75 21.503906 16.757812 22.515625 18 22.515625 C 19.242188 22.515625 20.25 21.503906 20.25 20.265625 L 20.25 15.765625 C 20.25 14.527344 19.242188 13.515625 18 13.515625 Z M 18 14.640625 C 18.621094 14.640625 19.125 15.089844 19.125 15.765625 C 19.125 16.328125 18.621094 16.890625 18 16.890625 C 17.378906 16.890625 16.875 16.328125 16.875 15.765625 C 16.875 15.089844 17.378906 14.640625 18 14.640625 Z M 18 18.015625 C 18.621094 18.015625 19.125 18.519531 19.125 19.140625 L 19.125 20.265625 C 19.125 20.886719 18.621094 21.390625 18 21.390625 C 17.378906 21.390625 16.875 20.886719 16.875 20.265625 L 16.875 19.140625 C 16.875 18.519531 17.378906 18.015625 18 18.015625 Z M 18 18.015625 "/>
<path style=" stroke:none;fill-rule:nonzero;fill:rgb(96.862745%,81.568627%,81.176471%);fill-opacity:1;" d="M 16.875 2.265625 L 16.875 3.390625 L 18 3.390625 L 18 2.265625 Z M 16.875 4.515625 L 16.875 5.640625 L 18 5.640625 L 18 4.515625 Z M 16.875 6.765625 L 16.875 7.890625 L 18 7.890625 L 18 6.765625 Z M 16.875 9.015625 L 16.875 10.140625 L 18 10.140625 L 18 9.015625 Z M 16.875 11.265625 L 16.875 12.390625 L 18 12.390625 L 18 11.265625 Z M 16.875 11.265625 "/>
<path style=" stroke:none;fill-rule:nonzero;fill:rgb(96.862745%,81.568627%,81.176471%);fill-opacity:1;" d="M 18 3.390625 L 18 4.515625 L 19.125 4.515625 L 19.125 3.390625 Z M 18 5.640625 L 18 6.765625 L 19.125 6.765625 L 19.125 5.640625 Z M 18 7.890625 L 18 9.015625 L 19.125 9.015625 L 19.125 7.890625 Z M 18 10.140625 L 18 11.265625 L 19.125 11.265625 L 19.125 10.140625 Z M 18 12.390625 L 18 13.515625 L 19.125 13.515625 L 19.125 12.390625 Z M 18 12.390625 "/>
<path style=" stroke:none;fill-rule:nonzero;fill:rgb(98.823529%,73.72549%,74.509804%);fill-opacity:1;" d="M 26.21875 21.679688 C 23.683594 21.679688 21.625 23.738281 21.625 26.273438 C 21.625 28.808594 23.683594 30.867188 26.21875 30.867188 C 28.753906 30.867188 30.8125 28.808594 30.8125 26.273438 C 30.8125 23.738281 28.753906 21.679688 26.21875 21.679688 Z M 26.21875 22.445312 C 28.332031 22.445312 30.046875 24.160156 30.046875 26.273438 C 30.046875 28.386719 28.332031 30.101562 26.21875 30.101562 C 24.105469 30.101562 22.390625 28.386719 22.390625 26.273438 C 22.390625 24.160156 24.105469 22.445312 26.21875 22.445312 Z M 26.21875 23.210938 C 25.503906 23.210938 24.8125 23.464844 24.261719 23.921875 L 24.75 24.511719 C 25.164062 24.167969 25.683594 23.976562 26.21875 23.976562 C 27.488281 23.976562 28.515625 25.003906 28.515625 26.273438 L 29.28125 26.273438 C 29.28125 24.582031 27.910156 23.210938 26.21875 23.210938 Z M 26.984375 24.742188 L 25.757812 27.195312 C 25.566406 27.339844 25.453125 27.5625 25.453125 27.804688 C 25.453125 28.226562 25.796875 28.570312 26.21875 28.570312 C 26.640625 28.570312 26.984375 28.226562 26.984375 27.804688 C 26.984375 27.617188 26.914062 27.4375 26.792969 27.300781 Z M 23.5625 24.757812 C 23.300781 25.21875 23.160156 25.742188 23.15625 26.273438 L 23.921875 26.273438 C 23.925781 25.875 24.027344 25.480469 24.226562 25.136719 Z M 23.5625 24.757812 "/>
</g>
</svg>
