<?xml version="1.0" encoding="UTF-8"?>
<svg xmlns="http://www.w3.org/2000/svg" xmlns:xlink="http://www.w3.org/1999/xlink" width="36pt" height="36pt" viewBox="0 0 36 36" version="1.1">
<defs>
<filter id="alpha" filterUnits="objectBoundingBox" x="0%" y="0%" width="100%" height="100%">
  <feColorMatrix type="matrix" in="SourceGraphic" values="0 0 0 0 1 0 0 0 0 1 0 0 0 0 1 0 0 0 1 0"/>
</filter>
<mask id="mask0">
  <g filter="url(#alpha)">
<rect x="0" y="0" width="36" height="36" style="fill:rgb(0%,0%,0%);fill-opacity:0.74902;stroke:none;"/>
  </g>
</mask>
<clipPath id="clip1">
  <rect width="36" height="36"/>
</clipPath>
<g id="surface6" clip-path="url(#clip1)">
<path style=" stroke:none;fill-rule:nonzero;fill:rgb(100%,100%,100%);fill-opacity:1;" d="M 10.351562 30.320312 C 9.839844 30.238281 9.113281 29.957031 8.660156 29.667969 C 7.667969 29.03125 7.019531 28.324219 6.621094 27.445312 C 6.488281 27.152344 6.414062 26.921875 6.207031 26.148438 C 6.152344 25.957031 6.089844 25.746094 6.0625 25.679688 C 6.015625 25.566406 6.015625 25.53125 6.035156 25.15625 C 6.054688 24.800781 6.113281 24.320312 6.148438 24.269531 C 6.15625 24.257812 6.167969 24.253906 6.179688 24.261719 C 6.222656 24.285156 6.257812 24.175781 6.296875 23.925781 C 6.316406 23.789062 6.347656 23.644531 6.367188 23.609375 C 6.386719 23.570312 6.417969 23.484375 6.4375 23.417969 C 6.480469 23.269531 6.542969 23.152344 6.738281 22.863281 C 6.820312 22.734375 6.910156 22.59375 6.933594 22.550781 C 6.960938 22.503906 6.988281 22.476562 7.015625 22.484375 C 7.042969 22.492188 7.085938 22.457031 7.128906 22.398438 C 7.328125 22.144531 8.25 21.394531 8.335938 21.417969 C 8.359375 21.425781 8.457031 21.394531 8.550781 21.347656 C 8.722656 21.265625 8.800781 21.246094 8.800781 21.285156 C 8.800781 21.296875 8.777344 21.324219 8.746094 21.34375 C 8.691406 21.378906 8.691406 21.378906 8.777344 21.359375 C 8.824219 21.347656 8.902344 21.332031 8.953125 21.324219 C 9.015625 21.316406 9.042969 21.300781 9.03125 21.28125 C 9.023438 21.261719 9.042969 21.242188 9.078125 21.234375 C 9.164062 21.210938 9.296875 21.214844 9.296875 21.242188 C 9.296875 21.269531 9.21875 21.300781 9.160156 21.292969 C 9.117188 21.285156 9.117188 21.292969 9.148438 21.3125 C 9.175781 21.332031 9.175781 21.335938 9.148438 21.339844 C 9.128906 21.339844 9.121094 21.347656 9.128906 21.351562 C 9.136719 21.359375 9.1875 21.34375 9.242188 21.316406 C 9.296875 21.292969 9.398438 21.257812 9.46875 21.242188 C 9.550781 21.226562 9.59375 21.207031 9.59375 21.183594 C 9.59375 21.152344 9.632812 21.148438 9.894531 21.160156 C 10.0625 21.171875 10.3125 21.195312 10.453125 21.21875 C 10.707031 21.257812 10.707031 21.257812 10.804688 21.203125 C 10.917969 21.140625 11.101562 21.132812 11.152344 21.1875 C 11.167969 21.210938 11.21875 21.242188 11.257812 21.261719 C 11.328125 21.296875 11.332031 21.296875 11.300781 21.261719 C 11.246094 21.199219 11.300781 21.203125 11.511719 21.269531 C 12.195312 21.484375 12.75 21.867188 13.160156 22.40625 C 13.257812 22.535156 13.265625 22.59375 13.171875 22.515625 L 13.121094 22.472656 L 13.160156 22.546875 C 13.183594 22.585938 13.199219 22.632812 13.199219 22.648438 C 13.199219 22.664062 13.265625 22.777344 13.347656 22.898438 C 13.527344 23.175781 13.578125 23.269531 13.566406 23.304688 C 13.558594 23.320312 13.480469 23.222656 13.386719 23.085938 C 13.296875 22.953125 13.160156 22.773438 13.082031 22.6875 C 12.972656 22.554688 12.941406 22.535156 12.917969 22.5625 C 12.90625 22.582031 12.867188 22.597656 12.835938 22.601562 L 12.78125 22.609375 L 12.835938 22.710938 C 12.867188 22.765625 12.894531 22.800781 12.898438 22.789062 C 12.925781 22.714844 13.046875 22.8125 13.101562 22.949219 C 13.121094 22.992188 13.167969 23.085938 13.207031 23.15625 C 13.246094 23.222656 13.277344 23.28125 13.269531 23.289062 C 13.261719 23.296875 13.226562 23.277344 13.1875 23.246094 L 13.117188 23.195312 L 13.164062 23.273438 C 13.191406 23.316406 13.234375 23.367188 13.261719 23.390625 C 13.296875 23.414062 13.3125 23.457031 13.316406 23.519531 C 13.320312 23.640625 13.390625 23.78125 13.429688 23.746094 C 13.492188 23.6875 13.503906 23.722656 13.488281 23.914062 C 13.476562 24.050781 13.484375 24.144531 13.511719 24.242188 C 13.550781 24.390625 13.542969 24.425781 13.484375 24.359375 C 13.445312 24.3125 13.445312 24.3125 13.460938 24.359375 C 13.496094 24.457031 13.527344 24.601562 13.519531 24.660156 C 13.503906 24.769531 13.460938 24.722656 13.445312 24.585938 L 13.433594 24.449219 L 13.429688 24.59375 C 13.425781 24.671875 13.40625 24.824219 13.386719 24.929688 C 13.363281 25.039062 13.351562 25.171875 13.359375 25.226562 C 13.375 25.332031 13.363281 25.335938 13.269531 25.261719 C 13.234375 25.230469 13.226562 25.234375 13.199219 25.328125 C 13.179688 25.402344 13.179688 25.449219 13.203125 25.511719 C 13.21875 25.558594 13.226562 25.621094 13.222656 25.652344 C 13.210938 25.71875 13.152344 25.742188 13.152344 25.675781 C 13.152344 25.59375 13.117188 25.621094 13.015625 25.796875 C 12.738281 26.265625 12.300781 26.625 11.808594 26.796875 C 11.515625 26.898438 11.320312 26.9375 10.988281 26.953125 L 10.691406 26.96875 L 10.839844 27.011719 C 10.957031 27.046875 11.027344 27.050781 11.199219 27.039062 C 11.421875 27.023438 11.683594 26.976562 11.804688 26.933594 C 11.851562 26.917969 11.882812 26.914062 11.898438 26.925781 C 11.9375 26.960938 11.59375 27.105469 11.390625 27.136719 C 11.042969 27.191406 10.578125 27.128906 10.164062 26.980469 C 9.886719 26.875 9.472656 26.605469 9.535156 26.570312 C 9.546875 26.5625 9.628906 26.597656 9.710938 26.648438 C 9.820312 26.710938 9.863281 26.730469 9.863281 26.703125 C 9.863281 26.660156 9.878906 26.660156 9.964844 26.71875 C 10.042969 26.769531 10.28125 26.867188 10.453125 26.914062 C 10.636719 26.96875 10.566406 26.902344 10.316406 26.792969 C 9.523438 26.445312 9.195312 26.097656 9.03125 25.4375 C 8.972656 25.191406 9.035156 24.660156 9.148438 24.492188 C 9.175781 24.449219 9.195312 24.398438 9.195312 24.378906 C 9.195312 24.285156 9.359375 24.039062 9.527344 23.882812 C 9.824219 23.605469 10.128906 23.488281 10.527344 23.507812 C 10.722656 23.515625 10.804688 23.53125 10.964844 23.589844 C 11.144531 23.660156 11.375 23.800781 11.304688 23.804688 C 11.289062 23.804688 11.214844 23.78125 11.144531 23.753906 C 11.035156 23.710938 10.964844 23.703125 10.71875 23.699219 C 10.367188 23.699219 10.199219 23.746094 9.949219 23.910156 C 9.597656 24.144531 9.402344 24.410156 9.335938 24.757812 C 9.289062 24.988281 9.289062 25.050781 9.324219 25.28125 C 9.34375 25.414062 9.359375 25.453125 9.386719 25.441406 C 9.40625 25.433594 9.417969 25.449219 9.417969 25.472656 C 9.417969 25.554688 9.609375 25.890625 9.738281 26.039062 C 10.054688 26.394531 10.566406 26.625 11.050781 26.625 C 11.300781 26.625 11.507812 26.578125 11.691406 26.480469 C 11.769531 26.441406 11.863281 26.390625 11.902344 26.371094 C 12.046875 26.304688 12.136719 26.226562 12.242188 26.074219 C 12.300781 25.992188 12.363281 25.925781 12.382812 25.925781 C 12.410156 25.925781 12.410156 25.9375 12.375 25.988281 C 12.265625 26.160156 12.523438 25.847656 12.65625 25.648438 L 12.808594 25.421875 L 12.792969 25.277344 C 12.777344 25.132812 12.777344 25.125 12.851562 25.054688 C 12.917969 24.988281 12.925781 24.964844 12.933594 24.78125 C 12.941406 24.617188 12.933594 24.585938 12.90625 24.585938 C 12.875 24.585938 12.863281 24.542969 12.851562 24.398438 C 12.835938 24.207031 12.671875 23.570312 12.632812 23.546875 C 12.621094 23.539062 12.589844 23.480469 12.5625 23.410156 C 12.46875 23.179688 12.304688 22.960938 12.050781 22.71875 C 11.6875 22.371094 11.226562 22.101562 10.792969 21.984375 C 10.421875 21.882812 9.792969 21.917969 9.34375 22.066406 C 9.125 22.140625 8.910156 22.238281 8.875 22.277344 C 8.859375 22.296875 8.835938 22.304688 8.820312 22.300781 C 8.808594 22.292969 8.8125 22.269531 8.832031 22.25 C 8.914062 22.15625 8.640625 22.328125 8.464844 22.480469 C 8.355469 22.570312 8.265625 22.648438 8.261719 22.652344 C 8.257812 22.660156 8.277344 22.652344 8.308594 22.644531 C 8.359375 22.632812 8.359375 22.636719 8.332031 22.683594 C 8.316406 22.714844 8.222656 22.769531 8.113281 22.816406 C 7.925781 22.898438 7.804688 22.984375 7.710938 23.109375 C 7.671875 23.160156 7.667969 23.171875 7.699219 23.160156 C 7.722656 23.152344 7.738281 23.152344 7.738281 23.171875 C 7.738281 23.238281 7.675781 23.3125 7.578125 23.355469 C 7.367188 23.453125 7 23.96875 6.800781 24.441406 C 6.710938 24.648438 6.714844 24.644531 6.761719 24.644531 C 6.8125 24.644531 6.808594 24.699219 6.738281 24.988281 C 6.636719 25.410156 6.636719 25.398438 6.75 25.996094 C 6.882812 26.722656 6.960938 26.964844 7.109375 27.113281 C 7.144531 27.148438 7.179688 27.222656 7.195312 27.300781 C 7.214844 27.390625 7.242188 27.449219 7.300781 27.503906 C 7.351562 27.558594 7.371094 27.589844 7.351562 27.597656 C 7.308594 27.609375 7.433594 27.78125 7.542969 27.871094 C 7.601562 27.914062 7.640625 27.929688 7.6875 27.921875 C 7.785156 27.902344 7.886719 27.957031 8.042969 28.109375 C 8.203125 28.269531 8.21875 28.3125 8.113281 28.296875 C 8.042969 28.289062 8.042969 28.289062 8.074219 28.339844 C 8.09375 28.367188 8.167969 28.433594 8.234375 28.488281 C 8.332031 28.5625 8.355469 28.597656 8.34375 28.632812 C 8.324219 28.683594 8.375 28.730469 8.488281 28.769531 C 8.554688 28.796875 8.578125 28.851562 8.527344 28.867188 C 8.511719 28.875 8.609375 28.964844 8.742188 29.074219 C 8.894531 29.199219 8.996094 29.269531 9.011719 29.253906 C 9.050781 29.21875 9.097656 29.230469 9.097656 29.273438 C 9.101562 29.320312 9.144531 29.371094 9.300781 29.503906 C 9.398438 29.589844 9.425781 29.601562 9.484375 29.585938 C 9.542969 29.570312 9.574219 29.578125 9.65625 29.628906 C 9.8125 29.730469 9.90625 29.769531 9.988281 29.769531 C 10.066406 29.769531 10.078125 29.792969 10.035156 29.863281 C 10.015625 29.902344 10.019531 29.910156 10.070312 29.910156 C 10.101562 29.910156 10.195312 29.929688 10.273438 29.957031 C 10.453125 30.015625 10.527344 30.019531 10.480469 29.96875 C 10.414062 29.890625 10.484375 29.910156 10.722656 30.039062 C 11.054688 30.214844 11.222656 30.234375 11.886719 30.175781 C 11.984375 30.167969 12.015625 30.167969 12.015625 30.195312 C 12.015625 30.214844 11.929688 30.246094 11.773438 30.28125 C 11.570312 30.328125 11.460938 30.339844 11.039062 30.34375 C 10.707031 30.351562 10.480469 30.335938 10.351562 30.316406 Z M 10.011719 26.828125 C 10.011719 26.820312 9.980469 26.800781 9.945312 26.78125 L 9.875 26.742188 L 9.933594 26.789062 C 9.992188 26.835938 10.011719 26.847656 10.011719 26.828125 Z M 13.414062 24.386719 C 13.40625 24.367188 13.402344 24.375 13.402344 24.402344 C 13.398438 24.425781 13.40625 24.4375 13.414062 24.429688 C 13.421875 24.421875 13.421875 24.402344 13.414062 24.386719 Z M 7.789062 21.925781 C 7.820312 21.890625 7.820312 21.890625 7.78125 21.917969 C 7.757812 21.9375 7.738281 21.953125 7.738281 21.957031 C 7.738281 21.976562 7.757812 21.964844 7.789062 21.925781 Z M 8.070312 21.710938 C 8.097656 21.683594 8.109375 21.664062 8.105469 21.664062 C 8.097656 21.664062 8.070312 21.683594 8.046875 21.710938 C 8.023438 21.738281 8.007812 21.757812 8.015625 21.757812 C 8.019531 21.757812 8.046875 21.738281 8.070312 21.710938 Z M 8.382812 21.546875 C 8.464844 21.519531 8.511719 21.515625 8.527344 21.53125 C 8.546875 21.550781 8.609375 21.539062 8.726562 21.503906 C 8.824219 21.472656 8.898438 21.445312 8.890625 21.441406 C 8.886719 21.429688 8.808594 21.453125 8.714844 21.480469 C 8.589844 21.523438 8.546875 21.527344 8.53125 21.507812 C 8.507812 21.46875 8.285156 21.542969 8.1875 21.613281 L 8.121094 21.664062 L 8.191406 21.625 C 8.230469 21.601562 8.316406 21.566406 8.382812 21.546875 Z M 9.09375 21.488281 C 9.167969 21.46875 9.222656 21.449219 9.214844 21.441406 C 9.203125 21.429688 8.949219 21.5 8.949219 21.515625 C 8.949219 21.527344 8.953125 21.527344 9.09375 21.488281 Z M 9.503906 21.363281 L 9.605469 21.34375 L 9.519531 21.34375 C 9.46875 21.34375 9.402344 21.359375 9.371094 21.378906 C 9.328125 21.402344 9.324219 21.40625 9.355469 21.394531 C 9.382812 21.386719 9.449219 21.371094 9.503906 21.363281 Z M 9.703125 21.316406 C 9.710938 21.304688 9.695312 21.300781 9.664062 21.308594 C 9.609375 21.324219 9.601562 21.339844 9.652344 21.339844 C 9.671875 21.339844 9.695312 21.328125 9.703125 21.316406 Z M 10.5 21.324219 C 10.492188 21.316406 10.46875 21.316406 10.453125 21.324219 C 10.433594 21.332031 10.4375 21.339844 10.46875 21.339844 C 10.492188 21.339844 10.507812 21.332031 10.5 21.328125 Z M 10.351562 21.300781 C 10.328125 21.292969 10.289062 21.292969 10.265625 21.300781 C 10.242188 21.308594 10.261719 21.3125 10.308594 21.3125 C 10.355469 21.3125 10.375 21.304688 10.351562 21.300781 Z M 10.105469 21.277344 C 10.054688 21.265625 9.964844 21.265625 9.90625 21.273438 C 9.851562 21.28125 9.890625 21.285156 10 21.285156 C 10.109375 21.285156 10.15625 21.277344 10.105469 21.273438 Z M 9.78125 21.253906 C 9.773438 21.246094 9.753906 21.246094 9.734375 21.253906 C 9.714844 21.261719 9.722656 21.269531 9.75 21.269531 C 9.777344 21.269531 9.789062 21.261719 9.78125 21.257812 Z M 9.617188 26.855469 C 9.363281 26.6875 9.269531 26.597656 9.269531 26.53125 C 9.269531 26.496094 9.28125 26.464844 9.289062 26.464844 C 9.324219 26.464844 9.746094 26.878906 9.738281 26.90625 C 9.730469 26.921875 9.679688 26.898438 9.617188 26.855469 Z M 9.484375 26.425781 C 9.355469 26.300781 9.3125 26.234375 9.367188 26.234375 C 9.398438 26.234375 9.640625 26.496094 9.640625 26.53125 C 9.640625 26.546875 9.636719 26.558594 9.632812 26.558594 C 9.632812 26.558594 9.5625 26.5 9.484375 26.425781 Z M 10.933594 25.914062 C 10.863281 25.886719 10.90625 25.839844 11.019531 25.816406 C 11.082031 25.804688 11.1875 25.773438 11.246094 25.746094 C 11.308594 25.722656 11.363281 25.703125 11.367188 25.707031 C 11.375 25.714844 11.34375 25.765625 11.308594 25.824219 C 11.234375 25.929688 11.234375 25.929688 11.101562 25.925781 C 11.023438 25.925781 10.949219 25.917969 10.933594 25.914062 Z M 11.675781 25.394531 C 11.609375 25.367188 11.605469 25.324219 11.660156 25.179688 C 11.707031 25.050781 11.757812 25.027344 11.730469 25.144531 C 11.71875 25.183594 11.707031 25.246094 11.699219 25.277344 L 11.691406 25.335938 L 11.738281 25.28125 C 11.769531 25.253906 11.796875 25.179688 11.804688 25.101562 C 11.8125 25.03125 11.832031 24.980469 11.84375 24.988281 C 11.875 25.007812 11.871094 25.191406 11.839844 25.3125 C 11.808594 25.421875 11.785156 25.433594 11.675781 25.394531 Z M 5.824219 25.101562 C 5.816406 25.082031 5.808594 25 5.808594 24.925781 C 5.808594 24.824219 5.820312 24.785156 5.839844 24.792969 C 5.878906 24.804688 5.898438 25.136719 5.863281 25.136719 C 5.851562 25.136719 5.832031 25.121094 5.824219 25.101562 Z M 11.773438 24.554688 C 11.734375 24.507812 11.722656 24.46875 11.730469 24.425781 C 11.753906 24.34375 11.8125 24.355469 11.855469 24.453125 C 11.921875 24.605469 11.867188 24.675781 11.773438 24.554688 Z M 5.820312 24.1875 C 5.820312 24.054688 5.820312 24.050781 5.882812 24.050781 C 5.933594 24.050781 5.945312 24.066406 5.953125 24.125 C 5.960938 24.191406 5.882812 24.320312 5.839844 24.320312 C 5.828125 24.320312 5.820312 24.261719 5.820312 24.1875 Z M 12.226562 21.320312 C 12.230469 21.113281 12.269531 21.042969 12.296875 21.1875 C 12.316406 21.289062 12.292969 21.46875 12.253906 21.5 C 12.230469 21.515625 12.226562 21.472656 12.226562 21.320312 Z M 8.980469 21.195312 C 8.988281 21.167969 9.328125 21.035156 9.394531 21.035156 C 9.46875 21.035156 9.335938 21.121094 9.179688 21.171875 C 9.011719 21.230469 8.964844 21.234375 8.980469 21.195312 Z M 8.980469 21.195312 "/>
</g>
</defs>
<g id="surface1">
<path style=" stroke:none;fill-rule:evenodd;fill:rgb(90.196078%,31.372549%,43.137255%);fill-opacity:1;" d="M 23.835938 2.25 L 8.476562 2.25 C 5.027344 2.25 2.25 5.027344 2.25 8.476562 L 2.25 27.523438 C 2.25 30.972656 5.027344 33.75 8.476562 33.75 L 27.523438 33.75 C 30.972656 33.75 33.75 30.972656 33.75 27.523438 L 33.75 12.164062 Z M 23.835938 2.25 "/>
<path style=" stroke:none;fill-rule:evenodd;fill:rgb(98.039216%,85.098039%,87.843137%);fill-opacity:1;" d="M 33.75 12.164062 L 23.835938 2.25 L 23.835938 5.9375 C 23.835938 9.386719 26.613281 12.164062 30.0625 12.164062 Z M 33.75 12.164062 "/>
<path style=" stroke:none;fill-rule:nonzero;fill:rgb(98.039216%,85.098039%,87.843137%);fill-opacity:1;" d="M 18 13.515625 C 16.757812 13.515625 15.75 14.527344 15.75 15.765625 L 15.75 20.265625 C 15.75 21.503906 16.757812 22.515625 18 22.515625 C 19.242188 22.515625 20.25 21.503906 20.25 20.265625 L 20.25 15.765625 C 20.25 14.527344 19.242188 13.515625 18 13.515625 Z M 18 14.640625 C 18.621094 14.640625 19.125 15.089844 19.125 15.765625 C 19.125 16.328125 18.621094 16.890625 18 16.890625 C 17.378906 16.890625 16.875 16.328125 16.875 15.765625 C 16.875 15.089844 17.378906 14.640625 18 14.640625 Z M 18 18.015625 C 18.621094 18.015625 19.125 18.519531 19.125 19.140625 L 19.125 20.265625 C 19.125 20.886719 18.621094 21.390625 18 21.390625 C 17.378906 21.390625 16.875 20.886719 16.875 20.265625 L 16.875 19.140625 C 16.875 18.519531 17.378906 18.015625 18 18.015625 Z M 18 18.015625 "/>
<path style=" stroke:none;fill-rule:nonzero;fill:rgb(98.039216%,85.098039%,87.843137%);fill-opacity:1;" d="M 16.875 2.265625 L 16.875 3.390625 L 18 3.390625 L 18 2.265625 Z M 16.875 4.515625 L 16.875 5.640625 L 18 5.640625 L 18 4.515625 Z M 16.875 6.765625 L 16.875 7.890625 L 18 7.890625 L 18 6.765625 Z M 16.875 9.015625 L 16.875 10.140625 L 18 10.140625 L 18 9.015625 Z M 16.875 11.265625 L 16.875 12.390625 L 18 12.390625 L 18 11.265625 Z M 16.875 11.265625 "/>
<path style=" stroke:none;fill-rule:nonzero;fill:rgb(98.039216%,85.098039%,87.843137%);fill-opacity:1;" d="M 18 3.390625 L 18 4.515625 L 19.125 4.515625 L 19.125 3.390625 Z M 18 5.640625 L 18 6.765625 L 19.125 6.765625 L 19.125 5.640625 Z M 18 7.890625 L 18 9.015625 L 19.125 9.015625 L 19.125 7.890625 Z M 18 10.140625 L 18 11.265625 L 19.125 11.265625 L 19.125 10.140625 Z M 18 12.390625 L 18 13.515625 L 19.125 13.515625 L 19.125 12.390625 Z M 18 12.390625 "/>
<use xlink:href="#surface6" mask="url(#mask0)"/>
</g>
</svg>
