<?xml version="1.0" encoding="UTF-8"?>
<svg xmlns="http://www.w3.org/2000/svg" xmlns:xlink="http://www.w3.org/1999/xlink" width="36pt" height="36pt" viewBox="0 0 36 36" version="1.1">
<g id="surface1">
<path style=" stroke:none;fill-rule:evenodd;fill:rgb(90.196078%,49.019608%,29.019608%);fill-opacity:1;" d="M 23.835938 2.25 L 8.476562 2.25 C 5.027344 2.25 2.25 5.027344 2.25 8.476562 L 2.25 27.523438 C 2.25 30.972656 5.027344 33.75 8.476562 33.75 L 27.523438 33.75 C 30.972656 33.75 33.75 30.972656 33.75 27.523438 L 33.75 12.164062 Z M 23.835938 2.25 "/>
<path style=" stroke:none;fill-rule:evenodd;fill:rgb(78.039216%,35.686275%,18.431373%);fill-opacity:1;" d="M 33.75 12.164062 L 23.835938 2.25 L 23.835938 5.9375 C 23.835938 9.386719 26.613281 12.164062 30.0625 12.164062 Z M 33.75 12.164062 "/>
<path style=" stroke:none;fill-rule:evenodd;fill:rgb(100%,100%,100%);fill-opacity:1;" d="M 14.882812 12.824219 C 14.859375 12.820312 14.839844 12.820312 14.820312 12.824219 C 14.757812 12.828125 14.699219 12.839844 14.640625 12.859375 C 14.640625 12.859375 14.21875 13 13.730469 13.257812 C 13.242188 13.515625 12.648438 13.875 12.265625 14.496094 C 11.839844 15.183594 12.003906 15.921875 12.136719 16.359375 C 12.265625 16.800781 12.339844 16.996094 12.21875 17.289062 C 12.160156 17.433594 11.792969 17.75 11.394531 17.945312 C 10.992188 18.140625 10.628906 18.246094 10.628906 18.246094 C 10.457031 18.289062 10.308594 18.402344 10.214844 18.558594 C 10.125 18.714844 10.101562 18.902344 10.148438 19.074219 C 10.0625 19.429688 10.277344 19.789062 10.628906 19.882812 C 10.628906 19.882812 10.992188 19.988281 11.394531 20.183594 C 11.792969 20.378906 12.160156 20.695312 12.21875 20.839844 C 12.339844 21.136719 12.265625 21.328125 12.136719 21.769531 C 12.003906 22.210938 11.839844 22.945312 12.265625 23.636719 C 12.648438 24.253906 13.242188 24.613281 13.730469 24.871094 C 14.21875 25.128906 14.640625 25.269531 14.640625 25.269531 C 14.871094 25.359375 15.132812 25.3125 15.320312 25.148438 C 15.507812 24.988281 15.589844 24.734375 15.539062 24.492188 C 15.484375 24.25 15.304688 24.058594 15.066406 23.988281 C 15.066406 23.988281 14.746094 23.882812 14.359375 23.679688 C 13.972656 23.476562 13.558594 23.160156 13.414062 22.925781 C 13.25 22.65625 13.300781 22.566406 13.425781 22.15625 C 13.546875 21.746094 13.769531 21.066406 13.460938 20.324219 C 13.191406 19.664062 12.644531 19.316406 12.160156 19.066406 C 12.644531 18.8125 13.191406 18.464844 13.460938 17.808594 C 13.769531 17.0625 13.546875 16.382812 13.425781 15.972656 C 13.300781 15.566406 13.25 15.472656 13.414062 15.203125 C 13.558594 14.96875 13.972656 14.652344 14.359375 14.449219 C 14.746094 14.246094 15.066406 14.140625 15.066406 14.140625 C 15.378906 14.039062 15.574219 13.730469 15.527344 13.40625 C 15.484375 13.078125 15.210938 12.832031 14.882812 12.824219 Z M 21.113281 12.824219 C 20.785156 12.832031 20.515625 13.082031 20.46875 13.40625 C 20.425781 13.730469 20.621094 14.042969 20.933594 14.140625 C 20.933594 14.140625 21.253906 14.246094 21.640625 14.449219 C 22.027344 14.652344 22.441406 14.96875 22.585938 15.203125 C 22.75 15.472656 22.699219 15.566406 22.574219 15.972656 C 22.453125 16.382812 22.230469 17.0625 22.539062 17.808594 C 22.808594 18.464844 23.355469 18.8125 23.839844 19.066406 C 23.355469 19.316406 22.808594 19.664062 22.539062 20.324219 C 22.230469 21.066406 22.453125 21.746094 22.574219 22.15625 C 22.699219 22.566406 22.75 22.65625 22.585938 22.925781 C 22.441406 23.160156 22.027344 23.476562 21.640625 23.679688 C 21.253906 23.882812 20.933594 23.988281 20.933594 23.988281 C 20.695312 24.058594 20.515625 24.25 20.460938 24.492188 C 20.410156 24.734375 20.492188 24.988281 20.679688 25.148438 C 20.867188 25.3125 21.128906 25.359375 21.359375 25.269531 C 21.359375 25.269531 21.78125 25.128906 22.269531 24.871094 C 22.757812 24.613281 23.351562 24.253906 23.734375 23.636719 C 24.160156 22.945312 23.996094 22.210938 23.863281 21.769531 C 23.734375 21.328125 23.660156 21.136719 23.78125 20.839844 C 23.839844 20.695312 24.207031 20.378906 24.605469 20.183594 C 25.007812 19.988281 25.371094 19.882812 25.371094 19.882812 C 25.722656 19.789062 25.9375 19.429688 25.851562 19.074219 C 25.898438 18.902344 25.875 18.714844 25.785156 18.558594 C 25.691406 18.402344 25.542969 18.289062 25.371094 18.246094 C 25.371094 18.246094 25.007812 18.140625 24.605469 17.945312 C 24.207031 17.75 23.839844 17.433594 23.78125 17.289062 C 23.660156 16.996094 23.734375 16.800781 23.863281 16.359375 C 23.996094 15.921875 24.160156 15.183594 23.734375 14.496094 C 23.351562 13.875 22.757812 13.515625 22.269531 13.257812 C 21.78125 13 21.359375 12.859375 21.359375 12.859375 C 21.300781 12.839844 21.242188 12.828125 21.179688 12.824219 C 21.160156 12.820312 21.136719 12.820312 21.117188 12.824219 C 21.117188 12.824219 21.113281 12.824219 21.113281 12.824219 Z M 18 15.539062 C 17.25 15.539062 16.640625 16.144531 16.640625 16.894531 C 16.640625 17.644531 17.25 18.253906 18 18.253906 C 18.75 18.253906 19.359375 17.644531 19.359375 16.894531 C 19.359375 16.144531 18.75 15.539062 18 15.539062 Z M 18 19.613281 C 17.25 19.613281 16.640625 20.21875 16.640625 20.96875 C 16.640625 21.71875 17.25 22.328125 18 22.328125 C 18.480469 22.328125 18.679688 23.683594 18.679688 23.683594 C 18.679688 23.683594 19.359375 21.238281 19.359375 20.96875 C 19.359375 20.21875 18.75 19.613281 18 19.613281 Z M 18 19.613281 "/>
</g>
</svg>
