<?xml version="1.0" encoding="UTF-8"?>
<svg xmlns="http://www.w3.org/2000/svg" xmlns:xlink="http://www.w3.org/1999/xlink" width="36pt" height="36pt" viewBox="0 0 36 36" version="1.1">
<g id="surface1">
<path style=" stroke:none;fill-rule:evenodd;fill:rgb(24.313725%,63.921569%,75.294118%);fill-opacity:1;" d="M 8.40625 2.136719 L 27.59375 2.136719 C 31.054688 2.136719 33.863281 4.945312 33.863281 8.40625 L 33.863281 27.59375 C 33.863281 31.054688 31.054688 33.863281 27.59375 33.863281 L 8.40625 33.863281 C 4.945312 33.863281 2.136719 31.054688 2.136719 27.59375 L 2.136719 8.40625 C 2.136719 4.945312 4.945312 2.136719 8.40625 2.136719 Z M 8.40625 2.136719 "/>
<path style=" stroke:none;fill-rule:nonzero;fill:rgb(100%,100%,100%);fill-opacity:1;" d="M 15.867188 7.589844 C 15.648438 7.613281 15.453125 7.792969 15.414062 8.011719 L 14.972656 10.242188 C 14.1875 10.550781 13.445312 10.972656 12.792969 11.492188 L 10.632812 10.761719 C 10.40625 10.683594 10.132812 10.785156 10.011719 10.988281 L 7.929688 14.601562 C 7.8125 14.808594 7.863281 15.09375 8.042969 15.25 L 9.769531 16.765625 C 9.707031 17.167969 9.671875 17.578125 9.671875 18 C 9.671875 18.421875 9.707031 18.832031 9.769531 19.238281 L 8.042969 20.75 C 7.863281 20.90625 7.8125 21.191406 7.929688 21.398438 L 10.011719 25.011719 C 10.132812 25.214844 10.40625 25.316406 10.632812 25.238281 L 12.792969 24.507812 C 13.445312 25.027344 14.1875 25.453125 14.972656 25.761719 L 15.414062 27.988281 C 15.457031 28.222656 15.679688 28.40625 15.917969 28.410156 L 20.082031 28.410156 C 20.320312 28.410156 20.542969 28.222656 20.585938 27.988281 L 21.027344 25.761719 C 21.8125 25.453125 22.554688 25.027344 23.207031 24.507812 L 25.367188 25.238281 C 25.59375 25.316406 25.867188 25.214844 25.988281 25.011719 L 28.070312 21.398438 C 28.1875 21.191406 28.136719 20.90625 27.957031 20.75 L 26.230469 19.238281 C 26.292969 18.832031 26.328125 18.421875 26.328125 18 C 26.328125 17.578125 26.292969 17.167969 26.230469 16.765625 L 27.957031 15.25 C 28.136719 15.09375 28.1875 14.808594 28.070312 14.601562 L 25.988281 10.988281 C 25.867188 10.785156 25.59375 10.683594 25.367188 10.761719 L 23.207031 11.492188 C 22.554688 10.972656 21.8125 10.550781 21.027344 10.242188 L 20.585938 8.011719 C 20.542969 7.777344 20.320312 7.59375 20.082031 7.589844 L 15.917969 7.589844 C 15.902344 7.589844 15.886719 7.589844 15.871094 7.589844 Z M 15.867188 7.589844 "/>
<path style=" stroke:none;fill-rule:nonzero;fill:rgb(24.313725%,63.921569%,75.294118%);fill-opacity:1;" d="M 17.011719 12.792969 C 16.71875 12.792969 16.511719 13.03125 16.511719 13.324219 L 16.511719 19.488281 L 14.28125 19.488281 L 18 23.949219 L 21.71875 19.488281 L 19.488281 19.488281 L 19.488281 13.324219 C 19.488281 13.03125 19.28125 12.792969 18.988281 12.792969 Z M 17.011719 12.792969 "/>
</g>
</svg>
