<?xml version="1.0" encoding="UTF-8"?>
<svg xmlns="http://www.w3.org/2000/svg" xmlns:xlink="http://www.w3.org/1999/xlink" width="36pt" height="36pt" viewBox="0 0 36 36" version="1.1">
<g id="surface1">
<path style=" stroke:none;fill-rule:evenodd;fill:rgb(54.901961%,58.823529%,76.078431%);fill-opacity:1;" d="M 23.835938 2.25 L 8.476562 2.25 C 5.027344 2.25 2.25 5.027344 2.25 8.476562 L 2.25 27.523438 C 2.25 30.972656 5.027344 33.75 8.476562 33.75 L 27.523438 33.75 C 30.972656 33.75 33.75 30.972656 33.75 27.523438 L 33.75 12.164062 Z M 23.835938 2.25 "/>
<path style=" stroke:none;fill-rule:evenodd;fill:rgb(32.941176%,37.647059%,58.823529%);fill-opacity:1;" d="M 33.75 12.164062 L 23.835938 2.25 L 23.835938 5.9375 C 23.835938 9.386719 26.613281 12.164062 30.0625 12.164062 Z M 33.75 12.164062 "/>
<path style=" stroke:none;fill-rule:nonzero;fill:rgb(32.941176%,37.647059%,58.823529%);fill-opacity:1;" d="M 18.535156 20.972656 L 16.976562 19.421875 L 16.992188 19.402344 C 18.0625 18.203125 18.820312 16.824219 19.269531 15.363281 L 21.070312 15.363281 L 21.070312 14.125 L 16.773438 14.125 L 16.773438 12.886719 L 15.546875 12.886719 L 15.546875 14.125 L 11.25 14.125 L 11.25 15.355469 L 18.105469 15.355469 C 17.695312 16.550781 17.042969 17.683594 16.160156 18.671875 C 15.589844 18.035156 15.117188 17.335938 14.742188 16.601562 L 13.515625 16.601562 C 13.964844 17.609375 14.578125 18.5625 15.34375 19.421875 L 12.21875 22.527344 L 13.09375 23.40625 L 16.160156 20.3125 L 18.066406 22.238281 Z M 21.988281 17.835938 L 20.761719 17.835938 L 18 25.261719 L 19.226562 25.261719 L 19.914062 23.40625 L 22.828125 23.40625 L 23.523438 25.261719 L 24.75 25.261719 Z M 20.382812 22.167969 L 21.375 19.488281 L 22.371094 22.167969 Z M 20.382812 22.167969 "/>
</g>
</svg>
