<?xml version="1.0" encoding="UTF-8"?>
<svg xmlns="http://www.w3.org/2000/svg" xmlns:xlink="http://www.w3.org/1999/xlink" width="36pt" height="36pt" viewBox="0 0 36 36" version="1.1">
<g id="surface1">
<path style=" stroke:none;fill-rule:evenodd;fill:rgb(22.352941%,40.392157%,56.470588%);fill-opacity:1;" d="M 23.835938 2.25 L 8.476562 2.25 C 5.027344 2.25 2.25 5.027344 2.25 8.476562 L 2.25 27.523438 C 2.25 30.972656 5.027344 33.75 8.476562 33.75 L 27.523438 33.75 C 30.972656 33.75 33.75 30.972656 33.75 27.523438 L 33.75 12.164062 Z M 23.835938 2.25 "/>
<path style=" stroke:none;fill-rule:evenodd;fill:rgb(58.431373%,73.333333%,100%);fill-opacity:1;" d="M 33.75 12.164062 L 23.835938 2.25 L 23.835938 5.9375 C 23.835938 9.386719 26.613281 12.164062 30.0625 12.164062 Z M 33.75 12.164062 "/>
<path style=" stroke:none;fill-rule:nonzero;fill:rgb(50.196078%,67.843137%,100%);fill-opacity:1;" d="M 18 9.90625 C 13.085938 9.90625 9.101562 13.890625 9.101562 18.804688 C 9.101562 23.722656 13.085938 27.707031 18 27.707031 C 22.914062 27.707031 26.898438 23.722656 26.898438 18.804688 C 26.898438 13.890625 22.914062 9.90625 18 9.90625 M 18 11.390625 C 18.257812 11.390625 18.492188 11.410156 18.742188 11.4375 C 18.800781 11.4375 18.867188 11.4375 18.925781 11.4375 C 19.003906 11.449219 19.082031 11.46875 19.160156 11.480469 C 19.371094 11.515625 19.554688 11.570312 19.761719 11.621094 C 20.140625 11.714844 20.519531 11.84375 20.871094 11.992188 C 21.070312 12.074219 21.242188 12.171875 21.429688 12.269531 C 21.429688 12.285156 21.429688 12.300781 21.429688 12.316406 C 21.472656 12.335938 21.496094 12.417969 21.570312 12.457031 C 21.59375 12.472656 21.589844 12.488281 21.613281 12.503906 C 21.65625 12.527344 21.714844 12.554688 21.707031 12.59375 C 21.695312 12.652344 21.609375 12.640625 21.570312 12.6875 C 21.574219 12.773438 21.496094 12.769531 21.476562 12.824219 C 21.488281 12.863281 21.5625 12.875 21.570312 12.917969 C 21.5625 12.964844 21.457031 12.960938 21.476562 13.007812 C 21.554688 13.070312 21.632812 13.023438 21.707031 13.007812 C 21.871094 12.988281 22.019531 12.996094 22.125 12.917969 C 22.109375 12.839844 22.273438 12.847656 22.261719 12.777344 C 22.304688 12.808594 22.359375 12.839844 22.402344 12.871094 C 22.386719 12.886719 22.375 12.910156 22.355469 12.917969 C 22.324219 12.929688 22.292969 12.945312 22.261719 12.960938 C 22.222656 12.988281 22.171875 13.023438 22.125 13.054688 C 22.089844 13.078125 22.019531 13.195312 21.984375 13.195312 C 21.941406 13.195312 21.875 13.136719 21.84375 13.148438 C 21.800781 13.164062 21.800781 13.222656 21.75 13.238281 C 21.652344 13.273438 21.460938 13.1875 21.425781 13.332031 C 21.46875 13.414062 21.628906 13.378906 21.703125 13.421875 C 21.75 13.453125 21.832031 13.558594 21.84375 13.609375 C 21.855469 13.648438 21.863281 13.84375 21.84375 13.886719 C 21.796875 14.007812 21.65625 13.980469 21.519531 13.980469 L 21.425781 13.980469 C 21.195312 13.964844 20.972656 13.859375 20.871094 14.027344 C 20.878906 14.152344 20.898438 14.242188 20.871094 14.351562 C 20.847656 14.429688 20.726562 14.511719 20.730469 14.582031 C 20.730469 14.617188 20.816406 14.671875 20.824219 14.722656 C 20.828125 14.746094 20.8125 14.789062 20.824219 14.8125 C 20.863281 14.886719 20.941406 14.796875 21.007812 14.8125 C 21.074219 14.828125 21.148438 14.925781 21.148438 15 C 21.148438 15.050781 21.136719 15.132812 21.101562 15.183594 C 21.039062 15.28125 20.917969 15.269531 20.824219 15.324219 C 20.746094 15.367188 20.730469 15.480469 20.683594 15.554688 C 20.636719 15.636719 20.574219 15.667969 20.589844 15.785156 C 20.523438 15.917969 20.453125 16 20.3125 16.066406 C 20.273438 16.082031 20.210938 16.085938 20.171875 16.109375 C 20.144531 16.132812 20.121094 16.203125 20.078125 16.25 C 20.027344 16.308594 19.96875 16.34375 19.941406 16.390625 C 19.917969 16.425781 19.917969 16.480469 19.894531 16.527344 C 19.863281 16.589844 19.796875 16.605469 19.753906 16.667969 C 19.734375 16.699219 19.730469 16.769531 19.707031 16.808594 C 19.660156 16.894531 19.609375 16.964844 19.613281 17.039062 C 19.621094 17.109375 19.703125 17.113281 19.707031 17.179688 C 19.714844 17.214844 19.660156 17.230469 19.664062 17.269531 C 19.664062 17.328125 19.703125 17.367188 19.707031 17.410156 C 19.71875 17.519531 19.636719 17.566406 19.613281 17.640625 C 19.605469 17.675781 19.625 17.707031 19.613281 17.734375 C 19.597656 17.789062 19.523438 17.855469 19.523438 17.917969 C 19.519531 17.964844 19.609375 17.992188 19.613281 18.058594 C 19.617188 18.101562 19.558594 18.15625 19.570312 18.199219 C 19.585938 18.277344 19.738281 18.367188 19.800781 18.429688 C 19.886719 18.515625 19.996094 18.570312 20.03125 18.660156 C 20.0625 18.734375 20.066406 18.882812 20.125 18.9375 C 20.167969 18.980469 20.257812 18.988281 20.3125 19.03125 C 20.363281 19.070312 20.394531 19.082031 20.449219 19.125 C 20.539062 19.195312 20.675781 19.363281 20.820312 19.355469 C 20.898438 19.339844 20.96875 19.277344 21.050781 19.261719 C 21.140625 19.246094 21.242188 19.210938 21.332031 19.21875 C 21.398438 19.230469 21.492188 19.265625 21.5625 19.261719 C 21.636719 19.246094 21.710938 19.246094 21.792969 19.21875 C 21.941406 19.152344 22.183594 19.046875 22.394531 19.078125 C 22.558594 19.101562 22.5625 19.285156 22.675781 19.355469 C 22.804688 19.371094 22.894531 19.332031 23 19.355469 C 23.078125 19.375 23.179688 19.480469 23.183594 19.542969 C 23.191406 19.605469 23.101562 19.6875 23.09375 19.726562 C 23.070312 19.8125 23.105469 19.902344 23.09375 19.957031 C 23.078125 20 23.042969 20.054688 23.046875 20.097656 C 23.046875 20.136719 23.097656 20.234375 23.140625 20.285156 C 23.1875 20.34375 23.265625 20.402344 23.324219 20.46875 C 23.433594 20.59375 23.480469 20.722656 23.554688 20.886719 C 23.574219 20.925781 23.539062 20.972656 23.554688 21.023438 C 23.523438 21.273438 23.441406 21.445312 23.277344 21.71875 C 23.199219 21.808594 23.089844 21.886719 23.09375 22 C 23.085938 22.265625 23.242188 22.4375 23.230469 22.695312 C 23.203125 23.042969 23.257812 23.066406 23.230469 23.25 C 23.347656 23.308594 23.265625 23.5 23.230469 23.621094 C 23.179688 23.769531 23.121094 23.800781 23.09375 23.902344 C 23.171875 23.933594 23.28125 23.921875 23.371094 23.902344 C 23.328125 23.945312 23.277344 23.996094 23.230469 24.039062 C 22.894531 24.375 22.511719 24.699219 22.117188 24.96875 C 21.355469 25.484375 20.503906 25.875 19.570312 26.078125 C 19.058594 26.191406 18.535156 26.21875 17.992188 26.21875 C 17.710938 26.21875 17.433594 26.203125 17.15625 26.171875 C 16.941406 26.148438 16.71875 26.125 16.507812 26.082031 C 16.089844 25.996094 15.695312 25.816406 15.300781 25.664062 C 15.289062 25.640625 15.253906 25.601562 15.257812 25.574219 C 15.332031 25.539062 15.480469 25.683594 15.535156 25.574219 C 15.5625 25.519531 15.496094 25.394531 15.535156 25.339844 C 15.5625 25.304688 15.710938 25.304688 15.765625 25.296875 C 15.84375 25.28125 15.953125 25.269531 15.996094 25.25 C 16.046875 25.21875 16.097656 25.109375 16.089844 25.019531 C 16.085938 24.976562 16.03125 24.964844 15.996094 24.925781 C 15.96875 24.894531 16.015625 24.863281 15.996094 24.832031 C 15.960938 24.78125 15.875 24.769531 15.859375 24.695312 C 15.964844 24.671875 16.121094 24.785156 16.273438 24.742188 C 16.347656 24.71875 16.472656 24.578125 16.507812 24.507812 C 16.515625 24.488281 16.496094 24.445312 16.507812 24.417969 C 16.519531 24.390625 16.546875 24.339844 16.550781 24.324219 C 16.5625 24.285156 16.542969 24.304688 16.550781 24.277344 C 16.578125 24.203125 16.648438 24.148438 16.691406 24.09375 C 16.726562 24.050781 16.800781 23.996094 16.832031 23.953125 C 16.867188 23.90625 16.851562 23.902344 16.878906 23.863281 C 16.898438 23.726562 16.796875 23.609375 16.832031 23.492188 C 16.867188 23.359375 17.074219 23.273438 17.203125 23.210938 C 17.246094 23.191406 17.304688 23.179688 17.339844 23.167969 C 17.429688 23.136719 17.539062 23.101562 17.621094 23.074219 C 17.757812 23.023438 17.785156 22.921875 17.851562 22.796875 C 17.882812 22.738281 17.9375 22.652344 17.945312 22.609375 C 17.949219 22.570312 17.9375 22.5625 17.945312 22.519531 C 17.953125 22.476562 17.933594 22.429688 17.945312 22.378906 C 17.960938 22.316406 17.992188 22.171875 17.992188 22.101562 C 17.992188 22.039062 17.945312 22.015625 17.945312 21.960938 C 17.933594 21.769531 18.011719 21.789062 18.085938 21.683594 C 18.121094 21.628906 18.152344 21.535156 18.179688 21.496094 C 18.296875 21.320312 18.519531 21.257812 18.503906 20.984375 C 18.496094 20.898438 18.429688 20.691406 18.363281 20.660156 C 18.328125 20.644531 18.277344 20.632812 18.222656 20.617188 C 18.050781 20.550781 17.894531 20.351562 17.714844 20.335938 L 17.621094 20.335938 C 17.550781 20.335938 17.46875 20.300781 17.390625 20.289062 C 17.339844 20.277344 17.234375 20.304688 17.203125 20.289062 C 17.15625 20.269531 17.148438 20.175781 17.109375 20.152344 C 17.082031 20.128906 17.015625 20.121094 16.96875 20.105469 C 16.898438 20.078125 16.871094 20.019531 16.785156 20.011719 C 16.757812 20.011719 16.722656 20.027344 16.691406 20.011719 C 16.644531 20 16.59375 19.992188 16.550781 19.96875 C 16.5 19.933594 16.433594 19.921875 16.414062 19.875 C 16.460938 19.714844 16.304688 19.691406 16.273438 19.597656 C 16.257812 19.554688 16.289062 19.449219 16.273438 19.410156 C 16.253906 19.355469 16.195312 19.316406 16.132812 19.273438 C 16.027344 19.1875 15.960938 19.152344 15.808594 19.132812 C 15.742188 19.117188 15.660156 19.148438 15.578125 19.132812 C 15.492188 19.117188 15.363281 19.066406 15.300781 18.992188 C 15.238281 18.921875 15.214844 18.839844 15.160156 18.808594 C 15.109375 18.773438 15.054688 18.75 15.019531 18.714844 C 15.003906 18.699219 14.988281 18.699219 14.972656 18.667969 C 14.949219 18.613281 14.894531 18.597656 14.929688 18.53125 C 14.867188 18.5 14.898438 18.585938 14.835938 18.574219 C 14.777344 18.496094 14.734375 18.414062 14.601562 18.4375 C 14.542969 18.453125 14.488281 18.574219 14.417969 18.574219 C 14.359375 18.574219 14.308594 18.449219 14.234375 18.4375 C 14.175781 18.421875 14.085938 18.488281 14.046875 18.484375 C 13.984375 18.46875 13.964844 18.429688 13.90625 18.390625 C 13.863281 18.363281 13.792969 18.296875 13.769531 18.296875 C 13.695312 18.296875 13.640625 18.445312 13.535156 18.390625 C 13.488281 18.328125 13.640625 18.3125 13.582031 18.25 C 13.539062 18.207031 13.527344 18.277344 13.488281 18.296875 C 13.449219 18.324219 13.394531 18.328125 13.351562 18.34375 C 13.246094 18.382812 13.152344 18.394531 13.070312 18.433594 C 12.996094 18.472656 12.976562 18.5 12.933594 18.574219 C 12.898438 18.636719 12.84375 18.757812 12.792969 18.761719 C 12.730469 18.761719 12.710938 18.691406 12.652344 18.667969 C 12.484375 18.59375 12.378906 18.710938 12.234375 18.714844 C 12.105469 18.714844 11.90625 18.511719 11.910156 18.390625 C 11.914062 18.3125 11.949219 18.203125 11.957031 18.109375 C 11.964844 18.035156 12.050781 17.945312 12.050781 17.878906 C 12.050781 17.785156 11.878906 17.75 11.820312 17.738281 C 11.679688 17.714844 11.515625 17.800781 11.355469 17.738281 C 11.324219 17.6875 11.382812 17.652344 11.402344 17.601562 C 11.410156 17.574219 11.390625 17.539062 11.402344 17.507812 C 11.417969 17.460938 11.519531 17.417969 11.539062 17.367188 C 11.558594 17.332031 11.523438 17.277344 11.539062 17.230469 C 11.558594 17.175781 11.628906 17.128906 11.632812 17.089844 C 11.640625 17.039062 11.582031 16.984375 11.539062 16.949219 C 11.417969 16.964844 11.335938 16.964844 11.261719 16.996094 C 11.101562 17.070312 11.144531 17.269531 10.984375 17.320312 C 10.929688 17.339844 10.859375 17.355469 10.796875 17.367188 C 10.769531 17.382812 10.734375 17.367188 10.703125 17.367188 C 10.707031 17.351562 10.699219 17.335938 10.703125 17.320312 C 10.710938 17.289062 10.742188 17.261719 10.75 17.230469 C 10.855469 16.746094 11.019531 16.28125 11.214844 15.839844 L 11.261719 15.839844 C 11.316406 15.851562 11.351562 15.925781 11.398438 15.929688 C 11.535156 15.945312 11.5625 15.804688 11.679688 15.746094 C 11.792969 15.761719 11.851562 15.730469 11.957031 15.746094 C 12.027344 15.757812 12.132812 15.832031 12.1875 15.835938 C 12.234375 15.835938 12.238281 15.785156 12.28125 15.789062 C 12.328125 15.804688 12.414062 15.875 12.421875 15.929688 C 12.429688 15.996094 12.355469 16.089844 12.375 16.160156 C 12.445312 16.234375 12.601562 16.257812 12.699219 16.300781 C 12.765625 16.246094 12.710938 16.148438 12.699219 16.070312 C 12.699219 16.035156 12.703125 15.960938 12.699219 15.929688 C 12.691406 15.875 12.65625 15.835938 12.65625 15.789062 C 12.65625 15.578125 12.835938 15.503906 12.980469 15.417969 C 13.039062 15.382812 13.113281 15.308594 13.164062 15.28125 C 13.242188 15.242188 13.289062 15.265625 13.351562 15.234375 C 13.460938 15.171875 13.539062 15.074219 13.628906 15.003906 C 13.667969 14.90625 13.625 14.773438 13.628906 14.679688 C 13.667969 14.652344 13.726562 14.679688 13.769531 14.679688 C 13.835938 14.664062 13.871094 14.578125 13.90625 14.539062 C 13.929688 14.515625 13.972656 14.515625 14 14.492188 C 14.070312 14.4375 14.082031 14.378906 14.140625 14.351562 C 14.160156 14.339844 14.203125 14.316406 14.234375 14.308594 C 14.277344 14.292969 14.347656 14.289062 14.417969 14.261719 C 14.464844 14.246094 14.585938 14.234375 14.605469 14.214844 C 14.628906 14.191406 14.597656 14.109375 14.605469 14.074219 C 14.640625 13.910156 14.871094 13.902344 15.023438 13.84375 C 15.125 13.804688 15.230469 13.683594 15.347656 13.707031 C 15.324219 13.785156 15.234375 13.792969 15.253906 13.890625 C 15.277344 14.027344 15.4375 13.863281 15.484375 13.84375 C 15.574219 13.804688 15.738281 13.75 15.855469 13.707031 C 15.960938 13.667969 16.136719 13.640625 16.039062 13.519531 C 15.960938 13.503906 15.925781 13.582031 15.855469 13.613281 C 15.804688 13.625 15.804688 13.570312 15.761719 13.566406 C 15.722656 13.566406 15.707031 13.621094 15.667969 13.613281 C 15.628906 13.597656 15.582031 13.519531 15.574219 13.472656 C 15.558594 13.347656 15.664062 13.332031 15.714844 13.242188 C 15.679688 13.128906 15.53125 13.191406 15.433594 13.148438 C 15.445312 13.082031 15.496094 13.023438 15.574219 13.007812 C 15.640625 12.996094 15.8125 13.023438 15.855469 13.054688 C 15.875 13.074219 15.820312 13.117188 15.855469 13.148438 C 15.890625 13.183594 15.941406 13.164062 15.992188 13.148438 C 16.011719 13.0625 15.886719 13.109375 15.898438 13.054688 C 16 12.992188 16.195312 13.027344 16.316406 13.007812 C 16.386719 12.996094 16.484375 12.953125 16.546875 12.917969 C 16.605469 12.882812 16.625 12.816406 16.6875 12.871094 C 16.707031 12.933594 16.675781 12.976562 16.640625 13.011719 C 16.527344 13.113281 16.40625 13.21875 16.316406 13.335938 C 16.371094 13.390625 16.457031 13.371094 16.546875 13.382812 C 16.582031 13.398438 16.648438 13.382812 16.6875 13.382812 C 16.730469 13.398438 16.792969 13.367188 16.828125 13.382812 C 16.890625 13.398438 16.902344 13.519531 16.964844 13.519531 C 17.066406 13.519531 17.023438 13.402344 16.964844 13.335938 C 16.984375 13.265625 17.039062 13.199219 17.011719 13.152344 C 16.964844 13.058594 16.789062 13.175781 16.78125 13.058594 C 16.773438 12.984375 16.847656 12.976562 16.875 12.917969 C 16.863281 12.777344 16.980469 12.769531 16.96875 12.640625 C 16.960938 12.585938 16.910156 12.597656 16.875 12.546875 C 16.855469 12.523438 16.851562 12.429688 16.828125 12.410156 C 16.75 12.34375 16.605469 12.394531 16.597656 12.269531 C 16.59375 12.195312 16.605469 12.117188 16.597656 12.039062 C 16.585938 11.960938 16.523438 11.726562 16.457031 11.714844 C 16.375 11.695312 16.324219 11.851562 16.226562 11.898438 C 16.171875 11.925781 16.050781 11.953125 15.996094 11.945312 C 15.960938 11.929688 15.90625 11.921875 15.902344 11.851562 C 15.894531 11.789062 15.972656 11.761719 15.996094 11.714844 C 16 11.699219 15.992188 11.683594 15.996094 11.667969 C 16.101562 11.636719 16.210938 11.601562 16.320312 11.574219 C 16.382812 11.558594 16.441406 11.542969 16.503906 11.53125 C 16.550781 11.515625 16.601562 11.542969 16.644531 11.53125 C 16.84375 11.492188 17.042969 11.457031 17.246094 11.4375 C 17.492188 11.414062 17.734375 11.390625 17.988281 11.390625 Z M 14.988281 12.085938 C 14.941406 12.355469 14.6875 12.464844 14.386719 12.457031 C 14.316406 12.523438 14.375 12.644531 14.339844 12.734375 C 14.308594 12.8125 14.183594 12.878906 14.109375 12.875 C 14.054688 12.875 13.96875 12.785156 13.96875 12.734375 C 13.96875 12.671875 14.070312 12.667969 14.015625 12.597656 C 14.015625 12.582031 14.046875 12.566406 14.0625 12.550781 C 14.089844 12.53125 14.121094 12.523438 14.152344 12.503906 C 14.421875 12.339844 14.699219 12.21875 14.988281 12.085938 M 21.199219 12.363281 C 21.175781 12.378906 21.179688 12.394531 21.15625 12.410156 C 21.097656 12.445312 21.058594 12.488281 21.015625 12.503906 C 20.953125 12.523438 20.886719 12.539062 20.875 12.59375 C 20.867188 12.640625 20.921875 12.644531 20.921875 12.6875 C 20.898438 12.742188 20.886719 12.757812 20.875 12.824219 C 20.953125 12.949219 21.105469 12.800781 21.199219 12.78125 C 21.242188 12.765625 21.273438 12.765625 21.292969 12.734375 C 21.320312 12.695312 21.320312 12.652344 21.339844 12.59375 C 21.359375 12.53125 21.441406 12.507812 21.433594 12.453125 C 21.425781 12.398438 21.292969 12.355469 21.203125 12.363281 M 13.089844 13.292969 C 13.160156 13.347656 13.257812 13.472656 13.136719 13.523438 C 13.121094 13.539062 12.941406 13.574219 12.90625 13.570312 C 12.890625 13.570312 12.871094 13.53125 12.859375 13.523438 C 12.9375 13.449219 13.011719 13.363281 13.089844 13.292969 M 13.371094 13.570312 C 13.40625 13.570312 13.417969 13.660156 13.460938 13.664062 C 13.503906 13.664062 13.53125 13.609375 13.554688 13.617188 C 13.617188 13.632812 13.660156 13.753906 13.601562 13.800781 C 13.554688 13.816406 13.546875 13.75 13.507812 13.753906 C 13.40625 13.773438 13.351562 13.992188 13.277344 13.988281 C 13.207031 13.972656 13.160156 13.808594 13.230469 13.753906 C 13.234375 13.710938 13.230469 13.710938 13.230469 13.664062 C 13.253906 13.636719 13.3125 13.566406 13.371094 13.570312 Z M 13 13.617188 C 13.019531 13.617188 13.039062 13.601562 13.042969 13.617188 C 13.035156 13.695312 13.011719 13.71875 12.949219 13.753906 C 12.847656 13.820312 12.753906 13.898438 12.71875 14.035156 C 12.710938 14.074219 12.585938 14.183594 12.535156 14.175781 C 12.417969 14.148438 12.601562 13.929688 12.628906 13.894531 C 12.65625 13.859375 12.6875 13.84375 12.722656 13.804688 C 12.753906 13.761719 12.78125 13.6875 12.816406 13.664062 C 12.851562 13.636719 12.9375 13.613281 13 13.617188 Z M 23.054688 13.847656 C 23.171875 13.832031 23.234375 13.960938 23.289062 14.03125 C 23.332031 14.089844 23.445312 14.179688 23.519531 14.21875 C 23.5625 14.242188 23.613281 14.292969 23.660156 14.308594 C 23.753906 14.351562 23.933594 14.496094 23.9375 14.589844 C 23.9375 14.636719 23.882812 14.683594 23.890625 14.730469 C 23.964844 14.742188 24.027344 14.617188 24.03125 14.542969 C 24.167969 14.734375 24.285156 14.941406 24.402344 15.144531 C 24.457031 15.242188 24.535156 15.324219 24.585938 15.425781 C 24.523438 15.445312 24.503906 15.453125 24.492188 15.515625 C 24.480469 15.597656 24.527344 15.734375 24.398438 15.746094 C 24.320312 15.761719 24.230469 15.679688 24.121094 15.65625 C 24.078125 15.640625 24.015625 15.671875 23.980469 15.65625 C 23.898438 15.628906 23.910156 15.519531 23.84375 15.46875 C 23.800781 15.441406 23.675781 15.382812 23.609375 15.378906 C 23.570312 15.378906 23.5625 15.394531 23.515625 15.378906 C 23.46875 15.363281 23.375 15.398438 23.332031 15.378906 C 23.292969 15.351562 23.203125 15.273438 23.191406 15.238281 C 23.175781 15.183594 23.328125 15.148438 23.332031 15.097656 C 23.335938 15.0625 23.292969 15.015625 23.285156 14.960938 C 23.28125 14.925781 23.292969 14.890625 23.285156 14.867188 C 23.277344 14.828125 23.207031 14.824219 23.148438 14.820312 C 23.09375 14.820312 23.054688 14.820312 23.007812 14.820312 C 22.941406 14.820312 22.808594 14.820312 22.726562 14.820312 C 22.679688 14.820312 22.636719 14.820312 22.589844 14.820312 C 22.460938 14.835938 22.363281 14.808594 22.265625 14.820312 C 22.191406 14.820312 22.054688 14.882812 21.984375 14.914062 C 21.953125 14.929688 21.9375 14.9375 21.890625 14.960938 C 21.871094 14.976562 21.824219 14.992188 21.796875 15.007812 C 21.757812 15.023438 21.699219 15.085938 21.660156 15.097656 C 21.601562 15.113281 21.53125 15.082031 21.425781 15.097656 C 21.351562 15.097656 21.242188 15.050781 21.242188 14.957031 C 21.242188 14.820312 21.484375 14.890625 21.613281 14.867188 C 21.660156 14.851562 21.691406 14.808594 21.753906 14.773438 C 21.78125 14.757812 21.773438 14.746094 21.796875 14.730469 C 21.84375 14.699219 21.929688 14.625 21.9375 14.589844 C 21.945312 14.554688 21.933594 14.523438 21.9375 14.496094 C 21.945312 14.464844 21.992188 14.445312 22.03125 14.40625 C 22.09375 14.34375 22.140625 14.261719 22.214844 14.21875 C 22.269531 14.191406 22.332031 14.167969 22.355469 14.128906 C 22.363281 14.082031 22.355469 14.082031 22.355469 14.035156 C 22.390625 14.007812 22.421875 13.996094 22.449219 13.988281 C 22.53125 13.972656 22.585938 13.988281 22.679688 13.988281 C 22.722656 13.988281 22.777344 14.007812 22.820312 13.988281 C 22.855469 13.964844 22.875 13.914062 22.914062 13.898438 C 22.953125 13.878906 23.003906 13.855469 23.054688 13.851562 Z M 23.890625 14.730469 L 23.707031 14.730469 C 23.640625 14.730469 23.558594 14.695312 23.519531 14.730469 C 23.574219 14.816406 23.675781 14.847656 23.800781 14.867188 C 23.84375 14.835938 23.871094 14.785156 23.894531 14.730469 M 13.742188 13.894531 L 13.882812 13.894531 C 13.917969 13.894531 13.960938 13.878906 13.972656 13.894531 C 13.949219 13.992188 13.726562 13.976562 13.648438 13.941406 C 13.652344 13.902344 13.695312 13.898438 13.742188 13.894531 M 13.417969 14.078125 C 13.351562 14.125 13.289062 14.1875 13.1875 14.21875 C 13.128906 14.234375 13.058594 14.234375 13.046875 14.171875 C 13.035156 14.09375 13.136719 14.132812 13.1875 14.125 C 13.253906 14.113281 13.34375 14.082031 13.417969 14.082031 Z M 23.058594 14.078125 C 23.011719 14.09375 22.988281 14.203125 23.058594 14.21875 C 23.09375 14.199219 23.113281 14.144531 23.105469 14.078125 C 23.085938 14.058594 23.074219 14.0625 23.058594 14.078125 M 22.964844 14.308594 C 22.96875 14.394531 22.980469 14.46875 22.964844 14.542969 C 23.011719 14.632812 23.128906 14.558594 23.152344 14.496094 C 23.179688 14.339844 23.128906 14.292969 23.058594 14.308594 C 23.035156 14.324219 22.988281 14.292969 22.964844 14.308594 M 10.683594 17.785156 C 10.765625 17.859375 10.8125 17.96875 10.914062 18.015625 C 10.949219 18.035156 11.003906 18.050781 11.050781 18.0625 C 11.089844 18.078125 11.109375 18.046875 11.144531 18.0625 C 11.226562 18.089844 11.316406 18.125 11.378906 18.15625 C 11.472656 18.195312 11.574219 18.339844 11.65625 18.386719 C 11.660156 18.433594 11.640625 18.488281 11.65625 18.527344 C 11.695312 18.578125 11.734375 18.628906 11.796875 18.664062 C 11.871094 18.707031 11.910156 18.773438 11.980469 18.804688 C 12.007812 18.820312 12.035156 18.789062 12.074219 18.804688 C 12.171875 18.835938 12.222656 18.96875 12.304688 18.945312 C 12.359375 18.925781 12.34375 18.859375 12.351562 18.804688 C 12.390625 18.765625 12.433594 18.710938 12.492188 18.710938 C 12.582031 18.710938 12.597656 18.855469 12.628906 18.945312 C 12.648438 18.996094 12.710938 19.03125 12.722656 19.082031 C 12.746094 19.175781 12.742188 19.445312 12.722656 19.5 C 12.699219 19.566406 12.59375 19.5625 12.539062 19.640625 C 12.511719 19.675781 12.511719 19.753906 12.492188 19.777344 C 12.457031 19.820312 12.425781 19.832031 12.398438 19.871094 C 12.382812 19.894531 12.367188 19.933594 12.351562 19.960938 C 12.308594 20.058594 12.222656 20.128906 12.261719 20.242188 C 12.273438 20.289062 12.351562 20.328125 12.351562 20.382812 C 12.351562 20.445312 12.222656 20.496094 12.214844 20.566406 C 12.207031 20.617188 12.242188 20.683594 12.261719 20.75 C 12.273438 20.804688 12.367188 20.855469 12.398438 20.890625 C 12.453125 20.949219 12.492188 21.050781 12.539062 21.121094 C 12.632812 21.265625 12.679688 21.445312 12.769531 21.585938 C 12.820312 21.660156 12.921875 21.695312 12.957031 21.773438 C 12.972656 21.8125 12.941406 21.875 12.957031 21.910156 C 13.007812 22.03125 13.253906 22.175781 13.371094 22.238281 C 13.429688 22.265625 13.507812 22.253906 13.558594 22.28125 C 13.636719 22.328125 13.796875 22.445312 13.835938 22.515625 C 13.871094 22.578125 13.863281 22.738281 13.882812 22.839844 C 13.90625 22.96875 13.875 23.070312 13.882812 23.210938 C 13.886719 23.285156 13.929688 23.316406 13.929688 23.394531 C 13.929688 23.421875 13.929688 23.507812 13.929688 23.535156 C 13.925781 23.625 13.9375 23.71875 13.929688 23.8125 C 13.925781 23.863281 13.925781 23.910156 13.929688 23.953125 C 13.933594 24 13.972656 24.003906 13.972656 24.042969 C 13.976562 24.085938 13.925781 24.148438 13.929688 24.183594 C 13.9375 24.277344 14.003906 24.328125 14.023438 24.414062 C 14.035156 24.484375 14.078125 24.660156 14.066406 24.742188 C 14.0625 24.785156 14.027344 24.832031 14.023438 24.878906 C 14.015625 24.917969 14.027344 24.9375 14.023438 24.972656 C 14.015625 25.003906 14.03125 25.035156 14.023438 25.0625 C 13.972656 25.035156 13.929688 25.003906 13.882812 24.972656 C 13.488281 24.703125 13.105469 24.378906 12.769531 24.042969 C 12.722656 24 12.675781 23.953125 12.628906 23.90625 C 12.363281 23.625 12.109375 23.300781 11.890625 22.976562 C 11.867188 22.949219 11.863281 22.914062 11.84375 22.886719 C 11.585938 22.503906 11.375 22.113281 11.195312 21.679688 C 11.179688 21.648438 11.160156 21.621094 11.148438 21.589844 C 10.992188 21.203125 10.867188 20.796875 10.777344 20.382812 C 10.757812 20.304688 10.746094 20.230469 10.730469 20.152344 C 10.695312 19.953125 10.65625 19.753906 10.636719 19.550781 C 10.613281 19.296875 10.589844 19.0625 10.589844 18.804688 C 10.589844 18.453125 10.636719 18.125 10.683594 17.785156 M 13.558594 18.574219 C 13.628906 18.539062 13.617188 18.65625 13.558594 18.664062 C 13.503906 18.679688 13.507812 18.601562 13.558594 18.574219 "/>
</g>
</svg>
