<?xml version="1.0" encoding="UTF-8"?>
<svg xmlns="http://www.w3.org/2000/svg" xmlns:xlink="http://www.w3.org/1999/xlink" width="36pt" height="36pt" viewBox="0 0 36 36" version="1.1">
<g id="surface1">
<path style=" stroke:none;fill-rule:evenodd;fill:rgb(50.588235%,80.784314%,46.27451%);fill-opacity:1;" d="M 23.835938 2.25 L 8.476562 2.25 C 5.027344 2.25 2.25 5.027344 2.25 8.476562 L 2.25 27.523438 C 2.25 30.972656 5.027344 33.75 8.476562 33.75 L 27.523438 33.75 C 30.972656 33.75 33.75 30.972656 33.75 27.523438 L 33.75 12.164062 Z M 23.835938 2.25 "/>
<path style=" stroke:none;fill-rule:evenodd;fill:rgb(78.431373%,92.156863%,75.686275%);fill-opacity:1;" d="M 33.75 12.164062 L 23.835938 2.25 L 23.835938 5.9375 C 23.835938 9.386719 26.613281 12.164062 30.0625 12.164062 Z M 33.75 12.164062 "/>
<path style=" stroke:none;fill-rule:nonzero;fill:rgb(78.431373%,92.156863%,75.686275%);fill-opacity:1;" d="M 18 12.324219 C 14.273438 12.324219 11.25 15.347656 11.25 19.074219 C 11.25 22.800781 14.273438 25.824219 18 25.824219 C 21.726562 25.824219 24.75 22.800781 24.75 19.074219 C 24.75 15.347656 21.726562 12.324219 18 12.324219 M 18 13.449219 C 21.105469 13.449219 23.625 15.96875 23.625 19.074219 C 23.625 22.179688 21.105469 24.699219 18 24.699219 C 14.894531 24.699219 12.375 22.179688 12.375 19.074219 C 12.375 15.96875 14.894531 13.449219 18 13.449219 M 17.4375 14.574219 L 17.4375 15.699219 L 18.5625 15.699219 L 18.5625 14.574219 Z M 17.4375 16.824219 L 17.4375 23.574219 L 18.5625 23.574219 L 18.5625 16.824219 Z M 17.4375 16.824219 "/>
</g>
</svg>
