<?xml version="1.0" encoding="UTF-8"?>
<svg xmlns="http://www.w3.org/2000/svg" xmlns:xlink="http://www.w3.org/1999/xlink" width="36pt" height="36pt" viewBox="0 0 36 36" version="1.1">
<g id="surface1">
<path style=" stroke:none;fill-rule:evenodd;fill:rgb(63.921569%,77.647059%,22.352941%);fill-opacity:1;" d="M 23.835938 2.25 L 8.476562 2.25 C 5.027344 2.25 2.25 5.027344 2.25 8.476562 L 2.25 27.523438 C 2.25 30.972656 5.027344 33.75 8.476562 33.75 L 27.523438 33.75 C 30.972656 33.75 33.75 30.972656 33.75 27.523438 L 33.75 12.164062 Z M 23.835938 2.25 "/>
<path style=" stroke:none;fill-rule:evenodd;fill:rgb(54.901961%,67.45098%,13.333333%);fill-opacity:1;" d="M 33.75 12.164062 L 23.835938 2.25 L 23.835938 5.9375 C 23.835938 9.386719 26.613281 12.164062 30.0625 12.164062 Z M 33.75 12.164062 "/>
<path style=" stroke:none;fill-rule:nonzero;fill:rgb(100%,100%,100%);fill-opacity:1;" d="M 15.78125 11.972656 C 15.75 11.96875 15.714844 11.972656 15.6875 11.992188 C 15.632812 12.027344 15.621094 12.105469 15.664062 12.164062 L 16.246094 12.976562 C 14.957031 13.457031 14.0625 14.496094 14.0625 16.039062 L 21.9375 16.039062 C 21.9375 14.453125 20.992188 13.390625 19.640625 12.929688 L 20.1875 12.164062 C 20.230469 12.105469 20.222656 12.027344 20.167969 11.992188 C 20.109375 11.953125 20.03125 11.972656 19.988281 12.03125 L 19.398438 12.855469 C 18.964844 12.734375 18.492188 12.664062 18 12.664062 C 17.460938 12.664062 16.945312 12.738281 16.476562 12.882812 L 15.863281 12.03125 C 15.84375 12 15.8125 11.980469 15.78125 11.972656 Z M 16.878906 13.789062 C 17.1875 13.789062 17.4375 14.039062 17.4375 14.347656 C 17.4375 14.660156 17.183594 14.914062 16.878906 14.914062 C 16.566406 14.914062 16.3125 14.660156 16.3125 14.347656 C 16.3125 14.039062 16.566406 13.789062 16.878906 13.789062 Z M 19.128906 13.789062 C 19.4375 13.789062 19.6875 14.039062 19.6875 14.347656 C 19.6875 14.660156 19.433594 14.914062 19.128906 14.914062 C 18.816406 14.914062 18.5625 14.660156 18.5625 14.347656 C 18.5625 14.039062 18.816406 13.789062 19.128906 13.789062 Z M 11.863281 17.164062 C 11.214844 17.164062 10.6875 17.503906 10.6875 17.925781 L 10.6875 20.902344 C 10.6875 21.320312 11.214844 21.664062 11.863281 21.664062 C 12.511719 21.664062 12.9375 21.320312 12.9375 20.902344 L 12.9375 17.925781 C 12.9375 17.503906 12.511719 17.164062 11.863281 17.164062 Z M 14.0625 17.164062 L 14.0625 23.351562 C 14.0625 23.664062 14.3125 23.914062 14.625 23.914062 L 15.1875 23.914062 L 15.1875 25.46875 C 15.1875 25.929688 15.910156 26.164062 16.3125 26.164062 C 16.714844 26.164062 17.5 25.925781 17.4375 25.46875 L 17.4375 23.914062 L 18.5625 23.914062 L 18.5625 25.46875 C 18.5625 25.929688 19.285156 26.164062 19.6875 26.164062 C 20.089844 26.164062 20.84375 25.929688 20.8125 25.46875 L 20.8125 23.914062 L 21.375 23.914062 C 21.6875 23.914062 21.9375 23.664062 21.9375 23.351562 L 21.9375 17.164062 Z M 24.238281 17.164062 C 23.589844 17.164062 23.0625 17.503906 23.0625 17.925781 L 23.0625 20.902344 C 23.0625 21.320312 23.589844 21.664062 24.238281 21.664062 C 24.886719 21.664062 25.3125 21.320312 25.3125 20.902344 L 25.3125 17.925781 C 25.3125 17.503906 24.886719 17.164062 24.238281 17.164062 Z M 24.238281 17.164062 "/>
</g>
</svg>
