<?xml version="1.0" encoding="UTF-8"?>
<svg xmlns="http://www.w3.org/2000/svg" xmlns:xlink="http://www.w3.org/1999/xlink" width="36pt" height="36pt" viewBox="0 0 36 36" version="1.1">
<g id="surface1">
<path style=" stroke:none;fill-rule:evenodd;fill:rgb(96.078431%,61.568627%,8.235294%);fill-opacity:1;" d="M 23.835938 2.25 L 8.476562 2.25 C 5.027344 2.25 2.25 5.027344 2.25 8.476562 L 2.25 27.523438 C 2.25 30.972656 5.027344 33.75 8.476562 33.75 L 27.523438 33.75 C 30.972656 33.75 33.75 30.972656 33.75 27.523438 L 33.75 12.164062 Z M 23.835938 2.25 "/>
<path style=" stroke:none;fill-rule:evenodd;fill:rgb(99.215686%,88.235294%,65.098039%);fill-opacity:1;" d="M 33.75 12.164062 L 23.835938 2.25 L 23.835938 5.9375 C 23.835938 9.386719 26.613281 12.164062 30.0625 12.164062 Z M 33.75 12.164062 "/>
<path style=" stroke:none;fill-rule:nonzero;fill:rgb(99.215686%,86.666667%,63.921569%);fill-opacity:1;" d="M 17.234375 10.175781 L 17.234375 11.894531 C 15.949219 12.011719 14.933594 12.339844 14.179688 12.945312 C 13.351562 13.605469 12.9375 14.582031 12.9375 15.855469 C 12.9375 17.636719 14.003906 18.792969 16.183594 19.34375 L 17.234375 19.628906 L 17.234375 25.265625 C 15.878906 25.144531 14.609375 24.847656 13.417969 24.261719 L 12.890625 25.648438 C 13.375 25.945312 14.039062 26.226562 14.847656 26.457031 C 15.558594 26.65625 16.359375 26.742188 17.234375 26.792969 L 17.234375 28.511719 L 18.765625 28.511719 L 18.765625 26.792969 C 20.0625 26.6875 21.105469 26.292969 21.867188 25.597656 C 22.683594 24.863281 23.109375 23.792969 23.109375 22.398438 C 23.109375 21.273438 22.804688 20.429688 22.203125 19.820312 C 21.601562 19.203125 20.695312 18.761719 19.527344 18.484375 L 18.765625 18.292969 L 18.765625 13.328125 C 19.355469 13.371094 19.964844 13.453125 20.53125 13.613281 C 21.179688 13.789062 21.664062 14.015625 22.058594 14.234375 L 22.535156 12.851562 C 21.558594 12.242188 20.304688 11.875 18.765625 11.800781 L 18.765625 10.175781 Z M 16.902344 13.375 C 17 13.359375 17.128906 13.386719 17.234375 13.375 L 17.234375 17.910156 L 16.808594 17.816406 C 16.089844 17.640625 15.546875 17.378906 15.183594 17.050781 C 14.828125 16.714844 14.65625 16.265625 14.65625 15.714844 C 14.65625 14.40625 15.394531 13.625 16.902344 13.375 M 18.765625 19.964844 L 19.050781 20.0625 C 19.929688 20.28125 20.535156 20.582031 20.867188 20.96875 C 21.203125 21.351562 21.34375 21.875 21.34375 22.496094 C 21.34375 24.226562 20.484375 25.148438 18.765625 25.3125 Z M 18.765625 19.964844 "/>
</g>
</svg>
