<?xml version="1.0" encoding="UTF-8"?>
<svg xmlns="http://www.w3.org/2000/svg" xmlns:xlink="http://www.w3.org/1999/xlink" width="36pt" height="36pt" viewBox="0 0 36 36" version="1.1">
<g id="surface1">
<path style=" stroke:none;fill-rule:evenodd;fill:rgb(81.176471%,45.490196%,87.843137%);fill-opacity:1;" d="M 23.835938 2.25 L 8.476562 2.25 C 5.027344 2.25 2.25 5.027344 2.25 8.476562 L 2.25 27.523438 C 2.25 30.972656 5.027344 33.75 8.476562 33.75 L 27.523438 33.75 C 30.972656 33.75 33.75 30.972656 33.75 27.523438 L 33.75 12.164062 Z M 23.835938 2.25 "/>
<path style=" stroke:none;fill-rule:evenodd;fill:rgb(90.588235%,72.941176%,94.117647%);fill-opacity:1;" d="M 33.75 12.164062 L 23.835938 2.25 L 23.835938 5.9375 C 23.835938 9.386719 26.613281 12.164062 30.0625 12.164062 Z M 33.75 12.164062 "/>
<path style=" stroke:none;fill-rule:nonzero;fill:rgb(100%,100%,100%);fill-opacity:1;" d="M 15.34375 10.027344 C 13.796875 10.574219 12.6875 12.03125 12.6875 13.765625 L 12.6875 14.273438 C 12.6875 15.253906 12.148438 16.101562 11.359375 16.5625 L 11.359375 19.4375 C 12.148438 19.898438 12.6875 20.742188 12.6875 21.726562 L 12.6875 22.230469 C 12.6875 23.96875 13.796875 25.421875 15.34375 25.96875 L 15.34375 24.519531 C 14.550781 24.058594 14.015625 23.210938 14.015625 22.230469 L 14.015625 21.722656 C 14.015625 19.996094 12.917969 18.550781 11.386719 17.996094 C 12.917969 17.445312 14.015625 16 14.015625 14.269531 L 14.015625 13.765625 C 14.015625 12.78125 14.550781 11.933594 15.34375 11.476562 Z M 20.65625 10.027344 L 20.65625 11.480469 C 21.449219 11.9375 21.984375 12.785156 21.984375 13.769531 L 21.984375 14.273438 C 21.984375 16 23.082031 17.445312 24.613281 18 C 23.082031 18.550781 21.984375 20 21.984375 21.726562 L 21.984375 22.230469 C 21.984375 23.214844 21.449219 24.0625 20.65625 24.519531 L 20.65625 25.972656 C 22.203125 25.425781 23.3125 23.96875 23.3125 22.234375 L 23.3125 21.726562 C 23.3125 20.746094 23.851562 19.898438 24.640625 19.441406 L 24.640625 16.5625 C 23.851562 16.105469 23.3125 15.257812 23.3125 14.273438 L 23.3125 13.769531 C 23.3125 12.03125 22.203125 10.578125 20.65625 10.03125 "/>
</g>
</svg>
