<?xml version="1.0" encoding="UTF-8"?>
<svg xmlns="http://www.w3.org/2000/svg" xmlns:xlink="http://www.w3.org/1999/xlink" width="36pt" height="36pt" viewBox="0 0 36 36" version="1.1">
<g id="surface1">
<path style=" stroke:none;fill-rule:evenodd;fill:rgb(20.784314%,40.392157%,30.588235%);fill-opacity:1;" d="M 23.835938 2.25 L 8.476562 2.25 C 5.027344 2.25 2.25 5.027344 2.25 8.476562 L 2.25 27.523438 C 2.25 30.972656 5.027344 33.75 8.476562 33.75 L 27.523438 33.75 C 30.972656 33.75 33.75 30.972656 33.75 27.523438 L 33.75 12.164062 Z M 23.835938 2.25 "/>
<path style=" stroke:none;fill-rule:evenodd;fill:rgb(50.588235%,81.568627%,65.882353%);fill-opacity:1;" d="M 33.75 12.164062 L 23.835938 2.25 L 23.835938 5.9375 C 23.835938 9.386719 26.613281 12.164062 30.0625 12.164062 Z M 33.75 12.164062 "/>
<path style=" stroke:none;fill-rule:nonzero;fill:rgb(50.588235%,81.568627%,65.882353%);fill-opacity:1;" d="M 12.375 12.457031 C 11.75 12.457031 11.25 12.960938 11.25 13.582031 L 11.25 24.832031 C 11.25 25.457031 11.75 25.957031 12.375 25.957031 L 23.625 25.957031 C 24.25 25.957031 24.75 25.457031 24.75 24.832031 L 24.75 13.582031 C 24.75 12.960938 24.25 12.457031 23.625 12.457031 Z M 12.375 13.582031 L 23.625 13.582031 L 23.625 24.832031 L 12.375 24.832031 Z M 13.5 14.707031 L 13.5 15.832031 L 15.75 15.832031 L 15.75 14.707031 Z M 16.875 14.710938 L 16.875 15.835938 L 19.125 15.835938 L 19.125 14.710938 Z M 20.25 14.710938 L 20.25 15.835938 L 22.5 15.835938 L 22.5 14.710938 Z M 13.5 16.957031 L 13.5 18.082031 L 15.75 18.082031 L 15.75 16.957031 Z M 16.875 16.960938 L 16.875 18.085938 L 19.125 18.085938 L 19.125 16.960938 Z M 20.25 16.960938 L 20.25 18.085938 L 22.5 18.085938 L 22.5 16.960938 Z M 13.5 19.207031 L 13.5 20.332031 L 15.75 20.332031 L 15.75 19.207031 Z M 16.875 19.210938 L 16.875 20.335938 L 19.125 20.335938 L 19.125 19.210938 Z M 20.25 19.210938 L 20.25 20.335938 L 22.5 20.335938 L 22.5 19.210938 Z M 13.5 21.457031 L 13.5 22.582031 L 15.75 22.582031 L 15.75 21.457031 Z M 16.875 21.460938 L 16.875 22.585938 L 19.125 22.585938 L 19.125 21.460938 Z M 20.25 21.460938 L 20.25 22.585938 L 22.5 22.585938 L 22.5 21.460938 Z M 20.25 21.460938 "/>
</g>
</svg>
