<?xml version="1.0" encoding="UTF-8"?>
<svg xmlns="http://www.w3.org/2000/svg" xmlns:xlink="http://www.w3.org/1999/xlink" width="36pt" height="36pt" viewBox="0 0 36 36" version="1.1">
<g id="surface1">
<path style=" stroke:none;fill-rule:evenodd;fill:rgb(98.039216%,45.882353%,16.470588%);fill-opacity:1;" d="M 23.835938 2.25 L 8.476562 2.25 C 5.027344 2.25 2.25 5.027344 2.25 8.476562 L 2.25 27.523438 C 2.25 30.972656 5.027344 33.75 8.476562 33.75 L 27.523438 33.75 C 30.972656 33.75 33.75 30.972656 33.75 27.523438 L 33.75 12.164062 Z M 23.835938 2.25 "/>
<path style=" stroke:none;fill-rule:evenodd;fill:rgb(99.215686%,72.941176%,58.431373%);fill-opacity:1;" d="M 33.75 12.164062 L 23.835938 2.25 L 23.835938 5.9375 C 23.835938 9.386719 26.613281 12.164062 30.0625 12.164062 Z M 33.75 12.164062 "/>
<path style=" stroke:none;fill-rule:nonzero;fill:rgb(99.215686%,72.941176%,58.431373%);fill-opacity:1;" d="M 12.375 12.457031 C 11.75 12.457031 11.25 12.960938 11.25 13.582031 L 11.25 24.832031 C 11.25 25.457031 11.75 25.957031 12.375 25.957031 L 23.625 25.957031 C 24.25 25.957031 24.75 25.457031 24.75 24.832031 L 24.75 13.582031 C 24.75 12.960938 24.25 12.457031 23.625 12.457031 Z M 12.375 13.582031 L 23.625 13.582031 L 23.625 24.832031 L 12.375 24.832031 Z M 19.125 14.707031 L 19.125 18.082031 L 22.5 18.082031 C 22.5 16.21875 20.988281 14.707031 19.125 14.707031 M 18 15.832031 C 16.136719 15.832031 14.625 17.34375 14.625 19.207031 C 14.625 21.074219 16.136719 22.582031 18 22.582031 C 19.863281 22.582031 21.375 21.074219 21.375 19.207031 L 18 19.207031 Z M 18 15.832031 "/>
</g>
</svg>
