<?xml version="1.0" encoding="UTF-8"?>
<svg xmlns="http://www.w3.org/2000/svg" xmlns:xlink="http://www.w3.org/1999/xlink" width="36pt" height="36pt" viewBox="0 0 36 36" version="1.1">
<g id="surface1">
<path style=" stroke:none;fill-rule:evenodd;fill:rgb(92.54902%,13.72549%,6.27451%);fill-opacity:1;" d="M 23.835938 2.25 L 8.476562 2.25 C 5.027344 2.25 2.25 5.027344 2.25 8.476562 L 2.25 27.523438 C 2.25 30.972656 5.027344 33.75 8.476562 33.75 L 27.523438 33.75 C 30.972656 33.75 33.75 30.972656 33.75 27.523438 L 33.75 12.164062 Z M 23.835938 2.25 "/>
<path style=" stroke:none;fill-rule:evenodd;fill:rgb(98.039216%,62.745098%,59.215686%);fill-opacity:1;" d="M 33.75 12.164062 L 23.835938 2.25 L 23.835938 5.9375 C 23.835938 9.386719 26.613281 12.164062 30.0625 12.164062 Z M 33.75 12.164062 "/>
<path style=" stroke:none;fill-rule:nonzero;fill:rgb(98.039216%,63.921569%,60.784314%);fill-opacity:1;" d="M 18 12.191406 C 14.273438 12.191406 11.25 13.199219 11.25 14.441406 L 11.25 23.441406 C 11.25 24.683594 14.273438 25.691406 18 25.691406 C 21.726562 25.691406 24.75 24.683594 24.75 23.441406 L 24.75 14.441406 C 24.75 13.199219 21.726562 12.191406 18 12.191406 M 18 13.316406 C 21.105469 13.316406 23.625 13.820312 23.625 14.441406 C 23.625 15.0625 21.105469 15.566406 18 15.566406 C 14.894531 15.566406 12.375 15.0625 12.375 14.441406 C 12.375 13.820312 14.894531 13.316406 18 13.316406 M 12.375 15.679688 C 13.621094 16.308594 15.734375 16.6875 18 16.691406 C 20.265625 16.691406 22.375 16.3125 23.625 15.683594 L 23.625 18.941406 C 23.625 19.5625 21.105469 20.066406 18 20.066406 C 14.894531 20.066406 12.375 19.5625 12.375 18.941406 Z M 12.375 20.179688 C 13.621094 20.808594 15.734375 21.1875 18 21.191406 C 20.265625 21.191406 22.375 20.8125 23.625 20.183594 L 23.625 23.441406 C 23.625 24.0625 21.105469 24.566406 18 24.566406 C 14.894531 24.566406 12.375 24.0625 12.375 23.441406 Z M 12.375 20.179688 "/>
</g>
</svg>
