<?xml version="1.0" encoding="UTF-8"?>
<svg xmlns="http://www.w3.org/2000/svg" xmlns:xlink="http://www.w3.org/1999/xlink" width="36pt" height="36pt" viewBox="0 0 36 36" version="1.1">
<g id="surface1">
<path style=" stroke:none;fill-rule:evenodd;fill:rgb(96.470588%,16.078431%,36.470588%);fill-opacity:1;" d="M 23.835938 2.25 L 8.476562 2.25 C 5.027344 2.25 2.25 5.027344 2.25 8.476562 L 2.25 27.523438 C 2.25 30.972656 5.027344 33.75 8.476562 33.75 L 27.523438 33.75 C 30.972656 33.75 33.75 30.972656 33.75 27.523438 L 33.75 12.164062 Z M 23.835938 2.25 "/>
<path style=" stroke:none;fill-rule:evenodd;fill:rgb(100%,94.117647%,88.627451%);fill-opacity:1;" d="M 33.75 12.164062 L 23.835938 2.25 L 23.835938 5.9375 C 23.835938 9.386719 26.613281 12.164062 30.0625 12.164062 Z M 33.75 12.164062 "/>
<path style=" stroke:none;fill-rule:nonzero;fill:rgb(100%,94.117647%,88.627451%);fill-opacity:1;" d="M 12.375 12.457031 L 12.375 16.957031 L 11.25 16.957031 L 11.25 23.707031 L 14.625 23.707031 L 14.625 25.957031 L 21.375 25.957031 L 21.375 23.707031 L 24.75 23.707031 L 24.75 16.957031 L 23.625 16.957031 L 23.625 12.457031 Z M 13.5 13.582031 L 22.5 13.582031 L 22.5 16.957031 L 21.375 16.957031 L 21.375 15.832031 L 14.625 15.832031 L 14.625 16.957031 L 13.5 16.957031 Z M 14.625 13.582031 L 14.625 14.707031 L 21.375 14.707031 L 21.375 13.582031 Z M 12.375 18.082031 L 23.625 18.082031 L 23.625 22.582031 L 22.5 22.582031 L 22.5 21.457031 L 13.5 21.457031 L 13.5 22.582031 L 12.375 22.582031 Z M 20.25 19.207031 L 20.25 20.332031 L 22.5 20.332031 L 22.5 19.207031 Z M 15.75 23.707031 L 20.25 23.707031 L 20.25 24.832031 L 15.75 24.832031 Z M 15.75 23.707031 "/>
</g>
</svg>
