<?xml version="1.0" encoding="UTF-8"?>
<svg xmlns="http://www.w3.org/2000/svg" xmlns:xlink="http://www.w3.org/1999/xlink" width="36pt" height="36pt" viewBox="0 0 36 36" version="1.1">
<g id="surface1">
<path style=" stroke:none;fill-rule:evenodd;fill:rgb(12.54902%,58.431373%,94.901961%);fill-opacity:1;" d="M 23.835938 2.25 L 8.476562 2.25 C 5.027344 2.25 2.25 5.027344 2.25 8.476562 L 2.25 27.523438 C 2.25 30.972656 5.027344 33.75 8.476562 33.75 L 27.523438 33.75 C 30.972656 33.75 33.75 30.972656 33.75 27.523438 L 33.75 12.164062 Z M 23.835938 2.25 "/>
<path style=" stroke:none;fill-rule:evenodd;fill:rgb(0%,52.54902%,82.352941%);fill-opacity:1;" d="M 33.75 12.164062 L 23.835938 2.25 L 23.835938 5.9375 C 23.835938 9.386719 26.613281 12.164062 30.0625 12.164062 Z M 33.75 12.164062 "/>
<path style=" stroke:none;fill-rule:nonzero;fill:rgb(77.254902%,86.666667%,100%);fill-opacity:1;" d="M 18 9.820312 C 12.890625 9.820312 8.753906 13.960938 8.753906 19.066406 C 8.753906 24.175781 12.890625 28.316406 18 28.316406 C 23.109375 28.316406 27.246094 24.175781 27.246094 19.066406 C 27.246094 13.960938 23.109375 9.820312 18 9.820312 Z M 17.074219 11.585938 C 17.179688 11.578125 17.320312 11.59375 17.425781 11.585938 C 17.441406 11.640625 17.347656 11.820312 17.226562 12.089844 C 16.441406 13.800781 16.398438 15.804688 17.125 16.878906 C 17.257812 17.070312 17.375 17.253906 17.375 17.28125 C 17.375 17.304688 17.234375 17.328125 17.074219 17.328125 C 16.695312 17.328125 16.339844 17.101562 15.613281 16.523438 C 15.289062 16.265625 14.871094 16.054688 14.707031 16.019531 C 14.453125 15.96875 14.382812 15.992188 14.050781 16.324219 C 13.746094 16.628906 13.648438 16.796875 13.648438 17.078125 C 13.648438 18.148438 14.917969 18.992188 17.273438 19.492188 C 20.476562 20.171875 21.265625 20.78125 21.355469 22.464844 C 21.464844 24.578125 20.339844 26.167969 17.878906 27.402344 C 17.585938 27.550781 17.398438 27.605469 17.273438 27.652344 C 17.21875 27.648438 17.179688 27.65625 17.125 27.652344 C 17.105469 27.585938 17.074219 27.4375 17.074219 27.148438 C 17.074219 26.027344 16.632812 24.875 15.964844 24.226562 C 15.789062 24.054688 15.285156 23.6875 14.855469 23.421875 C 14.429688 23.15625 13.996094 22.851562 13.898438 22.71875 C 13.738281 22.5 13.726562 22.367188 13.851562 21.964844 C 14.074219 21.226562 14.339844 20.816406 14.855469 20.351562 C 15.128906 20.105469 15.402344 19.902344 15.460938 19.898438 C 15.519531 19.894531 15.117188 19.769531 14.507812 19.644531 C 13.894531 19.519531 13 19.257812 12.539062 19.089844 C 11.695312 18.785156 10.558594 18.144531 10.125 17.683594 C 10.105469 17.664062 10.089844 17.648438 10.074219 17.628906 C 10.695312 15.152344 12.441406 13.121094 14.757812 12.140625 C 15.242188 11.9375 15.742188 11.796875 16.269531 11.6875 C 16.53125 11.632812 16.800781 11.613281 17.074219 11.585938 Z M 24.628906 15.363281 C 24.816406 15.480469 25.53125 17.027344 25.734375 17.78125 C 26 18.757812 25.980469 20.441406 25.734375 21.40625 C 25.644531 21.777344 25.523438 22.121094 25.484375 22.164062 C 25.445312 22.207031 25.300781 21.960938 25.132812 21.660156 C 24.960938 21.363281 24.421875 20.722656 23.972656 20.25 C 22.675781 18.882812 22.472656 18.167969 23.015625 17.078125 C 23.289062 16.527344 24.480469 15.273438 24.628906 15.363281 Z M 24.628906 15.363281 "/>
</g>
</svg>
