<?xml version="1.0" encoding="UTF-8"?>
<svg xmlns="http://www.w3.org/2000/svg" xmlns:xlink="http://www.w3.org/1999/xlink" width="36pt" height="36pt" viewBox="0 0 36 36" version="1.1">
<g id="surface1">
<path style=" stroke:none;fill-rule:evenodd;fill:rgb(27.45098%,77.254902%,27.45098%);fill-opacity:1;" d="M 23.835938 2.25 L 8.476562 2.25 C 5.027344 2.25 2.25 5.027344 2.25 8.476562 L 2.25 27.523438 C 2.25 30.972656 5.027344 33.75 8.476562 33.75 L 27.523438 33.75 C 30.972656 33.75 33.75 30.972656 33.75 27.523438 L 33.75 12.164062 Z M 23.835938 2.25 "/>
<path style=" stroke:none;fill-rule:evenodd;fill:rgb(24.705882%,53.333333%,24.705882%);fill-opacity:1;" d="M 33.75 12.164062 L 23.835938 2.25 L 23.835938 5.9375 C 23.835938 9.386719 26.613281 12.164062 30.0625 12.164062 Z M 33.75 12.164062 "/>
<path style=" stroke:none;fill-rule:nonzero;fill:rgb(24.705882%,53.333333%,24.705882%);fill-opacity:1;" d="M 23.503906 10.832031 C 23.429688 10.832031 23.347656 10.851562 23.273438 10.898438 C 23.234375 10.925781 23.058594 11.132812 22.890625 11.359375 L 22.578125 11.769531 L 22.46875 11.695312 C 22.3125 11.589844 22.160156 11.566406 22.019531 11.628906 C 21.921875 11.671875 21.691406 11.96875 20.183594 13.953125 C 19.234375 15.203125 18.457031 16.238281 18.460938 16.253906 C 18.460938 16.265625 18.84375 16.566406 19.304688 16.917969 L 20.152344 17.5625 L 21.277344 16.078125 C 21.894531 15.265625 22.410156 14.601562 22.425781 14.613281 C 22.464844 14.640625 22.53125 15.285156 22.515625 15.492188 C 22.511719 15.605469 22.46875 15.808594 22.425781 15.941406 C 22.34375 16.179688 22.335938 16.195312 20.941406 18.039062 C 20.167969 19.058594 19.527344 19.921875 19.515625 19.957031 C 19.484375 20.050781 19.519531 20.230469 19.589844 20.332031 C 19.707031 20.503906 20.003906 20.558594 20.175781 20.4375 C 20.289062 20.351562 23.050781 16.675781 23.140625 16.484375 C 23.398438 15.9375 23.453125 15.230469 23.296875 14.539062 C 23.234375 14.265625 23.152344 14 23.070312 13.8125 C 23.046875 13.761719 23.089844 13.695312 23.347656 13.351562 C 23.589844 13.023438 23.648438 12.929688 23.652344 12.84375 C 23.664062 12.664062 23.609375 12.5625 23.429688 12.421875 L 23.265625 12.292969 L 23.597656 11.851562 C 23.867188 11.488281 23.925781 11.390625 23.929688 11.308594 C 23.945312 11.035156 23.734375 10.835938 23.503906 10.832031 Z M 17.925781 16.9375 C 17.917969 16.941406 16.90625 18.273438 15.671875 19.898438 C 13.6875 22.515625 13.40625 22.902344 13.222656 23.234375 C 12.855469 23.898438 12.460938 24.914062 12.195312 25.835938 C 12.019531 26.429688 12.015625 26.375 12.25 26.25 C 12.980469 25.863281 13.933594 25.230469 14.488281 24.765625 C 15.03125 24.308594 15.121094 24.191406 17.425781 21.15625 L 19.644531 18.230469 L 18.792969 17.582031 C 18.324219 17.226562 17.933594 16.9375 17.925781 16.9375 Z M 18.171875 23.71875 C 18.0625 23.710938 17.949219 23.714844 17.878906 23.730469 C 17.535156 23.804688 17.15625 24.101562 16.96875 24.441406 C 16.921875 24.53125 16.839844 24.730469 16.792969 24.882812 C 16.746094 25.039062 16.703125 25.167969 16.699219 25.171875 C 16.675781 25.203125 16.015625 25.363281 15.632812 25.429688 C 14.726562 25.585938 14.476562 25.648438 14.386719 25.730469 C 14.214844 25.890625 14.351562 26.050781 14.597656 25.980469 C 14.664062 25.960938 14.941406 25.90625 15.210938 25.859375 C 15.484375 25.8125 15.898438 25.726562 16.132812 25.675781 C 16.363281 25.617188 16.5625 25.582031 16.574219 25.589844 C 16.582031 25.601562 16.542969 25.789062 16.480469 26.011719 L 16.367188 26.40625 L 16.121094 26.515625 C 15.984375 26.578125 15.792969 26.679688 15.6875 26.746094 C 15.378906 26.953125 15.316406 27.207031 15.535156 27.375 C 15.65625 27.460938 15.984375 27.457031 16.1875 27.371094 C 16.371094 27.289062 16.472656 27.171875 16.613281 26.871094 C 16.691406 26.714844 16.75 26.632812 16.792969 26.625 C 16.832031 26.613281 17.160156 26.550781 17.523438 26.472656 C 17.882812 26.402344 18.214844 26.332031 18.253906 26.320312 C 18.324219 26.304688 18.332031 26.3125 18.3125 26.375 C 18.300781 26.414062 18.238281 26.527344 18.175781 26.632812 C 18.113281 26.734375 18.066406 26.855469 18.066406 26.902344 C 18.066406 27.003906 18.152344 27.109375 18.21875 27.082031 C 18.246094 27.070312 18.28125 27.0625 18.296875 27.0625 C 18.3125 27.0625 18.386719 27.007812 18.460938 26.941406 C 18.59375 26.820312 18.921875 26.222656 18.921875 26.097656 C 18.921875 26.035156 18.972656 26.019531 19 26.070312 C 19.011719 26.085938 19.085938 26.117188 19.167969 26.136719 C 19.285156 26.164062 19.316406 26.1875 19.316406 26.242188 C 19.316406 26.34375 19.484375 26.492188 19.632812 26.519531 C 19.75 26.542969 19.898438 26.515625 20.054688 26.449219 C 20.113281 26.429688 20.113281 26.433594 20.09375 26.519531 C 20.082031 26.574219 19.984375 26.742188 19.882812 26.898438 C 19.664062 27.21875 19.402344 27.734375 19.332031 27.960938 C 19.277344 28.15625 19.300781 28.300781 19.402344 28.371094 C 19.496094 28.429688 19.648438 28.402344 19.726562 28.320312 C 19.796875 28.242188 20.167969 27.449219 20.308594 27.085938 C 20.40625 26.832031 20.453125 26.761719 20.675781 26.527344 C 20.863281 26.332031 20.921875 26.28125 20.882812 26.359375 C 20.816406 26.5 20.820312 26.609375 20.890625 26.675781 C 21.046875 26.816406 21.269531 26.679688 21.464844 26.324219 C 21.582031 26.113281 21.667969 26.046875 22.097656 25.847656 L 22.320312 25.746094 L 22.296875 25.867188 C 22.28125 25.933594 22.207031 26.121094 22.128906 26.28125 C 21.972656 26.609375 21.945312 26.816406 22.039062 26.992188 C 22.101562 27.113281 22.164062 27.117188 22.46875 27.011719 C 22.890625 26.871094 23.441406 26.546875 23.585938 26.359375 C 23.777344 26.09375 23.835938 25.839844 23.71875 25.753906 C 23.597656 25.664062 23.527344 25.703125 23.375 25.929688 C 23.164062 26.238281 22.90625 26.480469 22.660156 26.601562 C 22.542969 26.660156 22.441406 26.699219 22.433594 26.691406 C 22.417969 26.675781 22.683594 25.96875 22.824219 25.636719 C 22.855469 25.566406 22.878906 25.480469 22.878906 25.445312 C 22.878906 25.351562 22.761719 25.246094 22.664062 25.246094 C 22.617188 25.246094 22.402344 25.335938 22.183594 25.449219 C 21.730469 25.671875 21.761719 25.691406 21.875 25.269531 C 21.945312 25.011719 21.921875 24.941406 21.761719 24.921875 C 21.609375 24.90625 21.550781 24.957031 21.414062 25.203125 C 21.324219 25.371094 21.207031 25.511719 20.976562 25.722656 C 20.679688 26 20.664062 26.007812 20.597656 25.957031 C 20.488281 25.882812 20.429688 25.894531 20.175781 26.023438 C 19.921875 26.148438 19.839844 26.164062 19.777344 26.089844 C 19.726562 26.023438 19.808594 25.992188 20.265625 25.902344 C 20.710938 25.816406 20.765625 25.792969 20.765625 25.703125 C 20.765625 25.554688 20.644531 25.414062 20.425781 25.316406 C 20.050781 25.148438 20.007812 25.136719 19.84375 25.179688 C 19.664062 25.226562 19.402344 25.484375 19.367188 25.640625 C 19.328125 25.804688 19.214844 25.757812 19.214844 25.574219 C 19.214844 25.5 19.125 25.308594 19.070312 25.273438 C 18.957031 25.199219 18.777344 25.363281 18.640625 25.667969 L 18.53125 25.898438 L 18.285156 25.953125 C 17.96875 26.023438 17.050781 26.207031 16.929688 26.230469 C 16.851562 26.242188 16.835938 26.234375 16.851562 26.1875 C 16.863281 26.15625 16.90625 26.011719 16.945312 25.863281 C 17.046875 25.457031 17.078125 25.402344 17.226562 25.351562 C 17.402344 25.285156 18.003906 25.03125 18.15625 24.949219 C 18.230469 24.914062 18.378906 24.800781 18.488281 24.703125 C 18.820312 24.390625 18.875 24.105469 18.636719 23.894531 C 18.570312 23.839844 18.484375 23.78125 18.445312 23.761719 C 18.382812 23.742188 18.277344 23.722656 18.171875 23.71875 Z M 18.007812 24.105469 C 18.183594 24.117188 18.25 24.132812 18.300781 24.183594 C 18.367188 24.25 18.367188 24.257812 18.304688 24.382812 C 18.265625 24.460938 18.175781 24.550781 18.058594 24.632812 C 17.855469 24.769531 17.226562 25.023438 17.207031 24.980469 C 17.179688 24.902344 17.382812 24.453125 17.511719 24.304688 C 17.683594 24.113281 17.734375 24.089844 18.007812 24.105469 Z M 16.144531 26.867188 C 16.171875 26.867188 16.167969 26.890625 16.152344 26.925781 C 16.109375 27.007812 15.996094 27.070312 15.933594 27.046875 C 15.859375 27.019531 15.882812 26.976562 15.996094 26.917969 C 16.074219 26.882812 16.121094 26.863281 16.144531 26.867188 Z M 16.144531 26.867188 "/>
</g>
</svg>
