<?xml version="1.0" encoding="UTF-8" standalone="no"?>
<svg
   xmlns:dc="http://purl.org/dc/elements/1.1/"
   xmlns:cc="http://creativecommons.org/ns#"
   xmlns:rdf="http://www.w3.org/1999/02/22-rdf-syntax-ns#"
   xmlns:svg="http://www.w3.org/2000/svg"
   xmlns="http://www.w3.org/2000/svg"
   xmlns:sodipodi="http://sodipodi.sourceforge.net/DTD/sodipodi-0.dtd"
   xmlns:inkscape="http://www.inkscape.org/namespaces/inkscape"
   width="48"
   height="48"
   viewBox="0 0 36 36"
   version="1.1"
   id="svg9"
   sodipodi:docname="application-msword.svg"
   inkscape:version="0.92.1 r">
  <metadata
     id="metadata15">
    <rdf:RDF>
      <cc:Work
         rdf:about="">
        <dc:format>image/svg+xml</dc:format>
        <dc:type
           rdf:resource="http://purl.org/dc/dcmitype/StillImage" />
        <dc:title></dc:title>
      </cc:Work>
    </rdf:RDF>
  </metadata>
  <defs
     id="defs13" />
  <sodipodi:namedview
     pagecolor="#ffffff"
     bordercolor="#666666"
     borderopacity="1"
     objecttolerance="10"
     gridtolerance="10"
     guidetolerance="10"
     inkscape:pageopacity="0"
     inkscape:pageshadow="2"
     inkscape:window-width="640"
     inkscape:window-height="480"
     id="namedview11"
     showgrid="false"
     units="px"
     inkscape:zoom="5.9583333"
     inkscape:cx="-7.8881119"
     inkscape:cy="24"
     inkscape:current-layer="svg9" />
  <g
     id="surface1">
    <path
       style="fill:#1e94f0;fill-opacity:1;fill-rule:evenodd;stroke:none"
       d="M 23.835938,2.25 H 8.476562 C 5.027344,2.25 2.25,5.027344 2.25,8.476562 V 27.523438 C 2.25,30.972656 5.027344,33.75 8.476562,33.75 H 27.523438 C 30.972656,33.75 33.75,30.972656 33.75,27.523438 V 12.164062 Z m 0,0"
       id="path2"
       inkscape:connector-curvature="0" />
    <path
       style="fill:#0775d7;fill-opacity:1;fill-rule:evenodd;stroke:none"
       d="M 33.75,12.164062 23.835938,2.25 v 3.6875 c 0,3.449219 2.777343,6.226562 6.226562,6.226562 z m 0,0"
       id="path4"
       inkscape:connector-curvature="0" />
    <path
       style="fill:#a1e8ff;fill-opacity:1;fill-rule:nonzero;stroke:none"
       d="m 25.367188,13.40625 c -0.5625,0.0078 -1.054688,0.378906 -1.214844,0.917969 L 21.808594,21.8125 18.78125,16.625 c -0.238281,-0.40625 -0.679688,-0.648438 -1.148438,-0.632812 -0.472656,0.01172 -0.898437,0.285156 -1.105468,0.707031 l -2.425782,4.851562 -2.253906,-7.226562 C 11.636719,13.648438 10.917969,13.269531 10.242188,13.480469 9.5625,13.691406 9.1875,14.410156 9.398438,15.089844 l 3.199218,10.265625 c 0.15625,0.5 0.601563,0.855469 1.125,0.894531 0.519532,0.04297 1.015625,-0.234375 1.25,-0.703125 l 2.789063,-5.578125 3.292969,5.648438 c 0.257812,0.441406 0.75,0.6875 1.253906,0.628906 0.503906,-0.05469 0.929687,-0.40625 1.082031,-0.890625 l 3.210937,-10.265625 c 0.128907,-0.394532 0.0625,-0.824219 -0.183593,-1.160156 -0.246094,-0.335938 -0.636719,-0.53125 -1.050781,-0.523438 z m 0,0"
       id="path6"
       inkscape:connector-curvature="0" />
  </g>
</svg>
