<?xml version="1.0" encoding="UTF-8"?>
<svg xmlns="http://www.w3.org/2000/svg" xmlns:xlink="http://www.w3.org/1999/xlink" width="36pt" height="36pt" viewBox="0 0 36 36" version="1.1">
<g id="surface1">
<path style=" stroke:none;fill-rule:evenodd;fill:rgb(59.215686%,49.019608%,75.686275%);fill-opacity:1;" d="M 23.835938 2.25 L 8.476562 2.25 C 5.027344 2.25 2.25 5.027344 2.25 8.476562 L 2.25 27.523438 C 2.25 30.972656 5.027344 33.75 8.476562 33.75 L 27.523438 33.75 C 30.972656 33.75 33.75 30.972656 33.75 27.523438 L 33.75 12.164062 Z M 23.835938 2.25 "/>
<path style=" stroke:none;fill-rule:evenodd;fill:rgb(48.627451%,40.392157%,62.352941%);fill-opacity:1;" d="M 33.75 12.164062 L 23.835938 2.25 L 23.835938 5.9375 C 23.835938 9.386719 26.613281 12.164062 30.0625 12.164062 Z M 33.75 12.164062 "/>
<path style=" stroke:none;fill-rule:nonzero;fill:rgb(82.745098%,81.176471%,94.901961%);fill-opacity:1;" d="M 17.242188 12.867188 L 9.675781 19.679688 L 17.242188 26.488281 L 17.242188 23.460938 L 13.460938 19.679688 L 17.242188 15.894531 Z M 21.277344 12.867188 C 20.722656 12.867188 20.269531 13.589844 20.269531 14.148438 L 20.269531 16.164062 C 20.25 17.527344 22.558594 17.527344 22.539062 16.164062 L 22.539062 15.136719 L 24.054688 15.136719 L 24.054688 18.648438 L 21.554688 20.371094 C 21.285156 20.550781 21.039062 20.851562 21.027344 21.175781 L 21.027344 22.4375 C 21.007812 23.804688 23.316406 23.804688 23.296875 22.4375 L 23.296875 21.71875 L 25.875 19.996094 C 26.144531 19.816406 26.3125 19.515625 26.324219 19.191406 L 26.324219 14.148438 C 26.324219 13.589844 25.871094 12.867188 25.316406 12.867188 Z M 22.160156 24.21875 C 21.535156 24.21875 21.027344 24.726562 21.027344 25.351562 C 21.027344 25.980469 21.535156 26.488281 22.160156 26.488281 C 22.789062 26.488281 23.296875 25.980469 23.296875 25.351562 C 23.296875 24.726562 22.789062 24.21875 22.160156 24.21875 Z M 22.160156 24.21875 "/>
</g>
</svg>
