<?xml version="1.0" encoding="UTF-8"?>
<svg xmlns="http://www.w3.org/2000/svg" xmlns:xlink="http://www.w3.org/1999/xlink" width="36pt" height="36pt" viewBox="0 0 36 36" version="1.1">
<g id="surface1">
<path style=" stroke:none;fill-rule:evenodd;fill:rgb(32.54902%,59.607843%,25.098039%);fill-opacity:1;" d="M 23.835938 2.25 L 8.476562 2.25 C 5.027344 2.25 2.25 5.027344 2.25 8.476562 L 2.25 27.523438 C 2.25 30.972656 5.027344 33.75 8.476562 33.75 L 27.523438 33.75 C 30.972656 33.75 33.75 30.972656 33.75 27.523438 L 33.75 12.164062 Z M 23.835938 2.25 "/>
<path style=" stroke:none;fill-rule:evenodd;fill:rgb(16.470588%,45.098039%,16.862745%);fill-opacity:1;" d="M 33.75 12.164062 L 23.835938 2.25 L 23.835938 5.9375 C 23.835938 9.386719 26.613281 12.164062 30.0625 12.164062 Z M 33.75 12.164062 "/>
<path style=" stroke:none;fill-rule:nonzero;fill:rgb(78.823529%,91.372549%,61.568627%);fill-opacity:1;" d="M 12.996094 2.25 L 12.996094 18.628906 L 7.957031 18.628906 L 7.957031 23.671875 L 2.234375 23.671875 L 2.234375 26.191406 L 7.957031 26.191406 L 7.957031 31.230469 L 12.996094 31.230469 L 12.996094 33.75 L 15.515625 33.75 L 15.515625 31.230469 L 20.554688 31.230469 L 20.554688 26.191406 L 33.765625 26.191406 L 33.765625 23.671875 L 20.554688 23.671875 L 20.554688 18.628906 L 15.515625 18.628906 L 15.515625 2.25 Z M 10.476562 21.148438 L 18.035156 21.148438 L 18.035156 28.710938 L 10.476562 28.710938 Z M 12.996094 23.671875 L 12.996094 26.191406 L 15.515625 26.191406 L 15.515625 23.671875 Z M 12.996094 23.671875 "/>
</g>
</svg>
