<?xml version="1.0" encoding="UTF-8"?>
<svg xmlns="http://www.w3.org/2000/svg" xmlns:xlink="http://www.w3.org/1999/xlink" width="36pt" height="36pt" viewBox="0 0 36 36" version="1.1">
<g id="surface1">
<path style=" stroke:none;fill-rule:evenodd;fill:rgb(67.45098%,55.686275%,36.078431%);fill-opacity:1;" d="M 8.40625 2.136719 L 27.59375 2.136719 C 31.054688 2.136719 33.863281 4.945312 33.863281 8.40625 L 33.863281 27.59375 C 33.863281 31.054688 31.054688 33.863281 27.59375 33.863281 L 8.40625 33.863281 C 4.945312 33.863281 2.136719 31.054688 2.136719 27.59375 L 2.136719 8.40625 C 2.136719 4.945312 4.945312 2.136719 8.40625 2.136719 Z M 8.40625 2.136719 "/>
<path style=" stroke:none;fill-rule:evenodd;fill:rgb(87.058824%,33.72549%,29.803922%);fill-opacity:1;" d="M 21.5 8.550781 L 12.285156 8.550781 C 10.21875 8.550781 8.550781 10.214844 8.550781 12.285156 L 8.550781 23.714844 C 8.550781 25.78125 10.21875 27.449219 12.285156 27.449219 L 23.714844 27.449219 C 25.785156 27.449219 27.449219 25.78125 27.449219 23.714844 L 27.449219 14.5 Z M 21.5 8.550781 "/>
<path style=" stroke:none;fill-rule:nonzero;fill:rgb(89.411765%,72.941176%,45.882353%);fill-opacity:1;" d="M 5.953125 12.5625 C 5.949219 12.613281 5.949219 12.667969 5.949219 12.71875 L 5.949219 23.214844 C 5.949219 24.3125 6.53125 25.324219 7.476562 25.871094 L 16.472656 31.085938 C 17.417969 31.636719 18.582031 31.636719 19.527344 31.085938 L 28.523438 25.871094 C 29.46875 25.324219 30.050781 24.308594 30.050781 23.214844 L 30.050781 12.71875 C 30.050781 12.679688 30.046875 12.640625 30.046875 12.601562 C 30.050781 12.601562 5.953125 12.5625 5.953125 12.5625 Z M 5.953125 12.5625 "/>
<path style=" stroke:none;fill-rule:nonzero;fill:rgb(72.156863%,59.607843%,38.823529%);fill-opacity:1;" d="M 18.070312 4.5 L 18.070312 4.503906 C 17.511719 4.488281 16.957031 4.632812 16.46875 4.917969 L 7.46875 10.191406 C 6.582031 10.714844 6.011719 11.648438 5.949219 12.683594 C 6.003906 13.730469 6.578125 14.675781 7.46875 15.199219 L 16.46875 20.476562 C 17.417969 21.03125 18.582031 21.03125 19.53125 20.476562 L 28.53125 15.199219 C 29.417969 14.679688 29.988281 13.746094 30.050781 12.710938 C 29.996094 11.664062 29.421875 10.71875 28.53125 10.191406 L 19.53125 4.917969 C 19.085938 4.65625 18.585938 4.511719 18.070312 4.5 Z M 18.070312 4.5 "/>
<path style=" stroke:none;fill-rule:nonzero;fill:rgb(67.45098%,55.686275%,36.078431%);fill-opacity:1;" d="M 18.070312 4.5 L 18.070312 4.503906 C 17.886719 4.5 17.699219 4.511719 17.519531 4.542969 L 17.519531 20.847656 C 18.210938 20.960938 18.921875 20.832031 19.527344 20.476562 L 28.53125 15.199219 C 29.414062 14.679688 29.988281 13.746094 30.050781 12.707031 C 29.996094 11.664062 29.421875 10.71875 28.53125 10.195312 L 19.527344 4.917969 C 19.085938 4.65625 18.585938 4.515625 18.070312 4.5 Z M 18.070312 4.5 "/>
<path style=" stroke:none;fill-rule:nonzero;fill:rgb(80.784314%,65.882353%,41.568627%);fill-opacity:1;" d="M 5.953125 12.621094 C 5.949219 12.636719 5.949219 12.648438 5.949219 12.664062 C 5.949219 12.652344 5.953125 12.644531 5.953125 12.636719 C 5.953125 12.628906 5.953125 12.625 5.953125 12.621094 Z M 5.949219 12.691406 C 5.949219 12.703125 5.949219 12.710938 5.949219 12.71875 L 5.949219 23.214844 C 5.949219 24.3125 6.53125 25.324219 7.476562 25.871094 L 16.472656 31.089844 C 16.800781 31.277344 17.15625 31.398438 17.519531 31.457031 L 17.519531 20.847656 C 17.148438 20.789062 16.792969 20.664062 16.472656 20.476562 L 7.46875 15.199219 C 6.582031 14.675781 6.007812 13.734375 5.949219 12.691406 Z M 5.949219 12.691406 "/>
<path style=" stroke:none;fill-rule:nonzero;fill:rgb(60.784314%,50.196078%,32.54902%);fill-opacity:1;" d="M 6.015625 12.210938 C 5.980469 12.367188 5.960938 12.523438 5.949219 12.683594 C 6.003906 13.730469 6.578125 14.675781 7.46875 15.199219 L 16.472656 20.476562 C 17.417969 21.03125 18.582031 21.03125 19.527344 20.476562 L 28.53125 15.199219 C 29.417969 14.679688 29.988281 13.746094 30.050781 12.707031 C 30.042969 12.542969 30.019531 12.378906 29.984375 12.21875 C 29.796875 13.066406 29.273438 13.796875 28.53125 14.234375 L 19.527344 19.511719 C 18.582031 20.066406 17.417969 20.066406 16.472656 19.511719 L 7.46875 14.234375 C 6.726562 13.796875 6.199219 13.0625 6.015625 12.210938 Z M 6.015625 12.210938 "/>
</g>
</svg>
