<?xml version="1.0" encoding="UTF-8"?>
<svg xmlns="http://www.w3.org/2000/svg" xmlns:xlink="http://www.w3.org/1999/xlink" width="36pt" height="36pt" viewBox="0 0 36 36" version="1.1">
<g id="surface1">
<path style=" stroke:none;fill-rule:evenodd;fill:rgb(87.058824%,33.72549%,29.803922%);fill-opacity:1;" d="M 23.835938 2.25 L 8.476562 2.25 C 5.027344 2.25 2.25 5.027344 2.25 8.476562 L 2.25 27.523438 C 2.25 30.972656 5.027344 33.75 8.476562 33.75 L 27.523438 33.75 C 30.972656 33.75 33.75 30.972656 33.75 27.523438 L 33.75 12.164062 Z M 23.835938 2.25 "/>
<path style=" stroke:none;fill-rule:evenodd;fill:rgb(69.803922%,24.313725%,19.215686%);fill-opacity:1;" d="M 33.75 12.164062 L 23.835938 2.25 L 23.835938 5.9375 C 23.835938 9.386719 26.613281 12.164062 30.0625 12.164062 Z M 33.75 12.164062 "/>
<path style=" stroke:none;fill-rule:nonzero;fill:rgb(99.607843%,78.823529%,67.058824%);fill-opacity:1;" d="M 13.605469 12.484375 C 13.28125 12.484375 12.972656 12.609375 12.742188 12.839844 C 12.511719 13.066406 12.382812 13.378906 12.382812 13.703125 L 12.382812 19.582031 C 12.363281 19.714844 12.363281 19.847656 12.382812 19.976562 L 12.382812 24.632812 C 12.375 25.074219 12.601562 25.484375 12.984375 25.707031 C 13.363281 25.933594 13.835938 25.933594 14.214844 25.707031 C 14.597656 25.484375 14.828125 25.074219 14.816406 24.632812 L 14.816406 20.898438 C 15.621094 20.882812 16.722656 20.894531 18.664062 20.589844 C 19.945312 20.386719 21.238281 20.097656 22.335938 19.585938 C 22.882812 19.328125 23.394531 19.015625 23.816406 18.554688 C 24.238281 18.097656 24.554688 17.4375 24.546875 16.730469 C 24.542969 16.027344 24.222656 15.378906 23.796875 14.921875 C 23.375 14.464844 22.863281 14.15625 22.316406 13.898438 C 21.21875 13.386719 19.921875 13.097656 18.648438 12.894531 C 16.097656 12.492188 13.605469 12.484375 13.605469 12.484375 Z M 14.816406 15.015625 C 15.605469 15.039062 16.5625 15.027344 18.269531 15.296875 C 19.421875 15.480469 20.558594 15.765625 21.289062 16.105469 C 21.652344 16.273438 21.902344 16.457031 22.015625 16.578125 C 22.128906 16.699219 22.113281 16.703125 22.117188 16.75 C 22.117188 16.796875 22.132812 16.796875 22.023438 16.914062 C 21.914062 17.03125 21.667969 17.210938 21.308594 17.378906 C 20.582031 17.71875 19.441406 18.003906 18.285156 18.1875 C 16.574219 18.457031 15.609375 18.445312 14.816406 18.46875 Z M 14.816406 15.015625 "/>
</g>
</svg>
