<?xml version="1.0" encoding="UTF-8"?>
<svg xmlns="http://www.w3.org/2000/svg" xmlns:xlink="http://www.w3.org/1999/xlink" width="36pt" height="36pt" viewBox="0 0 36 36" version="1.1">
<g id="surface1">
<path style=" stroke:none;fill-rule:evenodd;fill:rgb(30.196078%,51.764706%,71.372549%);fill-opacity:1;" d="M 23.835938 2.25 L 8.476562 2.25 C 5.027344 2.25 2.25 5.027344 2.25 8.476562 L 2.25 27.523438 C 2.25 30.972656 5.027344 33.75 8.476562 33.75 L 27.523438 33.75 C 30.972656 33.75 33.75 30.972656 33.75 27.523438 L 33.75 12.164062 Z M 23.835938 2.25 "/>
<path style=" stroke:none;fill-rule:evenodd;fill:rgb(25.490196%,38.039216%,49.411765%);fill-opacity:1;" d="M 33.75 12.164062 L 23.835938 2.25 L 23.835938 5.9375 C 23.835938 9.386719 26.613281 12.164062 30.0625 12.164062 Z M 33.75 12.164062 "/>
<path style=" stroke:none;fill-rule:nonzero;fill:rgb(25.490196%,38.039216%,49.411765%);fill-opacity:1;" d="M 14.339844 27.371094 C 14.007812 27.285156 14.039062 27.191406 14.585938 26.683594 C 15.523438 25.804688 15.679688 24.929688 15.414062 22.054688 C 15.199219 19.761719 15.152344 19.585938 14.792969 19.78125 C 14.015625 20.195312 13.046875 19.660156 11.945312 18.207031 C 11.402344 17.488281 11.351562 17.277344 11.445312 16.160156 C 11.5 15.472656 11.617188 14.644531 11.703125 14.320312 C 11.835938 13.820312 11.792969 13.726562 11.429688 13.726562 C 11.195312 13.726562 10.878906 13.578125 10.730469 13.398438 C 10.351562 12.945312 11.023438 12.21875 11.816406 12.21875 C 12.140625 12.21875 12.523438 12.074219 12.671875 11.894531 C 13.054688 11.433594 13.636719 11.492188 14.289062 12.054688 C 14.984375 12.65625 15.222656 14.039062 14.832031 15.222656 C 14.390625 16.558594 14.695312 16.691406 15.3125 15.429688 C 15.660156 14.722656 16.148438 14.105469 16.550781 13.867188 C 16.914062 13.652344 17.449219 13.105469 17.734375 12.648438 C 18.023438 12.195312 18.382812 11.742188 18.535156 11.644531 C 19.003906 11.34375 20.296875 10.929688 20.777344 10.925781 C 21.433594 10.914062 22.316406 11.691406 22.472656 12.402344 C 22.546875 12.742188 22.941406 13.539062 23.351562 14.171875 C 23.757812 14.808594 24.09375 15.4375 24.09375 15.574219 C 24.09375 15.710938 24.382812 16.1875 24.742188 16.632812 C 25.273438 17.304688 25.386719 17.640625 25.378906 18.550781 C 25.367188 19.792969 24.699219 21.382812 24.453125 20.742188 C 24.375 20.539062 24.40625 20.195312 24.523438 19.976562 C 24.769531 19.519531 24.550781 17.492188 24.289062 17.757812 C 24.101562 17.941406 23.980469 19.921875 24.03125 21.917969 C 24.101562 24.507812 23.976562 26.949219 23.769531 27.015625 C 23.246094 27.179688 23.019531 26.75 23.234375 26.003906 C 23.554688 24.878906 23.488281 21.882812 23.132812 21.410156 C 22.964844 21.195312 22.765625 20.636719 22.6875 20.171875 C 22.609375 19.710938 22.460938 19.28125 22.359375 19.21875 C 22.019531 19.007812 21.507812 20.367188 21.507812 21.476562 C 21.507812 22.347656 21.375 22.746094 20.859375 23.460938 C 20.128906 24.464844 20.074219 24.765625 20.535156 25.148438 C 20.898438 25.449219 20.96875 26.132812 20.65625 26.324219 C 20.542969 26.394531 20.253906 26.238281 20.007812 25.972656 C 19.664062 25.605469 19.566406 25.574219 19.566406 25.835938 C 19.566406 26.230469 18.765625 26.5 18.324219 26.25 C 18.089844 26.121094 18.144531 26.003906 18.578125 25.71875 C 19.351562 25.210938 19.277344 24.796875 18.246094 23.851562 C 17.441406 23.117188 17.367188 22.96875 17.5 22.316406 C 17.917969 20.246094 17.917969 20.191406 17.433594 20.191406 C 17.121094 20.191406 16.980469 20.328125 16.980469 20.636719 C 16.980469 20.882812 16.875 21.28125 16.742188 21.527344 C 16.511719 21.957031 16.441406 22.304688 15.882812 25.847656 C 15.605469 27.617188 15.535156 27.683594 14.335938 27.371094 M 20.121094 23.609375 C 20.398438 23.066406 20.441406 22.601562 20.320312 21.320312 C 20.160156 19.621094 20.042969 19.5625 19.578125 20.945312 C 19.417969 21.421875 19.109375 22.039062 18.886719 22.320312 C 18.375 22.980469 18.382812 23.179688 18.953125 23.785156 C 19.566406 24.4375 19.699219 24.417969 20.121094 23.605469 "/>
</g>
</svg>
