<?xml version="1.0" encoding="UTF-8"?>
<svg xmlns="http://www.w3.org/2000/svg" xmlns:xlink="http://www.w3.org/1999/xlink" width="36pt" height="36pt" viewBox="0 0 36 36" version="1.1">
<g id="surface1">
<path style=" stroke:none;fill-rule:evenodd;fill:rgb(34.117647%,42.352941%,67.45098%);fill-opacity:1;" d="M 23.835938 2.25 L 8.476562 2.25 C 5.027344 2.25 2.25 5.027344 2.25 8.476562 L 2.25 27.523438 C 2.25 30.972656 5.027344 33.75 8.476562 33.75 L 27.523438 33.75 C 30.972656 33.75 33.75 30.972656 33.75 27.523438 L 33.75 12.164062 Z M 23.835938 2.25 "/>
<path style=" stroke:none;fill-rule:evenodd;fill:rgb(68.627451%,72.54902%,84.313725%);fill-opacity:1;" d="M 33.75 12.164062 L 23.835938 2.25 L 23.835938 5.9375 C 23.835938 9.386719 26.613281 12.164062 30.0625 12.164062 Z M 33.75 12.164062 "/>
<path style=" stroke:none;fill-rule:nonzero;fill:rgb(61.960784%,66.666667%,81.176471%);fill-opacity:1;" d="M 23.257812 11.058594 L 20.949219 13.371094 L 13.867188 13.371094 C 13.566406 12.519531 12.761719 11.945312 11.855469 11.945312 C 10.675781 11.945312 9.71875 12.902344 9.71875 14.082031 C 9.71875 14.988281 10.289062 15.796875 11.140625 16.097656 L 11.140625 26.199219 L 15.417969 26.199219 L 15.417969 27.625 L 19.695312 27.625 L 19.695312 26.199219 L 23.972656 26.199219 L 23.972656 16.394531 L 26.28125 14.082031 Z M 23.257812 13.074219 L 24.265625 14.082031 L 23.257812 15.089844 L 22.25 14.082031 Z M 11.855469 13.371094 C 12.25 13.371094 12.566406 13.691406 12.566406 14.082031 C 12.566406 14.476562 12.25 14.796875 11.855469 14.796875 C 11.460938 14.796875 11.144531 14.476562 11.144531 14.082031 C 11.144531 13.691406 11.460938 13.371094 11.855469 13.371094 M 13.867188 14.796875 L 20.949219 14.796875 L 22.546875 16.394531 L 22.546875 24.773438 L 19.695312 24.773438 L 19.695312 23.351562 L 15.417969 23.351562 L 15.417969 24.773438 L 12.566406 24.773438 L 12.566406 16.097656 C 13.175781 15.882812 13.652344 15.402344 13.867188 14.796875 M 16.84375 24.773438 L 18.269531 24.773438 L 18.269531 26.199219 L 16.84375 26.199219 Z M 16.84375 24.773438 "/>
</g>
</svg>
