<?xml version="1.0" encoding="UTF-8"?>
<svg xmlns="http://www.w3.org/2000/svg" xmlns:xlink="http://www.w3.org/1999/xlink" width="36pt" height="36pt" viewBox="0 0 36 36" version="1.1">
<g id="surface1">
<path style=" stroke:none;fill-rule:evenodd;fill:rgb(18.823529%,68.235294%,94.901961%);fill-opacity:1;" d="M 23.835938 2.25 L 8.476562 2.25 C 5.027344 2.25 2.25 5.027344 2.25 8.476562 L 2.25 27.523438 C 2.25 30.972656 5.027344 33.75 8.476562 33.75 L 27.523438 33.75 C 30.972656 33.75 33.75 30.972656 33.75 27.523438 L 33.75 12.164062 Z M 23.835938 2.25 "/>
<path style=" stroke:none;fill-rule:evenodd;fill:rgb(64.705882%,86.27451%,97.647059%);fill-opacity:1;" d="M 33.75 12.164062 L 23.835938 2.25 L 23.835938 5.9375 C 23.835938 9.386719 26.613281 12.164062 30.0625 12.164062 Z M 33.75 12.164062 "/>
<path style=" stroke:none;fill-rule:nonzero;fill:rgb(64.705882%,86.27451%,97.647059%);fill-opacity:1;" d="M 18 13.515625 C 16.757812 13.515625 15.75 14.527344 15.75 15.765625 L 15.75 20.265625 C 15.75 21.503906 16.757812 22.515625 18 22.515625 C 19.242188 22.515625 20.25 21.503906 20.25 20.265625 L 20.25 15.765625 C 20.25 14.527344 19.242188 13.515625 18 13.515625 Z M 18 14.640625 C 18.621094 14.640625 19.125 15.089844 19.125 15.765625 C 19.125 16.328125 18.621094 16.890625 18 16.890625 C 17.378906 16.890625 16.875 16.328125 16.875 15.765625 C 16.875 15.089844 17.378906 14.640625 18 14.640625 Z M 18 18.015625 C 18.621094 18.015625 19.125 18.519531 19.125 19.140625 L 19.125 20.265625 C 19.125 20.886719 18.621094 21.390625 18 21.390625 C 17.378906 21.390625 16.875 20.886719 16.875 20.265625 L 16.875 19.140625 C 16.875 18.519531 17.378906 18.015625 18 18.015625 Z M 18 18.015625 "/>
<path style=" stroke:none;fill-rule:nonzero;fill:rgb(64.705882%,86.27451%,97.647059%);fill-opacity:1;" d="M 16.875 2.265625 L 16.875 3.390625 L 18 3.390625 L 18 2.265625 Z M 16.875 4.515625 L 16.875 5.640625 L 18 5.640625 L 18 4.515625 Z M 16.875 6.765625 L 16.875 7.890625 L 18 7.890625 L 18 6.765625 Z M 16.875 9.015625 L 16.875 10.140625 L 18 10.140625 L 18 9.015625 Z M 16.875 11.265625 L 16.875 12.390625 L 18 12.390625 L 18 11.265625 Z M 16.875 11.265625 "/>
<path style=" stroke:none;fill-rule:nonzero;fill:rgb(64.705882%,86.27451%,97.647059%);fill-opacity:1;" d="M 18 3.390625 L 18 4.515625 L 19.125 4.515625 L 19.125 3.390625 Z M 18 5.640625 L 18 6.765625 L 19.125 6.765625 L 19.125 5.640625 Z M 18 7.890625 L 18 9.015625 L 19.125 9.015625 L 19.125 7.890625 Z M 18 10.140625 L 18 11.265625 L 19.125 11.265625 L 19.125 10.140625 Z M 18 12.390625 L 18 13.515625 L 19.125 13.515625 L 19.125 12.390625 Z M 18 12.390625 "/>
</g>
</svg>
