<?xml version="1.0" encoding="UTF-8"?>
<svg xmlns="http://www.w3.org/2000/svg" xmlns:xlink="http://www.w3.org/1999/xlink" width="36pt" height="36pt" viewBox="0 0 36 36" version="1.1">
<g id="surface1">
<path style=" stroke:none;fill-rule:evenodd;fill:rgb(80%,80%,80%);fill-opacity:1;" d="M 23.835938 2.25 L 8.476562 2.25 C 5.027344 2.25 2.25 5.027344 2.25 8.476562 L 2.25 27.523438 C 2.25 30.972656 5.027344 33.75 8.476562 33.75 L 27.523438 33.75 C 30.972656 33.75 33.75 30.972656 33.75 27.523438 L 33.75 12.164062 Z M 23.835938 2.25 "/>
<path style=" stroke:none;fill-rule:evenodd;fill:rgb(60%,60%,60%);fill-opacity:1;" d="M 33.75 12.164062 L 23.835938 2.25 L 23.835938 5.9375 C 23.835938 9.386719 26.613281 12.164062 30.0625 12.164062 Z M 33.75 12.164062 "/>
<path style=" stroke:none;fill-rule:nonzero;fill:rgb(60%,60%,60%);fill-opacity:1;" d="M 11.707031 11.75 C 10.972656 12.203125 9.488281 12.835938 8.265625 13.191406 L 8.304688 13.296875 C 8.886719 13.238281 9.507812 13.15625 10.089844 13.058594 L 10.089844 14.542969 L 8.277344 14.542969 L 8.324219 14.707031 L 9.808594 14.707031 C 9.519531 15.902344 8.984375 17.171875 8.21875 18.09375 L 8.335938 18.203125 C 9.054688 17.683594 9.632812 17.082031 10.089844 16.398438 L 10.089844 19.480469 L 10.273438 19.480469 C 10.769531 19.480469 11.089844 19.292969 11.097656 19.234375 L 11.097656 15.753906 C 11.464844 16.085938 11.8125 16.613281 11.882812 17.023438 C 12.007812 17.128906 12.144531 17.183594 12.269531 17.183594 C 12.53125 17.183594 12.753906 16.992188 12.753906 16.726562 C 12.753906 16.371094 12.347656 15.902344 11.097656 15.621094 L 11.097656 14.707031 L 12.453125 14.707031 C 12.71875 14.707031 12.84375 14.664062 12.910156 14.558594 L 11.96875 13.925781 L 11.464844 14.539062 L 11.097656 14.539062 L 11.097656 12.859375 C 11.535156 12.761719 11.941406 12.664062 12.269531 12.5625 C 12.394531 12.597656 12.503906 12.613281 12.601562 12.613281 C 12.71875 12.613281 12.8125 12.585938 12.871094 12.539062 L 11.710938 11.746094 Z M 16.175781 12.894531 L 15.75 13.382812 L 14.0625 13.382812 L 12.984375 12.984375 L 12.984375 19.316406 C 13.898438 19.316406 14.015625 18.988281 14.015625 18.96875 L 14.015625 18.367188 L 15.84375 18.367188 L 15.84375 19.160156 C 16.613281 19.160156 16.882812 18.9375 16.882812 18.921875 L 16.882812 13.777344 C 17.085938 13.734375 17.242188 13.667969 17.300781 13.59375 Z M 14.011719 13.546875 L 15.84375 13.546875 L 15.84375 18.207031 L 14.011719 18.207031 Z M 24.894531 20.988281 C 23.820312 20.988281 23.042969 21.238281 22.558594 21.738281 C 22.15625 22.152344 21.933594 22.78125 21.863281 23.609375 L 20.023438 23.609375 L 20.023438 22.039062 C 20.023438 21.835938 20.054688 21.6875 20.117188 21.597656 C 20.179688 21.511719 20.28125 21.460938 20.421875 21.453125 L 20.707031 21.4375 C 20.8125 21.425781 20.867188 21.375 20.867188 21.277344 C 20.867188 21.207031 20.859375 21.164062 20.839844 21.148438 C 20.824219 21.128906 20.78125 21.121094 20.707031 21.121094 C 20.691406 21.121094 20.640625 21.125 20.558594 21.128906 C 20.242188 21.144531 19.933594 21.148438 19.640625 21.148438 C 19.332031 21.148438 19.007812 21.144531 18.683594 21.128906 C 18.605469 21.125 18.558594 21.121094 18.542969 21.121094 C 18.476562 21.121094 18.429688 21.132812 18.414062 21.148438 C 18.394531 21.164062 18.386719 21.207031 18.386719 21.277344 C 18.386719 21.375 18.441406 21.425781 18.554688 21.4375 L 18.820312 21.453125 C 18.96875 21.460938 19.070312 21.507812 19.132812 21.597656 C 19.195312 21.683594 19.226562 21.832031 19.226562 22.039062 L 19.226562 26.25 C 19.226562 26.457031 19.195312 26.605469 19.136719 26.691406 C 19.074219 26.78125 18.972656 26.828125 18.832031 26.839844 L 18.554688 26.855469 C 18.546875 26.859375 18.539062 26.859375 18.527344 26.859375 C 18.433594 26.867188 18.386719 26.914062 18.386719 27.003906 C 18.386719 27.078125 18.394531 27.125 18.414062 27.140625 C 18.4375 27.160156 18.480469 27.167969 18.542969 27.167969 C 18.5625 27.167969 18.605469 27.167969 18.675781 27.164062 C 19.007812 27.148438 19.328125 27.140625 19.636719 27.140625 C 19.933594 27.140625 20.242188 27.144531 20.558594 27.160156 C 20.636719 27.164062 20.6875 27.167969 20.707031 27.167969 C 20.777344 27.167969 20.820312 27.160156 20.839844 27.140625 C 20.855469 27.125 20.867188 27.078125 20.867188 27.003906 C 20.867188 26.914062 20.820312 26.867188 20.734375 26.859375 C 20.722656 26.859375 20.714844 26.855469 20.707031 26.855469 L 20.433594 26.839844 C 20.285156 26.828125 20.179688 26.78125 20.117188 26.695312 C 20.054688 26.609375 20.023438 26.460938 20.023438 26.25 L 20.023438 24.511719 L 21.851562 24.511719 C 21.898438 25.425781 22.109375 26.117188 22.503906 26.558594 C 22.953125 27.054688 23.671875 27.304688 24.667969 27.304688 C 25.75 27.304688 26.539062 27.050781 27.035156 26.550781 C 27.53125 26.046875 27.78125 25.246094 27.78125 24.144531 C 27.78125 23.03125 27.554688 22.226562 27.097656 21.730469 C 26.644531 21.234375 25.910156 20.988281 24.894531 20.988281 Z M 24.800781 21.289062 C 25.539062 21.289062 26.074219 21.511719 26.40625 21.957031 C 26.730469 22.398438 26.894531 23.132812 26.894531 24.144531 C 26.894531 25.152344 26.730469 25.878906 26.402344 26.324219 C 26.070312 26.769531 25.539062 26.992188 24.800781 26.992188 C 24.058594 26.992188 23.523438 26.769531 23.195312 26.324219 C 22.867188 25.878906 22.703125 25.148438 22.703125 24.132812 C 22.703125 23.136719 22.867188 22.414062 23.203125 21.960938 C 23.535156 21.511719 24.066406 21.289062 24.800781 21.289062 Z M 24.800781 21.289062 "/>
</g>
</svg>
