<?xml version="1.0" encoding="UTF-8"?>
<svg xmlns="http://www.w3.org/2000/svg" xmlns:xlink="http://www.w3.org/1999/xlink" width="36pt" height="36pt" viewBox="0 0 36 36" version="1.1">
<g id="surface1">
<path style=" stroke:none;fill-rule:evenodd;fill:rgb(23.137255%,33.333333%,62.352941%);fill-opacity:1;" d="M 23.835938 2.25 L 8.476562 2.25 C 5.027344 2.25 2.25 5.027344 2.25 8.476562 L 2.25 27.523438 C 2.25 30.972656 5.027344 33.75 8.476562 33.75 L 27.523438 33.75 C 30.972656 33.75 33.75 30.972656 33.75 27.523438 L 33.75 12.164062 Z M 23.835938 2.25 "/>
<path style=" stroke:none;fill-rule:evenodd;fill:rgb(69.411765%,74.509804%,88.235294%);fill-opacity:1;" d="M 33.75 12.164062 L 23.835938 2.25 L 23.835938 5.9375 C 23.835938 9.386719 26.613281 12.164062 30.0625 12.164062 Z M 33.75 12.164062 "/>
<path style=" stroke:none;fill-rule:nonzero;fill:rgb(75.686275%,79.215686%,90.588235%);fill-opacity:1;" d="M 10.710938 12.324219 L 10.710938 26.898438 L 25.289062 26.898438 L 25.289062 12.324219 Z M 11.925781 13.539062 L 24.074219 13.539062 L 24.074219 14.753906 L 11.925781 14.753906 Z M 19.214844 15.96875 L 22.859375 15.96875 L 22.859375 17.183594 L 19.214844 17.183594 Z M 11.925781 18.398438 L 24.074219 18.398438 L 24.074219 20.828125 L 11.925781 20.828125 Z M 19.214844 22.042969 L 22.859375 22.042969 L 22.859375 23.253906 L 19.214844 23.253906 Z M 11.925781 24.46875 L 24.074219 24.46875 L 24.074219 25.683594 L 11.925781 25.683594 Z M 11.925781 24.46875 "/>
</g>
</svg>
