<?xml version="1.0" encoding="UTF-8"?>
<svg xmlns="http://www.w3.org/2000/svg" xmlns:xlink="http://www.w3.org/1999/xlink" width="36pt" height="36pt" viewBox="0 0 36 36" version="1.1">
<defs>
<linearGradient id="linear0" gradientUnits="userSpaceOnUse" x1="0" y1="392.36" x2="0" y2="336.36" gradientTransform="matrix(0.5625,0,0,0.543105,14.921276,-199.644277)">
<stop offset="0" style="stop-color:rgb(100%,100%,100%);stop-opacity:0;"/>
<stop offset="1" style="stop-color:rgb(100%,100%,100%);stop-opacity:0.2;"/>
</linearGradient>
<filter id="alpha" filterUnits="objectBoundingBox" x="0%" y="0%" width="100%" height="100%">
  <feColorMatrix type="matrix" in="SourceGraphic" values="0 0 0 0 1 0 0 0 0 1 0 0 0 0 1 0 0 0 1 0"/>
</filter>
<mask id="mask0">
  <g filter="url(#alpha)">
<rect x="0" y="0" width="36" height="36" style="fill:rgb(0%,0%,0%);fill-opacity:0.74902;stroke:none;"/>
  </g>
</mask>
<clipPath id="clip1">
  <rect width="36" height="36"/>
</clipPath>
<g id="surface6" clip-path="url(#clip1)">
<path style=" stroke:none;fill-rule:nonzero;fill:rgb(100%,100%,100%);fill-opacity:1;" d="M 18 22.8125 L 13.757812 18.566406 L 18 14.328125 L 19.417969 15.738281 L 16.585938 18.566406 L 18 19.984375 L 22.242188 15.738281 L 18.546875 12.042969 C 18.246094 11.746094 17.753906 11.746094 17.453125 12.042969 L 11.476562 18.023438 C 11.175781 18.324219 11.175781 18.8125 11.476562 19.117188 L 17.453125 25.09375 C 17.753906 25.394531 18.246094 25.394531 18.546875 25.09375 L 24.523438 19.117188 C 24.824219 18.8125 24.824219 18.324219 24.523438 18.023438 L 23.65625 17.15625 Z M 18 22.8125 "/>
</g>
</defs>
<g id="surface1">
<path style=" stroke:none;fill-rule:nonzero;fill:url(#linear0);" d="M 28.421875 -17.507812 L 28.421875 13.992188 L 53.171875 13.992188 L 53.171875 -17.507812 Z M 28.421875 -17.507812 "/>
<path style=" stroke:none;fill-rule:evenodd;fill:rgb(98.039216%,85.490196%,41.960784%);fill-opacity:1;" d="M 23.835938 2.25 L 8.476562 2.25 C 5.027344 2.25 2.25 5.027344 2.25 8.476562 L 2.25 27.523438 C 2.25 30.972656 5.027344 33.75 8.476562 33.75 L 27.523438 33.75 C 30.972656 33.75 33.75 30.972656 33.75 27.523438 L 33.75 12.164062 Z M 23.835938 2.25 "/>
<path style=" stroke:none;fill-rule:evenodd;fill:rgb(99.215686%,92.941176%,72.156863%);fill-opacity:1;" d="M 33.75 12.164062 L 23.835938 2.25 L 23.835938 5.9375 C 23.835938 9.386719 26.613281 12.164062 30.0625 12.164062 Z M 33.75 12.164062 "/>
<use xlink:href="#surface6" mask="url(#mask0)"/>
</g>
</svg>
