<?xml version="1.0" encoding="UTF-8"?>
<svg xmlns="http://www.w3.org/2000/svg" xmlns:xlink="http://www.w3.org/1999/xlink" width="36pt" height="36pt" viewBox="0 0 36 36" version="1.1">
<g id="surface1">
<path style=" stroke:none;fill-rule:evenodd;fill:rgb(37.647059%,37.647059%,79.215686%);fill-opacity:1;" d="M 23.835938 2.25 L 8.476562 2.25 C 5.027344 2.25 2.25 5.027344 2.25 8.476562 L 2.25 27.523438 C 2.25 30.972656 5.027344 33.75 8.476562 33.75 L 27.523438 33.75 C 30.972656 33.75 33.75 30.972656 33.75 27.523438 L 33.75 12.164062 Z M 23.835938 2.25 "/>
<path style=" stroke:none;fill-rule:evenodd;fill:rgb(21.568627%,21.568627%,34.117647%);fill-opacity:1;" d="M 33.75 12.164062 L 23.835938 2.25 L 23.835938 5.9375 C 23.835938 9.386719 26.613281 12.164062 30.0625 12.164062 Z M 33.75 12.164062 "/>
<path style=" stroke:none;fill-rule:nonzero;fill:rgb(21.568627%,21.568627%,34.117647%);fill-opacity:1;" d="M 9.523438 11.898438 L 9.523438 23.199219 L 13.761719 23.199219 L 13.761719 13.308594 L 18 13.308594 L 18 16.136719 L 22.238281 16.136719 L 22.238281 11.898438 Z M 10.9375 13.308594 L 12.347656 13.308594 L 12.347656 14.722656 L 10.9375 14.722656 Z M 19.414062 13.308594 L 20.824219 13.308594 L 20.824219 14.722656 L 19.414062 14.722656 Z M 10.9375 16.136719 L 12.347656 16.136719 L 12.347656 18.960938 L 10.9375 18.960938 Z M 15.175781 17.546875 L 15.175781 26.023438 L 18 28.847656 L 18 26.023438 L 26.476562 26.023438 L 26.476562 17.546875 Z M 16.585938 18.960938 L 25.0625 18.960938 L 25.0625 24.609375 L 16.585938 24.609375 Z M 10.9375 20.371094 L 12.347656 20.371094 L 12.347656 21.785156 L 10.9375 21.785156 Z M 10.9375 20.371094 "/>
</g>
</svg>
