<?xml version="1.0" encoding="UTF-8"?>
<svg xmlns="http://www.w3.org/2000/svg" xmlns:xlink="http://www.w3.org/1999/xlink" width="36pt" height="36pt" viewBox="0 0 36 36" version="1.1">
<g id="surface1">
<path style=" stroke:none;fill-rule:evenodd;fill:rgb(83.921569%,85.882353%,86.666667%);fill-opacity:1;" d="M 23.835938 2.25 L 8.476562 2.25 C 5.027344 2.25 2.25 5.027344 2.25 8.476562 L 2.25 27.523438 C 2.25 30.972656 5.027344 33.75 8.476562 33.75 L 27.523438 33.75 C 30.972656 33.75 33.75 30.972656 33.75 27.523438 L 33.75 12.164062 Z M 23.835938 2.25 "/>
<path style=" stroke:none;fill-rule:evenodd;fill:rgb(50.196078%,58.823529%,62.745098%);fill-opacity:1;" d="M 33.75 12.164062 L 23.835938 2.25 L 23.835938 5.9375 C 23.835938 9.386719 26.613281 12.164062 30.0625 12.164062 Z M 33.75 12.164062 "/>
<path style=" stroke:none;fill-rule:nonzero;fill:rgb(50.196078%,58.823529%,62.745098%);fill-opacity:1;" d="M 20.277344 16.097656 C 20.296875 15.925781 20.3125 15.753906 20.3125 15.578125 C 20.3125 15.402344 20.296875 15.226562 20.277344 15.058594 L 21.402344 14.171875 C 21.5 14.09375 21.53125 13.949219 21.464844 13.832031 L 20.398438 11.980469 C 20.332031 11.867188 20.191406 11.820312 20.070312 11.867188 L 18.742188 12.402344 C 18.46875 12.195312 18.164062 12.015625 17.839844 11.878906 L 17.640625 10.464844 C 17.617188 10.335938 17.507812 10.238281 17.375 10.238281 L 15.238281 10.238281 C 15.105469 10.238281 14.996094 10.339844 14.972656 10.464844 L 14.773438 11.878906 C 14.449219 12.015625 14.144531 12.191406 13.871094 12.402344 L 12.542969 11.867188 C 12.421875 11.824219 12.28125 11.867188 12.214844 11.980469 L 11.148438 13.832031 C 11.082031 13.945312 11.113281 14.089844 11.210938 14.171875 L 12.335938 15.058594 C 12.316406 15.226562 12.300781 15.402344 12.300781 15.578125 C 12.300781 15.753906 12.316406 15.925781 12.335938 16.097656 L 11.210938 16.980469 C 11.113281 17.0625 11.082031 17.207031 11.148438 17.324219 L 12.214844 19.171875 C 12.28125 19.289062 12.421875 19.335938 12.542969 19.289062 L 13.871094 18.75 C 14.144531 18.960938 14.449219 19.140625 14.773438 19.277344 L 14.972656 20.691406 C 14.996094 20.816406 15.105469 20.914062 15.238281 20.914062 L 17.375 20.914062 C 17.507812 20.914062 17.617188 20.816406 17.636719 20.691406 L 17.835938 19.277344 C 18.164062 19.140625 18.464844 18.964844 18.738281 18.75 L 20.070312 19.289062 C 20.191406 19.332031 20.328125 19.289062 20.394531 19.171875 L 21.460938 17.324219 C 21.527344 17.207031 21.5 17.066406 21.398438 16.980469 Z M 16.308594 17.445312 C 15.277344 17.445312 14.441406 16.609375 14.441406 15.578125 C 14.441406 14.542969 15.277344 13.707031 16.308594 13.707031 C 17.339844 13.707031 18.175781 14.542969 18.175781 15.578125 C 18.175781 16.609375 17.339844 17.445312 16.308594 17.445312 "/>
<path style=" stroke:none;fill-rule:nonzero;fill:rgb(50.196078%,58.823529%,62.745098%);fill-opacity:1;" d="M 23.324219 25.539062 C 23.398438 25.433594 23.46875 25.328125 23.53125 25.214844 C 23.59375 25.101562 23.644531 24.984375 23.691406 24.867188 L 24.726562 24.695312 C 24.820312 24.679688 24.890625 24.597656 24.886719 24.5 L 24.851562 22.933594 C 24.847656 22.839844 24.773438 22.757812 24.679688 22.746094 L 23.636719 22.625 C 23.535156 22.394531 23.402344 22.171875 23.242188 21.972656 L 23.609375 20.992188 C 23.640625 20.902344 23.605469 20.800781 23.519531 20.753906 L 22.144531 20.003906 C 22.058594 19.957031 21.953125 19.984375 21.898438 20.054688 L 21.273438 20.894531 C 21.015625 20.867188 20.757812 20.875 20.507812 20.917969 L 19.84375 20.105469 C 19.78125 20.035156 19.675781 20.015625 19.59375 20.066406 L 18.257812 20.878906 C 18.175781 20.929688 18.144531 21.03125 18.179688 21.121094 L 18.59375 22.085938 C 18.519531 22.1875 18.449219 22.292969 18.386719 22.40625 C 18.324219 22.519531 18.273438 22.636719 18.226562 22.753906 L 17.191406 22.925781 C 17.101562 22.941406 17.03125 23.023438 17.03125 23.125 L 17.070312 24.6875 C 17.074219 24.785156 17.144531 24.863281 17.238281 24.875 L 18.28125 24.996094 C 18.382812 25.230469 18.515625 25.449219 18.675781 25.652344 L 18.308594 26.632812 C 18.277344 26.71875 18.3125 26.820312 18.398438 26.867188 L 19.773438 27.617188 C 19.855469 27.664062 19.964844 27.640625 20.019531 27.566406 L 20.644531 26.726562 C 20.902344 26.753906 21.15625 26.746094 21.410156 26.703125 L 22.074219 27.515625 C 22.136719 27.585938 22.242188 27.605469 22.324219 27.554688 L 23.660156 26.742188 C 23.742188 26.691406 23.773438 26.589844 23.738281 26.5 Z M 20.300781 25.011719 C 19.640625 24.648438 19.394531 23.820312 19.757812 23.15625 C 20.121094 22.492188 20.949219 22.246094 21.613281 22.609375 C 22.277344 22.972656 22.519531 23.800781 22.160156 24.464844 C 21.796875 25.128906 20.964844 25.375 20.300781 25.011719 "/>
</g>
</svg>
