<?xml version="1.0" encoding="UTF-8"?>
<svg xmlns="http://www.w3.org/2000/svg" xmlns:xlink="http://www.w3.org/1999/xlink" width="36pt" height="36pt" viewBox="0 0 36 36" version="1.1">
<g id="surface1">
<path style=" stroke:none;fill-rule:evenodd;fill:rgb(7.45098%,64.705882%,32.54902%);fill-opacity:1;" d="M 23.835938 2.25 L 8.476562 2.25 C 5.027344 2.25 2.25 5.027344 2.25 8.476562 L 2.25 27.523438 C 2.25 30.972656 5.027344 33.75 8.476562 33.75 L 27.523438 33.75 C 30.972656 33.75 33.75 30.972656 33.75 27.523438 L 33.75 12.164062 Z M 23.835938 2.25 "/>
<path style=" stroke:none;fill-rule:evenodd;fill:rgb(6.27451%,53.333333%,26.666667%);fill-opacity:1;" d="M 33.75 12.164062 L 23.835938 2.25 L 23.835938 5.9375 C 23.835938 9.386719 26.613281 12.164062 30.0625 12.164062 Z M 33.75 12.164062 "/>
<path style=" stroke:none;fill-rule:nonzero;fill:rgb(54.117647%,77.254902%,52.156863%);fill-opacity:1;" d="M 10.132812 13.136719 L 10.132812 14.566406 L 25.867188 14.566406 L 25.867188 13.136719 Z M 10.132812 17.429688 L 10.132812 18.859375 L 25.867188 18.859375 L 25.867188 17.429688 Z M 10.132812 21.71875 L 10.132812 23.148438 L 25.867188 23.148438 L 25.867188 21.71875 Z M 10.132812 26.007812 L 10.132812 27.4375 L 21.574219 27.4375 L 21.574219 26.007812 Z M 10.132812 26.007812 "/>
</g>
</svg>
