<?xml version="1.0" encoding="UTF-8"?>
<svg xmlns="http://www.w3.org/2000/svg" xmlns:xlink="http://www.w3.org/1999/xlink" width="36pt" height="36pt" viewBox="0 0 36 36" version="1.1">
<g id="surface1">
<path style=" stroke:none;fill-rule:evenodd;fill:rgb(37.647059%,49.019608%,54.509804%);fill-opacity:1;" d="M 23.835938 2.25 L 8.476562 2.25 C 5.027344 2.25 2.25 5.027344 2.25 8.476562 L 2.25 27.523438 C 2.25 30.972656 5.027344 33.75 8.476562 33.75 L 27.523438 33.75 C 30.972656 33.75 33.75 30.972656 33.75 27.523438 L 33.75 12.164062 Z M 23.835938 2.25 "/>
<path style=" stroke:none;fill-rule:evenodd;fill:rgb(30.980392%,40.392157%,44.705882%);fill-opacity:1;" d="M 33.75 12.164062 L 23.835938 2.25 L 23.835938 5.9375 C 23.835938 9.386719 26.613281 12.164062 30.0625 12.164062 Z M 33.75 12.164062 "/>
<path style=" stroke:none;fill-rule:nonzero;fill:rgb(72.156863%,87.058824%,92.54902%);fill-opacity:1;" d="M 18.714844 22.785156 L 18.714844 24.214844 L 25.867188 24.214844 L 25.867188 22.785156 Z M 18.714844 27.078125 L 18.714844 28.507812 L 25.867188 28.507812 L 25.867188 27.078125 Z M 14.425781 18.496094 L 14.425781 19.925781 L 25.867188 19.925781 L 25.867188 18.496094 Z M 10.132812 14.207031 L 10.132812 15.636719 L 21.574219 15.636719 L 21.574219 14.207031 Z M 10.132812 14.207031 "/>
</g>
</svg>
