<?xml version="1.0" encoding="UTF-8"?>
<svg xmlns="http://www.w3.org/2000/svg" xmlns:xlink="http://www.w3.org/1999/xlink" width="36pt" height="36pt" viewBox="0 0 36 36" version="1.1">
<g id="surface1">
<path style=" stroke:none;fill-rule:evenodd;fill:rgb(36.078431%,36.078431%,78.823529%);fill-opacity:1;" d="M 23.835938 2.25 L 8.476562 2.25 C 5.027344 2.25 2.25 5.027344 2.25 8.476562 L 2.25 27.523438 C 2.25 30.972656 5.027344 33.75 8.476562 33.75 L 27.523438 33.75 C 30.972656 33.75 33.75 30.972656 33.75 27.523438 L 33.75 12.164062 Z M 23.835938 2.25 "/>
<path style=" stroke:none;fill-rule:evenodd;fill:rgb(24.705882%,24.705882%,41.176471%);fill-opacity:1;" d="M 33.75 12.164062 L 23.835938 2.25 L 23.835938 5.9375 C 23.835938 9.386719 26.613281 12.164062 30.0625 12.164062 Z M 33.75 12.164062 "/>
<path style=" stroke:none;fill-rule:nonzero;fill:rgb(24.705882%,24.705882%,41.176471%);fill-opacity:1;" d="M 13.710938 12.011719 L 13.710938 19.886719 C 13.710938 19.886719 13.535156 19.886719 13.148438 19.886719 C 11.59375 19.886719 10.335938 21.148438 10.335938 22.699219 C 10.335938 24.253906 11.59375 25.511719 13.148438 25.511719 C 14.679688 25.511719 15.929688 24.285156 15.957031 22.75 L 15.960938 22.746094 L 15.960938 15.386719 L 21.585938 15.386719 L 21.585938 19.886719 C 21.585938 19.886719 21.410156 19.886719 21.023438 19.886719 C 19.46875 19.886719 18.210938 21.148438 18.210938 22.699219 C 18.210938 24.253906 19.46875 25.511719 21.023438 25.511719 C 22.519531 25.511719 23.753906 24.335938 23.828125 22.839844 L 23.835938 22.828125 L 23.835938 12.011719 Z M 13.710938 12.011719 "/>
</g>
</svg>
