<?xml version="1.0" encoding="UTF-8"?>
<svg xmlns="http://www.w3.org/2000/svg" xmlns:xlink="http://www.w3.org/1999/xlink" width="36pt" height="36pt" viewBox="0 0 36 36" version="1.1">
<g id="surface1">
<path style=" stroke:none;fill-rule:evenodd;fill:rgb(32.941176%,79.215686%,45.882353%);fill-opacity:1;" d="M 23.835938 2.25 L 8.476562 2.25 C 5.027344 2.25 2.25 5.027344 2.25 8.476562 L 2.25 27.523438 C 2.25 30.972656 5.027344 33.75 8.476562 33.75 L 27.523438 33.75 C 30.972656 33.75 33.75 30.972656 33.75 27.523438 L 33.75 12.164062 Z M 23.835938 2.25 "/>
<path style=" stroke:none;fill-rule:evenodd;fill:rgb(23.921569%,41.568627%,29.019608%);fill-opacity:1;" d="M 33.75 12.164062 L 23.835938 2.25 L 23.835938 5.9375 C 23.835938 9.386719 26.613281 12.164062 30.0625 12.164062 Z M 33.75 12.164062 "/>
<path style=" stroke:none;fill-rule:nonzero;fill:rgb(23.921569%,41.568627%,29.019608%);fill-opacity:1;" d="M 13.5 12.460938 L 13.5 15.835938 L 14.625 15.835938 L 14.625 17.691406 C 13.953125 17.929688 13.5 18.566406 13.5 19.28125 C 13.5 19.996094 13.953125 20.628906 14.625 20.867188 L 14.625 22.585938 L 13.5 22.585938 L 13.5 25.960938 L 16.875 25.960938 L 16.875 23.925781 C 18.355469 25.222656 20.382812 25.957031 22.5 25.957031 L 22.5 24.832031 C 19.484375 24.832031 16.835938 23.167969 16.007812 20.75 C 16.542969 20.453125 16.875 19.890625 16.875 19.277344 C 16.875 18.65625 16.527344 18.082031 15.976562 17.792969 C 16.75 15.316406 19.429688 13.585938 22.5 13.582031 L 22.5 12.457031 C 20.382812 12.460938 18.355469 13.191406 16.875 14.488281 L 16.875 12.457031 Z M 14.625 13.585938 L 15.75 13.585938 L 15.75 14.710938 L 14.625 14.710938 Z M 14.625 23.710938 L 15.75 23.710938 L 15.75 24.835938 L 14.625 24.835938 Z M 14.625 23.710938 "/>
</g>
</svg>
