<?xml version="1.0" encoding="UTF-8"?>
<svg xmlns="http://www.w3.org/2000/svg" xmlns:xlink="http://www.w3.org/1999/xlink" width="36pt" height="36pt" viewBox="0 0 36 36" version="1.1">
<g id="surface1">
<path style=" stroke:none;fill-rule:evenodd;fill:rgb(74.901961%,60.392157%,40%);fill-opacity:1;" d="M 23.835938 2.253906 L 8.476562 2.253906 C 5.027344 2.253906 2.25 5.03125 2.25 8.480469 L 2.25 27.527344 C 2.25 30.976562 5.027344 33.753906 8.476562 33.753906 L 27.523438 33.753906 C 30.972656 33.753906 33.75 30.976562 33.75 27.527344 L 33.75 12.167969 Z M 23.835938 2.253906 "/>
<path style=" stroke:none;fill-rule:evenodd;fill:rgb(64.705882%,50.196078%,28.235294%);fill-opacity:1;" d="M 33.75 12.167969 L 23.835938 2.253906 L 23.835938 5.941406 C 23.835938 9.394531 26.613281 12.167969 30.0625 12.167969 Z M 33.75 12.167969 "/>
<path style=" stroke:none;fill-rule:nonzero;fill:rgb(98.039216%,92.941176%,65.490196%);fill-opacity:1;" d="M 10.476562 16.507812 C 8.925781 16.507812 7.664062 17.765625 7.664062 19.320312 C 7.664062 20.875 8.925781 22.132812 10.476562 22.132812 C 10.933594 22.132812 11.386719 22.019531 11.789062 21.808594 L 14.597656 25.082031 C 14.476562 25.398438 14.417969 25.734375 14.414062 26.070312 C 14.414062 27.625 15.675781 28.882812 17.226562 28.882812 C 18.597656 28.878906 19.769531 27.890625 19.996094 26.539062 L 24.625 25.613281 C 24.933594 26.871094 26.058594 27.753906 27.351562 27.757812 C 28.90625 27.757812 30.164062 26.5 30.164062 24.945312 C 30.164062 23.390625 28.90625 22.132812 27.351562 22.132812 C 25.984375 22.132812 24.8125 23.125 24.585938 24.476562 L 19.957031 25.402344 C 19.648438 24.144531 18.523438 23.257812 17.226562 23.257812 C 16.476562 23.257812 15.757812 23.558594 15.230469 24.09375 L 12.65625 21.09375 C 13.066406 20.59375 13.289062 19.964844 13.289062 19.320312 C 13.289062 17.765625 12.03125 16.507812 10.476562 16.507812 Z M 10.476562 16.507812 "/>
<path style=" stroke:none;fill-rule:nonzero;fill:rgb(98.039216%,92.941176%,65.490196%);fill-opacity:1;" d="M 18.742188 10.121094 C 17.5 10.121094 16.492188 11.132812 16.492188 12.371094 L 16.492188 16.871094 C 16.492188 18.109375 17.5 19.121094 18.742188 19.121094 C 19.984375 19.121094 20.992188 18.109375 20.992188 16.871094 L 20.992188 12.371094 C 20.992188 11.132812 19.984375 10.121094 18.742188 10.121094 Z M 18.742188 11.246094 C 19.363281 11.246094 19.867188 11.695312 19.867188 12.371094 C 19.867188 12.933594 19.363281 13.496094 18.742188 13.496094 C 18.121094 13.496094 17.617188 12.933594 17.617188 12.371094 C 17.617188 11.695312 18.121094 11.246094 18.742188 11.246094 Z M 18.742188 14.621094 C 19.363281 14.621094 19.867188 15.125 19.867188 15.746094 L 19.867188 16.871094 C 19.867188 17.492188 19.363281 17.996094 18.742188 17.996094 C 18.121094 17.996094 17.617188 17.492188 17.617188 16.871094 L 17.617188 15.746094 C 17.617188 15.125 18.121094 14.621094 18.742188 14.621094 Z M 18.742188 14.621094 "/>
<path style=" stroke:none;fill-rule:nonzero;fill:rgb(98.039216%,92.941176%,65.490196%);fill-opacity:1;" d="M 17.617188 3.371094 L 17.617188 4.496094 L 18.742188 4.496094 L 18.742188 3.371094 Z M 17.617188 5.621094 L 17.617188 6.746094 L 18.742188 6.746094 L 18.742188 5.621094 Z M 17.617188 7.871094 L 17.617188 8.996094 L 18.742188 8.996094 L 18.742188 7.871094 Z M 17.617188 7.871094 "/>
<path style=" stroke:none;fill-rule:nonzero;fill:rgb(98.039216%,92.941176%,65.490196%);fill-opacity:1;" d="M 18.742188 2.246094 L 18.742188 3.371094 L 19.867188 3.371094 L 19.867188 2.246094 Z M 18.742188 4.496094 L 18.742188 5.621094 L 19.867188 5.621094 L 19.867188 4.496094 Z M 18.742188 6.746094 L 18.742188 7.871094 L 19.867188 7.871094 L 19.867188 6.746094 Z M 18.742188 8.996094 L 18.742188 10.121094 L 19.867188 10.121094 L 19.867188 8.996094 Z M 18.742188 8.996094 "/>
</g>
</svg>
