<?xml version="1.0" encoding="UTF-8"?>
<svg xmlns="http://www.w3.org/2000/svg" xmlns:xlink="http://www.w3.org/1999/xlink" width="36pt" height="36pt" viewBox="0 0 36 36" version="1.1">
<g id="surface1">
<path style=" stroke:none;fill-rule:evenodd;fill:rgb(79.607843%,76.470588%,21.568627%);fill-opacity:1;" d="M 23.835938 2.25 L 8.476562 2.25 C 5.027344 2.25 2.25 5.027344 2.25 8.476562 L 2.25 27.523438 C 2.25 30.972656 5.027344 33.75 8.476562 33.75 L 27.523438 33.75 C 30.972656 33.75 33.75 30.972656 33.75 27.523438 L 33.75 12.164062 Z M 23.835938 2.25 "/>
<path style=" stroke:none;fill-rule:evenodd;fill:rgb(90.196078%,88.235294%,60.784314%);fill-opacity:1;" d="M 33.75 12.164062 L 23.835938 2.25 L 23.835938 5.9375 C 23.835938 9.386719 26.613281 12.164062 30.0625 12.164062 Z M 33.75 12.164062 "/>
<path style=" stroke:none;fill-rule:nonzero;fill:rgb(90.196078%,88.235294%,60.784314%);fill-opacity:1;" d="M 12.488281 13.289062 C 11.554688 13.289062 10.800781 14.046875 10.800781 14.976562 C 10.800781 15.910156 11.554688 16.664062 12.488281 16.664062 C 13.421875 16.664062 14.175781 15.910156 14.175781 14.976562 C 14.175781 14.046875 13.421875 13.289062 12.488281 13.289062 M 12.488281 14.414062 C 12.796875 14.414062 13.050781 14.667969 13.050781 14.976562 C 13.050781 15.289062 12.796875 15.539062 12.488281 15.539062 C 12.175781 15.539062 11.925781 15.289062 11.925781 14.976562 C 11.925781 14.667969 12.175781 14.414062 12.488281 14.414062 M 23.175781 15.539062 L 16.875 21.816406 L 13.949219 18.914062 L 7.199219 25.664062 L 8.78125 25.664062 L 12.292969 22.199219 L 13.875 20.617188 L 15.632812 22.214844 L 16.875 23.414062 L 23.175781 17.34375 L 27.21875 21.164062 L 28.800781 21.164062 Z M 23.175781 15.539062 "/>
</g>
</svg>
