<?xml version="1.0" encoding="UTF-8"?>
<svg xmlns="http://www.w3.org/2000/svg" xmlns:xlink="http://www.w3.org/1999/xlink" width="36pt" height="36pt" viewBox="0 0 36 36" version="1.1">
<g id="surface1">
<path style=" stroke:none;fill-rule:evenodd;fill:rgb(17.647059%,29.019608%,47.058824%);fill-opacity:1;" d="M 23.835938 2.25 L 8.476562 2.25 C 5.027344 2.25 2.25 5.027344 2.25 8.476562 L 2.25 27.523438 C 2.25 30.972656 5.027344 33.75 8.476562 33.75 L 27.523438 33.75 C 30.972656 33.75 33.75 30.972656 33.75 27.523438 L 33.75 12.164062 Z M 23.835938 2.25 "/>
<path style=" stroke:none;fill-rule:evenodd;fill:rgb(22.352941%,50.980392%,97.254902%);fill-opacity:1;" d="M 33.75 12.164062 L 23.835938 2.25 L 23.835938 5.9375 C 23.835938 9.386719 26.613281 12.164062 30.0625 12.164062 Z M 33.75 12.164062 "/>
<path style=" stroke:none;fill-rule:nonzero;fill:rgb(11.372549%,43.921569%,96.862745%);fill-opacity:1;" d="M 14.535156 12.167969 C 12.230469 12.167969 10.375 14.023438 10.375 16.324219 C 10.375 17.085938 10.578125 17.792969 10.933594 18.40625 L 10.929688 18.402344 L 10.988281 18.496094 C 11.027344 18.558594 11.066406 18.625 11.109375 18.6875 L 16.613281 27.414062 L 16.613281 20.484375 L 21.464844 20.484375 C 23.769531 20.484375 25.625 18.628906 25.625 16.324219 C 25.625 14.019531 23.769531 12.164062 21.464844 12.164062 Z M 21.464844 13.554688 C 22.996094 13.554688 24.238281 14.792969 24.238281 16.324219 C 24.238281 17.855469 22.996094 19.097656 21.464844 19.097656 C 19.933594 19.097656 18.691406 17.855469 18.691406 16.324219 C 18.691406 14.792969 19.933594 13.554688 21.464844 13.554688 "/>
</g>
</svg>
