<?xml version="1.0" encoding="UTF-8"?>
<svg xmlns="http://www.w3.org/2000/svg" xmlns:xlink="http://www.w3.org/1999/xlink" width="36pt" height="36pt" viewBox="0 0 36 36" version="1.1">
<g id="surface1">
<path style=" stroke:none;fill-rule:evenodd;fill:rgb(74.901961%,60.392157%,40%);fill-opacity:1;" d="M 23.835938 2.25 L 8.476562 2.25 C 5.027344 2.25 2.25 5.027344 2.25 8.476562 L 2.25 27.523438 C 2.25 30.972656 5.027344 33.75 8.476562 33.75 L 27.523438 33.75 C 30.972656 33.75 33.75 30.972656 33.75 27.523438 L 33.75 12.164062 Z M 23.835938 2.25 "/>
<path style=" stroke:none;fill-rule:evenodd;fill:rgb(98.039216%,92.941176%,65.490196%);fill-opacity:1;" d="M 33.75 12.164062 L 23.835938 2.25 L 23.835938 5.9375 C 23.835938 9.386719 26.613281 12.164062 30.0625 12.164062 Z M 33.75 12.164062 "/>
<path style=" stroke:none;fill-rule:nonzero;fill:rgb(98.039216%,92.941176%,65.490196%);fill-opacity:1;" d="M 18 13.515625 C 16.757812 13.515625 15.75 14.527344 15.75 15.765625 L 15.75 20.265625 C 15.75 21.503906 16.757812 22.515625 18 22.515625 C 19.242188 22.515625 20.25 21.503906 20.25 20.265625 L 20.25 15.765625 C 20.25 14.527344 19.242188 13.515625 18 13.515625 Z M 18 14.640625 C 18.621094 14.640625 19.125 15.089844 19.125 15.765625 C 19.125 16.328125 18.621094 16.890625 18 16.890625 C 17.378906 16.890625 16.875 16.328125 16.875 15.765625 C 16.875 15.089844 17.378906 14.640625 18 14.640625 Z M 18 18.015625 C 18.621094 18.015625 19.125 18.519531 19.125 19.140625 L 19.125 20.265625 C 19.125 20.886719 18.621094 21.390625 18 21.390625 C 17.378906 21.390625 16.875 20.886719 16.875 20.265625 L 16.875 19.140625 C 16.875 18.519531 17.378906 18.015625 18 18.015625 Z M 18 18.015625 "/>
<path style=" stroke:none;fill-rule:nonzero;fill:rgb(98.039216%,92.941176%,65.490196%);fill-opacity:1;" d="M 16.875 2.265625 L 16.875 3.390625 L 18 3.390625 L 18 2.265625 Z M 16.875 4.515625 L 16.875 5.640625 L 18 5.640625 L 18 4.515625 Z M 16.875 6.765625 L 16.875 7.890625 L 18 7.890625 L 18 6.765625 Z M 16.875 9.015625 L 16.875 10.140625 L 18 10.140625 L 18 9.015625 Z M 16.875 11.265625 L 16.875 12.390625 L 18 12.390625 L 18 11.265625 Z M 16.875 11.265625 "/>
<path style=" stroke:none;fill-rule:nonzero;fill:rgb(98.039216%,92.941176%,65.490196%);fill-opacity:1;" d="M 18 3.390625 L 18 4.515625 L 19.125 4.515625 L 19.125 3.390625 Z M 18 5.640625 L 18 6.765625 L 19.125 6.765625 L 19.125 5.640625 Z M 18 7.890625 L 18 9.015625 L 19.125 9.015625 L 19.125 7.890625 Z M 18 10.140625 L 18 11.265625 L 19.125 11.265625 L 19.125 10.140625 Z M 18 12.390625 L 18 13.515625 L 19.125 13.515625 L 19.125 12.390625 Z M 18 12.390625 "/>
<path style=" stroke:none;fill-rule:nonzero;fill:rgb(98.039216%,92.941176%,65.490196%);fill-opacity:1;" d="M 6.992188 21.804688 C 5.875 21.804688 4.964844 22.714844 4.964844 23.835938 C 4.964844 24.953125 5.875 25.863281 6.992188 25.863281 C 7.324219 25.863281 7.648438 25.78125 7.9375 25.628906 L 9.964844 27.988281 C 9.878906 28.21875 9.832031 28.457031 9.832031 28.703125 C 9.832031 29.820312 10.742188 30.730469 11.859375 30.730469 C 12.847656 30.726562 13.691406 30.011719 13.855469 29.039062 L 17.195312 28.371094 C 17.417969 29.277344 18.226562 29.917969 19.160156 29.917969 C 20.28125 29.917969 21.191406 29.011719 21.191406 27.890625 C 21.191406 26.769531 20.28125 25.863281 19.160156 25.863281 C 18.171875 25.863281 17.332031 26.578125 17.164062 27.550781 L 13.828125 28.21875 C 13.605469 27.3125 12.792969 26.675781 11.859375 26.671875 C 11.320312 26.675781 10.800781 26.890625 10.421875 27.277344 L 8.566406 25.113281 C 8.859375 24.75 9.019531 24.300781 9.019531 23.835938 C 9.019531 22.714844 8.113281 21.804688 6.992188 21.804688 Z M 6.992188 21.804688 "/>
</g>
</svg>
