<?xml version="1.0" encoding="UTF-8"?>
<svg xmlns="http://www.w3.org/2000/svg" xmlns:xlink="http://www.w3.org/1999/xlink" width="36pt" height="36pt" viewBox="0 0 36 36" version="1.1">
<defs>
<filter id="alpha" filterUnits="objectBoundingBox" x="0%" y="0%" width="100%" height="100%">
  <feColorMatrix type="matrix" in="SourceGraphic" values="0 0 0 0 1 0 0 0 0 1 0 0 0 0 1 0 0 0 1 0"/>
</filter>
<mask id="mask0">
  <g filter="url(#alpha)">
<rect x="0" y="0" width="36" height="36" style="fill:rgb(0%,0%,0%);fill-opacity:0.901961;stroke:none;"/>
  </g>
</mask>
<clipPath id="clip1">
  <rect width="36" height="36"/>
</clipPath>
<g id="surface6" clip-path="url(#clip1)">
<path style=" stroke:none;fill-rule:evenodd;fill:rgb(100%,89.411765%,61.176471%);fill-opacity:1;" d="M 13.5 12.191406 L 13.5 15.566406 L 14.625 15.566406 L 14.625 17.421875 C 13.953125 17.660156 13.5 18.296875 13.5 19.011719 C 13.5 19.726562 13.953125 20.363281 14.625 20.601562 L 14.625 22.316406 L 13.5 22.316406 L 13.5 25.691406 L 16.875 25.691406 L 16.875 23.65625 C 18.355469 24.953125 20.382812 25.6875 22.5 25.691406 L 22.5 24.566406 C 19.484375 24.566406 16.835938 22.898438 16.007812 20.480469 C 16.542969 20.183594 16.875 19.621094 16.875 19.011719 C 16.875 18.386719 16.527344 17.816406 15.976562 17.523438 C 16.75 15.046875 19.429688 13.320312 22.5 13.316406 L 22.5 12.191406 C 20.382812 12.191406 18.355469 12.921875 16.875 14.21875 L 16.875 12.191406 Z M 14.625 13.316406 L 15.75 13.316406 L 15.75 14.441406 L 14.625 14.441406 Z M 14.625 23.441406 L 15.75 23.441406 L 15.75 24.566406 L 14.625 24.566406 Z M 14.625 23.441406 "/>
</g>
</defs>
<g id="surface1">
<path style=" stroke:none;fill-rule:evenodd;fill:rgb(99.607843%,77.254902%,14.509804%);fill-opacity:1;" d="M 23.835938 2.25 L 8.476562 2.25 C 5.027344 2.25 2.25 5.027344 2.25 8.476562 L 2.25 27.523438 C 2.25 30.972656 5.027344 33.75 8.476562 33.75 L 27.523438 33.75 C 30.972656 33.75 33.75 30.972656 33.75 27.523438 L 33.75 12.164062 Z M 23.835938 2.25 "/>
<path style=" stroke:none;fill-rule:evenodd;fill:rgb(100%,89.411765%,61.176471%);fill-opacity:1;" d="M 33.75 12.164062 L 23.835938 2.25 L 23.835938 5.9375 C 23.835938 9.386719 26.613281 12.164062 30.0625 12.164062 Z M 33.75 12.164062 "/>
<use xlink:href="#surface6" mask="url(#mask0)"/>
</g>
</svg>
