<?xml version="1.0" encoding="UTF-8"?>
<svg xmlns="http://www.w3.org/2000/svg" xmlns:xlink="http://www.w3.org/1999/xlink" width="36pt" height="36pt" viewBox="0 0 36 36" version="1.1">
<g id="surface1">
<path style=" stroke:none;fill-rule:evenodd;fill:rgb(12.156863%,67.058824%,95.686275%);fill-opacity:1;" d="M 23.835938 2.25 L 8.476562 2.25 C 5.027344 2.25 2.25 5.027344 2.25 8.476562 L 2.25 27.523438 C 2.25 30.972656 5.027344 33.75 8.476562 33.75 L 27.523438 33.75 C 30.972656 33.75 33.75 30.972656 33.75 27.523438 L 33.75 12.164062 Z M 23.835938 2.25 "/>
<path style=" stroke:none;fill-rule:evenodd;fill:rgb(87.45098%,93.72549%,99.607843%);fill-opacity:1;" d="M 33.75 12.164062 L 23.835938 2.25 L 23.835938 5.9375 C 23.835938 9.386719 26.613281 12.164062 30.0625 12.164062 Z M 33.75 12.164062 "/>
<path style=" stroke:none;fill-rule:nonzero;fill:rgb(87.45098%,93.72549%,99.607843%);fill-opacity:1;" d="M 9.722656 12.78125 L 9.722656 26.574219 L 26.277344 26.574219 L 26.277344 12.78125 Z M 12.050781 14.160156 L 23.949219 14.160156 L 18 20.109375 Z M 11.105469 15.109375 L 15.542969 19.546875 L 11.105469 23.339844 Z M 24.894531 15.109375 L 24.894531 23.339844 L 20.457031 19.546875 Z M 16.492188 20.496094 L 17.527344 21.53125 L 18 22.046875 L 18.472656 21.53125 L 19.507812 20.496094 L 24.894531 25.109375 L 24.894531 25.195312 L 11.105469 25.195312 L 11.105469 25.109375 Z M 16.492188 20.496094 "/>
</g>
</svg>
