<?xml version="1.0" encoding="UTF-8"?>
<svg xmlns="http://www.w3.org/2000/svg" xmlns:xlink="http://www.w3.org/1999/xlink" width="36pt" height="36pt" viewBox="0 0 36 36" version="1.1">
<g id="surface1">
<path style=" stroke:none;fill-rule:evenodd;fill:rgb(94.901961%,47.45098%,23.137255%);fill-opacity:1;" d="M 23.835938 2.25 L 8.476562 2.25 C 5.027344 2.25 2.25 5.027344 2.25 8.476562 L 2.25 27.523438 C 2.25 30.972656 5.027344 33.75 8.476562 33.75 L 27.523438 33.75 C 30.972656 33.75 33.75 30.972656 33.75 27.523438 L 33.75 12.164062 Z M 23.835938 2.25 "/>
<path style=" stroke:none;fill-rule:evenodd;fill:rgb(98.039216%,77.647059%,68.235294%);fill-opacity:1;" d="M 33.75 12.164062 L 23.835938 2.25 L 23.835938 5.9375 C 23.835938 9.386719 26.613281 12.164062 30.0625 12.164062 Z M 33.75 12.164062 "/>
<path style=" stroke:none;fill-rule:nonzero;fill:rgb(98.039216%,77.647059%,68.235294%);fill-opacity:1;" d="M 11.683594 11.835938 L 10.628906 12.863281 L 14.519531 16.984375 L 10.65625 21.132812 L 11.710938 22.15625 L 16.046875 17.496094 L 16.527344 16.984375 L 16.046875 16.472656 Z M 16.527344 25.105469 L 16.527344 26.582031 L 25.371094 26.582031 L 25.371094 25.105469 Z M 16.527344 25.105469 "/>
</g>
</svg>
