<?xml version="1.0" encoding="UTF-8"?>
<svg xmlns="http://www.w3.org/2000/svg" xmlns:xlink="http://www.w3.org/1999/xlink" width="36pt" height="36pt" viewBox="0 0 36 36" version="1.1">
<g id="surface1">
<path style=" stroke:none;fill-rule:evenodd;fill:rgb(24.313725%,31.372549%,70.588235%);fill-opacity:1;" d="M 23.835938 2.25 L 8.476562 2.25 C 5.027344 2.25 2.25 5.027344 2.25 8.476562 L 2.25 27.523438 C 2.25 30.972656 5.027344 33.75 8.476562 33.75 L 27.523438 33.75 C 30.972656 33.75 33.75 30.972656 33.75 27.523438 L 33.75 12.164062 Z M 23.835938 2.25 "/>
<path style=" stroke:none;fill-rule:evenodd;fill:rgb(20%,25.882353%,58.039216%);fill-opacity:1;" d="M 33.75 12.164062 L 23.835938 2.25 L 23.835938 5.9375 C 23.835938 9.386719 26.613281 12.164062 30.0625 12.164062 Z M 33.75 12.164062 "/>
<path style=" stroke:none;fill-rule:nonzero;fill:rgb(58.039216%,67.45098%,84.705882%);fill-opacity:1;" d="M 23.976562 11.554688 C 22.878906 11.554688 21.984375 12.445312 21.984375 13.546875 C 21.984375 14.648438 22.878906 15.539062 23.976562 15.539062 C 25.078125 15.539062 25.96875 14.648438 25.96875 13.546875 C 25.96875 12.445312 25.078125 11.554688 23.976562 11.554688 Z M 16.671875 14.210938 C 13.003906 14.210938 10.03125 17.1875 10.03125 20.855469 C 10.03125 24.523438 13.003906 27.496094 16.671875 27.496094 C 20.339844 27.496094 23.3125 24.523438 23.3125 20.855469 C 23.3125 17.1875 20.339844 14.210938 16.671875 14.210938 Z M 18.664062 16.867188 C 19.765625 16.867188 20.65625 17.761719 20.65625 18.859375 C 20.65625 19.960938 19.765625 20.855469 18.664062 20.855469 C 17.5625 20.855469 16.671875 19.960938 16.671875 18.859375 C 16.671875 17.761719 17.5625 16.867188 18.664062 16.867188 Z M 18.664062 16.867188 "/>
</g>
</svg>
