<?xml version="1.0" encoding="UTF-8"?>
<svg xmlns="http://www.w3.org/2000/svg" xmlns:xlink="http://www.w3.org/1999/xlink" width="36pt" height="36pt" viewBox="0 0 36 36" version="1.1">
<g id="surface1">
<path style=" stroke:none;fill-rule:evenodd;fill:rgb(86.27451%,40.784314%,16.470588%);fill-opacity:1;" d="M 23.835938 2.25 L 8.476562 2.25 C 5.027344 2.25 2.25 5.027344 2.25 8.476562 L 2.25 27.523438 C 2.25 30.972656 5.027344 33.75 8.476562 33.75 L 27.523438 33.75 C 30.972656 33.75 33.75 30.972656 33.75 27.523438 L 33.75 12.164062 Z M 23.835938 2.25 "/>
<path style=" stroke:none;fill-rule:evenodd;fill:rgb(70.980392%,33.72549%,13.72549%);fill-opacity:1;" d="M 33.75 12.164062 L 23.835938 2.25 L 23.835938 5.9375 C 23.835938 9.386719 26.613281 12.164062 30.0625 12.164062 Z M 33.75 12.164062 "/>
<path style=" stroke:none;fill-rule:nonzero;fill:rgb(100%,76.470588%,56.470588%);fill-opacity:1;" d="M 11.25 23.054688 L 9 23.054688 L 9 25.304688 L 16.875 25.304688 L 16.875 23.054688 L 14.625 23.054688 L 14.625 20.804688 L 15.75 20.804688 C 18 20.804688 18 25.304688 20.25 25.304688 L 24.75 25.304688 C 27 25.304688 27 20.804688 27 20.804688 L 24.1875 20.804688 C 24.1875 20.804688 24.75 23.054688 22.5 23.054688 C 21.375 23.054688 20.25 20.804688 20.25 20.804688 L 20.8125 20.804688 C 22.679688 20.804688 24.1875 19.339844 24.1875 17.429688 C 24.1875 15.515625 22.679688 14.054688 20.8125 14.054688 L 9 14.054688 L 9 16.304688 L 11.25 16.304688 M 19.6875 16.304688 C 20.304688 16.304688 20.8125 16.753906 20.8125 17.429688 C 20.8125 18.101562 20.304688 18.554688 19.6875 18.554688 L 14.625 18.554688 L 14.625 16.304688 "/>
</g>
</svg>
