<?xml version="1.0" encoding="UTF-8"?>
<svg xmlns="http://www.w3.org/2000/svg" xmlns:xlink="http://www.w3.org/1999/xlink" width="36pt" height="36pt" viewBox="0 0 36 36" version="1.1">
<g id="surface1">
<path style=" stroke:none;fill-rule:evenodd;fill:rgb(85.098039%,16.862745%,10.196078%);fill-opacity:1;" d="M 23.835938 2.25 L 8.476562 2.25 C 5.027344 2.25 2.25 5.027344 2.25 8.476562 L 2.25 27.523438 C 2.25 30.972656 5.027344 33.75 8.476562 33.75 L 27.523438 33.75 C 30.972656 33.75 33.75 30.972656 33.75 27.523438 L 33.75 12.164062 Z M 23.835938 2.25 "/>
<path style=" stroke:none;fill-rule:evenodd;fill:rgb(70.196078%,13.72549%,8.235294%);fill-opacity:1;" d="M 33.75 12.164062 L 23.835938 2.25 L 23.835938 5.9375 C 23.835938 9.386719 26.613281 12.164062 30.0625 12.164062 Z M 33.75 12.164062 "/>
<path style=" stroke:none;fill-rule:nonzero;fill:rgb(100%,61.568627%,42.745098%);fill-opacity:1;" d="M 23.964844 11.769531 L 12.035156 14.753906 L 12.035156 17.734375 L 23.964844 14.753906 Z M 23.964844 16.542969 L 12.035156 19.527344 L 12.035156 22.507812 L 23.964844 19.527344 Z M 23.964844 21.316406 L 12.035156 24.296875 L 12.035156 27.28125 L 23.964844 24.296875 Z M 23.964844 21.316406 "/>
</g>
</svg>
