<?xml version="1.0" encoding="UTF-8"?>
<svg xmlns="http://www.w3.org/2000/svg" xmlns:xlink="http://www.w3.org/1999/xlink" width="36pt" height="36pt" viewBox="0 0 36 36" version="1.1">
<g id="surface1">
<path style=" stroke:none;fill-rule:evenodd;fill:rgb(56.862745%,28.627451%,68.627451%);fill-opacity:1;" d="M 23.835938 2.25 L 8.476562 2.25 C 5.027344 2.25 2.25 5.027344 2.25 8.476562 L 2.25 27.523438 C 2.25 30.972656 5.027344 33.75 8.476562 33.75 L 27.523438 33.75 C 30.972656 33.75 33.75 30.972656 33.75 27.523438 L 33.75 12.164062 Z M 23.835938 2.25 "/>
<path style=" stroke:none;fill-rule:evenodd;fill:rgb(88.627451%,81.960784%,89.803922%);fill-opacity:1;" d="M 33.75 12.164062 L 23.835938 2.25 L 23.835938 5.9375 C 23.835938 9.386719 26.613281 12.164062 30.0625 12.164062 Z M 33.75 12.164062 "/>
<path style=" stroke:none;fill-rule:evenodd;fill:rgb(89.411765%,83.137255%,90.980392%);fill-opacity:1;" d="M 11.507812 12.316406 L 11.507812 25.832031 L 16.175781 25.832031 L 16.175781 21.40625 L 16.675781 21.40625 C 16.695312 21.425781 16.753906 21.472656 16.808594 21.515625 C 17.199219 22.050781 17.671875 23.039062 18.023438 23.886719 C 18.378906 24.746094 18.621094 25.453125 18.621094 25.453125 L 18.75 25.835938 L 24.492188 25.835938 L 22.011719 20.902344 C 22.011719 20.902344 21.90625 20.664062 21.695312 20.4375 C 21.582031 20.3125 21.488281 20.28125 21.378906 20.207031 C 22.21875 19.585938 23.183594 18.566406 23.257812 16.4375 L 23.257812 16.398438 C 23.195312 14.664062 22.246094 13.566406 21.25 13 C 20.253906 12.429688 19.257812 12.316406 18.78125 12.316406 Z M 18.332031 16.09375 C 18.332031 16.09375 18.335938 16.089844 18.390625 16.125 C 18.441406 16.160156 18.589844 16.261719 18.589844 16.859375 C 18.589844 17.417969 18.449219 17.53125 18.378906 17.582031 C 18.308594 17.632812 18.289062 17.628906 18.289062 17.628906 L 16.175781 17.628906 L 16.175781 16.097656 L 18.300781 16.097656 Z M 18.332031 16.09375 "/>
</g>
</svg>
