<?xml version="1.0" encoding="UTF-8"?>
<svg xmlns="http://www.w3.org/2000/svg" xmlns:xlink="http://www.w3.org/1999/xlink" width="36pt" height="36pt" viewBox="0 0 36 36" version="1.1">
<g id="surface1">
<path style=" stroke:none;fill-rule:evenodd;fill:rgb(80%,80%,80%);fill-opacity:1;" d="M 23.835938 2.25 L 8.476562 2.25 C 5.027344 2.25 2.25 5.027344 2.25 8.476562 L 2.25 27.523438 C 2.25 30.972656 5.027344 33.75 8.476562 33.75 L 27.523438 33.75 C 30.972656 33.75 33.75 30.972656 33.75 27.523438 L 33.75 12.164062 Z M 23.835938 2.25 "/>
<path style=" stroke:none;fill-rule:evenodd;fill:rgb(60%,60%,60%);fill-opacity:1;" d="M 33.75 12.164062 L 23.835938 2.25 L 23.835938 5.9375 C 23.835938 9.386719 26.613281 12.164062 30.0625 12.164062 Z M 33.75 12.164062 "/>
<path style=" stroke:none;fill-rule:nonzero;fill:rgb(50.196078%,50.196078%,50.196078%);fill-opacity:1;" d="M 9.835938 7.714844 C 9.542969 7.714844 9.304688 7.949219 9.304688 8.242188 L 9.304688 11.421875 C 9.304688 11.714844 9.542969 11.953125 9.835938 11.953125 L 11.953125 11.953125 C 12.246094 11.953125 12.484375 11.714844 12.484375 11.421875 L 12.484375 8.242188 C 12.484375 7.949219 12.246094 7.714844 11.953125 7.714844 Z M 14.867188 7.714844 C 14.722656 7.714844 14.601562 7.832031 14.601562 7.976562 L 14.601562 11.6875 C 14.601562 11.832031 14.722656 11.953125 14.867188 11.953125 L 15.398438 11.953125 C 15.546875 11.953125 15.664062 11.832031 15.664062 11.6875 L 15.664062 7.976562 C 15.664062 7.832031 15.546875 7.714844 15.398438 7.714844 Z M 16.988281 7.714844 C 16.839844 7.714844 16.722656 7.832031 16.722656 7.976562 L 16.722656 11.6875 C 16.722656 11.832031 16.839844 11.953125 16.988281 11.953125 L 17.515625 11.953125 C 17.664062 11.953125 17.78125 11.832031 17.78125 11.6875 L 17.78125 7.976562 C 17.78125 7.832031 17.664062 7.714844 17.515625 7.714844 Z M 19.371094 7.714844 C 19.078125 7.714844 18.839844 7.949219 18.839844 8.242188 L 18.839844 11.421875 C 18.839844 11.714844 19.078125 11.953125 19.371094 11.953125 L 21.492188 11.953125 C 21.785156 11.953125 22.019531 11.714844 22.019531 11.421875 L 22.019531 8.242188 C 22.019531 7.949219 21.785156 7.714844 21.492188 7.714844 Z M 10.363281 8.773438 L 11.425781 8.773438 L 11.425781 10.890625 L 10.363281 10.890625 Z M 19.902344 8.773438 L 20.960938 8.773438 L 20.960938 10.890625 L 19.902344 10.890625 Z M 10.628906 14.070312 C 10.484375 14.070312 10.363281 14.1875 10.363281 14.335938 L 10.363281 18.042969 C 10.363281 18.191406 10.484375 18.308594 10.628906 18.308594 L 11.160156 18.308594 C 11.304688 18.308594 11.425781 18.191406 11.425781 18.042969 L 11.425781 14.335938 C 11.425781 14.1875 11.304688 14.070312 11.160156 14.070312 Z M 14.074219 14.070312 C 13.78125 14.070312 13.542969 14.308594 13.542969 14.601562 L 13.542969 17.78125 C 13.542969 18.074219 13.78125 18.308594 14.074219 18.308594 L 16.191406 18.308594 C 16.484375 18.308594 16.722656 18.074219 16.722656 17.78125 L 16.722656 14.601562 C 16.722656 14.308594 16.484375 14.070312 16.191406 14.070312 Z M 19.105469 14.070312 C 18.960938 14.070312 18.839844 14.1875 18.839844 14.335938 L 18.839844 18.042969 C 18.839844 18.191406 18.960938 18.308594 19.105469 18.308594 L 19.636719 18.308594 C 19.785156 18.308594 19.902344 18.191406 19.902344 18.042969 L 19.902344 14.335938 C 19.902344 14.1875 19.785156 14.070312 19.636719 14.070312 Z M 21.226562 14.070312 C 21.078125 14.070312 20.960938 14.1875 20.960938 14.335938 L 20.960938 18.042969 C 20.960938 18.191406 21.078125 18.308594 21.226562 18.308594 L 21.753906 18.308594 C 21.902344 18.308594 22.019531 18.191406 22.019531 18.042969 L 22.019531 14.335938 C 22.019531 14.1875 21.902344 14.070312 21.753906 14.070312 Z M 23.609375 14.070312 C 23.316406 14.070312 23.082031 14.308594 23.082031 14.601562 L 23.082031 17.78125 C 23.082031 18.074219 23.316406 18.308594 23.609375 18.308594 L 25.730469 18.308594 C 26.023438 18.308594 26.257812 18.074219 26.257812 17.78125 L 26.257812 14.601562 C 26.257812 14.308594 26.023438 14.070312 25.730469 14.070312 Z M 14.601562 15.128906 L 15.664062 15.128906 L 15.664062 17.25 L 14.601562 17.25 Z M 24.140625 15.128906 L 25.199219 15.128906 L 25.199219 17.25 L 24.140625 17.25 Z M 9.835938 19.367188 C 9.542969 19.367188 9.304688 19.605469 9.304688 19.898438 L 9.304688 23.078125 C 9.304688 23.371094 9.542969 23.605469 9.835938 23.605469 L 11.953125 23.605469 C 12.246094 23.605469 12.484375 23.371094 12.484375 23.078125 L 12.484375 19.898438 C 12.484375 19.605469 12.246094 19.367188 11.953125 19.367188 Z M 14.074219 19.367188 C 13.78125 19.367188 13.542969 19.605469 13.542969 19.898438 L 13.542969 23.078125 C 13.542969 23.371094 13.78125 23.605469 14.074219 23.605469 L 16.191406 23.605469 C 16.484375 23.605469 16.722656 23.371094 16.722656 23.078125 L 16.722656 19.898438 C 16.722656 19.605469 16.484375 19.367188 16.191406 19.367188 Z M 19.105469 19.367188 C 18.960938 19.367188 18.839844 19.488281 18.839844 19.632812 L 18.839844 23.34375 C 18.839844 23.488281 18.960938 23.605469 19.105469 23.605469 L 19.636719 23.605469 C 19.785156 23.605469 19.902344 23.488281 19.902344 23.34375 L 19.902344 19.632812 C 19.902344 19.488281 19.785156 19.367188 19.636719 19.367188 Z M 21.226562 19.367188 C 21.078125 19.367188 20.960938 19.488281 20.960938 19.632812 L 20.960938 23.34375 C 20.960938 23.488281 21.078125 23.605469 21.226562 23.605469 L 21.753906 23.605469 C 21.902344 23.605469 22.019531 23.488281 22.019531 23.34375 L 22.019531 19.632812 C 22.019531 19.488281 21.902344 19.367188 21.753906 19.367188 Z M 23.609375 19.367188 C 23.316406 19.367188 23.082031 19.605469 23.082031 19.898438 L 23.082031 23.078125 C 23.082031 23.371094 23.316406 23.605469 23.609375 23.605469 L 25.730469 23.605469 C 26.023438 23.605469 26.257812 23.371094 26.257812 23.078125 L 26.257812 19.898438 C 26.257812 19.605469 26.023438 19.367188 25.730469 19.367188 Z M 10.363281 20.429688 L 11.425781 20.429688 L 11.425781 22.546875 L 10.363281 22.546875 Z M 14.601562 20.429688 L 15.664062 20.429688 L 15.664062 22.546875 L 14.601562 22.546875 Z M 24.140625 20.429688 L 25.199219 20.429688 L 25.199219 22.546875 L 24.140625 22.546875 Z M 9.835938 25.726562 C 9.542969 25.726562 9.304688 25.960938 9.304688 26.257812 L 9.304688 29.433594 C 9.304688 29.730469 9.542969 29.964844 9.835938 29.964844 L 11.953125 29.964844 C 12.246094 29.964844 12.484375 29.730469 12.484375 29.433594 L 12.484375 26.257812 C 12.484375 25.960938 12.246094 25.726562 11.953125 25.726562 Z M 14.867188 25.726562 C 14.722656 25.726562 14.601562 25.84375 14.601562 25.992188 L 14.601562 29.699219 C 14.601562 29.847656 14.722656 29.964844 14.867188 29.964844 L 15.398438 29.964844 C 15.546875 29.964844 15.664062 29.847656 15.664062 29.699219 L 15.664062 25.992188 C 15.664062 25.84375 15.546875 25.726562 15.398438 25.726562 Z M 16.988281 25.726562 C 16.839844 25.726562 16.722656 25.84375 16.722656 25.992188 L 16.722656 29.699219 C 16.722656 29.847656 16.839844 29.964844 16.988281 29.964844 L 17.515625 29.964844 C 17.664062 29.964844 17.78125 29.847656 17.78125 29.699219 L 17.78125 25.992188 C 17.78125 25.84375 17.664062 25.726562 17.515625 25.726562 Z M 19.371094 25.726562 C 19.078125 25.726562 18.839844 25.960938 18.839844 26.257812 L 18.839844 29.433594 C 18.839844 29.730469 19.078125 29.964844 19.371094 29.964844 L 21.492188 29.964844 C 21.785156 29.964844 22.019531 29.730469 22.019531 29.433594 L 22.019531 26.257812 C 22.019531 25.960938 21.785156 25.726562 21.492188 25.726562 Z M 24.40625 25.726562 C 24.257812 25.726562 24.140625 25.84375 24.140625 25.992188 L 24.140625 29.699219 C 24.140625 29.847656 24.257812 29.964844 24.40625 29.964844 L 24.933594 29.964844 C 25.082031 29.964844 25.199219 29.847656 25.199219 29.699219 L 25.199219 25.992188 C 25.199219 25.84375 25.082031 25.726562 24.933594 25.726562 Z M 10.363281 26.785156 L 11.425781 26.785156 L 11.425781 28.90625 L 10.363281 28.90625 Z M 19.902344 26.785156 L 20.960938 26.785156 L 20.960938 28.90625 L 19.902344 28.90625 Z M 19.902344 26.785156 "/>
</g>
</svg>
