<?xml version="1.0" encoding="UTF-8"?>
<svg xmlns="http://www.w3.org/2000/svg" xmlns:xlink="http://www.w3.org/1999/xlink" width="36pt" height="36pt" viewBox="0 0 36 36" version="1.1">
<g id="surface1">
<path style=" stroke:none;fill-rule:evenodd;fill:rgb(81.960784%,2.745098%,6.666667%);fill-opacity:1;" d="M 23.835938 2.25 L 8.476562 2.25 C 5.027344 2.25 2.25 5.027344 2.25 8.476562 L 2.25 27.523438 C 2.25 30.972656 5.027344 33.75 8.476562 33.75 L 27.523438 33.75 C 30.972656 33.75 33.75 30.972656 33.75 27.523438 L 33.75 12.164062 Z M 23.835938 2.25 "/>
<path style=" stroke:none;fill-rule:evenodd;fill:rgb(98.823529%,63.137255%,64.313725%);fill-opacity:1;" d="M 33.75 12.164062 L 23.835938 2.25 L 23.835938 5.9375 C 23.835938 9.386719 26.613281 12.164062 30.0625 12.164062 Z M 33.75 12.164062 "/>
<path style=" stroke:none;fill-rule:nonzero;fill:rgb(98.823529%,73.72549%,74.509804%);fill-opacity:1;" d="M 11.25 12.59375 L 11.25 26.09375 L 24.75 26.09375 L 24.75 12.59375 Z M 12.375 13.71875 L 23.625 13.71875 L 23.625 24.96875 L 12.375 24.96875 Z M 13.5 15.96875 L 13.5 18.21875 L 15.75 18.21875 L 15.75 15.96875 Z M 20.25 15.96875 L 20.25 18.21875 L 22.5 18.21875 L 22.5 15.96875 Z M 15.75 20.46875 L 15.75 21.59375 L 20.25 21.59375 L 20.25 20.46875 Z M 20.25 21.59375 L 20.25 22.71875 L 21.375 22.71875 L 21.375 21.59375 Z M 21.375 22.71875 L 21.375 23.84375 L 22.5 23.84375 L 22.5 22.71875 Z M 15.75 21.59375 L 14.625 21.59375 L 14.625 22.71875 L 15.75 22.71875 Z M 14.625 22.71875 L 13.5 22.71875 L 13.5 23.84375 L 14.625 23.84375 Z M 14.625 22.71875 "/>
</g>
</svg>
