<?xml version="1.0" encoding="UTF-8"?>
<svg xmlns="http://www.w3.org/2000/svg" xmlns:xlink="http://www.w3.org/1999/xlink" width="36pt" height="36pt" viewBox="0 0 36 36" version="1.1">
<g id="surface1">
<path style=" stroke:none;fill-rule:evenodd;fill:rgb(80%,80%,80%);fill-opacity:1;" d="M 23.835938 2.25 L 8.476562 2.25 C 5.027344 2.25 2.25 5.027344 2.25 8.476562 L 2.25 27.523438 C 2.25 30.972656 5.027344 33.75 8.476562 33.75 L 27.523438 33.75 C 30.972656 33.75 33.75 30.972656 33.75 27.523438 L 33.75 12.164062 Z M 23.835938 2.25 "/>
<path style=" stroke:none;fill-rule:evenodd;fill:rgb(60%,60%,60%);fill-opacity:1;" d="M 33.75 12.164062 L 23.835938 2.25 L 23.835938 5.9375 C 23.835938 9.386719 26.613281 12.164062 30.0625 12.164062 Z M 33.75 12.164062 "/>
<path style=" stroke:none;fill-rule:nonzero;fill:rgb(60%,60%,60%);fill-opacity:1;" d="M 9.417969 9.417969 L 14.066406 18 L 9.417969 26.582031 L 12.28125 26.582031 L 16.925781 18 L 12.28125 9.417969 Z M 13.710938 9.417969 L 18.359375 18 L 13.710938 26.582031 L 16.570312 26.582031 L 19.789062 20.644531 L 23.003906 26.582031 L 25.867188 26.582031 L 16.570312 9.417969 Z M 21.097656 15.140625 L 22.261719 17.285156 L 26.582031 17.285156 L 26.582031 15.140625 Z M 23.035156 18.714844 L 24.199219 20.859375 L 26.582031 20.859375 L 26.582031 18.714844 Z M 23.035156 18.714844 "/>
</g>
</svg>
