<?xml version="1.0" encoding="UTF-8"?>
<svg xmlns="http://www.w3.org/2000/svg" xmlns:xlink="http://www.w3.org/1999/xlink" width="36pt" height="36pt" viewBox="0 0 36 36" version="1.1">
<defs>
<clipPath id="clip1">
  <rect width="36" height="36"/>
</clipPath>
<g id="surface6" clip-path="url(#clip1)">
<path style=" stroke:none;fill-rule:evenodd;fill:rgb(96.862745%,85.490196%,90.196078%);fill-opacity:1;" d="M 15.652344 23.894531 C 15.652344 23.894531 14.957031 24.324219 16.148438 24.46875 C 17.597656 24.644531 18.335938 24.617188 19.925781 24.296875 C 19.925781 24.296875 20.347656 24.578125 20.933594 24.816406 C 17.359375 26.441406 12.847656 24.722656 15.652344 23.890625 Z M 15.652344 23.894531 "/>
<path style=" stroke:none;fill-rule:evenodd;fill:rgb(96.862745%,85.490196%,90.196078%);fill-opacity:1;" d="M 15.214844 21.773438 C 15.214844 21.773438 14.433594 22.386719 15.628906 22.519531 C 17.175781 22.6875 18.394531 22.703125 20.503906 22.273438 C 20.503906 22.273438 20.796875 22.585938 21.253906 22.757812 C 16.9375 24.097656 12.128906 22.863281 15.214844 21.773438 Z M 15.214844 21.773438 "/>
<path style=" stroke:none;fill-rule:evenodd;fill:rgb(96.862745%,85.490196%,90.196078%);fill-opacity:1;" d="M 18.894531 18.183594 C 19.777344 19.257812 18.664062 20.222656 18.664062 20.222656 C 18.664062 20.222656 20.898438 19 19.875 17.46875 C 18.914062 16.039062 18.179688 15.332031 22.160156 12.882812 C 22.160156 12.882812 15.914062 14.539062 18.894531 18.183594 Z M 18.894531 18.183594 "/>
<path style=" stroke:none;fill-rule:evenodd;fill:rgb(96.862745%,85.490196%,90.196078%);fill-opacity:1;" d="M 23.621094 25.460938 C 23.621094 25.460938 24.136719 25.910156 23.050781 26.257812 C 20.992188 26.921875 14.472656 27.121094 12.660156 26.285156 C 12.007812 25.984375 13.230469 25.566406 13.613281 25.480469 C 14.015625 25.386719 14.242188 25.40625 14.242188 25.40625 C 13.519531 24.863281 9.5625 26.46875 12.234375 26.925781 C 19.515625 28.179688 25.507812 26.363281 23.621094 25.460938 Z M 23.621094 25.460938 "/>
<path style=" stroke:none;fill-rule:evenodd;fill:rgb(96.862745%,85.490196%,90.196078%);fill-opacity:1;" d="M 15.988281 19.582031 C 15.988281 19.582031 12.671875 20.414062 14.8125 20.71875 C 15.71875 20.847656 17.519531 20.816406 19.199219 20.667969 C 20.574219 20.546875 21.949219 20.285156 21.949219 20.285156 C 21.949219 20.285156 21.46875 20.503906 21.117188 20.757812 C 17.75 21.699219 11.246094 21.261719 13.117188 20.300781 C 14.699219 19.488281 15.988281 19.582031 15.988281 19.582031 Z M 15.988281 19.582031 "/>
<path style=" stroke:none;fill-rule:evenodd;fill:rgb(96.862745%,85.490196%,90.196078%);fill-opacity:1;" d="M 21.9375 23.105469 C 25.359375 21.21875 23.777344 19.40625 22.671875 19.652344 C 22.402344 19.710938 22.28125 19.761719 22.28125 19.761719 C 22.28125 19.761719 22.382812 19.597656 22.574219 19.523438 C 24.757812 18.710938 26.441406 21.925781 21.867188 23.199219 C 21.867188 23.199219 21.921875 23.148438 21.9375 23.105469 Z M 21.9375 23.105469 "/>
<path style=" stroke:none;fill-rule:evenodd;fill:rgb(96.862745%,85.490196%,90.196078%);fill-opacity:1;" d="M 19.875 8.933594 C 19.875 8.933594 21.769531 10.945312 18.074219 14.035156 C 15.113281 16.515625 17.398438 17.929688 18.074219 19.546875 C 16.34375 17.890625 15.078125 16.433594 15.925781 15.082031 C 17.175781 13.089844 20.636719 12.125 19.875 8.933594 Z M 19.875 8.933594 "/>
<path style=" stroke:none;fill-rule:evenodd;fill:rgb(96.862745%,85.490196%,90.196078%);fill-opacity:1;" d="M 16.324219 28.214844 C 19.609375 28.4375 24.65625 28.09375 24.777344 26.445312 C 24.777344 26.445312 24.546875 27.070312 22.0625 27.566406 C 19.257812 28.125 15.796875 28.058594 13.746094 27.699219 C 13.746094 27.699219 14.164062 28.070312 16.324219 28.214844 Z M 16.324219 28.214844 "/>
</g>
</defs>
<g id="surface1">
<path style=" stroke:none;fill-rule:evenodd;fill:rgb(90.588235%,29.803922%,23.529412%);fill-opacity:1;" d="M 23.835938 2.25 L 8.476562 2.25 C 5.027344 2.25 2.25 5.027344 2.25 8.476562 L 2.25 27.523438 C 2.25 30.972656 5.027344 33.75 8.476562 33.75 L 27.523438 33.75 C 30.972656 33.75 33.75 30.972656 33.75 27.523438 L 33.75 12.164062 Z M 23.835938 2.25 "/>
<path style=" stroke:none;fill-rule:evenodd;fill:rgb(66.27451%,23.137255%,15.294118%);fill-opacity:1;" d="M 33.75 12.164062 L 23.835938 2.25 L 23.835938 5.9375 C 23.835938 9.386719 26.613281 12.164062 30.0625 12.164062 Z M 33.75 12.164062 "/>
<use xlink:href="#surface6"/>
</g>
</svg>
