<?xml version="1.0" encoding="UTF-8"?>
<svg xmlns="http://www.w3.org/2000/svg" xmlns:xlink="http://www.w3.org/1999/xlink" width="36pt" height="36pt" viewBox="0 0 36 36" version="1.1">
<defs>
<filter id="alpha" filterUnits="objectBoundingBox" x="0%" y="0%" width="100%" height="100%">
  <feColorMatrix type="matrix" in="SourceGraphic" values="0 0 0 0 1 0 0 0 0 1 0 0 0 0 1 0 0 0 1 0"/>
</filter>
<mask id="mask0">
  <g filter="url(#alpha)">
<rect x="0" y="0" width="36" height="36" style="fill:rgb(0%,0%,0%);fill-opacity:0.74902;stroke:none;"/>
  </g>
</mask>
<clipPath id="clip1">
  <rect width="36" height="36"/>
</clipPath>
<g id="surface6" clip-path="url(#clip1)">
<path style=" stroke:none;fill-rule:nonzero;fill:rgb(100%,100%,100%);fill-opacity:1;" d="M 12.375 15.355469 L 12.375 18.730469 L 9 18.730469 L 9 19.855469 L 12.375 19.855469 L 12.375 23.230469 L 13.5 23.230469 L 13.5 19.855469 L 16.875 19.855469 L 16.875 18.730469 L 13.5 18.730469 L 13.5 15.355469 Z M 12.375 15.355469 "/>
</g>
<mask id="mask1">
  <g filter="url(#alpha)">
<rect x="0" y="0" width="36" height="36" style="fill:rgb(0%,0%,0%);fill-opacity:0.74902;stroke:none;"/>
  </g>
</mask>
<clipPath id="clip2">
  <rect width="36" height="36"/>
</clipPath>
<g id="surface9" clip-path="url(#clip2)">
<path style=" stroke:none;fill-rule:nonzero;fill:rgb(100%,100%,100%);fill-opacity:1;" d="M 22.5 15.355469 L 22.5 18.730469 L 19.125 18.730469 L 19.125 19.855469 L 22.5 19.855469 L 22.5 23.230469 L 23.625 23.230469 L 23.625 19.855469 L 27 19.855469 L 27 18.730469 L 23.625 18.730469 L 23.625 15.355469 Z M 22.5 15.355469 "/>
</g>
</defs>
<g id="surface1">
<path style=" stroke:none;fill-rule:evenodd;fill:rgb(56.862745%,23.921569%,53.333333%);fill-opacity:1;" d="M 23.835938 2.25 L 8.476562 2.25 C 5.027344 2.25 2.25 5.027344 2.25 8.476562 L 2.25 27.523438 C 2.25 30.972656 5.027344 33.75 8.476562 33.75 L 27.523438 33.75 C 30.972656 33.75 33.75 30.972656 33.75 27.523438 L 33.75 12.164062 Z M 23.835938 2.25 "/>
<path style=" stroke:none;fill-rule:evenodd;fill:rgb(78.431373%,61.960784%,76.862745%);fill-opacity:1;" d="M 33.75 12.164062 L 23.835938 2.25 L 23.835938 5.9375 C 23.835938 9.386719 26.613281 12.164062 30.0625 12.164062 Z M 33.75 12.164062 "/>
<use xlink:href="#surface6" mask="url(#mask0)"/>
<use xlink:href="#surface9" mask="url(#mask1)"/>
</g>
</svg>
