<?xml version="1.0" encoding="UTF-8"?>
<svg xmlns="http://www.w3.org/2000/svg" xmlns:xlink="http://www.w3.org/1999/xlink" width="36pt" height="36pt" viewBox="0 0 36 36" version="1.1">
<g id="surface1">
<path style=" stroke:none;fill-rule:evenodd;fill:rgb(80%,80%,80%);fill-opacity:1;" d="M 23.835938 2.25 L 8.476562 2.25 C 5.027344 2.25 2.25 5.027344 2.25 8.476562 L 2.25 27.523438 C 2.25 30.972656 5.027344 33.75 8.476562 33.75 L 27.523438 33.75 C 30.972656 33.75 33.75 30.972656 33.75 27.523438 L 33.75 12.164062 Z M 23.835938 2.25 "/>
<path style=" stroke:none;fill-rule:evenodd;fill:rgb(60%,60%,60%);fill-opacity:1;" d="M 33.75 12.164062 L 23.835938 2.25 L 23.835938 5.9375 C 23.835938 9.386719 26.613281 12.164062 30.0625 12.164062 Z M 33.75 12.164062 "/>
<path style=" stroke:none;fill-rule:evenodd;fill:rgb(60%,60%,60%);fill-opacity:1;" d="M 11.683594 12.460938 L 11.683594 25.976562 L 16.351562 25.976562 L 16.351562 21.554688 L 16.847656 21.554688 C 16.871094 21.570312 16.929688 21.617188 16.984375 21.664062 C 17.375 22.195312 17.847656 23.183594 18.199219 24.03125 C 18.554688 24.890625 18.796875 25.597656 18.796875 25.597656 L 18.925781 25.980469 L 24.667969 25.980469 L 22.1875 21.046875 C 22.1875 21.046875 22.082031 20.808594 21.871094 20.582031 C 21.753906 20.460938 21.664062 20.425781 21.554688 20.351562 C 22.394531 19.730469 23.359375 18.710938 23.429688 16.585938 L 23.429688 16.546875 C 23.371094 14.8125 22.417969 13.710938 21.421875 13.144531 C 20.425781 12.578125 19.433594 12.460938 18.957031 12.460938 Z M 18.507812 16.238281 C 18.507812 16.238281 18.511719 16.234375 18.566406 16.269531 C 18.617188 16.308594 18.765625 16.410156 18.765625 17.007812 C 18.765625 17.566406 18.625 17.675781 18.554688 17.726562 C 18.484375 17.777344 18.464844 17.773438 18.464844 17.773438 L 16.351562 17.773438 L 16.351562 16.242188 L 18.472656 16.242188 Z M 18.507812 16.238281 "/>
</g>
</svg>
