<?xml version="1.0" encoding="UTF-8"?>
<svg xmlns="http://www.w3.org/2000/svg" xmlns:xlink="http://www.w3.org/1999/xlink" width="36pt" height="36pt" viewBox="0 0 36 36" version="1.1">
<g id="surface1">
<path style=" stroke:none;fill-rule:evenodd;fill:rgb(95.686275%,26.27451%,21.176471%);fill-opacity:1;" d="M 23.835938 2.25 L 8.476562 2.25 C 5.027344 2.25 2.25 5.027344 2.25 8.476562 L 2.25 27.523438 C 2.25 30.972656 5.027344 33.75 8.476562 33.75 L 27.523438 33.75 C 30.972656 33.75 33.75 30.972656 33.75 27.523438 L 33.75 12.164062 Z M 23.835938 2.25 "/>
<path style=" stroke:none;fill-rule:evenodd;fill:rgb(78.823529%,21.568627%,17.254902%);fill-opacity:1;" d="M 33.75 12.164062 L 23.835938 2.25 L 23.835938 5.9375 C 23.835938 9.386719 26.613281 12.164062 30.0625 12.164062 Z M 33.75 12.164062 "/>
<path style=" stroke:none;fill-rule:nonzero;fill:rgb(95.294118%,69.019608%,55.686275%);fill-opacity:1;" d="M 11.859375 12.476562 L 8.445312 16.570312 L 13.222656 16.570312 Z M 13.457031 12.476562 L 13.90625 15.207031 L 16.183594 12.476562 Z M 18 12.476562 L 14.589844 16.570312 L 21.410156 16.570312 Z M 19.816406 12.476562 L 22.09375 15.207031 L 22.542969 12.476562 Z M 24.140625 12.476562 L 22.777344 16.570312 L 27.554688 16.570312 Z M 8.445312 17.9375 L 17.316406 27.488281 L 13.222656 17.9375 Z M 14.589844 17.9375 L 18 26.125 L 21.410156 17.9375 Z M 22.777344 17.9375 L 18.683594 27.488281 L 27.554688 17.9375 Z M 22.777344 17.9375 "/>
</g>
</svg>
