<?xml version="1.0" encoding="UTF-8"?>
<svg xmlns="http://www.w3.org/2000/svg" xmlns:xlink="http://www.w3.org/1999/xlink" width="36pt" height="36pt" viewBox="0 0 36 36" version="1.1">
<g id="surface1">
<path style=" stroke:none;fill-rule:evenodd;fill:rgb(80%,80%,80%);fill-opacity:1;" d="M 23.835938 2.25 L 8.476562 2.25 C 5.027344 2.25 2.25 5.027344 2.25 8.476562 L 2.25 27.523438 C 2.25 30.972656 5.027344 33.75 8.476562 33.75 L 27.523438 33.75 C 30.972656 33.75 33.75 30.972656 33.75 27.523438 L 33.75 12.164062 Z M 23.835938 2.25 "/>
<path style=" stroke:none;fill-rule:evenodd;fill:rgb(60%,60%,60%);fill-opacity:1;" d="M 33.75 12.164062 L 23.835938 2.25 L 23.835938 5.9375 C 23.835938 9.386719 26.613281 12.164062 30.0625 12.164062 Z M 33.75 12.164062 "/>
<path style=" stroke:none;fill-rule:nonzero;fill:rgb(60%,60%,60%);fill-opacity:1;" d="M 18 13.796875 C 14.582031 13.796875 11.25 16.566406 11.25 19.984375 C 11.25 23.398438 14.582031 26.171875 18 26.171875 L 18 23.921875 C 15.824219 23.921875 13.5 22.15625 13.5 19.984375 C 13.5 17.808594 15.824219 16.046875 18 16.046875 Z M 21.375 13.796875 L 21.375 14.921875 L 20.25 14.921875 L 20.25 17.171875 L 21.375 17.171875 L 21.375 18.296875 L 23.625 18.296875 L 23.625 17.171875 L 24.75 17.171875 L 24.75 14.921875 L 23.625 14.921875 L 23.625 13.796875 Z M 21.375 21.671875 L 21.375 22.796875 L 20.25 22.796875 L 20.25 25.046875 L 21.375 25.046875 L 21.375 26.171875 L 23.625 26.171875 L 23.625 25.046875 L 24.75 25.046875 L 24.75 22.796875 L 23.625 22.796875 L 23.625 21.671875 Z M 21.375 21.671875 "/>
</g>
</svg>
