<?xml version="1.0" encoding="UTF-8"?>
<svg xmlns="http://www.w3.org/2000/svg" xmlns:xlink="http://www.w3.org/1999/xlink" width="36pt" height="36pt" viewBox="0 0 36 36" version="1.1">
<g id="surface1">
<path style=" stroke:none;fill-rule:evenodd;fill:rgb(37.647059%,49.019608%,54.509804%);fill-opacity:1;" d="M 23.835938 2.25 L 8.476562 2.25 C 5.027344 2.25 2.25 5.027344 2.25 8.476562 L 2.25 27.523438 C 2.25 30.972656 5.027344 33.75 8.476562 33.75 L 27.523438 33.75 C 30.972656 33.75 33.75 30.972656 33.75 27.523438 L 33.75 12.164062 Z M 23.835938 2.25 "/>
<path style=" stroke:none;fill-rule:evenodd;fill:rgb(21.960784%,31.372549%,40.392157%);fill-opacity:1;" d="M 33.75 12.164062 L 23.835938 2.25 L 23.835938 5.9375 C 23.835938 9.386719 26.613281 12.164062 30.0625 12.164062 Z M 33.75 12.164062 "/>
<path style=" stroke:none;fill-rule:evenodd;fill:rgb(61.176471%,74.509804%,79.215686%);fill-opacity:1;" d="M 14.882812 12.976562 C 14.859375 12.972656 14.839844 12.976562 14.820312 12.976562 C 14.757812 12.980469 14.699219 12.992188 14.640625 13.011719 C 14.640625 13.011719 14.21875 13.152344 13.730469 13.410156 C 13.242188 13.667969 12.648438 14.027344 12.265625 14.648438 C 11.839844 15.335938 12.003906 16.074219 12.136719 16.515625 C 12.265625 16.953125 12.339844 17.148438 12.21875 17.441406 C 12.160156 17.585938 11.792969 17.902344 11.394531 18.097656 C 10.992188 18.292969 10.628906 18.398438 10.628906 18.398438 C 10.457031 18.441406 10.308594 18.554688 10.214844 18.710938 C 10.125 18.867188 10.101562 19.054688 10.148438 19.226562 C 10.0625 19.582031 10.277344 19.941406 10.628906 20.035156 C 10.628906 20.035156 10.992188 20.140625 11.394531 20.335938 C 11.792969 20.53125 12.160156 20.847656 12.21875 20.992188 C 12.339844 21.289062 12.265625 21.480469 12.136719 21.921875 C 12.003906 22.363281 11.839844 23.097656 12.265625 23.789062 C 12.648438 24.40625 13.242188 24.769531 13.730469 25.023438 C 14.21875 25.28125 14.640625 25.421875 14.640625 25.421875 C 14.871094 25.511719 15.132812 25.464844 15.320312 25.300781 C 15.507812 25.140625 15.589844 24.886719 15.539062 24.644531 C 15.484375 24.402344 15.304688 24.210938 15.066406 24.140625 C 15.066406 24.140625 14.746094 24.035156 14.359375 23.832031 C 13.972656 23.628906 13.558594 23.3125 13.414062 23.078125 C 13.25 22.808594 13.300781 22.71875 13.425781 22.308594 C 13.546875 21.898438 13.769531 21.21875 13.460938 20.476562 C 13.191406 19.816406 12.644531 19.46875 12.160156 19.21875 C 12.644531 18.964844 13.191406 18.617188 13.460938 17.960938 C 13.769531 17.214844 13.546875 16.535156 13.425781 16.125 C 13.300781 15.71875 13.25 15.625 13.414062 15.355469 C 13.558594 15.121094 13.972656 14.804688 14.359375 14.601562 C 14.746094 14.398438 15.066406 14.292969 15.066406 14.292969 C 15.378906 14.191406 15.574219 13.882812 15.527344 13.558594 C 15.484375 13.230469 15.210938 12.984375 14.882812 12.976562 Z M 21.113281 12.976562 C 20.785156 12.988281 20.515625 13.234375 20.46875 13.558594 C 20.425781 13.882812 20.621094 14.195312 20.933594 14.292969 C 20.933594 14.292969 21.253906 14.398438 21.640625 14.601562 C 22.027344 14.804688 22.441406 15.121094 22.585938 15.359375 C 22.75 15.625 22.699219 15.71875 22.574219 16.125 C 22.453125 16.535156 22.230469 17.214844 22.539062 17.960938 C 22.808594 18.617188 23.355469 18.964844 23.839844 19.21875 C 23.355469 19.46875 22.808594 19.816406 22.539062 20.476562 C 22.230469 21.21875 22.453125 21.898438 22.574219 22.308594 C 22.699219 22.71875 22.75 22.808594 22.585938 23.078125 C 22.441406 23.3125 22.027344 23.628906 21.640625 23.832031 C 21.253906 24.035156 20.933594 24.144531 20.933594 24.144531 C 20.695312 24.210938 20.515625 24.402344 20.460938 24.644531 C 20.410156 24.886719 20.492188 25.140625 20.679688 25.300781 C 20.867188 25.464844 21.128906 25.511719 21.359375 25.421875 C 21.359375 25.421875 21.78125 25.28125 22.269531 25.023438 C 22.757812 24.769531 23.351562 24.40625 23.734375 23.789062 C 24.160156 23.097656 23.996094 22.363281 23.863281 21.921875 C 23.734375 21.480469 23.660156 21.289062 23.78125 20.992188 C 23.839844 20.847656 24.207031 20.53125 24.605469 20.335938 C 25.007812 20.140625 25.371094 20.035156 25.371094 20.035156 C 25.722656 19.941406 25.9375 19.582031 25.851562 19.226562 C 25.898438 19.054688 25.875 18.867188 25.785156 18.710938 C 25.691406 18.554688 25.542969 18.441406 25.371094 18.398438 C 25.371094 18.398438 25.007812 18.292969 24.605469 18.097656 C 24.207031 17.902344 23.839844 17.585938 23.78125 17.441406 C 23.660156 17.148438 23.734375 16.953125 23.863281 16.515625 C 23.996094 16.074219 24.160156 15.335938 23.734375 14.648438 C 23.351562 14.027344 22.757812 13.667969 22.269531 13.410156 C 21.78125 13.152344 21.359375 13.011719 21.359375 13.011719 C 21.300781 12.992188 21.242188 12.980469 21.179688 12.976562 C 21.160156 12.976562 21.136719 12.972656 21.117188 12.976562 C 21.117188 12.976562 21.113281 12.976562 21.113281 12.976562 Z M 18 15.691406 C 17.25 15.691406 16.640625 16.296875 16.640625 17.046875 C 16.640625 17.796875 17.25 18.40625 18 18.40625 C 18.75 18.40625 19.359375 17.796875 19.359375 17.046875 C 19.359375 16.296875 18.75 15.691406 18 15.691406 Z M 18 19.765625 C 17.25 19.765625 16.640625 20.371094 16.640625 21.121094 C 16.640625 21.871094 17.25 22.480469 18 22.480469 C 18.480469 22.480469 18.679688 23.835938 18.679688 23.835938 C 18.679688 23.835938 19.359375 21.390625 19.359375 21.121094 C 19.359375 20.371094 18.75 19.765625 18 19.765625 Z M 18 19.765625 "/>
</g>
</svg>
