<?xml version="1.0" encoding="UTF-8"?>
<svg xmlns="http://www.w3.org/2000/svg" xmlns:xlink="http://www.w3.org/1999/xlink" width="36pt" height="36pt" viewBox="0 0 36 36" version="1.1">
<g id="surface1">
<path style=" stroke:none;fill-rule:evenodd;fill:rgb(5.098039%,80%,67.45098%);fill-opacity:1;" d="M 23.835938 2.25 L 8.476562 2.25 C 5.027344 2.25 2.25 5.027344 2.25 8.476562 L 2.25 27.523438 C 2.25 30.972656 5.027344 33.75 8.476562 33.75 L 27.523438 33.75 C 30.972656 33.75 33.75 30.972656 33.75 27.523438 L 33.75 12.164062 Z M 23.835938 2.25 "/>
<path style=" stroke:none;fill-rule:evenodd;fill:rgb(8.235294%,57.254902%,48.235294%);fill-opacity:1;" d="M 33.75 12.164062 L 23.835938 2.25 L 23.835938 5.9375 C 23.835938 9.386719 26.613281 12.164062 30.0625 12.164062 Z M 33.75 12.164062 "/>
<path style=" stroke:none;fill-rule:nonzero;fill:rgb(7.058824%,46.27451%,40%);fill-opacity:1;" d="M 11.25 12.59375 L 11.25 13.71875 L 18 13.71875 L 18 12.59375 Z M 11.25 15.96875 L 11.25 17.09375 L 24.75 17.09375 L 24.75 15.96875 Z M 11.25 19.34375 L 11.25 20.46875 L 18 20.46875 L 18 19.34375 Z M 11.25 21.59375 L 11.25 22.71875 L 24.75 22.71875 L 24.75 21.59375 Z M 11.25 24.96875 L 11.25 26.09375 L 21.375 26.09375 L 21.375 24.96875 Z M 11.25 24.96875 "/>
</g>
</svg>
