<?xml version="1.0" encoding="UTF-8"?>
<svg xmlns="http://www.w3.org/2000/svg" xmlns:xlink="http://www.w3.org/1999/xlink" width="36pt" height="36pt" viewBox="0 0 36 36" version="1.1">
<g id="surface1">
<path style=" stroke:none;fill-rule:evenodd;fill:rgb(80%,80%,80%);fill-opacity:1;" d="M 23.835938 2.25 L 8.476562 2.25 C 5.027344 2.25 2.25 5.027344 2.25 8.476562 L 2.25 27.523438 C 2.25 30.972656 5.027344 33.75 8.476562 33.75 L 27.523438 33.75 C 30.972656 33.75 33.75 30.972656 33.75 27.523438 L 33.75 12.164062 Z M 23.835938 2.25 "/>
<path style=" stroke:none;fill-rule:evenodd;fill:rgb(60%,60%,60%);fill-opacity:1;" d="M 33.75 12.164062 L 23.835938 2.25 L 23.835938 5.9375 C 23.835938 9.386719 26.613281 12.164062 30.0625 12.164062 Z M 33.75 12.164062 "/>
<path style=" stroke:none;fill-rule:nonzero;fill:rgb(60%,60%,60%);fill-opacity:1;" d="M 18 12.269531 C 16.972656 12.269531 16.050781 12.550781 15.351562 13.085938 C 14.652344 13.621094 14.21875 14.355469 13.960938 15.085938 C 13.441406 16.550781 13.480469 18.105469 13.480469 19.375 C 13.480469 20.640625 13.441406 22.195312 13.960938 23.660156 C 14.21875 24.390625 14.652344 25.125 15.351562 25.65625 C 16.050781 26.191406 16.972656 26.476562 18 26.476562 C 19.785156 26.476562 20.902344 26.132812 21.632812 25.546875 C 21.996094 25.253906 22.242188 24.902344 22.371094 24.59375 C 22.5 24.28125 22.519531 23.894531 22.519531 23.894531 L 22.519531 22.601562 L 19.9375 22.601562 L 19.9375 23.546875 C 19.832031 23.621094 19.382812 23.894531 18 23.894531 C 17.410156 23.894531 17.128906 23.765625 16.917969 23.605469 C 16.710938 23.445312 16.535156 23.203125 16.390625 22.796875 C 16.105469 21.988281 16.0625 20.640625 16.0625 19.375 C 16.0625 18.105469 16.105469 16.757812 16.390625 15.949219 C 16.535156 15.546875 16.710938 15.296875 16.917969 15.140625 C 17.128906 14.980469 17.410156 14.851562 18 14.851562 C 19.382812 14.851562 19.832031 15.125 19.9375 15.199219 L 19.9375 16.144531 L 22.519531 16.144531 L 22.519531 14.851562 C 22.519531 14.851562 22.5 14.464844 22.371094 14.15625 C 22.242188 13.84375 21.996094 13.492188 21.632812 13.199219 C 20.902344 12.613281 19.785156 12.269531 18 12.269531 Z M 18 12.269531 "/>
</g>
</svg>
