<?xml version="1.0" encoding="UTF-8"?>
<svg xmlns="http://www.w3.org/2000/svg" xmlns:xlink="http://www.w3.org/1999/xlink" width="36pt" height="36pt" viewBox="0 0 36 36" version="1.1">
<g id="surface1">
<path style=" stroke:none;fill-rule:evenodd;fill:rgb(80%,80%,80%);fill-opacity:1;" d="M 23.835938 2.25 L 8.476562 2.25 C 5.027344 2.25 2.25 5.027344 2.25 8.476562 L 2.25 27.523438 C 2.25 30.972656 5.027344 33.75 8.476562 33.75 L 27.523438 33.75 C 30.972656 33.75 33.75 30.972656 33.75 27.523438 L 33.75 12.164062 Z M 23.835938 2.25 "/>
<path style=" stroke:none;fill-rule:evenodd;fill:rgb(60%,60%,60%);fill-opacity:1;" d="M 33.75 12.164062 L 23.835938 2.25 L 23.835938 5.9375 C 23.835938 9.386719 26.613281 12.164062 30.0625 12.164062 Z M 33.75 12.164062 "/>
<path style=" stroke:none;fill-rule:nonzero;fill:rgb(60%,60%,60%);fill-opacity:1;" d="M 18 12.640625 L 18 26.410156 L 20.503906 26.410156 L 20.503906 20.152344 L 23.007812 20.152344 L 23.007812 26.410156 L 25.511719 26.410156 L 25.511719 17.648438 L 20.503906 17.648438 L 20.503906 12.640625 Z M 12.367188 22.65625 C 11.328125 22.65625 10.488281 23.496094 10.488281 24.535156 C 10.488281 25.570312 11.328125 26.410156 12.367188 26.410156 C 13.402344 26.410156 14.242188 25.570312 14.242188 24.535156 C 14.242188 23.496094 13.402344 22.65625 12.367188 22.65625 Z M 12.367188 22.65625 "/>
</g>
</svg>
