<?xml version="1.0" encoding="UTF-8"?>
<svg xmlns="http://www.w3.org/2000/svg" xmlns:xlink="http://www.w3.org/1999/xlink" width="36pt" height="36pt" viewBox="0 0 36 36" version="1.1">
<g id="surface1">
<path style=" stroke:none;fill-rule:evenodd;fill:rgb(80%,80%,80%);fill-opacity:1;" d="M 23.835938 2.25 L 8.476562 2.25 C 5.027344 2.25 2.25 5.027344 2.25 8.476562 L 2.25 27.523438 C 2.25 30.972656 5.027344 33.75 8.476562 33.75 L 27.523438 33.75 C 30.972656 33.75 33.75 30.972656 33.75 27.523438 L 33.75 12.164062 Z M 23.835938 2.25 "/>
<path style=" stroke:none;fill-rule:evenodd;fill:rgb(60%,60%,60%);fill-opacity:1;" d="M 33.75 12.164062 L 23.835938 2.25 L 23.835938 5.9375 C 23.835938 9.386719 26.613281 12.164062 30.0625 12.164062 Z M 33.75 12.164062 "/>
<path style=" stroke:none;fill-rule:nonzero;fill:rgb(60%,60%,60%);fill-opacity:1;" d="M 16.042969 11.382812 L 15.890625 13.160156 C 15.140625 13.425781 14.449219 13.828125 13.847656 14.351562 L 12.195312 13.582031 L 10.238281 16.941406 L 11.757812 17.988281 C 11.6875 18.371094 11.652344 18.757812 11.652344 19.144531 C 11.652344 19.53125 11.6875 19.917969 11.757812 20.300781 L 10.238281 21.34375 L 12.199219 24.703125 L 13.84375 23.9375 C 14.445312 24.457031 15.140625 24.863281 15.890625 25.125 L 16.039062 26.90625 L 19.957031 26.90625 L 20.105469 25.128906 C 20.859375 24.863281 21.550781 24.457031 22.152344 23.933594 L 23.800781 24.703125 L 25.761719 21.34375 L 24.238281 20.296875 C 24.3125 19.917969 24.347656 19.53125 24.351562 19.144531 C 24.347656 18.757812 24.3125 18.371094 24.242188 17.988281 L 25.761719 16.945312 L 23.800781 13.585938 L 22.160156 14.351562 C 21.554688 13.828125 20.859375 13.425781 20.109375 13.160156 L 19.957031 11.382812 Z M 18 16.324219 C 19.558594 16.324219 20.820312 17.585938 20.820312 19.144531 C 20.820312 20.703125 19.558594 21.964844 18 21.964844 C 16.441406 21.964844 15.175781 20.703125 15.175781 19.144531 C 15.175781 17.585938 16.441406 16.324219 18 16.324219 Z M 18 16.324219 "/>
</g>
</svg>
