<?xml version="1.0" encoding="UTF-8"?>
<svg xmlns="http://www.w3.org/2000/svg" xmlns:xlink="http://www.w3.org/1999/xlink" width="36pt" height="36pt" viewBox="0 0 36 36" version="1.1">
<g id="surface1">
<path style=" stroke:none;fill-rule:evenodd;fill:rgb(11.764706%,53.333333%,89.803922%);fill-opacity:1;" d="M 23.835938 2.25 L 8.476562 2.25 C 5.027344 2.25 2.25 5.027344 2.25 8.476562 L 2.25 27.523438 C 2.25 30.972656 5.027344 33.75 8.476562 33.75 L 27.523438 33.75 C 30.972656 33.75 33.75 30.972656 33.75 27.523438 L 33.75 12.164062 Z M 23.835938 2.25 "/>
<path style=" stroke:none;fill-rule:evenodd;fill:rgb(21.960784%,43.529412%,66.27451%);fill-opacity:1;" d="M 33.75 12.164062 L 23.835938 2.25 L 23.835938 5.9375 C 23.835938 9.386719 26.613281 12.164062 30.0625 12.164062 Z M 33.75 12.164062 "/>
<path style=" stroke:none;fill-rule:nonzero;fill:rgb(65.882353%,81.568627%,99.607843%);fill-opacity:1;" d="M 14.0625 13.820312 C 12.507812 13.820312 11.25 15.078125 11.25 16.632812 C 11.25 18.183594 12.507812 19.445312 14.0625 19.445312 C 15.617188 19.445312 16.875 18.183594 16.875 16.632812 C 16.875 15.078125 15.617188 13.820312 14.0625 13.820312 Z M 21.9375 13.820312 C 20.382812 13.820312 19.125 15.078125 19.125 16.632812 C 19.125 18.183594 20.382812 19.445312 21.9375 19.445312 C 23.492188 19.445312 24.75 18.183594 24.75 16.632812 C 24.75 15.078125 23.492188 13.820312 21.9375 13.820312 Z M 13.5 15.507812 C 14.121094 15.507812 14.625 16.011719 14.625 16.632812 C 14.625 17.253906 14.121094 17.757812 13.5 17.757812 C 12.878906 17.757812 12.375 17.253906 12.375 16.632812 C 12.375 16.011719 12.878906 15.507812 13.5 15.507812 Z M 21.375 15.507812 C 21.996094 15.507812 22.5 16.011719 22.5 16.632812 C 22.5 17.253906 21.996094 17.757812 21.375 17.757812 C 20.753906 17.757812 20.25 17.253906 20.25 16.632812 C 20.25 16.011719 20.753906 15.507812 21.375 15.507812 Z M 17.960938 19.445312 C 17.675781 19.453125 17.402344 19.527344 17.15625 19.671875 C 16.632812 19.972656 16.3125 20.527344 16.3125 21.132812 L 19.6875 21.132812 C 19.6875 20.527344 19.367188 19.972656 18.84375 19.671875 C 18.574219 19.515625 18.269531 19.4375 17.960938 19.445312 Z M 19.6875 21.132812 C 19.6875 21.734375 19.367188 22.292969 18.84375 22.59375 C 18.320312 22.894531 17.679688 22.894531 17.15625 22.59375 C 16.632812 22.292969 16.3125 21.734375 16.3125 21.132812 L 15.1875 21.132812 C 14.253906 21.132812 13.5 21.882812 13.5 22.820312 C 13.5 23.753906 14.253906 24.507812 15.1875 24.507812 L 15.75 24.507812 L 15.75 25.632812 C 15.75 26.253906 16.25 26.757812 16.875 26.757812 C 17.5 26.757812 18 26.253906 18 25.632812 C 18 26.253906 18.5 26.757812 19.125 26.757812 C 19.75 26.757812 20.25 26.253906 20.25 25.632812 L 20.25 24.507812 L 20.8125 24.507812 C 21.746094 24.507812 22.5 23.753906 22.5 22.820312 C 22.5 21.882812 21.746094 21.132812 20.8125 21.132812 Z M 19.6875 21.132812 "/>
</g>
</svg>
