<?xml version="1.0" encoding="UTF-8"?>
<svg xmlns="http://www.w3.org/2000/svg" xmlns:xlink="http://www.w3.org/1999/xlink" width="36pt" height="36pt" viewBox="0 0 36 36" version="1.1">
<g id="surface1">
<path style=" stroke:none;fill-rule:evenodd;fill:rgb(58.431373%,35.686275%,79.215686%);fill-opacity:1;" d="M 23.835938 2.25 L 8.476562 2.25 C 5.027344 2.25 2.25 5.027344 2.25 8.476562 L 2.25 27.523438 C 2.25 30.972656 5.027344 33.75 8.476562 33.75 L 27.523438 33.75 C 30.972656 33.75 33.75 30.972656 33.75 27.523438 L 33.75 12.164062 Z M 23.835938 2.25 "/>
<path style=" stroke:none;fill-rule:evenodd;fill:rgb(88.627451%,83.137255%,94.509804%);fill-opacity:1;" d="M 33.75 12.164062 L 23.835938 2.25 L 23.835938 5.9375 C 23.835938 9.386719 26.613281 12.164062 30.0625 12.164062 Z M 33.75 12.164062 "/>
<path style=" stroke:none;fill-rule:nonzero;fill:rgb(88.627451%,83.137255%,94.509804%);fill-opacity:1;" d="M 11.464844 14.15625 L 21.253906 14.15625 C 21.984375 14.15625 21.984375 14.882812 21.984375 14.882812 L 21.984375 23.558594 C 21.984375 24.28125 21.253906 24.28125 21.253906 24.28125 L 11.464844 24.28125 C 11.464844 24.28125 10.734375 24.28125 10.734375 23.558594 L 10.734375 14.882812 C 10.734375 14.882812 10.734375 14.15625 11.464844 14.15625 Z M 26.484375 15.28125 L 26.484375 23.71875 L 21.984375 19.21875 Z M 26.484375 15.28125 "/>
</g>
</svg>
