<?xml version="1.0" encoding="UTF-8"?>
<svg xmlns="http://www.w3.org/2000/svg" xmlns:xlink="http://www.w3.org/1999/xlink" width="36pt" height="36pt" viewBox="0 0 36 36" version="1.1">
<g id="surface1">
<path style=" stroke:none;fill-rule:evenodd;fill:rgb(99.215686%,84.705882%,56.862745%);fill-opacity:1;" d="M 23.835938 2.25 L 8.476562 2.25 C 5.027344 2.25 2.25 5.027344 2.25 8.476562 L 2.25 27.523438 C 2.25 30.972656 5.027344 33.75 8.476562 33.75 L 27.523438 33.75 C 30.972656 33.75 33.75 30.972656 33.75 27.523438 L 33.75 12.164062 Z M 23.835938 2.25 "/>
<path style=" stroke:none;fill-rule:evenodd;fill:rgb(60.784314%,43.137255%,1.176471%);fill-opacity:1;" d="M 33.75 12.164062 L 23.835938 2.25 L 23.835938 5.9375 C 23.835938 9.386719 26.613281 12.164062 30.0625 12.164062 Z M 33.75 12.164062 "/>
<path style=" stroke:none;fill-rule:evenodd;fill:rgb(60.784314%,43.137255%,1.176471%);fill-opacity:1;" d="M 12.375 13.851562 L 12.375 14.976562 L 11.25 14.976562 L 11.25 25.101562 L 24.75 25.101562 L 24.75 14.976562 L 23.625 14.976562 L 23.625 13.851562 L 19.125 13.851562 L 19.125 14.976562 L 16.875 14.976562 L 16.875 13.851562 Z M 13.5 14.976562 L 15.75 14.976562 L 15.75 16.101562 L 20.25 16.101562 L 20.25 14.976562 L 22.5 14.976562 L 22.5 16.101562 L 23.625 16.101562 L 23.625 23.976562 L 12.375 23.976562 L 12.375 16.101562 L 13.5 16.101562 Z M 13.5 14.976562 "/>
</g>
</svg>
