<?xml version="1.0" encoding="UTF-8"?>
<svg xmlns="http://www.w3.org/2000/svg" xmlns:xlink="http://www.w3.org/1999/xlink" width="36pt" height="36pt" viewBox="0 0 36 36" version="1.1">
<g id="surface1">
<path style=" stroke:none;fill-rule:evenodd;fill:rgb(56.470588%,27.843137%,68.235294%);fill-opacity:1;" d="M 23.835938 2.25 L 8.476562 2.25 C 5.027344 2.25 2.25 5.027344 2.25 8.476562 L 2.25 27.523438 C 2.25 30.972656 5.027344 33.75 8.476562 33.75 L 27.523438 33.75 C 30.972656 33.75 33.75 30.972656 33.75 27.523438 L 33.75 12.164062 Z M 23.835938 2.25 "/>
<path style=" stroke:none;fill-rule:evenodd;fill:rgb(87.45098%,80.392157%,88.627451%);fill-opacity:1;" d="M 33.75 12.164062 L 23.835938 2.25 L 23.835938 5.9375 C 23.835938 9.386719 26.613281 12.164062 30.0625 12.164062 Z M 33.75 12.164062 "/>
<path style=" stroke:none;fill-rule:nonzero;fill:rgb(87.45098%,80.392157%,88.627451%);fill-opacity:1;" d="M 18 12.457031 C 16.128906 12.457031 14.625 13.964844 14.625 15.832031 L 16.875 15.832031 L 16.875 16.957031 L 14.625 16.957031 L 14.625 19.207031 L 16.875 19.207031 L 16.875 20.332031 L 14.828125 20.332031 C 15.292969 21.644531 16.527344 22.582031 18 22.582031 C 19.472656 22.582031 20.707031 21.644531 21.171875 20.332031 L 19.125 20.332031 L 19.125 19.207031 L 21.375 19.207031 L 21.375 16.957031 L 19.125 16.957031 L 19.125 15.832031 L 21.375 15.832031 C 21.375 13.964844 19.871094 12.457031 18 12.457031 M 12.488281 20.332031 C 12.933594 22.542969 14.667969 24.265625 16.875 24.714844 L 16.875 24.832031 L 15.75 25.957031 L 20.25 25.957031 L 19.125 24.832031 L 19.125 24.714844 C 21.332031 24.265625 23.066406 22.542969 23.511719 20.332031 L 22.34375 20.332031 C 21.84375 22.277344 20.101562 23.707031 18 23.707031 C 15.898438 23.707031 14.15625 22.277344 13.65625 20.332031 Z M 12.488281 20.332031 "/>
</g>
</svg>
