<?xml version="1.0" encoding="UTF-8"?>
<svg xmlns="http://www.w3.org/2000/svg" xmlns:xlink="http://www.w3.org/1999/xlink" width="36pt" height="36pt" viewBox="0 0 36 36" version="1.1">
<g id="surface1">
<path style=" stroke:none;fill-rule:evenodd;fill:rgb(24.705882%,50.980392%,90.980392%);fill-opacity:1;" d="M 23.835938 2.25 L 8.476562 2.25 C 5.027344 2.25 2.25 5.027344 2.25 8.476562 L 2.25 27.523438 C 2.25 30.972656 5.027344 33.75 8.476562 33.75 L 27.523438 33.75 C 30.972656 33.75 33.75 30.972656 33.75 27.523438 L 33.75 12.164062 Z M 23.835938 2.25 "/>
<path style=" stroke:none;fill-rule:evenodd;fill:rgb(12.54902%,34.901961%,58.823529%);fill-opacity:0.32549;" d="M 33.75 12.164062 L 23.835938 2.25 L 23.835938 5.9375 C 23.835938 9.386719 26.613281 12.164062 30.0625 12.164062 Z M 33.75 12.164062 "/>
<path style=" stroke:none;fill-rule:nonzero;fill:rgb(100%,100%,100%);fill-opacity:0.498039;" d="M 10.03125 14.1875 L 10.03125 15.617188 L 25.761719 15.617188 L 25.761719 14.1875 Z M 10.03125 18.476562 L 10.03125 19.90625 L 25.761719 19.90625 L 25.761719 18.476562 Z M 10.03125 22.765625 L 10.03125 24.195312 L 25.761719 24.195312 L 25.761719 22.765625 Z M 10.03125 27.058594 L 10.03125 28.488281 L 21.46875 28.488281 L 21.46875 27.058594 Z M 10.03125 27.058594 "/>
</g>
</svg>
