<?xml version="1.0" encoding="UTF-8"?>
<svg xmlns="http://www.w3.org/2000/svg" xmlns:xlink="http://www.w3.org/1999/xlink" width="36pt" height="36pt" viewBox="0 0 36 36" version="1.1">
<g id="surface1">
<path style=" stroke:none;fill-rule:evenodd;fill:rgb(34.901961%,80%,58.039216%);fill-opacity:1;" d="M 23.835938 2.25 L 8.476562 2.25 C 5.027344 2.25 2.25 5.027344 2.25 8.476562 L 2.25 27.523438 C 2.25 30.972656 5.027344 33.75 8.476562 33.75 L 27.523438 33.75 C 30.972656 33.75 33.75 30.972656 33.75 27.523438 L 33.75 12.164062 Z M 23.835938 2.25 "/>
<path style=" stroke:none;fill-rule:evenodd;fill:rgb(21.960784%,58.823529%,47.45098%);fill-opacity:1;" d="M 33.75 12.164062 L 23.835938 2.25 L 23.835938 5.9375 C 23.835938 9.386719 26.613281 12.164062 30.0625 12.164062 Z M 33.75 12.164062 "/>
<path style=" stroke:none;fill-rule:nonzero;fill:rgb(21.960784%,58.823529%,47.45098%);fill-opacity:1;" d="M 11.25 12.59375 L 11.25 26.09375 L 24.75 26.09375 L 24.75 12.59375 L 22.5 12.59375 L 22.5 13.71875 L 20.25 13.71875 L 20.25 12.59375 L 15.75 12.59375 L 15.75 13.71875 L 13.5 13.71875 L 13.5 12.59375 Z M 12.375 15.96875 L 23.625 15.96875 L 23.625 24.96875 L 12.375 24.96875 Z M 13.5 17.09375 L 13.5 19.34375 L 15.75 19.34375 L 15.75 17.09375 Z M 16.875 17.09375 L 16.875 19.34375 L 19.125 19.34375 L 19.125 17.09375 Z M 20.25 17.09375 L 20.25 19.34375 L 22.5 19.34375 L 22.5 17.09375 Z M 16.875 20.46875 L 16.875 22.71875 L 19.125 22.71875 L 19.125 20.46875 Z M 20.25 20.46875 L 20.25 22.71875 L 22.5 22.71875 L 22.5 20.46875 Z M 20.25 20.46875 "/>
</g>
</svg>
