<?xml version="1.0" encoding="UTF-8" standalone="no"?>
<svg
   xmlns:dc="http://purl.org/dc/elements/1.1/"
   xmlns:cc="http://creativecommons.org/ns#"
   xmlns:rdf="http://www.w3.org/1999/02/22-rdf-syntax-ns#"
   xmlns:svg="http://www.w3.org/2000/svg"
   xmlns="http://www.w3.org/2000/svg"
   xmlns:sodipodi="http://sodipodi.sourceforge.net/DTD/sodipodi-0.dtd"
   xmlns:inkscape="http://www.inkscape.org/namespaces/inkscape"
   version="1.1"
   viewBox="0 0 32 32"
   width="32"
   height="32"
   id="svg6"
   sodipodi:docname="emblem-locked.svg"
   inkscape:version="0.92.1 r">
  <metadata
     id="metadata12">
    <rdf:RDF>
      <cc:Work
         rdf:about="">
        <dc:format>image/svg+xml</dc:format>
        <dc:type
           rdf:resource="http://purl.org/dc/dcmitype/StillImage" />
      </cc:Work>
    </rdf:RDF>
  </metadata>
  <defs
     id="defs10" />
  <sodipodi:namedview
     pagecolor="#ffffff"
     bordercolor="#666666"
     borderopacity="1"
     objecttolerance="10"
     gridtolerance="10"
     guidetolerance="10"
     inkscape:pageopacity="0"
     inkscape:pageshadow="2"
     inkscape:window-width="640"
     inkscape:window-height="480"
     id="namedview8"
     showgrid="false"
     inkscape:zoom="8.8125"
     inkscape:cx="-5.6737589"
     inkscape:cy="16"
     inkscape:current-layer="svg6" />
  <rect
     style="opacity:1;fill:#252a35;fill-opacity:1;fill-rule:evenodd;stroke:none;stroke-width:1.03534329;stroke-linecap:round;stroke-linejoin:bevel;stroke-miterlimit:4;stroke-dasharray:none;stroke-dashoffset:0;stroke-opacity:1"
     id="rect4497-3"
     width="28.203388"
     height="28.203388"
     x="1.8983059"
     y="1.8983059"
     ry="5.575182" />
  <path
     d="m 16,8.0000005 c -2.800001,0 -5.142726,1.336389 -4.999996,4.6666625 V 15 h -0.833338 c -0.6463325,0 -1.1666665,0.466858 -1.1666665,1.1 v 6.757143 C 8.9999995,23.490286 9.5203335,24 10.166666,24 H 21.833333 C 22.479666,24 23,23.490286 23,22.857143 V 16.1 C 23,15.466858 22.488941,15 21.833333,15 H 20.999995 V 12.666663 C 20.999995,9.3333375 18.8,8.0000005 16,8.0000005 Z M 16,10 c 1.4,0 3.000001,0.480743 3.000001,2.666663 V 15 H 12.999998 V 12.666663 C 12.999998,10.502377 14.599999,10 16,10 Z"
     style="opacity:1;fill:#ffffff;fill-opacity:1"
     id="path4"
     inkscape:connector-curvature="0" />
</svg>
