<?xml version="1.0" encoding="UTF-8" standalone="no"?>
<svg
   xmlns:dc="http://purl.org/dc/elements/1.1/"
   xmlns:cc="http://creativecommons.org/ns#"
   xmlns:rdf="http://www.w3.org/1999/02/22-rdf-syntax-ns#"
   xmlns:svg="http://www.w3.org/2000/svg"
   xmlns="http://www.w3.org/2000/svg"
   xmlns:sodipodi="http://sodipodi.sourceforge.net/DTD/sodipodi-0.dtd"
   xmlns:inkscape="http://www.inkscape.org/namespaces/inkscape"
   width="22"
   height="22"
   version="1.1"
   viewBox="0 0 16 16"
   id="svg7"
   sodipodi:docname="folder-decrypted.svg"
   inkscape:version="0.92.1 r">
  <metadata
     id="metadata11">
    <rdf:RDF>
      <cc:Work
         rdf:about="">
        <dc:format>image/svg+xml</dc:format>
        <dc:type
           rdf:resource="http://purl.org/dc/dcmitype/StillImage" />
      </cc:Work>
    </rdf:RDF>
  </metadata>
  <sodipodi:namedview
     pagecolor="#ffffff"
     bordercolor="#666666"
     borderopacity="1"
     objecttolerance="10"
     gridtolerance="10"
     guidetolerance="10"
     inkscape:pageopacity="0"
     inkscape:pageshadow="2"
     inkscape:window-width="769"
     inkscape:window-height="480"
     id="namedview9"
     showgrid="false"
     inkscape:zoom="10.727273"
     inkscape:cx="11"
     inkscape:cy="11"
     inkscape:window-x="0"
     inkscape:window-y="0"
     inkscape:window-maximized="0"
     inkscape:current-layer="svg7" />
  <defs
     id="defs3">
    <style
       id="current-color-scheme"
       type="text/css">
   .ColorScheme-Text { color:#d3dae3; } .ColorScheme-Highlight { color:#5294e2; }
  </style>
  </defs>
  <path
     style="color:#d3dae3;fill:currentColor;stroke-width:0.63636363"
     class="ColorScheme-Text"
     d="m 8,2.9090909 c -1.4101818,0 -2.5454545,1.1588182 -2.5454545,2.5849091 V 6.0909091 H 6.7272727 V 5.4545455 C 6.7272727,4.7488182 7.2949091,4.1818182 8,4.1818182 c 0.7050909,0 1.2727273,0.567 1.2727273,1.2727273 V 8.0000001 H 8 4.8181818 c -0.3525454,0 -0.6363636,0.283818 -0.6363636,0.636364 v 3.8181809 c 0,0.352546 0.2838182,0.636364 0.6363636,0.636364 h 6.3636362 c 0.352546,0 0.636364,-0.283818 0.636364,-0.636364 V 8.6363641 c 0,-0.352546 -0.283818,-0.636364 -0.636364,-0.636364 H 10.545455 V 5.494 C 10.545455,4.0685455 9.4101818,2.9090909 8,2.9090909 Z"
     id="path5"
     inkscape:connector-curvature="0" />
</svg>
