<?xml version="1.0" encoding="UTF-8" standalone="no"?>
<svg
   xmlns:dc="http://purl.org/dc/elements/1.1/"
   xmlns:cc="http://creativecommons.org/ns#"
   xmlns:rdf="http://www.w3.org/1999/02/22-rdf-syntax-ns#"
   xmlns:svg="http://www.w3.org/2000/svg"
   xmlns="http://www.w3.org/2000/svg"
   xmlns:sodipodi="http://sodipodi.sourceforge.net/DTD/sodipodi-0.dtd"
   xmlns:inkscape="http://www.inkscape.org/namespaces/inkscape"
   width="22"
   height="22"
   version="1.1"
   viewBox="0 0 16 16"
   id="svg7"
   sodipodi:docname="folder-apple.svg"
   inkscape:version="0.92.1 r">
  <metadata
     id="metadata11">
    <rdf:RDF>
      <cc:Work
         rdf:about="">
        <dc:format>image/svg+xml</dc:format>
        <dc:type
           rdf:resource="http://purl.org/dc/dcmitype/StillImage" />
      </cc:Work>
    </rdf:RDF>
  </metadata>
  <sodipodi:namedview
     pagecolor="#ffffff"
     bordercolor="#666666"
     borderopacity="1"
     objecttolerance="10"
     gridtolerance="10"
     guidetolerance="10"
     inkscape:pageopacity="0"
     inkscape:pageshadow="2"
     inkscape:window-width="769"
     inkscape:window-height="480"
     id="namedview9"
     showgrid="false"
     inkscape:zoom="10.727273"
     inkscape:cx="11"
     inkscape:cy="11"
     inkscape:window-x="0"
     inkscape:window-y="0"
     inkscape:window-maximized="0"
     inkscape:current-layer="svg7" />
  <defs
     id="defs3">
    <style
       id="current-color-scheme"
       type="text/css">
   .ColorScheme-Text { color:#d3dae3; } .ColorScheme-Highlight { color:#5294e2; }
  </style>
  </defs>
  <path
     style="color:#d3dae3;fill:currentColor;stroke-width:0.63636363"
     class="ColorScheme-Text"
     d="M 10.779087,8.3181821 C 10.76636,7.0454546 11.830996,6.4090909 11.878087,6.4090909 11.279905,5.5181818 10.348269,5.3909091 10.016724,5.3909091 9.22356,5.2636364 8.4693418,5.8363636 8.0669691,5.8363636 c -0.4013546,0 -1.0223182,-0.4454545 -1.6799364,-0.4454545 -0.8642455,0 -1.6611,0.5090909 -2.1061091,1.2727273 -0.8979091,1.5909087 -0.2299182,3.8818176 0.6452091,5.1545456 0.4276364,0.572727 0.9375545,1.272727 1.6070727,1.272727 0.6447637,0 0.8885546,-0.445455 1.6680364,-0.445455 0.7794818,0 0.9985818,0.445455 1.6812091,0.445455 0.6936361,0 1.1333631,-0.636364 1.5578181,-1.272727 0.490636,-0.7 0.693,-1.4 0.705091,-1.463637 -0.01527,0 -1.352909,-0.5090909 -1.366273,-2.0363629 z M 9.4970691,4.5636364 C 9.8525418,4.1181818 10.092451,3.4818182 10.026905,2.9090909 9.5150145,2.9090909 8.89456,3.2272727 8.5273145,3.6727273 8.1978054,4.0545455 7.9093418,4.6909091 7.98666,5.2636364 c 0.5713909,0.063636 1.1546818,-0.3181818 1.5104091,-0.7 z"
     id="path5"
     inkscape:connector-curvature="0" />
</svg>
