<?xml version="1.0" encoding="UTF-8" standalone="no"?>
<svg
   xmlns:dc="http://purl.org/dc/elements/1.1/"
   xmlns:cc="http://creativecommons.org/ns#"
   xmlns:rdf="http://www.w3.org/1999/02/22-rdf-syntax-ns#"
   xmlns:svg="http://www.w3.org/2000/svg"
   xmlns="http://www.w3.org/2000/svg"
   xmlns:sodipodi="http://sodipodi.sourceforge.net/DTD/sodipodi-0.dtd"
   xmlns:inkscape="http://www.inkscape.org/namespaces/inkscape"
   width="32"
   height="32"
   version="1"
   id="svg16"
   sodipodi:docname="application-vnd.ms-access.svg"
   inkscape:version="0.92.1 r">
  <metadata
     id="metadata22">
    <rdf:RDF>
      <cc:Work
         rdf:about="">
        <dc:format>image/svg+xml</dc:format>
        <dc:type
           rdf:resource="http://purl.org/dc/dcmitype/StillImage" />
      </cc:Work>
    </rdf:RDF>
  </metadata>
  <defs
     id="defs20" />
  <sodipodi:namedview
     pagecolor="#ffffff"
     bordercolor="#666666"
     borderopacity="1"
     objecttolerance="10"
     gridtolerance="10"
     guidetolerance="10"
     inkscape:pageopacity="0"
     inkscape:pageshadow="2"
     inkscape:window-width="1680"
     inkscape:window-height="978"
     id="namedview18"
     showgrid="false"
     inkscape:zoom="7.375"
     inkscape:cx="-8.6779661"
     inkscape:cy="16"
     inkscape:window-x="0"
     inkscape:window-y="0"
     inkscape:window-maximized="1"
     inkscape:current-layer="svg16" />
  <g
     id="g4511"
     transform="translate(45.694915,6.5084748)">
    <path
       inkscape:connector-curvature="0"
       id="path4508"
       d="m -24.507934,-4.5084746 h -13.65097 c -3.066406,0 -5.536011,2.4676663 -5.536011,5.5340721 V 17.955514 c 0,3.066406 2.469605,5.536011 5.536011,5.536011 h 16.929917 c 3.066406,0 5.534071,-2.469605 5.534071,-5.536011 V 4.3045442 Z"
       style="opacity:1;fill:#e81d62;fill-opacity:1;fill-rule:evenodd;stroke:none;stroke-width:1.02788651;stroke-linecap:round;stroke-linejoin:bevel;stroke-miterlimit:4;stroke-dasharray:none;stroke-dashoffset:0;stroke-opacity:1" />
    <path
       inkscape:connector-curvature="0"
       id="rect4497-3"
       d="m -15.694916,4.3045442 -8.813018,-8.8130187 v 3.2789473 c 0,3.0664056 2.467666,5.5340714 5.534072,5.5340714 z"
       style="opacity:0.17600002;fill:#000000;fill-opacity:1;fill-rule:evenodd;stroke:none;stroke-width:1.02788651;stroke-linecap:round;stroke-linejoin:bevel;stroke-miterlimit:4;stroke-dasharray:none;stroke-dashoffset:0;stroke-opacity:1" />
  </g>
  <path
     style="fill:#ffffff;stroke-width:1.46101701"
     d="m 15.998566,10.864407 c -2.45144,0 -4.545484,0.756178 -5.413182,1.826271 -0.07286,0.08984 -0.139059,0.17991 -0.194042,0.273941 -0.05223,0.08936 -0.09608,0.181268 -0.131257,0.273941 a 5.8440678,2.9220339 0 0 0 -0.02569,0.08561 c -0.02003,0.06281 -0.04234,0.124253 -0.05422,0.188334 a 5.8440678,2.9220339 0 0 0 -0.02569,0.27394 c 3.21e-4,0.09495 0.01271,0.191206 0.03138,0.285354 a 5.8440678,2.9220339 0 0 0 0.0799,0.273941 5.8440678,2.9220339 0 0 0 0.134121,0.271087 5.8440678,2.9220339 0 0 0 0.18548,0.265381 5.8440678,2.9220339 0 0 0 5.413182,1.826271 5.8440678,2.9220339 0 0 0 5.413182,-1.826271 5.8440678,2.9220339 0 0 0 0.0029,0 5.8440678,2.9220339 0 0 0 0.156945,-0.228284 c 0.0094,-0.01481 0.02259,-0.02793 0.0314,-0.04281 a 5.8440678,2.9220339 0 0 0 0.09416,-0.194041 c 0.01359,-0.03056 0.03115,-0.06054 0.04281,-0.09131 a 5.8440678,2.9220339 0 0 0 0.04851,-0.162653 c 0.01125,-0.04285 0.02395,-0.08532 0.03138,-0.128409 a 5.8440678,2.9220339 0 0 0 0.02568,-0.245405 5.8440678,2.9220339 0 0 0 -0.03138,-0.293916 c -0.05698,-0.281981 -0.194955,-0.549096 -0.399497,-0.801852 -0.867844,-1.069465 -2.961595,-1.826272 -5.413182,-1.826272 z m -5.413182,5.844068 c -0.283437,0.379864 -0.429425,0.786552 -0.430886,1.195636 0,1.760526 2.616682,3.187415 5.844068,3.187415 3.227387,0 5.844068,-1.426889 5.844068,-3.187415 -0.0015,-0.409084 -0.147449,-0.815772 -0.430886,-1.195636 -0.892681,1.203878 -3.033185,2.190064 -5.413182,2.191525 -2.379996,-0.0015 -4.5205,-0.987647 -5.413182,-2.191525 z m 0,4.383051 c -0.283437,0.379864 -0.429425,0.786552 -0.430886,1.195636 0,1.760526 2.616682,3.187415 5.844068,3.187415 3.227387,0 5.844068,-1.426889 5.844068,-3.187415 -0.0015,-0.409084 -0.147449,-0.815772 -0.430886,-1.195636 -0.892681,1.203878 -3.033185,2.190064 -5.413182,2.191525 -2.379996,-0.0015 -4.5205,-0.987647 -5.413182,-2.191525 z"
     id="path12"
     inkscape:connector-curvature="0" />
</svg>
