<?xml version="1.0" encoding="UTF-8" standalone="no"?>
<svg
   xmlns:dc="http://purl.org/dc/elements/1.1/"
   xmlns:cc="http://creativecommons.org/ns#"
   xmlns:rdf="http://www.w3.org/1999/02/22-rdf-syntax-ns#"
   xmlns:svg="http://www.w3.org/2000/svg"
   xmlns="http://www.w3.org/2000/svg"
   xmlns:sodipodi="http://sodipodi.sourceforge.net/DTD/sodipodi-0.dtd"
   xmlns:inkscape="http://www.inkscape.org/namespaces/inkscape"
   width="32"
   height="32"
   version="1"
   id="svg14"
   sodipodi:docname="application-x-trash.svg"
   inkscape:version="0.92.1 r">
  <metadata
     id="metadata20">
    <rdf:RDF>
      <cc:Work
         rdf:about="">
        <dc:format>image/svg+xml</dc:format>
        <dc:type
           rdf:resource="http://purl.org/dc/dcmitype/StillImage" />
      </cc:Work>
    </rdf:RDF>
  </metadata>
  <defs
     id="defs18" />
  <sodipodi:namedview
     pagecolor="#ffffff"
     bordercolor="#666666"
     borderopacity="1"
     objecttolerance="10"
     gridtolerance="10"
     guidetolerance="10"
     inkscape:pageopacity="0"
     inkscape:pageshadow="2"
     inkscape:window-width="1680"
     inkscape:window-height="978"
     id="namedview16"
     showgrid="false"
     inkscape:zoom="7.375"
     inkscape:cx="16"
     inkscape:cy="16"
     inkscape:window-x="0"
     inkscape:window-y="0"
     inkscape:window-maximized="1"
     inkscape:current-layer="svg14" />
  <g
     id="g4509"
     transform="translate(51.79661,14.915254)">
    <path
       inkscape:connector-curvature="0"
       id="path4508"
       d="m -30.609629,-12.915254 h -13.65097 c -3.066406,0 -5.536011,2.467666 -5.536011,5.5340719 V 9.5487348 c 0,3.0664062 2.469605,5.5360112 5.536011,5.5360112 h 16.929917 c 3.066406,0 5.534072,-2.469605 5.534072,-5.5360112 V -4.1022351 Z"
       style="opacity:1;fill:#cccccc;fill-opacity:1;fill-rule:evenodd;stroke:none;stroke-width:1.02788651;stroke-linecap:round;stroke-linejoin:bevel;stroke-miterlimit:4;stroke-dasharray:none;stroke-dashoffset:0;stroke-opacity:1" />
    <path
       inkscape:connector-curvature="0"
       id="rect4497-3"
       d="m -21.79661,-4.1022351 -8.813019,-8.8130189 v 3.2789472 c 0,3.0664056 2.467666,5.5340717 5.534072,5.5340717 z"
       style="opacity:0.17600002;fill:#000000;fill-opacity:1;fill-rule:evenodd;stroke:none;stroke-width:1.02788651;stroke-linecap:round;stroke-linejoin:bevel;stroke-miterlimit:4;stroke-dasharray:none;stroke-dashoffset:0;stroke-opacity:1" />
  </g>
  <path
     d="m 14.8466,12.127144 c -0.77,0 -0.846,1 -0.846,1 h -2.2305 c 0,0 -0.77,-0.165 -0.77,0.668 v 0.33303 l 9.9998,-0.002 v -0.33108 c 0,-0.832 -0.77,-0.668 -0.77,-0.668 h -2.23 c 0,0 -0.07645,-1 -0.8457,-1 z m -2.846,3 v 7.1875 c 4e-5,0.42541 0.08353,0.81244 0.5,0.8125 h 7 c 0.416,0 0.5,-0.387 0.5,-0.812 v -7.188 z"
     id="path10"
     inkscape:connector-curvature="0"
     style="opacity:0.5" />
</svg>
