<?xml version="1.0" encoding="UTF-8" standalone="no"?>
<svg
   xmlns:dc="http://purl.org/dc/elements/1.1/"
   xmlns:cc="http://creativecommons.org/ns#"
   xmlns:rdf="http://www.w3.org/1999/02/22-rdf-syntax-ns#"
   xmlns:svg="http://www.w3.org/2000/svg"
   xmlns="http://www.w3.org/2000/svg"
   xmlns:sodipodi="http://sodipodi.sourceforge.net/DTD/sodipodi-0.dtd"
   xmlns:inkscape="http://www.inkscape.org/namespaces/inkscape"
   width="32"
   height="32"
   version="1.1"
   id="svg16"
   sodipodi:docname="text-x-rust.svg"
   inkscape:version="0.92.1 r">
  <metadata
     id="metadata22">
    <rdf:RDF>
      <cc:Work
         rdf:about="">
        <dc:format>image/svg+xml</dc:format>
        <dc:type
           rdf:resource="http://purl.org/dc/dcmitype/StillImage" />
      </cc:Work>
    </rdf:RDF>
  </metadata>
  <defs
     id="defs20" />
  <sodipodi:namedview
     pagecolor="#ffffff"
     bordercolor="#666666"
     borderopacity="1"
     objecttolerance="10"
     gridtolerance="10"
     guidetolerance="10"
     inkscape:pageopacity="0"
     inkscape:pageshadow="2"
     inkscape:window-width="1680"
     inkscape:window-height="978"
     id="namedview18"
     showgrid="false"
     inkscape:zoom="7.375"
     inkscape:cx="16"
     inkscape:cy="16"
     inkscape:window-x="0"
     inkscape:window-y="0"
     inkscape:window-maximized="1"
     inkscape:current-layer="svg16" />
  <g
     id="g4511"
     transform="translate(41.355933,3.661017)">
    <path
       inkscape:connector-curvature="0"
       id="path4508"
       d="m -20.168951,-1.6610169 h -13.65097 c -3.066406,0 -5.536011,2.46766625 -5.536011,5.5340721 V 20.802972 c 0,3.066406 2.469605,5.536011 5.536011,5.536011 h 16.929917 c 3.066406,0 5.534071,-2.469605 5.534071,-5.536011 V 7.1520019 Z"
       style="opacity:1;fill:#dc682a;fill-opacity:1;fill-rule:evenodd;stroke:none;stroke-width:1.02788651;stroke-linecap:round;stroke-linejoin:bevel;stroke-miterlimit:4;stroke-dasharray:none;stroke-dashoffset:0;stroke-opacity:1" />
    <path
       inkscape:connector-curvature="0"
       id="rect4497-3"
       d="m -11.355933,7.1520019 -8.813018,-8.8130187 v 3.2789473 c 0,3.0664056 2.467666,5.5340714 5.534072,5.5340714 z"
       style="opacity:0.17600002;fill:#000000;fill-opacity:1;fill-rule:evenodd;stroke:none;stroke-width:1.02788651;stroke-linecap:round;stroke-linejoin:bevel;stroke-miterlimit:4;stroke-dasharray:none;stroke-dashoffset:0;stroke-opacity:1" />
  </g>
  <path
     style="fill:#ffffff"
     d="M 10,20.491525 H 8 v 2 h 7 v -2 h -2 v -2 h 1 c 2,0 2,4 4,4 h 4 c 2,0 2,-4 2,-4 h -2.5 c 0,0 0.5,2 -1.5,2 -1,0 -2,-2 -2,-2 h 0.5 c 1.66,0 3,-1.3 3,-3 0,-1.7 -1.34,-3 -3,-3 H 8 v 2 h 2 m 7.5,0 c 0.55,0 1,0.4 1,1 0,0.6 -0.45,1 -1,1 H 13 v -2"
     id="path14"
     inkscape:connector-curvature="0" />
</svg>
